<?xml version="1.0" encoding="utf-8"?>
<!-- Generator: Adobe Illustrator 26.0.0, SVG Export Plug-In . SVG Version: 6.00 Build 0)  -->
<svg version="1.1" id="Capa_1" xmlns="http://www.w3.org/2000/svg" xmlns:xlink="http://www.w3.org/1999/xlink" x="0px" y="0px"
	 viewBox="0 0 595.3 892" style="enable-background:new 0 0 595.3 892;" xml:space="preserve">
<style type="text/css">
	.st0{fill:#FFFFFF;}
</style>
<g>
	<path d="M285.7,545.2c-2.5,5.9-9.2,10.5-13.5,3.4c-2.9-4.8-4.7-5.2-9.8-3.5c-1.9,0.6-4.9,0.5-6.2-0.6c-3.3-7.1,5.3-14.6,7.2-21.4
		c2-4.6,3.3-9.5,4.9-14.3c-0.3-0.2-0.7-0.5-1-0.7c-33.9,12.4-72.6,19.7-106.9,4.8c-17.1-8-29.5-23.4-42.5-36.6
		c-5-5.5-3.8-15.4-10.8-19.6c-14.1-9.1-26.5-20.3-38.3-32.1c-1.9-1.9-3.6-1.9-6-1.6c-9.9,1.4-19.8,3-29.7,3.4
		c-9.2,0.5-12.7-3.7-13.5-12.9c-0.5-3.3-1.8-6.6-3.1-9.7c-0.5-6.5-6.9-10.7-7-17.6c-2.5-6.9-17-10.9-5-19c8.8-5.2,11-13,10.9-22.1
		c-0.2-12.1-0.5-24.1-0.9-36.2c-1.1-8-1.8-16.7,1.5-24.2c23-37.7,86.4-49,124.8-30c23.1-3.7,41.5-1.3,48.9,24.5
		c3.8,12.7,3.3,29.7-8.9,37.7c-2.1,1.3-2.5,2.7-2.5,5c3.2,42.6-22.3,66.8-62.5,73.2c2,5,13.6,11.1,19.5,9.7c0.6-0.1,1.3-0.4,1.6-0.9
		c3.9-5.4,9.9-7.4,15.9-8.7c25.6-5.8,51.5-9.5,77.6-12.1c18.6-5.6,37.4-11.8,56.1-17.1c11.4-3.2,8.6-2.2,10.3-12.2
		c4.5-36.7,15.6-74.6,1.2-110.4c-6.3-17.5-8.8-35.6-7.2-54.1c1.5-16.8,6-32.9,12.6-48.5c2.7-6.4,5.1-12.9,7.7-19.2
		c3.4-7.6-5-11.2-10-14.9c-15-8.5-5.4-23.5-0.9-35.5c4.7-27.5-19.3-35,4.7-67.6c12.2-13.2,17,12.6,20.7,20.8
		c5.7,16.5,10.4,33.2,12.8,50.5c6.4,39,3.6,78.4,1.2,117.6c-0.9,13.9,1.4,26.9,6.9,39.7c2.6,6.1,4.7,13,4.7,19.6
		c1.1,30.2,8,58.7,10.9,89c7.1-6.4,16.7-10.4,21.6-18.3c15.5-33.3,30.9-66.6,46.6-99.8c2-4.1,1.6-7.9,1.5-12.1
		c-0.3-10.1-0.1-20.2,0-30.3c0-3.3,2-5.5,5-6.6s4-3.1,3-6c-3.4-11,5.8-18.8,12.8-25.6c12.4-11.2,33.5-5.6,37.3,10.2
		c6.4,32.7-16.5,29.6-12.4,39.2c4.3,7.9-23.6,27.2-30.2,31.2c-16.8,28.7-27.2,62.2-41.9,92.4c0.3,0.1,0.4,0.2,0.5,0.2
		c8.6-5.2,14.8,3.5,9.9,11.3c-0.9,1.9-1.4,3.3-0.4,5.6c3.1,7-0.9,18.1-6.4,23c-2.6,13.9-18.3,9-21.4,18.2c-1,5.9-3.6,13.2-10.1,12.2
		c-5.1-0.2-8.7-3.2-9.9-8.4c-6.3-0.4-2.2,12.1-3.3,16.3c37.3,2.9,24.5-27.2,63.2-33.2c4.5-1,7.7-2.9,10.9-6.2
		c17-17.4,34.2-34.5,51.3-51.6c30.9-30.7,27.3-22.3,40.9-64c1.9-7.5,11-2.3,11.9-8.3c1-19,35.4-30.8,46.7-14.9
		c4.7,5.2,7.9,11.3,5.6,18.5c-3.9,9.8-7.2,23.8-19.9,24.7c-3,0.2-5,1.7-4.8,5.2c1.9,9.2-31.7,18-39.4,19.4c-1.7,0.3-3.4,1.7-4.6,3
		c-22.4,25.2-48.5,47.6-68.4,74.6c-4.7,6.9-7.2,15.6-15.1,20.4c-4.7,3.5-3.8,12-9.4,15.1c-7.6,5.1-12.7,14.3-22.5,14.9
		c-1.3,0.1-2.8,1.8-3.7,3.1c-1.6,6.1-2.8,12.6-10.6,12.1c-6.8-0.1-13.5-4.7-12.3-11.1c-4.6,2.1-19.2,2.6-20,7.5
		c-9.4,43.8-5.8,88.7-8.6,133.1c-1.7,28.5-8.4,56.9-11,85.3c0.9,29.7,10.2,58.3-4.2,86.6c-12.8,28.4-27.9,55.8-38.9,85
		c-1.6,3.2-0.7,4.7,1.6,6.7c30.9,26.2-17.7,42.9-28.2,64.3c-2.2,4.7-6.4,7.3-11.4,7.5c-14.3,0.6-28.7,1-43.1,0.8
		c-6.8-0.1-9-5.3-5.1-11.1c5.8-8.6,16.2-11.4,24.5-16.7c12.2-20.2,17.9-45.2,26.2-67.4c11.5-40,22.3-80.4,30.5-121.2
		c2.6-43.4-4.8-87.1-9-130.3C286.7,545.4,286.2,545.3,285.7,545.2z"/>
	<path class="st0" d="M300.7,673.3c1.2,3.1,2,5.1,2.9,7.2c-1.7-32-4-63.7-6.7-95.5c-1.1-12.5-3.2-24.9-4.6-37.4
		c0.9-5.9,4.8-11.2,4.7-17.6c2.9,2.7,6.9,4.8,8.4,0.1c1.6-9.1,16.3-10.5,12.4-20.9c-4.7-9.2,10.3-11.3,3.4-19.7
		c-2-3.1-1.6-6.4,1.3-8c11.5-6.4,21.9-14.2,29.6-24.5c-0.8,38.4,0.1,77.3-3.8,115.6c-2.7,28.9-12,57.2-9,86.5
		c4.4,22.5,4.7,45-4.3,66.4c-10.2,30.9-32,57-38.4,89.2c-0.5,2.5-1.5,5,1.4,6.9c0.6,14.9-19,28.1-27.9,38.1
		c-6.2-3.3-12.1-6.5-18.5-9.9C275.3,794.3,289.6,734.8,300.7,673.3z M293,822.4c-6,4.7-7.3,4.3-12-1.4
		C277.5,829.9,295.7,831.7,293,822.4z"/>
	<path class="st0" d="M283.7,395.8c2.8-4.1,5-7.7,7.6-11c15.5-22.4,11-52,17.3-77.5c10.3-40.3-16.7-75.8-12.5-115.7
		c1.6-25.6,13.5-48.9,19.6-73.6c0.4-1.5,0.2-4.1-0.7-5c-10.4-9,5.1-35.3-1.3-55.7c12.8-3.8,16.1-3.9,17.9,10.4
		c7.6,43.1,6,86.8,2.8,130.2c-0.7,13.1,1.4,25.6,7.8,37.4c2.8,5.2,4.5,11.8,4.3,17.7c1.5,37,10.2,73.1,12,110.1
		c0.8,9.4,0.6,19,1,28.5c0.1,2.9-0.9,3.7-3.8,3.7C331.5,395.5,307.9,394.5,283.7,395.8z M324.5,102.6c0.3-0.2,0.6-0.4,0.9-0.7
		c-3.3-6.2-7.2-5.8-8.2,1.3c0.2,0,0.3,0,0.5,0c0.8-1.5,1.7-3,2.8-5C322.2,100.1,323.4,101.3,324.5,102.6z"/>
	<path class="st0" d="M431.8,364c-20.4,15.8-10.3,22-24.4,28.5c10.9-0.3,18.2-7.6,26.3-13.9c3,12-9.5,17.3-16.4,24.6
		c-3.1,2.8-6.4,4.1-10.7,4.3c-15.2,0.9-30.2,3.5-44.7,8.3c-34.3,11.1-68.9,25.9-105.6,19.5c-11.6-1.7-23-0.8-34.4,1.4
		c-17.5,3.9-35.7,4.9-52.5,11.4c0.1,0.3,0.2,0.6,0.3,0.9c1.6-0.3,3.2-0.6,5-0.9c-0.1,0.9-0.1,1.5-0.2,2.2c5.7-5.2,14.2-3.9,21.6-5.9
		c-0.9,15-20.3,17.6-31.2,12.6c-13.7-4.9-21.7-15.6-26.2-28.9c-6.3-31.5,44.1-21.8,62.6-22.3c17.8,0.8,36.1,4.5,53.4-1.5
		c37.3-9.2,76.5-6.4,114.6-5.6C402.3,399.5,395.2,367.7,431.8,364z"/>
	<path class="st0" d="M20.2,396c7.8,0.4,14.5-2.3,19.4-6.3c2.5,0,4.1,0,5.7,0c-1.7-2-4.9-4.1-7.3-4.3c-2.3,5.6-9.5,5.6-14.5,7.7
		c-5.7,1.5-8.5-0.8-8.8-6.7c1.3-8.4-16.1-10.9-5.1-17c16.8-11.3,8-34.5,9.7-51.5c0.8-7.1-2.3-16.2,3.5-21.7
		c24.9-16.8,59.3,8.7,65.8,34.5c4.2,14.2,2.3,27.7-6.5,40.2c-6,8.2-5.5,21.1,3.5,27.2c-8.3-13.4,12.9-53.8,29.3-44.7
		c13.1,9-6.5,39.9-19.2,24c-1.1,2.3-0.9,2.7,3.4,6.5c-3.8,15.2-12.7,25.8-27.8,31c-13.5,4.1-28,8.7-42.2,6.1
		c-5.8-1.2-3.5-7.6-4.2-11.8C24.4,404,18.5,401.4,20.2,396z M31.4,342.5c0,2.8,0,5.9,0,8.7c0.1-0.1,0.6-0.7,1.5-1.7
		c-0.2,4.3,0.1,7.4,0.9,11.4c-0.5,0-1,0-1.6-0.1c11.6,15.4,41.5,1.4,15.2-18.8c0.2-0.3,0.4-0.6,0.6-0.8c1.6,0.8,3.1,1.7,4.7,2.5
		c0.2-0.4,0.3-0.8,0.5-1.2c-3.8-1.7-7.7-3.3-12-5.2c-0.5,1.8-1,3.3-1.7,5.8c-1.1-0.9-2.3-2-3.8-3.2c-0.2,1.3-0.5,2.8-0.8,4.8
		C33.4,343.6,32.2,342.9,31.4,342.5z M26.7,335.4c12.3-5.5,22.4-5.5,34.7-0.4C53,325.3,36.4,325,26.7,335.4z M102.2,372.8
		c6-0.7,6-6.7,2.6-10.3c4.5-2.3,4.1,2.1,6.3,3.6c-0.4-2.1-0.8-4.3-1.2-6.3c3.2,0.1,3.7,0.5,5.2,5.1c4.1-10.9-11.6-11.1-13-1.2
		C106.9,367.5,105.7,368.1,102.2,372.8z"/>
	<path class="st0" d="M148.8,499.3c11.7-17.8-2.3-32.6-12.1-46.6c-3.1-5-5.8-10.3-7.9-15.7c-4.2-10.4,2.2-26,13.2-27.2
		c-17.7,10.4,1.7,40.4,15,47c12.4,9,41.8,7.3,41.3-12.5c16.3-4.2,6.6,28.8,7.6,37.6c4.9,48.1,94.8,7.9,66.8-42.3
		c4.5,0.6,9.7-1.6,12.7,1.6c6.1,13.4,8.9,27.3,5.7,41.8c-1.8,8-6.7,13.7-14.9,16.1C235.2,512.6,187,528.6,148.8,499.3z"/>
	<path class="st0" d="M154.1,275.4c-10.7,1.2-18.7,7.4-26.7,13.5c8.8-4.9,17.6-9.6,28.7-10.5c-11.9,19.4-28.2,32.5-47.9,41.9
		c20.7-8.4,38.5-20.4,50.1-40.1c0.4,0.1,0.8,0.2,1.2,0.4c-2.6,35.5-39.4,46.4-65.1,62.2c-1.8-7.6-3.9-14.4,0.4-22.6
		c-1.5,2.2-2.5,3.7-3.4,5.1c-10.1-9.6,9.5-24.2,18.1-28.4c-6.8,0.6-12.6,5.1-23.8,17.8c-3.3-3.9-6.5-7.8-10-12.1
		C92.7,279.7,126.3,262.1,154.1,275.4z"/>
	<path class="st0" d="M205.1,442.4c52.5,14.4,39.7-7.3,63.3-2.6c14.2,18.3,3.7,45.4-18.2,55.4c-14.1,8.2-42.1,7.8-42.2-13.7
		c-1-12.4,6.4-28-3.6-38.1C204.8,443.1,205,442.7,205.1,442.4z"/>
	<path class="st0" d="M318,449.6c-5.5,0-10.9,0-16.3,0c0,0.2-0.1,0.4-0.1,0.6c5.8,1,11.6,2,17.7,3c-0.7,1.6-1.5,3.2-2.4,5.1
		c-3-1.3-5.9-2.5-9.2-3.9c2.8,3.9,9.5,3.4,9,9.7c-6.8-3.5-13.5-7-20.3-10.5c-0.1,0.2-0.1,0.4-0.2,0.6c6.9,4.5,13.7,9.1,20.6,13.5
		c4.7,3.1,5.4,6,2.4,11.3c-4.5-1.8-9.1-3.6-13.7-5.4c-0.1,0.2-0.2,0.4-0.3,0.6c4.4,2.2,8.8,4.5,13.4,6.8c-0.7,1.9-1.3,3.5-1.9,5.3
		c-5.8-2.4-11.4-4.7-17-7c-0.1,0.2-0.2,0.4-0.3,0.6c5,2.9,10.1,5.7,15.1,8.6c7.4,3.8,3.9,8.1-0.6,13c-5.5-2.3-11.1-4.6-16.6-6.9
		c-0.1,0.3-0.3,0.6-0.4,0.9c7.1,5.1,19.5,6.4,18.9,17.5c-0.3,3.8-3.1,5.4-6,6.9c-3,0.3-4.2-3.5-6.8-4.8c1.8,5.3,5.6,7.5,0.3,12
		c-8.1,4.9-8.3-12.6-11.9-16.8c-0.4,0.1-0.8,0.3-1.2,0.4c2.3,9.5,7.5,19.4,2.5,28.8c-0.3,0.7-3.1,1.3-4.1,0.8
		c-2.4-1.4-4.4-2-5.8-0.3c-1-8.5-2-17.4-3.1-26.3c-0.4,0-0.9,0.1-1.3,0.1c1.6,10.6,2.3,21.2-1.5,32.8c-7.8-11.9-2.8-10.9-2.2-23.8
		c-3.9,6.8-3.8,16.8-15.3,18.6c3.9-12,11.9-22.1,12.9-34.6c2.8-1.1,5.7-2.2,8.8-3.4c0.9,5.9,1.9,11.7,2.8,17.5c0.3,0,0.5,0,0.8-0.1
		c1.4-7.7-3.7-18.8,4.5-23.4c3.9,5.7,7.7,11.4,11.6,17.1c0.2-0.1,0.4-0.3,0.6-0.4c-2.8-6.8-9.2-13.4-9.7-20.8
		c6.8-17.5,4.5-37.2-4.5-53.7c7-0.9,13.8-1.8,20.5-2.6c0.1,0.4,0.2,0.8,0.2,1.2c-2.8,0.8-5.6,1.7-8.5,2.5
		C306.9,440.3,314.2,440.6,318,449.6z"/>
	<path class="st0" d="M111.3,347.9c13.6-6.4,27.3-12.9,36.9-25.4c-16.2,16.3-41,19.1-55.1,37.9c-6.4-31.8,60-21.7,68.1-76.5
		c21.4,26.7-5.3,73.7-40.4,88.1c2.5-6.3,3.4-12.3-0.3-18.1c2.8-2,5.5-3.8,8.2-5.7c-0.1-0.4-0.2-0.9-0.3-1.3
		C122.8,351.4,117,352.4,111.3,347.9z"/>
	<path class="st0" d="M117.6,462.9c-2.6-14.5-38.8-29.5-48.1-43.6c16.7-6.2,29.5-15.4,31.3-35.3c1.2,0.6,3.1,1,3.2,1.6
		c2.6,13.1,17.4,25.5,30.9,24.7c-10.6,9.6-11,21-8.8,33.5c-2.4,6.4-4.9,12.8-7.3,19.2C118.4,463,118,462.9,117.6,462.9z"/>
	<path class="st0" d="M293.8,370.4c-5.6,8.8-10.8,15.9-16.8,24.1c-0.8,1.1-2.2,2.1-3.5,2.4c-31.4,10.4-64.1,5.6-96.5,5.1
		c-12.4-0.6-24.5,0.6-36,5.5c-0.2-0.4-0.5-0.8-0.7-1.3c13.3-9.8,45.5-11.7,62.5-13.2C234.7,392,262.6,373.9,293.8,370.4z"/>
	<path class="st0" d="M143.7,265.7c-12.2-6.5-24.5-4.4-36.8-0.5c12.1-2.1,24.2-3.5,35.6,2.7c-26.3-0.6-54.4,10.1-67.8,34
		c-11.6-5.8-6-11.7-1-20c-4.8,3.1-8.1,7.2-9.2,12.6c-5.4-2-10.7-4.1-16.5-6.3c11.5-30.6,71-39.6,96.3-23.8
		C144.1,265,143.9,265.4,143.7,265.7z"/>
	<path class="st0" d="M364.3,372.8c0.4-7.9-4.7-23.3,0.7-28.5c8.6-6.1,16.1-14.4,26.5-17.1c6.4-2.2,12.2-7.2,19.2-6.5
		c-0.6,9-11,9.3-14.2,16.3c4.9-1.3,9.7-4.1,14.8-2.2c0.2,7.2-7,8.5-12,12.9c4-1.2,7.5-2.4,11.1-3.5c-1.6,7-7.7,9.1-13,12.5
		c2.3-0.4,4.5-0.7,6.8-1.1c0.1,0.2,0.3,0.4,0.4,0.6C393.6,366.2,378.1,368.5,364.3,372.8z"/>
	<path class="st0" d="M107.9,388.9c11.9-2.5,22.4-7.9,32.2-14.9c-11.3,4-21.5,11-34.1,11.3c5.4-2.1,9-6,12.9-9.8
		c3.3-3.2,8.5-4.4,12.8-6.8c23.6-13.6,39.3-38.3,38.4-65.6c6.9,11.8,4.7,44.8-6.5,60.2c-12.7,18.5-34.6,23.9-55.4,27.1
		C108.2,390,108.1,389.4,107.9,388.9z"/>
	<path class="st0" d="M572.8,254.6c-3.6-10.2-16.2-22.2-26-25.1c0.4-10.2,12.6-12.7,19.9-16.9c7.3-3.1,17.9,1.8,21.5,9.7
		c2.4,5.3,3.5,10.7,0.3,16.2C584.3,244.8,582.2,255.2,572.8,254.6z"/>
	<path class="st0" d="M478.1,182c-10.5-9-20.9-15.3-34.6-15.4c-0.7-10.8,9.1-21.4,19-24.7C486.8,135.3,493.1,168.5,478.1,182z"/>
	<path class="st0" d="M530.8,280.3c-0.9-5.3-2.3-9.1-8-9.7c4.3-7.3,8.7-37.3,19.5-31.7c9.5,4.4,17,12.7,21.3,22.3
		c1.7,4.2,1.2,5.5-2.8,7.2C551,272.4,541.1,276.2,530.8,280.3z"/>
	<path class="st0" d="M446.2,219.4c-4.6-6-4.9-6.2-10.4-5.9c0-10.2-0.2-20.4,0.1-30.6c0.1-4,4.5-6.8,8.7-6
		c9.6,1.9,18.1,6.3,25.1,13.1c4.1,3.9,3.9,5.6-0.3,9.4C461.6,206.1,454.4,213.3,446.2,219.4z"/>
	<path class="st0" d="M323.8,37.7c-11.4,3.9-8.9,12.6-19.3,18c-7.1-18.5-8.1-32.8,4.1-49.3C316.3-2.3,321.3,32.9,323.8,37.7z"/>
	<path class="st0" d="M527.6,278.1c-37.1,35.1-69.3,75-108.5,107.3c-0.3-0.2-0.6-0.4-1-0.6c30.2-39.3,69.9-71.5,103.6-108.1
		C525,273.7,525.1,273.7,527.6,278.1z"/>
	<path class="st0" d="M243.6,867.8c8.9,9.8,24.9-1.8,27.6,8.5c1.1,6.4-5.9,10.6-11.5,10.6c-12.3,0.4-24.6,0.6-36.9,0.7
		c-1.5,0-3-1-4.5-1.6C223.7,876.9,235,873.4,243.6,867.8z"/>
	<path class="st0" d="M44.5,288.8c-0.6-2-1.2-4-1.9-6.4c-0.5,1.8-0.9,3.4-1.5,5.3c-2.1,0.2-4.5,0.5-7,0.8
		c6.6-38.4,61.9-42.7,92.4-33.1c-29-2.3-69.1,1.8-80.7,33.2C45.3,288.7,44.9,288.7,44.5,288.8z"/>
	<path class="st0" d="M323.3,448.3c12-0.2,24-3,32.8-13.7c1.5,18-17.4,33.4-31,42C318.8,462.6,318,463.2,323.3,448.3z"/>
	<path class="st0" d="M310.8,436.1c15.8-5.3,31.4-10.6,47.1-15.9c-1.1,16.8-20.4,25-36.2,24.2C317.1,443.9,314.4,438.7,310.8,436.1z
		"/>
	<path class="st0" d="M389.1,324.3c16.6-34.8,31.6-69.5,47.4-104.5c1.7-3.8,2.2-3.9,5.9-0.9c-15.1,33.4-30.4,66.7-45.4,100.2
		C395.4,322.6,392.8,323.5,389.1,324.3z"/>
	<path class="st0" d="M127.9,448.6c4.2,12.2,21.5,29.9,11,42.4C119.7,472,115.9,474.8,127.9,448.6z"/>
	<path class="st0" d="M304.6,829c12,18.3-17.1,30.8-27.9,42.5c-1.3-2.2-2.6-4.6-4-7.1C286.3,855.2,297.6,844,304.6,829z"/>
	<path class="st0" d="M308.1,58.5c3.1,15.5-0.8,29.7-4.5,43.8c-10.8-5.6-4.3-16.7-0.3-24.8C307.1,71.6,304.8,64.6,308.1,58.5z"/>
	<path class="st0" d="M444,175.4c0.2-2.5,0.4-4.6,0.6-7.1c11.5,1.3,21.4,6.1,29.7,14.1c-1.1,2-2,3.8-3,5.7
		C463.4,181.7,454.7,176.2,444,175.4z"/>
	<path class="st0" d="M544.1,237.5c0.9-2,1.8-3.9,2.9-6.3c8.8,3.8,13.9,12.1,20.6,18.6c4.5,5.6,0.8,4.8-2.1,9.3
		C560.1,250,553.7,241.9,544.1,237.5z"/>
	<path class="st0" d="M179.4,299.4c2.1-1.9,4.2-3.8,6.6-6c-0.2,8.1-3,14.6-9.2,19.8c-1.6-5.4-3.1-10.6-4.7-16
		c6.4-3,9.7-8.7,11.7-15.5C186.9,286.3,186.7,291,179.4,299.4z"/>
	<path class="st0" d="M157.5,274.5c3-3.2,18.6-10.7,20-5.2c-1.5,7-4.8,12.8-11.5,16c-3.7-4.6-3.7-4.9-0.2-10
		c-1.6,1.1-3.2,2.2-4.9,3.4C160,277.4,158.8,276.1,157.5,274.5z"/>
	<path class="st0" d="M133.5,452.3c9.1,13.9,24.6,27.9,13.9,45.5c-2.1-1.7-3.9-3.2-5.9-4.9c11.5-13-3.7-27.9-9-40.2
		C132.9,452.6,133.2,452.5,133.5,452.3z"/>
	<path class="st0" d="M17.2,297.7c1.7-15.4,12.7-23,24-30.2c-11.7,11.7-5.4,20-12.6,23.5c-2.9-5.2-0.4-8.9,1.2-12.8
		c-3.6,3.8-5.8,8.1-5,13.3C22.4,293.4,20.1,295.3,17.2,297.7z"/>
	<path class="st0" d="M180.8,272.4c3.3,7.3-1.2,18.1-9.5,23.1c-1.5-2.8-2.9-5.6-4.3-8.2C172.8,283.2,177,278.5,180.8,272.4z"/>
	<path class="st0" d="M265.6,869.6c-16.8-2.3-23.1,4.4-16-13.4c5.9,4,11.4,7.8,16.9,11.5C266.1,868.3,265.9,869,265.6,869.6z"/>
	<path class="st0" d="M169.8,261.3c-6.1,1.5-12.2,3-18.4,4.4c-4,0.6-6.2-3-9.2-5.2C151.8,258.3,161.1,256.6,169.8,261.3z"/>
	<path class="st0" d="M270.7,862.2c11.9-11.8,24.2-22.3,31.1-38.3c-1,17.5-18.7,27.5-29.3,39.6C271.9,863,271.3,862.6,270.7,862.2z"
		/>
	<path class="st0" d="M402.5,410.3c-1.8,6-1.5,14.1-9.4,10.8C381.5,415.7,396.2,411.3,402.5,410.3z"/>
	<path class="st0" d="M273.5,874.3c-7.2-10.7-9.8-12.7-23.6-18.5c0.2-2.2,1.2-3.3,3.4-2.3c9.2,3.9,19.2,10,21.1,20.7
		C274.1,874.1,273.8,874.2,273.5,874.3z"/>
	<path class="st0" d="M155.9,272.4c-1.2-1.3-3.1-3.3-5-5.3c7.6-1.7,15.4-4.4,23.6-2.4C168.5,267.3,162.3,269.8,155.9,272.4z"/>
	<path class="st0" d="M383.2,370.3c-0.4,9.9-2.5,14.5-11.8,7.7C368.3,373.3,380.1,371.9,383.2,370.3z"/>
	<path class="st0" d="M312.6,57.6c0.8,16.7-0.2,32.3-4.7,48.7c-2.8-6,1.7-12.1,1.8-18.3c0.9-10.2,1.6-20.3,1.7-30.5
		C311.8,57.5,312.2,57.6,312.6,57.6z"/>
	<path class="st0" d="M305.5,58.4c5.8-6.4,13.3-8.4,21.8-9c0.3,1.1,0.6,2.2,1,3.4C319.9,52.1,312.2,53.2,305.5,58.4z"/>
	<path class="st0" d="M324.7,39.9c0.9,3.1,1.4,4.7,1.9,6.6c-4.1,0.8-8,1.6-11.8,2.3c-0.2-0.2-0.3-0.5-0.5-0.7
		C317.5,45.5,320.8,43,324.7,39.9z"/>
	<path class="st0" d="M91.6,360.7c-3.6,8.7-7.1,17.4-10.5,25.7C80.3,376.5,87.2,369,91.6,360.7z"/>
	<path class="st0" d="M438.2,378.4c-0.8-1.6-1.2-2.6-2.1-4.4c3-1.3,5.8-2.5,8.7-3.7c0.3,0.5,0.7,1.1,1,1.6
		C443.3,374,440.9,376.1,438.2,378.4z"/>
	<path class="st0" d="M450.8,363.6c-2.3,1.9-4.7,3.8-7,5.6c-0.3-0.3-0.6-0.7-0.8-1c2.3-2,4.6-3.9,6.8-5.9
		C450.1,362.8,450.4,363.2,450.8,363.6z"/>
	<path class="st0" d="M43.9,345.5c-6.5,6.2-6.1,11.3,1.8,18.8c-3.7-0.1-7.6,0.7-9.5-3.3c-3.9-7.3-1.3-15.2,7.4-16.5
		C43.6,344.8,43.7,345.1,43.9,345.5z"/>
	<path class="st0" d="M55.6,357.4c-0.6,7.1-11.4,6.4-13.5-0.6c-3.1-6.2,3.9-13.1,10-8C40.7,350.1,46.8,363.6,55.6,357.4z"/>
</g>
</svg>
