<?xml version="1.0" encoding="utf-8"?>
<!-- Generator: Adobe Illustrator 26.0.0, SVG Export Plug-In . SVG Version: 6.00 Build 0)  -->
<svg version="1.1" id="Capa_1" xmlns="http://www.w3.org/2000/svg" xmlns:xlink="http://www.w3.org/1999/xlink" x="0px" y="0px"
	 viewBox="0 0 595.3 1307.8" style="enable-background:new 0 0 595.3 1307.8;" xml:space="preserve">
<style type="text/css">
	.st0{fill:#FFFFFF;}
</style>
<g>
	<path d="M583.1,608.7c27.2-80.6,3.9-165.2-18.1-244c-13.5-104.7-22-128.5-88.8-211.5c-5.4-9.6,16.5-30.2,6.5-45.4
		c-6.8-12.5-10.2-26.2-13.1-40c-2.8-11.3-15.6-16.3-24.6-9.8c-5.6-5.2-7.1-5.4-15.9-1.2c-10.1-17.6-5-29.1-5.2-47.3
		c-1-8.6-8.8-12.1-16.1-7.5c-10.4,7.4-16.2,19.6-19.9,31.5c-6.2,20.7-3,41.1,3.3,61.2c9.9,26.3,20.7,52.4,31.8,78.2
		c3.1,6.9,4.9,12.8,3.1,20.6c-18.3,62.3-19.9,130-54.1,186.6c-4.7-14.7-8.1-29.7-5-44.9c0-10.8-14.6-7.5-21.7-10.3
		c0-3.3,0-5.9,0-8.9c-2.1,2.7-3.7,4.8-5.2,6.8c-7.5-3.8-12.3-9.7-16.2-16.3c-8.3-14.1-16.5-28.1-24.4-42.4
		c-6.2-11.3-17.4-19-21.9-31.5c-0.8-2.3-3.4-4.7-5.8-5.7c-61.8-24.8-143.4,1.1-184.1,52.9c-34.1-16.3-52.1,5.1-74.1,28.8
		c-26.4,30.8-8.5,64.7,12,93.4c13.3,23.2,46,27.2,67.8,14.8c41.9,50,59.9,48.6,121.8,47.3c-0.6,5-6.5,15,2.6,14.8
		c10.6-0.5,15.5-11.4,22-18.2c11.2,25.4-23.1,52.5-24.3,79.4c-7.4,51.8,1.7,103.8-0.8,155.8c-4.2,38.8,0.9,77.5,6.3,116
		c3.8,16.3-3.3,28.5-15.5,38.9c-7.1,7.8-13.7,15.7-18.2,25.5c-9.1,22.1-29.1,41.4-26.1,66.9c2.4,14.8,10,24.5,20.9,8
		c5.3,28.3,16.1,40.8,32,8.1c2,8,8.7,13.3,14.6,5.4c5.9-8.2,6-18.4,8.1-28.3c18.1,6.8,17.1-45.1,20.3-55.9
		c6.7-55.7,31.7-110.9,22.4-167.4c-7.6-36.3,3.1-72.9,8.1-108.9c91.4,19.1,111.7-6.5,99.8,104c-2.2,13.5-6.6,26.7-10.3,39.9
		c-0.9,3.4-0.1,5.5,3.1,5.5c9.8,0.8,0.9,14.4,22.8,17.7c1.5,27.1,3.6,53.8,5.6,80.8c1.8,26.5,8,53.9,1.8,80.1
		c-10.3,38.5-32.8,75.6-26.8,116.7c4,30.3,9,60.5,14.7,90.6c3,16.1,5.1,31.5-0.8,47.3c-1.6,5.8,1.8,13.4,1.7,19.7
		c-2.4,24.4,0.9,48.4,3.4,72.6c3.7,33.9,55,33.3,78.2,20.2c4.6-2.4,7.8-6.2,6.7-11.8c-8.3-42.6-37.9-79.1-38.2-123.7
		c-0.3-31.3,13.2-60.6,17.5-91.2c3.5-27.2,1-55.2,7.2-82.1c2.8-11.4,7.4-22.4,7.2-34.4c-0.1-3.7,0.4-7.5,1.1-11.1
		c14.7-57.3,22.4-115.8,25.6-174.8c2.8-23,18.7,7,26.8-23.3c10.6,1,10.1-11.1,17.7-14.7c14.7-6.2,6.3-16.9,13-27
		c1.4-11.3-2.5-24.4-3-36.1C569.1,649.1,577,629.1,583.1,608.7z M500.9,428.6c-1.8,28.9-5.7,57.6-7.9,86.5c-0.2,4.5-1.1,8.1-6,10.4
		c-9.3,4.1-12.3,13.3-15.3,22.6c-17.4-29.6-39.6-53.5-66.4-74.4c-2.2-2-1.7-3.4-0.2-6.1c14.6-24.5,29.7-48.7,42.9-73.8
		c19.9-37.6,21.2-79,24.3-121c13.7,31.7,20.2,48.9,20.4,83.4C496.1,380.1,502.2,404.3,500.9,428.6z"/>
	<path class="st0" d="M531.9,704.3c5.6,11,14.8,23.2,5.4,35.1c-3.1-5.7-5.8-10.7-8.4-15.6c-0.4,0.2-0.8,0.3-1.1,0.5
		c1.2,3.5,2.4,7.1,3.6,10.6c-0.2,0.1-0.5,0.2-0.7,0.3c-4.6-7.4-9.2-14.8-13.8-22.2c-0.3,0.2-0.7,0.4-1,0.6
		c4.4,12.8,21.6,32.3,3.9,41.8c-8.5,3.2-7.5-9.9-10.1-14.8c-1.3-4-3-7.8-5.4-11.3c1.2,9.5,2.5,19,3.7,28.8
		c-8.2,2.9-10.6-21.9-16.2-26.8c1.9,8.2,3.9,15.7,5.5,23.3c2.4,10.9-10.4,14.3-12.9,3c-3.1-15-5.9-30.1-8.9-45.1
		c-0.1-0.7-0.3-1.3-1.7-1.9c0.5,16.7,3.9,33.1,6.4,49.5c2.1,5.7-6.6,9.4-8.9,3.6c-3.7-8.1-2.3-16.9-5.6-25.2c0,13.2,1.9,22-8,31.5
		c-0.6,0.8-3.9,0.9-4.7,0c-7.9-9.3-2.9-31.7-8.6-45.3c-0.4,0.1-0.9,0.2-1.3,0.2c1.9,12,1.4,24.3,1.9,36.5c0.1,4.4-6.5,11.1-11,11.3
		c-9.2,1.4-1-29.6-5.8-35c-1.2,8.2-2.1,16.4-2.6,24.6c-0.5,8.3-4.3,10.4-11.7,6.3c1.9-17.2,1.4-34.4,0.4-51.6c-0.4,0-0.9,0-1.3,0
		c-1.2,16.3-2.4,32.5-3.6,48.8c-6.5-3.1-18.4-2.3-16.4-11.8c1.1-8.1,5.5-16.2,4.6-24.3c-2.6,6.1-5.2,12.2-8,18.7
		c-1.4-0.3-2.9-0.6-4.3-0.9c9.3-24.5,11.8-49.2,12.1-75c0.4-22.2,2.1-50.4-23-59.8c28-18.2-13.5-4.9-17.8-51.2
		c-1.2-7.4-3.5-14.5-5.5-22.5c2-0.4,7.7-1.6,6.9-5.1c-7.5-11.5-13.3-24.2-23.2-33.9c8.1-2,16.5-1.7,24.5,1.6
		c13.8,5.8,26.3,0.5,38.8-4.5c3.6-4.4-6.7-13.1-8.6-17.6c7.6,1.3,15.9,1.9,22.5,7.8c23.6,21.2,43.8,45,57,74.2
		c6.7,15.1,18.1,26.9,27.5,40.2c0.4-0.2,0.7-0.4,1.1-0.7c-6.7-11.3-13.5-22.7-20.9-35.1c10.4,10.3,19.8,19.6,29.3,28.9
		c0.2-0.1,0.4-0.2,0.6-0.2c-4.9-6.6-9.8-13.2-14.7-19.8c0.1-0.2,0.1-0.5,0.2-0.7c5.1,3,10.2,6,15.3,8.9c0.2-0.2,0.4-0.5,0.7-0.7
		c-13.4-13.8-23.5-9.5-32.9-29c3.2-7.1,17.2-31.5,26.1-21.1c4.3,6.6,2.4,6.6-0.6,13.3c4.3,0.3,8.4-5.4,11.6-0.3
		c0.9,1.4-1.9,5-3.1,7.8c2.9-1.3,8.2-1.5,10.9,0c1.7,1.1,2.2,4.2,3.2,6.5c-2.8,1-5.6,1.9-8.5,2.6c0,0.5-0.1,1-0.1,1.6
		c6.5,1.1,17.1,2.6,17.7,10.3c0.4,4.7-1.4,6.9-7.7,8.2c9.7,2.7,24.1,10.3,6.9,15.5c17,3.9,26.7,26.9,1.1,18.2
		c-0.2,0.5-0.4,1-0.6,1.5c8.8,4.2,29.2,7.1,17.4,20.2c-5.5,4.1-19.5-7.3-25.5-9.6c15.8,19.6,26.8,12,29.2,23.2
		c-1.5,13.9-7.8,6.2-15.5,1.9c-0.3,0.4-0.6,0.7-0.9,1.1c11.8,8.7,20.5,15.9,20.6,31.8c-11.3-12.2-21.8-23.5-32.3-34.8
		c-0.4,0.4-0.8,0.7-1.2,1.1c5.9,7.4,42.8,46.8,31.1,53.7c-5.8-6.8-11.6-13.7-17.4-20.6c-0.4,0.3-0.8,0.7-1.2,1
		c7.9,10.1,13,21.6,17.6,33.5c1.5,3.7-1,5.7-3.7,6.7c-3.4,1.3-3.5-2-4.7-4c-3.8-6.5-8-12.8-12-19.2
		C532.9,703.7,532.4,704,531.9,704.3z"/>
	<path class="st0" d="M396.1,85.2c6.9-1.4,13.7-5.8,20.5-3.4c11.7,5.4,22.3,12.6,34.6,16.6c-0.6,3.1-1.3,9.5,0.7,11.6
		c6.4,4.4,2.1,12.6,8.1,19.2c1.9,9.1,4.1,17.7,10,25.2c20.1,30.3,40.3,60.6,60.2,91.1c7.8,12,10.7,25.9,13.3,39.7
		c9.4,44.2,11.3,89.8,27.5,132.3c12.8,40.2,15.5,82.5,15.7,124.3c-0.6,42.5-17.7,82.6-31.5,122c-0.4-0.1-0.9-0.2-1.3-0.4
		c0.4-1.5,0.6-3.1,1.3-4.3c7.3-10-3.3-12.4-0.4-20.6c7.6-12.3-4.9-12.7-3.6-22.4c2.1-8.4-3.3-13.6-9.2-18.2
		c2.4-7.8,1.3-10.4-7.2-16.3c7.3-16.9-8.4-12-8.7-24.9c0.1-4.3-3.2-6.3-6.6-8.3c-4.7-2.7-3.7-9.8-10.2-10.3
		c-4.8-3.2-2.1-10.8-10.9-12.1c7.7-47.4,14.3-96,7.5-143.7c0.8,0.9,2.3,2.7,3.8,4.4c0.2-0.1,0.4-0.3,0.7-0.4
		c-6.6-12.6-11.2-25.8-10.4-40c-0.8-19.4-5.2-37.6-12.6-55.7C457.9,221.6,419.6,156.6,396.1,85.2z M447.9,125.8
		c0.5-0.2,1-0.4,1.5-0.7c-2.3-17.5-21-15.1-16-1.2c1-3.2,2.8-5.8,4.6-8.7C442.6,117.7,445.9,121,447.9,125.8z"/>
	<path class="st0" d="M483.9,767.7c6.5,5.5,12.2,3.9,18.4-0.9c-5.5,78.4-23.4,155.6-38.8,232.2c-2.5,38.9-2.1,77.7-15,115.1
		c-14,39.1-7,81.2,9.3,118.5c-13.7,0-26.3,3.8-39.1,9.2c-4.6-11.6-11.7-22.3-13.8-35.6c1.3,0.7,2.1,1.2,3,1.7
		c-3.5-9.3-6.6-17.9-1.1-27.8c3.7-7.4,3.3-15.5,2-23.4c-6.1-38.5-14.6-76.8-17.9-115.6c-2.4-33.4,13.3-63.7,24-94.3
		c12.7-37.2,1.9-76.3-0.4-114.2c-1.7-20.3-2.3-39.7-3.8-60.1c5.5,4.4,10.9,5.3,15.9,0.3c7.7,6.5,10.3,6,20.6-3.2
		c7.2,9.8,12.5,8.7,19.8-3.8C472.4,771.5,479.4,779.2,483.9,767.7z M469,970.6c-15.1,4.4-20.4,4.2-32.4-4.6
		C442.6,979.1,458.4,982.7,469,970.6z M443.2,982c3.8,3.9,9,4.1,11.1,0C450.5,982,446.6,982,443.2,982z"/>
	<path class="st0" d="M193,964.2c-7.7-20.7-2.5-40.8,4.4-61.4c-16.5,12.1-17,31-23.4,47.2c-4.7-13.5-5-26.6,3.1-38.5
		c14.7-19.8,19.7-45.6,40.4-60.9c7.8-6,12.2-14.5,11.7-24.5c-1.4-31.8-7-63.4-8.5-95.2c0.7-28.5,5.1-57.2,2.8-85.9
		c-1.6-36.8-6.7-74.3,1.6-110.7c2-8.4,3.7-9.5,12.7-9.9c42.6-0.3,79.8,37.9,87.1,78.6c-13.1-2.2-25.3-4.2-39-6.6
		c4.1-6,7.6-11.3,11.1-16.4c-8,3.4-13.8,10.2-15.3,18.4c-5,38.6-19.6,77.8-10.6,116.8c7.4,37.3-4.8,74.8-10.9,111.4
		c-12.3,43.9-19.3,90-37.2,132c-7.3-17.6,3.6-34.1,7.5-51.1c-9,8.1-14.4,18.1-17,29.6c-2.4,11.1-8.2,20.4-14.9,29.3
		c4.5-20.3,6.1-41.2,15.8-60.1c-16.1,16.2-16.3,37.2-19.6,58.1C194.3,964.4,193.6,964.3,193,964.2z"/>
	<path class="st0" d="M337.4,378.7c11.3,3.6,28-9.5,28-0.2c0.1,8,3.7,14.6,6.8,21.5c3,6.7,0.6,13.5-7.4,17.8
		c-11.5,6.2-23.3,12-35.4,16.8c-34.8,12.9-46.7,15.7-75.2-10.7c-15.1,29.6-71.5-4.6-51.8-30.4c10-11.3,29-3.9,39.1,4.1
		c8.1,5.4,2.2-14.3,1.6-17.4c-26.3-42-34.9-113.7,23.1-132.9c7.9-2.8,10.2-1.5,15.8,5.2c11.8,14.2,20.8,30,29.2,46.3
		c8.4,16.4,21.1,35.3,41.6,35.7c14,0.1,1.3,17,8.9,26.2C365.1,371,350.3,374.8,337.4,378.7z M320,340.4
		c-12,12.7-25.1,21.9-42.5,23.2c19.3,7.6,47.4-6,48-27.5c-8.2-4.2-11.9-12-18.3-18.1c-0.3,0.2-0.6,0.5-1,0.7
		C310.7,325.8,315.2,332.9,320,340.4z M223.4,402.9c10.1,0.2-7.7,16.6,13.1,19.6c-13.1-11,0.5-13.4-5.4-21c-9.5-8.9-31.4-5.1-23,11
		c0.5-0.1,0.9-0.2,1.4-0.3c-0.8-9.1,2.2-12.1,9.8-9.7c0,3.7,0,7.4,0,12.2C220.9,409.9,222.2,406.3,223.4,402.9z M262.9,335.9
		c7.5-13,17.8-22.5,32.4-26.5c1.1-0.4,1.9-1.7,2.9-2.6C283.1,300.7,265.1,321.9,262.9,335.9z"/>
	<path class="st0" d="M241.7,392.5c-13.1-7.1-29.5-13.7-41.5-2.8c-1.8,1.7-4.5,2.9-7,3.4c-36.7,6.9-79.4-19.5-105-44.1
		c22.2,27.4,69.9,54.9,106,48.3c-0.8,5,2.3,12.9-2.7,16.3c-17.8,8.5-34.8-4.4-51.2-10.4c13.1,12.7,41.9,18.9,55.5,12.4
		c1.4,2.2,2.7,4.3,4.4,6.9c-8.7,6.6-18.7,9.3-29.1,7.9c-50.5-5.5-100.9-50.5-89.6-104.4c17.8-43.2,62.8-69.3,107.3-78.3
		c19.8-4.4,40-8,58.2,4.1c-3.1,2.6-5,4.1-6.3,5.3c-5.1-1.8-9.9-3.5-14.6-5.2c-0.2,0.4-0.3,0.8-0.5,1.3c4.4,1.5,8.3,3.9,11.8,6.9
		c-0.2,0.5-0.4,1-0.6,1.5c-1.9-0.6-3.9-1.2-5.8-1.8c-0.2,0.3-0.4,0.5-0.6,0.8c1.4,0.8,2.8,1.5,3.6,2c-1.3,7.9-7.8,9.4-15.2,8.4
		c-8.3-1-17.2,0.2-25.3,2.4c-16.9,5.4-34.7,9.6-50.4,17.8c26.5-9.6,52.8-19.9,82.1-15c-2.3,6.9-4.4,13.3-6.5,19.4
		c-5.3-0.5-11.1-1-16.9-1.5c5.2,4.6,16.5-0.3,16.4,12.3c-2.5-0.3-4.4-0.5-6.4-0.7c9.1,2.4,4.9,10.2,7.4,16.5
		c-23.1-17.5-46.2,17.7-97.9,6.5c26.4,11.7,53.5-0.5,79.5-7c20.4-5.4,20.5,19,25.9,33.1c-11.4-7.8-22-2.8-32.5-1.4
		c-8.4,1.1-16.7,2.8-22.7,3.8c8.7,1.9,19.7-1,30.7-2.7C226.4,347.7,237.2,371.8,241.7,392.5z M206,361.8
		c-30.1,0.9-61.8,3.8-89.2-11.8C133.4,364.4,195.3,372,206,361.8z"/>
	<path class="st0" d="M433.4,187.9c11.1,20.6,20.3,39.8,30.8,60.2c2.8,5.1,2.2,10.1,1.7,15.4c-5.9,99.1-18.7,122.6-70.7,205.1
		c-16.5-15-36.2-24.3-57.1-31.9c13.2-8.6,48-15.9,37.8-36.9c-2.8-6-2.2-10.3,1.7-15.5c16.9-22.6,25.8-48.6,31.5-76
		C416.7,267.8,427.3,228.9,433.4,187.9z"/>
	<path class="st0" d="M369.8,455.4c-16.2-2.1-30.5,1.4-43.4,10.8c0,0.5,0,1,0,1.6c14.1,2.3,26.7,7,37.3,17.1c-5-1.3-10-2.5-14.9-3.9
		c-25.7-7.2-50.9,8.8-57.7,27.8c14.1,1,28.7-3.8,37.3,12.5c-9.1-2.3-20.8,3.5-25.1,10.9c15.5,3.4,23.4,5.4,26.1,22.7
		c3.2,16.9,5.1,33.1,21.5,43.5c-6.2,2.2-16.5-0.8-17.7,6.2c-2.2-0.5-4.1-0.9-6.3-1.3c7.5-38.1-60.6-96.7-98.6-79.7
		c7-12.1,13.6-23.5,20.2-34.8c28,10,58.6,1.3,72.5-29c2.6-5.8,2.4-11.2-1.4-16.3C337.4,430.3,353.5,448.7,369.8,455.4z"/>
	<path class="st0" d="M296.5,505.4c29.1-44.7,64.7-7,82.6-20.6c-0.8-0.6-1.6-1.8-2.4-1.8c-14.3-1.1-25.4-13.8-38.3-18.8
		c16.1-8.7,39.6-7,59.4,13.5c-7.2-1.4-13.7-2.7-20.1-4c-0.3,0.6-0.5,1.2-0.8,1.8c8.1,5.4,13.9,11,20,19c-12.3,4.9-23.4,8.6-35.6,4
		c-11.2-3.8-25.2-5.7-35.4,1.4c14.3,7.2,18.9,21.6,27.1,34.1c-1.5,0.4-3.2,0.4-4,1.3c-1.4,1.6-3.6,4.5-3.1,5.3
		c6.2,9.8,6.8,21.1,9,32c2.7,15.2,12.3,24.2,25.1,31.6c-5.5,3.3-9.9,7.1-17,5.3c-8.1-2.1-16.5-2.8-24.8-4.7
		c6.2-1.9,13.3-0.7,19.6-7.2c-33.1-13.9-12.6-63.2-45.8-68.5c7.3-6.9,14.9-2.9,23.1-3.6C327.6,506.9,315.4,503.6,296.5,505.4z"/>
	<path class="st0" d="M409,1269.2c1-8.1-3.7-15.6,5.2-20.2c10.9-7,34.6-15.8,46.4-9.8c3.5,10,30.8,51.9,12.1,54.6
		c-22.4,8.7-68.1,10-63.6-24.6C409.1,1269.2,409.1,1269.2,409,1269.2z"/>
	<path class="st0" d="M272.9,242.5c-3.1,0.3-5.2,0.5-7.2,0.6c-5.6-11.9-16-13.1-27.3-12c7.8,1.3,16.2,1.5,21.4,8.4
		c2.2,2.7,1.8,4.7-1.3,6.2c-5.5,3.3-9.6,5.1-15.5-0.1c-6.5-5.5-15.4-5.8-23.7-5.3c-54.6,2.5-107,27.7-137.1,74.1
		c8.4-24.7,24.4-43,47.4-55.4c-12.8,5-24,12.6-33.6,22.4c24-35.2,67.9-49.4,108.4-54C225.2,226.6,262.4,219.4,272.9,242.5z"/>
	<path class="st0" d="M230.7,440.8c-6.3,9.8-16.1,14.3-26.3,14.9c-54.9,5.8-96.3-18-115.5-70.3c25,31.1,74.3,66.6,113.7,40.5
		c5.1,3.7,10.1,7.3,15.4,11.1c-12.8,16.2-35.5,8.7-53.2,11.6C224.7,459.7,212,433.4,230.7,440.8z"/>
	<path class="st0" d="M28.8,366.5c10.8,14.4,33,20.1,52.7,13.9c5.7,12.1-3.3,12.2-13,13.4c0.1,0.5,0.1,1,0.2,1.4
		c5.7-0.7,11.4-1.4,17.5-2.2c-1.3,4.2-5.3,5.9-9.1,6.3c-35.3,6.8-86.4-31.6-64.5-75.6c2.9,32.9,35.1,50.6,65.2,40.2
		c0.8,3.7,1.6,7.6,2.4,11.5C61.2,382.7,44.2,379.3,28.8,366.5z"/>
	<path class="st0" d="M233.9,441c9.1-1.4,16.3-3.7,20.2-11.7c3.5,2.7,7.2,4.9,10.1,7.9c20.9,23,48.7,2.2,43.4,15.4
		c-5.9,19.8-29.8,27.9-48.8,27.2c-13.5,0.6-0.6-16.9-20.3-32.8C236.8,445.6,235.8,443.6,233.9,441z"/>
	<path class="st0" d="M416.7,14.2c-2.5,15.9-2.9,30,4.8,44.5c0.7,1.4,0.4,4.1-0.4,5.5c-4.6,7.4-10,14-19.2,15.9
		c-5.9,1.2-6.5,0.9-7.7-4.9c-4.4-23.5-1.7-53.2,20.6-66.7C415.5,10.7,416.3,13.1,416.7,14.2z"/>
	<path class="st0" d="M26.9,304.1c-6,24.1,24.6,54.7,48.8,46.9c0.7,6.8-1.2,10.3-7.4,11.2c-28.6,4.3-50.2-12.6-52.2-40.3
		C15.5,313.5,22.4,309.4,26.9,304.1z"/>
	<path class="st0" d="M86.5,287.3c-9.8,22.6-11.6,31.5-11.2,58.5c-31.9,11.2-11.6-38-2-49.2c3.4-4.1,8-7.1,12-10.6
		C85.7,286.4,86.1,286.8,86.5,287.3z"/>
	<path class="st0" d="M56.4,344.9c-20.8-7.6-5.9-76.7,24.1-60.7C61.3,300,55.2,320.8,56.4,344.9z"/>
	<path class="st0" d="M89.2,399.8c0.9,1.7,2.2,4.3,3.5,6.8c-18.5,19-55,9-66.5-17.2C44.7,399.6,68.2,411.1,89.2,399.8z"/>
	<path class="st0" d="M58.1,282.2c-14.2,17.6-17.6,36.2-11.9,56.4c-13.3-8.4-19.6-24.9-13.6-38.9C39.6,292.2,46.8,285.2,58.1,282.2z
		"/>
	<path class="st0" d="M250.6,480.6c20.3,11.2,64.4-6.9,61.9-34.7c16.6-6.7-1.2,43.7-42.4,42.5C264.1,487.4,246,491.7,250.6,480.6z"
		/>
	<path class="st0" d="M454.9,107.9c-4.3-12.9,3.4-20.4,9.4-28.9C474.5,88.2,464.2,102.3,454.9,107.9z"/>
	<path class="st0" d="M450.5,89c-0.8-9-1.4-17.9,1.9-26.7c18.8,1.9,4.6,18.2,0.1,27.4C451.9,89.4,451.2,89.2,450.5,89z"/>
	<path class="st0" d="M469.4,94.9c6.4,6.6,2,20.6-7.9,27.7C455.4,111.7,466.7,104.7,469.4,94.9z"/>
	<path class="st0" d="M444.9,84.1c-8.6-3.8-16.5-7.2-24.7-10.8c1.2-2.1,2.2-3.9,2.8-5c7.2,2.2,14.2,4.4,21.8,6.8
		C444.9,76.8,444.9,79.8,444.9,84.1z"/>
	<path class="st0" d="M447,94c-10.7-4.9-21.4-9.7-32.7-14.8c2-2.2,2.2-2.5,4.2-4c4,2.6,7.7,5.5,11.9,7.5c6.4,2.8,14.1,2.5,18.2,9
		C448.1,92.4,447.5,93.2,447,94z"/>
	<path class="st0" d="M230.7,448.8c2,9.6-1.6,17.7-9.4,22.4c0-4.6,0-9.6,0-15C223.9,454.1,227.2,451.6,230.7,448.8z"/>
	<path class="st0" d="M476.3,126.4c-2.8,5.9-5,10.6-7.2,15.4c-0.4,0.1-0.8,0.2-1.1,0.3c-1-6.1-1.9-12.1-2.9-18.2
		c0.5-0.3,1-0.6,1.4-0.9C468.3,127.5,471.1,129.2,476.3,126.4z"/>
	<path class="st0" d="M413.4,1245.1c-3.4-8.7-10.5-16.2-8.1-26.8c2.9,8.9,8.3,16.9,10.7,26C415.1,1244.5,414.2,1244.8,413.4,1245.1z
		"/>
	<path class="st0" d="M476.1,109.7c6.3,6.2,2.5,12.4-4.8,14.1C468.8,117.9,472.8,114.5,476.1,109.7z"/>
	<path class="st0" d="M241.3,925.2c-2.2-8.2,2.8-14.5,6.4-21.1c-1.7,7.2-3.4,14.3-5.1,21.5C242.1,925.4,241.7,925.3,241.3,925.2z"/>
	<path class="st0" d="M431.5,65.7c2.3-2.6,3.7-4.1,5.6-6.3c1.8,3.1,3.3,5.5,5.5,9.3C438.2,67.6,435.3,66.8,431.5,65.7z"/>
	<path class="st0" d="M407,1236c-0.9,5,7.6,8.6,1,15.2c-0.9-5.3-1.7-10.1-2.4-14.9C406,1236.2,406.5,1236.1,407,1236z"/>
	<path d="M206,361.8c-10.7,10.2-72.6,2.7-89.2-11.8C144.2,365.6,175.9,362.7,206,361.8z"/>
</g>
</svg>
