<?xml version="1.0" encoding="utf-8"?>
<!-- Generator: Adobe Illustrator 26.0.0, SVG Export Plug-In . SVG Version: 6.00 Build 0)  -->
<svg version="1.1" id="Capa_1" xmlns="http://www.w3.org/2000/svg" xmlns:xlink="http://www.w3.org/1999/xlink" x="0px" y="0px"
	 viewBox="0 0 595.3 418.1" style="enable-background:new 0 0 595.3 418.1;" xml:space="preserve">
<style type="text/css">
	.st0{fill:#FFFFFF;}
</style>
<g>
	<path d="M595.3,301.8c-1-6.2-1.9-12.4-3.5-18.5c-1.4-6.5-6.3-8.7-12.6-10.1c5-7.4,8.9-15.9,9.9-24.5c-1.2-8.1-2.4-16.1-4.2-24.1
		c-2.1-13.7-16.6-18.6-27.5-24.4c5.9-9.6,13.4-22.9,10.5-34.4c-2.7-5.6-5.2-11.2-8.1-16.7c-5.7-13.4-20.3-16.4-33-19.5
		c9.3-29.9-20.3-57.6-49.2-57.6c-3.7-0.1-7-2.3-10.5-3c-2.9-0.8-6.3-0.5-8-3.8c-11.6-3.9-23.8-6.9-35.6-10.5
		c-36.7-10.3-73.1-21.2-109.7-31.7c-2.6-0.7-6.4-4.3-6.1-6.7c0-3.6-1.3-4.9-4.9-5.1c-0.5,0-1.2-0.1-1.4-0.5c-2.9-3.3-6.1-3-9.5-1
		c-3.9-3.3-4.7-0.2-7.4-2.4c-3.5-3.1-8.1-2.2-11.7,0c-3.2,2.3-6,2.3-9.5,1.1c-8.9-3-18-5.5-26.9-8.4c-2.9-0.6-5.5,1.2-6.2,3.9
		c-1.8,5.2,5.4,6.2,9.2,7.2c7,1.8,13.9,3.5,21.2,5.3c-58,56.8-75.3,53.1-80.9,142.7c-0.1,2.1-0.7,2.9-2.7,3.4
		c-26,4.1-31.3,21.7-42.2,42.3c-11,18.6-12.7,39.5-15.1,60.6C85,249,50,229,11,225.7c-13.9,0.2-11.7,17.5-9.1,26.7
		c11.7,41.5,25.1,82.4,38.3,123.4c1.1,3.4-0.5,6.4-3.9,7.1c-4.8,1-7,3.9-7.6,8.6c-0.3,2.1,0.3,3.5,2.2,4.1
		c9.1,2.9,18.6-1.1,27.7-2.3c4.8-1,7.2-4.6,7.1-9.5c-1.3-9.5-4.4-18.5-1.1-28.1c1-3.4,1-7.1,1.2-10.7c0.5-7.1-7.1-10.1-12-13.5
		c-11.2-6.4-11.6-21-10-32.4c1.5-8.9,4.6-17.6,2.7-26.5c18.4,13.7,36.9,27.4,57.1,38.5c29.5,15.9,54.9,38.7,88.3,46.3
		c3.1,0.8,4.5,2.4,5,5.5c3.4,11.9,0.5,24.1,0.2,36.3c-0.2,6.9,2.7,10.5,9.5,12c7.6,1.7,15.3,3.2,23,4.8c3.7,0.8,5.5-0.6,5.1-4.5
		c6.3,3.4,12.7,6.2,19.8,6.4c2.3,0.1,4.7-1.4,7-2.2c1.3-2.5,0.7-5.3-1.5-6.9c-3.9-3.3-7.3-7.1-9.8-11.6c-5-8.4-16.9-5.6-25.2-7.7
		c-12.9-1.2-6.7-16.8-7.1-25.8c11.8,4,24.3,4.9,35.9,9.1c26.7,13.5,55.6,20.9,84.1,29.5c15,6.3,73.6,12.7,63.2-16.3
		c-2.8-5.8-9.3,0.4-13.6-1.4c-12.5-6.8-18.8,8.2-23.3-2c-2.7-6.3-6.6-14.5-14.9-12.3c-4.9,1-9.4,3.1-13.2,6.4
		c-3.7,3.3-8.7,4.3-12.1,2.3c-18.3-8.5-31.8-32-50.3-36.1c-16.7-2-37.6-0.2-49.4-14.3c-3.7-21.6-4.4-43.4-3-65.3
		c0.7-17,4-34.6-1.1-51.2c-3-6.6,6.8-7.1,10.5-9.1c6.6,19.1,22.9,33.9,43.3,35.9c5.2,0.1,6.1,7,10.6,8.3c4.9,1.2,7.9,4.7,11.8,7.4
		c15.1,8.5,37.5-2.9,36.7-21.4c-0.5-5.3,4.2-11.2,1.2-16.2c-5.4-8.8,7.9-14.7,0.6-38c-4.9-16.7-14.2-45.7-36.5-41
		c-5.7,1.6-11-2.8-16.9-2.3c-6,0-11.6-1.3-17.1-3.7c-1.9-0.9-4.2-1.5-6.3-1.4c-17,0.9-40.4,13.6-36,33.5c1.8,5-2,6.1-5.9,8.2
		c-7.4-18.8-0.7-59.4,7.9-77.7c10.5-19,24.4-35.8,37.9-52.7c6.2-4.9,16.8,1.6,28.7-7c3.6-1.8,11.9-6.6,15.7-6.1
		c29.7,8,59.4,16.1,89.1,24.2c24.3,6,48.2,14.5,73,18.1c3,0.5,5.1,1.9,4.9,5.4c-0.2,3.7,1.8,5.3,5,7c17,7.6,28,25.4,22.3,44.2
		c-32.9,1.4-65.9,6.5-95.5,21.4c-15.6,8.2-41.7,25.2-41.3,44.9c2.6,9.7,7.6,17.3,18.2,19.8c55.4,8.9,112.9-27.9,140.7-74.5
		c6.7,2.3,13.5,4.4,20,7c7.8,2.8,10.9,13.2,6.8,20.2c-4.8,8.9-9.9,17.7-14.6,26.6c-1.6,3-3.6,3.6-6.9,3.7
		c-35.5-1.2-133,15.6-141.5,55.7c1.6,10.5,2.2,22.3,15,24.5c36.9,8.5,74.5-7.3,104.7-27.6c15.5-10.6,28.7-23.7,41.7-37.1
		c0.7-0.8,2.2-1.4,3.1-1.2c12.7,2.5,32.2,11.3,25.1,27.2c-2.6,6.6-14,27.8-21,28.5c-5.3-0.2-10.5-0.9-15.8-0.9
		c-32.6-0.2-66.1,3.3-95.4,18.4c-12.8,7-35,16.8-29.1,34.8c3.9,7.9,8.7,18.6,17.8,21.4c43.6,11.5,109.5-23.4,137-56.8
		c0.6-0.7,1.9-1.4,2.4-1.2c3.2,1.2,6.4,2.6,9.3,4.3c9.2,7.8-14.2,29.7-20.8,34.4c-33.3,25.2-73.4,38.2-114,46.1
		c7.2,5.2,10.1,13.8,19.9,10.9C504.4,370.7,591.5,347.8,595.3,301.8z M193.6,312.4c-4.6-3.4-7.3-7.4-8.2-12.6
		c-2-18.1-21.9-22.9-11.7-32.9c5-5.4,10.1-9.8,15.1-15.5C192.3,271.7,196.4,291.6,193.6,312.4z M487,151.5
		c-28.1,29.3-67.4,56.1-109.9,50.2c2.3-8.7,6.8-15.4,13.6-21c28.3-28.1,66.9-39.2,105.6-43.3c0.3,0.4,0.5,0.8,0.8,1.2
		C493.7,142.9,490.6,147.5,487,151.5z M516.8,215.4c-30.5,29.1-72.5,59.1-116.7,48.8c-4.6-0.7,1.1-7.8,2.4-9.6
		c31.7-32.7,77.8-45.6,122-48.7c0.1,0.3,0.3,0.7,0.4,1C522.2,209.7,519.6,212.6,516.8,215.4z M536.4,285.7
		c-28.8,17.7-73.7,52.7-108.7,38.5c0-4.4,1.8-8.2,4.9-11.4c29.7-30.1,74.1-40.6,115.3-36.8c0.1,0.2,0.2,0.4,0.3,0.6
		C544.3,279.6,540.5,282.9,536.4,285.7z"/>
	<path class="st0" d="M123.4,316.6c-33-14-61.8-35.7-88.8-58.9c-4.1-3.8-9-6.1-14.5-7.7c15.8,8.1,28.2,23.2,21.8,41.7
		c-1.8,6.6-3,13.2-2.1,20c1.6,14.1,4.2,16.9,15.8,24.7c-11,9.2-7.9,24.4-9.4,37c-1.7-1.1-3.7-2-4.6-4.8
		c-9.4-29.1-19.8-57.8-27.6-87.4c-3.9-14.4-9.9-28.7-10.5-43.7c-0.1-7.1,1.2-7.7,8.7-8.4c14.7-2.6,100.6,30.6,107.5,42.1
		C117.8,286.5,116.1,302.3,123.4,316.6z"/>
	<path class="st0" d="M186.1,229c1.5,3.1,0.2,5.1-2,6.9c0.9-0.4,1.7-0.8,2.8-1.3c0.7,3.9,1.5,7.5,2,11.2c0.3,2.1-2.9,4.2-5.3,3.4
		c-10.3-3.1-11-16.2-7.3-24.6c4.8-14.7,23.2-24.4,37-15.3c6.1,4.6,5.6,13.4,6.3,20.3c1.5,22.7-5.4,45.1-2.6,67.7
		c1.2,9.7,2.6,19.3,3.5,29c0.7,12.3-4,24.3-5.4,36.5c-1.9,27-4.5,29.7,24.5,32.6c4.5,0.5,7.2,3,9.7,6.6c-3.9-1.7-7.5-3.2-11.1-4.7
		c4.8,3.2,10.3,5,14.3,9.3c-5.2-2.4-10.5-4.7-15.7-7.1c-0.1,0.2-0.2,0.4-0.3,0.6c3.9,2.7,23.1,10.1,22.4,14.4
		c-0.7,1.1-1.8,0.4-2.8-0.3c-7.7-5-16-9.8-24.8-12.2c8.2,4.2,16.8,7.7,24.1,13.5c-0.1,0.2-0.1,0.5-0.2,0.7c-9-1.4-16.9-6.1-25.3-9.3
		c-4.8-1.5-8.9-2.8-13.9-4.6c5.4,5.5,14.3,3.7,16.2,11.1c-8.5-1.9-15.5-2.8-23.7-4.6c-11.5-1.9-7.3-14.9-7-23.2
		c2.7-18.5-5.9-36-5.6-54.4c0.6-15,4.4-29.9,1.7-44.8c-3.7-19-4.7-38.7-10.5-57.2C186.7,229,186.4,229,186.1,229z"/>
	<path class="st0" d="M280.2,22.5c-3.6,1-7.3,2.1-11,3.1c0,0.1,0.1,0.2,0.1,0.3c11.6-2.1,23.4,0,34.6-3.8c1.7-0.5,3.8-0.9,4.4,1.2
		c0.5,3.7-4.9,3.8-7.3,4.8c-9.4,3.1-17.4,10.4-27.7,9.8c-11.9-0.3-9.1-1.3-16.9,7.3c-6.8,7.5-13,15.5-19.1,23.6
		c-5.4,7.3-10.3,15-15.4,22.5c-3.4,5-4.5,10.8-5.7,16.5c-5.2,19.5-6.3,39.2-6.5,59.4c-7.9-4.5-16.9-5.7-26.7-4.6
		c7.9-74.7,8.1-82.4,67.1-130.4c4.6-3.8,8.5-8.2,12.2-12.8c2.3-3.6,6.7,0,9.9,0.4C274.5,21.3,277.4,22.3,280.2,22.5z"/>
	<path class="st0" d="M272.1,139.2c-1.5-0.4-2.9-0.8-4.8-1.3c0.8,0.7,1.3,1.1,1.7,1.4c-5.9,1.2-9.4-2.8-11.1,2.2
		c-2.7,5,0,13.8,6.9,11.8c5.3-0.6,5.7-4,8.9-4.6c-0.6,0.8-1.1,1.6-1.9,2.7c2.8-1.3,3.4-3.8,4.2-6.5c-0.5-0.2-1.4-0.7-2.9-1.4
		c0.5-0.5,1.2-1.1,2-1.8c-0.6-0.2-1.5-0.4-2.5-0.7c0.4-3.3,4.5-2,6.6-1.9c4.3,3.8,1.1,10.2-1,14.5c4.4-0.7,6.1-7.2,4.1-14.6
		c48.8,6.6,22.7,71.1-20.7,56.9c-2.6-0.3-5.2-1.6-7.6,0.1c1.7,3.5,5.4,5,6.1,9.3c1.5,5.9-2.4,9.9-8.3,8.3
		c-7.1-1.7-14.8-11.6-7.1-17.3c-11.1-10.9-27-29.7-17-45.7c10.2-14.2,28.7-20.6,44.5-12C272.1,138.7,272.1,139,272.1,139.2z
		 M269.4,182.8c3.6-1.6,2.9-5.5,4.8-7.9c-0.6-0.6-1.2-1.3-1.6-1.7c-0.5,0.2-0.9,0.4-1.3,0.5c-1.2-1.7,1-2,2.2-3.1
		c-1.1-0.3-2.1-0.7-3.4-1.1c0.6-1,1.2-1.9,2.2-3.4c-1.5,0.6-2.5,1-3.3,1.4c-1.1-0.6-2.2-1.1-3.2-1.7c-0.1,0.1-0.1,0.2-0.2,0.4
		c0.5,0.6,0.9,1.1,1.3,1.6c-2.6,0-5.1,0-7.7,0c0.3-0.4,0.6-0.8,0.9-1.2c-0.2-0.2-0.3-0.3-0.5-0.5c-5.2,3.6-6,10.5-3.9,16.2
		c2.3,6,10.8,2.9,13.4-1.4c0.5-0.7,1.2-1.3,1.8-2c0.2,0.2,0.4,0.3,0.5,0.5C270.9,180.4,270.3,181.5,269.4,182.8z M248.9,147.4
		c-2.7,4.1-8.2,3.9-10,8.2c-0.9,6.2,2.1,11.5,6.5,15.8c2.3-1.8,1.4-4.5,1.5-6.9C247.7,158.9,248.3,153.3,248.9,147.4z M276.8,166
		c5.8,10.6,1.9,18.2-6.7,24.8C279.8,188.7,287.5,170.8,276.8,166z M253.7,203.7c1,3.2-1.7,2.5-3.3,3.1c0.1,0.2,0.1,0.4,0.2,0.6
		c1.5,0,3,0,4.5,0c-0.4,2.1-1.1,2.6-4.5,2.5c6.2,5.2,9.4-5.8,2.9-7.9c-3.2,2.5-3.4,1.4-5.9-1C247,204.5,250.3,205.7,253.7,203.7z
		 M250.4,156.6c1.2-1.9,1.9-5.9,4.8-4.1c0.2,1.7,0.1,3.4,0.1,4.7c1.7-0.5,3.7-1.1,5.2-1.5c-1.8-1.3-4.2-4.6-6.2-5.2
		C251.8,150.6,248.2,154.1,250.4,156.6z"/>
	<path class="st0" d="M129.7,323.2c-17.2-20.7-7.1-50.1-4.8-74.2c2.5-24.2,14.5-45.6,26.3-66.3c3.8-6.5,10-11,16.9-14.2
		c10.3-1.8-6.8,18.2-8.9,20.7c19.6,0.1,28.4,5.8,11.9,21.9c-13.5,11.2-20.8,25.9-25.4,42.3c-1.8,6-4.8,19,5,18.6
		c6.7-0.9,12.6-1.5,17.4,4c4.9,5,8.7,10.7,11.6,17.7C159.8,268.1,121.6,295.2,129.7,323.2z"/>
	<path class="st0" d="M370.1,200.8c42.3,16.9,90.7-17.5,119-47c24.6-24.8,21.7-59.4-12.6-75c4.4,0.6,4.8,0.1,6.3-4.2
		c30.9,6.7,55.8,36.2,35.6,66.6c-21.7,33.7-54.5,57.7-93.2,67.8C411.7,212.7,375,218.1,370.1,200.8z"/>
	<path class="st0" d="M371.7,402.1c0.7,2.2-0.7,2.1-2.1,2.1c-41.3-2.9-80.7-18.8-118.2-35.3c2.4,0,4.2,0,5.9,0c0-0.1,0-0.2,0-0.3
		c-13.2-2.4-26.3-4.8-39.5-7.2c1.8-9.7,3.6-19.2,5.4-28.9c25,22.4,47.3,3,68.8,25.4c12.2,9.4,26.4,31.4,43.8,23.1
		C338.5,393.8,360.3,400,371.7,402.1z M327.8,394.4c10.4,5.3,10.4-7,2-7C335.4,391.3,335.6,395.1,327.8,394.4z"/>
	<path class="st0" d="M197,355.2c-15-3.4-62.4-21.4-66.5-35.8c-2.1-15,9.9-28.5,23.5-33.1c12.7-4.5,25.1,6.4,29.1,17.8
		c1.5,5.1,5.1,8.6,9.1,11.7c1.5,1.2,2.6,2.3,2.2,4.5C192.4,332.2,194.6,343.7,197,355.2z"/>
	<path class="st0" d="M420.5,324.5c24.5,13.1,51.5,1.6,74.4-9.8c37.1-18.9,73.6-44,87.9-85c1.3,5.9,2.6,12.3,3.5,18.4
		c-1.2,12.4-8.4,23.2-16.5,32.3c-32.5,34-85.8,65.9-134.3,58.3C427.9,337.4,424.3,330.2,420.5,324.5z"/>
	<path class="st0" d="M557.1,148.5c3.1,7,6.4,13.4,8.6,20.2c-1.3,34.5-45.2,68-72.4,85.6c-27.3,16-59.6,27.1-91.4,20.1
		c-6.1-1.3-9.5-5-10.6-11.7C447.1,294.8,553.4,206.6,557.1,148.5z"/>
	<path class="st0" d="M295.3,235.5c-20.5,6.5-20.6-23.7-27.3-35.7c4.7,0.4,10.5-1.3,14.2,2.6c-0.6-0.9-1.2-1.9-1.9-2.8
		c4.3-1.7,4.9-1.7,7.8,1.6c3.5,3.9,6.6,8.1,8.1,13.3c-0.7-6.7-4.4-12-8.9-16.9c2.9-1.6,5.9-3.2,8.9-4.9c5.6,3.6,11.6,16.1,14,28.8
		c0.2,0,0.4,0,0.6,0c0.7-11.4-4.9-22.2-13.7-29.6c1.9-1.4,3.4-4.4,5.9-3.7c2.6,1.6,5.1,3.4,7.3,5.5c-1.5-3.3-3.5-6.2-7.1-7.4
		c1.7-2.8,3.3-5.6,5.1-8.3c1.1-1.7,3-1.1,4.5-0.5c9.8,3.4,13.2,12.8,14.1,22.4c2-12.6-6.2-24.3-17.7-24.9c1.4-2.1,3.1-1.1,4.7-1.3
		c-1.1-0.6-2.3-1.1-3.4-1.7c0.1-1.4,0.3-3,0.5-4.9c19.9,8.5,29.4,36.9,11.7,52.4c1.6-5.9,0.6-11.1-1.4-16.3
		c1.1,7.7,2.5,15.5-4.6,21.8c0.2-2.3,0.4-4.2,0.5-6c-0.2,0-0.4,0-0.6-0.1c-0.4,8.3-5.5,9.5-11.7,13.2c-12.9,6.9-20.7-9.6-25.1-19
		C282.5,222.2,285.8,231,295.3,235.5z"/>
	<path class="st0" d="M167.3,272.7c-8.1-7.8-23.6,4.6-21.5-10.1c2.3-14.3,7-27.7,16.1-39.2c12.9-13.8,36.5-33.5,1.2-35.8
		c2.9-4.7,14-15.6,8.4-20.5c11.8-3.5,23.2-2.6,34.5,1.1c-19.5-1.8-19.1,7.7-15.7,23.4c1.7,8,10.2,9.2,16.3,12.7
		c-31.7-6.7-46.7,42.4-22.1,47.2C177.7,257.9,170.2,263.4,167.3,272.7z"/>
	<path class="st0" d="M452,369.6c49.5-11.5,116.8-29.5,137.8-81c0.5,2.6,0.8,6.1,1.8,9.4c5,37.9-68.8,63.8-98.3,70.9
		c-10.8,2.3-21.4,5.8-32.4,6.9C457.3,375.3,455,371.5,452,369.6z"/>
	<path class="st0" d="M374.5,200.5c-15.7-5.5-4.1-19.4,3-27.2c31.7-32.4,80-40,123.4-42.3c-0.7,3.6-1.1,3.8-4.8,4
		c-38.4,1.8-76.8,14.5-105.2,41.1C383.1,182.7,376.9,190.3,374.5,200.5z"/>
	<path class="st0" d="M201.8,182.5c8.2-2.3,15.6-5.8,22.1-11.6c3.7,9.9,10.2,17.8,17.4,25c-8.6,2.8-17.3,4.7-24.5,10.7
		c-7.2-3.8-10.6-21.5-19.3-19.9c7.6,2.3,9.1,11.5,12.9,17.3c-16.1-7.5-19-7-19.8-26.1c-0.1-10.1,12.4-7.2,19.1-7.3
		c2.3-0.1,4.2,4.2,1.8,5.4C208.3,178.1,205,180.3,201.8,182.5z"/>
	<path class="st0" d="M531,200c-1.1,2.6-2.6,3.6-5.5,3.5c-9.8-0.5-19.5,0.9-29.1,2.5c-34.7,5.8-68.9,18.9-94.4,43.8
		c-3.5,3.6-7.3,7.7-6.7,13.2c-17.3-11.1,6.6-29.1,17-35.2C448.2,208.3,490.2,199.1,531,200z"/>
	<path class="st0" d="M424.8,323.9c-30.6-19.4,37.5-45.7,52.7-48.6c25.3-6,51.8-8.2,77.6-5.1c-1.9,3.2-2.5,3.2-6.1,2.9
		c-7.9-0.5-15.9-1.2-23.8-0.9c-34,1.1-67.3,13.8-92.9,36.2C427.7,312.4,424.4,317.3,424.8,323.9z"/>
	<path class="st0" d="M261,220.8c-1.9-4.6-1.6-7,1.5-10.8c1.9,5.1,3.8,10.2,5.7,15.3c0.2-0.1,0.5-0.2,0.7-0.3
		c-3.3-9.7-3.9-20.4-11.6-28.5c3.5,1.4,8,0.7,9.7,5.2c5.7,13,5.3,25.8,16.4,35c-7.4,1.2-12.2-0.6-17.9-6.4c1.1,1.7,2.2,3.3,3.4,5
		c-6.2,0.1-16.2-11.3-18.7-19.7c2.6,0,5.2,0,8,0c0.7,1.6,1.5,3.5,2.4,5.4C260.6,221,260.8,220.9,261,220.8z"/>
	<path class="st0" d="M320.5,231.1c3.8-4,7.6-7.9,11.3-11.9c2.1,15.6-30.8,29.9-44,25.8c4.6-1.4,9.2-2.9,13.8-4.3
		c-0.1-0.2-0.1-0.4-0.2-0.6c-5.1,0.3-18.4,6.2-20.3-0.8c20.9,0.4,36.2-9.9,49.2-25.7c-0.1,1.2,0.1,2.3-0.4,2.9
		c-3.4,4.7-6.4,9.7-10.2,14C320.1,230.7,320.3,230.9,320.5,231.1z"/>
	<path class="st0" d="M371.3,395.3c0.9-0.6,1.8-1.1,3.2-2c-0.6,2.2-1.1,3.9-1.6,5.7c-8.8-2.8-17.4-5.6-24.9-10.8
		c-9.1-6.9-8.8-12.4,3.1-14.4c10.9-1.4,8.9,16.8,18.5,17.6c-0.7-0.4-1.4-0.9-2.1-1.3c2-0.3,4.8-1.9,6.6-0.8c1.1,2.7-1.3,4.1-3.1,5.7
		C371.1,395,371.2,395.2,371.3,395.3z"/>
	<path class="st0" d="M306.2,149.4C328.4,148,333.6,178,334,195c-3.2-13.2-9.5-24-23.4-29.2c-0.1-0.5-0.1-1.8,0-2.6
		c3.2-0.6,5.3,1.2,7.6,2.8c-2-2.8-4.5-4.8-8-5.1c-0.4-1.7-0.8-3.4-1.3-5.4c6.6-0.5,11.1,4.6,15.4,8.7c-2.8-5.9-10.2-11.1-16.1-10.5
		C307.5,152.4,306.9,151,306.2,149.4z"/>
	<path class="st0" d="M42.6,372.7c5.6,4.5,11.8,5.6,18.5,4.9c2,6.1,1.3,11.3-4,12.5c0.7-3.2,0.1-6.1-2.2-8.6
		c5.2,14-11.6,10.7-20.2,12.3c-6.3,0.7-1.7-6.8,1.4-7.4C44.2,385.5,44.6,379.9,42.6,372.7z"/>
	<path class="st0" d="M390.3,392.1c-4.4-1.1-8.5-3.6-13.5-1.7c-0.4-1-0.8-1.8-1.2-2.8c6.8-3.9,12.1,3.3,19.8-0.1
		c2.5-0.8,3.4-0.2,4.1,2.2c2.7,12.6-17.2,14.3-26,14.5c4-15.1,1.8-12.3,16.7-11.4C390.2,392.6,390.3,392.3,390.3,392.1z"/>
	<path class="st0" d="M59,339.1c7.6,6.9,2.1,13-1.7,19.9c1.3-1.4,2.5-2.8,3.8-4.2c0.2,0.1,0.4,0.2,0.6,0.3c-2.1,6.6-3.4,13.2-1.2,20
		c-3,1.5-5.8,0.8-8.6,0.3C52.4,365.4,49.2,344.8,59,339.1z"/>
	<path class="st0" d="M446.2,64.5c-45.9-12.4-91.8-24.9-137.8-37.4c1.3-2,2.5-2.6,5.1-1.8c44.2,13.1,88.7,25.3,132.9,38.7
		C446.3,64.1,446.2,64.3,446.2,64.5z"/>
	<path class="st0" d="M580.2,226.8c-6.6-11.1-17.5-15.5-29.2-19c1.4-1.2,2.4-4.4,4.6-4.4C566.1,206.7,581.8,213.2,580.2,226.8z"/>
	<path class="st0" d="M554.1,153.4c-5.6-12.4-19.9-12.9-31.3-16.6c0.5-1.4,1-2.7,1.6-4.3C535.9,135.8,556.1,136.6,554.1,153.4z"/>
	<path class="st0" d="M239.7,199.6c-0.9,6.1,1.9,10,6.2,13.3c3.9,5.5,5.7,12.6,10.7,17.7c-9.1-7.3-18.9-16.3-21.5-28
		C235.4,200.5,237.9,200.5,239.7,199.6z"/>
	<path class="st0" d="M244.2,9.8c0.4-1.5,0.7-2.8,1-4.1c7.6,2.7,16.2,3.6,22.8,7.1c1.8,4,2.5,4.4,6.9,3.9c0,0.2,0.1,0.4,0.1,0.6
		c-0.6,0.1-1.2,0.4-1.7,0.2C263.4,14.9,254.1,12.4,244.2,9.8z"/>
	<path class="st0" d="M317,241.7c1.9,2.7,4.4,12.5-1.9,10.4c-3.3-1.6-6.5-3.6-10.1-5.5C309.3,244.8,313.1,243.3,317,241.7z"/>
	<path class="st0" d="M313.3,253.4c-7.4,2.2-15.1,0.1-19.7-5.4c4.1-0.5,6.7,2.9,10.9,3.7c-2.1-1.5-3.6-2.7-5.4-4
		c2.8-0.9,5-1.5,7.3,0.9C308.2,250.5,310.8,251.7,313.3,253.4z"/>
	<path class="st0" d="M587.1,288.3c-2.9-5.3-8-7.2-13.3-8.8c0.9-1.3,3-3.5,4.1-3.5c3.2,0.4,6.9,1.1,8.6,4.1c1.2,2.3,0.9,5.3,1.3,8
		C587.5,288.2,587.3,288.2,587.1,288.3z"/>
	<path class="st0" d="M302.8,144.5c1.8,0,3.5,0,5.3,0c0-0.1,0.1-0.2,0.1-0.4c-2.9-0.7-5.7-1.4-8.6-2.2c0.1-0.2,0.2-0.5,0.2-0.7
		c9.4-2.1,14.6,4.1,19.9,10.2c-9.2-6.3-12.3-1.5-17.4-6.4C302.5,144.9,302.7,144.7,302.8,144.5z"/>
	<path class="st0" d="M290.2,11.5c-0.9,2.7-14.5,14.1-13.4,6.8C278.6,13.8,285.3,9.3,290.2,11.5z"/>
	<path class="st0" d="M284.4,20.5c2.4-2.5,4.9-5.1,6.7-8c1.1-1.8,6.5-2.3,7.6-0.4c0.3,0.5,0.1,1.7-0.3,2c-3.4,1.8-10.5,8.4-13.8,7.2
		C284.5,20.9,284.5,20.7,284.4,20.5z"/>
	<path class="st0" d="M372.3,401.2c-9.3-2.5-18.1-6.8-27.1-10.2c-3.7-1.2-11.2-8.7-5.9-11.9c3.7,15.2,21.2,16,33.2,21.2
		C372.4,400.5,372.3,400.8,372.3,401.2z"/>
	<path class="st0" d="M320.8,250.2c-1-3.1-1.9-6.2-2.9-9.3c1.9-1.4,4.1-2.9,6.3-4.5C325.8,241.3,324.1,248.1,320.8,250.2z"/>
	<path class="st0" d="M57.8,338.1c-4.8,3.1-5.7,8.2-6.7,13.2c-1.3,6.8-1.7,13.6-1,20.4c0.1,1,0,2-0.5,3.2
		c-3.4-6.4,0.5-21.2,1.4-28.7c0.6-2.9,2.8-5.5,4.4-8.1c0.3-0.5,1.4-0.5,2.2-0.7C57.7,337.7,57.7,337.9,57.8,338.1z"/>
	<path class="st0" d="M242.6,9.6c-2.7-1.2-11.4-1.3-10-5.4c2.6-3.7,7.6-0.5,11,0.1C243.2,6.3,242.9,7.8,242.6,9.6z"/>
	<path class="st0" d="M272.6,14.8c-5.9-2,3.6-7.5,6.5-7.2c1.9,0.2,3.3,0.9,1.7,3C278.8,13.2,276,14.1,272.6,14.8z"/>
	<path class="st0" d="M304.9,16.8c-0.2,1.9-1.2,3.4-3.4,3.9c-1.5,0.3-3.6,1.4-5,0.3c-1.4-2.2,3.7-5.9,5.1-7.4
		C303.1,12.5,305,14.2,304.9,16.8z"/>
	<path class="st0" d="M330,231.5c-0.3,7.6-1.1,10.5-4,13.8c-0.3-3.1-0.5-6.2-0.7-9.3C326,234.1,328.8,232.9,330,231.5z"/>
	<path class="st0" d="M271.2,146.1c-4-4.4-7.5-4.3-12.5-0.1c-0.1-4.5,1.7-6.2,6.3-6C270,140.2,271.5,141.6,271.2,146.1z"/>
	<path class="st0" d="M268.5,150.4c0.1-4.1-4.6-5-6.5-2.1c-0.4,1,0.3,2.5,0.5,3.7c-3.4-0.2-3.5-4.9-0.9-6.5
		C265.3,142.5,272.5,144.7,268.5,150.4z"/>
	<path class="st0" d="M480.7,76.5c-1.5,1.7-3.1-0.4-4.6-0.9c-0.1-0.1,0.1-0.8,0.1-1.2C477.9,74.9,479.7,74.6,480.7,76.5z"/>
	<path class="st0" d="M457.3,67.6c-3.1-0.9-6.2-1.7-9.2-2.6c0.1-0.2,0.1-0.4,0.2-0.6c3.1,0.9,6.1,1.7,9.2,2.6
		C457.3,67.2,457.3,67.4,457.3,67.6z"/>
	<path d="M253.7,203.7c-3.4,2.1-6.7,0.9-6.1-2.7c2.5,2.4,2.7,3.4,5.9,1c6.5,2.1,3.3,13.1-2.9,7.9c3.4,0.1,4.1-0.4,4.5-2.5
		c-1.5,0-3,0-4.5,0c-0.1-0.2-0.1-0.4-0.2-0.6C252,206.2,254.7,206.9,253.7,203.7z"/>
	<path d="M327.8,394.4c7.8,0.7,7.6-3.1,2-7C338.2,387.4,338.2,399.7,327.8,394.4z"/>
	<path class="st0" d="M256.3,176.6c0.4-8,4.2-8.4,8.8-7.6c3.7,0.7,4.8,2.9,3.7,7C266.4,171.4,261.4,170.4,256.3,176.6z"/>
	<path class="st0" d="M260.7,183.6c-5.6-0.7-3.7-8.3,0.8-9.6c4.4-1.8,8.2,3.5,4.7,7.3C265.9,172.6,255.2,178.8,260.7,183.6z"/>
	<path class="st0" d="M264.2,182c-1.2-1.6-2.5-2-0.8-3.5C264.8,179.7,265.6,179.9,264.2,182z"/>
	<path class="st0" d="M244.5,167.7c-2.9-3.7-6.4-10.8-1.6-14.2C241.8,158.5,242.4,163.1,244.5,167.7z"/>
	<path class="st0" d="M247.5,151c-0.8,4.3-1.6,8.3-2.3,12.3C243.3,159.8,244.3,153.7,247.5,151z"/>
</g>
</svg>
