<?xml version="1.0" encoding="utf-8"?>
<!-- Generator: Adobe Illustrator 26.0.0, SVG Export Plug-In . SVG Version: 6.00 Build 0)  -->
<svg version="1.1" id="Capa_1" xmlns="http://www.w3.org/2000/svg" xmlns:xlink="http://www.w3.org/1999/xlink" x="0px" y="0px"
	 viewBox="0 0 595.3 929.6" style="enable-background:new 0 0 595.3 929.6;" xml:space="preserve">
<style type="text/css">
	.st0{fill:#FFFFFF;}
</style>
<g>
	<path d="M595.2,337.4c-0.7-18.5-5.5-37-7.4-55.4c-2.7-9.2-8.7-17.8-10.6-27.2c-5.4-81.3-12.9-87.7-64.7-148.8
		c4.5-11.1,12.3-21.6,5.2-33.2c-4.9-8.2-5.8-18.2-8.7-27.2c-2.6-8.2-11.6-11.3-17.2-6.2c-4.6-4.1-5.6-4.1-11.8-0.8
		c-2.9-6.3-7.2-12.1-10.3-18.1c-2.4-6.2,0.4-16.7-6.7-20.1c-3.6-1.3-6.8,0.6-9,3.2c-6.9,8-11.6,16.8-8.8,27.9
		c0.5,1.9,1.3,4.5,0.4,5.8c-3.6,5.4-1.6,10.2,0.6,15.2c3.2,7.2,6.4,14.4,9.5,21.7c7.6,17.7,15.1,35.4,22.5,53.2
		c0.6,1.5,0.7,3.4,0.3,5c-6.8,30.7-13.7,61.3-20.5,92c-8,38.4-21.4,54.5-50.2,80.3c2.8-5.6,6-10,7.4-14.9c4.7-16,9.3-32.1,12.8-48.4
		c3.5-16.4-4.6-27.8-19.6-29.4c-8.6-51.4-33.7-83.3-88.8-81.8c-7.5-25.7-37.9-32.9-60-21.1c-25.4,10.1-50.5,46.5-19.9,66
		c-29.4,40-11.3,85.4,22.9,115.1c-6.2,3.3-8.1,8.7-5.3,15.6c7.2,18.1,27.9,20.2,43.5,27.3c16,7.3,32.7,8.7,49.9,7.6
		c1.3-0.1,3.6,0.3,3.8,0.9c1.6,5.2-4,8.6-7.6,11.2c-7.7,4.6-14.1,10.6-19.4,17.9c-6,8.1-11.1,17-18.3,24
		c-10,9.8-21.4,18.3-32.4,27.1c-26.3,18.2-48.7,40.6-70.5,63.8c-14.7,16.4-35.6,6.1-52.9,0.7c-7.6-2.4-13.4-0.4-16.4,6.9
		c-1.6,4.6-4.6,7.3-8.2,10.2c-3.1,3.2-6.2,6.5-9.4,9.7c-3.6,3.6-8.8,1.8-12.9,3.7c-6.9,2.3-8.4,5.9-2.9,10.9
		c0.1,0.1,0.1,0.4,0.1,0.7C-95.1,643.9,17.7,950.8,242.2,912c221.1-36.3,232.5-364,0.5-408.3c17.8-11.1,36.9-17.3,50.3-33.5
		c19-22.3,43.3-39.4,67.6-55.5c3.7-2.4,7.2-2.9,11.4-1.2c23.2,8.8,46,18.6,65.5,34.3c6.2,4.7,9.1,10.9,8.7,18.5
		c-0.3,21.8,10.2,42.2,10.6,64c1.6,31,0.9,62.1,2.8,93c0.1,1.5-0.5,3-1.1,4.5c-1.6,4.5-4.5,8.9-4.7,13.4
		c0.4,37.5-27.3,68.6-22,106.5c2,18.5,3.1,37.2,5.6,55.6c1.8,12.5,3.2,24.7-2.2,36.7c-1.9,5.1,0.2,11.5-0.2,16.8
		c-1.2,13.7-8.8,37.7-0.7,49.2c0.1,7.4,3,14,10.1,17.4c14.9,7.6,30,8.3,45.3,1.5c3.6-1.6,5.8-4.3,5.2-8.6
		c-0.9-7.5-1.8-15.1-2.8-22.6c-15.4-31.3-25.6-62.3-12.8-96.8c4.3-12.4,8.6-24.8,11.2-37.6c8.1-54.9-0.1-46.7,31.3-96.4
		c5.3-8,1.7-12,3-20.1c2.7-13.6,6-27.2,8.3-40.9c4.3-23.6,3.9-47.6,4.5-71.4c0.3-6.6,2-12.7,6.3-18.2c6.6-8.5,13.1-17.4,18.3-26.8
		C595.7,421.6,595.7,408.4,595.2,337.4z M328.8,560.4c174.2,151-6,419.7-211.8,316.3c-139.9-73.2-132.3-280.9,12.6-343.5
		c5.5,12.6,15.1,0.7,30.5,6.3c8.2,2.5,16.4,0.5,23.7-3.4c10.3-5.4,20.2-11.6,30.4-17.2C250,512.9,301.3,537.5,328.8,560.4z
		 M530.2,329.7c-3.5,23.2-7.9,45.6-11.6,68.9c-18.8-11.7-27.4-31.4-39.8-48.5c-5.5-8.4-12.8-14.7-22.2-19
		c36.3-60.4,47.1-76.1,50.3-148c5.6,12.4,10.5,25.6,15.1,38.4c1.9,5.6,2.5,11.8,3.1,17.7c1,16.5,3.9,33.2,2.5,49.7
		c-0.2,3.5,0.2,6.7,3.9,8.5c0.8,0.4,1.6,1.8,1.5,2.7C532.2,310,531.6,319.9,530.2,329.7z"/>
	<path class="st0" d="M538.1,513.1c-4-8.7-10.5-14.1-18.5-17.8c-17.2-7.7-35.7-16.8-55.1-15.1c-3.7,0.7-7.1,3.1-10.8,4.8
		c-2.6-7.6-0.9-15.7,1.1-24.1c2.4-9.6,4.5-19.3,5.7-29c1.1-8.6-3.6-15.3-10.5-19.9c-6.6-4.4-14-7-22.1-6.2c-10,1-19.9,2.4-29.8,3.7
		c-11.4,2-16.1,3-27.4-1.9c1.8-0.8,2.9-1.3,4-1.7c-6.5-0.7-12.8,0.2-17.9,4c-23.2,18.5-49.5,33.8-68.6,56.8
		c-8.3,9.8-19.3,15.7-30.3,21.6c-18.6,10-37.4,19.8-56.1,29.6c-6.9,2.4-10.8-10.8-9.2-15.7c0.3-0.9,1-2,1.8-2.4
		c12.5-5.3,21.7-14.8,30.7-24.3c19.1-20.3,39.1-39.3,62.8-54.3c9.6-6.1,18.3-14.2,26.2-22.5c6.6-6.9,11.1-15.7,17.1-23.3
		c4.7-5.9,10.2-11.3,15.6-17.2c5.9,9.4,14.3,10.8,23.3,10.8c25.8-0.5,46.4-18.3,69.7-27.2c6.8-3.1,14.2-2.5,21.4-2.1
		c1,0.1,2.2,1,2.9,1.9c5.6,7.1,11.8,14,16.6,21.6c10.3,16.4,23.4,30,39,41.3c21,15.9,32.5,54.3,32.3,79.9
		C551.6,495.8,545.2,504.3,538.1,513.1z"/>
	<path class="st0" d="M339.5,175.7c45.3-1.9,58.4,45.8,74.5,78.6c8.8,23.4-10.5,49.2-26.4,64.7c-8.3,11-20.3,13.8-33,14.8
		c-21.9,1.3-49.9,5.7-62.1-17.8c-8.8-17-18.6-33.4-27.1-50.5c-6.5-13.1-7.2-27.1-1.6-40.9C275.9,196.1,309.3,176.9,339.5,175.7z
		 M369,230.7c-9.2,8.6-14.9,14.5-9.8,27.2c3.9,10.4,14.3,16,24.4,13c10.3-3,16.4-13.1,13.8-23.9c-0.9-3.8-2-7.2,1-10.4
		c0.1-0.1-0.2-0.4-0.4-0.9c-2.2,1-4.5,3.3-6.3,0.6c0.8-3,1.5-5.5,2.2-8c-4,4.7-5,5.2-7.9,3.5c0.2-1.9,0.3-3.8,0.5-6.5
		c-2.5,2.6-3.3,6.3-6.9,4.5c-0.4-2.2-0.7-4.3-1.1-6.3c-0.4,0-0.7,0-1.1-0.1c-0.2,3.3-0.9,6.1-5.3,6.7c0.9-1.4,1.5-2.4,2-3.1
		c-1.8-0.4-3.5-0.7-4.5-0.9c-1.1,1-1.8,2-2.8,2.6c-5.7,3.2-10.3,7.2-11.9,13.8C360,235.1,363.2,232.3,369,230.7z M288.4,291.5
		c-0.2,0.4-0.5,0.9-0.7,1.3c6.8-2,7.8,3.6,10.8,6.5c15.5,16.2,41.3-0.9,33.2-20.8c-5.4-13-16.5-15.6-28.2-12.6
		c5.3-3.8,11.1-4.2,17.2-3.2c-7.6-4-14.3-0.5-21.9,1c-0.4,0.7-1.3,2.2-2.3,3.8c1.2,0.1,2.3,0.2,4,0.3c-3.4,3.3-6.1,1.3-8.8-0.5
		c-0.2,0.3-0.4,0.6-0.7,0.9c1.4,1.9,2.9,3.7,4.4,5.7c-1.5,3.6-4.6,1.2-8.1,1.7c2.4,1.8,4.1,3,5.9,4.3c-1.3,4.4-4.9,2.6-7.9,2.9
		c1.9,1.7,5.8,2.7,7.3,4.3C292.1,289.3,290.5,290.9,288.4,291.5z M276.6,268c6-13.8,17-21.1,31.8-22c1.3-0.1,2.5-1,3.8-1.5
		C296.9,239.7,277.3,253.2,276.6,268z M383.3,211.7c-14.5-7.3-31.4,0.7-39.2,13.5c-0.4,0.6,0.3,1.9,0.7,3.9
		C355.2,216.1,366.4,207.5,383.3,211.7z M347.2,302.6c8.2,10.4,29.6-4.1,25.3-12.7C360.6,302.9,358.4,304.1,347.2,302.6z
		 M360.7,291.7c-0.1-0.4-0.3-0.7-0.4-1.1c-2.9,1.3-6.5,1-9.5,0.2c-1-0.3-2.1-2.7-1.9-3.8c2.1-3.5,6.9-2,10.8-1.9
		c-4.1-2.7-7.8-5-11.7-7.5c0.6,1.5,1.1,2.6,1.7,4C337.4,287,353.8,301.9,360.7,291.7z M361.5,310.7c5.2,0.4,7.9-1.2,9.7-6.2
		C367.8,306.7,364.8,308.6,361.5,310.7z"/>
	<path class="st0" d="M532.5,268.2c1.6,2.2,3.5,4.8,5.4,7.5c0.2-0.1,0.4-0.2,0.6-0.3c-11.2-18.8-4.1-40.5-12.7-59.8
		c-10-22.3-19.3-45.1-30.6-66.7c-16.5-31.9-28.6-65.7-43.9-98.1c-3.4-7.1-3.4-8.9,2.4-14c2.9-2.6,6.5-4.7,10.1-6.3
		c5.9-2.9,9.2,3.9,9.9,8.8c0.7,4.7,2.6,8.5,7.1,9.7c2.5,25,14.9,21.8,18.8,33.8c2,8.8,4.2,17.9,9.8,25.3
		c18.3,25.3,41.9,48.1,52.1,78.3c6.9,21,6.8,43.3,9.4,65c1.2,7.2,5.1,14,8,20.9c3,7.9,12.2,20.4,0.5,25.2
		c-13.6,5.6-27.3,6.1-40.8-0.4c-3.4-1.7-4.8-4.2-4.7-8.4C534,281.7,533,274.8,532.5,268.2z"/>
	<path class="st0" d="M464,620.2c-0.9-42.1,3.5-85.3-7.6-126.5c-3.5-7.2,6.3-10.3,11.5-10.4c22.9,3,47.5,9.1,64,26.2
		c1.7,2.1,2.4,4.3,1.9,7.3c-1.1,6.9-1.7,13.9-1.8,20.8c0.2,37.1-4.9,73.8-14.2,109.6c-2.7,10.1-26.5,5-33.7,2.5
		c-7-2.1-12.6-6.5-17.3-11.9c-0.7-0.8-1.1-2.1-1.2-3.2c-0.1-4.8-0.1-9.7-0.1-14.5C465.1,620.2,464.5,620.2,464,620.2z"/>
	<path class="st0" d="M439.2,854.9c1.2,1.9,1.7,2.7,2.3,3.6c0.4-0.1,0.8-0.2,1.2-0.3c-0.7-7.4-6.4-11.9-2-19.1
		c5.2-9,4.3-18.5,3.2-28.1c-3-25-5.4-50.2-6.5-75.3c-0.4-11.3,2.9-21.9,6.5-32.5c7.5-22.9,16.3-44,17-68.7
		c7.3,10,15.6,17.2,26.9,19.9c10.6,2.5,21.4,5.3,32.5-1.2c-7.2,14.7-17.3,27.9-24.1,42.7c-3.6,8.1-6.2,17.4-6.6,26.2
		c-1.1,24.9-6.7,48.7-15.4,71.9c-11.7,28.5-7.7,61.1,8.2,87.1c2.7,4.8,4.9,10,6.9,15.1c-18-11.7-41-10.4-53.3,3.4
		C429.2,886.3,440.3,869,439.2,854.9z M473.9,682.9c2.8,7,7,10.5,12,10.2c3.7-0.2,7.2-1.3,9.7-4.8
		C486.9,691.6,479.5,691.2,473.9,682.9z"/>
	<path class="st0" d="M557.5,484.7c-2.8-29.7-12.4-59-32.1-81.6c-0.9-1-1.3-3.1-1.1-4.5c4.5-32.8,14.3-64.7,12.2-98.1
		c16.2,6.4,31.8,5.9,47.9-1.6c6.7,33.3,7.1,67.7,3.8,101.4c-1.6,15.3-6.7,29.7-12.5,43.9C569.8,457.6,565.8,472.3,557.5,484.7z"/>
	<path class="st0" d="M227.6,512.7c6.3-6.6,13.6-4.3,20.7-2.8c181.8,38.5,219.9,282.2,58.3,373.9C213.4,939.6,83,903,31.3,807.8
		c-56.5-94.7-18.3-227.5,79.9-277.7c5.1-2.2,10.4-1.5,16-1.6C-88.4,630.7,22.3,949.2,252.2,899C464.1,847.9,446.6,537.9,227.6,512.7
		z"/>
	<path class="st0" d="M483.1,132.5c7.7,17.6,20.5,30.6,18.4,50.7c-2.6,21.5-3.8,43.2-9.3,64.3c-7.7,28.4-25.2,52.4-39.3,77.9
		c-0.6,0.9-2.6,1.8-3.6,1.5c-7.2-1.9-8.1-4.1-6.4-13.2c-1.2,2.7-2.5,5.5-3.7,8.3c-0.6-0.2-1.5-0.5-2.4-0.8c-0.1,0.2-0.3,0.5-0.4,0.7
		c5.4,4.5,10.8,9,16.6,13.9c-17.7,1.6-31.6,11.6-47.3,19.3c17.6-16.4,25.3-31.7,5.4-48.9c23.1-16,42.9-40.7,49.4-68.5
		C468.4,202.5,477.9,168.3,483.1,132.5z"/>
	<path class="st0" d="M140.7,497.8c3.1-6.9,5.7-10.4,13.4-7.2c11.9,3.5,23.4,8.8,35.7,10.5c-1.6,8.8,0.5,16,8.4,21.6
		c-11.1,6.7-22.7,15-36.2,11.1c-7.1-1.9-14.1-1.6-21.1-0.3c-2,0.6-3.8-1.2-5.7-1.7c5-10.6,20.3-5,29.9-6c-3.1-1.2-6.3-3.4-9.4-3.3
		c-9.1,0.2-18.1,1.6-27.2,2.1c-6.3,0.4-12.6,0.3-18.9,0.3c-0.9,0-1.8-0.9-3.3-1.8c7.1-4.6,15-2.6,21.8-5c6.9-2.4,14-4.2,21-6.2
		c-0.1-0.4-0.1-0.7-0.2-1.1c-7.9,1.6-15.9,3.2-23.8,4.9c1.5-4.4,4-6.2,10.2-7.5c6.4-1.4,12.7-2.8,19.1-4.2c-0.1-0.3-0.1-0.7-0.2-1
		c-7.3,1.4-14.6,2.8-21.9,4.2c-0.1-0.3-0.3-0.7-0.4-1c7.4-3.5,14.8-7,21.5-10.1c-1-0.3-2.7-0.8-4.6-1.3c-2,1.2-4.7,2.7-7.3,4.3
		C141.2,498.6,140.9,498.2,140.7,497.8z"/>
	<path class="st0" d="M349.6,357.5c7.9-5,13.3-10.7,8.2-21.2c14.6-0.7,26.7-5.7,34.6-18c2.8,2.5,5.2,4.6,7.7,6.8
		c0.6-0.9,0.9-1.2,0.8-1.3c-2.9-6.5-2.9-6.5,2.8-11.4c1.3-1.1,2.7-2.2,4-3.3C448.5,333,372.6,385.6,349.6,357.5z M393.2,344.7
		c-2.1-2.2-5.6-2.6-8.6-1.6c-9.3,3-18.4,6.6-27.5,10c0.1,0.3,0.2,0.5,0.3,0.8C369.3,350.8,381.3,347.7,393.2,344.7z M400.2,341.2
		c-1.8-9.2,6.2-14.4,8.4-19.5C402.1,325.6,393.5,332.2,400.2,341.2z"/>
	<path class="st0" d="M388.2,413.1c20.8-1.9,46.8-11.9,64.4,5.2c4.3,4.1,5.7,9.5,4.8,15.2c-1.3,8.6-3.3,17-5.4,25.6
		C446.5,437.2,406.6,423.8,388.2,413.1z"/>
	<path class="st0" d="M464,890.6c10.2,2,20.9,1.7,23.2,13.3c0.2,4.8,4.5,12.3-0.4,15.6c-13.6,5-27.2,5.5-40.4-1.5
		c-6.1-3.2-9-11.7-6.4-18.1c0.7-1.7,2.8-3.4,4.6-4C451.4,893.9,458.4,892.2,464,890.6z"/>
	<path class="st0" d="M326.9,173c-0.6-7.2-4.7-12.4-10.2-16.9c1.6,3.1,3.9,5.8,5.5,8.9c3.6,7.2,2.9,8.7-4.8,11c-1.5,0.5-3,1-4.6,1.6
		c-2.1-18.4-13.3-27.7-31.5-31.2c3.1-1.3,5.3-2.4,7.7-3.2c6.9-2.3,13.4-6.2,21.2-5.2c11,1.3,21.6,3.4,28.7,13
		c3.8,5.1,6.8,10.6,6.8,17.2c0,2.6-0.7,3.8-3.7,3.8C337,172,332.2,172.6,326.9,173z"/>
	<path class="st0" d="M287.2,191.1c-3.2-4-6.2-7.8-9.2-11.6c-0.2,0.1-0.3,0.3-0.5,0.4c7.4,15.1,10.2,10.3-3.1,21.8
		c-10.3-4.5-22.9-39.5-10.4-45.7c6.5-4.3,6.4-4.4,12.4,0.5c6.7,5.4,13.1,11.1,17.3,18.7C300.1,185.1,295,185.8,287.2,191.1z"/>
	<path class="st0" d="M314.1,135.3c11-1.8,21.9-0.6,32.8,1.3c21.6,3.7,30.2,27.1,29.6,46.4c-2.7-2-12.2-5.6-12.2-8.3
		c2.1-9.9-4.9-17.5-10.7-24.4c3.5,7.8,10.6,14.5,7.7,24.4c-4.6-1-8.9-2-13.1-2.9C349.7,155.5,338.2,138.6,314.1,135.3z"/>
	<path class="st0" d="M271.7,203.9c-4.3,6.8-8.6,13.8-13.5,21.6c-12.9-12.4-17.7-30.3-14.1-47.6c2.5-6.7,8.3-10.9,13-16.8
		C255.3,178.3,261.5,191.8,271.7,203.9z"/>
	<path class="st0" d="M255.6,138.6c2.8,4.1,5.6,8.1,8.5,12.3c-6.4,5.2-8.1,7.1-14.4,0.4c-6.6-6.1-13.9-20.9-3.6-26.8
		c1.1,1.4,2.1,2.7,3.2,4.1c0-2.5-0.9-5.6,0.2-6.7c3-3.1,6.6-5.9,11.7-4.2c6.8,1.9,21.5,19.3,14.8,26c-1,0.9-2.3,1.3-3.5,2
		c-6.1,3.6-6.8,3.5-11.6-2c-1.5-1.8-2.9-3.7-4.4-5.5C256.2,138.1,255.9,138.3,255.6,138.6z"/>
	<path class="st0" d="M235,197.4c-3.3,20.4,4,42,21.2,54c1.9,1.2,2.2,5.1,3.4,8.3c-7.9-1-12.9-5.1-17.1-10.7
		c12.3,21.4,16.2,6.1,21.9,22.9c-3.3-0.9-6.1-1.7-9-2.4c-0.1,0.3-0.3,0.5-0.4,0.8c13.4,5.4,13.5,9.7,20.2,21.6
		c-20.5-12.1-37.2-37.1-43-59.9c-2.7-11.4-1.8-22.6,1.7-33.7C233.9,198,234.3,197.9,235,197.4z"/>
	<path class="st0" d="M285.4,122.3c1.3,3.3,2.9,6.5,3.8,9.9c1.2,4.8,0.6,5.6-4.2,7c-1.4,0.4-2.7,1-4.1,1.5c-2.6-12.1-7.9-22-21-25.9
		c7.4-3.9,15.3-6.2,23.5-5.4c3.1,0.3,6.2,3.3,8.8,5.7c4.9,4.3,10.8,20.7,0.8,21.8c-2.2-5.1-4.4-10.1-6.6-15.1
		C286.1,122,285.8,122.1,285.4,122.3z"/>
	<path class="st0" d="M240.6,186.1c-0.3,16.7,4.3,31.1,17.3,41.8c-0.6,6.4-1.3,13-2,19.5C241.6,244,231.8,206.6,240.6,186.1z"/>
	<path class="st0" d="M273.2,150.8c4-4.2,8.1-2.3,12.6-0.8c10.5,3.5,18.3,9.6,22.4,20.2c4.5,9.7-0.3,8.9-8,12.9
		C297.6,171.5,291.5,163.1,273.2,150.8z"/>
	<path class="st0" d="M388.1,196.5c-3.1-3.8-6.1-7.4-8.9-10.7c2.3-14.4-2.6-26.5-10.6-37.6C384.9,153.6,397.7,184.5,388.1,196.5z"/>
	<path class="st0" d="M419.1,228.1c-3.3-5.8-6.2-5.7-11.2,0.7c-3.9-20.7,19.2-8.7,15.7,8.6c-1,6.4-2.8,12.6-4.5,19.8
		c-3.2-7.3-6.6-13.6-8.6-20.3c-0.8-2.6,1.1-6.3,2.6-9.1C413.6,227,417.1,227.9,419.1,228.1z"/>
	<path class="st0" d="M276.5,297.6c-3.1,1.8-6,2.8-7.9,4.8c-0.8,0.9,0.3,3.7,0.6,5.5c1.5-2.2,2.3-5.1,3.8-5.4c3.7-1,7.2,0.6,9.4,3.9
		c3.8,5.6,7.3,11.4,11.2,17.4c-8.3-3-16.7-5-23.5-10.4c-4.7-3.7-6.6-8.6-6.2-14.5C264.1,291,272.7,296.3,276.5,297.6z"/>
	<path class="st0" d="M465.5,24.9c-5.4,3.3-10.3,6.3-15.1,9.2c-2.9-7,0.9-21.8,7.2-26.8c2.6-2,4.4-1.3,4.9,2
		C462.8,14.2,463.8,20.5,465.5,24.9z"/>
	<path class="st0" d="M395.6,209.4c0.3-4.8,0.6-8.1,0.8-11.4c-0.4-0.1-0.8-0.1-1.1-0.2c-0.5,2.3-1.1,4.5-1.8,7.7
		c-1.8-2.9-3.1-4.8-4.3-6.8c0.3,0.1,0.7,0.2,1,0.3c1.7-4.9,3.3-9.8,4.8-14.2c3.6,4.8,9.4,28.1,9.1,41
		C400.8,219.5,397.9,213.9,395.6,209.4z"/>
	<path class="st0" d="M235.4,137.5c-0.9,11.6,1.9,21.8,11.6,29.4c-1.5,1.7-3.1,3.5-4.7,5.2C228.4,162,228.8,147.4,235.4,137.5z"/>
	<path class="st0" d="M315.2,130.8c-5.6,1.1-9.7,1.9-13.9,2.8c-1-12.7-1.7-14.1-11.8-23.8c9.5,1.6,14.4,7,16.2,15.9
		c0.2-2.8-0.2-5.5-0.8-8.3c0.3-0.2,0.7-0.4,1-0.6C308.9,121.3,311.9,125.8,315.2,130.8z"/>
	<path class="st0" d="M255.1,158.1c-2.2,2.3-4.1,4.4-5.9,6.4c-9.3-4.8-14-18.4-10.4-31.1C240.4,144.4,245.5,152.6,255.1,158.1z"/>
	<path class="st0" d="M498.9,74.7c-1.9-8.3,0.7-14.7,7-19.6C510.9,60.2,507.3,71,498.9,74.7z"/>
	<path class="st0" d="M483.4,49.9c3.1,0.4,5.7,0.8,8.5,1.1c0,2.5-0.2,4.9,0.1,7.3c0.5,4.3,3.2,7.9,3.5,12.4
		C489.3,65.3,485.4,58.6,483.4,49.9z"/>
	<path class="st0" d="M497,61.7c-2.6-7.5-2.1-15,0.5-19.6c3.7,1.1,8.7,3.4,6,8.1C501.4,54.1,499.2,57.9,497,61.7z"/>
	<path class="st0" d="M503.1,85.8c-2.3-10.3,2.5-10.7,6.3-19.2C513.6,71.2,510.6,80.5,503.1,85.8z"/>
	<path class="st0" d="M506.4,87c2.6,1.4,4.5,2.5,6.7,3.6c-1.2,2.6-2.7,5.8-4.1,9c-0.3,0-0.6,0-0.8,0C507.5,95.4,507,91.1,506.4,87z"
		/>
	<path class="st0" d="M513.6,76.2c3.8,5.3,3.3,6.9-2.6,11.1C507.3,82.5,512.9,80.3,513.6,76.2z"/>
	<path class="st0" d="M490,47.2c-3.3-0.9-5.3-1.5-8-2.3c1.3-1.6,2.3-2.7,3.9-4.5C487.3,42.6,488.3,44.4,490,47.2z"/>
	<path d="M369,230.7c-5.8,1.6-9,4.4-13.9,11.7c1.6-6.6,6.2-10.6,11.9-13.8c1-0.6,1.8-1.6,2.8-2.6c1,0.2,2.6,0.5,4.5,0.9
		c-0.5,0.7-1.1,1.7-2,3.1c4.4-0.5,5.1-3.4,5.3-6.7c0.4,0,0.7,0,1.1,0.1c0.3,2.1,0.7,4.1,1.1,6.3c3.6,1.8,4.3-1.9,6.9-4.5
		c-0.2,2.7-0.4,4.6-0.5,6.5c3,1.7,4,1.2,7.9-3.5c-0.7,2.5-1.4,5-2.2,8c1.8,2.8,4.1,0.5,6.3-0.6c0.2,0.5,0.5,0.8,0.4,0.9
		c-3,3.3-1.9,6.6-1,10.4c2.6,10.8-3.5,21-13.8,23.9c-10.1,2.9-20.5-2.6-24.4-13C354.2,245.1,359.8,239.3,369,230.7z M378.1,234.7
		c-22.1,0.3-22.5,33.4,0,33.9C400.4,268.4,400.6,235.3,378.1,234.7z"/>
	<path d="M288.4,291.5c2.1-0.5,3.7-2.2,4.1-4.2c-1.5-1.5-5.4-2.5-7.3-4.3c3-0.4,6.6,1.5,7.9-2.9c-1.8-1.3-3.5-2.6-5.9-4.3
		c3.5-0.5,6.6,1.9,8.1-1.7c-1.5-2-2.9-3.8-4.4-5.7c0.2-0.3,0.4-0.6,0.7-0.9c2.7,1.8,5.4,3.8,8.8,0.5c-1.6-0.1-2.8-0.2-4-0.3
		c0.9-1.6,1.8-3,2.3-3.8c7.6-1.5,14.3-5,21.9-1c-6.1-1-12-0.7-17.2,3.2c11.7-3.1,22.8-0.4,28.2,12.6c8,19.9-17.8,37-33.2,20.8
		c-2.9-3-4-8.5-10.8-6.5C287.9,292.4,288.2,291.9,288.4,291.5z M313,302.6c22.7-0.3,22.5-32.7,0.4-33.9
		C291.3,269.1,290.3,302.1,313,302.6z"/>
	<path d="M276.6,268c0.6-14.7,20.3-28.3,35.6-23.6c-1.3,0.5-2.5,1.4-3.8,1.5C293.6,246.8,282.6,254.2,276.6,268z"/>
	<path d="M383.3,211.7c-16.8-4.2-28,4.4-38.5,17.4c-0.4-2-1.1-3.3-0.7-3.9C351.8,212.3,368.8,204.4,383.3,211.7z"/>
	<path d="M347.2,302.6c11.1,1.5,13.4,0.4,25.3-12.7C376.9,298.5,355.5,313,347.2,302.6z"/>
	<path d="M360.7,291.7c-6.9,10.3-23.3-4.7-10.9-10c-0.6-1.4-1.1-2.6-1.7-4c3.9,2.5,7.5,4.8,11.7,7.5c-3.9-0.1-8.8-1.6-10.8,1.9
		c-0.2,1.1,0.9,3.5,1.9,3.8c3,0.8,6.5,1.1,9.5-0.2C360.4,291,360.6,291.3,360.7,291.7z"/>
	<path d="M361.5,310.7c3.3-2.1,6.2-4,9.7-6.2C369.5,309.5,366.8,311.1,361.5,310.7z"/>
	<path d="M473.9,682.9c5.6,8.3,13.1,8.7,21.8,5.4c-2.5,3.5-6,4.6-9.7,4.8C480.8,693.4,476.7,689.9,473.9,682.9z"/>
	<path d="M393.2,344.7c-11.9,3-23.9,6.1-35.8,9.2c-0.1-0.3-0.2-0.5-0.3-0.8c9.2-3.4,18.3-7,27.5-10
		C387.6,342.1,391.1,342.5,393.2,344.7z"/>
	<path d="M400.2,341.2c-6.6-9,2-15.6,8.4-19.5C406.3,326.7,398.4,332,400.2,341.2z"/>
	<path class="st0" d="M378.1,234.7c22.4,0.5,22.2,33.7,0,33.9C355.7,268.2,356,235,378.1,234.7z M366.5,251.6
		c0.2,16.1,23.3,15.9,23.8,0.1C389.8,236.1,366.9,235.9,366.5,251.6z"/>
	<path class="st0" d="M313,302.6c-22.6-0.6-21.6-33.5,0.4-33.9C335.5,269.9,335.7,302.3,313,302.6z M324.6,286.8
		c0.1-15.6-23.6-15.6-23.6,0C301.1,302.4,324.7,302.4,324.6,286.8z"/>
	<path d="M366.5,251.6c0.5-15.7,23.3-15.5,23.8,0.1C389.8,267.5,366.7,267.7,366.5,251.6z M388.3,251.8
		c-0.3-13.5-19.5-13.4-20.1-0.2C368.6,264.9,387.9,265.3,388.3,251.8z"/>
	<path d="M324.6,286.8c0.1,15.6-23.5,15.6-23.6,0C301,271.2,324.7,271.2,324.6,286.8z M322.9,286.7c-0.4-13.3-19.8-13.1-20.1,0.2
		C303.3,300.1,322.6,300,322.9,286.7z"/>
	<path class="st0" d="M388.3,251.8c-0.4,13.5-19.7,13.1-20.1-0.2C368.8,238.4,388,238.3,388.3,251.8z M378.3,257.8
		c7.8-0.9,7.5-11.6-0.5-11.7C370.3,246.6,370.9,257.8,378.3,257.8z"/>
	<path class="st0" d="M322.9,286.7c-0.3,13.4-19.6,13.5-20.1,0.2C303.1,273.6,322.5,273.4,322.9,286.7z M318.4,287
		c-0.5-7.9-11.1-7.8-11.5,0.1C307.2,294.5,318.3,294.6,318.4,287z"/>
	<path d="M378.3,257.8c-7.4-0.1-8-11.2-0.5-11.7C385.8,246.2,386.1,256.9,378.3,257.8z M380.5,249.7c-0.3-0.8-0.6-1.7-0.8-2.5
		c-1.7,0.7-3.5,1.4-5.2,2.1c0.3,0.7,0.7,1.9,0.8,1.9C377,250.8,378.7,250.2,380.5,249.7z"/>
	<path d="M318.4,287c-0.1,7.7-11.2,7.5-11.5,0.1C307.2,279.2,317.8,279.1,318.4,287z M308.6,285.1c0.2,0.5,0.4,1,0.6,1.6
		c2-0.6,3.9-1.2,6.8-2.1C312.1,281.6,310.1,282.1,308.6,285.1z"/>
	<path class="st0" d="M380.5,249.7c-1.7,0.5-3.5,1.1-5.2,1.5c-0.1,0-0.5-1.2-0.8-1.9c1.7-0.7,3.5-1.4,5.2-2.1
		C379.9,248.1,380.2,248.9,380.5,249.7z"/>
	<path class="st0" d="M308.6,285.1c1.4-2.9,3.5-3.4,7.4-0.6c-2.9,0.9-4.9,1.5-6.8,2.1C309.1,286.1,308.8,285.6,308.6,285.1z"/>
</g>
</svg>
