<?xml version="1.0" encoding="utf-8"?>
<!-- Generator: Adobe Illustrator 26.0.0, SVG Export Plug-In . SVG Version: 6.00 Build 0)  -->
<svg version="1.1" id="Capa_1" xmlns="http://www.w3.org/2000/svg" xmlns:xlink="http://www.w3.org/1999/xlink" x="0px" y="0px"
	 viewBox="0 0 595.3 846.2" style="enable-background:new 0 0 595.3 846.2;" xml:space="preserve">
<style type="text/css">
	.st0{fill:#FFFFFF;}
</style>
<g>
	<path d="M593.4,45c-7.7-30.4-37.2-49.5-68.2-44.1c-51.3,7.3-66.7,79.4-24.1,107c2.8,1.9,4,3.5,2.4,6.8c-1.3,5.2-0.8,11.6-3.2,16.3
		c-12,25.3-31.8,45.9-41.6,72.2c-10.8,33.3-34.2,58.3-57.8,83.3c-6.5-10-7-21.4-7.4-32.9c0.6-15,13.4-25.9,18.4-39.6
		c5.8-11.5-3.5-15.5-10.2-23c-1.8-2.7-2.6-6.4-7-6c-0.3,0-0.6-0.4-0.8-0.6c-3.5-3.8-7-7.6-10.6-11.4c-5.9-6.4-11.4,8-17.7-2.3
		c-0.5,0.9-1.1,1.8-1.8,2.9c-10.2-5.3-20.4-11.7-31.2-15.4c-43.1-15.9-88.9,19.9-89.3,64.6c-0.4,4.6,0.1,9.2-4.9,11.8
		c-22.7,26.9-0.2,81.3,41.1,67.2c2.6-1,6.1-0.7,8.8,0.2c14.8,5.7,30,1.4,44.4-3c-11.1,5.1-17.4,14.8-23.7,24.5
		c-22.4,28.7-53.2,50.8-84,70.2c-19.8,9.3-46.1-27.5-63.7-34.9c-21.3-9.2-45.6-6.6-68.3-8.7c-11.6-0.1-14.8-11.5-19.1-20
		c-3.3-5.9-9.3-8.4-15.6-6.5c-8,2.4-14.1,0.4-19.4-6.2c-7-8.5-15.6-15.7-22.8-24.1c-19.6-17.7-23.1,35.5,0.2,49.4
		c36.7,29.6,82.8,42,125.8,59.4c7.8,3.1,15.1,7.3,22.2,13.9c-8.1,0.6-19.4,6.4-24.8,0.2c-7.2-6.4-14.2-13-21.4-19.4
		c-3.5-3-5.7-2.4-7.6,0.8c-8.3-0.7-15.9-1-23.5-2.1c-6.6-1-6.1,5.3-9.1,8c-2.3,2.5-0.7,6.3,1.4,8.6c1.3,3.5,2.6,7.1,4.2,11.4
		c-5.6,10.3,27.6,21.2,35.1,24.3c9.1,3.2,18.4,3.9,27.7,2.1c19.7-3.7,39.5-5.8,59.4-7.2c2.9-0.2,5.4,0.2,8.2,1.8
		c26.7,15.9,55.4,25.8,86.5,28.3c2.5,0.2,3.5,1.1,4.2,3.3c2.8,9,3.2,18.2,2.1,27.5c-6.6,42.7-0.6,86.2-9.7,128.7
		c-9.2,34.4,4.7,67.6,16,99.7c15.5,36.4-24.3,43.9-3.2,67.2c13.5,11.3,0.6,40.4,22.1,43.5c3.6,0.6,7.2,0.9,10.6,2
		c7.9,4.3,48.7-1,33.2-13.8c-4.8-5-16-5.8-17-13.4c-0.6-10.1-1.5-20.2-2-30.2c-0.1-12.1-1-23.9-5.7-35.3
		c-0.9-10.2-2.1-20.3-2.4-30.5c1.8-47.9-12.1-99.3,7.2-144.7c4.5-9.5,8.9-19.2,12.5-29.1c6.4-17.5,9.1-36,12.5-54.3
		c1.7-6.2,9.7-7.4,14.3-10.9c3.2-1.9,5.1-4.7,4.5-8.4c-0.8-5.3-1-11.1-3.3-15.7c-3.8-7.4-1.3-12.2,3.6-17.4
		c32.3-30.8,30.9-48.7,46-86.5c14.2-34.2-16.8-35.8-1.9-50c51.9-56.5,59.8-87.2,77.6-159.7c1.4-9.2,8.7-8.5,16.1-10.9
		c12-3.2,23.8-6.5,32.5-16.6c6.6-7.6,14.7-14,19.1-23.3c1.3-2.9,0.3-6.9,0.8-10C595.4,71.4,596.8,58.4,593.4,45z M344.5,384.9
		c-0.4,4.6-1,5.6-5.6,5.7c-6.7,0.1-13.5,0.5-20.1-0.7c-11-2.2-21.1-0.3-31.4,3.2c-4.1,3.4,1.2,5.2,1.2,8.1c-8.2,11.2-7.9,7.4-20.6,8
		c-0.1-0.4-0.2-0.9-0.3-1.3c20.2-15.6,40.5-31.2,62.8-43.8c7.3-4.2,6.7-4.7,10.6,3.2C344,372.7,345,378.6,344.5,384.9z"/>
	<path class="st0" d="M351.7,826.8c-7.4-22.3-9.4-50.4-37.7-53.5c15.5-21.6,2.5-46.5-5.1-68.5c-21.1-45.4,2.7-92.6-1.5-139.8
		c-1.6-27.8,6.3-56.1,5.4-83.2c-0.1,1.1-0.3,2.2-0.4,3.2c-5.2-14.6-8.7-20.1-1.8-35.6c15.7,14.7,29.4,7.8,39.6,19.4
		c6.6,9.1,17.9,9.2,27.4,4.8c-2.3,23.3-7.3,45.8-13.2,68.3c-3.3,11.5-9.2,22.4-13.9,33.5c-4.5,10.8-8.1,21.7-9.2,33.5
		c-0.1,5.5-4.5,10.4-4.3,16c1.2-1.2,2.3-2.5,3.5-3.7c0.3,0,0.7,0.1,1,0.1c0.6,43.1,0.5,86.4,3.8,129.3c4,11.6,5.9,23.6,6.4,35.9
		c0.5,13.4,3.3,26.9,1.5,40.2C352.6,826.8,352.2,826.8,351.7,826.8z M329.4,757.7c-0.2,5.6-0.5,10.3,2.9,14.2
		c2.4,2.7,5.7,2.9,6.7-0.1c1.3-3.9,1.5-8.1,2.3-12.2c-0.4-0.1-0.8-0.1-1.2-0.2c-1,3.9-1.9,7.7-3.1,12.4
		C331.7,768,331.5,762.8,329.4,757.7z"/>
	<path class="st0" d="M14.5,334.4c7-1.2,11.5-7,17.6-2.4c7.7,4.7,15.8,8.7,24.9,9.8c6.8,1.3,14.4-0.9,20.2,3.6
		c-7,2.1-9.9,0.3-8.5,9.1c1.2-1.1,1.5-1.2,1.5-1.3c0.1-1.7,0.1-3.3,0.1-5c2,0.3,4.4-0.1,5.8,1c16.7,11.5,47.9,7.1,68.4,10.6
		c11.5,1,20.7,6.7,29.3,14.1c10.5,8.8,22,16.2,32.3,25.3c-0.6-1.1-1.1-2.1-1.3-2.4c23.1,5.4,46.9,13.9,70.9,16.9
		c5.1,0.6,10.3,0.5,12.1,7.3c0.4-0.4,0.9-0.8,1.3-1.2c-1.2-2.7-2.4-5.3-3.9-8.7c1.2-1.1,3-2.7,5.5-4.9c-0.2,5.8,0.8,10.6,4.6,14.4
		c-0.5,16.7,5.7,31.5,8.1,47.9c-44.1-5.6-83.9-20.5-119-47.3c1.8-0.1,2.4-0.3,4.7-1.2c-8.4-1.2-16.2,0.5-21.6-6.6
		c-6.2-7.6-14.6-12.1-23.5-15.5C99.5,380.1,51.4,366.7,14.5,334.4z"/>
	<path class="st0" d="M506.9,111.9c2.1,1,3.3,1.6,4.5,2.2c-1,3.3-2,6.3-2.9,9.4c0.2,0.1,0.5,0.2,0.7,0.3
		c10.2-24.5,23.2-13.9,36.9-29.4c1.2-1.4,2.6-3.4,4.7-1.5c6.1,3.9-13.3,19.9-15,26.1c0.3,0.2,0.6,0.4,0.9,0.6
		c2.2-2.6,4.4-6.9,8.2-7.1c20.7,2.7,25.9-13.6,40.3-22.3c0.3,0.3,0.6,0.5,0.9,0.8c-6.2,10.7-15.9,19.4-24.5,28
		c-8.5,7.4-20.6,8.3-31.1,11.6c-6.6,2-10.7,5.4-12.6,12.8c-5.9,22.2-12.9,44.2-19.5,66.2c-1.6,8-5.3,13.9-14,15.8
		c0,0.3,0.1,0.7,0.1,1c2.6-0.3,5.2-0.6,8.5-1.1c-13.4,26.9-30.3,50.7-50.6,72.6c-7,10-25.9,26.6-23.8,38.8c0.9-2.1,1.9-4.2,3.2-7.1
		c0.2,1.7,0.3,2.6,0.4,3.5c0.3,0.1,0.6,0.2,1,0.3c0-6.3,3.1-10.8,7.1-14.9c11.4,29.6-28.7,65.7-44.6,27.3
		c-4.2-17.4-2.7-38.7,12.2-50.6c28-25.7,52.9-53.8,66.1-90.5c5.5-15.4,14.9-28.7,23.8-42.3C497.5,147.1,507.3,130.9,506.9,111.9z"/>
	<path class="st0" d="M545.3,110.1c4.4-4.6,8.6-8.6,9.4-14.8c0.4-4.6-4.5-7.2-8.6-4.9c-6.3,5.5-12.3,10.4-20.8,12.1
		c-4.6,0.3-9.6,9.1-13.3,7c-47.7-21-37.9-96.3,13.6-104.3c59.3-9.7,91.5,67.3,38.4,99.7C558.7,109.3,552.2,109.5,545.3,110.1z"/>
	<path class="st0" d="M435.6,313.8c7.4,13.1,12.7,26,4.3,39.9c-3.1,5.9-5.4,12-6.6,18.5c-6,27.7-23.5,51.4-41.8,72.4
		c-7.2-10.5-16.9-16.2-28.9-19.3c-10.4-3.6-20.9-7.2-30.9-11.6c-7.1-3.2-10.2-9.8-10.5-17.9c10.5-0.3,21.1-0.6,30.6,4
		c-1.6-1.5-3.8-3.4-5.9-5.4c2.3-0.2,4.6-0.4,7-0.6c0-0.2,0.1-0.3,0.1-0.5c-1.3-0.5-2.5-0.9-4-1.5c7.9-25.8-20-44.4-13.3-70.2
		c1.8-6.8-0.4-14.7,3.7-20.7c3.8,12,17.9,7.4,27.1,7.3c12.2-1.2,20.2-11.5,30.1-17.7c0.3,0.3,0.5,0.6,0.8,0.9
		c-7.8,6.8-14.4,13.8-14.7,24.8c-0.5,8.2-1.4,16.5-1,24.7c2.8,31.8,42.8,31.7,51,3.4c4.4-10.1,1-20.4,1.7-30.7
		C434.7,313.7,435.1,313.7,435.6,313.8z M355.4,322c-0.3,0-0.5,0.1-0.8,0.1c1.9,27.8,15.1,57.1,3.2,83.7
		C375.1,397,357.1,339.3,355.4,322z"/>
	<path class="st0" d="M301.9,265.2c17.6-1.3,32.3-9.8,47.1-19.2c0.6,0.8,1.6,2.2,2.7,3.7c-4.9,8.4-12.6,13.6-20.6,18.6
		c8.9-3.8,17.6-7.9,22.7-16.7c3.8,1.1,7.4,2.1,11.2,3.3c-8.4,22.8-51.2,37.4-73.5,32.2c0.6-2.8,1.2-5.3,1.7-7.4
		c4.6-0.7,8.9-1.3,13.1-2c0-0.4-0.1-0.8-0.1-1.2c-4.2,0-8.4,0-12.4,0c-1-6.9-1.9-13.4-2.7-19.6c12.2-2.3,24.5-6.1,36-11.3
		c-0.1-0.3-0.2-0.6-0.3-0.9c-12.2,3.3-24.3,6.6-36.6,10c-1.3-2.7-2.3-4.7-3.5-7.2c12.6-7.1,22.1-19.1,36.5-23.6
		c-15.4,1.9-25.5,13.4-37.5,20.9c-3.8-2.9-3-6-0.8-9.4c8.2-14.6,47.7-34.1,60.7-18.6c10,17,29.9-6.9,37.1,11c-8.1-7.2-15,0-23.5,0.2
		c-7.4,1.1-10.5,3.6-11,10.8c-0.7,11-36.3,24.4-46.6,25.4C301.7,264.5,301.8,264.8,301.9,265.2z"/>
	<path class="st0" d="M301.6,398.7c3.3,0.2,6.6,0.5,9.9,0.6c7.2,0.1,7.2,0.1,9.5,7.1c-1.5,0.4-3,0.8-5.3,1.4c3.9,1.4,8.5,0.2,9.7,5
		c-5.1,2.2-10.3,4.4-15.6,6.7c0.1,0.2,0.2,0.5,0.3,0.7c20.3-5.8,15.7-6.9,34.7,2.8c-6.1,3.7-13.2,6.4-17.4,12
		c5.1-2.7,10.8-5.9,16.6-8.8c5.7-3.4,10.9,0,16.6,1.8c-6.9,9.4-15.1,18-16.2,30.3c3.3-10.8,9.9-20.2,18.1-27.8
		c1.2-1.1,4.2-0.4,7.2-0.6c-2.1,7.6-3.8,13.9-5.6,20.3c0.2,0.1,0.4,0.2,0.7,0.2c2.4-6,4.8-12.1,7.3-18.3c12.4,2.6,9,18.5,13.1,27.8
		c-0.5-6.6-1-13.2-1.5-19.7c5.8,3,9.8,25.4,9.5,35.7c-9.3-8.1-16.6-4.1-27.3-2.9c-4.5,0.5-8.4-1.1-11.2-4.6
		c-8.4-11.6-23.5-9.2-34.9-16c-12.4-6.6-5-23-18.4-31.1c-9.1-5.4-7-15-8.9-24.1c7.2-3,20.3-6.4,26.9-1.6c-3.7,3.1-12.6,1.3-17.6,2.2
		C301.6,398.2,301.6,398.5,301.6,398.7z"/>
	<path class="st0" d="M380.3,176c6.9,13.1,13.9,2.1,10,20.6c1.3-2.5,2.6-5,4.2-8c2.8,3.3,4.9,7.5,8.2,10.2c6.3,4.6,7.7,8,4.2,15
		c-6.7,11.6-12.1,31.5-29.4,25.6c3.3,11-12.9,13.4-20.1,9.6c-8.1-2.5-9.7-16.1-0.5-17.9c13.4-1,15-5.8,29.5-0.9
		c-2.6-14.8-14.9-13.4-25.8-10.3c-23.3,5-20.3-51.3-46.3-59.5c10.3,0.8,20.1,3,29.3,8.1c-3.6,7.4-2,14.2,1.3,20.9
		c-0.1-6.4-1.3-12.9,1.7-19.3c4.3,2.5,8.4,4.9,13.1,7.6c-2.6,0.6-4.6,1-6.6,1.4c0,0.2-0.1,0.3-0.1,0.5c3.8,0.7,7.5,1.3,11.6,2.1
		c-0.7,5.1-1.4,9.9-2.1,14.5c7-4,0.6-17.5,10.8-17C375.6,179.4,377.9,177.2,380.3,176z M365.4,234.7c0.9,3.4,1.7,11.1,5.7,8
		c-1.9-3.6-2.7-7.5-5.9-9.3c-6.2-1.5-13,1.6-9.6,8.9c0.3-0.1,0.6-0.1,1-0.2c0.3-2.4-0.9-5.5,3.2-6.3c-0.4,2.5-0.8,5,3,5.9
		C359.7,237.9,362.9,237,365.4,234.7z"/>
	<path class="st0" d="M322.9,342.3c4.3,4.8,8.6,9.6,12.6,14.1c-27,12.3-50.7,31-73.9,49.5c-1,0.8-2.8,1.2-4.1,0.9
		c-10.7-2.3-21.3-4.7-33.2-7.4c35.3-19.2,63-46.5,91.8-72.7c-1.3,0.6-2.5,1.2-4.5,2.2c6.4-10.5,12.2-20.3,23.7-25.1
		c-1.6,16.3-7.3,32.6,2.1,48.4c-0.3,0.1-0.6,0.3-0.9,0.4c-4.4-3.6-8.7-7.2-13.1-10.8C323.3,341.9,323.1,342.1,322.9,342.3z"/>
	<path class="st0" d="M280.6,238.2c-6.9-5.7,4.8-24.4,8.9-30.2c-7.3,6.8-12.8,14.6-13.8,24.3c-6-2-12-4-18.6-6.3
		c-2.2-30.5,26.8-58.4,57.8-53.8c6.7,0.7,12.3,3.8,14.5,8.4c-34.7-0.9-57.1,24.5-58.2,38.2c8.9-19.5,27.7-33.9,49.5-35.6
		c4.5-0.2,10.2-0.6,11.9,4.8c0.2,0.4-0.8,1.4-1.3,2.3c4.7,0.3,3.2,5.1,5.8,8.5c-9.4-2.1-17.8-1.2-26.1,1.7c7.3-2.2,14.6-1.2,22-0.1
		c5.1,0.1,6.2,4.5,7.6,8.3C315.6,208.3,294.6,215.6,280.6,238.2z"/>
	<path class="st0" d="M85.1,413c9.1,3.3,18.2,6.5,27.3,9.8c0.2-0.3,0.3-0.6,0.5-1c-5.4-2.6-10.7-5.3-16.2-7.8
		c-4.9-2.8-12-2.6-14-8.7c1.4-0.3,3-1.1,4.2-0.8c9.7,3.1,19.1,6.1,28.6,9.6c-8.1-8.6-19.5-8.9-29.6-13.7
		c10.7-2.1,19.5,0.9,41.3,12.7c-4.6-4-9.1-7.9-13.7-11.9c0.3-0.4,0.6-0.8,0.9-1.2c9.8,4.8,22.8,26.7,32.8,23.8
		c6.6-1.2,13.1-2.9,19.7-4.3c14.2,0.6,23.5,11.7,35.5,18.3c-18.4,1.7-36,4.2-54.1,6.8c-9.3,1.4-18.3,1.5-27.2-2
		c-11.6-4.8-25.1-7.2-33.7-17.2c0.3-0.4,0.5-0.7,0.8-1.1c6.7,2,13.3,4,20,6c-7-6.8-18.2-7.3-23.7-16.2C84.6,414,84.9,413.5,85.1,413
		z"/>
	<path class="st0" d="M380.7,243.5c3.2,0,6,0,8.8,0c-2.7,12.7-0.6,28.4,5.7,44c-13.6,11.4-28.5,22.5-47.1,18.2
		c-3-0.5-5.5-2.2-6.5-5.1c4.2-4.6,10.6-7.9,12.7-13.7c2.6-11.9,17.6-11.6,15.7-32.7C375.9,253.1,379.7,249.6,380.7,243.5z"/>
	<path class="st0" d="M346.2,830.5c-12.2,2.2-10.9-10.1-17.4-16.3c1.3,4.1,2.6,8.3,4.2,13.3c-4.1-1.8-8.2-1.6-9.8-5.6
		c-1.3-5.8-2.3-11.6-3.5-17.5c2.3,0.6,4.7,1.3,7.2,2c0.2-0.3,0.3-0.7,0.5-1c-7.7-4.3-17.4-8.4-18.4-18.4c-0.8-8.9,2.2-11,10.2-7.3
		C338.7,788.9,339.8,812.1,346.2,830.5z"/>
	<path class="st0" d="M314.2,163.8c-11,0.9-22.2,1.1-30.8,8.7c9.1-3,35.8-12.3,41-0.2c-34.2-11.9-73.4,19.3-68.8,55
		c-3.3,1.1-6.2,2.1-9.5,3.3c1.8-35.3,28.7-76.4,68.5-67.9C314.4,163.1,314.3,163.5,314.2,163.8z"/>
	<path class="st0" d="M367.6,256.5c-1.1,6.7-3.5,13-8.5,17.7c-19.1,18.8-47.2,31.7-73.9,21.9c2-2.6,3.9-5.1,5.9-7.7
		C316.5,295.1,356,281.1,367.6,256.5z"/>
	<path class="st0" d="M4.2,309c4.1-25.5,7.8-13,16.9,0.7c1,1.1,3.2,0.7,3.8,1c2.7,1.4,5,3.6,6.9,6.1c-1.4,6.8-8.5,13.5-15.5,15
		C8.4,332.3,4.6,315.3,4.2,309z"/>
	<path class="st0" d="M337.8,832.5c10.8,2.1,15.8,0,18.6-8.1c5.5,3.8,13.1,5.5,16.8,11.4C365.1,841.5,341.3,845.6,337.8,832.5z"/>
	<path class="st0" d="M279.2,255.5c-0.8,2.2-1.6,4.3-2.7,7.3c-6.5-11.5,2.3-15.7-4.9-27.7c5.7,3.7,7.3,8.7,8.6,14.1
		c0-1.6,0-3.1,0-4.8c8.8,8.5,8.5,24.1-0.2,31.7c-2.7-4.2-0.1-7.7,1-11.6c-0.9,0.9-1.7,1.9-2.6,2.8c-0.3-0.1-0.6-0.1-0.9-0.2
		c0.8-3.9,1.7-7.8,2.5-11.7C279.8,255.5,279.5,255.5,279.2,255.5z"/>
	<path class="st0" d="M261.7,256.7c-0.9,1.9-1.8,3.7-2.9,6.1c-1.2-1.6-2-2.8-2.2-3c1.5-5.4,2.8-10.1,4-14.5
		c5.6,2.9,7.4,7.4,6.4,17.4c0.9-2,1.9-4,3-6.5c3.8,6.7,2.9,20-6.6,20.1c-3.2-6.3-4.2-12.8-0.6-19.6
		C262.5,256.7,262.1,256.7,261.7,256.7z"/>
	<path class="st0" d="M263.1,278.2c6.4,0.8,9.7-2.2,11.5-10.4c2.9,6.6,1.5,11.1-4.3,16.6c2.1-1.3,4.2-2.6,6.1-3.8
		c2.4,9.9-10.6,16.7-17.7,10.6c0.6-1,1.2-1.9,1.7-2.7c2.2,0,4.3,0,6.4,0c-1.5-1.8-5-0.1-4.6-3.8
		C262.3,282.7,262.8,280.6,263.1,278.2z"/>
	<path class="st0" d="M31.1,325.4c1.1-1.9,2.2-3.7,3.5-5.9c5.3,8,12.1,12.9,22,12.4c-2-0.6-4.1-1.2-6.1-1.8c0-0.3,0-0.5,0-0.8
		c7.5,0,18.3-3.6,21.2,6.1C54.9,335.2,38.3,331.1,31.1,325.4z"/>
	<path class="st0" d="M304.8,452.9c0-3.7,0-7.3,0-10.9c-0.2,0-0.4-0.1-0.6-0.1c-0.6,1.8-1.1,3.7-1.7,5.5c-0.3,0-0.6,0-0.9,0
		c-1.2-7.8-2.5-15.6-3.9-24.2c7,3.8,9.4,9.1,10.7,15.8C310.5,444.3,310.3,449.1,304.8,452.9z"/>
	<path class="st0" d="M249,246.6c-0.8-1.6-1.6-3.1-2.4-4.7c11-3.9,13.6,6.1,7.9,14.4c-2.9-1.3-5.7-2.6-8.9-4.1
		c0.1-3.5-1.5-6.5-5.5-7.7C243.4,241.7,244.8,242.1,249,246.6z"/>
	<path class="st0" d="M253.5,232.1c5.8-2.7,8.8-1.1,14.6,6.3c-0.7-1.9-1.4-3.9-2.1-5.7c5.2,1,7.9,10.2,5.4,19.3
		c-4.6-4.3-7.1-8.8-7.6-15c-0.3,0.1-0.6,0.1-0.9,0.2c0.2,1.9,0.4,3.7,0.7,6.1C258.8,240.3,260.5,232.7,253.5,232.1z"/>
	<path class="st0" d="M311.3,775.6c11.7-2.9,25,8.9,28.5,19.8c3.1,11.2,8.9,23.1,9.5,34.5c-0.5,0-1,0-1.5,0
		C341.9,806.7,341,781.4,311.3,775.6z"/>
	<path class="st0" d="M249.4,257.4c5.5,3.6,6,5.8,3,10.4c1.1-0.6,2.3-1.3,4.2-2.4c0.1,2,0.9,4,0.3,5.5c-1.3,3.2-4.3,3.1-5.9,0.1
		c-2.1-5.3-4.1-10.6-8.4-14.5c2.5-1.5,3.7-1,7.1,4.1C249.6,259.2,249.5,258.4,249.4,257.4z"/>
	<path class="st0" d="M259.9,281.7c-2,4.9-7.4,6.7-10.8,2.4c-0.3-2.1,2.4-6.2,3.1-8.2c2.2-0.6,4.3-1.2,6.5-1.8
		c1.8,4.3,1.8,4.3-2.8,7.3C257.2,281.5,258.4,281.6,259.9,281.7z"/>
	<path class="st0" d="M289.5,272.1c0.7,6.5-3,11.7-9.9,13.9c-0.7-11,6.6-8.2,8.8-21.8c0.3,0.1,0.7,0.2,1,0.3
		c-1,3.9-2.1,7.8-3.3,12.5C287.5,275,288.5,273.6,289.5,272.1z"/>
	<path class="st0" d="M336.5,838c-8.4,0.2-11.7-2.7-12.8-11.2c3.2,1.3,6.4,2.7,9.9,4.1C334.4,833,335.4,835.4,336.5,838z"/>
	<path class="st0" d="M74.7,340.3c-17.3,1.2-32.1-3.4-45.8-12.8c0.8,0.1,1.7-0.1,2.3,0.3c9.9,7.2,21,10.2,33.1,10.2
		C68,338.3,71.5,337.6,74.7,340.3z"/>
	<path class="st0" d="M245.8,273.2c-1-1.8-1.4-2.6-2-3.6c5.5-2.3,7.1,12.3-0.1,10.7c0.3-1.1,0.6-2,0.9-3.1c-5.6,2.5-6.2,2-7-4.9
		C240,272.5,242.4,272.8,245.8,273.2z"/>
	<path class="st0" d="M243.9,253.1c-2,0.1-3.9,0.3-5.9,0.4c-0.9,2.5-2.2,5.9-3.4,9.3c-0.4-0.1-0.8-0.2-1.3-0.3c1-4.5,1.8-9.1,3-13.6
		C239,244.9,244.6,248,243.9,253.1z"/>
	<path class="st0" d="M240.7,270.7c-3.1,0.3-3.9-3.3-3.2-6.3c0.8-2,0.1-5.5,3.6-5.3c3.1,0.1,4.3,2.6,4.6,4.2
		C243.8,266,242.5,268,240.7,270.7z"/>
	<path class="st0" d="M272.7,294.6c-3.7,6.5-11.9,5.6-20,0.8c1.6-1,3.2-2,4.8-3C262.8,296.4,265.2,296.8,272.7,294.6z"/>
	<path class="st0" d="M251.3,235.7c-1.1-0.5-2.2-1.1-3.3-1.6c3.8-3,8.4-0.6,10.3,5.7c-6.1-2.4-11.9-2-17.9,0.6
		C242.7,235.1,246.9,235.4,251.3,235.7z"/>
	<path class="st0" d="M288.8,283.9c-2.1,6.6-6.3,10.6-12.3,12.7C276.2,288.4,283.5,287.3,288.8,283.9z"/>
	<path class="st0" d="M241.5,284.2c1.8-0.2,3.3-0.4,5-0.6c1.7,4.2,4.6,6.6,9.8,5C251.1,294.2,247.1,293,241.5,284.2z"/>
	<path class="st0" d="M392,478.9c-3.5,1.7-6.3,3-9.8,4.7c0.8-3.5,1.4-6.3,2.1-9.6C386.9,475.6,389,477,392,478.9z"/>
	<path d="M329.4,757.7c2.1,5.1,2.3,10.3,7.5,14.2c1.2-4.7,2.1-8.6,3.1-12.4c0.4,0.1,0.8,0.1,1.2,0.2c-0.7,4.1-1,8.3-2.3,12.2
		c-1,3-4.3,2.8-6.7,0.1C328.9,768,329.2,763.3,329.4,757.7z"/>
	<path d="M365.4,234.7c-2.5,2.2-5.6,3.2-2.6,7.1c-3.8-0.9-3.4-3.4-3-5.9c-4.1,0.8-2.9,3.9-3.2,6.3c-0.3,0.1-0.6,0.1-1,0.2
		c-3.5-7.2,3.3-10.4,9.6-8.9c3.3,1.8,4.1,5.7,5.9,9.3C367.1,245.8,366.2,238.1,365.4,234.7z"/>
</g>
</svg>
