<?xml version="1.0" encoding="utf-8"?>
<!-- Generator: Adobe Illustrator 26.0.0, SVG Export Plug-In . SVG Version: 6.00 Build 0)  -->
<svg version="1.1" id="Capa_1" xmlns="http://www.w3.org/2000/svg" xmlns:xlink="http://www.w3.org/1999/xlink" x="0px" y="0px"
	 viewBox="0 0 595.3 827.7" style="enable-background:new 0 0 595.3 827.7;" xml:space="preserve">
<style type="text/css">
	.st0{fill:#FFFFFF;}
</style>
<g>
	<path d="M595.1,200.3c-0.2-10.6-3.9-19.8-14.7-22.7c-22.2-4.9-41.2-26.5-65.2-17.9c-46.5,11.2-84,44.8-132.1,49.8
		c-20.2,2.8-41,2.6-59.3,11c-31.8-14.9,4.3-21.1,9.8-50.1c4.1-21.5,26.3-64.8-8.9-69.6c-4.8-37.7-30.8-82.7-74.1-78.3
		c-2.6,0.2-4.2-0.6-5.7-2.9c-16.8-24.2-51.2-26-73.7-5.6c-31.4,28.3-7.8,46.2-16.4,60.9c-26,34.1-1.9,78,25.4,103.1
		c-3.5,4.5-4.4,8.1-3.2,13.7c4.7,19.6,27.8,21,43.2,28.4c11.5,5.2,25.1,5.1,37.3,6c-2.1,2.2-5.1,4.2-6.5,7c-1.3,2.6-2.7,3.6-5.2,4.1
		c-39.6,5.5-69.1,35.8-107.2,46.1c-18.7,5.2-37.9,7.4-53.6,20.1c-15.4,11.1-31.6,21.1-47.3,32c-9.5,6.6-18.9,13.4-27.7,20.9
		c-5.8,2.8-15.6,29.9-6.4,29.7c7.3,0.3,9.1-7.5,12.4-12.4c1.2,18.2,18,12.9,24.9,29.5c7.1,8.3,9.2-8.5,15-0.4
		c37.7,50.6,77.8,99.9,114.2,151.2c1.4,16.7,2.1,33.4-3,49.7c-6.5,20.6-6.6,41.6-3,62.6s5.1,42.1,4.1,63.4c0.7,8.2-6,14.4-6.6,22.1
		c0.4,10-7.7,16.4-13.4,23.5c-9.8,11.6-18,31.9-5.2,44.3c30,25.4,67.6-12.3,62.1-45.5c-1.1-8.5,3.1-16.8,0.5-25.2
		c-1-4.5-1.9-9.5-1.1-14c4.1-29.3,16.5-56.9,16.3-86.7c-0.2-9.6,0-19.3,0-28.7c45.5,59.6,90.9,119.4,136.4,179.1
		c3.5,4.6,7.8,8.2,13.8,8.6c11.8,0.8,23.6,1.5,35.4,2.1c5.3,0.1,13.5-1.8,11-8.9c43.2-189.7,91.6-378.8,136.5-568.4
		c5.9,5.7,7.6-4.1,11.8-6.8c6.5-6,13.2-11.9,19.8-17.8C592,210.9,596.1,205.8,595.1,200.3z M196.2,364.5c-8.3,1.4-66.1,31-55.5,40.4
		c4.8,7.2,11.8,13.8,14.9,21.9c1.8,13.8,3.5,27.6,5.1,41.4c2.3,21.5,5.2,42.8,7.2,64.4C132.8,486.5,98.6,441,63.5,395
		c-10.8-14.5,10.1-27,3.4-43c22.1-4,43.6-7.9,65.7-11.6c14-2.2,25-10.5,36.3-18.1c18.7-13,39.1-20.4,60.7-27.4
		C243.2,339.2,244.3,351.1,196.2,364.5z M361,716.1c-27.3,25.5,11.3,37.7-0.3,70.8C314.1,723.6,262.2,662,219.1,597
		c2.3-39.7,8.5-78.6,14.6-117.9c11.5,3.5,22.5,3,33.7,0.8c1.4-0.3,3.3,0.5,4.5,1.4c26.6,22.5,54,44.2,78.8,68.8
		c6.7,6.5,8.1,14.4,4.3,23.1c-6.3,15.5-13.4,32.1-6.5,48.6c8.1,22.2,12.6,45.3,18.1,68.1C368.3,698.9,369,709.9,361,716.1z
		 M544.6,226.2c-45.7,188.5-91.1,377.2-136.9,565.6c-15.4-3.3,13.8-36.6,2.2-78.8c-9.7-48.9,2.8-98.2,6.5-147.1
		c0.5-4.2-0.2-8.2-2.9-11.4c-26.5-33.6-37.8-76-65.4-108.9c-3.7-5.5-13.1-9.8-8.5-17.5c2.4-7.8,2.4-7.9-4.7-12.1
		c-4.3-2.5-8.9-4.6-13.2-7.1c-14.2-7.2-13-14.7-4.8-26.7c22-31.7,54.6-75,46.3-115.6c27.9-5.8,54.4-15.1,81.5-23.5
		c6.1-2,11.9-5.7,17.3-9.4c21.7-15.5,46.2-27.3,68.9-40.7C535.7,203.8,544.7,214.3,544.6,226.2z"/>
	<path class="st0" d="M255.1,222.4c-14.2-0.6-30.9-2.7-40.5-14.1c-12-16.2-21.1-34.5-30.3-52.4c-33-63.2,77.2-124.6,116.3-69.2
		c11,17.9,33.9,53.3,30.9,73.8c-4.2,20-16.5,34.6-30.1,48.7C288.7,221.6,271.2,220.7,255.1,222.4z M310,116.9
		c-0.3-0.1-0.6-0.3-0.9-0.4c-1.9,2.3-3,6.3-6.8,4.1c0.1-2.4,0.3-4.3,0.4-7.3c-2.4,2.7-2.9,6.4-6.2,5.3c-0.7-2.5-1.2-4.6-1.7-6.7
		c-1.4,4-2.1,6.5-6.1,6.1c0.8-1,1.4-1.8,2.1-2.6c-1.8-0.2-3.4-0.5-4-0.5c-6.4,4.4-12.8,7.7-14.8,15.7c3.1-5.1,7-9.1,12.8-10.9
		c-11.2,7.4-14.5,22.6-5.2,33c15.6,18.4,43.3-2.6,32.2-23.1c1-1.7,1.9-3.2,3.3-5.5c-3.2,0.7-5.6,3.7-7.2,0.4
		C308.7,121.7,309.4,119.3,310,116.9z M203.4,170.1c-0.2,0.3-0.4,0.6-0.5,0.9c2.3,1.1,4.6,2.1,7.3,3.4c1.5,3.3-2.6,3.2-4.8,5.3
		c2.5,0.3,4.3,0.6,6.2,0.8c9.8,21.5,41.1,13.1,38.3-9.7c-1.9-14.1-16.1-21-28.8-17.3c5.2-3.4,10.8-3.6,16.6-2.8
		c-6.2-3.7-13.8-0.5-21.2,0.8c-0.6,1.1-1.4,2.5-2.4,4.2c1.3,0,2.3,0,4.3,0c-3.6,3-6.2,1.8-8.8-0.4c-0.2,0.4-0.5,0.7-0.7,1.1
		c1.4,1.8,2.8,3.5,4.2,5.3c-1.5,3.6-4.6,1.5-7.4,2.2c1.7,1.2,3.4,2.4,5.2,3.7C209.5,171.6,206.4,170.7,203.4,170.1z M292.5,172.5
		c-0.3-0.2-0.6-0.4-0.9-0.7c-8.6,12.4-21.1,17.5-35.5,19.6c3.5,1.8,7.4,0.7,11.1,3.1C283.2,200.3,292.4,187.2,292.5,172.5z
		 M299.4,99.8c-14.4-6.5-29.8,1.2-38.2,13.5c-0.5,0.5,0,1.8,0.1,2.8c2.1-0.3,3.3-1.9,4.5-3.5C274,102,286.4,98.3,299.4,99.8z
		 M194.8,155.6c3.8-9.6,10.3-16.4,20.3-19.3c4.5-1.9,10.4-0.5,14-4.1C214.7,126.7,195.4,141.7,194.8,155.6z M277.4,178.7
		c-5.7,0.4-9.6,2.1-12-3.9c3-3,6.7-2.8,10.5-2c-3.7-2.5-7.5-3.9-10.1-7.5c-0.2,0.2-0.4,0.3-0.5,0.5c0.5,1.2,0.9,2.4,1.4,3.5
		C254.2,175.2,271.9,189.3,277.4,178.7z M279.4,200.5c6.4,0.2,10.3-2.1,10.6-5.8C286.6,196.5,283,198.5,279.4,200.5z"/>
	<path class="st0" d="M271.5,475.4c26.7-4.3,44.9-20.7,61.2-41.2c25.7,29.7,42,65.4,59.8,100c3.9,7.5,8.5,14.5,14.6,20.5
		c5.2,5.1,5.8,7.8,4.2,15c-2.9-1.2-5.6-2.2-7.8-3.2c0.2,2.4,1.2,3.3,8.3,6.1c-3.5,31.7-7.9,63.5-11.1,95.2
		c-4.1,30.3,12.3,60.3,3.6,90.2c-7.3-6.7-15.2-6.6-23.5-1.9c-6.4-13.1-10.2-26.6-9.6-41.4c4,4.1,8.7,2.9,10.3-2.7
		c-0.3-0.2-0.6-0.3-0.9-0.5c-1.5,0.3-4.8,2.6-5.3,2.3c-1.3-1.5-3.1-3.8-2.8-5.4c2.4-11.2-0.5-21.8-3.3-32.4
		c-4.6-19.5-9.9-38.6-16.2-57.6c-5.3-14.9,2.4-29.5,7.5-43.3c4.7-12,2.3-22.4-7-31C327.5,519.4,299.1,498.4,271.5,475.4z"/>
	<path class="st0" d="M215.8,391.6c6.9-3.9,14-5.4,21.3-7.9c18.4-6.5,25.2-18.9,21.1-38c-2.2-13.4-12.6-22.6-18.2-34.5
		c-0.4-0.7-0.3-2.3,0.2-2.9c6-7.5,7.2-16.2,6.4-25.2c-2.1-13.6-1.5-29.5-16-36.6c7.9-1.9,15-3.6,22.3-5.4c4.4,8.9,14,9.3,21.6,12.9
		c10.1,4.7,20.9,4,31.7,3.4c19.2-2.2,56.4-2.5,52.9,25.5c-5,28.2-36.7,36.7-56.1,53.2c-10,7.2-19.6,14.9-29,22.9
		c-34.6,28.9-6,69.5,30.4,38.9c0.3,0.2,0.6,0.3,0.9,0.5c-6.8,17.6-36.6,20.2-53.2,21.2C233.5,420.6,223.5,407.1,215.8,391.6z"/>
	<path class="st0" d="M54.2,382.3c-4.2-4.5-4.3-9.9-0.6-16.1c-4.5,3.7-5.9,9.5-8,14.7c0,6.3,2.4,11.7-0.6,18.3
		c-7.4-9.3-9.9-19.1-6-30.2c-4,4-5.2,7.8-5.6,17.4c-9.3-3.5-2.2-15.3-5.4-22.6c-1.2,6.1-2.4,12.2-3.7,19.3
		c-5.8-6.6-4.6-15.6-2.7-23.3c-4.5,6.3-9.3,12.9-14,19.5c-0.4,0.6-1.1,1-2.6,1.3c0.9-19,19.6-29.7,33.9-38.9
		c15.9-10.7,31.8-21.2,47.5-32.2c15.3-12.3,33.9-17.6,53.3-16.5c-1.6-0.4-3.4-1-4.9-1.4c13.9-5.8,28.1-11.2,41.8-17.6
		c14.6-7.4,27.8-17.6,43.2-23.7c24.1-8.9,28.2,42.5,18.4,55.8c-2.1-5.2-3.7-9.3-5.7-14c2.6,0.8,4.5,1.4,6.6,2
		c-1.6-4.5-5.9-6.9-9.7-5.5c-24,8.4-47.4,16.7-68.1,32.6c0-2.1,0-3.5,0-5c-10.1,28.3-76.4,19.3-100.6,35.6
		C65.7,363.6,58,371.8,54.2,382.3z"/>
	<path class="st0" d="M333.4,222.4c31.4-6.3,64-5.9,93.9-18.3c31.1-15.8,62.1-31.8,95.9-41.3c13.9-2.2,35.7,14,50.4,18.2
		c14,3.3,17.8,7.3,17.5,22.1c-9.1-4-1.7-13.8-17.9-18c10.3,9.1,11.8,14.5,6.3,19.7c-1.5-4-3-8.3-4.5-12.5c-0.3,0.1-0.7,0.2-1,0.4
		c3.7,10.5,1.3,18.6-7.5,23.9c6.5-8.8,4.1-16.6-3-24.3c7.3,12.9,0.4,26-5.8,37.6c-7.8-4.5,0.3-13.4,0.6-19.9
		c0.8-6.8-6.3-10-10.5-14.4c5.6,6.5,0.5,12.7-0.2,18.4c-4.3-6.4-8.1-13.5-10.5-20.9c-1.4-5.6-2.5-13.6-10.6-11
		c2.3,0.9,2.7,1.3,5,2.9c-21.1,14.7-44.8,23.9-65.4,39.3c-29.8,21.1-67.6,24.3-101.7,34.9c-2.9,0.8-4.6,0.3-6.4-2.7
		C350.3,244.4,344,232.5,333.4,222.4z"/>
	<path class="st0" d="M176.8,561.7c11.5,16.6,26.5,31.8,36.2,49.3c0.6,13,1.3,26.1,1.7,39.1c1.4,29.8-15.1,56.7-15.4,86.4
		c2.3,25.8,4.9,17-7.4,41.9c-3.2,7.2-12.2-9.3-36.9-2.8c5.3-7.3,12.3-13.1,12-22.6c-0.1-2.3,0.7-4.9,1.9-6.9
		c10.3-27.1,2.4-58-0.7-86C160.4,626.4,180.2,595.4,176.8,561.7z M184,607.6c-0.1,12,18.7,11.6,17.6,1.3
		C193.5,615.5,189,615.3,184,607.6z"/>
	<path class="st0" d="M212.4,591.2c-12.1-16-24-31.5-35.9-47.5c-7.6-34.8-7.6-71.9-15.7-107.1c-0.6-4-1.1-7-1-11.4
		C251.4,523.4,229.4,410.7,212.4,591.2z"/>
	<path class="st0" d="M355.2,302c-10.6,34-32.7,60.3-50.4,90.3c-12.3,16.3-47.7,19.9-42.3-8.5C275.6,346.9,328.9,330,355.2,302z"/>
	<path class="st0" d="M201.5,386.7c-6.6,6.3-12.6,12-18.6,17.7c0.1,0.2,0.3,0.3,0.4,0.5c6.4-5,12.7-10,19.5-15.4
		c3,6.6,5.6,12.2,8.2,17.9c-12.4,9.7-23.5,20.5-30.8,35.2c-4.5-6.7-40.3-38.7-32.2-44c10.5-7.1,21-14.2,31.5-21.3
		C187.6,370.4,196.6,380.1,201.5,386.7z"/>
	<path class="st0" d="M165.5,776.1c11.2-0.2,37.4,9.5,28.9,23.7c-6.8,13.6-18.2,26.8-35.1,21.6c-22.9-2-19.9-26.3-7.3-42.1
		C155.1,776,161.9,777,165.5,776.1z"/>
	<path class="st0" d="M554.2,206.7c-42.5,197-94.5,392.3-140.5,588.6c-3-0.5-2.1-2.5-1.7-4.1c47.2-194.8,94.2-389.6,141.3-584.4
		C553.6,206.7,553.9,206.7,554.2,206.7z"/>
	<path class="st0" d="M49.8,382.7C155.3,522.1,260.4,661,365.5,799.9c-0.3,0.3-0.5,0.6-0.8,0.8C259.8,662.8,145.9,524.4,49.8,382.7z
		"/>
	<path class="st0" d="M251.8,433.5c-0.6,13.7-1.1,27.2-1.7,41c-13.7,1.3-26.5-3.9-38.8-9.4c-8.4-3.2,11.9-32.7,14.4-39.1
		c4.2,1.9,8.3,3.8,12.5,5.7c-1.9,7.1-3.8,14.3-5.7,21.4c0.6,0.2,1.1,0.3,1.7,0.5c1.9-7.1,3.9-14.3,5.9-21.6
		C244.2,432.5,247.9,433,251.8,433.5z"/>
	<path class="st0" d="M390.2,788.8c4.5-0.3,7.6,1.7,10.8,4.9c3.2,3.4,9.2,3.7,11.3,8.4c-1.1,0.6-2.2,1.7-3.3,1.6
		c-9.9-0.2-19.9-0.2-29.9-0.8c-9.2-0.6-9.3-0.5-13.3-8.8c-0.5-1.1-0.3-2.6-0.2-3.9c1.1-6.8,0.7-14.6,2.9-21
		c8.5-6.2,18.2-17.8,29.6-11.3c4.3,2.4,5.2,5.3,3.7,10c-1.9,6-3.4,12.1-5.3,18.1C395.4,788.2,392.5,788.3,390.2,788.8z"/>
	<path class="st0" d="M183.3,48.8c-2.9,2-5.5,3.7-8.4,5.7c-8.6-10.3-12.7-29.1,1.3-36.4c0.2,2.4,0.5,4.5,0.7,6.6
		c1.1-12.9,14.1-15,24.5-18.4c11.1-1.5,21.1,11.2,24.2,21.3c-3,1.2-5.9,2.3-8.9,3.6c-3.8-8.8-9.5-15.2-18.6-18.7
		c6,5.2,15.3,12,14.2,20.5c-4.2,3.8-4.8,0.1-8.4-1.8c0.6,1.5,1.3,3,1.9,4.5c-8.8,8.9-13.2-7.7-17.1-13.1c1,6.4,2.9,12.9,8,18.2
		c-1.2,0.8-2.4,1.5-3.7,2.4c-1-1.5-2-2.9-3.4-4.8c-0.2,3,2.4,5.7-1.3,7.7c-6.2,3.5-7.6-6.6-10.3-10
		C177.6,40.6,179.7,44.8,183.3,48.8z"/>
	<path class="st0" d="M214.1,388.2c-4.1-6.8-8.7-13.8-17.8-17.6c24.9-8.6,50.5-13.5,47.3-46.1c12.9,12.3,19.7,44-0.6,52.9
		C233.4,381.6,224,384.4,214.1,388.2z"/>
	<path class="st0" d="M252.6,433.8c6.5-0.8,12.2-1.4,18.4-2.2c0.9,2.6,1.8,5.6,2.8,8.5c0.2,0,0.4-0.1,0.7-0.1
		c-0.5-3.7-4.1-10.4,2.7-10c4.1,11.9,8.2,24,12.4,36.3c-11.1,5.1-22.6,8.1-34.7,8.3C250.1,474.8,253.6,439.8,252.6,433.8z"/>
	<path class="st0" d="M207.5,38.9c10.2-3.3,18.7-9.1,28.5-10.2c13.5,2.9,22.2,11.1,25.9,24.4c1.2,5.4,1.4,8.6-5.1,8.3
		c-4.5,0.1-8.1,0.5-12.8,1.4c-0.4-7.2-4.5-12.4-10-16.7c3.1,4.4,4.8,9.5,7,14.5c1.2,5.2-7.5,4.2-11.1,6.3
		C228.2,53.3,220.6,44.6,207.5,38.9z"/>
	<path class="st0" d="M322.6,441.9c-9,10.2-19,17.6-30.4,23.2c-4.6-12-9.2-23.8-13.8-35.6c4.2-1.7,8.4-3.4,12.9-5.2
		c2.7,4.4,4,10.2,8.9,12.8c0.7-1.1,1.4-2.3,2-3.4c-0.2-0.2-0.5-0.3-0.7-0.5c-0.4,0.6-0.8,1.2-1.6,2.3c-2.2-4.4-4.1-8.3-6.2-12.5
		c2.6-1.6,5.1-3.2,8.2-5.1C308.8,426,315.7,433.9,322.6,441.9z"/>
	<path class="st0" d="M205.9,462.5c-8.5-6.4-16.7-12.5-25-18.7c9-13.1,19-24.4,31-33.7c4.2,5,8.2,9.9,12.5,15.1
		C217.9,436.7,209.8,448,205.9,462.5z"/>
	<path class="st0" d="M204.8,80.2c-2.6-3.4-5.2-6.7-7.8-10c-0.2,0.1-0.4,0.3-0.6,0.4c7.1,13.2,6.6,10.6-4.1,20.2
		c-7.8-5.1-21.2-28.7-11.7-35.8c5.5-2.3,10.7-9.6,16.9-8c8.5,5.9,14.4,13.7,16.8,23.9C215.7,76,207.6,77.3,204.8,80.2z"/>
	<path class="st0" d="M293,72.4c-4.5-2.7-8.3-5-12.3-7.3c2.5-10.6-4.7-17.3-10.2-24.7c3.3,7.5,10,14,7.3,23.6
		c-4.3-0.9-8.4-1.8-12.5-2.7c-0.3-17.8-9-29.1-26.2-34.1c17.9-2.1,40.2-0.4,48.1,18.5C291.5,53.8,294.3,62.5,293,72.4z"/>
	<path class="st0" d="M356.2,261.6c-20.8-14.8-45.3-5.5-68.1-8.3c14.8-2.6,30.5-10.5,34.9-25.8c0.7-3.3,7.7-4.1,9.6-2.5
		C341.7,236.3,348.7,249.2,356.2,261.6z"/>
	<path class="st0" d="M189.1,373.5c8.5-6.2,14.4,6.3,19.5,11.3c11,20.7,22.3,41.2,49.4,37.8c17.7-1.1,35.4-6,49.2-17.4
		c-15.3,27-73,35.7-90,5.9C208.7,398.1,205.9,378.6,189.1,373.5z"/>
	<path class="st0" d="M165,68c1.2,3.8,2.4,7.8,3.7,11.7c0.4-0.1,0.7-0.1,1.1-0.2c-2.2-8-3.1-15.7,5.7-20.9
		c0.5,13.5,5.3,24.8,14.3,33.9c-4.3,6.8-8.6,13.7-13,20.8C164.2,107.4,155.8,75,165,68z"/>
	<path class="st0" d="M260.3,230.9c13.7,15.4,43.3,4,54.7-9.4c19.5,8.3-23.9,38.3-49.7,25.1C257.5,243.9,251.8,237.5,260.3,230.9z"
		/>
	<path class="st0" d="M161.3,137.9c10.7,19.2,16,6,20.9,21.6c-3.2-0.7-6-1.4-8.9-2c-0.1,0.2-0.2,0.4-0.3,0.6
		c11.8,4.5,13.2,8.4,18.6,19.1c-26.2-8.7-50.2-61.9-39.6-85.7c1.3,16.4,5.5,34.9,19.2,46.1c4.7,3.4,4.9,3.7,5.7,10
		C170.3,146.6,165.4,143,161.3,137.9z"/>
	<path class="st0" d="M310.1,409c23.5,14.9,33.6,8.1,14.5,31.7c-7.3-8-14.3-15.7-21.3-23.4C305.5,414.6,308,411.6,310.1,409z"/>
	<path class="st0" d="M159,77.7c0.1,13,3.7,24.4,11.8,33.7c9.6,5.4,2.1,16.1,3.8,24.7C158.6,125.8,149.8,96,159,77.7z"/>
	<path class="st0" d="M304.9,209.3c0.3,6.2,0.5,11,0.8,16.3c-10.8,7.4-23.3,9.3-37,8.2c0.2-3.5,0.3-6.5,0.5-9.5
		C282.1,221.7,295.9,222.5,304.9,209.3z"/>
	<path class="st0" d="M217.6,72.3c-2.5-12.5-9.7-21.3-20.8-27.6c4-1.5,7.4-5.6,11.4-4c9.7,5.1,16,12.9,18.6,23.6
		C228.5,70,221.4,69.7,217.6,72.3z"/>
	<path class="st0" d="M285.1,37.9c15.3,10.1,29.8,29.2,19.6,47.8c-3.1-4.3-7.8-7.4-9.3-12C298.1,60.2,292.6,48.6,285.1,37.9z"/>
	<path class="st0" d="M211.5,211.2c-7-2.8-13.1-4.9-18.9-7.7c-12.8-3.5-16.4-31.5,1.1-18.1c-4.7,2.7-8.9,2.9-6.6,9.5
		C195.5,178.3,205.8,203.7,211.5,211.2z"/>
	<path class="st0" d="M335.5,117.8c-3.9-6.7-6.7-6.7-11.5-0.9c-4.4-18.5,16.5-8.8,15.1,3.6c-0.5,8-2.1,16-3.3,24
		c-0.4,0-0.9,0-1.3-0.1c-2.8-6.5-6-12.8-8.1-19.5c-0.7-2.4,0.8-5.9,2.2-8.4C330.4,113.3,332.7,116.2,335.5,117.8z"/>
	<path class="st0" d="M364.4,720.7c-5.2,20.6,11.9,45.3,4,46.9C363.3,752.2,348.8,735,364.4,720.7z"/>
	<path class="st0" d="M171.5,56.9c-2.8,2.7-6.3,5.9-10,9.4c-3.1-11.9-2.5-23.2,2.9-34.8C164.6,41.5,166.4,48.4,171.5,56.9z"/>
	<path class="st0" d="M311.3,87.1c-0.6,2-1.1,4.1-2,7c-1.6-2.6-2.8-4.5-4-6.4c0.3,0.1,0.6,0.2,0.9,0.2c1.6-4.8,3.3-9.6,4.9-14.4
		c4.4,11.7,8.6,23.8,7,37.3c-5.1-10.2-8.5-11.7-5.5-23.6C312.3,87.2,311.8,87.1,311.3,87.1z"/>
	<path class="st0" d="M242.5,23.3c-2.6,0.4-4.8,0.8-7,1.2c-1.6-2.6-3-5.1-4.8-8.1c-0.8,3.8,5.6,8.5-2.5,10.1
		c-1.4-9.6-8.2-14.8-15.7-19.5C219.8,5.5,235.3,13.9,242.5,23.3z"/>
	<path class="st0" d="M373.5,762.3c-8-24-9.8-41.9-4-47.5C365.4,741.9,384.1,757.8,373.5,762.3z"/>
	<path class="st0" d="M199.3,772.5c2.2,5.8-2,8.5-5.1,12.1c-1.1-0.9-2-1.7-2.7-2.2C194.2,779,196.7,775.8,199.3,772.5z"/>
	<path class="st0" d="M198.9,791c-1.5-2.2-2.3-3.4-3.4-5c1.1-1,2.2-2,4.2-3.8C199.4,785.4,199.2,787.7,198.9,791z"/>
	<path class="st0" d="M294,156.6c-22.2-1.2-20.8-33.7,0.9-33.5C316.8,124.4,316.1,156.7,294,156.6z M295.3,128.8
		c-15.4-0.2-15.5,23.3-0.2,23.4C310.5,152.3,310.6,129.1,295.3,128.8z"/>
	<path class="st0" d="M213.8,173.4c0.5-22,32.8-21.8,33.4,0C246.9,195.4,214.2,195.5,213.8,173.4z M231.1,162.5
		c-15.4,0.1-15.5,23.2,0,23.5C246.3,185.9,246.6,162.5,231.1,162.5z"/>
	<path class="st0" d="M269.3,192.3c6-3.3,12.7-6.9,18.8-10.3C287,189.6,278.2,194.5,269.3,192.3z"/>
	<path class="st0" d="M295.2,150.5c-13.2-0.3-13.1-19.7,0-20C308.1,130.9,308.1,150.2,295.2,150.5z M300.6,140.9
		c0.4-7.5-11.1-7.7-11.3-0.4C288.9,147.7,300.5,148.4,300.6,140.9z"/>
	<path class="st0" d="M241.1,174.2c-0.1,12.8-19.6,13-19.9,0.1C221.1,161.2,241,161.1,241.1,174.2z M231,180.1
		c7.5,0,7.1-11.5-0.1-11.4C223.5,168.7,223.5,180.1,231,180.1z"/>
	<path class="st0" d="M294.3,135.6c1.2,1,1.9,1.7,2.6,2.3c-2.1,1.4-3.8,3.5-5.8,0.6C292.1,137.6,293.1,136.7,294.3,135.6z"/>
	<path class="st0" d="M233.2,172.2c-2.2,0.9-4.2,2.5-6.1,0.1c2.1-1.6,3.5-3.4,6.1-1.3C233.2,171.5,233.2,171.8,233.2,172.2z"/>
</g>
</svg>
