<?xml version="1.0" encoding="utf-8"?>
<!-- Generator: Adobe Illustrator 26.0.0, SVG Export Plug-In . SVG Version: 6.00 Build 0)  -->
<svg version="1.1" id="Capa_1" xmlns="http://www.w3.org/2000/svg" xmlns:xlink="http://www.w3.org/1999/xlink" x="0px" y="0px"
	 viewBox="0 0 595.3 567.9" style="enable-background:new 0 0 595.3 567.9;" xml:space="preserve">
<style type="text/css">
	.st0{fill:#FFFFFF;}
</style>
<g>
	<path d="M54.7,231c-12.7,1.7-13.5-1.8-18.5-12.3c-13,2.2-21.8-9.2-22.8-21.1c-2-18.6,9.7-38.7,29.5-40.4
		c12.9-1.8,24.9,3.3,36.9,7.1c-0.2-2-4.2-9.3,0.5-7.9c6.5,5.3,15.7-3.8,20.3-8.2c10.5-10.9,21-21.8,30.9-33.2
		c1.1-1.2,1.5-2.4,1.5-4.1c-0.4-7.7,0.9-15.2,4-22.4c5.9-14.6,19.4-23.1,34.3-26.5c1.6-0.4,2.6-1,3.2-2.7c3.2-9.2,14.5-18.5,24-11.6
		c10.1-5.8,16.2-15.3,22.3-24.8c7.9-11.5,21.1-29.1,36.9-21c1.7,0.9,2.7,2.4,3.7,4c0.8,1.6-0.9,3.5-0.2,5.3c0,0.2-1.2,1-1.7,0.8
		c-3.2-0.6-5.6,0.8-7.7,2.8c-5.8,5.9-2.8,16.3,3.4,20.8c9.5,6.9,21.9,8.2,31.9,14.2c1.9,1,3.6,1.1,5.7,0.7
		c8.3-1.9,16.6-3.8,24.9-5.5c13.9-2.8,30.1-1.6,40.2,9.6c12.4,13.1,14.2,27.4,7,43.8c8.8,4.9,18.2,8.4,27.2,12.8
		c8.3,3.1,24.4,13.7,32.8,10.1c5.7-2.3,1.2,7.1,0.8,9.5c1.8,0.2,3.5-1.7,4.8-2.8c0.7-0.7,1.3-1.5,2.4-1.1c1.1,0.5,1,1.5,1,2.5
		c0.1,5.9-1.9,10.9-4.8,16c3.6-0.5,5.2-4.4,6.8-3.4c2.1,0.4-0.2,11.1-0.2,13.2c-2.2,24.9-18.8,44.3-34.1,62.7
		c-1.8,2.3-3.6,4.7-4.8,7.5c6.9,3.9,13.7,7.7,20.8,11.6c38.7-27.1,96.3-35.5,134.6-3.3c21.4,17.7,40.2,41.7,42.8,70.3
		c5.5,63.2-56.8,91.8-100.7,45.7c-9.4,34.5-29.7,65.2-55.8,89.3c-17.7,15.8-40.4,23.8-63.5,27.7c-2.6,0.5-2.6,0.5-2.8,3.2
		c-0.8,24-4.1,47.9-10,71.2c-1.7,11-7.8,20.2-19,23.1c-10.1,3.7-20.5,2.2-30.9,2.6c-8.8,1.5-18.3,1.5-26.2-3.3c-1-0.6-2-0.9-3.1-1
		c-8.6,0.5-13.3-7.4-11.8-16.3c1-6.2,4-11.6,8.4-16c1.8-2.3,7.4-2.2,6-6c-4.4-11.7-22.9-21.1-32.8-28.6c-0.7-0.5-1.8-0.6-2.7-0.6
		c-7.6,0.6-15,1.4-22.7,2.2c1.8,11,2.5,22.6-2.5,33.1c-3.5,9.7-14.7,9.4-23.2,11c-7.4,1-14.8,2-22.3,2.7c-3.7,0.2-7.7,0.2-11.4-0.4
		c-5.3-2.5-11.1,0.6-16.6-0.9c-9.3-1.8-14.8-11.2-12-20.4c2.6-8.5,9.4-13.8,17.1-17.5c-3.1-2.4-6.9-3.8-10.4-5.7
		c-6.6-2.9-14.1-3.1-21.1-5c-29.9-5.5-58.1-17.9-79.6-39.9c-29-31.4-47.4-73.7-45.5-116.8c0.2-24,12.1-44.9,22.1-65.9
		c2.9-6.9,7.8-12.3,11.9-18.2C40,245.1,46.7,237.6,54.7,231z"/>
	<path class="st0" d="M121.8,261.6c47.2-0.1,89.5,10.1,132.6,26.2c1.6,0.6,2.2,1.4,2.5,3c4.3,27.7-2.1,55.5-13,81
		c-20.7,54.9-77.8,85.7-134.6,87.1c-23.7-0.7-48.3-6.1-68-19.8C6.7,409.4-6.2,346.5,10.4,304.6c2.1-5.3,4.7-10.4,7.1-15.7
		c0.7-1.7,1.9-2.8,3.4-3.8C50.1,266.5,88.4,262,121.8,261.6z"/>
	<path class="st0" d="M268.6,385.7c28.9,18.1,62,0.2,90-11.1c0.8-0.4,1.6-0.6,2.5,0.2c-0.9,1.5-1.9,2.6-3.7,3.3
		c-11.4,4-22.6,8.7-33.4,14.1c-13.8,7.7-25.4,18.8-40.3,24.6c0.1,1.4,1,1.2,1.8,1.3c21.5,2.2,45.9-16.4,64.9-25.7
		c0.1,1.7,0.2,3.3,0.4,4.9c-18.3,7-22.8,13-35.4,27.2c-0.5,0.5-1.4,1.2-0.7,2c0.7,0.8,1.5,0,2.1-0.3c13.6-6.5,27-13.3,40.8-19.2
		c3.4-1.8,3.3,0.6,3.6,3.5c-15,5.7-27.5,15.8-39.8,25.9c0.7,1.3,1.7,0.9,2.5,0.8c13.8-1.5,26.4-7.7,39.6-11.7
		c1.1,2,3.7,17.3,3.7,20.8c-18,8.7-32.7,23.1-50.9,31.5c0.3,1.2,1.2,1,2,1c19.9,0.3,32.7-13.4,50.3-19.3c0.4,2.5,0.5,4.8,0,7.2
		c-0.1,0.5-1.2,0.9-1.9,1c-4.4,0.9-8.6,2.4-12.6,4.4c-4.7,2.4-8.7,5.5-12.5,9.1c-6.8,6.8-14.8,11.7-23,16.5c5.6,5.1,18,2.1,23.3-2.7
		c8.3-6.7,16.6-13.2,26.4-17.7c0.2,12.2-0.3,39.4-10.6,46.9c1.7-3.6,3.6-7.1,4.1-11.6c-11.6,1.8-19.4,12.7-31.4,12.4
		c-0.5,0-1,0.2-1.9,0.5c3.2,3,7.4,2.5,11.1,4.3c-16.7,1.3-33.7-0.7-50.4-1.8c-0.9-15.9-19.7-23.4-30.6-32.2
		c-2.6-1.3-4.5-4.3-7.7-3.8c-72.3,5.7-163,12.9-212.7-50.9c34.3,22.8,78.3,25.3,117,13.1C225.5,436.2,269,360,259.9,289.9
		c34.1,13.7,63.3,36.5,91.2,60c-24.8,3.2-50.4-11.7-74.3-1.5c14.2,18.6,47,12,67.6,12.7c0.7,2.2,0.8,2.3-0.9,3.1
		c-17.3,9.2-36.4,11.8-55.6,14c-6.5,1.7-12.9,4.2-19.2,6.7C268.6,385.1,268.6,385.4,268.6,385.7z M331.2,511.9c0,0.2,0,0.4,0,0.7
		c9.2,2.2,21.1,1.7,27.1-6.7c3.3-4.7,6.6-9.3,7.9-15c-7.3,2.4-12.4,8.2-18.5,12.6C342.8,507.6,337.1,509.7,331.2,511.9z"/>
	<path class="st0" d="M34.7,258.3c30.8-45.6,88-64.3,140.9-66.7c52.7-2.3,101.7,19.8,151.3,34.3c12.2,3,24.5-0.5,36.6-2.4
		c20.1-3.3,38.2,7.9,54.6,18.1c-24.5,17.6-42,39.9-40.1,71.5c0,0.8,0.1,1.6-0.2,2.3c-3.8,8.7-5.7,17.7-8.7,26.7
		c-62.3-65.6-150-100.3-240.1-99.2c-31.9-0.8-65.4-0.1-94.1,15.6C34.9,258.5,34.8,258.4,34.7,258.3z"/>
	<path class="st0" d="M136.9,192.9c9-16.2,22.7-27.7,37.7-38c-16.8,7.3-30.9,20.4-38.6,37.2c-0.4,0.9-0.9,1.3-1.9,1.5
		c-8.2,1.4-16.1,4-23.8,6.8c-3.2,1.3-4.6-1.2-7.1-2.9c2.1-0.5,8.9-2.4,9.1-4.5c0.1-0.9-0.9-0.9-1.6-1c-5-1-9.7-2.4-13.3-6.4
		c5.1-1.3,9.5-3.3,12.5-7.7c0.6-0.7,1.3-1.9,0.9-2.7c-2.4-1.2-6,0.8-8.8,0c5.7-5.8,6-10.6,8.2-18c8.2-26.6,31.4-35.4,56.6-25.8
		c9,2.8,18.2,0.9,27.1-0.9c13.8-3.1,18-18.7,23.5-29.9c2.8-6.8,5.4-13.6,6.9-20.8c2.3-9.3,9.9,4.4,10.9,8c2.3,6.3,4,13,7.9,18.6
		c8.7,13.2,32,17.3,45.6,10.1c32.8-18.1,46.4-20,78,2c-4.2,2.9-8.9,0.3-9,2.1c-0.1,0.5,0.5,1.3,0.9,1.7c6.9,6.7,15.5,9.9,24,13.5
		c-3.9,3.9-9.3,2.1-14.1,3c1.1,5.7,12.2,8,17.2,9.5c-6.8,6.3-17.1,3.7-13.5,7.6c2.6,3,5.7,4.9,9.6,6.1c-4,3.7-9.6,4.3-14.8,4
		c-0.9-0.1-2.2-0.7-2.6,0.4c0.3,4.5,4.9,8.7,9,10.8c-5.9,5.2-14.6,2.9-20.8,7.3c-19.8,14.9-43.8,23.5-68.6,22.9
		c-2.9,0-5.7-0.4-8.4-1.3c-11.1-3.6-22.6-6.2-33.5-10.3c6.9-2.8,13.6-5.8,19.6-10.2c-8.3,2.9-18.9,9.4-27.7,8.6
		c-8.2-2-17-1.9-24.7-5.5c0,0.1,0.1,0.5,0.3,1.3C185.2,187.1,161.1,188.7,136.9,192.9z M293.6,137.3c-10.4,7.7-20.3,15.1-32.5,18.9
		c-8.6,2.6-17.4,3.4-26.4,3.4c-6.4,0-9-4.3-10.4-9.1c-1,3.1,0.1,5.9,1.5,8.5c-0.4,0.2-0.6,0.4-0.8,0.5c-3.3,0.7-6.5,1.3-9.8,1.9
		c-9.8,2.4-21.2,2.7-28.3-5.5c0.3-0.9,0.5-1.7,0.9-3c-2.4,1-4.3,1.9-6.6,2.9c1.7,0.9,2.5,1,3.8,1.9c9.7,8.8,19.2,17.9,29.1,26.5
		c13.1,11.9,31,3.7,44.4-3.3c16.1-9.6,28.1-24.7,36.7-41.1c0.9,0.2,1.7,0.4,2.4,0.6c0.1-0.6,0.1-1,0.2-1.7
		c18.8,7.7,33.7,19.5,42.6,38c-5.1-19.1-22.6-32.7-40.8-38.7c-2.2-0.7-3.9-1.5-4.6-3.9c0-0.1-0.3-0.1-0.5-0.2
		c-0.3,0.7-0.6,1.4-1,2.2c-0.8-0.1-1.7-0.2-2.9-0.3C291.8,136.4,292.5,136.7,293.6,137.3z M361.9,142.7
		c-14-11.2-57.6-17.3-72.3-11.2C314.9,129.5,338.9,132.8,361.9,142.7z M178.7,147.8c-23.3,1.1-48.4,9.2-64.2,26.9
		C133.4,159.5,155.3,151.8,178.7,147.8z M235.2,134.3c-5.1-2.7-16.3-1.2-20.3,2.9c2.4,1.3,9.4,7.9,11.2,5.5
		C229.3,139.7,232.1,137.7,235.2,134.3z M341.8,117.1c-11.8-5.1-45.7,0.1-55.6,8.5C304.2,118.9,322.6,115.7,341.8,117.1z
		 M181.4,142.8c-18-7.6-39.7-5.3-56.4,4.5C143.4,140.5,162.1,138,181.4,142.8z"/>
	<path class="st0" d="M393.4,224.1c-25.4-8.9-32.6-1.1-56.4-0.2c-4.9,0-9.6-0.8-14.3-2.4c-11.5-4.2-23.7-7-34.9-12
		c24.1-0.6,47-8.9,66.1-23.4c7.7-4.6,15.8-1.6,23.4-9.2c-0.2-1.3-1.1-1.4-1.8-1.5c-3.4-0.9-7.2-3.8-8-7.1c5.9-0.1,11.8-1.1,16.5-5
		c0.8-0.6,1.9-1.9,1.9-2.7c-0.2-1-1.3-0.6-2-0.6c-3.5-0.2-6.3-1.9-9-4.4c3.9-0.9,14-4.3,14.8-8.5c-1-1.1-3.3-0.7-4.7-1.1
		c-4.5-0.8-8.6-1.9-12.3-4.8c5.8-0.3,10.6-1.6,14-6c-0.6-1.4-1.6-1.3-2.5-1.5c-8.1-2-15.7-5.5-21.9-11.1c1.5-0.6,11-2.8,7.4-5
		c-10.7-6.1-20.8-14-33.2-16.3c-12.9-2.3-25.6,1.8-37.1,7.4c2.4-14.6,3.7-28.8-10.5-37.8c-23.7-12-39.5,14.5-28.1,35.3
		c1.1,2.3,2.5,4.4,3.8,6.6c2.9,4.1,11.6,4,16.3,4.1c0,0.2,0.1,0.4,0.1,0.5c-9.6,2.5-20.2-0.3-28.8-4.8
		c-14.1-7.9-10.8-28.2-23.3-37.2c-3.1-2.1-5.9,0.7-6.4,3.9c-1.7,8.7-4.9,16.8-8.5,24.8c-5.2,10.4-9.7,24.6-23.4,25.3
		c12.3-9,23.1-35.9,10.4-48.1c-3.7-3.6-8.1-4.7-13-3.2c-16.8,5.2-21.3,25-18.8,40.6c0.8,6.2,2.8,8.4,7.2,12.6
		c-6.6-0.6-12.3-2.6-18.6-4.1c-23-6.8-45.6,10.3-50.3,32.8c-1.3,5.4-2.8,11.4-8,14.3c-4.6,3.1,6.3,3.8,8.2,3.6
		c-3.3,3.4-6.8,5.2-11.4,5.9c-0.6,0.1-1.8,0.5-1.8,0.8c1.3,5.5,8.5,7.8,13.3,9.5c-1.8,1.3-3.7,1.3-5.5,1.5c-0.9,0.1-2.1-0.6-2.6,0.5
		c-0.6,1.4,0.8,1.9,1.5,2.7c1.2,1.2,2.6,2.3,4.1,3.6c-4.4,2.5-9.3,3.7-13.8,5.8c-1.2,0.5-2,0.4-3-0.4c-4.1-3.2-7.6-7.1-8.6-12.5
		c2.9,1.1,5.5,1.5,8.5,2.1c2.3,0.5,3.4-1.9,1.4-3.3c-2.1-2.2-4.3-4.3-6.1-6.7c-2.2-3.2-4.2-6-5.2-9.9c2.5,0.1,17.9-0.2,12-4.9
		c-3.1-2.6-7.2-7.2-7.6-11.3c16.6,0.1,34.3-26.6,45.8-37.8C140,109.6,152.1,96.2,163,82c8.2-12.2,21-19.8,32.7-28.2
		c1.1-0.9,3-1.1,4-2c0.9-1.7,2-1.1,3.2-0.5c12.7,7,28.1,9.9,41.6,3.1c4.6-2.2,9.1-4.5,13.9-6.3c10.4-3.9,7.2-3.7,16.7,0
		c13,5.1,24.9,12.2,36.5,19.7c23.5,14.5,45.3,32.2,71,42.9c7.8,3.3,15.4,6.9,23.1,10.4c5.8,2.7,11.9,4.8,18.5,4.3
		c-0.2,4.6-6.1,6.6-5,8.7c1.2,2.5,9.1-0.2,11.3-1.4c-0.3,5.2-2.8,9.7-6.1,13.6c-0.7,0.8-1.8,1.5-1.1,2.8c0.8,2.3,7.9-1,10-1.3
		C432.8,180.4,411,199.6,393.4,224.1z M298.9,77.9c0.3-0.1,0.5-0.2,0.8-0.3c-0.9-7.2-6.3-17.8-14-19.2c-4.1-1.3-20.7,1.5-16.8,7.9
		c1.8,2.4,4.4-0.2,6.4-0.9C286,59.8,293.5,69.9,298.9,77.9z"/>
	<path class="st0" d="M21.5,280.3c2.2-4.4,4.4-8.8,7.4-12.7c19.6-17.2,47.9-20,73-21.4c95.3-5.2,192.6,23.2,259.8,93.3
		c1.9,1.8,3.7,3.7,5.6,5.5c0.6,0.6,1.2,1.1,0.7,2.1c-0.4,0.9-1.1,0.7-1.8,0.8c-3.1,0.3-6.2,0.5-9.2,1.1c-1.4,0.3-2.2-0.1-3.2-0.9
		c-30.5-25.7-62.8-50.7-100.8-64c-72.6-26.6-159.9-40.3-231.2-3.3C21.7,280.5,21.6,280.4,21.5,280.3z"/>
	<path class="st0" d="M371.2,347.7c8-32.9,19.8-52.7,54-61.7c-8.5-1-24,4.3-32.1,10.8c4.6-17.1,24-34.8,39.6-42.4
		c1.8-0.8,2.9-0.8,4.4,0.6c13.2,11.8,25.9,27.8,26.2,46.1c-2-4.4-5-8.4-9.5-10.5c-4.1-1.7-9.9-3.3-14.3-2.1c-0.2,1.3,0.8,1.5,1.5,2
		c4.4,3,8.5,6.4,11.8,10.7c3.9,5.3,7.6,11.2,9.3,17.6c-0.6,2.8-1.4,5.6-3,8.7c-3.1-10.9-10.1-21.3-21.9-23.5
		c-8.4-1.8-16.7-1.6-25,0.9c-0.9,0.3-2.1,0.2-2.4,1.9c17.8,3.3,37.3,14.2,40.7,33.4c0.2,0.9,0.1,1.7-0.5,2.4
		c-2.7,3.1-4.8,6.8-7.9,9.5c-1.8-11.5-6.2-21.1-17.9-25.1c-3.9-1.5-15-4.5-18.5-2.1c12.5,8.2,23.2,16.9,24.8,32.7
		c2,7.6-1.8,9-6.7,14.2c2.7-15.4-12.4-27.1-26.7-27.2c-4.4,0.1-8.9,0.8-13.3,1C379.5,346.2,375.9,347.1,371.2,347.7z"/>
	<path class="st0" d="M589.8,292.7c8.9,32.1-7.3,76.1-45.1,76.7c-18.4,1-35.1-7.3-46.7-21.4C531.8,334.2,561.6,316,589.8,292.7z"/>
	<path class="st0" d="M372.7,420.4c10-3.1,17.4-11.8,18.3-22.1c-4.2,7.6-9.8,14.6-17.8,18.4c-5.6,2.4-11.5-5.2-6.9-9.7
		c5.6-6.2,13.5-12.2,14.4-21.1c-6,6.1-11.8,12-17.8,18.3c-17.1-6.7-6.7-18.8,1.5-28.2c3-3.6-2-4.4-4.6-5.1c-2.5-0.9-5-1.6-7.3-2.8
		c-5.1-2.3-7-10.2-2.1-13.6c4.9-2.5,10.5-3.3,15.9-3.5c11.1,0.3,23.1-6.5,32.7,1.7c2.6,2,5.2,4,7.6,6.1c6.4,6.1,11.1,16.7,6,24.9
		c-9.3,14.1-16.4,32.9-34.5,37.1C376.3,421.3,374.5,421.3,372.7,420.4z"/>
	<path class="st0" d="M83.2,193c-1.6-0.5-5.4-3.6-6.6-2.5c-1.6,1.4-0.2,4.4,0.1,6.1c1.1,2.3-3.2,6-4.6,7.9c-1.2,1.7-7.2,4.1-8,1.1
		c-0.3-2.2-1.6-4-2.9-5.7c-2.6-2.8-4.9-6.2-7.9-8.6c-1.7-0.5-2.3,0.5-2,2c2.5,3.1,5.4,6.1,7.9,9.2c3.6,5,2.4,12.7,2.3,18.6
		c-0.2,2.6-1.5,4.2-3.8,5.2c-4.7,1.8-11.5,4-14.8-1.2c-1.5-2.4-2.8-4.8-3.5-7.5c-1.9-8-4-16-6-24.1c-0.4-1.7-1-2.4-2-2.2
		c-1.1,0.2-1.5,1.1-1.1,2.9c1.7,7,3.2,13.9,5,20.9C7.5,220.4,8.9,157.9,49.3,160c10.7,0.3,20.7,4.3,30.6,7.9c3,1.1,4.3,2.4,6.2,5.7
		c-3.1,1-6.3,0.5-9.4,0.3c-1.5,0-2.2,0.5-1.9,2c0.4,2.1,1,4.2,1.8,6.2c1.5,4,4.3,7.2,7,10.4C83.4,192.7,83.3,192.8,83.2,193z"/>
	<path class="st0" d="M500.8,318.1c0.6-36-12-78.8-47-95.2c16.2-5.8,33.8-7.5,50.9-5.9c1.8,0.1,2.8,0.9,3.5,2.6
		c13.8,31.7,11,69.3-7.1,98.6C501.1,318.1,501,318.1,500.8,318.1z"/>
	<path class="st0" d="M362.7,524.7c-1.4,7.1-3.2,14.1-4.8,21.1c-4.4,18.1-26.7,19.2-42,17.7c-9.6,1.2-20.1,3-28.7-2.8
		c-0.9-0.5-1.7-1.1-2.9-0.9c-15.4,0.8-10.7-18.9-3.5-26c1.6-1.9,3.6-2.8,6.3-2.6c21.6,0,58.4,9.2,75-6.7
		C362.4,524.5,362.6,524.6,362.7,524.7z"/>
	<path class="st0" d="M498.6,318.9c-14-25.5-30.3-52.2-57-65.9c-7.4-3.8-13.9-9-20.6-14c5.9-4.9,24.9-16.5,32.1-14.6
		c34.5,15.9,47.2,59,46,94.5C498.9,318.9,498.7,318.9,498.6,318.9z"/>
	<path class="st0" d="M225.7,508.2c0.5,9.4-0.9,25.9-12.1,28.2c-10.3,2.1-20.7,3.3-31.1,4.6c-5.2,0.5-11.1,1.2-16-1
		c-1.2-0.9-2.3-0.8-3.6-0.5c-11.9,4-25.1-4.6-19.7-17.7c2.7-6,11.7-15.6,18.8-13.3c3.7,1.9,7.8,2.3,11.8,2.6
		C191.1,511.8,208.8,512.7,225.7,508.2z"/>
	<path class="st0" d="M574.5,262.3c-18.6,28.8-46.1,51.4-74.8,69.5c1.4-7.8,6.5-14.1,11.5-19.9c19.1-21.8,33.6-49.3,33.8-78.8
		C550.1,234.6,569.9,254.2,574.5,262.3z"/>
	<path class="st0" d="M433.8,367.2c13.7,8,23.8,20.1,30.9,34c0.7,1.4,0.8,2.5-0.3,3.9c-9,11.6-17.8,22.9-29,32.7
		c1.8-19.5-13.9-33.7-17.7-51.9c-0.4-2.2,0-4,1.8-5.6C424.4,376,429,371.6,433.8,367.2z"/>
	<path class="st0" d="M507,313.3c13.1-30.4,16.2-65.3,2.2-96c6.6,0.2,34.2,8.1,34.2,15.5c-0.3,30.6-16,58.5-36,80.8
		C507.3,313.6,507.2,313.5,507,313.3z"/>
	<path class="st0" d="M377.4,463.2c2.6-13.2,5-26.1,2.6-39.5c10-3.3,17.3-9.3,23.2-18.3c8.7,12.9,16.3,28.3,12,44.2
		C413.4,455.8,384.2,462.3,377.4,463.2z"/>
	<path class="st0" d="M203.8,48.2c17.1-10.7,26.4-46.9,48.3-44.8c0,0.2,0,0.3,0,0.5c-2.8,1.2-5.4,2.7-6.9,5.4
		c-0.5,0.8-1,1.7-0.2,2.6c1.1,1.6,5.2-1.6,6.9-2c0.1,0.1,0.2,0.3,0.3,0.4c-10.2,6.7-7.8,22.6,2,28.7c2.2,1.4,4.5,2.7,6.8,4.2
		C239.6,53.9,226.8,60.9,203.8,48.2z"/>
	<path class="st0" d="M575.4,264.1c3.2,4,5.1,8.4,7.9,12.6c0.8,1.3,0.5,2.1-0.4,3.2c-19.9,25.6-46.9,43.2-74.2,59.8
		c-3.8,2.4-8,3.7-12.4,5.4c0-3.1,1.3-5.9,1.7-8.9c0.2-1,0.7-1.7,1.6-2.2C528.6,315.2,556.1,293,575.4,264.1z"/>
	<path class="st0" d="M479.2,380.7c-7.7-12.8-19.1-21-31.1-29c6.2-7.3,12.1-14.6,15.9-23.4c11,4,18,13.8,25,22.6
		C492,354.8,481.5,375,479.2,380.7z"/>
	<path class="st0" d="M272,385.4c8.6-3.8,17.3-6.6,26.6-7.1c16.6-0.8,31.9-6.2,46.8-13.1c2.3,4.5,6.4,6.4,11.1,8.1
		C330.8,384.4,298.8,401.2,272,385.4z"/>
	<path class="st0" d="M417,450c3.8-17-3.7-32.3-13-46c3.8-6.2,7.6-12.5,11.8-19.3c2.8,18.5,19.6,32.6,17.9,51.9
		c-0.2,1.9-0.8,3.3-2.5,4.3C426.4,443.8,422.1,447.4,417,450z"/>
	<path class="st0" d="M496,331.7c-7.2-9-16.3-15.9-26.4-21.6c-0.9-0.5-1.4-1.1-1.4-2.2c1-20-10.9-36.9-23.4-51.2
		c24.4,14.2,39.7,39.4,52.7,63.7C500,324.5,497.1,327.6,496,331.7z"/>
	<path class="st0" d="M447.1,353c11.4,7.1,21.8,15.4,29.5,26.5c1.3,1.6,1.4,3.3,0.4,5.3c-3.1,5.9-5.9,11.4-10.3,16.5
		c-7.5-14.6-17.5-26.7-31.5-35.3C439.2,361.7,443,357.5,447.1,353z"/>
	<path class="st0" d="M354.2,91.9c-14.9-9.8-29.5-19.4-44.1-29C331.1,44.1,363,61.5,354.2,91.9z"/>
	<path class="st0" d="M362,96.9c-2-1.3-3.7-2.4-5.5-3.5c-0.8-0.5-0.6-1.2-0.4-1.9c7.9-31.4-24.1-49.2-47.9-29.7
		c-4.4-2.6-8.8-5.2-13.4-7.9c14.4-3.9,29.8-8.7,44.9-5.9c15,3,26.2,17.9,26.5,33.1C366.1,86.8,363.9,91.4,362,96.9z"/>
	<path class="st0" d="M381.1,308.6c-0.8-27,16.4-47.7,37.2-62.9c3.7-2.9,2.5-2.5,6.3-0.1c2.5,1.6,4.9,3.4,7.6,5.3
		c-17.3,9.1-37.8,27.3-42.8,46.9c-0.5,2-1.3,3.7-2.8,5.1c-1.8,1.8-3.3,4-5.1,5.9C381.4,308.6,381.3,308.6,381.1,308.6z"/>
	<path class="st0" d="M344.6,359.4c-21.7,0.1-47.2,5.2-65.2-9.9c0.5-1.1,1.5-1.1,2.3-1.4c10.9-3.1,22.4-1.8,33.3,0.5
		c10.8,2.3,21.7,2.7,32.7,3.3C345.7,354.5,345,356.2,344.6,359.4z"/>
	<path class="st0" d="M224,497.4c0.5,2,0.8,3.8,1.3,5.5c0.4,1.3-0.2,2-1.4,2.3c-12.9,3.8-26.5,3.3-39.8,3.1
		c-6.6-0.6-16.1,0.4-21.6-3.5c-2.5-1.8-5.2-3.3-7.8-5.2C177.7,500.7,200.7,499.1,224,497.4z"/>
	<path class="st0" d="M288.6,416.3c7-3.5,14-7.1,20.2-12.1c14.1-11.4,31-17.7,47.8-24c-1.6,3.1-3.1,5.6-4.9,8.5
		c-0.5,0.8-1.1,1.6-1.9,2c-19,9.9-39.3,25-61.1,26.3C288.7,416.7,288.6,416.5,288.6,416.3z"/>
	<path class="st0" d="M468.3,311.6c9.9,5.1,19.7,12,26,21.4c0.4,0.6,0.6,1.5,0.4,2.2c-1.5,4.8-2.4,9.8-4.4,14.4
		c-6.7-9.5-14.9-17.7-25.2-23.1C466.2,321.5,467.3,316.6,468.3,311.6z"/>
	<path class="st0" d="M415.3,305.6c12.8-2.6,28.8-2,36.8,10c2.3,3.7,7.5,12.5,5.1,16.6c-1.6,2.3-2.7,4.8-4.7,6.9
		c-4.5-17.5-20.4-28.4-37.1-32.8C415.3,306,415.3,305.8,415.3,305.6z"/>
	<path class="st0" d="M294.9,110.3c0.3-16.1-19.5-24.5-31.4-14c2.8-24.6,38.9-21.6,34.7,9.7C298.1,108.1,297.1,109.4,294.9,110.3z"
		/>
	<path class="st0" d="M185.2,129c-12.5,4.4-16.8-11.9-13.6-20.9c2.4-10,16.8-23.2,26.2-13.6c1.1,1.3,2,2.8,3.2,4.6
		c-11.9-3.1-24.6,6.5-21.7,21.3C179.8,124,181.3,127.1,185.2,129z"/>
	<path class="st0" d="M368.2,469.2c-0.3,2.4,0.9,5.6-1.1,6.7c-9.6,4.5-17.9,10.9-26,17.6c-4.9,4.1-13,7.2-18.9,3.9
		C338.4,489.4,349,471.6,368.2,469.2z"/>
	<path class="st0" d="M203.6,103.4c-2.4-17.3-18.7-18-28.3-5.8c-1.7,2.3-3.2,4.9-4.7,7.4c-1.2-13,15.9-34.6,29.1-22.7
		C205.3,87.7,205.9,96.3,203.6,103.4z"/>
	<path class="st0" d="M411.1,326.2c5.4-1,13.6,2.2,18.4,5.2c7.6,4.4,9.9,12.8,11.1,20.9c0.3,1.6-0.1,2.9-1.3,4.1
		c-2,2-3.9,4.1-6.2,6.6C432.1,346.2,424.9,335.5,411.1,326.2z"/>
	<path class="st0" d="M527,330.9c21.8-14.3,41.6-30.5,58-51c1.6,2.2,2.1,4.8,3.1,7.3c0.7,2.1,0.7,2.2-1.1,3.6
		C567.6,305,549.1,320.9,527,330.9z"/>
	<path class="st0" d="M298.8,88.7c-14-23-42.8-9.8-37.3,13.9c-4.9-7.7-3.6-17.4,0.8-25.2c6-9.9,21.6-10.6,29.4-2.5
		C295.3,78.7,298.6,83.3,298.8,88.7z"/>
	<path class="st0" d="M372.4,463.7c-0.7-14.2-2.3-27.6-4.9-41.6c3.6,1.6,6.6,2.2,10.6,2.2c3.1,12.2-0.2,24.9-2.1,37
		C375.6,463.8,375.3,463.9,372.4,463.7z"/>
	<path class="st0" d="M326.6,435.1c10-9.5,21.7-18.1,35-22.7c0.7,4,1.3,7.6,1.9,11.3C351.4,427.9,339.4,433.5,326.6,435.1z"/>
	<path class="st0" d="M367.4,448.2c0.4,3.5,0.8,6.5,1.1,9.5c-15.8,5.1-27.9,17.7-44.7,18.9c7.8-6.6,17.2-11.7,25.6-17.8
		C355.4,455.1,360.6,451.1,367.4,448.2z"/>
	<path class="st0" d="M279.9,100.3c-2.9,4.4-7,8.8-9.9,1.8c-2.8,1.8-3.2,4.7-4,7.5c-1.3-2.8-2.4-5.6-2.3-8.7
		c1.8-6.3,9.6-7.4,15.2-6.7c7.7,0.8,13.8,7.9,13.6,15.6c0,1.5-0.5,2.4-2,2.8c-1.6,0.4-2.6,1-4.4,1.1
		C288.2,108.1,286,101.5,279.9,100.3z"/>
	<path class="st0" d="M351.5,399.2c2,2.1,3.8,4,5.7,6c-12.7,6.1-25.3,12.1-38,18.2C327.6,412.1,337.5,402.9,351.5,399.2z"/>
	<path class="st0" d="M173.2,65.4c-1.3,2.7-5.3,5.7-8.4,6.5c-10.3,3.1-18.2,10.7-20.3,21.3c-1.7,10.6-0.8,7.5-7.7,15.7
		c-3.3-19.7,15.4-41.1,35.9-44.1C172.9,65.1,173,65.3,173.2,65.4z"/>
	<path class="st0" d="M194.4,107.3c-0.2,4.5-2.7,7.1-6.7,6.7c-1.9,3.5-0.5,7.3,4,10.2c-10.6,10.5-14.7-13.2-5.5-19.7
		c4.7-4.8,18.2-6.7,14,3.9C198.6,106.9,196.7,106.2,194.4,107.3z"/>
	<path class="st0" d="M418.4,377.9c-1.1-16.4-10.3-23.4-23.2-31.6C411.2,344.1,431.8,363,418.4,377.9z"/>
	<path class="st0" d="M64.8,223.2c0-4.3,0-8.5,0-13c6.7,0.5,9.8-3.8,13.8-8c2.3,2.6,4.7,5.2,7.1,7.7
		C78.8,214.3,71.8,218.7,64.8,223.2z"/>
	<path class="st0" d="M335.3,526.5c8.6-2.7,15.5-8.6,24-11.6c-0.3,3.7-2.2,6.7-4.3,9.6C350.7,530.1,341.5,528.8,335.3,526.5z"/>
	<path class="st0" d="M444.1,290.2c14.6-0.4,20.7,12.1,18.7,23.5C457.6,305,452.5,296.3,444.1,290.2z"/>
	<path class="st0" d="M145.5,98.2c-0.8-9.9,7.9-21.1,19.2-24.4C163.9,76.3,147.9,96.5,145.5,98.2z"/>
	<path class="st0" d="M193,51.4c-3.8,3.2-7.8,5.5-11.7,8.4c-1,0.7-2.1,1.1-3.5,0.9C180.8,55.3,186,49.7,193,51.4z"/>
	<path class="st0" d="M282.2,107.8c-0.2,2.4-4,2.7-3.9-0.1C278.4,105.4,282.3,105.4,282.2,107.8z"/>
	<path class="st0" d="M195.2,118.5c-0.5,0.7-0.8,1.5-1.3,1.6c-1.4,0.1-3-2-1.9-3.3C193.5,115.4,194.2,117.5,195.2,118.5z"/>
	<path class="st0" d="M362.9,493.8c0.4,3.3-6.3,12.2-9.1,14.4c-4.6,3.7-10.6,4.1-16.4,3.8c0.1-0.3,0.2-0.6,0.3-0.7
		C347.4,507.2,354.3,499.8,362.9,493.8z"/>
	<path class="st0" d="M276.1,152.6c-0.1,2.6-0.8,5.1-2,7.5c-1.1,2.7-3.4,1.2-5.1-0.1c-1.7,2.3-2,5.5-4.7,7.1
		c-2.3-0.9-2.4-3.2-3.5-5.1c-2.5,1.7-5.3,1.8-8.1,1.5c-0.5-0.1-1.1,0.2-1.5,0.5c-1.8,1.2-3.8,1.5-5.9,1.2c-3.2-0.2-6.2,1.2-9.5,0.6
		c-1.1-0.1-2.1-0.3-3.2,0.3c-2.9,1.5-6.1-0.3-9.1,0.4c-1.9,0.6-3.7,0.5-5.6-0.2c-0.6-0.2-1.4-0.5-2-0.3c-2.3,1-4.4,0.2-6.7-0.1
		c-0.8,9.8-3.7,7.1-6.7,0c6.3-1.3,12.9-1.6,19.2-3.4c4.6-1,9.2-0.6,13.8-0.6C249.8,162.6,263.3,158.7,276.1,152.6z"/>
	<path class="st0" d="M239.2,174.8c-0.9,2.6-2.5,4.6-2.2,7.2c3.1-7.4,13.5-10.8,18.4-5.5c3.3,5.6-23.6,11-27.6,10.3
		C222.7,185.7,233.4,173.6,239.2,174.8z"/>
	<path class="st0" d="M198.9,165c1,0.2,1.9,0.3,3,0.5C200.5,166.8,200.5,166.8,198.9,165z"/>
</g>
</svg>
