<?xml version="1.0" encoding="utf-8"?>
<!-- Generator: Adobe Illustrator 26.0.0, SVG Export Plug-In . SVG Version: 6.00 Build 0)  -->
<svg version="1.1" id="Capa_1" xmlns="http://www.w3.org/2000/svg" xmlns:xlink="http://www.w3.org/1999/xlink" x="0px" y="0px"
	 viewBox="0 0 595.3 578.7" style="enable-background:new 0 0 595.3 578.7;" xml:space="preserve">
<style type="text/css">
	.st0{fill:#FFFFFF;}
</style>
<g>
	<path d="M103.2,276.7c0.6-2.9,1.2-5.6,1.8-8.5c-2.8,0.6-3.5,2.9-6.1,3.9c1.1-2.6,3.9-4.2,5.6-6.4c0.6-0.7,1.3-1.4,1.5-2.3
		c1.2-5.8,3.1-11.3,3.7-17.1c-2.1,1.6-3.9,3-5.7,4.5c-0.1-0.1-0.3-0.3-0.4-0.4c1.9-3.8,10-6.2,6.5-10.9c-10.7-17.6-10-46.6,9.2-58
		c1.8-1.3,4.7-1.2,5.3-3.8c2-8,5-15.8,6.6-23.8c-6.9,1.8-7.5,12.4-7.8,18.3c-0.1,1.4,0.5,3.6-1.2,4.2c-4.8-0.5-2.3-16.3-0.8-19.6
		c2-5.1,5.4-8.5,11-9.3c0.6-0.1,1.5-0.5,1.7-1c1.6-4.5,4.1-8.8,4.7-13.7c1.9-9.2-1.3-18.6,1.4-27.7c0.7-1.7,1-4.3,3.2-4.6
		c1.4-0.1,1.7,1,2.1,2.3c1.4-2.9,1.8-5.6,2.9-8.6c3.2-8.7,10.3-13.8,19.4-14.5c2.6,0.8,0.8,3.1-0.8,3.8c-1.9,1.3-3.6,2.8-4.8,5
		c2.8-0.7,5.8-1.3,8.6-0.2c2.3,0.6,2.2,3-0.2,3.3c-10.3,2.3-9.6,9.5-0.6,13.5c7.7,3.7,16.3,3.6,24.5,2.4c3.5-0.7,6.9-2.2,10.5-2.9
		c6.8-1.6,14.3-1.3,20.6-4.3c11.1-6.7,19.6-17.1,32-21.8c19.4-7.4,32.6-1.2,43,16c2.4-19.2,22.8-26.2,39.4-29
		c-11.1-2.4-4.5-15.8,4.3-16.1c8.7-1.4,12.8,5.3,15.5,12.5c0.3,0.7,0.6,1.4,1.7,2c-0.2-3.4,0.1-6.4,3.4-7.9c4.6-2.5,10-2.1,14.4,0.5
		c5.4-2.7,10.4-6.2,16.5-4.4c3.8,1,5.5,3.1,5,7.6c-0.1,2.2-1.6,4-1.7,6.2c4.9-7.3,20.2-12.5,25.3-2.9c5.2-3,10.5-5.6,16.6-6.3
		c9.3-0.9,20.2,3.1,14.4,14.2c0.9,1,1.9,0.9,2.7,0.5c7.9-3.3,10.9-12.3,10.1-20.3c-0.3-2.8-1.6-5.4-4.4-6.4
		c-3.6-1.3-4.2-6.3-1.4-9.2c4.4-4.4,12.3-3.5,16.7,0.6c4.5,4.1,2.9,10.9,0.7,15.8c-1.5,3.7-3.5,7.2-4.4,11c-0.5,2.4,0.3,3.8,2.6,4.6
		c7.9,3.2,14.9-3.3,19.1-9.4c6.4-8.4,6.9-20.8,16.4-26.8c4.2-3.1,14.1,0.3,9.8,6.3c-2.7,4.2-7.9,6.5-10.2,10.9
		c2.5,2.8,5.4-0.6,7.5-2.1c7.4-6.4,10.1-16.2,16.9-22.9c9.8-10,19.8,5.1,12.3,13.9c-6.2,7.4-15.2,11.7-22.7,17.6
		c-9,6.5-16.5,14.9-20.9,25.1c-5,15.8,19.2-3.3,25.2-1.7c6.3-0.3,7.8,9.1,1.5,10.8c-7.7,1.2-13.2,5-15.6,12.7
		c14,8.4,33.6,25.1,22.5,42.8c-9,11-21.2,19-32.7,27c-9.5,6.8-20.4,11.9-29.8,18.5c-2.2,5.3-8,6-12.9,7.5c1.9,1.4,3.6,1.6,5.7,0.7
		c8.5-3.8,19-1.9,24.4,5.8c4.1,5.6,9.1,10.3,13.9,15.3c16,21.1,18.9,44.4-3.7,62c8.2,13.8,11,30,4.7,45.2
		c27,4.5,31.2,20.8,42.1,42.2c1.3,2.4,3.1,3.6,6.1,3.7c7.3,0.2,14.5,1.7,21.3,4.7c45.7,21.6-14.7,91.8-48.9,89.4
		c-8.6,0.4-14.6-5.9-20.8-10.8c-8.3-6.4-17.8-12.3-28.5-13.3c-2.4-0.2-4.4,0.7-6.2,2.4c-16.8,15.9-34.4,30.8-53.8,43.5
		c-14.3,10.2-30.8,16-47.8,20.1c-21.6,5.4-43.6,10.8-66,11.3c-9.2-0.3-18.2-1.2-27.5-1.6c11.6,28-16.6,64.5-47,58.5
		c-2.2-0.4-4.2-0.4-6.3,0.2c-21.1,5.6-36-7.9-30.8-29.5c-22.9-9.5-34.5-33.8-38.7-57.1c-0.2-1.2-0.6-2-1.7-2.6
		c-31-18.6-52.7-49.1-67.7-81.5c-10.4,25-43.6,30.1-64.4,15c-25.9-18.5-25.6-54.6-18.8-82.6C14.1,295.2,61.7,275.1,103.2,276.7z"/>
	<path d="M423.5,32.6c5.9,0.3,14,1,15.5,7.9c0.9,3.9-1.7,7-5.2,8.2C410.6,56.9,399.6,32.5,423.5,32.6z"/>
	<path d="M425,48.2c3.2-0.2,6.3-0.4,9.2-2c5.5-3.1,2.3-9.2-2.7-10.5c-5.9-2.6-24.7-1.6-17.8,8.5C416.6,47.2,420.9,48.5,425,48.2z"/>
	<path d="M407.6,29.8c-2.5-0.3-7.3-1-9.7-3.2c-3.8-3-3.9-8.4-0.4-11.7c6.5-4.8,17-7.3,23.4-1C428.2,22.9,417.2,30.3,407.6,29.8z"/>
	<path d="M408.1,28c3.8-0.2,7.3-1.1,10.3-3.4c7.2-5.4-0.9-13.4-7.7-12.4c-3.2,0.2-6.3,1-9.1,2.5c-3.8,1.6-6.4,6.4-3,9.7
		C401,27.1,404.8,27.2,408.1,28z"/>
	<path d="M507.4,8.6c-0.1,5.2-1.9,9.9-4.2,14.5c-0.9,1.5-4.8,10-6.4,5.6c-0.6-7.8-1.2-15.7-1.2-23.5C496.6-3,508.2-1.3,507.4,8.6z"
		/>
	<path d="M498.7,25.8c0.2,0,0.4,0.1,0.6,0.1c3.4-5.6,5.9-12,6-18.7c0.5-4.3-5.8-7.8-7.5-2.8C496.9,11.5,498.8,18.7,498.7,25.8z"/>
	<path d="M449.7,7.7c5.4,0.6,9.5,3.5,12.1,8.5c2.5,4.6-1.1,12.3-7,10.1c-4.4-1.2-7.9-3.5-10.6-7.2C440.4,13.6,442.4,7.3,449.7,7.7z"
		/>
	<path d="M449.7,9.7c-5.7,0-6.6,3.8-3.9,8.1c2.1,3.2,5.1,5.1,8.6,6.3c3.1,1.1,4.8,1,5.9-3.4c0.3-1.1,0.1-2.5-0.4-3.4
		C457.8,12.9,454.3,10.4,449.7,9.7z"/>
	<path d="M546.6,76.3c-1.3-0.5-10.5-0.7-6.7-3.3c5.9-1.7,9.1-7,14.1-9.8c2.4-1.2,6.1-0.7,6.2,2.6C560.9,73.1,552.7,76.2,546.6,76.3z
		"/>
	<path d="M544.3,73.9c13.3,2.6,17.6-11.3,11-9C551,67.2,548.1,70.7,544.3,73.9z"/>
	<path d="M522.5,12.8c-0.8,2.1-3.6,3.6-5.8,4.2c-2.5,0.7-4.7,1.8-6.7,3.5c-0.6,0.6-1.6,1.3-2.4,0.8c-0.7-0.7-0.3-2,0.2-2.8
		c1.7-3,3.7-5.8,6.5-7.8C517.2,8.4,522.6,7,522.5,12.8z"/>
	<path d="M512.2,16.4c2.6-1,5.6-1.3,7.7-3.2c1.6-2.7-1.2-3-3.1-1.8C514.8,12.5,513.2,14.2,512.2,16.4z"/>
	<path d="M350.7,29c4.5,0,7.8,3.3,7.9,7.9c0.1,6.9-9.2,3.5-12.2,0.5C341.9,33.7,345.4,28.5,350.7,29z"/>
	<path d="M350.2,30.9c-8.5,1.2-0.7,7.7,3.9,8C358.7,39.8,356.5,30.7,350.2,30.9z"/>
	<path d="M335.9,18.2c0.2,4.7-7.4,7.7-8.1,2C327.3,14.5,335,13.4,335.9,18.2z"/>
	<path d="M331.3,21.6c2.2-1.6,4.4-4.3-0.1-4.2c-1.1,0.2-1.8,2.3-1.2,3.2C330.3,20.9,330.7,21.1,331.3,21.6z"/>
	<path class="st0" d="M551.6,374.8c-13.1,2.5-19.1,15.1-25.7,25.3c-3.7,5.8-7.5,11.6-11.3,17.4c-4.8,6.7-12.6,10.9-20.5,13.1
		c-2.3,0.8-2.6,1.9-0.8,3.5c3,2.6,6.7,1.9,10.5,1.9c-1.2,3.5-4.4,5.6-7.3,7.6c-2,1.4-11.4-3.7-14.8-3.4c-3.9-0.3-7.2,0.9-10.1,3.7
		c-11.5,11.1-23.7,21.4-36.4,31c-16.6,12.6-34.6,24.2-55.2,29.1c-30.9,8.4-62.8,16.2-95,12.1c-2.7-0.2-5.4-0.3-8.1-0.5
		c-1.8-0.2-3.1,0.4-4.2,2c-6.3,8.3-13.4,15.9-21.6,22.3c-8.7,7.4-19.8,9.1-30.9,8.8c-12.4-0.4-25.6-2.3-35.4-10.4
		c-16.4-12.2-21.9-32.9-26.6-51.7c-4-13-1.6-27-0.5-40.4c8.9-17.8,54.5-38.7,73.7-46.1c-1.9,14.3-5.7,29.8-14.9,41.3
		c-3.4,4.2,4.4,3.6,6.7,3.1c6.3-1.2,11.1-4.7,15.4-9.4c-0.5,5.2-2.8,10-5.4,14.5c-1.9,3.1-4.8,5.3-8.2,6.7c-0.9,0.4-2.1,0.6-1.8,2.1
		c0.3,2.8,4.6,1.8,6.6,1.4c7.4-1.8,13-6.5,17.9-12.1c1.8,0.4,0.7,10.8,1,13c-1.8,15.5,8.2-1.6,12.4-4.5c1.2,0.8,1.4,2,1.6,3
		c1.3,4.7,0.6,10.9,6.2,12.9c42.9,19.2,91.2,12.3,132.8-6.8c45.4-19,90.9-58,89.1-111.4c-0.1-1.3,0.4-2.2,1.3-3.1
		c4.4-4.2,8.6-8.7,11.9-13.9c1.1-1.7,2.1-3.4,3-5.1c0.6-1.3,1.4-1.6,2.8-1.5C538.1,334.5,538.7,355.7,551.6,374.8z"/>
	<path class="st0" d="M488.8,353.7c1.8,58.6-52.1,97.8-102.2,115.6c-37.3,15.2-79.8,17.3-117.1,0.9c-4.8-2-3.6-7.9-5.1-12
		c-2.7-10.3-10.1,3-13.6,6.3c-0.8-5.6,0.7-11-0.5-16.6c-0.3-2.7-3.2-3.5-4.6-1c-4.5,5.7-11.3,10.9-18.7,11.3
		c3.5-2.5,6.8-4.7,8.7-8.6c1.3-1.9,9.4-20.6,2.8-17.5c-5.1,6.2-11.6,11.1-20,11.1c8.2-12.3,12.7-26.8,14.9-41.4
		c0.3-2.1,1.3-3,3.2-3.7c6.9-2,32.6-12.1,37.8-8.8c34.3,21.7,74.6-0.6,110.4-6.3c25.7-5.3,51.6-9.8,77.3-15
		C472.5,366,479.9,358.5,488.8,353.7z"/>
	<path class="st0" d="M127.7,231.7c4.2-0.6,8.7,1.4,7.2-4.8c18,7.3,31.7-7.3,38.2-23.2c3.3-9.8,1.2-20.6,0-30.7
		c-0.7-4.6-3.3-8.5-5.7-12.4c0.2-0.2,0.2-0.4,0.3-0.4c2.9-0.4,3-0.5,3.4-3.3c0.2-1.6,0.4-3.3,0.6-5.4c2.6,2.4,7.9,13.7,10.5,5.8
		c17,29.1,46.6,19.6,60.9-6.3c4.3-8.2,8.7-16.6,16.3-22.3c7.5-5.4,16.8-13.5,26.6-12c-1.2,10.8,1.2,3.8,16,5.2
		c-0.2,1.1-1.1,1.2-1.6,1.7c-2,1.4-1.4,3.9,1.1,3.8c4.4,0.2,8.7,0.3,13.1,0.4c4.3,0.1,3.2-0.5,5.4,3c6.7,11.2,14.6,21.8,22,32.5
		c0.9,3.1,3,5.4,5.3,7.4c4.1,3.5,8.8,6,13.5,8.4c0.6,0.4,1.4,0.4,1.7,1.2c-53.1,9.4-53.4,6-97.2,39.8c-2,1.8-7,1.9-6.1,5.6
		c1.2,4.7,3.4,9.1,4.9,13.6c0.6,1.7,0.6,1.8-1.1,2.6c-2.9,1.4-5.9,2.6-8.9,3.9c-16.7,7.2-33.8,14.1-48.5,25c-4.4,2.7-9,5-13.5,7.5
		c-7.5,2-14.4,4.9-20.4,9.9c-4,3-7.5,6.6-10.7,10.5c-0.6,0.7-1.3,1.5-2.1,1.9c-7.2,3.5-13,8.8-18,14.9c-2.9,3.6-6.4,7.4-11.3,7.3
		c8.5-7.9,6.8-24.8,0.9-18.9c-2,3-4.2,6-8,6.6c3.1-5.3,5.1-10.7,5.1-16.8c0-1.1-0.1-2.1-1.3-2.5c-2.5-0.8-3.4,3.1-4.2,4.9
		c-0.9,2.2-2.3,4.1-4.6,5.1c-0.2-0.2-0.4-0.4-0.3-0.5c1.2-4.8,1-9.7,0.9-14.7c0-2.7,0.7-5.3,1.6-7.9c3.2-8.3,7.7-20.5-5.9-10.1
		c0.9-2.9,0.8-7.7,2.8-9.2c11.8-7.6,24.5-14.2,38.5-16.4c0.5,1.2,0.9,2.6,1.3,3.9c-15.3,7.4-33.8,23.5-37.3,40.6
		c6.7-15.2,18.6-26.6,32.3-35.6c2.6-1.4,5.5-4.3,8.5-1.7c3.2,2.7,7.7,1.5,11.6,1.3c-0.9,4.4-2,8.6,0.1,12.7c4,7.6,15.5,4.5,19.2-2
		c3.6-5.9,3.3-13.2,5.5-19.6c0.6-1.9,1.7-3.8,2.6-5.6c0.7-4.2,3.8-7.2,5.7-10.8c0.8-1.6,2.6-2.2,4.3-2.7
		c20.7-6.6,42.7-20.9,47.5-43.4c0.9-2.7-0.6-6.8,2.6-8.1c-8.1-3.3,1.2,9.9-11.9,24.3c-9.9,11.7-22.2,19.8-36.7,24.5
		c-7,2.4-9.2-3.1-14-6.3c1.7,6.1,8,6,3.9,14.3c-6.5,11.4-18.8,19.5-31.8,21.1c-5.1,1-11.1-1.1-11.4-7.4c1-0.5,2.1-1,3.6-1.8
		c-0.5-0.1-3.7-0.6-4-0.6c-0.1-1-0.2-2.2-0.4-3.6c-1.5,1.1-1,2.6-1.4,4c-13.6,3.2-26.4,8.5-38.3,16.7c0.6-8.6,7.1-14.6,13.8-19
		c1.6-0.9,1.1-2.7,3-3c9-2.6,18.4-2.5,27.6-0.9c0.8,0.1,1.6,0.4,2.1-0.6c-0.5-1.3-1.7-1.3-2.7-1.5c-9.4-1.4-19.1-1.8-28.2,1.3
		C130.1,233.9,129,233.2,127.7,231.7z M303.2,129.9c0-0.1-0.1-0.2-0.1-0.3c-24.8,3.4-47.4,20.8-59.3,42.5c0.2,0.1,0.4,0.2,0.6,0.4
		C258.8,151.7,278.2,136,303.2,129.9z M197.7,198.6c-3.5-4.5-13.1,3.1-14.8,7c-0.6,1.1-0.8,2.4,0.8,2.5c4.4-0.1,5.6,0.1,9.5,2.2
		c1.1-0.1,1.7-0.9,1.5-2C194.6,204.5,196.3,201.9,197.7,198.6z M249.3,173.6c0.2,0.2,0.3,0.3,0.5,0.5c17.6-13.5,40.4-13.9,61.2-9.5
		C291.3,156.7,265.2,158.4,249.3,173.6z M236.7,171.6c7-19.6,18.6-35.6,35-48.2C255.6,131.3,239.3,153.8,236.7,171.6z"/>
	<path class="st0" d="M481.8,354c17.5-15.7,23.6-25.3-6.5-20.3c-39.7,7.2-79.9,10.5-119.9,15.9c-5.3,0.7-10.7,1.8-15.5,4.3
		c-14.3,7.1-32.5,13.6-35.5,31.4c-1.4,9.1,9.7,10.2,16.1,8.3c32.3-7.3,64.5-15.6,97.2-20.6c0,0.2,0,0.3,0.1,0.5
		c-19.5,3.6-38.9,7.5-58.1,12.3c-25.1,5.2-51.6,16.4-76.6,4.9c-16.7-6.6-29.5-27.5-20.8-44.7c6.1-9.5,1.1-17.9,5.7-20.3
		c17.9-12.1,23.5-18.5,46.2-19.4c1.7-0.3,3.4-1,5.5-1.7c-2.8,4.1-6,7.4-9.2,11.1c-2.9,3.1-2.5,6.1,1.3,8.1c3.3,1.8,7,2.4,10.7,3
		c25.9,3.8,52.2,2.7,78.2,0.9c9.1-0.8,32.1-2.5,36.4-11.2c2-4.7-2.6-4.4-4.6-7.3c-8.1-10.6-7-10.1-19.6-14.6
		c1.1-0.7,19.1-4.4,22.1-4.5c0.6,1.5,1.1,3,1.8,4.8c17-0.1,33.9,0,51.1-0.3c0.2-2.9,0.3-5.5,0.4-8.1c0-1-0.5-1.4-1.5-1.4
		c-9.6-0.1-19.2,0.1-28.8-0.2c11.7-4.6,25.3-9.3,38.3-6.7c2,0.4,3.3,1.3,4.4,3.2c17.9,26.5,7.4,57.1-18.6,73.2
		C482,354.2,481.9,354.1,481.8,354z M440,311.5c17-0.3,33.9-0.5,50.9-0.9c0.6,0,1.6-0.5,1.7-0.8c0.3-2.1,0.4-4.2-0.2-6.5
		c-17.7,0.7-35.3,1.3-53.2,2.1C439.5,307.6,439.7,309.4,440,311.5z"/>
	<path class="st0" d="M244.9,141.1c-5.3-15.4-28-15.7-35.1-2.1c-6.4,10.8,1.7,26.8,14.3,28.2c-12.7,11.1-32.4,3-38.9-11.2
		c-1.2-1.7-0.7-5.3-3.1-5.7c-2.6,0.2-2.3,3.3-3.2,5.3c-2.3-2-3.4-4.9-4.8-7.5c-0.9-2.4-4.2-2.2-4.7,0.4c-0.7,2.9-0.8,5.6-1.2,8.6
		c-4.4-1.4-7.4-0.8-4.2,4c4.8,6.2,7,13.2,7.2,21c-0.3,7.5,2,15.8-1.8,22.7c-1.6,2.6-2.4,5.1-4.5,7.4c1.8-8,2.2-16-2.9-22.8
		c-4.6-6.2-13.4-6.9-19.1-1.9c-9.8,9.2-10.1,28.7-0.5,38.1c-6.3,0.3-11.2-8.4-10.5,3.1c-2.5,0.1-13-0.3-13.1,2.8
		c0,1.2,1,1.5,1.9,1.8c2,0.5,3.4,0.8,5.5,1.6c-4,2.1-7.6,3.9-11.5,5.9c3.5-19,8.1-37.7,12-56.6c3-20.4,12.2-36.8,34-40.5
		c7.9-1.6,13.3-7.7,17.2-14.4c3.3-5.3,7.9-9.3,13.1-12.9c1.6,4.7,4.9,4.2,7.3,0.4c3-4.8,7.5-8.3,13.4-6.8c5.3,1.1,9.1,3.9,14,6.3
		c-1-5.4-5.1-6.8-8.7-10.1c31-5.7,62.7,0.6,92.6,9.2c2.8,0.5,4.8,6.5,6.7,9.2c-3.6,0.6-6.9,0.1-10.4-0.3c14.7-7.4-12.7-4.8-16.6-5
		c1.1-6.8-5.5-6.5-10.2-5.2C264.9,118.8,252.8,128.6,244.9,141.1z"/>
	<path class="st0" d="M298.7,237c3.8,0.9,8,0.8,11.5,2.6c6.6,3.6,2.5,9.9-1.8,13.4c-0.8,1.3-0.4,2.3,1.1,2.6
		c10.2-2.7,16.7,11.1,8.3,16.8c-3.9,2.9-8.9,3.9-12.7,6.8c-3.2,3.8,5,4.1,7,5.5c5.3,2.2,11.9,6.3,8.1,12.7c-1.3,2.6-2.9,5.5-6.1,5.7
		c-23.5,0.5-32.8,9.4-51,22.3c-1.6,1.1-2.8,1.3-4.6,0.6c-8.8-3.4-13.4-11.9-19.7-18.3c-2.8-2.7-6-5-9.2-7.1
		c-12.6-7.8-12.8-25.2-4.1-36c6.5-8.8,24-12.9,34-17.7c7-3.2,13.6-7.3,19.6-12.1c2.6-2.8,14.7-6.2,13.9,0.4c-0.2,3.1,3.6,1.7,5.5,2
		C298.7,237.2,298.7,237.1,298.7,237z M225.8,277.4c0.3,19.7,24.5,20.7,21.6,7.5c-1.7-7-1.2-14.4-3.1-21.3c-0.7-2-2.3-3.2-4.5-3.4
		C231.2,260.2,226.4,270,225.8,277.4z"/>
	<path class="st0" d="M314.9,117.3c-2.3-4.3-4.7-8.9-7-13.3c-1-2-1-2.1,0.6-3.6c3.2-3,6.9-5.1,10.8-6.8
		c50.4-20.7,185.3,6.1,212.9,55.9c-4.7,3.8-9.4,7.5-14,11.1C481.3,123.6,361.7,87.1,314.9,117.3z"/>
	<path class="st0" d="M258.3,329.4c-17,14.9-35.7,29.5-57.3,37.1c-14.9,4.8-32.6-1.4-40.8-14.8c-11.2-22.1,3.9-50.3,21.7-64.4
		c2.3-1.6,4.8-3,7.5-4.2c11.7-4.6,21.6-12.1,32.1-18.9c0.1,0.1,0.3,0.3,0.4,0.4c-8.7,13.3-6.5,32,8.2,40
		C242.5,312.3,243.9,323.3,258.3,329.4z M211.7,285.2c1.1-23-21.5,7.2-11.7,25.3c4.8,9.9,14.3,7.5,15.8-2.8c0.3-3.1-0.2-6.2-1.5-9.1
		C212.5,294.4,211.8,289.9,211.7,285.2z M167.2,321.2c0.3,3.6,0.7,8.9,3.8,11.7c3.2,3.5,8.9,2,8.9-3.1c0.2-4.6-1.1-9.1-1.3-13.6
		c-0.5-3.2,2.9-17.2-0.1-18c-1.2-0.6-2.4,0-3.2,0.9C169.4,304.9,167.5,312.5,167.2,321.2z M194.8,291.6c-0.6-5.7-6.2,1.5-7.1,3.5
		c-3.3,4.8-6.7,26.9,2.1,26.8c1.6-0.1,2.9-0.9,3.5-2.4C196.1,309.3,189.1,306.4,194.8,291.6z"/>
	<path class="st0" d="M488.9,334.2c4.6,0.7,7.6-0.1,3.8,5.5c-8.8,11-20.4,20.6-34.5,23.5c-31.7,7.6-64.4,10.1-96,18.5
		c-13.7,3.2-27.5,6.5-41.2,9.6c-12.1,3.1-18.9-1.9-11.5-13.9c4.1-7,10.2-11.7,17.6-15c8.6-3.6,16.5-9.9,26.1-10.6
		c45.3-5.3,90.5-11.4,135.7-17.6C488.9,334.3,488.9,334.3,488.9,334.2z"/>
	<path class="st0" d="M150.7,429.6c-2.3-18.3-12-34.3-16.8-51.9c-6.7-21.9-0.5-48.9,17.4-63.4c-17.8,34.8,7.4,75.3,47.2,59.2
		c2.6-0.9,3.6-4.1,6.2-4.9c22-8.9,40.2-23.5,58-38.7c2.1,17.3-12.6,16.8-2.8,42.5C220.1,383.5,180.7,400.2,150.7,429.6z"/>
	<path class="st0" d="M349.1,270.2c2.6-0.4,4.9,1.2,7.4,0.5c0-1.9-2.6-1-2.6-2.9c10.9-1.3,20.4,2.1,28.6,9.6c2-2.7,3.2-5.9,6.7-7.7
		c-2.5-1.4-4.4-1.2-7-1.6c-5.7-0.5-11.1-2-16.2-4.5c-3.8-1.6-2.4-3.3-5.4-5.6c0.4-1.2,1.6-4.3-1.1-3.4c-0.8,0.3-1.5,1.2-2.2-0.2
		c2.4-2.4,4.7-4.8,5-8.7c-4.3,0.2-8.2-7.1-9.2-10.6c-0.7-2.5-0.3-3.7,2.2-4.5c2.5-0.8,5.1-1.4,7.6-1.7c4.5-0.7,9.3,1.2,13.2-1.9
		c-0.5-0.6-0.9-1.2-1.4-2c2-0.2,3.9-0.4,5.9-0.6c0.1-0.6,0.1-1.2,0.1-1.8c2.2-0.7,4.4,1,5.6-2c5.5,0.8,11.2,1.6,16.4-1.1
		c12.9-6.3,19.1-4.7,26.2,7.9c3.4,6.4,2.2,7.3,9.8,9.8c-0.1,0.5-0.2,1-0.3,1.6c2.2,1.2,4.6,0.8,7.3,1c-0.6,1.1-1,2-1.5,3
		c1.9,2,4.2,0.1,6.5,0.5c-0.5,1.8-1,3.4-1.6,5.2c1,0,1.7,0,2.4,0c0.6,7.9-7.5,12.3-13.3,15.9c0.5,1.2,1.3,1,1.9,0.8
		c2.1-0.8,4.3-1.6,6.3-2.7c1.1-0.6,2-0.7,3.1,0c3.4,2.2,6.8,3.9,10.5,5.7c-12.3,5.4-25.5,8.6-38.5,11.9c-2.5,0.8-7.6-2.9-10.1-4
		c-3.1-1.9-5.2-6-2.9-9.3c1.5-2.4,3.9-3.6,6.7-3c1.1,0.2,2.1,0.6,3.5,1c-0.4-0.6-0.6-0.9-1-1.5c1.1,0,2.1,0,3.1,0
		c0-0.1,0.1-0.3,0.1-0.4c-8.7-3.7-14.9,3.7-23.1,3.1c-0.8,0-1.1-0.1-1.9,0.5c5.8,0.7,5.1,2.7,9.3,5.7c-2.5,1.1-5,1.1-6.8,3.6
		c3.2-1.3,9.5-3.4,8.9,2.2c-0.4,3-1.3,6.1-4.9,6.4c-5.9,0.8-11.7,2-17.6,3.1c-1.3,0.2-2.3,0.1-3.4-1c-2.2-2.6-6.5-2-9,0.3
		c-1.3,1.2-2.7,1.6-4.3,0.5c-1.3-0.8-3-0.2-4-1.6c-3.5-3.9-16.4-0.4-6.9,3.9c-8.5,0.8-17,1.2-25.7,1.5c0.2-2,1.2-3.3,1.8-5.1
		c1.4-4.7,5.1-5.6,9.1-7.4c-1.2-1.7-2.9-1.3-4.4-2.2c0.9-1,1.7-1.9,2.7-2.9c2.7,4,7.6,2,10.6-0.8C350.4,271.8,349.8,271,349.1,270.2
		z M413.4,225.3c-0.5,0.9-0.8,1.3-1.2,2.1c1.9,0.2,3.5,0.3,5.5,0.5c-1.1,0.8-1.7,1.2-2.4,1.7c0,0.1,0.1,0.2,0.1,0.2
		c2.4-0.4,4.9-0.9,7.2-1.3c1.9,2.9,3.6,3.4,6.3,2.2c-5.4-11.5-13.7-15.6-24.5-6.8C407.2,225.4,410.2,225.2,413.4,225.3z
		 M413.5,231.8c-2,4-6.9,0.4-12.2,3.1c-3.2,1.3-1.4,7.4,1.9,7.1c5.2,0,9.6-2.9,14.7-3.7c-1.9-1.2-3.8-1.6-3.5-4.3
		C414.3,233.5,413.9,232.9,413.5,231.8z M368.1,232.9c-3.2-2-7.2-1.3-10.5,0c-5.3,3,2.1,9.6,4.8,12.4c1.7-3.3,3.5-6.2,4.8-9.5
		c-1.1-0.2-1.8-0.3-2.6-0.5C365.2,234.1,366.8,233.9,368.1,232.9z M367.3,243.9c1.7,3,1.7,3-0.1,5.7c4.9,0,9.4-2.2,14.4-1.8
		c1.4,0.1,2-1,1.2-2.3C378.8,239.3,373,241.2,367.3,243.9z M340.6,289.2c2.3-0.9,5-1.1,6.9-2.9c1.2-1.2,0.9-2.3-0.7-2.8
		c-2.4-0.5-5,0.6-7.4,1.2C336.4,285.7,337.7,289.1,340.6,289.2z M415.7,242.8c-4.9-2.3-3.1,7.1-11.5,7.1c-3.2,0.4-8.8-1.8-10.9-0.1
		c-2.9,2.4-5.1,1.2-8.4,1.1c2.1,2,5.1,2.1,7.4,0.7c1.7-1.1,3.3-1.2,5.2-0.9C407.6,251.9,409.4,250.3,415.7,242.8z M362,274.9
		c-1.4,0.7-2.8,1.2-4,2c-3.4,2.8,3.4,4.1,5.4,3.6c2.3,0,3.1-3.1,1.3-4.3C363.9,275.6,363,275.3,362,274.9z M407.3,229.2
		c-2-3.9-9.4-3.8-11.9-1.1C399.5,228,403.4,226.7,407.3,229.2z M365.1,257.2c4.2-1.6,8.3-3.2,12.5-4.8
		C372.9,252.5,367.2,254.6,365.1,257.2z M417.9,240.8c6.1,0,11.9,0,17.7,0C429.7,239.1,423.9,240,417.9,240.8z M420.1,243.8
		c4.5,0.3,9,0.7,13.5,1C429.2,243.2,424.7,243.1,420.1,243.8z M379.5,249.8c-5.2-0.2-12.8,1.9-14.2,3.5
		C369.7,252.2,374.5,251,379.5,249.8z M391,272.9c2.6-2.6,5.8-3.3,9.3-3.5C396.4,267.8,392.9,269.1,391,272.9z M431.3,249.5
		c-3.1-1.8-10.3-2.8-13.4-2.1C422.3,248.1,426.6,248.8,431.3,249.5z M367.9,238.5c1-2.9,4.1-3,6.4-4.6
		C371.1,233.3,368.5,235.2,367.9,238.5z M371,257.9c0.1,0.2,0.1,0.3,0.2,0.5c2.6-1.2,5.2-2.4,7.8-3.7c-0.1-0.1-0.1-0.3-0.2-0.4
		C375.9,254.9,373.1,255.8,371,257.9z M390.7,246.2c0.6,2.9,3.8,2.7,3.7-0.2C393.3,246,392.2,246.1,390.7,246.2z M414.7,268.7
		c-2.7-0.9-4.9-0.3-5.8,1.5C410.8,269.7,412.7,269.2,414.7,268.7z"/>
	<path class="st0" d="M493.9,432.2c8.5-2.6,16.8-6.6,22-14c7.7-11.6,14.5-23.8,23.1-34.6c8.7-10.7,24.4-7.8,36-4
		c22.3,6.8,20.3,31,9.6,47.2c-10.2,18.1-47.4,52-67.5,32.5c-5.7-5.9-12.5-10.1-19.5-14.3c2.5-2.6,5.6-4.3,7.3-7.5
		c1.1-2.1,0.3-3.4-2.1-3.3C499.8,434.6,496.2,434.7,493.9,432.2z M526.1,461.8c0-0.5,0.1-0.7-0.1-1.1c-5.6-8.5-0.8-19.1,3.1-27.3
		c9.3-17.4,18.2-40.2,39.9-43.8C550.5,376.7,500.7,457.8,526.1,461.8z M535.2,451.1c1.6,16.1,26.4-2.3,32.2-7.3
		c6-5.5,11.2-13,11.7-21.3c0-3.4-3.7-4.3-6.4-3.2c-10,2.6-20.9,4.2-27.9,12.5C540.1,437.3,536.3,443.9,535.2,451.1z M570.6,394.8
		c-9-0.7-12.4,12.4-4,15.3C575.2,412.8,581.7,394.6,570.6,394.8z M548.6,420c1.7-0.5,3.7-0.7,5.1-1.6c5.3-2.7,8.8-14.6-0.3-13.8
		C547,404.9,538.9,418.9,548.6,420z M577.6,407.3c0.1,2.4,0.9,4.2,3,5.3c4.5,1.8,8.5-3.4,9.8-7.2c2.3-6-5.6-10-9.6-5.6
		C578.7,401.9,577.7,404.6,577.6,407.3z"/>
	<path class="st0" d="M306,99.6c-7.4-8.8,5.8-17,12.7-20.6c20.6-9.6,44.1-9.2,66.2-7.6c43,3.9,125.6,20.6,151.7,56.8
		c4.2,7.8,4.2,12.6-2.6,19C506.3,98.4,349.3,62.3,306,99.6z"/>
	<path class="st0" d="M98.9,280.3c-27.7,20.6-37.8,66.7-20.1,96.5c1.3-0.5,0.9-1.3,0.9-1.9c-0.7-14.8,2-32,14.6-41.5
		c3.1,0.8,5.5,1.2,8.3,2.4c5.2,3,9.3,7.7,14.4,10.8c-2.3,3.4-4.4,5.8-6.3,9.1c-6.6,12.8-16.7,23.4-27.7,32.7
		c-0.9-2.2-1.1-4.7-2.9-6.1c-8.4-4.4-14.8-11-20.5-18.6c-16.4-21.8-18.7-54.5-0.4-75.8c1.4-1.6,2.9-2.7,5.1-3.3
		c11.1-3,22.4-4.6,33.8-4.8C98.1,279.7,98.3,279.9,98.9,280.3z"/>
	<path class="st0" d="M327.5,136.9c44.1-20.6,135.4,6,170.7,37.3c-7,4.1-13.7,8.2-20.7,12.3c-15.6-27.9-76.6-37.8-106.6-38
		c-8.1,0.3-25.7,0.2-28.7,9.3C340.3,156.3,329.9,141.4,327.5,136.9z"/>
	<path class="st0" d="M446.3,197.3c-5.2-0.4-11.4-1-17.6-1.4c-1.6-0.1-2.4-0.9-2.9-2.3c-2.8-7.3-5.4-14.8-8.5-22
		c-1.3-2.6-2.4-3.1-5.2-2.3c-5.1,1.4-10.3,2.8-15.3,4.4c-8,2.6-16.3,3.5-24.4,5.4c-3.9,0.9-7.2,0.4-10.7-1.5
		c-6.1-3.4-12.8-6.5-16.9-12.4c-4-5.8,4.4-9.1,8.9-9.9c31.7-4.7,63.9,3.3,93.7,13.9C478.9,181.3,490,197.1,446.3,197.3z"/>
	<path class="st0" d="M515.3,101c-28.6-15.2-60.2-23.6-91.6-31c0.6-1.7,0.5-4,1.9-5.2c5.8-3.5,11.7-6.5,18.7-6.1
		c7.5,0.8,13.3,2.7,9.1,11.3c-1.3,4.2,4.8,4.2,7.2,2.6c6.8-3.8,9.8-12.3,9.7-19.8c-0.1-10.9-9.9-8.9-7.4-14.3
		c2.9-5.6,11.8-4.6,15.3-0.2c4.9,5.7-2.9,16.8-4.6,23c-3.3,10,11.3,11.2,17.1,6.5c2.5-1.7,4.6-3.8,6.5-6.3
		c7.1-6.9,10.9-32.3,22.7-28.9c9.3,3.3-12.2,12.2-8.3,17.4c4.4,5.1,11.2-2.5,14-6c5.3-6.5,8.2-15,14.8-20.3
		c7.3-5.9,13.3,7.3,7.9,12.2c-12.6,12.9-30.7,19.8-40.2,35.9c-5.2,7.6-8.8,20.1,5.4,15.6c5.1-1.2,16.8-11.2,20.8-5.3
		C537.9,91.4,521.7,83.3,515.3,101z"/>
	<path class="st0" d="M404.4,293.7c6.1,1.5,11.6,3.7,17.4,5.9c0.8,0.3,1.6,0.8,2.2,1.4c3.5,3.6,6.7,7.5,9,11.9
		c1.8,3.5,2.7,4.5-2.5,6.4c-23.9,6.5-49.2,6-73.8,6.2c-14.3-0.7-29.7,0.1-43.2-5.2c-3.3-2.1,0.1-5.3,1.6-7.4
		c5.3-7.1,11.6-14.7,20.6-15.9c-8.5,8.6,9.8,8.2,14.8,8.8c17.3,0.9,34.6,0.9,51.9,0.2c3.9-0.4,8-0.5,11.6-2.1c2.1-1.1,2.4-3.3,0.7-5
		c-1.9-2-4.8-2.5-7.5-2.6C405.2,296.2,405.2,296.2,404.4,293.7z"/>
	<path class="st0" d="M426.3,202c-3.5-1-6.5-1.8-9.5-2.7c0-0.2,0-0.4,0.1-0.5c3,0.6,6.8-0.4,4-3.9c-4.1-5.8-16.6-3.9-11.5,4.4
		c3.1,3.8,9.3,2,12.3,5.9c0.5,0.6,0.6,1.7-0.2,2.1c-3.2,0.8-3.8-4.5-7-4.1c-2.7,0.1-4,2.2-2.8,4.6c3.2,7,17.6,8.9,18.4-0.6
		c8,7.3,20.1,1.4,27.3,9.6c7.5,8.9-0.3,11.7-8.7,10.9c-5.5-0.1-11.1-0.4-16.6-0.5c-1,0-1.4-0.4-1.9-1.1c-1.5-2.2-2.9-4.4-4.5-6.4
		c-10.4-13.4-22.5,2.5-35.1-0.1c-3.1-0.2-6-0.9-9.1-0.6c0.1,0.7,0.1,1.2,0.2,2c-1.8,0-3.6,0-5.7,0c0.3,0.9,0.5,1.4,0.7,2.1
		c-1.4,0.4-8.2,1.2-4.8,3.4c0.2,0.1,0.4,0.2,0.6,0.5c-0.7,0.9-1.6,0.5-2.4,0.4c-5.3-0.4-10.7,0-15.7,2c-2.6,0.9-3.2,3.1-2.9,5.7
		c-5.7,0.7-3.8-2.9-1.8-6.1c-1.8-0.7-2.7,0.7-3.9,1.1c-1.2,0.5-2.3,1-3.4,1.5c-1.4-1.4-0.2-3.6-2.2-4.9c-1.1,0.9-1.6,2.3-2.4,3.5
		c-2.8,3.4-5.7,0.6-7.5-2.4c-2.2,4-4.1,9.4-8.7,4.2c1.6-1.3,3.4-2.4,4.7-3.9c1.3-1.5,2.1-3.4,3.2-5.1c0.9,0.4,2,1,3.2,1.3
		c2.5,0.5,5.8-1.8,4.8-4.7c3.4,0.3,6.8,1.4,9.7-1.2c7.2,4.8,17.8,3.4,21.9-4.7c4.2,2.4,8.5,2.6,12.8,0.4c1.8-0.9,3-2.4,3-4.5
		c0.3-4.1-6-5.5-7.7-2.1c-2.8,4.4-6.9-1-6-4.6c1.3,0.8,1.1,2.6,3.1,2.7c1.7,0.2,3.4-0.1,4.7-1.2c3.3-6.8-12-15.5-15.4-2.6
		c-10.6-3.1-15-2-19.6,5c-3.6-9.1-15-1.2-20.4,2c-3.1,1.6,2.1,7.4,3.1,9.7c-2.9,0-5.3,0.5-7.3,2.6c-0.5,0.4-0.6,1.2-0.8,1.9
		c-1.7,5.2-7.6-1.9-6.8-4.8c1.1-2.8,2.4,0.8,2.8,2.2c2.7-0.5,8.5-1.4,8.1-5c-0.4-2.4-1.6-4.2-3.9-4.9c-16.4-3.5-29,27.8,0.1,22.4
		c-0.7,2.7-1.2,5.1-3.8,6.5c-5.3-4.8-11.9-4.9-18.5-5.2c-1.7-8.3-12.9-6-18-2.4c-3.6,2.5-6.6,5.1-10.4,7.3c-0.4-1-0.7-1.8-1-2.7
		c21.8-14,44-29.2,69.3-35.9c18.1-3.6,36.1-8.1,54.4-11c8-1.4,16-2.2,24.2-2.3c2.1,0,3.5,0.6,4.4,2.5c2,3.2,2.7,7.1,5.6,9.8
		C425.5,200,425.7,201,426.3,202z M399.6,203.5c2.1-5.6,0.2-6.7-4.3-9.6c-3.7-1.5-3.4,3.5-3.9,6.1c-2.4-2.2-3.6-7.6-7.1-7.2
		c-1.8,0.6-7.4,0.4-5.8,3.5c2.9,4.1,6.6,7.7,8.8,12.4c2.6,5.3,5.9,6.9,11.7,4.8c0-0.7,0-1.3,0-2.2c4.1,2.2,9,6.2,12.2,0.6
		C408,208.2,403.5,206.4,399.6,203.5z M406.9,195.5c-0.4-3.6-1-5.6-5.2-3.9c-3.4,1.2-0.1,4,1.1,5.7
		C404.3,199.8,407.3,199.8,406.9,195.5z"/>
	<path class="st0" d="M5.3,374.6c18.5,18.8,46.3,26.2,72.1,24.5c2.8,0.1,8.4-3.2,7.5,2c-2,13.2-13.6,22.9-26.3,25.2
		c-30.8,6.3-54.1-22.6-53.9-51.4C4.9,374.7,5.1,374.6,5.3,374.6z"/>
	<path class="st0" d="M226.3,573.3c-5.4,2.5-11.1,1.5-16.5,0.1c-10.2-3.1-13.3-16.1-11-25.4c37.3,8.2,52.8-0.4,76-29.2
		c13.1,21.7-12.3,56.2-36.6,55.1c-5.1,0-7-1.7-7.9-6.7c-0.7-2,0.6-8.6-2-8.7C223.2,559.2,226.1,569.8,226.3,573.3z"/>
	<path class="st0" d="M500.4,267.1c6.9-4,9.7-7.1,9.8-11c-2.5,1.8-4.3,4.2-6.9,5.8c-4.2,2.7-9.7,0.2-10.4-4.9
		c4.6-1.7,9.4-3.4,11.7-8.2c-1.2-0.7-1.8,0.1-2.4,0.4c-4.2,2.7-8.9,4.2-13.7,5.1c-5,1.1-11.6-2.4-10.7-8.2c0.9-7,8.1-10.8,14.6-11.5
		c3.7-0.7,7.6-0.4,11.2-1.7c-9-2.9-20.7-2.3-26.8,6c-3-1.5-5.5-3.4-7.2-6.1c-3.4-7.6,3.6-16.8,11-19c3.5-1.1,7.1-1.3,10.7-2.1
		c-8-4-17.9,0.6-22.3,7.8c-7.8-2.9-7.3-9.7-3-15.5c-2.8-0.9-4.6,1.6-6.6,2.9c-0.6,0.5-1.1,0.9-1.9,0.6c-2.5-1-5-2-7.5-3
		c0.2-1.9,1.1-3.1,2.7-3.7c6.2-3.1,12.5,3.5,18.7,0.7c16.6-7.4,22.8,9.9,32.9,18.6c7.9,9.3,14.1,26.4,9.7,38.4
		C511.9,263.7,506.3,268.3,500.4,267.1z"/>
	<path class="st0" d="M414.1,171.8c2.6,4.9,3.6,9.9,5.7,15c-12.6-3-27.8,1.7-40.6,3.2c-12.6,2.1-24.9,5.7-37.5,7.8
		c-28.2,5.3-51.7,22.6-75.7,37.1c-1.4-3.2-2.7-6.2-3.9-9.1c18.3-11.1,33.3-27.7,54.5-33.8C349,184.6,382.4,182.4,414.1,171.8z"/>
	<path class="st0" d="M320.7,126.4c-1.4-2.4-2.7-4.5-4.1-6.9c42.9-30.4,165.1,6.3,199.4,42.1c-1.1,1.5-4.9,4.3-7.4,5.5
		C471.3,132.8,366.7,99.5,320.7,126.4z"/>
	<path class="st0" d="M507.4,169c-2.3,1.7-4.3,3.2-6.2,4.6c-38.9-33-126.8-59.5-175.1-38.6c-1.4-2-2.9-4.1-4.6-6.4
		C365.1,101.4,472.1,135,507.4,169z"/>
	<path class="st0" d="M123.1,300.8c-0.3,3.7-2,6.8-4.7,9.3c-3.1,3.7,3.5,4.6,5.9,3.4c3.4-1.1,5.4-3.5,7.8-6c1.1,6.1-2,11.8-7.3,14.9
		c-0.8,0.4-1.6,0.8-1.5,1.9c1.5,4.9,13.6,0.7,16.3-2.1c-5.3,8.8-8.7,18.1-10.9,28.1c-6.5-2.9-12.2-7.6-17.8-12
		c-3.6-3-6.9-5.7-11.6-7.2c2-2.5,4.6-4.2,7-6.3c2.7-1.6,2.5-3.5-0.7-4c-4.7-1.6-9.5-3-13.6-5.9c0-0.2,0-0.4,0.1-0.6
		c5.8-1.5,11-4.7,12.4-10.9c0.3-1.9,1.4-5.7-0.5-7.1c-0.7-0.4-1.4,0-1.8,0.7c-2.1,3.2-7.7,3.4-11,3.1c13-10.4,14.3-18.5,17.3-34
		c0.4-1.9,0.4-1.9,2.9-3.2c-0.1,3.7-1.5,7.1-1.8,10.7c0.2,1.6,1.5,2.8,2.7,1.2c2.3-2.6,4.3-5.5,7.6-6.9c-3.6,11.8-5.6,13.1-5,26.4
		c0,2.2-0.3,4.4-1.2,6.5c-1.1,2.3,0.1,3.9,2.7,3.9C119.2,304.6,121.3,302.7,123.1,300.8z"/>
	<path class="st0" d="M57.4,286.8c-24.1,30.4-11.5,77.7,21.2,96.4c0.7,0.4,1.4,0.7,1.3,1.9c-7.7,2-19.1-7.9-25.2-12.3
		c-18.8-13.9-30.6-37.7-28.7-61.1C28.2,298.2,46.3,291.7,57.4,286.8z"/>
	<path class="st0" d="M160.1,85.1c-2.4,3.4-5.1,11,2,6.9c-4.9,6.9-0.1,13.2,6.6,15.9c7.6,3.8,15.7,3,23.9,3.4c-4,3.1-8.1,6-11.7,9.4
		c-4.2,4.3-7.1,9.7-11.1,14.2c-2.9,3.2-6.5,5.1-10.9,5.9c-9.6,1.9-18.7,6.6-24.5,14.6c-0.1-2.5,1.4-3.5,2.1-5.3
		c0-2.9,1.3-5.4,2.5-7.9c2.6-5.6,3.3-11.6,3.4-17.6c0.1-4.3-0.8-8.5,0.1-12.8c0.5,1.4,0,4.5,2.1,4.5c1.3-0.1,1.4-1.1,1.5-2.1
		C148.7,104.5,149.7,89.7,160.1,85.1z"/>
	<path class="st0" d="M269.1,385.3c-41.9,10.9-85.9,27.5-116,59.7c-0.6-2.7-0.8-4.8-1.4-7.4c-0.6-1.9-0.2-3.7,1-5.1
		c9-10.8,20.9-18.5,32.7-25.9c23.1-14.3,48.1-23.9,74.2-31.1c1.1-0.3,1.8-0.3,2.6,0.7C264.4,379.5,267,382.2,269.1,385.3z"/>
	<path class="st0" d="M103.6,431.2c-5.4-8.6-10-17.5-14.2-26.7c13.3-10.4,28-20,37.1-34.5c0.7-0.9,0.8-1.9,2-2.3
		c2.1,11.5,6.1,22.4,10.4,33.4C126.3,410.2,113.4,418.8,103.6,431.2z"/>
	<path class="st0" d="M70.9,385.4c-25.8-0.3-48.7-17-63.6-37.1c-5.2-9.3,10.2-34.1,17.5-40.7c-2.9,18.9,4,38.7,15.7,53.8
		C48.7,371.8,59.9,378.6,70.9,385.4z"/>
	<path class="st0" d="M83.8,395.9c-24.1,6.5-61.1-4-77.6-23.3c-2.5-3.1-4-6.4-3.4-10.5c0.9-4.8,0.7-9.6,2.1-14.3
		c16.8,23.5,44.3,42.1,74.2,39c0.8-0.1,1.6,0,1.9,1C81.9,390.5,82.8,393.2,83.8,395.9z"/>
	<path class="st0" d="M101.9,301.5c-3.8,13.9-17.1,6.4-14.8,11.5c3.1,6,9.8,8,15.8,10.1c-3.8,3.9-7.8,7.5-12,11
		c-10.8,9.2-12.4,24-13,37.3c-14.2-27.9-3.6-70.9,21.4-89.7c0.9-0.8,1-0.8,2.8-0.7c-2.7,7.5-8.3,13.1-14.6,17.7
		c-0.8,0.5-1.7,1-1.5,2.2C87.4,305.5,98.5,302.6,101.9,301.5z"/>
	<path class="st0" d="M142.9,476.1c-6.6-3.9-22.9-21-27.2-27.7c3.2-5.7,24.8-26.6,30-28.8c1.6,7.2,2.5,14.4,3.5,21.6
		c0.1,1.1,0,2.2-0.3,3.2C146,454.8,143.4,465.1,142.9,476.1z"/>
	<path class="st0" d="M498.7,276.1c-17.1-3.4-33.1,4-49.4,8.2c-5.1,1.1-10.4,0-15.5,0.7c0.1,0.9,0.2,1.6,0.2,2.5
		c-7.3,2.2-15.2,2.9-22.7,4.6c-2.7,0.5-5.3,0.5-8-0.1c-2.9-0.8-6.3-0.3-9.1-1.4c-6-4-8.7,2-10.8-1.1c18.5-3.1,37-6.6,54.9-12.3
		c15.4-4.4,30.3-10.5,46.1-13.5c2.4-0.3,5.7-0.9,7.7,0.9C495,267.9,497.6,271.5,498.7,276.1z"/>
	<path class="st0" d="M88.4,403c-1.9-3.5-2.7-7.1-4.3-10.7c-0.7-1.7-0.1-2.7,1.2-3.8c9.5-8.3,18.4-17.7,24.8-28.7
		c2.2-4.3,5-8.4,8.1-12c3.3,2,6.7,3.9,10.1,5.9c0.1,2.2-0.2,4.7-0.1,6.9c0.4,2.6-0.5,4.7-1.9,6.9C117.2,382.7,102.1,392.4,88.4,403z
		"/>
	<path class="st0" d="M334.9,301.1c0.8-2.9,3.7-3,6.1-3.1c3.1,0.2,2.9-4.4,7-3.9c4,0.6,5,3.8,9.5,0.8c1.8-1.3,3.2-3,4.5-4.9
		c4-5.1,6.7,1.8,11.1-2.1c0.8-0.6,1.7-1.2,2.7-1.5c7.1-2.3,4.4,8.6,11.9,4.5c5.9-2.4,6.1,4.1,10.8,2.8c2.8-0.7,4.2,0.4,5.8,3.7
		c2.4-0.4,14.3,1.9,8.6,5.3c-22.5,4-45.8,2-68.6,0.9C341,303.4,337.5,303.2,334.9,301.1z"/>
	<path class="st0" d="M114.3,446.9c-3-4.1-5.5-8-8.1-12.2c-1.4-2.2-1.4-2.6,0.4-4.6c9.5-10.9,21.2-19.2,33-27.5
		c1.9,4.3,3.3,8.3,4.9,12.6c0.8,2.2,0.7,2.2-1.2,3.7C132.6,427.3,123.2,436.9,114.3,446.9z"/>
	<path class="st0" d="M303.1,109.4c-3.5-1-6.6-1.9-9.6-2.8c-1-0.3-1.3-1.1-1.6-1.9c-1.7-4.1-3.9-8-6.9-11.3
		c-10.8-13.1-29.1-6.2-39.7,3.6c-4.3,4.3-8,2.7-13.5,3.4C259.2,74,289.3,65.5,303.1,109.4z"/>
	<path class="st0" d="M447.8,259.8c3.2-3.3,5.1-7,5.6-11.3c0.1-1.8,0.1-1.8-1.8-2.5c0.2-3.6,0.6-4.9,4.1-6c6.1-3,13.3-4.4,15.3,4
		c0.1,4.8-4.9,5.5,0.3,10.9c8.4,8.5,15.4-1.1,17.2,6.1c-8.1,1.1-16,3-23.7,5.7c-1.9,0.6-3.4,0.5-5.2-0.2
		C455.3,264.7,452,262,447.8,259.8z"/>
	<path class="st0" d="M307.3,82.9c30.7-31.4,111.2-12.7,149.7-2.4c24.6,7.3,75.5,22.1,83,49.2C514.2,83.5,349,47,307.7,83.3
		C307.6,83.2,307.5,83.1,307.3,82.9z"/>
	<path class="st0" d="M324.7,263.1c0.7,0.5,1.3,0.8,2.1,1.3c1.9-1.7,3.3-3.8,4.6-5.9c0.7-1.1,1.5-1.4,2.8-1c2,0.3,8.7,2.9,9.6,0.7
		c-2.1-2.3-4.1-4.8-4.6-8c1,0.3,1.9,0.4,2.9,0.7c2.2-8.1-0.2-6.1,9.8-6.5c-0.5-1-0.8-1.6-1-2.2c0.1-1,3.4-0.9,4-0.3
		c1.8,2.1,3.4,3.9,5.7,5.7c-1.2,3.1-3.1,5.4-6.3,6.2c-0.3,1.8,1.3,1.8,2,2.6c0,0.7-0.1,1.5-0.1,2.3c1.5,0.7,1.8-1.1,3.1-1.3
		c0,0.6,0.1,1.2,0.1,2.1c-13.2,0.8-26.7,4.9-34.4,16.5c-3,3.8-2.1,8.3-1.4,12.7c-3.6-4.4-8.5-6.4-13.6-8.6
		C317.9,276.1,325.6,274.1,324.7,263.1z"/>
	<path class="st0" d="M466.5,222.6c-2.4,5-2,9.8,1.9,14.4c-3-0.9-5.9-1.6-8.8-0.2c-4.2,1.8-8.3,3.6-12.6,5.4c-0.4-1.5,1-2.9-0.2-4.3
		c-1.5,0.2-3,0.4-4.8,0.6c-0.1-0.7-0.2-1.3-0.2-1.9c-4.2-1.3-9.4-1.9-10.1-7.3c8.7-1.7,17.9,2.3,26.4-0.8c2.6-1,3.9-3.3,3.6-6
		c-1.2-6.8-7.9-11.1-14.5-11.7c-10.6-1.3-15.9-0.5-20.6-11.7c10.9,3.3,21.1,8,31.5,12.4c0.8,0.4,1.5,0.7,1.7,1.8
		c0.4,3.8,2.5,6.6,5.8,8.6C466,221.8,466.2,221.9,466.5,222.6z"/>
	<path class="st0" d="M196.5,370.6c-15.6,8.4-37.2,0.9-44.7-15.3c-8.8-20.7,1.2-45.9,17.2-60c-9.9,13.2-17.6,29.7-15.3,46.6
		C156.3,361.8,177.7,373.5,196.5,370.6z"/>
	<path class="st0" d="M289.9,105.6c-15-3.3-29.2-4.9-44.4-5.6C260.7,84.6,280.9,82.4,289.9,105.6z"/>
	<path class="st0" d="M385.5,270.1c-1.2,1.7-2.1,3.1-3.2,4.7c-7-4.9-14.2-8.7-22.9-8.7c-3.6,0.2-7.6-0.1-10.8,1.9
		c-5.4,1.7-10.9,4-13.1,9.6c0.8,0.4,1.4,0.7,2.3,1.2c-4.9,1.4-5.6,5.8-7.5,9.6c-1.1,2.5-1.1,2.5-4.1,2.3
		c-9.1-15.6,12.9-27.7,26.1-28.8c2.1-0.2,4.2-0.4,6.4-0.7c0.6,1,1.1,2,1.7,3.1c0.6-0.7,1-1.1,1.3-1.5
		C369,267.9,377.1,269.1,385.5,270.1z"/>
	<path class="st0" d="M486.6,292.8c-15.4,0.6-30.7,0.1-46.1,0.4c-2.7,0-2.7,0-3.5-2.5c-0.5-1.4-0.9-2.8-1.3-4.2c17.1,0,34,0,51.2,0
		C486.8,288.7,486.7,290.7,486.6,292.8z"/>
	<path class="st0" d="M150,446.7c2.7,3.6,2.9,3.6,5.5,1.1c0.5,6.5-1.2,13.4-0.9,20c0,5.9,0.8,11.6,1.2,17.6
		c-3.4-1.4-5.9-3.8-8.9-5.7c-1.8-1.2-2.5-2.9-2.3-4.9C145,465.4,147.5,455.9,150,446.7z"/>
	<path class="st0" d="M177.5,249.8c-0.1,2.7-0.8,5.1,0,7.6c1,1.7,2.2-0.3,2-1.6c1-7.8,9-9.1,14-13.6c-0.4,3.9-1.5,7.6-2.1,11.5
		c-0.5,2.6-1.2,5.1-2.7,7.3c-3.3,5.9-15.4,8.2-16.3-0.4C172.4,256.3,171.9,250.3,177.5,249.8z"/>
	<path class="st0" d="M315.8,218.8c-0.5-1-0.8-1.7-1.2-2.2c-1-1.9-3.9-1.3-4.3,0.8c-1.8,5.1,7.5,13.3,9.5,6.6
		c0.4-2.5,2.2-3.4,4.2-3.8c9.3-0.2-1.9,15.3-15.9,11.3c-11.8-3.7-1.5-19.7,7.4-20c2.6-0.3,4.7,1.1,5.4,3.3c0.3,1,0.1,1.8-0.8,2.2
		C318.8,217.7,317.4,218.2,315.8,218.8z"/>
	<path class="st0" d="M163.3,196.9c-4.8-0.1-6.5,0.4-9.3,2.4c3.6,3.6,0.9,9.4-4.4,7.3c-1,6,3.6,11,9.4,11.5c-4,8-12.8,0.2-14.1-5.5
		c-2.5-9.1,4.4-21.2,14.5-20.7C162.4,191.7,162.4,194.6,163.3,196.9z"/>
	<path class="st0" d="M219.5,146.4c-4.7,6.2-3.6,15.5,4.4,18.2c-1.6,0.5-2.7,0.1-3.7-0.4c-14.8-8.7-2.6-29.5,11.7-25.9
		c4.6,0.9,12.1,4.9,9.2,10.5c-0.7,1.3-1.3,2.6-2.7,4.2c1.2-7.3-5.5-10.9-11.8-9.9C227.7,148.6,223.4,150.8,219.5,146.4z"/>
	<path class="st0" d="M358.5,63.9c-2.6-0.1-9.3,1.3-10.3-0.1c-3.7-4.4-7,0.9-10.5-1.4c-1.2-0.8-1.8-2-1.5-3.5
		c1.2-8.2,13.7-11,18.5-3.1C356,58.4,357,61,358.5,63.9z"/>
	<path class="st0" d="M323.7,210.5c5.2-2.9,10.3-7,16.2-6c5,1.8-0.1,5.8-1.6,8.4c1.8,1.2,6.8,2.3,7.3,4c-1.5,3.4-6,1-8.7,0.7
		c-1.6-0.4-2.3,0.2-1.7,1.7c0.5,1,1.3,1.9-0.1,2.8C330.3,225.7,326.2,213.7,323.7,210.5z M331.5,208.1c-3.6,0.2-1.4,4.8,1.1,4.9
		c1.3,0.2,2.2-0.7,2.1-1.9C334.6,209.6,333,208.1,331.5,208.1z"/>
	<path class="st0" d="M111.5,235.7c-8.7-15.7-7.7-45.1,11.4-52.3c-0.5,1.6-0.9,6.8-2.5,7.3c-12,6.2-13.8,23-8.6,34.3
		c1.9,3.6,0.9,7,0.1,10.7C111.8,235.7,111.6,235.7,111.5,235.7z"/>
	<path class="st0" d="M159.1,189.5c-16.8,0.4-23.9,27.2-7.2,33.6c-2.6,1.9-3.3,1.9-5.4,0.3c-2-1.5-3.6-3.4-4.7-5.6
		c-5.6-10.3-3.6-27,9-30.7C154.1,186.2,156.9,187.1,159.1,189.5z"/>
	<path class="st0" d="M243.8,144.4c-9-15.4-34.1-7.9-32.6,10c-4.9-12.7,8.1-26.1,21.4-21.9C237.2,133.9,245.9,138.4,243.8,144.4z"/>
	<path class="st0" d="M375.6,214.3c-4-0.1-6.7-2.7-9-5.7c-2.5-3-2.4-6.3-0.2-9.7c1.2-1.8,2.9-2.6,5.1-2.2c2.8,0.5,5,1.9,6.1,4.7
		c0.6,1.5,0.3,2-1.2,2.4c-1.9,0.6-2.4,0.4-3.4-1.4c-0.8-2.5-4.2-1.3-3.7,1c0.3,1.7,0.7,3.5,1.5,4.9c1.9,3.2,5.3,3.2,7.4,0.1
		c0.5-0.8,1-1.4,2.1-1.4c2.4-0.3,4,2.7,2.2,4.4C380.8,213.5,378,213.6,375.6,214.3z"/>
	<path class="st0" d="M384.2,64.6c-6.5,0.1-12.3-0.4-18.7-0.6c-1.6-0.1-2.1-0.6-2.1-2.2c-0.1-1.9,0.9-3.2,2.5-4
		C372.8,54,380.2,58,384.2,64.6z"/>
	<path class="st0" d="M119.7,193.4c0.2,3.3-4.8,25.8-6.3,29.1C109.2,215.7,110.8,198.7,119.7,193.4z"/>
	<path class="st0" d="M392.5,65.3c1.1-1.5,2.9-4,0.2-4.7c-2.7-0.8-5,0.4-7.3,1.9c-1.3-1.4-2.5-2.8-3.8-4.1c3.6-5.3,19.1-7.8,17,2.1
		c-0.2,1.1-0.7,2.3-1.3,3.3C396,66.2,395.5,66.3,392.5,65.3z"/>
	<path class="st0" d="M316,241.2c2.1-2.2,3.4-4.5,4.4-7.5c5.4,3.5,6.6,2.5,10.1-2.5c3.7,3.6,5.6,1.9,9.5-0.3c1.2,2.6,1.2,2.6,6,1
		c-0.2,2.1,0.1,4,2.5,4.7c-2.5,2.5-2.6,3-1,6.1c-5.2,0.5-5.5,1-6.5,6.1c-2.5-0.5-4.8-1.1-7.3-1.6c2.9-2.5,6.8-3.6,9.3-6.6
		c2.4-2.7,1.5-5.7-2-6.4c-8.9-1.5-17.4,2.8-24.7,7.4C316.2,241.4,316.1,241.3,316,241.2z"/>
	<path class="st0" d="M345.7,212.5c-4.2-13.2,19.2-13.2,17.5-6.4c-1.4-0.1-2.8,0.1-3.7,1.5c-0.1,0.2-0.6,0.3-0.9,0.3
		c-2.1,0-4,1.5-6.2,1.1c-0.6,0.1-1.5,1.5-2.3,1.4C348.3,209.9,347,210.9,345.7,212.5z"/>
	<path class="st0" d="M415.5,68.7c2.1-5.5-3-4.8-6.6-4c-2.5,0.5-4.4,3.2-7.1,1.7c3.4-5.2,9.7-7,15.6-6.2c3.6,0.3,6.3,3.7,4.9,7.2
		C421.4,70.7,418.1,69,415.5,68.7z"/>
	<path class="st0" d="M347.8,216.4c0.3-0.3,0.4-0.5,0.5-0.5c2.5-0.4,4.9-1.5,7.4-1.3c1.7,0.1,2.5-0.8,3-1.6c1.8-0.4,3-1.2,4.5-1.2
		c1.2,0.7,2.1-0.1,3-0.7c1.7,1.2,1.7,1.2,0.8,2.7c-3.1,4.7-6.6,6.7-14,5.3C351,218.9,349.1,218.3,347.8,216.4z"/>
	<path class="st0" d="M326.8,262.5c-1.5-1.8-3.4-6.4-3.8-9c2.6-0.7,4.3,1.5,6.7,2.3c1.4-2.8,2-8.4,6.4-6.6c1.9,0.8,3.1,5.9,4.3,8
		C330,256.2,333.7,252.5,326.8,262.5z"/>
	<path class="st0" d="M498.7,270.1c7.5,1.2,12.6-2.1,16.9-7.5c-0.6,4.5-7.1,13-12.5,16.2C500.9,276.4,500,273.4,498.7,270.1z"/>
	<path class="st0" d="M324.7,296.6c0.2-2.1,1.8-3.7,3.6-3.8c3.8-0.2,7.6-0.4,11.4-0.6c6.3-0.2,12.7-1,19-0.8
		c-0.1,1.2-0.9,1.4-1.7,1.4c-2.6,0-5.1,0.8-7.8,0c-1.1-0.3-2.6-0.2-3.7,0.4c-1.9,1-4,1.1-5.9,1.5c-2.5,0.6-5,1-7.4,1.7
		C329.7,297.1,327.2,296.6,324.7,296.6z"/>
	<path class="st0" d="M421.6,202.4c2.6,0.3,4.5,1.3,5.9,3.2c3.8,6.8-8.6,10.2-14.2,2c-1.9-2.1,1.4-3.9,2.7-2
		c0.8,0.9,1.5,1.9,2.4,2.6C423.2,211.7,425.1,205.9,421.6,202.4z"/>
	<path class="st0" d="M109.6,261.2c1.4-5.7,2.4-10.6,3.8-16.1c0.6-3.1,7.1-5.4,10.2-6.8C109.7,251.6,115.9,259.4,109.6,261.2z"/>
	<path class="st0" d="M470.8,239c1.6,1,2.9,1.8,4.2,2.7c-1.9,6-0.4,11,4.9,15.2c-3.5,0.7-11.3-4.3-8.8-8.1
		C474,245.4,472.4,242.5,470.8,239z"/>
	<path class="st0" d="M420,197.3c-2,0.5-4.9-1.6-6,0c-0.7,1.4,0.7,1.9,1,3.2c-11.8-2.7-1.8-12.8,5.2-4
		C420.1,196.8,420.1,197.1,420,197.3z"/>
	<path class="st0" d="M356.6,213.1c-1.1-0.2-2.4-0.7-3.3-0.3c-1.2,1.2-2.6,1-4,1c-1.1,0.1-2.1,0.9-3.3,0.7c3.6-4.7,3.5-1,7.6-4
		c0.9,0.2,2.4,0.6,3.6-0.8c1.2-0.5,2.6,0.1,3.6-1.3c2.3-2.2,5.9,1.6,3,1.8c-2-1.3-2.3,0.6-3.8,0.8
		C358.3,210.6,357.3,211.5,356.6,213.1z"/>
	<path class="st0" d="M434.8,198.5c4.8,0.2,9.4,0.4,14.1,0.7c-0.8,1.5-1.4,2.8-2.1,4.2C444.7,203.1,436.5,199.9,434.8,198.5z"/>
	<path class="st0" d="M331.1,248.6c-0.7,1.5-1.5,3.1-2.4,5c-3.2-1.8-6.5-3.1-9.2,0.7c-1.3-0.6-2.6-1.1-3.9-1.7
		C320.8,251.2,325.9,249.9,331.1,248.6z"/>
	<path class="st0" d="M162.9,208.7c-0.2,4.2-6,4.1-6-0.1C157.2,204.4,162.8,204.5,162.9,208.7z"/>
	<path class="st0" d="M223.3,152.8c3.9-0.1,4.1,5.9,0.2,6.1C219.5,158.9,219.1,153,223.3,152.8z"/>
	<path class="st0" d="M329.5,241.5c1.2,0.3,2.4,0.6,3.8,0.9c-1.2,1.3-1.2,1.3-5,0.6c0.5,1,0.4,2-0.5,2.5c-1.7,0.3-3.3-3.2-4.6-4.3
		c1.3-2,2.7-0.5,3.9-0.2c0.5-0.9,1-1.6,1.5-2.5C329.7,239.3,329,240.4,329.5,241.5z"/>
	<path class="st0" d="M338.7,239.1c-0.6-0.1-1.2-0.1-1.8-0.2c2-3.6,5,0.4,2.7,1.7c-3.2,2.7-10.2-0.2-6-4c1.4-0.7,3.1-1.8,4.6-0.8
		c0,0.2,0,0.4,0,0.6c-1.4,0.4-4,0-4,2.1c0.2,2.4,3.1,1.5,4.6,1.3C338.7,239.5,338.7,239.3,338.7,239.1z"/>
	<path class="st0" d="M320.7,246.6c0.9,0,1.7,0,2.7,0c-1.3,1.5-4.2,2.6-6.5,2.4c0.6-1.4,2.5-2.7,1.7-4.1c-0.2-0.4-0.3-1.2-0.1-1.4
		c0.9-0.8,2.3,0,2.5,1.1C321.2,245.2,320.9,245.9,320.7,246.6z"/>
	<path class="st0" d="M353.2,239.8c-2,0.3-3.7,1.6-6-0.1c1.7-1,3-1.7,4.6-2.7C352.4,238,352.7,238.8,353.2,239.8z"/>
	<path class="st0" d="M413.9,66.4c-0.9,2.2-2.3,2.3-5.4,0.8C410.2,66.2,411.9,65.8,413.9,66.4z"/>
	<path class="st0" d="M391.6,62.6c-2,2.8-2.2,2.9-4.6,2.3C387.7,63.1,389,62.4,391.6,62.6z"/>
	<path class="st0" d="M320.8,302.8c1.4-1.9,1.8-5.4,4.8-3.7c-1.5,1.3-3.1,2.6-4.6,3.9C321,303,320.9,302.9,320.8,302.8z"/>
	<path class="st0" d="M344.1,213.6c-1.4-0.4-1.9-0.7-3.2-1.3c0.9-1.3,1.3-1.9,2.5-3.2C343.6,210.7,343.8,211.9,344.1,213.6z"/>
	<path class="st0" d="M462.7,364.2c1.9-0.7,3.8-1.4,5.9-2.1C467.5,363.5,466.8,363.8,462.7,364.2z"/>
	<path class="st0" d="M345.2,64.9c-1.2,0.2-2.3,0.3-3.5,0.5c1-1.1,2.1-1.7,3.4-1C345.2,64.5,345.2,64.7,345.2,64.9z"/>
	<path class="st0" d="M306.6,108c0.5,0.9,0.9,1.7,1.5,2.7C306.5,110.3,306.5,110.3,306.6,108z"/>
	<path class="st0" d="M425,48.2c-4.1,0.3-8.4-1-11.3-3.9c-7-10.1,11.9-11.1,17.8-8.5c5,1.3,8.3,7.4,2.7,10.5
		C431.3,47.8,428.2,48,425,48.2z M428.2,43.3c2.1-0.2,5.8-0.4,3.9-3.1c-1.6-2.5-13.6-5.6-10.9,0.5C422.8,42.8,426.2,42.8,428.2,43.3
		z"/>
	<path class="st0" d="M408.1,28c-3.3-0.8-7.1-0.9-9.5-3.6c-3.4-3.3-0.8-8.1,3-9.7c2.8-1.5,5.9-2.2,9.1-2.5c6.8-1,14.9,7.1,7.7,12.4
		C415.4,26.9,411.9,27.9,408.1,28z M409.1,15.8c-2.7,0.5-5.9,0.1-6.2,3.3c-0.1,3.2,7.4,3.4,9.7,3.3c3.3,0.1,5.6-4,1.8-5.3
		C412.6,16.5,410.6,16.1,409.1,15.8z"/>
	<path class="st0" d="M498.7,25.8c0.1-7.1-1.9-14.3-0.9-21.4c1.8-5,8.1-1.5,7.5,2.8c-0.1,6.7-2.6,13-6,18.7
		C499.2,25.9,498.9,25.9,498.7,25.8z"/>
	<path class="st0" d="M449.7,9.7c4.6,0.7,8.2,3.2,10.3,7.5c0.5,1,0.6,2.4,0.4,3.4c-1.1,4.4-2.9,4.5-5.9,3.4
		c-3.5-1.2-6.6-3.2-8.6-6.3C443,13.4,444,9.6,449.7,9.7z M451.9,10.8c-1.6,0-2.1,0.8-1.4,1.9c1.7,2.4,3.3,5.4,6.3,6.5
		c0.5,0.2,1.4,0.1,1.7-0.2c0.4-0.6,0.4-2-0.2-2.6C456.2,14.6,454.5,11.6,451.9,10.8z"/>
	<path class="st0" d="M544.3,73.9c3.9-3.2,6.8-6.7,11-9C561.8,62.6,557.6,76.5,544.3,73.9z"/>
	<path class="st0" d="M512.2,16.4c1.1-2.2,2.6-3.9,4.6-5c1.9-1.3,4.7-0.9,3.1,1.8C517.8,15.1,514.8,15.4,512.2,16.4z"/>
	<path class="st0" d="M350.2,30.9c6.3-0.2,8.5,8.9,3.9,8C349.5,38.6,341.7,32.1,350.2,30.9z"/>
	<path class="st0" d="M331.3,21.6c-0.6-0.5-1.1-0.7-1.3-1.1c-0.6-0.9,0.2-3,1.2-3.2C335.7,17.3,333.5,20,331.3,21.6z"/>
	<path class="st0" d="M491.1,304.9c0,1.5,0,2.7,0,4.2c-16.6,0.4-33,0.6-49.7,0.9c-0.1-1.1-0.3-1.9-0.4-3.1
		C457.8,306.1,474.4,305.4,491.1,304.9z"/>
	<path class="st0" d="M227.3,277.6c0.4-5.9,2.8-10.6,7.3-14.2c2.7-2.4,7.4-2.5,8.5,1.6c1.3,7.3,1.4,14.8,3,22.1
		c0,1.9-0.7,3.4-2.6,4.1C234.8,295.2,227.1,285.8,227.3,277.6z"/>
	<path class="st0" d="M210.3,285.1c0.1,4.9,0.7,9.6,2.6,14.2c0.8,1.9,1.3,3.9,1.5,6c0.6,8.9-7.6,14.8-12.8,4.9
		C192.5,296.6,211.2,265.3,210.3,285.1z"/>
	<path class="st0" d="M178.3,299.8c0.1,8.1-2.5,16.3-0.2,24.3c2.2,6.7-2.1,13.8-7.4,5.7c-4-9.9-1.8-23.4,6.9-30.3
		C177.8,299.6,178,299.7,178.3,299.8z"/>
	<path class="st0" d="M193.3,291.3c-3.5,9.9-2.2,13.5-0.7,23.3c0.3,2.2-0.4,5.7-2.7,5.9c-1.4,0.2-2.5-0.6-3.2-2.6
		C184.3,310.2,185.8,295.6,193.3,291.3z"/>
	<path class="st0" d="M406.2,237.2c1.1-1.1,3.4-1.7,4-0.1C409.6,238.7,407.3,238.5,406.2,237.2z"/>
	<path class="st0" d="M379.6,244.8c-1,0.6-3.4,1-3.2-0.8c1-1.5,2.2-0.9,3.3,0.2C379.7,244.4,379.6,244.6,379.6,244.8z"/>
	<path class="st0" d="M536.8,450.7c2.6-12.3,11.7-23.9,24.4-26.8c4.2-1,8.3-2.2,12.4-3.2c3.1-0.8,4.6,0.6,4,3.7
		c-2,7.8-6.6,14.7-12.9,19.7C559.8,447.8,537.4,464.4,536.8,450.7z"/>
	<path class="st0" d="M570.6,396.3c6.7-0.2,4.6,8,1.2,11C562.2,414,559.7,395.8,570.6,396.3z"/>
	<path class="st0" d="M548.6,418.2c-2.1,0-3.1-0.9-2.8-2.8c0.5-4.6,3.6-8.7,8.4-9.3C562,406.7,555,418.8,548.6,418.2z"/>
	<path class="st0" d="M579.1,407.1c0.2-2.3,1.1-4.7,3.2-6.5c2.9-2.7,8,0.1,6.6,4.1C587.8,409.7,579.8,415.7,579.1,407.1z"/>
	<path class="st0" d="M397.1,212.4c-4.4,1.6-6-0.1-8-3.5c-2.3-4.9-5.9-8.8-9.2-13.1c2.1-1.5,5.4-2.2,6.8,0.3c1.9,2.8,3.1,5.2,5.3,8
		c1.4-3,0.8-6,2-8.9c9.7,4.2,1.2,7.6,5.1,10.1c3.4,2.2,6.9,4.2,10,6.7c-1.8,1.7-2.4,1.8-4.1,0.9c-3.1-1.6-5.2-3.1-8.6-4.6
		C396.7,210,396.9,211.1,397.1,212.4z"/>
	<path class="st0" d="M401.5,193.2c1.2-0.3,2-0.6,3.2-0.9c0.3,1.7,0.5,3.2,0.8,5.2C403.6,196.3,403.1,194.6,401.5,193.2z"/>
	<path class="st0" d="M331.8,209.6c0.5,0.4,0.9,0.9,1.4,1.3c-0.1,0.2-0.3,0.3-0.4,0.5c-0.5-0.4-1-0.8-1.5-1.1
		C331.4,210.1,331.6,209.9,331.8,209.6z"/>
	<path class="st0" d="M428.9,41c-2,0-4,0.2-6.1-1.5C425.5,39.1,427.3,39.6,428.9,41z"/>
	<path class="st0" d="M405.1,18.9c2.5-1.6,6.8-1.3,8.9,0.5C412.2,20.9,408.5,20.8,405.1,18.9z"/>
</g>
</svg>
