<?xml version="1.0" encoding="utf-8"?>
<!-- Generator: Adobe Illustrator 26.0.0, SVG Export Plug-In . SVG Version: 6.00 Build 0)  -->
<svg version="1.1" id="Capa_1" xmlns="http://www.w3.org/2000/svg" xmlns:xlink="http://www.w3.org/1999/xlink" x="0px" y="0px"
	 viewBox="0 0 595.3 688.4" style="enable-background:new 0 0 595.3 688.4;" xml:space="preserve">
<style type="text/css">
	.st0{fill:#FFFFFF;}
</style>
<g>
	<path d="M575.1,132.9c-2.1,0.1-4.1,0.7-6.2,1.1c-2.7-2.8-0.7-7.2-2.2-10.6c-0.7-2-2.6-2.4-4.5-1.2c-2.4,1.4-5.1,2.9-5.4,6
		c-3.8-2.3-6.2,1.5-9.4,2.7c-2.1,0.8-2.2,2.6-2.7,4.6c-2.7-1.3-3.9,1.2-5.7,1.8c-2.6,0.8-2.7,2.9-2.9,5.3c-3.9-2.9-6.1,1.1-9.4,2.2
		c-2.5,0.8-2.7,3.1-2.8,5.3c-3.3-2.4-5.2,0.9-8,2.2c-1.9,0.8-2.4,2.3-2.3,4.1c0.2,5.3,7.5,2.5,8.9,7c-2.8,1.9-5.5,4-8.9,5.8
		c-1-4.1,2.3-9.9-1.6-12.3c-3.2-1.5-5.4,2.1-8.2,3c-3.4,1.2-3.3,6.5,0,7.6c2.6,1.2,5.7,0.5,7.7,3.3c-3.8,3.2-11.9,6-9.5,12.2
		c1.8,4.6,3.2,9.9-0.3,14.1c-13.8,17-26.7,34.7-40.9,51.3c-0.4-8-0.4-15.8-2-23.7c-1.9-10.1-6.1-19.3-11.1-28.1
		c-0.9-1.6-1.2-3.1-0.9-4.9c1.5-19.1,13.8-34.7,16.9-53.3c4.8-28.3,4.1-57.3,1-85.7c-2-27.5-15.7-53.7-46.8-52.5
		c-42.9,0.4-73.3,18.2-106.5,43.2c-1.4,0.9-2.6,1.3-4.3,0.9c-17.1-3-34.3-0.3-51,3.6c-0.1-0.2-0.2-0.4-0.2-0.5
		c12.6-8.2,27.1-12.7,41.7-15.5c2.7-2.4-0.7-3.7-3-3.4c-6.2,0.4-12.4,0.5-18.6,1.3c-15.8,1.9-30,8.2-44.1,15.2
		c6.2-7.4,15.5-11.5,24.6-14.4c4.4-1.3,8.9-1.9,13.4-2.8c1.1-0.2,2.2-0.3,2.2-1.7c0.1-2.7-5.1-2.1-6.9-2.6
		c-27.9-1-53.2,16.8-62,43.4c-0.3,0.7-0.5,1.7-1.5,1.3c-1.7-1.7-0.5-5-0.6-7.3c0.5-6.4,1.8-12.7,4-18.7c0.4-1.1,1-2.2-0.1-3.2
		c-1.3-1.1-2.4,0-3.3,0.7c-8.7,6.2-13.4,15.9-16.9,25.8c-35.8-3.7-73-4.8-107.2,8.3c-2.8,1.1-5.4,2.5-7.5,4.6
		c-42.2,40.3-77,98.8-69,159c4.6,25,19.6,47.2,36.3,66c1.5,1.5,1.7,2.8,1.1,4.8c-7.7,25.1-15.4,50.3-22.6,75.5
		c-8,29.5,0.7,42.3,32.1,39.5c24.5-1.2,51.9-7.2,66.8-28.5c28.3,8.7,57.2,12.1,86.7,9.1c0.3,2.1-0.5,3-2.1,3.8
		c-14.1,7.4-28.3,16.1-37.7,29.2c-16.6,24.1-1.2,50.1,24,59.3c1.5,0.8,2.4,1.6,2.7,3.3c2.4,13.3,6.9,25.8,12.1,38.3
		c-33.9,18.4-50,36.5-70.1,68.8c-13.1,19.3-34.4,1.8-43.5,28.8c-4.7,11.5-4.1,47.3,15.3,41.5c1-0.3,2.3-0.3,3.3-0.1
		c3.9,1,7.9,1.2,11.9,1.3c25.4-1,51.2,3.7,76.3-2.2c11.8-2.8,13.1-18.1,14-28.2c0.1-4.5,1.2-8.7,3.5-12.6
		c8.4-13.7,19.6-25.5,31.1-36.7c18.3,18.1,39.5,32.2,66.3,29.1c15.3-1.3,15.4-21.7,19.6-33.2c18.8,6.2,13.8,18.6,11.3,33.8
		c-1,9.6-4.8,18.4-7,27.8c-3,11.4,1.1,25.8,13.7,28.9c2.9,0.8,6,1.4,9,1.4c11,0,22,0.8,32.9,1.9c6.7,0.7,13.3,0.2,19.9-1.4
		c1.7-0.4,3.6-0.4,5.4-0.3c9.1,0.7,18.4,3.4,27.2,0.1c9.9-2.9,10.7-14.3,9.2-22.9c-1.3-14.8-12.2-23.4-25.4-28.1
		c3.3-19.6,2.8-38.9-2.6-58c58.9,2.8,126.3-54.4,125-115.1c-1.6-40.1-45.5-73.4-79.8-43.1c-22.8,19.6-0.8,51.1-9.3,75.5
		c-9.1,33.8-49.3,33-77.1,27.5c4.2-2.5,8.3-4.5,12.6-6.9c18-9.1,27.3-29,24.8-48.7c-0.8-7.3-4.1-18.5-13.3-17.6
		c14.4-8.5,27.2-19.1,30.3-36.7c2.6-14.7,3.6-31.1-3.5-44.6c-2.3-3.8-4.6-7.7-6.9-11.6c36.8-49.8,71.9-101.1,109.8-150
		c4.6-5.3,11.9-2.4,17.9-2c2.9,0.5,5.9-3.8,6.8-6.3c1.5-4.6,3.1-9.2,4.9-13.8c2-5.4,4.2-10.7,6.4-15.9c1-2.4,1.4-2.3,4-2.2
		C603.6,171.5,600.6,131.8,575.1,132.9z M350.3,389.2c-5.2-2.2-10.2-4.3-15.3-6.4c11.1-5.8,22.3-11.6,33.5-17.4
		c0.1,0.1,0.2,0.2,0.3,0.4C362.6,373.6,356.4,381.5,350.3,389.2z M404.7,449.2c-6.4,4-11.4,10.7-19.1,12.1c-8.1,1.5-15.8-1-20.6-8.1
		C379.2,455.8,391.4,454.3,404.7,449.2C404.7,449.2,404.7,449.3,404.7,449.2z M524.5,161.6c-1.2-1.4-0.7-3.1-0.7-4.6
		c0-2.2,0-4.5,0-6.7c0,0,0-0.1-0.1-0.1c0,0,0.1-0.1,0.1-0.1c0,0,0,0.1,0,0.1c2.3,3.7,7.1,2.1,9.9,4.9
		C532.6,156.8,527.2,160.5,524.5,161.6z M536.6,153.9c-1.5-3.4,0.7-6.4,0.1-9.6c2.6,1.8,6.3,0.8,8.4,4
		C542.4,150.3,539.7,152.1,536.6,153.9z M547.4,146.9c-1.7-2.3-0.9-2.7-0.7-8.5c6.1,1,6.7,1.2,8.6,3.5
		C552.7,143.6,550,145.3,547.4,146.9z M558.2,140.2c-1.9-1.8-1.1-2.4-0.2-9.6c2.8,1.8,6.7,1,8.8,4.7
		C563.9,136.9,561,138.6,558.2,140.2z"/>
	<path class="st0" d="M157.9,290.2c-19.1,11.6-31.4,30.8-43,49c-1.2-13.1-0.4-26.3,3.5-39c2.5-7.6,34.3-16.4,42.4-20
		c-13.9,2.5-26.9,7.4-39.5,13.6c-0.1-0.2-0.3-0.3-0.4-0.5c1.3-4,3.3-7.6,4.8-11.5c0.7-1.7,1.8-2.6,3.6-2.9
		c14.2-2.8,28.5-5.2,42.9-7.4c-14.6-0.1-28.9,1.9-43.2,5.2c0.9-2.9,2.5-8.8,6-8.3c9.6,0.3,19.3,0.9,28.9,0.7
		c50-3.5,37.9-47.5,123.2-29.4c5.9,1.3,12.4,2.8,17.9-0.6c15.8-9.9,31-20.7,50-23.2c42.4-6.5,77.7,19,80.5,62.7
		c0.1,1.6-0.3,2.9-1.3,4.2c-19.2,24.3-38.3,48.7-57.5,73c-13.7,9.3-29.1,16.1-43.9,23.8c2-14.8,7.5-28.6,9.8-43.4
		c0.4-17-22.8-1.3-30.3,1.7c-7.6,3.7-12.5,10.7-15.5,18.4c-4.4,13-8.9,26-13.3,39.1c-2.5,5.9-23.6,4.8-29.1,2.7
		c-14.7-5-29.9-3.1-44.6,0.8c-28,5-56.9,2.3-84.3-4.8c-30.6-8-67.8-29-64.8-65.3c0.8-27.4,21.9-49.5,47.4-56.7
		c0,3.2-1.4,6.2-1.7,9.4c-0.4,4.1-2.4,2.9-4.4,5.1c1.1-0.3,2.2-0.5,3.6-0.9c-0.5,5.3-1,10.2-1.1,15.5c0,1.8-0.7,2.7-2.1,3.7
		c-9.3,6.2-18.6,12.7-26.2,21c9-6.8,18-13.5,27.9-19.5c0.8,14.9,4.1,29.2,7.1,43.7c2.4,0.8,1.9,6.2,4.9,4.7
		c0.5-4.8-2.4-10.2,0.7-14.5c11.7-19,25.8-37,43.1-50.9c-0.1-0.2-0.3-0.4-0.4-0.6C158.9,289.2,158.4,289.7,157.9,290.2z M330,268.8
		c-1.8-4.6-12-10.3-18-7.4c0,0.2-0.1,0.5-0.1,0.7c1.6,0.7,3.3,1.5,4.9,2.2c0,0.2,0,0.4,0,0.6c-6.3,2.3-12.7,4.1-18.1,8.1
		c-3.5,2.4-7.2,4.7-11,6.7c-10.2,5.5-40.8,15.1-42.2-3.2c-0.9-4.5-2.1-8.9-3.2-13.4c-0.2-0.9-0.4-2-2-2.8c0.3,7.4,1.3,13.9,2,21.1
		c0.7,5.4-2.8,9.5-7.2,12c-15.5,9.1-33.2,2.8-49.4-0.3c-5.1-0.9-13.7,0.6-15.6,6.2c6.8-2.1,14.4-2.6,20.6,0.6
		c2.7,2.1,5.5,4.2,7.7,6.8c15.6,19.1,27.2,44.2,56.1,41.4c36.3-2.3,33-48.5,50.4-71.5c3.7-6.2,14.2-12.7,21.1-8.5
		C327.1,268.7,328.4,269.3,330,268.8z M242.1,241.2c-4.2,0.3-9.8,1.6-13.5,3.5c-11.6,6.3,0.1,8.6,6.5,10.7c6.1,2.1,10-5.7,13.7-9.3
		C252,242.1,244.6,241.9,242.1,241.2z M414.4,241c-33.8-7.2-69.9-6.8-102.6,5.2C345.7,236.9,379.9,236.8,414.4,241z M400.2,274.8
		c-21.3-18.8-53.3-23-80.8-20.6C347.7,255.2,375.8,258.9,400.2,274.8z M302.4,242.6c23.9-10.7,49.4-16.4,75.1-20.8
		C357.8,220.8,315,232.6,302.4,242.6z"/>
	<path class="st0" d="M303.3,47.5c-11.3,1.4-22.9,3.1-33,8.7c-2.3,0.5-4,4.4-0.5,4c11.1-2.4,23-5.6,34.3-2.6
		c-9.9,2.1-20.3,3.5-29.2,8.8c-4,4.4,5.1,3.4,7.4,3.8c49.8,6.3,89.5,41,122.9,76c-14,2.1-29.7,5.5-37.6,18.3
		c16.4-5.7,34.1-7.5,50.9-2.1c0.9,0.3,2,0.9,2.5,1.7c5.3,7.6,11.7,14.7,16.3,22.7c-18.5-9.3-40.5-5.8-59,1.5c0,0.2,0.1,0.4,0.1,0.6
		c28-3.2,51.8,5.2,72.3,24.3c3.5,3.7,3.4,10.7,5,15.6c0.1,0.2-0.1,0.5-0.2,1.3c-11.4-15.1-41.4-24.4-56.5-22.8
		c24.5,8.1,43.3,26.4,56.7,48c-5.6,7.1-11.1,14.1-16.9,21.4c-5.6-44.4-36.9-67.6-80.9-64.8c-0.3-6.5-0.9-12.9,0.6-19.4
		c0.6-2.9,2.4-23.5-3.6-19.8c-2.3,1.5-3.8,4.6-6.8,2.4c-2-1.1-4-2.3-5.8-3.7c-43.3-32-98.3,18.1-64.1,62.7
		c-29.5-3.2-54.3-3.3-78.5,16.1c10-14.5,7.7-30.8-1.5-45c-2-3.5-4.6-6.3-8.4-7.9c-1.4-0.6-2.4-1.4-3-2.8c-4.3-7.1-7.5-15.1-4.5-23.4
		c3.3-9,6.9-17.5,10.6-26.4c25,33.6,29.4,44.9,36.4,86.2c0.2,0,0.4,0,0.6,0c0.2-31.7-5.1-63.9-21-91.8
		c-6.1-13.2-16.7-23.6-21.4-37.5c-2.9,3.9-3.7,13.8-2.1,26.3c-5.6,3.6-11.3,7.4-16.8,11.2c-4.4-3.1-8.7-2.4-12.8,0.5
		c-7.6,5.5-16,7.3-24.4,11.5c14.2-20.2,31.6-38.2,49.7-55c1.6-1.5,2.3-3,2.5-5.1c0.8-16,5-32.1,15-44.9c0.3,0.2,0.5,0.3,0.8,0.5
		c-2.3,10.9-3.5,21.8-1.2,32.8c0.2,1.4,0.6,3.3,2.2,3.5c0.5,0,1.2-0.6,1.5-1.1c2.1-8.5,4.8-16.9,9.1-24.6c7.5-13.7,20.7-25,36-27.3
		c-10.9,5.2-20.9,12.4-26.9,23.2c-0.2,0.5-0.1,1.5,0.2,1.8c1.3,1,2.8,0.1,3.9-0.9c15.2-10,32.3-18.6,50.6-20
		c-5.6,2.1-33.1,14.3-32.6,20.1c1,1.5,3,0.5,4.4,0.1C265.2,48.8,284.5,44.2,303.3,47.5z M337.5,124.5c0.1-3.1-1.8-5.4-3.5-7.8
		c-11.4-13.7-27.9-24.5-46.3-23.6c-4.6,0.4-15.6,0.5-15.6,6.8c0.1,1.9,1.6,3.7,3.7,4.3c22.6-0.6,39.8,3.4,57.3,18.5
		C334.3,123.6,335.3,124.8,337.5,124.5z M237.4,228.9c3-2.7,1.4-5.9,1.6-9.2c-1.7-18.4-2.4-36.8-2.4-55.2
		c-1.3-27.1,5.1-54.8-0.7-81.5c-7,15-12.9,31.9-12.6,48.8C224.6,164.5,229.8,197,237.4,228.9z M254,126.4
		c-12.1,31.2-16.8,67.7-5.8,99.9c0.6-0.9,0.7-1.5,0.6-2.1c-0.1-4.8-0.3-9.5-0.3-14.3C247.2,181.2,271.3,153.9,254,126.4z
		 M193.9,158.8c-5.2,22.3,26.5,44.8,29.6,73.4c2.9-7.7-1.5-20.9-4.2-28.5C213.9,186.9,201.6,174.4,193.9,158.8z"/>
	<path class="st0" d="M40.9,301.4C-29,233.3,10.1,142.9,69.7,83.2c26.2-21.9,77.5-0.4,101.9,16.7C113.5,156.6,74.3,228.2,40.9,301.4
		z"/>
	<path class="st0" d="M425.7,163.8c-14.1-15.4-26.9-31.9-41.1-47.2c-14.8-14.6-32.5-26.1-48.7-39.1c-15.8-10,35.3-45.4,44.6-49.2
		c15.1-7.7,47.2-18.3,58.2-0.1C457.3,70.6,452.6,125.9,425.7,163.8z"/>
	<path class="st0" d="M191.9,498.7c19.3,7.6,37.3,16.6,53.4,29.5c-1.7,2.1-3.2,4.1-5,6.2c-2.3-1.8-4.5-3.4-7-5.3
		c-4.6,5.3-9.1,10.5-13.5,15.6c1.2,2,32.9,30.8,36.5,33.2c2.8-1.1,19.1-11.8,20.7-13.7c-3.2-2.6-5.9-4.8-9.3-7.6
		c3.5-5,7.1-9.7,10.9-14.6c12.3,8.9,7.7,9.5,20,0.2c3.2,5.9,3.1,12.3,3.3,18.7c0.3,6.3,0.8,12.6,1.5,18.8
		c0.5,5.7,4.8,18.8,11.6,10.5c4.1-7.6,4.1-16.8,6.1-25.2c2-11.1,6.1-21.3,13.7-29.8c21.5-23.8,72-20.3,74.2-60.2
		c-0.1-3.5,1.1-10.6-2.2-12.8c-10.6,8.7-27.8,14.6-39.6,5c-3-2.3-13.7-14.8-12.2-18.2c7.9,16.7,32.5,27,46.5,11.5
		c2.2-2.5,4.4-5,7-7.1c6.4,5.2,6.3,14.4,6.3,21.9c-1.8,28-32.8,37.8-53.8,49.2c-13.4,6.7-27.2,15-30.6,30.8c-4.6,18-8.8,36-13.3,54
		c-2.9,13.7-13.7,11.8-24.6,9.8c-51.2-11.5-75.7-66.8-91.5-111.8c-0.3-0.9-0.2-2.1-2-2.4c14.6,49.8,46.1,113.3,104.6,117.3
		c5.3,0.3,11.1-1.6,13.1-6.8c7.2-19.6,9.9-40.6,15.8-60.7c9-30.3,53-32.6,72.7-54.7c0.1,0.1,0.3,0.2,0.4,0.4
		c-3.6,5.1-8.6,8.8-14,11.7c-11,5.8-22,11.6-32.9,17.5c-8.1,5.1-18,9.1-22.1,18.4c-9.3,20.7-10,43.9-17.6,65.2
		c-2.7,8.3-6.6,11-15.3,11.1C248.5,625.1,200.8,547.7,191.9,498.7z M293,600.8c4.1-0.5,6.7-1.1,5.9-6.3c-0.8-6.4-1.4-12.9-2.2-19.3
		c-0.8-2.9-0.4-11.1-4.2-11.3c-1.8-0.1-2.8,1-3.5,2.5c-2.7,7.3-3.8,15.2-5.7,22.7C281.5,597.7,285.4,599.5,293,600.8z"/>
	<path class="st0" d="M100.8,673.3c-4.3,2.6-8.2-1.3-9.7-5.1c-4.3-12-4.9-24.1,0.8-35.9c8-17.6,27.4-5.9,38.9-20.9
		c2.9-3.5,4.9-7.2,8-10.7c3.1,19.1-10.5,14.6,15.6,19.4c14.6,2.6,26.6,12.4,40.1,18.1c3.6,1.8,7,1.4,10.9,0.8
		c-1.9,10.3-0.4,31.2-13.5,33.8c-24.4,5.7-49.3,0.5-74,1.7c-3.5-0.1-7-0.5-10.5-0.9c-6.2-0.8-4.8-12.8-4.4-17.3
		c1.3-9.2,5.9-16.4,13.6-21.6c0.9-0.6,1.8-1.3,1.2-2.5c-0.6-1.2-1.7-1.1-2.7-0.6C100.6,640.3,96.5,657.8,100.8,673.3z"/>
	<path class="st0" d="M184.6,194.7c-24.6-7-53.2,4-59.9,30.1c-1.1,2.3-1.9,2.5-4.3,1.6c-6.7-2.9-2.2,9.5-1.4,12.5
		c-19,11.3-34.8,26.2-49.3,42.9c3.4-18,6.5-36.5,11.5-54.1c10-16.9,18.8-35.6,31.8-50.1c16.4-7,30.7-17.4,45.5-27
		c3.8-2.2,7.6-4.4,10.2-8.2c8-5.8,16.5-11.4,25.2-16.3c-0.6,11-3.8,21.5-8.4,31.5C178.9,170.8,176.2,181.5,184.6,194.7z"/>
	<path class="st0" d="M413.3,683c3-10.8,1.8-22.8-4-32.4c-0.6-1.2-2-2.4-3.3-1.6c-1.1,1-0.5,2.5,0.4,3.4c4.3,5.9,4.3,13.3,5.1,20.3
		c0.3,6.5-1.2,11.1-8.3,11.5c-13.2,1.6-26.5-0.6-39.7-1.3c-10.6,0-23.4,0.2-27.2-12.1c-3.2-9,1-18.1,3.3-26.8
		c2.6-7.6,3.1-15.4,4.9-23.3c2.4,0,4,1.1,5.6,2.3c12.1,7.6,27.6,6.7,40.7,2.3c10.4-3.1,21-9.2,32.1-5.8c-0.2,5.1-0.6,10-1.8,15.1
		c-34.3-8.2-64.6,13.2-68.8-1.1c-1.4-3.5-4.5-1.1-3.2,1.4c1.6,4.9,6.9,8.1,12.6,7.4c14.3-2.7,28.3-6.5,43-6
		c16.3,0.3,37.7,6.1,41.2,24.4c1,7.1,3.9,18.6-4.9,21.8c0.5-5.6,1.4-11.1-0.2-16.6c-1.4-4.9-2.7-10.1-4.8-14.6c-2.5-1.9-3.6,1-2.3,3
		c2.7,7.6,5.5,15.3,4.5,23.4C437.3,688.9,420.7,683.2,413.3,683z"/>
	<path class="st0" d="M347.8,91.2c-19.9-12-40.7-21.2-64.2-24.4c1.1-1.3,2.3-1.4,3.3-1.7c9.5-3.1,19.4-3.9,29.3-4.8
		c2.5-0.9,0.8-3.5-1.2-3.8c-4.2-1.1-8.1-2.2-12.3-3.2c1.5-1.5,2.9-2.3,4.8-2.2c3.5,0.1,7.1,0.2,10.6,0.3c1.2,0.3,2.5-0.2,3.1-1.2
		c1.1-2.6-5-3.2-6.7-4.4c30.5-24.7,65.4-43,105.6-42.2c28-0.8,39.4,26.5,41.2,50.4c3,28.6,3.9,57.8-1.5,86.2
		c-1.3,6.2-3.1,12.2-6.1,17.9c-5.2,9.6-7.9,20-10.2,30.6c-5.3-7.5-10.3-14.7-15.5-22c28-37.7,32.5-95.1,14.6-138
		c-3.2-7.9-9.4-11.7-17.5-13c-34.5-4.8-77.3,23.8-94.9,52.3c-2.2,4.4-1.1,8.7,2.8,11.7C337.9,83.6,343,87.1,347.8,91.2z"/>
	<path class="st0" d="M302.7,488.8c-5-12.5-14.8-14.1-26.2-17.8c-3.4-0.8-1.7-4.8-4.5-4.4c-3.3,1.2-0.6,6.1,1.8,6.9
		c5.3,2.3,11.1,3.6,16.3,6.1c5,2.7,9.8,7.5,9,13.7c-0.4,3.4-1,6.8-2.7,9.9c-2.9,5.7-11.3,7.7-15.8,2.9c-3.8-5.9-9.5-9.9-14.8-14.3
		c-1.9-1.7-3.1-3.6-2.8-6.3c0.6-2.9-3.2-3.4-3.5-0.1c-1.4,12.2,22.8,15.7,21.6,35.2c-1.3,15.3-14.1,16.1-25.4,9.5
		c-12.3-6.9-22.9-16.3-35.6-22.4c-6.1-2.7-1.2-19.4,0.8-24.3c6.6-13.4,8-30.6,20.3-40.4c1.2-1,2.3-0.7,3.5-0.4
		c18,4.2,30.9,18.7,48.1,25c3,1.4,6,2.9,8.6,5C306.6,475.9,308.5,486.5,302.7,488.8z"/>
	<path class="st0" d="M320.5,486c3-4,5.8-7.7,8.7-11.6c10.9,9.8,5.8,8.1,18.3,0.8c-3.6-3.9-7.6-6.7-11.2-10.2c0.5-0.8,1-1.5,1.4-2.1
		c2.9,0.5,4.5,5.3,6.8,1c2.9-4,5.3-7.7,8.3-11.7c3.4,5.5,6.6,10.7,11.2,15.2c11.6,11.9,30.5,7.2,42.5-1.6
		c5.3,35.6-28.6,43-54.1,54.4c-30.1,13.2-31.3,37.3-37.5,65.4c-1.3,4.8-4.9,7.3-7.2,1.3c-0.9-3.3-1.7-6.6-2.5-9.9
		c0.2-0.1,0.4-0.2,0.6-0.3c2.8,5.1,10.4,4.3,10.3-2c-0.1-2.3-1.7-4.1-3.9-4.7c-3.3-0.8-5.5,1.6-6.8,4.7c-0.7-3.9-0.7-7.4-0.9-11.6
		c3.2,4.1,7.7,4.4,11,1c4.9-6.9-3.7-14.4-10.8-7.4c-0.5-3.4-0.9-6.7-1.4-10.2c7.3,6.2,15.4,0.9,13-7c-3.1-6.9-13.2-5.8-14.1,3.2
		c-3.4-6-6.8-11.9-10.3-18.1c6.6-8.8,13.2-17.8,20-26.9c4.3,2.8,8.4,5.3,12.7,8.1c3.2-3.6,6.2-7,9.4-10.6
		C329.5,491.2,325.3,489.3,320.5,486z M302.9,517c-10,0-10.5,14.8-0.3,15.3C312.6,532.3,312.9,517.5,302.9,517z"/>
	<path class="st0" d="M216.2,433.5c10-8.1,23-9,35.1-11.8c15.3-2.2,29.8-9.4,35.1-24.7c4.7-13.5,8.9-27.2,14-40.6
		c2.9-7.5,7.9-13.2,15.4-16.5c6.6-2.5,12.7-7,19.8-8c2.2-0.2,3.5,1,3.4,3.2c-1.4,11-5.4,21.5-7.8,32.3c-1.6,7.5-5.9,21.5,3.9,25
		c3.9,1.1,7.4,2,11.5,2.8c-3.3,4.1-6.4,7.9-9.7,12.1c-3.2-8.6-14.2-14.7-20.3-5.4c-6.4,12.3-4.5,33.5-21.8,36.4
		c-9.8,2.1-20.7,0.4-29.7,5.1c-3.1,1.8-5.4,1.6-8.3,0.1c-12.7-6.1-27.1-6.2-40.6-9.3C216.3,433.9,216.3,433.7,216.2,433.5z"/>
	<path class="st0" d="M542,480.4c-25.3,0.2-33.6-26.3-80.3-19.7c-1.2-1.5-0.9-3.2-1.1-4.7c-0.8-5.8-1.3-11.6-0.4-17.4
		c2.7-18.2,22.4-27.6,39.2-27.9C531.4,415.7,549.4,450,542,480.4z"/>
	<path class="st0" d="M417.5,365.9c1.7-1.9,3.3-3.8,5.1-5.9c15,19.4,16.6,53.8-4.6,69.5c-1.6-1.6-3.1-1.2-4.7,0.1
		c-6.6,5.6-14.7,7-22.9,8.2c-13.8,3.9-46.2-12.3-25.9-26c3.6-1.3,7,1.4,10.3,2.5c3.9,1.5,12.5,3.8,14.5-1.3
		c1.6-6.6-10.3-8.9-14.4-11.9c-8.9-4.4-5.1-18,3.9-18.9c7.6-1.5,14.7,3,21.5,5.7c2.8,1.4,5.2,3.9,7.6,5.9c1.2,0.6,2.4-0.5,2.3-1.7
		c-0.7-2.3-4.2-4.7-6.2-6.1c-6.4-3.6-13.4-6.9-20.9-7.5c-1.9,0.2-2.5-0.9-3.3-2.4c-3.1-6.7,3.1-15.4,10.4-14.9
		c8,0.4,15.5,3.3,22.7,6.6c4.4,2,7.4,5.7,9.3,10.1c0.8,2,4,0.7,3.1-1.2C423.9,372.2,420.9,369.4,417.5,365.9z"/>
	<path class="st0" d="M50.2,313.8c1.2,33.3,20.9,63.1,52,75.7c-10.2,15-41.2,19.3-58.2,19.4c-12.7-0.1-15.7-5.6-13.9-17.5
		c5-26.2,12.7-51.9,19.6-77.7C49.8,313.7,50,313.8,50.2,313.8z"/>
	<path class="st0" d="M418.9,581.4c-14.1,0.5-18.4-3-29.3,8.3c-6.3,7.1-15.2,8.6-24,10.2c-2.4,0.5-4.4,1.5-6.3,3.2
		c-3.9,3.3-8.7,4.5-13.5,6.5c-0.9-3.7-1.2-7.1-3.6-10.1c-0.8-1.1-1-2.2-0.8-3.5c2.3-21.1,25.4-26.9,39-39.7
		c6.3-5.1,14.7-3.2,22.1-2.5C409.7,557.7,417.9,573.4,418.9,581.4z"/>
	<path class="st0" d="M518.4,203.1c-0.9-0.7-1.5-1.2-2.3-1.8c8.9-11.8,18.1-23.3,27-35.1c0.9-1.2,2-1.6,3.2-2.2
		c1.6-0.8,2.2-2.8,1.5-4.4c-3.2-5-9.4,0.4-4.9,4.8c-8.5,11.6-17.6,22.8-26.3,34.2c-0.9,1.1-1.2,1.9-2.9,1.2
		c6.9-9.7,14.4-19.2,22.3-28.1c1.8-1.7,2-3.8,0.5-5.2c-3.3-3.2-8.2,1.8-4.6,5.1c0.5,0.5,0.7,0.5,1.2,1.2
		c-6.7,8.5-13.5,17.1-20.4,25.8c-1.4-0.6-2-1.1-3-2.1c3.4-5.4,7.9-10,11.7-15.2c1-1.3,2-1.7,3.6-1.8c5-0.6,2.8-8.3-1.8-6.5
		c-1.7,0.6-2.5,2.3-2,4.2c0.3,1.1,0.4,1.9-0.3,2.9c-4.3,5-7.9,10.6-12.4,15.3c-1.2-0.1-1.4-0.9-1.3-1.9c0.5-4-0.3-7.8-1.8-11.5
		c-1-2.2,1.4-3.5,2.8-4.7c20.7-13,40.4-27.8,61.8-39.5c12.3-5.9,25.2,6.5,21.3,18.2c-2.6,8.3-17.4-0.9-22.2,7.6
		c-5.8,10.8-8.7,22.9-13.7,34.2c-10.3-2.3-17.4-1.1-24.8,6.8c15.1-20.5,29.6-42,46.3-61.2c2.8-2.2,0.6-6.6-2.6-6.1
		c-3.8,0.6-3.4,5.2-0.7,7.2c-15.9,21.3-31.7,42.6-47.8,64.2c-1-0.7-1.9-1.4-3-2.2c14.4-18.7,27.4-39,43.1-56.4
		c1.9-1.2,2.7-3,1.8-4.8c-3.4-5-9.5,0.8-4.6,5c-13.7,18.3-27.4,36.6-41.3,55.2c-0.8-0.6-1.4-1-2.2-1.6
		c12.3-15.5,23.4-32.2,36.7-46.8c1.7-1.3,2.2-3.4,1.1-5c-3.9-4.5-9.5,2.8-3.7,5.4C541.6,172.8,530,187.8,518.4,203.1z"/>
	<path class="st0" d="M50.2,291.5c-0.1,4,0.1,8-0.5,12c-7.2,31.1-18.2,61.7-22.5,93.5c-0.4,13.7,11.1,14.7,22,14.2
		c18.6-1.3,43.5-4.6,55.4-20.6c2.2,0.9,4.3,1.7,6.5,2.6c-15.8,23.5-48,26.4-74,26.6c-17.9,0.4-23.2-11.1-19.6-27.2
		c6.9-28.6,16.3-56.5,24.6-84.7c1.8-5.9,5.1-11,7.5-16.6C49.8,291.3,50,291.4,50.2,291.5z"/>
	<path class="st0" d="M56.3,331.2c-3.4-16.8-5.5-35.2,0.5-51.6c5.6-13.3,10.7-27.6,18.5-39.6c-2.3,16.3-8,32.6-9,48.8
		c0.6-0.3,1.5-0.4,1.9-0.8c14.6-18.3,31.1-34.9,51.5-46.6c5.6,7.8,11.1,15.5,16.9,23.6c-38.7-2.7-79.5,25-79.7,66.2
		C56.8,331.1,56.5,331.1,56.3,331.2z"/>
	<path class="st0" d="M283.7,216c-0.1,6.9,3.9,13.2,13.5,21.5c-0.8,0.1-1.4,0.4-1.9,0.3c-3.4-0.6-6.8-1.3-10.1-2.1
		c-0.9-0.2-1.8-0.8-2.3-1.5c-2.4-3-4.6-6-6.9-9.1c-7.1-17.1,1.1-38.8,18.3-46.1c23.3-13.3,54.3,5.9,51.3,33
		c-0.1,2.5-0.2,2.5-2.7,3.3c-2.1,0.6-4.1,1.3-6.6,2.1c1.2-6.6,1-12.7-1.6-18.7c-7.6,5-15.9-3.7-10.1-10.8
		c-9.2-8.6-32.9-2.1-38.1,10.6c10.5-4.1,20,8.8,11.9,17C293.7,219.8,288.7,219.4,283.7,216z"/>
	<path class="st0" d="M458.8,502.7c1.4-4.7,2.8-9.5,4.4-14.6c22.9,2.7,40.3,16,50.4,36.4c2.5,5.1,2.4,5.2-1.6,9.4
		c-4.9,5.2-10.2,10.1-16,14.3c-5.1-1.6-6.4-7.1-8.4-11.4C482,520.4,477.2,507.7,458.8,502.7z"/>
	<path class="st0" d="M198.7,497.3c-7.1-2.2-13.7-6-20.6-8.8c-1.4-0.6-2.2-1.6-2.3-3.3c-0.7-13.5,0.1-29.2,11.8-38
		c15.5-12.9,12.5-11.8,32.8-8.8C204.2,463.3,202.6,468.3,198.7,497.3z"/>
	<path class="st0" d="M462.7,471.2c-0.4-3-0.8-5.8-1.3-8.9c22.6-5.1,43.9,3.2,63,15c5.3,3.1,11,4.3,17.1,4.5
		c-1.1,5.9-4,11.3-5.7,17.1c-2.6,6.9-16.2,2.6-20.4-0.8C497.8,483,487.4,473.8,462.7,471.2z"/>
	<path class="st0" d="M419.7,582.8c2.1,8.3,3.2,16.6,3.3,25.1c-2,1-4,0.5-5.8,0.5c-4.6,0-9.2-0.2-13.7-0.2
		c-25.2-0.1-30.9,14.8-57.2,3c2.8-2.1,5.6-2.4,8.6-4c2.2-1.1,4.1-2.7,6.2-3.9c4.6-3,10.1-3.2,15.2-4.5c12.4-1.5,17.8-17.8,31-16.3
		C411.4,582.9,415.4,582.6,419.7,582.8z"/>
	<path class="st0" d="M229.9,605.6c-3,3.4-5.9,6.7-9,10.2c-20.9-13.9-27.6-40.7-47.8-55.6c3.4-3.5,7.8-5.7,11.6-8.8
		c1.3-1,2.5-1.1,4-0.4c11.6,4.2,17,15.5,22.1,25.9C215.7,587.4,221.4,597.2,229.9,605.6z"/>
	<path class="st0" d="M162.6,221c13.6,8.4,3.4,25.8-10.5,18.4c-1.7,10.4,2.9,20,11.7,25.9c-3.3,1-5.9,0.2-9.2,0.4
		c-1.7,0-3-0.6-3.9-2c-1.7-2.5-3.6-5-4.7-7.8c-8-19.5,2.9-42.4,23.1-48.4c9.3-3.4,26.6-3.2,31.7,6.8c2.6,6,7.3,19.4-3.6,18.8
		c-7.8-1.2-8.5-11.3-1.3-14.3C187.4,212.7,172.4,211.7,162.6,221z"/>
	<path class="st0" d="M216.2,505.5c-5.4-2.5-10.6-4.9-16-7.3c0.7-21.3,7.7-41.4,20.9-58.2c0.5-0.7,1-1.3,2.1-1.1c5.5,1,11,1.9,17,3
		c-4.6,5.1-8.8,9.6-10.7,16.5C224.7,474.1,215,488.5,216.2,505.5z"/>
	<path class="st0" d="M183.7,69.2c-1.5,6.9-2.1,13.9-3.1,20.9c-0.3,3.6-4.1,4.9-6.3,7.5c-21.5-14.5-44.3-25.4-70.9-27
		C113.2,65.5,172.2,64.6,183.7,69.2z"/>
	<path class="st0" d="M463.2,486.7c0-4.7,0-9.3,0-14.1c41.3,3.3,43.4,33.5,70,31c-1.3,4.9-12.4,21.3-16.5,24.5
		C506.5,504.7,489,490.6,463.2,486.7z"/>
	<path class="st0" d="M451.3,570.4c2.8-17.3,2.1-33.9-11.2-47.6c3.3-2.5,6.6-5,10-7.5c15.4,7.2,30.7,24.5,25.8,42.6
		c-0.6,2-1.7,3.5-3.7,4.3c-6.2,2.6-12.3,5.3-18.4,7.9C452.9,570.3,452.1,570.9,451.3,570.4z"/>
	<path class="st0" d="M295.5,464.8c-8.2-2.5-24.1-11.7-31.5-18.2c26.9-12.1,42.9,7.1,51.7-35c0.7-6.4,5.1-15.1,12.8-11.1
		c3.7,2.2,8.5,7.4,4.7,11.6c-7,8.3-13.7,16.9-20.6,25.4c-4.1,4.7,1.1,3-0.4,6.1c-3-1.2-4.6-4.2-7.7-5.6c-1.9,1.8-3,4.1-4.4,6.2
		c-1.5,2.3-1.5,2.3,0.6,4.2c1.4,1.3,2.8,2.6,4.4,4.1C301.9,456.7,298.8,460.7,295.5,464.8z"/>
	<path class="st0" d="M425.4,527.7c6,14.8,9.4,30,6.9,46.2c-3.9,0.4-7.4,0-10.8-0.4c-1.5-0.2-1.7-1.4-2.1-2.4c-3-6.8-7-12.9-12-18.4
		c-1.9-2.8-6.1-4.6-6.3-8.1c0-5.3,1.5-10.2,3.2-15c0.4-1,1-1.3,2-1.3C412.5,528.1,418.7,527.9,425.4,527.7z"/>
	<path class="st0" d="M138.8,615.3c1.8-4.8,2.3-9.6,1.2-14.6c-0.3-1.4-0.1-2.6,0.8-3.7c2.8-4,5.5-8,8.4-12.4
		c9.2,7.4,15.3,17.9,22.7,26.9c8.7,11.7,21.7,18.3,33.6,25.6c-6.2,3.1-12.3-0.8-17.9-3.5c-5-2.6-10-5.2-14.9-8
		c-7.3-4.2-15.2-6.6-23.5-7.7C145.7,617.4,142.2,617,138.8,615.3z"/>
	<path class="st0" d="M401.9,552.3c-7.8-0.7-16.1-1.5-22.7,3.5c-14.4,12.3-36.5,19.2-39,40.5c-3.7-1.9-7.3-3.7-11.3-5.6
		c2-22.2,28.4-26.4,39.6-42.7c3.5-3.9,11.1-10.7,16.7-8.2C391.3,543.3,397.3,546.8,401.9,552.3z"/>
	<path class="st0" d="M280.2,401.7c-10.1,16.7-31.1,16.7-48.1,20c-5.5-10.3-13.8-16.3-25.8-16.7c0.2-1.5,1.2-2.2,2.3-2.3
		c8.7-1.4,17.1-4.6,26.2-4.3C252.1,398.9,261.9,406.3,280.2,401.7z"/>
	<path class="st0" d="M188.3,203.4c-33.3-5.1-60.6,30.5-39.9,61.8c-1.9,0.5-3.6-0.1-5.4,0c-3.5,0.5-5.2-1.4-6.7-4.1
		C114.1,227.1,152.4,185.1,188.3,203.4z"/>
	<path class="st0" d="M228.5,217.4c-6.3-33.3-13.4-45.5-33.4-72.1c-1.2-1.7-1.4-3.3-1-5.3c1-4.9,1.7-9.8,2.4-14.7
		c0.2-2.6-0.5-3-2.7-1.9c-2.3,1.2-4.1,2.3-6.6,3.5c-1.8-7.4-1.4-14.5,0.3-22.2c3.4,5.9,6,11.8,10.3,17.3
		c19.5,28.1,30.2,61.2,31.2,95.3C228.9,217.3,228.7,217.3,228.5,217.4z"/>
	<path class="st0" d="M213.6,430.9c-1.7,1.8-3.4,2.7-6.1,2.5c-6.9-0.6-13.7,0.4-20.2,2.9c-13,6.9-23.1,18.6-26.3,33.2
		c-10-21.7,9.6-40.4,26.3-51.2c2.2,0.7,3.4,1.4,5.5,1.5C201.1,420.4,208.3,424.6,213.6,430.9z"/>
	<path class="st0" d="M433.6,574c2.2-16.4-1-31.7-7-46.7c3.5-0.9,6.4-1.8,9.7-3c2.4-0.9,2.4-0.9,4.2,0.9c3.9,4.2,6.9,8.9,8.5,14.4
		c2.1,5.1,4.9,31.2-1.6,32.5C442.6,572.6,438.5,574.1,433.6,574z"/>
	<path class="st0" d="M162.1,569.3c3.3-3,6.3-5.7,9.6-8.6c9.2,7.8,16.9,16.4,23.1,26.7c7.1,10.9,13.8,22,25.1,29.4
		c-1.2,1.5-2.3,2.8-3.3,4.1c-0.9,1.1-1.9,0.5-2.9,0.1c-5.7-2.4-10.9-5.5-15.6-9.5C183.8,599.2,181.1,576.5,162.1,569.3z"/>
	<path class="st0" d="M238.2,542.6c-0.7,4.6,5.5,4.9,4.6,0.6c-0.5-1.6,0.1-2.3,1.4-3.2c1.5,1.2,3,2.3,4.5,3.5
		c-0.8,4.4-5.7,1.6-5.2,5.8c0.5,2.7,5,2.2,4.6-0.5c-0.2-1.8,0.6-2.9,2-4c1.1,0.9,2.2,1.8,3.3,2.6c-0.6,1.8-1.6,2.6-3.2,3.1
		c-3,0.8-1.4,5.5,1.5,4.4c3.4-1.4-0.5-4.1,3.2-6.3c1.9,1.5,3.8,3,5.8,4.6c-1.2,4.7-5.5,1.6-5.5,5.7c0.3,2.9,5,2.8,4.7-0.5
		c0-1.8,0.9-2.8,2.2-3.9c1.2,1,2.3,1.9,3.5,2.9c-1.1,3.9-5.9,1.9-5,5.8c0.6,2.7,5.1,2,4.5-1.1c-0.2-1.6,0.6-2.5,1.7-3.7
		c2.7,1.8,5,3.9,7.9,6.2c-6.2,4-12,7.7-18,11.6c-11.6-10.3-23-20.6-34.7-31c3.9-4.6,7.7-9,11.6-13.5c1.9,1.5,3.5,2.8,5.3,4.2
		c-0.7,1.5-1.2,2.7-2.9,3C231.5,539.7,233.7,545.1,238.2,542.6L238.2,542.6z"/>
	<path class="st0" d="M344.8,618.7c0.3-2.1,0.5-4.1,0.8-6.2c24.4,10.2,27.8,0.8,50.2-2.5c9.1-1.1,17.9-0.2,27-0.4c0,2.9,0,5.4,0,8
		c-12.9-1.9-24.6,4.1-36.7,7.7c-11.5,3.3-24.8,3.3-35.2-3.2C349.2,620.9,347.1,619.9,344.8,618.7z"/>
	<path class="st0" d="M380.4,538.1c-5.2,2.2-9.8,5.1-13.3,9.5c-6,7.2-13,13.1-21.2,17.6c-4.8,2.6-8.8,6.4-12.2,10.7
		c-0.6,0.6-0.9,1.7-1.9,1.8c1.1-7.5,3.9-15,5.8-22.5c1.9-5.2,4.3-10.7,9.2-13.8c4.1-2.6,8.2-5.2,12.3-7.8c0.7-0.4,1.6-0.7,2.4-0.7
		C367.9,533.8,375,534.5,380.4,538.1z"/>
	<path class="st0" d="M451.3,514c2-3,3.9-5.7,5.6-8.4c3.2-3.8,15,4.1,17.4,7.2c10.9,10.3,9.5,28.9,20.2,36.3
		c-5.4,4.3-11.4,7.1-17.5,10.5C482.3,540.2,467.4,523,451.3,514z"/>
	<path class="st0" d="M211.6,627.2c-1.7,3-3.2,5.6-4.8,8.4c-27.9-10.6-37.4-32.1-56.3-52.4c1.9-2.3,4-5,6.3-7.9
		c11.7,12.7,21.8,26.6,33.6,39.3C196.2,620.9,203.5,624.5,211.6,627.2z"/>
	<path class="st0" d="M239.9,595.7c-3.2,3.1-6.1,5.9-9.1,8.8c-12.2-11.2-17.8-27-25.9-41.1c-3.8-7-9.9-10.9-16.9-14.3
		c4.8-2.8,9.2-5.5,14-8.3C211.9,561.2,224.3,579.4,239.9,595.7z"/>
	<path class="st0" d="M407.5,208.1c17.7,2.7,35.7,8.7,47.4,23c1.2,1.2,1.8,2.7,1.8,4.4c-0.1,5.8,0.5,11.5-0.1,17.3
		c-1.3-0.3-1.6-1.4-2.1-2.2c-11.7-17.7-27.4-33.1-47.1-41.7C407.5,208.6,407.5,208.4,407.5,208.1z"/>
	<path class="st0" d="M214.9,622.9c-0.9,1.1-1.6,2.1-2.4,3.1c-13.6-3.1-23.1-13.3-31.5-23.7c-7.6-9.3-15.5-18.4-23-27.8
		c0-0.2,0-0.4,0.1-0.5c2.7-3.8,2.8-3.8,6.9-1.7c9.8,4.6,14.4,14.8,19.7,23.6C191.1,608.4,201.9,617.7,214.9,622.9z"/>
	<path class="st0" d="M174.6,486.1c-4-2.2-6.3-5.4-9.4-8.5c-2.6-2.9-3.3-6.5-2.4-10.2c2.6-10.2,9-19.2,17.6-25.3
		c2.6-2.2,2.9-0.1,5.7-1.6c4.2-1.2,7.6-3.2,12.1-3.5C176.2,454.1,174.5,458.2,174.6,486.1z"/>
	<path class="st0" d="M450,210.5c-18.1-15.7-38.7-24.6-63-24c16.2-4.5,44.3-8.9,55.1,7.5c3.1,5.1,6.1,10.6,8.4,16.2
		C450.3,210.2,450.2,210.4,450,210.5z"/>
	<path class="st0" d="M354.7,212.4c-2.2,0.4-4.3,0.8-6.8,1.3c2.7-43.6-49-55-72.3-21.8C294.5,152.3,356.5,169.1,354.7,212.4z"/>
	<path class="st0" d="M417.7,160.8c-15.8-3.8-31.3-4.2-46.6,1.6c-0.1-0.2-0.2-0.4-0.3-0.6c8.8-9.1,21.3-12.7,33.4-14.2
		c1.2-0.2,2.2-0.2,3.1,0.8c3.3,3.7,6.6,7.4,9.9,11.1C417.4,159.8,417.5,160.1,417.7,160.8z"/>
	<path class="st0" d="M189.4,417.1c5.3-3.2,10.3-6.2,15.7-8.4c10.2-1.3,18.6,5.1,23.5,13.6c-2.4,2-2.4,2-4.4,0.5
		c-10.2-7.9-21.8-9.1-33.9-5.3C190.1,417.5,190,417.4,189.4,417.1z"/>
	<path class="st0" d="M383.3,534.6c1.3-2.4,2.6-4.8,3.9-7.4c5.2,0.4,10.5,0.8,15.7,1.2c-1.3,5.5-2.5,10.8-3.6,16.1
		C394.1,541.2,388.8,538,383.3,534.6z"/>
	<path class="st0" d="M123.4,281c-1.6,4.3-3.5,8.6-5.2,12.9c-0.5,1.3-1.2,2.3-2.5,2.9c-2.8,1.5-5.6,3.2-8.7,4.9
		c-0.5-5.2,0.7-10.1,0.9-15.3c0.1-1.2,0.6-2,1.8-2.3c4.3-1.2,8.6-2.3,13-3.5C122.8,280.6,123,280.8,123.4,281z"/>
	<path class="st0" d="M130,268.5c-1.9,2.8-3.7,8.8-6.2,9.6c-4.7,1.6-9.4,3.1-14.2,4.6c-0.2,0.1-0.4,0-1-0.1c0.4-2.1,0.7-4.3,1.2-6.3
		c1.6-6.5,0.4-5.3,7-6.6C121,268.9,125.2,268.4,130,268.5z"/>
	<path class="st0" d="M112.1,341.6c-3.4-11.1-4.8-22.9-5.4-34.5c-0.1-1.7,0.3-2.9,1.9-3.7c2.4-1.2,4.6-2.6,7.2-3.7
		c-4,13.7-3.5,27.7-3.4,41.8C112.3,341.5,112.2,341.6,112.1,341.6z"/>
	<path class="st0" d="M193.4,418.5c7.4-3.8,23.6-1.7,30.5,6.3c-3,1.7-5.9,3.4-9,5.2C208.8,424.3,202.4,419,193.4,418.5z"/>
	<path class="st0" d="M375.9,440.8c0,3.4,0,6.6,0,10c-2.7,0.1-11.8-0.6-13.1-3c-2.8-6.3-1.7-6.2,1.9-11.6
		C368.4,437.7,372.1,439.2,375.9,440.8z"/>
	<path class="st0" d="M393.5,441.3c0.5,2.2,1.1,4.5,1.7,7c-4.7,1.9-9.9,2.6-15,2.6c-2.6,0-2.9-0.2-3.3-2.9c-0.4-2.3-0.1-4.5,0.6-6.8
		C382.8,441.3,388,441.3,393.5,441.3z"/>
	<path class="st0" d="M290.9,523.6c-1.2-1.8-2-3-3-4.6c6.9-7.9,12.7-16,18.6-24.7c1.5,0.9,2.7,1.7,4.2,2.7
		C304.1,505.8,297.7,514.5,290.9,523.6z"/>
	<path class="st0" d="M331.4,495.2c-2.6,2.9-4.9,5.5-7.3,8.2c-3.7-2.4-7.3-4.7-11.2-7.2c2.2-3,4.3-5.8,6.5-8.8
		C323.4,490.1,327.3,492.5,331.4,495.2z"/>
	<path class="st0" d="M420.7,340.1c-5.3,7.1-10.4,13.8-15.7,20.9c-1.5-0.9-2.7-1.7-4.3-2.7c2.1-2.3,4.2-6.6,6.6-7.7
		c1.7-0.3,2.4-1.3,2.3-3c0-0.5,0.2-1.1,0.5-1.5c2.2-2.9,4.4-5.7,6.8-8.9C418.2,338.2,419.4,339.1,420.7,340.1z"/>
	<path class="st0" d="M279.9,540.5c2-2.7,3.8-5.2,5.6-7.6c2,0.9,8.2,6.3,10.5,9.2c-2.3,1.8-4.6,3.5-7.1,5.4
		C285.7,545.1,283.1,543.1,279.9,540.5z"/>
	<path class="st0" d="M272.5,537.9c-3.6,4.8-7,9.3-10.6,14c-2.1-1.7-4.1-3.2-6.2-5C264.8,536.2,260,536.4,272.5,537.9z"/>
	<path class="st0" d="M114.5,173.7c3-3.7,4.4-8,8.9-9.7c7.3-2.8,13.8-5.2,21.4-7.6C140.7,160.5,119.1,172.9,114.5,173.7z"/>
	<path class="st0" d="M363.7,386.6c-0.7,0.9-1.4,1.8-2.3,2.9c-1-0.8-1.8-1.4-2.9-2.3c9.5-12,18.9-23.9,28.5-36
		c0.1,1.8,0.1,1.8,1.6,3.7c-2.1,3.6-2.8,4-5.9,3.6c-3.3,3.4-5.3,6.9-7.3,12.6c-0.6-0.2-1.2-0.4-1.9-0.6c-0.9,0.9-1.7,1.9-2.5,3.1
		c0.5,0.6,1,1.2,1.6,1.9c-1.8,2.3-3.5,4.4-5.4,6.8c-0.8-0.3-1.6-0.6-2.5-0.9c-0.8,1-1.6,1.9-2.5,2.9
		C362.6,385.2,363.1,385.8,363.7,386.6z"/>
	<path class="st0" d="M314.3,482.1c-1.8-1.6-6.4-2.5-4.7-5.3c3-4.1,5.8-7.6,9.1-11.8c1.7,1.5,3.2,2.9,5,4.5
		C320.6,473.6,317.6,477.7,314.3,482.1z"/>
	<path class="st0" d="M395,440.9c6.9-1.9,12.9-4.3,20-3.5c-1.6,3-12.8,9.3-18.2,10.3C395.4,445.8,395.1,443.5,395,440.9z"/>
	<path class="st0" d="M406.4,361.2c5.2-6.9,10.1-13.5,15.2-20.2c1.6,0.9,2.1,1.2,3.5,2.6c-4.7,6.4-9.4,12.7-14.3,19.3
		C409.4,362.3,408.1,361.8,406.4,361.2z"/>
	<path class="st0" d="M392,350.8c-1.4-0.6-2.5-1-3.7-1.4c5.5-6.9,11.1-14,16.8-21.3c1.1,0.8,1.9,1.4,3,2.3
		C402.7,337.3,397.4,344.1,392,350.8z"/>
	<path class="st0" d="M395.8,354.3c-1.1-0.9-2-1.6-3.1-2.4c5.5-7,10.9-13.7,16.4-20.7c1.1,0.8,1.8,1.5,2.8,2.2
		C406.6,340.4,401.3,347.2,395.8,354.3z"/>
	<path class="st0" d="M385.4,527.3c-0.5,2.6-2,4.7-3.6,6.7c-5.1-1.4-9.9-2.8-15-4.2c5.6-4.1,7.4-4.7,14.1-3.6
		C382.4,526.7,384.2,526.2,385.4,527.3z"/>
	<path class="st0" d="M413,334.1c1.1,0.8,1.8,1.4,2.8,2.1c-1.7,2.2-6.3,10.1-8.9,9.9c-1.3,0.1-2,1.2-1.7,2.5c0.4,2.9-3.8,6-5.4,8.6
		c-1-0.8-1.9-1.5-3-2.3C402.2,348,407.5,341.2,413,334.1z"/>
	<path class="st0" d="M335,466.5c3.3,2.9,6.3,5.5,9.6,8.4c-2.6,1.7-4.8,3.1-7.2,4.7c-2.4-2.2-4.7-4.3-7.2-6.6
		C331.8,470.7,333.3,468.8,335,466.5z"/>
	<path class="st0" d="M273.9,538.1c1.4,1.2,2.5,2,3.9,3.2c-3.7,4.9-7.2,9.6-10.9,14.6c-1.4-1.1-2.5-2.1-3.9-3.2
		C266.6,547.8,270.1,543.1,273.9,538.1z"/>
	<path class="st0" d="M519.7,210c1.1,0.8,2,1.5,3.1,2.3c-4.4,6-8.8,11.8-13.3,18c-1.1-0.8-2-1.5-3.1-2.4
		C510.8,221.8,515.2,216.1,519.7,210z"/>
	<path class="st0" d="M495.8,219.7c-1.1-0.8-2-1.5-3.1-2.3c4.6-5.8,9.1-11.5,13.7-17.3c1.1,0.8,2,1.5,3.1,2.3
		C504.9,208.2,500.4,213.9,495.8,219.7z"/>
	<path class="st0" d="M481.5,267.8c-1.2-1-2-1.7-3-2.6c3.9-5.5,7.9-10.7,12-16.2c1.2,0.7,2.1,1.4,3.4,2.2
		C489.7,256.7,485.7,262.1,481.5,267.8z"/>
	<path class="st0" d="M475.6,268.8c1.2,1.1,2,1.9,3,2.8c-3.9,5.2-7.6,10.2-11.6,15.5c-1.2-0.9-2.1-1.7-3.2-2.6
		C467.8,279.2,471.6,274.1,475.6,268.8z"/>
	<path class="st0" d="M453,306c-1.2-1-2.2-1.7-3.3-2.6c3.8-5.1,7.5-10,11.4-15.1c1.2,0.9,2.1,1.7,3.2,2.6
		C460.5,296,456.9,300.8,453,306z"/>
	<path class="st0" d="M457.1,284.9c1.2,1,2,1.8,3,2.7c-3.8,5.1-7.5,10-11.4,15.2c-1.2-1-2.2-1.7-3.3-2.6
		C449.3,295,453,290.1,457.1,284.9z"/>
	<path class="st0" d="M433.7,322.8c-3.5,4.6-6.7,8.9-10.1,13.5c-1.3-1-2.4-1.8-3.8-2.9c3.5-4.5,6.8-8.9,10.4-13.5
		C431.3,320.8,432.3,321.7,433.7,322.8z"/>
	<path class="st0" d="M461.6,256.7c1.1,0.9,1.9,1.6,2.9,2.5c-4.1,5.2-8.1,10.3-12.3,15.6c-1-0.8-1.9-1.5-3-2.4
		C453.4,267.1,457.4,262,461.6,256.7z"/>
	<path class="st0" d="M437.1,293.8c-1.1-0.8-2-1.5-3-2.3c4.1-5.1,8-10.1,12.1-15.4c1,0.8,1.8,1.4,2.9,2.3
		C445.3,283.7,441.2,288.6,437.1,293.8z"/>
	<path class="st0" d="M305.3,471.1c-1.5-1.2-2.8-2.2-4.3-3.4c2.9-3.7,5.7-7.2,8.7-10.9c1.4,1.3,2.6,2.3,4,3.5
		C310.9,463.9,308.2,467.3,305.3,471.1z"/>
	<path class="st0" d="M319.4,485.3c-1.4-0.9-2.6-1.7-4-2.6c3.1-4.1,6-8.1,9.2-12.3c1.3,1.1,2.3,2.1,3.6,3.2
		C325.2,477.5,322.5,481.3,319.4,485.3z"/>
	<path class="st0" d="M434.6,323.6c1.2,1,2.1,1.8,3.3,2.7c-3.3,4.5-6.5,8.8-9.9,13.2c-1.2-0.9-2.2-1.6-3.4-2.6
		C427.9,332.5,431.2,328.2,434.6,323.6z"/>
	<path class="st0" d="M471.9,265.7c1.4,1,1.7,1.2,2.7,2.5c-3.8,5.1-7.6,10.2-11.5,15.3c-1.5-0.8-1.9-1.2-3.3-2.3
		c2.4-2.5,3.4-5.8,6.6-7.2c0.5-0.2,1.1-1,1.2-1.5C467.8,269.6,470.2,268.1,471.9,265.7z"/>
	<path class="st0" d="M490,221.2c1,0.7,1.8,1.4,2.8,2.2c-3.8,4.8-7.4,9.4-11.2,14.2c-1.1-0.6-1.9-1.1-2.8-1.6
		C479.3,234,486.3,224.8,490,221.2z"/>
	<path class="st0" d="M486.6,246.4c1,0.7,1.8,1.2,2.9,1.9c-4,5.3-7.9,10.5-12,15.9c-1-0.9-1.8-1.6-2.8-2.4
		C478.8,256.6,482.6,251.6,486.6,246.4z"/>
	<path class="st0" d="M502,224.3c-1.3-0.8-1.5-0.8-2.4-1.9c4.5-5.8,8.9-11.5,13.5-17.4c0.9,0.7,1.6,1.2,2.5,1.8
		C510.9,212.8,506.5,218.5,502,224.3z"/>
	<path class="st0" d="M467.5,255.5c-1.1-0.9-1.9-1.7-2.9-2.5c3.6-4.6,7.1-9,10.8-13.6c1.1,0.6,2,1.2,3.3,2
		C474.9,246.1,471.3,250.7,467.5,255.5z"/>
	<path class="st0" d="M436.5,319c-1.2-1-2.2-1.8-3.4-2.9c3.1-4.1,6.2-8.1,9.4-12.2c1.2,0.9,2.1,1.6,3.4,2.6
		C442.8,310.7,439.7,314.7,436.5,319z"/>
	<path class="st0" d="M453.5,281.9c1,1,1.7,1.6,2.5,2.4c-3.9,5-7.6,9.9-11.6,15.1c-0.9-0.7-1.7-1.2-2.9-2
		C445.5,292.1,449.4,287.1,453.5,281.9z"/>
	<path class="st0" d="M440.6,322.6c-1.2-1.1-2.1-1.8-3.2-2.8c3.2-4.2,6.2-8.3,9.4-12.6c1.2,0.9,2.2,1.6,3.4,2.5
		C447,314.1,443.9,318.3,440.6,322.6z"/>
	<path class="st0" d="M505.4,227.1c-0.9-0.7-1.5-1.2-2.4-1.9c4.5-5.9,8.9-11.6,13.4-17.5c0.8,0.5,1.5,0.9,2.4,1.5
		C514.2,215.2,509.9,221.1,505.4,227.1z"/>
	<path class="st0" d="M419.2,310.3c1.1,1,1.8,1.6,2.8,2.6c-3.7,4.6-7.2,9.1-11,13.8c-1.1-0.8-2-1.5-3-2.3
		C411.8,319.7,415.4,315.1,419.2,310.3z"/>
	<path class="st0" d="M503.5,231.6c1.2,1,2.1,1.6,3.1,2.5c-3.3,4.5-6.5,8.7-9.8,13.2c-1.1-0.7-2.1-1.4-3.3-2.2
		C496.8,240.5,500.1,236.2,503.5,231.6z"/>
	<path class="st0" d="M441.3,279.9c15.5-20.3,31-41.2,47.8-60.4C473.6,239.9,457.8,260.3,441.3,279.9
		C441.2,279.8,441.3,279.9,441.3,279.9z"/>
	<path class="st0" d="M426.5,316.7c1,0.9,1.8,1.5,2.8,2.3c-3.5,4.6-6.9,9-10.4,13.6c-1-0.8-1.8-1.4-2.9-2.3
		C419.5,325.8,422.9,321.3,426.5,316.7z"/>
	<path class="st0" d="M314.6,461.2c1.2,1.1,2.1,1.9,3.2,2.9c-3,4-5.9,7.8-9.1,11.9c-1-1.5-1.7-2.6-2.6-3.9
		C308.9,468.5,311.7,464.9,314.6,461.2z"/>
	<path class="st0" d="M473.9,261c-0.9-0.8-1.6-1.4-2.6-2.1c3.9-5,7.6-9.8,11.5-14.9c1,0.6,1.7,1.1,2.7,1.8
		C481.6,250.9,477.8,255.8,473.9,261z"/>
	<path class="st0" d="M256.3,534.4c-2.2,2.8-4.1,5.3-6.2,8c-1.7-1.4-3.3-2.6-5-3.9c1.9-2.4,3.6-4.6,5.5-7
		C252.5,532.4,254.2,533.3,256.3,534.4z"/>
	<path class="st0" d="M423.1,313.7c1,0.9,1.6,1.4,2.5,2.2c-3.5,4.6-7,9-10.5,13.6c-1.3-0.7-1.6-0.9-2.7-2
		C415.5,322.7,419.3,318.4,423.1,313.7z"/>
	<path class="st0" d="M458.9,280.4c-1-0.8-1.6-1.4-2.6-2.2c4-5.2,7.9-10.3,11.9-15.5c1.2,0.7,1.6,0.9,2.8,1.7
		c-2.1,2.2-2.6,5.1-5.5,5.5c-4.2,0.6-0.8,3.6-3,5.7C461.4,277.1,460.3,278.6,458.9,280.4z"/>
	<path class="st0" d="M440.7,296.4c-0.9-0.6-1.6-1.1-2.5-1.8c4-5.1,8-10.1,12-15.1c0.8,0.6,1.4,1,2.3,1.7
		C448.5,286.2,444.6,291.2,440.7,296.4z"/>
	<path class="st0" d="M425.9,344.4c1.8,0.6,1.9,1.4,1.1,2.5c-1.6,2.1-3.1,4.3-4.7,6.5c-2.4,3.2-4.7,6.5-7.1,9.7
		c-1,1.4-1.1,1.3-3.1-0.1C416.7,356.8,421.3,350.6,425.9,344.4z"/>
	<path class="st0" d="M376.8,464.9c8,1.2,15.3-0.9,21.4-6.2c2.5-1.9,4.5-4.7,7.6-5.7C398.9,462.6,389.1,470.2,376.8,464.9z"/>
	<path class="st0" d="M429.4,418.4c-1.2,5.7-5,10-8.4,14.3c-2.3,3.4-6.2,3.4-9.9,3.6c-0.1-0.2-0.2-0.4-0.2-0.7
		C418,430.9,425.4,426.4,429.4,418.4z"/>
	<path class="st0" d="M422,306.8c3.1-3.9,6.1-7.7,9.2-11.7c1,0.8,1.8,1.5,3,2.4c-3.1,3.9-6.1,7.6-9.1,11.5
		C424,308.2,423.1,307.6,422,306.8z"/>
	<path class="st0" d="M301,446.1c1.3-2,2.5-3.8,3.9-5.9c2.1,1.8,3.9,3.4,5.9,5.1c-1.5,1.9-2.8,3.6-4.3,5.6
		C304.4,449.7,302.9,447.9,301,446.1z"/>
	<path class="st0" d="M432.2,315.3c-1.1-0.9-1.8-1.6-2.7-2.4c3.1-4,6.1-7.8,9.2-11.9c0.9,0.7,1.7,1.3,2.9,2.1
		C438.4,307.1,435.4,311,432.2,315.3z"/>
	<path class="st0" d="M300,467.1c-1.1-0.6-2-1-3.3-1.7c3.2-4.1,6.2-7.9,9.4-12c1,0.9,1.8,1.6,2.8,2.5
		C305.8,459.7,302.9,463.4,300,467.1z"/>
	<path class="st0" d="M492.3,244.5c-1-0.7-1.8-1.2-2.9-2c4.1-4.6,7.1-8.4,10.5-13.5c0.9,0.7,1.6,1.3,2.5,2
		C499.1,235.5,495.8,239.8,492.3,244.5z"/>
	<path class="st0" d="M455.4,277.4c-0.9-0.7-1.4-1.2-2.2-1.8c4.1-5.2,8.1-10.2,12.2-15.3c1.1,0.5,1.3,0.7,2,1.7
		C463.4,267,459.5,272,455.4,277.4z"/>
	<path class="st0" d="M251.1,543.2c2.3-2.9,4.3-5.5,6.4-8.3c1.5,0.5,2.9,1,4.7,1.7c-2.5,3.3-4.8,6.3-7.3,9.5
		C253.5,545.1,252.5,544.2,251.1,543.2z"/>
	<path class="st0" d="M314.2,484.2c1.4,0.9,2.6,1.6,4.1,2.6c-2.2,3-4.3,5.7-6.5,8.7c-1.4-0.9-2.6-1.7-4.1-2.6
		C310,489.9,312,487.2,314.2,484.2z"/>
	<path class="st0" d="M319.9,463.5c1.7-2.2,3.1-4,4.7-6.1c1.7,1.5,3.3,2.8,5.1,4.3c-1.5,2-3,4-4.7,6.3
		C323.2,466.5,321.7,465.1,319.9,463.5z"/>
	<path class="st0" d="M426,309.9c3.2-4.1,6.1-7.7,9.2-11.6c0.9,0.7,1.6,1.2,2.6,1.9c-3.1,4-6.1,7.9-9.2,11.9
		C427.5,311.3,426.9,310.7,426,309.9z"/>
	<path class="st0" d="M470.2,257.8c-0.6-0.5-1.1-0.9-1.7-1.4c3.1-4.6,6.8-8.7,10.1-13.1c0.8-1.1,1.6-1.2,2.5-0.2
		C480.7,244.9,473.8,254.2,470.2,257.8z"/>
	<path class="st0" d="M297.2,540.2c-3.4-3-6.7-6-10.2-9.2c1-1.4,1.9-2.6,2.8-3.8C291.8,529,296.3,536.3,297.2,540.2z"/>
	<path class="st0" d="M512,203.9c-3.7,5.8-8.2,10.8-12.3,16.3c-0.8,1-1.5,1.9-2.6,0.1c3.6-5,7.6-9.7,11.4-14.6
		C509.5,204.4,509.9,203.3,512,203.9z"/>
	<path class="st0" d="M323.3,447.6c-1.2-1-2.4-1.9-3.9-3c1.7-2.2,3.3-4.2,5.2-6.6c1.3,1.1,2.3,2.1,3.6,3.3
		C326.7,443.6,325.2,445.6,323.3,447.6z"/>
	<path class="st0" d="M342.3,423.4c-1.9,2.4-3.5,4.5-5.2,6.7c-1.4-0.9-2.6-1.7-4.1-2.7c2-2.5,3.8-4.7,5.7-7.2
		C339.9,421.4,341,422.3,342.3,423.4z"/>
	<path class="st0" d="M340.8,446.6c-1.6-1.5-3-2.8-4.6-4.3c1.2-1.6,2.3-3,3.6-4.8c1.8,1.2,3.4,2.3,5.3,3.5
		C343.6,443,342.3,444.7,340.8,446.6z"/>
	<path class="st0" d="M333.6,446.2c1.5,1.4,2.8,2.6,4.5,4.2c-1.4,1.9-2.7,3.7-4.3,5.7c-1.7-1.4-3.3-2.7-5-4c0.5-0.4,0.6-0.7,0.8-0.7
		C335.1,450.8,330.8,448,333.6,446.2z"/>
	<path class="st0" d="M493.7,224.4c1.4,0.5,2,1,1.1,2.1c-3.1,4-6.2,8-9.3,12c-0.8,1-1.6,0.8-2.6-0.4
		C486.5,233.6,490.1,229,493.7,224.4z"/>
	<path class="st0" d="M315.5,449.5c1.4,1.2,2.5,2.2,3.9,3.4c-1.5,2-2.9,3.8-4.5,5.9c-1.4-1.2-2.6-2.2-3.9-3.4
		C312.5,453.4,313.8,451.6,315.5,449.5z"/>
	<path class="st0" d="M329.3,472.1c-1.3-1.2-2.4-2.2-3.6-3.2c1.6-2.1,3.1-4.1,4.7-6.3c1.3,1.1,2.3,2,3.5,3.1
		C332.5,467.8,331,469.7,329.3,472.1z"/>
	<path class="st0" d="M278.9,539.7c-1.4-1.1-2.4-2-3.4-2.8c2.5-2.4,4.8-4.6,7.3-7.1c0.5,0.4,1.2,1,2.1,1.8
		C282.9,534.4,281,536.9,278.9,539.7z"/>
	<path class="st0" d="M337.7,419.4c-2.1,2.6-3.9,4.9-5.8,7.3c-1.1-0.7-1.9-1.2-3.1-2c2-2.6,3.9-5,6-7.7
		C335.8,417.9,336.6,418.6,337.7,419.4z"/>
	<path class="st0" d="M430.7,341.7c-0.7-0.6-1.1-0.9-1.7-1.4c3.2-4.3,6.4-8.6,9.5-12.8c1.8,0.6,1.6,1.4,0.8,2.5
		C436.4,334,433.8,337.7,430.7,341.7z"/>
	<path class="st0" d="M367.7,401.2c1.5,1.2,2.8,2.3,4.1,3.3c-1.6,4.1-4.5,4.9-8.3,2.2C364.8,405,366.2,403.2,367.7,401.2z"/>
	<path class="st0" d="M341.8,447.5c1.5-2,2.8-3.8,4.3-5.7c1.3,0.9,2.4,1.6,3.8,2.5c-1.4,2.3-2.9,4.3-4.7,6.4
		C344,449.5,343,448.6,341.8,447.5z"/>
	<path class="st0" d="M359.4,394.1c1.3,1.1,2.2,1.9,3.3,2.9c-1.5,1.9-2.9,3.8-4.5,5.9c-1.2-0.9-2.3-1.7-3.6-2.7
		C356.2,398,357.7,396.2,359.4,394.1z"/>
	<path class="st0" d="M314.1,440.2c5.9-9.4,14.2-17.7,21-26.5C334.1,416.5,316.1,439,314.1,440.2z"/>
	<path class="st0" d="M347.6,428c1.4,1.2,2.8,2.5,4.3,3.8c-1.4,1.8-2.6,3.5-4,5.5c-1.7-1.1-3.3-2.1-4.9-3.2c0.1-0.2,0.1-0.4,0.2-0.6
		c2.2,0.4,5-0.2,4-3C347,429.7,346,429,347.6,428z"/>
	<path class="st0" d="M314.7,541.7c-5.8-10.1-14.8,4.2-3.4,5.2c-4.7,2.5-9.3-3.5-6.6-7.6C307.3,534.9,314.6,536.1,314.7,541.7z"/>
	<path class="st0" d="M319,462.6c-1.2-1.1-2.1-1.9-3.2-3c1.5-2,3-3.8,4.6-5.9c1.1,1,2.1,1.8,3.3,2.8
		C322,458.6,320.6,460.4,319,462.6z"/>
	<path class="st0" d="M343.2,424.2c1.1,1,2,1.8,3,2.7c-1.6,2.1-3.2,4.1-4.8,6.2c-1.1-0.7-2.1-1.4-3.4-2.2
		C339.9,428.5,341.5,426.5,343.2,424.2z"/>
	<path class="st0" d="M338.4,459.8c-1.3-1.1-2.4-1.9-3.6-2.9c1.6-2.1,2.5-3.6,4.3-5.5c1.1,1,2.1,2,3.3,3.1
		C341,456.3,339.8,458,338.4,459.8z"/>
	<path class="st0" d="M466.1,292.3c-2,5.2-6.6,9.4-9.6,14.2c-0.5,0.7-1,1.6-2,0.6C455.1,305,463.4,293.7,466.1,292.3z"/>
	<path class="st0" d="M451.9,311c0.3,1.3-0.2,2.3-1.1,3.2c-2.5,3.4-5,6.9-7.5,10.3c-1.2-0.4-1.8-0.9-1.1-1.9c2.9-4,5.8-7.9,8.8-11.8
		C451.3,310.8,451.6,310.9,451.9,311z"/>
	<path class="st0" d="M321,434.6c1,0.9,1.7,1.5,2.8,2.5c-1.8,2.2-3.4,4.3-5.2,6.6c-1.1-0.9-1.8-1.5-2.9-2.4
		C317.4,439.1,319.1,436.9,321,434.6z"/>
	<path class="st0" d="M246.5,528.8c1.1,0.7,1.9,1.2,3.1,2c-1.8,2.3-3.5,4.5-5.3,6.8c-1-0.8-1.8-1.4-2.9-2.3
		C243.1,533,244.8,531,246.5,528.8z"/>
	<path class="st0" d="M310,539.3c3.9,0,4.2,5.8,0.3,6.1C306.2,545.7,306,539.6,310,539.3z"/>
	<path class="st0" d="M352.9,432.6c1.3,1.1,2.3,2,3.5,3c-1.2,1.6-2.3,3.1-3.6,4.9c-1.3-0.8-2.5-1.6-3.9-2.5
		C350.3,436.2,351.5,434.5,352.9,432.6z"/>
	<path class="st0" d="M350.6,397.1c1.7-2.2,3.2-4,4.9-6.1c1,0.8,1.8,1.5,2.9,2.4c-1.6,2.1-3.1,4-4.8,6
		C352.5,398.6,351.7,397.9,350.6,397.1z"/>
	<path class="st0" d="M362.3,406.1c-1.2-0.9-2.1-1.6-3-2.3c1.1-2.3,2.7-3.7,4.3-6c1,0.8,1.9,1.6,3,2.4
		C365.1,402.6,364.1,403.9,362.3,406.1z"/>
	<path class="st0" d="M286,530.2c-1.1-1-1.9-1.7-2.5-2.3c0.6-3.7,0.8-4.1,3.3-6.2c0.8,1.3,1.7,2.5,2.6,3.9
		C288.3,527.1,287.2,528.5,286,530.2z"/>
	<path class="st0" d="M329.2,442.3c1.1,1,2.1,1.9,3.1,2.8c-1.2,2.5-4.1,0.9-4.1,6.2c-1.5-1.1-2.5-1.8-3.8-2.8
		C326,446.4,327.5,444.5,329.2,442.3z"/>
	<path class="st0" d="M492.4,232.4c0,0.2-0.1,0.4-0.1,0.6c1.6,4-1.8,6.1-3.9,8.8c-0.8-0.5-1.6-0.9-2.7-1.6
		C488.2,237.6,489.4,234.3,492.4,232.4L492.4,232.4z"/>
	<path class="st0" d="M345.2,412c1.3,1,2.4,1.8,3.7,2.8c-1.3,1.7-2.4,3.1-3.7,4.8c-1.3-1.1-2.3-2-3.5-3.1
		C342.9,415,343.9,413.6,345.2,412z"/>
	<path class="st0" d="M468.7,288.9c-0.1-0.8-0.3-1.2-0.2-1.3c3.5-4.8,7-9.5,10.5-14.3c0.2-0.3,0.6-0.4,1.3-0.7
		c-0.3,2.7-2.2,4-3.3,5.8C474.1,282,472.3,285.5,468.7,288.9z"/>
	<path class="st0" d="M348.7,453.7c-0.9-0.8-1.6-1.3-2.6-2.2c1.7-2.2,3.2-4.3,4.9-6.5c0.9,0.6,1.6,1,2.6,1.6
		C352,449.1,350.4,451.3,348.7,453.7z"/>
	<path class="st0" d="M310,454.4c-1.1-1-1.8-1.7-2.7-2.5c1.5-1.9,2.9-3.7,4.4-5.7c1,0.8,1.8,1.5,2.8,2.4
		C313,450.6,311.7,452.3,310,454.4z"/>
	<path class="st0" d="M351.6,403.8c1.4,1.1,2.4,1.9,3.6,2.8c-1.2,1.6-2.2,2.9-3.4,4.5c-1.2-0.9-2.2-1.7-3.6-2.7
		C349.3,406.9,350.3,405.5,351.6,403.8z"/>
	<path class="st0" d="M287.3,518.1c-1.3-2.1-2.4-3.8-3.8-5.8c3-0.2,5.5-0.4,8.6-0.6C290.4,514,289,515.9,287.3,518.1z"/>
	<path class="st0" d="M349.2,423.1c-1.1-0.9-1.9-1.6-3.1-2.6c1.2-1.6,2.4-3.2,3.7-4.9c1.2,0.9,2.1,1.6,3.3,2.5
		C351.7,419.9,350.5,421.4,349.2,423.1z"/>
	<path class="st0" d="M483.4,269.1c0.1-2.2,9-14.4,11.7-16.9c0.2,0,0.4,0.2,0.4,0.3C491.4,258,487.8,263.9,483.4,269.1z"/>
	<path class="st0" d="M356.3,407.4c1.2,0.9,2.1,1.6,3.1,2.5c-1.2,1.5-2.2,2.9-3.4,4.6c-1.1-0.9-2.1-1.6-3.2-2.5
		C354,410.4,355,409.1,356.3,407.4z"/>
	<path class="st0" d="M354.5,419.6c0.3,2.6,0.6,5.3,0.9,7.9c-0.2,0.1-0.4,0.2-0.6,0.4c-1.5-1.2-2.9-2.4-4.6-3.8
		c1.4-1.8,2.6-3.3,3.8-4.8C354.1,419.3,354.3,419.5,354.5,419.6z"/>
	<path class="st0" d="M343.3,455.3c1,0.9,1.7,1.5,2.5,2.4c-1.2,1.7-2.3,3.3-3.6,5.3c-1-0.8-1.9-1.5-2.9-2.3
		C340.7,458.8,341.9,457.2,343.3,455.3z"/>
	<path class="st0" d="M490.4,216.8c4.7-5.9,9.4-11.9,14.1-17.8C504.2,201.2,493.3,215.2,490.4,216.8z"/>
	<path class="st0" d="M332.1,438.5c1.1-1.4,2.1-2.6,3.1-3.9c1.2,0.8,2.2,1.4,3.5,2.2c-1.2,1.5-2.2,2.9-3.5,4.5
		C334.1,440.4,333.3,439.6,332.1,438.5z"/>
	<path class="st0" d="M311.1,557.7c3.4,0.4,3.2,5.4-0.4,5.2C307.3,562.5,307.8,557.6,311.1,557.7z"/>
	<path class="st0" d="M330.1,431.2c1.4,0.9,2.6,1.7,4,2.6c-1,1.3-1.8,2.4-2.9,3.7c-1.3-1.1-2.4-2-3.7-3.2
		C328.5,433.2,329.2,432.3,330.1,431.2z"/>
	<path class="st0" d="M367.9,383.5c1.6-2.5,3.6-4.7,5.6-7.3c1.1,0.8,2,1.5,3.2,2.4c-3.3,1.7-5.6,3.1-8.1,5.6
		C368.4,384,368.1,383.7,367.9,383.5z"/>
	<path class="st0" d="M347.8,400.8c1.1,0.9,1.8,1.4,2.8,2.2c-1.1,1.5-2.2,2.9-3.4,4.5c-1-0.9-1.9-1.5-2.9-2.3
		C345.5,403.6,346.5,402.3,347.8,400.8z"/>
	<path class="st0" d="M340.6,415.7c-1.1-0.9-1.7-1.6-2.7-2.4c1.1-1.5,2.1-2.9,3.3-4.5c1.1,0.8,1.9,1.5,2.9,2.3
		C342.9,412.8,341.9,414.1,340.6,415.7z"/>
	<path class="st0" d="M313.6,556.9c-3.8-0.6-5.4-0.1-6.2,2.1c-0.8,2,0,3.3,3,5.6C301.3,563.6,307.2,550.8,313.6,556.9z"/>
	<path class="st0" d="M306.1,491.6c2.2-3.2,3.2-6.1,3.9-10c1,0.6,1.9,1.1,2.7,1.6C312,485.4,308.5,490.2,306.1,491.6z"/>
	<path class="st0" d="M573.4,162c4.3-1.7,8.2-0.1,12.2-0.7C583.5,163.4,577.7,163.7,573.4,162z"/>
	<path class="st0" d="M540.7,199.3c4.6-1.8,8.7-1.1,12.9-0.1c-0.2,1.2-0.8,1.6-1.7,1.5C548.4,200.3,544.8,199.8,540.7,199.3z"/>
	<path class="st0" d="M344.6,391c-5.4-0.4-8.7-1.7-10.2-3.8C337.3,387.1,341.9,388.7,344.6,391z"/>
	<path class="st0" d="M492.4,232.5c0.6-2.5,2.6-4,4.2-6.1c0.8,0.6,1.5,1.1,2.4,1.7C495.8,233,496.8,230.6,492.4,232.5
		C492.4,232.4,492.4,232.5,492.4,232.5z"/>
	<path class="st0" d="M332.3,458c-0.7,0.8-1.1,1.4-1.7,2.1c-1.6-1.4-3.1-2.7-4.8-4.1c0.5-0.7,0.9-1.2,1.5-2
		C329,455.3,330.5,456.6,332.3,458z"/>
	<path class="st0" d="M238.3,542.7c-0.1-2.1-0.5-4.2,2.1-5.7c0.7,0.5,1.5,1.2,2.2,1.8C242.1,541.5,239.7,541.5,238.3,542.7
		C238.2,542.6,238.3,542.7,238.3,542.7z"/>
	<path class="st0" d="M362.3,390.5c0.9-1.2,1.6-2.1,2.4-3c2.5,1.5,2.6,1.7,1.2,5.3C364.2,392.7,363.6,391.4,362.3,390.5z"/>
	<path class="st0" d="M353.8,441.3c1.2-1.7,2.2-3,3.4-4.6c0.7,0.4,1.2,0.8,1.9,1.3c-0.9,1.6-1.8,3-2.7,4.7
		C355.6,442.2,354.9,441.8,353.8,441.3z"/>
	<path class="st0" d="M498.1,247.5c3.1-4.1,6.1-8.2,9.4-12.7C507.1,237.3,500.5,246.5,498.1,247.5z"/>
	<path class="st0" d="M374.9,410.6c-1.5-0.7-2.6-1.2-4.1-1.9c0.8-1.1,1.4-1.9,2.2-3c1.2,1,2.2,1.8,3.3,2.8
		C375.9,409.3,375.5,409.9,374.9,410.6z"/>
	<path class="st0" d="M357.6,445.5c1.5,4,2.7,6.7,4.7,10.3C358.9,453.3,356.4,448.3,357.6,445.5z"/>
	<path class="st0" d="M331.6,461c0.7-0.8,1.2-1.4,1.8-2.1c1.2,0.9,2.2,1.7,3.4,2.7c-0.5,0.8-0.9,1.5-1.6,2.5
		C334,463.1,333,462.2,331.6,461z"/>
	<path class="st0" d="M323.9,430.9c0.7-0.9,1.3-1.6,1.9-2.5c1,0.7,1.9,1.3,3,2c-0.8,1-1.5,1.9-2.3,2.9
		C325.6,432.5,324.9,431.8,323.9,430.9z"/>
	<path class="st0" d="M313.9,575.2c-1.7,1.6-3.8,2.9-4.4,0.1c-0.1-1,1-2.2,1.9-1.9C312.2,573.6,312.8,574.3,313.9,575.2z"/>
	<path class="st0" d="M320.4,451.2c-1.2-1.3-3.6-2-3-4c0.1-0.2,0.9-0.4,1.2-0.2C320,448.1,323.1,449.6,320.4,451.2z"/>
	<path class="st0" d="M326.2,453.1c-0.6,0.7-1,1.2-1.4,1.7c-3.3-2-3.4-2.1-1.7-4C324,451.4,325,452.1,326.2,453.1z"/>
	<path class="st0" d="M302.1,497.2c0.2-1.5,0.4-3,0.7-4.8c1,0.4,1.7,0.7,2.8,1.1c-1.1,1.5-1.9,2.7-2.8,3.9
		C302.5,497.4,302.3,497.3,302.1,497.2z"/>
	<path class="st0" d="M315.7,447.2c-0.9-0.9-1.6-1.7-2.3-2.5c-0.1-0.1,0.5-0.6,0.8-1c0.8,0.7,1.6,1.3,2.4,2.1
		C316.6,445.9,316.1,446.5,315.7,447.2z"/>
	<path class="st0" d="M310.4,571.7c-0.8,1.1-1.8,2.5-2.6,3.8C307.3,573,308,572.1,310.4,571.7z"/>
	<path class="st0" d="M392.1,357.6c-1.4,0-2.3,0-3.3,0C389.8,355.6,389.8,355.6,392.1,357.6z"/>
	<path class="st0" d="M292.5,52.5c1.2-0.2,2.5-0.3,4.3-0.6c-1.6,1.8-3,1.1-4.3,1.2C292.4,53,292.5,52.7,292.5,52.5z"/>
	<path class="st0" d="M379.4,411.9c-1.2-0.3-1.9-0.4-2.9-0.7C377.9,409.5,377.9,409.5,379.4,411.9z"/>
	<path class="st0" d="M386.3,412c-1.1,0.3-1.9,0.4-3.3,0.8c0.8-1.2,1.2-1.8,1.8-2.7C385.3,410.8,385.6,411.2,386.3,412z"/>
	<path class="st0" d="M513,228.3c0.7-1.2,1.4-2.4,2.1-3.6c0.2,0.2,0.4,0.3,0.6,0.5C514.8,226.2,513.9,227.2,513,228.3L513,228.3z"/>
	<path class="st0" d="M432.6,290.7c0.8-0.9,1.6-1.8,2.4-2.7c0,0-0.1-0.1-0.1-0.1C434.2,288.9,433.4,289.8,432.6,290.7L432.6,290.7z"
		/>
	<path class="st0" d="M339.3,408.3c0.6-0.6,1.1-1.3,1.7-1.9c0.1,0.1,0.3,0.2,0.4,0.3c-0.5,0.7-1.1,1.4-1.6,2.1
		C339.6,408.6,339.4,408.5,339.3,408.3z"/>
	<path class="st0" d="M437.3,285.1c-0.8,1-1.5,1.9-2.3,2.9c0,0,0.1,0.1,0.1,0.1C435.3,286.6,435.9,285.6,437.3,285.1
		C437.3,285.1,437.3,285.1,437.3,285.1z"/>
	<path class="st0" d="M441.2,279.8c-0.3,1.3-0.9,2.4-2.3,2.8l0.1,0.1C439.7,281.8,440.5,280.8,441.2,279.8
		C441.3,279.9,441.2,279.8,441.2,279.8z"/>
	<path class="st0" d="M343.6,403.9c-0.4,0.4-0.8,0.9-1.1,1.3c-0.1-0.1-0.2-0.2-0.3-0.2c0.3-0.5,0.7-0.9,1-1.4
		C343.3,403.7,343.4,403.8,343.6,403.9z"/>
	<path class="st0" d="M417.8,309.8c-0.4,0.6-0.8,1.1-1.1,1.7c-0.1-0.1-0.3-0.3-0.4-0.4C416.8,310.7,417.3,310.3,417.8,309.8
		L417.8,309.8z"/>
	<path class="st0" d="M412.8,316.3c-0.2,0.3-0.4,0.6-0.7,1c-0.1-0.1-0.2-0.1-0.3-0.2c0.2-0.3,0.4-0.6,0.7-1
		C412.6,316.1,412.7,316.2,412.8,316.3z"/>
	<path class="st0" d="M512.9,228.2c-0.4,0.7-0.7,1.5-1.1,2.2c-0.2-0.1-0.4-0.3-0.6-0.4C511.8,229.4,512.4,228.8,512.9,228.2
		C513,228.3,512.9,228.2,512.9,228.2z"/>
	<path class="st0" d="M438.8,282.6c-0.5,0.8-1.1,1.6-1.6,2.5c0,0,0.1,0.1,0.1,0.1C437.9,284.3,438.4,283.5,438.8,282.6
		C438.9,282.7,438.8,282.6,438.8,282.6z"/>
	<path class="st0" d="M426.5,298.2c0.3-0.4,0.7-0.8,1-1.2c0.1,0.1,0.2,0.1,0.3,0.2c-0.3,0.4-0.6,0.9-0.9,1.3
		C426.8,298.4,426.6,298.3,426.5,298.2z"/>
	<path class="st0" d="M414,314.1c0.3-0.3,0.6-0.7,0.8-1c0.1,0.1,0.2,0.2,0.3,0.2c-0.3,0.3-0.6,0.7-0.9,1
		C414.2,314.2,414.1,314.1,414,314.1z"/>
	<path class="st0" d="M424,301.6c0.4-0.6,0.8-1.2,1.2-1.7c0.1,0.1,0.3,0.3,0.4,0.4C425,300.7,424.5,301.1,424,301.6L424,301.6z"/>
	<path class="st0" d="M428.8,295.4c0.4-0.5,0.7-0.9,1.1-1.4c0.1,0.1,0.2,0.2,0.3,0.2c-0.4,0.5-0.7,0.9-1.1,1.4
		C429,295.5,428.9,295.4,428.8,295.4z"/>
	<path class="st0" d="M432.6,290.7c-0.3,0.7-0.6,1.3-0.9,2c-0.2-0.1-0.4-0.3-0.6-0.4C431.6,291.8,432.1,291.3,432.6,290.7
		C432.6,290.7,432.6,290.7,432.6,290.7z"/>
	<path class="st0" d="M423.9,301.5c-0.3,0.7-0.6,1.3-0.9,2c-0.2-0.1-0.3-0.2-0.5-0.3C423,302.6,423.5,302.1,423.9,301.5
		C424,301.6,423.9,301.5,423.9,301.5z"/>
	<path class="st0" d="M417.8,309.9c0-0.8,0.4-1.4,1.3-1.6C418.7,308.8,418.2,309.3,417.8,309.9C417.8,309.8,417.8,309.9,417.8,309.9
		z"/>
	<path class="st0" d="M397,335.8c0.2-0.3,0.4-0.5,0.6-0.8c0.1,0.1,0.2,0.1,0.2,0.2c-0.2,0.3-0.4,0.5-0.6,0.8
		C397.1,335.9,397,335.9,397,335.8z"/>
	<path class="st0" d="M421.6,305.3c-0.3,0.4-0.6,0.8-0.9,1.2c-0.2-0.2-0.3-0.3-0.5-0.5c0.3-0.4,0.7-0.8,1-1.2
		C421.4,305.1,421.5,305.2,421.6,305.3z"/>
	<path d="M157.9,290.2c0.5-0.5,1-1.1,1.5-1.6c0.1,0.2,0.3,0.4,0.4,0.6C159.2,289.5,158.5,289.9,157.9,290.2
		C157.9,290.2,157.9,290.2,157.9,290.2z"/>
	<path class="st0" d="M254.9,333.1c-0.1-5.7-0.2-10.9,3.8-15.2c2.4-2.6,7.8-5.8,10.7-2.3c3.1,4,4.5,8.6,4.8,13.5
		c-1.5,7.8-13.6,13.1-20.9,13.3c-3,0.2-6.1,0.1-9.1-0.5c-11.8-3-2.3-19.4,4.7-23.1C255.3,315.3,248.5,331.7,254.9,333.1z"/>
	<path class="st0" d="M276.7,288.2c-0.9,8.3-8.4,16-10.4,3.7C269.6,290.7,272.8,289.6,276.7,288.2z"/>
	<path class="st0" d="M221.5,300.9c2.7-0.7,5.3-1.4,8-2.1C230.7,305.4,224.4,307.1,221.5,300.9z"/>
	<path class="st0" d="M235.8,88.1c3.3,26.9-1.8,53.9-0.3,80.9c0.1,9.4,0.2,18.7,0.6,28.1c-0.1,8.8,2.4,17.8,1.3,26.5
		c-5.2-24.6-10-49.4-11.8-74.4c-2.9-23-0.1-40,9.4-61.1C235.2,88.1,235.5,88.1,235.8,88.1z"/>
	<path class="st0" d="M247.3,218.2c-7.3-30.2-3.8-59.6,7-88.6c8.5,15.7,4.3,33.7-1.6,49.4C247.7,191.6,247.3,205,247.3,218.2z"/>
	<path class="st0" d="M195.2,164.1c11.2,17.9,25.4,35.4,27.2,57.1c-5.8-15.4-15.9-28.6-24-42.9c-2.5-4.3-4-9.1-3.7-14.1
		C194.8,164.2,195,164.1,195.2,164.1z"/>
	<path class="st0" d="M292.6,565.2c1.9,3.3,1.9,6.5,2.3,10.1c0.8,6.5,1.5,13.1,2.3,19.6c0.3,2.9-0.4,4-3.3,3.9
		c-5.5-0.2-10.6-1.7-9-8.4c1.6-7.1,3.2-14.1,4.9-21.1C290.1,567.9,290.6,566.4,292.6,565.2z"/>
	<path class="st0" d="M308.5,525.1c-6.4-13.1-16.5,5.9-2.8,4.1c-3.9,4-10.5-1.6-8.5-6.4C299.4,516.8,308.4,517.8,308.5,525.1z"/>
	<path class="st0" d="M306.7,525.1c0,4.2-6.4,4.4-6.6,0.1C300,520.8,306.6,520.6,306.7,525.1z"/>
</g>
</svg>
