<?xml version="1.0" encoding="utf-8"?>
<!-- Generator: Adobe Illustrator 26.0.0, SVG Export Plug-In . SVG Version: 6.00 Build 0)  -->
<svg version="1.1" id="Capa_1" xmlns="http://www.w3.org/2000/svg" xmlns:xlink="http://www.w3.org/1999/xlink" x="0px" y="0px"
	 viewBox="0 0 595.3 840.1" style="enable-background:new 0 0 595.3 840.1;" xml:space="preserve">
<style type="text/css">
	.st0{fill:#FFFFFF;}
</style>
<g>
	<path d="M594,184.3c-5.2-19.6-22.5-32.1-39.1-41.9c3.7-1.7,2.9-3.4,1.1-6.2c-16.6-26-45.4-41.7-75.4-46
		c26.2-2.1,54.1,5.7,75.3,21.8c1,0.8,2.1,1.2,3.3,0.2c1.5-1.1,0.5-3.4-0.8-4.6c-23.9-28.9-58.1-41.7-95-36.9
		c7.4-5.1,18.4-4.7,27.3-5c4.1-0.6,2.2-5.2-1.3-4.8c-28.2-5.2-56.5,1.9-78.5,20.6c-25.5-29.9-52.8-61-89.3-77.6
		c-21.9-7.4-45.1-2.7-67.4-0.7c-24.2,2.7-47.9,9.9-69.3,21.5C119.2,68.7,83.4,116.3,100,197.9c2.7,13.9,5.7,27.7,10.2,41.1
		c0.7,2.1,0.3,3.4-1.2,4.8c-17.1,16.5-34.2,33.1-51.3,49.6C38.6,313.6,14.3,331,3.1,357.1c-21.5,64.9,94.4,69.6,135,66.6
		c-11.6,5.4-24.1,8.6-34.5,16.1c-12.3,8.2-6.9,25.8,3.6,33.1c9.3,8.1,19.4-0.5,27.3-6.3c0.1,0.1,0.2,0.3,0.4,0.4
		c-5.4,6.5-14.7,14.4-8.2,23.3c8.7,15.9,26.9,19.6,37.7,3.6c-8.6,21,21.3,34.3,34,17.9c21.4,32.1,37.8,44.3,72,18.8
		c-0.2,22.9-2.6,46-4.5,68.7c1,5.3-0.5,10.9-0.7,16.3c-0.3,3.2-0.6,3.6-3.6,4.4c-22.7,6.4-45.6,12.6-69.3,13.3
		c-25.5,1-52.1-1.7-75.4,10.7c-38.4,17.8-51,59.3-44.5,98.8c4.9,37,44.1,70.1,81.9,58.6c10.7-3.1,18.7-9.4,22.9-19.9
		c8.7-19,3.4-43.6-13.1-56.6c-4-4.3-14.6-5.2-13.1-12.5c4.9-20.8,32-17.2,48.5-20c18-0.8,34.4-7.4,50.9-14.2
		c-7.2,20.2-14.8,40.1-22.3,60.1c-5.9,13.6-10,30.1-25,36.3c-6.9,3.3-12,8.7-16.2,15c-8.4,12.4-8,44.4,12.2,43.9
		c2.9-0.8,5,0.8,7.6,1.8c10.1,4.2,20.3,5.1,30.6,0.8c1.3-0.5,2.3-0.3,3.3,0.4c8.7,5.9,20.4,4.2,29.2-0.6
		c18.4-8.5,35.9-13.4,37.9-37.1c6.3,2.7,12.6,5.8,19.7,6.3c9.1,4.3,18.1,5.9,27.7,2.1c15.7,2,20.9,1.6,35.7-5.8
		c14.7-8.1,11.9-29.7,5.4-42.5c-7.7-18.2-23.1-10.3-22-29.3c5.2-27.7,16.8-53.9,21.2-81.9c1-8.7,5.7-16,8.7-24
		c4.7-15.4,8.4-31.6,8.9-47.6c22.7,0.5,48-33.4,21.6-47.4c12.4-36.3-1.3-49.5-30.3-68c95.5-12.1,169.4-30.9,154.3-145.2
		c-0.8-5.7,2.6-10.5,4.9-15.4c6.7-12.9,12.6-26.1,16.8-40C586.1,235.4,598.7,210.1,594,184.3z M290.9,450.3
		c-14.2-3.5-27.7,1.3-40.6,6.9c-3.3-8.7-7.1-17-12.4-24.7c-3.1-3.7-3-9.3-7.4-11.8c-9.2-6.2-21.1-7.4-28.8-15.8
		c2.6-2.4,3.6-2.5,6.2-0.7c17.5,12,36.1,22.1,55.2,31.2C268,438.9,291.9,445.3,290.9,450.3z"/>
	<path class="st0" d="M292.8,305.9c-13.6-9.8-28.9-15.3-45.5-19c4.2-4.8,8.8-8.2,13.2-12.6c1.5-1.5,2.8-1.5,4.7-0.6
		c14.3,6.2,25.9,16,36.9,26.8c-8.8-13.8-21.8-23.6-36.9-30.1c1.7-1.5,3-2.7,4.6-4.2c10.3,7.4,19.8,15.4,29.4,23.6
		c18.4,16.6,54.8-7.1,93.8,12.3c20.7,7.6,36.7,27.5,59.8,27.3c30.4,1.1,73.5,11.4,76.5,47.8c0.7,13.1-0.2,27.3-7.9,38.5
		c-11.1-32.4-36.7-58.4-68.9-69.5c29.8,15,54.3,38.9,67.3,69.9c-0.7,12.4-32.3,23-43.1,26.6c-55.9,13.9-118.1,24.1-173.8,4.6
		c-43.9-19.1-121-47.2-132.4-98.3c-4.4-19.6-3.5-41.5,8.1-58.5c0.7-1.1,1.7-1.6,3-1.7c13.3-1.4,26.6-2.8,39.9-1.7
		c-3.8,10.3-9.2,19.9-13.5,30c-3.6,5-11.6,4.7-15.9,9.3c4.4-1.6,8.8-3.2,13.7-4.9c-0.4,2.4-1.1,3.4-1.6,5.5c0.6,5.7,5.8-2.5,7.4-3.9
		c4.1-4.6,4.1-4.7,10.1-6.2c20.7-5.6,42.4-6.3,63.1-0.8c-20-10-43.4-7.2-64.3-2c6.7-8.2,14.8-15,22-22.8c1.2-1.3,2.4-1.7,4.2-1.3
		C262.9,292.4,278.3,299.5,292.8,305.9z M276.6,324.2c12.4-1.4,12.5,5.6,17.1,14.7c7.6,18.2,15.4,36.4,23.6,54.4
		c2.6,5.6,6.2,10.6,11.2,14.4c34.9,22.3,49.8,3.3,71.7-23c4.2-5,11.6-3.9,17.2-6.2c8.9-3.1,17.4-8.1,23.1-15.9
		c-0.1-0.1-0.3-0.2-0.4-0.3c-19.8,18.9-52,20.2-69.5-2.2c4.7-6.5,9-13.4,10.8-21.3c0.6-2.7,1.1-5.2,4.4-6.3
		c28-4.7,0.7-21.3-13.1-18.6c-4.5,0.7-5.5,5.7-2.5,8.4c3.3,2.9,4.7,7.1,8.1,9.8c2.9,6.5-2.7,16.1-7.1,21.3
		c-10.4,11.9-27.9,8.5-41.8,6.7c-18-2.8-34.2-15.1-36.9-33.9c2.4-0.6,4.6,0.6,6.9-0.7C293.1,324.2,281.2,318.3,276.6,324.2z
		 M451.8,353.9c20.1,19.5,28.9,46.6,33.5,73.4C485.9,400.5,474.9,369.4,451.8,353.9z M450.1,337c26,6.2,53,13,74,30.5
		C506.7,346.3,476.4,338.7,450.1,337z"/>
	<path class="st0" d="M140.3,418.3c-37.8,4.9-151.6,0.8-133.2-59.3C21,329,49.8,309.6,71.9,286c12-11.6,24.1-23.2,36.1-34.8
		c6.8-6.8,18-14.6,13.8-25.7c-18-45-26.7-97.8,2.8-140.1c12.9-17.2,29.6-31.4,46-45.2c23-18.6,52.4-28.1,81.4-32
		c27-2.5,57.4-9.5,81.3,7.2C361.9,33.8,381.9,62,395,93.2c1.6,3.7-9,10.4-11,13.7c-2.2,3.5-5.7,4.2-9.5,4.7
		c-21.3,2.9-42.4,6.5-63,12.6c-49.7,15.2-96.4,39.5-138.1,70.4c-12.4,9.8-26.6,17.8-37.6,29c-7.3,9.7-9.9,22.2-17.3,31.6
		c-29,29-94,74.4-103.3,112.3c-3,38.6,54.8,40.6,82.2,41.6c9.4-0.1,18.7-0.3,28.1-0.5c1.3,0,2.3,0,3.1,1.3c2.6,4.5,7.3,6.1,12,7.6
		C140.4,417.9,140.4,418.1,140.3,418.3z"/>
	<path class="st0" d="M554.4,320.2c-8.9-10.5-20.2-22.8-35.1-17.3c15,12.7,32.1,24.3,35.9,46.1c-0.4,9.2-1.2,19.4-3.9,28.2
		c-2.1-19.3-8.6-41.3-27.1-50.9c-0.2,0.2-0.4,0.3-0.5,0.5c11.5,20.6,26.5,75.8,2.6,90.9c15.4-31.4,9.8-68.3-25.1-82.8
		c1-2.9,1-6.6,4-8.2c3.2-1,21.2-16.4,12.4-17.1c-10.6,4.7-4.4-14.2-11.7-24.9c-24.6-47.8-88.9-19-78.9,31.2
		c-25.4-17.3-54.1-29.5-85.4-26.5c18.5-19.7,22.1-56.1,2.8-76.5c17.4-10.6,35-20.4,53.3-29.7c-1.5,28.7-7.4,57-9.3,85.7
		c2.5,0.8,5.6-13.4,7-15.8c9-28.6,24.6-87.8,1.7-111.5c0.7,13.2,1.6,26.3,1,39.6c-31.3-10.1-63.1-16.1-96.3-14.9
		c12.9-10.5,33-14.6,48-5.4c3.1,1.9,6.4,4,10.1,4.4c2.9,0.3,4.5-1.4,4.6-4.3c-1-15.9-26.8-16.7-38.5-15.4
		c17.6-14.5,39.4-23.1,59.3-33.1c21.4-22.1,45.7-46.9,78.3-48c0.1,0.2,0.1,0.4,0.2,0.5c-4.3,2.8-25.3,11-23.3,16.4
		c0.8,1.2,1.9,1.2,4.3,0.1c9.6-4.5,19.7-6.5,30.2-6.9c23.6-1,48.2,6.4,65.8,22.5c-33.9-13.8-79-19.4-110.4,2.7
		c-1.4,2.7,1.5,4.4,3.7,2.9c32-14.1,71.7-8.5,97.8,14.6c-12.1-6-24.8-8.8-38.3-7.6c-3,0.1-20.3,3.2-11.4,7.1
		c7.8-0.3,15.9,0.8,22.8,4.6c-9.7,0.6-18.6,2.9-26.6,8.5c-1.9,1.7-6.5,2.9-5.6,6.1c2.4,3.4,8.7-0.6,12.3-0.5
		c11.7-2,23.4-2.7,35.2-1.2c30.1,7,74.1,29.7,70.3,65.9c-3.2,21.2-9.2,41.9-15.8,62.3c-4.1,12-9.1,23.6-14.9,34.8
		C555.7,304.3,552.5,311.9,554.4,320.2z M519.4,280c12,2.5,23.5,5.5,33.7,12.5c3.4,2.7,4.4-3.7,5.9-5.7
		c12-28.4,39.9-84.4,12.9-109.7c-18.3-17.4-45.9-20.1-69.3-13c-2.6,0.4-3.8,2.8-0.8,3.9c10.1,5.4,18.2,13.1,25,22.2
		c17.4,24.5,21.4,55.2,24.9,84.4C542.3,269.9,524.5,273.2,519.4,280z M522.5,251.5c1.4-1.3,1.3-2.6,1-3.8
		c-3.4-17-14.7-30.8-30.3-38.2c-6.8-3.4-15.1-3.7-22-0.3c-6.1,3.4-1.3,12.1,5,10.8C498.7,217.9,512.7,233.2,522.5,251.5z
		 M390.6,283.7c0.2,0.1,0.4,0.2,0.6,0.3c16.8-22.2,29.2-48.4,39.1-74.5c3.2-10.2,7.6-19.8,12.9-28.9c1.9-4.8,12.1-16.4,11.2-20
		C415.9,190.1,406.8,240.7,390.6,283.7z M452,236.4c-0.1-0.3-0.2-0.6-0.3-0.9c-17-0.2-30.3,13.1-38.3,26.9
		c-3,5.9-10.9,18.8-10.1,24.8C418.4,269,432.6,250.2,452,236.4z M371.5,207.1c-0.2,0-0.4,0.1-0.7,0.1c-4.6,25.6,3.2,51.2,1.6,76.8
		c1.5-0.4,1.4-1.6,1.6-2.5C380.1,257,384.3,230,371.5,207.1z"/>
	<path class="st0" d="M264.7,456.6c29.9-11.1,29.8,8.6,50.2,21.9c15.4,10.8,43.5,3.5,46.7-16.4c6.7,0,13.4,0,20.4,0
		c0.4,6.6-2,13-3.3,19.4c-0.4,1.6-0.4,3,0.3,4.5c6.8,13.9,13.3,28,19.1,42.4c6.8,17.1,9.9,34.9,10.4,53.3c-0.6,5.2-5.6,8.7-9.4,11.9
		c-29,17.7-65.7,19.1-98.8,17.7c-10.8-0.9-21.3-4.7-29-12.5c-1.1-0.9-1.3-2.1-1.1-3.5c2.2-11.1,2.5-22.3,3.2-33.5
		c0.6-10.1,1.2-20.2,1.7-30.3c0-7,8-9.5,11.6-14.7c13.7-19-0.8-52.5-22.1-59.6C264.7,457,264.7,456.8,264.7,456.6z M388.3,558.2
		c-4.4-8.8-9.6-17.1-14.6-26.2c6.2,1,11,3.6,17.2,4.3c-5.7-11.9-12.9-22.8-19.2-34.4c-0.2-3.4-25.1-1.6-29.1-1.3
		c6.5,7,13.9,11.9,20.3,19c-3.5,0.3-11.6-2.6-13.6-0.7C350.8,521.3,385.9,557.3,388.3,558.2z"/>
	<path class="st0" d="M117.6,262.8c-17,52.4,30.2,94,67,123.7c-6.2,6.1-27.7-2-34.9-5.6c-14.8-8.3-26.9,9.8-23.9,23.1
		c-27.4,1.7-116.5,4.6-105.1-40.2c6.4-16.7,19.3-29.9,31.8-42.2c21.3-20,42.5-40.2,64.8-59.1C117.3,262.6,117.4,262.7,117.6,262.8z"
		/>
	<path class="st0" d="M183.2,231.5c18.9-25.6,37.6-52,59.9-74.7c38.1-18.9,79.5-34.9,121.9-38.8c-18.3,8.9-35,20.5-51.8,31.8
		c-12.1,6.3-26.2,14.3-31.7,27.2c6.3-3.2,11.8-8.3,19.3-7.9c30.4-0.9,61.8,3.2,90.3,13.3c-15.8,9.9-33.1,18.4-49.6,27.9
		c-16.2-13.2-40-13.1-55.7-2.3c-5.1,2.7-12,15.8-16.4,5.8c-6.9,1.3-10.8,50.1-2.3,50.4c-2.3,1.6-3.5,4.5-6.1,4.3
		c-7.1-3.1-14.8-3.6-22.1-5.6c0.8-4.8,25.9-37.5,19.4-36.9C233.1,222.7,208.1,228.1,183.2,231.5z"/>
	<path class="st0" d="M194.5,405.4c-23.5,13.6-14.8,37.5,11.5,35.2c8.7-1.1,21.1-5.8,21.2-16.2c1.8,0.3,2.5,1.4,3,2.7
		c6.3,14.7,10.5,37.8-9.3,43.4c-2.7,1.1-7.4-1.3-8.4,2.3c-3.6,10.9-9.8,20.6-14.7,30.9c-4.3,12.1-19.7,14.2-28,4.9
		c0.1-0.2,0.2-0.3,0.3-0.5c12.2,6.5,16.2-10.5,14.7-19.5c-0.7-7-7.6-4.2-11.6-1.4c0.3-3.1,12.5-24.5,3-19.7
		c-4.7,6.7-9,13.6-13.7,20.3c-9.3,16.3-23.1,15.2-32.2-0.1c-7.4-8.7,20.5-28,25.5-35.5c1.6-11.7-30.8,17-35.4,18.1
		c-9.3,4.8-18.3-7.1-19.4-15.6c-1.5-8.9,7.7-13.2,14.2-16.7c5.1-3.5,48.4-15.2,33.5-23.3c-2.6-0.7-5.2-1.5-7.8-2
		c-14.6-2-14.2-23.1-2.3-28.6c2.5-1.4,5.2-1.4,7.7,0.1c6.9,4.3,14.6,6.3,22.5,7.6C179.3,392.9,187.1,398.4,194.5,405.4z M150.9,476
		c-0.5-10.9-14.6-3.5-17.4,2.5C127.5,490.9,151,497,150.9,476z M123.6,447.2c-0.5-9.7-14.9-5.1-18.7,0
		C97,463.8,120.4,465,123.6,447.2z"/>
	<path class="st0" d="M213.2,247.4c-13.5-10.1-62.8-12.3-83.9-1.3c1.6-4.7,3.6-9.7,7.2-13.2c12.3-8.9,26.5-13.2,41.4-14.3
		c-7.5-3.7-15.6-2.7-24-3.5c24.6-19.5,50.9-37.9,78.8-52.5c-81.7,109.4-70.6,61.1,22.9,66.6c-4.8,7.8-9.5,15.3-14.1,22.7
		c-26.7-2.1-51.2,14.2-66.1,35.5c-1.4,2.5-4.3,2.2-6.6,3.6c1.3-0.1,2.5-0.3,3.9-0.4c-13.7,27.3-11.5,54.1,1.1,80.9
		c-14.2-11.6-29.5-24.7-38.3-41.2c-6.8-23.7,14.1-43.5,33.1-53.8c-12.9-3.1-39.7,9.3-48.7,23c-2.2-6.4-3.1-20.1,1.6-25.4
		C145.9,250.5,181.6,250.2,213.2,247.4z"/>
	<path class="st0" d="M75.2,730.4c7.6-26.5,56.4-20.4,74.9-8.7c17.8,7.8,29,26.6,26.3,46c-2.2,24.1-24.8,35.1-47,30.8
		C97.9,791.4,76.3,762.6,75.2,730.4z"/>
	<path class="st0" d="M196.9,787.3c-11.4,9.9-11.6,31.7,0.2,41.5c-11.9-2.3-11.3-17.7-10.2-27.2c5.4-24.5,34.4-31.8,56.3-28.3
		c47.4,6.6,29.3,42.6,46.6,20.1c2.1,1.4,1.6,3.6,1.7,5.7c1.4,6.5,8.3-1.9,11.4-3.5c1.3,23.6-18.5,28-35.7,36.5
		c-9.7,5.5-26.6,5.2-29.5-8c-2.5-10,1.3-20.2,2.1-29.9c-6.1,10.9-8.6,25.4-2.9,36.9c-10.9,5.8-23.3,2.9-33.7-2.5
		c-15.1-7.1-13.9-28.9-5.7-40.9C197.2,787.6,197.1,787.4,196.9,787.3z"/>
	<path class="st0" d="M390.5,796.3c5-13.8,2.2-34.5-10.4-42.3c16.1,18.6,12.6,57-19.1,48.9c6-16.5-0.1-38.1-5.9-46.2
		c2.4,14.2,11.1,34.1-0.6,45.8c-9.1,4.5-17.4,1.9-26.2-1.7c-5.5-0.7-10.7-2.2-15.6-4.7c-3.2-1.7-5.4-5.9-4.7-9.3
		c2.1-10.4,4.3-20.7,6.4-31.1c3.1-10,17.1-6,24.6-3.9c6.8,2.2,13.3-1.2,19.4-3.9C385.1,734.5,408.9,776.6,390.5,796.3z"/>
	<path class="st0" d="M295.6,615.6c36.4,1.9,77.3,1.1,108.5-19.9c-1.4,29.1-30.5,55.1-59.4,54.1
		C326.2,642.7,300.1,638.9,295.6,615.6z"/>
	<path class="st0" d="M270.8,605.5c6,3.7,11.9,7.2,19,8.6c1.5,0.4,2.1,1.1,2.6,2.5c6,24.7,30.8,28.2,50.9,36.1
		c23.7,2.4,43.7-13.4,56.7-31.8c-0.1,2.7-1.1,4.6-2.1,6.4c-5,7.9-4.8,18.4-13,24.2c-14.1,11.7-33.5,5.7-49.6,12.6
		c-0.2-1-0.4-1.7-0.6-2.8c-1.9,1.5-1.7,3.7-4.5,3.7c-5.1,0.5-10.2,0.4-15.3-0.4c-17.5-1.9-33.3-12.9-51.1-10.4
		C270.1,638.6,267.5,621.6,270.8,605.5z"/>
	<path class="st0" d="M218.6,768.9c4.8-8.5,9.4-17.1,12.6-26.4c3.6-6.9,13.7-7.7,20.8-7.5c24.7,5.1,21.9,34.7,55.5,31.4
		c-3,9.9-1.2,22.9-11.4,28.4c-4.4-8.5-7.5-11.2-12.2-1C270.8,770.8,243.1,765.5,218.6,768.9z"/>
	<path class="st0" d="M201.8,506.4c30.5,14.6,45.2-29.4,41.6-53c16.5,32.6,21.4,70.6-28.5,69c7.6,6.8,18.5,9.1,28.5,7.7
		c28.6-5.3,26.9-40.4,13.5-59.5c0.2-0.1,0.3-0.3,0.5-0.4c13.6,12.1,20.3,31.4,16.8,49.3c-4.1,8.7-15.3,12.3-23,17.5
		c-21.7,12-38.4-11.8-48.8-27.8C201.8,508.4,200.9,507.7,201.8,506.4z"/>
	<path class="st0" d="M148.5,704.3c-2.3,4.2-3.3,8.3-2.4,12.9c-22.5-8-52.4-12.9-70.3,6.3c0.7-7.9-1.2-22.5,5.7-27.5
		C102.5,681.3,129.6,690,148.5,704.3z"/>
	<path class="st0" d="M249.3,694.5c2-7.1,5-13.4,7.5-20.3c3.4-4.3,10.1-5.1,15.2-6.5c19.4-2,34.9,14.3,55.3,8
		c-1,7.7-3.8,15.1-5.5,22.6c-0.6,2.4-0.9,2.8-3.2,2C293.8,689.9,274.9,672.7,249.3,694.5z"/>
	<path class="st0" d="M185.5,689c8.1-19.5-2.5-43.6-22.2-50.6c10.2,0.5,21.4-2.2,31.1,0.7c14.4,9.4,23.9,29.9,13.6,45.6
		C203.3,689.8,192.1,687.7,185.5,689z"/>
	<path class="st0" d="M278.7,268.4c-3-2.8-8.1-3.9-9.3-7.7c0.1-8.9,1.5-17.6,6.1-25.4c8.5-12.9,26.8-17.1,40.8-11.3
		c45,17.3,14.3,78.6-15.8,61.4c0.1-0.2,0.1-0.3,0.2-0.5c35.6-0.6,45.4-46.6,8.3-54.7c-0.2,8.7-12,10.8-13.5,0.5
		C278.8,233.7,275.1,254.3,278.7,268.4z"/>
	<path class="st0" d="M103.1,658.4c11.7-9.3,13.2-10.6,27.1-11.4c13.3-1.2,28.5-0.5,35.8,12.6c6.2,9.8,6.6,20,2.1,30.6
		c-1.9,3.6-6.6,3.2-10.2,5.2c-1.6-30.8-25.4-46.6-54.3-36.4C103.3,658.7,103.2,658.6,103.1,658.4z"/>
	<path class="st0" d="M310.1,754c-0.7,3.5-1.4,6.8-2,10.2c-37.2,7.9-34.4-45.4-73.9-27.3c10.5-12.6,31.7-17.2,45.5-7
		C290.9,736.7,296.7,750.5,310.1,754z"/>
	<path class="st0" d="M289.8,220.7c28.3-21.8,61.6-1.3,61.9,32.9c-0.1,25.1-11.8,42-38.5,37.8c17.4-3.1,28.6-19.3,29.3-36.4
		C342.8,229.4,312.9,212,289.8,220.7z"/>
	<path class="st0" d="M202.6,439.2c-20.7-0.2-27.9-17.3-10.8-30.3c7.2-6.3,12.9,6,22,7.3C238.2,423.1,218.2,440,202.6,439.2z"/>
	<path class="st0" d="M147.7,701.8c-19.7-14.6-47.5-21.5-68.8-6.2C84.3,656.8,144,667.2,147.7,701.8z"/>
	<path class="st0" d="M169.7,690.6c5.1-14.2,3.2-27.1-7.4-38.1c-10.8-10.5-27-7.2-40.6-6.5c17.8-11.5,48.3-11.5,59.3,9.2
		c5.6,9.6,8,21.6,3.2,32C183.1,690.1,172.8,690.4,169.7,690.6z"/>
	<path class="st0" d="M150,701.8c-5.7-26.9-37-41.6-60.7-27.1c-0.1-0.2-0.2-0.4-0.3-0.6c13.3-23.2,53.3-22.4,63.1,3.3
		c2.1,5.3,3.2,10.8,3.8,16.5C156.1,697.7,152.2,698.8,150,701.8z"/>
	<path class="st0" d="M330.9,677.7c-0.1-3.1,0.1-3.3,2.6-4.1c18-7.3,40,3,54.3-12.5c-1.8,9.8-5.1,19.2-7.7,28.8
		c-1.9,5.3-9.3,5.6-14.1,4.4C353.4,690.2,345.4,676.4,330.9,677.7z"/>
	<path class="st0" d="M120.3,271.9c1.8-6.2,4.2-21.7,9.9-24.5c23.6-9.3,52.2-10.3,75.8-1.3c-29.7,3-62.2,4.5-85.1,26.1
		C120.7,272.1,120.5,272,120.3,271.9z"/>
	<path class="st0" d="M238.5,256.3c-2.3,9-7.1,6.6-14.4,6.8c0,0.2,0,0.5-0.1,0.7c3.1,0.3,6.2,0.7,9.3,1c-0.4,2.2-7.1,15-9.9,19.1
		c-13.9-0.6-27.7,0.7-42.2,3.3C194.4,269.5,215.6,255.1,238.5,256.3z"/>
	<path class="st0" d="M209.5,686.3c9.7-17.9,1.8-36.2-13.3-48.1c6-0.6,13-3,18.7-0.6c13.5,8.8,17.1,26.5,15.4,41.7
		C231.2,683,212.9,685.4,209.5,686.3z"/>
	<path class="st0" d="M320.8,702.5c-0.8,3.7-1.6,7.2-2.4,10.8c-7.5,0.7-13.7-3.3-20-6.8c-17.4-12.6-36.1-13.9-53.9-1.3
		c6.2-15.2,24.2-22,38.2-18.8C297,688.7,306.6,699.8,320.8,702.5z"/>
	<path class="st0" d="M469.7,268c28.4,3.6,36.3,41.7,25.4,64.2c-6.6-1.7-13.1-3.3-20.1-5C491.8,310.3,489.5,281.4,469.7,268z"/>
	<path class="st0" d="M240.7,717.9c4.5-20.9,32.5-24.6,48.7-15c9.1,5.4,17.7,11.8,28.7,12.5c-1.2,6.1-2.4,12.1-3.6,17.9
		c-4.6,1.1-18.1-15.8-23.2-18.9C276.2,701.9,253.9,703.4,240.7,717.9z"/>
	<path class="st0" d="M430.1,489.8c8.1,10.9,6.8,38.2-11.8,34.4c-5.5-0.9-10.6-3.6-16.3-3.3c-1.4,0.1-2.2-0.5-2.7-1.8
		c-0.6-2.6-3.8-5.7-1.2-8.1C406.5,500.4,428.4,506.1,430.1,489.8z"/>
	<path class="st0" d="M215.3,635.6c4.9-0.9,9.5-1.8,14-2.4c6.6,1.9,11.1,8.6,14.3,14.3c4.2,8.2,7.1,20.8,0.5,28.2
		c-4.1,1.4-8.1,4-12.3,4.6C233.4,663,230.4,647.3,215.3,635.6z"/>
	<path class="st0" d="M235,732.4c4-18,25.5-22.9,40.9-16c14.9,5.2,21.7,21.5,36.4,26.9c-0.5,2.1-0.4,9.8-3.5,8.6
		c-11.2-4.5-17.5-15.7-27.2-22.5c-13.6-11.2-33.3-7.2-46.1,3.4C235.3,732.6,235.1,732.5,235,732.4z"/>
	<path class="st0" d="M331.5,666.6c-1.4,2.6-1.5,6.3-4.5,7.3c-8.6,2.2-17.1,2-25.5-1.1c-13.9-6.2-28.9-10.2-43.1-2.4
		c1-3.9,2.4-15.2,7.2-15C288.2,654.5,308.6,669.6,331.5,666.6z"/>
	<path class="st0" d="M399,145.4c16.7,34.1,4.2,80.3-8.2,114c1.9-23.7,6-47.4,8.3-71.1C401.2,174.2,398.2,159.2,399,145.4z"/>
	<path class="st0" d="M251.3,465.4c9.4,12.6,16.6,28.5,12.5,44.5c-4.7,18.2-28.3,24.1-43.3,14.1c36.1-0.5,43.1-29,30-58
		C250.7,465.8,251,465.6,251.3,465.4z"/>
	<path class="st0" d="M132.1,326.7c-2.8-6.3-14.8-21.7-9.9-27.6c10-12.7,24.3-19,39.9-21.9c-0.3,1.6-1.4,1.9-2.2,2.4
		c-15.8,10.1-29.4,27.1-27,46.8C132.7,326.6,132.4,326.6,132.1,326.7z"/>
	<path class="st0" d="M356.7,462.3c-0.1,3.1-1.3,5.7-3.6,8c-13.1-5.4-25.6-5.4-37.6,3.1c-7.2-5-12.4-12.2-18.4-18.5
		c-2-1.5-2-3.1-0.9-5.2C315.5,458.3,335.8,460.6,356.7,462.3z"/>
	<path class="st0" d="M459.4,324.6c18.7-6.4,23.2-33.4,8.3-44.2c-3.9,4.3-11.1,0.4-9.3-5.4c-2.3-1.9-5.3-1.7-8.1-2.9
		c15.1-10.8,30.1,6.8,32.3,21.4c2.5,12.6-1.9,23-10.6,31.9C470.2,327.3,461.4,325.7,459.4,324.6z"/>
	<path class="st0" d="M376.2,702.6c-1.9,3.5-2.6,15.3-6.2,15.4c-19.7,3.2-29.6-17.2-44.9-13.1C327.9,664.9,348,723.9,376.2,702.6z"
		/>
	<path class="st0" d="M327.7,689.8c0.7-3.4,1.3-6.2,1.9-9c2.6-3.2,10.2-0.7,13.5,1c11,6.6,21.4,19.2,35.4,13
		c-6.9,18.7-28.9,9.7-38.5-0.9C336.9,690.4,333.3,687.7,327.7,689.8z"/>
	<path class="st0" d="M528,330.4c20.5,16.7,30.2,53.5,10.5,74.3c3.5-25.1,0.7-51.2-11.1-73.9C527.6,330.7,527.8,330.6,528,330.4z"/>
	<path class="st0" d="M320.6,726.1c0.8-4,1.5-8,2.3-11.9c0.6-3.2,0.8-3.3,4-2.5c14.4,5.8,27.6,20.3,43.7,9.2
		c0.2,30.4-35.7-0.6-49.5,5.8C321,726.5,320.8,726.3,320.6,726.1z"/>
	<path class="st0" d="M433,533.7c14.1,4.8,7.5,24-1.8,30.6c-2.9,2.5-18.7,11.7-18.9,4.3c0.3-2.7-2.3-6.9,0.7-8.4
		C424.6,555.4,430.1,545.3,433,533.7z"/>
	<path class="st0" d="M248.1,673.6c4.3-17.4-2.2-30.3-14.8-41.2c4.7-0.9,13.2-4.8,17.3-2.8c6,4.9,10.5,12.1,9.2,20
		C256.4,657.2,256.6,670.9,248.1,673.6z"/>
	<path class="st0" d="M406.5,468.2c36,22.1,20.6,21.9-9.7,28.5C403.5,488.5,404.8,478.5,406.5,468.2z"/>
	<path class="st0" d="M202.6,504.7c4.7-9.6,9.5-19.2,14.3-29c9.1-0.1,15.6-5.1,20.4-12.8c0.2,0.1,0.3,0.2,0.5,0.3
		c-3.1,19.4-17.9,33.7-34.9,42C202.8,505,202.7,504.9,202.6,504.7z"/>
	<path class="st0" d="M332.1,672.1c1.1-2.6,0.8-5.4,3.3-6.6c5.3-1.4,10.6-2.8,15.9-3.9c13.5-0.8,30.2-0.9,38.6-13.5
		c0.2,0.1,0.3,0.2,0.5,0.3C385.8,678.5,353.3,664.1,332.1,672.1z"/>
	<path class="st0" d="M368.2,733.9c-12.4,14.8-34.7,0.6-50.4,8.5C317.5,707.8,347.3,744.4,368.2,733.9z"/>
	<path class="st0" d="M488.5,129.5c8-4.2,17.6-3.9,26.3-2.7c3,1.4,5.9-2.4,2.7-4.2c-5.2-3.9-11.6-5.3-16.8-8.7
		c20.4,0.1,40.2,11.7,52.3,27.5c-20.1-11.2-41.8-14.8-64.4-11.2C488.5,129.9,488.5,129.7,488.5,129.5z"/>
	<path class="st0" d="M205.6,506.1c21.6-11.9,32.8-28.3,36.1-52.6C244.8,474.3,233.6,516,205.6,506.1z"/>
	<path class="st0" d="M248.1,713.9c14.2-11.4,34.8-6.6,46.9,5.7c6.3,5.9,11.5,11.8,18.9,16.7c-0.2,1.3-0.5,3.1-0.9,4.9
		c-9.6-1.4-17.6-14.3-25.6-19.8c-10.6-8.9-26-12.5-39-6.9C248.2,714.3,248.1,714.1,248.1,713.9z"/>
	<path class="st0" d="M227.6,283.8c1.8-3.2,8.2-19.4,11.7-18c6.5,1.5,13.7,2.5,19.5,5.7c-5.3,4.7-10.2,11.5-16.6,14.4
		C237.3,285.1,232,285.4,227.6,283.8z"/>
	<path class="st0" d="M428.7,531.7c-2.3,10.7-6.8,19.7-17.6,24.4c-2.1-8.2-4.2-16-6.3-24.1C412.8,531.3,420.5,534.2,428.7,531.7z"/>
	<path class="st0" d="M250.7,462.3c23.8-10,46,33.2,33.2,49.9c2.7-18.5-8.9-41.1-27.8-45.8C252.9,465.7,252.9,465.7,250.7,462.3z"/>
	<path class="st0" d="M555.4,342.9c-5.6-17-19-28.9-33.1-39.2c11.3-2.4,20.1,5.2,26.9,13.1c6.6,7.1,7,16.9,6.7,26
		C555.8,342.9,555.6,342.9,555.4,342.9z"/>
	<path class="st0" d="M391.1,500.4c-1.1-3.7-5.4-7.2-3.1-10.6c5-8.3,9.2-16.7,7.9-26.7c3,1.6,5.8,3,8.6,4.4
		C404.1,480.2,400.7,491.3,391.1,500.4z"/>
	<path class="st0" d="M275.9,519.1c3.1-18.1-3.6-36.8-16.3-49.9c15.6,4.9,33.3,38.6,16.9,50.1C276.3,519.3,276.1,519.2,275.9,519.1z
		"/>
	<path class="st0" d="M240.2,288.7c-8.6,9.2-17,17.5-25.6,26.4c-0.7,0.7-1.2,1.8-2.6,1.3c3.3-9.1,8.4-17.8,12.3-26.9
		C226.9,284.8,235.1,289.1,240.2,288.7z"/>
	<path class="st0" d="M183.7,492.7c-0.6,21.6-17.4,17.6-15.7,5.9C169.5,491.4,183.8,477.7,183.7,492.7z"/>
	<path class="st0" d="M428,489.7c-0.3,15-24.2,9.6-32,21.1C382.9,491.9,420.5,498.7,428,489.7z"/>
	<path class="st0" d="M114.5,237.9c-6.9-23.2-12.2-46.2-13.7-70c0.2,0,0.4-0.1,0.6-0.1c3,19.7,8.3,38.9,15.5,57.5
		C118.6,229.9,118.5,234.6,114.5,237.9z"/>
	<path class="st0" d="M324.1,709.5c3.1-10.5,18.9,2.8,24.5,5.5c6,3.7,12.4,4.5,19.4,4.8C352.6,731.7,339.2,711.6,324.1,709.5z"/>
	<path class="st0" d="M379.8,53.6c9.2,10.2,18.3,20.5,27.7,30.9c-2.7,2.4-5.2,4.6-8,7c-6.8-12.6-12.3-25.7-20.2-37.6
		C379.5,53.8,379.6,53.7,379.8,53.6z"/>
	<path class="st0" d="M319,475.2c8.5-7.6,25.7-6.4,30.7-2.3C342.8,478.7,326.5,482.1,319,475.2z"/>
	<path class="st0" d="M385.9,489.5c-1-2.5-3.3-4.5-2.6-7.2c2.4-6.7,2.7-13.7,3.8-20.5C402,457.4,391.2,484.8,385.9,489.5z"/>
	<path class="st0" d="M316.6,745.3c16-10.2,38.6,5.1,53.2-9.7c0.6,1.8,1,3.4,1.6,5.1c-7.6-0.1-14.3,2.5-21,5.7
		c-11,4.3-21.1-5.3-33.4-0.5C316.8,745.7,316.7,745.5,316.6,745.3z"/>
	<path class="st0" d="M403.5,529.7c-0.8-2.1-1.7-4.4-2.8-7.1c11.6,0.1,20.2,7.1,31.4,0.3C428.2,535.8,413.6,530.5,403.5,529.7z"/>
	<path class="st0" d="M261.7,643.9c-2.2-6.5-5.4-11.5-10.7-16.4c4.4-1.1,8.5-2.2,12.6-3.3C264.4,628.5,263,641.8,261.7,643.9z"/>
	<path class="st0" d="M137.3,230c3.2-6.3,8.7-10.6,14.9-13.2c4.8,0.4,10.1-0.3,14.7,0.9C156.1,220.7,147.3,224.4,137.3,230z"/>
	<path class="st0" d="M188.6,389.9c4.3,3.1,8.3,6.1,12.5,9.2c-5.6,5.4-10.8-4.5-15.7-7.1C186.1,390.8,187.4,390.6,188.6,389.9z"/>
	<path class="st0" d="M306.2,251.1c-5.1,0.1-5.7-7.9-0.4-8.2C311.4,242.6,311.6,250.9,306.2,251.1z"/>
	<path class="st0" d="M452.8,286.3c0.1,3.4-5.2,3.5-5.3,0.2C447.2,282.9,452.8,282.8,452.8,286.3z"/>
	<path class="st0" d="M435.2,320.4c-2.2-0.7-4.8-1-4.5-4.3C432.2,317.5,433.7,318.9,435.2,320.4z"/>
	<path class="st0" d="M322.2,380.6c12-2.5,21.7,7,29.6,14.7c1.3-4.6-6.7-9.4-9.6-12.4c0.2-0.2,0.3-0.5,0.5-0.7
		c6.8,1.1,28.1,17.6,14.5,21.8C342.6,402.8,329.3,393,322.2,380.6z"/>
	<path class="st0" d="M388.4,395.3c-14.6,23.4-50.7,22.9-65.4,0.1c-7.2-11.2-14.6-24-17.3-36.6c6.5,11.7,12.4,23.5,20.4,34.2
		c14.5,20.7,45.6,20.9,61.8,2C388.1,395.1,388.2,395.2,388.4,395.3z"/>
	<path class="st0" d="M382.1,380.9c-1.7-2.1-2-4.7-1-8.6c2.1,0.4,3.8,1.5,5.6,2.9C385.7,377.6,384.4,379.7,382.1,380.9z"/>
	<path class="st0" d="M324.2,361.2c1.9,0.4,3.2,0.7,4.7,1c-0.2,2-1,3.3-2.5,4.2C324.5,365.3,324.7,363.5,324.2,361.2z"/>
	<path class="st0" d="M555.9,284.8c-4.6-42.8-10.2-92.9-49.6-118.2c22.3-6.7,48.5-2.2,65.1,14.8c22.4,23.3-3.9,78-14.9,103.6
		C556.3,284.9,556.1,284.8,555.9,284.8z"/>
	<path class="st0" d="M553.7,291c-9.6-6.2-19.6-9.7-30.6-11.7c6.7-5.6,16.6-6.4,25.2-4.1c2.4,0.7,3.9,1.9,4.2,4.5
		C552.8,283.6,554.6,287,553.7,291z"/>
	<path class="st0" d="M448.5,168.8c-12.7,18.2-18.8,39.5-27.5,59.7c-8.8,15.9-15.1,34-26.4,48.1c14.6-37.4,22.4-80.2,53.5-108.2
		C448.2,168.5,448.3,168.6,448.5,168.8z"/>
	<path class="st0" d="M407.4,279.3c6.6-18.1,19.4-39.4,40.2-41.7C431.7,249.8,420,264.3,407.4,279.3z"/>
	<path class="st0" d="M372,212.1c8.8,18.3,7.9,39.7,2.5,58.8C373,251.4,369.2,231.5,372,212.1z"/>
	<path class="st0" d="M369.8,501.9c6,10.4,12,20.9,18.3,32c-6.2-0.7-11.1-3.6-17.4-4.2c3.4,7.4,7.7,13.1,11.2,20.3
		c-10.3-9.2-19.6-19.4-28.9-29.6c4.6-0.1,9,0.9,13.8,1c-5.7-7.7-13.6-12.4-20.3-19.2C348.4,501.5,365.1,501.3,369.8,501.9z"/>
	<path class="st0" d="M149.2,477.3c-0.2,4.8-3.8,13.6-10.5,10.4C123.2,483,149.7,462.6,149.2,477.3z"/>
	<path class="st0" d="M117,443.1c13.2,0.9-3.9,22-10.5,13.8C100.5,449.9,110.6,443,117,443.1z"/>
</g>
</svg>
