<?xml version="1.0" encoding="utf-8"?>
<!-- Generator: Adobe Illustrator 26.0.0, SVG Export Plug-In . SVG Version: 6.00 Build 0)  -->
<svg version="1.1" id="Capa_1" xmlns="http://www.w3.org/2000/svg" xmlns:xlink="http://www.w3.org/1999/xlink" x="0px" y="0px"
	 viewBox="0 0 595.3 897.1" style="enable-background:new 0 0 595.3 897.1;" xml:space="preserve">
<style type="text/css">
	.st0{fill:#FFFFFF;}
</style>
<g>
	<path d="M73.6,360.5c-11.4-4.1-22.6-11.1-27.4-22.7c-3.5-9.4,15,3.1,36.8-8.3c-7.1-4-13-8.6-17-15.8c-1.9-3.2-5-11.2,1.8-9.9
		c6.2,0.9,12.5,1.7,18.7,0.7c-25.4-31.2-40-70.1-68.4-98.9c-2.6-2.9-5-5.3-6.3-9.2c6.1-0.9,10.9,1.6,17,1.8
		c-5.7-13.8-20.4-20.9-26.2-34.7c-1.5-2.5-2.8-9.6,2.2-8.2c4,1.4,7.6,4.3,12,3.8c0.4-1.3-0.5-2-1.1-2.8c-2-2.7-4.1-5.3-6.1-8
		c-4.1-4-16.2-30.9-4.9-29.6c10.1,2,19.6,6.4,29.9,7.5c40.8,4.2,82.2-0.5,122.9,6.4c8.9,1.4,17.7,3.2,26.6,4.9
		c1.8,0.4,3.4,0.2,5.1-0.5c12.5-4.5,25.2-7.6,38.5-8.6c6.5-0.2,12.8-0.1,18.9-2.6c21.9-7.8,44.8-11.9,67.5-16.8
		c9.7-2.7,20.9-4.8,26.2-14.5c14.6-24.1,22-51.3,30.7-77.9c4,3.6,5.8,7.9,8.6,12.3c1.4-1.2,1.5-2.6,1.6-4c1.1-8.5-0.2-17.1,2.9-25.3
		c17.8,26.6,19.9,60.2,37.4,87.2c0.7,1.7,1.9,2.3,3.7,2.3c5.8-0.2,11.7-0.4,17.5-0.5c5.5-0.1,4.6-1.1,6.4,4.2
		c3.6,10.7,5.9,21.7,6,33c2,14.1,5.1,28.1,7.6,42.2c3.2,8.9,9.9,16.5,15.9,23.6c10.3,12.1,23.6,15,37.6,6.9
		c7.3-2.3,1.4,12.7-0.5,15.5c9.3,4,18.2-1.2,26.5-5.6c2.2,8.4-0.5,15.9-2.6,23.4c7.8,2.9,26.4-2,34.5-8.5c4.2,7.2-5.3,21.2-9.2,27.6
		c4.8-0.5,8.3-2.8,12.5-4.7c3.2-1.7,6.1-3.9,9.1-5.9c1.5-0.9,2.8-2.1,4.8-2.1c1.1,12.9-7.6,30-14.1,41.1c0.9-0.1,1.4,0,1.8-0.2
		c5.4-2.6,10-6.4,15.6-8.6c4.5,11.3-14,34.3-21.3,42.7c3.7,0,6.7-0.4,9.8-0.8c3.1-0.4,5.8-2.4,9.5-2.2
		c-19.5,47.4-91.2,93-134.7,119.4c1,2.2,1.9,4.1,4.7,4.5c7.1,0.9,10.8,8.9,10.4,15.4c15,30.3,22.4,60.6,5.1,92.5
		c-15.3,29.4-53.4,13.1-69.3-7.1c4.1,23.8-0.9,47.8-9,70.1c-4.5,12.4-8,25.2-14.3,36.8c-4.6,8.1-7.9,17-5.4,26.3
		c2.5,10.8,5.8,21.5,7.8,32.5c-0.2,16.5,5.3,33.1,7.5,49.5c4.7,25.9,12.4,51.1,20.5,76c1,3.3,3.1,5.5,6,7.3
		c17.7,10,27.3,25.5,20.1,45.8c-2.8,6.5-5.1,6.9-11.6,8.3c-9,6-20.7,7.5-31.3,7.1c-9-1.1-16,4.7-25.1,1c-12-3.8-25-2.4-36.9-6.6
		c-2.7-0.9-5.3-2.2-7.8-3.5c-8.8-6.7-2.4-23.8-2.5-33.2c-0.2-24.3-8.7-47.8-12.8-71.7c-3.2-15.1-8.9-29.9-8.8-45.6
		c-0.1-6-1-11.8-1.8-17.7c-1.3-7.8-0.6-17.1-7.4-22.6c-0.9,1.7-0.5,3.3-0.3,4.7c1.7,12.2,6,23.8,7.5,36c1.5,15.4,2.2,31,5.5,46.2
		c1.3,22.5,29.8,82.2,1.9,92.3c-11.9,3.4-23.2,15.7-36.1,8.9c-1.8-0.9-3.6-1-5.6-0.7c-5.7,0.9-11.5,0.9-17-1.4
		c-1-0.4-2.4-0.3-3.5-0.1c-13.9,3.2-29.8-4.2-31.6-19.3c-2.9-19.2,8.7-20.8,13.4-33.9c0.7-3.2,1.1-6.4,0.6-9.7
		c-1.2-9.4-2.4-18.8-3.8-28.2c-3.1-22.2-12.8-42.8-16.4-65c-0.5-1.8-0.1-4.1-2.8-4.2c0.9-2.8,2.4-5.8-0.7-7.6
		c-1.3,2.6-0.2,5.7-3.1,7.6c-0.7-1.7,0.1-2.8,0.4-4.3c0.3-2.3,0.4-4.5-0.2-6.8c-2.3-15.8-2.6-32-5-47.9c-6.2,0.6-11.6,3.1-16.6,6.6
		c-1.3-2.9,0.6-5.5,1.4-8.5c-13.3,3.2-23.9,9.6-33.7,19.1c-1.3-2.5,0-4.9-0.5-7.6c-4.2,2.7-7.3,6-10.9,9.3c-0.8,0.8-1.4,1.7-2,2.7
		c-1.2,1.9-1.2,2.2,0.5,3.8c43.8,38.5,32.8,113.7-36.8,96.1c-51.9-14-57.8-102.5-24.1-137.2c30.9-38.1,84.3-49.2,130.2-35.7
		c2.9,0.8,3,0.8,4.6-1.6c2.7-4.1,5.4-8.2,8-12.3c-33.3-10.6-40.2-60.6-16.5-84.3c9-8.2,19.7-14.7,29.4-22c0.7-0.5,1.3-1.2,1.9-2.3
		c-28.6-1.9-57.1-4.5-85.6-7.3c-14.6-1.1-29.5,0.3-44.1-0.8c1.5-4,4.8-6.8,7.3-10.2c3.6-4.5,7.3-7.8,10.4-12.8
		c-19.6,4.1-50.7,12.2-67-3c4.8-0.6,8.9-0.2,12.9-2.8c6.3-3.9,12-8.7,16.5-14.6c-19.1-1.1-41-2.1-55.1-17.2
		c-1.2-1.2-2.5-2.5-2.8-4.7c13.3-2.2,26.2-2.5,37.4-10.9c-15.8-6.2-35.9-12.1-40.9-30.5c-0.7-2.7-0.6-5.2,2.9-4.8
		c16.1,0.9,33.1,1.6,47.5-6.8C73.6,360.9,73.6,360.7,73.6,360.5z"/>
	<path class="st0" d="M28.6,373.1c16.8,2.5,44.4-1.1,54.6-15.9c-12.2-3.2-23.6-8.5-31.9-18.2c0.7-1.2,1.6-0.7,2.3-0.7
		c9.4,0.5,18.5-0.7,27.3-4.2c2.6-1.3,13.8-5.1,8.3-8.7c-8.6-3.7-16.4-8.9-21.4-17.1c16.3,1.9,32.6,0.6,47.8-4.5
		c7.8-32.5,18-64.5,27-96.8c21.8,18.5,49.4,25.1,77.8,22c-4.7,6.2-8.6,11.9-9.5,19.8c3.9-0.8,10.1-11.1,13.8-14.3
		c4.1-3.9,8.7-7.9,14.3-9.3c12.7-4.6,14.4-4,27.5-2.6c3.3,0.5,7.7-3.8,4.1-6.4c-1.8-1.2-3.2-1.7-5.4-2.6
		c14.7-9.6,29.8-22.6,29.2-41.8c0-1.7,0.5-2.7,1.9-3.6c8.5-5.2,18.4-7,28.2-7.5c1.2-0.1,2.1,0.2,2.9,1.2
		c22,27.2,63.6,24.9,93.6,13.9c9.5-4,17.5-9.8,23.5-18.2c0.5-0.7,0.7-1.2,1.7-1.3c1.6,4.7,2.3,9.7,6,13.4
		c5.9,6.7,11.7,13.5,17.5,20.3c13.1,15.1,25.8,22.9,45.5,15.1c1.3,2.1-4.9,8.8-5.7,12.4c10.1,2.6,19.6,1.9,29.2-2.2
		c0.6,7-2.4,13.5-4.8,19.9c11.9,4.3,26-0.4,37.2-5.4c-1.7,7.9-6.1,14.7-11.3,20.8c-0.9,1-2,1.9-2.2,3.6c9.3,3.7,21.1-4.8,29.1-9.1
		c0.7,1.3,0.2,2.3-0.2,3.3c-4.4,12.8-10.6,24.6-16.7,36.6c8,1.2,13.8-3,19.8-6.8c0.2,9.6-19,29.4-25.1,38.1
		c6.9,1.8,13.5,0.7,20.7-0.2c-32.3,46.8-82.5,79.6-130.7,108.3c-7.3-10.8-18.5-17.2-31.3-19.1c-7-1.6-14.1-2.4-21.3-1.1
		c-0.9,0.1-1.9,0-2.6-0.4c-7-4.9-14.7-5.4-22.7-3.5c-15.7,2.6-37.1,20.5-22.8,36.4c4.2,4.8,9.2,5.9,15,3.7c1.8,4.7-2.9,4-5.8,5.3
		c-8.6,2.9-6.5,11.4-4.3,18.3c-18.2,5.7-38.1,12.1-57.3,7.2c-4.3-1.1-8.7-2-13.1-2.7c-15.7-2.3-30.1,1.2-42.9,10.7
		c-1.8,1.3-3.5,1.7-5.6,1.6c-42.2-1-83.9-7.3-126.2-7.4c4.7-6.8,14.6-14.5,14.3-22.9c-19.5,6.4-38.9,9-59.1,5c0.3-1.4,1.3-1.6,2-2.1
		c8.8-6.3,18.2-13.7,22.6-23.8c-18.6,1.2-40.5,0.5-55.7-11.1c11.5-2.7,23.2-6.2,31.6-15c1.8-1.7,2.8-3.9,3-6.6
		C56.1,394.5,36.7,388.8,28.6,373.1z M284.7,342c0-4.3,8.6-2.2,13.5-14.8c5.2-17.8,4.2-37.4-0.1-55.3c-3.7-17.3-17.6-29.9-34-35.2
		c-13.4-4.8-27.9,0.5-39.3,7.8c-16.4,11.5-26.9,29.1-42.1,42c-7.6,7.3-14.7,5.8-24.1,4.5c2.1,6.2,6,10.3,12.1,13.3
		c-6,3.1-11.2,2.5-17.6,3.1c3,8.7,12.6,8.8,20,11.4c0,0.2,0,0.4,0,0.6c-4,2.5-9,2.8-13.4,4.6c3.1,4.8,10.3,7.9,15.5,10.3
		c11.4,4.9,23.5,5.2,35.5,2.2C235.7,334.2,260.1,337.6,284.7,342z M488.3,206.7c-0.2,1.3,0,2.8-0.6,3.8c-4,7.6-13.2,6.4-19.6,2.7
		c-4.3-2.3-8.4-4.7-12.6-7.2c-19.8-12.8-48.6-11.9-61.3,10.2c-14.1,23.9-16.1,90,24.5,85.8c0.2,1.6-1.9,2.2-1,3.8
		c2.8-0.7,4.6-2.8,6.7-4.4c15.1-12.3,31.1-23.4,47.2-34.5c5.9-3.3,11.8-6.7,17.6-10.2c7.2-4.9,12.8-12.9,13.1-21.8
		c-2.2,1-3.6,2.9-5.8,2.3c2.4-6.3,6.2-12.1,3-19.1c-1.6,2-2.2,4.3-4.8,4.9C495.8,217.3,493.5,208.7,488.3,206.7z M310.6,369
		c10.8,5.9,23.5,6.2,35.5,5.8c4.8-0.6,8.4,3.3,12.9,4.5c15.6,5.5,29.3,0.6,40-14.2c8.8-4.8,18.3-11.3,21.7-21.2
		c-1.9-0.3-2.3,0.9-2.9,1.8c-4.3,5.9-9.7,10.4-16.1,13.9c-6.5,3.6-13.3,3.8-20.2,2.1c-3.1-0.7-3.6-1.4-3.8-4.6
		c0.1-6.6-0.7-13.1-2-19.6c-0.2-1.1-0.5-2.4-2.1-2.7c-0.9,1.3-0.4,2.6-0.3,3.8c2.9,24.2-3.3,30.6-27.3,32.3
		c-7.9,0.5-15.8,0.4-23.5-1.7C318.4,368.2,314.5,365,310.6,369z M437.3,197.1c-6.1-17.3-35.4-22.1-46-6.3c-1.2,1.7-2,3.6-1.6,5.7
		c1.7,7.1,8.2,0,10.1-3.3c3.8-6.3,12.2-6.1,18.7-5c5.5,1.1,10.3,3.5,14.7,6.9C434.3,196.1,435.4,197.1,437.3,197.1z M373.4,314.8
		c-6.5,0.6-13.6,1.7-17.9,7c-4.3,5.4,9.5,6.5,12.6,7.8c2.6,0.7,5,0,7.1-1.5C384.3,321.7,387.3,315.8,373.4,314.8z M229.5,403.3
		c0.5,0,0.7,0.1,0.7,0.1c0.4-0.5,0.8-1,1.1-1.5c5.7-8.8,11.9-17.1,19.4-24.3c14.4-14.6,34.2-19.1,53.2-24.1
		C272.7,353.4,241,373.7,229.5,403.3z M424.6,325c28.2-2.6,53.5,4.5,75.8,22c-12.7-15.5-33.5-22.3-52.8-24.9
		C441.1,321.7,429.8,320.4,424.6,325z M308.4,358.2c-23.8,7.1-44.3,29.4-46.7,54.4c7.9-21.6,22.2-40.3,43.1-51.1
		C306,360.7,307.5,360.2,308.4,358.2z M307.5,347.6c-4.8-3.8-17.1-3-23.3-3.1c-14.9,0.6-31.3,4.2-41.5,15.8c0.2,0.2,0.3,0.4,0.5,0.6
		C262.1,347.8,285.2,345.5,307.5,347.6z M472.5,368.6c-6.4-19.2-24.9-33.4-44.7-38c-0.9-0.2-2-0.5-3.1,1.1
		C444.9,337.1,461.5,350.9,472.5,368.6z M419,320.4c0.1,0.2,0.2,0.4,0.3,0.6c4.3-1.8,8.7-3.8,13-5.5c13.6-5.2,28.7-4,42.9-2.1
		C459.5,306.4,431.9,308.1,419,320.4z"/>
	<path class="st0" d="M312,480.4c15.8,17.5,34.1,35.4,58.6,38.8c35.2,5.7,24.3-31.5,11-49c2-1.5,2-1.5,3.3,0.2
		c8.3,10.7,10.1,24.2,13.1,36.9c16.5,52.7,5.1,82.3-15.1,131.3c-22.9,28.3-90.6-8.1-112.7-26.3c-10.5-8.6-19.3-19.4-23.6-32.4
		c-0.5-1.2-0.5-2.4,0.5-3.6c16.8-19.3,31.8-41.4,56-51.9C316.7,517.3,315.5,495.8,312,480.4z"/>
	<path class="st0" d="M23,202.5c5.4-0.1,10.2,2.9,16.1,3c-4.3-9.9-11-18.2-18.3-26.1C15.5,173.5,8.9,168,6,160.5
		c3.9,1,7.5,3.3,11.5,2.7c6.8-1.4,2.2-7.8-0.4-11.1c-2.6-3.7-5.4-7.3-7.8-11.2c-1.7-2.3-9.2-19.4-2.4-17.4c7,1.2,13.6,4.3,20.5,6.2
		c19.5,5.5,39.9,3.6,59.8,3.1c29.5,0.4,59.8,1.7,88.2,9.5c-18.1,10.1-37.1,18.9-55.4,28.8c-1.3,0.7-2.6,0.8-4,0.7
		c-18.1-1.9-35.6-6.7-52.7-12.8c-3.2-0.6-9.8-4.1-10.4,1.1c1.1,35.4,26.3,66.8,52.1,89c1.6,1.1,3.2,2.2,2.3,4.4
		c-4.7,16.5-8.8,33-13.7,49.6c-18.1-22.1-33.2-46.4-47.3-71.2c-6.5-10.7-16.3-19-23.9-28.7C22.7,203,22.8,202.7,23,202.5z"/>
	<path class="st0" d="M399.3,783.8c4.3,15.8,8.5,31.2,14.3,46.4c-17.1-2.6-35.2-5-51.8,1.3c0.9,1.1,1.8,0.5,2.5,0.3
		c7.3-1.7,14.6-2.6,22.1-2.5c20.1,0.5,31.9,2.8,46.7,17.5c6.4,6.7,8.7,14.5,7.5,23.5c-0.8,4.8-1.5,11.6-7.2,12.9
		c1.6-5.3,3.7-10.2,3.2-15.9c-0.6-8.1-5.1-15.2-12.3-18.5c-0.1,1.4,0.9,1.7,1.6,2.3c9,7.5,11.9,20.9,5.1,30.8
		c-6,7.4-24.2,9.6-33.5,9.2c5.9-12.6,7.4-27.6-1.5-39.3c-0.5-0.6-1-1.7-2-1c-1,0.7,0,1.5,0.4,2.1c7,11.3,7,22.8,1.3,34.5
		c-1.4,3.6-4.5,3.6-7.6,4.8c-4.7,1.6-9.4,1.4-13.9-0.5c-6.1-2.5-12.4-3.8-18.9-4.4c-45.3-3.7-16.9-19.7-27-57.6
		c-2-9.2-4-18.5-6-27.7c-0.5-2.4-0.5-2.4,1.7-3.8c14.7-8.8,32.5-12,49.5-11.5C382.1,786.4,391,788.3,399.3,783.8z"/>
	<path class="st0" d="M82.2,660.1c-1.6,3.4-4.7,8-1.4,11.3c4.3,2.2,9.3-13.9,20.8-9.9c7.2,2.3,2.8,12.4,16.7,18.9
		c20.8,9.5,36.8,27.3,40.3,50.2c2.7,13.3,1.6,29.4-9.8,38.5c-22.6,19.2-60.9,11.3-74.9-14.6c-13.8-25.2-19.1-58.7-3.5-84.3
		C72.4,666.8,78.1,659.6,82.2,660.1z"/>
	<path class="st0" d="M243.9,566.4c5.8-8.8,14-14.7,22.8-20.2c-9,10.5-18.7,20.5-28,30.7c-8.2,9.2-17.7,18.4-30.1,8.7
		c-10.8-8.2-14.7-22.6-16.1-35.5c-1-11.8,3.9-22.6,9.9-32.4c0.2,0.1,0.4,0.2,0.6,0.3c-8.2,20.4-0.7,44.6,18.7,55.3
		c2.5,1.1,11.1,4.2,13.1,2c-26-2.9-41.2-35.2-29.2-57.9c1.8-4.3,4.6-7.7,8.6-10.2c10.7-6.8,20.6-14.6,30.2-22.8
		c14.3-12.7,34.6-16.7,52.7-10.7c3.8,1.2,6.6,3.6,7.9,7.6c2.2,6.6,4,13.3,3.8,20.4c0.3,17.5-13.5,21-25.8,29.1
		C274.2,537.5,243.7,555.7,243.9,566.4z"/>
	<path class="st0" d="M239.4,839.7c-10,1.5-18.5,16.2-11.7,33.2c-11-7.8-9-25.3,0-33.9c5.9-5.6,7.7-12.7,7-20.4
		c-1.4-12.9-3.1-25.5-5.2-38.3c15.8,0.1,15.1,12.4,30,11.5c8.2-0.2,15.8-4.1,23.9-4.8c6.5-0.8,12.9-1,19.4,0.2
		c2.5,0.4,3.7,1.6,4.3,4.2c3.2,20.9,16.2,49.2,10.4,69.2c-1.5,5.5-6.5,8.1-11.6,9.9c-3,1.5-6,3-8.8,4.8c-8.8,6.7-22.6,9.5-27.7-2.9
		c-1.7-4.3-2.3-8.8-2.5-13.4c-0.4-3.3,0.7-6.7-0.2-9.8c-2.8,9.7-2.2,20.4,3.7,29c-18.2,4.5-26.7-5.7-25.2-23.3
		c0.1-3.1,1.9-6.1,1.3-9.1c-3.8,6-4.5,14.3-2.7,21c1,3.4,2.6,6.7,4,10.2c-3.3,1.1-7.2,0.3-10.7,0.2c-4-0.3-6.3-2.7-8-6
		C223.5,860.2,228.6,845.5,239.4,839.7z M294.5,835.9c0.1-0.3,0.2-0.5,0.3-0.8c-14.1-6.2-29.7-7-44.8-4.9c-1.1,0.1-2.5,0.1-3.6,2
		C263.1,828.9,278.9,831.3,294.5,835.9z"/>
	<path class="st0" d="M321.3,798c-4.1-24.4-13.8-47.7-12.8-72.7c0.8-0.7,1.7-1.4,2.7-2.3c0.2,0.4,0.6,0.9,0.9,1.5
		c1.9-1.3,1.4-4.8,4.7-4c0,1,0,2,0,3.3c3.9-1.5-0.3-5.5,5.1-5.7c0.2,1.3,0.4,2.6,0.6,4.1c2.7-0.4,1.2-3.7,1.3-5.7
		c1,0.3,1.6,0.5,2.4,0.7c0.5-0.7,0.9-1.4,1.4-2c1.6-0.2,1.3,2.9,3.5,1.6c-0.2-0.8-0.4-1.7-0.7-2.7c0.7-0.4,1.4-0.8,2.2-1.2
		c2,1.9,3.5,4.7,7.1,4c-0.2-1.7-1.7-1.5-2.5-2.2c-0.7-0.7-1.4-1.4-2.5-2.4c1.4-0.7,2.4-1.1,3.4-1.6c0.8,0.8,1.3,1.5,2.3,2.5
		c0.2-1.4,0.4-2.3,0.6-3.5c0.8-0.3,1.7-0.7,2.7-1.1c0.4,2-1.5,2.3-0.8,4c1.9,0.2,2.3-2.2,3.3-3.3c1.5,0.3,1.4,3.3,4,2
		c-1-1.6-1.4-2.4-2.3-4.2c1.2-0.5,2.1-0.8,3.1-1.2c1.6,2.1,1.5,5.1,4.8,6.1c0.2-2.3-4.1-6.2-1.5-7.2c0.8-0.3,1.5-0.1,1.8,0.7
		c0.4,1.7,4.5,6.4,6,3.8c-1.4-1.8-4.3-2.4-4.3-5.6c1.3-0.3,2.6-0.7,4-1.1c1.6,2.2,2,6.5,5.6,5.8c-0.4-2-5-5.1-2.1-6.6
		c1.3,1.5,1.2,4,3.5,4.8c1.4-2-1.5-3.1-0.8-5c3.4-1.7,2.4,4.4,2.9,6.5c1.3-0.1,2.9,0.4,3.8-0.3c1.7-1.5,3.2-3.9,3.7-6.2
		c4-0.4,0.3,4.1,1.8,5.9c1.9-0.4,1.6-2.5,2.5-4.6c5.5,25,8.3,50.3,14.9,75.1c0.9,3.7,0.6,4.4-3.1,5.6c-4,1.3-8.2,1.4-12.4,1.4
		C361.3,784.3,339.1,785,321.3,798z"/>
	<path class="st0" d="M229.6,717.9c1,1.8,0.4,3.8,1.8,5.3c1.9-1.5,0.2-3.4,0.9-5.2c1.5-0.8,3.2-0.3,5.1-0.6c-0.1,1.2-0.3,2.1-0.4,3
		c3.3,0.9,1.4-4.1,4.5-3.2c0.8,3.3-2.1,5.4-2.8,8.4c5,0.6,3.1-10.6,7.6-8.9c-0.4,1.1-0.8,2.1-1.3,3.6c3.7,0.4,2.1-5.2,5.2-4.2
		c1.2,2.6-0.7,4.5-1.6,6.6c0.7,1.1,1.5,0.8,1.9,0.1c1.1-2.4,2.2-4.6,2.1-7.4c2,0.5,2.2,9.5,5.1,6.4c-1.2-2.1-2.5-4.2-2-6.9
		c1.5,0.3,1.1,1.6,1.5,2.4c0.5,0.9,0.9,1.6,2.1,1c-0.7-4.3-0.7-4.3,2.1-4.6c0.3,2,0.6,4,1,6.6c2.6-2.4,0.4-5,1.4-7.3
		c0.7,1.2,1.4,2.2,2,3.2c2.8-1.2-1.6-3.8,2.2-4.4c0.6,1.4,1,3,2.2,4c0.9,0.6,1.5-0.4,1.2-1.1c-0.4-1.4-1.8-2.5-0.4-3.8
		c2.3,0.3,1.7,5.5,4.4,3.5c-0.4-1-0.9-2.1-1.3-3.2c-0.3-1.1-0.3-1.1,1.4-1.7c0.6,0.8,1.2,1.7,1.8,2.5c2.4-0.8-0.9-3.2,1.4-3.9
		c1.5,0.5,0.6,3,2.7,3.1c1.2-1.3-1.3-3.4,0.7-4.7c1.5,1.3,0.5,4.2,3.5,4.9c0.3-2.1-2.7-6.1,0.5-6.7c1.1,1.9,2.2,3.6,3.3,5.4
		c0.1,0.1,0.6-0.1,1.1-0.2c-0.6-2.4-2.5-4.2-1.7-7.1c1.4,0.9,1.7,2.6,2.9,3.4c1.8,0.7,1.9,2.3,2.3,3.8c1.4,5.8,3,11.5,4.3,17.3
		c3.7,16.4,2.5,33.3,6,49.7c0.4,3.2,1.5,6.2,1.4,9.5c-11.9-2.5-24.1-2.1-35.8,1.7c-4.1,1.4-8.3,2.1-12.6,1.9
		c-11.3-0.3-11.5-9.9-24.8-11.3c-3.5-0.6-3.4-0.6-4.4-4c-5-17.4-11.1-34.8-13-52.8c1.2-0.2,2.4,1.8,3.6-0.1
		c-1.3-1.5-3.6-2.5-3.1-5.1c5.2-1.2,4.2,3.3,6.6,6.4c0.2,0.2,0.9,0.1,1.4,0.1c0.1-2.1-1.9-3.2-1.7-5.8c0.9,0.1,1.6,0.1,2,0.2
		c0.8,1.8,1.5,3.3,2.3,4.9c0.1,0.1,0.6,0,1.2-0.1c-0.4-1.5-0.7-2.9-1-4.4C227.7,717.9,228.6,717.9,229.6,717.9z"/>
	<path class="st0" d="M233.7,131c50.1-2.9,79.9,43.8,31.8,74.1c-5.8,3.5-11.5,7.4-18.3,8.4c-4.8,0.7-9.3,2.5-13.5,4.9
		c-39.1,12.8-86.5-3.6-107.6-39.4c-1.9-3.4-3.4-6.1,1.1-8.2C160.6,153.3,194.9,131.7,233.7,131z M232.7,142.8
		c-31.9,0.2-60.8,16.7-87.1,33.2c-2.2,1.4-2.2,1.8-0.6,3.9c14.6,17.1,36.5,27.9,59,28.4c21.7,1.6,88.9-20.9,67.1-50.6
		C261.1,146.7,248.4,142.9,232.7,142.8z"/>
	<path class="st0" d="M386,465.4c2-0.9,3.9-1.8,6.1-2.8c2.5,2.8,6,3.9,9.8,4.8c-2.6,5.9-3,11.7,2,16.3c1.4,1.4,2.3,3,2.9,4.9
		c5.7,14.6,12.2,29,17.7,43.6c1.5-0.8,1-1.8,0.7-2.6c-4.4-14.4-11.6-27.8-17-41.9c0.5-0.3,0.7-0.5,0.8-0.5
		c6.2,1.6,12.6,0.4,18.7,2.4c19.6,4.7,44.7-1.8,49.4-24c9,20.4,10.6,44.2,2.1,65c-2.7,6.5-5.4,13.3-11,17.8
		c-19.2,15-50.3-4.3-59.6-23.1C398.4,506.4,400.1,482.6,386,465.4z"/>
	<path class="st0" d="M401.2,424.5c-8.7,4.7-16.3,25.2-10.7,36.1c-7.5,7.2-14.3,0.4-16.5-7.4c-6.5-17,8-34,21.6-42.8
		c11-6.6,24.2-2.6,35.7,0.3c7.6,2.3,13.8,6.9,18.4,13.3c8.1,13.8,17.7,19.6,3.2,33.3c-11.5,11.5-29.4,20.9-45.7,14.1
		c-1.6-0.7-3.3-1.5-3.1-3.9c0.3-0.2,0.7-0.5,1.1-0.5c2.9-0.4,5.5-1.5,8-3c0.9-0.5,2.1-0.7,3.2-0.6c10.7,0.9,11.1-12.5,5.8-18.6
		c-1.8-2.6,2.2-6.6,4-8.4c-0.1-0.2-0.2-0.3-0.3-0.5c-3.8,1-5.5,5.2-6.4,8.7c-1.8,11.3-5.2,22.5-18.6,20.7c-14.8-2.5-11-21.4-5.6-31
		C397,430.8,399.4,427.8,401.2,424.5z"/>
	<path class="st0" d="M445.9,91.7c10.1,28.2,5.7,67.7-26.7,78.5c-20.5,7.2-43.4,9.3-64.4,3.3c-16.7-4.5-29.6-19-30.9-36.5
		c-0.4-16.2,12.7-28.1,26-35C379.5,85.1,413.6,93,445.9,91.7z M435.9,102.7c-25.5-2.2-52.6-6-76.4,5.6c-16.2,7.2-31.1,28.6-12,43.5
		c21.8,14,53.5,12.5,75.3-0.8C438.1,140.9,439.4,119.2,435.9,102.7z"/>
	<path class="st0" d="M81.5,669.7c-0.8-4.9,2.8-8.2,4.5-12.4c-10.5,0.1-16,9-20.8,17.3c2.9-10.3,9.4-19.4,16.1-27.6
		c8.3-6.8,23.7-6.5,33.5-2.9c7.6,3.4,24.3,1.5,20.3-10.1c-1.1-2.6-2.9-5-4.4-7.4c-1.8-2.6-6.6-8.2-0.6-8.8
		c12.8-1.2,20.6,10.4,28.3,18.7c5.9,5.5,14.7-2.3,13.5-9.1c-0.3-2.9-1-5.9-1.5-8.8c-0.9-5.7,7.7-6.2,10.5-2.7
		c1.4,1.5,2.6,3.1,3.9,4.7c1.9,2.4,3.7,4.9,5.7,7.2c2.7,3.2,9.3,4.4,9.8-1.2c0.7-5.1-1.6-9.8-3-14.5c1.8-0.4,7.3,0.8,10.1,2.3
		c-7.6,13.3-7.4,28.2-8.5,43.2c-3.1,0.8-6.5,1.7-10.4,2.7c0.6-2,1.2-3.8,1.9-6.1c-12.7,1.7-24,7.6-34.4,14.9c-0.9,0.5-1.2,1.4-2.5,1
		c0.4-2.4,0.8-4.7,1.2-7c-4.1,0.5-15.8,10.8-22.6,19.8c-3.8-2.4-6.3-6.4-9.5-9.4c-6-8-2.1-14.9,5-18.8c-8.2,0.4-12.4,9.6-9.3,17.1
		c1.2,3.1,3.5,5.7,5.1,8.6c-6.3-2-12.4-6.2-14.7-12.7c-1.5-6.1-6.3-9.9-12.8-8.5c-3.9,0.8-6.9,3.1-9.6,5.9
		C84.9,666.7,83.8,668.6,81.5,669.7z"/>
	<path class="st0" d="M372.2,26.9c4.2,4.1,6.2,8.9,9,13.2c1.8-0.6,2.1-2.2,2.4-3.5c1.4-6,2.7-11.9,3.7-18.1c1.4,0.4,1.5,1.5,1.8,2.4
		c8,23,14.1,46.3,26,67.8c-25-2.5-16.4,6.1-24.2-17.4c-0.8-3.1-3.5-2.2-4.5,0.3c-1.4,3.9-2.6,7.9-3.8,11.9c-1,2.2-0.4,5.9-3.6,6.1
		c-27.1,4.2-60.2,21.3-59.2,52.7c-11.3,0.4-21.7,3.6-32,8.6c-8.1-11.7-19.5-17.8-33.1-21c16.5-6.5,34.3-9.7,51.5-14.1
		c12.9-3.4,29-4,36.7-16.6C355.6,76.4,366,52.4,372.2,26.9z"/>
	<path class="st0" d="M319.1,675.2c-3.6,5-15.4,18.2-22,15.4c-8.4-4.6-18.3-2.2-27.4-2c-1.4,0.1-2.7,0.6-3.7,2.2
		c9-0.6,17.7-1.4,26.2,1.2c0.2,6.4-8.3,9.2-13,11.6c-20.8,8-45.5,14.7-67.3,7.3c-2.9-1.2-4.4-2.9-4.5-6.2c-0.3-10-2.6-20-1.5-30
		c18.8,0.3,36.9-3.9,53.8-12.1c1.3-0.6,2.4-0.7,3.7-0.1C281.1,669.9,300.3,672.7,319.1,675.2z"/>
	<path class="st0" d="M108.9,247.2c-25-21.1-48.2-48.7-53-82c-0.1-2.1,0.9-2.9,2.9-2.5c17.7,7.9,36.7,12.8,56.1,14.2
		c1.5,0.1,2.3,0.8,3.1,2c1.8,2.8,3.6,5.6,5.6,8.3c1,1.3,1.2,2.5,0.8,4.1C119.1,210,114.5,228.6,108.9,247.2z"/>
	<path class="st0" d="M303.3,696.4c11.2-2.4,20.1-9.7,25.8-19.3c0.9-1.6,2.1-2,3.8-2.1c14.8,0.2,28.8-4.1,42.5-9.5
		c1,10.7,4.6,20.7,6.3,31.2c-1.4,1-3,1-4.7,0.9c-8.7-0.8-17.3,1.8-25.7,4.1c-2.5,0.7-4.9,2.2-7.4,3.1c-3-0.3-4.9,2.1-7.5,2.9
		c-10,2.9-18.8,8.2-28.4,12.3C307.1,711.8,306.6,703.9,303.3,696.4z"/>
	<path class="st0" d="M237.8,585.6c4.6,23.1,24.4,38.2,44.6,47.9c28.9,13,63.6,31.3,95,16.5c0.3,4.2-13.8,7.5-17.2,8.4
		c-43,8.1-108.4-8.7-129.8-50c-1.8-4.2-4.9-12.2-1-15.9C232.4,590.3,234.7,587.7,237.8,585.6z"/>
	<path class="st0" d="M327,482.8c10.2-8.2,23.8-9.1,35.8-13.2c2.4-0.9,3.9-0.3,6.2,0.5c3.3,0,5.2,2.1,7.1,4.3
		c6.6,7.6,10.4,16.4,11.3,26.4c1.4,9.7-10.3,9.9-17,8.3C353.3,506.1,339.4,494.1,327,482.8z"/>
	<path class="st0" d="M86.7,641.2c25.8-25.8,63.4-37.3,99.3-31.7c2.6,0.8,7.7,0.1,9,2.7c1.7,4,6.4,12.9,2.2,16.3
		c-5.4,2.1-11.2-11.4-15.3-14.3c-3.9-3.7-13.1-2.8-13.2,3c0.3,6.7,4.5,14.9-3.3,18.9c-5.7,3.9-12.5-10.7-17.5-13.6
		c-4.5-3.6-9.5-6.2-15.4-6.4c-3.7-0.5-8.7,1.5-6.8,5.9c1.8,4.1,5.1,7.6,7.2,11.5c4.9,11.5-10.7,11.9-17.3,9.1
		c-8.6-3.2-17.2-3.3-26-1.3C88.5,641.3,87.8,641.9,86.7,641.2z"/>
	<path class="st0" d="M230.5,636.2c-6.6-5.4-10.4-12.9-13.7-20.7c7.8-0.1,4.6-10.2-0.7-3.5c-3-2.3,5.6-11.3,7.2-14.1
		c11.3,51.3,86.9,70.7,132.7,65.1c-0.2,1.6-0.4,3.1-0.6,4.9c-3,0.5-6.2,1-9.6,1.6c-0.6-5.5-4.7-4.6-5.3,0.4
		c-3.2,0.2-6.4,0.4-9.9,0.6c-0.3-1.8,0.1-3.9-1.9-4.3c-2.5-0.3-2.6,2.2-3.1,4.2c-4.8-0.1-9.6-0.2-14.6-0.9c1.6-6.6-4.7-7.3-5.2-0.6
		c-5.8-0.5-11.5-1.4-17.4-2.7c4.4-6.1-1.5-10.1-3.6-5.5c-0.4,1.3-0.3,2.7-0.5,4.4c-6-1.5-11.9-3.3-18-5.7c5.8-4.7,0.2-10.9-2.5-6.2
		c-0.5,1.4-0.5,3-0.8,4.7C250.7,653.4,239.1,645.8,230.5,636.2c5.2,2,6.9-4.9,3.3-6C230.3,629.5,230.1,633.6,230.5,636.2z
		 M249.8,644.1c0-5-5.7-4.1-5.7,0.5C244.3,649.2,249.8,648.6,249.8,644.1z M227.2,622.2c-0.3-4.4-5.5-2.4-5.4,1.1
		C222.3,627.7,227.3,625.9,227.2,622.2z"/>
	<path class="st0" d="M97.6,303.5c9.5-36,19-71.7,28.6-107.9c3.1,2.5,5,5.3,7.8,8c1.1,1.1,1.2,2.2,0.8,3.5
		c-7.1,27.1-14.2,54.3-21.3,81.4c-1.1,4-2.2,8.1-3.2,12.1c-0.4,1.5-1,2.2-2.6,2.3C104.2,303,101.2,304,97.6,303.5z"/>
	<path class="st0" d="M396.6,406.1c-9.8,5.8-17.8,13-22.9,23.3c-1.4,2.6-3.2,4.7-5.5,6.5c-9.5,6.9-19.4-9.5-13.5-17.3
		C362.3,406,383.5,397.5,396.6,406.1z"/>
	<path class="st0" d="M225.5,637.5c7.8,8.8,17.1,15.2,27.5,20.4c-4.9,3.2-39.9,11.1-45.6,8.9C210.1,655.1,214.7,644.6,225.5,637.5z"
		/>
	<path class="st0" d="M403.9,473.8c17.2,9.1,37.6-0.3,50.2-12.9c6.7-7.1,11.6-13.1,8-23.3c14.8,6.7,2.7,26.7-6.2,33.4
		c-12.3,9.6-28.6,16.3-44.3,12.3C407.6,482,402.8,478.8,403.9,473.8z"/>
	<path class="st0" d="M244.2,579.9c12,39.1,78.1,71.2,116.9,70.8c0,0.2,0,0.4,0.1,0.7c-24.2,2.8-47.3-7.9-68.9-17.3
		c-21.5-9.6-45.4-23.5-50.5-48.4C241.3,583.3,241.8,581.4,244.2,579.9z"/>
	<path class="st0" d="M212.1,614.7c2.4,8.2,7.3,14.5,12,21.2c-11.5,7.5-16.1,19-19,31.9C201.8,658.1,203.2,624.5,212.1,614.7z"/>
	<path class="st0" d="M471.6,456.9c3.6,3.3,4.3,7,2.9,11.2c-5.4,18.1-27.4,24.3-44,19.8C447.9,483.9,464.7,474.2,471.6,456.9z"/>
	<path class="st0" d="M294.1,164.4c-1.5-4-2.9-7.5-4.3-11.2c8.9-4.9,19.1-7.7,29.3-8.1c5.4-0.6,6.4,6.3,6,10.5
		C314.1,156,303.6,158,294.1,164.4z"/>
	<path class="st0" d="M317.1,479.5c17.3,14.1,34.4,32.7,58.2,33.8c6.9,0.5,15.8-1.7,15.3-10.3c-0.4-12.1-6.3-22.8-13.1-32.5
		c1.9,0,2.4,0.7,3.3,2c6.4,9.8,13.1,21.3,11.5,33.5c-1.2,6-5.1,9.5-11.3,10.1c-25.8,1.8-49.3-17-64.3-36.2
		C316.8,479.9,317,479.7,317.1,479.5z"/>
	<path class="st0" d="M381.5,465.4c-4.2,3.1-11.6,2.1-16-0.7c-3.6-2.2-5.8-7.9-4.9-12c1-4.2,5.9-4.8,10-5.1
		C372.4,454.7,373.6,462.1,381.5,465.4z"/>
	<path class="st0" d="M206.3,672.5c0.3-1.4,0.4-2.3,0.6-3.2c16.4-0.5,32.2-4.6,47.8-9.4c1.4-0.4,2.5-0.4,3.7,0.9
		C242.6,669.3,224.5,673.7,206.3,672.5z"/>
	<path class="st0" d="M301.1,693c19.4-8.9,15.9-19.9,26.4-17.7c-3.4,8-10.6,14.1-18.7,17.5c-1.7,0.7-3.6,1.1-5.3,1.5
		C302.5,694.5,301.6,694.4,301.1,693z"/>
	<path class="st0" d="M453.9,145.8c1.8,8.1,3.4,15.7,5.1,23.5C451.9,165.8,448.3,153.9,453.9,145.8z"/>
	<path class="st0" d="M416,461.1c3.2-4.5,3.8-9.7,5.2-15c2.9,3.2,3,7.2,2.2,11.1C422.7,460.2,419.9,461.6,416,461.1z"/>
	<path class="st0" d="M392.7,88.1c-2.4,0.2-4.5,0.3-6.9,0.4c0.5-4.7,1.9-8.9,2.9-13.2c0.2,0,0.4,0,0.6-0.1
		C390.4,79.4,391.5,83.5,392.7,88.1z"/>
	<path class="st0" d="M360.5,666.9c-0.6-1.8-1-3-1.5-4.4c2.9-0.7,5.8-1.5,9-2.3c0,1.3,0,2.4,0,3.9
		C365.7,664.9,363.2,665.9,360.5,666.9z"/>
	<path class="st0" d="M376.4,701.2c0.2,2.7-1.3,4.2-3.2,5.9c-0.3-2.1-0.5-3.9-0.8-5.9C373.8,701.2,375,701.2,376.4,701.2z"/>
	<path class="st0" d="M372.7,661.1c-0.5-0.7-0.8-1.3-1.4-2.2c1.4-0.7,2.7-1.2,4-1.8C376.1,659.2,376.1,659.2,372.7,661.1z"/>
	<path class="st0" d="M286.9,664.1c-1-1.4-0.9-2.4,0.4-3.2C288.5,662,288.3,662.9,286.9,664.1z"/>
	<path class="st0" d="M265.7,656.8c-1.2-1.6-1.2-1.6,0.5-3C267,655.4,267,655.4,265.7,656.8z"/>
	<path class="st0" d="M292,703.5c-0.3-0.8-0.5-1.6-1-2.8c1.8,0.7,1.5,1.7,1.6,2.5C292.4,703.3,292.2,703.4,292,703.5z"/>
	<path class="st0" d="M308,668.2c0.1-0.5,0.2-1.1,0.2-1.6C309.7,666.5,309.5,668,308,668.2z"/>
	<path class="st0" d="M271.7,336.8c4.8-10.2,7.6-20.4,4.6-31.6c-10.8,3.6-19-9.2-9.4-16.2c-6.9-6.9-15.3-9.9-24.9-10.6
		c21.2-3.9,43.8,9.3,48.8,30.6c1.8,6,2.3,12.2,2.6,18.4c0.2,0.7-0.2,1.3,0.7,1.7c10.5-55.6-60-82.2-89-33.5
		c-4.6,8.6-11.9,7.5-20,5.1c-1.5,7.5,9.1,13.8,16.7,11.3c-3.5,5.9-9.1,4.6-14.8,4.7c2,5.2,8.6,6.2,13.3,7.3c1.2,0.2,2.1,0.6,2.8,1.6
		c1.7,2.8,3.4,5.7,5.3,8.9c-15.2,5.7-33.7,1.1-45.6-9.4c2.7-0.7,17.4-4.4,10.3-7.8c-6.6-1.9-13.3-2.2-17.7-8.3
		c6.4-0.5,13.8,0.4,17.8-5.5c-5.3-1.9-9.7-5-12-10.4c8.1,1.4,15.6,1.3,21.7-4.7c13.9-11.5,24-26.6,37.5-38.5
		c12.8-10.7,31.2-17.8,47.2-10.3c12.9,5.5,24.2,15.2,28.1,29.1c5.1,15.7,8.1,49.8-1.9,63.5c-3.6,4.4-9.4,8.1-15.3,6.4
		C276.3,337.7,274,337.3,271.7,336.8z"/>
	<path class="st0" d="M239,291.4c-0.2,6.6-10,6.4-10.3-0.1C228.8,284.6,238.8,284.7,239,291.4z"/>
	<path class="st0" d="M210,309.7c0.3,8.4,1.5,16.3,6.8,23.6c-2.4,0-5.2,1.8-5.9-1.1C208.6,325,207.2,317,210,309.7z"/>
	<path class="st0" d="M473.2,216.9c-0.7,5.3-4,7.6-8.6,8.5c-8.6,1.5-16.3-3.9-24.5-5.5c-36.1-7.6-55.3,43.5-38.9,70.5
		c-0.2-3.6-1.9-6.3-1.7-9.9c5.8,8.3,13.8,18.2,25.2,15.9c-1.9,2-3.9,3.7-6.7,4.1c-39.5,4.9-36.6-67.4-19.2-88.1
		c13-15.8,37-16.7,53.6-6.3C459.1,210.1,465.5,214.5,473.2,216.9z"/>
	<path class="st0" d="M493.3,238.7c2.5,1,4.5,0.4,6.9-0.2c-3.1,15.1-18.9,22.1-31.9,28.3c-6.8-26,10.2-18.2,10.1-32.6
		c-4.5,2.3-10.8,6.4-15.7,3.2c8.2-4.2,13.2-10,11.9-20c6.4,1.4,12.2-1.1,15.2-7.1c5,3.3,3.5,10.3,2.6,15.7c2.4,0.3,4-1.8,6.2-3.1
		C500,228.9,496.3,233.8,493.3,238.7z"/>
	<path class="st0" d="M406,242.2c20.3-28.4,58.5-7,58.6,25.3c0.1,0.9-0.1,1.6-0.9,2.1c-4,2.6-7.9,5.2-11.9,7.8
		c-0.2,0.1-0.5,0.1-1.1,0.1c0.4-8.8-1.1-17.2-5.6-25c-6.8,2.4-15.4-2-12-10.7C424.3,238.3,415.5,238.1,406,242.2z"/>
	<path class="st0" d="M415.2,250.3c-0.1,5.3-9,5.4-9-0.1C406.6,244.7,414.9,244.9,415.2,250.3z"/>
	<path class="st0" d="M394.4,367.2c-8.3,14.3-27.4,14.4-40.5,7.2c5.3-1.1,10.3-3.3,15.7-1.7c2.7,0.8,5.5,0.4,8.3-0.3
		c5.5-1.1,5.4-5.5,8.7-5.2C389,367.2,391.5,367.2,394.4,367.2z"/>
	<path class="st0" d="M372.1,369.4c2.7-2,5-4.4,8.7-2.6C379.7,369.4,375.9,370.6,372.1,369.4z"/>
	<path class="st0" d="M146.7,178.1c32-20.7,85.5-49.9,120.4-21.5c6.1,4.8,8.1,13.5,3.8,20.2c-11.1,16.5-32,23.4-50.5,27.7
		C193.5,210.2,163.9,199.5,146.7,178.1z"/>
	<path class="st0" d="M386,159.4c-77-1.8-47.9-64.3,25.5-56.5c6.9,0.5,13.7,1.1,20.5,1.7c2.2,0.2,2.2,0.2,2.5,2.4
		c1.3,8.8,0.7,17.4-1.6,26C428.3,153.2,402.8,158.2,386,159.4z"/>
	<path class="st0" d="M247.3,642.4c0.9,1.6,0.9,2.6-0.5,3.5C245.7,644.6,245.9,643.7,247.3,642.4z"/>
	<path class="st0" d="M233.4,632.2c0.7,1.3,0.2,1.9-1,2.4C231.9,633.3,232.1,632.6,233.4,632.2z"/>
	<path class="st0" d="M223.7,623.4c0.3-0.5,0.6-1.1,1.1-1.9C225.5,622.9,225.2,623.5,223.7,623.4z"/>
</g>
</svg>
