<?xml version="1.0" encoding="utf-8"?>
<!-- Generator: Adobe Illustrator 26.0.0, SVG Export Plug-In . SVG Version: 6.00 Build 0)  -->
<svg version="1.1" id="Capa_1" xmlns="http://www.w3.org/2000/svg" xmlns:xlink="http://www.w3.org/1999/xlink" x="0px" y="0px"
	 viewBox="0 0 595.3 855.7" style="enable-background:new 0 0 595.3 855.7;" xml:space="preserve">
<style type="text/css">
	.st0{fill:#FFFFFF;}
</style>
<g>
	<path d="M583.9,277.4c-3.7,0.5-7.4,0.8-11.7,0c12-8.6,18.4-20.1,20.8-34.2c-7.2,4.8-15.1,6.6-23.6,7c7.7-9.7,12.6-21.4,10.9-34.1
		c-10.1,4.5-19.7,10.5-31.1,8.4c6.9-7.2,9.5-15.5,10.8-24.8c-7.9,4.4-14.4,8.9-23.5,9.7c8.2-11.8,8.6-24.2,8.1-29.4
		c-4.6,10-13.4,14.7-24.2,13c-10.6-2.4-15.9-14.1-19.1-23.5c-1.1-3.7-1.9-7.4-1.7-11.3c1.2-26.3,0-52.8-2.8-79
		c-1.7-10.6-12.8-90.8-29.3-78C461.2,7,457.2,15.8,448.6,18c0.1-6.3-2.7-21.1-11.3-13.1c-3.7,3.8-6.6,7.9-10.7,11.2
		c0-2.7,1.4-5.8-1.2-7.3c-1.9-0.9-3.2,0.4-4.5,1.6c-13.2,12.6-28.6,22.2-44.6,30.7c-1.1,0.6-2.6,0.7-3.8,0.7
		c-27.7-1.7-55.8,5.1-77.7,22.1c-15.1,1.3-30.3,1.6-45,5.8c-1.6,0.5-2.5-0.1-3.5-1.1c-13-12.7-32.9-14.4-50-10.8
		c-4.1,0.9-7.6,0.3-11.6-1.1c-23.2-7.8-46.9-16.7-71.5-18c1.3,2.4,2.5,4.7,4,7.5c-8-0.9-15-3.5-22.5,0.7C92.2,48.3,92,49,94,51
		c2.7,2.4,5.4,4.5,6.5,8.4c-5.9-0.8-11-3.3-17-1.6c10.1,19.7,10.1,42,15.4,63.1c2.7,18.8,13.4,35.7,12.8,54.9
		c-0.1,9-2.2,17.3-7.7,24.5c-3.3,3.6-4.1,10.3-10,9.9c-7-0.1-15.3-1.8-17.6-9.5c-0.4-1.1-1-2.1-1.7-3.5
		c-4.2,12.3,4.1,23.7,13.8,30.4c-11.5,5.7-23.4-2.3-31.5-10.1c-0.2,0.1-0.4,0.2-0.6,0.3c0.5,14.2,5.9,28.2,16,38.4
		c-11.8,0.1-20.9-7.3-29.9-14c1.5,15.2,10.6,25.2,23.5,31.9c-12.2,1.6-22.7-0.1-32.9-7.1c-1,18.7,14.8,33,30.4,40.3
		c-0.1,0.2-0.1,0.4-0.2,0.6c-10.8,0-21.8-3.2-30.4-9.8c-3.1,2.7-1.4,6.6-0.6,9.9c8.3,24.7,28.2,39.3,53.1,45.4
		c-13.2,5-26.7-0.8-39.9-3.4c9.3,11.9,22,20.8,35,28.3c1.6,0.9,2.6,1.9,2.4,4c-0.5,4.8,1.1,9.1,2.3,13.8c-4.5-0.7-8.8-1.7-12.5,1.4
		c-6.7,5.5-5.3,12.9-2.4,20.2c-9.1,0.4-16.1,10.7-11.7,19.2C17.9,457.4,1.2,501.8,6.7,545.4c-7.7,1.6-7.4,8.3-5.6,14.5
		c1.4,5.1,3.4,13.9,10.1,13.6c0.7-0.1,1.5,0.1,2.3,0.2c18.8,59.1,68.8,91.1,124.6,52.5c1.7,10.5,5.5,20.6,4.9,31.4
		c-0.1,1.5,0.3,2.5,1.9,3.4c-1.5,1.9-2.8,3.7-4.4,5.6c3.2-0.5,3.7-3.5,5.8-5.6c-0.1,26.7,8.6,52.1,9.9,78.7
		c1.6,14.7,3.2,29.4,4.8,44c0.6,6-2.1,11.5-5.5,16.3c-2.8,4.1-5.9,8.1-8.5,12.3c-8,11.4-4.8,33.3,11.7,34.4c0.8,0,1.7,0.5,2.3,1
		c3.4,3.2,7.6,4.7,12.2,5.4c6.2,0.9,12.3,0.1,18.3-0.6c2.1-0.2,3.9-0.1,5.8,1c7.7,5,16.2,1.1,24-1.7c7.6-3,15.8-2.4,23.8-3.1
		c7.5,0,10.9-6.5,14-12.2c1.1,0.6,1.2,2.1,1.9,3.1c6.9,13.6,18.5,12.1,31.3,13.7c10.8,2.3,21.9,3.8,32.7,0.8
		c2.4-0.6,4.9-0.9,7.4-1.1c34.5-0.6,45.5-30.3,35.5-59.8c-7.4-24.2-27.4-40.1-45.3-56.5c-15.2-13.4-17.1-36.4-14-55.1
		c1.7,2,0.4,4.8,3.1,5.8c-2.2-6.7-2.4-12.3-0.6-16.4c12.7,10.1,25.9,19.6,41.3,25.1c15.2,4.9,30.4,10.7,46.4,12.1
		c13.2,0.7,24.8,6.3,36.4,11.8c0.1-0.2,0.3-0.3,0.4-0.5c-0.9-2.3-1.9-4.6-2.9-7.1c8.2-0.6,16-0.8,24.2-1.5
		c40.1-2.6,64.1-36.9,55.9-75.8c-4.4-30.1-42.3-51.6-69.2-35.5c-21.3,15.3,10.8,37.4-9,50.9c-12.2,7.8-46.4,8.5-59.7,2.6
		c2.9-2.9,5.8-5.5,5.7-10.2c-13.7,9.2-31.4,1.5-44.5-5.3c-4.5-3-14.9-8.6-14.4-14.8c0.7-7.8-0.4-15.8,2.3-23.3c1-2,0.9-4.1-0.4-6
		c-1.7-3.2-0.8-7.2-1.2-10.7c-0.1-1.5,0.2-2.8,2.1-3.2c1.5-0.3,2.2-1.4,2.1-3c0.3-28.9-7.1-45.3,16-68.8c4.4,3.5,9.4,5.8,14.6,7.4
		c0.6,0.2,1.2,0.7,1.6,1.2c2.2,2.7,5.2,4.2,8.2,5.8c1.8,1,3.7,2,5.3,3.3c15.9,13.4,39.9,14.7,57,2.7c23.4-16.7,27.3-56.3-4.1-66.2
		c-0.5-5.6-0.9-10.9-1.4-16.4c19.9-6.3,40.1-12,60.1-18.2c5.7-2,11.3,0.7,16.6,2.8c11.5,6,6.7,4.4,17.6-1.4c2.3-1.5,4.9,0.9,3.2,3.1
		c-2.1,4.9-7,10.4-3.2,15.7c4.7,6.3,12.4,0.8,18.5,0.4c4.5-1.9,5.9-7.4,2.6-11.3c-2.7-3.1-6.6-5.3-9.4-8.4c-1.7-2-1.3-3.2,1.2-3.6
		c7-1.1,14-2,21.1-2.9c1.3-0.2,2.5,0.1,3.3,1.6c-2,3.6-4.5,7.3-3.9,11.7c0.4,5.4,4,8.2,9.2,7.1c2.5-0.5,4.8-0.7,7.4-0.2
		c7.2,1.5,8.5-8.7,4.1-12.5c-2.5-3-6.6-4.1-8.3-7.9c3.1-0.5,6-0.1,9.1-0.1c2.5,0.1,2.5,0.1,3.3-2.2c0.9-2.6,1.6-5.4,3.5-7.5
		c4.4-4.7-2.4-8,1.4-14.2c4.2-7.9-1.5-17-8.6-21c-1.3-0.7-2.6-1.7-2.7-3.2c-1-6.2-10.4-4.8-13-10.4c-3.6,1.8-6,4.1-9.8,5
		c1-2.1,2.1-3.8,2.7-5.7c1.3-3.9-2-7.5-6-6.5c-4,1.3-7.6,3.6-11.3,5.5c-9.1,4.3-7.3,10.6,1.8,12.9c-3.7,3.2-16.2,6.6-19.8,5.4
		c2.4-2.4,4.3-5.1,2.9-8.4c-2.1-5.5-13.1-2.1-17.8-4.7c24.1-8.1,68.1-31.1,80.8-45.4c-6.8-1.4-13.7-2.4-20.2-4.7
		c15.7-9.1,32.3-21.6,35.3-41C591.2,276.2,587.6,277,583.9,277.4z M502,379.5c-0.1,0.2-0.2,0.4-0.3,0.6c-1.8-0.5-3.6-1-5.4-1.5
		c-1.5-0.5-4.2-1.7-4.6,0.7c-1.1,10.4-13.5,10.7-10.8,17.3c-28.3,7.9-56.6,16.9-85.2,23.1c-4.3-0.5-8.2,0.6-11.6,3.2
		c-2.2,1.6-7.6,3.6-9.9,1.9c-5-2.6-10.2-4.9-15.9-5.8c-0.1,0-0.2-0.3-0.6-0.7c16.3-4,32.7-7.5,48.9-11.5
		c31.2-8.3,58.8-26.2,88.5-38.5c0.2,0.3,0.4,0.5,0.4,0.6C493.5,374.1,498.4,377,502,379.5z"/>
	<path class="st0" d="M452.7,187.1c-4.8-4-9.5-1.8-15-0.8c-1.8-5.5,2.1-10.1,4.2-15.1c-2.5-1.9-10-0.1-13.8-0.2c0.9-3.3,2-6,4.1-8.3
		c0.7-0.5,1.8-1.5,1.6-2.4c-0.2-0.4-0.9-0.8-1.4-0.8c-6.2,0.1-11.7,2.1-17.7,3.3c1.6-2.4,3.5-3.7,5.7-4.8c2-0.8,2.1-2.7-0.2-2.9
		c-3.7-0.6-6.5-1-10.3-1.5c1.7-1.3,2.8-2.2,4-3.1c2.1-1.6,2.3-2.2,0.3-4c-2.5-2.3-5.3-4.4-8-6.5c-6.7-5.6-13.1-11.6-21.8-14.1
		c-0.7-0.3-1-0.2-1.4-1.1c17-3.7,32.3-12.1,44.2-24.7c28.7,26.6,54,56.5,78.2,87.2c2.7,3.3,5.6,6.3,9.5,8.2
		c7.8,3.7,16.4,1.3,24.1-1.7c-2.3,8.2-6.8,14.4-13.4,19.2c4.5,2.3,14.2,0.8,27.8-4.3c-1.7,7.8-7.9,13.1-14.3,17.6
		c11,6.1,23.7,3.2,34.3-1.9c1-0.3,1.4-1.1,2.5-0.6c-1.5,12.7-8.6,23.1-18.3,31.4c10,0.3,19.3-1,29.2-4.1
		c-4.7,12.5-12.5,22.2-25.2,26.4c7.6,6.8,19,3.8,28.3,3.2c-8.2,18.2-24.5,30.7-43.6,35c7.8,3.7,15.9,5.7,24.7,7.9
		c-39.5,29.5-89,39.1-131.4,63.1c-50.3,25.8-109.1,29-164.7,30c-1.1-2.8-1.2-6.4-4.9-6.8c-1-0.2-1.7-1.5-2.4-2.3
		c-2.5-2.7-4.9-2.7-7.6-0.1c-11.7-3.5-22.9-0.7-34,3.3c-2.8,1-5.4,1.3-8.4,0.8c-30.4-4.5-60.1-12.5-89-22.8c-1.6-0.5-2.8-1.4-4-2.7
		c-4.2-4.9-8.7-9.5-14.2-12.9c-6.6-4.4-14.7-5.3-21.9-1.7c-1,0.4-1.8,0.6-2.7,0.1c-7.1-4.4-15-7.6-21.6-12.7
		c9.9,0.4,19.8,1.4,28.2-4.8c1.3-0.5,1.7-2.1,1.5-3.2c-0.1-0.5-1.1-1-1.7-1c-25.4-2.2-49.9-19.4-56.7-44.6
		c12.6,4.9,29.3,11.9,40.9,1.2c-18-3.4-33.4-14.1-39.2-32c14.1,5.2,28.3,5.9,41.7-0.2c-11.9-4-24.4-9-29.7-21.2
		c1.5-0.1,2.3,0.8,3.2,1.3c8.7,4.8,21.2,9.5,29.6,1.9c-6.2-2.2-11-5.8-14.1-11.6c-2.9-5.4-5.8-11.2-6.5-17.4
		c7,4.3,14.2,7.2,22.5,5.8c4.1-1,9.4-2,9.7-7.4c-6.3-3.1-11.6-7.4-14.8-14.6c14.4,5.4,23,5,29.8-10c3.2-5.5,6.7-10.7,11-15.4
		c7.9-9.7,14.5-20.7,21.1-31.4c-0.1-0.1-0.3-0.3-0.4-0.4c-1.7,1.6-3.3,3.1-5.5,5.2c0.7-8.1,1.3-15.5,2-23.3
		c11,6.5,22.9,7.7,35.3,7.5c-13.5,6.8-25.1,18.2-28.7,33.1c1.6-0.2,2-1.3,2.6-2.2c11-15.1,28.9-28.4,48.5-23.6
		c2.6,0.7,6,1.2,6.9-1.8c0.8-1.9,0.5-3.9-1.3-5.1c-2.2-1.5-4.7-1.9-7.1-3.2c24-5,49.6-15.4,61.3-38.5c3.3-4.7,24.7-5.3,30.8-4.7
		c1.5,0.1,2.5,0.4,3.1,2c10.3,24.4,40.4,26,63.2,27.7c-3.9,2.4-7.3,4.2-9.7,8.1c-3.1,3.4,0.4,6.9,4.5,5.6c11.7-8,23-10.9,37.3-7.3
		c-31,4.9-57.8,29.6-65.3,60.2c-5.8,21-7.6,47.9,9.7,64.1c1,1,2.3,1.3,3.7,1.1c29.1-3.9,57.6-10,85-20.8c10.8-5,21.3-10.5,32.8-13.8
		c3.2-1,6.5-1.7,9.7-2.6c0.7-0.2,1.8-0.7,1.8-1.1c-0.9-4.5-11-5.7-14.9-5.5c-0.6-2.3,0.4-4.2,1.2-6c1.4-4.2,4-6.7,7.9-8.9
		c-2.8-2.1-6-1-9.1-2.2C448.5,194.1,450.6,190.7,452.7,187.1z M123.4,236.2c-3.9,3.8-8.3,7-10.3,12.3c-1.3,3.7-0.1,5.1,3.7,4.6
		c14.1-3.1,27.5,0.6,40.5,6.2c7.6,2.2,15.3,4.1,22.9,6.2c-9.2,2.9-19,3.7-26.4,10.3c12.9-4.6,26.7-10,40.7-7.4
		c9.3,1.6,19.9,4,28.8-0.4c14.8-8.5,10.7-27.9,9.8-42.1c-2.9-31.6-27.6-81.9-66-63.9c0,0.2,0.1,0.5,0.1,0.7c2.6,1.5,5.7,0.8,8.3,2.2
		c-6.1,2.3-12.7,2.5-18.5,5.6c-1.4,0.7-3.4,1.5-3.5,3.3c0.8,1,1.9,1.1,3.5,1.7c-5.2,2.1-9.7,3.7-14,7.2c-4,3.3-3.3,4.9,2.1,4.9
		c-3.8,3.4-16.1,8-16.9,12.4c3.6,1.6,7-0.7,10.8,0.3c-5.3,5.4-12.1,8.6-19.3,10.5c-3.4,0.2-2.2,2.6,0.1,3.4
		c3.9,1.5,7.2,1.6,11.4,2.8c-2,2.8-29.2,13.2-21.9,16.3C114,234.5,119.2,233.3,123.4,236.2z M239.3,314.9
		c8.8,11.4,6.7,27.1,13.5,39.5c11.4,20.8,44.5,12.7,53.7-6.3c9.4-16.2,15.4-35.8,30-48.3c4.5-2.8,8.9-5.7,12.7-9.4
		c1.1-1,2.1-1.2,3.4-0.6c17.6,6.3,32.2,18.3,45.9,30.7c-10.8-15.9-28-26.4-46.6-32.6c2.9-3.8,4.4-4.7,8.9-5.2
		c-1.9-3.3-6.7-5-10.2-3.9c0.1,2.2,0.9,4.4-0.5,6.3c-1,1.8-1.2,1.9-3.2,1.4c-1.6-0.4-3.2-0.7-4.8-1c0,0.2-0.1,0.3-0.1,0.5
		c1.8,0.7,3.6,1.4,5.9,2.4c-20.4,18.5-51.5,20.4-75.3,7.7c-9-4.5-7.7-17.7-6.6-25.6c4.3-3.4,6.5-7.2,11.2-9.2
		c2.6-0.9,7.2-3.1,3.9-6.1c-11.9-10.9-39.9,2.7-27.3,8.4c3.9,0.8,6.4,3.9,9.6,6.1c-0.6,6.2-0.7,12.6,0.3,18.9
		c0.4,2.6-0.4,4.7-2.3,6.4c-11.7,11-31.2,14.7-44.9,5.4c-1.5-1-3-2.1-3.3-4.1c-1.2-5.5-12.9,7.7-5.3,5.5c3.8-2.4,6.7,0.8,10,2.4
		c3.6,1.8,7.5,3,11.5,3.5c2.4,0.3,4.1,1.3,4.6,3.9C235,314.5,235.7,317.1,239.3,314.9z M341.8,275.6c29.6,0.1,58.9,6,85.6,18.8
		C401,278.6,372.4,272.1,341.8,275.6z M331.2,269.1c23.4-7.6,47.1-13.2,71.9-12.5C377.8,253.1,354,258.3,331.2,269.1z M135.4,323.1
		c19.5-18.9,42-33.5,67.9-41.8C183,285,151.1,301.7,135.4,323.1z M164.7,340.1c11.5-16.3,23.8-31.9,38-45.9
		C186.9,307,173.5,321.7,164.7,340.1z"/>
	<path class="st0" d="M163.1,515.9c2.6-0.9,5.1-1.8,8-2.9c2,6.3-1.2,25.2,9.1,23.2c3.3-0.6,6.6-1.4,9.7-2.5c9-3.1,17.9-6.4,26.7-9.7
		c3.3-1.2,4.5-3.1,4.1-7c-0.7-6.4-1.4-12.4-2.5-18.8c0.9-0.4,1.7-0.7,2.8-1.2c0.8,2.9,1.5,5.4,2.2,8.3c15.3-4.3,29.6-9.1,44.7-13.5
		c0.1,0.2,0.2,0.3,0.3,0.5c-7.5,7-11.7,19.1-1.8,26.1c6.7,4.9,15.2,5.8,23.1,7.3c15.2,2.2,12.9,24.1,0.9,30.4
		c-26.6,16.1-59-3.8-86.7,9.2c-15,5.7-25,18.4-35.9,29.5c-17.1,17.6-57,47.3-82.2,42.9c55.1-4.6,73.2-53.2,114.6-77.2
		c25.2-13.1,54.3,2.6,80.8-4.3c11.6-2.3,20.5-11,15.8-24.2c-2.5,8.8-9.9,11.4-17.2,13.9c-13.2,4.4-27.1,0.7-40.5-0.2
		c-17.4-1.9-36,0-50.1,11.1c-39.3,30.2-84,95.6-139.5,61.5c-11.8-7.7-22.7-17.9-28-31.1c-23.9-50-16.4-120.4,37.5-147.2
		c1-0.5,1.8-0.8,3-0.4c9,3.7,16.7-0.4,21.3-8.5c10.5,3.5,21.5,4.4,31.2-1.7c1.3-0.8,2.3-0.8,3.7-0.5c3.5,0.6,7,1,10.6,0.7
		c2,15.3,19.6,16.5,28.5,7.9c0.9-0.9,1.7-0.8,2.8-0.4c8.1,3.5,16.8,6.5,25.6,4c7.3-1.7,11.8-7.9,16.9-12.9
		c13.1-12.2,35.3-21.3,53.2-18.7c9,1.7,3.2,9.5-0.2,13.9c-3.1,3.8-6.4,7.4-9.7,11c-10.9,12.5,4.6,18.8,13.7,23.7
		c-15.2,4.2-29.8,8.3-44.6,12.4c0.1,1.7,0.2,3.2,0.3,5c-0.9,0.2-1.7,0.4-2.5,0.6c-1.9-2.9-2.1-6.4-3.6-9.5
		c-3.2-7.6-4.1-7.6-11.5-6.4c-9.7,1.5-19,4.5-28.3,7.4c-2.9,0.9-4.5,2.9-4.3,6c0.4,4.8,1.5,9.4,2.5,14.1c-0.6,0.7-1.2,1.3-1.8,1.9
		c-5.9,0.7-11.6,2.7-17.4,4.1l0.1,0c-2,0.5-4.3,0.4-5.9,2.1c-4.6,0.9-9,1.8-13.7,2.8c-0.9-2.5-1.6-4.8-2.4-7
		c-2.1-7.5-13.3-2.9-18.1-0.6c-6.4,2.6-2.2,8.7-2.1,13.5c-4,2.3-7.8,2.7-12.1,3.2c-4.4-16.7-13.6-10.5-25.3-5.6
		c-4.8,2.1-5.2,2.9-4.1,8.2c1,4.5,2,8.9,3,13.4c0.6,2.9,0.5,2.9-2.2,3.9c-4.8,2.2-9.1,2.8-14.4,3.9c-0.1-3.9-2.8-6.9-2.1-10.7
		c0-0.1-0.1-0.4-0.2-0.4c-1.5-0.5-1.2-2-1.8-3.1c-0.8-1.5-1.4-3.1-2.2-4.7c-2.6-5.3-9.1-2.8-13.4-1.3c-3.2,1.3-3.8,2.8-2.9,6.2
		c0.8,3.2,2,6.4,2.7,9.7c3.2,14.3,6.4,28.6,9.6,42.9c0.7,3,1.6,3.9,4.6,4c3.3,0.1,6.4-0.9,9.4-2.3c3.1-1.4,3.8-2.3,3.4-5.8
		c-0.5-5-1.6-10-2.1-15c4.1-2.2,8.6-3,12.9-4.9l-0.1,0.1c0.8,0,1.7,0,2.6,0c1.1,4,1.3,8.1,2.2,12.2c0.6,3.3,1.5,4,4.9,3.7
		c6.1-0.5,11.9-1.9,17.4-4.4c8.4-2.8,4.2-12.2,4.1-18.8c-0.1-1.3-0.3-2.5,1.1-3.2c0,0-0.1,0.1-0.1,0.1c2.7-0.8,5.3-2,8-2.5
		c1.6-0.7,2.1,0.2,2.2,1.5c0.3,4.1,0.6,8.2,1,12.3c0.3,3.7,1.8,5,5.5,4.3c4.7-0.8,9.3-2.4,13.6-4.6c2.3-1.2,3.7-2.9,3.6-5.7
		c-0.2-4-0.2-8-0.6-12c-0.3-3.6-1-3.8,2.9-4.9c1.4-1,3.2-1,4.8-1.4c3.5-1.1,6.8-2.8,10.4-3.5C156,517.9,159.3,516.3,163.1,515.9z
		 M148.8,471.9c0-3.3-2.7-6.1-6.1-6c-1.8,0.1-3.1-0.5-4.5-1.4c-4.1-2.7-8.2-5.4-12.5-7.6c-31.8-16-17.4-4.4-36.1-3
		c-5.1-0.3-14.2-1.8-17.5-5.8c-3.7-5.5-12.5-0.6-10.4,5.4c2.7,6.7,6.7,2.2,10.1,5.2c5.9,4.9,12.5,8.5,19.8,10.7
		c4.9,1.8,8.2-2.3,12.1-4.4c10.4-6.8,20.4,1.7,30.3,5.5c1.5,0.7,2.6,1.5,3.1,3.4C139.1,480.2,149,478.3,148.8,471.9z M126.3,586.3
		c9.1,2.6,21.9-22.9,25.9-29.9c0.8-1.7,1.7-3,3.5-3.9c5.3-2.5,2.9-11-2.9-10.7c-3.9,0-6.6,3-5.9,7.1c0.2,1.2,0.3,2.2-0.5,3.2
		c-3.7,4.9-7.4,9.8-11.1,14.7c-4.4,5.4-12.1,6-18.5,5.3c-8.7-1.3-16,14-18.9,20.8c-0.6,1.5-1.3,2.5-2.9,3.2c-5.7,2.1-4,10.9,2,11
		c3.2,0.2,5.8-1.9,6.4-5c0.2-1.1,0.3-2.4,1-3.1C110.4,592.4,116.2,585,126.3,586.3z M84.7,595.3c-0.4-5.8-4.8-8.9-10-10.2
		c-5.7-2.1-9.4,2.9-11.2,7.6C57.6,609.8,83.1,616.2,84.7,595.3z M99,574.6c0.1-2.8-1-5.2-3.3-6.2c-5.2-2.9-9.3-2.5-11.9,4.3
		C79.6,585,98.8,588,99,574.6z M120.3,601.5c-0.3-7.8-11.8-5.8-11.5,1.2C109.1,610.5,120.6,608.4,120.3,601.5z M55.6,518.3
		c0.1,0.2,0.1,0.3,0.2,0.5c2.1-0.6,4.3-1.2,6.4-1.8c0-0.2-0.1-0.3-0.1-0.5C59.9,517.1,57.8,517.7,55.6,518.3z"/>
	<path class="st0" d="M227.2,739.7c31.3,13,51.3-14.9,80.6-20c8.2,20.8,28.9,31.5,42.4,48.5c11.7,14.2,21.5,33.9,17.2,52.3
		c-1.9-9.1-6.2-17-15.3-20.8c-1.4-0.7-3.4-1.5-4.4,0.2c-0.1,0.7,0.9,2,1.8,2c11.7,3.5,16,16.7,15.3,27.8
		c-3.2,12.3-23.6,18-34.9,18.2c-0.6-10.1-0.2-21.7-7-29.9c-1.9-2-4.9-4.8-7.7-2.8c0.3,0.6,0.5,1.6,0.9,1.8c5.6,2.2,7.8,7,8.8,12.3
		c1,5,1.3,10.1,1.9,15.1c0,2.1-0.1,4.6-2.7,5c-16.8,4.9-25.2,0.8-41.3-2c-10.4-0.6-19-5.8-21.2-16.4c-0.8-3-0.9-6.2-1.4-9.4
		c-1.8-12.7-9.7-23.3-15.8-34.3C235.8,772.7,231.1,756.3,227.2,739.7z"/>
	<path class="st0" d="M192.2,847.8c-8.3,1.4-24.3,4.8-29.4-3.8c-5-8-6.4-18.9-0.2-26.7c0.5-0.7,1.1-1.4,1.4-2.2c0.3-1.1-1-2.2-2-1.5
		c-8.5,8.1-7.8,19.9-3.2,29.9c-13.5-0.3-16.5-19.2-10.2-28.6c3.4-5.7,7.5-10.9,11.3-16.3c10.3-14.6,0.3-45.8,0.3-63.7
		c14.6,10.7,33.7,10.2,49.3,2c2.5-1.3,5.3-2.1,8.1-2.8c2.4-0.6,3.4,0.3,3.8,2.7c4.3,23.4,13.6,44.9,25.6,65.3
		c7.2,12,13.4,40.9-7.7,41.4c-10-0.2-19,3.9-28.3,6.8c-18.7,5.6-24.8-19.1-15.8-31.7c1.6-1.7,1.1-4.3-1.5-3
		C186.1,825.3,187,837.4,192.2,847.8z"/>
	<path class="st0" d="M183.8,135.9c16.1-4,31.5-9.5,44.5-20.4c-37.2,21.5-108.5,37.4-109.7-25.6c-0.1-2.1,0.4-3.3,2.5-4.2
		c21.8-9.7,44-18.1,67.2-23.5c17-4.2,36.2-5.9,51.4,4.7c4.9,3.6,12.2,10.3,11.1,17c-0.1,4,6.6,0.8,8.9,0.8
		c9.1-1.5,18.3-2.3,27.5-1.4c2.4,0.2,2.7,0.1,3-2c3.6-18.4,22.3-26.9,38.5-31.9c38.7-11,80-2.2,117.7,8.7
		c-1.7,6.8-4.8,12.9-7.3,19.4c-0.5,1.3-1.3,2.4-3.1,2.2c0.9,2.2-0.1,3.7-1,5.3c-19.9,34.8-58.6,42.4-95.7,38.3
		c-18.7-2.1-42.3-7.3-49.4-27.2c-0.4-1.2-1.1-2-2.4-2.2c-11.5-2.7-23.3-0.6-34.7,2c-1.2,0.3-2.1,0.7-2.6,1.9
		c-11,25.7-40.7,34.9-66.3,38.6C184,136.3,183.9,136.1,183.8,135.9z M364.8,54.7c-16,0.1-32,4.2-45.8,12.3
		c-11.4,5.8-20.8,22.6-7.4,31.6c13.9,9.1,31.3,10,47.4,9.8c26.8-1.1,55.1-13.8,66.7-39.2C432.4,63,369.8,53.6,364.8,54.7z M204.5,70
		c-20.2,0.8-39.9,6.2-58,15.1c-3.9,1.9-7.5,4.3-11.1,6.6c-1.3,0.8-2.1,1.9-2,3.6c0.1,19.7,19.4,30.9,37.5,28.9
		c21.4-1.2,54.1-10.1,63.1-31.7C239.1,75.2,217.6,69.4,204.5,70z M297.6,102.9c22.3,28.3,97.8,22.2,119.1-4
		C381.6,120.5,332.8,127,297.6,102.9z"/>
	<path class="st0" d="M177.8,627.7c3.4,5.1,8.6,8.6,13.4,12.2c7.4,5.4,17.5,8.9,20.4,18.5c-1.8,0.4-1.8,0.4-3.3-0.5
		c-3.9,1.6-8.1,1-12.1,1.5c-2.1,0.1-4.2-0.2-6.3,0.5c-1.1,0.4-2.6-0.3-3.8-0.2c-1.9,0.2-3.4,1-5.4,0.8c-0.2-0.6-0.4-1.2-0.7-2.2
		c-1.2,3.4-3.6,2.4-5.8,2.1c-0.3-0.7-0.6-1.5-1.1-2.7c-0.3,1.1-0.5,1.7-0.7,2.3c-1.5,0.9-2.4,0.1-3.1-0.9c-0.9,0.4-1.6,1-2.3,0.9
		c-5.6-0.8-11.4-0.8-17-1.8c-2.7-0.5-3.1-0.8-3.2-3.5c-0.2-2.9,0-5.8-0.4-8.6c-5.1-35.3-5.9-15.8,17.5-41.2c1.6-1.6,3.2-2.1,5.3-1.9
		c17.3,1.4,34.4,4.8,51.6,6.9c7.3,0.1,4.6,23.3,31.8,24.3c3.4-0.4,34.4,1.9,31.1-2.6C263.5,631,234,636.9,228,611
		c19.7,1.6,38.5,2.5,58.3,2.6c1.1,19.2,2.5,38.5,1,57.7c-0.3,3.6-2.3,4.6-5.7,3.5c-2.3-0.1-5.6,2.6-5.9-1.8
		c-0.8,1.5-0.8,3.1-2.4,2.8c-2.9-1.2-8.9,2.7-9.8-1.3c-0.9,0.8-0.9,3.3-2.8,1.4c-1.7,0.3-3.3,1.8-4.9-0.2c-2.2,1.5-7,1.5-8.9,0.1
		c-2.3,0.8-4.4,1.5-6.7,0.2c-2.7,0-2.3,1.7-5.7-0.5c-1.6,2.4-3.8,0.6-5.7,0.5c-0.1-0.7-0.2-1.2-0.4-2.4c-1.1,2.4-2.5,2.3-4.2,1.8
		c-2.2-0.5-4.5-0.6-7.1-0.9c0.6-8.2,0.3-16.1-3.7-23.5c5.8,4.1,19.6,13.6,26.4,10.7c-7.8-2.8-15.4-6.5-20.9-13
		c10.2,0.6,19.9,1.6,29.6-1.6c0-0.2,0-0.4,0-0.6c-24.7-0.4-50.5-3.1-70.1-19.4C178.1,627.4,177.9,627.5,177.8,627.7z"/>
	<path class="st0" d="M361.3,473.2c-2.2-9.7-8.4-33.8,5.1-37.3c13.6-5.7,17.6,11.2,18.3,21.8c0.1,1.2,0,2.4,1.2,3.8
		c0.8-7.4-1.8-14.5-3.9-21.5c-5.4-11.5,8.1-24.8,18.7-15.5c3.1,2.8,5.6,6.1,7.5,9.8c3.3,6.8,7,13.5,8.4,21c1-1.5,1-1.5,0-6.9
		c1.6-0.4,3.1-0.9,5.1-1.5c9,37.3-28,75.7-65.7,64.7c-19.1-5.7-22-30-22-47.1c0.7-9.4,0.1-20.4,6.6-28c3.3-3.3,9.6-6.1,13.2-2
		c2.6,2.7,4.3,5.7,3.6,9.8C356,449.9,356.3,469.8,361.3,473.2z"/>
	<path class="st0" d="M439.2,650.5c7.9-8.9,4.6-17.2,1.3-27.1c-16.5-45.2,92.8-35,65.8,50.1c-5.7,15.5-19.8,23.9-34.6,29.2
		c-6.7,1.3-12.4-5.1-14.9-10.7C449,677.5,462.6,651.8,439.2,650.5z"/>
	<path class="st0" d="M495.7,167.3c-6.8-8.7-14.1-17.2-20.3-26.3c-5.1-11.3-10.3-22.5-15.3-33.8c-0.6-1.4-0.6-3.2-0.6-4.7
		c-0.4-16.4,4.2-46.7-3.3-60.3c-2.3-4-6.8-8.2-11.3-4.6c-4.9,3.6-9.6,7.7-14.2,11.7c-1.2,1.1-2.3,1.1-3.7,0.8
		c-14.6-3.2-29.1-5.8-44-7.6c13.2-8.6,26.6-16.4,38.6-26.5c-0.7,5.2-3.4,9.7-4.7,14.8c9.1-7.1,16.7-15.6,24.8-24.4
		c2.7,4.2,2.2,8.4,2.8,13.1c0.2,3.1,1.2,3.9,4.2,3.1c12-2,20.7-22.4,23.7-17.5c1.3,1.7,2.5,3.4,3.4,5.3c9,21.8,12.9,45.4,16.5,68.6
		c2.9,25.8,4.3,51.8,3.2,77.8c0,3.5,0.2,7,0.6,10.5C496,167.2,495.9,167.2,495.7,167.3z"/>
	<path class="st0" d="M335.4,255.4c-4.1,1.5-5.5,1.3-8.1-1.7c-17.8-22.4-10.7-55.1,1-78.8c13.3-23.8,55.3-55.9,78.7-27.9
		c1.3,1.7,3.2,3.3,4.1-0.1c0.5,0.5,0.9,1,1.6,1.7c-2.9,2-5.6,3.9-8.4,5.8c-1,0.6-3.1,1.2-2.4,2.7c0.7,1.5,1.9,0.3,2.9-0.1
		c3.9-1.7,7.5-0.4,12.1-0.5c-2.4,3.1-4.6,5-7,7.9c-0.4,0.5-0.2,1.3-0.3,2c0.6,0,1.3,0.3,1.9,0.1c6.1-1.6,11.3-3.8,17.7-4.8
		c-1.8,3.9-3.5,7.2-4.1,11.2c4.4,0.7,8.4-0.9,12.9-0.2c-1.6,3.7-3.1,7.2-3.1,11.3c0,9,8.5,0.4,14.3,3.5c-1.7,4.2-4.7,7.5-6.3,11.5
		c1.7,1.9,4,0.7,6.1,1.8c-2.5,4.2-5.1,8.6-5.3,13.7c0.2,5.2,5.1,0.2,13.1,4.5c-9.5,3.6-19.1,6.1-28.3,10.6c-5.1,2-9.4,5.7-15,6.5
		c13.5-7.1,4.8-9.4,14.5-14.8c4.3-2.6,10.5-4.4,11.8-9.8c-5.7,0.3-12.8,3.5-16.5-2.6c8.2-2.1,15.7-7.2,16.6-16.3
		c-8.3,7.5-18.4,5.3-26.4-1.4c-19.4-20.7-52.5-24.3-73.5-3.9c-14.6,13.6-19.3,35.2-15.6,54.3C325.6,248.2,329.4,252.8,335.4,255.4z"
		/>
	<path class="st0" d="M151.2,661.2c1.1,0.1,2.3,0.2,3.6,0.4c-0.1,3.1-2,5.3-3.4,7.8c2.2-0.9,2.5-1.4,4.8-7.2c0.7,0,1.5,0,2.5,0
		c0.4,2.4-1.1,4-2,6c1.7-0.6,1.7-0.6,3.8-5.8c0.9,0.1,1.9,0.2,3.3,0.4c-0.7,2.6-1.4,4.9-2.1,7.2c2.1-1.9,2.1-4.6,3.3-6.9
		c1,0,1.9,0,2.9,0c0.4,1.9,0.8,3.7,1.2,5.5c0.2,0,0.4-0.1,0.6-0.1c-0.1-1.6-0.2-3.3-0.4-5.2c1.2,0.1,2.1,0.2,2.8,0.2
		c1.3,2.1,0.5,4.6,2.6,6.8c-0.4-2.4-0.8-4.3-1.1-6.5c1.5,0,2.7,0,4,0c0.2,1.1,0.4,2.1,0.7,3.3c1.9-0.8-1.3-3.5,3.5-3.6
		c5.4-0.3,5.1-1.3,6.6,4.3c1.3-1.7-0.4-3.2,0.4-4.7c1.1-0.1,2.3-0.2,3.7-0.3c0.5,1.6,1,3.1,1.4,4.6c0.2,0,0.4-0.1,0.6-0.1
		c-0.2-1.4-0.4-2.8-0.6-4.3c4.9-2.2,6.2,0.3,8.1,4.6c0.7-2.2-1.1-3.4-1.1-5c3.5-1.5,4.5-1.2,7.2,2.2c-0.2-0.9-0.3-1.8-0.5-2.9
		c2.4-0.6,1.9,1.8,3,3c0.2-1,0.4-1.6,0.6-2.6c2,2.6,0.3,10.2,0.6,13.7c-0.6,3.6,1.2,2.3,1.3,5c0.9,17.2,4.2,34,7,50.9
		c-4.4,0.2-8.3,1.4-12,3.4c-14.5,7.8-33.8,8.8-46.8-2.5c-1.3-1.1-2-2.2-2.1-3.9c-0.6-9.9-2.4-19.6-5.3-29.1
		c-3-9.6-3.7-19.6-4.8-29.5C148.5,666.9,149.4,664.1,151.2,661.2z"/>
	<path class="st0" d="M270.3,678.7c2.2,5.8,2.2,5.8,4.6,6.9c-1.6-2.1-3.1-3.8-2.9-6.6c0.8-0.2,1.8-0.3,2.9-0.5
		c0.6,1.6,1.2,2.9,1.7,4.3c0.2-0.1,0.4-0.1,0.6-0.2c-0.2-1.3-0.5-2.6-0.8-4.1c1.5,0,2.8,0,4.3,0c0.8,2,0.9,4.6,3.3,5.9
		c-0.7-1.9-1.4-3.7-2.3-5.9c7.4-2,3.8,2.4,8.4,4.6c-0.7-1.5-1.5-2.9-2.5-4.9c2.9-0.3,5.4-0.2,7.9,0.6c1.3,0.8,0.8,2.6,1.9,3.8
		c0.1-1,0.2-2,0.3-3c1.4,0,1.4,0,3,4.3c0.2-1.5,0.3-2.6,0.5-3.9c1.3,0.3,2.4,0.6,3.5,0.8c-0.4,12.6,0.2,24.2,2.1,36.7
		c-26.7,4.4-49.9,32.9-78.1,20.1c-7.4-3-9.2-49-9.7-58.3c1.1,0.1,1.9,0.1,2.5,0.1c1.2,1.1,0,3,1.8,3.6c0-1.1,0-2.2,0-3.2
		c2.4-0.9,3.9-0.1,5.1,2.6c0.4-1.4,0.4-1.2,0.5-2.4c1.6,0.1,3,0.2,5,0.4c-0.4,1.7-0.8,3-1.2,4.6c2.2-0.9,1.5-3.1,2.8-4.6
		c0.8,0.1,1.8,0.1,2.9,0.2c0.1,2.4-2.4,2.9-3.3,5.1c5.1-1.8,4-7.3,10.6-4.8c-0.6,1.4-1.2,2.7-1.9,4.3c1.7-0.3,2.2-1.6,2.4-2.8
		c0.5-3.7,5.7-1.8,8.8-2.3c-0.1,1.4-0.3,2.7-0.4,4.4c1.8-1.1,1.2-3,1.9-4.6c0.8-0.1,1.6-0.3,3-0.5c-0.1,1.7-0.2,3.2-0.3,5
		c1.6-1.4,0.8-3.3,1.8-4.7c2.6-1.6,3.9,1.6,5.8,2.9c0.1-0.1,0.3-0.3,0.4-0.4c-0.6-0.9-1.2-1.7-2.1-3
		C267.1,679,268.6,678.9,270.3,678.7z"/>
	<path class="st0" d="M373.8,650.1c-1.7,0.9-5.9,3.3-2.5,4.8c9.7,3.3,19.5,5.5,29.8,5.8c8.1,0.2,16.1-0.4,23.9-2.8
		c5.2-1.5,9.9-5.2,15.5-5c9.2,0.2,12,8.9,11.1,16.8c-0.5,12.8,1.1,27.8,13.4,34.7c-12.9,3.8-26.8,3-40.4,3.3
		c1.3,1.6,2.2,2.8,3.4,4.4c-3.4-0.9-5.7-2.1-8.8-3.4c-11.1-5.7-24-3.2-35.6-7.5c-29.9-8.6-46.9-14.4-70.3-35.9
		c-1.3-1.1-0.9-2.2-0.6-3.4c3.3-10.6,6-21.2,8.4-32c15.1,13.4,32.1,21,52.4,19.6C373.6,649.7,373.7,649.9,373.8,650.1z M409.4,698.9
		c11.6-0.4,25.3-9.6,20.4-22.4c-1.8-5.4-9.7-16.9-16.2-14.6c-7.9,4.6,1.3,17.7-7.4,23.9C399.4,690.5,400.5,698.8,409.4,698.9z
		 M377.8,690.2c2.8-0.4,5.2-0.6,7.4-1.1c9.2-1.8,11.9-13.9,6.9-21c-4-7.6-23.3-16.4-24-2.5c-0.2,2.9-1.1,5.4-2.8,7.7
		C354.6,688,366.1,687.9,377.8,690.2z M351.1,661.7c0,0,0.1,0,0.1,0c-0.1-6.1-0.1-16.4-8.8-12.8c-9.5,5-10.2,18-7.5,27.2
		c1.1,4.4,6.3,4.4,9.5,2.4C350.5,674.8,352.1,668.4,351.1,661.7z"/>
	<path class="st0" d="M330.5,474.1c1.2,10.1,3.1,19.7,7.9,28.6c-9.8,14.5-18.9,30.9-16.4,49c0.2,4.5,0.4,9,0.7,13.5
		c0.1,1.5-0.5,2.4-1.9,2.7c-23.9,5.9-49.4,2.9-73.3-0.9c15.8-0.2,33.1,2.6,46.2-8.6c10.9-7.8,14.1-31.1-1.6-35
		c-7.8-2.2-22.4-1.4-23.5-12c-0.5-4.1,4.1-4.7,7-5.8c5.3-1.3,4.5-5.5,3.6-9.8c-0.3-2.3-0.3-2.6,1.8-3.6
		C296.8,484.4,313.5,478.5,330.5,474.1z"/>
	<path class="st0" d="M178,427.7c-0.3-5.1-2.2-9.8-4.6-14.8c11.2,2.2,21.9,4.4,32.8,6.6c-13.3,15.8-26.7,26.4-45.7,13.8
		c2.7-4.7,4-9.9,4.8-15.2c-1.2,0.9-1.5,2.2-1.9,3.4c-3.3,10.5-10.8,21-23.1,17.5c-11.1-2.9-8.1-17-2.8-24.2c0.8-1.4,2.2-2.4,1.8-4.1
		c-1.5,0-2.3,1-3,2.2c-1.7,2.8-3.4,5.6-4.8,8.5c-0.7,1.4-1.7,2.2-3.2,2.6c-18.3,3.1-35.3-11.8-41.1-28.4c-2.3-8.5-5.6-21.2,6.7-23.7
		c11.3-2.7,20.9,6.3,27.9,14c5.1,6.2,9.8,11.8,17.9,13.7c20.7,5.6,30.7,5.4,37.5,28.4C177.5,427.9,177.8,427.8,178,427.7z
		 M104.3,400.6c-0.1-5.6-5.4-12-11.5-11.7c-8.6,0.3-3.5,11.9,0.8,14.9C97.4,407.3,104.6,406.7,104.3,400.6z"/>
	<path class="st0" d="M182.8,60.3c-13.9,4.5-27.9,8.2-41.4,13.9c-1.7,0.7-3,0.6-4.6-0.2c-3.4-1.6-6.5-3.1-10.2-4.2
		c0.3,12.8,5.9,7.5-8.8,14.4c-5.8,2.2,1.9,28.3,4.4,33c1.1,20.4-3.4,41.4-4.3,62c-0.2,1.9-0.4,3.8-2.7,5.1c2.1-16.5-1.9-30-7.5-45.2
		c-2.8-10.8-5.3-21.6-7.6-32.4C97.5,91.3,96,76,89.9,61.6c6.1,0.4,11.3,2.6,17.1,4.2c-1.1-6.7-3.8-12.1-8.8-16.7
		c4.5-1,8.8,0.5,13.3,0.6c5.5,0.7,12.7,3.1,9.3-5.7c8.4,0.2,16.5,2.3,24.5,4.6C157.9,52.6,170.4,55.6,182.8,60.3z"/>
	<path class="st0" d="M458.7,423.3c1.7,0.1,1.5,1.8,2.3,2.8c0.8-0.3,1.5-0.6,2.2-0.9c0-0.9-0.1-1.8-0.1-2.8c1.3-0.5,2.7-1.1,4-1.7
		c0-0.1-0.1-0.2-0.1-0.3c-1.3,0.3-2.5,0.7-3.9,1c-1.1-1.5-1.5-3-1.4-4.9c4-1.5,7.8-3.3,12-3.9c3.8-1.3,7.3-2.8,11.3-3.3
		c0.5,1.5,0.9,2.8,1.4,4.1c-0.6,0.5-1,0.8-1.4,1.1c2.9,0.8,2.2,3.1,4.1,2c0.5-1-1.4-2.7,0.9-3.4c-2.5-0.5-2.2-2.4-2.8-4.1
		c2.6-1.6,5.8-1.2,8.4-2.5c-2.8,0.5-5.6,0.9-8.7,1.4c-0.6-1.9-1.1-3.6-1.7-5.4c3.4-1.4,6.2-2.7,9.8-3.2c3.6-1.2,7.2-2.7,11-3.3
		c8.8-2.6,6.8,1.8,16.5-5.4c-0.4,0-1.2,0.1-1.8,0.2c-0.4-4.4-1.1-5.8-4.9-8.5c14.5-2.2,26.8-10.1,39.7-16.4c3.4,1.7,6.4,3.2,9.5,4.7
		c1.4,0.6,2.4,1.4,2.7,3c1.2,5.2,8.3,5,11.5,13.1c1.5,3.1,1.8,6.4,0.2,9.4c-4.2,7.2,1.7,10.9-1.3,14.2c-1.4,2.1-2.2,3.9-5.2,3.4
		c-22-1.7-44.9,0.8-63.9,13c-4.6-4.9-15.8-9.2-22.3-7.4c-23.4,7.2-46.8,14.3-70.1,21.4c-2.9,0.9-3,0.8-3.8-2.7
		c1.1,1.3,1.9,1.3,3,0.9c-0.1-2.2,1.9-2.3,3.1-3.2l-0.1,0.1c3.7-1.2,7.4-2.3,11.1-3.5c0,0-0.1,0.1-0.1,0.1c2-0.1,5.9-2.6,7.1-0.5
		c0.2,0.4,1.1,0.3,2,0.5c-0.2-1.8,0.6-2.9,1.9-3.5c0,0-0.1,0.1-0.1,0.1c2.3-0.8,4.7-1.6,7-2.4l-0.1,0.1c1.4-0.4,2.8-0.8,4.2-1.2
		l-0.1,0.1c2.3-0.8,4.7-1.6,7-2.4L458.7,423.3z M538.4,398.8c-0.7,0.1-1.5,0.3-2.2,0.4c0.1,0.2,0.1,0.3,0.2,0.5
		c1.9-1.3,4.1-0.9,6.3-0.9c1.6-0.3,3.2-0.7,4.8-1c-0.6,5,0.5,9,6.2,9.3c3.2,0,5.9-2.1,6.9-5.4c1.2-2.7-1.2-4.9-3.9-6.8
		c-2.3-1.7-5.1-1.5-6.9,0.8c-1.1,1.4-2.3,1.8-3.9,1.9c-1.1,0.1-2.2,0.8-3.3,1.2C541.3,398.8,539.8,398.8,538.4,398.8z M514.2,408
		c-0.7,4.6,1.1,8.5,6,8.8c5.5,0.3,11.1-7.5,4.5-11.4c-6.8-5.3-6.6,0.8-10.9,1.9c-1.6,0.2-3.1,0.7-4.6,1.1c0,0.1,0,0.2,0.1,0.4
		C511,408.5,512.6,408.3,514.2,408z M540.3,385.5c2.2,0,2.2,0,3.2,1c5.6,6.2,16.6-2.6,10-8.5c-3.6-2.8-5.9-3.3-8.2-1.6
		c-1.5,2-3.4,3.8-3.4,6.4C541.9,384.1,541.5,385,540.3,385.5z M493.8,411.8c0,0.2,0.1,0.3,0.1,0.5c2.5-0.6,5.1-1.2,7.6-1.8
		c0-0.2-0.1-0.3-0.1-0.5C498.8,410.5,496.3,411.2,493.8,411.8z M511.1,404.1c-0.1-0.2-0.1-0.3-0.2-0.5c-2.1,0.4-4.2,0.8-6.2,1.2
		c0,0.2,0.1,0.3,0.1,0.5C506.8,404.9,508.9,404.5,511.1,404.1z M528.6,388.7c0.1,0.2,0.2,0.3,0.3,0.5c1.8-0.6,3.7-1.2,5.5-1.8
		c-0.1-0.2-0.1-0.3-0.2-0.5C532.4,387.6,530.5,388.2,528.6,388.7z M472.3,418.7c0,0.2,0.1,0.3,0.1,0.5c1.7-0.6,3.5-1.1,5.2-1.7
		c-0.1-0.2-0.1-0.3-0.2-0.5C475.8,417.6,474,418.2,472.3,418.7z M526.6,401.3c0-0.1-0.1-0.3-0.1-0.4c-1.1,0.2-2.1,0.4-3.2,0.6
		c0,0.1,0,0.3,0.1,0.4C524.5,401.7,525.5,401.5,526.6,401.3z M534,400.1c0-0.1,0-0.2,0-0.3c-0.6-0.1-1.1-0.2-1.7,0.1
		c0,0.1,0.1,0.2,0.1,0.3C532.9,400.2,533.4,400.1,534,400.1z"/>
	<path class="st0" d="M400.3,237.8c4-2.7,5.7-3.8,5.4-8.8c-0.8-12.6-6.4-23.8-17.4-30.7c1.2,16.7-26.6,10-17.5-4
		c-28.7-0.2-47,35.2-26.6,56.9c-5.3,2.8-12,0.7-14.9-4.8c-6-12.8-0.8-27.8,5.4-39.6c20-36.8,85.8-23.8,83.5,20.6
		c0.2,2-0.7,3.3-2.4,4.1C410.5,233.5,405.8,236.5,400.3,237.8z"/>
	<path class="st0" d="M319.9,591.2c0.8,1,0.5,1.7-0.5,2.1c-3.9,1.6-3,8.2,1.2,8.5c0.4,2.4,0.4,2.4-1.5,3.4
		c-42.6,14.8-104.2-0.1-148.4-6.4c0.6-2.5,2.1-2.4,4.1-2.1c4.2,0.1,5.4-3.9,4.2-7.4c0.9-1.7,2.3-1.7,3.8-1.5
		C228.1,593.1,275.1,605.5,319.9,591.2z M224.3,605c5.9,0.4,5.8-8.3,0.6-8.3C218.7,596.6,218.4,604.8,224.3,605z M252.7,600.2
		c-6.5-0.5-5.1,8.9,0.3,8.5C258.5,608.8,258.9,599.8,252.7,600.2z M282.6,605.3c0.3-6.2-8.5-5.1-8.6-0.3
		C273.8,610.4,282.9,610.7,282.6,605.3z M203.2,596.6c0.4-4.8-8.7-5.7-8.6-0.1C194.5,601.8,203.2,602.7,203.2,596.6z M297.6,600.2
		c-4.6-0.2-6.3,7.8-0.9,7.9C302,608.4,302.9,600.4,297.6,600.2z M307.1,600.9c-0.2,5.1,5.9,5.6,6.7,1
		C314.9,595.8,308,595.1,307.1,600.9z"/>
	<path class="st0" d="M288.4,613.4c9.8-0.9,19.5-1.5,29.1-5c0.3,4.3-0.9,8-0.8,12.2c1.3,12.1-4.3,23.6-6.4,35.4
		c-1,4.3-1.6,8.7-2.5,13c-0.5,2.3-0.8,4.7-2.6,6.5c-0.4,0.4-0.4,1.4-0.6,2.4c-3.8-1-4.6-1.5-5.1-5.4c-0.2,0-0.4,0.1-0.6,0.1
		c0.1,1.1,0.1,2.2,0.2,3.4c-1.9,0.6-3.4-0.1-4.5-1.7c-1.8,1.7-3.7,1.1-5.7,0.6C290.9,654.5,289.2,634.2,288.4,613.4z"/>
	<path class="st0" d="M379.4,525.2c28.8,1.1,58.6-26.6,45.8-56c-0.5-1.2-0.9-2.3-0.3-3.6c14.9,3.2,23.7,20.3,19,34.8
		C438.3,527.8,401.6,542.2,379.4,525.2z"/>
	<path class="st0" d="M187.2,581.3c3.6-4.1,8.4-6.2,12.6-9.5c1.3-0.9,2.8-0.9,4.4-0.5c18.1,4.9,36.4,8.4,55,10.5
		c3.6,0.4,7.3,0.6,10.9,1c2.3,0.2,2.5,0.4,2.2,2.7c-0.9,2.8-1,8.2-5.1,7.6C240.2,590.9,213.9,585.4,187.2,581.3z"/>
	<path class="st0" d="M211.7,492.4c2.4,0.9,2.9,5.2,1.7,7.3c-2.1-1.2-9,2.3-11.7,2.8c-2.6,1.2-6.1,1.1-7.9,3.5
		c-3.6-0.8-6.9,1.2-10.1,2.6c2-0.2,4-0.5,5.1-2.3c2.4,1.2,10.7-2.3,12.9-3.9c2.6,0.1,5-0.5,7-2.3c1.6-0.2,3.2-0.3,4.8-0.5
		c2.3-2.2,2.7,13.5,2.4,14.8c-0.3,1.9-2.2,3.4-3.9,4.2c-8.1,3.6-16.5,6.2-25.3,7.2c-3.7,0.4-5-0.5-5.6-4.1c-0.6-4.1-1.8-7.6-1.2-12
		c2.1,1.8,1.5,3.8,1.9,5.4c0.4,1.6,0.6,3.3,0.8,5c0.2,0,0.4,0,0.6,0c0.3-5-1-10.1-1.4-15.1c-0.9-3.8,1.3-3.1,3.8-4.7
		c4.6-0.7,8.8-2.6,13.2-4c0,0-0.1,0.1-0.1,0.1c3.1-1,6.2-2,9.3-2.9l-0.1,0.1c1.4-0.4,2.8-0.8,4.2-1.2L211.7,492.4z M190.3,520
		c-0.1-2.5-4.4-2.5-4.4,0.1C185.9,523,190.3,522.7,190.3,520z M212.3,513.5c0-2.6-4.6-2.2-4.3,0.4
		C208.3,516.6,212.5,516.1,212.3,513.5z"/>
	<path class="st0" d="M274.2,425.9c20.1,0.2,39.6-1.1,59.5-3.7c-13.1,11.4-29,23.7-47.6,19.9C278.6,440.6,276.4,432.7,274.2,425.9z"
		/>
	<path class="st0" d="M262,407.1c5.1-2,7.9,5.1,8.7,8.9c1.7,8.4,3.4,17.5,9.3,24.1c1.5,1.6,3.3,2.5,5.5,2.9
		c20.6,4,38.7-6.5,55.3-17.3c11.9-8.3,20.6-6.7,32.9,0.3c-5.3,2.8-11.3,3.5-17,5.6c-1.1,0.3-2,0.3-3-0.3c-3.1-2.1-6.3-1.8-9.6-0.4
		c-2.5,1.1-4.6,2.7-6.3,4.8c-0.8,1-1.8,1.6-3.1,1.9c-15.6,4.1-31.1,8.2-46.7,12.5c-1.7,0.5-2.9,0.2-4.2-0.9
		c-4.8-4.3-8.8-9-10.5-15.5c-0.8-3.9-3-7.5-3.3-11.5C270.9,415.5,266.5,411.4,262,407.1z"/>
	<path class="st0" d="M181.4,492.9c-0.5-0.1-1.3-0.1-1.3-0.3c-0.5-2-1-4-1.3-6.1c1.5-1.8,5.3-1.8,7.4-3.2c-2.5,0.6-4.9,1.3-7.7,2
		c-0.7-2-1.3-3.9-2.2-6.3c-1.1,2.6,1.1,4.7-0.2,7.3c-2.3-2-2.2-6.5-2.9-9.4c-0.5-2.8,0.1-3.8,2.9-4.8c4.8-1.6,9.6-3.1,14.5-4.5
		c15.6-3.8,12.4-5.5,18.4,9.4c-2.2,0.7-3.9,1.2-5.6,1.8c0,0.1,0.1,0.2,0.1,0.3c1.7-0.4,3.4-0.8,5.6-1.3c0.6,1.9,1.1,3.6,1.7,5.6
		c-2.4,0.9-5.2,2.1-7,2.7c-3.1,1-6.2,2-9.3,2.9l0.1-0.1c-1.4,0.4-2.8,0.8-4.2,1.2l0.1-0.1c-3.1,1-6.2,2-9.3,2.9
		C181.2,492.9,181.4,492.9,181.4,492.9z M179.7,477.7c2.8,0.1,2.9-3.9,0.2-4.1C177.1,473.6,176.6,477.6,179.7,477.7z M201.7,469.2
		c0.2-2.7-4.2-2.7-4.3-0.1C197.2,471.9,201.6,471.8,201.7,469.2z M197.1,480.8c0-0.1-0.1-0.3-0.1-0.4c-2.1,0.6-4.2,1.1-6.3,1.7
		c0,0.2,0.1,0.3,0.1,0.5C192.9,481.9,195,481.3,197.1,480.8z"/>
	<path class="st0" d="M212.6,567c5.1-1.1,10.3-2.8,15.5-1.5c30.5,6.9,62.7,11,93.6,4.8c1.2,1.5,0.5,3.2,0.7,5.1
		c-36.3,7.8-74.5,2.5-109.9-7.5C212.5,567.6,212.6,567.3,212.6,567z"/>
	<path class="st0" d="M365.1,517.1c27.9-0.7,51.1-17.1,59-43.5c5.7,25.4-16.3,45.8-40.3,48.4C377.7,522.7,369.2,522,365.1,517.1z"/>
	<path class="st0" d="M75.1,420.1c-10.2-9.6-4.8-28.2,10.4-21.4c7,11.6,14.4,20.7,26.9,26.8c-5.6,5.6-24.1,6.9-30.6,0
		c4.5,1.5,14.8-0.4,9.7-6.7c-3.6-4.3-18.1-9.2-15.6,1C75.5,419.9,75.3,420,75.1,420.1z"/>
	<path class="st0" d="M454.8,95.2c-3.2-6.1-5.6-12.7-8.8-18.9c-1.2-2.4-1.3-4.5-0.3-7.1c1.5-4.4,3.1-8.6,3.8-13.3
		c-5.4-1.6-10.8-3.1-16.3-4.6c0.1-0.4,0.1-0.8,0.3-0.9c3.9-3.2,7.7-6.6,11.8-9.6c6.1-5,9.4,6.4,10,10.9c1.8,14.4,0.5,28.9,0,43.3
		C455.2,95.1,455,95.1,454.8,95.2z"/>
	<path class="st0" d="M251.2,74c3.2-2.9,34.1-5.9,40.9-5.4c-1.6,3.8-3.2,7.7-4.9,11.8c-10.8-0.7-21.9,0.3-32.7,2.4
		C253.3,79.7,252.3,76.9,251.2,74z"/>
	<path class="st0" d="M319.4,580.8c-0.3,3,1.2,6.3-2.4,7c-14.2,3.4-28.8,5.8-43.5,5.2c0.8-3.3,1.5-6.4,2.4-9.8
		C290.3,584.2,304.7,583.5,319.4,580.8z"/>
	<path class="st0" d="M135.9,496.9c4.3-0.7,8.5-1.8,12.6-3.5c0,0-0.1,0-0.1,0c5.8-1.4,11.5-3.4,17.4-4.1c3.3-2.1,2.6,4.7,3.3,6.7
		c-3.3,1.1-6.2,1.8-9.1,3.6c-3.8,0.6-7.4,1.9-11.1,3c0,0,0.1-0.1,0.1-0.1c-3.1,1-6.2,2-9.3,2.9c-1.5,0.3-4.5,1.2-6.5,1.7
		c-1.8,0.5-2.1,0.3-2.6-1.6C128.6,497.5,128.6,499.6,135.9,496.9z"/>
	<path class="st0" d="M325.2,465.3c0.9-0.2,1.9-0.4,2.8-0.6c0.8,0.5,1.5,1,2.4,1.6c-0.4,1.3-1.5,1.4-2.5,1.7
		c-34.1,10.4-68.3,20.9-102.5,31.2c-1.5-2.6-1.5-2.6,0.8-4l-0.1,0.1c2.3,0,4.4-2.1,6.9-0.7c1.3-2.4,3.8-2.4,5.9-2.9
		c2.2-0.6,4.2-2.4,6.3-1.1c3.1-1.7,5.9-2.8,9.1-4c0.9,0.5,1.8,1,2.6,1.5c0.5-0.9,1-1.8,1.5-2.6l-0.1,0c2.5-0.8,5.1-1.6,7.6-2.4
		l-0.1,0.1c1,0,1.8,0,2.5,1c0.5,0.7,1.6,0.4,1.7-0.5c0.1-1.8,1.4-1.8,2.5-2.2c1.7-0.6,3.3-1.2,5-1.8c0.5,0.4,2.2,0.4,3.3,0.8
		c0.8-2.7,6-2.9,7.9-4c1.1,0.1,2.1,0.3,3.5,0.5c0.5-2.5,4.1-2.2,6-3.5l-0.1,0.1c1.8,1,3.1,0.6,4.1-1.2l-0.1,0.1
		c2.5-0.8,5.1-1.6,7.6-2.4l-0.1,0.1c1.4-0.4,2.8-0.8,4.2-1.2c0,0-0.1,0.1-0.1,0.1c1.4,0.1,2.9,0.1,4,0.1c1.3-0.9,2.4-1.7,3.6-2.5
		c0,0-0.1,0.1-0.1,0.1c1.4-0.4,2.8-0.8,4.2-1.2L325.2,465.3z"/>
	<path class="st0" d="M156.7,500.3c4.4-0.7,7.9-2.1,12.5-3.5c0.4,2.6,0.8,4.9,1.1,7.4c-0.8,0.6-1.5,1.2-2.2,1.8
		c-3,0.5-5.8,1.7-8.7,2.5l0.1-0.1c-2,0.6-3.9,1.2-5.9,1.8l0.1-0.1c-2.5,0.8-5.1,1.6-7.6,2.4c0,0,0.1-0.1,0.1-0.1
		c-3.1,1-6.2,2-9.3,2.9l0.1-0.1c-1.3,0.2-2.6,0.4-4.2,0.6c-0.5-2.5-1-4.9-1.5-7.4c3-1.1,5.8-2.1,8.5-3.1c2.4-0.7,6.3-2,9.2-2.9
		c0,0-0.1,0.1-0.1,0.1C151.6,501.9,154.1,501.1,156.7,500.3z"/>
	<path class="st0" d="M469.8,135.4c-3.8-4.4-8.5-8.1-10.7-13.6c-5.6-11.9-11-23.9-17-35.6c-2-3.9-1.5-6.8,1-9.8
		C444.5,78,469,130.9,469.8,135.4z"/>
	<path class="st0" d="M167.1,506.1c1.2-0.1,1.8-0.3,3.3-0.6c0.3,2,0.5,3.8,0.8,5.7c0.1,1.1-0.7,1.5-1.5,1.8
		c-2.3,0.7-4.7,1.3-6.6,2.9c-3.6,0.8-7.6,0.8-10.6,3.3c-3.1,0.8-8.1,1.3-10.4,3.5c-2.9,0.6-5,1-8.1,1.6c-0.4-2.5-0.7-4.7-1-7.1
		c1.5-0.7,2.8-1.2,4-1.8c0,0-0.1,0.1-0.1,0.1c3.1-1,6.2-2,9.3-2.9c0,0-0.1,0.1-0.1,0.1c2.5-0.8,5.1-1.6,7.6-2.4
		c1.2-0.3,4-1.2,5.7-1.7C161.3,507.9,164.7,506.8,167.1,506.1z"/>
	<path class="st0" d="M525.2,448.4c-5.3,0.1-7.8-4.1-5.7-8.4c1.6-3.9,5.3-7.7,4.2-12.2c-0.5-1.2,0.7-3.2,1.9-1.9
		c2.2,5.2,7,7.8,11.1,11.4c3.2,2.4,1.9,8.6-2.3,8.9C531.3,446.2,528.1,448,525.2,448.4z"/>
	<path class="st0" d="M124.6,123.1c2.8,3,5.3,5.5,4.7,10.1c-1.5,11.6-2.5,23.2-3.4,34.9c-0.3,4.3-3.2,6.6-5.3,9.6
		c-0.2-0.1-0.4-0.1-0.7-0.2C121.5,159.3,123.1,141.2,124.6,123.1z"/>
	<path class="st0" d="M189.3,499.5c-2.8,0.6-5,1-8,1.6c-0.4-2.4-2.3-6.7,0.1-8.3c0,0-0.1,0.1-0.1,0.1c3.1-1,6.2-2,9.3-2.9
		c0.6-0.1,2.9-0.8,4-1.1c2.4-0.7,6.3-2,9.2-2.9c1.8-0.2,4.7-1.1,7.1-1.6c0.9,2.2,1.4,4.4,1.7,6.6c0.1,0.4-0.6,0.9-0.9,1.3
		c-0.7,0.1-2.8,0.8-4,1.1c0,0,0.1-0.1,0.1-0.1c-3.1,1-6.2,2-9.3,2.9c0,0,0.1-0.1,0.1-0.1C195.6,497.5,191.9,497.5,189.3,499.5z"/>
	<path class="st0" d="M553.6,433.8c-0.5-4.9,5-8,3.8-13.1c-0.1-2.6,2.8-0.8,3.3,0.7c1.9,4.5,6.8,6.2,9.9,9.8
		c2.8,2.3,2.6,9.3-2.1,8.4c-2.9-0.5-5.6-0.4-8.5,0.2C555.9,440.8,553.5,438.3,553.6,433.8z"/>
	<path class="st0" d="M487,396.7c-1.3,0.2-2.6,0.5-3.8,0.7c-1.2-3.2-1.1-3.3,1.3-5.1c4.3-3.3,8.3-6.8,9.2-12.6
		c5.3,2.2,10.7,2.7,16.6,2.6c-1.3,2.4-2.7,4-3.4,6.4c-0.1,3.3-12.9,5.5-16,6.9l0.1-0.1c-1.4,0.4-2.8,0.8-4.2,1.2L487,396.7z"/>
	<path class="st0" d="M68.4,438.6c-14.8-0.1-9.8-17.3,0.8-18.8c1.8-0.2,3.2,0.1,4.5,1.6c2.1,2.4,4.5,4.4,7,6.8
		c-0.3,0.8-0.7,1.7-1.3,3c-1.8-2.1-3.7-2.4-5.9-1.1C70.5,432,67.6,433.9,68.4,438.6z"/>
	<path class="st0" d="M302.2,472.1c-1.8-1-1.7-2.9-2.1-4.6c-0.7-2.9,3.2-2.4,4.7-3.9c-1.6,0.4-3.2,0.8-5.1,1.3
		c-0.2-2.8-2.9-6.1,0.2-7.8c0,0-0.1,0.1-0.1,0.1c4-1.2,7.7-1.6,11.7-3.1c0.8,2.3,1.5,4.3,2.2,6.4c-1.3,0.6-2.3,1-3.8,1.7
		c4.7-0.8,3.9-1.5,5.5,2.9c0.2,0.7,0.4,1.4,0.5,2.1c-0.9,0.5-1.6,1-2.3,1.4c0,0,0.1-0.1,0.1-0.1c-1.4,0.4-2.8,0.8-4.2,1.2l0.1-0.1
		C307.2,470.6,304.7,471.4,302.2,472.1L302.2,472.1z"/>
	<path class="st0" d="M226.2,472.7c-3.5,0.4-4.9-1.6-8,2c-0.4-1.1-0.7-1.9-1.1-3c15.3-4.2,30.4-8.4,45.6-12.6
		c0.4,1.7,0.6,3.2-0.8,4.3c-3,0.2-5.7,1.1-8.8,1.6c-0.4-1.3-0.8-2.1-2.1-1.6c-1,2.7,0.2,4.8,1.3,7.2c-0.9,0.8-1.6,1.5-2.3,2.1
		c-2.4,0.3-5.2,0.8-7.5,1.2c-2.1-2.1-0.5-5.5-3.2-7.4c-1.8,1.4,0.3,1.9-2.4,3.2c-2.9,0.3-6,2.7-8.6,0.3c-0.8,1.1-1.4,1.9-2.1,2.8
		L226.2,472.7z M242.5,468.1c0,0.1,0.1,0.3,0.1,0.4c1.3-0.4,2.6-0.7,3.8-1.1c0-0.2-0.1-0.3-0.1-0.5
		C245,467.4,243.8,467.7,242.5,468.1z"/>
	<path class="st0" d="M306.2,455.8c-2.2,0.1-4.3,0.9-6.4,1.4c0,0,0.1-0.1,0.1-0.1c-4.7-0.4-1-3.5-2.7-4.4c-0.6-0.5-0.7-1.7-1.1-2.9
		c12.9-3.6,25.7-7.1,38.5-10.7c0.5,5-4,4.7-7.2,5.9c-1-0.2-1.6-2-2.2-2c-2.2,0.7,1,2.3-2.8,3.7c0,0,0.1-0.1,0.1-0.1
		c-3.3,0.8-6.7,1.6-10,2.4c-0.6-0.8-1.2-1.5-1.8-2.3c-0.9,1.2-0.9,1.3-1.1,3c-1.7,0.5-3.5,1.1-5.3,1.7c0,0.1,0.1,0.3,0.1,0.4
		c1.9-0.5,3.8-0.9,5.9-1.4c0.4,1,0.7,1.9,0.9,2.6C309.3,454.1,307.7,455,306.2,455.8z"/>
	<path class="st0" d="M281.8,451.6c-4.7,1.9-9.6,2.9-14.4,4.2c-1.3,0.3-2.9,0.3-4.2-0.1c-3.7-1.2-12.7-4.3-9.2-9.5
		c0.8-1.1,1.8-0.8,2.8-0.5c6.6,2.1,13.5,2.7,20.4,3C279.3,448.9,280.8,449.4,281.8,451.6z"/>
	<path class="st0" d="M537.2,372.6c-4-1.1-12.9-3.4-6.1-8.1c3.8-2,7.6-4.1,11.4-6.1c2.1-1.1,3.3-0.8,4.4,0.5
		c2.1,2.1-0.6,4.6-1.6,6.7c-0.5,0.9-1.3,1.7-1.6,2.7c-0.7,3-3.5,3.3-5.6,4.3C537.9,372.7,537.5,372.6,537.2,372.6z"/>
	<path class="st0" d="M482.5,409.8c-3.1,0.4-6.2,0.9-8.8,2.8c-4.3,0.8-8.1,1.9-12.4,3c-0.5-2.2-2.1-4-0.7-6.2c0,0-0.1,0-0.1,0
		c3.9-1.2,7.8-2.3,11.6-3.5L472,406c2.9-0.8,5.8-2,8.7-2.5c2.4-0.4,2.4-0.4,3.1,1.5c0.3,1.1,0.5,1.9,0.9,3.1
		C484,408.7,483.2,409.3,482.5,409.8z"/>
	<path class="st0" d="M502,369.6c3.1,0.6,12.5-0.6,13.2,2.7c1,2.8-2,4.5-3.4,6.5c-1.4,2-3.7,2.3-5.5,0.6c-2.6-2.1-5.4-3.8-7.9-6
		c-0.8-0.7-1.3-1.7-0.8-2.9c0.8-1.8,2.9-1,4.4-1.2C502,369.5,502,369.6,502,369.6z"/>
	<path class="st0" d="M269.8,430.1c2.1,4.7,4.2,9.5,6.2,14.3c-2.2,1-13.9-0.5-17.6-2.4C262.2,438.1,265.9,434.2,269.8,430.1z"/>
	<path class="st0" d="M439.8,422.6c-0.7,0-1.4,0-2.3,0c-0.2-2.3-1.7-4.2-0.5-6.4c3.4-0.2,6.5-1.9,9.7-2.8l-0.1,0.1
		c1.4-0.4,2.8-0.8,4.2-1.2l-0.1,0.1c1.8-0.4,3.7-0.8,5.8-1.3c0.5,1.8,1,3.5,1.6,5.3c-5.9,3.2-12.1,4.3-18.3,6.3
		C439.7,422.7,439.8,422.6,439.8,422.6z"/>
	<path class="st0" d="M419.1,435.9c-1,0.2-2,0.3-3.2,0.5c-0.4-2.1-2.4-3.9-0.7-6.3c4-0.3,7.7-2.3,11.6-3.4c3-0.4,5.2-1.2,8.3-2.3
		c0.5,2,0.8,3.6,1.3,5.4c-2.2,0.9-4.3,1.8-6.3,2.7C427,433.3,422.5,434.9,419.1,435.9C419,435.9,419.1,435.9,419.1,435.9z"/>
	<path class="st0" d="M417.3,429.9c-4.6,1.2-3.8-2.2-4.9-5.3c0.6-0.5,1-0.9,1.5-1.4c0,0-0.1,0.1-0.1,0.1c1.4-0.4,2.8-0.8,4.2-1.2
		c0,0-0.1,0.1-0.1,0.1c1.2-0.4,2.4-0.8,3.6-1.2l-0.1,0.1c3.9-1.3,7.9-1.6,11.8-3.2c1.3,1.8,1.4,3.7,1.6,5.6c-2.5,1.6-4.9,3.2-8,3.3
		C424,427.7,419.3,428,417.3,429.9z M423.1,422c-3.3,0-4,4.1-0.5,4C425.8,425.8,426.2,421.9,423.1,422z"/>
	<path class="st0" d="M447.5,420.3c3.7-0.6,6.8-1.8,10.6-2.9c0.7,2.1,2.3,3.7,0.7,5.9c0,0,0.1-0.1,0.1-0.1c-2.3,0.8-4.7,1.6-7,2.4
		l0.1-0.1c-1.4,0.4-2.8,0.8-4.2,1.2l0.1-0.1c-2.3,0.8-4.7,1.6-7,2.4c0,0,0.1-0.1,0.1-0.1c-0.6,0-1.3,0-1.9,0
		c-1.7-4.1-1.6-4.8,0.7-6.3c0,0-0.1,0.1-0.1,0.1C442.3,421.9,444.9,421.1,447.5,420.3z"/>
	<path class="st0" d="M498.7,393.3c1.8-0.1,3.4-0.9,5.2-1.3c3.2-1,3.3-0.9,5,2.3c-1.8,1.4-3.8,2.2-6.1,2.4c-2.7,0.5-5.5,0.9-7.7,2.7
		c-3.4,0.7-6.3,1.3-9.9,2.1c-0.4-1-0.7-2-1.1-3.1c1.1-0.6,2.1-1.2,3-1.7c0,0-0.1,0.1-0.1,0.1c1.4-0.4,2.8-0.8,4.2-1.2
		c0,0-0.1,0.1-0.1,0.1C493.5,394.8,496.1,394.1,498.7,393.3z"/>
	<path class="st0" d="M272.9,460c-2.5,0.6-5,1.1-7.6,1.7c-0.4-1-0.7-1.8-1-2.5c1.7-1.2,26.5-8.2,30-8.5c0.1,0.9,0.2,1.8,0.4,2.9
		c-1.4,0.6-2.7,1.3-4.1,1.9l0.1-0.1c-1.3-0.1-2.8,0.6-3.7-1.2c-1.3-1.5-2.1,1.2-2,2.3c-0.6,0.1-1.1,0.3-1.6,0.2
		c-3.7-1.1-4.1,1.9-7.5,2.2c-0.4-0.5-0.6-0.8-0.8-1.1c-1.3-2.7-2.4,0.8-2.4,2.2L272.9,460z"/>
	<path class="st0" d="M480.7,403.5c-3,0.5-5.8,1.7-8.7,2.5c0,0,0.1-0.1,0.1-0.1c-3.9,1.2-7.8,2.3-11.6,3.5c0,0,0.1,0,0.1,0
		c-1.5-0.7-1.7-1.9-1.7-3.7c7.5-2.3,14.9-4.6,22.5-6.9c0.7,1.2,1.1,1.8,1.3,3.1C482,402.5,481.4,403,480.7,403.5z"/>
	<path class="st0" d="M259,469.7c1.7-0.5,3.4-0.9,5.5-1.5c0.6,2.5,1,4.6,1.5,6.9c-3.4,1.9-6.5,2.3-10.4,3.2
		C254.9,473.2,252.2,470.4,259,469.7z"/>
	<path class="st0" d="M4.3,548.3c2,7.8,3.9,15.4,5.9,23c-0.1,0.1-0.2,0.2-0.4,0.4c-5.9-3.7-6.3-11.6-7.7-17.8
		C1.7,551.2,2.4,549.9,4.3,548.3z"/>
	<path class="st0" d="M382.3,212.3c6.9,0.4,7.4,9,0.4,9.6C375.7,221.9,375.6,212.5,382.3,212.3z"/>
	<path class="st0" d="M429,419.2c-2.6,0.3-5.2,1-7.8,1.8c0,0,0.1-0.1,0.1-0.1c-1.2,0.4-2.4,0.8-3.6,1.2c-0.6,0.1-2.9,0.8-4,1.1
		c0,0,0.1-0.1,0.1-0.1c-2.6-0.1-2.3-0.7-2.4-3.4c1.4-0.4,2.8-0.8,4.2-1.2l-0.1,0.1c5.5-1.9,11.3-3,16.8-4.8
		C434.6,418.2,431.4,416.8,429,419.2z"/>
	<path class="st0" d="M439.2,416.1c-0.7,0.1-1.4,0.1-2.1,0.2c-2-2.3-1.8-3.3,0.9-4.2c5.6-1.6,11.2-3.8,16.9-5c3.4,4-1.6,3.7-4.2,5.3
		c-0.6,0.1-2.9,0.8-4,1.1c0,0,0.1-0.1,0.1-0.1C444.1,414,441.3,414.1,439.2,416.1z"/>
	<path class="st0" d="M132.1,132.2c1.7,0.6,1.5,1.7,1.4,2.7c-0.2,2.8-0.4,5.5-0.7,8.3c-0.7,6.7-1.4,13.3-2,20
		c-0.2,1.6-0.7,2.9-2.6,4.1C129.3,155.1,130.4,144.1,132.1,132.2z"/>
	<path class="st0" d="M326.3,457.3c1.6,1.5,1.4,3.6,1.8,5.5c0.1,1.1-2.5,2.3-2.8,2.4c-1.4,0.4-2.8,0.8-4.2,1.2
		c-0.3-0.1-2.1,0.2-3.1,0.2C314.3,457.2,317,461.8,326.3,457.3L326.3,457.3z"/>
	<path class="st0" d="M321.1,459.2c-1.3,0.3-2.5,0.5-3.8,0.8c-0.7-0.3-1.7-0.4-1.9-0.9c-0.8-1.7-1.3-3.5-1.9-5.4
		c1.6-0.7,2.9-1.2,4.2-1.7l-0.1,0.1c2.5-0.6,5-1.2,7.8-1.9c0.4,2.6,1.8,4.7,0.9,7.1C325.1,457.3,322.4,457.8,321.1,459.2z
		 M320.5,453.7c-3-0.3-4,3-1.3,3.2C322,456.9,322.4,455,320.5,453.7z"/>
	<path class="st0" d="M223.4,488.8c-0.6-0.4-1.5-0.6-1.7-1.2c-0.7-1.9-1.1-3.9-1.7-5.9c2.9-1.9,5.7-2.2,9-2.7
		c0.4,1.7,0.8,3.2,1.1,4.6c0.5,2.2,0.5,2.2-1.6,3.5l0.1-0.1c-1.8,0.6-3.5,1.2-5.3,1.8L223.4,488.8z"/>
	<path class="st0" d="M262.6,476.7c1.1-0.7,2.3-0.3,3.6-0.4c0.3,1.3,0.5,2.5,0.9,3.6c0.8,1.5-0.5,2.8-1.2,3.1
		c-2.5,0.8-5.1,1.6-7.6,2.4l0.1,0c-2.5-1-1.8-3.9-2.5-6.1C258.4,478.4,260.5,477.5,262.6,476.7z"/>
	<path class="st0" d="M275.8,472.7c-2.4,0.6-4.8,1.2-7.5,1.8c-0.7-2.5-2.1-4.8-1.2-7.6l-0.1,0c1.4-0.4,2.8-0.8,4.2-1.2
		c0,0-0.1,0.1-0.1,0.1c1.2-0.2,2.4-0.4,4-0.7c0.5,1.7,0.9,3.4,1.6,5c0.5,1.3-0.1,1.9-1,2.6L275.8,472.7z"/>
	<path class="st0" d="M442.4,107.6c-4-3.6-8-7.3-12.1-11c1.4-1.9,2.7-3.5,4-5.2C435.9,93,441.7,104,442.4,107.6z"/>
	<path class="st0" d="M86.4,423.8c-3.9,0-9.2-2.4-8.4-6.9C81.6,413.5,97.4,422.7,86.4,423.8z"/>
	<path class="st0" d="M452.7,117.6c-5.9-9-10.1-19-15.4-28.4c-0.7-1.4-0.4-2.3,1-3.5c5.2,10.6,9.9,21.2,15.1,31.5
		C453.2,117.4,452.9,117.5,452.7,117.6z"/>
	<path class="st0" d="M277.5,479.6c-2.4,0.6-4.8,1.2-7.3,1.8c-1.2-1.8-1.5-3.7-1.5-6c2.2-0.8,5.3-2.1,7-2.6c2.8-0.4,2.4,3.8,3.3,5.6
		C278.4,478.9,277.9,479.3,277.5,479.6L277.5,479.6z"/>
	<path class="st0" d="M226.7,479.4c-2.5,0.6-4.5,0.9-7.2,1.1c-0.5-1.7-0.9-3.3-1.4-5.4c4.5,1.4,4.6-0.2,8.1-2.4c0,0-0.1,0-0.1,0
		c0.5,0.2,1.3,0.3,1.4,0.6c0.5,1.3,0.9,2.7,0.9,4C228.4,478.1,227.3,478.7,226.7,479.4z"/>
	<path class="st0" d="M292.3,459.5c1-0.2,2-0.4,3.1-0.5c1.8,2.4,2.2,5.6,1,7.5c-1.3,0.1-3.7,0.8-5.8,1.2c-0.5-2.3-1-4.4-1.6-6.6
		c1.4-0.6,2.4-1.1,3.4-1.6L292.3,459.5z"/>
	<path class="st0" d="M259,469.7c-3.3,0.7-6,1.7-5.7-3.8c2.7-0.9,5.6-2.4,8.5-2.6c2.3-0.6,1.9,2.4,2.4,3.9
		C262.4,468.1,260.7,468.9,259,469.7z"/>
	<path class="st0" d="M296.4,466.4c0.4,0.1,1,0.1,1,0.3c0.8,2.1,2.1,4.2,0.7,6.6c-1.2,0.2-3.7,0.9-5.7,1.3
		C290.5,467.8,289.9,468.9,296.4,466.4L296.4,466.4z"/>
	<path class="st0" d="M226.2,495.2c-1.7,0.3-2.8-0.2-3-2c-0.2-1.6-1.7-3.2,0.1-4.3c0,0-0.1,0.1-0.1,0.1c1.8-0.6,3.5-1.2,5.3-1.8
		c-0.2,0.2,1.7,0.1,2,0.2c0.7,1,0.6,2.1,1,3.2c0.6,2.7,0.5,2.9-2.6,3c-0.1-1.1,0.4-2.3-1-2.6c-1.1-0.3-2.1-0.2-2.8,0.9
		C224.1,493.2,226,493.8,226.2,495.2L226.2,495.2z"/>
	<path class="st0" d="M265.6,509.7c-2.1-5.1,3.4-9,7.8-9.9c3.3-0.6,5.6,1.6,1.4,3.1C270.9,504.2,267,505,265.6,509.7z"/>
	<path class="st0" d="M267.1,467c-1.6-0.9-1.1-2.7-1.8-4.2c2.7-1,5.2-1.9,7.6-2.8c0,0-0.1,0.1-0.1,0.1c1.4,1,1.5,2.5,1.8,4.1
		c-1.2,0.6-2.4,1.1-3.6,1.7l0.1-0.1C269.8,466.2,268.4,466.6,267.1,467L267.1,467z"/>
	<path class="st0" d="M322.3,446.9c1.1-0.2,2.3,0.2,2.7,1.2c1.1,2-6,3.1-7.4,4c0,0,0.1-0.1,0.1-0.1c-1.5,0.2-2.9,0.4-4.6,0.6
		c-0.2-0.9-0.5-1.7-0.7-2.6C316,448.9,319,447.9,322.3,446.9C322.4,446.8,322.3,446.9,322.3,446.9z"/>
	<path class="st0" d="M357.9,435.9c-0.8-1-0.9-1.3-1.5-2.6c3.6-1,7-2,10.5-2.9c0.4-0.1,1.2,0.5,1.4,0.9c0.4,0.8-0.2,1.4-1,1.7
		C364.3,433.9,361.3,434.8,357.9,435.9z"/>
	<path class="st0" d="M250.2,447.2c1.2-7.7,9.1-11.8,14.6-16.3C260.8,437.1,253.6,440.4,250.2,447.2z"/>
	<path class="st0" d="M509.2,388.5c3.2,1.3,5.9,1.1,8.1-1.5C521.5,391.1,509.1,396,509.2,388.5z"/>
	<path class="st0" d="M422.4,416.7c-2.4,0.1-4.6,1.3-6.9,1.9l0.1-0.1c-1.4,0.4-2.8,0.8-4.2,1.2c0,0,0.1,0,0.1,0
		c-0.3-0.3-0.7-0.6-1.4-1.3c7.5-2.3,14.6-4.1,21.9-5.6C429.1,414.6,425.6,415.4,422.4,416.7z"/>
	<path class="st0" d="M290.7,455.5c1.4-0.3,2.8-0.5,4.2-0.8c0.5,1.2,0.8,1.9,0.8,3.2c-1.2,0.6-2.3,1.1-3.3,1.6
		c-0.4-0.1-2.3,0.3-3.1,0.4C287.4,456.8,288,456.8,290.7,455.5L290.7,455.5z"/>
	<path class="st0" d="M380.9,427.1c-2.1,3.3-5.6,3.3-8.9,4.4c-1.4,0.4-1.5,0.3-2.1-1.7C372.2,428.6,378.4,427,380.9,427.1z"/>
	<path class="st0" d="M409.9,431.8c-2.4-1.1-3-3.5-4.6-5.5c1.6-0.6,2.9-1,4.6-1.6c0.6,1.9,1.2,3.7,1.8,5.5
		C411,430.8,410.4,431.4,409.9,431.8L409.9,431.8z"/>
	<path class="st0" d="M328.9,448.7c0.9-0.1,1.8-0.3,3.2-0.5c-0.8,2.2,0,8.6-3.3,7.5C328.7,453.6,326.2,449.9,328.9,448.7
		L328.9,448.7z"/>
	<path class="st0" d="M214.6,482.8c0.8-0.1,1.7-0.2,2.6-0.3c1.2,2,1.5,4.2,1.8,6.2c0.2,1.5-1.1,1.4-2.5,1.4
		C215.9,487.7,215.3,485.2,214.6,482.8L214.6,482.8z"/>
	<path class="st0" d="M401.8,423c2.3-0.6,4.5-1.3,7-1.9c0.3,1,0.6,1.8,0.8,2.5c-0.6,1-1.4,1-2.3,1.3
		C404.2,426.2,404.1,425.1,401.8,423C401.9,422.9,401.8,423,401.8,423z"/>
	<path class="st0" d="M219.5,490.6c0.4,1.3,0.7,2.5,1,3.7c0.4,2,0.2,2.2-2.5,2.5c-0.3-1.2-0.7-2.5-0.9-3.8
		C216.7,491.2,216.8,491.2,219.5,490.6z"/>
	<path class="st0" d="M214.6,482.8c-0.1-1.7-2.9-6-0.5-6.6c2.9-0.9,2.4,3.2,3,5C216.3,481.8,215.3,482.3,214.6,482.8z"/>
	<path class="st0" d="M371.5,432.3c2.5-0.8,4.9-1.5,7.4-2.3c1.2,5.9-4.2,3-7.3,2.7C371.6,432.6,371.6,432.5,371.5,432.3z"/>
	<path class="st0" d="M329,448.7c-1.1,0.1-1.8-0.9-2-1.8c0.6-1.9,3.9-1.8,5.7-2.6C333.6,447.4,330.6,447.6,329,448.7z"/>
	<path class="st0" d="M178.6,502.2c-1.4-2.3-1.2-4.8-1.6-7c0-0.5,1.1-1,1.5-0.5C178.7,496.8,180.8,500.7,178.6,502.2z"/>
	<path class="st0" d="M401.9,422.9c-0.5-0.5-1-0.9-1.9-1.7c3-0.9,5.6-1.8,8.5-2.2c-0.1,1.6-1.2,1.6-2,2
		C405.1,421.7,403.2,422.4,401.9,422.9z"/>
	<path class="st0" d="M177.3,493.9c-1.5-2.2-1.4-4.4-1.8-6.4c0.1-0.7,1.2-1.4,1.7-0.4c0.4,1.9,0.7,3.7,1,5.6
		C178.2,493,177.8,493.3,177.3,493.9z"/>
	<path class="st0" d="M179.9,509.6c-1.5-2.4-1.7-5.4-0.5-6.9c1.4,1.7,0.9,3.8,1.3,5.6C180.7,508.6,180.2,509.1,179.9,509.6z"/>
	<path class="st0" d="M409.8,431.9c0.6,0,1.3-0.1,2.1-0.1c0.6,1.8,1.5,3.4,1.2,5.5C411.1,436.3,409.9,434.1,409.8,431.9
		C409.9,431.8,409.8,431.9,409.8,431.9z"/>
	<path class="st0" d="M515.2,385.8c-1.3,1-2.8,1.9-4,0.3c-0.4-0.6,0.6-1.7,1.7-1.7c0.7,0,1.4,0.4,2.1,0.7
		C515.2,385.3,515.2,385.5,515.2,385.8z"/>
	<path class="st0" d="M330.2,461c-1.3-2.3-1.3-2.8-0.2-4.3C331,458.2,331,458.2,330.2,461z"/>
	<path class="st0" d="M75.3,432.7c-1.1,0.9-2.3,1.8-3.9,3.1c1.1-2.5,1.1-2.5,3.5-3.5C75,432.4,75.1,432.6,75.3,432.7z"/>
	<path class="st0" d="M320,599.1c-1.1-1.8-1.1-1.8,0.5-3.3c0.1,1.3,0.2,2.2,0.2,3.2C320.5,599,320.2,599,320,599.1z"/>
	<path class="st0" d="M174.6,593.8c0.6-0.7,1.3-1.3,2.3-2.4c0.2,2.2-0.5,2.8-1.7,3.1C175,594.2,174.8,594,174.6,593.8z"/>
	<path class="st0" d="M361.5,436c-1.1,0.9-1.7,1.5-2.4,2C358.5,436.2,358.5,436.2,361.5,436z"/>
	<path class="st0" d="M58.1,539.5c-1.4,0.2-2.8,0.5-4.4,0.8c-0.7-2.7-1.3-5.3-2-8.1c5.4-2.4,10.7-3.2,16.3-5
		c1.3,2.4,1.3,4.9,1.7,7.4c-0.1,1-1.6,1.8-2.6,2.1c0,0,0.1-0.1,0.1-0.1c-3.1,1-6.2,2-9.3,2.9C58,539.6,58.1,539.5,58.1,539.5z"/>
	<path class="st0" d="M58.9,549.2c-0.9,0.1-1.9,0.2-3.1,0.3c-0.6-2.7-1.2-5.3-1.8-8.1c1.5-0.7,2.8-1.3,4.2-1.9
		c2.4-0.7,6.3-2,9.2-2.9c0.3,0.2,1.7-0.1,2.8-0.1c0.5,2.6,0.9,5.2,1.4,7.9c-1,0.6-1.8,1-2.6,1.5c-2.3,0.3-6.2,1.3-8.6,3.2
		C59.8,549.1,59.4,549.2,58.9,549.2z"/>
	<path class="st0" d="M101.2,506.6c1.8-0.4,3.6-0.9,5.6-1.4c0.6,2.9,1.1,5.4,1.6,7.9c0.9,3.5-9,4-11.7,5c-0.8-3.1-1.5-6.1-2.3-9.3
		C96.8,508,98.8,506.6,101.2,506.6z"/>
	<path class="st0" d="M101.2,526.2c2.9-0.7,5.6-1.3,8.6-2.1c1.1,2.3,1,4.6,1.1,6.8c0,0.6-1.1,1.4-1.7,2.1c-2.8,0.5-5.4,1.7-8,2.5
		c0,0,0.1-0.1,0.1-0.1c-0.6-0.4-1.5-0.8-1.6-1.3c-0.5-2.1-0.7-4.3-1-6.4C99.6,527.2,100.4,526.7,101.2,526.2z"/>
	<path d="M161.9,490c-4.5,1.2-9,2.3-13.5,3.5C152.9,492.3,157.4,491.1,161.9,490z"/>
	<path d="M60.3,549.1c2.6-2,5.7-2.6,8.7-3.2C66.2,546.9,63.3,548,60.3,549.1z"/>
	<path d="M142.1,522.6c2.4-2.2,6-2.1,9-3.2C148.1,520.4,145.1,521.5,142.1,522.6z"/>
	<path d="M55.6,518.3c2.2-0.6,4.3-1.2,6.5-1.8c0,0.2,0.1,0.3,0.1,0.5c-2.1,0.6-4.3,1.2-6.4,1.8C55.7,518.6,55.7,518.4,55.6,518.3z"
		/>
	<path d="M152.5,519.1c2-1.9,4.7-2.1,7.1-2.7C157.2,517.3,154.8,518.2,152.5,519.1z"/>
	<path d="M101.2,535.5c2.4-0.8,4.7-1.6,7.1-2.4C105.9,534,103.6,534.7,101.2,535.5z"/>
	<path d="M148.5,493.4c-2,0.7-3.9,1.4-5.9,2.1C144.3,493.8,146.5,493.9,148.5,493.4z"/>
	<path d="M364.8,54.7c5-1.1,67.7,8.3,60.9,14.4c-11.6,25.4-40,38.1-66.7,39.2c-16.1,0.2-33.5-0.7-47.4-9.8
		c-13.3-8.9-4.1-25.8,7.4-31.6C332.8,58.9,348.8,54.8,364.8,54.7z M423.6,68.2c-33.9-11.2-74-18.7-105.7,2.3
		c-9.1,5.4-15.9,19-5.1,26.3C347.5,116,405.7,106.6,423.6,68.2z"/>
	<path d="M204.5,70c13.1-0.6,34.6,5.2,29.5,22.4c-8.9,21.6-41.7,30.5-63.1,31.7c-18.1,2-37.5-9.2-37.5-28.9c-0.1-1.7,0.7-2.8,2-3.6
		c3.7-2.2,7.3-4.7,11.1-6.6C164.6,76.1,184.2,70.8,204.5,70z M168.7,121.9c11.9-0.1,23.4-2.7,34.4-7.1c10.7-4.4,22.3-10.3,27.8-21.1
		c3-6.2,1.4-12.2-4.2-16.2c-17.2-10.3-43.4-3.7-61.4,2.2c-5.3,2.2-31.2,10.9-29.7,17.1C136.6,113.7,153.1,123,168.7,121.9z"/>
	<path d="M297.6,102.9c35.3,24.1,84,17.5,119.1-4C395.3,125.1,320,131.2,297.6,102.9z"/>
	<path d="M419,435.9c3.7-1.2,7.4-2.3,11.1-3.5C426.4,433.6,422.7,434.8,419,435.9z"/>
	<path d="M493.8,411.8c2.5-0.6,5.1-1.2,7.6-1.8c0,0.2,0.1,0.3,0.1,0.5c-2.5,0.6-5.1,1.2-7.6,1.8
		C493.9,412.1,493.8,411.9,493.8,411.8z"/>
	<path d="M511.1,404.1c-2.1,0.4-4.2,0.8-6.3,1.2c0-0.2-0.1-0.3-0.1-0.5c2.1-0.4,4.2-0.8,6.2-1.2C510.9,403.8,511,404,511.1,404.1z"
		/>
	<path d="M495,399.4c2.3-1.8,5-2.1,7.7-2.7C500.2,397.6,497.6,398.5,495,399.4z"/>
	<path d="M440.9,429c2.3-0.8,4.7-1.6,7-2.4C445.6,427.4,443.2,428.2,440.9,429z"/>
	<path d="M451.8,425.6c2.3-0.8,4.7-1.6,7-2.4C456.5,424,454.1,424.8,451.8,425.6z"/>
	<path d="M528.6,388.7c1.9-0.6,3.8-1.2,5.7-1.7c0.1,0.2,0.1,0.3,0.2,0.5c-1.8,0.6-3.7,1.2-5.5,1.8
		C528.8,389.1,528.7,388.9,528.6,388.7z"/>
	<path d="M473.7,412.6c2.3-1.7,5-2.2,7.8-2.7C478.9,410.8,476.3,411.7,473.7,412.6z"/>
	<path d="M472.3,418.7c1.7-0.6,3.4-1.1,5.2-1.7c0.1,0.2,0.1,0.3,0.2,0.5c-1.7,0.6-3.5,1.1-5.2,1.7
		C472.4,419,472.4,418.9,472.3,418.7z"/>
	<path d="M526.6,401.3c-1.1,0.2-2.2,0.4-3.2,0.6c0-0.1,0-0.3-0.1-0.4c1.1-0.2,2.1-0.4,3.2-0.6C526.6,401,526.6,401.2,526.6,401.3z"
		/>
	<path d="M447.8,426.7c1.4-0.4,2.8-0.8,4.2-1.2C450.5,425.9,449.2,426.3,447.8,426.7z"/>
	<path d="M538.4,398.8c-0.7,0.3-1.3,0.6-2,0.9c-0.1-0.2-0.1-0.3-0.2-0.5C536.9,399.1,537.7,398.9,538.4,398.8z"/>
	<path d="M542.7,398.8c-1.4,0-2.9,0-4.3,0C539.8,398.8,541.3,398.8,542.7,398.8z"/>
	<path d="M534,400.1c-0.5,0.1-1,0.1-1.6,0.2c0-0.1-0.1-0.2-0.1-0.3c0.5-0.3,1.1-0.2,1.7-0.1C534,399.9,534,400,534,400.1z"/>
	<path d="M198.5,496.4c3.1-1,6.2-2,9.3-2.9C204.7,494.4,201.6,495.4,198.5,496.4z"/>
	<path d="M189.3,499.5c2.6-2.1,6.3-2.1,9.3-3.2C195.5,497.4,192.4,498.5,189.3,499.5z"/>
	<path d="M201.7,502.4c-2.4,1.8-5.2,2.5-7.9,3.5c0,0,0,0,0,0C195.6,503.6,199.1,503.6,201.7,502.4
		C201.8,502.5,201.7,502.4,201.7,502.4z"/>
	<path d="M208.7,500.1c-2,1.8-4.3,2.4-6.9,2.3c0,0,0,0,0,0C204.1,501.7,206.4,500.9,208.7,500.1L208.7,500.1z"/>
	<path d="M188.8,506.3c-1.1,1.8-3.1,2.1-5.1,2.3C185.4,507.8,187.1,507.1,188.8,506.3C188.9,506.3,188.8,506.3,188.8,506.3z"/>
	<path d="M208.7,500.2c1.6-0.3,3-1.5,4.7-0.5C211.9,499.8,210.3,500,208.7,500.2C208.7,500.1,208.7,500.2,208.7,500.2z"/>
	<path d="M207.7,493.5c1.4-0.4,2.8-0.8,4.2-1.2C210.5,492.7,209.1,493.1,207.7,493.5z"/>
	<path d="M188.9,506.3c1.7-0.4,3.3-0.7,5-0.3c0,0,0,0,0,0C192.1,505.8,190.6,507.3,188.9,506.3z"/>
	<path d="M190.6,490c-3.1,1-6.2,2-9.3,2.9C184.3,491.9,187.5,491,190.6,490z"/>
	<path d="M203.8,486c-3.1,1-6.2,2-9.3,2.9C197.6,487.9,200.7,486.9,203.8,486z"/>
	<path d="M197.1,480.8c-2.1,0.6-4.2,1.2-6.3,1.8c0-0.2-0.1-0.3-0.1-0.5c2.1-0.6,4.2-1.1,6.3-1.7C197,480.5,197,480.6,197.1,480.8z"
		/>
	<path d="M194.6,488.8c-1.4,0.4-2.8,0.8-4.2,1.2C191.8,489.6,193.2,489.2,194.6,488.8z"/>
	<path d="M149.1,502.6c-3.1,1-6.2,2-9.3,2.9C142.9,504.6,146,503.6,149.1,502.6z"/>
	<path d="M156.7,500.3c-2.6,0.8-5.2,1.6-7.7,2.4C151.6,501.9,154.1,501.1,156.7,500.3z"/>
	<path d="M290.7,455.4c-2.7,1.3-3.3,1.4-1.5,4.5c1.1-0.1,2.2-0.3,3.3-0.4c-1,0.5-2,0.9-3.4,1.6c0.5,2.2,1,4.3,1.6,6.6
		c2.2-0.5,4-0.9,5.9-1.3c-6.6,2.5-6,1.5-4,8.3c2.1-0.5,3.9-0.9,5.8-1.4c-1.9,1.3-5.5,1-6,3.5c-1.4-0.2-2.5-0.3-3.5-0.5
		c0.6-0.4,1.2-0.9,1.9-1.4c-0.3-1.3-0.6-2.4-0.9-3.6c-0.6-2.1-0.6-2.1-3-1.6c0.6-0.6,1.3-1.1,2-1.8c-0.5-2-1.1-4.1-1.7-6.4
		c-2.5,0.7-4.6,1.3-6.8,1.9c2.1-0.9,4.3-1.9,6.5-2.9c-0.4-1.2-0.7-2.1-0.9-2.9c-2.9-1-3,4-6,1.9c-1.4-1-2.5-0.2-3.6,0.3
		c0.3,3.5,0.3,3.5,2.6,3.7c-0.5,0.5-1.5,1.2-1.4,1.6c0.4,2.1,0.7,4.3,2,6.1c1.5-0.3,2.8-0.5,4.1-0.7c-1.4,0.6-2.7,1.3-4.1,1.9
		c0.7,1.9,1,7.6,3.8,5.1c0.9-4.4,3-3.6,5.8-1.1c-2.4,1.4-7.1,1.3-8,4.1c-1.3-0.3-2.3-0.5-3.4-0.7c0.5-0.4,1-0.8,1.6-1.3
		c-1-1.8-0.5-6-3.3-5.6c0.9-0.7,1.5-1.3,1-2.6c-0.7-1.6-1.1-3.3-1.6-5c-1.6,0.3-2.8,0.5-4,0.7c1.2-0.5,2.3-1.1,3.6-1.7
		c-0.3-1.6-0.4-3.1-1.8-4.1c0-1.4,1.1-4.8,2.4-2.2c0.1,0.3,0.4,0.6,0.8,1.1c3.4-0.4,3.8-3.3,7.5-2.2c0.4,0.1,0.9-0.1,1.6-0.2
		c-0.1-1.1,0.7-3.8,2-2.3C287.9,456.1,289.4,455.4,290.7,455.4z"/>
	<path d="M322.4,446.8c-3.4,1.1-6.4,2.1-9.9,3.2c0.3,0.9,0.5,1.7,0.7,2.6c1.7-0.2,3.2-0.4,4.6-0.6c-1.3,0.5-2.6,1.1-4.2,1.7
		c0.6,1.9,1.1,3.7,1.9,5.4c0.2,0.5,1.2,0.6,1.9,0.9c-2.4,1.1,0.3,4.6,0.7,6.6c1.2-0.1,2.2-0.2,3.2-0.3c-1.2,0.8-2.3,1.6-3.6,2.5
		c-1.2,0-2.6-0.1-4-0.1c0.7-0.4,1.5-0.9,2.3-1.4c-0.2-0.7-0.3-1.5-0.5-2.1c-1.6-4.4-0.8-3.7-5.5-2.9c1.5-0.7,2.5-1.1,3.8-1.7
		c-0.7-2.1-1.4-4.1-2.2-6.4c-2,0.6-3.7,1.1-5.4,1.7c1.6-0.8,3.1-1.7,5-2.6c-0.3-0.7-0.6-1.5-0.9-2.6c-2.1,0.5-4,1-5.9,1.4
		c0-0.1-0.1-0.3-0.1-0.4c1.8-0.6,3.6-1.1,5.3-1.7c0.2-1.8,0.2-1.8,1.1-3c0.6,0.8,1.2,1.5,1.8,2.3
		C315.7,448.4,319.1,447.6,322.4,446.8z"/>
	<path d="M260.4,463.5c-2.3,0.8-4.8,1.6-7,2.5c0.1,3.7,0.2,3.9,2.4,4.4c-2.8,1.6-0.2,5.1-0.1,7.9c2.4-0.5,4.7-1,6.9-1.5
		c-2.1,0.8-4.2,1.6-6.7,2.6c0.7,2.2,0.1,5.1,2.5,6.1c-0.5,0.8-1,1.7-1.5,2.6c-0.9-0.5-1.7-1-2.6-1.5c0,0,0.1,0.1,0.1,0.1
		c0.3-0.5,1-1.2,0.9-1.6c-0.4-1.7-0.3-3.6-1.5-5.1c-1.1,0.1-2,0.2-2.9,0.3c1-0.5,2-1,3-1.6c-0.6-2.3-1.1-4.4-1.6-6.8
		c-1,0.3-1.6,0.5-2.3,0.8c0.7-0.6,1.4-1.3,2.3-2.1c-1.1-2.4-2.3-4.6-1.3-7.2c1.3-0.5,1.7,0.3,2.1,1.6
		C255.6,464.5,258,464,260.4,463.5z"/>
	<path d="M258.4,485.4c2.5-0.8,5.1-1.6,7.6-2.4C263.4,483.9,260.9,484.6,258.4,485.4z"/>
	<path d="M302.1,472.2c2.5-0.8,5.1-1.6,7.6-2.4C307.2,470.6,304.7,471.4,302.1,472.2z"/>
	<path d="M321.1,466.4c1.4-0.4,2.8-0.8,4.2-1.2C323.9,465.6,322.5,466,321.1,466.4z"/>
	<path d="M309.6,469.9c1.4-0.4,2.8-0.8,4.2-1.2C312.4,469.1,311,469.5,309.6,469.9z"/>
	<path d="M146.2,512.4c-3.1,1-6.2,2-9.3,2.9C140,514.4,143.1,513.4,146.2,512.4z"/>
	<path d="M153.7,510.1c-2.5,0.8-5.1,1.6-7.6,2.4C148.6,511.7,151.2,510.9,153.7,510.1z"/>
	<path d="M167.1,506.1c-2.6,0.8-5.2,1.6-7.8,2.4C161.9,507.7,164.5,506.9,167.1,506.1z"/>
	<path d="M159.5,508.4c-2,0.6-3.9,1.2-5.9,1.8C155.5,509.6,157.5,509,159.5,508.4z"/>
	<path d="M498.7,393.3c-2.6,0.8-5.2,1.6-7.8,2.4C493.5,394.8,496.1,394.1,498.7,393.3z"/>
	<path d="M491.1,395.6c-1.4,0.4-2.8,0.8-4.2,1.2C488.3,396.4,489.7,396,491.1,395.6z"/>
	<path d="M299.8,457.2c1.4-0.4,2.9-0.8,4.3-1.2C302.7,456.4,301.3,456.8,299.8,457.2z"/>
	<path class="st0" d="M250,472.7c0.7-0.2,1.4-0.4,2.3-0.8c0.6,2.4,1.1,4.5,1.6,6.8c-1.1,0.6-2.1,1.1-3,1.6l0.1-0.1
		c-1.8,0.6-3.5,1.2-5.3,1.8l0.1-0.1c-2.9-0.1-2.4-4.5-3.4-6.8C244.8,473.6,247.2,472.9,250,472.7z M247.6,478.9
		c2.9,0.4,4.1-3.2,1.2-3.3C246,475.6,245.8,477.6,247.6,478.9z"/>
	<path d="M242.5,468.1c1.3-0.4,2.5-0.8,3.8-1.1c0,0.2,0.1,0.3,0.1,0.5c-1.3,0.4-2.6,0.7-3.8,1.1
		C242.6,468.4,242.5,468.3,242.5,468.1z"/>
	<path d="M460.4,409.4c3.9-1.2,7.8-2.3,11.6-3.5C468.2,407.1,464.3,408.3,460.4,409.4z"/>
	<path d="M472,406c2.6-0.8,5.1-1.6,7.7-2.4C477.1,404.4,474.5,405.2,472,406z"/>
	<path d="M447.5,420.3c-2.6,0.8-5.2,1.6-7.7,2.4C442.3,421.9,444.9,421.1,447.5,420.3z"/>
	<path d="M439.2,416.1c2.2-1.9,5-2,7.6-2.7C444.2,414.3,441.7,415.2,439.2,416.1z"/>
	<path d="M446.6,413.5c1.4-0.4,2.8-0.8,4.2-1.2C449.4,412.7,448,413.1,446.6,413.5z"/>
	<path d="M417.3,429.9c2-1.9,6.7-2.2,9.4-3.2C423.6,427.7,420.4,428.8,417.3,429.9z"/>
	<path d="M421.3,421c1.4-0.4,2.9-0.8,4.3-1.2C424.1,420.1,422.7,420.6,421.3,421z"/>
	<path d="M413.8,423.3c1.4-0.4,2.8-0.8,4.2-1.2C416.6,422.5,415.2,422.9,413.8,423.3z"/>
	<path d="M417.8,422.1c1.2-0.4,2.4-0.8,3.6-1.2C420.2,421.3,419,421.7,417.8,422.1z"/>
	<path d="M415.5,418.7c1.8-0.6,3.6-1.2,5.4-1.8C419.1,417.5,417.3,418.1,415.5,418.7z"/>
	<path d="M411.5,419.8c1.4-0.4,2.8-0.8,4.2-1.2C414.3,419,412.9,419.4,411.5,419.8z"/>
	<path d="M321.1,459.2c1.4-1.6,3.4-1.7,5.3-2.1C324.7,457.9,322.9,458.6,321.1,459.2z"/>
	<path d="M228.6,487.1c-1.8,0.6-3.5,1.2-5.3,1.8C225,488.3,226.8,487.7,228.6,487.1z"/>
	<path d="M267,467c1.4-0.4,2.8-0.8,4.2-1.2C269.8,466.2,268.4,466.6,267,467z"/>
	<path class="st0" d="M126.1,223c2.3-1.6,8-3.5,7.3-6.9c-0.3-1.2-1.3-1.6-2.3-1.8c-3.1-0.4-5.1-0.8-8.5-1.4
		c5.3-2.9,10.6-4.6,15.3-8.4c7.5-5.7,2.6-7.3-4.3-6.7c5.1-4.2,11.1-6.6,16.6-10.1c0.9-0.5,2.5-0.8,2-2.3c-0.5-1.3-1.8-0.6-2.8-0.6
		c-1.5,0-3,0.2-4.4,0.3c-0.1-0.2-0.1-0.4-0.2-0.6c4.3-3.9,9.9-6.1,15.5-7.3c5.2-1.3,0.9-3.4-1.8-4.2c2.1-3.3,17.2-5.3,21.5-5.9
		c0.9,0,2.6-0.4,3-1c0.9-2.7-6.2-3.2-8.2-4.2c33.8-10.3,54.2,39.4,56.2,66.4c0.5,8.4,1.5,16.9,0,25.2c-1.3,10.5-14.3,18.2-25.6,12.6
		c26.7-1.1,27.1-19.3,20.7-40.5c-5.3-22.7-30-37.7-52.4-30.9c-11.3,3.3-19.3,12-26.5,20.8C142.6,221.6,133.1,231.2,126.1,223z"/>
	<path class="st0" d="M205.7,207.3c-2.3,0.4-4.6,0.8-6.9,1.2c0.1,0.5,0,0.7,0.1,0.8c2.4,3.4,2.3,5.8-0.4,9
		c-4.3,5.1-12.1,6.5-13.9-1.6c-9.5,10.8-12.9,32.2-1.5,42.7c-0.9,0.2-1.3,0.4-1.7,0.3c-8-1.6-16-3.1-23.6-6.1
		c-6.8-2.7-6.6-2.7-6.4-10C149.4,216,180.8,190.3,205.7,207.3z"/>
	<path class="st0" d="M151.9,254.4c-11.9-5-24.2-5.6-37.2-3.3c2.1-7.2,7.8-10.5,12.3-14.8c-0.5-1.6-1.6-2.2-2.8-2.5
		c-4.1-1-8.1-2.1-12.4-2.4c1.6-2.4,9-6.6,12.8-7.4c3.1,9.3,6.5,11.9,17.2,12.9c-3.8,4.5-8.6,5.3-13.8,4.4c-1.5,5,10.1,7.8,13.7,6.5
		c2.4-0.4,4.2,0.1,5.6,2.3C148.5,251.8,150.4,253,151.9,254.4z"/>
	<path class="st0" d="M207.5,229.5c-8.1-0.4-6.2-7.1-0.3-9.2c2.4-0.9,4.2,0,5.2,2.1C214.5,226.4,210.6,228.7,207.5,229.5z"/>
	<path class="st0" d="M182.8,263c3.1,0.6,6.2,1.1,9.3,1.7C190.1,265.5,186.2,264.8,182.8,263z"/>
	<path class="st0" d="M328.1,303.1c-6.9,10.7-13.2,22-18.7,33.5c-8,17.9-19.8,30.3-41,26.6c-21.3-4-16.7-30.6-24.9-45.6
		c-1.1-2.8-4.6-5.1-1.6-8.1c6.4,6.4,10.2,14.8,12,23.7c0.7,3.4,1.6,6.8,3,9.9c6.6,17.2,30.1,13.9,40.3,1.6
		c9.3-10.7,15.1-24,22.8-35.9C322.9,303.9,321.5,304.6,328.1,303.1z"/>
	<path class="st0" d="M310.5,318.9c-3.5,7.3-9.3,13.9-13.8,20.7c-1.7,2.4-4,4.4-6.3,6.2c-7.8,6.4-19.3,7.4-27.4,1.2
		c-1.4-1.1-1.6-2.7-0.9-4.4C270.3,324.3,292.5,319.8,310.5,318.9z"/>
	<path class="st0" d="M301.7,306.9c1.7,0.1,3,0.1,4.4,0.2c-0.4,2.1-0.7,3.9-2.3,5.5C302.3,311.1,302,309.2,301.7,306.9z"/>
	<path class="st0" d="M236.4,308.2c0.9,0.1,1.7,0.2,3,0.4c-0.7,1.5-1.3,2.8-1.9,4C236.5,311.1,235.4,309.9,236.4,308.2z"/>
	<path class="st0" d="M89.7,539.4c1.9-0.6,3.8-1.1,5.9-1.8c1.3,3.1,0.8,6.4,1.2,9.6c0.1,1.9-0.7,3.4-2.3,4.3
		c-2.8,1.9-15.1,6.9-16.8,2.6c-0.8-2.9-1.5-5.9-2.1-8.9c-0.2-1.3,0.8-1.5,2.1-1.5c0.6,2.3,1.2,4.5,1.7,6.8c0.2,0,0.4,0,0.6,0
		c2-2.5-2-7.1,1.5-8.6l-0.1,0.1c0.8-0.1,1.6-0.2,2.3-0.3c1.6,2.4,0.5,5.7,3.1,7.8C89.8,546.4,85.1,539.5,89.7,539.4z"/>
	<path class="st0" d="M86.4,510.1c-1.7,0.3-3.3,0.7-4.9,1c-1.5-1.3-1.5-3.8-3.9-4.2c-1.6,2.2,2.1,4.8-1.5,6.1l0.1-0.1
		c-3.3,0.7-2.9-1.5-4.6-3.6c-1,1.1-0.4,2.1-0.3,3c0.1,1-0.1,1.8-1.2,1.9c-1.7,0.2-1.4-2-1.7-3.1c-0.6-3.5-0.3-4.2,3-5.5
		c3.8-1.5,7.7-2.9,11.6-4.2c4.8-2.1,5.8,3.7,7.3,7C89,509.3,88,510.2,86.4,510.1z"/>
	<path class="st0" d="M103.7,516.5c1.9,0,3.1-0.5,5.2-1c0.4,2.7,0.7,5.1,1.1,7.5c-4.1,1.3-7.3,3.6-11.5,3.3
		c-0.9-2.3-1.3-4.6-1.4-7.3C99.3,518.1,101.5,517.3,103.7,516.5z"/>
	<path class="st0" d="M86.4,510.1c1.5-0.1,2.5-0.3,4.2-0.5c0.8,3.2,1.5,6.2,2.3,9.6c-3,0.9-5.8,1.7-8.9,2.7
		c-0.9-3.4-1.7-6.5-2.5-9.7C83.3,511.4,84.9,510.8,86.4,510.1z"/>
	<path class="st0" d="M89.9,529.7c-1.3,0.2-2.6,0.5-4.2,0.8c-0.5-2.6-1-5.1-1.5-7.9c3-0.9,5.7-1.7,8.9-2.7c0.5,2.6,1,4.8,1.3,7
		C93.9,528.6,91.6,529.8,89.9,529.7z"/>
	<path class="st0" d="M89.9,529.7c1.8-0.1,2.9-0.4,4.9-0.8c0.4,2.4,0.8,4.5,1,6.6c0.2,1.2-0.8,1.5-1.7,1.9c-8.2,4.1-6.8,1.7-8.2-5.7
		C87.3,531,88.6,530.4,89.9,529.7z"/>
	<path class="st0" d="M76.1,513c1.5-0.1,2.4,0.5,2.7,2.2c0.5,2.7,1.2,5.3,1.8,8c0,0,0,0,0,0c-1.3,0.2-2.6,0.5-4.2,0.8
		c-1.2-3.1-1.4-6.4-2.5-9.6C74.7,513.9,75.9,513.1,76.1,513z"/>
	<path class="st0" d="M81.5,541.9c-2.8,0-2.2-3.5-2.8-5.4c-0.5-2.5-0.5-2.5,1.7-3.8l-0.1,0.1c1.4-0.2,2.4-0.1,2.6,1.7
		c0.2,2,0.7,3.9,1.1,5.8C83.1,540.8,81.8,541.7,81.5,541.9z"/>
	<path class="st0" d="M80.3,532.7c-0.7,0-1.3,0-2.3,0c-0.5-2.6-1.1-5.1-1.6-7.7c1.6-0.7,2.9-1.3,4.2-1.9c0,0,0,0,0,0
		C80.6,526.1,83.8,531.5,80.3,532.7z"/>
	<path class="st0" d="M73.8,524.1c-0.8,0.9-1.7,1.5-2.4,0c-0.7-2.6-1.3-5.2-1.7-7.8c-0.1-0.4,0.5-1.1,1-1.4
		C72.6,514.7,73,522,73.8,524.1z"/>
	<path class="st0" d="M75.2,543.4c-0.5-2.5-0.9-4.5-1.3-6.6c-0.2-0.9-0.3-1.8,0.9-2c2.1-0.6,2.1,6,2.7,7.7
		C76.8,542.8,76.2,543,75.2,543.4z"/>
	<path class="st0" d="M75.7,533.5c-1.2,0.9-2.1,1-2.5-0.5c0-1.5-2.5-7.2,0-7.1C75.2,526.7,75,531.5,75.7,533.5z"/>
	<path class="st0" d="M127,509.4c-2.7,0.7-5.5,1.4-8.6,2.2c-1.8-11.4-4.2-7.5,5.6-11.7c-2.4,0.6-4.8,1.2-7.1,1.8
		c-1.6-1.4-0.8-4.6-4.2-4.9c0,2.3,2,4.9-0.4,6.4c0,0,0.1-0.1,0.1-0.1c-1.9-1.6-1.6-4.3-2.3-6.5c-0.3-1.2,0.2-2.2,1.3-2.5
		c3-0.9,6.1-1.8,9.1-2.5c3.1-0.8,3.8,3,4.6,5.1c0.9,3.3,1.7,6.6,2.6,9.9C128.1,507.8,127.6,509,127,509.4z"/>
	<path class="st0" d="M129.4,526.3c1,0,1.7,0.4,1.7,1.4c0.2,3.8,0.3,7.6,0.4,11.4c0,1.3-0.8,2.2-1.9,2.6c-3.1,1.1-6.3,2-9.5,2.9
		c-1.4,0.4-2.6-0.3-2.8-1.7c-0.6-3.8-1-7.5-1.4-11.3c0-0.4,0.5-0.8,0.7-1.2c0,0-0.1,0.1-0.1,0.1c1.1,0,1.7,0.5,1.8,1.7
		c0.3,3.1,0.4,5.8,1.1,8.9c4.7-1.9-1.2-10.9,3.1-12.5c2.3-0.8,4.7-1.6,7-2.4C129.5,526.3,129.4,526.3,129.4,526.3z"/>
	<path class="st0" d="M124,519.2c-1.3,0.2-2.6,0.5-4,0.7c-1-2.3-0.7-4.8-1.2-7.3c2.6-1,5.8-2.3,8-3.2c2.6,1.3,2,4.9,2.7,7.5
		C127.5,517.8,125.7,518.6,124,519.2C123.9,519.3,124,519.2,124,519.2z"/>
	<path class="st0" d="M123.9,519.3c1.8-0.4,3.6-0.7,5.6-1.1c0.9,2,1,4.1,1.1,6.1c0,0.7-0.8,1.4-1.2,2c0,0,0.1-0.1,0.1-0.1
		c-2.3,0.8-4.7,1.6-7,2.4c-0.7-0.2-2,0-2-1.7c0-1.9-0.3-3.8-0.5-5.7C121.3,520.6,123.1,519.6,123.9,519.3z"/>
	<path class="st0" d="M112.3,503.2c1,0.1,1.7,0.5,1.9,1.7c0.3,2.1,0.8,4.1,1.1,6.2c0.2,1.2-0.2,2-2,1.9
		C112.9,509.8,111.2,506.2,112.3,503.2z"/>
	<path class="st0" d="M116.6,530.4c-1.9-1.6-1.4-4.3-1.8-6.6c-0.1-1.4,0.7-1.8,2.3-1.5C117.3,525,118.8,528.5,116.6,530.4z"/>
	<path class="st0" d="M116.8,520.2c-0.7,1.3-2.3,1.8-2.5-0.2c0.1-1.6-2-6.3,0.5-6.3C116.9,514.5,116.2,517.9,116.8,520.2z"/>
	<path class="st0" d="M42.8,522.1c0.6,0,1.3,0,2.3,0c0.8,3.2,1.7,6.4,2.4,9.7c0.1,0.3-0.5,0.8-0.6,1c2.4,2.4,1.7,5.9,2.6,9
		c0.7,3.3,2.7,6.7,1.6,10.1c2.3,2.1,2.1,7.8,2.9,11c0.2,1.4-0.4,2.4-1.5,3.2c-2.7,1.7-8.9,3.4-9.6-1.1c-2.9-14.3-6.6-28.4-10-42.5
		c-0.3-2.3-2.4-6.1,0.6-7.3c3-1.1,7.4-2.9,9.2,1C43.2,518.1,45.8,520.8,42.8,522.1z M35.7,519c-0.6,0.7-0.9,0.8-0.8,0.9
		c4.1,14.2,6.4,29,10.2,43.2c2.3-3.7-1.7-15.6-2.2-20.5C41,534.6,39.9,526.4,35.7,519z"/>
	<path class="st0" d="M67.8,448c1.2,0,2.4,0.7,2.9,2c0.6,1.4,1.7,2,3,2.4c3.8,1.1,7.5,2.5,11.3,3.2c13.7,3.1,15.4-6.5,22.3-4.5
		c11.4,3.7,22.1,9.4,31.6,16.7c1.1,0.9,2.1,0.5,3.2,0.4c4.2-0.9,6,5.2,2.2,6.9c-2.2,1.1-4.8-0.2-5.1-2.9c-0.2-1.8-1.1-2.5-2.5-3.1
		c-5.3-2.4-10.7-4.8-15.9-7.3c-15.1-6.9-21.6,7.1-28,5.4c-7.6-2.2-14.4-5.8-20.2-11.2c-1.3-1.2-2.3-1.8-4-0.9
		C63.3,456.8,61.8,447.9,67.8,448z"/>
	<path class="st0" d="M119,574.4c16.8,1.8,20.7-10.4,29.6-21.4c1-1.3,1.4-2.4,0.6-4.2c-1.8-4.9,6.3-6.6,7.1-1.6
		c0.2,4.8-4,1.9-5.9,7.5c-26.9,51.7-22.1,12.7-47.4,42.1c-1.2,1.3-2.2,2.5-1.9,4.5c0.3,4-6.5,4.5-7.3,0.7c-0.7-5.5,4.9-2.6,5.8-7.2
		c2.3-7.1,6.5-13.2,11.6-18.7C113.1,573.7,116.2,574.4,119,574.4C119,574.3,119,574.4,119,574.4z"/>
	<path class="st0" d="M78.6,589.3c7.5,4.8,1.7,15.4-5.9,15.5c-4.3,0.4-9.3-4.9-7.6-9.3c1.4,0.8,1.4,0.8,1.8,2.2
		c0.5-0.1,1.1-0.4,1.5-0.2C73.1,600,79.6,595.2,78.6,589.3z"/>
	<path class="st0" d="M71.1,595.9c-6.2-0.4-4.4-8.8,0.9-9C78.6,587.2,76.7,595.6,71.1,595.9z"/>
	<path d="M67.4,536.6c-3.1,1-6.2,2-9.3,2.9C61.1,538.6,64.2,537.6,67.4,536.6z"/>
	<path class="st0" d="M85.6,575.5c4.7,2.4,6.8,1.5,10.1-4.1C100.6,579.2,86.1,585.6,85.6,575.5z"/>
	<path class="st0" d="M90.3,568.9c3.9,0.3,2.2,5.9-1.1,5.5C85.5,573.8,87.1,568.8,90.3,568.9z"/>
	<path class="st0" d="M113.5,597.7c6.6-1.5,7.7,6.2,2.7,8.6c-5.1,2.4-9-4.2-4.1-7.6c-1.2,3.1-0.9,4.6,1,5.2
		C117.3,604.8,119.8,599,113.5,597.7z"/>
	<path class="st0" d="M423.6,68.2c-17.9,38.4-76.1,47.8-110.8,28.6c-10.8-7.3-4-20.9,5.1-26.3C349.6,49.5,389.7,57,423.6,68.2z"/>
	<path class="st0" d="M168.7,121.9c-15.7,1-32.1-8.2-33.1-25.1c-1.5-6.1,24.5-14.9,29.7-17.1c18-5.8,44.2-12.5,61.4-2.2
		c5.7,4,7.2,9.9,4.2,16.2c-5.5,10.7-17.1,16.6-27.8,21.1C192.1,119.2,180.7,121.8,168.7,121.9z"/>
	<path class="st0" d="M412.6,676.9c-1-10.2,0-19.2,10.1-7.8c12.3,13.3,3.2,26.4-13,27.5c-5.4,0.8-7.6-4.7-3.2-8
		C410.1,685.6,412.9,681.7,412.6,676.9z"/>
	<path class="st0" d="M378.2,687.9c-3.9-0.8-7.9-1.4-11.9-2.4c-6.3-1.4-1-8,0.9-11.2c5-5.6,0.1-14.9,8.8-13.6
		c9.3,0.8,18.4,9.4,15.7,19.2c-0.9,3.3-2.9,5.6-6.2,6.6C383.2,687.2,380.8,687.4,378.2,687.9z"/>
	<path class="st0" d="M349,662.1c0.5,6.1-0.7,12.2-6.8,14.8c-8.9,4.3-6.9-17-3.9-21c1.2-2.4,2.8-4.3,5.4-5.3c6.1-2,4.9,7.8,5.1,11.4
		C348.9,662.1,348.9,662.1,349,662.1z"/>
	<path class="st0" d="M98.4,403.8c-4-1.3-7.1-5.2-7.9-9.4c-0.5-2.2,0.6-3.5,3-3.3C98.8,390.7,107.1,403.5,98.4,403.8z"/>
	<path class="st0" d="M516.6,410.1c4.2,1.1,4.4,1,8.2-1.5c1.2,1.3,0.6,2.4-0.3,3.5C522.4,414.8,515.6,414.7,516.6,410.1z"/>
	<path class="st0" d="M522.9,406.9c-1.9,1.2-3.1,2.5-4.4,0.5c-0.3-0.8,1.1-1.7,2.3-1.6C521.3,405.9,521.8,406.3,522.9,406.9z"/>
	<path class="st0" d="M549.8,400.4c3.1,1.3,5.8,1.1,8-1.6C561.7,404,548.4,407.1,549.8,400.4z"/>
	<path class="st0" d="M556.1,397.6c-1.9,0.7-3.4,2.2-4.4,0.1c-0.2-0.9,1.4-1.9,2.5-1.5C554.7,396.4,555.1,396.9,556.1,397.6z"/>
	<path class="st0" d="M552.5,380.2c3.4,5.8-9.6,8.2-7.8,1.7C547.6,383.4,550.2,382.8,552.5,380.2z"/>
	<path class="st0" d="M547.4,380.4c-1.8-1-1-2.9,1-2.8C550.9,378.2,550.4,380.4,547.4,380.4z"/>
	<path class="st0" d="M224.7,599.1c2.6-0.1,1.9,3.9-0.4,3.7C221.5,602.4,222,599.1,224.7,599.1z"/>
	<path class="st0" d="M252,602.4c3.5-0.5,3.9,3.7,1.1,4.1C250.4,606.2,250,603.9,252,602.4z"/>
	<path class="st0" d="M278.4,607c-2.9-0.2-2.4-3.7,0.2-3.6C281.1,603.2,280.8,607.2,278.4,607z"/>
	<path class="st0" d="M200.9,597.2c-0.4,0.3-1,1.2-1.8,1.3c-1.1,0.3-2.3-1-2.2-2.1C197.2,593.9,201.2,594.7,200.9,597.2z"/>
	<path class="st0" d="M296.9,606.4c-3.4-3.7,2.2-5.3,1.8-2.4C298.5,604.8,297.7,605.4,296.9,606.4z"/>
	<path class="st0" d="M310.2,602.6c-1.1-0.6-1.1-2.3,0-3C312.2,599.3,312.3,601.5,310.2,602.6z"/>
	<path class="st0" d="M283.4,470.4c-1.3,0.2-2.6,0.5-4.1,0.7c-1.3-1.8-1.5-4-2-6.1c-0.1-0.4,0.9-1.1,1.4-1.6c2.8-0.2,5.2-1.3,8.2-2
		c0.6,2.3,1.2,4.4,1.7,6.4c-0.8,0.7-1.4,1.3-2,1.8C285.6,470,284.5,470.2,283.4,470.4z"/>
	<path class="st0" d="M283.4,470.4c6.7-1.4,5.5-2,7.2,4.5c-0.6,0.4-1.6,1.2-1.8,1.4c-2.8-2.5-4.8-3.3-5.8,1.1
		c-2.8,2.5-3-3.2-3.8-5.1C280.7,471.7,282,471,283.4,470.4z"/>
	<path class="st0" d="M280.2,463.4c-2.8,0.1-4,0.7-4.1-3.6c1.2-0.5,2.2-1.3,3.6-0.3c3.1,2,3.1-3,6-1.9c0.3,0.8,0.6,1.8,0.9,2.9
		C284.5,461.5,282.3,462.4,280.2,463.4z"/>
	<path class="st0" d="M234.3,485.4c-2.8,0.6-2.5-2.1-3-4c-0.6-2.9-0.6-2.9,2.7-4.5c-1.4,0.2-2.2,0.3-3.3,0.5
		c-0.4-1.6-0.7-3.1-1.1-4.9c2.3-0.9,5.2-2,7.1-2.7c4.3,1,2.5,3.4,3.7,6.2c0.9,2.2,2.7,4.5,1.3,7.2c0,0,0.1-0.1,0.1-0.1
		c-2.5,0.8-5.1,1.6-7.6,2.4L234.3,485.4z"/>
	<path class="st0" d="M241.7,483.1c2.1,1.4,2,3.5,2.8,5.9c-3.6,1.5-7.1,2.6-11,3.4c-0.3-1.3-0.6-2.4-0.8-3.5
		c-0.4-2.2-0.4-2.2,1.6-3.6C236.1,484.9,239.5,483.8,241.7,483.1L241.7,483.1z"/>
	<path class="st0" d="M250.9,480.3c0.9-0.1,1.9-0.2,2.9-0.3c1.2,1.4,1.1,3.4,1.5,5.1c0.1,0.4-0.6,1.1-0.9,1.6
		c-2.8,0.7-5.4,1.4-8.3,2.1c-0.3-2.4-2.7-5.3-0.3-6.8C246.9,481.6,249.4,480.7,250.9,480.3L250.9,480.3z"/>
	<path d="M251,480.2c-1.8,0.6-3.5,1.2-5.3,1.8C247.5,481.4,249.2,480.8,251,480.2z"/>
	<path d="M122.5,528.6c2.3-0.8,4.7-1.6,7-2.4C127.2,527,124.8,527.8,122.5,528.6z"/>
	<path d="M241.8,483.1c-2.5,0.8-5.1,1.6-7.6,2.4C236.7,484.7,239.3,483.9,241.8,483.1z"/>
</g>
</svg>
