<?xml version="1.0" encoding="utf-8"?>
<!-- Generator: Adobe Illustrator 26.0.0, SVG Export Plug-In . SVG Version: 6.00 Build 0)  -->
<svg version="1.1" id="Capa_1" xmlns="http://www.w3.org/2000/svg" xmlns:xlink="http://www.w3.org/1999/xlink" x="0px" y="0px"
	 viewBox="0 0 595.3 342.8" style="enable-background:new 0 0 595.3 342.8;" xml:space="preserve">
<style type="text/css">
	.st0{fill:#FFFFFF;}
</style>
<g>
	<path d="M595.2,115.3c-2.1-28.5-11.5-62.1-38.8-76c-22-10.9-53.8-3.1-61.4,22.1c-5.9,17.9-0.1,40.5,17.4,49.5
		c3.2,1.7,6.5,3.2,9.8,4.9c3.9,2.2,9.3,3.8,10.3,8.7c2.9,11.4,0.2,23.2-4,34c-6.3,16.3-21.2,26.6-35.6,35.4
		c-0.6-1.9-2.2-3.2-1.6-5.1c2-6.7,1.4-13.9,0.8-20.8c-0.2-1.6,0.2-2.8,1.6-3.6c4.7-2.8,5.7-8.9,5.4-14
		c-1.5-21.6-29.9-39.5-41.2-14.1c-0.6,2.4-6.6,8.5-9,6.8c-6.7-4.7-14.2-8.1-21.8-11c3.3-6.9,1.3-16.2-5.7-19.9c-2.6-1.2-5-2.7-7.6-4
		c-11.3-5.7-24.2-4.6-35,2.1c-0.5-25.9-16.2-52.2-43.9-54.6c-16.1-1.2-31.6-5.3-46.4-11.6c-1.1-0.4-1.8-0.9-2.1-2.1
		c-1.2-4.5-2.5-8.9-3.7-13.3c-3-9.8-10-17.9-17.7-24.3c-3.2-2.4-7.4-5.5-11.5-3.9c-15.9,7.7-28.6,21.8-36.5,37.4
		c-4.6-3.9-6.4-4.5-12.5-5.4c-4.1-0.7-4.3-0.3-6.4-4.4c-7.6-14.4-29.6-10.5-33,6.5c-1.9,6.8-1.9,14-1.3,20.9c-1.5,0.8-2.8,1.5-4,2.2
		c-15-20-42.8-32.4-56.3-3.7c-1.2,2.4-3.1,10.1,0.9,10.6c2.1,0.1,2.5-2.1,2.9-3.7c1.5-7.3,10.3-11.7,17.2-10.5
		c-1.2,2.3-4.3,4.6-2.5,7.2c1.1,1.3,2.6,0.5,3.9,0.3c1.9-0.2,3.8-0.5,5.7-0.5c7.9,0.2,15.2,3.6,21.7,7.9c-1.7,4.1-0.5,3.3-4.5,3.5
		c-6.8,0.2-13.5,0.9-20,2.9c-7.5,2.3-18.8,10.9-17.7,19.5c1.2,8.9,9,14.3,17.5,15.9c0.8,0.2,1.3,0.4,1.6,1.2
		c1.8,4.9,5.6,7.9,9.8,10.9c-13.9,5.6-26.9,13.1-37,24.3c-8.3,8.7-16.5,18.3-19.7,30.2c-3.9,12.8,13.3,21.7,21.8,28.3
		c8.3,6.1,17.3,11,27.5,13.1c7.6,2.2,17.1,2.7,20.8,10.8c12.2,25.1,26.9,56.8,57.9,61.1c22.9,3,45.8-4.5,65.1-16.6
		c2.4,1.6,4.7,3.2,7.1,4.8c-16.2,13.4-34.1,27-55.5,29.8c-17.5-2-36.8-2.3-51.2,9.7c-6.9,5.2-12.4,12.2-19.8,16.9
		c-10.1,5.7-21.9,7.1-33.4,6.6c-13.7-0.7-26.8-5.8-40.5-6.6c-27.6-2.8-55.4-0.9-83,0.8c0,1.1,0,2.2,0,3.2
		c32.2-1.6,64.9-4.8,96.8,1.3c17.5,4.2,35.7,7.5,53.2,1.1c10.3-2.8,17.4-10.8,25-17.8c10.6-9.9,25.8-14.5,40.1-12.7
		c-3.9,1.4-7.8,2.3-11.6,3.7c-18,6.8-32.8,22.6-5.3,29.7c14.4,4,28.9,0.3,43-3c6.9-1.7,14.3-2.9,20.2-6.9c4.1-2.8,2.3-8.1-0.7-11
		c-6.8-7-16-9.9-25.1-12.9c19.1-5.1,34.8-16.9,49.8-29.2c0.8-0.6,1.4-0.8,2.4-0.3c4.4,2,8.9,3.9,13.4,5.7c11.7,4.2,23,9.4,33.1,16.6
		c15.7,10.5,32.6,18.3,50.9,23.1c30.3,6.8,59.9,23.1,91.7,18.9c8.1-1.8,16.6-4.7,22.6-10.5c2.1-2.3,4.1-4.7,6.1-7
		c2.9-3.3,6.9-4.8,6.2-10c-1.8-13.5-9.1-25.7-20-33.9c-2.6-2.1-4.9-1.7-8-1.6c8.5-11.5,14-24.7,15.4-39c0.2-1.2,0.6-1.8,1.7-2.1
		C556.7,220,597.3,176.1,595.2,115.3z M248.4,315.4c3.5,1.6,16.8,9.5,10.5,13.5c-2,1.1-4.2,2.1-6.4,2.8c-13.2,3.5-26.5,7.3-40.2,8
		c-5.8,0.4-29.2-3.4-25.7-12.1c4.3-7.3,12.6-11.2,20.2-14c6.7-2,13.6-4.2,20.6-4.6C234.6,310.3,241.7,312.2,248.4,315.4z"/>
	<path class="st0" d="M182.5,269.2c-2.5-3-4.9-5.8-7.4-8.7c11.4-7.2,19.3-18.2,26-29.7c4.3-7.7,5.8-16.8,6-25.6
		c-1.1-0.2-1.2,0.5-1.5,1c-8.5,16.9-21.9,33-41.3,37.1c-2.8-5.3-5.2-10.6-7.8-16c-2.4-5.1-5.9-9.6-11.5-11.1
		c-3.9-1.2-7.9-2.3-11.9-3.2c-15.1-3-26.9-12.9-38.9-21.9c-2.3-1.8-4.4-4.1-6.4-6.2c-5.6-5.7-1.6-14,1.6-19.9
		c7.8-13.2,18.8-24.6,31.4-33.3c10.2-7.7,23.8-9.1,33-18.1c6.9-6.6,7.8-16.4,11.2-24.9c1.7-4.4,4.1-8.9,8.2-11.5
		c11.4-8,24.2-14,37.1-19.2c7.2-2.9,15-6.8,9.5-15.7c-0.9-1.2-0.8-2.3-0.1-3.6c7-14.7,19-27,33-35.2c8-5.3,23.2,14.6,26,21.1
		c2.6,5.9,4,12.3,5.7,18.5c0.3,1.3,0.6,2.6,2.1,3c-0.1,1.8-1,3-2.5,3.5c-4.4,1.6-9.1,1.8-13.7,2.8c-20.4,4.9-12.5,29.7,0,39.2
		c13.4,10.8,31.7,10.4,39-6.9c2.1-5.6,4.6-10.9,7.3-16.3c-1.8,0.1-2.7,1.3-3.9,2c-4.5-3.7,2.6-8.3-5.1-16.7
		c8.2,2.1,15.8,3.2,24.1,4.4c-3.3,1.8-6.6,3.6-8.1,7.3c0.9,0.7,1.5,0.1,2.1-0.2c6.4-2.6,17-6.3,23.4-2.7c-3.3,1-6.9,1.7-9,4.7
		c0.1,0.1,0.1,0.3,0.2,0.4c7.7,1.2,17.9-2.1,23.2,5.3c1.1,1.5,2.3,2.9,3.4,4.3c-0.1,0.1-0.1,0.2-0.2,0.3c-3.4-0.7-7-1.5-10.3,0
		c0.2,1.1,1,1,1.6,1.2c6.6,2.2,13.7,5.9,15.7,13.1c0.9,4.3,5.4,19.5,1.4,22c-3.1,2.7-6.4,5-9.8,7.3c-4.8,3-7.5,5.9-6.6,11.9
		c-21.2,7.1-38.5,22.7-50.8,41.2c-7.3-9-15.4,1.4-22.6,5c-13.9,8.6-25.4,23-27.5,39.5c-3.1,18.5,2.2,37.8,16.3,50.3
		c-14.7,8.9-30.2,15.2-47.8,16.2c5.5-14.7,4.5-30.3-2.5-44.2c-1.2-0.9-1.1,1.3-1.1,2c-0.1,6-0.6,11.9-1.5,17.9
		c-1.3,8.2-4.4,15.8-7.7,23.3c-1,2.7-15.7-2.8-17.5-4.5c14.9-18.8,20.2-36.7,22.8-60.2c-1.2-0.2-1.3,0.6-1.6,1.1
		C208,238.2,198.2,256.4,182.5,269.2z M209.6,193.6c0.9-0.5,0.9-1.1,1.4-1.9c3.3-8.2,8.8-14.8,16-19.8c9.9-7.4,31.5-13.9,23.4-29.9
		c-0.8-2.1,0.8-3.6-1.1-6.3c-11.3-16.3-35.5-20.9-50.3-6.6c-9.9,7.3-11.5,19.9-13.9,31.2c-1.2,5.9-7.6,8.1-11.7,11.8
		c-4.9,3.7-3,5,2,6.2c4.4,1,8.8,1,13.2,0.5c1.8-0.2,2.5,0.6,2,2.3c-0.9,3.1-3,5.6-5.6,7.4c-1.3,1.1-4.6,2.4-4.6,4.3
		c3.3,3.1,18.4-1,21.9-3.8c1.9-1.5,4.2-0.7,6.4-0.3C208.9,190.4,209.2,191.9,209.6,193.6z M274.2,151.6c5,7.7,15.7,8.5,22.7,3.2
		c2.9-2.2,6.5-2.6,10-2.4c9.9,1.3,19.4-2.6,16.2-14.2c-0.9-3.3-1.9-6.7-2.9-10c-1.8-3.5,6.2-3,5.2-13.2c-1-11.2-14.1-17.6-23.8-12.4
		c-6.1,2.7-11.5,7.4-18.4,7.5c-5.9,0.4-18.3-1.1-13.3,8.6c1.3,3.1,3.5,6.1,3,9.6c-0.6,6-2.6,11.9-1.4,18
		c-13,6.2-29.7,22.1-35.6,33.5c10.5-12.4,21.9-24.5,36-32.8c0.7,1.4,1.3,2.6,1.9,4c-14.3,10.1-29.9,37.3-32.6,51
		C249.3,183.6,259.2,165.4,274.2,151.6z M142.1,155.4c-0.9-10.7,2.5-15.1-10.6-12c-13.4,3.6-47.4,22.5-32,39.1
		c11.4,11,25.8,19.1,41.9,19.8c2.6,0,6.7,0.2,6.7-3.4C146.5,184.6,141.4,169.4,142.1,155.4z M175.4,149.8c1-0.9,0.9-1.9,0.7-2.9
		c-4.2-15-1.2-27.3,10.2-38c1.1-1.6,3.8-5.1,0.5-5.9c-2.7-0.7-5,1.4-6.8,3.1C170,117.2,166.2,137.4,175.4,149.8z M275.5,46.5
		c-1.2-1.9-2.8-2.3-4.4-2.7c-11.9-2.5-30.8-2.1-36.7,10.5c-0.4,1.3,0.1,2,1.3,2.6c1.9,0.9,3.6,0.6,5-1.1c6.7-8,17.9-11.2,28.1-9.2
		C271.1,46.9,273.2,47.3,275.5,46.5z M266.2,40.7c2,0.1,5.3,0.3,8.5,0.6c2,0.3,2.1-0.4,1.9-2.3c-0.5-9.9-13.4-34-25-23.3
		c-5.8,7-10.2,15.2-15.3,22.8c-1,1.5-1.7,3.3-2.2,5.1c-0.5,1.6,0.1,2.1,1.8,1.6C245.4,42.2,255.1,41,266.2,40.7z M189.1,86.7
		c-3.5,2.8-7.5,4.6-9.9,8.5c-1.5,2.9,1.2,1.9,2.7,1c16.2-9.4,35.4-7.6,51.8,0.4c4.1,0-2.9-5.7-3.9-6.4c-11.1-7.8-23.5-10.6-36.9-8.9
		C189.2,81.8,182.4,83.5,189.1,86.7z M227.4,83.3c-4.3-6.1-9.9-11.3-12.1-18.8c-0.6-1.7-2.3-4.4-4.1-2.2c-1,1.2-1.7,2.8-2.3,4.2
		c-0.5,1.3-1.2,2.2-2.7,2.3c-1.3,0.3-3.1,0.8-3.3,2.4c0,1.3,1.3,1.8,2.3,2.2c2.4,1.1,4.8,2.2,7.1,3.5
		C214.2,77.4,227.8,87,227.4,83.3z M316.3,100.7c9.2-12.9,22.9-21.2,38.2-24.8C338.4,77.2,323.7,86.3,316.3,100.7z M276.2,156.7
		c-10.3,6.7-19.3,28.4-19.2,37.6C261.4,180.8,266.5,167.2,276.2,156.7z M335.9,67.1c-13.6,5.1-21,19.4-25.3,32.5
		C318.7,86.1,321.5,76.5,335.9,67.1z M319.4,102.8c10.4-7.8,23.4-11,36.2-9C343.3,89.5,328.8,92.7,319.4,102.8z"/>
	<path class="st0" d="M495.2,75.1c-0.5-41.2,55.1-50.2,77-20c10.6,12.8,15.8,29,18.8,45.1c1.6,8.8-7.4,14.9-14.9,16.7
		c-4.1,1-7.1,3.2-9.9,6c-3.9,3.9-8.2,8.4-14.3,7.8c-6.2-0.6-14.8-2.6-17.8-8.6c-1-2.6-3-4.3-5.3-5.6
		C508.2,106.9,495.9,100.3,495.2,75.1z"/>
	<path class="st0" d="M535.7,126.9c7.4,4.7,18.2,8.4,25.8,2.4c2.7-2.2,5.2-4.5,7.7-7c1.7-1.7,3.7-2.9,6.1-3.5
		c6.6-1.8,13-5,16.4-11.4c5.6,38.9-12.8,80.3-44,103.9c-14.9,10-31,18.4-48,24.1c-0.4-3.3-0.4-6.7,0-10c-0.8-9.9-2.5-19.7-5.8-29.1
		C520.4,181.3,538.9,159.1,535.7,126.9z"/>
	<path class="st0" d="M481.3,282.8c13.4,9.8,19.1,25.9,19.4,42c-1,7.4-15.6,12.5-22,14.3c-12.7,2.7-25.9,0.7-38.3-2.5
		c-18.7-5-37.2-10.9-55.7-16.5C422.1,329.1,455.8,308.5,481.3,282.8z"/>
	<path class="st0" d="M286.8,180.9c1,1.8,1.1,1.9,2.9,1.5c5.4-1.4,28-2.6,23.4,7.5c-4.4-0.8-8.9-0.2-13.3-0.2
		c-3.7,0.3-7.2-0.5-10.8-1.4c-1.6-0.5-2.2,2-0.5,2.3c5,1.6,10.1,1.7,15.2,1.3c1.7,0,3.5-0.1,5.2-0.2c5.8-0.1,8.9,6,6.9,10.7
		c-0.5,1.2-1.5,2.3-2.3,3.4c-0.5,0.6-1.1,0.8-1.9,0.6c-8.1-2.3-16.6-2.6-24.8-0.4c-1.6,0.1-2.5,2-0.6,2.5c5.4-1,10.8-2.3,16.3-1.5
		c2.8,0.4,5.5,0.9,8.3,1.6c1.8,0.5,3,2,3.8,3.6c3.9,8.7-4.6,7.3-7.8,12.7c-0.9,1.7-2.3,3-3.6,4.4c-2.3,2.3-4.7,4.4-6.9,6.7
		c-1.3,1.3-2.8,1.7-4.5,1.9c-18.4,0.7-33-20-25.4-37C271.7,192.9,278.5,185.9,286.8,180.9z"/>
	<path class="st0" d="M413.2,240c-8.4-1.2-16.6-3.4-24.9-5c-1.8-0.4-1.7-0.5-2-2.2c-2.8-21.1-4.9-42.5-3.1-63.7
		c6.9-0.9,14-0.6,21-0.2c1.5,0.1,1.5,0.1,1.9,1.6C412.2,193.1,414,216.7,413.2,240z"/>
	<path class="st0" d="M159.1,73c-7.7,5.1-14.4,11.2-20.7,17.9c-0.6,0.4-0.9,1.2-0.7,1.8c0.3,0.5,0.9,0.3,1.2,0
		c6.7-6.8,13.4-13.8,21.8-18.5c1.8,1.4,5.4,5,4.8,7.3c-5.3,8.3-5.3,18.9-11.2,26.9c-2.3,3.1-8.5,10.7-12.7,8.9
		c-4.5-2.5-8.1-5.7-9.7-10.8c-0.3-1-1.1-1.3-2-1.5c-3-0.6-5.9-1.6-8.6-3c-4.5-2.3-6.8-6.1-7.9-10.8c-1.2-7.1,9.6-15.4,15.9-17.1
		c7.6-2.4,15.6-2.9,23.6-3C155.1,71.2,157.1,71.8,159.1,73z"/>
	<path class="st0" d="M419.6,170.5c5,0.7,23.7,5.2,25.5,9.6c4.9,17.3,5.5,46.2,0.8,63.4c-6.4-0.2-12.8-0.8-19.5-1.6
		C428.4,217.6,425.1,194.3,419.6,170.5z"/>
	<path class="st0" d="M173.4,58.2c-2.2-0.7-4.1-1.4-6.1-1.9c-1-0.3-1.1-1-1.1-1.8c-0.4-10.9-0.8-24.8,9.9-31.1
		c8.4-4.6,17.7,0.3,20.9,7.8c1.5,3.5,5.4,3.5,8.6,4c5.1,0.5,8.9,2.9,11.3,7.5c1.7,2.8,3.7,6.6,0.2,8.9c-5.9,4.2-13.1,6-19.6,9.2
		c-5,2.3-9.7,5-14.6,7.4c-2-3.7-4.6-6.6-8.2-9c5.5-7.4,11.2-14.3,18.4-20c0.5-0.4,1.5-0.8,0.7-1.7c-0.7-0.7-1.3,0-1.8,0.4
		C184.8,43.7,179,50.9,173.4,58.2z"/>
	<path class="st0" d="M295.7,239c2.8,6.8,5.6,13.5,8.5,20.3c-5.3,5.1-11.7,9.1-17.6,13.6c-4.2,2.4-20.4-15-21.9-19.7
		c-6.4-12.3-7.8-32.3-1.6-44.6c-0.6,7.7,1.4,15.2,6.8,20.8C276.4,236.5,286,241.7,295.7,239z"/>
	<path class="st0" d="M415.1,128.9c1.7-2.6,3.2-5.4,2-8.5c-0.8-2.2-1.9-4.4-2.8-6.6c-0.3-0.7-0.9-1-1.6-0.6c-0.7,0.4-0.9,1-0.5,1.7
		c1.9,4.2,4.9,8.6,0.8,12.4c-0.7,0.7-1.5,1-2.4,0.8c-2.9-0.3-5.8-0.7-8.7-0.9c-0.9-0.1-1.3-0.5-1.5-1.4c-0.6-3.4-1.2-6.8-1.8-10.2
		c-0.3-1.2-0.7-4-2.3-3.4c-0.9,0.4-0.8,1-0.7,1.8c0.7,4.4,2.1,8.5,2.2,13c-3.8,0-7.1,0-10.7,0.2c-1.3,0.1-1.7,0-1.9-1.3
		c-0.4-1.9-0.5-3.9-0.7-5.8c0.2-1.1,0-2.7-1-2.6c-2.5,0-1.2,7.3-0.7,8.9c0.1,0.5,0.2,0.6,0,1.3c-7.2,0.8-14.4,2.3-21.4,4.5
		c-2-5.3,4-7.8,7.3-10.4c2.7-2,5.4-4,8-6.1c10.2-9.4,26.1-11.5,38.1-4.2c1.7,1.1,3.5,2.1,5.4,2.8c5.2,2.1,7.7,9.9,5.8,15.1
		c-0.3,0.8-0.9,1.9-1.9,1.9C421,130.4,418.1,129.7,415.1,128.9z"/>
	<path class="st0" d="M482.9,128.8c10,4.1,23.6,32.1,4.3,30.9c-0.7,0-1.7-0.4-1.8,0.6c-0.1,1.1,1,0.9,1.7,1c2.4,0.2,4.8,0,7.3-1.2
		c-0.5,1.6-3,3-4.3,4c-6.7,2.1-15.9,0.5-21.3-4.1c-3.5-3-6.5-6.6-8.1-11c-1-2.9-2.3-6.1-1.7-9.2c1.5-2.2,3.4-7.6,5.6-8.7
		c-2.6,9,2.4,18.2,8.6,24.5c1.8,0.3,1.1-1.3,0.2-2.1c-4.6-5.5-9-12.4-7.7-19.9C466.6,125.5,477.1,124.6,482.9,128.8
		c-4.6-0.6-3.3,5.4-0.8,7.2c2,2,4.2,0.2,3.8-2.1C485.6,131.8,484.2,130.3,482.9,128.8z M493.4,150.2c-0.5-4.6-4.2-13.8-10.6-12.3
		c-5.6,1.1-12.7,8.9-6.6,13.6c3.1,2.1,5.5,5.4,9.3,6.1C490,158.3,493.4,155.5,493.4,150.2z M475.3,140.2c-0.4-2.5-2-5.5-4.8-6.3
		c-2-0.4-3.4,0.8-3.4,2.8C466.6,140.5,474.3,146.2,475.3,140.2z M479.6,134.7c0.1-2.7-3.8-7.4-6.8-5.2
		C468.9,132.8,478.9,141.2,479.6,134.7z"/>
	<path class="st0" d="M380,169.2c-1.5,21.7,0.3,42.9,3.2,64.2c-2.7,0-5.1-1.3-7.7-1.8c-0.9-0.2-1.2-0.9-1.3-1.7
		c-2.9-18.7-4.5-37.5-3.1-56.4c0.2-2-0.2-3.2,2.3-3.3C375.4,169.8,377.5,169.5,380,169.2z"/>
	<path class="st0" d="M174.3,259.2c-3.5-4.7-6.5-9.5-9.3-14.7c18.4-4.5,31.9-18.7,40.2-35c0.1,0.1,0.3,0.1,0.4,0.2
		c-0.9,7.2-2.3,14.7-6,21.1C193.1,241.7,185.8,252.8,174.3,259.2z"/>
	<path class="st0" d="M423.1,241.6c-2.3-0.3-4.4-0.6-6.5-0.9c0.5-24.1-1-47.7-7.1-71.1c1.4-0.2,2.4,0,3.7,0.2
		c3.6,0.4,2.9-0.2,3.8,3.5C421.9,195.5,425.4,218.6,423.1,241.6z"/>
	<path class="st0" d="M104.5,60.4c0.5-7.7,6.1-14,12.2-18.2c15.1-9,32.9,5.7,41.5,17.7c-1.1,1.1-2.2,2.3-3.3,3.4
		c-9.4-5.9-19.1-10-30.6-7.7c1-3.9,5.6-4.7,5.3-6.2c-0.1-0.8-0.7-1.1-1.3-1.2c-9.5-2.2-21.1,2.1-23.4,12.3
		C104.7,60.5,104.6,60.5,104.5,60.4z"/>
	<path class="st0" d="M216.6,225.2c-1.5,8.7-3,17.4-5.8,25.8c-3.8,10.1-9.6,19.4-16.3,27.8c-4.1-2.3-7.5-5.3-10.9-8.7
		c14.5-12.1,23.7-28.7,32.7-45C216.4,225.2,216.5,225.2,216.6,225.2z"/>
	<path class="st0" d="M376.6,317.8c-21.1-5.9-38.4-19.3-57.2-29.7c-10-4.9-20.6-7.8-30.5-12.8c5.8-4.3,11.4-8.5,17.1-12.8
		c13.1,29,43.1,42.9,70.7,54.9C376.6,317.6,376.6,317.7,376.6,317.8z"/>
	<path class="st0" d="M316,245.1c2,1.2,3.9,2.2,5.6,3.4c0.5,0.3,0.6,1.1,0.9,1.7c9,27.5,28.3,44.6,51.1,60.7
		C344.6,300.3,321.2,275.9,316,245.1z"/>
	<path class="st0" d="M372.5,239.8c-1.9-0.8-5.1-0.7-5.7-2.8c-6-21-6.4-42.7-4.7-64.4c1.9-0.5,3.7-0.9,5.6-1.4
		C366.5,194.5,368.2,216.7,372.5,239.8z"/>
	<path class="st0" d="M469.2,187.4c11.7,9.4,27.2,27.5,27.8,42.9c-0.4,4.3,0,8.8-0.7,13.1c-3.9-0.8-7.4,0.2-11.3,0
		c0.6-9.4,0.6-18,0.1-27.4c3.3,3.9,5.5,8.4,8.2,12.7c1.1,1.8,3.7,0.5,2.8-1.5c-0.3-0.7-0.6-1.3-1-1.9c-6.3-11-14-21-23-29.9
		C469.7,193.2,470,190.5,469.2,187.4z"/>
	<path class="st0" d="M449.5,181.4c2,1.4,4.1,2.7,6,4.1c0.4,0.3,0.6,0.9,0.6,1.4c2,12.5,2.9,25.1,1.6,37.7
		c-0.5,5.9-1.5,11.7-2.3,17.6c-0.2,1.7-0.3,1.8-2.1,1.7c-1.2,0-2.5-0.1-3.7-0.2C453.1,222.9,453.2,202.3,449.5,181.4z"/>
	<path class="st0" d="M415,315.1c-3-1.6,2.9-7.7,4.4-9.1c11.1-10.1,20.1-21.8,27.4-34.9c2.6,0,5-0.6,7.5-0.2
		C445.5,288.9,431.5,303.7,415,315.1z"/>
	<path class="st0" d="M423.6,316.7c17.6-10.6,33-26,40-45.6c0.4-1.2,1.1-1.7,2.3-1.8c2-0.3,4-0.6,6.3-1c-7.9,22-25.9,41.7-48.4,48.8
		C423.7,316.9,423.6,316.8,423.6,316.7z"/>
	<path class="st0" d="M423.1,271c-2,13.6-4.9,26.6-10.9,38.9c-0.3-0.3-0.6-0.4-0.6-0.5c-1-2.3-3.7-5.5-3.3-7.9
		c2.3-10.3,4.5-20.5,6-31C417.2,270.6,420,270.8,423.1,271z"/>
	<path class="st0" d="M502.4,323.8c-0.5-6.5-1.9-12.7-3.4-19c-2.6-8.9-8.4-17-15.9-22.4c2.6-1.7,4.8-1.7,6.8-0.2
		c10.6,7.9,18.9,20.7,19.3,34.1c-0.2,0.9-0.7,1.9-1.4,2.4c-1.8,1.4-3.4,3-4.9,4.7C502.9,323.6,502.8,323.6,502.4,323.8z"/>
	<path class="st0" d="M381.9,306.8c-15.1-13.2-26.6-29.1-34.7-47.7c3.2,0.4,6,1.6,9.1,2.3c1.2,0.3,1.8,0.9,2.2,2
		C364,279,372.9,293,381.9,306.8z"/>
	<path class="st0" d="M180.6,69.5c-4.4,2.7-9,5.2-12.7,9.1c-3.3-5.1-7.2-8.6-13.2-9.9c1-3.6,4.2-5.7,6.4-8.4
		C166.2,54.5,178.9,63.7,180.6,69.5z"/>
	<path class="st0" d="M306.3,85.5c-0.7-1.8-1.4-3.4-2-5c-3.2,1.4-5.9-1.8-2.9-4.2c-9.6-12.2-33.3-10.6-36.8,6.2
		c-1-1-1.4-1.9-1.9-3.1c-1.5-3.7-1.8-3.1,0.7-6.8c3.1-4.5,7.5-7.2,12.8-8.2c12.6-2.3,22.5,2.2,30.3,11.9
		C309.9,79.7,308.1,81.4,306.3,85.5z"/>
	<path class="st0" d="M214.3,285c6.2-12.9,9.2-25.7,9.5-40c6.2,12.3,6.1,26.2,1.3,39.1c-0.2,0.8-0.7,1.2-1.6,1.2
		C220.5,285.4,217.5,285.5,214.3,285z"/>
	<path class="st0" d="M462.7,244c-2,0-3.8,0-5.8,0c3.4-18.8,4.1-37.5,1.1-56.3c0.1-0.1,0.3-0.1,0.4-0.2c1.6,1.4,4,2.4,4,4.8
		C464.8,209.4,465.6,226.9,462.7,244z"/>
	<path class="st0" d="M405.9,297.5c-2.7-4-10.9-24.9-11.5-29.1c5.5,0.6,10.9,1.1,16.6,1.7C409.8,279.4,408.1,288.3,405.9,297.5z"/>
	<path class="st0" d="M260.9,73.6c-2-20.9,29.7-17.1,41.1-9.2c2.4,1.7,11.1,7.6,9,10.8c-0.5,0.9-0.9,1.9-1.5,3.2
		C299.9,61.2,272.3,55.1,260.9,73.6z"/>
	<path class="st0" d="M362,151.2c-0.2,2,0,3.5-2.1,4.3c-16,7.4-32.5,14.9-45,27.5c-1.3-0.8-2.4-1.6-3.8-2.5
		C324.9,166.4,343,156.8,362,151.2z"/>
	<path class="st0" d="M357.5,234.9c-1.9-1-4.2-0.8-4.5-2.9c-3-15.8-4.3-31.9-4-48c0-1.7,0.2-3.5,0.1-5.2c0-1,0.4-1.6,1.3-1.9
		c1.1-0.5,2.1-1.3,3.7-1.3C352.6,195.4,353.3,215,357.5,234.9z"/>
	<path class="st0" d="M476.9,243.9c-2.1,0-4.1,0-6.2,0c2-14.8,2.3-29.4,0.9-44.2c2.2,1.4,3.6,3.8,5.4,5.7c0.5,0.6,0.8,1.4,0.8,2.1
		C478.4,219.6,478.1,231.7,476.9,243.9z"/>
	<path class="st0" d="M405.6,156.6c19.4-0.8,38.1,4.5,54.2,15.2c2.5,1.5,2.5,3.9,3.5,6.5c-16.8-10.6-35.4-17.5-55.4-19.1
		C406,159,406,159,405.6,156.6z"/>
	<path class="st0" d="M357,293.6c-11.3-7.1-27.9-30.4-30.6-42.4c2.7,0.6,5,2.1,7.6,3.1c0.9,0.4,1.4,0.9,1.8,1.8
		C341.3,269.4,348.6,281.9,357,293.6z"/>
	<path class="st0" d="M394.7,315.6c-11.4-8.3-28.1-38.9-32.9-52.6c1.8,0.1,3.4,0.5,5,1c0.4,0.1,0.7,0.9,1,1.4
		C376.3,282.4,384,299.9,394.7,315.6z"/>
	<path class="st0" d="M384.3,267c1.9,0.3,3.8,0.5,5.6,0.8c0.8,0.1,0.8,1,1,1.5c1.8,5.1,3.5,10.3,5.5,15.3c2.3,5.6,4.8,11.2,7.4,16.7
		c1.1,2.1-0.3,4-0.8,6.2C399.2,303.4,384.6,271.9,384.3,267z"/>
	<path class="st0" d="M415.7,316.7c16.9-11.9,31-26.6,40.2-45.3c0.8-1.8,2.8-0.9,4.5-1.3C452.7,290.6,435.6,308.1,415.7,316.7z"/>
	<path class="st0" d="M456.8,162.9c-15.6-11.8-34.1-20-54-19.5c-2.9,0.1-4,0-4.6-3.5c18,0.6,36.6,4.5,52.4,13.5c0.8,0.5,1.5,1.2,2,2
		C454.1,158,455.6,160.1,456.8,162.9z"/>
	<path class="st0" d="M341.5,228.1c-1.8-0.6-5.5-1.7-5.4-3.7c-2.2-16.9,0.4-34.1,3.6-50.7C340.4,190.9,339,210.1,341.5,228.1z"/>
	<path class="st0" d="M346.3,169c-1.3,21.1-0.6,41.8,3.1,62.5c-1.6-0.1-2.8-0.8-3.9-1.5c-0.3-0.2-0.5-0.9-0.6-1.4
		c-1.9-13.9-2.1-27.9-1.9-41.9c0-4.8,0.3-9.6,0.3-14.3C343.2,170.2,344.6,169.8,346.3,169z"/>
	<path class="st0" d="M332.2,287.4c-14.8-12.9-23.8-32.1-27.1-51.2c1.8,1.7,3.6,3.4,5.6,4.9c0.9,0.7,1.3,1.4,1.5,2.5
		c2.8,16.1,9.9,30.9,20.3,43.5C332.4,287.3,332.3,287.3,332.2,287.4z"/>
	<path class="st0" d="M418.3,304.4c1.5-4.2,2.5-8.2,5.6-11.5c5.3-6.1,9.8-12.8,13.7-19.9c1.3-2.8,4.4-1.4,6.8-1.8
		C442.9,277.2,424.1,301.1,418.3,304.4z"/>
	<path class="st0" d="M416,251.9c9,0.9,17.7,1.7,26.7,2.6c-0.5,1.8-1.2,3.5-2.1,5.2c-0.2,0.3-0.9,0.5-1.4,0.5
		c-7.9-0.6-15.8-1-23.6-2.5C415.7,255.8,415.9,253.9,416,251.9z"/>
	<path class="st0" d="M328.8,182c-2.6,12.6-2.6,25.4-1.9,38.4c-2.5-0.9-4.3-2.6-6.5-3.5C318.8,211.2,324.3,188.1,328.8,182z"/>
	<path class="st0" d="M467.1,244.1c-0.9,0-1.6,0-2.4,0c1.8-17.1,2.1-34.3-0.6-51.3c1.7,0.6,3.2,2.1,3.4,3.7
		C470.1,212.2,469.9,228.4,467.1,244.1z"/>
	<path class="st0" d="M446.8,306.4c12.2-10.2,21.8-22.7,27.1-37.8c0.9-1.7,2.9-1.5,4.7-2.2C474.1,283.2,462.5,299,446.8,306.4z"/>
	<path class="st0" d="M492,259.3c-5.4,12.9-13.4,23.9-24.5,32.6c5.5-7.6,10.2-15.6,12.8-24.7c0.4-1.3,1-2,2.3-2.5
		c3.4-1.3,6.3-3.4,9.2-5.7C491.8,259.1,491.9,259.2,492,259.3z"/>
	<path class="st0" d="M473.9,164.9c5.1,1.4,10.2,2,15.6,1.2c0.8,6.8,1,13.3,0.2,19.8c-0.4,0.2-0.3,0.2-0.5,0.1
		C484.8,178.5,479.7,171.5,473.9,164.9z"/>
	<path class="st0" d="M459.6,159.9c12,10,21.6,22.7,29.6,36.1c0.5,0.9,1,1.6,2.2,1.3c1.5,3.8,2.6,7.5,3.1,11.5
		c-4.3-6.2-7-13.4-11.6-19.4c-5.4-7.7-12.7-13.6-19.2-20.3c-1.9-2.7-3-5.9-4.4-8.9C459.4,160.1,459.5,160,459.6,159.9z"/>
	<path class="st0" d="M407.4,162.4c15.8,1.2,30.9,5.8,44.9,13.2c2,0.8,2,2.9,2.5,4.7c-0.1,0.1-0.2,0.2-0.3,0.3
		c-13.3-8.9-28.8-13.5-44.7-14.6C407.6,166,408,164.1,407.4,162.4z"/>
	<path class="st0" d="M331.2,226.9c6,3.1,11.7,5.6,17.9,8.2c0.9,0.4,1.4,0.9,1.6,1.9c0.4,1.9,0.9,3.8,1.4,5.9
		c-6.3-1.9-12.2-4.8-18.3-7c-0.6-0.2-1.2-0.5-1.4-1.3c-0.4-2.3-0.9-4.7-1.3-7C331,227.5,331.1,227.3,331.2,226.9z"/>
	<path class="st0" d="M411.4,266.8c-5.7,0-11.3-1.2-17.1-1.7c-0.7-0.1-1.3-0.2-1.5-1c-0.6-2.3-1.3-4.6-2-7.2
		c7.4,1,13.8,2.6,21.2,3.6C411.8,262.7,411.6,264.7,411.4,266.8z"/>
	<path class="st0" d="M388.7,247.3c8.2,1.4,16,2.8,23.9,4.2c0.2,1.9-0.1,3.8-0.4,5.9c-6.8-0.9-13.5-2.4-20.3-3.5
		c-1.6-0.3-2.4-1-2.5-2.6C389.3,249.9,389,248.7,388.7,247.3z"/>
	<path class="st0" d="M483.2,243.6c-1.6,0.1-2.9,0.2-4.5,0.2c1.1-11.7,1.2-23.2,1.1-34.9c1.4,1.6,3.2,2.8,3.4,5.2
		C484.1,224,484.3,233.8,483.2,243.6z"/>
	<path class="st0" d="M448.9,150.1c-15.8-7.2-32.8-11.4-50.1-11.8c-1.7,0-2.6-0.6-3-2.4c14.2,0.1,28.6,2.1,42,7c2.4,0.9,4.6,2,7,2.9
		C446.8,146.5,447.8,148.3,448.9,150.1z"/>
	<path class="st0" d="M340.2,242.3c3.8,1.5,7.7,2.9,11.6,4.2c0.9,0.3,1.5,0.8,1.7,1.8c0.9,3.3,2.1,6.3,2.9,9.6
		c-3.5-0.5-6.8-1.9-10.2-2.8c-0.7-0.2-1.2-0.5-1.5-1.2c-1.6-3.8-3.2-7.6-4.8-11.4C340,242.5,340.1,242.4,340.2,242.3z"/>
	<path class="st0" d="M412.9,243.6c0,1.5,0,2.9,0,4.5c-7.8-1-15.2-2.6-22.9-4c-2-0.4-2-0.4-2.3-2.5c-0.1-1.1-0.6-2.2-0.2-3.2
		C395.9,240.1,404.4,241.8,412.9,243.6z"/>
	<path class="st0" d="M363.2,145.5c-0.4,1.6-0.1,3.6-2,4.1c-17.7,5.3-33.6,14.3-47.8,25.8c3.3-4.6,7.4-8.5,12.3-11.3
		C337.5,156.9,349.8,149.2,363.2,145.5z"/>
	<path class="st0" d="M415.3,261.2c7.9,0.8,15.6,1.6,23.4,2.3c-0.3,1.5-1.1,2.8-1.9,4c-0.2,0.4-1.2,0.5-1.8,0.5
		c-6.8-0.2-13.5-0.3-20.2-0.9C414.6,265.1,415.1,263.4,415.3,261.2z"/>
	<path class="st0" d="M445.1,247c-0.8,4-0.8,4.1-4.5,3.9c-8.2-0.6-16.3-1.2-24.4-2.5c0.1-1.5,0.2-2.8,0.3-4.4c2.5,0.5,5-0.1,7.2,1.5
		c0.9,0.5,2.4-0.3,3.4-0.3C433,246,439.2,246,445.1,247z"/>
	<path class="st0" d="M401.9,319.3c-2.2,0.3-4,0.3-5.2-1.8c1.7-0.4,2.7-1.5,1.4-3.1c-10.8-15.3-18.9-32.3-26.7-49.3
		c2.3-0.4,2.9-0.1,3.8,1.9C383,285,391.7,302.6,401.9,319.3z"/>
	<path class="st0" d="M372.9,303.8c-16-11.5-25.4-29.5-33.3-47.1c1.7,0.1,2.9,0.6,3.6,2.2c7.3,16.5,17.1,31.8,29.9,44.6
		C373.1,303.6,373,303.7,372.9,303.8z"/>
	<path class="st0" d="M332.6,223.7c-1.4-0.5-2.3-0.9-2.4-2.4c-0.8-14.7-1.1-29.7,3.7-43.9c0.2-0.8,0.7-1.7,2-1.9
		C333.2,191.5,330.8,207.3,332.6,223.7z"/>
	<path class="st0" d="M404.1,152.5c11-0.7,22.1-0.1,33,1.3c1.7-2,19.2,10.1,20.1,12.2c-16.9-9.6-33.9-13.3-53.2-12.8
		C404.1,153,404.1,152.8,404.1,152.5z"/>
	<path class="st0" d="M391.5,129.4c15.1-0.4,30.4,2.2,43.9,9.1c-13.2-3.6-26.6-5.9-40.3-5.9c-2,0.3-2.8-1.2-3.7-2.6
		C391.4,129.7,391.4,129.6,391.5,129.4z"/>
	<path class="st0" d="M317.9,164.6c13-14.9,28.2-26.4,47.8-31.2c0.3,1.8,0,2.3-1.6,2.7c-17.9,4.6-32.6,16.6-46,28.9
		C318.1,164.8,318,164.7,317.9,164.6z"/>
	<path class="st0" d="M364.3,139.4c0.1,0.3,0.1,0.4,0.1,0.5c-0.5,3.2-0.5,3.2-3.5,4.3c-11,3.8-20.8,9.8-31.1,15
		C340.1,150.6,351.2,142.8,364.3,139.4z"/>
	<path class="st0" d="M358.9,173.7c-1.8,21.2-1.2,42.2,4.4,62.7c-1.9,0-2.3-0.1-2.6-1.8c-0.9-5.2-2-10.5-2.7-15.7
		c-2.1-14.4-1.7-29-0.8-43.5C357.3,174.6,357.4,173.7,358.9,173.7z"/>
	<path class="st0" d="M333.4,250.5c-2.2-1.4-8.7-3.5-9.2-5.2c-0.9-3.6-1.8-7.3-2.7-10.9c0-0.1,0.1-0.2,0.2-0.5
		c2.3,1.1,4.6,2.3,6.9,3.4c0.7,0.3,1.1,0.7,1.4,1.5C331,242.8,332.6,246.4,333.4,250.5z"/>
	<path class="st0" d="M400.3,152.7c0.8,2,1.5,3.9,2.3,5.9c-6.2,0.3-12.1,0.5-18.1,0.8c0.1-1.4-0.1-4.8,1.6-5.1
		C390.6,153.6,395.3,153,400.3,152.7z"/>
	<path class="st0" d="M453.1,149.1c14.5,12,27.6,25.1,35.7,42.6c-8.7-13-18.3-25.7-30.7-35.3c-2.4-1.8-3.5-4.7-5.2-7.1
		C452.9,149.3,453,149.2,453.1,149.1z"/>
	<path class="st0" d="M316.5,186c-1.1-1.1-0.5-1.7,0.2-2.4c12.3-12.3,28.5-19.4,44.1-26.8c0.5,1.1-0.1,1.5-0.8,1.8
		C344.1,165.4,329.3,174.4,316.5,186z"/>
	<path class="st0" d="M426.5,271.3c2.7,0,5.3,0,8.4,0c-3.3,6.1-7,11.5-11.4,16.5C424.5,282.3,425.5,276.8,426.5,271.3z"/>
	<path class="st0" d="M428.5,149.6c-8.1-0.5-16.3-0.9-24.4-0.3c-2.5,0.3-2.3-2.3-3.5-4.1c9.8-0.5,19,1,28,4.1
		C428.5,149.4,428.5,149.5,428.5,149.6z"/>
	<path class="st0" d="M384.4,140.7c-0.6,1.4-0.1,4.2-2.1,4.2c-5.4,0.7-10.7,2.1-16,3.1c-0.1-1.3,0.2-4.1,1.5-4.4
		C373.2,142.3,378.8,140.6,384.4,140.7z"/>
	<path class="st0" d="M289.5,179.6c3.6-2.3,6.7-6.1,11.1-6.5c3.5-0.3,5.9,3,4.5,6.2C300,178.8,294.7,178.8,289.5,179.6z"/>
	<path class="st0" d="M320.5,220.8c1.5,1.2,6.6,3.1,6.9,4.7c0.4,2.5,0.8,4.9,1.2,7.4c0,0.1-0.1,0.2-0.2,0.5
		c-9.5-4.6-7.4-2.3-8.3-12.4C320.2,220.9,320.3,220.8,320.5,220.8z"/>
	<path class="st0" d="M383.6,165.4c0.1-0.8,0.2-1.5,0.3-2.2c6-1,12-1.1,18.1-1c2.3-0.2,2.2,1.4,2.7,3.3
		C397.6,165.4,390.7,165.4,383.6,165.4z"/>
	<path class="st0" d="M379.9,254.5c9.7,2,6.6,0.6,9.4,9.6c-1.9,0.5-3.8-0.3-5.7-0.5C381.8,263.4,380.7,256.5,379.9,254.5z"/>
	<path class="st0" d="M276.2,83.7c-0.7,7.4-10.6,2-7.8-3.3C270.7,76.1,276.6,79.4,276.2,83.7z"/>
	<path class="st0" d="M367.4,141.9c0.5-1.6,0.1-3.7,2-3.7c5.4-0.7,10.6-1.9,16.1-2.1c-0.3,1.4-0.1,2.9-1.9,2.9
		C378.1,139.3,372.9,140.7,367.4,141.9z"/>
	<path class="st0" d="M306,257.1c-3-6.2-5.6-12.6-7.9-19.1c0.9-0.8,1.8-1.5,2.9-2.4c1.8,6.5,3.3,12.9,5.8,19.2
		C307.1,255.5,307.5,256.4,306,257.1z"/>
	<path class="st0" d="M382.9,146.6c-0.2,2.4-0.2,2.3-1.9,2.8c-2.1,0.5-4.2,1.1-6.3,1.6c-1,0.2-1.9,0.7-3,0.3
		c-0.3-0.1-0.9,0.1-1.1,0.3c-1.5,1.5-3.6,1.3-5.7,2.4c0.5-1.9-0.1-4.1,2-4.3C372.4,148.6,377.5,147.3,382.9,146.6z"/>
	<path class="st0" d="M369.3,134.7c0.4-2.4,0.3-2.5,2.4-2.9c5.2-0.7,10.3-1.9,15.6-2c-0.4,1.4-0.3,3-2.1,3
		C379.9,133.1,374.7,134,369.3,134.7z"/>
	<path class="st0" d="M365,260.1c-1.2-0.5-4.4-0.5-4.8-1.6c-1.1-3.3-2.2-6.5-3.4-10.1c1.6,0.4,4.4,0.7,4.9,2
		c1.2,3.1,2.3,6.1,3.5,9.2C365.2,259.7,365.1,259.8,365,260.1z"/>
	<path class="st0" d="M384.5,242.8c-3.8-1.3-9.1-0.4-9-5.8c0-0.6-0.2-1.2-0.4-2.2C385.2,237.9,383.3,235.2,384.5,242.8z"/>
	<path class="st0" d="M320.1,243.7c-1.6-1.3-4.8-2.6-5.2-4.1c-0.3-3-0.6-5.9-0.8-8.9c0-0.2,0.1-0.4,0.2-0.9c1.2,0.9,3,1.1,3.5,2.6
		C318.6,236,319.3,239.6,320.1,243.7z"/>
	<path class="st0" d="M377.2,244.4c8.6,2.5,7.6-0.3,9.1,7.8c-2.2,0.1-4.1-0.7-6.2-1.1c-0.5-0.1-1.1-0.4-1.2-0.8
		C378.2,248.5,377.8,246.6,377.2,244.4z"/>
	<path class="st0" d="M362.7,168.9c1.7-9.5-1-7.6,6.5-10.3C367.6,169.1,370.6,167.1,362.7,168.9z"/>
	<path class="st0" d="M467,177.2c6.2,5.2,11.6,11.1,15.7,18.2c-4.4-4.4-8.7-8.9-13.7-12.6c-1.8-1.2-1.7-3.5-2.4-5.3
		C466.7,177.4,466.8,177.3,467,177.2z"/>
	<path class="st0" d="M381.6,155.1c-0.4,1.8,0,4.8-1.6,5.3c-2.5,0.5-5,1-7.6,1.5c-0.3-1.3-0.2-4.5,1.3-4.7
		C376.1,156.5,378.6,155.9,381.6,155.1z"/>
	<path class="st0" d="M458.8,260.3c-2.3,0-4.4,0-6.9,0c0.7-2,1.4-3.8,2-5.6c2.2,0,4.2,0,6.5,0C460.1,256.7,459.5,258.5,458.8,260.3z
		"/>
	<path class="st0" d="M319.2,197.8c-1-2.8-1.8-4.3-3.6-6.5c2.8-2.3,5-4.8,7.9-6.9C322,189,320.7,193.3,319.2,197.8z"/>
	<path class="st0" d="M452.3,254.5c-2.7,6.8-0.9,6.1-8.3,5.8C447,253.4,444.5,254.1,452.3,254.5z"/>
	<path class="st0" d="M467.2,259.6c1.6-7.1,0.6-4.7,8.1-5.6c0.4,0.9-0.1,4.4-1,4.6C472,259.1,469.7,259.5,467.2,259.6z"/>
	<path class="st0" d="M413,319c-1.2,0.1-2.2,0.2-3,0.3c-1.4-2.2-2.6-4.3-3.9-6.3c-1.3-1.7,0.1-3.4,0.5-5.2
		C407.3,308.4,411.9,316.3,413,319z"/>
	<path class="st0" d="M355.2,164.3c-1.2,7.8,1.1,6.6-5.7,9.2c-0.3-2.2,0-4.2,0.3-6.1C350.4,166.3,353.6,165.3,355.2,164.3z"/>
	<path class="st0" d="M305.3,231.1c1.3-1.6,2.6-3,3.8-4.4c0.9,0.2,1.6,0.6,1.6,1.5c0.1,2.7,0.2,5.4,0.4,8.1c0,0.1-0.1,0.2-0.3,0.5
		C308.7,235.2,307,233.4,305.3,231.1z"/>
	<path class="st0" d="M365.3,251c2.1,0.2,3.5,0.5,4.1,2.4c0.9,2.7,2.3,5.2,3.2,7.9c-2.6,0.2-3.1,0-4-2.1
		C367.6,256.6,366.5,254,365.3,251z"/>
	<path class="st0" d="M396,143.6c-3.2,0.3-5.9,0.5-9,0.7c0.6-1.5,0.3-4,1.9-4.2C394,140,393.5,138.6,396,143.6z"/>
	<path class="st0" d="M354.4,237.3c1.3,0.6,3.2,0.7,4,2c0.6,2,1.1,4.1,1.7,6.3c-1.4-0.1-4-0.6-4.5-1.7c-0.6-2.1-1.1-4.2-1.6-6.3
		C354.2,237.4,354.3,237.4,354.4,237.3z"/>
	<path class="st0" d="M483.2,255.8c0.3-1.5,0-3,1.5-3.6c3.5-1.2,6.9-2.2,10.4-3.3c0.1,0.6,0.1,1.2-0.6,1.6
		C490.7,252.1,487.2,254.6,483.2,255.8z"/>
	<path class="st0" d="M375.2,249.9c-1.8-0.6-3.4-0.3-4.4-1.6c-0.4-1.5-2.3-5-2-6.2C375.5,244,373.1,242.7,375.2,249.9z"/>
	<path class="st0" d="M340.2,253c-1.5-0.2-2.6-0.7-3.1-2.4c-1-3.7-2.6-7.1-3.4-10.8c1,0,1.7,0.3,2,1.1
		C337.1,244.9,339.5,249,340.2,253z"/>
	<path class="st0" d="M457.4,263.8c-0.5,2.1-1.2,3.8-3.7,3.6c-1.6-0.1-3.2,0.2-5.1,0.3c0.8-1.3,1.2-3.7,2.3-3.9
		C453,263.8,455.1,263.8,457.4,263.8z"/>
	<path class="st0" d="M459.5,151.2c-2.3-1.9-4.6-3.8-6.9-5.7c0.6-0.9,1.5-1.1,2.2-1.7c0.7-0.5,1.4-1.1,2.3-1.7
		c0.7,3.2,1.5,5.9,2.6,8.9C459.7,151.1,459.6,151.2,459.5,151.2z"/>
	<path class="st0" d="M356.2,66.8c-4.3-0.2-8.6-0.5-13.2-0.7c2.2-2,5.4-2.3,8.2-2.4c1.9,0.3,3.4,1.9,5.1,2.8
		C356.3,66.6,356.3,66.7,356.2,66.8z"/>
	<path class="st0" d="M440.4,267.8c2.5-5.6,2.2-4,7.8-4c-0.2,1.4-0.9,2.5-1.4,3.5C445.8,268.3,442.3,267.6,440.4,267.8z"/>
	<path class="st0" d="M378.8,262.5c-1.9,0.1-2,0-2.6-1.3c-1.1-2.8-2.5-5.3-3.3-8.2c1.7,0.2,3.5,0.1,3.9,2.2
		C377.3,257.6,378.4,260,378.8,262.5z"/>
	<path class="st0" d="M461.4,251.2c-2.2,0-4.2,0-6.4,0c0.4-1.4,0.7-2.6,1-3.8c2.1,0,4,0,6.2,0C461.9,248.8,461.7,250,461.4,251.2z"
		/>
	<path class="st0" d="M469.2,251.1c0.3-1.4,0.5-2.4,0.7-3.7c2.2,0,4.3,0,6.5,0c0,0.1,0.1,0.3,0.1,0.4c-0.2,2.7-0.2,2.7-2.8,3
		C472.2,250.9,470.8,251,469.2,251.1z"/>
	<path class="st0" d="M447.5,251c0.4-1.4,0.7-2.6,1.1-3.8c1.9,0,3.7,0,5.8,0C453.1,252.7,453.5,250.9,447.5,251z"/>
	<path class="st0" d="M340.8,59.6c-4.9,0.5-9.5,1.8-14.1,3.4C330.2,59.1,336,57.2,340.8,59.6z"/>
	<path class="st0" d="M397.4,146.8c-3.7,0.4-7.3,0.8-11.1,1.2c0.1-0.7,0.2-1.3,0.3-2c3.1-0.4,6-0.6,9-0.8
		C396.7,145.1,397.3,145.6,397.4,146.8z"/>
	<path class="st0" d="M465.5,265.8c0.4-1.7,0.3-2.9,2.3-2.9c2-0.3,4-0.5,6-0.8c-0.1,2.2-0.2,2.3-1.9,2.7
		C469.7,265.1,467.6,266,465.5,265.8z"/>
	<path class="st0" d="M387.3,285.6c-2.9-6.4-5.9-12.7-8.9-19.2c1.6-0.3,1.7-0.3,2.2,1c2.2,6.1,4.5,12.1,7,18
		C387.5,285.5,387.4,285.5,387.3,285.6z"/>
	<path class="st0" d="M481.7,253c0.2,3.5-0.6,4.4-4.7,4.8c-0.4-1.3,0.2-2.4,0.4-3.6C477.9,253.2,480.5,253.4,481.7,253z"/>
	<path class="st0" d="M366.8,247.5c-2.4-0.1-2.7-0.3-3.3-2.3c-0.5-1.6-0.9-3.2-1.4-4.8c1.8-0.2,2.3,0.1,2.8,1.5
		C365.6,243.8,366.4,245.6,366.8,247.5z"/>
	<path class="st0" d="M316.8,227.3c-1.6-1-3.3-2-5.2-3.2c1.8-1.1,3.4-2.1,5.2-3.2c0.2,2.1,0.3,4.1,0.5,6.1
		C317,227.1,316.9,227.2,316.8,227.3z"/>
	<path class="st0" d="M460.8,184.9c-3.2-1.3-4.3-2.8-4.6-6.6C459.2,178.8,460.8,181.1,460.8,184.9z"/>
	<path class="st0" d="M318.2,277.1c-4.3-4.4-6.9-10.3-9.9-15.6c-0.3-0.7-0.7-1.3,0.4-1.8C311.5,265.8,314.7,271.5,318.2,277.1
		L318.2,277.1z"/>
	<path class="st0" d="M380.3,163.7c0,0.8,0,1.3,0,2.1c-2.8,0.4-5.6,0.8-8.4,1.2c-0.3-0.8-0.2-1.4,0.5-1.6
		C374.9,164.6,377.5,164.2,380.3,163.7z"/>
	<path class="st0" d="M370,83.4c-2.9-1.7-6-3.5-8.9-5.3c1.1-0.5,3.7,0,6,1.1C368.6,80,369.4,81.2,370,83.4z"/>
	<path class="st0" d="M466.3,189.4c-3.2-1.8-4-3.2-4-7.3C465.8,183.4,465.4,186.2,466.3,189.4z"/>
	<path class="st0" d="M460.8,260c0.5-1.7,0.9-3.3,1.4-4.8c0.6-1,1.6-0.6,2.8-0.6c-0.4,1.7-0.8,3.2-1.2,4.7
		C463.2,260.4,462,260,460.8,260z"/>
	<path class="st0" d="M398.5,149.5c-4.3,0.5-8.5,1-12.7,1.5c-0.1-1,0.5-1.2,1.1-1.2c3-0.4,6-0.8,9.1-1.1
		C396.9,148.7,398.8,147.8,398.5,149.5z"/>
	<path class="st0" d="M297.3,50.2c1.8,0.6,3.6,1.2,5.6,1.8c-0.4,1.1-1.2,1.7-2.1,2.1c-2.2,0.9-2.8-2.2-3.8-3.6
		C297.1,50.4,297.2,50.3,297.3,50.2z"/>
	<path class="st0" d="M477.9,250.1c0.1-1,0.2-1.9,0.4-2.9c1.5-0.1,2.9-0.1,4.2-0.2c0.3,2.2,0.2,2.5-1.7,2.9
		C479.8,250,479.1,250.2,477.9,250.1z"/>
	<path class="st0" d="M357.8,170.1c0.3-2.4,0.6-4.6,0.9-6.8c0.1-0.7,0.6-0.9,1.5-0.9c-0.2,2.1-0.5,4.2-0.7,6.4
		C359.4,169.5,359.2,170.2,357.8,170.1z"/>
	<path class="st0" d="M462.4,263.6c-0.4,2.8-0.2,3.5-4.1,3.1C459.1,264,459.2,263,462.4,263.6z"/>
	<path class="st0" d="M463.9,247.4c0.9,0,1.6,0,2.6,0c-0.2,1.1-0.4,2.2-0.7,3.2c-0.3,0.9-0.6,0.9-2.6,0.5
		C463.5,249.9,463.7,248.7,463.9,247.4z"/>
	<path class="st0" d="M475.5,263.9c0.3-2.2,0.3-2.2,1.9-2.7c0.9-0.2,1.8-0.5,2.8-0.7C480.9,263.1,477.2,263,475.5,263.9z"/>
	<path class="st0" d="M388.5,138.4c0.2-0.7,0.2-1.1,0.3-1.5c0.4-1.2,1.9-1.6,2.8-0.7c0.5,0.5,0.8,1.2,1.3,2
		C391.3,138.3,390.1,138.3,388.5,138.4z"/>
	<path class="st0" d="M373.4,153.3c1.4-0.9,7.3-2.5,8.8-2.2c-0.1,0.2-0.2,0.5-0.3,0.6c-2.8,0.7-5.6,1.4-8.4,2
		C373.5,153.6,373.5,153.5,373.4,153.3z"/>
	<path class="st0" d="M490.7,247c-2,0.5-4,1-6,1.6c-0.4-0.9-0.4-1.6,0.6-1.7c1.8-0.2,3.6-0.3,5.4-0.4
		C490.6,246.7,490.6,246.8,490.7,247z"/>
	<path class="st0" d="M317,210.8c-0.8-1-1.4-1.7-2-2.5c0.7-0.9,1.5-1.8,2.3-2.9c0.4,0.9,0.1,1.7,0,2.5
		C317.3,208.7,317.1,209.5,317,210.8z"/>
	<path class="st0" d="M482.1,261.1c0.1-0.4,0.2-1,0.4-1.1c1.5-0.7,3-1.3,4.5-1.8C485.7,259.6,483.8,260.7,482.1,261.1z"/>
	<path class="st0" d="M369.6,154.9c-1.6,0.6-3.2,1.1-5,1.8c0.1-0.5,0.1-0.9,0.2-0.9c1.5-0.8,3.1-1.1,4.7-1.5
		C369.5,154.5,369.6,154.7,369.6,154.9z"/>
	<path class="st0" d="M486.2,198.8c1.1,0.9,1.7,2.3,2.1,3.7c-0.9-1.1-1.7-2.2-2.6-3.3C485.9,199.1,486,199,486.2,198.8z"/>
	<path class="st0" d="M318.1,277.2c0.3,0.3,0.6,0.6,0.9,0.9c-0.1,0.1-0.2,0.1-0.3,0.2C318.6,277.9,318.4,277.5,318.1,277.2
		C318.2,277.1,318.1,277.2,318.1,277.2z"/>
	<path class="st0" d="M192.3,147.1c7.1-24.7,41.6-27.1,54.8-6.4c4.8,7.3,4.6,11.7-2.2,17.5c-5.5-13.4-19.1-23-33.9-21
		c-7.3,0.5-14,4.2-18.4,10.1C192.5,147.2,192.4,147.2,192.3,147.1z"/>
	<path class="st0" d="M243.5,159.2c-0.9,0.6-1.8,1.3-2.8,1.9c-0.4-0.6-0.7-1.1-1-1.5c-2.2,0.7-5.1,3-6.8,0.4
		c-1.6-2.6,1.4-4.4,3.4-5.6c-7.9-14.6-31-14.4-38.5-1.1c3.6-1,6.6,0.2,7.5,3.3c1.8,6.4-8.8,10.4-10.4,2c-1.9,3.2-1.7,6.4-2.9,9.8
		C180.9,131.9,234.4,128.4,243.5,159.2z"/>
	<path class="st0" d="M201.6,177.4c-4.2,0.1-4.9-7.1-0.4-7.3C205.7,170.2,206.5,177.2,201.6,177.4z"/>
	<path class="st0" d="M308,129.4c-0.7-2.8-2.2-5.3-4.6-7c-0.5-0.4-1.2-0.9-1.7-0.2c-0.9,1.1,3.1,2.4,4.2,6.1c1.6,3.9-2.5,13-4,17.2
		c-4.7,12.5-22,15.8-27.8,2.3c-0.7-1.4-0.7-1.4,0.5-2.6c-0.5,0.1-0.8,0.1-1.5,0.3c-2-13.9,5.9-13.3-2.4-29c-0.8-2.1-0.2-3.3,1.9-3.8
		c4-0.9,8.2-0.7,12.3-1c5.6-0.3,10-4,14.9-6.4c16.5-10.3,31.9,10.2,19.7,19.3C315.8,126.7,312.1,127.9,308,129.4z M299.2,114.7
		c0.6-3.4-2.8-2.4-4.4-0.9c-1.7,2.1-4.1,3.8-5,6.4c-0.5,1.6,0.3,2.4,1.9,2.1C299.9,119.5,301.8,123.2,299.2,114.7z"/>
	<path class="st0" d="M302.9,147.6c0.9-2.9,2-5.3,3-8.1c0.3-0.8,0.6-1.2,1.5-1.4c3.4-0.8,7,0.6,9,3.4c0.5,0.7,0.6,1.3,0.1,2.1
		c-1.3,1.8-2.9,3.3-5.2,3.5C308.5,147.4,305.9,147.5,302.9,147.6z"/>
	<path class="st0" d="M316.6,128.1c0.6-0.3,1-0.5,1.3-0.7c1.8,3.9,2.7,8.6,3.9,12.8c1.2,5.2-1.7,9.3-6.9,10.2
		c-4.6,0.5-9.3,0.4-14,0.3c0.9-2.4,3.9-1.2,5.8-1.6c6.4,0.1,12-2.2,12.5-9.5C319.1,135.6,317.8,132,316.6,128.1z"/>
	<path class="st0" d="M141.6,200.9c-15.9-0.9-29.8-8.8-41.1-19.6c-13.3-14.5,17.4-31.6,28.9-35.5c2.4-0.8,4.9-1.1,7.3-1.6
		c1.6-0.1,3.4-0.2,3.3,1.8c0.2,2.8,0.4,5.6,0.3,8.4c-0.2,14.2,3.2,28,5.9,41.8C147.2,200.9,145.7,200.7,141.6,200.9z"/>
	<path class="st0" d="M274.9,39.6c-13.3-1.3-26,0.3-39,3.6c3.1-7.3,8.2-13.5,12.3-20.3c2.9-4,6.3-10.6,12.1-7.6
		C269,20.1,273.8,30.1,274.9,39.6z"/>
	<path class="st0" d="M187.8,83.8c15.6-4.5,33.4-0.7,44.8,11c-14.8-6.9-32.2-9.1-47.2-1.7c-0.9,0.3-3.7,2-4.3,1.6
		c1.9-2.2,4.5-3.6,6.7-5.5c3.3-2.1,3.5-3.1-0.2-4.9C187.7,84.2,187.7,84,187.8,83.8z"/>
	<path class="st0" d="M224.7,82.2c-7.1-3-13-8.1-20.6-10.6c0.7-1.2,1.7-1.5,2.6-1.6c3.9-0.4,3.4-5.2,6-7.2c1.3,1.4,1.8,3.1,2.5,4.8
		c2.1,5.5,5.9,9.9,9.7,14.3C224.8,82,224.8,82.1,224.7,82.2z"/>
	<path class="st0" d="M492.1,150.2c0.3,6.8-6.5,7.8-10.4,4.2c-2.4-2.6-8.1-4.5-6.3-8.9c1.5-3.4,4.2-5.5,7.7-6.5
		C488.4,137.9,491.8,146.5,492.1,150.2z"/>
	<path class="st0" d="M468.2,136.7c0.1-2.5,3-1.6,3.9-0.2c0.8,1.3,3.4,5,0.3,5C470.6,141.3,468.2,138.5,468.2,136.7z"/>
	<path class="st0" d="M478.3,134.5c0,1.1-0.5,1.5-1.4,1.1c-1.9-0.7-3.1-2-3.6-3.9c-0.3-1.1,0.5-1.7,1.5-1.6
		C476.4,130.5,478.3,132.9,478.3,134.5z"/>
	<path class="st0" d="M484,135.5c-2.4-0.8-3.6-3.5-2.3-5.4C484,131.1,485.1,133.7,484,135.5z"/>
</g>
</svg>
