<?xml version="1.0" encoding="utf-8"?>
<!-- Generator: Adobe Illustrator 26.0.0, SVG Export Plug-In . SVG Version: 6.00 Build 0)  -->
<svg version="1.1" id="Capa_1" xmlns="http://www.w3.org/2000/svg" xmlns:xlink="http://www.w3.org/1999/xlink" x="0px" y="0px"
	 viewBox="0 0 595.3 1002.2" style="enable-background:new 0 0 595.3 1002.2;" xml:space="preserve">
<style type="text/css">
	.st0{fill:#FFFFFF;}
</style>
<g>
	<path d="M594.5,381.5c-2.5-39-26.5-72.6-51.4-101.2c-4.7-5.2-8.7-10.9-11.8-17.2c-11.5-23.1-0.5-49.7-3.4-74.3
		c-1-31.2-12.6-60.8-26.2-88.5c-19.7-42.5-53.6-20.2-81.1,0.4c-21.4,16.2-36.4,39.7-59.2,54.2c-11.6-7.2-12.8-12.7-14.5-25.5
		c-7.3-45.6-49.2-50.4-74.1-14.4c-5.2,7.6-9,15.8-12,24.5c-0.3,1-0.3,2.3-1.9,3c-1.4-34.8,20.7-50.5,33.4-78.4
		c5.9-17.2-0.6-39.2-17.5-47.5c-6.9-2.8-14-4.1-21.4-2.7c-1.5,0.3-2.4-0.1-3.4-1.1c-18.1-18.8-60.2-13.1-46.4-5.9
		c8.9-0.8,18,0.8,25.5,6c-5,0-9.6-1.8-14.5-1.4c-20.6-0.6-47.1,27.8-26.1,44.2c2.9,2.6,6.3,0,4.9-3.6c-1.6-5.4-2.7-12,3.1-15.3
		c10.4-6.1,28.2-7.6,33.9,5.4c3.6,8,3.9,17,3.5,25.6c-1.5,30-12.8,60.2-2.7,89.9c2.6,6-7,2.8-12,12.5c-0.1,0.2-0.3,0.2-0.9,0.6
		c-16-5.9-31.7-14.1-48.8-17c-23.1-5.6-58.2,8.8-50.9,37.2c2.8,11.5,7.3,22.2,17.4,29.6c1.7,1.4,2.5,2.1,3.7,4.3
		c-28.2-4.2-56.3-8.4-84.7-10.9c-9.1-0.9-18.2-1-27.2,1.1c-16.4,2.9-29.3,17.1-27.7,34.1c2.2,33.6,15.2,65.5,33.3,93.6
		c9.2,14.1,19.5,27.2,31.6,38.9c4.9,4.6,6.8,10.4,5.7,17.2c-14.2,84.4,16.8,176.9,108.3,197.4c-42.3,38.3-30.7,93.3,23.3,111.3
		c-9.3,9.9-19.9,18.5-26.9,30.3c-0.9,1.3-1.1,2.8,0.3,4.1c2.7,2,4.9-0.7,7.6-2c-0.5,5-0.4,9.6,0.2,14.4c0.9,6.4,5.1,9,11,10.9
		c-34.6,34.6-72.8,72-80.8,122.5c-7,42.3,19.7,84.9,57.3,103.2c32.3,15.6,69.8,12.9,103.5,3.6c47.4-14.9,111.7-41.3,115.4-98.4
		c12.7-2.8,27.1-9.7,28.4-24.2c0.3-2.8,1.3-5.7,2.6-8.2c5.7-13,17.4-20.3,29.5-26.6c16.2-9.8,29.1-22.9,38.9-39.1
		c0.8-1.3,1.5-2.3,3.2-2.8c11-2.7,16.6-11.5,18.6-22.2c5.8,4.5,14.6,4.9,17.2-5c1-4,1-8.1,0.6-12.1c-0.1-1.6,0.1-2.9,1.5-4
		c5.8-4.7-1.8-17.1-4.9-21.9c-4.1-5.8-8.4-11.4-12.7-17c-1.2-1.5-1.8-3-1.6-5c0.5-17.6-2.6-35.1-6.2-52.3c-0.4-1.9-0.2-3.4,0.8-5.1
		c19-31.5,7.4-69-18.1-93C548.4,520.9,602.2,456.6,594.5,381.5z M260.2,866.5c-53.8,36.3-62.9-3.1-31.6-44.1
		c5.7,3.3,33.3,33.9,36.5,40.7C263.5,864.3,261.9,865.5,260.2,866.5z"/>
	<path class="st0" d="M147.4,578.8c5.4-3.9,9.7-9.2,11.6-15.4c0.5-2.4-1.3-4.1-3.5-2.4c-5.6,3.6-11.4,6.9-17.9,8.4
		c-2.9,0.8-5.6,0.5-8.1-1.7c-7.5-7.1-15.9-12.3-22.4-20.5c13.5,1.5,25-3.4,34.9-11.1c2-1.4,3.7-5.9-0.2-5.8
		c-11.9,3.3-23.9,4.9-35.7,0.6c-7.2-2.8-15.1-6.6-17.9-14.5c-1.9-5.9-4.8-11.4-6.4-17.4c0.4-0.1,0.6-0.3,0.8-0.2
		c7.7,3.9,16.1,4.4,24.5,4.5c9.6,0,19.5-0.6,28.3-4.7c1.5-0.7,2.4-1.9,2.1-3.6c-0.8-4.3-8.8-2.6-12.2-3.2c-18.9-2-38.3-12-49-28
		c-7-14.1-2.6-48.4-0.4-64.6c1.5-8.5-1.3-15.8-7.5-21.6c-25.9-25.2-45.2-56.8-56.2-91.2c-5.1-19.9-16.4-50.8,7-63
		c29.6-13.1,87.3,3.8,120.8,6.6c2.5,0.4,2.9,0.8,3.2,3.6c0.3,17,8,33,21.1,43.8c19.8,14.1,47.9-3.2,57.4-22.4
		c6.7-13.4,12.4-27.4,20-40.4c1.2-1.6,2.4-4.4,4.7-4.1c12.7,4.3,22.5-0.3,31.1-10.3c26.1,12.3,61.9,28.4,87.8,7.5
		c14.2-13.5,14.1-35.3,0.4-49.2c32.2-23.9,54.7-60.8,93.8-75.2c9-3.6,19.5-3.8,26.7,3.5c18.4,20.6,30.9,60.7,35.8,87.9
		c2.2,19.4,1.4,39.1-0.7,58.4c-2.1,19,4.5,34.8,16.7,48.7c10.1,11.5,19.5,23.4,27.9,36.2c1.3,2,1.8,3.7,0.9,5.9
		c-1.2,3-2.1,6.1-2.8,9.2c-3.4,15.3-15.8,25.5-25.9,36.5c-0.9,1-2.1,1.8-2.1,3.3c1.5,1.2,2.6,0.2,3.7-0.3
		c14.3-8.1,28.2-16.9,41.1-27.1c3.8,6.4,4.7,13.9,6.7,21c0.5,2.1,0.3,4-0.3,6c-4.7,14-18.4,21.7-30.4,28.8c-2.6,1.4-5.2,2.7-7,5.2
		c1.8,1.8,3.7,1.5,5.5,1.3c11.9-1.5,23.5-2.7,34.5-8.3c0.6,10.7-1.8,21-3.9,31.4c-0.6,2.5-1.8,3.9-4.3,4.5c-8.9,2.6-18,2.3-27.1,2.2
		c-5.1,0.8,0.5,5,2.6,6c6.8,4,13.8,6.6,21.4,8.5c-28,65.7-92.7,106.5-156.4,132.9c-44.6,17.4-111.8,36.5-149.5-3.3
		c-7.6-9.2-16.8-18.6-29.8-17.1c-20.6,1.6-38.7,13.1-54.9,25C180,594.9,154.7,583.5,147.4,578.8z M493.6,388.5
		c-0.9-4.1-5.2-4.2-8.1-6.1c-6.8-3.6-5-12.4-0.5-17.1c9.9-12.7,14.9-28.7,12.3-44.5c-2.7-5.5-6.1,9.9-18.4,12.8
		c-5.4,2.3-8.7-1.8-6.5-6.9c4.3-12.7,4.2-27.7-1.4-39.8c-2.6-3.6-5,1.9-6.4,3.9c-9.4,16-15,20.6-34,17.2
		c-66.1-12.9-81.5,64.6-48.1,107.5c6.4,9.9,14.6,17.7,26.6,19.4c9.2,1,21.5,1.5,29.5-3.6c14.6-9.6,28.1-20.5,40.7-32.4
		C483.7,394.7,488.8,391.7,493.6,388.5z M128.2,432.6c-0.2,0.1-0.3,0.3-0.5,0.4c8.3,14.7,21.8,26.7,38.6,30.5c1.7,0.4,3.3,1,4.8,1.8
		c5.5,3.2,6.2,6.6,2.9,11.9c-1.4,2.6-7,10-0.5,9c10.9-2.3,21.8-0.2,32.4,2.4c12.7,2.4,26.2,4.2,38.9,0.8
		c13.6-4.5,27.8-16.1,27.2-31.7c-0.2-5.2-0.3-10.5-0.8-15.7c-1.7-54.2-59.6-99.8-102.4-51c-10.7,11.9-28.9,7.1-40.7-0.5
		c-0.9,2.3-0.9,2.5-0.3,4.9c3.3,14.4,14.6,24,25.5,33c4.1,3.6,3.7,5.4-1.6,7.1C143.7,438.1,135.6,436.3,128.2,432.6z M284,517.9
		c-30.3-1.4-75.8,20.5-87,49.9c0.3,0.2,0.6,0.4,0.9,0.6c17.6-30.1,52.7-46.8,86.5-49.1c6.6,9.8,15.6,16.7,26.2,21.5
		c16.2,7.3,31.7,19.7,50.3,13.7c20.8-3.9,27.4-26.3,40.5-40.2c7.3-8.9,10.3-20,11-31.3c32.1-19.5,73.7-13.8,104.8,5
		c0.2-0.2,0.3-0.5,0.5-0.7c-25.9-22.3-76.5-24.9-105.3-6.5c-1-3.9-1-3.9,1.7-5.8c36.8-24.7,83.2-29.6,126.4-24.4c-1-1.9-6-2-8.1-2.7
		c-42.2-7.1-85.9,2.8-121.4,26.2c-0.9-1.7-1.6-3.2-2.4-4.7c28-25.5,64.6-39.3,100.5-49.6c-0.1-0.3-0.2-0.5-0.3-0.8
		c-37.2,7.1-73,23.5-101.8,48.2c-8.2-6.7-17.7-4.2-27.4-6.9c-7.9-1.9-15.1-5.1-21.2-10.8c-11.2-11.3-32.1-11.4-42.1,1.7
		c-5.9,8.6-5.8,19.9-13.6,27.5c-8.6,7.8-16.5,16-20,27.3c-37.9-2.2-78.2-4.3-113.1,13.6c0.1,0.2,0.2,0.4,0.3,0.6
		c17.1-6.2,34.8-9.9,52.8-11.8c19.1-2,38.1-2,57.2-0.4c3.1,0.3,3.4,1,2.3,4.3c-38-0.2-76.8,8.3-109.6,27.9
		c-3.9,2.7-13.1,8.5-14.1,13c33.3-26.5,82.3-38,124.5-39.1C283.6,515.8,283.8,516.7,284,517.9z M147.9,357.3c0,2.2-0.8,6.9,1.9,7.7
		c0.4,0.1,1.1-0.6,1.4-1c2.3-5.2,3.4-10.8,5.6-16.1c6.4-19.1,24.7-30.9,43.1-36.9c8-2.1,15.8-11,6.7-17.5
		c-12.6-7.4-36.1,15.7-43.7,25.1C153.3,329.2,148.2,343,147.9,357.3z M354.6,251.9c0.5,8.5,9.2,10.2,15.7,6.9
		c6.7-3.2,13.8-4.7,21-5.6c14-2.2,28,3.9,37.9,13.8c0.8,1,2.6,2,3.8,1.6c1.4-1.5,0.1-4.5-0.9-6.1c-13.9-17.8-36-25.3-58.2-22.1
		c-5.2,0.8-10.2,2.5-15,4.7C356,246.5,354.8,249,354.6,251.9z M506.6,195.4c0.7-25.6-7.3-70.9-27.7-87.8
		c-19.6-12.1-58.9,37.5-66.7,53.6c-15.1,25.1-9,38.8,17.8,49.2c18,6.3,36.6,11.7,51.7,23.7c3.9,2.6,17.5,14.4,19.8,6.2
		C506,225.8,506.7,210.5,506.6,195.4z M54.8,242.5c-10.6,1.5-24.5-0.6-30.3,10.6c-9,19.8,6.9,52.2,16.9,69.9
		c5.9,10,43.5,58.9,52.7,35.7c8.9-23.4,21.8-45,34.5-66.4c7.7-14.3,9.4-26.4-8.1-33.2C99.5,250.3,77.8,242.7,54.8,242.5z
		 M259.4,257.7c1,7.8,3.6,14.6,2.2,22.8c-6.1-3.6-11.6-7.4-17.6-11.2c-0.9-0.6-1.8-1.6-3.3-0.8c6.7,27,24.3,49.3,40.6,71.3
		c0.7,0.9,1.2,2.3,3.2,2.3c-2.7-28.2-9-56-22-81.4C262.1,259.4,261.6,258,259.4,257.7z M280.8,251.3c-0.3,0.1-0.6,0.3-0.9,0.4
		c5.2,22.2,13.7,43.6,21.1,65.2c0.3,0.9,0.4,2.2,2.1,2.3c2.6-22,3.2-44.8-1-66.8c-0.9-2.7-2.1-12-5.8-11.3
		c-1.2,6.5-1.7,13.3-4.5,19.8C287.8,257.5,284.3,254.4,280.8,251.3z"/>
	<path class="st0" d="M502.5,645.4c-1.6-7.7-21.3-59.6-29.4-55.5c-1.2,0.9-1.3,2.1-0.3,3.7c2.1,3.2,4.4,6.4,6.3,9.7
		c18.9,31.9,26.4,69.3,26.9,106.1c-7.3,17-51.3,32.6-69.2,36.1c18.3-27.1,47.4-82.3,7.5-103.6c-15.1-7.4-36-5.9-44.4,10.4
		c-1.7,2.4-1.8,2.4-4.5,1.4c-9.7-3.7-19.2-8.2-29.6-9.4c-21.6-2.7-37.9,19.6-35.3,39.7c2.7,33.3,26.5,53.7,52.9,69.7
		c-55.5,2.2-114.1-9.9-158.9-44.1c-4.1-3.6-9.9-7.4-7.7-13.8c6.4-24,22.8-44.4,43.3-58.1c5.5-2.8,1.4-7.3-2.3-4.5
		c-23.7,15.8-40.3,36.7-46.6,65c-0.8,3.7-1.7,4.3-5.3,3.6c-22.6-6-46-23.7-47.2-48.7c-2.1-28,17-50.7,39.6-64.7
		c12.6-8.6,26.5-16.1,41.8-18.4c12.2-2.5,21.1,5.6,28,14.6c39.3,42.2,106.6,23.8,153.7,6c20.2-7.9,39.7-17.4,58.4-28.4
		c2.9-1.7,3-1.7,5.1,0.6C507.5,583.8,518.6,617.6,502.5,645.4z"/>
	<path class="st0" d="M227.4,994.1c-11.7-0.9-32.6-0.3-40.3-12.3c-10-17-14.6-37.3-11.6-56.9c2.5-18.7,18.1-38.8,37.2-41.2
		c11.9,4.4,25.5,2.2,36.1-4.4c20.1-12.8,39.9-27.1,63.8-31.9c31-8.2,62.6,14.9,70.8,44.5c3.8,17-6.3,34-17.8,45.8
		C328.3,972.4,278.7,992.2,227.4,994.1z"/>
	<path class="st0" d="M388.7,891.4c-6.3-20.4-18.6-35-37.1-44.8c3.7-8.4,2.5-10.3,12.6-10.3c3.3-0.1,17-2.5,15-7.2
		c-0.6-1.5-2.6-1.7-4.2-0.8c-4.5,2.2-9.3,3.2-14.3,3.2c-8.2-0.6-11.4,6.1-13.7,12.7c-26.5-9.2-54.3,1.7-77.3,15.6
		c-18.6-25-44.1-44.3-59.2-72c-1.4-2.3-2.8-3-4.3-2.2c-5.4,2.2,16.5,28.1,18.9,32.2c-11.2,17.5-26.6,39.2-16.5,60.5
		c-19.6,7.4-35.9,24.5-38.2,45.8c-3,24.1,2.2,49.7,18.7,68.1C140,979.5,105,923.4,121.6,874c13-42.5,45.5-75,76.9-104.8
		c8.3,17.5,31.2,22.3,44.4,6.9c-2.3,29.2,35,41.4,52.2,18.8c0.1,28.9,38.2,35.8,54,14.6c2.4-2.7,3.8-5.8,6.4-8.5
		c2,4.8,4.1,9.3,6.9,13.5c10.9,16.8,37,11.4,45.7-5c2.9-5.1,4.9-10,7.2-15.6c6.5,13.6,18,22.8,33.3,16.9
		c12.5-3.8,16.9-15.9,19.7-27.5c4.6,5.5,9.4,10.1,16.4,12.1c-10.3,18-25.4,31.6-43.6,41.1c-8,4.1-14.6,9.7-19.9,17
		C406.8,873.3,420.9,883.2,388.7,891.4z"/>
	<path class="st0" d="M213,705.3c69.3,66.2,221.5,72.8,295.4,11.4c5.9,4,18.8,24.5,18.9,30.1c-3.3,0-3.3,0-5.6,4
		c-1.7-3.5-2.7-7.1-4.5-10.5c-5-8.2-11.5-6.2-11.5,3.3c0,7.4,2.3,15.3,8,20.3c6.8,4.7,8.4-4.8,8.4-9.7c1.6,0.2,1.9,1.3,1.9,2.3
		c-0.1,3.5,0,7.1-0.7,10.5c-2.2,8.7-10.1,1.6-12.3-3.2c-1.4-2.7-5.2-1.5-4.9,1.5c-0.2,3.5-0.1,7.1-0.9,10.5
		c-1.9,10.6-15,19.4-24.6,12.3c-5.1-3.3-8.6-8.1-11.6-13.1c-1.2-2.8-4.1-4.2-5.4-0.7c-0.2,7.7-1,15.5-5.2,22.3
		c-6.2,11.5-23.7,15.4-32.4,4.7c-4.2-4.8-6.6-10.5-8.3-16.5c-0.4-1.9-0.9-4.6-3.4-4.1c-1.2,0.2-1.9,1-2.1,2.1
		c-1.4,10-4.3,19.9-11,27.7c-18.4,19.2-38.5,7-41.9-16.9c0.3-2.8-3.6-5.9-5-2.4c-3.6,8.8-8.4,17.2-17,22c-9.5,5.4-19,4.7-28.1-0.8
		c-9.3-5.5-9.7-17.8-7.5-27.3c0.6-1.6,1-3.7-1-4.5c-1.2-0.6-2.6,0-3.4,1.6c-2.1,4.1-4.7,8-7.9,11.3c-14.4,17.5-44.4,4.6-41.1-18
		c0.6-4.3,2.1-8.5,3.3-12.7c0.2-1.2-0.4-2.1-1.5-2.6c-2-1-3.3,1.1-4,2.7c-9.6,18.1-27.2,23.9-39.8,8.6c-2.3-2.6-3.6-5.8-4.3-9.2
		c-1-7.4-11,3.1-13.6-10.2c-0.9-4.7-0.1-9.4,0.8-14c0.8-4,0.6-4.5-2.9-6.9C194.3,722,203.3,713.4,213,705.3z M403.4,790.6
		c0.2-24.6-37-24.6-37.1-0.3C366.7,814.8,402.8,815,403.4,790.6z M343.1,790c0.4-23.8-37-25-37.1,0.1
		C306,814.4,343.3,814.4,343.1,790z M456,784.2c1-15.7-18.4-25.8-27.1-11.2C417.6,795.2,451.6,812.3,456,784.2z M255.9,778.7
		c3.5,30.1,40.9,9.8,26-12.4C272.3,754.1,255.3,764.8,255.9,778.7z M502.4,768.2c-0.4-14.8-18.9-25.2-27.7-10.4
		C463.8,780.7,498.1,796.7,502.4,768.2z M238.7,756.4c0.1-9.4-7.6-15.7-16.6-11.6c-16.1,5.9-15.1,37.4,5.7,28.8
		C234.8,769.9,238.1,763.8,238.7,756.4z M191.3,743.6c2.3,17.7,25.5,0.3,24.4-12.4c0.4-8.1-8.7-7.8-13.7-4.4
		C195.9,730.5,192.4,736.8,191.3,743.6z"/>
	<path class="st0" d="M461.6,677.2c-1.4,24.8-13.6,48.4-28.6,67.8c-1.1,1.4-2.5,2.2-4.3,2.5c-11.4,2.4-23,4.1-34.6,5.5
		c-2,0.2-3.8-0.1-5.6-0.9c-28.1-12.4-53.8-37.7-55.4-69.7c-2.6-20.3,16.6-40.6,37.4-35c8.7,2,16.8,5.9,25.1,9
		c8.7,3.7,7.3-16.5,29.1-16.3C446.7,639.6,462.2,655.1,461.6,677.2z"/>
	<path class="st0" d="M223.1,186.7c-21.3,3.2-40.8,13.9-57.8,26.5c-0.9,1.7,0.5,4.7,2.8,3.6c1.1-0.5,2-1.2,3-1.9
		c10.5-7.3,43.7-26.9,55.7-22c4,5.5,8,10.6,12.7,15.5c-15.8,23.2-19.7,59-50.5,67.6c-7.8,2.8-16.5,2-23-3.8
		c-25.2-23.9-10.7-38.6-24.5-53.6c-10.4-7.9-16.2-18.5-18.4-31.1c-1.6-8,0.9-15,7.2-20.2c17.2-15,41.7-9.9,61-2.2
		c8.7,3.3,17.4,6.8,26,10.2c0.7,0.3,1.5,0.9,1.8,1.6C220.6,180.1,221.7,183.2,223.1,186.7z"/>
	<path class="st0" d="M265,174.9c-1.6-4.2-3.1-7.9-4.4-11.6c1.7-16.6,8-32.6,17.3-46.5c7.6-11.3,20-20.1,33.9-20.7
		c20.8-0.5,29.7,23.4,31.4,40.8c1.9,15.5,11.5,17.5,20.5,27.4c16.7,18.9,3.2,44.3-18.1,47.5c-23.7,4.2-46.7-6.8-67.4-17
		c-5.1-3.6-7.7-9.4-10.7-15.1c11.6-11.2,25.2-19.8,40.5-24.9c4-2.5,0.2-6.2-3.5-4.1C289.4,155.8,276.6,164.2,265,174.9z"/>
	<path class="st0" d="M232.8,8.2c5.8,1.7,11.1,5,15.2,9.6c1.3,1.6,2.8,1.8,4.6,1.3c5.6-1.5,11-1,16.5,0.6
		c18.6,5.5,25.2,30.4,16.9,46.7c-18.9,31.3-37.9,50.5-30.5,90.7c-7.7-2.2-11.1-2.2-18.8,0.3c-16.8-35,22.2-110.5-12.3-128
		c-8.9-3.5-19.3-2.1-27.9,1.6c-7.1,3.4-7.4,6.3-10.1,12.8c-2.1-7.9,4.6-14.9,9.9-19.8c12.1-10.6,30.5-10,42.2,1.2
		c1.8,2.6,5.7,0.9,5-2.1c-0.5-1.9-0.9-4.1-2-5.6c-2.5-3.2-5.5-6.3-8.7-8.8C232.7,8.5,232.7,8.3,232.8,8.2z M276.8,50.9
		c0.9-12.4-5.1-26.3-18.5-28.1c-1.3-0.2-2.6-0.3-3.4,1c-0.8,1.3-0.2,2.4,0.6,3.5c10.8,14.1,9.4,33.2,4.4,49.3
		c-0.6,2.2-2.3,5.2,0.4,6.7c2,1.1,3.6-0.8,4.8-2.1C272.6,72.4,277.3,62.6,276.8,50.9z"/>
	<path class="st0" d="M254.7,207.3c-16.6-1.3-24.5-17.4-30.3-30.9c-1.2-3.1-0.1-5.4,2.1-7.4c4.9-2.9,10.1-5.3,15.1-7.8
		c5.4-2.6,12.9-0.3,14.9,5.7c3.5,10.1,8.1,20,14.7,28.5c1.7,2.1,1.4,2.7-0.3,4.6C266.3,204.8,260.7,206.9,254.7,207.3z"/>
	<path class="st0" d="M74.9,465.5c13,17.4,34.7,28.2,56.3,28.3c1.6,0,4-0.6,4.3,1.6c0.3,2-2.2,2.5-3.7,2.9
		c-15.3,4.1-32.4,5.5-47.4-0.6c-2.9-1.3-4.8-3.5-5.6-6.6C76.8,482.8,74.5,474,74.9,465.5z"/>
	<path class="st0" d="M569.1,322.8c4.3,5.8,7.3,10.7,10,16.8c1.1,2.2,0.8,4.1-1.2,5.7c-2.4,1.8-4.5,3.9-7,5.6
		c-9.8,6-19,13.4-29.3,18.4C556.8,353.6,563.5,344.5,569.1,322.8z"/>
	<path class="st0" d="M589,374.4c0.4,6.2,4.6,21.9-2.1,24.6c-10.6,4.4-22.1,6.8-33.6,7.3c-0.1-0.2-0.2-0.5-0.2-0.7
		c12.9-8.4,28.7-15.1,34.9-30.3C588.1,375,588.4,374.9,589,374.4z"/>
	<path class="st0" d="M93.1,526.3c15.7,10.7,32,10.8,49.3,5.6c-3.1,7.9-21.4,13.7-29.6,14C102.7,546.1,97.4,534.8,93.1,526.3z"/>
	<path class="st0" d="M585.2,436c-1.3,4.2-2.8,15.4-8,14c-7.2-1.5-13.6-4.9-20.1-8.2c-0.9-0.4-1.7-1.1-2.4-2
		C564.8,439.4,574.9,440.1,585.2,436z"/>
	<path class="st0" d="M508,744.5c1.9-17.6,12.3,5,11.4,11.4c0,2.1-0.7,8.8-4,6C510.6,757.4,508.5,751,508,744.5z"/>
	<path class="st0" d="M135.5,571.6c8.4-1.3,15.1-4.9,21.9-9.6c-0.7,5.4-4.4,9.3-7.9,13.1C145.8,579.1,139,574.5,135.5,571.6z"/>
	<path class="st0" d="M407.7,315.1c15.9-3.3,34.6,1.8,42.6,16.6c12.8,24.4,11.4,60.4-12.6,77.5c-16.6,11.4-41,8.9-55-5.5
		c-9-9-10.5-22.3-12.2-34.3c0.2-0.1,0.5-0.1,0.7-0.2c4.2,10.7,9.8,20.6,19.8,26.8c19,13.6,49.7,5.5,53.7-19.1
		C450.8,351.1,438.2,315.5,407.7,315.1z"/>
	<path class="st0" d="M383.9,408.6c57.1,36.9,96.1-31.3,67.5-80.8c18.5,15.4,32.9,43.1,21,66.4C458,425.9,400.1,452.7,383.9,408.6z"
		/>
	<path class="st0" d="M440.9,347.4c0.7,10.4-16,7.6-14.2-0.9c0.3-2.2,1.1-4.4,2.1-6.3C433.1,333.5,441.7,340.5,440.9,347.4z"/>
	<path class="st0" d="M404.6,331.4c0.1,5.2-7.5,11.2-13.1,8.6c-3.6-1.7-4.3-4.7-1.8-7.8C393.1,327.2,403.7,322.2,404.6,331.4z"/>
	<path class="st0" d="M414.5,367c-1,13.7-18.8,3.7-12.2-1.8C405.4,362.8,413.3,362.6,414.5,367z"/>
	<path class="st0" d="M268.7,453.5c2.5,17.5-13.5,30.2-29.1,33.4c-14.7,3-30-0.2-43.7-5.7c-26.4-11.5-33.9-48.3-23.8-73.1
		c2.7,36.9,35.2,74.6,74.6,62.2c8.4-2.3,14.2-8.2,19.5-14.6C267.1,454.8,267.3,453.4,268.7,453.5z"/>
	<path class="st0" d="M262.6,422.7c0.5,0.3,0.6,0.3,0.6,0.4c1.7,6.5,3.4,13,4.9,19.6c0.8,3.4-0.5,6.3-2.4,9
		c-10.4,14.5-22.3,20.4-42.2,17.3c-25.7-3.7-42.2-28.4-47.5-52.2c-3-14.3-0.3-22.6,12.5-30.6c-9.8,27.5,7,67.9,39.2,69.2
		C246.6,456.9,262.6,441.6,262.6,422.7z"/>
	<path class="st0" d="M248.6,406.5c-0.4,10.3-12.4,5.1-15.1-1.1C228.9,393.6,249.8,395.6,248.6,406.5z"/>
	<path class="st0" d="M200.9,395.1c-6.8-1.5-9.2-5.3-1.6-8.3c3.6-1,7.2-1.9,10.9-2.6c4.8-1.1,7.1,3,2.4,5.6
		C209.3,392.5,205.5,394.5,200.9,395.1z"/>
	<path class="st0" d="M216.9,415.1c-0.2,7.4-12.5,2.4-9.3-3.2C209.9,408.4,217.3,410.9,216.9,415.1z"/>
	<path class="st0" d="M286.2,515c0.7-0.5,1.3-0.8,1.8-1.1c-2.7-1.5-2.7-1.5-2.2-4.8c1.7,0.1,3.4,0.2,5.8,0.4
		c-1.7-2.2-3.8-1.7-5.5-2.9c1.8-10.7,10.7-18,18.1-25.2c6.5-6.4,8.7-15.1,11.6-23.4c6.4-16.2,29.3-18.3,40.6-6.6
		c7.3,6.9,16.1,10.5,25.7,12.3c7.4,1.9,16.6-0.4,22.5,5.5c-0.4,1.9-3,2.3-2.8,5.1c1.7-1,3.1-1.7,4.5-2.5c2.3,2.6,2.5,3.5,1,6.3
		c1.9,0.2,2.2,1.6,2.2,3.2c1.5,20.1-12.7,34.8-24,49.6c-5.9,10.6-13.9,19.2-26.2,21.4c-10.1,2.3-19.7,1.1-28.8-4.3
		C315.2,538.4,292.8,533.8,286.2,515z M349.6,481.1c-7.1,0.4-13.2,2.3-18.2,7c-4.7,4.5-5.3,9,2.2,11.8c6.5,2.3,16.1,7.9,19.8-1.2
		C356.4,491.1,363.2,480.9,349.6,481.1z M313.2,528c-0.2,0.3-0.3,0.5-0.5,0.8c6.8,5.5,15.9,5.9,23.9,3.4c1.8-0.5,3.1-0.6,4.8,0.3
		c12.3,6.7,28.3,2.1,33.8-11.7c0.6-1.6,1.7-2.2,3.2-2.9c8.5-3.5,14.3-9.7,17.3-18.4c0.4-1.2,1.1-2.6-0.4-4.1
		c-3.5,7.4-6.9,14.2-14.7,17.7c-9.7,5.2-21.4,3.8-28.7-4.6c-1.9-1.4-2.7-0.5-2.9,1.6c4.7,12.6-9.7,19.8-20.2,20.8
		C323.3,531.9,318.3,530.4,313.2,528z"/>
	<path class="st0" d="M504.4,199.2c-0.2,2-1.2,46.6-8.8,40.8c-4-2-7.8-4.6-11.4-7.3c-11.1-8.9-24-14.5-37.3-19.3
		c-15.7-5.8-46.2-12.6-39.6-35.1c10.6-28.5,31.1-54,58-68.5C492.6,95.7,506.6,180.6,504.4,199.2z"/>
	<path class="st0" d="M54.7,245c22.7,0.2,44,8,64.8,16.5c18.9,7,11.7,20.9,4.3,34.3c-13.3,20.6-23.8,42.7-33.9,64.9
		c-3.6,4.5-9.2-0.1-12.8-2.3c-28.6-22.1-48-54.1-52.8-90.1C22.9,245.8,37.2,246.3,54.7,245z"/>
	<path class="st0" d="M243.6,271.3c6.9,3.9,12.8,8.4,19.8,12.4c0.8-5.9,0.1-11-0.2-16.6c7.2,8.9,19.2,54,18.7,69.9
		C266.6,316.7,250.3,296.1,243.6,271.3z"/>
	<path class="st0" d="M297.6,245.1c2,2.6,2.3,5.7,2.8,8.7c3.7,19.6,3.3,39,1.6,58.8c-2.7-3.3-18.8-51.6-18.9-56.7
		c3.1,2.7,5.9,5.1,9.1,7.9C295.5,257.8,296.1,251.4,297.6,245.1z"/>
	<path class="st0" d="M400.9,790.5c-0.6,20.9-31.4,20.9-32.1-0.1C369.3,769.3,400.4,769.3,400.9,790.5z"/>
	<path class="st0" d="M324.5,806.1c-21.1-0.7-20.9-31.8,0.4-32C346,775,345.4,805.6,324.5,806.1z"/>
	<path class="st0" d="M453.3,783.2c0,3.3-0.8,6.4-3.1,9.1c-11.3,12.7-26.9-6.6-18.8-18.4C438.7,762.4,454,771.4,453.3,783.2z"/>
	<path class="st0" d="M258.6,778.3c-0.6-11.6,14.4-20.9,21.8-9.5C291.3,788,260.9,803.3,258.6,778.3z"/>
	<path class="st0" d="M499.3,768.8c-0.1,3.8-1.6,7.6-5.3,10.3c-13.1,8.7-25.4-13-15.1-22.6C487.6,747.9,500,757.8,499.3,768.8z"/>
	<path class="st0" d="M236,756c-0.3,6.8-3.3,11.9-9.2,15.1c-6.6,3.5-13.1-0.4-13.3-7.8C211.4,749.3,234.9,736.7,236,756z"/>
	<path class="st0" d="M213.2,732.2c-0.4,6.3-6.8,14.2-12.9,15.9c-4,1.2-6.7-1-6.3-5c0.6-6.4,6.9-14.1,13-15.8
		C210.9,726.2,213.5,728.3,213.2,732.2z"/>
	<path class="st0" d="M267.5,67.4c2.1-12.5,2-24.7-3.2-36.7c10.4,8.1,9.3,26.1,3.8,36.8C267.9,67.5,267.7,67.5,267.5,67.4z"/>
	<path class="st0" d="M342.3,530.1c5.2-3.5,9.9-6.4,12.4-11.9c5.8,2,11.4,2.7,17.2,1.6C370,531.7,352.7,536.9,342.3,530.1z"/>
</g>
</svg>
