<?xml version="1.0" encoding="utf-8"?>
<!-- Generator: Adobe Illustrator 26.0.0, SVG Export Plug-In . SVG Version: 6.00 Build 0)  -->
<svg version="1.1" id="Capa_1" xmlns="http://www.w3.org/2000/svg" xmlns:xlink="http://www.w3.org/1999/xlink" x="0px" y="0px"
	 viewBox="0 0 595.28 942.11" style="enable-background:new 0 0 595.28 942.11;" xml:space="preserve">
<style type="text/css">
	.st0{fill:#FFFFFF;}
</style>
<g>
	<path d="M405.82,523.2c1.82,3.61,4.05,7.7,5.96,11.94c0.86,1.91,1.94,2.85,3.99,3.39c18.09,4.76,34.4,12.98,47.92,26.07
		c16.33,15.82,22.88,35.25,20.58,57.82c-1.56,15.33-6.78,29.31-15.06,42.19c-0.77,1.19-2.5,1.76-4.5,3.1
		c-5.28,15.47-18.05,24.17-33.28,30.14c-7.81,3.06-15.27,2.51-22.06-2.82c-1.43-1.12-2.9-2.19-4.35-3.28
		c-0.25,1.85-0.63,3.7-0.71,5.56c-0.21,4.75-1.86,8.99-4.73,12.65c-4.11,5.24-8.52,10.23-12.72,15.4c-0.57,0.7-1,1.84-0.89,2.7
		c1.35,10.61,3.01,21.19,4.19,31.82c1.72,15.43,3.99,30.74,8.16,45.72c0.08,0.3,0.25,0.6,0.26,0.9c0.13,3.46,1.19,4.74,4.9,3.02
		c2.66-1.23,7.56,2.04,8.53,5.79c1.08,4.19,1.27,8.61,1.96,12.91c2.23,13.86,4.49,27.72,6.85,41.56c0.21,1.24,1,2.51,1.84,3.5
		c8.76,10.3,14.04,22.09,14.96,35.63c0.66,9.75-2.24,18.56-9.53,25.09c-2.88,2.58-7.37,3.57-11.29,4.73
		c-9.16,2.69-18.65,2.94-28.13,3.25c-13.63,0.44-27.07-0.41-39.88-5.55c-4.19-1.68-8.52-3.44-12.09-6.1
		c-5.37-4.02-6.57-10.66-8.29-16.72c-2.36-8.31-2.53-16.86-1.6-25.41c0.62-5.69,3.62-10.35,7.05-14.72
		c1.44-1.83,2.05-3.53,1.57-5.97c-3.23-16.31-6.27-32.66-9.43-48.98c-0.37-1.92-0.21-3.02,2.1-3.02c1.1,0,2.2-0.45,3.85-0.81
		c-0.9-9.48-1.76-18.89-2.7-28.29c-1.11-11.09-2.36-22.17-3.4-33.26c-0.18-1.96-0.78-2.37-2.66-2.31
		c-11.43,0.38-22.87,0.73-34.3,0.86c-3.58,0.04-7.17-0.66-10.64-1.02c-1.68,21.26-3.33,41.97-4.97,62.74
		c5.2,1.12,6.79,3.16,7.63,9.12c1.32,9.36-0.3,18.51-1.7,27.66c-2.18,14.18-0.44,27.6,5.43,40.82c6.84,15.4,3.14,35.12-17.06,43.32
		c-10.5,4.26-21.38,6-32.59,6.09c-12.51,0.09-25.02-0.14-37.52,0.09c-5.93,0.11-10.22-2.45-13.61-6.86
		c-9.49-12.36-12-30.84,0.04-46.94c3.35-4.48,7.36-8.46,10.97-12.76c0.74-0.88,1.43-2.09,1.5-3.19c0.69-10.7,1.36-21.41,1.79-32.13
		c0.2-4.96-0.21-9.94-0.23-14.9c0-1.54,0.29-3.11,0.6-4.63c0.36-1.72,0.47-3.1,3.34-2.58c2.63,0.47,5.59-0.88,8.8-1.5
		c0.53-7.35,1.26-15.01,1.6-22.67c0.97-21.95,1.78-43.9,2.6-65.86c0.03-0.83-0.26-1.99-0.83-2.48c-4.56-3.86-7.59-8.71-9.69-14.23
		c-0.14-0.37-0.5-0.66-0.98-1.26c-4.59,6.48-10.13,11.79-18.62,8.67c-6.64-2.45-10.03-8.09-10.46-14.53
		c-6.53-2.51-13.01-4.41-18.93-7.4c-12.42-6.28-21.17-16.22-26.68-29.03c-0.71-1.64-0.83-3.9-3.6-3.98
		c-0.67-0.02-1.38-1.41-1.93-2.27c-5.97-9.38-7.38-19.91-7.9-30.72c-1.09-22.79,7.25-41.97,21.66-59.14
		c9.74-11.6,20.78-21.36,34.92-27.01c6.03-2.41,12.51-3.7,18.77-5.52c0.65-0.19,1.74-0.47,1.79-0.83c0.93-6.23,6.34-9.31,9.58-13.9
		c0.66-0.94,1-2.12,1.69-3.62c-6.66-1.27-12.73-2.65-18.87-3.55c-11.58-1.7-21.75-6.71-31.39-12.97c-4.62-3-8.91-6.5-13.46-9.61
		c-6.09-4.16-12.35-8.07-18.43-12.25c-19.59-13.45-35.11-30.57-45.7-51.9c-7.92-15.94-12.04-33.1-15.19-50.51
		c-2.71-15-4.15-30.16-3.68-45.37c0.47-15.37,1.15-30.79,6.16-45.63c-4.6-1.6-9.23-3.01-13.7-4.81
		c-21.47-8.64-35.9-23.77-43.86-45.72c-6.68-18.45-7.4-36.72-1.84-55.36c2.35-7.87,6.41-14.85,11.49-21.27
		c10.85-13.7,24.44-23.56,41.39-27.95c21.84-5.66,43.48-5.59,64.02,5.25c3.63,1.91,6.69,4.9,9.99,7.42
		c0.71,0.54,1.31,1.23,1.65,1.56c2.12-3.11,4.37-5.94,6.06-9.06c0.82-1.51,0.67-3.59,0.8-5.42c0.56-7.89,0.35-15.91,1.76-23.64
		c2.13-11.67,10.1-18.59,21.28-21.71c20.53-5.72,38.61-15.82,54.13-30.33c10.65-9.95,20.95-20.29,31.23-30.62
		c12.71-12.78,27.32-22.07,45.36-25c12.12-1.97,23.96-0.37,34.91,5.2c14.59,7.43,27.21,17.59,38.49,29.45
		c12.21,12.85,24.67,25.55,39.72,35.06c7.93,5.01,16.66,8.95,25.38,12.49c13.76,5.58,23.63,14.48,27.85,29
		c2.52,8.65,2.12,17.53,1.83,26.37c-0.08,2.59-0.86,5.17-1.39,8.16c6.65-3.67,12.38-7.26,18.45-10.11
		c16.99-7.97,34.86-12.62,53.73-10.9c20.15,1.83,36.66,10.85,47.53,28.25c10.23,16.36,15.61,34.51,15.87,53.83
		c0.34,24.78-9.6,45.2-28,61.59c-8.75,7.79-18.89,12.72-31.01,14.2c0.85,11.22,1.76,22.3,2.5,33.39
		c1.16,17.19,0.65,34.35-1.67,51.43c-2.81,20.64-8.34,40.52-18.01,59.03c-18.84,36.08-45.2,65.03-81.87,83.53
		C427.18,515.85,416.24,519.13,405.82,523.2z M65.3,334.63c0,4.79-0.19,9.59,0.03,14.37c0.99,20.78,4.06,41.22,11.08,60.88
		c9.99,28,27.07,50.36,52.67,66.01c8.67,5.3,17.03,11.16,25.24,17.15c11.13,8.12,23.36,13.61,36.88,15.83
		c14.25,2.33,28.58,4.24,42.93,5.85c12.29,1.38,24.64,2.76,36.98,2.9c25.2,0.28,50.42-0.27,75.63-0.47
		c13.86-0.11,27.71-0.17,41.57-0.31c1.31-0.01,2.65-0.32,3.92-0.68c1.95-0.56,3.81-1.71,5.78-1.9c13.35-1.3,25.73-5.83,37.54-11.78
		c16.78-8.46,31.5-19.76,44.15-33.72c17.73-19.56,31.39-41.62,40.56-66.38c6.08-16.4,8.86-33.53,10.22-50.9
		c1.47-18.86,0.96-37.67-1.17-56.46c-0.54-4.79-0.77-9.73-0.26-14.5c0.46-4.27,2.38-5.22,6.6-5.54c2.58-0.2,5.28-0.34,7.66-1.23
		c11.75-4.4,21.55-11.61,29.3-21.5c10.66-13.6,15.84-29.23,15.74-46.38c-0.09-16.93-5.33-32.42-14.56-46.66
		c-8.41-12.98-19.39-22.12-34.94-25.03c-17.24-3.23-33.92-1.65-50.09,5.34c-9.56,4.13-19.15,8.37-27.18,14.99
		c-4.74,3.91-10.03,6.89-15.32,9.27c-21.65,9.72-44.96,12.37-68.3,12.57c-41.25,0.35-82.52-0.44-123.77-0.83
		c-8.85-0.08-17.7-0.28-26.53-0.79c-14.11-0.82-28.22-1.87-42.31-2.97c-14.44-1.13-28.67-3.46-42.19-8.87
		c-2.39-0.96-4.36-3-6.5-4.56c-0.97-0.7-1.87-1.5-2.85-2.18c-1.04-0.73-2.48-1.12-3.17-2.08c-5.28-7.29-12.67-11.51-20.8-14.75
		c-9.59-3.83-19.66-4.27-29.75-4.04c-21.89,0.5-40.57,8.46-55.81,24.41c-12.91,13.52-18.09,29.91-17.99,48.12
		c0.08,14.39,3.75,27.93,11.31,40.35c11.41,18.75,28.96,28.39,49.46,33.65c4.12,1.06,4.53,1.2,3.48,5.22
		C66.48,302.63,64.66,318.5,65.3,334.63z M291.45,574.03c-0.57,0.8-1.18,1.62-1.75,2.47c-5.93,8.88-2.75,7.96-13.64,5.36
		c-28.54-6.83-54.13-19.72-76.66-38.56c-1.79-1.5-3.15-2.15-5.32-0.5c-1.41,1.07-3.42,1.4-5.19,1.95
		c-4.56,1.43-9.28,2.42-13.67,4.25c-13.77,5.75-24.6,15.43-33.99,26.78c-18.34,22.15-25.32,46.71-15.46,74.77
		c0.9,2.56,1.75,3.62,4.61,2.29c10.72-4.99,21.52-9.8,32.31-14.63c4.21-1.89,4.95-2.91,3.28-7.26c-1.96-5.11-4.24-10.1-6.67-15.01
		c-2.5-5.05-2.44-10.13,1.43-13.93c9.79-9.61,20.02-18.78,30.21-27.97c1.1-0.99,3.28-1.67,4.64-1.3c2.45,0.65,3.86,2.85,3.85,5.48
		c-0.01,1.95-0.65,3.91-0.65,5.86c0,10.82,0.21,21.64,0.17,32.47c-0.04,9.66-0.33,19.32-0.46,28.98c-0.01,0.85,0.22,1.82,0.66,2.55
		c3.02,5.05,4.5,10.52,4.38,16.36c-0.08,4.12-0.48,8.23-0.68,11.6c3.44,2.87,6.49,5.42,9.68,8.09c0.32-0.44,0.85-1.06,1.26-1.74
		c2.28-3.75,5.45-5.68,9.99-5.73c9.58-0.1,17.62,3.36,24.56,9.77c0.6,0.55,1.24,1.32,1.95,1.44c5.1,0.85,10.21,2.07,15.35,2.21
		c22.64,0.63,45.05-1.04,67.2-6.37c12.31-2.96,24.2-6.69,35.25-12.84c1.84-1.02,3.44-2.81,4.63-4.58c1.86-2.75,7.48-5.15,10.83-4.46
		c1.11,0.23,2.79-0.02,3.55-0.74c3.45-3.26,7.07-6.09,11.74-6.67c-0.83-4.26-2.26-8.29-2.28-12.32
		c-0.07-16.36,0.21-32.72,0.56-49.08c0.15-6.86,0.66-13.71,1.25-20.55c0.34-3.89,2.5-4.91,6.09-3.13
		c10.66,5.3,19.97,12.34,27.78,21.38c6.86,7.94,7.94,16.55,3.77,26.1c-3.07,7.04-5.87,14.21-8.6,21.39
		c-0.41,1.07-0.16,2.88,0.53,3.8c8.15,10.9,19.13,16.97,32.58,18.77c2.22,0.3,3.25-0.3,3.59-2.58c0.19-1.29,0.74-2.68,1.54-3.71
		c7.86-10.11,10.88-21.8,11.61-34.33c1.2-20.48-4.44-38.07-20.45-51.87c-12.58-10.84-27.27-17.71-42.33-24.04
		c-0.53-0.22-1.29-0.33-1.78-0.12c-2.18,0.92-4.4,1.82-6.43,3.02c-15.85,9.41-32.4,17.37-49.56,24.08
		c-10.05,3.93-20.15,7.76-30.33,11.34c-3.4,1.2-7.17,2.6-10.87-1.09c-0.25,3.02-0.62,5.38-0.61,7.73
		c0.02,8.96,0.19,17.93,0.26,26.89c0.03,3.34-1.35,4.69-4.74,4.65c-5.21-0.07-10.42-0.38-15.62-0.27c-2.98,0.06-3.87-1.4-3.99-3.93
		c-0.15-3.23-0.45-6.46-0.37-9.68C290.69,595.93,291.1,585.01,291.45,574.03z M143.32,135.04c4.44,0.24,8.59,0.71,12.74,0.65
		c9.89-0.15,19.78-0.89,29.66-0.77c27.49,0.34,54.98,1.29,82.47,1.45c33.45,0.2,66.91-0.14,100.36-0.28
		c22.4-0.09,44.8-0.22,67.2-0.4c6.52-0.05,13.04-0.33,19.95-0.51c-0.38-5.42-0.33-10.44-1.15-15.31
		c-2.49-14.73-9.86-25.88-24.31-31.42c-2.03-0.78-4.13-1.37-6.18-2.11c-17.88-6.42-32.81-17.26-46.2-30.54
		c-9.46-9.38-19.01-18.68-28.84-27.68c-7.14-6.53-15.04-12.07-23.94-16.18c-21.59-9.97-41.99-7.55-60.24,7.05
		c-12.23,9.78-23.04,21.34-34.59,31.98c-8.63,7.96-16.77,16.69-26.33,23.34c-12.12,8.43-26.31,13.16-40.25,18
		c-2.93,1.02-6.2,1.6-8.65,3.33c-5.62,3.94-9.76,9.42-10.59,16.33C143.52,119.55,143.65,127.25,143.32,135.04z M333.01,821.3
		c1.43,4.44,3.24,8.58,4.04,12.9c1.78,9.61,2.76,19.37,4.64,28.95c1.08,5.49,0.42,9.73-2.86,14.64c-8.33,12.49-6.71,26-2.06,39.52
		c2.16,6.28,6.46,10.09,12.2,12.99c5.2,2.63,10.78,2.86,16.31,3.47c18.85,2.09,37.37,0.11,55.58-5c1.53-0.43,3.03-1.44,4.2-2.55
		c4.29-4.05,4.92-9.58,5.09-14.96c0.35-10.74-4.5-19.64-10.69-27.99c-2.35-3.18-4.45-6.55-6.99-10.32
		c-2.87,1.08-6.52,2.44-10.16,3.83c-1.32,0.5-2.57,1.44-3.91,1.58c-10.06,1.04-20.15,1.57-30.17-0.26c-6.04-1.1-12-2.6-18-3.93
		c0.07-0.29,0.13-0.57,0.2-0.86c3.72,0,7.43,0.02,11.15,0c9.25-0.05,18.5-0.01,27.75-0.23c3.3-0.08,6.78-0.26,9.81-1.39
		c4.21-1.57,8.08-4.08,12.14-6.21c-2.92-16.28-2.93-33.16-8.47-49.38c-7.54,4.81-15.28,7.82-23.75,8.17
		C363.61,824.91,348.12,825.62,333.01,821.3z M204.12,821.47c0,7,0.3,13.64-0.07,20.25c-0.6,10.8-1.54,21.59-2.59,32.37
		c-0.17,1.75-1.35,3.67-2.6,5.02c-6.15,6.63-11.48,13.84-14.41,22.42c-3.52,10.33-2.01,19.95,5.64,28.14
		c3.03,3.24,6.67,5.09,11.35,4.84c13.92-0.75,27.85-1.2,41.76-2.03c10.76-0.64,20.41-4.52,28.96-11.1
		c3.48-2.68,5.93-5.99,6.82-10.45c1.76-8.78-0.03-16.91-4-24.73c-0.88-1.72-1.96-1.86-3.81-1.38c-5.12,1.31-10.29,2.74-15.52,3.25
		c-11.12,1.09-21.98-0.75-32.51-4.37c-2.54-0.87-4.89-2.28-7.33-3.44c0.1-0.35,0.21-0.7,0.31-1.05c18.44,3.28,36.78,2.67,55.52-0.83
		c-3.03-9.44-0.71-18.74-0.18-28.03c0.53-9.3,1.55-18.57,2.41-28.51C250.4,825.89,227.29,827.97,204.12,821.47z M199.38,535.34
		c5.31,3.84,10.13,7.46,15.09,10.88c20.06,13.83,41.78,23.84,65.76,28.77c2.23,0.46,2.99-0.15,3.61-2.04
		c3.28-9.94,8.33-19.01,13.96-27.77c1.81-2.81,4.76-2.84,6.46,0.02c2.29,3.84,4.4,7.78,6.56,11.7c3.15,5.74,6.27,11.49,9.4,17.24
		c0.84,1.55,1.81,2.19,3.77,1.48c25.68-9.37,50.82-19.91,74.63-33.45c5.8-3.3,5.82-3.27,2.91-9.15c-0.46-0.93-0.99-1.83-1.32-2.81
		c-1.34-3.99-3.5-5.32-8.2-5.12c-16.74,0.73-33.52,0.72-50.29,0.79c-26.05,0.1-52.11,0.03-78.17,0.02c-1.15,0-2.3,0.04-3.43-0.09
		c-16.33-1.78-32.65-3.55-48.97-5.42c-2-0.23-2.63,0.56-3.39,2.21c-1.25,2.69-2.86,5.22-4.48,7.71
		C202.23,531.94,200.91,533.39,199.38,535.34z M140.22,141.68c-2.24,3.8-3.01,7.39-1.98,11.16c0.35,1.29,1.35,2.7,2.46,3.45
		c5.38,3.64,11.24,6.51,17.73,7.21c17.68,1.9,35.36,4.06,53.09,5.03c25.24,1.38,50.53,1.98,75.81,2.54
		c16.77,0.37,33.55,0.18,50.32,0.07c16.43-0.1,32.88-0.02,49.29-0.77c10.98-0.51,21.97-1.94,32.83-3.7
		c8.57-1.39,16.9-3.89,24.45-8.7c5.03-3.2,7.06-7.23,6.27-13.23c-0.88,0.11-1.8,0.09-2.64,0.34c-9.93,2.94-20.17,4.16-30.44,4.48
		c-16.54,0.52-33.1,0.64-49.66,0.64c-32.81,0-65.63-0.15-98.44-0.34c-13.85-0.08-27.7-0.21-41.54-0.66
		c-20.69-0.67-41.39-1.45-62.06-2.55C157.17,146.2,148.31,146.84,140.22,141.68z M330.77,749.82c0.71,3.59,1.5,6.67,1.89,9.79
		c1.06,8.37,1.88,16.76,2.92,25.13c1.14,9.19,2.59,18.35,3.54,27.56c0.23,2.19,0.93,3.06,2.78,3.2c9.31,0.7,18.62,1.82,27.94,1.81
		c7-0.01,14.15-0.46,20.81-3.41c1.66-0.74,2.27-1.28,1.52-3.18c-1.25-3.18-2.42-6.44-3.15-9.77c-4.32-19.47-5.9-39.28-6.94-59.15
		c-0.19-3.69-0.38-7.37-0.6-11.74C366.68,743.49,348.73,747.24,330.77,749.82z M265.26,815.53c1.81-15.01,3.65-29.97,5.42-44.95
		c0.73-6.19,1.29-12.41,1.96-18.61c0.2-1.84-0.65-2.33-2.4-2.79c-9.11-2.39-18.37-4.43-27.15-7.74c-7.67-2.9-14.76-7.33-22.27-11.17
		c1.04,28.78-0.23,57.66-4.03,86.51C233.2,819.38,249.1,819.08,265.26,815.53z M394.62,700.24c-3.92,0.27-3.81,0.37-6.3,2.83
		c-1.51,1.49-3.25,3.41-5.13,3.75c-5.64,1-11.11,2.28-16.65,3.89c-9.74,2.83-19.9,4.28-29.92,6.06
		c-15.37,2.73-30.84,4.64-46.48,5.01c-11.22,0.26-22.47,1.25-33.49-1.93c-1.66-0.48-2.5-0.02-2.81,1.77
		c-0.86,4.97-3.41,8.87-7.77,11.5c-0.45,0.27-0.99,0.37-1.49,0.55c4.19,1.96,7.8,3.11,11.43,4.19c12.48,3.71,25.17,6.08,38.24,6.44
		c11.7,0.32,23.25-0.85,34.78-2.67c9.94-1.57,19.85-3.02,29.33-6.77C375.07,728.25,386.69,716.5,394.62,700.24z M256.34,714.56
		c1.56-0.1,3.4-0.34,5.23-0.3c1.97,0.04,3.94,0.33,5.9,0.53c1.03,0.11,2.06,0.35,3.1,0.37c25.48,0.4,50.69-2.02,75.65-7.19
		c8.43-1.75,16.98-3.07,24.8-6.94c1.01-0.5,2.52-1.48,2.54-2.27c0.2-7.31,0.12-14.64,0.12-21.46c-11.27,3.82-22.05,8.41-33.29,11.04
		c-14.55,3.41-29.42,5.66-44.25,7.61c-9.23,1.22-18.65,1.32-27.97,1.24c-4.65-0.04-9.29-1.61-13.7-2.45
		C255.09,701.37,255.72,708.01,256.34,714.56z M132.02,659.97c0.27,0.87,0.33,1.27,0.51,1.62c8.86,17.24,22.85,27.96,41.59,32.52
		c5.56,1.35,10.48,0.21,14.19-4.65c8.04-10.53,9.24-22.13,5.76-34.58c-1.44-5.14-5.25-7.96-9.75-9.68c-3-1.15-5.39-2.4-6.3-5.61
		c-2.75,0.09-5.34-0.03-6.78,2.89c-0.29,0.58-1.41,0.76-2.16,1.1C156.76,649.03,144.44,654.47,132.02,659.97z M419.7,641.64
		c0.21-1.29,0.41-2.21,0.5-3.13c0.57-6.53,3.05-12.41,5.67-18.34c2.24-5.08,3.77-10.49,5.44-15.81c0.25-0.8-0.27-1.99-0.74-2.84
		c-5.79-10.53-14.61-17.86-25.09-23.56c-2.02,22.83-1.85,45.64-0.98,68.73c1.89-1.4,3.13-2.92,4.67-3.32
		C412.52,642.49,416.02,642.2,419.7,641.64z M411.57,686.81c1.93,1.27,4.01,2.31,5.68,3.81c2.6,2.33,5.4,2.64,8.68,2.02
		c15.44-2.91,25.32-13.09,33.68-25.48c-16.19-1.28-28.92-8.77-38.7-21.49c-1.63,1.07-2.92,1.9-4.2,2.76
		c-0.25,0.17-0.46,0.41-0.6,0.55C419.41,662.24,414.45,674.37,411.57,686.81z M147.57,140.32c0,0.34,0,0.67,0,1.01
		c6.51,0.55,13.01,1.28,19.53,1.62c8,0.41,16.02,0.44,24.03,0.73c15.71,0.57,31.41,1.83,47.11,1.71c63.23-0.5,126.5,1.88,189.7-1.58
		c6.17-0.34,12.27-1.95,18.4-2.98c-0.05-0.32-0.11-0.63-0.16-0.95c-7.79,0.33-15.57,0.9-23.36,0.96
		c-27.3,0.19-54.61,0.41-81.91,0.24c-40-0.24-80-0.84-120-1.18c-21.99-0.19-43.98-0.21-65.97-0.24
		C152.48,139.66,150.03,140.09,147.57,140.32z M192.04,582.12c-1.32,0.88-2.18,1.26-2.78,1.88c-7.24,7.39-14.37,14.9-21.7,22.2
		c-2.39,2.38-2.81,4.47-1.33,7.59c3.09,6.51,7.35,12.59,7.62,20.47c6.34-0.69,12.32-1.34,18.19-1.98
		C192.04,616.11,192.04,599.45,192.04,582.12z M215.13,699.77c0.08,0.01,0.16,0.02,0.24,0.03c0,1.15-0.01,2.29,0,3.44
		c0.12,10.23,7.53,20.76,17.13,24.37c4.47,1.68,9.17,0.96,11.66-2.49c1.96-2.72,3.77-5.85,4.54-9.07c1.84-7.68,0.97-15.34-2.4-22.53
		c-0.83-1.76-2.43-3.34-4.03-4.52c-4.76-3.51-10.4-4.48-16.13-4.98c-5.86-0.51-8.97,1.71-10.06,7.4
		C215.55,694.16,215.44,696.98,215.13,699.77z M308.9,614.46c0-5.07,0-9.95,0-14.83c0.01-5.61-1.06-11.5,0.28-16.78
		c2.09-8.29-0.24-14.92-4.59-21.49c-0.91-1.38-1.54-2.94-2.37-4.37c-0.38-0.65-0.94-1.19-2.02-2.53c-0.9,2.85-2.01,4.93-2.15,7.06
		c-0.69,10.38-1.16,20.77-1.63,31.16c-0.29,6.34-0.51,12.69-0.57,19.03c-0.01,0.91,0.99,2.58,1.61,2.62
		C301.06,614.59,304.69,614.46,308.9,614.46z M379,700.93c4.21,0.52,5.16-0.45,6.11-5.4c1.54-8.01,1.15-16.15,0.03-24.22
		c-0.13-0.91-0.39-1.88-0.89-2.63c-1.64-2.51-3.79-1.42-5.76-0.54c-1.97,0.87-2.86,2.22-1.68,4.48c0.9,1.73,2.04,3.61,2.09,5.45
		C379.14,685.61,379,693.16,379,700.93z M210.44,706.78c0-7.1,0-13.38,0-19.73c-2.78-1.33-6.18-2.96-9.36-4.49
		c-2.02,4.05-4.05,8.09-6.19,12.38C199.61,698.53,204.71,702.42,210.44,706.78z M391.57,693.39c3.4-0.07,4.9-1.68,5.77-4.92
		c2.46-9.2,2.62-18.43,1.41-27.97c-3.31,1.47-6.55,2.92-9.71,4.33C394.98,674.15,391.67,683.92,391.57,693.39z M192.67,697.53
		c-4.76,1.64-9.42,3.24-13.68,4.71c0.81,1.29,2.22,2.99,3.03,4.93c2.05,4.94,7.7,6.36,11.62,2.71c1.59-1.48,3.1-3.04,4.38-4.29
		C196.02,702.57,194.17,699.79,192.67,697.53z M409.54,649.95c-1.17,1.43-2.5,2.75-3.46,4.31c-0.71,1.15-1.37,2.61-1.32,3.9
		c0.21,5.36,0.86,10.7,1.03,16.06c0.09,3.01-0.43,6.03-0.68,9.05c0.34,0.04,0.68,0.08,1.02,0.12
		C410.1,672.7,410.66,661.54,409.54,649.95z"/>
	<path class="st0" d="M65.3,334.63c-0.63-16.13,1.19-32.01,5.24-47.62c1.04-4.02,0.63-4.17-3.48-5.22
		c-20.5-5.26-38.05-14.89-49.46-33.65c-7.56-12.43-11.23-25.97-11.31-40.35c-0.1-18.21,5.08-34.61,17.99-48.12
		c15.24-15.96,33.92-23.91,55.81-24.41c10.09-0.23,20.16,0.21,29.75,4.04c8.13,3.25,15.52,7.46,20.8,14.75
		c0.69,0.96,2.13,1.35,3.17,2.08c0.98,0.68,1.88,1.48,2.85,2.18c2.15,1.56,4.11,3.6,6.5,4.56c13.53,5.41,27.75,7.74,42.19,8.87
		c14.1,1.1,28.2,2.15,42.31,2.97c8.83,0.51,17.68,0.71,26.53,0.79c41.26,0.39,82.52,1.18,123.77,0.83
		c23.34-0.2,46.65-2.85,68.3-12.57c5.3-2.38,10.58-5.35,15.32-9.27c8.03-6.63,17.62-10.86,27.18-14.99
		c16.17-6.99,32.86-8.57,50.09-5.34c15.54,2.91,26.52,12.05,34.94,25.03c9.23,14.24,14.47,29.73,14.56,46.66
		c0.09,17.15-5.08,32.78-15.74,46.38c-7.75,9.88-17.55,17.09-29.3,21.5c-2.38,0.89-5.08,1.03-7.66,1.23
		c-4.22,0.32-6.14,1.28-6.6,5.54c-0.52,4.77-0.28,9.71,0.26,14.5c2.13,18.8,2.64,37.6,1.17,56.46c-1.36,17.38-4.14,34.5-10.22,50.9
		c-9.17,24.76-22.83,46.82-40.56,66.38c-12.65,13.96-27.37,25.26-44.15,33.72c-11.82,5.96-24.19,10.48-37.54,11.78
		c-1.97,0.19-3.83,1.34-5.78,1.9c-1.27,0.37-2.61,0.67-3.92,0.68c-13.86,0.14-27.71,0.21-41.57,0.31
		c-25.21,0.2-50.42,0.76-75.63,0.47c-12.34-0.14-24.7-1.53-36.98-2.9c-14.35-1.61-28.68-3.52-42.93-5.85
		c-13.51-2.21-25.75-7.71-36.88-15.83c-8.22-5.99-16.57-11.85-25.24-17.15c-25.6-15.65-42.68-38.01-52.67-66.01
		c-7.02-19.66-10.09-40.1-11.08-60.88C65.1,344.22,65.3,339.42,65.3,334.63z M329.46,417.02c0.71-0.09,1.43-0.27,2.13-0.25
		c6.76,0.19,13.51,0.53,20.27,0.62c10.15,0.13,18.55-3.75,24.37-12.11c2.88-4.13,5.7-8.63,7.14-13.39
		c4.42-14.66,4.77-29.04-7.81-40.37c-12.95-11.65-27.79-16.24-44.9-10.14c-0.83,0.3-1.7,0.51-2.67,0.79
		c-0.4-1.4-0.72-2.49-1.03-3.57c-1.75-5.97-5.79-10-11.76-10.75c-10.03-1.25-19.59,0.36-26.98,8.21c-1.49,1.58-2.94,2.32-5.11,2.18
		c-12.97-0.83-24,4.3-33.14,12.73c-14.26,13.15-18.5,29.87-13.3,48.39c2.99,10.66,11.37,15.47,22.18,17.42
		c14.07,2.53,26.6-0.24,38.01-8.53c2.31-1.68,4.14-4,5.88-5.72c4.65,3.28,9,6.9,13.86,9.59c4,2.22,8.61,3.36,12.96,4.97
		c-2.02,0.75-4.07,1.42-6.05,2.26c-14.28,6.09-28.23,5.44-41.88-1.98c-0.47-0.26-1.1-0.24-2.03-0.43c1.1,4.44,3.18,7.49,7.31,8.87
		c1.47,0.49,3.02,0.82,4.41,1.49c10.15,4.84,20.52,4.37,30.94,1.24c3.59-1.08,6.23-3.53,8.06-6.92
		C331.37,419.68,331.58,418.22,329.46,417.02z M170.93,358.22c0.01,0.27,0.03,0.55,0.04,0.82c5.26-0.51,10.6-0.65,15.77-1.63
		c5.57-1.06,10.78-2.58,13.74-8.75c7.03-14.67,5.97-28.5-2.49-42.11c-2.11-3.39-5.14-5.3-8.75-6.59
		c-13.6-4.86-27.57-3.34-41.07-0.77c-22.79,4.34-32.15,32.44-17.42,50.36c3.75,4.56,8.13,8.54,14.56,8.63
		C153.86,358.31,162.39,358.22,170.93,358.22z M405.18,328.79c0.04,9.77,3.08,18.23,9.23,24.48c1.24,1.26,3.33,2.27,5.08,2.35
		c14.04,0.59,28.11,0.52,42.11,1.55c6.15,0.45,9.86-2.31,13.45-6.15c8.59-9.18,11.28-20.31,10.52-32.56
		c-0.38-6.04-2.51-10.9-7.68-14.54c-4.63-3.25-9.63-3.8-15-3.94c-11.96-0.3-23.91-0.84-35.86-1.42c-3.53-0.17-6.28-0.04-9.43,2.77
		C409.21,308.81,405.24,317.8,405.18,328.79z M80.27,167.72c-0.05-0.27-0.1-0.53-0.15-0.8c-6.5,1.2-13.09,2.02-19.47,3.66
		c-15.19,3.91-28.56,16.61-29.52,35.19c-0.51,10.03,2.67,18.6,10.14,25.41c7.06,6.43,16.04,8.48,24.93,10.62
		c2.6,0.63,5.34,0.97,7.99,0.9c1.29-0.04,3.15-1.05,3.71-2.15c5.02-9.79,9.94-19.65,14.64-29.6c3.94-8.35,6.88-17.2,12.93-24.43
		c3.01-3.61,3.23-6.05,0.35-9.71c-1.5-1.9-3.52-3.63-5.66-4.75C93.96,168.79,87.23,167.59,80.27,167.72z M512.36,162.99
		c-9.83-0.4-15.25,2.01-20.69,6.09c-7.08,5.31-7.3,9.02-1.02,15.15c7.92,7.72,14.33,16.58,18.5,26.77
		c3.73,9.09,6.58,18.54,9.84,27.82c1.9,5.42,1.92,5.41,7.66,5.26c0.52-0.01,1.07,0.12,1.56-0.01c2.96-0.8,6.19-1.14,8.78-2.61
		c3.49-1.98,6.6-4.71,9.68-7.34c13.89-11.92,19.23-33.07,5.41-52.27C542.5,168.54,529.2,162.77,512.36,162.99z"/>
	<path class="st0" d="M291.45,574.03c-0.35,10.98-0.76,21.9-1.03,32.82c-0.08,3.22,0.22,6.45,0.37,9.68
		c0.12,2.52,1.01,3.99,3.99,3.93c5.2-0.11,10.41,0.2,15.62,0.27c3.4,0.04,4.77-1.31,4.74-4.65c-0.07-8.96-0.23-17.93-0.26-26.89
		c-0.01-2.35,0.36-4.7,0.61-7.73c3.71,3.69,7.47,2.29,10.87,1.09c10.18-3.59,20.28-7.41,30.33-11.34
		c17.15-6.71,33.71-14.66,49.56-24.08c2.03-1.21,4.25-2.1,6.43-3.02c0.49-0.21,1.25-0.1,1.78,0.12
		c15.06,6.33,29.75,13.2,42.33,24.04c16.01,13.79,21.64,31.39,20.45,51.87c-0.73,12.53-3.75,24.22-11.61,34.33
		c-0.8,1.03-1.35,2.42-1.54,3.71c-0.33,2.28-1.37,2.87-3.59,2.58c-13.45-1.8-24.43-7.87-32.58-18.77c-0.68-0.92-0.93-2.73-0.53-3.8
		c2.72-7.19,5.52-14.35,8.6-21.39c4.17-9.56,3.09-18.16-3.77-26.1c-7.81-9.04-17.12-16.08-27.78-21.38
		c-3.59-1.78-5.75-0.76-6.09,3.13c-0.59,6.83-1.11,13.69-1.25,20.55c-0.35,16.36-0.62,32.72-0.56,49.08
		c0.02,4.03,1.45,8.06,2.28,12.32c-4.66,0.59-8.29,3.41-11.74,6.67c-0.76,0.72-2.44,0.97-3.55,0.74c-3.36-0.69-8.98,1.71-10.83,4.46
		c-1.2,1.78-2.8,3.56-4.63,4.58c-11.06,6.14-22.94,9.88-35.25,12.84c-22.16,5.33-44.56,7-67.2,6.37
		c-5.13-0.14-10.25-1.37-15.35-2.21c-0.71-0.12-1.36-0.88-1.95-1.44c-6.94-6.41-14.99-9.87-24.56-9.77
		c-4.55,0.05-7.71,1.97-9.99,5.73c-0.42,0.68-0.94,1.3-1.26,1.74c-3.19-2.67-6.25-5.22-9.68-8.09c0.21-3.37,0.6-7.48,0.68-11.6
		c0.12-5.85-1.36-11.31-4.38-16.36c-0.44-0.73-0.67-1.7-0.66-2.55c0.12-9.66,0.42-19.32,0.46-28.98
		c0.04-10.82-0.16-21.64-0.17-32.47c0-1.95,0.64-3.91,0.65-5.86c0.01-2.64-1.4-4.83-3.85-5.48c-1.36-0.36-3.54,0.31-4.64,1.3
		c-10.19,9.19-20.42,18.35-30.21,27.97c-3.87,3.8-3.93,8.88-1.43,13.93c2.43,4.9,4.71,9.9,6.67,15.01c1.67,4.35,0.93,5.37-3.28,7.26
		c-10.79,4.83-21.59,9.64-32.31,14.63c-2.87,1.33-3.71,0.27-4.61-2.29c-9.85-28.05-2.88-52.61,15.46-74.77
		c9.39-11.34,20.22-21.02,33.99-26.78c4.38-1.83,9.11-2.83,13.67-4.25c1.77-0.55,3.78-0.88,5.19-1.95c2.17-1.65,3.53-1,5.32,0.5
		c22.54,18.84,48.12,31.74,76.66,38.56c10.89,2.6,7.71,3.52,13.64-5.36C290.27,575.65,290.89,574.83,291.45,574.03z"/>
	<path class="st0" d="M143.32,135.04c0.33-7.79,0.2-15.48,1.1-23.05c0.83-6.91,4.97-12.38,10.59-16.33
		c2.45-1.72,5.72-2.31,8.65-3.33c13.95-4.84,28.14-9.57,40.25-18c9.56-6.65,17.7-15.38,26.33-23.34
		c11.55-10.65,22.36-22.2,34.59-31.98c18.25-14.6,38.65-17.02,60.24-7.05c8.9,4.11,16.8,9.64,23.94,16.18
		c9.83,8.99,19.38,18.29,28.84,27.68c13.38,13.28,28.32,24.12,46.2,30.54c2.05,0.73,4.15,1.33,6.18,2.11
		c14.46,5.55,21.83,16.69,24.31,31.42c0.82,4.87,0.77,9.89,1.15,15.31c-6.91,0.18-13.43,0.46-19.95,0.51
		c-22.4,0.18-44.8,0.3-67.2,0.4c-33.45,0.14-66.91,0.48-100.36,0.28c-27.49-0.16-54.98-1.11-82.47-1.45
		c-9.88-0.12-19.77,0.62-29.66,0.77C151.92,135.75,147.76,135.28,143.32,135.04z M308.27,131.21c17.55-0.1,30.53-5.12,41.21-15.58
		c14.29-14.01,19.76-39.84,3.81-58.63c-8.41-9.91-19.32-15.91-31.53-19.74c-6.15-1.93-12.41-1.66-18.82-1.02
		c-9.52,0.96-18.54,2.99-27.13,7.44c-20.93,10.86-35.81,43.64-10.86,68.94C277.6,125.45,293.48,130.17,308.27,131.21z"/>
	<path class="st0" d="M333.01,821.3c15.12,4.32,30.6,3.61,46.05,2.97c8.47-0.35,16.21-3.36,23.75-8.17
		c5.53,16.22,5.55,33.1,8.47,49.38c-4.06,2.13-7.93,4.64-12.14,6.21c-3.03,1.13-6.52,1.31-9.81,1.39
		c-9.25,0.22-18.5,0.18-27.75,0.23c-3.72,0.02-7.43,0-11.15,0c-0.07,0.29-0.13,0.57-0.2,0.86c6,1.32,11.96,2.83,18,3.93
		c10.02,1.82,20.11,1.3,30.17,0.26c1.34-0.14,2.59-1.08,3.91-1.58c3.64-1.39,7.29-2.75,10.16-3.83c2.54,3.78,4.64,7.15,6.99,10.32
		c6.19,8.35,11.04,17.26,10.69,27.99c-0.18,5.38-0.8,10.91-5.09,14.96c-1.17,1.1-2.67,2.12-4.2,2.55c-18.21,5.11-36.73,7.08-55.58,5
		c-5.53-0.61-11.11-0.84-16.31-3.47c-5.73-2.9-10.03-6.71-12.2-12.99c-4.65-13.52-6.27-27.03,2.06-39.52
		c3.27-4.91,3.94-9.15,2.86-14.64c-1.88-9.58-2.86-19.34-4.64-28.95C336.25,829.88,334.43,825.74,333.01,821.3z"/>
	<path class="st0" d="M204.12,821.47c23.17,6.49,46.28,4.42,69.76,0.37c-0.86,9.94-1.88,19.21-2.41,28.51
		c-0.53,9.29-2.86,18.58,0.18,28.03c-18.74,3.5-37.08,4.11-55.52,0.83c-0.1,0.35-0.21,0.7-0.31,1.05c2.44,1.16,4.79,2.56,7.33,3.44
		c10.53,3.63,21.39,5.46,32.51,4.37c5.23-0.51,10.4-1.95,15.52-3.25c1.86-0.47,2.94-0.34,3.81,1.38c3.97,7.82,5.76,15.95,4,24.73
		c-0.89,4.46-3.34,7.77-6.82,10.45c-8.54,6.58-18.19,10.46-28.96,11.1c-13.91,0.83-27.85,1.28-41.76,2.03
		c-4.68,0.25-8.32-1.59-11.35-4.84c-7.64-8.19-9.16-17.82-5.64-28.14c2.93-8.59,8.26-15.79,14.41-22.42
		c1.25-1.34,2.42-3.26,2.6-5.02c1.05-10.77,1.99-21.56,2.59-32.37C204.42,835.11,204.12,828.48,204.12,821.47z"/>
	<path class="st0" d="M199.38,535.34c1.53-1.95,2.85-3.4,3.9-5.02c1.61-2.5,3.23-5.03,4.48-7.71c0.76-1.65,1.39-2.44,3.39-2.21
		c16.31,1.88,32.64,3.65,48.97,5.42c1.13,0.12,2.29,0.09,3.43,0.09c26.06,0,52.11,0.08,78.17-0.02c16.77-0.06,33.55-0.06,50.29-0.79
		c4.7-0.2,6.86,1.12,8.2,5.12c0.33,0.97,0.86,1.88,1.32,2.81c2.91,5.88,2.89,5.85-2.91,9.15c-23.81,13.54-48.96,24.08-74.63,33.45
		c-1.96,0.72-2.93,0.07-3.77-1.48c-3.13-5.75-6.25-11.51-9.4-17.24c-2.15-3.92-4.27-7.86-6.56-11.7c-1.7-2.85-4.65-2.83-6.46-0.02
		c-5.63,8.76-10.68,17.83-13.96,27.77c-0.62,1.89-1.38,2.49-3.61,2.04c-23.97-4.93-45.7-14.94-65.76-28.77
		C209.51,542.79,204.69,539.17,199.38,535.34z M244.32,533.71c-1.13,0.71-2,0.94-2.29,1.49c-1.78,3.38-3.47,6.82-5.06,10.29
		c-0.19,0.41,0.27,1.5,0.7,1.7c0.62,0.28,1.71,0.33,2.19-0.05c3.43-2.69,5.43-6.27,5.8-10.61
		C245.74,535.69,244.85,534.77,244.32,533.71z M273.95,542.87c-0.45,0.02-0.9,0.05-1.35,0.07c-1.43,4.51-2.92,9.01-4.25,13.56
		c-0.23,0.78,0.21,1.76,0.35,2.65c0.99-0.33,2.56-0.38,2.86-1.03c1.35-2.86,2.73-5.82,3.32-8.89
		C275.28,547.25,274.31,545,273.95,542.87z M257.03,539.54c-0.54,0.35-0.91,0.46-1.03,0.69c-2.29,4.61-4.57,9.23-6.77,13.89
		c-0.24,0.51-0.2,1.62,0.12,1.82c0.48,0.31,1.55,0.34,1.95,0c1.56-1.33,3.29-2.64,4.35-4.35
		C257.92,547.92,258.83,543.94,257.03,539.54z M344.37,539.06c-2.53,6.57-0.04,11.67,6.2,12.93c0.63,0.13,1.46,0.04,1.97-0.3
		c0.29-0.19,0.37-1.28,0.11-1.64C350,546.42,347.25,542.86,344.37,539.06z M365.8,545.73c1.14-5.16-1.39-12.63-6.39-12.16
		c0.73,3.35,1.38,6.66,2.19,9.93C362.14,545.7,363.57,546.56,365.8,545.73z M331.39,545.33c-0.61,4.66,1.97,10.1,5.13,11.65
		c0.53,0.26,1.32-0.01,1.99-0.03c-0.06-0.64,0.06-1.39-0.23-1.91c-1.39-2.52-2.83-5.02-4.38-7.45
		C333.42,546.83,332.53,546.34,331.39,545.33z"/>
	<path class="st0" d="M140.22,141.68c8.09,5.15,16.95,4.51,25.49,4.97c20.67,1.11,41.37,1.89,62.06,2.55
		c13.84,0.45,27.69,0.58,41.54,0.66c32.81,0.19,65.63,0.33,98.44,0.34c16.55,0,33.12-0.11,49.66-0.64
		c10.27-0.33,20.5-1.54,30.44-4.48c0.84-0.25,1.76-0.23,2.64-0.34c0.79,5.99-1.24,10.03-6.27,13.23c-7.55,4.81-15.88,7.31-24.45,8.7
		c-10.86,1.76-21.85,3.2-32.83,3.7c-16.41,0.76-32.86,0.67-49.29,0.77c-16.77,0.11-33.56,0.3-50.32-0.07
		c-25.28-0.56-50.57-1.16-75.81-2.54c-17.74-0.97-35.42-3.13-53.09-5.03c-6.49-0.7-12.34-3.57-17.73-7.21
		c-1.11-0.75-2.11-2.16-2.46-3.45C137.21,149.07,137.97,145.48,140.22,141.68z"/>
	<path class="st0" d="M330.77,749.82c17.96-2.58,35.91-6.32,50.71-19.77c0.22,4.37,0.41,8.06,0.6,11.74
		c1.04,19.87,2.62,39.67,6.94,59.15c0.74,3.33,1.9,6.59,3.15,9.77c0.75,1.9,0.14,2.44-1.52,3.18c-6.66,2.95-13.82,3.41-20.81,3.41
		c-9.31,0.01-18.63-1.11-27.94-1.81c-1.85-0.14-2.55-1.01-2.78-3.2c-0.95-9.21-2.39-18.37-3.54-27.56
		c-1.04-8.37-1.86-16.77-2.92-25.13C332.27,756.48,331.48,753.41,330.77,749.82z"/>
	<path class="st0" d="M265.26,815.53c-16.17,3.55-32.06,3.85-48.48,1.25c3.8-28.85,5.08-57.73,4.03-86.51
		c7.51,3.84,14.6,8.27,22.27,11.17c8.77,3.32,18.04,5.35,27.15,7.74c1.74,0.46,2.59,0.94,2.4,2.79c-0.67,6.2-1.23,12.42-1.96,18.61
		C268.92,785.56,267.08,800.52,265.26,815.53z"/>
	<path class="st0" d="M394.62,700.24c-7.93,16.26-19.55,28.01-36.26,34.62c-9.48,3.75-19.4,5.2-29.33,6.77
		c-11.53,1.82-23.08,3-34.78,2.67c-13.07-0.36-25.76-2.73-38.24-6.44c-3.63-1.08-7.23-2.23-11.43-4.19c0.5-0.18,1.05-0.29,1.49-0.55
		c4.36-2.63,6.91-6.53,7.77-11.5c0.31-1.79,1.15-2.25,2.81-1.77c11.01,3.18,22.26,2.19,33.49,1.93c15.64-0.36,31.11-2.28,46.48-5.01
		c10.03-1.78,20.18-3.23,29.92-6.06c5.54-1.61,11.01-2.89,16.65-3.89c1.88-0.33,3.62-2.25,5.13-3.75
		C390.8,700.61,390.7,700.51,394.62,700.24z"/>
	<path class="st0" d="M256.34,714.56c-0.62-6.55-1.25-13.18-1.87-19.81c4.4,0.83,9.04,2.41,13.7,2.45
		c9.33,0.08,18.75-0.02,27.97-1.24c14.84-1.96,29.7-4.21,44.25-7.61c11.24-2.63,22.02-7.22,33.29-11.04
		c0,6.82,0.08,14.14-0.12,21.46c-0.02,0.79-1.53,1.77-2.54,2.27c-7.82,3.87-16.37,5.19-24.8,6.94c-24.96,5.17-50.17,7.59-75.65,7.19
		c-1.03-0.02-2.06-0.26-3.1-0.37c-1.97-0.2-3.93-0.49-5.9-0.53C259.74,714.22,257.9,714.46,256.34,714.56z"/>
	<path class="st0" d="M132.02,659.97c12.42-5.49,24.74-10.94,37.05-16.39c0.75-0.33,1.87-0.52,2.16-1.1
		c1.44-2.92,4.03-2.79,6.78-2.89c0.9,3.21,3.3,4.46,6.3,5.61c4.5,1.72,8.31,4.54,9.75,9.68c3.48,12.45,2.28,24.05-5.76,34.58
		c-3.71,4.86-8.63,6.01-14.19,4.65c-18.73-4.56-32.73-15.29-41.59-32.52C132.35,661.24,132.29,660.84,132.02,659.97z"/>
	<path class="st0" d="M411.57,686.81c2.88-12.43,7.84-24.57,4.55-37.84c0.15-0.14,0.35-0.38,0.6-0.55c1.28-0.86,2.57-1.69,4.2-2.76
		c9.78,12.72,22.51,20.2,38.7,21.49c-8.37,12.38-18.25,22.57-33.68,25.48c-3.28,0.62-6.07,0.31-8.68-2.02
		C415.59,689.11,413.51,688.07,411.57,686.81z"/>
	<path class="st0" d="M147.57,140.32c2.45-0.23,4.91-0.66,7.36-0.65c21.99,0.03,43.98,0.04,65.97,0.24c40,0.35,80,0.95,120,1.18
		c27.3,0.16,54.61-0.05,81.91-0.24c7.79-0.06,15.57-0.63,23.36-0.96c0.05,0.32,0.11,0.63,0.16,0.95c-6.13,1.02-12.23,2.64-18.4,2.98
		c-63.2,3.46-126.46,1.08-189.7,1.58c-15.7,0.12-31.41-1.14-47.11-1.71c-8.01-0.29-16.03-0.32-24.03-0.73
		c-6.52-0.34-13.02-1.06-19.53-1.62C147.57,140.99,147.57,140.65,147.57,140.32z"/>
	<path class="st0" d="M215.13,699.77c0.3-2.79,0.42-5.61,0.95-8.35c1.09-5.68,4.2-7.9,10.06-7.4c5.73,0.49,11.37,1.47,16.13,4.98
		c1.6,1.18,3.21,2.76,4.03,4.52c3.37,7.19,4.24,14.85,2.4,22.53c-0.77,3.21-2.58,6.35-4.54,9.07c-2.49,3.45-7.19,4.16-11.66,2.49
		c-9.61-3.6-17.01-14.14-17.13-24.37c-0.01-1.15,0-2.29,0-3.44C215.29,699.78,215.21,699.77,215.13,699.77z M220.64,702.71
		c0.16,5.1,0.45,9.76,4.76,11.64c7.72,3.37,14.3,2.29,15.82-7.33c0.29-1.82,0.27-3.73,0.11-5.57c-0.49-5.65-4.96-9.53-11.1-10.44
		c-3.42-0.5-7.87,4.14-8.91,7.92C220.91,700.42,220.77,701.98,220.64,702.71z"/>
	<path class="st0" d="M308.9,614.46c-4.22,0-7.85,0.13-11.45-0.12c-0.62-0.04-1.62-1.71-1.61-2.62c0.06-6.34,0.28-12.69,0.57-19.03
		c0.47-10.39,0.94-20.78,1.63-31.16c0.14-2.14,1.25-4.21,2.15-7.06c1.08,1.34,1.64,1.88,2.02,2.53c0.83,1.43,1.46,3,2.37,4.37
		c4.35,6.57,6.69,13.2,4.59,21.49c-1.33,5.28-0.27,11.16-0.28,16.78C308.9,604.51,308.9,609.39,308.9,614.46z"/>
	<path class="st0" d="M379,700.93c0-7.77,0.14-15.33-0.1-22.87c-0.06-1.84-1.19-3.72-2.09-5.45c-1.18-2.26-0.28-3.6,1.68-4.48
		c1.97-0.87,4.12-1.96,5.76,0.54c0.49,0.75,0.76,1.73,0.89,2.63c1.12,8.07,1.51,16.21-0.03,24.22
		C384.16,700.48,383.21,701.46,379,700.93z"/>
	<path class="st0" d="M210.44,706.78c-5.73-4.36-10.83-8.25-15.55-11.84c2.14-4.28,4.16-8.33,6.19-12.38
		c3.19,1.53,6.58,3.15,9.36,4.49C210.44,693.4,210.44,699.68,210.44,706.78z"/>
	<path class="st0" d="M391.57,693.39c0.1-9.47,3.42-19.24-2.53-28.57c3.16-1.41,6.4-2.85,9.71-4.33c1.21,9.54,1.05,18.77-1.41,27.97
		C396.47,691.7,394.97,693.32,391.57,693.39z"/>
	<path class="st0" d="M192.67,697.53c1.5,2.26,3.35,5.04,5.35,8.06c-1.27,1.25-2.79,2.81-4.38,4.29c-3.92,3.65-9.57,2.23-11.62-2.71
		c-0.81-1.94-2.22-3.64-3.03-4.93C183.25,700.77,187.9,699.17,192.67,697.53z"/>
	<path class="st0" d="M409.54,649.95c1.12,11.59,0.56,22.75-3.42,33.44c-0.34-0.04-0.68-0.08-1.02-0.12
		c0.25-3.02,0.77-6.04,0.68-9.05c-0.17-5.36-0.82-10.7-1.03-16.06c-0.05-1.29,0.61-2.75,1.32-3.9
		C407.04,652.71,408.37,651.38,409.54,649.95z"/>
	<path d="M170.93,358.22c-8.53,0-17.07,0.09-25.6-0.03c-6.42-0.09-10.81-4.07-14.56-8.63c-14.73-17.92-5.37-46.02,17.42-50.36
		c13.49-2.57,27.47-4.09,41.07,0.77c3.61,1.29,6.64,3.2,8.75,6.59c8.46,13.61,9.52,27.45,2.49,42.11
		c-2.96,6.16-8.17,7.68-13.74,8.75c-5.17,0.99-10.51,1.12-15.77,1.63C170.96,358.77,170.94,358.5,170.93,358.22z M170.08,320.26
		c0,0.73-0.07,1.47,0.01,2.19c0.29,2.63,2.9,5.34,5.46,5.72c3.6,0.54,5.51-0.48,6.93-3.7c1.48-3.34,1.07-6.66,0.18-10.08
		c-0.63-2.46-2.46-3.1-4.42-3.01C173.74,311.57,170.09,315.72,170.08,320.26z"/>
	<path d="M405.18,328.79c0.06-10.99,4.03-19.98,12.41-27.46c3.15-2.82,5.9-2.94,9.43-2.77c11.95,0.57,23.9,1.12,35.86,1.42
		c5.38,0.13,10.38,0.68,15,3.94c5.17,3.64,7.31,8.5,7.68,14.54c0.76,12.25-1.93,23.38-10.52,32.56c-3.59,3.84-7.3,6.61-13.45,6.15
		c-14-1.03-28.08-0.95-42.11-1.55c-1.74-0.07-3.84-1.09-5.08-2.35C408.25,347.02,405.22,338.56,405.18,328.79z M461.44,322.2
		c3.27,0.38,6.85-0.4,8.03-4.89c0.47-1.8,0.71-4.44-0.26-5.66c-1.7-2.15-4.14-4.42-7.47-3.18c-2.31,0.86-4.6,1.94-6.63,3.32
		c-1,0.68-1.88,2.22-1.98,3.45C452.72,320.14,455.19,322.3,461.44,322.2z"/>
	<path d="M329.55,417.1c-4.34-1.62-8.95-2.75-12.95-4.97c-4.86-2.7-9.2-6.31-13.86-9.59c-1.74,1.72-3.57,4.04-5.88,5.72
		c-11.41,8.29-23.94,11.06-38.01,8.53c-10.8-1.94-19.18-6.76-22.18-17.42c-5.2-18.53-0.96-35.24,13.3-48.39
		c9.14-8.43,20.17-13.56,33.14-12.73c2.17,0.14,3.62-0.6,5.11-2.18c7.39-7.85,16.95-9.46,26.98-8.21
		c5.97,0.75,10.01,4.78,11.76,10.75c0.32,1.08,0.63,2.17,1.03,3.57c0.97-0.28,1.84-0.49,2.67-0.79c17.1-6.1,31.95-1.51,44.9,10.14
		c12.58,11.32,12.23,25.7,7.81,40.37c-1.44,4.76-4.26,9.25-7.14,13.39c-5.83,8.37-14.22,12.24-24.37,12.11
		c-6.76-0.08-13.51-0.42-20.27-0.62c-0.71-0.02-1.42,0.16-2.13,0.25L329.55,417.1z M319.16,350c-3.33,1.13-6.1,2.51-7.14,6.1
		c-0.19,0.67-1.45,1.28-2.3,1.41c-0.6,0.09-1.77-0.54-1.93-1.08c-1.81-6.2-6.69-9.04-12.29-10.07c-11.05-2.04-21.7-1.25-32.15,4.16
		c-13.19,6.82-20.74,17.04-22.17,31.63c-1.4,14.22,4.81,24.01,17.49,26.83c5.55,1.23,11.59,1.22,17.29,0.63
		c9.52-0.99,17.38-5.88,24.23-12.45c2.46-2.36,4.8-2.37,7.37-0.04c5.25,4.77,11.28,8.16,18.14,9.91c9.91,2.52,20,2.27,30.05,1.4
		c8.52-0.74,14.54-5.57,18.02-13.14c1.84-3.99,3.28-8.43,3.64-12.78c0.81-9.78-0.53-19.31-8.32-26.37
		c-10.44-9.47-22.96-10.32-36.04-7.64c-2.38,0.49-4.71,1.69-6.82,2.96C322.46,353.73,321.46,353.67,319.16,350z M320.72,341.66
		c0.31-3.18-1.34-6.14-5.22-6.87c-6.62-1.24-13.25-1.08-19.5,1.97c-0.59,0.29-1.05,0.86-1.57,1.3c0.57,0.5,1.05,1.17,1.71,1.48
		c5.09,2.37,11.09,3.25,13.68,9.05C313.54,346.22,316.8,344.15,320.72,341.66z"/>
	<path d="M80.27,167.72c6.97-0.12,13.7,1.08,19.88,4.33c2.14,1.13,4.16,2.85,5.66,4.75c2.89,3.65,2.67,6.1-0.35,9.71
		c-6.05,7.23-8.98,16.09-12.93,24.43c-4.7,9.95-9.62,19.81-14.64,29.6c-0.56,1.1-2.42,2.11-3.71,2.15c-2.66,0.08-5.4-0.27-7.99-0.9
		c-8.89-2.14-17.88-4.19-24.93-10.62c-7.47-6.81-10.65-15.37-10.14-25.41c0.95-18.58,14.33-31.28,29.52-35.19
		c6.38-1.64,12.98-2.46,19.47-3.66C80.16,167.18,80.21,167.45,80.27,167.72z M98.45,182.11c-3.04-2.92-6.32-4.55-10.23-4.66
		c-5.72-0.16-11.45-0.23-17.17-0.29c-10.49-0.12-18.97,3.9-25.33,12.31c-4.42,5.85-6.6,12.79-6.85,19.76
		c-0.24,6.85,3.83,12.57,9.15,17.04c6.47,5.44,14.4,6.47,22.38,7.47c3.6,0.45,5.35-0.72,6.83-4.32
		C83.75,213.49,88.77,196.88,98.45,182.11z"/>
	<path d="M512.36,162.99c16.84-0.22,30.15,5.55,39.72,18.85c13.82,19.2,8.48,40.36-5.41,52.27c-3.07,2.64-6.18,5.36-9.68,7.34
		c-2.59,1.47-5.82,1.81-8.78,2.61c-0.48,0.13-1.04,0-1.56,0.01c-5.74,0.15-5.76,0.16-7.66-5.26c-3.26-9.28-6.11-18.73-9.84-27.82
		c-4.18-10.19-10.59-19.05-18.5-26.77c-6.28-6.12-6.06-9.84,1.02-15.15C497.11,165,502.53,162.59,512.36,162.99z M524.27,236.58
		c3.46-1.11,6.69-1.56,9.3-3.08c17.74-10.35,26.2-33.53,8.21-52.17c-9.57-9.91-21.81-12.79-35.26-10.53c-5.35,0.9-10,3.3-13.78,7.57
		C510.78,193.57,520.06,213.45,524.27,236.58z"/>
	<path d="M329.46,417.02c2.13,1.2,1.92,2.66,0.86,4.61c-1.83,3.39-4.47,5.85-8.06,6.92c-10.42,3.12-20.8,3.6-30.94-1.24
		c-1.39-0.66-2.93-1-4.41-1.49c-4.13-1.38-6.22-4.43-7.31-8.87c0.94,0.19,1.56,0.17,2.03,0.43c13.65,7.42,27.59,8.06,41.88,1.98
		c1.98-0.84,4.03-1.51,6.05-2.26C329.55,417.1,329.46,417.02,329.46,417.02z"/>
	<path d="M308.27,131.21c-14.79-1.04-30.68-5.77-43.31-18.58c-24.95-25.31-10.07-58.09,10.86-68.94c8.59-4.45,17.61-6.48,27.13-7.44
		c6.4-0.64,12.67-0.91,18.82,1.02c12.21,3.83,23.11,9.83,31.53,19.74c15.95,18.78,10.48,44.62-3.81,58.63
		C338.81,126.1,325.83,131.12,308.27,131.21z M314.09,128.09c1.53-0.13,3.92-0.2,6.27-0.57c8.88-1.38,16.49-5.51,23.37-11.12
		c17.44-14.22,21.82-38.12,8.13-56.24c-5.65-7.48-13.3-12.52-21.64-16.53c-9.02-4.34-18.59-5.25-28.49-4.54
		c-16.32,1.17-30.12,6.98-39.59,20.91c-5.86,8.62-8.96,18.11-7.25,28.64c1.98,12.16,9.27,20.99,18.82,28.01
		C285.42,125.26,299.1,127.53,314.09,128.09z"/>
	<path d="M244.32,533.71c0.53,1.05,1.42,1.98,1.34,2.82c-0.37,4.34-2.37,7.93-5.8,10.61c-0.48,0.38-1.58,0.33-2.19,0.05
		c-0.43-0.19-0.89-1.29-0.7-1.7c1.59-3.48,3.28-6.91,5.06-10.29C242.32,534.65,243.19,534.42,244.32,533.71z"/>
	<path d="M273.95,542.87c0.36,2.13,1.32,4.38,0.94,6.37c-0.59,3.07-1.97,6.03-3.32,8.89c-0.31,0.65-1.88,0.7-2.86,1.03
		c-0.13-0.89-0.58-1.87-0.35-2.65c1.33-4.54,2.81-9.04,4.25-13.56C273.05,542.92,273.5,542.89,273.95,542.87z"/>
	<path d="M257.03,539.54c1.8,4.4,0.89,8.38-1.37,12.05c-1.05,1.7-2.79,3.02-4.35,4.35c-0.4,0.34-1.47,0.31-1.95,0
		c-0.32-0.2-0.36-1.31-0.12-1.82c2.2-4.66,4.48-9.27,6.77-13.89C256.12,539.99,256.49,539.89,257.03,539.54z"/>
	<path d="M344.37,539.06c2.88,3.8,5.62,7.36,8.28,10.99c0.26,0.36,0.18,1.45-0.11,1.64c-0.51,0.34-1.34,0.43-1.97,0.3
		C344.33,550.73,341.84,545.63,344.37,539.06z"/>
	<path d="M365.8,545.73c-2.23,0.84-3.66-0.03-4.2-2.22c-0.81-3.28-1.46-6.59-2.19-9.93C364.41,533.1,366.95,540.57,365.8,545.73z"/>
	<path d="M331.39,545.33c1.15,1,2.03,1.5,2.51,2.25c1.55,2.43,2.99,4.93,4.38,7.45c0.29,0.52,0.16,1.27,0.23,1.91
		c-0.67,0.02-1.46,0.29-1.99,0.03C333.36,555.43,330.77,550,331.39,545.33z"/>
	<path d="M220.64,702.71c0.13-0.73,0.27-2.29,0.68-3.78c1.05-3.77,5.49-8.42,8.91-7.92c6.13,0.9,10.61,4.78,11.1,10.44
		c0.16,1.84,0.17,3.75-0.11,5.57c-1.51,9.62-8.1,10.7-15.82,7.33C221.1,712.48,220.8,707.81,220.64,702.71z M225.88,704.29
		c0.33,1.26,0.31,3.34,1.33,4.53c1.11,1.29,3.13,2.04,4.88,2.45c0.78,0.18,2.46-0.86,2.75-1.69c0.97-2.78,1.85-5.62,0.75-8.71
		c-0.87-2.43-2.97-4.19-5.7-4.18c-2.76,0.01-2.82,2.33-3.48,4.05C226.05,701.68,226.09,702.77,225.88,704.29z"/>
	<path class="st0" d="M170.08,320.26c0-4.55,3.66-8.69,8.16-8.88c1.97-0.09,3.79,0.56,4.42,3.01c0.88,3.41,1.29,6.74-0.18,10.08
		c-1.42,3.22-3.33,4.24-6.93,3.7c-2.56-0.38-5.17-3.09-5.46-5.72C170.02,321.73,170.08,320.99,170.08,320.26z"/>
	<path class="st0" d="M461.44,322.2c-6.25,0.1-8.72-2.06-8.31-6.95c0.1-1.22,0.98-2.77,1.98-3.45c2.03-1.38,4.32-2.46,6.63-3.32
		c3.33-1.24,5.77,1.03,7.47,3.18c0.97,1.22,0.73,3.86,0.26,5.66C468.3,321.81,464.71,322.58,461.44,322.2z"/>
	<path class="st0" d="M319.16,350c2.3,3.67,3.3,3.73,7.06,1.46c2.11-1.27,4.44-2.47,6.82-2.96c13.08-2.68,25.6-1.83,36.04,7.64
		c7.79,7.06,9.13,16.59,8.32,26.37c-0.36,4.34-1.8,8.79-3.64,12.78c-3.48,7.57-9.5,12.4-18.02,13.14
		c-10.06,0.87-20.15,1.12-30.05-1.4c-6.87-1.75-12.89-5.13-18.14-9.91c-2.56-2.33-4.91-2.31-7.37,0.04
		c-6.85,6.57-14.71,11.46-24.23,12.45c-5.7,0.59-11.74,0.61-17.29-0.63c-12.68-2.82-18.89-12.61-17.49-26.83
		c1.43-14.59,8.98-24.81,22.17-31.63c10.45-5.41,21.1-6.2,32.15-4.16c5.6,1.03,10.48,3.87,12.29,10.07
		c0.16,0.53,1.33,1.17,1.93,1.08c0.85-0.13,2.11-0.75,2.3-1.41C313.06,352.5,315.83,351.13,319.16,350z"/>
	<path class="st0" d="M320.72,341.66c-3.92,2.49-7.19,4.56-10.9,6.92c-2.58-5.8-8.59-6.68-13.68-9.05
		c-0.66-0.31-1.14-0.97-1.71-1.48c0.52-0.44,0.98-1.01,1.57-1.3c6.25-3.05,12.88-3.21,19.5-1.97
		C319.39,335.52,321.04,338.47,320.72,341.66z"/>
	<path class="st0" d="M98.45,182.11c-9.68,14.77-14.7,31.38-21.23,47.29c-1.48,3.6-3.23,4.77-6.83,4.32
		c-7.97-1-15.91-2.03-22.38-7.47c-5.31-4.47-9.39-10.19-9.15-17.04c0.25-6.97,2.43-13.91,6.85-19.76
		c6.35-8.41,14.84-12.43,25.33-12.31c5.72,0.07,11.45,0.14,17.17,0.29C92.12,177.56,95.4,179.19,98.45,182.11z"/>
	<path class="st0" d="M524.27,236.58c-4.21-23.13-13.49-43-31.53-58.2c3.78-4.28,8.44-6.67,13.78-7.57
		c13.44-2.27,25.69,0.61,35.26,10.53c17.99,18.64,9.53,41.82-8.21,52.17C530.96,235.01,527.73,235.46,524.27,236.58z"/>
	<path class="st0" d="M314.09,128.09c-14.99-0.56-28.68-2.83-40.38-11.44c-9.55-7.02-16.84-15.85-18.82-28.01
		c-1.72-10.53,1.39-20.02,7.25-28.64c9.47-13.93,23.28-19.73,39.59-20.91c9.9-0.71,19.47,0.2,28.49,4.54
		c8.34,4.01,16,9.06,21.64,16.53c13.69,18.12,9.31,42.02-8.13,56.24c-6.88,5.61-14.49,9.74-23.37,11.12
		C318.02,127.89,315.62,127.96,314.09,128.09z M305.77,45.41c-17.62-0.21-28.49,4.04-36.65,14.41
		c-9.26,11.77-10.84,29.07-3.39,41.33c9.04,14.88,23.13,20.95,39.82,21.5c16.71,0.55,29.68-7.66,39.85-19.91
		c8.3-10,12.29-28.92-2.75-41.21C330.64,51.73,316.69,46.19,305.77,45.41z"/>
	<path class="st0" d="M225.88,704.29c0.21-1.52,0.16-2.62,0.52-3.56c0.66-1.72,0.72-4.04,3.48-4.05c2.73-0.01,4.83,1.75,5.7,4.18
		c1.11,3.09,0.23,5.93-0.75,8.71c-0.29,0.83-1.97,1.87-2.75,1.69c-1.75-0.41-3.77-1.15-4.88-2.45
		C226.19,707.63,226.21,705.55,225.88,704.29z"/>
	<path d="M305.77,45.41c10.92,0.78,24.87,6.32,36.87,16.13c15.04,12.29,11.05,31.21,2.75,41.21
		c-10.17,12.25-23.14,20.46-39.85,19.91c-16.69-0.55-30.78-6.62-39.82-21.5c-7.45-12.26-5.87-29.57,3.39-41.33
		C277.28,49.45,288.15,45.2,305.77,45.41z M308.9,120.49c8.64,0.83,28.07-10.27,34.69-19.44c7.6-10.53,9.73-28.34-4.04-38.85
		C328,53.4,315.04,47.79,300.21,47.93c-14.95,0.15-26.63,6.01-32.85,20.32c-5.51,12.66-5.25,24.85,3.72,36.08
		C279.83,115.28,291.65,119.61,308.9,120.49z"/>
	<path class="st0" d="M308.9,120.49c-17.25-0.89-29.07-5.21-37.82-16.17c-8.97-11.23-9.23-23.41-3.72-36.08
		c6.22-14.31,17.9-20.17,32.85-20.32c14.83-0.14,27.79,5.47,39.34,14.28c13.77,10.5,11.65,28.32,4.04,38.85
		C336.97,110.22,317.54,121.32,308.9,120.49z M305.1,105.93c0.71,0.52,1.35,1.02,2.03,1.47c9.12,5.94,18.19,3.76,24.01-3.18
		c1.22-1.46,2.71-2.79,4.32-3.79c3.24-2.01,5.29-4.61,5.36-8.55c0.06-3.49-2.36-6.2-5.77-6.44c-3.99-0.28-5.82,1.28-6.35,5.41
		c-0.09,0.72,0.04,1.57-0.31,2.15c-0.66,1.1-1.4,2.59-2.44,2.94c-1.88,0.64-4.01,0-4.54-2.12c-0.24-0.98,0.81-2.48,1.6-3.47
		c0.83-1.03,2.09-1.7,3.1-2.6c2.8-2.49,4.75-5.47,5.34-9.26c1.36-8.83-4.89-20.02-13.53-23.58c-8.71-3.59-17.85-4.15-26.9-1.92
		c-7.29,1.79-12.6,6.55-14.63,13.96c-2.02,7.37,0.29,13.71,6.04,18.78c0.85,0.75,1.77,1.57,2.25,2.56c0.5,1.05,1.09,2.82,0.6,3.42
		c-0.93,1.14-2.54,2.05-4,2.3c-0.64,0.11-1.86-1.51-2.35-2.56c-0.65-1.39-0.66-3.08-1.31-4.46c-0.51-1.09-1.39-2.35-2.43-2.8
		c-3.15-1.36-6.32,0.93-5.89,4.75c0.33,2.93,1.6,6.04,3.34,8.44c2.54,3.51,5.67,6.66,8.89,9.58c3.27,2.96,7.14,4.86,11.82,4.79
		C298.19,111.68,301.73,109.2,305.1,105.93z"/>
	<path d="M305.1,105.93c-3.36,3.27-6.91,5.74-11.75,5.82c-4.68,0.07-8.55-1.83-11.82-4.79c-3.22-2.92-6.36-6.07-8.89-9.58
		c-1.73-2.4-3-5.51-3.34-8.44c-0.43-3.82,2.74-6.11,5.89-4.75c1.04,0.45,1.92,1.7,2.43,2.8c0.65,1.39,0.65,3.08,1.31,4.46
		c0.49,1.05,1.71,2.67,2.35,2.56c1.46-0.25,3.07-1.16,4-2.3c0.49-0.61-0.1-2.37-0.6-3.42c-0.47-0.99-1.39-1.81-2.25-2.56
		c-5.75-5.07-8.06-11.4-6.04-18.78c2.02-7.41,7.34-12.17,14.63-13.96c9.06-2.23,18.2-1.66,26.9,1.92
		c8.64,3.56,14.89,14.74,13.53,23.58c-0.58,3.79-2.53,6.77-5.34,9.26c-1.01,0.9-2.28,1.56-3.1,2.6c-0.8,0.99-1.85,2.49-1.6,3.47
		c0.53,2.12,2.66,2.76,4.54,2.12c1.04-0.35,1.78-1.84,2.44-2.94c0.34-0.57,0.21-1.42,0.31-2.15c0.53-4.13,2.36-5.69,6.35-5.41
		c3.42,0.24,5.83,2.95,5.77,6.44c-0.07,3.94-2.12,6.54-5.36,8.55c-1.61,1-3.1,2.34-4.32,3.79c-5.82,6.94-14.89,9.12-24.01,3.18
		C306.45,106.96,305.81,106.45,305.1,105.93z M273.83,85.43c-2.32,3.8-2.32,6.63,0.08,9.11c4.05,4.18,8.19,8.28,12.44,12.26
		c0.99,0.93,2.51,1.45,3.88,1.79c5.67,1.43,9.61-1.54,12.98-5.52c1.56-1.84,2.88-1.94,4.13,0.06c4.68,7.48,17.11,4.84,21.31-0.61
		c1.77-2.3,3.2-4.74,6.15-5.92c1.15-0.46,2.04-2.05,2.65-3.32c1.05-2.18,0.01-3.44-2.2-4.17c-2.34-0.77-2.95,0.36-3.28,2.34
		c-0.22,1.32-0.7,2.61-1.17,3.87c-1.42,3.78-4.68,5.14-8.58,3.62c-3.29-1.28-5.06-4.87-3.55-8.17c0.82-1.8,2.29-3.52,3.89-4.72
		c6.02-4.55,7.56-10.15,4.29-16.92c-4.58-9.48-12.54-13.84-22.68-14.55c-6.81-0.48-13.65-0.35-19.25,4.43
		c-3.79,3.23-7.25,6.92-6.46,12.43c0.84,5.92,3.34,11.07,8.12,15c1.04,0.85,1.9,2.57,1.91,3.9c0.04,3.14-2.68,6-5.42,6.35
		c-4.04,0.51-5.9-0.63-7.27-4.61C275.13,90.16,274.64,88.2,273.83,85.43z"/>
	<path class="st0" d="M273.83,85.43c0.81,2.77,1.3,4.74,1.96,6.64c1.37,3.98,3.23,5.12,7.27,4.61c2.74-0.35,5.46-3.21,5.42-6.35
		c-0.02-1.33-0.87-3.05-1.91-3.9c-4.78-3.93-7.28-9.08-8.12-15c-0.79-5.51,2.67-9.2,6.46-12.43c5.6-4.78,12.44-4.91,19.25-4.43
		c10.14,0.71,18.09,5.07,22.68,14.55c3.27,6.76,1.73,12.37-4.29,16.92c-1.59,1.2-3.06,2.92-3.89,4.72c-1.51,3.3,0.26,6.89,3.55,8.17
		c3.9,1.52,7.16,0.16,8.58-3.62c0.47-1.26,0.95-2.55,1.17-3.87c0.33-1.98,0.94-3.11,3.28-2.34c2.21,0.73,3.25,1.99,2.2,4.17
		c-0.61,1.27-1.49,2.86-2.65,3.32c-2.96,1.18-4.38,3.62-6.15,5.92c-4.2,5.45-16.63,8.09-21.31,0.61c-1.25-1.99-2.57-1.9-4.13-0.06
		c-3.37,3.98-7.31,6.95-12.98,5.52c-1.37-0.34-2.89-0.87-3.88-1.79c-4.25-3.98-8.39-8.08-12.44-12.26
		C271.51,92.06,271.51,89.23,273.83,85.43z M296.98,79.04c-1.32,2.12-1.27,2.78,0.14,4.14c3.54,3.41,11.21,3.51,14.64,0.1
		c0.47-0.47,0.48-1.4,0.7-2.12c-0.75-0.18-1.72-0.75-2.21-0.47C305.39,83.46,300.86,83.9,296.98,79.04z M293.91,74
		c0.34-2.23-1.3-2.95-2.84-2.63c-1.19,0.25-2.85,1.53-3.04,2.59c-0.31,1.68,0.8,3.19,2.96,3.12C292.97,77.02,294.18,76.21,293.91,74
		z M315,77.18c2.73-0.28,4.06-1.51,3.75-3.33c-0.19-1.08-2.22-2.85-2.9-2.63c-1.26,0.39-2.49,1.87-3.01,3.19
		C312.61,74.95,314.23,76.23,315,77.18z"/>
	<path d="M296.98,79.04c3.89,4.87,8.42,4.42,13.26,1.65c0.49-0.28,1.46,0.3,2.21,0.47c-0.22,0.72-0.23,1.66-0.7,2.12
		c-3.43,3.4-11.1,3.3-14.64-0.1C295.71,81.82,295.65,81.16,296.98,79.04z"/>
	<path d="M293.91,74c0.27,2.21-0.94,3.02-2.92,3.08c-2.17,0.07-3.27-1.44-2.96-3.12c0.19-1.06,1.85-2.34,3.04-2.59
		C292.61,71.05,294.25,71.77,293.91,74z"/>
	<path d="M315,77.18c-0.78-0.95-2.39-2.23-2.17-2.77c0.53-1.31,1.75-2.8,3.01-3.19c0.69-0.21,2.72,1.55,2.9,2.63
		C319.06,75.67,317.73,76.9,315,77.18z"/>
</g>
</svg>
