<?xml version="1.0" encoding="utf-8"?>
<!-- Generator: Adobe Illustrator 26.0.0, SVG Export Plug-In . SVG Version: 6.00 Build 0)  -->
<svg version="1.1" id="Capa_1" xmlns="http://www.w3.org/2000/svg" xmlns:xlink="http://www.w3.org/1999/xlink" x="0px" y="0px"
	 viewBox="0 0 595.3 942.1" style="enable-background:new 0 0 595.3 942.1;" xml:space="preserve">
<style type="text/css">
	.st0{fill:#FFFFFF;}
</style>
<g>
	<path d="M595.2,207.6c-2.1-82.2-72.6-103.2-135.6-61c5.3-27.1-0.1-52.9-28.3-63.6c-8.7-3.5-17.5-7.5-25.4-12.5
		c-15-9.5-27.5-22.2-39.7-35.1c-33.7-38.6-81-49.8-118.7-9.6c-10.3,10.3-20.6,20.7-31.2,30.6c-42.1,42.7-78.8,12.8-77.2,75.6
		c0.5,5.9-3.8,9.8-6.9,14.5c-32.9-30.2-90.8-20.9-117.1,13.7C-19.6,204.5,7.9,276.6,63,287.4c-16.3,67.5-2.9,152.4,58.4,193.4
		c32.3,21.2,41.5,33.4,82.2,38.3c-2.2,7.2-10,9.7-11.3,17.5c-6.3,2.7-14.1,3.5-20.6,6.3c-42,17.7-72.3,74.2-48.7,116.8
		c2.1,4.3,4.1,0.5,5.5,6.3c7.8,20.1,25.8,30.6,45.6,36.4c1.4,16.9,20.7,21,29.1,5.8c3.3,5.5,5.3,11.5,10.7,15.5
		c0.6,0.5,0.9,1.6,0.8,2.5c-1.2,29.4-1.7,59.3-4.2,88.6c-3.2,0.6-6.2,2-8.8,1.5c-2.9-0.5-3,0.9-3.3,2.6c-1,17.1-0.5,34.4-2.2,51.6
		c-0.1,1.1-0.8,2.3-1.5,3.2c-18.4,16.9-26.1,40.8-11,59.7c3.4,4.4,7.7,7,13.6,6.9c23.5-1,47.8,3.1,70.1-6.2
		c20.2-8.2,23.9-27.9,17.1-43.3c-5.9-13.2-7.6-26.6-5.4-40.8c0.8-9.3,7.4-34.8-5.9-36.8c1.6-20.8,3.3-41.5,5-62.7
		c14.8,2.1,30,0.2,44.9,0.1c1.9-0.1,2.5,0.3,2.7,2.3c2,20.6,4.2,41,6.1,61.6c-2.8,1.2-7-0.2-5.9,3.8c3.2,16.3,6.2,32.7,9.4,49
		c1,6.8-8.5,11.8-8.6,20.7c-1.2,13.3-0.3,32.5,9.9,42.1c23.4,14.8,53.9,13.7,80.1,8.4c31.1-6.4,22.4-47.9,5.8-65.4
		c-6.5-18.2-6.6-39-10.7-58c-1-3.8-5.9-7-8.5-5.8c-3.7,1.7-4.8,0.4-4.9-3c-6.4-26.2-11.2-54.6-11.8-81.1
		c8.7-10.8,18.3-18.6,18.1-33.7c8.5,7.2,15.5,10.3,26.4,6.1c15.2-6,28-14.7,33.3-30.1c2-1.3,3.7-1.9,4.5-3.1
		c35.6-52.7,6.9-112.6-53.4-126.1c-5.4-1.7-6.8-11.2-10-15.3C511,492,553,385.3,536,283.3C570.8,278.9,596.6,241.3,595.2,207.6z
		 M192,632.3c-5.9,0.6-11.8,1.3-18.2,2c0.9-10.2-13.3-22.4-6.3-28.1c8.5-7.8,15.3-17.1,24.5-24.1C192,599.5,192,616.1,192,632.3z
		 M430.6,601.5c0.5,0.9,1,2,0.7,2.8c-3.2,12.8-10.4,23.9-11.6,37.2c-6,1-10.6,0.3-15.2,5c-0.9-23.1-1-45.9,1-68.7
		C416,583.7,424.8,591,430.6,601.5z"/>
	<path class="st0" d="M65.3,334.6c-0.6-16.1,1.2-32,5.2-47.6c1-4,0.6-4.2-3.5-5.2C-38.9,254,5,106.9,109.8,139.2
		c8.1,3.2,15.5,7.5,20.8,14.8c1.7,1.6,4.3,2.6,6.1,4.3c24.8,18,85.8,15.1,117.5,17.3c65.3-4,151,16.3,207.4-21.1
		c31.6-24.7,88.3-35.3,112.2,4.7c28.7,38.5,13.3,107.6-38.1,115.8c-10.2,0-6.4,13.4-6.3,20c8.3,62-5.3,127.7-49.6,173.8
		c-54.6,63.9-133.9,46.2-208.5,48.9c-12.3-0.1-24.7-1.5-37-2.9c-27.4-3.8-57-4-79.8-21.7c-8.2-6-16.6-11.9-25.2-17.1
		C80.3,447.4,64.2,388.1,65.3,334.6z M329.5,417c25.3,0.6,43.9,3.8,53.9-25.1c14.1-33.7-23.6-63.5-55.4-49.7
		c-2.5-19.9-28.7-17.9-39.8-6.2c-1.5,1.6-2.9,2.3-5.1,2.2c-31.5-1.6-56.5,31.4-46.4,61.1c9.2,26.5,50.9,21.9,66.1,3.2
		C310.9,408.9,319.3,414.4,329.5,417c-17.2,8.4-32.8,8.2-49.9-0.1c1.2,6.6,6.1,8.8,11.7,10.4c10.1,4.8,20.5,4.4,30.9,1.2
		C325.8,427.7,334.5,420.3,329.5,417z M170.9,358.2c0,0.3,0,0.5,0,0.8c9.6-1.2,24.8,0.1,29.5-10.4c7-14.7,6-28.5-2.5-42.1
		c-11.9-13.9-34.1-9.8-49.9-7.4c-22.8,4.3-32.2,32.4-17.4,50.4c3.8,4.6,8.1,8.5,14.6,8.6C153.9,358.3,162.4,358.2,170.9,358.2z
		 M405.2,328.8c0.2,10.4,4,24.3,14.3,26.9c14,0.6,28.1,0.5,42.1,1.5c25.3,0.8,38.4-59.4,1.3-57.1c-12-0.3-23.9-0.8-35.9-1.4
		c-3.5-0.2-6.3,0-9.4,2.8C409.2,308.8,405.2,317.8,405.2,328.8z M80.3,167.7c-0.1-0.3-0.1-0.5-0.2-0.8c-22.6,2.2-47.5,11-49,38.9
		c-1.7,21.1,16.3,33.1,35,36c3.6,0.6,9.2,2.4,11.7-1.2c5-9.8,9.9-19.6,14.6-29.6c3.9-8.4,6.9-17.2,12.9-24.4c3-3.6,3.2-6.1,0.3-9.7
		C99.6,169.6,89.5,167.7,80.3,167.7z M512.4,163c-12.5-1.3-35.6,9.8-21.7,21.2c16.5,15.4,21.4,34.1,28.3,54.6
		c1.9,5.4,1.9,5.4,7.7,5.3C578.5,234.5,565.9,160.5,512.4,163z"/>
	<path class="st0" d="M291.5,574c-0.3,14.3-1.6,28.3-0.6,42.5c0.1,2.5,1,4,4,3.9c31.2,1.2,16.6,1.5,20.6-39
		c3.7,3.7,7.5,2.3,10.9,1.1c10.2-3.6,20.3-7.4,30.3-11.3c19.5-7.1,37.4-17.8,56-27.1c35.6,12.1,67.9,34,64.6,76
		c-0.7,12.5-3.8,24.2-11.6,34.3c-0.8,1-1.4,2.4-1.5,3.7c-0.3,2.3-1.4,2.9-3.6,2.6c-13.5-1.8-24.4-7.9-32.6-18.8
		c-0.7-0.9-0.9-2.7-0.5-3.8c4.8-15.4,18.8-33,4.8-47.5c-3.1-4.3-33.2-31.8-33.9-18.3c-1,27.2-4.5,55,0.5,81.9
		c-4.7,0.6-8.3,3.4-11.7,6.7c-0.8,0.7-2.4,1-3.5,0.7c-3.4-0.7-9,1.7-10.8,4.5c-21.5,20.7-96.7,29.9-124.3,20.2
		c-9-8.5-28.3-16.1-35.9-2.4c-3.2-2.7-6.2-5.2-9.7-8.1c1.4-12.9,1-18.5-4.4-30.5c0.5-20.5,0.5-40.9,0.3-61.5c0-2,0.6-3.9,0.6-5.9
		c0.3-4.6-5.1-7.4-8.5-4.2c-10.2,9.2-20.4,18.3-30.2,28c-3.9,3.8-3.9,8.9-1.4,13.9c2.4,4.9,4.7,9.9,6.7,15c1.7,4.3,0.9,5.4-3.3,7.3
		c-10.8,4.8-21.6,9.6-32.3,14.6c-2.9,1.3-3.7,0.3-4.6-2.3c-9.8-28-2.9-52.6,15.5-74.8c13.7-18.1,31.4-27.1,52.9-33
		c2.2-1.7,3.5-1,5.3,0.5c22.5,18.8,48.1,31.7,76.7,38.6C288.2,585.3,284.8,582.5,291.5,574z"/>
	<path class="st0" d="M143.3,135c0.3-7.8,0.2-15.5,1.1-23.1c1.2-10.1,9.4-17.6,19.2-19.6c13.9-4.8,28.1-9.6,40.2-18
		C241,48.8,272.2-13.8,324.9,12c21.1,9.8,36.1,28.3,52.7,43.9c34.4,40,78.3,20.2,77.8,79.3C351.3,137.2,247.4,136.1,143.3,135z
		 M308.3,131.2c62.9,0.4,76.2-76.7,13.5-93.9C243.5,22.8,221.5,122.3,308.3,131.2z"/>
	<path class="st0" d="M333,821.3c20.9,4.6,51.4,7.2,69.8-5.2c5.5,16.2,5.5,33.1,8.5,49.4c-7,3.9-13.6,8.1-21.9,7.6
		c-12.9,0.3-26,0.2-38.9,0.2c-0.1,0.3-0.1,0.6-0.2,0.9c20.4,5.4,42.9,8.6,62.3-1.2c7.8,12.4,18.3,22.8,17.7,38.3
		c0,6.7-2,15.1-9.3,17.5c-23.2,6-48.7,9.2-71.9,1.5c-17.5-8.4-20.4-37.4-10.1-52.5c3.3-4.9,3.9-9.2,2.9-14.6
		C339.1,849.1,338.7,834.7,333,821.3z"/>
	<path class="st0" d="M204.1,821.5c23.2,6.5,46.3,4.4,69.8,0.4c-0.9,9.9-1.9,19.2-2.4,28.5s-2.9,18.6,0.2,28
		c-18.7,3.5-37.1,4.1-55.5,0.8c-0.1,0.3-0.2,0.7-0.3,1c17.8,9.2,36.3,10.2,55.3,4.6c1.9-0.5,2.9-0.3,3.8,1.4
		c14.4,27.3-5.1,44.1-31.8,46.3c-13.9,0.8-27.9,1.3-41.8,2c-4.7,0.2-8.3-1.6-11.4-4.8c-15.3-15.8-4-37.3,8.8-50.5
		c1.2-1.3,2.4-3.3,2.6-5C203.2,856.5,204.7,839.4,204.1,821.5z"/>
	<path class="st0" d="M199.4,535.3c3.6-4.3,6-7.9,8.4-12.7c0.8-1.7,1.4-2.4,3.4-2.2c16.3,1.9,32.6,3.7,49,5.4
		c44,0.1,87.9,0.6,131.9-0.7c4.7-0.2,6.9,1.1,8.2,5.1c2.4,6.1,6.2,8.4-1.6,12c-23.8,13.5-49,24.1-74.6,33.5c-2,0.7-2.9,0.1-3.8-1.5
		c-5.3-9.7-10.4-19.4-16-28.9c-5.7-10.7-18.9,23.4-20.5,27.8c-0.6,1.9-1.4,2.5-3.6,2C249.9,569.1,223.6,554.2,199.4,535.3z
		 M244.3,533.7c-4.4,2.4-4.9,7.8-7.4,11.8C238.5,553,249.1,537.3,244.3,533.7z M274,542.9c-0.5,0-0.9,0-1.4,0.1
		c-1.1,5.4-4.9,10.8-3.8,16.3c1-0.3,2.6-0.4,2.9-1C274.3,553.4,276,548.2,274,542.9z M257,539.5c-3.6,3.9-5.1,9.8-7.8,14.6
		C248.4,561.4,261.9,547.8,257,539.5z M344.4,539.1c-3,6.9,1.3,13.9,8.2,12.6C353.8,549.3,345.9,542,344.4,539.1z M365.8,545.7
		c1.1-5.2-1.4-12.6-6.4-12.2C361,537.1,359.8,547.7,365.8,545.7z M331.4,545.3c-0.4,5.1,2.2,12.4,7.1,11.7
		C338.2,553.4,334.4,547.7,331.4,545.3z"/>
	<path class="st0" d="M140.2,141.7c8.1,5.1,16.9,4.5,25.5,5c34.5,1.8,69,3.1,103.6,3.3c60.2-1.9,121.7,5.9,181.1-5.1
		c3.4,46.4-253.4,21.5-292.1,18.8C146.9,161.7,131.5,155.9,140.2,141.7z"/>
	<path class="st0" d="M330.8,749.8c18-2.6,35.9-6.3,50.7-19.8c1.7,27.3,1.8,54.7,10.6,80.7c0.8,1.9,0.1,2.4-1.5,3.2
		c-15.7,6.3-32.5,2.4-48.7,1.6c-1.9-0.1-2.5-1-2.8-3.2C336.1,791.4,334.8,770.6,330.8,749.8z"/>
	<path class="st0" d="M265.3,815.5c-16.2,3.5-32.1,3.8-48.5,1.2c3.8-28.8,5.1-57.7,4-86.5C287.8,768.6,274,717,265.3,815.5z"/>
	<path class="st0" d="M394.6,700.2c-23.6,51.3-104.3,51.4-150,33.5c5.3-1.8,8.3-6.7,9.3-12c0.3-1.8,1.1-2.2,2.8-1.8
		c11,3.2,22.3,2.2,33.5,1.9c31.5-0.7,62.5-7.7,93-15C387.8,705.6,388.9,699.7,394.6,700.2z"/>
	<path class="st0" d="M256.3,714.6c-0.6-6.5-1.2-13.2-1.9-19.8c13.4,3.8,28,2.7,41.7,1.3c26.8-3.1,52.3-8.5,77.5-18.6
		c0,6.8,0.1,14.1-0.1,21.5c0,0.8-1.5,1.8-2.5,2.3C334.5,714.3,294.5,716.3,256.3,714.6z"/>
	<path class="st0" d="M132,660c13-5.9,26.5-11.4,39.3-17.5c1.4-2.9,4-2.8,6.8-2.9c0.9,3.2,3.3,4.5,6.3,5.6
		c16.7,6.3,13.5,32.5,4,44.3C174.1,706.6,136.7,676.3,132,660z"/>
	<path class="st0" d="M411.6,686.8c2.9-12.4,7.8-24.6,4.5-37.8c1.5-1.2,3-2,4.8-3.3c9.8,12.7,22.5,20.2,38.7,21.5
		c-8.4,12.4-18.2,22.6-33.7,25.5C420,694.4,416.3,689.4,411.6,686.8z"/>
	<path class="st0" d="M147.6,140.3c99.4-2.5,199.2,3.7,298.7-0.4c0,0.3,0.1,0.6,0.2,0.9c-68.7,9.7-138.9,2.8-208.1,4.6
		c-30.2-0.8-60.5-1.5-90.6-4C147.6,141,147.6,140.6,147.6,140.3z"/>
	<path class="st0" d="M215.1,699.8c0.7-7.8,0.4-16.8,11-15.7c7.4,0.6,16.2,2.5,20.1,9.5c6.2,10.9,4.4,39.7-13.8,34.1
		C221.2,723.7,214.6,711,215.1,699.8z M220.6,702.7c0.2,5.1,0.4,9.8,4.8,11.6c11,5.1,17-1.4,15.9-12.9c-0.5-5.7-5-9.5-11.1-10.4
		C225.2,690.4,220.5,698,220.6,702.7z"/>
	<path class="st0" d="M308.9,614.5c-3.9-0.6-12.9,2-13.1-2.7c1.4-19.2-0.8-38.6,4.3-57.3c6.1,8.6,11.9,17.2,9,28.4
		C307.5,593.2,309.5,603.8,308.9,614.5z"/>
	<path class="st0" d="M379,700.9c-0.8-9.6,2.2-19.7-2.2-28.4c-1.2-2.3-0.3-3.6,1.7-4.5c3-2,6.4-0.9,6.7,3.1
		C385.8,677.1,389.2,703.7,379,700.9z"/>
	<path class="st0" d="M210.4,706.8c-5.7-4.4-10.8-8.2-15.6-11.8c2.1-4.3,4.2-8.3,6.2-12.4c3.2,1.5,6.6,3.2,9.4,4.5
		C210.4,693.4,210.4,699.7,210.4,706.8z"/>
	<path class="st0" d="M391.6,693.4c0.1-9.5,3.4-19.2-2.5-28.6c3.2-1.4,6.4-2.8,9.7-4.3C399.4,667.7,401.8,693.3,391.6,693.4z"/>
	<path class="st0" d="M192.7,697.5c1.5,2.3,3.4,5,5.4,8.1c-9.2,10.2-13.1,7.6-19-3.3C183.2,700.8,187.9,699.2,192.7,697.5z"/>
	<path class="st0" d="M409.5,650c1.1,11.6,0.6,22.8-3.4,33.4c-0.3,0-0.7-0.1-1-0.1c1.4-8.4,0.1-16.7-0.3-25.1
		C404.9,654.9,407.5,652.4,409.5,650z"/>
	<path class="st0" d="M170.1,320.3c0-4.5,3.7-8.7,8.2-8.9c6.1-0.3,5.9,9,4.2,13.1C179.9,332,168.6,327.4,170.1,320.3z"/>
	<path class="st0" d="M461.4,322.2c-7.8,0.8-10.9-5.9-6.3-10.5c4.4-3.2,10.7-5.8,14.1-0.1C471.8,317,467.2,323.6,461.4,322.2z"/>
	<path class="st0" d="M319.2,350c3.3,7.1,8.8-1.1,13.9-1.5c51.7-12.5,57.8,54.1,22.7,59.9c-16.6,1.6-35.4,0.9-48.1-11.3
		c-6.7-7-13.2,11.4-31.6,12.5c-43.5,7.2-45.6-42.4-12.6-59c12-6.3,39.2-10,44.4,5.9c0.8,1.7,3.6,1,4.2-0.3
		C313.1,352.5,315.8,351.1,319.2,350z"/>
	<path class="st0" d="M320.7,341.7c-3.9,2.5-7.2,4.6-10.9,6.9c-2.8-6.9-10.7-6.2-15.4-10.5C299.8,333.2,321.7,330.7,320.7,341.7z"/>
	<path class="st0" d="M98.4,182.1c-9.7,14.8-14.7,31.4-21.2,47.3c-1.5,3.6-3.2,4.8-6.8,4.3c-25.7-1-41.2-21.5-24.8-44.3
		C52.1,181,60.5,177,71,177.1C80.2,178,91.1,174.7,98.4,182.1z"/>
	<path class="st0" d="M524.3,236.6c-4.2-23.1-13.5-43-31.5-58.2c3.8-4.3,8.4-6.7,13.8-7.6C553.4,161.7,570,225.7,524.3,236.6z"/>
	<path class="st0" d="M314.1,128.1c-69.5,1.7-83.7-80.1-12.4-88.9C368.1,33.9,383.4,119.9,314.1,128.1z M305.8,45.4
		c-61.5-2.2-56.9,77.5-0.2,77.2c16.7,0.6,29.7-7.7,39.9-19.9C369,73.4,333,47.7,305.8,45.4z"/>
	<path class="st0" d="M225.9,704.3c0.5-2.9,0.2-7.3,4-7.6c6.6,0.2,7.2,8.3,4.9,12.9c-1.7,3.1-6,1-7.7-0.8
		C226.2,707.6,226.2,705.5,225.9,704.3z"/>
	<path class="st0" d="M339.6,62.2c-65.7-52.4-117,50.1-30.7,58.3C332.9,119.9,367.4,85.6,339.6,62.2z M335.3,100.4
		c-9.1,8.9-17.4,15.4-30.4,5.5c-6.8,7.3-16.3,7.8-23.6,1c-5.2-4.9-11.3-10.5-12.2-18c-0.6-5.7,6.4-7.1,8.3-2
		c0.7,2.1,1.3,6.5,3.7,7.1c5.6-1,4.9-5.2,1.2-8.3c-5.8-5.1-8.1-11.4-6-18.8c4.5-17.4,27.7-17.8,41.5-12.1
		c11.9,5.1,19.3,23.8,8.2,32.9c-1.9,1.5-4.9,3.6-4.7,6.1c0.5,2.1,2.7,2.8,4.5,2.1c4.9-2.9,0.6-11.4,9.1-10.5
		C343.2,86.2,341.7,97.5,335.3,100.4z"/>
	<path class="st0" d="M273.7,85.5c1.8,5.6,2.2,12.5,9.3,11.2c2.7-0.3,5.5-3.2,5.4-6.3c0-1.3-0.9-3.1-1.9-3.9
		c-8.6-6.8-11.9-20.9-1.6-27.4c13-9.3,35.1-4.9,41.9,10.2c3.3,6.8,1.7,12.4-4.3,16.9c-4.8,2.9-6.5,10.5-0.4,12.9
		c6.2,2.3,8.8-2.2,9.8-7.5c-0.2-4.8,7.8-1.9,5.5,1.9c-0.6,1.3-1.5,2.9-2.6,3.3c-3,1.2-4.4,3.6-6.1,5.9c-4.2,5.4-16.6,8.1-21.3,0.6
		c-1.2-2-2.6-1.9-4.1-0.1c-3.8,5.3-11.2,8.1-16.9,3.7c-4.2-4-8.4-8.1-12.4-12.3C271.4,92.2,271.4,89.3,273.7,85.5z M296.9,79.1
		c-4.8,7.6,15.3,9.2,15.4,2.1C307.8,79.2,304,87.4,296.9,79.1z M293.8,74.1c0.5-4.3-5.4-2.6-5.8,0C287,77.9,294.7,78.5,293.8,74.1z
		 M314.9,77.3c5.2-0.2,4.5-5.2,0.9-5.9c-1.3,0.4-2.5,1.9-3,3.2C312.5,75,314.1,76.3,314.9,77.3z"/>
</g>
</svg>
