<?xml version="1.0" encoding="utf-8"?>
<!-- Generator: Adobe Illustrator 26.0.0, SVG Export Plug-In . SVG Version: 6.00 Build 0)  -->
<svg version="1.1" id="Capa_1" xmlns="http://www.w3.org/2000/svg" xmlns:xlink="http://www.w3.org/1999/xlink" x="0px" y="0px"
	 viewBox="0 0 595.3 942.1" style="enable-background:new 0 0 595.3 942.1;" xml:space="preserve">
<style type="text/css">
	.st0{fill:#FFFFFF;}
</style>
<g>
	<path d="M65.3,334.6c0,4.8-0.2,9.6,0,14.4c1,20.8,4.1,41.2,11.1,60.9c10,28,27.1,50.4,52.7,66c8.7,5.3,17,11.2,25.2,17.1
		c11.1,8.1,23.4,13.6,36.9,15.8c14.2,2.3,28.6,4.2,42.9,5.8c12.3,1.4,24.6,2.8,37,2.9c25.2,0.3,50.4-0.3,75.6-0.5
		c13.9-0.1,27.7-0.2,41.6-0.3c1.3,0,2.6-0.3,3.9-0.7c2-0.6,3.8-1.7,5.8-1.9c13.4-1.3,25.7-5.8,37.5-11.8
		c16.8-8.5,31.5-19.8,44.1-33.7c17.7-19.6,31.4-41.6,40.6-66.4c6.1-16.4,8.9-33.5,10.2-50.9c1.5-18.9,1-37.7-1.2-56.5
		c-0.5-4.8-0.8-9.7-0.3-14.5c0.5-4.3,2.4-5.2,6.6-5.5c2.6-0.2,5.3-0.3,7.7-1.2c11.8-4.4,21.5-11.6,29.3-21.5
		c10.7-13.6,15.8-29.2,15.7-46.4c-0.1-16.9-5.3-32.4-14.6-46.7c-8.4-13-19.4-22.1-34.9-25c-17.2-3.2-33.9-1.6-50.1,5.3
		c-9.6,4.1-19.1,8.4-27.2,15c-4.7,3.9-10,6.9-15.3,9.3c-21.6,9.7-45,12.4-68.3,12.6c-41.2,0.4-82.5-0.4-123.8-0.8
		c-8.9-0.1-17.7-0.3-26.5-0.8c-14.1-0.8-28.2-1.9-42.3-3c-14.4-1.1-28.7-3.5-42.2-8.9c-2.4-1-4.4-3-6.5-4.6c-1-0.7-1.9-1.5-2.9-2.2
		s-2.5-1.1-3.2-2.1c-5.3-7.3-12.7-11.5-20.8-14.8c-9.6-3.8-19.7-4.3-29.8-4c-21.9,0.5-40.6,8.5-55.8,24.4
		c-12.9,13.5-18.1,29.9-18,48.1c0.1,14.4,3.8,27.9,11.3,40.4c11.4,18.8,29,28.4,49.5,33.7c4.1,1.1,4.5,1.2,3.5,5.2
		C66.5,302.6,64.7,318.5,65.3,334.6z"/>
	<path d="M291.5,574c-0.6,0.8-1.2,1.6-1.8,2.5c-5.9,8.9-2.8,8-13.6,5.4c-28.5-6.8-54.1-19.7-76.7-38.6c-1.8-1.5-3.1-2.2-5.3-0.5
		c-1.4,1.1-3.4,1.4-5.2,2c-4.6,1.4-9.3,2.4-13.7,4.2c-13.8,5.8-24.6,15.4-34,26.8c-18.3,22.2-25.3,46.7-15.5,74.8
		c0.9,2.6,1.8,3.6,4.6,2.3c10.7-5,21.5-9.8,32.3-14.6c4.2-1.9,4.9-2.9,3.3-7.3c-2-5.1-4.2-10.1-6.7-15c-2.5-5-2.4-10.1,1.4-13.9
		c9.8-9.6,20-18.8,30.2-28c1.1-1,3.3-1.7,4.6-1.3c2.4,0.7,3.9,2.8,3.9,5.5c0,2-0.6,3.9-0.6,5.9c0,10.8,0.2,21.6,0.2,32.5
		c0,9.7-0.3,19.3-0.5,29c0,0.8,0.2,1.8,0.7,2.5c3,5,4.5,10.5,4.4,16.4c-0.1,4.1-0.5,8.2-0.7,11.6c3.4,2.9,6.5,5.4,9.7,8.1
		c0.3-0.4,0.9-1.1,1.3-1.7c2.3-3.8,5.4-5.7,10-5.7c9.6-0.1,17.6,3.4,24.6,9.8c0.6,0.5,1.2,1.3,1.9,1.4c5.1,0.8,10.2,2.1,15.3,2.2
		c22.6,0.6,45-1,67.2-6.4c12.3-3,24.2-6.7,35.2-12.8c1.8-1,3.4-2.8,4.6-4.6c1.9-2.8,7.5-5.2,10.8-4.5c1.1,0.2,2.8,0,3.5-0.7
		c3.5-3.3,7.1-6.1,11.7-6.7c-0.8-4.3-2.3-8.3-2.3-12.3c-0.1-16.4,0.2-32.7,0.6-49.1c0.1-6.9,0.7-13.7,1.2-20.5
		c0.3-3.9,2.5-4.9,6.1-3.1c10.7,5.3,20,12.3,27.8,21.4c6.9,7.9,7.9,16.5,3.8,26.1c-3.1,7-5.9,14.2-8.6,21.4
		c-0.4,1.1-0.2,2.9,0.5,3.8c8.1,10.9,19.1,17,32.6,18.8c2.2,0.3,3.2-0.3,3.6-2.6c0.2-1.3,0.7-2.7,1.5-3.7
		c7.9-10.1,10.9-21.8,11.6-34.3c1.2-20.5-4.4-38.1-20.5-51.9c-12.6-10.8-27.3-17.7-42.3-24c-0.5-0.2-1.3-0.3-1.8-0.1
		c-2.2,0.9-4.4,1.8-6.4,3c-15.9,9.4-32.4,17.4-49.6,24.1c-10,3.9-20.1,7.8-30.3,11.3c-3.4,1.2-7.2,2.6-10.9-1.1
		c-0.2,3-0.6,5.4-0.6,7.7c0,9,0.2,17.9,0.3,26.9c0,3.3-1.4,4.7-4.7,4.7c-5.2-0.1-10.4-0.4-15.6-0.3c-3,0.1-3.9-1.4-4-3.9
		c-0.1-3.2-0.5-6.5-0.4-9.7C290.7,595.9,291.1,585,291.5,574z"/>
	<path d="M143.3,135c4.4,0.2,8.6,0.7,12.7,0.6c9.9-0.1,19.8-0.9,29.7-0.8c27.5,0.3,55,1.3,82.5,1.4c33.5,0.2,66.9-0.1,100.4-0.3
		c22.4-0.1,44.8-0.2,67.2-0.4c6.5-0.1,13-0.3,20-0.5c-0.4-5.4-0.3-10.4-1.1-15.3c-2.5-14.7-9.9-25.9-24.3-31.4
		c-2-0.8-4.1-1.4-6.2-2.1c-17.9-6.4-32.8-17.3-46.2-30.5c-9.5-9.4-19-18.7-28.8-27.7c-7.1-6.5-15-12.1-23.9-16.2
		c-21.6-10-42-7.6-60.2,7c-12.2,9.8-23,21.3-34.6,32c-8.6,8-16.8,16.7-26.3,23.3c-12.1,8.4-26.3,13.2-40.2,18
		c-2.9,1-6.2,1.6-8.6,3.3c-5.6,3.9-9.8,9.4-10.6,16.3C143.5,119.5,143.6,127.2,143.3,135z"/>
	<path d="M333,821.3c1.4,4.4,3.2,8.6,4,12.9c1.8,9.6,2.8,19.4,4.6,29c1.1,5.5,0.4,9.7-2.9,14.6c-8.3,12.5-6.7,26-2.1,39.5
		c2.2,6.3,6.5,10.1,12.2,13c5.2,2.6,10.8,2.9,16.3,3.5c18.9,2.1,37.4,0.1,55.6-5c1.5-0.4,3-1.4,4.2-2.5c4.3-4,4.9-9.6,5.1-15
		c0.4-10.7-4.5-19.6-10.7-28c-2.4-3.2-4.5-6.5-7-10.3c-2.9,1.1-6.5,2.4-10.2,3.8c-1.3,0.5-2.6,1.4-3.9,1.6
		c-10.1,1-20.1,1.6-30.2-0.3c-6-1.1-12-2.6-18-3.9c0.1-0.3,0.1-0.6,0.2-0.9c3.7,0,7.4,0,11.1,0c9.2,0,18.5,0,27.8-0.2
		c3.3-0.1,6.8-0.3,9.8-1.4c4.2-1.6,8.1-4.1,12.1-6.2c-2.9-16.3-2.9-33.2-8.5-49.4c-7.5,4.8-15.3,7.8-23.8,8.2
		C363.6,824.9,348.1,825.6,333,821.3z"/>
	<path d="M204.1,821.5c0,7,0.3,13.6-0.1,20.2c-0.6,10.8-1.5,21.6-2.6,32.4c-0.2,1.8-1.4,3.7-2.6,5c-6.1,6.6-11.5,13.8-14.4,22.4
		c-3.5,10.3-2,20,5.6,28.1c3,3.2,6.7,5.1,11.4,4.8c13.9-0.8,27.9-1.2,41.8-2c10.8-0.6,20.4-4.5,29-11.1c3.5-2.7,5.9-6,6.8-10.5
		c1.8-8.8,0-16.9-4-24.7c-0.9-1.7-2-1.9-3.8-1.4c-5.1,1.3-10.3,2.7-15.5,3.2c-11.1,1.1-22-0.8-32.5-4.4c-2.5-0.9-4.9-2.3-7.3-3.4
		c0.1-0.3,0.2-0.7,0.3-1c18.4,3.3,36.8,2.7,55.5-0.8c-3-9.4-0.7-18.7-0.2-28s1.5-18.6,2.4-28.5C250.4,825.9,227.3,828,204.1,821.5z"
		/>
	<path d="M199.4,535.3c5.3,3.8,10.1,7.5,15.1,10.9c20.1,13.8,41.8,23.8,65.8,28.8c2.2,0.5,3-0.2,3.6-2c3.3-9.9,8.3-19,14-27.8
		c1.8-2.8,4.8-2.8,6.5,0c2.3,3.8,4.4,7.8,6.6,11.7c3.1,5.7,6.3,11.5,9.4,17.2c0.8,1.5,1.8,2.2,3.8,1.5c25.7-9.4,50.8-19.9,74.6-33.5
		c5.8-3.3,5.8-3.3,2.9-9.2c-0.5-0.9-1-1.8-1.3-2.8c-1.3-4-3.5-5.3-8.2-5.1c-16.7,0.7-33.5,0.7-50.3,0.8c-26,0.1-52.1,0-78.2,0
		c-1.1,0-2.3,0-3.4-0.1c-16.3-1.8-32.6-3.5-49-5.4c-2-0.2-2.6,0.6-3.4,2.2c-1.2,2.7-2.9,5.2-4.5,7.7
		C202.2,531.9,200.9,533.4,199.4,535.3z"/>
	<path d="M140.2,141.7c-2.2,3.8-3,7.4-2,11.2c0.4,1.3,1.4,2.7,2.5,3.4c5.4,3.6,11.2,6.5,17.7,7.2c17.7,1.9,35.4,4.1,53.1,5
		c25.2,1.4,50.5,2,75.8,2.5c16.8,0.4,33.5,0.2,50.3,0.1c16.4-0.1,32.9,0,49.3-0.8c11-0.5,22-1.9,32.8-3.7c8.6-1.4,16.9-3.9,24.5-8.7
		c5-3.2,7.1-7.2,6.3-13.2c-0.9,0.1-1.8,0.1-2.6,0.3c-9.9,2.9-20.2,4.2-30.4,4.5c-16.5,0.5-33.1,0.6-49.7,0.6
		c-32.8,0-65.6-0.1-98.4-0.3c-13.9-0.1-27.7-0.2-41.5-0.7c-20.7-0.7-41.4-1.4-62.1-2.6C157.2,146.2,148.3,146.8,140.2,141.7z"/>
	<path d="M330.8,749.8c0.7,3.6,1.5,6.7,1.9,9.8c1.1,8.4,1.9,16.8,2.9,25.1c1.1,9.2,2.6,18.3,3.5,27.6c0.2,2.2,0.9,3.1,2.8,3.2
		c9.3,0.7,18.6,1.8,27.9,1.8c7,0,14.1-0.5,20.8-3.4c1.7-0.7,2.3-1.3,1.5-3.2c-1.2-3.2-2.4-6.4-3.1-9.8c-4.3-19.5-5.9-39.3-6.9-59.2
		c-0.2-3.7-0.4-7.4-0.6-11.7C366.7,743.5,348.7,747.2,330.8,749.8z"/>
	<path d="M265.3,815.5c1.8-15,3.6-30,5.4-45c0.7-6.2,1.3-12.4,2-18.6c0.2-1.8-0.6-2.3-2.4-2.8c-9.1-2.4-18.4-4.4-27.1-7.7
		c-7.7-2.9-14.8-7.3-22.3-11.2c1,28.8-0.2,57.7-4,86.5C233.2,819.4,249.1,819.1,265.3,815.5z"/>
	<path d="M394.6,700.2c-3.9,0.3-3.8,0.4-6.3,2.8c-1.5,1.5-3.2,3.4-5.1,3.8c-5.6,1-11.1,2.3-16.6,3.9c-9.7,2.8-19.9,4.3-29.9,6.1
		c-15.4,2.7-30.8,4.6-46.5,5c-11.2,0.3-22.5,1.2-33.5-1.9c-1.7-0.5-2.5,0-2.8,1.8c-0.9,5-3.4,8.9-7.8,11.5c-0.4,0.3-1,0.4-1.5,0.5
		c4.2,2,7.8,3.1,11.4,4.2c12.5,3.7,25.2,6.1,38.2,6.4c11.7,0.3,23.2-0.8,34.8-2.7c9.9-1.6,19.9-3,29.3-6.8
		C375.1,728.2,386.7,716.5,394.6,700.2z"/>
	<path d="M256.3,714.6c1.6-0.1,3.4-0.3,5.2-0.3c2,0,3.9,0.3,5.9,0.5c1,0.1,2.1,0.3,3.1,0.4c25.5,0.4,50.7-2,75.6-7.2
		c8.4-1.8,17-3.1,24.8-6.9c1-0.5,2.5-1.5,2.5-2.3c0.2-7.3,0.1-14.6,0.1-21.5c-11.3,3.8-22,8.4-33.3,11c-14.5,3.4-29.4,5.7-44.2,7.6
		c-9.2,1.2-18.6,1.3-28,1.2c-4.6,0-9.3-1.6-13.7-2.5C255.1,701.4,255.7,708,256.3,714.6z"/>
	<path d="M132,660c0.3,0.9,0.3,1.3,0.5,1.6c8.9,17.2,22.9,28,41.6,32.5c5.6,1.3,10.5,0.2,14.2-4.7c8-10.5,9.2-22.1,5.8-34.6
		c-1.4-5.1-5.2-8-9.8-9.7c-3-1.2-5.4-2.4-6.3-5.6c-2.8,0.1-5.3,0-6.8,2.9c-0.3,0.6-1.4,0.8-2.2,1.1C156.8,649,144.4,654.5,132,660z"
		/>
	<path d="M411.6,686.8c1.9,1.3,4,2.3,5.7,3.8c2.6,2.3,5.4,2.6,8.7,2c15.4-2.9,25.3-13.1,33.7-25.5c-16.2-1.3-28.9-8.8-38.7-21.5
		c-1.6,1.1-2.9,1.9-4.2,2.8c-0.2,0.2-0.5,0.4-0.6,0.5C419.4,662.2,414.5,674.4,411.6,686.8z"/>
	<path d="M147.6,140.3c0,0.3,0,0.7,0,1c6.5,0.6,13,1.3,19.5,1.6c8,0.4,16,0.4,24,0.7c15.7,0.6,31.4,1.8,47.1,1.7
		c63.2-0.5,126.5,1.9,189.7-1.6c6.2-0.3,12.3-1.9,18.4-3c0-0.3-0.1-0.6-0.2-0.9c-7.8,0.3-15.6,0.9-23.4,1
		c-27.3,0.2-54.6,0.4-81.9,0.2c-40-0.2-80-0.8-120-1.2c-22-0.2-44-0.2-66-0.2C152.5,139.7,150,140.1,147.6,140.3z"/>
	<path d="M595.2,207.6c-0.3-19.3-5.6-37.5-15.9-53.8c-10.9-17.4-27.4-26.4-47.5-28.2c-18.9-1.7-36.7,2.9-53.7,10.9
		c-6.1,2.8-11.8,6.4-18.5,10.1c0.5-3,1.3-5.6,1.4-8.2c0.3-8.8,0.7-17.7-1.8-26.4c-4.2-14.5-14.1-23.4-27.9-29
		c-8.7-3.5-17.5-7.5-25.4-12.5c-15-9.5-27.5-22.2-39.7-35.1C355,23.6,342.4,13.4,327.8,6c-11-5.6-22.8-7.2-34.9-5.2
		c-18,2.9-32.7,12.2-45.4,25c-10.3,10.3-20.6,20.7-31.2,30.6c-15.5,14.5-33.6,24.6-54.1,30.3c-11.2,3.1-19.1,10-21.3,21.7
		c-1.4,7.7-1.2,15.8-1.8,23.6c-0.1,1.8,0,3.9-0.8,5.4c-1.7,3.1-3.9,6-6.1,9.1c-0.3-0.3-0.9-1-1.7-1.6c-3.3-2.5-6.4-5.5-10-7.4
		c-20.5-10.8-42.2-10.9-64-5.2c-16.9,4.4-30.5,14.2-41.4,27.9C10,166.6,6,173.6,3.6,181.5c-5.6,18.6-4.8,36.9,1.8,55.4
		c8,22,22.4,37.1,43.9,45.7c4.5,1.8,9.1,3.2,13.7,4.8c-5,14.8-5.7,30.3-6.2,45.6c-0.5,15.2,1,30.4,3.7,45.4
		c3.1,17.4,7.3,34.6,15.2,50.5c10.6,21.3,26.1,38.4,45.7,51.9c6.1,4.2,12.3,8.1,18.4,12.2c4.5,3.1,8.8,6.6,13.5,9.6
		c9.6,6.3,19.8,11.3,31.4,13c6.1,0.9,12.2,2.3,18.9,3.5c-0.7,1.5-1,2.7-1.7,3.6c-3.2,4.6-8.6,7.7-9.6,13.9c0,0.4-1.1,0.6-1.8,0.8
		c-6.3,1.8-12.7,3.1-18.8,5.5c-14.1,5.7-25.2,15.4-34.9,27c-14.4,17.2-22.8,36.4-21.7,59.1c0.5,10.8,1.9,21.3,7.9,30.7
		c0.5,0.9,1.3,2.2,1.9,2.3c2.8,0.1,2.9,2.3,3.6,4c5.5,12.8,14.3,22.8,26.7,29c5.9,3,12.4,4.9,18.9,7.4c0.4,6.4,3.8,12.1,10.5,14.5
		c8.5,3.1,14-2.2,18.6-8.7c0.5,0.6,0.8,0.9,1,1.3c2.1,5.5,5.1,10.4,9.7,14.2c0.6,0.5,0.9,1.6,0.8,2.5c-0.8,22-1.6,43.9-2.6,65.9
		c-0.3,7.7-1.1,15.3-1.6,22.7c-3.2,0.6-6.2,2-8.8,1.5c-2.9-0.5-3,0.9-3.3,2.6c-0.3,1.5-0.6,3.1-0.6,4.6c0,5,0.4,9.9,0.2,14.9
		c-0.4,10.7-1.1,21.4-1.8,32.1c-0.1,1.1-0.8,2.3-1.5,3.2c-3.6,4.3-7.6,8.3-11,12.8c-12,16.1-9.5,34.6,0,46.9c3.4,4.4,7.7,7,13.6,6.9
		c12.5-0.2,25,0,37.5-0.1c11.2-0.1,22.1-1.8,32.6-6.1c20.2-8.2,23.9-27.9,17.1-43.3c-5.9-13.2-7.6-26.6-5.4-40.8
		c1.4-9.1,3-18.3,1.7-27.7c-0.8-6-2.4-8-7.6-9.1c1.6-20.8,3.3-41.5,5-62.7c3.5,0.4,7.1,1.1,10.6,1c11.4-0.1,22.9-0.5,34.3-0.9
		c1.9-0.1,2.5,0.3,2.7,2.3c1,11.1,2.3,22.2,3.4,33.3c0.9,9.4,1.8,18.8,2.7,28.3c-1.6,0.4-2.8,0.8-3.8,0.8c-2.3,0-2.5,1.1-2.1,3
		c3.2,16.3,6.2,32.7,9.4,49c0.5,2.4-0.1,4.1-1.6,6c-3.4,4.4-6.4,9-7,14.7c-0.9,8.5-0.8,17.1,1.6,25.4c1.7,6.1,2.9,12.7,8.3,16.7
		c3.6,2.7,7.9,4.4,12.1,6.1c12.8,5.1,26.2,6,39.9,5.5c9.5-0.3,19-0.6,28.1-3.2c3.9-1.2,8.4-2.1,11.3-4.7c7.3-6.5,10.2-15.3,9.5-25.1
		c-0.9-13.5-6.2-25.3-15-35.6c-0.8-1-1.6-2.3-1.8-3.5c-2.4-13.8-4.6-27.7-6.9-41.6c-0.7-4.3-0.9-8.7-2-12.9c-1-3.8-5.9-7-8.5-5.8
		c-3.7,1.7-4.8,0.4-4.9-3c0-0.3-0.2-0.6-0.3-0.9c-4.2-15-6.4-30.3-8.2-45.7c-1.2-10.6-2.8-21.2-4.2-31.8c-0.1-0.9,0.3-2,0.9-2.7
		c4.2-5.2,8.6-10.2,12.7-15.4c2.9-3.7,4.5-7.9,4.7-12.7c0.1-1.9,0.5-3.7,0.7-5.6c1.5,1.1,2.9,2.2,4.3,3.3c6.8,5.3,14.2,5.9,22.1,2.8
		c15.2-6,28-14.7,33.3-30.1c2-1.3,3.7-1.9,4.5-3.1c8.3-12.9,13.5-26.9,15.1-42.2c2.3-22.6-4.2-42-20.6-57.8
		c-13.5-13.1-29.8-21.3-47.9-26.1c-2-0.5-3.1-1.5-4-3.4c-1.9-4.2-4.1-8.3-6-11.9c10.4-4.1,21.4-7.4,31.3-12.4
		c36.7-18.5,63-47.5,81.9-83.5c9.7-18.5,15.2-38.4,18-59c2.3-17.1,2.8-34.2,1.7-51.4c-0.7-11.1-1.7-22.2-2.5-33.4
		c12.1-1.5,22.3-6.4,31-14.2C585.6,252.8,595.6,232.4,595.2,207.6z M192,632.3c-5.9,0.6-11.8,1.3-18.2,2c-0.3-7.9-4.5-14-7.6-20.5
		c-1.5-3.1-1.1-5.2,1.3-7.6c7.3-7.3,14.5-14.8,21.7-22.2c0.6-0.6,1.5-1,2.8-1.9C192,599.5,192,616.1,192,632.3z M430.6,601.5
		c0.5,0.9,1,2,0.7,2.8c-1.7,5.3-3.2,10.7-5.4,15.8c-2.6,5.9-5.1,11.8-5.7,18.3c-0.1,0.9-0.3,1.8-0.5,3.1c-3.7,0.6-7.2,0.8-10.5,1.7
		c-1.5,0.4-2.8,1.9-4.7,3.3c-0.9-23.1-1-45.9,1-68.7C416,583.7,424.8,591,430.6,601.5z"/>
	<path d="M215.1,699.8c0.1,0,0.2,0,0.2,0c0,1.2,0,2.3,0,3.4c0.1,10.2,7.5,20.8,17.1,24.4c4.5,1.7,9.2,1,11.7-2.5
		c2-2.7,3.8-5.8,4.5-9.1c1.8-7.7,1-15.3-2.4-22.5c-0.8-1.8-2.4-3.3-4-4.5c-4.8-3.5-10.4-4.5-16.1-5c-5.9-0.5-9,1.7-10.1,7.4
		C215.6,694.2,215.4,697,215.1,699.8z"/>
	<path d="M308.9,614.5c0-5.1,0-10,0-14.8c0-5.6-1.1-11.5,0.3-16.8c2.1-8.3-0.2-14.9-4.6-21.5c-0.9-1.4-1.5-2.9-2.4-4.4
		c-0.4-0.7-0.9-1.2-2-2.5c-0.9,2.8-2,4.9-2.1,7.1c-0.7,10.4-1.2,20.8-1.6,31.2c-0.3,6.3-0.5,12.7-0.6,19c0,0.9,1,2.6,1.6,2.6
		C301.1,614.6,304.7,614.5,308.9,614.5z"/>
	<path d="M379,700.9c4.2,0.5,5.2-0.5,6.1-5.4c1.5-8,1.1-16.2,0-24.2c-0.1-0.9-0.4-1.9-0.9-2.6c-1.6-2.5-3.8-1.4-5.8-0.5
		s-2.9,2.2-1.7,4.5c0.9,1.7,2,3.6,2.1,5.5C379.1,685.6,379,693.2,379,700.9z"/>
	<path d="M210.4,706.8c0-7.1,0-13.4,0-19.7c-2.8-1.3-6.2-3-9.4-4.5c-2,4-4.1,8.1-6.2,12.4C199.6,698.5,204.7,702.4,210.4,706.8z"/>
	<path d="M391.6,693.4c3.4-0.1,4.9-1.7,5.8-4.9c2.5-9.2,2.6-18.4,1.4-28c-3.3,1.5-6.5,2.9-9.7,4.3
		C395,674.2,391.7,683.9,391.6,693.4z"/>
	<path d="M192.7,697.5c-4.8,1.6-9.4,3.2-13.7,4.7c0.8,1.3,2.2,3,3,4.9c2.1,4.9,7.7,6.4,11.6,2.7c1.6-1.5,3.1-3,4.4-4.3
		C196,702.6,194.2,699.8,192.7,697.5z"/>
	<path d="M409.5,650c-1.2,1.4-2.5,2.8-3.5,4.3c-0.7,1.2-1.4,2.6-1.3,3.9c0.2,5.4,0.9,10.7,1,16.1c0.1,3-0.4,6-0.7,9
		c0.3,0,0.7,0.1,1,0.1C410.1,672.7,410.7,661.5,409.5,650z"/>
	<path class="st0" d="M65.3,334.6c-0.6-16.1,1.2-32,5.2-47.6c1-4,0.6-4.2-3.5-5.2c-20.5-5.3-38-14.9-49.5-33.7
		c-7.6-12.4-11.2-26-11.3-40.4c-0.1-18.2,5.1-34.6,18-48.1c15.2-16,33.9-23.9,55.8-24.4c10.1-0.2,20.2,0.2,29.8,4
		c8.1,3.2,15.5,7.5,20.8,14.8c0.7,1,2.1,1.4,3.2,2.1c1,0.7,1.9,1.5,2.9,2.2c2.1,1.6,4.1,3.6,6.5,4.6c13.5,5.4,27.8,7.7,42.2,8.9
		c14.1,1.1,28.2,2.1,42.3,3c8.8,0.5,17.7,0.7,26.5,0.8c41.3,0.4,82.5,1.2,123.8,0.8c23.3-0.2,46.6-2.9,68.3-12.6
		c5.3-2.4,10.6-5.4,15.3-9.3c8-6.6,17.6-10.9,27.2-15c16.2-7,32.9-8.6,50.1-5.3c15.5,2.9,26.5,12.1,34.9,25
		c9.2,14.2,14.5,29.7,14.6,46.7c0.1,17.1-5.1,32.8-15.7,46.4c-7.8,9.9-17.5,17.1-29.3,21.5c-2.4,0.9-5.1,1-7.7,1.2
		c-4.2,0.3-6.1,1.3-6.6,5.5c-0.5,4.8-0.3,9.7,0.3,14.5c2.1,18.8,2.6,37.6,1.2,56.5c-1.4,17.4-4.1,34.5-10.2,50.9
		c-9.2,24.8-22.8,46.8-40.6,66.4c-12.6,14-27.4,25.3-44.1,33.7c-11.8,6-24.2,10.5-37.5,11.8c-2,0.2-3.8,1.3-5.8,1.9
		c-1.3,0.4-2.6,0.7-3.9,0.7c-13.9,0.1-27.7,0.2-41.6,0.3c-25.2,0.2-50.4,0.8-75.6,0.5c-12.3-0.1-24.7-1.5-37-2.9
		c-14.4-1.6-28.7-3.5-42.9-5.9c-13.5-2.2-25.8-7.7-36.9-15.8c-8.2-6-16.6-11.9-25.2-17.1c-25.6-15.6-42.7-38-52.7-66
		c-7-19.7-10.1-40.1-11.1-60.9C65.1,344.2,65.3,339.4,65.3,334.6z M329.5,417c0.7-0.1,1.4-0.3,2.1-0.2c6.8,0.2,13.5,0.5,20.3,0.6
		c10.1,0.1,18.5-3.8,24.4-12.1c2.9-4.1,5.7-8.6,7.1-13.4c4.4-14.7,4.8-29-7.8-40.4c-13-11.6-27.8-16.2-44.9-10.1
		c-0.8,0.3-1.7,0.5-2.7,0.8c-0.4-1.4-0.7-2.5-1-3.6c-1.8-6-5.8-10-11.8-10.8c-10-1.2-19.6,0.4-27,8.2c-1.5,1.6-2.9,2.3-5.1,2.2
		c-13-0.8-24,4.3-33.1,12.7c-14.3,13.1-18.5,29.9-13.3,48.4c3,10.7,11.4,15.5,22.2,17.4c14.1,2.5,26.6-0.2,38-8.5
		c2.3-1.7,4.1-4,5.9-5.7c4.6,3.3,9,6.9,13.9,9.6C320.6,414.3,325.2,415.5,329.5,417c-1.9,0.8-4,1.5-6,2.3c-14.3,6.1-28.2,5.4-41.9-2
		c-0.5-0.3-1.1-0.2-2-0.4c1.1,4.4,3.2,7.5,7.3,8.9c1.5,0.5,3,0.8,4.4,1.5c10.1,4.8,20.5,4.4,30.9,1.2c3.6-1.1,6.2-3.5,8.1-6.9
		C331.4,419.7,331.6,418.2,329.5,417z M170.9,358.2c0,0.3,0,0.5,0,0.8c5.3-0.5,10.6-0.6,15.8-1.6c5.6-1.1,10.8-2.6,13.7-8.8
		c7-14.7,6-28.5-2.5-42.1c-2.1-3.4-5.1-5.3-8.8-6.6c-13.6-4.9-27.6-3.3-41.1-0.8c-22.8,4.3-32.2,32.4-17.4,50.4
		c3.8,4.6,8.1,8.5,14.6,8.6C153.9,358.3,162.4,358.2,170.9,358.2z M405.2,328.8c0,9.8,3.1,18.2,9.2,24.5c1.2,1.3,3.3,2.3,5.1,2.4
		c14,0.6,28.1,0.5,42.1,1.5c6.1,0.5,9.9-2.3,13.5-6.1c8.6-9.2,11.3-20.3,10.5-32.6c-0.4-6-2.5-10.9-7.7-14.5
		c-4.6-3.2-9.6-3.8-15-3.9c-12-0.3-23.9-0.8-35.9-1.4c-3.5-0.2-6.3,0-9.4,2.8C409.2,308.8,405.2,317.8,405.2,328.8z M80.3,167.7
		c-0.1-0.3-0.1-0.5-0.2-0.8c-6.5,1.2-13.1,2-19.5,3.7c-15.2,3.9-28.6,16.6-29.5,35.2c-0.5,10,2.7,18.6,10.1,25.4
		c7.1,6.4,16,8.5,24.9,10.6c2.6,0.6,5.3,1,8,0.9c1.3,0,3.2-1.1,3.7-2.1c5-9.8,9.9-19.6,14.6-29.6c3.9-8.4,6.9-17.2,12.9-24.4
		c3-3.6,3.2-6.1,0.3-9.7c-1.5-1.9-3.5-3.6-5.7-4.8C94,168.8,87.2,167.6,80.3,167.7z M512.4,163c-9.8-0.4-15.2,2-20.7,6.1
		c-7.1,5.3-7.3,9-1,15.1c7.9,7.7,14.3,16.6,18.5,26.8c3.7,9.1,6.6,18.5,9.8,27.8c1.9,5.4,1.9,5.4,7.7,5.3c0.5,0,1.1,0.1,1.6,0
		c3-0.8,6.2-1.1,8.8-2.6c3.5-2,6.6-4.7,9.7-7.3c13.9-11.9,19.2-33.1,5.4-52.3C542.5,168.5,529.2,162.8,512.4,163z"/>
	<path class="st0" d="M291.5,574c-0.4,11-0.8,21.9-1,32.8c-0.1,3.2,0.2,6.5,0.4,9.7c0.1,2.5,1,4,4,3.9c5.2-0.1,10.4,0.2,15.6,0.3
		c3.4,0,4.8-1.3,4.7-4.7c-0.1-9-0.2-17.9-0.3-26.9c0-2.3,0.4-4.7,0.6-7.7c3.7,3.7,7.5,2.3,10.9,1.1c10.2-3.6,20.3-7.4,30.3-11.3
		c17.1-6.7,33.7-14.7,49.6-24.1c2-1.2,4.2-2.1,6.4-3c0.5-0.2,1.2-0.1,1.8,0.1c15.1,6.3,29.8,13.2,42.3,24
		c16,13.8,21.6,31.4,20.5,51.9c-0.7,12.5-3.8,24.2-11.6,34.3c-0.8,1-1.4,2.4-1.5,3.7c-0.3,2.3-1.4,2.9-3.6,2.6
		c-13.5-1.8-24.4-7.9-32.6-18.8c-0.7-0.9-0.9-2.7-0.5-3.8c2.7-7.2,5.5-14.3,8.6-21.4c4.2-9.6,3.1-18.2-3.8-26.1
		c-7.8-9-17.1-16.1-27.8-21.4c-3.6-1.8-5.8-0.8-6.1,3.1c-0.6,6.8-1.1,13.7-1.2,20.5c-0.4,16.4-0.6,32.7-0.6,49.1
		c0,4,1.5,8.1,2.3,12.3c-4.7,0.6-8.3,3.4-11.7,6.7c-0.8,0.7-2.4,1-3.5,0.7c-3.4-0.7-9,1.7-10.8,4.5c-1.2,1.8-2.8,3.6-4.6,4.6
		c-11.1,6.1-22.9,9.9-35.2,12.8c-22.2,5.3-44.6,7-67.2,6.4c-5.1-0.1-10.2-1.4-15.4-2.2c-0.7-0.1-1.4-0.9-1.9-1.4
		c-6.9-6.4-15-9.9-24.6-9.8c-4.6,0-7.7,2-10,5.7c-0.4,0.7-0.9,1.3-1.3,1.7c-3.2-2.7-6.2-5.2-9.7-8.1c0.2-3.4,0.6-7.5,0.7-11.6
		c0.1-5.8-1.4-11.3-4.4-16.4c-0.4-0.7-0.7-1.7-0.7-2.5c0.1-9.7,0.4-19.3,0.5-29c0-10.8-0.2-21.6-0.2-32.5c0-2,0.6-3.9,0.6-5.9
		c0-2.6-1.4-4.8-3.9-5.5c-1.4-0.4-3.5,0.3-4.6,1.3c-10.2,9.2-20.4,18.3-30.2,28c-3.9,3.8-3.9,8.9-1.4,13.9c2.4,4.9,4.7,9.9,6.7,15
		c1.7,4.3,0.9,5.4-3.3,7.3c-10.8,4.8-21.6,9.6-32.3,14.6c-2.9,1.3-3.7,0.3-4.6-2.3c-9.8-28-2.9-52.6,15.5-74.8
		c9.4-11.3,20.2-21,34-26.8c4.4-1.8,9.1-2.8,13.7-4.2c1.8-0.5,3.8-0.9,5.2-2c2.2-1.7,3.5-1,5.3,0.5c22.5,18.8,48.1,31.7,76.7,38.6
		c10.9,2.6,7.7,3.5,13.6-5.4C290.3,575.7,290.9,574.8,291.5,574z"/>
	<path class="st0" d="M143.3,135c0.3-7.8,0.2-15.5,1.1-23.1c0.8-6.9,5-12.4,10.6-16.3c2.4-1.7,5.7-2.3,8.6-3.3
		c13.9-4.8,28.1-9.6,40.2-18c9.6-6.7,17.7-15.4,26.3-23.3c11.6-10.6,22.4-22.2,34.6-32c18.2-14.6,38.6-17,60.2-7
		c8.9,4.1,16.8,9.6,23.9,16.2c9.8,9,19.4,18.3,28.8,27.7C391,69.2,405.9,80,423.8,86.4c2,0.7,4.1,1.3,6.2,2.1
		c14.5,5.6,21.8,16.7,24.3,31.4c0.8,4.9,0.8,9.9,1.1,15.3c-6.9,0.2-13.4,0.5-20,0.5c-22.4,0.2-44.8,0.3-67.2,0.4
		c-33.5,0.1-66.9,0.5-100.4,0.3c-27.5-0.2-55-1.1-82.5-1.4c-9.9-0.1-19.8,0.6-29.7,0.8C151.9,135.7,147.8,135.3,143.3,135z
		 M308.3,131.2c17.5-0.1,30.5-5.1,41.2-15.6c14.3-14,19.8-39.8,3.8-58.6c-8.4-9.9-19.3-15.9-31.5-19.7c-6.1-1.9-12.4-1.7-18.8-1
		c-9.5,1-18.5,3-27.1,7.4C255,54.6,240.1,87.3,265,112.6C277.6,125.4,293.5,130.2,308.3,131.2z"/>
	<path class="st0" d="M333,821.3c15.1,4.3,30.6,3.6,46,3c8.5-0.3,16.2-3.4,23.8-8.2c5.5,16.2,5.5,33.1,8.5,49.4
		c-4.1,2.1-7.9,4.6-12.1,6.2c-3,1.1-6.5,1.3-9.8,1.4c-9.2,0.2-18.5,0.2-27.8,0.2c-3.7,0-7.4,0-11.1,0c-0.1,0.3-0.1,0.6-0.2,0.9
		c6,1.3,12,2.8,18,3.9c10,1.8,20.1,1.3,30.2,0.3c1.3-0.1,2.6-1.1,3.9-1.6c3.6-1.4,7.3-2.8,10.2-3.8c2.5,3.8,4.6,7.2,7,10.3
		c6.2,8.3,11,17.3,10.7,28c-0.2,5.4-0.8,10.9-5.1,15c-1.2,1.1-2.7,2.1-4.2,2.5c-18.2,5.1-36.7,7.1-55.6,5
		c-5.5-0.6-11.1-0.8-16.3-3.5c-5.7-2.9-10-6.7-12.2-13c-4.6-13.5-6.3-27,2.1-39.5c3.3-4.9,3.9-9.2,2.9-14.6
		c-1.9-9.6-2.9-19.3-4.6-29C336.2,829.9,334.4,825.7,333,821.3z"/>
	<path class="st0" d="M204.1,821.5c23.2,6.5,46.3,4.4,69.8,0.4c-0.9,9.9-1.9,19.2-2.4,28.5s-2.9,18.6,0.2,28
		c-18.7,3.5-37.1,4.1-55.5,0.8c-0.1,0.3-0.2,0.7-0.3,1c2.4,1.2,4.8,2.6,7.3,3.4c10.5,3.6,21.4,5.5,32.5,4.4c5.2-0.5,10.4-2,15.5-3.2
		c1.9-0.5,2.9-0.3,3.8,1.4c4,7.8,5.8,16,4,24.7c-0.9,4.5-3.3,7.8-6.8,10.5c-8.5,6.6-18.2,10.5-29,11.1c-13.9,0.8-27.9,1.3-41.8,2
		c-4.7,0.2-8.3-1.6-11.4-4.8c-7.6-8.2-9.2-17.8-5.6-28.1c2.9-8.6,8.3-15.8,14.4-22.4c1.2-1.3,2.4-3.3,2.6-5
		c1.1-10.8,2-21.6,2.6-32.4C204.4,835.1,204.1,828.5,204.1,821.5z"/>
	<path class="st0" d="M199.4,535.3c1.5-2,2.9-3.4,3.9-5c1.6-2.5,3.2-5,4.5-7.7c0.8-1.7,1.4-2.4,3.4-2.2c16.3,1.9,32.6,3.7,49,5.4
		c1.1,0.1,2.3,0.1,3.4,0.1c26.1,0,52.1,0.1,78.2,0c16.8-0.1,33.5-0.1,50.3-0.8c4.7-0.2,6.9,1.1,8.2,5.1c0.3,1,0.9,1.9,1.3,2.8
		c2.9,5.9,2.9,5.8-2.9,9.2c-23.8,13.5-49,24.1-74.6,33.5c-2,0.7-2.9,0.1-3.8-1.5c-3.1-5.8-6.2-11.5-9.4-17.2
		c-2.1-3.9-4.3-7.9-6.6-11.7c-1.7-2.8-4.6-2.8-6.5,0c-5.6,8.8-10.7,17.8-14,27.8c-0.6,1.9-1.4,2.5-3.6,2
		c-24-4.9-45.7-14.9-65.8-28.8C209.5,542.8,204.7,539.2,199.4,535.3z M244.3,533.7c-1.1,0.7-2,0.9-2.3,1.5
		c-1.8,3.4-3.5,6.8-5.1,10.3c-0.2,0.4,0.3,1.5,0.7,1.7c0.6,0.3,1.7,0.3,2.2,0c3.4-2.7,5.4-6.3,5.8-10.6
		C245.7,535.7,244.9,534.8,244.3,533.7z M274,542.9c-0.5,0-0.9,0-1.4,0.1c-1.4,4.5-2.9,9-4.2,13.6c-0.2,0.8,0.2,1.8,0.4,2.7
		c1-0.3,2.6-0.4,2.9-1c1.4-2.9,2.7-5.8,3.3-8.9C275.3,547.2,274.3,545,274,542.9z M257,539.5c-0.5,0.3-0.9,0.5-1,0.7
		c-2.3,4.6-4.6,9.2-6.8,13.9c-0.2,0.5-0.2,1.6,0.1,1.8c0.5,0.3,1.6,0.3,1.9,0c1.6-1.3,3.3-2.6,4.4-4.3
		C257.9,547.9,258.8,543.9,257,539.5z M344.4,539.1c-2.5,6.6,0,11.7,6.2,12.9c0.6,0.1,1.5,0,2-0.3c0.3-0.2,0.4-1.3,0.1-1.6
		C350,546.4,347.2,542.9,344.4,539.1z M365.8,545.7c1.1-5.2-1.4-12.6-6.4-12.2c0.7,3.3,1.4,6.7,2.2,9.9
		C362.1,545.7,363.6,546.6,365.8,545.7z M331.4,545.3c-0.6,4.7,2,10.1,5.1,11.7c0.5,0.3,1.3,0,2,0c-0.1-0.6,0.1-1.4-0.2-1.9
		c-1.4-2.5-2.8-5-4.4-7.5C333.4,546.8,332.5,546.3,331.4,545.3z"/>
	<path class="st0" d="M140.2,141.7c8.1,5.1,16.9,4.5,25.5,5c20.7,1.1,41.4,1.9,62.1,2.6c13.8,0.4,27.7,0.6,41.5,0.7
		c32.8,0.2,65.6,0.3,98.4,0.3c16.5,0,33.1-0.1,49.7-0.6c10.3-0.3,20.5-1.5,30.4-4.5c0.8-0.2,1.8-0.2,2.6-0.3c0.8,6-1.2,10-6.3,13.2
		c-7.5,4.8-15.9,7.3-24.5,8.7c-10.9,1.8-21.9,3.2-32.8,3.7c-16.4,0.8-32.9,0.7-49.3,0.8c-16.8,0.1-33.6,0.3-50.3-0.1
		c-25.3-0.6-50.6-1.2-75.8-2.5c-17.7-1-35.4-3.1-53.1-5c-6.5-0.7-12.3-3.6-17.7-7.2c-1.1-0.8-2.1-2.2-2.5-3.4
		C137.2,149.1,138,145.5,140.2,141.7z"/>
	<path class="st0" d="M330.8,749.8c18-2.6,35.9-6.3,50.7-19.8c0.2,4.4,0.4,8.1,0.6,11.7c1,19.9,2.6,39.7,6.9,59.2
		c0.7,3.3,1.9,6.6,3.1,9.8c0.8,1.9,0.1,2.4-1.5,3.2c-6.7,3-13.8,3.4-20.8,3.4c-9.3,0-18.6-1.1-27.9-1.8c-1.9-0.1-2.5-1-2.8-3.2
		c-1-9.2-2.4-18.4-3.5-27.6c-1-8.4-1.9-16.8-2.9-25.1C332.3,756.5,331.5,753.4,330.8,749.8z"/>
	<path class="st0" d="M265.3,815.5c-16.2,3.5-32.1,3.8-48.5,1.2c3.8-28.8,5.1-57.7,4-86.5c7.5,3.8,14.6,8.3,22.3,11.2
		c8.8,3.3,18,5.3,27.1,7.7c1.7,0.5,2.6,0.9,2.4,2.8c-0.7,6.2-1.2,12.4-2,18.6C268.9,785.6,267.1,800.5,265.3,815.5z"/>
	<path class="st0" d="M394.6,700.2c-7.9,16.3-19.5,28-36.3,34.6c-9.5,3.8-19.4,5.2-29.3,6.8c-11.5,1.8-23.1,3-34.8,2.7
		c-13.1-0.4-25.8-2.7-38.2-6.4c-3.6-1.1-7.2-2.2-11.4-4.2c0.5-0.2,1.1-0.3,1.5-0.5c4.4-2.6,6.9-6.5,7.8-11.5
		c0.3-1.8,1.1-2.2,2.8-1.8c11,3.2,22.3,2.2,33.5,1.9c15.6-0.4,31.1-2.3,46.5-5c10-1.8,20.2-3.2,29.9-6.1c5.5-1.6,11-2.9,16.6-3.9
		c1.9-0.3,3.6-2.2,5.1-3.8C390.8,700.6,390.7,700.5,394.6,700.2z"/>
	<path class="st0" d="M256.3,714.6c-0.6-6.5-1.2-13.2-1.9-19.8c4.4,0.8,9,2.4,13.7,2.5c9.3,0.1,18.8,0,28-1.2
		c14.8-2,29.7-4.2,44.2-7.6c11.2-2.6,22-7.2,33.3-11c0,6.8,0.1,14.1-0.1,21.5c0,0.8-1.5,1.8-2.5,2.3c-7.8,3.9-16.4,5.2-24.8,6.9
		c-25,5.2-50.2,7.6-75.6,7.2c-1,0-2.1-0.3-3.1-0.4c-2-0.2-3.9-0.5-5.9-0.5C259.7,714.2,257.9,714.5,256.3,714.6z"/>
	<path class="st0" d="M132,660c12.4-5.5,24.7-10.9,37.1-16.4c0.8-0.3,1.9-0.5,2.2-1.1c1.4-2.9,4-2.8,6.8-2.9
		c0.9,3.2,3.3,4.5,6.3,5.6c4.5,1.7,8.3,4.5,9.8,9.7c3.5,12.5,2.3,24-5.8,34.6c-3.7,4.9-8.6,6-14.2,4.7
		c-18.7-4.6-32.7-15.3-41.6-32.5C132.4,661.2,132.3,660.8,132,660z"/>
	<path class="st0" d="M411.6,686.8c2.9-12.4,7.8-24.6,4.5-37.8c0.1-0.1,0.4-0.4,0.6-0.5c1.3-0.9,2.6-1.7,4.2-2.8
		c9.8,12.7,22.5,20.2,38.7,21.5c-8.4,12.4-18.2,22.6-33.7,25.5c-3.3,0.6-6.1,0.3-8.7-2C415.6,689.1,413.5,688.1,411.6,686.8z"/>
	<path class="st0" d="M147.6,140.3c2.4-0.2,4.9-0.7,7.4-0.6c22,0,44,0,66,0.2c40,0.4,80,0.9,120,1.2c27.3,0.2,54.6-0.1,81.9-0.2
		c7.8-0.1,15.6-0.6,23.4-1c0,0.3,0.1,0.6,0.2,0.9c-6.1,1-12.2,2.6-18.4,3c-63.2,3.5-126.5,1.1-189.7,1.6
		c-15.7,0.1-31.4-1.1-47.1-1.7c-8-0.3-16-0.3-24-0.7c-6.5-0.3-13-1.1-19.5-1.6C147.6,141,147.6,140.6,147.6,140.3z"/>
	<path class="st0" d="M215.1,699.8c0.3-2.8,0.4-5.6,0.9-8.3c1.1-5.7,4.2-7.9,10.1-7.4c5.7,0.5,11.4,1.5,16.1,5
		c1.6,1.2,3.2,2.8,4,4.5c3.4,7.2,4.2,14.8,2.4,22.5c-0.8,3.2-2.6,6.3-4.5,9.1c-2.5,3.5-7.2,4.2-11.7,2.5c-9.6-3.6-17-14.1-17.1-24.4
		c0-1.2,0-2.3,0-3.4C215.3,699.8,215.2,699.8,215.1,699.8z M220.6,702.7c0.2,5.1,0.4,9.8,4.8,11.6c7.7,3.4,14.3,2.3,15.8-7.3
		c0.3-1.8,0.3-3.7,0.1-5.6c-0.5-5.7-5-9.5-11.1-10.4c-3.4-0.5-7.9,4.1-8.9,7.9C220.9,700.4,220.8,702,220.6,702.7z"/>
	<path class="st0" d="M308.9,614.5c-4.2,0-7.9,0.1-11.5-0.1c-0.6,0-1.6-1.7-1.6-2.6c0.1-6.3,0.3-12.7,0.6-19
		c0.5-10.4,0.9-20.8,1.6-31.2c0.1-2.1,1.2-4.2,2.1-7.1c1.1,1.3,1.6,1.9,2,2.5c0.8,1.4,1.5,3,2.4,4.4c4.4,6.6,6.7,13.2,4.6,21.5
		c-1.3,5.3-0.3,11.2-0.3,16.8C308.9,604.5,308.9,609.4,308.9,614.5z"/>
	<path class="st0" d="M379,700.9c0-7.8,0.1-15.3-0.1-22.9c-0.1-1.8-1.2-3.7-2.1-5.5c-1.2-2.3-0.3-3.6,1.7-4.5s4.1-2,5.8,0.5
		c0.5,0.8,0.8,1.7,0.9,2.6c1.1,8.1,1.5,16.2,0,24.2C384.2,700.5,383.2,701.5,379,700.9z"/>
	<path class="st0" d="M210.4,706.8c-5.7-4.4-10.8-8.2-15.6-11.8c2.1-4.3,4.2-8.3,6.2-12.4c3.2,1.5,6.6,3.2,9.4,4.5
		C210.4,693.4,210.4,699.7,210.4,706.8z"/>
	<path class="st0" d="M391.6,693.4c0.1-9.5,3.4-19.2-2.5-28.6c3.2-1.4,6.4-2.8,9.7-4.3c1.2,9.5,1,18.8-1.4,28
		C396.5,691.7,395,693.3,391.6,693.4z"/>
	<path class="st0" d="M192.7,697.5c1.5,2.3,3.4,5,5.4,8.1c-1.3,1.2-2.8,2.8-4.4,4.3c-3.9,3.7-9.6,2.2-11.6-2.7
		c-0.8-1.9-2.2-3.6-3-4.9C183.2,700.8,187.9,699.2,192.7,697.5z"/>
	<path class="st0" d="M409.5,650c1.1,11.6,0.6,22.8-3.4,33.4c-0.3,0-0.7-0.1-1-0.1c0.2-3,0.8-6,0.7-9c-0.2-5.4-0.8-10.7-1-16.1
		c0-1.3,0.6-2.8,1.3-3.9C407,652.7,408.4,651.4,409.5,650z"/>
	<path d="M170.9,358.2c-8.5,0-17.1,0.1-25.6,0c-6.4-0.1-10.8-4.1-14.6-8.6c-14.7-17.9-5.4-46,17.4-50.4c13.5-2.6,27.5-4.1,41.1,0.8
		c3.6,1.3,6.6,3.2,8.8,6.6c8.5,13.6,9.5,27.5,2.5,42.1c-3,6.2-8.2,7.7-13.7,8.8c-5.2,1-10.5,1.1-15.8,1.6
		C171,358.8,170.9,358.5,170.9,358.2z"/>
	<path d="M170.1,320.3c0,0.7-0.1,1.5,0,2.2c0.3,2.6,2.9,5.3,5.5,5.7c3.6,0.5,5.5-0.5,6.9-3.7c1.5-3.3,1.1-6.7,0.2-10.1
		c-0.6-2.5-2.5-3.1-4.4-3C173.7,311.6,170.1,315.7,170.1,320.3z"/>
	<path d="M405.2,328.8c0.1-11,4-20,12.4-27.5c3.1-2.8,5.9-2.9,9.4-2.8c12,0.6,23.9,1.1,35.9,1.4c5.4,0.1,10.4,0.7,15,3.9
		c5.2,3.6,7.3,8.5,7.7,14.5c0.8,12.2-1.9,23.4-10.5,32.6c-3.6,3.8-7.3,6.6-13.5,6.1c-14-1-28.1-1-42.1-1.5c-1.7-0.1-3.8-1.1-5.1-2.4
		C408.2,347,405.2,338.6,405.2,328.8z"/>
	<path d="M461.4,322.2c3.3,0.4,6.9-0.4,8-4.9c0.5-1.8,0.7-4.4-0.3-5.7c-1.7-2.1-4.1-4.4-7.5-3.2c-2.3,0.9-4.6,1.9-6.6,3.3
		c-1,0.7-1.9,2.2-2,3.5C452.7,320.1,455.2,322.3,461.4,322.2z"/>
	<path d="M329.5,417.1c-4.3-1.6-9-2.8-13-5c-4.9-2.7-9.2-6.3-13.9-9.6c-1.7,1.7-3.6,4-5.9,5.7c-11.4,8.3-23.9,11.1-38,8.5
		c-10.8-1.9-19.2-6.8-22.2-17.4c-5.2-18.5-1-35.2,13.3-48.4c9.1-8.4,20.2-13.6,33.1-12.7c2.2,0.1,3.6-0.6,5.1-2.2
		c7.4-7.9,17-9.5,27-8.2c6,0.8,10,4.8,11.8,10.8c0.3,1.1,0.6,2.2,1,3.6c1-0.3,1.8-0.5,2.7-0.8c17.1-6.1,32-1.5,44.9,10.1
		c12.6,11.3,12.2,25.7,7.8,40.4c-1.4,4.8-4.3,9.2-7.1,13.4c-5.8,8.4-14.2,12.2-24.4,12.1c-6.8-0.1-13.5-0.4-20.3-0.6
		C330.9,416.8,330.2,416.9,329.5,417.1L329.5,417.1z"/>
	<path d="M319.2,350c-3.3,1.1-6.1,2.5-7.1,6.1c-0.2,0.7-1.5,1.3-2.3,1.4c-0.6,0.1-1.8-0.5-1.9-1.1c-1.8-6.2-6.7-9-12.3-10.1
		c-11-2-21.7-1.2-32.1,4.2c-13.2,6.8-20.7,17-22.2,31.6c-1.4,14.2,4.8,24,17.5,26.8c5.5,1.2,11.6,1.2,17.3,0.6
		c9.5-1,17.4-5.9,24.2-12.5c2.5-2.4,4.8-2.4,7.4,0c5.2,4.8,11.3,8.2,18.1,9.9c9.9,2.5,20,2.3,30,1.4c8.5-0.7,14.5-5.6,18-13.1
		c1.8-4,3.3-8.4,3.6-12.8c0.8-9.8-0.5-19.3-8.3-26.4c-10.4-9.5-23-10.3-36-7.6c-2.4,0.5-4.7,1.7-6.8,3
		C322.5,353.7,321.5,353.7,319.2,350z"/>
	<path d="M320.7,341.7c0.3-3.2-1.3-6.1-5.2-6.9c-6.6-1.2-13.2-1.1-19.5,2c-0.6,0.3-1,0.9-1.6,1.3c0.6,0.5,1,1.2,1.7,1.5
		c5.1,2.4,11.1,3.2,13.7,9C313.5,346.2,316.8,344.1,320.7,341.7z"/>
	<path d="M80.3,167.7c7-0.1,13.7,1.1,19.9,4.3c2.1,1.1,4.2,2.9,5.7,4.8c2.9,3.6,2.7,6.1-0.3,9.7c-6.1,7.2-9,16.1-12.9,24.4
		c-4.7,9.9-9.6,19.8-14.6,29.6c-0.6,1.1-2.4,2.1-3.7,2.1c-2.7,0.1-5.4-0.3-8-0.9c-8.9-2.1-17.9-4.2-24.9-10.6
		c-7.5-6.8-10.6-15.4-10.1-25.4c1-18.6,14.3-31.3,29.5-35.2c6.4-1.6,13-2.5,19.5-3.7C80.2,167.2,80.2,167.4,80.3,167.7z"/>
	<path d="M98.4,182.1c-3-2.9-6.3-4.6-10.2-4.7c-5.7-0.2-11.4-0.2-17.2-0.3c-10.5-0.1-19,3.9-25.3,12.3c-4.4,5.9-6.6,12.8-6.8,19.8
		c-0.2,6.9,3.8,12.6,9.2,17c6.5,5.4,14.4,6.5,22.4,7.5c3.6,0.4,5.3-0.7,6.8-4.3C83.8,213.5,88.8,196.9,98.4,182.1z"/>
	<path d="M512.4,163c16.8-0.2,30.2,5.6,39.7,18.9c13.8,19.2,8.5,40.4-5.4,52.3c-3.1,2.6-6.2,5.4-9.7,7.3c-2.6,1.5-5.8,1.8-8.8,2.6
		c-0.5,0.1-1,0-1.6,0c-5.7,0.1-5.8,0.2-7.7-5.3c-3.3-9.3-6.1-18.7-9.8-27.8c-4.2-10.2-10.6-19.1-18.5-26.8c-6.3-6.1-6.1-9.8,1-15.1
		C497.1,165,502.5,162.6,512.4,163z"/>
	<path d="M524.3,236.6c3.5-1.1,6.7-1.6,9.3-3.1c17.7-10.4,26.2-33.5,8.2-52.2c-9.6-9.9-21.8-12.8-35.3-10.5
		c-5.4,0.9-10,3.3-13.8,7.6C510.8,193.6,520.1,213.4,524.3,236.6z"/>
	<path d="M329.5,417c2.1,1.2,1.9,2.7,0.9,4.6c-1.8,3.4-4.5,5.9-8.1,6.9c-10.4,3.1-20.8,3.6-30.9-1.2c-1.4-0.7-2.9-1-4.4-1.5
		c-4.1-1.4-6.2-4.4-7.3-8.9c0.9,0.2,1.6,0.2,2,0.4c13.6,7.4,27.6,8.1,41.9,2C325.5,418.5,327.5,417.9,329.5,417
		C329.5,417.1,329.5,417,329.5,417z"/>
	<path d="M308.3,131.2c-14.8-1-30.7-5.8-43.3-18.6c-24.9-25.3-10.1-58.1,10.9-68.9c8.6-4.5,17.6-6.5,27.1-7.4
		c6.4-0.6,12.7-0.9,18.8,1c12.2,3.8,23.1,9.8,31.5,19.7c16,18.8,10.5,44.6-3.8,58.6C338.8,126.1,325.8,131.1,308.3,131.2z"/>
	<path d="M314.1,128.1c1.5-0.1,3.9-0.2,6.3-0.6c8.9-1.4,16.5-5.5,23.4-11.1c17.4-14.2,21.8-38.1,8.1-56.2
		c-5.6-7.5-13.3-12.5-21.6-16.5c-9-4.3-18.6-5.2-28.5-4.5c-16.3,1.2-30.1,7-39.6,20.9c-5.9,8.6-9,18.1-7.2,28.6
		c2,12.2,9.3,21,18.8,28C285.4,125.3,299.1,127.5,314.1,128.1z"/>
	<path d="M244.3,533.7c0.5,1,1.4,2,1.3,2.8c-0.4,4.3-2.4,7.9-5.8,10.6c-0.5,0.4-1.6,0.3-2.2,0c-0.4-0.2-0.9-1.3-0.7-1.7
		c1.6-3.5,3.3-6.9,5.1-10.3C242.3,534.7,243.2,534.4,244.3,533.7z"/>
	<path d="M274,542.9c0.4,2.1,1.3,4.4,0.9,6.4c-0.6,3.1-2,6-3.3,8.9c-0.3,0.7-1.9,0.7-2.9,1c-0.1-0.9-0.6-1.9-0.4-2.7
		c1.3-4.5,2.8-9,4.2-13.6C273,542.9,273.5,542.9,274,542.9z"/>
	<path d="M257,539.5c1.8,4.4,0.9,8.4-1.4,12c-1.1,1.7-2.8,3-4.4,4.3c-0.4,0.3-1.5,0.3-1.9,0c-0.3-0.2-0.4-1.3-0.1-1.8
		c2.2-4.7,4.5-9.3,6.8-13.9C256.1,540,256.5,539.9,257,539.5z"/>
	<path d="M344.4,539.1c2.9,3.8,5.6,7.4,8.3,11c0.3,0.4,0.2,1.5-0.1,1.6c-0.5,0.3-1.3,0.4-2,0.3C344.3,550.7,341.8,545.6,344.4,539.1
		z"/>
	<path d="M365.8,545.7c-2.2,0.8-3.7,0-4.2-2.2c-0.8-3.3-1.5-6.6-2.2-9.9C364.4,533.1,367,540.6,365.8,545.7z"/>
	<path d="M331.4,545.3c1.1,1,2,1.5,2.5,2.2c1.5,2.4,3,4.9,4.4,7.5c0.3,0.5,0.2,1.3,0.2,1.9c-0.7,0-1.5,0.3-2,0
		C333.4,555.4,330.8,550,331.4,545.3z"/>
	<path d="M220.6,702.7c0.1-0.7,0.3-2.3,0.7-3.8c1.1-3.8,5.5-8.4,8.9-7.9c6.1,0.9,10.6,4.8,11.1,10.4c0.2,1.8,0.2,3.8-0.1,5.6
		c-1.5,9.6-8.1,10.7-15.8,7.3C221.1,712.5,220.8,707.8,220.6,702.7z"/>
	<path d="M225.9,704.3c0.3,1.3,0.3,3.3,1.3,4.5c1.1,1.3,3.1,2,4.9,2.5c0.8,0.2,2.5-0.9,2.8-1.7c1-2.8,1.9-5.6,0.8-8.7
		c-0.9-2.4-3-4.2-5.7-4.2c-2.8,0-2.8,2.3-3.5,4C226.1,701.7,226.1,702.8,225.9,704.3z"/>
	<path class="st0" d="M170.1,320.3c0-4.5,3.7-8.7,8.2-8.9c2-0.1,3.8,0.6,4.4,3c0.9,3.4,1.3,6.7-0.2,10.1c-1.4,3.2-3.3,4.2-6.9,3.7
		c-2.6-0.4-5.2-3.1-5.5-5.7C170,321.7,170.1,321,170.1,320.3z"/>
	<path class="st0" d="M461.4,322.2c-6.2,0.1-8.7-2.1-8.3-7c0.1-1.2,1-2.8,2-3.5c2-1.4,4.3-2.5,6.6-3.3c3.3-1.2,5.8,1,7.5,3.2
		c1,1.2,0.7,3.9,0.3,5.7C468.3,321.8,464.7,322.6,461.4,322.2z"/>
	<path class="st0" d="M319.2,350c2.3,3.7,3.3,3.7,7.1,1.5c2.1-1.3,4.4-2.5,6.8-3c13.1-2.7,25.6-1.8,36,7.6
		c7.8,7.1,9.1,16.6,8.3,26.4c-0.4,4.3-1.8,8.8-3.6,12.8c-3.5,7.6-9.5,12.4-18,13.1c-10.1,0.9-20.1,1.1-30-1.4
		c-6.9-1.8-12.9-5.1-18.1-9.9c-2.6-2.3-4.9-2.3-7.4,0c-6.9,6.6-14.7,11.5-24.2,12.5c-5.7,0.6-11.7,0.6-17.3-0.6
		c-12.7-2.8-18.9-12.6-17.5-26.8c1.4-14.6,9-24.8,22.2-31.6c10.5-5.4,21.1-6.2,32.1-4.2c5.6,1,10.5,3.9,12.3,10.1
		c0.2,0.5,1.3,1.2,1.9,1.1c0.9-0.1,2.1-0.8,2.3-1.4C313.1,352.5,315.8,351.1,319.2,350z"/>
	<path class="st0" d="M320.7,341.7c-3.9,2.5-7.2,4.6-10.9,6.9c-2.6-5.8-8.6-6.7-13.7-9c-0.7-0.3-1.1-1-1.7-1.5c0.5-0.4,1-1,1.6-1.3
		c6.2-3,12.9-3.2,19.5-2C319.4,335.5,321,338.5,320.7,341.7z"/>
	<path class="st0" d="M98.4,182.1c-9.7,14.8-14.7,31.4-21.2,47.3c-1.5,3.6-3.2,4.8-6.8,4.3c-8-1-15.9-2-22.4-7.5
		c-5.3-4.5-9.4-10.2-9.2-17c0.2-7,2.4-13.9,6.8-19.8C52.1,181,60.5,177,71,177.1c5.7,0.1,11.4,0.1,17.2,0.3
		C92.1,177.6,95.4,179.2,98.4,182.1z"/>
	<path class="st0" d="M524.3,236.6c-4.2-23.1-13.5-43-31.5-58.2c3.8-4.3,8.4-6.7,13.8-7.6c13.4-2.3,25.7,0.6,35.3,10.5
		c18,18.6,9.5,41.8-8.2,52.2C531,235,527.7,235.5,524.3,236.6z"/>
	<path class="st0" d="M314.1,128.1c-15-0.6-28.7-2.8-40.4-11.4c-9.5-7-16.8-15.8-18.8-28c-1.7-10.5,1.4-20,7.2-28.6
		c9.5-13.9,23.3-19.7,39.6-20.9c9.9-0.7,19.5,0.2,28.5,4.5c8.3,4,16,9.1,21.6,16.5c13.7,18.1,9.3,42-8.1,56.2
		c-6.9,5.6-14.5,9.7-23.4,11.1C318,127.9,315.6,128,314.1,128.1z M305.8,45.4c-17.6-0.2-28.5,4-36.6,14.4
		c-9.3,11.8-10.8,29.1-3.4,41.3c9,14.9,23.1,21,39.8,21.5c16.7,0.6,29.7-7.7,39.9-19.9c8.3-10,12.3-28.9-2.8-41.2
		C330.6,51.7,316.7,46.2,305.8,45.4z"/>
	<path class="st0" d="M225.9,704.3c0.2-1.5,0.2-2.6,0.5-3.6c0.7-1.7,0.7-4,3.5-4c2.7,0,4.8,1.8,5.7,4.2c1.1,3.1,0.2,5.9-0.8,8.7
		c-0.3,0.8-2,1.9-2.8,1.7c-1.8-0.4-3.8-1.2-4.9-2.5C226.2,707.6,226.2,705.5,225.9,704.3z"/>
	<path d="M305.8,45.4c10.9,0.8,24.9,6.3,36.9,16.1c15,12.3,11,31.2,2.8,41.2c-10.2,12.2-23.1,20.5-39.9,19.9
		c-16.7-0.6-30.8-6.6-39.8-21.5c-7.5-12.3-5.9-29.6,3.4-41.3C277.3,49.4,288.1,45.2,305.8,45.4z"/>
	<path d="M308.9,120.5c8.6,0.8,28.1-10.3,34.7-19.4c7.6-10.5,9.7-28.3-4-38.8C328,53.4,315,47.8,300.2,47.9
		c-15,0.2-26.6,6-32.9,20.3c-5.5,12.7-5.2,24.8,3.7,36.1C279.8,115.3,291.6,119.6,308.9,120.5z"/>
	<path class="st0" d="M308.9,120.5c-17.2-0.9-29.1-5.2-37.8-16.2c-9-11.2-9.2-23.4-3.7-36.1c6.2-14.3,17.9-20.2,32.9-20.3
		c14.8-0.1,27.8,5.5,39.3,14.3c13.8,10.5,11.6,28.3,4,38.8C337,110.2,317.5,121.3,308.9,120.5z"/>
	<path d="M304.9,105.9c-3.4,3.3-6.9,5.7-11.8,5.8c-4.7,0.1-8.5-1.8-11.8-4.8c-3.2-2.9-6.4-6.1-8.9-9.6c-1.7-2.4-3-5.5-3.3-8.4
		c-0.4-3.8,2.7-6.1,5.9-4.8c1,0.4,1.9,1.7,2.4,2.8c0.6,1.4,0.6,3.1,1.3,4.5c0.5,1.1,1.7,2.7,2.4,2.6c1.5-0.2,3.1-1.2,4-2.3
		c0.5-0.6-0.1-2.4-0.6-3.4s-1.4-1.8-2.2-2.6c-5.8-5.1-8.1-11.4-6-18.8c2-7.4,7.3-12.2,14.6-14c9.1-2.2,18.2-1.7,26.9,1.9
		c8.6,3.6,14.9,14.7,13.5,23.6c-0.6,3.8-2.5,6.8-5.3,9.3c-1,0.9-2.3,1.6-3.1,2.6c-0.8,1-1.9,2.5-1.6,3.5c0.5,2.1,2.7,2.8,4.5,2.1
		c1-0.3,1.8-1.8,2.4-2.9c0.3-0.6,0.2-1.4,0.3-2.2c0.5-4.1,2.4-5.7,6.4-5.4c3.4,0.2,5.8,2.9,5.8,6.4c-0.1,3.9-2.1,6.5-5.4,8.6
		c-1.6,1-3.1,2.3-4.3,3.8c-5.8,6.9-14.9,9.1-24,3.2C306.3,107,305.6,106.4,304.9,105.9z"/>
	<path d="M273.8,85.4c-2.3,3.8-2.3,6.6,0.1,9.1c4,4.2,8.2,8.3,12.4,12.3c1,0.9,2.5,1.4,3.9,1.8c5.7,1.4,9.6-1.5,13-5.5
		c1.6-1.8,2.9-1.9,4.1,0.1c4.7,7.5,17.1,4.8,21.3-0.6c1.8-2.3,3.2-4.7,6.1-5.9c1.1-0.5,2-2.1,2.6-3.3c1-2.2,0-3.4-2.2-4.2
		c-2.3-0.8-3,0.4-3.3,2.3c-0.2,1.3-0.7,2.6-1.2,3.9c-1.4,3.8-4.7,5.1-8.6,3.6c-3.3-1.3-5.1-4.9-3.5-8.2c0.8-1.8,2.3-3.5,3.9-4.7
		c6-4.6,7.6-10.2,4.3-16.9c-4.6-9.5-12.5-13.8-22.7-14.5c-6.8-0.5-13.6-0.3-19.2,4.4c-3.8,3.2-7.2,6.9-6.5,12.4
		c0.8,5.9,3.3,11.1,8.1,15c1,0.8,1.9,2.6,1.9,3.9c0,3.1-2.7,6-5.4,6.3c-4,0.5-5.9-0.6-7.3-4.6C275.1,90.2,274.6,88.2,273.8,85.4z"/>
	<path class="st0" d="M273.7,85.5c0.8,2.8,1.3,4.7,2,6.6c1.4,4,3.2,5.1,7.3,4.6c2.7-0.3,5.5-3.2,5.4-6.3c0-1.3-0.9-3.1-1.9-3.9
		c-4.8-3.9-7.3-9.1-8.1-15c-0.8-5.5,2.7-9.2,6.5-12.4c5.6-4.8,12.4-4.9,19.2-4.4c10.1,0.7,18.1,5.1,22.7,14.6
		c3.3,6.8,1.7,12.4-4.3,16.9c-1.6,1.2-3.1,2.9-3.9,4.7c-1.5,3.3,0.3,6.9,3.5,8.2c3.9,1.5,7.2,0.2,8.6-3.6c0.5-1.3,1-2.6,1.2-3.9
		c0.3-2,0.9-3.1,3.3-2.3c2.2,0.7,3.2,2,2.2,4.2c-0.6,1.3-1.5,2.9-2.6,3.3c-3,1.2-4.4,3.6-6.1,5.9c-4.2,5.4-16.6,8.1-21.3,0.6
		c-1.2-2-2.6-1.9-4.1-0.1c-3.4,4-7.3,6.9-13,5.5c-1.4-0.3-2.9-0.9-3.9-1.8c-4.2-4-8.4-8.1-12.4-12.3
		C271.4,92.2,271.4,89.3,273.7,85.5z M296.9,79.1c-1.3,2.1-1.3,2.8,0.1,4.1c3.5,3.4,11.2,3.5,14.6,0.1c0.5-0.5,0.5-1.4,0.7-2.1
		c-0.8-0.2-1.7-0.8-2.2-0.5C305.3,83.6,300.8,84,296.9,79.1z M293.8,74.1c0.3-2.2-1.3-2.9-2.8-2.6c-1.2,0.2-2.9,1.5-3,2.6
		c-0.3,1.7,0.8,3.2,3,3.1C292.9,77.1,294.1,76.3,293.8,74.1z M314.9,77.3c2.7-0.3,4.1-1.5,3.8-3.3c-0.2-1.1-2.2-2.8-2.9-2.6
		c-1.3,0.4-2.5,1.9-3,3.2C312.5,75,314.1,76.3,314.9,77.3z"/>
	<path d="M297,79c3.9,4.9,8.4,4.4,13.3,1.7c0.5-0.3,1.5,0.3,2.2,0.5c-0.2,0.7-0.2,1.7-0.7,2.1c-3.4,3.4-11.1,3.3-14.6-0.1
		C295.7,81.8,295.6,81.2,297,79z"/>
	<path d="M293.9,74c0.3,2.2-0.9,3-2.9,3.1c-2.2,0.1-3.3-1.4-3-3.1c0.2-1.1,1.9-2.3,3-2.6C292.6,71,294.2,71.8,293.9,74z"/>
	<path d="M315,77.2c-0.8-0.9-2.4-2.2-2.2-2.8c0.5-1.3,1.8-2.8,3-3.2c0.7-0.2,2.7,1.6,2.9,2.6C319.1,75.7,317.7,76.9,315,77.2z"/>
</g>
</svg>
