<?xml version="1.0" encoding="utf-8"?>
<!-- Generator: Adobe Illustrator 26.0.0, SVG Export Plug-In . SVG Version: 6.00 Build 0)  -->
<svg version="1.1" id="Capa_1" xmlns="http://www.w3.org/2000/svg" xmlns:xlink="http://www.w3.org/1999/xlink" x="0px" y="0px"
	 viewBox="0 0 595.3 816.4" style="enable-background:new 0 0 595.3 816.4;" xml:space="preserve">
<style type="text/css">
	.st0{fill:#FFFFFF;}
</style>
<g>
	<path d="M368.6,639.8c4.1,11.5,4.6,23.3,6.4,34.8c0.6,3.7,1.3,7.4,1.9,11.2c0.2,1.4,0.4,2.8,0.3,4.1c-0.3,5.5-1.2,6.4-6.6,6.9
		c-9.2,0.8-18.5,1.8-26.9,2.6c-1.3,3.3-2.5,6.2-3.5,9.1c-0.2,0.7-0.2,1.9,0.2,2.5c3.5,5,6.7,10.2,12.1,13.6
		c6.2,3.9,10.4,9.7,13.8,16.2c6,11.6,12.3,23,18.4,34.5c1.9,3.6,3.8,7.1,2.1,11.5c-1.9,4.9-4.9,8.7-9.9,10
		c-15.4,4.1-30.9,8-46.4,11.6c-5.7,1.3-11.6,1.2-17.4,2c-4.7,0.7-7.5-1.8-9.7-5.3c-5.7-8.7-5-17.8-1.5-26.9c1.3-3.3,3.5-6.2,5.2-9.3
		c0.4-0.7,0.8-1.8,0.6-2.4c-2-5.2-4.1-10.4-7.8-14.6c-4.8-5.4-3.8-6.7,0.2-12c-2.5-4.4-4.9-9-7.6-13.3c-2.5-3.8-2.9-7.8-2.1-12.1
		c0.7-3.5,1.3-7,1.9-10.6c0.1-0.9,0.1-1.8,0.2-2.7c-7.6,0-15,0-22.3,0c1,9.8,1.9,19.4,2.8,29.1c0.6,0,1.4-0.1,2.2-0.1
		c3.3,0,5,1.8,5,5.1c0,9-0.2,18,0.1,27.1c0.1,2.9,0.8,6,2,8.7c4.8,10.2,7.7,20.8,8,32.1c0.2,5.5-1.9,8-7,9.8
		c-9.9,3.5-20.2,3.8-30.5,3.5c-11.2-0.3-22.4-1.1-33.5-2.4c-9.1-1.1-11.6-6-11.1-15.3c0.5-8.4,4.6-15.7,9.4-22.5
		c2-2.9,2.1-6,1.9-9.1c-0.5-7.6-1.4-15.2-2.2-22.8c-0.3-3,0.9-5.2,3-7.3c1-1,1.9-2.6,1.9-3.9c0.1-6-0.2-12.1-0.3-18.1
		c-0.1-4.2,0-8.4,0-12.3c-10.7-1-20.7-2-30.7-3c-3.6-0.3-4.1-1.6-3.5-4.6c3.5-18.1,7.9-36,13.6-53.6c0.1-0.3,0.2-0.7,0.3-1
		c-3.2,0.8-6.3,1.8-9.5,2.2c-9.9,1.2-17.1-3.8-23.1-10.9c-6.1-7.2-8.5-15.8-9.9-25c-3.4-23.1,0-45.4,6.9-67.4
		c4-12.7,8.9-25.1,15.8-36.5c5.6-9.3,13-17.1,21.9-23.3c0.4-0.3,0.7-0.6,0.5-0.5c0-1.9,0-3.3,0-4.6c0.1-4.6,0.3-9.2,0.3-13.7
		c0-0.8-0.9-1.9-1.7-2.3c-20.2-9.1-39.6-19.7-58.1-31.7c-19.9-12.9-37.2-28.4-49.5-49.1c-1.1-1.8-2.1-3.6-3.3-5.8
		c-0.5,0.7-0.9,1.2-1.3,1.8c-8.9,14.4-21.4,22.3-38.6,22.2c-19.5-0.1-33.2-9.6-42.3-26.3c-9.9-18.2-11.2-37.8-8.1-57.9
		c2.3-15.6,8.2-30,15-44.1c11.8-24.4,26.9-46.5,43.8-67.6c10.7-13.4,22.4-25.9,35-37.5c18.2-16.9,38-31.5,60.1-43
		c0.1-0.1,0.3-0.2,0,0c-6.5-10.1-12.9-20.1-19.2-30.2c-2.9-4.6-5.5-9.3-10.3-12.3c-1.4-0.9-1.2-2.6,0.2-3.5
		c3.9-2.4,7.6-5.2,11.9-6.7c7.8-2.8,15.9-4.9,23.9-7.3c2.5-0.7,4.9-1.7,7.4-2c3.2-0.5,4.9-2.3,6.2-5c2.8-5.7,5.4-11.5,8.8-16.8
		c6.3-10,13.9-19,24-25.5C215.5,5,223.9,3,232.5,1c12.9-3,24,1.1,34.8,7.4c9.5,5.6,17.5,13.1,24.8,21.3c1.5,1.7,2.6,1.7,4.7,1.1
		c5.7-1.5,11.6-2.8,17.5-3.7c6.4-1,13-1.5,19.4-2.1c1.6-0.1,3.3,0.3,4.8,0.9c3.1,1.1,3.2,1.5,2,5.5c-1.9,6.5-3.8,13-5.5,19.6
		c-2.6,9.9-5,19.9-7.6,29.8c10.5,2.2,21.4,4.4,32.2,6.9c18.1,4.1,35.9,9,53.1,16.1c12.1,5,24.3,9.9,35.9,15.8
		c16.9,8.6,31.8,20.1,45.5,33.2c19.5,18.6,35.1,40.4,49.5,62.9c10.1,15.9,19.7,32.1,28.4,48.8c5.1,9.8,8.5,20.5,11.9,31
		c4.8,14.7,8.6,29.6,10.3,45c3.3,30.9-2.2,59.8-19.9,85.9c-6.7,9.9-16.7,15-27.8,18c-11.6,3.2-23.1,2.3-34.2-2.4
		c-13.2-5.5-19.6-18-16.4-32c0.9-3.9,1.8-7.8,2.7-11.8c0.1-0.4,0-0.9,0-2.1c-36.6,46.1-85.6,68.7-142.3,79.2c2,2.2,3.4,4.3,5.2,5.8
		c5.4,4.5,9.4,9.9,12.3,16.4c3.2,7.3,7.2,14.3,10.4,21.6c7.6,17.3,12.2,35.6,15.3,54.2c1.2,7.4,2.2,14.9,2.7,22.5
		c0.9,15.2-4.2,28.2-15.6,38.4c-4,3.6-9.1,4.2-14.1,4.9C371.5,639.4,370.2,639.6,368.6,639.8z"/>
	<path d="M366,168.5c2,9,0.7,17.7-2.4,26.2c8.4,2.2,18.6,7.7,25.4,12.5c11.7,8.4,23.5,16.8,35.7,24.4c28,17.6,56.2,34.8,84.3,52.2
		c0.6,0.4,1.3,0.7,2,1.1c-0.2-1-0.6-1.5-1-2.1c-15.1-22-34.5-39.5-56.4-54.5c-14.5-9.9-28.7-20.2-43-30.4
		c-9.4-6.7-18.5-13.9-28.1-20.5c-5.1-3.5-10.9-6.1-16.3-9c0.2-1.7,0.9-2.3,2.6-1.5c1.5,0.7,3.1,1.2,4.6,1.8
		c10.8,4.3,20.5,10.5,29.9,17.3c21.4,15.6,43.3,30.5,64.8,46c9,6.5,17.6,13.6,26,20.9c8,7,14.2,15.7,20.1,24.4
		c1.6,2.4,1.8,5.6,2.5,8.5c0.1,0.7-0.6,2.1-1.1,2.2c-0.8,0.2-1.8-0.4-2.7-0.8c-0.7-0.4-1.3-1-2-1.4c-9-4.5-18.5-8.2-26.9-13.6
		c-12.8-8.1-25.9-15.6-39.2-22.9c-16.1-8.7-31.7-18.4-47.4-27.9c-9.3-5.7-18.2-12-27.4-17.9c-2.5-1.6-5.2-2.9-7.4-4.1
		c-2.5,6.4-4.8,12.4-7.3,18.4c-1.4,3.3-0.9,5.2,2.3,6.9c3.3,1.8,6.6,3.5,9.8,5.5c11.8,7.3,23.4,14.9,35.3,22
		c9.8,5.8,19.5,11.8,29.8,16.5c19.7,9.1,39.8,17.3,59.6,26.2c11.7,5.2,20.8,13.3,26.4,25.1c1,2.1,2.1,4.2,3.5,7.1
		c1.5-4.4,3-7.9,4.1-11.6c2.5-8.9,1.2-17.9,0.7-26.9c-0.7-12.9-1.8-25.7-2.9-38.5c-1.1-12.1-2.2-24.2-5.5-35.9
		c-1.2-4.1-2.5-8.2-3.8-12.4c0.7,0.4,1.1,0.9,1.4,1.4c4.7,8.2,8.3,16.9,10.8,26.1c2.7,10,3,20.3,4,30.6c1.6,15.4,2.9,30.8,1.9,46.3
		c-0.4,6.4-1,12.9-2.7,19c-1.2,4.4-3.3,8.2-3,13.2c0.2,3.3-1.9,6.8-3.4,10c-5.6,12-11.3,23.9-17,35.8c-0.3,0.5-0.3,1.2-0.3,1.9
		c0.2,9.4-1.1,18.5-3.3,27.6c-2.2,9.2,3.1,18.6,12,21.8c6,2.1,12.1,3.7,18.6,3.3c18.4-1,32.7-9.1,41-25.7c4.1-8.2,6.8-17.2,9.2-26.1
		c3.9-14.5,5.3-29.3,3.8-44.3c-1.2-12.4-4.1-24.4-7.4-36.4c-7.1-25.9-17-50.5-32-73c-12.8-19.1-24.5-39.1-39.9-56.4
		c-13.9-15.6-28.8-30-46.1-41.7c-18.5-12.5-38.7-21.5-59.9-28.4c-20.9-6.8-42-13-63.5-17.5c-6-1.3-11.9-3.5-18.6-1.8
		c-12.6,3.2-25.6,4.8-38.3,7.8c-23.5,5.7-46.9,12-70.4,18c-16.3,4.2-32.7,7.8-49.6,8.1c-0.8,0-1.6,0.6-2.3,1
		c-1.6,1.1-3.1,2.3-4.7,3.3c-8.3,5.2-16.8,10.1-24.9,15.7c-15.3,10.5-28.2,23.8-41.7,36.5c-11.3,10.7-22.2,21.8-31.1,34.6
		c-6.5,9.3-12.4,19.1-18.5,28.7c-9.4,14.7-18.6,29.6-23.9,46.4c-3,9.4-5.6,19-7.5,28.7c-2.5,13-0.7,25.8,3.2,38.4
		c3,9.4,7.4,18,15.2,24.4c6.7,5.4,14.4,8.4,22.7,9.8c8.8,1.5,17,0.3,24.2-5.5c6.4-5.1,10.3-12.1,14.6-18.9c0.4-0.6,0-1.9-0.4-2.8
		c-4.3-10.2-7.9-20.6-9.5-31.5c-1.9-12.8-4.5-25.5-3.6-38.6c-1.1-0.1-2.2-0.1-3.4-0.2c-0.1-0.5-0.2-0.8-0.2-1.2
		c-0.8-11.4-0.3-22.7,2.6-33.7c5.9-22.7,14.5-44.5,24.4-65.7c8.3-17.9,20.3-33.2,34-47.2c0.6-0.6,1.8-0.7,2.7-1
		c-0.2,0.9-0.1,2-0.6,2.7c-2.7,3.9-5.3,7.7-8.2,11.4c-20.8,26.9-34.2,57.2-42.6,90c-0.1,0.4,0,0.8,0,1.8c3.5-4.8,6.8-9,9.8-13.3
		c10.6-14.9,21.7-29.3,35.6-41.2c21.2-18.3,43.4-35.2,67.6-49.3c1.8-1.1,3.8-2,5.7-2.9c-3.6,3.8-7.4,7.3-11.4,10.3
		c-7.4,5.5-15.4,10.2-22.3,16.2c-13.2,11.4-25.8,23.5-38.6,35.4c-11.6,10.7-22.1,22.4-31.4,35.1c-5.2,7-9.8,14.5-17.1,19.7
		c-0.5,0.3-0.8,1-1,1.6c-1.3,6.1-2.6,12.1-3.8,18.3c0.4,0,0.7,0,0.8-0.1c0.7-0.5,1.3-1,1.9-1.5c9.7-8.2,20.5-14.6,32.3-19.1
		c22.9-8.6,42.8-21.9,60.3-38.8c19.5-18.8,35.7-40.3,50.7-62.7c1.9-2.9,4.4-5.4,6.7-8c0.4-0.5,1.4-0.9,2.1-0.8c1.4,0.3,2.7,1,4,1.5
		c6.7,2.7,13.4,5.4,20.1,8.1c6.2,2.4,12.4,4.8,18.7,7.3c3.7-2.9,7.5-5.8,11.4-8.8c-7.4-4.5-14.6-8.9-21.7-13.4
		c-1.6-1-2.8-2.6-4.1-3.9c0.7-0.5,1-0.5,1.2-0.4c10.8,5.4,22.2,9.1,33.7,12.5c0.9,0.3,1.9,0.1,2.9-0.2c6-1.4,11.9-3,17.9-4.3
		c3.3-0.7,6.1,0.8,6.6,3.1c0.5,2.3,1,4.8,0.6,7.1c-1.4,7.9-5.5,14.5-9.9,21c-2.8,4.1-5.7,8-8.4,11.7c6.1,3.9,11.9,7.7,17.2,11.1
		c4.7-5.8,9.6-11.8,14.3-17.6c-5-3.2-9.9-6.5-15-9.6c-1.8-1.1-2.3-2.5-1.7-4.9c1.4,0.1,2.9-0.1,4.1,0.5c5.5,2.8,10.9,5.7,16.2,8.8
		c1.3,0.8,2,0.7,3.1-0.2c5-3.9,10-7.8,15.1-11.5c2.8-2.1,5.3-1.8,7.8,0.9C364.8,167,365.4,167.8,366,168.5z"/>
	<path d="M232.3,153.8c-4.1,5.9-7.8,12-12.3,17.4c-12.8,15.6-25.7,31.2-39.1,46.4c-12.9,14.6-28.3,26.6-45.6,35.7
		c-11.8,6.2-24,11.5-35.9,17.4c-6.9,3.4-13.7,7.1-19.1,12.8c-1.1,1.2-1.4,2.2-1.2,3.9c0.8,5,1.3,10,1.8,15c1,9.2,1.6,18.5,3.2,27.6
		c2,11.5,5.3,22.8,10.7,33.2c9.8,18.7,23.4,34.5,40.3,47.3c15.9,12.1,32.9,22.5,50.7,31.5c16.7,8.5,33.9,15.6,51.8,21.1
		c12.6,3.9,25.3,7.1,38.4,8.2c11.4,0.9,22.9,1.1,34.4,1.3c14,0.2,27.9-1.5,41.6-3.9c17.8-3,35.2-7.2,52.1-13.6
		c15.7-6,31.1-12.8,44.8-22.8c13.9-10.1,26.7-21.6,38.5-34.2c8.3-8.9,15.6-18.6,20.5-29.9c3.8-8.8,6.8-17.8,10.2-26.8
		c0.9-2.3,2.6-4.5,0.2-7c-0.2-0.2-0.3-0.8-0.2-1.1c0.8-2.3-0.6-3.9-1.7-5.5c-2.1-3.1-4.1-6.4-6.5-9.2c-3.7-4.3-7-9.4-11.7-12.3
		c-14.5-9.1-30.1-16.2-46-22.6c-11.5-4.6-23-9-34.2-14.1c-16.9-7.8-31.6-19.3-46.9-29.8c-6.9-4.7-13.6-9.6-20.5-14.4
		c-1,0.9-2,1.7-2.9,2.6c-2.4,2.4-5.3,3.4-8.7,3.2c-12.4-1-21-10.9-20.2-23.3c0.1-0.8-0.1-2-0.6-2.4c-5.8-4.5-11.7-8.8-17.5-13.1
		c-11.5,8.2-17.5,8.8-25.4,2.7c-4-3-6.8-6.9-8.1-11.8c-1.5-5.6-0.6-10.7,2.7-15.6C256.3,164.7,243.9,160.1,232.3,153.8z"/>
	<path d="M347,490.1c-1.1,0.5-1.8,0.7-2.4,1c-5.2,2.4-10.3,5.4-15.7,7.2c-12.5,4.2-25.1,7.9-37.8,11.7c-1.2,0.4-3.3,0.2-4.1-0.6
		c-1.7-1.7-3.1-3.9-4.2-6c-2.7-5.3-5.1-10.7-7.7-16.3c-4.4,6.7-8.7,13.3-13.1,20c-16.9-6.3-34-11.9-49.2-22.2
		c-0.5,3.9-0.8,7.4-1.4,11c-2.7,15.4-4.7,30.9-5.4,46.5c-0.7,17.7,1.4,35,5.5,52.2c0.4,1.7,1.2,1.9,2.6,1.9
		c8.2-0.2,16.4-0.3,24.5-0.7c21.1-0.8,42.2-1.9,63.3-2.7c15.6-0.6,31.2-1.3,46.7-3.5c1.8-0.2,2.2-0.9,2.4-2.5
		c1.5-10.9,1.2-21.8,0.5-32.8c-1-17.3-2.1-34.7-3.2-52C348,498.4,347.4,494.4,347,490.1z"/>
	<path d="M197,682.6c0.9,0,2,0,3.1,0c13.1-0.4,26.2-1.2,39.4-1.3c20.1-0.1,40.3,0.2,60.4,0.5c12.2,0.2,24.4-0.4,36.6-1.9
		c10.5-1.3,21.1-2.4,31.7-3.6c0,0,0.1-0.2,0.1-0.4c-2-12-4-23.9-6.1-35.8c-0.1-0.8-0.8-1.7-1.5-2.1c-5.5-3.8-8.9-8.6-8.1-15.6
		c0-0.4,0-0.8,0-0.8c-23.6,3.1-47.3,4.3-70.9,5.1c-23.7,0.8-47.4,0.2-70.8,0.2C206.3,645.4,201.6,663.9,197,682.6z"/>
	<path d="M358,615.4c-0.1,2.2-0.4,4.3-0.4,6.5c0,5,2.2,8.6,6.9,10.5c4.5,1.8,8.8,1.4,13-0.8c1.4-0.7,2.8-1.6,4.3-1.6
		c2.1,0,3.5-0.8,4.6-2.4c1-1.4,2.1-2.8,3-4.2c6.6-10.5,7.4-22.2,6-34c-1-9.3-3.4-18.4-5-27.6c-4.7-27.9-15.9-53.1-31.3-76.5
		c-0.5-0.8-1.2-1.5-1.5-1.8c-3,2-5.7,3.9-8.1,5.5c0.7,2.5,1.9,5.1,2.2,7.8c1.5,15.1,2.7,30.2,4.2,45.4c1.7,17.1,2.2,36.3-1,55.5
		c-0.6,3.8,1,7.9,1.8,11.8c0.3,1.8,1.7,1.5,2.8,0.6c2.1-1.6,4.3-3.2,6.1-5.1c2-2.2,3.7-4.8,5.6-7.2
		C371.4,607.4,367.6,612.5,358,615.4z"/>
	<path d="M336,31.8c-1.7,1.2-3.4,2.6-5.4,3.6c-1.9,1-4.1,1.6-6.1,2.5c-21.9,9.8-45.1,15.5-68.4,20.5c-21.9,4.7-44,8.7-66,12.6
		c-15.1,2.7-30.3,5.3-45.7,4.6c-4.4-0.2-9,0.6-13.1-2c-0.4-0.3-1.6,0.4-2.3,0.8c-0.1,0.1,0.2,1.3,0.6,1.8c1.2,1.3,2.9,2.4,3.9,3.9
		c3.4,4.8,6.6,9.7,9.7,14.7c2.4,3.8,2.4,3.8,6.7,3.1c1.1-0.2,2.2-0.3,3.3-0.4c4.7-0.3,9.4-0.2,14-0.9c14.4-2.4,28.8-4.8,43.1-7.7
		c23.1-4.6,46.2-9.4,69.2-14.3c16.2-3.4,32.4-7.2,47.4-14.8c1-0.5,2.1-1.5,2.4-2.5C331.6,48.7,333.8,40.2,336,31.8z"/>
	<path d="M205.2,619.7c1.5-11.2,0.6-22.3-1.7-33.3c-1.4-6.8-3-13.7-3.6-20.6c-0.5-6,0.3-12.1,0.3-18.2c-0.1-16.2,1.3-32.3,4.2-48.3
		c1.1-5.9,2.6-11.8,3.9-17.5c-0.1,0.1-0.6,0.4-1,0.8c-2.9,2.8-5.7,5.6-8.5,8.5c-3.2,3.3-6.7,6.4-9.3,10.1
		c-9.6,13.8-15.7,29.2-19.4,45.6c-4.1,17.9-6.8,35.9-5.6,54.4c0.8,13,5.6,24,15.9,32.4c5,4,14.4,4.6,19.5-1.2
		c0.7-0.8,1.2-2.3,1.1-3.4c-0.6-6-3.1-11-7.2-15.4c-1.5-1.5-2.5-3.5-3.8-5.3c0.4-0.3,0.7-0.6,1.1-0.9
		C195.9,611.4,200.5,615.5,205.2,619.7z"/>
	<path d="M302.5,745.6c4.6,5.3,8,11.1,9.6,18c1,4.3,0.5,7.8-2.3,11.5c-6.7,8.8-6.7,18.8-0.5,27.9c0.6,0.9,1.7,1.9,2.7,1.9
		c2.9,0.2,5.9,0.3,8.8-0.3c7.8-1.5,15.6-3.1,23.3-5.1c12-3.2,23.6-7.4,34.5-13.3c0.9-0.5,1.7-1.9,1.8-2.9c0.1-4.2-1.5-7.9-3.6-11.4
		c-2.7-4.4-5.6-8.7-7.9-13.2c-4.9-9.5-10.5-18.5-17.9-26.3c-1.7-1.8-3.5-3.4-5.1-4.9c-4.5,2.2-8.6,3.9-12.6,6
		c-8.4,4.6-17.3,7.6-27,7.8c-0.8,0-1.8,0.8-2.4,1.5C303.3,743.5,303,744.6,302.5,745.6z"/>
	<path d="M223.6,740.5c0.7,7.4,1.2,14.7,2,21.9c1.1,8.8-0.6,16.8-6.7,23.5c-0.4,0.5-1,1-1.1,1.5c-1.2,3.8-2.4,7.6-3.3,11.5
		c-1.1,4.7,1.5,8.8,6,9.3c7,0.8,14.1,1.4,21.1,1.8c13.2,0.7,26.2-0.8,39.2-2.9c1.1-0.2,2.6-1.1,3-2c0.7-2,1.5-4.3,1.1-6.2
		c-1.6-6.3-3.1-12.7-5.7-18.6c-4.5-10.4-6.9-21.1-5.8-32.4c0.3-3.5,0.9-7,1.4-11.2C257.4,737.9,240.7,739.2,223.6,740.5z"/>
	<path d="M208.1,64.5c-12.6-8.8-13.4-28-3.3-38.9c7.3-7.9,16.3-12.3,27.3-11.7c16.8,0.9,32.2,18.4,21.9,37.4
		c-0.7,1.3-1.3,2.7-2.1,4.2c15.7-3.3,30.9-6.7,46.1-11.9c-1.5-2.5-2.5-4.9-4.1-6.8c-7.2-8.5-14.9-16.6-24.2-22.8
		c-6.2-4.1-12.6-8.1-20.1-9.2c-18.5-2.8-34.7,2.6-48.2,15.1c-12.7,11.8-20.8,27-27.4,42.8c-1,2.4-1.7,4.9-2.7,7.9
		C183.9,68.7,195.8,66.6,208.1,64.5z"/>
	<path d="M309.6,619.5c-6.8-10.4-1.5-16.4,7-21.4c-17.6,1.2-34.8,2.9-52,3.5c-17.3,0.6-34.6,0.1-51.8,0.1
		c-0.6,6.6-1.2,13.1-1.9,20.3C243.7,621.2,276.4,620.4,309.6,619.5z"/>
	<path d="M193.9,692.5c1.2,0.3,2.2,0.6,3.3,0.8c7.3,1.1,14.7,2.9,22,3c11.8,0.1,23.6-1.1,35.4-1.5c12.2-0.5,24.4-1,36.6-1
		c21.1,0,42.2-0.8,63.3-2.6c5.1-0.4,10.2-0.9,15.4-1.4c-0.2-1.6-0.6-3.1-0.5-4.5c0.3-2.9-1.3-3.2-3.5-2.9
		c-5.6,0.8-11.3,1.8-16.9,2.3c-12.8,1.1-25.6,2.4-38.4,2.9c-11.1,0.4-22.2,0-33.4-0.3c-8.3-0.2-16.5-1-24.8-1.2
		c-9-0.2-18,0.1-27,0.3c-10,0.2-19.9,3.7-30.1,1.1C194.8,689.3,194.4,690.9,193.9,692.5z"/>
	<path d="M335.9,699.9c-12,0.3-24.5,0.7-36.9,1.1c-0.6,0-1.6,1.1-1.7,1.8c-1,4.5-1.8,9-2.6,13.5c-0.2,1.1-0.1,2.4,0.4,3.4
		c2.3,4.6,4.7,9.1,7.3,13.6c0.5,0.9,2.1,1.8,3.2,1.8c7.3,0.2,14.1-2.1,20.7-4.9c5-2.2,9.7-5,14.8-7.7c-2.1-2.5-4.1-4.7-5.8-7.1
		c-0.8-1.1-1.5-2.7-1.4-3.9C334.3,707.6,335.2,703.8,335.9,699.9z"/>
	<path d="M225.6,702.1c0.9,11.1,1.9,21.9,2.8,32.9c12.8-1.3,25.1-2.6,38.1-3.9c0-9.8,0-19.5,0-29
		C252.7,702.1,239.1,702.1,225.6,702.1z"/>
	<path d="M339.9,227.6c2.8,0.7,5.1-0.8,6.9-3.2c2.1-2.8,4.6-5.6,6.1-8.7c4.7-9.8,7.6-20.2,10-30.7c1.1-5,1.6-9.7-0.4-14.6
		c-1.5-3.6-2.5-4.1-5.6-1.7c-5.9,4.4-11.7,8.8-17.2,13.6c-6.1,5.4-11.5,11.4-15.1,18.7c-0.6,1.2-1.4,2.4,0,3.7
		c0.3,0.3-0.2,2.1-0.6,2.2c-2.7,0.8-2.4,3-2.4,4.9C321.4,220.2,329.8,227.6,339.9,227.6z"/>
	<path d="M324,76.4c-4.4,1.2-8.4,2.5-12.4,3.4c-22.1,4.9-44.2,9.9-66.4,14.6c-15.4,3.2-30.8,6.1-46.2,8.8
		c-12.6,2.2-25.2,3.9-37.8,5.8c-2.5,0.3-5,0.1-7.7,0.1c2.3,5.4,7.2,9.3,11.2,8.8c7.7-0.9,15.6-1.7,23.1-3.3
		c15.4-3.5,30.8-7.6,46.1-11.4c15.6-3.9,31.3-7.8,47-11.5c12.8-2.9,25.6-5.4,37.6-7.9c1-1.2,1.5-2.5,2.1-2.6
		C323.5,81.1,324,79.2,324,76.4z"/>
	<path d="M268.9,177.8c0.6,5.6,2.7,10.1,6.5,13.8c6.4,6.1,12.8,6.4,19.7,0.9c2-1.6,3.8-3.5,5.3-5.5c4-5.4,8-10.8,11.4-16.6
		c2.6-4.4,5.1-9.2,6.4-14.2c1.5-6,0.8-8.3-6.6-6.7c-6.7,1.4-13.1,3.6-19.5,6.3c-8,3.4-14.8,8.1-20,14.9
		C270.5,172.7,269.9,175.4,268.9,177.8z"/>
	<path d="M327.6,63.9c-0.9,0.2-1.3,0.3-1.7,0.5c-6.4,2.3-12.7,5.1-19.2,6.7c-17.2,4.3-34.4,8.5-51.7,12.2
		c-20.6,4.4-41.2,8.4-61.9,12.2c-11.3,2.1-22.7,3.5-34,5c-3.7,0.5-7.4,0.6-11.5,0.9c1.3,2,2.5,3.7,3.5,5.2c6.3-0.7,12.5-1,18.5-2
		c10.9-1.8,21.9-3.8,32.8-5.8c14.2-2.6,28.5-5,42.7-8c17.5-3.7,34.9-7.8,52.3-11.9c8.8-2.1,17.6-4.4,26.3-6.7
		c0.8-0.2,1.9-0.8,2.1-1.4C326.6,68.7,327,66.4,327.6,63.9z"/>
	<path d="M209.9,461.7c0,2,0.6,4.5-0.1,6.5c-1.9,5.3,1.6,7.4,4.9,9.9c0.4,0.3,0.9,0.7,1.3,1c7.4,3.8,14.8,7.7,22.2,11.4
		c4.6,2.3,9.3,4.5,14,6.6c1.7,0.8,3.7,1,5.5,1.7c1.5,0.6,2.3,0.2,3.1-1.2c2.9-4.8,5.9-9.5,8.9-14.2c1.2-1.9,2.6-3.7,4-5.7
		c-8.2-1.3-16-2.5-23.9-3.7c0.5,1.5,1.2,2.5,2.2,3.3c2.6,2.4,3.3,4.6,1.3,7.3c-1.4,2-3.8,3.4-5.8,4.8c-0.4,0.3-1.6-0.1-2.1-0.6
		c-0.3-0.3-0.3-1.5,0-2c1.4-2,3-3.9,4.6-6c-1.2-2.5-5.7-3.5-4-7C233.8,469.8,221.8,465.7,209.9,461.7z"/>
	<path d="M351.6,476.4c-24.2,3-48.5,3.6-73.1,1.3c0.3,1,0.5,1.4,0.6,1.8c2.6,5.6,5.2,11.1,7.8,16.7c2.8,6.2,2.8,6.2,9.2,4.3
		c4.9-1.5,9.9-3,14.9-4.6c-2.8-2-5.3-3.6-7.6-5.5c-1.8-1.4-1.6-3.2,0.2-4.3c2.6-1.6,5.2-3.4,7.8-5c0.7-0.4,2-0.5,2.6,0
		c0.5,0.3,0.6,1.9,0.2,2.5c-1.1,1.7-2.5,3.3-3.9,4.9c1.6,2,4.3,3.7,1.6,7.2c2.5-0.8,4.4-1.5,7.1-2.3c-1.1-0.4-1.3-0.5-1.5-0.6
		c-2.3-0.4-3.5-1.9-3.9-4c-0.5-2.2,0.9-3.2,2.5-4.1c1.2-0.7,2.5-1.3,3.5-2.2c1.7-1.4,2.9-1.1,4.1,0.8c-0.7,0.8-1.5,1.6-2.1,2.5
		c-0.4,0.5-0.8,1.5-0.5,1.9c0.8,1.6,1.9,3,2.9,4.5C334.2,489.3,343.6,484.3,351.6,476.4z"/>
	<path d="M200.7,45c0.5,2.4,0.7,5,1.6,7.2c3.1,8.2,7.4,11.3,16.6,10.1c8-1,15.8-3.3,23.8-4.6c3.4-0.6,5.5-2.2,7.3-5
		c7.6-11.5,4.9-24.6-6.9-31.6c-8.7-5.1-17.6-4.8-26.6-0.5C206.5,25.4,200.2,35.2,200.7,45z"/>
	<path d="M322.3,597.8c-0.1,0.2-0.2,0.4-0.2,0.6c4.6,0.7,7.5,3,8.2,7.5c0.7,4.3-0.5,8-2.9,11.7c8.7-1.3,16.9-2.5,25.2-3.8
		c-3.1-5.6-3.6-11.8-3.3-18.2C340.1,596.5,331.2,597.1,322.3,597.8z"/>
	<path d="M335.3,29.8c-13.8-1.7-26.1,2.4-38.8,4.6c1.5,2.3,2.9,4.3,4,6.5c0.8,1.6,1.5,1.8,3.2,1.2c9-3.5,18.1-6.9,27.2-10.3
		C332.2,31.3,333.5,30.6,335.3,29.8z"/>
	<path d="M170.7,60.6c-12.4,3.6-24.2,7.1-36.5,10.7c0.7,0.5,0.8,0.7,1,0.7c10.7,1.2,21.5,0.7,32.2-0.5c0.6-0.1,1.4-0.7,1.5-1.2
		C169.5,67.4,170,64.4,170.7,60.6z"/>
	<path d="M311.2,611.9c1,1.3,1.8,2.8,3,3.8c1.8,1.3,4.1,2.1,6.1,0.5c1.8-1.5,3.5-3.2,5-5c1.7-2.1,1-4.5-1.2-6
		C318.3,600.9,311.9,606.6,311.2,611.9z"/>
	<path class="st0" d="M232.3,153.8c11.6,6.4,24,10.9,37.3,14c-3.3,4.9-4.2,10-2.7,15.6c1.3,4.9,4.2,8.7,8.1,11.8
		c8,6.1,14,5.5,25.4-2.7c5.8,4.3,11.7,8.7,17.5,13.1c0.5,0.4,0.6,1.6,0.6,2.4c-0.8,12.4,7.8,22.3,20.2,23.3c3.4,0.3,6.3-0.7,8.7-3.2
		c0.9-0.9,1.9-1.7,2.9-2.6c6.9,4.9,13.7,9.7,20.5,14.4c15.2,10.5,30,22,46.9,29.8c11.2,5.2,22.8,9.6,34.2,14.1
		c15.9,6.4,31.5,13.5,46,22.6c4.6,2.9,8,8,11.7,12.3c2.4,2.9,4.4,6.1,6.5,9.2c1.1,1.6,2.5,3.2,1.7,5.5c-0.1,0.3,0,0.8,0.2,1.1
		c2.4,2.4,0.7,4.7-0.2,7c-3.4,8.9-6.4,18-10.1,26.8c-4.9,11.2-12.1,21-20.5,29.9c-11.8,12.6-24.5,24.1-38.5,34.2
		c-13.7,10-29,16.8-44.8,22.8c-16.9,6.4-34.3,10.6-52.1,13.6c-13.8,2.3-27.6,4.1-41.6,3.9c-11.5-0.2-23-0.4-34.4-1.3
		c-13.1-1.1-25.8-4.2-38.4-8.2c-17.9-5.6-35.1-12.7-51.8-21.1c-17.8-9-34.8-19.4-50.7-31.5c-16.8-12.8-30.4-28.6-40.3-47.3
		c-5.4-10.3-8.7-21.7-10.7-33.2c-1.6-9.1-2.1-18.4-3.2-27.6c-0.6-5-1.1-10-1.8-15c-0.3-1.7,0-2.7,1.2-3.9
		c5.4-5.7,12.2-9.4,19.1-12.8c11.9-6,24.1-11.2,35.9-17.4c17.3-9.1,32.6-21,45.6-35.7c13.4-15.1,26.3-30.8,39.1-46.4
		C224.5,165.8,228.1,159.7,232.3,153.8z M464.5,333.9c-0.7-11-5.7-21.7-17-28.3c-7.3-4.3-15.1-7.8-23.9-3.3
		c-0.5,0.2-1.1,0.2-1.6,0.4c-2.3,1-4.8,1.8-6.9,3.1c-7.5,4.8-11.4,12.3-14.1,20.5c-3.4,10.3-1.1,20.1,3.1,29.7
		c6,13.8,16.4,21.1,31.6,20.8c9.5-0.2,16.5-4.9,21.4-13C462.2,355.2,464.2,345.8,464.5,333.9z M143.3,347.5
		c3.8-0.9,7.8-1.4,11.4-2.6c11.3-3.9,17.5-12.5,21.1-23.4c4.9-14.9,2.1-28.2-8.1-40c-4.2-4.8-9.7-7.2-15.7-9
		c-4.4-1.3-7.9,1.1-11.4,2.5c-3.5,1.4-6.9,3.4-10,5.6c-15.8,11.8-21.8,36.6-9.5,53.6C126.5,341.7,133.3,347.1,143.3,347.5z
		 M300.3,334.2c0.8-4.6-1.6-7.3-6-9.1c-6.5-2.6-13.2-2.5-19.8-1.2c-2.2,0.5-4,2.7-6,4c-0.8,0.5-1.9,1-2.7,0.9
		c-8.1-1.5-16.1-2.5-24.4-1.4c-15.6,2-26.4,17.6-23,33c2.1,9.6,8.7,15.3,16.8,19.5c5.3,2.8,10.9,4.2,16.9,4.1
		c7-0.1,14.1-0.4,21.1-0.5c3.2,0,6.6,0.1,9.7,0.9c4.4,1.1,8.6,3,13.1,4.2c8.7,2.3,17.5,4.4,26.6,2c13.2-3.5,23.7-10.1,27.6-24.4
		c2.8-10.1,0.2-17.6-8.4-23.5c-8.1-5.5-17-8.4-26.8-8.5C310.3,334.2,305.4,334.2,300.3,334.2z"/>
	<path class="st0" d="M366,168.5c-0.6-0.8-1.3-1.5-2-2.2c-2.5-2.6-4.9-3-7.8-0.9c-5.1,3.8-10.1,7.6-15.1,11.5
		c-1.1,0.9-1.8,0.9-3.1,0.2c-5.3-3.1-10.7-6-16.2-8.8c-1.1-0.6-2.7-0.3-4.1-0.5c-0.5,2.4-0.1,3.8,1.7,4.9c5,3.1,10,6.4,15,9.6
		c-4.7,5.8-9.6,11.8-14.3,17.6c-5.4-3.5-11.1-7.2-17.2-11.1c2.7-3.7,5.6-7.7,8.4-11.7c4.5-6.4,8.6-13.1,9.9-21
		c0.4-2.3-0.1-4.8-0.6-7.1c-0.5-2.3-3.4-3.8-6.6-3.1c-6,1.2-11.9,2.9-17.9,4.3c-0.9,0.2-2,0.4-2.9,0.2c-11.5-3.5-22.9-7.2-33.7-12.5
		c-0.2-0.1-0.5-0.1-1.2,0.4c1.4,1.3,2.6,2.9,4.1,3.9c7.1,4.5,14.3,8.9,21.7,13.4c-3.8,2.9-7.7,5.9-11.4,8.8
		c-6.3-2.4-12.5-4.8-18.7-7.3c-6.7-2.7-13.4-5.4-20.1-8.1c-1.3-0.5-2.6-1.2-4-1.5c-0.6-0.1-1.6,0.3-2.1,0.8c-2.3,2.6-4.8,5.1-6.7,8
		c-15,22.5-31.2,44-50.7,62.7c-17.5,16.9-37.4,30.2-60.3,38.8c-11.9,4.5-22.6,10.9-32.3,19.1c-0.6,0.5-1.3,1-1.9,1.5
		c-0.1,0.1-0.3,0-0.8,0.1c1.3-6.1,2.5-12.2,3.8-18.3c0.1-0.6,0.5-1.3,1-1.6c7.3-5.1,11.9-12.7,17.1-19.7
		c9.3-12.7,19.8-24.4,31.4-35.1c12.8-11.9,25.4-23.9,38.6-35.4c6.9-6,14.9-10.7,22.3-16.2c4.1-3,7.9-6.5,11.4-10.3
		c-1.9,1-3.9,1.9-5.7,2.9c-24.2,14.1-46.4,31-67.6,49.3c-13.9,12-25,26.4-35.6,41.2c-3.1,4.3-6.3,8.5-9.8,13.3c0-1-0.1-1.4,0-1.8
		c8.4-32.7,21.8-63.1,42.6-90c2.9-3.7,5.6-7.5,8.2-11.4c0.5-0.7,0.4-1.8,0.6-2.7c-0.9,0.3-2.1,0.4-2.7,1c-13.7,14-25.6,29.3-34,47.2
		c-9.9,21.2-18.5,43-24.4,65.7c-2.9,11-3.4,22.3-2.6,33.7c0,0.4,0.1,0.7,0.2,1.2c1.1,0.1,2.2,0.1,3.4,0.2
		c-0.9,13.1,1.7,25.9,3.6,38.6c1.6,10.9,5.2,21.3,9.5,31.5c0.3,0.8,0.8,2.1,0.4,2.8c-4.3,6.7-8.2,13.7-14.6,18.9
		c-7.2,5.8-15.4,7-24.2,5.5c-8.4-1.4-16.1-4.4-22.7-9.8c-7.9-6.4-12.3-15-15.2-24.4c-3.9-12.5-5.7-25.4-3.2-38.4
		c1.8-9.7,4.5-19.3,7.5-28.7c5.3-16.8,14.6-31.6,23.9-46.4c6.1-9.6,12-19.4,18.5-28.7c8.9-12.8,19.8-23.9,31.1-34.6
		c13.4-12.7,26.4-26,41.7-36.5c8.1-5.6,16.6-10.5,24.9-15.7c1.6-1,3.1-2.3,4.7-3.3c0.7-0.5,1.6-1,2.3-1c16.9-0.3,33.3-3.9,49.6-8.1
		c23.5-6,46.9-12.3,70.4-18c12.7-3.1,25.7-4.6,38.3-7.8c6.7-1.7,12.6,0.5,18.6,1.8c21.5,4.5,42.6,10.7,63.5,17.5
		c21.2,6.9,41.3,16,59.9,28.4c17.4,11.7,32.2,26.1,46.1,41.7c15.4,17.3,27.1,37.3,39.9,56.4c15,22.4,24.9,47.1,32,73
		c3.3,12,6.1,24,7.4,36.4c1.5,15,0.1,29.8-3.8,44.3c-2.4,8.9-5.1,17.9-9.2,26.1c-8.3,16.6-22.6,24.7-41,25.7
		c-6.5,0.4-12.6-1.2-18.6-3.3c-8.9-3.2-14.2-12.6-12-21.8c2.1-9.1,3.5-18.2,3.3-27.6c0-0.6,0-1.3,0.3-1.9
		c5.6-11.9,11.4-23.8,17-35.8c1.5-3.2,3.6-6.8,3.4-10c-0.3-5,1.8-8.8,3-13.2c1.7-6.1,2.3-12.6,2.7-19c1-15.5-0.3-30.9-1.9-46.3
		c-1.1-10.2-1.3-20.5-4-30.6c-2.5-9.2-6-17.9-10.8-26.1c-0.3-0.5-0.7-1-1.4-1.4c1.3,4.1,2.6,8.2,3.8,12.4
		c3.3,11.8,4.5,23.8,5.5,35.9c1.1,12.8,2.2,25.7,2.9,38.5c0.5,9,1.8,18-0.7,26.9c-1,3.7-2.5,7.2-4.1,11.6c-1.4-2.9-2.5-5-3.5-7.1
		c-5.6-11.8-14.8-19.9-26.5-25.1c-19.8-8.9-39.9-17.1-59.6-26.2c-10.3-4.8-20.1-10.7-29.8-16.5c-11.9-7.1-23.5-14.7-35.3-22
		c-3.2-2-6.5-3.7-9.8-5.5c-3.1-1.7-3.6-3.6-2.3-6.9c2.5-6,4.8-12.1,7.3-18.4c2.2,1.2,4.9,2.5,7.4,4.1c9.2,5.9,18.1,12.2,27.4,17.9
		c15.6,9.6,31.3,19.2,47.4,27.9c13.3,7.2,26.4,14.8,39.2,22.9c8.5,5.4,17.9,9.1,26.9,13.6c0.7,0.4,1.3,1,2,1.4
		c0.8,0.4,1.9,1,2.7,0.8c0.5-0.1,1.2-1.5,1.1-2.2c-0.6-2.9-0.9-6.2-2.5-8.5c-5.9-8.8-12-17.5-20.1-24.4c-8.4-7.3-17-14.4-26-20.9
		c-21.5-15.5-43.3-30.4-64.8-46c-9.4-6.8-19.1-13-29.9-17.3c-1.5-0.6-3.1-1.1-4.6-1.8c-1.7-0.8-2.4-0.2-2.6,1.5L366,168.5z"/>
	<path class="st0" d="M347,490.1c0.4,4.3,1,8.3,1.2,12.3c1.1,17.3,2.1,34.7,3.2,52c0.7,10.9,1,21.8-0.5,32.8
		c-0.2,1.6-0.6,2.3-2.4,2.5c-15.5,2.2-31.1,2.9-46.7,3.5c-21.1,0.8-42.2,1.8-63.3,2.7c-8.2,0.3-16.4,0.4-24.5,0.7
		c-1.4,0-2.2-0.2-2.6-1.9c-4-17.2-6.2-34.5-5.5-52.2c0.6-15.7,2.6-31.1,5.4-46.5c0.6-3.5,0.9-7.1,1.4-11
		c15.3,10.2,32.3,15.9,49.2,22.2c4.4-6.7,8.7-13.2,13.1-20c2.6,5.6,5.1,11,7.7,16.3c1.1,2.2,2.5,4.3,4.2,6c0.8,0.8,2.8,0.9,4.1,0.6
		c12.6-3.8,25.3-7.5,37.8-11.7c5.4-1.8,10.5-4.8,15.7-7.2C345.2,490.8,345.9,490.6,347,490.1z"/>
	<path class="st0" d="M197,682.6c4.7-18.7,9.3-37.2,14-55.7c23.4,0,47.1,0.6,70.8-0.2c23.6-0.8,47.2-2,70.9-5.1c0,0,0.1,0.4,0,0.8
		c-0.8,7,2.6,11.8,8.1,15.6c0.7,0.5,1.4,1.3,1.5,2.1c2.1,11.9,4.1,23.9,6.1,35.8c0,0.2-0.1,0.3-0.1,0.4c-10.6,1.2-21.2,2.3-31.7,3.6
		c-12.2,1.5-24.3,2.1-36.6,1.9c-20.1-0.3-40.3-0.6-60.4-0.5c-13.1,0.1-26.2,0.8-39.4,1.3C199,682.6,197.9,682.6,197,682.6z"/>
	<path class="st0" d="M358,615.4c9.6-2.8,13.4-8,13-17.7c-1.9,2.4-3.5,5-5.6,7.2c-1.8,1.9-4,3.5-6.1,5.1c-1.1,0.8-2.4,1.1-2.8-0.6
		c-0.8-3.9-2.4-8.1-1.8-11.8c3.3-19.1,2.7-38.3,1-55.5c-1.5-15.1-2.7-30.2-4.2-45.4c-0.3-2.7-1.5-5.3-2.2-7.8
		c2.5-1.7,5.1-3.5,8.1-5.5c0.3,0.3,0.9,1,1.5,1.8c15.4,23.5,26.7,48.6,31.3,76.5c1.5,9.2,3.9,18.3,5,27.6c1.3,11.8,0.5,23.5-6,34
		c-0.9,1.5-2,2.8-3,4.2c-1.1,1.6-2.4,2.4-4.6,2.4c-1.4,0-2.9,0.9-4.3,1.6c-4.2,2.2-8.6,2.6-13,0.8c-4.7-1.9-6.9-5.5-6.9-10.5
		C357.5,619.7,357.8,617.5,358,615.4z"/>
	<path class="st0" d="M336,31.8c-2.2,8.4-4.4,16.9-6.8,25.3c-0.3,1-1.4,2-2.4,2.5c-14.9,7.6-31.1,11.4-47.4,14.8
		c-23.1,4.8-46.1,9.7-69.2,14.3c-14.3,2.8-28.7,5.3-43.1,7.7c-4.6,0.8-9.3,0.6-14,0.9c-1.1,0.1-2.2,0.2-3.3,0.4
		c-4.3,0.7-4.2,0.7-6.7-3.1c-3.2-4.9-6.4-9.9-9.7-14.7c-1-1.5-2.6-2.5-3.9-3.9c-0.4-0.4-0.7-1.7-0.6-1.8c0.7-0.4,1.8-1.1,2.3-0.8
		c4.1,2.6,8.8,1.8,13.1,2c15.4,0.7,30.6-1.9,45.7-4.6c22.1-3.9,44.1-7.9,66-12.5c23.3-5,46.5-10.7,68.4-20.5c2-0.9,4.2-1.5,6.1-2.5
		C332.5,34.4,334.2,33,336,31.8z"/>
	<path class="st0" d="M205.2,619.7c-4.7-4.2-9.4-8.4-14-12.5c-0.4,0.3-0.7,0.6-1.1,0.9c1.2,1.8,2.3,3.8,3.8,5.3
		c4.1,4.3,6.6,9.4,7.2,15.4c0.1,1.1-0.4,2.5-1.1,3.4c-5.1,5.9-14.5,5.3-19.5,1.2c-10.3-8.3-15.1-19.4-15.9-32.4
		c-1.2-18.5,1.6-36.5,5.6-54.4c3.7-16.4,9.7-31.8,19.4-45.6c2.6-3.7,6.1-6.8,9.3-10.1c2.8-2.9,5.6-5.7,8.5-8.5
		c0.4-0.4,0.9-0.7,1-0.8c-1.3,5.8-2.9,11.6-3.9,17.5c-2.9,16-4.3,32-4.2,48.3c0,6.1-0.8,12.2-0.3,18.2c0.6,6.9,2.2,13.8,3.6,20.6
		C205.9,597.4,206.8,608.5,205.2,619.7z"/>
	<path class="st0" d="M302.5,745.6c0.5-1,0.8-2,1.4-2.8c0.6-0.7,1.6-1.5,2.4-1.5c9.7-0.2,18.5-3.2,27-7.8c3.9-2.1,8-3.9,12.6-6
		c1.6,1.5,3.4,3.1,5.1,4.9c7.4,7.8,13,16.8,17.9,26.3c2.4,4.5,5.3,8.8,7.9,13.2c2.1,3.5,3.7,7.2,3.6,11.4c0,1-0.9,2.4-1.8,2.9
		c-10.9,6-22.6,10.1-34.5,13.3c-7.7,2.1-15.5,3.6-23.3,5.1c-2.9,0.5-5.9,0.4-8.8,0.3c-0.9,0-2.1-1-2.7-1.9
		c-6.2-9.1-6.2-19.1,0.5-27.9c2.9-3.7,3.3-7.2,2.3-11.5C310.6,756.7,307.1,750.9,302.5,745.6z"/>
	<path class="st0" d="M223.6,740.5c17.1-1.3,33.8-2.5,51.1-3.8c-0.5,4.2-1,7.7-1.4,11.2c-1.1,11.3,1.2,22,5.8,32.4
		c2.6,5.9,4.1,12.3,5.7,18.6c0.5,1.9-0.3,4.3-1.1,6.2c-0.4,0.9-1.9,1.8-3,2c-13,2-26,3.5-39.2,2.9c-7.1-0.4-14.1-1-21.1-1.8
		c-4.5-0.5-7.1-4.7-6-9.3c0.9-3.9,2.2-7.7,3.3-11.5c0.2-0.6,0.7-1,1.1-1.5c6.1-6.7,7.8-14.7,6.7-23.5
		C224.8,755.1,224.3,747.8,223.6,740.5z"/>
	<path class="st0" d="M366.2,168.4c5.5,3,11.2,5.5,16.3,9c9.5,6.5,18.6,13.7,28.1,20.5c14.3,10.2,28.5,20.5,43,30.4
		c21.9,15,41.3,32.4,56.4,54.5c0.4,0.6,0.9,1.1,1,2.1c-0.7-0.4-1.3-0.7-2-1.1c-28.1-17.4-56.4-34.6-84.3-52.2
		c-12.2-7.7-24-16-35.7-24.4c-6.8-4.8-16.9-10.3-25.4-12.5c3.1-8.5,4.4-17.2,2.4-26.2C366,168.5,366.2,168.4,366.2,168.4z"/>
	<path class="st0" d="M208.1,64.5c-12.3,2.1-24.2,4.1-36.8,6.3c1-3,1.7-5.6,2.7-7.9c6.7-15.8,14.7-31,27.4-42.8
		C214.9,7.6,231.1,2.1,249.6,5c7.5,1.2,13.9,5.1,20.1,9.2c9.4,6.2,17,14.3,24.2,22.8c1.6,1.9,2.7,4.3,4.1,6.8
		c-15.1,5.2-30.4,8.5-46.1,11.9c0.8-1.6,1.4-2.9,2.1-4.2c10.3-19-5.1-36.5-21.9-37.4c-10.9-0.6-19.9,3.7-27.3,11.7
		C194.7,36.6,195.4,55.8,208.1,64.5z"/>
	<path class="st0" d="M309.6,619.5c-33.2,0.9-65.9,1.7-98.6,2.6c0.6-7.1,1.2-13.7,1.9-20.3c17.1,0,34.5,0.5,51.8-0.1
		c17.2-0.6,34.4-2.3,52-3.5C308.1,603.2,302.9,609.2,309.6,619.5z"/>
	<path class="st0" d="M193.9,692.5c0.5-1.7,0.9-3.2,1.4-5c10.2,2.6,20.1-0.9,30.1-1.1c9-0.2,18-0.5,27-0.3c8.3,0.1,16.5,1,24.8,1.2
		c11.1,0.3,22.3,0.7,33.4,0.3c12.8-0.5,25.6-1.7,38.4-2.9c5.7-0.5,11.3-1.5,16.9-2.3c2.2-0.3,3.8,0,3.5,2.9
		c-0.1,1.4,0.3,2.9,0.5,4.5c-5.2,0.5-10.3,1-15.4,1.4c-21.1,1.8-42.2,2.6-63.3,2.6c-12.2,0-24.4,0.5-36.6,1
		c-11.8,0.5-23.6,1.6-35.4,1.5c-7.3-0.1-14.7-1.9-22-3C196.1,693.1,195.1,692.8,193.9,692.5z"/>
	<path class="st0" d="M335.9,699.9c-0.7,4-1.6,7.8-2,11.6c-0.1,1.2,0.6,2.8,1.4,3.9c1.7,2.4,3.7,4.5,5.8,7.1
		c-5.1,2.7-9.8,5.5-14.8,7.7c-6.6,2.8-13.4,5.1-20.7,4.9c-1.1,0-2.7-0.9-3.2-1.8c-2.6-4.4-5-9-7.3-13.6c-0.5-1-0.6-2.3-0.4-3.4
		c0.8-4.5,1.6-9,2.6-13.5c0.2-0.7,1.1-1.8,1.7-1.8C311.4,700.5,323.9,700.2,335.9,699.9z"/>
	<path class="st0" d="M225.6,702.1c13.5,0,27.2,0,40.9,0c0,9.5,0,19.1,0,29c-12.9,1.3-25.3,2.6-38.1,3.9
		C227.4,724,226.5,713.3,225.6,702.1z"/>
	<path class="st0" d="M339.9,227.6c-10,0-18.5-7.4-18.4-15.7c0-1.9-0.3-4.1,2.4-4.9c0.4-0.1,0.9-1.9,0.6-2.2c-1.4-1.3-0.6-2.5,0-3.7
		c3.6-7.4,9.1-13.4,15.1-18.7c5.5-4.8,11.4-9.3,17.2-13.6c3.1-2.3,4.1-1.8,5.6,1.7c2.1,4.8,1.5,9.6,0.4,14.6
		c-2.4,10.6-5.3,21-10,30.7c-1.5,3.2-3.9,5.9-6.1,8.7C345,226.8,342.6,228.3,339.9,227.6z M356.4,176.9c-1.6,0.7-2.9,0.9-3.7,1.6
		c-4.3,3.6-8.7,7.1-12.6,11.1c-3.3,3.4-5.8,7.6-6.2,12.6c-0.3,3.1,0.5,5.7,3.4,7.2c2.5,1.4,5.1,0.5,6.8-1.3c2.1-2.2,4.2-4.8,5.2-7.6
		C351.8,193,353.8,185.3,356.4,176.9z"/>
	<path class="st0" d="M324,76.4c-0.1,2.8-0.5,4.7-3.5,4.8c-0.6,0-1.1,1.3-2.1,2.6c-12,2.5-24.9,4.9-37.6,7.9
		c-15.7,3.6-31.3,7.6-47,11.5c-15.4,3.8-30.7,7.9-46.2,11.4c-7.6,1.7-15.4,2.4-23.1,3.3c-4,0.5-8.9-3.4-11.2-8.8
		c2.7,0,5.3,0.3,7.7-0.1c12.6-1.8,25.3-3.6,37.8-5.8c15.5-2.7,30.9-5.6,46.2-8.8c22.2-4.7,44.3-9.6,66.4-14.6
		C315.7,78.9,319.7,77.6,324,76.4z"/>
	<path class="st0" d="M268.9,177.8c1-2.4,1.6-5.1,3.2-7.1c5.2-6.8,12.1-11.4,20-14.9c6.4-2.8,12.8-5,19.5-6.3
		c7.4-1.5,8.1,0.7,6.6,6.7c-1.2,5-3.7,9.7-6.4,14.2c-3.4,5.8-7.5,11.1-11.4,16.6c-1.5,2.1-3.3,3.9-5.3,5.5
		c-6.9,5.5-13.4,5.2-19.7-0.9C271.6,187.9,269.5,183.4,268.9,177.8z M281.6,173.7c0,3.9,1.9,5.9,5.6,4.8c3-0.9,5.9-2.6,8.2-4.6
		c3-2.5,5.4-5.7,8-8.7c1.4-1.6,2.7-3.2,3.8-5c0.5-0.8,0.3-2,0.5-3.1c-1.1,0-2.5-0.5-3.4-0.1c-6.1,2.9-12.2,5.8-18.2,8.9
		C283.4,167.6,281.5,170.2,281.6,173.7z"/>
	<path class="st0" d="M327.6,63.9c-0.6,2.5-1,4.8-1.7,6.9c-0.2,0.7-1.3,1.2-2.1,1.4c-8.8,2.3-17.5,4.6-26.3,6.7
		c-17.4,4.1-34.8,8.2-52.3,11.9c-14.2,3-28.5,5.4-42.7,8c-10.9,2-21.8,4.1-32.8,5.8c-6.1,1-12.2,1.3-18.5,2c-1-1.5-2.2-3.2-3.5-5.2
		c4.1-0.3,7.8-0.3,11.5-0.9c11.4-1.6,22.8-2.9,34-5c20.7-3.8,41.3-7.8,61.9-12.2c17.3-3.7,34.5-7.8,51.7-12.2
		c6.5-1.7,12.8-4.4,19.2-6.7C326.3,64.3,326.8,64.2,327.6,63.9z"/>
	<path class="st0" d="M209.9,461.7c11.9,4,23.9,8.1,36.1,12.2c-1.7,3.5,2.8,4.5,4,7c-1.6,2-3.2,3.9-4.6,6c-0.3,0.5-0.4,1.6,0,2
		c0.5,0.5,1.7,0.9,2.1,0.6c2.1-1.5,4.4-2.8,5.8-4.8c2-2.8,1.3-5-1.3-7.3c-0.9-0.8-1.7-1.8-2.2-3.3c7.8,1.2,15.6,2.5,23.9,3.7
		c-1.4,2-2.8,3.8-4,5.7c-3,4.7-6,9.5-8.9,14.2c-0.8,1.3-1.5,1.8-3.1,1.2c-1.8-0.7-3.8-0.9-5.5-1.7c-4.7-2.1-9.4-4.2-14-6.6
		c-7.4-3.7-14.8-7.6-22.2-11.4c-0.5-0.2-0.9-0.6-1.3-1c-3.3-2.5-6.8-4.6-4.9-9.9C210.5,466.2,209.9,463.7,209.9,461.7z M235.1,484.9
		c3.2,1.8,5.6,1.9,7.7,0.4c2.1-1.4,3.8-3.4,3.4-6.2c-0.3-2.1-3.7-5.2-5.5-5.4c-1.7-0.2-3,1.4-2.2,3c0.6,1.2,1.4,2.3,2,3.2
		C238.7,481.5,237.1,483,235.1,484.9z M262.3,483.9c0.2-3.4-2-4.6-3.8-6c-0.7-0.5-1.9-0.5-2.8-0.6c0.1,1-0.1,2.2,0.4,2.9
		c2.5,3.8,2.6,4-0.9,7.2c-0.4,0.4-0.9,0.7-1.1,1.2c-0.3,0.9-0.4,1.9-0.6,2.8c1,0.1,2.2,0.5,3,0.2C260,490.5,262.3,486.9,262.3,483.9
		z"/>
	<path class="st0" d="M351.6,476.4c-8,7.9-17.4,12.9-27.8,16c-1-1.5-2.1-3-2.9-4.5c-0.2-0.4,0.2-1.4,0.5-1.9
		c0.6-0.9,1.4-1.7,2.1-2.5c-1.2-1.9-2.4-2.2-4.1-0.8c-1.1,0.9-2.3,1.5-3.5,2.2c-1.6,0.9-3,1.9-2.5,4.1c0.5,2.1,1.6,3.7,3.9,4
		c0.2,0,0.5,0.2,1.5,0.6c-2.6,0.9-4.6,1.5-7.1,2.3c2.7-3.6,0-5.3-1.6-7.2c1.4-1.7,2.8-3.2,3.9-4.9c0.4-0.6,0.3-2.1-0.2-2.5
		c-0.6-0.4-1.9-0.4-2.6,0c-2.7,1.5-5.2,3.3-7.8,5c-1.8,1.1-2,2.9-0.2,4.3c2.3,1.9,4.9,3.5,7.6,5.5c-5,1.5-10,3.1-14.9,4.6
		c-6.5,1.9-6.4,1.9-9.2-4.3c-2.5-5.6-5.2-11.1-7.8-16.7c-0.2-0.4-0.3-0.8-0.6-1.8C303.1,480,327.3,479.5,351.6,476.4z M304.4,483.7
		c-1.6-2.4-3-2.7-5-1c-1.4,1.2-3,2-4.6,3c-2.1,1.4-2.3,2.9-0.4,4.6s3.9,3.4,6,4.9c0.7,0.5,1.9,0.3,2.8,0.5c-0.1-1.1,0.2-2.3-0.3-3.1
		c-0.8-1.4-2.1-2.4-3.2-3.5C301.4,487.2,302.9,485.5,304.4,483.7z"/>
	<path class="st0" d="M200.7,45c-0.5-9.8,5.8-19.5,15.8-24.3c8.9-4.3,17.9-4.6,26.6,0.5c11.8,7,14.5,20.2,6.9,31.6
		c-1.8,2.7-3.8,4.4-7.3,5c-8,1.3-15.8,3.6-23.8,4.6c-9.2,1.2-13.5-1.9-16.6-10.1C201.4,49.9,201.2,47.4,200.7,45z M213.2,60.2
		c3,1.4,5.4,1.5,8-0.3c1.9-1.4,3.3-3.4,6.3-3.9c3.4-0.6,6.6-1.4,9.9-0.3c3.2,1,6,0.3,8.5-1.7c0.7-0.5,0.9-1.7,1.3-2.5
		c-0.8-0.3-1.6-0.7-2.4-0.7c-1.3-0.1-2.6,0-3.9,0c1.4-1.8,3-3.1,3.6-4.8c1-2.6,1.4-5.6,5.5-4c0-0.9,0.1-1.3,0.1-1.8
		c-0.2-2.3-0.8-4.5-3.2-5.4c-2.4-0.9-3.8,0.8-5.1,2.6c-0.9,1.3-2.5,2.1-3.8,3.1c-0.2-0.2-0.5-0.4-0.7-0.6c0.2-0.9,0.3-1.9,0.7-2.8
		c3.4-7.8-4-17.1-11.5-17.2c-8-0.1-13.7,3.6-17.4,10.4c-2.9,5.4-1.8,9.8,3,13.6c0.6,0.5,1.3,1,1.9,1.5c-4.9-0.8-7.4-0.2-9.2,2.8
		c-0.6,1-0.6,2.4-0.9,3.6c1.2,0,2.4,0,3.6,0.1c0.9,0.1,2,0,2.6,0.5c1.6,1.5,3.1,3.3,4.7,5.2C214.6,58.1,214,59,213.2,60.2z"/>
	<path class="st0" d="M322.3,597.8c8.9-0.7,17.8-1.3,27-2c-0.3,6.4,0.2,12.6,3.3,18.2c-8.3,1.2-16.5,2.5-25.2,3.8
		c2.4-3.7,3.6-7.5,2.9-11.7c-0.8-4.6-3.7-6.9-8.2-7.5C322.1,598.2,322.2,598,322.3,597.8z"/>
	<path class="st0" d="M335.3,29.8c-1.8,0.8-3.1,1.4-4.4,1.9c-9.1,3.4-18.2,6.8-27.2,10.3c-1.6,0.6-2.4,0.4-3.2-1.2
		c-1.1-2.2-2.6-4.2-4-6.5C309.2,32.2,321.5,28.2,335.3,29.8z"/>
	<path class="st0" d="M170.7,60.6c-0.7,3.8-1.2,6.8-1.8,9.7c-0.1,0.5-1,1.1-1.5,1.2c-10.7,1.1-21.4,1.7-32.2,0.5
		c-0.1,0-0.3-0.2-1-0.7C146.5,67.7,158.3,64.2,170.7,60.6z"/>
	<path class="st0" d="M311.2,611.9c0.6-5.3,7.1-11,12.9-6.8c2.2,1.6,2.9,4,1.2,6c-1.5,1.8-3.2,3.5-5,5c-2,1.6-4.3,0.9-6.1-0.5
		C313,614.7,312.2,613.2,311.2,611.9z"/>
	<path d="M464.5,333.9c-0.3,11.9-2.3,21.3-7.4,29.9c-4.8,8-11.9,12.8-21.4,13c-15.2,0.3-25.5-7-31.6-20.8
		c-4.2-9.6-6.5-19.4-3.1-29.7c2.7-8.1,6.5-15.6,14.1-20.5c2.1-1.4,4.6-2.1,6.9-3.1c0.5-0.2,1.1-0.2,1.6-0.4c8.7-4.5,16.6-1,23.9,3.3
		C458.8,312.3,463.8,323,464.5,333.9z"/>
	<path d="M451,327.8c0.1-2.9-2.3-5.4-5.1-5.5c-2.4-0.1-5.3,2.9-5.3,5.4c0,2.5,2.7,5.9,4.8,6C447.9,333.8,450.9,330.6,451,327.8z"/>
	<path d="M143.3,347.5c-10.1-0.4-16.8-5.8-22.2-13.3c-12.3-17-6.3-41.9,9.5-53.6c3.1-2.3,6.4-4.2,10-5.6c3.6-1.4,7-3.9,11.4-2.5
		c6,1.8,11.6,4.2,15.7,9c10.3,11.8,13,25.1,8.1,40c-3.6,10.9-9.8,19.5-21.1,23.4C151.1,346.1,147.1,346.6,143.3,347.5z"/>
	<path d="M154.7,305.8c4.4-0.5,8.3-4.9,8-9c-0.2-2.9-3.7-5.9-6.1-5c-1.9,0.8-3.8,1.9-5.1,3.4c-1.9,2.2-2.5,5.1-1,7.7
		C151.3,304.3,153.2,304.9,154.7,305.8z"/>
	<path d="M300.3,334.2c5.1,0,10,0,14.8,0c9.8,0.1,18.8,3,26.8,8.5c8.6,5.9,11.2,13.4,8.4,23.5c-3.9,14.2-14.4,20.9-27.6,24.4
		c-9,2.4-17.9,0.4-26.6-2c-4.4-1.2-8.6-3.1-13.1-4.2c-3.1-0.8-6.5-0.9-9.7-0.9c-7,0-14.1,0.3-21.1,0.5c-6,0.1-11.7-1.3-16.9-4.1
		c-8.2-4.2-14.7-9.9-16.8-19.5c-3.4-15.4,7.4-30.9,23-33c8.2-1.1,16.3-0.1,24.4,1.4c0.8,0.1,1.9-0.4,2.7-0.9c2-1.3,3.8-3.6,6-4
		c6.6-1.4,13.3-1.5,19.8,1.2C298.6,326.9,301.1,329.6,300.3,334.2z"/>
	<path d="M253.8,331c0,0.2,0,0.4,0,0.5c-2.8,0-5.7-0.2-8.5,0c-12.8,1.2-18.8,5.4-22.9,18.1c-0.8,2.4-0.9,5.1-0.6,7.6
		c1.4,8.8,7.1,14.7,14.6,18.6c10.7,5.6,22.4,5,33.9,3.3c6.2-0.9,11.8-1.7,17.7,1.9c8.6,5.2,18.6,5.8,28.5,5.9
		c14.3,0.1,27.2-10.5,29.6-24.5c0.7-4.1,0.8-8.6-2.4-11.4c-4.3-3.7-9.1-7.1-14.3-9.4c-7.6-3.4-16-3.4-24.4-3.2
		c-3.3,0.1-6.4-0.1-8.5,3.1c-0.3,0.5-1,0.8-1.6,1.1c-9.4,5.4-21.8,1.6-26.4-8.2c-0.8-1.6-1.7-2.4-3.5-2.5
		C261.3,331.7,257.6,331.3,253.8,331z"/>
	<path d="M283.2,326.8c-0.1-0.3-0.1-0.5-0.2-0.8c-3.5,1.1-7.1,2-10.5,3.4c-0.7,0.3-1.5,2.4-1.2,2.9c5.5,8.1,14.3,11.4,22.8,4.8
		c2.9-2.2,2.6-5.9-0.4-8C290.4,327,286.9,326.7,283.2,326.8z"/>
	<path d="M356.4,176.9c-2.5,8.4-4.5,16.1-7.2,23.6c-1,2.8-3.1,5.4-5.2,7.6c-1.7,1.8-4.2,2.7-6.8,1.3c-2.8-1.6-3.6-4.2-3.4-7.2
		c0.4-5,2.9-9.2,6.2-12.6c3.9-4,8.3-7.5,12.6-11.1C353.5,177.7,354.8,177.5,356.4,176.9z"/>
	<path d="M350.5,184.3c-0.3-0.1-0.5-0.2-0.8-0.4c-2,2.1-4.1,3.9-5.8,6.2c-2.3,3.1-4.6,6.4-6.4,9.8c-1,2-1.7,5.1,1.1,6.4
		c2.7,1.3,4.3-1.2,5.6-3.2C348.1,197.5,348.6,190.7,350.5,184.3z"/>
	<path d="M281.6,173.7c-0.1-3.6,1.8-6.1,4.6-7.6c6-3.2,12.1-6.1,18.2-8.9c0.9-0.4,2.3,0,3.4,0.1c-0.1,1,0,2.2-0.5,3.1
		c-1.1,1.8-2.5,3.4-3.8,5c-2.6,3-5,6.2-8,8.7c-2.4,2-5.3,3.7-8.2,4.6C283.5,179.6,281.6,177.7,281.6,173.7z"/>
	<path d="M302.1,161.8c-0.2-0.2-0.3-0.4-0.5-0.6c-5.1,3.1-10.4,6-15.3,9.4c-1,0.7-0.9,3-1.3,4.6c1.5,0,2.9,0.1,4.4,0.1
		c0.4,0,0.9-0.4,1.1-0.7C294.4,170.3,298.2,166.1,302.1,161.8z"/>
	<path d="M235.1,484.9c2.1-1.9,3.6-3.4,5.4-5c-0.6-0.9-1.4-2-2-3.2c-0.8-1.5,0.5-3.2,2.2-3c1.8,0.2,5.2,3.3,5.5,5.4
		c0.4,2.8-1.3,4.7-3.4,6.2C240.6,486.8,238.2,486.6,235.1,484.9z"/>
	<path d="M262.3,483.9c0,3-2.3,6.6-5.7,7.7c-0.9,0.3-2-0.1-3-0.2c0.2-1,0.3-1.9,0.6-2.8c0.2-0.5,0.7-0.8,1.1-1.2
		c3.5-3.2,3.4-3.4,0.9-7.2c-0.5-0.7-0.3-1.9-0.4-2.9c1,0.2,2.1,0.1,2.8,0.6C260.3,479.3,262.5,480.5,262.3,483.9z"/>
	<path d="M304.4,483.7c-1.6,1.8-3.1,3.5-4.6,5.2c1.1,1.1,2.4,2.2,3.2,3.5c0.5,0.8,0.2,2.1,0.3,3.1c-0.9-0.1-2.1,0-2.8-0.5
		c-2.1-1.5-4.1-3.1-6-4.9c-1.9-1.7-1.7-3.2,0.4-4.6c1.5-1,3.2-1.9,4.6-3C301.4,481,302.9,481.3,304.4,483.7z"/>
	<path d="M213.2,60.2c0.8-1.2,1.4-2.1,1.7-2.5c-1.7-1.9-3.1-3.7-4.7-5.2c-0.5-0.5-1.7-0.4-2.6-0.5c-1.2-0.1-2.4-0.1-3.6-0.1
		c0.3-1.2,0.3-2.6,0.9-3.6c1.8-3.1,4.3-3.7,9.2-2.8c-0.6-0.5-1.3-1-1.9-1.5c-4.8-3.7-5.9-8.2-3-13.6c3.7-6.9,9.4-10.5,17.4-10.4
		c7.5,0.1,14.9,9.4,11.5,17.2c-0.4,0.9-0.5,1.9-0.7,2.8c0.2,0.2,0.5,0.4,0.7,0.6c1.3-1,2.9-1.8,3.8-3.1c1.4-1.8,2.7-3.5,5.1-2.6
		c2.3,0.9,3,3.1,3.2,5.4c0,0.5,0,0.9-0.1,1.8c-4.1-1.6-4.4,1.3-5.5,4c-0.6,1.7-2.2,3-3.6,4.8c1.2,0,2.6-0.1,3.9,0
		c0.8,0.1,1.6,0.5,2.4,0.7c-0.4,0.8-0.6,2-1.3,2.5c-2.5,2-5.4,2.7-8.5,1.7c-3.3-1.1-6.5-0.3-9.9,0.3c-3,0.5-4.4,2.5-6.3,3.9
		C218.6,61.7,216.2,61.6,213.2,60.2z"/>
	<path d="M218.8,45c-2.4,4.4-2.4,4.4-6.5,3.1c-0.6-0.2-1.2-0.6-1.8-0.6c-1,0.1-2,0.4-3,0.6c-0.1,0.4-0.1,0.7-0.2,1.1
		c3.5-1,4.9,0.7,6,3.4c0.8,1.9,2.6,1.3,4,0.3c0.6-0.5,0.9-1.4,1.5-1.9c0.5-0.4,1.2-0.5,1.8-0.7c0.1,0.6,0.6,1.4,0.4,1.8
		c-1,2.1-2.2,4-3.3,6.1c3.6-0.2,5.1-2.7,6.1-5.8c0.7-2.4,2.1-3,4.3-1.9c0.7,0.3,1.2,0.9,2.2,1.7c-0.2-2.8,1.3-2.8,3-2
		c0.7,0.3,1.5,0.9,1.9,1.5c1.6,2.1,3.7,2.3,6.3,2.1c-1.9-1.9-5-2.3-5.2-5.4c4.9-1,5.2-1.4,7.4-6.1c0.7-1.5,2.1-2.7,3.5-4.4
		c-0.5-1.1-1.5-1.6-2.9,0c-1.1,1.3-1.9,2.9-3.2,3.8c-1.1,0.8-2.9,1.4-4.2,1.1c-0.9-0.2-2-1.9-2.1-3.1c-0.2-1.8,0.1-3.6,0.6-5.4
		c1.1-4.2-1.3-9.1-5.3-10.6c-6.2-2.2-13.4,0-17.1,5.4c-4.6,6.6-3,12,4.4,15.1C217.8,44.6,218.3,44.8,218.8,45z"/>
	<path class="st0" d="M451,327.8c-0.1,2.8-3.1,6-5.6,5.9c-2.1-0.1-4.9-3.5-4.8-6c0-2.5,3-5.5,5.3-5.4
		C448.7,322.4,451,324.9,451,327.8z"/>
	<path class="st0" d="M154.7,305.8c-1.4-0.9-3.4-1.5-4.2-2.8c-1.5-2.6-0.9-5.5,1-7.7c1.3-1.5,3.3-2.7,5.1-3.4c2.4-0.9,5.8,2.1,6.1,5
		C163,300.9,159.1,305.3,154.7,305.8z"/>
	<path class="st0" d="M253.8,331c3.8,0.3,7.5,0.7,11.2,0.9c1.8,0.1,2.7,0.8,3.5,2.5c4.6,9.9,17,13.7,26.4,8.2
		c0.5-0.3,1.2-0.6,1.6-1.1c2.1-3.2,5.2-3,8.5-3.1c8.3-0.2,16.7-0.2,24.4,3.2c5.2,2.3,10,5.7,14.3,9.4c3.2,2.8,3.1,7.3,2.4,11.4
		c-2.4,14-15.3,24.6-29.6,24.5c-9.9-0.1-19.9-0.6-28.5-5.9c-5.9-3.6-11.5-2.8-17.7-1.9c-11.5,1.7-23.2,2.2-33.9-3.3
		c-7.5-3.9-13.2-9.7-14.6-18.6c-0.4-2.5-0.2-5.2,0.6-7.6c4.2-12.8,10.1-17,22.9-18.1c2.8-0.3,5.7,0,8.5,0
		C253.8,331.3,253.8,331.1,253.8,331z"/>
	<path class="st0" d="M283.2,326.8c3.7-0.2,7.2,0.2,10.4,2.4c3,2,3.3,5.8,0.4,8c-8.5,6.5-17.3,3.3-22.8-4.8
		c-0.4-0.5,0.5-2.6,1.2-2.9c3.4-1.3,7-2.3,10.5-3.4C283.1,326.3,283.1,326.6,283.2,326.8z"/>
	<path class="st0" d="M350.5,184.3c-1.8,6.4-2.4,13.1-6.3,18.8c-1.4,1.9-2.9,4.5-5.6,3.2c-2.7-1.3-2.1-4.3-1.1-6.4
		c1.8-3.5,4-6.7,6.4-9.8c1.7-2.3,3.9-4.1,5.8-6.2C349.9,184.1,350.2,184.2,350.5,184.3z"/>
	<path class="st0" d="M302.1,161.8c-3.8,4.2-7.7,8.5-11.5,12.7c-0.3,0.3-0.8,0.7-1.1,0.7c-1.5,0.1-2.9,0-4.4-0.1
		c0.4-1.6,0.3-3.9,1.3-4.6c4.9-3.4,10.2-6.3,15.3-9.4C301.8,161.4,301.9,161.6,302.1,161.8z"/>
	<path class="st0" d="M218.8,45c-0.5-0.2-0.9-0.4-1.4-0.6c-7.4-3.1-9-8.6-4.4-15.1c3.8-5.4,11-7.7,17.1-5.4
		c3.9,1.4,6.3,6.4,5.3,10.6c-0.4,1.7-0.8,3.6-0.6,5.4c0.1,1.2,1.2,2.9,2.1,3.1c1.3,0.3,3-0.3,4.2-1.1c1.3-0.9,2.1-2.5,3.2-3.8
		c1.4-1.7,2.4-1.2,2.9,0c-1.4,1.7-2.8,2.9-3.5,4.4c-2.2,4.7-2.5,5.1-7.4,6.1c0.2,3.1,3.3,3.5,5.2,5.4c-2.6,0.2-4.8,0.1-6.3-2.1
		c-0.5-0.6-1.2-1.2-1.9-1.5c-1.7-0.8-3.2-0.8-3,2c-1-0.7-1.5-1.3-2.2-1.7c-2.2-1.1-3.6-0.5-4.3,1.9c-0.9,3-2.4,5.5-6.1,5.8
		c1.1-2,2.3-4,3.3-6.1c0.2-0.5-0.2-1.2-0.4-1.8c-0.6,0.2-1.3,0.3-1.8,0.7c-0.6,0.5-0.9,1.4-1.5,1.9c-1.4,1.1-3.2,1.6-4-0.3
		c-1.1-2.7-2.5-4.4-6-3.4c0.1-0.4,0.1-0.7,0.2-1.1c1-0.2,2-0.6,3-0.6c0.6,0,1.2,0.3,1.8,0.6C216.3,49.5,216.3,49.5,218.8,45z
		 M225.1,40.6c2.3,0,4.5-1.9,4-3.8c-0.2-0.8-1.7-1.8-2.7-1.8c-1.9-0.2-4.1,0.2-4.4,2.7C221.9,39.8,223.4,40.5,225.1,40.6z
		 M217.6,32.4c-1,0.9-1.6,1.5-2.2,2.1c0.7,0.4,1.4,1.2,2.1,1.2c0.6,0,1.3-0.8,2-1.3C219,33.9,218.5,33.3,217.6,32.4z M230.6,29.9
		c0,0.5,0,1,0,1.5c1,0.1,2,0.2,3,0.3c0-0.6,0.1-1.3,0.1-1.9C232.6,29.8,231.6,29.9,230.6,29.9z"/>
	<path d="M225.1,40.6c-1.6-0.1-3.2-0.9-3-2.9c0.2-2.5,2.4-2.9,4.4-2.7c1,0.1,2.5,1,2.7,1.8C229.5,38.8,227.4,40.7,225.1,40.6z"/>
	<path d="M217.6,32.4c0.8,1,1.3,1.5,1.8,2.1c-0.6,0.5-1.3,1.3-2,1.3c-0.7,0-1.4-0.8-2.1-1.2C216,33.9,216.7,33.3,217.6,32.4z"/>
	<path d="M230.6,29.9c1,0,2-0.1,3-0.1c0,0.6-0.1,1.3-0.1,1.9c-1-0.1-2-0.2-3-0.3C230.5,30.9,230.6,30.4,230.6,29.9z"/>
</g>
</svg>
