<?xml version="1.0" encoding="utf-8"?>
<!-- Generator: Adobe Illustrator 26.0.0, SVG Export Plug-In . SVG Version: 6.00 Build 0)  -->
<svg version="1.1" id="Capa_1" xmlns="http://www.w3.org/2000/svg" xmlns:xlink="http://www.w3.org/1999/xlink" x="0px" y="0px"
	 viewBox="0 0 595.28 816.39" style="enable-background:new 0 0 595.28 816.39;" xml:space="preserve">
<style type="text/css">
	.st0{fill:#FFFFFF;}
</style>
<g>
	<path d="M368.57,639.84c4.08,11.55,4.62,23.28,6.38,34.8c0.57,3.72,1.3,7.42,1.88,11.15c0.21,1.36,0.36,2.75,0.3,4.12
		c-0.27,5.49-1.23,6.4-6.64,6.89c-9.23,0.85-18.45,1.77-26.93,2.59c-1.27,3.28-2.46,6.15-3.47,9.08c-0.25,0.73-0.25,1.86,0.16,2.45
		c3.47,5.04,6.68,10.19,12.15,13.62c6.17,3.87,10.41,9.67,13.79,16.17c6.01,11.56,12.31,22.97,18.41,34.49
		c1.88,3.56,3.77,7.08,2.09,11.47c-1.87,4.87-4.9,8.67-9.87,10c-15.42,4.1-30.89,8.03-46.44,11.6c-5.67,1.3-11.63,1.22-17.43,2.03
		c-4.68,0.65-7.47-1.83-9.73-5.29c-5.66-8.66-5-17.8-1.48-26.92c1.27-3.29,3.5-6.21,5.21-9.35c0.39-0.71,0.83-1.75,0.59-2.37
		c-2.01-5.18-4.08-10.43-7.83-14.62c-4.84-5.41-3.78-6.69,0.19-11.99c-2.52-4.41-4.87-8.98-7.65-13.27
		c-2.47-3.82-2.93-7.78-2.13-12.08c0.66-3.52,1.33-7.03,1.94-10.56c0.15-0.87,0.11-1.78,0.16-2.73c-7.63,0-15.04,0-22.29,0
		c0.95,9.79,1.89,19.4,2.83,29.09c0.6-0.03,1.42-0.11,2.24-0.1c3.27,0.04,5,1.8,5,5.09c0.01,9.03-0.16,18.05,0.1,27.07
		c0.08,2.92,0.81,6.03,2.04,8.67c4.77,10.21,7.72,20.82,8.05,32.09c0.16,5.48-1.92,7.96-7.02,9.79c-9.91,3.55-20.23,3.75-30.49,3.47
		c-11.17-0.3-22.37-1.11-33.47-2.42c-9.11-1.08-11.64-5.96-11.08-15.28c0.5-8.42,4.62-15.74,9.39-22.55
		c2.01-2.86,2.14-6.02,1.93-9.12c-0.52-7.6-1.39-15.18-2.16-22.76c-0.31-3.02,0.91-5.25,3.03-7.32c1-0.97,1.9-2.58,1.92-3.91
		c0.07-6.04-0.24-12.09-0.33-18.14c-0.07-4.21-0.01-8.42-0.01-12.3c-10.68-1.04-20.7-2.02-30.72-3.01c-3.55-0.35-4.1-1.63-3.53-4.57
		c3.5-18.14,7.93-36.03,13.59-53.61c0.11-0.33,0.2-0.67,0.28-0.95c-3.2,0.75-6.3,1.78-9.47,2.16c-9.9,1.19-17.06-3.77-23.09-10.9
		c-6.09-7.21-8.54-15.83-9.88-24.98c-3.36-23.08,0.01-45.41,6.93-67.41c4-12.73,8.89-25.1,15.79-36.55
		c5.61-9.32,12.97-17.11,21.92-23.34c0.37-0.26,0.68-0.59,0.54-0.47c0-1.89-0.03-3.26,0-4.62c0.1-4.58,0.31-9.16,0.26-13.74
		c-0.01-0.79-0.91-1.94-1.69-2.29c-20.16-9.14-39.57-19.71-58.13-31.74c-19.86-12.88-37.24-28.43-49.52-49.06
		c-1.08-1.81-2.12-3.64-3.34-5.75c-0.49,0.68-0.92,1.2-1.27,1.77c-8.86,14.41-21.42,22.27-38.64,22.17
		c-19.54-0.11-33.22-9.6-42.32-26.32c-9.92-18.23-11.17-37.78-8.15-57.89c2.34-15.61,8.2-30.05,14.99-44.13
		c11.76-24.36,26.93-46.52,43.76-67.61c10.7-13.4,22.41-25.85,34.96-37.49c18.19-16.88,38.04-31.46,60.07-42.99
		c0.15-0.08,0.27-0.23-0.03,0.04c-6.47-10.14-12.9-20.14-19.25-30.19c-2.89-4.57-5.5-9.3-10.29-12.33c-1.4-0.89-1.2-2.6,0.23-3.47
		c3.88-2.37,7.65-5.16,11.86-6.69c7.81-2.84,15.89-4.91,23.87-7.29c2.46-0.73,4.89-1.68,7.4-2.05c3.21-0.47,4.89-2.28,6.24-5.05
		c2.77-5.68,5.45-11.45,8.8-16.79c6.3-10.03,13.88-18.99,23.98-25.52C215.5,5,223.94,3,232.47,1.01
		c12.86-3.02,24.01,1.12,34.78,7.44c9.55,5.6,17.51,13.07,24.78,21.31c1.49,1.69,2.62,1.69,4.69,1.15
		c5.74-1.51,11.58-2.78,17.45-3.68c6.44-0.99,12.95-1.55,19.44-2.1c1.58-0.13,3.29,0.34,4.83,0.86c3.15,1.06,3.17,1.55,2.02,5.48
		c-1.91,6.51-3.75,13.05-5.46,19.61c-2.59,9.93-5.05,19.89-7.57,29.82c10.46,2.22,21.38,4.42,32.25,6.88
		c18.06,4.09,35.92,8.98,53.06,16.08c12.09,5.01,24.27,9.91,35.93,15.82c16.89,8.56,31.82,20.06,45.53,33.16
		c19.51,18.63,35.12,40.37,49.54,62.94c10.13,15.85,19.68,32.13,28.41,48.78c5.11,9.75,8.49,20.49,11.94,31.02
		c4.81,14.67,8.63,29.64,10.28,45.04c3.31,30.9-2.2,59.81-19.91,85.85c-6.74,9.91-16.72,15.02-27.8,18.05
		c-11.58,3.16-23.06,2.27-34.23-2.38c-13.18-5.5-19.62-18-16.35-32.04c0.91-3.92,1.83-7.84,2.72-11.76c0.09-0.4,0.01-0.85,0.01-2.11
		c-36.65,46.11-85.63,68.72-142.27,79.25c1.95,2.2,3.37,4.28,5.22,5.82c5.42,4.5,9.41,9.92,12.27,16.37
		c3.23,7.29,7.16,14.27,10.38,21.57c7.65,17.32,12.16,35.58,15.27,54.19c1.24,7.43,2.25,14.94,2.7,22.46
		c0.91,15.2-4.16,28.17-15.61,38.44c-4,3.59-9.06,4.21-14.07,4.92C371.46,639.41,370.2,639.6,368.57,639.84z M366.05,168.52
		c2,8.96,0.71,17.66-2.41,26.16c8.41,2.16,18.59,7.66,25.36,12.5c11.73,8.38,23.5,16.75,35.69,24.43
		c27.96,17.61,56.19,34.81,84.32,52.16c0.63,0.39,1.31,0.71,1.97,1.06c-0.16-0.97-0.65-1.51-1.05-2.1
		c-15.08-22.02-34.52-39.46-56.41-54.45c-14.48-9.91-28.71-20.17-42.97-30.39c-9.41-6.74-18.51-13.92-28.06-20.46
		c-5.1-3.5-10.85-6.05-16.3-9.03c0.17-1.68,0.89-2.27,2.57-1.5c1.5,0.69,3.08,1.17,4.61,1.78c10.83,4.3,20.5,10.49,29.93,17.32
		c21.43,15.55,43.3,30.49,64.75,46c9,6.51,17.62,13.61,26.02,20.88c8.04,6.95,14.2,15.66,20.09,24.44c1.58,2.35,1.83,5.64,2.46,8.55
		c0.14,0.66-0.56,2.08-1.07,2.19c-0.81,0.17-1.83-0.39-2.68-0.8c-0.72-0.35-1.27-1.04-1.98-1.39c-9-4.49-18.48-8.21-26.93-13.57
		c-12.8-8.11-25.86-15.64-39.18-22.86c-16.11-8.73-31.74-18.38-47.39-27.93c-9.32-5.69-18.25-11.99-27.42-17.93
		c-2.49-1.61-5.19-2.91-7.35-4.1c-2.51,6.37-4.8,12.45-7.31,18.42c-1.38,3.27-0.88,5.2,2.26,6.9c3.31,1.79,6.65,3.54,9.84,5.53
		c11.77,7.31,23.38,14.92,35.27,22.03c9.76,5.83,19.55,11.75,29.84,16.52c19.69,9.13,39.81,17.34,59.63,26.19
		c11.67,5.21,20.84,13.31,26.45,25.06c1.01,2.12,2.1,4.21,3.54,7.08c1.55-4.37,3.04-7.91,4.06-11.59
		c2.45-8.88,1.16-17.94,0.68-26.89c-0.68-12.85-1.79-25.69-2.94-38.51c-1.08-12.08-2.24-24.18-5.53-35.92
		c-1.16-4.15-2.52-8.24-3.79-12.36c0.71,0.37,1.12,0.86,1.43,1.41c4.74,8.23,8.27,16.95,10.75,26.13c2.7,10.03,3,20.33,4.05,30.57
		c1.59,15.39,2.91,30.8,1.88,46.27c-0.42,6.38-1.04,12.88-2.72,19.01c-1.21,4.38-3.35,8.23-3.04,13.2c0.2,3.26-1.9,6.79-3.4,10.01
		c-5.57,11.97-11.32,23.86-16.97,35.8c-0.26,0.55-0.3,1.25-0.28,1.87c0.18,9.35-1.12,18.5-3.27,27.59
		c-2.18,9.22,3.09,18.65,12.02,21.82c5.99,2.12,12.07,3.68,18.56,3.33c18.44-0.99,32.72-9.06,41.02-25.67
		c4.1-8.2,6.78-17.23,9.19-26.14c3.92-14.46,5.34-29.27,3.85-44.27c-1.23-12.39-4.09-24.44-7.36-36.4
		c-7.09-25.9-16.99-50.54-32.02-72.98c-12.83-19.15-24.52-39.08-39.93-56.41c-13.87-15.59-28.76-30.03-46.11-41.74
		c-18.51-12.49-38.67-21.52-59.85-28.45c-20.89-6.84-41.96-13.04-63.48-17.54c-6.05-1.26-11.86-3.49-18.61-1.77
		c-12.62,3.21-25.65,4.77-38.31,7.84c-23.54,5.7-46.93,12-70.39,18.02c-16.3,4.19-32.68,7.82-49.62,8.13
		c-0.79,0.01-1.64,0.56-2.34,1.03c-1.59,1.05-3.05,2.3-4.66,3.31c-8.3,5.24-16.84,10.12-24.92,15.69
		c-15.27,10.54-28.22,23.82-41.66,36.49c-11.31,10.67-22.2,21.79-31.13,34.57c-6.52,9.33-12.43,19.08-18.55,28.69
		c-9.37,14.74-18.63,29.59-23.94,46.38c-2.98,9.42-5.61,19.02-7.46,28.71c-2.47,12.97-0.71,25.84,3.23,38.37
		c2.96,9.43,7.37,18.01,15.23,24.44c6.66,5.44,14.35,8.41,22.71,9.8c8.79,1.46,16.98,0.29,24.16-5.51
		c6.36-5.14,10.27-12.15,14.55-18.87c0.39-0.61-0.01-1.91-0.36-2.75c-4.28-10.17-7.91-20.57-9.53-31.49
		c-1.89-12.76-4.5-25.48-3.6-38.62c-1.14-0.08-2.22-0.15-3.36-0.22c-0.1-0.49-0.21-0.83-0.23-1.18
		c-0.82-11.35-0.32-22.67,2.56-33.68c5.93-22.7,14.48-44.47,24.41-65.69c8.35-17.86,20.27-33.18,33.96-47.19
		c0.61-0.62,1.8-0.67,2.73-0.99c-0.17,0.9-0.09,1.98-0.57,2.68c-2.66,3.86-5.35,7.7-8.22,11.4c-20.84,26.85-34.2,57.24-42.64,89.98
		c-0.1,0.37-0.01,0.78-0.01,1.77c3.52-4.76,6.75-8.97,9.82-13.3c10.56-14.87,21.68-29.26,35.55-41.25
		c21.16-18.3,43.38-35.17,67.56-49.32c1.84-1.08,3.79-1.97,5.69-2.94c-3.58,3.82-7.35,7.27-11.43,10.31
		c-7.36,5.49-15.37,10.19-22.28,16.19c-13.18,11.43-25.8,23.52-38.62,35.38c-11.57,10.71-22.06,22.41-31.41,35.12
		c-5.16,7.02-9.75,14.54-17.1,19.67c-0.47,0.33-0.85,1.01-0.97,1.59c-1.31,6.07-2.57,12.15-3.85,18.3c0.43-0.03,0.66,0.02,0.78-0.07
		c0.66-0.49,1.3-1,1.93-1.53c9.71-8.17,20.48-14.61,32.35-19.06c22.89-8.59,42.77-21.93,60.26-38.77
		c19.49-18.76,35.69-40.28,50.67-62.74c1.92-2.88,4.39-5.41,6.7-8.01c0.44-0.5,1.44-0.91,2.05-0.77c1.38,0.32,2.68,1,4.01,1.54
		c6.71,2.69,13.41,5.42,20.13,8.07c6.19,2.45,12.42,4.82,18.73,7.26c3.69-2.85,7.55-5.83,11.35-8.76
		c-7.35-4.51-14.57-8.85-21.68-13.36c-1.58-1-2.78-2.6-4.15-3.92c0.72-0.51,1-0.54,1.21-0.44c10.79,5.38,22.21,9.06,33.7,12.53
		c0.86,0.26,1.94,0.05,2.86-0.17c5.97-1.41,11.9-3.04,17.91-4.29c3.27-0.68,6.11,0.75,6.62,3.09c0.5,2.3,1.01,4.8,0.62,7.06
		c-1.36,7.86-5.48,14.52-9.94,20.96c-2.8,4.05-5.72,8.02-8.39,11.74c6.08,3.92,11.87,7.66,17.23,11.12
		c4.73-5.8,9.61-11.8,14.33-17.58c-4.99-3.21-9.94-6.48-15-9.59c-1.79-1.1-2.27-2.47-1.72-4.88c1.35,0.13,2.93-0.13,4.08,0.46
		c5.46,2.79,10.86,5.72,16.16,8.81c1.31,0.76,1.99,0.7,3.09-0.16c4.98-3.89,9.98-7.75,15.06-11.52c2.84-2.11,5.26-1.76,7.78,0.87
		C364.78,167,365.4,167.77,366.05,168.52z M232.3,153.76c-4.15,5.94-7.84,12.01-12.31,17.45c-12.84,15.62-25.7,31.23-39.1,46.37
		c-12.95,14.63-28.27,26.56-45.57,35.67c-11.76,6.19-23.97,11.49-35.86,17.44c-6.89,3.44-13.71,7.09-19.13,12.81
		c-1.13,1.19-1.41,2.25-1.15,3.91c0.77,4.98,1.26,10.01,1.82,15.02c1.03,9.21,1.56,18.51,3.17,27.61
		c2.03,11.5,5.28,22.83,10.72,33.17c9.85,18.72,23.43,34.52,40.26,47.34c15.89,12.1,32.89,22.49,50.7,31.52
		c16.69,8.46,33.93,15.57,51.82,21.14c12.55,3.91,25.27,7.1,38.36,8.16c11.43,0.93,22.93,1.12,34.41,1.29
		c14,0.21,27.88-1.54,41.65-3.86c17.75-2.98,35.22-7.24,52.09-13.61c15.74-5.95,31.06-12.82,44.76-22.77
		c13.93-10.12,26.69-21.62,38.45-34.18c8.33-8.89,15.61-18.65,20.46-29.89c3.77-8.75,6.79-17.82,10.15-26.75
		c0.86-2.29,2.58-4.54,0.2-6.95c-0.21-0.21-0.3-0.75-0.19-1.06c0.78-2.27-0.6-3.87-1.7-5.51c-2.11-3.12-4.07-6.38-6.5-9.24
		c-3.67-4.33-7.02-9.42-11.67-12.34c-14.52-9.11-30.11-16.24-46.05-22.6c-11.47-4.58-23.05-8.95-34.24-14.14
		c-16.91-7.84-31.63-19.27-46.89-29.79c-6.86-4.73-13.63-9.57-20.55-14.44c-0.99,0.87-2,1.67-2.9,2.57
		c-2.43,2.44-5.32,3.44-8.74,3.17c-12.43-0.97-21.04-10.91-20.2-23.28c0.06-0.81-0.06-2.02-0.57-2.42
		c-5.81-4.47-11.71-8.81-17.52-13.14c-11.45,8.17-17.45,8.78-25.41,2.7c-3.98-3.04-6.81-6.86-8.15-11.77
		c-1.51-5.55-0.65-10.68,2.68-15.58C256.32,164.68,243.94,160.14,232.3,153.76z M346.97,490.1c-1.11,0.47-1.77,0.73-2.41,1.03
		c-5.23,2.43-10.28,5.37-15.71,7.2c-12.49,4.2-25.15,7.91-37.78,11.68c-1.23,0.37-3.26,0.21-4.06-0.58
		c-1.73-1.7-3.14-3.85-4.25-6.04c-2.68-5.29-5.12-10.71-7.74-16.27c-4.39,6.71-8.69,13.28-13.07,19.96
		c-16.95-6.34-33.97-11.94-49.23-22.18c-0.5,3.87-0.81,7.44-1.44,10.96c-2.73,15.4-4.72,30.85-5.37,46.51
		c-0.73,17.71,1.43,35.03,5.48,52.2c0.41,1.74,1.18,1.93,2.64,1.89c8.17-0.25,16.35-0.33,24.52-0.66
		c21.1-0.85,42.19-1.88,63.29-2.66c15.6-0.58,31.18-1.29,46.66-3.45c1.79-0.25,2.16-0.9,2.39-2.51c1.55-10.91,1.16-21.83,0.5-32.76
		c-1.05-17.34-2.08-34.68-3.19-52.02C347.95,498.41,347.41,494.43,346.97,490.1z M196.96,682.6c0.94,0,2.01,0.03,3.08,0
		c13.13-0.44,26.25-1.21,39.38-1.27c20.14-0.09,40.28,0.2,60.41,0.52c12.25,0.19,24.43-0.4,36.59-1.87
		c10.55-1.27,21.12-2.38,31.73-3.57c0.01-0.04,0.12-0.22,0.1-0.38c-2-11.96-3.99-23.91-6.08-35.85c-0.14-0.78-0.82-1.67-1.5-2.13
		c-5.53-3.76-8.88-8.59-8.09-15.61c0.05-0.42-0.05-0.85-0.05-0.82c-23.64,3.09-47.27,4.31-70.88,5.11
		c-23.66,0.8-47.37,0.18-70.75,0.18C206.28,645.4,201.65,663.88,196.96,682.6z M357.99,615.37c-0.15,2.15-0.44,4.34-0.44,6.53
		c-0.01,4.99,2.25,8.57,6.92,10.49c4.45,1.82,8.76,1.39,13-0.76c1.37-0.69,2.84-1.64,4.27-1.63c2.13,0.01,3.45-0.85,4.58-2.43
		c1.02-1.42,2.13-2.77,3.05-4.25c6.58-10.53,7.36-22.25,6.03-34.05c-1.04-9.28-3.43-18.39-4.97-27.62
		c-4.66-27.9-15.9-53.07-31.31-76.54c-0.52-0.8-1.18-1.5-1.46-1.84c-2.99,2.04-5.66,3.86-8.14,5.55c0.72,2.5,1.91,5.12,2.18,7.84
		c1.51,15.11,2.7,30.24,4.18,45.35c1.67,17.13,2.24,36.33-1.03,55.46c-0.64,3.75,0.98,7.91,1.75,11.85
		c0.34,1.75,1.71,1.46,2.77,0.64c2.1-1.62,4.31-3.18,6.12-5.11c2.05-2.19,3.72-4.75,5.56-7.17
		C371.35,607.42,367.57,612.55,357.99,615.37z M335.96,31.83c-1.72,1.17-3.44,2.55-5.36,3.57c-1.93,1.03-4.08,1.62-6.09,2.52
		c-21.91,9.8-45.08,15.5-68.4,20.47c-21.91,4.67-43.97,8.65-66.04,12.55c-15.09,2.66-30.27,5.3-45.69,4.61
		c-4.37-0.19-9.03,0.61-13.13-2c-0.44-0.28-1.6,0.37-2.28,0.81c-0.14,0.09,0.18,1.32,0.58,1.75c1.24,1.35,2.86,2.4,3.89,3.88
		c3.35,4.82,6.55,9.74,9.71,14.68c2.44,3.8,2.37,3.83,6.67,3.1c1.08-0.19,2.18-0.3,3.28-0.38c4.67-0.31,9.41-0.19,14-0.95
		c14.39-2.37,28.77-4.84,43.07-7.68c23.12-4.58,46.18-9.43,69.24-14.27c16.25-3.41,32.41-7.18,47.35-14.79
		c1.01-0.51,2.15-1.54,2.44-2.55C331.58,48.7,333.75,40.2,335.96,31.83z M205.25,619.73c1.53-11.22,0.61-22.29-1.71-33.33
		c-1.43-6.81-2.98-13.66-3.6-20.57c-0.54-6,0.3-12.11,0.27-18.18c-0.08-16.23,1.32-32.33,4.23-48.28
		c1.08-5.93,2.64-11.77,3.95-17.51c-0.1,0.07-0.59,0.36-0.98,0.75c-2.85,2.81-5.72,5.6-8.49,8.49c-3.17,3.29-6.68,6.37-9.28,10.07
		c-9.65,13.79-15.66,29.2-19.38,45.56c-4.06,17.9-6.82,35.94-5.65,54.39c0.82,13,5.61,24.05,15.93,32.38
		c5.01,4.05,14.39,4.64,19.47-1.23c0.73-0.85,1.24-2.3,1.13-3.4c-0.55-5.95-3.06-11.03-7.2-15.38c-1.48-1.55-2.51-3.53-3.75-5.31
		c0.36-0.31,0.73-0.61,1.09-0.92C195.9,611.37,200.51,615.49,205.25,619.73z M302.54,745.6c4.58,5.26,8.03,11.1,9.57,18.03
		c0.96,4.29,0.52,7.78-2.33,11.5c-6.74,8.8-6.7,18.76-0.5,27.9c0.59,0.87,1.74,1.87,2.68,1.92c2.92,0.16,5.94,0.28,8.79-0.27
		c7.81-1.5,15.64-3.07,23.31-5.14c11.96-3.24,23.63-7.36,34.54-13.34c0.89-0.49,1.74-1.92,1.77-2.93c0.09-4.15-1.51-7.86-3.63-11.36
		c-2.66-4.39-5.56-8.67-7.92-13.22c-4.93-9.51-10.5-18.54-17.89-26.35c-1.67-1.77-3.5-3.39-5.06-4.89
		c-4.51,2.16-8.63,3.93-12.56,6.05c-8.44,4.57-17.26,7.61-26.95,7.82c-0.82,0.02-1.78,0.8-2.39,1.49
		C303.34,743.54,303.05,744.57,302.54,745.6z M223.61,740.45c0.67,7.41,1.17,14.65,2.03,21.86c1.06,8.85-0.6,16.81-6.73,23.55
		c-0.43,0.47-0.98,0.95-1.15,1.52c-1.17,3.82-2.4,7.64-3.33,11.53c-1.11,4.67,1.49,8.82,6,9.32c7.02,0.78,14.06,1.39,21.11,1.76
		c13.17,0.68,26.21-0.84,39.19-2.87c1.11-0.17,2.63-1.09,2.98-2.02c0.74-1.97,1.53-4.35,1.06-6.25c-1.56-6.28-3.12-12.66-5.69-18.56
		c-4.54-10.42-6.85-21.07-5.79-32.4c0.33-3.52,0.85-7.02,1.36-11.22C257.42,737.93,240.71,739.17,223.61,740.45z M208.1,64.54
		c-12.65-8.77-13.37-27.98-3.28-38.86c7.34-7.91,16.34-12.26,27.28-11.66c16.79,0.91,32.18,18.39,21.92,37.43
		c-0.7,1.3-1.31,2.65-2.1,4.25c15.69-3.35,30.93-6.7,46.08-11.89c-1.49-2.49-2.54-4.9-4.15-6.82c-7.17-8.53-14.85-16.59-24.19-22.81
		c-6.19-4.12-12.58-8.06-20.09-9.21c-18.47-2.82-34.7,2.59-48.18,15.1c-12.73,11.81-20.75,26.98-27.44,42.83
		c-1,2.38-1.66,4.91-2.67,7.93C183.94,68.67,195.83,66.64,208.1,64.54z M309.61,619.53c-6.75-10.36-1.54-16.38,7.01-21.37
		c-17.62,1.24-34.82,2.93-52.05,3.53c-17.29,0.61-34.62,0.13-51.75,0.13c-0.61,6.61-1.2,13.12-1.86,20.26
		C243.73,621.24,276.44,620.39,309.61,619.53z M193.9,692.52c1.2,0.29,2.24,0.62,3.29,0.77c7.33,1.07,14.66,2.9,22.01,2.96
		c11.8,0.1,23.61-1.08,35.43-1.52c12.21-0.46,24.43-0.99,36.64-0.96c21.15,0.04,42.24-0.85,63.31-2.6
		c5.09-0.42,10.17-0.91,15.37-1.37c-0.18-1.59-0.6-3.07-0.46-4.5c0.28-2.91-1.26-3.18-3.51-2.87c-5.64,0.8-11.26,1.78-16.93,2.27
		c-12.8,1.12-25.6,2.36-38.42,2.86c-11.1,0.43-22.25,0.02-33.37-0.27c-8.26-0.21-16.5-1.05-24.76-1.2c-9-0.16-18.01,0.12-27.02,0.29
		c-10.04,0.19-19.92,3.69-30.15,1.1C194.81,689.31,194.37,690.86,193.9,692.52z M335.91,699.88c-12.02,0.33-24.48,0.65-36.93,1.09
		c-0.61,0.02-1.56,1.1-1.72,1.82c-0.98,4.47-1.84,8.98-2.59,13.49c-0.18,1.09-0.07,2.42,0.41,3.38c2.31,4.58,4.7,9.14,7.3,13.56
		c0.55,0.93,2.1,1.75,3.21,1.79c7.3,0.23,14.1-2.09,20.67-4.9c5.01-2.15,9.72-5,14.79-7.65c-2.09-2.53-4.06-4.69-5.75-7.06
		c-0.79-1.11-1.55-2.67-1.41-3.92C334.32,707.64,335.19,703.84,335.91,699.88z M225.57,702.14c0.95,11.14,1.86,21.86,2.8,32.86
		c12.75-1.31,25.12-2.58,38.06-3.91c0-9.84,0-19.46,0-28.95C252.73,702.14,239.1,702.14,225.57,702.14z M339.86,227.59
		c2.76,0.69,5.12-0.76,6.94-3.18c2.14-2.84,4.56-5.58,6.07-8.74c4.67-9.78,7.64-20.16,10-30.74c1.11-4.96,1.64-9.74-0.44-14.55
		c-1.54-3.57-2.5-4.08-5.64-1.74c-5.87,4.37-11.74,8.81-17.22,13.65c-6.07,5.36-11.5,11.36-15.15,18.74
		c-0.61,1.23-1.43,2.36,0.01,3.7c0.28,0.26-0.21,2.08-0.62,2.2c-2.72,0.79-2.38,2.97-2.38,4.91
		C321.4,220.24,329.83,227.58,339.86,227.59z M324.04,76.42c-4.35,1.19-8.36,2.47-12.44,3.38c-22.12,4.92-44.24,9.91-66.42,14.56
		c-15.36,3.22-30.79,6.11-46.24,8.81c-12.57,2.2-25.21,3.95-37.84,5.76c-2.46,0.35-5.02,0.05-7.74,0.05
		c2.27,5.41,7.17,9.31,11.2,8.81c7.74-0.95,15.56-1.65,23.15-3.35c15.45-3.48,30.77-7.57,46.15-11.37
		c15.65-3.86,31.28-7.85,46.99-11.46c12.76-2.93,25.63-5.38,37.61-7.87c1.01-1.25,1.55-2.52,2.15-2.55
		C323.52,81.07,323.96,79.23,324.04,76.42z M268.88,177.78c0.63,5.62,2.72,10.13,6.52,13.77c6.37,6.1,12.81,6.41,19.71,0.93
		c1.99-1.58,3.83-3.48,5.33-5.54c3.95-5.41,7.98-10.81,11.4-16.56c2.64-4.44,5.13-9.22,6.38-14.17c1.51-6.04,0.8-8.26-6.62-6.74
		c-6.74,1.38-13.14,3.59-19.51,6.34c-7.98,3.45-14.78,8.07-20.03,14.87C270.52,172.68,269.91,175.39,268.88,177.78z M327.62,63.93
		c-0.87,0.25-1.29,0.35-1.69,0.5c-6.39,2.26-12.66,5.05-19.2,6.7c-17.16,4.34-34.37,8.49-51.68,12.17
		c-20.55,4.37-41.19,8.37-61.85,12.16c-11.28,2.07-22.68,3.46-34.04,5.02c-3.66,0.5-7.39,0.57-11.47,0.86
		c1.32,1.98,2.46,3.69,3.48,5.23c6.31-0.65,12.46-1,18.52-1.96c10.95-1.75,21.85-3.83,32.76-5.84c14.25-2.62,28.54-5.03,42.71-8.02
		c17.48-3.69,34.87-7.8,52.27-11.87c8.82-2.06,17.57-4.4,26.34-6.68c0.81-0.21,1.92-0.76,2.15-1.41
		C326.63,68.69,327.01,66.45,327.62,63.93z M209.89,461.69c0,2.02,0.6,4.5-0.12,6.51c-1.87,5.26,1.61,7.42,4.89,9.88
		c0.44,0.33,0.86,0.71,1.34,0.96c7.39,3.83,14.75,7.7,22.18,11.43c4.62,2.32,9.31,4.48,14.04,6.56c1.74,0.77,3.74,0.96,5.51,1.67
		c1.54,0.62,2.27,0.18,3.07-1.16c2.89-4.79,5.86-9.53,8.87-14.25c1.2-1.88,2.57-3.66,3.99-5.66c-8.23-1.29-16.04-2.52-23.86-3.74
		c0.5,1.47,1.25,2.47,2.16,3.3c2.61,2.38,3.32,4.56,1.31,7.33c-1.44,1.98-3.76,3.36-5.82,4.81c-0.41,0.29-1.64-0.1-2.13-0.56
		c-0.34-0.32-0.31-1.49,0.02-1.96c1.41-2.01,2.99-3.9,4.6-5.95c-1.17-2.48-5.68-3.51-3.99-6.97
		C233.81,469.78,221.81,465.72,209.89,461.69z M351.57,476.42c-24.22,3.05-48.46,3.57-73.1,1.29c0.34,0.96,0.45,1.39,0.64,1.78
		c2.58,5.57,5.24,11.11,7.76,16.71c2.79,6.21,2.75,6.25,9.22,4.31c4.94-1.48,9.86-3.02,14.91-4.57c-2.77-1.97-5.29-3.6-7.62-5.46
		c-1.77-1.41-1.56-3.2,0.19-4.29c2.62-1.64,5.16-3.42,7.84-4.96c0.69-0.4,2.02-0.45,2.6-0.02c0.45,0.33,0.56,1.87,0.18,2.46
		c-1.11,1.73-2.55,3.26-3.91,4.94c1.58,1.98,4.34,3.67,1.6,7.25c2.48-0.82,4.43-1.47,7.07-2.34c-1.08-0.42-1.31-0.55-1.55-0.59
		c-2.33-0.35-3.45-1.9-3.94-4.02c-0.5-2.16,0.91-3.17,2.52-4.07c1.2-0.67,2.45-1.31,3.51-2.17c1.69-1.38,2.92-1.09,4.1,0.83
		c-0.74,0.84-1.53,1.6-2.14,2.5c-0.36,0.53-0.77,1.46-0.54,1.89c0.8,1.56,1.87,2.99,2.87,4.53
		C334.17,489.29,343.6,484.27,351.57,476.42z M200.72,44.97c0.51,2.42,0.71,4.96,1.58,7.24c3.12,8.24,7.41,11.28,16.65,10.11
		c7.99-1.01,15.8-3.33,23.76-4.64c3.44-0.56,5.46-2.22,7.28-4.96c7.61-11.47,4.9-24.64-6.93-31.62c-8.66-5.11-17.62-4.76-26.57-0.47
		C206.53,25.42,200.23,35.21,200.72,44.97z M322.32,597.76c-0.08,0.21-0.17,0.42-0.25,0.64c4.57,0.66,7.45,2.95,8.25,7.55
		c0.74,4.26-0.5,7.99-2.89,11.73c8.67-1.29,16.93-2.52,25.21-3.75c-3.08-5.56-3.6-11.76-3.27-18.16
		C340.11,596.45,331.22,597.11,322.32,597.76z M335.31,29.83c-13.8-1.67-26.14,2.35-38.79,4.57c1.48,2.33,2.94,4.32,4.04,6.49
		c0.81,1.6,1.53,1.81,3.18,1.17c9.04-3.51,18.14-6.87,27.21-10.31C332.24,31.26,333.48,30.64,335.31,29.83z M170.71,60.61
		c-12.37,3.62-24.23,7.08-36.51,10.67c0.71,0.5,0.84,0.67,0.99,0.69c10.74,1.18,21.46,0.65,32.16-0.48
		c0.56-0.06,1.42-0.68,1.53-1.17C169.54,67.39,170.02,64.42,170.71,60.61z M311.21,611.93c1,1.27,1.79,2.81,3.04,3.75
		c1.8,1.35,4.08,2.06,6.09,0.46c1.83-1.45,3.53-3.15,4.99-4.98c1.66-2.09,0.98-4.47-1.21-6.04
		C318.27,600.92,311.86,606.59,311.21,611.93z"/>
	<path class="st0" d="M232.3,153.76c11.64,6.38,24.02,10.92,37.28,14.01c-3.33,4.9-4.19,10.03-2.68,15.58
		c1.33,4.91,4.16,8.73,8.15,11.77c7.96,6.08,13.97,5.47,25.41-2.7c5.81,4.32,11.71,8.67,17.52,13.14c0.52,0.4,0.63,1.61,0.57,2.42
		c-0.84,12.37,7.77,22.31,20.2,23.28c3.42,0.27,6.32-0.73,8.74-3.17c0.9-0.91,1.91-1.7,2.9-2.57c6.92,4.87,13.7,9.71,20.55,14.44
		c15.25,10.53,29.98,21.96,46.89,29.79c11.2,5.19,22.77,9.57,34.24,14.14c15.93,6.36,31.53,13.49,46.05,22.6
		c4.65,2.92,8,8.01,11.67,12.34c2.42,2.86,4.39,6.12,6.5,9.24c1.11,1.64,2.49,3.24,1.7,5.51c-0.1,0.3-0.02,0.84,0.19,1.06
		c2.39,2.4,0.67,4.66-0.2,6.95c-3.36,8.93-6.38,18-10.15,26.75c-4.85,11.24-12.13,21-20.46,29.89
		c-11.76,12.56-24.52,24.06-38.45,34.18c-13.7,9.95-29.02,16.83-44.76,22.77c-16.87,6.37-34.34,10.63-52.09,13.61
		c-13.77,2.31-27.65,4.06-41.65,3.86c-11.48-0.17-22.98-0.36-34.41-1.29c-13.08-1.06-25.8-4.25-38.36-8.16
		c-17.89-5.57-35.12-12.68-51.82-21.14c-17.81-9.03-34.81-19.42-50.7-31.52c-16.83-12.82-30.42-28.62-40.26-47.34
		c-5.44-10.34-8.7-21.67-10.72-33.17c-1.61-9.11-2.14-18.4-3.17-27.61c-0.56-5.01-1.05-10.04-1.82-15.02
		c-0.26-1.66,0.02-2.72,1.15-3.91c5.42-5.71,12.24-9.36,19.13-12.81c11.89-5.95,24.1-11.25,35.86-17.44
		c17.3-9.1,32.62-21.04,45.57-35.67c13.4-15.13,26.26-30.75,39.1-46.37C224.46,165.77,228.15,159.69,232.3,153.76z M464.51,333.93
		c-0.7-10.96-5.68-21.66-17.01-28.34c-7.27-4.28-15.14-7.79-23.86-3.29c-0.48,0.25-1.09,0.22-1.58,0.43c-2.33,1-4.82,1.77-6.94,3.12
		c-7.54,4.79-11.37,12.34-14.08,20.45c-3.43,10.28-1.07,20.11,3.11,29.68c6.02,13.8,16.38,21.08,31.57,20.77
		c9.52-0.19,16.54-4.9,21.38-12.95C462.23,355.23,464.21,345.79,464.51,333.93z M143.3,347.49c3.82-0.85,7.76-1.35,11.44-2.61
		c11.28-3.86,17.5-12.46,21.07-23.39c4.86-14.9,2.15-28.25-8.11-40.05c-4.19-4.81-9.74-7.24-15.74-9.05
		c-4.45-1.34-7.85,1.11-11.45,2.52c-3.52,1.38-6.93,3.36-9.98,5.63c-15.78,11.75-21.81,36.58-9.46,53.62
		C126.54,341.7,133.26,347.11,143.3,347.49z M300.27,334.23c0.84-4.59-1.63-7.34-5.98-9.1c-6.49-2.62-13.16-2.53-19.76-1.16
		c-2.18,0.45-3.96,2.72-6,4.03c-0.78,0.5-1.86,1.05-2.67,0.9c-8.07-1.53-16.13-2.46-24.36-1.39c-15.59,2.02-26.42,17.6-22.98,32.96
		c2.15,9.6,8.66,15.26,16.82,19.51c5.28,2.75,10.95,4.19,16.94,4.08c7.04-0.13,14.08-0.44,21.12-0.46c3.25-0.01,6.59,0.1,9.73,0.85
		c4.43,1.06,8.65,2.98,13.07,4.16c8.71,2.33,17.52,4.35,26.56,1.97c13.24-3.48,23.74-10.15,27.6-24.36
		c2.75-10.1,0.21-17.61-8.41-23.47c-8.07-5.48-17.04-8.39-26.84-8.51C310.26,334.18,305.42,334.23,300.27,334.23z"/>
	<path class="st0" d="M366.05,168.52c-0.65-0.75-1.27-1.52-1.95-2.24c-2.52-2.63-4.94-2.98-7.78-0.87
		c-5.07,3.77-10.08,7.63-15.06,11.52c-1.1,0.86-1.78,0.93-3.09,0.16c-5.3-3.09-10.7-6.02-16.16-8.81c-1.15-0.59-2.72-0.33-4.08-0.46
		c-0.55,2.41-0.07,3.77,1.72,4.88c5.05,3.11,10.01,6.39,15,9.59c-4.71,5.78-9.6,11.78-14.33,17.58
		c-5.35-3.46-11.15-7.19-17.23-11.12c2.67-3.73,5.59-7.69,8.39-11.74c4.45-6.44,8.57-13.1,9.94-20.96c0.39-2.26-0.11-4.76-0.62-7.06
		c-0.51-2.34-3.36-3.77-6.62-3.09c-6.01,1.25-11.93,2.87-17.91,4.29c-0.92,0.22-2,0.43-2.86,0.17c-11.49-3.47-22.91-7.16-33.7-12.53
		c-0.21-0.11-0.49-0.08-1.21,0.44c1.37,1.32,2.58,2.92,4.15,3.92c7.11,4.51,14.33,8.86,21.68,13.36c-3.8,2.93-7.66,5.91-11.35,8.76
		c-6.31-2.44-12.53-4.82-18.73-7.26c-6.73-2.66-13.42-5.38-20.13-8.07c-1.33-0.53-2.63-1.22-4.01-1.54
		c-0.61-0.14-1.61,0.27-2.05,0.77c-2.32,2.6-4.78,5.13-6.7,8.01c-14.98,22.46-31.18,43.97-50.67,62.74
		c-17.49,16.85-37.37,30.18-60.26,38.77c-11.87,4.45-22.64,10.89-32.35,19.06c-0.63,0.53-1.27,1.04-1.93,1.53
		c-0.12,0.09-0.35,0.04-0.78,0.07c1.28-6.15,2.54-12.23,3.85-18.3c0.13-0.58,0.5-1.26,0.97-1.59c7.35-5.13,11.94-12.65,17.1-19.67
		c9.35-12.71,19.84-24.4,31.41-35.12c12.81-11.86,25.43-23.95,38.62-35.38c6.91-5.99,14.92-10.7,22.28-16.19
		c4.08-3.04,7.85-6.5,11.43-10.31c-1.9,0.98-3.85,1.86-5.69,2.94c-24.18,14.15-46.4,31.03-67.56,49.32
		c-13.87,11.99-24.99,26.38-35.55,41.25c-3.07,4.33-6.3,8.54-9.82,13.3c0-0.99-0.08-1.41,0.01-1.77
		c8.44-32.73,21.8-63.12,42.64-89.98c2.87-3.7,5.56-7.54,8.22-11.4c0.48-0.69,0.39-1.77,0.57-2.68c-0.92,0.32-2.12,0.37-2.73,0.99
		c-13.7,14.01-25.61,29.34-33.96,47.19c-9.93,21.23-18.48,42.99-24.41,65.69c-2.88,11.01-3.38,22.33-2.56,33.68
		c0.03,0.35,0.13,0.69,0.23,1.18c1.14,0.07,2.21,0.15,3.36,0.22c-0.91,13.14,1.71,25.86,3.6,38.62c1.61,10.91,5.25,21.32,9.53,31.49
		c0.35,0.84,0.75,2.15,0.36,2.75c-4.28,6.72-8.19,13.73-14.55,18.87c-7.18,5.8-15.37,6.97-24.16,5.51
		c-8.37-1.39-16.06-4.36-22.71-9.8c-7.86-6.43-12.27-15.01-15.23-24.44c-3.94-12.53-5.7-25.41-3.23-38.37
		c1.84-9.7,4.48-19.29,7.46-28.71c5.3-16.79,14.57-31.64,23.94-46.38c6.11-9.61,12.03-19.36,18.55-28.69
		c8.93-12.78,19.83-23.9,31.13-34.57c13.43-12.68,26.38-25.96,41.66-36.49c8.07-5.57,16.61-10.46,24.92-15.69
		c1.61-1.02,3.07-2.26,4.66-3.31c0.71-0.47,1.55-1.01,2.34-1.03c16.94-0.31,33.32-3.95,49.62-8.13
		c23.46-6.03,46.85-12.32,70.39-18.02c12.66-3.07,25.69-4.63,38.31-7.84c6.74-1.72,12.56,0.51,18.61,1.77
		c21.52,4.5,42.59,10.7,63.48,17.54c21.18,6.93,41.34,15.96,59.85,28.45c17.35,11.71,32.24,26.14,46.11,41.74
		c15.42,17.33,27.1,37.26,39.93,56.41c15.03,22.44,24.93,47.08,32.02,72.98c3.28,11.96,6.13,24.01,7.36,36.4
		c1.49,15,0.06,29.81-3.85,44.27c-2.41,8.9-5.09,17.94-9.19,26.14c-8.3,16.61-22.58,24.68-41.02,25.67
		c-6.48,0.35-12.57-1.22-18.56-3.33c-8.93-3.16-14.2-12.59-12.02-21.82c2.15-9.09,3.45-18.24,3.27-27.59
		c-0.01-0.63,0.02-1.32,0.28-1.87c5.65-11.94,11.4-23.82,16.97-35.8c1.49-3.21,3.6-6.75,3.4-10.01c-0.31-4.96,1.83-8.82,3.04-13.2
		c1.69-6.13,2.3-12.63,2.72-19.01c1.02-15.47-0.29-30.87-1.88-46.27c-1.06-10.23-1.35-20.54-4.05-30.57
		c-2.47-9.18-6.01-17.89-10.75-26.13c-0.31-0.54-0.72-1.04-1.43-1.41c1.27,4.12,2.63,8.21,3.79,12.36
		c3.29,11.75,4.45,23.84,5.53,35.92c1.14,12.82,2.25,25.66,2.94,38.51c0.48,8.96,1.77,18.02-0.68,26.89
		c-1.02,3.68-2.51,7.22-4.06,11.59c-1.44-2.88-2.53-4.96-3.54-7.08c-5.61-11.75-14.78-19.85-26.45-25.06
		c-19.83-8.85-39.94-17.06-59.63-26.19c-10.29-4.77-20.08-10.69-29.84-16.52c-11.89-7.11-23.5-14.71-35.27-22.03
		c-3.19-1.98-6.54-3.73-9.84-5.53c-3.14-1.7-3.64-3.63-2.26-6.9c2.52-5.98,4.8-12.06,7.31-18.42c2.16,1.19,4.86,2.49,7.35,4.1
		c9.16,5.94,18.1,12.25,27.42,17.93c15.65,9.55,31.28,19.2,47.39,27.93c13.32,7.22,26.38,14.75,39.18,22.86
		c8.45,5.35,17.93,9.08,26.93,13.57c0.71,0.36,1.26,1.04,1.98,1.39c0.85,0.41,1.87,0.97,2.68,0.8c0.51-0.11,1.21-1.52,1.07-2.19
		c-0.63-2.91-0.88-6.2-2.46-8.55c-5.9-8.77-12.05-17.48-20.09-24.44c-8.41-7.27-17.02-14.37-26.02-20.88
		c-21.45-15.51-43.32-30.45-64.75-46c-9.42-6.84-19.1-13.02-29.93-17.32c-1.53-0.61-3.12-1.1-4.61-1.78
		c-1.68-0.77-2.4-0.18-2.57,1.5L366.05,168.52z"/>
	<path class="st0" d="M346.97,490.1c0.44,4.33,0.98,8.31,1.24,12.31c1.11,17.34,2.14,34.68,3.19,52.02
		c0.66,10.93,1.05,21.85-0.5,32.76c-0.23,1.62-0.59,2.26-2.39,2.51c-15.48,2.16-31.06,2.88-46.66,3.45
		c-21.1,0.78-42.19,1.82-63.29,2.66c-8.17,0.33-16.35,0.41-24.52,0.66c-1.45,0.04-2.23-0.15-2.64-1.89
		c-4.04-17.17-6.21-34.49-5.48-52.2c0.65-15.66,2.64-31.11,5.37-46.51c0.62-3.52,0.94-7.09,1.44-10.96
		c15.26,10.24,32.28,15.85,49.23,22.18c4.37-6.68,8.67-13.25,13.07-19.96c2.62,5.56,5.06,10.97,7.74,16.27
		c1.11,2.19,2.52,4.33,4.25,6.04c0.8,0.79,2.83,0.94,4.06,0.58c12.63-3.76,25.29-7.47,37.78-11.68c5.43-1.83,10.48-4.77,15.71-7.2
		C345.21,490.83,345.86,490.57,346.97,490.1z"/>
	<path class="st0" d="M196.96,682.6c4.69-18.72,9.32-37.2,13.96-55.71c23.38,0,47.09,0.63,70.75-0.18
		c23.6-0.8,47.24-2.02,70.88-5.11c0-0.03,0.1,0.4,0.05,0.82c-0.79,7.02,2.56,11.85,8.09,15.61c0.68,0.46,1.36,1.35,1.5,2.13
		c2.08,11.94,4.07,23.9,6.08,35.85c0.03,0.16-0.09,0.35-0.1,0.38c-10.61,1.19-21.18,2.3-31.73,3.57
		c-12.16,1.46-24.34,2.06-36.59,1.87c-20.14-0.31-40.28-0.61-60.41-0.52c-13.13,0.06-26.25,0.83-39.38,1.27
		C198.97,682.63,197.89,682.6,196.96,682.6z"/>
	<path class="st0" d="M357.99,615.37c9.59-2.81,13.36-7.95,13.04-17.71c-1.85,2.42-3.51,4.98-5.56,7.17
		c-1.8,1.92-4.01,3.48-6.12,5.11c-1.06,0.82-2.43,1.11-2.77-0.64c-0.77-3.93-2.39-8.1-1.75-11.85c3.27-19.13,2.7-38.33,1.03-55.46
		c-1.47-15.11-2.67-30.25-4.18-45.35c-0.27-2.72-1.46-5.34-2.18-7.84c2.48-1.69,5.15-3.52,8.14-5.55c0.27,0.34,0.93,1.05,1.46,1.84
		c15.41,23.47,26.66,48.64,31.31,76.54c1.54,9.23,3.93,18.35,4.97,27.62c1.33,11.81,0.55,23.53-6.03,34.05
		c-0.92,1.48-2.04,2.83-3.05,4.25c-1.12,1.57-2.44,2.43-4.58,2.43c-1.42,0-2.9,0.94-4.27,1.63c-4.24,2.16-8.56,2.59-13,0.76
		c-4.67-1.92-6.93-5.5-6.92-10.49C357.55,619.71,357.83,617.52,357.99,615.37z"/>
	<path class="st0" d="M335.96,31.83c-2.2,8.37-4.38,16.87-6.75,25.32c-0.28,1.01-1.43,2.04-2.44,2.55
		c-14.94,7.61-31.1,11.38-47.35,14.79c-23.07,4.84-46.13,9.69-69.24,14.27c-14.3,2.84-28.68,5.31-43.07,7.68
		c-4.59,0.76-9.33,0.64-14,0.95c-1.1,0.07-2.2,0.19-3.28,0.38c-4.3,0.74-4.24,0.71-6.67-3.1c-3.16-4.94-6.36-9.86-9.71-14.68
		c-1.03-1.48-2.65-2.53-3.89-3.88c-0.4-0.44-0.72-1.66-0.58-1.75c0.68-0.44,1.84-1.09,2.28-0.81c4.11,2.61,8.76,1.8,13.13,2
		c15.43,0.69,30.6-1.94,45.69-4.61c22.06-3.89,44.13-7.88,66.04-12.55c23.32-4.97,46.49-10.67,68.4-20.47c2-0.9,4.16-1.5,6.09-2.52
		C332.52,34.38,334.23,33,335.96,31.83z"/>
	<path class="st0" d="M205.25,619.73c-4.74-4.24-9.35-8.36-13.96-12.48c-0.36,0.31-0.73,0.61-1.09,0.92
		c1.24,1.78,2.27,3.76,3.75,5.31c4.13,4.35,6.64,9.43,7.2,15.38c0.1,1.1-0.4,2.55-1.13,3.4c-5.08,5.87-14.46,5.28-19.47,1.23
		c-10.31-8.33-15.1-19.38-15.93-32.38c-1.17-18.45,1.59-36.48,5.65-54.39c3.71-16.36,9.72-31.78,19.38-45.56
		c2.6-3.71,6.11-6.78,9.28-10.07c2.77-2.88,5.64-5.67,8.49-8.49c0.39-0.39,0.89-0.67,0.98-0.75c-1.31,5.75-2.87,11.59-3.95,17.51
		c-2.9,15.95-4.31,32.05-4.23,48.28c0.03,6.06-0.81,12.17-0.27,18.18c0.62,6.91,2.17,13.75,3.6,20.57
		C205.86,597.44,206.79,608.51,205.25,619.73z"/>
	<path class="st0" d="M302.54,745.6c0.5-1.02,0.8-2.05,1.44-2.78c0.6-0.69,1.57-1.47,2.39-1.49c9.69-0.21,18.52-3.25,26.95-7.82
		c3.93-2.13,8.05-3.9,12.56-6.05c1.56,1.5,3.39,3.12,5.06,4.89c7.39,7.81,12.96,16.84,17.89,26.35c2.36,4.55,5.26,8.82,7.92,13.22
		c2.12,3.5,3.72,7.21,3.63,11.36c-0.02,1.01-0.88,2.44-1.77,2.93c-10.91,5.98-22.59,10.1-34.54,13.34
		c-7.67,2.08-15.5,3.64-23.31,5.14c-2.85,0.55-5.87,0.43-8.79,0.27c-0.94-0.05-2.09-1.04-2.68-1.92c-6.2-9.14-6.24-19.11,0.5-27.9
		c2.85-3.72,3.28-7.21,2.33-11.5C310.57,756.7,307.13,750.86,302.54,745.6z"/>
	<path class="st0" d="M223.61,740.45c17.09-1.27,33.81-2.52,51.05-3.8c-0.52,4.21-1.03,7.7-1.36,11.22
		c-1.06,11.33,1.25,21.98,5.79,32.4c2.57,5.9,4.13,12.28,5.69,18.56c0.47,1.9-0.32,4.29-1.06,6.25c-0.35,0.94-1.87,1.85-2.98,2.02
		c-12.98,2.04-26.02,3.55-39.19,2.87c-7.05-0.36-14.09-0.98-21.11-1.76c-4.51-0.5-7.11-4.65-6-9.32c0.93-3.89,2.16-7.7,3.33-11.53
		c0.18-0.57,0.72-1.05,1.15-1.52c6.13-6.74,7.79-14.7,6.73-23.55C224.78,755.1,224.29,747.85,223.61,740.45z"/>
	<path class="st0" d="M366.18,168.4c5.46,2.98,11.2,5.53,16.3,9.03c9.54,6.54,18.65,13.72,28.06,20.46
		c14.26,10.22,28.5,20.48,42.97,30.39c21.89,14.98,41.33,32.43,56.41,54.45c0.4,0.59,0.89,1.13,1.05,2.1
		c-0.66-0.35-1.33-0.67-1.97-1.06c-28.12-17.36-56.35-34.55-84.32-52.16c-12.19-7.68-23.96-16.04-35.69-24.43
		c-6.76-4.84-16.94-10.34-25.36-12.5c3.12-8.49,4.41-17.2,2.41-26.16C366.05,168.52,366.18,168.4,366.18,168.4z"/>
	<path class="st0" d="M208.1,64.54c-12.27,2.1-24.16,4.13-36.82,6.29c1.01-3.02,1.67-5.55,2.67-7.93
		c6.69-15.85,14.71-31.02,27.44-42.83c13.48-12.51,29.71-17.92,48.18-15.1c7.51,1.15,13.89,5.09,20.09,9.21
		c9.35,6.22,17.02,14.28,24.19,22.81c1.62,1.92,2.66,4.33,4.15,6.82c-15.15,5.19-30.39,8.55-46.08,11.89
		c0.78-1.59,1.4-2.94,2.1-4.25c10.26-19.05-5.13-36.52-21.92-37.43c-10.95-0.6-19.94,3.75-27.28,11.66
		C194.73,36.56,195.45,55.77,208.1,64.54z"/>
	<path class="st0" d="M309.61,619.53c-33.17,0.86-65.89,1.71-98.65,2.56c0.65-7.14,1.25-13.66,1.86-20.26
		c17.13,0,34.46,0.47,51.75-0.13c17.23-0.6,34.43-2.29,52.05-3.53C308.07,603.15,302.86,609.17,309.61,619.53z"/>
	<path class="st0" d="M193.9,692.52c0.47-1.66,0.91-3.22,1.43-5.03c10.24,2.59,20.12-0.91,30.15-1.1
		c9.01-0.17,18.02-0.45,27.02-0.29c8.26,0.14,16.5,0.98,24.76,1.2c11.12,0.29,22.26,0.69,33.37,0.27
		c12.83-0.49,25.63-1.74,38.42-2.86c5.67-0.5,11.29-1.48,16.93-2.27c2.25-0.32,3.79-0.05,3.51,2.87c-0.13,1.43,0.28,2.9,0.46,4.5
		c-5.2,0.47-10.28,0.95-15.37,1.37c-21.07,1.75-42.16,2.64-63.31,2.6c-12.21-0.02-24.43,0.5-36.64,0.96
		c-11.81,0.45-23.62,1.62-35.43,1.52c-7.34-0.06-14.68-1.89-22.01-2.96C196.13,693.14,195.1,692.81,193.9,692.52z"/>
	<path class="st0" d="M335.91,699.88c-0.72,3.96-1.59,7.76-2.02,11.6c-0.14,1.25,0.62,2.82,1.41,3.92c1.69,2.37,3.66,4.53,5.75,7.06
		c-5.07,2.66-9.78,5.5-14.79,7.65c-6.56,2.82-13.36,5.14-20.67,4.9c-1.11-0.04-2.66-0.86-3.21-1.79c-2.6-4.42-4.99-8.97-7.3-13.56
		c-0.49-0.96-0.59-2.3-0.41-3.38c0.75-4.52,1.61-9.02,2.59-13.49c0.16-0.72,1.1-1.8,1.72-1.82
		C311.44,700.53,323.9,700.21,335.91,699.88z"/>
	<path class="st0" d="M225.57,702.14c13.53,0,27.16,0,40.85,0c0,9.49,0,19.11,0,28.95c-12.94,1.33-25.31,2.6-38.06,3.91
		C227.43,724,226.52,713.28,225.57,702.14z"/>
	<path class="st0" d="M339.86,227.59c-10.02-0.01-18.45-7.35-18.44-15.74c0-1.94-0.34-4.12,2.38-4.91c0.42-0.12,0.9-1.95,0.62-2.2
		c-1.43-1.34-0.61-2.48-0.01-3.7c3.65-7.38,9.09-13.38,15.15-18.74c5.49-4.84,11.35-9.27,17.22-13.65c3.14-2.34,4.09-1.83,5.64,1.74
		c2.08,4.81,1.54,9.59,0.44,14.55c-2.36,10.58-5.33,20.96-10,30.74c-1.51,3.16-3.93,5.91-6.07,8.74
		C344.98,226.83,342.61,228.28,339.86,227.59z M356.36,176.86c-1.6,0.67-2.86,0.89-3.7,1.6c-4.27,3.6-8.7,7.07-12.56,11.08
		c-3.3,3.43-5.77,7.58-6.2,12.6c-0.26,3.08,0.55,5.68,3.35,7.25c2.54,1.43,5.07,0.5,6.77-1.31c2.09-2.22,4.18-4.81,5.17-7.63
		C351.81,192.98,353.84,185.3,356.36,176.86z"/>
	<path class="st0" d="M324.04,76.42c-0.08,2.81-0.52,4.65-3.45,4.78c-0.59,0.03-1.13,1.3-2.15,2.55
		c-11.98,2.49-24.85,4.94-37.61,7.87c-15.71,3.61-31.34,7.59-46.99,11.46c-15.38,3.8-30.69,7.9-46.15,11.37
		c-7.58,1.71-15.41,2.41-23.15,3.35c-4.03,0.49-8.93-3.4-11.2-8.81c2.72,0,5.28,0.3,7.74-0.05c12.63-1.81,25.27-3.57,37.84-5.76
		c15.46-2.7,30.89-5.59,46.24-8.81c22.18-4.65,44.29-9.64,66.42-14.56C315.68,78.9,319.68,77.62,324.04,76.42z"/>
	<path class="st0" d="M268.88,177.78c1.03-2.38,1.64-5.1,3.18-7.09c5.25-6.8,12.06-11.42,20.03-14.87
		c6.37-2.75,12.78-4.96,19.51-6.34c7.42-1.52,8.13,0.7,6.62,6.74c-1.24,4.96-3.74,9.73-6.38,14.17c-3.42,5.75-7.45,11.15-11.4,16.56
		c-1.5,2.05-3.34,3.95-5.33,5.54c-6.9,5.48-13.35,5.17-19.71-0.93C271.6,187.9,269.51,183.4,268.88,177.78z M281.64,173.72
		c0,3.94,1.91,5.92,5.65,4.82c2.96-0.87,5.88-2.58,8.24-4.59c2.97-2.53,5.4-5.72,7.99-8.69c1.38-1.57,2.74-3.19,3.84-4.96
		c0.5-0.81,0.34-2.02,0.48-3.05c-1.14-0.04-2.48-0.49-3.4-0.06c-6.13,2.86-12.24,5.77-18.2,8.95
		C283.39,167.65,281.49,170.17,281.64,173.72z"/>
	<path class="st0" d="M327.62,63.93c-0.6,2.52-0.99,4.76-1.72,6.87c-0.23,0.65-1.34,1.2-2.15,1.41c-8.77,2.28-17.52,4.61-26.34,6.68
		c-17.4,4.07-34.79,8.18-52.27,11.87c-14.17,2.99-28.46,5.4-42.71,8.02c-10.91,2.01-21.81,4.09-32.76,5.84
		c-6.05,0.97-12.21,1.32-18.52,1.96c-1.02-1.54-2.17-3.25-3.48-5.23c4.08-0.29,7.81-0.35,11.47-0.86
		c11.36-1.56,22.77-2.95,34.04-5.02c20.67-3.8,41.3-7.79,61.85-12.16c17.31-3.68,34.52-7.83,51.68-12.17
		c6.55-1.66,12.81-4.44,19.2-6.7C326.33,64.28,326.75,64.18,327.62,63.93z"/>
	<path class="st0" d="M209.89,461.69c11.93,4.04,23.93,8.1,36.09,12.21c-1.69,3.46,2.82,4.49,3.99,6.97
		c-1.61,2.05-3.19,3.94-4.6,5.95c-0.33,0.47-0.36,1.64-0.02,1.96c0.49,0.46,1.72,0.85,2.13,0.56c2.06-1.45,4.38-2.83,5.82-4.81
		c2-2.76,1.29-4.95-1.31-7.33c-0.91-0.83-1.66-1.83-2.16-3.3c7.81,1.23,15.62,2.45,23.86,3.74c-1.42,2-2.79,3.77-3.99,5.66
		c-3.01,4.72-5.99,9.46-8.87,14.25c-0.8,1.33-1.53,1.77-3.07,1.16c-1.78-0.71-3.77-0.9-5.51-1.67c-4.73-2.08-9.42-4.25-14.04-6.56
		c-7.43-3.73-14.8-7.6-22.18-11.43c-0.48-0.25-0.9-0.63-1.34-0.96c-3.28-2.46-6.77-4.62-4.89-9.88
		C210.49,466.19,209.89,463.71,209.89,461.69z M235.06,484.9c3.19,1.75,5.56,1.88,7.72,0.37c2.05-1.44,3.75-3.4,3.36-6.16
		c-0.31-2.12-3.66-5.19-5.46-5.41c-1.71-0.2-3,1.44-2.23,2.99c0.59,1.2,1.42,2.27,2.02,3.2C238.72,481.5,237.13,482.98,235.06,484.9
		z M262.32,483.9c0.16-3.41-2-4.62-3.76-5.98c-0.69-0.53-1.85-0.45-2.8-0.65c0.13,0.99-0.06,2.19,0.43,2.93
		c2.54,3.82,2.58,3.95-0.9,7.18c-0.4,0.37-0.93,0.74-1.09,1.21c-0.31,0.9-0.4,1.88-0.58,2.83c1.02,0.09,2.16,0.51,3.04,0.21
		C260.02,490.47,262.31,486.91,262.32,483.9z"/>
	<path class="st0" d="M351.57,476.42c-7.97,7.85-17.39,12.87-27.81,15.98c-1-1.54-2.07-2.97-2.87-4.53
		c-0.22-0.43,0.18-1.36,0.54-1.89c0.6-0.89,1.4-1.66,2.14-2.5c-1.19-1.92-2.41-2.21-4.1-0.83c-1.06,0.86-2.31,1.5-3.51,2.17
		c-1.61,0.9-3.02,1.91-2.52,4.07c0.49,2.12,1.61,3.67,3.94,4.02c0.25,0.04,0.48,0.18,1.55,0.59c-2.64,0.87-4.6,1.52-7.07,2.34
		c2.74-3.58-0.02-5.27-1.6-7.25c1.36-1.68,2.8-3.2,3.91-4.94c0.38-0.59,0.27-2.13-0.18-2.46c-0.58-0.42-1.91-0.37-2.6,0.02
		c-2.68,1.54-5.21,3.33-7.84,4.96c-1.75,1.09-1.97,2.88-0.19,4.29c2.33,1.86,4.85,3.49,7.62,5.46c-5.05,1.55-9.97,3.09-14.91,4.57
		c-6.47,1.94-6.43,1.9-9.22-4.31c-2.52-5.6-5.17-11.14-7.76-16.71c-0.18-0.4-0.3-0.82-0.64-1.78
		C303.11,479.99,327.34,479.47,351.57,476.42z M304.43,483.71c-1.57-2.39-3.04-2.67-4.98-1.05c-1.4,1.16-3.04,2.04-4.56,3.05
		c-2.09,1.38-2.27,2.88-0.37,4.59c1.9,1.71,3.87,3.37,5.96,4.85c0.7,0.49,1.85,0.34,2.79,0.48c-0.07-1.06,0.21-2.34-0.28-3.14
		c-0.83-1.35-2.14-2.39-3.21-3.51C301.37,487.18,302.87,485.49,304.43,483.71z"/>
	<path class="st0" d="M200.72,44.97c-0.49-9.76,5.81-19.55,15.77-24.33c8.95-4.29,17.91-4.64,26.57,0.47
		c11.83,6.98,14.54,20.15,6.93,31.62c-1.82,2.74-3.84,4.39-7.28,4.96c-7.96,1.31-15.77,3.63-23.76,4.64
		c-9.24,1.17-13.53-1.88-16.65-10.11C201.43,49.93,201.22,47.4,200.72,44.97z M213.24,60.19c2.97,1.42,5.37,1.55,7.96-0.32
		c1.95-1.41,3.33-3.36,6.3-3.87c3.39-0.59,6.55-1.38,9.9-0.3c3.16,1.03,6.02,0.34,8.53-1.65c0.68-0.54,0.89-1.66,1.32-2.51
		c-0.8-0.26-1.58-0.66-2.39-0.74c-1.29-0.13-2.6-0.03-3.85-0.03c1.41-1.8,2.97-3.1,3.62-4.77c1.02-2.64,1.4-5.56,5.46-3.97
		c0.04-0.87,0.11-1.33,0.07-1.77c-0.19-2.31-0.84-4.51-3.18-5.37c-2.44-0.9-3.77,0.8-5.13,2.63c-0.95,1.27-2.52,2.07-3.81,3.08
		c-0.23-0.2-0.46-0.39-0.7-0.59c0.22-0.94,0.32-1.93,0.7-2.8c3.4-7.81-3.99-17.12-11.51-17.2c-7.99-0.08-13.7,3.56-17.4,10.42
		c-2.91,5.4-1.8,9.84,3.03,13.58c0.64,0.49,1.29,0.97,1.94,1.45c-4.95-0.82-7.39-0.22-9.22,2.84c-0.6,1.02-0.61,2.39-0.88,3.6
		c1.21,0.04,2.41,0.04,3.62,0.14c0.87,0.07,2.01-0.03,2.55,0.47c1.65,1.53,3.06,3.32,4.74,5.2
		C214.64,58.1,214.04,58.99,213.24,60.19z"/>
	<path class="st0" d="M322.32,597.76c8.9-0.66,17.79-1.31,27.05-1.99c-0.33,6.4,0.19,12.6,3.27,18.16
		c-8.28,1.23-16.54,2.46-25.21,3.75c2.39-3.74,3.62-7.47,2.89-11.73c-0.8-4.61-3.68-6.89-8.25-7.55
		C322.15,598.18,322.24,597.97,322.32,597.76z"/>
	<path class="st0" d="M335.31,29.83c-1.83,0.81-3.07,1.43-4.37,1.92c-9.07,3.44-18.17,6.8-27.21,10.31
		c-1.65,0.64-2.37,0.44-3.18-1.17c-1.09-2.17-2.56-4.16-4.04-6.49C309.17,32.18,321.51,28.16,335.31,29.83z"/>
	<path class="st0" d="M170.71,60.61c-0.7,3.82-1.17,6.78-1.83,9.71c-0.11,0.49-0.97,1.11-1.53,1.17
		c-10.7,1.14-21.42,1.66-32.16,0.48c-0.15-0.02-0.28-0.19-0.99-0.69C146.48,67.69,158.34,64.22,170.71,60.61z"/>
	<path class="st0" d="M311.21,611.93c0.65-5.33,7.06-11.01,12.91-6.81c2.19,1.57,2.87,3.95,1.21,6.04
		c-1.46,1.83-3.16,3.53-4.99,4.98c-2.01,1.6-4.29,0.89-6.09-0.46C313,614.74,312.21,613.2,311.21,611.93z"/>
	<path d="M464.51,333.93c-0.29,11.86-2.27,21.29-7.42,29.87c-4.83,8.05-11.86,12.76-21.38,12.95c-15.19,0.3-25.55-6.98-31.57-20.77
		c-4.17-9.57-6.54-19.4-3.11-29.68c2.71-8.1,6.53-15.65,14.08-20.45c2.12-1.35,4.61-2.12,6.94-3.12c0.5-0.21,1.11-0.19,1.58-0.43
		c8.72-4.49,16.59-0.99,23.86,3.29C458.82,312.27,463.81,322.97,464.51,333.93z M450.95,327.79c0.06-2.87-2.29-5.41-5.08-5.48
		c-2.35-0.07-5.29,2.91-5.33,5.4c-0.04,2.51,2.68,5.88,4.82,5.97C447.87,333.78,450.9,330.59,450.95,327.79z"/>
	<path d="M143.3,347.49c-10.05-0.37-16.77-5.78-22.23-13.33c-12.34-17.04-6.31-41.88,9.46-53.62c3.05-2.27,6.45-4.25,9.98-5.63
		c3.6-1.41,7.01-3.86,11.45-2.52c6,1.81,11.55,4.24,15.74,9.05c10.26,11.79,12.98,25.15,8.11,40.05
		c-3.57,10.94-9.79,19.53-21.07,23.39C151.07,346.14,147.13,346.64,143.3,347.49z M154.68,305.84c4.39-0.55,8.34-4.9,8-8.97
		c-0.24-2.86-3.7-5.89-6.05-4.95c-1.89,0.75-3.84,1.9-5.14,3.41c-1.87,2.17-2.49,5.13-0.99,7.69
		C151.27,304.33,153.25,304.92,154.68,305.84z"/>
	<path d="M300.27,334.23c5.15,0,10-0.05,14.84,0.01c9.8,0.12,18.77,3.03,26.84,8.51c8.63,5.86,11.16,13.37,8.41,23.47
		c-3.86,14.21-14.36,20.88-27.6,24.36c-9.04,2.38-17.86,0.36-26.56-1.97c-4.41-1.18-8.63-3.1-13.07-4.16
		c-3.13-0.75-6.48-0.86-9.73-0.85c-7.04,0.02-14.08,0.33-21.12,0.46c-5.99,0.11-11.66-1.33-16.94-4.08
		c-8.16-4.25-14.68-9.92-16.82-19.51c-3.44-15.37,7.38-30.94,22.98-32.96c8.23-1.07,16.3-0.15,24.36,1.39
		c0.81,0.15,1.9-0.39,2.67-0.9c2.04-1.31,3.82-3.58,6-4.03c6.6-1.37,13.27-1.47,19.76,1.16
		C298.64,326.89,301.1,329.64,300.27,334.23z M253.83,330.97c-0.01,0.17-0.01,0.35-0.02,0.52c-2.84,0-5.71-0.22-8.53,0.04
		c-12.79,1.16-18.77,5.35-22.92,18.14c-0.77,2.35-0.92,5.13-0.55,7.59c1.35,8.84,7.09,14.68,14.58,18.56
		c10.74,5.57,22.38,5.04,33.91,3.34c6.16-0.91,11.78-1.67,17.69,1.92c8.63,5.24,18.58,5.81,28.48,5.87
		c14.31,0.08,27.22-10.51,29.64-24.54c0.7-4.08,0.82-8.62-2.42-11.4c-4.31-3.7-9.14-7.13-14.31-9.41
		c-7.65-3.37-16.05-3.37-24.35-3.21c-3.28,0.06-6.44-0.13-8.5,3.11c-0.32,0.5-1.01,0.77-1.57,1.09c-9.43,5.44-21.82,1.64-26.44-8.22
		c-0.77-1.65-1.66-2.39-3.45-2.49C261.32,331.68,257.58,331.29,253.83,330.97z M283.22,326.84c-0.07-0.26-0.15-0.51-0.22-0.77
		c-3.52,1.09-7.1,2.04-10.53,3.37c-0.7,0.27-1.52,2.4-1.16,2.92c5.46,8.12,14.28,11.35,22.76,4.8c2.87-2.22,2.58-5.93-0.44-7.97
		C290.4,327.01,286.9,326.68,283.22,326.84z"/>
	<path d="M356.36,176.86c-2.52,8.44-4.55,16.12-7.18,23.6c-0.99,2.82-3.08,5.4-5.17,7.63c-1.69,1.8-4.23,2.74-6.77,1.31
		c-2.79-1.58-3.61-4.17-3.35-7.25c0.43-5.02,2.9-9.17,6.2-12.6c3.86-4.01,8.29-7.48,12.56-11.08
		C353.51,177.75,354.76,177.53,356.36,176.86z M350.45,184.33c-0.27-0.12-0.54-0.25-0.81-0.37c-1.96,2.06-4.12,3.95-5.82,6.21
		c-2.34,3.12-4.59,6.38-6.37,9.84c-1.05,2.04-1.66,5.07,1.07,6.35c2.74,1.29,4.3-1.25,5.64-3.2
		C348.09,197.47,348.65,190.7,350.45,184.33z"/>
	<path d="M281.64,173.72c-0.15-3.55,1.75-6.06,4.59-7.58c5.96-3.18,12.07-6.09,18.2-8.95c0.92-0.43,2.26,0.02,3.4,0.06
		c-0.14,1.03,0.02,2.25-0.48,3.05c-1.1,1.77-2.46,3.39-3.84,4.96c-2.59,2.97-5.01,6.16-7.99,8.69c-2.36,2.01-5.28,3.72-8.24,4.59
		C283.55,179.64,281.64,177.66,281.64,173.72z M302.08,161.85c-0.16-0.21-0.32-0.43-0.48-0.64c-5.13,3.08-10.36,6.01-15.29,9.37
		c-1,0.68-0.87,3.02-1.26,4.6c1.45,0.03,2.91,0.12,4.36,0.07c0.4-0.01,0.85-0.39,1.15-0.71
		C294.41,170.32,298.24,166.08,302.08,161.85z"/>
	<path d="M235.06,484.9c2.07-1.92,3.65-3.39,5.4-5.02c-0.6-0.93-1.43-2.01-2.02-3.2c-0.76-1.55,0.53-3.19,2.23-2.99
		c1.8,0.21,5.16,3.29,5.46,5.41c0.4,2.76-1.3,4.72-3.36,6.16C240.63,486.78,238.25,486.65,235.06,484.9z"/>
	<path d="M262.32,483.9c-0.01,3.01-2.31,6.57-5.66,7.72c-0.88,0.31-2.02-0.12-3.04-0.21c0.18-0.95,0.27-1.92,0.58-2.83
		c0.16-0.47,0.69-0.84,1.09-1.21c3.48-3.22,3.44-3.36,0.9-7.18c-0.49-0.74-0.31-1.94-0.43-2.93c0.95,0.2,2.11,0.12,2.8,0.65
		C260.33,479.28,262.48,480.49,262.32,483.9z"/>
	<path d="M304.43,483.71c-1.57,1.78-3.07,3.47-4.64,5.25c1.06,1.12,2.38,2.17,3.21,3.51c0.49,0.8,0.21,2.08,0.28,3.14
		c-0.94-0.14-2.1,0.02-2.79-0.48c-2.09-1.47-4.06-3.13-5.96-4.85c-1.9-1.71-1.73-3.21,0.37-4.59c1.53-1.01,3.17-1.88,4.56-3.05
		C301.4,481.04,302.86,481.32,304.43,483.71z"/>
	<path d="M213.24,60.19c0.8-1.2,1.39-2.09,1.66-2.48c-1.68-1.88-3.09-3.66-4.74-5.2c-0.54-0.5-1.68-0.4-2.55-0.47
		c-1.2-0.1-2.41-0.1-3.62-0.14c0.28-1.21,0.28-2.59,0.88-3.6c1.83-3.06,4.27-3.67,9.22-2.84c-0.65-0.48-1.3-0.96-1.94-1.45
		c-4.83-3.73-5.93-8.18-3.03-13.58c3.7-6.87,9.42-10.5,17.4-10.42c7.52,0.07,14.92,9.38,11.51,17.2c-0.38,0.87-0.47,1.86-0.7,2.8
		c0.23,0.2,0.46,0.39,0.7,0.59c1.29-1.01,2.86-1.81,3.81-3.08c1.36-1.82,2.69-3.52,5.13-2.63c2.34,0.86,2.99,3.06,3.18,5.37
		c0.04,0.45-0.03,0.9-0.07,1.77c-4.06-1.6-4.44,1.32-5.46,3.97c-0.64,1.66-2.21,2.97-3.62,4.77c1.25,0,2.56-0.09,3.85,0.03
		c0.81,0.08,1.59,0.48,2.39,0.74c-0.43,0.85-0.64,1.98-1.32,2.51c-2.51,1.99-5.37,2.68-8.53,1.65c-3.34-1.08-6.51-0.29-9.9,0.3
		c-2.97,0.51-4.35,2.46-6.3,3.87C218.61,61.73,216.22,61.61,213.24,60.19z M218.77,45.03c-2.45,4.44-2.45,4.43-6.5,3.06
		c-0.61-0.21-1.23-0.6-1.82-0.56c-1.02,0.07-2.03,0.41-3.04,0.64c-0.05,0.37-0.11,0.74-0.16,1.12c3.46-0.96,4.87,0.72,5.99,3.43
		c0.78,1.88,2.61,1.32,3.96,0.26c0.62-0.49,0.91-1.4,1.52-1.92c0.46-0.39,1.19-0.48,1.8-0.7c0.14,0.63,0.59,1.4,0.37,1.85
		c-0.99,2.07-2.17,4.05-3.3,6.09c3.61-0.25,5.12-2.74,6.06-5.79c0.73-2.36,2.1-3.02,4.28-1.9c0.68,0.35,1.25,0.92,2.22,1.66
		c-0.17-2.81,1.29-2.81,3-2.03c0.73,0.33,1.47,0.86,1.94,1.5c1.57,2.13,3.67,2.27,6.33,2.06c-1.87-1.94-4.97-2.35-5.18-5.44
		c4.91-1.01,5.21-1.41,7.44-6.07c0.72-1.5,2.12-2.67,3.51-4.36c-0.53-1.13-1.52-1.6-2.92,0.05c-1.07,1.26-1.87,2.86-3.17,3.77
		c-1.13,0.8-2.91,1.37-4.17,1.08c-0.93-0.21-2-1.93-2.13-3.07c-0.21-1.75,0.14-3.63,0.59-5.38c1.08-4.17-1.3-9.12-5.26-10.56
		c-6.17-2.25-13.37,0.03-17.15,5.43c-4.61,6.58-3.04,12.04,4.35,15.14C217.82,44.59,218.29,44.81,218.77,45.03z"/>
	<path class="st0" d="M450.95,327.79c-0.06,2.8-3.08,5.98-5.59,5.88c-2.14-0.09-4.86-3.46-4.82-5.97c0.04-2.49,2.98-5.47,5.33-5.4
		C448.66,322.39,451.01,324.92,450.95,327.79z"/>
	<path class="st0" d="M154.68,305.84c-1.43-0.92-3.42-1.51-4.18-2.81c-1.5-2.57-0.89-5.52,0.99-7.69c1.3-1.51,3.26-2.66,5.14-3.41
		c2.35-0.94,5.81,2.09,6.05,4.95C163.03,300.94,159.07,305.29,154.68,305.84z"/>
	<path class="st0" d="M253.83,330.97c3.75,0.31,7.49,0.7,11.24,0.91c1.79,0.1,2.68,0.84,3.45,2.49c4.62,9.86,17.01,13.66,26.44,8.22
		c0.55-0.32,1.25-0.59,1.57-1.09c2.06-3.24,5.22-3.05,8.5-3.11c8.3-0.16,16.7-0.16,24.35,3.21c5.17,2.28,10,5.7,14.31,9.41
		c3.23,2.78,3.12,7.32,2.42,11.4c-2.42,14.03-15.33,24.62-29.64,24.54c-9.9-0.06-19.85-0.63-28.48-5.87
		c-5.91-3.59-11.53-2.83-17.69-1.92c-11.53,1.7-23.17,2.24-33.91-3.34c-7.49-3.89-13.22-9.72-14.58-18.56
		c-0.38-2.46-0.22-5.24,0.55-7.59c4.16-12.78,10.14-16.97,22.92-18.14c2.82-0.26,5.69-0.04,8.53-0.04
		C253.82,331.32,253.82,331.15,253.83,330.97z"/>
	<path class="st0" d="M283.22,326.84c3.68-0.16,7.18,0.17,10.4,2.35c3.02,2.05,3.31,5.75,0.44,7.97c-8.48,6.55-17.3,3.33-22.76-4.8
		c-0.35-0.52,0.46-2.65,1.16-2.92c3.43-1.33,7.01-2.29,10.53-3.37C283.07,326.33,283.15,326.58,283.22,326.84z"/>
	<path class="st0" d="M350.45,184.33c-1.81,6.37-2.36,13.14-6.28,18.83c-1.35,1.95-2.91,4.49-5.64,3.2
		c-2.73-1.29-2.12-4.31-1.07-6.35c1.78-3.46,4.02-6.72,6.37-9.84c1.69-2.26,3.86-4.15,5.82-6.21
		C349.91,184.08,350.18,184.2,350.45,184.33z"/>
	<path class="st0" d="M302.08,161.85c-3.84,4.23-7.67,8.47-11.53,12.69c-0.3,0.33-0.76,0.7-1.15,0.71
		c-1.45,0.05-2.91-0.03-4.36-0.07c0.39-1.58,0.26-3.92,1.26-4.6c4.93-3.37,10.17-6.29,15.29-9.37
		C301.76,161.42,301.92,161.63,302.08,161.85z"/>
	<path class="st0" d="M218.77,45.03c-0.48-0.22-0.95-0.44-1.43-0.64c-7.4-3.1-8.97-8.56-4.35-15.14c3.79-5.4,10.99-7.68,17.15-5.43
		c3.95,1.44,6.33,6.39,5.26,10.56c-0.45,1.74-0.8,3.63-0.59,5.38c0.14,1.15,1.2,2.86,2.13,3.07c1.27,0.29,3.04-0.28,4.17-1.08
		c1.3-0.92,2.1-2.51,3.17-3.77c1.4-1.65,2.38-1.17,2.92-0.05c-1.4,1.69-2.8,2.87-3.51,4.36c-2.23,4.67-2.53,5.06-7.44,6.07
		c0.2,3.09,3.3,3.5,5.18,5.44c-2.65,0.21-4.76,0.07-6.33-2.06c-0.47-0.64-1.21-1.17-1.94-1.5c-1.71-0.78-3.18-0.78-3,2.03
		c-0.97-0.74-1.54-1.31-2.22-1.66c-2.18-1.11-3.55-0.46-4.28,1.9c-0.95,3.05-2.45,5.54-6.06,5.79c1.13-2.04,2.31-4.02,3.3-6.09
		c0.22-0.45-0.23-1.23-0.37-1.85c-0.61,0.22-1.34,0.3-1.8,0.7c-0.61,0.52-0.9,1.43-1.52,1.92c-1.35,1.06-3.19,1.62-3.96-0.26
		c-1.12-2.71-2.53-4.39-5.99-3.43c0.05-0.37,0.11-0.74,0.16-1.12c1.01-0.23,2.02-0.57,3.04-0.64c0.59-0.04,1.22,0.35,1.82,0.56
		C216.32,49.46,216.32,49.46,218.77,45.03z M225.05,40.65c2.33,0.04,4.48-1.86,4.04-3.77c-0.18-0.81-1.69-1.76-2.67-1.84
		c-1.93-0.16-4.13,0.22-4.38,2.7C221.85,39.78,223.45,40.53,225.05,40.65z M217.65,32.38c-0.98,0.94-1.6,1.54-2.23,2.13
		c0.7,0.44,1.4,1.21,2.11,1.22c0.65,0.01,1.31-0.81,1.96-1.26C218.99,33.91,218.49,33.34,217.65,32.38z M230.56,29.91
		c-0.01,0.49-0.03,0.98-0.04,1.47c1,0.11,2,0.22,3,0.33c0.03-0.64,0.05-1.28,0.08-1.92C232.59,29.84,231.58,29.87,230.56,29.91z"/>
	<path d="M225.05,40.65c-1.61-0.11-3.2-0.86-3-2.91c0.25-2.47,2.44-2.86,4.38-2.7c0.97,0.08,2.48,1.03,2.67,1.84
		C229.53,38.79,227.38,40.68,225.05,40.65z"/>
	<path d="M217.65,32.38c0.84,0.96,1.34,1.52,1.84,2.09c-0.65,0.45-1.31,1.27-1.96,1.26c-0.71-0.01-1.41-0.78-2.11-1.22
		C216.04,33.92,216.67,33.32,217.65,32.38z"/>
	<path d="M230.56,29.91c1.01-0.04,2.03-0.08,3.04-0.11c-0.03,0.64-0.05,1.28-0.08,1.92c-1-0.11-2-0.22-3-0.33
		C230.54,30.89,230.55,30.4,230.56,29.91z"/>
</g>
</svg>
