<?xml version="1.0" encoding="utf-8"?>
<!-- Generator: Adobe Illustrator 26.0.0, SVG Export Plug-In . SVG Version: 6.00 Build 0)  -->
<svg version="1.1" id="Capa_1" xmlns="http://www.w3.org/2000/svg" xmlns:xlink="http://www.w3.org/1999/xlink" x="0px" y="0px"
	 viewBox="0 0 595.3 816.4" style="enable-background:new 0 0 595.3 816.4;" xml:space="preserve">
<style type="text/css">
	.st0{fill:#FFFFFF;}
</style>
<g>
	<path d="M368.6,639.8c5.1,16.6,6.1,33.3,8.6,50.1c-0.3,5.5-1.2,6.4-6.6,6.9c-9.2,0.8-18.5,1.8-26.9,2.6c-1.1,4.1-4.3,7.7-3.3,11.6
		c3.5,5,6.7,10.2,12.1,13.6c16.3,12.1,21.5,34.1,32.2,50.7c5.8,7.4,1.1,19.2-7.8,21.5c-21.1,5.2-42,12.2-63.8,13.6
		c-15.1-0.3-16-21.8-11.2-32.2c1.2-4.1,5.4-7.5,5.8-11.7c-3.7-14.6-16.6-17.1-7.6-26.6c-11-18.5-11.4-17.5-7.6-38.7
		c-7.6,0-15,0-22.3,0c1,9.8,1.9,19.4,2.8,29.1c3.6-0.6,7.5,0.6,7.2,5c0.7,11.8-2,24.4,2.1,35.8c4.8,10.2,7.7,20.8,8,32.1
		c0.6,15.1-27.2,12.9-37.5,13.3c-11.2-0.3-22.4-1.1-33.5-2.4c-9.1-1.1-11.6-6-11.1-15.3c6.2-31.5,15.7-11.2,9.1-54.4
		c-0.3-3,0.9-5.2,3-7.3c4.5-6.2,0.3-25.5,1.6-34.3c-10.7-1-20.7-2-30.7-3c-3.6-0.3-4.1-1.6-3.5-4.6c3.5-18.4,8.1-36.7,13.9-54.6
		c-22.9,9.9-40.9-12.6-42.5-33.7c-5.1-43,9.2-101.3,45.1-127.7c-0.9-5.3,2.4-17.8-1.4-20.6c-42.5-20.4-87.9-43.2-110.9-86.6
		c-9.2,15-21.8,24.3-39.9,24c-42.4,0.4-57.2-49.3-50.4-84.2c18.8-79.3,83.9-153.6,153.9-192.2c-10.3-13.8-16.6-31-29.5-42.5
		c-1.4-0.9-1.2-2.6,0.2-3.5c12.5-11.4,45.6-12.3,49.4-21c2.8-5.7,5.4-11.5,8.8-16.8c28.4-45,74.1-46.9,107.7-6.1
		c3,3.8,16.5-2.8,22.2-2.6c5.7-0.1,30.8-6.8,26.2,4.3c-4.9,16.3-8.8,32.9-13.1,49.4c59.3,11.7,122.3,28.5,166.7,72
		c48.6,51.6,90.5,116.4,100.1,187.7c3.5,38-5.3,92.1-47.7,103.9c-22.7,7.3-57.8-5.7-50.6-34.4c0.8-4.8,2.6-8.9,2.7-13.9
		c-36.6,46.1-85.6,68.7-142.3,79.2c6.4,7.6,13.8,12.7,17.5,22.2c12.5,23.8,21.9,49.1,25.7,75.8C405.6,599.7,402.9,638,368.6,639.8z"
		/>
	<path class="st0" d="M232.3,153.8c11.6,6.4,24,10.9,37.3,14c-12,18.5,11.3,43,30.8,24.7c4,4,17.6,10.6,18.1,15.5
		c-2.2,16.5,19.8,32,31.8,17.5c22.4,15.1,43.1,32.4,67.4,44.2c31,15.6,90.9,27.7,100.3,64.8c2.4,2.4,0.7,4.7-0.2,7
		c-3.4,8.9-6.4,18-10.1,26.8c-21.2,40.7-61.2,71.1-103.8,86.9c-52.8,18.7-112.4,24.7-166.5,8C173.5,441,96.6,403.7,83.9,330.1
		c-2.3-14.1-2.9-28.4-5-42.6c0.2-7.7,14.5-13.2,20.3-16.7c29.6-13.8,60.1-27.4,81.5-53.1C198.5,196.9,217.1,176.6,232.3,153.8z
		 M464.5,333.9c-2.7-37.7-52.2-46.9-63.5-7.6C389.8,383.3,464.9,400.6,464.5,333.9z M143.3,347.5c40.5-1.8,48-64.7,8.7-75
		c-8.1-1.2-14.9,4.3-21.4,8.1C106.1,297,110.2,344.7,143.3,347.5z M300.3,334.2c1.1-12.3-17.5-12-25.8-10.3
		c-3.1,0.6-5.3,4.9-8.7,4.9c-23.1-6.7-52.5,2.8-47.4,31.6c3.5,15,19.3,23.5,33.7,23.6c15-0.6,29.8-1.7,43.9,4.6
		C356.5,406.5,379.9,327.7,300.3,334.2z"/>
	<path class="st0" d="M366,168.5c-7.3-11.5-17.4,4.5-24.9,8.4c-1.1,0.9-1.8,0.9-3.1,0.2c-6.7-3.2-12.7-8.9-20.3-9.3
		c-2,5.9,12.7,10.6,16.7,14.5c-4.7,5.8-9.6,11.8-14.3,17.6c-5.4-3.5-11.1-7.2-17.2-11.1c7.7-11.7,21.1-24.5,17.7-39.8
		c-3.4-7.7-18,0.9-24.5,1.2c-12.6-1-24.9-7.4-36.6-12.3c-0.2-0.1-0.5-0.1-1.2,0.4c7.3,7.4,17,11.4,25.8,17.3
		c-3.8,2.9-7.7,5.9-11.4,8.8c-72.5-28.3-24.3-22.5-102.3,54.6c-17.5,16.9-37.4,30.2-60.3,38.8c-13.2,4.4-24,13-35,20.7
		c1.9-6.4,1.8-14,4.8-19.9c7.3-5.1,11.9-12.7,17.1-19.7c19.6-26.9,45.6-48.2,70-70.5c10.8-9.3,24.1-15.6,33.7-26.5
		c-47.4,25.8-89.1,61.4-118.7,106.7c6.9-40.1,30-72.9,51.4-105.9c-33.9,24.9-67.8,106.6-63.5,148.8c1.1,0.1,2.2,0.1,3.4,0.2
		c-1,25.2,5.4,49.7,13.5,72.9c-14,27.4-36.5,32.5-61.5,14.6C8.2,364,3.7,338.2,6.9,316.4c4.7-27.2,16-52.4,31.4-75.1
		c27.7-47.7,68.8-87.6,116.2-115.5c2.2-1.3,4.4-3.8,7-4.3c16.9-0.3,33.3-3.9,49.6-8.1c36.1-9.5,72.1-18.9,108.7-25.8
		c6.7-1.7,12.6,0.5,18.6,1.8c98.5,19.6,158.6,55.9,209.4,144c32.3,52.2,55,121.3,26.4,179.8c-10.4,22.2-37.2,31.1-59.6,22.4
		c-22-8.4-6.8-32.6-8.7-49.4c4.4-12.9,11.9-25,17.3-37.7c10.8-28.1,10.9-58.8,7.2-88.5c-1.4-19.9-3.9-41.7-16.2-58.1
		c9.9,27.8,9.9,57.7,12.2,86.8c1.5,13.5,1.2,25.8-4.8,38.5c-6.1-14.6-15.4-26.1-30-32.2c-30.1-13.7-61.5-24.9-89.4-42.7
		c-15.2-8.9-29.6-19.2-45.1-27.5c-7.8-3,3.9-19,5-25.3c27.4,16.3,53.8,35.1,82.2,49.9c23.7,12.5,46.1,28.6,70.8,38.7
		c6-15.5-35.5-47.4-47.5-56c-16-9.2-92.3-71.8-101.9-63.6H366z"/>
	<path class="st0" d="M347,490.1c2.1,32.4,6.6,64.7,3.9,97.1c-0.2,1.6-0.6,2.3-2.4,2.5c-15.5,2.2-31.1,2.9-46.7,3.5
		c-29.2,1.1-58.6,2.7-87.8,3.4c-1.4,0-2.2-0.2-2.6-1.9c-9.8-36.2-4.5-73.3,1.3-109.7c15.3,10.2,32.3,15.9,49.2,22.2
		c4.4-6.7,8.7-13.2,13.1-20c4.1,6,7.6,24.2,16,22.9C310,504.3,329.3,499.5,347,490.1z"/>
	<path class="st0" d="M197,682.6c4.7-18.7,9.3-37.2,14-55.7c47.1,0.4,94.6,0.8,141.7-5.3c-1.2,10.4,4.3,12,9.6,18.5
		c2,12,4.5,24.2,6,36.2C311.5,685.3,254.2,679.4,197,682.6z"/>
	<path class="st0" d="M358,615.4c9.6-2.8,13.4-8,13-17.7c-1.8,2.5-12.1,16.5-14.5,11.7c-0.8-3.9-2.4-8.1-1.8-11.8
		c3.3-19.1,2.7-38.3,1-55.5c-2.5-17.6-1.4-36.1-6.4-53.2c2.5-1.7,5.1-3.5,8.1-5.5c16.6,23.5,27.9,49.8,32.8,78.3
		c3.5,20.3,10.9,42.5-1,61.6c-2.1,2.7-3.5,6.7-7.6,6.6C368.2,636.9,354.1,633,358,615.4z"/>
	<path class="st0" d="M336,31.8c-2.8,7.2-3.9,23.3-9.2,27.8C290.2,76.2,249,79.4,210.2,88.7c-20,3.7-40,8.1-60.4,9
		c-4.3,0.7-4.2,0.7-6.7-3.1c-4.5-6.3-7.7-13.5-13.6-18.6c-0.4-0.4-0.7-1.7-0.6-1.8c0.7-0.4,1.8-1.1,2.3-0.8
		c19,5.5,39.6,0.1,58.8-2.6C239.2,60.9,291.4,56,336,31.8z"/>
	<path class="st0" d="M205.2,619.7c-4.7-4.2-9.4-8.4-14-12.5c-0.4,0.3-0.7,0.6-1.1,0.9c4.3,7.2,14,14.9,9.9,24.1
		c-18.9,15.4-35.5-14.6-35.4-31.2c-1.1-43.2,8.7-91.1,43.8-119.4c-7.3,27.3-8.7,55.8-8.4,84C202.2,583.6,208.4,601.5,205.2,619.7z"
		/>
	<path class="st0" d="M302.5,745.6c0.7-1.8,1.7-4.1,3.8-4.3c14.8,0,26.3-8,39.6-13.8c9.8,8.6,17.1,19.7,23,31.2
		c3.9,8.1,11.4,15.1,11.5,24.6c-7.3,11-54.4,22.1-68.4,21.6c-9.6-6.6-9.1-21.1-2.2-29.8C316.9,765.5,308.8,753.4,302.5,745.6z"/>
	<path class="st0" d="M223.6,740.5c17.1-1.3,33.8-2.5,51.1-3.8c-8,35.4,13.5,48.8,9,68.4c-0.4,0.9-1.9,1.8-3,2
		c-19.9,3.5-40.3,3.8-60.3,1.1c-10.7-1.8-4.8-16.1-1.6-22.3c6.1-6.7,7.8-14.7,6.7-23.5C224.8,755.1,224.3,747.8,223.6,740.5z"/>
	<path class="st0" d="M366.2,168.4c16.4,7.5,29.8,19,44.4,29.5c35.4,26.6,76.8,48.2,100.4,87c-41-25.4-82.9-49.5-122-77.7
		c-6.8-4.8-16.9-10.3-25.4-12.5c3.1-8.5,4.4-17.2,2.4-26.2L366.2,168.4z"/>
	<path class="st0" d="M208.1,64.5c-12.3,2.1-24.2,4.1-36.8,6.3c21-68.7,83.6-94.5,126.7-27c-15.1,5.2-30.4,8.5-46.1,11.9
		c13.2-19-0.4-40.8-19.8-41.6C205.9,11,184.2,47.1,208.1,64.5z"/>
	<path class="st0" d="M309.6,619.5c-33.2,0.9-65.9,1.7-98.6,2.6c0.6-7.1,1.2-13.7,1.9-20.3c34.7,0.8,69-0.4,103.8-3.6
		C308.1,603.2,302.9,609.2,309.6,619.5z"/>
	<path class="st0" d="M193.9,692.5c0.5-1.7,0.9-3.2,1.4-5c10.2,2.6,20.1-0.9,30.1-1.1c9-0.2,18-0.5,27-0.3
		c19.4,0.8,38.8,2.2,58.2,1.5c18.4-0.9,37.1-2.3,55.3-5.2c4.8-1.2,3.1,4.3,4,7.4c-38.4,4.5-76.8,3.4-115.3,5
		C234.3,696,213.9,698,193.9,692.5z"/>
	<path class="st0" d="M335.9,699.9c-2.6,11.2-3.4,14,5.2,22.6c-9.7,4.8-28.7,17.2-38.7,10.8c-8-13.2-9.1-15.3-5.1-30.5
		c0.2-0.7,1.1-1.8,1.7-1.8C311.4,700.5,323.9,700.2,335.9,699.9z"/>
	<path class="st0" d="M225.6,702.1c13.5,0,27.2,0,40.9,0c0,9.5,0,19.1,0,29c-12.9,1.3-25.3,2.6-38.1,3.9
		C227.4,724,226.5,713.3,225.6,702.1z"/>
	<path class="st0" d="M339.9,227.6c-10,0-18.5-7.4-18.4-15.7c0-1.9-0.3-4.1,2.4-4.9c0.4-0.1,0.9-1.9,0.6-2.2
		c-2.1-11.1,23.9-29.5,32.3-36c7.9-5.7,7.5,11.9,6,16.3C359.7,196.5,353.8,226.9,339.9,227.6z M356.4,176.9
		c-9.4,4.9-21.1,14.1-22.5,25.3c-1.4,5.8,6.1,10.7,10.2,5.9C352.2,199.6,352.2,188.1,356.4,176.9z"/>
	<path class="st0" d="M324,76.4c0,6.6-3.2,2.6-5.6,7.4c-27.8,5.3-56.8,12.3-84.6,19.4c-22.9,5.5-45.7,12.8-69.3,14.7
		c-4,0.5-8.9-3.4-11.2-8.8C210.9,104,267.8,89.8,324,76.4z"/>
	<path class="st0" d="M268.9,177.8c5.8-17.5,26.4-24.4,42.7-28.3c20.1-4.4-7.2,32.1-11.2,37.5C289.7,203.4,270.7,195.9,268.9,177.8z
		 M281.6,173.7c1.5,15.8,26.4-9.8,26.1-16.6c-7.7-0.2-14.5,6.1-21.6,8.8C283.4,167.6,281.5,170.2,281.6,173.7z"/>
	<path class="st0" d="M327.6,63.9c-1.2,3.1-0.3,7.4-3.8,8.3c-8.8,2.3-17.5,4.6-26.3,6.7c-48.3,11.3-96.9,22.2-146.3,27.7
		c-1-1.5-2.2-3.2-3.5-5.2c36.4-2.7,71.7-10.9,107.4-18.1C279.5,77.8,304.2,73.1,327.6,63.9z"/>
	<path class="st0" d="M209.9,461.7c11.9,4,23.9,8.1,36.1,12.2c-1.7,3.5,2.8,4.5,4,7c-8.2,8.3-4.6,12.5,3.3,3.8
		c3.6-4.5-1.9-6.6-3.5-10.6c7.8,1.2,15.6,2.5,23.9,3.7c-16.7,21.7-6.9,27.3-35.5,12.8c-7-5-32.4-11.7-28.4-22.3
		C210.5,466.2,209.9,463.7,209.9,461.7z M235.1,484.9c5.3,3.5,11.4-0.1,11.1-5.8c-1.8-6.8-12.3-7.3-5.7,0.8
		C238.7,481.5,237.1,483,235.1,484.9z M262.3,483.9c0-4.2-3.2-6.4-6.6-6.6c0.1,1-0.1,2.2,0.4,2.9c5,5.8-2.4,5.5-2.6,11.2
		C258.2,493,262.4,487.7,262.3,483.9z"/>
	<path class="st0" d="M351.6,476.4c-8,7.9-17.4,12.9-27.8,16c-2.7-3.7-4.3-5.4-0.3-8.9c-2.1-3.9-5,0.4-7.6,1.4
		c-5.2,2.5-1.8,7.9,2.9,8.7c-2.6,0.9-4.6,1.5-7.1,2.3c2.7-3.6,0-5.3-1.6-7.2c10-11.4-0.3-7.8-6.7-2.4c-4.8,4,4.8,7,7.4,9.8
		c-28.5,8.6-18.5,9.9-32.5-18.2C303.1,480,327.3,479.5,351.6,476.4z M304.4,483.7c-2.9-4.9-6.3,0.7-9.6,2c-5.6,2.6,5.4,10.3,8.4,10
		c0.5-3.1-1.5-4.8-3.5-6.6C301.4,487.2,302.9,485.5,304.4,483.7z"/>
	<path class="st0" d="M200.7,45c-1.3-19.6,25.3-35,42.4-23.8c11.8,7,14.5,20.2,6.9,31.6c-4.6,7.4-22.6,7.3-31.1,9.6
		C206.8,64.8,201.9,55.2,200.7,45z M213.2,60.2c6.3,3.7,8.7-2.7,14.3-4.2c6.5-2.8,16.6,4.1,19.7-4.5c-2-1-4.1-0.7-6.3-0.7
		c4.4-3.2,3.6-11.2,9.1-8.8c0.2-2.9-0.1-6-3.1-7.2c-4.2-1.2-5.4,4.4-8.9,5.7c-0.2-0.2-0.5-0.4-0.7-0.6c4.2-8.5-1.4-19.7-10.8-20
		c-13.4-1.3-27,17.2-12.5,25.5c-6.5-1.3-9.6,1-10.1,6.4c5.1-0.8,8,1.7,10.9,5.8C214.6,58.1,214,59,213.2,60.2z"/>
	<path class="st0" d="M322.3,597.8c8.9-0.7,17.8-1.3,27-2c-0.3,6.4,0.2,12.6,3.3,18.2c-8.3,1.2-16.5,2.5-25.2,3.8
		c4.9-6.5,4.5-18.4-5.3-19.2C322.1,598.2,322.2,598,322.3,597.8z"/>
	<path class="st0" d="M335.3,29.8c-10.6,4.5-21.1,7.9-31.6,12.2c-3.9,1.4-4.8-5.4-7.2-7.7C309.2,32.2,321.5,28.2,335.3,29.8z"/>
	<path class="st0" d="M170.7,60.6c-1.4,4-0.1,9.1-3.3,10.9c-10.9,0.6-22.6,2.7-33.2-0.2C146.5,67.7,158.3,64.2,170.7,60.6z"/>
	<path class="st0" d="M311.2,611.9c0.6-5.3,7.1-11,12.9-6.8c5.3,3.8-0.8,8.3-3.8,11C316.6,618.8,313.1,615,311.2,611.9z"/>
	<path class="st0" d="M451,327.8c-1,7.5-9.6,7.6-10.4-0.1C441.3,320.9,450.8,320.6,451,327.8z"/>
	<path class="st0" d="M154.7,305.8c-8.5-2.8-5-11.8,1.9-13.9C166.2,291.6,163.2,305.2,154.7,305.8z"/>
	<path class="st0" d="M253.8,331c4.7,1.3,11.9-1.3,14.7,3.4c4.8,10.5,18.8,14.1,28,7.1c5-6.3,26.1-2.8,32.9,0.1
		c5.2,2.3,10,5.7,14.3,9.4c10.2,16-10.2,36.9-27.2,35.9c-9.9-0.1-19.9-0.6-28.5-5.9c-15.2-7.5-33.5,5.4-51.6-5.2
		c-28.2-14.5-12.1-49.5,17.4-44.3C253.8,331.3,253.8,331.1,253.8,331z"/>
	<path class="st0" d="M283.2,326.8c5.7-1.2,17.6,3.9,10.8,10.4c-8.5,6.5-17.3,3.3-22.8-4.8c-0.1-4.9,8.3-4.5,11.7-6.3
		C283.1,326.3,283.1,326.6,283.2,326.8z"/>
	<path class="st0" d="M350.5,184.3c-1.9,5.8-3.6,23.1-11.9,22c-6.8-4.8,7.5-18.4,11.1-22.4C349.9,184.1,350.2,184.2,350.5,184.3z"/>
	<path class="st0" d="M302.1,161.8c-3.8,4.2-7.7,8.5-11.5,12.7c-1.5,1.4-3.7,0.5-5.5,0.6c0-7.4,11.4-9.8,16.6-14
		C301.8,161.4,301.9,161.6,302.1,161.8z"/>
	<path class="st0" d="M218.8,45c-18.4-5.7-2.2-26.9,11.3-21.1c6.9,2.5,5.2,10.3,4.7,16c0.4,3.6,3.8,3.8,6.3,2
		c1.7-0.8,4.3-7.4,6.1-3.8c-4.7,4.2-4,10-10.9,10.5c0.2,3.1,3.3,3.5,5.2,5.4c-2.6,0.2-4.8,0.1-6.3-2.1c-1.4-1.7-5.3-3.6-4.9,0.5
		c-7.9-7.5-5.2,6.2-12.6,6c0.9-2.5,4.2-5.1,2.9-7.9c-0.6,0.2-1.3,0.3-1.8,0.7c-6.4,8.5-4.6-4.4-11.5-1.8c0.1-0.4,0.1-0.7,0.2-1.1
		C212.8,46.1,215.6,52.8,218.8,45z M225.1,40.6c4.1,0.1,5.8-5.1,1.3-5.6C222,33.8,219.9,40.5,225.1,40.6z M217.6,32.4
		c-1,0.9-1.6,1.5-2.2,2.1c1.6,1.4,2.6,1.5,4.1-0.1C219,33.9,218.5,33.3,217.6,32.4z M230.6,29.9c0,0.5,0,1,0,1.5c1,0.1,2,0.2,3,0.3
		c0-0.6,0.1-1.3,0.1-1.9C232.6,29.8,231.6,29.9,230.6,29.9z"/>
</g>
</svg>
