<?xml version="1.0" encoding="utf-8"?>
<!-- Generator: Adobe Illustrator 26.0.0, SVG Export Plug-In . SVG Version: 6.00 Build 0)  -->
<svg version="1.1" id="Capa_1" xmlns="http://www.w3.org/2000/svg" xmlns:xlink="http://www.w3.org/1999/xlink" x="0px" y="0px"
	 viewBox="0 0 595.28 951.02" style="enable-background:new 0 0 595.28 951.02;" xml:space="preserve">
<style type="text/css">
	.st0{fill:#FFFFFF;}
</style>
<g>
	<path d="M185.59,754.18c1.16-4.23,2.35-8.15,3.24-12.14c0.18-0.81-0.46-2.22-1.17-2.74c-11.28-8.19-21.07-17.86-28.91-29.38
		c-3.04-4.48-5.76-9.26-7.99-14.2c-4.26-9.41-2.14-18.56,1.92-27.55c4.75-10.5,12.47-18.62,20.7-26.33
		c8.75-8.19,17.48-16.4,26.43-24.36c3-2.66,6.96-4.25,9.96-6.91c2.97-2.63,5.28-6,8.03-9.23c-7.18-1.97-13.87-3.67-20.47-5.65
		c-14.87-4.46-29.13-10.51-42.64-18.06c-14.25-7.97-28.38-16.22-42.04-25.15c-13.59-8.88-25.01-20.39-35.4-32.88
		c-12.41-14.93-22.08-31.48-28.83-49.66c-7.32-19.73-12.78-39.94-13.39-61.13c-0.35-12.19-0.82-24.47,0.19-36.58
		c0.79-9.51,3.48-18.91,5.85-28.22c2.37-9.31,5.04-18.57,8.23-27.62c3.32-9.39,2.59-18.67,1.61-28.3
		c-2.3-22.59-10.35-42.91-22.9-61.53C13.82,205.5,5.49,182.24,1.84,157.29c-1.52-10.43-3.1-21.05-0.31-31.61
		c0.14-0.51,0.28-1.03,0.37-1.55c0.85-4.73,3.27-7.52,8.47-7.49c11.72,0.07,23.55-1.02,35.14,0.21c13.51,1.43,27.03,4.06,40.17,7.57
		c15.84,4.24,31.34,9.78,46.86,15.11c6.54,2.24,12.75,5.42,19.15,8.09c0.91,0.38,2.15,0.56,3.04,0.26
		c10.69-3.57,21.35-7.25,32.52-11.08c-1.22-1.76-2.28-3.05-3.08-4.48c-4.72-8.49-9.27-17.08-14.08-25.52
		c-4.91-8.62-10.05-17.12-15.12-25.65c-0.37-0.62-0.87-1.4-1.47-1.59c-2.43-0.77-3.44-2.66-2.65-4.69c0.59-1.51,2.29-3.18,3.83-3.6
		c4.51-1.26,9.16-2.14,13.81-2.8c12.28-1.72,24.59-3.22,36.87-4.92c0.86-0.12,2.19-1.14,2.28-1.87
		c1.41-10.89,7.36-19.53,13.84-27.82c9.06-11.6,19.81-21.25,33.27-27.59c28.87-13.61,63-3.93,81.74,18.03
		c4.31,5.05,8.44,10.26,12.29,15.67c2.01,2.83,3.59,6.1,4.68,9.4c0.77,2.34,1.82,2.99,4.05,2.98c11.36-0.06,22.72-0.24,34.07,0.04
		c9.19,0.23,18.37,1.01,27.55,1.64c2.97,0.21,4.41,3.06,3.09,6.55c-1.17,3.08-2.9,5.94-4.26,8.96
		c-7.93,17.64-15.83,35.29-23.72,52.95c-0.08,0.17-0.01,0.4-0.01,0.35c10.14,1.59,20.25,2.91,30.25,4.82
		c8.37,1.6,16.63,3.78,24.89,5.9c3.98,1.02,7.6,0.43,11.13-1.4c23.39-12.09,48.09-20.52,73.78-26.06
		c8.53-1.84,17.22-3.07,25.89-4.12c3.55-0.43,7.25,0.32,10.88,0.6c2.24,0.17,3.72,1.31,4.41,3.56c4.45,14.44,4.49,28.83,0.07,43.31
		c-6.21,20.37-11.22,41.04-15.3,61.94c-1.14,5.85-2.87,11.59-4.31,17.39c-0.15,0.6-0.33,1.32-0.16,1.87
		c2.69,8.55,5.08,17.21,8.26,25.57c3.68,9.67,7.82,19.18,12.21,28.56c4.59,9.81,6.86,20.19,8.88,30.7
		c2.18,11.34,4.76,22.61,6.74,33.98c3.12,17.9,3.94,35.95,3.14,54.11c-0.79,18.06-3.53,35.77-8.45,53.14
		C577.4,489,560.98,516.68,535.58,539c-15.23,13.38-32.7,23.32-49.55,34.26c-14.28,9.28-29.06,17.6-44.96,23.78
		c-5.07,1.97-10.22,3.75-15.32,5.66c-1.04,0.39-2.01,0.98-3.56,1.75c5.53,1.65,8.93,4.94,12.19,8.71
		c7.7,8.91,15.95,17.35,23.55,26.34c10.1,11.94,20.09,23.99,29.58,36.4c10.03,13.12,10.99,29.47,2.15,44.77
		c-8.59,14.87-29.07,21-44.07,14.21c-6.61-2.99-12.56-6.16-15.1-13.27c-2.23-6.22-2.65-12.61,0.99-18.56
		c1.23-2.01,0.63-2.86-1.22-3.59c-1.38-0.55-2.72-1.17-4.57-1.98c-0.71,3.28-1.32,6.35-2.04,9.4c-4.97,21.06-15.23,39.38-28.94,55.9
		c-1.91,2.31-3.95,4.52-6.01,6.69c-1.2,1.27-1.08,2.07,0.39,3.02c19.64,12.72,29.52,31.75,34.79,53.81c0.35,1.46,1.47,3.05,2.7,3.92
		c5.88,4.19,9.45,9.78,10.9,16.79c1.73,8.37,0.58,16.61-0.99,24.85c-0.66,3.46-1.11,7-1.22,10.52c-0.04,1.41,0.74,3.2,1.75,4.21
		c6.27,6.27,12.58,12.52,19.15,18.48c6.13,5.57,10.91,11.74,11.62,20.33c0.41,4.97-0.79,9.61-3.4,13.78
		c-0.78,1.25-2.3,2.26-3.7,2.88c-11.75,5.14-23.94,8.08-36.88,8.73c-17.63,0.89-34.68-1.28-51.66-5.99
		c-12.24-3.4-21.66-9.93-27.95-20.86c-4.05-7.03-5.36-14.71-3.19-22.59c4.48-16.3,6.57-32.88,7.24-49.76
		c0.27-6.84,2.62-13.57,3.63-20.41c1.43-9.71-2.1-15.69-10.72-20.02c-3.58-1.79-6.72-4.45-10.18-6.5c-1.09-0.64-2.76-1.1-3.9-0.76
		c-19.29,5.82-38.8,9.73-59.11,7.57c-1.46-0.16-2.95-0.02-4-0.02c-3.48,15.4-6.77,30.51-10.36,45.55
		c-1.88,7.9-6.29,14.23-13.32,18.53c-1.38,0.84-2.39,1.71-1.51,3.53c0.2,0.42,0.12,1.13-0.11,1.57c-4.35,8.31-3.48,17.73-5.67,26.51
		c-2.94,11.81-8.69,21.59-18.96,28.36c-5.78,3.81-12.59,4.15-19.12,4.48c-17.12,0.87-33.23-3.22-48.44-11.09
		c-13.76-7.13-20.98-21.5-18.71-36.97c1.87-12.74,7.42-23.49,16.2-32.8c11.01-11.67,23.31-21.73,36.99-30.09
		c2.12-1.3,3.32-2.98,4.28-5.27c2.23-5.3,4.49-10.66,7.41-15.6c4.9-8.29,5.41-17.22,4.88-26.4c-0.05-0.94-1.14-2-2.01-2.68
		c-5.35-4.17-11.63-4.55-17.7-2.88c-14.33,3.94-28.85,5.34-43.56,3.9c-19.89-1.94-36.98-10.24-51.93-23.51
		c-9.78-8.68-16.45-19.02-19.41-31.7c-2.29-9.81-1.93-19.82-1.17-29.76c0.74-9.81,2.31-19.57,2.72-29.38
		c0.58-13.55-4.9-24.33-15.86-32.63c-7.57-5.74-14.59-12.23-21.67-18.6c-4.85-4.36-5.57-10.01-3.36-15.89
		c0.7-1.85,2.31-3.96,4.04-4.72c5.38-2.37,10.89-3.35,16.53,0c3.16,1.88,6.99,2.61,10.24,4.36c24.23,13.07,37.45,33.05,37.8,60.99
		c0.14,10.83,0.25,21.65,0.37,32.48c0.07,6.3-0.4,12.67,0.29,18.9c1.4,12.65,9.08,20.9,20.15,26.28c13.98,6.79,29,9.94,44.22,12.35
		c9.17,1.46,18.3,3.17,27.46,4.76C185.18,754.16,185.69,754.19,185.59,754.18z M42.07,393.75c0,0.66-0.08,1.62,0.01,2.57
		c1.04,11.08,1.65,22.22,3.25,33.21c2.75,18.84,8.53,36.83,17.16,53.83c15.22,29.97,38.09,52.76,66.43,70.29
		c20.2,12.5,41.25,23.29,63.54,31.65c14.95,5.61,30.13,10.17,46.11,11.55c9.37,0.81,18.75,1.5,28.13,2.12
		c11.2,0.74,22.41,1.84,33.62,1.9c21.95,0.12,43.9-0.36,65.84-0.64c5.13-0.07,10.28-0.13,15.39-0.58
		c10.01-0.88,19.99-2.02,29.98-3.06c4.25-0.44,8.69-0.26,12.69-1.51c6.5-2.02,12.95-4.51,18.98-7.64
		c14.68-7.61,29.23-15.51,43.63-23.66c23.33-13.2,44.51-29.12,61.85-49.86c11.38-13.62,20.33-28.63,25.92-45.44
		c6.26-18.81,11.05-38.05,12.3-57.91c0.82-13.13,1.33-26.36,0.67-39.48c-1.07-21.09-5.14-41.77-11.07-62.07
		c-0.79-2.69-1.63-3.32-4.32-2.89c-28.11,4.49-56.27,8.68-84.35,13.3c-28.18,4.63-56.32,9.59-84.44,14.55
		c-14.42,2.54-28.8,5.37-43.18,8.13c-7.35,1.41-14.69,2.87-21.99,4.48c-1.55,0.34-3.56,0.31-3.78,3.04
		c-0.71,8.8-3.32,17.14-6.29,25.44c-5.91,16.52-14.99,30.62-29.08,41.39c-10.78,8.24-22.75,13.85-35.69,17.62
		c-11.23,3.27-22.65,5.55-34.35,6c-18.41,0.71-36.42-1.52-54.05-7.21c-13.93-4.49-26.02-11.7-34.94-23.3
		c-6.77-8.8-12.67-18.28-18.75-27.59c-1.58-2.42-3.34-3.37-6.08-2.95c-9.72,1.48-19.54,2.48-29.15,4.48
		C71.42,386.54,56.93,390.25,42.07,393.75z M563.47,277.12c-0.17-0.62-0.38-1.41-0.62-2.19c-3.78-12.21-7.54-24.43-11.39-36.62
		c-0.42-1.31-1.23-2.65-2.22-3.6c-1.66-1.59-2.2-3.19-1.55-5.44c1.27-4.41,2.46-8.85,3.5-13.32c6.18-26.44,12.35-52.89,18.44-79.35
		c1.88-8.14,2.41-16.28-0.5-24.39c-0.74-2.06-1.69-2.74-3.88-2.68c-20.61,0.53-40.56,4.45-59.72,11.96
		c-14.6,5.72-29.01,11.97-43.37,18.28c-5.56,2.45-10.52,2.6-16.58,0.99c-14.9-3.96-30.13-6.65-45.24-9.84
		c-1.88-0.4-3.88-0.42-5.64-1.11c-1.96-0.77-2.87-0.45-3.58,1.55c-1.09,3.02-3.39,4.35-6.63,4.65c-12.89,1.18-25.75,2.74-38.66,3.75
		c-18.21,1.42-36.43,3.16-54.67,3.53c-27.81,0.55-55.65,0.43-83.42-2c-5.77-0.51-11.31-0.95-17.23,1.47
		c-10.45,4.28-21.5,7.07-32.26,10.61c-4.05,1.34-7.89,1.24-11.88-0.27c-15.06-5.68-30.05-11.58-45.28-16.77
		c-16.07-5.47-32.47-10.11-49.48-11.28c-13.53-0.93-27.14-0.66-40.71-0.97c-2.03-0.05-2.07,1.24-2.31,2.7
		c-1.98,12.27-0.48,24.41,1.68,36.44c3.76,20.98,11.89,40.29,22.91,58.51c6.13,10.14,12.03,20.48,17.08,31.19
		c5.52,11.73,6.21,24.82,8.59,37.41c0.64,3.4,1.41,6.99,0.96,10.33c-0.81,5.91-2.36,11.74-3.88,17.53
		c-3.33,12.71-6.9,25.36-10.21,38.07c-0.94,3.62-1.31,7.4-1.92,11c6.95-1.61,13.4-3.03,19.8-4.62c15.42-3.81,30.77-7.94,46.24-11.51
		c29.33-6.77,58.52-14.15,88.25-19.13c33.92-5.68,67.71-12.14,101.62-17.93c23.8-4.07,47.68-7.72,71.56-11.31
		c27.16-4.09,54.36-7.93,81.54-11.83c20.96-3,41.9-6.14,62.89-8.81C531.51,280.15,547.39,278.79,563.47,277.12z M250.92,713.1
		c6.65,5.61,9.46,13.18,7.04,22.23c-2.3,8.62-8.97,13.6-16.34,17.55c-1.96,1.05-2.07,1.93-1.74,3.66c0.94,4.94,1.89,9.88,2.68,14.85
		c1.88,11.81,7.83,21.03,17.99,27.15c4.09,2.46,8.97,5.17,13.45,5.1c11.48-0.17,23.15-0.8,34.34-3.15
		c13.72-2.89,27.28-7.02,40.44-11.88c17.32-6.4,31.16-17.95,42.63-32.41c10.09-12.72,19.03-26.09,23.64-41.88
		c1.58-5.43,2.54-11.04,4.16-16.45c0.88-2.94,0.8-5.21-0.61-8.1c-2.26-4.61-3.97-9.82,0.2-14.4c2.43-2.68,4.63-5.13,3.21-9.07
		c-0.16-0.44,0.07-1.06,0.21-1.57c2.21-7.91,1.45-15.92,0.86-23.92c-0.14-1.84-0.38-3.67-0.63-6.06c-3.21,2.5-5.94,4.53-8.55,6.69
		c-12.45,10.28-24.86,20.61-37.36,30.83c-0.67,0.55-2.15,0.69-2.97,0.34c-1.22-0.52-2.38-1.48-3.22-2.53
		c-4.29-5.34-8.53-10.72-12.67-16.17c-3.71-4.89-7.26-9.9-11.22-15.33c-1.95,6.54-3.6,12.49-5.5,18.36
		c-1.97,6.08-4.11,12.1-6.32,18.09c-0.97,2.63-3.14,3.34-5.76,2.61c-6.26-1.74-12.79-2.87-18.72-5.39
		c-15.2-6.47-30.14-13.54-45.16-20.43c-4.5-2.07-8.9-4.36-13.42-6.58c-0.48,2.66-1.01,4.94-1.29,7.26
		c-1.41,11.56-2.74,23.13-4.16,34.68c-0.22,1.78,0.53,2.56,2.01,3.45c2.91,1.75,5.71,3.74,8.3,5.93c2.35,1.99,3.19,4.82,1.45,7.52
		C255.89,707.2,253.37,709.98,250.92,713.1z M413.96,60.02c-4.93,0-9.19-0.04-13.45,0.01c-19.9,0.23-39.82,0.04-59.69,0.86
		c-20.06,0.83-40.07,3.07-60.13,3.96c-19.14,0.85-38.24,1.67-57.26,4.13c-15.26,1.97-30.6,3.36-45.86,5.29
		c-6.2,0.78-12.3,2.31-18.79,3.56c1.72,2.49,3.26,4.42,4.49,6.53c5.7,9.77,11.39,19.56,16.91,29.43c1.11,1.98,2.28,2.56,4.52,2.57
		c8.66,0.04,17.32,0.5,25.99,0.58c9.63,0.09,19.28,0.21,28.9-0.21c10.99-0.48,21.96-1.59,32.94-2.31
		c13.23-0.87,26.47-1.59,39.7-2.42c10.98-0.69,21.97-1.37,32.94-2.2c10.01-0.76,20.01-1.72,30.01-2.57c5.98-0.51,11.91-3,17.6-0.55
		C399.77,91.29,406.68,76.06,413.96,60.02z M240.51,687.26c0-1.81-0.18-3.32,0.03-4.77c1.79-12.71,3.69-25.4,5.42-38.12
		c0.13-0.99-0.42-2.57-1.2-3.11c-10.14-7.12-20.35-14.15-30.61-21.08c-1.14-0.77-2.99-1.49-4.09-1.08
		c-2.56,0.95-5.21,2.22-7.21,4.04c-10.9,9.96-21.93,19.83-32.25,30.37c-4.7,4.8-8.45,10.77-11.65,16.74
		c-4.86,9.08-5.25,18.27,0.35,27.74c10.7,18.07,25.07,32.19,43.29,42.36c6.84,3.82,13.67,7.8,21.87,8.54
		c10.18,0.91,20.07-4.18,25.29-13.11c3.63-6.22,2.36-10.02-1.42-14.95c-1.51-1.98-3.84-3.34-5.83-4.93c-2.66-2.13-5.47-4.1-7.97-6.4
		c-0.91-0.84-1.12-2.44-1.64-3.7c1.35-0.52,2.7-1.47,4.05-1.49c3.4-0.04,6.83,0.66,10.21,0.43c1.48-0.1,3.34-1.46,4.09-2.78
		c0.41-0.73-0.8-3.09-1.88-3.78c-2-1.29-4.39-2.03-6.7-2.77c-5.44-1.75-11.25-2.69-16.32-5.16c-11.48-5.61-23.43-9.08-36.13-9.9
		c-5.76-0.37-11.54-0.3-17.3-0.66c-1-0.06-1.93-1.22-2.89-1.87c0.73-0.66,1.36-1.72,2.19-1.92c2.58-0.6,5.23-1.2,7.86-1.22
		c9.71-0.06,19.46-0.68,29.06,1.63c0.74,0.18,2.2-0.45,2.53-1.11c2.09-4.18,4.42-8.34,5.79-12.77c2.25-7.24,2.22-14.74,0.97-22.24
		c-0.14-0.84,0.68-1.83,1.05-2.75c0.82,0.34,2.09,0.45,2.38,1.05c1.01,2.05,2.45,4.33,2.32,6.42c-0.43,6.81-1.07,13.66-2.46,20.32
		c-0.96,4.61-3.29,8.94-4.94,13.21c4.75,2.33,9.79,4.42,14.41,7.19C234.19,687.45,237.07,687.7,240.51,687.26z M430.33,889.42
		c-3.97,1.28-7.48,2.53-11.05,3.53c-14.67,4.12-29.29,1.59-43.85-0.7c-3.85-0.61-7.29-2.63-10.28-6.2c1.65-0.15,2.79-0.43,3.89-0.32
		c3.69,0.34,7.36,0.99,11.05,1.22c8.52,0.53,17.05,1.14,25.58,1.25c7.46,0.09,14.53-2.1,21.31-5.12c0.52-0.23,1.1-1,1.15-1.56
		c0.78-9.6,1.75-19.21,2.07-28.83c0.17-5.17-2.02-9.91-5.55-14.55c-0.56,1.42-0.78,2.49-1.35,3.31c-1.99,2.85-3.74,5.99-6.23,8.34
		c-4.88,4.61-11.4,5.46-17.67,5.54c-9.6,0.12-19.25-0.28-28.82-1.14c-5.2-0.47-10.27-2.36-15.51-3.64c-0.03,0.11-0.18,0.51-0.2,0.92
		c-0.25,5.56,0.02,11.2-0.82,16.67c-1.76,11.4-4,22.73-6.23,34.06c-2.49,12.67,3.08,23.99,14.56,29.91
		c6.79,3.5,13.87,5.9,21.27,7.74c12.9,3.22,25.95,4.14,39.12,3.29c11.56-0.74,22.77-3.54,33.71-7.31c2.44-0.84,4.01-2.66,4.07-5.53
		c0.19-9.84-5.15-16.83-12.21-22.57C441.67,902.28,433.72,898.25,430.33,889.42z M414.94,603.81c-1.08,0.09-2.54,0.18-3.99,0.35
		c-11.67,1.3-23.32,3.18-35.03,3.79c-14.84,0.78-29.74,0.93-44.6,0.65c-21.05-0.4-42.1-1.22-63.13-2.3
		c-13.11-0.67-26.2-2.07-39.27-3.37c-2.76-0.28-4.94-0.68-6.03,2.61c-0.35,1.03-1.39,1.87-2.21,2.7c-5.01,5.16-4.97,5.74,0.85,10.03
		c0.17,0.13,0.35,0.25,0.53,0.36c12.1,7.45,23.85,15.57,36.4,22.17c14.61,7.68,29.83,14.25,44.97,20.88
		c7.94,3.48,16.28,6.05,24.7,9.12c0.59-1.73,0.95-2.71,1.26-3.7c4.04-12.71,7.98-25.46,12.15-38.13c1.59-4.83,4.59-5.26,8.17-1.43
		c0.79,0.85,1.33,1.93,1.94,2.94c3.36,5.58,6.43,11.36,10.14,16.7c4.06,5.83,8.72,11.24,12.87,16.53
		c10.31-8.39,20.25-16.49,30.2-24.58c4.23-3.43,8.49-6.81,12.72-10.25c1.84-1.49,2.26-3.34,1.69-5.69
		C417.76,616.88,416.43,610.53,414.94,603.81z M193.2,743.08c-0.93,3.83-1.79,7.31-2.59,10.8c-0.09,0.38,0.05,0.86,0.21,1.23
		c2.01,4.58,0.95,6.21-4.08,6.12c-0.85-0.01-1.72-0.06-2.55-0.22c-16.69-3.07-33.41-5.95-50.04-9.31
		c-11.22-2.27-22.03-5.7-31.55-12.6c-9.54-6.91-16.14-15.72-16.69-27.53c-0.68-14.43-0.73-28.95,0.12-43.36
		c1.52-25.84-7.22-46.51-28.62-61.35c-6.98-4.84-14.43-8.71-23.5-7.56c-2.65,0.34-4.06,1.35-4.64,3.91
		c-0.89,3.9,1.16,7.69,5.21,10.88c8.24,6.48,16.8,12.68,24.25,19.99c10.03,9.83,14.6,22.13,12.94,36.46
		c-1.3,11.15-2.63,22.31-3.35,33.51c-0.56,8.64-0.58,17.44,2.99,25.61c5.46,12.5,14.12,22.49,25.5,29.85
		c21.75,14.07,45.53,17.01,70.45,11.36c9.14-2.07,18.11-3.26,27.15-0.27c2.85,0.94,6.37,1.99,7.93,4.18
		c2.42,3.39,5.03,6.09,8.26,8.79c9.78,8.15,20.77,13.33,33.02,16.18c2.69,0.63,5.4,1.12,8.1,1.67
		c-6.14-6.22-10.72-13.08-13.62-21.04c-2.88-7.92-4.08-16.05-2.41-25.02C219.12,759.41,206.4,751.2,193.2,743.08z M227.57,890.28
		c-3.04,0.36-5.56,0.86-8.09,0.91c-11.3,0.22-22.33-1.88-33.33-4.18c-4.71-0.98-9.48-1.82-13.3-5.07c-1.11-0.94-1.93-2.22-3.5-4.06
		c1.92,0,2.74-0.11,3.52,0.02c5.59,0.89,11.27,1.43,16.73,2.84c8.29,2.14,16.65,2.61,25.11,2.31c2.37-0.08,4.71-0.65,7.07-1
		c-11.96-1.11-21.56-6.4-29.95-14.41c-8.8-8.41-11.79-18.79-10.17-31.05c-1.09,0.52-1.75,0.78-2.37,1.13
		c-10.34,5.82-19.33,13.37-27.61,21.78c-5.35,5.43-10.19,11.24-13.31,18.34c-3.77,8.57-5.24,17.54-3.6,26.67
		c1.67,9.28,8.94,14.46,16.51,18.56c14.38,7.78,30.02,10.17,46.21,8.97c3.76-0.28,8.19-0.39,11.07-2.38
		C222.03,920.33,227.25,906.66,227.57,890.28z M347.12,52.6c-2.23-3.47-4.29-6.57-6.24-9.72c-5.61-9.07-11.9-17.52-20.94-23.55
		C304.09,8.77,287.01,4.46,268.23,9.27c-10.16,2.6-19.07,7.46-27.14,14.4c-9.53,8.2-17.78,17.28-23.98,28.2
		c-1.89,3.33-3.44,6.85-5.39,10.76C257.29,59.26,301.91,55.95,347.12,52.6z M427.59,669.1c6.38-0.62,12.9-0.59,16.34,4.42
		c3.9,5.66,8.49,5.95,14.09,5.21c0.63-0.08,1.31-0.13,1.92,0.01c5.67,1.37,11.35,2.71,16.96,4.29c0.81,0.23,1.29,1.66,1.92,2.54
		c-0.9,0.23-1.84,0.75-2.71,0.65c-9.52-1.13-18.97-0.94-28.4,0.9c-3.04,0.59-4.24-0.59-4.44-3.79c-0.04-0.73-0.11-1.52-0.43-2.15
		c-3.02-5.91-10.79-7.72-16.56-4.22c-6.19,3.75-4.15,9.43-0.62,12.5c1.01,0.88,2.45,1.25,3.68,1.87c2.37,1.2,4.77,2.36,7.1,3.63
		c1.7,0.92,2.15,2.27,1.76,4.3c-0.93,4.94-1.53,9.94-2.25,14.92c-0.49,3.41,0.56,6.39,2.81,8.89c7.2,7.96,22.37,10.79,32.07,6.05
		c17.97-8.77,24.38-31.06,13.12-47.68c-6.41-9.46-13.58-18.48-21.08-27.11c-11.73-13.49-24.03-26.48-36.11-39.67
		c-0.36-0.39-0.88-0.62-1.3-0.91C427.39,632.23,431,650.44,427.59,669.1z M257.36,810.55c-6.46-1.6-12.74-2.8-18.8-4.73
		c-8.71-2.77-17.83-4.71-25.35-10.33c-3.13-2.34-5.87-5.19-8.88-7.9c-0.15,0.4-0.32,0.67-0.34,0.94
		c-1.08,13.93-5.99,26.49-12.62,38.7c-4.87,8.98-5.17,18.77-0.04,28c4.42,7.95,11.25,13.35,19.7,16.67
		c13.78,5.4,31.78,0.14,36.11-18.65c2.38-10.31,4.89-20.58,7.36-30.87C255.45,818.37,256.43,814.35,257.36,810.55z M337.45,800.94
		c5.91,4.78,11.85,9.04,17.06,14.04c2.26,2.17,3.95,5.8,4.25,8.93c0.43,4.48-0.36,9.16-1.17,13.66c-0.95,5.24-0.38,6.69,4.82,8.08
		c1.74,0.46,3.57,0.6,5.37,0.76c5.44,0.49,10.89,0.81,16.31,1.39c7.66,0.83,15.21,0.26,22.51-2.1c2.81-0.91,6.13-2.12,7.8-4.28
		c3.39-4.4,4.28-10.08,2.59-15.3c-2.05-6.33-5.14-12.33-7.91-18.41c-5.42-11.92-13.48-21.78-23.75-29.83
		c-1.28-1-2.42-2.61-4.61-0.64c-9.66,8.66-20.72,15.06-32.87,19.6C344.28,798.16,340.77,799.62,337.45,800.94z M390.38,114.06
		c-5.54,0.38-10.75,0.74-15.97,1.08c-15.8,1.04-31.59,2.09-47.39,3.09c-14.41,0.91-28.81,1.84-43.23,2.63
		c-12.06,0.66-24.13,1.4-36.21,1.58c-17.11,0.26-34.22,0.05-51.34,0.05c-3.56,0-7.12,0-11.14,0c1.16,1.97,2.03,3.3,2.74,4.71
		c2.2,4.34,5.14,7.28,10.55,6.25c1.11-0.21,2.34,0.2,3.51,0.26c16.23,0.88,32.45,2.29,48.68,2.49c19.68,0.25,39.39-0.3,59.07-0.94
		c13.02-0.43,26.05-1.27,39.01-2.6c11.56-1.19,23.02-3.27,34.51-5.06c0.75-0.12,1.69-0.89,2.02-1.59
		C386.99,122.15,388.61,118.21,390.38,114.06z"/>
	<path class="st0" d="M42.07,393.75c14.86-3.5,29.35-7.21,43.99-10.24c9.61-1.99,19.43-3,29.15-4.48c2.74-0.42,4.5,0.53,6.08,2.95
		c6.08,9.31,11.98,18.79,18.75,27.59c8.92,11.59,21.01,18.8,34.94,23.3c17.62,5.68,35.64,7.92,54.05,7.21
		c11.7-0.45,23.12-2.73,34.35-6c12.94-3.76,24.91-9.38,35.69-17.62c14.1-10.77,23.18-24.87,29.08-41.39
		c2.97-8.3,5.58-16.64,6.29-25.44c0.22-2.73,2.24-2.69,3.78-3.04c7.3-1.62,14.64-3.08,21.99-4.48c14.39-2.76,28.76-5.59,43.18-8.13
		c28.13-4.96,56.26-9.91,84.44-14.55c28.09-4.62,56.24-8.81,84.35-13.3c2.69-0.43,3.53,0.2,4.32,2.89
		c5.93,20.3,10.01,40.98,11.07,62.07c0.66,13.12,0.16,26.35-0.67,39.48c-1.25,19.86-6.04,39.1-12.3,57.91
		c-5.59,16.81-14.54,31.82-25.92,45.44c-17.34,20.74-38.52,36.66-61.85,49.86c-14.4,8.15-28.94,16.04-43.63,23.66
		c-6.04,3.13-12.49,5.62-18.98,7.64c-4,1.24-8.45,1.06-12.69,1.51c-9.99,1.04-19.97,2.19-29.98,3.06
		c-5.11,0.45-10.25,0.51-15.39,0.58c-21.95,0.28-43.9,0.76-65.84,0.64c-11.21-0.06-22.42-1.16-33.62-1.9
		c-9.38-0.62-18.76-1.31-28.13-2.12c-15.98-1.38-31.16-5.94-46.11-11.55c-22.28-8.36-43.33-19.16-63.54-31.65
		c-28.34-17.53-51.21-40.32-66.43-70.29c-8.64-17-14.42-34.99-17.16-53.83c-1.6-11-2.22-22.14-3.25-33.21
		C42,395.37,42.07,394.41,42.07,393.75z M517.57,416.36c0.09,0.26,0.19,0.51,0.28,0.77c4.53-1.43,9.54-2.06,13.51-4.44
		c13.08-7.84,25.84-16.22,38.57-24.63c1.55-1.03,2.87-3.36,3.13-5.26c2.02-14.52,3.81-29.08,5.5-43.64c0.2-1.71-0.27-3.69-1.02-5.27
		c-1.08-2.27-2.93-4.41-5.78-3.42c-5.84,2.01-11.89,3.77-17.24,6.75c-16.13,9-32.03,18.41-47.87,27.93
		c-7.69,4.62-15.03,9.8-22.51,14.77c-2.6,1.73-3.46,4.67-2.22,6.8c5.07,8.73,11.64,16.19,19.72,22.15
		C506.4,412.38,511.06,416.48,517.57,416.36z M368.55,395.37c-2.62,0.39-5.01,0.83-7.42,1.11c-18.86,2.16-34.36,10.61-46.28,25.32
		c-8.13,10.03-10.49,21.37-5.7,33.66c4.58,11.76,13.32,18.97,25.31,22.61c12.96,3.94,25.93,5.25,39.02,0.89
		c8.19-2.72,15.61-6.52,19.38-15.01c0.07-0.15,0.35-0.21,0.68-0.4c1.09,0.7,2.24,1.45,3.41,2.17c13.47,8.15,27.93,10.01,42.44,4.32
		c14.59-5.72,24-16.97,28.89-32c4.26-13.09,2.74-25.23-4.88-36.72c-7.43-11.21-22.83-18.97-40.03-15.13
		c-3.82,0.85-7.55,2.05-11.49,3.14c0.1-3.88-2.02-6.53-5.56-7.93c-1.85-0.73-3.93-1.15-5.92-1.24c-9.04-0.37-17.85,1.24-26.53,3.61
		C368.68,385.18,365.59,390.94,368.55,395.37z M550.43,459.31c0.57-2.37-0.88-2.7-2.68-2.57c-3.62,0.27-6.81,3.27-7.16,6.67
		c-0.41,3.99,2.14,8.7,5.31,9.79c3.98,1.37,10.82-0.95,13.53-4.58c2.42-3.26,2.52-9.99,0.19-13.42c-2.4-3.54-7.35-4.69-10.18-2.23
		c0.47,0.29,0.88,0.62,1.34,0.81c4.82,1.95,6.29,5.2,4.95,10.95c-0.8,3.42-3.51,4.86-8.35,4.62c-2.31-0.11-3.23-1.26-3.23-3.46
		C544.12,462.27,546.15,460.1,550.43,459.31z M514.6,497.27c1.75-0.39,3.59-0.58,5.25-1.21c4.23-1.63,6.5-5.46,6.27-10.16
		c-0.15-3.21-2.65-5.86-6.77-7.2c-4.14-1.35-12.67,3.21-13.83,7.39C504.07,491.26,508.82,497,514.6,497.27z M488.83,464.23
		c0.01,4.25,4.44,8.81,8.53,8.78c5.34-0.04,10.69-4.89,10.6-9.62c-0.1-5.21-4.2-9.47-9.2-9.55
		C494.15,453.78,488.82,459.35,488.83,464.23z M265.32,483.51c5.81,0.02,9.39-3.09,9.5-8.02c0.12-5.48-4.32-9.54-9.72-9.9
		c-3.15-0.21-7.94,6.58-7.91,10.76C257.23,481.11,259.94,483.49,265.32,483.51z M236.56,512.45c5.7,0,9.37-3.13,9.47-8.84
		c0.03-1.78-1.26-4.08-2.68-5.27c-2.64-2.2-5.54-1.67-8.81-0.2c-4.47,2.01-6.34,3.88-5.76,8.2
		C229.34,510.61,231.68,512.44,236.56,512.45z M207.03,486.8c-0.04-4.57-3.37-8.13-7.68-8.2c-3.73-0.06-8.2,3.57-8.17,6.64
		c0.04,4.78,3.88,9.23,7.92,9.19C204.05,494.37,207.07,491.47,207.03,486.8z"/>
	<path class="st0" d="M563.47,277.12c-16.08,1.67-31.96,3.03-47.76,5.04c-21,2.67-41.94,5.81-62.89,8.81
		c-27.19,3.9-54.38,7.74-81.54,11.83c-23.88,3.59-47.75,7.25-71.56,11.31c-33.9,5.79-67.7,12.25-101.62,17.93
		c-29.73,4.98-58.92,12.36-88.25,19.13c-15.48,3.57-30.82,7.7-46.24,11.51c-6.41,1.58-12.85,3-19.8,4.62c0.61-3.6,0.98-7.38,1.92-11
		c3.31-12.72,6.88-25.36,10.21-38.07c1.52-5.79,3.07-11.62,3.88-17.53c0.46-3.34-0.32-6.93-0.96-10.33
		c-2.37-12.59-3.06-25.69-8.59-37.41c-5.04-10.71-10.95-21.05-17.08-31.19c-11.02-18.22-19.14-37.53-22.91-58.51
		c-2.16-12.02-3.66-24.17-1.68-36.44c0.24-1.46,0.27-2.75,2.31-2.7c13.57,0.31,27.18,0.04,40.71,0.97
		c17.01,1.17,33.42,5.81,49.48,11.28c15.23,5.19,30.22,11.09,45.28,16.77c3.99,1.51,7.83,1.6,11.88,0.27
		c10.76-3.54,21.81-6.33,32.26-10.61c5.92-2.42,11.46-1.98,17.23-1.47c27.77,2.44,55.6,2.56,83.42,2
		c18.24-0.36,36.46-2.11,54.67-3.53c12.9-1.01,25.76-2.57,38.66-3.75c3.24-0.3,5.55-1.63,6.63-4.65c0.72-2,1.62-2.32,3.58-1.55
		c1.75,0.69,3.76,0.71,5.64,1.11c15.1,3.19,30.34,5.88,45.24,9.84c6.06,1.61,11.01,1.45,16.58-0.99
		c14.36-6.32,28.77-12.56,43.37-18.28c19.15-7.51,39.11-11.43,59.72-11.96c2.18-0.06,3.13,0.62,3.88,2.68
		c2.91,8.11,2.38,16.24,0.5,24.39c-6.1,26.46-12.26,52.91-18.44,79.35c-1.04,4.47-2.23,8.91-3.5,13.32
		c-0.65,2.24-0.11,3.85,1.55,5.44c0.99,0.95,1.81,2.28,2.22,3.6c3.86,12.19,7.61,24.41,11.39,36.62
		C563.09,275.71,563.3,276.5,563.47,277.12z M32.31,145.22c-1.27,0.54-3.27,0.76-3.87,1.79c-0.64,1.11-0.19,3.03,0.17,4.5
		c0.5,2.01,1.57,3.89,2.02,5.91c0.84,3.75,1.29,7.59,2.1,11.35c4.7,21.85,12.9,42.4,23.34,62.07c2.49,4.7,4.96,9.65,8.52,13.48
		c4.38,4.71,8.54,5.35,12.9-0.07c5.37-6.67,11.11-13.04,16.67-19.56c11.54-13.52,22.69-27.4,34.8-40.39
		c4.93-5.3,4.26-12.71-3.65-15.62c-2.91-1.07-5.81-2.19-8.79-3c-19.64-5.39-39.24-10.93-58.97-15.95
		C49.42,147.66,40.98,146.73,32.31,145.22z M554.25,137.25c0.17-5.47-3.15-8.29-8.58-7.13c-3.22,0.69-6.43,1.57-9.52,2.7
		c-17,6.23-33.98,12.52-50.93,18.89c-3.21,1.21-5.52,3.56-6.68,6.93c-0.63,1.84-0.45,3.11,1.41,4.28
		c17.9,11.27,32.8,25.63,44.39,43.39c1.08,1.65,2.77,2.94,4.33,4.22c2,1.64,3.83,1.55,5.24-0.91c2.91-5.1,6.25-9.99,8.73-15.28
		C551.12,176.29,553.63,156.95,554.25,137.25z"/>
	<path class="st0" d="M250.92,713.1c2.45-3.12,4.97-5.9,6.97-9.02c1.73-2.7,0.9-5.53-1.45-7.52c-2.59-2.19-5.4-4.18-8.3-5.93
		c-1.48-0.89-2.22-1.67-2.01-3.45c1.42-11.56,2.74-23.12,4.16-34.68c0.28-2.31,0.81-4.59,1.29-7.26c4.52,2.22,8.92,4.51,13.42,6.58
		c15.01,6.89,29.96,13.96,45.16,20.43c5.93,2.53,12.46,3.66,18.72,5.39c2.62,0.73,4.79,0.02,5.76-2.61
		c2.21-5.99,4.35-12.02,6.32-18.09c1.9-5.87,3.56-11.82,5.5-18.36c3.97,5.44,7.52,10.44,11.22,15.33
		c4.14,5.46,8.38,10.84,12.67,16.17c0.84,1.05,2.01,2.01,3.22,2.53c0.82,0.35,2.3,0.21,2.97-0.34
		c12.49-10.22,24.9-20.56,37.36-30.83c2.62-2.16,5.34-4.19,8.55-6.69c0.25,2.38,0.49,4.22,0.63,6.06c0.6,8,1.35,16.02-0.86,23.92
		c-0.14,0.51-0.37,1.13-0.21,1.57c1.42,3.94-0.78,6.4-3.21,9.07c-4.17,4.59-2.46,9.79-0.2,14.4c1.41,2.89,1.5,5.16,0.61,8.1
		c-1.63,5.41-2.58,11.02-4.16,16.45c-4.61,15.79-13.55,29.16-23.64,41.88c-11.46,14.45-25.31,26.01-42.63,32.41
		c-13.16,4.86-26.73,9-40.44,11.88c-11.19,2.36-22.86,2.98-34.34,3.15c-4.48,0.07-9.36-2.64-13.45-5.1
		c-10.16-6.12-16.11-15.35-17.99-27.15c-0.79-4.97-1.73-9.91-2.68-14.85c-0.33-1.73-0.22-2.6,1.74-3.66
		c7.36-3.96,14.04-8.93,16.34-17.55C260.38,726.29,257.57,718.72,250.92,713.1z"/>
	<path class="st0" d="M413.96,60.02c-7.28,16.05-14.2,31.27-21.18,46.67c-5.69-2.45-11.62,0.04-17.6,0.55
		c-10.01,0.85-20,1.81-30.01,2.57c-10.97,0.83-21.96,1.51-32.94,2.2c-13.23,0.83-26.47,1.56-39.7,2.42
		c-10.99,0.72-21.95,1.83-32.94,2.31c-9.62,0.42-19.27,0.29-28.9,0.21c-8.66-0.08-17.33-0.54-25.99-0.58
		c-2.24-0.01-3.41-0.59-4.52-2.57c-5.53-9.87-11.21-19.66-16.91-29.43c-1.23-2.11-2.76-4.04-4.49-6.53
		c6.49-1.25,12.59-2.78,18.79-3.56c15.27-1.93,30.6-3.32,45.86-5.29c19.02-2.45,38.12-3.28,57.26-4.13
		c20.06-0.89,40.07-3.13,60.13-3.96c19.88-0.82,39.79-0.63,59.69-0.86C404.77,59.98,409.03,60.02,413.96,60.02z"/>
	<path class="st0" d="M240.51,687.26c-3.44,0.45-6.32,0.19-9.33-1.61c-4.62-2.77-9.66-4.87-14.41-7.19
		c1.65-4.28,3.98-8.6,4.94-13.21c1.39-6.66,2.03-13.52,2.46-20.32c0.13-2.1-1.31-4.37-2.32-6.42c-0.29-0.6-1.56-0.71-2.38-1.05
		c-0.37,0.92-1.19,1.92-1.05,2.75c1.25,7.5,1.27,15-0.97,22.24c-1.37,4.43-3.7,8.59-5.79,12.77c-0.33,0.65-1.79,1.28-2.53,1.11
		c-9.6-2.31-19.35-1.69-29.06-1.63c-2.63,0.01-5.28,0.62-7.86,1.22c-0.84,0.2-1.47,1.25-2.19,1.92c0.96,0.65,1.89,1.81,2.89,1.87
		c5.76,0.35,11.54,0.28,17.3,0.66c12.71,0.82,24.65,4.29,36.13,9.9c5.07,2.48,10.88,3.42,16.32,5.16c2.3,0.74,4.7,1.48,6.7,2.77
		c1.08,0.7,2.29,3.05,1.88,3.78c-0.74,1.32-2.61,2.68-4.09,2.78c-3.38,0.23-6.8-0.46-10.21-0.43c-1.36,0.01-2.7,0.96-4.05,1.49
		c0.53,1.25,0.73,2.86,1.64,3.7c2.5,2.3,5.31,4.27,7.97,6.4c1.99,1.6,4.32,2.96,5.83,4.93c3.79,4.94,5.06,8.74,1.42,14.95
		c-5.22,8.93-15.11,14.02-25.29,13.11c-8.2-0.73-15.03-4.72-21.87-8.54c-18.22-10.17-32.59-24.3-43.29-42.36
		c-5.6-9.47-5.21-18.66-0.35-27.74c3.2-5.97,6.95-11.95,11.65-16.74c10.33-10.54,21.35-20.41,32.25-30.37
		c1.99-1.82,4.65-3.09,7.21-4.04c1.1-0.41,2.95,0.31,4.09,1.08c10.27,6.93,20.48,13.96,30.61,21.08c0.77,0.54,1.33,2.12,1.2,3.11
		c-1.73,12.72-3.63,25.41-5.42,38.12C240.33,683.94,240.51,685.45,240.51,687.26z"/>
	<path class="st0" d="M430.33,889.42c3.39,8.83,11.35,12.86,18.03,18.29c7.06,5.75,12.4,12.73,12.21,22.57
		c-0.06,2.87-1.63,4.69-4.07,5.53c-10.94,3.77-22.15,6.56-33.71,7.31c-13.17,0.85-26.22-0.07-39.12-3.29
		c-7.4-1.85-14.48-4.25-21.27-7.74c-11.49-5.92-17.05-17.24-14.56-29.91c2.23-11.32,4.47-22.66,6.23-34.06
		c0.84-5.47,0.57-11.11,0.82-16.67c0.02-0.41,0.17-0.81,0.2-0.92c5.24,1.28,10.31,3.17,15.51,3.64c9.57,0.87,19.21,1.26,28.82,1.14
		c6.27-0.08,12.79-0.93,17.67-5.54c2.49-2.35,4.25-5.49,6.23-8.34c0.57-0.82,0.79-1.89,1.35-3.31c3.53,4.64,5.72,9.38,5.55,14.55
		c-0.32,9.62-1.29,19.22-2.07,28.83c-0.05,0.56-0.62,1.33-1.15,1.56c-6.78,3.02-13.86,5.21-21.31,5.12
		c-8.53-0.11-17.06-0.71-25.58-1.25c-3.69-0.23-7.36-0.88-11.05-1.22c-1.1-0.1-2.24,0.17-3.89,0.32c2.98,3.57,6.43,5.59,10.28,6.2
		c14.56,2.3,29.18,4.83,43.85,0.7C422.85,891.94,426.36,890.7,430.33,889.42z"/>
	<path class="st0" d="M414.94,603.81c1.49,6.72,2.81,13.07,4.33,19.37c0.57,2.35,0.15,4.2-1.69,5.69
		c-4.23,3.43-8.5,6.81-12.72,10.25c-9.95,8.08-19.89,16.19-30.2,24.58c-4.16-5.29-8.81-10.7-12.87-16.53
		c-3.71-5.33-6.78-11.12-10.14-16.7c-0.61-1-1.15-2.09-1.94-2.94c-3.57-3.83-6.57-3.41-8.17,1.43
		c-4.17,12.67-8.11,25.42-12.15,38.13c-0.32,0.99-0.67,1.97-1.26,3.7c-8.41-3.07-16.75-5.64-24.7-9.12
		c-15.14-6.63-30.36-13.19-44.97-20.88c-12.55-6.6-24.29-14.72-36.4-22.17c-0.18-0.11-0.36-0.23-0.53-0.36
		c-5.83-4.29-5.87-4.87-0.85-10.03c0.82-0.84,1.86-1.67,2.21-2.7c1.1-3.28,3.28-2.88,6.03-2.61c13.07,1.31,26.15,2.7,39.27,3.37
		c21.03,1.08,42.08,1.9,63.13,2.3c14.86,0.28,29.76,0.13,44.6-0.65c11.71-0.62,23.35-2.49,35.03-3.79
		C412.4,604,413.86,603.9,414.94,603.81z M309.2,650.68c-0.16,2.04,1.45,3.16,3.26,2.14c0.79-0.45,1.45-1.24,1.97-2.01
		c4.14-6.08,8.29-12.17,12.29-18.34c0.55-0.85,0.3-2.22,0.43-3.35c-1.23-0.07-2.8-0.66-3.64-0.12
		C315.59,634.09,310.56,641.19,309.2,650.68z M377.39,619.13c-2.97-0.11-4.03,2.17-2.35,4.96c3.36,5.56,6.97,10.97,10.72,16.27
		c0.6,0.85,2.8,1.44,3.72,1.01c1.61-0.76,1.67-2.47,0.56-4.11c-3.78-5.58-7.48-11.21-11.26-16.79
		C378.37,619.83,377.66,619.38,377.39,619.13z M308.62,622.58c-1.55,0.95-3.08,1.54-4.14,2.6c-3.39,3.4-6.55,7.03-9.92,10.46
		c-1.36,1.39-2.4,3.05-0.73,4.31c0.96,0.73,3.6,0.62,4.49-0.2c4.4-4.01,8.5-8.35,12.61-12.67c0.53-0.56,0.93-1.97,0.6-2.48
		C310.98,623.77,309.8,623.35,308.62,622.58z M402.74,631.82c-0.08-0.31-0.12-0.99-0.42-1.53c-2.69-4.82-5.31-9.68-8.24-14.35
		c-0.59-0.95-2.42-1.12-3.68-1.65c-0.12,1.45-0.68,3.03-0.28,4.31c1,3.23,2.11,6.52,3.8,9.42c1.38,2.37,3.42,4.53,5.62,6.18
		C401.38,635.59,402.79,634.46,402.74,631.82z M269.41,632.04c0.59-0.4,1.6-0.96,2.46-1.69c3-2.55,5.99-5.12,8.9-7.76
		c1.17-1.07,2.33-2.24,3.15-3.57c0.45-0.73,0.6-2.27,0.15-2.76c-0.54-0.59-2.1-0.93-2.83-0.58c-5.83,2.85-10.82,6.77-14.34,12.31
		C265.83,629.69,267.04,631.94,269.41,632.04z M413.38,626.9c-0.36-6.88-2.04-13.33-5.07-19.38c-0.37-0.75-1.95-1.42-2.82-1.27
		c-1.55,0.26-2.22,1.41-1.38,3.13c0.4,0.82,0.28,1.88,0.56,2.78c1.29,4.26,2.52,8.53,4.01,12.72
		C409.33,626.71,410.76,627.87,413.38,626.9z"/>
	<path class="st0" d="M193.2,743.08c13.2,8.13,25.91,16.33,42.49,12.28c-1.67,8.97-0.48,17.1,2.41,25.02
		c2.9,7.96,7.48,14.82,13.62,21.04c-2.7-0.55-5.42-1.05-8.1-1.67c-12.24-2.85-23.24-8.03-33.02-16.18c-3.23-2.7-5.84-5.4-8.26-8.79
		c-1.56-2.19-5.09-3.24-7.93-4.18c-9.04-2.99-18.01-1.8-27.15,0.27c-24.92,5.65-48.7,2.7-70.45-11.36
		c-11.38-7.36-20.04-17.35-25.5-29.85c-3.57-8.17-3.55-16.97-2.99-25.61c0.73-11.2,2.06-22.36,3.35-33.51
		c1.67-14.33-2.91-26.64-12.94-36.46c-7.46-7.31-16.02-13.51-24.25-19.99c-4.05-3.18-6.1-6.97-5.21-10.88
		c0.58-2.56,1.99-3.58,4.64-3.91c9.07-1.15,16.52,2.73,23.5,7.56c21.4,14.84,30.14,35.51,28.62,61.35
		c-0.85,14.41-0.79,28.94-0.12,43.36c0.55,11.81,7.15,20.62,16.69,27.53c9.52,6.89,20.33,10.33,31.55,12.6
		c16.63,3.36,33.35,6.24,50.04,9.31c0.84,0.15,1.7,0.2,2.55,0.22c5.02,0.09,6.09-1.54,4.08-6.12c-0.16-0.37-0.3-0.86-0.21-1.23
		C191.42,750.39,192.28,746.91,193.2,743.08z"/>
	<path class="st0" d="M227.57,890.28c-0.32,16.38-5.55,30.05-19.01,39.38c-2.87,1.99-7.3,2.1-11.07,2.38
		c-16.18,1.2-31.83-1.19-46.21-8.97c-7.58-4.1-14.85-9.27-16.51-18.56c-1.64-9.13-0.17-18.1,3.6-26.67
		c3.12-7.1,7.96-12.92,13.31-18.34c8.29-8.41,17.28-15.96,27.61-21.78c0.62-0.35,1.28-0.61,2.37-1.13
		c-1.63,12.26,1.36,22.65,10.17,31.05c8.38,8,17.99,13.29,29.95,14.41c-2.36,0.35-4.7,0.91-7.07,1c-8.46,0.3-16.82-0.18-25.11-2.31
		c-5.46-1.41-11.14-1.95-16.73-2.84c-0.78-0.12-1.6-0.02-3.52-0.02c1.56,1.84,2.39,3.12,3.5,4.06c3.82,3.25,8.59,4.08,13.3,5.07
		c11,2.29,22.03,4.4,33.33,4.18C222.02,891.14,224.54,890.64,227.57,890.28z"/>
	<path class="st0" d="M347.12,52.6c-45.21,3.35-89.83,6.66-135.39,10.04c1.95-3.92,3.5-7.44,5.39-10.76
		c6.2-10.92,14.45-20,23.98-28.2c8.07-6.94,16.98-11.8,27.14-14.4c18.77-4.81,35.86-0.51,51.71,10.06
		c9.04,6.03,15.33,14.47,20.94,23.55C342.83,46.03,344.89,49.13,347.12,52.6z"/>
	<path class="st0" d="M427.59,669.1c3.41-18.66-0.2-36.87-2.12-55.34c0.42,0.29,0.94,0.52,1.3,0.91
		c12.07,13.19,24.38,26.18,36.11,39.67c7.5,8.63,14.67,17.65,21.08,27.11c11.26,16.62,4.85,38.91-13.12,47.68
		c-9.7,4.74-24.87,1.91-32.07-6.05c-2.26-2.5-3.31-5.48-2.81-8.89c0.72-4.98,1.32-9.98,2.25-14.92c0.38-2.04-0.07-3.38-1.76-4.3
		c-2.33-1.27-4.73-2.43-7.1-3.63c-1.23-0.62-2.67-1-3.68-1.87c-3.53-3.07-5.58-8.74,0.62-12.5c5.77-3.5,13.54-1.69,16.56,4.22
		c0.32,0.63,0.38,1.42,0.43,2.15c0.19,3.2,1.4,4.38,4.44,3.79c9.43-1.84,18.88-2.03,28.4-0.9c0.86,0.1,1.8-0.42,2.71-0.65
		c-0.63-0.88-1.1-2.31-1.92-2.54c-5.61-1.58-11.29-2.92-16.96-4.29c-0.61-0.15-1.29-0.1-1.92-0.01c-5.6,0.74-10.18,0.45-14.09-5.21
		C440.49,668.51,433.97,668.48,427.59,669.1z"/>
	<path class="st0" d="M257.36,810.55c-0.92,3.81-1.9,7.82-2.87,11.84c-2.46,10.29-4.98,20.56-7.36,30.87
		c-4.33,18.79-22.34,24.05-36.11,18.65c-8.44-3.31-15.28-8.71-19.7-16.67c-5.13-9.23-4.83-19.02,0.04-28
		c6.62-12.21,11.54-24.77,12.62-38.7c0.02-0.27,0.19-0.54,0.34-0.94c3.01,2.71,5.75,5.56,8.88,7.9c7.52,5.62,16.64,7.56,25.35,10.33
		C244.61,807.74,250.9,808.95,257.36,810.55z"/>
	<path class="st0" d="M337.45,800.94c3.32-1.32,6.83-2.77,10.4-4.11c12.14-4.54,23.21-10.94,32.87-19.6
		c2.2-1.97,3.34-0.36,4.61,0.64c10.28,8.05,18.34,17.91,23.75,29.83c2.77,6.09,5.86,12.09,7.91,18.41c1.69,5.22,0.8,10.91-2.59,15.3
		c-1.67,2.17-4.99,3.37-7.8,4.28c-7.3,2.37-14.85,2.93-22.51,2.1c-5.42-0.59-10.88-0.91-16.31-1.39c-1.8-0.16-3.64-0.3-5.37-0.76
		c-5.2-1.38-5.77-2.84-4.82-8.08c0.82-4.5,1.6-9.18,1.17-13.66c-0.3-3.13-1.99-6.76-4.25-8.93
		C349.3,809.97,343.36,805.72,337.45,800.94z"/>
	<path class="st0" d="M390.38,114.06c-1.78,4.15-3.4,8.09-5.18,11.95c-0.33,0.71-1.26,1.48-2.02,1.59
		c-11.49,1.78-22.96,3.87-34.51,5.06c-12.96,1.33-25.99,2.18-39.01,2.6c-19.68,0.65-39.38,1.19-59.07,0.94
		c-16.23-0.2-32.45-1.61-48.68-2.49c-1.18-0.06-2.4-0.47-3.51-0.26c-5.41,1.02-8.35-1.91-10.55-6.25c-0.71-1.41-1.59-2.74-2.74-4.71
		c4.03,0,7.58,0,11.14,0c17.11,0.01,34.23,0.22,51.34-0.05c12.08-0.19,24.15-0.93,36.21-1.58c14.41-0.78,28.82-1.71,43.23-2.63
		c15.8-1,31.59-2.05,47.39-3.09C379.63,114.8,384.85,114.44,390.38,114.06z"/>
	<path d="M517.57,416.36c-6.51,0.12-11.17-3.98-15.91-7.48c-8.08-5.97-14.65-13.42-19.72-22.15c-1.24-2.14-0.38-5.08,2.22-6.8
		c7.47-4.97,14.82-10.15,22.51-14.77c15.83-9.51,31.74-18.92,47.87-27.93c5.34-2.98,11.4-4.74,17.24-6.75
		c2.85-0.98,4.7,1.15,5.78,3.42c0.75,1.57,1.21,3.56,1.02,5.27c-1.7,14.56-3.48,29.12-5.5,43.64c-0.26,1.89-1.58,4.23-3.13,5.26
		c-12.73,8.41-25.49,16.8-38.57,24.63c-3.97,2.38-8.97,3.01-13.51,4.44C517.76,416.88,517.67,416.62,517.57,416.36z M566.58,358.41
		c0.01-3.02-1.9-4.9-4.39-4.64c-2.41,0.24-3.4,2.06-3.55,4.24c-0.16,2.44,1.57,3.59,3.62,3.53
		C564.46,361.48,566.39,360.45,566.58,358.41z"/>
	<path d="M368.55,395.37c-2.96-4.43,0.13-10.19,5.32-11.6c8.68-2.37,17.49-3.98,26.53-3.61c1.99,0.08,4.07,0.5,5.92,1.24
		c3.54,1.4,5.66,4.05,5.56,7.93c3.94-1.08,7.67-2.28,11.49-3.14c17.2-3.84,32.6,3.92,40.03,15.13c7.62,11.5,9.15,23.63,4.88,36.72
		c-4.89,15.03-14.3,26.29-28.89,32c-14.52,5.69-28.98,3.83-42.44-4.32c-1.17-0.71-2.32-1.47-3.41-2.17
		c-0.33,0.18-0.61,0.24-0.68,0.4c-3.77,8.49-11.19,12.28-19.38,15.01c-13.1,4.36-26.06,3.04-39.02-0.89
		c-11.99-3.64-20.72-10.85-25.31-22.61c-4.79-12.28-2.42-23.62,5.7-33.66c11.92-14.72,27.41-23.17,46.28-25.32
		C363.54,396.2,365.93,395.76,368.55,395.37z M395.45,457.64c3.98,1.83,7.7,3.64,11.49,5.26c2.34,1,4.73,2.14,7.2,2.51
		c15.25,2.23,28.44-2.38,38.2-14.13c9.72-11.71,14.63-25.07,8.16-40.42c-4.5-10.67-14.58-17.76-26.1-17.34
		c-7.87,0.29-15.71,1.56-23.55,2.54c-0.87,0.11-1.75,1.07-2.41,1.82c-3.46,3.93-6.72,8.04-10.31,11.84
		c-3.5,3.71-5.24,3.48-9.35,0.45c-3.51-2.59-6.39-5.81-11.22-6.9c-8.58-1.93-16.82-2.26-25.2,0.51
		c-11.66,3.85-22.08,9.69-30.44,18.83c-6.04,6.6-9.36,14.29-8.34,23.41c1.37,12.11,9.38,18.96,19.47,23.97
		c6.89,3.43,14.47,3.31,21.91,4.01c10.26,0.95,19.49-1.44,27.68-7.73c3.21-2.47,5.61-5.3,6.06-9.68c0.84-8.3,2.03-16.56,3.15-24.82
		c0.29-2.1,0.88-4.15,1.33-6.23c0.53,0.04,1.06,0.09,1.59,0.13C397.26,436.27,395.72,447.05,395.45,457.64z M373.52,390.78
		c7.02,4.76,13.74,9.32,21.13,14.34c3.11-3.98,6.56-8.12,9.7-12.49c3.15-4.39,2-6.6-3.33-6.9
		C391.62,385.2,382.54,386.54,373.52,390.78z"/>
	<path d="M550.43,459.31c-4.28,0.79-6.31,2.96-6.31,6.59c0,2.19,0.93,3.34,3.23,3.46c4.84,0.24,7.55-1.2,8.35-4.62
		c1.35-5.75-0.13-9-4.95-10.95c-0.46-0.19-0.86-0.52-1.34-0.81c2.83-2.46,7.78-1.3,10.18,2.23c2.33,3.43,2.24,10.16-0.19,13.42
		c-2.7,3.63-9.55,5.95-13.53,4.58c-3.17-1.09-5.73-5.8-5.31-9.79c0.35-3.4,3.54-6.4,7.16-6.67
		C549.54,456.61,550.99,456.94,550.43,459.31z"/>
	<path d="M514.6,497.27c-5.78-0.27-10.53-6.01-9.09-11.19c1.16-4.18,9.69-8.73,13.83-7.39c4.12,1.34,6.62,3.99,6.77,7.2
		c0.23,4.71-2.04,8.54-6.27,10.16C518.19,496.69,516.35,496.88,514.6,497.27z M517.03,482.93c-4.39,0.02-7.49,1.81-7.58,4.38
		c-0.1,2.77,2.86,6.2,5.35,6.18c4.32-0.02,7.17-2.51,7.08-6.18C521.82,484.58,519.98,482.91,517.03,482.93z"/>
	<path d="M488.83,464.23c-0.01-4.88,5.32-10.45,9.92-10.38c5.01,0.08,9.11,4.33,9.2,9.55c0.09,4.73-5.26,9.58-10.6,9.62
		C493.27,473.05,488.84,468.48,488.83,464.23z M498.06,469.71c2.56,0.04,5.6-2.77,5.6-5.16c0-2.76-2.3-6.44-4.05-6.48
		c-2.8-0.06-7.07,4.33-7.04,7.24C492.6,467.22,495.66,469.68,498.06,469.71z"/>
	<path d="M265.32,483.51c-5.38-0.02-8.09-2.4-8.13-7.16c-0.03-4.17,4.76-10.96,7.91-10.76c5.4,0.35,9.84,4.41,9.72,9.9
		C274.71,480.42,271.13,483.53,265.32,483.51z M265.53,478.98c2.91,0.01,6.26-1.97,5.57-3.46c-1.06-2.25-2.76-4.5-4.77-5.9
		c-1.31-0.91-5.15,3.29-5.18,5.39C261.1,478.05,262.11,478.97,265.53,478.98z"/>
	<path d="M236.56,512.45c-4.88,0-7.22-1.84-7.79-6.11c-0.58-4.31,1.29-6.19,5.76-8.2c3.27-1.47,6.17-2,8.81,0.2
		c1.42,1.18,2.72,3.49,2.68,5.27C245.92,509.31,242.25,512.45,236.56,512.45z M237.4,509.67c1.69-1.62,4.2-2.98,4.84-4.95
		c0.68-2.08-1.16-3.81-3.89-3.6c-2.57,0.19-5.52,2.17-5.36,3.97C233.19,507.3,234.23,508.9,237.4,509.67z"/>
	<path d="M207.03,486.8c0.04,4.67-2.98,7.57-7.93,7.63c-4.05,0.04-7.88-4.4-7.92-9.19c-0.03-3.07,4.44-6.69,8.17-6.64
		C203.66,478.67,207,482.23,207.03,486.8z M199.84,490.22c1.64-0.07,2.95-0.8,2.94-3.25c-0.01-3.1-2.2-3.62-4.31-3.34
		c-1.23,0.16-2.89,1.59-3.24,2.77C194.67,488.36,197.03,490.25,199.84,490.22z"/>
	<path d="M32.31,145.22c8.66,1.52,17.1,2.45,25.25,4.52c19.73,5.03,39.33,10.56,58.97,15.95c2.98,0.82,5.88,1.94,8.79,3
		c7.92,2.91,8.59,10.33,3.65,15.62c-12.11,12.99-23.25,26.87-34.8,40.39c-5.56,6.52-11.3,12.89-16.67,19.56
		c-4.36,5.41-8.52,4.77-12.9,0.07c-3.56-3.83-6.03-8.78-8.52-13.48c-10.44-19.68-18.64-40.22-23.34-62.07
		c-0.81-3.76-1.26-7.6-2.1-11.35c-0.45-2.02-1.52-3.9-2.02-5.91c-0.36-1.47-0.81-3.4-0.17-4.5
		C29.05,145.98,31.04,145.75,32.31,145.22z M70.6,240.46c17.79-21.42,35.28-42.48,52.73-63.49c-9.1-4.57-78.93-25.46-87.56-22.55
		C42.23,185.06,52.7,214.06,70.6,240.46z"/>
	<path d="M554.25,137.25c-0.62,19.7-3.13,39.04-11.61,57.08c-2.49,5.29-5.82,10.18-8.73,15.28c-1.41,2.47-3.24,2.56-5.24,0.91
		c-1.56-1.28-3.25-2.57-4.33-4.22c-11.6-17.76-26.5-32.12-44.39-43.39c-1.86-1.17-2.04-2.44-1.41-4.28
		c1.16-3.37,3.47-5.72,6.68-6.93c16.95-6.37,33.93-12.67,50.93-18.89c3.09-1.13,6.3-2.01,9.52-2.7
		C551.1,128.96,554.42,131.78,554.25,137.25z M487.19,158.79c18.65,10.25,28.71,28.58,43.93,41.43
		c9.21-13.13,18.09-52.22,13.85-62.34C525.27,143.05,505.88,149.1,487.19,158.79z"/>
	<path d="M309.2,650.68c1.36-9.48,6.39-16.59,14.31-21.68c0.84-0.54,2.41,0.05,3.64,0.12c-0.12,1.13,0.12,2.5-0.43,3.35
		c-4,6.18-8.15,12.26-12.29,18.34c-0.52,0.77-1.18,1.57-1.97,2.01C310.65,653.84,309.04,652.72,309.2,650.68z"/>
	<path d="M377.39,619.13c0.27,0.25,0.97,0.71,1.4,1.34c3.77,5.58,7.48,11.21,11.26,16.79c1.11,1.64,1.05,3.35-0.56,4.11
		c-0.92,0.44-3.12-0.16-3.72-1.01c-3.76-5.3-7.36-10.71-10.72-16.27C373.36,621.3,374.43,619.02,377.39,619.13z"/>
	<path d="M308.62,622.58c1.18,0.77,2.36,1.2,2.92,2.04c0.33,0.5-0.07,1.91-0.6,2.48c-4.11,4.32-8.21,8.66-12.61,12.67
		c-0.9,0.82-3.53,0.92-4.49,0.2c-1.66-1.26-0.63-2.92,0.73-4.31c3.36-3.43,6.53-7.06,9.92-10.46
		C305.54,624.12,307.07,623.53,308.62,622.58z"/>
	<path d="M402.74,631.82c0.05,2.64-1.36,3.77-3.19,2.39c-2.2-1.66-4.24-3.82-5.62-6.18c-1.69-2.9-2.8-6.19-3.8-9.42
		c-0.4-1.28,0.16-2.87,0.28-4.31c1.26,0.53,3.08,0.7,3.68,1.65c2.93,4.67,5.55,9.53,8.24,14.35
		C402.62,630.83,402.66,631.51,402.74,631.82z"/>
	<path d="M269.41,632.04c-2.37-0.11-3.58-2.36-2.5-4.05c3.52-5.55,8.51-9.46,14.34-12.31c0.73-0.36,2.29-0.02,2.83,0.58
		c0.45,0.5,0.3,2.04-0.15,2.76c-0.83,1.33-1.98,2.51-3.15,3.57c-2.92,2.64-5.9,5.21-8.9,7.76
		C271.01,631.08,270.01,631.64,269.41,632.04z"/>
	<path d="M413.38,626.9c-2.62,0.97-4.06-0.18-4.7-2.01c-1.48-4.19-2.72-8.47-4.01-12.72c-0.27-0.9-0.16-1.96-0.56-2.78
		c-0.84-1.72-0.16-2.87,1.38-3.13c0.87-0.15,2.44,0.52,2.82,1.27C411.35,613.57,413.02,620.01,413.38,626.9z"/>
	<path class="st0" d="M566.58,358.41c-0.19,2.04-2.12,3.07-4.31,3.13c-2.05,0.05-3.78-1.09-3.62-3.53c0.14-2.18,1.13-4,3.55-4.24
		C564.68,353.51,566.59,355.39,566.58,358.41z"/>
	<path class="st0" d="M395.45,457.64c0.27-10.59,1.81-21.37-0.68-31.96c-0.53-0.04-1.06-0.09-1.59-0.13
		c-0.45,2.07-1.04,4.13-1.33,6.23c-1.12,8.26-2.31,16.53-3.15,24.82c-0.44,4.38-2.85,7.22-6.06,9.68
		c-8.19,6.28-17.42,8.68-27.68,7.73c-7.44-0.69-15.02-0.58-21.91-4.01c-10.09-5.02-18.11-11.86-19.47-23.97
		c-1.03-9.12,2.3-16.8,8.34-23.41c8.36-9.14,18.77-14.98,30.44-18.83c8.38-2.76,16.62-2.44,25.2-0.51c4.83,1.09,7.71,4.31,11.22,6.9
		c4.11,3.03,5.85,3.25,9.35-0.45c3.59-3.8,6.85-7.92,10.31-11.84c0.66-0.75,1.54-1.71,2.41-1.82c7.84-0.98,15.68-2.25,23.55-2.54
		c11.52-0.42,21.6,6.67,26.1,17.34c6.47,15.34,1.56,28.7-8.16,40.42c-9.76,11.76-22.95,16.36-38.2,14.13
		c-2.47-0.36-4.86-1.51-7.2-2.51C403.15,461.28,399.43,459.47,395.45,457.64z"/>
	<path class="st0" d="M373.52,390.78c9.02-4.24,18.1-5.58,27.5-5.05c5.32,0.3,6.47,2.52,3.33,6.9c-3.14,4.37-6.59,8.51-9.7,12.49
		C387.26,400.1,380.54,395.54,373.52,390.78z"/>
	<path class="st0" d="M517.03,482.93c2.94-0.01,4.79,1.65,4.85,4.38c0.09,3.67-2.76,6.16-7.08,6.18c-2.49,0.01-5.45-3.41-5.35-6.18
		C509.55,484.73,512.64,482.95,517.03,482.93z"/>
	<path class="st0" d="M498.06,469.71c-2.41-0.03-5.47-2.49-5.49-4.41c-0.03-2.91,4.24-7.3,7.04-7.24c1.74,0.04,4.04,3.72,4.05,6.48
		C503.67,466.94,500.62,469.75,498.06,469.71z"/>
	<path class="st0" d="M265.53,478.98c-3.42-0.02-4.43-0.93-4.39-3.97c0.03-2.1,3.87-6.31,5.18-5.39c2.02,1.4,3.72,3.65,4.77,5.9
		C271.8,477.01,268.44,478.99,265.53,478.98z"/>
	<path class="st0" d="M237.4,509.67c-3.17-0.77-4.21-2.37-4.41-4.58c-0.16-1.79,2.79-3.77,5.36-3.97c2.74-0.21,4.57,1.52,3.89,3.6
		C241.6,506.69,239.09,508.05,237.4,509.67z"/>
	<path class="st0" d="M199.84,490.22c-2.81,0.04-5.18-1.86-4.61-3.82c0.34-1.18,2.01-2.61,3.24-2.77c2.11-0.28,4.29,0.25,4.31,3.34
		C202.79,489.41,201.48,490.15,199.84,490.22z"/>
	<path class="st0" d="M70.6,240.46c-17.9-26.4-28.36-55.4-34.83-86.04c8.63-2.91,78.46,17.97,87.56,22.55
		C105.87,197.98,88.39,219.04,70.6,240.46z"/>
	<path class="st0" d="M487.19,158.79c18.69-9.7,38.08-15.74,57.78-20.91c4.24,10.12-4.64,49.21-13.85,62.34
		C515.89,187.37,505.84,169.04,487.19,158.79z"/>
</g>
</svg>
