<?xml version="1.0" encoding="utf-8"?>
<!-- Generator: Adobe Illustrator 26.0.0, SVG Export Plug-In . SVG Version: 6.00 Build 0)  -->
<svg version="1.1" id="Capa_1" xmlns="http://www.w3.org/2000/svg" xmlns:xlink="http://www.w3.org/1999/xlink" x="0px" y="0px"
	 viewBox="0 0 595.3 951" style="enable-background:new 0 0 595.3 951;" xml:space="preserve">
<style type="text/css">
	.st0{fill:#FFFFFF;}
</style>
<g>
	<path d="M422,604.3c5.4,1.6,8.8,4.7,11.9,8.3c7.9,9.1,16.4,17.8,24.2,27c10,11.8,19.9,23.8,29.4,36.1c10,13,11,29.5,1.9,45
		c-8.4,14.2-28.6,20.6-43.7,13.9c-6.7-3-12.8-6.2-15.4-13.4c-2.1-6-2.6-12.2,0.8-18c1.6-2.7,0.6-3.5-1.6-4.4c-1.2-0.5-2.3-1-3.9-1.6
		c-0.3,1.3-0.7,2.3-0.9,3.4c-4.8,25.6-17,47.2-34.3,66.3c-0.4,0.4-0.7,0.8-1.1,1.2c-2.1,1.7-2.1,2.8,0.4,4.5
		c17.5,11.6,27.2,28.5,32.7,48.3c0.3,1,0.6,2.1,0.7,3.1c0.4,2.9,1.8,4.9,4.3,6.6c5.4,3.7,8.5,9.2,9.8,15.6
		c1.7,8.2,0.7,16.4-0.8,24.5c-0.7,3.6-1.2,7.2-1.3,10.8c-0.1,1.4,0.6,3.3,1.6,4.3c6.3,6.3,12.5,12.6,19.1,18.5
		c6.3,5.6,11.1,11.8,11.8,20.5c0.4,5-0.8,9.6-3.4,13.7c-0.8,1.3-2.5,2.3-4,3c-11.7,5.1-23.8,7.9-36.6,8.6c-17.6,0.9-34.7-1.3-51.7-6
		c-12.3-3.4-21.7-10-27.9-20.9c-4-7-5.3-14.7-3.1-22.6c4.5-16.2,6.6-32.6,7.2-49.4c0.2-6.1,2.2-12.1,3.3-18.2
		c0.4-2.4,0.8-4.9,0.7-7.3c-0.3-7.5-4.9-11.9-11.2-15.2c-3.6-1.9-6.7-4.5-10.2-6.5c-1.1-0.6-2.8-1-3.9-0.7
		c-19.2,5.8-38.6,9.7-58.8,7.6c-1.2-0.1-2.4-0.1-3.5-0.1c-0.4,0-0.8,0.1-0.7,0.1c-3.5,15.4-6.8,30.5-10.4,45.5
		c-1.9,7.9-6.3,14.2-13.4,18.5c-1.2,0.7-2.4,1.4-1.5,3.2c0.3,0.5,0.2,1.4-0.1,1.9c-4.3,8.1-3.5,17.3-5.5,25.8
		c-2.9,12.1-8.7,22-19.1,28.9c-5.7,3.7-12.4,4.1-18.8,4.4c-17.2,0.9-33.5-3.2-48.8-11.1c-15-7.8-21.8-23.5-17.9-41.1
		c2.4-10.8,7.6-20.1,15.1-28.2c11.2-12,23.8-22.1,37.7-30.8c1.6-1,2.9-3,3.8-4.8c2.7-5.2,4.7-10.8,7.7-15.8c4.8-8.2,5.4-17,4.8-26.1
		c-0.1-1-1.2-2.2-2.1-3c-5.2-4.1-11.5-4.5-17.4-2.9c-15.9,4.3-32,5.8-48.3,3.4c-17.8-2.6-33.2-10.5-46.8-22.3c-10-8.7-17-19.1-20-32
		c-2.3-9.9-2-20-1.2-30c0.7-9.8,2.3-19.5,2.7-29.3c0.6-13.4-4.8-24.1-15.7-32.4c-7.6-5.8-14.7-12.4-21.9-18.8c-3-2.6-4.3-6.1-4.4-10
		c-0.1-7.4,3.7-11.6,11-12.3c4-0.4,7.6-0.2,11.3,2.2c3.8,2.4,8.6,3.3,12.5,5.6c22.3,13.1,34.4,32.3,34.9,58.4
		c0.2,11.1,0.3,22.3,0.4,33.4c0.1,6.3-0.4,12.7,0.3,18.9c1.5,12.8,9.3,21,20.5,26.3c13.9,6.7,28.8,9.8,44,12.2
		c9.6,1.5,19.1,3.3,28.3,4.8c1.2-4.2,2.5-8.3,3.4-12.5c0.2-0.8-1.1-2.1-1.9-2.8c-13.2-10-24.5-21.7-32.9-36
		c-4.9-8.4-7.5-17-4.6-26.6c2.8-9.1,7.1-17.5,13.9-24.3c10.4-10.4,21.3-20.4,32.2-30.4c3.4-3.1,7.7-5.4,11.2-8.5
		c3.9-3.4,7.4-7.3,11.6-11.6c-5.4-1.4-9.9-2.5-14.4-3.7c-25.2-6.8-48-18.7-70.5-31.6c-14.3-8.2-27.9-17.5-39.9-28.9
		c-23.5-22.1-40.2-48.6-49.6-79.6c-5-16.6-9-33.5-9.3-50.9c-0.2-14.5-2-29.2,1.7-43.5c3.7-14.5,7.8-28.8,11.7-43.2
		c1.6-5.8,3.1-11.6,4.2-17.4c0.4-1.9-0.5-4.1-0.7-6.2c-1.8-18.5-5-36.7-14.2-53.1c-5.2-9.3-10.7-18.5-16.3-27.6
		c-8.6-14-13.3-29.5-17-45.3c-2.8-11.8-4.4-23.8-3.8-35.9c0.3-4.8,2-9.6,3.2-14.3c0.2-0.8,1.3-1.8,2.1-2c3.1-0.7,6.3-1.6,9.4-1.7
		c9.4-0.1,18.9-0.6,28.3,0.4c12.1,1.4,24.2,3.9,36.2,6.5c24.9,5.5,48.8,14.1,71.9,24.7c0.9,0.4,2.2,0.7,3,0.4
		c10.8-3.6,21.5-7.3,32.7-11.1c-2-3.1-4-5.8-5.6-8.6c-6.1-11.2-12.1-22.6-18.3-33.8c-2.6-4.7-5.7-9-8.6-13.5
		c-0.3-0.5-0.8-1.1-1.3-1.3c-2.5-0.7-3.3-2.7-2.6-4.7c0.5-1.4,2.2-3,3.6-3.4c4.6-1.3,9.4-2.2,14.1-2.9c12.3-1.7,24.6-3.2,36.9-4.9
		c0.8-0.1,2.1-1,2.2-1.6c1.2-10.1,6.5-18.3,12.4-26.1C229.1,24,240.2,13.8,254.4,7c28.9-13.8,63.3-4,82,17.9
		c4.2,5,8.3,10.1,12.1,15.4c2,2.7,3.7,5.9,4.6,9.1c0.9,2.9,2.2,3.6,5,3.5c11.6-0.1,23.2-0.3,34.7,0c8.8,0.2,17.5,1,26.3,1.7
		c3.1,0.2,4.4,3.2,2.9,6.9c-1.7,4-4,7.8-5.7,11.8c-7.4,16.6-14.8,33.2-22.1,49.8c-0.1,0.2,0,0.4,0,0.5c17,2.1,33.8,4.7,50.3,9
		c1.1,0.3,2.3,0.4,3.4,0.9c4.4,1.9,8.6,1.2,12.6-0.9c23.4-12.1,48.1-20.5,73.8-26c8.5-1.8,17.2-3.1,25.9-4.1
		c3.6-0.4,7.3,0.3,10.9,0.6c2.4,0.2,3.7,1.6,4.5,3.9c4.2,13.7,4.6,27.4,0.5,41.1c-6.3,21-11.6,42.2-15.9,63.7
		c-1.2,5.8-2.9,11.6-4.3,17.4c-0.1,0.6-0.3,1.3-0.1,1.9c2.7,8.4,5,17,8.2,25.2c3.8,9.9,8,19.6,12.5,29.1c4.5,9.7,6.7,20,8.7,30.4
		c2.2,11.4,4.9,22.8,6.8,34.2c3,17.7,3.9,35.5,3.1,53.4c-0.8,18-3.5,35.7-8.4,53.1c-9.1,32.4-25.6,60.1-51.1,82.5
		c-14.8,13-31.8,22.7-48.2,33.4c-14.7,9.5-29.7,18.2-46.1,24.5c-5.2,2-10.4,3.8-15.6,5.8C424.6,602.9,423.7,603.5,422,604.3z
		 M41.1,394.1c1.3,11.8,2.2,23.8,4,35.8c2.8,18.8,8.6,36.8,17.3,53.7c15.2,29.7,37.9,52.4,66,69.8c20.4,12.6,41.6,23.5,64.1,31.9
		c15.1,5.6,30.4,10.1,46.5,11.5c9.2,0.8,18.3,1.4,27.5,2c11.4,0.7,22.8,1.8,34.3,1.9c21.7,0.1,43.5-0.4,65.2-0.6
		c4.9-0.1,9.9,0,14.8-0.4c10.1-0.9,20.2-2.1,30.3-3.1c4.3-0.4,8.7-0.1,12.7-1.4c7.3-2.4,14.5-5.3,21.3-8.7
		c11.6-5.8,23.1-12,34.4-18.4c22.3-12.6,43.7-26.5,61.4-45.4c14.3-15.2,26-32.1,32.9-51.9c6.9-19.8,11.6-40.2,13.3-61.2
		c1.4-17.2,1.4-34.4-0.7-51.6c-2-16.5-5.4-32.6-9.9-48.6c-0.7-2.6-1.4-3.5-4.2-3c-28.1,4.5-56.3,8.7-84.4,13.3
		c-28.2,4.6-56.3,9.6-84.5,14.5c-14.5,2.6-29,5.4-43.5,8.2c-7.2,1.4-14.5,2.8-21.7,4.4c-1.4,0.3-3.5,1.6-3.6,2.6
		c-1.2,11.2-4.9,21.6-9,31.9c-4.1,10.2-9.7,19.5-17.6,27.2c-11.6,11.4-25.1,19.3-40.6,24.3c-18.6,6-37.6,8.4-57,7.1
		c-12.6-0.9-25-3.3-37-7.4c-15.6-5.3-28.4-14.4-37.6-28.1c-5.1-7.5-10-15.2-15-22.8c-1.2-1.9-2.8-2.9-5.1-2.5
		c-11.5,1.8-23.1,3.3-34.5,5.6C68.1,387.3,55.2,390.7,41.1,394.1z M563.3,277c0,0,0-0.4-0.1-0.8c-4-12.8-8-25.6-12-38.4
		c-0.3-1-1.1-2-1.9-2.7c-1.8-1.5-2.3-3.1-1.7-5.4c1.2-4.3,2.4-8.6,3.5-13c6.2-26.5,12.4-53,18.5-79.6c1.8-8,2.5-16-0.4-24
		c-0.8-2.2-1.7-3.2-4.2-3.1c-20.6,0.6-40.6,4.5-59.7,12c-14.4,5.7-28.7,11.7-42.8,18c-5.8,2.6-10.9,2.8-17.2,1.1
		c-14.9-4-30.2-6.6-45.3-9.8c-1.9-0.4-3.8-0.5-5.6-1.2c-1.9-0.7-2.7-0.2-3.3,1.6c-1.1,3-3.3,4.4-6.6,4.7
		c-20.1,1.8-40.2,3.9-60.4,5.6c-11.8,1-23.7,1.6-35.5,1.7c-16.1,0.2-32.1,0-48.2-0.4c-9.9-0.2-19.9-1.1-29.8-1.5
		c-6.7-0.2-13.2-1.6-20.1,1.2c-10.4,4.3-21.5,7.1-32.3,10.6c-4,1.3-7.9,1.3-11.9-0.2c-15.1-5.7-30.1-11.5-45.3-16.8
		c-15.4-5.3-31.1-9.2-47.3-11.3c-14.3-1.9-28.6-1.5-43-1c-2,0.1-2.1,1.1-2.4,2.6c-2,12.3-0.5,24.4,1.7,36.4
		c3.7,21,11.9,40.2,22.9,58.4c6.2,10.2,12.1,20.7,17.2,31.5c5.5,11.6,6.1,24.6,8.5,37.1c0.6,3.4,1.4,7,1,10.3
		c-0.8,5.9-2.3,11.7-3.9,17.5c-3.3,12.7-6.9,25.3-10.2,38c-1,3.6-1.3,7.4-2,11.1c6.9-1.6,13.3-3,19.7-4.6
		c12.6-3.1,25.2-6.7,37.8-9.6c32.3-7.3,64.3-15.6,97-21.1c23.7-4,47.2-9.1,70.9-13.2c23.8-4.1,47.7-7.5,71.6-11.1
		c24-3.6,48-7.2,72-10.8c25.7-3.8,51.4-7.6,77.2-11.1C514.2,282.8,538.7,280,563.3,277z M250.8,712.8c7.4,6.6,10.1,15.5,6.3,24.5
		c-3,7.2-9,11.9-15.8,15.3c-1.7,0.8-2,1.5-1.7,3.1c0.9,4.9,2,9.9,2.7,14.8c1.2,9.2,5.5,16.8,12,23.1c5.1,4.9,11.5,9.2,18.1,9.5
		c11,0.5,22.4-0.2,33.1-2.5c14.7-3.1,29.2-7.4,43.3-12.5c19.9-7.3,34.7-21.3,47.1-38.2c8-10.9,15-22.3,18.9-35.4
		c1.7-5.9,2.9-12,4.6-18c0.7-2.4,0.4-4.1-0.6-6.3c-4.1-9-3.3-12.6,2.5-18.2c0.6-0.5,0.9-1.6,1-2.4c0.2-2.7,0-5.5,0.5-8.2
		c1.6-8.8,0.3-17.6-0.4-27c-3,2.4-5.5,4.3-8,6.3c-12.6,10.4-25.2,20.8-37.9,31.1c-0.7,0.6-2.3,0.7-3.2,0.4c-1.2-0.5-2.4-1.5-3.2-2.5
		c-4.2-5.2-8.4-10.5-12.5-15.9c-3.7-4.9-7.3-9.9-11.3-15.5c-2,6.6-3.6,12.6-5.5,18.5c-1.9,6-4,11.9-6.2,17.8c-1,2.7-3.3,3.4-6,2.7
		c-3.8-1-7.7-1.9-11.5-3c-16.3-4.6-31.1-13-46.4-20c-6.5-3-12.8-6.2-19.3-9.3c-0.6,2.8-1.3,5.3-1.6,7.9c-1.4,11.3-2.7,22.7-3.8,34
		c-0.1,1,1,2.4,1.8,3.1c2.7,2.1,5.6,3.8,8.2,6c2.5,2.1,3.3,5,1.5,7.8C255.7,707,253.2,709.7,250.8,712.8z M413.3,61
		c-2-0.1-4-0.3-6-0.4c-2.1-0.1-4.3,0-6.4,0c-30.4-1.2-60.8,0.6-91.1,2.8c-10.9,0.8-21.8,1.4-32.6,2.1c-13.7,0.8-27.4,1.4-41,2.6
		c-17,1.5-34.1,3.4-51,5.5c-8.8,1.1-17.4,3-26.6,4.6c1.8,2.7,3.4,4.8,4.8,7.1c5.6,9.7,11.3,19.4,16.8,29.1c1,1.9,2.2,2.4,4.3,2.4
		c8.8,0.1,17.5,0.5,26.3,0.6c9.6,0.1,19.3,0.2,28.9-0.2c10.9-0.5,21.8-1.6,32.6-2.3c13.3-0.9,26.7-1.6,40-2.4
		c11.5-0.7,23-1.3,34.6-2.1c7.9-0.5,15.8-1.5,23.7-2c7.6-0.5,15-3.9,22.2-1.3c7-15.3,13.8-30.3,20.6-45.3
		C413.4,61.6,413.3,61.4,413.3,61z M240.2,687c0.1-1.8,0-3.5,0.3-5.2c1.8-12.5,3.6-25,5.3-37.4c0.1-1.1-0.4-2.8-1.3-3.3
		c-10-7.1-20.2-14-30.4-20.9c-1.2-0.8-3.2-1.6-4.4-1.1c-2.6,0.9-5.2,2.2-7.2,4.1c-10.9,10-21.9,19.8-32.3,30.3
		c-4.7,4.8-8.4,10.8-11.6,16.7c-4.8,9-5.2,18.1,0.3,27.4c10.7,18.1,25,32.2,43.2,42.4c6.8,3.8,13.7,7.8,21.9,8.6
		c10.5,1,20.2-4.1,25.6-13.2c3.2-5.4,2.4-10-1.2-14.4c-1.6-2-3.9-3.6-6-5.3c-2.8-2.3-5.8-4.4-8.4-6.8c-0.8-0.7-1.5-2.6-1.1-3.4
		c0.4-0.8,2.2-1.5,3.3-1.5c3.6,0,7.3,0.7,10.9,0.4c1.5-0.1,3.2-1.6,4-2.9c0.4-0.6-0.8-2.9-1.8-3.5c-2.1-1.3-4.6-2.1-7-2.9
		c-5.3-1.7-11.1-2.6-16-5c-13.5-6.7-27.5-10.2-42.5-10.2c-3.6,0-7.3-0.1-10.9-0.5c-1.1-0.1-2-1.1-3.1-1.7c0.9-0.8,1.6-2,2.6-2.2
		c2.6-0.6,5.2-1.1,7.9-1.1c9.6,0,19.3-0.6,28.7,1.7c0.7,0.2,2.1-0.6,2.5-1.2c2.1-4.1,4.4-8.1,5.7-12.5c2.2-7.2,2.2-14.7,1.1-22.2
		c-0.1-0.9,0.7-2,1.1-3c0.9,0.5,2.2,0.7,2.6,1.4c0.9,2,2.2,4.2,2,6.2c-0.5,6.8-1.1,13.6-2.5,20.3c-1,4.6-3.3,8.9-4.9,13.1
		c4.8,2.4,9.9,4.5,14.5,7.2C234.2,687.2,237,687.4,240.2,687z M354.5,850c0,3.9,0.5,7.9-0.1,11.7c-1.9,12.6-3.9,25.1-6.4,37.5
		c-3,15,1.6,25.9,15.3,32.6c6.4,3.1,13.3,5.2,20.1,7.2c13,3.8,26.3,4.3,39.7,3.4c11.4-0.8,22.3-3.5,33.1-7.2
		c2.6-0.9,4.2-2.7,4.2-5.7c0.1-9.7-5.1-16.6-12.1-22.3c-6.8-5.5-14.8-9.6-18.2-18.4c-0.9,0.3-1.4,0.6-2,0.7
		c-6.8,1.7-13.6,4.6-20.5,4.8c-10.3,0.3-20.7-1-31-2.2c-4.3-0.5-8.3-2.6-11.1-6.8c4.8,0,9.5,0.8,14.2,1.1c8.2,0.6,16.4,1.1,24.6,1.3
		c7.8,0.2,15.2-2,22.3-5.1c0.6-0.2,1.2-0.9,1.3-1.5c0.8-9.8,1.8-19.6,2-29.4c0.1-5-2-9.6-5-13.2c-2.5,3.6-4.6,7.4-7.5,10.4
		c-5,5-11.9,5.9-18.5,6c-9.4,0.1-18.8-0.2-28.2-1.1C365.6,853.3,360.4,851.4,354.5,850z M414.8,603.6c-5.3,0.7-10.8,1.6-16.3,2
		c-12.7,1.1-25.3,2.7-38,2.8c-24,0.1-47.9-0.5-71.9-1.3c-20.6-0.7-41.3-1.3-61.7-4.5c-0.9-0.1-2.3-0.2-2.7,0.3
		c-2.6,3.3-5.1,6.8-7.6,10.2c8.2,12.6,88.6,53.5,111.7,56.7c0.3-0.9,0.7-1.9,1-2.9c4-12.7,8-25.4,12.2-38.1c1.6-4.9,4.8-5.3,8.4-1.2
		c0.8,0.9,1.3,2,1.9,3c3.4,5.6,6.5,11.3,10.2,16.7c4,5.7,8.6,11.1,12.7,16.3c10.3-8.4,20.2-16.5,30.2-24.5c3.8-3.1,7.8-6,11.6-9.1
		c2.5-2,3.6-4.3,2.7-7.8C417.4,616.1,416.3,610.1,414.8,603.6z M235.4,755c-16.6,4.2-29.2-4.3-42.4-12.2c-0.9,3.8-1.8,7.1-2.6,10.6
		c-0.1,0.5,0.1,1.1,0.3,1.5c1.9,4.2,0.8,6-3.6,6c-1.1,0-2.1-0.1-3.2-0.2c-14.7-2.7-29.4-5.2-44.1-8.1c-10-2-20.1-4-29.3-8.8
		c-16.7-8.6-26.1-21.4-25.4-40.9c0.5-14.1,0.8-28.2,0.7-42.4c0-23.1-10-41.1-29-54c-6.9-4.7-14.3-8.5-23.3-7.3
		c-2.5,0.3-3.9,1.2-4.5,3.7c-0.9,3.9,1,7.8,5,11c8.3,6.5,17,12.8,24.5,20.2c9.9,9.7,14.5,21.9,12.9,36.1
		c-1.3,11.1-2.6,22.3-3.3,33.5c-0.6,8.6-0.6,17.4,2.9,25.6c5,11.8,13.1,21.4,23.6,28.6c22.2,15.3,46.7,18.5,72.6,12.7
		c9-2,17.9-3.2,26.9-0.3c4.7,1.5,9,3.5,10.9,8.6c0.3,1,1.5,1.7,2.4,2.3c1.5,1.1,3.3,2,4.7,3.2c11.4,9.9,25.1,14,40.4,16.8
		C239,788.3,233.1,773.5,235.4,755z M221.5,881.1c-11.9-0.7-21.5-5.9-29.9-13.9c-8.8-8.4-11.8-18.8-10.2-31
		c-1.1,0.5-1.8,0.8-2.4,1.2c-10.3,5.8-19.3,13.4-27.6,21.8c-5.3,5.3-10,11.1-13.2,18c-3.8,8.5-5.3,17.5-3.8,26.6
		c1.6,9.5,8.9,14.7,16.6,18.8c14.4,7.8,30,10,46.2,9c5.4-0.3,10.6-0.9,14.8-5c6.1-6,10.6-12.8,13-21c1.5-5.1,2.3-10.3,2-15.8
		c-2.9,0.3-5.4,0.8-7.9,0.9c-11.3,0.2-22.3-1.9-33.3-4.2c-4.7-1-9.5-1.8-13.3-5.1c-1.1-0.9-1.9-2.2-2.9-3.3c0.2-0.3,0.4-0.6,0.6-0.9
		C187.4,878.6,204.1,885.7,221.5,881.1z M347,53.2c-2.1-3.3-4.2-6.4-6.1-9.5C335.3,34.6,329,26.1,320,20c-15.9-10.7-33.1-15-52-10.1
		c-10.5,2.7-19.6,7.9-27.8,15.1c-9.2,8-17.2,17-23.2,27.5c-1.9,3.3-3.4,6.7-5.4,10.7C257,59.8,301.7,56.5,347,53.2z M427.5,668.8
		c8.7-0.7,15.8,1,20.2,8.9c0.4,0.7,2,1.1,3,1.1c3,0,6.1-0.7,9-0.2c5.8,1,11.6,2.6,17.3,4.2c0.8,0.2,1.3,1.7,1.9,2.6
		c-0.9,0.2-1.9,0.7-2.7,0.6c-9.4-1.1-18.8-1-28.1,0.9c-3.3,0.6-4.5-0.4-4.7-3.8c0-0.7-0.1-1.5-0.4-2.1c-3.1-5.9-10.9-7.8-16.5-4.1
		c-4.7,3.1-5.4,7.4-1.5,11.5c1.1,1.2,2.8,1.9,4.3,2.7c2.4,1.2,4.8,2.3,7.1,3.5c1.8,0.9,2.4,2.3,2,4.5c-1,4.9-1.5,9.9-2.3,14.9
		c-0.5,3.4,0.6,6.4,2.8,8.9c7.2,7.9,22.4,10.7,32.1,6c18.8-9.2,24.5-32.7,11.9-49.6c-5.7-7.6-11.4-15.3-17.6-22.5
		c-8.8-10.2-18-20.1-27-30.1c-4.1-4.5-8.4-8.8-12.7-13.3C427.3,631.9,430.9,650,427.5,668.8z M257.2,810.1
		c-6.5-1.6-12.7-2.8-18.8-4.7c-8.7-2.8-17.8-4.7-25.4-10.3c-3.1-2.3-5.9-5.2-8.9-7.9c-0.2,0.4-0.3,0.7-0.3,1
		c-1.1,13.9-6,26.5-12.6,38.6c-4.9,9-5.2,18.8,0,28c4.8,8.6,12.2,14.4,21.5,17.3c12.4,3.8,26.6-0.1,32.4-13.9
		c1.9-4.6,2.8-9.6,4-14.5C251.8,832.5,254.5,821.3,257.2,810.1z M337.3,800.5c5.9,4.8,11.8,9.1,17.1,14c2.2,2.1,4.1,5.6,4.2,8.6
		c0.2,5.2-0.8,10.6-1.8,15.8c-0.4,2.2-0.8,3.7,1.7,4.5c2.7,0.9,5.4,2.1,8.2,2.4c5.7,0.7,11.5,0.9,17.3,1.5
		c7.7,0.8,15.2,0.3,22.5-2.1c2.8-0.9,6.1-2.1,7.8-4.3c3.4-4.4,4.3-10.1,2.6-15.3c-2.1-6.3-5.1-12.3-7.9-18.4
		c-5.4-11.9-13.5-21.8-23.8-29.8c-1.3-1-2.4-2.6-4.6-0.6c-9.7,8.6-20.7,15-32.9,19.6C344.2,797.7,340.6,799.2,337.3,800.5z
		 M390.3,114.6c-7.8,0.5-15.4,0.9-23.1,1.4c-17.4,1.1-34.8,2.4-52.2,3.5c-16.3,1-32.7,2-49,2.8c-23.4,1.3-46.8,2-70.3,0.7
		c-3.4-0.2-6.9,0-11,0c2.5,3.6,4.3,6.5,6.3,9.2c0.7,0.9,2.1,1.6,3.2,1.7c15.4,1,30.7,2.4,46.1,2.6c22.7,0.3,45.4,0,68.1-0.6
		c13.3-0.3,26.7-1.3,40-2.7c11.6-1.2,23-3.3,34.5-5c0.8-0.1,1.8-0.7,2.1-1.4C386.8,122.7,388.5,118.7,390.3,114.6z"/>
	<path class="st0" d="M41.1,394.1c14.2-3.3,27.1-6.8,40.2-9.4c11.4-2.3,23-3.7,34.5-5.6c2.3-0.4,3.9,0.7,5.1,2.5
		c5,7.6,9.9,15.2,15,22.8c9.2,13.8,22,22.9,37.6,28.1c12,4,24.4,6.5,37,7.4c19.4,1.3,38.4-1,57-7.1c15.5-5,29-12.9,40.6-24.3
		c7.9-7.8,13.5-17,17.6-27.2c4.2-10.3,7.9-20.7,9-31.9c0.1-1,2.3-2.3,3.6-2.6c7.2-1.6,14.4-3,21.7-4.4c14.5-2.8,29-5.6,43.5-8.2
		c28.1-5,56.3-9.9,84.5-14.5c28.1-4.6,56.3-8.8,84.4-13.3c2.8-0.5,3.5,0.4,4.2,3c4.6,15.9,8,32.1,9.9,48.6
		c2.1,17.2,2.1,34.4,0.7,51.6c-1.7,21-6.4,41.4-13.3,61.2c-6.9,19.8-18.6,36.6-32.9,51.9c-17.7,18.9-39.1,32.8-61.4,45.4
		c-11.3,6.4-22.8,12.6-34.4,18.4c-6.9,3.4-14,6.3-21.3,8.7c-4,1.3-8.5,1-12.7,1.4c-10.1,1.1-20.2,2.2-30.3,3.1
		c-4.9,0.4-9.8,0.4-14.8,0.4c-21.7,0.3-43.5,0.8-65.2,0.6c-11.4-0.1-22.9-1.2-34.3-1.9c-9.2-0.6-18.3-1.2-27.5-2
		c-16.1-1.4-31.4-5.9-46.5-11.5c-22.5-8.4-43.8-19.3-64.1-31.9c-28.1-17.4-50.8-40.1-66-69.8c-8.7-17-14.4-34.9-17.3-53.7
		C43.3,417.9,42.4,405.9,41.1,394.1z M517.8,416.4c6.5-0.1,12.4-2.3,17.8-5.7c11.3-7.2,22.6-14.6,33.8-22.1c1.7-1.1,3.4-3.4,3.6-5.3
		c2.1-14.7,3.9-29.5,5.6-44.2c0.2-1.7-0.3-3.7-1.1-5.2c-1.2-2.2-3-4.3-5.9-3.2c-6.2,2.3-12.6,4.3-18.4,7.4
		c-11.4,6.1-22.6,12.5-33.6,19.2c-11.9,7.3-23.6,15.1-35.3,22.7c-3.2,2.1-3.6,4.7-1.7,7.8c4.9,8.1,11,15,18.5,20.6
		C506,412.2,510.9,416.5,517.8,416.4z M393.2,463.4c1.3,0.8,2.5,1.6,3.7,2.3c13.5,8.1,27.9,10,42.5,4.3c14.6-5.7,24-17,28.9-32
		c4.1-12.4,3-24-3.8-35.1c-7.6-12.4-22.7-20.6-41.1-16.7c-3.8,0.8-7.6,2-11.3,3.1c-1-4.8-2.5-6.9-6.3-8.1c-2-0.6-4.2-1-6.3-1.1
		c-8.5-0.3-16.8,1.2-24.9,3.5c-6.1,1.7-8.4,6-6.2,11.7c-2.4,0.4-4.8,0.8-7.2,1.1c-18.9,2.1-34.3,10.6-46.3,25.3
		c-6.3,7.6-9.4,16.5-7.7,26.2c2.2,13.1,9.6,22.7,22,28c9.9,4.2,20.4,6.5,31.3,5.4C373.5,480.1,386,476.9,393.2,463.4z M561.2,462.1
		c0-1,0-1.7,0-2.5c-0.3-4.7-3.4-7.4-8-6.8c-5.6,0.7-9.6,4.2-12,9c-2.1,4.1,1.3,10.8,5.6,11.5C553.1,474.4,561.9,470.7,561.2,462.1z
		 M514.6,497.2c1.6-0.3,3.2-0.4,4.7-0.9c5.2-1.8,8.4-8.1,6.3-12.6c-2.1-4.7-7.9-6.4-13-3.8c-1.2,0.6-2.7,1-3.7,1.9
		c-1.3,1.2-2.8,2.7-3.4,4.3C503.9,491.2,508.8,497,514.6,497.2z M488.8,464.1c0,4.3,4.3,8.8,8.4,8.9c5.3,0.1,10.7-4.8,10.7-9.5
		c0-5.3-4.3-9.7-9.4-9.6C494,454,488.8,459.5,488.8,464.1z M265.3,483.5c5.8,0,9.4-3.2,9.4-8.1c0-5.1-4.5-9.7-9.5-9.8
		c-3.2-0.1-8.2,6.3-8.1,10.6C257.2,480.5,258.7,483.6,265.3,483.5z M236.5,512.4c5.6,0,9.4-3.3,9.4-8.9c0-1.8-1.3-4-2.8-5.2
		c-2.7-2.3-5.6-1.5-8.8-0.1c-4.4,1.9-6.3,3.9-5.7,8.2C229.2,510.6,231.5,512.4,236.5,512.4z M206.8,486.7c-0.1-4.5-3.5-8.1-7.8-8.1
		c-3.8,0-8.2,3.6-8.1,6.7c0.1,4.8,3.9,9.2,8,9.1C204,494.3,206.9,491.4,206.8,486.7z"/>
	<path class="st0" d="M563.3,277c-24.7,3-49.1,5.8-73.5,9.1c-25.8,3.5-51.5,7.3-77.2,11.1c-24,3.5-48,7.1-72,10.8
		c-23.9,3.6-47.8,7-71.6,11.1c-23.7,4-47.2,9.2-70.9,13.2c-32.7,5.5-64.7,13.8-97,21.1c-12.7,2.9-25.2,6.4-37.8,9.6
		c-6.4,1.6-12.9,3-19.7,4.6c0.6-3.6,1-7.4,2-11.1c3.3-12.7,6.9-25.3,10.2-38c1.5-5.8,3.1-11.6,3.9-17.5c0.5-3.3-0.3-6.9-1-10.3
		c-2.4-12.5-3-25.4-8.5-37.1c-5.1-10.8-11-21.2-17.2-31.5c-11-18.2-19.1-37.5-22.9-58.4c-2.1-12-3.7-24.1-1.7-36.4
		c0.2-1.5,0.4-2.6,2.4-2.6c14.3-0.5,28.7-0.9,43,1c16.1,2.1,31.9,6,47.3,11.3c15.2,5.3,30.2,11.1,45.3,16.8c4,1.5,7.8,1.5,11.9,0.2
		c10.8-3.5,21.8-6.3,32.3-10.6c6.9-2.9,13.4-1.5,20.1-1.2c9.9,0.3,19.9,1.3,29.8,1.5c16.1,0.3,32.1,0.6,48.2,0.4
		c11.9-0.2,23.7-0.8,35.5-1.7c20.1-1.6,40.3-3.8,60.4-5.6c3.2-0.3,5.5-1.7,6.6-4.7c0.6-1.8,1.5-2.3,3.3-1.6c1.8,0.7,3.7,0.8,5.6,1.2
		c15.1,3.2,30.4,5.8,45.3,9.8c6.3,1.7,11.4,1.4,17.2-1.1c14.2-6.3,28.4-12.3,42.8-18c19.2-7.5,39.1-11.4,59.7-12
		c2.5-0.1,3.4,0.9,4.2,3.1c2.8,8,2.2,16,0.4,24c-6.1,26.5-12.3,53-18.5,79.6c-1,4.4-2.2,8.7-3.5,13c-0.6,2.2-0.1,3.9,1.7,5.4
		c0.8,0.7,1.6,1.7,1.9,2.7c4.1,12.8,8,25.6,12,38.4C563.4,276.5,563.3,277,563.3,277z M32,145.6c-1.3,0.6-3.5,0.9-3.8,1.9
		c-0.5,1.5,0.2,3.4,0.6,5.1c0.3,1.4,1.2,2.7,1.5,4.1c1.3,6.5,2.3,13,3.9,19.5c4.8,19.2,12.3,37.4,21.6,54.9
		c2.5,4.8,5.1,9.8,8.7,13.7c4.4,4.7,8.5,5.2,12.7,0.1C82.6,238,88.4,231.5,94,225c11.5-13.5,22.7-27.3,34.8-40.3
		c4.7-5.1,4.4-12.3-3.5-15.5c-3-1.2-6-2.2-9.1-3.1c-19.5-5.4-39.1-10.8-58.7-15.8C49.3,148.2,40.7,147.2,32,145.6z M554.2,137.8
		c0.2-5.5-3.1-8.3-8.5-7.2c-3.1,0.7-6.2,1.6-9.2,2.6c-17.1,6.2-34.2,12.5-51.3,18.9c-3.1,1.2-5.4,3.4-6.6,6.6
		c-0.8,2-0.7,3.5,1.5,4.8c17.7,11,32.3,25.2,43.9,42.6c1.3,2,3.4,3.5,5.2,5.1c1.7,1.5,3.4,1.1,4.5-0.9c3-5.1,6.4-10.1,8.9-15.5
		C551.1,176.8,553.6,157.4,554.2,137.8z"/>
	<path class="st0" d="M250.8,712.8c2.4-3.1,4.9-5.8,6.9-8.8c1.8-2.8,1-5.7-1.5-7.8c-2.6-2.2-5.6-3.9-8.2-6c-0.9-0.7-1.9-2.1-1.8-3.1
		c1.1-11.4,2.5-22.7,3.8-34c0.3-2.6,1-5.2,1.6-7.9c6.5,3.1,12.8,6.3,19.3,9.3c15.3,7,30,15.4,46.4,20c3.8,1.1,7.6,2,11.5,3
		c2.8,0.7,5,0,6-2.7c2.2-5.9,4.3-11.8,6.2-17.8c1.9-5.9,3.6-12,5.5-18.5c4,5.5,7.6,10.6,11.3,15.5c4.1,5.4,8.3,10.7,12.5,15.9
		c0.8,1,2,2.1,3.2,2.5c0.9,0.4,2.5,0.2,3.2-0.4c12.7-10.3,25.3-20.7,37.9-31.1c2.4-2,5-3.9,8-6.3c0.7,9.5,2,18.2,0.4,27
		c-0.5,2.7-0.3,5.5-0.5,8.2c-0.1,0.8-0.4,1.8-1,2.4c-5.8,5.5-6.6,9.1-2.5,18.2c1,2.2,1.3,3.9,0.6,6.3c-1.8,5.9-2.9,12-4.6,18
		C411,727.5,404,739,396,749.9c-12.4,16.9-27.3,30.9-47.1,38.2c-14.1,5.2-28.6,9.4-43.3,12.5c-10.8,2.3-22.1,3-33.1,2.5
		c-6.7-0.3-13-4.5-18.1-9.5c-6.6-6.3-10.8-13.9-12-23.1c-0.7-5-1.7-9.9-2.7-14.8c-0.3-1.6,0-2.3,1.7-3.1c6.8-3.4,12.8-8.1,15.8-15.3
		C260.9,728.3,258.2,719.3,250.8,712.8z"/>
	<path class="st0" d="M413.3,61c0,0.3,0.1,0.6,0.1,0.7c-6.8,15-13.7,30.1-20.6,45.3c-7.3-2.6-14.7,0.8-22.2,1.3
		c-7.9,0.5-15.8,1.4-23.7,2c-11.5,0.8-23,1.4-34.6,2.1c-13.3,0.8-26.7,1.6-40,2.4c-10.9,0.7-21.7,1.8-32.6,2.3
		c-9.6,0.4-19.3,0.3-28.9,0.2c-8.8-0.1-17.5-0.5-26.3-0.6c-2.1,0-3.3-0.6-4.3-2.4c-5.5-9.8-11.1-19.4-16.8-29.1
		c-1.3-2.3-2.9-4.4-4.8-7.1c9.2-1.6,17.8-3.5,26.6-4.6c17-2.1,34-4,51-5.5c13.6-1.2,27.3-1.7,41-2.6c10.9-0.7,21.8-1.3,32.6-2.1
		c30.3-2.2,60.7-4,91.1-2.8c2.1,0.1,4.3,0,6.4,0C409.3,60.7,411.3,60.9,413.3,61z"/>
	<path class="st0" d="M240.2,687c-3.1,0.5-6,0.3-9-1.5c-4.6-2.8-9.7-4.9-14.5-7.2c1.6-4.2,3.9-8.5,4.9-13.1c1.4-6.7,2-13.5,2.5-20.3
		c0.1-2-1.1-4.3-2-6.2c-0.3-0.7-1.7-1-2.6-1.4c-0.4,1-1.2,2.1-1.1,3c1.2,7.5,1.2,15-1.1,22.2c-1.3,4.3-3.6,8.4-5.7,12.5
		c-0.3,0.7-1.8,1.4-2.5,1.2c-9.5-2.3-19.1-1.7-28.7-1.7c-2.6,0-5.3,0.5-7.9,1.1c-1,0.2-1.7,1.5-2.6,2.2c1,0.6,2,1.6,3.1,1.7
		c3.6,0.3,7.3,0.5,10.9,0.5c15,0,29.1,3.5,42.5,10.2c5,2.4,10.7,3.3,16,5c2.4,0.8,4.9,1.6,7,2.9c1,0.6,2.2,2.9,1.8,3.5
		c-0.8,1.3-2.6,2.8-4,2.9c-3.6,0.2-7.2-0.4-10.9-0.4c-1.2,0-2.9,0.6-3.3,1.5c-0.4,0.8,0.3,2.7,1.1,3.4c2.7,2.4,5.6,4.5,8.4,6.8
		c2.1,1.7,4.3,3.2,6,5.3c3.6,4.4,4.4,9,1.2,14.4c-5.4,9.1-15.1,14.1-25.6,13.2c-8.2-0.8-15-4.8-21.9-8.6
		c-18.2-10.2-32.6-24.3-43.2-42.4c-5.5-9.3-5.1-18.5-0.3-27.4c3.2-6,6.9-12,11.6-16.7c10.3-10.5,21.4-20.4,32.3-30.3
		c2-1.8,4.6-3.1,7.2-4.1c1.2-0.4,3.2,0.3,4.4,1.1c10.2,6.9,20.3,13.8,30.4,20.9c0.8,0.6,1.4,2.3,1.3,3.3c-1.7,12.5-3.5,25-5.3,37.4
		C240.2,683.4,240.3,685.1,240.2,687z"/>
	<path class="st0" d="M354.5,850c5.9,1.4,11.1,3.3,16.4,3.8c9.4,0.9,18.8,1.2,28.2,1.1c6.6-0.1,13.5-1,18.5-6
		c2.9-2.9,4.9-6.8,7.5-10.4c3,3.6,5.1,8.3,5,13.2c-0.2,9.8-1.3,19.6-2,29.4c0,0.5-0.7,1.2-1.3,1.5c-7.1,3.1-14.5,5.3-22.3,5.1
		c-8.2-0.2-16.4-0.7-24.6-1.3c-4.7-0.3-9.4-1.1-14.2-1.1c2.7,4.2,6.7,6.3,11.1,6.8c10.3,1.2,20.7,2.5,31,2.2
		c6.9-0.2,13.7-3.1,20.5-4.8c0.6-0.1,1.2-0.4,2-0.7c3.4,8.9,11.5,12.9,18.2,18.4c7,5.7,12.2,12.6,12.1,22.3c0,3-1.6,4.8-4.2,5.7
		c-10.7,3.7-21.7,6.4-33.1,7.2c-13.4,0.9-26.8,0.3-39.7-3.4c-6.8-2-13.7-4.1-20.1-7.2c-13.7-6.7-18.3-17.6-15.3-32.6
		c2.5-12.4,4.5-25,6.4-37.5C355,857.9,354.5,853.9,354.5,850z"/>
	<path class="st0" d="M414.8,603.6c1.4,6.5,2.6,12.6,4.2,18.5c1,3.5-0.2,5.8-2.7,7.8c-3.8,3.1-7.8,6-11.6,9.1
		c-10,8.1-19.9,16.2-30.2,24.5c-4.1-5.2-8.7-10.5-12.7-16.3c-3.7-5.3-6.8-11.1-10.2-16.7c-0.6-1-1.1-2.1-1.9-3
		c-3.5-4.1-6.7-3.7-8.4,1.2c-4.2,12.7-8.1,25.4-12.2,38.1c-0.3,1-0.7,2-1,2.9c-23.1-3.3-103.5-44.2-111.7-56.7
		c2.5-3.4,4.9-6.9,7.6-10.2c0.4-0.5,1.8-0.5,2.7-0.3c20.4,3.2,41.1,3.9,61.7,4.5c24,0.8,47.9,1.4,71.9,1.3c12.7-0.1,25.4-1.7,38-2.8
		C404,605.1,409.5,604.2,414.8,603.6z M309.1,650.4c-0.2,2,1.4,3.2,3.3,2.1c0.8-0.4,1.4-1.2,2-2c4.1-6.1,8.3-12.2,12.3-18.3
		c0.6-0.8,0.3-2.2,0.4-3.3c-1.2-0.1-2.8-0.7-3.6-0.1C315.5,633.9,310.4,641,309.1,650.4z M374.1,621.1c0.2,1.1,0.2,1.7,0.4,2.1
		c3.8,5.9,7.6,11.8,11.7,17.6c0.4,0.6,3,0.7,3.2,0.3c0.6-1.1,1.1-3,0.5-3.9c-3.6-5.8-7.4-11.5-11.4-17.1c-0.5-0.7-2-1.1-2.9-0.9
		C375,619.4,374.5,620.6,374.1,621.1z M308.5,622.5c-1.4,0.8-3,1.4-4,2.5c-3.4,3.4-6.6,7-9.9,10.4c-1.3,1.4-2.5,3-0.9,4.3
		c0.9,0.8,3.6,0.7,4.5-0.1c4.4-4,8.5-8.3,12.6-12.6c0.6-0.6,0.9-2.1,0.5-2.7C310.9,623.5,309.6,623.2,308.5,622.5z M402.7,632
		c-0.1-0.5-0.1-1.2-0.4-1.7c-2.7-4.9-5.4-9.9-8.4-14.6c-0.6-0.9-2.4-1-3.7-1.5c-0.1,1.4-0.7,2.9-0.3,4.1c1.1,3.3,2.2,6.7,3.9,9.7
		c1.4,2.4,3.5,4.5,5.7,6.1C401.2,635.3,402.6,634.3,402.7,632z M269.2,631.8c0.6-0.4,1.6-1,2.5-1.7c3-2.5,6-5.1,8.9-7.8
		c1.2-1.1,2.3-2.2,3.2-3.6c0.5-0.7,0.6-2.3,0.2-2.8c-0.5-0.6-2.1-0.9-2.8-0.6c-5.8,2.8-10.8,6.8-14.3,12.3
		C265.7,629.5,266.9,631.7,269.2,631.8z M413.3,626.7c-0.4-6.8-2-13.1-5-19.1c-0.4-0.8-1.9-1.7-2.7-1.6c-1.6,0.3-2.6,1.4-1.6,3.3
		c0.4,0.7,0.3,1.7,0.5,2.5c1.3,4.3,2.5,8.5,3.9,12.7C409.1,626.4,410.5,627.7,413.3,626.7z"/>
	<path class="st0" d="M235.4,755c-2.3,18.5,3.6,33.4,17.1,46.2c-15.3-2.8-29-6.9-40.4-16.8c-1.4-1.2-3.2-2.1-4.7-3.2
		c-0.9-0.7-2.1-1.4-2.4-2.3c-1.9-5.2-6.2-7.1-10.9-8.6c-9-2.9-17.8-1.7-26.9,0.3c-25.9,5.8-50.4,2.6-72.6-12.7
		C84.1,750.5,76,740.9,71,729.1c-3.5-8.2-3.5-17-2.9-25.6c0.8-11.2,2.1-22.3,3.3-33.5c1.6-14.2-2.9-26.4-12.9-36.1
		c-7.5-7.4-16.2-13.6-24.5-20.2c-4-3.1-5.9-7-5-11c0.6-2.5,2-3.4,4.5-3.7c8.9-1.2,16.3,2.6,23.3,7.3c19,12.9,29,30.9,29,54
		c0,14.1-0.2,28.2-0.7,42.4c-0.8,19.5,8.7,32.3,25.4,40.9c9.2,4.8,19.3,6.8,29.3,8.8c14.7,2.9,29.4,5.4,44.1,8.1
		c1,0.2,2.1,0.2,3.2,0.2c4.5,0,5.6-1.9,3.6-6c-0.2-0.5-0.4-1.1-0.3-1.5c0.8-3.4,1.6-6.8,2.6-10.6C206.2,750.7,218.8,759.1,235.4,755
		z"/>
	<path class="st0" d="M221.5,881.1c-17.4,4.7-34.1-2.5-51.2-3.9c-0.2,0.3-0.4,0.6-0.6,0.9c1,1.1,1.8,2.4,2.9,3.3
		c3.8,3.2,8.6,4.1,13.3,5.1c11,2.3,22,4.4,33.3,4.2c2.5-0.1,5.1-0.6,7.9-0.9c0.3,5.5-0.5,10.7-2,15.8c-2.4,8.2-6.9,15.1-13,21
		c-4.2,4.1-9.4,4.6-14.8,5c-16.2,1-31.8-1.3-46.2-9c-7.7-4.1-15-9.4-16.6-18.8c-1.5-9.1-0.1-18.1,3.8-26.6c3.1-7,7.9-12.7,13.2-18
		c8.3-8.4,17.3-15.9,27.6-21.8c0.6-0.3,1.3-0.6,2.4-1.2c-1.6,12.3,1.4,22.6,10.2,31C200,875.1,209.6,880.4,221.5,881.1z"/>
	<path class="st0" d="M347,53.2c-45.2,3.3-89.9,6.7-135.5,10c2-3.9,3.5-7.4,5.4-10.7C223,42,230.9,33,240.1,25
		c8.3-7.2,17.4-12.4,27.8-15.1c18.9-4.8,36.1-0.5,52,10.1c9,6.1,15.3,14.5,20.9,23.6C342.8,46.8,344.8,49.8,347,53.2z"/>
	<path class="st0" d="M427.5,668.8c3.4-18.8-0.2-37-2.1-55.4c4.3,4.5,8.6,8.8,12.7,13.3c9.1,10,18.3,19.8,27,30.1
		c6.2,7.2,12,14.8,17.6,22.5c12.6,16.9,6.9,40.4-11.9,49.6c-9.7,4.7-24.8,1.9-32.1-6c-2.3-2.5-3.3-5.5-2.8-8.9
		c0.7-5,1.3-10,2.3-14.9c0.4-2.2-0.2-3.6-2-4.5c-2.3-1.3-4.8-2.3-7.1-3.5c-1.5-0.8-3.2-1.5-4.3-2.7c-3.9-4.1-3.3-8.4,1.5-11.5
		c5.6-3.7,13.5-1.8,16.5,4.1c0.3,0.6,0.4,1.4,0.4,2.1c0.2,3.3,1.4,4.4,4.7,3.8c9.3-1.8,18.7-2,28.1-0.9c0.9,0.1,1.8-0.4,2.7-0.6
		c-0.6-0.9-1.1-2.3-1.9-2.6c-5.7-1.6-11.5-3.2-17.3-4.2c-2.9-0.5-6,0.2-9,0.2c-1,0-2.6-0.4-3-1.1
		C443.3,669.8,436.2,668.1,427.5,668.8z"/>
	<path class="st0" d="M257.2,810.1c-2.7,11.2-5.4,22.4-8.1,33.6c-1.2,4.9-2.1,9.9-4,14.5c-5.8,13.8-20.1,17.7-32.4,13.9
		c-9.3-2.9-16.7-8.7-21.5-17.3c-5.1-9.2-4.8-19,0-28c6.6-12.2,11.5-24.7,12.6-38.6c0-0.3,0.2-0.5,0.3-1c3,2.7,5.8,5.6,8.9,7.9
		c7.5,5.6,16.6,7.6,25.4,10.3C244.4,807.3,250.7,808.5,257.2,810.1z"/>
	<path class="st0" d="M337.3,800.5c3.3-1.3,6.8-2.8,10.4-4.1c12.2-4.5,23.2-10.9,32.9-19.6c2.2-2,3.3-0.4,4.6,0.6
		c10.3,8,18.3,17.9,23.8,29.8c2.8,6.1,5.9,12.1,7.9,18.4c1.7,5.2,0.8,10.9-2.6,15.3c-1.7,2.2-5,3.4-7.8,4.3
		c-7.3,2.4-14.9,2.9-22.5,2.1c-5.7-0.6-11.5-0.7-17.3-1.5c-2.8-0.4-5.5-1.5-8.2-2.4c-2.4-0.8-2.1-2.3-1.7-4.5c1-5.2,2-10.6,1.8-15.8
		c-0.1-3-2-6.5-4.2-8.6C349.2,809.6,343.2,805.3,337.3,800.5z"/>
	<path class="st0" d="M390.3,114.6c-1.8,4.1-3.4,8.1-5.3,12.1c-0.3,0.7-1.4,1.3-2.1,1.4c-11.5,1.8-23,3.8-34.5,5
		c-13.3,1.3-26.6,2.3-40,2.7c-22.7,0.6-45.4,0.9-68.1,0.6c-15.4-0.2-30.8-1.6-46.1-2.6c-1.1-0.1-2.5-0.8-3.2-1.7
		c-2.1-2.7-3.9-5.6-6.3-9.2c4.2,0,7.6-0.2,11,0c23.4,1.4,46.9,0.6,70.3-0.7c16.3-0.9,32.7-1.8,49-2.8c17.4-1.1,34.8-2.3,52.2-3.5
		C374.8,115.5,382.5,115.1,390.3,114.6z"/>
	<path d="M517.8,416.4c-6.9,0.1-11.7-4.2-16.7-8c-7.5-5.6-13.7-12.6-18.5-20.6c-1.9-3.1-1.5-5.8,1.7-7.8
		c11.7-7.6,23.4-15.4,35.3-22.7c11-6.7,22.2-13.2,33.6-19.2c5.8-3.1,12.2-5.1,18.4-7.4c2.9-1.1,4.7,1,5.9,3.2
		c0.8,1.5,1.3,3.5,1.1,5.2c-1.7,14.8-3.5,29.5-5.6,44.2c-0.3,1.9-2,4.1-3.6,5.3c-11.1,7.5-22.4,14.9-33.8,22.1
		C530.2,414.2,524.3,416.3,517.8,416.4z M566.6,358.6c0-3-1.9-4.9-4.4-4.6c-2.4,0.2-3.4,2-3.6,4.2c-0.2,2.4,1.6,3.6,3.6,3.5
		C564.4,361.6,566.3,360.6,566.6,358.6z"/>
	<path d="M393.2,463.4c-7.2,13.5-19.7,16.7-33,18c-10.8,1.1-21.3-1.2-31.3-5.4c-12.3-5.2-19.7-14.9-22-28
		c-1.7-9.8,1.5-18.6,7.7-26.2c12-14.6,27.4-23.1,46.3-25.3c2.4-0.3,4.8-0.7,7.2-1.1c-2.2-5.7,0.1-10,6.2-11.7
		c8.2-2.3,16.4-3.7,24.9-3.5c2.1,0.1,4.3,0.4,6.3,1.1c3.8,1.1,5.3,3.3,6.3,8.1c3.8-1,7.5-2.3,11.3-3.1c18.4-3.9,33.5,4.3,41.1,16.7
		c6.8,11.1,7.9,22.7,3.8,35.1c-4.9,15-14.3,26.2-28.9,32c-14.5,5.7-29,3.8-42.5-4.3C395.7,465,394.5,464.3,393.2,463.4z
		 M395.7,457.8c3.7,1.7,7.4,3.5,11.2,5.1c2.3,1,4.7,2.1,7.2,2.5c15.1,2.2,28.2-2.3,38-13.9c9.9-11.7,14.9-25.2,8.3-40.6
		c-4.5-10.7-14.6-17.7-26.1-17.3c-7.9,0.3-15.7,1.6-23.6,2.5c-0.9,0.1-1.7,1.1-2.4,1.8c-3.5,3.9-6.7,8-10.3,11.8
		c-3.5,3.7-5.2,3.5-9.4,0.4c-3.5-2.6-6.4-5.8-11.2-6.9c-8.6-1.9-16.8-2.2-25.2,0.5c-11.7,3.8-22.1,9.7-30.4,18.8
		c-6,6.6-9.4,14.3-8.3,23.4c1.4,12.1,9.4,18.9,19.5,23.9c6.9,3.4,14.5,3.3,21.9,4c10.3,1,19.5-1.5,27.7-7.7c3.2-2.5,5.6-5.3,6-9.7
		c0.8-8.3,2-16.5,3.2-24.8c0.3-2.1,0.9-4.1,1.3-6.2c0.3,0,0.7,0,1,0c0.5,1.1,1.5,2.3,1.5,3.4C395.7,438.6,395.7,448.2,395.7,457.8z
		 M394.7,405.3c3.4-4.5,7.2-9.1,10.5-14c1.9-2.8,0.7-4.9-2.7-5.2c-3.1-0.3-6.2-0.4-9.3-0.2c-6.8,0.5-13.4,1.9-19.7,5.1
		C380.4,395.6,387.1,400.1,394.7,405.3z"/>
	<path d="M561.2,462.1c0.7,8.6-8.1,12.4-14.5,11.3c-4.3-0.7-7.7-7.4-5.6-11.5c2.5-4.8,6.4-8.3,12-9c4.7-0.6,7.7,2.1,8,6.8
		C561.2,460.3,561.2,461.1,561.2,462.1z M548.7,469.3c5,0,7.2-2.3,7.2-7.6c0-2.7-1.3-3.3-3.6-3.3c-4.3,0-8.2,3.4-8.3,7.3
		C544,468.6,545,469.3,548.7,469.3z"/>
	<path d="M514.6,497.2c-5.8-0.2-10.7-5.9-9-11c0.5-1.7,2-3.1,3.4-4.3c1-0.9,2.4-1.3,3.7-1.9c5.2-2.6,10.9-0.9,13,3.8
		c2,4.5-1.1,10.8-6.3,12.6C517.8,496.8,516.2,496.9,514.6,497.2z M521.8,487.5c0-2.8-1.7-4.5-4.7-4.6c-4.5-0.1-7.8,1.8-7.8,4.5
		c0,2.7,2.8,6,5.2,6C518.8,493.6,521.8,491.1,521.8,487.5z"/>
	<path d="M488.8,464.1c0-4.7,5.2-10.2,9.7-10.3c5.1-0.1,9.4,4.3,9.4,9.6c0,4.7-5.4,9.6-10.7,9.5C493.1,473,488.7,468.4,488.8,464.1z
		 M498,469.7c2.6,0.1,5.6-2.7,5.6-5.1c0-2.7-2.3-6.4-4-6.5c-2.8-0.1-7.1,4.3-7.1,7.2C492.5,467.2,495.6,469.7,498,469.7z"/>
	<path d="M265.3,483.5c-6.6,0.1-8-2.9-8.2-7.4c-0.1-4.3,4.9-10.6,8.1-10.6c5,0.1,9.4,4.7,9.5,9.8C274.7,480.3,271,483.5,265.3,483.5
		z M265,479c3.3,0,6.7-1.9,5.9-3.5c-1.1-2.2-2.8-4.5-4.8-5.8c-1.4-0.9-5.1,3.4-5.1,5.5C260.9,478,262.3,479.3,265,479z"/>
	<path d="M236.5,512.4c-4.9,0-7.3-1.8-7.9-6c-0.6-4.3,1.3-6.3,5.7-8.2c3.2-1.4,6.1-2.2,8.8,0.1c1.4,1.2,2.8,3.5,2.8,5.2
		C245.8,509.1,242.1,512.4,236.5,512.4z M237.1,509.6c1.7-1.6,4.3-2.9,4.9-4.9c0.7-2-1.1-3.9-3.8-3.7c-2.6,0.2-5.6,2.1-5.4,3.9
		C233,507.2,234,508.8,237.1,509.6z"/>
	<path d="M206.8,486.7c0.1,4.7-2.9,7.6-7.9,7.7c-4.1,0.1-7.9-4.3-8-9.1c-0.1-3.1,4.3-6.7,8.1-6.7
		C203.3,478.6,206.8,482.2,206.8,486.7z M202.5,486.6c0.4-2.7-2-3.3-4-3c-1.3,0.2-3.3,1.7-3.4,2.8c-0.1,2.2,1.4,3.9,4.1,3.8
		C201.2,490.1,202.7,489.5,202.5,486.6z"/>
	<path d="M32,145.6c8.8,1.6,17.3,2.5,25.5,4.6c19.6,5,39.1,10.5,58.7,15.8c3.1,0.8,6.1,1.9,9.1,3.1c7.9,3.1,8.2,10.3,3.5,15.5
		c-12.1,13-23.3,26.8-34.8,40.3c-5.6,6.6-11.4,13.1-16.9,19.8c-4.2,5.1-8.3,4.7-12.7-0.1c-3.6-3.9-6.2-8.9-8.7-13.7
		c-9.3-17.5-16.8-35.7-21.6-54.9c-1.6-6.4-2.5-13-3.9-19.5c-0.3-1.4-1.1-2.7-1.5-4.1c-0.4-1.7-1.1-3.6-0.6-5.1
		C28.5,146.5,30.7,146.2,32,145.6z M35.5,154.7c6.6,30.8,17,59.8,34.9,86.1c17.8-21.4,35.2-42.4,52.7-63.4
		C116.4,172.1,46.6,153.8,35.5,154.7z"/>
	<path d="M554.2,137.8c-0.6,19.7-3.1,39-11.6,57c-2.5,5.4-5.9,10.4-8.9,15.5c-1.1,1.9-2.8,2.4-4.5,0.9c-1.8-1.6-3.9-3.1-5.2-5.1
		c-11.6-17.4-26.2-31.5-43.9-42.6c-2.2-1.4-2.3-2.8-1.5-4.8c1.2-3.2,3.5-5.4,6.6-6.6c17.1-6.4,34.2-12.7,51.3-18.9
		c3-1.1,6.1-2,9.2-2.6C551.1,129.4,554.4,132.3,554.2,137.8z M531.1,200.7c9.6-15.4,17.6-50.3,14-62.1
		c-11.9,1.6-51.6,15.9-57.7,20.8C505.7,169.3,515.8,187.6,531.1,200.7z"/>
	<path d="M309.1,650.4c1.4-9.5,6.4-16.6,14.3-21.7c0.8-0.5,2.4,0.1,3.6,0.1c-0.1,1.1,0.1,2.5-0.4,3.3c-4,6.2-8.2,12.2-12.3,18.3
		c-0.5,0.8-1.2,1.6-2,2C310.5,653.6,308.9,652.5,309.1,650.4z"/>
	<path d="M374.1,621.1c0.4-0.5,0.8-1.7,1.5-1.8c0.9-0.2,2.4,0.2,2.9,0.9c3.9,5.6,7.8,11.3,11.4,17.1c0.6,0.9,0.1,2.8-0.5,3.9
		c-0.2,0.4-2.8,0.3-3.2-0.3c-4-5.8-7.8-11.7-11.7-17.6C374.3,622.8,374.3,622.2,374.1,621.1z"/>
	<path d="M308.5,622.5c1.2,0.7,2.4,1,2.8,1.8c0.3,0.7,0,2.1-0.5,2.7c-4.1,4.3-8.2,8.6-12.6,12.6c-0.9,0.8-3.6,0.8-4.5,0.1
		c-1.6-1.3-0.4-3,0.9-4.3c3.4-3.4,6.5-7,9.9-10.4C305.5,623.9,307,623.3,308.5,622.5z"/>
	<path d="M402.7,632c-0.1,2.3-1.5,3.3-3.1,2.1c-2.2-1.7-4.3-3.8-5.7-6.1c-1.7-3-2.9-6.4-3.9-9.7c-0.4-1.2,0.2-2.7,0.3-4.1
		c1.3,0.5,3.1,0.6,3.7,1.5c3,4.8,5.7,9.7,8.4,14.6C402.6,630.8,402.6,631.5,402.7,632z"/>
	<path d="M269.2,631.8c-2.4-0.1-3.6-2.4-2.5-4.1c3.5-5.5,8.5-9.5,14.3-12.3c0.7-0.4,2.3,0,2.8,0.6c0.5,0.5,0.3,2-0.2,2.8
		c-0.8,1.3-2,2.5-3.2,3.6c-2.9,2.6-5.9,5.2-8.9,7.8C270.8,630.9,269.8,631.4,269.2,631.8z"/>
	<path d="M413.3,626.7c-2.8,1.1-4.2-0.3-4.8-2.2c-1.5-4.2-2.6-8.5-3.9-12.7c-0.2-0.8-0.1-1.8-0.5-2.5c-1-1.9,0-3,1.6-3.3
		c0.8-0.1,2.3,0.8,2.7,1.6C411.3,613.5,412.9,619.9,413.3,626.7z"/>
	<path class="st0" d="M566.6,358.6c-0.2,2-2.1,3.1-4.3,3.1c-2.1,0-3.8-1.1-3.6-3.5c0.2-2.2,1.1-4,3.6-4.2
		C564.7,353.7,566.6,355.6,566.6,358.6z"/>
	<path class="st0" d="M395.7,457.8c0-9.6,0.1-19.2-0.1-28.8c0-1.1-1-2.3-1.5-3.4c-0.3,0-0.7,0-1,0c-0.5,2.1-1.1,4.1-1.3,6.2
		c-1.1,8.3-2.3,16.5-3.2,24.8c-0.4,4.4-2.8,7.2-6,9.7c-8.2,6.3-17.4,8.7-27.7,7.7c-7.4-0.7-15-0.6-21.9-4
		c-10.1-5-18.1-11.8-19.5-23.9c-1-9.1,2.3-16.8,8.3-23.4c8.4-9.1,18.8-15,30.4-18.8c8.4-2.8,16.6-2.4,25.2-0.5
		c4.8,1.1,7.7,4.3,11.2,6.9c4.1,3,5.9,3.3,9.4-0.4c3.6-3.8,6.9-7.9,10.3-11.8c0.7-0.8,1.5-1.7,2.4-1.8c7.8-1,15.7-2.3,23.6-2.5
		c11.5-0.4,21.6,6.6,26.1,17.3c6.5,15.4,1.5,28.9-8.3,40.6c-9.8,11.6-22.9,16.1-38,13.9c-2.5-0.4-4.9-1.5-7.2-2.5
		C403.1,461.3,399.4,459.5,395.7,457.8z"/>
	<path class="st0" d="M394.7,405.3c-7.6-5.1-14.2-9.6-21.2-14.3c6.3-3.2,12.9-4.6,19.7-5.1c3.1-0.2,6.2-0.1,9.3,0.2
		c3.4,0.3,4.6,2.4,2.7,5.2C401.8,396.2,398,400.8,394.7,405.3z"/>
	<path class="st0" d="M548.7,469.3c-3.7,0-4.7-0.7-4.6-3.6c0.1-3.9,4-7.3,8.3-7.3c2.2,0,3.6,0.7,3.6,3.3
		C555.9,467,553.8,469.3,548.7,469.3z"/>
	<path class="st0" d="M521.8,487.5c0,3.6-3,6.1-7.3,6c-2.4-0.1-5.2-3.3-5.2-6c0-2.7,3.3-4.6,7.8-4.5
		C520.1,483,521.9,484.7,521.8,487.5z"/>
	<path class="st0" d="M498,469.7c-2.4,0-5.5-2.5-5.5-4.4c0-2.9,4.3-7.3,7.1-7.2c1.7,0.1,4,3.8,4,6.5
		C503.6,467,500.5,469.8,498,469.7z"/>
	<path class="st0" d="M265,479c-2.7,0.3-4.1-1-4-3.9c0-2.1,3.7-6.4,5.1-5.5c2,1.3,3.8,3.6,4.8,5.8C271.7,477,268.3,479,265,479z"/>
	<path class="st0" d="M237.1,509.6c-3.2-0.8-4.2-2.4-4.3-4.6c-0.1-1.8,2.9-3.7,5.4-3.9c2.8-0.2,4.5,1.7,3.8,3.7
		C241.4,506.7,238.9,508,237.1,509.6z"/>
	<path class="st0" d="M202.5,486.6c0.2,2.9-1.3,3.5-3.4,3.6c-2.6,0.1-4.2-1.6-4.1-3.8c0-1,2.1-2.6,3.4-2.8
		C200.6,483.4,202.9,483.9,202.5,486.6z"/>
	<path class="st0" d="M35.5,154.7c11.2-0.9,81,17.4,87.6,22.7c-17.4,21-34.9,42-52.7,63.4C52.5,214.5,42,185.5,35.5,154.7z"/>
	<path class="st0" d="M531.1,200.7c-15.3-13.1-25.4-31.3-43.7-41.3c6.1-5,45.8-19.2,57.7-20.8C548.7,150.3,540.8,185.3,531.1,200.7z
		"/>
</g>
</svg>
