<?xml version="1.0" encoding="utf-8"?>
<!-- Generator: Adobe Illustrator 26.0.0, SVG Export Plug-In . SVG Version: 6.00 Build 0)  -->
<svg version="1.1" id="Capa_1" xmlns="http://www.w3.org/2000/svg" xmlns:xlink="http://www.w3.org/1999/xlink" x="0px" y="0px"
	 viewBox="0 0 595.28 882.29" style="enable-background:new 0 0 595.28 882.29;" xml:space="preserve">
<style type="text/css">
	.st0{fill:#FFFFFF;}
</style>
<g>
	<path d="M0,348.52c0.39-1.35,1.02-2.69,1.12-4.06c0.18-2.44-0.02-4.92,0.09-7.37c0.04-1.05,0.1-2.43,0.74-3.06
		c3.35-3.28,3.03-7.72,3.87-11.73c3.97-18.96,9.6-37.35,17.76-54.97c10.23-22.08,24.36-41.32,41.4-58.6
		c12.31-12.48,25.65-23.7,39.74-34.08c16.53-12.18,33.81-23.15,52.26-32.2c13.1-6.43,26.61-11.86,40.73-16.19
		c-2.82-6.66-5.66-13.18-8.35-19.75c-3.58-8.77-7.05-17.6-10.56-26.4c-0.14-0.36-0.18-0.78-0.37-1.11
		c-2.01-3.48-1.66-4.33,2.38-4.78c11.41-1.26,22.83-2.37,34.23-3.62c7.18-0.79,14.35-1.73,21.14-2.56
		c1.19-18.65,9.78-33.08,22.41-45.41c7.75-7.57,16.14-14.41,26.66-17.83c18.67-6.07,37.57-6.92,55.9,0.54
		c20.55,8.37,36.99,22.06,48.04,41.64c3.11,5.51,4.7,11.39,3.17,17.79c7.45,0.58,14.68,1.01,21.87,1.75
		c7.5,0.77,14.97,1.85,22.45,2.78c1.36,0.17,2.73,0.33,4.1,0.41c4.46,0.27,6.49,3.56,4.9,7.78c-5.41,14.38-10.77,28.78-16.14,43.17
		c-0.54,1.44-1.06,2.88-1.34,3.65c8.83,3.95,17.56,7.41,25.87,11.69c9.93,5.11,19.93,10.28,29.1,16.59
		c8.93,6.15,17.23,13.37,25.13,20.83c13.43,12.68,26.31,25.94,37.6,40.64c14.24,18.53,25.02,38.83,32.22,61.09
		c4.52,14,9.26,27.95,11.41,42.54c1.58,10.67,2.22,21.48,3.39,32.21c0.57,5.26,1.59,10.47,2.03,15.74
		c1.07,13.05-0.59,25.84-3.87,38.49c-4.51,17.42-10.29,34.35-18.56,50.37c-12.58,24.37-27.31,47.28-46.7,66.85
		c-13.72,13.85-29.65,24.79-47.33,32.96c-8.69,4.01-17.83,7.04-26.77,10.51c-0.89,0.35-1.8,0.66-2.22,0.82
		c1.11,10.16-0.77,19.56-3.18,28.88c4.82,2.72,9.97,5.16,14.63,8.32c24.85,16.88,43.28,38.93,52.65,67.78
		c4.85,14.93,2.64,28.95-7.98,41.02c-6.14,6.98-14.52,10.13-23.17,12.63c-2.53,0.73-5.14,1.19-7,1.61
		c-2.36,13.19-4.39,26.14-7.03,38.96c-3.8,18.48-10.43,35.74-23.35,50.02c-0.38,0.42-0.61,0.96-0.8,1.26
		c9.67,3.65,19.32,7.07,28.79,10.92c9.12,3.71,17.64,8.61,25.37,14.75c5.81,4.62,5.99,11.62,0.2,15.7
		c-2.11,1.48-5.06,2.08-7.71,2.41c-2.67,0.33-5.45-0.13-8.17-0.35c-1.45-0.12-2.47-0.2-3.18,1.6
		c-5.18,13.08-17.43,17.43-29.99,10.78c-1.47-0.78-2.91-1.6-4.56-2.51c-1.33,1.85-2.57,3.7-3.94,5.47
		c-3.42,4.42-7.57,6.9-13.55,6.83c-8.59-0.09-16.42-2.55-24.02-6.06c-13.81-6.38-27.41-13.3-39.08-23.16
		c-4.27-3.61-8.31-2.07-12.42-1.75c-15.49,1.24-31.08,2.55-46.47,0.72c-8.49-1.01-13.97,1.48-20.01,6.8
		c-9.88,8.7-22.19,13.06-34.79,16.45c-6.11,1.64-12.26,2.79-18.62,1.89c-4.61-0.65-8.58-2.74-12-5.79
		c-1.26-1.12-2.19-1.53-3.86-0.79c-9.36,4.18-17.77,2.46-25.26-4.37c-3.41-3.11-4.5-7.12-3.88-11.51c0.28-1.97-0.28-3.09-1.72-4.17
		c-0.78-0.58-1.44-1.34-2.05-2.1c-4.83-5.98-4.46-10.61,1.43-15.42c8.61-7.02,18.69-10.03,29.63-10.82c4.17-0.3,8.3-1.14,12.61-1.76
		c-0.15-0.3-0.31-0.84-0.63-1.22c-10.29-12.11-15.72-26.38-17.96-41.85c-1.57-10.86-2.54-21.82-3.26-32.77
		c-0.63-9.59-0.59-19.24-0.77-28.86c-0.1-5.26-0.02-10.53-0.02-16.13c-3.24,2.06-5.21,4.92-6.12,8.34
		c-2.7,10.08-4.2,20.37-4.45,30.81c-0.15,6.37-1.32,12.47-4.59,18.03c-2,3.41-5.05,4.87-8.95,5.34c-6.38,0.77-11.14-1.62-15.28-6.31
		c-8.88-10.07-13.83-21.7-14.81-35.09c-1.4-19.04,1.51-37.37,9.05-54.91c6.88-16,18.33-28.18,32.45-38
		c3.77-2.62,7.91-4.7,11.81-7.14c0.77-0.48,1.72-1.44,1.74-2.21c0.14-6.18,0.08-12.36,0.08-18.62c-6.33-0.99-12.51-1.95-18.69-2.93
		c-23.66-3.74-46.39-10.44-67.64-21.67c-38.13-20.15-67.19-49.59-88.16-87.07c-14.2-25.38-23.71-52.37-26.82-81.49
		c-1.82-17.02-3.06-34.04-2.87-51.17c0.02-1.95-0.73-3.9-1.12-5.85C0,348.91,0,348.72,0,348.52z M7.04,356.77c0.19,0,0.38,0,0.57,0
		c0,7.36-0.5,14.77,0.11,22.08c1.1,13.19,2.48,26.38,4.45,39.47c2.61,17.34,8.74,33.65,15.99,49.56
		c14.69,32.24,35.36,59.82,63.48,81.6c15.9,12.32,33.24,22.07,52.07,29.17c15.63,5.9,31.79,9.72,48.25,12.35
		c6.47,1.03,13.02,2.84,19.46,2.55c13.41-0.62,26.79-2.14,40.13-3.77c17.54-2.14,35.01-4.87,52.54-7.13
		c22.3-2.87,44.63-5.4,66.92-8.31c14.39-1.88,28.75-4.05,43.08-6.38c3.83-0.62,7.47-2.41,11.25-3.47c7.45-2.1,15.21-2.64,22.64-5.13
		c13.4-4.49,26.43-9.66,38.76-16.63c12.63-7.14,24.46-15.43,34.6-25.75c18.8-19.13,33.05-41.56,45.31-65.29
		c8.27-16,14.12-32.9,18.56-50.32c2.73-10.7,4.78-21.48,3.95-32.57c-0.41-5.46-1.48-10.87-2.07-16.32
		c-1.17-10.73-1.81-21.53-3.41-32.19c-2.18-14.46-6.82-28.33-11.37-42.21c-5.78-17.6-13.6-34.17-23.92-49.58
		c-12.33-18.4-27.54-34.27-43.27-49.7c-9.92-9.73-20.4-18.85-32.57-25.59c-12.16-6.73-24.73-12.73-37.22-18.85
		c-3.2-1.57-7.19-1.77-10.09-3.69c-3.67-2.44-7.08-0.18-10.58-0.62c-6.31-0.8-12.73-0.79-19.1-1.08
		c-16.28-0.73-32.55-1.74-48.83-2.07c-14.73-0.3-29.48,0.08-44.22,0.32c-19.35,0.31-38.69,0.76-58.03,1.16
		c-4.03,0.08-8.05,0.33-12.07,0.34c-8.83,0.01-17.66-0.12-26.5-0.1c-0.99,0-2.04,0.55-2.94,1.07c-1.55,0.91-2.88,2.29-4.51,2.96
		c-12.84,5.28-26.05,9.78-38.55,15.78c-26.74,12.83-50.93,29.66-73.49,48.9c-23.82,20.31-43.47,43.81-56.76,72.38
		c-8.26,17.77-14.01,36.3-18,55.45c-0.84,4.01-0.45,8.47-3.85,11.77c-0.74,0.71-0.72,2.39-0.73,3.63
		C6.99,345.96,7.04,351.37,7.04,356.77z M318.69,618.26c-0.52,1.26-0.84,1.95-1.1,2.66c-3.59,10.06-7.2,20.1-10.71,30.18
		c-0.64,1.83-1.43,2.51-3.44,2.05c-4.96-1.12-10.08-1.64-14.92-3.11c-16.65-5.06-33.21-10.42-49.79-15.69
		c-2.84-0.9-5.64-1.94-8.9-3.06c0,5.56,0.56,10.72-0.1,15.71c-2.27,17.1-9.02,32.38-19.76,45.9c-0.65,0.82-0.88,2.26-0.75,3.35
		c0.55,4.65,1.76,9.27,1.89,13.93c0.3,10.3-0.02,20.62,0.12,30.94c0.22,16.56,2.31,32.86,7.11,48.76
		c3.63,12.02,9.45,22.7,19.5,30.52c18.81,14.65,40.48,22.46,64.03,24.1c22.85,1.6,45.76,0.66,68.52-2.26
		c2.38-0.31,4.96-0.66,6.98-1.81c15.26-8.63,29.14-19.11,42.01-31.05c13.05-12.12,19.04-27.38,20.66-44.57
		c1.22-12.98-0.29-25.87-2.81-38.64c-0.42-2.12-1.25-3.17-3.43-3.68c-8.27-1.92-15.4-5.96-20.64-12.7
		c-1.51-1.95-2.59-4.69-2.76-7.15c-0.56-7.76,3.13-13.67,8.94-18.56c7.06-5.94,13.96-12.06,20.89-18.15
		c2.81-2.47,3.16-4.14,1.19-7.48c-4.58-7.76-9.42-15.36-13.98-23.12c-4.69-7.99-10.15-15.64-11.49-25.34
		c-1.06,0.38-1.81,0.58-2.49,0.92c-11.18,5.45-22.59,10.49-33.45,16.51c-11.13,6.17-21.82,13.18-32.51,20.11
		c-2.76,1.79-5,2.07-7.46,0.2c-1.38-1.05-2.67-2.34-3.66-3.76C330.54,635.61,324.81,627.18,318.69,618.26z M421.84,606.63
		c0.88,8.79,5.29,15.46,9.3,22.27c5.32,9.02,10.92,17.87,16.22,26.9c2.41,4.11,1.33,10.75-2.19,13.94
		c-7.27,6.59-14.76,12.94-22.02,19.55c-1.92,1.74-3.71,3.84-4.9,6.12c-3.2,6.07-2.2,9.87,3.22,14.04c4.56,3.52,9.66,5.91,15.26,7.29
		c3.43,0.85,5.53,3.03,6.29,6.57c2.94,13.63,3.69,27.45,3.06,41.31c-0.68,14.91-4.58,29.1-14.43,40.55
		c-6.94,8.06-15.3,14.92-23.26,22.06c-3.86,3.46-8.24,6.34-12.39,9.48c12.83-3.33,24.51-8.77,34.81-17.06
		c2.1-1.69,4.59-2.88,7.06-4.39c0.72-1.29,1.57-3.06,2.64-4.69c3.81-5.81,8.08-11.35,11.48-17.39c5.56-9.89,8.62-20.81,10.76-31.86
		c2.34-12.11,3.75-24.39,5.96-36.52c0.33-1.82,2.51-4.02,4.34-4.73c5.72-2.22,11.82-3.48,17.54-5.71
		c12.86-5,21.71-21.03,18.74-34.53c-4.47-20.25-15.04-37.34-28.89-52.46c-10.86-11.85-24.07-20.6-38.36-27.78
		c-0.44-0.22-1.14-0.25-1.61-0.07C434.26,601.85,428.06,604.25,421.84,606.63z M444.15,566.84c-1.87,0.43-2.83,0.59-3.75,0.87
		c-6,1.83-12.15,3.14-18.18,4.78c-19.55,5.33-39.83,6.61-59.9,9.01c-26.8,3.21-53.55,6.92-80.32,10.37
		c-19.18,2.47-38.37,4.93-57.57,7.23c-4.82,0.58-9.71,0.51-14.39,0.73c0.4,5.07,0.71,9.96,1.26,14.83c0.1,0.88,1,2.08,1.82,2.4
		c6.73,2.66,13.48,5.28,20.32,7.65c14.7,5.09,29.41,10.16,44.21,14.94c6.68,2.16,13.56,3.73,20.4,5.33
		c4.07,0.95,4.02,0.66,5.31-3.21c3.62-10.87,7.34-21.7,11.09-32.52c0.95-2.73,3.43-3.4,5.4-1.36c2.02,2.09,3.98,4.32,5.55,6.75
		c3.68,5.67,7,11.59,10.7,17.25c2.22,3.39,4.89,6.47,7.35,9.68c20.53-14,41.51-25.8,63.65-35.45c10.05-4.38,20.3-8.28,30.42-12.48
		c0.97-0.4,2.34-1.23,2.49-2.05C441.49,583.6,442.73,575.57,444.15,566.84z M437.9,75.67c-5.85-0.53-10.91-1.05-15.99-1.45
		c-13.4-1.07-26.8-2.24-40.22-3.09c-14.59-0.92-29.2-2-43.81-2.14c-18.46-0.18-36.94,0.26-55.39,0.91
		c-13.13,0.46-26.36,0.83-39.31,2.82c-16.67,2.57-33.43,4.16-50.16,6.04c-3.64,0.41-7.33,0.5-11.03,0.74
		c4.09,7.97,8.09,15.76,11.98,23.34c2.28-0.53,4.41-1.29,6.6-1.48c7.72-0.65,15.45-1.03,23.17-1.64c9.86-0.78,19.7-1.97,29.57-2.46
		c12.45-0.62,24.93-0.94,37.39-0.98c20.15-0.06,40.32-0.34,60.44,0.48c22.54,0.91,45.04,2.94,67.56,4.48
		c3.51,0.24,7.02,0.5,10.66,0.75C432.25,93.08,435.05,84.44,437.9,75.67z M388.2,64.4c-0.53-1.27-0.89-2.06-1.19-2.87
		c-1.76-4.74-2.79-9.93-5.4-14.14c-9.55-15.41-23.1-26.63-39.28-34.51c-11.25-5.48-23.39-6.73-35.86-6.17
		c-10.55,0.48-20.37,3.07-29.19,8.8c-13.49,8.75-23.25,20.88-30.75,34.97c-2.7,5.06-4.57,10.29-4.92,16.3
		C290.41,61.82,339.06,61.05,388.2,64.4z M223.94,628.27c-4.04-1.58-8.02-3.2-12.07-4.65c-0.73-0.26-1.84-0.04-2.57,0.35
		c-1.54,0.8-2.89,1.97-4.42,2.8c-15.32,8.29-28.19,19.15-36.54,34.75c-8.54,15.97-12.55,33.1-12.57,51.12
		c-0.01,11.79,2.92,22.9,9.67,32.76c2.54,3.7,5,7.56,9.35,9.53c3.78,1.71,8.01,0.44,9.51-3.45c1.46-3.8,2.7-7.79,3.28-11.81
		c1.44-10.08,2.38-20.23,3.65-30.33c0.64-5.11,2.83-9.45,6.59-13.14c2.09-2.04,4.49-3.59,6.37-6.1
		C217.94,671.83,225.97,651.88,223.94,628.27z M195.92,107.95c1.89,4.45,3.64,8.66,5.48,12.83c0.19,0.42,0.86,0.82,1.35,0.89
		c3.88,0.54,7.77,1.43,11.65,1.4c12.66-0.11,25.32-0.58,37.97-0.88c17.76-0.41,35.53-1.06,53.29-1.11
		c21.71-0.07,43.42,0.33,65.13,0.62c6.17,0.08,12.35,0.41,18.51,0.75c9.21,0.5,18.42,1.21,27.63,1.57c1.39,0.05,3.57-0.92,4.13-2.05
		c2.14-4.25,3.77-8.76,5.71-13.47C349.66,101.53,272.91,100.07,195.92,107.95z M369.03,849.39c2.34,1.3,4.61,2.36,6.66,3.76
		c2.91,1.99,5.47,4.54,8.5,6.29c11.57,6.71,23.97,11.53,36.79,15.25c2.47,0.72,5.25,0.79,7.84,0.57c4.39-0.36,8.9-4.86,9.21-8.68
		c0.4-4.88,2.71-6.43,7.22-4.53c2.61,1.09,5.04,2.61,7.51,4c5.39,3.04,10.37,2.6,15.02-1.11c3.55-2.84,5.6-6.43,6.54-10.83
		c0.19-0.88,1.28-2.23,1.94-2.22c3.11,0.02,6.29,0.1,9.29,0.8c3.9,0.92,7.34,0.88,10.5-2.34c-3.53-5-8.11-8.81-13.32-11.74
		c-13.46-7.55-27.8-12.91-42.88-16.19c-1.09-0.24-2.73,0.34-3.62,1.1c-14.6,12.4-31.87,18.94-50.26,22.97
		C380.45,847.71,374.84,848.41,369.03,849.39z M285.82,850.4c-0.13-0.28-0.26-0.57-0.39-0.85c-4.06-1.04-8.17-1.92-12.18-3.15
		c-13.9-4.3-27.44-9.35-38.6-19.22c-0.83-0.73-2.36-1.12-3.48-0.99c-8.57,1-17.18,1.82-25.64,3.4c-6.26,1.17-12.25,3.59-17.3,7.72
		c-2.74,2.24-2.52,5.15,0.34,6.95c5.59,3.51,6.3,5.13,4.88,11.65c-0.62,2.83,0.23,4.85,2.53,6.64c5.21,4.04,10.53,4.21,16.55,1.78
		c2.87-1.16,6.29-1.17,9.46-1.16c0.88,0,1.73,1.96,2.63,2.99c0.25,0.29,0.63,0.46,0.95,0.69c5.59,4.09,11.88,5.55,18.38,3.31
		c9.23-3.18,18.39-6.68,27.27-10.7C276.38,857.11,280.97,853.46,285.82,850.4z"/>
	<path d="M110.87,766.57c9.06,3.48,17.9,6.91,26.77,10.26c3.85,1.45,5.98,3.52,7.24,8.06c2.82,10.17,1.81,20.16,1.37,30.36
		c-0.63,14.51-0.39,29.05-0.65,43.57c-0.07,4.19-0.5,8.38-0.96,12.54c-0.1,0.93-1.02,1.77-1.56,2.65c-0.79-0.58-1.59-1.16-3.04-2.22
		c-10.44,3.18-21.42,6.73-32.52,9.82c-4.05,1.12-7.89,0.95-12.29-1.35c-11.39-5.96-23.42-10.71-35.2-15.93
		c-1.43-0.63-2.93-1.11-4.33-1.79c-4.74-2.3-9.64-3.19-14.99-3.24c-8.05-0.06-14.34-4.44-20.09-9.8c-5-4.66-7.05-10.44-7.58-16.99
		c-0.01-0.1,0-0.21-0.03-0.29c-4.21-9.84-0.41-19.75-0.05-29.59c0.47-12.82,4.14-25.41,3.33-38.37c-0.05-0.88-0.01-1.77-0.1-2.65
		c-0.62-6.41-0.75-6.72,5.2-8.93c5.38-1.99,11.01-3.4,16.61-4.67c7.19-1.64,7.13-1.49,8.76-8.78c1.09-4.87,2.45-9.67,3.8-14.48
		c1-3.56,3.25-5.52,6.87-5.07c6.98,0.86,13.99,1.85,20.82,3.48c10.05,2.39,19.65,6.1,27.99,12.45c1.95,1.48,3.77,3.15,5.57,4.81
		c1.69,1.56,2.39,3.47,2.02,5.83c-0.93,5.91-1.75,11.83-2.61,17.75C111.08,764.87,110.98,765.72,110.87,766.57z M94.98,873.01
		c0-1.34-0.01-2.39,0-3.44c0.1-8.94-0.05-17.89,0.37-26.81c0.77-16.17,1.92-32.33,2.75-48.49c0.05-0.98-1.02-2.58-1.95-2.95
		c-19.02-7.7-38.13-15.2-57.14-22.91c-5.8-2.35-11.38-5.23-17.06-7.87c0.07-0.54,0.15-1.09,0.22-1.63c1.44-0.18,3.05-0.87,4.28-0.45
		c4.41,1.52,8.66,3.51,13.02,5.16c18.84,7.14,37.74,14.13,56.53,21.4c4.46,1.73,8.39,2.93,13.4,1.35
		c6.19-1.95,12.83-2.49,19.27-3.67c1.15-0.21,2.27-0.54,3.58-0.86c-0.38-0.5-0.42-0.61-0.5-0.65c-6.1-2.88-12.23-5.7-18.29-8.65
		c-1.77-0.86-2.97-0.72-4.73,0.4c-8.48,5.39-9.88,5.69-17.96-0.6c-0.15-0.12-0.37-0.22-0.44-0.38c-0.62-1.45-1.74-2.93-1.72-4.38
		c0.05-3.71,0.5-7.43,1.02-11.12c0.24-1.73-0.24-2.41-1.88-2.92c-4.67-1.44-9.27-3.07-13.91-4.6c-0.78-0.25-1.62-0.32-2.61-0.5
		c-0.18,1.53-0.36,2.69-0.43,3.86c-0.23,3.73-0.3,7.52-5.51,7.71c-0.41,0.01-0.87,0.48-1.17,0.84c-2.04,2.45-4.73,2.17-7.32,1.56
		c-2.33-0.55-4.56-1.56-5.84-2.01c-2.02,0.58-3.46,1.48-4.43,1.12c-0.84-0.31-1.48-2.02-1.6-3.18c-0.25-2.28-0.07-4.6-0.07-6.67
		c-5.19,1.45-10.06,2.8-14.93,4.18c-2.07,0.59-4.2,1.06-6.16,1.92c-0.81,0.35-1.68,1.54-1.76,2.41c-1.25,14.17-2.41,28.36-3.5,42.55
		c-0.39,5.11-0.55,10.24-0.82,15.37c1.45-1.27,2.14-2.78,3.16-4.01c1.05-1.26,2.28-2.49,3.67-3.33
		c12.64-7.71,26.33-12.49,41.07-14.07c9.77-1.05,22.88,5.56,24.14,18.02c0.46,4.52,0.68,9.27-0.18,13.68
		c-1.86,9.58-6.87,16.93-16.72,20.24c-4.16,1.4-8.14,3.36-12.16,5.17c-1.69,0.76-3.27,1.77-4.81,2.62
		C68.97,861.96,81.82,867.42,94.98,873.01z M100.14,876.65c2.59-0.83,4.51-1.55,6.48-2.07c10.4-2.76,20.83-5.43,31.21-8.29
		c0.9-0.25,2.03-1.6,2.11-2.52c0.51-5.66,0.93-11.35,1.03-17.04c0.3-16.9,0.43-33.8,0.62-50.7c0.04-3.5,0.01-7,0.01-10.5
		c-13.31,2.91-26.3,5.75-39.52,8.63c0,1.45,0.03,3.02-0.01,4.58c-0.21,8.84-0.35,17.68-0.69,26.51c-0.6,15.6-1.34,31.2-1.95,46.8
		C99.37,873.55,99.88,875.06,100.14,876.65z M41.43,851.59c-0.01,0.29-0.03,0.58-0.04,0.87c2.62,0.23,5.5,1.28,7.79,0.53
		c4.5-1.48,8.68-3.95,12.97-6.06c0.37-0.18,0.63-0.68,0.82-1.09c0.63-1.33,1.24-2.66,1.79-4.03c1.25-3.13,3.11-6.19,3.56-9.44
		c1.06-7.72-1.9-14.67-5.65-21.19c-2.53-4.41-8.11-6.66-13.01-5.51c-7.96,1.87-15.66,4.59-22.36,9.35
		c-2.27,1.61-4.44,4.16-5.33,6.74c-1.27,3.71-2.02,7.89-1.7,11.77c0.28,3.39,1.48,7.54,3.8,9.73c3.11,2.93,7.7,4.3,10.92,5.97
		c1.74-1.52,2.76-2.78,4.08-3.48c1.53-0.81,3.38-0.98,4.98-1.69c1.27-0.56,2.93-1.24,3.47-2.34c5.66-11.54-4.24-22.46-13.07-21.52
		c-1.94,0.21-3.93,0.09-5.88-0.1c-0.6-0.06-1.37-0.77-1.61-1.36c-0.18-0.43,0.21-1.45,0.64-1.72c1.48-0.92,3.05-2.19,4.67-2.31
		c14.67-1.17,23.48,10.57,22.36,22.6C53.91,845.1,49.08,849.8,41.43,851.59z M56.12,756.49c0.78-5.39,1.57-10.58,2.26-15.79
		c0.35-2.62,1.42-3.45,3.96-2.5c10.45,3.92,20.89,7.88,31.27,11.96c0.87,0.34,1.87,1.75,1.88,2.67c0.01,5-0.3,10-0.4,15
		c-0.01,0.69,0.48,1.49,0.93,2.08c2.59,3.35,5.42,1.43,8.08,0.16c0.71-0.34,1.34-1.49,1.46-2.34c0.91-6.79,1.5-13.64,2.62-20.39
		c0.33-2.01,0.15-3.24-1.49-4.18c-5.5-3.15-10.86-6.62-16.6-9.28c-9.09-4.22-18.82-6.58-28.69-8.23c-3.61-0.6-5.74,0.55-6.5,4.08
		c-1.74,8.03-3.13,16.13-4.66,24.16c1.37,0.51,2.28,0.8,3.15,1.19C54.34,755.52,55.25,756.04,56.12,756.49z M62.11,803.66
		c13.04,10.98,11.84,24.87,8.78,39c7.43-4.29,13.78-9.96,13.56-19.87c-0.09-3.83-0.08-8.55-2.19-11.26
		C77.37,805.23,70.71,801.23,62.11,803.66z M62.57,744.64c-0.45,3.83-0.86,7.32-1.29,10.97c4.22-0.61,3.74-3.61,3.79-6.08
		C65.11,747.81,65.87,745.52,62.57,744.64z"/>
	<path class="st0" d="M7.04,356.77c0-5.4-0.04-10.81,0.03-16.21c0.02-1.24,0-2.92,0.73-3.63c3.4-3.3,3.01-7.76,3.85-11.77
		c3.99-19.14,9.74-37.68,18-55.45c13.29-28.57,32.95-52.07,56.76-72.38c22.56-19.23,46.76-36.07,73.49-48.9
		c12.49-6,25.71-10.49,38.55-15.78c1.63-0.67,2.96-2.05,4.51-2.96c0.89-0.52,1.95-1.07,2.94-1.07c8.83-0.03,17.66,0.1,26.5,0.1
		c4.02,0,8.05-0.25,12.07-0.34c19.34-0.4,38.69-0.86,58.03-1.16c14.74-0.23,29.49-0.61,44.22-0.32c16.28,0.33,32.55,1.34,48.83,2.07
		c6.38,0.29,12.79,0.28,19.1,1.08c3.51,0.45,6.92-1.81,10.58,0.62c2.9,1.92,6.88,2.12,10.09,3.69
		c12.49,6.12,25.06,12.12,37.22,18.85c12.17,6.74,22.65,15.86,32.57,25.59c15.73,15.43,30.94,31.3,43.27,49.7
		c10.32,15.41,18.14,31.98,23.92,49.58c4.55,13.87,9.19,27.75,11.37,42.21c1.61,10.66,2.24,21.47,3.41,32.19
		c0.59,5.45,1.66,10.86,2.07,16.32c0.82,11.09-1.23,21.87-3.95,32.57c-4.44,17.42-10.3,34.32-18.56,50.32
		c-12.26,23.73-26.5,46.15-45.31,65.29c-10.14,10.32-21.97,18.61-34.6,25.75c-12.33,6.97-25.36,12.14-38.76,16.63
		c-7.43,2.49-15.19,3.03-22.64,5.13c-3.78,1.06-7.41,2.85-11.25,3.47c-14.33,2.33-28.68,4.5-43.08,6.38
		c-22.29,2.91-44.63,5.44-66.92,8.31c-17.53,2.26-35,4.98-52.54,7.13c-13.34,1.63-26.72,3.16-40.13,3.77
		c-6.43,0.3-12.99-1.51-19.46-2.55c-16.46-2.63-32.61-6.46-48.25-12.35c-18.83-7.1-36.17-16.85-52.07-29.17
		c-28.11-21.78-48.78-49.36-63.48-81.6c-7.25-15.91-13.38-32.22-15.99-49.56c-1.97-13.08-3.35-26.28-4.45-39.47
		c-0.61-7.31-0.11-14.72-0.11-22.08C7.42,356.77,7.23,356.77,7.04,356.77z M239.4,573.04c0-0.13,0.01-0.27,0.01-0.4
		c5.8,0,11.62,0.32,17.4-0.06c14.97-0.98,29.98-1.73,44.84-3.59c14.35-1.79,28.63-4.42,42.76-7.48c10.77-2.33,21.35-5.66,31.88-9
		c9.41-2.98,18.94-5.88,27.84-10.05c13.53-6.35,26.65-13.6,39.75-20.83c6.24-3.45,12.39-7.28,17.92-11.75
		c11.77-9.52,22.56-20.13,32.37-31.7c15.02-17.71,28.5-36.39,37.6-57.96c6.7-15.87,11.05-32.35,11.38-49.56
		c0.28-14.32-0.22-28.68-1.13-42.98c-1.09-16.99-4.6-33.5-12.2-48.97c-9.19-18.71-22.6-33.36-40.99-43.31
		c-22.1-11.95-45.97-18.1-70.69-21.31c-20.53-2.67-41.17-2.69-61.77-1.31c-23.38,1.56-45.14,8.92-65.25,20.77
		c-13.5,7.95-26.57,16.62-39.77,25.07c-2.07,1.33-3.5,1.5-5.66-0.07c-8.33-6.02-16.67-12.02-26.13-16.3
		c-21.57-9.77-44.31-11.83-67.57-10.61c-4.2,0.22-8.44,0.51-12.54,1.36c-7.09,1.47-14.16,3.17-21.11,5.19
		c-16.32,4.75-31.63,11.74-44.87,22.54c-16.59,13.52-29.52,30.03-38.56,49.49c-7.5,16.15-13.72,32.73-15.63,50.58
		c-0.81,7.6-0.74,15.29-1.24,22.93c-0.71,10.72-0.29,21.4,1.18,32.03c2.33,16.89,7.42,32.99,13.88,48.74
		c11.44,27.93,29.11,50.82,54.54,67.26c24.7,15.96,50.47,29.75,79.84,35.14c9.32,1.71,18.67,3.71,28.09,4.42
		C210.13,572.41,224.79,572.52,239.4,573.04z"/>
	<path class="st0" d="M318.69,618.26c6.12,8.92,11.85,17.34,17.67,25.7c0.99,1.42,2.28,2.71,3.66,3.76c2.45,1.87,4.69,1.59,7.46-0.2
		c10.69-6.93,21.37-13.94,32.51-20.11c10.86-6.02,22.27-11.06,33.45-16.51c0.68-0.33,1.44-0.53,2.49-0.92
		c1.34,9.7,6.8,17.35,11.49,25.34c4.56,7.77,9.4,15.37,13.98,23.12c1.97,3.34,1.62,5.01-1.19,7.48
		c-6.92,6.09-13.83,12.21-20.89,18.15c-5.82,4.89-9.5,10.8-8.94,18.56c0.18,2.46,1.25,5.2,2.76,7.15
		c5.24,6.75,12.37,10.78,20.64,12.7c2.18,0.51,3.01,1.56,3.43,3.68c2.52,12.78,4.03,25.67,2.81,38.64
		c-1.62,17.19-7.61,32.45-20.66,44.57c-12.86,11.95-26.75,22.43-42.01,31.05c-2.03,1.15-4.6,1.5-6.98,1.81
		c-22.77,2.93-45.67,3.86-68.52,2.26c-23.55-1.64-45.21-9.45-64.03-24.1c-10.05-7.82-15.87-18.5-19.5-30.52
		c-4.8-15.9-6.89-32.21-7.11-48.76c-0.13-10.31,0.18-20.63-0.12-30.94c-0.13-4.65-1.35-9.27-1.89-13.93
		c-0.13-1.09,0.1-2.53,0.75-3.35c10.74-13.53,17.49-28.8,19.76-45.9c0.66-4.99,0.1-10.15,0.1-15.71c3.27,1.13,6.07,2.16,8.9,3.06
		c16.58,5.27,33.14,10.62,49.79,15.69c4.84,1.47,9.97,1.99,14.92,3.11c2.01,0.46,2.8-0.23,3.44-2.05
		c3.51-10.08,7.12-20.13,10.71-30.18C317.85,620.21,318.17,619.52,318.69,618.26z"/>
	<path class="st0" d="M421.84,606.63c6.22-2.39,12.42-4.78,18.63-7.12c0.47-0.18,1.16-0.15,1.61,0.07
		c14.29,7.18,27.5,15.92,38.36,27.78c13.85,15.12,24.42,32.21,28.89,52.46c2.98,13.49-5.88,29.53-18.74,34.53
		c-5.72,2.22-11.81,3.49-17.54,5.71c-1.83,0.71-4.01,2.91-4.34,4.73c-2.21,12.13-3.62,24.42-5.96,36.52
		c-2.14,11.05-5.2,21.97-10.76,31.86c-3.39,6.04-7.66,11.58-11.48,17.39c-1.07,1.63-1.92,3.4-2.64,4.69
		c-2.47,1.51-4.96,2.7-7.06,4.39c-10.3,8.29-21.99,13.73-34.81,17.06c4.15-3.14,8.53-6.02,12.39-9.48
		c7.96-7.14,16.32-14,23.26-22.06c9.85-11.44,13.76-25.63,14.43-40.55c0.63-13.86-0.12-27.68-3.06-41.31
		c-0.76-3.54-2.86-5.72-6.29-6.57c-5.6-1.38-10.7-3.78-15.26-7.29c-5.42-4.17-6.41-7.97-3.22-14.04c1.2-2.28,2.99-4.38,4.9-6.12
		c7.26-6.6,14.74-12.96,22.02-19.55c3.52-3.19,4.6-9.83,2.19-13.94c-5.3-9.03-10.9-17.88-16.22-26.9
		C427.13,622.1,422.72,615.43,421.84,606.63z"/>
	<path class="st0" d="M444.15,566.84c-1.42,8.73-2.66,16.75-4.13,24.73c-0.15,0.82-1.51,1.65-2.49,2.05
		c-10.13,4.19-20.38,8.1-30.42,12.48c-22.15,9.65-43.13,21.45-63.65,35.45c-2.46-3.21-5.14-6.3-7.35-9.68
		c-3.71-5.66-7.02-11.57-10.7-17.25c-1.58-2.43-3.53-4.66-5.55-6.75c-1.97-2.03-4.45-1.37-5.4,1.36
		c-3.75,10.82-7.47,21.65-11.09,32.52c-1.29,3.87-1.24,4.16-5.31,3.21c-6.85-1.6-13.72-3.17-20.4-5.33
		c-14.8-4.78-29.51-9.85-44.21-14.94c-6.84-2.37-13.59-4.99-20.32-7.65c-0.82-0.32-1.72-1.52-1.82-2.4
		c-0.55-4.87-0.85-9.76-1.26-14.83c4.68-0.22,9.57-0.15,14.39-0.73c19.2-2.3,38.39-4.76,57.57-7.23
		c26.78-3.45,53.52-7.17,80.32-10.37c20.07-2.4,40.35-3.68,59.9-9.01c6.04-1.65,12.19-2.96,18.18-4.78
		C441.33,567.44,442.28,567.27,444.15,566.84z M396.44,606.91c-0.51-0.59-1.38-1.67-2.31-2.69c-1.54-1.69-3.33-3.21-4.62-5.07
		c-1.71-2.48-2.95-5.28-4.59-7.81c-0.5-0.77-1.66-1.1-2.51-1.64c-0.56,1.04-1.4,2.02-1.59,3.13c-0.21,1.2,0.21,2.5,0.31,3.76
		c0.47,5.97,5.21,12.04,10.78,13.76C394.67,611.22,396.43,610.19,396.44,606.91z M404.29,588.77c0.45,4.29,1.49,8.12,4.67,10.97
		c0.78,0.7,2.27,0.63,3.43,0.91c0.23-1.07,0.67-2.14,0.64-3.2c-0.06-1.94-0.29-3.88-0.66-5.79c-0.6-3.06-1.2-6.13-2.13-9.1
		c-0.76-2.46-2.68-2.7-3.91-0.4C405.26,584.16,404.94,586.55,404.29,588.77z M366.09,613.19c-0.64-6.35-3.45-11.39-7.94-15.5
		c-1.26-1.16-2.66-0.48-2.99,0.9c-0.36,1.5-0.38,3.29,0.1,4.74c0.79,2.39,1.83,4.79,3.28,6.83c1.27,1.8,3.1,3.32,4.94,4.57
		C365.18,615.9,365.91,614.6,366.09,613.19z M267.86,612.44c0.01,4.87,1.68,8.97,5.57,12.06c0.99,0.79,1.85,1.76,2.89,2.48
		c0.7,0.48,1.61,0.66,2.43,0.98c0.11-0.91,0.59-1.97,0.27-2.69c-2.33-5.26-4.77-10.46-7.3-15.62c-0.29-0.59-1.45-1.27-1.93-1.11
		c-0.76,0.26-1.46,1.11-1.87,1.88C267.62,610.94,267.86,611.75,267.86,612.44z M257.11,619.11c-0.57-2.41-1.18-5.57-2.11-8.63
		c-0.26-0.85-1.47-1.41-2.25-2.1c-0.67,0.83-1.97,1.71-1.91,2.48c0.36,4.63,0.95,9.26,1.69,13.85c0.11,0.67,1.4,1.54,2.19,1.58
		c0.59,0.03,1.59-1.02,1.79-1.75C256.91,623.04,256.88,621.44,257.11,619.11z M239.68,610.99c-1.05-1.56-2.06-3.64-3.6-5.2
		c-1.52-1.56-3.33-0.59-3.35,1.26c-0.04,3.78,0.44,7.58,0.94,11.34c0.08,0.59,1.36,1.33,2.14,1.42c0.59,0.06,1.65-0.69,1.86-1.3
		C238.42,616.31,238.9,614.02,239.68,610.99z"/>
	<path class="st0" d="M437.9,75.67c-2.84,8.77-5.64,17.41-8.53,26.32c-3.65-0.26-7.15-0.51-10.66-0.75
		c-22.52-1.54-45.02-3.57-67.56-4.48c-20.12-0.82-40.29-0.55-60.44-0.48c-12.47,0.04-24.94,0.37-37.39,0.98
		c-9.87,0.49-19.71,1.68-29.57,2.46c-7.72,0.61-15.46,0.99-23.17,1.64c-2.18,0.18-4.32,0.95-6.6,1.48
		c-3.89-7.58-7.89-15.37-11.98-23.34c3.7-0.24,7.38-0.33,11.03-0.74c16.73-1.88,33.49-3.47,50.16-6.04
		c12.94-1.99,26.18-2.36,39.31-2.82c18.45-0.65,36.93-1.09,55.39-0.91c14.61,0.14,29.22,1.22,43.81,2.14
		c13.42,0.85,26.82,2.02,40.22,3.09C426.98,74.62,432.04,75.14,437.9,75.67z"/>
	<path class="st0" d="M388.2,64.4c-49.14-3.36-97.79-2.59-146.59,2.38c0.35-6.01,2.22-11.24,4.92-16.3
		c7.51-14.09,17.27-26.21,30.75-34.97c8.82-5.72,18.64-8.32,29.19-8.8c12.46-0.57,24.6,0.69,35.86,6.17
		c16.18,7.88,29.73,19.09,39.28,34.51c2.61,4.21,3.64,9.41,5.4,14.14C387.31,62.35,387.67,63.14,388.2,64.4z"/>
	<path class="st0" d="M223.94,628.27c2.04,23.61-6,43.56-19.74,61.83c-1.88,2.5-4.28,4.05-6.37,6.1c-3.77,3.69-5.95,8.03-6.59,13.14
		c-1.27,10.1-2.22,20.25-3.65,30.33c-0.57,4.02-1.81,8.01-3.28,11.81c-1.5,3.89-5.73,5.16-9.51,3.45c-4.35-1.97-6.81-5.83-9.35-9.53
		c-6.75-9.85-9.68-20.97-9.67-32.76c0.02-18.02,4.03-35.16,12.57-51.12c8.35-15.6,21.22-26.46,36.54-34.75
		c1.53-0.83,2.88-1.99,4.42-2.8c0.73-0.38,1.84-0.61,2.57-0.35C215.92,625.07,219.9,626.69,223.94,628.27z"/>
	<path class="st0" d="M195.92,107.95c76.99-7.88,153.74-6.42,230.87,0.54c-1.94,4.71-3.57,9.22-5.71,13.47
		c-0.57,1.13-2.74,2.1-4.13,2.05c-9.22-0.36-18.42-1.06-27.63-1.57c-6.17-0.34-12.34-0.66-18.51-0.75
		c-21.71-0.29-43.42-0.69-65.13-0.62c-17.77,0.06-35.53,0.7-53.29,1.11c-12.66,0.29-25.31,0.77-37.97,0.88
		c-3.88,0.03-7.77-0.86-11.65-1.4c-0.49-0.07-1.16-0.47-1.35-0.89C199.56,116.61,197.81,112.4,195.92,107.95z"/>
	<path class="st0" d="M369.03,849.39c5.8-0.98,11.42-1.68,16.92-2.89c18.39-4.03,35.66-10.57,50.26-22.97
		c0.9-0.76,2.53-1.34,3.62-1.1c15.08,3.28,29.42,8.64,42.88,16.19c5.22,2.93,9.8,6.74,13.32,11.74c-3.16,3.22-6.59,3.26-10.5,2.34
		c-3-0.7-6.19-0.78-9.29-0.8c-0.67,0-1.76,1.35-1.94,2.22c-0.93,4.4-2.99,7.99-6.54,10.83c-4.65,3.71-9.62,4.15-15.02,1.11
		c-2.47-1.39-4.91-2.91-7.51-4c-4.51-1.89-6.83-0.34-7.22,4.53c-0.31,3.82-4.82,8.31-9.21,8.68c-2.59,0.22-5.37,0.14-7.84-0.57
		c-12.81-3.72-25.21-8.54-36.79-15.25c-3.03-1.76-5.59-4.31-8.5-6.29C373.65,851.75,371.37,850.69,369.03,849.39z"/>
	<path class="st0" d="M285.82,850.4c-4.85,3.06-9.44,6.71-14.61,9.05c-8.89,4.03-18.04,7.53-27.27,10.7
		c-6.5,2.24-12.79,0.77-18.38-3.31c-0.32-0.23-0.7-0.41-0.95-0.69c-0.9-1.03-1.75-2.99-2.63-2.99c-3.17-0.01-6.6,0-9.46,1.16
		c-6.01,2.43-11.34,2.26-16.55-1.78c-2.3-1.79-3.14-3.81-2.53-6.64c1.42-6.52,0.71-8.14-4.88-11.65c-2.86-1.8-3.08-4.7-0.34-6.95
		c5.05-4.13,11.04-6.55,17.3-7.72c8.46-1.58,17.08-2.4,25.64-3.4c1.12-0.13,2.65,0.26,3.48,0.99c11.16,9.87,24.7,14.92,38.6,19.22
		c4,1.24,8.11,2.11,12.18,3.15C285.56,849.83,285.69,850.11,285.82,850.4z"/>
	<path class="st0" d="M94.98,873.01c-13.15-5.58-26.01-11.04-39.15-16.62c1.54-0.85,3.12-1.86,4.81-2.62c4.02-1.8,8-3.77,12.16-5.17
		c9.85-3.3,14.86-10.65,16.72-20.24c0.86-4.41,0.63-9.16,0.18-13.68c-1.26-12.46-14.38-19.07-24.14-18.02
		c-14.73,1.58-28.42,6.36-41.07,14.07c-1.39,0.85-2.63,2.07-3.67,3.33c-1.02,1.23-1.7,2.74-3.16,4.01
		c0.27-5.12,0.43-10.25,0.82-15.37c1.09-14.19,2.25-28.37,3.5-42.55c0.08-0.88,0.96-2.06,1.76-2.41c1.96-0.86,4.09-1.33,6.16-1.92
		c4.87-1.38,9.74-2.73,14.93-4.18c0,2.07-0.17,4.39,0.07,6.67c0.12,1.16,0.77,2.87,1.6,3.18c0.97,0.36,2.41-0.54,4.43-1.12
		c1.28,0.45,3.5,1.46,5.84,2.01c2.59,0.61,5.29,0.9,7.32-1.56c0.3-0.37,0.77-0.83,1.17-0.84c5.21-0.19,5.29-3.98,5.51-7.71
		c0.07-1.16,0.26-2.32,0.43-3.86c1,0.18,1.84,0.25,2.61,0.5c4.64,1.52,9.24,3.16,13.91,4.6c1.63,0.5,2.12,1.18,1.88,2.92
		c-0.52,3.69-0.97,7.41-1.02,11.12c-0.02,1.45,1.1,2.93,1.72,4.38c0.07,0.16,0.29,0.26,0.44,0.38c8.07,6.3,9.47,5.99,17.96,0.6
		c1.76-1.12,2.97-1.26,4.73-0.4c6.07,2.95,12.19,5.77,18.29,8.65c0.08,0.04,0.12,0.15,0.5,0.65c-1.31,0.32-2.44,0.65-3.58,0.86
		c-6.44,1.18-13.08,1.72-19.27,3.67c-5,1.58-8.94,0.38-13.4-1.35c-18.79-7.28-37.69-14.26-56.53-21.4
		c-4.37-1.66-8.61-3.64-13.02-5.16c-1.23-0.42-2.84,0.27-4.28,0.45c-0.07,0.54-0.15,1.09-0.22,1.63c5.68,2.64,11.26,5.52,17.06,7.87
		c19.02,7.71,38.12,15.21,57.14,22.91c0.93,0.38,2,1.98,1.95,2.95c-0.84,16.17-1.99,32.32-2.75,48.49
		c-0.42,8.92-0.27,17.87-0.37,26.81C94.97,870.62,94.98,871.67,94.98,873.01z"/>
	<path class="st0" d="M100.14,876.65c-0.26-1.59-0.77-3.1-0.71-4.59c0.6-15.6,1.35-31.2,1.95-46.8c0.34-8.83,0.47-17.67,0.69-26.51
		c0.04-1.56,0.01-3.13,0.01-4.58c13.22-2.89,26.21-5.73,39.52-8.63c0,3.5,0.03,7-0.01,10.5c-0.18,16.9-0.32,33.8-0.62,50.7
		c-0.1,5.68-0.53,11.37-1.03,17.04c-0.08,0.92-1.21,2.27-2.11,2.52c-10.38,2.86-20.8,5.53-31.21,8.29
		C104.64,875.1,102.72,875.81,100.14,876.65z"/>
	<path class="st0" d="M41.43,851.59c7.65-1.79,12.48-6.49,13.2-14.27c1.12-12.04-7.7-23.77-22.36-22.6
		c-1.62,0.13-3.18,1.4-4.67,2.31c-0.43,0.27-0.82,1.28-0.64,1.72c0.24,0.59,1.01,1.3,1.61,1.36c1.95,0.19,3.94,0.31,5.88,0.1
		c8.83-0.94,18.73,9.97,13.07,21.52c-0.54,1.09-2.19,1.77-3.47,2.34c-1.6,0.71-3.45,0.88-4.98,1.69c-1.32,0.7-2.34,1.96-4.08,3.48
		c-3.22-1.66-7.81-3.03-10.92-5.97c-2.32-2.19-3.52-6.34-3.8-9.73c-0.31-3.88,0.43-8.06,1.7-11.77c0.89-2.58,3.06-5.13,5.33-6.74
		c6.7-4.76,14.4-7.48,22.36-9.35c4.9-1.15,10.47,1.1,13.01,5.51c3.74,6.52,6.7,13.48,5.65,21.19c-0.45,3.25-2.3,6.31-3.56,9.44
		c-0.54,1.36-1.16,2.7-1.79,4.03c-0.19,0.41-0.46,0.91-0.82,1.09c-4.29,2.11-8.47,4.58-12.97,6.06c-2.29,0.75-5.18-0.3-7.79-0.53
		C41.4,852.17,41.41,851.88,41.43,851.59z"/>
	<path class="st0" d="M56.12,756.49c-0.87-0.45-1.78-0.98-2.73-1.4c-0.87-0.39-1.78-0.68-3.15-1.19c1.53-8.04,2.92-16.14,4.66-24.16
		c0.76-3.53,2.89-4.69,6.5-4.08c9.87,1.65,19.6,4.02,28.69,8.23c5.73,2.66,11.1,6.13,16.6,9.28c1.63,0.93,1.82,2.16,1.49,4.18
		c-1.12,6.76-1.71,13.6-2.62,20.39c-0.11,0.85-0.75,2-1.46,2.34c-2.66,1.27-5.49,3.19-8.08-0.16c-0.46-0.59-0.95-1.39-0.93-2.08
		c0.09-5,0.41-10,0.4-15c0-0.92-1.01-2.33-1.88-2.67c-10.39-4.09-20.82-8.04-31.27-11.96c-2.54-0.95-3.61-0.13-3.96,2.5
		C57.69,745.91,56.9,751.1,56.12,756.49z"/>
	<path class="st0" d="M62.11,803.66c8.61-2.43,15.26,1.56,20.15,7.87c2.1,2.71,2.1,7.43,2.19,11.26
		c0.22,9.91-6.13,15.58-13.56,19.87C73.95,828.53,75.14,814.64,62.11,803.66z"/>
	<path class="st0" d="M62.57,744.64c3.3,0.88,2.54,3.18,2.5,4.89c-0.05,2.48,0.43,5.48-3.79,6.08
		C61.71,751.96,62.12,748.47,62.57,744.64z"/>
	<path d="M239.4,573.04c-14.62-0.53-29.27-0.63-43.85-1.73c-9.42-0.71-18.77-2.7-28.09-4.42c-29.38-5.39-55.14-19.18-79.84-35.14
		c-25.43-16.44-43.09-39.33-54.54-67.26c-6.45-15.75-11.54-31.85-13.88-48.74c-1.47-10.63-1.88-21.3-1.18-32.03
		c0.5-7.64,0.43-15.33,1.24-22.93c1.91-17.84,8.13-34.43,15.63-50.58c9.04-19.46,21.97-35.97,38.56-49.49
		c13.25-10.79,28.55-17.79,44.87-22.54c6.95-2.02,14.02-3.72,21.11-5.19c4.1-0.85,8.35-1.14,12.54-1.36
		c23.26-1.22,46.01,0.84,67.57,10.61c9.45,4.28,17.79,10.29,26.13,16.3c2.17,1.56,3.59,1.39,5.66,0.07
		c13.2-8.45,26.27-17.12,39.77-25.07c20.11-11.85,41.87-19.21,65.25-20.77c20.6-1.38,41.25-1.35,61.77,1.31
		c24.71,3.21,48.59,9.36,70.69,21.31c18.39,9.95,31.79,24.59,40.99,43.31c7.6,15.47,11.12,31.98,12.2,48.97
		c0.91,14.3,1.41,28.66,1.13,42.98c-0.33,17.21-4.69,33.68-11.38,49.56c-9.1,21.56-22.58,40.25-37.6,57.96
		c-9.81,11.57-20.59,22.18-32.37,31.7c-5.53,4.47-11.68,8.3-17.92,11.75c-13.09,7.23-26.22,14.48-39.75,20.83
		c-8.9,4.18-18.43,7.07-27.84,10.05c-10.52,3.33-21.1,6.67-31.88,9c-14.14,3.06-28.42,5.69-42.76,7.48
		c-14.87,1.85-29.88,2.61-44.84,3.59c-5.78,0.38-11.6,0.06-17.4,0.06C239.41,572.78,239.41,572.91,239.4,573.04z M537.12,357.24
		c0-5.3,0.18-10.61-0.04-15.91c-0.55-13.46-2.02-26.85-5.65-39.84c-5.41-19.33-14.38-36.74-30.05-49.84
		c-13.76-11.51-30.11-18.19-47.03-23.46c-15.77-4.91-31.99-7.58-48.44-9.18c-16.99-1.64-33.99-1.66-50.9-0.05
		c-19.51,1.86-38.16,7.6-55.18,17.33c-16.15,9.22-31.74,19.43-47.45,29.4c-2.95,1.87-5.28,2.2-7.88-0.17
		c-0.5-0.46-1.12-0.8-1.68-1.19c-8.37-5.82-16.49-12.04-25.93-16.11c-12.21-5.26-24.81-9.44-38.14-10.07
		c-11.52-0.54-23.25-1.03-34.62,0.48c-10.87,1.44-21.58,4.96-32.04,8.51c-16.01,5.44-30.49,13.72-42.78,25.62
		c-11.63,11.26-20.89,24.22-27.86,38.75c-9.61,20.03-16.63,40.86-17.4,63.35c-0.44,12.86-0.94,25.71,1.01,38.52
		c2.53,16.68,7.34,32.66,13.87,48.18c10.48,24.92,25.04,46.75,48.01,61.81c11.29,7.4,23.09,14.1,34.99,20.51
		c19.83,10.69,41.1,17.35,63.47,19.92c13.43,1.54,26.98,2.76,40.48,2.82c19.02,0.09,38.07-0.67,57.06-1.77
		c11.63-0.67,23.24-2.27,34.75-4.16c18.66-3.08,36.84-8.18,54.95-13.66c21.89-6.63,42.56-15.75,62.14-27.49
		c12.87-7.72,25.58-15.63,36.45-26.15c13.89-13.43,26.22-28.16,37.1-44.11C527.25,421.53,538.53,391.34,537.12,357.24z"/>
	<path d="M396.44,606.91c-0.01,3.27-1.77,4.3-4.54,3.44c-5.57-1.73-10.31-7.79-10.78-13.76c-0.1-1.26-0.52-2.56-0.31-3.76
		c0.19-1.1,1.04-2.09,1.59-3.13c0.86,0.53,2.02,0.87,2.51,1.64c1.64,2.53,2.88,5.33,4.59,7.81c1.29,1.86,3.08,3.38,4.62,5.07
		C395.05,605.25,395.93,606.32,396.44,606.91z"/>
	<path d="M404.29,588.77c0.65-2.22,0.97-4.61,2.04-6.61c1.23-2.3,3.14-2.06,3.91,0.4c0.92,2.97,1.53,6.04,2.13,9.1
		c0.37,1.9,0.6,3.85,0.66,5.79c0.03,1.06-0.41,2.14-0.64,3.2c-1.16-0.28-2.64-0.21-3.43-0.91
		C405.77,596.89,404.73,593.06,404.29,588.77z"/>
	<path d="M366.09,613.19c-0.18,1.41-0.91,2.71-2.61,1.55c-1.84-1.26-3.67-2.77-4.94-4.57c-1.44-2.04-2.49-4.44-3.28-6.83
		c-0.48-1.45-0.46-3.24-0.1-4.74c0.33-1.38,1.73-2.06,2.99-0.9C362.65,601.8,365.45,606.84,366.09,613.19z"/>
	<path d="M267.86,612.44c0-0.69-0.23-1.5,0.06-2.03c0.41-0.77,1.11-1.62,1.87-1.88c0.48-0.16,1.64,0.53,1.93,1.11
		c2.53,5.16,4.97,10.37,7.3,15.62c0.32,0.72-0.16,1.79-0.27,2.69c-0.82-0.31-1.73-0.49-2.43-0.98c-1.04-0.72-1.9-1.69-2.89-2.48
		C269.54,621.41,267.87,617.3,267.86,612.44z"/>
	<path d="M257.11,619.11c-0.22,2.34-0.2,3.94-0.59,5.42c-0.2,0.74-1.2,1.79-1.79,1.75c-0.79-0.04-2.08-0.91-2.19-1.58
		c-0.74-4.59-1.33-9.21-1.69-13.85c-0.06-0.77,1.24-1.65,1.91-2.48c0.78,0.69,1.99,1.25,2.25,2.1
		C255.93,613.53,256.54,616.69,257.11,619.11z"/>
	<path d="M239.68,610.99c-0.78,3.03-1.26,5.32-2.01,7.52c-0.21,0.61-1.27,1.36-1.86,1.3c-0.79-0.09-2.06-0.83-2.14-1.42
		c-0.5-3.76-0.98-7.56-0.94-11.34c0.02-1.85,1.83-2.81,3.35-1.26C237.62,607.35,238.63,609.43,239.68,610.99z"/>
	<path class="st0" d="M537.12,357.24c1.41,34.1-9.87,64.29-28.8,92.05c-10.88,15.95-23.2,30.68-37.1,44.11
		c-10.88,10.51-23.58,18.43-36.45,26.15c-19.58,11.74-40.25,20.86-62.14,27.49c-18.11,5.49-36.29,10.59-54.95,13.66
		c-11.5,1.9-23.12,3.49-34.75,4.16c-18.99,1.1-38.04,1.86-57.06,1.77c-13.5-0.06-27.05-1.28-40.48-2.82
		c-22.37-2.57-43.63-9.24-63.47-19.92c-11.9-6.41-23.7-13.1-34.99-20.51c-22.97-15.06-37.53-36.9-48.01-61.81
		c-6.53-15.52-11.34-31.51-13.87-48.18c-1.94-12.81-1.45-25.66-1.01-38.52c0.77-22.49,7.79-43.32,17.4-63.35
		c6.97-14.52,16.23-27.48,27.86-38.75c12.29-11.9,26.77-20.18,42.78-25.62c10.46-3.55,21.16-7.07,32.04-8.51
		c11.37-1.51,23.09-1.02,34.62-0.48c13.33,0.62,25.93,4.81,38.14,10.07c9.44,4.07,17.57,10.29,25.93,16.11
		c0.56,0.39,1.18,0.73,1.68,1.19c2.59,2.36,4.93,2.04,7.88,0.17c15.71-9.97,31.3-20.18,47.45-29.4
		c17.03-9.73,35.67-15.47,55.18-17.33c16.91-1.61,33.91-1.59,50.9,0.05c16.45,1.59,32.66,4.26,48.44,9.18
		c16.92,5.27,33.27,11.95,47.03,23.46c15.67,13.1,24.64,30.52,30.05,49.84c3.64,12.99,5.1,26.38,5.65,39.84
		C537.31,346.63,537.12,351.94,537.12,357.24z M450.3,381.85c7.68-0.37,12.88-0.59,18.07-0.92c0.8-0.05,2-0.39,2.29-0.97
		c1.36-2.69,2.91-5.41,3.59-8.31c2.16-9.2,2.06-18.48,0.05-27.74c-3.38-15.55-11.8-27.15-26.44-33.9c-6.8-3.14-14-4.15-21.43-4.43
		c-6.51-0.24-12.57,1.08-17.86,4.74c-13.96,9.65-21.54,23.11-22.57,40.03c-0.54,8.9,1.09,17.43,6.79,24.69
		c0.79,1.01,1.98,2.17,3.13,2.35c5.04,0.78,10.11,1.41,15.19,1.75c6.17,0.4,12.37,0.25,18.54,0.7
		C437.35,380.41,445.03,381.33,450.3,381.85z M91,437.97c3.48-0.53,7.04-0.74,10.42-1.66c10.49-2.84,21.14-5.42,30.03-12.18
		c6.39-4.86,12.48-10.3,14.87-18.16c4.04-13.35,0.45-25.46-8.87-35.36c-10.54-11.2-23.73-15.02-38.92-11.21
		c-6.77,1.7-13.11,4.21-18.1,9.19c-12.48,12.45-17.25,27.79-15.89,45.07C65.51,426.04,75.57,439.26,91,437.97z M285.81,392.74
		c-15.03-0.23-28.41,2.69-40.54,10.06c-7.48,4.54-14.92,9.13-18.92,17.77c-1.72,3.72-1.99,6.76-0.52,10.27
		c7.14,17.14,20.43,27.08,37.81,32.1c6.55,1.89,13.37,2.87,20.06,1.32c7.06-1.64,13.18-5.49,18.67-10.21
		c11.52-9.89,19.02-22.47,24.56-36.45c3.64-9.18-0.4-12.66-6.23-15.9C309.61,395.54,297.67,392.41,285.81,392.74z"/>
	<path d="M450.3,381.85c-5.27-0.52-12.95-1.44-20.66-2c-6.16-0.45-12.37-0.3-18.54-0.7c-5.08-0.33-10.16-0.96-15.19-1.75
		c-1.15-0.18-2.33-1.34-3.13-2.35c-5.71-7.26-7.33-15.79-6.79-24.69c1.02-16.92,8.6-30.38,22.57-40.03
		c5.29-3.66,11.35-4.98,17.86-4.74c7.43,0.27,14.63,1.29,21.43,4.43c14.64,6.75,23.06,18.34,26.44,33.9
		c2.01,9.26,2.11,18.54-0.05,27.74c-0.68,2.9-2.23,5.62-3.59,8.31c-0.29,0.57-1.48,0.92-2.29,0.97
		C463.17,381.26,457.98,381.48,450.3,381.85z M451.74,342.83c4.59,0.27,8.7-1.22,11.45-5.6c0.9-1.43,1.27-2.8,0.13-4.29
		c-2.36-3.1-4.67-6.24-7.02-9.34c-1.86-2.45-4.14-3.3-7.36-2.86c-5.59,0.77-9.85,3.95-10.99,9.45c-0.62,2.98-0.88,6.17,1.91,8.42
		C443.2,341.29,446.87,343.26,451.74,342.83z"/>
	<path d="M91,437.97c-15.42,1.29-25.49-11.94-26.47-24.3c-1.36-17.28,3.41-32.62,15.89-45.07c4.99-4.98,11.33-7.49,18.1-9.19
		c15.19-3.82,28.37,0.01,38.92,11.21c9.32,9.9,12.91,22.01,8.87,35.36c-2.38,7.86-8.48,13.3-14.87,18.16
		c-8.89,6.76-19.54,9.34-30.03,12.18C98.04,437.23,94.47,437.44,91,437.97z M124.16,380.23c-0.14-3.78-1.3-6.94-3.79-9.91
		c-1.5-1.79-2.58-2.2-4.62-1.47c-4.56,1.63-7.98,4.59-10.27,8.77c-2.07,3.79-1.49,7.56,0.73,11.14c2.39,3.84,6.2,3.87,9.93,3.28
		c3.8-0.6,6.26-3.11,7.17-6.91C123.69,383.53,123.88,381.87,124.16,380.23z"/>
	<path d="M285.81,392.74c11.86-0.33,23.8,2.81,34.9,8.96c5.84,3.23,9.87,6.72,6.23,15.9c-5.55,13.98-13.05,26.56-24.56,36.45
		c-5.49,4.72-11.61,8.57-18.67,10.21c-6.69,1.55-13.51,0.57-20.06-1.32c-17.38-5.02-30.67-14.96-37.81-32.1
		c-1.47-3.52-1.2-6.56,0.52-10.27c3.99-8.64,11.43-13.22,18.92-17.77C257.39,395.43,270.78,392.51,285.81,392.74z M283.8,398.36
		c-10.2-0.35-21.95,2.78-33.2,8.05c-7.54,3.53-14.4,8-19.45,14.78c-0.62,0.83-0.99,2.45-0.6,3.31c3.71,8.28,10.04,13.59,19.08,14.81
		c17.06,2.3,33.61,0.23,48.58-8.64c7.95-4.71,15.14-10.72,22.46-16.42c0.77-0.6,0.6-3.29-0.03-4.57c-0.68-1.37-2.34-2.33-3.72-3.25
		C307.58,400.24,297.08,398.45,283.8,398.36z M243.67,443.94c0.67,0.84,0.97,1.31,1.36,1.69c9.19,8.97,20.14,13.1,33.04,12.72
		c7.52-0.22,13.83-2.58,18.97-7.93c3.54-3.68,7-7.45,10.22-11.41c2.86-3.52,5.33-7.34,7.98-11.04c-0.16-0.21-0.32-0.42-0.48-0.63
		C293.75,443.79,270.33,449.92,243.67,443.94z"/>
	<path class="st0" d="M451.74,342.83c-4.87,0.43-8.54-1.54-11.88-4.23c-2.79-2.25-2.53-5.44-1.91-8.42
		c1.14-5.49,5.4-8.68,10.99-9.45c3.22-0.44,5.5,0.41,7.36,2.86c2.35,3.1,4.66,6.24,7.02,9.34c1.14,1.49,0.77,2.86-0.13,4.29
		C460.44,341.61,456.33,343.1,451.74,342.83z"/>
	<path class="st0" d="M124.16,380.23c-0.28,1.63-0.47,3.29-0.85,4.9c-0.91,3.81-3.37,6.31-7.17,6.91c-3.72,0.59-7.54,0.55-9.93-3.28
		c-2.23-3.58-2.81-7.35-0.73-11.14c2.29-4.18,5.71-7.14,10.27-8.77c2.03-0.73,3.12-0.31,4.62,1.47
		C122.86,373.3,124.02,376.45,124.16,380.23z"/>
	<path class="st0" d="M283.8,398.36c13.28,0.08,23.77,1.87,33.1,8.07c1.38,0.92,3.04,1.88,3.72,3.25c0.63,1.27,0.8,3.97,0.03,4.57
		c-7.32,5.7-14.51,11.71-22.46,16.42c-14.97,8.87-31.52,10.94-48.58,8.64c-9.03-1.22-15.36-6.53-19.08-14.81
		c-0.39-0.86-0.01-2.49,0.6-3.31c5.05-6.78,11.92-11.25,19.45-14.78C261.86,401.14,273.6,398.02,283.8,398.36z"/>
	<path class="st0" d="M243.67,443.94c26.66,5.99,50.08-0.15,71.09-16.59c0.16,0.21,0.32,0.42,0.48,0.63
		c-2.64,3.69-5.12,7.52-7.98,11.04c-3.22,3.96-6.68,7.73-10.22,11.41c-5.15,5.36-11.45,7.72-18.97,7.93
		c-12.91,0.37-23.85-3.75-33.04-12.72C244.64,445.25,244.34,444.78,243.67,443.94z"/>
</g>
</svg>
