<?xml version="1.0" encoding="utf-8"?>
<!-- Generator: Adobe Illustrator 26.0.0, SVG Export Plug-In . SVG Version: 6.00 Build 0)  -->
<svg version="1.1" id="Capa_1" xmlns="http://www.w3.org/2000/svg" xmlns:xlink="http://www.w3.org/1999/xlink" x="0px" y="0px"
	 viewBox="0 0 595.3 882.3" style="enable-background:new 0 0 595.3 882.3;" xml:space="preserve">
<style type="text/css">
	.st0{fill:#FFFFFF;}
</style>
<g>
	<path d="M0,348.5c0.4-1.4,1-2.7,1.1-4.1c0.2-2.4,0-4.9,0.1-7.4c0-1,0.1-2.4,0.7-3.1c3.4-3.3,3-7.7,3.9-11.7c4-19,9.6-37.4,17.8-55
		C33.8,245.2,47.9,226,65,208.7c12.3-12.5,25.7-23.7,39.7-34.1c16.5-12.2,33.8-23.1,52.3-32.2c13.1-6.4,26.6-11.9,40.7-16.2
		c-2.8-6.7-5.7-13.2-8.4-19.8c-3.6-8.8-7.1-17.6-10.6-26.4c-0.1-0.4-0.2-0.8-0.4-1.1c-2-3.5-1.7-4.3,2.4-4.8
		c11.4-1.3,22.8-2.4,34.2-3.6c7.2-0.8,14.4-1.7,21.1-2.6c1.2-18.7,9.8-33.1,22.4-45.4c7.8-7.6,16.1-14.4,26.7-17.8
		c18.7-6.1,37.6-6.9,55.9,0.5c20.5,8.4,37,22.1,48,41.6c3.1,5.5,4.7,11.4,3.2,17.8c7.5,0.6,14.7,1,21.9,1.8c7.5,0.8,15,1.8,22.5,2.8
		c1.4,0.2,2.7,0.3,4.1,0.4c4.5,0.3,6.5,3.6,4.9,7.8c-5.4,14.4-10.8,28.8-16.1,43.2c-0.5,1.4-1.1,2.9-1.3,3.7
		c8.8,4,17.6,7.4,25.9,11.7c9.9,5.1,19.9,10.3,29.1,16.6c8.9,6.1,17.2,13.4,25.1,20.8c13.4,12.7,26.3,25.9,37.6,40.6
		c14.2,18.5,25,38.8,32.2,61.1c4.5,14,9.3,28,11.4,42.5c1.6,10.7,2.2,21.5,3.4,32.2c0.6,5.3,1.6,10.5,2,15.7
		c1.1,13-0.6,25.8-3.9,38.5c-4.5,17.4-10.3,34.4-18.6,50.4c-12.6,24.4-27.3,47.3-46.7,66.8c-13.7,13.8-29.6,24.8-47.3,33
		c-8.7,4-17.8,7-26.8,10.5c-0.9,0.3-1.8,0.7-2.2,0.8c1.1,10.2-0.8,19.6-3.2,28.9c4.8,2.7,10,5.2,14.6,8.3
		c24.9,16.9,43.3,38.9,52.7,67.8c4.8,14.9,2.6,29-8,41c-6.1,7-14.5,10.1-23.2,12.6c-2.5,0.7-5.1,1.2-7,1.6c-2.4,13.2-4.4,26.1-7,39
		c-3.8,18.5-10.4,35.7-23.4,50c-0.4,0.4-0.6,1-0.8,1.3c9.7,3.7,19.3,7.1,28.8,10.9c9.1,3.7,17.6,8.6,25.4,14.8
		c5.8,4.6,6,11.6,0.2,15.7c-2.1,1.5-5.1,2.1-7.7,2.4c-2.7,0.3-5.5-0.1-8.2-0.3c-1.5-0.1-2.5-0.2-3.2,1.6
		c-5.2,13.1-17.4,17.4-30,10.8c-1.5-0.8-2.9-1.6-4.6-2.5c-1.3,1.8-2.6,3.7-3.9,5.5c-3.4,4.4-7.6,6.9-13.5,6.8
		c-8.6-0.1-16.4-2.5-24-6.1c-13.8-6.4-27.4-13.3-39.1-23.2c-4.3-3.6-8.3-2.1-12.4-1.8c-15.5,1.2-31.1,2.5-46.5,0.7
		c-8.5-1-14,1.5-20,6.8c-9.9,8.7-22.2,13.1-34.8,16.5c-6.1,1.6-12.3,2.8-18.6,1.9c-4.6-0.7-8.6-2.7-12-5.8c-1.3-1.1-2.2-1.5-3.9-0.8
		c-9.4,4.2-17.8,2.5-25.3-4.4c-3.4-3.1-4.5-7.1-3.9-11.5c0.3-2-0.3-3.1-1.7-4.2c-0.8-0.6-1.4-1.3-2.1-2.1c-4.8-6-4.5-10.6,1.4-15.4
		c8.6-7,18.7-10,29.6-10.8c4.2-0.3,8.3-1.1,12.6-1.8c-0.1-0.3-0.3-0.8-0.6-1.2c-10.3-12.1-15.7-26.4-18-41.8
		c-1.6-10.9-2.5-21.8-3.3-32.8c-0.6-9.6-0.6-19.2-0.8-28.9c-0.1-5.3,0-10.5,0-16.1c-3.2,2.1-5.2,4.9-6.1,8.3
		c-2.7,10.1-4.2,20.4-4.4,30.8c-0.1,6.4-1.3,12.5-4.6,18c-2,3.4-5.1,4.9-8.9,5.3c-6.4,0.8-11.1-1.6-15.3-6.3
		c-8.9-10.1-13.8-21.7-14.8-35.1c-1.4-19,1.5-37.4,9.1-54.9c6.9-16,18.3-28.2,32.4-38c3.8-2.6,7.9-4.7,11.8-7.1
		c0.8-0.5,1.7-1.4,1.7-2.2c0.1-6.2,0.1-12.4,0.1-18.6c-6.3-1-12.5-2-18.7-2.9c-23.7-3.7-46.4-10.4-67.6-21.7
		c-38.1-20.2-67.2-49.6-88.2-87.1C16.6,462.2,7.1,435.3,4,406.1c-1.8-17-3.1-34-2.9-51.2c0-2-0.7-3.9-1.1-5.9
		C0,348.9,0,348.7,0,348.5z"/>
	<path d="M7,356.8c0.2,0,0.4,0,0.6,0c0,7.4-0.5,14.8,0.1,22.1c1.1,13.2,2.5,26.4,4.4,39.5c2.6,17.3,8.7,33.6,16,49.6
		c14.7,32.2,35.4,59.8,63.5,81.6c15.9,12.3,33.2,22.1,52.1,29.2c15.6,5.9,31.8,9.7,48.2,12.3c6.5,1,13,2.8,19.5,2.5
		c13.4-0.6,26.8-2.1,40.1-3.8c17.5-2.1,35-4.9,52.5-7.1c22.3-2.9,44.6-5.4,66.9-8.3c14.4-1.9,28.8-4,43.1-6.4
		c3.8-0.6,7.5-2.4,11.2-3.5c7.5-2.1,15.2-2.6,22.6-5.1c13.4-4.5,26.4-9.7,38.8-16.6c12.6-7.1,24.5-15.4,34.6-25.8
		c18.8-19.1,33-41.6,45.3-65.3c8.3-16,14.1-32.9,18.6-50.3c2.7-10.7,4.8-21.5,4-32.6c-0.4-5.5-1.5-10.9-2.1-16.3
		c-1.2-10.7-1.8-21.5-3.4-32.2c-2.2-14.5-6.8-28.3-11.4-42.2c-5.8-17.6-13.6-34.2-23.9-49.6c-12.3-18.4-27.5-34.3-43.3-49.7
		c-9.9-9.7-20.4-18.9-32.6-25.6c-12.2-6.7-24.7-12.7-37.2-18.9c-3.2-1.6-7.2-1.8-10.1-3.7c-3.7-2.4-7.1-0.2-10.6-0.6
		c-6.3-0.8-12.7-0.8-19.1-1.1c-16.3-0.7-32.5-1.7-48.8-2.1c-14.7-0.3-29.5,0.1-44.2,0.3c-19.4,0.3-38.7,0.8-58,1.2
		c-4,0.1-8.1,0.3-12.1,0.3c-8.8,0-17.7-0.1-26.5-0.1c-1,0-2,0.6-2.9,1.1c-1.6,0.9-2.9,2.3-4.5,3c-12.8,5.3-26.1,9.8-38.6,15.8
		c-26.7,12.8-50.9,29.7-73.5,48.9c-23.8,20.3-43.5,43.8-56.8,72.4c-8.3,17.8-14,36.3-18,55.5c-0.8,4-0.4,8.5-3.8,11.8
		c-0.7,0.7-0.7,2.4-0.7,3.6C7,346,7,351.4,7,356.8z"/>
	<path d="M318.7,618.3c-0.5,1.3-0.8,2-1.1,2.7c-3.6,10.1-7.2,20.1-10.7,30.2c-0.6,1.8-1.4,2.5-3.4,2c-5-1.1-10.1-1.6-14.9-3.1
		c-16.6-5.1-33.2-10.4-49.8-15.7c-2.8-0.9-5.6-1.9-8.9-3.1c0,5.6,0.6,10.7-0.1,15.7c-2.3,17.1-9,32.4-19.8,45.9
		c-0.6,0.8-0.9,2.3-0.8,3.3c0.6,4.7,1.8,9.3,1.9,13.9c0.3,10.3,0,20.6,0.1,30.9c0.2,16.6,2.3,32.9,7.1,48.8
		c3.6,12,9.4,22.7,19.5,30.5c18.8,14.7,40.5,22.5,64,24.1c22.9,1.6,45.8,0.7,68.5-2.3c2.4-0.3,5-0.7,7-1.8c15.3-8.6,29.1-19.1,42-31
		c13-12.1,19-27.4,20.7-44.6c1.2-13-0.3-25.9-2.8-38.6c-0.4-2.1-1.2-3.2-3.4-3.7c-8.3-1.9-15.4-6-20.6-12.7c-1.5-2-2.6-4.7-2.8-7.2
		c-0.6-7.8,3.1-13.7,8.9-18.6c7.1-5.9,14-12.1,20.9-18.2c2.8-2.5,3.2-4.1,1.2-7.5c-4.6-7.8-9.4-15.4-14-23.1
		c-4.7-8-10.1-15.6-11.5-25.3c-1.1,0.4-1.8,0.6-2.5,0.9c-11.2,5.5-22.6,10.5-33.5,16.5c-11.1,6.2-21.8,13.2-32.5,20.1
		c-2.8,1.8-5,2.1-7.5,0.2c-1.4-1-2.7-2.3-3.7-3.8C330.5,635.6,324.8,627.2,318.7,618.3z"/>
	<path d="M421.8,606.6c0.9,8.8,5.3,15.5,9.3,22.3c5.3,9,10.9,17.9,16.2,26.9c2.4,4.1,1.3,10.8-2.2,13.9c-7.3,6.6-14.8,12.9-22,19.5
		c-1.9,1.7-3.7,3.8-4.9,6.1c-3.2,6.1-2.2,9.9,3.2,14c4.6,3.5,9.7,5.9,15.3,7.3c3.4,0.8,5.5,3,6.3,6.6c2.9,13.6,3.7,27.5,3.1,41.3
		c-0.7,14.9-4.6,29.1-14.4,40.5c-6.9,8.1-15.3,14.9-23.3,22.1c-3.9,3.5-8.2,6.3-12.4,9.5c12.8-3.3,24.5-8.8,34.8-17.1
		c2.1-1.7,4.6-2.9,7.1-4.4c0.7-1.3,1.6-3.1,2.6-4.7c3.8-5.8,8.1-11.3,11.5-17.4c5.6-9.9,8.6-20.8,10.8-31.9
		c2.3-12.1,3.8-24.4,6-36.5c0.3-1.8,2.5-4,4.3-4.7c5.7-2.2,11.8-3.5,17.5-5.7c12.9-5,21.7-21,18.7-34.5c-4.5-20.2-15-37.3-28.9-52.5
		c-10.9-11.8-24.1-20.6-38.4-27.8c-0.4-0.2-1.1-0.2-1.6-0.1C434.3,601.8,428.1,604.2,421.8,606.6z"/>
	<path d="M444.1,566.8c-1.9,0.4-2.8,0.6-3.8,0.9c-6,1.8-12.1,3.1-18.2,4.8c-19.5,5.3-39.8,6.6-59.9,9c-26.8,3.2-53.5,6.9-80.3,10.4
		c-19.2,2.5-38.4,4.9-57.6,7.2c-4.8,0.6-9.7,0.5-14.4,0.7c0.4,5.1,0.7,10,1.3,14.8c0.1,0.9,1,2.1,1.8,2.4c6.7,2.7,13.5,5.3,20.3,7.7
		c14.7,5.1,29.4,10.2,44.2,14.9c6.7,2.2,13.6,3.7,20.4,5.3c4.1,1,4,0.7,5.3-3.2c3.6-10.9,7.3-21.7,11.1-32.5c1-2.7,3.4-3.4,5.4-1.4
		c2,2.1,4,4.3,5.5,6.8c3.7,5.7,7,11.6,10.7,17.2c2.2,3.4,4.9,6.5,7.4,9.7c20.5-14,41.5-25.8,63.6-35.5c10-4.4,20.3-8.3,30.4-12.5
		c1-0.4,2.3-1.2,2.5-2C441.5,583.6,442.7,575.6,444.1,566.8z"/>
	<path d="M437.9,75.7c-5.9-0.5-10.9-1.1-16-1.4c-13.4-1.1-26.8-2.2-40.2-3.1c-14.6-0.9-29.2-2-43.8-2.1c-18.5-0.2-36.9,0.3-55.4,0.9
		c-13.1,0.5-26.4,0.8-39.3,2.8c-16.7,2.6-33.4,4.2-50.2,6c-3.6,0.4-7.3,0.5-11,0.7c4.1,8,8.1,15.8,12,23.3c2.3-0.5,4.4-1.3,6.6-1.5
		c7.7-0.7,15.4-1,23.2-1.6c9.9-0.8,19.7-2,29.6-2.5c12.5-0.6,24.9-0.9,37.4-1c20.1-0.1,40.3-0.3,60.4,0.5c22.5,0.9,45,2.9,67.6,4.5
		c3.5,0.2,7,0.5,10.7,0.8C432.2,93.1,435,84.4,437.9,75.7z"/>
	<path d="M388.2,64.4c-0.5-1.3-0.9-2.1-1.2-2.9c-1.8-4.7-2.8-9.9-5.4-14.1c-9.5-15.4-23.1-26.6-39.3-34.5
		c-11.2-5.5-23.4-6.7-35.9-6.2c-10.5,0.5-20.4,3.1-29.2,8.8c-13.5,8.8-23.2,20.9-30.8,35c-2.7,5.1-4.6,10.3-4.9,16.3
		C290.4,61.8,339.1,61,388.2,64.4z"/>
	<path d="M223.9,628.3c-4-1.6-8-3.2-12.1-4.7c-0.7-0.3-1.8,0-2.6,0.3c-1.5,0.8-2.9,2-4.4,2.8c-15.3,8.3-28.2,19.2-36.5,34.8
		c-8.5,16-12.6,33.1-12.6,51.1c0,11.8,2.9,22.9,9.7,32.8c2.5,3.7,5,7.6,9.4,9.5c3.8,1.7,8,0.4,9.5-3.5c1.5-3.8,2.7-7.8,3.3-11.8
		c1.4-10.1,2.4-20.2,3.6-30.3c0.6-5.1,2.8-9.5,6.6-13.1c2.1-2,4.5-3.6,6.4-6.1C217.9,671.8,226,651.9,223.9,628.3z"/>
	<path d="M195.9,107.9c1.9,4.4,3.6,8.7,5.5,12.8c0.2,0.4,0.9,0.8,1.4,0.9c3.9,0.5,7.8,1.4,11.6,1.4c12.7-0.1,25.3-0.6,38-0.9
		c17.8-0.4,35.5-1.1,53.3-1.1c21.7-0.1,43.4,0.3,65.1,0.6c6.2,0.1,12.4,0.4,18.5,0.8c9.2,0.5,18.4,1.2,27.6,1.6
		c1.4,0.1,3.6-0.9,4.1-2.1c2.1-4.2,3.8-8.8,5.7-13.5C349.7,101.5,272.9,100.1,195.9,107.9z"/>
	<path d="M369,849.4c2.3,1.3,4.6,2.4,6.7,3.8c2.9,2,5.5,4.5,8.5,6.3c11.6,6.7,24,11.5,36.8,15.2c2.5,0.7,5.2,0.8,7.8,0.6
		c4.4-0.4,8.9-4.9,9.2-8.7c0.4-4.9,2.7-6.4,7.2-4.5c2.6,1.1,5,2.6,7.5,4c5.4,3,10.4,2.6,15-1.1c3.5-2.8,5.6-6.4,6.5-10.8
		c0.2-0.9,1.3-2.2,1.9-2.2c3.1,0,6.3,0.1,9.3,0.8c3.9,0.9,7.3,0.9,10.5-2.3c-3.5-5-8.1-8.8-13.3-11.7c-13.5-7.5-27.8-12.9-42.9-16.2
		c-1.1-0.2-2.7,0.3-3.6,1.1c-14.6,12.4-31.9,18.9-50.3,23C380.5,847.7,374.8,848.4,369,849.4z"/>
	<path d="M285.8,850.4c-0.1-0.3-0.3-0.6-0.4-0.8c-4.1-1-8.2-1.9-12.2-3.2c-13.9-4.3-27.4-9.3-38.6-19.2c-0.8-0.7-2.4-1.1-3.5-1
		c-8.6,1-17.2,1.8-25.6,3.4c-6.3,1.2-12.2,3.6-17.3,7.7c-2.7,2.2-2.5,5.2,0.3,7c5.6,3.5,6.3,5.1,4.9,11.7c-0.6,2.8,0.2,4.8,2.5,6.6
		c5.2,4,10.5,4.2,16.6,1.8c2.9-1.2,6.3-1.2,9.5-1.2c0.9,0,1.7,2,2.6,3c0.2,0.3,0.6,0.5,0.9,0.7c5.6,4.1,11.9,5.5,18.4,3.3
		c9.2-3.2,18.4-6.7,27.3-10.7C276.4,857.1,281,853.5,285.8,850.4z"/>
	<path d="M110.9,766.6c9.1,3.5,17.9,6.9,26.8,10.3c3.9,1.5,6,3.5,7.2,8.1c2.8,10.2,1.8,20.2,1.4,30.4c-0.6,14.5-0.4,29-0.6,43.6
		c-0.1,4.2-0.5,8.4-1,12.5c-0.1,0.9-1,1.8-1.6,2.7c-0.8-0.6-1.6-1.2-3-2.2c-10.4,3.2-21.4,6.7-32.5,9.8c-4.1,1.1-7.9,1-12.3-1.3
		c-11.4-6-23.4-10.7-35.2-15.9c-1.4-0.6-2.9-1.1-4.3-1.8c-4.7-2.3-9.6-3.2-15-3.2c-8-0.1-14.3-4.4-20.1-9.8c-5-4.7-7.1-10.4-7.6-17
		c0-0.1,0-0.2,0-0.3c-4.2-9.8-0.4-19.8-0.1-29.6c0.5-12.8,4.1-25.4,3.3-38.4c0-0.9,0-1.8-0.1-2.7c-0.6-6.4-0.8-6.7,5.2-8.9
		c5.4-2,11-3.4,16.6-4.7c7.2-1.6,7.1-1.5,8.8-8.8c1.1-4.9,2.5-9.7,3.8-14.5c1-3.6,3.2-5.5,6.9-5.1c7,0.9,14,1.8,20.8,3.5
		c10.1,2.4,19.7,6.1,28,12.5c1.9,1.5,3.8,3.2,5.6,4.8c1.7,1.6,2.4,3.5,2,5.8c-0.9,5.9-1.8,11.8-2.6,17.8
		C111.1,764.9,111,765.7,110.9,766.6z"/>
	<path d="M95,873c0-1.3,0-2.4,0-3.4c0.1-8.9-0.1-17.9,0.4-26.8c0.8-16.2,1.9-32.3,2.8-48.5c0.1-1-1-2.6-1.9-3
		c-19-7.7-38.1-15.2-57.1-22.9c-5.8-2.3-11.4-5.2-17.1-7.9c0.1-0.5,0.1-1.1,0.2-1.6c1.4-0.2,3-0.9,4.3-0.5c4.4,1.5,8.7,3.5,13,5.2
		c18.8,7.1,37.7,14.1,56.5,21.4c4.5,1.7,8.4,2.9,13.4,1.3c6.2-2,12.8-2.5,19.3-3.7c1.1-0.2,2.3-0.5,3.6-0.9
		c-0.4-0.5-0.4-0.6-0.5-0.7c-6.1-2.9-12.2-5.7-18.3-8.7c-1.8-0.9-3-0.7-4.7,0.4c-8.5,5.4-9.9,5.7-18-0.6c-0.2-0.1-0.4-0.2-0.4-0.4
		c-0.6-1.5-1.7-2.9-1.7-4.4c0.1-3.7,0.5-7.4,1-11.1c0.2-1.7-0.2-2.4-1.9-2.9c-4.7-1.4-9.3-3.1-13.9-4.6c-0.8-0.2-1.6-0.3-2.6-0.5
		c-0.2,1.5-0.4,2.7-0.4,3.9c-0.2,3.7-0.3,7.5-5.5,7.7c-0.4,0-0.9,0.5-1.2,0.8c-2,2.5-4.7,2.2-7.3,1.6c-2.3-0.5-4.6-1.6-5.8-2
		c-2,0.6-3.5,1.5-4.4,1.1c-0.8-0.3-1.5-2-1.6-3.2c-0.2-2.3-0.1-4.6-0.1-6.7c-5.2,1.5-10.1,2.8-14.9,4.2c-2.1,0.6-4.2,1.1-6.2,1.9
		c-0.8,0.3-1.7,1.5-1.8,2.4c-1.2,14.2-2.4,28.4-3.5,42.5c-0.4,5.1-0.5,10.2-0.8,15.4c1.5-1.3,2.1-2.8,3.2-4c1-1.3,2.3-2.5,3.7-3.3
		c12.6-7.7,26.3-12.5,41.1-14.1c9.8-1,22.9,5.6,24.1,18c0.5,4.5,0.7,9.3-0.2,13.7c-1.9,9.6-6.9,16.9-16.7,20.2
		c-4.2,1.4-8.1,3.4-12.2,5.2c-1.7,0.8-3.3,1.8-4.8,2.6C69,862,81.8,867.4,95,873z"/>
	<path d="M100.1,876.7c2.6-0.8,4.5-1.5,6.5-2.1c10.4-2.8,20.8-5.4,31.2-8.3c0.9-0.2,2-1.6,2.1-2.5c0.5-5.7,0.9-11.3,1-17
		c0.3-16.9,0.4-33.8,0.6-50.7c0-3.5,0-7,0-10.5c-13.3,2.9-26.3,5.8-39.5,8.6c0,1.5,0,3,0,4.6c-0.2,8.8-0.3,17.7-0.7,26.5
		c-0.6,15.6-1.3,31.2-1.9,46.8C99.4,873.5,99.9,875.1,100.1,876.7z"/>
	<path d="M41.4,851.6c0,0.3,0,0.6,0,0.9c2.6,0.2,5.5,1.3,7.8,0.5c4.5-1.5,8.7-4,13-6.1c0.4-0.2,0.6-0.7,0.8-1.1
		c0.6-1.3,1.2-2.7,1.8-4c1.2-3.1,3.1-6.2,3.6-9.4c1.1-7.7-1.9-14.7-5.7-21.2c-2.5-4.4-8.1-6.7-13-5.5c-8,1.9-15.7,4.6-22.4,9.3
		c-2.3,1.6-4.4,4.2-5.3,6.7c-1.3,3.7-2,7.9-1.7,11.8c0.3,3.4,1.5,7.5,3.8,9.7c3.1,2.9,7.7,4.3,10.9,6c1.7-1.5,2.8-2.8,4.1-3.5
		c1.5-0.8,3.4-1,5-1.7c1.3-0.6,2.9-1.2,3.5-2.3c5.7-11.5-4.2-22.5-13.1-21.5c-1.9,0.2-3.9,0.1-5.9-0.1c-0.6-0.1-1.4-0.8-1.6-1.4
		c-0.2-0.4,0.2-1.5,0.6-1.7c1.5-0.9,3-2.2,4.7-2.3c14.7-1.2,23.5,10.6,22.4,22.6C53.9,845.1,49.1,849.8,41.4,851.6z"/>
	<path d="M56.1,756.5c0.8-5.4,1.6-10.6,2.3-15.8c0.3-2.6,1.4-3.5,4-2.5c10.4,3.9,20.9,7.9,31.3,12c0.9,0.3,1.9,1.8,1.9,2.7
		c0,5-0.3,10-0.4,15c0,0.7,0.5,1.5,0.9,2.1c2.6,3.3,5.4,1.4,8.1,0.2c0.7-0.3,1.3-1.5,1.5-2.3c0.9-6.8,1.5-13.6,2.6-20.4
		c0.3-2,0.2-3.2-1.5-4.2c-5.5-3.2-10.9-6.6-16.6-9.3c-9.1-4.2-18.8-6.6-28.7-8.2c-3.6-0.6-5.7,0.5-6.5,4.1c-1.7,8-3.1,16.1-4.7,24.2
		c1.4,0.5,2.3,0.8,3.2,1.2C54.3,755.5,55.2,756,56.1,756.5z"/>
	<path d="M62.1,803.7c13,11,11.8,24.9,8.8,39c7.4-4.3,13.8-10,13.6-19.9c-0.1-3.8-0.1-8.5-2.2-11.3
		C77.4,805.2,70.7,801.2,62.1,803.7z"/>
	<path d="M62.6,744.6c-0.5,3.8-0.9,7.3-1.3,11c4.2-0.6,3.7-3.6,3.8-6.1C65.1,747.8,65.9,745.5,62.6,744.6z"/>
	<path class="st0" d="M7,356.8c0-5.4,0-10.8,0-16.2c0-1.2,0-2.9,0.7-3.6c3.4-3.3,3-7.8,3.8-11.8c4-19.1,9.7-37.7,18-55.5
		c13.3-28.6,32.9-52.1,56.8-72.4c22.6-19.2,46.8-36.1,73.5-48.9c12.5-6,25.7-10.5,38.6-15.8c1.6-0.7,3-2.1,4.5-3
		c0.9-0.5,1.9-1.1,2.9-1.1c8.8,0,17.7,0.1,26.5,0.1c4,0,8.1-0.2,12.1-0.3c19.3-0.4,38.7-0.9,58-1.2c14.7-0.2,29.5-0.6,44.2-0.3
		c16.3,0.3,32.5,1.3,48.8,2.1c6.4,0.3,12.8,0.3,19.1,1.1c3.5,0.4,6.9-1.8,10.6,0.6c2.9,1.9,6.9,2.1,10.1,3.7
		c12.5,6.1,25.1,12.1,37.2,18.9c12.2,6.7,22.6,15.9,32.6,25.6c15.7,15.4,30.9,31.3,43.3,49.7c10.3,15.4,18.1,32,23.9,49.6
		c4.5,13.9,9.2,27.8,11.4,42.2c1.6,10.7,2.2,21.5,3.4,32.2c0.6,5.5,1.7,10.9,2.1,16.3c0.8,11.1-1.2,21.9-4,32.6
		c-4.4,17.4-10.3,34.3-18.6,50.3c-12.3,23.7-26.5,46.1-45.3,65.3c-10.1,10.3-22,18.6-34.6,25.8c-12.3,7-25.4,12.1-38.8,16.6
		c-7.4,2.5-15.2,3-22.6,5.1c-3.8,1.1-7.4,2.8-11.2,3.5c-14.3,2.3-28.7,4.5-43.1,6.4c-22.3,2.9-44.6,5.4-66.9,8.3
		c-17.5,2.3-35,5-52.5,7.1c-13.3,1.6-26.7,3.2-40.1,3.8c-6.4,0.3-13-1.5-19.5-2.5c-16.5-2.6-32.6-6.5-48.2-12.3
		c-18.8-7.1-36.2-16.8-52.1-29.2c-28.1-21.8-48.8-49.4-63.5-81.6c-7.2-15.9-13.4-32.2-16-49.6c-2-13.1-3.4-26.3-4.4-39.5
		c-0.6-7.3-0.1-14.7-0.1-22.1C7.4,356.8,7.2,356.8,7,356.8z M239.4,573c0-0.1,0-0.3,0-0.4c5.8,0,11.6,0.3,17.4-0.1
		c15-1,30-1.7,44.8-3.6c14.4-1.8,28.6-4.4,42.8-7.5c10.8-2.3,21.4-5.7,31.9-9c9.4-3,18.9-5.9,27.8-10c13.5-6.3,26.6-13.6,39.8-20.8
		c6.2-3.5,12.4-7.3,17.9-11.8c11.8-9.5,22.6-20.1,32.4-31.7c15-17.7,28.5-36.4,37.6-58c6.7-15.9,11-32.4,11.4-49.6
		c0.3-14.3-0.2-28.7-1.1-43c-1.1-17-4.6-33.5-12.2-49c-9.2-18.7-22.6-33.4-41-43.3c-22.1-11.9-46-18.1-70.7-21.3
		c-20.5-2.7-41.2-2.7-61.8-1.3c-23.4,1.6-45.1,8.9-65.2,20.8c-13.5,7.9-26.6,16.6-39.8,25.1c-2.1,1.3-3.5,1.5-5.7-0.1
		c-8.3-6-16.7-12-26.1-16.3c-21.6-9.8-44.3-11.8-67.6-10.6c-4.2,0.2-8.4,0.5-12.5,1.4c-7.1,1.5-14.2,3.2-21.1,5.2
		c-16.3,4.8-31.6,11.7-44.9,22.5c-16.6,13.5-29.5,30-38.6,49.5c-7.5,16.1-13.7,32.7-15.6,50.6c-0.8,7.6-0.7,15.3-1.2,22.9
		c-0.7,10.7-0.3,21.4,1.2,32c2.3,16.9,7.4,33,13.9,48.7c11.4,27.9,29.1,50.8,54.5,67.3c24.7,16,50.5,29.8,79.8,35.1
		c9.3,1.7,18.7,3.7,28.1,4.4C210.1,572.4,224.8,572.5,239.4,573z"/>
	<path class="st0" d="M318.7,618.3c6.1,8.9,11.9,17.3,17.7,25.7c1,1.4,2.3,2.7,3.7,3.8c2.5,1.9,4.7,1.6,7.5-0.2
		c10.7-6.9,21.4-13.9,32.5-20.1c10.9-6,22.3-11.1,33.5-16.5c0.7-0.3,1.4-0.5,2.5-0.9c1.3,9.7,6.8,17.3,11.5,25.3
		c4.6,7.8,9.4,15.4,14,23.1c2,3.3,1.6,5-1.2,7.5c-6.9,6.1-13.8,12.2-20.9,18.2c-5.8,4.9-9.5,10.8-8.9,18.6c0.2,2.5,1.2,5.2,2.8,7.2
		c5.2,6.8,12.4,10.8,20.6,12.7c2.2,0.5,3,1.6,3.4,3.7c2.5,12.8,4,25.7,2.8,38.6c-1.6,17.2-7.6,32.5-20.7,44.6
		c-12.9,12-26.8,22.4-42,31c-2,1.2-4.6,1.5-7,1.8c-22.8,2.9-45.7,3.9-68.5,2.3c-23.5-1.6-45.2-9.5-64-24.1
		c-10.1-7.8-15.9-18.5-19.5-30.5c-4.8-15.9-6.9-32.2-7.1-48.8c-0.1-10.3,0.2-20.6-0.1-30.9c-0.1-4.7-1.4-9.3-1.9-13.9
		c-0.1-1.1,0.1-2.5,0.8-3.3c10.7-13.5,17.5-28.8,19.8-45.9c0.7-5,0.1-10.2,0.1-15.7c3.3,1.1,6.1,2.2,8.9,3.1
		c16.6,5.3,33.1,10.6,49.8,15.7c4.8,1.5,10,2,14.9,3.1c2,0.5,2.8-0.2,3.4-2c3.5-10.1,7.1-20.1,10.7-30.2
		C317.9,620.2,318.2,619.5,318.7,618.3z"/>
	<path class="st0" d="M421.8,606.6c6.2-2.4,12.4-4.8,18.6-7.1c0.5-0.2,1.2-0.2,1.6,0.1c14.3,7.2,27.5,15.9,38.4,27.8
		c13.9,15.1,24.4,32.2,28.9,52.5c3,13.5-5.9,29.5-18.7,34.5c-5.7,2.2-11.8,3.5-17.5,5.7c-1.8,0.7-4,2.9-4.3,4.7
		c-2.2,12.1-3.6,24.4-6,36.5c-2.1,11-5.2,22-10.8,31.9c-3.4,6-7.7,11.6-11.5,17.4c-1.1,1.6-1.9,3.4-2.6,4.7c-2.5,1.5-5,2.7-7.1,4.4
		c-10.3,8.3-22,13.7-34.8,17.1c4.1-3.1,8.5-6,12.4-9.5c8-7.1,16.3-14,23.3-22.1c9.9-11.4,13.8-25.6,14.4-40.5
		c0.6-13.9-0.1-27.7-3.1-41.3c-0.8-3.5-2.9-5.7-6.3-6.6c-5.6-1.4-10.7-3.8-15.3-7.3c-5.4-4.2-6.4-8-3.2-14c1.2-2.3,3-4.4,4.9-6.1
		c7.3-6.6,14.7-13,22-19.5c3.5-3.2,4.6-9.8,2.2-13.9c-5.3-9-10.9-17.9-16.2-26.9C427.1,622.1,422.7,615.4,421.8,606.6z"/>
	<path class="st0" d="M444.1,566.8c-1.4,8.7-2.7,16.8-4.1,24.7c-0.1,0.8-1.5,1.7-2.5,2c-10.1,4.2-20.4,8.1-30.4,12.5
		c-22.1,9.7-43.1,21.5-63.6,35.5c-2.5-3.2-5.1-6.3-7.4-9.7c-3.7-5.7-7-11.6-10.7-17.2c-1.6-2.4-3.5-4.7-5.5-6.8
		c-2-2-4.5-1.4-5.4,1.4c-3.8,10.8-7.5,21.7-11.1,32.5c-1.3,3.9-1.2,4.2-5.3,3.2c-6.9-1.6-13.7-3.2-20.4-5.3
		c-14.8-4.8-29.5-9.8-44.2-14.9c-6.8-2.4-13.6-5-20.3-7.7c-0.8-0.3-1.7-1.5-1.8-2.4c-0.6-4.9-0.9-9.8-1.3-14.8
		c4.7-0.2,9.6-0.2,14.4-0.7c19.2-2.3,38.4-4.8,57.6-7.2c26.8-3.5,53.5-7.2,80.3-10.4c20.1-2.4,40.4-3.7,59.9-9
		c6-1.7,12.2-3,18.2-4.8C441.3,567.4,442.3,567.3,444.1,566.8z M396.4,606.9c-0.5-0.6-1.4-1.7-2.3-2.7c-1.5-1.7-3.3-3.2-4.6-5.1
		c-1.7-2.5-3-5.3-4.6-7.8c-0.5-0.8-1.7-1.1-2.5-1.6c-0.6,1-1.4,2-1.6,3.1c-0.2,1.2,0.2,2.5,0.3,3.8c0.5,6,5.2,12,10.8,13.8
		C394.7,611.2,396.4,610.2,396.4,606.9z M404.3,588.8c0.5,4.3,1.5,8.1,4.7,11c0.8,0.7,2.3,0.6,3.4,0.9c0.2-1.1,0.7-2.1,0.6-3.2
		c-0.1-1.9-0.3-3.9-0.7-5.8c-0.6-3.1-1.2-6.1-2.1-9.1c-0.8-2.5-2.7-2.7-3.9-0.4C405.3,584.2,404.9,586.5,404.3,588.8z M366.1,613.2
		c-0.6-6.3-3.5-11.4-7.9-15.5c-1.3-1.2-2.7-0.5-3,0.9c-0.4,1.5-0.4,3.3,0.1,4.7c0.8,2.4,1.8,4.8,3.3,6.8c1.3,1.8,3.1,3.3,4.9,4.6
		C365.2,615.9,365.9,614.6,366.1,613.2z M267.9,612.4c0,4.9,1.7,9,5.6,12.1c1,0.8,1.9,1.8,2.9,2.5c0.7,0.5,1.6,0.7,2.4,1
		c0.1-0.9,0.6-2,0.3-2.7c-2.3-5.3-4.8-10.5-7.3-15.6c-0.3-0.6-1.5-1.3-1.9-1.1c-0.8,0.3-1.5,1.1-1.9,1.9
		C267.6,610.9,267.9,611.8,267.9,612.4z M257.1,619.1c-0.6-2.4-1.2-5.6-2.1-8.6c-0.3-0.8-1.5-1.4-2.2-2.1c-0.7,0.8-2,1.7-1.9,2.5
		c0.4,4.6,0.9,9.3,1.7,13.8c0.1,0.7,1.4,1.5,2.2,1.6c0.6,0,1.6-1,1.8-1.8C256.9,623,256.9,621.4,257.1,619.1z M239.7,611
		c-1.1-1.6-2.1-3.6-3.6-5.2c-1.5-1.6-3.3-0.6-3.4,1.3c0,3.8,0.4,7.6,0.9,11.3c0.1,0.6,1.4,1.3,2.1,1.4c0.6,0.1,1.6-0.7,1.9-1.3
		C238.4,616.3,238.9,614,239.7,611z"/>
	<path class="st0" d="M437.9,75.7c-2.8,8.8-5.6,17.4-8.5,26.3c-3.6-0.3-7.1-0.5-10.7-0.8c-22.5-1.5-45-3.6-67.6-4.5
		c-20.1-0.8-40.3-0.6-60.4-0.5c-12.5,0-24.9,0.4-37.4,1c-9.9,0.5-19.7,1.7-29.6,2.5c-7.7,0.6-15.5,1-23.2,1.6
		c-2.2,0.2-4.3,0.9-6.6,1.5c-3.9-7.6-7.9-15.4-12-23.3c3.7-0.2,7.4-0.3,11-0.7c16.7-1.9,33.5-3.5,50.2-6c12.9-2,26.2-2.4,39.3-2.8
		c18.5-0.7,36.9-1.1,55.4-0.9c14.6,0.1,29.2,1.2,43.8,2.1c13.4,0.8,26.8,2,40.2,3.1C427,74.6,432,75.1,437.9,75.7z"/>
	<path class="st0" d="M388.2,64.4c-49.1-3.4-97.8-2.6-146.6,2.4c0.4-6,2.2-11.2,4.9-16.3c7.5-14.1,17.3-26.2,30.8-35
		c8.8-5.7,18.6-8.3,29.2-8.8c12.5-0.6,24.6,0.7,35.9,6.2c16.2,7.9,29.7,19.1,39.3,34.5c2.6,4.2,3.6,9.4,5.4,14.1
		C387.3,62.3,387.7,63.1,388.2,64.4z"/>
	<path class="st0" d="M223.9,628.3c2,23.6-6,43.6-19.7,61.8c-1.9,2.5-4.3,4-6.4,6.1c-3.8,3.7-5.9,8-6.6,13.1
		c-1.3,10.1-2.2,20.2-3.6,30.3c-0.6,4-1.8,8-3.3,11.8c-1.5,3.9-5.7,5.2-9.5,3.5c-4.4-2-6.8-5.8-9.4-9.5c-6.8-9.8-9.7-21-9.7-32.8
		c0-18,4-35.2,12.6-51.1c8.4-15.6,21.2-26.5,36.5-34.8c1.5-0.8,2.9-2,4.4-2.8c0.7-0.4,1.8-0.6,2.6-0.3
		C215.9,625.1,219.9,626.7,223.9,628.3z"/>
	<path class="st0" d="M195.9,107.9c77-7.9,153.7-6.4,230.9,0.5c-1.9,4.7-3.6,9.2-5.7,13.5c-0.6,1.1-2.7,2.1-4.1,2.1
		c-9.2-0.4-18.4-1.1-27.6-1.6c-6.2-0.3-12.3-0.7-18.5-0.8c-21.7-0.3-43.4-0.7-65.1-0.6c-17.8,0.1-35.5,0.7-53.3,1.1
		c-12.7,0.3-25.3,0.8-38,0.9c-3.9,0-7.8-0.9-11.6-1.4c-0.5-0.1-1.2-0.5-1.4-0.9C199.6,116.6,197.8,112.4,195.9,107.9z"/>
	<path class="st0" d="M369,849.4c5.8-1,11.4-1.7,16.9-2.9c18.4-4,35.7-10.6,50.3-23c0.9-0.8,2.5-1.3,3.6-1.1
		c15.1,3.3,29.4,8.6,42.9,16.2c5.2,2.9,9.8,6.7,13.3,11.7c-3.2,3.2-6.6,3.3-10.5,2.3c-3-0.7-6.2-0.8-9.3-0.8c-0.7,0-1.8,1.3-1.9,2.2
		c-0.9,4.4-3,8-6.5,10.8c-4.6,3.7-9.6,4.2-15,1.1c-2.5-1.4-4.9-2.9-7.5-4c-4.5-1.9-6.8-0.3-7.2,4.5c-0.3,3.8-4.8,8.3-9.2,8.7
		c-2.6,0.2-5.4,0.1-7.8-0.6c-12.8-3.7-25.2-8.5-36.8-15.2c-3-1.8-5.6-4.3-8.5-6.3C373.6,851.8,371.4,850.7,369,849.4z"/>
	<path class="st0" d="M285.8,850.4c-4.9,3.1-9.4,6.7-14.6,9c-8.9,4-18,7.5-27.3,10.7c-6.5,2.2-12.8,0.8-18.4-3.3
		c-0.3-0.2-0.7-0.4-0.9-0.7c-0.9-1-1.8-3-2.6-3c-3.2,0-6.6,0-9.5,1.2c-6,2.4-11.3,2.3-16.6-1.8c-2.3-1.8-3.1-3.8-2.5-6.6
		c1.4-6.5,0.7-8.1-4.9-11.7c-2.9-1.8-3.1-4.7-0.3-7c5.1-4.1,11-6.5,17.3-7.7c8.5-1.6,17.1-2.4,25.6-3.4c1.1-0.1,2.6,0.3,3.5,1
		c11.2,9.9,24.7,14.9,38.6,19.2c4,1.2,8.1,2.1,12.2,3.2C285.6,849.8,285.7,850.1,285.8,850.4z"/>
	<path class="st0" d="M95,873c-13.2-5.6-26-11-39.2-16.6c1.5-0.8,3.1-1.9,4.8-2.6c4-1.8,8-3.8,12.2-5.2c9.8-3.3,14.9-10.7,16.7-20.2
		c0.9-4.4,0.6-9.2,0.2-13.7c-1.3-12.5-14.4-19.1-24.1-18c-14.7,1.6-28.4,6.4-41.1,14.1c-1.4,0.8-2.6,2.1-3.7,3.3
		c-1,1.2-1.7,2.7-3.2,4c0.3-5.1,0.4-10.2,0.8-15.4c1.1-14.2,2.2-28.4,3.5-42.5c0.1-0.9,1-2.1,1.8-2.4c2-0.9,4.1-1.3,6.2-1.9
		c4.9-1.4,9.7-2.7,14.9-4.2c0,2.1-0.2,4.4,0.1,6.7c0.1,1.2,0.8,2.9,1.6,3.2c1,0.4,2.4-0.5,4.4-1.1c1.3,0.5,3.5,1.5,5.8,2
		c2.6,0.6,5.3,0.9,7.3-1.6c0.3-0.4,0.8-0.8,1.2-0.8c5.2-0.2,5.3-4,5.5-7.7c0.1-1.2,0.3-2.3,0.4-3.9c1,0.2,1.8,0.2,2.6,0.5
		c4.6,1.5,9.2,3.2,13.9,4.6c1.6,0.5,2.1,1.2,1.9,2.9c-0.5,3.7-1,7.4-1,11.1c0,1.5,1.1,2.9,1.7,4.4c0.1,0.2,0.3,0.3,0.4,0.4
		c8.1,6.3,9.5,6,18,0.6c1.8-1.1,3-1.3,4.7-0.4c6.1,3,12.2,5.8,18.3,8.7c0.1,0,0.1,0.2,0.5,0.7c-1.3,0.3-2.4,0.7-3.6,0.9
		c-6.4,1.2-13.1,1.7-19.3,3.7c-5,1.6-8.9,0.4-13.4-1.3c-18.8-7.3-37.7-14.3-56.5-21.4c-4.4-1.7-8.6-3.6-13-5.2
		c-1.2-0.4-2.8,0.3-4.3,0.5c-0.1,0.5-0.1,1.1-0.2,1.6c5.7,2.6,11.3,5.5,17.1,7.9c19,7.7,38.1,15.2,57.1,22.9c0.9,0.4,2,2,1.9,3
		c-0.8,16.2-2,32.3-2.8,48.5c-0.4,8.9-0.3,17.9-0.4,26.8C95,870.6,95,871.7,95,873z"/>
	<path class="st0" d="M100.1,876.7c-0.3-1.6-0.8-3.1-0.7-4.6c0.6-15.6,1.3-31.2,1.9-46.8c0.3-8.8,0.5-17.7,0.7-26.5
		c0-1.6,0-3.1,0-4.6c13.2-2.9,26.2-5.7,39.5-8.6c0,3.5,0,7,0,10.5c-0.2,16.9-0.3,33.8-0.6,50.7c-0.1,5.7-0.5,11.4-1,17
		c-0.1,0.9-1.2,2.3-2.1,2.5c-10.4,2.9-20.8,5.5-31.2,8.3C104.6,875.1,102.7,875.8,100.1,876.7z"/>
	<path class="st0" d="M41.4,851.6c7.7-1.8,12.5-6.5,13.2-14.3c1.1-12-7.7-23.8-22.4-22.6c-1.6,0.1-3.2,1.4-4.7,2.3
		c-0.4,0.3-0.8,1.3-0.6,1.7c0.2,0.6,1,1.3,1.6,1.4c2,0.2,3.9,0.3,5.9,0.1c8.8-0.9,18.7,10,13.1,21.5c-0.5,1.1-2.2,1.8-3.5,2.3
		c-1.6,0.7-3.5,0.9-5,1.7c-1.3,0.7-2.3,2-4.1,3.5c-3.2-1.7-7.8-3-10.9-6c-2.3-2.2-3.5-6.3-3.8-9.7c-0.3-3.9,0.4-8.1,1.7-11.8
		c0.9-2.6,3.1-5.1,5.3-6.7c6.7-4.8,14.4-7.5,22.4-9.3c4.9-1.2,10.5,1.1,13,5.5c3.7,6.5,6.7,13.5,5.7,21.2c-0.4,3.2-2.3,6.3-3.6,9.4
		c-0.5,1.4-1.2,2.7-1.8,4c-0.2,0.4-0.5,0.9-0.8,1.1c-4.3,2.1-8.5,4.6-13,6.1c-2.3,0.8-5.2-0.3-7.8-0.5
		C41.4,852.2,41.4,851.9,41.4,851.6z"/>
	<path class="st0" d="M56.1,756.5c-0.9-0.5-1.8-1-2.7-1.4c-0.9-0.4-1.8-0.7-3.2-1.2c1.5-8,2.9-16.1,4.7-24.2
		c0.8-3.5,2.9-4.7,6.5-4.1c9.9,1.7,19.6,4,28.7,8.2c5.7,2.7,11.1,6.1,16.6,9.3c1.6,0.9,1.8,2.2,1.5,4.2c-1.1,6.8-1.7,13.6-2.6,20.4
		c-0.1,0.8-0.8,2-1.5,2.3c-2.7,1.3-5.5,3.2-8.1-0.2c-0.5-0.6-0.9-1.4-0.9-2.1c0.1-5,0.4-10,0.4-15c0-0.9-1-2.3-1.9-2.7
		c-10.4-4.1-20.8-8-31.3-12c-2.5-1-3.6-0.1-4,2.5C57.7,745.9,56.9,751.1,56.1,756.5z"/>
	<path class="st0" d="M62.1,803.7c8.6-2.4,15.3,1.6,20.2,7.9c2.1,2.7,2.1,7.4,2.2,11.3c0.2,9.9-6.1,15.6-13.6,19.9
		C73.9,828.5,75.1,814.6,62.1,803.7z"/>
	<path class="st0" d="M62.6,744.6c3.3,0.9,2.5,3.2,2.5,4.9c-0.1,2.5,0.4,5.5-3.8,6.1C61.7,752,62.1,748.5,62.6,744.6z"/>
	<path d="M239.4,573c-14.6-0.5-29.3-0.6-43.9-1.7c-9.4-0.7-18.8-2.7-28.1-4.4c-29.4-5.4-55.1-19.2-79.8-35.1
		c-25.4-16.4-43.1-39.3-54.5-67.3c-6.5-15.8-11.5-31.9-13.9-48.7c-1.5-10.6-1.9-21.3-1.2-32c0.5-7.6,0.4-15.3,1.2-22.9
		c1.9-17.8,8.1-34.4,15.6-50.6c9-19.5,22-36,38.6-49.5c13.2-10.8,28.6-17.8,44.9-22.5c6.9-2,14-3.7,21.1-5.2
		c4.1-0.9,8.4-1.1,12.5-1.4c23.3-1.2,46,0.8,67.6,10.6c9.4,4.3,17.8,10.3,26.1,16.3c2.2,1.6,3.6,1.4,5.7,0.1
		c13.2-8.5,26.3-17.1,39.8-25.1c20.1-11.9,41.9-19.2,65.2-20.8c20.6-1.4,41.2-1.4,61.8,1.3c24.7,3.2,48.6,9.4,70.7,21.3
		c18.4,9.9,31.8,24.6,41,43.3c7.6,15.5,11.1,32,12.2,49c0.9,14.3,1.4,28.7,1.1,43c-0.3,17.2-4.7,33.7-11.4,49.6
		c-9.1,21.6-22.6,40.2-37.6,58c-9.8,11.6-20.6,22.2-32.4,31.7c-5.5,4.5-11.7,8.3-17.9,11.7c-13.1,7.2-26.2,14.5-39.8,20.8
		c-8.9,4.2-18.4,7.1-27.8,10c-10.5,3.3-21.1,6.7-31.9,9c-14.1,3.1-28.4,5.7-42.8,7.5c-14.9,1.8-29.9,2.6-44.8,3.6
		c-5.8,0.4-11.6,0.1-17.4,0.1C239.4,572.8,239.4,572.9,239.4,573z"/>
	<path d="M537.1,357.2c0-5.3,0.2-10.6,0-15.9c-0.5-13.5-2-26.9-5.7-39.8c-5.4-19.3-14.4-36.7-30-49.8c-13.8-11.5-30.1-18.2-47-23.5
		c-15.8-4.9-32-7.6-48.4-9.2c-17-1.6-34-1.7-50.9-0.1c-19.5,1.9-38.2,7.6-55.2,17.3c-16.1,9.2-31.7,19.4-47.4,29.4
		c-2.9,1.9-5.3,2.2-7.9-0.2c-0.5-0.5-1.1-0.8-1.7-1.2c-8.4-5.8-16.5-12-25.9-16.1c-12.2-5.3-24.8-9.4-38.1-10.1
		c-11.5-0.5-23.2-1-34.6,0.5c-10.9,1.4-21.6,5-32,8.5c-16,5.4-30.5,13.7-42.8,25.6C57.7,284,48.4,297,41.5,311.5
		c-9.6,20-16.6,40.9-17.4,63.4c-0.4,12.9-0.9,25.7,1,38.5c2.5,16.7,7.3,32.7,13.9,48.2c10.5,24.9,25,46.8,48,61.8
		c11.3,7.4,23.1,14.1,35,20.5c19.8,10.7,41.1,17.3,63.5,19.9c13.4,1.5,27,2.8,40.5,2.8c19,0.1,38.1-0.7,57.1-1.8
		c11.6-0.7,23.2-2.3,34.8-4.2c18.7-3.1,36.8-8.2,55-13.7c21.9-6.6,42.6-15.8,62.1-27.5c12.9-7.7,25.6-15.6,36.5-26.1
		c13.9-13.4,26.2-28.2,37.1-44.1C527.2,421.5,538.5,391.3,537.1,357.2z"/>
	<path d="M396.4,606.9c0,3.3-1.8,4.3-4.5,3.4c-5.6-1.7-10.3-7.8-10.8-13.8c-0.1-1.3-0.5-2.6-0.3-3.8c0.2-1.1,1-2.1,1.6-3.1
		c0.9,0.5,2,0.9,2.5,1.6c1.6,2.5,2.9,5.3,4.6,7.8c1.3,1.9,3.1,3.4,4.6,5.1C395,605.2,395.9,606.3,396.4,606.9z"/>
	<path d="M404.3,588.8c0.6-2.2,1-4.6,2-6.6c1.2-2.3,3.1-2.1,3.9,0.4c0.9,3,1.5,6,2.1,9.1c0.4,1.9,0.6,3.8,0.7,5.8
		c0,1.1-0.4,2.1-0.6,3.2c-1.2-0.3-2.6-0.2-3.4-0.9C405.8,596.9,404.7,593.1,404.3,588.8z"/>
	<path d="M366.1,613.2c-0.2,1.4-0.9,2.7-2.6,1.5c-1.8-1.3-3.7-2.8-4.9-4.6c-1.4-2-2.5-4.4-3.3-6.8c-0.5-1.5-0.5-3.2-0.1-4.7
		c0.3-1.4,1.7-2.1,3-0.9C362.6,601.8,365.5,606.8,366.1,613.2z"/>
	<path d="M267.9,612.4c0-0.7-0.2-1.5,0.1-2c0.4-0.8,1.1-1.6,1.9-1.9c0.5-0.2,1.6,0.5,1.9,1.1c2.5,5.2,5,10.4,7.3,15.6
		c0.3,0.7-0.2,1.8-0.3,2.7c-0.8-0.3-1.7-0.5-2.4-1c-1-0.7-1.9-1.7-2.9-2.5C269.5,621.4,267.9,617.3,267.9,612.4z"/>
	<path d="M257.1,619.1c-0.2,2.3-0.2,3.9-0.6,5.4c-0.2,0.7-1.2,1.8-1.8,1.8c-0.8,0-2.1-0.9-2.2-1.6c-0.7-4.6-1.3-9.2-1.7-13.8
		c-0.1-0.8,1.2-1.7,1.9-2.5c0.8,0.7,2,1.2,2.2,2.1C255.9,613.5,256.5,616.7,257.1,619.1z"/>
	<path d="M239.7,611c-0.8,3-1.3,5.3-2,7.5c-0.2,0.6-1.3,1.4-1.9,1.3c-0.8-0.1-2.1-0.8-2.1-1.4c-0.5-3.8-1-7.6-0.9-11.3
		c0-1.8,1.8-2.8,3.4-1.3C237.6,607.3,238.6,609.4,239.7,611z"/>
	<path class="st0" d="M537.1,357.2c1.4,34.1-9.9,64.3-28.8,92c-10.9,16-23.2,30.7-37.1,44.1c-10.9,10.5-23.6,18.4-36.5,26.2
		c-19.6,11.7-40.2,20.9-62.1,27.5c-18.1,5.5-36.3,10.6-55,13.7c-11.5,1.9-23.1,3.5-34.8,4.2c-19,1.1-38,1.9-57.1,1.8
		c-13.5-0.1-27.1-1.3-40.5-2.8c-22.4-2.6-43.6-9.2-63.5-19.9c-11.9-6.4-23.7-13.1-35-20.5c-23-15.1-37.5-36.9-48-61.8
		C32.4,446,27.6,430.1,25,413.4c-1.9-12.8-1.5-25.7-1-38.5c0.8-22.5,7.8-43.3,17.4-63.4c7-14.5,16.2-27.5,27.9-38.8
		c12.3-11.9,26.8-20.2,42.8-25.6c10.5-3.6,21.2-7.1,32-8.5c11.4-1.5,23.1-1,34.6-0.5c13.3,0.6,25.9,4.8,38.1,10.1
		c9.4,4.1,17.6,10.3,25.9,16.1c0.6,0.4,1.2,0.7,1.7,1.2c2.6,2.4,4.9,2,7.9,0.2c15.7-10,31.3-20.2,47.5-29.4
		c17-9.7,35.7-15.5,55.2-17.3c16.9-1.6,33.9-1.6,50.9,0.1c16.5,1.6,32.7,4.3,48.4,9.2c16.9,5.3,33.3,11.9,47,23.5
		c15.7,13.1,24.6,30.5,30,49.8c3.6,13,5.1,26.4,5.7,39.8C537.3,346.6,537.1,351.9,537.1,357.2z M450.3,381.9
		c7.7-0.4,12.9-0.6,18.1-0.9c0.8,0,2-0.4,2.3-1c1.4-2.7,2.9-5.4,3.6-8.3c2.2-9.2,2.1-18.5,0-27.7c-3.4-15.5-11.8-27.1-26.4-33.9
		c-6.8-3.1-14-4.1-21.4-4.4c-6.5-0.2-12.6,1.1-17.9,4.7c-14,9.6-21.5,23.1-22.6,40c-0.5,8.9,1.1,17.4,6.8,24.7c0.8,1,2,2.2,3.1,2.4
		c5,0.8,10.1,1.4,15.2,1.8c6.2,0.4,12.4,0.2,18.5,0.7C437.4,380.4,445,381.3,450.3,381.9z M91,438c3.5-0.5,7-0.7,10.4-1.7
		c10.5-2.8,21.1-5.4,30-12.2c6.4-4.9,12.5-10.3,14.9-18.2c4-13.4,0.4-25.5-8.9-35.4c-10.5-11.2-23.7-15-38.9-11.2
		c-6.8,1.7-13.1,4.2-18.1,9.2c-12.5,12.5-17.2,27.8-15.9,45.1C65.5,426,75.6,439.3,91,438z M285.8,392.7c-15-0.2-28.4,2.7-40.5,10.1
		c-7.5,4.5-14.9,9.1-18.9,17.8c-1.7,3.7-2,6.8-0.5,10.3c7.1,17.1,20.4,27.1,37.8,32.1c6.5,1.9,13.4,2.9,20.1,1.3
		c7.1-1.6,13.2-5.5,18.7-10.2c11.5-9.9,19-22.5,24.6-36.5c3.6-9.2-0.4-12.7-6.2-15.9C309.6,395.5,297.7,392.4,285.8,392.7z"/>
	<path d="M450.3,381.9c-5.3-0.5-13-1.4-20.7-2c-6.2-0.5-12.4-0.3-18.5-0.7c-5.1-0.3-10.2-1-15.2-1.8c-1.1-0.2-2.3-1.3-3.1-2.4
		c-5.7-7.3-7.3-15.8-6.8-24.7c1-16.9,8.6-30.4,22.6-40c5.3-3.7,11.4-5,17.9-4.7c7.4,0.3,14.6,1.3,21.4,4.4
		c14.6,6.8,23.1,18.3,26.4,33.9c2,9.3,2.1,18.5,0,27.7c-0.7,2.9-2.2,5.6-3.6,8.3c-0.3,0.6-1.5,0.9-2.3,1
		C463.2,381.3,458,381.5,450.3,381.9z"/>
	<path d="M451.7,342.8c4.6,0.3,8.7-1.2,11.5-5.6c0.9-1.4,1.3-2.8,0.1-4.3c-2.4-3.1-4.7-6.2-7-9.3c-1.9-2.5-4.1-3.3-7.4-2.9
		c-5.6,0.8-9.9,4-11,9.5c-0.6,3-0.9,6.2,1.9,8.4C443.2,341.3,446.9,343.3,451.7,342.8z"/>
	<path d="M91,438c-15.4,1.3-25.5-11.9-26.5-24.3c-1.4-17.3,3.4-32.6,15.9-45.1c5-5,11.3-7.5,18.1-9.2c15.2-3.8,28.4,0,38.9,11.2
		c9.3,9.9,12.9,22,8.9,35.4c-2.4,7.9-8.5,13.3-14.9,18.2c-8.9,6.8-19.5,9.3-30,12.2C98,437.2,94.5,437.4,91,438z"/>
	<path d="M124.2,380.2c-0.1-3.8-1.3-6.9-3.8-9.9c-1.5-1.8-2.6-2.2-4.6-1.5c-4.6,1.6-8,4.6-10.3,8.8c-2.1,3.8-1.5,7.6,0.7,11.1
		c2.4,3.8,6.2,3.9,9.9,3.3c3.8-0.6,6.3-3.1,7.2-6.9C123.7,383.5,123.9,381.9,124.2,380.2z"/>
	<path d="M285.8,392.7c11.9-0.3,23.8,2.8,34.9,9c5.8,3.2,9.9,6.7,6.2,15.9c-5.5,14-13,26.6-24.6,36.5c-5.5,4.7-11.6,8.6-18.7,10.2
		c-6.7,1.5-13.5,0.6-20.1-1.3c-17.4-5-30.7-15-37.8-32.1c-1.5-3.5-1.2-6.6,0.5-10.3c4-8.6,11.4-13.2,18.9-17.8
		C257.4,395.4,270.8,392.5,285.8,392.7z"/>
	<path d="M283.8,398.4c-10.2-0.4-22,2.8-33.2,8c-7.5,3.5-14.4,8-19.4,14.8c-0.6,0.8-1,2.5-0.6,3.3c3.7,8.3,10,13.6,19.1,14.8
		c17.1,2.3,33.6,0.2,48.6-8.6c8-4.7,15.1-10.7,22.5-16.4c0.8-0.6,0.6-3.3,0-4.6c-0.7-1.4-2.3-2.3-3.7-3.2
		C307.6,400.2,297.1,398.5,283.8,398.4z"/>
	<path d="M243.7,443.9c0.7,0.8,1,1.3,1.4,1.7c9.2,9,20.1,13.1,33,12.7c7.5-0.2,13.8-2.6,19-7.9c3.5-3.7,7-7.5,10.2-11.4
		c2.9-3.5,5.3-7.3,8-11c-0.2-0.2-0.3-0.4-0.5-0.6C293.8,443.8,270.3,449.9,243.7,443.9z"/>
	<path class="st0" d="M451.7,342.8c-4.9,0.4-8.5-1.5-11.9-4.2c-2.8-2.2-2.5-5.4-1.9-8.4c1.1-5.5,5.4-8.7,11-9.5
		c3.2-0.4,5.5,0.4,7.4,2.9c2.4,3.1,4.7,6.2,7,9.3c1.1,1.5,0.8,2.9-0.1,4.3C460.4,341.6,456.3,343.1,451.7,342.8z"/>
	<path class="st0" d="M124.2,380.2c-0.3,1.6-0.5,3.3-0.8,4.9c-0.9,3.8-3.4,6.3-7.2,6.9c-3.7,0.6-7.5,0.5-9.9-3.3
		c-2.2-3.6-2.8-7.4-0.7-11.1c2.3-4.2,5.7-7.1,10.3-8.8c2-0.7,3.1-0.3,4.6,1.5C122.9,373.3,124,376.5,124.2,380.2z"/>
	<path class="st0" d="M283.8,398.4c13.3,0.1,23.8,1.9,33.1,8.1c1.4,0.9,3,1.9,3.7,3.2c0.6,1.3,0.8,4,0,4.6
		c-7.3,5.7-14.5,11.7-22.5,16.4c-15,8.9-31.5,10.9-48.6,8.6c-9-1.2-15.4-6.5-19.1-14.8c-0.4-0.9,0-2.5,0.6-3.3
		c5.1-6.8,11.9-11.2,19.4-14.8C261.9,401.1,273.6,398,283.8,398.4z"/>
	<path class="st0" d="M243.7,443.9c26.7,6,50.1-0.1,71.1-16.6c0.2,0.2,0.3,0.4,0.5,0.6c-2.6,3.7-5.1,7.5-8,11
		c-3.2,4-6.7,7.7-10.2,11.4c-5.1,5.4-11.5,7.7-19,7.9c-12.9,0.4-23.9-3.8-33-12.7C244.6,445.2,244.3,444.8,243.7,443.9z"/>
</g>
</svg>
