<?xml version="1.0" encoding="utf-8"?>
<!-- Generator: Adobe Illustrator 26.0.0, SVG Export Plug-In . SVG Version: 6.00 Build 0)  -->
<svg version="1.1" id="Capa_1" xmlns="http://www.w3.org/2000/svg" xmlns:xlink="http://www.w3.org/1999/xlink" x="0px" y="0px"
	 viewBox="0 0 595.3 882.3" style="enable-background:new 0 0 595.3 882.3;" xml:space="preserve">
<style type="text/css">
	.st0{fill:#FFFFFF;}
</style>
<g>
	<path d="M0,349.2c1.4-6,1.1-11.2,1.9-15.3c0.9-4.7,3-7.7,3.9-11.7c4-19,9.6-37.4,17.8-55c34-68.6,102.7-116.9,174.1-141
		c-6.7-15.4-12.9-30.7-19-46.2c-1.5-3.6-3.2-5.5,2-5.9c18.2-2.1,37.3-3.7,55.3-6.2c3.7-49.3,60.4-81.6,105-62.7
		c22.6,9.9,53.3,32,51.2,59.4c72.9,7.8,57.1-5.5,36,59.7c82.3,31.2,147.4,105.7,161.3,193.3c2.5,28.8,10,57.9,1.5,86.4
		c-18.6,71.9-67.5,140.8-141.6,161.5c1.1,10.2-0.8,19.6-3.2,28.9c48.4,19.4,112.1,115.3,29.1,131.3c-5.7,31.9-8.4,65.3-31.2,90.3
		c18.8,7.3,38.3,12.6,54.2,25.7c12.8,11.9-4,20.9-15.7,17.8c-1.5-0.1-2.5-0.2-3.2,1.6c-5.8,15.6-21.8,17.2-34.6,8.3
		c-13.8,30.1-63.2-4-80.5-17c-4.3-3.6-8.3-2.1-12.4-1.8c-15.5,1.2-31.1,2.5-46.5,0.7c-8.5-1-14,1.5-20,6.8
		c-9.9,8.7-22.2,13.1-34.8,16.5c-10.2,2.9-22.4,4-30.6-3.9c-1.3-1.1-2.2-1.5-3.9-0.8c-9.4,4.2-17.8,2.5-25.3-4.4
		c-7.6-6.6-0.1-12.2-7.7-17.8c-13-16.6,19-25.6,31-26.2c4.2-0.3,8.3-1.1,12.6-1.8c-26.9-33.9-21.3-80-22.7-120.8
		c-10.5,8.4-9.1,26.8-10.5,39.1c-4.2,57.2-68.2,3.4-34.5-73c8.6-20.3,25.2-34.8,44.2-45.1c3.8-3.2,0.9-15.4,1.8-20.8
		C69.7,586-3,479.4,0,349.2z"/>
	<path d="M110.9,766.6c9,5,32.5,8.2,34,18.4c2.8,10.2,1.8,20.2,1.4,30.4c-0.6,14.5-0.4,29-0.6,43.6c-0.7,5.1,0.6,10.9-2.6,15.2
		c-0.8-0.6-1.6-1.2-3-2.2c-49.5,16.4-33.7,11.2-80-7.4c-14.3-7.8-27.3-1.4-39.4-14.8c-19.3-22.6-2.5-58.4-4.4-85.3
		c0-6.3-2.3-9.8,5.1-11.6c26.6-9.2,21.8,1.3,29.2-28c2.2-10.2,20.5-2.1,27.7-1.6c12.5,2.8,24.3,8.3,33.6,17.3
		C116.9,746,110.8,759.3,110.9,766.6z"/>
	<path class="st0" d="M7,356.8c0.4-6.4-0.5-13.6,0.7-19.8c1.1-6.1,3-7.8,3.8-11.8c4-19.1,9.7-37.7,18-55.5
		c33.7-71.4,106-113.1,176.3-141.2c69.6,0.2,139.3-4.5,208.7,1.5c3.5,0.4,6.9-1.8,10.6,0.6c2.9,1.9,6.9,2.1,10.1,3.7
		c25.1,11.9,50.5,23.9,69.8,44.5c41.3,36.9,69.6,86.7,78.6,141.5c2.2,27,9.9,54.5,1.5,81.1c-19.6,77.9-76.4,151.4-159.9,163.1
		c-39.3,11-80.9,12-121.2,18.2c-37.2,3.4-74.9,15-112.1,8.4C77.2,577.5-0.3,472.2,7,360C6.8,360,7.2,356.8,7,356.8z M239.4,573
		c0-0.1,0-0.3,0-0.4c77.9,0.2,158.3-16.8,222.4-62.8c58-49.2,90.1-104.6,80.3-182.3c-2.3-71.7-57.9-106.9-123.9-113.6
		c-69.3-9-110.9,4.3-166.8,44.6c-2.1,1.3-3.5,1.5-5.7-0.1c-8.3-6-16.7-12-26.1-16.3c-47.2-20.1-105.3-12.3-146.1,18.5
		c-45.6,36.5-61.6,98.7-54.2,155C33.1,526.2,136.8,576.8,239.4,573z"/>
	<path class="st0" d="M318.7,618.3c35.9,53.2,10.9,27.1,97.4-8.2c3.8,18.2,17,32.3,25.5,48.4c7.8,10.1-35.2,25.4-31,44.3
		c1.7,11.1,13.4,17.4,23.4,19.9c7.2,1.8,6.7,35.3,6.2,42.3c-1.6,17.2-7.6,32.5-20.7,44.6c-15,12.5-30,27.8-49,32.8
		c-52.8,6.3-131.7,9-152-52.3c-10.6-30.3-4.3-62.6-9.1-93.6c12-21.5,23.4-38,20.7-64.9c24.5,7.8,48.3,17.1,73.6,21.9
		c2,0.5,2.8-0.2,3.4-2C310.9,640.4,315.1,629.5,318.7,618.3z"/>
	<path class="st0" d="M421.8,606.6c6.7-2,13.5-6.4,20.2-7c35,13.9,100,86.7,48.6,114.8c-6.8,3.6-18.4,2.6-21.8,10.4
		c-6.1,39.7-6.7,56.7-30.9,90.5c-13.4,8.7-25.9,18-41.9,21.5c24-17.7,50.9-39.3,50.1-72.1c-0.4-10.6,2.5-44.5-9.4-47.9
		c-5.6-1.4-10.7-3.8-15.3-7.3c-8.5-5.5-4.5-14.7,1.7-20.1c7.7-9.4,31-19.4,24.2-33.4C438.7,639.4,425.3,625.5,421.8,606.6z"/>
	<path class="st0" d="M444.1,566.8c-1.9,5.9-1.9,25.8-6.6,26.7c-33.1,12.8-64.4,27.4-94,48c-9.3-10.2-14.3-23.6-23.6-33.7
		c-2-2-4.5-1.4-5.4,1.4c-3.8,10.8-7.5,21.7-11.1,32.5c-1.3,3.9-1.2,4.2-5.3,3.2c-6.9-1.6-13.7-3.2-20.4-5.3
		c-21.6-7.2-43.3-14.1-64.5-22.6c-4-3.7-1.9-11.9-3.1-17.2c50.9-3.3,101.5-12.8,152.3-18.3C390.3,579,417.3,574.9,444.1,566.8z
		 M396.4,606.9c-1.8-2.5-5-5.2-6.9-7.8c-2.5-3.1-3.2-7.9-7.1-9.4C374.6,598.5,394.9,619.4,396.4,606.9z M404.3,588.8
		c0.7,5,2.1,11.6,8.1,11.9C414.5,593.6,408.5,567.8,404.3,588.8z M366.1,613.2c0.6-3.7-7.5-20.7-10.9-14.6
		C352.3,602.4,364.1,620.7,366.1,613.2z M267.9,612.4c-0.2,6.9,4.7,13.1,10.9,15.6c0.7-6.4-4.9-12.3-7-18.3
		C270.1,607,267.2,610.1,267.9,612.4z M257.1,619.1c-1.1-3.1-0.7-8.5-4.3-10.7c-4,3.3-0.2,11.6-0.2,16.3
		C256.2,629.4,257.2,622.6,257.1,619.1z M239.7,611c-8.2-14-7.5-0.1-6.1,7.4C237.8,623,238.7,614.5,239.7,611z"/>
	<path class="st0" d="M437.9,75.7c-2.8,8.8-5.6,17.4-8.5,26.3c-78.2-6.5-157.6-9.8-235.5,0.8c-3.9-7.6-7.9-15.4-12-23.3
		c33.6-1.7,66.7-9.3,100.5-9.5C334.5,67.3,386,70.8,437.9,75.7z"/>
	<path class="st0" d="M388.2,64.4c-49.1-3.4-97.8-2.6-146.6,2.4c3-21.4,18.5-39.2,35.7-51.3C318.3-9.4,376.7,19.3,388.2,64.4z"/>
	<path class="st0" d="M223.9,628.3c2,23.6-6,43.6-19.7,61.8c-5.6,5.7-12.4,10.6-13,19.2c-2.9,9.7,0,51.9-16.4,45.6
		c-13.6-9-18.9-26.7-19.1-42.3c-0.6-35,17-70.2,49.1-85.9C211.5,620.4,216.7,626.1,223.9,628.3z"/>
	<path class="st0" d="M195.9,107.9c77-7.9,153.7-6.4,230.9,0.5c-3.1,5.2-3,14.4-9.8,15.6c-9.2-0.4-18.4-1.1-27.6-1.6
		c-27.8-1.4-55.7-1.3-83.6-1.4c-30.5,0.2-60.9,1.6-91.3,2C199.1,122.4,201.8,121.1,195.9,107.9z"/>
	<path class="st0" d="M369,849.4c24.3-3.4,48.1-9.6,67.2-25.9c0.9-0.8,2.5-1.3,3.6-1.1c20,5.3,42.7,11.1,56.2,27.9
		c-5.7,5.8-12.9,0.6-19.8,1.5c-0.7,0-1.8,1.3-1.9,2.2c-4.6,16.5-16.4,16.4-29,7.9c-4.5-1.9-6.8-0.3-7.2,4.5
		c-5.3,20.7-42-1.6-53.8-7.1C379.3,855.8,374.8,852,369,849.4z"/>
	<path class="st0" d="M285.8,850.4c-12.6,9.4-27.2,14.5-41.9,19.7c-8,3-17-0.6-21.9-7c-3.2,0-6.6,0-9.5,1.2
		c-6.8,3.5-20.2,1.1-19.1-8.4c1.4-6.5,0.7-8.1-4.9-11.7c-8.6-7.5,11.6-13.6,17-14.7c8.5-1.6,17.1-2.4,25.6-3.4
		c1.1-0.1,2.6,0.3,3.5,1c14.5,12.6,32.7,17.8,50.8,22.4C285.6,849.8,285.7,850.1,285.8,850.4z"/>
	<path class="st0" d="M95,873c-13.2-5.6-26-11-39.2-16.6c22-11.1,36.9-11.7,33.9-41.7c-5.1-32.6-59.5-13.6-72.1,3.4
		c0.8-19.3,2.6-38.7,4.3-57.9c1.9-5,17.4-5.9,22.9-8.5c0,4.5-1.3,13,6.1,8.8c4.5,1.9,10.1,4.2,14.3-0.4c6.9-0.4,4.9-6.8,5.9-11.6
		c5.7,1,10.9,3.6,16.5,5.1c1.6,0.5,2.1,1.2,1.9,2.9c-0.4,5.3-2.4,10.7,0.7,15.5c7.9,6.5,9.9,6.6,18.4,1c1.8-1.1,3-1.3,4.7-0.4
		c6.1,3.4,13.2,5.5,18.8,9.4c-7.5,2.1-15.5,2.2-22.9,4.6c-5,1.6-8.9,0.4-13.4-1.3c-23.1-9-46.5-17.3-69.5-26.6
		c-1.2-0.4-2.8,0.3-4.3,0.5c-0.1,0.5-0.1,1.1-0.2,1.6C124.3,809.9,92.5,761.2,95,873z"/>
	<path class="st0" d="M100.1,876.7c-1.4-27.3,2.5-55,1.9-82.5c13.2-2.9,26.2-5.7,39.5-8.6c-0.4,26,0.4,52.2-1.6,78.2
		c-0.1,0.9-1.2,2.3-2.1,2.5C125.1,870,112.7,872.4,100.1,876.7z"/>
	<path class="st0" d="M41.4,851.6c26.1-5,9.3-47.6-13.9-34.6c-2.6,4,4.6,3.4,6.9,3.2c8.8-0.9,18.7,10,13.1,21.5
		c-3.6,3.8-9.1,2.7-12.6,7.5c-13.3-3.9-17.8-14.4-13-27.5c4.9-10.2,17.6-13.3,27.7-16c13.8-2.7,19.6,15.8,18.7,26.7
		c-1.1,4.8-3.7,10.2-6.2,14.5c-6.7,3.3-12.9,8.1-20.8,5.6C41.4,852.2,41.4,851.9,41.4,851.6z"/>
	<path class="st0" d="M56.1,756.5c-2.1-1.2-3.4-1.7-5.9-2.6c2.5-6.2,1.7-31.5,11.2-28.3c9.9,1.7,19.6,4,28.7,8.2
		c4,2.8,19.9,8.2,18.1,13.5c-1.9,6.6-0.4,17.5-4.1,22.7c-15.9,8.1-4.3-15.7-10.5-20c-10.4-4.1-20.8-8-31.3-12
		C56.1,734.8,57.8,752.7,56.1,756.5z"/>
	<path class="st0" d="M62.1,803.7c26-5.1,30.2,29.9,8.8,39.1C73.9,828.5,75.1,814.6,62.1,803.7z"/>
	<path class="st0" d="M62.6,744.6c3.3,0.9,2.5,3.2,2.5,4.9c-0.1,2.5,0.4,5.5-3.8,6.1C61.7,752,62.1,748.5,62.6,744.6z"/>
	<path class="st0" d="M537.1,357.2c2.6,53.7-29.2,100-65.9,136.1c-51.7,45-121.1,65.7-188.4,71.6c-54.1,2.8-112.1,6-161.1-20.9
		c-57.2-25.9-87-69.1-96.7-130.6c-9.2-65.5,20.2-144.4,87.1-166.3c33.4-12.6,71.9-13.9,104.7,1.1c9.4,4.1,17.6,10.3,25.9,16.1
		c3.1,2.6,5.8,4.1,9.6,1.4c52.1-35.8,88.4-54.3,153.6-46.6C493.2,226.8,540.9,265.6,537.1,357.2z M450.3,381.9
		c8.6-1.1,14.6,0.7,20.4-1.9c6.3-10.9,6.1-24,3.6-36c-4.4-28.7-40-48.1-65.7-33.6c-20.4,13.4-30.7,43.7-15.8,64.7
		c4.4,4.8,12.3,2.9,18.3,4.2C423.3,379.6,439.5,380.4,450.3,381.9z M91,438c87.4-9.6,60.9-90.1,7.5-78.7C63,364.2,46.1,435.7,91,438
		z M285.8,392.7c-15-0.2-28.4,2.7-40.5,10.1c-48.7,23.7,4.8,67.6,38.5,61.5c21.7-6,35.2-26.8,43.3-46.7
		C336,398.8,297.1,392.4,285.8,392.7z"/>
	<path class="st0" d="M451.7,342.8c-17.2,1.2-19.3-19.4-2.8-22.1c7.5-1.2,10.2,7.7,14.4,12.2C466,339.1,456.6,343.6,451.7,342.8z"/>
	<path class="st0" d="M124.2,380.2c-0.5,5.2-2,11.1-8,11.8c-3.7,0.6-7.5,0.5-9.9-3.3c-5.5-8,1.7-17.2,9.6-19.9
		C121.5,367.2,123.9,376,124.2,380.2z"/>
	<path class="st0" d="M283.8,398.4c10.1-0.6,40.6,4.4,36.8,15.9c-19.7,17.6-44.1,30-71.1,25c-9-1.2-15.4-6.5-19.1-14.8
		c0.6-8.3,13.4-14.5,20-18.1C261.9,401.1,273.6,398,283.8,398.4z"/>
	<path class="st0" d="M243.7,443.9c26.7,6,50.1-0.1,71.1-16.6c0.2,0.2,0.3,0.4,0.5,0.6c-9.6,12.6-19.2,30.3-37.2,30.3
		C264.6,458.6,252.6,453.9,243.7,443.9z"/>
</g>
</svg>
