<?xml version="1.0" encoding="utf-8"?>
<!-- Generator: Adobe Illustrator 26.0.0, SVG Export Plug-In . SVG Version: 6.00 Build 0)  -->
<svg version="1.1" id="Capa_1" xmlns="http://www.w3.org/2000/svg" xmlns:xlink="http://www.w3.org/1999/xlink" x="0px" y="0px"
	 viewBox="0 0 595.3 738.1" style="enable-background:new 0 0 595.3 738.1;" xml:space="preserve">
<style type="text/css">
	.st0{fill:#FFFFFF;}
</style>
<g>
	<path d="M100,550.8c-2.5,8.1-7.3,31.9-16.7,32.4c-10.6,0.5-13.8-11.9-13-20.4c0.3-14,0.3-28-1.4-42c-5-7.6-11.9-13.5-18-21
		c-0.4,10.8-1.6,20.2-8.2,28.8c-4,5.4-13,4.9-16-1.3c-9.5-19.9-13.1-41.8-15.4-63.6c-3.3-28.5,12-58,38.2-70.2
		c3.4-2.3,9.5-2,11.2-5.9c0.9-14.1,3.3-28,6.4-41.8c0.3-1.6,0-2.4-1.5-3c-12.6-7.4-32.4-8.1-37.3-24c-1.7-6.7,0.1-11.1,6.2-14.4
		c12.1-7.1,25.3-1.9,37.8,1.1c-0.6-5.7,2.8-10.5,4.2-15.9c3.5-16.3,10.1-31.8,14.3-47.7c-4.4-16.6-6.6-33.4-7.5-50.4
		c-21.5-1.7-42.7-6.3-58.3-22.5c-11.6-12.8-21.7-28.9-24.5-46.1c-1.8-14-0.2-31.9,14.1-39.1c28.8-16.7,63.2-19.4,94.1-7.3
		c38.8-62.3,118.7-87.6,188.6-72.4c29.5,5.5,58.9,14.4,82.1,34.2c2.9,1.3,9.5,9.7,12.1,7.4C414.3,23.8,445,6.4,477.4,8.4
		C506.9,8.5,543.7,26.2,537,61c-2.4,16.2-6.9,32.4-15.2,46.7c-0.8,1.2-0.9,2,0.1,3.2c23.5,29.4,39.9,64.1,51.5,99.8
		c12.2,42.1,17.9,85.9,21,129.5c2.1,24.2-1.2,48.4-5.6,72.2c-0.9,4.9-1.1,10.3-4.7,14c-1,1-1.1,1.7-0.6,2.9
		c8.5,22.6,7.3,45.4,0.6,68.1c-4.4,12-15.7,48.7-32.3,38.4c-3.1-2.7-2.1-6.9-2.8-11.1c-26.8,34.8-59.1,66.4-100.7,82.5
		c2,31.5-0.7,63.1-0.5,94.6c0,1.6,0.5,2.3,1.9,3.2c5.6,5.1,27.8,12.4,18.7,21.4c-32.6,8.3-67.1,7.1-100.6,9.6
		c-46.8,2.1-93.7,3.2-140.5,0.9c-20-1.4-40.4-4.4-59-11.7c-4.6-1.9-1.4-6.1,1.2-8.2c5.5-2.6,8.3-7.9,12.3-12
		c4.7-6.3,0.9-24.4,2.2-33.2c0.4-17.5,1.2-34.8,1.6-52.3c-0.7-3.9,1.8-10-2.8-12c-12.5-4.6-23.9-11.5-35-18.6
		C130.4,577.9,114.7,565.3,100,550.8z"/>
	<path class="st0" d="M356.9,222.2c0.7,27.5,1.4,55,2,82.7c-13.1,0.1-26.9-0.8-40.1-1c-5.9-2.8-6.1-9.2-15.8-6.5
		c-5.6,1.6-10.8,5.1-16.5,6.2c-18.7,1.6-37.3,3.3-55.5,7.7c-3.9,0.4-8,2.5-11.8,1.5c-13.4-5.3-37.6-13.3-42.7,6.2
		c-11.8,3.1-24,6.3-36.9,9.7c-34.1-41.7-46.9-94.8-54.3-147c-0.3,0-0.6,0-0.6,0.1c-2.3,3.4-2.3,3.4-6.3,2.6
		c-22.3-2.8-44.1-10.2-57.1-29.8C10.9,140.4,4.2,122.8,6.7,105c1.4-8.9,7.5-14.2,14.8-18.3c23.5-13.3,51.6-14,77-6.7
		c3.4-0.2,11.6,4.3,12.7-0.7c10.2-18.1,27.3-31.8,44-43.8c62.9-43.7,163.5-37.9,223,9.3c18.6,13.4,35.2,30,45.5,50.8
		c3.6,5.4,5.6,20.1,11.5,21.7C429.3,89.6,415,67.5,393.8,49c15-11.6,30.5-22,48.2-29c18.6-7.6,39.9-5.9,59-0.8
		c27.5,5.5,35.9,32.7,27,57c-10.5,39.5-27.5,49.9-66.4,56.3c-40.9,3.8-22.1,3.8-25.6,37.2c-1.2,35-5.9,70.4-16.5,103.8
		c-20.2,7.2-40.5,15.8-54.4,33.6c-2.6-29,3-59.1-4.3-87.5c-0.3-1.4-0.3-2.2,0.5-3.5c8.2-12.4,12.1-25.8,7.9-40.6
		c-17.7-55.6-95.5-26.8-81.3,27c-12-8.4-25.4-8.1-39-6.5c-3.7,1-6.4-3.1-10.3-2.4c-15,0.6-17.8,10.8-33.2,8.8
		c-22.3,1.8-38,45.3-10.5,51.3c10.9,2.6,21.8,2.7,32.6-0.4c5.2-1.2,10.1-5.1,15.5-4.7c21.3,4.4,53.5-5.8,51.7-31.8
		c0.3-0.2,0.6-0.5,0.9-0.7c5.4,9.7,17.4,15.9,28.5,15.5c11.2-0.3,25.3,1.4,31.8-9.8C356.4,221.8,356.6,222,356.9,222.2z
		 M171.2,213.4c-0.4-14.1-7.2-27.8-24.2-27c-11.5,0.4-20.8,5.2-25.5,15.8C104.8,249,166,278.8,171.2,213.4z M147.4,45.3
		c-1.9-0.5-3.6,0.4-4.8,2.4c-8.1,6.1-16.3,12-20.5,21.8c-2.5,5.7-9.8,21.2,0.2,23C137.6,95.5,172.3,48.3,147.4,45.3z M122.2,119.7
		c-1.5,9.7,13.3,13.9,18.1,4.6c5.6-9,13.6-30.9-3.2-32c-1.7,0-3.2,0.5-3.8,2.5C126.3,101.2,122.1,109.5,122.2,119.7z M262.8,252.1
		c-0.1-0.3-0.1-0.7-0.2-1c-11.8,2.5-22.9,7.7-35.4,5.3c-1.1-0.1-2.4,0.2-3.5,0.6c-3.9,2.2,2.7,4.5,4.8,4.6
		C240.6,262.5,253.2,259.9,262.8,252.1z M101.2,127.9c-0.6,3.5,1.8,7.2,5.6,4.9c5.4-3.2,11-18.7,1.7-20.3c-2-0.3-2.4,1.1-2.9,2.6
		C103,118.9,101,123.1,101.2,127.9z"/>
	<path class="st0" d="M140.9,360.5c18.8,10.1,39.6,10.5,60.3,8.9c9.3-0.2,20.1,5.1,28.2-1.6c3.3-4.1,8.8-4.1,11-9.1
		c-0.2-0.2-0.3-0.5-0.5-0.7c8.3,0.2,16.7,0.1,24.9-0.9c0.5,0.1,1.2,0.6,1.6,0.4c3.5-1.8,5.5,0.6,7.9,2.4
		c15.4,12.3,34.6,4.6,52.1,3.8c-2.1,8.4-6.6,16.6-9.7,24.8c-2,5.1-4.4,10.5-10,12.3c11.7,4.5,15.4-15.5,19.5-23
		c10.5-25.5,27.9-47.5,45.2-68.7c18.1-19.7,50.3-37.9,76.8-25.3c13.9,8.8-15.9,21.8-22.7,25.2c-24.9,10-44.8,30-57.1,53.7
		c-9.3,24-4,51.9-15.2,75.4c-8,17.4-33.2,16.4-46.8,6.1c-21.1-15.2-32-40.2-41.4-63.6c-0.8-2-2-2.4-3.7-2.4
		c-4.2-0.3-9.3,29-13.2,34.8c-13.7,34.7-54.5,58.6-90.9,44.8c-42.7-19.8-18.8-77.9-75-112.2c-13.6-9.9-29.6-14.7-44-22.9
		c-6.2-5.9-6.1-9.8,1.3-14c13.9-6.3,29.4,2.9,42,8.6c20.3,11.8,40.1,26.4,53.5,45.9c5.7,9.7,10.5,20,15.6,30.1
		c3.8,7.2,6.8,27.3,18.5,18.9c4.4-3.6,8.1-7.9,10-13.3c0.4-2.5,11-29.6,3.8-24.3c-2.9,7.9-5,16.3-8.3,24.2c-2.1,4.1-9.5,15.8-13.1,7
		C155.9,390.1,148.2,375.6,140.9,360.5z"/>
	<path class="st0" d="M556.9,479.6c-2.5,13.1-4.9,25.5-7.1,37.1c-11.5,8.7-18.8,21-28.6,31.3c-12.4,14.5-28.1,25.3-43.9,35.5
		c-11.3,9.2-24.6,16.3-38.9,19.4c-28.6,4.8-58.3,1.2-87.2,2.1c-44.5,1.2-89,4-133.6,3.8c-34.8-2.5-65.8-22.4-92.2-43.8
		c-7.4-6.3-14.2-13.3-22.9-18c-3-2.9,0-8.1-0.2-11.7c26.8,15.3,57.9,16.1,87.5,21.4c47,3.9,94.3,3.5,141.2-0.7
		c27.5-2.7,55.3-4.8,82.1-11.7c4.3-2.2,5.8,14.1,8.2,17.3c3.7,9,12.9,14,22.5,12.8c8.4-0.6,6.8-20.8,9.2-27.5
		c1.2-2.9-0.5-13.4,2.8-13.6C494.1,527.6,527.5,503.5,556.9,479.6z"/>
	<path class="st0" d="M442.3,154.8c52.3,60,57.1,143.7,54.2,219.6c-12,1.4-24.1,5.2-35.1,10.4c-8,2.2-18.3,6.2-26.2,2.4
		c-16.5-16-14.2-22.8-19.2-43.9c0.3,0.1,0.6,0.1,0.8,0.2c3.3-6.1,1.7-13.8,0.1-20.3c-0.6-1.8,0-2.3,1.4-3.1
		c12.7-8.8,34-13.1,39.4-28.8c2.4-15-21-20.9-32.2-17.9C438.8,234.8,441.5,195,442.3,154.8z"/>
	<path class="st0" d="M406.5,344.6c1.4,8.1-0.8,16.8,2.7,24.3c12.9,17.2,24.3,35.2,33.9,54.5c18.5,34.1,5.2,75.1,4.7,111.9
		c-1.3,5-1.4,33.8-6.3,32.5c-26.9,0.1-20.1-51.5-24.1-70c-7.3-54-5.5-48.7-50-77.6c-6.5-4.7,2-26.3,1.3-34.8
		c1-11.5,4.8-21.8,11.7-31.1c2.3-3,4.6-4.7,8.5-5.3C394.8,348.3,400.4,345.4,406.5,344.6z"/>
	<path class="st0" d="M125.9,431.3c-58.7,19.7-21.6,68.8-30.7,112.4c-1.9,9.9-5,19.5-7.6,29.3c-2.1,7.1-10.8,5.8-11-1.5
		c-0.9-25.3-0.8-50.7-6-75.7c-6.8-38.2-6-83.7,30.8-106.3c-14.3,2.7-24.6,14.2-30.3,27c-0.8,1.7-1.8,2.3-3.6,2.5
		c-14.7,2.1-31,12.2-34.6,30.4c-7.7,29.2,20,42.3,9.5,71c-0.9,4.8-9.5,9.3-11.4,3C13.3,477.6,3.9,415.3,61.5,395.5
		c14.6-6.2,30.1-8.9,45.1-13.6c1.4-0.6,2.1-0.4,2.9,1C117.9,397.8,121.5,414.9,125.9,431.3z"/>
	<path class="st0" d="M235.5,445c12.4,2.5,25.5,2.8,37.8,4.1c-12,34-9.6,68.6-2,103.5c-19.5,0-39.4,0-58.8,0
		c-19.2-23-23.8-54.3-13-82.2c1.4-3.8,3.3-5.9,7.2-7.2c11.2-3.6,20-11.2,28.8-18.7C235.5,444.6,235.5,444.9,235.5,445z"/>
	<path class="st0" d="M414.6,537.9c-23.2,6.7-47.1,7.6-71.5,10.9c4.1-30.5-2.3-59.7-7.6-88.7c9.8-3.9,18.7-8.6,23.5-18.4
		c0.7-1.3,1.5-1.8,3.1-1.7c5.7-0.5,16.7,3.3,17.1-5.4c13.8,9.2,26.3,17.2,28.2,35.1C411.4,492.2,413.6,515.1,414.6,537.9z"/>
	<path class="st0" d="M330.5,459.2c7.1,29.7,9.7,59.5,9,89.9c-20.1,2-40.9,2.6-61.1,3.5c-6.1-4.7-7.7-25.5-8.2-33.5
		c-0.8-22.9-1.7-46.3,6.4-68.2c1.9-4.4,12.5-3,16.8-5.1c2.4-0.6,4-0.3,6,1.2C308.4,454.1,319.1,458.3,330.5,459.2z"/>
	<path class="st0" d="M449.7,420.5c-5.1-9.3-10.2-18.7-15.2-27.7c6.8,2.3,15.4,3.8,21.9-0.3c8.9-4.4,18.2-7.4,27.8-9.6
		c12.8-2.9,25.7-3.1,38.7-2.3c25.7,3.7,45.2,25.8,54.1,48.9c12.9,31.8,4.5,66.8-11.9,95.7c-14.2,17.8-9-8.1-7.8-16.4
		c6.6-30.2,17.5-79.1-22.1-90.1c-13-3.9-26.4-4.8-39.9-3.9C480.2,416.4,464.3,415.8,449.7,420.5z"/>
	<path class="st0" d="M192.3,628.3c-0.5-6.3-0.9-12.1-1.3-18.2c40.4,11.6,83.3,3.5,124.6,2.8c42.6-3.7,85.7,3.2,127.9-4.2
		c0,7.3,0,14.3,0,21.5C360,637,275.3,643,192.3,628.3z"/>
	<path class="st0" d="M474.6,523.1c4.2-22.3,4.6-45.8-7.3-66c-2.7-4.6-6.5-8.5-9.6-12.8c-1.9-5.9-3.8-11.9-5.8-18.3
		c13.4-0.7,28-7.7,40.2,0.5c21.1,12.2,43.3,37.7,35.3,63.6c-1.3,4.3,0.2,5.3-4.4,7.9C507.8,507.9,491.7,516.5,474.6,523.1z"/>
	<path class="st0" d="M462.6,721.5c-48.1,8-97.1,7.8-145.7,10.4c-25.7,0.8-51.5,0-77.2-1.1c-22.1-1.3-44.4-1.9-65.4-9.5
		c3.8-2.7,10.6-15.4,14.2-14.1c21.8,9,46,6.1,69,7.4c45.3,0.3,90.5,1.4,135.8-0.7c18-0.6,36.1-1.9,54.1-2.8
		C452.9,713.6,456.9,717.7,462.6,721.5z"/>
	<path class="st0" d="M196.8,466.4c-12.6,30.6-10.9,59.2,9,86.2c-17.2-1.3-34-4.1-50.8-7.5c-12.6-10.5-19.7-23.6-19.1-40.4
		c-0.8-15.3,1.4-32,14.2-42.2c0.6-0.5,1.9-0.7,2.6-0.3C166.8,469.7,181.7,470.1,196.8,466.4z"/>
	<path class="st0" d="M481.3,206.3c-3.9-12-14.1-22.6-17.1-34.6c10.9-22.3,26.7-43.6,52.6-48.7c3.3-0.5,6.2-3.1,8.3,0.9
		c10.7,16,20.4,32.7,28,50.3C525.7,176.9,501.9,187.6,481.3,206.3z"/>
	<path class="st0" d="M207,250.4c-10.3,0.5-24.1-5-21.3-17.5c1.4-10.2,6.7-22.6,18.2-24.2c7.5-1.1,14.8-0.5,21.3,4
		c9.2,7.3,17.7-13.3,30.9-12.5c11.9-1,30.8,0.3,33.2,15.1c1.1,6.8-1,12.4-6.4,16.9c-11.1,9.8-26.1,14.1-40.6,10.4
		C230.5,243,219.3,250.9,207,250.4z"/>
	<path class="st0" d="M442.5,688.3c0,5.5,0,10.8,0,16.5c-44.7,2-89.3,3.3-134,3.7c-38.6-0.6-78.1,4.6-115.7-6.1
		c-5.5-1.3-1.6-12.8-2.7-17.9c35.4,12.2,72.9,7.3,109.6,9.5C347.4,694.8,395.3,697.1,442.5,688.3z"/>
	<path class="st0" d="M501.3,289.4c-2.1-13.4-4.1-26.4-6-39.1c22-14.3,48.5-19.5,74.4-19.7c1.8,0,2.3,0.6,2.6,2.3
		c3.2,15.8,7,31,9.8,47C554,275.5,526.8,276.2,501.3,289.4z"/>
	<path class="st0" d="M191.2,645.3c0.2-4.9,0.4-9.2,0.6-13.7c82.3,18.5,168,10.1,251.2,3.3c0,4.5,0,8.9,0,13.7
		c-32.9,1.1-65.1,7.9-98.2,8.2C293.4,660,241.8,655,191.2,645.3z"/>
	<path class="st0" d="M588.4,331.2c-27.5-5.4-58.9-11.6-84.9,2c-0.5-12.6-1.3-24.7-2.2-37.2c-0.1-1.6,0.4-2.1,1.8-2.8
		c15.2-6.5,31.3-10.5,47.8-10.8c5.2,0.9,33-2,32.2,4.3C584.7,301.7,587.5,316.2,588.4,331.2z"/>
	<path class="st0" d="M493.8,245.3c-2.6-10.4-6.5-22.1-10.1-32.5c-0.5-1.4-0.4-2.1,0.6-3.2c16.7-16.5,40-26.1,63-29.8
		c7.8-0.9,8.2-1.2,10.7,6.1c4.2,13.2,9,26.4,12.3,39.8C543.9,224.7,515.8,230.4,493.8,245.3z"/>
	<path class="st0" d="M190.6,666.6c43.8,12.2,90.1,7.9,135,10.4c38.5,1.8,76.9-0.6,114.9-6.7c4.5-0.9,1.1,8.7,2.2,11.3
		c0.1,1.5-0.7,1.8-1.9,2c-62.8,10.4-126.6,4.8-189.9,4.7c-20.2,0.9-39.7-3.7-59.3-7.6C188,679,191.3,670.1,190.6,666.6z"/>
	<path class="st0" d="M145.3,544.3c-7.6-3-43.6-8.8-42.9-17.4c2.1-38.6-24.4-72.2,25.5-89.2c2.1,3.5,3.9,6.5,5.9,9.8
		c-23.8,5.4-38.1,29-32,52.7c2.8-2.8,2-8,2.4-11.7c-0.6-16.4,12.6-30.2,27.1-35.1c7.4-3.5,11.1,2.4,16.9,6.1c-4.4,3-8,6.4-10,11.4
		c-10.5,23.4-10.1,52.6,7.6,72.3C145.5,543.7,145.4,544,145.3,544.3z"/>
	<path class="st0" d="M190.6,662.5c0.3-4.3,0.5-8.6,0.8-12.4c82.3,18.3,168.3,14.1,251.3,2.2c0,4.5,0,8.7,0,12.9
		c-40.4,7.6-81.7,6.7-122.6,7C276.9,670.9,232.7,673.8,190.6,662.5z"/>
	<path class="st0" d="M588.8,337.1c0,11.2,0,22.2,0,33.6c-26.1-12.7-57.7-16.7-85.2-7.1c0-7.8,0-15.9,0-24c0-0.7,0.6-1.7,1.2-2
		C530.8,324.5,561.7,331.7,588.8,337.1z"/>
	<path class="st0" d="M267.6,350.7c1.1-4.7-1.1-14.5,2.7-17.4c10.8-5.5,23.1-3,34.4-6.9c-11.3-4.3-24-1.1-34.9,3
		c0.3-1.9,1.1-4,0.7-5.9c-0.7-3.3,0.8-4.5,3.3-5.9c5-2.9,9.5-6.8,14.6-9.2c16.1-6.6,28.7-11.7,23.7,12.4c-3.7,9.4,3.1,16.2,7,24
		c1.4,4.1-0.3,7.2-4.1,9.2C299.2,362.7,283.8,348.8,267.6,350.7z"/>
	<path class="st0" d="M227.4,333.1c-2.9-2.2-6.1-1.6-9.4-1.2c-3.7,0.4-7.6-0.2-11.2,0.5c-5.3,1.6-12.2,2.2-16.3,5.4
		c12.8-2.5,24.2-2.9,37.4-1.9c-1.4,6.7,1.3,16.2-6.1,19.8c-11.2,6.4-28.5,15.8-38.3,2.7c-2.2-5.8,2.3-12.2,3.6-18
		c0.6-1.8,0.4-3.2-0.7-4.8c-7.9-11.4-5.7-25.6,10.9-23.2c9.9,1.6,19.4,4.5,28.5,8.9c3.4,2.4,1.5,7.8,2.5,11.4
		C227.8,332.9,227.6,333,227.4,333.1z"/>
	<path class="st0" d="M493.3,420.6c20.5,2,50.4-1.9,59.9,21.1c3.9,8.4,5.4,18.3,3.8,27.3c-7.7,6.7-15.1,14.2-22.9,20.5
		c0.6-12.5-0.2-25.7-7.6-36.2c-8.5-13-18.1-26.3-33.3-31.7C493.2,421.2,493.3,420.9,493.3,420.6z"/>
	<path class="st0" d="M502.9,374.1c-2.5-13.5,46.4-9.9,55.2-8.4c10.8,1.6,19.6,7.3,30.2,10c-1.1,14.8-3.3,30-8,45.1
		C564.4,388.4,539.9,370.7,502.9,374.1z"/>
	<path class="st0" d="M77.3,308.4c2-6.4,4-12.8,5.9-19c6.5,0.8,23.8-2.1,27.4,2.8c6,10.8,12,21.6,18.4,32.2c12.2,13.9,8,5,5.1,27.4
		C116.6,334.9,98.4,319.8,77.3,308.4z"/>
	<path class="st0" d="M181,364.9c-13.8-2.7-30.5-0.3-41-11.4c-2-5.6,1.3-12.4,1.6-18.4c0.1-0.8,0.9-1.8,1.6-2
		c11.4-3,22.8-7,34.2-9.4c0.3,5.3,1.8,10.2,4.6,14.7c-0.8,10.4-10.2,14.4-0.8,26.1C181.1,364.5,181.1,364.6,181,364.9z"/>
	<path class="st0" d="M317.7,358.9c16.4-10.6-1.2-20.7-0.8-33.3c1.4-5.7,2.4-11.3,1.1-17c13.9,0,27.7,0,41.2,0c1.6,3.1,0.6,5-1.1,7
		c-10.2,12.3-18.9,25.7-26.6,39.7C328.7,359.8,322.5,357.7,317.7,358.9z"/>
	<path class="st0" d="M363.2,192.7c-2.7,40.7-61,44.4-69.9,5.5c-6.9-22.5,11.8-44.2,33.5-48.1c13.7,1.9,29.4,8.8,33.9,23
		c-16.3-24.4-56.4-20.3-57.7,12.3c-1.9,20.8,18.2,38,38.1,34.3C352.5,216.2,361,204.3,363.2,192.7z"/>
	<path class="st0" d="M232.5,353.2c2-33.8-8.9-28.3,20.2-31.5c4.4-0.2,8.2-3.4,12.6-2C260,356.3,275,353.2,232.5,353.2z"/>
	<path class="st0" d="M50.8,491.6c-22.5-20-16-62.1,16.4-67.1c-2.8,8.8-4.9,17.2-5.3,26.4c-0.1,1-0.5,2.4-1.3,3
		C49.8,463,47.9,478.4,50.8,491.6z"/>
	<path class="st0" d="M455.5,528.2c1.3-25.3,2.7-50.5,4-75.7c12,18.9,15.1,41.7,11.3,63.6C469.2,527.8,464.8,525.5,455.5,528.2z"/>
	<path class="st0" d="M262.9,392c6.9,13.5,11.7,27.1,20.6,39.1c-13-1.9-25.3,1.8-38,1.3C254,419.8,256.1,405.5,262.9,392z"/>
	<path class="st0" d="M486.1,133.7c-12.1,8.9-18,22.5-25.6,34.8c-4.6-4.1-13.2-19.4-18.5-18.8c-0.4-2.5-0.7-4.8-1-7.2
		C456.2,139.5,471.2,136.6,486.1,133.7z"/>
	<path class="st0" d="M105.8,377.4c-13.4,3.3-26.5,6.4-39.8,9.6c2.2-5.6-1.3-17,7.3-17.3c7.7-0.7,15.3-1.8,22.9-2.6
		C100.4,368.8,102.6,374.2,105.8,377.4z"/>
	<path class="st0" d="M94,253.1c4.2,10.8,8.4,21.3,12.5,31.8c-7.2,0-14.5,0-22.2,0C87.2,274.5,88.9,263.6,94,253.1z"/>
	<path class="st0" d="M61.3,458.6C61,475.2,64.9,491.2,67,508c-4-4.4-9.6-7.2-11.7-12.4C54,482.9,51.1,468.6,61.3,458.6z"/>
	<path class="st0" d="M91.9,362.4c-7.9-0.3-15.3,1.5-23.3,4.6c1.5-7,2.8-13.5,4.4-20.8c6.7,5.3,13,10.3,19.3,15.3
		C92.2,361.8,92.1,362.1,91.9,362.4z"/>
	<path class="st0" d="M411.9,323.2c0.5,5.2,1,10.1,1.5,15.2c-8.3,0.5-16.4,1.3-24,5C395.1,334.9,402.2,328,411.9,323.2z"/>
	<path class="st0" d="M277.5,309.5c-8.6,6.9-14.9,4.8-25.1,7.1c-8.5,0.2-17.6,4.2-25.5-0.2C243.6,314.8,259.7,309,277.5,309.5z"/>
	<path class="st0" d="M242.5,198.6c-1.6,5.7-6.3,7.8-10.8,11c-4.2,1.2-8.1-3.8-12.2-5.3C225.9,198.8,240.4,195.7,242.5,198.6z"/>
	<path class="st0" d="M338.8,180c-7.1-0.3-6.1-12.2,2.3-10.2C346.5,172.2,346,179.7,338.8,180z"/>
	<path class="st0" d="M216,365.3c5.8-1.6,9.4-7.1,15.8-6.3C227.3,362.8,223.6,368,216,365.3z"/>
	<path class="st0" d="M412.9,351.6c1,5.5,2.1,10.9,3.2,16.7C411,363.2,413.3,357.1,412.9,351.6z"/>
	<path class="st0" d="M520.5,117.6c-2.8,0.6-5.2,1.1-7,1.5c1.3-1.3,3.1-3.1,4.9-4.9C518.9,114.9,519.7,116.1,520.5,117.6z"/>
	<path class="st0" d="M290.9,362.1c-1.9-0.6-3.8-1.2-5.7-1.8c0.1-0.2,0.1-0.5,0.2-0.7c1.9,0.6,3.9,1.1,5.8,1.7
		C291.1,361.5,291,361.8,290.9,362.1z"/>
	<path class="st0" d="M154.6,201.5c1.2,9.5-12.8,9.1-12,0.5c0.8-5.3,0.9-9.3,7.9-6.4C152.8,196.4,155,198.5,154.6,201.5z"/>
	<path class="st0" d="M147.6,50c3.4,0,5.4,1.8,4.4,4.9c-4.4,13.5-10.1,26.2-24.3,32.4c-13,7.1-4.1-15.3,0.1-19.3
		c6.2-6.4,11.3-14.7,19.6-18.5C147.4,49.6,147.5,49.8,147.6,50z"/>
	<path class="st0" d="M125.9,118.8c-0.1-7.1,5.1-21.4,13.1-21.6c7.8,4.6,1.6,18.7-1.5,25.2C134.3,128.5,124.8,126.3,125.9,118.8z"/>
	<path class="st0" d="M108.6,116.1c2.2,3.1,0.1,11.9-3.4,14.4C103.5,127.5,105.6,118.8,108.6,116.1z"/>
</g>
</svg>
