<?xml version="1.0" encoding="utf-8"?>
<!-- Generator: Adobe Illustrator 26.0.0, SVG Export Plug-In . SVG Version: 6.00 Build 0)  -->
<svg version="1.1" id="Capa_1" xmlns="http://www.w3.org/2000/svg" xmlns:xlink="http://www.w3.org/1999/xlink" x="0px" y="0px"
	 viewBox="0 0 595.3 738.1" style="enable-background:new 0 0 595.3 738.1;" xml:space="preserve">
<style type="text/css">
	.st0{fill:#FFFFFF;}
</style>
<g>
	<path d="M100,550.8c-2.1,9.6-5.4,18.3-9.6,26.8c-1.5,3.1-3.2,5.5-7.1,5.6c-3.9,0.1-6.9-1.2-9.3-4.4c-3.7-4.8-3.8-10.3-3.7-16
		c0.2-8.2,0.2-16.5,0-24.7c-0.2-5.8-0.8-11.5-1.4-17.3c-0.1-0.9-1-1.8-1.6-2.6c-1-1.2-2.2-2.4-3.3-3.6c-4.2-4.8-8.5-9.6-13.1-14.8
		c-0.3,4-0.4,7.2-0.8,10.4c-0.8,6.8-3.4,12.9-7.4,18.4c-4,5.4-13,4.9-16-1.3c-3-6.3-5.5-12.9-7.4-19.5c-4.1-14.4-6.5-29.2-8-44.1
		c-1.4-13.1,0.7-25.6,6.2-37.6c6.8-14.7,17.5-25.5,32-32.6c3.1-1.5,6.4-2.4,9.5-3.8c0.8-0.3,1.7-1.4,1.7-2.1
		c0.9-14.1,3.3-28,6.4-41.8c0.3-1.6,0-2.4-1.5-3c-7.9-3.4-15.7-6.9-23.7-10.1c-6.6-2.7-11.7-6.6-13.6-13.9
		c-1.7-6.7,0.1-11.1,6.2-14.4c6.8-3.6,13.9-4.5,21.3-2.9c5.5,1.2,11,2.7,16.5,4c-0.6-5.7,2.8-10.5,4.2-15.9c2.5-9.3,5-18.5,7.8-27.7
		c1.8-5.7,4.1-11.3,6.2-17c0.3-0.9,0.5-2.1,0.3-3c-4.3-16.4-6.7-33-7.4-49.9c0-0.2-0.1-0.5-0.1-0.5c-5.2-0.6-10.2-1.2-15.3-1.9
		c-16.5-2.2-31-8.7-43-20.6c-7.2-7.1-12.3-15.7-17-24.6c-3.6-6.8-6.8-13.8-7.5-21.5c-1-10.4-1.3-20.8,4.5-30.3
		c2.4-3.9,5.6-6.7,9.6-8.8C29,76.2,44.1,70.7,60.2,68.9c7.1-0.8,14.5,0,21.7,1c7.9,1.2,15.7,3.4,23.5,5.2c1.2,0.3,2.4,1,3.3,1.4
		c3.3-4.7,6.4-9.5,9.9-14c9.6-12.4,21.3-22.6,34.3-31.4c13.7-9.2,28.2-16.8,43.9-22c11.8-4,23.8-7,36.1-8c10.5-0.8,21-1.4,31.5-0.9
		c11,0.5,22.1,1.9,32.9,3.9c11.6,2.2,23.2,5.1,34.5,8.5c17.6,5.2,33.3,14.2,47.6,25.7c3.2,2.5,6.5,5,9.6,7.5
		c0.9,0.8,1.5,0.8,2.5-0.1c17.7-17.7,38.8-29.2,62.9-35.8c7.7-2.1,15.4-1.7,23-1.5c10.1,0.3,20,2.1,29.5,5.8
		c8.6,3.4,16.6,7.7,22.5,15.1c7.4,9.3,9.2,20.2,7.6,31.7c-1.9,14.2-6,27.8-12,40.9c-0.9,2-2,3.9-3.2,5.8c-0.8,1.2-0.9,2,0.1,3.2
		c10,12,18.1,25.3,25.6,39c10.7,19.4,19.2,39.7,25.9,60.8c4.6,14.5,7.8,29.4,10.3,44.4c2,12,4.5,23.9,6,35.9
		c2,16.3,3.6,32.8,4.7,49.2c1,14.3,0.8,28.7-1,43c-1.2,9.8-3,19.5-4.6,29.2c-0.5,3-0.9,6-1.7,8.9c-0.6,1.9-1.7,3.7-3,5.1
		c-1,1-1.1,1.7-0.6,2.9c8.5,22.6,7.3,45.4,0.6,68.1c-3.4,11.5-8.4,22.2-14.9,32.2c-0.9,1.4-1.8,2.7-2.8,4c-4.2,5.2-9.7,4.5-14.6,2.2
		c-0.9-0.4-1.7-2-1.9-3.1c-0.5-2.4-0.6-4.9-0.9-8c-3.4,4.2-6.5,7.8-9.5,11.5c-13.4,16.5-27.7,32.1-45,44.7c-13.8,10-28.2,19-44,25.5
		c-0.8,0.3-1.6,0.6-2.2,0.8c0.3,3.7,0.8,7.2,0.8,10.7c-0.1,14.8-0.4,29.7-0.7,44.5c-0.2,13.1-0.4,26.3-0.6,39.4
		c0,1.6,0.5,2.3,1.9,3.2c6,3.7,12,7.6,17.8,11.7c4,2.8,4.2,6.7,0.9,9.7c-0.7,0.6-1.7,1-2.6,1.2c-12.7,1.8-25.3,3.9-38,5.2
		c-9.5,1-19.2,1-28.8,1.5c-10.4,0.5-20.8,1.1-31.2,1.7c-8.1,0.4-16.3,1-24.4,1.2c-26.9,0.5-53.8,0.9-80.7,1
		c-11.8,0-23.6-0.8-35.4-1.3c-18.6-0.8-36.7-4.8-54.6-9.7c-1.5-0.4-3-1.2-4.4-2c-2.9-1.8-3.1-2.5-1.2-5.5c0.6-1,1.4-2.2,2.4-2.7
		c5.5-2.6,8.3-7.9,12.3-12c2.1-2.1,2.3-4.5,2.2-7.3c-0.2-8.6-0.1-17.3,0-25.9c0.1-5,0.3-9.9,0.4-14.9c0.4-12.5,0.9-24.9,1.2-37.4
		c0.1-2.8-0.2-5.5-0.2-8.3c0-1.9-0.6-2.9-2.6-3.7c-12.5-4.6-23.9-11.5-35-18.6c-12.8-8.2-25.1-17.3-36.5-27.4
		C107.7,558,104,554.5,100,550.8z"/>
	<path d="M356.9,222.2c-0.3-0.2-0.5-0.4-0.8-0.6c-0.6,0.9-1.2,1.9-1.9,2.7c-3.8,3.8-8.5,6.2-13.8,6.6c-5.4,0.4-10.8,0.4-16.1,0.5
		c-2.1,0-4.3,0.1-6.3-0.3c-8.6-2.1-15.9-6.4-21.5-13.5c-0.4-0.5-0.5-1.1-0.7-1.7c-0.3,0.2-0.6,0.5-0.9,0.7
		c0.6,5.2-0.5,10.1-3.2,14.5c-4.7,7.6-11.3,12.7-20,15.4c-9.4,2.9-18.8,3.6-28.5,1.9c-1.7-0.3-3.6,0.2-5.3,0.8
		c-3.5,1.2-6.7,2.9-10.2,3.9c-10.8,3.1-21.6,3-32.6,0.4c-9.3-2.2-14.6-8.4-14.7-17.9c0-7.5,3.1-14,6.6-20.4c4.1-7.4,10.2-12,18.6-13
		c2.9-0.4,5.9,0.1,8.8,0.1c1.2,0,2.6-0.3,3.5-1c6.4-4.4,13.2-7.5,20.9-7.9c1.8-0.1,4.1,0.3,5.4,1.4c1.7,1.3,3.1,1.2,4.9,1
		c13.6-1.6,27-1.9,39,6.5c-0.5-3-1.1-5.9-1.4-8.9c-1-10.7,2-20.4,7.8-29.2c3.5-5.3,8.4-9.4,13.8-12.7c4.8-3,9.7-5.6,15.6-5.5
		c2.9,0.1,5.8-0.7,8.7-1c0.8-0.1,1.6-0.1,2.4,0c17.3,3.5,29.5,13,34.4,30.3c4.2,14.8,0.3,28.2-7.9,40.6c-0.8,1.2-0.9,2.1-0.5,3.5
		c1.2,5,2.8,10.1,3.1,15.2c0.6,11.6,0.5,23.2,0.6,34.7c0.1,11.6,0.1,23.2,0.2,34.8c0,0.8,0.2,1.6,0.4,2.8c2.7-2.9,4.8-5.7,7.3-8
		c13.1-11.9,28.4-20,45.6-24.4c0.6-0.1,1.4-0.7,1.5-1.2c1.3-3.6,2.8-7.2,3.6-10.9c1.9-8.5,3.7-17,5.3-25.6
		c2.1-11.6,4.2-23.2,5.6-34.9c1.2-10.8,1.5-21.6,2-32.4c0.5-10,0.2-20.1-1.4-30c-0.2-1.4,0.2-2.3,1.4-2.7c3-1,6-2.2,9.1-2.7
		c5.5-0.8,11-0.9,16.5-1.8c10.7-1.7,21.1-4.7,31.3-8.4c9.3-3.4,16.8-8.8,22-17.3c5.9-9.6,10.2-19.8,13.1-30.6
		c2.1-7.9,3.9-15.8,3.3-24.1c-0.9-11.2-6.1-19.9-15.1-26.5c-4.5-3.3-9.9-4.9-15.2-6.4c-9.6-2.8-19.4-4-29.4-4.3
		c-10.3-0.2-20.2,1.1-29.6,5.1c-11,4.6-21.6,10.2-31.6,16.9c-5.6,3.8-11,8-16.6,12.1c21.2,18.5,35.5,40.6,41.4,68.3
		c-2.6-0.4-3.4-2.1-4-3.7c-2.5-6-4.8-12.1-7.5-18c-3.7-8.2-9-15.3-14.7-22.1c-5.2-6.2-9.8-12.8-16.5-17.6
		c-4.9-3.5-9.6-7.3-14.3-11.1c-7.9-6.4-16.2-12.2-25.4-16.9c-16.6-8.5-34.3-14.1-52.5-17.5c-10.1-1.9-20.3-2.9-30.5-3.5
		c-16.1-0.9-32.2-1.3-48.2,1.7c-24,4.4-46.3,13.1-66.4,26.9c-15.2,10.4-28.7,22.5-40,37.1c-1.6,2-3.4,4.2-4,6.7
		c-0.6,2.3-1.6,2.5-3.3,2.2c-3.1-0.5-6.3-1-9.4-1.5c-8.5-1.4-16.5-4.5-25.3-4.7c-18.2-0.5-35.5,2.5-51.5,11.4
		C14.3,90.8,8.1,96,6.8,104.9c-1,6.6-0.6,13.2,0.8,19.7c2.3,11,7.2,20.8,13.8,29.9c9.1,12.7,21,21.6,36.1,25.6
		c6.9,1.9,14,2.8,21,4.2c4,0.8,4,0.8,6.3-2.6c0.1-0.1,0.3-0.1,0.6-0.1c0.2,0.8,0.4,1.5,0.5,2.3c2.5,14.4,4.6,28.8,7.6,43.1
		c6.2,29.7,16.8,57.8,33.3,83.4c4.1,6.4,8.8,12.5,12.9,18.2c12.8-3.4,25.1-6.6,36.9-9.7c1-2.4,1.4-5,2.9-6.6
		c4.6-4.6,10.5-6.6,17-5.7c7.8,1.1,15.5,2.9,22.8,6.1c0.8,0.4,1.9,0.4,2.8,0.3c3-0.5,6-1.2,9-1.8c7.6-1.5,15.2-3.4,22.9-4.4
		c10.8-1.4,21.7-2.2,32.6-3.3c1.3-0.1,2.7-0.6,3.9-1.1c4.2-1.7,8.3-3.7,12.6-5.1c5.4-1.8,10.2,0.3,13.3,5.1c0.5,0.7,1.6,1.4,2.5,1.4
		c4.1,0.2,8.3,0.1,12.5,0.3c6.3,0.2,12.5,0.5,18.8,0.7c3.1,0.1,6.2,0,8.8,0C358.2,277.2,357.6,249.7,356.9,222.2z"/>
	<path d="M140.9,360.5c4.7,9.7,9.5,19.2,13.9,28.9c2.5,5.4,4.4,11,6.6,16.5c1.4,3.5,3.7,4.3,6.4,1.8c2.6-2.5,5.3-5.5,6.7-8.8
		c3-7.4,5.2-15,7.7-22.6c0.2-0.5,0.3-1.2,0.6-1.6c0.4-0.5,1.1-0.9,1.6-1c0.3,0,0.9,0.9,0.9,1.4c0.1,1.1,0.1,2.3-0.2,3.4
		c-2,6.9-3.8,13.8-6.1,20.5c-1.9,5.4-5.6,9.7-10,13.3c-3.9,3.2-7.8,2.8-10.7-1.2c-1.5-2.1-2.6-4.7-3.6-7.1
		c-1.5-3.5-2.6-7.1-4.2-10.6c-1.9-4.1-4.1-8.1-6.2-12.2c-3.1-6-5.7-12.3-9.4-17.9c-5.9-9.2-13.8-16.7-22-23.8
		c-9.8-8.4-20.2-15.9-31.5-22.1c-8.3-4.6-17.2-7.7-26.4-10c-5.3-1.3-10.6-1.4-15.6,1.4c-7.4,4.2-7.6,8.1-1.3,14
		c0.3,0.3,0.8,0.6,1.2,0.8c3.2,1.7,6.4,3.6,9.8,4.9c11.6,4.6,22.6,10.2,33,17.2c22.2,14.9,36.6,35.4,43.1,61.3
		c2.7,10.4,5.2,20.8,10.1,30.5c4.9,9.6,12.1,16.2,21.8,20.4c7.8,3.4,16.1,3.8,24.4,3.7c10-0.1,19.4-2.4,28.2-7
		c17.6-9.3,30.6-23.3,38.3-41.5c4.4-10.4,7.1-21.4,10.5-32.2c0.5-1.4,1-2.6,2.7-2.6c1.7,0,2.9,0.4,3.7,2.4
		c5.7,15.1,12.6,29.6,21.6,43.1c5.3,8,12,14.8,19.8,20.5c8.5,6.1,17.9,8.2,28.4,7c8.9-1,14.8-6,18.4-13.1c3-5.8,4.5-12.5,5.7-19
		c1.8-9.6,2.9-19.3,3.9-29c1-9.3,1.6-18.7,5.6-27.4c5.2-11.2,13.1-20.4,21.3-29.3c10-11,22.2-18.7,35.8-24.4
		c8.4-3.5,16.2-8.1,23-14.2c4.9-4.3,4.9-7.4-0.3-11c-2.1-1.5-4.7-2.7-7.3-3.2c-7.4-1.4-14.7-1.5-22.2,0.4
		c-18.7,4.5-34.7,13.7-47.3,28.1c-8.3,9.4-15.6,19.6-22.9,29.8c-8.7,12.2-16.8,24.8-22.3,38.9c-2.8,7.1-5.7,14.2-10,20.6
		c-2,3-7.1,4-9.5,2.4c1.7-1,4.1-1.7,5.3-3.3c2-2.7,3.4-5.9,4.7-9c3.4-7.9,6.5-15.9,9.8-23.9c0.1-0.2,0-0.5-0.1-0.9
		c-0.7,0-1.3-0.1-1.9,0c-6,0.8-12.1,1.5-18.1,2.4c-11.4,1.7-22.5,1.3-32.1-6.2c-2.4-1.9-4.4-4.3-7.9-2.4c-0.4,0.2-1-0.3-1.6-0.4
		c-0.5-0.1-1.1-0.4-1.6-0.2c-5.5,1.9-11.2,1-16.8,1.1c-2.2,0.1-4.3,0-6.5,0c0.2,0.2,0.3,0.5,0.5,0.7c-0.8,1.2-1.4,3.2-2.6,3.6
		c-3.4,1.1-5.9,3.2-8.4,5.5c-4.1,3.7-9.3,3.5-14.4,3.1c-4.6-0.4-9.2-1.4-13.8-1.5c-7.5,0-14.9,0.7-22.4,0.8
		c-9.1,0.1-17.9-1.8-26.5-5C148.4,363.9,144.7,362.1,140.9,360.5z"/>
	<path d="M556.9,479.6c-1.1,0.8-1.5,1-2,1.4c-6.3,5.1-12.3,10.5-18.8,15.2c-17.5,12.7-36.5,22.8-56.6,30.9c-7.5,3-15.1,6.1-23.5,6
		c-1.6,0-1.6,1-1.7,2.1c-0.3,3.8-0.5,7.7-1.1,11.5c-1.1,7.6-2.5,15.1-3.9,22.6c-0.5,2.9-2.4,4.5-5.3,4.9
		c-9.6,1.3-18.8-3.7-22.5-12.8c-2.1-5-3.7-10.2-5.1-15.5c-0.6-2-1.4-2.2-3.1-1.8c-17.7,4.4-35.8,7.1-53.9,8.9
		c-9.4,0.9-18.8,2-28.2,2.8c-10.1,0.9-20.3,1.6-30.5,2.2c-8.9,0.5-17.8,1.2-26.7,1.2c-20.1-0.1-40.3-0.5-60.4-1
		c-7.9-0.2-15.8-0.6-23.6-1.7c-13.2-1.8-26.4-3.9-39.5-6.2c-16.7-2.8-33.2-6.3-48-15.2c-0.4,3.3-0.8,6.5-1.1,9.8
		c0,0.6,0.7,1.5,1.3,1.9c2.5,1.7,5.4,3,7.7,4.9c5.2,4.2,10,8.9,15.2,13.1c20.5,17,42.6,31.3,68.3,39.3c7.8,2.5,15.7,4.6,23.9,4.5
		c20.5,0,41.1-0.5,61.6-1c11.8-0.3,23.6-1.1,35.4-1.6c12.2-0.5,24.4-1.1,36.6-1.2c12.5-0.2,25,0.2,37.4,0.2c9.8,0,19.6,0.3,29.4-0.1
		c6.8-0.2,13.7-0.7,20.4-2.2c10.4-2.2,20-6.7,29.1-12.2c3.5-2.1,6.5-4.9,9.8-7.2c4.1-2.8,8.4-5.4,12.4-8.2
		c11.5-8,22.3-16.7,31.5-27.3c7.8-9,15.4-18.2,23.2-27.1c1.3-1.5,3.2-2.5,5.4-4.2C552,505.1,554.4,492.7,556.9,479.6z"/>
	<path d="M442.3,154.8c-0.8,40.1-3.4,80-16.7,118.6c0.9-0.1,1.2-0.1,1.4-0.2c0.3-0.1,0.6-0.3,0.9-0.4c9.4-0.7,18.2,0.8,25.5,7.3
		c3.2,2.9,5.8,6.4,4.4,11.2c-1.7,5.6-5.4,9.9-10.4,12.8c-9.6,5.5-19.3,10.8-29,16c-1.4,0.8-2,1.3-1.4,3.1c1.8,5.6,1.9,11.4,1.4,17.2
		c-0.1,1.1-1,2.1-1.5,3.1c-0.3-0.1-0.6-0.1-0.8-0.2c1.8,8.3,3.5,16.5,5.4,24.8c0.4,1.6,0.6,3.4,1.5,4.6c4,5,8.1,9.8,12.3,14.5
		c0.7,0.8,2.1,1.3,3.2,1.4c7.9,0.3,15.6-1.1,23-3.8c7.1-2.5,13.6-6.6,21.2-7.9c4.8-0.8,9.5-1.7,13.9-2.5c0-1.5-0.1-2.9,0-4.2
		c0.2-2.7,0.8-5.3,0.8-8c0.1-5.1-0.1-10.3-0.2-15.4c-0.2-10-0.5-20-0.7-30.1c-0.1-14-1.4-27.8-3.5-41.6
		c-2.8-18.9-6.2-37.7-13.6-55.5c-5.1-12.3-8.9-25.2-16.6-36.5C456.2,173.5,450.1,163.7,442.3,154.8z"/>
	<path d="M406.5,344.6c-1.2,0.1-2.1,0.1-3,0.4c-4.9,1.3-9.6,3.2-14.6,3.9c-3.9,0.5-6.2,2.2-8.5,5.3c-6.9,9.3-10.7,19.5-11.7,31.1
		c-0.8,9.5-2.6,18.9-3.9,28.3c-0.4,2.7,0.7,5.2,2.6,6.5c8,5.5,16,11,24.3,15.9c9.5,5.6,16.9,12.9,19.3,23.7
		c2.7,12.6,4.8,25.3,6.4,38c1.5,12.6,1.7,25.4,3.2,38c0.9,7.2,2.6,14.4,4.9,21.3c2.2,6.7,10.2,11.4,16,10.7c1.7-0.2,2.6-0.8,2.8-2.6
		c1.1-10,2.6-19.9,3.5-29.9c1.6-19.2,3.1-38.4,4.3-57.6c0.5-7.5,0.7-15,0.4-22.5c-0.5-11.3-3.9-21.9-9.4-31.8
		c-5.3-9.6-10.1-19.4-15.9-28.7c-5.5-8.9-12.1-17.2-18-25.8c-1-1.5-1.5-3.7-1.7-5.6c-0.4-3.3-0.2-6.7-0.4-10
		C407,350.5,406.8,347.7,406.5,344.6z"/>
	<path d="M125.9,431.3c0-0.2-0.1-0.8-0.3-1.5c-2.4-8.6-4.9-17.2-7.3-25.8c-2.1-7.5-5.1-14.7-9-21.5c-0.8-1.4-1.4-1.6-2.9-1
		c-1.8,0.8-3.8,1.4-5.8,1.9c-13.4,3-26.5,6.7-39.3,11.7c-11.5,4.5-22,10.2-29.8,20c-7,8.8-11.8,18.7-13.6,29.9
		c-1.9,12.1-0.5,24.1,1.3,36c1.2,8.1,3.4,16.1,5.6,24c1.7,6.1,3.8,12.1,6,18c1.2,3.2,3,3.7,6.3,2.5c2.7-1,4.3-3,5.1-5.5
		c3.8-12.1,3.2-23.7-3.5-34.8c-6.8-11.3-8.5-23.4-6-36.2c3.7-18.1,20-28.2,34.6-30.4c1.8-0.3,2.8-0.8,3.6-2.5
		c3.4-6.8,7.3-13.3,13.1-18.4c5-4.3,10.7-7.2,17.2-8.6c-1.2,1.3-2.6,2.2-3.9,3.3c-4.5,3.8-9.5,7.3-13.4,11.6
		c-9.5,10.5-12.9,23.7-15.3,37.2c-1.6,9-2,18.2-1.2,27.3c0.8,9,1.4,18.1,3,26.9c2.3,13.1,4.3,26.2,4.8,39.5
		c0.4,12.1,0.8,24.1,1.2,36.2c0.1,3.4,2.2,6,5,6.3c2.5,0.3,5-1.6,6-4.8c0.9-2.9,1.6-5.8,2.4-8.7c1.8-6.8,4-13.6,5.2-20.6
		c2.9-17,0.7-34-1.7-50.9c-1.3-9-3-18-1.1-27.2c1.2-5.7,2-11.6,5.7-16.2C105.3,440.5,115.5,435.9,125.9,431.3z"/>
	<path d="M235.5,445c0-0.2,0.1-0.4,0.1-0.6c-0.4,0.3-0.8,0.5-1.2,0.8c-0.5,0.4-1,0.9-1.4,1.3c-7.8,7-16.2,13.2-26.2,16.6
		c-3.9,1.3-5.9,3.5-7.2,7.2c-4.9,13.6-6.8,27.5-5.1,41.8c1.4,11.4,5.6,21.7,11.8,31.2c2,3,4.1,6,6.3,9.2c19.4,0,39.3,0,58.8,0
		c-7.7-34.9-10-69.5,2-103.5c-9.2-0.8-18.8-1.5-28.4-2.5C241.7,446.3,238.6,445.6,235.5,445z"/>
	<path d="M414.6,537.9c-0.3-5.6-0.6-11.3-1-17c-1.1-17.2-3.3-34.2-6.2-51.1c-2.1-12-7-21.5-17.7-27.7c-3.6-2.1-6.9-4.8-10.5-7.4
		c0,3.4-2.2,5.6-5.4,5.6c-3.9,0-7.8,0-11.7-0.2c-1.5-0.1-2.4,0.4-3.1,1.7c-3.1,5.9-7.7,10.5-13.5,13.8c-3.1,1.7-6.4,3-10,4.6
		c5.3,29,11.7,58.2,7.6,88.7C367.4,545.5,391.4,544.6,414.6,537.9z"/>
	<path d="M330.5,459.2c-0.5,0-1.4-0.1-2.4-0.2c-10.7-1.2-20.2-5.3-28.7-11.9c-1.9-1.5-3.6-1.9-6-1.2c-4.5,1.2-9,2.1-13.6,2.6
		c-1.9,0.2-2.6,0.8-3.2,2.5c-5,13.7-6.8,28-6.9,42.5c-0.1,8.6,0.2,17.1,0.5,25.7c0.4,11,2.5,21.7,6.2,32c0.2,0.7,1.3,1.5,2,1.5
		c1.9,0.1,3.7-0.1,5.6-0.2c12.4-0.6,24.9-1.1,37.3-1.8c6.1-0.3,12.3-1,18.2-1.5C340.2,518.8,337.6,488.9,330.5,459.2z"/>
	<path d="M449.7,420.5c3.3-0.9,6.7-2.3,10.3-2.7c11.7-1.2,23.5-2.2,35.3-3c13.5-0.9,26.8,0.1,39.9,3.9c10.1,3,18.4,8.4,23.2,18
		c5.2,10.4,6.3,21.7,5.3,33.1c-1.1,13.2-3.6,26.1-6.4,39c-1.3,6.3-1.4,12.9-1.8,19.4c-0.1,2.9,1.5,3.9,3.9,2.4
		c2.2-1.3,4.5-3.2,5.7-5.4c5.9-11,11.1-22.2,14.4-34.3c5.6-20.7,5.4-41.3-2.5-61.4c-6.5-16.8-16.8-30.8-32.3-40.5
		c-6.7-4.2-13.7-8-21.8-8.4c-13-0.7-25.9-0.6-38.7,2.3c-9.6,2.2-19,5.2-27.8,9.6c-4.5,2.3-9.5,3.5-14.6,2.2
		c-2.7-0.7-5.4-1.4-7.3-1.9C439.4,401.8,444.6,411.2,449.7,420.5z"/>
	<path d="M192.3,628.3c8.4,1.2,17,2.5,25.7,3.6c12.3,1.5,24.6,3.1,36.9,4c16.6,1.2,33.2,0.5,49.8,1.8c10.7,0.9,21.6-0.4,32.5-0.9
		c10.8-0.5,21.6-1,32.4-1.6c9.4-0.5,18.7-1,28-1.7c14.8-1,29.6-2,44.4-3.1c0.5,0,0.9-0.2,1.5-0.3c0-7.2,0-14.2,0-21.5
		c-1.5,0.4-2.8,0.9-4.1,1c-7,0.8-13.9,1.8-20.9,2c-11.1,0.5-22.3,0.6-33.5,0.5c-9.8,0-19.5-0.8-29.3-0.7
		c-13.4,0.2-26.7,0.9-40.1,1.4c-8.5,0.3-17.1,0.8-25.6,1.3c-11.1,0.5-22.3,1.4-33.4,1.6c-11.2,0.2-22.4,0.1-33.5-0.3
		c-8.9-0.3-17.9-0.7-26.5-3.8c-1.9-0.7-3.8-1.1-5.6-1.6C191.4,616.2,191.9,622.1,192.3,628.3z"/>
	<path d="M474.6,523.1c17.1-6.6,33.1-15.2,48.5-25.3c2.1-1.4,4.3-2.6,3.8-5.8c-0.1-0.6,0.3-1.4,0.6-2.1c2.5-6.2,2.3-12.5,0.9-19
		c-1.9-8.7-6.5-16-11.7-23.1c-6.6-9-14.6-16.2-24.5-21.5c-5.7-3.1-11.1-5.2-17.8-3.8c-7.5,1.5-15.1,2.2-22.4,3.3
		c2,6.4,3.9,12.4,5.8,18.3c0.2,0.6,0.8,1.2,1.3,1.7c2.8,3.7,6,7.2,8.3,11.1c8.8,14.9,10.6,31.3,9.8,48.1
		C476.8,511.1,475.5,517,474.6,523.1z"/>
	<path d="M462.6,721.5c-4.8-3.5-8.9-6.5-13-9.4c-0.7-0.5-1.6-1.1-2.3-1.1c-3.7,0.1-7.5,0.4-11.2,0.6c-14.3,0.8-28.6,1.7-42.9,2.2
		c-16.5,0.6-32.9,1.1-49.4,1.2c-28.8,0.1-57.6-0.2-86.4-0.5c-12.1-0.1-24.3-0.6-36.4-1c-11.2-0.3-22.2-2-32.6-6.4
		c-1.3-0.6-2-0.3-2.9,0.8c-2.3,2.9-4.6,5.7-7,8.5c-1.3,1.5-2.6,3-4.3,4.8c4,1.4,7.4,2.8,11,3.7c3.6,0.9,7.4,1.3,11.1,1.8
		c14.4,2,28.8,3.8,43.3,4c11.6,0.2,23.3,1.2,34.9,1.3c14.1,0.2,28.2,0.1,42.3-0.2c12-0.3,24.1-0.9,36.1-1.5
		c16.1-0.8,32.2-1.4,48.3-2.5c15.4-1,30.7-2.3,46-3.7C452.3,723.8,457.2,722.5,462.6,721.5z"/>
	<path d="M196.8,466.4c-1.2,0.2-1.6,0.3-2,0.4c-14.6,3.2-28.8,2.6-42.2-4.7c-0.6-0.3-2-0.2-2.6,0.3c-6.2,5.4-10.5,12.1-12.7,20.1
		c-2,7.3-1.2,14.7-1.5,22.1c-0.6,16.8,6.5,29.9,19.1,40.4c0.4,0.4,1.2,0.5,1.8,0.6c11.7,1.9,23.4,3.9,35.1,5.6
		c4.5,0.7,9.1,0.9,13.9,1.3C185.9,525.6,184.3,497,196.8,466.4z"/>
	<path d="M481.3,206.3c20.6-18.7,44.4-29.4,71.8-32.1c-0.2-0.5-0.3-1.1-0.6-1.7c-7.9-16.9-16.9-33.2-27.4-48.6
		c-1.5-2.2-2.9-3-5.3-1.7c-0.9,0.5-2,0.6-3,0.8c-17.5,3.6-30.5,14-40.6,28.1c-4.6,6.4-8.1,13.7-12,20.6c-0.4,0.7-0.1,2,0.3,2.8
		c4.3,7.8,8.7,15.4,12.9,23.2C478.9,200.5,480.1,203.5,481.3,206.3z"/>
	<path d="M207,250.4c4-0.5,8.2-0.5,12.1-1.5c5.5-1.4,10.8-3.6,16.2-5.2c2.3-0.7,4.9-1.6,7.1-1c5.5,1.6,10.9,1.5,16.4,0.9
		c9.2-1.1,17.1-5.3,24.2-11.3c5.4-4.6,7.4-10.1,6.4-16.9c-1-6.4-4.8-10.2-10.8-12.6c-7.3-2.9-14.8-3.1-22.4-2.5
		c-3.5,0.3-7.3,1.5-10.3,3.3c-3.9,2.4-7.3,5.8-10.9,8.7c-3.6,2.9-5.9,3.1-9.7,0.5c-6.5-4.5-13.8-5.1-21.3-4
		c-3.9,0.6-7.4,2.4-10.2,5.4c-4.9,5.3-6.9,11.9-8,18.8c-1.1,6.6,1.1,10.9,6.8,14.4C197,250.1,201.9,250.1,207,250.4z"/>
	<path d="M442.5,688.3c-0.9,0.1-1.7,0.1-2.4,0.2c-7.9,1.2-15.7,2.7-23.6,3.5c-12.1,1.2-24.2,2.6-36.3,2.8
		c-21.5,0.3-43.1-0.3-64.6-0.5c-5.4-0.1-10.8-0.2-16.1-0.3c-20.7-0.5-41.4-0.9-62.1-1.5c-6.9-0.2-13.9-0.7-20.7-1.8
		c-8.9-1.5-17.9-2.2-26.8-6.2c0,5,0.2,9.5-0.1,14.1c-0.1,2.3,0.7,3.2,2.8,3.8c16.4,5.1,33.5,6.1,50.4,6.5
		c21.8,0.4,43.6-0.2,65.3-0.4c14.3-0.2,28.5-0.4,42.8-0.7c11.1-0.2,22.2-0.5,33.2-0.8c5.9-0.1,11.7-0.2,17.6-0.5
		c12.6-0.5,25.2-1.1,37.8-1.7c0.8,0,1.5,0,2.6,0C442.5,699.1,442.5,693.9,442.5,688.3z"/>
	<path d="M501.3,289.4c25.6-13.2,52.7-14,80.8-9.5c-1-5-1.8-9.8-2.8-14.6c-2.3-10.8-4.7-21.6-7-32.4c-0.3-1.7-0.9-2.3-2.6-2.3
		c-10.4,0-20.6,1-30.8,2.9c-12.2,2.3-23.9,5.7-34.7,11.7c-3,1.7-6,3.4-8.9,5.1C497.2,263,499.2,276,501.3,289.4z"/>
	<path d="M191.2,645.3c9.5,1.8,18.7,4,28,5.3c8.6,1.2,17.4,1.6,26,2.4c14.8,1.4,29.5,3.2,44.3,4.3c18.5,1.4,37,0.3,55.5-0.6
		c9.7-0.5,19.4-0.9,29-1.7c12.8-1.1,25.6-2.4,38.4-3.8c6.2-0.7,12.4-2,18.6-2.6c3.9-0.4,7.9-0.1,12.2-0.1c0-4.8,0-9.2,0-13.7
		c-0.7,0-1.5,0-2.3,0.1c-5.3,0.6-10.7,1.3-16,1.8c-10.1,0.8-20.1,1.6-30.2,2.2c-9.4,0.6-18.9,1-28.3,1.5c-7.8,0.4-15.6,0.8-23.4,1.1
		c-9.9,0.5-19.9,1.4-29.8,1.4c-11.7,0.1-23.5-0.5-35.2-0.9c-8.2-0.3-16.4-0.7-24.6-1.4c-9.7-0.8-19.4-1.9-29.1-3.1
		c-7.6-0.9-15.1-2.1-22.7-3.4c-3.2-0.5-6.2-1.7-9.6-2.6C191.6,636.1,191.4,640.4,191.2,645.3z"/>
	<path d="M588.4,331.2c-0.2-3.3-0.3-6.5-0.7-9.7c-1.5-11.5-3.2-23.1-4.5-34.6c-0.3-2.3-1.3-3-3.2-3.2c-1.6-0.2-3.2-0.5-4.8-0.5
		c-8-0.3-16.1-0.8-24.2-0.6c-6,0.1-12,0.7-18,1.8c-10.3,1.8-20.2,4.8-29.8,9c-1.4,0.6-1.9,1.1-1.8,2.8c0.6,8,1.1,15.9,1.6,23.9
		c0.3,4.4,0.4,8.7,0.6,13.3c1.4-0.8,2.5-1.6,3.8-2.1c8.9-3.5,18.1-5.8,27.7-5.9c4.6,0,9.3,0,13.9,0.3c7.1,0.5,14.3,1.1,21.4,2.1
		C576.4,328.4,582.3,329.9,588.4,331.2z"/>
	<path d="M493.8,245.3c1.2-0.9,2.4-1.9,3.7-2.6c2.7-1.6,5.3-3.7,8.2-4.7c9.3-3.3,18.7-6.5,28.2-9.2c10.8-3,21.9-3.2,33-3
		c1.1,0,2.2,0,3.3,0c0-0.6,0.1-0.9,0-1.1c-4.1-12.9-7.9-25.9-12.3-38.7c-2.5-7.3-2.9-6.9-10.7-6.1c-13.2,1.4-25.3,6.3-37.1,12.1
		c-9.5,4.6-18.6,9.7-25.8,17.7c-1,1.1-1.1,1.9-0.6,3.2c2.2,6.3,4.3,12.6,6.3,19C491.5,236.6,492.7,241.3,493.8,245.3z"/>
	<path d="M190.6,666.6c-0.2,4.1-0.4,8.3-0.5,12.5c0,0.5,1,1.5,1.6,1.6c12.1,2.3,24.2,5,36.4,6.7c7.5,1.1,15.3,0.7,22.9,0.9
		c16.5,0.3,32.9,0.5,49.4,0.8c10,0.2,20,0.5,30.1,0.5c28.4-0.2,56.8,1.2,85-2.5c8.5-1.1,16.9-2.3,25.4-3.5c1.2-0.2,1.9-0.5,1.9-2
		c-0.1-3.2-0.1-6.4,0-9.5c0-1.8-0.6-2-2.2-1.8c-13,1.8-26,3.8-39,5c-12.7,1.2-25.5,1.9-38.3,2.2c-12.5,0.3-25.1-0.2-37.6-0.5
		c-14.6-0.3-29.2-1-43.7-1.1c-20.6-0.2-41.2-1-61.7-3.4C210.2,671.3,200.3,670.2,190.6,666.6z"/>
	<path d="M145.3,544.3c0.1-0.3,0.2-0.7,0.3-1c-0.4-0.4-0.7-0.9-1.1-1.3c-7.9-10-12.8-21.2-13.4-33.9c-0.7-12.9,1.7-25.3,6.9-37.1
		c1.9-4.3,4.6-7.8,8.6-10.3c0.5-0.3,0.9-0.7,1.4-1.1c-1.9-1.4-3.9-2.3-5.3-3.9c-3.4-3.9-7.1-3.7-11.6-2.2
		c-14.5,4.9-27.7,18.7-27.1,35.1c0.1,3.3-0.5,6.7-1,10c-0.1,0.6-0.9,1.1-1.4,1.7c-2.4-12-1.7-23.3,4.7-33.4
		c6.3-10,15.8-16.2,27.3-19.3c-2-3.3-3.8-6.3-5.9-9.8c-5.3,2.6-10.7,4.8-15.6,7.6c-4.9,2.8-9.5,6.4-11.8,11.7
		c-3.2,7.5-4.2,15.4-2.8,23.5c2.6,15.4,4.8,30.8,4.7,46.4c0,2.5,0.6,3.8,2.9,4.7c4.3,1.6,8.3,3.8,12.6,5.1
		C127,539.5,136.2,541.8,145.3,544.3z"/>
	<path d="M190.6,662.5c0.4,0.2,0.7,0.3,1,0.4c14.8,4.2,29.9,6.4,45.2,7.1c11.6,0.5,23.1,1.2,34.6,1.5c16.2,0.4,32.4,0.8,48.7,0.8
		c19,0,38-0.2,57-0.6c17-0.3,33.9-1.4,50.6-4.1c5-0.8,10.1-1.6,15-2.3c0-4.3,0-8.5,0-12.9c-3.8,0.6-7.3,1.2-10.8,1.7
		c-12.1,1.5-24.2,3.1-36.4,4.3c-11.7,1.1-23.4,1.8-35.1,2.5c-11.5,0.7-22.9,1.4-34.4,1.6c-11.6,0.2-23.2,0-34.8-0.2
		c-7.3-0.2-14.6-0.6-22-1.2c-12.2-1.1-24.5-2.3-36.7-3.7c-7.5-0.8-15.1-1.6-22.5-2.9c-6.2-1.1-12.4-2.8-18.6-4.3
		C191.1,653.8,190.8,658.1,190.6,662.5z"/>
	<path d="M588.8,337.1c-6.8-1.4-13.5-2.9-20.1-4.2c-11.6-2.2-23.3-2.6-35-2.4c-10.1,0.1-19.7,2.1-28.6,7c-0.6,0.3-1.2,1.3-1.2,2
		c-0.1,8.1,0,16.2,0,24c1.8-0.8,3.9-2.2,6.1-2.5c7.5-1.1,15-2.1,22.6-2.5c17.3-1,33.8,2.4,49.7,9.1c2.1,0.9,4.2,1.9,6.8,3
		C588.8,359.3,588.8,348.4,588.8,337.1z"/>
	<path d="M267.6,350.7c3,0,5.9-0.5,8.6,0.1c5.8,1.3,11.4,3.2,17.1,4.7c7.4,1.9,14.6,2.2,21.6-1.5c3.8-2,5.5-5.1,4.1-9.2
		c-0.7-2.2-2-4.2-3.5-6.1c-4.2-5.4-5.5-11.4-3.5-17.9c1.5-4.8,1.6-9.4,0-14.1c-1-3-3.3-4.8-6.4-4c-5.9,1.6-11.8,3.1-17.3,5.7
		c-5.2,2.4-9.6,6.3-14.6,9.2c-2.5,1.4-4,2.6-3.3,5.9c0.4,1.9-0.5,4.1-0.7,5.9c3.8-1.3,7.5-2.9,11.3-3.7c4-0.8,8.1-1,12.1-1.1
		c3.9-0.2,7.8-0.4,11.5,1.8c-4.7,1.2-9.3,2.3-14,2.7c-7,0.6-14,0.6-20.4,4.2c-1.1,0.6-1.8,1.1-1.8,2.4
		C268.3,340.7,267.9,345.7,267.6,350.7z"/>
	<path d="M227.4,333.1c0.2-0.1,0.4-0.2,0.6-0.3c-0.3-3.3-0.5-6.6-0.9-9.8c-0.1-0.6-0.9-1.3-1.6-1.6c-9.1-4.4-18.6-7.3-28.5-8.9
		c-4.8-0.8-9,0.2-12.9,3.2c-1.8,1.5-2.6,3.2-2.5,5.5c0.2,5.2,1.4,10.2,4.5,14.5c1.1,1.6,1.3,3,0.7,4.8c-1.4,4.2-2.9,8.5-4,12.8
		c-0.4,1.6-0.5,4,0.4,5.2c4.2,5.8,11.9,8,18.8,6c6.9-2,13.3-5.2,19.5-8.7c3.2-1.8,5.1-3.9,5.1-7.7c0.1-4.1,0.6-8.1,1-12.1
		c-6.7-0.2-12.9-0.8-19-0.5c-6.1,0.3-12.1,1.5-18.4,2.4c0.2-0.5,0.3-0.8,0.5-0.9c5.3-1.5,10.5-3.4,15.8-4.5
		c3.6-0.7,7.5-0.1,11.2-0.5C221.3,331.6,224.5,331,227.4,333.1z"/>
	<path d="M493.3,420.6c0,0.3-0.1,0.7-0.1,1c0.6,0.3,1.3,0.7,1.9,1c6.5,2.6,12.5,6.2,17,11.6c5.1,6.1,10,12.5,14.4,19.1
		c4.6,7,7.2,15,7.6,23.4c0.2,4.3,0,8.6,0,12.8c-0.1,0,0.3,0,0.5-0.2c7.5-6.8,15-13.5,22.4-20.3c0.3-0.3,0.5-0.9,0.5-1.3
		c0.3-8.9-0.2-17.8-4.3-26c-2.2-4.4-4.1-9-8.8-11.6c-6.2-3.4-12.7-6.6-19.7-7.4C514.3,421.6,503.8,421.3,493.3,420.6z"/>
	<path d="M502.9,374.1c36.9-3.5,61.4,14.2,77.4,46.6c4.7-15.1,6.9-30.2,8-45.1c-4.6-1.5-9-2.6-13.1-4.5c-5.5-2.6-11.1-4.5-17.1-5.5
		c-11-1.9-22.1-1.8-33.2-1.1c-6.6,0.4-13.1,1.1-19.3,3.8C503.1,369.5,502.3,371.1,502.9,374.1z"/>
	<path d="M77.3,308.4c21.1,11.4,39.3,26.5,56.9,43.5c1.2-6.5,2.2-12.3,3.2-18.1c0.1-0.4-0.5-1-0.9-1.4c-2.5-2.6-5.6-4.9-7.4-7.9
		c-6.4-10.6-12.3-21.4-18.4-32.2c-0.8-1.4-1.6-2.1-3.1-2.2c-3.7-0.2-7.3-0.5-11-0.6c-4.4-0.1-8.8,0-13.3,0
		C81.3,295.6,79.3,302,77.3,308.4z"/>
	<path d="M181,364.9c0.1-0.3,0.1-0.4,0.1-0.4c-0.2-0.3-0.3-0.5-0.5-0.8c-3.8-4.8-4.8-10-2-15.7c1.1-2.3,2.3-4.7,3.3-7.1
		c0.3-0.7,0.4-1.9,0-2.5c-2.8-4.5-4.3-9.4-4.6-14.7c-0.5,0-0.8-0.1-1.1,0c-11,3.1-22.1,6.2-33.1,9.4c-0.7,0.2-1.4,1.3-1.6,2
		c-0.9,5.2-1.7,10.4-2.4,15.7c-0.1,0.9,0.2,2.1,0.8,2.7c3.6,3.6,7.9,6.4,12.9,7.5c5.3,1.1,10.7,1.6,16.1,2.4
		C173,363.9,177,364.4,181,364.9z"/>
	<path d="M317.7,358.9c3.5-0.3,6.5-0.8,9.6-0.9c2-0.1,3.1-0.8,4.1-2.6c7.8-14,16.4-27.4,26.6-39.7c1.7-2.1,2.7-3.9,1.1-7
		c-13.5,0-27.3,0-41.2,0c1.3,5.6,0.4,11.3-1.1,17c-0.4,1.7,0,3.9,0.7,5.6c1.6,3.8,3.6,7.5,5.6,11.1c2.3,4.4,2.4,8.6-1,12.5
		C321,356.2,319.5,357.4,317.7,358.9z"/>
	<path d="M363.2,192.7c-1.8,9-6.3,16.4-13.4,22c-2.6,2.1-5.8,4.7-8.8,4.9c-5.6,0.4-11.4,1.3-17.1-1.6c-13.6-6.9-21.8-16.7-21-32.6
		c0.4-7.9,3.2-14.9,8.9-20.6c5.3-5.2,11.4-7.8,19.1-7.5c9,0.4,16.9,3.1,23.7,8.9c2.3,2,4,4.6,6,6.9c-0.7-2-1.3-4.2-2.6-5.9
		c-6.2-8.4-14.6-13.4-24.8-15.7c-2.2-0.5-4.5-1.9-6.5-1.4c-12.6,2.8-22.8,9.4-29.8,20.4c-5.5,8.6-6.3,18-3.7,27.7
		c2.6,9.9,7.6,18.1,17,23.1c7.1,3.8,14.8,4.1,22.6,3.6c5.3-0.3,10.4-1.8,14.8-4.6C357.7,213.9,361.5,203.7,363.2,192.7z"/>
	<path d="M232.5,353.2c6.4,0,12.8,0.1,19.1,0c3.2-0.1,6.3-0.6,9.4-1c2-0.3,2.8-1.4,2.7-3.6c-0.2-4.9-0.3-9.9,0-14.8
		c0.2-4.6,1-9.2,1.5-14c-2.1-0.4-4-0.7-6.1,0.3c-2,1-4.3,1.4-6.6,1.7c-5.8,0.7-11.6,1.3-17.5,1.8c-2.1,0.2-2.9,1-2.8,3.3
		c0.3,2.9,0.1,5.8,0.1,8.8C232.5,341.3,232.5,347,232.5,353.2z"/>
	<path d="M50.8,491.6c-1.5-6.1-1.7-12.1-0.5-18.1c1.4-7.6,4.1-14.5,10.4-19.6c0.8-0.6,1.2-1.9,1.3-3c0.5-8.2,1.9-16.2,4.6-23.9
		c0.2-0.7,0.4-1.4,0.7-2.5c-12.4,2.6-21.4,9-26.7,20.2c-4.3,9.1-3.5,18.3-1.2,27.7C41.1,480,44.8,486.4,50.8,491.6z"/>
	<path d="M455.5,528.2c3.5-0.8,7.3-1.7,11.1-2.7c0.6-0.2,1.4-0.7,1.6-1.2c1-2.7,2.3-5.4,2.6-8.2c0.8-6.5,1.5-13.1,1.5-19.6
		c0.1-11.4-2.3-22.5-7-32.9c-1.8-3.9-3.9-7.6-5.8-11.1C458.2,477.7,456.9,502.9,455.5,528.2z"/>
	<path d="M262.9,392c-1.5,3.4-2.9,6.2-4,9.1c-2.7,7.2-5.1,14.5-8.1,21.7c-1.4,3.3-3.5,6.3-5.4,9.6c12.7,0.6,25-3.1,38-1.3
		C274.5,419.1,269.7,405.5,262.9,392z"/>
	<path d="M486.1,133.7c-15,2.9-30,5.8-45.1,8.8c0.3,2.4,0.7,4.8,1,7.2c3-0.5,4.1,1.7,5.5,3.3c4.4,5,8.5,10.2,13,15.5
		C468.2,156.2,474.1,142.5,486.1,133.7z"/>
	<path d="M105.8,377.4c-2.6-3.2-5.2-6.5-7.9-9.6c-0.3-0.4-1.2-0.7-1.7-0.7c-7.7,0.9-15.3,1.9-23,2.6c-4,0.4-5.7,2-5.8,6.1
		c-0.1,3.8-1,7.6-1.5,11.2C79.3,383.8,92.4,380.6,105.8,377.4z"/>
	<path d="M94,253.1c-5,10.5-6.7,21.4-9.7,31.8c7.6,0,14.9,0,22.2,0C102.3,274.4,98.2,264,94,253.1z"/>
	<path d="M61.3,458.6c-4.3,4.9-7.3,10.6-7.4,17.1c-0.1,6.6,0.8,13.3,1.4,19.9c0.1,0.8,0.5,1.8,1.1,2.4c3.3,3.3,6.8,6.4,10.6,10
		C64.9,491.2,61,475.2,61.3,458.6z"/>
	<path d="M91.9,362.4c0.2-0.3,0.3-0.6,0.5-0.9c-6.3-5-12.6-10-19.3-15.3c-1.5,7.3-2.9,13.8-4.4,20.8C76.6,364,84,362.1,91.9,362.4z"
		/>
	<path d="M411.9,323.2c-9.7,4.8-16.7,11.7-22.5,20.3c7.6-3.7,15.7-4.5,24-5C412.9,333.2,412.4,328.4,411.9,323.2z"/>
	<path d="M277.5,309.5c-17.7-0.4-33.9,5.3-50.7,6.9c2,1,4.1,2.2,6.1,2.1c6.5-0.4,13-1.1,19.4-1.9c4.3-0.5,8.7-2,12.9-1.7
		C270.4,315.2,273.2,311.7,277.5,309.5z"/>
	<path d="M242.5,198.6c-2.2-2.9-16.6,0.3-23.1,5.6c3.5,2,6.9,3.9,10.2,5.7c0.5,0.3,1.5,0,2-0.4c2.8-1.9,5.6-3.8,8.3-5.9
		c0.5-0.3,0.6-1.1,0.9-1.7C241.4,200.9,241.9,199.8,242.5,198.6z"/>
	<path d="M338.8,180c3.1,0,6.7-2.8,6.1-5.4c-0.4-1.9-2.2-4.6-3.8-4.9c-4.2-0.7-7.2,1.6-7,4.4C334.2,177,335.3,180.3,338.8,180z"/>
	<path d="M216,365.3c7.6,2.7,11.3-2.5,15.8-6.3C225.4,358.2,221.8,363.7,216,365.3z"/>
	<path d="M412.9,351.6c0.4,5.5-2,11.7,3.2,16.7C415,362.5,414,357,412.9,351.6z"/>
	<path d="M520.5,117.6c-0.9-1.4-1.6-2.6-2-3.4c-1.9,1.8-3.6,3.6-4.9,4.9C515.3,118.7,517.7,118.2,520.5,117.6z"/>
	<path d="M290.9,362.1c0.1-0.3,0.2-0.6,0.3-0.9c-1.9-0.6-3.9-1.1-5.8-1.7c-0.1,0.2-0.1,0.5-0.2,0.7
		C287.1,360.9,289,361.5,290.9,362.1z"/>
	<path class="st0" d="M356.9,222.2c0.7,27.5,1.4,55,2,82.7c-2.6,0-5.7,0.1-8.8,0c-6.3-0.2-12.5-0.5-18.8-0.7
		c-4.2-0.1-8.3-0.1-12.5-0.3c-0.9,0-2-0.7-2.5-1.4c-3.1-4.7-7.9-6.8-13.3-5.1c-4.3,1.4-8.4,3.4-12.6,5.1c-1.3,0.5-2.6,1-3.9,1.1
		c-10.9,1.1-21.8,1.9-32.6,3.3c-7.7,1-15.3,2.9-22.9,4.4c-3,0.6-6,1.3-9,1.8c-0.9,0.1-2,0.1-2.8-0.3c-7.3-3.2-15-5-22.8-6.1
		c-6.5-0.9-12.4,1-17,5.7c-1.5,1.5-1.9,4.2-2.9,6.6c-11.8,3.1-24,6.3-36.9,9.7c-4.1-5.7-8.8-11.8-12.9-18.2
		c-16.5-25.6-27.1-53.7-33.3-83.4c-3-14.3-5.1-28.7-7.6-43.1c-0.1-0.8-0.3-1.5-0.5-2.3c-0.3,0-0.6,0-0.6,0.1
		c-2.3,3.4-2.3,3.4-6.3,2.6c-7-1.4-14.2-2.4-21-4.2c-15.1-4.1-26.9-13-36.1-25.6c-6.6-9.1-11.5-18.9-13.8-29.9
		c-1.3-6.5-1.8-13.1-0.8-19.7c1.4-8.9,7.5-14.2,14.8-18.3c16-9,33.3-11.9,51.5-11.4C82,75.5,90,78.5,98.5,80
		c3.1,0.5,6.2,1.1,9.4,1.5c1.8,0.3,2.8,0.1,3.3-2.2c0.6-2.4,2.4-4.6,4-6.7c11.3-14.6,24.8-26.7,40-37.1
		c20.2-13.8,42.4-22.5,66.4-26.9c16-3,32.1-2.7,48.2-1.7c10.2,0.6,20.5,1.7,30.5,3.5c18.3,3.4,35.9,8.9,52.5,17.5
		c9.1,4.7,17.4,10.5,25.4,16.9c4.7,3.8,9.4,7.6,14.3,11.1c6.7,4.8,11.3,11.4,16.5,17.6c5.7,6.8,11,14,14.7,22.1c2.7,5.9,5,12,7.5,18
		c0.7,1.6,1.4,3.3,4,3.7c-5.9-27.7-20.2-49.8-41.4-68.3c5.6-4.1,11-8.3,16.6-12.1c9.9-6.8,20.5-12.3,31.6-16.9
		c9.4-4,19.3-5.3,29.6-5.1c10,0.2,19.8,1.5,29.4,4.3c5.3,1.6,10.7,3.1,15.2,6.4c8.9,6.6,14.2,15.3,15.1,26.5
		c0.7,8.3-1.2,16.2-3.3,24.1c-2.9,10.8-7.2,21.1-13.1,30.6c-5.2,8.5-12.7,13.8-22,17.3c-10.2,3.8-20.6,6.8-31.3,8.4
		c-5.5,0.9-11,0.9-16.5,1.8c-3.1,0.5-6.1,1.7-9.1,2.7c-1.2,0.4-1.6,1.2-1.4,2.7c1.6,9.9,1.9,20,1.4,30c-0.5,10.8-0.8,21.7-2,32.4
		c-1.3,11.7-3.5,23.3-5.6,34.9c-1.5,8.6-3.3,17.1-5.3,25.6c-0.9,3.7-2.3,7.3-3.6,10.9c-0.2,0.5-1,1.1-1.5,1.2
		c-17.2,4.3-32.4,12.5-45.6,24.4c-2.5,2.3-4.6,5-7.3,8c-0.2-1.2-0.4-2-0.4-2.8c-0.1-11.6-0.1-23.2-0.2-34.8
		c-0.1-11.6,0-23.2-0.6-34.7c-0.3-5.1-1.9-10.2-3.1-15.2c-0.3-1.4-0.3-2.2,0.5-3.5c8.2-12.4,12.1-25.8,7.9-40.6
		c-4.9-17.4-17.1-26.9-34.4-30.3c-0.8-0.2-1.6-0.1-2.4,0c-2.9,0.3-5.8,1-8.7,1c-6-0.1-10.9,2.5-15.6,5.5
		c-5.4,3.4-10.3,7.4-13.8,12.7c-5.8,8.8-8.8,18.5-7.8,29.2c0.3,3,0.9,5.9,1.4,8.9c-12-8.4-25.4-8.1-39-6.5c-1.8,0.2-3.2,0.3-4.9-1
		c-1.4-1.1-3.6-1.5-5.4-1.4c-7.8,0.5-14.6,3.6-20.9,7.9c-0.9,0.6-2.3,0.9-3.5,1c-2.9,0.1-5.9-0.4-8.8-0.1c-8.4,1.1-14.5,5.6-18.6,13
		c-3.5,6.4-6.6,12.9-6.6,20.4c0.1,9.6,5.3,15.8,14.7,17.9c10.9,2.6,21.8,2.7,32.6-0.4c3.5-1,6.8-2.7,10.2-3.9
		c1.7-0.6,3.6-1.1,5.3-0.8c9.7,1.7,19.1,1,28.5-1.9c8.7-2.7,15.2-7.8,20-15.4c2.8-4.5,3.8-9.3,3.2-14.5c0.3-0.2,0.6-0.5,0.9-0.7
		c0.2,0.6,0.4,1.3,0.7,1.7c5.5,7.1,12.9,11.4,21.5,13.5c2,0.5,4.2,0.4,6.3,0.3c5.4-0.1,10.8-0.1,16.1-0.5c5.4-0.4,10-2.8,13.8-6.6
		c0.8-0.8,1.3-1.8,1.9-2.7C356.4,221.8,356.6,222,356.9,222.2z M171.2,213.4c-0.7-4.1-0.8-8.5-2.1-12.4c-3-8.9-11-15-22.1-14.6
		c-11.5,0.4-20.8,5.2-25.5,15.8c-7,15.9-2.4,33.6,11.4,44.9c7.1,5.8,19.8,6.6,26.6-2.1C166.8,235.8,170.8,225.4,171.2,213.4z
		 M147.4,45.3c-1.9-0.5-3.6,0.4-4.8,2.4c-0.4,0.7-1.2,1.3-2,1.8c-8.1,4.8-14.4,11.4-18.5,20c-2.8,5.8-5.2,11.8-4.6,18.5
		c0.2,2.7,2.2,4.5,4.8,4.5c4.9,0,9.3-1.7,13-4.8c7.1-6,13.1-13,17.2-21.3c1.9-3.7,3.6-7.5,3.4-11.8
		C155.7,47.9,153.5,45.3,147.4,45.3z M122.2,119.7c-0.5,2.8,0.4,6.1,3.3,7.8c5.6,3.2,10.7,3,14.8-3.2c4.2-6.4,6-13.4,6.9-20.9
		c0.7-6.2-3.9-11.2-10.1-11.1c-1.7,0-3.2,0.5-3.8,2.5c-0.2,0.7-0.9,1.2-1.4,1.7c-0.8,0.7-1.8,1.2-2.4,2
		C124.8,104.6,122.2,111.4,122.2,119.7z M262.8,252.1c-0.1-0.3-0.1-0.7-0.2-1c-1.2,0.1-2.4,0-3.5,0.4c-10.3,4.1-20.8,6.4-31.9,4.9
		c-1.1-0.1-2.4,0.2-3.5,0.6c-1.5,0.6-1.7,2-0.3,2.8c1.5,0.9,3.3,1.7,5.1,1.8c6.9,0.4,13.7,0.1,20.3-2.2
		C253.8,257.7,258.7,255.7,262.8,252.1z M101.2,127.9c0,0.6,0,1.3,0,2c0.1,3.1,2.9,4.5,5.6,2.9c4.6-2.8,7.8-11.8,6.1-17
		c-0.7-2.1-2.3-3-4.4-3.3c-2-0.3-2.4,1.1-2.9,2.6c-0.2,0.5-0.6,1-0.9,1.4C102.5,119.9,101.1,123.7,101.2,127.9z"/>
	<path class="st0" d="M140.9,360.5c3.8,1.6,7.5,3.3,11.4,4.7c8.5,3.1,17.4,5.1,26.5,5c7.5-0.1,14.9-0.8,22.4-0.8
		c4.6,0,9.2,1.1,13.8,1.5c5.1,0.4,10.3,0.6,14.4-3.1c2.6-2.3,5-4.4,8.4-5.5c1.1-0.4,1.7-2.3,2.6-3.6c-0.2-0.2-0.3-0.5-0.5-0.7
		c2.2,0,4.3,0.1,6.5,0c5.6-0.2,11.3,0.8,16.8-1.1c0.5-0.2,1.1,0.1,1.6,0.2c0.5,0.1,1.2,0.6,1.6,0.4c3.5-1.8,5.5,0.6,7.9,2.4
		c9.6,7.5,20.7,7.8,32.1,6.2c6-0.9,12.1-1.6,18.1-2.4c0.6-0.1,1.3,0,1.9,0c0,0.4,0.2,0.7,0.1,0.9c-3.2,8-6.4,16-9.8,23.9
		c-1.3,3.1-2.7,6.3-4.7,9c-1.2,1.6-3.7,2.3-5.3,3.3c2.4,1.7,7.5,0.6,9.5-2.4c4.2-6.4,7.2-13.5,10-20.6c5.5-14.1,13.6-26.7,22.3-38.9
		c7.3-10.2,14.7-20.4,22.9-29.8c12.6-14.4,28.6-23.5,47.3-28.1c7.5-1.8,14.9-1.7,22.2-0.4c2.5,0.5,5.1,1.7,7.3,3.2
		c5.1,3.6,5.2,6.7,0.3,11c-6.8,6-14.6,10.7-23,14.2c-13.6,5.7-25.8,13.4-35.8,24.4c-8.2,9-16.1,18.1-21.3,29.3
		c-4,8.7-4.7,18-5.6,27.4c-1,9.7-2.1,19.4-3.9,29c-1.2,6.5-2.7,13.2-5.7,19c-3.7,7.1-9.6,12.1-18.4,13.1c-10.5,1.2-19.9-0.9-28.4-7
		c-7.8-5.6-14.5-12.5-19.8-20.5c-9-13.5-15.9-28-21.6-43.1c-0.8-2-2-2.4-3.7-2.4c-1.7,0-2.2,1.2-2.7,2.6
		c-3.4,10.8-6.1,21.8-10.5,32.2c-7.7,18.3-20.6,32.3-38.3,41.5c-8.7,4.6-18.2,6.9-28.2,7c-8.4,0.1-16.6-0.4-24.4-3.7
		c-9.7-4.2-17-10.8-21.8-20.4c-4.9-9.7-7.5-20-10.1-30.5c-6.6-25.9-20.9-46.4-43.1-61.3c-10.4-7-21.4-12.6-33-17.2
		c-3.4-1.3-6.5-3.2-9.8-4.9c-0.4-0.2-0.9-0.5-1.2-0.8c-6.2-5.9-6.1-9.8,1.3-14c5-2.8,10.3-2.7,15.6-1.4c9.2,2.2,18.1,5.4,26.4,10
		c11.3,6.2,21.8,13.7,31.5,22.1c8.2,7.1,16.2,14.6,22,23.8c3.6,5.6,6.3,11.9,9.4,17.9c2.1,4,4.3,8,6.2,12.2
		c1.6,3.4,2.7,7.1,4.2,10.6c1.1,2.4,2.1,5,3.6,7.1c2.9,4,6.8,4.3,10.7,1.2c4.4-3.6,8.1-7.9,10-13.3c2.3-6.8,4.2-13.7,6.1-20.5
		c0.3-1.1,0.3-2.3,0.2-3.4c0-0.5-0.6-1.4-0.9-1.4c-0.6,0.1-1.2,0.5-1.6,1c-0.4,0.4-0.4,1-0.6,1.6c-2.5,7.5-4.7,15.2-7.7,22.6
		c-1.4,3.3-4,6.3-6.7,8.8c-2.7,2.6-5,1.8-6.4-1.8c-2.2-5.5-4.1-11.1-6.6-16.5C150.4,379.8,145.6,370.2,140.9,360.5z"/>
	<path class="st0" d="M556.9,479.6c-2.5,13.1-4.9,25.5-7.1,37.1c-2.2,1.7-4.1,2.7-5.4,4.2c-7.8,9-15.4,18.1-23.2,27.1
		c-9.2,10.6-20,19.4-31.5,27.3c-4.1,2.8-8.4,5.4-12.4,8.2c-3.3,2.3-6.3,5.2-9.8,7.2c-9.1,5.5-18.7,10-29.1,12.2
		c-6.6,1.4-13.5,1.9-20.4,2.2c-9.8,0.3-19.6,0.1-29.4,0.1c-12.5-0.1-25-0.4-37.4-0.2c-12.2,0.2-24.4,0.7-36.6,1.2
		c-11.8,0.5-23.6,1.3-35.4,1.6c-20.5,0.5-41.1,0.9-61.6,1c-8.1,0-16.1-2.1-23.9-4.5c-25.7-8.1-47.8-22.3-68.3-39.3
		c-5.1-4.3-10-8.9-15.2-13.1c-2.3-1.9-5.2-3.2-7.7-4.9c-0.6-0.4-1.3-1.3-1.3-1.9c0.2-3.3,0.7-6.6,1.1-9.8c14.9,9,31.4,12.4,48,15.2
		c13.1,2.2,26.3,4.4,39.5,6.2c7.8,1,15.8,1.5,23.6,1.7c20.1,0.5,40.3,0.9,60.4,1c8.9,0,17.8-0.6,26.7-1.2
		c10.2-0.6,20.3-1.3,30.5-2.2c9.4-0.8,18.8-1.9,28.2-2.8c18.2-1.8,36.2-4.4,53.9-8.9c1.7-0.4,2.5-0.2,3.1,1.8
		c1.5,5.2,3.1,10.5,5.1,15.5c3.7,9,12.9,14,22.5,12.8c2.9-0.4,4.8-2,5.3-4.9c1.4-7.5,2.7-15.1,3.9-22.6c0.6-3.8,0.7-7.6,1.1-11.5
		c0.1-1.1,0.1-2.1,1.7-2.1c8.4,0.1,16-2.9,23.5-6c20.1-8.1,39.1-18.2,56.6-30.9c6.5-4.7,12.5-10.1,18.8-15.2
		C555.3,480.7,555.8,480.4,556.9,479.6z"/>
	<path class="st0" d="M442.3,154.8c7.8,8.9,13.9,18.7,20.4,28.3c7.7,11.3,11.5,24.1,16.6,36.5c7.4,17.8,10.9,36.6,13.6,55.5
		c2,13.8,3.3,27.7,3.5,41.6c0.1,10,0.4,20,0.7,30.1c0.1,5.1,0.3,10.3,0.2,15.4c0,2.7-0.6,5.3-0.8,8c-0.1,1.3,0,2.7,0,4.2
		c-4.4,0.8-9.1,1.7-13.9,2.5c-7.6,1.3-14.1,5.4-21.2,7.9c-7.4,2.6-15.1,4.1-23,3.8c-1.1,0-2.5-0.6-3.2-1.4
		c-4.2-4.7-8.4-9.5-12.3-14.5c-0.9-1.2-1.2-3-1.5-4.6c-1.8-8.2-3.6-16.5-5.4-24.8c0.3,0.1,0.6,0.1,0.8,0.2c0.5-1,1.4-2.1,1.5-3.1
		c0.5-5.8,0.4-11.6-1.4-17.2c-0.6-1.8,0-2.3,1.4-3.1c9.7-5.3,19.4-10.6,29-16c5-2.9,8.7-7.1,10.4-12.8c1.5-4.8-1.1-8.3-4.4-11.2
		c-7.3-6.5-16.1-8-25.5-7.3c-0.3,0-0.6,0.2-0.9,0.4c-0.2,0.1-0.5,0.1-1.4,0.2C438.8,234.8,441.5,195,442.3,154.8z"/>
	<path class="st0" d="M406.5,344.6c0.2,3.1,0.5,5.9,0.6,8.7c0.2,3.3,0.1,6.7,0.4,10c0.2,1.9,0.6,4.1,1.7,5.6
		c5.9,8.7,12.5,16.9,18,25.8c5.8,9.3,10.6,19.1,15.9,28.7c5.5,9.9,8.9,20.5,9.4,31.8c0.3,7.5,0.1,15-0.4,22.5
		c-1.3,19.2-2.7,38.4-4.3,57.6c-0.9,10-2.3,19.9-3.5,29.9c-0.2,1.8-1.1,2.4-2.8,2.6c-5.9,0.7-13.8-3.9-16-10.7
		c-2.3-6.9-4-14.1-4.9-21.3c-1.5-12.6-1.6-25.4-3.2-38c-1.6-12.8-3.7-25.5-6.4-38c-2.4-10.9-9.8-18.1-19.3-23.7
		c-8.3-4.9-16.3-10.4-24.3-15.9c-1.9-1.3-3-3.9-2.6-6.5c1.3-9.4,3.1-18.8,3.9-28.3c1-11.5,4.8-21.8,11.7-31.1c2.3-3,4.6-4.7,8.5-5.3
		c4.9-0.7,9.7-2.6,14.6-3.9C404.4,344.8,405.4,344.8,406.5,344.6z"/>
	<path class="st0" d="M125.9,431.3c-10.4,4.5-20.6,9.2-27.8,18.1c-3.7,4.6-4.6,10.5-5.7,16.2c-1.8,9.1-0.2,18.1,1.1,27.2
		c2.5,16.9,4.6,33.8,1.7,50.9c-1.2,7-3.4,13.7-5.2,20.6c-0.8,2.9-1.5,5.8-2.4,8.7c-1,3.1-3.5,5.1-6,4.8c-2.8-0.3-4.8-2.9-5-6.3
		c-0.4-12.1-0.8-24.1-1.2-36.2c-0.5-13.3-2.4-26.4-4.8-39.5c-1.6-8.9-2.2-17.9-3-26.9c-0.8-9.1-0.4-18.3,1.2-27.3
		c2.4-13.5,5.8-26.7,15.3-37.2c3.9-4.4,8.9-7.8,13.4-11.6c1.3-1.1,2.7-2.1,3.9-3.3c-6.5,1.4-12.2,4.2-17.2,8.6
		c-5.8,5.1-9.8,11.5-13.1,18.4c-0.8,1.7-1.8,2.3-3.6,2.5c-14.7,2.1-31,12.2-34.6,30.4c-2.6,12.8-0.8,25,6,36.2
		c6.7,11,7.3,22.7,3.5,34.8c-0.8,2.6-2.4,4.6-5.1,5.5c-3.3,1.2-5.1,0.7-6.3-2.5c-2.2-5.9-4.4-11.9-6-18c-2.2-7.9-4.4-15.9-5.6-24
		c-1.8-11.9-3.3-24-1.3-36c1.8-11.2,6.6-21.1,13.6-29.9c7.8-9.8,18.3-15.6,29.8-20c12.8-5,25.9-8.7,39.3-11.7c2-0.4,3.9-1.1,5.8-1.9
		c1.4-0.6,2.1-0.4,2.9,1c3.9,6.8,6.8,14,9,21.5c2.4,8.6,4.9,17.2,7.3,25.8C125.8,430.5,125.8,431.1,125.9,431.3z"/>
	<path class="st0" d="M235.5,445c3.1,0.5,6.3,1.3,9.4,1.6c9.6,0.9,19.1,1.7,28.4,2.5c-12,34-9.6,68.6-2,103.5c-19.5,0-39.4,0-58.8,0
		c-2.2-3.3-4.3-6.2-6.3-9.2c-6.3-9.5-10.5-19.8-11.8-31.2c-1.7-14.3,0.2-28.2,5.1-41.8c1.4-3.8,3.3-5.9,7.2-7.2
		c10-3.4,18.4-9.5,26.2-16.6c0.5-0.4,0.9-0.9,1.4-1.3c0.4-0.3,0.8-0.5,1.2-0.8C235.5,444.6,235.5,444.9,235.5,445z"/>
	<path class="st0" d="M414.6,537.9c-23.2,6.7-47.1,7.6-71.5,10.9c4.1-30.5-2.3-59.7-7.6-88.7c3.6-1.6,6.9-2.9,10-4.6
		c5.8-3.2,10.4-7.8,13.5-13.8c0.7-1.3,1.5-1.8,3.1-1.7c3.9,0.2,7.8,0.2,11.7,0.2c3.2,0,5.4-2.2,5.4-5.6c3.6,2.5,6.8,5.3,10.5,7.4
		c10.8,6.2,15.6,15.8,17.7,27.7c2.9,17,5.1,34,6.2,51.2C414,526.6,414.3,532.3,414.6,537.9z"/>
	<path class="st0" d="M330.5,459.2c7.1,29.7,9.7,59.5,9,89.9c-5.9,0.5-12,1.2-18.2,1.5c-12.4,0.7-24.9,1.2-37.3,1.8
		c-1.9,0.1-3.8,0.3-5.6,0.2c-0.7-0.1-1.8-0.8-2-1.5c-3.8-10.3-5.9-21-6.2-32c-0.3-8.5-0.5-17.1-0.5-25.7c0.1-14.5,2-28.7,6.9-42.5
		c0.6-1.7,1.4-2.2,3.2-2.5c4.6-0.6,9.2-1.5,13.6-2.6c2.4-0.6,4-0.3,6,1.2c8.5,6.6,18,10.7,28.7,11.9
		C329.1,459.1,330,459.2,330.5,459.2z"/>
	<path class="st0" d="M449.7,420.5c-5.1-9.3-10.2-18.7-15.2-27.7c2,0.5,4.6,1.3,7.3,1.9c5.2,1.3,10.1,0.1,14.6-2.2
		c8.9-4.4,18.2-7.4,27.8-9.6c12.8-2.9,25.7-3.1,38.7-2.3c8.1,0.5,15.1,4.2,21.8,8.4c15.5,9.7,25.8,23.8,32.3,40.5
		c7.8,20.1,8.1,40.6,2.5,61.4c-3.3,12.1-8.5,23.3-14.4,34.3c-1.2,2.2-3.5,4.1-5.7,5.4c-2.5,1.5-4,0.5-3.9-2.4
		c0.3-6.5,0.4-13.1,1.8-19.4c2.8-12.9,5.3-25.9,6.4-39c0.9-11.4-0.1-22.7-5.3-33.1c-4.8-9.6-13.1-15-23.2-18
		c-13-3.9-26.4-4.8-39.9-3.9c-11.8,0.8-23.5,1.8-35.3,3C456.4,418.2,453,419.7,449.7,420.5z"/>
	<path class="st0" d="M192.3,628.3c-0.5-6.3-0.9-12.1-1.3-18.2c1.8,0.5,3.8,0.9,5.6,1.6c8.6,3.1,17.6,3.5,26.5,3.8
		c11.2,0.4,22.4,0.5,33.5,0.3c11.1-0.2,22.3-1,33.4-1.6c8.5-0.4,17.1-0.9,25.6-1.3c13.4-0.5,26.7-1.2,40.1-1.4
		c9.8-0.1,19.5,0.7,29.3,0.7c11.2,0,22.3-0.1,33.5-0.5c7-0.3,13.9-1.3,20.9-2c1.3-0.2,2.6-0.6,4.1-1c0,7.3,0,14.3,0,21.5
		c-0.6,0.1-1.1,0.3-1.5,0.3c-14.8,1-29.6,2.1-44.4,3.1c-9.3,0.6-18.7,1.2-28,1.7c-10.8,0.6-21.6,1.2-32.4,1.6s-21.7,1.8-32.5,0.9
		c-16.6-1.4-33.2-0.7-49.8-1.8c-12.3-0.9-24.6-2.5-36.9-4C209.3,630.9,200.7,629.5,192.3,628.3z"/>
	<path class="st0" d="M474.6,523.1c0.9-6.1,2.2-12,2.5-17.9c0.8-16.8-0.9-33.3-9.8-48.1c-2.4-4-5.5-7.4-8.3-11.1
		c-0.4-0.6-1.1-1.1-1.3-1.7c-1.9-5.9-3.8-11.9-5.8-18.3c7.4-1,15-1.8,22.4-3.3c6.7-1.4,12.1,0.7,17.8,3.8
		c9.9,5.3,17.9,12.5,24.5,21.5c5.2,7.1,9.8,14.3,11.7,23.1c1.4,6.4,1.6,12.7-0.9,19c-0.3,0.7-0.7,1.5-0.6,2.1
		c0.5,3.2-1.7,4.3-3.8,5.8C507.8,507.9,491.7,516.5,474.6,523.1z"/>
	<path class="st0" d="M462.6,721.5c-5.4,1-10.3,2.3-15.3,2.7c-15.3,1.4-30.7,2.7-46,3.7c-16.1,1-32.2,1.7-48.3,2.5
		c-12,0.6-24.1,1.2-36.1,1.5c-14.1,0.3-28.2,0.4-42.3,0.2c-11.6-0.2-23.3-1.1-34.9-1.3c-14.6-0.2-28.9-2-43.3-4
		c-3.7-0.5-7.4-0.9-11.1-1.8c-3.6-0.9-7.1-2.3-11-3.7c1.7-1.9,3-3.3,4.3-4.8c2.4-2.8,4.7-5.6,7-8.5c0.8-1,1.6-1.3,2.9-0.8
		c10.4,4.4,21.4,6,32.6,6.4c12.1,0.3,24.3,0.8,36.4,1c28.8,0.3,57.6,0.5,86.4,0.5c16.5,0,32.9-0.5,49.4-1.2
		c14.3-0.5,28.6-1.4,42.9-2.2c3.7-0.2,7.5-0.5,11.2-0.6c0.8,0,1.6,0.6,2.3,1.1C453.8,715.1,457.8,718,462.6,721.5z"/>
	<path class="st0" d="M196.8,466.4c-12.6,30.6-10.9,59.2,9,86.2c-4.8-0.4-9.4-0.6-13.9-1.3c-11.7-1.8-23.4-3.7-35.1-5.6
		c-0.6-0.1-1.3-0.2-1.8-0.6c-12.6-10.5-19.7-23.6-19.1-40.4c0.3-7.4-0.6-14.8,1.5-22.1c2.2-8,6.5-14.7,12.7-20.1
		c0.6-0.5,1.9-0.7,2.6-0.3c13.5,7.2,27.6,7.8,42.2,4.7C195.2,466.7,195.6,466.6,196.8,466.4z"/>
	<path class="st0" d="M481.3,206.3c-1.2-2.7-2.4-5.8-3.9-8.6c-4.2-7.8-8.7-15.4-12.9-23.2c-0.4-0.8-0.7-2.1-0.3-2.8
		c3.9-7,7.3-14.2,12-20.6c10.1-14.1,23.1-24.4,40.6-28.1c1-0.2,2.2-0.3,3-0.8c2.4-1.3,3.8-0.5,5.3,1.7
		c10.5,15.5,19.5,31.7,27.4,48.6c0.3,0.6,0.5,1.2,0.6,1.7C525.7,176.9,501.9,187.6,481.3,206.3z"/>
	<path class="st0" d="M207,250.4c-5-0.3-10-0.3-14.5-3.1c-5.7-3.5-7.9-7.8-6.8-14.4c1.1-6.9,3.1-13.5,8-18.8c2.8-3,6.3-4.8,10.2-5.4
		c7.5-1.1,14.8-0.5,21.3,4c3.8,2.6,6.1,2.4,9.7-0.5c3.6-2.9,6.9-6.4,10.9-8.7c3-1.8,6.8-3,10.3-3.3c7.5-0.6,15-0.4,22.4,2.5
		c6,2.4,9.8,6.2,10.8,12.6c1.1,6.8-1,12.4-6.4,16.9c-7.1,6-15,10.2-24.2,11.3c-5.4,0.6-10.9,0.6-16.4-0.9c-2.1-0.6-4.8,0.3-7.1,1
		c-5.4,1.6-10.7,3.8-16.2,5.2C215.1,249.9,211,249.9,207,250.4z"/>
	<path class="st0" d="M442.5,688.3c0,5.5,0,10.8,0,16.5c-1.1,0-1.9,0-2.6,0c-12.6,0.6-25.2,1.2-37.8,1.7c-5.9,0.2-11.7,0.3-17.6,0.5
		c-11.1,0.3-22.2,0.6-33.2,0.8c-14.3,0.3-28.5,0.6-42.8,0.7c-21.8,0.2-43.6,0.8-65.3,0.4c-17-0.3-34-1.3-50.4-6.5
		c-2.1-0.7-3-1.5-2.8-3.8c0.2-4.5,0.1-9.1,0.1-14.1c8.9,4,18,4.8,26.8,6.2c6.8,1.1,13.8,1.6,20.7,1.8c20.7,0.7,41.4,1,62.1,1.5
		c5.4,0.1,10.8,0.2,16.1,0.3c21.5,0.2,43.1,0.8,64.6,0.5c12.1-0.2,24.2-1.5,36.3-2.8c7.9-0.8,15.8-2.3,23.6-3.5
		C440.8,688.4,441.5,688.4,442.5,688.3z"/>
	<path class="st0" d="M501.3,289.4c-2.1-13.4-4.1-26.4-6-39.1c2.9-1.7,5.9-3.4,8.9-5.1c10.8-6.1,22.6-9.4,34.7-11.7
		c10.2-1.9,20.5-2.9,30.8-2.9c1.8,0,2.3,0.6,2.6,2.3c2.2,10.8,4.7,21.6,7,32.4c1,4.7,1.8,9.5,2.8,14.6
		C554,275.5,526.8,276.2,501.3,289.4z"/>
	<path class="st0" d="M191.2,645.3c0.2-4.9,0.4-9.2,0.6-13.7c3.4,0.9,6.4,2.1,9.6,2.6c7.5,1.3,15.1,2.5,22.7,3.4
		c9.7,1.2,19.4,2.3,29.1,3.1c8.2,0.7,16.4,1.1,24.6,1.4c11.7,0.4,23.5,1,35.2,0.9c9.9-0.1,19.9-0.9,29.8-1.4
		c7.8-0.4,15.6-0.7,23.4-1.1c9.4-0.5,18.9-0.9,28.3-1.5c10.1-0.6,20.1-1.4,30.2-2.2c5.4-0.4,10.7-1.2,16-1.8
		c0.8-0.1,1.6-0.1,2.3-0.1c0,4.5,0,8.9,0,13.7c-4.3,0-8.3-0.3-12.2,0.1c-6.2,0.6-12.4,2-18.6,2.6c-12.8,1.4-25.6,2.8-38.4,3.8
		c-9.6,0.8-19.3,1.2-29,1.7c-18.5,0.9-37,2-55.5,0.6c-14.8-1.1-29.5-2.9-44.3-4.3c-8.7-0.8-17.4-1.2-26-2.4
		C209.9,649.2,200.7,647.1,191.2,645.3z"/>
	<path class="st0" d="M588.4,331.2c-6.1-1.2-12-2.8-18.1-3.6c-7.1-1-14.2-1.5-21.4-2.1c-4.6-0.3-9.3-0.3-13.9-0.3
		c-9.6,0.1-18.8,2.4-27.7,5.9c-1.2,0.5-2.4,1.3-3.8,2.1c-0.2-4.6-0.4-8.9-0.6-13.3c-0.5-8-1-15.9-1.6-23.9c-0.1-1.6,0.4-2.1,1.8-2.8
		c9.6-4.2,19.6-7.1,29.8-9c5.9-1.1,12-1.7,18-1.8c8-0.1,16.1,0.4,24.2,0.6c1.6,0.1,3.2,0.3,4.8,0.5c2,0.2,3,0.9,3.2,3.2
		c1.4,11.6,3,23.1,4.5,34.6C588.1,324.6,588.2,327.8,588.4,331.2z"/>
	<path class="st0" d="M493.8,245.3c-1.1-4-2.3-8.8-3.8-13.5c-2-6.4-4.1-12.7-6.3-19c-0.5-1.4-0.4-2.1,0.6-3.2
		c7.1-8,16.3-13.1,25.8-17.7c11.8-5.8,23.9-10.6,37.2-12.1c7.8-0.9,8.2-1.2,10.7,6.1c4.4,12.8,8.2,25.8,12.3,38.7
		c0.1,0.2,0,0.5,0,1.1c-1.1,0-2.2,0-3.3,0c-11.1-0.2-22.2,0-33,3c-9.5,2.7-18.9,5.9-28.2,9.2c-2.9,1-5.5,3.1-8.2,4.7
		C496.2,243.5,495,244.4,493.8,245.3z"/>
	<path class="st0" d="M190.6,666.6c9.7,3.6,19.6,4.7,29.6,5.9c20.5,2.4,41.1,3.2,61.7,3.4c14.6,0.2,29.2,0.8,43.7,1.1
		c12.5,0.3,25.1,0.8,37.6,0.5c12.8-0.3,25.6-1,38.3-2.2c13-1.2,26-3.2,39-5c1.6-0.2,2.3,0,2.2,1.8c-0.1,3.2-0.1,6.4,0,9.5
		c0.1,1.5-0.7,1.8-1.9,2c-8.5,1.2-16.9,2.4-25.4,3.5c-28.2,3.6-56.7,2.3-85,2.5c-10,0.1-20-0.3-30.1-0.5
		c-16.5-0.2-32.9-0.5-49.4-0.8c-7.7-0.1-15.4,0.2-22.9-0.9c-12.2-1.7-24.3-4.4-36.4-6.7c-0.6-0.1-1.6-1.1-1.6-1.6
		C190.2,674.9,190.4,670.7,190.6,666.6z"/>
	<path class="st0" d="M145.3,544.3c-9.1-2.5-18.3-4.8-27.4-7.6c-4.3-1.3-8.4-3.6-12.6-5.1c-2.4-0.9-3-2.2-2.9-4.7
		c0-15.6-2.1-31-4.7-46.4c-1.4-8-0.4-16,2.8-23.5c2.3-5.4,6.9-8.9,11.8-11.7c5-2.9,10.3-5.1,15.6-7.6c2.1,3.5,3.9,6.5,5.9,9.8
		c-11.6,3.1-21,9.3-27.3,19.3c-6.4,10.1-7,21.4-4.7,33.4c0.5-0.5,1.3-1.1,1.4-1.7c0.4-3.3,1.1-6.7,1-10
		c-0.6-16.4,12.6-30.2,27.1-35.1c4.5-1.5,8.2-1.7,11.6,2.2c1.3,1.5,3.3,2.5,5.3,3.9c-0.5,0.4-0.9,0.8-1.4,1.1c-4,2.5-6.7,6-8.6,10.3
		c-5.2,11.9-7.6,24.2-6.9,37.1c0.7,12.8,5.5,24,13.4,33.9c0.4,0.4,0.7,0.9,1.1,1.3C145.5,543.7,145.4,544,145.3,544.3z"/>
	<path class="st0" d="M190.6,662.5c0.3-4.3,0.5-8.6,0.8-12.4c6.3,1.5,12.4,3.2,18.6,4.3c7.5,1.3,15,2.1,22.5,2.9
		c12.2,1.3,24.5,2.6,36.7,3.7c7.3,0.6,14.6,1,22,1.2c11.6,0.3,23.2,0.5,34.8,0.2c11.5-0.2,23-1,34.4-1.6c11.7-0.7,23.4-1.4,35.1-2.5
		c12.2-1.2,24.3-2.8,36.4-4.3c3.5-0.4,7-1.1,10.8-1.7c0,4.5,0,8.7,0,12.9c-4.9,0.8-9.9,1.5-15,2.3c-16.8,2.7-33.7,3.8-50.6,4.1
		c-19,0.3-38,0.6-57,0.6c-16.2,0-32.5-0.4-48.7-0.8c-11.6-0.3-23.1-0.9-34.6-1.5c-15.3-0.7-30.4-3-45.2-7.1
		C191.2,662.7,191,662.6,190.6,662.5z"/>
	<path class="st0" d="M588.8,337.1c0,11.2,0,22.2,0,33.6c-2.5-1.1-4.6-2.1-6.8-3c-15.9-6.8-32.4-10.1-49.7-9.1
		c-7.5,0.5-15.1,1.5-22.6,2.5c-2.2,0.3-4.3,1.8-6.1,2.5c0-7.8,0-15.9,0-24c0-0.7,0.6-1.7,1.2-2c8.9-4.9,18.5-6.9,28.6-7
		c11.8-0.2,23.5,0.2,35,2.4C575.3,334.3,582,335.7,588.8,337.1z"/>
	<path class="st0" d="M267.6,350.7c0.3-5,0.6-10,0.9-15c0.1-1.3,0.7-1.7,1.8-2.4c6.4-3.6,13.4-3.6,20.4-4.2c4.7-0.4,9.4-1.6,14-2.7
		c-3.7-2.1-7.6-1.9-11.5-1.8c-4,0.2-8.2,0.3-12.1,1.1c-3.8,0.8-7.5,2.4-11.3,3.7c0.3-1.9,1.1-4,0.7-5.9c-0.7-3.3,0.8-4.5,3.3-5.9
		c5-2.9,9.5-6.8,14.6-9.2c5.5-2.5,11.5-4.1,17.3-5.7c3.1-0.8,5.4,1,6.4,4c1.6,4.7,1.5,9.4,0,14.1c-2,6.5-0.7,12.5,3.5,17.9
		c1.4,1.8,2.8,3.9,3.5,6.1c1.4,4.1-0.3,7.2-4.1,9.2c-7,3.7-14.3,3.4-21.6,1.5c-5.7-1.5-11.4-3.4-17.1-4.7
		C273.5,350.2,270.6,350.7,267.6,350.7z"/>
	<path class="st0" d="M227.4,333.1c-2.9-2.2-6.1-1.6-9.4-1.2c-3.7,0.4-7.6-0.2-11.2,0.5c-5.4,1.1-10.6,2.9-15.8,4.5
		c-0.2,0-0.2,0.4-0.5,0.9c6.2-0.9,12.3-2.1,18.4-2.4c6.1-0.3,12.3,0.3,19,0.5c-0.3,4-0.9,8.1-1,12.1c-0.1,3.8-2,5.9-5.1,7.7
		c-6.2,3.6-12.6,6.8-19.5,8.7c-6.9,2-14.6-0.2-18.8-6c-0.9-1.2-0.8-3.6-0.4-5.2c1.1-4.3,2.6-8.5,4-12.8c0.6-1.8,0.4-3.2-0.7-4.8
		c-3-4.3-4.3-9.2-4.5-14.5c-0.1-2.3,0.7-4.1,2.5-5.5c3.8-3,8.1-4,12.9-3.2c9.9,1.6,19.4,4.5,28.5,8.9c0.6,0.3,1.5,1,1.6,1.6
		c0.4,3.3,0.6,6.5,0.9,9.8C227.8,332.9,227.6,333,227.4,333.1z"/>
	<path class="st0" d="M493.3,420.6c10.5,0.7,21,1,31.4,2.1c7.1,0.8,13.5,4,19.7,7.4c4.7,2.6,6.7,7.2,8.8,11.6c4.1,8.2,4.6,17,4.3,26
		c0,0.4-0.2,1-0.5,1.3c-7.5,6.8-14.9,13.5-22.4,20.3c-0.2,0.2-0.6,0.3-0.5,0.2c0-4.2,0.2-8.5,0-12.8c-0.4-8.5-3-16.4-7.6-23.4
		c-4.3-6.7-9.2-13-14.4-19.1c-4.5-5.4-10.5-9-17-11.6c-0.7-0.3-1.3-0.6-1.9-1C493.2,421.2,493.3,420.9,493.3,420.6z"/>
	<path class="st0" d="M502.9,374.1c-0.7-3,0.2-4.6,2.7-5.7c6.2-2.7,12.7-3.4,19.3-3.8c11.1-0.7,22.1-0.8,33.2,1.1
		c6,1,11.6,2.9,17.1,5.5c4.1,1.9,8.5,3,13.1,4.5c-1.1,14.8-3.3,30-8,45.1C564.4,388.4,539.9,370.7,502.9,374.1z"/>
	<path class="st0" d="M77.3,308.4c2-6.4,4-12.8,5.9-19c4.6,0,8.9-0.1,13.3,0c3.7,0.1,7.3,0.4,11,0.6c1.5,0.1,2.3,0.8,3.1,2.2
		c6,10.8,12,21.6,18.4,32.2c1.8,3,4.9,5.3,7.4,7.9c0.4,0.4,1,1,0.9,1.4c-1,5.8-2.1,11.6-3.2,18.1C116.6,334.9,98.4,319.8,77.3,308.4
		z"/>
	<path class="st0" d="M181,364.9c-4-0.5-8-1-12-1.5c-5.4-0.7-10.8-1.2-16.1-2.4c-5-1.1-9.3-3.8-12.9-7.5c-0.6-0.6-0.9-1.9-0.8-2.7
		c0.7-5.2,1.5-10.5,2.4-15.7c0.1-0.8,0.9-1.8,1.6-2c11-3.2,22.1-6.3,33.1-9.4c0.3-0.1,0.6,0,1.1,0c0.3,5.3,1.8,10.2,4.6,14.7
		c0.4,0.6,0.3,1.7,0,2.5c-1,2.4-2.1,4.8-3.3,7.1c-2.8,5.7-1.8,10.9,2,15.7c0.2,0.2,0.4,0.5,0.5,0.8
		C181.1,364.5,181.1,364.6,181,364.9z"/>
	<path class="st0" d="M317.7,358.9c1.8-1.6,3.3-2.7,4.5-4.1c3.4-3.9,3.2-8.1,1-12.5c-1.9-3.7-4-7.3-5.6-11.1
		c-0.7-1.7-1.1-3.9-0.7-5.6c1.4-5.7,2.4-11.3,1.1-17c13.9,0,27.7,0,41.2,0c1.6,3.1,0.6,5-1.1,7c-10.2,12.3-18.9,25.7-26.6,39.7
		c-1,1.8-2.1,2.6-4.1,2.6C324.2,358.2,321.2,358.6,317.7,358.9z"/>
	<path class="st0" d="M363.2,192.7c-1.8,11.1-5.5,21.2-15.5,27.6c-4.4,2.8-9.5,4.3-14.8,4.6c-7.8,0.5-15.5,0.1-22.6-3.6
		c-9.4-5-14.4-13.1-17-23.1c-2.5-9.7-1.8-19.1,3.7-27.7c7-11,17.1-17.7,29.8-20.4c2-0.4,4.3,1,6.5,1.4c10.2,2.2,18.6,7.2,24.8,15.7
		c1.3,1.7,1.9,3.9,2.6,5.9c-2-2.3-3.7-5-6-6.9c-6.8-5.8-14.7-8.5-23.7-8.9c-7.7-0.3-13.8,2.3-19.1,7.5c-5.7,5.6-8.5,12.6-8.9,20.6
		c-0.9,15.9,7.4,25.8,21,32.7c5.8,2.9,11.5,2,17.1,1.6c3-0.2,6.2-2.8,8.8-4.9C356.9,209,361.5,201.7,363.2,192.7z"/>
	<path class="st0" d="M232.5,353.2c0-6.3,0-12,0-17.6c0-2.9,0.1-5.9-0.1-8.8c-0.2-2.3,0.6-3.1,2.8-3.3c5.8-0.5,11.7-1.1,17.5-1.8
		c2.2-0.3,4.5-0.7,6.5-1.7c2.1-1,4-0.7,6.1-0.3c-0.5,4.8-1.2,9.4-1.5,14c-0.2,4.9-0.1,9.9,0,14.8c0.1,2.1-0.7,3.3-2.7,3.6
		c-3.1,0.4-6.3,1-9.4,1C245.2,353.4,238.8,353.2,232.5,353.2z"/>
	<path class="st0" d="M50.8,491.6c-6-5.3-9.7-11.6-11.5-19.2c-2.2-9.4-3.1-18.6,1.2-27.7c5.3-11.2,14.3-17.5,26.7-20.2
		c-0.3,1.1-0.5,1.9-0.7,2.5c-2.7,7.8-4.1,15.7-4.6,23.9c-0.1,1-0.5,2.4-1.3,3c-6.3,5-9,12-10.4,19.6
		C49.1,479.5,49.4,485.5,50.8,491.6z"/>
	<path class="st0" d="M455.5,528.2c1.3-25.3,2.7-50.5,4-75.7c1.8,3.5,4,7.2,5.8,11.1c4.7,10.4,7.1,21.5,7,32.9
		c0,6.5-0.7,13.1-1.5,19.6c-0.3,2.8-1.6,5.5-2.6,8.2c-0.2,0.5-1,1.1-1.6,1.2C462.8,526.5,459,527.3,455.5,528.2z"/>
	<path class="st0" d="M262.9,392c6.9,13.5,11.7,27.1,20.6,39.1c-13-1.9-25.3,1.8-38,1.3c1.9-3.3,4.1-6.3,5.4-9.6
		c2.9-7.1,5.3-14.5,8-21.7C260,398.2,261.4,395.4,262.9,392z"/>
	<path class="st0" d="M486.1,133.7c-12.1,8.9-18,22.5-25.6,34.8c-4.4-5.3-8.6-10.5-13-15.5c-1.4-1.6-2.5-3.8-5.5-3.3
		c-0.4-2.5-0.7-4.8-1-7.2C456.2,139.5,471.2,136.6,486.1,133.7z"/>
	<path class="st0" d="M105.8,377.4c-13.4,3.3-26.5,6.4-39.8,9.6c0.5-3.6,1.4-7.4,1.5-11.2c0.1-4.1,1.8-5.8,5.8-6.1
		c7.7-0.7,15.3-1.8,22.9-2.6c0.5-0.1,1.3,0.3,1.7,0.7C100.6,370.9,103.2,374.1,105.8,377.4z"/>
	<path class="st0" d="M94,253.1c4.2,10.8,8.4,21.3,12.5,31.8c-7.2,0-14.5,0-22.2,0C87.2,274.5,88.9,263.6,94,253.1z"/>
	<path class="st0" d="M61.3,458.6C61,475.2,64.9,491.2,67,508c-3.8-3.5-7.2-6.7-10.6-10c-0.6-0.6-1-1.6-1.1-2.4
		c-0.6-6.6-1.6-13.3-1.4-19.9C54,469.2,56.9,463.5,61.3,458.6z"/>
	<path class="st0" d="M91.9,362.4c-7.9-0.3-15.3,1.5-23.3,4.6c1.5-7,2.8-13.5,4.4-20.8c6.7,5.3,13,10.3,19.3,15.3
		C92.2,361.8,92.1,362.1,91.9,362.4z"/>
	<path class="st0" d="M411.9,323.2c0.5,5.2,1,10.1,1.5,15.2c-8.3,0.5-16.4,1.3-24,5C395.1,334.9,402.2,328,411.9,323.2z"/>
	<path class="st0" d="M277.5,309.5c-4.3,2.2-7,5.7-12.2,5.4c-4.3-0.3-8.6,1.2-12.9,1.7c-6.5,0.8-12.9,1.5-19.4,1.9
		c-2,0.1-4.1-1.1-6.1-2.1C243.6,314.8,259.7,309,277.5,309.5z"/>
	<path class="st0" d="M242.5,198.6c-0.6,1.3-1.1,2.4-1.6,3.4c-0.3,0.6-0.4,1.4-0.9,1.7c-2.7,2-5.5,4-8.3,5.9c-0.5,0.4-1.5,0.6-2,0.4
		c-3.4-1.8-6.7-3.7-10.2-5.7C225.9,198.8,240.4,195.7,242.5,198.6z"/>
	<path class="st0" d="M338.8,180c-3.5,0.3-4.6-3-4.7-5.8c-0.1-2.8,2.8-5.1,7-4.4c1.5,0.2,3.4,3,3.8,4.9
		C345.5,177.2,341.9,180,338.8,180z"/>
	<path class="st0" d="M216,365.3c5.8-1.6,9.4-7.1,15.8-6.3C227.3,362.8,223.6,368,216,365.3z"/>
	<path class="st0" d="M412.9,351.6c1,5.5,2.1,10.9,3.2,16.7C411,363.2,413.3,357.1,412.9,351.6z"/>
	<path class="st0" d="M520.5,117.6c-2.8,0.6-5.2,1.1-7,1.5c1.3-1.3,3.1-3.1,4.9-4.9C518.9,114.9,519.7,116.1,520.5,117.6z"/>
	<path class="st0" d="M290.9,362.1c-1.9-0.6-3.8-1.2-5.7-1.8c0.1-0.2,0.1-0.5,0.2-0.7c1.9,0.6,3.9,1.1,5.8,1.7
		C291.1,361.5,291,361.8,290.9,362.1z"/>
	<path d="M171.2,213.4c-0.4,12-4.4,22.4-11.7,31.6c-6.8,8.6-19.6,7.9-26.6,2.1c-13.8-11.3-18.4-29-11.4-44.9
		c4.7-10.6,14-15.4,25.5-15.8c11.2-0.4,19.2,5.8,22.1,14.6C170.4,204.9,170.6,209.3,171.2,213.4z"/>
	<path d="M154.6,201.5c0.4-3.1-1.8-5.1-4.1-5.9c-5.6-1.9-6.9-1.1-7.5,4c-0.1,0.8-0.3,1.6-0.4,2.4c-0.5,3.5,2.6,6.8,6,6.6
		C152.8,208.4,154.6,206.3,154.6,201.5z"/>
	<path d="M147.4,45.3c6,0,8.3,2.6,8.6,9.1c0.2,4.3-1.5,8.1-3.4,11.8c-4.2,8.3-10.1,15.4-17.2,21.3c-3.7,3.1-8.1,4.8-13,4.8
		c-2.7,0-4.6-1.8-4.8-4.5c-0.6-6.7,1.8-12.7,4.6-18.5c4.1-8.5,10.4-15.1,18.5-20c0.8-0.5,1.6-1,2-1.8
		C143.9,45.7,145.5,44.8,147.4,45.3z"/>
	<path d="M147.6,50c-0.1-0.2-0.2-0.4-0.3-0.6c-1.6,0.8-3.4,1.3-4.6,2.5c-5.1,5.2-10.2,10.5-14.9,16c-4.1,4.8-6.4,10.6-6.7,16.9
		c-0.2,3.7,0.7,4.5,4.1,3.3c0.8-0.3,1.7-0.6,2.5-1c14.2-6.2,20-18.8,24.3-32.4C153,51.7,151.1,50,147.6,50z"/>
	<path d="M122.2,119.7c0-8.3,2.6-15.1,7.2-21.2c0.6-0.8,1.6-1.3,2.4-2c0.6-0.5,1.2-1.1,1.4-1.7c0.6-2,2.1-2.4,3.8-2.5
		c6.2,0,10.8,4.9,10.1,11.1c-0.8,7.4-2.7,14.5-6.9,20.9c-4,6.2-9.2,6.4-14.8,3.2C122.7,125.8,121.8,122.5,122.2,119.7z"/>
	<path d="M125.9,118.8c0,0.7-0.1,1.3,0,2c0.2,2.1,2.1,4.7,3.6,5c3.2,0.6,6.4-0.5,8-3.4c3.6-6.5,5.3-13.6,5.1-21.1
		c-0.1-1.4-2.1-3-3.6-4.1c-0.6-0.4-2.3-0.1-3,0.5C129.5,103.2,126.1,110.3,125.9,118.8z"/>
	<path d="M262.8,252.1c-4.1,3.6-9,5.6-14.1,7.3c-6.6,2.3-13.4,2.6-20.3,2.2c-1.7-0.1-3.5-0.9-5.1-1.8c-1.4-0.8-1.1-2.2,0.3-2.8
		c1.1-0.5,2.4-0.8,3.5-0.6c11.1,1.5,21.7-0.8,31.9-4.9c1-0.4,2.3-0.3,3.5-0.4C262.7,251.5,262.8,251.8,262.8,252.1z"/>
	<path d="M101.2,127.9c-0.1-4.2,1.3-8,3.5-11.5c0.3-0.5,0.7-0.9,0.9-1.4c0.5-1.4,0.9-2.8,2.9-2.6c2.1,0.3,3.8,1.2,4.4,3.3
		c1.7,5.2-1.6,14.2-6.1,17c-2.7,1.6-5.5,0.2-5.6-2.9C101.2,129.2,101.2,128.6,101.2,127.9z"/>
	<path d="M108.6,116.1c-3.1,2.7-5.2,11.4-3.4,14.4C108.7,128,110.8,119.3,108.6,116.1z"/>
	<path class="st0" d="M154.6,201.5c0,4.8-1.8,6.9-6,7.1c-3.5,0.2-6.5-3.1-6-6.6c0.1-0.8,0.3-1.6,0.4-2.4c0.7-5.1,1.9-5.9,7.5-4
		C152.8,196.4,155,198.5,154.6,201.5z"/>
	<path class="st0" d="M147.6,50c3.4,0,5.4,1.8,4.4,4.9c-4.4,13.5-10.1,26.2-24.3,32.4c-0.8,0.3-1.7,0.7-2.5,1
		c-3.4,1.1-4.3,0.4-4.1-3.3c0.4-6.4,2.6-12.1,6.7-17c4.7-5.6,9.8-10.8,15-16c1.2-1.2,3-1.7,4.6-2.5C147.4,49.6,147.5,49.8,147.6,50z
		"/>
	<path class="st0" d="M125.9,118.8c0.2-8.5,3.6-15.6,10.1-21.1c0.7-0.6,2.4-0.9,3-0.5c1.5,1.1,3.6,2.7,3.6,4.1
		c0.2,7.4-1.4,14.5-5.1,21.1c-1.6,2.9-4.8,4.1-8,3.4c-1.5-0.3-3.4-2.9-3.6-5C125.9,120.1,125.9,119.5,125.9,118.8z"/>
	<path class="st0" d="M108.6,116.1c2.2,3.1,0.1,11.9-3.4,14.4C103.5,127.5,105.6,118.8,108.6,116.1z"/>
</g>
</svg>
