<?xml version="1.0" encoding="utf-8"?>
<!-- Generator: Adobe Illustrator 26.0.0, SVG Export Plug-In . SVG Version: 6.00 Build 0)  -->
<svg version="1.1" id="Capa_1" xmlns="http://www.w3.org/2000/svg" xmlns:xlink="http://www.w3.org/1999/xlink" x="0px" y="0px"
	 viewBox="0 0 595.28 738.09" style="enable-background:new 0 0 595.28 738.09;" xml:space="preserve">
<style type="text/css">
	.st0{fill:#FFFFFF;}
</style>
<g>
	<path d="M99.99,550.8c-2.09,9.63-5.41,18.33-9.55,26.75c-1.53,3.11-3.22,5.52-7.12,5.59c-3.89,0.07-6.89-1.25-9.28-4.39
		c-3.68-4.83-3.81-10.31-3.66-16.02c0.22-8.23,0.23-16.47,0.01-24.7c-0.16-5.78-0.78-11.55-1.36-17.3
		c-0.09-0.91-0.98-1.79-1.64-2.57c-1.04-1.24-2.22-2.36-3.29-3.57c-4.24-4.78-8.46-9.57-13.08-14.79
		c-0.28,3.96-0.37,7.19-0.75,10.37c-0.81,6.77-3.37,12.89-7.39,18.36c-4,5.44-13.01,4.93-15.95-1.26
		c-2.98-6.28-5.52-12.86-7.44-19.54c-4.14-14.43-6.49-29.22-8.02-44.15c-1.35-13.14,0.69-25.63,6.22-37.61
		c6.78-14.7,17.51-25.54,32.03-32.6c3.06-1.49,6.38-2.44,9.49-3.82c0.75-0.33,1.65-1.37,1.7-2.13c0.9-14.11,3.3-27.98,6.36-41.75
		c0.35-1.57-0.02-2.36-1.48-2.98c-7.91-3.35-15.74-6.88-23.69-10.12c-6.59-2.69-11.69-6.6-13.57-13.87
		c-1.74-6.72,0.12-11.11,6.24-14.42c6.75-3.64,13.89-4.45,21.28-2.86c5.51,1.19,10.96,2.67,16.5,4.04
		c-0.59-5.68,2.75-10.54,4.19-15.9c2.49-9.27,4.98-18.54,7.78-27.71c1.76-5.74,4.14-11.3,6.16-16.96c0.33-0.93,0.53-2.09,0.29-3.02
		c-4.28-16.37-6.69-33.01-7.42-49.91c-0.01-0.23-0.11-0.46-0.13-0.53c-5.17-0.63-10.24-1.21-15.3-1.88
		c-16.55-2.19-31.03-8.7-42.98-20.56c-7.21-7.15-12.32-15.7-17.03-24.58c-3.61-6.81-6.77-13.8-7.52-21.51
		c-1.01-10.41-1.34-20.8,4.46-30.29c2.38-3.9,5.62-6.71,9.57-8.81c14.34-7.63,29.5-13.11,45.63-14.93
		c7.11-0.8,14.53-0.02,21.67,1.01c7.93,1.15,15.7,3.38,23.52,5.21c1.24,0.29,2.38,0.96,3.35,1.37c3.31-4.71,6.4-9.48,9.87-13.96
		c9.61-12.43,21.33-22.62,34.33-31.37c13.7-9.22,28.25-16.75,43.93-22.03c11.77-3.96,23.78-7.01,36.14-7.99
		c10.46-0.83,21.02-1.41,31.48-0.91c11.02,0.52,22.08,1.9,32.94,3.93c11.64,2.17,23.19,5.11,34.55,8.46
		c17.62,5.19,33.31,14.22,47.62,25.7c3.18,2.55,6.46,4.97,9.65,7.52c0.94,0.75,1.53,0.84,2.45-0.08
		c17.67-17.71,38.83-29.16,62.89-35.78c7.71-2.12,15.37-1.7,23.03-1.48c10.1,0.29,20.05,2.08,29.55,5.81
		c8.6,3.38,16.62,7.74,22.48,15.07c7.44,9.3,9.16,20.24,7.62,31.67c-1.91,14.19-6.02,27.82-11.98,40.85c-0.91,1.99-2,3.91-3.18,5.76
		c-0.76,1.2-0.86,2.02,0.13,3.21c10.03,11.99,18.07,25.29,25.58,38.96c10.65,19.39,19.23,39.67,25.86,60.76
		c4.57,14.54,7.77,29.42,10.29,44.45c2.01,11.97,4.55,23.87,6.02,35.91c2,16.34,3.56,32.75,4.65,49.17
		c0.96,14.32,0.79,28.72-0.95,42.99c-1.2,9.78-3,19.48-4.58,29.21c-0.48,2.97-0.86,5.99-1.73,8.85c-0.57,1.85-1.72,3.68-3.05,5.1
		c-0.98,1.04-1.08,1.69-0.62,2.91c8.48,22.62,7.34,45.35,0.6,68.1c-3.4,11.46-8.41,22.2-14.92,32.22c-0.89,1.36-1.84,2.7-2.85,3.97
		c-4.16,5.21-9.71,4.52-14.56,2.23c-0.94-0.44-1.67-1.99-1.91-3.14c-0.5-2.41-0.61-4.91-0.94-8c-3.41,4.15-6.45,7.82-9.45,11.52
		c-13.4,16.5-27.72,32.1-44.99,44.7c-13.77,10.05-28.18,19.04-44.02,25.53c-0.82,0.33-1.65,0.62-2.19,0.82
		c0.29,3.69,0.82,7.21,0.79,10.73c-0.13,14.84-0.44,29.68-0.66,44.52c-0.2,13.13-0.35,26.26-0.57,39.39
		c-0.03,1.58,0.55,2.33,1.94,3.2c6.02,3.74,11.99,7.58,17.76,11.67c4.01,2.85,4.21,6.7,0.87,9.65c-0.68,0.6-1.67,1.04-2.58,1.17
		c-12.66,1.82-25.3,3.89-38.01,5.23c-9.54,1.01-19.18,1.04-28.77,1.54c-10.41,0.54-20.82,1.14-31.23,1.69
		c-8.14,0.43-16.27,1.05-24.41,1.2c-26.9,0.47-53.81,0.94-80.72,1.03c-11.8,0.04-23.61-0.78-35.41-1.26
		c-18.65-0.77-36.73-4.85-54.65-9.74c-1.54-0.42-3.04-1.18-4.41-2.01c-2.89-1.76-3.06-2.54-1.22-5.46c0.64-1.02,1.41-2.21,2.42-2.69
		c5.5-2.63,8.32-7.91,12.33-12.01c2.09-2.14,2.26-4.52,2.2-7.35c-0.2-8.64-0.08-17.29,0-25.93c0.05-4.97,0.28-9.94,0.44-14.91
		c0.42-12.46,0.89-24.92,1.25-37.38c0.08-2.77-0.21-5.54-0.25-8.31c-0.02-1.88-0.63-2.94-2.62-3.67
		c-12.51-4.61-23.85-11.47-35.01-18.63c-12.84-8.24-25.07-17.3-36.53-27.39C107.68,558.01,104.04,554.52,99.99,550.8z
		 M356.88,222.23c-0.26-0.2-0.52-0.4-0.78-0.6c-0.64,0.92-1.16,1.95-1.94,2.73c-3.83,3.81-8.46,6.16-13.83,6.56
		c-5.36,0.4-10.75,0.41-16.13,0.5c-2.11,0.03-4.31,0.15-6.33-0.34c-8.63-2.1-15.94-6.42-21.49-13.48c-0.37-0.48-0.49-1.15-0.73-1.74
		c-0.29,0.23-0.58,0.46-0.86,0.69c0.57,5.22-0.46,10.05-3.22,14.51c-4.74,7.65-11.3,12.72-19.99,15.42
		c-9.41,2.92-18.79,3.6-28.46,1.93c-1.68-0.29-3.64,0.25-5.32,0.82c-3.46,1.17-6.74,2.91-10.24,3.91
		c-10.8,3.1-21.65,2.97-32.59,0.41c-9.33-2.18-14.62-8.35-14.68-17.95c-0.04-7.53,3.06-14.03,6.58-20.43
		c4.08-7.42,10.19-11.97,18.61-13.02c2.88-0.36,5.85,0.14,8.78,0.05c1.19-0.04,2.56-0.3,3.5-0.96c6.35-4.37,13.18-7.47,20.94-7.93
		c1.82-0.11,4.1,0.3,5.45,1.38c1.68,1.34,3.1,1.23,4.91,1.02c13.6-1.58,27.01-1.92,39.04,6.52c-0.49-3.02-1.13-5.94-1.41-8.9
		c-1-10.66,2.05-20.38,7.8-29.16c3.46-5.28,8.38-9.35,13.76-12.69c4.78-2.97,9.66-5.63,15.63-5.5c2.89,0.06,5.79-0.66,8.69-0.98
		c0.8-0.09,1.65-0.14,2.44,0.02c17.32,3.47,29.49,12.97,34.43,30.34c4.19,14.75,0.33,28.17-7.91,40.58
		c-0.82,1.23-0.89,2.06-0.55,3.46c1.22,5.04,2.82,10.12,3.07,15.24c0.58,11.56,0.49,23.16,0.61,34.74
		c0.12,11.59,0.15,23.17,0.24,34.76c0.01,0.8,0.21,1.6,0.38,2.81c2.68-2.94,4.79-5.67,7.31-7.95
		c13.15-11.89,28.35-20.04,45.57-24.35c0.6-0.15,1.36-0.71,1.55-1.25c1.3-3.59,2.77-7.16,3.62-10.86
		c1.94-8.49,3.74-17.01,5.27-25.58c2.07-11.61,4.25-23.24,5.59-34.95c1.23-10.75,1.49-21.61,2.01-32.44
		c0.49-10.03,0.23-20.06-1.38-30c-0.23-1.42,0.16-2.26,1.38-2.66c3-0.98,5.98-2.22,9.06-2.69c5.47-0.83,11.05-0.89,16.51-1.75
		c10.71-1.69,21.08-4.67,31.26-8.45c9.26-3.44,16.76-8.83,21.97-17.29c5.89-9.56,10.2-19.8,13.09-30.61
		c2.1-7.86,3.93-15.81,3.27-24.08c-0.88-11.19-6.14-19.91-15.07-26.47c-4.53-3.32-9.88-4.89-15.19-6.44
		c-9.58-2.81-19.36-4.03-29.37-4.27c-10.27-0.24-20.2,1.15-29.6,5.1c-11.03,4.63-21.65,10.17-31.57,16.91
		c-5.63,3.83-11.03,8.02-16.65,12.13c21.17,18.47,35.52,40.56,41.38,68.27c-2.61-0.45-3.37-2.1-4.05-3.71
		c-2.53-5.98-4.84-12.06-7.52-17.98c-3.68-8.15-8.96-15.28-14.68-22.11c-5.18-6.17-9.82-12.79-16.5-17.59
		c-4.9-3.51-9.58-7.34-14.27-11.14c-7.93-6.43-16.25-12.24-25.35-16.91c-16.61-8.54-34.27-14.07-52.53-17.45
		c-10.06-1.86-20.32-2.94-30.55-3.54c-16.1-0.94-32.21-1.27-48.23,1.7c-24.01,4.45-46.26,13.12-66.44,26.94
		c-15.17,10.39-28.71,22.53-40,37.1c-1.58,2.04-3.36,4.25-3.97,6.65c-0.59,2.3-1.58,2.52-3.35,2.25c-3.13-0.48-6.26-0.99-9.38-1.53
		c-8.46-1.44-16.54-4.5-25.33-4.74c-18.22-0.49-35.52,2.47-51.54,11.45c-7.33,4.1-13.48,9.37-14.83,18.27
		c-1,6.57-0.59,13.17,0.75,19.68c2.28,11.04,7.24,20.83,13.81,29.92c9.14,12.66,20.95,21.59,36.08,25.64
		c6.9,1.85,14.02,2.83,21.04,4.23c3.97,0.79,3.96,0.8,6.3-2.57c0.06-0.08,0.29-0.05,0.6-0.09c0.17,0.76,0.38,1.52,0.52,2.3
		c2.49,14.36,4.56,28.81,7.55,43.07c6.23,29.7,16.83,57.76,33.32,83.39c4.12,6.41,8.81,12.46,12.89,18.19
		c12.82-3.37,25.1-6.59,36.85-9.67c1-2.36,1.4-5.05,2.94-6.6c4.6-4.64,10.52-6.57,16.98-5.69c7.82,1.06,15.49,2.92,22.78,6.1
		c0.82,0.36,1.9,0.43,2.8,0.28c3.03-0.51,6.02-1.19,9.03-1.79c7.64-1.51,15.23-3.41,22.94-4.43c10.81-1.43,21.71-2.18,32.56-3.29
		c1.33-0.14,2.66-0.62,3.91-1.12c4.22-1.68,8.32-3.71,12.63-5.12c5.39-1.76,10.19,0.33,13.29,5.06c0.47,0.72,1.6,1.38,2.45,1.42
		c4.15,0.21,8.31,0.15,12.47,0.28c6.27,0.2,12.53,0.53,18.8,0.73c3.12,0.1,6.25,0.02,8.83,0.02
		C358.24,277.2,357.56,249.71,356.88,222.23z M140.9,360.54c4.69,9.7,9.46,19.23,13.9,28.9c2.47,5.38,4.35,11.04,6.6,16.53
		c1.43,3.5,3.72,4.32,6.39,1.75c2.64-2.54,5.31-5.51,6.66-8.82c3.01-7.35,5.21-15.03,7.74-22.57c0.18-0.54,0.27-1.18,0.62-1.57
		c0.42-0.47,1.05-0.91,1.63-0.97c0.27-0.03,0.88,0.87,0.91,1.37c0.07,1.13,0.07,2.33-0.24,3.4c-1.98,6.86-3.82,13.78-6.15,20.53
		c-1.87,5.42-5.59,9.71-10.02,13.32c-3.89,3.17-7.81,2.84-10.67-1.17c-1.53-2.15-2.57-4.67-3.62-7.12
		c-1.49-3.48-2.63-7.12-4.22-10.56c-1.91-4.13-4.13-8.11-6.22-12.16c-3.09-5.99-5.74-12.26-9.35-17.92
		c-5.88-9.2-13.79-16.67-22.04-23.78c-9.79-8.42-20.24-15.91-31.54-22.15c-8.29-4.58-17.17-7.72-26.36-9.95
		c-5.35-1.3-10.64-1.43-15.63,1.36c-7.43,4.16-7.56,8.1-1.33,13.97c0.35,0.33,0.78,0.59,1.21,0.81c3.25,1.66,6.41,3.56,9.79,4.9
		c11.6,4.61,22.64,10.24,33.02,17.2c22.25,14.91,36.56,35.44,43.13,61.29c2.65,10.42,5.21,20.75,10.12,30.46
		c4.85,9.58,12.1,16.17,21.82,20.35c7.83,3.37,16.05,3.81,24.41,3.73c9.98-0.09,19.43-2.43,28.17-7.02
		c17.64-9.26,30.58-23.27,38.26-41.55c4.36-10.36,7.07-21.42,10.46-32.19c0.46-1.44,0.98-2.65,2.7-2.64c1.69,0,2.93,0.39,3.67,2.38
		c5.66,15.13,12.61,29.65,21.58,43.11c5.33,8,12.02,14.82,19.82,20.47c8.49,6.15,17.89,8.21,28.39,7.03c8.86-1,14.76-6,18.42-13.13
		c2.97-5.78,4.51-12.48,5.71-18.96c1.78-9.59,2.94-19.32,3.94-29.04c0.95-9.34,1.6-18.67,5.63-27.36
		c5.19-11.18,13.13-20.35,21.31-29.32c10-10.96,22.21-18.68,35.84-24.37c8.38-3.5,16.2-8.15,22.99-14.16
		c4.9-4.33,4.85-7.4-0.26-10.99c-2.13-1.5-4.72-2.74-7.27-3.21c-7.39-1.35-14.74-1.46-22.24,0.36
		c-18.7,4.55-34.71,13.71-47.34,28.06c-8.27,9.39-15.62,19.62-22.93,29.8c-8.74,12.17-16.84,24.8-22.33,38.86
		c-2.79,7.14-5.71,14.19-9.96,20.61c-1.98,3-7.06,4.02-9.48,2.36c1.66-0.97,4.11-1.66,5.32-3.28c2.01-2.69,3.41-5.9,4.74-9.03
		c3.36-7.92,6.55-15.92,9.79-23.9c0.08-0.19-0.04-0.46-0.09-0.88c-0.66,0-1.31-0.07-1.93,0.01c-6.05,0.78-12.1,1.53-18.14,2.41
		c-11.43,1.67-22.47,1.29-32.09-6.16c-2.4-1.85-4.4-4.26-7.89-2.42c-0.35,0.19-1.04-0.3-1.58-0.42c-0.53-0.12-1.14-0.39-1.6-0.23
		c-5.49,1.91-11.16,0.95-16.76,1.15c-2.16,0.08-4.33,0.01-6.5,0.01c0.17,0.24,0.34,0.48,0.51,0.73c-0.84,1.23-1.44,3.22-2.55,3.56
		c-3.41,1.06-5.85,3.2-8.42,5.5c-4.09,3.66-9.3,3.51-14.39,3.08c-4.62-0.39-9.21-1.44-13.82-1.46c-7.47-0.03-14.95,0.72-22.42,0.8
		c-9.12,0.1-17.95-1.84-26.49-4.96C148.42,363.86,144.69,362.12,140.9,360.54z M556.87,479.62c-1.07,0.76-1.54,1.05-1.96,1.4
		c-6.26,5.09-12.28,10.49-18.8,15.22c-17.53,12.72-36.55,22.82-56.62,30.9c-7.53,3.03-15.14,6.07-23.49,5.97
		c-1.59-0.02-1.6,1.02-1.69,2.11c-0.33,3.82-0.49,7.66-1.06,11.45c-1.15,7.57-2.48,15.1-3.85,22.64c-0.52,2.87-2.4,4.52-5.33,4.91
		c-9.64,1.27-18.8-3.73-22.55-12.76c-2.08-5.01-3.66-10.24-5.15-15.45c-0.56-1.97-1.36-2.24-3.07-1.81
		c-17.73,4.44-35.75,7.12-53.92,8.88c-9.41,0.91-18.81,1.99-28.23,2.8c-10.15,0.87-20.31,1.6-30.48,2.22
		c-8.91,0.54-17.83,1.2-26.74,1.16c-20.13-0.09-40.27-0.46-60.4-0.96c-7.89-0.2-15.83-0.64-23.65-1.68
		c-13.22-1.75-26.39-3.94-39.54-6.16c-16.67-2.81-33.16-6.26-48.02-15.24c-0.38,3.27-0.84,6.55-1.08,9.85
		c-0.04,0.61,0.66,1.5,1.26,1.9c2.54,1.7,5.38,3.01,7.73,4.93c5.17,4.23,10.02,8.86,15.16,13.13
		c20.51,17.04,42.63,31.29,68.34,39.34c7.81,2.45,15.72,4.57,23.87,4.54c20.54-0.05,41.08-0.47,61.61-0.98
		c11.79-0.29,23.57-1.11,35.36-1.59c12.21-0.5,24.41-1.07,36.63-1.23c12.48-0.16,24.96,0.17,37.44,0.23
		c9.79,0.05,19.59,0.27,29.38-0.07c6.81-0.24,13.71-0.73,20.35-2.16c10.39-2.24,20.03-6.74,29.12-12.24
		c3.46-2.09,6.45-4.93,9.78-7.25c4.07-2.83,8.35-5.37,12.42-8.21c11.46-7.99,22.31-16.72,31.48-27.35
		c7.78-9.01,15.4-18.15,23.21-27.13c1.32-1.51,3.2-2.53,5.41-4.23C551.99,505.15,554.37,492.71,556.87,479.62z M442.27,154.82
		c-0.75,40.15-3.44,79.96-16.74,118.56c0.94-0.14,1.18-0.14,1.4-0.21c0.31-0.09,0.59-0.32,0.9-0.35c9.41-0.73,18.25,0.76,25.52,7.31
		c3.22,2.9,5.8,6.37,4.35,11.16c-1.71,5.65-5.35,9.88-10.38,12.75c-9.6,5.48-19.3,10.76-29.01,16.04c-1.43,0.78-1.95,1.33-1.4,3.11
		c1.75,5.6,1.91,11.4,1.4,17.2c-0.1,1.08-0.99,2.1-1.52,3.14c-0.28-0.06-0.56-0.12-0.84-0.18c1.79,8.26,3.55,16.53,5.39,24.78
		c0.35,1.57,0.6,3.38,1.54,4.56c3.96,4.96,8.11,9.77,12.33,14.51c0.71,0.8,2.12,1.31,3.24,1.36c7.91,0.33,15.56-1.14,22.98-3.79
		c7.09-2.53,13.59-6.64,21.17-7.9c4.77-0.8,9.52-1.71,13.87-2.49c0-1.5-0.09-2.86,0.02-4.19c0.22-2.66,0.78-5.32,0.81-7.98
		c0.06-5.13-0.13-10.27-0.24-15.41c-0.22-10.02-0.55-20.04-0.66-30.06c-0.15-13.97-1.43-27.83-3.46-41.63
		c-2.78-18.92-6.25-37.68-13.62-55.48c-5.11-12.34-8.93-25.19-16.6-36.49C456.19,173.55,450.06,163.68,442.27,154.82z
		 M406.52,344.65c-1.16,0.13-2.14,0.12-3.05,0.37c-4.86,1.32-9.63,3.24-14.57,3.91c-3.94,0.53-6.25,2.23-8.52,5.26
		c-6.93,9.28-10.67,19.53-11.68,31.08c-0.82,9.47-2.56,18.87-3.89,28.3c-0.38,2.69,0.68,5.21,2.6,6.55
		c7.95,5.53,15.95,11.03,24.29,15.94c9.49,5.59,16.94,12.85,19.3,23.73c2.73,12.56,4.83,25.29,6.39,38.04
		c1.55,12.61,1.72,25.38,3.2,37.99c0.85,7.21,2.57,14.44,4.85,21.34c2.23,6.73,10.17,11.36,16.03,10.67
		c1.71-0.2,2.64-0.81,2.84-2.62c1.14-9.96,2.62-19.88,3.48-29.86c1.64-19.17,3.06-38.36,4.33-57.56c0.5-7.47,0.72-15,0.4-22.48
		c-0.49-11.3-3.92-21.86-9.4-31.76c-5.3-9.58-10.12-19.44-15.89-28.73c-5.53-8.9-12.08-17.16-18-25.83
		c-1.05-1.54-1.48-3.68-1.68-5.6c-0.35-3.32-0.24-6.68-0.41-10.02C407.03,350.55,406.76,347.73,406.52,344.65z M125.89,431.31
		c-0.04-0.21-0.12-0.84-0.29-1.45c-2.42-8.6-4.86-17.19-7.28-25.79c-2.12-7.54-5.11-14.72-8.97-21.55
		c-0.78-1.38-1.41-1.61-2.86-0.97c-1.85,0.82-3.82,1.44-5.8,1.88c-13.36,2.97-26.47,6.72-39.27,11.67
		c-11.52,4.45-22.02,10.2-29.83,20.04c-7.01,8.83-11.81,18.72-13.61,29.9c-1.93,12.07-0.49,24.12,1.32,36.03
		c1.23,8.09,3.44,16.06,5.6,23.97c1.67,6.1,3.83,12.08,6.02,18.02c1.19,3.22,2.98,3.72,6.29,2.52c2.68-0.97,4.3-2.98,5.12-5.55
		c3.82-12.07,3.22-23.73-3.47-34.78c-6.81-11.26-8.55-23.41-5.98-36.21c3.65-18.13,19.97-28.24,34.63-30.36
		c1.8-0.26,2.75-0.79,3.6-2.52c3.37-6.81,7.28-13.31,13.12-18.37c4.99-4.32,10.73-7.21,17.24-8.58c-1.2,1.26-2.59,2.23-3.88,3.32
		c-4.53,3.82-9.49,7.26-13.44,11.62c-9.48,10.49-12.88,23.71-15.26,37.21c-1.59,9.03-2.01,18.16-1.19,27.3
		c0.81,9,1.43,18.06,3.01,26.94c2.33,13.1,4.31,26.21,4.78,39.51c0.42,12.06,0.8,24.11,1.23,36.17c0.12,3.42,2.2,5.99,4.97,6.34
		c2.47,0.31,5.01-1.63,5.98-4.77c0.89-2.87,1.64-5.79,2.39-8.7c1.77-6.85,3.98-13.62,5.15-20.57c2.87-17.02,0.74-33.99-1.73-50.86
		c-1.32-9.04-2.99-18.02-1.14-27.17c1.15-5.67,1.99-11.59,5.72-16.17C105.35,440.49,115.5,435.85,125.89,431.31z M235.46,445.05
		c0.02-0.21,0.05-0.42,0.07-0.63c-0.4,0.27-0.83,0.51-1.21,0.82c-0.5,0.41-0.96,0.88-1.45,1.31c-7.78,7.04-16.23,13.17-26.21,16.59
		c-3.89,1.34-5.85,3.45-7.21,7.2c-4.93,13.57-6.81,27.47-5.1,41.79c1.36,11.36,5.57,21.69,11.84,31.21c1.98,3,4.05,5.95,6.28,9.21
		c19.39,0,39.31,0,58.81,0c-7.69-34.87-10.02-69.47,1.97-103.48c-9.25-0.79-18.81-1.54-28.36-2.46
		C241.72,446.32,238.6,445.59,235.46,445.05z M414.59,537.9c-0.33-5.62-0.64-11.31-1-16.99c-1.11-17.17-3.31-34.19-6.23-51.15
		c-2.06-11.95-6.95-21.5-17.7-27.72c-3.62-2.09-6.87-4.82-10.45-7.37c-0.05,3.39-2.22,5.58-5.41,5.6
		c-3.91,0.03-7.83-0.03-11.73-0.22c-1.51-0.07-2.36,0.37-3.07,1.71c-3.1,5.93-7.67,10.54-13.48,13.78
		c-3.08,1.72-6.42,2.96-9.99,4.58c5.31,29.01,11.7,58.22,7.57,88.68C367.44,545.5,391.36,544.6,414.59,537.9z M330.51,459.2
		c-0.46-0.03-1.44-0.07-2.4-0.18c-10.7-1.22-20.24-5.34-28.7-11.91c-1.94-1.51-3.56-1.86-5.95-1.23c-4.47,1.18-9.05,2.07-13.63,2.63
		c-1.88,0.23-2.63,0.81-3.23,2.47c-4.96,13.73-6.78,27.97-6.91,42.45c-0.08,8.56,0.19,17.12,0.47,25.67
		c0.36,10.98,2.47,21.66,6.25,31.98c0.25,0.69,1.28,1.48,2,1.53c1.85,0.14,3.73-0.1,5.61-0.18c12.44-0.58,24.89-1.08,37.32-1.77
		c6.15-0.34,12.27-1.02,18.17-1.53C340.21,518.75,337.61,488.91,330.51,459.2z M449.69,420.55c3.26-0.88,6.73-2.3,10.3-2.67
		c11.74-1.22,23.51-2.23,35.29-3.01c13.48-0.89,26.82,0.07,39.86,3.92c10.11,2.98,18.39,8.4,23.23,18.02
		c5.25,10.42,6.28,21.7,5.35,33.11c-1.07,13.16-3.62,26.09-6.38,39.01c-1.35,6.31-1.44,12.91-1.75,19.4
		c-0.14,2.91,1.45,3.87,3.91,2.37c2.2-1.33,4.47-3.22,5.65-5.43c5.89-10.96,11.1-22.23,14.39-34.31
		c5.63-20.73,5.37-41.27-2.46-61.36c-6.54-16.77-16.82-30.82-32.3-40.55c-6.7-4.21-13.72-7.97-21.83-8.43
		c-12.96-0.74-25.89-0.56-38.67,2.34c-9.64,2.19-18.95,5.16-27.82,9.59c-4.55,2.27-9.46,3.48-14.62,2.21
		c-2.68-0.66-5.35-1.39-7.34-1.92C439.43,401.84,444.57,411.21,449.69,420.55z M192.32,628.34c8.35,1.18,17.02,2.54,25.73,3.59
		c12.28,1.47,24.56,3.09,36.89,3.95c16.57,1.15,33.2,0.45,49.81,1.84c10.72,0.9,21.64-0.4,32.46-0.86
		c10.82-0.45,21.63-1.05,32.44-1.64c9.35-0.51,18.69-1.04,28.03-1.66c14.78-0.97,29.56-2.03,44.35-3.06
		c0.46-0.03,0.9-0.18,1.54-0.31c0-7.15,0-14.19,0-21.5c-1.49,0.38-2.79,0.86-4.13,1.01c-6.96,0.76-13.91,1.77-20.9,2.05
		c-11.15,0.45-22.33,0.57-33.49,0.52c-9.77-0.04-19.55-0.82-29.32-0.69c-13.36,0.18-26.71,0.87-40.06,1.42
		c-8.55,0.35-17.09,0.85-25.64,1.27c-11.14,0.55-22.28,1.36-33.43,1.58c-11.17,0.23-22.35,0.11-33.51-0.3
		c-8.92-0.33-17.91-0.67-26.47-3.79c-1.85-0.68-3.81-1.08-5.65-1.59C191.42,616.25,191.85,622.06,192.32,628.34z M474.61,523.07
		c17.09-6.58,33.15-15.21,48.46-25.32c2.14-1.41,4.34-2.58,3.82-5.75c-0.11-0.65,0.29-1.43,0.56-2.1
		c2.52-6.21,2.29-12.53,0.92-18.95c-1.87-8.73-6.47-16-11.67-23.06c-6.63-9-14.65-16.2-24.55-21.53c-5.7-3.07-11.12-5.17-17.8-3.81
		c-7.46,1.52-15.08,2.25-22.43,3.3c2.02,6.43,3.87,12.38,5.8,18.32c0.21,0.65,0.84,1.17,1.28,1.74c2.8,3.7,5.96,7.18,8.32,11.14
		c8.84,14.85,10.59,31.29,9.76,48.11C476.79,511.11,475.47,517.01,474.61,523.07z M462.6,721.51c-4.79-3.47-8.85-6.45-12.95-9.37
		c-0.7-0.5-1.56-1.12-2.33-1.09c-3.73,0.1-7.46,0.42-11.19,0.62c-14.31,0.76-28.61,1.68-42.93,2.2
		c-16.45,0.59-32.92,1.11-49.38,1.15c-28.8,0.06-57.6-0.2-86.4-0.47c-12.14-0.12-24.28-0.6-36.42-0.95
		c-11.23-0.32-22.21-1.97-32.63-6.36c-1.32-0.56-2.03-0.31-2.86,0.75c-2.27,2.87-4.63,5.68-6.99,8.49c-1.28,1.52-2.63,2.97-4.3,4.85
		c3.96,1.36,7.42,2.81,11.02,3.7c3.62,0.9,7.37,1.3,11.07,1.82c14.37,2.01,28.76,3.77,43.31,4.01c11.64,0.19,23.28,1.15,34.92,1.31
		c14.11,0.19,28.23,0.08,42.34-0.23c12.05-0.26,24.09-0.92,36.12-1.49c16.1-0.76,32.21-1.43,48.3-2.46
		c15.36-0.99,30.7-2.28,46.02-3.7C452.28,723.79,457.16,722.51,462.6,721.51z M196.83,466.37c-1.2,0.23-1.58,0.29-1.96,0.38
		c-14.6,3.17-28.76,2.57-42.23-4.66c-0.63-0.34-2-0.16-2.55,0.32c-6.22,5.44-10.46,12.14-12.68,20.15
		c-2.03,7.29-1.19,14.73-1.46,22.12c-0.61,16.77,6.51,29.86,19.07,40.38c0.45,0.38,1.16,0.51,1.77,0.61
		c11.71,1.9,23.4,3.86,35.13,5.61c4.53,0.68,9.13,0.88,13.9,1.31C185.95,525.57,184.28,496.95,196.83,466.37z M481.29,206.26
		c20.58-18.7,44.36-29.35,71.78-32.14c-0.18-0.48-0.35-1.1-0.62-1.68c-7.87-16.91-16.9-33.17-27.36-48.63
		c-1.49-2.2-2.87-2.99-5.31-1.67c-0.9,0.49-2.02,0.6-3.05,0.82c-17.49,3.63-30.46,14.01-40.61,28.06
		c-4.64,6.42-8.11,13.69-11.98,20.64c-0.38,0.68-0.14,2.02,0.29,2.79c4.27,7.76,8.69,15.44,12.93,23.21
		C478.9,200.49,480.06,203.53,481.29,206.26z M206.96,250.39c4.04-0.46,8.18-0.5,12.08-1.49c5.48-1.38,10.75-3.58,16.18-5.21
		c2.28-0.68,4.95-1.6,7.05-1c5.46,1.56,10.94,1.54,16.37,0.91c9.23-1.07,17.09-5.26,24.18-11.26c5.4-4.58,7.43-10.12,6.36-16.93
		c-1-6.38-4.77-10.21-10.77-12.6c-7.3-2.91-14.81-3.15-22.35-2.53c-3.52,0.29-7.27,1.48-10.3,3.3c-3.94,2.37-7.26,5.77-10.85,8.72
		c-3.56,2.93-5.86,3.14-9.68,0.5c-6.53-4.51-13.82-5.11-21.3-4c-3.87,0.58-7.4,2.39-10.18,5.39c-4.92,5.31-6.93,11.86-8.04,18.78
		c-1.05,6.55,1.12,10.89,6.8,14.37C197,250.1,201.93,250.11,206.96,250.39z M442.45,688.31c-0.94,0.08-1.66,0.1-2.38,0.21
		c-7.88,1.2-15.73,2.73-23.65,3.54c-12.06,1.23-24.17,2.62-36.27,2.77c-21.52,0.28-43.06-0.31-64.59-0.55
		c-5.38-0.06-10.76-0.16-16.14-0.28c-20.7-0.48-41.4-0.86-62.09-1.52c-6.9-0.22-13.85-0.73-20.66-1.85
		c-8.86-1.45-17.91-2.23-26.84-6.24c0,4.99,0.17,9.55-0.07,14.09c-0.12,2.35,0.7,3.17,2.83,3.83c16.44,5.14,33.47,6.14,50.44,6.48
		c21.76,0.43,43.55-0.15,65.32-0.38c14.26-0.15,28.53-0.44,42.79-0.71c11.08-0.21,22.16-0.5,33.24-0.77
		c5.87-0.14,11.73-0.24,17.6-0.48c12.61-0.52,25.22-1.11,37.83-1.67c0.77-0.03,1.54,0,2.63,0
		C442.45,699.12,442.45,693.86,442.45,688.31z M501.27,289.44c25.57-13.2,52.74-13.98,80.77-9.55c-0.95-5.04-1.75-9.83-2.76-14.57
		c-2.28-10.81-4.72-21.59-6.95-32.41c-0.35-1.7-0.87-2.27-2.63-2.27c-10.37,0.02-20.6,0.99-30.82,2.92
		c-12.17,2.3-23.89,5.66-34.74,11.73c-3,1.68-5.98,3.42-8.91,5.1C497.19,263.05,499.2,276.04,501.27,289.44z M191.23,645.27
		c9.46,1.83,18.66,3.96,27.96,5.3c8.61,1.24,17.35,1.58,26.02,2.41c14.75,1.41,29.48,3.16,44.26,4.27
		c18.48,1.38,36.97,0.35,55.45-0.59c9.67-0.49,19.36-0.89,29.01-1.7c12.81-1.07,25.59-2.41,38.37-3.82c6.21-0.69,12.35-2,18.56-2.64
		c3.93-0.4,7.92-0.08,12.23-0.08c0-4.8,0-9.15,0-13.68c-0.73,0.04-1.53,0.04-2.31,0.13c-5.34,0.6-10.66,1.34-16.01,1.79
		c-10.07,0.83-20.14,1.56-30.22,2.21c-9.42,0.6-18.86,1.05-28.29,1.53c-7.8,0.4-15.61,0.75-23.42,1.14
		c-9.93,0.5-19.85,1.37-29.77,1.42c-11.72,0.07-23.46-0.48-35.18-0.91c-8.22-0.3-16.44-0.67-24.63-1.36
		c-9.74-0.82-19.45-1.91-29.15-3.1c-7.59-0.94-15.15-2.11-22.68-3.4c-3.16-0.54-6.23-1.67-9.59-2.6
		C191.65,636.09,191.45,640.37,191.23,645.27z M588.43,331.17c-0.24-3.34-0.31-6.52-0.71-9.66c-1.47-11.55-3.15-23.07-4.51-34.63
		c-0.27-2.32-1.3-3.03-3.25-3.25c-1.61-0.18-3.22-0.46-4.83-0.51c-8.05-0.28-16.11-0.8-24.15-0.65c-6,0.11-12.05,0.74-17.97,1.8
		c-10.26,1.84-20.25,4.76-29.84,8.96c-1.44,0.63-1.93,1.14-1.8,2.78c0.63,7.96,1.1,15.93,1.58,23.89c0.26,4.35,0.41,8.7,0.62,13.28
		c1.41-0.78,2.54-1.57,3.79-2.06c8.9-3.55,18.08-5.84,27.72-5.91c4.64-0.03,9.3-0.04,13.93,0.29c7.14,0.51,14.29,1.06,21.36,2.06
		C576.38,328.41,582.29,329.92,588.43,331.17z M493.81,245.31c1.22-0.87,2.42-1.85,3.73-2.65c2.71-1.65,5.31-3.67,8.25-4.7
		c9.33-3.29,18.72-6.49,28.24-9.16c10.75-3.01,21.86-3.24,32.96-3.03c1.09,0.02,2.19,0,3.31,0c0-0.6,0.06-0.86-0.01-1.08
		c-4.07-12.92-7.93-25.91-12.32-38.72c-2.5-7.29-2.87-6.95-10.69-6.09c-13.25,1.45-25.33,6.29-37.15,12.08
		c-9.47,4.64-18.64,9.68-25.79,17.71c-0.96,1.08-1.08,1.86-0.61,3.21c2.19,6.29,4.3,12.61,6.28,18.97
		C491.47,236.56,492.7,241.34,493.81,245.31z M190.6,666.59c-0.19,4.1-0.44,8.31-0.49,12.52c-0.01,0.55,0.99,1.48,1.64,1.6
		c12.12,2.35,24.2,5.02,36.42,6.74c7.54,1.06,15.28,0.73,22.94,0.88c16.46,0.31,32.93,0.51,49.39,0.76
		c10.02,0.15,20.05,0.51,30.07,0.45c28.35-0.18,56.76,1.18,85.01-2.45c8.47-1.09,16.93-2.31,25.4-3.47c1.18-0.16,1.91-0.5,1.85-1.97
		c-0.12-3.18-0.12-6.36-0.03-9.54c0.05-1.78-0.63-1.97-2.22-1.76c-12.99,1.75-25.95,3.76-38.99,4.99c-12.72,1.2-25.5,1.93-38.27,2.2
		c-12.54,0.27-25.1-0.21-37.65-0.48c-14.58-0.32-29.16-0.98-43.74-1.13c-20.62-0.21-41.2-0.97-61.7-3.41
		C210.23,671.32,200.26,670.21,190.6,666.59z M145.31,544.34c0.09-0.32,0.18-0.65,0.28-0.97c-0.36-0.43-0.72-0.86-1.07-1.3
		c-7.91-9.95-12.76-21.16-13.42-33.93c-0.67-12.9,1.74-25.27,6.92-37.13c1.9-4.34,4.56-7.83,8.59-10.3c0.49-0.3,0.91-0.72,1.39-1.11
		c-1.92-1.38-3.94-2.34-5.27-3.89c-3.37-3.94-7.05-3.72-11.55-2.19c-14.53,4.92-27.7,18.71-27.12,35.09
		c0.12,3.31-0.52,6.66-0.96,9.97c-0.08,0.61-0.89,1.12-1.36,1.67c-2.36-12.01-1.68-23.32,4.68-33.42
		c6.31-10.03,15.76-16.21,27.35-19.31c-1.97-3.27-3.78-6.29-5.89-9.8c-5.32,2.56-10.66,4.76-15.62,7.63
		c-4.88,2.82-9.48,6.36-11.81,11.71c-3.24,7.47-4.2,15.41-2.84,23.46c2.6,15.37,4.75,30.78,4.71,46.4c-0.01,2.5,0.56,3.82,2.95,4.71
		c4.27,1.57,8.31,3.82,12.64,5.13C126.98,539.51,136.17,541.84,145.31,544.34z M190.56,662.47c0.4,0.15,0.69,0.27,0.99,0.36
		c14.78,4.16,29.86,6.4,45.17,7.12c11.55,0.55,23.1,1.17,34.65,1.46c16.22,0.42,32.44,0.76,48.66,0.77c19,0.02,38-0.25,57-0.58
		c16.95-0.3,33.85-1.36,50.62-4.06c5.03-0.81,10.06-1.56,14.96-2.32c0-4.26,0-8.47,0-12.94c-3.77,0.59-7.27,1.23-10.79,1.66
		c-12.13,1.48-24.25,3.1-36.41,4.26c-11.67,1.11-23.39,1.81-35.1,2.51c-11.46,0.69-22.94,1.41-34.41,1.64
		c-11.58,0.24-23.17,0.03-34.75-0.23c-7.32-0.16-14.65-0.57-21.95-1.21c-12.25-1.07-24.49-2.35-36.72-3.67
		c-7.53-0.81-15.07-1.61-22.53-2.89c-6.25-1.08-12.37-2.85-18.63-4.33C191.09,653.85,190.83,658.13,190.56,662.47z M588.8,337.15
		c-6.79-1.41-13.45-2.88-20.13-4.17c-11.58-2.24-23.3-2.57-35.05-2.39c-10.08,0.15-19.72,2.13-28.62,7.01
		c-0.61,0.34-1.21,1.34-1.22,2.04c-0.08,8.12-0.05,16.24-0.05,24c1.8-0.78,3.86-2.21,6.07-2.54c7.49-1.08,15.03-2.09,22.58-2.55
		c17.26-1.05,33.79,2.36,49.67,9.11c2.12,0.9,4.21,1.89,6.76,3.04C588.8,359.32,588.8,348.35,588.8,337.15z M267.62,350.71
		c3.02,0,5.93-0.49,8.6,0.1c5.78,1.28,11.41,3.19,17.14,4.69c7.35,1.91,14.62,2.17,21.63-1.51c3.81-2,5.45-5.07,4.09-9.22
		c-0.71-2.17-2.05-4.23-3.46-6.06c-4.21-5.42-5.52-11.36-3.46-17.88c1.5-4.75,1.65-9.4,0.03-14.12c-1.03-3.02-3.34-4.84-6.42-4
		c-5.86,1.59-11.84,3.12-17.31,5.67c-5.17,2.42-9.64,6.3-14.63,9.17c-2.5,1.44-4,2.65-3.33,5.91c0.39,1.91-0.46,4.07-0.73,5.94
		c3.82-1.3,7.48-2.94,11.32-3.73c3.95-0.82,8.06-0.97,12.12-1.13c3.89-0.16,7.84-0.39,11.53,1.75c-4.66,1.18-9.31,2.3-14.03,2.74
		c-6.96,0.65-13.98,0.61-20.35,4.24c-1.15,0.65-1.75,1.1-1.82,2.39C268.26,340.7,267.92,345.74,267.62,350.71z M227.41,333.12
		c0.22-0.11,0.43-0.21,0.65-0.32c-0.27-3.27-0.46-6.56-0.87-9.81c-0.07-0.59-0.91-1.26-1.55-1.56c-9.05-4.38-18.58-7.27-28.49-8.91
		c-4.76-0.79-9.03,0.2-12.85,3.22c-1.83,1.45-2.57,3.23-2.49,5.51c0.19,5.24,1.45,10.16,4.48,14.48c1.11,1.58,1.27,3.05,0.7,4.8
		c-1.38,4.25-2.87,8.47-3.96,12.79c-0.41,1.63-0.51,3.99,0.38,5.2c4.24,5.78,11.89,8,18.82,6.01c6.93-1.99,13.3-5.17,19.54-8.74
		c3.16-1.8,5.08-3.91,5.15-7.74c0.08-4.07,0.64-8.14,0.98-12.14c-6.71-0.22-12.87-0.82-18.98-0.51c-6.07,0.31-12.1,1.53-18.35,2.38
		c0.25-0.48,0.32-0.83,0.48-0.88c5.26-1.55,10.46-3.41,15.81-4.49c3.62-0.73,7.48-0.15,11.2-0.52
		C221.31,331.56,224.49,330.95,227.41,333.12z M493.31,420.58c-0.03,0.33-0.06,0.66-0.09,0.98c0.64,0.33,1.26,0.72,1.92,0.99
		c6.54,2.6,12.48,6.25,16.99,11.62c5.12,6.11,10.03,12.46,14.37,19.13c4.58,7.02,7.19,14.96,7.62,23.43
		c0.22,4.27,0.04,8.57,0.04,12.8c-0.07,0.03,0.27-0.03,0.49-0.23c7.49-6.75,14.97-13.5,22.43-20.29c0.31-0.28,0.47-0.85,0.48-1.3
		c0.29-8.94-0.18-17.8-4.27-25.99c-2.2-4.39-4.14-9.05-8.85-11.63c-6.24-3.41-12.65-6.64-19.73-7.39
		C514.29,421.61,503.78,421.26,493.31,420.58z M502.94,374.13c36.92-3.46,61.42,14.23,77.38,46.63c4.65-15.13,6.9-30.25,7.99-45.08
		c-4.57-1.54-9.04-2.62-13.11-4.53c-5.5-2.59-11.09-4.47-17.09-5.48c-11.02-1.85-22.08-1.84-33.15-1.11
		c-6.57,0.43-13.11,1.15-19.28,3.84C503.11,369.52,502.28,371.1,502.94,374.13z M77.31,308.4c21.13,11.38,39.27,26.51,56.87,43.45
		c1.16-6.45,2.24-12.26,3.21-18.08c0.07-0.4-0.54-0.97-0.93-1.38c-2.5-2.63-5.61-4.88-7.44-7.9c-6.38-10.57-12.35-21.38-18.36-32.16
		c-0.77-1.38-1.61-2.12-3.11-2.22c-3.66-0.23-7.31-0.55-10.97-0.65c-4.37-0.11-8.75-0.03-13.33-0.03
		C81.33,295.57,79.32,301.97,77.31,308.4z M181.01,364.88c0.05-0.26,0.1-0.36,0.07-0.41c-0.16-0.27-0.34-0.54-0.53-0.78
		c-3.83-4.82-4.83-10-2.01-15.68c1.15-2.33,2.29-4.68,3.28-7.08c0.3-0.72,0.41-1.86,0.04-2.45c-2.83-4.49-4.33-9.38-4.61-14.72
		c-0.48-0.03-0.81-0.13-1.1-0.05c-11.04,3.1-22.08,6.19-33.09,9.4c-0.68,0.2-1.44,1.27-1.57,2.03c-0.9,5.21-1.7,10.43-2.38,15.67
		c-0.11,0.88,0.21,2.13,0.82,2.74c3.63,3.63,7.92,6.41,12.94,7.47c5.3,1.12,10.74,1.63,16.12,2.36
		C172.98,363.91,177,364.38,181.01,364.88z M317.72,358.93c3.45-0.34,6.51-0.77,9.58-0.9c2.02-0.08,3.13-0.84,4.13-2.64
		c7.75-13.98,16.39-27.39,26.62-39.71c1.73-2.08,2.73-3.92,1.15-7.04c-13.49,0-27.28,0-41.21,0c1.29,5.65,0.36,11.28-1.08,16.96
		c-0.44,1.73-0.03,3.94,0.69,5.63c1.62,3.81,3.65,7.45,5.57,11.13c2.28,4.38,2.41,8.61-0.96,12.49
		C321,356.25,319.48,357.35,317.72,358.93z M363.24,192.67c-1.75,9.03-6.3,16.38-13.41,22.04c-2.63,2.1-5.77,4.7-8.82,4.9
		c-5.64,0.36-11.38,1.29-17.12-1.63c-13.58-6.88-21.84-16.7-20.95-32.65c0.44-7.95,3.21-14.9,8.91-20.55
		c5.27-5.22,11.39-7.83,19.08-7.49c9.01,0.39,16.94,3.06,23.72,8.88c2.3,1.97,4.03,4.62,6.02,6.95c-0.68-2.03-1.32-4.19-2.58-5.9
		c-6.2-8.44-14.64-13.45-24.81-15.67c-2.17-0.47-4.5-1.88-6.45-1.45c-12.61,2.76-22.76,9.38-29.76,20.42
		c-5.48,8.65-6.26,17.98-3.72,27.7c2.6,9.92,7.61,18.11,16.99,23.07c7.13,3.77,14.81,4.11,22.59,3.63
		c5.27-0.33,10.38-1.79,14.77-4.59C357.74,213.91,361.45,203.73,363.24,192.67z M232.47,353.24c6.37,0,12.76,0.11,19.15-0.05
		c3.16-0.08,6.31-0.61,9.44-1.03c2-0.27,2.81-1.44,2.74-3.57c-0.16-4.94-0.29-9.9-0.05-14.84c0.23-4.6,0.95-9.18,1.47-13.99
		c-2.07-0.38-3.95-0.72-6.1,0.3c-2,0.95-4.32,1.39-6.55,1.66c-5.81,0.72-11.65,1.27-17.48,1.81c-2.13,0.2-2.95,1.04-2.75,3.3
		c0.26,2.9,0.11,5.84,0.11,8.77C232.48,341.28,232.47,346.95,232.47,353.24z M50.82,491.63c-1.45-6.12-1.68-12.1-0.55-18.1
		c1.43-7.61,4.06-14.55,10.41-19.59c0.75-0.6,1.22-1.93,1.28-2.96c0.5-8.17,1.89-16.16,4.56-23.91c0.24-0.71,0.4-1.44,0.7-2.55
		c-12.44,2.64-21.41,8.98-26.74,20.19c-4.32,9.08-3.45,18.29-1.2,27.7C41.11,480.03,44.79,486.35,50.82,491.63z M455.51,528.18
		c3.53-0.84,7.32-1.71,11.07-2.69c0.61-0.16,1.39-0.69,1.59-1.23c0.99-2.71,2.27-5.43,2.61-8.25c0.78-6.51,1.46-13.07,1.5-19.61
		c0.07-11.43-2.31-22.45-7.02-32.89c-1.75-3.89-3.93-7.6-5.75-11.06C458.19,477.66,456.85,502.91,455.51,528.18z M262.85,391.99
		c-1.5,3.41-2.87,6.19-3.96,9.08c-2.73,7.21-5.15,14.53-8.05,21.67c-1.35,3.32-3.53,6.31-5.41,9.58
		c12.74,0.57,25.01-3.12,38.03-1.26C274.52,419.06,269.7,405.52,262.85,391.99z M486.15,133.66c-14.98,2.92-29.95,5.84-45.09,8.79
		c0.34,2.41,0.68,4.79,1.03,7.25c3.04-0.54,4.15,1.71,5.51,3.28c4.35,5.03,8.55,10.2,12.96,15.49
		C468.2,156.18,474.07,142.53,486.15,133.66z M105.84,377.35c-2.64-3.25-5.22-6.48-7.88-9.64c-0.35-0.42-1.15-0.74-1.69-0.68
		c-7.65,0.86-15.29,1.94-22.95,2.65c-4,0.37-5.71,2.04-5.81,6.15c-0.1,3.81-0.96,7.6-1.46,11.18
		C79.35,383.78,92.4,380.61,105.84,377.35z M93.96,253.13c-5.04,10.46-6.71,21.41-9.66,31.81c7.64,0,14.89,0,22.15,0
		C102.33,274.43,98.21,263.95,93.96,253.13z M61.27,458.6c-4.34,4.93-7.27,10.64-7.39,17.09c-0.13,6.62,0.85,13.26,1.43,19.88
		c0.07,0.83,0.52,1.81,1.12,2.39c3.35,3.27,6.8,6.44,10.58,9.98C64.94,491.22,61.04,475.19,61.27,458.6z M91.89,362.43
		c0.16-0.3,0.31-0.61,0.47-0.91c-6.32-4.98-12.63-9.96-19.35-15.26c-1.53,7.29-2.9,13.8-4.38,20.81
		C76.61,363.97,84.04,362.1,91.89,362.43z M411.85,323.18c-9.66,4.82-16.72,11.69-22.49,20.26c7.56-3.72,15.73-4.53,24-5.04
		C412.85,333.25,412.37,328.42,411.85,323.18z M277.46,309.45c-17.74-0.4-33.88,5.33-50.71,6.89c2,0.99,4.08,2.19,6.09,2.08
		c6.5-0.36,12.97-1.13,19.44-1.88c4.33-0.5,8.68-1.95,12.94-1.69C270.4,315.16,273.17,311.7,277.46,309.45z M242.52,198.57
		c-2.16-2.88-16.63,0.27-23.12,5.64c3.53,2,6.85,3.94,10.25,5.73c0.49,0.26,1.49,0,2.03-0.36c2.82-1.88,5.59-3.83,8.31-5.85
		c0.46-0.34,0.59-1.12,0.87-1.71C241.4,200.92,241.92,199.83,242.52,198.57z M338.8,180.01c3.09,0.01,6.66-2.76,6.07-5.37
		c-0.43-1.89-2.24-4.63-3.78-4.88c-4.21-0.68-7.16,1.62-7.03,4.45C334.18,177.02,335.29,180.34,338.8,180.01z M216.01,365.26
		c7.61,2.74,11.32-2.5,15.78-6.28C225.4,358.2,221.77,363.68,216.01,365.26z M412.93,351.58c0.39,5.5-1.95,11.67,3.19,16.72
		C415.01,362.51,413.97,357.04,412.93,351.58z M520.52,117.58c-0.86-1.43-1.58-2.63-2.04-3.39c-1.86,1.85-3.6,3.59-4.93,4.91
		C515.34,118.72,517.74,118.19,520.52,117.58z M290.91,362.09c0.1-0.29,0.19-0.59,0.29-0.88c-1.92-0.57-3.85-1.13-5.77-1.7
		c-0.08,0.25-0.15,0.5-0.23,0.74C287.1,360.87,289.01,361.48,290.91,362.09z"/>
	<path class="st0" d="M356.88,222.23c0.68,27.49,1.36,54.97,2.05,82.67c-2.59,0-5.71,0.08-8.83-0.02
		c-6.27-0.19-12.53-0.52-18.8-0.73c-4.16-0.14-8.32-0.07-12.47-0.28c-0.86-0.04-1.98-0.7-2.45-1.42c-3.1-4.73-7.9-6.83-13.29-5.06
		c-4.31,1.41-8.41,3.43-12.63,5.12c-1.26,0.5-2.58,0.98-3.91,1.12c-10.85,1.11-21.75,1.86-32.56,3.29
		c-7.71,1.02-15.3,2.91-22.94,4.43c-3.01,0.6-6.01,1.28-9.03,1.79c-0.9,0.15-1.97,0.08-2.8-0.28c-7.29-3.18-14.96-5.04-22.78-6.1
		c-6.46-0.88-12.38,1.05-16.98,5.69c-1.54,1.55-1.94,4.24-2.94,6.6c-11.75,3.08-24.03,6.31-36.85,9.67
		c-4.08-5.73-8.77-11.78-12.89-18.19c-16.49-25.63-27.1-53.68-33.32-83.39c-2.99-14.26-5.06-28.71-7.55-43.07
		c-0.13-0.78-0.34-1.54-0.52-2.3c-0.31,0.04-0.55,0-0.6,0.09c-2.34,3.37-2.33,3.35-6.3,2.57c-7.02-1.39-14.15-2.38-21.04-4.23
		c-15.13-4.05-26.94-12.98-36.08-25.64c-6.57-9.09-11.53-18.88-13.81-29.92c-1.34-6.51-1.75-13.11-0.75-19.68
		c1.35-8.9,7.51-14.17,14.83-18.27c16.02-8.97,33.32-11.94,51.54-11.45c8.79,0.24,16.87,3.29,25.33,4.74
		c3.12,0.53,6.25,1.05,9.38,1.53c1.77,0.27,2.76,0.05,3.35-2.25c0.62-2.4,2.39-4.6,3.97-6.65c11.29-14.56,24.83-26.71,40-37.1
		c20.18-13.82,42.43-22.49,66.44-26.94c16.01-2.97,32.13-2.65,48.23-1.7c10.22,0.6,20.48,1.68,30.55,3.54
		c18.27,3.38,35.92,8.91,52.53,17.45c9.1,4.68,17.42,10.48,25.35,16.91c4.69,3.8,9.37,7.62,14.27,11.14
		c6.68,4.8,11.33,11.41,16.5,17.59c5.73,6.83,11,13.96,14.68,22.11c2.67,5.92,4.98,12,7.52,17.98c0.68,1.61,1.44,3.26,4.05,3.71
		c-5.86-27.7-20.21-49.8-41.38-68.27c5.62-4.11,11.01-8.3,16.65-12.13c9.91-6.75,20.54-12.28,31.57-16.91
		c9.4-3.95,19.33-5.34,29.6-5.1c10,0.24,19.78,1.46,29.37,4.27c5.31,1.56,10.66,3.12,15.19,6.44c8.93,6.56,14.19,15.28,15.07,26.47
		c0.65,8.27-1.18,16.22-3.27,24.08c-2.88,10.81-7.2,21.06-13.09,30.61c-5.22,8.46-12.71,13.85-21.97,17.29
		c-10.19,3.78-20.56,6.75-31.26,8.45c-5.46,0.86-11.04,0.92-16.51,1.75c-3.09,0.47-6.07,1.71-9.06,2.69
		c-1.22,0.4-1.61,1.24-1.38,2.66c1.61,9.94,1.87,19.96,1.38,30c-0.52,10.82-0.78,21.69-2.01,32.44
		c-1.34,11.71-3.52,23.33-5.59,34.95c-1.53,8.57-3.33,17.1-5.27,25.58c-0.85,3.7-2.32,7.27-3.62,10.86c-0.2,0.54-0.95,1.1-1.55,1.25
		c-17.23,4.32-32.42,12.46-45.57,24.35c-2.52,2.27-4.62,5-7.31,7.95c-0.17-1.21-0.38-2-0.38-2.81c-0.09-11.59-0.13-23.17-0.24-34.76
		c-0.12-11.58-0.03-23.18-0.61-34.74c-0.26-5.12-1.85-10.2-3.07-15.24c-0.34-1.4-0.27-2.23,0.55-3.46
		c8.24-12.41,12.1-25.83,7.91-40.58c-4.94-17.37-17.11-26.87-34.43-30.34c-0.78-0.16-1.63-0.11-2.44-0.02
		c-2.9,0.32-5.8,1.04-8.69,0.98c-5.97-0.12-10.85,2.53-15.63,5.5c-5.38,3.35-10.3,7.41-13.76,12.69c-5.76,8.78-8.8,18.5-7.8,29.16
		c0.28,2.96,0.92,5.88,1.41,8.9c-12.02-8.43-25.44-8.09-39.04-6.52c-1.81,0.21-3.23,0.32-4.91-1.02c-1.35-1.07-3.63-1.48-5.45-1.38
		c-7.76,0.46-14.6,3.55-20.94,7.93c-0.95,0.65-2.32,0.92-3.5,0.96c-2.93,0.09-5.9-0.41-8.78-0.05c-8.42,1.05-14.53,5.61-18.61,13.02
		c-3.52,6.39-6.62,12.9-6.58,20.43c0.06,9.6,5.34,15.77,14.68,17.95c10.94,2.56,21.79,2.69,32.59-0.41c3.5-1,6.78-2.74,10.24-3.91
		c1.69-0.57,3.64-1.12,5.32-0.82c9.67,1.67,19.05,0.99,28.46-1.93c8.7-2.7,15.25-7.77,19.99-15.42c2.77-4.46,3.79-9.29,3.22-14.51
		c0.29-0.23,0.58-0.46,0.86-0.69c0.24,0.58,0.35,1.26,0.73,1.74c5.55,7.05,12.87,11.38,21.49,13.48c2.02,0.49,4.21,0.38,6.33,0.34
		c5.38-0.09,10.77-0.1,16.13-0.5c5.37-0.4,10.01-2.76,13.83-6.56c0.78-0.78,1.3-1.81,1.94-2.73
		C356.35,221.83,356.61,222.03,356.88,222.23z M171.23,213.41c-0.68-4.15-0.82-8.49-2.14-12.43c-2.96-8.85-10.98-15.02-22.15-14.6
		c-11.48,0.43-20.78,5.22-25.46,15.83c-7.01,15.89-2.4,33.63,11.38,44.91c7.05,5.76,19.84,6.55,26.65-2.08
		C166.81,235.8,170.83,225.37,171.23,213.41z M147.44,45.29c-1.94-0.45-3.57,0.39-4.77,2.4c-0.43,0.72-1.24,1.3-1.99,1.75
		c-8.13,4.85-14.44,11.42-18.51,19.97c-2.77,5.81-5.17,11.8-4.6,18.47c0.23,2.65,2.18,4.47,4.83,4.47c4.93,0.02,9.33-1.68,13.03-4.8
		c7.11-5.98,13.05-12.98,17.25-21.33c1.87-3.71,3.59-7.48,3.37-11.84C155.72,47.86,153.48,45.34,147.44,45.29z M122.21,119.7
		c-0.47,2.8,0.43,6.09,3.34,7.76c5.56,3.18,10.72,2.97,14.76-3.17c4.17-6.36,6.04-13.45,6.86-20.87c0.68-6.19-3.9-11.16-10.15-11.13
		c-1.66,0.01-3.18,0.48-3.75,2.46c-0.19,0.66-0.89,1.22-1.44,1.73c-0.76,0.72-1.76,1.23-2.38,2.04
		C124.82,104.57,122.25,111.37,122.21,119.7z M262.83,252.15c-0.06-0.34-0.12-0.67-0.19-1.01c-1.16,0.12-2.42,0-3.46,0.41
		c-10.29,4.05-20.81,6.4-31.95,4.89c-1.13-0.15-2.43,0.18-3.5,0.64c-1.46,0.63-1.73,1.98-0.33,2.8c1.53,0.9,3.33,1.73,5.06,1.84
		c6.86,0.41,13.67,0.08,20.26-2.23C253.78,257.71,258.72,255.72,262.83,252.15z M101.2,127.91c0,0.65-0.02,1.31,0,1.96
		c0.13,3.07,2.95,4.5,5.6,2.86c4.57-2.84,7.82-11.83,6.14-17.04c-0.69-2.13-2.35-2.99-4.44-3.28c-2-0.27-2.4,1.12-2.86,2.57
		c-0.16,0.52-0.6,0.96-0.91,1.44C102.51,119.92,101.11,123.69,101.2,127.91z"/>
	<path class="st0" d="M140.9,360.54c3.79,1.59,7.52,3.32,11.37,4.73c8.54,3.11,17.37,5.06,26.49,4.96
		c7.48-0.08,14.95-0.83,22.42-0.8c4.61,0.02,9.2,1.07,13.82,1.46c5.08,0.43,10.3,0.58,14.39-3.08c2.57-2.3,5.01-4.43,8.42-5.5
		c1.11-0.35,1.72-2.33,2.55-3.56c-0.17-0.24-0.34-0.48-0.51-0.73c2.17,0,4.34,0.07,6.5-0.01c5.59-0.2,11.27,0.75,16.76-1.15
		c0.45-0.16,1.07,0.11,1.6,0.23c0.54,0.12,1.23,0.61,1.58,0.42c3.49-1.84,5.5,0.56,7.89,2.42c9.63,7.45,20.67,7.83,32.09,6.16
		c6.03-0.88,12.09-1.63,18.14-2.41c0.63-0.08,1.27-0.01,1.93-0.01c0.05,0.42,0.17,0.69,0.09,0.88c-3.24,7.98-6.42,15.98-9.79,23.9
		c-1.33,3.13-2.73,6.34-4.74,9.03c-1.21,1.62-3.66,2.31-5.32,3.28c2.43,1.66,7.5,0.64,9.48-2.36c4.25-6.42,7.17-13.47,9.96-20.61
		c5.48-14.06,13.58-26.69,22.33-38.86c7.31-10.18,14.67-20.41,22.93-29.8c12.64-14.35,28.64-23.51,47.34-28.06
		c7.49-1.82,14.85-1.71,22.24-0.36c2.55,0.46,5.13,1.7,7.27,3.21c5.11,3.6,5.16,6.66,0.26,10.99c-6.79,6.01-14.61,10.66-22.99,14.16
		c-13.63,5.69-25.84,13.41-35.84,24.37c-8.19,8.97-16.12,18.15-21.31,29.32c-4.04,8.69-4.68,18.02-5.63,27.36
		c-0.99,9.72-2.15,19.44-3.94,29.04c-1.2,6.47-2.74,13.17-5.71,18.96c-3.66,7.13-9.56,12.14-18.42,13.13
		c-10.5,1.18-19.9-0.88-28.39-7.03c-7.8-5.65-14.49-12.47-19.82-20.47c-8.97-13.46-15.92-27.98-21.58-43.11
		c-0.75-1.99-1.98-2.38-3.67-2.38c-1.71,0-2.24,1.2-2.7,2.64c-3.4,10.76-6.11,21.82-10.46,32.19
		c-7.68,18.28-20.62,32.28-38.26,41.55c-8.74,4.59-18.19,6.93-28.17,7.02c-8.36,0.08-16.58-0.36-24.41-3.73
		c-9.73-4.18-16.97-10.77-21.82-20.35c-4.91-9.7-7.47-20.04-10.12-30.46c-6.57-25.85-20.87-46.38-43.13-61.29
		c-10.38-6.96-21.42-12.59-33.02-17.2c-3.38-1.34-6.54-3.24-9.79-4.9c-0.43-0.22-0.86-0.48-1.21-0.81
		c-6.24-5.87-6.1-9.81,1.33-13.97c4.99-2.79,10.28-2.66,15.63-1.36c9.19,2.24,18.07,5.38,26.36,9.95
		c11.31,6.24,21.75,13.72,31.54,22.15c8.25,7.1,16.16,14.58,22.04,23.78c3.61,5.65,6.27,11.92,9.35,17.92
		c2.08,4.05,4.31,8.03,6.22,12.16c1.59,3.43,2.72,7.07,4.22,10.56c1.05,2.44,2.09,4.97,3.62,7.12c2.85,4.01,6.78,4.34,10.67,1.17
		c4.43-3.61,8.15-7.9,10.02-13.32c2.33-6.75,4.18-13.66,6.15-20.53c0.31-1.07,0.31-2.27,0.24-3.4c-0.03-0.5-0.64-1.4-0.91-1.37
		c-0.58,0.06-1.22,0.5-1.63,0.97c-0.35,0.4-0.44,1.03-0.62,1.57c-2.53,7.54-4.73,15.23-7.74,22.57c-1.36,3.31-4.03,6.28-6.66,8.82
		c-2.67,2.57-4.96,1.75-6.39-1.75c-2.25-5.49-4.13-11.15-6.6-16.53C150.36,379.76,145.59,370.23,140.9,360.54z"/>
	<path class="st0" d="M556.87,479.62c-2.51,13.09-4.89,25.53-7.1,37.08c-2.21,1.69-4.09,2.71-5.41,4.23
		c-7.81,8.98-15.43,18.12-23.21,27.13c-9.17,10.62-20.02,19.36-31.48,27.35c-4.07,2.84-8.35,5.38-12.42,8.21
		c-3.33,2.31-6.32,5.16-9.78,7.25c-9.09,5.5-18.73,10-29.12,12.24c-6.63,1.43-13.54,1.92-20.35,2.16
		c-9.78,0.35-19.58,0.12-29.38,0.07c-12.48-0.06-24.96-0.39-37.44-0.23c-12.21,0.16-24.42,0.74-36.63,1.23
		c-11.79,0.48-23.56,1.29-35.36,1.59c-20.53,0.51-41.08,0.93-61.61,0.98c-8.15,0.02-16.06-2.1-23.87-4.54
		c-25.71-8.06-47.83-22.3-68.34-39.34c-5.14-4.27-9.99-8.9-15.16-13.13c-2.35-1.92-5.19-3.23-7.73-4.93c-0.6-0.4-1.3-1.29-1.26-1.9
		c0.24-3.3,0.7-6.58,1.08-9.85c14.86,8.99,31.36,12.43,48.02,15.24c13.15,2.22,26.32,4.41,39.54,6.16
		c7.82,1.04,15.75,1.48,23.65,1.68c20.13,0.5,40.26,0.87,60.4,0.96c8.91,0.04,17.83-0.62,26.74-1.16
		c10.17-0.62,20.33-1.35,30.48-2.22c9.42-0.81,18.82-1.89,28.23-2.8c18.17-1.76,36.19-4.44,53.92-8.88
		c1.71-0.43,2.51-0.15,3.07,1.81c1.49,5.22,3.07,10.45,5.15,15.45c3.74,9.02,12.9,14.02,22.55,12.76c2.93-0.38,4.81-2.04,5.33-4.91
		c1.36-7.53,2.7-15.07,3.85-22.64c0.57-3.78,0.73-7.63,1.06-11.45c0.1-1.09,0.11-2.13,1.69-2.11c8.35,0.09,15.96-2.94,23.49-5.97
		c20.07-8.08,39.09-18.18,56.62-30.9c6.52-4.73,12.54-10.13,18.8-15.22C555.33,480.67,555.8,480.38,556.87,479.62z"/>
	<path class="st0" d="M442.27,154.82c7.78,8.86,13.91,18.73,20.44,28.34c7.67,11.29,11.49,24.14,16.6,36.49
		c7.37,17.79,10.85,36.55,13.62,55.48c2.03,13.8,3.31,27.67,3.46,41.63c0.11,10.02,0.44,20.04,0.66,30.06
		c0.11,5.14,0.3,10.27,0.24,15.41c-0.03,2.66-0.58,5.31-0.81,7.98c-0.11,1.33-0.02,2.68-0.02,4.19c-4.36,0.79-9.1,1.7-13.87,2.49
		c-7.58,1.26-14.08,5.37-21.17,7.9c-7.42,2.65-15.07,4.12-22.98,3.79c-1.11-0.05-2.52-0.56-3.24-1.36
		c-4.22-4.74-8.37-9.55-12.33-14.51c-0.94-1.18-1.19-2.99-1.54-4.56c-1.83-8.25-3.6-16.52-5.39-24.78c0.28,0.06,0.56,0.12,0.84,0.18
		c0.53-1.05,1.43-2.06,1.52-3.14c0.52-5.8,0.36-11.6-1.4-17.2c-0.56-1.78-0.04-2.33,1.4-3.11c9.71-5.28,19.41-10.56,29.01-16.04
		c5.03-2.87,8.68-7.11,10.38-12.75c1.45-4.8-1.14-8.26-4.35-11.16c-7.27-6.55-16.11-8.04-25.52-7.31c-0.31,0.02-0.59,0.25-0.9,0.35
		c-0.22,0.07-0.46,0.07-1.4,0.21C438.83,234.78,441.53,194.97,442.27,154.82z"/>
	<path class="st0" d="M406.52,344.65c0.24,3.07,0.51,5.89,0.65,8.72c0.17,3.34,0.06,6.7,0.41,10.02c0.2,1.92,0.63,4.06,1.68,5.6
		c5.92,8.67,12.47,16.93,18,25.83c5.77,9.28,10.59,19.15,15.89,28.73c5.48,9.9,8.92,20.46,9.4,31.76c0.32,7.47,0.09,15-0.4,22.48
		c-1.27,19.2-2.69,38.39-4.33,57.56c-0.86,9.98-2.34,19.91-3.48,29.86c-0.21,1.82-1.14,2.42-2.84,2.62
		c-5.86,0.69-13.8-3.94-16.03-10.67c-2.29-6.9-4.01-14.12-4.85-21.34c-1.48-12.62-1.65-25.39-3.2-37.99
		c-1.56-12.75-3.67-25.49-6.39-38.04c-2.36-10.88-9.81-18.14-19.3-23.73c-8.34-4.91-16.34-10.41-24.29-15.94
		c-1.93-1.34-2.98-3.86-2.6-6.55c1.33-9.43,3.07-18.82,3.89-28.3c1-11.55,4.75-21.81,11.68-31.08c2.27-3.04,4.58-4.73,8.52-5.26
		c4.94-0.67,9.71-2.59,14.57-3.91C404.38,344.77,405.36,344.79,406.52,344.65z"/>
	<path class="st0" d="M125.89,431.31c-10.39,4.54-20.55,9.17-27.8,18.09c-3.73,4.58-4.58,10.5-5.72,16.17
		c-1.85,9.15-0.18,18.13,1.14,27.17c2.46,16.88,4.6,33.84,1.73,50.86c-1.17,6.95-3.39,13.72-5.15,20.57
		c-0.75,2.91-1.5,5.83-2.39,8.7c-0.97,3.14-3.51,5.08-5.98,4.77c-2.77-0.35-4.85-2.92-4.97-6.34c-0.43-12.06-0.8-24.11-1.23-36.17
		c-0.47-13.31-2.45-26.41-4.78-39.51c-1.58-8.88-2.2-17.94-3.01-26.94c-0.82-9.13-0.4-18.27,1.19-27.3
		c2.38-13.5,5.78-26.73,15.26-37.21c3.94-4.36,8.91-7.8,13.44-11.62c1.29-1.09,2.69-2.06,3.88-3.32
		c-6.51,1.36-12.25,4.25-17.24,8.58c-5.84,5.06-9.75,11.55-13.12,18.37c-0.85,1.72-1.81,2.26-3.6,2.52
		c-14.65,2.12-30.98,12.23-34.63,30.36c-2.57,12.8-0.83,24.95,5.98,36.21c6.69,11.05,7.29,22.71,3.47,34.78
		c-0.81,2.57-2.43,4.58-5.12,5.55c-3.3,1.2-5.1,0.7-6.29-2.52c-2.19-5.94-4.35-11.92-6.02-18.02c-2.17-7.91-4.37-15.88-5.6-23.97
		c-1.82-11.91-3.26-23.96-1.32-36.03c1.79-11.18,6.6-21.07,13.61-29.9c7.81-9.84,18.31-15.59,29.83-20.04
		c12.8-4.95,25.9-8.7,39.27-11.67c1.98-0.44,3.95-1.06,5.8-1.88c1.45-0.64,2.08-0.41,2.86,0.97c3.86,6.83,6.85,14,8.97,21.55
		c2.42,8.6,4.86,17.19,7.28,25.79C125.77,430.47,125.85,431.1,125.89,431.31z"/>
	<path class="st0" d="M235.46,445.05c3.14,0.54,6.27,1.27,9.43,1.57c9.55,0.92,19.11,1.67,28.36,2.46
		c-11.98,34.01-9.65,68.61-1.97,103.48c-19.5,0-39.42,0-58.81,0c-2.23-3.26-4.3-6.2-6.28-9.21c-6.27-9.52-10.48-19.85-11.84-31.21
		c-1.71-14.33,0.17-28.22,5.1-41.79c1.36-3.75,3.32-5.87,7.21-7.2c9.99-3.42,18.43-9.55,26.21-16.59c0.48-0.44,0.94-0.9,1.45-1.31
		c0.37-0.31,0.8-0.55,1.21-0.82C235.51,444.64,235.48,444.85,235.46,445.05z"/>
	<path class="st0" d="M414.59,537.9c-23.23,6.7-47.15,7.6-71.5,10.9c4.14-30.46-2.26-59.67-7.57-88.68
		c3.57-1.62,6.91-2.86,9.99-4.58c5.82-3.24,10.38-7.84,13.48-13.78c0.7-1.34,1.55-1.79,3.07-1.71c3.91,0.19,7.82,0.24,11.73,0.22
		c3.19-0.02,5.36-2.21,5.41-5.6c3.59,2.55,6.84,5.28,10.45,7.37c10.75,6.22,15.65,15.77,17.7,27.72
		c2.92,16.97,5.12,33.99,6.23,51.15C413.95,526.59,414.26,532.28,414.59,537.9z"/>
	<path class="st0" d="M330.51,459.2c7.1,29.71,9.7,59.55,9,89.94c-5.9,0.51-12.03,1.19-18.17,1.53
		c-12.43,0.69-24.88,1.19-37.32,1.77c-1.87,0.09-3.75,0.33-5.61,0.18c-0.72-0.06-1.75-0.84-2-1.53c-3.77-10.32-5.88-21-6.25-31.98
		c-0.28-8.55-0.55-17.12-0.47-25.67c0.13-14.48,1.95-28.73,6.91-42.45c0.6-1.66,1.35-2.24,3.23-2.47c4.59-0.56,9.16-1.46,13.63-2.63
		c2.39-0.63,4.01-0.28,5.95,1.23c8.46,6.56,18,10.68,28.7,11.91C329.07,459.13,330.05,459.17,330.51,459.2z"/>
	<path class="st0" d="M449.69,420.55c-5.11-9.33-10.25-18.71-15.19-27.71c1.99,0.52,4.65,1.26,7.34,1.92
		c5.17,1.26,10.07,0.06,14.62-2.21c8.87-4.43,18.19-7.41,27.82-9.59c12.78-2.9,25.7-3.07,38.67-2.34c8.1,0.46,15.12,4.22,21.83,8.43
		c15.48,9.73,25.76,23.77,32.3,40.55c7.84,20.09,8.09,40.63,2.46,61.36c-3.28,12.08-8.5,23.35-14.39,34.31
		c-1.19,2.21-3.46,4.09-5.65,5.43c-2.47,1.5-4.05,0.54-3.91-2.37c0.31-6.49,0.4-13.09,1.75-19.4c2.76-12.92,5.31-25.85,6.38-39.01
		c0.93-11.42-0.11-22.69-5.35-33.11c-4.84-9.62-13.13-15.03-23.23-18.02c-13.04-3.85-26.38-4.81-39.86-3.92
		c-11.78,0.78-23.55,1.79-35.29,3.01C456.41,418.24,452.95,419.67,449.69,420.55z"/>
	<path class="st0" d="M192.32,628.34c-0.46-6.28-0.89-12.09-1.34-18.16c1.84,0.51,3.8,0.91,5.65,1.59
		c8.56,3.12,17.55,3.46,26.47,3.79c11.16,0.41,22.35,0.53,33.51,0.3c11.15-0.23,22.28-1.03,33.43-1.58
		c8.55-0.43,17.09-0.92,25.64-1.27c13.35-0.55,26.7-1.24,40.06-1.42c9.77-0.13,19.55,0.65,29.32,0.69
		c11.16,0.05,22.34-0.07,33.49-0.52c6.98-0.28,13.94-1.3,20.9-2.05c1.34-0.15,2.63-0.64,4.13-1.01c0,7.3,0,14.35,0,21.5
		c-0.64,0.13-1.09,0.28-1.54,0.31c-14.78,1.03-29.56,2.08-44.35,3.06c-9.34,0.62-18.69,1.15-28.03,1.66
		c-10.81,0.59-21.62,1.19-32.44,1.64c-10.82,0.45-21.74,1.76-32.46,0.86c-16.61-1.39-33.24-0.69-49.81-1.84
		c-12.33-0.86-24.61-2.47-36.89-3.95C209.34,630.88,200.67,629.51,192.32,628.34z"/>
	<path class="st0" d="M474.61,523.07c0.87-6.06,2.19-11.96,2.48-17.91c0.83-16.82-0.92-33.26-9.76-48.11
		c-2.36-3.96-5.53-7.44-8.32-11.14c-0.44-0.58-1.07-1.09-1.28-1.74c-1.92-5.93-3.78-11.89-5.8-18.32c7.36-1.05,14.98-1.78,22.43-3.3
		c6.68-1.36,12.09,0.74,17.8,3.81c9.9,5.33,17.92,12.53,24.55,21.53c5.2,7.06,9.8,14.33,11.67,23.06c1.37,6.42,1.6,12.74-0.92,18.95
		c-0.27,0.67-0.67,1.45-0.56,2.1c0.52,3.17-1.68,4.34-3.82,5.75C507.76,507.85,491.69,516.49,474.61,523.07z"/>
	<path class="st0" d="M462.6,721.51c-5.44,1-10.32,2.28-15.29,2.74c-15.32,1.42-30.66,2.71-46.02,3.7
		c-16.09,1.04-32.2,1.7-48.3,2.46c-12.04,0.57-24.08,1.23-36.12,1.49c-14.11,0.3-28.23,0.42-42.34,0.23
		c-11.64-0.16-23.28-1.12-34.92-1.31c-14.55-0.24-28.94-2-43.31-4.01c-3.71-0.52-7.45-0.92-11.07-1.82
		c-3.59-0.89-7.05-2.34-11.02-3.7c1.67-1.88,3.03-3.33,4.3-4.85c2.36-2.8,4.71-5.61,6.99-8.49c0.83-1.05,1.55-1.3,2.86-0.75
		c10.43,4.39,21.41,6.04,32.63,6.36c12.14,0.35,24.28,0.83,36.42,0.95c28.8,0.28,57.6,0.53,86.4,0.47
		c16.46-0.04,32.93-0.55,49.38-1.15c14.32-0.52,28.62-1.44,42.93-2.2c3.73-0.2,7.46-0.52,11.19-0.62c0.77-0.02,1.63,0.6,2.33,1.09
		C453.75,715.06,457.81,718.03,462.6,721.51z"/>
	<path class="st0" d="M196.83,466.37c-12.55,30.57-10.88,59.2,8.98,86.23c-4.77-0.44-9.37-0.64-13.9-1.31
		c-11.73-1.75-23.42-3.71-35.13-5.61c-0.61-0.1-1.32-0.24-1.77-0.61c-12.56-10.52-19.68-23.61-19.07-40.38
		c0.27-7.39-0.57-14.83,1.46-22.12c2.23-8.01,6.46-14.71,12.68-20.15c0.55-0.48,1.92-0.66,2.55-0.32
		c13.47,7.22,27.64,7.82,42.23,4.66C195.25,466.67,195.63,466.6,196.83,466.37z"/>
	<path class="st0" d="M481.29,206.26c-1.24-2.73-2.39-5.77-3.94-8.6c-4.24-7.78-8.67-15.45-12.93-23.21
		c-0.42-0.77-0.67-2.11-0.29-2.79c3.87-6.96,7.34-14.23,11.98-20.64c10.15-14.05,23.12-24.43,40.61-28.06
		c1.03-0.21,2.15-0.33,3.05-0.82c2.44-1.32,3.82-0.52,5.31,1.67c10.47,15.46,19.49,31.72,27.36,48.63c0.27,0.58,0.45,1.2,0.62,1.68
		C525.66,176.92,501.87,187.57,481.29,206.26z"/>
	<path class="st0" d="M206.96,250.39c-5.03-0.28-9.96-0.29-14.46-3.05c-5.68-3.48-7.85-7.82-6.8-14.37
		c1.11-6.92,3.12-13.47,8.04-18.78c2.78-3,6.31-4.81,10.18-5.39c7.48-1.12,14.77-0.51,21.3,4c3.83,2.64,6.12,2.43,9.68-0.5
		c3.59-2.95,6.91-6.35,10.85-8.72c3.02-1.82,6.77-3.01,10.3-3.3c7.54-0.62,15.05-0.38,22.35,2.53c6,2.39,9.77,6.22,10.77,12.6
		c1.07,6.82-0.96,12.36-6.36,16.93c-7.08,6.01-14.95,10.19-24.18,11.26c-5.44,0.63-10.91,0.65-16.37-0.91
		c-2.09-0.6-4.77,0.32-7.05,1c-5.43,1.63-10.7,3.82-16.18,5.21C215.14,249.89,210.99,249.93,206.96,250.39z"/>
	<path class="st0" d="M442.45,688.31c0,5.55,0,10.81,0,16.46c-1.08,0-1.86-0.03-2.63,0c-12.61,0.56-25.22,1.15-37.83,1.67
		c-5.86,0.24-11.73,0.34-17.6,0.48c-11.08,0.27-22.16,0.56-33.24,0.77c-14.26,0.28-28.53,0.56-42.79,0.71
		c-21.78,0.23-43.56,0.81-65.32,0.38c-16.98-0.34-34-1.34-50.44-6.48c-2.14-0.67-2.96-1.49-2.83-3.83c0.24-4.54,0.07-9.1,0.07-14.09
		c8.93,4.02,17.98,4.8,26.84,6.24c6.81,1.11,13.75,1.63,20.66,1.85c20.69,0.66,41.39,1.04,62.09,1.52
		c5.38,0.12,10.76,0.22,16.14,0.28c21.53,0.24,43.07,0.83,64.59,0.55c12.1-0.16,24.21-1.54,36.27-2.77
		c7.92-0.81,15.77-2.34,23.65-3.54C440.79,688.41,441.51,688.39,442.45,688.31z"/>
	<path class="st0" d="M501.27,289.44c-2.08-13.41-4.09-26.39-6.05-39.05c2.94-1.68,5.91-3.42,8.91-5.1
		c10.85-6.07,22.57-9.43,34.74-11.73c10.22-1.93,20.45-2.9,30.82-2.92c1.76,0,2.28,0.57,2.63,2.27c2.24,10.82,4.67,21.6,6.95,32.41
		c1,4.74,1.81,9.53,2.76,14.57C554.01,275.46,526.84,276.24,501.27,289.44z"/>
	<path class="st0" d="M191.23,645.27c0.22-4.9,0.41-9.18,0.62-13.69c3.36,0.93,6.43,2.06,9.59,2.6c7.53,1.29,15.09,2.47,22.68,3.4
		c9.7,1.2,19.42,2.28,29.15,3.1c8.19,0.69,16.41,1.06,24.63,1.36c11.72,0.43,23.45,0.98,35.18,0.91c9.93-0.06,19.85-0.93,29.77-1.42
		c7.8-0.39,15.61-0.74,23.42-1.14c9.43-0.48,18.86-0.93,28.29-1.53c10.08-0.64,20.15-1.37,30.22-2.21
		c5.35-0.44,10.67-1.19,16.01-1.79c0.79-0.09,1.59-0.09,2.31-0.13c0,4.54,0,8.88,0,13.68c-4.31,0-8.31-0.33-12.23,0.08
		c-6.21,0.64-12.35,1.95-18.56,2.64c-12.78,1.41-25.56,2.75-38.37,3.82c-9.65,0.81-19.34,1.2-29.01,1.7
		c-18.47,0.94-36.97,1.98-55.45,0.59c-14.78-1.11-29.5-2.86-44.26-4.27c-8.67-0.83-17.41-1.17-26.02-2.41
		C209.89,649.23,200.7,647.1,191.23,645.27z"/>
	<path class="st0" d="M588.43,331.17c-6.14-1.25-12.05-2.76-18.06-3.6c-7.08-1-14.23-1.55-21.36-2.06
		c-4.63-0.33-9.28-0.32-13.93-0.29c-9.63,0.06-18.82,2.36-27.72,5.91c-1.25,0.5-2.38,1.29-3.79,2.06
		c-0.21-4.58-0.37-8.93-0.62-13.28c-0.47-7.97-0.95-15.94-1.58-23.89c-0.13-1.64,0.36-2.15,1.8-2.78c9.59-4.2,19.58-7.12,29.84-8.96
		c5.91-1.06,11.96-1.69,17.97-1.8c8.04-0.15,16.1,0.37,24.15,0.65c1.62,0.06,3.22,0.33,4.83,0.51c1.95,0.22,2.97,0.93,3.25,3.25
		c1.36,11.56,3.04,23.08,4.51,34.63C588.13,324.65,588.2,327.83,588.43,331.17z"/>
	<path class="st0" d="M493.81,245.31c-1.11-3.97-2.34-8.75-3.81-13.46c-1.98-6.36-4.09-12.68-6.28-18.97
		c-0.47-1.35-0.35-2.13,0.61-3.21c7.15-8.03,16.32-13.07,25.79-17.71c11.81-5.79,23.9-10.63,37.15-12.08
		c7.83-0.86,8.2-1.2,10.69,6.09c4.39,12.81,8.25,25.8,12.32,38.72c0.07,0.22,0.01,0.48,0.01,1.08c-1.12,0-2.22,0.02-3.31,0
		c-11.1-0.21-22.21,0.01-32.96,3.03c-9.52,2.67-18.91,5.88-28.24,9.16c-2.94,1.03-5.54,3.05-8.25,4.7
		C496.23,243.46,495.03,244.44,493.81,245.31z"/>
	<path class="st0" d="M190.6,666.59c9.67,3.62,19.63,4.73,29.63,5.92c20.5,2.44,41.07,3.2,61.7,3.41
		c14.58,0.15,29.16,0.81,43.74,1.13c12.55,0.28,25.11,0.76,37.65,0.48c12.77-0.28,25.56-1.01,38.27-2.2
		c13.04-1.23,26-3.24,38.99-4.99c1.59-0.21,2.27-0.02,2.22,1.76c-0.1,3.18-0.1,6.37,0.03,9.54c0.06,1.47-0.67,1.81-1.85,1.97
		c-8.47,1.15-16.92,2.38-25.4,3.47c-28.25,3.62-56.66,2.27-85.01,2.45c-10.02,0.06-20.05-0.29-30.07-0.45
		c-16.46-0.25-32.93-0.46-49.39-0.76c-7.66-0.14-15.4,0.19-22.94-0.88c-12.21-1.72-24.3-4.39-36.42-6.74
		c-0.65-0.13-1.65-1.06-1.64-1.6C190.16,674.9,190.41,670.7,190.6,666.59z"/>
	<path class="st0" d="M145.31,544.34c-9.14-2.5-18.33-4.82-27.4-7.57c-4.33-1.31-8.37-3.56-12.64-5.13
		c-2.39-0.88-2.96-2.21-2.95-4.71c0.04-15.62-2.11-31.03-4.71-46.4c-1.36-8.05-0.4-15.99,2.84-23.46
		c2.32-5.35,6.93-8.89,11.81-11.71c4.96-2.87,10.31-5.07,15.62-7.63c2.11,3.51,3.92,6.53,5.89,9.8
		c-11.58,3.1-21.03,9.28-27.35,19.31c-6.36,10.1-7.04,21.41-4.68,33.42c0.47-0.55,1.28-1.06,1.36-1.67
		c0.44-3.31,1.07-6.66,0.96-9.97c-0.58-16.38,12.6-30.17,27.12-35.09c4.49-1.52,8.18-1.74,11.55,2.19c1.32,1.55,3.34,2.5,5.27,3.89
		c-0.48,0.39-0.9,0.81-1.39,1.11c-4.03,2.47-6.7,5.95-8.59,10.3c-5.18,11.87-7.59,24.24-6.92,37.13
		c0.66,12.77,5.51,23.98,13.42,33.93c0.35,0.44,0.71,0.86,1.07,1.3C145.5,543.69,145.4,544.01,145.31,544.34z"/>
	<path class="st0" d="M190.56,662.47c0.26-4.34,0.52-8.62,0.76-12.44c6.26,1.48,12.39,3.25,18.63,4.33c7.46,1.28,15,2.08,22.53,2.89
		c12.23,1.32,24.47,2.59,36.72,3.67c7.3,0.64,14.63,1.05,21.95,1.21c11.58,0.26,23.17,0.47,34.75,0.23
		c11.48-0.24,22.95-0.96,34.41-1.64c11.71-0.7,23.42-1.4,35.1-2.51c12.16-1.16,24.28-2.78,36.41-4.26
		c3.53-0.43,7.02-1.07,10.79-1.66c0,4.47,0,8.68,0,12.94c-4.9,0.76-9.93,1.51-14.96,2.32c-16.77,2.7-33.67,3.76-50.62,4.06
		c-19,0.33-38,0.6-57,0.58c-16.22-0.01-32.45-0.36-48.66-0.77c-11.56-0.3-23.11-0.91-34.65-1.46c-15.31-0.73-30.4-2.97-45.17-7.12
		C191.25,662.74,190.96,662.62,190.56,662.47z"/>
	<path class="st0" d="M588.8,337.15c0,11.2,0,22.17,0,33.56c-2.55-1.15-4.64-2.14-6.76-3.04c-15.87-6.75-32.4-10.15-49.67-9.11
		c-7.55,0.46-15.08,1.46-22.58,2.55c-2.22,0.32-4.27,1.75-6.07,2.54c0-7.76-0.03-15.88,0.05-24c0.01-0.7,0.61-1.71,1.22-2.04
		c8.91-4.88,18.54-6.86,28.62-7.01c11.75-0.18,23.47,0.16,35.05,2.39C575.35,334.27,582.01,335.73,588.8,337.15z"/>
	<path class="st0" d="M267.62,350.71c0.31-4.97,0.65-10.01,0.92-15.05c0.07-1.29,0.68-1.74,1.82-2.39
		c6.37-3.62,13.39-3.58,20.35-4.24c4.72-0.44,9.37-1.57,14.03-2.74c-3.68-2.14-7.64-1.92-11.53-1.75
		c-4.05,0.17-8.17,0.31-12.12,1.13c-3.84,0.8-7.5,2.44-11.32,3.73c0.27-1.86,1.12-4.03,0.73-5.94c-0.67-3.26,0.83-4.47,3.33-5.91
		c4.99-2.88,9.46-6.76,14.63-9.17c5.46-2.55,11.45-4.08,17.31-5.67c3.08-0.83,5.38,0.98,6.42,4c1.62,4.72,1.46,9.36-0.03,14.12
		c-2.05,6.52-0.74,12.46,3.46,17.88c1.42,1.83,2.75,3.89,3.46,6.06c1.36,4.15-0.27,7.22-4.09,9.22c-7.01,3.68-14.28,3.42-21.63,1.51
		c-5.73-1.49-11.36-3.41-17.14-4.69C273.54,350.22,270.63,350.71,267.62,350.71z"/>
	<path class="st0" d="M227.41,333.12c-2.92-2.17-6.1-1.57-9.35-1.24c-3.72,0.37-7.58-0.21-11.2,0.52
		c-5.36,1.08-10.55,2.94-15.81,4.49c-0.16,0.05-0.23,0.4-0.48,0.88c6.25-0.85,12.28-2.07,18.35-2.38
		c6.11-0.31,12.27,0.29,18.98,0.51c-0.34,4.01-0.9,8.07-0.98,12.14c-0.07,3.84-1.99,5.94-5.15,7.74
		c-6.24,3.56-12.61,6.75-19.54,8.74c-6.93,1.99-14.57-0.23-18.82-6.01c-0.88-1.2-0.79-3.56-0.38-5.2c1.09-4.32,2.57-8.55,3.96-12.79
		c0.57-1.75,0.41-3.22-0.7-4.8c-3.04-4.32-4.29-9.24-4.48-14.48c-0.08-2.28,0.66-4.06,2.49-5.51c3.82-3.02,8.09-4.01,12.85-3.22
		c9.92,1.64,19.44,4.53,28.49,8.91c0.64,0.31,1.48,0.98,1.55,1.56c0.4,3.26,0.6,6.54,0.87,9.81
		C227.84,332.91,227.62,333.02,227.41,333.12z"/>
	<path class="st0" d="M493.31,420.58c10.47,0.67,20.98,1.03,31.4,2.13c7.08,0.75,13.49,3.98,19.73,7.39
		c4.71,2.58,6.65,7.24,8.85,11.63c4.09,8.18,4.56,17.04,4.27,25.99c-0.01,0.44-0.18,1.02-0.48,1.3
		c-7.46,6.79-14.94,13.54-22.43,20.29c-0.22,0.2-0.56,0.26-0.49,0.23c0-4.24,0.18-8.53-0.04-12.8c-0.43-8.47-3.04-16.4-7.62-23.43
		c-4.35-6.67-9.25-13.02-14.37-19.13c-4.5-5.38-10.45-9.02-16.99-11.62c-0.67-0.26-1.28-0.65-1.92-0.99
		C493.25,421.24,493.28,420.91,493.31,420.58z"/>
	<path class="st0" d="M502.94,374.13c-0.66-3.03,0.18-4.61,2.74-5.73c6.18-2.69,12.71-3.41,19.28-3.84
		c11.07-0.73,22.13-0.75,33.15,1.11c6,1.01,11.59,2.9,17.09,5.48c4.07,1.91,8.53,2.99,13.11,4.53c-1.08,14.83-3.34,29.95-7.99,45.08
		C564.36,388.36,539.86,370.67,502.94,374.13z"/>
	<path class="st0" d="M77.31,308.4c2.02-6.43,4.02-12.83,5.94-18.96c4.57,0,8.95-0.09,13.33,0.03c3.66,0.09,7.31,0.42,10.97,0.65
		c1.5,0.09,2.34,0.83,3.11,2.22c6.01,10.78,11.99,21.59,18.36,32.16c1.83,3.03,4.94,5.28,7.44,7.9c0.39,0.41,1,0.98,0.93,1.38
		c-0.97,5.82-2.05,11.63-3.21,18.08C116.57,334.91,98.44,319.79,77.31,308.4z"/>
	<path class="st0" d="M181.01,364.88c-4-0.5-8.02-0.97-12.03-1.52c-5.38-0.73-10.82-1.23-16.12-2.36
		c-5.02-1.06-9.31-3.84-12.94-7.47c-0.6-0.6-0.93-1.86-0.82-2.74c0.68-5.24,1.48-10.46,2.38-15.67c0.13-0.77,0.89-1.83,1.57-2.03
		c11.01-3.21,22.05-6.3,33.09-9.4c0.29-0.08,0.62,0.02,1.1,0.05c0.28,5.33,1.78,10.23,4.61,14.72c0.37,0.59,0.26,1.73-0.04,2.45
		c-0.99,2.4-2.12,4.75-3.28,7.08c-2.82,5.69-1.82,10.86,2.01,15.68c0.2,0.25,0.37,0.51,0.53,0.78
		C181.11,364.52,181.05,364.62,181.01,364.88z"/>
	<path class="st0" d="M317.72,358.93c1.76-1.58,3.29-2.69,4.49-4.07c3.36-3.88,3.23-8.11,0.96-12.49
		c-1.92-3.68-3.95-7.32-5.57-11.13c-0.72-1.69-1.13-3.91-0.69-5.63c1.44-5.68,2.37-11.31,1.08-16.96c13.93,0,27.72,0,41.21,0
		c1.58,3.12,0.57,4.96-1.15,7.04c-10.23,12.32-18.87,25.72-26.62,39.71c-1,1.8-2.11,2.56-4.13,2.64
		C324.22,358.16,321.16,358.59,317.72,358.93z"/>
	<path class="st0" d="M363.24,192.67c-1.79,11.06-5.5,21.25-15.52,27.64c-4.38,2.8-9.5,4.26-14.77,4.59
		c-7.79,0.48-15.47,0.14-22.59-3.63c-9.38-4.96-14.39-13.15-16.99-23.07c-2.55-9.72-1.76-19.06,3.72-27.7
		c7-11.04,17.14-17.66,29.76-20.42c1.95-0.43,4.28,0.98,6.45,1.45c10.17,2.22,18.61,7.24,24.81,15.67c1.26,1.71,1.89,3.87,2.58,5.9
		c-1.99-2.34-3.72-4.98-6.02-6.95c-6.78-5.82-14.72-8.48-23.72-8.88c-7.69-0.34-13.81,2.27-19.08,7.49
		c-5.7,5.65-8.47,12.61-8.91,20.55c-0.89,15.95,7.38,25.77,20.95,32.65c5.75,2.91,11.48,1.98,17.12,1.63
		c3.05-0.19,6.18-2.8,8.82-4.9C356.94,209.04,361.49,201.7,363.24,192.67z"/>
	<path class="st0" d="M232.47,353.24c0-6.29,0.01-11.96,0-17.64c0-2.92,0.15-5.87-0.11-8.77c-0.2-2.27,0.63-3.11,2.75-3.3
		c5.83-0.54,11.67-1.09,17.48-1.81c2.23-0.28,4.55-0.71,6.55-1.66c2.15-1.03,4.02-0.68,6.1-0.3c-0.53,4.81-1.25,9.39-1.47,13.99
		c-0.24,4.93-0.12,9.9,0.05,14.84c0.07,2.13-0.73,3.3-2.74,3.57c-3.14,0.43-6.29,0.95-9.44,1.03
		C245.23,353.35,238.84,353.24,232.47,353.24z"/>
	<path class="st0" d="M50.82,491.63c-6.03-5.27-9.71-11.59-11.53-19.22c-2.25-9.41-3.12-18.62,1.2-27.7
		c5.33-11.21,14.3-17.55,26.74-20.19c-0.3,1.11-0.46,1.85-0.7,2.55c-2.67,7.75-4.06,15.74-4.56,23.91
		c-0.06,1.03-0.53,2.36-1.28,2.96c-6.34,5.04-8.98,11.98-10.41,19.59C49.14,479.53,49.37,485.5,50.82,491.63z"/>
	<path class="st0" d="M455.51,528.18c1.34-25.26,2.67-50.51,4.01-75.73c1.82,3.46,4,7.17,5.75,11.06
		c4.7,10.44,7.09,21.47,7.02,32.89c-0.04,6.54-0.72,13.11-1.5,19.61c-0.34,2.82-1.62,5.54-2.61,8.25c-0.2,0.54-0.98,1.07-1.59,1.23
		C462.83,526.47,459.05,527.33,455.51,528.18z"/>
	<path class="st0" d="M262.85,391.99c6.85,13.53,11.66,27.07,20.61,39.07c-13.02-1.86-25.29,1.83-38.03,1.26
		c1.88-3.27,4.06-6.26,5.41-9.58c2.9-7.13,5.33-14.46,8.05-21.67C259.99,398.18,261.36,395.4,262.85,391.99z"/>
	<path class="st0" d="M486.15,133.66c-12.08,8.87-17.95,22.52-25.59,34.81c-4.41-5.3-8.61-10.46-12.96-15.49
		c-1.36-1.58-2.47-3.82-5.51-3.28c-0.35-2.46-0.69-4.83-1.03-7.25C456.2,139.5,471.18,136.58,486.15,133.66z"/>
	<path class="st0" d="M105.84,377.35c-13.44,3.26-26.49,6.43-39.79,9.65c0.5-3.58,1.37-7.37,1.46-11.18c0.1-4.1,1.81-5.78,5.81-6.15
		c7.67-0.71,15.3-1.79,22.95-2.65c0.54-0.06,1.34,0.26,1.69,0.68C100.62,370.87,103.2,374.1,105.84,377.35z"/>
	<path class="st0" d="M93.96,253.13c4.25,10.82,8.37,21.31,12.49,31.81c-7.25,0-14.51,0-22.15,0
		C87.25,274.54,88.92,263.59,93.96,253.13z"/>
	<path class="st0" d="M61.27,458.6c-0.23,16.59,3.67,32.62,5.74,49.35c-3.78-3.55-7.23-6.71-10.58-9.98
		c-0.6-0.58-1.04-1.56-1.12-2.39c-0.58-6.62-1.56-13.26-1.43-19.88C54,469.24,56.93,463.53,61.27,458.6z"/>
	<path class="st0" d="M91.89,362.43c-7.86-0.33-15.28,1.54-23.26,4.63c1.47-7.01,2.84-13.52,4.38-20.81
		c6.72,5.3,13.03,10.28,19.35,15.26C92.21,361.82,92.05,362.13,91.89,362.43z"/>
	<path class="st0" d="M411.85,323.18c0.52,5.24,1,10.06,1.51,15.22c-8.27,0.51-16.44,1.33-24,5.04
		C395.13,334.88,402.19,328.01,411.85,323.18z"/>
	<path class="st0" d="M277.46,309.45c-4.28,2.24-7.05,5.71-12.23,5.4c-4.26-0.26-8.61,1.19-12.94,1.69
		c-6.47,0.75-12.95,1.52-19.44,1.88c-2.01,0.11-4.1-1.09-6.09-2.08C243.58,314.78,259.72,309.05,277.46,309.45z"/>
	<path class="st0" d="M242.52,198.57c-0.6,1.26-1.13,2.35-1.65,3.45c-0.28,0.58-0.41,1.37-0.87,1.71c-2.72,2.02-5.49,3.97-8.31,5.85
		c-0.54,0.36-1.54,0.62-2.03,0.36c-3.4-1.79-6.73-3.74-10.25-5.73C225.89,198.84,240.36,195.69,242.52,198.57z"/>
	<path class="st0" d="M338.8,180.01c-3.5,0.34-4.62-2.99-4.74-5.79c-0.13-2.84,2.82-5.13,7.03-4.45c1.54,0.25,3.35,2.99,3.78,4.88
		C345.46,177.25,341.89,180.02,338.8,180.01z"/>
	<path class="st0" d="M216.01,365.26c5.77-1.57,9.39-7.06,15.78-6.28C227.32,362.75,223.61,368,216.01,365.26z"/>
	<path class="st0" d="M412.93,351.58c1.04,5.46,2.09,10.93,3.19,16.72C410.97,363.25,413.31,357.08,412.93,351.58z"/>
	<path class="st0" d="M520.52,117.58c-2.78,0.61-5.18,1.13-6.97,1.52c1.33-1.33,3.08-3.06,4.93-4.91
		C518.94,114.95,519.66,116.15,520.52,117.58z"/>
	<path class="st0" d="M290.91,362.09c-1.9-0.61-3.81-1.22-5.71-1.83c0.08-0.25,0.15-0.5,0.23-0.74c1.92,0.57,3.85,1.13,5.77,1.7
		C291.1,361.5,291.01,361.79,290.91,362.09z"/>
	<path d="M171.23,213.41c-0.4,11.96-4.42,22.38-11.72,31.62c-6.82,8.63-19.61,7.85-26.65,2.08c-13.78-11.28-18.39-29.02-11.38-44.91
		c4.68-10.61,13.98-15.4,25.46-15.83c11.17-0.42,19.2,5.76,22.15,14.6C170.41,204.93,170.56,209.26,171.23,213.41z M154.56,201.52
		c0.44-3.06-1.77-5.12-4.09-5.9c-5.59-1.89-6.86-1.15-7.54,4c-0.1,0.8-0.31,1.59-0.42,2.39c-0.48,3.47,2.55,6.79,6.03,6.63
		C152.8,208.43,154.6,206.31,154.56,201.52z"/>
	<path d="M147.44,45.29c6.04,0.05,8.28,2.57,8.61,9.09c0.23,4.35-1.5,8.13-3.37,11.84c-4.2,8.35-10.13,15.36-17.25,21.33
		c-3.7,3.11-8.11,4.81-13.03,4.8c-2.65-0.01-4.61-1.83-4.83-4.47c-0.57-6.67,1.84-12.66,4.6-18.47
		c4.07-8.55,10.38-15.12,18.51-19.97c0.75-0.45,1.55-1.02,1.99-1.75C143.87,45.69,145.5,44.85,147.44,45.29z M147.63,49.97
		c-0.11-0.2-0.23-0.41-0.34-0.61c-1.55,0.83-3.42,1.34-4.59,2.53c-5.11,5.22-10.21,10.47-14.95,16.03
		c-4.09,4.8-6.37,10.55-6.73,16.95c-0.21,3.72,0.7,4.46,4.14,3.32c0.85-0.28,1.68-0.6,2.5-0.96c14.25-6.17,19.95-18.84,24.34-32.38
		C153.01,51.75,151.06,49.97,147.63,49.97z"/>
	<path d="M122.21,119.7c0.04-8.32,2.6-15.13,7.23-21.19c0.62-0.81,1.62-1.32,2.38-2.04c0.55-0.52,1.25-1.07,1.44-1.73
		c0.57-1.98,2.09-2.45,3.75-2.46c6.25-0.03,10.83,4.94,10.15,11.13c-0.82,7.42-2.68,14.51-6.86,20.87
		c-4.03,6.15-9.2,6.36-14.76,3.17C122.65,125.79,121.75,122.5,122.21,119.7z M125.91,118.82c0,0.65-0.05,1.31,0.01,1.96
		c0.19,2.08,2.12,4.72,3.63,5.02c3.21,0.64,6.37-0.51,7.99-3.42c3.64-6.52,5.33-13.64,5.1-21.06c-0.05-1.44-2.15-3.01-3.62-4.1
		c-0.59-0.44-2.33-0.11-3.02,0.48C129.54,103.23,126.12,110.28,125.91,118.82z"/>
	<path d="M262.83,252.15c-4.1,3.57-9.04,5.56-14.11,7.34c-6.58,2.31-13.4,2.64-20.26,2.23c-1.73-0.1-3.53-0.94-5.06-1.84
		c-1.4-0.83-1.13-2.17,0.33-2.8c1.07-0.46,2.38-0.79,3.5-0.64c11.15,1.51,21.67-0.83,31.95-4.89c1.05-0.41,2.3-0.29,3.46-0.41
		C262.7,251.47,262.77,251.81,262.83,252.15z"/>
	<path d="M101.2,127.91c-0.08-4.22,1.32-7.99,3.53-11.5c0.3-0.48,0.74-0.92,0.91-1.44c0.46-1.45,0.86-2.85,2.86-2.57
		c2.09,0.29,3.75,1.15,4.44,3.28c1.69,5.21-1.56,14.2-6.14,17.04c-2.65,1.64-5.46,0.21-5.6-2.86
		C101.17,129.22,101.2,128.56,101.2,127.91z M108.64,116.14c-3.07,2.71-5.16,11.41-3.45,14.4C108.7,128,110.79,119.26,108.64,116.14
		z"/>
	<path class="st0" d="M154.56,201.52c0.03,4.79-1.76,6.91-6.02,7.11c-3.48,0.17-6.51-3.15-6.03-6.63c0.11-0.8,0.32-1.59,0.42-2.39
		c0.67-5.15,1.95-5.89,7.54-4C152.8,196.41,155.01,198.46,154.56,201.52z"/>
	<path class="st0" d="M147.63,49.97c3.44,0,5.38,1.78,4.38,4.88c-4.39,13.54-10.09,26.21-24.34,32.38c-0.82,0.35-1.65,0.68-2.5,0.96
		c-3.44,1.14-4.35,0.4-4.14-3.32c0.36-6.4,2.63-12.14,6.73-16.95c4.74-5.56,9.84-10.81,14.95-16.03c1.17-1.2,3.04-1.71,4.59-2.53
		C147.4,49.56,147.51,49.76,147.63,49.97z"/>
	<path class="st0" d="M125.91,118.82c0.21-8.54,3.63-15.59,10.09-21.11c0.69-0.59,2.43-0.92,3.02-0.48c1.47,1.09,3.57,2.66,3.62,4.1
		c0.23,7.42-1.45,14.54-5.1,21.06c-1.63,2.91-4.78,4.06-7.99,3.42c-1.51-0.3-3.44-2.94-3.63-5.02
		C125.87,120.13,125.91,119.47,125.91,118.82z"/>
	<path class="st0" d="M108.64,116.14c2.15,3.12,0.05,11.86-3.45,14.4C103.49,127.55,105.57,118.85,108.64,116.14z"/>
</g>
</svg>
