<?xml version="1.0" encoding="utf-8"?>
<!-- Generator: Adobe Illustrator 26.0.0, SVG Export Plug-In . SVG Version: 6.00 Build 0)  -->
<svg version="1.1" id="Capa_1" xmlns="http://www.w3.org/2000/svg" xmlns:xlink="http://www.w3.org/1999/xlink" x="0px" y="0px"
	 viewBox="0 0 595.3 957.1" style="enable-background:new 0 0 595.3 957.1;" xml:space="preserve">
<style type="text/css">
	.st0{fill:#FFFFFF;}
</style>
<g>
	<path d="M595.3,474.2c-2.3,15.7-6.4,30.2-16.6,42.7c-9.6,12.3-23.8,28.1-41.1,24.2c-1.3,4-2.6,7.8-4,11.9
		c22.7,4.5,28.9,36.4,10.7,49.2c-6.4,3.4-14.4,4.2-21.6,3.8c-3.1-0.2-6.2-0.9-9.2-1.6c-5.1-1.3-3.7,7.9-12.2,3.4
		c-3-1.2-5.5-3.6-8.6-4.6c-40.1-7.4-79.4-19-117.3-33.8c0.4,35.5,3.8,70.7,2.3,106.2c-0.6,13.6,12.1,22.5,15.1,35
		c10.3,6.4,23.6,10.8,22.8,25.1c0,17.3-1.1,34.5-3.7,51.6c-4.1,24.8-7.6,18.7-28.9,17.9c0,6.7,0,14.5,0.2,21.6
		c-1.9,12.1,12.7,4.2,12.7,22.7c3,41-1.7,32.1,23.9,64.7c7.5,9.5,4.5,27.4-9.5,28.1c-115.4,9.1-81.3-4.5-85.5-85.3
		c-1.9-7.5-8.2-14,3.3-17.5c-1.7-6.4-4.4-46-14.1-41.2c-11.8,3.5-23.9,5-36.2,3.8c-2.8,0-6.1-2.1-8.2,0.7c-0.9,14.7-1.9,29.4-2.8,44
		c7.4,2.1,8.6,4.4,7.3,11.8c-2.3,13.9-4.1,28-2.8,42.1c1.8,12.2,12.5,22.4,9.6,35.5c-1.7,22.9-23.8,19.4-41.7,20.6
		c-52.3-0.5-70.9-23.8-41-70.2c15.6-22.3-7.2-42.7,13.1-41c1.5-19.7,3.4-38.7,4.9-58.3c-0.1-5.2,1.6-10.9-0.4-15.8
		c-2.7-4.6-3.8-10.9-8-14.2C181,746.6,156,732.4,131,718.1c-1.6-0.9-3.4-1.8-2.3-4.1c1-2.1,2.8-2.5,5.1-1.8
		c25,6.9,48.6,16.1,75.3,13.6c-1-41.9,8.6-83.2,12.6-124.8c0.3-2.6-0.3-4.7-2-6.9c-10.8-13.4-18.6-40.4,1.3-49.4
		c0.3-2.3,0.6-5,1-7.9c-51.2-10-106.4-20.6-143.7-59.9C23.4,425.7,1.5,337.3,35.1,268.8c-51.6-15.5-43.4-96.3,11.3-99.3
		c55.2-1.9,29.3,24.8,67.3-15.1c13.9-14.4,32.1-22.9,48.9-33.2c4.6-4.7-15.1-40.2-18.3-47.8c-3.2-4.7-5.1-10.5-0.3-14.7
		c9.8-8,20.8-14,33.5-15.7c5.6-1.9,15,2.4,18.9-1.7c19.4-26.8,53.3-49.5,87.3-38.6c15.8,4.1,28.6,12.9,39.7,24.6
		c1.6,1.7,3.2,2.2,5.5,2.4c16.8,1,32.8,4.8,47.3,13.6c18.4,9.9-10.1,48.8-13.9,63.9c19.3,4.3,37.5,11.3,54.3,21.9
		c1.4,0.9,2.2,0.9,3.6,0.1c9.2-5.7,19.2-9.7,29.9-11.1c46.1-8.2,74.2,53.6,40,84.4c50.7,129.3,16.2,250.2-106,319.2
		c1.5,4.4-1,12.8,3.8,14.9c32.3,11.1,67.4,13.3,100.8,19.4c2.9-4,5.1-7.8,8-11c7.8-7.7,24.5-4.1,23.7,8.6c3.4-5.5,6.9-11,10.2-16.3
		c-26.2-29.9-7.1-67.8,20.4-88.8c12.6-12.2,29.2-4,39.3,7.3c5,4.5,3.7,11.6,5.4,17.6C595.3,473.8,595.3,474,595.3,474.2z"/>
	<path class="st0" d="M499.4,262.4c-27.1-19.2-59.2-24.2-91.4-27.4c-2.1-0.6-4.9,0-5.8,2c-0.3,0.9,0.1,2.7,0.8,3.3
		c8.3,7.3,15.5,15.5,21.9,24.4c6.8,9.9,12,18.9,18,29.6c-13.3-8.4-23.8-22.4-40-23c0.1,1.6-0.2,3.3,0.4,4.6
		c7.9,14.7,14,30.2,16.1,46.9c-5.4-8.2-12.5-15.2-19.1-22.3c-3.5-6.9-10.5-10.5-15.4-16c-2.8-2.6-7.3-0.2-4.9,3.7
		c5.5,10.8,9.3,22.3,11.9,34.1c-79.4-116.6-215.9-61.2-282.5,37.4c-41.7,61.8,17.5,131.4,71.7,161c-35.8-8.2-71.6-21-97.6-48.2
		C32.6,421.7,5.6,331.6,44.3,267.6c-9.7-6.9-21.8-10.4-28.6-21.1c-24.6-30.7,5.9-81.8,47.8-68.5c8.7,2.5,17.2,5.5,25.8,7.9
		c5.3,0.6,8.8-5.2,12.2-8.5c17.9-21.1,40.2-36.9,64.3-50.2c5.2-1.2,9.7,4.8,14.6,5.9c32.4,13.9,67.8,10.8,102.1,10.8
		c23.7,0.1,47.6-4.7,69-15c4.6-3.6,5.3-10.3,8-15.3c16.8,4.2,32.5,10.9,47,20.1c4.4,2.5,9.1,7.5,14.3,4.3
		c8.3-5.2,16.7-10.3,26.5-12.1c25.3-5.4,52,16.8,50,43c-0.3,12.2-9.6,20.4-15.2,30.4c-1.2,5.6,2.5,11.8,3.5,17.5
		C490.2,232.2,494.5,247.2,499.4,262.4z M33.4,217.6c0.4,13.9,8.5,25.9,22.9,26.9c2.9,0.3,5.6-0.7,6-3.3c2.3-9.1,9.8-15.3,13.5-23.5
		c4-9.3-0.6-25.2-16-24.4C46.7,195.2,32.9,203.2,33.4,217.6z M465.6,144.3c-33.8,2.4,3.5,23.8,6.7,38.3c2.7,10,16.7-4.2,17.3-9.8
		C496.2,157.4,481.9,143.7,465.6,144.3z"/>
	<path class="st0" d="M480.9,416.3c-33.5,59.2-89.5,105.9-157.6,116.5c5.4-18.1-3.2-35.7-24.1-32.9c-7.6,0.9-14.1,3.3-17.7,10.2
		c-3.9-3.8-8.1-5.4-13.3-3.4c-7.2,3-7.4,16.8-10.3,23.7c-70.2,8.9-183.9-76.3-147.6-155.6c56.9-99.4,203.7-165.4,276.8-45.6
		c2,3.5,4.2,6.5,7.9,8.3c12.6,6.1-2.8-32.5-3.4-37.4c0.3-0.2,0.5-0.4,0.8-0.6c7.3,8.8,14.7,17.5,21.8,26.5c4.8,5,6.8,13.2,13.5,16.1
		c4.7-6.8-8.1-51.7-13.5-59.4c0.2-0.2,0.4-0.4,0.6-0.6c4.9,3.4,9.5,7.2,14.6,10c7.9,3.8,12.8,12.9,21.6,14.3
		c1.1-19.9-25.1-46.5-35.3-63.6c27,3.6,52.9,9.4,76.2,23.9c2.8,1.4,4.7,5.2,6.8,7.2c9.7,6.2,6.4,59.4,4.9,71.9
		c-20.8-28.2-40.4,1.1-37.4,25.2c0.8,11.2,2.7,22.3,4.5,33.4C471.9,410.3,475,413.5,480.9,416.3z M253.3,412.9
		c-3.2-34.9-28.2-46.8-58.6-31c-9.2,5-18.1,10.3-20.6,22.2c-1.7,8.5-4.4,16.8-1.9,25.4c3.2,14.6,12,20.1,26.2,23.6
		C225.4,461.8,252.8,441,253.3,412.9z M382.9,453.2c17.5-2,37.1-17.4,29.7-36.8c-7-19.6-19-40.5-39.7-47.9c-3.3-1.2-3.7-0.8-4.5,2.4
		c-0.8,3-2.1,5.9-3.5,8.6c-10.7,16.8-16.7,36.5-17.2,56.4c0.6,12.2,21,17.8,31.3,18.1c-1.6,15.5-16.1,29.1-32,28.9
		c-7,0-14.6-0.5-20.2,4.5c10.3,1.5,20.8-1.5,30.8,0.4c12.6,10.2,27.7,0.1,30.1-13.2c12.8,4.4,23.8,1.4,33.6-7.3
		c-1.7-2.6-3.5-2-5.5-0.7c-9.2,6.1-29,8.6-34.4-3C381,460.3,382.3,456.9,382.9,453.2z M389.4,495.4c-4.8-5.8-18.1,18-43,2.3
		c-0.2,0.3-0.5,0.5-0.7,0.8C355.8,513.2,379.9,508.9,389.4,495.4z"/>
	<path class="st0" d="M228.5,603c16.4,11.2,32.5,15.7,48-1c32.1,42.4,67.7,80.3,98.8,122.8c2.9,4,1.1,3.7-0.5,7.5
		c-9.5,46.3-26.1,48-67.6,59.9c-26.8,7.7-55.2-1.3-78-15.9C198.8,755.7,225.5,639.3,228.5,603z"/>
	<path class="st0" d="M338.1,66.2c-49.2,9.5-97.7,8.3-147,5.6C213.5-8.3,310.6-13.3,338.1,66.2z"/>
	<path class="st0" d="M149.3,69.8c39.6,14.1,82.2,11.2,123.6,12.4c17.9,0.3,98.9-6.4,96.7-29.6c-2.5-7.5-12.6,6.5-16.4,8.2
		c-4.2,2.7-7.2,4.3-8.9-1.8c-3.1-7-6.8-13.3-11-19.9c14.3-0.9,28.6,1.7,39.4,11.7c3.8,3.7,0.4,9.3-0.7,13.6
		c-5,12.1-10.3,24-15.5,36.1c-2.4,2.4-6.7,2-9.8,3.2c-58.1,13.6-119.5,9.3-178.1,1c-1.2-0.2-2.7-1.8-3.3-3
		C160,91.4,155.4,79.5,149.3,69.8z"/>
	<path class="st0" d="M328.5,847c2.5-1.9,3.9-3.6,6.9-3.4c13.4,1.3,26.7,1.1,39.9-1.6c21.5-10.7,9.9,41.2,19,50.4
		c5.7,7.4,11.9,14.5,17.9,21.7c5,5.4,7.9,19.1-1.8,20.9c-17.6,2.2-85.4,13.1-81.7-16.6C329.2,894.6,337.8,870.1,328.5,847z"/>
	<path class="st0" d="M208.9,853.3c6.5-2.1,11.9,1.4,17.8,2.4c11.5,2.1,22.8,1.9,33.9-2c18-5.3-9.2,31.2,8.9,62.6
		c3.7,8.4,9.4,26.3-2.1,30.4c-19,4.4-74.7,8.7-75.9-19.2C190.1,898.4,218.7,883.6,208.9,853.3z"/>
	<path class="st0" d="M241.6,558.7c-1.5,3.9-5.8,7.6-4.9,12.1c6-1.5,14.8-16.5,20.3-21.7c7.3-8.8,9-20.1,11.2-30.9
		c2.3-8.5,8.4-5.6,6.9,1.1c-0.3,2.7-0.1,11.6,4,6.7c5.6-8.3,9.6-19.1,21.1-19.3c6.9-1.1,15.3,1.3,16.6,9.1
		c4.4,25.4-18.3,44.7-31.2,64c-9.6,13.7-22.8,32.4-41.8,23.4c-14-6-23.3-16.3-26.6-31.4C214.2,549.5,225.2,548.4,241.6,558.7z"/>
	<path class="st0" d="M369,563.9c1,37.5,1.9,74.5,2.9,112.3c-26.8-30.8-50.3-63.3-80.4-90.5c2.3-2.3,4-9.3,8.4-8.6
		c4.9,0.4,13,8.4,15.9,1.7c4.5-9.2,7.6-18.2,13.5-26.8C337.9,593.9,339.3,578.3,369,563.9z"/>
	<path class="st0" d="M385.3,540.9c11.6,7.6,24.7,8.5,37.3,10.9c21.8,4.2,43.8,7.8,65.9,10.4c3.5,2.7,2.9,9,8.1,10.6
		c5.5,1.9,2.7-5.3,1.1-7.7c-9.7-21.6,31-26.2,9.2,3.3c-1.6,2.2-2.5,3.9,0.5,5.6c-3.7,4.2-11.4,23.5-14.8,23.2
		c-30.1-6.7-59.5-16.3-89-24.9C351.2,556,383,569.3,385.3,540.9z"/>
	<path class="st0" d="M351.8,112.1c-1.6,21.5-65.6,22.1-82.8,24.9c-31.2,3.5-61.8-3.2-91.2-13.2c-4.3-2.3-4.8-7.5-7.6-11.9
		c13.4,3.2,26.2,5.3,39.8,6.2C257.4,120.1,305.1,122.5,351.8,112.1z"/>
	<path class="st0" d="M222.5,779.9c51.6,32.5,39.5-0.6,37.6,63.4c-1.1,10.3-33,7.8-40.2,3.8c-2.1-0.8-2.5-2-2.4-4
		C219.4,822.2,219.7,800.8,222.5,779.9z"/>
	<path class="st0" d="M333.8,837.3c-0.4-14.7-4.2-28.2-10.6-41c14.3-5.5,29.8-8,40.6-19.3c11.6,15.5,11.6,34.6,12.6,53.1
		C377.9,838.8,340.4,836.7,333.8,837.3z"/>
	<path class="st0" d="M378.2,717.2c-31.2-40.9-65.1-78.7-97.3-118.8c2.1-2.4,4.7-5.3,7.5-8.5c23.9,26.9,47.9,53.5,70.7,81.3
		c6.9,8.5,13.5,17.3,19.8,26.1C384.6,707.1,384.6,707.1,378.2,717.2z"/>
	<path class="st0" d="M382.3,796.8c3.1-20.3,6.2-41.3,7.9-61.9c0.3-2.6-1.1-3.6-3.5-3.6c2.5-4.3,4.9-8.6,7.6-13.3
		c7.4,4.9,16.6,9.3,14.9,19.7c0,16.3-0.4,32.6-3.8,48.7C402.4,805.5,400.2,798.7,382.3,796.8z"/>
	<path class="st0" d="M377.5,525.6c-0.7,6.8,3.4,16.7-1.6,22.8c-10.5,9.1-21.7,17.6-34.2,23.6c-2.9-10.7-5.7-21.1-8.4-31.2
		C347.6,535.8,362.4,530.8,377.5,525.6z"/>
	<path class="st0" d="M570.8,455.3c3,25.3-8.7,58.4-33.3,68.5C538.9,497.6,547.7,470.2,570.8,455.3z"/>
	<path class="st0" d="M547.9,581c0.7,15.4-19.8,25.8-27,9.3c-4-10.7-0.5-22.3,12.4-28c1-0.5,2.8-0.2,3.9,0.3
		C543.9,566.4,547.8,572,547.9,581z"/>
	<path class="st0" d="M537.2,532.6c31.8-12.8,41.3-44.9,41-76.4C605.5,466.5,564.8,547.1,537.2,532.6z"/>
	<path class="st0" d="M530,525.6c-19-24.2,9.2-75.6,38-77C542.9,467.1,531.9,495.2,530,525.6z"/>
	<path class="st0" d="M193.5,48.4c-4.7,7.9-6.7,13.9-7.2,23.1c-7.4-1.2-15.6-2.4-23.8-3.9c-5.2-1.3-9-6.2-15-4.6
		C161.3,53.8,176.3,48.9,193.5,48.4z"/>
	<path class="st0" d="M164.9,728.2c14.1,1.1,27.6,6,42,4.9c4.4,0.5,1.5,12.7,2.3,17.5c-15.4-7.2-30.1-14.1-44.7-21
		C164.6,729.2,164.7,728.7,164.9,728.2z"/>
	<path class="st0" d="M381.3,733.5c1,0,2.3,0,4,0c-2.7,18-5.4,35.8-8.1,54.1c-2.6-6.2-5.1-12-7.8-18.3
		C374.2,758.5,378.5,746.5,381.3,733.5z"/>
	<path class="st0" d="M254.1,540.8c-3.1,4.8-5.9,9.2-8.4,13.2c-5.9-3-18.6-4.3-19.8-11.4c0.4-4.9,0.5-5,5.5-4.5
		C238.8,538.9,246.1,539.8,254.1,540.8z"/>
	<path class="st0" d="M310.4,574.9c-3.2-0.8-6.4-1.7-9.9-2.6c7.1-8.8,13.4-18.2,18.7-28.2c1.5-3,2.9-4.3,6.5-3.2
		C322.6,552.7,315.5,563.9,310.4,574.9z"/>
	<path class="st0" d="M496.6,380.7c-8-1.7-9.3-13.8-3.4-18.1c4.3-1.6,8,4,6.1,8.2C498,373.9,497.5,377.2,496.6,380.7z"/>
	<path class="st0" d="M514.7,574.6c-3.5,8.4-6.2,17.3-9,26c-0.6,1.9-1.9,1.5-3,0.7c-0.9-0.7-2.2-2.3-2-2.8
		c4.1-8.2,8.5-16.3,12.7-24.4C513.8,574.2,514.3,574.4,514.7,574.6z"/>
	<path class="st0" d="M532.2,543.3c-1.1,4.9-8.2,10.8-4,15.3c-2.5,1.8-4.9,3.5-7.8,5.7c3.9-7.5,7.6-14.4,11.3-21.3
		C531.9,543.1,532.1,543.2,532.2,543.3z"/>
	<path class="st0" d="M387.4,714.1c-0.1,3.9-1.9,7.2-4.3,10.5c-4.8-3.4,1.8-7.4,3.4-10.9C386.8,713.8,387.1,714,387.4,714.1z"/>
	<path class="st0" d="M518.4,598.9c-1.9-0.3-2.8-0.5-4.1-0.7c0.2-1.3,0.3-2.4,0.5-4.4C516.2,595.8,517.1,597.1,518.4,598.9z"/>
	<path class="st0" d="M41.5,219c0-13.6,10.2-17.9,20.1-18.1c6.4-0.1,10,9.1,6.6,14.7c-3.5,5.7-6.4,11.8-9.2,17.8
		c-1,2.2-1.9,3-4.4,2.6C46.1,234.5,41.4,228.6,41.5,219z"/>
	<path class="st0" d="M478.7,176.8c-6.2-7.7-12.3-15.2-18.4-22.7C475,146,491.5,160.8,478.7,176.8z"/>
	<path class="st0" d="M230.1,424.6c-12.5,0.1-10.8-16.9,1.6-16.6C240.3,408.2,241.3,426.3,230.1,424.6z"/>
	<path class="st0" d="M375.2,445.9c-10.2-0.2-22.8-2.1-21.3-15.4c-1.2-7.5,12.5-64,23.5-53c11.1,8.7,17.6,21,25.2,32.7
		C415.3,430.7,395,446.2,375.2,445.9z"/>
</g>
</svg>
