<?xml version="1.0" encoding="utf-8"?>
<!-- Generator: Adobe Illustrator 26.0.0, SVG Export Plug-In . SVG Version: 6.00 Build 0)  -->
<svg version="1.1" id="Capa_1" xmlns="http://www.w3.org/2000/svg" xmlns:xlink="http://www.w3.org/1999/xlink" x="0px" y="0px"
	 viewBox="0 0 595.3 957.1" style="enable-background:new 0 0 595.3 957.1;" xml:space="preserve">
<style type="text/css">
	.st0{fill:#FFFFFF;}
</style>
<g>
	<path d="M595.3,474.2c-0.4,0.8-1.1,1.6-1.1,2.5c-0.1,15.4-6.9,28.2-15.5,40.2c-6.7,9.4-15.1,17.2-25.5,22.7
		c-4.2,2.2-8.5,2.8-13.1,1.8c-0.8-0.2-1.7-0.2-2.5-0.3c-1.3,4-2.6,7.8-4,11.9c1.3,0.5,2.6,0.9,3.8,1.3c13.3,4.9,18.5,16.7,17.1,29.5
		c-0.8,7.4-3.5,14.3-10.2,18.4c-3.2,1.9-7.2,2.7-10.9,3.4c-3.5,0.6-7.2,0.6-10.7,0.4c-3.1-0.2-6.2-0.9-9.2-1.6
		c-1.5-0.4-2.3-0.5-3.3,1.1c-2.2,3.7-4.8,4.3-8.9,2.3c-2.5-1.2-4.8-2.7-7.2-4.1c-0.4-0.2-0.9-0.5-1.4-0.5
		c-21.8-2.8-42.5-9.8-63.5-15.8c-13.9-4-27.7-8.3-41.5-12.7c-4-1.3-7.9-3.3-12.3-5.3c0,3.9-0.2,7.4,0,10.9
		c1.6,31.8,3.3,63.5,2.3,95.3c-0.2,6,1.4,10.5,4.7,15.2c3.7,5.2,6.5,11,9.5,16.7c0.6,1.2,0.7,2.6,0.9,3.1c5.3,3.2,10.4,5.9,15.1,9.1
		c5.5,3.8,7.7,9.1,7.7,16c0,17.3-1.1,34.5-3.7,51.6c-0.8,5-2.3,10-3.9,14.8c-1,3.2-3.5,4.7-7.1,4.3c-6-0.5-12.1-0.8-17.9-1.2
		c0,5,0,10.4,0,15.9c0,1.9,0.4,3.8,0.2,5.7c-0.5,4.1-0.2,6.8,4.8,8.4c6.3,2.1,7.4,8.4,7.9,14.3c0.8,8.9,1.2,17.8,1.9,26.7
		c0.3,3.5,0.7,6.9,1.4,10.3c0.2,1.2,1.2,2.4,2,3.4c6.2,8.1,12.5,16.1,18.6,24.3c2.9,3.9,4.2,8.4,4,13.3c-0.4,8.2-5.2,14.1-13.5,14.8
		c-12.7,1.1-25.4,2.1-38.1,2.5c-8.1,0.3-16.2,0-24.3-0.6c-8.8-0.7-16.6-4.3-22.5-10.9c-1.8-2-2-5.8-2.2-8.9
		c-1.2-12.9,1.4-25.6,2.1-38.4c0.5-9.6-0.1-19.3-0.5-29c-0.1-1.9-1.1-3.8-2-5.6c-3.1-6.1-1.9-9.3,5.3-11.9c-1.3-8-2.3-16.2-4-24.2
		c-1-4.8-2.7-9.5-4.4-14.1c-1.2-3.5-2.2-3.9-5.7-2.9c-11.8,3.5-23.9,5-36.2,3.8c-2.1-0.2-4.1-0.8-6.2-0.8c-0.7,0-1.4,1-2,1.5
		c0,0,0,0.2,0,0.3c-0.9,14.6-1.9,29.2-2.8,43.7c7.4,2.1,8.6,4.4,7.3,11.8c-2.3,13.9-4.1,28-2.8,42.1c0.4,4.3,2.3,8.7,4.4,12.6
		c4,7.2,6.5,14.7,5.2,22.9c-1.7,10.5-5.6,18.6-19.3,19.3c-7.4,0.4-14.9,1.2-22.4,1.3c-11,0.2-21.7-1.9-32.3-4.8
		c-5.3-1.5-10.5-3.2-14.6-7.1c-7.8-7.5-9.3-16.7-7.7-27c1.8-11.7,7.6-21.5,13.6-31.3c6.3-10.4,7.7-21.1,4.2-32.6
		c-1.5-4.9,1.4-9.3,6.4-8.4c0.8,0.2,1.6,0,2.5,0c0.7-9,1.5-17.8,2.2-26.5c0.9-10.6,1.9-21.2,2.7-31.8c0.3-4.3,0.4-8.6,0.5-12.9
		c0-1-0.5-2-0.9-2.9c-1.8-3.8-3.5-7.6-5.4-11.3c-0.6-1.1-1.5-2.5-2.6-2.9c-23.4-9.3-45.4-21.3-67.2-33.7c-3.2-1.8-6.4-3.7-9.6-5.5
		c-1.6-0.9-3.4-1.8-2.3-4.1c1-2.1,2.8-2.5,5.1-1.8c13,3.7,26,7.7,39.1,10.8c11.6,2.8,23.4,3.8,36.2,2.8c0-4.3,0.2-8.6,0-13
		c-0.7-15,2.2-29.5,4.1-44.2c2.9-22.5,5.7-45.1,8.5-67.6c0.3-2.6-0.3-4.7-2-6.9c-7.9-10-12-21.5-10.4-34.3
		c0.9-6.8,4.6-12.2,11.7-15.1c0.3-2.3,0.6-5,1-7.9c-6.9-1.3-13.7-2.7-20.5-4c-19.6-3.7-38.6-9.7-57.7-15.4
		c-25.6-7.6-46.6-22.3-65.5-40.5c-20.7-19.9-36.6-43-46.6-69.9c-7.1-19-11.3-38.6-12.3-59c-0.7-14.8,1.5-29.4,3.5-43.9
		c1.7-11.9,5.6-23,11.5-33.5c0.3-0.5,0.4-1.2,0.7-1.8c-3.1-1.3-6.3-2.4-9.2-3.9C9.4,256.5-1.4,235.8,0.2,217
		c1.1-12.9,5.8-24.1,14.7-33.3c8.5-8.8,19.2-13.4,31.5-14.2c14.4-0.9,28.3,1.6,41.7,6.9c2.2,0.9,3.7,0.5,5.3-1.2
		c6.7-7,13.3-14.1,20.3-20.8c10.7-10.4,22.8-18.8,36.2-25.6c4.4-2.2,8.5-5.1,12.7-7.6c1.3-0.8,1.7-1.7,1.1-3.4
		c-5.3-15.3-11.9-30-19.4-44.4c-1.3-2.6-3.3-5.2-3.4-7.9c-0.1-2.2,1.4-5.3,3.1-6.8c9.8-8,20.8-14,33.5-15.7
		c4.8-0.7,9.8-0.3,14.7,0.1c2,0.1,3-0.2,4.2-1.8c10.1-13.6,22-25.3,37.4-32.8c6.8-3.3,13.9-6.5,21.1-7.9c9.5-1.8,19.3-0.4,28.8,2.1
		c15.8,4.1,28.6,12.9,39.7,24.6c1.6,1.7,3.2,2.2,5.5,2.4c16.8,1,32.8,4.8,47.3,13.6c5.7,3.5,7.2,8.1,6,14.6
		c-1.8,10.4-6.9,19.6-11.2,29c-3,6.6-5.7,13.3-8.7,20.3c1.9,0.5,3.5,0.9,5.1,1.3c17.5,4.1,33.9,11.1,49.2,20.6
		c1.4,0.9,2.2,0.9,3.6,0.1c9.2-5.7,19.2-9.7,29.9-11.1c18.3-2.3,33.4,3.2,44.8,18.4c10.7,14.3,13,29.9,8,46.5
		c-1.5,5.1-5.2,9.7-8.2,14.4c-1.2,1.9-3.1,3.4-4.6,5.1c7,14.9,9.1,31.2,13.7,46.7c4.5,15.1,7.3,30.4,8.5,46.1
		c1.2,16,0.7,32-1.1,47.9c-2.5,20.6-7.5,40.4-15.6,59.5c-8.5,20.4-20.3,38.7-34.2,55.7c-17.2,21-37.7,38.1-60.4,52.7
		c-5.4,3.4-11.1,6.4-16.6,9.7c-0.4,0.2-0.8,0.6-0.3,0.9c0.4,3.5,0.9,7.1,1.1,10.7c0.1,2,0.3,3.3,2.7,4.2c12.3,4.7,25.2,7.2,38.2,9.4
		c18,3.1,36.1,5.8,54.2,8.7c3.1,0.5,6.2,0.9,8.4,1.3c2.9-4,5.1-7.8,8-11c3.9-4.3,13.4-5.3,18.3-2.2c4,2.4,5,6.3,5.4,10.8
		c3.4-5.5,6.9-11,10.2-16.3c-7.3-9.3-12.6-19.2-12.4-31.1c0.2-14.7,4.6-28,14.3-39.2c5.7-6.6,12-12.8,18.5-18.5
		c7.8-6.7,16.9-8.3,26.1-3.2c4.9,2.7,9.2,6.6,13.2,10.5c3,3,4.3,7.1,4.3,11.5c0,2,0.7,4.1,1.1,6.1
		C595.3,473.8,595.3,474,595.3,474.2z"/>
	<path d="M499.4,262.4c-0.5-2.2-0.8-3.8-1.2-5.4c-4-13.5-8-26.9-12-40.4c-1.4-4.9-2.7-9.8-3.9-14.8c-0.2-0.8,0-2,0.4-2.7
		c2.7-4.2,5.3-8.6,8.3-12.5c4.1-5.3,6.5-11.1,6.9-17.9c0.7-13.3-4.3-23.9-14.1-32.6c-10.3-9.2-22.3-12.9-35.9-10.4
		c-9.8,1.8-18.1,6.9-26.5,12.1c-1.5,0.9-4,1.4-5.5,0.8c-3.1-1.2-6-3.3-8.8-5.1c-14.5-9.2-30.1-15.9-47-20.1
		c-1.7,4.1-3.3,8.2-5.2,12.2c-0.6,1.2-1.6,2.6-2.8,3.1c-11,5.2-22.4,9-34.2,11.5c-11.5,2.4-23.1,3.5-34.8,3.5
		c-18.2,0-36.4,0.5-54.6-0.2c-16.4-0.6-32.2-4.7-47.5-10.6c-4.1-1.6-7.7-4.1-11.6-6c-0.8-0.4-2.2-0.3-3,0.1
		c-3.1,1.7-6.1,3.8-9.2,5.5c-21.1,11.5-39.2,26.7-55.1,44.7c-2.2,2.4-4.3,4.9-6.9,6.9c-1.4,1.1-3.8,2-5.3,1.6
		c-8.7-2.4-17.2-5.4-25.8-7.9c-10.9-3.2-21.7-2.7-31.9,2.4c-27.8,13.8-30.6,45.6-16,66.1c6.5,9.1,16,14.4,26,18.9
		c1,0.4,1.7,1.5,2.6,2.2c-0.9,0.9-1.9,1.8-2.8,2.7c-0.6,0.6-1.6,1-1.9,1.7c-5.6,14.2-9.6,28.8-11.6,44c-3.5,26.3-1.2,52,7.3,77.2
		c10.2,30,25.5,56.9,48.2,79.3c11.5,11.3,24.3,20.8,38.5,28.4c10.8,5.8,22.3,9.6,34.1,13c8.3,2.4,16.6,4.5,25,6.8
		c-1-1.3-2.2-2.1-3.5-2.8c-13.2-7.4-25.6-15.9-36.8-25.9c-15.8-14.1-27.8-31.2-36.7-50.4c-13.1-28.2-12.1-55.9,5.3-81.9
		c14.3-21.4,32.5-39.3,51.8-56.3c25.3-22.3,54.6-36.4,87.1-44c17.1-4,34.7-4.2,52.1-1c31.9,5.9,57.4,22.5,77.8,47.3
		c4.4,5.3,8.8,10.6,13.7,16.6c-0.1-1.4-0.1-1.9-0.3-2.3c-3.2-10.9-6.2-21.8-11.6-31.8c-1-1.9-0.9-3.8,0.8-4.6c1-0.5,3.3,0,4.1,0.9
		c4.9,5.5,11.8,9.2,15.4,16c0.4,0.7,1.2,1.2,1.8,1.8c4.4,4.8,8.7,9.6,13,14.5c1.6,1.9,2.9,4,4.3,6c-0.8-5.1-2-10-3-14.9
		c-2.5-11.4-8-21.6-13.1-32c-0.6-1.3-0.3-3.1-0.4-4.6c1.4,0,3-0.4,4.3,0c7.5,2.3,13.8,6.5,20,11.2c5,3.8,10,7.5,15.7,11.8
		c-2.5-4.4-4.5-8.1-6.6-11.6c-3.7-6.1-7.3-12.3-11.4-18c-6.4-8.9-13.6-17.1-21.9-24.4c-0.7-0.6-1.1-2.4-0.8-3.3
		c0.3-0.9,1.6-1.7,2.7-2.1c0.9-0.3,2.1-0.1,3.1,0.1c11.7,1.6,23.4,2.7,35,4.8c13.4,2.5,26.7,6,38.9,12.4
		C487.7,255.3,493.2,258.8,499.4,262.4z"/>
	<path d="M480.9,416.3c-5.8-2.8-9-6-10-12c-1.9-11.1-3.7-22.2-4.5-33.4c-0.8-11.3,1.1-22.1,8.7-31.4c4-4.9,8.3-6.2,14.1-4.7
		c6.2,1.5,11,4.8,14.6,10.9c0.2-1.1,0.3-1.4,0.3-1.8c2.2-20.4,1.8-40.8-0.8-61.1c-0.4-3.4-0.2-7.2-4.4-9c-1-0.4-1.5-2-2.3-2.9
		c-1.4-1.5-2.7-3.4-4.5-4.3c-8.1-4.2-16.1-8.6-24.5-12.2c-12.4-5.2-25.6-7.3-38.8-9.5c-4.2-0.7-8.3-1.4-12.9-2.2
		c0.4,0.8,0.5,1.1,0.7,1.3c7,9.8,14.4,19.4,21,29.6c5.8,9,11.9,18.2,14.1,29c0.2,1.1-0.3,2.4-0.5,3.7c-1.2-0.3-2.6-0.2-3.6-0.8
		c-6.5-3.8-11.4-9.8-18-13.5c-5.2-2.8-9.8-6.6-14.6-10c-0.2,0.2-0.4,0.4-0.6,0.6c5.2,9.1,7.8,19.2,10.2,29.2
		c2,8.7,3.4,17.5,4.9,26.3c0.2,1.2-1,2.6-1.6,3.9c-1.3-0.7-2.9-1.1-3.7-2.2c-3.4-4.5-6.3-9.5-9.8-13.9c-7.1-9-14.5-17.7-21.8-26.5
		c-0.3,0.2-0.5,0.4-0.8,0.6c1.8,5.9,3.7,11.8,5.2,17.8c1.3,5.3,2.4,10.7,3.2,16c0.6,3.9-1.6,5.3-5,3.6c-3.7-1.8-6-4.8-7.9-8.3
		c-2.7-4.8-5.5-9.8-8.9-14.1c-7.6-9.8-16.9-17.8-26.6-25.5c-14.6-11.5-31-19.6-49.2-22.9c-21.9-4-43.8-3.2-65.1,4.1
		c-19.2,6.6-37.3,15.3-54.1,26.6c-18.9,12.6-35.1,28.2-50,45.1c-8.8,9.9-17.3,20.1-22.9,32.3c-6.5,14-9.1,28.7-5.9,43.9
		c5,24.2,17.2,44.7,34.3,62.1c18.3,18.7,40.6,31.5,64.8,41.1c16.4,6.6,33.9,8.7,51.3,10.6c1.7,0.2,2.6-0.2,3.1-2.1
		c1.5-5.5,3.3-10.8,4.8-16.3c0.9-3.2,2-6.5,5.5-7.4c2.4-0.6,5.1-1.1,7.4-0.6c2.1,0.5,3.9,2.5,5.9,4c3.5-6.9,10-9.3,17.7-10.2
		c17.4-2,28.5,9.8,25.1,26.9c-0.4,2.1-0.7,4.2-1,6c5.4-1.5,10.5-3,15.7-4.2c5.7-1.3,11.7-1.6,17.3-3.4c16.3-5.3,31.2-13.5,45.4-23
		C434.9,479.9,461,451.1,480.9,416.3z"/>
	<path d="M228.5,603c-0.3,1.8-0.6,3.3-0.8,4.8c-2.9,22.2-6,44.4-8.6,66.7c-1.9,16.2-3.3,32.4-4.3,48.7c-0.8,11.6,0.8,23,3.2,34.5
		c1.6,7.7,4.7,14.2,11.3,18.6c9.3,6.2,19.4,10.8,30.1,14.1c8.5,2.6,17.2,5.2,26.2,4.8c7.3-0.3,14.7-1.1,21.7-3
		c11.5-3,22.9-6.9,34.2-10.8c13.8-4.8,23-14.3,27.4-28.3c2.1-6.9,4-13.8,6-20.8c0.1-0.5,0.1-1.2,0.5-1.5c2.5-2.1,1.3-4.1,0-6
		c-5.2-7.4-10.2-15-15.9-22c-7.3-9-15.6-17.2-22.9-26.1c-20-24.6-39.8-49.5-60-74.7C261.1,618.8,245,614.3,228.5,603z"/>
	<path d="M338.1,66.2c-1.2-3.4-1.9-5.9-3-8.3c-0.7-1.7-2-3.2-2.8-4.9c-3.6-8-8.8-14.9-14.8-21c-13.3-13.7-29.4-22-48.7-23.1
		c-5.3-0.3-11-0.7-16,0.6c-14,3.7-26.7,10.3-37.1,20.5c-5,4.9-9.8,10.2-13.6,16c-3.5,5.4-5.7,11.6-8.3,17.6
		c-1.1,2.5-1.7,5.2-2.7,8.2C240.3,74.5,288.8,75.8,338.1,66.2z"/>
	<path d="M149.3,69.8c1.2,2.2,3.1,5,4.5,7.9c3.9,7.9,7.5,16,11.4,23.9c0.6,1.3,2.1,2.8,3.3,3c10.2,1.6,20.4,3.1,30.6,4.1
		c12.6,1.3,25.3,2.8,38,3c20.3,0.3,40.7,0,61-0.6c16.4-0.4,32.6-3.5,48.5-7.5c2.7-0.7,5.5-1.2,8.2-2c0.6-0.2,1.4-0.6,1.6-1.2
		c1.3-2.8,2.4-5.6,3.6-8.4c4-9.2,8.1-18.4,11.9-27.7c1.2-3,2-6.3,2.5-9.6c0.2-1.2-0.8-3-1.8-4c-8-7.3-17.7-10.8-28.3-11.7
		c-3.5-0.3-7.1,0-11.1,0c1.2,1.9,2.2,3.3,3.1,4.9c2.7,5,5.8,9.8,7.9,15c1.9,4.6,2.2,5.2,6.8,3.1c0.8-0.3,1.5-0.8,2.1-1.3
		c3.8-3.1,7.6-6.3,11.4-9.4c2.4-2,3.9-1.7,5,1.2c1,2.6,0.6,5.2-1.3,6.7c-4.7,3.7-9.4,7.8-14.8,10c-6.8,2.8-14.3,4.2-21.5,5.8
		c-19.5,4.3-39.1,7.3-59.1,7.1c-19.2-0.2-38.3-1-57.5-1.1c-13.9-0.1-27.5-1.3-41-4.5C165.9,74.6,157.5,72,149.3,69.8z"/>
	<path d="M328.5,847c0.3,0.8,0.6,1.8,0.9,2.7c3.9,11.2,4.3,22.5,2.7,34.2c-1.6,11.4-2.7,23-3.4,34.5c-0.6,10.2,2.5,13.9,12.3,16.6
		c15.5,4.3,31.3,4.6,47.2,2.8c7.4-0.9,14.8-1.9,22.2-2.8c2.9-0.4,5.3-2.4,5.9-5.3c1.2-5.9-0.4-11-4.1-15.6
		c-6-7.2-12.1-14.3-17.9-21.7c-1.7-2.3-2.9-5.4-3.2-8.3c-0.8-7.3-0.8-14.7-1.5-22c-0.6-5.8-1.6-11.7-2.8-17.4
		c-0.3-1.3-2-2.4-3.2-3.4c-2.9-2.3-5.6,0.2-8.3,0.7c-13.2,2.7-26.5,2.9-39.9,1.6c-1-0.1-2.1,0-2.9,0.5
		C331.1,844.8,330.1,845.8,328.5,847z"/>
	<path d="M208.9,853.3c0.3,1.4,0.6,2.8,0.8,4.3c1,8.1,2.4,16.3-1.6,24.1c-3.5,6.8-7.1,13.6-10.7,20.4c-4.3,8-6,16.4-5.9,25.5
		c0,7.7,4.1,12.5,10.2,15.7c8.3,4.4,17.6,5.4,26.8,6.2c13,1.2,26.1,0.5,38.9-2.7c3.6-0.9,5.2-2.7,5.9-6c1.8-8.6,0.1-16.6-3.8-24.4
		c-3.5-7.2-6.3-14.6-6.4-22.8c-0.1-12,1.2-23.7,4.2-35.3c0.6-2.2,0.2-3.9-1.9-4.5c-1.5-0.4-3.4-0.5-4.8,0c-11.1,3.9-22.4,4.1-33.9,2
		C220.9,854.7,215.5,851.2,208.9,853.3z"/>
	<path d="M241.6,558.7c-2.4-1.3-4.8-2.9-7.4-3.9c-4.2-1.5-8.4-5.1-13.2-1.2c-1,0.8-2.3,1.7-2.6,2.8c-1.6,5-2.2,10.1-1.1,15.2
		c3.4,15.1,12.6,25.4,26.6,31.4c10.4,4.5,21.3,1.8,28.8-6.8c4.6-5.3,8.8-11,13-16.6c9.5-12.7,19.5-25,27.2-39c4.3-7.9,5.6-16.2,4-25
		c-0.9-5-5.2-8.8-10.3-9.1c-2.1-0.1-4.2-0.3-6.3,0c-6.4,0.8-11.9,3.2-15,9.4c-1.8,3.4-3.9,6.7-6.1,9.9c-1.6,2.2-3.2,1.9-3.8-0.8
		c-0.4-1.9-0.2-4-0.2-5.9c0-2.3,0.9-5.1-2-6.3c-1.7-0.7-4,1.8-4.9,5.2c0,0.1,0,0.2-0.1,0.3c-0.9,4.1-1.5,8.2-2.6,12.2
		c-1.8,6.6-4.1,13.1-8.5,18.4c-5.8,7-11.7,14-17.6,21c-0.5,0.6-1.7,0.5-2.6,0.7c-0.1-0.8-0.5-1.8-0.2-2.5
		C238.1,565,239.9,561.8,241.6,558.7z"/>
	<path d="M369,563.9c-0.9,0.4-1.2,0.6-1.6,0.8c-8.3,4.7-16.6,9.4-24.9,14.2c-2.5,1.4-4.2,0.9-5.5-1.5c-1.4-2.6-2.8-5.2-3.6-8
		c-1.6-5.5-2.7-11.1-4.2-17.4c-1.4,2.1-2.5,3.4-3.2,4.9c-3.5,7.3-7,14.5-10.3,21.9c-1.1,2.5-2.3,3.5-5,2.4
		c-3.6-1.5-7.2-2.8-10.9-4.1c-0.8-0.3-2.4-0.1-2.8,0.5c-2.1,2.7-3.9,5.6-5.6,8.1c30,27.2,53.6,59.7,80.4,90.5
		C370.9,638.3,370,601.3,369,563.9z"/>
	<path d="M385.3,540.9c-0.2,8.2-3.5,14.4-10.4,18.5c-0.6,0.3-1.2,1.9-0.9,2.3c0.6,0.9,1.6,1.8,2.6,2.2c9,2.8,18,5.6,27.1,8.3
		c19.9,5.9,39.8,11.9,59.7,17.6c9.7,2.8,19.5,5,29.3,7.3c0.7,0.2,2.1-0.7,2.5-1.4c1.6-2.8,2.9-5.8,4.5-8.6c2.5-4.4,5.1-8.7,7.8-13.2
		c-3-1.8-2.1-3.4-0.5-5.6c3.6-5,6.6-10.2,6.2-16.8c-0.2-2.6-1.6-3.4-3.8-3.7c-4.6-0.4-8.6,0.6-11.3,4.7c-2.7,4.1-2.6,8.2-0.3,12.5
		c0.9,1.7,1.7,3.4,2.2,5.2c0.2,0.8-0.2,2.1-0.8,2.7c-0.4,0.4-1.8,0.1-2.5-0.2c-3.8-1.6-5-5-6.3-8.6c-0.3-0.8-1.1-1.9-1.8-2
		c-8.1-1.2-16.2-1.9-24.3-3.2c-13.9-2.2-27.8-4.6-41.6-7.2C410,549.4,396.9,548.6,385.3,540.9z"/>
	<path d="M351.8,112.1c-2.6,0.6-5,1.4-7.5,1.8c-5.4,0.9-10.8,1.7-16.3,2.3c-14,1.4-28,3.7-42.1,3.8c-25.4,0.2-50.7-0.8-76.1-1.8
		c-9.4-0.4-18.7-2.2-28.1-3.6c-3.7-0.6-7.4-1.6-11.7-2.6c1.9,3.8,3.5,7,5.2,10.1c0.5,0.8,1.5,1.6,2.4,1.8c11.7,3.4,23.2,7.2,35,10
		c18.5,4.2,37.4,4.7,56.2,3.2c9.1-0.7,18.2-2.4,27.3-2.8c16.4-0.7,31.9-4.7,47-11C348.4,121,351.6,117.9,351.8,112.1z"/>
	<path d="M222.5,779.9c-0.3,2.4-0.8,5-1,7.6c-1.3,18.5-2.6,37.1-3.9,55.7c-0.1,2,0.3,3.2,2.4,4c12.3,4.7,24.6,4.8,37,0.6
		c2.5-0.8,3-2,3.2-4.4c0.7-13.7,1.5-27.3,2.6-40.9c0.2-2.7-0.7-3.3-2.8-4c-4.6-1.6-9.4-3.2-13.7-5.4
		C238.3,789,230.6,784.4,222.5,779.9z"/>
	<path d="M333.8,837.3c1.4,0,2.4,0,3.5,0c12,0.3,24-0.3,35.8-2.9c2.9-0.6,3.6-1.6,3.4-4.2c-0.5-6.5-0.7-13-1.3-19.5
		c-0.6-5.9-1-12-2.9-17.6c-1.9-5.7-5.6-10.8-8.4-16c-10.7,11.3-26.2,13.8-40.6,19.3C329.6,809.1,333.4,822.5,333.8,837.3z"/>
	<path d="M378.2,717.2c6.4-10.1,6.4-10.1,0.6-19.8c-0.2-0.4-0.4-0.7-0.7-1.1c-6.4-8.4-12.4-17-19.1-25
		c-15.3-18.3-30.9-36.5-46.5-54.5c-4.9-5.7-10.4-11-15.5-16.6c-3-3.3-5.8-6.8-8.7-10.2c-2.8,3.2-5.4,6.1-7.5,8.5
		c3.8,4.4,7.5,8.4,10.9,12.6c15.2,18.8,30.2,37.8,45.6,56.5C350.9,684,366.6,698.6,378.2,717.2z"/>
	<path d="M382.3,796.8c3.4,0.6,6.6,1.2,9.9,1.7c2.7,0.4,5.4,0.8,8.1,0.8c0.8,0,2.2-0.9,2.5-1.6c1.1-3.7,1.9-7.5,2.7-11.3
		c3.4-16,3.8-32.3,3.8-48.7c0-5.4-0.3-10.2-5.5-13.4c-3.2-2-6.3-4.2-9.4-6.3c-2.7,4.7-5.1,8.9-7.6,13.3c2.4,0,3.7,1,3.5,3.6
		c-1,8.9-1.7,17.8-2.8,26.7C385.9,773.5,384,785.3,382.3,796.8z"/>
	<path d="M377.5,525.6c-15,5.2-29.8,10.2-44.2,15.2c2.7,10.1,5.5,20.5,8.4,31.2c0.5-0.2,0.9-0.2,1.3-0.4
		c11.8-6.6,22.8-14.2,32.9-23.2c1.2-1.1,2.3-3,2.3-4.6C378.1,537.5,377.7,531.3,377.5,525.6z"/>
	<path d="M570.8,455.3c-11.7,7.3-19.2,17.9-24.7,30c-5.5,12.1-7.6,25.1-8.5,38.5c9.1-3.3,17.5-11.6,23-20.8
		c5.6-9.4,8.2-19.7,9.9-30.3C571.3,467.1,572.8,461.4,570.8,455.3z"/>
	<path d="M547.9,581c-0.1-9-4-14.6-10.7-18.3c-1.1-0.6-2.8-0.8-3.9-0.3c-12.9,5.7-16.4,17.3-12.4,28c2.4,6.4,9.6,10.7,17.4,7.1
		C545.8,594,547.2,587.2,547.9,581z"/>
	<path d="M537.2,532.6c6.4,1.6,11.9,2.2,17.2-0.8c7.2-4,12-10.5,16.8-16.8c10.4-13.6,15.8-29,15.9-46.2c0-5.1-3.9-11.9-8.9-12.6
		c0,1.1,0.1,2.1,0,3.1c-0.8,8.4-1.1,16.8-2.7,25c-3.9,21.4-15.5,37.3-35.5,46.7C539.3,531.4,538.6,531.8,537.2,532.6z"/>
	<path d="M530,525.6c1.1-8,1.7-15.9,3.4-23.5c4.8-21.2,15-39.1,33.1-51.8c0.6-0.4,0.9-1.2,1.4-1.8c-0.8-0.2-1.8-0.8-2.5-0.6
		c-4.6,2-9.7,3.4-13.6,6.3c-16.4,12.2-25.6,28.9-28,49.1C523,511.6,524.8,519.2,530,525.6z"/>
	<path d="M193.5,48.4c-17.1,0.5-32.2,5.4-46,14.6c4.1-0.8,7.5,0.7,10.7,2.9c1.3,0.8,2.8,1.6,4.3,1.8c8.2,1.4,16.4,2.7,23.8,3.9
		c0.6-4.4,0.7-8.3,1.8-11.9C189.3,55.9,191.5,52.5,193.5,48.4z"/>
	<path d="M164.9,728.2c-0.1,0.5-0.3,1-0.4,1.6c14.6,6.9,29.3,13.7,44.7,21c0-6.1,0.1-11-0.1-15.9c0-0.6-1.5-1.7-2.2-1.6
		c-11.3,0.6-22.2-1.5-33.1-3.9C170.8,728.6,167.8,728.5,164.9,728.2z"/>
	<path d="M381.3,733.5c-2.8,13-7.1,25-11.9,35.9c2.7,6.3,5.1,12.1,7.8,18.3c2.8-18.3,5.4-36.2,8.1-54.1
		C383.6,733.5,382.3,733.5,381.3,733.5z"/>
	<path d="M254.1,540.8c-8-1-15.3-1.9-22.7-2.7c-5-0.5-5.1-0.5-5.5,4.5c-0.1,1.2,0.7,3,1.6,3.6c2.3,1.6,4.9,2.8,7.5,3.8
		c3.4,1.4,6.9,2.6,10.7,4C248.2,550,251,545.6,254.1,540.8z"/>
	<path d="M310.4,574.9c0.3-0.2,0.5-0.4,0.5-0.5c4.8-10.1,9.7-20.2,14.4-30.4c0.4-0.9,0.3-2.1,0.4-3c-3.6-1.1-4.9,0.2-6.5,3.2
		c-3.4,6.5-7.5,12.5-11.5,18.7c-2.2,3.3-4.8,6.3-7.2,9.5C304,573.2,307.1,574,310.4,574.9z"/>
	<path d="M496.6,380.7c0.9-3.5,1.5-6.8,2.6-9.9c1.3-3.4,0-5.8-2.3-7.8c-0.8-0.7-3-1-3.8-0.4c-3.1,2.4-4.3,5.9-3.4,9.6
		C490.7,375.7,491.3,379.8,496.6,380.7z"/>
	<path d="M514.7,574.6c-0.4-0.2-0.9-0.4-1.3-0.6c-4.3,8.1-8.6,16.2-12.7,24.4c-0.2,0.5,1.1,2.1,2,2.8c1,0.8,2.4,1.2,3-0.7
		c1-3,2-5.9,2.9-8.9c0.8-2.4,1.5-4.7,2.3-7.1C512.1,581.2,513.4,577.9,514.7,574.6z"/>
	<path d="M532.2,543.3c-0.2-0.1-0.4-0.3-0.5-0.4c-3.7,6.9-7.3,13.9-11.3,21.3c2.9-2.1,5.3-3.8,7.8-5.7c-2-1.7-1.7-3.6-0.6-5.8
		C529.2,549.7,530.7,546.5,532.2,543.3z"/>
	<path d="M387.4,714.1c-0.3-0.1-0.6-0.2-0.9-0.4c-1.4,2-2.7,4.1-4.3,6c-1.6,2-1,3.3,0.9,4.9C385.5,721.3,387.3,718,387.4,714.1z"/>
	<path d="M518.4,598.9c-1.3-1.8-2.2-3.1-3.6-5.1c-0.2,2-0.4,3.1-0.5,4.4C515.6,598.4,516.5,598.6,518.4,598.9z"/>
	<path class="st0" d="M499.4,262.4c-6.2-3.6-11.7-7.1-17.5-10.2c-12.2-6.4-25.4-10-38.9-12.4c-11.6-2.1-23.3-3.3-35-4.8
		c-1-0.1-2.2-0.4-3.1-0.1c-1,0.4-2.4,1.2-2.7,2.1c-0.3,0.9,0.1,2.7,0.8,3.3c8.3,7.3,15.5,15.5,21.9,24.4c4.1,5.8,7.7,12,11.4,18
		c2.2,3.5,4.1,7.2,6.6,11.6c-5.7-4.3-10.7-8-15.7-11.8c-6.1-4.7-12.5-8.9-20-11.2c-1.3-0.4-2.9,0-4.3,0c0.1,1.6-0.2,3.3,0.4,4.6
		c5.1,10.4,10.6,20.5,13.1,32c1.1,4.9,2.3,9.8,3,14.9c-1.4-2-2.7-4.1-4.3-6c-4.3-4.9-8.6-9.7-13-14.5c-0.6-0.6-1.4-1.1-1.8-1.8
		c-3.5-6.9-10.5-10.5-15.4-16c-0.8-0.9-3.1-1.4-4.1-0.9c-1.7,0.9-1.8,2.7-0.8,4.6c5.4,10,8.4,21,11.6,31.8c0.1,0.5,0.1,1,0.3,2.3
		c-4.9-6-9.3-11.3-13.7-16.6c-20.5-24.8-45.9-41.4-77.8-47.3c-17.4-3.2-34.9-3-52.1,1c-32.5,7.5-61.9,21.7-87.1,44
		c-19.3,17-37.5,35-51.8,56.3c-17.3,26-18.3,53.6-5.3,81.9c8.9,19.2,20.8,36.3,36.7,50.4c11.3,10,23.6,18.6,36.8,25.9
		c1.2,0.7,2.4,1.5,3.5,2.8c-8.3-2.2-16.7-4.4-25-6.8c-11.7-3.4-23.2-7.2-34.1-13c-14.2-7.6-27-17.1-38.5-28.4
		c-22.7-22.4-38-49.3-48.2-79.3c-8.5-25.2-10.8-50.9-7.3-77.2c2-15.2,6-29.8,11.6-44c0.3-0.7,1.3-1.1,1.9-1.7c1-0.9,1.9-1.8,2.8-2.7
		c-0.8-0.8-1.6-1.8-2.6-2.2c-10-4.5-19.5-9.8-26-18.9c-14.6-20.4-11.9-52.3,15.9-66.1c10.2-5.1,21-5.5,31.9-2.4
		c8.7,2.5,17.2,5.5,25.8,7.9c1.5,0.4,3.9-0.5,5.3-1.6c2.5-2,4.7-4.5,6.9-6.9c15.8-18,34-33.2,55.1-44.7c3.1-1.7,6.1-3.8,9.2-5.5
		c0.8-0.4,2.2-0.5,3-0.1c3.9,1.9,7.6,4.5,11.6,6c15.3,5.9,31.1,9.9,47.5,10.6c18.2,0.7,36.4,0.2,54.6,0.2c11.7,0,23.3-1.1,34.8-3.5
		c11.9-2.5,23.3-6.3,34.2-11.5c1.2-0.6,2.2-1.9,2.8-3.1c1.9-4,3.4-8.1,5.2-12.2c16.8,4.2,32.5,10.9,47,20.1c2.9,1.8,5.7,3.9,8.8,5.1
		c1.5,0.6,4,0.1,5.5-0.8c8.3-5.2,16.7-10.3,26.5-12.1c13.6-2.5,25.5,1.2,35.9,10.4c9.8,8.7,14.8,19.3,14.1,32.6
		c-0.4,6.8-2.8,12.6-6.9,17.9c-3.1,3.9-5.6,8.3-8.3,12.5c-0.5,0.7-0.6,1.9-0.4,2.7c1.2,4.9,2.5,9.9,3.9,14.8c4,13.5,8,26.9,12,40.4
		C498.6,258.6,498.9,260.2,499.4,262.4z M33.4,217.6c0.3,2.3,0.5,4.6,0.9,6.8c2.4,11.8,10.3,18.9,22,20.1c2.9,0.3,5.6-0.7,6-3.3
		c0.9-5.3,4.5-8.9,7.1-13.1c2.1-3.5,4.8-6.8,6.4-10.4c4-9.3-0.6-25.2-16-24.4c-3.3,0.2-6.6,1.8-9.9,2.8
		C39.5,199.5,33.6,207.3,33.4,217.6z M465.6,144.3c-3.3,0.6-6.6,1.1-9.8,1.9c-4.5,1.2-6,5.1-3.4,8.7c2.7,3.7,5.7,7.3,8.5,10.9
		c4.2,5.3,9.3,10.1,11.4,16.8c1.2,3.7,2,4.1,5.8,2.8c6-2.2,9.5-6.8,11.5-12.6c2.6-7.2,2.4-17-6-22.9
		C478.3,146.3,472.4,144.3,465.6,144.3z"/>
	<path class="st0" d="M480.9,416.3c-19.9,34.9-46,63.7-79.2,85.9c-14.2,9.5-29.1,17.8-45.4,23c-5.5,1.8-11.5,2.1-17.3,3.4
		c-5.2,1.2-10.3,2.7-15.7,4.2c0.3-1.8,0.5-4,1-6c3.3-17.1-7.7-28.9-25.1-26.9c-7.6,0.9-14.1,3.3-17.7,10.2c-2-1.4-3.8-3.4-5.9-4
		c-2.3-0.6-5-0.1-7.4,0.6c-3.6,1-4.6,4.2-5.5,7.4c-1.6,5.4-3.4,10.8-4.8,16.3c-0.5,1.9-1.4,2.3-3.1,2.1c-17.4-1.9-34.9-4-51.3-10.6
		c-24.1-9.7-46.5-22.5-64.8-41.1c-17.1-17.4-29.3-37.9-34.3-62.1c-3.1-15.2-0.6-29.9,5.9-43.9c5.7-12.2,14.2-22.4,22.9-32.3
		c14.9-16.9,31.1-32.5,50-45.1c16.9-11.3,35-20,54.1-26.6c21.4-7.4,43.2-8.1,65.1-4.1c18.2,3.3,34.6,11.3,49.2,22.9
		c9.7,7.7,19,15.8,26.6,25.5c3.4,4.4,6.1,9.3,8.9,14.1c2,3.5,4.2,6.5,7.9,8.3c3.5,1.7,5.6,0.3,5-3.6c-0.8-5.4-1.9-10.8-3.2-16
		c-1.5-6-3.4-11.9-5.2-17.8c0.3-0.2,0.5-0.4,0.8-0.6c7.3,8.8,14.7,17.5,21.8,26.5c3.5,4.4,6.4,9.4,9.8,13.9c0.8,1.1,2.5,1.5,3.7,2.2
		c0.6-1.3,1.8-2.7,1.6-3.9c-1.4-8.8-2.9-17.6-4.9-26.3c-2.3-10.1-5-20.1-10.2-29.2c0.2-0.2,0.4-0.4,0.6-0.6c4.9,3.4,9.5,7.2,14.6,10
		c6.7,3.7,11.6,9.7,18,13.5c1,0.6,2.4,0.6,3.6,0.8c0.2-1.2,0.8-2.5,0.5-3.7c-2.3-10.8-8.3-20-14.1-29c-6.5-10.1-13.9-19.7-21-29.6
		c-0.2-0.2-0.3-0.5-0.7-1.3c4.6,0.8,8.8,1.5,12.9,2.2c13.2,2.2,26.4,4.3,38.8,9.5c8.4,3.6,16.4,7.9,24.5,12.2c1.8,0.9,3,2.8,4.5,4.3
		c0.9,0.9,1.3,2.5,2.3,2.9c4.1,1.8,4,5.6,4.4,9c2.6,20.3,3,40.7,0.8,61.1c0,0.4-0.1,0.7-0.3,1.8c-3.6-6.1-8.5-9.3-14.6-10.9
		c-5.8-1.4-10.1-0.2-14.1,4.7c-7.6,9.3-9.5,20.1-8.7,31.4c0.8,11.2,2.7,22.3,4.5,33.4C471.9,410.3,475,413.5,480.9,416.3z
		 M253.3,412.9c-1.2-5.4-2.2-10.8-3.7-16.2c-3.3-11.8-13-19.9-25.2-21.2c-10.6-1.2-20.6,1.4-29.7,6.4c-9.2,5-18.1,10.3-20.6,22.2
		c-1.7,8.5-4.4,16.8-1.9,25.4c2.7,9.3,6.6,17.8,17.3,20.6c3,0.8,5.9,2.2,8.9,3c15.6,4.5,29.7,1.1,41.4-9.5
		C248.4,435.8,252.5,425.1,253.3,412.9z M382.9,453.2c6.1-0.7,12.1-3.2,17.9-6.6c11.2-6.7,15.8-17.9,11.8-30.2
		c-3.8-11.8-10-22.4-17.7-32.1c-5.8-7.3-13.2-12.6-22-15.8c-3.3-1.2-3.7-0.8-4.5,2.4c-0.8,3-2.1,5.9-3.5,8.6
		c-1.9,3.5-4.6,6.6-6,10.3c-3.3,8.2-6.5,16.4-8.7,24.9c-1.7,6.8-2.2,14.1-2.5,21.2c-0.1,2.6,1.3,6.2,3.3,7.7
		c4.5,3.4,9.6,6.3,14.9,8.4c4,1.5,8.6,1.4,13.1,2c0,0.3,0,0.9-0.1,1.5c-1.6,6.2-3.6,11.9-8.5,16.9c-6.7,6.7-14,10.4-23.4,10.5
		c-3.3,0-6.6-0.1-9.8,0.3c-3.7,0.5-7.5,1.5-10.4,4.2c4.4,0.3,8.6,0.4,12.9,0.3c4.8-0.1,9.6-0.5,14.4-0.7c1.1,0,2.4,0.3,3.5,0.8
		c2.4,1.2,4.6,3.4,7.1,3.8c11.3,1.9,20.2-5.2,22.1-14.9c0.1-0.7,0.6-1.3,0.9-2.1c12.8,4.4,23.8,1.4,33.6-7.3c-1.7-2.6-3.5-2-5.5-0.7
		c-9.4,5.9-19.4,6.5-29.6,2.5c-2.1-0.8-4.5-3.5-4.8-5.5C381,460.3,382.3,456.9,382.9,453.2z M389.4,495.4c-1.8-1.8-3-1.8-4.6-0.4
		c-1.6,1.4-3.5,2.7-5.5,3.7c-9.5,4.6-19.2,6.4-29.1,1c-1.2-0.7-2.5-1.4-3.8-2c-0.2,0.3-0.5,0.5-0.7,0.8c2.3,2.4,4.3,6,7.1,6.9
		c4.6,1.6,9.9,2.1,14.9,2C376.7,507,383.8,502.5,389.4,495.4z"/>
	<path class="st0" d="M228.5,603c16.4,11.2,32.5,15.7,48-1c20.2,25.2,40,50.1,60,74.7c7.3,9,15.6,17.2,22.9,26.1
		c5.7,7,10.6,14.6,15.9,22c1.4,1.9,2.6,4,0,6c-0.3,0.3-0.3,1-0.5,1.5c-2,6.9-3.9,13.9-6,20.8c-4.4,14-13.6,23.5-27.4,28.3
		c-11.3,3.9-22.6,7.8-34.2,10.8c-7,1.9-14.5,2.6-21.7,3c-9,0.4-17.6-2.2-26.2-4.8c-10.7-3.3-20.8-7.9-30.1-14.1
		c-6.6-4.4-9.7-10.9-11.3-18.6c-2.4-11.4-3.9-22.9-3.2-34.5c1.1-16.3,2.5-32.5,4.3-48.7c2.6-22.2,5.7-44.4,8.6-66.7
		C227.9,606.3,228.2,604.8,228.5,603z"/>
	<path class="st0" d="M338.1,66.2c-49.2,9.5-97.7,8.3-147,5.6c0.9-2.9,1.6-5.6,2.7-8.2c2.6-5.9,4.8-12.2,8.3-17.6
		c3.8-5.8,8.6-11.2,13.6-16c10.4-10.2,23.2-16.8,37.1-20.5c5-1.4,10.7-0.9,16-0.6c19.3,1.1,35.4,9.4,48.7,23.1
		c6,6.2,11.2,13.1,14.8,21c0.8,1.7,2.1,3.2,2.8,4.9C336.1,60.3,336.9,62.9,338.1,66.2z"/>
	<path class="st0" d="M149.3,69.8c8.1,2.2,16.6,4.8,25.1,6.8c13.5,3.2,27.1,4.4,41,4.5c19.2,0.1,38.3,0.9,57.5,1.1
		c20,0.2,39.7-2.7,59.1-7.1c7.3-1.6,14.7-3,21.5-5.8c5.4-2.2,10.1-6.3,14.8-10c1.9-1.5,2.3-4.2,1.3-6.7c-1.1-2.8-2.6-3.2-5-1.2
		c-3.8,3.2-7.6,6.3-11.4,9.4c-0.6,0.5-1.4,1-2.1,1.3c-4.6,2.1-4.9,1.6-6.8-3.1c-2.1-5.2-5.2-10-7.9-15c-0.9-1.5-1.9-3-3.1-4.9
		c3.9,0,7.5-0.3,11.1,0c10.6,0.9,20.3,4.4,28.3,11.7c1,0.9,2,2.7,1.8,4c-0.5,3.2-1.3,6.5-2.5,9.6c-3.8,9.3-7.9,18.5-11.9,27.7
		c-1.2,2.8-2.3,5.6-3.6,8.4c-0.2,0.5-1,1-1.6,1.2c-2.7,0.7-5.5,1.3-8.2,2c-15.9,4-32,7-48.5,7.5c-20.3,0.5-40.7,0.9-61,0.6
		c-12.7-0.2-25.4-1.7-38-3c-10.2-1.1-20.4-2.6-30.6-4.1c-1.2-0.2-2.7-1.8-3.3-3c-3.9-7.9-7.5-16-11.4-23.9
		C152.4,74.8,150.6,72,149.3,69.8z"/>
	<path class="st0" d="M328.5,847c1.6-1.2,2.7-2.2,4-2.9c0.8-0.4,2-0.5,2.9-0.5c13.4,1.3,26.7,1.1,39.9-1.6c2.7-0.5,5.4-3.1,8.3-0.7
		c1.2,1,2.9,2.1,3.2,3.4c1.2,5.8,2.2,11.6,2.8,17.4c0.7,7.3,0.7,14.7,1.5,22c0.3,2.9,1.4,6,3.2,8.3c5.7,7.4,11.9,14.5,17.9,21.7
		c3.8,4.5,5.3,9.7,4.1,15.6c-0.6,2.9-2.9,5-5.9,5.3c-7.4,0.9-14.8,2-22.2,2.8c-15.9,1.9-31.7,1.5-47.2-2.8
		c-9.7-2.7-12.9-6.5-12.3-16.6c0.7-11.5,1.8-23.1,3.4-34.5c1.6-11.7,1.2-23-2.7-34.2C329.1,848.8,328.7,847.8,328.5,847z"/>
	<path class="st0" d="M208.9,853.3c6.5-2.1,11.9,1.4,17.8,2.4c11.5,2.1,22.8,1.9,33.9-2c1.5-0.5,3.3-0.5,4.8,0
		c2.1,0.6,2.5,2.2,1.9,4.5c-3,11.6-4.3,23.3-4.2,35.3c0.1,8.2,2.9,15.7,6.4,22.8c3.8,7.8,5.5,15.8,3.8,24.4c-0.7,3.3-2.4,5.1-5.9,6
		c-12.8,3.1-25.8,3.9-38.9,2.7c-9.1-0.8-18.5-1.8-26.8-6.2c-6.2-3.3-10.2-8-10.2-15.7c0-9.1,1.6-17.5,5.9-25.5
		c3.6-6.8,7.2-13.6,10.7-20.4c4.1-7.8,2.6-16,1.6-24.1C209.6,856.2,209.2,854.7,208.9,853.3z"/>
	<path class="st0" d="M241.6,558.7c-1.7,3.1-3.5,6.3-5.1,9.6c-0.3,0.6,0.1,1.6,0.2,2.5c0.9-0.2,2.1-0.2,2.6-0.7
		c5.9-6.9,11.8-13.9,17.7-21c4.5-5.4,6.8-11.8,8.5-18.4c1.1-4,1.8-8.1,2.6-12.2c0-0.1,0-0.2,0.1-0.3c0.9-3.4,3.1-6,4.9-5.2
		c3,1.2,2,4,2,6.3c0,2-0.2,4,0.2,5.9c0.6,2.7,2.2,3,3.8,0.8c2.2-3.2,4.4-6.4,6.1-9.9c3.2-6.2,8.6-8.6,15-9.4c2.1-0.3,4.2-0.1,6.3,0
		c5.1,0.3,9.4,4.1,10.3,9.1c1.6,8.8,0.4,17-4,25c-7.6,14-17.7,26.3-27.2,39c-4.2,5.6-8.4,11.3-13,16.6c-7.5,8.7-18.4,11.3-28.8,6.8
		c-14-6-23.3-16.3-26.6-31.4c-1.1-5.1-0.6-10.3,1.1-15.2c0.4-1.1,1.6-2,2.6-2.8c4.7-3.9,8.9-0.4,13.2,1.2
		C236.8,555.7,239.2,557.4,241.6,558.7z"/>
	<path class="st0" d="M369,563.9c1,37.5,1.9,74.5,2.9,112.3c-26.8-30.8-50.3-63.3-80.4-90.5c1.6-2.4,3.5-5.4,5.6-8.1
		c0.4-0.6,2-0.8,2.8-0.5c3.7,1.2,7.3,2.6,10.9,4.1c2.7,1.1,3.9,0,5-2.4c3.3-7.4,6.8-14.6,10.3-21.9c0.7-1.5,1.8-2.8,3.2-4.9
		c1.5,6.4,2.6,12,4.2,17.4c0.8,2.8,2.3,5.4,3.6,8c1.2,2.3,3,2.9,5.5,1.5c8.2-4.8,16.6-9.5,24.9-14.2
		C367.8,564.5,368.1,564.3,369,563.9z"/>
	<path class="st0" d="M385.3,540.9c11.6,7.6,24.7,8.5,37.3,10.9c13.8,2.7,27.7,5,41.6,7.2c8.1,1.3,16.2,2.1,24.3,3.2
		c0.7,0.1,1.5,1.2,1.8,2c1.2,3.5,2.5,7,6.3,8.6c0.8,0.3,2.1,0.6,2.5,0.2c0.6-0.6,1-1.9,0.8-2.7c-0.5-1.8-1.3-3.5-2.2-5.2
		c-2.3-4.3-2.4-8.4,0.3-12.5c2.7-4.1,6.7-5.1,11.3-4.7c2.2,0.2,3.7,1.1,3.8,3.7c0.5,6.5-2.5,11.8-6.2,16.8c-1.6,2.2-2.5,3.9,0.5,5.6
		c-2.7,4.5-5.3,8.8-7.8,13.2c-1.6,2.8-2.9,5.8-4.5,8.6c-0.4,0.7-1.8,1.6-2.5,1.4c-9.8-2.3-19.6-4.6-29.3-7.3
		c-20-5.7-39.8-11.7-59.7-17.6c-9-2.7-18.1-5.5-27.1-8.3c-1-0.3-2.1-1.2-2.6-2.2c-0.3-0.5,0.3-2,0.9-2.3
		C381.8,555.3,385.1,549.1,385.3,540.9z"/>
	<path class="st0" d="M351.8,112.1c-0.2,5.8-3.4,8.9-8.5,11.1c-15.1,6.3-30.6,10.3-47,11c-9.1,0.4-18.2,2.1-27.3,2.8
		c-18.9,1.5-37.7,1-56.2-3.2c-11.8-2.7-23.4-6.6-35-10c-0.9-0.3-1.9-1-2.4-1.8c-1.8-3.1-3.3-6.3-5.2-10.1c4.3,1,8,2,11.7,2.6
		c9.3,1.4,18.7,3.2,28.1,3.6c25.4,1,50.7,2,76.1,1.8c14-0.1,28.1-2.4,42.1-3.8c5.4-0.6,10.9-1.4,16.3-2.3
		C346.7,113.5,349.1,112.7,351.8,112.1z"/>
	<path class="st0" d="M222.5,779.9c8.1,4.5,15.8,9.1,23.7,13.1c4.4,2.2,9.1,3.8,13.7,5.4c2.1,0.7,3,1.3,2.8,4
		c-1.1,13.6-1.9,27.3-2.6,40.9c-0.1,2.4-0.7,3.6-3.2,4.4c-12.4,4.1-24.7,4.1-37-0.6c-2.1-0.8-2.5-2-2.4-4
		c1.4-18.5,2.6-37.1,3.9-55.7C221.7,784.9,222.2,782.3,222.5,779.9z"/>
	<path class="st0" d="M333.8,837.3c-0.4-14.7-4.2-28.2-10.6-41c14.3-5.5,29.8-8,40.6-19.3c2.9,5.3,6.5,10.4,8.4,16
		c1.9,5.5,2.2,11.7,2.9,17.6c0.7,6.5,0.8,13,1.3,19.5c0.2,2.6-0.5,3.6-3.4,4.2c-11.8,2.6-23.7,3.2-35.8,2.9
		C336.2,837.2,335.2,837.3,333.8,837.3z"/>
	<path class="st0" d="M378.2,717.2c-11.6-18.5-27.3-33.2-40.9-49.7C322,648.8,307,629.8,291.8,611c-3.4-4.2-7.1-8.2-10.9-12.6
		c2.1-2.4,4.7-5.3,7.5-8.5c2.9,3.5,5.7,7,8.7,10.2c5.1,5.6,10.6,10.9,15.5,16.6c15.6,18.1,31.2,36.2,46.5,54.5
		c6.7,8.1,12.8,16.7,19.1,25c0.2,0.3,0.5,0.7,0.7,1.1C384.6,707.1,384.6,707.1,378.2,717.2z"/>
	<path class="st0" d="M382.3,796.8c1.7-11.5,3.6-23.4,5.1-35.2c1.2-8.9,1.9-17.8,2.8-26.7c0.3-2.6-1.1-3.6-3.5-3.6
		c2.5-4.3,4.9-8.6,7.6-13.3c3.1,2.1,6.2,4.3,9.4,6.3c5.2,3.2,5.5,8,5.5,13.4c0,16.3-0.4,32.6-3.8,48.7c-0.8,3.8-1.6,7.6-2.7,11.3
		c-0.2,0.8-1.6,1.7-2.5,1.6c-2.7,0-5.4-0.4-8.1-0.8C389,798,385.7,797.4,382.3,796.8z"/>
	<path class="st0" d="M377.5,525.6c0.2,5.7,0.7,11.9,0.7,18.2c0,1.6-1.1,3.5-2.3,4.6c-10.1,9-21.1,16.6-32.9,23.2
		c-0.3,0.2-0.7,0.2-1.3,0.4c-2.9-10.7-5.7-21.1-8.4-31.2C347.6,535.8,362.4,530.8,377.5,525.6z"/>
	<path class="st0" d="M570.8,455.3c2,6,0.5,11.8-0.4,17.4c-1.7,10.6-4.3,20.9-9.9,30.3c-5.5,9.2-13.8,17.5-23,20.8
		c0.9-13.4,3-26.4,8.5-38.5C551.6,473.3,559.1,462.6,570.8,455.3z"/>
	<path class="st0" d="M547.9,581c-0.6,6.2-2.1,12.9-9.6,16.4c-7.8,3.6-15-0.7-17.4-7.1c-4-10.7-0.5-22.3,12.4-28
		c1-0.5,2.8-0.2,3.9,0.3C543.9,566.4,547.8,572,547.9,581z"/>
	<path class="st0" d="M537.2,532.6c1.5-0.8,2.1-1.3,2.8-1.6c20-9.4,31.6-25.3,35.5-46.7c1.5-8.2,1.8-16.7,2.7-25c0.1-1,0-2,0-3.1
		c5,0.7,8.9,7.4,8.9,12.6c-0.2,17.2-5.6,32.6-15.9,46.2c-4.8,6.3-9.6,12.8-16.8,16.8C549,534.8,543.6,534.3,537.2,532.6z"/>
	<path class="st0" d="M530,525.6c-5.2-6.4-7-14-6.1-22.2c2.4-20.3,11.5-36.9,28-49.1c3.9-2.9,9-4.4,13.6-6.3
		c0.6-0.3,1.6,0.4,2.5,0.6c-0.5,0.6-0.8,1.4-1.4,1.8c-18.1,12.8-28.3,30.7-33.1,51.8C531.7,509.8,531.1,517.7,530,525.6z"/>
	<path class="st0" d="M193.5,48.4c-2,4.1-4.2,7.5-5.4,11.2c-1.1,3.6-1.2,7.5-1.8,11.9c-7.4-1.2-15.6-2.4-23.8-3.9
		c-1.5-0.3-3-1-4.3-1.8c-3.2-2.1-6.6-3.7-10.7-2.8C161.3,53.8,176.3,48.9,193.5,48.4z"/>
	<path class="st0" d="M164.9,728.2c3,0.3,6,0.4,8.9,1c10.9,2.4,21.8,4.5,33.1,3.9c0.8,0,2.2,1,2.2,1.6c0.2,4.9,0.1,9.8,0.1,15.9
		c-15.4-7.2-30.1-14.1-44.7-21C164.6,729.2,164.7,728.7,164.9,728.2z"/>
	<path class="st0" d="M381.3,733.5c1,0,2.3,0,4,0c-2.7,18-5.4,35.8-8.1,54.1c-2.6-6.2-5.1-12-7.8-18.3
		C374.2,758.5,378.5,746.5,381.3,733.5z"/>
	<path class="st0" d="M254.1,540.8c-3.1,4.8-5.9,9.2-8.4,13.2c-3.8-1.4-7.3-2.5-10.7-4c-2.6-1.1-5.2-2.3-7.5-3.8
		c-0.9-0.6-1.7-2.4-1.6-3.6c0.4-4.9,0.5-5,5.5-4.5C238.8,538.9,246.1,539.8,254.1,540.8z"/>
	<path class="st0" d="M310.4,574.9c-3.2-0.8-6.4-1.7-9.9-2.6c2.5-3.2,5-6.2,7.2-9.5c4-6.1,8.2-12.2,11.5-18.7c1.5-3,2.9-4.3,6.5-3.2
		c-0.1,0.9,0,2.1-0.4,3c-4.8,10.2-9.6,20.3-14.4,30.4C310.9,574.5,310.6,574.7,310.4,574.9z"/>
	<path class="st0" d="M496.6,380.7c-5.3-0.9-5.9-5-6.8-8.5c-0.9-3.7,0.3-7.2,3.4-9.6c0.8-0.6,3-0.3,3.8,0.4c2.3,2,3.6,4.4,2.3,7.8
		C498,373.9,497.5,377.2,496.6,380.7z"/>
	<path class="st0" d="M514.7,574.6c-1.3,3.3-2.6,6.6-3.8,10c-0.9,2.3-1.5,4.7-2.3,7.1c-1,3-2,5.9-2.9,8.9c-0.6,1.9-1.9,1.5-3,0.7
		c-0.9-0.7-2.2-2.3-2-2.8c4.1-8.2,8.5-16.3,12.7-24.4C513.8,574.2,514.3,574.4,514.7,574.6z"/>
	<path class="st0" d="M532.2,543.3c-1.5,3.2-3,6.4-4.6,9.5c-1.1,2.1-1.5,4.1,0.6,5.8c-2.5,1.8-4.9,3.5-7.8,5.7
		c3.9-7.5,7.6-14.4,11.3-21.3C531.9,543.1,532.1,543.2,532.2,543.3z"/>
	<path class="st0" d="M387.4,714.1c-0.1,3.9-1.9,7.2-4.3,10.5c-1.9-1.6-2.5-2.9-0.9-4.9c1.5-1.9,2.9-4,4.3-6
		C386.8,713.8,387.1,714,387.4,714.1z"/>
	<path class="st0" d="M518.4,598.9c-1.9-0.3-2.8-0.5-4.1-0.7c0.2-1.3,0.3-2.4,0.5-4.4C516.2,595.8,517.1,597.1,518.4,598.9z"/>
	<path d="M33.4,217.6c0.2-10.2,6.2-18.1,16.5-21.5c3.3-1.1,6.6-2.6,9.9-2.8c15.3-0.8,20,15.1,16,24.4c-1.6,3.7-4.3,6.9-6.4,10.4
		c-2.5,4.2-6.2,7.8-7.1,13.1c-0.4,2.6-3.1,3.6-6,3.3c-11.7-1.2-19.6-8.3-22-20.1C33.8,222.1,33.7,219.8,33.4,217.6z M41.5,219
		c0,9.5,4.7,15.5,13.1,17c2.5,0.4,3.4-0.4,4.4-2.6c2.8-6.1,5.7-12.1,9.2-17.8c3.4-5.6-0.2-14.8-6.6-14.7
		C51.7,201.1,41.4,205.4,41.5,219z"/>
	<path d="M465.6,144.3c6.8-0.1,12.6,2,18.1,5.8c8.4,5.9,8.6,15.7,6,22.9c-2.1,5.8-5.6,10.4-11.5,12.6c-3.7,1.4-4.6,1-5.8-2.8
		c-2.1-6.8-7.2-11.5-11.4-16.8c-2.9-3.6-5.8-7.2-8.5-10.9c-2.6-3.6-1.2-7.5,3.4-8.7C459.1,145.4,462.4,145,465.6,144.3z
		 M478.7,176.8c4.8-5.1,6-15.6,2.1-19.8c-5.1-5.5-15.6-6.9-20.5-3C466.4,161.6,472.5,169.1,478.7,176.8z"/>
	<path d="M253.3,412.9c-0.8,12.1-4.8,22.9-13.5,30.8c-11.7,10.6-25.8,14.1-41.4,9.5c-3-0.9-5.9-2.2-8.9-3
		c-10.6-2.8-14.6-11.3-17.3-20.6c-2.5-8.6,0.2-17,1.9-25.4c2.4-11.9,11.4-17.2,20.6-22.2c9.2-5,19.1-7.6,29.7-6.4
		c12.1,1.4,21.8,9.4,25.2,21.2C251,402.1,252,407.5,253.3,412.9z"/>
	<path d="M230.1,424.6c5.8,0,8.2-2.3,8.2-7.5c0-4.6-2.5-9.3-6.6-9.1c-5.8,0.3-10.4,3.8-10.3,8.5
		C221.5,421.6,224.7,424.6,230.1,424.6z"/>
	<path d="M382.9,453.2c-0.6,3.7-1.9,7.1-1.5,10.3c0.3,2.1,2.7,4.8,4.8,5.5c10.2,3.9,20.2,3.4,29.6-2.5c2-1.3,3.8-1.9,5.5,0.7
		c-9.8,8.7-20.8,11.8-33.6,7.3c-0.4,0.8-0.8,1.4-0.9,2.1c-1.9,9.7-10.8,16.8-22.1,14.9c-2.5-0.4-4.7-2.6-7.1-3.8
		c-1-0.5-2.3-0.8-3.5-0.8c-4.8,0.1-9.6,0.6-14.4,0.7c-4.3,0.1-8.5,0-12.9-0.3c3-2.7,6.7-3.6,10.4-4.2c3.2-0.5,6.5-0.3,9.8-0.3
		c9.3-0.1,16.7-3.8,23.4-10.5c4.9-5,6.9-10.6,8.5-16.9c0.1-0.6,0.1-1.2,0.1-1.5c-4.5-0.6-9.1-0.5-13.1-2c-5.3-2-10.4-5-14.9-8.4
		c-2-1.5-3.4-5.1-3.3-7.7c0.3-7.1,0.8-14.3,2.5-21.2c2.2-8.5,5.5-16.7,8.7-24.9c1.5-3.6,4.2-6.8,6-10.3c1.4-2.7,2.7-5.6,3.5-8.6
		c0.9-3.1,1.3-3.6,4.5-2.4c8.8,3.2,16.3,8.5,22,15.8c7.7,9.7,13.9,20.3,17.7,32.1c4,12.3-0.6,23.5-11.8,30.2
		C395,450,389,452.5,382.9,453.2z"/>
	<path d="M375.2,445.9c7.7,0.2,14.5-2.2,20.9-6.1c3.8-2.3,7.8-4.8,9.1-9.6c1.9-7,1.4-13.7-2.6-20c-2.6-4.2-5.6-8.1-7.9-12.5
		c-4.2-8.1-10.8-14.1-17.3-20.2c-3-2.9-5.2-2.3-7.3,1.2c-0.8,1.3-1.5,2.5-2.2,3.8c-8.4,14.9-13,30.9-14,48
		c-0.5,8.3,3.4,13.3,11.3,14.4C368.5,445.5,371.9,445.6,375.2,445.9z"/>
	<path d="M389.4,495.4c-5.7,7.2-12.8,11.6-21.8,12c-5,0.2-10.2-0.4-14.9-2c-2.8-1-4.8-4.5-7.1-6.9c0.2-0.3,0.5-0.5,0.7-0.8
		c1.2,0.7,2.5,1.4,3.8,2c9.9,5.3,19.6,3.6,29.1-1c2-1,3.8-2.2,5.5-3.7C386.4,493.5,387.7,493.5,389.4,495.4z"/>
	<path class="st0" d="M41.5,219c0-13.6,10.2-17.9,20.1-18.1c6.4-0.1,10,9.1,6.6,14.7c-3.5,5.7-6.4,11.8-9.2,17.8
		c-1,2.2-1.9,3-4.4,2.6C46.1,234.5,41.4,228.6,41.5,219z"/>
	<path class="st0" d="M478.7,176.8c-6.2-7.7-12.3-15.2-18.4-22.7c4.9-3.9,15.4-2.5,20.5,3C484.7,161.2,483.5,171.6,478.7,176.8z"/>
	<path class="st0" d="M230.1,424.6c-5.4,0-8.6-3-8.7-8.1c-0.1-4.7,4.5-8.2,10.3-8.5c4.1-0.2,6.7,4.5,6.6,9.1
		C238.3,422.3,235.9,424.6,230.1,424.6z"/>
	<path class="st0" d="M375.2,445.9c-3.3-0.3-6.7-0.5-10-1c-7.9-1.2-11.8-6.1-11.3-14.4c1-17,5.6-33.1,14-48c0.7-1.3,1.5-2.5,2.2-3.8
		c2.1-3.5,4.3-4,7.3-1.2c6.5,6.1,13.1,12,17.3,20.2c2.2,4.4,5.2,8.3,7.9,12.5c4,6.2,4.5,13,2.6,20c-1.3,4.8-5.3,7.3-9.1,9.6
		C389.8,443.7,382.9,446.1,375.2,445.9z"/>
</g>
</svg>
