<?xml version="1.0" encoding="utf-8"?>
<!-- Generator: Adobe Illustrator 26.0.0, SVG Export Plug-In . SVG Version: 6.00 Build 0)  -->
<svg version="1.1" id="Capa_1" xmlns="http://www.w3.org/2000/svg" xmlns:xlink="http://www.w3.org/1999/xlink" x="0px" y="0px"
	 viewBox="0 0 595.28 957.1" style="enable-background:new 0 0 595.28 957.1;" xml:space="preserve">
<style type="text/css">
	.st0{fill:#FFFFFF;}
</style>
<g>
	<path d="M595.28,474.19c-0.39,0.82-1.11,1.63-1.11,2.45c-0.06,15.39-6.91,28.21-15.51,40.24c-6.74,9.42-15.08,17.22-25.45,22.7
		c-4.2,2.22-8.5,2.85-13.1,1.85c-0.81-0.18-1.65-0.21-2.52-0.32c-1.31,3.95-2.58,7.79-3.95,11.91c1.3,0.46,2.56,0.88,3.81,1.34
		c13.31,4.9,18.47,16.74,17.09,29.45c-0.81,7.43-3.51,14.31-10.16,18.39c-3.16,1.94-7.17,2.73-10.91,3.39
		c-3.49,0.61-7.15,0.62-10.7,0.42c-3.09-0.18-6.18-0.89-9.21-1.63c-1.5-0.36-2.3-0.52-3.28,1.09c-2.22,3.67-4.8,4.26-8.86,2.29
		c-2.49-1.21-4.82-2.72-7.24-4.06c-0.44-0.24-0.92-0.47-1.41-0.53c-21.77-2.81-42.5-9.76-63.45-15.84
		c-13.89-4.04-27.72-8.3-41.51-12.68c-4.05-1.29-7.87-3.33-12.33-5.27c0,3.87-0.16,7.41,0.02,10.93
		c1.63,31.75,3.31,63.52,2.32,95.32c-0.19,6.05,1.36,10.52,4.74,15.25c3.7,5.19,6.48,11.04,9.55,16.66
		c0.63,1.15,0.74,2.57,0.88,3.09c5.32,3.18,10.39,5.87,15.08,9.1c5.48,3.77,7.71,9.14,7.7,15.97c-0.03,17.31-1.15,34.51-3.71,51.61
		c-0.75,5.02-2.29,9.96-3.85,14.81c-1.04,3.22-3.54,4.68-7.15,4.35c-6.03-0.55-12.08-0.81-17.89-1.18c0,4.98-0.02,10.43,0.01,15.88
		c0.01,1.89,0.4,3.81,0.18,5.67c-0.47,4.06-0.17,6.78,4.8,8.42c6.33,2.08,7.39,8.39,7.89,14.3c0.75,8.91,1.23,17.83,1.93,26.74
		c0.27,3.45,0.71,6.91,1.36,10.31c0.24,1.23,1.21,2.38,2.02,3.44c6.18,8.1,12.53,16.09,18.57,24.29c2.85,3.87,4.21,8.37,3.99,13.34
		c-0.35,8.18-5.23,14.08-13.46,14.81c-12.68,1.14-25.39,2.07-38.1,2.55c-8.09,0.31-16.24,0.02-24.3-0.64
		c-8.75-0.73-16.6-4.29-22.46-10.86c-1.82-2.04-1.97-5.85-2.25-8.91c-1.22-12.89,1.35-25.6,2.07-38.4
		c0.54-9.62-0.09-19.31-0.45-28.96c-0.07-1.89-1.12-3.82-2.02-5.57c-3.09-6.06-1.87-9.32,5.34-11.93
		c-1.28-7.97-2.34-16.17-3.98-24.25c-0.97-4.8-2.74-9.45-4.35-14.11c-1.21-3.5-2.2-3.93-5.66-2.9c-11.83,3.5-23.88,5-36.2,3.77
		c-2.09-0.21-4.15-0.77-6.23-0.84c-0.66-0.02-1.37,0.99-2.04,1.55c-0.05,0.04-0.01,0.2-0.01,0.31c-0.94,14.58-1.88,29.15-2.81,43.68
		c7.37,2.13,8.57,4.42,7.34,11.84c-2.32,13.92-4.1,27.95-2.77,42.06c0.41,4.32,2.31,8.73,4.42,12.61c3.95,7.24,6.54,14.7,5.22,22.93
		c-1.68,10.47-5.59,18.63-19.27,19.35c-7.45,0.39-14.89,1.18-22.35,1.31c-10.99,0.19-21.7-1.88-32.28-4.82
		c-5.34-1.49-10.5-3.16-14.56-7.09c-7.75-7.49-9.33-16.68-7.74-26.98c1.8-11.67,7.64-21.54,13.56-31.31
		c6.31-10.41,7.72-21.11,4.18-32.62c-1.5-4.87,1.4-9.35,6.36-8.4c0.8,0.15,1.65,0.02,2.54,0.02c0.74-8.99,1.46-17.77,2.19-26.55
		c0.89-10.59,1.85-21.18,2.66-31.78c0.33-4.29,0.41-8.61,0.46-12.92c0.01-0.96-0.5-1.97-0.93-2.88c-1.76-3.78-3.51-7.56-5.42-11.27
		c-0.58-1.12-1.47-2.47-2.55-2.9c-23.39-9.26-45.39-21.26-67.18-33.69c-3.19-1.82-6.38-3.66-9.55-5.51
		c-1.56-0.91-3.39-1.82-2.3-4.09c1.03-2.12,2.77-2.45,5.05-1.8c13.01,3.71,25.96,7.65,39.1,10.82c11.58,2.79,23.44,3.84,36.22,2.81
		c0-4.26,0.18-8.64-0.03-13.01c-0.74-14.95,2.2-29.54,4.07-44.24c2.86-22.54,5.66-45.08,8.51-67.62c0.33-2.63-0.29-4.68-2.04-6.88
		c-7.94-10.02-11.99-21.49-10.39-34.3c0.85-6.84,4.6-12.24,11.72-15.1c0.28-2.31,0.62-5,0.97-7.89c-6.93-1.34-13.7-2.68-20.48-3.97
		c-19.62-3.72-38.62-9.7-57.74-15.37c-25.62-7.6-46.55-22.28-65.52-40.52c-20.72-19.92-36.58-43.01-46.64-69.94
		c-7.09-19-11.28-38.62-12.27-58.95c-0.72-14.84,1.46-29.35,3.5-43.93c1.67-11.93,5.62-23.01,11.5-33.47
		c0.3-0.54,0.44-1.17,0.66-1.77c-3.12-1.32-6.3-2.39-9.23-3.93C9.38,256.51-1.41,235.8,0.15,217.04
		c1.07-12.93,5.79-24.13,14.7-33.33c8.49-8.78,19.2-13.42,31.45-14.2c14.41-0.92,28.29,1.62,41.67,6.91
		c2.16,0.85,3.69,0.49,5.31-1.21c6.68-7.01,13.32-14.06,20.26-20.82c10.69-10.42,22.82-18.83,36.15-25.59
		c4.39-2.23,8.48-5.05,12.7-7.61c1.34-0.81,1.69-1.67,1.1-3.37c-5.32-15.29-11.86-30.03-19.35-44.38c-1.34-2.56-3.27-5.18-3.43-7.86
		c-0.13-2.22,1.35-5.3,3.13-6.75c9.82-8.01,20.8-13.96,33.54-15.66c4.83-0.65,9.84-0.26,14.73,0.09c1.98,0.14,3.04-0.25,4.19-1.79
		c10.12-13.59,21.98-25.32,37.37-32.8c6.75-3.28,13.85-6.49,21.14-7.86c9.52-1.78,19.28-0.4,28.76,2.07
		c15.77,4.1,28.63,12.9,39.67,24.59c1.57,1.66,3.17,2.25,5.46,2.39c16.77,1.05,32.84,4.8,47.34,13.64
		c5.69,3.47,7.19,8.06,6.04,14.64c-1.82,10.43-6.86,19.56-11.21,28.99c-3.03,6.56-5.69,13.29-8.66,20.27
		c1.91,0.49,3.49,0.92,5.09,1.3c17.55,4.1,33.89,11.1,49.17,20.59c1.42,0.88,2.18,0.91,3.56,0.05c9.21-5.7,19.17-9.69,29.89-11.06
		c18.29-2.32,33.39,3.19,44.82,18.43c10.74,14.32,13,29.87,8.01,46.51c-1.54,5.15-5.24,9.69-8.2,14.36
		c-1.22,1.92-3.09,3.43-4.63,5.09c7.02,14.92,9.15,31.19,13.74,46.74c4.46,15.08,7.32,30.44,8.47,46.13
		c1.18,16.01,0.74,31.98-1.15,47.91c-2.45,20.56-7.54,40.43-15.56,59.55c-8.53,20.35-20.33,38.66-34.25,55.66
		c-17.17,20.96-37.67,38.15-60.43,52.71c-5.39,3.45-11.07,6.44-16.62,9.66c-0.43,0.25-0.82,0.59-0.29,0.92
		c0.38,3.55,0.87,7.1,1.09,10.66c0.12,2.01,0.32,3.29,2.67,4.19c12.34,4.74,25.23,7.18,38.16,9.38c18.03,3.07,36.12,5.79,54.18,8.65
		c3.1,0.49,6.2,0.94,8.36,1.26c2.89-4.01,5.14-7.76,8.01-10.97c3.85-4.31,13.35-5.26,18.27-2.25c3.95,2.42,5,6.26,5.37,10.81
		c3.44-5.49,6.89-10.99,10.23-16.32c-7.28-9.34-12.57-19.22-12.37-31.15c0.23-14.66,4.62-28.03,14.26-39.18
		c5.7-6.59,11.95-12.79,18.55-18.48c7.75-6.68,16.92-8.27,26.09-3.18c4.86,2.7,9.19,6.6,13.2,10.52c3.03,2.97,4.35,7.07,4.29,11.54
		c-0.03,2.03,0.7,4.08,1.08,6.12C595.28,473.77,595.28,473.98,595.28,474.19z M499.4,262.42c-0.5-2.18-0.79-3.82-1.25-5.4
		c-3.97-13.46-8.01-26.9-11.96-40.37c-1.43-4.89-2.72-9.83-3.94-14.78c-0.2-0.81-0.01-1.96,0.44-2.66
		c2.69-4.22,5.27-8.55,8.33-12.49c4.14-5.32,6.54-11.07,6.9-17.87c0.71-13.29-4.32-23.87-14.11-32.6
		c-10.34-9.23-22.28-12.91-35.87-10.41c-9.77,1.8-18.15,6.93-26.45,12.14c-1.48,0.93-3.99,1.42-5.52,0.82
		c-3.13-1.22-5.95-3.26-8.82-5.08c-14.53-9.23-30.15-15.87-46.99-20.11c-1.72,4.14-3.32,8.24-5.17,12.23
		c-0.57,1.23-1.63,2.56-2.8,3.12c-10.95,5.21-22.37,9.03-34.25,11.51c-11.49,2.4-23.11,3.47-34.83,3.49
		c-18.2,0.03-36.42,0.47-54.6-0.2c-16.36-0.61-32.2-4.68-47.48-10.56c-4.05-1.56-7.72-4.11-11.65-6.03c-0.81-0.4-2.2-0.33-3,0.11
		c-3.13,1.72-6.05,3.81-9.18,5.52c-21.11,11.54-39.22,26.73-55.07,44.74c-2.15,2.44-4.35,4.93-6.89,6.92
		c-1.38,1.08-3.77,2-5.31,1.57c-8.68-2.4-17.2-5.37-25.85-7.88c-10.9-3.16-21.74-2.7-31.94,2.35
		c-27.82,13.78-30.61,45.64-15.95,66.06c6.5,9.06,16.02,14.39,26.03,18.85c0.99,0.44,1.71,1.47,2.56,2.23
		c-0.94,0.91-1.87,1.84-2.83,2.74c-0.63,0.59-1.63,1-1.91,1.71c-5.56,14.23-9.61,28.84-11.61,44.03
		c-3.47,26.31-1.17,52.04,7.34,77.19c10.15,30.03,25.45,56.94,48.18,79.32c11.46,11.28,24.27,20.77,38.48,28.39
		c10.81,5.79,22.34,9.64,34.06,12.99c8.29,2.37,16.64,4.52,24.97,6.76c-1.02-1.33-2.22-2.12-3.47-2.82
		c-13.19-7.35-25.58-15.87-36.84-25.91c-15.84-14.13-27.8-31.18-36.69-50.39c-13.05-28.21-12.07-55.91,5.28-81.85
		c14.28-21.35,32.54-39.32,51.82-56.3c25.28-22.26,54.6-36.43,87.14-43.95c17.14-3.96,34.66-4.21,52.07-0.98
		c31.92,5.92,57.37,22.55,77.81,47.34c4.38,5.31,8.75,10.64,13.66,16.6c-0.15-1.36-0.14-1.86-0.27-2.32
		c-3.16-10.86-6.2-21.78-11.6-31.81c-1.04-1.94-0.91-3.75,0.75-4.64c0.96-0.52,3.29,0.01,4.06,0.89c4.9,5.55,11.83,9.16,15.36,16.02
		c0.37,0.71,1.2,1.17,1.76,1.8c4.35,4.83,8.74,9.63,12.99,14.54c1.6,1.85,2.88,3.97,4.31,5.97c-0.75-5.14-1.95-10.01-3.04-14.91
		c-2.53-11.41-7.97-21.61-13.09-31.95c-0.64-1.29-0.29-3.08-0.4-4.63c1.44-0.03,2.99-0.42,4.29-0.03
		c7.46,2.27,13.84,6.51,19.99,11.18c4.97,3.78,9.98,7.51,15.71,11.82c-2.52-4.42-4.48-8.08-6.64-11.62
		c-3.71-6.07-7.27-12.26-11.39-18.04c-6.37-8.93-13.64-17.11-21.9-24.39c-0.73-0.64-1.11-2.38-0.79-3.31
		c0.32-0.92,1.63-1.73,2.68-2.11c0.92-0.33,2.08-0.09,3.12,0.05c11.66,1.55,23.4,2.69,34.97,4.81c13.44,2.46,26.67,6,38.87,12.44
		C487.68,255.3,493.18,258.79,499.4,262.42z M480.87,416.27c-5.84-2.79-8.95-6-9.95-12.04c-1.85-11.08-3.72-22.2-4.52-33.38
		c-0.81-11.29,1.14-22.09,8.73-31.44c3.99-4.91,8.32-6.17,14.09-4.73c6.16,1.54,11.04,4.79,14.64,10.88
		c0.19-1.07,0.27-1.43,0.31-1.8c2.22-20.39,1.77-40.75-0.79-61.08c-0.43-3.44-0.24-7.2-4.39-9c-1.01-0.44-1.47-2.01-2.32-2.93
		c-1.42-1.53-2.7-3.41-4.47-4.34c-8.06-4.24-16.11-8.6-24.48-12.16c-12.35-5.25-25.59-7.31-38.75-9.52
		c-4.17-0.7-8.34-1.41-12.92-2.19c0.42,0.81,0.52,1.1,0.69,1.34c7.02,9.83,14.42,19.42,20.96,29.56
		c5.83,9.05,11.85,18.18,14.13,29.01c0.24,1.14-0.33,2.44-0.53,3.67c-1.21-0.26-2.58-0.24-3.59-0.83
		c-6.49-3.83-11.35-9.8-18.05-13.49c-5.16-2.84-9.78-6.64-14.64-10.01c-0.21,0.19-0.41,0.39-0.62,0.58
		c5.23,9.12,7.84,19.16,10.18,29.22c2.01,8.68,3.44,17.51,4.87,26.31c0.19,1.17-1.05,2.58-1.63,3.87c-1.26-0.72-2.92-1.15-3.72-2.22
		c-3.39-4.55-6.28-9.48-9.8-13.92c-7.1-8.95-14.49-17.66-21.76-26.47c-0.27,0.19-0.55,0.37-0.82,0.56
		c1.75,5.93,3.68,11.81,5.18,17.8c1.33,5.28,2.35,10.66,3.19,16.04c0.6,3.86-1.56,5.26-5.04,3.58c-3.67-1.76-5.95-4.77-7.92-8.26
		c-2.73-4.83-5.46-9.75-8.87-14.1c-7.63-9.75-16.92-17.83-26.63-25.5c-14.62-11.55-30.97-19.58-49.22-22.87
		c-21.92-3.95-43.76-3.21-65.13,4.15c-19.18,6.61-37.29,15.27-54.15,26.58c-18.86,12.65-35.08,28.21-50.01,45.15
		c-8.76,9.94-17.29,20.13-22.95,32.31c-6.52,14.03-9.07,28.7-5.94,43.93c4.97,24.19,17.21,44.7,34.28,62.1
		c18.3,18.66,40.64,31.49,64.79,41.14c16.45,6.57,33.88,8.71,51.33,10.61c1.72,0.19,2.61-0.17,3.12-2.08
		c1.46-5.47,3.26-10.85,4.83-16.29c0.92-3.22,1.95-6.46,5.55-7.43c2.38-0.64,5.11-1.14,7.41-0.57c2.14,0.53,3.91,2.55,5.92,3.97
		c3.53-6.9,10.05-9.32,17.66-10.19c17.41-2,28.45,9.76,25.12,26.92c-0.41,2.1-0.67,4.22-0.96,6.05c5.42-1.45,10.53-2.99,15.72-4.16
		c5.73-1.29,11.72-1.63,17.27-3.42c16.31-5.26,31.21-13.55,45.39-23.03C434.86,479.93,461.02,451.13,480.87,416.27z M228.54,603.05
		c-0.29,1.76-0.58,3.26-0.78,4.77c-2.89,22.21-6,44.4-8.56,66.65c-1.86,16.19-3.28,32.44-4.33,48.7
		c-0.75,11.58,0.79,23.05,3.16,34.45c1.6,7.7,4.7,14.24,11.26,18.6c9.3,6.19,19.39,10.85,30.11,14.11
		c8.55,2.6,17.19,5.24,26.17,4.84c7.29-0.32,14.71-1.1,21.74-2.95c11.54-3.05,22.89-6.92,34.17-10.85
		c13.79-4.8,23.03-14.32,27.42-28.31c2.15-6.88,4.03-13.84,6.04-20.77c0.15-0.5,0.13-1.2,0.47-1.47c2.52-2.07,1.32-4.11-0.05-6.04
		c-5.23-7.37-10.17-14.97-15.87-21.96c-7.32-8.96-15.58-17.15-22.88-26.12c-20.05-24.63-39.81-49.49-60.05-74.72
		C261.06,618.75,244.99,614.3,228.54,603.05z M338.07,66.22c-1.18-3.36-1.93-5.91-2.97-8.34c-0.74-1.72-2.04-3.2-2.8-4.91
		c-3.56-7.98-8.78-14.87-14.78-21.05c-13.3-13.71-29.4-21.95-48.69-23.1c-5.32-0.32-10.96-0.72-15.99,0.63
		c-13.98,3.74-26.71,10.34-37.14,20.54c-5,4.89-9.79,10.23-13.61,16.05c-3.52,5.37-5.72,11.63-8.32,17.57
		c-1.1,2.51-1.74,5.22-2.69,8.15C240.34,74.5,288.82,75.76,338.07,66.22z M149.31,69.79c1.24,2.16,3.06,4.97,4.51,7.95
		c3.85,7.94,7.46,15.99,11.35,23.9c0.63,1.28,2.06,2.84,3.3,3.03c10.17,1.57,20.37,3.09,30.61,4.14
		c12.65,1.29,25.34,2.77,38.04,2.99c20.32,0.35,40.66-0.02,60.98-0.55c16.44-0.43,32.56-3.46,48.49-7.48
		c2.71-0.68,5.46-1.24,8.17-1.96c0.61-0.16,1.36-0.64,1.61-1.17c1.29-2.75,2.42-5.58,3.63-8.37c3.98-9.22,8.07-18.4,11.89-27.68
		c1.25-3.04,2.03-6.33,2.51-9.58c0.18-1.23-0.76-3.05-1.77-3.97c-7.99-7.3-17.67-10.79-28.31-11.72c-3.55-0.31-7.15-0.05-11.07-0.05
		c1.19,1.86,2.23,3.31,3.08,4.86c2.72,4.96,5.77,9.79,7.92,14.99c1.92,4.64,2.18,5.17,6.81,3.07c0.76-0.34,1.5-0.79,2.14-1.32
		c3.83-3.12,7.65-6.26,11.43-9.43c2.39-2,3.85-1.66,5,1.17c1.03,2.56,0.57,5.25-1.3,6.72c-4.68,3.69-9.4,7.76-14.8,9.99
		c-6.82,2.82-14.28,4.17-21.55,5.79c-19.46,4.35-39.13,7.3-59.12,7.08c-19.16-0.21-38.32-1.03-57.48-1.13
		c-13.85-0.08-27.54-1.26-40.99-4.48C165.86,74.57,157.46,72.03,149.31,69.79z M328.48,847.01c0.26,0.77,0.59,1.75,0.94,2.72
		c3.94,11.17,4.34,22.53,2.7,34.22c-1.61,11.44-2.7,22.98-3.4,34.51c-0.62,10.15,2.52,13.92,12.26,16.61
		c15.55,4.3,31.34,4.64,47.25,2.75c7.41-0.88,14.79-1.92,22.19-2.84c2.93-0.37,5.26-2.4,5.85-5.31c1.18-5.86-0.36-11.02-4.11-15.56
		c-5.97-7.22-12.15-14.27-17.87-21.69c-1.74-2.26-2.87-5.42-3.18-8.29c-0.8-7.31-0.77-14.71-1.5-22.03
		c-0.58-5.84-1.61-11.65-2.81-17.4c-0.27-1.3-1.98-2.4-3.2-3.37c-2.93-2.35-5.57,0.16-8.3,0.71c-13.23,2.66-26.54,2.88-39.92,1.6
		c-0.96-0.09-2.1,0.01-2.93,0.45C331.15,844.76,330.06,845.81,328.48,847.01z M208.94,853.33c0.28,1.41,0.64,2.84,0.82,4.28
		c1.02,8.14,2.44,16.32-1.61,24.11c-3.54,6.8-7.07,13.61-10.71,20.37c-4.3,7.97-5.99,16.42-5.95,25.47
		c0.03,7.73,4.06,12.45,10.23,15.71c8.32,4.39,17.64,5.36,26.78,6.17c13.04,1.16,26.05,0.45,38.89-2.69
		c3.56-0.87,5.25-2.7,5.93-5.98c1.78-8.61,0.08-16.63-3.76-24.41c-3.54-7.19-6.34-14.64-6.4-22.85c-0.09-11.95,1.25-23.73,4.2-35.3
		c0.57-2.24,0.2-3.87-1.92-4.48c-1.49-0.43-3.36-0.48-4.81,0.02c-11.15,3.89-22.45,4.09-33.94,2.01
		C220.9,854.7,215.47,851.19,208.94,853.33z M241.6,558.65c-2.42-1.29-4.79-2.91-7.4-3.86c-4.24-1.54-8.44-5.12-13.18-1.19
		c-0.99,0.82-2.26,1.71-2.62,2.82c-1.63,4.95-2.21,10.09-1.06,15.23c3.36,15.11,12.65,25.38,26.64,31.4
		c10.43,4.49,21.35,1.85,28.84-6.84c4.59-5.33,8.8-10.99,13.01-16.64c9.47-12.72,19.5-25.03,27.16-39.04
		c4.34-7.94,5.57-16.18,3.96-24.97c-0.91-4.95-5.23-8.8-10.32-9.08c-2.1-0.11-4.24-0.26-6.32,0.01c-6.43,0.82-11.86,3.23-15.05,9.44
		c-1.76,3.44-3.92,6.71-6.14,9.88c-1.58,2.25-3.16,1.94-3.79-0.77c-0.44-1.89-0.25-3.95-0.23-5.93c0.02-2.35,0.94-5.06-2.01-6.31
		c-1.73-0.73-3.96,1.8-4.86,5.24c-0.03,0.1-0.04,0.21-0.06,0.31c-0.86,4.08-1.53,8.2-2.62,12.21c-1.8,6.61-4.09,13.06-8.55,18.44
		c-5.82,7.04-11.7,14.03-17.65,20.96c-0.49,0.57-1.74,0.49-2.63,0.72c-0.07-0.83-0.48-1.82-0.17-2.45
		C238.13,564.96,239.92,561.78,241.6,558.65z M368.99,563.86c-0.86,0.43-1.23,0.58-1.57,0.78c-8.3,4.71-16.62,9.39-24.87,14.18
		c-2.46,1.42-4.24,0.9-5.47-1.45c-1.35-2.59-2.83-5.19-3.63-7.96c-1.56-5.47-2.69-11.06-4.2-17.43c-1.42,2.14-2.49,3.43-3.2,4.9
		c-3.51,7.27-7.01,14.54-10.32,21.91c-1.1,2.45-2.3,3.52-5,2.41c-3.57-1.47-7.19-2.85-10.86-4.07c-0.82-0.27-2.36-0.08-2.8,0.5
		c-2.1,2.72-3.94,5.64-5.59,8.08c30.04,27.16,53.62,59.68,80.38,90.46C370.91,638.31,369.96,601.34,368.99,563.86z M385.29,540.94
		c-0.17,8.2-3.46,14.37-10.37,18.45c-0.6,0.35-1.19,1.87-0.91,2.33c0.56,0.93,1.6,1.85,2.63,2.18c9,2.85,18.02,5.63,27.07,8.32
		c19.9,5.92,39.78,11.89,59.74,17.59c9.67,2.76,19.5,5,29.29,7.33c0.7,0.17,2.07-0.67,2.49-1.4c1.62-2.8,2.88-5.81,4.47-8.63
		c2.47-4.38,5.11-8.66,7.78-13.17c-2.97-1.76-2.06-3.44-0.47-5.63c3.62-4.95,6.62-10.21,6.16-16.75c-0.18-2.58-1.58-3.44-3.84-3.65
		c-4.59-0.42-8.61,0.58-11.33,4.65c-2.73,4.08-2.6,8.25-0.32,12.51c0.89,1.65,1.7,3.4,2.18,5.2c0.22,0.82-0.19,2.14-0.8,2.74
		c-0.41,0.4-1.76,0.14-2.54-0.18c-3.8-1.58-5.05-5.05-6.3-8.57c-0.28-0.79-1.09-1.88-1.78-1.97c-8.09-1.15-16.23-1.91-24.29-3.2
		c-13.89-2.24-27.77-4.57-41.58-7.25C410,549.39,396.92,548.57,385.29,540.94z M351.79,112.11c-2.64,0.63-5.05,1.37-7.52,1.76
		c-5.4,0.86-10.82,1.7-16.26,2.26c-14.02,1.44-28.05,3.74-42.09,3.83c-25.36,0.16-50.74-0.78-76.09-1.82
		c-9.39-0.39-18.73-2.25-28.07-3.64c-3.74-0.55-7.4-1.62-11.74-2.59c1.95,3.8,3.49,7.01,5.25,10.1c0.46,0.81,1.49,1.56,2.4,1.83
		c11.66,3.42,23.22,7.25,35.04,9.97c18.5,4.25,37.36,4.72,56.24,3.21c9.12-0.73,18.18-2.42,27.31-2.81
		c16.42-0.69,31.91-4.7,46.98-11.01C348.43,121.04,351.57,117.91,351.79,112.11z M222.48,779.87c-0.32,2.44-0.8,5.01-0.99,7.6
		c-1.33,18.55-2.58,37.11-3.94,55.66c-0.15,2.05,0.28,3.18,2.38,3.99c12.28,4.74,24.55,4.76,36.99,0.62c2.47-0.82,3.04-2,3.17-4.42
		c0.71-13.65,1.48-27.3,2.6-40.92c0.22-2.73-0.66-3.28-2.79-4.02c-4.64-1.6-9.36-3.16-13.72-5.39
		C238.28,788.95,230.62,784.42,222.48,779.87z M333.82,837.27c1.38,0,2.42-0.02,3.45,0c12.03,0.3,23.95-0.31,35.77-2.94
		c2.89-0.64,3.59-1.59,3.38-4.24c-0.51-6.49-0.66-13.01-1.34-19.48c-0.62-5.92-0.99-12.04-2.88-17.59
		c-1.92-5.66-5.56-10.75-8.43-16.05c-10.73,11.32-26.23,13.78-40.57,19.31C329.61,809.1,333.38,822.53,333.82,837.27z
		 M378.25,717.16c6.35-10.08,6.35-10.08,0.58-19.77c-0.22-0.36-0.41-0.74-0.66-1.07c-6.35-8.37-12.41-16.99-19.13-25.05
		c-15.3-18.34-30.86-36.46-46.46-54.55c-4.94-5.73-10.4-11.02-15.51-16.62c-3-3.28-5.77-6.77-8.71-10.24
		c-2.84,3.2-5.44,6.14-7.54,8.49c3.84,4.41,7.52,8.39,10.93,12.6c15.23,18.82,30.22,37.84,45.6,56.54
		C350.91,683.97,366.65,698.62,378.25,717.16z M382.34,796.84c3.38,0.57,6.63,1.19,9.91,1.66c2.69,0.39,5.4,0.76,8.11,0.81
		c0.84,0.02,2.25-0.88,2.47-1.63c1.08-3.72,1.9-7.52,2.71-11.32c3.4-16.05,3.83-32.33,3.84-48.67c0-5.37-0.32-10.21-5.48-13.36
		c-3.24-1.98-6.33-4.21-9.44-6.29c-2.7,4.7-5.13,8.92-7.63,13.26c2.37,0,3.74,0.99,3.46,3.62c-0.96,8.89-1.68,17.82-2.84,26.68
		C385.91,773.47,384.03,785.29,382.34,796.84z M377.45,525.62c-15.02,5.15-29.84,10.23-44.25,15.17c2.71,10.06,5.53,20.54,8.4,31.2
		c0.54-0.18,0.94-0.24,1.27-0.43c11.78-6.58,22.84-14.19,32.93-23.15c1.22-1.09,2.34-3.05,2.34-4.61
		C378.15,537.53,377.7,531.27,377.45,525.62z M570.83,455.34c-11.74,7.29-19.21,17.93-24.72,30.01c-5.53,12.12-7.61,25.08-8.5,38.47
		c9.11-3.3,17.48-11.56,22.96-20.79c5.61-9.44,8.25-19.69,9.91-30.3C571.35,467.09,572.84,461.4,570.83,455.34z M547.89,581.05
		c-0.07-9-3.96-14.62-10.73-18.33c-1.06-0.58-2.82-0.81-3.87-0.34c-12.88,5.73-16.37,17.26-12.37,27.99
		c2.39,6.42,9.59,10.7,17.36,7.09C545.78,593.97,547.25,587.23,547.89,581.05z M537.17,532.64c6.4,1.63,11.87,2.16,17.16-0.8
		c7.18-4.02,11.99-10.47,16.82-16.82c10.36-13.65,15.77-29.04,15.93-46.25c0.05-5.12-3.92-11.9-8.88-12.56
		c0,1.06,0.09,2.09-0.01,3.09c-0.83,8.35-1.14,16.8-2.65,25.03c-3.93,21.44-15.55,37.32-35.53,46.71
		C539.29,531.36,538.63,531.81,537.17,532.64z M530.01,525.63c1.12-7.97,1.69-15.86,3.42-23.49c4.8-21.17,15.03-39.06,33.13-51.83
		c0.59-0.42,0.92-1.2,1.37-1.82c-0.82-0.21-1.82-0.82-2.45-0.56c-4.61,1.97-9.67,3.41-13.61,6.34
		c-16.42,12.23-25.61,28.86-27.97,49.15C522.95,511.6,524.76,519.2,530.01,525.63z M193.47,48.39
		c-17.14,0.55-32.21,5.39-46.01,14.56c4.14-0.83,7.48,0.72,10.73,2.85c1.29,0.85,2.81,1.59,4.31,1.85
		c8.19,1.42,16.41,2.67,23.81,3.86c0.62-4.41,0.69-8.32,1.81-11.9C189.29,55.89,191.47,52.48,193.47,48.39z M164.86,728.17
		c-0.14,0.52-0.29,1.04-0.43,1.56c14.65,6.87,29.3,13.74,44.73,20.98c0-6.11,0.08-11.03-0.1-15.94c-0.02-0.6-1.49-1.68-2.25-1.64
		c-11.27,0.61-22.19-1.49-33.1-3.91C170.83,728.57,167.82,728.5,164.86,728.17z M381.33,733.51c-2.78,13.02-7.07,24.99-11.87,35.86
		c2.69,6.32,5.15,12.12,7.77,18.28c2.75-18.31,5.42-36.17,8.12-54.14C383.64,733.51,382.32,733.51,381.33,733.51z M254.07,540.78
		c-7.96-0.95-15.33-1.88-22.71-2.7c-4.97-0.55-5.11-0.48-5.5,4.46c-0.09,1.19,0.66,2.96,1.61,3.6c2.31,1.56,4.9,2.77,7.49,3.85
		c3.4,1.42,6.91,2.57,10.7,3.96C248.17,550.02,250.97,545.63,254.07,540.78z M310.38,574.9c0.26-0.25,0.47-0.36,0.55-0.54
		c4.83-10.13,9.68-20.25,14.44-30.41c0.43-0.92,0.28-2.11,0.38-3.03c-3.61-1.09-4.93,0.25-6.48,3.24
		c-3.36,6.47-7.52,12.55-11.55,18.66c-2.17,3.28-4.76,6.28-7.22,9.48C304.03,573.23,307.15,574.05,310.38,574.9z M496.6,380.71
		c0.9-3.48,1.45-6.82,2.65-9.9c1.32-3.38,0-5.8-2.26-7.8c-0.81-0.72-3.02-0.99-3.78-0.41c-3.09,2.36-4.26,5.87-3.37,9.57
		C490.69,375.7,491.33,379.79,496.6,380.71z M514.69,574.61c-0.43-0.19-0.86-0.38-1.29-0.57c-4.29,8.1-8.63,16.17-12.74,24.36
		c-0.25,0.51,1.09,2.11,1.99,2.82c1.02,0.81,2.35,1.17,2.95-0.7c0.97-2.97,1.96-5.92,2.93-8.89c0.77-2.36,1.48-4.74,2.33-7.07
		C512.08,581.23,513.41,577.93,514.69,574.61z M532.25,543.32c-0.18-0.13-0.37-0.26-0.55-0.4c-3.67,6.94-7.35,13.88-11.29,21.33
		c2.91-2.11,5.29-3.84,7.78-5.65c-2.05-1.68-1.69-3.63-0.57-5.78C529.24,549.7,530.71,546.49,532.25,543.32z M387.37,714.08
		c-0.31-0.12-0.62-0.24-0.93-0.36c-1.41,2.01-2.72,4.12-4.27,6.02c-1.61,1.96-0.96,3.31,0.88,4.86
		C385.49,721.29,387.27,718,387.37,714.08z M518.42,598.91c-1.3-1.85-2.19-3.13-3.56-5.08c-0.25,1.98-0.39,3.13-0.55,4.39
		C515.61,598.44,516.51,598.59,518.42,598.91z"/>
	<path class="st0" d="M499.4,262.42c-6.22-3.63-11.72-7.12-17.46-10.15c-12.2-6.43-25.43-9.98-38.87-12.44
		c-11.56-2.11-23.3-3.26-34.97-4.81c-1.04-0.14-2.21-0.38-3.12-0.05c-1.05,0.38-2.36,1.19-2.68,2.11c-0.32,0.94,0.06,2.67,0.79,3.31
		c8.26,7.28,15.53,15.46,21.9,24.39c4.12,5.78,7.68,11.97,11.39,18.04c2.16,3.54,4.13,7.2,6.64,11.62
		c-5.73-4.31-10.73-8.04-15.71-11.82c-6.14-4.67-12.53-8.91-19.99-11.18c-1.31-0.4-2.86,0-4.29,0.03c0.11,1.56-0.24,3.34,0.4,4.63
		c5.12,10.35,10.56,20.54,13.09,31.95c1.09,4.9,2.29,9.77,3.04,14.91c-1.43-2-2.7-4.12-4.31-5.97c-4.26-4.91-8.65-9.71-12.99-14.54
		c-0.56-0.62-1.39-1.09-1.76-1.8c-3.53-6.86-10.46-10.47-15.36-16.02c-0.78-0.88-3.1-1.41-4.06-0.89c-1.66,0.89-1.79,2.7-0.75,4.64
		c5.41,10.03,8.44,20.95,11.6,31.81c0.13,0.46,0.12,0.96,0.27,2.32c-4.9-5.96-9.27-11.29-13.66-16.6
		c-20.45-24.79-45.89-41.42-77.81-47.34c-17.4-3.23-34.92-2.98-52.07,0.98c-32.54,7.52-61.87,21.68-87.14,43.95
		c-19.27,16.98-37.54,34.95-51.82,56.3c-17.35,25.95-18.33,53.65-5.28,81.85c8.88,19.2,20.85,36.26,36.69,50.39
		c11.26,10.04,23.65,18.56,36.84,25.91c1.25,0.7,2.45,1.49,3.47,2.82c-8.32-2.25-16.68-4.39-24.97-6.76
		c-11.72-3.36-23.25-7.2-34.06-12.99c-14.21-7.61-27.02-17.1-38.48-28.39c-22.74-22.37-38.04-49.29-48.18-79.32
		c-8.5-25.16-10.8-50.88-7.34-77.19c2-15.19,6.05-29.8,11.61-44.03c0.28-0.71,1.28-1.13,1.91-1.71c0.96-0.9,1.89-1.82,2.83-2.74
		c-0.85-0.76-1.57-1.79-2.56-2.23c-10.01-4.46-19.53-9.79-26.03-18.85c-14.65-20.42-11.86-52.28,15.95-66.06
		c10.2-5.05,21.05-5.51,31.94-2.35c8.65,2.51,17.17,5.48,25.85,7.88c1.54,0.43,3.93-0.49,5.31-1.57c2.54-2,4.74-4.48,6.89-6.92
		c15.85-18,33.96-33.2,55.07-44.74c3.13-1.71,6.05-3.8,9.18-5.52c0.8-0.44,2.19-0.5,3-0.11c3.93,1.92,7.59,4.47,11.65,6.03
		c15.28,5.88,31.12,9.95,47.48,10.56c18.18,0.67,36.4,0.23,54.6,0.2c11.72-0.02,23.34-1.08,34.83-3.49
		c11.88-2.49,23.3-6.31,34.25-11.51c1.18-0.56,2.24-1.89,2.8-3.12c1.85-3.99,3.44-8.09,5.17-12.23
		c16.84,4.24,32.46,10.88,46.99,20.11c2.87,1.82,5.7,3.86,8.82,5.08c1.53,0.6,4.04,0.11,5.52-0.82c8.3-5.22,16.68-10.35,26.45-12.14
		c13.58-2.5,25.52,1.18,35.87,10.41c9.79,8.74,14.81,19.32,14.11,32.6c-0.36,6.81-2.76,12.55-6.9,17.87
		c-3.07,3.94-5.65,8.27-8.33,12.49c-0.45,0.71-0.64,1.85-0.44,2.66c1.23,4.95,2.51,9.89,3.94,14.78
		c3.95,13.47,7.98,26.91,11.96,40.37C498.61,258.61,498.9,260.25,499.4,262.42z M33.36,217.57c0.3,2.28,0.48,4.59,0.94,6.83
		c2.42,11.76,10.33,18.88,21.98,20.09c2.94,0.3,5.64-0.73,6.05-3.3c0.86-5.34,4.54-8.87,7.09-13.12c2.1-3.51,4.77-6.75,6.37-10.45
		c4.02-9.28-0.63-25.2-15.97-24.36c-3.34,0.18-6.63,1.76-9.9,2.83C39.55,199.47,33.58,207.34,33.36,217.57z M465.63,144.34
		c-3.26,0.63-6.57,1.08-9.76,1.94c-4.53,1.22-6.02,5.12-3.37,8.74c2.73,3.73,5.66,7.31,8.51,10.95c4.19,5.34,9.26,10.06,11.41,16.82
		c1.19,3.74,2.04,4.14,5.77,2.76c5.96-2.2,9.46-6.79,11.55-12.57c2.59-7.16,2.43-16.98-5.98-22.85
		C478.27,146.31,472.43,144.29,465.63,144.34z"/>
	<path class="st0" d="M480.87,416.27c-19.85,34.86-46.02,63.66-79.24,85.86c-14.17,9.47-29.08,17.76-45.39,23.03
		c-5.54,1.79-11.54,2.14-17.27,3.42c-5.19,1.17-10.3,2.71-15.72,4.16c0.29-1.83,0.55-3.96,0.96-6.05
		c3.33-17.15-7.71-28.92-25.12-26.92c-7.6,0.87-14.13,3.29-17.66,10.19c-2.01-1.42-3.78-3.44-5.92-3.97
		c-2.29-0.57-5.03-0.07-7.41,0.57c-3.6,0.97-4.62,4.21-5.55,7.43c-1.56,5.44-3.37,10.82-4.83,16.29c-0.51,1.91-1.4,2.27-3.12,2.08
		c-17.45-1.9-34.88-4.04-51.33-10.61c-24.15-9.65-46.49-22.48-64.79-41.14c-17.07-17.4-29.31-37.91-34.28-62.1
		c-3.13-15.23-0.58-29.9,5.94-43.93c5.66-12.18,14.19-22.37,22.95-32.31c14.93-16.93,31.15-32.5,50.01-45.15
		c16.86-11.31,34.96-19.97,54.15-26.58c21.38-7.36,43.21-8.1,65.13-4.15c18.24,3.29,34.59,11.33,49.22,22.87
		c9.71,7.67,19,15.75,26.63,25.5c3.41,4.35,6.14,9.26,8.87,14.1c1.97,3.49,4.25,6.5,7.92,8.26c3.48,1.67,5.64,0.27,5.04-3.58
		c-0.84-5.38-1.86-10.76-3.19-16.04c-1.51-5.99-3.44-11.87-5.18-17.8c0.27-0.19,0.55-0.37,0.82-0.56
		c7.27,8.81,14.66,17.53,21.76,26.47c3.52,4.44,6.41,9.37,9.8,13.92c0.8,1.07,2.45,1.5,3.72,2.22c0.58-1.3,1.82-2.7,1.63-3.87
		c-1.44-8.8-2.86-17.63-4.87-26.31c-2.34-10.07-4.95-20.1-10.18-29.22c0.21-0.19,0.41-0.39,0.62-0.58
		c4.86,3.37,9.49,7.18,14.64,10.01c6.7,3.69,11.56,9.66,18.05,13.49c1.01,0.59,2.38,0.57,3.59,0.83c0.19-1.23,0.76-2.53,0.53-3.67
		c-2.28-10.83-8.3-19.96-14.13-29.01c-6.53-10.14-13.94-19.73-20.96-29.56c-0.17-0.24-0.28-0.52-0.69-1.34
		c4.58,0.78,8.75,1.49,12.92,2.19c13.16,2.21,26.4,4.27,38.75,9.52c8.37,3.56,16.41,7.92,24.48,12.16c1.77,0.93,3.05,2.81,4.47,4.34
		c0.85,0.92,1.32,2.49,2.32,2.93c4.15,1.8,3.96,5.56,4.39,9c2.56,20.33,3.01,40.69,0.79,61.08c-0.04,0.37-0.13,0.73-0.31,1.8
		c-3.6-6.09-8.47-9.34-14.64-10.88c-5.77-1.44-10.1-0.18-14.09,4.73c-7.59,9.34-9.54,20.15-8.73,31.44
		c0.8,11.18,2.67,22.31,4.52,33.38C471.93,410.27,475.04,413.48,480.87,416.27z M253.26,412.93c-1.23-5.39-2.25-10.84-3.74-16.16
		c-3.33-11.81-13.02-19.88-25.16-21.23c-10.62-1.18-20.56,1.41-29.74,6.43c-9.2,5.03-18.14,10.32-20.57,22.19
		c-1.74,8.49-4.4,16.82-1.92,25.44c2.68,9.28,6.64,17.76,17.28,20.58c3.03,0.8,5.91,2.16,8.93,3.04
		c15.56,4.55,29.68,1.07,41.39-9.53C248.44,435.81,252.46,425.08,253.26,412.93z M382.87,453.19c6.11-0.68,12.12-3.23,17.87-6.65
		c11.22-6.67,15.78-17.87,11.81-30.19c-3.81-11.82-10.04-22.42-17.72-32.09c-5.78-7.29-13.23-12.58-22.04-15.82
		c-3.28-1.21-3.69-0.78-4.54,2.37c-0.8,2.98-2.07,5.89-3.5,8.63c-1.85,3.52-4.57,6.65-6.03,10.3c-3.26,8.16-6.54,16.4-8.71,24.88
		c-1.74,6.83-2.23,14.07-2.49,21.16c-0.1,2.59,1.31,6.24,3.29,7.72c4.54,3.4,9.65,6.32,14.94,8.36c3.98,1.53,8.6,1.4,13.1,2.04
		c-0.02,0.29,0.03,0.91-0.11,1.49c-1.56,6.25-3.56,11.91-8.48,16.88c-6.67,6.74-14.05,10.37-23.36,10.5
		c-3.26,0.04-6.56-0.13-9.77,0.32c-3.73,0.53-7.46,1.45-10.42,4.17c4.35,0.31,8.62,0.41,12.89,0.28c4.8-0.14,9.6-0.55,14.4-0.71
		c1.15-0.04,2.42,0.27,3.46,0.79c2.43,1.2,4.62,3.41,7.13,3.82c11.34,1.87,20.2-5.17,22.11-14.88c0.13-0.67,0.56-1.28,0.91-2.07
		c12.8,4.44,23.82,1.42,33.64-7.31c-1.68-2.6-3.46-1.96-5.46-0.71c-9.42,5.92-19.44,6.46-29.6,2.54c-2.08-0.8-4.49-3.47-4.78-5.55
		C380.97,460.28,382.26,456.86,382.87,453.19z M389.44,495.35c-1.77-1.81-3.02-1.8-4.64-0.39c-1.65,1.44-3.51,2.73-5.48,3.68
		c-9.53,4.62-19.22,6.35-29.13,1.04c-1.25-0.67-2.5-1.36-3.75-2.04c-0.25,0.27-0.49,0.54-0.74,0.82c2.34,2.39,4.29,5.96,7.12,6.92
		c4.65,1.58,9.9,2.14,14.85,1.95C376.66,506.99,383.77,502.52,389.44,495.35z"/>
	<path class="st0" d="M228.54,603.05c16.45,11.25,32.53,15.71,48.01-1.05c20.24,25.22,40,50.09,60.05,74.72
		c7.3,8.97,15.56,17.16,22.88,26.12c5.7,6.98,10.65,14.59,15.87,21.96c1.37,1.93,2.57,3.97,0.05,6.04
		c-0.33,0.27-0.32,0.97-0.47,1.47c-2,6.92-3.88,13.89-6.04,20.77c-4.38,13.99-13.63,23.51-27.42,28.31
		c-11.29,3.93-22.63,7.8-34.17,10.85c-7.03,1.86-14.45,2.63-21.74,2.95c-8.99,0.4-17.62-2.24-26.17-4.84
		c-10.72-3.26-20.81-7.92-30.11-14.11c-6.56-4.36-9.66-10.9-11.26-18.6c-2.37-11.4-3.9-22.88-3.16-34.45
		c1.05-16.26,2.47-32.52,4.33-48.7c2.56-22.25,5.67-44.44,8.56-66.65C227.95,606.31,228.25,604.81,228.54,603.05z"/>
	<path class="st0" d="M338.07,66.22c-49.25,9.54-97.73,8.29-147,5.55c0.95-2.93,1.59-5.64,2.69-8.15c2.6-5.94,4.8-12.2,8.32-17.57
		c3.82-5.83,8.61-11.16,13.61-16.05c10.43-10.21,23.16-16.8,37.14-20.54c5.03-1.35,10.67-0.94,15.99-0.63
		c19.29,1.14,35.39,9.39,48.69,23.1c6,6.18,11.22,13.07,14.78,21.05c0.76,1.71,2.06,3.19,2.8,4.91
		C336.14,60.3,336.89,62.86,338.07,66.22z"/>
	<path class="st0" d="M149.31,69.79c8.15,2.23,16.55,4.77,25.07,6.81c13.46,3.21,27.14,4.4,40.99,4.48
		c19.16,0.11,38.32,0.93,57.48,1.13c19.99,0.22,39.66-2.73,59.12-7.08c7.27-1.62,14.73-2.98,21.55-5.79
		c5.4-2.23,10.12-6.3,14.8-9.99c1.87-1.47,2.34-4.15,1.3-6.72c-1.14-2.82-2.6-3.17-5-1.17c-3.79,3.17-7.6,6.31-11.43,9.43
		c-0.65,0.53-1.38,0.98-2.14,1.32c-4.63,2.09-4.89,1.57-6.81-3.07c-2.15-5.2-5.2-10.03-7.92-14.99c-0.85-1.55-1.89-3-3.08-4.86
		c3.91,0,7.52-0.26,11.07,0.05c10.64,0.92,20.31,4.41,28.31,11.72c1.01,0.92,1.95,2.74,1.77,3.97c-0.48,3.25-1.26,6.54-2.51,9.58
		c-3.82,9.29-7.91,18.46-11.89,27.68c-1.21,2.79-2.34,5.62-3.63,8.37c-0.25,0.53-1,1.01-1.61,1.17c-2.7,0.72-5.45,1.27-8.17,1.96
		c-15.93,4.02-32.05,7.04-48.49,7.48c-20.32,0.54-40.66,0.91-60.98,0.55c-12.69-0.22-25.38-1.7-38.04-2.99
		c-10.24-1.05-20.43-2.57-30.61-4.14c-1.25-0.19-2.68-1.75-3.3-3.03c-3.88-7.92-7.5-15.97-11.35-23.9
		C152.37,74.76,150.55,71.96,149.31,69.79z"/>
	<path class="st0" d="M328.48,847.01c1.58-1.2,2.68-2.25,3.97-2.93c0.83-0.44,1.96-0.54,2.93-0.45c13.38,1.28,26.69,1.06,39.92-1.6
		c2.73-0.55,5.37-3.06,8.3-0.71c1.22,0.98,2.93,2.08,3.2,3.37c1.2,5.75,2.23,11.56,2.81,17.4c0.72,7.32,0.69,14.72,1.5,22.03
		c0.32,2.87,1.44,6.02,3.18,8.29c5.71,7.42,11.9,14.47,17.87,21.69c3.75,4.54,5.3,9.71,4.11,15.56c-0.59,2.91-2.92,4.95-5.85,5.31
		c-7.4,0.93-14.79,1.96-22.19,2.84c-15.91,1.89-31.7,1.55-47.25-2.75c-9.74-2.69-12.88-6.46-12.26-16.61
		c0.7-11.53,1.79-23.07,3.4-34.51c1.64-11.69,1.24-23.05-2.7-34.22C329.07,848.76,328.74,847.78,328.48,847.01z"/>
	<path class="st0" d="M208.94,853.33c6.52-2.14,11.95,1.37,17.75,2.42c11.5,2.08,22.8,1.88,33.94-2.01c1.45-0.5,3.32-0.45,4.81-0.02
		c2.12,0.61,2.49,2.25,1.92,4.48c-2.95,11.57-4.29,23.35-4.2,35.3c0.06,8.21,2.86,15.66,6.4,22.85c3.84,7.79,5.54,15.81,3.76,24.41
		c-0.68,3.28-2.37,5.11-5.93,5.98c-12.84,3.14-25.84,3.86-38.89,2.69c-9.14-0.82-18.46-1.78-26.78-6.17
		c-6.17-3.26-10.2-7.98-10.23-15.71c-0.04-9.06,1.65-17.5,5.95-25.47c3.64-6.75,7.17-13.56,10.71-20.37
		c4.06-7.79,2.63-15.97,1.61-24.11C209.58,856.16,209.22,854.74,208.94,853.33z"/>
	<path class="st0" d="M241.6,558.65c-1.68,3.13-3.46,6.31-5.07,9.57c-0.31,0.64,0.09,1.63,0.17,2.45c0.9-0.22,2.14-0.15,2.63-0.72
		c5.95-6.93,11.83-13.92,17.65-20.96c4.45-5.39,6.75-11.84,8.55-18.44c1.09-4.01,1.76-8.14,2.62-12.21c0.02-0.1,0.04-0.21,0.06-0.31
		c0.91-3.44,3.14-5.98,4.86-5.24c2.95,1.25,2.03,3.96,2.01,6.31c-0.02,1.98-0.21,4.04,0.23,5.93c0.63,2.71,2.21,3.03,3.79,0.77
		c2.22-3.17,4.38-6.44,6.14-9.88c3.19-6.21,8.61-8.63,15.05-9.44c2.07-0.26,4.21-0.12,6.32-0.01c5.09,0.28,9.41,4.14,10.32,9.08
		c1.61,8.79,0.38,17.02-3.96,24.97c-7.65,14.01-17.68,26.32-27.16,39.04c-4.21,5.64-8.42,11.31-13.01,16.64
		c-7.49,8.69-18.4,11.33-28.84,6.84c-13.99-6.02-23.28-16.29-26.64-31.4c-1.14-5.14-0.57-10.28,1.06-15.23
		c0.37-1.11,1.63-2,2.62-2.82c4.74-3.93,8.95-0.36,13.18,1.19C236.81,555.74,239.17,557.36,241.6,558.65z"/>
	<path class="st0" d="M368.99,563.86c0.97,37.47,1.92,74.45,2.89,112.29c-26.76-30.79-50.34-63.3-80.38-90.46
		c1.65-2.44,3.49-5.36,5.59-8.08c0.44-0.57,1.98-0.77,2.8-0.5c3.66,1.22,7.28,2.6,10.86,4.07c2.69,1.11,3.9,0.04,5-2.41
		c3.3-7.36,6.81-14.64,10.32-21.91c0.71-1.47,1.78-2.75,3.2-4.9c1.51,6.38,2.63,11.97,4.2,17.43c0.79,2.77,2.28,5.37,3.63,7.96
		c1.23,2.35,3.01,2.87,5.47,1.45c8.25-4.79,16.57-9.46,24.87-14.18C367.76,564.45,368.13,564.29,368.99,563.86z"/>
	<path class="st0" d="M385.29,540.94c11.63,7.63,24.71,8.45,37.29,10.89c13.81,2.68,27.69,5.02,41.58,7.25
		c8.06,1.3,16.2,2.06,24.29,3.2c0.69,0.1,1.5,1.18,1.78,1.97c1.24,3.52,2.5,7,6.3,8.57c0.78,0.32,2.13,0.59,2.54,0.18
		c0.61-0.6,1.02-1.92,0.8-2.74c-0.48-1.8-1.29-3.54-2.18-5.2c-2.29-4.26-2.41-8.43,0.32-12.51c2.72-4.07,6.74-5.07,11.33-4.65
		c2.25,0.21,3.66,1.07,3.84,3.65c0.46,6.54-2.54,11.8-6.16,16.75c-1.6,2.18-2.5,3.87,0.47,5.63c-2.68,4.51-5.31,8.79-7.78,13.17
		c-1.59,2.82-2.85,5.83-4.47,8.63c-0.42,0.73-1.79,1.57-2.49,1.4c-9.79-2.33-19.61-4.56-29.29-7.33
		c-19.96-5.7-39.84-11.68-59.74-17.59c-9.05-2.69-18.07-5.47-27.07-8.32c-1.03-0.33-2.07-1.25-2.63-2.18
		c-0.27-0.46,0.31-1.97,0.91-2.33C381.83,555.31,385.12,549.14,385.29,540.94z"/>
	<path class="st0" d="M351.79,112.11c-0.22,5.8-3.36,8.93-8.52,11.09c-15.07,6.31-30.56,10.31-46.98,11.01
		c-9.13,0.38-18.19,2.08-27.31,2.81c-18.88,1.51-37.74,1.03-56.24-3.21c-11.82-2.71-23.39-6.55-35.04-9.97
		c-0.92-0.27-1.94-1.01-2.4-1.83c-1.76-3.09-3.3-6.3-5.25-10.1c4.34,0.98,8,2.04,11.74,2.59c9.34,1.38,18.68,3.25,28.07,3.64
		c25.35,1.04,50.73,1.98,76.09,1.82c14.04-0.09,28.07-2.39,42.09-3.83c5.44-0.56,10.85-1.4,16.26-2.26
		C346.74,113.48,349.15,112.74,351.79,112.11z"/>
	<path class="st0" d="M222.48,779.87c8.14,4.54,15.8,9.07,23.71,13.12c4.35,2.23,9.07,3.78,13.72,5.39
		c2.13,0.74,3.02,1.28,2.79,4.02c-1.12,13.62-1.89,27.27-2.6,40.92c-0.13,2.42-0.7,3.6-3.17,4.42c-12.44,4.14-24.71,4.12-36.99-0.62
		c-2.11-0.81-2.53-1.95-2.38-3.99c1.35-18.55,2.6-37.11,3.94-55.66C221.68,784.88,222.16,782.31,222.48,779.87z"/>
	<path class="st0" d="M333.82,837.27c-0.44-14.74-4.21-28.17-10.61-40.99c14.34-5.53,29.83-7.99,40.57-19.31
		c2.87,5.3,6.51,10.39,8.43,16.05c1.89,5.55,2.25,11.68,2.88,17.59c0.68,6.47,0.82,12.99,1.34,19.48c0.21,2.64-0.49,3.6-3.38,4.24
		c-11.82,2.63-23.74,3.24-35.77,2.94C336.24,837.25,335.2,837.27,333.82,837.27z"/>
	<path class="st0" d="M378.25,717.16c-11.59-18.54-27.34-33.19-40.89-49.66c-15.39-18.69-30.38-37.71-45.6-56.54
		c-3.41-4.21-7.1-8.2-10.93-12.6c2.09-2.36,4.7-5.3,7.54-8.49c2.94,3.47,5.71,6.96,8.71,10.24c5.11,5.6,10.56,10.89,15.51,16.62
		c15.6,18.09,31.16,36.21,46.46,54.55c6.72,8.06,12.78,16.68,19.13,25.05c0.25,0.33,0.45,0.71,0.66,1.07
		C384.6,707.08,384.6,707.08,378.25,717.16z"/>
	<path class="st0" d="M382.34,796.84c1.69-11.55,3.56-23.37,5.11-35.23c1.16-8.87,1.88-17.79,2.84-26.68
		c0.28-2.63-1.09-3.62-3.46-3.62c2.5-4.34,4.92-8.56,7.63-13.26c3.11,2.09,6.2,4.31,9.44,6.29c5.16,3.15,5.48,7.99,5.48,13.36
		c-0.01,16.34-0.43,32.62-3.84,48.67c-0.8,3.8-1.63,7.59-2.71,11.32c-0.22,0.75-1.63,1.65-2.47,1.63c-2.71-0.05-5.42-0.42-8.11-0.81
		C388.98,798.03,385.72,797.41,382.34,796.84z"/>
	<path class="st0" d="M377.45,525.62c0.25,5.66,0.7,11.91,0.69,18.17c0,1.56-1.12,3.53-2.34,4.61
		c-10.09,8.96-21.15,16.57-32.93,23.15c-0.33,0.19-0.73,0.25-1.27,0.43c-2.87-10.66-5.69-21.14-8.4-31.2
		C347.62,535.84,362.43,530.77,377.45,525.62z"/>
	<path class="st0" d="M570.83,455.34c2.01,6.05,0.52,11.75-0.36,17.39c-1.65,10.61-4.3,20.85-9.91,30.3
		c-5.48,9.23-13.84,17.48-22.96,20.79c0.89-13.39,2.97-26.35,8.5-38.47C551.62,473.27,559.09,462.64,570.83,455.34z"/>
	<path class="st0" d="M547.89,581.05c-0.64,6.18-2.11,12.93-9.61,16.41c-7.77,3.61-14.97-0.67-17.36-7.09
		c-4-10.74-0.51-22.27,12.37-27.99c1.05-0.47,2.81-0.24,3.87,0.34C543.93,566.43,547.82,572.04,547.89,581.05z"/>
	<path class="st0" d="M537.17,532.64c1.46-0.84,2.12-1.28,2.83-1.62c19.98-9.39,31.6-25.27,35.53-46.71
		c1.51-8.23,1.82-16.68,2.65-25.03c0.1-1.01,0.01-2.03,0.01-3.09c4.97,0.67,8.93,7.44,8.88,12.56c-0.16,17.21-5.57,32.6-15.93,46.25
		c-4.82,6.35-9.64,12.8-16.82,16.82C549.04,534.8,543.57,534.27,537.17,532.64z"/>
	<path class="st0" d="M530.01,525.63c-5.25-6.43-7.05-14.03-6.1-22.21c2.36-20.29,11.55-36.92,27.97-49.15
		c3.93-2.93,9-4.37,13.61-6.34c0.62-0.27,1.62,0.35,2.45,0.56c-0.45,0.61-0.78,1.4-1.37,1.82c-18.1,12.78-28.34,30.66-33.13,51.83
		C531.7,509.77,531.13,517.66,530.01,525.63z"/>
	<path class="st0" d="M193.47,48.39c-2,4.09-4.18,7.49-5.35,11.21c-1.12,3.58-1.19,7.49-1.81,11.9c-7.39-1.18-15.61-2.44-23.81-3.86
		c-1.5-0.26-3.02-1-4.31-1.85c-3.25-2.14-6.6-3.68-10.73-2.85C161.26,53.78,176.33,48.95,193.47,48.39z"/>
	<path class="st0" d="M164.86,728.17c2.96,0.33,5.97,0.4,8.85,1.05c10.91,2.43,21.83,4.52,33.1,3.91c0.75-0.04,2.22,1.04,2.25,1.64
		c0.18,4.91,0.1,9.83,0.1,15.94c-15.43-7.24-30.08-14.11-44.73-20.98C164.57,729.21,164.72,728.69,164.86,728.17z"/>
	<path class="st0" d="M381.33,733.51c1,0,2.32,0,4.02,0c-2.7,17.97-5.37,35.83-8.12,54.14c-2.62-6.16-5.08-11.96-7.77-18.28
		C374.25,758.5,378.54,746.53,381.33,733.51z"/>
	<path class="st0" d="M254.07,540.78c-3.1,4.85-5.9,9.24-8.41,13.17c-3.79-1.39-7.3-2.54-10.7-3.96c-2.59-1.08-5.18-2.28-7.49-3.85
		c-0.95-0.64-1.71-2.42-1.61-3.6c0.39-4.94,0.54-5.01,5.5-4.46C238.75,538.9,246.12,539.83,254.07,540.78z"/>
	<path class="st0" d="M310.38,574.9c-3.24-0.85-6.35-1.67-9.89-2.61c2.46-3.2,5.05-6.2,7.22-9.48c4.04-6.1,8.19-12.18,11.55-18.66
		c1.55-2.99,2.88-4.33,6.48-3.24c-0.1,0.92,0.05,2.11-0.38,3.03c-4.76,10.16-9.6,20.28-14.44,30.41
		C310.85,574.54,310.64,574.66,310.38,574.9z"/>
	<path class="st0" d="M496.6,380.71c-5.27-0.93-5.92-5.01-6.77-8.55c-0.89-3.7,0.29-7.21,3.37-9.57c0.76-0.58,2.98-0.31,3.78,0.41
		c2.26,2,3.58,4.42,2.26,7.8C498.05,373.9,497.5,377.23,496.6,380.71z"/>
	<path class="st0" d="M514.69,574.61c-1.28,3.32-2.61,6.61-3.83,9.95c-0.85,2.33-1.55,4.71-2.33,7.07
		c-0.97,2.96-1.96,5.92-2.93,8.89c-0.61,1.87-1.94,1.51-2.95,0.7c-0.9-0.72-2.25-2.32-1.99-2.82c4.11-8.19,8.45-16.26,12.74-24.36
		C513.83,574.23,514.26,574.42,514.69,574.61z"/>
	<path class="st0" d="M532.25,543.32c-1.54,3.17-3,6.38-4.63,9.51c-1.12,2.14-1.47,4.09,0.57,5.78c-2.48,1.8-4.87,3.54-7.78,5.65
		c3.94-7.45,7.62-14.39,11.29-21.33C531.88,543.06,532.06,543.19,532.25,543.32z"/>
	<path class="st0" d="M387.37,714.08c-0.1,3.92-1.88,7.21-4.32,10.52c-1.85-1.56-2.49-2.9-0.88-4.86c1.55-1.9,2.86-4,4.27-6.02
		C386.75,713.84,387.06,713.96,387.37,714.08z"/>
	<path class="st0" d="M518.42,598.91c-1.9-0.32-2.81-0.47-4.1-0.69c0.16-1.26,0.3-2.41,0.55-4.39
		C516.23,595.78,517.12,597.06,518.42,598.91z"/>
	<path d="M33.36,217.57c0.22-10.23,6.18-18.1,16.55-21.48c3.27-1.07,6.56-2.64,9.9-2.83c15.34-0.84,19.99,15.08,15.97,24.36
		c-1.61,3.71-4.28,6.95-6.37,10.45c-2.54,4.25-6.23,7.78-7.09,13.12c-0.41,2.56-3.11,3.6-6.05,3.3
		c-11.65-1.21-19.56-8.33-21.98-20.09C33.84,222.15,33.67,219.85,33.36,217.57z M41.46,219.02c-0.03,9.54,4.67,15.51,13.08,17.01
		c2.5,0.45,3.4-0.35,4.43-2.55c2.83-6.06,5.73-12.12,9.2-17.82c3.39-5.57-0.17-14.78-6.57-14.71
		C51.65,201.07,41.42,205.44,41.46,219.02z"/>
	<path d="M465.63,144.34c6.8-0.06,12.64,1.97,18.13,5.8c8.4,5.86,8.57,15.69,5.98,22.85c-2.09,5.78-5.59,10.38-11.55,12.57
		c-3.73,1.37-4.58,0.98-5.77-2.76c-2.15-6.75-7.22-11.47-11.41-16.82c-2.85-3.64-5.79-7.22-8.51-10.95
		c-2.64-3.62-1.16-7.53,3.37-8.74C459.06,145.43,462.37,144.98,465.63,144.34z M478.72,176.79c4.76-5.15,5.96-15.55,2.09-19.75
		c-5.09-5.52-15.61-6.89-20.5-2.99C466.41,161.58,472.51,169.12,478.72,176.79z"/>
	<path d="M253.26,412.93c-0.8,12.15-4.82,22.88-13.53,30.75c-11.71,10.6-25.83,14.08-41.39,9.53c-3.01-0.88-5.9-2.24-8.93-3.04
		c-10.64-2.81-14.6-11.29-17.28-20.58c-2.48-8.62,0.18-16.95,1.92-25.44c2.44-11.87,11.37-17.16,20.57-22.19
		c9.17-5.01,19.11-7.61,29.74-6.43c12.13,1.35,21.83,9.42,25.16,21.23C251.02,402.09,252.03,407.54,253.26,412.93z M230.09,424.63
		c5.76-0.02,8.19-2.31,8.23-7.54c0.04-4.56-2.54-9.26-6.64-9.07c-5.8,0.27-10.4,3.8-10.3,8.51
		C221.48,421.64,224.72,424.65,230.09,424.63z"/>
	<path d="M382.87,453.19c-0.61,3.67-1.9,7.09-1.46,10.27c0.28,2.08,2.7,4.75,4.78,5.55c10.16,3.93,20.18,3.38,29.6-2.54
		c2-1.26,3.77-1.89,5.46,0.71c-9.82,8.73-20.84,11.75-33.64,7.31c-0.36,0.79-0.78,1.4-0.91,2.07c-1.91,9.71-10.76,16.76-22.11,14.88
		c-2.51-0.42-4.7-2.62-7.13-3.82c-1.04-0.51-2.31-0.82-3.46-0.79c-4.8,0.15-9.6,0.57-14.4,0.71c-4.27,0.13-8.54,0.03-12.89-0.28
		c2.96-2.73,6.69-3.64,10.42-4.17c3.21-0.45,6.51-0.28,9.77-0.32c9.32-0.12,16.69-3.76,23.36-10.5c4.92-4.96,6.93-10.62,8.48-16.88
		c0.14-0.58,0.09-1.2,0.11-1.49c-4.5-0.63-9.12-0.5-13.1-2.04c-5.29-2.04-10.39-4.96-14.94-8.36c-1.98-1.48-3.39-5.12-3.29-7.72
		c0.27-7.09,0.75-14.32,2.49-21.16c2.16-8.49,5.45-16.72,8.71-24.88c1.46-3.65,4.18-6.78,6.03-10.3c1.44-2.74,2.7-5.65,3.5-8.63
		c0.85-3.15,1.26-3.58,4.54-2.37c8.81,3.24,16.26,8.53,22.04,15.82c7.68,9.67,13.91,20.27,17.72,32.09
		c3.97,12.33-0.59,23.53-11.81,30.19C394.99,449.96,388.98,452.51,382.87,453.19z M375.22,445.93c7.66,0.22,14.55-2.23,20.92-6.1
		c3.83-2.33,7.82-4.84,9.12-9.59c1.91-6.98,1.38-13.72-2.59-19.97c-2.64-4.16-5.61-8.14-7.86-12.5
		c-4.19-8.14-10.82-14.08-17.29-20.17c-3.03-2.85-5.2-2.33-7.34,1.19c-0.76,1.26-1.51,2.52-2.23,3.81
		c-8.38,14.9-12.98,30.92-14.02,47.96c-0.5,8.3,3.38,13.26,11.27,14.42C368.53,445.45,371.89,445.61,375.22,445.93z"/>
	<path d="M389.44,495.35c-5.67,7.16-12.78,11.63-21.76,11.98c-4.95,0.19-10.2-0.37-14.85-1.95c-2.83-0.96-4.78-4.53-7.12-6.92
		c0.25-0.27,0.49-0.54,0.74-0.82c1.25,0.68,2.5,1.37,3.75,2.04c9.91,5.31,19.6,3.58,29.13-1.04c1.97-0.95,3.83-2.24,5.48-3.68
		C386.42,493.55,387.67,493.54,389.44,495.35z"/>
	<path class="st0" d="M41.46,219.02c-0.04-13.58,10.19-17.95,20.13-18.06c6.4-0.07,9.96,9.13,6.57,14.71
		c-3.47,5.7-6.37,11.77-9.2,17.82c-1.03,2.2-1.93,2.99-4.43,2.55C46.13,234.53,41.43,228.56,41.46,219.02z"/>
	<path class="st0" d="M478.72,176.79c-6.21-7.67-12.31-15.21-18.41-22.74c4.89-3.9,15.41-2.53,20.5,2.99
		C484.68,161.24,483.48,171.64,478.72,176.79z"/>
	<path class="st0" d="M230.09,424.63c-5.37,0.02-8.61-2.99-8.71-8.1c-0.09-4.72,4.51-8.24,10.3-8.51c4.1-0.19,6.68,4.52,6.64,9.07
		C238.28,422.32,235.85,424.61,230.09,424.63z"/>
	<path class="st0" d="M375.22,445.93c-3.34-0.31-6.7-0.47-10.01-0.96c-7.89-1.16-11.78-6.12-11.27-14.42
		c1.03-17.04,5.63-33.06,14.02-47.96c0.72-1.28,1.46-2.55,2.23-3.81c2.14-3.52,4.32-4.04,7.34-1.19
		c6.47,6.09,13.1,12.03,17.29,20.17c2.24,4.36,5.22,8.34,7.86,12.5c3.97,6.25,4.49,12.99,2.59,19.97c-1.3,4.75-5.29,7.27-9.12,9.59
		C389.78,443.69,382.88,446.15,375.22,445.93z"/>
</g>
</svg>
