<?xml version="1.0" encoding="utf-8"?>
<!-- Generator: Adobe Illustrator 26.0.0, SVG Export Plug-In . SVG Version: 6.00 Build 0)  -->
<svg version="1.1" id="Capa_1" xmlns="http://www.w3.org/2000/svg" xmlns:xlink="http://www.w3.org/1999/xlink" x="0px" y="0px"
	 viewBox="0 0 595.3 912.7" style="enable-background:new 0 0 595.3 912.7;" xml:space="preserve">
<style type="text/css">
	.st0{fill:#FFFFFF;}
</style>
<g>
	<path d="M134.9,586.2c-0.9-6.1,1.7-10.9,4.6-16.1c-29.9-13.3-56.4-33.9-71.5-63.5C49.8,473.3,35.5,437,34.2,398.7
		C29.4,323.2,75.7,246.9,143.9,215c-29.2-82.9-55.6-94.4-114.7-152.5C12.8,47,12.3,17.3,33.8,6.2c26.3-16,58.5,1.1,78.5,19.8
		c30.6,26.7,42.5,66.5,57.6,102.9c8.5,23.1,14.2,48.3,15.4,72.5c33.6-6.4,68.3-1.8,102.2-0.2c24.8,2.4,48,12.8,72.8,16.3
		c0.9,0.2,2.5-0.6,2.8-1.4c38.9-56.2,105.4-115.3,175-125.3c36-4.9,69.3,30.2,52.5,63.1c-7.2,14.6-18.5,24.6-33.9,29.8
		c-52.3,19.5-111.6,28.6-154.1,67.2c42.8,47.3,76.6,92.7,74.6,160.1c-2.8,85.1-73.1,169.5-160.3,175.7c3.4,6.5,0.5,12.7-1.2,18.6
		c43.7,18.7,83.1,83.1,75,130.1c-7.9,19.9-26.8,9-32.9-7c-3.4,2.3-7.5,2-11.6,1.1c-12.8-2.7-4.8-17.8-4.6-26.5
		c2.2-21.7-12-41.9-29-54.2c-0.3,11.7-0.6,22.7-1,33.7c5.7,0.1,5.8,0.1,7,5.8c3.2,12.7-1.7,25.3-13.4,31.7c1.6,5.1-2.3,8.3-4.9,11.8
		c-1.4,1.9-1.8,3.5-1.6,5.8c2,21.3,3.5,42.7,5.9,64c0.1,0.7,1,1.8,1.7,2c7.2,1.9,9.6,7.9,9.8,13.5c0.6,13.9,1.6,27.7,2.1,41.6
		c0.5,11.5,12.9,18.1,11,30.4c-3.2,29.2-63,29.6-79.7,12.5c-13.6-11.2-8.7-29.1-9.1-44.5c0.9-10.6-7.1-50,4.4-53.5
		c1.1-14.7,0.7-29.5,1-44.1c0-2.4-1.2-3.3-3.7-3.1c-7.4,0.5-14.9,1.1-22.3,1.2c-6.8,1.1-14.9-3-20.8,0.8
		c-10.3,11.8-11.6,27.6-15.5,42.1c7.8,1.6,4.9,52.9,6.7,63.3c-1.3,9.8,4,28.9-8.6,32c-17.3,4.2-35,5.2-52.7,6.2
		c-11.1,0.4-23.5,1.9-32.1-6.7c-5.9-10.5,1.5-23.6,9.5-31.2c3.6-4.3,10.7-7.2,10.6-13.5c0.4-14.8,0.8-29.6,1.2-44.4
		c-0.6-5.8,1-9.3,7.1-10.3c2.1-18.1,7.6-35.1,13.8-52.1c1-4.2,3.6-8.6,3.1-13c-1.6-3.2-1.9-8-5.1-9.9c-12.7-1.2-20.3-15.9-12.5-27.3
		c1.9-2.7,2.4-5.3,2.6-8.5c1.5-20.4,2.9-39.3,5.1-59.8c-38.4,8.3-76.3,8-110.2-14.3c-9.5-5.2-20.2-1.1-22-16.4
		c-1.6-16.9,6.1-25.6,21.2-31c-4.7-6.9-9.1-7.1-7.6-17.2c1.2-5.6,1.7-13.1,8.3-14.8c17.8-5,14.7,1.5,8,14.2c4.5,0,7.8,0,11.8,0
		c2.6-10.3-0.3-25.6,13.2-11.4c10.3,7.5,3.9,21.4-4.1,27.8c-1.1,1.7-0.7,3.1,1,4C77.2,581.7,104.9,593.4,134.9,586.2z"/>
	<path class="st0" d="M49.6,341.9c21-22.9,47.6-41.2,77.9-49.6c27.7-10.1,59.3-12.8,82,9.5c40.1,39,89.3,84.4,144.1,40
		c6.8-5.7,13.3-11.6,20-17.4c3-1.3,6.3,1.2,9.3,1.4c11.8,2.6,18.3,14.8,26.6,22.7c28.1,33.5,41.9,78.6,40.4,122.2
		c2.9,17.8-34.7,59-48,70.9c-50.4,45.5-134.5,39.8-198.3,35.7C85.9,570.1,23.5,448.9,48.4,341.5C48.8,341.7,49.2,341.8,49.6,341.9z
		 M371.2,447.8c2.1-48.1-57.3-52.2-58.9-4.8c-3.9,16.7,32.5,27.9,45.7,27.5C368.1,470.8,370.8,453.3,371.2,447.8z M236.6,496
		c15.1,2.9,36.2,0.4,40.6-16.9c2.4-8.7,1.5-16.8-5.4-23.4c-8.3-7.9-18.8-11.7-29.5-14.9c-6.6-2-13.9-0.9-19.9-6.5
		c-5.7-5.8-27.6-6.8-30.1,2.7c-9.7-1.1-19.6-2.6-29.1-1c-17.2,3.3-26.6,20.3-20.2,36.5c8.8,8.9,18.8,15.7,31.7,16.9
		c2.4,0.2,3.7,0.9,4.8,3.1c12.7,13.6,33.5,14.6,50.4,9C233.4,501,236.1,500.1,236.6,496z M89.1,440.3c0-0.1,0-0.2,0-0.3
		c39.7,6.6,46.4-44.7,9.9-52.3C73.6,381.2,54.7,445.5,89.1,440.3z M241,504.2c-0.1-0.3-0.2-0.6-0.2-0.8c-25.2,11-49.5,11.5-70.8-8.1
		c-0.2,0.3-0.4,0.5-0.6,0.8C184.7,519.6,221,525.2,241,504.2z"/>
	<path class="st0" d="M40.3,611.3c11.2-3.8,5.8-16.5,12.3-19.3c3.3-1.3,11-2.5,8.6-7.6c-3.1-3.8-8.4,5.5-13.8,0.8
		c-3.3-2.5-3.4-6.5-2.8-10.3c0.7-4.1,2.1-4.8,5.8-2.9c26.7,15.5,56.3,28.3,87.7,20c8.9-1.4,25,13.1,34.7,16.7
		c7.9,4.2,16.4,6.3,25.2,7.8c5.2,1,13-16.2,17.3-20.3c0.4,0,0.8,0,1.2,0.1c5.3,7.6,7.4,30.8,20.5,25.4c22.8-6.8,47-7.3,70.3-11.9
		c3.2-0.5,5.4,0.2,8.1,1.8c37.7,20.1,60.9,60.3,69.3,101.4c1,7.3,2.9,30.4-9.7,25.3c-6.2-2.7-13.8-7.5-11.5-15.6
		c0.6-3,2-12.7-3.7-9.5c-1.3,1.3-2.1,3.3-2.5,5.2c-1.1,6.7-15.2,5.3-12.5-1.9c7-23,0-42.8-14.4-60.6c-3.9-4.6-18.2-19.2-24.1-16.3
		c-1.6,1.3-0.6,2.5-0.5,4c0,14.5-0.2,28.8-0.1,43.6c-23.8,5.4-48.5,7.7-72.9,8.6c-9.6-0.6-10.6-10.3-26.9-7.9
		c-6.1,0.7-11.6,2.8-16.4,6.8c-18.3,3.8-37.8-2.4-55.9-6.8c-1-23,6.1-45.6,5.7-68.4c-0.1-5.1-23.8-0.6-27.8,0.3
		C87.5,625.2,62.4,622.2,40.3,611.3z"/>
	<path class="st0" d="M334.6,244.7c-22,7.3-45,11.1-68,6c-15.9-3-32.1-0.8-48.2-0.7c-0.7,0-1.4,0.4-2.1,1.2
		c22.7,3.4,45.6,5.2,68.3,8.9c24.2,2.8,46.4-4.5,68.1-14.8c-4.6,8.6-11.6,15.5-20.8,19c-4.5,1.1-2.8,7.1,1.4,7
		c15.7,1.1,29.5-3.4,42.4-12.1c-6,22.9-21.9,38.7-44.8,44.2c-1.7,0.4-2.4,1.2-2,2.6c0.3,0.9,1.3,2.2,2.1,2.2c15,0.2,30,0.9,44.9,0
		c0.2,0.3,0.4,0.6,0.6,1c-17,16.4-36.8,37-61.3,40c-28.6,2.1-54.9-11.8-73.6-32.7c-13-14.2-28.1-25.9-44.7-35.6
		c-20.1-8.2-43.9-4.5-64.7,0.2c-32.7,8.7-59,29.3-81.6,53.8c17.1-47.6,33.6-60.9,76.2-85.6c63.8-34.7,141.9-33.3,208.2-6.4
		C334.6,243.5,334.6,244.1,334.6,244.7z"/>
	<path class="st0" d="M395.7,243c-9.1-7.7-17.9-15.2-27-22.9c44.6-47.4,89.1-100.8,155.5-116.3c62.6-17.3,88.2,53.3,18.4,74.1
		C492.8,196.3,436.6,207.2,395.7,243z"/>
	<path class="st0" d="M181.4,201.8c-10.8,3.5-21,6.9-31.3,10.3c-6.7-33.6-24.7-64.5-45.5-91.3C84.3,95,53.2,80.7,33.6,54.3
		C12.1,12.6,51.6,0.9,84.2,19C147.8,56.6,162.2,136.4,181.4,201.8z"/>
	<path class="st0" d="M284.6,906.3c-17.9-1.2-41.3-8.3-39.1-30.5c2.7-7.1,1.5-14.4,0.8-21.5c-0.7-14.9-3.2-30.4,0.1-44.9
		c16.1,11.1,37.2,8.8,54.6,1.4c4.3-2,6-1.3,6.6,3.4c1.2,9.5,2.1,19,2.9,28.5c-0.7,17.5,1.4,25.4,11,40.2c7,16.7-25.2,22.7-36.8,22.5
		C284.7,905.8,284.7,906,284.6,906.3z M308.7,859.9c-0.1-0.4-0.1-0.8-0.2-1.2c-3.8-1.2-7.4,1.1-11.1,1.8
		c-13.3,4.6-26.6,2.9-40.2,1.5c-0.1,0.3-0.2,0.5-0.3,0.8C265.7,872.5,298.9,866.9,308.7,859.9z"/>
	<path class="st0" d="M124.5,801.5c16.9,10.6,35.6,13.9,54.9,6.6c1.6,19.3,1.7,38.3,3.8,57.5c-0.5,4.8,1.3,19.7-3.1,21.7
		c-22.5,6.7-45.8,8.7-69.1,7.5c-5.9-1.1-12.9-4.9-8.4-11.5c4.4-7.5,8.7-15.7,15.6-21.2C129.8,850.3,122.8,818.4,124.5,801.5z
		 M177.7,855.2c-2,0.1-4-0.1-5.9,0.5c-14.7,5.1-29.5,4.5-44.7,2.1C131.1,864,161.2,866.7,177.7,855.2z"/>
	<path class="st0" d="M377.7,320.7c2.9-6.1,5.7-12.2,8.7-18.7c-11.4,0-21.8,0-32.9,0c9.8-7.2,18.2-15.1,24-25.8
		c50,39.9,84.5,102.8,80.1,167.9c-0.3,0-0.6,0-1,0.1c-6.2-36.5-17.4-74.1-44.4-100.7C403.7,332,392.1,321.7,377.7,320.7z"/>
	<path class="st0" d="M192.1,754.8c-8.3,13.8-12.4,28.7-15.2,44c-0.4,2.2-1.2,3.5-3.7,4.2c-10.2,3.3-34.2,3.8-40.3-5.8
		c-1.8-21.2,8.5-41.4,14.2-61.3C160.7,745.5,175.6,751.9,192.1,754.8z"/>
	<path class="st0" d="M249.5,755.5c15-3.4,30.6-4.8,42.9-15.7c1.2,21.1,1.7,41.5,5.8,62.3c0.4,2.1-0.2,3.2-1.8,3.8
		c-14.3,4.7-30.8,7.4-44.4-0.7c-0.8-0.4-1.5-2.1-1.5-3.2C250.5,786.5,252,770.9,249.5,755.5z"/>
	<path class="st0" d="M143.4,721.5c13.4,2.6,26.1,3.7,39.7,3.2c1.9,0,3,0.5,4,2.3c9.8,16.6,31.9,14.4,41.6,1.5
		c1.5-1.9,2.9-2.5,5.2-2.5c20.9-0.2,41.9,2,62.4-3.5c-11.5,24.7-43.2,23-66.2,27c-21,2.7-41.6-2.8-61.6-8.5
		C158.1,737.7,149.9,731.5,143.4,721.5z"/>
	<path class="st0" d="M358.7,229c-5.9,4.3-11.1,8.1-15.9,11.5c-28.5-19.5-65-22.3-98.4-25.6c-51-1.3-103.9,10.1-144.3,42.7
		c-0.2-0.2-0.3-0.4-0.5-0.6C167.7,190.3,275.5,197.2,358.7,229z"/>
	<path class="st0" d="M381.1,270.4c1.6-7.3,3.2-14.7,4.9-22.2c47.6,46.3,90.5,109.9,80,177.9C461.5,361.5,431.4,310.5,381.1,270.4z"
		/>
	<path class="st0" d="M220.2,588.3c30.2,1.3,60.1,1.2,91-1.6c-1.6,4.3-1,14.8-4.9,15.7c-23.3,4-46.6,7.6-69.9,11.2
		c-4.3,0.7-4.6,0.7-6.1-3.4C227.2,602.5,225.2,595.1,220.2,588.3z M262.8,590.6c-5.2,3.6-1.5,11.4,2.6,14
		C273.3,606.9,264.8,592.8,262.8,590.6z M233.7,596.5c-1,3.3,5.9,11.6,6.8,5.5c-1.5-2.8-1.1-7.5-3.8-9.4
		C234.5,592.3,233.7,594.5,233.7,596.5z M244.9,592.5c0.7,3.1,8.1,14.3,8.7,6.2C251.9,595.7,249.4,589.2,244.9,592.5z"/>
	<path class="st0" d="M233.8,701.6c16.7,1,33.6-0.5,50.5-2.6c9.3-1.8,19.8-0.7,27.9-6.1C318,726,253.8,718,233.7,720
		C233.8,714.2,233.8,708.2,233.8,701.6z"/>
	<path class="st0" d="M144.7,572.2c21.9,9,44.5,14,68.1,15.7c-3.4,4.4-6.7,8.7-9.9,13c-2.8,2.5-3.9,10-8.6,8.3
		c-18.5-6.4-36-14.8-52.1-26C139.1,579.9,143.6,576.1,144.7,572.2z M191,602.9c4.1-2.2,7.2-16.5,0-11.3
		C189.6,595.7,187.2,599,191,602.9z M183.6,588c-2.1-8.3-10.1,5.9-5.8,6.9C180.4,595.5,183.6,592,183.6,588z M165.6,591.1
		c2.8,0.7,8.1-4,6.3-7.6C167.9,582.2,164.7,586.8,165.6,591.1z"/>
	<path class="st0" d="M27.9,534.2c0.4,5-5.1,15.2,2.4,15.9c15,0.3,15.5,2.3,19.1-13.3c8.9,4.6,4.2,17-2.7,21.4
		c-0.8,0.5-1.5,1.5-1.6,2.4c-0.2,2.7-1.5,4.4-3.4,6.3c-5.2,5.1-5.3,14.3-0.2,20.7c3,3.3,2,7,1.4,10.8c-0.4,10.2-19.8,10.9-14.8-0.6
		c6.9-10.3,6.9-24.2-2.1-33.1c-0.2,0.1-0.4,0.2-0.6,0.4c2.3-14.9-3.9-5.1-6.4-13.9C17.8,544.8,19.8,533.6,27.9,534.2z"/>
	<path class="st0" d="M130.5,694.1c6.6,4.9,14.5,4.7,21.9,6.1c10.4,1.9,21.8,3.1,32.1,4.5c-0.4,4.8-0.8,9.4-1.2,14.5
		C168.4,715.9,115.5,722.4,130.5,694.1z"/>
	<path class="st0" d="M209.2,696c22.8-3,24,31.5,3.8,35.8c-13.3,3.4-27-10.6-21.3-23.6C194,698.5,199.3,694.9,209.2,696z
		 M221.1,712.1c-1-17.5-23.8-14.7-25.3,1.6C196.6,731.3,221.6,730.6,221.1,712.1z"/>
	<path class="st0" d="M26.8,581.7c0.6,10-6.6,24.4-17.5,18.3c-7.5-8.9-3.2-25.4,8-29.2C25.5,567,26.1,576.3,26.8,581.7z"/>
	<path class="st0" d="M366.6,232.3c2.5,2.7,14.1,7.7,12.4,11.2c-3.5,3.8-7,7.6-10.7,11.2c-2.7,0.6-5.4-2.7-7.5-4.2
		C358,247.2,365.4,237.4,366.6,232.3z"/>
	<path class="st0" d="M359.3,258.9c-1.8,0.5-3.5,0.9-6,1.5c0.8-1.9,1.2-3.1,1.9-4.6c1.4,0.8,2.8,1.6,4.1,2.3
		C359.3,258.4,359.3,258.6,359.3,258.9z"/>
	<path class="st0" d="M349,428c4.9,0.9,18.1-1.6,12.4,6.9C357.5,445.2,344.6,435.7,349,428z"/>
	<path class="st0" d="M202.2,479.8c-18.5,8.1-39.7,6.6-53.8-9.3c-4.7-9.5,0.4-21.7,9.2-27.2c9.4-4.4,20.8-0.4,30.8-1.1
		c4,0,6.5,1.5,9.3,4.2c10.9,12.1,19.8-3.6,32.5-1.6c15.7,2.9,43.3,7.7,42.3,27.8c0.2,25-50,21.8-62.8,8.1c-4.7-4.9-6-12.7-4.1-19.2
		c0.3-0.8-0.5-1.9-0.8-2.9C199.5,465.2,200.6,469.8,202.2,479.8z"/>
	<path class="st0" d="M197.4,437.1c8.9-2.1,17.2-3,25.5,2.7c-3.9,2.5-7,6.5-11.1,7.7C206,446,198.8,443.7,197.4,437.1z"/>
	<path class="st0" d="M104.9,412.5c-8.4-0.8-8.7-11-0.6-12.8c2.9-0.2,11.4-0.2,8.1,4.8C111.9,409.1,110.1,412.7,104.9,412.5z"/>
	<path class="st0" d="M208.4,718.7c-8.3,0.4-6.4-10.3-0.5-11.1C214.7,707.5,216.5,719.5,208.4,718.7z"/>
</g>
</svg>
