<?xml version="1.0" encoding="utf-8"?>
<!-- Generator: Adobe Illustrator 26.0.0, SVG Export Plug-In . SVG Version: 6.00 Build 0)  -->
<svg version="1.1" id="Capa_1" xmlns="http://www.w3.org/2000/svg" xmlns:xlink="http://www.w3.org/1999/xlink" x="0px" y="0px"
	 viewBox="0 0 595.28 912.65" style="enable-background:new 0 0 595.28 912.65;" xml:space="preserve">
<style type="text/css">
	.st0{fill:#FFFFFF;}
</style>
<g>
	<path d="M134.91,586.24c-0.92-6.07,1.67-10.91,4.63-16.08c-3.17-1.63-6.32-3.26-9.5-4.87c-13.33-6.75-26.21-14.24-36.85-24.87
		c-10.01-9.99-18.41-21.27-25.21-33.73c-11.07-20.3-20.53-41.28-26.85-63.57c-4.11-14.46-6.35-29.23-7-44.27
		c-0.71-16.45,0.15-32.75,3.51-48.91c5.01-24.07,15.08-45.89,28.9-66.08c9.17-13.39,18.93-26.3,30.79-37.5
		c13.13-12.39,27.77-22.53,44.23-30.02c0.72-0.33,1.41-0.73,2.27-1.18c-2.7-6.45-5.6-12.7-7.98-19.15
		c-5.46-14.8-11.81-29.15-20.06-42.65c-10.38-16.99-23.42-31.57-38.26-44.85c-16.57-14.83-32.57-30.34-48.36-46
		c-9.18-9.11-12.89-20.86-11.8-33.68c0.9-10.58,8.3-16.95,16.43-22.63c10.94-7.65,22.9-6.95,35.08-4.55
		c17.1,3.37,30.82,12.74,43.37,24.31c15.47,14.26,27.54,30.91,35.75,50.29c7.4,17.47,15.01,34.86,21.78,52.56
		c4.12,10.76,7.26,21.95,10.01,33.15c1.95,7.94,2.5,16.23,3.7,24.36c0.16,1.09,0.32,2.22,0.72,3.23c1.34,3.43,2.13,6.86,0.74,10.48
		c-0.11,0.3,0.15,0.74,0.28,1.25c4.93-0.8,9.72-1.86,14.56-2.3c6.59-0.6,13.23-1,19.84-1.01c7.95-0.01,15.9,0.4,23.84,0.76
		c14.68,0.67,29.41,0.93,44.02,2.32c14.81,1.41,29.12,5.53,43.37,9.86c9.56,2.9,19.53,4.45,29.36,6.45
		c0.85,0.17,2.45-0.59,2.83-1.35c5.22-10.29,13.21-18.49,20.62-27.08c12.84-14.88,26.99-28.49,41.79-41.42
		c22.75-19.88,48.04-35.74,75.87-47.44c11.69-4.91,23.95-8.22,36.65-9.36c27.16-2.45,47,11.11,55.4,34.28
		c3.64,10.03,1.67,19.54-2.9,28.84c-7.2,14.65-18.45,24.64-33.94,29.78c-27.16,9.02-54.41,17.78-81.5,27.01
		c-20.4,6.96-39.95,15.92-57.94,27.9c-5.23,3.48-9.72,8.06-14.7,12.26c0.67,1.02,0.93,1.93,1.52,2.26
		c5.07,2.87,7.19,8.27,10.73,12.43c7.57,8.89,15.11,17.82,22.45,26.9c15.71,19.43,26.51,41.4,33.19,65.42
		c4.84,17.37,7.14,35.06,6.71,53.11c-0.65,27.45-7.36,53.32-21.07,77.14c-15.34,26.65-34.13,50.53-58.9,69.17
		c-19.84,14.93-42.33,23.72-66.79,27.58c-4.36,0.69-8.76,1.18-13.54,1.82c3.35,6.54,0.46,12.66-1.22,18.61
		c26.4,12.14,44.64,32.25,58.07,57.09c8.85,16.37,14.87,33.81,17.84,52.23c1.12,6.96,2.18,13.96-0.94,20.75
		c-0.33,0.73-0.67,1.46-1.06,2.16c-6.95,12.28-15.84,10.98-26.02,0.71c-2.56-2.58-3.83-6.45-5.77-9.87
		c-3.43,2.27-7.51,1.97-11.6,1.13c-5.24-1.07-7.92-4.74-7.19-10.08c0.75-5.47,1.85-10.9,2.65-16.36c1.36-9.32-1.22-17.9-5.16-26.2
		c-4.83-10.19-11.83-18.63-20.56-25.69c-0.76-0.61-1.59-1.13-3.19-2.26c-0.33,11.73-0.64,22.7-0.96,33.67
		c5.7,0.07,5.76,0.06,7.05,5.8c2.34,10.42,0.52,19.8-7.39,27.44c-1.7,1.64-3.87,2.8-5.96,4.28c1.63,5.14-2.33,8.26-4.91,11.75
		c-1.4,1.89-1.8,3.51-1.59,5.75c1.4,14.93,2.65,29.87,3.98,44.81c0.57,6.41,1.14,12.83,1.86,19.22c0.08,0.73,0.99,1.77,1.7,1.96
		c7.16,1.9,9.56,7.89,9.8,13.53c0.6,13.87,1.65,27.72,2.13,41.59c0.16,4.63,1.72,8.15,4.54,11.71c4.26,5.37,7.05,11.59,6.45,18.66
		c-0.8,9.52-9.43,18.03-19.64,20.45c-9.47,2.24-19,3.82-28.71,3.03c-11.37-0.92-22.75-2.33-31.39-11c-6-6.01-10.14-12.92-9.7-21.9
		c0.37-7.54,0.71-15.1,0.55-22.64c-0.17-8.14-0.74-16.28-1.51-24.39c-0.83-8.71-0.5-17.24,2.03-25.68c0.62-2.07,1.45-3.46,3.88-3.38
		c0.18-2.62,0.47-5.11,0.51-7.6c0.21-12.18,0.37-24.36,0.51-36.55c0.03-2.39-1.25-3.28-3.67-3.12c-7.43,0.49-14.86,1.06-22.3,1.17
		c-5.52,0.08-11.05-0.44-16.57-0.82c-1.73-0.12-2.84,0.28-4.16,1.59c-6.81,6.75-8.43,15.84-11.17,24.36
		c-1.84,5.72-2.88,11.69-4.3,17.65c3.51,1.96,4.15,5.01,4.29,8.7c0.69,18.19,1.84,36.37,2.42,54.57c0.25,7.91-0.28,15.87-0.82,23.78
		c-0.27,4.04-3.85,7.44-7.83,8.22c-6.61,1.3-13.18,2.94-19.85,3.66c-10.89,1.17-21.84,1.85-32.78,2.46
		c-5.81,0.33-11.68,0.38-17.49,0.01c-5.58-0.35-10.4-3.05-14.55-6.68c-1.12-0.98-1.93-2.91-1.98-4.43
		c-0.37-10.68,3.61-19.6,11.47-26.82c2.59-2.38,5.03-4.94,7.76-7.16c2.11-1.72,2.69-3.84,2.76-6.34c0.4-14.79,0.81-29.58,1.23-44.36
		c0.06-2.11-0.24-4.36,0.42-6.27c0.44-1.27,2.2-2.2,3.54-3c0.99-0.59,2.26-0.72,3.16-0.98c1.36-7.72,2.16-15.47,4.18-22.89
		c2.69-9.86,6.35-19.45,9.55-29.18c1.16-3.52,2.23-7.08,3.25-10.65c0.2-0.7,0.12-1.59-0.14-2.28c-1.03-2.8-2.11-5.59-3.32-8.32
		c-0.31-0.69-1.09-1.37-1.81-1.63c-1.6-0.58-3.32-0.78-4.94-1.31c-9.94-3.24-14.05-16.84-7.59-26.02c1.92-2.73,2.4-5.34,2.61-8.53
		c0.98-14.75,2.28-29.48,3.53-44.21c0.41-4.88,1.01-9.74,1.62-15.56c-6.76,1.03-13.02,1.71-19.16,2.97
		c-15.51,3.17-31.03,3.27-46.5,0.19c-7.44-1.48-14.96-3.25-21.98-6.05c-7.79-3.11-15.12-7.41-22.5-11.47
		c-3.05-1.68-5.99-2.98-9.55-3.13c-6.84-0.28-11.52-5.61-12.39-13.26c-1.18-10.39,1.96-19.16,9.91-25.87
		c2.06-1.74,5.26-2.12,7.9-3.22c1.18-0.49,2.25-1.24,3.37-1.88c-0.65-1.04-1.06-2.45-2-3.05c-5.34-3.44-6.42-8.48-5.61-14.22
		c0.38-2.68,1.17-5.3,1.77-7.94c0.82-3.55,3.1-5.94,6.45-6.94c3.16-0.94,6.47-1.45,9.75-1.83c2.64-0.3,4.41,2.75,3.39,5.63
		c-0.33,0.93-1.05,1.71-1.49,2.61c-1.18,2.42-2.31,4.86-3.71,7.84c4.45,0,7.84,0,11.78,0c0.56-3.53,1.12-7.17,1.72-10.8
		c0.24-1.47,0.34-3.04,0.94-4.37c1.26-2.77,3.3-2.91,5.41-0.76c1.61,1.64,3.26,3.36,5.19,4.56c5.03,3.12,5.36,7.95,4.99,12.97
		c-0.38,5.09-3.14,9.02-6.79,12.4c-0.81,0.75-1.66,1.49-2.28,2.39c-1.13,1.65-0.7,3.08,1.05,4.02c7.6,4.09,15.18,8.21,22.83,12.21
		c16.75,8.74,34.48,11.67,53.18,8.85C130.25,586.43,132.56,586.41,134.91,586.24z M49.58,341.91c-0.38-0.12-0.77-0.24-1.15-0.35
		c-1.59,9.81-3.5,19.58-4.71,29.43c-2.23,18.12-1.22,36.18,2.28,54.06c4.58,23.41,12.8,45.53,23.74,66.75
		c16.85,32.68,41.94,56.47,75.67,71c18.58,8.01,38.29,12.05,58.24,14.55c23.03,2.89,46.2,3.03,69.39,2.27
		c21.65-0.71,43.16-2.84,64.47-6.54c24.44-4.24,45.93-14.94,64.41-31.52c15.16-13.61,28.14-29.11,38.6-46.56
		c4.46-7.44,11.39-14.23,9.37-24.28c2.2-21.45-3.7-41.85-8.37-62.36c-1.19-5.22-3.46-10.26-5.71-15.17
		c-4.49-9.81-7.46-20.38-14.4-29.01c-4.09-5.09-7.65-10.63-11.9-15.58c-5.1-5.94-10.65-11.51-16.08-17.17
		c-2.86-2.98-6.39-4.75-10.51-5.47c-2.36-0.41-4.63-1.31-6.98-1.83c-0.72-0.16-1.8-0.08-2.31,0.36
		c-6.71,5.77-13.23,11.75-20.02,17.42c-11.1,9.28-23.67,15.82-38.19,17.27c-23.06,2.31-44.06-4.03-61.97-18.46
		c-15.19-12.24-29.39-25.72-43.88-38.81c-15.74-14.22-34.17-19.77-54.93-16.55c-9.17,1.42-18.09,4.53-27.08,7.02
		c-19.73,5.46-37.47,14.77-53.6,27.37c-7.38,5.77-15.17,10.98-20.6,18.87C52.4,339.94,50.84,340.82,49.58,341.91z M40.35,611.3
		c2.11,0.97,3.49,1.57,4.84,2.22c8.56,4.13,17.36,7.16,26.97,8.08c13.22,1.27,26.37,1.7,39.33-1.48c8.02-1.97,16.08-2.56,24.25-2.41
		c1.57,0.03,3.49-0.25,3.61,2.14c0.15,3.21,0.57,6.48,0.16,9.63c-1.39,10.87-3.41,21.66-4.55,32.55c-0.92,8.77-0.9,17.64-1.3,26.31
		c1.68,0.44,2.75,0.69,3.8,1c15.63,4.59,31.57,7.05,47.87,6.96c1.41-0.01,3.14-0.33,4.16-1.18c4.81-3.99,10.31-6.16,16.45-6.83
		c7.14-0.78,13.86,0.34,19.6,4.99c2.17,1.76,3.93,3.24,7.28,2.87c7.08-0.78,14.29-0.36,21.39-1.03c11.31-1.07,22.59-2.49,33.84-4.06
		c6.03-0.84,11.97-2.32,17.72-3.46c0-11.95-0.01-23.59,0.01-35.23c0.01-2.8,0.45-5.65,0.08-8.4c-0.2-1.48-1.16-2.64,0.45-3.95
		c1.6-1.3,2.92-0.75,4.41,0.08c7.55,4.22,14.31,9.45,19.73,16.17c14.45,17.88,21.37,37.61,14.4,60.63c-0.33,1.1-0.66,2.79-0.1,3.48
		c1.92,2.34,4.71,2.98,7.66,2.45c2.36-0.42,4.31-1.25,4.89-4.12c0.37-1.84,1.23-3.87,2.52-5.17c1.56-1.58,4.25-0.39,4.23,1.65
		c-0.02,2.61,0.08,5.3-0.53,7.8c-0.93,3.82-0.13,7.29,2.45,9.77c2.52,2.42,5.74,4.33,8.96,5.75c4.83,2.13,7.6,0.54,8.91-4.58
		c1.74-6.81,2.11-13.76,0.83-20.66c-3.52-19.04-10.51-36.85-20.66-53.28c-5.36-8.69-11.1-17.38-18.02-24.81
		c-8.75-9.4-19.27-16.98-30.58-23.33c-2.66-1.49-4.92-2.25-8.1-1.75c-17.89,2.84-35.84,5.3-53.74,8.06
		c-5.61,0.86-11.27,1.29-16.64,3.84c-5.17,2.45-9.67-0.3-11.86-5.73c-2.68-6.63-5.68-13.13-8.55-19.68
		c-0.41-0.03-0.81-0.05-1.22-0.08c-4.39,6.09-8.86,12.12-13.13,18.3c-1.14,1.66-2.35,2.28-4.21,1.96
		c-8.74-1.52-17.34-3.65-25.18-7.84c-9.29-4.97-18.41-10.28-27.48-15.64c-2.38-1.4-4.61-1.72-7.18-1.12
		c-21.14,4.93-41.59,2.46-61.21-6.38c-9.05-4.08-17.66-9.1-26.51-13.62c-3.7-1.89-5.11-1.2-5.78,2.88
		c-0.62,3.78-0.58,7.75,2.75,10.26c3.15,2.38,6.49,0.91,9.58-0.9c1.39-0.82,3.08-1.8,4.24,0.11c1.18,1.97,0.37,3.83-1.56,4.81
		c-2.22,1.13-4.58,2.06-6.98,2.75c-1.6,0.46-2.37,0.93-2.85,2.77C48.24,601.02,48.39,608.23,40.35,611.3z M334.62,244.68
		c0-0.58-0.01-1.17-0.01-1.75c-12.34-4.07-24.58-8.54-37.06-12.12c-15.69-4.49-31.81-6.76-48.13-7.6
		c-28.01-1.45-55.47,1.51-82.39,9.52c-14.11,4.2-27.93,9.25-40.61,16.64c-12.74,7.43-25,15.74-37.08,24.22
		c-5.28,3.7-10.37,8.2-14.18,13.35c-5.64,7.64-10.49,15.96-14.86,24.41c-3.91,7.58-6.72,15.73-10,23.6
		c8.03-7.81,15.5-15.88,23.79-22.98c16.94-14.51,36.49-24.42,57.85-30.76c15.16-4.5,30.74-4.95,46.38-4.41
		c6.32,0.22,12.75,0.88,18.33,4.17c16.58,9.76,31.76,21.37,44.73,35.62c15.46,16.99,33.9,28.59,56.84,32.11
		c5.52,0.85,11.28,1.07,16.83,0.57c10.56-0.94,19.92-5.5,28.35-11.69c7.85-5.76,15.43-11.92,22.9-18.18
		c3.62-3.03,6.71-6.7,10.04-10.08c-0.19-0.32-0.38-0.63-0.57-0.95c-2.67,0.15-5.33,0.43-8,0.42c-12.28-0.07-24.57-0.18-36.85-0.43
		c-0.73-0.02-1.77-1.34-2.06-2.25c-0.45-1.43,0.29-2.18,1.97-2.61c20.36-5.24,34.86-17.25,42.45-37.1c0.84-2.19,1.46-4.47,2.32-7.13
		c-0.88,0.35-1.19,0.4-1.41,0.56c-12.19,9.03-25.96,12.38-40.95,11.54c-2.26-0.13-3.61-1.13-4.04-3.27
		c-0.41-2.04,0.71-2.99,2.56-3.72c6.1-2.41,11.31-6.2,15.57-11.14c2.05-2.38,3.49-5.28,5.21-7.95c-5.27,2-9.9,4.38-14.68,6.42
		c-17.08,7.3-34.93,10.09-53.41,8.37c-6.49-0.6-12.89-2.12-19.36-2.93c-9.28-1.17-18.6-2-27.89-3.12
		c-7.01-0.84-13.99-1.91-20.98-2.88c0.68-0.86,1.4-1.23,2.12-1.25c10.66-0.32,21.32-0.81,31.98-0.8c5.41,0.01,10.92,0.47,16.22,1.54
		c15.94,3.2,31.82,3.16,47.64-0.39C321.06,248.73,327.81,246.57,334.62,244.68z M395.73,243.05c9.91-8.7,20.54-16.9,32.64-22.72
		c11.82-5.68,23.87-11.03,36.19-15.5c25.84-9.36,51.8-18.45,77.96-26.86c14.32-4.6,26.42-11.4,35.86-23.49
		c8.29-10.61,7.63-21.82,2.41-32.22c-5.67-11.31-15.97-18.5-28.96-20.52c-9.35-1.46-18.65-0.98-27.71,2.12
		c-9.87,3.38-20.01,6.11-29.61,10.15c-26.18,11-49.13,26.9-68.98,47.22c-18.34,18.79-36.67,37.58-54.98,56.4
		c-0.85,0.88-1.48,1.97-1.85,2.47C377.87,227.88,386.66,235.34,395.73,243.05z M181.45,201.81c-0.61-1.99-1.22-4.18-1.95-6.33
		c-1.02-3.02-2.43-5.95-3.16-9.04c-4.98-21.07-10.28-42.03-17.55-62.48c-10.09-28.4-23.01-55.18-42.68-78.38
		c-9.13-10.77-19.08-20.46-31.97-26.65C72.82,13.49,61.2,9.35,48.23,11c-11.61,1.48-19.36,8.16-20.16,18.52
		c-0.37,4.75-0.08,9.71,0.88,14.37c0.74,3.61,2.45,7.3,4.65,10.28c9.24,12.51,20.95,22.51,33.29,31.83
		c13.7,10.34,26.6,21.54,37.69,34.74c11.66,13.88,20.83,29.27,28.84,45.48c5.57,11.27,11.43,22.37,14.31,34.72
		c0.88,3.76,1.63,7.55,2.41,11.14C160.49,208.69,170.66,205.35,181.45,201.81z M284.64,906.31c0.04-0.26,0.08-0.53,0.13-0.79
		c12.18,0.41,23.12-3.6,33.46-9.54c3.97-2.28,5.52-9.02,3.31-13.04c-2.85-5.19-5.84-10.32-8.46-15.63c-1.13-2.27-1.95-4.9-2.11-7.41
		c-0.37-5.72,0.04-11.49-0.39-17.2c-0.71-9.51-1.62-19.01-2.87-28.47c-0.63-4.73-2.31-5.4-6.63-3.44
		c-10.89,4.95-22.35,6.45-34.17,5.88c-6.22-0.3-12.18-1.37-17.04-5.81c-0.86-0.79-2.26-1-3.4-1.48c-0.39,1.19-1.05,2.37-1.12,3.58
		c-0.81,13.8-0.24,27.55,0.99,41.32c0.64,7.15,1.89,14.38-0.83,21.51c-0.66,1.73-0.26,4.02,0.11,5.97
		c2.03,10.8,9.27,17.39,18.97,20.82C270.93,904.83,277.94,905.14,284.64,906.31z M124.47,801.5c0,7.47-0.11,13.98,0.03,20.47
		c0.21,10.37,0.6,20.72-1.32,31c-0.69,3.68-1.97,6.81-5.09,9.2c-2.21,1.69-4.33,3.7-5.93,5.96c-3.46,4.9-6.93,9.86-9.72,15.15
		c-2.7,5.13-1.56,7.47,3.63,9.93c1.53,0.72,3.19,1.61,4.8,1.64c9.43,0.12,18.91,0.54,28.29-0.14c13.83-1.01,27.45-3.67,40.82-7.41
		c0.91-0.26,2.19-1.38,2.25-2.18c0.49-6.48,1.19-13,0.93-19.48c-0.37-9.02-1.67-18-2.27-27.01c-0.39-5.82-0.11-11.67-0.35-17.5
		c-0.18-4.25-0.73-8.48-1.13-12.97c-11.27,4.23-22.29,4.48-33.48,2.76c-5.47-0.84-10.35-2.93-14.83-6.19
		C129.4,803.5,127.29,802.85,124.47,801.5z M377.66,320.74c-0.15-0.18-0.1-0.06-0.02-0.04c0.38,0.11,0.77,0.23,1.16,0.29
		c9.47,1.33,17.75,5.15,24.41,12.06c3.19,3.31,5.8,7.2,9.03,10.47c9.57,9.67,17.63,20.41,23.72,32.56
		c9.08,18.09,14.69,37.34,18.66,57.1c0.73,3.65,1.36,7.32,2.03,10.98c0.32-0.02,0.65-0.04,0.97-0.06c0.2-6.07,0.85-12.17,0.51-18.22
		c-1.49-26.64-8.88-51.89-20.5-75.67c-12.61-25.82-30.23-48.13-51.97-67.06c-2.62-2.28-5.28-4.51-8.12-6.94
		c-5.87,10.74-14.27,18.63-24.05,25.8c11.13,0,21.55,0,32.92,0C383.34,308.56,380.53,314.58,377.66,320.74z M192.05,754.81
		c-16.46-2.9-31.39-9.36-45.03-19.03c-0.36,0.73-0.64,1.16-0.78,1.63c-3.29,10.73-6.41,21.52-9.9,32.19
		c-2.94,9-4.77,18.07-3.52,27.55c0.13,0.99,0.83,2.35,1.65,2.74c12.48,5.95,25.37,6.94,38.71,3.13c2.47-0.71,3.28-1.94,3.69-4.19
		C179.6,783.48,183.72,768.58,192.05,754.81z M249.46,755.49c0.53,4.74,1.47,9.4,1.5,14.06c0.07,10.76-0.35,21.53-0.43,32.29
		c-0.01,1.08,0.65,2.8,1.47,3.16c4.47,1.95,9,4.67,13.66,5.03c6.71,0.51,13.58-0.57,20.33-1.41c3.52-0.44,6.96-1.72,10.35-2.87
		c1.62-0.55,2.17-1.71,1.8-3.8c-3-16.95-4.85-34.03-5.07-51.26c-0.04-3.43-0.43-6.86-0.71-10.98c-6.49,5.38-13.23,8.94-20.69,10.85
		C264.2,752.48,256.6,753.92,249.46,755.49z M143.44,721.52c6.46,10.01,14.63,16.21,25.07,19.23c7.6,2.2,15.29,4.12,22.98,6.02
		c12.72,3.15,25.64,3.89,38.65,2.52c7.99-0.84,15.96-1.91,23.9-3.16c11.14-1.75,22.09-4.13,31.71-10.59
		c4.79-3.22,8.27-7.31,10.65-13.18c-2,0.51-3.41,1-4.87,1.22c-5.66,0.85-11.32,2.17-17,2.32c-13.5,0.34-27.01,0.15-40.52,0.04
		c-2.31-0.02-3.78,0.57-5.24,2.51c-9.77,12.97-31.83,15.11-41.62-1.46c-1.04-1.76-2.08-2.31-4.02-2.26
		c-11.09,0.31-22.14-0.12-33.09-2.14C148.11,722.25,146.17,721.97,143.44,721.52z M358.73,229.04c-2.19-0.94-3.45-1.57-4.76-2.03
		c-18.23-6.3-36.85-11.24-55.71-15.19c-14.79-3.1-29.8-4.72-44.93-5.2c-16.82-0.54-33.65-0.72-50.36,1.53
		c-36.59,4.94-69.1,19.22-97.23,43.26c-2.13,1.82-4.09,3.83-6.13,5.75c0.17,0.19,0.33,0.38,0.5,0.57c4.26-3.13,8.35-6.54,12.82-9.34
		c12.95-8.14,26.5-15.13,40.94-20.29c17.5-6.24,35.47-10.41,54.05-11.57c12.15-0.76,24.35-2.07,36.46-1.53
		c13.32,0.59,26.62,2.61,39.81,4.76c18.57,3.03,36.56,8.25,53.43,16.81c1.75,0.89,3.18,2.42,5.23,4.02
		C347.62,237.11,352.86,233.3,358.73,229.04z M381.06,270.41c50.31,40.04,80.47,91.12,84.83,155.7c-0.28,0.54-0.12,0.37-0.11,0.19
		c0.19-2.2,0.34-4.41,0.55-6.61c1.61-16.97,0.49-33.77-3.29-50.37c-5.39-23.7-15.28-45.36-29.62-65
		c-12.42-17.01-25.82-33.22-40.07-48.72c-2.41-2.62-5.02-5.04-7.39-7.41C384.3,255.73,382.67,263.11,381.06,270.41z M220.17,588.26
		c1.53,2.43,3.07,4.3,3.99,6.43c2.19,5.07,4.1,10.25,6.09,15.4c1.59,4.12,1.83,4.15,6.15,3.43c8.41-1.4,16.86-2.59,25.29-3.94
		c14.87-2.39,29.74-4.82,44.6-7.28c0.69-0.11,1.77-0.59,1.88-1.07c1.05-4.62,1.92-9.28,2.99-14.61
		C280.32,589.51,250.38,589.54,220.17,588.26z M233.76,701.64c0,6.5,0,12.6,0,18.43c10.91-0.24,22.06-0.63,33.21-0.7
		c13.24-0.08,25.89-2.1,37.86-8.37c6.85-3.59,9.09-9.8,7.36-18.03c-1.74,0.96-3.5,2.57-5.47,2.91c-7.43,1.28-14.93,2.23-22.41,3.16
		C267.4,701.12,250.47,702.59,233.76,701.64z M144.7,572.24c-1.4,3.05-2.77,5.72-3.8,8.53c-0.23,0.63,0.51,2.04,1.2,2.52
		c16.12,11.15,33.6,19.6,52.11,25.98c1.86,0.64,3.2,0.3,4.25-1.54c1.34-2.34,2.84-4.61,4.45-6.78c3.19-4.31,6.51-8.54,9.89-12.96
		C189.2,586.27,166.59,581.24,144.7,572.24z M27.88,534.24c-2.13,0.07-4.73,0.14-6.19,2.65c-2.55,4.39-3.65,9.13-2.63,14.2
		c0.43,2.14,1.14,3.87,3.86,4.29c2.27,0.36,3.63,1.9,2.93,4.64c-0.41,1.6-0.3,3.34-0.43,5.02c0.21-0.13,0.42-0.25,0.62-0.38
		c1.87,2.67,4.5,5.08,5.46,8.04c2.81,8.75,1.67,17.28-3.41,25.07c-2.23,3.41-0.34,7.8,3.78,8.39c5.62,0.8,9.96-2.28,10.97-7.81
		c0.22-1.18,0.29-2.4,0.54-3.57c0.59-2.74-0.05-4.92-1.89-7.2c-5.11-6.35-5.02-15.6,0.23-20.68c1.91-1.85,3.18-3.61,3.4-6.26
		c0.07-0.85,0.83-1.9,1.58-2.38c3.59-2.28,5.56-5.64,7.03-9.48c1.8-4.69,0.04-9.69-4.3-11.92c-1.05,3.6-1.95,7.28-3.25,10.82
		c-0.4,1.08-1.86,2.44-2.91,2.51c-4.31,0.27-8.65,0.17-12.98,0.04c-2.39-0.07-4.09-1.31-3.86-3.94
		C26.78,542.36,27.36,538.45,27.88,534.24z M130.49,694.09c-5.98,8.6-1.64,16.66,5.24,19.03c5.07,1.75,10.49,2.74,15.84,3.34
		c9.18,1.04,18.42,1.5,27.64,2.22c1.55,0.12,3.09,0.3,4.13,0.4c0.42-5.02,0.81-9.67,1.21-14.47c-5.03-0.62-10.39-1.23-15.74-1.97
		c-5.47-0.75-10.96-1.47-16.38-2.48C144.99,698.78,137.13,698.97,130.49,694.09z M209.18,696.03c-1.21,0-2.43,0.09-3.63-0.02
		c-3.86-0.33-7.25,1.19-10.01,3.47c-1.46,1.21-1.83,3.76-2.66,5.71c-0.43,1.01-0.84,2.04-1.22,3.07c-2.34,6.3-1.49,12.23,2.94,17.19
		c4.83,5.41,10.97,8.02,18.4,6.36c9.17-2.05,12.83-8.88,14.07-17.18c1.67-11.15-5.03-18.6-16.09-18.61
		C210.39,696.03,209.79,696.03,209.18,696.03z M26.77,581.73c-0.22-1.43-0.43-3.73-0.94-5.97c-1.27-5.56-3.16-6.6-8.58-4.89
		c-0.76,0.24-1.48,0.6-2.19,0.96C5.42,576.72,2.28,591.76,9.21,600c0.53,0.63,1.44,1.23,2.22,1.3c4.45,0.42,8.35-0.7,11.15-4.49
		C25.7,592.58,26.48,587.69,26.77,581.73z M366.62,232.27c-2.47,5.79-4.64,10.72-6.62,15.74c-0.25,0.63,0.32,1.91,0.91,2.46
		c1.52,1.42,3.21,2.7,4.95,3.84c0.67,0.44,2.13,0.79,2.48,0.43c3.66-3.64,7.2-7.4,10.66-11.23c0.39-0.43,0.36-1.95-0.02-2.24
		C374.96,238.22,370.82,235.3,366.62,232.27z M359.28,258.9c0-0.26,0-0.52,0-0.79c-1.32-0.75-2.64-1.49-4.08-2.31
		c-0.62,1.53-1.11,2.74-1.87,4.62C355.75,259.81,357.51,259.36,359.28,258.9z"/>
	<path class="st0" d="M49.58,341.91c1.26-1.09,2.83-1.97,3.74-3.29c5.43-7.89,13.22-13.1,20.6-18.87
		c16.13-12.6,33.87-21.9,53.6-27.37c8.99-2.49,17.91-5.6,27.08-7.02c20.76-3.21,39.19,2.34,54.93,16.55
		c14.49,13.09,28.69,26.57,43.88,38.81c17.91,14.43,38.91,20.77,61.97,18.46c14.52-1.46,27.09-7.99,38.19-17.27
		c6.79-5.67,13.31-11.65,20.02-17.42c0.51-0.44,1.59-0.52,2.31-0.36c2.35,0.52,4.62,1.42,6.98,1.83c4.12,0.72,7.65,2.49,10.51,5.47
		c5.43,5.66,10.98,11.23,16.08,17.17c4.25,4.95,7.81,10.49,11.9,15.58c6.94,8.63,9.9,19.2,14.4,29.01
		c2.25,4.91,4.52,9.95,5.71,15.17c4.67,20.52,10.57,40.91,8.37,62.36c2.02,10.05-4.91,16.84-9.37,24.28
		c-10.45,17.45-23.43,32.95-38.6,46.56c-18.48,16.58-39.97,27.28-64.41,31.52c-21.31,3.7-42.82,5.83-64.47,6.54
		c-23.19,0.76-46.36,0.62-69.39-2.27c-19.95-2.5-39.67-6.54-58.24-14.55c-33.72-14.54-58.81-38.33-75.67-71
		C58.8,470.59,50.58,448.47,46,425.05c-3.5-17.88-4.52-35.95-2.28-54.06c1.21-9.85,3.12-19.62,4.71-29.43
		C48.81,341.68,49.19,341.79,49.58,341.91z M371.21,447.76c-0.01-11.17-2.32-18.92-6.71-26.14c-6.43-10.57-23.89-15.64-33.45-10.31
		c-6.89,3.84-13.12,8.62-15.84,16.26c-1.73,4.85-2.55,10.16-2.91,15.32c-0.22,3.1-1.44,6.63,1.77,9.56
		c12.46,11.4,26.92,17.55,43.89,17.85c3.6,0.06,5.86-1.32,7.59-4.3C369.31,459.51,371.29,452.56,371.21,447.76z M236.61,496.01
		c8.07,1.48,15.83,1.55,23.67-0.67c8.69-2.47,14.53-7.46,16.9-16.24c2.36-8.73,1.49-16.82-5.4-23.38
		c-8.32-7.93-18.76-11.69-29.53-14.87c-6.65-1.96-13.91-0.94-19.91-6.51c-5.85-5.44-14.06-4.33-21.66-3.55
		c-4.21,0.44-7.23,2.19-8.36,6.2c-3.36-0.41-6.51-1.03-9.68-1.12c-6.48-0.19-13.25-1.31-19.39,0.13
		c-15.81,3.7-23.17,14.74-21.9,30.93c0.15,1.92,0.47,4.35,1.69,5.59c8.77,8.93,18.84,15.73,31.74,16.87
		c2.44,0.22,3.73,0.92,4.81,3.07c0.72,1.44,2.13,2.73,3.53,3.62c12.01,7.72,24.98,10.71,39.1,7.52c2.64-0.6,5.18-1.75,7.84-2.11
		C233.43,501.02,236.12,500.09,236.61,496.01z M89.09,440.28c0-0.09,0-0.17,0-0.26c3.52,0,7.05,0.08,10.57-0.02
		c6.52-0.19,12.24-2.35,16.58-7.39c6.93-8.04,8.46-17.1,4.69-27c-3.87-10.17-11.18-16.22-21.98-17.92
		c-6.26-0.99-12.11,0.38-16.28,5.11c-9.16,10.37-13.16,22.65-11.58,36.51c0.59,5.22,4.56,11.17,12.56,10.99
		C85.46,440.24,87.27,440.28,89.09,440.28z M241.02,504.24c-0.08-0.28-0.16-0.56-0.24-0.84c-1.61,0.42-3.36,0.56-4.8,1.29
		c-9.15,4.67-18.8,6.84-29.07,6.32c-10.6-0.54-20.55-2.94-29.03-9.78c-2.57-2.07-5.29-3.93-7.95-5.89
		c-0.21,0.27-0.41,0.54-0.62,0.81c5.96,9.8,15.34,15.54,25.98,18.8C212.4,520.2,227.95,516.91,241.02,504.24z"/>
	<path class="st0" d="M40.35,611.3c8.03-3.07,7.89-10.29,9.49-16.45c0.48-1.84,1.25-2.31,2.85-2.77c2.4-0.69,4.76-1.62,6.98-2.75
		c1.93-0.98,2.74-2.85,1.56-4.81c-1.15-1.92-2.85-0.93-4.24-0.11c-3.08,1.82-6.43,3.28-9.58,0.9c-3.33-2.51-3.37-6.47-2.75-10.26
		c0.67-4.08,2.08-4.77,5.78-2.88c8.85,4.52,17.46,9.55,26.51,13.62c19.63,8.84,40.08,11.32,61.21,6.38c2.57-0.6,4.8-0.28,7.18,1.12
		c9.08,5.36,18.19,10.67,27.48,15.64c7.85,4.2,16.45,6.32,25.18,7.84c1.87,0.32,3.07-0.3,4.21-1.96c4.26-6.18,8.73-12.21,13.13-18.3
		c0.41,0.03,0.81,0.05,1.22,0.08c2.86,6.55,5.87,13.05,8.55,19.68c2.2,5.42,6.7,8.17,11.86,5.73c5.37-2.54,11.03-2.97,16.64-3.84
		c17.9-2.76,35.85-5.21,53.74-8.06c3.17-0.5,5.43,0.25,8.1,1.75c11.32,6.35,21.83,13.93,30.58,23.33
		c6.92,7.43,12.65,16.13,18.02,24.81c10.14,16.43,17.13,34.24,20.66,53.28c1.28,6.9,0.91,13.84-0.83,20.66
		c-1.31,5.12-4.08,6.71-8.91,4.58c-3.22-1.43-6.44-3.33-8.96-5.75c-2.58-2.48-3.38-5.95-2.45-9.77c0.61-2.5,0.51-5.19,0.53-7.8
		c0.01-2.04-2.67-3.23-4.23-1.65c-1.29,1.3-2.15,3.33-2.52,5.17c-0.58,2.87-2.53,3.7-4.89,4.12c-2.95,0.53-5.74-0.11-7.66-2.45
		c-0.56-0.68-0.23-2.37,0.1-3.48c6.97-23.01,0.05-42.75-14.4-60.63c-5.43-6.72-12.19-11.96-19.73-16.17
		c-1.49-0.83-2.81-1.38-4.41-0.08c-1.6,1.31-0.64,2.47-0.45,3.95c0.36,2.75-0.08,5.59-0.08,8.4c-0.02,11.64-0.01,23.28-0.01,35.23
		c-5.75,1.14-11.69,2.62-17.72,3.46c-11.25,1.57-22.53,2.99-33.84,4.06c-7.1,0.67-14.31,0.25-21.39,1.03
		c-3.35,0.37-5.11-1.11-7.28-2.87c-5.73-4.65-12.45-5.78-19.6-4.99c-6.14,0.67-11.64,2.83-16.45,6.83
		c-1.02,0.85-2.75,1.17-4.16,1.18c-16.3,0.09-32.24-2.37-47.87-6.96c-1.05-0.31-2.12-0.56-3.8-1c0.39-8.67,0.38-17.54,1.3-26.31
		c1.14-10.89,3.16-21.68,4.55-32.55c0.4-3.15-0.01-6.42-0.16-9.63c-0.12-2.39-2.04-2.11-3.61-2.14c-8.18-0.15-16.23,0.44-24.25,2.41
		c-12.96,3.18-26.11,2.75-39.33,1.48c-9.61-0.93-18.41-3.95-26.97-8.08C43.84,612.87,42.46,612.27,40.35,611.3z"/>
	<path class="st0" d="M334.62,244.68c-6.81,1.88-13.56,4.05-20.44,5.59c-15.82,3.55-31.69,3.59-47.64,0.39
		c-5.3-1.06-10.81-1.53-16.22-1.54c-10.66-0.01-21.32,0.47-31.98,0.8c-0.73,0.02-1.44,0.39-2.12,1.25
		c6.99,0.97,13.97,2.03,20.98,2.88c9.29,1.12,18.61,1.95,27.89,3.12c6.48,0.82,12.87,2.33,19.36,2.93
		c18.48,1.72,36.33-1.07,53.41-8.37c4.78-2.04,9.42-4.42,14.68-6.42c-1.72,2.67-3.16,5.57-5.21,7.95
		c-4.26,4.93-9.47,8.73-15.57,11.14c-1.85,0.73-2.97,1.68-2.56,3.72c0.43,2.14,1.78,3.14,4.04,3.27
		c14.98,0.84,28.76-2.51,40.95-11.54c0.22-0.17,0.53-0.22,1.41-0.56c-0.86,2.67-1.49,4.94-2.32,7.13
		c-7.59,19.85-22.09,31.86-42.45,37.1c-1.68,0.43-2.41,1.18-1.97,2.61c0.28,0.91,1.33,2.23,2.06,2.25
		c12.28,0.26,24.56,0.37,36.85,0.43c2.67,0.01,5.33-0.27,8-0.42c0.19,0.32,0.38,0.63,0.57,0.95c-3.33,3.38-6.42,7.04-10.04,10.08
		c-7.47,6.26-15.05,12.41-22.9,18.18c-8.43,6.19-17.79,10.75-28.35,11.69c-5.56,0.5-11.31,0.28-16.83-0.57
		c-22.94-3.52-41.38-15.12-56.84-32.11c-12.97-14.25-28.15-25.86-44.73-35.62c-5.59-3.29-12.02-3.95-18.33-4.17
		c-15.63-0.54-31.22-0.09-46.38,4.41c-21.36,6.34-40.91,16.25-57.85,30.76c-8.29,7.11-15.77,15.17-23.79,22.98
		c3.28-7.87,6.09-16.02,10-23.6c4.37-8.45,9.22-16.77,14.86-24.41c3.8-5.15,8.9-9.65,14.18-13.35
		c12.08-8.47,24.34-16.79,37.08-24.22c12.68-7.4,26.5-12.44,40.61-16.64c26.92-8.01,54.38-10.97,82.39-9.52
		c16.32,0.84,32.44,3.1,48.13,7.6c12.49,3.58,24.72,8.04,37.06,12.12C334.61,243.52,334.62,244.1,334.62,244.68z"/>
	<path class="st0" d="M395.73,243.05c-9.08-7.71-17.87-15.17-27.03-22.94c0.37-0.5,1-1.59,1.85-2.47
		c18.31-18.82,36.64-37.61,54.98-56.4c19.85-20.33,42.8-36.22,68.98-47.22c9.6-4.03,19.73-6.77,29.61-10.15
		c9.06-3.1,18.36-3.57,27.71-2.12c12.99,2.02,23.28,9.21,28.96,20.52c5.22,10.4,5.88,21.61-2.41,32.22
		c-9.44,12.08-21.54,18.88-35.86,23.49c-26.16,8.41-52.12,17.49-77.96,26.86c-12.32,4.46-24.37,9.82-36.19,15.5
		C416.27,226.14,405.65,234.35,395.73,243.05z"/>
	<path class="st0" d="M181.45,201.81c-10.79,3.54-20.96,6.88-31.32,10.28c-0.77-3.59-1.53-7.38-2.41-11.14
		c-2.87-12.35-8.74-23.45-14.31-34.72c-8.01-16.21-17.18-31.6-28.84-45.48c-11.09-13.2-23.99-24.4-37.69-34.74
		C54.55,76.69,42.83,66.69,33.6,54.18c-2.2-2.98-3.91-6.67-4.65-10.28c-0.96-4.66-1.25-9.62-0.88-14.37
		c0.8-10.37,8.55-17.04,20.16-18.52c12.97-1.66,24.59,2.49,35.93,7.93c12.89,6.18,22.83,15.87,31.97,26.65
		c19.67,23.2,32.59,49.98,42.68,78.38c7.26,20.44,12.57,41.4,17.55,62.48c0.73,3.09,2.13,6.01,3.16,9.04
		C180.23,197.63,180.85,199.82,181.45,201.81z"/>
	<path class="st0" d="M284.64,906.31c-6.71-1.17-13.72-1.48-20.05-3.71c-9.7-3.43-16.94-10.02-18.97-20.82
		c-0.37-1.95-0.77-4.24-0.11-5.97c2.72-7.13,1.47-14.37,0.83-21.51c-1.23-13.77-1.8-27.52-0.99-41.32c0.07-1.21,0.73-2.39,1.12-3.58
		c1.15,0.48,2.54,0.69,3.4,1.48c4.86,4.44,10.81,5.51,17.04,5.81c11.82,0.57,23.28-0.94,34.17-5.88c4.32-1.96,6.01-1.29,6.63,3.44
		c1.25,9.45,2.15,18.96,2.87,28.47c0.43,5.71,0.02,11.48,0.39,17.2c0.16,2.52,0.98,5.14,2.11,7.41c2.63,5.31,5.61,10.43,8.46,15.63
		c2.21,4.02,0.66,10.76-3.31,13.04c-10.34,5.94-21.28,9.95-33.46,9.54C284.73,905.78,284.69,906.04,284.64,906.31z M308.67,859.93
		c-0.07-0.42-0.15-0.83-0.22-1.25c-0.9-0.16-1.86-0.61-2.68-0.43c-2.83,0.61-5.64,1.37-8.42,2.19c-12.07,3.56-24.25,4.25-36.58,1.45
		c-1.16-0.26-2.42-0.03-3.64-0.03c-0.11,0.26-0.21,0.52-0.32,0.79c0.62,0.65,1.11,1.63,1.87,1.91c5.74,2.18,11.63,4.21,17.83,3.43
		c8.14-1.02,16.26-2.33,24.29-4.01C303.59,863.4,306.06,861.32,308.67,859.93z"/>
	<path class="st0" d="M124.47,801.5c2.83,1.35,4.94,2,6.62,3.22c4.48,3.26,9.36,5.35,14.83,6.19c11.19,1.72,22.22,1.47,33.48-2.76
		c0.41,4.5,0.95,8.73,1.13,12.97c0.24,5.83-0.04,11.69,0.35,17.5c0.6,9.02,1.9,17.99,2.27,27.01c0.26,6.47-0.44,12.99-0.93,19.48
		c-0.06,0.8-1.33,1.93-2.25,2.18c-13.37,3.75-26.99,6.41-40.82,7.41c-9.39,0.68-18.86,0.27-28.29,0.14
		c-1.61-0.02-3.27-0.91-4.8-1.64c-5.19-2.46-6.33-4.8-3.63-9.93c2.79-5.29,6.25-10.26,9.72-15.15c1.6-2.26,3.72-4.27,5.93-5.96
		c3.13-2.39,4.41-5.52,5.09-9.2c1.91-10.28,1.53-20.64,1.32-31C124.36,815.48,124.47,808.97,124.47,801.5z M177.66,855.19
		c-1.96,0.14-4.04-0.12-5.85,0.47c-13.7,4.43-27.57,5.17-41.66,2.26c-0.87-0.18-1.78-0.11-3-0.18
		C131.12,863.99,161.17,866.69,177.66,855.19z"/>
	<path class="st0" d="M377.66,320.74c2.87-6.15,5.68-12.17,8.73-18.72c-11.37,0-21.78,0-32.92,0c9.79-7.17,18.18-15.06,24.05-25.8
		c2.84,2.42,5.5,4.66,8.12,6.94c21.74,18.94,39.36,41.24,51.97,67.06c11.62,23.78,19.01,49.03,20.5,75.67
		c0.34,6.04-0.31,12.14-0.51,18.22c-0.32,0.02-0.65,0.04-0.97,0.06c-0.67-3.66-1.3-7.33-2.03-10.98
		c-3.97-19.77-9.58-39.01-18.66-57.1c-6.1-12.15-14.16-22.89-23.72-32.56c-3.23-3.27-5.84-7.16-9.03-10.47
		c-6.66-6.91-14.94-10.72-24.41-12.06c-0.39-0.06-0.78-0.18-1.16-0.29C377.56,320.68,377.51,320.55,377.66,320.74z"/>
	<path class="st0" d="M192.05,754.81c-8.32,13.77-12.44,28.66-15.19,44.02c-0.4,2.25-1.22,3.48-3.69,4.19
		c-13.34,3.81-26.23,2.82-38.71-3.13c-0.82-0.39-1.52-1.75-1.65-2.74c-1.25-9.48,0.58-18.55,3.52-27.55
		c3.49-10.67,6.61-21.46,9.9-32.19c0.14-0.47,0.43-0.9,0.78-1.63C160.66,745.46,175.59,751.91,192.05,754.81z"/>
	<path class="st0" d="M249.46,755.49c7.15-1.56,14.75-3.01,22.22-4.93c7.45-1.92,14.19-5.48,20.69-10.85
		c0.28,4.12,0.66,7.55,0.71,10.98c0.22,17.24,2.07,34.31,5.07,51.26c0.37,2.08-0.18,3.25-1.8,3.8c-3.39,1.15-6.83,2.43-10.35,2.87
		c-6.75,0.85-13.62,1.92-20.33,1.41c-4.67-0.35-9.2-3.08-13.66-5.03c-0.82-0.36-1.48-2.08-1.47-3.16
		c0.08-10.76,0.5-21.53,0.43-32.29C250.93,764.89,249.99,760.23,249.46,755.49z"/>
	<path class="st0" d="M143.44,721.52c2.73,0.45,4.67,0.73,6.6,1.08c10.95,2.02,22,2.44,33.09,2.14c1.94-0.05,2.98,0.49,4.02,2.26
		c9.79,16.57,31.85,14.43,41.62,1.46c1.46-1.94,2.92-2.53,5.24-2.51c13.51,0.11,27.02,0.29,40.52-0.04c5.68-0.14,11.34-1.46,17-2.32
		c1.46-0.22,2.87-0.71,4.87-1.22c-2.38,5.86-5.86,9.96-10.65,13.18c-9.62,6.46-20.57,8.84-31.71,10.59
		c-7.94,1.25-15.91,2.32-23.9,3.16c-13.01,1.37-25.93,0.63-38.65-2.52c-7.68-1.9-15.37-3.82-22.98-6.02
		C158.06,737.73,149.9,731.53,143.44,721.52z"/>
	<path class="st0" d="M358.73,229.04c-5.87,4.26-11.11,8.07-15.88,11.53c-2.05-1.6-3.48-3.13-5.23-4.02
		c-16.87-8.56-34.86-13.78-53.43-16.81c-13.19-2.15-26.49-4.16-39.81-4.76c-12.11-0.54-24.31,0.77-36.46,1.53
		c-18.58,1.16-36.55,5.33-54.05,11.57c-14.44,5.15-27.99,12.15-40.94,20.29c-4.47,2.81-8.56,6.21-12.82,9.34
		c-0.17-0.19-0.33-0.38-0.5-0.57c2.04-1.92,4-3.94,6.13-5.75c28.12-24.03,60.63-38.32,97.23-43.26c16.71-2.25,33.54-2.07,50.36-1.53
		c15.13,0.49,30.14,2.11,44.93,5.2c18.86,3.95,37.48,8.89,55.71,15.19C355.28,227.47,356.53,228.1,358.73,229.04z"/>
	<path class="st0" d="M381.06,270.41c1.61-7.3,3.24-14.68,4.91-22.22c2.37,2.37,4.99,4.79,7.39,7.41
		c14.25,15.5,27.65,31.7,40.07,48.72c14.34,19.64,24.23,41.3,29.62,65c3.77,16.6,4.89,33.4,3.29,50.37
		c-0.21,2.2-0.35,4.41-0.55,6.61c-0.02,0.18-0.17,0.36,0.11-0.19C461.53,361.53,431.36,310.45,381.06,270.41z"/>
	<path class="st0" d="M220.17,588.26c30.21,1.29,60.14,1.25,90.98-1.64c-1.06,5.33-1.94,9.99-2.99,14.61
		c-0.11,0.48-1.19,0.96-1.88,1.07c-14.86,2.46-29.73,4.89-44.6,7.28c-8.42,1.35-16.87,2.54-25.29,3.94
		c-4.32,0.72-4.56,0.69-6.15-3.43c-1.99-5.15-3.9-10.34-6.09-15.4C223.24,592.56,221.71,590.68,220.17,588.26z M262.77,590.61
		c-1.09,1.44-2.25,2.36-2.56,3.52c-0.76,2.77,2.51,9.38,5.16,10.55c0.86,0.38,2.17,0.23,3.05-0.16c0.38-0.17,0.54-1.68,0.27-2.37
		c-1.26-3.15-2.67-6.23-4.11-9.31C264.29,592.2,263.69,591.71,262.77,590.61z M233.68,596.51c-0.07,3.24,1.39,5.61,3.99,7.3
		c0.56,0.36,1.65,0.55,2.12,0.25c0.48-0.31,0.73-1.36,0.67-2.04c-0.08-0.85-0.64-1.65-0.88-2.51c-0.46-1.63-0.74-3.32-1.3-4.91
		c-0.28-0.79-0.92-1.87-1.57-2.01c-0.71-0.15-1.92,0.42-2.37,1.06C233.81,594.39,233.87,595.54,233.68,596.51z M244.9,592.53
		c0.91,1.88,1.59,3.64,2.58,5.19c0.79,1.23,1.86,2.36,3.01,3.26c0.57,0.45,2,0.7,2.35,0.35c0.57-0.56,1.03-1.92,0.72-2.56
		c-0.97-2.04-2.14-4.04-3.57-5.78C248.65,591.34,246.8,591.06,244.9,592.53z"/>
	<path class="st0" d="M233.76,701.64c16.7,0.95,33.64-0.52,50.54-2.61c7.49-0.93,14.98-1.88,22.41-3.16
		c1.97-0.34,3.73-1.95,5.47-2.91c1.73,8.23-0.51,14.45-7.36,18.03c-11.97,6.27-24.61,8.29-37.86,8.37
		c-11.15,0.07-22.3,0.46-33.21,0.7C233.76,714.24,233.76,708.15,233.76,701.64z"/>
	<path class="st0" d="M144.7,572.24c21.89,9,44.5,14.03,68.1,15.74c-3.39,4.42-6.7,8.65-9.89,12.96c-1.61,2.17-3.1,4.44-4.45,6.78
		c-1.05,1.84-2.4,2.18-4.25,1.54c-18.51-6.38-35.99-14.82-52.11-25.98c-0.69-0.48-1.43-1.89-1.2-2.52
		C141.93,577.97,143.3,575.29,144.7,572.24z M191.04,602.87c1.4-1.54,2.45-2.23,2.79-3.17c0.75-2.06,1.32-4.22,1.58-6.39
		c0.11-0.94-0.61-2.71-1.2-2.83c-0.99-0.19-2.83,0.35-3.16,1.1c-1.07,2.42-1.83,5.04-2.24,7.65
		C188.66,600.09,189.95,601.17,191.04,602.87z M183.63,587.99c-0.3-0.51-0.74-2-1.73-2.65c-0.46-0.3-2.37,0.77-2.95,1.66
		c-1.19,1.8-2.06,3.86-2.74,5.92c-0.16,0.5,0.83,1.92,1.46,2.04C180.37,595.5,183.59,592.04,183.63,587.99z M165.61,591.11
		c2.47,0.26,5.2-1.7,6.47-4.92c0.31-0.79,0.31-2.15-0.17-2.66c-0.43-0.45-1.85-0.39-2.61-0.05
		C166.25,584.88,165.15,587.32,165.61,591.11z"/>
	<path class="st0" d="M27.88,534.24c-0.52,4.21-1.1,8.12-1.45,12.04c-0.23,2.63,1.46,3.86,3.86,3.94c4.33,0.13,8.67,0.23,12.98-0.04
		c1.05-0.07,2.51-1.42,2.91-2.51c1.3-3.53,2.2-7.22,3.25-10.82c4.34,2.24,6.1,7.24,4.3,11.92c-1.48,3.84-3.44,7.2-7.03,9.48
		c-0.75,0.48-1.51,1.53-1.58,2.38c-0.22,2.66-1.49,4.42-3.4,6.26c-5.25,5.08-5.34,14.33-0.23,20.68c1.83,2.28,2.48,4.46,1.89,7.2
		c-0.25,1.18-0.32,2.39-0.54,3.57c-1.01,5.53-5.35,8.62-10.97,7.81c-4.12-0.59-6.01-4.98-3.78-8.39c5.08-7.79,6.23-16.32,3.41-25.07
		c-0.95-2.96-3.59-5.38-5.46-8.04c-0.21,0.13-0.42,0.25-0.62,0.38c0.12-1.68,0.01-3.41,0.43-5.02c0.71-2.74-0.66-4.29-2.93-4.64
		c-2.72-0.43-3.43-2.16-3.86-4.29c-1.02-5.07,0.09-9.81,2.63-14.2C23.15,534.39,25.75,534.31,27.88,534.24z"/>
	<path class="st0" d="M130.49,694.09c6.64,4.88,14.51,4.69,21.93,6.08c5.43,1.02,10.91,1.73,16.38,2.48
		c5.35,0.73,10.71,1.34,15.74,1.97c-0.4,4.79-0.79,9.44-1.21,14.47c-1.04-0.1-2.58-0.28-4.13-0.4c-9.22-0.72-18.46-1.18-27.64-2.22
		c-5.35-0.6-10.77-1.59-15.84-3.34C128.84,710.75,124.51,702.7,130.49,694.09z"/>
	<path class="st0" d="M209.18,696.03c0.6,0,1.21,0,1.81,0c11.06,0.01,17.76,7.46,16.09,18.61c-1.24,8.3-4.9,15.13-14.07,17.18
		c-7.43,1.66-13.57-0.95-18.4-6.36c-4.43-4.96-5.28-10.89-2.94-17.19c0.38-1.03,0.79-2.06,1.22-3.07c0.84-1.95,1.2-4.5,2.66-5.71
		c2.76-2.28,6.15-3.8,10.01-3.47C206.76,696.12,207.97,696.03,209.18,696.03z M221.12,712.1c0.01-6.97-5.27-12.06-12.62-12.19
		c-5.49-0.09-12.7,7.75-12.69,13.78c0.01,5.39,5.41,13.47,11.83,12.95C215.48,726,221.33,721.48,221.12,712.1z"/>
	<path class="st0" d="M26.77,581.73c-0.28,5.95-1.07,10.85-4.19,15.08c-2.8,3.79-6.69,4.91-11.15,4.49
		c-0.78-0.07-1.69-0.67-2.22-1.3c-6.92-8.24-3.78-23.28,5.85-28.15c0.71-0.36,1.44-0.72,2.19-0.96c5.42-1.72,7.31-0.68,8.58,4.89
		C26.33,578,26.55,580.31,26.77,581.73z"/>
	<path class="st0" d="M366.62,232.27c4.2,3.03,8.34,5.95,12.37,9.01c0.38,0.29,0.41,1.81,0.02,2.24c-3.46,3.83-7,7.59-10.66,11.23
		c-0.36,0.35-1.81,0.01-2.48-0.43c-1.75-1.14-3.43-2.42-4.95-3.84c-0.59-0.55-1.16-1.83-0.91-2.46
		C361.98,243,364.16,238.06,366.62,232.27z"/>
	<path class="st0" d="M359.28,258.9c-1.76,0.45-3.53,0.91-5.95,1.53c0.76-1.88,1.25-3.1,1.87-4.62c1.44,0.82,2.76,1.56,4.08,2.31
		C359.28,258.38,359.28,258.64,359.28,258.9z"/>
	<path d="M371.21,447.76c0.08,4.81-1.89,11.75-5.67,18.25c-1.73,2.98-3.99,4.37-7.59,4.3c-16.97-0.3-31.43-6.45-43.89-17.85
		c-3.21-2.94-1.99-6.46-1.77-9.56c0.37-5.16,1.19-10.47,2.91-15.32c2.72-7.64,8.95-12.42,15.84-16.26
		c9.56-5.33,27.01-0.26,33.45,10.31C368.89,428.84,371.2,436.59,371.21,447.76z M349.05,428.01c-0.25,0.8-0.38,1.18-0.49,1.56
		c-1.16,4.28,0.58,7.5,4.97,9.21c3.89,1.52,5.67,0.63,7.88-3.91c0.48-0.98,1.43-1.94,1.42-2.9c-0.01-1.07-0.77-2.98-1.39-3.06
		C357.42,428.39,353.34,428.27,349.05,428.01z"/>
	<path d="M236.61,496.01c-0.49,4.08-3.17,5.02-6.56,5.48c-2.66,0.36-5.2,1.52-7.84,2.11c-14.12,3.19-27.09,0.2-39.1-7.52
		c-1.4-0.9-2.81-2.18-3.53-3.62c-1.08-2.16-2.36-2.86-4.81-3.07c-12.9-1.15-22.97-7.94-31.74-16.87c-1.22-1.24-1.54-3.67-1.69-5.59
		c-1.26-16.19,6.09-27.23,21.9-30.93c6.14-1.44,12.91-0.32,19.39-0.13c3.17,0.09,6.33,0.72,9.68,1.12c1.14-4.01,4.16-5.76,8.36-6.2
		c7.6-0.79,15.81-1.89,21.66,3.55c6,5.57,13.26,4.55,19.91,6.51c10.77,3.18,21.22,6.95,29.53,14.87c6.88,6.56,7.76,14.65,5.4,23.38
		c-2.37,8.77-8.21,13.77-16.9,16.24C252.44,497.56,244.67,497.49,236.61,496.01z M202.21,479.83c-1.83-9.5-1.77-12.12,0.75-19.22
		c0.3-0.84,1.25-1.44,1.9-2.16c0.28,0.96,1.02,2.08,0.75,2.85c-1.62,4.66-0.7,9.21,0.56,13.64c0.59,2.07,1.89,4.23,3.49,5.65
		c6.5,5.79,14.35,8.73,22.91,9.9c9.3,1.27,18.29,0.24,27.41-2.17c9.47-2.5,12.2-9.01,12.51-15.83c0.42-9.15-4.89-16-14.8-20.16
		c-8.85-3.72-18.06-6.18-27.48-7.56c-3.65-0.53-7.56-0.14-11.18,2.04c-9.54,5.74-15.04,5.68-21.34-0.41
		c-2.77-2.67-5.24-4.21-9.28-4.17c-7.21,0.08-14.42-0.88-21.63-0.92c-3.1-0.01-6.71,0.41-9.21,2c-8.19,5.22-11.38,13.25-10.77,22.79
		c0.1,1.51,0.58,3.45,1.62,4.37c3.89,3.44,7.74,7.13,12.22,9.64C174.42,487.87,188.38,484.87,202.21,479.83z M197.4,437.1
		c0.31,0.91,0.44,1.89,0.94,2.62c3.23,4.75,8.26,6.45,13.51,7.72c0.43,0.1,1.05-0.06,1.41-0.33c3.18-2.37,6.32-4.79,9.68-7.35
		C214.62,434.08,206.25,435.03,197.4,437.1z"/>
	<path d="M89.09,440.28c-1.81,0-3.63-0.04-5.44,0.01c-8,0.18-11.97-5.77-12.56-10.99c-1.57-13.85,2.42-26.13,11.58-36.51
		c4.17-4.73,10.03-6.09,16.28-5.11c10.8,1.7,18.11,7.75,21.98,17.92c3.77,9.9,2.24,18.96-4.69,27c-4.34,5.04-10.06,7.2-16.58,7.39
		c-3.52,0.1-7.04,0.02-10.57,0.02C89.09,440.1,89.09,440.19,89.09,440.28z M104.89,412.46c4.35,0.02,6.86-2.2,7.33-6.5
		c0.05-0.49,0-1.12,0.28-1.44c2.09-2.41,0.01-3.7-1.58-4.23c-2.03-0.68-4.38-0.79-6.54-0.59c-3.07,0.28-6.32,4.21-6.14,6.92
		C98.41,409.4,101.88,412.45,104.89,412.46z"/>
	<path d="M241.02,504.24c-13.07,12.67-28.62,15.96-45.73,10.72c-10.64-3.26-20.02-9-25.98-18.8c0.21-0.27,0.41-0.54,0.62-0.81
		c2.65,1.96,5.38,3.82,7.95,5.89c8.49,6.83,18.43,9.24,29.03,9.78c10.27,0.52,19.92-1.65,29.07-6.32c1.44-0.74,3.19-0.88,4.8-1.29
		C240.86,503.68,240.94,503.96,241.02,504.24z"/>
	<path d="M308.67,859.93c-2.61,1.39-5.08,3.47-7.86,4.05c-8.03,1.68-16.15,3-24.29,4.01c-6.21,0.78-12.1-1.25-17.83-3.43
		c-0.76-0.29-1.25-1.26-1.87-1.91c0.11-0.26,0.21-0.52,0.32-0.79c1.22,0,2.48-0.23,3.64,0.03c12.33,2.79,24.5,2.11,36.58-1.45
		c2.78-0.82,5.59-1.58,8.42-2.19c0.82-0.18,1.78,0.27,2.68,0.43C308.52,859.1,308.6,859.52,308.67,859.93z"/>
	<path d="M177.66,855.19c-16.49,11.5-46.54,8.8-50.51,2.55c1.22,0.07,2.14,0,3,0.18c14.09,2.91,27.95,2.17,41.66-2.26
		C173.63,855.07,175.71,855.32,177.66,855.19z"/>
	<path d="M262.77,590.61c0.92,1.11,1.52,1.59,1.82,2.22c1.43,3.07,2.85,6.16,4.11,9.31c0.28,0.69,0.12,2.21-0.27,2.37
		c-0.89,0.39-2.19,0.54-3.05,0.16c-2.66-1.17-5.93-7.77-5.16-10.55C260.52,592.97,261.68,592.05,262.77,590.61z"/>
	<path d="M233.68,596.51c0.19-0.97,0.13-2.12,0.66-2.85c0.46-0.64,1.66-1.21,2.37-1.06c0.65,0.14,1.29,1.21,1.57,2.01
		c0.56,1.59,0.84,3.28,1.3,4.91c0.24,0.85,0.81,1.65,0.88,2.51c0.06,0.69-0.19,1.73-0.67,2.04c-0.47,0.31-1.56,0.12-2.12-0.25
		C235.07,602.13,233.61,599.75,233.68,596.51z"/>
	<path d="M244.9,592.53c1.9-1.47,3.75-1.19,5.1,0.46c1.42,1.74,2.59,3.75,3.57,5.78c0.3,0.64-0.16,1.99-0.72,2.56
		c-0.35,0.35-1.78,0.1-2.35-0.35c-1.15-0.91-2.22-2.03-3.01-3.26C246.49,596.16,245.82,594.41,244.9,592.53z"/>
	<path d="M191.04,602.87c-1.09-1.69-2.38-2.78-2.24-3.64c0.41-2.61,1.17-5.23,2.24-7.65c0.33-0.75,2.17-1.29,3.16-1.1
		c0.59,0.11,1.31,1.89,1.2,2.83c-0.25,2.17-0.83,4.33-1.58,6.39C193.49,600.64,192.44,601.32,191.04,602.87z"/>
	<path d="M183.63,587.99c-0.03,4.05-3.26,7.51-5.96,6.97c-0.63-0.13-1.62-1.54-1.46-2.04c0.68-2.06,1.55-4.11,2.74-5.92
		c0.58-0.89,2.49-1.96,2.95-1.66C182.89,585.99,183.33,587.48,183.63,587.99z"/>
	<path d="M165.61,591.11c-0.46-3.79,0.64-6.23,3.7-7.62c0.75-0.34,2.18-0.41,2.61,0.05c0.48,0.51,0.48,1.87,0.17,2.66
		C170.81,589.41,168.08,591.37,165.61,591.11z"/>
	<path d="M221.12,712.1c0.21,9.38-5.64,13.9-13.48,14.54c-6.42,0.52-11.82-7.56-11.83-12.95c-0.01-6.03,7.21-13.87,12.69-13.78
		C215.85,700.04,221.13,705.13,221.12,712.1z M208.42,718.66c3.96,0.02,5.43-1.44,5.42-5.4c-0.01-2.88-2.92-5.7-5.88-5.7
		c-2.21,0-5.28,3.52-5.34,6.13C202.56,716.65,204.88,718.64,208.42,718.66z"/>
	<path class="st0" d="M349.05,428.01c4.28,0.26,8.37,0.38,12.4,0.89c0.62,0.08,1.37,1.99,1.39,3.06c0.01,0.96-0.94,1.92-1.42,2.9
		c-2.21,4.53-3.99,5.43-7.88,3.91c-4.39-1.71-6.13-4.93-4.97-9.21C348.67,429.19,348.8,428.82,349.05,428.01z"/>
	<path class="st0" d="M202.21,479.83c-13.84,5.04-27.79,8.05-41.59,0.3c-4.48-2.51-8.33-6.21-12.22-9.64
		c-1.04-0.92-1.52-2.86-1.62-4.37c-0.6-9.54,2.58-17.57,10.77-22.79c2.5-1.59,6.11-2.01,9.21-2c7.21,0.03,14.43,1,21.63,0.92
		c4.04-0.04,6.51,1.5,9.28,4.17c6.31,6.09,11.8,6.14,21.34,0.41c3.62-2.18,7.53-2.57,11.18-2.04c9.43,1.38,18.63,3.84,27.48,7.56
		c9.9,4.16,15.22,11.01,14.8,20.16c-0.32,6.82-3.04,13.33-12.51,15.83c-9.12,2.41-18.11,3.44-27.41,2.17
		c-8.56-1.17-16.41-4.11-22.91-9.9c-1.6-1.42-2.9-3.59-3.49-5.65c-1.26-4.43-2.18-8.99-0.56-13.64c0.27-0.77-0.48-1.89-0.75-2.85
		c-0.65,0.71-1.6,1.32-1.9,2.16C200.44,467.71,200.38,470.33,202.21,479.83z"/>
	<path class="st0" d="M197.4,437.1c8.85-2.07,17.22-3.02,25.53,2.66c-3.35,2.56-6.49,4.98-9.68,7.35c-0.36,0.27-0.98,0.43-1.41,0.33
		c-5.24-1.27-10.27-2.98-13.51-7.72C197.84,438.99,197.71,438.01,197.4,437.1z"/>
	<path class="st0" d="M104.89,412.46c-3.01-0.02-6.48-3.07-6.66-5.85c-0.17-2.7,3.08-6.64,6.14-6.92c2.16-0.2,4.51-0.09,6.54,0.59
		c1.59,0.53,3.67,1.82,1.58,4.23c-0.28,0.32-0.22,0.95-0.28,1.44C111.74,410.26,109.24,412.49,104.89,412.46z"/>
	<path class="st0" d="M208.42,718.66c-3.54-0.02-5.87-2.01-5.8-4.97c0.06-2.61,3.13-6.14,5.34-6.13c2.97,0,5.87,2.82,5.88,5.7
		C213.86,717.21,212.38,718.68,208.42,718.66z"/>
</g>
</svg>
