<?xml version="1.0" encoding="utf-8"?>
<!-- Generator: Adobe Illustrator 26.0.0, SVG Export Plug-In . SVG Version: 6.00 Build 0)  -->
<svg version="1.1" id="Capa_1" xmlns="http://www.w3.org/2000/svg" xmlns:xlink="http://www.w3.org/1999/xlink" x="0px" y="0px"
	 viewBox="0 0 595.3 912.7" style="enable-background:new 0 0 595.3 912.7;" xml:space="preserve">
<style type="text/css">
	.st0{fill:#FFFFFF;}
</style>
<g>
	<path d="M134.9,586.2c-0.9-6.1,1.7-10.9,4.6-16.1c-3.2-1.6-6.3-3.3-9.5-4.9c-13.3-6.8-26.2-14.2-36.8-24.9
		c-10-10-18.4-21.3-25.2-33.7c-11.1-20.3-20.5-41.3-26.8-63.6c-4.1-14.5-6.3-29.2-7-44.3c-0.7-16.5,0.2-32.8,3.5-48.9
		c5-24.1,15.1-45.9,28.9-66.1c9.2-13.4,18.9-26.3,30.8-37.5c13.1-12.4,27.8-22.5,44.2-30c0.7-0.3,1.4-0.7,2.3-1.2
		c-2.7-6.4-5.6-12.7-8-19.1c-5.5-14.8-11.8-29.1-20.1-42.7c-10.4-17-23.4-31.6-38.3-44.8C61,93.7,45,78.2,29.2,62.5
		C20,53.4,16.3,41.6,17.4,28.8c0.9-10.6,8.3-17,16.4-22.6c10.9-7.7,22.9-6.9,35.1-4.6C86,5,99.7,14.4,112.3,26
		c15.5,14.3,27.5,30.9,35.8,50.3c7.4,17.5,15,34.9,21.8,52.6c4.1,10.8,7.3,21.9,10,33.2c1.9,7.9,2.5,16.2,3.7,24.4
		c0.2,1.1,0.3,2.2,0.7,3.2c1.3,3.4,2.1,6.9,0.7,10.5c-0.1,0.3,0.1,0.7,0.3,1.2c4.9-0.8,9.7-1.9,14.6-2.3c6.6-0.6,13.2-1,19.8-1
		c7.9,0,15.9,0.4,23.8,0.8c14.7,0.7,29.4,0.9,44,2.3c14.8,1.4,29.1,5.5,43.4,9.9c9.6,2.9,19.5,4.4,29.4,6.4c0.9,0.2,2.5-0.6,2.8-1.4
		c5.2-10.3,13.2-18.5,20.6-27.1c12.8-14.9,27-28.5,41.8-41.4c22.8-19.9,48-35.7,75.9-47.4c11.7-4.9,24-8.2,36.7-9.4
		c27.2-2.4,47,11.1,55.4,34.3c3.6,10,1.7,19.5-2.9,28.8c-7.2,14.6-18.5,24.6-33.9,29.8c-27.2,9-54.4,17.8-81.5,27
		c-20.4,7-40,15.9-57.9,27.9c-5.2,3.5-9.7,8.1-14.7,12.3c0.7,1,0.9,1.9,1.5,2.3c5.1,2.9,7.2,8.3,10.7,12.4
		c7.6,8.9,15.1,17.8,22.5,26.9c15.7,19.4,26.5,41.4,33.2,65.4c4.8,17.4,7.1,35.1,6.7,53.1c-0.6,27.5-7.4,53.3-21.1,77.1
		c-15.3,26.7-34.1,50.5-58.9,69.2c-19.8,14.9-42.3,23.7-66.8,27.6c-4.4,0.7-8.8,1.2-13.5,1.8c3.4,6.5,0.5,12.7-1.2,18.6
		c26.4,12.1,44.6,32.2,58.1,57.1c8.9,16.4,14.9,33.8,17.8,52.2c1.1,7,2.2,14-0.9,20.8c-0.3,0.7-0.7,1.5-1.1,2.2
		c-7,12.3-15.8,11-26,0.7c-2.6-2.6-3.8-6.5-5.8-9.9c-3.4,2.3-7.5,2-11.6,1.1c-5.2-1.1-7.9-4.7-7.2-10.1c0.8-5.5,1.9-10.9,2.6-16.4
		c1.4-9.3-1.2-17.9-5.2-26.2c-4.8-10.2-11.8-18.6-20.6-25.7c-0.8-0.6-1.6-1.1-3.2-2.3c-0.3,11.7-0.6,22.7-1,33.7
		c5.7,0.1,5.8,0.1,7,5.8c2.3,10.4,0.5,19.8-7.4,27.4c-1.7,1.6-3.9,2.8-6,4.3c1.6,5.1-2.3,8.3-4.9,11.8c-1.4,1.9-1.8,3.5-1.6,5.8
		c1.4,14.9,2.6,29.9,4,44.8c0.6,6.4,1.1,12.8,1.9,19.2c0.1,0.7,1,1.8,1.7,2c7.2,1.9,9.6,7.9,9.8,13.5c0.6,13.9,1.6,27.7,2.1,41.6
		c0.2,4.6,1.7,8.2,4.5,11.7c4.3,5.4,7,11.6,6.5,18.7c-0.8,9.5-9.4,18-19.6,20.5c-9.5,2.2-19,3.8-28.7,3c-11.4-0.9-22.8-2.3-31.4-11
		c-6-6-10.1-12.9-9.7-21.9c0.4-7.5,0.7-15.1,0.6-22.6c-0.2-8.1-0.7-16.3-1.5-24.4c-0.8-8.7-0.5-17.2,2-25.7c0.6-2.1,1.4-3.5,3.9-3.4
		c0.2-2.6,0.5-5.1,0.5-7.6c0.2-12.2,0.4-24.4,0.5-36.5c0-2.4-1.2-3.3-3.7-3.1c-7.4,0.5-14.9,1.1-22.3,1.2
		c-5.5,0.1-11.1-0.4-16.6-0.8c-1.7-0.1-2.8,0.3-4.2,1.6c-6.8,6.8-8.4,15.8-11.2,24.4c-1.8,5.7-2.9,11.7-4.3,17.7
		c3.5,2,4.1,5,4.3,8.7c0.7,18.2,1.8,36.4,2.4,54.6c0.2,7.9-0.3,15.9-0.8,23.8c-0.3,4-3.9,7.4-7.8,8.2c-6.6,1.3-13.2,2.9-19.9,3.7
		c-10.9,1.2-21.8,1.8-32.8,2.5c-5.8,0.3-11.7,0.4-17.5,0c-5.6-0.3-10.4-3-14.6-6.7c-1.1-1-1.9-2.9-2-4.4
		c-0.4-10.7,3.6-19.6,11.5-26.8c2.6-2.4,5-4.9,7.8-7.2c2.1-1.7,2.7-3.8,2.8-6.3c0.4-14.8,0.8-29.6,1.2-44.4c0.1-2.1-0.2-4.4,0.4-6.3
		c0.4-1.3,2.2-2.2,3.5-3c1-0.6,2.3-0.7,3.2-1c1.4-7.7,2.2-15.5,4.2-22.9c2.7-9.9,6.4-19.5,9.6-29.2c1.2-3.5,2.2-7.1,3.2-10.7
		c0.2-0.7,0.1-1.6-0.1-2.3c-1-2.8-2.1-5.6-3.3-8.3c-0.3-0.7-1.1-1.4-1.8-1.6c-1.6-0.6-3.3-0.8-4.9-1.3c-9.9-3.2-14.1-16.8-7.6-26
		c1.9-2.7,2.4-5.3,2.6-8.5c1-14.8,2.3-29.5,3.5-44.2c0.4-4.9,1-9.7,1.6-15.6c-6.8,1-13,1.7-19.2,3c-15.5,3.2-31,3.3-46.5,0.2
		c-7.4-1.5-15-3.2-22-6c-7.8-3.1-15.1-7.4-22.5-11.5c-3-1.7-6-3-9.6-3.1c-6.8-0.3-11.5-5.6-12.4-13.3c-1.2-10.4,2-19.2,9.9-25.9
		c2.1-1.7,5.3-2.1,7.9-3.2c1.2-0.5,2.2-1.2,3.4-1.9c-0.6-1-1.1-2.5-2-3c-5.3-3.4-6.4-8.5-5.6-14.2c0.4-2.7,1.2-5.3,1.8-7.9
		c0.8-3.5,3.1-5.9,6.5-6.9c3.2-0.9,6.5-1.5,9.8-1.8c2.6-0.3,4.4,2.8,3.4,5.6c-0.3,0.9-1,1.7-1.5,2.6c-1.2,2.4-2.3,4.9-3.7,7.8
		c4.5,0,7.8,0,11.8,0c0.6-3.5,1.1-7.2,1.7-10.8c0.2-1.5,0.3-3,0.9-4.4c1.3-2.8,3.3-2.9,5.4-0.8c1.6,1.6,3.3,3.4,5.2,4.6
		c5,3.1,5.4,8,5,13c-0.4,5.1-3.1,9-6.8,12.4c-0.8,0.8-1.7,1.5-2.3,2.4c-1.1,1.7-0.7,3.1,1,4c7.6,4.1,15.2,8.2,22.8,12.2
		c16.8,8.7,34.5,11.7,53.2,8.8C130.2,586.4,132.6,586.4,134.9,586.2z"/>
	<path d="M49.6,341.9c-0.4-0.1-0.8-0.2-1.2-0.4c-1.6,9.8-3.5,19.6-4.7,29.4c-2.2,18.1-1.2,36.2,2.3,54.1
		c4.6,23.4,12.8,45.5,23.7,66.8c16.8,32.7,41.9,56.5,75.7,71c18.6,8,38.3,12,58.2,14.5c23,2.9,46.2,3,69.4,2.3
		c21.6-0.7,43.2-2.8,64.5-6.5c24.4-4.2,45.9-14.9,64.4-31.5c15.2-13.6,28.1-29.1,38.6-46.6c4.5-7.4,11.4-14.2,9.4-24.3
		c2.2-21.5-3.7-41.9-8.4-62.4c-1.2-5.2-3.5-10.3-5.7-15.2c-4.5-9.8-7.5-20.4-14.4-29c-4.1-5.1-7.6-10.6-11.9-15.6
		c-5.1-5.9-10.6-11.5-16.1-17.2c-2.9-3-6.4-4.8-10.5-5.5c-2.4-0.4-4.6-1.3-7-1.8c-0.7-0.2-1.8-0.1-2.3,0.4
		c-6.7,5.8-13.2,11.8-20,17.4c-11.1,9.3-23.7,15.8-38.2,17.3c-23.1,2.3-44.1-4-62-18.5c-15.2-12.2-29.4-25.7-43.9-38.8
		c-15.7-14.2-34.2-19.8-54.9-16.5c-9.2,1.4-18.1,4.5-27.1,7c-19.7,5.5-37.5,14.8-53.6,27.4c-7.4,5.8-15.2,11-20.6,18.9
		C52.4,339.9,50.8,340.8,49.6,341.9z"/>
	<path d="M40.3,611.3c2.1,1,3.5,1.6,4.8,2.2c8.6,4.1,17.4,7.2,27,8.1c13.2,1.3,26.4,1.7,39.3-1.5c8-2,16.1-2.6,24.2-2.4
		c1.6,0,3.5-0.2,3.6,2.1c0.1,3.2,0.6,6.5,0.2,9.6c-1.4,10.9-3.4,21.7-4.6,32.5c-0.9,8.8-0.9,17.6-1.3,26.3c1.7,0.4,2.8,0.7,3.8,1
		c15.6,4.6,31.6,7,47.9,7c1.4,0,3.1-0.3,4.2-1.2c4.8-4,10.3-6.2,16.4-6.8c7.1-0.8,13.9,0.3,19.6,5c2.2,1.8,3.9,3.2,7.3,2.9
		c7.1-0.8,14.3-0.4,21.4-1c11.3-1.1,22.6-2.5,33.8-4.1c6-0.8,12-2.3,17.7-3.5c0-12,0-23.6,0-35.2c0-2.8,0.5-5.7,0.1-8.4
		c-0.2-1.5-1.2-2.6,0.5-4c1.6-1.3,2.9-0.8,4.4,0.1c7.5,4.2,14.3,9.5,19.7,16.2c14.5,17.9,21.4,37.6,14.4,60.6
		c-0.3,1.1-0.7,2.8-0.1,3.5c1.9,2.3,4.7,3,7.7,2.5c2.4-0.4,4.3-1.2,4.9-4.1c0.4-1.8,1.2-3.9,2.5-5.2c1.6-1.6,4.2-0.4,4.2,1.7
		c0,2.6,0.1,5.3-0.5,7.8c-0.9,3.8-0.1,7.3,2.5,9.8c2.5,2.4,5.7,4.3,9,5.8c4.8,2.1,7.6,0.5,8.9-4.6c1.7-6.8,2.1-13.8,0.8-20.7
		c-3.5-19-10.5-36.8-20.7-53.3c-5.4-8.7-11.1-17.4-18-24.8c-8.8-9.4-19.3-17-30.6-23.3c-2.7-1.5-4.9-2.2-8.1-1.8
		c-17.9,2.8-35.8,5.3-53.7,8.1c-5.6,0.9-11.3,1.3-16.6,3.8c-5.2,2.5-9.7-0.3-11.9-5.7c-2.7-6.6-5.7-13.1-8.6-19.7
		c-0.4,0-0.8,0-1.2-0.1c-4.4,6.1-8.9,12.1-13.1,18.3c-1.1,1.7-2.4,2.3-4.2,2c-8.7-1.5-17.3-3.7-25.2-7.8c-9.3-5-18.4-10.3-27.5-15.6
		c-2.4-1.4-4.6-1.7-7.2-1.1c-21.1,4.9-41.6,2.5-61.2-6.4c-9.1-4.1-17.7-9.1-26.5-13.6c-3.7-1.9-5.1-1.2-5.8,2.9
		c-0.6,3.8-0.6,7.8,2.8,10.3c3.2,2.4,6.5,0.9,9.6-0.9c1.4-0.8,3.1-1.8,4.2,0.1c1.2,2,0.4,3.8-1.6,4.8c-2.2,1.1-4.6,2.1-7,2.8
		c-1.6,0.5-2.4,0.9-2.8,2.8C48.2,601,48.4,608.2,40.3,611.3z"/>
	<path d="M334.6,244.7c0-0.6,0-1.2,0-1.8c-12.3-4.1-24.6-8.5-37.1-12.1c-15.7-4.5-31.8-6.8-48.1-7.6c-28-1.4-55.5,1.5-82.4,9.5
		c-14.1,4.2-27.9,9.2-40.6,16.6c-12.7,7.4-25,15.7-37.1,24.2c-5.3,3.7-10.4,8.2-14.2,13.4c-5.6,7.6-10.5,16-14.9,24.4
		c-3.9,7.6-6.7,15.7-10,23.6c8-7.8,15.5-15.9,23.8-23c16.9-14.5,36.5-24.4,57.8-30.8c15.2-4.5,30.7-5,46.4-4.4
		c6.3,0.2,12.8,0.9,18.3,4.2c16.6,9.8,31.8,21.4,44.7,35.6c15.5,17,33.9,28.6,56.8,32.1c5.5,0.9,11.3,1.1,16.8,0.6
		c10.6-0.9,19.9-5.5,28.4-11.7c7.9-5.8,15.4-11.9,22.9-18.2c3.6-3,6.7-6.7,10-10.1c-0.2-0.3-0.4-0.6-0.6-1c-2.7,0.1-5.3,0.4-8,0.4
		c-12.3-0.1-24.6-0.2-36.9-0.4c-0.7,0-1.8-1.3-2.1-2.2c-0.5-1.4,0.3-2.2,2-2.6c20.4-5.2,34.9-17.2,42.5-37.1
		c0.8-2.2,1.5-4.5,2.3-7.1c-0.9,0.4-1.2,0.4-1.4,0.6c-12.2,9-26,12.4-41,11.5c-2.3-0.1-3.6-1.1-4-3.3c-0.4-2,0.7-3,2.6-3.7
		c6.1-2.4,11.3-6.2,15.6-11.1c2-2.4,3.5-5.3,5.2-7.9c-5.3,2-9.9,4.4-14.7,6.4c-17.1,7.3-34.9,10.1-53.4,8.4
		c-6.5-0.6-12.9-2.1-19.4-2.9c-9.3-1.2-18.6-2-27.9-3.1c-7-0.8-14-1.9-21-2.9c0.7-0.9,1.4-1.2,2.1-1.2c10.7-0.3,21.3-0.8,32-0.8
		c5.4,0,10.9,0.5,16.2,1.5c15.9,3.2,31.8,3.2,47.6-0.4C321.1,248.7,327.8,246.6,334.6,244.7z"/>
	<path d="M395.7,243c9.9-8.7,20.5-16.9,32.6-22.7c11.8-5.7,23.9-11,36.2-15.5c25.8-9.4,51.8-18.4,78-26.9
		c14.3-4.6,26.4-11.4,35.9-23.5c8.3-10.6,7.6-21.8,2.4-32.2c-5.7-11.3-16-18.5-29-20.5c-9.3-1.5-18.7-1-27.7,2.1
		c-9.9,3.4-20,6.1-29.6,10.2c-26.2,11-49.1,26.9-69,47.2c-18.3,18.8-36.7,37.6-55,56.4c-0.9,0.9-1.5,2-1.9,2.5
		C377.9,227.9,386.7,235.3,395.7,243z"/>
	<path d="M181.4,201.8c-0.6-2-1.2-4.2-1.9-6.3c-1-3-2.4-5.9-3.2-9c-5-21.1-10.3-42-17.6-62.5c-10.1-28.4-23-55.2-42.7-78.4
		C107,34.8,97,25.1,84.1,18.9C72.8,13.5,61.2,9.3,48.2,11c-11.6,1.5-19.4,8.2-20.2,18.5c-0.4,4.8-0.1,9.7,0.9,14.4
		c0.7,3.6,2.5,7.3,4.6,10.3c9.2,12.5,21,22.5,33.3,31.8c13.7,10.3,26.6,21.5,37.7,34.7c11.7,13.9,20.8,29.3,28.8,45.5
		c5.6,11.3,11.4,22.4,14.3,34.7c0.9,3.8,1.6,7.6,2.4,11.1C160.5,208.7,170.7,205.3,181.4,201.8z"/>
	<path d="M284.6,906.3c0-0.3,0.1-0.5,0.1-0.8c12.2,0.4,23.1-3.6,33.5-9.5c4-2.3,5.5-9,3.3-13c-2.9-5.2-5.8-10.3-8.5-15.6
		c-1.1-2.3-2-4.9-2.1-7.4c-0.4-5.7,0-11.5-0.4-17.2c-0.7-9.5-1.6-19-2.9-28.5c-0.6-4.7-2.3-5.4-6.6-3.4c-10.9,5-22.4,6.5-34.2,5.9
		c-6.2-0.3-12.2-1.4-17-5.8c-0.9-0.8-2.3-1-3.4-1.5c-0.4,1.2-1.1,2.4-1.1,3.6c-0.8,13.8-0.2,27.5,1,41.3c0.6,7.2,1.9,14.4-0.8,21.5
		c-0.7,1.7-0.3,4,0.1,6c2,10.8,9.3,17.4,19,20.8C270.9,904.8,277.9,905.1,284.6,906.3z"/>
	<path d="M124.5,801.5c0,7.5-0.1,14,0,20.5c0.2,10.4,0.6,20.7-1.3,31c-0.7,3.7-2,6.8-5.1,9.2c-2.2,1.7-4.3,3.7-5.9,6
		c-3.5,4.9-6.9,9.9-9.7,15.2c-2.7,5.1-1.6,7.5,3.6,9.9c1.5,0.7,3.2,1.6,4.8,1.6c9.4,0.1,18.9,0.5,28.3-0.1c13.8-1,27.4-3.7,40.8-7.4
		c0.9-0.3,2.2-1.4,2.2-2.2c0.5-6.5,1.2-13,0.9-19.5c-0.4-9-1.7-18-2.3-27c-0.4-5.8-0.1-11.7-0.4-17.5c-0.2-4.2-0.7-8.5-1.1-13
		c-11.3,4.2-22.3,4.5-33.5,2.8c-5.5-0.8-10.4-2.9-14.8-6.2C129.4,803.5,127.3,802.8,124.5,801.5z"/>
	<path d="M377.7,320.7C377.5,320.6,377.6,320.7,377.7,320.7c0.4,0.1,0.8,0.2,1.1,0.2c9.5,1.3,17.8,5.1,24.4,12.1
		c3.2,3.3,5.8,7.2,9,10.5c9.6,9.7,17.6,20.4,23.7,32.6c9.1,18.1,14.7,37.3,18.7,57.1c0.7,3.6,1.4,7.3,2,11c0.3,0,0.6,0,1-0.1
		c0.2-6.1,0.9-12.2,0.5-18.2c-1.5-26.6-8.9-51.9-20.5-75.7c-12.6-25.8-30.2-48.1-52-67.1c-2.6-2.3-5.3-4.5-8.1-6.9
		c-5.9,10.7-14.3,18.6-24,25.8c11.1,0,21.5,0,32.9,0C383.3,308.6,380.5,314.6,377.7,320.7z"/>
	<path d="M192.1,754.8c-16.5-2.9-31.4-9.4-45-19c-0.4,0.7-0.6,1.2-0.8,1.6c-3.3,10.7-6.4,21.5-9.9,32.2c-2.9,9-4.8,18.1-3.5,27.5
		c0.1,1,0.8,2.3,1.6,2.7c12.5,6,25.4,6.9,38.7,3.1c2.5-0.7,3.3-1.9,3.7-4.2C179.6,783.5,183.7,768.6,192.1,754.8z"/>
	<path d="M249.5,755.5c0.5,4.7,1.5,9.4,1.5,14.1c0.1,10.8-0.4,21.5-0.4,32.3c0,1.1,0.6,2.8,1.5,3.2c4.5,2,9,4.7,13.7,5
		c6.7,0.5,13.6-0.6,20.3-1.4c3.5-0.4,7-1.7,10.4-2.9c1.6-0.5,2.2-1.7,1.8-3.8c-3-17-4.9-34-5.1-51.3c0-3.4-0.4-6.9-0.7-11
		c-6.5,5.4-13.2,8.9-20.7,10.8C264.2,752.5,256.6,753.9,249.5,755.5z"/>
	<path d="M143.4,721.5c6.5,10,14.6,16.2,25.1,19.2c7.6,2.2,15.3,4.1,23,6c12.7,3.2,25.6,3.9,38.7,2.5c8-0.8,16-1.9,23.9-3.2
		c11.1-1.8,22.1-4.1,31.7-10.6c4.8-3.2,8.3-7.3,10.6-13.2c-2,0.5-3.4,1-4.9,1.2c-5.7,0.8-11.3,2.2-17,2.3c-13.5,0.3-27,0.2-40.5,0
		c-2.3,0-3.8,0.6-5.2,2.5c-9.8,13-31.8,15.1-41.6-1.5c-1-1.8-2.1-2.3-4-2.3c-11.1,0.3-22.1-0.1-33.1-2.1
		C148.1,722.2,146.2,722,143.4,721.5z"/>
	<path d="M358.7,229c-2.2-0.9-3.5-1.6-4.8-2c-18.2-6.3-36.9-11.2-55.7-15.2c-14.8-3.1-29.8-4.7-44.9-5.2
		c-16.8-0.5-33.6-0.7-50.4,1.5c-36.6,4.9-69.1,19.2-97.2,43.3c-2.1,1.8-4.1,3.8-6.1,5.8c0.2,0.2,0.3,0.4,0.5,0.6
		c4.3-3.1,8.3-6.5,12.8-9.3c12.9-8.1,26.5-15.1,40.9-20.3c17.5-6.2,35.5-10.4,54.1-11.6c12.1-0.8,24.4-2.1,36.5-1.5
		c13.3,0.6,26.6,2.6,39.8,4.8c18.6,3,36.6,8.2,53.4,16.8c1.8,0.9,3.2,2.4,5.2,4C347.6,237.1,352.9,233.3,358.7,229z"/>
	<path d="M381.1,270.4c50.3,40,80.5,91.1,84.8,155.7c-0.3,0.5-0.1,0.4-0.1,0.2c0.2-2.2,0.3-4.4,0.5-6.6c1.6-17,0.5-33.8-3.3-50.4
		c-5.4-23.7-15.3-45.4-29.6-65c-12.4-17-25.8-33.2-40.1-48.7c-2.4-2.6-5-5-7.4-7.4C384.3,255.7,382.7,263.1,381.1,270.4z"/>
	<path d="M220.2,588.3c1.5,2.4,3.1,4.3,4,6.4c2.2,5.1,4.1,10.2,6.1,15.4c1.6,4.1,1.8,4.2,6.1,3.4c8.4-1.4,16.9-2.6,25.3-3.9
		c14.9-2.4,29.7-4.8,44.6-7.3c0.7-0.1,1.8-0.6,1.9-1.1c1-4.6,1.9-9.3,3-14.6C280.3,589.5,250.4,589.5,220.2,588.3z"/>
	<path d="M233.8,701.6c0,6.5,0,12.6,0,18.4c10.9-0.2,22.1-0.6,33.2-0.7c13.2-0.1,25.9-2.1,37.9-8.4c6.9-3.6,9.1-9.8,7.4-18
		c-1.7,1-3.5,2.6-5.5,2.9c-7.4,1.3-14.9,2.2-22.4,3.2C267.4,701.1,250.5,702.6,233.8,701.6z"/>
	<path d="M144.7,572.2c-1.4,3-2.8,5.7-3.8,8.5c-0.2,0.6,0.5,2,1.2,2.5c16.1,11.2,33.6,19.6,52.1,26c1.9,0.6,3.2,0.3,4.2-1.5
		c1.3-2.3,2.8-4.6,4.4-6.8c3.2-4.3,6.5-8.5,9.9-13C189.2,586.3,166.6,581.2,144.7,572.2z"/>
	<path d="M27.9,534.2c-2.1,0.1-4.7,0.1-6.2,2.7c-2.5,4.4-3.6,9.1-2.6,14.2c0.4,2.1,1.1,3.9,3.9,4.3c2.3,0.4,3.6,1.9,2.9,4.6
		c-0.4,1.6-0.3,3.3-0.4,5c0.2-0.1,0.4-0.2,0.6-0.4c1.9,2.7,4.5,5.1,5.5,8c2.8,8.8,1.7,17.3-3.4,25.1c-2.2,3.4-0.3,7.8,3.8,8.4
		c5.6,0.8,10-2.3,11-7.8c0.2-1.2,0.3-2.4,0.5-3.6c0.6-2.7,0-4.9-1.9-7.2c-5.1-6.3-5-15.6,0.2-20.7c1.9-1.8,3.2-3.6,3.4-6.3
		c0.1-0.8,0.8-1.9,1.6-2.4c3.6-2.3,5.6-5.6,7-9.5c1.8-4.7,0-9.7-4.3-11.9c-1,3.6-2,7.3-3.2,10.8c-0.4,1.1-1.9,2.4-2.9,2.5
		c-4.3,0.3-8.7,0.2-13,0c-2.4-0.1-4.1-1.3-3.9-3.9C26.8,542.4,27.4,538.5,27.9,534.2z"/>
	<path d="M130.5,694.1c-6,8.6-1.6,16.7,5.2,19c5.1,1.8,10.5,2.7,15.8,3.3c9.2,1,18.4,1.5,27.6,2.2c1.6,0.1,3.1,0.3,4.1,0.4
		c0.4-5,0.8-9.7,1.2-14.5c-5-0.6-10.4-1.2-15.7-2c-5.5-0.8-11-1.5-16.4-2.5C145,698.8,137.1,699,130.5,694.1z"/>
	<path d="M209.2,696c-1.2,0-2.4,0.1-3.6,0c-3.9-0.3-7.2,1.2-10,3.5c-1.5,1.2-1.8,3.8-2.7,5.7c-0.4,1-0.8,2-1.2,3.1
		c-2.3,6.3-1.5,12.2,2.9,17.2c4.8,5.4,11,8,18.4,6.4c9.2-2,12.8-8.9,14.1-17.2c1.7-11.2-5-18.6-16.1-18.6
		C210.4,696,209.8,696,209.2,696z"/>
	<path d="M26.8,581.7c-0.2-1.4-0.4-3.7-0.9-6c-1.3-5.6-3.2-6.6-8.6-4.9c-0.8,0.2-1.5,0.6-2.2,1c-9.6,4.9-12.8,19.9-5.8,28.2
		c0.5,0.6,1.4,1.2,2.2,1.3c4.4,0.4,8.4-0.7,11.1-4.5C25.7,592.6,26.5,587.7,26.8,581.7z"/>
	<path d="M366.6,232.3c-2.5,5.8-4.6,10.7-6.6,15.7c-0.2,0.6,0.3,1.9,0.9,2.5c1.5,1.4,3.2,2.7,5,3.8c0.7,0.4,2.1,0.8,2.5,0.4
		c3.7-3.6,7.2-7.4,10.7-11.2c0.4-0.4,0.4-1.9,0-2.2C375,238.2,370.8,235.3,366.6,232.3z"/>
	<path d="M359.3,258.9c0-0.3,0-0.5,0-0.8c-1.3-0.8-2.6-1.5-4.1-2.3c-0.6,1.5-1.1,2.7-1.9,4.6C355.8,259.8,357.5,259.4,359.3,258.9z"
		/>
	<path class="st0" d="M49.6,341.9c1.3-1.1,2.8-2,3.7-3.3c5.4-7.9,13.2-13.1,20.6-18.9c16.1-12.6,33.9-21.9,53.6-27.4
		c9-2.5,17.9-5.6,27.1-7c20.8-3.2,39.2,2.3,54.9,16.5c14.5,13.1,28.7,26.6,43.9,38.8c17.9,14.4,38.9,20.8,62,18.5
		c14.5-1.5,27.1-8,38.2-17.3c6.8-5.7,13.3-11.6,20-17.4c0.5-0.4,1.6-0.5,2.3-0.4c2.4,0.5,4.6,1.4,7,1.8c4.1,0.7,7.6,2.5,10.5,5.5
		c5.4,5.7,11,11.2,16.1,17.2c4.2,5,7.8,10.5,11.9,15.6c6.9,8.6,9.9,19.2,14.4,29c2.2,4.9,4.5,10,5.7,15.2
		c4.7,20.5,10.6,40.9,8.4,62.4c2,10-4.9,16.8-9.4,24.3C430,512.5,417,528,401.9,541.6c-18.5,16.6-40,27.3-64.4,31.5
		c-21.3,3.7-42.8,5.8-64.5,6.5c-23.2,0.8-46.4,0.6-69.4-2.3c-19.9-2.5-39.7-6.5-58.2-14.5c-33.7-14.5-58.8-38.3-75.7-71
		C58.8,470.6,50.6,448.5,46,425c-3.5-17.9-4.5-36-2.3-54.1c1.2-9.9,3.1-19.6,4.7-29.4C48.8,341.7,49.2,341.8,49.6,341.9z
		 M371.2,447.8c0-11.2-2.3-18.9-6.7-26.1c-6.4-10.6-23.9-15.6-33.5-10.3c-6.9,3.8-13.1,8.6-15.8,16.3c-1.7,4.9-2.5,10.2-2.9,15.3
		c-0.2,3.1-1.4,6.6,1.8,9.6c12.5,11.4,26.9,17.5,43.9,17.9c3.6,0.1,5.9-1.3,7.6-4.3C369.3,459.5,371.3,452.6,371.2,447.8z
		 M236.6,496c8.1,1.5,15.8,1.5,23.7-0.7c8.7-2.5,14.5-7.5,16.9-16.2c2.4-8.7,1.5-16.8-5.4-23.4c-8.3-7.9-18.8-11.7-29.5-14.9
		c-6.6-2-13.9-0.9-19.9-6.5c-5.9-5.4-14.1-4.3-21.7-3.5c-4.2,0.4-7.2,2.2-8.4,6.2c-3.4-0.4-6.5-1-9.7-1.1
		c-6.5-0.2-13.2-1.3-19.4,0.1c-15.8,3.7-23.2,14.7-21.9,30.9c0.1,1.9,0.5,4.4,1.7,5.6c8.8,8.9,18.8,15.7,31.7,16.9
		c2.4,0.2,3.7,0.9,4.8,3.1c0.7,1.4,2.1,2.7,3.5,3.6c12,7.7,25,10.7,39.1,7.5c2.6-0.6,5.2-1.8,7.8-2.1
		C233.4,501,236.1,500.1,236.6,496z M89.1,440.3c0-0.1,0-0.2,0-0.3c3.5,0,7.1,0.1,10.6,0c6.5-0.2,12.2-2.4,16.6-7.4
		c6.9-8,8.5-17.1,4.7-27c-3.9-10.2-11.2-16.2-22-17.9c-6.3-1-12.1,0.4-16.3,5.1c-9.2,10.4-13.2,22.6-11.6,36.5
		c0.6,5.2,4.6,11.2,12.6,11C85.5,440.2,87.3,440.3,89.1,440.3z M241,504.2c-0.1-0.3-0.2-0.6-0.2-0.8c-1.6,0.4-3.4,0.6-4.8,1.3
		c-9.1,4.7-18.8,6.8-29.1,6.3c-10.6-0.5-20.6-2.9-29-9.8c-2.6-2.1-5.3-3.9-7.9-5.9c-0.2,0.3-0.4,0.5-0.6,0.8
		c6,9.8,15.3,15.5,26,18.8C212.4,520.2,227.9,516.9,241,504.2z"/>
	<path class="st0" d="M40.3,611.3c8-3.1,7.9-10.3,9.5-16.5c0.5-1.8,1.2-2.3,2.8-2.8c2.4-0.7,4.8-1.6,7-2.8c1.9-1,2.7-2.8,1.6-4.8
		c-1.2-1.9-2.8-0.9-4.2-0.1c-3.1,1.8-6.4,3.3-9.6,0.9c-3.3-2.5-3.4-6.5-2.8-10.3c0.7-4.1,2.1-4.8,5.8-2.9
		c8.8,4.5,17.5,9.5,26.5,13.6c19.6,8.8,40.1,11.3,61.2,6.4c2.6-0.6,4.8-0.3,7.2,1.1c9.1,5.4,18.2,10.7,27.5,15.6
		c7.9,4.2,16.4,6.3,25.2,7.8c1.9,0.3,3.1-0.3,4.2-2c4.3-6.2,8.7-12.2,13.1-18.3c0.4,0,0.8,0,1.2,0.1c2.9,6.5,5.9,13,8.6,19.7
		c2.2,5.4,6.7,8.2,11.9,5.7c5.4-2.5,11-3,16.6-3.8c17.9-2.8,35.9-5.2,53.7-8.1c3.2-0.5,5.4,0.2,8.1,1.8
		c11.3,6.3,21.8,13.9,30.6,23.3c6.9,7.4,12.6,16.1,18,24.8c10.1,16.4,17.1,34.2,20.7,53.3c1.3,6.9,0.9,13.8-0.8,20.7
		c-1.3,5.1-4.1,6.7-8.9,4.6c-3.2-1.4-6.4-3.3-9-5.8c-2.6-2.5-3.4-6-2.5-9.8c0.6-2.5,0.5-5.2,0.5-7.8c0-2-2.7-3.2-4.2-1.7
		c-1.3,1.3-2.1,3.3-2.5,5.2c-0.6,2.9-2.5,3.7-4.9,4.1c-3,0.5-5.7-0.1-7.7-2.5c-0.6-0.7-0.2-2.4,0.1-3.5c7-23,0-42.8-14.4-60.6
		c-5.4-6.7-12.2-12-19.7-16.2c-1.5-0.8-2.8-1.4-4.4-0.1c-1.6,1.3-0.6,2.5-0.5,4c0.4,2.8-0.1,5.6-0.1,8.4c0,11.6,0,23.3,0,35.2
		c-5.8,1.1-11.7,2.6-17.7,3.5c-11.2,1.6-22.5,3-33.8,4.1c-7.1,0.7-14.3,0.2-21.4,1c-3.4,0.4-5.1-1.1-7.3-2.9
		c-5.7-4.7-12.4-5.8-19.6-5c-6.1,0.7-11.6,2.8-16.4,6.8c-1,0.8-2.8,1.2-4.2,1.2c-16.3,0.1-32.2-2.4-47.9-7c-1.1-0.3-2.1-0.6-3.8-1
		c0.4-8.7,0.4-17.5,1.3-26.3c1.1-10.9,3.2-21.7,4.6-32.5c0.4-3.2,0-6.4-0.2-9.6c-0.1-2.4-2-2.1-3.6-2.1c-8.2-0.2-16.2,0.4-24.2,2.4
		c-13,3.2-26.1,2.8-39.3,1.5c-9.6-0.9-18.4-4-27-8.1C43.8,612.9,42.5,612.3,40.3,611.3z"/>
	<path class="st0" d="M334.6,244.7c-6.8,1.9-13.6,4.1-20.4,5.6c-15.8,3.6-31.7,3.6-47.6,0.4c-5.3-1.1-10.8-1.5-16.2-1.5
		c-10.7,0-21.3,0.5-32,0.8c-0.7,0-1.4,0.4-2.1,1.2c7,1,14,2,21,2.9c9.3,1.1,18.6,1.9,27.9,3.1c6.5,0.8,12.9,2.3,19.4,2.9
		c18.5,1.7,36.3-1.1,53.4-8.4c4.8-2,9.4-4.4,14.7-6.4c-1.7,2.7-3.2,5.6-5.2,7.9c-4.3,4.9-9.5,8.7-15.6,11.1c-1.9,0.7-3,1.7-2.6,3.7
		c0.4,2.1,1.8,3.1,4,3.3c15,0.8,28.8-2.5,41-11.5c0.2-0.2,0.5-0.2,1.4-0.6c-0.9,2.7-1.5,4.9-2.3,7.1c-7.6,19.9-22.1,31.9-42.5,37.1
		c-1.7,0.4-2.4,1.2-2,2.6c0.3,0.9,1.3,2.2,2.1,2.2c12.3,0.3,24.6,0.4,36.9,0.4c2.7,0,5.3-0.3,8-0.4c0.2,0.3,0.4,0.6,0.6,1
		c-3.3,3.4-6.4,7-10,10.1c-7.5,6.3-15,12.4-22.9,18.2c-8.4,6.2-17.8,10.8-28.4,11.7c-5.6,0.5-11.3,0.3-16.8-0.6
		c-22.9-3.5-41.4-15.1-56.8-32.1c-13-14.2-28.1-25.9-44.7-35.6c-5.6-3.3-12-4-18.3-4.2c-15.6-0.5-31.2-0.1-46.4,4.4
		c-21.4,6.3-40.9,16.2-57.8,30.8c-8.3,7.1-15.8,15.2-23.8,23c3.3-7.9,6.1-16,10-23.6c4.4-8.5,9.2-16.8,14.9-24.4
		c3.8-5.1,8.9-9.6,14.2-13.4c12.1-8.5,24.3-16.8,37.1-24.2c12.7-7.4,26.5-12.4,40.6-16.6c26.9-8,54.4-11,82.4-9.5
		c16.3,0.8,32.4,3.1,48.1,7.6c12.5,3.6,24.7,8,37.1,12.1C334.6,243.5,334.6,244.1,334.6,244.7z"/>
	<path class="st0" d="M395.7,243c-9.1-7.7-17.9-15.2-27-22.9c0.4-0.5,1-1.6,1.9-2.5c18.3-18.8,36.6-37.6,55-56.4
		c19.9-20.3,42.8-36.2,69-47.2c9.6-4,19.7-6.8,29.6-10.2c9.1-3.1,18.4-3.6,27.7-2.1c13,2,23.3,9.2,29,20.5
		c5.2,10.4,5.9,21.6-2.4,32.2c-9.4,12.1-21.5,18.9-35.9,23.5c-26.2,8.4-52.1,17.5-78,26.9c-12.3,4.5-24.4,9.8-36.2,15.5
		C416.3,226.1,405.6,234.3,395.7,243z"/>
	<path class="st0" d="M181.4,201.8c-10.8,3.5-21,6.9-31.3,10.3c-0.8-3.6-1.5-7.4-2.4-11.1c-2.9-12.4-8.7-23.4-14.3-34.7
		c-8-16.2-17.2-31.6-28.8-45.5c-11.1-13.2-24-24.4-37.7-34.7c-12.3-9.3-24.1-19.3-33.3-31.8c-2.2-3-3.9-6.7-4.6-10.3
		c-1-4.7-1.2-9.6-0.9-14.4c0.8-10.4,8.5-17,20.2-18.5c13-1.7,24.6,2.5,35.9,7.9c12.9,6.2,22.8,15.9,32,26.7
		c19.7,23.2,32.6,50,42.7,78.4c7.3,20.4,12.6,41.4,17.6,62.5c0.7,3.1,2.1,6,3.2,9C180.2,197.6,180.9,199.8,181.4,201.8z"/>
	<path class="st0" d="M284.6,906.3c-6.7-1.2-13.7-1.5-20-3.7c-9.7-3.4-16.9-10-19-20.8c-0.4-2-0.8-4.2-0.1-6
		c2.7-7.1,1.5-14.4,0.8-21.5c-1.2-13.8-1.8-27.5-1-41.3c0.1-1.2,0.7-2.4,1.1-3.6c1.1,0.5,2.5,0.7,3.4,1.5c4.9,4.4,10.8,5.5,17,5.8
		c11.8,0.6,23.3-0.9,34.2-5.9c4.3-2,6-1.3,6.6,3.4c1.2,9.5,2.1,19,2.9,28.5c0.4,5.7,0,11.5,0.4,17.2c0.2,2.5,1,5.1,2.1,7.4
		c2.6,5.3,5.6,10.4,8.5,15.6c2.2,4,0.7,10.8-3.3,13c-10.3,5.9-21.3,10-33.5,9.5C284.7,905.8,284.7,906,284.6,906.3z M308.7,859.9
		c-0.1-0.4-0.1-0.8-0.2-1.2c-0.9-0.2-1.9-0.6-2.7-0.4c-2.8,0.6-5.6,1.4-8.4,2.2c-12.1,3.6-24.2,4.2-36.6,1.5c-1.2-0.3-2.4,0-3.6,0
		c-0.1,0.3-0.2,0.5-0.3,0.8c0.6,0.7,1.1,1.6,1.9,1.9c5.7,2.2,11.6,4.2,17.8,3.4c8.1-1,16.3-2.3,24.3-4
		C303.6,863.4,306.1,861.3,308.7,859.9z"/>
	<path class="st0" d="M124.5,801.5c2.8,1.3,4.9,2,6.6,3.2c4.5,3.3,9.4,5.3,14.8,6.2c11.2,1.7,22.2,1.5,33.5-2.8
		c0.4,4.5,0.9,8.7,1.1,13c0.2,5.8,0,11.7,0.4,17.5c0.6,9,1.9,18,2.3,27c0.3,6.5-0.4,13-0.9,19.5c-0.1,0.8-1.3,1.9-2.2,2.2
		c-13.4,3.8-27,6.4-40.8,7.4c-9.4,0.7-18.9,0.3-28.3,0.1c-1.6,0-3.3-0.9-4.8-1.6c-5.2-2.5-6.3-4.8-3.6-9.9
		c2.8-5.3,6.2-10.3,9.7-15.2c1.6-2.3,3.7-4.3,5.9-6c3.1-2.4,4.4-5.5,5.1-9.2c1.9-10.3,1.5-20.6,1.3-31
		C124.4,815.5,124.5,809,124.5,801.5z M177.7,855.2c-2,0.1-4-0.1-5.9,0.5c-13.7,4.4-27.6,5.2-41.7,2.3c-0.9-0.2-1.8-0.1-3-0.2
		C131.1,864,161.2,866.7,177.7,855.2z"/>
	<path class="st0" d="M377.7,320.7c2.9-6.1,5.7-12.2,8.7-18.7c-11.4,0-21.8,0-32.9,0c9.8-7.2,18.2-15.1,24-25.8
		c2.8,2.4,5.5,4.7,8.1,6.9c21.7,18.9,39.4,41.2,52,67.1c11.6,23.8,19,49,20.5,75.7c0.3,6-0.3,12.1-0.5,18.2c-0.3,0-0.6,0-1,0.1
		c-0.7-3.7-1.3-7.3-2-11c-4-19.8-9.6-39-18.7-57.1c-6.1-12.1-14.2-22.9-23.7-32.6c-3.2-3.3-5.8-7.2-9-10.5
		c-6.7-6.9-14.9-10.7-24.4-12.1C378.4,320.9,378,320.8,377.7,320.7C377.6,320.7,377.5,320.5,377.7,320.7z"/>
	<path class="st0" d="M192.1,754.8c-8.3,13.8-12.4,28.7-15.2,44c-0.4,2.2-1.2,3.5-3.7,4.2c-13.3,3.8-26.2,2.8-38.7-3.1
		c-0.8-0.4-1.5-1.8-1.6-2.7c-1.2-9.5,0.6-18.5,3.5-27.5c3.5-10.7,6.6-21.5,9.9-32.2c0.1-0.5,0.4-0.9,0.8-1.6
		C160.7,745.5,175.6,751.9,192.1,754.8z"/>
	<path class="st0" d="M249.5,755.5c7.2-1.6,14.8-3,22.2-4.9c7.5-1.9,14.2-5.5,20.7-10.8c0.3,4.1,0.7,7.5,0.7,11
		c0.2,17.2,2.1,34.3,5.1,51.3c0.4,2.1-0.2,3.2-1.8,3.8c-3.4,1.2-6.8,2.4-10.4,2.9c-6.8,0.8-13.6,1.9-20.3,1.4
		c-4.7-0.3-9.2-3.1-13.7-5c-0.8-0.4-1.5-2.1-1.5-3.2c0.1-10.8,0.5-21.5,0.4-32.3C250.9,764.9,250,760.2,249.5,755.5z"/>
	<path class="st0" d="M143.4,721.5c2.7,0.5,4.7,0.7,6.6,1.1c10.9,2,22,2.4,33.1,2.1c1.9,0,3,0.5,4,2.3c9.8,16.6,31.9,14.4,41.6,1.5
		c1.5-1.9,2.9-2.5,5.2-2.5c13.5,0.1,27,0.3,40.5,0c5.7-0.1,11.3-1.5,17-2.3c1.5-0.2,2.9-0.7,4.9-1.2c-2.4,5.9-5.9,10-10.6,13.2
		c-9.6,6.5-20.6,8.8-31.7,10.6c-7.9,1.2-15.9,2.3-23.9,3.2c-13,1.4-25.9,0.6-38.6-2.5c-7.7-1.9-15.4-3.8-23-6
		C158.1,737.7,149.9,731.5,143.4,721.5z"/>
	<path class="st0" d="M358.7,229c-5.9,4.3-11.1,8.1-15.9,11.5c-2-1.6-3.5-3.1-5.2-4c-16.9-8.6-34.9-13.8-53.4-16.8
		c-13.2-2.1-26.5-4.2-39.8-4.8c-12.1-0.5-24.3,0.8-36.5,1.5c-18.6,1.2-36.6,5.3-54.1,11.6c-14.4,5.1-28,12.1-40.9,20.3
		c-4.5,2.8-8.6,6.2-12.8,9.3c-0.2-0.2-0.3-0.4-0.5-0.6c2-1.9,4-3.9,6.1-5.8c28.1-24,60.6-38.3,97.2-43.3c16.7-2.2,33.5-2.1,50.4-1.5
		c15.1,0.5,30.1,2.1,44.9,5.2c18.9,3.9,37.5,8.9,55.7,15.2C355.3,227.5,356.5,228.1,358.7,229z"/>
	<path class="st0" d="M381.1,270.4c1.6-7.3,3.2-14.7,4.9-22.2c2.4,2.4,5,4.8,7.4,7.4c14.2,15.5,27.6,31.7,40.1,48.7
		c14.3,19.6,24.2,41.3,29.6,65c3.8,16.6,4.9,33.4,3.3,50.4c-0.2,2.2-0.4,4.4-0.5,6.6c0,0.2-0.2,0.4,0.1-0.2
		C461.5,361.5,431.4,310.5,381.1,270.4z"/>
	<path class="st0" d="M220.2,588.3c30.2,1.3,60.1,1.2,91-1.6c-1.1,5.3-1.9,10-3,14.6c-0.1,0.5-1.2,1-1.9,1.1
		c-14.9,2.5-29.7,4.9-44.6,7.3c-8.4,1.3-16.9,2.5-25.3,3.9c-4.3,0.7-4.6,0.7-6.1-3.4c-2-5.2-3.9-10.3-6.1-15.4
		C223.2,592.6,221.7,590.7,220.2,588.3z M262.8,590.6c-1.1,1.4-2.2,2.4-2.6,3.5c-0.8,2.8,2.5,9.4,5.2,10.5c0.9,0.4,2.2,0.2,3-0.2
		c0.4-0.2,0.5-1.7,0.3-2.4c-1.3-3.2-2.7-6.2-4.1-9.3C264.3,592.2,263.7,591.7,262.8,590.6z M233.7,596.5c-0.1,3.2,1.4,5.6,4,7.3
		c0.6,0.4,1.6,0.5,2.1,0.2c0.5-0.3,0.7-1.4,0.7-2c-0.1-0.8-0.6-1.7-0.9-2.5c-0.5-1.6-0.7-3.3-1.3-4.9c-0.3-0.8-0.9-1.9-1.6-2
		c-0.7-0.2-1.9,0.4-2.4,1.1C233.8,594.4,233.9,595.5,233.7,596.5z M244.9,592.5c0.9,1.9,1.6,3.6,2.6,5.2c0.8,1.2,1.9,2.4,3,3.3
		c0.6,0.5,2,0.7,2.4,0.3c0.6-0.6,1-1.9,0.7-2.6c-1-2-2.1-4-3.6-5.8C248.6,591.3,246.8,591.1,244.9,592.5z"/>
	<path class="st0" d="M233.8,701.6c16.7,1,33.6-0.5,50.5-2.6c7.5-0.9,15-1.9,22.4-3.2c2-0.3,3.7-2,5.5-2.9c1.7,8.2-0.5,14.5-7.4,18
		c-12,6.3-24.6,8.3-37.9,8.4c-11.1,0.1-22.3,0.5-33.2,0.7C233.8,714.2,233.8,708.2,233.8,701.6z"/>
	<path class="st0" d="M144.7,572.2c21.9,9,44.5,14,68.1,15.7c-3.4,4.4-6.7,8.7-9.9,13c-1.6,2.2-3.1,4.4-4.4,6.8
		c-1.1,1.8-2.4,2.2-4.2,1.5c-18.5-6.4-36-14.8-52.1-26c-0.7-0.5-1.4-1.9-1.2-2.5C141.9,578,143.3,575.3,144.7,572.2z M191,602.9
		c1.4-1.5,2.4-2.2,2.8-3.2c0.8-2.1,1.3-4.2,1.6-6.4c0.1-0.9-0.6-2.7-1.2-2.8c-1-0.2-2.8,0.3-3.2,1.1c-1.1,2.4-1.8,5-2.2,7.7
		C188.7,600.1,189.9,601.2,191,602.9z M183.6,588c-0.3-0.5-0.7-2-1.7-2.7c-0.5-0.3-2.4,0.8-2.9,1.7c-1.2,1.8-2.1,3.9-2.7,5.9
		c-0.2,0.5,0.8,1.9,1.5,2C180.4,595.5,183.6,592,183.6,588z M165.6,591.1c2.5,0.3,5.2-1.7,6.5-4.9c0.3-0.8,0.3-2.2-0.2-2.7
		c-0.4-0.5-1.9-0.4-2.6,0C166.2,584.9,165.1,587.3,165.6,591.1z"/>
	<path class="st0" d="M27.9,534.2c-0.5,4.2-1.1,8.1-1.5,12c-0.2,2.6,1.5,3.9,3.9,3.9c4.3,0.1,8.7,0.2,13,0c1-0.1,2.5-1.4,2.9-2.5
		c1.3-3.5,2.2-7.2,3.2-10.8c4.3,2.2,6.1,7.2,4.3,11.9c-1.5,3.8-3.4,7.2-7,9.5c-0.8,0.5-1.5,1.5-1.6,2.4c-0.2,2.7-1.5,4.4-3.4,6.3
		c-5.2,5.1-5.3,14.3-0.2,20.7c1.8,2.3,2.5,4.5,1.9,7.2c-0.2,1.2-0.3,2.4-0.5,3.6c-1,5.5-5.3,8.6-11,7.8c-4.1-0.6-6-5-3.8-8.4
		c5.1-7.8,6.2-16.3,3.4-25.1c-1-3-3.6-5.4-5.5-8c-0.2,0.1-0.4,0.2-0.6,0.4c0.1-1.7,0-3.4,0.4-5c0.7-2.7-0.7-4.3-2.9-4.6
		c-2.7-0.4-3.4-2.2-3.9-4.3c-1-5.1,0.1-9.8,2.6-14.2C23.1,534.4,25.8,534.3,27.9,534.2z"/>
	<path class="st0" d="M130.5,694.1c6.6,4.9,14.5,4.7,21.9,6.1c5.4,1,10.9,1.7,16.4,2.5c5.4,0.7,10.7,1.3,15.7,2
		c-0.4,4.8-0.8,9.4-1.2,14.5c-1-0.1-2.6-0.3-4.1-0.4c-9.2-0.7-18.5-1.2-27.6-2.2c-5.4-0.6-10.8-1.6-15.8-3.3
		C128.8,710.8,124.5,702.7,130.5,694.1z"/>
	<path class="st0" d="M209.2,696c0.6,0,1.2,0,1.8,0c11.1,0,17.8,7.5,16.1,18.6c-1.2,8.3-4.9,15.1-14.1,17.2
		c-7.4,1.7-13.6-1-18.4-6.4c-4.4-5-5.3-10.9-2.9-17.2c0.4-1,0.8-2.1,1.2-3.1c0.8-2,1.2-4.5,2.7-5.7c2.8-2.3,6.1-3.8,10-3.5
		C206.8,696.1,208,696,209.2,696z M221.1,712.1c0-7-5.3-12.1-12.6-12.2c-5.5-0.1-12.7,7.8-12.7,13.8c0,5.4,5.4,13.5,11.8,13
		C215.5,726,221.3,721.5,221.1,712.1z"/>
	<path class="st0" d="M26.8,581.7c-0.3,6-1.1,10.8-4.2,15.1c-2.8,3.8-6.7,4.9-11.1,4.5c-0.8-0.1-1.7-0.7-2.2-1.3
		c-6.9-8.2-3.8-23.3,5.8-28.2c0.7-0.4,1.4-0.7,2.2-1c5.4-1.7,7.3-0.7,8.6,4.9C26.3,578,26.5,580.3,26.8,581.7z"/>
	<path class="st0" d="M366.6,232.3c4.2,3,8.3,5.9,12.4,9c0.4,0.3,0.4,1.8,0,2.2c-3.5,3.8-7,7.6-10.7,11.2c-0.4,0.4-1.8,0-2.5-0.4
		c-1.8-1.1-3.4-2.4-5-3.8c-0.6-0.6-1.2-1.8-0.9-2.5C362,243,364.2,238.1,366.6,232.3z"/>
	<path class="st0" d="M359.3,258.9c-1.8,0.5-3.5,0.9-6,1.5c0.8-1.9,1.2-3.1,1.9-4.6c1.4,0.8,2.8,1.6,4.1,2.3
		C359.3,258.4,359.3,258.6,359.3,258.9z"/>
	<path d="M371.2,447.8c0.1,4.8-1.9,11.8-5.7,18.2c-1.7,3-4,4.4-7.6,4.3c-17-0.3-31.4-6.5-43.9-17.9c-3.2-2.9-2-6.5-1.8-9.6
		c0.4-5.2,1.2-10.5,2.9-15.3c2.7-7.6,9-12.4,15.8-16.3c9.6-5.3,27-0.3,33.5,10.3C368.9,428.8,371.2,436.6,371.2,447.8z"/>
	<path d="M349,428c-0.2,0.8-0.4,1.2-0.5,1.6c-1.2,4.3,0.6,7.5,5,9.2c3.9,1.5,5.7,0.6,7.9-3.9c0.5-1,1.4-1.9,1.4-2.9
		c0-1.1-0.8-3-1.4-3.1C357.4,428.4,353.3,428.3,349,428z"/>
	<path d="M236.6,496c-0.5,4.1-3.2,5-6.6,5.5c-2.7,0.4-5.2,1.5-7.8,2.1c-14.1,3.2-27.1,0.2-39.1-7.5c-1.4-0.9-2.8-2.2-3.5-3.6
		c-1.1-2.2-2.4-2.9-4.8-3.1c-12.9-1.1-23-7.9-31.7-16.9c-1.2-1.2-1.5-3.7-1.7-5.6c-1.3-16.2,6.1-27.2,21.9-30.9
		c6.1-1.4,12.9-0.3,19.4-0.1c3.2,0.1,6.3,0.7,9.7,1.1c1.1-4,4.2-5.8,8.4-6.2c7.6-0.8,15.8-1.9,21.7,3.5c6,5.6,13.3,4.5,19.9,6.5
		c10.8,3.2,21.2,7,29.5,14.9c6.9,6.6,7.8,14.6,5.4,23.4c-2.4,8.8-8.2,13.8-16.9,16.2C252.4,497.6,244.7,497.5,236.6,496z"/>
	<path d="M202.2,479.8c-1.8-9.5-1.8-12.1,0.8-19.2c0.3-0.8,1.2-1.4,1.9-2.2c0.3,1,1,2.1,0.8,2.9c-1.6,4.7-0.7,9.2,0.6,13.6
		c0.6,2.1,1.9,4.2,3.5,5.6c6.5,5.8,14.4,8.7,22.9,9.9c9.3,1.3,18.3,0.2,27.4-2.2c9.5-2.5,12.2-9,12.5-15.8c0.4-9.1-4.9-16-14.8-20.2
		c-8.9-3.7-18.1-6.2-27.5-7.6c-3.6-0.5-7.6-0.1-11.2,2c-9.5,5.7-15,5.7-21.3-0.4c-2.8-2.7-5.2-4.2-9.3-4.2
		c-7.2,0.1-14.4-0.9-21.6-0.9c-3.1,0-6.7,0.4-9.2,2c-8.2,5.2-11.4,13.2-10.8,22.8c0.1,1.5,0.6,3.5,1.6,4.4c3.9,3.4,7.7,7.1,12.2,9.6
		C174.4,487.9,188.4,484.9,202.2,479.8z"/>
	<path d="M197.4,437.1c0.3,0.9,0.4,1.9,0.9,2.6c3.2,4.8,8.3,6.5,13.5,7.7c0.4,0.1,1.1-0.1,1.4-0.3c3.2-2.4,6.3-4.8,9.7-7.4
		C214.6,434.1,206.2,435,197.4,437.1z"/>
	<path d="M89.1,440.3c-1.8,0-3.6,0-5.4,0c-8,0.2-12-5.8-12.6-11c-1.6-13.9,2.4-26.1,11.6-36.5c4.2-4.7,10-6.1,16.3-5.1
		c10.8,1.7,18.1,7.8,22,17.9c3.8,9.9,2.2,19-4.7,27c-4.3,5-10.1,7.2-16.6,7.4c-3.5,0.1-7,0-10.6,0C89.1,440.1,89.1,440.2,89.1,440.3
		z"/>
	<path d="M104.9,412.5c4.3,0,6.9-2.2,7.3-6.5c0.1-0.5,0-1.1,0.3-1.4c2.1-2.4,0-3.7-1.6-4.2c-2-0.7-4.4-0.8-6.5-0.6
		c-3.1,0.3-6.3,4.2-6.1,6.9C98.4,409.4,101.9,412.5,104.9,412.5z"/>
	<path d="M241,504.2c-13.1,12.7-28.6,16-45.7,10.7c-10.6-3.3-20-9-26-18.8c0.2-0.3,0.4-0.5,0.6-0.8c2.6,2,5.4,3.8,7.9,5.9
		c8.5,6.8,18.4,9.2,29,9.8c10.3,0.5,19.9-1.6,29.1-6.3c1.4-0.7,3.2-0.9,4.8-1.3C240.9,503.7,240.9,504,241,504.2z"/>
	<path d="M308.7,859.9c-2.6,1.4-5.1,3.5-7.9,4c-8,1.7-16.1,3-24.3,4c-6.2,0.8-12.1-1.2-17.8-3.4c-0.8-0.3-1.2-1.3-1.9-1.9
		c0.1-0.3,0.2-0.5,0.3-0.8c1.2,0,2.5-0.2,3.6,0c12.3,2.8,24.5,2.1,36.6-1.5c2.8-0.8,5.6-1.6,8.4-2.2c0.8-0.2,1.8,0.3,2.7,0.4
		C308.5,859.1,308.6,859.5,308.7,859.9z"/>
	<path d="M177.7,855.2c-16.5,11.5-46.5,8.8-50.5,2.5c1.2,0.1,2.1,0,3,0.2c14.1,2.9,27.9,2.2,41.7-2.3
		C173.6,855.1,175.7,855.3,177.7,855.2z"/>
	<path d="M262.8,590.6c0.9,1.1,1.5,1.6,1.8,2.2c1.4,3.1,2.9,6.2,4.1,9.3c0.3,0.7,0.1,2.2-0.3,2.4c-0.9,0.4-2.2,0.5-3,0.2
		c-2.7-1.2-5.9-7.8-5.2-10.5C260.5,593,261.7,592,262.8,590.6z"/>
	<path d="M233.7,596.5c0.2-1,0.1-2.1,0.7-2.8c0.5-0.6,1.7-1.2,2.4-1.1c0.6,0.1,1.3,1.2,1.6,2c0.6,1.6,0.8,3.3,1.3,4.9
		c0.2,0.8,0.8,1.7,0.9,2.5c0.1,0.7-0.2,1.7-0.7,2c-0.5,0.3-1.6,0.1-2.1-0.2C235.1,602.1,233.6,599.8,233.7,596.5z"/>
	<path d="M244.9,592.5c1.9-1.5,3.8-1.2,5.1,0.5c1.4,1.7,2.6,3.8,3.6,5.8c0.3,0.6-0.2,2-0.7,2.6c-0.4,0.3-1.8,0.1-2.4-0.3
		c-1.1-0.9-2.2-2-3-3.3C246.5,596.2,245.8,594.4,244.9,592.5z"/>
	<path d="M191,602.9c-1.1-1.7-2.4-2.8-2.2-3.6c0.4-2.6,1.2-5.2,2.2-7.7c0.3-0.8,2.2-1.3,3.2-1.1c0.6,0.1,1.3,1.9,1.2,2.8
		c-0.2,2.2-0.8,4.3-1.6,6.4C193.5,600.6,192.4,601.3,191,602.9z"/>
	<path d="M183.6,588c0,4-3.3,7.5-6,7c-0.6-0.1-1.6-1.5-1.5-2c0.7-2.1,1.6-4.1,2.7-5.9c0.6-0.9,2.5-2,2.9-1.7
		C182.9,586,183.3,587.5,183.6,588z"/>
	<path d="M165.6,591.1c-0.5-3.8,0.6-6.2,3.7-7.6c0.8-0.3,2.2-0.4,2.6,0c0.5,0.5,0.5,1.9,0.2,2.7
		C170.8,589.4,168.1,591.4,165.6,591.1z"/>
	<path d="M221.1,712.1c0.2,9.4-5.6,13.9-13.5,14.5c-6.4,0.5-11.8-7.6-11.8-13c0-6,7.2-13.9,12.7-13.8
		C215.9,700,221.1,705.1,221.1,712.1z"/>
	<path d="M208.4,718.7c4,0,5.4-1.4,5.4-5.4c0-2.9-2.9-5.7-5.9-5.7c-2.2,0-5.3,3.5-5.3,6.1C202.6,716.7,204.9,718.6,208.4,718.7z"/>
	<path class="st0" d="M349,428c4.3,0.3,8.4,0.4,12.4,0.9c0.6,0.1,1.4,2,1.4,3.1c0,1-0.9,1.9-1.4,2.9c-2.2,4.5-4,5.4-7.9,3.9
		c-4.4-1.7-6.1-4.9-5-9.2C348.7,429.2,348.8,428.8,349,428z"/>
	<path class="st0" d="M202.2,479.8c-13.8,5-27.8,8-41.6,0.3c-4.5-2.5-8.3-6.2-12.2-9.6c-1-0.9-1.5-2.9-1.6-4.4
		c-0.6-9.5,2.6-17.6,10.8-22.8c2.5-1.6,6.1-2,9.2-2c7.2,0,14.4,1,21.6,0.9c4,0,6.5,1.5,9.3,4.2c6.3,6.1,11.8,6.1,21.3,0.4
		c3.6-2.2,7.5-2.6,11.2-2c9.4,1.4,18.6,3.8,27.5,7.6c9.9,4.2,15.2,11,14.8,20.2c-0.3,6.8-3,13.3-12.5,15.8
		c-9.1,2.4-18.1,3.4-27.4,2.2c-8.6-1.2-16.4-4.1-22.9-9.9c-1.6-1.4-2.9-3.6-3.5-5.6c-1.3-4.4-2.2-9-0.6-13.6
		c0.3-0.8-0.5-1.9-0.8-2.9c-0.6,0.7-1.6,1.3-1.9,2.2C200.4,467.7,200.4,470.3,202.2,479.8z"/>
	<path class="st0" d="M197.4,437.1c8.9-2.1,17.2-3,25.5,2.7c-3.4,2.6-6.5,5-9.7,7.4c-0.4,0.3-1,0.4-1.4,0.3
		c-5.2-1.3-10.3-3-13.5-7.7C197.8,439,197.7,438,197.4,437.1z"/>
	<path class="st0" d="M104.9,412.5c-3,0-6.5-3.1-6.7-5.9c-0.2-2.7,3.1-6.6,6.1-6.9c2.2-0.2,4.5-0.1,6.5,0.6c1.6,0.5,3.7,1.8,1.6,4.2
		c-0.3,0.3-0.2,1-0.3,1.4C111.7,410.3,109.2,412.5,104.9,412.5z"/>
	<path class="st0" d="M208.4,718.7c-3.5,0-5.9-2-5.8-5c0.1-2.6,3.1-6.1,5.3-6.1c3,0,5.9,2.8,5.9,5.7
		C213.9,717.2,212.4,718.7,208.4,718.7z"/>
</g>
</svg>
