<?xml version="1.0" encoding="utf-8"?>
<!-- Generator: Adobe Illustrator 26.0.0, SVG Export Plug-In . SVG Version: 6.00 Build 0)  -->
<svg version="1.1" id="Capa_1" xmlns="http://www.w3.org/2000/svg" xmlns:xlink="http://www.w3.org/1999/xlink" x="0px" y="0px"
	 viewBox="0 0 595.28 857" style="enable-background:new 0 0 595.28 857;" xml:space="preserve">
<style type="text/css">
	.st0{fill:#FFFFFF;}
</style>
<g>
	<path d="M521.91,542.35c10.42-3.18,18.8-10.49,27.47-17.5c9.63-7.8,20.66-13.2,32.52-16.78c3.02-0.91,6.16-0.8,9.06,0.84
		c2.84,1.6,4.3,3.71,4.32,7.27c0.08,14.5-4.8,27.1-13.56,38.49c-9.96,12.96-19.42,26.31-29.56,39.12
		c-13.13,16.58-30.43,26.85-50.88,32c-1.03,0.26-2.24,1.33-2.65,2.32c-8.41,20.58-18.35,40.41-30.31,59.12
		c-10.16,15.9-21.23,31.22-31.82,46.85c-4.08,6.02-7.59,12.46-12.07,18.16c-2.69,3.42-1.79,5.62-0.14,8.85
		c7.28,14.28,14.96,28.41,21.17,43.15c5.72,13.56,6.09,27.96,1.41,42.17c-0.76,2.3-2.15,4.39-3.12,6.64
		c-1.53,3.57-4.3,4.27-7.83,3.82c-10.91-1.38-20.19-5.94-27.74-13.94c-19.26-20.4-24.59-45.22-22.75-72.24
		c0.14-2.05-0.31-3.14-2.09-3.98c-6.39-3-12.59-2.44-18.73,0.75c-12.23,6.35-22.78,15.1-33.79,23.23
		c-17.77,13.13-37.79,21.2-59.61,24.61c-11.02,1.72-21.92,0.89-32.27-3.43c-3.48-1.45-6.57-4-9.52-6.43
		c-1.04-0.85-1.48-2.8-1.65-4.31c-1.08-9.8,1.99-18.16,8.86-25.27c6.87-7.11,14.67-12.92,23.93-16.28c5.7-2.07,11.83-3.04,17.81-4.3
		c10.89-2.28,21.81-4.4,32.72-6.59c0.83-0.17,1.68-0.25,2.5-0.47c2.54-0.67,3.24-2.42,1.94-4.73
		c-6.78-12.11-15.17-23.03-24.86-32.94c-7.27-7.43-14.68-14.71-22.04-22.05c-0.32-0.32-0.73-0.56-0.48-0.37
		c-4.17,1.49-7.91,2.67-11.51,4.18c-3.1,1.31-6.15,2.81-9.02,4.56c-17.95,10.93-34.6,23.67-50.98,36.79
		c-2.85,2.28-6.06,4.2-9.33,5.83c-4.13,2.06-8.5,2.78-12.44-0.56c-0.88-0.75-1.7-2.09-1.76-3.2c-0.55-9.71,1.38-19.01,5.67-27.7
		c5.01-10.14,10.1-20.26,15.64-30.11c6.57-11.7,13.99-22.86,24.05-32.41c-3.29-3.69-6.45-7.43-9.8-10.98
		c-16.07-17.08-29.99-35.76-41.35-56.27c-13.15-23.75-23.92-48.55-29.26-75.27c-7.4-37.01-0.59-71.49,20.32-103.03
		c8.65-13.04,18.93-24.71,30.06-35.71c14.69-14.52,31.91-26.62,47.2-35.52c5.12-2.98,10.5-5.51,16.23-8.49
		c-2.2-5.45-4.15-11.12-6.73-16.49c-6.04-12.54-14.37-23.34-26.04-31.16c-12.99-8.7-27.18-14.69-42.59-17.51
		c-15.04-2.75-30.2-2.67-45.16,0.11c-13.45,2.5-26.91,4-40.56,3.51c-6.13-0.22-12.27-0.63-18.35-1.38c-6.6-0.8-11.79-4.39-15.89-9.5
		c-1.85-2.31-1.09-7.47,1.39-9.53c6.49-5.4,13.97-8.87,22.08-11.07c17.08-4.65,34.48-4.74,52-4.06c18.58,0.72,36.81,3.33,54.63,8.59
		c6.03,1.78,11.93,4,18.18,5.68c-4.34-3.37-8.7-6.72-13.02-10.11c-14.23-11.13-30.42-17.59-47.93-21.83
		c-23.89-5.79-47.63-12.28-71.2-19.25c-16.74-4.94-31.55-13.93-44.73-25.38c-6-5.21-6.44-12.48-5.43-19.59
		c0.31-2.2,3.2-4.25,5.26-5.93c5.05-4.14,11.23-5.62,17.49-6.8c4.36-0.82,8.72-1.6,13.07-2.47c10.77-2.15,21.45-1.32,31.95,1.39
		c3.57,0.92,6.79,3.23,10.12,5.01c15.01,8.04,28.08,18.79,41.28,29.4c19.76,15.88,39.74,31.48,59.64,47.17
		c1.46,1.15,3.07,2.11,4.96,2.88c-2.87-4.13-5.81-8.21-8.61-12.39c-9.15-13.68-18.69-27.08-29.96-39.11
		c-13.09-13.97-27.37-26.63-43.45-37.14c-17.64-11.52-36.58-20.25-56.69-26.5c-7.94-2.47-15.87-3.49-24.28-2.26
		c-10.72,1.56-20.48-1.76-28.66-8.72c-2.51-2.13-4.15-5.61-5.45-8.77C1.67,58.8-1.23,39.82,0.47,20.21c0.38-4.4,1.3-8.78,2.27-13.1
		c1.11-4.95,3.95-6.8,9.03-7.02c13.95-0.61,27.25,1.86,39.81,8.03c8.15,3.99,15.18,9.58,21.72,15.74
		c13.14,12.38,26.67,24.4,39.03,37.52c14.32,15.19,27.57,31.4,41.29,47.16c0.59,0.68,1.22,1.33,2.06,2.24
		c0.75-2.86,1.82-5.27,1.91-7.72c0.13-3.47,1.38-6.2,3.76-8.53c3.09-3.01,6.55-5.48,10.87-6.33c2.67-0.53,5.42-0.9,8.13-0.89
		c1.09,0,2.41,1,3.24,1.9c7.62,8.18,11.52,17.99,12.8,29.02c1.48,12.76,2.85,25.55,4.83,38.23c1.77,11.33,7.1,21.42,12.45,31.42
		c7.5,14.02,16.03,27.38,25.62,40.06c0.44,0.58,0.97,1.1,1.25,1.42c-2.45-17-5.11-34.14-7.35-51.32
		c-2.35-18.05-2.31-36.16-0.59-54.3c1.85-19.53,6.34-38.31,14.8-56.06c4.8-10.08,9.96-20,17.82-28.08c3.59-3.7,7.74-6.97,12.07-9.77
		c1.88-1.21,4.85-0.85,7.34-0.9c0.48-0.01,1.16,1.33,1.44,2.16c3.09,9.03,2.91,18.14,0.81,27.36
		c-5.52,24.21-13.03,47.83-20.51,71.48c-6.05,19.13-9.56,38.82-10.98,58.86c-0.81,11.41-2.02,22.79-2.82,34.2
		c-0.98,14.09,0.99,27.87,4.91,41.41c4.07,14.08,11.26,26.73,18.1,39.53c0.94,1.75,3.34,2.66,4.76,4.23
		c1.94,2.14,3.82,0.73,5.72,0.27c17.6-4.28,35.43-5.73,53.44-3.99c12.66,1.23,25.46,2.1,37.87,4.7
		c28.59,5.98,53.93,18.93,76.18,37.97c15.44,13.22,28.58,28.3,38.97,45.78c8.59,14.46,14.66,29.94,19.31,46.04
		c5.6,19.41,9.27,39.17,9.96,59.35C522.32,512.99,521.91,527.72,521.91,542.35z M511.75,553.18c0.1,0.26,0.21,0.52,0.31,0.78
		c0.23-0.8,0.55-1.58,0.67-2.4c3.24-21.69,4.43-43.47,1.64-65.27c-2.95-23.06-7.88-45.72-17.01-67.21
		c-3.68-8.65-7.39-17.57-12.82-25.11c-8.03-11.16-17.38-21.41-26.6-31.67c-11.66-12.97-25.62-23.13-40.96-31.37
		c-16.24-8.73-33.65-14.13-51.72-17.45c-16.11-2.96-32.4-3.25-48.64-2.06c-22.78,1.68-44.6,7.35-65.33,17.2
		c-14.23,6.76-27.67,14.69-40.05,24.42c-1.02,0.8-1.96,1.71-3.43,2.99c22.35-4.25,42.88-11.86,63.62-18.79
		c21.99-7.34,44.05-14.48,66.09-21.69c1.34-0.44,2.71-0.84,4.1-1.1c1.38-0.26,2.8-0.34,4.21-0.49
		c-16.92,7.85-34.26,14.15-51.97,19.47c-18.61,5.59-37.2,11.26-55.81,16.86c-11.64,3.51-23.31,6.96-34.95,10.47
		c-0.78,0.23-1.59,0.67-2.15,1.25c-6.74,7.01-13.43,14.06-20.12,21.12c-0.65,0.68-1.19,1.47-2.03,2.54c1-0.08,1.48-0.05,1.92-0.17
		c9.95-2.56,20-4.8,29.82-7.78c12.72-3.86,25.22-8.43,37.89-12.47c17.42-5.55,34.9-10.96,52.38-16.31
		c19.47-5.96,38.98-11.8,58.49-17.63c2.96-0.88,6.02-1.42,9.03-2.12c-4.41,2.4-8.92,4.28-13.55,5.86
		c-18.3,6.23-36.58,12.5-54.95,18.51c-25.28,8.27-50.54,16.67-76.01,24.35c-14.86,4.48-29.84,9.01-45.61,9.49
		c-0.82,0.02-1.79,0.92-2.37,1.66c-9.26,11.77-17.16,24.39-23.57,37.92c-6.52,13.75-10.13,28.28-10.11,43.5
		c0.03,21.65,4.47,42.61,11.77,62.9c9.27,25.76,22.67,49.33,39.09,71.22c8.69,11.59,18.02,22.63,28.25,32.89
		c1.14,1.14,2.01,1.38,3.65,0.75c3.14-1.22,6.44-2.05,9.71-2.88c4.72-1.19,9.61-1.85,14.19-3.42c17.74-6.08,35.34-12.6,53.1-18.62
		c21.24-7.21,42.55-14.22,63.91-21.06c20.09-6.43,40.18-12.92,60.48-18.65c19.04-5.37,38.33-9.9,57.57-14.57
		C493.11,556.81,502.46,555.12,511.75,553.18z M225.65,642.07c1.15,1.08,1.86,1.8,2.61,2.46c3.18,2.82,6.37,5.61,9.55,8.43
		c1.34,1.19,2.55,2.53,3.96,3.61c19.05,14.55,37.2,30.11,53.47,47.75c9.51,10.31,18.19,21.32,25.15,33.49
		c5.46,9.55,1.73,15.5-6.24,17.84c-6.06,1.78-12.23,3.25-18.39,4.65c-10.3,2.35-20.76,4.09-30.92,6.9
		c-14.39,3.99-23.39,14.28-29.49,27.42c-0.92,1.99-0.13,5.95,1.47,7.04c1.94,1.32,4.01,2.46,6.11,3.53
		c5.16,2.64,10.76,1.63,16.18,1.64c19.62,0.03,38.08-4.97,54.73-15.08c13.69-8.31,26.54-18.03,39.73-27.17
		c10.42-7.22,21.78-8.57,33.78-5.31c1.45,0.39,3.15,2.03,3.62,3.46c1.26,3.82,2.35,7.8,2.69,11.79c0.4,4.67-0.29,9.43-0.1,14.13
		c0.82,20.72,9.17,37.92,24.68,51.64c4.6,4.07,9.82,6.99,15.93,8.22c1.6,0.32,2.48-0.04,3.09-1.55c3.87-9.52,5.24-19.37,3.07-29.43
		c-2.93-13.58-8.9-25.97-15.88-37.89c-3.94-6.74-8.42-13.16-10.58-20.84c-1-3.55-1.84-6.74,1.87-9.21c0.37-0.24,0.55-0.76,0.82-1.15
		c5.66-8.36,11.24-16.77,17.01-25.06c9.39-13.48,19.48-26.5,28.25-40.36c19.95-31.51,34.83-65.36,44.53-101.41
		c1.75-6.51,3.15-13.12,4.73-19.79c-0.76-0.09-1.05-0.2-1.29-0.14c-18.2,4.23-36.49,8.09-54.56,12.82
		c-20.45,5.35-40.71,11.39-61.01,17.3c-18.29,5.33-36.59,10.66-54.75,16.43c-12.22,3.88-24.16,8.62-36.29,12.79
		c-11.58,3.98-23.43,7.27-34.84,11.7C254.76,638.02,241,641.88,225.65,642.07z M273.58,312.07c-6.16-6.4-9.48-14.26-13.62-21.62
		c-4.75-8.44-6.04-18.41-11.88-26.35c-0.42-0.57-0.38-1.46-0.66-2.15c-3.3-8.08-6.17-16.39-10.1-24.16
		c-2.43-4.8-6.71-8.63-9.78-13.15c-6.53-9.61-12.53-19.59-19.24-29.07c-12.94-18.27-26.16-36.35-39.37-54.43
		c-8.69-11.89-17.15-23.98-26.43-35.4c-16.46-20.25-34.62-39-52.96-57.55c-8.51-8.61-17.37-16.93-27.66-23.39
		c-7.97-5-16.18-9.69-24.62-13.84C29.12,7,20.12,7.69,11.34,7.89c-0.68,0.02-1.74,1.05-1.94,1.8c-0.88,3.27-1.82,6.57-2.16,9.92
		C5.3,38.27,8.01,56.34,14.51,73.87c1.43,3.85,3.92,7.03,7.44,9.03c8.27,4.71,17.15,6.1,26.52,4.17c5.05-1.04,10.03-1.23,15.13,0.24
		c15.82,4.57,31.02,10.65,45.55,18.4c28.61,15.27,52.94,35.76,73.05,61.06c10.05,12.63,18.97,26.16,28.31,39.35
		c2.27,3.2,3.89,6.88,6.27,9.98c2.75,3.58,6.15,6.66,8.99,10.18c1.68,2.09,2.93,4.57,4.16,6.98c0.69,1.36,0.77,3.03,1.47,4.38
		c1.56,3.02,3.36,5.91,5,8.88c0.5,0.91,0.8,1.93,1.19,2.91c-7.32-5.48-13.05-12.19-18.37-19.33c-1.72-2.31-3.76-4.58-6.12-6.18
		c-7.81-5.28-16.16-9.79-23.69-15.42c-12.87-9.61-25.31-19.81-37.87-29.82c-15.14-12.07-29.78-24.83-46.61-34.6
		c-6.91-4.01-13.37-9.05-21.46-10.57c-18.56-3.5-36.09-0.89-52.33,9.14c-2.19,1.35-2.84,2.97-2.26,5.42
		c1.89,7.95,6.35,14.1,13.75,17.37c12.58,5.56,25.26,11,38.19,15.67c17.29,6.25,35.17,10.45,53.24,13.99
		c29.92,5.86,55.85,19.84,78.24,40.41c6.32,5.81,12.36,11.93,18.48,17.97c2.27,2.24,5.46,3.99,4.91,8.02
		c-0.05,0.36,0.47,0.78,0.71,1.18c3.86,6.27,7.86,12.45,11.54,18.82c5.36,9.25,10.15,18.77,11.81,29.51
		c0.28,1.83,0.51,3.67,0.78,5.62C265.01,315.07,269.19,313.61,273.58,312.07z M520.27,548.79c-3.22,23.56-8.91,46.43-17.51,68.97
		c1.95-0.89,3.44-1.5,4.85-2.23c6.69-3.46,13.78-6.36,19.96-10.58c10.81-7.39,20.25-16.53,27.91-27.17
		c8.27-11.48,15.91-23.4,23.74-35.19c4.61-6.94,7.36-14.61,8.36-22.9c0.39-3.22-0.33-3.9-3.62-3.13
		c-12.72,2.98-23.65,9.22-33.13,18.13C542.32,542.7,532.35,547.6,520.27,548.79z M179.32,732.85c5.43,1.03,9.39-1.1,12.87-4.43
		c3.76-3.59,7.15-7.62,11.21-10.82c7.85-6.21,15.9-12.17,24.13-17.86c8.2-5.67,15.85-12.28,25.46-15.68
		c2.52-0.89,5.06-1.72,7.6-2.57c0.13-0.23,0.26-0.45,0.38-0.68c-0.44-0.2-0.95-0.33-1.31-0.62c-7.98-6.36-15.93-12.75-23.92-19.11
		c-2.06-1.64-4.35-3.02-6.31-4.77c-2.07-1.85-3.87-3.99-5.69-5.91c-9.59,6.61-21.47,22.3-26.76,34.54
		c-3.36,7.79-6.97,15.48-10.56,23.17C182.76,715.94,180.15,724.05,179.32,732.85z M244.96,214.02c0.37-0.02,0.74-0.04,1.12-0.06
		c0.85-9.19,1.5-18.41,2.61-27.57c1.51-12.45,2.79-24.99,5.27-37.26c2.18-10.77,5.56-21.32,8.96-31.8
		c6.73-20.75,12.33-41.75,15.65-63.33c0.66-4.29,1.34-8.58,1.86-12.88c0.11-0.93-0.42-1.94-0.66-2.91
		c-0.66,0.22-1.46,0.26-1.96,0.68c-5.7,4.74-10.88,10.01-14.65,16.42c-10.21,17.4-16.83,36.17-20.76,55.91
		c-3.38,16.98-3.91,34.15-2.5,51.34C241.31,179.74,243.25,196.87,244.96,214.02z M243.44,284.98c-0.08-0.26-0.11-0.55-0.25-0.78
		c-5.34-9.21-10.66-18.31-18.51-25.89c-4.88-4.71-9.92-8.61-16.12-11.12c-13.04-5.28-26.37-9.71-40.26-12.06
		c-11.33-1.91-22.72-4.05-34.15-4.63c-15.85-0.8-31.72-0.08-47.48,2.6c-8.9,1.51-16.23,5.67-23.58,11.04
		c3.16,3.52,6.94,5.86,11.32,6.7c11.42,2.2,22.93,2.64,34.27-0.43c10.73-2.91,21.65-4.37,32.68-4.76c17.22-0.6,34.33,0.47,51.01,5.4
		c9.74,2.88,19.01,6.7,27.51,12.32C228.87,269.34,236.58,276.64,243.44,284.98z M161.06,117.83c11.88,16.56,23.71,33.06,35.55,49.57
		c0.26-0.64,0.18-1.09,0.07-1.53c-1.43-5.75-3.29-11.43-4.21-17.26c-1.65-10.52-2.49-21.16-4.15-31.68
		c-0.96-6.09-1.93-12.31-5.44-17.7c-3.07-4.72-4.79-5.35-10.07-3.44c-0.62,0.22-1.22,0.5-1.8,0.82c-3.33,1.82-5.95,3.91-6.18,8.3
		C164.6,109.45,164.41,114.2,161.06,117.83z"/>
	<path class="st0" d="M511.75,553.18c-9.29,1.94-18.64,3.63-27.86,5.86c-19.24,4.66-38.52,9.19-57.57,14.57
		c-20.3,5.73-40.39,12.22-60.48,18.65c-21.36,6.84-42.67,13.85-63.91,21.06c-17.76,6.03-35.35,12.55-53.1,18.62
		c-4.58,1.57-9.47,2.23-14.19,3.42c-3.27,0.83-6.58,1.66-9.71,2.88c-1.63,0.64-2.51,0.4-3.65-0.75
		c-10.23-10.27-19.56-21.3-28.25-32.89c-16.41-21.89-29.81-45.46-39.09-71.22c-7.3-20.29-11.74-41.24-11.77-62.9
		c-0.02-15.22,3.59-29.75,10.11-43.5c6.41-13.52,14.31-26.15,23.57-37.92c0.58-0.74,1.56-1.63,2.37-1.66
		c15.77-0.48,30.74-5.01,45.61-9.49c25.47-7.68,50.72-16.07,76.01-24.35c18.37-6.01,36.66-12.28,54.95-18.51
		c4.62-1.58,9.14-3.46,13.55-5.86c-3.01,0.7-6.08,1.23-9.03,2.12c-19.51,5.83-39.02,11.68-58.49,17.63
		c-17.49,5.35-34.96,10.75-52.38,16.31c-12.67,4.04-25.17,8.61-37.89,12.47c-9.82,2.98-19.87,5.22-29.82,7.78
		c-0.45,0.11-0.93,0.09-1.92,0.17c0.85-1.07,1.39-1.85,2.03-2.54c6.69-7.06,13.39-14.11,20.12-21.12c0.55-0.58,1.37-1.02,2.15-1.25
		c11.64-3.52,23.31-6.96,34.95-10.47c18.61-5.61,37.2-11.28,55.81-16.86c17.71-5.32,35.06-11.61,51.97-19.47
		c-1.4,0.16-2.82,0.23-4.21,0.49c-1.39,0.26-2.76,0.66-4.1,1.1c-22.03,7.21-44.09,14.35-66.09,21.69
		c-20.74,6.92-41.27,14.54-63.62,18.79c1.46-1.28,2.4-2.19,3.43-2.99c12.38-9.73,25.82-17.66,40.05-24.42
		c20.73-9.85,42.55-15.53,65.33-17.2c16.24-1.2,32.54-0.9,48.64,2.06c18.07,3.32,35.47,8.71,51.72,17.45
		c15.34,8.25,29.3,18.4,40.96,31.37c9.22,10.26,18.57,20.51,26.6,31.67c5.43,7.55,9.14,16.46,12.82,25.11
		c9.14,21.49,14.07,44.15,17.01,67.21c2.79,21.8,1.6,43.58-1.64,65.27c-0.12,0.81-0.44,1.6-0.67,2.4
		C511.95,553.7,511.85,553.44,511.75,553.18z M358.16,498.35c0.13,0.23,0.25,0.45,0.38,0.68c-0.54,0.14-1.08,0.29-1.62,0.42
		c-14.32,3.43-25.82,11.17-34.98,22.61c-2.64,3.29-3.89,6.71-3.31,10.96c1.15,8.54,5.24,15.31,12.11,20.31
		c8.65,6.29,18.61,6.66,28.75,5.71c2.14-0.2,4.34-1.12,5.18,2.02c0.13,0.47,0.93,0.97,1.5,1.09c10.56,2.21,20.83,1.85,30.48-3.64
		c2.04-1.16,3.95-2.73,6.13-3.46c2.1-0.7,3.17-1.96,3.73-3.83c0.45-1.51,0.64-3.09,0.94-4.61c11.81-3.92,20.24-11.36,24.94-23
		c2.01-4.96,4.57-9.6,4.37-15.29c-0.52-15.11-10.14-25.29-24.83-25.91c-9.91-0.42-19.14,1.62-27.31,7.45
		c-1.35,0.96-2.04,0.86-3.36-0.14c-1.32-1-3.18-1.82-4.8-1.82c-5.74,0.02-10.88,2.07-15.17,5.86
		C359.95,494.96,359.19,496.8,358.16,498.35z M490.5,456.16c-0.23-2.02-0.34-5.26-0.99-8.39c-1.92-9.3-6.97-16.18-16.49-18.61
		c-4.02-1.03-8.85-2.21-12.43-0.91c-7.35,2.67-12.34,8.96-13.49,16.6c-2.35,15.72,2.85,29.05,15.36,39.18
		c6.16,4.98,12.48,4.46,17.89-1.26C487.09,475.64,490.34,467.12,490.5,456.16z M224,540.84c0.16,0.34,0.33,0.68,0.49,1.02
		c1.3-0.5,2.62-0.97,3.9-1.5c3.03-1.25,6.26-3.9,9.01-3.47c3.78,0.6,6.48-1.34,9.7-1.73c7.48-0.91,14.96-1.78,22.46-2.44
		c3.28-0.29,6.62,0,9.92-0.07c3.37-0.07,5.92-1.92,6.92-4.9c0.97-2.9-0.96-4.58-2.75-6.28c-2.65-2.52-5.78-3.89-9.49-3.56
		c-13.66,1.23-26.78,4.37-38.62,11.56C230.85,532.33,227.05,536.26,224,540.84z M353.96,568.11c0.75,1.16,1.25,2.72,2.31,3.42
		c2.73,1.79,5.6,3.45,8.6,4.72c14.06,5.91,27.45,4.06,40.23-3.84c5.26-3.25,9.26-7.47,10.28-13.81c0.16-0.97-0.6-2.09-0.94-3.14
		c-1.04,0.39-2.55,0.47-3.06,1.22c-5.62,8.27-13.68,13.17-22.79,16.47C376.34,577.59,364.96,575.39,353.96,568.11z"/>
	<path class="st0" d="M225.65,642.07c15.35-0.19,29.11-4.05,42.7-9.33c11.41-4.43,23.25-7.72,34.84-11.7
		c12.13-4.17,24.07-8.91,36.29-12.79c18.16-5.77,36.46-11.1,54.75-16.43c20.3-5.91,40.56-11.95,61.01-17.3
		c18.07-4.73,36.36-8.59,54.56-12.82c0.25-0.06,0.53,0.05,1.29,0.14c-1.59,6.67-2.98,13.28-4.73,19.79
		c-9.7,36.05-24.58,69.91-44.53,101.41c-8.78,13.86-18.86,26.89-28.25,40.36c-5.77,8.28-11.34,16.7-17.01,25.06
		c-0.27,0.39-0.45,0.9-0.82,1.15c-3.72,2.47-2.87,5.66-1.87,9.21c2.15,7.68,6.63,14.1,10.58,20.84
		c6.97,11.92,12.95,24.31,15.88,37.89c2.17,10.06,0.81,19.91-3.07,29.43c-0.61,1.51-1.49,1.87-3.09,1.55
		c-6.11-1.22-11.33-4.15-15.93-8.22c-15.52-13.73-23.86-30.92-24.68-51.64c-0.19-4.7,0.51-9.46,0.1-14.13
		c-0.34-3.99-1.44-7.97-2.69-11.79c-0.47-1.43-2.17-3.06-3.62-3.46c-12-3.26-23.36-1.91-33.78,5.31
		c-13.19,9.14-26.04,18.85-39.73,27.17c-16.65,10.11-35.11,15.11-54.73,15.08c-5.43-0.01-11.02,1-16.18-1.64
		c-2.09-1.07-4.17-2.21-6.11-3.53c-1.61-1.09-2.4-5.05-1.47-7.04c6.1-13.14,15.1-23.43,29.49-27.42c10.16-2.82,20.63-4.55,30.92-6.9
		c6.16-1.41,12.33-2.87,18.39-4.65c7.97-2.34,11.7-8.29,6.24-17.84c-6.96-12.17-15.64-23.18-25.15-33.49
		c-16.28-17.64-34.43-33.2-53.47-47.75c-1.41-1.08-2.62-2.43-3.96-3.61c-3.17-2.82-6.37-5.61-9.55-8.43
		C227.51,643.87,226.8,643.16,225.65,642.07z"/>
	<path class="st0" d="M273.58,312.07c-4.39,1.54-8.57,3-13.07,4.57c-0.27-1.95-0.5-3.79-0.78-5.62
		c-1.66-10.74-6.45-20.26-11.81-29.51c-3.69-6.37-7.68-12.55-11.54-18.82c-0.25-0.4-0.76-0.83-0.71-1.18
		c0.55-4.03-2.64-5.77-4.91-8.02c-6.11-6.04-12.15-12.16-18.48-17.97c-22.39-20.57-48.33-34.55-78.24-40.41
		c-18.07-3.54-35.95-7.74-53.24-13.99c-12.93-4.68-25.61-10.11-38.19-15.67c-7.41-3.27-11.86-9.42-13.75-17.37
		c-0.58-2.45,0.07-4.07,2.26-5.42c16.24-10.03,33.77-12.64,52.33-9.14c8.09,1.53,14.56,6.56,21.46,10.57
		c16.84,9.77,31.47,22.53,46.61,34.6c12.57,10.02,25,20.21,37.87,29.82c7.53,5.63,15.89,10.14,23.69,15.42
		c2.36,1.6,4.39,3.87,6.12,6.18c5.32,7.13,11.05,13.85,18.37,19.33c-0.39-0.97-0.69-1.99-1.19-2.91c-1.64-2.98-3.44-5.86-5-8.88
		c-0.7-1.35-0.77-3.03-1.47-4.38c-1.23-2.41-2.47-4.89-4.16-6.98c-2.83-3.52-6.24-6.6-8.99-10.18c-2.38-3.1-4-6.78-6.27-9.98
		c-9.33-13.19-18.26-26.72-28.31-39.35c-20.11-25.3-44.45-45.79-73.05-61.06c-14.53-7.75-29.72-13.82-45.55-18.4
		c-5.09-1.47-10.08-1.28-15.13-0.24C39.1,89,30.22,87.61,21.95,82.9c-3.52-2.01-6.01-5.19-7.44-9.03
		c-6.5-17.53-9.21-35.6-7.28-54.25c0.35-3.35,1.29-6.65,2.16-9.92c0.2-0.75,1.26-1.79,1.94-1.8c8.78-0.21,17.79-0.9,25.91,3.09
		c8.44,4.15,16.66,8.83,24.62,13.84c10.29,6.47,19.15,14.79,27.66,23.39c18.34,18.54,36.5,37.3,52.96,57.55
		c9.28,11.42,17.74,23.51,26.43,35.4c13.21,18.08,26.44,36.15,39.37,54.43c6.71,9.48,12.71,19.45,19.24,29.07
		c3.07,4.52,7.35,8.35,9.78,13.15c3.94,7.76,6.8,16.07,10.1,24.16c0.28,0.69,0.24,1.58,0.66,2.15c5.84,7.94,7.13,17.9,11.88,26.35
		C264.1,297.82,267.42,305.67,273.58,312.07z"/>
	<path class="st0" d="M520.27,548.79c12.08-1.2,22.05-6.09,30.56-14.1c9.48-8.91,20.41-15.15,33.13-18.13
		c3.29-0.77,4.01-0.09,3.62,3.13c-1,8.29-3.74,15.96-8.36,22.9c-7.83,11.78-15.47,23.71-23.74,35.19
		c-7.66,10.64-17.09,19.78-27.91,27.17c-6.18,4.22-13.27,7.12-19.96,10.58c-1.42,0.73-2.9,1.34-4.85,2.23
		C511.36,595.22,517.05,572.35,520.27,548.79z"/>
	<path class="st0" d="M179.32,732.85c0.83-8.8,3.43-16.91,7.09-24.75c3.59-7.69,7.2-15.38,10.56-23.17
		c5.28-12.24,17.16-27.94,26.76-34.54c1.83,1.92,3.63,4.06,5.69,5.91c1.96,1.75,4.24,3.13,6.31,4.77
		c7.99,6.35,15.94,12.75,23.92,19.11c0.37,0.29,0.87,0.42,1.31,0.62c-0.13,0.23-0.26,0.45-0.38,0.68c-2.53,0.86-5.08,1.68-7.6,2.57
		c-9.6,3.4-17.26,10.01-25.46,15.68c-8.23,5.69-16.28,11.66-24.13,17.86c-4.05,3.21-7.45,7.23-11.21,10.82
		C188.72,731.75,184.76,733.88,179.32,732.85z"/>
	<path class="st0" d="M244.96,214.02c-1.71-17.15-3.65-34.29-5.06-51.46c-1.41-17.19-0.88-34.35,2.5-51.34
		c3.93-19.74,10.54-38.51,20.76-55.91c3.76-6.41,8.95-11.68,14.65-16.42c0.5-0.41,1.3-0.46,1.96-0.68c0.24,0.97,0.77,1.98,0.66,2.91
		c-0.52,4.31-1.2,8.59-1.86,12.88c-3.32,21.58-8.92,42.58-15.65,63.33c-3.4,10.47-6.79,21.03-8.96,31.8
		c-2.48,12.28-3.76,24.81-5.27,37.26c-1.11,9.16-1.76,18.38-2.61,27.57C245.71,213.98,245.33,214,244.96,214.02z"/>
	<path class="st0" d="M243.44,284.98c-6.85-8.34-14.56-15.64-23.57-21.59c-8.51-5.62-17.78-9.45-27.51-12.32
		c-16.68-4.93-33.78-6-51.01-5.4c-11.03,0.39-21.95,1.85-32.68,4.76c-11.34,3.07-22.85,2.63-34.27,0.43
		c-4.37-0.84-8.16-3.19-11.32-6.7c7.35-5.37,14.68-9.53,23.58-11.04c15.76-2.67,31.64-3.4,47.48-2.6
		c11.44,0.58,22.82,2.72,34.15,4.63c13.89,2.34,27.22,6.77,40.26,12.06c6.2,2.51,11.24,6.41,16.12,11.12
		c7.85,7.58,13.16,16.68,18.51,25.89C243.33,284.43,243.36,284.72,243.44,284.98z"/>
	<path class="st0" d="M161.06,117.83c3.34-3.64,3.54-8.38,3.77-12.91c0.23-4.39,2.85-6.49,6.18-8.3c0.58-0.32,1.18-0.59,1.8-0.82
		c5.28-1.91,7-1.28,10.07,3.44c3.51,5.39,4.49,11.61,5.44,17.7c1.66,10.52,2.5,21.16,4.15,31.68c0.91,5.83,2.78,11.51,4.21,17.26
		c0.11,0.44,0.19,0.89-0.07,1.53C184.77,150.9,172.94,134.39,161.06,117.83z"/>
	<path d="M358.16,498.35c1.03-1.55,1.8-3.39,3.14-4.58c4.29-3.79,9.43-5.85,15.17-5.86c1.62,0,3.47,0.82,4.8,1.82
		c1.31,0.99,2.01,1.1,3.36,0.14c8.17-5.83,17.4-7.86,27.31-7.45c14.68,0.61,24.31,10.79,24.83,25.91c0.2,5.7-2.36,10.33-4.37,15.29
		c-4.71,11.63-13.14,19.08-24.94,23c-0.3,1.52-0.49,3.11-0.94,4.61c-0.56,1.87-1.64,3.13-3.73,3.83c-2.18,0.73-4.09,2.29-6.13,3.46
		c-9.64,5.49-19.92,5.85-30.48,3.64c-0.57-0.12-1.37-0.62-1.5-1.09c-0.84-3.13-3.04-2.22-5.18-2.02
		c-10.14,0.95-20.1,0.58-28.75-5.71c-6.87-5-10.96-11.77-12.11-20.31c-0.57-4.25,0.68-7.67,3.31-10.96
		c9.17-11.45,20.66-19.19,34.98-22.61c0.54-0.13,1.08-0.28,1.62-0.42C358.41,498.8,358.29,498.57,358.16,498.35z M389.86,537.36
		c3.66,1.27,7.36,3.64,11.03,3.58c7.04-0.1,13.54-3.07,18.35-8.31c8.15-8.87,10.75-19.47,8.33-31.29
		c-1.61-7.89-7.36-12.54-15.4-12.65c-7.79-0.1-15.17,1.69-22.35,4.51c-4.33,1.7-8.5,3.65-10.15,8.57c-0.17,0.52-0.61,0.95-0.92,1.42
		c-1.3,1.98-3.05,2.62-5.36,2c-3-0.8-6.02-1.54-9.06-2.21c-0.97-0.21-2.11-0.4-2.99-0.09c-13.98,4.9-25.6,13.16-34.76,24.81
		c-0.74,0.94-1.18,2.38-1.2,3.6c-0.11,9.27,5.19,16.13,14.19,18.31c3.75,0.91,7.56,1.61,11.39,2.14c7.21,0.99,14.22,0.81,20.82-3.09
		c5.23-3.09,8.35-8.04,12.36-12.24c3.35-3.52,3.77-7.25,2.69-11.41c-1.21-4.65-2.81-9.21-4.19-13.66
		C389.38,513.31,393.4,526.61,389.86,537.36z M364.1,498.17c2.78,0.84,5.35,1.69,7.97,2.36c0.79,0.2,2.17,0.25,2.49-0.2
		c1.27-1.76,2.23-3.75,3.3-5.63C371.51,491.16,366.95,493.1,364.1,498.17z"/>
	<path d="M490.5,456.16c-0.15,10.96-3.41,19.48-10.15,26.61c-5.41,5.72-11.73,6.24-17.89,1.26c-12.51-10.13-17.71-23.46-15.36-39.18
		c1.14-7.64,6.14-13.93,13.49-16.6c3.58-1.3,8.41-0.12,12.43,0.91c9.52,2.43,14.56,9.31,16.49,18.61
		C490.15,450.9,490.27,454.14,490.5,456.16z M481.61,451.04c-1.95-8.44-1.95-8.44-5.25-12.01c-1.8-1.95-3.67-2.03-5.63-0.25
		c-3.84,3.5-2.93,11.69,1.62,14.27c0.54,0.31,1.33,0.57,1.88,0.41C476.73,452.74,479.2,451.85,481.61,451.04z"/>
	<path d="M224,540.84c3.05-4.58,6.85-8.51,11.54-11.36c11.84-7.19,24.96-10.33,38.62-11.56c3.71-0.33,6.84,1.04,9.49,3.56
		c1.79,1.7,3.72,3.38,2.75,6.28c-1,2.97-3.55,4.83-6.92,4.9c-3.31,0.07-6.64-0.22-9.92,0.07c-7.5,0.67-14.98,1.54-22.46,2.44
		c-3.22,0.39-5.92,2.33-9.7,1.73c-2.75-0.44-5.98,2.22-9.01,3.47c-1.29,0.53-2.6,1-3.9,1.5C224.33,541.52,224.16,541.18,224,540.84z
		"/>
	<path d="M353.96,568.11c10.99,7.28,22.38,9.48,34.64,5.03c9.1-3.3,17.17-8.2,22.79-16.47c0.51-0.75,2.02-0.83,3.06-1.22
		c0.33,1.05,1.09,2.17,0.94,3.14c-1.02,6.34-5.02,10.56-10.28,13.81c-12.78,7.9-26.17,9.75-40.23,3.84c-3-1.26-5.87-2.93-8.6-4.72
		C355.21,570.83,354.72,569.28,353.96,568.11z"/>
	<path class="st0" d="M389.86,537.36c3.54-10.75-0.48-24.05-7.22-26c1.38,4.45,2.98,9.01,4.19,13.66c1.08,4.16,0.66,7.89-2.69,11.41
		c-4.01,4.2-7.13,9.16-12.36,12.24c-6.6,3.9-13.61,4.08-20.82,3.09c-3.82-0.53-7.64-1.23-11.39-2.14c-9-2.18-14.3-9.04-14.19-18.31
		c0.01-1.22,0.45-2.66,1.2-3.6c9.16-11.65,20.78-19.91,34.76-24.81c0.88-0.31,2.03-0.12,2.99,0.09c3.04,0.66,6.06,1.4,9.06,2.21
		c2.31,0.62,4.07-0.01,5.36-2c0.31-0.47,0.75-0.9,0.92-1.42c1.64-4.93,5.82-6.88,10.15-8.57c7.17-2.82,14.56-4.61,22.35-4.51
		c8.04,0.11,13.79,4.76,15.4,12.65c2.42,11.82-0.18,22.42-8.33,31.29c-4.82,5.24-11.32,8.21-18.35,8.31
		C397.22,541,393.52,538.63,389.86,537.36z"/>
	<path class="st0" d="M364.1,498.17c2.85-5.07,7.41-7.01,13.76-3.48c-1.07,1.89-2.03,3.87-3.3,5.63c-0.32,0.45-1.7,0.41-2.49,0.2
		C369.45,499.86,366.88,499.01,364.1,498.17z"/>
	<path class="st0" d="M481.61,451.04c-2.41,0.81-4.87,1.69-7.38,2.42c-0.55,0.16-1.34-0.1-1.88-0.41
		c-4.55-2.58-5.45-10.77-1.62-14.27c1.96-1.78,3.83-1.7,5.63,0.25C479.65,442.61,479.65,442.61,481.61,451.04z"/>
</g>
</svg>
