<?xml version="1.0" encoding="utf-8"?>
<!-- Generator: Adobe Illustrator 26.0.0, SVG Export Plug-In . SVG Version: 6.00 Build 0)  -->
<svg version="1.1" id="Capa_1" xmlns="http://www.w3.org/2000/svg" xmlns:xlink="http://www.w3.org/1999/xlink" x="0px" y="0px"
	 viewBox="0 0 595.3 857" style="enable-background:new 0 0 595.3 857;" xml:space="preserve">
<style type="text/css">
	.st0{fill:#FFFFFF;}
</style>
<g>
	<path d="M521.9,542.3c10.4-3.2,18.8-10.5,27.5-17.5c9.6-7.8,20.7-13.2,32.5-16.8c3-0.9,6.2-0.8,9.1,0.8c2.8,1.6,4.3,3.7,4.3,7.3
		c0.1,14.5-4.8,27.1-13.6,38.5c-10,13-19.4,26.3-29.6,39.1c-13.1,16.6-30.4,26.8-50.9,32c-1,0.3-2.2,1.3-2.6,2.3
		c-8.4,20.6-18.4,40.4-30.3,59.1c-10.2,15.9-21.2,31.2-31.8,46.8c-4.1,6-7.6,12.5-12.1,18.2c-2.7,3.4-1.8,5.6-0.1,8.8
		c7.3,14.3,15,28.4,21.2,43.2c5.7,13.6,6.1,28,1.4,42.2c-0.8,2.3-2.1,4.4-3.1,6.6c-1.5,3.6-4.3,4.3-7.8,3.8
		c-10.9-1.4-20.2-5.9-27.7-13.9c-19.3-20.4-24.6-45.2-22.8-72.2c0.1-2-0.3-3.1-2.1-4c-6.4-3-12.6-2.4-18.7,0.8
		c-12.2,6.3-22.8,15.1-33.8,23.2c-17.8,13.1-37.8,21.2-59.6,24.6c-11,1.7-21.9,0.9-32.3-3.4c-3.5-1.5-6.6-4-9.5-6.4
		c-1-0.8-1.5-2.8-1.6-4.3c-1.1-9.8,2-18.2,8.9-25.3c6.9-7.1,14.7-12.9,23.9-16.3c5.7-2.1,11.8-3,17.8-4.3
		c10.9-2.3,21.8-4.4,32.7-6.6c0.8-0.2,1.7-0.2,2.5-0.5c2.5-0.7,3.2-2.4,1.9-4.7c-6.8-12.1-15.2-23-24.9-32.9
		c-7.3-7.4-14.7-14.7-22-22c-0.3-0.3-0.7-0.6-0.5-0.4c-4.2,1.5-7.9,2.7-11.5,4.2c-3.1,1.3-6.1,2.8-9,4.6
		c-17.9,10.9-34.6,23.7-51,36.8c-2.9,2.3-6.1,4.2-9.3,5.8c-4.1,2.1-8.5,2.8-12.4-0.6c-0.9-0.8-1.7-2.1-1.8-3.2
		c-0.6-9.7,1.4-19,5.7-27.7c5-10.1,10.1-20.3,15.6-30.1c6.6-11.7,14-22.9,24.1-32.4c-3.3-3.7-6.4-7.4-9.8-11
		c-16.1-17.1-30-35.8-41.4-56.3c-13.1-23.8-23.9-48.5-29.3-75.3c-7.4-37-0.6-71.5,20.3-103c8.6-13,18.9-24.7,30.1-35.7
		c14.7-14.5,31.9-26.6,47.2-35.5c5.1-3,10.5-5.5,16.2-8.5c-2.2-5.5-4.1-11.1-6.7-16.5c-6-12.5-14.4-23.3-26-31.2
		c-13-8.7-27.2-14.7-42.6-17.5c-15-2.8-30.2-2.7-45.2,0.1c-13.4,2.5-26.9,4-40.6,3.5c-6.1-0.2-12.3-0.6-18.3-1.4
		c-6.6-0.8-11.8-4.4-15.9-9.5c-1.8-2.3-1.1-7.5,1.4-9.5c6.5-5.4,14-8.9,22.1-11.1c17.1-4.6,34.5-4.7,52-4.1
		c18.6,0.7,36.8,3.3,54.6,8.6c6,1.8,11.9,4,18.2,5.7c-4.3-3.4-8.7-6.7-13-10.1c-14.2-11.1-30.4-17.6-47.9-21.8
		c-23.9-5.8-47.6-12.3-71.2-19.2c-16.7-4.9-31.5-13.9-44.7-25.4c-6-5.2-6.4-12.5-5.4-19.6c0.3-2.2,3.2-4.2,5.3-5.9
		c5.1-4.1,11.2-5.6,17.5-6.8c4.4-0.8,8.7-1.6,13.1-2.5c10.8-2.2,21.5-1.3,32,1.4c3.6,0.9,6.8,3.2,10.1,5c15,8,28.1,18.8,41.3,29.4
		c19.8,15.9,39.7,31.5,59.6,47.2c1.5,1.1,3.1,2.1,5,2.9c-2.9-4.1-5.8-8.2-8.6-12.4c-9.1-13.7-18.7-27.1-30-39.1
		c-13.1-14-27.4-26.6-43.4-37.1c-17.6-11.5-36.6-20.2-56.7-26.5c-7.9-2.5-15.9-3.5-24.3-2.3c-10.7,1.6-20.5-1.8-28.7-8.7
		c-2.5-2.1-4.1-5.6-5.4-8.8C1.7,58.8-1.2,39.8,0.5,20.2c0.4-4.4,1.3-8.8,2.3-13.1c1.1-4.9,4-6.8,9-7c13.9-0.6,27.2,1.9,39.8,8
		c8.2,4,15.2,9.6,21.7,15.7c13.1,12.4,26.7,24.4,39,37.5c14.3,15.2,27.6,31.4,41.3,47.2c0.6,0.7,1.2,1.3,2.1,2.2
		c0.8-2.9,1.8-5.3,1.9-7.7c0.1-3.5,1.4-6.2,3.8-8.5c3.1-3,6.6-5.5,10.9-6.3c2.7-0.5,5.4-0.9,8.1-0.9c1.1,0,2.4,1,3.2,1.9
		c7.6,8.2,11.5,18,12.8,29c1.5,12.8,2.9,25.6,4.8,38.2c1.8,11.3,7.1,21.4,12.4,31.4c7.5,14,16,27.4,25.6,40.1c0.4,0.6,1,1.1,1.2,1.4
		c-2.4-17-5.1-34.1-7.4-51.3c-2.4-18.1-2.3-36.2-0.6-54.3c1.9-19.5,6.3-38.3,14.8-56.1c4.8-10.1,10-20,17.8-28.1
		c3.6-3.7,7.7-7,12.1-9.8c1.9-1.2,4.9-0.9,7.3-0.9c0.5,0,1.2,1.3,1.4,2.2c3.1,9,2.9,18.1,0.8,27.4c-5.5,24.2-13,47.8-20.5,71.5
		c-6,19.1-9.6,38.8-11,58.9c-0.8,11.4-2,22.8-2.8,34.2c-1,14.1,1,27.9,4.9,41.4c4.1,14.1,11.3,26.7,18.1,39.5
		c0.9,1.8,3.3,2.7,4.8,4.2c1.9,2.1,3.8,0.7,5.7,0.3c17.6-4.3,35.4-5.7,53.4-4c12.7,1.2,25.5,2.1,37.9,4.7c28.6,6,53.9,18.9,76.2,38
		c15.4,13.2,28.6,28.3,39,45.8c8.6,14.5,14.7,29.9,19.3,46c5.6,19.4,9.3,39.2,10,59.4C522.3,513,521.9,527.7,521.9,542.3z"/>
	<path d="M511.8,553.2c0.1,0.3,0.2,0.5,0.3,0.8c0.2-0.8,0.5-1.6,0.7-2.4c3.2-21.7,4.4-43.5,1.6-65.3c-3-23.1-7.9-45.7-17-67.2
		c-3.7-8.6-7.4-17.6-12.8-25.1c-8-11.2-17.4-21.4-26.6-31.7c-11.7-13-25.6-23.1-41-31.4c-16.2-8.7-33.6-14.1-51.7-17.5
		c-16.1-3-32.4-3.2-48.6-2.1c-22.8,1.7-44.6,7.4-65.3,17.2c-14.2,6.8-27.7,14.7-40.1,24.4c-1,0.8-2,1.7-3.4,3
		c22.4-4.2,42.9-11.9,63.6-18.8c22-7.3,44-14.5,66.1-21.7c1.3-0.4,2.7-0.8,4.1-1.1c1.4-0.3,2.8-0.3,4.2-0.5
		c-16.9,7.9-34.3,14.1-52,19.5c-18.6,5.6-37.2,11.3-55.8,16.9c-11.6,3.5-23.3,7-34.9,10.5c-0.8,0.2-1.6,0.7-2.1,1.2
		c-6.7,7-13.4,14.1-20.1,21.1c-0.6,0.7-1.2,1.5-2,2.5c1-0.1,1.5,0,1.9-0.2c9.9-2.6,20-4.8,29.8-7.8c12.7-3.9,25.2-8.4,37.9-12.5
		c17.4-5.5,34.9-11,52.4-16.3c19.5-6,39-11.8,58.5-17.6c3-0.9,6-1.4,9-2.1c-4.4,2.4-8.9,4.3-13.5,5.9c-18.3,6.2-36.6,12.5-55,18.5
		c-25.3,8.3-50.5,16.7-76,24.4c-14.9,4.5-29.8,9-45.6,9.5c-0.8,0-1.8,0.9-2.4,1.7c-9.3,11.8-17.2,24.4-23.6,37.9
		c-6.5,13.8-10.1,28.3-10.1,43.5c0,21.6,4.5,42.6,11.8,62.9c9.3,25.8,22.7,49.3,39.1,71.2c8.7,11.6,18,22.6,28.2,32.9
		c1.1,1.1,2,1.4,3.6,0.8c3.1-1.2,6.4-2,9.7-2.9c4.7-1.2,9.6-1.8,14.2-3.4c17.7-6.1,35.3-12.6,53.1-18.6
		c21.2-7.2,42.5-14.2,63.9-21.1c20.1-6.4,40.2-12.9,60.5-18.7c19-5.4,38.3-9.9,57.6-14.6C493.1,556.8,502.5,555.1,511.8,553.2z"/>
	<path d="M225.6,642.1c1.1,1.1,1.9,1.8,2.6,2.5c3.2,2.8,6.4,5.6,9.6,8.4c1.3,1.2,2.6,2.5,4,3.6c19.1,14.5,37.2,30.1,53.5,47.8
		c9.5,10.3,18.2,21.3,25.1,33.5c5.5,9.5,1.7,15.5-6.2,17.8c-6.1,1.8-12.2,3.2-18.4,4.7c-10.3,2.3-20.8,4.1-30.9,6.9
		c-14.4,4-23.4,14.3-29.5,27.4c-0.9,2-0.1,6,1.5,7c1.9,1.3,4,2.5,6.1,3.5c5.2,2.6,10.8,1.6,16.2,1.6c19.6,0,38.1-5,54.7-15.1
		c13.7-8.3,26.5-18,39.7-27.2c10.4-7.2,21.8-8.6,33.8-5.3c1.5,0.4,3.1,2,3.6,3.5c1.3,3.8,2.4,7.8,2.7,11.8c0.4,4.7-0.3,9.4-0.1,14.1
		c0.8,20.7,9.2,37.9,24.7,51.6c4.6,4.1,9.8,7,15.9,8.2c1.6,0.3,2.5,0,3.1-1.5c3.9-9.5,5.2-19.4,3.1-29.4c-2.9-13.6-8.9-26-15.9-37.9
		c-3.9-6.7-8.4-13.2-10.6-20.8c-1-3.5-1.8-6.7,1.9-9.2c0.4-0.2,0.5-0.8,0.8-1.2c5.7-8.4,11.2-16.8,17-25.1
		c9.4-13.5,19.5-26.5,28.2-40.4c20-31.5,34.8-65.4,44.5-101.4c1.8-6.5,3.1-13.1,4.7-19.8c-0.8-0.1-1-0.2-1.3-0.1
		c-18.2,4.2-36.5,8.1-54.6,12.8c-20.5,5.3-40.7,11.4-61,17.3c-18.3,5.3-36.6,10.7-54.8,16.4c-12.2,3.9-24.2,8.6-36.3,12.8
		c-11.6,4-23.4,7.3-34.8,11.7C254.8,638,241,641.9,225.6,642.1z"/>
	<path d="M273.6,312.1c-6.2-6.4-9.5-14.3-13.6-21.6c-4.8-8.4-6-18.4-11.9-26.4c-0.4-0.6-0.4-1.5-0.7-2.1
		c-3.3-8.1-6.2-16.4-10.1-24.2c-2.4-4.8-6.7-8.6-9.8-13.1c-6.5-9.6-12.5-19.6-19.2-29.1c-12.9-18.3-26.2-36.4-39.4-54.4
		c-8.7-11.9-17.1-24-26.4-35.4c-16.5-20.2-34.6-39-53-57.5C81,39.6,72.2,31.3,61.9,24.8c-8-5-16.2-9.7-24.6-13.8
		c-8.1-4-17.1-3.3-25.9-3.1c-0.7,0-1.7,1.1-1.9,1.8c-0.9,3.3-1.8,6.6-2.2,9.9C5.3,38.3,8,56.3,14.5,73.9c1.4,3.8,3.9,7,7.4,9
		c8.3,4.7,17.1,6.1,26.5,4.2c5-1,10-1.2,15.1,0.2c15.8,4.6,31,10.7,45.5,18.4c28.6,15.3,52.9,35.8,73.1,61.1
		c10.1,12.6,19,26.2,28.3,39.3c2.3,3.2,3.9,6.9,6.3,10c2.8,3.6,6.1,6.7,9,10.2c1.7,2.1,2.9,4.6,4.2,7c0.7,1.4,0.8,3,1.5,4.4
		c1.6,3,3.4,5.9,5,8.9c0.5,0.9,0.8,1.9,1.2,2.9c-7.3-5.5-13.1-12.2-18.4-19.3c-1.7-2.3-3.8-4.6-6.1-6.2c-7.8-5.3-16.2-9.8-23.7-15.4
		c-12.9-9.6-25.3-19.8-37.9-29.8c-15.1-12.1-29.8-24.8-46.6-34.6c-6.9-4-13.4-9.1-21.5-10.6c-18.6-3.5-36.1-0.9-52.3,9.1
		c-2.2,1.4-2.8,3-2.3,5.4c1.9,7.9,6.4,14.1,13.7,17.4c12.6,5.6,25.3,11,38.2,15.7c17.3,6.2,35.2,10.4,53.2,14
		c29.9,5.9,55.8,19.8,78.2,40.4c6.3,5.8,12.4,11.9,18.5,18c2.3,2.2,5.5,4,4.9,8c-0.1,0.4,0.5,0.8,0.7,1.2
		c3.9,6.3,7.9,12.5,11.5,18.8c5.4,9.2,10.2,18.8,11.8,29.5c0.3,1.8,0.5,3.7,0.8,5.6C265,315.1,269.2,313.6,273.6,312.1z"/>
	<path d="M520.3,548.8c-3.2,23.6-8.9,46.4-17.5,69c2-0.9,3.4-1.5,4.9-2.2c6.7-3.5,13.8-6.4,20-10.6c10.8-7.4,20.2-16.5,27.9-27.2
		c8.3-11.5,15.9-23.4,23.7-35.2c4.6-6.9,7.4-14.6,8.4-22.9c0.4-3.2-0.3-3.9-3.6-3.1c-12.7,3-23.7,9.2-33.1,18.1
		C542.3,542.7,532.3,547.6,520.3,548.8z"/>
	<path d="M179.3,732.8c5.4,1,9.4-1.1,12.9-4.4c3.8-3.6,7.1-7.6,11.2-10.8c7.9-6.2,15.9-12.2,24.1-17.9c8.2-5.7,15.9-12.3,25.5-15.7
		c2.5-0.9,5.1-1.7,7.6-2.6c0.1-0.2,0.3-0.5,0.4-0.7c-0.4-0.2-1-0.3-1.3-0.6c-8-6.4-15.9-12.8-23.9-19.1c-2.1-1.6-4.4-3-6.3-4.8
		c-2.1-1.8-3.9-4-5.7-5.9c-9.6,6.6-21.5,22.3-26.8,34.5c-3.4,7.8-7,15.5-10.6,23.2C182.8,715.9,180.1,724,179.3,732.8z"/>
	<path d="M245,214c0.4,0,0.7,0,1.1-0.1c0.9-9.2,1.5-18.4,2.6-27.6c1.5-12.4,2.8-25,5.3-37.3c2.2-10.8,5.6-21.3,9-31.8
		c6.7-20.8,12.3-41.8,15.6-63.3c0.7-4.3,1.3-8.6,1.9-12.9c0.1-0.9-0.4-1.9-0.7-2.9c-0.7,0.2-1.5,0.3-2,0.7
		c-5.7,4.7-10.9,10-14.6,16.4c-10.2,17.4-16.8,36.2-20.8,55.9c-3.4,17-3.9,34.2-2.5,51.3C241.3,179.7,243.2,196.9,245,214z"/>
	<path d="M243.4,285c-0.1-0.3-0.1-0.5-0.2-0.8c-5.3-9.2-10.7-18.3-18.5-25.9c-4.9-4.7-9.9-8.6-16.1-11.1c-13-5.3-26.4-9.7-40.3-12.1
		c-11.3-1.9-22.7-4.1-34.1-4.6c-15.8-0.8-31.7-0.1-47.5,2.6c-8.9,1.5-16.2,5.7-23.6,11c3.2,3.5,6.9,5.9,11.3,6.7
		c11.4,2.2,22.9,2.6,34.3-0.4c10.7-2.9,21.6-4.4,32.7-4.8c17.2-0.6,34.3,0.5,51,5.4c9.7,2.9,19,6.7,27.5,12.3
		C228.9,269.3,236.6,276.6,243.4,285z"/>
	<path d="M161.1,117.8c11.9,16.6,23.7,33.1,35.6,49.6c0.3-0.6,0.2-1.1,0.1-1.5c-1.4-5.8-3.3-11.4-4.2-17.3
		c-1.6-10.5-2.5-21.2-4.1-31.7c-1-6.1-1.9-12.3-5.4-17.7c-3.1-4.7-4.8-5.3-10.1-3.4c-0.6,0.2-1.2,0.5-1.8,0.8
		c-3.3,1.8-5.9,3.9-6.2,8.3C164.6,109.4,164.4,114.2,161.1,117.8z"/>
	<path class="st0" d="M511.8,553.2c-9.3,1.9-18.6,3.6-27.9,5.9c-19.2,4.7-38.5,9.2-57.6,14.6c-20.3,5.7-40.4,12.2-60.5,18.7
		c-21.4,6.8-42.7,13.8-63.9,21.1c-17.8,6-35.4,12.5-53.1,18.6c-4.6,1.6-9.5,2.2-14.2,3.4c-3.3,0.8-6.6,1.7-9.7,2.9
		c-1.6,0.6-2.5,0.4-3.6-0.8c-10.2-10.3-19.6-21.3-28.2-32.9c-16.4-21.9-29.8-45.5-39.1-71.2c-7.3-20.3-11.7-41.2-11.8-62.9
		c0-15.2,3.6-29.8,10.1-43.5c6.4-13.5,14.3-26.1,23.6-37.9c0.6-0.7,1.6-1.6,2.4-1.7c15.8-0.5,30.7-5,45.6-9.5
		c25.5-7.7,50.7-16.1,76-24.4c18.4-6,36.7-12.3,55-18.5c4.6-1.6,9.1-3.5,13.5-5.9c-3,0.7-6.1,1.2-9,2.1c-19.5,5.8-39,11.7-58.5,17.6
		c-17.5,5.4-35,10.8-52.4,16.3c-12.7,4-25.2,8.6-37.9,12.5c-9.8,3-19.9,5.2-29.8,7.8c-0.4,0.1-0.9,0.1-1.9,0.2
		c0.9-1.1,1.4-1.9,2-2.5c6.7-7.1,13.4-14.1,20.1-21.1c0.6-0.6,1.4-1,2.1-1.2c11.6-3.5,23.3-7,34.9-10.5
		c18.6-5.6,37.2-11.3,55.8-16.9c17.7-5.3,35.1-11.6,52-19.5c-1.4,0.2-2.8,0.2-4.2,0.5c-1.4,0.3-2.8,0.7-4.1,1.1
		c-22,7.2-44.1,14.4-66.1,21.7c-20.7,6.9-41.3,14.5-63.6,18.8c1.5-1.3,2.4-2.2,3.4-3c12.4-9.7,25.8-17.7,40.1-24.4
		c20.7-9.9,42.6-15.5,65.3-17.2c16.2-1.2,32.5-0.9,48.6,2.1c18.1,3.3,35.5,8.7,51.7,17.5c15.3,8.2,29.3,18.4,41,31.4
		c9.2,10.3,18.6,20.5,26.6,31.7c5.4,7.5,9.1,16.5,12.8,25.1c9.1,21.5,14.1,44.1,17,67.2c2.8,21.8,1.6,43.6-1.6,65.3
		c-0.1,0.8-0.4,1.6-0.7,2.4C512,553.7,511.9,553.4,511.8,553.2z M358.2,498.4c0.1,0.2,0.2,0.5,0.4,0.7c-0.5,0.1-1.1,0.3-1.6,0.4
		c-14.3,3.4-25.8,11.2-35,22.6c-2.6,3.3-3.9,6.7-3.3,11c1.1,8.5,5.2,15.3,12.1,20.3c8.6,6.3,18.6,6.7,28.8,5.7
		c2.1-0.2,4.3-1.1,5.2,2c0.1,0.5,0.9,1,1.5,1.1c10.6,2.2,20.8,1.8,30.5-3.6c2-1.2,4-2.7,6.1-3.5c2.1-0.7,3.2-2,3.7-3.8
		c0.5-1.5,0.6-3.1,0.9-4.6c11.8-3.9,20.2-11.4,24.9-23c2-5,4.6-9.6,4.4-15.3c-0.5-15.1-10.1-25.3-24.8-25.9
		c-9.9-0.4-19.1,1.6-27.3,7.5c-1.4,1-2,0.9-3.4-0.1c-1.3-1-3.2-1.8-4.8-1.8c-5.7,0-10.9,2.1-15.2,5.9
		C360,495,359.2,496.8,358.2,498.4z M490.5,456.2c-0.2-2-0.3-5.3-1-8.4c-1.9-9.3-7-16.2-16.5-18.6c-4-1-8.9-2.2-12.4-0.9
		c-7.4,2.7-12.3,9-13.5,16.6c-2.4,15.7,2.9,29,15.4,39.2c6.2,5,12.5,4.5,17.9-1.3C487.1,475.6,490.3,467.1,490.5,456.2z M224,540.8
		c0.2,0.3,0.3,0.7,0.5,1c1.3-0.5,2.6-1,3.9-1.5c3-1.2,6.3-3.9,9-3.5c3.8,0.6,6.5-1.3,9.7-1.7c7.5-0.9,15-1.8,22.5-2.4
		c3.3-0.3,6.6,0,9.9-0.1c3.4-0.1,5.9-1.9,6.9-4.9c1-2.9-1-4.6-2.8-6.3c-2.6-2.5-5.8-3.9-9.5-3.6c-13.7,1.2-26.8,4.4-38.6,11.6
		C230.9,532.3,227.1,536.3,224,540.8z M354,568.1c0.8,1.2,1.2,2.7,2.3,3.4c2.7,1.8,5.6,3.5,8.6,4.7c14.1,5.9,27.5,4.1,40.2-3.8
		c5.3-3.2,9.3-7.5,10.3-13.8c0.2-1-0.6-2.1-0.9-3.1c-1,0.4-2.5,0.5-3.1,1.2c-5.6,8.3-13.7,13.2-22.8,16.5
		C376.3,577.6,365,575.4,354,568.1z"/>
	<path class="st0" d="M225.6,642.1c15.4-0.2,29.1-4,42.7-9.3c11.4-4.4,23.2-7.7,34.8-11.7c12.1-4.2,24.1-8.9,36.3-12.8
		c18.2-5.8,36.5-11.1,54.8-16.4c20.3-5.9,40.6-12,61-17.3c18.1-4.7,36.4-8.6,54.6-12.8c0.2-0.1,0.5,0,1.3,0.1
		c-1.6,6.7-3,13.3-4.7,19.8c-9.7,36-24.6,69.9-44.5,101.4c-8.8,13.9-18.9,26.9-28.2,40.4c-5.8,8.3-11.3,16.7-17,25.1
		c-0.3,0.4-0.5,0.9-0.8,1.2c-3.7,2.5-2.9,5.7-1.9,9.2c2.1,7.7,6.6,14.1,10.6,20.8c7,11.9,13,24.3,15.9,37.9
		c2.2,10.1,0.8,19.9-3.1,29.4c-0.6,1.5-1.5,1.9-3.1,1.5c-6.1-1.2-11.3-4.2-15.9-8.2c-15.5-13.7-23.9-30.9-24.7-51.6
		c-0.2-4.7,0.5-9.5,0.1-14.1c-0.3-4-1.4-8-2.7-11.8c-0.5-1.4-2.2-3.1-3.6-3.5c-12-3.3-23.4-1.9-33.8,5.3
		c-13.2,9.1-26,18.8-39.7,27.2c-16.6,10.1-35.1,15.1-54.7,15.1c-5.4,0-11,1-16.2-1.6c-2.1-1.1-4.2-2.2-6.1-3.5c-1.6-1.1-2.4-5-1.5-7
		c6.1-13.1,15.1-23.4,29.5-27.4c10.2-2.8,20.6-4.5,30.9-6.9c6.2-1.4,12.3-2.9,18.4-4.7c8-2.3,11.7-8.3,6.2-17.8
		c-7-12.2-15.6-23.2-25.1-33.5c-16.3-17.6-34.4-33.2-53.5-47.8c-1.4-1.1-2.6-2.4-4-3.6c-3.2-2.8-6.4-5.6-9.6-8.4
		C227.5,643.9,226.8,643.2,225.6,642.1z"/>
	<path class="st0" d="M273.6,312.1c-4.4,1.5-8.6,3-13.1,4.6c-0.3-2-0.5-3.8-0.8-5.6c-1.7-10.7-6.4-20.3-11.8-29.5
		c-3.7-6.4-7.7-12.5-11.5-18.8c-0.2-0.4-0.8-0.8-0.7-1.2c0.6-4-2.6-5.8-4.9-8c-6.1-6-12.1-12.2-18.5-18
		c-22.4-20.6-48.3-34.6-78.2-40.4c-18.1-3.5-35.9-7.7-53.2-14c-12.9-4.7-25.6-10.1-38.2-15.7c-7.4-3.3-11.9-9.4-13.8-17.4
		c-0.6-2.4,0.1-4.1,2.3-5.4c16.2-10,33.8-12.6,52.3-9.1c8.1,1.5,14.6,6.6,21.5,10.6c16.8,9.8,31.5,22.5,46.6,34.6
		c12.6,10,25,20.2,37.9,29.8c7.5,5.6,15.9,10.1,23.7,15.4c2.4,1.6,4.4,3.9,6.1,6.2c5.3,7.1,11.1,13.9,18.4,19.3
		c-0.4-1-0.7-2-1.2-2.9c-1.6-3-3.4-5.9-5-8.9c-0.7-1.4-0.8-3-1.5-4.4c-1.2-2.4-2.5-4.9-4.2-7c-2.8-3.5-6.2-6.6-9-10.2
		c-2.4-3.1-4-6.8-6.3-10c-9.3-13.2-18.3-26.7-28.3-39.3c-20.1-25.3-44.4-45.8-73.1-61.1C94.6,98,79.4,91.9,63.6,87.3
		c-5.1-1.5-10.1-1.3-15.1-0.2C39.1,89,30.2,87.6,22,82.9c-3.5-2-6-5.2-7.4-9C8,56.3,5.3,38.3,7.2,19.6c0.3-3.4,1.3-6.6,2.2-9.9
		c0.2-0.8,1.3-1.8,1.9-1.8C20.1,7.7,29.1,7,37.2,11c8.4,4.2,16.7,8.8,24.6,13.8C72.2,31.3,81,39.6,89.5,48.2
		c18.3,18.5,36.5,37.3,53,57.6c9.3,11.4,17.7,23.5,26.4,35.4c13.2,18.1,26.4,36.1,39.4,54.4c6.7,9.5,12.7,19.4,19.2,29.1
		c3.1,4.5,7.4,8.4,9.8,13.1c3.9,7.8,6.8,16.1,10.1,24.2c0.3,0.7,0.2,1.6,0.7,2.1c5.8,7.9,7.1,17.9,11.9,26.4
		C264.1,297.8,267.4,305.7,273.6,312.1z"/>
	<path class="st0" d="M520.3,548.8c12.1-1.2,22-6.1,30.6-14.1c9.5-8.9,20.4-15.2,33.1-18.1c3.3-0.8,4-0.1,3.6,3.1
		c-1,8.3-3.7,16-8.4,22.9c-7.8,11.8-15.5,23.7-23.7,35.2c-7.7,10.6-17.1,19.8-27.9,27.2c-6.2,4.2-13.3,7.1-20,10.6
		c-1.4,0.7-2.9,1.3-4.9,2.2C511.4,595.2,517,572.3,520.3,548.8z"/>
	<path class="st0" d="M179.3,732.8c0.8-8.8,3.4-16.9,7.1-24.8c3.6-7.7,7.2-15.4,10.6-23.2c5.3-12.2,17.2-27.9,26.8-34.5
		c1.8,1.9,3.6,4.1,5.7,5.9c2,1.8,4.2,3.1,6.3,4.8c8,6.3,15.9,12.8,23.9,19.1c0.4,0.3,0.9,0.4,1.3,0.6c-0.1,0.2-0.3,0.5-0.4,0.7
		c-2.5,0.9-5.1,1.7-7.6,2.6c-9.6,3.4-17.3,10-25.5,15.7c-8.2,5.7-16.3,11.7-24.1,17.9c-4.1,3.2-7.4,7.2-11.2,10.8
		C188.7,731.8,184.8,733.9,179.3,732.8z"/>
	<path class="st0" d="M245,214c-1.7-17.1-3.6-34.3-5.1-51.5c-1.4-17.2-0.9-34.4,2.5-51.3c3.9-19.7,10.5-38.5,20.8-55.9
		c3.8-6.4,9-11.7,14.6-16.4c0.5-0.4,1.3-0.5,2-0.7c0.2,1,0.8,2,0.7,2.9c-0.5,4.3-1.2,8.6-1.9,12.9c-3.3,21.6-8.9,42.6-15.6,63.3
		c-3.4,10.5-6.8,21-9,31.8c-2.5,12.3-3.8,24.8-5.3,37.3c-1.1,9.2-1.8,18.4-2.6,27.6C245.7,214,245.3,214,245,214z"/>
	<path class="st0" d="M243.4,285c-6.9-8.3-14.6-15.6-23.6-21.6c-8.5-5.6-17.8-9.5-27.5-12.3c-16.7-4.9-33.8-6-51-5.4
		c-11,0.4-21.9,1.9-32.7,4.8c-11.3,3.1-22.8,2.6-34.3,0.4c-4.4-0.8-8.2-3.2-11.3-6.7c7.3-5.4,14.7-9.5,23.6-11
		c15.8-2.7,31.6-3.4,47.5-2.6c11.4,0.6,22.8,2.7,34.1,4.6c13.9,2.3,27.2,6.8,40.3,12.1c6.2,2.5,11.2,6.4,16.1,11.1
		c7.9,7.6,13.2,16.7,18.5,25.9C243.3,284.4,243.4,284.7,243.4,285z"/>
	<path class="st0" d="M161.1,117.8c3.3-3.6,3.5-8.4,3.8-12.9c0.2-4.4,2.9-6.5,6.2-8.3c0.6-0.3,1.2-0.6,1.8-0.8
		c5.3-1.9,7-1.3,10.1,3.4c3.5,5.4,4.5,11.6,5.4,17.7c1.7,10.5,2.5,21.2,4.1,31.7c0.9,5.8,2.8,11.5,4.2,17.3c0.1,0.4,0.2,0.9-0.1,1.5
		C184.8,150.9,172.9,134.4,161.1,117.8z"/>
	<path d="M358.2,498.4c1-1.5,1.8-3.4,3.1-4.6c4.3-3.8,9.4-5.9,15.2-5.9c1.6,0,3.5,0.8,4.8,1.8c1.3,1,2,1.1,3.4,0.1
		c8.2-5.8,17.4-7.9,27.3-7.5c14.7,0.6,24.3,10.8,24.8,25.9c0.2,5.7-2.4,10.3-4.4,15.3c-4.7,11.6-13.1,19.1-24.9,23
		c-0.3,1.5-0.5,3.1-0.9,4.6c-0.6,1.9-1.6,3.1-3.7,3.8c-2.2,0.7-4.1,2.3-6.1,3.5c-9.6,5.5-19.9,5.8-30.5,3.6
		c-0.6-0.1-1.4-0.6-1.5-1.1c-0.8-3.1-3-2.2-5.2-2c-10.1,1-20.1,0.6-28.8-5.7c-6.9-5-11-11.8-12.1-20.3c-0.6-4.2,0.7-7.7,3.3-11
		c9.2-11.5,20.7-19.2,35-22.6c0.5-0.1,1.1-0.3,1.6-0.4C358.4,498.8,358.3,498.6,358.2,498.4z"/>
	<path d="M389.9,537.4c3.7,1.3,7.4,3.6,11,3.6c7-0.1,13.5-3.1,18.4-8.3c8.1-8.9,10.8-19.5,8.3-31.3c-1.6-7.9-7.4-12.5-15.4-12.6
		c-7.8-0.1-15.2,1.7-22.4,4.5c-4.3,1.7-8.5,3.6-10.1,8.6c-0.2,0.5-0.6,1-0.9,1.4c-1.3,2-3,2.6-5.4,2c-3-0.8-6-1.5-9.1-2.2
		c-1-0.2-2.1-0.4-3-0.1c-14,4.9-25.6,13.2-34.8,24.8c-0.7,0.9-1.2,2.4-1.2,3.6c-0.1,9.3,5.2,16.1,14.2,18.3
		c3.8,0.9,7.6,1.6,11.4,2.1c7.2,1,14.2,0.8,20.8-3.1c5.2-3.1,8.4-8,12.4-12.2c3.4-3.5,3.8-7.2,2.7-11.4c-1.2-4.7-2.8-9.2-4.2-13.7
		C389.4,513.3,393.4,526.6,389.9,537.4z"/>
	<path d="M364.1,498.2c2.8,0.8,5.4,1.7,8,2.4c0.8,0.2,2.2,0.2,2.5-0.2c1.3-1.8,2.2-3.8,3.3-5.6C371.5,491.2,367,493.1,364.1,498.2z"
		/>
	<path d="M490.5,456.2c-0.1,11-3.4,19.5-10.1,26.6c-5.4,5.7-11.7,6.2-17.9,1.3c-12.5-10.1-17.7-23.5-15.4-39.2
		c1.1-7.6,6.1-13.9,13.5-16.6c3.6-1.3,8.4-0.1,12.4,0.9c9.5,2.4,14.6,9.3,16.5,18.6C490.1,450.9,490.3,454.1,490.5,456.2z"/>
	<path d="M481.6,451c-2-8.4-2-8.4-5.2-12c-1.8-2-3.7-2-5.6-0.2c-3.8,3.5-2.9,11.7,1.6,14.3c0.5,0.3,1.3,0.6,1.9,0.4
		C476.7,452.7,479.2,451.9,481.6,451z"/>
	<path d="M224,540.8c3.1-4.6,6.9-8.5,11.5-11.4c11.8-7.2,25-10.3,38.6-11.6c3.7-0.3,6.8,1,9.5,3.6c1.8,1.7,3.7,3.4,2.8,6.3
		c-1,3-3.5,4.8-6.9,4.9c-3.3,0.1-6.6-0.2-9.9,0.1c-7.5,0.7-15,1.5-22.5,2.4c-3.2,0.4-5.9,2.3-9.7,1.7c-2.8-0.4-6,2.2-9,3.5
		c-1.3,0.5-2.6,1-3.9,1.5C224.3,541.5,224.2,541.2,224,540.8z"/>
	<path d="M354,568.1c11,7.3,22.4,9.5,34.6,5c9.1-3.3,17.2-8.2,22.8-16.5c0.5-0.8,2-0.8,3.1-1.2c0.3,1,1.1,2.2,0.9,3.1
		c-1,6.3-5,10.6-10.3,13.8c-12.8,7.9-26.2,9.8-40.2,3.8c-3-1.3-5.9-2.9-8.6-4.7C355.2,570.8,354.7,569.3,354,568.1z"/>
	<path class="st0" d="M389.9,537.4c3.5-10.8-0.5-24-7.2-26c1.4,4.5,3,9,4.2,13.7c1.1,4.2,0.7,7.9-2.7,11.4c-4,4.2-7.1,9.2-12.4,12.2
		c-6.6,3.9-13.6,4.1-20.8,3.1c-3.8-0.5-7.6-1.2-11.4-2.1c-9-2.2-14.3-9-14.2-18.3c0-1.2,0.5-2.7,1.2-3.6
		c9.2-11.7,20.8-19.9,34.8-24.8c0.9-0.3,2-0.1,3,0.1c3,0.7,6.1,1.4,9.1,2.2c2.3,0.6,4.1,0,5.4-2c0.3-0.5,0.8-0.9,0.9-1.4
		c1.6-4.9,5.8-6.9,10.1-8.6c7.2-2.8,14.6-4.6,22.4-4.5c8,0.1,13.8,4.8,15.4,12.6c2.4,11.8-0.2,22.4-8.3,31.3
		c-4.8,5.2-11.3,8.2-18.4,8.3C397.2,541,393.5,538.6,389.9,537.4z"/>
	<path class="st0" d="M364.1,498.2c2.9-5.1,7.4-7,13.8-3.5c-1.1,1.9-2,3.9-3.3,5.6c-0.3,0.5-1.7,0.4-2.5,0.2
		C369.5,499.9,366.9,499,364.1,498.2z"/>
	<path class="st0" d="M481.6,451c-2.4,0.8-4.9,1.7-7.4,2.4c-0.5,0.2-1.3-0.1-1.9-0.4c-4.5-2.6-5.5-10.8-1.6-14.3
		c2-1.8,3.8-1.7,5.6,0.2C479.6,442.6,479.6,442.6,481.6,451z"/>
</g>
</svg>
