<?xml version="1.0" encoding="utf-8"?>
<!-- Generator: Adobe Illustrator 26.0.0, SVG Export Plug-In . SVG Version: 6.00 Build 0)  -->
<svg version="1.1" id="Capa_1" xmlns="http://www.w3.org/2000/svg" xmlns:xlink="http://www.w3.org/1999/xlink" x="0px" y="0px"
	 viewBox="0 0 595.3 743.4" style="enable-background:new 0 0 595.3 743.4;" xml:space="preserve">
<style type="text/css">
	.st0{fill:#FFFFFF;}
</style>
<g>
	<path d="M590.5,620.8c-30.6,7.7-84.4,48.7-103.4,74.4c-1.6,2.3-1.8,2.3-4.3,0.7c-3.3-2-6.5-4.1-9.8-6.1
		c-35.2-22-70.8-43.4-105.7-65.9c2-2.8,8.7-8.8,4.3-11.5c-6.3-3.4-12.5-6.9-18.8-10.3c-17.1-9.5-34.1-19-51.2-28.5
		c-3.7-3-6.1-10-7.6-14.5c37.5,14.7,69.4,41,101.7,64.4c-19.3-44.5-58.4-76.5-96.4-104.9c-5.5-7.6,14.1-6.2-4.2-22.9
		c-0.9-0.9-2-1.6-2.2-3.3c17.4-2.6,35.2-2.6,52.7-4.4c7.2-0.4,17.7-0.7,16.2-11.2c-5.7-15.6-19.4-27.5-28.4-41.3
		c-10.2-13.3-21.2-25.9-32.2-38.5c-2.1-3.2,1.6-7.3,2.7-10.4c42.8,43,92.5,79.6,138,120c4.9,4.2,9.6,8.7,14.5,12.9
		c2.8,2.3,1,5.5,0.5,8.3c-4.5,23.9-1.4,48.9,7.7,71.3c3.4,9.5,15.2,31.4,25.4,16.4c0.7-1.3,1.3-2.2,3.1-2.3c6.4-0.5,4.2-6,6.9-9.5
		c13.1-5.2-2-46.2-2.6-58.6c-0.6-8.9-7.1-26.4,4.5-30c4.7-0.5,8.9-2.3,12.9-4.7c22-10.8,7.3-46.3-6.9-22c-2.7,3.4-6.1,5.1-10.6,4.3
		c-8.8-2.4-16.1,3.9-22.6,9c-4.8,3.5-18.1-11.3-23.6-13.8c-50.9-33.5-92.8-78.5-139.3-117.3c2.5-4.2,5-11.2,9.9-12.8
		c5.4-0.8,10.8-1.6,16.2-2.3c2.6-0.3,3-0.5,2.6-3c0-7.2-7.6-11.6-2-15c21.6-18.5,50.2-27.2,68.5-49.8c1.7,2.1,2.9,4.1,4.4,6.2
		c6.2,7.3,15.5-3,18.5-8.8c5.3-10.7,8.4-22.3,11.9-33.6c0.3-1.1,0.9-1.7,2-2.1c18.6-6.4,37.6-11.6,56.6-17.1
		c10.5-4.2,24.4-3.5,32.3-12.3c8.1-11.2,9.3-25.3,9.9-38.7c0.4-9.4-0.6-18.8-3-27.9c-0.6-2.2-0.2-3.7,1.1-5.4
		c8.1-10.5,15.4-21.6,21.3-33.5c3.6-5,8.3-23.6,13-24.4c15.9-1.3,9.5-26-5.1-19.4c-8.8,4.5-7.1,15.6,1.3,19.4
		c-8,21.1-18.7,40.3-32.9,58.1c-11-32-47.6-50.5-80.2-46.7c-7.4,2.7-10.4,12-16.1,17.1c-11,12.3-23.6,23.5-37.5,32.4
		c9.9-53.5-17.4-107.6-61.5-137.9c-3.2-1.5-2.2-4.7-3.5-7.5c-2.7-5.2-8.3-7.2-13.6-4.8c-16.2,9.9,5.1,29.9,14.6,12.7
		c31.3,22.7,55.2,57.1,60.9,95.8c2.1,14.3,2,28.6-0.6,42.9c-1.9,5.1-10.1,7.8-14.6,10.7c-11.7-17.8-10.4-24.4-35.2-22.9
		c-22.3,2-13.9,28.7-9.1,42.8c-35.5,26.8-59.6,9.3-82.7,29.7c-25.3,26.3-2.8,55.4,26,65c-18,13-15.7,18.9-10,38.4
		c-6.2,1.9-12.1,3.9-18.2,6.1c-2.5,0.9-2.4,1.1-4.2-1c-9.4-11-18.7-22.1-28.2-33c-40.6-45.6-82.2-90.4-124.1-134.8
		c-2.4-2.2,0.6-4.8,1.9-6.7c7.7-9,18.1-14.6,29.1-18.7c7.1-3.4,2.2-15.6-5-15.1c-7.6-0.6-12.8,5.6-18.7,9.4
		c-5.9,1.7-11.2-1.4-17.4,3.6c-14.5,3.8-30.4-2.7-45.1-4.8c-13.8-3-24.5-3.7-19.7,14.4c-6,1.9-12.1-1-18.3,0.3
		c-8.9,1.7-9.3,11.4-4.6,16.8c-6.9,22,42.9,16,54.9,13.7c9.6-1.9,21.3-5.4,29.9,1.2c14.6,12,28.3,25,41.7,38.3
		c43.8,44.3,83.3,92.6,120.2,142.7c-2.3,1.8-4.4,3.5-6.6,5c-6.5,0.5-13.3-2.3-19.9-2.7c-28.3-2.6-92.4-18.1-80.2,31.1
		c2.1,11.6,5.7,22.7,10.1,33.6c3.3,8.1,7,16,10.6,23.9c2.1,6-5.8,6.5-9.9,5.6c2.4-6.7-0.8-16.6-9.3-15.5
		c-8.5,1.9-10.9,12.5-13.8,19.6c-7.6,22.1,5.6,14.9,20.4,15.7c-3.2,9.7-9.8,18.8-6.8,29.2c-4.4,18.2-0.4,36.9,10.7,51.9
		c-19.4,18.4-42.1,33.4-60.7,52.5c-9.6,13.4,3.7,28.9,7.6,42.1c5.3,9.9,21.7,1.3,27.4,10.8c14.5,18.9,31.4,36.6,42.2,58
		c-39.8,1.6-89.8,0-124.6,21.2c26.1,2,52.4,2.2,78.6,2.4c28.5-1.1,58,3,86-1.8c3-1.5-0.8-4.7-1.6-6.6c-19.3-28.5-39.1-56.4-59.6-84
		c2.1-2.4,7.7-4.6,4.6-8.3c-7.3-7.5-16-13.4-23.8-20.5c3.5-3.5,5.4-6.6,0.5-9.8c15.8-12.4,31.4-24.4,48-35.5
		c0.9-0.6,1.7-0.9,2.9-0.4c10.6,4.1,21.9,5.9,33.2,4.5c4.4-0.1,9-3.2,13.1-0.8c6.5,3.9,13.2,7.5,19.7,11.5
		c11.4,6.9,22.8,13.9,34.1,21c13.2,15.3,21,35.2,33.6,51c1.6-9.7-0.8-18.8-0.6-28.4c6.9,3.6,12.6,9.2,18.9,13.8
		c5.3,4.5,11.2-0.4,16.6-2.3c36.6,24,73.1,48.3,109.3,73c5.7,4.9,15,8.7,15.3,17.2c-0.3,8.4,1.6,19.7,14,15.7
		c23-13.7,38.5-37.7,57.6-56.3C552.1,679.3,611.1,621,590.5,620.8z M174.6,426c-7-16.2-11.6-34-10.8-51.9c4.6-9.3,46.9-3.8,57.4-3
		c0.1,0.3,0.2,0.6,0.3,0.9C203.6,387.9,188,405.8,174.6,426z M267.1,337c-3.4,0.7-6-6.9-8.5-9.1c3.2-1,9.8,2.4,12.4,6.5
		C269.7,335.3,268.4,336.2,267.1,337z M285,472.7c-2.6,0.2-5.2,0.6-8.2,0.9c4.3-19.1,10.3-37.9,16.4-56.5
		c12.5,14.5,24,29.7,35.6,44.9c5.8,7.3,2,7.7-5.3,8.5C310.7,471.4,297.8,471.8,285,472.7z"/>
	<path class="st0" d="M272.9,337.3c2.4,4,2,8.2,1.8,12.7c7.9-1.2,15.5-3.4,23.6-3.6c6.8,0.1,6.2,10.2,7.8,15.1
		c2.4-0.6,4.7-1.1,7.6-1.7c-2.9,5.1-5.5,9.7-8.3,14.6c5.9,0.3,9.5,3.9,13.1,7.2c15.8,14.8,31.4,29.7,47.7,43.9
		c31,28.5,64.3,54.2,98.8,78.4c9,8.2,14.9-1.6,22.6-5.7c13.3-4,17,5,27.3-11.8c7-6.4,9.8,12.2,1.9,17.2c-7,8.6-19.8,4.5-24.1,13.9
		c-8.5,16,14.2,69.5,6.7,81.5c-4,5-9.4-28-12.2-30.8c-2.9,3.7,15.6,51,2.2,38.8c-4.5-15.5-11.9-31-10.2-47.5
		c0.5-10,4.4-21.5-4.7-28.8c4.4,9.9,3.1,20.4,0.9,30.7c-3,17.7,10.9,32.7,11,50.1c-5.6,19.2-21.2-20.5-22.1-26.7
		c-4.2-15-6.2-30.8-4.2-46.3c0-7.1,5.8-16.3-0.6-21.9c-6.8-5.9-13.5-12-20.3-17.9c-29.9-25.7-60.2-50.7-90.1-76.3
		c-15.5-14.2-33.6-26.2-45-44.2c-3.2,5-4.5,10.5-7,15.6c-6.8-2.8-14.8,3.9-11.3,10.8c1.1,3.9,5.5,6.8,4.1,11.1
		c-6.4,19-12,38.3-17.5,57.6c-3.3,4.3-8.7,1.2-13.2,11.5c-1.7,2.5-1.8,6.9-4.8,8.2c-10,2.8-20,5.7-30,8.6c-4.3,1.2-8.7,2.5-13,3.8
		c-3.6,1.1-3.8,1-5.8-2.4c-5.4-9.4-10.9-18.9-16.3-28.3c-1-1.4-1.6-4.1-3.9-2.9c-4.9,2.1-9.9,4.2-14.8,6.2
		c-3.4,0.4-23.7,12-22.4,6.3C173.4,424.5,219.7,373.6,272.9,337.3z M192.3,440.3c-0.1,10.3,6.5,13.9,13.4,9.6
		c9.1-4.7,16.7-26.1,2.7-28.4C199.1,422.4,192.7,432.9,192.3,440.3z"/>
	<path class="st0" d="M304.7,282.8c-4.9,5.8-9.2,10.9-15.7,14.7c-1.7,1.1-3.6,3.1-1.9,5.1c4.6,6.2,12.7,8.4,20,9.5
		c26.9,3.7,48-17,71.1-27.3c0.4,1.4,0.5,2.2,0.3,3.5c-0.5,2.9,3.2,3.9,4,1c2.1-4,0.4-11.6-3.4-13.7c-2.4,2.4,0.2,4.9-4.7,5.1
		c-32.4,4.7-66.5,1.1-96.3-13c-28.6-11.6-34.4-45.9-4.2-59.2c15.1-5.5,32-2.2,46.9-8.7c10.8-3,43.1-30.8,46.5-9.6
		c3.4-2.1,11.9,5.5,15.3,7.4c-1.6,0.6-2.8,1.1-4.4,1.8c11.6,0.6,10.4,3,18.9,9.9c5.1,5.3-2,17.7-2.8,24.3c4.9-4.4,6.8-10.4,9-16.7
		c14,15.7,16.1,39.6,7,58.3c-12.3,23.8-39.2,33.2-60,47.8c-8.6,5.7-16.4,12.6-23.3,20.3c-1.4,1.5-2.6,2-4.6,1.3
		c-10.9-3.2-22.5-3.8-33.7-1.7c-4.5,1.3-2.6-10.1-4.2-13c-1.4-6.4-3-12.8-4.6-19.2c-1.2-6.8-5.8-14.6-0.6-20.7
		c3.2-4.2,7.5-7,11.9-9.8C295.4,279.1,299.6,282,304.7,282.8z M315.8,220.9c0.1,0.2,0.3,0.3,0.4,0.5c9.6-0.8,19.9,3.3,29.1,0.7
		c10.1-5.7,22.6-26,5.8-30.9c-14.9-2-32.4,10.4-33.4,25.8C317.8,218.7,317.7,220.1,315.8,220.9z M374.4,207.9
		c-14.2,0.9-25.6,9.4-29.2,23.5c-3.9,22.2,26.3,20.8,36.6,8.1C393.6,229.7,393.1,207.4,374.4,207.9z"/>
	<path class="st0" d="M164.1,548.3c-11.5-12.3-18.8-29.2-16.2-46.2c1.4-4.3,0-10.5,5.1-12.5c10.2-4.2,20.2-8.5,30.3-12.8
		c1.8-0.8,1.9-0.7,3,1.2c5.9,10.4,11.8,20.8,17.7,31.1c0.6,1.1,1.3,1.5,2.5,1.1c15.8-4,31.5-8.6,47.4-12.1c-2,14.4-8.3,32.1,2,44.6
		c-1.9,2.1-3.7,4.2-5.7,6.6c37.5,21.8,75.6,41.9,112.7,64.6c-9.3,5.6-18,11.3-25.3,19.5c-35.2-24.5-71.9-46.8-108.5-69.1
		c-1.5-1-2.9-1.2-4.7-0.7c-14.7,4-29,2.9-42.9-3.4c-4.3-1.7-20.5,14.2-25.9,17.2c-10.8,8.4-21.7,16.4-32.4,25
		c12.4,5.3-1.1,9.3,6.1,13.7c3.9,4.5,25.2,14.6,17.4,20.9c-8.8,5.9-20,7-30.3,5.8c-12.1,0-18.4-24.2-20.2-34.1
		c2.1-13.7,21.7-21.1,31-30.4C139.6,568.3,152.1,558.6,164.1,548.3z"/>
	<path class="st0" d="M467.2,205.3c-7-27.2-25.4-48.2-53.4-54c16-12.8,31.1-26.6,43.2-43.3c12.2-7,40.2,2.8,51.4,10.9
		c8,5.2,29,26.9,24.3,36.3C514.4,176,492.2,193.5,467.2,205.3z"/>
	<path class="st0" d="M262.3,340c-2.9,2.1-5.6,4-8.6,6.1c-43.8-64.6-100-119.6-155.4-174.2C86.9,161,86.1,157.3,69.4,161
		c-14.8,1.9-29.8,1.8-44.7,1.9c-5,0-9.9-0.8-14.5-2.9c-3.6-1.3-5.8-5.6-1.6-7.7c10.6-4.6,22.7,0.8,33.8,1
		c14.2,2.2,27.3-11.4,40.6-5.6c-6-11.2-22.2-0.4-31.3,0.8c-8.9,2.5-18.1,0-27.2-0.5c-4.5-1.5-17.9,2.1-18.8-0.7
		c-3.3-11,16.4-6.8,22.4-6.5c10.2,1.7,19.9,0,30.1-1.6c-0.6-1.3-1.6-0.9-2.3-0.9c-7.2,0.2-14.3-0.2-21.4-1.2
		c-3.8-0.9-3.5-6.2-4.6-9.3c-2.1-9.7,28.4,2.8,34.5,1.5c7.2,0.5,14.3,0.8,21.5,0.9c-0.8,3-2.3,5.4-1,8.6
		c3.7-8.6,11.3-12.4,20.4-11.2c6.9,1.6,15.9-20.2,25.6-7.4c3,5.4-5.5,6.3-8.8,8.2c-11.7,4.8-20.3,13.3-27.2,23.7
		c-1.2,1.9-1.2,1.9,0.4,3.5c7.7,7.7,15.4,15.4,23,23.2C168.8,230.3,217.2,283.8,262.3,340z"/>
	<path class="st0" d="M587,627.3c-37.6,32-71.8,67.6-99.5,108.6c-1.3,3.6-5.2,2.1-5.5-1.3c-0.8-5.5,0.6-11.7-3.2-16.3
		c-40.7-33.7-87.8-59.2-130.6-90.2c3-1.6,5.7-6.4,9-4.1c5.8,3.7,11.6,7.3,17.4,10.9c37,22.9,73.7,46.6,110.9,69.1
		c17.7-22.7,40.8-40.4,64.4-56.6C556.3,643.8,581.4,624.5,587,627.3z"/>
	<path class="st0" d="M346.2,180.9c-2.2-9.7-12-32,1.3-36c22-3.4,26.4,1.9,34.9,21.1c-3.3,1.1-6.6,5.1-10.2,3.8
		c-8-3.5-14.2-10-21.1-14.7c15.4,33.5,92.5,22.6,89.3,75.6c-2.2,19.3-7,38.8-17.3,55.5c-1.8,2.3-5,7.2-8,4.1
		c-1.7-2.3-6.2-5.2-3.9-8.3c15.7-21.3,12.2-50.2-5.8-68.9c-1-1.3-1.4-2.5-1.4-4.1c0.7-10.7-9.7-9.7-16.7-12.7
		c-6.2-4.5-13.3-8.1-18.9-13.2C364,174.4,353.3,178.3,346.2,180.9z"/>
	<path class="st0" d="M285.9,490.2c3.8,5.4,8.1,8.6,11.7,13.8c5.2,10-10.4,12-17.1,10.9c-14.8-3.5-1.7-22.6,10-15.1
		c-5.4-8-18.6-4.9-20.6,4.4c-10.8-0.7-13.2,15.9-9.2,23.2c-0.1-3.3,3.9-23.5,8.3-16c1.1,3.8,2.2,5,7.2,7.7
		c-1.5,7.8-3.1,19.6-12.5,21.5c-5.6,1.1-8-4.6-8.6-9.2c-1.6-7.8,4.4-49,13.6-49.7c9.9-6.3,73.1-3.2,68.9-14.8
		c-14.7-22.3-33.1-42.1-48.4-64c-0.9-1.9-0.1-4.1,1.6-5.4c3.3-2.9,7,1.8,9.2,4.1c19.5,24.7,44.7,46.6,56.6,76.3c1,4-0.1,5.7-4.1,6.2
		c-7,0.7-14,1.4-21,2C316.3,488.1,301.1,487.9,285.9,490.2z"/>
	<path class="st0" d="M62.5,728.1c36.6-14,77.3-13.6,116-14.1c-12.5-24.4-30.7-45.3-46.7-67.5c4.5,0.1,11-5,14.1-1.5
		c9.8,12.6,19.5,25.3,28.9,38.2c9.5,13,18.8,26,28.2,39.1c4.3,5.2,3.7,7.6-3.4,8C154,729.5,108.1,730.4,62.5,728.1z"/>
	<path class="st0" d="M471.8,235c-1.1-8.6-2.1-16.7-3.2-25.3c25.2-14,47.5-32.3,66.6-53.9c5.4,17.9,4.7,37.2-2.4,54.5
		c-2.6,6.1-6.9,9.7-13.4,11.3C503.5,225.7,487.8,231.1,471.8,235z"/>
	<path class="st0" d="M386.5,612.7c-31.2-25.4-64.6-51.8-104.6-60.9c-0.1,0.2-0.2,0.4-0.3,0.5c5.7,4.1,8.9,10.3,12.3,16.3
		c-2.2-0.4-31.7-16.6-35.4-19.4c1.2-5.3,6.7-4.7,10.8-6.3c2.9-1,6,0.7,8.7-1.1c0.9-0.5,1.7-0.6,2.6-0.2c12,5.1,16.4-8.6,18-17.9
		C331,549.2,366.9,575.9,386.5,612.7z"/>
	<path class="st0" d="M379.4,173.3c9-6.2,18.6-10.8,27.3-17.3c19.6-2.1,37.1,12.9,47.3,28.9c4,6.5,6.8,13.6,9.2,20.8
		c1,3.7-10,5.3-12.6,7.2c-2.6,0.5-7.1,4.5-7.9,0.1C433.3,186.4,402.6,182.5,379.4,173.3z"/>
	<path class="st0" d="M236.8,358.8c-4.9,3.7-8,9-14.4,7.2c-11.9-1.4-23.8-2.4-35.7-1.9c-8.3,0.5-16.7,1.2-24.9,2.4
		c-3.2,0.8-3.1,0.8-3.3,4.2c-0.5,19.9,5.9,39.2,12.9,57.6c1.1,3.3-2.3,5-3.8,8.1c-9.6-17.4-16.6-36.5-20.2-56.1
		c-5.9-25,12.1-31,33.2-29C199.4,352.8,218.3,354.9,236.8,358.8z"/>
	<path class="st0" d="M586.7,632.7c-12,21.8-30.4,39.5-47.1,57.7c-15.6,15.2-29.8,32.8-47.7,45.1c26.2-39.2,58.5-72.8,94.2-103.1
		C586.3,632.5,586.5,632.6,586.7,632.7z"/>
	<path class="st0" d="M365.6,287c-28.1,16.4-13.9,8.9-41.8,11.8c-16.2,3-12.1,12.3-28.2,5.9c-3.1-1-5.5-3.4-2-5.8
		c5.3-4.1,10.2-8.6,14.6-13.6c4.9-3.2,12.6,1,18.3,0.5c13,1.6,26,0.6,39,0.6C365.6,286.5,365.6,286.8,365.6,287z"/>
	<path class="st0" d="M468.1,236.2c-8,2.6-15.8,5.1-24,7.7c-0.3-7.9,1.7-15.1,0.5-23c6.5-3,13-5.9,19.9-9.1
		C466.9,219.8,467.9,227.9,468.1,236.2z"/>
	<path class="st0" d="M159.1,450.5c-2.6,3.5-3.1,8.7-7.1,10.1c-4.9-0.6-21.2,5.4-19.7-3.1c1.5-8.1,5.2-16.2,10.6-22.3
		c8-4.6,8.9,11.8,2.9,14.6c-0.5,0.4-1,0.8-1.3,1.6C149.6,449.2,153.5,449.2,159.1,450.5z"/>
	<path class="st0" d="M292.6,609.1c5.2,4.3,17.4,8.8,18.8,15.3c-0.4,5,2.9,14.4,0.5,18.2c-6.7-11-13.2-22-19.8-32.9
		C292.2,609.5,292.4,609.3,292.6,609.1z"/>
	<path class="st0" d="M323.1,10.3c-0.7-9.8,15.4-10.1,15.2,0.2C337.8,20.1,322.9,20.2,323.1,10.3z"/>
	<path class="st0" d="M574.7,87.6c-10.2,0.2-10.2-15.1-0.3-15.3C584.2,72.1,584.5,87.5,574.7,87.6z"/>
	<path class="st0" d="M306.4,346.8c5.8-1.2,22.4,2.2,25.1,5c-7.7,1.7-15.3,3.3-22.8,4.9C307.1,353.8,307.4,350.2,306.4,346.8z"/>
	<path class="st0" d="M290.8,517.7c1.8-0.4,3.2-0.8,4.8-1.2c1.4,6.9-2.2,22.5-10.8,22.4c-1.8-0.4-2.2-1.2-1-2.7
		C288,530.8,289.4,524.2,290.8,517.7z"/>
	<path class="st0" d="M262.2,324.2c4.4-2.1,9.2-3.1,14.3-4.5c0.7,4.5,6.6,23.6,2.6,25.6c0-11.5-4.9-18.8-16.7-20.5
		C262.3,324.6,262.2,324.4,262.2,324.2z"/>
	<path class="st0" d="M338.5,302c-8.4,4.9-17.3,8-27.8,6.3c7-6.7,18.4-7.9,27.7-7C338.4,301.6,338.4,301.8,338.5,302z"/>
	<path class="st0" d="M287,518.9c-0.1,6.9-6.5,17.2-12.8,19.1c2-5.9,4.1-11.9,5.3-18.1C281.3,517.8,284.4,519.2,287,518.9z"/>
	<path class="st0" d="M329.6,346.8c0.4-1.8,1.7-2.3,2.7-3.6c2.6,1.6,3.8,3.9,3.4,6.3C333.6,348.6,331.6,347.8,329.6,346.8z"/>
	<path class="st0" d="M360.8,619.2c2.5-1,4.7-1.9,7.4-3C366.6,619.9,364.2,624.3,360.8,619.2z"/>
	<path class="st0" d="M344.2,632.1c1,0.7,1.7,1.3,3,2.3c-2.5,1.1-4.5,1.9-6.9,3C341.1,634.9,342.5,633.6,344.2,632.1z"/>
	<path class="st0" d="M214.4,431.3c1,9.3-14.2,27.5-20,13.8C189.9,433.7,212.1,410.9,214.4,431.3z"/>
	<path class="st0" d="M357.7,202.9c-1,6.3-8.9,18.6-16.7,17.9c-6.2-1.7-12.5-2.7-18.9-2.4c-2.6,0.1-2.9-0.3-2.5-3
		C320,200.5,355.6,179.4,357.7,202.9z M347,205.1c-5.3-0.6-11.7,8.6-4.3,10.2C348,217,355.3,205.8,347,205.1z"/>
	<path class="st0" d="M360.9,247.2c-28.1-2-9.3-36.3,9.9-37.4c8.7-2.3,19.2,4.2,17.4,14C386.2,236.9,373.7,246.6,360.9,247.2z
		 M371.8,237.6c3.6,0,7.5-2.9,8.4-6.4c1.6-9-11.7-5.4-12.7,0.8C366.6,235.2,368.4,237.5,371.8,237.6z"/>
</g>
</svg>
