<?xml version="1.0" encoding="utf-8"?>
<!-- Generator: Adobe Illustrator 26.0.0, SVG Export Plug-In . SVG Version: 6.00 Build 0)  -->
<svg version="1.1" id="Capa_1" xmlns="http://www.w3.org/2000/svg" xmlns:xlink="http://www.w3.org/1999/xlink" x="0px" y="0px"
	 viewBox="0 0 595.3 742.1" style="enable-background:new 0 0 595.3 742.1;" xml:space="preserve">
<style type="text/css">
	.st0{fill:#FFFFFF;}
</style>
<g>
	<path d="M595.2,371.1c0,116,0,232,0.1,348.1c0,9.4-5.8,18.4-14.6,21.5c-2.2,0.8-4.6,1.1-7,1.3c-2.9,0.2-5.8,0.1-8.7,0.1
		c-180.8,0-361.6,0-542.3,0.1c-11.4,0-22.6-9.7-22.6-22.7C0.1,613,0.1,506.6,0.1,400.2c0-125.7,0-251.4,0-377.2
		c0-8.1,3.3-14.5,9.9-19.1C13.9,1.1,18.3,0,23.2,0C51,0,78.8,0,106.6,0c155.1,0,310.2,0,465.3,0c8.7,0,15.3,3.5,20,10.7
		c2.4,3.7,3.4,7.9,3.4,12.3c-0.1,31.1,0,62.1,0,93.2C595.2,201.2,595.2,286.1,595.2,371.1z"/>
	<path class="st0" d="M438.9,333c-15.6,4.8-21,17-23.5,31.3c-2.9,0.5-5.7,0.7-8.6,1.4c-12.7,2.7-19.7,11.1-21.9,23.5
		c-2.1,12.5,2,22.9,11.5,31.2c0.4,0.3,0.8,0.7,1.1,1.1c0.1,0.1,0,0.2,0.1,0.5c-0.6,0.3-1.3,0.7-2,0.9c-4.4,1.8-8.8,3.6-13.3,5.2
		c-2.4,0.9-4,2.5-5.1,4.7c-1.2,2.5-1.9,5.1-2,7.9c-0.3,7.8-0.7,15.5-1.1,23.2c-0.4,8.7-1,17.4-1.5,26.1c-0.6,10.6-1.1,21.1-1.6,31.7
		c-0.6,10.8-1.1,21.7-1.6,32.5c0,0.3-0.1,0.5-0.2,1c-1.1,0.4-2.2,0.8-3.4,1.2c-4.8,1.6-9.5,3.2-14.3,4.8c-2.1,0.7-2.7,0.3-3.3-1.7
		c-0.4-1.3-0.6-2.8-1.1-4.1c-0.6-1.5-0.2-3.9-2.7-4c-2.5-0.1-2.4,2.2-3,3.7c-0.6,1.6-1,3.2-1.6,4.7c-0.2,0.5-0.5,1.1-0.9,1.1
		c-2,0.5-2.2,2-2.3,3.7c0,0.5-0.1,1-0.1,1.9c-4.9,1.4-9.8,0.5-15.1,0.1c0.5-0.9,0.8-1.4,1.1-1.9c3.8-5.1,7.5-10.2,11.4-15.2
		c1.5-1.9,2.1-3.9,2.1-6.4c0-2.9,0.8-5.4,3.8-6.9c2.7-1.4,3.7-4.1,4.1-7c0.6-5.6-1-10.6-4.1-15.2c-0.1-0.2-0.3-0.4-0.5-0.6
		c-0.8-0.8-1.5-2-2.8-1.5c-1.2,0.4-1.1,1.7-1.1,2.7c-0.1,3.2-0.8,5.9-3.5,8.1c-2.7,2.2-3.2,5.6-2.7,8.9c0.3,2-0.4,3.8-2.2,4.4
		c-2.7,1-4.3,2.9-5.3,5.5c-0.6,1.6-1.4,3.2-2.1,5c-1.8-1.1-3.5-2-5.2-3.1c-0.3-0.2-0.5-0.7-0.6-1.1c-0.8-2.5-2.6-3.7-5-4.3
		c-5.9-1.5-11.8-3-17.7-4.5c-2-0.5-4.1-1.1-6.5-1.7c1.1-0.7,1.9-1.1,2.6-1.6c14.4-8.7,26.9-19.3,36.3-33.4
		c3.8-5.7,6.7-11.8,7.8-18.6c0.9-5.3,0.7-10.5-1.1-15.6c-2.5-7.3-6.2-13.8-10.9-19.8c-0.8-1-1.6-2.1-2.6-3.3
		c8-9.8,13.2-20.8,13-33.9c-1.7,0.3-2.9,1.4-4.2,2.2c-2.7,1.6-5.4,2.9-8.5,3.5c-6.5,1.2-12-0.8-16.9-4.9c-3.9-3.3-7.8-6.7-11.7-10
		c-5.3-4.5-10.7-8.9-17.2-11.8c-7.5-3.4-15.2-5.4-23.5-5.9c-2.2-0.1-4.4,0-6.6-0.1c-0.4,0-0.8-0.1-1.5-0.3c-0.3-4.1,0.2-8.1,1.2-12
		c1-4.1,3-7.6,5.9-10.7c9.4-10,18.5-20.2,26.3-31.4c4.4-6.5,8.5-13.2,11.3-20.6c1.7-4.5,3-9.1,2.7-13.9c-0.3-4.8-1.4-9.6-2.4-14.3
		c-0.4-1.9-1.3-3.7-2.4-5.3c-2.3-3.5-6.2-4.6-10-2.6c-1.8,0.9-3.5,2.2-4.8,3.7c-3,3.4-5.9,6.8-8.4,10.5c-5,7.5-10.8,14.4-16.9,21
		c-4.3,4.6-8.5,9.2-13.1,14.2c-0.1-1.2-0.1-2.1-0.1-3c0-3.5,0.1-7,0-10.6c-0.3-12-2.4-23.8-5.6-35.4c-5.4-19.5-13.8-37.7-23.7-55.3
		c-7.4-13.1-15.1-26.1-22.7-39.1c-1.1-1.8-1.3-3.4-0.4-5.2c1.6-3.3,3.1-6.5,4.8-9.7c1.1-2.1,2.3-4.2,3.7-6.1c4-6,5.4-12.8,5.8-19.8
		c0.5-8.2-0.2-16.4-2.5-24.4c-4.6-15.7-14.9-25.5-31.1-28.6c-4.9-0.9-10-0.8-15-0.5c-14.9,0.8-28.3,6-41.4,12.5
		c-20.7,10.4-37.8,25.1-52.7,42.6c-18.9,22.1-34,46.5-45.6,73.1c-0.3,0.7-0.7,1.4-1.4,2.1c-0.1-0.6-0.1-1.3-0.1-1.9
		c0-61.7-0.1-123.4,0-185C1.3,8.6,13.4,1.2,22.9,1.2c63.9,0.2,127.7,0.1,191.6,0.1c119.3,0,238.6,0,357.9-0.1
		c9.4,0,18.4,6.4,20.9,15.6c0.5,1.9,0.8,3.8,0.8,5.7c0.1,70,0,140.1,0,210.2c0,0.8-0.1,1.7-0.4,2.7c-8.1-10.1-18.1-17-31-19.2
		c-12.8-2.2-24.5,0.8-35.1,8.1c-0.8-0.5-1.6-1-2.3-1.4c-17-11.1-39.7-9.6-55.1,3.6c-5.5,4.7-9.9,10.2-13.1,16.8
		c-0.6,1.1-1.2,2-2.5,2.5c-15.4,5.3-25.1,16.2-30.3,31.3c-4.3,12.7-3,25.2,2.4,37.3c2.9,6.4,6.7,12.2,11.4,17.4
		C438.3,332.1,438.5,332.5,438.9,333z M405.9,105c-0.9,0.2-1.8,0.5-2.8,0.7c-2.5,0.5-5,0.9-7.5,1.6c-5.7,1.6-9.1,5.4-10,11.4
		c-0.7,4.7,0.2,9,3.8,12.3c3.1,2.8,6.7,4.7,10.6,5.7c5.7,1.5,11.5,2.5,17.3,3.3c8.1,1.1,16.2,2.1,24.4,2.7
		c8.9,0.7,17.9,1.2,26.9,1.4c8,0.2,16-0.2,24-0.4c4.9-0.1,9.9-0.3,14.8-0.7c8.5-0.8,17-1.9,25.4-3c3.6-0.5,7.1-1.2,10.6-2.2
		c3.6-1,5.8-3.7,6.5-7.3c0.7-3.8,0.1-7.4-3.3-10c-1.4-1-2.8-1.9-4.3-2.6c-1.2-0.6-1.7-1.2-1.6-2.6c0.2-1.5-0.1-3-0.2-4.5
		c-0.7-7.9-10.9-11.1-16.3-6.6c-0.5,0.5-1.1,0.8-1.6,1.2c-5-1.5-9.9-1.7-15-1c-0.5-1-0.7-1.8-1.2-2.6c-1.6-2.9-3.1-6-5-8.7
		c-2.8-3.8-6.6-5.9-11.4-6.3c-4.4-0.3-8.4,0.4-12.2,2.7c-0.7,0.5-1.5,0.9-2.1,0.1c-0.4-0.5-0.5-1.2-0.5-1.9c0.1-2.3,0.4-4.6,0.5-6.8
		c0.3-10.9-12.6-16.8-20.4-12c-1.9,1.2-3.6,2.8-5.3,4.3c-0.8,0.7-1.5,1.4-2.3,2.2c-1-0.6-1.8-1.1-2.7-1.5c-2.6-1.2-5.2-2.8-7.9-3.5
		c-7.5-2.2-15.6,4.1-15.8,11.9c0,0.8-0.1,1.5-0.1,2.2c-0.4,0.1-0.6,0.2-0.7,0.2c-6.9,0.6-13.2,5.2-14,14.1
		C406.4,101,406.2,102.9,405.9,105z M224.1,160.6c-0.6,0.1-0.9,0.1-1.2,0.2c-2.3,0.6-4.7,1.1-6.8,2c-5,2.1-6.6,11-1.4,14.6
		c2.1,1.5,4.6,2.8,7.1,3.4c14.3,3.4,28.9,4.3,43.5,4.6c9.9,0.2,19.7-0.3,29.5-1.4c4.7-0.5,9.4-1.4,14.1-2.2c3.3-0.6,5-2.5,5.5-5.3
		c0.5-3.3-0.6-5.5-3.7-7.2c-0.7-0.4-1.4-0.8-1.9-1.1c-0.1-1.5-0.1-2.8-0.4-4.1c-0.8-4.4-5.8-6.7-9.6-4.3c-1.2,0.8-2.2,1-3.7,0.7
		c-1.4-0.3-2.8-0.2-4.2-0.2c-1,0-2.1,0-2.9,0c-1-2-1.8-3.6-2.7-5.2c-3.4-5.7-9.3-6.8-14.7-4.6c-0.8,0.3-1.5,0.7-2.8,1.2
		c0.1-1.8,0.2-3.1,0.3-4.4c0.1-2.6-0.3-5.1-2.3-7c-3.7-3.7-9-3.8-12.8-0.2c-0.9,0.8-1.7,1.7-2.5,2.4c-2.1-1-3.8-2-5.6-2.7
		c-3.2-1.2-6-0.6-8.6,1.7c-1.9,1.8-2.8,4-2.8,6.6c-0.5,0.1-0.9,0.3-1.3,0.4c-5.3,1.6-7.3,4.1-7.9,9.6
		C224.4,158.7,224.2,159.5,224.1,160.6z M342.4,270c-1.2,0.3-2.4,0.5-3.5,0.8c-2.2,0.7-3.4,2.4-3.7,4.7c-0.3,2.3,0.6,4.2,2.7,5.3
		c1.4,0.7,2.9,1.4,4.4,1.7c6.2,1.4,12.5,1.9,18.8,2.2c8.3,0.5,16.5,0.1,24.8-0.8c2.4-0.2,4.7-0.8,7-1.3c1.7-0.4,2.7-1.6,3-3.3
		c0.3-1.6-0.4-2.9-1.7-3.9c-0.6-0.4-1.1-0.8-1.6-1.2c-0.1-0.9-0.1-1.7-0.3-2.5c-0.5-2.1-3-3.6-5-2.7c-2.4,1.1-4.6,0.5-6.3,0.5
		c-1.9-2.1-3.2-4.2-5.1-5.5c-2.1-1.5-4.7-0.7-7.2,0.2c0.4-3,0.3-5.6-2.5-7.2c-3.3-1.9-5.9-0.4-8.1,1.9c-6.1-3.6-9.2-1.1-10.2,3.4
		C344,264.1,344,264.1,342.4,270z"/>
	<path class="st0" d="M288.8,581.8c1.6-0.4,3.2-0.7,4.8-1.1c4.8-1.2,6.6-4.9,4.9-9.5c-0.4-1-0.7-1.9-1.2-3.4
		c4.8,0.2,9.2,0.3,13.3,0.4c2.7,5,5,5.2,8.7,1.1c0.5-0.5,1.3-1,2-1.1c3.7-0.1,7.4-0.1,11.5-0.1c-0.6,1.5-0.8,2.5-1.3,3.5
		c-2.4,5-2.8,10.3-2,15.8c0.5,3,2.1,5,5.1,5.8c1.2,0.3,2.4,0.7,3.6,1c-0.1,1.6-0.3,3-0.3,4.5c0,2.8,0.8,3.8,3.5,4.4
		c5.9,1.3,11.7,2.5,17.6,3.8c0.2,0,0.4,0,0.5,0.1c6.5,2.7,12.2,0.3,17.8-2.6c1.9-1,4-1.5,5.9-2.3c1.3-0.6,2.5-1.5,3.9-2.3
		c1.9,0,4.2,0.2,6.5-0.1c3.6-0.4,5.2-2.1,5.8-5.7c0.6-3.6,1.1-7.1,1.6-10.7c0.1-0.3,0.2-0.7,0.3-1.2c8.2,1.8,16.4,3.5,24.6,5.3
		c0.4,4.2,0.7,8.3,1.1,12.3c0.2,2.5,0.3,5.1,0.6,7.6c0.5,4.1,2.4,7,6.7,8.3c3.5,1,7,2.4,10.5,3.5c1.3,0.4,2.4,0.9,3,2.3
		c0.3,0.7,1,1.6,1.8,1.9c3.7,1.6,7.2,3.7,11.5,3.7c2.8,0,5.6,0.5,8.4,0.8c2.4,0.3,4.1-0.6,5.4-2.5c1-1.4,2.3-2.7,3.3-4.1
		c1.9-2.5,2-4.1,0.4-6.8c-1.4-2.2-2.9-4.4-4.3-6.7c-0.2-0.3-0.4-0.7-0.5-0.9c2.5-0.8,4.8-1.6,7.2-2.4c2.3-0.8,3.4-2.5,3.4-4.8
		c0-1.6-0.4-3.3-1-4.9c-1.8-4.8-3.8-9.5-5.6-14.3c-0.1-0.3-0.2-0.6-0.5-1.4c8.9,1,17.6,2.3,26.2,3.7c8.6,1.4,17.2,2.8,25.5,4.1
		c-0.8,3.5-1.5,6.6-2.3,10.1c-0.5,0-1.2-0.1-2,0c-2.2,0.2-4.4,0.2-6.5,0.9c-4.7,1.5-7.1,6.3-5.5,11c0.8,2.3,2.2,4.4,3.4,6.6
		c0,0-0.1,0.2-0.3,0.4c-2.5,2-2.4,3,0.3,4.7c4,2.4,8.4,3.6,12.9,4.5c9.4,1.8,18.9,2.5,28.4,2c4.8-0.3,9.6-1.2,14.3-2
		c1.3-0.2,2.7-0.9,3.9-1.5c2.2-1.1,2.4-2,0.7-3.8c-0.2-0.3-0.5-0.5-0.9-0.8c0.8-1,1.7-1.9,2.5-3c1.3-1.6,2.2-3.3,2.5-5.5
		c0.5-3.8-1-7.4-4.5-9.1c-1.9-0.9-4-1.3-6-1.8c-0.9-0.2-1.9-0.2-2.7-0.3c0-1.6,0-3,0-4.7c9.1,2.1,18,4,26.9,6.7c0,1.2,0,2.1,0,3.1
		c0,38.2-0.1,76.4,0.1,114.6c0.1,11.1-8.7,22-22.2,22c-56.1-0.1-112.2,0-168.3,0c-126.7,0-253.4,0-380.1,0c-6.6,0-12.2-2.3-16.7-7.1
		c-3.5-3.8-5.5-8.3-5.5-13.4c-0.1-15.8-0.1-31.6,0-47.4c0-0.3,0.1-0.7,0.1-1.2c1.4-0.5,2.8-0.9,4.3-1.4c2.2,2.5,4.8,4.5,8.1,5.2
		s6.5,0.3,9.6-1.3c4.6,3.4,9.8,5.1,15.6,5.3c-2,20,5.2,34.9,24.9,41.2c16.3,5.2,29.7-0.8,40.2-14.3c0.7,2.3,2,3.7,4.4,3.2
		c0.8-0.2,1.7-0.5,2.4-1c2.3-1.7,3.7-4,4.2-6.8c0.6-3.2-1.4-6.6-5.3-5c-0.2,0.1-0.5,0-1.1,0.1c0.3-2.7,0.8-5.3,1-8
		c0.2-2.6,0-5.3,0-8.1c0.2,0,0.7-0.1,1.1,0c11.9,2,23.8,2.8,35.8,2.2c1.1-0.1,2.3-0.2,3.4-0.4c1.5-0.2,2.6,0.2,3,1.8
		c-0.1,0.1-0.2,0.3-0.3,0.3c-3.5,0.7-4.6,2.2-3.7,5.6c0.9,3.1,2.9,5.5,6,6.6c3,1,4.7-0.1,5.2-3.3c0.1-0.3,0.1-0.7,0.2-1.2
		c3,1.5,5.9,3.3,8.9,4.4c3,1.1,6.3,1.9,9.5,2.1c3.3,0.2,6.8,0,10-0.7c3.2-0.7,6.5-1.9,9.3-3.5c2.8-1.5,5.5-3.5,7.8-5.8
		c2.3-2.4,4.4-5.1,6-8c7.5-13.4,5.4-32.7-10.1-44.6c1.2-4.5,2.7-9.1,3.8-13.7c2.1-8.8,4.1-17.7,5.9-26.6c0.5-2.4,0.6-4.9,0.7-7.4
		c0.1-2.1-0.8-3.7-2.8-4.6c-1.9-0.8-3.8-1.8-5.7-2.7c-0.8-0.4-1.6-0.7-2.8-1.2c2.9-0.8,5.3-1.3,7.2-3.1c1.9-1.8,2.7-4.1,3.1-6.9
		c6-0.3,11.9-0.7,18.1-1c-0.3,1-0.4,1.5-0.6,2.1c-1.5,4.6,0.4,8,5.1,9.2c1.9,0.5,3.9,0.9,5.8,1.8c-1.6,0.2-3.2,0.3-4.7,0.7
		c-2.4,0.7-4.8,1.3-6.9,2.5c-4.7,2.5-6.6,6.8-6.5,11.9c0.1,3.4,1.7,6,4.7,7.8c3.1,1.9,6.5,2.6,10.1,2.5c8.1-0.4,15.6-2.8,22.3-7.3
		c2.4-1.6,4.4-3.8,5.8-6.8c2.1,4.7,5.9,7.3,10,9.3c7,3.4,14.3,5.5,22.2,4.5c0.6-0.1,1.2-0.2,1.8-0.4c4.1-1.3,7.9-3.3,8.6-8
		c0.8-5.2-0.7-9.8-5.3-13c-3.4-2.4-7.2-3.2-11.2-3.5c-0.6-0.1-1.1-0.2-1.7-0.2C288.8,582.3,288.8,582,288.8,581.8z M468.1,691.1
		c12.7,17.7,33.9,19.5,48.2,10.9c14.6-8.8,21-26.9,15.1-42.8c-5.7-15.3-21.5-26.2-40.5-22.6c-8.2,1.6-15,5.7-20.3,12.1
		c-7.8,9.6-9.8,20.6-6.9,32.7c-0.8-0.1-1.3-0.1-1.8-0.2c-3.3-0.7-4.9,0.7-5,3.9c0,3.1,1.4,5.6,3.7,7.6
		C463.7,695.4,466.2,694.9,468.1,691.1z"/>
	<path class="st0" d="M148.1,107.1c-2.3,1.1-4.5,2.3-6.7,3.4c-20,10.7-35.7,25.7-46.7,45.5c-5.2,9.2-8.5,19.1-9.7,29.7
		c-1.5,12.7,0.3,24.9,4.5,36.9c4.6,13.2,11.6,25.1,20.1,36.2c7.8,10.3,16.7,19.6,25.9,28.6c1.2,1.1,1.9,2.4,2.1,4.1
		c1.1,9.4,3.8,18.2,8.3,26.6c3.4,6.2,7.5,12,12.4,17.1c1.7,1.8,2.4,3.7,2.4,6.1c0.3,14.9-3.3,28.8-10.9,41.6c-1,1.6-2.1,2.6-3.9,3.3
		c-9.6,3.7-19.5,6-29.7,7c-8.7,0.9-17.2,0.7-25.8-0.6c-0.8-0.1-1.6-0.4-2.3-0.4c-1.2-0.1-1.9-0.7-2.5-1.7c-2.9-5-6.4-9.6-10.4-13.6
		c-2.5-2.5-5.2-4.8-7.8-7.1c-0.6-0.6-1.3-1.1-2-1.7c2.3-7.5,6.8-12.8,13.8-15.9c6.6-2.8,13.6-3.5,20.8-2.7c4.3,0.5,8.4,0.3,12.3-1.9
		c6.1-3.5,9.2-10.9,7.3-17.2c-1.3-4.2-4.1-6.9-8-8.7c-4.8-2.2-9.8-2.8-15-2.5c-10.6,0.7-19.4,5.3-26.9,12.7
		c-6.6,6.4-11.6,14-15.8,22.1c-0.5,1-1.1,2-1.6,3c-0.1,0.1-0.3,0.2-0.7,0.4c0.5-2.4,0.9-4.6,1.3-6.9c1.7-8.9,2.7-17.8,2.4-26.8
		c-0.2-5.5-1-10.9-2.9-16.1c-3.8-10.5-11.1-16.8-22.2-18.3c-2.7-0.4-5.5-0.4-8.1-0.2c-3.7,0.3-6.9,2-9.8,5.1
		c-0.1-1.1-0.2-1.9-0.2-2.6c-0.1-18.3,3.2-36.1,8.8-53.5c9-27.9,23-53.4,41-76.7c8.6-11.1,17.9-21.7,28.9-30.5
		c11.9-9.6,25.1-17,39.6-21.8C136.3,107,143.3,106.2,148.1,107.1z"/>
	<path class="st0" d="M162.2,112.5c-0.4-0.7-0.6-1.3-0.9-1.8c-0.6-1.1-1.5-1.3-2.7-0.8c-3.4,1.6-6.8,2.9-10.1,4.6
		c-19,9.5-34.2,23.2-45.2,41.4c-6.1,10-10,20.8-11,32.5c-1,11.3,0.7,22.3,4.4,33c4.3,12.2,10.9,23.1,18.6,33.4
		c6.2,8.2,13.1,15.7,20.3,23c1,1,1.5,1.9,1.3,3.4c-0.3,1.7-0.1,3.5-0.1,5.6c-0.6-0.4-0.9-0.6-1.1-0.8
		c-13.1-12.7-25.3-26.1-34.8-41.8c-6.8-11.4-11.9-23.4-14.2-36.5c-2.8-16.1-0.6-31.6,6.6-46.3c11-22.5,28-39.1,50.2-50.5
		c2.3-1.2,4.6-2.2,6.9-3.3c0.8-0.4,1.5-0.7,2.6-1.3c-1.4-1.1-2.6-1-3.8-1c-8.4-0.2-16.5,1.3-24.3,4.4c-18.7,7.5-35,18.4-48.9,33.1
		c-17.4,18.5-31.6,39.3-43,62c-8.1,16.2-14.5,33.1-18.4,50.8c-1.7,7.7-3.2,15.5-3.5,23.5c-0.2,5.2-0.3,10.4-0.5,15.6
		c-0.1,1-0.2,2.1-0.6,3c-2.7,6.7-1.8,13,2.4,18.7c0.9,1.2,1.5,2.5,1.9,4c3.1,12.3,8.3,23.6,15.6,33.9c0.9,1.2,1.3,2.4,1,3.9
		c-0.3,2.1-0.5,4.2-0.7,5.7c-5.5,3.9-10.6,7.5-15.9,11.2c-0.1-0.1-0.4-0.2-0.7-0.6c-4.3-5.6-8.4-11.3-11.6-17.7
		c-0.7-1.3-0.9-2.6-0.9-4.1c0-20.9,0-41.8,0-62.7c0-23.4,0.1-46.7-0.1-70.1c0-4,0.8-7.6,2.3-11.2c5.3-12.3,11.4-24.2,18.4-35.7
		c10-16.6,21.5-32.1,34.8-46.2c9.4-10,19.5-19.1,31.3-26.3c10.6-6.5,21.6-12.3,33.5-16.3c11-3.7,22.4-4.9,33.9-3.8
		c14.9,1.3,28.2,12.9,32,27.7c1.8,6.9,2.8,14,2.7,21.2c-0.1,4.9-0.6,9.9-2.2,14.6c-0.7,2.3-1.8,4.4-2.9,6.5
		c-2.6,4.9-5.4,9.7-8.1,14.5c-2.1,3.7-2.1,7.1,0.4,11c6.8,10.9,13.1,22,19.4,33.1c9.5,16.7,17.9,33.8,23.8,52.1
		c3.3,10.4,5.7,20.9,6.9,31.7c0.8,7,1,14.1,0.9,21.1c-0.1,2.9-0.6,5.6-2.7,8c-2.8,3.3-5,7-7.5,10.6c-1.3-1.2-2.6-2.6-4-3.9
		c-3-2.7-6.1-5.3-9.2-8c-1.3-1.1-2.1-2-2.3-4.1c-0.5-4.9-2.3-9.6-4.2-14.1c-4.7-11-12-19.7-22.2-25.8c-6.9-4.2-14-8.1-21.1-12.1
		c-8.9-5-17.2-10.7-24.4-18.1c-12-12.4-19.4-27.2-21.4-44.4c-1.9-15.4,0.8-30.2,6-44.6c4.2-11.6,11.5-20.7,20.6-28.6
		c7.3-6.2,15.3-11.3,24.1-15.1C160.7,113.3,161.4,112.9,162.2,112.5z M162.8,118.7c-0.4,0-0.6-0.1-0.7,0c-0.4,0.2-0.8,0.3-1.2,0.5
		c-11,5-20.6,11.9-28.7,20.8c-4,4.4-7.4,9.1-9.8,14.6c-4.3,10-7.1,20.4-8,31.3c-0.6,6.8-0.2,13.6,1,20.3c2.6,14.4,9.6,26.6,19.8,37
		c7.1,7.2,15.4,12.6,24.2,17.4c5.9,3.3,11.8,6.4,17.5,9.9c9.8,6,18.4,13.3,23.7,23.9c0.3,0.6,0.8,1,1.2,1.5c0.2-0.1,0.4-0.2,0.6-0.2
		c-0.2-1.9-0.4-3.7-0.7-5.6c-2-12.2-5.6-23.8-10.2-35.2c-5.8-14.1-13-27.4-20.6-40.5c-5.9-10.3-11.9-20.5-17.9-30.7
		c-2.5-4.3-3.4-9-3.1-14c0.3-5.4,1.8-10.5,4.1-15.2c2.5-5.2,5.3-10.4,8.4-15.2c2.6-4.1,3.4-8.4,2.8-13.1
		C164.8,123.5,164.4,120.8,162.8,118.7z"/>
	<path class="st0" d="M594.1,305.2c-2.8,1.7-5.4,3.3-8.2,4.9c-1-0.7-2-1.4-3.1-2.1c-6-4-12.5-6.1-19.7-5.6c-10.3,0.7-17.7,6-22.4,15
		c-2.3,4.2-3.6,8.8-4.3,13.5c-0.1,0.5-0.2,1-0.4,1.7c-2.1,0.3-4.2,0.6-6.2,0.9c-6.5,1-12.1,3.7-16.5,8.7c-0.2,0.2-0.4,0.3-0.8,0.6
		c-4.8-5.1-10.6-8.6-17.6-9.8s-13.7,0.1-20.1,3.3c-13.1-6.5-24.2-15.1-30.9-28.5c-2.5-5.1-4.2-10.5-3.8-16.3
		c0.6-11,5.4-19.8,14.7-25.9c3.9-2.5,8.1-3.8,12.8-3.4c0.6,0.1,1.2,0,1.9,0c0.2,0,0.3-0.2,0.6-0.3c0.5-1.7,0.8-3.5,1.4-5.2
		c2.9-8.7,8-15.7,16.3-19.9c10-5,19.6-4.1,28.8,2.1c3.7,2.5,6.6,5.8,9,9.6c0.4,0.7,1.2,1.3,1.9,1.6c1.2,0.4,1.8-0.6,2.4-1.5
		c2.5-4,5.7-7.4,9.7-10c12.9-8.5,28-5.2,37.4,5.6c4.2,4.8,6.8,10.5,8.2,16.7c0.5,2.2,0.5,2.2,2.7,2.5c1.3,0.2,2.6,0.3,3.9,0.6
		c2.1,0.5,2.5,1,2.5,3.3c0,10.9,0,21.7,0,32.6C594.1,301.7,594.1,303.5,594.1,305.2z"/>
	<path class="st0" d="M276.4,507.1c-0.5,2.9-1.9,5-4.3,6.1c-2.7,1.3-5.3,2.8-8.6,1.7c-0.4-0.1-0.9-0.1-1.3,0
		c-1.8,0.6-3.3-0.2-4.7-1.1c-0.8-0.5-1.6-1.1-2.4-1.7c-0.9-0.6-1.8-0.6-2.6,0.3c-0.7,0.8-0.7,2.1,0.2,2.9c1.2,1.1,2.5,2,3.5,2.8
		c-2.2,1.2-4.4,2.4-6.6,3.8c-4.6,2.8-9.1,5.7-13.7,8.5c-3.2,1.9-6.2,4-7.7,7.8c-6.7-0.6-13.2-1.7-19.6-3.6
		c-5.7-1.7-11.1-3.9-16.1-7.1c-8.8-5.6-13.3-13.7-14.6-23.9c-1.7-13.1,0.8-25.4,5.5-37.5c4-10.3,9.3-20,15.6-29
		c0.4-0.6,0.8-1.1,1.3-1.7c0.1-0.1,0.3-0.2,0.7-0.5c2.2,0.7,4.6,1.4,7,2.4c8.6,3.7,17.1,7.6,25.7,11.3c8.6,3.7,17.4,6.8,26.7,8.4
		c11.6,2,22.8,0.6,33.6-4.1c6.8-3,13.1-6.8,18.8-11.7c0.3-0.2,0.6-0.4,0.8-0.5c0.3,0.1,0.5,0.1,0.6,0.3c6.6,7.4,11.8,15.6,14.4,25.3
		c1.4,5.4,0.9,10.8-0.8,16.1c-2.1,6.6-5.6,12.5-9.9,18c-9.9,12.5-22,22.3-36.1,29.7c-0.7,0.4-1.4,0.7-2.2,1
		c-0.2-0.3-0.3-0.6-0.3-0.8c-0.1-0.5-0.2-1-0.3-1.9c0.9-0.3,1.8-0.9,2.8-1.1c2.3-0.4,3.8-1.7,5-3.6c1.7-2.9,2.7-6,3.2-9.2
		c0.2-1.3,0.8-2.2,1.9-3c2.3-1.7,3.9-4.1,5.1-6.6c0.7-1.5,0.5-2.6-0.7-3.2c-1-0.6-2-0.2-2.8,1.2c-0.5,0.7-0.8,1.6-1.2,2.3
		c-2.7,4.6-6.2,6-11.5,4.4c-0.2-1.9,0.3-3.4,2-4.7c2.8-2.1,4.8-4.9,6.3-8c1.6-3.3,0.5-5.6-3.1-6.6c-2.6-0.7-5.2-0.6-7.9-0.1
		c-4.1,0.8-7.8,2.1-11.1,4.6c-0.7,0.5-1.4,1.1-1.9,1.8c-1.8,2.2-2.6,5.1,1.1,7c2.5,1.2,5.2,2.1,7.8,3.1
		C274.4,506.8,275.4,506.9,276.4,507.1z M229.8,480.2c-0.5,0.7-0.9,1.4-1.4,2.2c-3.5,6.1-1.9,13.7,3.8,17.9
		c5.1,3.8,13.8,3.3,18.3-1.9c5.6-6.4,4.6-17.2-2.3-22.8c-7.1-5.8-17.1-4.7-23.1,2.5c-1.3,1.6-1.7,1.7-3.5,0.8
		c-1.7-0.8-2.6-2.2-3.5-3.8c-0.7-1.3-1.9-1.6-2.9-1c-1.1,0.7-1.2,1.7-0.7,2.8c1.1,2.6,2.9,4.6,5.5,5.8c0.7,0.3,1.4,0.6,2.2,0.9
		c-0.2,0.9-0.3,1.7-0.5,2.4c-2.9,1.1-5.2,0.3-7.5-1.4c-1.2-0.9-2.4-0.7-3,0.3c-0.7,1.1-0.3,2,0.6,2.8c1.8,1.6,4,2.6,6.4,2.8
		c1.6,0.1,3.4-0.4,4.8,1.1C225.4,483.3,226.3,481.7,229.8,480.2z M284.9,463.6c0.2,0.1,0.3,0.2,0.5,0.4c-0.4,0.6-0.8,1.3-1.2,1.9
		c-4,6.8-1.5,15.2,5.4,18.8c5.9,3,15.1,1.4,18.3-6.7c1.5-3.6,1.7-7.1,0.6-10.8c-0.2-0.7-0.4-1.5-0.6-2.2c0.8-0.4,1.4-0.7,2-1.1
		c2.3-1.5,3.7-3.7,4.4-6.3c0.3-1.1-0.2-1.9-1.2-2.4c-1-0.5-1.9,0-2.5,0.9c-0.2,0.3-0.3,0.6-0.4,1c-0.8,2.2-2.3,3.7-4.7,4.3
		c-0.6-0.6-1.3-1.1-2-1.7c0.5-0.8,1-1.5,1.4-2.1c1.3-2.4,1.9-4.9,1.2-7.6c-0.3-1.1-0.9-1.8-2.1-1.6c-1.1,0.1-1.7,0.8-1.7,2
		c0,0.5,0,1.1,0.1,1.6c0.1,2.2-0.7,3.9-2,5c-2.9-0.4-5.4-1-7.9-0.9c-9.2,0.1-16.3,8.6-15,17.7c0.1,0.7,0.1,1.5,1.2,1.3
		c0.6-2.1,1.1-4.3,1.9-6.3C281.5,466.5,282.8,464.7,284.9,463.6z M205.6,471.2c-0.1,1.8,0.5,2.8,1.7,2.9c1.2,0.1,2-0.7,2.3-2.3
		c0.1-0.8,0.2-1.6,0.3-2.4c1.8-8.2,6.2-14.5,13.4-18.7c1.9-1.1,2.4-2.1,1.8-3.2c-0.7-1.3-2-1.4-3.9-0.2c-1.3,0.8-2.5,1.6-3.7,2.5
		C210.5,455.3,206.7,462.6,205.6,471.2z"/>
	<path class="st0" d="M63.7,368.4c2.6,2.2,5.1,4.2,7.4,6.3c8.8,8.4,15.7,18.1,19.2,29.9c1.4,4.8,2.1,9.6,1.5,14.6
		c-0.1,1-0.4,2-0.6,3.3c-9.8-4.1-19.4-4.4-28.6,0.7c-9.4,5.1-13.5,13.7-14.9,24.3c-2.5,0.3-5,0.3-7.5,0c-12.4-1.7-23.6-6.4-33.5-14
		c-0.2-0.2-0.4-0.3-0.6-0.5c-4.7-3.9-4.7-3.9-4.7-10.1c0-8.5,0.1-16.9-0.1-25.4c-0.1-2.5,0.6-4.6,2-6.7
		c6.8-10.3,15.4-18.6,26.2-24.5c1.2-0.7,2.1-1.4,2.3-2.9c1.1-8.2,1.4-16.3-0.7-24.4c-2.2-8.6-6.7-15.4-14.1-20.4
		c-6.2-4.2-8.7-12.8-6-19.7c1.6-4.1,4.7-6.8,8.9-8c4.6-1.4,9.1-0.8,13.6,0.3c8.8,2.2,14.3,7.9,17.5,16.2c1.6,4.1,2.4,8.4,2.8,12.9
		c1.1,11.6-0.6,23-3,34.3c-0.5,2.3-1,4.6-1.5,6.9c1.5,0.8,2.1,0.4,2.7-0.8c1.2-2.6,2.4-5.1,3.7-7.6c4.2-8,9.3-15.4,16-21.5
		c6-5.5,12.8-9.4,20.9-10.7c5.7-0.9,11.4-0.8,16.9,1.3c4.2,1.6,7.4,4.2,8.7,8.6c1.5,5-0.4,10.9-4.9,14.4c-3.3,2.6-7.1,3.7-11.4,3.3
		c-7.8-0.7-15.5-0.6-22.9,2.4C71,354.1,66,360,63.7,368.4z M81.9,401.9c-0.7-6.1-3.7-11.6-8.9-15.8c-2.8-2.2-6.1-1.8-8.2,0.8
		c-2,2.4-1.6,5.8,1,8c2.7,2.4,4.4,5.2,4.9,8.7c0.5,3.2,3,5.1,6.1,4.9C79.8,408.2,81.9,405.8,81.9,401.9z M100.8,322.2
		c-0.2,0-0.3-0.1-0.5-0.1c-2.7,0-4.6,1.5-4.8,3.9c-0.3,2.4,1.2,4.2,3.9,4.7c1,0.2,2.1,0.3,3.1,0.5c2.1,0.5,3.9,1.2,4.4,3.8
		c0.5,2.5,2.7,3.6,5,3.1c2.3-0.5,3.7-2.4,3.4-4.9c-0.2-2.3-1.1-4.4-2.7-6.2C109.5,323.7,105.3,322.6,100.8,322.2z M35.1,294.7
		c-2.3,0-3.9,1.2-4.4,3.3c-0.5,2.3,0.4,4.3,2.6,5.1c2.4,0.8,3.8,2.1,4.4,4.7c0.6,2.2,2.9,3.3,5.3,2.8c2-0.4,3.4-2.3,3.4-4.5
		C46.4,300.6,40.5,294.7,35.1,294.7z"/>
	<path class="st0" d="M507.1,376.2c2.8,0,5.3-0.1,7.9,0c3.5,0.1,7,0.8,10.3,2.1c0.3,0.1,0.7,0.3,1,0.4c9.1,4.3,12.2,12.7,7.5,22
		c-2.2,4.3-5.5,7.5-9.4,10.2c-5.9,4-12.5,6.4-19.4,8.2c-8,2-16.1,3-24.3,3.6c-0.2,0-0.5-0.1-1-0.2c0.1-1.3,0.3-2.6,0.3-3.9
		c-0.1-2.8,0.1-5.6-0.4-8.4c-0.6-3.5-2.6-6.1-6-7.5c-1.9-0.8-3.7-1.7-5.5-2.6c-2.4-1.4-4.8-1.4-7.4-0.5c-7.6,2.5-15.2,5-22.8,7.5
		c-0.6,0.2-1.2,0.3-1.9,0.6c-0.8-1.9-1.9-3.3-3.8-4.2c-2.4-1-4.6-1.4-7,0c-2.2,1.2-4.6,2.2-7,3.1c-3,1.1-4.8,3.2-5.6,6.2
		c-0.1,0.4-0.2,0.8-0.4,1.3c-13.2-5.5-17.3-17.3-11.9-28.6c1.6-3.2,4.3-5,7.7-6c4.3-1.3,8.7-1.4,13.1-1.2c2.4,0.1,4.7,0.2,7.1,0.3
		c0.8-1.1,0.3-2.3,0.3-3.4c-0.2-5.4,0.3-10.8,2-15.9c0.8-2.3,1.9-4.6,3.2-6.6c3.5-5.5,9.8-7.8,16.1-6.2c5.7,1.4,10.1,4.9,14.1,8.9
		c1.3,1.3,2.5,2.7,3.9,4.2c0.7-0.7,1.2-1.2,1.7-1.7c3.3-3.5,6.8-6.6,11-8.9c10.5-5.7,22.3-1,25.5,11.6c1.1,4.6,1.2,9.2,1,13.9
		C507.1,374.8,507.1,375.3,507.1,376.2z"/>
	<path class="st0" d="M111.2,613c6-2.2,11.4-1.9,16,2.5c4.5,4.2,5.1,9.6,3.6,15.4c1.7,0.5,3.1,0.8,5.1,1.3c-1.7,1.5-3.2,2.8-4.8,4.1
		c-1-1.1-1.9-2.1-2.8-3c-2.1-2.2-4.4-4.1-7.3-5c-5.2-1.7-10.7,0.4-13.3,5.3c-1.3,2.3-1.9,4.7-2.2,7.3c-0.1,1.3-0.3,2.6-0.5,3.9
		c-2.4,0-4.5-0.1-6.7,0c-5.6,0.2-9.1,2.7-12.1,8.7c-9.7-3-19.4-2.7-28.6,2.2S42.5,668,39.6,678.1c-4.3,0.3-8.4-0.5-12-2.7
		c-2.7-1.7-5-2.2-8.2-1.2c-4.5,1.6-8.4-0.3-11.8-3.5c-0.6-0.6-1.1-1.1-1.5-1.7c-1.7,0.1-3,1.5-4.8,0.7c0-16.4,0-32.7,0-49.3
		c1-0.1,1.8-0.2,2.9-0.4c2-7.8,6.2-14.1,13.3-18.2c7-4.1,14.5-4.5,22.4-2.2c3.5-6.8,8.6-11.5,16.4-12.3c7.8-0.9,13.9,2.3,18.7,8.4
		c7.5-3.3,14.9-3.8,22.3-0.3C104.6,599,109,604.9,111.2,613z M90.9,636.7c2.4,1.1,4.8,2.2,7.4,0.3c2.7-2,1.9-4.8,1.6-7.5
		c7.3-2.8,7.2-7.8,1.4-11.8c0.9-2.5,2.2-5.1,0.1-7.7c-2.1-2.5-4.9-1.8-7.6-1.5c-0.9-2.8-2.1-5.2-5.2-5.5c-3.3-0.4-4.8,2.1-6.3,4.3
		c-7.3-2.9-9.8-0.8-9.3,7.4c-2.6,0.9-5.1,2.1-5.5,5.3c-0.3,3.2,2.3,4.7,4.3,6.4c-1.2,2.6-2.2,5.1-0.3,7.6c2,2.6,5,1.6,7.5,1.6
		C82.1,642.5,85.5,642.8,90.9,636.7z M31.6,638.9c2.6,3.9,3.7,4,7.4,0.7c4.3,1.1,5.1,0.4,5.7-4.7c3.8-2.2,3.9-3.8,0.7-7.2
		c0.3-1.5,1-3-0.2-4.5c-1.2-1.4-2.9-1.1-4.3-1.1c-0.9-1.5-1.5-2.9-3.5-3.1c-1.9-0.1-2.7,1.5-3.9,2.3c-1.6-0.5-3-1-4.4,0.2
		c-1.5,1.2-1,2.9-1.1,4.3c-1.4,1-3,1.5-3.1,3.5c-0.1,1.9,1.4,2.7,2.2,3.9C26.1,637.5,27,638.7,31.6,638.9z"/>
	<path class="st0" d="M489,525.2c-1-7.2,2-10.6,7.9-8.9c0.2-0.5,0.5-1,0.7-1.6c0.6-1.4,1-2.8,1.8-4.1c2.5-3.9,7-5.6,11.5-3.3
		c0.4,0.2,0.8,0.3,1.2,0.5c0.6-0.7,1.1-1.3,1.6-1.9c2.5-2.7,5.8-3.2,8.8-1.1c1.3,0.9,2.2,1.1,3.7,0.1c3.4-2.5,7.1-2.3,10.6-0.1
		c0.7,0.5,1.4,1,2.4,1.7c2.5-3.3,5.2-6.3,9.8-6c4.4,0.3,7,3.3,9.4,6.8c2.3-2,4.6-3.5,7.7-3.2c3.1,0.3,5.1,2.2,7.2,4.4
		c2-2.3,4-4.7,7.4-4.2c3.3,0.4,5.2,2.8,6.8,5.5c1-0.2,1.8-0.5,2.6-0.7c2.4-0.4,3.7,0.7,3.7,3.1c0,12.3,0,24.5,0,36.8
		c0,2-0.7,2.7-2.7,2.6c-0.8,0-1.6-0.2-2.3-0.4c-0.7-0.2-1.3-0.5-1.9-0.8c-0.7,0.4-1.3,0.7-1.9,1.1c-1.8,1-3.7,1.1-5.6,0.2
		c-1-0.5-1.8-0.4-2.7,0.3c-3.3,2.6-6.6,2.4-10,0.2c-0.3-0.2-0.6-0.3-0.6-0.4c-1.8,0.8-3.3,2-4.9,2c-1.6,0-3.1-1.2-4.9-2
		c-0.3,0.2-1,0.7-1.6,1.1c-1.1,0.7-2.3,0.9-3.5,0.3c-1.3-0.6-2.3-0.7-3.7,0c-1.8,1-3.8,0.7-5.6-0.3c-1-0.6-1.9-0.7-2.9,0
		c-1.1,0.8-2.4,0.7-3.5,0c-1-0.6-1.9-0.6-3-0.2c-2.7,1.2-5.4,0.7-7.8-0.9c-1-0.7-1.9-1-3.2-0.6c-1.9,0.7-3.9,0.5-5.6-0.8
		c-1-0.7-1.8-0.8-2.9-0.3c-2.8,1.1-5.4,0.6-7.8-1c-1-0.6-1.8-1-2.9-0.5c-0.3,0.1-0.8,0.2-1,0.1c-2.7-1.6-5.9-1.2-8.6-2.6
		c-0.7-0.3-1.5-0.7-2.2-0.7c-2.8,0.2-5-1-6.6-3.2c-2.7-3.7-3.2-7.8-1.4-12C483.9,527.9,485,527,489,525.2z"/>
	<path class="st0" d="M94.4,490.5c-3.2,0.7-6.2-0.5-9.2-2c-7.2-3.5-14.3-7.3-20.6-12.3c-4.4-3.5-8.4-7.5-11.5-12.3
		c-10-15.5-1.5-38.5,17.5-42.5c7-1.4,13.7-0.9,20,2.6c4.8,2.7,9.2,3.1,14.5,0.8c12.2-5.4,30.4-0.5,36.2,15.1
		c4.3,11.5,2.1,22.7-7.1,31.8c-6.3,6.2-13.9,10.5-22,13.9c-3.1,1.3-6.2,2.4-9.4,3.6C100.1,490.2,97.4,491,94.4,490.5z M132.5,449.8
		c3,0,4.9-2.1,4.7-5.1c0-0.6-0.2-1.2-0.3-1.8c-1.9-8-8.5-13.2-16.2-14.8c-2.9-0.6-5.3,0.9-5.8,3.6c-0.5,2.5,0.8,4.6,3.7,5.4
		c4.8,1.4,8.3,3.9,9.2,9.3C128.3,448.8,130.1,449.8,132.5,449.8z M77.9,430.5c-0.2,2.1,0.9,3.6,2.8,4.3c1.9,0.7,3.4,1.6,5,2.8
		c1.8,1.5,4.3,1.2,6-0.4c1.7-1.6,2.1-3.8,0.8-5.7c-2.5-3.4-5.9-5.3-10.1-5.4C79.7,425.9,77.9,427.9,77.9,430.5z"/>
	<path class="st0" d="M566.2,553.3c4.2,2.7,8.2,2.5,12.2-0.6c2.7,1.3,5.4,1.3,8-0.3c0.4-0.2,1-0.3,1.5-0.2c2,0.3,3.9,0.7,6,1.1
		c0,15.2,0,30.7,0,46.5c-9.2-2.2-18.1-4.4-27-6.6c-0.2-0.8-0.4-1.5-0.6-2.2c-1.7-5.3-6.8-7.8-12-5.7c-1.8,0.7-3.4,1.9-5,3
		c-1.7,1.2-2.1,1.2-3.6-0.2c-1.4-1.2-2.8-2.5-4.3-3.4c-3.3-2-6.8-1.9-9.9,0.4c-1,0.7-1.8,0.7-2.9,0.6c-14.2-2.2-28.4-4.4-42.5-6.6
		c-2.6-0.4-5.2-0.8-7.9-1c-1.2-0.1-1.9-0.7-2.3-1.8c-2.2-5.6-4.4-11.1-6.6-16.7c-0.3-0.7-0.5-1.5-0.4-2.3c0.6-8,1.3-16,2-24.3
		c3.3-0.5,6.5-1.1,10-1.6c0,2.3-0.2,4.3,0.1,6.2c0.5,3.6,2.1,6.6,5.4,8.3c1.6,0.8,3.7,0.5,5.3,1.2c1.7,0.7,3.2,1.6,5.2,1.7
		c1.6,0.1,3.1,1.3,4.7,1.4c1.5,0.2,3-0.2,4.5,0.8c2.3,1.4,4.8,1.6,7.4,0.7c0.9-0.3,1.6-0.4,2.5,0.1c2,1.1,4.1,1.6,6.4,0.9
		c0.6-0.2,1.6,0.1,2.2,0.4c2.8,1.7,5.7,2.2,8.8,1c0.6-0.2,1.4-0.1,2,0.1c1.5,0.6,2.9,0.8,4.3,0.1c0.9-0.4,1.6-0.4,2.5,0.1
		c2.1,1.1,4.2,1,6.4,0.2c0.6-0.2,1.4-0.4,2-0.2c2.4,0.8,4.5,0.4,6.5-0.9C560.9,555.9,562,555.9,566.2,553.3z"/>
	<path class="st0" d="M527.3,225.7c3.9-2,7.3-4.2,10.9-5.6c17.7-7.2,37.1-2.3,50.2,11.4c0.6,0.6,1,1.2,1.6,1.8
		c3,3.1,4.5,6.6,4.2,11.1c-0.4,6.1-0.1,12.3-0.1,18.8c-2.6-0.5-5.1-0.9-7.4-1.3c-1.1-3.2-1.9-6.2-3.1-9.1
		c-3.3-7.7-8.6-13.7-16.3-17.3c-11.8-5.6-25.8-2.6-34.5,7.2c-1.8,2-3.4,4.3-5.3,6.7c-0.7-1-1.3-1.8-1.9-2.6
		c-4.3-6.2-9.9-10.9-17.2-12.9c-12.4-3.4-22.8,0.4-31.2,9.8c-4.2,4.7-6.7,10.3-8,16.4c-0.1,0.3-0.2,0.6-0.3,1c-1.3,0-2.5-0.1-3.8,0
		c-8.6,0.6-15,5-19.7,11.8c-8.9,12.6-8.4,25.7-0.9,38.8c5.7,10.1,14.3,17.3,24.3,23.1c1.3,0.7,2.6,1.5,3.9,2.2
		c0.1,0,0.1,0.1,0.3,0.4c-1.5,1-3,2-4.6,3.2c-0.8-0.5-1.6-1-2.3-1.6c-6.5-4.5-13.6-7.1-21.5-6.7c-0.3,0-0.6-0.1-0.8,0
		c-2.6,1-4-0.4-5.5-2.2c-7.4-8.9-12.8-18.8-14.6-30.4c-1.6-10.5,0.1-20.4,5-29.7c5.9-11.2,14.6-19.4,26.9-23.2
		c1.4-0.4,2-1.3,2.5-2.4c4.6-9.5,11.3-17,20.7-22c15.4-8.1,30.6-7.6,45.5,1.3C525.2,224.3,526.3,225.1,527.3,225.7z"/>
	<path class="st0" d="M174.2,487.1c0,3.7,0,7,0,10.4c0.1,5.3,1,10.5,2.6,15.6c2.6,7.9,8.1,13.5,15,17.8c7.6,4.7,16,7.3,24.7,8.9
		c3.5,0.7,7.1,1.1,10.9,1.7c0.3,1.1,0.5,2.2,0.9,3.5c-0.8,0-1.5,0.1-2,0c-8-1.2-16-2.4-24-3.5c-1.2-0.2-1.9-0.6-2.5-1.6
		c-0.7-1.1-1.5-2.2-2.1-3.3c-2.7-4.3-6.4-5.3-11.2-4.5c-4.2,0.8-8,2.6-11.6,5c-1.5,1-2.9,1.2-4.5,0.9c-1.1-0.2-2.3-0.3-3.5-0.4
		c-2-6.6-5.6-11.6-13.2-12.6c-0.2-3.4-0.8-6.8-3.1-9.6c-2.3-2.9-5.3-3.9-9.1-3.6c-0.9-4.1-1.9-7.9-2.7-11.9
		c-1.6-7.8-3.1-15.6-4.7-23.3c-0.4-1.9-0.1-3.3,1.4-4.7c5.6-5.5,8.7-12.2,8.9-20c0.1-7.1-1.6-13.8-6.1-19.5
		c-0.4-0.6-0.9-1.1-1.3-1.7c-0.1-0.1-0.1-0.2,0-0.1c2.3-2.2,4.7-4.3,6.9-6.6c2.2-2.4,3.1-5.5,3.5-9c22.5-7.2,41.5-19.9,57.4-37.5
		c2.2,2.5,4.2,7.1,4.4,10.2c-1.8,1.1-3.7,2.3-5.5,3.5c-9.1,6.2-16.5,14-21.2,24.2c-2.1,4.6-3.4,9.5-3.7,14.5
		c-0.1,1.6-0.7,2.4-2.1,3.2c-11.3,6.4-17,16.2-16.6,29.1c0.3,9.7,4.6,17.6,12.3,23.6c0.3,0.3,0.7,0.5,1.1,0.8
		C173.8,486.7,174,486.9,174.2,487.1z"/>
	<path class="st0" d="M546.4,498.8c-1.5-22.9-3.1-46.2-4.7-69.8c1.3,0,2.3,0,3.2,0c6.6-0.2,13.2-0.7,19.6-2.6
		c12.6-3.7,21.9-11,26.7-23.5c0.6-1.6,0.7-1.6,2.5-1.7c0,35.5,0,71,0,106.7c-1.7,0-3.5,0-5.7,0c-1.6-2.1-3.6-4.3-6.8-4.8
		c-3.2-0.5-5.6,0.9-7.8,3.3c-2.2-1.6-4.3-3.3-7.2-3.6c-2.8-0.2-5.2,0.8-7.2,2.3c-1.9-1.6-3.5-3.4-5.6-4.5
		C551.6,499.8,549.3,499.6,546.4,498.8z"/>
	<path class="st0" d="M229.3,379.8c-5.8,2-11.3,3.9-16.9,5.9c-0.1-0.2-0.3-0.4-0.5-0.7c-4.6-12.5-12.5-22.4-23.7-29.6
		c-7.8-5.1-15.4-10.2-22.3-16.5c-10.7-10-19-21.5-23.1-35.8c-1.9-6.7-2.9-13.6-2.9-20.6c0-1.4,0.2-2.8,0.6-4.2
		c0.6-2.1,2.1-3.1,4.2-2.6c1.8,0.5,3.7,1.3,5.3,2.3c5.2,3.3,9.8,7.5,14.2,11.8c8.3,8,16.4,16.3,25.7,23.2
		c6.2,4.7,12.3,9.5,18.3,14.4c7.5,6.2,13.5,13.7,17.1,22.8c3.6,9.1,4.5,18.6,4.1,28.3C229.5,379,229.3,379.5,229.3,379.8z"/>
	<path class="st0" d="M508.3,374.9c0-3.2,0.1-6.1,0-9c-0.2-3.9-1.1-7.7-2.9-11.1c-4-7.6-12.4-11.2-20.6-8.9
		c-5.3,1.5-9.4,4.7-13.3,8.3c-1.2,1.1-2.3,2.1-3.3,3c-1.5-1.4-3-2.7-4.6-4.2c-3.1-3-6.5-5.5-10.5-7c-8.9-3.5-17.4-0.3-21.7,8.1
		c-3.3,6.4-4,13.2-4,20.3c0,0.7,0,1.4,0,2.1c0,0.2-0.1,0.3-0.3,0.7c-1.6-0.1-3.4-0.2-5.1-0.3c-4.4-0.4-8.8-0.1-13.1,1
		c-7.1,1.8-10.2,5.5-11.6,13.7c-1.4,8,1.5,14.5,7.9,19.5c1.5,1.2,3.2,2.2,4.8,3.3c0.7,0.5,1.4,1,2.6,1.7c-4.5,1.8-8.6,3.4-12.7,5.1
		c-7.4-5.5-12.3-12.5-13.7-21.7c-0.9-6.2,0.1-12.1,2.5-17.8c3.6-8.6,10.4-13.1,19.2-15c2.8-0.6,5.7-0.8,8.8-1.3
		c0.5-2.1,0.8-4.4,1.4-6.6c1.7-6.9,4.5-13.1,9.8-18.1c4-3.8,8.7-5.9,14-6.8c9.1-1.5,17,1.4,24.3,6.6c2.3,1.6,2.3,1.6,4.5,0.1
		c5.6-3.9,11.8-6.5,18.7-6.6c12.1-0.2,23.3,6.9,27.8,19.4c1.2,3.4,1.9,6.9,2.9,10.7c1.4,0.3,3.2,0.7,4.8,1.1
		c6.9,1.6,12.9,4.8,17.4,10.3c7.4,8.9,8.2,18.8,3.7,29.2c-3.8,8.6-10.4,14.6-18.4,19.1c-6.4,3.6-13.3,6-20.5,7.7
		c-8.9,2.1-18,3.4-27.2,3.6c-0.2,0-0.5-0.1-1-0.1c0.3-3.6,0.6-7.1,0.9-10.9c2.4-0.3,4.7-0.5,6.9-0.7c9.6-0.8,19-2.5,28.1-6
		c6.1-2.4,11.8-5.5,16.3-10.5c3.8-4.1,6.2-8.8,6.2-14.5c0-7.1-4-11.6-10-14.6c-5-2.5-10.5-2.9-16-2.9
		C510.4,374.9,509.5,374.9,508.3,374.9z"/>
	<path class="st0" d="M585.9,328c2.7-2,4.4-5.3,8-6.8c0,22.4,0,44.6,0,67.1c-4.8,0-9.5,0.2-14.1-0.1c-7.3-0.4-14.6-0.9-21.9-1.5
		c-2.5-0.2-5.1-0.7-7.6-1.2c-1-0.2-1.7-0.6-2.1-1.7c-4.3-11.7-13.2-17.9-25-20.4c-0.8-0.2-1.7-0.4-2.5-0.6
		c-2.3-6.8,1.4-13.8,8.3-15.9c4.4-1.4,8.9-1.2,13.4-1.1c1.9,0,3.8,0.2,5.9,0.3c0.1-0.7,0.2-1.3,0.1-1.9c-0.2-5.8,0.1-11.5,2.1-16.9
		c0.5-1.4,1.1-2.8,1.8-4.1c3.5-6.7,10.6-9.5,17.7-7c4,1.4,7.4,3.7,10.4,6.6C582.3,324.5,584,326.2,585.9,328z"/>
	<path class="st0" d="M100.2,665.2c0.5,0.4,1.1,0.8,1.5,1.3c4.6,6.1,6.8,13.1,6.8,20.7c0,2.8-0.6,5.5-1,8.3
		c-0.5-0.2-0.7-0.2-0.8-0.3c-1.7-2.4-2.9-2.9-5-2.1c-2.3,0.9-3.9,3.4-3.7,5.6c0.2,1.6,1.2,2.9,2.8,3c1.6,0.1,2.4,0.8,2.8,2.4
		c-2.9,5.1-6.9,9.2-12,12.2c-20.5,12.1-46.4,0.8-51.3-22.5c-4.1-19.5,9.5-38.2,28.8-40.9c11.1-1.6,20.7,1.9,28.8,9.4
		C99,663.2,99.5,664.3,100.2,665.2c-0.8-0.7-1.6-1.4-2.4-2.2c-3-2.9-6.6-4.7-10.7-5.4c-2-0.3-3.7,0.2-4.7,2.1
		c-1.5,2.7-0.2,5.8,3.1,6.5c5.1,1.2,8.3,4.4,10.1,9.2c0.2,0.4,0.3,0.8,0.5,1.2c1,2.2,3.2,3.3,5.4,2.7s3.5-2.7,3-5.2
		c-0.3-1.4-0.8-2.7-1.4-4C102.1,668.5,101.1,666.9,100.2,665.2z"/>
	<path class="st0" d="M161.6,691.3c0.3-0.2,0.3-0.4,0.5-0.5c2.9-0.4,4.3-1.7,4.1-4c-0.2-2.6-2.7-5.2-4.9-5.1
		c-1.4,0.1-2.4,0.9-3.1,2.2c-1.1,2-2.4,2.1-3.7,0.3c-3.8-5.4-6-11.3-6.3-17.9c-0.3-7.8,1.6-14.9,6.3-21.1c8.6-11.3,20.1-16,34-13.1
		c13.4,2.9,22,11.5,25.4,24.8c4.6,17.7-7,36.8-26.2,40.5c-8.7,1.7-16.8-0.1-24.3-4.7C162.8,692.3,162.3,691.8,161.6,691.3z
		 M189.8,633.8c-2.8-0.2-4.5,1.2-5,3.4c-0.5,2.3,0.5,4.5,2.6,5.1c3.2,0.9,6,2.4,8.3,4.8c1.6,1.6,4.2,1.3,5.8-0.2
		c1.6-1.5,1.9-4.1,0.6-5.8C198.9,637.1,194.5,634.7,189.8,633.8z"/>
	<path class="st0" d="M93.2,419.4c0.2-4.6,0-9-1.3-13.2c-1.2-4.1-2.8-8.1-4.3-12.5c2,0.2,4.1,0.4,6.1,0.6c5.9,0.7,11.7,1,17.6,0.6
		c10-0.7,19.7-2.4,29.3-5.5c2.4-0.7,4.7-1.6,6.9-2.6c0.9-0.4,1.8-1.1,2.3-2c6.1-9.6,10-20,11.2-31.3c0.4-4.2,0.4-8.4,0.5-12.7
		c0-0.4,0-0.8,0-1.8c2.3,2,4.2,3.7,5.9,5.4c0.4,0.4,0.4,1.3,0.4,2c-0.1,8.8-1.9,17.3-4.9,25.5c-0.7,1.9-1.6,3.7-2.3,5.6
		c-0.3,0.7-0.5,1.4-0.7,2.1c0.1,0.2,0.3,0.3,0.4,0.5c0.8-0.4,1.6-0.7,2.4-1.2c5.6-3.4,10.7-7.5,15.4-12c2.9-2.8,5.7-5.7,8.7-8.8
		c7.3,4.4,12.5,10.8,17.5,17.9c-12,13.7-26.2,24.3-42.6,32.1C140.9,417.9,111.6,422.2,93.2,419.4z"/>
	<path class="st0" d="M518.1,461.9c-1.5,0-2.6,0-3.7,0c-8.6,0.3-17.1-0.5-25.2-3.7c-3.7-1.4-7-3.3-10.1-5.7
		c-1.1-0.8-1.7-1.7-1.5-3.1c0.4-4.3,0.7-8.6,1-12.7c1.5-0.7,2.3-0.4,3,0.6c6.6,8.8,15.9,12.5,26.5,13.4c2.9,0.2,5.8,0.2,8.7,0.3
		c0.5,0,1-0.2,1.7-0.3c0.1-1.4,0.3-2.8,0.3-4.2c0.1-5.3,0.2-10.6,0.3-15.9c0-1.2,0.2-2,1.5-2.4c7-2.8,13.4-6.8,18.8-12.1
		c0.1-0.1,0.2-0.1,0.3-0.1c0.3,0.7,0.5,1.7,1.1,2.1c0.7,0.4,1.7,0.3,2.5,0.3c6.6-0.2,13-1.1,19.1-3.7c6.1-2.5,11.1-6.5,14.5-12.2
		c0.3-0.4,0.6-0.9,0.8-1.3c4.2,0,8.3,0,12.8,0c-0.4,1.1-0.6,1.9-1,2.6c-4.3,10-11.8,16.5-21.9,20.2c-6.1,2.2-12.4,3.4-18.9,3.4
		c-2.5,0-5.1,0-7.5,0c-0.6,1.9,0.2,17.7,0.8,24.2c0.7,8,1.1,16,1.6,24c0.6,8,1.1,16,1.7,23.5c-2.3,1.9-4.4,3.5-6.6,5.3
		c-1.9-1.5-4.3-2.6-7-2.6c-2.7-0.1-5,1-7.2,2.6c-2.5-2-5.3-2.5-8.6-1.7C516.7,489,517.7,475.6,518.1,461.9z"/>
	<path class="st0" d="M457.1,572.1c-28.5-4.4-56.8-8.7-85.2-13.1c0-1.5-0.1-3,0-4.5c0.5-10.2,1-20.4,1.6-30.6
		c0.7-12.5,1.4-25,2-37.5c0.7-12.9,1.3-25.9,1.9-38.8c0.2-3.3,0.3-6.5,0.8-9.7c0.2-1.5,1-3,1.6-4.4c0.6-1.4,1.8-2.3,3.3-2.9
		c20.6-8.1,40.9-16.8,62.1-23.2c5.6-1.7,11.1-3.6,16.6-5.4c4.1-1.3,7,0.1,7.9,4.3c0.6,2.5,0.6,5.2,0.5,7.9c-0.3,5.7-1,11.4-1.4,17.1
		c-0.5,5.4-0.9,10.9-1.4,16.3c-0.5,5.5-0.8,11.1-1.3,16.6c-0.4,5.3-0.9,10.5-1.4,15.8c-0.4,5.5-0.8,10.9-1.3,16.3
		c-0.4,5.3-0.9,10.7-1.4,16c-0.5,5.5-0.8,10.9-1.3,16.3c-0.5,5.3-0.9,10.7-1.4,16c-0.4,5.5-0.8,11.1-1.3,16.6
		C457.7,564.9,457.4,568.4,457.1,572.1z M377,546.9C377,546.9,377,546.9,377,546.9c0.1,1.2,0.1,2.5,0.1,3.7c0.1,5.3,2.3,7.7,7.6,8.2
		c2.1,0.2,4.2,0.5,6.3,0.7c6.5,0.8,12.9,1.6,19.4,2.5c6.4,0.8,12.7,1.6,19.1,2.4c4.2,0.5,8.4,1,12.6,1.4c2.5,0.2,4.6-0.7,5.9-2.8
		c1-1.6,1.9-3.5,2.1-5.3c1.2-11,2.2-22.1,3.2-33.2c0.8-8.8,1.5-17.6,2.3-26.3c1-10.5,2-21,3-31.6c1.2-13.3,2.4-26.7,3.5-40.1
		c0.2-2.1,0-4.2-0.4-6.3c-0.8-4.1-3.5-5.7-7.6-4.6c-0.6,0.2-1.2,0.4-1.7,0.6c-13.7,4.6-27.4,9.1-41.1,13.7c-7.5,2.5-15,5.1-22.6,7.5
		c-3.3,1.1-5.4,3.2-5.7,6.8c-0.2,1.9-0.2,3.9-0.3,5.8c-0.4,8.1-0.8,16.2-1.2,24.3c-0.2,3.3-0.4,6.7-0.6,10c-0.5,8.4-1,16.9-1.5,25.3
		c-0.2,4-0.4,7.9-0.6,11.9C378,530,377.5,538.5,377,546.9z"/>
	<path class="st0" d="M1.4,538c16-1.2,31.8-2.3,47.5-2.6c3.7,16.9,7.3,33.5,10.9,50.2c-1.5,0.2-3.2,0.3-4.8,0.7
		c-1.9,0.4-3.7,1.1-5.5,1.7c-1.7,0.6-3.4,1.4-5.2,1.8c-13.9,3.3-27.8,6.5-41.7,9.7c-0.3,0.1-0.7,0.1-1.2,0.1
		C1.4,579.1,1.4,558.8,1.4,538z"/>
	<path class="st0" d="M185.4,431.5c1.8-5.4,4.6-10,8.1-14.3c9.7-12,22.4-19.4,36.9-24c9.7-3.2,19.8-4.3,30-3.7
		c6.1,0.4,12.2,1.4,17.8,3.7c3,1.3,5.8,3.3,8.4,5.4c4,3.2,7.8,6.6,11.7,9.9c3.9,3.3,8.4,5.5,13.6,6c4,0.4,7.7-0.3,11.3-1.9
		c1-0.5,2-1,3.5-1.7c-0.2,1.2-0.3,2-0.5,2.8c-0.9,5.1-2.7,9.8-5.2,14.3c-0.6,1.1-1.4,2-2.4,2.8c-4.3,3.4-9.2,5.2-14.7,5.1
		c-1.1,0-2.3-0.3-3.2-1c-4-2.7-8.4-4.1-13.2-4.3c-2.4-0.1-4.6-0.8-6.8-1.9c-8.5-4.2-16.9-8.4-25.5-12.3c-6.4-2.9-13.1-4.7-20.1-5.3
		c-11.7-1-22.4,2-32,8.6c-4.2,2.9-8.1,6.3-11.9,9.7C189.7,431,188,431.9,185.4,431.5z"/>
	<path class="st0" d="M137.2,277.5c-1.5-1.5-2.9-2.9-4.3-4.3c-9.6-9.9-18.4-20.5-25.5-32.3c-5.8-9.6-10.2-19.7-12.6-30.7
		c-3.8-17.8-1.1-34.6,7.7-50.3c11.7-21.2,29-36.4,51-46.3c1.8-0.8,3.5-1.6,5.4-2.3c0.4-0.2,1,0,1.5,0.1c0,0.2,0.1,0.4,0.1,0.6
		c-0.8,0.4-1.5,0.8-2.3,1.1c-14.9,6.9-27.4,16.6-37,29.9c-2.3,3.2-4,6.9-5.6,10.5c-5.9,13.8-8.8,28.2-8,43.3
		c1,18.5,7.8,34.5,20.1,48.3c7.7,8.6,17,15.1,27,20.6c6.8,3.8,13.5,7.6,20.2,11.5c4.6,2.7,8.7,6,12.3,9.9c6.3,6.9,10.3,15.1,13,24
		c0.6,2,0.9,4,1.5,6.6c-1.1-0.7-1.6-1-2.1-1.3c-10.6-7.9-20.8-16.3-30-25.9c-5.3-5.5-10.9-10.6-17.2-14.8c-1.7-1.1-3.5-2.1-5.4-2.8
		c-4.2-1.5-7.1-0.3-9.2,3.7C137.7,276.9,137.5,277.1,137.2,277.5z"/>
	<path class="st0" d="M236.7,378.8c-1.2,0.2-2.5,0.4-4.1,0.7c0.1-8-0.2-15.7-2.1-23.3c-2-7.5-5.3-14.4-10.2-20.7
		c0.8-1.4,1.5-2.9,2.4-4.2c5.1-8.3,11.7-15.4,18.4-22.5c7.7-8.2,15.3-16.3,21.3-25.9c1.9-3,4.2-5.7,6.5-8.3c1.3-1.5,2.9-2.9,4.6-3.9
		c2.8-1.8,5.3-1.2,6.9,1.7c1.1,2,1.9,4.2,2.4,6.4c0.7,3.3,1.3,6.6,1.6,9.9c0.3,3.9-0.6,7.7-1.7,11.4c-2.3,7.2-6,13.7-10.2,20
		c-6.9,10.3-14.9,19.7-23.2,28.8c-1.4,1.6-2.8,3.2-4.3,4.7c-4.8,4.7-6.8,10.6-7.6,17C237,373.1,236.9,375.7,236.7,378.8z"/>
	<path class="st0" d="M192.3,431.1c3.8-3.8,7.8-7,12-9.8c7.7-5.1,16.1-8,25.3-8.4c5.6-0.2,11.1,0.7,16.4,2.3
		c8.4,2.4,16.1,6.1,23.9,10c3.8,1.9,7.5,3.8,11.3,5.7c0.1,0.2,0.2,0.4,0.2,0.5c0.1,2.6,0.4,2.9,3.1,3.1c2.6,0.2,5.2,0.5,7.8,1.1
		c4.1,0.8,7.2,3.2,9.9,6.2c0.8,0.9,1.6,1.9,2.6,3c-1.2,0.7-2.3,1.5-3.5,2.2c-6.8,3.8-13.9,6.9-21.6,8.2c-8.6,1.5-17,0.7-25.4-1.4
		c-9.4-2.3-18.2-6.2-26.9-10.1c-6.4-2.9-12.8-5.7-19.4-8.4c-4.4-1.8-9-3.2-13.8-3.6C193.5,431.5,193.1,431.3,192.3,431.1z"/>
	<path class="st0" d="M132.5,475c2.5,12,4.8,23.7,7.5,35.3s5.7,23,8.7,34.8c-1.1,0.4-2.3,0.9-3.5,1.4c-1,0.4-1.6-0.3-2.3-0.9
		c-3.4-2.8-6.8-5.7-10.3-8.3c-3.5-2.6-7.4-4.8-11.7-6.1c-1.4-0.4-2.7-0.7-4.1-0.9c-2.6-0.2-5,0.6-7.2,2.2
		c-6.9,5.2-13.4,10.9-18,18.5c-0.6,0-1.1,0-1.6,0c-0.4,0-0.8-0.1-1.4-0.2c4.3-17.6,7.8-35.2,9.4-53.2c0.4-0.2,0.7-0.4,1-0.5
		c2.3-0.7,2.3-0.7,1.3-3.1c-0.1-0.2-0.2-0.5-0.2-0.7c-0.1-0.5-0.1-1-0.2-1.8C111.5,487.6,122.8,483,132.5,475z"/>
	<path class="st0" d="M512,506.3c-6.8-2.7-12.6-0.5-15.7,8.3c-6.1-0.7-8,1.5-8.8,9.8c-2.2,1-4.2,2.4-5.5,4.6
		c-0.2,0.4-0.8,0.8-1.2,0.9c-3.2,0.6-6.4,1-10,1.6c2.1-26.3,4.3-52.2,6.4-78.6c11.8,9.2,25.2,10.9,39.5,10.1c0,2.5,0.1,4.8,0,7
		c-0.3,5.5-0.6,10.9-1,16.3c-0.3,5.5-0.7,10.9-1.1,16.3c-0.1,0.6-0.4,1.1-0.7,1.6C513.4,504.9,512.7,505.5,512,506.3z"/>
	<path class="st0" d="M1.4,430.7c10.4,9.8,22.6,15.2,36.1,17.8c0.1,0.1,0.2,0.3,0.2,0.4c-1.4,3.1-1.4,3.1,2.4,4.2
		c1,14.2,2,28.4,3,42.8c-5.7-2-11-0.9-15.6,3c-7.2-5.2-13.4-3.9-18.6,2.5c-1.2-0.4-2.4-1-3.7-1.3c-1.2-0.3-2.4-0.5-3.8-0.7
		C1.4,476.7,1.4,454,1.4,430.7z"/>
	<path class="st0" d="M1.4,536.6c0-12.2,0-23.9,0-35.8c2.9-0.1,5.3,1,7.5,2.2c1.8-1.7,3.5-3.4,5.3-4.8c1.9-1.4,4.3-1.8,6.6-1.2
		c2.2,0.6,4.3,1.9,6.8,3.2c0.5-0.3,1.3-0.9,2.1-1.5c3.3-2.4,6.9-3,10.8-2.3c2.6,0.5,3,0.9,3.4,3.5c0.4,3,0.7,5.9,1.1,8.9
		c1.1,7.6,2.3,15.1,3.5,22.7c0.1,0.8,0.2,1.5,0.3,2.4C33,534.9,17.3,535.7,1.4,536.6z"/>
	<path class="st0" d="M155.8,641.6c-0.5-1.8-0.7-3-1.1-4.2c-2-5.8-8-9.2-13.7-7.2c-3,1.1-5.6,1-8.5-0.3c0-0.6-0.1-1.3,0-1.9
		c1.7-10.9-8.2-19.9-19.1-16.9c-0.4,0.1-0.8,0.1-1.4,0.2c-0.5-1.2-0.8-2.4-1.4-3.5c-0.5-1-0.4-1.8,0.2-2.7c2.7-4,6.2-7,10.5-9.1
		c3-1.5,6.1-2.7,9.2-3.9c4.4-1.7,8.8-3.3,12.6-6c2.8-2,5.3-4.3,8.2-6.7c5.7,6.3,10.6,13,9.6,22.3c-0.4,3.6-1.9,6.8-3.9,9.7
		c-1.5,2.2-3.2,4.2-4.9,6.2c-3,3.7-1.1,5.2,2.1,6c2.4,0.6,4.9,0.6,7.3,0.8c0.5,0.1,1,0.1,1.9,0.1c-1,4.1-1.7,8.1-3.2,11.8
		C159.7,638.3,157.6,639.7,155.8,641.6z"/>
	<path class="st0" d="M157.8,570.1c4.2-6.2,1.7-11.6-0.6-17.2c0.2-0.3,0.3-0.7,0.5-0.9c6.4-5.9,13.2-11.5,20.9-15.7
		c2.9-1.6,5.9-2.8,9.2-3.3c3.2-0.5,6.1,0.3,8,3c5.6,8,10.5,16.5,13.2,26.1c0.8,2.9,1.2,5.9,0.9,8.9c-0.4,3.8-2.5,6.4-6.3,7.3
		c-2.3,0.5-4.7,0.8-7.1,0.8c-8.1,0.1-16-1.4-23.7-3.6c-4.1-1.1-8-2.7-12-4.1C159.8,571.2,158.9,570.6,157.8,570.1z M160.5,561.2
		c0,0.2,0.1,0.5,0.1,0.7c0.7,0.2,1.4,0.5,2.2,0.6c9.3,1.2,18.4,0.9,27.3-2.3c3-1.1,5.9-2.5,8.2-4.7c1.1-1.1,2-2.4,2.8-3.8
		c0.8-1.5,0.4-2.2-1.2-2.9c-1.9-0.8-3.8-0.7-5.7-0.3c-10.5,2-20.4,5.9-30,10.7C162.9,559.8,161.7,560.5,160.5,561.2z"/>
	<path class="st0" d="M239.9,551.8c7.9-1.7,15.5-3.4,23-5.1c1.1-0.2,2.3-0.7,3-1.5c1-1.2,2.2-1.8,3.7-2.2c3.7-0.9,6.4-3.3,8.1-6.7
		c0.5-1.1,1-2,2.6-2.2c0.3,0.7,0.7,1.5,1,2.3c4.7,11.7,9.3,23.4,14,35.1c0.2,0.5,0.4,1,0.6,1.5c0.6,2.1-0.2,3.7-2.3,4.4
		c-1.9,0.6-3.9,1-5.9,1.4c-8.1,1.5-16.3,3-24.6,2.9c-7-0.1-13.8-1.2-20.7-2.4c-2.4-0.4-4.8-0.9-7.3-1.4c-3.6-0.8-4.5-2.5-3.2-6
		C234.6,565.2,237.3,558.5,239.9,551.8z M248.3,555.6c-0.3,1-0.6,1.7-0.8,2.4c-0.9,3.2-1.9,6.4-2.6,9.7c-0.6,2.5,0.1,3.7,2.6,4.2
		c3.5,0.8,7.1,1.4,10.6,1.9c7.4,1,14.7,0.2,21.9-1.9c2.6-0.7,3.2-1.8,2.5-4.5c-0.9-3.4-1.9-6.8-2.8-10.2c-0.2-0.6-0.5-1.1-0.7-1.6
		C268.7,555.6,258.6,555.6,248.3,555.6z"/>
	<path class="st0" d="M147,551.4c-1.2,2.8-2.4,5.2-3.6,7.9c-0.8-0.5-1.6-0.9-2.4-1.4c-8.9-5.5-18.2-10.4-28-14.2
		c-1.6-0.6-3.4-1-5-1.5c-1.5-0.5-2.9-0.2-4.4,0.5c-0.6,1.6,0.2,3,1.2,4.1c1.3,1.5,2.8,2.9,4.4,4.1c5.3,3.8,11.3,6.2,17.5,7.9
		c5.3,1.4,10.6,2.4,15.9,3.6c0,2.3,0,4.7,0,7.3c-1.4,0.1-2.6,0.3-3.8,0.3c-7.6-0.2-15.2-0.1-22.7-0.6c-5.8-0.3-11.6-1.2-17.1-3.2
		c-1.8-0.6-3.6-1.5-5.2-2.5c-2.5-1.8-3.5-4.3-2.8-7.4c0.6-2.7,1.9-5.1,3.5-7.3c4.6-6.3,10.3-11.3,16.6-15.8c2.7-1.9,5.7-1.9,8.6-0.9
		c3.2,1.1,6.2,2.5,9.1,4.2c6.6,3.9,12.2,9,17.6,14.3C146.7,550.9,146.8,551.2,147,551.4z"/>
	<path class="st0" d="M104.2,667c1.9-0.2,3.7-0.3,6.1-0.6c-0.8-1.2-1.3-1.9-1.8-2.6c-1.4-2.1-2.9-4.2-4.2-6.4c-0.6-1-1.1-2-1.5-3.1
		c-0.7-1.7-2-3.6-0.4-5.1c1.5-1.5,3.6-0.5,5.2,0.3c3.8,2,7.5,4.3,11.2,6.5c0.9,0.5,1.7,1.2,2.9,2c0.3-1,0.6-1.6,0.8-2.4
		c1-3,2-6,3.2-8.9c0.5-1.2,1.2-2.4,2-3.4c2.2-2.8,4.2-2.7,5.8,0.5c1,2,1.6,4.3,2.3,6.5c0.4,1.4,0.5,2.8,0.7,4.2
		c0.2,1.4,0.4,2.8,0.6,4.3c2.2-0.1,3.7-1.6,5.5-2.3c1.9-0.7,3.7-1.6,5.9-2.6c-1,4.9-1.7,9.4-1.2,14.1c0.5,4.6,1.9,8.9,4.1,13.4
		c-2.8,0.2-5.3,0.6-7.8,0.6c-10.9,0.2-21.8-0.5-32.6-2.4c-1.5-0.3-2-0.8-2.5-2.2C107.2,674,105.7,670.7,104.2,667z"/>
	<path class="st0" d="M449.2,580.8c-0.2,1.7-0.3,3.5-0.7,5.2c-0.7,2.6-1.9,3.3-4.5,2.7c-17.1-3.7-34.1-7.5-51.2-11.2
		c-7.5-1.6-15.1-3.3-22.7-4.9c-3.2-0.7-4.2-1.8-4.2-5.1c0-1.7,0.2-3.5,0.5-5.2c0.4-1.9,0.9-2.2,2.8-2c3.9,0.6,7.8,1.2,11.7,1.9
		c10.3,1.7,20.7,3.4,31,5.1c10.1,1.7,20.1,3.3,30.2,5c1.1,0.2,2.2,0.3,3.4,0.6c2.3,0.5,3.2,1.4,3.5,3.7c0.2,1.4,0,2.8,0,4.2
		C449.1,580.8,449.1,580.8,449.2,580.8z"/>
	<path class="st0" d="M585.9,311.7c2.7-1.6,5-3.6,8.2-4.6c0,3.8,0,7.3,0,10.8c0,0.5-0.3,1.2-0.7,1.6c-2.5,2.3-5,4.5-7.6,6.8
		c-1.3-1.3-2.6-2.7-4-4c-2.7-2.7-5.7-5-9.3-6.5c-8-3.4-17.2-1.6-21.7,8c-2.1,4.4-3.2,9.2-3.2,14.1c-0.1,2.3,0,4.6,0,6.9
		c-1.7,0-3.1,0.1-4.4,0c-4.1-0.2-8.1-0.2-12.1,0.6c-5.3,1-9.3,3.7-11.1,9c-0.1,0.3-0.3,0.6-0.5,0.9c-1.9-3.7-3.7-7.4-5.6-11.3
		c0.7-1.5,2.2-2.7,3.7-3.9c4.5-3.6,9.8-5.1,15.4-5.7c0.8-0.1,1.6-0.1,2.4-0.2c1.9-0.2,1.9-0.3,2.2-2.3c1.2-7.1,3.3-13.7,8-19.3
		c4.9-5.9,11.3-8.8,19-9c7.2-0.2,13.4,2.4,19.2,6.4C584.4,310.6,585.1,311.2,585.9,311.7z"/>
	<path class="st0" d="M200.4,635.6c-6-3.8-12.3-5.5-19.4-5.6c0.3-1.1,0.4-2,0.7-2.9c3-10,5.5-20.2,7.1-30.5c0.9-5.7,0.9-10.4-0.2-16
		c0.1-0.1,0.2-0.3,0.3-0.3c3.6,0.3,7.2-0.1,10.6,1.4c2.9,1.3,5.8,2.5,8.7,3.7c1.9,0.8,2.7,2.2,2.4,4.2c-0.5,4.2-0.9,8.4-1.7,12.5
		c-2.1,10.8-4.9,21.4-8,32C200.9,634.4,200.7,634.9,200.4,635.6z"/>
	<path class="st0" d="M52.1,533.8c-1.7-11.1-3.4-22.1-5.1-33.4c0.9,0.3,1.4,0.5,1.9,0.6c1.2-1.4,2.2-2.9,3.4-4.1
		c5.7-5.7,14-6,19.9-0.4c1.4,1.3,2.5,3,3.8,4.4c0.6,0.6,1.3,1.1,2.3,1.9c-2.3,10-4.7,20.5-7.1,31.1
		C64.9,533.8,58.8,533.8,52.1,533.8z"/>
	<path class="st0" d="M138.2,657.1c-0.9-3.9-1.6-7.5-2.6-11c-0.4-1.4-1.1-2.8-2-4c-1.6-2.3-4.2-2.5-6.1-0.5
		c-1.3,1.4-2.4,3.1-3.2,4.8c-1.3,3-2.3,6.2-3.5,9.6c-0.6-0.4-1.3-0.8-1.9-1.2c-3.1-1.9-6.1-3.8-9.3-5.5c-1.5-0.8-3.3-1.3-5-1.6
		c-2.8-0.6-4.5,1.1-4,3.9c0.3,1.7,0.9,3.4,1.7,5c1.2,2.3,2.6,4.4,4,6.5c0.5,0.7,0.9,1.4,1.6,2.5c-1.7,0.2-3.1,0.3-4.5,0.3
		c-0.4,0-1-0.4-1.3-0.8c-3.9-4.8-8.7-8.5-14.3-10.9c0.6-4.1,3.7-7,8.2-7.8c2.4-0.5,4.9-0.8,7.3-0.2c0.8,0.2,1.7,0.1,2.9,0.2
		c0.1-1.1,0.2-2,0.2-2.9c0.1-3,0.7-5.9,2-8.7c2-4.2,7.7-7.8,13.9-4.5c2.6,1.4,4.7,3.4,6.6,5.7c0.6,0.7,1.2,1.5,2,2.4
		c0.8-0.7,1.3-1.2,1.9-1.6c2.3-1.6,4.5-3.4,7-4.7c6-2.9,12.9,0.6,14.3,7.9c0.4,2,0.2,3.7-1.1,5.5c-1.3,1.6-2.2,3.6-3.1,5.5
		c-0.5,1.1-1.2,1.8-2.3,2.3C144.4,654.3,141.3,655.8,138.2,657.1z"/>
	<path class="st0" d="M514.7,618.3c2.6-2.6,5.5-2.8,8.2-3.3c2.6-0.5,5.4-0.6,8.4-0.9c-0.4-0.7-0.6-1.3-0.9-1.7
		c-1.5-2.3-3.1-4.5-4.5-6.8c-0.9-1.5-2.2-3.4-0.8-4.8c1.4-1.5,3.4-0.1,4.9,0.6c2.7,1.3,5.2,2.9,7.8,4.5c0.7,0.4,1.5,0.9,2.5,1.6
		c0.4-1.1,0.6-1.9,0.9-2.6c0.6-1.9,1.2-3.9,1.9-5.8c0.4-1.1,1-2.1,1.6-3c1.7-2.5,3.3-2.4,4.7,0.3c1.5,2.8,2,5.8,2.4,8.9
		c0.1,0.9,0.3,1.8,0.6,2.9c2.7-1.3,5-2.6,7.4-3.6c2-0.8,4.2-1.5,6.3-1.9c2.4-0.4,3.3,0.9,2.1,2.9c-1.7,2.7-3.7,5.1-5.6,7.6
		c-0.6,0.7-1.2,1.4-2.2,2.5c3.2,0.7,5.9,1.2,8.6,2c2.6,0.8,5.3,1.3,7.5,3.8c-1,0.6-1.9,1.1-2.8,1.5c-4.1,1.6-8.3,2.2-12.7,2.5
		c-9.2,0.7-18.5,0.4-27.6-1.1c-4.4-0.7-8.7-2-13-3.3C518.4,620.7,516.8,619.5,514.7,618.3z"/>
	<path class="st0" d="M85.5,550.3c-5.5-0.8-10.8-2.2-16.1-4.3c2.3-9.6,4.8-19.1,6.9-28.7c2.1-9.5,4-19.1,6-28.7
		c2,0.9,3.9,1.8,5.6,2.5c-0.2,1.7-0.5,3.3-0.3,4.9c0.1,0.5,1.2,1.2,1.9,1.3c1.6,0.2,3.3,0.1,4.9,0.1C95.6,502,89.6,536.1,85.5,550.3
		z"/>
	<path class="st0" d="M574,618c-3.9-1.1-7.5-2-11.3-3.1c1.1-1.2,2-2.2,2.8-3.3c1.3-1.8,2.5-3.6,3.7-5.5c0.7-1.2,1-2.6,0.1-3.7
		c-1-1.2-2.4-1.5-3.8-1c-2.9,1-5.8,2-8.7,3.1c-1.1,0.4-2.2,1.1-3.5,1.7c-0.2-1.1-0.3-1.8-0.5-2.5c-0.6-2.3-1.1-4.6-1.9-6.9
		c-0.3-1-1-1.9-1.6-2.7c-1.3-1.5-3.1-1.7-4.4-0.2c-1.3,1.4-2.3,3.1-3.1,4.8c-0.9,2.1-1.5,4.3-2.3,6.7c-1.2-0.7-2.1-1.5-3.2-2.1
		c-2.6-1.3-5.1-2.8-7.8-3.9c-1.5-0.6-3.2-1-4.5,0.3c-1.4,1.3-0.8,3-0.2,4.4c0.9,2,2.1,3.9,3.2,5.8c0.6,1,1.3,1.9,2.1,3
		c-3.9,0.6-7.6,1.2-11.5,1.7c-1.8-1.6-3.2-3.7-4-6.2c-1.3-4.1,0.7-8,4.7-9.6c2.5-1,5.2-0.9,7.8-0.8c0.5,0,1,0.1,1.8,0.1
		c0.2-1.6,0.2-3.1,0.5-4.5c0.3-1.6,0.6-3.3,1.3-4.8c1.6-3.5,6.1-6.1,10.7-3.4c1.8,1,3.3,2.6,4.9,4c0.7,0.6,1.2,1.3,1.9,2.1
		c0.7-0.6,1.2-1.1,1.8-1.5c1.9-1.3,3.7-2.8,5.7-3.7c4.4-1.9,8.9,0.3,10.3,4.9c0.6,2,0.5,4.2,0.7,6.2c0.1,0.8-0.1,1.7-0.2,2.9
		c1.3,0.1,2.4,0,3.5,0.2c2,0.4,4.2,0.7,6.1,1.6c4,1.9,5.4,6.4,3.4,10.3C577.4,614.8,575.9,616.7,574,618z"/>
	<path class="st0" d="M85.2,551.6c-0.5,2.1-1.1,4-1.5,6c-0.2,1-0.9,1.3-1.7,1.3c-4.7-0.1-7.1,2.5-8.2,6.7
		c-1.5,5.8-2.9,11.6-4.3,17.4c-0.2,0.7-0.3,1.4-0.5,2.2c-1.7,0.3-3.3,0.6-4.8,0.8c-1.8-3.3-9.6-37.9-11.4-50.4
		c5.9-0.8,11.7-0.4,17.8-0.5c-0.3,4-2,7.6-2.6,11.5C73.4,549.2,79.2,550.3,85.2,551.6z"/>
	<path class="st0" d="M173.3,577.2c4.3,0.8,8.2,1.6,12.2,2.3c1.1,0.2,1.8,0.8,2,1.8c0.3,1.8,0.7,3.6,0.8,5.5
		c0.3,6.8-0.9,13.3-2.4,19.9c-1.6,7.2-3.7,14.3-5.6,21.4c-0.2,0.7-0.5,1.3-0.7,2.1c-6.2,0.3-11.7,2.3-17.3,5.7
		c1-4.2,1.9-7.9,2.8-11.5c0.8-0.3,1.5-0.6,2.3-0.9c1.5-0.6,2.4-1.7,2.9-3.2c2.6-8,4.2-16.2,3.6-24.6c-0.2-2.4-0.8-4.9-1.1-7.3
		c-0.1-0.8-0.4-1.6-0.3-2.3C172.4,583.2,172.9,580.3,173.3,577.2z"/>
	<path class="st0" d="M43.6,453c1.6-0.1,2.7-0.2,3.9-0.2c0.2,0.6,0.5,1.1,0.6,1.7c1.2,6.6,4.6,11.9,9.1,16.7
		c5.2,5.6,11.5,9.9,18.1,13.6c1.8,1,3.7,2,5.7,3.1c-0.6,3.4-1.2,6.8-2,10.1c-0.2,0.8-0.8,1.6-1.5,2.7c-3.7-5.4-8-9.2-14.3-9.6
		c-6.3-0.4-10.9,2.9-14.4,7.9c-1.5-0.3-2-1.3-2.1-2.6c-0.9-11.5-1.9-23-2.7-34.5C43.8,459.2,43.7,456.3,43.6,453z"/>
	<path class="st0" d="M181.8,432.1c0.1-5.3,1.2-10.3,3.3-15.1c4.9-10.8,12.9-18.8,22.9-25c9.8-6.1,20.5-9.5,32.1-10.3
		c11.5-0.8,22.4,1.5,32.6,6.8c0.5,0.3,1,0.6,1.4,1.3c-0.8-0.2-1.6-0.3-2.4-0.4c-17.8-3.8-35-1.6-51.6,5.6
		c-10,4.4-18.8,10.4-26.1,18.5c-4.5,5-8,10.5-10.3,16.8C183.5,431.2,183.4,432.3,181.8,432.1z"/>
	<path class="st0" d="M94.9,593.2c5-5.2,10.6-8.3,17.1-9.9c3.8-1,7.8-1.4,11.7-2c7.3-1.1,13.6-4.1,19.1-9c0.3-0.3,0.7-0.5,1.2-0.9
		c3.4,1.5,6.9,1.6,10.8,1c-1.3,1.7-2.5,3.5-3.8,5.2c-3.9,4.8-8.8,8.4-14.4,10.9c-3.2,1.4-6.6,2.6-9.8,3.8
		c-5.4,2.1-10.4,4.8-14.4,9.1c-1,1.1-1.9,2.3-2.9,3.5C105.9,599.4,101.2,595.5,94.9,593.2z"/>
	<path class="st0" d="M96.4,566.7c-3.4,8.3-4.8,16.8-6.4,25.4c-5.1-0.4-9.8,0.1-14.4,2.2c-1.7-1.5-3.5-3-5.1-4.6
		c-0.4-0.4-0.7-1.3-0.6-1.9c1.5-8.1,2.9-16.3,6-24c0.7-1.8,1.9-3,3.8-3.3c3.2-0.3,6.5-0.6,9.8-0.8C90.6,563.3,93.2,565.2,96.4,566.7
		z"/>
	<path class="st0" d="M152.3,578c1.5-2.1,3.1-4.3,4.7-6.7c2,0.8,4.1,1.6,6,2.6c0.7,0.3,1.2,1,1.7,1.6c4.2,5.4,6.6,11.5,7.5,18.3
		c1.2,9-0.7,17.5-3.4,25.9c-0.3,1-1.2,2.1-2.1,2.5c-4.5,1.8-9.1,1.6-13.6-0.3c-0.4-0.2-0.8-0.7-1.4-1.2c0.7-1.1,1.4-2.1,2.1-3
		c1.7-2.3,3.6-4.6,5.2-7c4.7-7.6,4.6-15.4,0.1-23C157.2,584.4,154.7,581.4,152.3,578z"/>
	<path class="st0" d="M264.7,539.3c0,3.4-0.6,4.1-3.9,4.8c-6.1,1.3-12.2,2.7-18.3,3.9c-1.7,0.3-3.5,0.4-5.2,0.3c-3-0.2-5-2-6-4.8
		c-1-2.9-0.1-5.2,1.9-7.2c0.7-0.7,1.4-1.3,2.3-1.8c6.2-3.9,12.4-7.8,18.6-11.6c2.8-1.7,4-1.5,5.9,1.3
		C263.2,528.7,264.5,533.8,264.7,539.3z"/>
	<path class="st0" d="M267.7,584.9c5.8-0.8,11.5-1.5,17.3-2.3c0,1,0,2,0,3.2c1.1,0,2.1,0,3,0c3.2,0,6.3,0.5,9.3,1.6
		c4.6,1.8,6.7,5.1,6.8,10c0,2.4-1.1,4-2.9,5.3c-2.9,2-6.3,2.2-9.6,2c-6.8-0.5-13.1-2.5-18.8-6.2c-1-0.6-1.9-1.3-2.7-2.1
		c-1.7-1.6-2.7-3.4-2.5-5.8C267.6,588.7,267.6,586.8,267.7,584.9z"/>
	<path class="st0" d="M230,568.2c-6.2,0.3-12.3,0.6-18.6,0.9c-0.9-9.5-5-17.7-9.7-26.3c2.9,0.3,5.4,0.5,7.9,0.9
		c5.7,0.8,11.3,1.7,16.9,2.5c1.7,0.2,3,0.8,4.3,2.1c1.5,1.5,3.6,2.4,5.6,3.7C234.4,557.2,232.2,562.7,230,568.2z"/>
	<path class="st0" d="M243.8,585.8c0-1.1,0-2,0-2.9c5.8,0.7,11.4,1.4,17.2,2.1c0.2,2.2,0.6,4.4,0.5,6.6c-0.1,1.2-0.8,2.5-1.5,3.5
		c-0.8,1.1-1.9,2.1-3.1,2.8c-6.6,4.4-13.9,6.8-21.9,6.7c-1.5,0-3-0.3-4.4-0.7c-6.5-2.1-8.1-9.3-3-14c1.4-1.3,3.2-2.3,5-2.8
		c2.7-0.7,5.5-0.9,8.3-1.3C241.8,585.7,242.7,585.8,243.8,585.8z"/>
	<path class="st0" d="M549.5,397.3c0-3.6,0-6.9,0-10.2c7.2,0.7,14.5,1.7,21.8,2.1c7.4,0.4,14.8,0.1,22.5,0.1
		c0.4,3.7,0.3,7.1,0.2,10.7C578.9,400.3,564.1,400.2,549.5,397.3z"/>
	<path class="st0" d="M446,616.9c-4.7-1.6-8.9-3-13.1-4.6c-1.7-0.6-2.6-2.2-2.9-3.9c-0.4-2.8-0.8-5.6-1-8.4c-0.3-3.5-0.5-7-0.7-10.5
		c0-0.4,0-0.8,0-1.4c6.9,0.7,13.2,3.6,20.4,3.4c0.2,1.5,0.4,3.2,0.6,4.8c0.3,2.8,0.7,5.6,1,8.4c0.2,1.6-0.4,2.9-1.7,3.6
		c-2.8,1.5-3.8,3.5-2.8,6.6C445.9,615.3,445.9,615.8,446,616.9z"/>
	<path class="st0" d="M518,429.4c-0.2,7.1-0.3,13.7-0.5,20.2c-12.2,1.7-28.9-2.9-34.9-13.4C494.6,435.3,506.2,433.6,518,429.4z"/>
	<path class="st0" d="M284.6,535.3c0.4,0,0.9-0.1,1.4,0c7.4,1.9,14.9,3.7,22.3,5.7c2.5,0.6,3.1,1.5,2.8,4c-1,6.7-4.3,12-9.4,16.3
		c-0.9,0.7-1.9,1-2.9,0.3c-1.6-1-3.3-2.1-4.8-3.2c-0.4-0.3-0.7-0.8-0.9-1.3c-2.8-7.1-5.6-14.2-8.4-21.4
		C284.4,535.7,284.5,535.6,284.6,535.3z"/>
	<path class="st0" d="M456.6,601.2c2-2,3.1-2.2,5.2-0.7c2.3,1.6,4.4,3.5,7.2,4.2c1,0.2,1.8,1.4,2.4,2.3c1.9,2.8,3.7,5.6,5.4,8.4
		c1.2,1.9,1.1,2.7-0.3,4.5c-1,1.2-2.2,2.4-3,3.7c-1.7,2.8-4.2,2.6-7.2,2c2-1.2,3.7-2.2,5.2-3.3c4.7-3.5,5-5,1.6-9.7
		c-1-1.4-2-2.7-3-4c-0.3-0.4-0.9-0.7-1.3-1c-1,0.7-0.7,1.3-0.3,1.9c1,1.4,2.1,2.8,3.2,4.3c0.5,0.7,0.9,1.5,1.4,2.2
		c0.7,1.2,0.5,2.2-0.5,3.1c-2.2,1.9-4.3,3.9-7.3,4.6c-1,0.3-2,0.7-3,1c-0.8,0.2-1.7,0.5-2.6,0.4c-3.7-0.1-6.7-2-9.8-3.5
		c-0.5-0.2-1-0.9-1.1-1.4c-0.6-2.5-1.2-5-1.6-7.5c-0.2-1.5,0.6-2.1,2.9-2.8c-0.1,0.8-0.3,1.7-0.1,2.4c0.2,0.7,0.9,1.3,1.5,1.8
		c1.1,0.9,2.2,1.7,3.5,2.4c2.8,1.5,5.2,0.7,7.3-2.1c-0.7-0.8-1.6-0.7-2.3-0.1c-2,1.9-3.9,1-5.7-0.3c-0.8-0.6-1.6-1.3-2.4-2
		c1.1-2.1,1.1-2.1-0.7-4.4c1.2-1.4,2.4-2.9,3.6-4.3l0,0c-0.1,1.4-2.1,2.4-0.7,4.1c1.3,0.6,3,0.3,3.8,2.3c1,2.4,3.8,2.2,5.4-0.3
		c-1.2-1.1-2.3,0.4-3.5,0c-0.8-1.6-1.5-3.4-3.9-3.6c0.7-1.1,1.3-2,1.8-2.9c0.7-1.3,0.5-1.5-1.2-1.8L456.6,601.2z M471.4,615.6
		c-0.3-2-1.6-1.9-2.5-2.2c-2.3-0.8-2.5-0.7-3.8,1.5c-0.5,0.9-1.1,2-1.9,2.4c-1.6,0.8-1.8,2.3-2.2,3.7c-0.1,0.3,0.5,0.7,1.1,1.7
		c0.6-2.4,1.9-3.6,3.4-4.6c0.4-0.3,0.6-0.9,0.8-1.3c0.4-0.6,0.7-1.1,1.1-1.6C468.7,615.2,469.9,615.3,471.4,615.6z"/>
	<path class="st0" d="M198.5,434.4c-0.9,1.4-1.7,2.7-2.7,3.9c-0.3,0.4-1.1,0.3-1.7,0.4c-12.7,1.9-22,10.6-24.7,23.2
		c-1.1,5.3-0.7,10.5,1.1,15.6c0.3,0.7,0.5,1.5,0.8,2.4c-7.9-5.1-10.5-21.1-5.2-31.6C172.4,435.8,184.3,430.7,198.5,434.4z"/>
	<path class="st0" d="M541.4,417.2c-0.3-1.6-0.4-2.9,0.7-4.2c3.2-4,5.5-8.4,6.7-13.4c0.1-0.2,0.2-0.5,0.3-0.6
		c8.9,0.8,17.7,1.7,26.7,2.6c-0.2,0.5-0.4,1.1-0.8,1.6c-3.1,4.7-7.4,8-12.5,10.3c-6.4,2.8-13.2,3.7-20.1,3.9
		C542.2,417.4,541.9,417.3,541.4,417.2z"/>
	<path class="st0" d="M194.1,440.8c-4.2,7-8,13.8-11,21c-3.1,7.2-5.3,14.7-6.7,22.5c-5.2-4.5-7.2-16.8-4.4-25.4
		C175.3,448.8,185,441.5,194.1,440.8z"/>
	<path class="st0" d="M375.8,591.7c-6-1.2-11.8-2.3-17.7-3.5c1.2-6.7,0.3-12.9-2.5-19.3c2.9,0.2,5.5,0.3,8,0.5
		c0.2,0.5,0.5,0.9,0.6,1.3c0.8,2.7,2.9,3.9,5.4,4.4c2.8,0.6,5.5,1.2,8.6,1.9C377.4,581.9,376.6,586.6,375.8,591.7z"/>
	<path class="st0" d="M91.4,592c1.4-8.4,2.7-16.7,6.1-24.5c5.4,1.1,10.6,2.1,16,3.2c-1,3.7-2.1,7.3-3.1,10.9c-0.3,1.1-1.2,1.2-2,1.5
		c-4.1,1.5-7.9,3.5-11.3,6.3c-1,0.8-1.9,1.6-2.7,2.5C93.6,592.8,92.7,592.9,91.4,592z"/>
	<path class="st0" d="M339.3,573.1c1.2,0.2,1.7,0.3,2.2,0.4c-0.1,1.5-1.3,1.5-2,2c-2.4,1.7-3.6,4.1-3.4,7c0.2,3.2,1.9,5.5,4.8,6.7
		c1.5,0.6,3,0.9,4.6,0.4c0.7-0.2,1.5-0.4,2.5-0.6c-0.3,1-0.6,1.7-0.9,2.6c-1.4-0.2-2.6-0.3-3.9-0.6c-1.2-0.2-2.3-0.1-3.2,0.8
		c-0.8,0.9-1.6,0.9-2.6,0.5c-0.8-0.3-1.7-0.5-2.5-0.7c-2.4-0.7-3.6-2.4-3.9-4.8c-0.7-5.5-0.1-10.7,2.4-15.7c1.3-2.6,2.2-3.3,4.9-2.7
		c3.9,0.8,7.8,0.8,11.8,0.4c3.1-0.4,3.7,0.2,4.9,3.1c1.7,4.2,2.1,8.5,1.9,12.9c-0.1,1-0.3,1.9-0.5,3c-2-0.3-3.9-0.7-6-1
		c0.1-0.3,0.2-0.6,0.3-0.9c1.9-3.1,1-7.7-2-10c-0.7-0.6-1.1-1.5-1.6-2.4c-1.1-2.2-2.8-3.3-5.6-3c0.3,0.5,0.4,0.8,0.6,1.1
		C341.4,572,340.6,572.4,339.3,573.1z"/>
	<path class="st0" d="M169.1,345.9c5.6,3.9,10.8,7.6,16,11.3c-2.4,4.7-16.3,17.2-23,20.3C166.4,367.3,168.9,357.1,169.1,345.9z"/>
	<path class="st0" d="M467.5,574.2c0.5,1,0.7,1.4,0.9,1.9c2.7,7.3,5.5,14.5,8.2,21.7c0.4,1.1,0.6,2.2,0.7,3.3
		c0.1,1.8-0.8,2.7-2.6,2.5c-3.4-0.3-6.8-0.7-9.6-3.1c-0.3-0.3-0.7-0.5-1.1-0.8c-2.1-1.6-4.2-3.1-7.2-1.5c-0.3-2.7-0.7-5-1-7.7
		c1.3-0.2,2.5-0.6,3.7-0.5c3.8,0.3,6.4-1.9,7-6.6c0.3-2.4,0.4-4.7,0.6-7.1C467.2,575.9,467.3,575.3,467.5,574.2z"/>
	<path class="st0" d="M152.5,526.2c7.2,0.3,10.9,4.5,13.1,11.3c-6.1-0.5-11.9-0.9-17.9-1.4c-1.9-7.6-3.8-15.1-5.7-22.6
		C147.6,511.6,152.5,517.5,152.5,526.2z"/>
	<path class="st0" d="M158.9,562.4c0,5.2-2,7.7-6.3,8.8c-2.1,0.5-4.2,0.4-6.3-0.2c-1.9-0.6-2.7-1.4-2.7-3.4c0-5.8,1.5-11.2,5.1-15.8
		c2.1-2.7,4.2-2.6,6.2,0.2C157.3,555.3,158.5,559.1,158.9,562.4z"/>
	<path class="st0" d="M1.3,618.9c0-5.9,0-11.8,0-17.8c14.1-3.8,28.4-7,42.9-10c-1.8,2.4-3.4,4.6-5.1,7c-1.4-0.2-3.1-0.5-4.7-0.7
		c-10.2-1.1-18.7,2.4-25.4,10.1c-2.5,2.9-4.2,6.3-5.3,10C3.4,618.7,3,619.7,1.3,618.9z"/>
	<path class="st0" d="M380.4,577.5c4.7,1,9,2,13.2,2.9c0.2,0.4,0.4,0.6,0.3,0.7c-0.7,4.8-1.3,9.6-2.1,14.3c-0.3,2-1.2,2.5-3,2
		c-3.4-1-7-1.8-9.6-4.6c-0.8-0.8-1.1-1.5-1-2.5C378.9,586.2,379.6,582.1,380.4,577.5z"/>
	<path class="st0" d="M364.4,606.3c-4.7-1-9.7-2.1-14.7-3.2c-2.8-0.6-5.5-1.3-8.2-1.8c-1.3-0.2-1.8-1-2-2.1c-0.2-2,0.3-3.8,1.4-5.5
		c0.7-1.1,1.7-1,2.8-0.8c4.8,1,9.7,1.9,14.5,2.8c2.6,0.5,5.3,1,7.7,1.5C365.4,600.3,364.9,603.2,364.4,606.3z"/>
	<path class="st0" d="M146,415.4c-0.8,6.8-5,10.5-10.1,13.9c-0.6-0.4-1.2-0.8-1.7-1.2c-9.3-6.8-19.4-8.3-30.2-4.2
		c-0.7,0.2-1.3,0.5-2,0.8c-3.5,1.7-6.6,0.7-9.8-1.4c0.2-0.8,0.4-1.5,0.7-2.4C110.8,422.6,128.3,420.4,146,415.4z"/>
	<path class="st0" d="M111.7,581.7c0.3-1.4,0.5-2.4,0.8-3.5c0.7-2.5,1.6-5,2.3-7.3c9.1,0.2,17.8,0.3,26.8,0.5
		c-0.5,0.5-1,1.1-1.5,1.5c-5.1,3.9-10.7,6.4-17,7.2C119.4,580.6,115.8,581.2,111.7,581.7z"/>
	<path class="st0" d="M1.4,358.9c4.2,6.1,8,11.8,11.8,17.3c-3.9,4.7-7.7,9.3-11.6,14.1c0.2,0,0.1,0,0,0c-0.1,0-0.2-0.1-0.2-0.1
		c0-9.8-0.1-19.6-0.1-29.4C1.2,360.3,1.3,359.8,1.4,358.9z"/>
	<path class="st0" d="M156.4,551.3c-3.7-3.3-4.5-3.4-8.5-0.9c-0.7-0.8-1.5-1.6-2.3-2.5c1.6-0.7,2.9-1.2,4.5-1.9
		c0.2-2.9-1.6-5.3-1.7-8.1c2.5-0.6,16.1,0.4,22.5,1.6C165.9,543.4,161.1,547.3,156.4,551.3z"/>
	<path class="st0" d="M281.6,491.6c-2.3,2.1-2.6,3.8-1.2,5.2c1.1,1,3.1,0.9,4.1-0.1c1.4-1.5,1-2.9-1.4-5.2c1,0.2,1.6,0.2,2.3,0.4
		c2.3,0.8,2.7,1.7,1.6,4c-1.5,2.9-3.5,5.5-6,7.6c-1.4,1.1-2.9,1.7-4.6,1.5c-3.7-0.4-7-1.6-10.1-3.5c-1.7-1.1-1.8-1.9-0.6-3.5
		c0.6-0.8,1.3-1.5,2-2.1C270.6,493.5,278,491,281.6,491.6z"/>
	<path class="st0" d="M30.9,353c-7.3-10.1-12.3-21.1-15.4-33.4C25.8,325,31.8,338.7,30.9,353z"/>
	<path class="st0" d="M260.5,519.6c2.4-2.5,3.8-2.1,5.7,1.5c6,0.8,9.6,4.4,9.7,9.6c0.1,4.7-3.2,8.6-8.1,9.5
		C267.9,532.4,265.5,525.5,260.5,519.6z"/>
	<path class="st0" d="M315.8,561.2c7.4-0.3,9-7,4.8-11.1c1.4-3.3,2.9-6.7,4.3-10.1c0.2,0,0.4,0,0.6,0c0.1,2,0.4,4,2.1,5.3
		c1.8,1.4,3.7,1.2,6.3,0.1c-0.6,1.2-0.9,1.9-1.4,2.4c-5,6.7-10,13.4-15,20.1c-0.3,0.4-0.7,0.8-1,1.2c-0.7,0.7-1.5,1.1-2.4,0.5
		c-0.8-0.5-1.2-1.4-0.8-2.3C314.1,565.4,315,563.4,315.8,561.2z"/>
	<path class="st0" d="M279.4,513.6c2.7,0,5,0,7.5,0c-1.1,5.5-2.2,10.6-9.2,11.5c-1.6-2.8-3.9-5.2-7.5-6.4c2.5-1.5,4.7-2.7,7-4.1
		c0.3,1.3,0.5,2.5,0.8,3.8c0.1,0.5,0.1,1.1,0.3,1.5c0.2,0.3,0.8,0.6,1.2,0.6c0.2,0,0.6-0.6,0.6-1c0-0.9-0.2-1.7-0.3-2.6
		C279.8,515.9,279.6,514.8,279.4,513.6z"/>
	<path class="st0" d="M375.3,593.4c-0.6,2-1.2,3.7-1.8,5.6c-0.5-0.3-1-0.4-1.4-0.8c-1.7-1.7-3.8-2.4-6.1-2.8
		c-5.6-1-11.2-2.2-16.8-3.3c0.6-2.9,1.1-3.4,3.3-3C360.1,590.5,367.7,591.9,375.3,593.4z"/>
	<path class="st0" d="M313.6,560.6c-0.2,0.6-0.4,1.3-0.7,1.9c-1.1,2.8-1.9,3.2-4.8,2.5c-1.2-0.3-2.4-0.9-4.1-1.5
		c5.1-4.8,8.4-10.2,10-16.9c1.2,0.8,2,1.4,3,2c-0.3,0.5-0.6,0.7-0.8,1.1c-0.8,1.3-0.6,2.1,0.7,2.7c0.4,0.2,0.9,0.2,1.2,0.4
		c1.3,0.7,1.7,2.4,1,3.7c-0.8,1.4-2.5,1.7-3.8,0.7c-0.4-0.3-0.7-0.9-1.2-1c-0.7-0.2-1.6-0.3-2.1,0.1c-0.8,0.4-0.8,1.3-0.3,2.1
		C312.3,559,313,559.8,313.6,560.6z"/>
	<path class="st0" d="M334.8,534.7c0.6-1.1,1-1.9,1.7-3.1c-1.2,0.8-2,1.3-3.2,2.2c-0.2-1.6-0.3-2.7-0.4-4c-0.3,0.6-0.6,1.1-1,1.7
		c-1.1-3.9-0.1-6.2,3.4-8.7c1.3,0.1,2.4,0.3,3.5,0.3c1,0.1,2,0.1,3,0.1c0.5,3.4,0.6,6.3-0.9,9.1
		C338.8,532.5,337.6,535.2,334.8,534.7z"/>
	<path class="st0" d="M363.7,568.3c-4.2-1-8.2,0.5-12-1.6c0-1.4,0-2.8,0-4.3c4.7-1.6,9.5-3.2,14.1-4.7
		C363.4,560.8,363.8,564.3,363.7,568.3z"/>
	<path class="st0" d="M142.3,560.7c-9.4-1.1-17.9-3.3-25.9-7.4c3.6-0.4,7.2-0.9,10.8-1.2c0.6-0.1,1.2,0.1,1.7,0.4
		c4.2,2.4,8.4,4.8,12.5,7.3C141.7,559.9,141.8,560.1,142.3,560.7z"/>
	<path class="st0" d="M104.9,543.5c1,0,2.1-0.2,3.1,0c6,1.5,11.5,4.2,17.2,7c-0.4,0.3-0.6,0.6-0.8,0.6c-3.2,0.3-6.5,0.6-9.7,0.8
		c-1,0-2.1-0.3-2.9-0.9c-1.9-1.3-3.7-2.7-5.3-4.3c-0.8-0.7-1.2-1.8-1.9-2.7C104.7,543.9,104.8,543.7,104.9,543.5z"/>
	<path class="st0" d="M431,409.2c-5.5,2-10.8,3.9-16.3,5.9c0.2-2.7,1.1-4.7,3.6-5.7c2.8-1.2,5.7-2.4,8.4-3.8c2.3-1.1,3.4-0.9,4.1,2
		C430.9,408,430.9,408.6,431,409.2z"/>
	<path class="st0" d="M114,701.4c-0.3,2.6-1.7,5.1-4.4,6.6c-2.2,1.3-4.3,0.1-4.1-2.4c0.2-3.3,1.8-5.9,4.7-7.5
		C112.3,697,114,698.2,114,701.4z"/>
	<path class="st0" d="M343.9,575.7c3.6,0.1,6.3,2.9,6.2,6.5c-0.1,3.7-2.8,6.3-6.4,6.2c-3.5-0.1-6.4-3-6.4-6.5
		C337.5,578.4,340.4,575.7,343.9,575.7z M338.9,581.9c0.1,0.2,0.1,1,0.5,1.5c1.1,1.6,2.7,2.9,4.5,2.8c1.9,0,3.7-1.2,4.7-3
		c0.7-1.1,0.6-2.4-0.1-3.5c-0.7-1.2-1.8-1.5-3.2-1.4c-0.9,0.1-1.9,0.1-2.8,0C340.3,578.1,338.9,579.2,338.9,581.9z"/>
	<path class="st0" d="M158.9,693.5c0,1.8-0.8,2.6-2.6,2.5c-3.1-0.1-6.8-4.7-6.4-7.7c0.2-1.6,1.4-2.3,3.1-1.9
		C155.8,686.9,158.9,690.7,158.9,693.5z"/>
	<path class="st0" d="M348.3,563.2c1-0.1,1.8,0.1,1.7,1.4c0,0.5,0,1.1,0,1.6c0.1,1.3-0.5,2-1.8,2.1c-3.2,0.3-6.3,0.3-9.5-0.6
		c0-1.5,0-2.9,0-4.5C342.1,563.5,345.2,564.1,348.3,563.2L348.3,563.2z"/>
	<path class="st0" d="M331.1,535.2c1.6,0.8,2.9,1.5,4.4,2.3c-0.7,1.6-1.3,3.2-2.1,4.7c-0.9,1.8-2.7,2.5-4.1,1.6
		c-1.4-0.8-1.9-2.8-1-4.4c0.2-0.3,0.4-0.6,0.6-0.9C329.5,537.5,330.3,536.4,331.1,535.2z"/>
	<path class="st0" d="M307.6,442.6c-1.1-1.6-2.1-3-3.1-4.5c3.5-0.8,6.9-1.5,10.2-2.2C314.1,437.5,311.6,439.9,307.6,442.6z"/>
	<path class="st0" d="M371.5,600.2c-0.2,1.8-0.4,3.2-0.6,4.9c-1,0.4-2.3,0.9-3.8,1.4c-1.4-3.2-0.3-5.8,1.2-8.5
		C369.8,598.4,370.6,599.5,371.5,600.2z"/>
	<path class="st0" d="M380.6,596.4c-0.2,1.8-0.5,3.2-0.6,4.7c-0.3,0.2-0.6,0.4-0.9,0.5c-0.9,0.2-1.7,1-2.7,0.2
		c-1.1-0.9-1.1-2-0.8-3.1c0.4-1.6,0.6-3.3,2.1-4.6C378.8,594.9,379.7,595.6,380.6,596.4z"/>
	<path class="st0" d="M88.9,495.7c2.1-3.3,8.1-3.4,10.6-0.4C96.4,496.6,92.2,496.8,88.9,495.7z"/>
	<path class="st0" d="M47.6,448.8c0,1.1,0,1.7,0,2.5c-3.2,0.8-6.2,0.7-9.2,0c0.6-2.2,0.8-2.4,2.7-2.5
		C43.1,448.7,45.2,448.8,47.6,448.8z"/>
	<path class="st0" d="M171.7,576.6c0.1,2.3,0.1,4.3-0.6,6.6c-1.6-2.8-3.1-5.3-4.8-8.3C168.3,575.6,170,576.1,171.7,576.6z"/>
	<path class="st0" d="M347.1,560.8c-2.1,0-3.7,0-5.6,0c0.4-1.2,0.7-2.2,1-3.2c0.7-0.2,1.5-0.1,1.9-0.5c0.5-0.4,0.6-1.2,0.9-2.1
		C346.4,557,346.5,558.9,347.1,560.8z"/>
	<path class="st0" d="M89.3,558.4c-0.8,0-1.5,0-2.6,0c0.6-2.2,1.1-4.2,1.6-6.4c0.9,0.1,1.5,0.2,2.4,0.3
		C90.2,554.4,89.8,556.2,89.3,558.4z"/>
	<path class="st0" d="M101.2,700.6c-1.6-0.6-2-1.7-1.7-3c0.3-1.7,1.4-2.8,3-3.3c1.3-0.4,2.4-0.2,3,1.3
		C101.6,696.7,101.2,697.2,101.2,700.6z"/>
	<path class="st0" d="M104.7,702.5c-0.6-0.9-1.2-1.5-1.6-2.3c-0.3-0.6-0.6-1.5-0.3-1.8c0.4-0.5,1.2-1,1.9-1c0.9-0.1,1.8,0.3,2.9,0.5
		C106.6,699.5,105.7,700.9,104.7,702.5z"/>
	<path class="st0" d="M159.7,690.7c-1-1.3-1.9-2.5-2.9-3.9c1.5-0.5,2.8-1,4.1-1.5C162,687.7,162,687.7,159.7,690.7z"/>
	<path class="st0" d="M159.9,683.8c2.2-1,4-0.2,4.7,2c0.7,1.9,0,3-1.8,3.7c-0.2-1.5-0.2-3-0.7-4.4
		C162,684.5,160.8,684.2,159.9,683.8z"/>
	<path class="st0" d="M296.7,566.6c-0.3-0.8-0.6-1.6-0.9-2.3c1.8,0.3,3.5,0.5,5.2,0.9c0.7,0.2,1.3,0.7,1.9,1.5
		C300.9,566.6,299,566.6,296.7,566.6z"/>
	<path class="st0" d="M284.4,494.9c-0.9,0.6-1.4,1.2-2,1.2c-0.9,0.1-1.5-0.6-1.3-1.5c0.2-0.5,0.9-1.3,1.3-1.2
		C283.1,493.5,283.6,494.2,284.4,494.9z"/>
	<path class="st0" d="M348.3,563.2c-1.4-0.1-2.9-0.2-4.8-0.3c2.1-0.3,3.7-0.5,5.3-0.7C348.7,562.5,348.5,562.9,348.3,563.2
		C348.3,563.2,348.3,563.2,348.3,563.2z"/>
	<path class="st0" d="M65.9,587.1c1.1-0.2,1.8-0.4,2.7-0.6c-0.1,0.6-0.1,1.1-0.2,1.8C67.5,587.9,66.9,587.6,65.9,587.1z"/>
	<path class="st0" d="M454.9,603.3c0.6-0.7,1.1-1.4,1.6-2.1l-0.1-0.1C455.9,601.8,455.4,602.6,454.9,603.3
		C454.9,603.3,454.9,603.3,454.9,603.3z"/>
	<path class="st0" d="M406.9,106.1c0.5-3.3,0.8-6.1,1.3-9c1-5.5,5.6-10.4,13.3-10.9c1.3,3,2.6,6,4,9.2c-1.4,1.4-2.8,2.7-4.1,4.1
		c-1.1,1.2-2.1,2.4-3.1,3.6c-2.6,3.5-2.8,7.4-1.5,11.3c0.8,2.2,2,4.4,3.5,6.2c3.4,3.9,8,4.4,12.8,3.9c1.9-0.2,3.8-0.4,5.8-0.6
		c1,1.9,1.7,3.7,2.7,5.3c1,1.7,2,3.5,3.4,5c2.8,3,6.4,4,10.4,3.4c7.3-1.2,10.7-4.7,12.2-12.5c0.2-1.3,0.4-2.6,0.6-3.9
		c0.3-1.8,0.7-2.1,2.5-2.4c2.1-0.2,4.2-0.3,6.2-0.8c5.2-1.3,8.3-4.8,9.7-9.9c1.5-5.3,0.1-9.9-3.9-13.7c-1.3-1.2-2.7-2.2-4.1-3.3
		c5.6-4.5,15.1-4.1,20.3,0.8c2.6,2.4,4.3,5.3,5.8,8.4c0.8,1.7,1.5,3.4,2.3,5.1c1.5,0,3-0.1,4.5,0c3.2,0.2,6.5,0.3,9.7,0.8
		c1.7,0.3,2.8,0.2,4-1c2.7-2.4,5.9-2.5,9.2-1.2c3.2,1.4,5.1,3.8,5.3,7.3c0.1,1.3,0.1,2.6,0.1,3.9c0,0.8,0,1.6,0,2.3
		c1.8,1,3.7,1.9,5.3,2.9c5.8,3.6,4.7,10.6,1.7,13.8c-1.6,1.7-3.7,2.4-5.9,2.8c-8.9,1.7-17.9,3-26.9,3.9c-12.5,1.3-25,1.9-37.5,1.8
		c-10.9-0.1-21.8-0.8-32.7-1.4c-11.5-0.6-23-2.3-34.3-4.3c-5.4-1-10.7-1.9-15.5-4.9c-3.3-2-6.1-4.3-6.9-8.3
		c-1.2-5.7,0.6-13.3,8.1-15.5c2.9-0.9,6-1.4,9-2.1C405,106.5,405.9,106.3,406.9,106.1z"/>
	<path class="st0" d="M448.1,77.2c0.9-0.8,1.6-1.5,2.2-2.2c1.1-1,2.1-2.1,3.3-3.1c5.5-4.7,11.4-4.3,16.8,0c3.8,2.9,4.7,7.1,4.3,11.6
		c-0.2,2.2-0.6,4.3-0.9,6.6c0.7,0.4,1.3,0.7,1.9,1.1c1.8,1.2,3.6,2.2,5.3,3.5c4.4,3.5,5.6,8.1,4.1,13.5c-1.5,5.3-5.3,8.2-10.6,9
		c-1.7,0.3-3.5,0.5-5.2,0.6c-1.4,0.1-2,0.6-2.2,2c-0.4,2.5-0.9,5-1.5,7.5c-1.9,7.5-7.3,9.9-14.5,8.9c-3.3-0.5-5.5-2.6-7.1-5.5
		c-1.1-1.9-2-3.9-3-5.9c-1.2-2.4-1.4-2.4-4.1-2.1c-3,0.3-6,0.5-8.9,0.4c-3.1-0.1-5.6-1.6-7.3-4.2c-2.4-3.6-4.4-7.4-2.7-11.9
		c0.7-2,2.1-3.8,3.4-5.6c1.1-1.5,2.6-2.6,3.9-4c1.9-1.9,1.9-1.9,0.8-4.5c-0.8-1.9-1.8-3.8-2.5-5.8c-2.5-7.1,1.7-14.4,9.1-15.9
		c2.4-0.5,4.6,0.2,6.7,1.1c1.9,0.8,3.6,1.8,5.4,2.8C445.8,75.9,446.8,76.5,448.1,77.2z"/>
	<path class="st0" d="M225.2,161.6c0.1-1.2,0.3-2.4,0.4-3.6c0.5-5.2,3-7.9,8.2-8.6c0.8,1.7,1.6,3.4,2.4,5.3c-1,1-2,2-3,3
		c-4,4.3-3.7,8.5-0.1,13c1.7,2.2,4.3,2.5,6.9,2.4c1.5,0,3-0.2,4.6-0.3c0.7,1.3,1.3,2.6,1.9,3.8c2.5,4.4,5.9,5.7,10.7,4.2
		c2.5-0.8,4-2.5,4.8-4.9c0.6-1.9,1-3.9,1.5-5.9c1.3-0.2,2.7-0.5,4.1-0.7c3.6-0.5,5.9-2.8,6.9-6.1c1-3.3,0.5-6.5-2.2-9
		c-0.7-0.7-1.4-1.3-2.1-1.9c3.6-2.8,9.3-2.3,12.4,1.3c1.2,1.5,2.1,3.2,3.1,4.9c0.5,0.8,0.8,1.7,1.3,2.7c0.7,0.1,1.4,0.1,2.1,0.2
		c1.5,0,3-0.2,4.5,0.1c2.4,0.5,4.3,0.5,6.6-0.9c2.9-1.7,6.8,1,7,4.4c0.1,1.3,0,2.6,0,3.9c1.2,0.7,2.3,1.2,3.4,1.9
		c2.1,1.3,2.9,3.3,2.4,5.7c-0.4,2.2-1.8,3.6-4,4c-4,0.7-8,1.6-12,2.1c-11.8,1.6-23.7,1.9-35.6,1.6c-13.2-0.3-26.4-1.5-39.3-4.4
		c-2.4-0.6-4.7-1.9-6.8-3.3c-4.2-2.9-2.9-10.9,1.4-12.5c2.3-0.8,4.7-1.3,7.1-1.9C224.1,161.8,224.5,161.7,225.2,161.6z"/>
	<path class="st0" d="M237.8,155c-0.8-1.8-1.5-3.3-2.1-4.9c-1.3-3.3-0.7-5.8,1.6-8c2.4-2.3,5.1-2.7,8-1.2c1.7,0.8,3.4,1.8,5.3,2.7
		c0.6-0.5,1.2-1,1.8-1.5c0.9-0.8,1.8-1.7,2.8-2.4c4.8-3.2,11.4,0.1,11.7,5.8c0.1,2-0.2,4-0.3,6.1c1.4,1,2.9,1.8,4.2,3
		c3,2.5,3.7,5.3,2.4,8.7c-1.1,2.9-3.3,4.4-6.4,4.9c-1.5,0.2-3.3,0.1-4.2,1c-0.8,0.8-0.7,2.6-1,4c-0.2,0.8-0.4,1.7-0.7,2.5
		c-1.1,2.8-3.1,4.1-6,4.4c-2.8,0.2-5-0.7-6.5-3.2c-0.7-1.1-1.2-2.3-1.8-3.5c-1-2-1-2-3.2-1.7c-1.4,0.2-2.8,0.2-4.2,0.3
		c-3.2,0.1-5.2-1.7-6.5-4.5c-1.2-2.7-1.2-5.3,0.8-7.7C234.7,158.1,236.2,156.6,237.8,155z"/>
	<path class="st0" d="M349.6,266.7c-2.3,2.3-4.3,4.4-2.8,7.8c1.6,3.7,4.7,3.4,8.1,3.2c1.2,3.1,2.9,5.5,6.8,4.8
		c2.4-0.4,3.2-1.5,4.7-6.7c2.6-0.1,5.1-0.6,6.1-3.5c1-2.7,0.3-5-1.9-6.9c3.5-2.2,5.9-0.7,8.9,5.2c2,0.2,3.9,0.4,5.9,0.6
		c0.4,0,0.8-0.3,1.2-0.5c2.7-1.3,4.5-0.3,4.7,2.7c0,0.5,0.1,1.1,0.1,1.7c0.5,0.3,1,0.6,1.5,0.9c1.3,0.7,1.9,1.7,1.7,3.3
		c-0.3,1.5-1.3,2.1-2.6,2.3c-3.1,0.5-6.2,1.1-9.4,1.4c-4.6,0.4-9.1,0.7-13.7,0.7c-9,0-18-0.6-26.8-2.5c-1.3-0.3-2.5-0.9-3.6-1.5
		c-1.5-0.8-2.3-2.2-2.1-4c0.2-1.9,1.2-3.3,3.2-3.8c0.5-0.2,1-0.3,1.5-0.4c2.6-0.6,2.6-0.6,3-3.3c0.4-2.6,1.4-3.6,4.2-4.2
		C348.7,264.8,349.1,265.7,349.6,266.7z"/>
	<path class="st0" d="M351.1,267c-0.5-1.2-0.8-2.1-1.3-3.1c-0.7-1.6-0.4-2.9,0.7-4.1c1.1-1.2,2.7-1.8,4.1-1c2.6,1.6,4.5,1.4,6.9-0.7
		c2.2-1.9,5.7,0.1,6,3.1c0.1,1.2,0,2.5,0,3.9c1.8,1.5,4.8,2.5,3.9,5.9c-0.8,3.3-3.7,3.4-6.4,3.7c-0.3,1.2-0.6,2.4-0.9,3.6
		c-0.5,1.7-1.6,2.7-3.3,3c-1.7,0.3-2.8-0.6-3.8-1.9c-0.1-0.1-0.2-0.3-0.3-0.4c-0.7-2.2-2.1-3-4.4-2.5c-1.9,0.4-3.4-0.5-4.4-2.2
		c-0.9-1.6-0.8-3.2,0.5-4.7C349.4,268.8,350.2,268,351.1,267z"/>
	<path class="st0" d="M468.3,688.5c0.3-1.2,0.9-2,2.5-2.1c2.3-0.2,3.3-1.7,3.1-4.1c-0.2-2.1-2-4.2-4-4.8c-2.2-0.6-3.6,0.3-4.6,2.8
		c-4.1-8.9-1.3-28.3,14.8-38.1c16.8-10.2,38-4.6,48,12.7c9.2,16.1,3,37.7-13.4,46.6C496.8,711.2,476.2,703.4,468.3,688.5z
		 M521.8,663.9c3-0.1,5-2.4,4.5-5.3c-0.1-0.5-0.3-1-0.5-1.5c-3.1-6.9-8.1-11.8-15.2-14.6c-0.7-0.3-1.5-0.5-2.3-0.5
		c-2.2-0.2-3.9,1.2-4.5,3.3c-0.6,2.3,0.5,4.3,3.1,5.3c5,2,8.6,5.3,10.8,10.2c0.2,0.4,0.3,0.8,0.6,1.2
		C519.1,663.3,520.4,663.8,521.8,663.9z"/>
	<path class="st0" d="M466.7,690.5c-0.3,0.5-0.6,1.5-1.2,2.2c-1,0.9-2.2,0.4-3.2-0.3c-2.5-1.6-3.9-4.1-4.2-7
		c-0.1-1.2,0.2-2.3,1.4-2.9c1.1-0.6,2.1-0.2,3,0.4C464.9,684.7,466.3,687,466.7,690.5z"/>
	<path class="st0" d="M470.8,685.1c-0.1-3.4-0.6-4-4.2-4.6c0.4-1.4,1.3-2,2.8-1.8c1.7,0.3,3.4,2.2,3.5,3.9
		C472.9,683.8,472.5,684.3,470.8,685.1z"/>
	<path class="st0" d="M467.4,686.9c-1-1.5-1.9-2.8-2.8-4.2c0.5-0.2,0.9-0.4,1.3-0.5c1.2-0.1,2.5-0.7,3.4,0.6c1,1.3-0.7,2-1,2.9
		C468.1,686.1,467.8,686.5,467.4,686.9z"/>
	<path class="st0" d="M200.1,291c-0.4-0.5-0.6-0.7-0.8-0.9c-4.6-7.9-11.3-13.8-18.8-18.6c-6.9-4.4-14.1-8.3-21.3-12.3
		c-8.4-4.7-16.4-9.9-23.2-16.9c-10.4-10.5-17.2-22.9-19.7-37.5c-1.4-8-1.3-16.1-0.1-24.2c1.4-9.6,4.2-18.9,8.4-27.7
		c2.6-5.4,6.4-9.9,10.5-14.1c7.7-7.9,16.7-14.1,27-18.7c1.5,2.4,1.9,5.1,2.1,7.8c0.4,3.9-0.8,7.4-2.8,10.8c-3.2,5.4-6.2,10.9-9,16.5
		c-2.3,4.6-3.5,9.6-3.9,14.7c-0.4,5.2,0.7,10.2,3.3,14.7c6.7,11.5,13.5,23,20.1,34.5c8.3,14.5,15.9,29.3,21.5,45
		c2.8,7.9,5,16,6.5,24.2c0.1,0.6,0.2,1.2,0.2,1.8C200.3,290.1,200.2,290.4,200.1,291z"/>
	<path class="st0" d="M244.3,485.5c-2,0-3.5-1.5-3.6-3.5c0-2,1.5-3.6,3.4-3.7c2.1-0.1,3.7,1.5,3.7,3.6
		C247.8,484,246.3,485.5,244.3,485.5z"/>
	<path class="st0" d="M303.1,465.6c0,2-1.5,3.5-3.5,3.5c-1.9,0-3.5-1.6-3.5-3.5c0-1.8,1.7-3.5,3.5-3.5
		C301.6,462,303.1,463.7,303.1,465.6z"/>
	<path class="st0" d="M80.6,401.7c-0.1,3.4-1.6,5.3-3.8,5.6c-2.2,0.3-4.3-1.1-4.9-3.5c-0.5-2.3-1-4.7-2.5-6.6c-0.9-1.2-2-2.3-3-3.3
		c-1.3-1.3-2.1-2.7-1.6-4.5c0.5-1.7,1.6-3,3.4-3.3c1-0.2,2.4,0,3.2,0.6C76.9,390.6,79.8,396,80.6,401.7z"/>
	<path class="st0" d="M100.9,323.3c3.6,0.6,7.4,1.3,10.5,4.3c1.6,1.6,2.5,3.4,2.8,5.6c0.3,1.9-0.7,3.5-2.3,3.9
		c-1.7,0.4-3.4-0.5-3.8-2.4c-0.5-2.6-2.2-3.7-4.4-4.3c-1.2-0.3-2.4-0.5-3.6-0.7c-2.2-0.3-3.4-1.5-3.4-3.3
		C96.8,324.5,98.4,323.3,100.9,323.3z"/>
	<path class="st0" d="M45.2,305.6c0,2.3-1.1,3.6-2.9,3.8c-1.5,0.2-3.2-0.8-3.5-2.5c-0.5-2.7-2.2-4-4.6-4.8c-2-0.7-2.9-2.4-2.2-4.1
		c0.6-1.6,2.5-2.5,4.3-1.9c4,1.2,7,3.5,8.4,7.6C45,304.4,45.1,305.2,45.2,305.6z"/>
	<path class="st0" d="M74.6,615.5c-0.2-1.4-0.5-2.5-0.7-3.8c-0.4-3.3,2.7-5.5,5.5-4.2c1,0.5,2.1,1,3.3,1.5c0.6-0.9,1.1-1.8,1.7-2.6
		c2.4-3.3,5.8-3,7.4,0.7c0.4,1,0.7,1.9,1.2,3c1.1-0.2,2.1-0.5,3.2-0.6c4-0.5,6.1,2.1,4.6,5.9c-0.3,0.9-0.8,1.7-1.3,2.8
		c0.9,0.6,1.7,1,2.4,1.6c1.4,1,2.6,2.2,2.4,4.1c-0.3,2-1.7,3-3.4,3.7c-0.8,0.3-1.6,0.6-2.5,0.9c0.2,1,0.5,1.9,0.6,2.7
		c0.4,1.7,0.2,3.4-1.2,4.6c-1.5,1.2-3.1,1.1-4.7,0.4c-0.9-0.4-1.7-0.8-2.7-1.2c-0.6,1-1.2,1.9-1.8,2.7c-2.4,3.2-5.7,2.8-7.4-0.9
		c-0.4-0.9-0.7-1.8-1.1-2.9c-1,0.2-1.9,0.4-2.8,0.6c-1.7,0.3-3.4,0.2-4.6-1.2c-1.2-1.5-1-3.1-0.3-4.7c0.4-0.9,0.8-1.7,1.3-2.8
		c-1-0.6-1.9-1.1-2.7-1.7c-3.2-2.4-2.8-5.8,0.8-7.4C72.6,616.2,73.6,615.8,74.6,615.5z M94.3,621.9c-0.1-4.5-3.5-7.8-8-7.7
		c-4.3,0.1-7.7,3.5-7.8,7.8c-0.1,4.3,3.5,7.9,7.9,7.9C91,629.8,94.3,626.4,94.3,621.9z"/>
	<path class="st0" d="M32.5,637.3c-5.2,0.7-5.2-0.8-3.8-4.8c-0.5-0.4-1.1-0.8-1.6-1.2c-1.6-1.4-1.4-2.7,0.5-3.7
		c0.5-0.3,1.1-0.5,1.8-0.8c0.3-1.3-0.9-2.9,0.4-4.2c1.5-1.4,2.8,0.3,4.3,0.3c1.1-0.8,1.5-3,3.3-2.5c1.1,0.4,1.9,1.9,3.1,3.2
		c0.2,0,1-0.2,1.7-0.2c1.9-0.1,2.8,1.1,2.3,2.9c-0.2,0.7-0.6,1.3-0.8,1.9c4.4,3.5,2.9,4.5-0.6,6c-0.3,1.3,1.2,2.9-0.4,4.1
		c-1.5,1.2-2.8,0-4.1-0.5C35.2,641.7,34.5,641.6,32.5,637.3z M40.9,630.6c0.1-2.6-2-4.7-4.6-4.7c-2.6,0-4.8,2.1-4.7,4.7
		c0,2.5,2,4.5,4.6,4.6C38.7,635.2,40.9,633.2,40.9,630.6z"/>
	<path class="st0" d="M136.2,445c-0.1,1.7-1.1,3-2.6,3.5c-1.5,0.5-3.1,0-4-1.3c-0.4-0.6-0.7-1.2-0.8-1.9c-0.9-4.5-3.8-7.2-7.9-8.8
		c-0.9-0.3-1.9-0.5-2.8-0.9c-1.7-0.7-2.5-2.2-2.1-3.8c0.3-1.5,1.7-2.7,3.4-2.8c0.3,0,0.7,0,1.1,0.1c6.7,1.6,13.7,6.1,15.5,14.5
		C136,444.2,136.1,444.7,136.2,445z"/>
	<path class="st0" d="M87.7,437.2c-0.4-0.2-1.2-0.6-2-1.1c-1.3-0.7-2.5-1.6-3.8-2.1c-2.3-0.9-3.4-2.4-2.8-4.3
		c0.5-1.8,2.5-2.8,4.7-2.4c2.9,0.7,5.4,2.1,7.4,4.3c0.9,1,1.3,2.2,0.6,3.6C91,436.5,89.8,437.2,87.7,437.2z"/>
	<path class="st0" d="M87.1,658.9c2.6,0.4,5.2,1.5,7.6,3.3c4,3,6.8,6.9,8.3,11.6c0.7,2.2-0.1,3.8-2,4.4c-1.7,0.6-3.2-0.3-4.1-2.4
		c-0.8-1.7-1.6-3.5-2.6-5.1c-1.8-2.8-4.4-4.4-7.6-5.3c-0.3-0.1-0.7-0.1-1-0.2c-1.9-0.6-2.9-2-2.6-3.7
		C83.4,659.7,84.7,658.8,87.1,658.9z"/>
	<path class="st0" d="M190,635.1c1.1,0.4,3.1,0.8,4.7,1.8c2.2,1.3,4.2,2.9,6,4.6c1.5,1.4,1.3,3.2,0,4.5c-1.1,1.1-3.2,1.3-4.3,0.1
		c-2.4-2.4-5.1-4-8.3-4.8c-1.7-0.4-2.5-2.1-2.1-3.7C186.3,636,187.6,635,190,635.1z"/>
	<path class="st0" d="M458.8,418.2c1.4,1.5,1.9,3.3,1.8,5.2c-0.1,4.2-0.3,8.4-0.6,12.7c-0.4,5-1,10-1.4,15c-0.5,5.1-1,10.2-1.4,15.2
		c-0.4,4.8-0.8,9.7-1.3,14.5c-0.4,4.7-0.9,9.5-1.3,14.2c-0.5,4.7-0.8,9.5-1.3,14.2c-0.6,7-1.3,14-1.9,21c-0.4,4.7-0.8,9.3-1.2,14
		c-0.4,4.3-0.7,8.6-1.1,12.9c-0.1,1.2-0.6,2.4-1.1,3.5c-1.2,2.8-2.4,3.3-5.4,2.9c-7.9-0.8-15.8-1.6-23.6-2.5
		c-7.6-0.8-15.2-1.6-22.8-2.4c-2.6-0.3-5.3-0.5-7.9-0.7c-6-0.5-8-2.6-7.9-8.6c0.1-5.7,0.5-11.4,0.8-17.2c0.5-9.2,1.1-18.5,1.6-27.7
		c0.5-9,1-17.9,1.5-26.9c0.5-9.8,1-19.5,1.5-29.3c0.1-1,0.2-1.9,0.3-2.9c0.4-3.5,2.4-5.6,5.6-6.6c6.1-1.9,12.1-3.7,18.2-5.6
		c15.7-4.8,31.3-9.6,47-14.4C457.4,418.5,458.1,418.4,458.8,418.2z M400.1,489.2c-2,2.1-2.2,4.9-0.6,7.4c0.3,0.6,0.9,1.2,0.8,1.8
		c-0.6,3.4-1.1,7-2.2,10.3c-1,3-1.1,6-1.4,9.1c-0.1,0.6,0.3,1.3,0.5,2c0.2,0.7,0.6,1.5,0.5,2.2c-0.2,2.5-0.5,4.9-0.8,7.3
		c-0.3,1.7,0,2.5,1.6,3c3.4,1.1,6.1-0.8,6.5-4.4c0.2-1.8,0.3-3.6,0.4-5.7c7,2,13.9,1.5,21.2,1.4c-0.5,2.6-0.8,4.8-1.5,7
		c-0.4,1.4,0,2.3,1,2.9c1.4,0.9,3.1,1.4,4.8,0.8c1.7-0.7,2-2.3,2.1-3.9c0.1-0.5,0-1.1,0.1-1.6c0.2-2.1,0.4-4.2,0.6-6.2
		c3.6-0.5,4.2-3.2,4.6-5.8c0.4-2.8,0.3-5.6,0.3-8.4c0-2.5-0.2-4.9-0.2-7.4c0-0.7,0.2-1.7,0.7-2.1c3.2-3.2,3.2-7.1,2.4-11
		c-0.1-0.7-1-1.3-1.5-1.9l0.1,0.1c-0.6-0.3-1.2-0.6-1.9-0.9c-0.1-4-0.1-8.1-0.4-12.2c-0.3-3.1-0.9-6.2-1.6-9.3c-0.2-1-0.5-2.3-2-2.4
		c-0.5-1.6-1.9-2-3.2-2.4c-5.9-1.7-11.6-0.7-17.2,1.3c-1.8,0.7-3.3,1.5-3.5,3.7l0.1-0.1c-0.5,0.9-1.1,1.7-1.4,2.7
		c-1.2,3.8-2.2,7.5-3.4,11.3c-0.6,2-1.1,4-1.6,5.9C400.8,484.1,399.9,485.6,400.1,489.2L400.1,489.2z"/>
	<path class="st0" d="M163.3,561.2c0.5-0.4,0.8-0.6,1.1-0.8c9.9-4.9,20.1-8.9,31-10.9c1.7-0.3,3.3-0.2,4.8,1
		c-0.7,2.7-2.7,4.3-4.8,5.7c-4.1,2.7-8.7,4.2-13.5,4.9c-5.9,0.9-11.7,1.4-17.6,0.4C164,561.5,163.8,561.4,163.3,561.2z"/>
	<path class="st0" d="M249.1,556.9c9.7,0,19.3,0,29.1,0c1.1,3.9,2.3,7.8,3.4,11.8c0.3,1.2-0.7,1.7-1.7,2c-2.9,0.7-5.8,1.5-8.8,1.9
		c-7.6,1.1-15.1,0.2-22.5-1.5c-0.5-0.1-1-0.3-1.5-0.5c-1.2-0.3-1.6-1.1-1.2-2.2C246.9,564.5,248,560.8,249.1,556.9z"/>
	<path class="st0" d="M508.3,643.1c0.3,0.1,0.8,0.2,1.3,0.4c7,2.6,12,7.4,15.1,14.3c0.3,0.7,0.6,1.6,0.5,2.3c-0.2,1.3-1,2.3-2.3,2.6
		c-1.3,0.3-2.5,0-3.3-1.1c-0.3-0.4-0.5-0.9-0.7-1.4c-2.2-5-5.9-8.4-10.9-10.5c-0.6-0.2-1.2-0.4-1.6-0.8c-1.2-0.8-1.5-2.1-1-3.5
		C505.5,644,506.7,643.1,508.3,643.1z"/>
	<path class="st0" d="M86.6,615.4c3.5,0.1,6.6,3,6.6,6.6c0.1,3.5-3.2,6.7-6.9,6.6c-3.6-0.1-6.5-3-6.5-6.6
		C79.9,618.2,82.8,615.4,86.6,615.4z"/>
	<path class="st0" d="M36.3,633.9c-1.8,0-3.3-1.4-3.4-3.3c-0.1-2,1.4-3.6,3.4-3.6c1.8,0,3.4,1.5,3.5,3.3
		C39.9,632.1,38.2,633.9,36.3,633.9z"/>
	<path class="st0" d="M397.2,519.6c1.2-6.3,2.3-12.6,3.5-18.8c0.3-1.6,0.9-3,2.4-4c0.7-0.5,1.2-1.2,2.1-2.2
		c-0.4,8.7-2.7,16.9-1.4,25.1c0.6-0.8,0.5-0.8,0.4-4.1c-0.1-1.7-0.1-3.4,0.1-5c0.1-1.6,0.3-3.2,0.5-4.7c0.2-1.6,0.4-3.2,0.6-4.7
		c0.2-1.6,0.5-3.1,0.7-4.7c0.2-1.7,0.4-3.3,0.6-5c0.2-1.5,0.5-3,1.3-4.6c0.2,0.4,0.3,0.8,0.5,1.3c0.3,0.9,0.9,1.2,1.8,1.2
		c6.4,0.2,12.8,0.3,19.2,0.6c1.6,0.1,2.6-0.6,3-2c0.5-1.7,1-3.4,1.2-5.1c0.2-2.2,0.1-4.4,0-6.5c-0.3,2.9-0.6,5.7-0.9,8.6
		c-0.1,0.7-0.2,1.4-0.4,2.1c-0.6,1.8-1.3,2.4-3.3,2.4c-6-0.1-12-0.2-18-0.4c-1.7-0.1-2.2-0.4-2.1-2.3c0.2-3.4,0.7-6.8,1.2-10.2
		c0.4-2.5,1-5,1.6-7.5c0.7-3,2.1-5,5.3-5.9c2.1-0.6,4-1.7,6.3-1.7c2.7,0,5.2,0.7,7.7,1.8c2.3,1.1,2.6,3.2,2.9,5.5
		c0.1-0.3,0.4-0.7,0.4-1c0-2.6-1.3-4.3-3.7-5.5c-3.1-1.5-6.3-1.5-9.6-1.5c-0.8,0-1.7,0.3-2.5,0.6c-1.2,0.5-2.4,1-3.5,1.7
		c-1.1,0.8-2.1,1.8-3.1,2.6c0.6-4.7,1.2-5,5-6.2c4.3-1.4,8.8-1.4,13.3-0.6c1.5,0.3,2.9,1.2,4.3,1.8c1.2,6.3,1.2,12.6,0.7,18.9
		c-0.1,1.4-0.1,2.8-0.1,4.2c-0.4,6.1-0.7,12.3-1.2,18.4c-0.4,4.4-0.8,8.9-2.3,13.2c-0.8,2.1-1.2,4.4-1.8,6.7
		c-8.3-0.1-16.4,1.7-24.5-1.2c-1.2-0.4-2.6-0.3-3.9-0.3C399.7,520.8,398.3,520.6,397.2,519.6z M418.9,492.1l0.1-0.1
		c-0.2,0-0.4,0-0.5,0.1c-1.4,1.6-2,6.5-1,8.2c0.7,1.2,2.3,1.4,2.9,0.1c0.7-1.4,1.2-2.9,1.7-4.3c0.1-0.6,0.2-1.3,0.3-1.9
		c-0.3-0.7-0.5-1.5-1-2.1C420.7,491.4,419.7,490.8,418.9,492.1z M420.9,508.4c-1.5,1.8-4.4,0.8-5.8,2.9c0.4,1.3,1.4,1.7,2.5,1.4
		C419.5,512.1,420.6,510.5,420.9,508.4z"/>
	<path class="st0" d="M430.5,521.6c2.7-8.1,3.9-16.2,4.3-24.6c0.7,1.1,1.4,2.1,2,3c0.2-0.2,0.4-0.4,0.6-0.6
		c0.2,4.9,0.4,9.8,0.6,14.8c0,0.5,0.1,0.9,0,1.3C437.3,520.5,436.1,521.6,430.5,521.6z"/>
	<path class="st0" d="M435.7,491.9c-0.1-2.1-0.5-4.2-0.3-6.2c0.6-5.7,0.7-11.4,0.5-17.1c-0.1-0.9,0-1.7,0.2-2.6
		C437.6,474.6,438.3,483.3,435.7,491.9L435.7,491.9z"/>
	<path class="st0" d="M435.6,492c0.3-0.3,0.5-0.6,1-1.2c0.1,1,0,1.6,0.3,2.1c0.2,0.4,0.7,0.8,1.1,0.9c0.4,0.1,1-0.3,1.3-0.6
		c0.6-0.7,0.5-1.9,1.7-2.1c0.5,3.3-0.7,6-3.3,7.3c-1.8-1-2.6-2.5-2.1-4.6c0.1-0.6,0.1-1.2,0.1-1.8C435.7,491.9,435.6,492,435.6,492z
		"/>
	<path class="st0" d="M440,485.6c0.2,1.6,1.7,2.8,1,4.6c-1.3-2.5-1.3-2.5-3.4-2.7c0.2-1.5,1.4-1.5,2.5-1.8
		C440.1,485.7,440,485.6,440,485.6z"/>
	<path class="st0" d="M400.1,489.2c0.2,0.9,0.4,1.9,0.7,2.8c0.3,0.8,1.5,1,1.9,0.3c0.6-1,1.2-2.2,1.3-3.4c0.2-1.8-0.8-2.5-3.5-2.2
		c0.9-1.1,1.5-1.9,2.2-2.7c3.6,3,3,9.6-1,12.7c-1.7-0.7-2.6-1.9-2.4-3.8C399.4,491.7,399.8,490.5,400.1,489.2
		C400.1,489.2,400.1,489.2,400.1,489.2z"/>
	<path class="st0" d="M410.3,463.5c0.3,0,0.5,0,1,0c-3,8.3-4,17-5.3,25.7c-0.6-2.8-1.1-5.4-0.2-8.3
		C407.6,475.2,408.9,469.3,410.3,463.5C410.4,463.5,410.3,463.5,410.3,463.5z"/>
	<path class="st0" d="M422.4,494.2c-0.1,0.6-0.2,1.3-0.3,1.9c-0.5,0.7-1.1,1.5-1.6,2.2c-0.5,0.7-0.9,1.5-1.4,2.3
		c-0.2,0-0.4-0.1-0.7-0.1c-0.3-0.8-0.6-1.7-0.7-2.5c-0.4-2.1,0.5-4.1,1.2-6l-0.1,0.1c0.5,0,1,0.1,1.5,0.1c-0.1,1-0.2,1.8-0.3,3
		C421.2,494.8,421.8,494.5,422.4,494.2z"/>
</g>
</svg>
