<?xml version="1.0" encoding="utf-8"?>
<!-- Generator: Adobe Illustrator 26.0.0, SVG Export Plug-In . SVG Version: 6.00 Build 0)  -->
<svg version="1.1" id="Capa_1" xmlns="http://www.w3.org/2000/svg" xmlns:xlink="http://www.w3.org/1999/xlink" x="0px" y="0px"
	 viewBox="0 0 595.3 808.5" style="enable-background:new 0 0 595.3 808.5;" xml:space="preserve">
<style type="text/css">
	.st0{fill:#FFFFFF;}
</style>
<g>
	<path d="M583.2,607.4c-4.1-4.5-9.2-7.3-14.5-10.2c18.1-28.7,0.5-51.7-32.3-40.8c-7.7-33.6-36.4-36.2-51.6-5.9
		c-28.6-18.5-51.7,1.2-40.4,32.4c-9.3,2.3-17.8,6.4-24.2,13.7c-14.8-4.3-30.7-2.4-44.2,5.2c-39.3-56.6-124.4-9.7-98.3,53.8
		c-16.7,2.7-31.3,11.2-47.1,16.2c22.8-41.9,19.1-77.6-33.7-85.8c15-27.8-7.1-43.9-34.1-40.4c-0.2-38.2-32-47.7-54.3-18.3
		c-26.5-26.9-56.3-11.9-51.3,25.3c-37.8-0.1-48.3,31.4-18.3,54.1c-27,26-11.6,56.7,25.3,51.3c-1,26.7,19.6,46.8,43.3,29.3
		c18.3,12.8,42.3,11.7,61.6,21c-8,8.8-20.3,13.2-29.8,20.3c-20.4,12.7-30.5,33-6.5,48.6c23.2,17.6,47.2,13.8,59.3-13.8
		c3.9-7.7,6.4-15.9,9.7-23.8c0.3-0.6,0.5-1.4,1.6-1.4c7.1,28.6,7.5,94.5,53,60.8c37.6-26.3-4.5-54.4-15.2-82.1
		c3.3-0.5,9.9,0.3,16,1.9c7.2,36.9,51.1,56.5,83.5,37.5c43.3,60.3,130.4,1.4,94.9-59.8c7.1-5.1,12.8-11.2,17-18.4
		c6.5-0.5,11.9-1.4,18.1-3.2c7.7,33.3,36.7,36.5,51.6,5.8c16.1,12,42.4,9.9,43.5-14.2c0.9-6.3-2.5-12.3-2.4-18.2
		C583.6,645.1,599.7,625.3,583.2,607.4z M186.6,666.4c-5.8,0.2-10.4-5-15.6-7.2c-2.3-1.7-1-5.3-1.5-7.9c5.2-1.1,10.8-1.2,16.1-2.1
		C186.9,654.4,188.6,661.2,186.6,666.4z"/>
	<path d="M426.3,253.1c15.8,10.5,28.1,25.6,33.4,43.8c4.7-12.8,16.6-15.3,25.8-5.3c8.4,9.6-6,16.6-13.1,21.2
		c9.3,3.4,27.8,4.9,21.2,19.4c7.4,8-18.4,25.3-25.1,28.5c16.8,57.2-11.2,79.5-64.6,88.8c10.3,5.3,11.4,19.8-1,23.3
		c1.7,15,15.5,29.9-8.5,32.5c-0.1,1-0.2,1.8-0.3,2.8c6.5,1.1,13.5,1.5,18.7,6.2c5.9,5.1,7.6,15.5,1.4,20.8
		c-14.4,10.1-38.3,1.6-48.7-10.9c-11,11.3-33.2,20.8-48.2,11.9c-10.1-6.6-3.4-23,5.6-25.1c4.1-1.8,8.6-2.2,13-2.5
		c0.5-1.5-0.1-2.5-0.5-3.7c-11.9-1.8-12.6-6.7-9.8-17.2c-2-1.1-2.8,0.5-3.8,1.9c-9.6,13.4-32.1,2.7-27.8-13.1
		c0.2-6.1-2.9-10.7,5-13.6c4.3-8.6,27-13.8,35.3-20.9c-28.7-15.1-61.9-37.3-65.8-72.3c-2.8,0.1-5.2,0.8-8,1.4
		c7.5,10.2,7.8,26.6-8.4,29.6c19,41.6,67.1,28.7,10.7,58.1c-4.9,3.8-4.7,12.1-7.5,17.5c-3,9.5-10.1,16.4-17,23.3
		c4.5,10.6,2.2,15.4-1.1,25.5c-4.5,13.2-26.2,8.9-35.5,3.3c-8.4-4.7-6.7-14.3-7.8-22.4c-1.6-9.9-1.5-20-2.5-29.9
		c-6.7-0.9-13.5-0.1-20.3-1.2c-6.6-0.9-1.9-7.1-0.8-10.8c-28.3-18.1-18.2-38.4-31.3-57c-8.9-7.6-16.4,2.9-20.7,10.1
		c-7.2,10.5-23.4,15.3-32.7,4.9c-16.3-17.4,2.1-42.1,19.5-50.4c27.9-14.7,60.1,6.3,64.7,35.7c2,10.2,1.7,21.3,9.1,29.6
		c3-6.5,4.5-21.2,0.3-27.3c-9.4-11.5-24.1-31.4-10.2-44.6c-22-8.3-44.2-18.6-60.5-36.6c-4.7,1.6-8.7,4.6-13,7
		c-8.8-1,7.8-8.8,10.1-10.2c-1.1-2.5-3.1-4.5-4.7-6.8c-6.1-0.2-11.5,2.4-17,4.8c-1.6,0.7-2.5,0.7-2.9-0.1c-0.9-5.5,13.2-7,17.3-8.4
		c-1.2-3.1-2.8-5.8-4.1-8.6c-4.7-0.8-9.1,0.4-13.7,0.8c-6.3-4.1,9.6-4.4,11.9-4.8c-2-8.6-4.5-17-4.2-26c0-1.2-0.2-2.4-0.9-3.4
		c-1.7-3.2-2-3.8,1.1-5.8c2.6-17,7.4-33.3,16.6-47.9c1.2-1.9,1.8-3.8,1.8-6.1c0.4-29.5,8.1-59.2,24.6-83.9
		c12.8-17.9,51.8,20.3,61.2,31.3c23.3-3,46.1-1.1,68.4,6.8c18.4-13.9,38.9-23.5,61.6-27.4c14.3-1.8,16.4,15.1,19.1,25.4
		c5.3,24.2,5.3,49.4,0.7,73.7c-0.5,5.2-3.7,9.9-2.3,15.2c10.2-5.8,21-10.3,32.8-11.9c3.6-48.1,32.4-64.4,70.8-85.3
		c19.9-10.9,35.7-30.1,58-36.1c21.1-1.1,2,40.9-3.5,49.9c-3.5,6.3-8.6,11.3-12.6,17.1c12-0.3,24.3-2.8,36-6
		c8.8-2.1,18.4-5.4,27.3-2.7c17.5,8.4-9.9,40.4-21.4,44.2c-20.7,10.6-44.1,14.3-66.9,17.2C447.7,241.2,434.8,242.4,426.3,253.1z"/>
	<path d="M447.1,37.7c18.2,8.1,22.6,29.4,9.7,44.3c2.9,15.5-7.3,32.2-22.8,36.4c-6,15.8-25.2,24-39.8,14c-3.2-3-6.3-3.8-10.5-2.9
		c-14-0.1-26.8-8.8-30.9-22.4c-2.6-4.7-9.4-5.7-12.3-10.7c-6-7.6-7-15.9-3.9-24.9c0.8-4.6,5.9-7.5,5.9-12.1
		c-2.1-14.5,6.9-29.1,20.7-34c4-1.5,4.5-6.6,7.3-9.4c8.6-10.6,22.4-12.6,33.9-5.9c2.4,1.1,4.2,4.1,7.2,3.7
		C428.7,11.5,443.3,23.2,447.1,37.7z"/>
	<path d="M283.2,69.3c29,11,32.7,35-3.5,34.5c18.1,34.2-5,47.7-29.8,19.6c-3.6,4.4-5.4,10.5-10.2,14.2
		c-16.2,14.1-26.5,2.1-24.8-16.1c-32.3,13.1-34.5-12.6-14.2-31.1c-4.4-3.9-11.3-4.1-15.6-8.7c-17-15.5-3.5-25.7,14.6-26.6
		c-18.8-28.9,7.4-35.4,28.9-20c9.6-39.8,36.7-34,35.4,5.5C296.7,21.7,308.5,45.4,283.2,69.3z"/>
	<path d="M564.7,55.4c10.6,17.4-6,21.6-18.7,12.6c-3.8,23.1-23.5,20.2-22.4-2.7c-20.4,9.3-26.7-4.4-12.1-19
		c-16.7-5.1-19.2-22,1.3-21.8c0.5-1.3-0.3-2-0.6-2.9c-8.3-19.7,9.1-24.3,20.2-9.4C539.4-0.8,554.6-7.2,555,13
		c19-7,20.7,9.6,8.7,20.2C578.8,37.7,584.7,53.7,564.7,55.4z"/>
	<path d="M73.2,94.6c-20.5,9.5-27-4.5-12.1-18.9c-16.9-5.6-19.2-21.9,1.5-22.1c-9.8-20.5,5.8-28.8,19.5-11.9
		c5.9-13.4,22.7-19.1,22.3,0.7c19.2-6.7,21,9.3,8.8,20.3c14.9,4.4,21.1,20.5,1.1,22.1c10.1,17.2-5.9,21.8-18.6,12.6
		C91.1,120.4,72.1,117.9,73.2,94.6z"/>
	<path d="M552.9,426.5c18.8-6.9,21.1,9.1,9.1,19.9c0.3,1.1,1.3,1.1,2,1.4c14.3,5,16.7,20-1.2,21.1c9.9,17.5-6,21.9-18.8,12.5
		c-4.5,23.4-23.3,20.7-22.6-2.7c-20.4,10-26.4-4.3-12.2-18.9c-17.2-5.7-18.5-21.7,2-22c-10.1-20.8,5.1-28.3,19.6-12.1
		C536.2,412.1,553.9,407.3,552.9,426.5z"/>
	<path d="M34.6,320.2c5.3-13.4,23.3-18.8,22.3,0.6c19.3-6.7,20.9,9.1,8.9,20.2c15.1,4.6,20.9,20.4,1,22.1
		c10.3,17.5-6.1,21.6-18.8,12.6c-4.1,23.2-23.1,20.4-22.5-2.7c-20.1,9.6-26.7-4.7-12-19c-16.7-5.4-19.2-22,1.3-21.9
		C6.3,310.9,19.9,303,34.6,320.2z"/>
	<path d="M520.1,299.2c-13.6-25.9,22-49.1,39.8-26.1c27.2-9.8,48.5,19.5,26.2,41.1c12.7,26.3-22.7,48.9-40.4,25.3
		C519.7,352.5,496.7,316.7,520.1,299.2z"/>
	<path d="M76.5,185c12.4,24.4-19.3,50-40.4,25.6c-25.2,12.6-48.8-22.1-25.5-40.5c-13.4-27.1,23.6-48.5,40.4-25.6
		C76.7,132.3,99.6,166.1,76.5,185z"/>
	<path class="st0" d="M190.8,163.4c24.2-3.7,47.6-1.6,70.4,7c13.3-10.2,27.7-18.4,43.7-23.4c9.7-2.6,25.4-10.2,29.1,4.1
		c11.5,34,10.6,72-0.3,106.1c-3.3,6.7-9.6,11.5-12.6,18.6c-27.6-1.4-48.3,27.9-37.7,53.3c-7.1,11.2-13.2,23.2-15.1,36.6
		c-3.4,1-6.9,1.7-10.5,2.1c-10.9-11.6-27.2-29.1-44.1-18.2c-3.6-1.7-6.8-2.7-10.9-3.4c-1.5-2.1-31.8-27.2-27.7-15.8
		c7.9,4.8,16,9.6,22.4,16.3c-9.5,5-11.8,7.6-15.1,17.6c-13.5-2.3-26.7-7.4-38.9-13.8c8,0.5,14.7-3.6,17.4-11.3
		c2.9-0.8,5.6-2.3,8.2-3.7c2.9-1.9,0.5-6.5-2.8-4.9c-6.8,4.9-27.2,3.6-25.1-7.9c13.1-1.9,21.7-19.8,4.4-23.1
		c-19.7-6-26.6,11.4-10.3,22.2c0.2,2.2,0.4,4.4,0.6,6.8c-3.3,2-6.8-0.4-9.5-2.3c-2.4-1.3-5.2,1.8-3.2,4c1.7,2.1,4.1,2.7,6.6,4.1
		c1.7,4.2,3.6,8.7,7.4,12.3c-5.4-1.5-21-13.7-25.1-19.5c2.4-1.6,5.4-1.2,7.8-2.4c2-6.3-8.2-1.1-11-0.9c-1.7-1.8-3.1-3.6-4.5-5.9
		c3.9-1.2,7.5,0,11.4-0.5c5.6-5.3-11.5-3.1-13.9-3.5c-1.7-2.3-2.9-4.9-4.2-7.6c6.3-0.4,11.4,2.2,17.4,3.3c8-4.8-15.8-6.7-18.6-7.3
		c-3-4.9-5.5-16.6-5.1-24.3c1.3-0.3,2.2,0.6,3.2,0.9c1.4,10.4,13.8-15.4,31.7,4.9c0.6,0.5,1.4,0.8,2,0.3c1.2-0.9,1.3-2.5,0.7-3.9
		c-3.8-10.9-16.6-16.1-26.7-10.1c-3.2-1.4-3-5-3.2-7.8c-0.1-1.1-0.9-1.7-2-1.7c-4.9,1.7-1.2,9.8,1.3,12.6c-1.4,1.9-1.5,1.9-2.9,1.3
		c-11.4-3.2,3.8-38.8,7.6-46.4c5.9-0.6,6.6-8.3,10.9-11.5c7.6-10,21.5-7.1,20.8-12.2c-2.2-8.1-21.5,4-25,7.6
		c-0.5-28.2,8-57.3,23.4-80.9C143.6,115.4,183.8,153.8,190.8,163.4z M213.5,285.1c5.4-2.3,9.9-5.1,11.3-11c0.6-1.7,0.2-4-1.8-4.4
		c-2-0.6-3.4,1.1-3.7,2.9c-1.9,5.8-9.2,8.8-14.7,6.3c-15.3-9-39.8,9.5-28.8,11.7c29.4-16.9,37.2,12.1,42.9,2.5
		c7.1,1.2,19.5-9.7,9.7-10.5c-2.1,0.8-3.1,3.4-5.4,4.1C219.7,287.5,216,288,213.5,285.1z M275.6,178.2c21.1,13.1,36.5,33,46.3,55.5
		c10.3-23.2,11.1-50.5,4.7-74.9C319.5,145.5,282.4,170,275.6,178.2z M176.2,166.4c-3.9-8-33.2-38.4-39.9-24.1
		c-8.4,17.2-13.5,35.9-11.8,55C133.4,189.8,149,176.8,176.2,166.4z M218.9,210.6c0,0.1,0,0.2,0,0.2c-4.7-0.6-4.6,6,0.1,5.9
		c13.8,2.8,23.9,10.4,30.3,22.9c0.6,1.9,2.5,3.8,4.6,2.7c2.4-1.1,1.4-3.9,0.4-5.7C247.1,222.7,234.2,213.4,218.9,210.6z M182,320.8
		c-1.4-0.1-2.6,0.1-2.8,1.5c0.4,3.7,11.3,3.4,14.6,5.1c11.7,3.1,22.9,7.6,33.5,13.3c1.4,0.7,3.8,2.2,4.6-0.1
		C227.1,331.9,192.9,322.9,182,320.8z M194.9,316c11.9,0.8,24.9,1.9,36.5,5.3c1.2,0.5,3,0.2,3.3-1.2c-1.5-5.6-29-6.9-35.2-7.6
		c-5.9,0-12.2-0.8-17.9,0.5C177.2,318.7,191.7,315.4,194.9,316z"/>
	<path class="st0" d="M340.1,286.4c27.1,23.9,39.8,64.7,77.1,76.2c-0.8,5.3-6.5,9.5-9.7,4.1c-7.6-7-19.6-7.3-27.5-0.7
		c-15.2,11.8-5.1,40.3,15.5,34.4c13.4-3.8,15.8-20,7.4-29.8c0.6-0.6,1.1-0.3,1.4-0.1c5,3.4,7.2,8.4,8.4,14.2c0.5-0.3,1-0.4,1.2-0.7
		c1.3-1.7,3.9-0.7,5.7-1.4c3.2-0.5,10.6-4.5,6.9-8.1c-3.7-1.4-6.3,5.5-12.4,3.3c-0.6-0.9-1-2.1-1.1-3.1c4.7-2.7,7.4-5.8,9.9-10.7
		c14.1,2.2,28.2,1.6,41.7-3.2c7.6,21.5,9.9,51-10.5,66.1c-10.1,8.8-48.7,24.8-60.2,16.4c-7.5-4.3-14.3-12.5-23-13.6
		c-4.9-2.2-8.7-4.2-12.6,1.2c-0.8,0.8-2.8,1.5-4,1.1c1.7-2.3,3.1-4.5,4.5-7.1c4.9,1.1,20.1-4.6,15.8-10.6c-3.9-1.8-7.2,6.5-12.5,5.6
		c-6.8,0.3-19.7-2.1-18.2-11.2c50.2-15.9-51.9-34.4-5.6-0.3c0.2,1.6,0.4,3.1,0.6,4.9c-7.9,4.5-14.3-1.2-18-7.8
		c-1.1-1.7-4.5-0.4-4.1,1.6c1.1,7.1,9.3,8.6,10.8,13.7c1.4,6.3,4.6,14.9,12.1,15.3c2.9,1,5.3,1.9,8.8-0.1c-1.4,2.4-2.4,4.1-3.5,6
		c-30.7-11.2-72.6-39.6-73.2-75.6C276.8,329.5,308.7,302.6,340.1,286.4z M301.2,358.8c-4.2,12.1,4.4,27.3,17.6,25.7
		c15.1-0.4,21.1-19.7,10.7-30c5,0.7,7.7,6.5,9.2,10.9c0.3,1,0.1,2.2,1.4,3c4.2-14.8-13.7-27.7-27.4-21.3c-2.7,1.1-3.2,0.8-4.8-1.4
		c-1.7-2-1.3-4.5-1.5-6.9c-0.2-0.9-1.2-1.7-2.1-1.8c-6.1,1.8-1.2,11,1.6,14.3c-2,4.9-7,1.4-8.7-1.9c-0.6-1.5-1.6-3.5-3.5-2.9
		C288.3,350.3,297.2,357.4,301.2,358.8z M328.3,311.6c-15.2-1.5-36.9,22.3-24.7,19.3c5.8-8.5,13.8-14.3,24.3-15
		C332.2,316.5,332.9,311.1,328.3,311.6z"/>
	<path class="st0" d="M422,252.4c-6.7-3.6-13.7-6.3-21.2-7.8c10.5-45.6,52.5-51.3,92.3-54.7c11.2,1.6,60-20,57.9-1.7
		c-7.5,32.4-43.9,40.8-72.3,45.8C458.9,238.1,436.1,235.1,422,252.4z"/>
	<path class="st0" d="M397,243.8c-7-1.2-13.7-1.1-20.6-1c0.9-53.5,40.4-65.6,78.5-90c8.8-4.5,46.7-40.4,52.5-25.8
		c0.4,22.3-11.1,43.8-26.4,59.5c-1.2,1.4-2.7,1.8-4.5,2c-10.7,1.2-21.3,2.6-31.6,5.8C420.9,200.7,403.9,220.5,397,243.8z"/>
	<path class="st0" d="M433.2,332.4c10.6,13.5,16.2,24.8,35.3,23.5c-20.8,12.9-52.3,9.1-71.6-6.1c-25.7-18.7-35.6-53-62.8-69.6
		c35.9-14.4,65.2,0,85,31.4c1,1.3,1.2,2.5,0.9,4C418,324.2,423.4,334.2,433.2,332.4z M433.1,357.9c-1-20-32.7-40.1-26.7-26.6
		c10.7,5,18.4,13.3,21.2,24.9C427.6,360.3,432.1,362.9,433.1,357.9z"/>
	<path class="st0" d="M178.1,440.7c-1.7,7.3-4.6,15.7-6.7,19.4c-9.1-4.4-14.8-13-18.6-22.1c-4.5-10.3-3.5-22.5-10.1-31.9
		c-11.2-12.7-21.9-0.9-27.6,9.2c-6.2,8.6-19.7,12.8-27.5,4c-27.5-35.7,62.2-85,79.1-10.4C168.4,420.2,169.3,432.4,178.1,440.7z"/>
	<path class="st0" d="M286.1,439.3c-32,25.8-74.5,35.9-114.9,31.7c4.4-10.8,8.5-20.9,11.4-32.3c26-2.5,55-4.3,75.6-22.1
		C266.4,425.3,276.1,432.1,286.1,439.3z"/>
	<path class="st0" d="M442.3,280.1c-14.3,8.4-6,18.1,1,28.1c-0.5,1-1.1,0.7-1.7,0.6c-6.7-0.6-15.2-4.2-20.1,2.2
		c-14.5-20.5-34.9-40.7-62.2-38.1c-8.7,0.4-17.2,2.4-25.4,5.3c-1.5,0.5-2.9,1.3-4.5,0.4C357,248,412.7,253.8,442.3,280.1z"/>
	<path class="st0" d="M463.5,327.1c-1.6,7.4,3.3,15.1,1,22.5c-3.7,9.6-19.2-0.7-19.1-8.4c-0.7-5.9,2.7-10.8,4.4-16
		c-0.7-0.7-1.3-0.3-1.8-0.1c-8.8,4.1-25.4,10.9-26.4-4.2c-2.2-17.6,14.1-9.8,24.3-10.2c-0.8-8.4-15.5-16.1-7.7-24.9
		c16.2-16.3,16.6,7.5,19.9,18.5c6.2-12.5,10.5-24.6,25.6-11.8c9.2,10.4-11.1,14.3-14.3,21c8.9,4.8,32.4,4.6,20.4,20.7
		C480.8,341.6,472.2,327.1,463.5,327.1z M446.9,315.8c-0.4,14.2,21.8,14.3,21.6,0.1C469,301.8,446.5,301.7,446.9,315.8z"/>
	<path class="st0" d="M170.3,391.1c3.8-4.5,7.3-8.5,12.2-10.7c2,2.4,0.3,7.3,1.1,10.4c5.5,6.3,1.6-22.3,2.4-24.8
		c2-23.2,34.2-20.6,34.3,2.2C220.2,403.3,192.4,434.9,170.3,391.1z"/>
	<path class="st0" d="M182.7,436.7c1.7-8,2.1-15,1.6-23.1c20.3,7.9,31.6-9.3,36.6-26.5c9.4,4.2,17.4,9.5,27,13.5
		c2.8,4.4,5.8,9.3,8.9,14.2C238.1,432.8,207.4,434.5,182.7,436.7z"/>
	<path class="st0" d="M341.3,444.4c1.1,0.3,1.8,0.5,2.4,0.6c1.3,10.8,5.5,16.7,16.9,18.3c1.1,3.1,3.3,5.1,6.8,5.4
		c10.5,1.4,21.2,2.3,31.6,4.2c1.1,5.4,10.3,24.9,3.5,26.8c-22.8,6.6-46.7,6.9-69.6,0.8c-4.3-0.3-7.3-3.8-5.3-8
		C332.3,476.6,336.4,460.4,341.3,444.4z M386.5,472.6c-13.1,0.3-25.9,0.7-39-0.1c-4.2-0.1-5,13.4-6.8,17c-2.3,8.9,16.9,7.7,22.5,9
		c8.4,0.5,16.6-1.2,24.7-3.1c3.1-0.7,4.3-3,3.6-6C389.9,483.8,389,477.9,386.5,472.6z"/>
	<path class="st0" d="M195.1,482.8c10.9,2,21.4,2.9,32.5,2.7c-0.2,5.7-2.5,10.9-3.6,16.5c21.1,23.8,6.9,34.4-19,24.4
		c-5.1-2.5-7.9-6.7-7.6-12.5C197.3,503.5,194.5,493.2,195.1,482.8z"/>
	<path class="st0" d="M216.8,351.6c14.9-10.6,40.4,16.1,44.9,29.6c2.8,8.8-5.8,18.3-14.8,15.3c-8.7-3.7-16.6-8.9-25.2-12.9
		C224.3,372.6,224.9,360.5,216.8,351.6z"/>
	<path class="st0" d="M324.3,277.7c22.9-46.7,97.1-41.5,122.6,0.4c-2.2,2.2-4.2-0.5-5.9-1.8c-10.9-8.7-23.4-14.3-36.9-17.5
		c-25.8-5.8-55.6-2.1-75.3,16.8C327.4,277.2,326.6,277.6,324.3,277.7z"/>
	<path class="st0" d="M363.9,457.2c-0.8-6.2,3.9-31.1,12.4-22.2c9.8,7,20.1,13.2,29.8,20.3c5.4,4.6,1.9,14-5.2,14.1
		c-11.3-0.2-22.4-2.9-33.7-3.9C363,465.4,363.9,460,363.9,457.2z"/>
	<path class="st0" d="M339.9,511.1c-0.2-1.8-0.5-3.5-0.8-5.5c7.8,0.6,14.9,2.2,22.7,2.9c0.3,5.1,2.4,11.5-1.5,15.6
		c-10.3,9.4-28.5,16.1-41.6,9c-7.1-5.1-2.9-16.6,4.6-19.2C328.8,511.4,334.3,512,339.9,511.1z"/>
	<path class="st0" d="M367.9,508.8c7.7-1,15-1.9,22.5-2.8c0.3,1.6-0.1,3.4-0.3,5c6.3,1.1,13,0.4,18.6,4.1c7.2,3.8,8.9,16.4,0,19.4
		c-13,4.5-28.9-1.2-38.9-10C365.6,520.3,368.1,514.1,367.9,508.8z"/>
	<path class="st0" d="M337.4,444c-0.2,7.1-10,36.5-11,39.8c-10.1-2.5-18.6-10.3-23.5-19.3c-1.5-2.3,0.6-3.7,2.5-4.5
		C316.1,454.9,326.6,449.3,337.4,444z"/>
	<path class="st0" d="M337.7,285.1c-3.2,1.6-6.2,4.8-10,4.4c-20.4-3.6-38.9,11.8-42.2,31.4C276.6,292.7,314.3,266.6,337.7,285.1z"/>
	<path class="st0" d="M233.5,476.1c5.6,1,11,1.9,16.5,2.9c-2.8,8-9.9,13.3-15.8,19.1c1.4,5.5,4.8,10.7,2.8,16.4
		c-3.6-4.4-6.1-8.6-9.4-13C229.5,493.1,231.5,484.7,233.5,476.1z"/>
	<path class="st0" d="M326.6,291.4c-14.5,9.6-27,19.8-38.3,32.8C286.1,305.3,307.7,287.8,326.6,291.4z"/>
	<path class="st0" d="M491.8,336c-5.9,9.3-14.9,19.2-26.8,17.8c3.8-7.9,0.7-16.3,0-24.6C473.7,332.7,482,342.2,491.8,336z"/>
	<path class="st0" d="M230.9,470.3c-0.5,4.5-1.5,8.5-2.4,12.5c-6,1.9-27.7,0.1-33.5-2.6c-0.1-1.6-0.4-3,0-4.8
		C207.3,474.7,218.8,472.5,230.9,470.3z"/>
	<path class="st0" d="M360.5,459.4c-16.2,0.7-17.8-23.7-0.4-24.9c1.4-3.3,3.6-5.6,7.2-2.3C362.5,440.6,360.1,449.6,360.5,459.4z"/>
	<path class="st0" d="M298.1,473.1c-2.3-2.1-2.4-6.7,1.3-7.2c12.9,17,10.8,12.6,20.7,19.4C312.4,500.3,290.4,488,298.1,473.1z"/>
	<path class="st0" d="M329.9,419.6c3.6-0.3,6.8-0.6,10.3-0.9c0.5,2.8-0.7,5.8-0.2,8.7c3.2,2.8,2.5-5.7,3-7.6
		c4.4,2.1,8.1,3.8,12.9,4.9c-1.7,5.1-8,12.1-13.8,10c-1-0.5-2-0.7-3.1-0.6C332.6,433.4,330.4,425.1,329.9,419.6z"/>
	<path class="st0" d="M182.7,367.6c-0.4,3.5,0.6,6.5,0.4,9.8c-5,3.1-9.3,6.6-13.3,11C161.7,378.6,168.7,359.8,182.7,367.6z"/>
	<path class="st0" d="M255.6,461.9c-0.2,2.8-1.7,7.7-4.5,14.6c-5.5,0.7-11.4-1.3-16.8-2.3c-0.3-2.5-0.3-2.5,0.7-5
		C241.8,466.8,248.6,464.4,255.6,461.9z"/>
	<path class="st0" d="M401.4,377.2c0.2,6-9.5,6-9.4,0C392.1,371.1,401.5,371.2,401.4,377.2z"/>
	<path class="st0" d="M435.6,332c3.9-1.3,6.7-2.3,10.6-3.8c-0.9,4.6-3,8.3-2.9,13C441.1,340,438.5,336.9,435.6,332z"/>
	<path class="st0" d="M135.1,334.2c1.4-0.3,2.7-0.5,4.2-0.8c3.4,3.6,8.1,4.4,13.1,5.1C148.6,343.6,137.1,341.5,135.1,334.2z"/>
	<path class="st0" d="M153.2,307.1c0,4-6.2,4.1-6.1,0C147,302.7,153.4,302.7,153.2,307.1z"/>
	<path class="st0" d="M353.6,398.2c0,3.8-6,3.4-5.6-0.3C348.3,394.6,353.8,394.6,353.6,398.2z"/>
	<path class="st0" d="M375.3,604.2c13.1-7.7,29.4-10.7,43.9-5.8c-6.5,16.1,5.1,29.2,19.3,35.8c-10.7,15.8-11.1,39.6,11.6,43.6
		c-1.8,5-6.8,10.5-16.9,18.3c37.3,62.4-52.5,118.1-91.9,57.8c-62.2,35.6-117.1-51.3-57.9-91.8C245.7,599.2,336.7,543.9,375.3,604.2z
		 M320.4,678.2c-0.7,50.2,77.6,53.4,78.5,0.1C398.2,626.5,320.9,627.5,320.4,678.2z"/>
	<path class="st0" d="M228.7,674.2c16.9-4.4,32.2-15.1,50.1-16.7c0.7,1.2,1.4,2.4,2.2,3.7c-17.9,12.8-26.8,33.3-24.2,55.1
		c-11.6,0.3-24.9-7.3-12.8,10.7c11.7,20.7,41.6,45.8,15.2,67.4c-32.4,27.7-44.1,3.5-49.1-28.7c-2.5-8.9-1.4-23.4-6.9-30.3
		c-5.4,3.7-8.3,19.3-12.1,25.8c-13,32-40.8,31.1-63.7,9.4c-25-27.5,24.3-45,41.4-58.9c14.1-10.2-49.5-12.4-62-27.6
		c-16.9-13.8-0.4-49.6,21.5-44c14.4,2.7,26.6,11.3,38.8,18.8c5.4,2.3,22.2,17.4,22,4c0.9-20.3-22.3-81.4,16.6-73.8
		c30.8,7.4,45,33.5,31.7,62.8C235.9,657.9,227.9,669,228.7,674.2z M205.3,729.6c35.2,1.7,40.4-56.2,0.1-57.7
		C167,672.4,167.8,730,205.3,729.6z"/>
	<path class="st0" d="M150.9,559.2c29.5-5.4,41.1,18.5,19.2,38.7c12.1,9.9,11.7,12.6,12.4,27.6c-1.1,11.8-16.9,13.3-26.4,13.6
		c-0.1,3.5,0.8,6.8,0.2,10.1c-10.9-4-21.2-12-33.5-11.3c-16.8-0.1-25.4,19.7-24.8,34.3c-16.7,4.1-22.1-14.5-22.4-27.5
		c-30.1,3.9-40.6-18.5-18.9-39.3c-24.4-17.2-16.4-41.8,13.5-41.1c-3.5-28.6,17.3-41.8,38.9-19.5c3.6-1.7,5.5-5.8,8.7-8.3
		C137.5,520.6,151.8,539.3,150.9,559.2z M148.1,601.6c0.2-43.5-68.6-47.4-69.5,0.6C79,648,148.5,646.7,148.1,601.6z"/>
	<path class="st0" d="M566,598c31.6,13,28.5,43.2-4.9,49c-0.8,1.1-0.2,2,0.1,2.9c1.5,4.5,2.6,9,2.8,13.8
		c0.8,25.9-25.6,27.4-42.3,14.6c-14.5,31.3-42.8,28.8-49.6-5.5c-32.3,11.1-50.8-8.9-31-39.4c-31.7-13.3-28-43.2,5.5-49.2
		c-11.9-32.7,10.3-50.5,39.3-31c12.9-31.5,43.4-28.6,49.2,5.5C567.2,546.4,586,569.6,566,598z M555.5,601
		c14.2-22.7-0.6-40.9-25.8-32.5c-5.1-25.7-30.1-28.3-40.9-4.6c-22.5-14-41,0.6-32.4,25.7c-26.1,6-28.4,29.3-4.7,41.2
		c-14.4,21.5,1.1,41.3,25.6,32.2c5.7,25.9,29.7,28.5,41,4.8c22.8,14,40.8-0.5,32.6-25.9C576.6,636.8,579.3,611.6,555.5,601z"/>
	<path class="st0" d="M98.5,674.7c1.5,4.3,4,8,7.6,11.2c-23.7,17.9-41.9-5.1-40.2-29.7c-37.6,5.5-52.5-23.1-24.3-49.5
		c-30.8-22.8-21.1-53.2,17.6-52.2c-5.7-37.6,22.7-52.7,49.2-24.7c5.1-3.9,8.6-10.4,14.8-13.7c24-14.7,38.9,8.8,37.8,31.4
		c7.4,0.3,14.9-1.4,22.2,1.1c16.5,3.8,21.5,24.1,11.7,36.9c-8.8,6-12.1,9.8-13.1,21.1c-3.5-2.7-5.4-5.8-9-8.4
		c20.6-21.2,9.3-44.6-20.2-41c0.1-29.5-25.3-37.9-43.1-14.6c-21-20.9-44.6-8.9-40.9,20.2c-29.3-0.3-37.9,25.5-14.7,42.9
		c-19.8,20.3-10,44.8,19.9,41C75.2,661.6,80.3,676.3,98.5,674.7z"/>
	<path class="st0" d="M158.2,651.2c0-3.9,0-7,0-10.2c9-0.5,18.1-2.2,24.4-9.2c0.7,0,0.7,0.5,0.8,1c0.7,4.5,1.4,9,2.1,13.5
		c-4.7,3-12.1,2.4-17.7,2.8c-0.7,2.7,0.7,5.1,0,7.8C164.3,655.2,161.4,652.8,158.2,651.2z"/>
	<path class="st0" d="M409.3,113.2c-26.2,35.3-70.6-0.8-51.4-32.1c-31.4-24.2-4.8-69.4,32.3-51.4c20-31.6,72.1-5.1,51.3,32.2
		C474,84.7,443.4,132.9,409.3,113.2z M399.1,48.6c-29-0.5-30.8,44.1-0.7,45.1C429.5,93.8,427.5,48,399.1,48.6z"/>
	<path class="st0" d="M368.2,23.9c5.7-15.6,25.6-21.4,38.5-9.4c-12.4,6.1-10.9,6.2-17.3,12.8C382.7,24,375.7,23,368.2,23.9z"/>
	<path class="st0" d="M392.1,128.6c7.5-2.7,12.4-7.1,18-12.6c6.3,2.7,13.7,4.5,20.7,3.2C427.2,134.6,404.2,140.2,392.1,128.6z"/>
	<path class="st0" d="M456.1,79.1c-2.3-7.4-6.3-13.1-12.2-17.5c3.6-6.7,4-13.5,4.2-20.8C461.7,46,468.5,64.9,456.1,79.1z"/>
	<path class="st0" d="M343.3,64.4c2.3,6.9,6.1,12.7,12.1,17.2c-3.5,6.5-4.6,13.3-3.9,20.7C336.4,97.6,331.7,75,343.3,64.4z"/>
	<path class="st0" d="M217.2,118.4c-26.5,13.2-37.8-2.9-17.9-23.6c1.4-1.3,3-2.4,3.6-4.5c-2.2-4.4-8.1-4.3-11.9-6.8
		c-23-14.4-9-28,13-26.2c-19.4-22.4-4.1-38,19.9-22.7c4.5,4,7.5,2.6,8.2-3.3c9.8-39.9,36.3-17.4,29,13.2
		c10.3-6.8,38.5-18.3,33.4,5.2c-1.4,5-4.1,9.2-7.7,12.9c-2.1,2.3-5.2,4-5.5,7.5c3.5,3.9,9.8,3.7,13.8,7.3c22,17.8-0.4,26.4-19,24.2
		c17.8,25.9,4.5,51.2-21.5,23.4c-1.2-1.7-4.3-5.1-6.3-2.8C237.5,145.9,212.8,152.1,217.2,118.4z M242.5,111.2
		c40.5,0.5,41.8-62.8-0.1-63.1C200.6,48.5,201.3,111.2,242.5,111.2z"/>
	<path class="st0" d="M552.9,16c16.3-8,22.7,2.8,10.4,14.9c-5.5,4.8,5.1,5.1,7.5,8c11.4,8.6,1.2,15.4-9.2,14.6
		c-0.5,1.3,0.4,1.7,0.9,2.4c8.7,11.3,0.6,19.3-11.3,12.9c-2.1-0.9-5.7-5.1-7-1.2c-4.8,25.2-22.6,14.4-18.2-6.3
		c-16.5,11.7-29.7,2.7-13.4-13.2c3.5-3.8-3.7-4.3-5.9-5.9c-14.7-9.4-3.2-17.4,9.6-15.8c0.6-0.8-0.2-1.3-0.5-1.8
		c-11-18.2,2.6-27.2,15.8-10.7c2,1.6,3.3-1.2,4-2.7C543.1-2.6,554.9-1.1,552.9,16z M553,39.6c0.3-19.9-31.3-21-31.3,0.5
		C522.2,60.3,553.1,60.4,553,39.6z"/>
	<path class="st0" d="M66.4,55.8C54.9,39.7,64.9,24.5,80,42.2c4.5,4.8,5.6-5.6,9.1-7.3c9.9-9.1,14.8,0.2,13.2,10.4
		c20.3-8.1,21.1,4.7,8.8,17.4c1,2.7,4.7,2.7,6.9,4.1c13.9,8.5,6.5,16.4-7,16.3c1.4,3.8,5.3,7.3,4.8,12c-2.5,10.1-15,3.2-20.6,0.1
		c-2.6,1.7-1.9,5.3-3.1,7.9c-9.3,20-19.7,1.2-16.9-12.2C58.9,102.2,46.1,93.1,62,77.6c4.7-4.6-8.2-5.2-10-9.6
		C43.1,57.5,58.6,54.9,66.4,55.8z M87.4,53.6c-20.6-0.5-21.5,30.2-1.1,31.3C106.4,86,108.7,54.3,87.4,53.6z"/>
	<path class="st0" d="M523.5,475c-17.4,11.9-28.5,1.1-12.4-14.1c1.8-2.3-1.3-3.3-3.1-3.8c-17.6-8-10.2-19,6.6-17.2
		c-10.4-16.1-1.9-31,13.6-13.8c4.8,5.6,6-5.7,9.9-7.5c9.7-8.7,14.6,1.6,12.7,11.1c19.9-9,21.3,4.8,8.8,17.1c0.7,2.4,3.4,2.5,5.3,3.3
		c15,7.5,9.7,17.7-5.7,17c7.7,9.8,7.2,21.3-7.9,16.1c-2.8-0.3-6.9-6.1-8.9-2.5C536.6,505.9,521.1,496.4,523.5,475z M535.3,468.9
		c19.7,0.8,21.8-30.9,0.1-31.3C514.5,437.5,515.3,469.2,535.3,468.9z"/>
	<path class="st0" d="M19,334.1c-11.6-15.3-2.1-31.1,13-14c0.9,0.9,1.7,2.1,3.3,1.9c7.6-13.7,21.1-19.8,19.8,1.9
		c15.1-8,22.8,2.2,10.9,14.3c-1.2,1.1-3.5,2.9-1.4,4.3c16.2,5.7,19.5,19-1.3,19c12.5,18.1-1.2,21.4-15.6,12.2
		c-1.4,0.9-1.7,2.3-1.9,3.7c-6,23.8-21.8,10.2-17.8-8C12.3,379.2-1.5,374,13.4,357c1.4-1.6,1.5-1.5,2.1-3.7
		C-3.1,345.4-3.3,332.7,19,334.1z M39.7,363.2c20.6-0.3,20.1-31.7-0.7-31.3C18.9,332.3,19.1,363.5,39.7,363.2z"/>
	<path class="st0" d="M545.8,337.1c-25,14.1-47.2-21.1-23.4-37.4c-14.9-25.5,21.4-48,37.6-23.7c25.4-13.9,46.7,20.4,23.7,37.8
		C597.7,338,563.6,361.6,545.8,337.1z M553.2,323.2c21.8,0.5,23-33.7,0.2-33.9C530.5,289.4,532,323.7,553.2,323.2z"/>
	<path class="st0" d="M13.2,170.6c-15.3-25.3,21.4-48.1,37.4-23.5c24.2-14,47.7,19.8,23.7,37.6c14.4,24.3-20.1,48-37.8,23.4
		C11.6,222.4-10.8,186.8,13.2,170.6z M61.1,177.5c0.8-20.8-32.9-24.3-33.9-0.4C27.2,200,61,199.1,61.1,177.5z"/>
	<path d="M386.5,472.6c2.4,5.3,3.3,11.2,5.1,16.8c0.8,3-0.5,5.3-3.6,6c-8.1,1.9-16.3,3.5-24.7,3.1c-5.7-1.3-24.8-0.2-22.5-9
		c1.7-3.6,2.6-17.1,6.8-17C360.6,473.3,373.4,472.9,386.5,472.6z M385.4,474.6c-12.9,0-25.6,0-38.2,0c-0.9,3.4-7.3,17.7-3,18.8
		c8.1,1.9,16.6,3.8,25,3.2C390.6,492.9,393.5,498.1,385.4,474.6z"/>
	<path class="st0" d="M278.5,177.9c5.9-6.8,39.8-28.3,46.2-18.7c6.1,22.4,5.9,48.2-3.1,69.6C311.8,208.2,297.4,190.7,278.5,177.9z"
		/>
	<path class="st0" d="M173.3,165.9c-17.5,5.8-33.1,14.9-46.4,27.4c-3.1-15.9,4.3-37,12-51.7C146,135.2,170.4,158.9,173.3,165.9z"/>
	<path class="st0" d="M328.5,361.3c-0.1,6-9.3,5.7-9.1-0.2C319.4,355.1,328.8,355.4,328.5,361.3z"/>
	<path class="st0" d="M457.8,324.9c-11.9-0.1-12-17.8,0-18.1C469.3,306.8,469.4,324.8,457.8,324.9z"/>
	<path class="st0" d="M385.4,474.6c8.1,23.5,5.2,18.3-16.2,22.1c-8.4,0.6-16.8-1.4-25-3.2c-4.4-1.1,2.1-15.4,2.9-18.8
		C359.8,474.6,372.4,474.6,385.4,474.6z"/>
	<path class="st0" d="M322.2,678.4c1-49.6,74-48.8,74.9-0.2C395.9,728.9,322.2,726.2,322.2,678.4z"/>
	<path class="st0" d="M178.2,700.7c0-34.8,54-36.3,54.2,0.3C231.5,737.7,177.9,735,178.2,700.7z"/>
	<path class="st0" d="M113.4,634.8c-44.4-1-42.2-66.2,0.2-66C157.4,569.6,155.7,634.8,113.4,634.8z"/>
	<path class="st0" d="M454.4,629.8c-24.7-10.7-22.5-33.8,3.9-38.8c0.4-4-2.4-8.1-2.2-12.4c-1.2-20.9,19.8-22.5,33.5-12.2
		c10.8-24.9,33.8-22.4,39,4.3c25.4-9.3,39.9,8.2,24.3,30.9c25.1,11.1,22.3,33.7-4.4,39.1c10.1,25.1-8.7,39.8-30.7,24.2
		c-10.8,25-34.1,22.2-39-4.5C453.5,670.6,438.7,652,454.4,629.8z M472.1,615.7c-0.3,40.9,62.8,42.1,63.1,0
		C535.1,574.8,472.6,573.9,472.1,615.7z"/>
	<path class="st0" d="M378.1,71c0.4-27.2,41.3-27,41.6,0.4C419.2,98.7,377.7,98.3,378.1,71z"/>
	<path class="st0" d="M242.6,49.9c39,0.1,38.5,60.1-0.6,59.5C201.5,108,204.9,49.1,242.6,49.9z"/>
	<path class="st0" d="M551.3,40c-0.3,17.8-27.8,18.3-27.8-0.4C523.8,21.5,551.4,21.8,551.3,40z"/>
	<path class="st0" d="M73.1,69.3C72.9,51,100.7,51,100.9,69.1C100.9,87.3,73.3,87.5,73.1,69.3z"/>
	<path class="st0" d="M521.6,453.4c-0.4-17.5,27.2-19.1,27.8-0.2C549.3,471.5,521.7,471.5,521.6,453.4z"/>
	<path class="st0" d="M39.3,361.5c-18.1-0.2-18-27.9,0.2-27.8C57.9,334,57.4,361.5,39.3,361.5z"/>
	<path class="st0" d="M553.5,291.1c19.1-0.2,20.7,30.1-0.1,30.4C533.1,321.2,533.9,291,553.5,291.1z"/>
	<path class="st0" d="M59.4,177.4c-0.8,20.6-30.8,18.8-30.5-0.3C29,158.2,58.7,156.4,59.4,177.4z"/>
	<path class="st0" d="M503.7,586c39.3,0.7,38.9,58.8,0.1,59.5C463.8,644.8,465.2,586,503.7,586z"/>
</g>
</svg>
