<?xml version="1.0" encoding="utf-8"?>
<!-- Generator: Adobe Illustrator 26.0.0, SVG Export Plug-In . SVG Version: 6.00 Build 0)  -->
<svg version="1.1" id="Capa_1" xmlns="http://www.w3.org/2000/svg" xmlns:xlink="http://www.w3.org/1999/xlink" x="0px" y="0px"
	 viewBox="0 0 595.3 936.9" style="enable-background:new 0 0 595.3 936.9;" xml:space="preserve">
<style type="text/css">
	.st0{fill:#FFFFFF;}
</style>
<g>
	<path d="M188.6,851.9c-2-1.3-3.8-2.6-5.8-3.7c-9.1-5.2-16.1-12.6-20.5-22.1c-1.4-3-1.7-6.5-2.7-9.6c-0.4-1.3-1.3-3.1-2.4-3.5
		c-12.8-5.3-25.6-10.5-38.5-15.5c-9.3-3.5-18.6-6.9-28.1-9.9c-16.6-5.1-33.2-9.9-50-14.5c-8.1-2.2-16.4-3.6-24.6-5.4
		c-2.8-0.6-5.3-1.4-6.4-4.6c-1.1-3.2,0.1-6.5,3-8.2c21.9-12.2,43.8-24.5,65.8-36.8c18.4-10.2,36.8-20.4,55.2-30.7
		c6.3-3.5,12.5-7.1,19.1-10.8c-5.5-3.1-10.9-6.1-16.4-9c-14.8-7.7-30.1-14.4-46.1-19.4c-4.6-1.5-9.4-2.3-14-3.6
		c-4-1.1-8.1-1.4-12.2-1.5c-6.4,0-11.7-5.4-11.6-11.7c0.1-5.3-2.8-9.6-3.9-14.4c-2.8-12.4-0.2-23.5,8-33
		c6.4-7.5,14.8-11.7,24.9-12.3c0.2,0,0.4-0.2,0.8-0.4c-3.2-3.8-6.4-7.6-9.4-11.4c-10.9-13.8-18.8-29.3-24.9-45.8
		c-6.6-18-10.8-36.6-13-55.6c-1.1-9.7-1.9-19.5-2.3-29.3c-0.5-11.9-0.1-23.8-0.5-35.7c-0.6-14.9-1.7-29.8-6.3-44.2
		c-4.2-13.1-10.8-24.4-22.6-32c-2.9-1.8-4-5.1-2.3-8.1c3.2-5.9,6.5-11.9,10.3-17.4c7.3-10.7,14.5-21.6,22.7-31.7
		c9.4-11.6,19.7-22.6,29.9-33.6c11.4-12.3,24-23.3,37.2-33.6c10.2-8,20.8-15.6,31.7-22.7c10.8-7.1,21.9-13.6,33.3-19.8
		c20-10.9,40.9-19.7,62.5-26.9c10.7-3.6,18.1-16.1,17.5-25.8c-0.9-13.5-13.1-24.5-25.2-24.5c-5.7,0-11,0.8-16.2,3
		c-2.6,1.1-5.5,2.1-8.2,0c-3.1-2.5-3.4-6.2-0.7-9.4c5-6,10.9-10.9,17.7-14.7c10.8-6,22.4-8.7,34.7-8.4c18.1,0.5,34.5,6.2,48.7,17.5
		c1,0.8,1.9,1.7,2.8,2.5c0.3-0.1,0.6-0.2,0.9-0.3c-0.5-2.8-0.8-5.7-1.5-8.4c-2.2-8.4-6.8-15.5-12.4-22c-7.7-9-17.1-15.6-28-20.3
		c-4.7-2-5.9-3.7-5.5-7.4c0.3-3.1,2.6-5.3,5.7-5.4c15.2-0.4,30.3,0.6,45.1,4.4c18.8,4.8,35.9,13.2,51.2,25.1
		c14.3,11.1,25.9,24.6,35.2,40.1c9.6,16,16.2,33.2,20,51.4c1.5,7,2.1,14.2,3,21.4c0.2,2,0.9,3.2,2.7,4.3
		c17.2,10.8,33.3,23.1,48.7,36.5c17,14.8,32.6,30.9,47,48.2c12.9,15.6,24.6,32.1,35.2,49.3c9.3,15.1,17.5,30.7,24.6,46.9
		c6.6,14.8,12.2,30,16.9,45.6c1,3.5,2,7,2.9,10.5c1,4-0.5,7.1-4.4,8.4c-14.3,4.5-23.6,14.8-30.8,27.2c-9.1,15.7-14.6,32.9-18.9,50.5
		c-4.5,18.4-10.1,36.4-17.2,54c-5.3,13.2-11.7,25.9-19.1,38c-0.2,0.3-0.4,0.7-0.6,1.1c59.3,6.3,96.4,55.5,95.3,106.6
		C593.9,729.1,546,771,493.9,772.4c-32.2,0.9-59.9-10.5-81.5-34.6c-21.6-24-29.9-52.5-26.2-85.1c-12.9,7.6-26.1,13.6-39.9,18.3
		c-13.9,4.7-28.1,7.8-43.2,9.7c0.9,0.7,1.4,1.2,2,1.6c15.3,10.1,26.7,23.6,34.1,40.4c6,13.7,8.7,28.1,7.1,43.1
		c-1.7,15.4-7.2,29.4-17.7,41c-1.4,1.5-1.5,3-1.1,5c1.4,6.5,2.5,13.1,3.8,19.6c1.8,9.1,3.8,18.1,5.6,27.2c1.9,9.8,3.7,19.6,5.5,29.4
		c1.3,6.6,2.6,13.2,3.9,19.8c0.8,3.8-0.2,7-3,8.3c-2.7,1.3-5.4,0.8-8-1.1c-10.7-7.7-21.5-15.2-32.2-22.9c-1.5-1.1-2.5-1-4.1,0
		c-6,3.5-12.5,5.5-19.4,5.9c-1.1,0.1-2.5,0.7-3.2,1.6c-5.4,7.1-11.8,12.8-20.3,15.7c-3.6,1.2-7.6,1.7-11.4,2.2
		c-2,0.3-3.3,1.2-4.7,2.8c-5.9,7.3-12.7,13.6-22.3,15.7c-10.1,2.3-18.9-0.9-27.2-6.5c-13.3-8.9-18.2-27.4-15.4-41.6
		c1.1-5.5,2.4-11,3.5-16.5C179.5,867.3,184.6,857.1,188.6,851.9z"/>
	<path class="st0" d="M104.7,581.4c-1.9-1.3-3.9-2.5-5.7-3.9c-13.5-9.9-23.7-22.8-32.2-37.1C57,523.9,50.7,506,46.1,487.3
		c-4.3-17.7-6.5-35.7-7.5-53.8c-0.7-12.7,0.1-25.5-0.4-38.3c-0.7-18.6-2.2-37.1-9.3-54.6c-4.4-10.9-10.9-20.3-20.8-27
		c-0.6-0.4-1.1-0.8-1.7-1.2c-0.1-0.1-0.2-0.3-0.4-0.7c2.7-4.5,5.3-9.1,8.2-13.6c11.6-18.5,24.6-35.9,39.1-52.2
		C69,228.5,86,212.5,104.3,198c13.5-10.7,27.4-20.7,42.2-29.5c11.8-7,23.9-13.8,36.3-19.8c16.6-8.1,33.7-15,51.4-20.5
		c15.7-4.9,30.9-10.8,44.7-20c9.5-6.4,17.9-14,23-24.6c5.4-11.1,5.8-22.4,1.5-33.8c-6.5-17.2-18.8-29.2-34.3-38.4
		c-3-1.7-6.1-3.2-9.6-5c1.1-0.2,1.8-0.4,2.5-0.4c14.5-0.1,28.9,1.1,43,5.2c17.2,5,33,12.6,47,23.8c22.7,18.2,38.1,41.5,47.3,69
		c4.7,13.9,7.2,28.2,8.1,42.8c0.1,1,0.9,2.3,1.7,2.8c21.4,13.4,41.3,28.7,59.8,45.8c17.3,15.9,33.1,33.1,47.4,51.7
		c20.2,26.2,37,54.5,50.3,84.8c6.8,15.5,12.3,31.5,17.2,47.7c1.8,6,1.8,6.1-4.1,8.6c-10.2,4.3-17.8,11.9-24.2,20.7
		c-8.6,11.8-14.2,25-18.4,38.8c-4.2,13.8-7.6,27.7-11.6,41.5c-4.1,14.1-8.9,28-15.3,41.2c-5,10.2-10.6,20.1-15.9,30.1
		c-0.8,1.5-1.8,2-3.5,2c-2.7-0.1-5.3,0.2-8.6,0.4c1.5-2.5,2.8-4.3,3.9-6.3c6-10.6,8.6-21.9,7.2-34c-0.8-7-3.5-13.2-9.5-17.5
		c-0.7-0.5-1.1-1.9-1-2.8c0.6-9.2,2-18.3,2-27.5c0-9.8-0.8-19.6-2.1-29.3c-2.9-22-9.7-42.9-19.8-62.7c-9.6-18.8-22.2-35.4-36.8-50.5
		c-3.8-3.9-5.8-3.6-8.3,1.3c-13.1,26.3-39.5,40.7-68.5,36.9c-16.1-2.1-29.5-9.6-40.2-21.9c-0.7-0.8-1.5-1.7-2.2-2.5
		c-0.1-0.1-0.1-0.3-0.2-0.8c3.1,1.4,6,2.9,9,4.1c20,7.8,41.2-2.8,46.1-23.7c2.9-12.3,0-23.5-8.9-32.9c-9.1-9.6-20.4-14.2-33.1-16.6
		c-16.7-3.2-33.6-4.5-50.5-3.8c-16.8,0.7-33.2,3.5-49.4,8.3c-14.9,4.4-29.3,10.3-42.8,18c-21.5,12.2-40.1,27.8-55.9,46.9
		c-10.1,12.2-18.7,25.5-25.6,39.7c-8.1,16.6-13.9,34-16.9,52.3c-0.8,4.5-1.3,9.1-2.1,13.6c-0.2,0.8-0.9,2-1.6,2.2
		c-7.6,2.7-11.6,8.7-14.1,15.7c-5.1,14.6-3.9,29,2.4,43c3.1,6.9,7.7,12.8,15.1,15.8c0.9,0.4,1.8,0.8,2.7,0.9
		c1.7,0.2,2.3,1.1,2.7,2.6c3.7,14,9.4,27.2,16.2,39.9c1.7,3.3,3.6,6.5,5.3,9.7C104.9,581.1,104.8,581.3,104.7,581.4z"/>
	<path class="st0" d="M336.9,584c-5.8-3.8-11.9-6-19-5.9c2.9-20-2.6-36.8-18-49.9c-9.8-8.3-21.6-11.9-34.3-11.3
		c-26.2,1.2-46.8,21.5-48.7,47.9c-6.7-0.8-13.5-1.4-20.4,1.8c4.1-18.3,0.9-34.5-11.5-48.2c-8.7-9.7-19.8-15.1-32.7-16.3
		c-10-0.9-19.7,0.8-28.7,5.7c-9,4.8-15.8,11.8-20.7,20.7c-4.9,8.9-6.5,18.5-6.7,28.7c-1.5-3.7-3.1-7.3-4.4-11.1
		c-2.2-6.2-4.1-12.5-6.2-18.8c-0.2-0.6-0.9-1.5-1.4-1.5c-8.7-0.8-13.6-6.6-17.3-13.5c-6.7-12.6-8.2-25.8-4.1-39.5
		c1.9-6.3,4.6-12,10.6-15.4c0.3-0.2,0.6-0.5,0.9-0.5c5.1-0.3,5.2-4.1,5.6-7.8c2.8-23.9,9.9-46.4,21-67.7
		c7.5-14.4,16.8-27.7,27.7-39.8c16-17.7,34.4-32.1,55.6-43.2c19.3-10.1,39.6-16.8,61.1-20.4c11.7-1.9,23.4-2.9,35.2-2.7
		c16.2,0.2,32.3,1.8,47.8,6.4c12.3,3.6,22.6,10.5,28.1,22.6c4.9,11,3.8,21.7-3.3,31.5c-6.7,9.3-16,13.7-27.4,12.6
		c-10.7-0.9-19.2-6.6-27-13.5c-1.5-1.3-2.7-3-4.1-4.3c0.5,11.9,23.2,33.9,40.1,39.6c8.3,2.8,16.8,4.3,25.5,4
		c8.7-0.3,17.2-2.2,25.2-5.7c8-3.4,15-8.4,21.2-14.4c6.3-6.1,11-13.3,15-21.6c4.1,4.5,8,8.5,11.7,12.7c7.8,9,14.8,18.6,20.8,28.9
		c6.2,10.5,11.3,21.5,15.4,32.9c8.6,23.5,12.3,47.8,11.6,72.8c-0.2,8-1.4,16-2.3,24.1c-0.2,1.6-0.1,2.4,1.6,3.2
		c4.4,2.1,6.7,6,8.1,10.3c3.4,10.5,1.4,20.9-2.5,30.8c-1.9,4.7-4.9,8.9-7.5,13.3c-0.9,1.5-2.4,1.8-4.1,2.2
		c-7.6,1.8-15.1,3.7-22.5,6.1c-4.7,1.5-9.2,4-13.8,6.1c-2.1-14.2-9-25.4-20.5-33.9c-9.8-7.2-21-10.4-33-9.6
		C362,534.1,338.2,551.6,336.9,584z M203.2,518.4c13.5,0.4,25.9-10.7,25.8-25.9c-0.1-14.8-11.1-26.2-26.3-26.2
		c-14.6,0-25.9,11.8-25.8,26.4C177,507,188.5,518.9,203.2,518.4z M323.8,510.8c-1.2,14.4,12,26.2,25.2,26.4
		c14.4,0.3,25.8-11.5,26.5-24.5c0.8-15.1-10.5-27.7-26.2-27.8C335,484.9,322.9,497.2,323.8,510.8z M430.2,456.5
		c-1.3-3.3-2.5-6.6-3.9-9.8c-4.1-9.2-10-17.3-17.2-24.2c-10.2-9.7-22.1-16.5-35.9-19.9c-3.2-0.8-5.8,0.1-6.6,2.7
		c-1.1,3.4,0.1,5.8,3.6,7.1c4.9,1.8,10,3.3,14.7,5.6c13.3,6.5,23.3,16.6,30.4,29.6c1.8,3.4,3.2,7.1,4.8,10.6
		c1.1,2.5,3.3,3.7,5.8,3.3C428,461,429.8,458.9,430.2,456.5z M205.8,381.4c-1,0.1-2.6,0.3-4.1,0.4c-9.4,0.5-18.5,2.7-27.1,6.5
		c-14.1,6.3-25.8,15.8-34.4,28.9c-1.9,2.9-1.9,5.8,0.3,7.4c3,2.3,5.6,1.8,8-1.4c1.5-1.9,2.8-4,4.3-5.8c9.6-11.4,21.4-19.5,35.9-23
		c6.2-1.5,12.6-1.9,19-2.6c3.3-0.4,5.1-1.8,5.1-4.9C212.9,383.2,210.7,381.3,205.8,381.4z"/>
	<path class="st0" d="M249.5,797.6c-3.9,2.1-8,3.8-11.4,6.3c-11.7,8.4-17.2,20.2-17.3,34.4c0,7.1,0.9,14.3,1.6,21.5
		c0.2,1.8,1.1,3.5,1.7,5.5c-0.4-0.1-0.7-0.1-0.9-0.3c-13.4-8-26.8-15.9-40-24.2c-8.5-5.4-14.4-13.1-16.8-22.9
		c-2-8.1-1-16.2,1.5-24.1c3.3-10.4,6.9-20.7,10.3-31c4.2-12.6,8.3-25.3,12.4-38c1.9-5.8,3.8-11.5,5.7-17.2c1.2-3.5,0.3-6.7-2.5-8.9
		c-8.1-6.7-16.1-13.5-24.6-19.6c-12.7-9.2-26.7-16.5-40.9-23.1c-16.7-7.8-33.9-14.5-52.1-18.3c-1.4-0.3-2.9-0.5-4.6-0.7
		c0-0.7-0.1-1.4,0.1-2c5.6-17,12.9-33.3,23.4-48c1.9-2.7,2.2-2.7,5-0.9c1.5,0.9,3.2,1.5,4.4,2.7c2.2,2.1,4.5,4.3,6.2,6.8
		c9.8,13.6,21.1,25.7,33.7,36.7c13.2,11.5,27.8,21,43.5,28.7c11,5.4,22.3,9.9,34.1,13.2c1.3,0.4,2.8,1.6,3.3,2.8
		c6.1,13.5,19.9,21.8,35.9,19.4c8.2-1.3,14.7-5.3,20.2-11.3c0.8-0.9,2.4-1.6,3.5-1.5c11.4,1.2,21.3,5.4,29,14.4
		c5.8,6.8,11.7,13.5,16,21.4c7.4,13.5,11,27.9,10,43.3c-0.9,13.9-5.4,26.6-14.3,37.6c-0.9,1.1-1.8,2.3-2.8,3.4c-0.9,1-1.9,2-3.1,3.3
		c-0.9-1.3-1.7-2.6-2.5-3.8c-3.3-5.5-7.5-10.2-12.9-13.7c-7.9-5.2-16.5-6.8-25.8-4.9c-7.6,1.5-14.6,4.6-21.4,8.2
		c-0.3-9.3-0.6-18.6-0.9-28.2c1.3,0.5,2.7,1.1,4.1,1.7c9.2,4,18.6,5.4,28.3,2.1c9.6-3.3,15.8-12.3,15.9-22.5
		c0.1-6-1.4-11.5-4.1-16.7c-0.2-0.5-0.4-1.1-0.8-1.3c-1.3-0.6-2.8-1-4.2-1.5c-0.2,1.3-0.8,2.7-0.6,3.8c1.7,7.1,1.3,14.3,1.2,21.5
		c-0.1,3.6-2.6,5.6-5.7,8c0-2.5-0.1-4.3,0-6.2c0.9-17.3-11.3-37.2-28.7-44.7c-14.8-6.4-29.7-6.4-43.9,1.3c-17,9.2-26,23.6-26.4,43.2
		c-0.1,7.2,1.8,13.9,3.7,20.8c1.4,5.2,3.7,5.9,8.4,6.5c5.3,0.6,10.4,3.1,15.4,5.1c9.2,3.5,18.3,7.2,27.4,10.9
		C247.6,796.6,248.7,797.2,249.5,797.6z"/>
	<path class="st0" d="M523,578.2c-8.1,7.2-16.1,14.2-22.5,22.8c-1.5,2-2.9,2.5-5.4,2c-5.6-1.2-11.3-2.5-16.9-2.2
		c-7.4,0.3-14.7,2.1-22,3.2c-0.9,0.1-1.9,0.4-3.2,0.6c0.4,0.8,0.6,1.5,1.1,2.2c11.6,18.5,23.7,36.7,34.8,55.5
		c10,17,19.2,34.5,28.4,52c3.3,6.2,5.7,13,8.6,19.5c0.2,0.4,0.4,0.7,0.8,1.6c2.5-2.5,5-4.6,7.2-7c9.8-10.7,16.1-23.1,18.7-37.4
		c0.6-3.4,0.9-6.9,1-10.3c0.1-1.8,0.5-2.5,2.4-2.9c8.5-2,17-4.1,25.5-6.2c1.1-0.3,2.2-0.5,4-0.9c-1.8,29.5-13.5,53.5-36.5,71.4
		c-34.4,26.9-75.6,24.7-104.8,8.3c0.6-0.8,1.2-1.7,1.8-2.5c0.8-1.1,1.8-1.3,3.1-0.8c13.1,5.7,26.9,6.3,40.8,4.8
		c1.6-0.2,3.2-0.7,4.8-1.1c-36.5-34.2-62.6-74.4-74.7-123.1c-7.8,9.6-13.4,20.2-16,32.3c-0.1,0.6-0.3,1.2-0.3,1.8
		c-0.1,1.7-0.7,2.7-2.6,2.9c-1.8,0.1-3.5,0.5-5.7,0.8c1.7-28.3,12.2-52.3,34-70.2C457.1,572.1,488.7,567,523,578.2z"/>
	<path class="st0" d="M158.3,806.2c-45.5-19.2-92.6-35.3-142.5-45.3c1.4-0.7,2.1-1.1,2.8-1.5c17.1-9.6,34.3-19.3,51.4-28.9
		c20.6-11.5,41.3-23,62-34.5c8.6-4.8,17.2-9.6,25.8-14.4c0.6-0.3,1.7-0.4,2.2-0.1c10,6.3,19.4,13.3,28.1,21.3c1.7,1.5,1.9,2.9,1.2,5
		c-5.3,15.8-10.4,31.7-15.6,47.6c-3.3,10.1-7,20.1-10.2,30.2C161.5,792.3,160,799.3,158.3,806.2z"/>
	<path class="st0" d="M100.1,550.8c-0.2-5.6,1.8-12.7,5.2-19.5c5.9-11.9,15.3-20,27.8-23.9c17.8-5.5,33.7-1.7,47.4,11.1
		c8,7.6,12.8,16.9,14.3,27.9c0.9,7,0.5,13.9-2,20.5c-0.7,2-3,3.5-4.7,5c-4.7,4-7.6,9.1-9.6,14.8c-0.5,1.5-1.5,3.2-2.8,4.1
		c-17.6,13.1-41.7,12.4-58.5-1.8C106,579.6,100.4,567.5,100.1,550.8z"/>
	<path class="st0" d="M267.8,662.2c-26-0.4-48.4-9.4-66.7-28.1c-8.5-8.7-15.1-18.8-19.3-30.2c-2.4-6.6-1.4-13.1,1.1-19.5
		c4.6-11.4,17.7-19.3,32-16.6c1.6,0.3,2,1.2,2.1,2.7c0.6,10.8,4.2,20.5,11,28.9c10.1,12.5,23.3,19.1,39.5,19.3
		c23.5,0.2,42.1-14.4,48.9-35.4c0.6-1.9,1.3-2.4,3.3-2.2c13.6,1.4,22.2,8.9,25.9,21.7c2.5,8.6,0.4,16.7-4.9,23.8
		c-8.6,11.5-19.7,20.1-32.4,26.3C295.6,659.2,282,662.5,267.8,662.2z M268.6,638.7c11.2,0.5,22.9-2.6,33.8-9
		c7.5-4.4,14.2-9.9,19.5-16.9c2.1-2.8,1.8-5.2-0.8-7.3c-1.9-1.6-5.2-1.2-7.2,1c-1.7,1.8-3.2,3.9-5,5.6c-8,7.4-17,12.6-27.7,15.1
		c-12.8,2.9-25.1,1.9-37.1-3.3c-14-6-23.9-16.2-30.4-29.9c-1.6-3.3-4.2-4.3-7.3-2.8c-2.4,1.1-3.2,4-2,7c4.8,11.2,12.2,20.3,22,27.4
		C238.5,634.4,252.1,639,268.6,638.7z"/>
	<path class="st0" d="M220.1,567.6c0.2-25.2,20.9-46.5,46-47.4c26.4-1,49.5,20.2,49.5,47.4c0.1,26.5-20.7,47.7-47.1,48
		C242.1,615.9,220.4,595.5,220.1,567.6z M288.7,533.6c-8,0-13.8,6.8-13.6,13.3c0.2,7.2,4.7,13.3,13.8,13.6c6.6,0.2,12.9-6,13-12.7
		C302,539.9,296.1,533.6,288.7,533.6z"/>
	<path class="st0" d="M387.5,536c20.4-0.8,38.8,13.1,44.9,30.4c1.1,3.2,1.8,6.5,2.9,9.7c0.6,2-0.9,2.6-2,3.4
		c-5.2,4.2-10.7,8-15.6,12.5c-7.3,6.6-13.3,14.4-18.1,23c-2.4,4.4-4.6,8.9-6.6,13.5c-0.8,1.7-1.7,2.4-3.5,2.4
		c-11.6-0.2-22.2-3.3-31.3-10.8c-1.5-1.3-3-2.6-4.4-4c-2.8-2.9-4.4-6.1-4.5-10.4c-0.1-5.4-2-10.4-5.6-14.5c-2.7-3-3.5-6.4-3.2-10.2
		c1.8-18.2,10.4-31.8,26.8-40.3C373.7,537.3,380.6,535.7,387.5,536z"/>
	<path class="st0" d="M119.3,595.1c19.7,11.4,38.8,11.1,57.8-0.9c0.1,0.4,0.4,0.8,0.3,1.2c-0.5,7,2.3,13.1,5.4,19
		c10.5,20,26.3,34.3,46.8,43.3c10,4.4,20.6,6.6,31.4,7.6c10.4,1,20.6-0.3,30.7-2.8c14.7-3.6,27.8-10.6,39.1-20.7
		c4-3.6,7.9-7.6,11.2-11.9c2.7-3.5,4.3-7.8,6.4-11.8c0.3-0.6,0.6-1.2,0.9-2.1c11.1,12.4,24.8,18.5,41.5,17.8c-0.9,3-1.5,5.7-2.5,8.4
		c-0.4,1.1-1.5,2.1-2.5,2.8c-19,11.9-39.5,20.1-61.3,25.3c-12.1,2.9-24.4,4.1-36.8,4.8c-14.7,0.8-29.3-0.5-43.7-3.1
		c-15.4-2.7-30.2-7.3-44.6-13.6c-19.1-8.4-36.4-19.4-52.1-33c-9.9-8.5-18.6-18.2-26.8-28.3C120.1,596.7,119.8,596.1,119.3,595.1z"/>
	<path class="st0" d="M246.3,117.1c7.9-11.4,9-23.5,1.3-35.1c-11.7-17.7-28.2-18.9-46.6-11.4c-0.1-0.3-0.2-0.6-0.3-0.9
		c3.2-2.8,6.3-5.8,9.7-8.4c10.5-7.9,22.4-11.7,35.6-11.9c14-0.2,27.1,2.8,39,10.1c4.6,2.8,8.7,6.6,13,9.9c1.6,1.2,1.7,2.8,1.2,4.6
		c-1.8,7-5.5,12.9-10.4,18.1c-7.8,8.3-17.3,14.1-27.4,19c-4.8,2.3-9.7,4.4-14.6,6.6C246.5,117.5,246.4,117.3,246.3,117.1z"/>
	<path class="st0" d="M527.6,661.3c-1-0.7-2.2-1.3-3-2.2c-6.5-6.7-11.2-14.7-15.3-23c-0.9-1.7-0.7-3.5,0.7-4.8
		c4.8-4.6,9.3-9.6,14.5-13.7c8.9-7.1,18.3-13.7,27.4-20.6c1.5-1.2,2.5-0.5,3.3,0.5c5.2,6.2,10.8,12.2,15.5,18.8
		c4.9,6.8,8.1,14.6,10.8,22.6c0.5,1.7,0.4,2.4-1.3,3.4c-11.6,6.3-23.8,11.2-36.4,15C538.5,658.8,533.1,659.9,527.6,661.3z"/>
	<path class="st0" d="M219.3,772.4c-6.5-6.2-12.1-12.8-13.2-22.1c-1-8.6,4.2-17.7,12.1-21.5c7.8-3.8,17.2-2.3,23.6,3.9
		c1.6,1.6,2.5,2,4.9,0.9c13.1-6.6,29.5,3.1,30.1,17.8c0.1,3-0.8,6.1-1.4,9.2c-0.4,2.1-1.9,2.7-3.7,2c-5.1-2-10.3-3.9-15.1-6.5
		c-4.2-2.3-8.2-4.1-13-2.5c-1.6,0.5-3.1,1.5-4.5,2.5c-2.8,2-5.5,4-8.2,6.2c-3.6,3-7.1,6.3-10.6,9.4
		C220.1,771.7,219.7,772,219.3,772.4z"/>
	<path class="st0" d="M278.1,763c2.9-9.2,2.8-17.8-3.2-25.5c-6-7.6-14-10.5-23.5-9c-0.7,0.1-1.5,0-2,0.3c-3.6,2.4-6.1,0.3-9.1-1.6
		c-14.4-9.2-33-1.4-36.8,15.3c-2.4,10.5,1.8,19,8.3,26.7c1.3,1.6,3,2.9,4.4,4.4c0.7,0.7,1.1,1.7,1.6,2.6c-0.2,0.2-0.4,0.5-0.5,0.7
		c-1.2-0.2-2.4-0.4-3.6-0.8c-3.9-1-7.8-2.5-11.7-3c-2.7-0.3-3.7-1.1-4.6-3.6c-2.6-7.6-3.5-15.4-2.2-23.3c3.6-21.4,20.5-37,42.1-39
		c19.2-1.7,37.2,9.3,45.2,25.1c4.1,8.2,5.6,16.7,4.9,25.7c-0.2,2.6-1.1,4-3.8,4.2C281.8,762.4,280.1,762.8,278.1,763z"/>
	<path class="st0" d="M424.2,685.2c2.5-0.8,3.7,0.5,5.2,2.3c5.6,6.5,9.3,14.1,13,21.8c0.9,1.9,0.9,3.4-0.6,5.2
		c-5.7,6.5-11.4,13-17,19.6c-1.3,1.5-2.3,0.8-3.2-0.2c-6.1-6.8-11.9-13.8-15.7-22.1c-2.8-6.1-5-12.5-7.5-18.7
		c-0.7-1.7-0.3-2.4,1.6-2.9c8.1-1.8,16.1-3.8,24.2-5.7C424.2,684.7,424.2,685,424.2,685.2z"/>
	<path class="st0" d="M268.7,898.4c-8,10.5-23.4,16.8-38.7,9.6c-14.8-7-24.5-24.3-19.1-43C230.4,875.9,248,889.8,268.7,898.4z"/>
	<path class="st0" d="M94.7,581.3c-3,4.6-5.9,8.6-8.3,12.9c-7.7,13.1-14,26.9-18,41.6c-0.5,2-4.4,2.9-6.6,1.3
		c-3.5-2.5-4.6-4.6-3.9-8.3c0.3-1.5-0.1-3.5-0.8-4.9c-7-12.4-4.7-28.1,5.6-37.9c7-6.6,15.2-9.6,24.7-8.3
		C89.9,578.1,92.2,580,94.7,581.3z"/>
	<path class="st0" d="M339.5,910c-11-7.8-21.9-15.5-33.2-23.5c6.8-6.2,11-13.8,14.1-22.2c3-8.3,4.7-16.9,5.8-25.8
		c4.6,23.7,9.2,47.4,13.8,71.1C339.9,909.8,339.7,909.9,339.5,910z"/>
	<path class="st0" d="M252.9,760.8c0,3.1,0,5.4,0,7.7c0.2,7.3,0.4,14.7,0.6,22c0,0.3-0.2,0.6-0.3,1.3c-2.8-1.1-5.5-2.1-8.2-3.2
		c-6.7-2.6-13.5-5.3-20.2-7.9c-2.8-1.1-3-1.7-1.4-4.1c3.7-5.5,8.7-9.5,14.9-12c1.1-0.4,2.1-1.5,2.8-2.5
		C244.1,757.4,249.8,757,252.9,760.8z"/>
	<path class="st0" d="M268.7,682.1c-7.2,6.5-21.5,6.4-30.9-3.9C248.3,679.5,258.5,680.8,268.7,682.1z"/>
	<path class="st0" d="M214.3,489.3c-4.5,0-7.5-2.7-7.6-7.1c-0.1-3.6,3.5-7,7.2-7c4.1,0,7,3,7.3,6.9
		C221.5,486.3,217.7,489.7,214.3,489.3z"/>
	<path class="st0" d="M360.4,508c-4.1,0-7-3-7-7.1c0-4.1,3.1-7.1,7.3-7c3.9,0.1,7.3,3.4,7.2,7C368,505.1,364.8,508.1,360.4,508z"/>
	<path class="st0" d="M288.7,537c5.9,0.2,10.2,4.6,9.9,10.3c-0.3,5.8-4.7,9.8-10.7,9.7c-5.3-0.2-9.7-5-9.6-10.3
		C278.5,541.2,283.1,536.9,288.7,537z"/>
</g>
</svg>
