<?xml version="1.0" encoding="utf-8"?>
<!-- Generator: Adobe Illustrator 26.0.0, SVG Export Plug-In . SVG Version: 6.00 Build 0)  -->
<svg version="1.1" id="Capa_1" xmlns="http://www.w3.org/2000/svg" xmlns:xlink="http://www.w3.org/1999/xlink" x="0px" y="0px"
	 viewBox="0 0 595.3 785.1" style="enable-background:new 0 0 595.3 785.1;" xml:space="preserve">
<style type="text/css">
	.st0{fill:#FFFFFF;}
</style>
<g>
	<path d="M0,18.7c0.3-0.4,0.8-0.7,1-1.2c0.3-0.7,0.3-1.4,0.6-2.2C4.7,5.1,14,0,21.8,0c1.1,0,2.1,0,3.2,0c182.2,0,364.4,0,546.6,0
		c2.9,0,5.7-0.1,8.6,0.7c6.3,1.9,10.9,5.7,13.7,11.6c0.6,1.2,1,2.5,1.5,3.8c0,250.8,0,501.6,0,752.4c-0.5,1.4-0.9,2.8-1.6,4.1
		c-2.8,5.6-7.2,9.3-13.1,11.3c-1.1,0.4-2.1,0.8-3.2,1.3c-186.1,0-372.1,0-558.2,0c-1-0.4-1.9-0.8-2.9-1.2c-1.8-0.8-3.8-1.5-5.5-2.5
		c-4.9-3-8.1-7.5-9.5-13C1,767.4,1,766.5,0,765.9C0,516.9,0,267.8,0,18.7z"/>
	<path class="st0" d="M592.5,361.2c-0.4,0.1-0.6,0.2-0.8,0.1c-4.5-2.3-9.1-4.7-13.5-7c0-0.8,0-1.5,0-2.1c0.1-2-0.9-3.3-2.6-3.9
		c-1.3-0.5-2.7-0.8-4-1c-1.4-0.2-2.8-0.2-4.1-0.1c-2.5,0.3-4.8-0.4-7.1-1.4c-11.3-5.2-22.8-9.9-34.5-14.3
		c-17.4-6.5-35-12.1-52.9-16.8c-15.3-4-30.8-7.5-46.5-10.2c-9-1.5-18.1-2.9-27.2-4.1c-8.2-1.1-16.5-1.9-25-2.9
		c-0.8-0.4-1.1-1.5-1.6-2.4c-5.1-9.2-11.3-17.5-19.4-24.4c-9.7-8.1-20.7-13.3-33.1-15.7c-9.4-1.8-18.8-2.2-28.3-1.3
		c-11.5,1-22.7,3.2-33.6,7.1c-15,5.3-28.1,13.6-38.9,25.4c-5.5,6-10,12.7-13.5,20.1c-0.5,1-0.9,1.9-1.5,2.9
		c-3.4,0.9-6.8,1.8-10.2,2.6c-20.7,5.2-40.8,12-60.5,20.1c-19.4,8-38.1,17.5-56,28.5c-20.7,12.7-39.9,27.3-57.4,44.1
		c-4.8,4.6-9.3,9.4-13.9,14.1c-0.6,0.6-1.2,1.1-1.8,1.6c-0.8-0.5-0.6-1.1-0.6-1.6c0-2.1,0-4.3,0-6.4c0-129.3,0-258.6,0-388
		c0-2.1,0.1-4.3,0.4-6.4C5.9,9.5,13.7,3.4,21.8,3.4c1.1,0,2.1,0,3.2,0c182.2,0,364.4,0,546.6,0c2.2,0,4.5,0,6.7,0.5
		c8.2,1.8,13.8,8.7,14.3,17.1c0,1,0,1.9,0,2.9c0,111.3,0,222.6,0,334C592.6,358.9,592.5,360.1,592.5,361.2z M158.2,242.3
		c-0.6-1.3-1-2.4-1.5-3.4c-1.5-3.3-3.2-6.5-5.6-9.3c-3-3.4-6.7-5.5-11.3-5.9c-4.5-0.4-8.7,0.2-12.6,2.5c-0.6,0.3-1.1,0.6-1.7,0.8
		c-0.9,0.3-2-0.6-1.9-1.6c0-0.4,0.1-0.8,0.1-1.3c0.2-2.3,0.5-4.7,0.5-7c0-4.9-2.1-8.8-6.2-11.6c-5.5-3.6-11.9-3.9-17.3,0.2
		c-1.3,1-2.6,2.2-3.8,3.4c-0.9,0.8-1.7,1.6-2.5,2.4c-1.2-0.7-2.2-1.3-3.2-1.8c-2.5-1.4-5-2.8-7.8-3.6c-3.2-0.8-6.3-0.8-9.3,0.8
		c-2.1,1.1-3.8,2.7-5.3,4.5c-1.7,2.1-2.7,4.6-2.7,7.4c0,0.7-0.1,1.4-0.2,2.1c-0.4,0.2-0.7,0.3-1,0.4c-0.6,0.2-1.2,0.3-1.9,0.4
		c-6.1,1.4-10.3,5-12,11.1c-0.6,2-0.8,4.2-1.1,6.3c-0.2,1.1-0.3,2.3-0.4,3.6c-1.1,0.3-2,0.5-2.9,0.7c-1.6,0.3-3.2,0.5-4.7,0.8
		c-2.5,0.5-5,1.2-7.2,2.5c-2.7,1.5-4.7,3.7-5.7,6.6c-0.8,2.2-1.2,4.5-1.3,6.9c0,4.2,1.5,7.8,4.7,10.4c3.7,3,7.8,5.2,12.5,6.2
		c12.1,2.7,24.3,4.4,36.6,5.7c9,0.9,18,1.5,27.1,1.8c8.2,0.2,16.4,0.3,24.6,0.2c6.2-0.1,12.4-0.3,18.5-0.7c8-0.6,15.9-1.4,23.8-2.3
		c5.9-0.7,11.8-1.8,17.7-2.8c1.1-0.2,2.3-0.6,3.4-0.9c3.2-1,5.2-3.2,6.4-6.2c0.7-1.8,0.6-3.6,0.6-5.4c-0.1-2.2-1-4.1-2.5-5.7
		c-1.4-1.4-2.9-2.5-4.7-3.3c-0.9-0.5-2-0.7-2.7-1.8c0-0.6,0-1.4,0-2.1c-0.1-1.4-0.2-2.8-0.3-4.1c-0.4-7.2-10.1-11.9-16.6-7.3
		c-0.8,0.5-1.5,1.1-2.3,1.7C169.1,241.7,163.8,242,158.2,242.3z M199.2,160.7c1.9,0.7,3.7,1.3,5.5,1.9c0.7,0.2,1.4,0.4,2.2,0.5
		c0.9,0.1,1.7-0.7,1.6-1.6c-0.1-0.6-0.3-1.2-0.5-1.8c-0.5-1.4-1.1-2.8-1.7-4.1c-0.7-1.4-0.6-2.6,0.3-3.9c1-1.5,1.9-3.1,2.7-4.7
		c0.6-1.2,1.2-2.4,2.5-3.2c0.9-0.5,1.3-1.5,0.9-2.5c-0.5-1.5-0.2-2.9,0.2-4.4c0.3-1.1,0.5-2.3,0.6-3.4c0.4-4.2,0.5-3.4,3.7-5.2
		c1.3-0.7,2.7-1.3,4-2.1c1-0.6,0.9-2,0-2.7c-0.4-0.3-0.9-0.5-1.4-0.7c-1.5-0.6-2.9-1.3-4.4-1.9c-1.3-0.5-2-1.3-2.3-2.7
		c-0.4-2.1-1.1-4.1-1.6-6.2c-0.2-0.9-0.4-1.9-0.3-2.8c0.2-1.4-0.3-2.5-1.5-3.2c-0.6-0.4-1.2-0.9-1.6-1.5c-1.5-2-2.8-4-4.2-6
		c-0.6-0.8-0.6-1.6-0.4-2.4c0.3-0.9,0.6-1.8,0.9-2.7c0.4-1.1,0.8-2.2,1-3.4c0.3-1.6-0.7-2.5-2.2-2.1c-0.9,0.3-1.8,0.7-2.7,1
		c-1.6,0.5-3,1.5-4.6,1.7c-2.4-1.3-4.6-2.6-6.8-3.8c-1-0.6-2-1.1-2.7-2.1c-0.7-1.1-1.8-1.4-3.1-1.1c-0.7,0.2-1.5,0.3-2.2,0.2
		c-2.9-0.5-5.8-1.1-8.8-1.7c-0.8-1.6-1.6-3.2-2.4-4.8c-0.3-0.7-0.6-1.4-1.1-2c-0.9-1.4-2.2-1.3-3,0.1c-0.3,0.5-0.5,1.1-0.8,1.7
		c-0.6,1.4-1.2,2.7-1.7,4.1c-0.4,1.1-1.1,1.7-2.3,1.9c-1.9,0.4-3.7,0.9-5.5,1.5c-1.3,0.4-2.6,0.8-4,0.6c-1.2-0.2-2.2,0.3-2.7,1.3
		c-0.6,1.2-1.7,1.9-2.7,2.6c-1.5,1-3,2.1-4.4,3.1c-0.6,0.4-1.2,0.8-1.8,1.2c-2.2-0.8-4.3-1.6-6.5-2.2c-2.3-0.7-3.3,0.4-2.6,2.7
		c0.2,0.6,0.4,1.2,0.7,1.8c0.4,1.1,0.8,2.2,1.3,3.2c0.6,1.3,0.4,2.4-0.4,3.6c-1.2,1.9-2.2,3.9-3.4,5.8c-0.4,0.6-0.8,1.3-1.4,1.7
		c-1.5,1-1.8,2.3-1.3,3.9c0.1,0.5,0.2,1.1,0.1,1.5c-0.5,2.9-1.1,5.8-1.7,8.7c-0.1,0.1-0.2,0.2-0.3,0.2c-1.6,0.8-3.2,1.6-4.8,2.4
		c-0.7,0.4-1.5,0.8-2.1,1.3c-0.8,0.6-0.6,1.9,0.2,2.5c0.5,0.3,1.1,0.6,1.7,0.8c1.9,0.9,3.9,1.7,5.7,2.6c0.8,2.7,1.4,5.3,2.2,7.8
		c0.3,1.1,0.7,2.2,0.4,3.4c-0.3,1.3,0.3,2.2,1.5,2.9c0.5,0.3,1.1,0.7,1.4,1.2c1.7,2.4,3.4,4.9,5.2,7.6c-0.6,1.7-1.2,3.5-1.8,5.3
		c-0.3,0.8-0.5,1.6-0.6,2.5c-0.1,0.9,0.8,1.7,1.6,1.6c0.8-0.1,1.6-0.4,2.4-0.7c1.9-0.7,3.7-1.5,5.4-2.1c2.8,1.6,5.4,3,8,4.5
		c0.6,0.4,1.1,0.9,1.6,1.5c0.7,0.9,1.7,1.3,2.8,1.2c0.8-0.1,1.7-0.3,2.5-0.2c2.9,0.5,5.8,1.1,8.8,1.6c0.4,0.7,0.7,1.3,1.1,2
		c0.6,1.1,1.2,2.3,1.7,3.4c0.5,1,0.9,2.3,2.4,2.3c1.3-0.1,1.6-1.2,2-2.2c0.4-1,0.8-2,1.3-2.9c0.5-1.1,0.9-2.1,1.3-2.9
		c3-0.9,5.6-1.6,8.2-2.4c0.9-0.3,1.8-0.6,2.8-0.3c1.4,0.4,2.4-0.3,3.2-1.5c0.3-0.5,0.7-1.1,1.1-1.5
		C194,164.1,196.5,162.5,199.2,160.7z M380.2,181.6c-0.6-1.3-1.1-2.4-1.6-3.4c-0.8-1.6-1.6-3.3-2.6-4.8c-2.2-3.3-4.9-6-8.9-6.8
		c-3.9-0.8-7.8-0.7-11.6,1c-0.7,0.3-1.3,0.7-2,1c-1.2,0.6-2.1,0-2-1.4c0.1-1.1,0.3-2.1,0.3-3.2c0.1-1.5,0.1-3,0-4.5
		c-0.7-8.8-11.5-13.3-18.1-9.1c-1.4,0.9-2.7,2.1-4,3.1c-1,0.8-1.6,2-2.8,2.3c-2.3-1.2-4.4-2.4-6.6-3.4c-1.9-0.9-4-1.3-6.2-1.2
		c-4.2,0.1-10.1,4.8-10.5,10.5c-0.1,0.8-0.2,1.6-0.2,2.4c-1.2,0.3-2.3,0.5-3.3,0.8c-4.5,1.4-7.6,4.2-8.9,8.8c-0.5,1.9-0.7,4-1.1,6
		c-0.1,0.8-0.3,1.6-0.5,2.5c-1.4,0.3-2.7,0.5-3.9,0.7c-1.9,0.4-3.8,0.8-5.6,1.3c-3.9,1.3-6.6,3.8-7.7,7.8c-0.4,1.4-0.6,2.9-0.7,4.4
		c-0.1,3.6,1.2,6.7,4.1,9c3.1,2.4,6.6,4.2,10.5,5.1c5,1.1,10,2,15.1,2.8c6.7,1,13.5,1.8,20.3,2.3c5.3,0.4,10.6,0.6,15.9,0.9
		c8.2,0.5,16.4,0.5,24.6,0.2c12.2-0.4,24.5-1.2,36.6-3.1c4-0.6,8-1.3,11.9-2.2c3.6-0.8,6-3.2,6.7-6.9c0.7-3.9-0.4-7.2-3.8-9.4
		c-0.8-0.5-1.6-1-2.5-1.4c-0.5-0.3-1.1-0.6-1.7-1c-0.1-1.6-0.1-3.2-0.2-4.8c-0.4-7.7-9.6-10-13.8-6.9c-0.7,0.5-1.4,0.9-2.2,1.4
		C389.2,181.3,384.8,181.4,380.2,181.6z M439.9,79.4c-0.7-0.7-1.3-1.3-1.9-1.9c-2.4-2.5-5.2-4.4-8.4-5.7
		c-14.3-5.8-31.2,0.2-38.4,13.9c-4.4,8.3-5,17.1-2.9,26.1c1.9,8.2,6.5,14.4,13.8,18.7c5.4,3.2,11.1,5.4,17,7.1
		c12.8,3.7,25.8,5.3,39.1,5.7c11,0.4,21.9,0.1,32.8-1.2c7.3-0.9,14.5-2.1,21.6-4c4.9-1.4,9.7-3.1,14.2-5.7c5.2-3,8.7-7.4,10.4-13.2
		c1.2-3.9,1.2-7.7,0.1-11.6c-0.9-3.3-2.7-6-4.7-8.6c-5.2-6.7-17.5-8.6-24.5-2.7c-0.3,0.3-0.7,0.5-1,0.7c-0.4-0.2-0.7-0.3-0.9-0.5
		c-2.9-2.2-6.1-2.4-9.4-1.6c-0.6,0.1-1.2,0.3-1.9,0.5c-2.5-3.7-6.1-5.3-10.4-6c-0.1-1.5-0.2-2.8-0.4-4.2c-1-9-7.2-16.1-16.1-18.1
		c-11-2.5-21,2-26.7,10.1C441,77.9,440.5,78.5,439.9,79.4z"/>
	<path class="st0" d="M118.5,700.6c-7.2,0-12.9,2.7-17.6,7.8c-0.9-0.4-1.6-0.8-2.4-1.2c-6-3.4-12.3-5.8-19.1-6.9
		c-5-0.8-9.9-1.2-14.9-0.5c-1.8,0.3-3.6,0.4-5.4,0.6c-2.1,0.2-3.5-0.6-4.2-2.5c-1.7-4.6-3.8-9-6.5-13.1c-7.3-10.7-17.1-18-29.5-21.8
		c-3.8-1.2-7.6-2-11.6-2.1c-1,0-2.1,0-3.3-0.8c0-0.9-0.1-2-0.1-3c0-36.4,0-72.9,0-109.3c0-2.1,0.5-3.9,1.6-5.7
		c10.2-17.1,22.1-32.8,35.9-47.2c3.9-4.1,8-7.9,12.1-11.9c0.2-0.2,0.5-0.4,0.7-0.7c1-1,2-1.3,3.5-1.1c3.7,0.7,7.4,1.2,11.1,1.6
		c5.6,0.6,11.2,1.3,16.9,1.6c16.7,0.9,33.4,1.2,50.2,0.9c7.3-0.1,14.5,0.3,21.7,1c4.7,0.4,9.3,0.9,14,1.4c5.2,0.6,10.3,1.4,15.5,2.1
		c0.3,0,0.6,0.2,1.1,0.4c0.4,1.7,0.8,3.6,1.2,5.5c0.8,3.8,1.8,7.4,3.1,11.1c1.4,3.9,3.9,6.6,7.8,7.8c0.2,0.1,0.4,0.2,0.6,0.2
		c0.1,0,0.2,0.1,0.5,0.4c0.2,0.7,0.6,1.7,0.8,2.8c1.4,6,2.7,12.1,4,18.1c0.2,0.8,0.4,1.7,0.6,2.5c0.7,3,2.6,5,6.3,5.4
		c2.1,0.2,4.3,0.3,6.4-0.1c8-1.4,15.9-2.9,23.6-5.5c1.5-0.5,3-1.2,4.3-2.1c2.9-1.8,4.1-4.5,3.3-7.9c-1.1-4.7-2.1-9.3-3.1-14
		c-0.2-1-0.4-2.1-0.6-3.2c2.2-0.7,4.4-0.7,6.5-0.9c7.4-0.8,14.8-1.5,22.2-2.4c13.4-1.6,26.7-4,40-6.7c12.9-2.7,25.8-5.7,38.5-9.2
		c15.3-4.2,30.4-9,45.3-14.6c1.8-0.7,3.6-1.3,5.5-2c0.3,0.8,0.6,1.3,0.7,1.9c1.1,4.8,2.2,9.5,3.2,14.3c0.1,0.6,0.3,1.2,0.5,1.9
		c0.7,3.3,2.9,5,6,5.3c2.4,0.2,4.9,0.2,7.3-0.2c7.4-1.2,14.6-2.8,21.8-5c1.8-0.6,3.6-1.4,5.2-2.3c2.8-1.6,4-4,3.5-7.2
		c-0.2-1.5-0.5-2.9-0.9-4.4c-1.3-5.9-2.6-11.8-4-17.7c-0.4-1.8-0.4-3.3,0.8-4.8c1.3-1.6,1.7-3.6,1.6-5.7c0-3.1-0.3-6.2-1-9.2
		c-0.1-0.6-0.2-1.2-0.3-2.1c0.9,0.3,1.5,0.5,2,0.7c24.1,11.9,46.5,26.3,66.8,44c18.7,16.3,34.8,34.8,47.8,55.9
		c11.1,18.1,19.4,37.4,24.8,57.9c0.1,0.2,0.1,0.4,0.2,0.6c1.6,5.1,2.2,10.4,1.9,15.8c-0.1,2.4,0,4.9,0,7.3c0,0.7-0.1,1.5-0.2,2.3
		c-19.8,2.8-33.6,13.1-40.1,32.3c-5.2,19.5,0.3,35.6,15.2,49c-1.4,1.5-2.9,2.3-5,2.4c-4.3,0.2-8.4,1.3-12.5,2.6
		c-1.4,0.5-2.6,0.4-4-0.2c-7.8-3.2-15.9-4.7-24.4-4.2c-10,0.5-19.3,3.3-27.7,8.7c-0.7,0.4-1.4,0.8-2.4,1.3
		c-0.7-5.4-1.4-10.6-2.8-15.6c-1.4-4.9-3.1-9.7-5.4-14.3c-2.3-4.7-5-9.1-8.1-13.3c-3.1-4.1-6.5-7.8-10.3-11.3
		c-3.8-3.6-8-6.6-12.5-9.4c-4.3-2.7-8.9-5-13.7-6.8c-4.9-1.9-9.9-3.2-15.1-4.2c-5.1-0.9-10.1-1.2-15.3-1.2
		c-20.2,0.2-38,6.9-53.2,20.2c-15.1,13.1-24.1,29.8-27.4,49.6c-1.8,0.4-3.5,0-5.2,0.1c-1.7,0.1-3.4,0.2-5.1,0.4
		c-1.7,0.2-3.3,0.6-5.1,0.9c-6-14.7-16.5-23.7-32.3-25.2c-15.6-1.4-27.6,5.3-36.2,18.6c-0.5-0.3-1.1-0.5-1.6-0.8
		c-7.5-4-16.4-2.5-22,2.8c-0.3,0.3-0.7,0.5-1.1,0.8c-0.7-0.7-0.3-1.5-0.2-2.1c0-0.8,0.1-1.7,0.1-2.5c0-0.7,0-1.5,0-2.2
		c0-0.8-0.1-1.7-0.2-2.5c-0.1-0.7-0.1-1.5-0.2-2.2c-0.1-0.7-0.2-1.5-0.3-2.2c-0.1-0.8-0.3-1.7-0.5-2.5c-0.2-0.7-0.3-1.5-0.5-2.2
		c-0.2-0.8-0.5-1.6-0.7-2.5c-0.2-0.7-0.5-1.4-0.7-2.1c-0.3-0.7-0.5-1.4-0.8-2.1c-0.3-0.8-0.7-1.5-1.1-2.3c-0.3-0.7-0.7-1.3-1-2
		c-0.4-0.7-0.7-1.3-1.1-2c-0.4-0.7-0.9-1.5-1.4-2.2c-0.4-0.6-0.8-1.2-1.3-1.8c-0.5-0.7-1-1.4-1.6-2c-0.5-0.6-1-1.1-1.5-1.7
		c-0.5-0.6-1-1.1-1.5-1.7c-0.6-0.6-1.2-1.2-1.8-1.8c-0.5-0.5-1.1-1-1.7-1.5c-0.7-0.5-1.3-1.1-2-1.6c-0.6-0.5-1.2-0.9-1.8-1.3
		c-0.6-0.4-1.2-0.8-1.9-1.2c-0.7-0.5-1.4-0.9-2.2-1.3c-0.6-0.4-1.3-0.7-2-1.1c-0.8-0.4-1.5-0.8-2.3-1.1c-0.7-0.3-1.4-0.6-2.1-0.8
		c-0.7-0.3-1.4-0.5-2.1-0.8c-0.8-0.3-1.6-0.5-2.4-0.8c-0.7-0.2-1.4-0.4-2.2-0.5c-0.7-0.2-1.5-0.3-2.2-0.5c-0.8-0.2-1.7-0.3-2.5-0.5
		c-0.7-0.1-1.5-0.2-2.2-0.2c-0.9-0.1-1.7-0.1-2.6-0.1c-0.7,0-1.5,0-2.2,0c-5.2-0.1-10.2,0.7-15.1,2.3c-5,1.6-9.7,3.9-14,6.9
		c-4.2,3-7.8,6.6-11,10.6c-3.2,4.2-5.6,8.7-7.4,13.7C119.6,690.4,118.7,695.4,118.5,700.6z M107.1,565c-1-1.1-1.7-2-2.4-2.7
		c-2-2-4.3-3.5-6.8-4.7c-14.7-6.6-32.3-0.3-39.6,14.1c-3.3,6.6-4.2,13.5-3.4,20.8c1.2,10.6,6.1,18.7,15.4,23.9
		c4.8,2.7,10,4.8,15.3,6.4c11,3.3,22.2,4.9,33.6,5.7c7.9,0.5,15.7,0.7,23.6,0.4c11.1-0.5,22.1-1.6,32.9-4.1
		c6.1-1.4,12.1-3.4,17.7-6.3c10.3-5.5,14.2-16.8,11.2-25.9c-1.9-5.7-5.1-10.3-10.8-12.7c-6.2-2.6-12.2-2.3-17.9,1.7
		c-0.4,0.3-0.8,0.6-1.4,1c-1.7-1.4-3.6-2.3-5.7-2.6c-2.2-0.3-4.2,0.5-6,0.8c-1.7-1.4-3.1-3-4.9-3.9c-1.8-1-3.9-1.4-6-2.2
		c0-1.1-0.1-2.1-0.2-3.2c-0.3-3.9-1.5-7.5-3.8-10.7c-4.7-6.5-11.4-9.2-19.1-8.9c-8.1,0.3-14.7,3.8-19.6,10.4
		C108.5,563,107.9,563.8,107.1,565z M409.6,557.2c-0.7-0.6-1.3-1.2-2-1.7c-1.2-0.9-2.4-1.8-3.7-2.5c-10.7-5.5-24.7-0.5-29.3,12
		c-1.4,3.9-1.7,7.9-1.2,12c0.9,7.2,4.3,12.8,10.7,16.4c2.8,1.6,5.7,2.8,8.8,3.8c8.5,2.8,17.2,4,26,4.5c4.6,0.3,9.2,0.2,13.7,0.2
		c9.4-0.1,18.7-1.2,27.8-3.8c3.6-1,7-2.4,10.2-4.5c6.6-4.4,8.9-13.9,4-21.2c-3.7-5.5-12-7.6-17.5-3.7c-0.4,0.3-0.9,0.6-1.2,0.8
		c-3.9-1.9-4.3-1.9-8.1-1.2c-3.5-2.8-3.5-2.8-7.2-4c-0.2-1.3-0.3-2.7-0.6-4c-1.2-5.3-4.4-9-9.5-10.7c-7.5-2.6-14.6,0.4-18.7,4.9
		C411.1,555.3,410.4,556.2,409.6,557.2z"/>
	<path class="st0" d="M205.4,383.8c0.7,1,1,1.4,1.2,1.8c3.1,5.6,8.1,7.9,14.2,8.3c2.7,0.2,5.3-0.1,7.9-0.6
		c15.3-3.5,30.5-6.8,45.8-10.2c11.6-2.6,23.2-5.3,34.9-7.9c13.9-3.1,27.8-6.2,41.7-9.3c7-1.6,14-2.9,20.9-4.7
		c7.4-1.9,12.2-6.6,13.8-14.3c0.3-1.5,0.4-2.9,0.7-4.4c0.8,0.2,0.8,0.9,1,1.5c2.4,6.9,4.8,13.9,7.1,20.8c1.5,4.3,3.2,8.6,4,13.1
		c0.1,0.6,0.3,1.2,0.6,1.8c3.3,7.4,5.4,15.2,7.9,22.9c2.8,8.5,5.3,17.1,7.8,25.7c1.1,3.9,2.2,7.8,2.8,11.8
		c1.6,10.5-1.8,19.3-10,26.1c-3.5,2.9-7.4,5-11.7,6.5c-13.3,4.5-26.5,9.4-39.9,13.4c-15.2,4.5-30.6,8.4-46.2,11.2
		c-7.4,1.3-14.9,2.4-22.4,3.5c-9.3,1.4-18.6,2.3-27.9,3.2c-2,0.2-4,0.7-6,0.9c-4.4,0.6-8.7,0.5-13-0.5c-7.4-1.7-13.2-5.8-17.4-12.1
		c-2.4-3.6-4.2-7.5-5-11.7c-1.1-5.7-2.2-11.5-3.1-17.3c-1.1-6.9-2.1-13.9-3-20.9c-0.8-6.2-1.5-12.5-2.2-18.7c-0.5-4-1-8-1.5-12
		c-0.8-6.8-1.5-13.5-2.3-20.3c-0.2-1.7-0.4-3.4-0.6-5.1C205.3,385.7,205.4,385.1,205.4,383.8z M314.3,472.6
		c8.5-0.1,15.7-3.2,21.4-9.8c0.5-0.6,1-1.2,1.3-1.8c0.3-0.6,0.1-1.3-0.5-1.7c-0.5-0.4-1.2-0.5-1.8-0.2c-0.6,0.4-1.1,1-1.6,1.5
		c-6.7,7.9-18.6,11.2-29,6.2c-0.5-0.2-1-0.5-1.5-0.6c-0.6-0.2-1.6,0.3-1.9,0.9c-0.3,0.6-0.1,1.6,0.5,2c0.8,0.5,1.6,1,2.5,1.4
		C307.1,471.8,310.6,472.7,314.3,472.6z M323.1,416.3c0.3-8.7-7.1-15.5-15.3-15.4c-7.5,0.1-14.9,6.1-15,15
		c-0.1,8.2,6.6,15.3,15,15.3C316.8,431.4,323.4,423.9,323.1,416.3z"/>
	<path class="st0" d="M490.2,717.7c-19,15.7-26.3,35.6-21.6,59.8c-1,0.2-1.3-0.7-1.7-1.2c-6.5-8.2-14.3-14.9-23.3-20.1
		c-8.1-4.7-16.7-7.9-25.9-9.6c-7.6-1.4-15.2-1.8-22.9-1.1c-11.8,1.1-22.9,4.5-33.2,10.4c-6.1,3.5-11.7,7.7-16.7,12.7
		c-0.4,0.4-0.9,0.8-1.5,1.3c-0.7-0.4-1.4-0.7-2-1.1c-3.1-1.9-6.4-3.5-9.8-4.7c-1.4-0.5-2.7-1.3-3.8-2.3
		c-7.7-6.6-16.4-10.9-26.4-12.9c-12.1-2.4-23.7-1.1-34.9,4c-2.2,1-4.3,2.3-6.5,3.4c-0.5,0.2-0.9,0.5-1.3,0.7
		c-3.5-3-6.9-5.9-10.4-8.6c-3.6-2.8-7.5-5.2-11.7-7.2c-4-1.9-8.2-3.5-12.2-5.3c1.2-2.7,5.4-6.7,10.8-10.3c4.4-2.9,9.1-5,14.2-6.4
		c5-1.4,10-2,15.2-1.7c5.2,0.3,10.3,1.4,15.2,3.2c4.8,1.8,9.1,4.6,13.4,7.6c0.7-0.9,1.3-1.6,1.8-2.4c4.3-6,9.9-10.2,16.9-12.6
		c4.5-1.6,9.1-1.9,13.9-1.6c0.9,0.1,1.9,0.1,2.9,0.2c1.1-4.3,2-8.5,3.2-12.7c1.1-4.2,2.9-8.2,4.8-12.2c1.8-3.8,4.1-7.5,6.5-11
		c2.5-3.6,5.3-6.9,8.4-10.1c3.1-3.1,6.4-6,9.9-8.6c3.5-2.6,7.2-4.9,11.1-6.9c3.9-2,7.9-3.7,12.1-5c4.1-1.3,8.2-2.2,12.4-2.9
		c4.3-0.7,8.7-0.9,13-0.9c4.4,0,8.7,0.3,13,1.1C461.2,649.5,488,681.4,490.2,717.7z"/>
	<path class="st0" d="M310.7,711.9c-9.1,5.2-8,3-18.1,14.3c-11.1-7.8-23.4-11.4-37-9.6c-13.5,1.8-24.4,8.3-33.1,18.5
		c-1.2,0.3-2.3-0.1-3.3-0.3c-8.2-2.1-16.6-2.8-25-2.2c-19.3,1.3-36.1,8.4-50.4,21.4c-6.9,6.3-12.5,13.6-16.9,21.9
		c-0.5,1-1.1,2-1.6,3c-1.1,0.5-2,0.3-2.8-0.2c0-0.3-0.1-0.5-0.1-0.7c2.3-5.5,3.6-11.4,4.1-17.3c0.6-6.6,0-13.2-1.9-19.6
		c-0.9-3.2-2.1-6.3-3.3-9.3c-1.6-4.1-4.4-7.5-7.1-11c-3.1-3.9-6.8-7.4-10.8-10.4c-0.3-0.3-0.6-0.5-1.1-0.9c1.4-2.6,3.8-4,6.2-5.3
		c2.7-1.4,5.5-2.2,8.6-2.1c0.7,0,1.4-0.2,2.1-0.2c0.8-1.3,0.7-2.6,0.8-3.8c1.4-14.4,7.8-26,19.2-34.7c14.8-11.4,35.1-13,51-5
		c14.9,7.5,23.7,19.7,26.8,36c0.8,4.2,0.8,8.5,0.4,12.7c-0.1,0.8-0.1,1.7,0,2.5c0,0.6,1.1,1,1.5,0.7c0.7-0.5,1.3-1.1,1.9-1.7
		c3.7-3.6,8.2-5.3,13.3-5.1c2.6,0.1,5,0.9,7.3,2.1c0.6,0.3,1.1,0.7,1.7,0.9c0.8,0.4,1.4,0.2,2-0.5c0.5-0.7,0.9-1.4,1.4-2.1
		c7.5-10.8,17.8-16.3,30.9-16.2c15,0.2,27.8,9.7,32.9,23.3C310.6,711.1,310.6,711.5,310.7,711.9z"/>
	<path class="st0" d="M120.9,781.3c-0.8,0-1.7,0-2.5,0c-31.7,0-63.5,0-95.2,0c-2.5,0-4.9-0.2-7.2-1.1c-7.3-3-11.2-8.5-12-16.3
		c-0.1-0.7,0-1.5,0-2.2c0-17.7,0-35.3,0-53c0-1.1,0-2.1,0-3c17-11.4,41.3-12.3,60.3-0.1c4.6,2.9,8.7,6.5,12.2,10.7
		c3.5,4.2,6.5,8.7,8.7,13.7c2.1,4.9,3.6,10,4.3,15.3c0.8,5.4,0.6,10.8-0.2,16.2c-0.8,5.4-2.5,10.5-4.9,15.6c2.8,0,5.3,0,7.7,0
		c2.4,0,4.9,0.1,7.3,0.3c2.4,0.2,4.9,0.4,7.3,0.7c2.4,0.3,4.8,0.7,7.3,1.1C116.3,779.7,118.7,780,120.9,781.3z"/>
	<path class="st0" d="M267.4,781.3c-47,0-94.1,0-141.2,0c0.6-3,2-5.8,6-11.8c2.5-3.7,5.3-7.2,8.4-10.4c3-3.2,6.2-6.2,9.7-8.8
		c3.5-2.6,7.2-5,11-7c3.9-2.1,7.9-3.8,12-5.2c4.2-1.4,8.6-2.5,13-3.3c4.3-0.7,8.7-0.9,13-0.9c4.4,0,8.7,0.2,13,0.9
		c4.3,0.7,8.5,1.7,12.7,3.2c4.2,1.5,8.4,3.1,12.3,5.3c3.8,2.1,7.6,4.3,11,7.1c3.4,2.7,6.6,5.7,10,8.6c12.7-8.4,26.6-11.4,41.7-8.9
		c8.8,1.5,20.1,6.8,25,11.9C302.3,757.7,283.1,763.8,267.4,781.3z"/>
	<path class="st0" d="M514.5,781.3c-5.7-15.1-3-40.2,15.7-57.2c18-16.4,44-18.4,62.2-8.6c0.1,0.6,0.2,1.4,0.2,2.1c0,15,0,30,0,45
		c0,4.6-1.4,8.8-4.4,12.4c-3.4,4-7.8,6.2-13.1,6.4c-0.9,0-1.7,0-2.6,0c-18.2,0-36.4,0-54.6,0C516.7,781.3,515.6,781.3,514.5,781.3z"
		/>
	<path class="st0" d="M447.2,432.7c1.5-1,2.7-1.9,3.9-2.7c3.2-2.1,6.5-4.1,9.6-6.3c1.8-1.3,3.2-1,5-0.2c7.8,3.7,15.4,7.7,23,11.9
		c13.1,7.3,25.8,15.4,37.8,24.5c18.5,14,35.3,29.8,50.1,47.7c5.3,6.4,10.3,13.1,14.8,20c0.8,1.2,1.3,2.4,1.3,3.8
		c0,22.3,0,44.5,0,66.8c0,0.4,0,0.8,0,1.4c-0.8-0.5-0.9-1.3-1-1.9c-2.7-10.3-6.2-20.4-10.4-30.2c-7.2-16.7-16.4-32.2-27.5-46.7
		c-13.5-17.7-29.3-33.2-46.8-46.9c-16.4-12.8-34.1-23.7-52.7-33c-1.4-0.7-2.9-1.4-4.3-2.1c-0.8-0.4-1.4-1-1.5-1.9
		C448,435.7,447.6,434.3,447.2,432.7z"/>
	<path class="st0" d="M270.1,780.8c14.2-17.2,45-27.4,73.3-9.2c0.6-0.5,1.3-1,1.8-1.6c8.3-8.2,17.9-14.4,28.8-18.4
		c7.6-2.8,15.5-4.4,23.7-4.9c14.8-0.9,28.8,2.2,41.9,8.9c10.7,5.5,19.6,13.1,26.9,22.6c0.6,0.8,1.4,1.6,1.6,2.6
		c-0.2,0.2-0.2,0.3-0.3,0.4c-0.1,0.1-0.2,0.1-0.3,0.1c-65,0-129.9,0.1-194.9,0.1c-0.7,0-1.5-0.1-2.2-0.1
		C270.5,781.2,270.4,781.1,270.1,780.8z"/>
	<path class="st0" d="M441.6,416.3c-0.6-1.3-1.1-2.4-1.6-3.6c-1.5-3.2-2.9-6.4-4.4-9.5c-2-4-4.3-7.8-8.1-10.8
		c0.7-0.4,1.1-0.8,1.7-1.1c3-1.6,5.7-3.7,7.7-6.6c0.9-1.3,2.1-2,3.6-2.5c17.3-5.7,34.6-11.2,52.1-16.2c10.5-3,21.1-5.9,31.7-8.7
		c9.9-2.6,19.8-4.9,29.9-6.6c5.4-0.9,10.7-1.8,16.2-1.5c1.5,0.1,3,0.3,4.4,0.8c1.6,0.5,2.1,1.8,1.3,3.3c-0.6,1.1-1.3,2.2-2.2,3.1
		c-2.6,2.7-5.4,5.1-8.6,7c-15.6,9.2-31.6,17.6-48,25.2c-19.2,8.9-38.9,16.6-59.1,23c-4.7,1.5-9.4,2.8-14.1,4.1
		C443.2,416.1,442.5,416.1,441.6,416.3z"/>
	<path class="st0" d="M188.6,445.6c-0.1,0.6-0.1,1-0.3,1.3c-1.8,3.5-2.2,7.3-2.2,11.2c-0.1,4.2,0,8.3,0,12.5c0,0.9,0,1.9-0.1,3
		c-1.6,0.3-3,0.6-4.5,0.9c-6.8,1-13.7,2.1-20.5,2.9c-5.7,0.7-11.4,1.1-17.2,1.6c-4.4,0.4-8.7,0.6-13.1,0.9
		c-10.1,0.6-20.2,0.8-30.3,0.7c-10.3-0.1-20.7-0.4-31-1.1c-5.7-0.4-11.5-0.9-17.2-1.4c-3.3-0.3-6.5-1.3-9.6-2.4
		c-0.7-0.3-1.4-0.6-2-1c-3.6-2-3.7-3.6-0.2-5.9c1.9-1.3,4.1-2.3,6.3-3.2c6.1-2.5,12.5-4.1,18.9-5.7c12.4-3,24.9-5.5,37.5-7.6
		c8.5-1.5,17-2.9,25.5-4.1c10.2-1.5,20.4-2.9,30.7-4.3c4-0.6,8-1.1,12-1.6c1.1-0.1,2.1-0.3,3.2-0.3c0.8,0,1.7,0.1,2.4,0.5
		c3.3,1.9,6.8,2.9,10.7,2.9C187.8,445.3,188,445.4,188.6,445.6z"/>
	<path class="st0" d="M464.6,421.6c0.9-0.7,1.3-1.1,1.9-1.4c5.9-3.4,11.8-6.8,17.7-10.2c1.4-0.8,2.5-0.7,3.9,0
		c12.4,6,24.4,12.5,36.1,19.7c10.6,6.5,20.9,13.6,30.7,21.2c12.8,9.9,24.8,20.7,36,32.5c1,1,1.7,2.1,1.7,3.6c-0.1,12.7,0,25.3,0,38
		c0,0.3-0.1,0.6-0.1,0.9c-0.8,0.3-0.9-0.3-1.2-0.7c-6.5-9.5-13.6-18.6-21.2-27.2c-10.1-11.3-21.1-21.7-32.8-31.3
		c-16.3-13.3-33.8-24.8-52.2-34.8c-5.4-2.9-11-5.6-16.5-8.4C467.4,422.9,466.2,422.4,464.6,421.6z"/>
	<path class="st0" d="M560.5,347.7c-4.9,0.9-9.9,1.7-14.8,2.7c-5.3,1.1-10.6,2.3-15.9,3.5c-2.2,0.5-4.1,0.4-6.2-0.5
		c-11.7-4.9-23.6-9.2-35.6-13.2c-12-4-24.2-7.5-36.5-10.5c-10.1-2.5-20.3-4.9-30.5-6.7c-9.3-1.7-18.7-3.1-28-4.6
		c-1.3-0.2-2.4-0.7-3.4-1.6c-3.4-3.2-6.8-6.4-10.3-9.6c-1.1-1-2.1-2.1-2.6-3.6c-0.5-1.4-1.4-2.6-1.6-4.3c0.9,0,1.6-0.2,2.3-0.1
		c5.4,0.5,10.8,1,16.2,1.6c5.7,0.7,11.4,1.5,17.1,2.3c5.8,0.9,11.6,1.8,17.3,2.9c7.2,1.3,14.4,2.7,21.6,4.3
		c7.1,1.5,14.1,3.3,21.1,5.1c15,3.9,29.9,8.4,44.6,13.6c11.8,4.2,23.6,8.7,35.1,13.7c2.9,1.3,5.8,2.6,8.8,3.9
		C559.6,346.8,560.3,346.9,560.5,347.7z"/>
	<path class="st0" d="M203.4,311c-1.7,5.5-3.2,10.6-4.9,16.1c-2.6,0.7-5.3,1.4-8.1,2.1c-10.1,2.6-20.1,5.6-30,9
		c-12.1,4.1-24,8.8-35.7,14c-16.5,7.3-32.3,15.8-47.6,25.4c-13.8,8.7-26.9,18.4-39.3,29c-11.1,9.5-21.5,19.7-31.2,30.7
		c-0.7,0.8-1.4,1.5-2.3,2.4c-0.2-0.5-0.5-0.7-0.5-1c0-4.7,0-9.4-0.1-14.1c0-1.3,0.6-2.2,1.4-3.1c5-5.1,9.9-10.3,15-15.3
		c6.2-6.1,12.8-11.9,19.6-17.4c12.1-9.8,24.7-18.8,38-27c27.9-17.2,57.5-30.5,88.6-40.6c11.7-3.8,23.6-7.1,35.6-10.1
		C202.4,311,202.8,311,203.4,311z"/>
	<path class="st0" d="M471.5,781.1c-6.4-16.3-3.3-41.6,15.3-58.6c17.3-15.8,42.1-18,58.7-10.1c-2.5,1.3-4.9,2.5-7.2,3.9
		c-2.3,1.5-4.6,3-6.8,4.8c-2.1,1.7-4.2,3.7-6,5.7c-1.9,2-3.6,4.2-5.1,6.5c-1.6,2.3-3,4.7-4.2,7.2c-1.2,2.5-2.2,5.1-3.1,7.7
		c-0.8,2.6-1.4,5.4-1.9,8.1c-0.4,2.7-0.7,5.5-0.8,8.3c-0.1,2.8,0.1,5.5,0.5,8.3c0.3,2.7,1,5.4,1.5,8.3c-0.7,0.1-1.4,0.2-2,0.2
		C499.3,781.6,474.4,781.5,471.5,781.1z"/>
	<path class="st0" d="M198.2,328.7c0.1,2.8-0.6,5.2-0.8,7.6c-0.1,2.4-0.4,4.9-0.6,7.5c-1.1,0.3-2.2,0.7-3.3,0.9
		c-21.2,5.4-41.9,12.2-62,20.8c-23.4,10-45.5,22.2-66.3,37c-14.2,10.1-27.5,21.2-39.8,33.6c-6.8,6.8-13.2,13.9-19.4,21.2
		c-0.5,0.6-0.8,1.5-2,1.6c0-0.4-0.1-0.8-0.1-1.2c0-4.5,0-8.9,0-13.4c0-1.4,0.4-2.4,1.3-3.5c9.6-11,19.9-21.4,30.8-31
		c10.7-9.4,21.9-18,33.7-25.9c13.8-9.3,28.2-17.5,43.2-24.8c11-5.4,22.2-10.2,33.7-14.6c12.6-4.8,25.5-9,38.5-12.6
		c3.7-1,7.4-2,11.1-2.9C196.7,328.9,197.3,328.9,198.2,328.7z"/>
	<path class="st0" d="M196.9,345.4c-0.7,3.2-2.2,5.7-3.2,8.3c-0.9,2.6-2,5.2-3,7.9c-0.7,0.2-1.5,0.6-2.3,0.8
		c-14.5,3.8-28.8,8.3-42.8,13.7c-28.8,11.2-55.9,25.5-80.9,43.9c-15.2,11.2-29.3,23.7-42.1,37.6c-5.7,6.2-11.1,12.6-16.3,19.2
		c-0.6,0.7-0.9,1.6-2.2,2C4.1,478.4,4,478,4,477.6c0-4.5,0.1-8.9,0-13.4c0-1.6,0.5-2.9,1.5-4c4.9-5.5,9.5-11.2,14.5-16.6
		c16.6-17.7,35.2-33.1,55.4-46.5c10.3-6.8,21-13,31.9-18.7c19.4-10.1,39.6-18.4,60.4-24.9c9-2.8,18.2-5.2,27.3-7.8
		C195.5,345.6,196,345.6,196.9,345.4z"/>
	<path class="st0" d="M4,499c0-5.2,0-10.4,0-15.6c0-1,0.4-1.8,1-2.6c2.4-3,4.7-6.1,7.1-9.1c7.9-9.7,16.4-18.7,25.5-27.3
		c10.6-9.9,21.8-19.1,33.6-27.4c22.4-15.7,46.4-28.4,71.9-38.4c14.4-5.7,29-10.4,43.9-14.4c0.8-0.2,1.7-0.3,2.7-0.6
		c0,0.7,0.1,1.3,0,1.9c-0.7,2.5-1.2,5-1.3,7.5c0,2.2-1.3,4-2.3,5.9c-0.2,0.5-1,0.7-1.6,0.9c-2.7,0.8-5.5,1.6-8.3,2.4
		c-19.8,5.7-39,12.9-57.5,21.9c-15.9,7.7-31.1,16.6-45.6,26.9c-10.9,7.7-21.2,16.1-30.9,25.2c-11.8,11-22.5,22.9-32.2,35.8
		c-1.5,2-3,4.1-4.6,6.2c-0.3,0.4-0.6,0.8-1,1.1C4.3,499.2,4.2,499.1,4,499z"/>
	<path class="st0" d="M397.4,369.4c-0.9-2.7-1.8-5.1-2.6-7.5c-3-8.9-5.9-17.8-9-26.6c-2.4-7-6.3-13.2-11.3-18.7
		c-6.2-6.8-13.4-12.5-21.2-17.3c-15.2-9.5-31.7-16-49.3-19.5c-3.8-0.7-7.6-1.1-11.4-1.5c-1.7-0.2-3.3-0.6-4.8-1.6
		c-5.8-3.7-12-3.9-18.4-1.8c-0.9,0.3-1.7,0.8-2.6,1.3c-0.3,0.2-0.5,0.6-0.9,1.2c2.8,1,5.8,0.4,8,2.3c-0.8,1.1-2.1,1.2-3.2,1.5
		c-2.1,0.6-3.9,1.5-5.7,2.8c-2.5,1.8-5.3,3.2-7.8,5c-7.2,4.8-13.8,10.4-20,16.4c-7.2,6.9-13.6,14.4-19.3,22.5
		c-4.8,6.9-8.9,14.3-11.8,22.2c-2.5,6.8-4,13.7-3.5,20.9c0.1,2.4,0.6,4.9,0.9,7.3c0.4,2.7,0.8,5.5,1.1,8.2
		c0.9,7.6,1.7,15.2,2.5,22.9c0.1,1.2,0.1,2.3,0.2,3.5c-0.8,0.2-1-0.4-1.2-0.8c-2.6-3.7-4.4-7.8-6.3-11.8c-3.7-7.8-6.6-15.9-8.6-24.3
		c-0.4-1.8-0.5-3.6-0.2-5.4c0.8-4.5,2.3-8.9,4-13.1c8-20.2,19.2-38.4,33.4-54.8c6.9-7.9,14.6-14.9,23.3-20.7
		c7.7-5.1,16-8.9,25.1-10.7c5-1,10.1-1.3,15.3-1.1c9,0.3,17.7,2.2,26.3,4.9c14.1,4.6,27.1,11.3,39.5,19.3
		c10.1,6.6,19.7,13.9,28.3,22.3c2.9,2.8,5.7,5.7,8,9.1c1.1,1.6,1.9,3.3,2.3,5.2c2.3,10.9,2.9,21.9,2.4,33c-0.1,1.6-0.4,3.2-0.6,4.7
		C398.1,368.7,397.8,368.8,397.4,369.4z"/>
	<path class="st0" d="M185,381.2c-0.8,3.1-1.6,5.9-2.2,8.7c-0.4,1.5-0.6,3.1-0.7,4.7c-0.1,1.7-0.9,2.4-2.4,2.8
		c-3.2,0.9-6.3,1.8-9.5,2.8c-26.3,8-51.3,18.8-74.9,33c-12.3,7.4-24.1,15.7-35.2,24.9c-1.3,1-2.6,1.7-4.2,2.2
		c-3.7,1.2-7.5,2.4-11.2,3.8c-1.8,0.7-3.5,1.6-5.1,2.6c-1,0.6-1.9,1.4-2.6,2.3c-1.6,1.9-1.5,3.9,0.3,5.7c0.7,0.7,1.4,1.2,2.4,2
		c-13.1,13.3-24.7,27.6-34.9,43c-0.8-0.1-0.8-0.6-0.8-1c0-4.8,0-9.6,0-14.4c0-1.4,0.4-2.5,1.2-3.5c4.5-6.5,9.3-12.7,14.4-18.8
		c20.2-24.2,43.9-44.2,70.6-60.8c18.2-11.3,37.5-20.6,57.5-28.3c11.7-4.5,23.7-8.2,35.8-11.6C183.8,381.3,184.2,381.3,185,381.2z"/>
	<path class="st0" d="M199,342.2c-0.8-3.1-0.3-6.1,0.1-9c2.4-16.4,8.7-31.1,19.4-43.8c8.8-10.4,19.5-18.3,31.9-23.9
		c8.4-3.8,17.1-6.4,26.1-8.2c6-1.2,12-2,18-2.4c12.6-0.8,24.9,0.4,36.8,4.7c10.4,3.8,19.3,9.7,27,17.7c6.8,7.1,11.9,15.3,15.9,24.1
		c0.2,0.4,0.2,0.8,0.4,1.5c-1.1-0.3-1.7-0.8-2.3-1.3c-8.1-6.2-16.6-11.9-25.6-16.8c-10.7-5.9-21.7-10.8-33.5-13.9
		c-8-2.1-16-3.4-24.3-3.4c-11.9,0-22.9,3.1-33.2,8.9c-9.3,5.3-17.5,12.1-24.9,19.8c-12.6,13.1-22.5,28-30.9,44
		C199.7,340.9,199.3,341.5,199,342.2z"/>
	<path class="st0" d="M487.7,408.3c8.1-4.1,16.2-7.3,23.9-11.3c1.4,0.7,2.6,1.2,3.8,1.8c18.4,9.2,36,19.8,52.8,31.7
		c7.8,5.6,15.4,11.4,22.7,17.6c1.1,0.9,1.6,1.8,1.6,3.2c-0.1,9.9,0,19.8,0,29.7c0,0.3-0.1,0.6-0.1,0.9c-0.8,0.5-1.2-0.2-1.6-0.6
		c-2.8-2.8-5.5-5.6-8.4-8.3c-7.9-7.7-16.3-14.9-25-21.8c-15.7-12.3-32.3-23.2-49.9-32.7c-5.5-3-11.1-5.8-16.7-8.7
		C489.9,409.4,489,408.9,487.7,408.3z"/>
	<path class="st0" d="M592.6,694.2c-8.4,2.6-16.2,6-23.2,10.8c-5.1-2.7-11.2-10.4-14.4-18c-3.8-9.2-4.4-18.6-1.8-28.2
		c5.9-21.7,25.6-32.3,39-32.2c0.1,0.5,0.3,1.1,0.4,1.7c0.1,0.6,0,1.3,0,1.9c0,20.1,0,40.3,0,60.4
		C592.6,691.8,592.6,692.8,592.6,694.2z"/>
	<path class="st0" d="M293.2,322.1c1.2-0.4,1.8-0.6,2.3-0.9c2.1-0.9,3.1-2.6,3.1-4.8c0-2.2-1.2-3.9-3.1-4.8c-1.6-0.8-3.3-0.9-5-0.7
		c-15.1,2.1-25.2,13.9-26.6,27c-0.3,2.6-0.1,5.1,0.1,7.6c0.1,1.3,0.1,2.4-0.4,3.7c-1.2,3.5,0.7,7.5,4.2,8.9c0.7,0.3,1.3,0.6,1.8,1.2
		c1.3,1.5,2.6,3,3.9,4.6c-0.6,0.5-1,0-1.4-0.2c-4.4-2.1-7.5-5.5-10.1-9.5c-1.9-3-3.4-6.1-4.5-9.5c-0.5-1.4-1-2.8-1.5-4.2
		c-1.5-4-3.6-7.5-7.8-9.3c0.3-3.1,1.2-5.9,2.3-8.7c4-10.7,10.5-19.6,19.5-26.8c1-0.8,2-1.6,2.5-2.8c1.4-3.2-1.1-6.8-4.5-6.6
		c-0.9,0-1.8,0.3-2.8,0.5c1.9-4.1,5.2-4.9,13-3.6c0-2.1-0.4-3.2-2.5-4.6c-1.4-1-3.1-1.7-4.7-2.5c4.3-2.3,11.5-0.8,15.3,1.4
		c4.7,2.7,7.9,6.8,10.1,11.8c1.1,0.3,2.2,0.7,3.3,1c12.1,3.6,22.1,10.2,30.1,20c0.9,1.1,1.7,2.4,2.7,3.7c-3.2,3.1-3.9,7-3.7,11.2
		c0,1.3,0.1,2.6,0.2,3.8c0.6,4.8,0.1,9.6-1,14.3c-0.8,3.3-2.1,6.5-4.3,9.2c-0.3,0.3-0.6,0.6-1.2,1.2c0.1-0.9,0-1.4,0.2-1.8
		c0.2-0.8,0.6-1.6,0.8-2.4c0.3-1.3,0.9-2.2,1.9-3.1c2.9-2.3,2.8-7.9,0-10.2c-1.1-0.9-1.5-1.9-1.8-3.1c-2.3-8.3-7.4-14.5-14.9-18.7
		c-0.4-0.2-0.9-0.4-1.6-0.7c-0.4,1.1-0.7,2.1-1.1,3.1c-1.8,4.7-6.4,6.7-10.5,6C294.8,322.7,294.3,322.4,293.2,322.1z"/>
	<path class="st0" d="M120.3,779.2c-11-2.6-22-3.6-33-3.3c-0.7-1-0.2-1.8,0.1-2.5c1.2-3.3,2.2-6.6,2.9-10.1
		c2.5-13.7,0.3-26.7-6.5-38.8c-4.8-8.5-11.4-15.4-19.7-20.5c-1.1-0.7-2.5-1.2-3.4-2.3c4.4-1.7,15.2-1.3,23.1,0.8
		c11.3,3,20.6,8.9,28.2,17.7C127.9,738.3,128.3,763.9,120.3,779.2z"/>
	<path class="st0" d="M262.4,290.6c1.3-0.8,2-1.2,2.7-1.6c0.7-0.4,1.3-0.7,2-1c1.5-0.5,2.7,0,3.6,1.3c0.8,1.3,0.8,2.7-0.2,3.9
		c-0.6,0.7-1.4,1.3-2.1,1.9c-9.9,8.2-16.8,18.3-20.5,30.6c-0.3,1.1-0.7,2.2-0.9,3.4c-0.2,0.9-0.3,1.9-0.5,3c0.6,0.3,1.1,0.6,1.7,0.8
		c1.8,0.7,3.2,1.8,4.1,3.4c0.7,1.2,1.4,2.4,1.9,3.6c1.3,3.2,2.5,6.5,3.7,9.9c-1.4,0.9-2.8,1.3-4.2,1.8c-10.5,3.6-20.7,7.8-30.9,12.2
		c-5,2.2-7.9,5.6-8.3,11c-0.2,2.5-0.1,5.1,0,7.6c0,0.9,0.2,1.9,0.3,2.9c-1.3,1.1-2.6,2.2-4.1,3.4c-0.4-0.3-1-0.6-1.3-1.1
		c-1.1-1.4-2.1-2.9-2.7-4.7c-1.5-4-2.6-8.1-2.9-12.4c-0.2-3.3,0.2-6.6,0.7-9.8c1.4-7.8,4.4-15.1,8.2-22c6-10.9,13.6-20.6,22.3-29.5
		c6.7-6.9,13.9-13.2,21.8-18.6c1.7-1.2,3.6-2.3,5.6-3.6C262.4,288.3,262.4,289.2,262.4,290.6z"/>
	<path class="st0" d="M392.7,319.7c8.2,0.9,15.7,2.2,23.2,3.6c36.8,6.7,72.5,17,107.1,31.1c0.3,0.1,0.5,0.3,1.2,0.7
		c-2.2,0.6-3.8,1.1-5.4,1.5c-7.6,2.1-15.2,4.2-22.8,6.3c-0.5,0.1-1.1,0.2-1.5,0.4c-1.3,0.6-2.5,0.3-3.7-0.1c-4.1-1.5-8.2-3-12.3-4.4
		c-13.6-4.7-27.3-8.8-41.3-12.2c-8.5-2.1-17-3.9-25.5-5.8c-1.1-0.2-2-0.7-2.6-1.6c-2.7-3.7-5.9-7-9.5-9.8c-0.6-0.5-1.2-1.2-1.7-1.9
		c-1.4-2-2.7-4.1-4.1-6.1C393.5,321,393.3,320.7,392.7,319.7z"/>
	<path class="st0" d="M191.1,445.3c8-1.5,13.6-6,17.1-13.7c0.4,0.9,0.6,1.3,0.7,1.7c1.6,13.8,3.6,27.6,5.9,41.4
		c0.5,2.8,1.1,5.7,1.8,8.4c2.1,7.5,6.2,13.7,12.5,18.4c3.5,2.6,7.4,4.1,11.6,5c0.4,0.1,0.7,0.1,1.7,0.3c-1.2,0.4-1.9,0.7-2.6,0.8
		c-10.6,2-21.1,4-31.7,6c-2.3,0.4-4.6,0.5-7-0.1c-3.3-0.8-5.7-2.7-7-5.9c-1.6-4-2.7-8.1-3.6-12.2c-2.2-11.4-3.3-22.9-3.1-34.6
		c0-2.8,0.3-5.5,0.6-8.3C188.5,450,189.6,447.7,191.1,445.3z"/>
	<path class="st0" d="M292.1,279.6c1.2,0.1,2.3,0.1,3.3,0.2c9.1,1,18,3.2,26.7,6.2c11.1,3.9,21.7,8.8,31.6,15.2
		c7,4.5,13.5,9.6,19.2,15.7c4.5,4.9,8.3,10.2,10.7,16.5c1.9,4.9,2,10,0.6,15c-0.1,0.3-0.2,0.6-0.4,0.9c0,0.1-0.1,0.2-0.4,0.4
		c-1.5-0.2-3.1-0.6-4.8-1.3c-0.4-1.2-0.9-2.4-1.3-3.6c-1-2.6-2.2-5.1-3.9-7.3c-2.5-3.3-5.6-5.2-9.8-5c-6.8,0.3-13.6,0.5-20.4,0.9
		c-3.6,0.2-7.2,0.6-10.8,0.9c-0.5,0-1-0.1-1.7-0.1c-0.1-0.7-0.2-1.3-0.2-2c-0.1-3.2-0.4-6.4-0.3-9.6c0.1-3.2,1.2-6,4.1-8
		c-0.3-1.2-1-2.1-1.7-3.1c-5.7-7.8-12.9-13.8-21.4-18.3c-4.3-2.2-8.8-3.9-13.3-5.1C296,285.4,294.1,282.6,292.1,279.6z"/>
	<path class="st0" d="M404.6,388.1c1.2,0.8,1.8,1.2,2.4,1.6c4.6,3.1,9.7,4.5,15.2,3.6c2.7-0.4,4.5,0.3,6.3,2.1
		c1.8,1.7,3.2,3.7,4.4,5.9c2.7,4.7,4.9,9.7,6.9,14.7c2.7,6.8,5.1,13.8,6.9,20.9c1.1,4.5,2.1,9.1,2.3,13.8c0.1,4-1.7,7-5,9
		c-1.6,1-3.4,1.8-5.3,2.2c-10.8,2.9-21.6,5.6-32.4,8.4c-0.1,0-0.2,0-0.6-0.1c0.9-0.7,1.5-1.2,2.2-1.8c5.8-4.4,9.8-10,11.4-17.2
		c1.1-4.8,1-9.5-0.1-14.2c-1.8-7.9-4.1-15.6-6.5-23.4c-2.2-7.2-4.6-14.4-6.9-21.6C405.4,391,405.1,389.9,404.6,388.1z"/>
	<path class="st0" d="M282.8,351.2c-1.2-0.1-2.3-0.3-3.5-0.3c-3.9,0-6.8,2.5-7.6,6.4c-0.1,0.5-0.1,1-0.2,1.8c-1.3-1-2.6-1.9-4-2.5
		c-2.4-1-3.7-4.7-2.6-7.1c0.6-1.3,0.6-2.4,0.4-3.7c-2.6-12.9,5.4-29.6,23.2-33.4c1.3-0.3,2.8-0.4,4.1-0.3c1,0.1,2.1,0.5,3,1
		c1.5,0.9,2.1,2.7,1.7,4.5c-0.5,1.7-1.9,2.8-3.8,2.8c-0.8,0-1.7-0.2-2.5-0.4c-0.5-0.1-1-0.2-1.4-0.3c-0.6,0.7-0.3,1.1,0.1,1.5
		c6,5.4,14.4,3,17.3-3.6c0.3-0.7,0.6-1.4,1-2.2c8.3,4.7,13.2,11.6,15.1,21c0.4,0.3,1,0.5,1.5,0.9c0.8,0.6,1.3,1.4,1.5,2.4
		c0.4,2.6,0.4,5.1-2.4,6.6c-0.7,0.4-0.9,1.6-1.5,2.6c-0.4-0.5-0.7-1-1-1.5c-2.5-3.7-6.7-4.7-10.6-2.5c-0.5,0.3-1,0.7-1.6,1.1
		c0.2-0.7,0.6-1.4,0.7-2.1c0.2-1.4,0.1-2.7-1.3-3.6l0.1,0.1c-0.3-0.2-0.6-0.6-1-0.7c-1.7-0.7-3.2-0.5-4.4,0.7
		c-1.2,1.3-1.5,3.2-0.6,4.7c0.8,1.4,2.3,2.2,4.1,1.9c0.7-0.1,1.5-0.3,2.2-0.5c-1.2,1.7-1.9,3.5-1.6,5.7c0.4,3.8,3.4,6.6,7.3,6.8
		c0.8,0,1.7,0,2.7,0c-0.4,1.7-1.7,2.5-2.7,3.5c-1.9,1.9-4,3.6-6.8,4.6c2.3-6.1,0.4-7.5-2.8-9.5c0-1,0.1-2.1,0-3.2
		c-0.2-3.6-2.8-6.4-6.3-7.1c-3.1-0.6-6.6,1.2-8,4c-1.1,2.2-1,4.5-0.2,6.8c0.2,0.7,0.7,1.3,1,1.9c-2.8,3.5-3.5,6.9,2.3,10.3
		c-4.9,0-9.2-1.3-13.2-3.6c0.2-1,0.9-0.8,1.3-0.9c3-0.9,4.9-2.9,5.5-6c0.5-3-0.5-5.4-2.8-7.4C283.6,352,283.2,351.5,282.8,351.2
		c0.8,0,1.6,0.1,2.4,0c1.4-0.2,2.3-1.1,2.7-2.4c0.6-1.8-0.1-3.7-1.7-4.7c-1.7-1-3.7-0.7-4.9,0.8c-1.2,1.4-1.3,3.7-0.2,5
		C281.6,350.4,282.2,350.7,282.8,351.2z M272.8,340.7c0.2-0.3,0.6-0.5,0.8-0.9c1.1-2.9,3-5.1,5.9-6.3c0.4-0.2,0.7-0.5,0.9-0.9
		c0.1-0.2-0.1-0.6-0.2-0.7c-0.2-0.2-0.6-0.2-0.9-0.1c-3.7,1.4-6.2,4-7.3,7.8C271.7,340.1,272,340.6,272.8,340.7z M313.5,332.5
		c0.8-1,0.5-1.6,0-2c-2.6-2.7-5.7-4-9.4-3.8c-0.2,0-0.4,0.1-0.6,0.2c-0.1,0.1-0.3,0.3-0.3,0.5c0,0.2,0.1,0.5,0.3,0.5
		c0.6,0.2,1.2,0.3,1.8,0.4c2.5,0.4,4.7,1.2,6.5,3C312.4,331.8,312.9,332.1,313.5,332.5z"/>
	<path class="st0" d="M592.5,418.3c0,9.7,0,19.1,0,28.5c-0.9,0.4-1.3-0.2-1.7-0.6c-4.3-3.4-8.6-6.9-13-10.3
		c-13.6-10.4-27.9-19.8-42.9-28.2c-6.5-3.6-13.1-7-19.7-10.5c-0.5-0.2-0.9-0.5-1.6-1c7.7-4.2,15.3-7.7,22.8-11.8
		C556,394.4,574.8,405.5,592.5,418.3z"/>
	<path class="st0" d="M181.4,398.7c0.4,1.4,0.3,2.9,0.1,4.5c-7,2.5-11.7,7.2-14.1,14.1c-4.6,1.6-9.2,3.1-13.7,4.7
		c-19.2,6.8-37.6,15.5-55.1,25.9c-1.2,0.7-2.4,1.4-3.5,2.2c-2.4,1.8-5.1,2.6-7.9,3.1c-7.8,1.6-15.6,3.4-23.4,5
		c-0.4,0.1-0.8,0.1-1.3,0.1c2.2-2.5,8.6-7.4,15.1-12c25.5-18,53.2-31.6,82.7-41.6C173.9,400.1,178.3,398.9,181.4,398.7z"/>
	<path class="st0" d="M4,687.6c0-8.3-0.1-16.7,0.1-25.2c0.5-0.2,0.9-0.4,1.3-0.4c22.3,1.8,38,12.9,47.1,33.2c0.4,0.9,0.7,2,1,2.9
		c-0.6,0.6-1.1,0.2-1.6,0.1c-7.5-2.4-15.2-3.2-23-2.6c-1.6,0.1-3.2,0.4-4.7,0.6c-1,0.1-1.9,0-2.7-0.5c-5.1-3.1-10.5-5.6-16.2-7.4
		C4.9,688.2,4.5,687.9,4,687.6z"/>
	<path class="st0" d="M537.9,383.7c7.2-4.3,14-8.5,20.9-12.6c4.8,1.7,28.9,15.2,33.7,18.9c0.2,8.5,0.1,17.1,0.1,25.6
		c-1,0.7-1.5-0.1-2.1-0.5c-6.7-4.4-13.3-8.8-20-13.1c-9.6-6.1-19.6-11.6-29.7-16.8C539.9,384.9,539.1,384.4,537.9,383.7z"/>
	<path class="st0" d="M216.6,385.1c-0.3-0.3-0.4-0.4-0.4-0.5c-1.3-5-1.2-9.9,0.9-14.6c0.7-1.6,1.9-2.8,3.5-3.6
		c1.7-0.8,3.4-1.7,5.2-2.5c10-4.5,20.3-8.3,30.6-11.9c0.6-0.2,1.2-0.3,2-0.6c0.5,0.8,1,1.6,1.5,2.3c2.3,3.8,5,7.1,8.7,9.6
		c1.8,1.2,3.6,2.2,5.7,2.7c1.1,0.3,2.3,0.5,2.8,2.1C256.9,373.4,236.5,378.5,216.6,385.1z"/>
	<path class="st0" d="M96.2,451.4c6.2-6.7,54.2-28.7,70.4-32.3c0,0.6,0.2,1.2,0.1,1.8c-0.9,6.4,0.8,12,4.9,16.9
		c0.4,0.5,0.8,1,1.2,1.5c0.1,0.1,0,0.2,0,0.4c-0.2,0.1-0.5,0.3-0.8,0.4C146.7,443.3,121.5,446.8,96.2,451.4z"/>
	<path class="st0" d="M489.4,364.7c-1.4,0.4-2.8,0.9-4.2,1.3c-8,2.5-16.1,4.9-24.1,7.4c-1.2,0.4-2.2,0.4-3.4,0
		c-5.6-1.8-11.1-3.6-16.9-5.4c-0.2-0.6-0.6-1.2-0.8-1.9c-2.5-9.2-11.2-16-21.8-15.7c-0.8,0-1.7,0-2.6,0c-1.4-2.7-2.7-5.3-4.1-8
		c0.5-0.1,0.8-0.2,1.1-0.2c14.9,2.9,29.7,6.6,44.2,10.9c11,3.3,21.9,6.8,32.6,10.9C489.4,364.3,489.4,364.5,489.4,364.7z"/>
	<path class="st0" d="M377.2,348.7c-0.4,0.3-0.5,0.4-0.7,0.5c-0.8,0.2-1.7,0.4-2.5,0.5c-17.9,2.1-35.6,5.7-53.8,9.1
		c0.6-0.9,0.8-1.6,1.3-1.9c5.3-4.3,7.5-10.2,8.5-16.6c0.2-1.3,0.4-2.7,0.6-4.2c1.9-0.3,3.7-0.6,5.5-0.7c2.5-0.2,5.1-0.5,7.6-0.6
		c6.6-0.3,13.2-0.5,19.8-0.8c3.5-0.2,6.2,1.2,8.4,3.8C374.6,340.9,376.2,344.7,377.2,348.7z"/>
	<path class="st0" d="M53.9,480.9c-6.6,6.4-12.8,12.4-18.6,18.8c-5.8,6.5-11.3,13.2-16.5,20.3c-5.1,6.9-9.8,14.1-14.5,21.7
		c-0.2-0.8-0.4-1-0.4-1.3c0-5,0-10,0-15c0-1.5,0.4-2.7,1.2-3.9c7.3-11.1,15.2-21.8,24.1-31.7c2.7-3,5.4-6,8.2-8.9
		c1.1-1.2,2.2-2.2,3.4-3.4c2.3,0.1,4.3,1.2,6.5,1.7C49.3,479.6,51.4,480.2,53.9,480.9z"/>
	<path class="st0" d="M289.8,372.4c-2.7,2.3-4.9,4.3-6.2,7.2c-0.7,0.2-1.5,0.6-2.3,0.8c-18,4-35.9,8.1-53.9,12.1
		c-5,1.1-10,0.7-14.6-1.8c-0.3-0.1-0.5-0.4-0.9-0.7c0.4-1.2,1.3-1.8,2.3-2.4c0.8-0.5,1.7-0.8,2.6-1.1c8.6-3,17.4-5.6,26.3-7.9
		c11.4-3,22.9-5.9,34.3-9c1.4-0.4,2.6-0.3,4,0.2c2.1,0.8,4.2,1.4,6.4,2C288.2,371.9,288.7,372,289.8,372.4z"/>
	<path class="st0" d="M311.2,367.6c0.6-0.5,1-0.8,1.5-1.2c1.6-1.4,3.3-2.7,4.7-4.3c1.2-1.4,2.6-2.1,4.3-2.4c3.7-0.7,7.3-1.4,11-2.1
		c7.8-1.4,15.7-2.9,23.5-4.2c7.1-1.1,14.3-2,21.5-2.9c1.1-0.1,2.3,0,3.5,0.1c0.6,0.1,1.1,0.5,1.7,0.8c-0.4,1.3-1.1,2.2-1.9,3.1
		c-2.7,2.9-5.8,4.9-9.7,5.8c-9.2,2-18.5,4.1-27.7,6.2c-7.3,1.6-14.5,3.2-21.8,4.9c-1.6,0.4-2.8,0.1-4.2-0.7
		C315.7,369.4,313.6,368.7,311.2,367.6z"/>
	<path class="st0" d="M419.9,351.6c11,0.2,20.2,9.3,20,20.7c-0.2,11.7-9.6,20.4-20.8,20.2c-11.4-0.2-20.5-9.6-20.1-21.2
		C399.2,360.9,407.9,351.3,419.9,351.6z M420.3,357.1c-5.8,0.3-11.2,1.9-14,8.1c-1.1,2.4-1.7,4.8-1.6,7.4c0.3,6,3.2,10.4,8.5,12.9
		c5.5,2.6,10.9,1.8,15.6-2c6.3-5,7.7-15.3,0.9-22c-0.6-0.6-1.5-1-1.8-1.7c-0.8-1.5-2.3-1.8-3.7-2.2
		C423,357.3,421.8,357.2,420.3,357.1z"/>
	<path class="st0" d="M188,403.4c11.2-0.1,20.5,9.2,20.5,20.5c-0.1,11.3-9.4,20.5-20.6,20.4c-11.2-0.1-20.3-9.3-20.3-20.4
		C167.5,412.3,177.1,403.2,188,403.4z M194.7,409.5c-3.2-0.8-6.3-0.8-9.3-0.2c-3.3,0.6-6.4,2-8.5,4.7c-2.6,3.2-4,7-3.5,11.3
		c0.6,5.9,3.7,10.2,9.2,12.4c5.6,2.3,11,1.3,15.4-2.7c7.2-6.5,6-17.4-0.8-22.6C196,411.4,195,410.7,194.7,409.5z"/>
	<path class="st0" d="M560.1,370.1c6.3-4.6,12.4-8.8,17-14.4c2.5,0.6,12.6,5.8,15.3,7.9c0.4,4.5,0.2,21.7-0.2,24.1
		c-0.1,0-0.2,0.1-0.3,0.1c-0.1,0-0.2,0-0.3-0.1C581.5,381.6,571.1,375.8,560.1,370.1z"/>
	<path class="st0" d="M550.5,373.4c-0.4,1.1-1.5,1.4-2.4,1.9c-7.6,4.7-15.5,8.8-23.5,12.8c-3.7,1.9-7.3,3.9-11.1,5.7
		c-6,2.9-12.1,5.8-18.2,8.5c-9.6,4.3-18.9,9.3-27.8,14.9c-6.2,3.9-12.4,7.9-18.6,11.9c-0.6,0.4-1.3,0.7-2.1,1.2
		c-1.3-2-1.6-4.2-2.4-6.3c-0.7-2.1-1.8-4.1-2.1-6.5c0.7-0.3,1.2-0.6,1.8-0.7c17.8-4.9,35.1-10.9,52.1-17.9
		c16.6-6.8,32.7-14.4,48.5-22.8C546.7,375.2,548.4,373.9,550.5,373.4C550.5,373.5,550.5,373.4,550.5,373.4z"/>
	<path class="st0" d="M65.9,480.4c0.9,0,1.9,0,2.8,0c8.8,0.4,17.6,1,26.5,1.1c8.4,0.2,16.8,0,25.2-0.2c7.3-0.2,14.7-0.6,22-1.2
		c7.4-0.6,14.8-1.4,22.2-2.3c6-0.7,12-1.7,18-2.6c1.1-0.2,2.3-0.4,3.6,0c0.4,4.1,0.9,8.2,1.3,12.3c-1.1,0.7-2.1,0.3-3,0.2
		c-3.5-0.5-6.9-1-10.4-1.5c-7.7-1-15.4-1.7-23.2-2.3c-7.3-0.5-14.7-0.6-22-0.4c-2.1,0.1-4.3,0.3-6.4,0.2c-9.8-0.2-19.6-0.6-29.4-0.8
		c-7.1-0.2-14.2-0.7-21.3-1.5c-2-0.2-4-0.5-6-0.8C65.9,480.5,65.9,480.5,65.9,480.4z"/>
	<path class="st0" d="M246.4,508.1c1.6-0.5,3.2-0.9,4.9-1.1c5.7-0.7,11.4-1.5,17.1-2c7.6-0.7,15.2-1.8,22.8-2.8
		c10-1.3,20-3.1,29.9-5.2c15.4-3.3,30.6-7.4,45.6-12.3c7.4-2.4,14.7-5.2,22-7.6c4.4-1.5,9-2.7,13.4-4c0.5-0.1,1-0.2,1.6,0.2
		c-0.7,0.4-1.4,0.8-2.1,1.1c-7.2,2.6-14.4,5.3-21.6,7.7c-18.5,6.2-37.3,11.2-56.3,15.4c-12.6,2.8-25.2,5.3-38,7.1
		c-7.2,1-14.3,2-21.5,2.9c-5.1,0.6-10.2,1-15.3,1.4c-0.8,0.1-1.6,0-2.4,0C246.5,508.6,246.5,508.4,246.4,508.1z"/>
	<path class="st0" d="M592.5,713.3c-4.2-1.3-8.1-2.6-12.1-3.6c-3.9-1.1-7.9-1.4-11.9-1.4c-0.4-0.9,0.3-1.1,0.6-1.4
		c3.9-2.8,8.1-5.2,12.5-7.1c2.6-1.2,5.3-2.1,8-3.1c0.8-0.3,1.6-0.4,2.6-0.7c0.7,3,0.3,5.9,0.3,8.7
		C592.6,707.5,592.6,710.3,592.5,713.3z"/>
	<path class="st0" d="M199.1,405c-5-2.3-10-3.3-15.2-2.3c-1.7-5.8,1.4-20.4,5.3-24.9C191.6,387.2,194.9,396.2,199.1,405z"/>
	<path class="st0" d="M400.9,359.9c0.3-9.8-0.3-19-2.2-28.3c5.2,2.7,12.3,11.9,14.9,19.3c-2.2,1.2-4.6,2.1-6.6,3.5
		C405,355.8,403.3,357.7,400.9,359.9z"/>
	<path class="st0" d="M272.9,358.4c-0.1-3.4,2.8-6.4,6.6-6.4c3.4,0,6.2,3,6.2,6.4c0,3.6-2.9,6.6-6.5,6.5
		C276.3,364.9,272.8,362.8,272.9,358.4z"/>
	<path class="st0" d="M314.4,357.7c-3.6,0-6.4-2.9-6.4-6.5c0.1-3.6,3-6.4,6.6-6.4c3.5,0,6.3,3.1,6.3,6.7
		C320.9,354.9,317.9,357.8,314.4,357.7z"/>
	<path class="st0" d="M4.3,703.4c-0.4-2.9-0.4-11.1,0-13.7c3.1,0.3,13.1,4.6,16.2,7.2c-1.9,0.6-3.7,1.2-5.5,1.8
		c-1.9,0.7-3.8,1.5-5.6,2.3C7.7,701.7,6.1,702.8,4.3,703.4z"/>
	<path class="st0" d="M317.7,372.1c-10.5,2.5-20.5,4.6-30.6,6.9c-0.5,0.1-1,0.1-1.8,0.1c0.3-0.7,0.4-1.1,0.7-1.5
		c1.3-2,3.2-3.5,5.2-4.6c1.6-1,3.4-1,5.1,0c0.9,0.5,1.9,1,2.9,1.1c2,0.2,3.7-0.6,5-2.3c1.8-2.5,4.3-3.3,7.3-2.7
		C313.5,369.6,315.6,370.2,317.7,372.1z"/>
	<path class="st0" d="M297.8,348.7c-0.3,0.5-0.5,0.9-0.7,1.3c-0.5,1.1-0.2,2.1,0.8,2.7c0.9,0.5,2,0.2,2.7-0.8
		c0.2-0.3,0.2-0.6,0.4-0.9c0.1-0.2,0.3-0.3,0.5-0.5c1.3,0.8,1.7,2.1,1.9,3.4c0.2,1.5-0.1,3-0.9,4.3c-1.6,2.6-5,3.8-7.8,2.6
		c-2.9-1.2-4.7-4.3-4.1-7.1C291.2,350.3,293.8,348.5,297.8,348.7z"/>
	<path class="st0" d="M303.8,358.9c0.6,0.3,1.3,0.4,1.8,0.8c2.2,1.7,2.3,4.4,0.2,6.3c-1.4,1.3-3.1,2.2-5,2.7
		c-2.5,0.7-5.1,0.7-7.5-0.1c-2.5-0.8-3.6-2.8-2.9-5.2c0.1-0.5,0.4-1,0.7-1.4c0.4-0.6,1-0.8,1.7-0.6c0.2,0.1,0.4,0.1,0.6,0.2
		c3.8,1.8,7,0.9,9.7-2.1C303.2,359.4,303.4,359.3,303.8,358.9z M297.1,366.1c0-0.1,0-0.1,0-0.2c0.3,0,0.6,0,1,0c1.9,0,3.5-0.7,5-1.8
		c0.2-0.1,0.4-0.3,0.4-0.4c0.1-0.3,0.2-0.7,0.1-0.9c-0.1-0.2-0.6-0.4-0.8-0.3c-2.7,1.4-5.5,2.3-8.5,1.5c-0.2,0-0.6,0.3-0.6,0.6
		c0,0.2,0.2,0.7,0.4,0.8C295.1,365.6,296.1,365.9,297.1,366.1z"/>
	<path class="st0" d="M456.5,374.9c-5.9,1.9-11.2,3.7-16.8,5.5c-0.2-1.4,0.4-2.4,0.6-3.4c0.2-1.1,0.3-2.3,0.4-3.5
		c0.1-1.1,0-2.3,0-3.4C443.4,370.1,453,373,456.5,374.9z"/>
	<path class="st0" d="M301.8,371.6c-1.4,1.4-1.4,1.4-3.5,0.8C299.7,372,300.7,371.8,301.8,371.6z"/>
	<path class="st0" d="M298.8,351.9c-0.3-0.3-0.7-0.6-0.6-0.7c0.1-0.3,0.4-0.6,0.6-0.9c0.3,0.2,0.5,0.5,0.8,0.7
		C299.3,351.3,299.1,351.5,298.8,351.9z"/>
	<path class="st0" d="M553.5,371.4c-0.7,1.2-1.7,1.9-3.1,2c0,0,0.1,0.1,0.1,0.1C551.2,372.3,552.6,372.2,553.5,371.4L553.5,371.4z"
		/>
	<path class="st0" d="M553.6,371.5c0.1-0.1,0.3-0.2,0.4-0.3C553.9,371.3,553.7,371.3,553.6,371.5
		C553.5,371.4,553.6,371.5,553.6,371.5z"/>
	<path class="st0" d="M308.2,340.2c-0.2,0.5-0.3,1-0.5,1.4c-0.1,0.2-0.6,0.3-0.8,0.2c-0.2-0.1-0.5-0.4-0.5-0.7
		c0-0.2,0.2-0.7,0.4-0.7C307.3,340.3,307.8,340.3,308.2,340.2C308.3,340.3,308.2,340.2,308.2,340.2z"/>
	<path class="st0" d="M122.1,226.9c1.2,0.7,2.2,1.2,3.2,1.9c1.7,1.1,3.4,2.2,4.9,3.6c4.4,3.8,5.6,8.7,3.9,14.2
		c-1.6,5.1-5.1,8.2-10.4,9.3c-1.7,0.3-3.4,0.4-5.1,0.6c-1,0.1-2.1,0.3-3.1,0.4c-0.6,1.3-0.8,2.5-1.1,3.8c-0.4,2.3-0.8,4.6-1.5,6.9
		c-1.7,5.6-5.6,8.5-11.5,8.9c-5,0.3-8.7-1.6-11.3-5.8c-0.9-1.4-1.6-3-2.4-4.5c-0.3-0.7-0.6-1.4-0.9-2c-1.2-2.5-1.4-2.6-4.2-2.3
		c-3.3,0.4-6.5,0.9-9.9,0.4c-3.4-0.5-6-2.1-8-4.8c-1.4-2-2.4-4.2-3-6.6c-0.7-2.7-0.4-5.3,1-7.7c1-1.7,2.3-3.3,3.6-4.8
		c1.3-1.4,2.7-2.7,4.1-4c1-0.9,1.3-1.9,0.7-3.1c-0.7-1.4-1.4-2.9-2-4.3c-0.6-1.5-1.2-3-1.6-4.5c-1.2-3.9-0.2-7.3,2.3-10.4
		c0.5-0.6,1-1.1,1.6-1.6c3.7-3.4,7.9-4.5,12.6-2.6c2.2,0.9,4.2,2,6.3,3.1c1.3,0.7,2.6,1.5,4,2.3c0.8-0.7,1.5-1.4,2.2-2
		c1.6-1.4,3-3,4.7-4.3c4.4-3.4,9.2-3.7,14.1-1.2c5.6,2.8,8,7.1,7.6,13.9C122.9,221.9,122.5,224.3,122.1,226.9z"/>
	<path class="st0" d="M95,277.3c2.4,0.5,4.8,0.6,7.1,0.4c1.7-0.2,3.4-0.6,4.9-1.2c2.5-0.9,4.3-2.7,5.6-5c1.3-2.4,2.1-4.9,2.5-7.5
		c0.3-1.9,0.7-3.7,1-5.7c1.2-0.6,2.4-0.4,3.5-0.5c1.1-0.2,2.1-0.3,3.2-0.5c4.3-0.6,7.9-2.4,10.4-6.1c3.5-5.2,4.4-13.8-1.7-19.2
		c-1-0.9-2.1-1.8-3.2-2.6c-0.5-0.4-1-0.8-1.4-1.2c0.2-0.2,0.2-0.3,0.3-0.4c5.8-3.5,11.7-4.1,18-1.3c2.7,1.2,4.7,3.3,6.4,5.6
		c2.1,3,3.6,6.2,5.1,9.6c0.3,0.6,0.5,1.2,0.8,1.9c0.9,0,1.7-0.1,2.5-0.1c3.7-0.3,7.4-0.3,11.1,0.4c5.6,1.1,9.7,4.2,12.1,9.5
		c0.7,1.6,1.3,3.4,1.7,5.1c1.2,6-0.6,11.2-4.9,15.5c-2.3,2.3-5,4.3-7.6,6.3c-0.6,0.5-1.5,0.7-2.4,0.8c-2.5,0.4-5.1,0.6-7.6,0.9
		c-15.7,1.4-31.5,1.8-47.2,1.5c-3.1-0.1-6.2-0.2-9.3-0.1c-2,0-3.8-0.5-5.4-1.7c-1.5-1.1-3-2.1-4.4-3.1
		C95.6,278.1,95.3,277.7,95,277.3z"/>
	<path class="st0" d="M50.2,244c0.7-1.8,0.8-3.6,0.9-5.4c0.1-2.4,0.6-4.6,1.5-6.8c2.1-5.5,7.7-9.1,13.6-8.9c1.4,3.1,2.7,6.3,4.2,9.7
		c-0.7,0.7-1.3,1.4-2,2.1c-1.6,1.6-3.2,3.1-4.7,4.8c-3.8,4.5-4.4,9.5-2.1,14.9c0.6,1.5,1.5,2.9,2.4,4.1c2.4,3.3,5.7,5,9.8,5.1
		c2.8,0,5.5,0.2,8.3-0.5c0.8-0.2,1.7,0,2.6,0c0.5,1.1,1,2.1,1.6,3.1c1.3,2.6,2.6,5.1,3.9,7.7c1.5,2.8,3.8,4.8,6.3,6.6
		c0.7,0.6,1.5,1.1,2.3,1.6c-0.4,0.8-1,0.5-1.5,0.5c-4.3-0.3-8.5-0.5-12.8-0.9c-6.5-0.7-12.9-1.4-19.3-2.3c-7.2-0.9-14.3-2.1-21.3-4
		c-4.1-1.1-7.9-3.1-11.2-6c-2.8-2.5-4.2-5.6-4-9.4c0.2-3.9,1-7.6,4-10.4c1.8-1.7,3.8-2.8,6.1-3.3c3.1-0.8,6.2-1.3,9.4-1.9
		C49,244.3,49.6,244.2,50.2,244z"/>
	<path class="st0" d="M175.2,280.2c0-0.3-0.1-0.4,0-0.5c0.8-0.7,1.6-1.3,2.4-2.1c1.6-1.4,3.2-2.8,4.6-4.4c2.7-3.1,4-6.7,4.1-10.8
		c0.1-4.2-0.8-8-3-11.6c-1.4-2.4-3.3-4.4-5.7-5.9c-0.4-0.3-0.9-0.6-1.5-1c1.1-1.6,2.5-2.3,4.2-2.7c4.6-1,10.7,1.6,11.7,7.2
		c0.2,1.2,0.3,2.5,0.4,3.8c0.1,1.3,0,2.5,0,4.1c0.5,0.3,1.1,0.7,1.7,1c1.6,0.9,3.2,1.7,4.7,2.8c5.6,3.8,4.4,12.8-1,15.7
		c-1,0.5-2.1,1-3.2,1.3c-6,1.3-12.1,2.4-18.2,3.1C175.9,280.2,175.6,280.2,175.2,280.2z"/>
	<path class="st0" d="M221.1,124.9c-1.4,0.7-2.1,1.2-2.8,1.5c-2.8,1.4-5.6,2.7-8.3,4.1c-2.4,1.2-2.9,2.9-1.6,5.3c0.6,1,1.3,2,1.9,3
		c0.4,0.7,0.9,1.5,1.2,2.2c0.4,0.9,0,1.7-0.8,2.1c-0.6,0.3-1.2,0.5-1.8,0.7c-1.2,0.4-2.4,0.8-3.6,1.3c-2.6,1-3.3,2.3-2.3,5
		c1,2.8,2.3,5.5,3.3,8.3c0.4,1,1,2.1,0.8,3.5c-0.6-0.1-1.2-0.1-1.6-0.3c-2.5-0.8-5-1.7-7.5-2.6c-0.5-0.2-1-0.3-1.5-0.5
		c-3.7-1.2-5-0.4-5.9,3.4c-0.3,1.1-0.5,2.3-0.7,3.4c-0.6,2.4-1.4,2.8-3.6,1.8c-0.8-0.4-1.5-0.8-2.3-1.2c-0.4-0.2-0.8-0.4-1.1-0.6
		c-3-1.7-5.2-0.8-6.3,2.3c-1.1,3.1-2.5,6.1-3.8,9.1c-0.2,0.5-0.6,1-1,1.6c-1-0.6-1.3-1.6-1.7-2.4c-1.2-2.4-2.3-4.8-3.5-7.2
		c-0.3-0.6-0.5-1.2-0.9-1.7c-1.1-1.6-2.7-2.2-4.4-1.3c-1.4,0.7-2.7,1.7-4.1,2.5c-2.8,1.6-3.3,1.4-4.4-1.5c-0.5-1.3-0.8-2.6-1.3-3.9
		c-0.9-2.4-2.4-3.1-4.8-2.3c-3.1,1.1-6.1,2.4-9.2,3.7c-0.9,0.3-1.7,0.9-2.9,0.7c0.1-0.6,0.1-1.1,0.3-1.6c1-2.8,1.9-5.6,2.9-8.5
		c0.3-0.8,0.6-1.6,0.7-2.5c0.3-2-0.5-3.3-2.4-3.9c-0.9-0.3-1.9-0.4-2.8-0.6c-1-0.2-2.1-0.5-3.1-0.8c-1.3-0.4-1.6-1.2-1.1-2.5
		c0.4-1,0.9-1.9,1.4-2.9c0.3-0.7,0.7-1.3,1-2c1.1-2.5,0.6-4.1-1.8-5.2c-1.5-0.7-3.1-1.3-4.7-2c-1.9-0.8-3.7-1.6-5.6-2.4
		c-0.4-0.2-0.7-0.4-1.3-0.8c0.5-0.5,0.9-0.9,1.3-1.1c2.7-1.3,5.4-2.6,8-3.9c0.8-0.4,1.6-0.7,2.3-1.2c1.5-1,2-2.5,1.2-4.2
		c-0.5-1.1-1.3-2.2-2-3.3c-0.3-0.5-0.6-0.9-0.8-1.4c-1.2-2.2-1-2.9,1.4-3.8c1.3-0.5,2.6-0.8,3.9-1.3c2.9-1.1,3.7-2.5,2.6-5.4
		c-1.1-3-2.4-5.9-3.6-8.9c-0.3-0.7-0.5-1.4-0.7-2c0.7-0.9,1.4-0.6,2.1-0.3c2.6,0.9,5.2,1.8,7.8,2.8c0.8,0.3,1.6,0.6,2.4,0.8
		c2,0.4,3.4-0.4,4-2.3c0.5-1.6,0.8-3.3,1.2-5c0.6-2.5,1.3-2.9,3.6-1.9c1.4,0.6,2.6,1.4,4,2c2.7,1.2,4.2,0.7,5.4-2
		c1.3-3,2.5-6.1,3.9-9.1c0.3-0.7,0.4-1.7,1.6-2c0.4,0.7,0.9,1.3,1.3,2.1c1.3,2.7,2.6,5.4,3.9,8c1.4,2.9,3.2,3.4,5.9,1.9
		c1.4-0.8,2.7-1.7,4.1-2.5c1.7-1,2.4-0.7,3.1,1.2c0.5,1.4,0.9,2.8,1.4,4.2c1.1,3.1,2.5,3.9,5.6,2.7c3.1-1.1,6.1-2.5,9.2-3.7
		c0.6-0.3,1.4-0.4,2.4-0.6c-0.2,1-0.3,1.7-0.6,2.4c-0.8,2.5-1.7,5-2.6,7.5c-0.3,0.8-0.6,1.6-0.8,2.4c-0.5,2,0.5,3.6,2.5,4.2
		c1.3,0.4,2.7,0.6,4.1,0.9c0.7,0.2,1.5,0.4,2.1,0.6c0.8,0.3,1.2,1.3,0.8,2.1c-0.5,1.3-1.2,2.5-1.8,3.8c-0.3,0.7-0.7,1.3-1,2
		c-0.7,2-0.1,3.6,1.9,4.5c3.1,1.4,6.3,2.7,9.4,4C219.1,123.8,219.8,124.2,221.1,124.9z M169.1,164.2c21,0,36.8-16.6,37.4-36
		c0.6-19.5-14.2-37.8-36.3-38.4c-22.3-0.5-37.7,17.4-38.1,36.3C131.7,146.2,147.4,163.8,169.1,164.2z"/>
	<path class="st0" d="M154.2,86.3c2.8-0.9,4.8-2,7.3-1.6c-0.1,0.4-0.1,0.7-0.2,1c-1.2,2.9-1.9,3.2-4.8,1.8
		C155.9,87.2,155.4,86.9,154.2,86.3z"/>
	<path class="st0" d="M210.2,112.3c1,2.3,1.5,4.4,1.8,6.7c-1.4,0.1-2.4-0.4-3.3-1.2c-0.6-0.5-0.9-1.2-0.6-2
		C208.5,114.6,209,113.5,210.2,112.3z"/>
	<path class="st0" d="M202.4,99c0.9,1,1.5,1.5,1.9,2.1c0.8,1.1,1.5,2.3,2.4,3.7c-1.8,0.3-3.2,0-4.4-0.9c-0.4-0.3-0.8-1.1-0.7-1.6
		C201.6,101.3,202,100.4,202.4,99z"/>
	<path class="st0" d="M187.7,87.7c2.5,1,4.4,2,6.1,3.6c-0.9,1-2,1.2-3.1,1.5c-0.8,0.2-1.4-0.3-1.8-1
		C188.2,90.6,187.9,89.4,187.7,87.7z"/>
	<path class="st0" d="M184.1,167.9c-2.5,0.8-4.5,1.8-7,1.5c0.3-0.9,0.6-1.7,0.9-2.5c0.5-1,1.5-1.4,2.7-1.1
		C181.9,166.2,182.9,166.7,184.1,167.9z"/>
	<path class="st0" d="M165.3,170c-2.7,0.2-3.7,0-6.3-1c1.2-1.4,2.3-2.2,3.4-2.4c0.7-0.1,1.3,0.1,1.7,0.6
		C164.7,168,165.4,168.8,165.3,170z"/>
	<path class="st0" d="M132.6,149.2c1.2-0.3,2.3,0,3.3,0.5c1.2,0.6,1.7,1.5,1.3,2.8c-0.2,0.7-0.6,1.3-0.9,2
		C134,152.7,133.2,151.5,132.6,149.2z"/>
	<path class="st0" d="M212.7,130.5c-0.3,2.8-0.4,5-1.3,7.3c-1.2-1.1-1.8-2.1-2.2-3.3c-0.4-1.1,0-2,1.1-2.7
		C210.8,131.4,211.5,131.1,212.7,130.5z"/>
	<path class="st0" d="M133.7,102.6c0.3,0.4,0.5,0.6,0.6,0.8c1.3,3,1,3.9-2.1,4.9c-0.3,0.1-0.6,0.2-0.9,0.3c-0.2,0.1-0.4,0.1-0.6,0.1
		c-0.5-0.5-0.2-1,0-1.4C131.5,105.7,132.2,104,133.7,102.6z"/>
	<path class="st0" d="M147.5,90c-0.2,0.8-0.3,1.5-0.4,2.2c-0.4,2.4-1.5,3.2-4.1,2.3c-0.4-0.1-0.7-0.4-1.1-0.6
		C143.2,92,145,90.8,147.5,90z"/>
	<path class="st0" d="M151,166.2c-2.3-0.9-4.3-2-6.1-3.5c1-0.9,2-1.4,3.2-1.3c0.6,0,1.3,0.4,1.6,0.8
		C150.5,163.3,150.9,164.6,151,166.2z"/>
	<path class="st0" d="M197.4,160.2c-2.1,1.7-3.8,3.1-5.9,4c-0.3-1.3,0.3-2.4,0.6-3.5c0.4-1.4,1.5-1.9,3-1.5
		C195.6,159.4,196.3,159.8,197.4,160.2z"/>
	<path class="st0" d="M128.6,141.7c-1.1-2.2-1.6-4.3-1.9-6.7c1.4-0.2,2.4,0.4,3.3,1.1c0.6,0.5,0.8,1.2,0.6,2
		C130.3,139.4,129.6,140.5,128.6,141.7z"/>
	<path class="st0" d="M127.5,116.1c0.8,1.1,1.4,2,1.9,2.9c0.8,1.5,0.4,2.6-1.1,3.4c-0.5,0.3-1.1,0.5-2,0.8
		C126.1,120.7,126.5,118.6,127.5,116.1z"/>
	<path class="st0" d="M208.5,145.2c-0.7,2.8-2,4.5-3.6,6.6c-0.5-1.2-0.9-2-1.2-2.9c-0.3-1.1,0.2-2,1.2-2.6c0.3-0.1,0.6-0.2,0.9-0.3
		C206.5,145.8,207.2,145.6,208.5,145.2z"/>
	<path class="st0" d="M180.4,85.2c-1.5,0.9-2.4,1.5-3.5,2c-0.9,0.5-1.7,0.3-2.3-0.4c-0.6-0.7-1.2-1.5-1.2-2.5
		C175.6,83.8,176,83.8,180.4,85.2z"/>
	<path class="st0" d="M320,197.6c-1.4,0.1-2.4,0.3-3.5,0.4c-1.8,0.1-3.6,0.3-5.4,0.3c-4,0-6.9-1.8-8.9-5.3c-1.5-2.6-2.5-5.4-1.7-8.5
		c0.5-2,1.6-3.7,3-5.2c1.2-1.2,2.4-2.4,3.6-3.6c0.5-0.5,1-1.1,1.6-1.8c-0.4-1.1-0.8-2.2-1.3-3.2c-0.6-1.6-1.4-3.1-2-4.7
		c-2.7-7.4,4.3-13.3,9.2-13.5c2.2-0.1,4.2,0.7,6.1,1.6c1.2,0.5,2.2,1.2,3.4,1.9c1,0.6,2,1.1,3.2,1.7c0.6-0.5,1.2-1,1.7-1.5
		c1.2-1.1,2.3-2.2,3.5-3.3c5.6-4.9,13.7-2.4,16.9,2.8c1,1.6,1.4,3.4,1.4,5.2c0,1.7-0.2,3.4-0.3,5.1c-0.1,1-0.2,2.1-0.4,3.1
		c1.2,0.8,2.3,1.4,3.4,2.1c1.1,0.8,2.3,1.6,3.3,2.5c4.3,3.8,4.4,8.6,2.7,12.8c-1.8,4.4-5.5,6.2-10,6.8c-1.6,0.2-3.1,0.3-4.8,0.5
		c-0.3,0.9-0.6,1.7-0.8,2.5c-0.5,2.1-0.8,4.2-1.3,6.2c-2,7-7.8,8.1-12.7,7.3c-2.2-0.4-4-1.6-5.2-3.5c-1.1-1.6-1.9-3.3-2.8-5
		C321.3,200.1,320.7,199,320,197.6z"/>
	<path class="st0" d="M328.6,211.1c0.5,0,1.1,0,1.6,0c0.9,0,1.7,0.2,2.5,0.1c6.2-0.5,9.2-2.8,10.9-8.1c0.5-1.4,0.7-2.9,1-4.3
		c0.3-1.2,0.5-2.5,0.7-3.8c0.8-0.1,1.6-0.3,2.3-0.4c1.7-0.3,3.4-0.4,5-0.8c3.1-0.7,5.6-2.5,7.2-5.4c3.3-5.9,2.4-12.4-3.1-16.5
		c-0.8-0.6-1.6-1.3-2.5-2c5.4-4,13.5-3.3,17.9,0.8c2.7,2.5,6,8.3,6.7,12.3c0.6,0,1.2,0,1.8-0.1c3.8-0.7,7.7-0.4,11.4,0.6
		c5.3,1.4,9.4,6.5,10,12c0.6,5-0.7,9.3-4.5,12.7c-1.8,1.6-3.7,3.2-5.7,4.7c-0.6,0.5-1.5,0.8-2.3,0.9c-3.5,0.4-7,0.9-10.5,1.1
		c-14,1-28.1,1.2-42.1,0.7C333.7,215.3,331.1,213.9,328.6,211.1L328.6,211.1z"/>
	<path class="st0" d="M319.3,199.2c1.2,2.4,2.5,4.7,3.6,7.1c1.4,3,3.5,5.3,6.1,7.2c0.4,0.3,0.7,0.6,1.1,1c-0.4,0.2-0.5,0.4-0.7,0.4
		c-1.8,0-3.6,0-5.4-0.2c-7.1-0.8-14.2-1.4-21.2-2.4c-5.6-0.8-11.1-2-16.6-3c-3.4-0.7-6.4-2.4-9.1-4.5c-3.6-2.7-4.7-6.4-3.8-10.8
		c0.1-0.5,0.3-1,0.4-1.5c0.8-3.1,2.7-5.2,5.6-6.5c2.9-1.3,5.9-1.7,8.9-2.2c0.8-0.1,1.6-0.3,2.5-0.5c0.7-1.6,0.6-3.2,0.9-4.8
		c0.2-1.7,0.5-3.4,1-5c1.7-4.8,5.7-7.5,11.1-7.7c1.3,2.3,2.1,5,3.4,7.5c-0.4,0.6-0.8,1.2-1.3,1.7c-1.4,1.6-3,3-4.3,4.7
		c-2.8,3.3-3.2,7.1-1.8,11.1c0.1,0.4,0.3,0.8,0.5,1.2c2.4,5.4,5.9,7.8,12.4,7.5c1.9-0.1,3.8-0.3,5.7-0.5
		C318.5,199,318.7,199.1,319.3,199.2z"/>
	<path class="st0" d="M395.2,183c2.3-2.3,4.7-2.6,7.3-1.8c2.6,0.7,4.6,2.3,5.3,5c0.7,2.4,0.8,4.8-0.1,7.4c0.6,0.3,1.3,0.5,1.9,0.8
		c1.4,0.8,2.9,1.4,4.1,2.4c4.5,3.4,3.2,10.6-1.1,12.7c-0.9,0.5-1.9,0.9-3,1.1c-4.5,0.8-9,1.6-13.5,2.4c-0.5,0.1-1,0-2,0
		c0.6-0.6,0.9-0.9,1.3-1.3c1.1-1,2.2-2,3.3-3c4.8-4.7,5.7-10.3,3.7-16.4c-1-3.3-2.9-6.1-5.9-8.1C396.3,183.9,395.9,183.5,395.2,183z
		"/>
	<path class="st0" d="M328.7,211.1c-0.2,0-0.3-0.1-0.5-0.1c0.1-0.1,0.2-0.2,0.2-0.3C328.5,210.8,328.6,211,328.7,211.1
		C328.6,211.1,328.7,211.1,328.7,211.1z"/>
	<path class="st0" d="M440.2,81.5c0.8-1.3,1.4-2.1,1.9-3c5.1-8.1,16-13.1,26.8-10c8.5,2.5,14.2,10.1,14.3,18.7c0,1,0.1,2.1,0.1,3
		c2.3,0.7,4.6,1.1,6.5,2.2c1.8,1,3.2,2.7,5.1,4.3c0.3-0.1,0.9-0.1,1.4-0.3c3.6-1.3,6.9-1,9.8,1.7c0.2,0.1,0.3,0.3,0.5,0.4
		c0.1,0.1,0.2,0.1,0.5,0.1c0.5-0.3,1.1-0.7,1.6-1.2c7-5.9,17.9-3.6,22.8,2.2c3.4,4.2,5.7,8.8,5.4,14.3c-0.3,6.4-3,11.7-8,15.7
		c-3.2,2.5-6.9,4.1-10.7,5.5c-7.8,2.9-16,4.5-24.2,5.6c-9.5,1.3-19.1,1.9-28.7,1.7c-12.2-0.2-24.2-1-36.2-3.6
		c-6-1.3-12-2.9-17.8-5.1c-3.7-1.4-7.1-3.3-10.5-5.5c-4.8-3.1-8.1-7.5-10.2-12.8c-3.1-7.9-3.3-16.1-0.6-24.1
		c3.9-11.5,12-18.3,24-20.3c7-1.1,13.6,0.3,19.4,4.3c1.6,1.1,3,2.7,4.5,4C438.8,80,439.3,80.6,440.2,81.5z"/>
	<path class="st0" d="M150.7,576c4.7,0.5,8.7,2,11.1,6.3c2.2-0.6,4.3-1.4,6.6-1.2c2.4,0.2,4.1,1.5,6,3c0.7-0.5,1.3-0.9,1.9-1.3
		c7.1-5.4,17.3-4.3,23,2.6c2.8,3.4,4.7,7.1,5.1,11.5c0.1,1.3,0.2,2.6,0,3.8c-1,7-4.4,12.6-10.6,16.2c-4,2.3-8.3,3.9-12.6,5.2
		c-6.2,1.9-12.6,3.1-19,4c-12.4,1.7-24.8,2.2-37.3,1.6c-11.8-0.5-23.6-1.9-35-4.9c-6.6-1.8-13-4-19-7.4
		c-9.4-5.4-13.9-13.8-14.9-24.3c-0.5-5.4,0.1-10.7,2.1-15.7c4.2-10.5,12.1-16.8,23.2-18.8c6-1,11.9-0.1,17.4,2.7
		c2.7,1.4,4.9,3.4,6.9,5.6c0.6,0.6,1.1,1.2,1.7,1.8c1.2-0.4,1.4-1.4,1.9-2.2c2.6-4.2,6.2-7.3,10.7-9.3c6.7-2.9,13.5-3.1,20,0.3
		c7.2,3.7,10.6,9.9,10.8,17.9C150.7,574.2,150.7,575,150.7,576z"/>
	<path class="st0" d="M409.8,559.3c0.6-0.9,1.2-1.7,1.8-2.6c3.9-5.4,11-8.4,18.1-6.2c5.7,1.8,9.4,6.6,9.6,12.6
		c0,0.7,0.1,1.5,0.1,2.2c1.6,0.5,3.2,0.8,4.5,1.5c1.3,0.7,2.3,1.9,3.4,2.8c1.6-0.2,3.1-0.4,4.7-0.5c1.6-0.1,2.7,1.2,4,2
		c0.6-0.4,1.1-0.8,1.6-1.2c5.4-4.1,12.9-1.6,16.1,2.9c5.6,8,1.5,16.9-4.3,20.2c-2.5,1.5-5.1,2.6-7.9,3.4c-6.7,2.1-13.7,3.2-20.7,3.8
		c-8.3,0.7-16.6,0.7-24.9,0c-9.4-0.8-18.6-2.3-27.3-6.1c-2.4-1-4.5-2.3-6.6-3.8c-2.4-1.7-4.1-4-5.3-6.7c-3.4-7.7-3.1-15.4,1.4-22.6
		c6-9.4,19.3-12.3,28.2-5.2C407.4,556.8,408.5,558,409.8,559.3z"/>
	<path class="st0" d="M307.8,430.3c-6.8-0.2-14.1-5.4-13.9-14.5c0.2-8.6,7-13.9,14.2-13.9c7.6,0,14.1,6.1,14.1,14.2
		C322.2,423.9,315.4,430.4,307.8,430.3z M315.3,407.9c0-2.1-1.5-3.7-3.5-3.7c-2,0-3.6,1.6-3.6,3.6c0,2.1,1.5,3.6,3.6,3.6
		C313.8,411.5,315.3,410.1,315.3,407.9z"/>
	<path class="st0" d="M286.5,345.2c-0.6,0.5-0.9,0.8-1.2,1.1c-0.3-0.3-0.7-0.5-0.7-0.8c0-0.2,0.4-0.7,0.6-0.8
		C285.5,344.7,285.9,345,286.5,345.2z"/>
	<path class="st0" d="M433,372c0.1,7.9-6.4,13.1-12.3,13.7c-7.4,0.6-13.5-4.6-14.8-10.9c-0.5-2.6-0.3-5.1,0.6-7.5
		c0.7-2.1,1.8-3.7,3.9-4.7c2.1-1,4.1-2.1,6.4-2.8c3.6-1,7-0.2,10.3,1c1.7,0.6,2.8,2.2,3.8,3.8C432.4,366.9,433.1,369.4,433,372z
		 M426.7,372.2c0.2-4-3-7.6-7.4-7.5c-3.6,0-7.1,2.3-7.4,7.3c-0.2,4,3.1,7.4,7.1,7.5C423.4,379.5,426.6,376.4,426.7,372.2z"/>
	<path class="st0" d="M190.3,411.2c3.9-0.4,7,1.7,9.3,5.3c2.8,4.5,2.9,9.3,0.4,13.9c-2.6,4.6-6.7,7-12,7c-6.5,0-13.4-4.8-13.7-13.9
		c-0.1-1.9,0.5-3.8,1.3-5.5c0.5-1,0.9-1.8,2.1-2.2c0.7-0.2,1.2-0.8,1.8-1.3C182.6,412.3,185.8,411.2,190.3,411.2z M188,431.1
		c3.9,0.2,7.4-3,7.4-7.4c0-3.9-3.5-7.3-7.4-7.3c-4,0-7.3,3.3-7.4,7.2C180.4,427.8,183.7,431.1,188,431.1z"/>
	<path class="st0" d="M133.3,126.8c0.4-20.6,17.1-36.2,36.9-35.7c20.6,0.5,35.5,17.7,35.1,36.5c-0.3,19.5-16.3,36-36.9,35.4
		C148.1,162.4,133.4,146,133.3,126.8z M178.1,128.4c-0.2,3,1.8,5.6,5.4,5.7c3,0.1,5.5-2.3,5.6-5.3c0.1-3-2.4-5.7-5.5-5.8
		C180.6,123,178.2,125.3,178.1,128.4z M154,128.4c-0.1,3.2,2.3,5.8,5.4,5.8c3,0,5.5-2.3,5.6-5.3c0.1-3.1-2.4-5.8-5.4-5.8
		C156.6,123,154.1,125.4,154,128.4z M171.3,154.9c5.4-0.1,9.3-2.2,12.1-6.4c0.4-0.6,0.7-1.3,0.8-2c0.1-0.3-0.3-0.7-0.5-1
		c-0.1-0.1-0.7,0-0.8,0.2c-0.4,0.5-0.8,1-1.1,1.5c-4.5,7.1-14.8,7.9-20,0.1c-0.4-0.5-0.7-1.1-1.1-1.5c-0.2-0.2-0.9-0.4-1.1-0.2
		c-0.3,0.2-0.4,0.7-0.4,1.1c0.1,0.5,0.3,1,0.6,1.4C162.5,152.5,166.5,154.7,171.3,154.9z M160,113.6c-0.4,0-0.6,0-0.8,0
		c-4.2,0.6-7.5,2.8-9.8,6.3c-0.2,0.3-0.3,0.6-0.3,0.9c0,0.3,0.2,0.7,0.4,0.8c0.2,0.1,0.7,0.1,0.9,0c0.4-0.3,0.8-0.7,1.1-1.1
		c1.9-2.6,4.5-4.1,7.6-4.8c0.6-0.1,1.2-0.4,1.7-0.7c0.1-0.1,0.2-0.4,0.2-0.5c0-0.2-0.2-0.4-0.3-0.5
		C160.4,113.8,160.1,113.7,160,113.6z M183.8,113.6c-0.2,0-0.6,0-0.8,0.2c-0.2,0.1-0.5,0.4-0.5,0.7c0,0.2,0.2,0.6,0.5,0.7
		c0.4,0.2,0.8,0.3,1.2,0.4c0.9,0.3,1.8,0.5,2.7,0.8c2,0.8,3.7,2.1,4.9,3.8c0.4,0.5,0.8,1,1.3,1.4c0.2,0.1,0.7,0.1,0.9,0
		c0.2-0.1,0.4-0.5,0.4-0.8c-0.1-0.4-0.2-0.8-0.5-1.2C191.5,116.1,188.1,114.1,183.8,113.6z"/>
	<path class="st0" d="M311.7,405.4c1.5,0,2.7,1.2,2.7,2.6c0,1.2-1.3,2.4-2.5,2.4c-1.4,0-2.7-1.2-2.7-2.6
		C309.2,406.6,310.3,405.4,311.7,405.4z"/>
	<path class="st0" d="M423.5,368.2c-0.7,0.6-1,1.1-1.5,1.2c-0.5,0.2-1.2-0.4-1.2-1.1c0-0.7,0.5-1.3,1.1-1.2
		C422.3,367.2,422.8,367.7,423.5,368.2z"/>
	<path class="st0" d="M190.6,418.9c0.7,0,1.2,0.5,1.1,1.2c-0.1,0.7-0.7,1.2-1.2,1.1c-0.6-0.1-1.1-0.6-1.1-1.3
		C189.3,419.3,189.9,418.9,190.6,418.9z"/>
	<path class="st0" d="M186.6,126.7c-0.1,0.7-0.8,1-1.5,0.8c-0.7-0.2-1.1-0.8-0.9-1.5c0.2-0.6,0.9-1.1,1.5-0.9
		C186.4,125.4,186.8,126,186.6,126.7z"/>
	<path class="st0" d="M161.9,125.2c0.6,0,1.1,0.7,1,1.3c-0.1,0.6-0.6,1.2-1.2,1.2c-0.7,0-1.3-0.7-1.2-1.5
		C160.7,125.6,161.3,125.2,161.9,125.2z"/>
</g>
</svg>
