<?xml version="1.0" encoding="utf-8"?>
<!-- Generator: Adobe Illustrator 26.0.0, SVG Export Plug-In . SVG Version: 6.00 Build 0)  -->
<svg version="1.1" id="Capa_1" xmlns="http://www.w3.org/2000/svg" xmlns:xlink="http://www.w3.org/1999/xlink" x="0px" y="0px"
	 viewBox="0 0 595.3 1188.6" style="enable-background:new 0 0 595.3 1188.6;" xml:space="preserve">
<style type="text/css">
	.st0{fill:#FFFFFF;}
</style>
<g>
	<path d="M594.8,341.4C563,262.3,503.7,194.6,431.3,150c-13.4-8-27.4-15-41.1-22.7c-1.2-0.7-2.4-2.2-2.6-3.4
		C375.1,52.4,307.7-6.7,233.6,0.4c-6.6,1.7-21.4-1.4-21.7,7.9c0,3.5,1.4,5.5,4.9,6.5c21.7,6,42.5,21.2,49,43.5
		c-35-18.5-78.8-18.4-102.6,17.8c-4.5,8.9,5.6,12.2,11.8,7.1c17.1-10.8,43.5,0.3,42.3,22.1c-0.5,11.3-6.4,19.3-16.5,24.2
		c-16.7,8.2-32.8,17.5-48.3,27.8c-40.5,27-76.2,61.1-105,100.3c-7.9,11.5-59.6,85.3-43,92c15.8,7.4,24.9,23.6,30.1,39.6
		c7.7,23.3,9.3,47.9,13.2,72c5.9,34.1,17,67.7,36.5,96.5c14.6,22.2,34,38.2,58,49.6c29.9,33.5,70.1,57,114.2,65.9
		c-18.4,24.8-30.5,55.3-27,86.7c0.4,6.2-5,10.8-7.5,16c-1.8,4.4-1,9.3-6,12.1c-13.5,8.6-22.4,22.5-29,36.8
		c-3.5,2.8-9.4,1.7-13.8,2.7c-15,1-31.7,12.6-29.1,29.2c3.6,23.4,34.2,40.6,54.8,47.6c0.7,28.6,26.2,9.1,42.4,12.5
		c6.7,2.6,13.2,5.7,19.9,8.3c2,0.8,2.2,1.7,1.9,3.6c-2.1,14.6-3.6,29.2-3.5,43.9c-3.1,5.2-14.7,7.6-19.9,11.8
		c-95.9,60.3-48.1,210.4,65.1,204.1c113.7-7.1,143.7-159.6,42.1-210.4c15.6-3,30.7-6,46.2-9c10.9-3.1,10-19.8,0.7-25.2
		c7.5-5.9,9.4-13.8,7.4-22.5c-5.5-23.3-13.1-45.5-20.9-68.1c14.9,1.1,27.9,3.3,42.1,6.7c4.2,2.7,2.5,19.9,3.6,25.5
		c4.6,18.5,28.1-6.4,34.3-13c23.4-24.1,30.8-61.6,0.8-83.8c-28.1-25.1-61.9-42.5-91.7-65.2c28.5,7.9,54.4,23.1,78.1,40.5
		c4.6,7.7,15,12.1,22.3,4.9c26.9-8.1,41.4-34.6,25.8-58.8c-13.7-18.4-37.7-22.7-57.9-30.7c-22.2-7.8-45.6-11.2-68.8-13.9
		c28.2-12.2,55.8-27.5,77-50.3c5.2-5.4,10.5-10,17.5-13.3c61.8-32.8,81.6-108.5,89.1-173.2c3.3-24.3,8.1-50.5,25.1-69.2
		C581.4,352.8,598.5,349.3,594.8,341.4z M263.3,885.1c-12.1,2.1-23.8,5.3-36,6.9c3.3-4.4,4.2-11,9.2-13c17.3,0.4,33.7-4.3,50.9-5.8
		c-1.3,21.2,5.8,18.4-12.5,28.1C274.5,894.2,273.5,882.6,263.3,885.1z M287.3,966.7c-2.4,3-12.6,2.4-16.7,3.8c0-7.8,0-15.5,0-23.2
		c0.2,0,0.5-0.1,0.7-0.1C278.2,959.7,289.4,956.8,287.3,966.7z M311,874.5c2.3,7.9,4.7,15.9,7.1,24.3c-3-2.1-6.9-2.2-7.7-5.5
		C310.4,887.1,310.4,880.9,311,874.5z M317.8,968.9c-2.4-0.4-4.8-0.8-7.3-1.2c-1.5-12.1,4.8-10.6,12.9-5.5c2.7,1.7,1.3,5.3,2,8.3
		C322.7,969.9,320.3,969.4,317.8,968.9z"/>
	<path class="st0" d="M308.7,338.8c61.1,21.5,70.8-65.8,9.1-69.9c-60.5-6.2-123.5,15.4-166.3,58.8c-37.8,37.5-59.3,90.7-58,143.9
		c0,0.9-0.4,2.1-1.1,2.5c-8.4,5-12.2,12.8-13.3,22.1c-2.3,20.4,6.1,48.1,28.7,52.5c0.8,0.1,2,0.9,2.3,1.6
		c6.9,17.8,18,33.1,28.7,48.5c-53.4-27.1-77-88.1-86-144.1c-4.3-27.5-5.8-56.2-18.3-81.5c-6-12.2-14.2-22.6-26.8-28.7
		c-1.5-0.7-1.6-1.7-1-3c25.4-58.7,64-111.6,113.3-152.4c16.7-14,34.2-26.9,53.1-37.6c27.9-16.7,60.5-26.7,83.6-50.5
		c36.8-36.1,2.7-80.9-38.2-92.4c66.8-14.2,135.9,29.7,156.6,93.7c3.8,7.8,4.2,24.5,9.9,29.5c91.2,42.2,165.6,118.4,204.1,211.3
		c-40.1,21.4-40.4,72.2-46.9,111.7c-9.1,55.6-32.4,116.2-85.1,143.5c-0.2-0.2-0.4-0.5-0.6-0.7c11.9-14.6,21.2-30.9,28.6-48.1
		c0.3-0.6,1.1-1.1,1.8-1.2c10.3-1.3,16.7-7.9,21.5-16.2c9.5-16.7,13.2-43.4-3.6-56.7c-3.2-1-3.3-3.3-3.2-6.1
		c0.2-19.9-2.7-39.3-8.4-58.4c-10.6-35.5-31-67.6-59.1-91.8c-4.6-2.5-14.4-16.6-17.7-7.4c-14,46.3-74.1,61.2-108.9,28.2
		C308.2,339.6,308.4,339.2,308.7,338.8z"/>
	<path class="st0" d="M465.5,579.7c20.4-79.8-105.6-89.7-94.8-4.9c-7.3-5.1-15.1-6.9-24-5.4c4.4-73.4-103.3-71.2-98,0
		c-8.6-1.6-16.5,0.4-24.1,5.4c12.5-81-114.1-78.6-94.9,5.2c-7.7-10.6-12-24.6-19.4-34.8c-5.6,1.1-9.7-1.8-13.5-5
		c-15.8-13.3-24.3-55.2-0.1-63.5c-4.9-117.8,95-211.7,211.6-205.2c78.5-0.6,51.6,103.3-13.8,54.9c25.6,51,108.6,45.4,125.9-15.1
		c49.6,38.5,80.6,98.9,78.3,162.1c0.2,6.2,10.8,3.6,13.3,18.6c4.3,19.5-2.4,47-23.6,53.1c-4-0.8-5,1.8-6.5,4.8
		C476.5,559.8,471.6,570.2,465.5,579.7z M223.8,523.1c33.2,1.2,35-51.6,0.2-51.9C189.5,470.9,189.7,523.9,223.8,523.1z M397.2,497.5
		c1.3-33.7-52.4-35.1-51.8,0.2C346.3,532.4,397.9,530.1,397.2,497.5z M380.9,386.8c-3.6-0.1-6,1.7-6.4,4.3
		c-0.3,8.3,15.1,6.6,20.7,9.8c15.2,5.1,26.6,15.1,35.4,28.3c2.7,3.9,4.9,11.7,11,9c4.5-2.5,1.4-8.7-0.8-12.1
		C428.3,404.6,405.4,389.6,380.9,386.8z M150.6,433.7c1.6,7.8,10.1,5.8,11.9-0.8c10.7-19.9,31.2-33.1,53.4-36.2
		c3.4-0.6,5.1-2.8,4.6-5.6c-2.6-8.8-14.6-1.9-20.7-1.1C177.7,397,160.3,412.6,150.6,433.7z"/>
	<path class="st0" d="M245.1,790.1c37.8,22.1,69-31.7,56.2-64.7c-6.9-27.9-40.4-34.4-59-13.2c4.6-12.8,11.1-24.6,19.7-35.6
		c-0.2,24.4,26.3,17.5,36,3.4c4.9-6,24.3-2.8,32.8-5.8c48.7-7.3,97.7,7.6,142.1,26.3c1.8,0.8,3.1,1.6,2.3,4
		c-5.3,19-13.2,36.9-23.3,53.8c-33.4-25.2-70.7-41.7-111.2-51c-1.3,2.4-2.3,4.3-3.4,6.3c3.9,1.7,2.8,5.5,3.3,8.4
		c3.8,26.3,26.3,45.3,30.2,71.1c1.2,9.2,1,19.4-5.6,26.8c-1.3,1.6-1.7,2.7-1,4.8c4.5,13.6,8,26.9,12.7,40.5
		c-17.4,8.4-37,11-56.1,12.2c-3.7,1.3-10.1-28.3-12.5-32.9c-0.7-2.3-2.4-4-4.7-3.8c-5.4,0.4-10.1-1.7-14.6-3.7
		C268.3,828.9,254.3,809.5,245.1,790.1z"/>
	<path class="st0" d="M259.6,977.5c-0.9,7,2.2,22.7-2,27.1c-46.3,24.3-57.4,91.5-21.4,129.3c43.5,50.4,130.7,27.6,143.9-37.8
		c8.6-35.9-9.3-74.2-41.5-91.9c-3.7-4.1-0.9-17.1-1.7-23.1c0.8-2.7,4.6-1.5,6.4-0.9c67.5,29.4,84,124.2,30,174.4
		c-48.4,50-139,35.7-170-26.5C172.7,1073.6,201,999,259.6,977.5z"/>
	<path class="st0" d="M346,716c5.2,0.9,8.8,2.5,11.9,5.6c27.9,26.9,64.9,41.8,93.8,67.5c15,10.9,27.7,28.6,21.3,47.8
		c-6.1,21.1-20.4,39.3-40.3,48.6c-0.9-49.5-17.1-74.6-55.4-104.1C363.9,761.3,350.7,740.1,346,716z"/>
	<path class="st0" d="M297.7,657c-32.2,0.1-63.3-17.6-79-45.8c-10.9-18.7,7.8-43.7,29-38.6c0.7,0.2,1.7,1.1,1.8,1.9
		c4.1,16.9,14.1,28.7,30.1,35.2c26,11.2,57.7-4.5,65.2-31.7c1.8-5.7,0.3-5.9,8-6c13.3-0.2,25.3,10.8,26.6,24
		c0.8,8.4-2.4,15.3-7.1,21.9C355.6,642.4,327.1,656.5,297.7,657z M298.9,635.2c14.3-1,31.5-5.8,42.9-16.1
		c5.3-5.3,18.3-15.3,14.6-23.4c-1-1.9-3.4-2.6-5.5-1.7c-24.9,38-78.8,42.5-104,2.3c-1.8-2.8-5-3.3-7.2-1.8c-2.5,1.8-2.9,4.7-1.1,7.6
		C252.2,623.4,272,633.8,298.9,635.2z"/>
	<path class="st0" d="M372.6,564.4c5.4-78.2,119.9-48,86,22.6C434.5,627.8,374.4,610.2,372.6,564.4z"/>
	<path class="st0" d="M130.7,564.2c2.5-69.8,106.7-54.9,90.2,12.2c-1.1,3.5-4,6.5-5.6,9.8c-2.5,9.4-9.7,14.5-17.7,18.6
		C168.6,621.5,129.3,597.1,130.7,564.2z"/>
	<path class="st0" d="M343.8,564.2c-1.3,61.1-92.2,59.7-92.6-0.4C251.8,502.8,344.3,503.7,343.8,564.2z M315.6,552.2
		c15.6-0.2,14.7-23.1,0.1-23.6C300.1,529,299.7,552.3,315.6,552.2z"/>
	<path class="st0" d="M383.4,598.5c18.3,17.5,42.2,18.4,61.3,7.3c-60.2,79.2-222.5,88.4-294.5,0.2c22.5,11.7,43.2,9.2,62.2-8
		c4.1,33.1,41.2,57,72.3,60.9C325.2,664.7,374.5,640.7,383.4,598.5z"/>
	<path class="st0" d="M168,78.9c21.6-31,67.6-34.8,96.8-12.5c6.5,22.2-28.7,45.3-45.7,54.5c17.4-33.1-21.2-61.2-50.4-41.2
		C168.5,79.3,168.2,79.1,168,78.9z"/>
	<path class="st0" d="M232.4,1055.9c10.8,4.2,21,8.1,31.1,12.2c1.2,0.5,2.3,2.1,2.7,3.4c2.8,9.8,7.8,18.6,15.9,24.9
		c0.5,0.5,1,1.7,0.8,2.2c-5.8,12.3-11.7,24.4-17.5,36.7c-1.1,2.4-2,2.4-4.2,1.1C234.4,1119.8,222.8,1085.3,232.4,1055.9z"/>
	<path class="st0" d="M367.1,1086.7c-2.9,28.8-26,53.3-54.1,58.9c-1.5,0.3-2-0.1-2.2-1.6c-2-13.9-4.1-27.8-6.2-41.6
		c-0.1-0.7,0.5-2,1.1-2.1c8.5-2.2,14.1-7.9,18.4-15c1-1.7,1.8-2.3,4-2C341.3,1084.6,353.9,1085.5,367.1,1086.7z"/>
	<path class="st0" d="M238.5,767.2c5,3.9,8.1,9.6,13.6,11.2c8.7-1.4,17.1-3.7,24.4-8.9c20.3-12.8,14-58.5-14.5-44.8
		c-5.5,2.9-7-10.3-21.6-0.9c-0.2-0.1-0.4-0.3-0.6-0.4c15.8-34.9,58.5-23.6,61,13.3c2.4,23.5-10.7,52-36.3,55.6
		C245.3,793.8,242.9,782.9,238.5,767.2z"/>
	<path class="st0" d="M259.2,732.3c21.7-26.6,42.8,25.2,7.8,39c-17.6,5.9-14.7,5.4-26.8-7.7c-6.2-8.5-2.5-19.9-2.2-29.6
		C239.6,722.2,256.7,719,259.2,732.3z"/>
	<path class="st0" d="M422.4,853.1c-14.5-3.2-28.5-4.9-43.1-6.6c-4.1-2.9-5.2-14.6-7.5-19.7c-0.3-1-0.1-2.3,0.3-3.2
		c6-13.4,6.7-18.5,4.8-34C398.6,806,416.8,825.8,422.4,853.1z"/>
	<path class="st0" d="M290.6,962c5.7,0,11.2,0,16.9,0c0,30.1,0,60.7,0,90.9c-5.6,0-11.2,0-16.9,0
		C290.6,1022.5,290.6,992.2,290.6,962z"/>
	<path class="st0" d="M329.6,977.7c4.6,2.1,4.5,2.1,4.5,6.6c-0.1,9.7,0.2,19.4-0.1,29.1c-1.7,26.5,0.3,58.9-19.8,79.2
		c-13.9,11.9-35.2,3.8-41.5-12.4c-14.5-32.4-12.2-115-6.8-151.5c2.8-14.9,11.4-31.1,28.2-32.6c10.2-1.4,20.8,1.9,26.9,10.5
		c-0.2,0.3-0.4,0.6-0.6,1c-17-12.8-42-9.5-50.7,11.1c-2.3,5.6-3.3,11.5-2,17.5c1.6,13.2-1.1,26.4-0.6,39.6
		c1.4,26.1-6.4,120.2,29.8,121.2c9.3,0.7,16.7-3.3,21.2-11.7C330.7,1050.9,329.5,1013.8,329.6,977.7z"/>
	<path class="st0" d="M224.4,855.3c12.2-12.2,27.5-15.5,43.1-20.2c1.5-0.4,3.7,0,5,0.9c8.8,5.6,18.4,9.1,28.5,11.2
		c3.7,0.6,2.7,5.7,4.5,8.5c-20.5,2.7-40.8,6.2-61.4,7.9C236.4,864.7,229.6,861.3,224.4,855.3z"/>
	<path class="st0" d="M301.6,1101.7c2,13.4,4.1,27.8,6.1,41.3c0.5,3.6,0.3,3.7-3.3,4c-12.6,1.1-25.1-1.3-36.4-7
		c-0.4-0.2-0.6-1.8-0.3-2.5c5.6-12.1,11.6-24,17.3-36.1C286.6,1097,297.1,1102.1,301.6,1101.7z"/>
	<path class="st0" d="M479,702.9c25.9,12,20.5,53.8-7.9,58.1c-5.9,0.7-8.5,11.8-17.1,2.1c-0.3-0.5-0.3-1.7,0.1-2.3
		c6.7-9.7,12.1-20,16.4-30.9C474,721.2,476.2,712,479,702.9z"/>
	<path class="st0" d="M201.9,905c14.8,1.1,14.7-2.3,25.2-9.4c12.3-2.5,24.6-4.9,36.9-7.3c6-1.8,7.4,5.5,7.6,10
		c-0.4,5.9-2.3,7.9-8.8,9.2c-15,2.9-30.1,5.7-45.1,8.5C207.7,919.5,202.6,915.3,201.9,905z"/>
	<path class="st0" d="M327.6,1080c5.8-27.5,7.7-19.6,29.6-33.4c5.7-4.4,9.9,19.7,10.3,23.5c0.4,4.3,0.1,8.6,0.1,13.5
		C354,1082.4,340.6,1081.2,327.6,1080z"/>
	<path class="st0" d="M327.6,964.4c21,0.3,42-5.2,60.2-15.7c10.5-7.2,13.6,16.7,3.4,17.6c-17.3,3.7-34.7,6.7-52,9.9
		C331.1,978.5,328.9,970.5,327.6,964.4z"/>
	<path class="st0" d="M267.1,832c-3.6,1.2-6.9,4.1-10.3,2.1c-14.5-12-28.4-24.5-43.1-36.3c4.8-4.9,16.8-12.2,21.7-13.3
		C242.7,802.5,253.2,818.4,267.1,832z"/>
	<path class="st0" d="M319.3,1064.4c-3-3.7-7.4-6.2-8.9-10.5c0.3-14.9-0.7-29.9,0.4-44.7c3.7,2,15.3,2.9,15.4,7.2
		C325.6,1025.4,325.5,1059.6,319.3,1064.4z"/>
	<path class="st0" d="M264.4,1064.8c-9.9-3.5-18.9-7.1-28.5-10.9c-1.3-0.5-2.4-0.8-1.5-2.7c5.7-12.9,14.1-22.6,25.5-31.2
		C260.2,1035.3,261.2,1049.9,264.4,1064.8z"/>
	<path class="st0" d="M311.4,921.1c-16.4-14.6-35.8,1.2-27.7,18.4c4.4,9,16,11,24.3,6.3c0.6,3.7,3.4,6-1.8,7.1
		c-13.4,4.6-27.7-3.1-30.5-17.5c-4.8-20.8,22.3-36.2,38-21.8C316.7,915.8,312.3,918.5,311.4,921.1z"/>
	<path class="st0" d="M287.1,1009c0,13.6,0,26.7,0,40.4c-5.8-10.1-16.9-18.4-17-30.4c0.3-5.7-0.5-4.3,4.3-6.2
		C278.4,1011.3,282.6,1010.4,287.1,1009z"/>
	<path class="st0" d="M358.2,1042.7c-8.1,4.5-16,8.9-24.2,13.4c1.1-12.2,2.1-24,3.2-35.9C345.7,1026.1,352.6,1033.4,358.2,1042.7z"
		/>
	<path class="st0" d="M269.8,998.6c1.6-27-7.4-23.5,17.4-27.9C285.6,997.8,295.1,992.9,269.8,998.6z"/>
	<path class="st0" d="M310.6,970.8c21.5,4.6,15.8-0.9,15.8,27.8c-5.2-1.3-10.4-2.5-15.8-3.8C310.6,987,310.6,979.3,310.6,970.8z"/>
	<path class="st0" d="M307.6,893c-5.8,0-11.3,0-17.1,0c1.5-20.9-6.8-20.6,15.1-21.9C309.7,869.4,306.8,890,307.6,893z"/>
	<path class="st0" d="M302.7,940.6c-2.7-1.7-5.9-0.4-9.2,0.2c-2.5,0.4-5-0.3-6.5-2.9c-5-7.7,3.3-15.8,10.6-17
		c2.3-0.5,5.3,1.5,7.7,2.9c3.8,2.2,3.8,2.9,2.7,7.2C306.2,935,309.5,941.4,302.7,940.6z"/>
	<path class="st0" d="M314.8,1074.2c0.6,21.7-32.2,22.5-33,1.4C280.2,1053.8,314.7,1052.1,314.8,1074.2z M298.4,1087.5
		c17.2,0.4,17.1-27-1.2-26C281,1062.3,282.1,1088.1,298.4,1087.5z"/>
	<path class="st0" d="M276.2,1068.1c-3.4-11.8-4.7-23.6-4.6-35.7C291.6,1064.1,289,1045.6,276.2,1068.1z"/>
	<path class="st0" d="M268.8,675.3c7.8,0.7,15.3,1.3,23.1,2C285.4,686.4,265.9,692.8,268.8,675.3z"/>
	<path class="st0" d="M263.9,922.8c-6.3-2.7-12.3-5.3-18.6-8c3.1-1.5,19.8-5.4,22.1-3.2C267.9,915,265,919.2,263.9,922.8z"/>
	<path class="st0" d="M231.6,772.9c3.9,6.9,0.2,6.4-5.6,8.8C228,778.6,229.7,775.9,231.6,772.9z"/>
	<path d="M223.8,523.1c-34.2,0.7-34.3-52.2,0.2-51.9C258.8,471.5,257,524.4,223.8,523.1z M226.4,486c-0.4,9.3,14.7,9,14.2-0.2
		C241,476.4,225.9,476.8,226.4,486z"/>
	<path d="M397.2,497.5c0.7,32.6-50.9,34.9-51.8,0.2C344.8,462.4,398.5,463.8,397.2,497.5z M381.1,478.9c-9.8-0.5-9.4,14.6,0.1,14
		C390.9,493,389.9,478,381.1,478.9z"/>
	<path d="M380.9,386.8c24.5,2.8,47.4,17.8,59.8,39.3c2.2,3.4,5.4,9.6,0.8,12.1c-6.1,2.6-8.4-5.1-11-9c-8.8-13.2-20.2-23.2-35.4-28.3
		c-5.6-3.3-21-1.5-20.7-9.8C374.9,388.4,377.3,386.7,380.9,386.8z"/>
	<path d="M150.6,433.7c9.6-21.1,27.1-36.7,49.2-43.7c6.1-0.8,18.1-7.6,20.7,1.1c0.5,2.9-1.3,5-4.6,5.6
		c-22.2,3.1-42.7,16.3-53.4,36.2C160.8,439.5,152.2,441.5,150.6,433.7z"/>
	<path d="M298.9,635.2c-26.9-1.4-46.7-11.8-60.3-33.1c-1.8-2.8-1.3-5.8,1.1-7.6c2.2-1.6,5.4-1,7.2,1.8c25.3,40.2,79.2,35.7,104-2.3
		c2.1-1,4.5-0.2,5.5,1.7c3.7,8-9.4,18.1-14.6,23.4C330.5,629.4,313.2,634.2,298.9,635.2z"/>
	<path d="M315.6,552.2c-15.9,0.1-15.5-23.2,0.1-23.6C330.3,529.1,331.2,552,315.6,552.2z M315.5,549.3c11.5-0.1,11.5-17,0-17.5
		C304.5,531.7,303.5,549.1,315.5,549.3z"/>
	<path d="M298.4,1087.5c-16.3,0.5-17.4-25.2-1.2-26C315.5,1060.5,315.7,1087.9,298.4,1087.5z"/>
	<path class="st0" d="M226.4,486c-0.6-9.2,14.5-9.6,14.2-0.2C241.2,495.1,226,495.4,226.4,486z"/>
	<path class="st0" d="M381.1,478.9c8.8-0.9,9.8,14.1,0.1,14C371.6,493.5,371.3,478.4,381.1,478.9z"/>
	<path class="st0" d="M315.5,549.3c-11.9-0.2-11-17.5,0-17.5C327,532.3,326.9,549.1,315.5,549.3z"/>
</g>
</svg>
