<?xml version="1.0" encoding="utf-8"?>
<!-- Generator: Adobe Illustrator 26.0.0, SVG Export Plug-In . SVG Version: 6.00 Build 0)  -->
<svg version="1.1" id="Capa_1" xmlns="http://www.w3.org/2000/svg" xmlns:xlink="http://www.w3.org/1999/xlink" x="0px" y="0px"
	 viewBox="0 0 595.3 969.7" style="enable-background:new 0 0 595.3 969.7;" xml:space="preserve">
<style type="text/css">
	.st0{fill:#FFFFFF;}
</style>
<g>
	<path d="M357.3,668.6c9.4,3.2,18.9,6.3,28.3,9.7c9.6,3.5,18.1,9,25.9,15.6c0.4,0.4,0.6,1.9,0.3,2.2c-1.4,1.2-0.7,2,0.3,3
		c6.2,6.3,12,13,16.4,20.7c5.6,9.9,9.7,20.4,11.6,31.8c2.6,15.1,1.9,30-0.6,45c-0.5,3-0.3,6-0.3,9.1c-0.1,14.9-6.8,26-19.1,33.9
		c-9.4,6-19.7,6.4-30.3,4.7c-0.6-0.1-1.2-0.2-2.1-0.3c1.3,4.3,2.4,8.5,3.9,12.4c2,5.1-1.1,9.9-6.8,9.9c-0.9,0-1.7,0.1-2.8,0.1
		c0.2,1.6,0.3,3,0.6,4.4c0.8,4.9,1.7,9.7,2.6,14.6c0.1,0.6,0.4,1.1,0.7,1.6c0.8,2,2.3,4,2.2,6c-0.2,7.6,4,13.4,7.1,19.7
		c3.6,7.2,7.7,14.2,10.9,21.5c3.9,8.8,2.2,18.9-4.4,24.1c-4.1,3.3-9.2,5.5-14.1,7.4c-9.6,3.7-19.7,4.8-30,3.2
		c-14.4-2.2-26.5-8.6-36-19.9c-3.6-4.3-6.3-8.9-7.5-14.3c-0.5-2.3-0.9-4.6-0.9-6.9c-0.1-8.3,0-16.6-0.1-25c0-2.4-0.7-4.8-0.6-7.2
		c0-2.1,0-4.5,1-6.2c1.8-3.1,2-6.2,1.8-9.5c-0.2-4.4-0.5-8.8-0.8-13.2c-1.7-0.7-3.6-1.1-5.1-2.1c-3.5-2.2-3-5.7-2.4-9.1
		c0.5-3.2,0.9-6.3,1.3-9.8c-3.9,0-7.7,0-11.8,0c0.4,2.9,0.8,6,1.2,9c0,0.1,0,0.2,0,0.3c1.2,8,0.2,9.6-7.6,11.6
		c-0.3,3.7-0.8,7.5-0.9,11.2c-0.4,11-0.6,22-1.2,33c-0.2,4.5-0.8,9-2.1,13.3c-2.2,7.3-7.9,11.4-14.9,13.7
		c-14.6,4.7-29.5,4.9-44.5,2.3c-8.9-1.6-17.7-3.7-25.5-8.3c-3.5-2.1-6.9-4.8-9.5-7.8c-5.2-6.1-4.9-13-2-20.2
		c2.9-7.2,8-12.7,13.1-18.2c2.1-2.3,4.7-4.3,6.3-6.9c1.6-2.7,2.4-5.9,3.1-8.9c0.7-2.8,0.8-5.7-0.2-8.7c-0.6-1.7,0.1-4.1,0.7-6
		c2.6-8.1,5.4-16.1,8.2-24.1c2.3-6.7,4.6-13.4,7-20.1c0.5-1.5-0.1-2.3-1.3-2.9c-8.1-3.9-15.3-9.2-21.8-15.4
		c-6.5-6.3-12.2-13.3-16-21.6c-2.7-6-5.2-12.2-7.5-18.4c-0.8-2-0.9-4.2-1.3-6.3c-0.2-1.4-0.9-1.7-2.3-1.9
		c-12.5-1.2-24.5-4.6-35.7-10.2c-8.5-4.2-16.9-8.7-25.2-13.5c-9.3-5.4-15.5-13.3-18.4-23.8c-3.5-12.5-1.4-24.1,5.9-34.6
		c5.7-8.2,13.9-13.4,23.8-15.6c5.4-1.2,10.8-1.7,16.2-0.2c0.9,0.2,2.1-0.2,2.9-0.6c9.8-5.5,21.7,1.3,21.8,13.5
		c0,1.3,0.7,2.6,1.2,3.8c1.2,2.4,2.7,4.7,3.8,7.1c3.3,7.4,9.1,12.5,15.7,17.3c6.7-11.2,15.2-20.6,26-28.3c-3.8-1.8-7.2-3.4-10.5-5.1
		c-15.9-8.1-30.6-18-43.8-30c-5.6-5.1-10.8-10.5-16.2-15.8c-0.6-0.6-1.3-1.1-2.1-1.4c-18.1-7.1-32.7-18.9-45.5-33.4
		c-8.6-9.8-15.7-20.7-22-32.1c-10.7-19.7-18.2-40.5-23.1-62.2c-3.6-16.2-6-32.7-8.7-49.2c-2.3-14.1-5-28-10-41.4
		c-3.9-10.5-9-20.4-17.6-27.9c-3.3-2.9-7-5.3-10.9-7.5c-5.6-3.1-6.5-5.3-4.2-11.3c6-15.4,13.3-30.1,21.3-44.6
		c8.4-15.1,17.9-29.5,28.2-43.3c10.3-13.7,21-27,33.2-39c11.3-11,22.4-22.2,34.5-32.4c11.2-9.4,23.3-17.7,35.2-26.3
		c12.6-9.1,26.1-16.7,39.9-23.9c5.1-2.6,10.3-5,14.1-9.6c6.5-7.8,9.1-16.5,5.4-26.1c-3.5-9.1-10.2-15.1-20-16.7
		c-8.3-1.4-16,0.7-23.1,5.1c-0.7,0.4-1.5,0.8-2.3,1.1c-2.9,0.9-5.7,0.2-7.1-1.7c-1.8-2.4-1.9-5.6-0.1-8.3
		c11.2-16.3,26.6-26,46.1-29.2c14.7-2.4,28.9-0.3,42.6,5.1c4.4,1.7,8.5,4.2,13.3,6.7c-0.8-2.6-1.4-5-2.4-7.2
		c-4.8-11-13.1-19.1-22.8-25.8c-7.3-5-15.3-8.4-23.8-10.7c-5.2-1.4-7.3-6.4-4.1-10.3c1-1.2,2.8-2.3,4.3-2.5
		c13.5-2.3,27.1-2.9,40.7-1.8c17.1,1.4,33.4,5.9,48.9,13.4c22.9,11.1,41.2,27.4,55.8,48c9.9,13.9,17.3,29.2,22.3,45.6
		c1.6,5,2.6,10.2,4,15.3c0.3,1,1,2.1,1.8,2.6c8.6,4.4,17.5,8.3,26,13c20.6,11.1,40.3,23.9,58.5,38.6c10.2,8.2,20,16.9,29.7,25.7
		c20.7,19,38.7,40.5,54.8,63.5c9.6,13.6,18.3,27.8,25.8,42.7c4.1,8.1,8,16.4,11.9,24.6c0.7,1.5,1.2,3.3,1.5,4.9
		c0.5,2.8-0.7,4.8-3,6.3c-3.4,2.1-6.9,4.1-10,6.5c-7.4,5.7-12.1,13.5-15.9,21.8c-6.1,13.3-9.3,27.4-11.3,41.8
		c-2.2,15.7-3.8,31.5-6.5,47.1c-2.6,14.9-6.4,29.6-11.3,44c-4.4,12.8-9.7,25.3-16.3,37.1c-8.3,14.7-18.1,28.4-31,39.5
		c-6.4,5.5-13.5,10.2-20.4,15.1c-2.4,1.7-5.3,2.6-7.8,4.1c-2.3,1.4-4.8,2.9-6.6,4.8c-17.4,19.3-37.6,35.1-60.8,47
		c-10.9,5.6-22.2,10.2-33.9,13.7C359.2,667.8,358.1,668.3,357.3,668.6z"/>
	<path class="st0" d="M141.3,599.6c-6.7-2.9-12.6-6.6-18.3-10.8c-18.7-13.8-32.1-31.8-42.9-52.1c-8.9-16.8-15.3-34.5-20.2-52.8
		c-4.7-17.4-7.4-35.1-9.8-52.9c-2.3-16.7-5.7-33.2-12.3-48.8c-4.5-10.7-10.4-20.4-19.5-27.9c-3.2-2.6-6.8-4.7-10.4-6.8
		c-1.6-0.9-1.9-1.7-1.2-3.3c5.3-11.5,10.4-23.1,16.1-34.4c7.6-15.2,16.5-29.7,26.5-43.5c8.3-11.4,17-22.4,26.1-33.1
		c7.5-8.8,15.5-17.1,23.7-25.2c14.2-13.8,29.3-26.5,45.3-38.2c15.2-11.1,31.1-20.9,47.5-29.8c8.5-4.6,17.4-8.5,26-13.1
		c16.4-8.8,31.7-19.1,42.6-34.6c6.8-9.6,9.8-20.4,8.2-32c-1.3-9.9-6.2-18.3-12.6-25.8c-7.3-8.5-16.2-14.8-26.1-19.8
		c-4-2-8.4-3.2-12.6-4.8c-0.8-0.3-1.7-0.7-2.5-1c0-0.2,0-0.4,0.1-0.7c1.9-0.3,3.8-0.7,5.6-0.9c13.3-1.4,26.7-1.8,40,0
		c21.2,2.9,40.5,10.5,58,22.7c23.8,16.5,40.4,38.7,51.7,65.1c4.4,10.2,7.5,20.9,9.7,31.8c0.2,1.1,1.3,2.3,2.3,2.8
		c12.5,6.5,25.4,12.4,37.6,19.4c17.9,10.2,34.8,21.9,50.8,34.8c17.9,14.4,34.5,30,49.9,47.1c16.3,18.1,30.7,37.7,43.4,58.4
		c9.1,14.9,17.1,30.3,24,46.4c0.4,0.9,1,1.8,1.7,2.9c-0.9,0.6-1.7,1.4-2.6,1.9c-9.9,5.1-17,13-22.5,22.5
		c-8.2,14-12.2,29.4-14.8,45.2c-2,12.1-3.1,24.4-4.8,36.6c-3.8,27.2-10.2,53.7-21.4,78.8c-7.4,16.7-16.8,32.1-29.1,45.7
		c-9.2,10.1-19.6,18.6-31.6,25.1c-0.7,0.4-1.5,0.6-2.7,1.1c3.3-4.8,6.4-9.2,9.4-13.7c7.2-11,13.5-22.4,18.5-34.6
		c0.3-0.9,1.4-1.9,2.3-2c6.4-0.6,11.2-4,15.4-8.4c6.3-6.7,9.6-15,11.6-23.8c1.9-8.1,2-16.3,0.1-24.5c-1.4-6.2-4.2-11.5-9.2-15.6
		c-0.3-0.3-0.7-0.7-1-0.8c-3.6-0.7-3.4-3.3-3.5-6.1c-0.2-13.6-1.6-27-4.5-40.3c-2.7-12.6-6.4-24.9-11.5-36.7
		c-7.3-17-16.7-32.7-28.5-47c-10.6-12.9-22.6-24.5-36-34.5c-3.6-2.6-5.6-2-7,2.4c-3.7,11.6-9.9,21.6-19.1,29.6
		c-17.4,15.1-37.4,20.2-59.8,15c-10.2-2.4-24-10.4-30-17.2c2,0.6,3.4,1,4.8,1.5c10,3.4,20,3.6,29.6-1.2c6.8-3.4,11.6-8.9,14.7-15.9
		c8-17.5,0.8-37.3-16.4-47c-10.5-5.9-21.7-7.3-33.3-7.6c-16.1-0.4-32.1,0.6-47.9,3.7c-12.7,2.4-25.1,6.1-37.1,10.9
		c-11.8,4.7-23.1,10.3-33.8,17.2c-20.5,13.2-38.3,29.4-53.1,49c-15.8,21-27,44.1-33.6,69.5c-4,15.1-6.1,30.4-6.2,46
		c0,3.5,0.1,7.1-0.1,10.6c0,0.9-0.7,2.2-1.4,2.6c-6.1,2.8-9.2,8-10.9,13.9c-5.2,19.1-0.8,36.2,11.7,51.3c4,4.8,9.1,8.2,15.8,8.5
		c0.8,0,1.9,0.7,2.2,1.4c7.6,16.9,17.3,32.6,28.9,47.1C141.3,598.9,141.3,599,141.3,599.6z"/>
	<path class="st0" d="M249.8,567.6c-7.2-0.8-13.6,0.9-20.2,4.1c1.9-19-4.3-34.5-18.7-46.4c-10-8.3-21.7-11.8-34.6-11
		c-15.8,0.9-28.4,8-37.8,20.6c-9.4,12.5-11.8,26.6-8.6,41.9c-0.2,0-0.5,0-0.7,0.1c-2.3-4-4.7-8-6.9-12.1c-2.8-5.3-5.3-10.7-8-16
		c-0.4-0.7-1.6-1.5-2.3-1.4c-6.2,0.3-10.9-2.8-14.9-6.9c-7.4-7.5-10.9-16.9-12.7-27.1c-1.3-7.7-1.1-15.2,1.7-22.6
		c2.1-5.4,4.9-10.2,11.1-11.9c0.5-0.1,1.1-1,1.1-1.4c-1.4-13.1,0.1-26.1,1.9-39.1c1.8-12.9,5.2-25.5,9.6-37.7
		c4.3-11.7,9.7-22.8,16.1-33.4c11.6-19.2,26-36,43.2-50.3c13.4-11.1,28-20.3,43.9-27.5c13-5.9,26.3-10.6,40.2-13.8
		c20.6-4.7,41.5-6.2,62.6-4.4c13.9,1.2,26.3,6.1,34.7,17.9c10.7,14.9,6.5,35.4-9.1,45c-9.1,5.6-18.7,5.4-28.6,2
		c-6.4-2.2-12.1-5.6-17.4-9.7c-0.5-0.4-1.1-0.7-1.9-1.2c4.9,9.6,16.6,21.7,28.9,27.7c12.5,6.1,25.6,8.5,39.4,6.8
		c13.7-1.7,25.8-7.2,36.3-16.1c10.5-9,17.5-20.4,21.8-34.1c4.6,3.7,8.7,6.9,12.6,10.3c12.8,11.1,24,23.6,33.6,37.5
		c9.3,13.6,16.7,28.1,22.5,43.6c6.2,16.7,9.7,34,11.3,51.7c0.6,6.2,0.4,12.5,0.4,18.7c0,1.6,0.4,2,1.9,2.7c2.6,1.3,5,3.1,6.9,5.2
		c3.7,4.2,5.4,9.5,5.9,15c1.3,14.3-1.6,27.7-10.6,39.2c-4.1,5.3-9.5,8.9-16.5,9.2c-1.4,0-1.7,0.7-2.3,1.9c-4.5,9.5-9,19-14,28.3
		c2.4-17.4-1.4-32.7-13.5-45.5c-9.5-10.1-21.3-15.4-35.1-15.9c-15.7-0.5-29,5.3-39.5,17c-10.4,11.7-14.4,25.6-12.4,41.2
		c-3.3-1-6.4-2.2-9.6-2.7c-3.2-0.6-6.5-0.5-10.3-0.7c0.2-18.6-7.1-33.8-22.4-44.8c-8.6-6.1-18.5-9-28.9-8.8
		c-14.7,0.2-27.3,5.7-37.3,16.7C252.9,540,248.6,552.9,249.8,567.6z M226.5,471.8c-13.7-1.2-26.5,10.5-26.8,25.1
		c-0.3,14.6,10.7,25.8,24.1,26.7c15.6,1.1,27-10.8,27.9-23.9C252.9,484.1,240.2,471.3,226.5,471.8z M399.3,496
		c0.8-13.8-11.9-27.2-27.7-26.1c-12,0.8-25,11.6-24.2,27.1c0.8,14.6,11.4,24.9,25.8,25C389.9,522,399.9,508.6,399.3,496z M221,392.4
		c0.1-4-2.4-5.8-7-5.1c-8.5,1.3-16.6,3.9-24.4,7.8c-16.2,8.1-28.2,20.4-36.3,36.5c-0.9,1.8-1.9,3.9-0.2,6.1c2.8,3.6,7.2,3.2,9.2-0.9
		c3.3-6.8,7.5-13.1,12.8-18.5c11.4-11.5,25-18.7,41.1-20.8C219.5,397,220.9,395.4,221,392.4z M381.4,384.9c-3.4,0-6,2.3-6.3,4.8
		c-0.3,2.5,1.3,4.7,3.9,5.3c3.9,0.9,7.8,1.4,11.7,2.4c14.1,3.6,26,10.9,35.2,22.1c3.7,4.4,6.6,9.5,9.8,14.3c1.7,2.6,4.1,3.3,6.7,2
		c2.6-1.4,3.7-4.1,2.2-6.8c-2.4-4.3-4.8-8.7-7.8-12.6c-10.7-13.8-24.3-23.6-41.2-28.4C390.7,386.6,385.6,385.8,381.4,384.9z"/>
	<path class="st0" d="M468.7,561.6c0.5,23.4-16.7,43.8-40.5,47.3c-14.4,2.1-27.3-2-38.2-11.6c-1.6-1.4-2.8-3.6-3.2-5.7
		c-1.5-7.1-5-12.9-10.1-18.1c-1.7-1.8-2.4-5.2-2.5-7.9c-1.1-19.2,6.7-34.2,22.7-44.4c10.8-6.8,22.7-8.4,35.5-5.6
		c18.9,4.1,34.1,21.1,36.3,40.5C468.9,558,468.7,559.8,468.7,561.6z"/>
	<path class="st0" d="M177.7,517.3c20.6,0.7,34.9,9.3,43.9,26.1c4.8,9,6.4,18.8,4.5,29c-0.2,1.3-1.2,2.7-2.1,3.6
		c-5,5-8.3,10.9-9.3,17.9c-0.4,2.5-1.4,4.3-3.2,6c-18.2,16.4-44.9,16.7-63.4,0.7c-15.7-13.6-20.6-35.2-12.3-54.5
		c5.9-13.7,16.3-22.7,30.6-26.8C170.6,518.1,174.9,517.8,177.7,517.3z"/>
	<path class="st0" d="M384.3,597.7c0.3,7-2.7,12.7-6.4,18.2c-10.9,16.2-25.2,28.3-43.5,35.3c-6.8,2.6-14.1,4-21.3,5.6
		c-1.5,0.3-3.5-0.4-4.9-1.2c-8.7-5.1-18.1-8.5-28-10.2c-7.4-1.3-15.1-2.8-22.4-1.1c-4.7,1.1-7.2-1.1-10.2-3.1
		c-10.9-7.4-19.8-16.9-26.4-28.3c-7.3-12.4-3.8-26.2,6.1-35.2c5.5-5,12.3-7.2,19.9-7c2.2,0.1,3.1,0.8,3.6,3
		c4.5,20,16.8,33.3,36.3,38.7c20.3,5.5,38.1-0.2,52.2-16.1c6.3-7.1,10.3-15.6,11.5-25.2c0.1-0.6,0.7-1.5,1.2-1.5
		c13.6-1.9,27.9,6.5,31.4,21.2C383.8,593.1,384,595.4,384.3,597.7z M301.3,634.3c3.3-0.3,7.8-0.2,12.1-1.1
		c12-2.3,22.8-7.4,32.2-15.4c5.8-4.9,10.7-10.7,14.4-17.3c1.6-2.8,0.8-6-1.7-7.4c-2.5-1.4-5.4-0.4-7.1,2.3
		c-6.5,10.6-15.4,18.7-26.9,23.7c-12.3,5.4-25,6.5-38.1,3.3c-10.9-2.6-20.3-7.9-28-16c-3-3.2-5.5-6.9-8.3-10.3
		c-2.8-3.4-7.3-2.8-8.9,1.2c-1,2.3,0.2,4.2,1.5,6C256.5,623.4,275.6,633.9,301.3,634.3z"/>
	<path class="st0" d="M348.1,563.9c-0.4,25.7-21,46.8-47.5,47.2c-26.3,0.4-48.4-21.9-48-48.3c0.5-26.1,21.2-46.4,46.8-47
		C326.1,515,348.2,536.6,348.1,563.9z M331.3,539.8c0.2-7.1-5.9-13.6-13.1-13.4c-7.7,0.2-13,5.9-13.5,12.5
		c-0.6,8.7,6.4,13.9,12.4,14.3C324.9,553.7,331.1,547.7,331.3,539.8z"/>
	<path class="st0" d="M301.2,730.2c0,5.3,0.1,10.6,0,15.9c-0.1,3.1-1.7,5.5-4.3,7c-8.9,5.1-17.9,10.2-26.9,15.2
		c-2.8,1.6-5.7,1.6-8.5,0c-9.3-5.4-18.5-10.8-27.7-16.3c-2.2-1.4-3.6-3.5-3.6-6.3c0.1-10.8,0.2-21.7,0.3-32.5
		c0.1-3.2,1.9-5.5,4.6-7.1c9-5.1,18-10,26.9-15.1c3.8-2.2,7.2-0.8,10.5,1.2c8.1,4.8,16.1,9.8,24.2,14.6c3.4,2,4.9,4.8,4.8,8.8
		c-0.2,4.9,0,9.7,0,14.6C301.4,730.2,301.3,730.2,301.2,730.2z"/>
	<path class="st0" d="M385.3,859.5c-24.2,0-47.9,0-71.8,0c0.3-3.9,0.6-7.7,0.9-11.5c0.2-2.3,0-4.6,2.7-6c1-0.5,1.3-2.3,1.9-3.7
		c-2.1-1.3-4-1.8-6.5-0.7c-7.4,3.4-14.8,2.6-22.1-0.6c-0.5-0.2-1-1-1.1-1.6c-0.7-7.3-3-14-8.1-19.8c4.7-1.4,9.1-2.5,13.3-4.2
		c4.5-1.7,9.2-2,14-2.2c14-0.6,28-1.7,42-2.7c2.8-0.2,5.6-0.6,8.3-0.9c0.7,3.7,1.3,7.2,2.1,10.6c2.2,9.1,7.6,16,15.1,21.4
		c2.1,1.5,3.7,3.1,4.4,5.8c1.1,3.9,2.5,7.7,3.8,11.6C384.6,856.5,384.9,857.8,385.3,859.5z"/>
	<path class="st0" d="M137,651.9c3.1,0.5,6.1,1.2,9.2,1.6c0.8,0.1,1.8-0.3,2.4-0.8c3-2.3,7.2-2.8,10.2-0.9c2.9,1.8,4,5.2,3.3,9.1
		c-0.2,1.1,0.1,2.6,0.8,3.4c14.7,17.9,7.6,46.1-15.3,53.5c-17.1,5.5-34.8-2.2-41.8-18.8c-6.8-16.1-0.4-34.9,15.4-43
		C127,653.1,131,652.1,137,651.9z"/>
	<path class="st0" d="M432.7,805.6c0.1,15.8-9.5,27.2-22.8,31.6c-12.7,4.3-27.5,0.5-36.4-10.4c-5.7-7-8.2-14.9-7.7-23.8
		c0.2-2.9,1.2-5.7,1.6-8.6c0.2-1.5,0.3-3.1-0.2-4.5c-1.1-2.9-0.5-5.5,1.2-7.8c1.8-2.3,4.2-3.5,7.3-3c1.1,0.1,2.5-0.1,3.3-0.7
		c6-4.4,12.7-6.8,20.1-6.7C418.4,771.8,433.4,787.1,432.7,805.6z"/>
	<path class="st0" d="M331,674.4c5.9-1.1,10.9-2.5,16.2-0.9c8.4,2.4,16.9,4.1,25.2,6.7c10.3,3.2,20.1,7.5,29,13.7
		c0.8,0.5,1.5,1.2,2.3,1.9c-9,10.2-17.9,20.4-27,30.7c-1.2-1.4-2.2-2.9-3.5-3.9c-5.9-4.8-11.9-9.5-17.9-14.2c-0.5-0.4-1.8-0.5-2-0.2
		c-0.6,0.8-1.3,2-1.2,2.9c0.7,5.5,1.5,11,2.4,16.4c1.2,7.1,2.4,14.2,3.6,21.2c1.6,9,3.2,18.1,4.8,27.1c0.2,1.1,0.3,2.6-0.3,3.5
		c-2.3,3.7-1.9,7.7-1.8,11.8c0,3.5-0.8,7-1.5,10.5c-0.1,0.5-1.3,1.1-2.1,1.2c-9.7,0.9-19.3,1.8-29,2.5c-6.5,0.5-13.1,0.7-19.8,0.7
		c22.2-14.5,36.9-33.9,41.4-60.4C354.2,719.2,347.7,695.8,331,674.4z"/>
	<path class="st0" d="M217.5,120.5c6.1-15.2,3.8-28.4-8.3-39.3c-6-5.4-13.3-7.7-21.5-7.7c-8.1,0-15.1,3.1-21.9,7
		c-0.2-0.2-0.4-0.4-0.5-0.5c1.5-2,2.8-4.2,4.4-6.1c10.6-12.5,24.3-19.3,40.5-21.1c17.8-2,34.2,2.1,49.3,11.7c3.4,2.2,4,3.4,3.2,7.3
		c-1.9,10-6.9,18.2-13.9,25.4c-8,8.3-17.2,15-27.2,20.7C220.2,118.7,218.9,119.6,217.5,120.5z"/>
	<path class="st0" d="M444.5,608c-4.8,4.5-9.5,9.2-14.5,13.5c-12.8,11-26.8,20.3-42,27.7c-17.4,8.5-35.6,14.6-54.7,17.7
		c-1.6,0.3-3.3,0.4-4.8,0.9c-2.4,0.8-4.1-0.2-5.8-1.7c-2.4-2.2-4.9-4.3-7.7-6.6c17.3-2.1,32.3-8.8,45.2-19.5
		c12.8-10.6,24-22.5,27.5-40.1C405,614,423.9,616.2,444.5,608z"/>
	<path class="st0" d="M386.5,767c0.6-5.7,1.4-11.4,1.7-17.3c0.4-6.4-1.7-12.3-4.7-17.9c-0.8-1.5-0.9-2.6,0.3-3.9
		c7.4-8.3,14.8-16.8,22.2-25.1c0.1-0.1,0.3-0.1,0.5-0.2c23.6,22.6,31.7,50.4,28.1,83.2C422.5,767.6,406.3,761.9,386.5,767z"/>
	<path class="st0" d="M263.9,786.2c-0.3,4.4-0.7,8.8-1,13.2c-0.1,1.8-0.9,2.9-2.7,3.3c-6.3,1.7-12.5,3.5-18.8,5
		c-4.4,1.1-8.2-1-11.8-3c-5-2.7-9.7-6.1-14.6-8.9c-5-2.8-6.9-7.5-8.1-12.7c-0.9-4.1-1.8-8.3-2.9-12.4c-0.6-2.4-0.1-4,2-5.2
		c6.3-3.6,12.6-7.3,18.9-11c2.7-1.6,5.2-0.7,7.6,0.7c8.3,4.9,16.3,10.1,24.8,14.6c4.8,2.6,6.9,5.9,6.3,11.2c-0.2,1.6,0,3.3,0,4.9
		C263.7,786.2,263.8,786.2,263.9,786.2z"/>
	<path class="st0" d="M226.5,728.3c0,5.2-0.1,10.4,0,15.6c0.1,3.9-1.4,6.6-4.8,8.5c-5.9,3.2-11.7,6.7-17.7,9.8
		c-1,0.5-3.2,0.3-3.9-0.4c-5-4.7-10.2-9.5-14.6-14.8c-1.9-2.3-2.7-5.9-2.9-8.9c-0.5-7.7-0.5-15.4,1.4-23c0.4-1.5,0.9-3.1,1.9-4.1
		c4.9-5,10-9.8,15-14.7c1.3-1.3,2.7-1.5,4.4-0.4c5.6,3.4,11.4,6.6,17.1,9.9c2.9,1.7,4.6,3.9,4.4,7.5c-0.2,5-0.1,10-0.1,15.1
		C226.7,728.3,226.6,728.3,226.5,728.3z"/>
	<path class="st0" d="M266.8,788.6c0-2.9,0.1-5.9,0-8.8c-0.1-3.9,1.8-6.5,5.1-8.3c9-5,18-10.1,26.9-15.3c2.8-1.6,5.3-2.1,8.3-0.2
		c5.6,3.7,11.4,7.2,17.2,10.6c1.9,1.1,2.2,2.6,1.8,4.4c-0.7,2.8-1.6,5.6-2.5,8.3c-1.2,3.9-2.5,7.9-3.9,11.8
		c-0.3,0.8-0.8,1.6-1.4,2.1c-7.7,6.6-16.3,11.8-26,14.8c-2.1,0.6-4.6,0.2-6.8-0.4c-5.3-1.3-10.4-3.1-15.7-4.6
		c-2.4-0.7-3.1-2.5-3.1-4.8C266.7,795.1,266.7,791.9,266.8,788.6C266.7,788.6,266.7,788.6,266.8,788.6z"/>
	<path class="st0" d="M264.7,663.1c-0.1,6.6-0.3,13.3-0.4,19.9c0,2.8-2.2,3.8-4.1,4.8c-8.2,4.5-16.4,9-24.5,13.5
		c-0.8,0.4-1.4,1-2.2,1.4c-2.7,1.4-5.3,2.3-8.3,0.4c-6.2-3.8-12.5-7.3-18.7-11.1c-0.6-0.4-1.3-1.8-1.1-2.5
		c1.8-6.7,3.5-13.5,5.7-20.1c1.5-4.5,5.8-6.6,9.6-8.7c4.9-2.8,10.1-5.2,15.3-7.7c3.7-1.8,7.5-0.9,11.2,0c4.6,1.1,9,2.6,13.5,3.9
		C264.7,658.2,265.2,659,264.7,663.1z"/>
	<path class="st0" d="M268.3,674.9c0-4.8-0.1-9.5,0.1-14.3c0.1-1,1.3-2.6,2.3-2.9c4.4-1.5,9-2.4,13.4-3.9c9.1-3.1,16,2,23.1,5.9
		c2.3,1.2,4.4,2.8,6.6,4.2c4.6,2.8,7.9,6.6,9.1,12.1c1.1,4.5,2.4,9,3.5,13.5c0.5,2,0.4,3.9-1.9,5.2c-5.8,3.1-11.5,6.3-17.2,9.6
		c-2.8,1.6-5.3,1.2-7.9-0.2c-8.8-5.2-17.5-10.5-26.4-15.6c-3.8-2.2-5.6-5.2-5.2-9.6c0.1-1.3,0-2.6,0-3.9
		C268.1,674.9,268.2,674.9,268.3,674.9z"/>
	<path class="st0" d="M346.5,729.5c0,4.7,0.4,9.4-0.1,14c-0.3,2.4-1.6,5-3.3,6.9c-4.2,4.5-8.7,8.7-13.3,12.8
		c-0.7,0.6-2.6,0.7-3.4,0.3c-6.2-3.5-12.2-7.1-18.3-10.9c-2.3-1.4-3.3-3.7-3.3-6.4c0.1-11.1,0.2-22.2,0.6-33.3
		c0.1-1.6,1.4-3.7,2.8-4.6c6-3.7,12.3-7,18.5-10.5c1.5-0.8,2.9-0.9,4,0.4c5,5.5,10.3,10.8,14.9,16.6c1.4,1.8,1.1,5.1,1.3,7.7
		c0.2,2.3,0,4.7,0,7C346.8,729.5,346.6,729.5,346.5,729.5z"/>
	<path class="st0" d="M157.1,610.9c21.1,8.7,39.9,5.4,56.9-8.7c4.3,18,16.7,30,30.6,40.7c1,0.7,1.9,1.5,3.1,2.5
		c-1.1,0.4-2,0.8-2.9,1c-7,1.2-13.5,4-19.8,7.1c-1.9,0.9-3.4,1-5.1,0.1c-8.9-4.7-17.9-9.1-26.6-14.1c-12.6-7.3-23.8-16.7-34.5-26.6
		C158.2,612.3,157.7,611.6,157.1,610.9z"/>
	<path class="st0" d="M319.4,866.4c4.4,0,8.3,0,12.1,0c14.2,0,28.5,0,42.7-0.1c1.8,0,2,0.8,2.2,2.1c0.9,5.8,1.8,11.6,2.8,17.7
		c-19.5,0-38.9,0-58.6,0C320.2,879.6,319.8,873.1,319.4,866.4z"/>
	<path class="st0" d="M226.9,838.8c0.4-10.1,3.8-17.9,11.2-23.9c1.8-1.5,3.5-1.4,5.3-0.9c9.3,2.9,18.9,3.3,28.5,2.6
		c2.1-0.1,3.2,0.3,4.7,1.9c6.7,7.5,7.5,16.2,6.4,26C265,837.1,246.6,832.9,226.9,838.8z"/>
	<path class="st0" d="M177.3,685.8c3.1,2.6,6.1,5.1,8.8,7.4c-2.1,7.3-4.9,14.4-6.2,21.7c-1.3,7.4-1.1,15.1-1.6,23
		c-13.1-1.4-25.4-5.3-37.1-11.7c10.2-1.6,18.9-5.8,25.7-13.4C173.7,705.2,177,696.2,177.3,685.8z"/>
	<path class="st0" d="M360.2,719.2c4,4,8,8,12,12c1.9,1.9,2.8,4.9,6.2,5c0.3,0,0.7,0.7,0.8,1.2c0.9,4,2.2,8,2.5,12.1
		c0.5,6.9-1.1,13.6-3.7,20c-0.8,2-1.9,3.5-4.4,3.1c-0.1,0-0.2,0-0.3,0c-5.1,0.4-4.8,0.4-5.5-4.6c-1.1-7.5-2.6-15-3.9-22.5
		c-0.5-2.9-1.1-5.8-1.6-8.7c-1-5.7-1.9-11.3-2.8-17C359.7,719.5,360,719.4,360.2,719.2z"/>
	<path class="st0" d="M216.6,856.6c1.1-3,1.9-5.5,2.9-7.9c0.2-0.5,0.9-1,1.5-1.3c8.8-4.3,18.3-6.2,28-5.4c9.1,0.7,17.9,3.1,26.3,6.7
		c3,1.3,5.9,2.8,9,4c2,0.8,2.8,2,2.4,4.1c-0.2,1.1,0,2.2,0,3.5c-4.5-2-8.6-4-12.8-5.8c-7-3-14.3-5.2-21.9-6.3
		c-11.4-1.6-21.8,0.6-31.6,6.5C219.3,855.3,218.2,855.8,216.6,856.6z"/>
	<path class="st0" d="M385.5,893.3c0,1.8,0,3.4,0,5.5c-2.1,0-4.1,0-6.2,0c-19.6,0-39.2,0-58.8,0c-5,0-5,0-4.1-5.5
		C339.3,893.3,362.3,893.3,385.5,893.3z"/>
	<path class="st0" d="M248.2,810.5c3.9-1.2,7.9-2.5,11.8-3.7c3-0.9,5.9-1.1,8.9,0c3.9,1.4,7.9,2.5,11.8,3.8
		C277.2,813.4,253.1,813.3,248.2,810.5z"/>
	<path class="st0" d="M205.6,673.5c-1.5,5.7-2.8,10.9-4.4,15.9c-0.5,1.5-1.7,2.8-2.9,3.9c-3.6,3.3-7.4,6.4-11.2,9.7
		C191.3,692.1,196.6,682,205.6,673.5z"/>
	<path class="st0" d="M186.2,754.5c3.9,3.7,7.3,7.2,10.9,10.4c2.8,2.4,3,5.8,3.8,8.9c0.9,3.5,1.4,7.1,2.1,10.6
		C197.6,779.3,189.8,766.9,186.2,754.5z"/>
	<path class="st0" d="M282.4,650.5c-3.6,0.9-7.2,2-10.9,2.8c-2.4,0.5-4.9,1.3-7.3,0.9c-3.1-0.5-6.1-1.9-9.1-2.9
		c-1.6-0.5-3.2-0.9-4.8-1.8C261.1,647.4,271.8,647.1,282.4,650.5z"/>
	<path class="st0" d="M325.8,786c1.3-5.2,2.1-9.8,3.6-14.2c0.9-2.5,2.5-4.9,4.3-6.9c2.5-2.9,5.5-5.5,8.2-8.2
		c0.2-0.2,0.6-0.3,1.3-0.8C339.7,767.3,333.8,776.9,325.8,786z"/>
	<path class="st0" d="M327,676.9c5,3.8,13.5,18.6,16.1,28c-2.8-2.7-5.1-5.3-7.7-7.4c-4-3.2-5.4-7.6-6.2-12.4
		C328.7,682.6,327.8,680,327,676.9z"/>
	<path class="st0" d="M289.8,844.3c0.1,2.4,0.2,4.8,0.4,7.8C288.4,849.8,288.4,848.6,289.8,844.3z"/>
	<path class="st0" d="M242.4,486.2c0.1,5.1-3.6,7.4-7.1,7.1c-4.7-0.4-7.1-2.4-7-7.5c0.1-3.9,3.4-7,7.6-6.8
		C239.5,479,242.5,482.3,242.4,486.2z"/>
	<path class="st0" d="M383.1,477.2c4.3,0,7.2,2.9,7.2,7.1c0,4-3.3,7-7.4,7c-3.9-0.1-7.1-3.2-7-7.1
		C375.8,480.1,378.8,477.2,383.1,477.2z"/>
	<path class="st0" d="M318.1,549.8c-5.9,0-10.2-4.3-10.2-10.1c0-5.6,4.6-10,10.4-10c5.2,0.1,10,4.8,9.9,9.8
		C328.2,545.3,323.7,549.8,318.1,549.8z"/>
</g>
</svg>
