<?xml version="1.0" encoding="utf-8"?>
<!-- Generator: Adobe Illustrator 26.0.0, SVG Export Plug-In . SVG Version: 6.00 Build 0)  -->
<svg version="1.1" id="Capa_1" xmlns="http://www.w3.org/2000/svg" xmlns:xlink="http://www.w3.org/1999/xlink" x="0px" y="0px"
	 viewBox="0 0 595.3 741.6" style="enable-background:new 0 0 595.3 741.6;" xml:space="preserve">
<style type="text/css">
	.st0{fill:#FFFFFF;}
</style>
<g>
	<path d="M550.7,188c-8.9-3.3-17.8-6.2-26.9-8.5c-1-0.3-2-0.6-3-0.9c-0.4-1.7,0.1-3.2,0.3-4.7c0.6-4.7,1.4-9.3,1.7-14
		c1.1-17.5-0.5-34.8-5-51.8c-6.3-24-17.8-45-36-62.2c-13.7-12.9-29.6-22-47.5-27.8c-14.2-4.6-28.9-6.7-43.8-6.5
		c-13,0.2-25.8,2.1-38.2,6.4c-14.4,4.9-27.2,12.4-37.5,23.8c-0.3,0.3-0.7,0.5-1.2,0.9c-0.6-0.9-1.2-1.6-1.8-2.4
		c-2.9-3.9-6.1-7.5-9.6-10.9c-8.7-8.2-18.7-14.3-29.6-19c-10.6-4.5-21.6-7.4-32.9-9c-13.4-1.9-26.8-1.7-40.1,0.4
		c-13.3,2.1-26.1,6.2-38.2,12.3c-14.1,7.1-26.3,16.5-36.7,28.3c-8.7,9.8-15.7,20.9-21.2,32.9c-6.5,14.4-10.9,29.4-13.1,44.9
		c-0.5,3.5-0.9,7-1.3,10.6c-5.3,0.8-10.2,1.5-15,2.3c-5,0.8-9.5,2.7-13.5,5.7c-8.7,6.7-13,15.7-13,26.6c0,9.4,3.7,17.2,11,23.1
		c5.5,4.4,12.1,6.3,19,6.8c5.3,0.4,10.6-0.1,15.8-0.9c2.2-0.4,4.4-0.6,6.5-0.4c1.7,3.6,3.3,7,5,10.4c6.9,13.2,15.4,25.4,25.2,36.6
		c1.4,1.6,2.3,3.2,2.9,5.2c6.9,22.2,13.8,44.3,20.7,66.4c10.2,32.6,20.4,65.2,30.6,97.8c7.6,24.2,15.1,48.3,22.6,72.5
		c0.4,1.2,0.7,2.4,1.1,3.9c-1.3,0-2.4,0-3.4,0.1c-6.1,0.2-10.7,5-10.6,11c0,2.9,1,5.6,3.2,7.6c1.2,1.1,1.6,2.2,1.5,3.7
		c0,1.1,0,2.1,0.2,3.2c0.8,3.9,1.1,7.9,1.4,11.9c0.1,1.2-0.1,2.2-1,3.2c-5.4,6.1-9,13.2-11.4,21c-1.5,4.8,0.9,9.4,5.6,11
		c1.5,0.5,3.2,0.8,4.8,0.8c2.3,0.1,4.7-0.2,6.9-0.2c0.2,0.1,0.3,0.2,0.3,0.3c0.2,0.4,0.4,0.8,0.6,1.3c2.6,8.1,7.1,15.1,13.2,21
		c7.8,7.4,17,11.8,27.6,13.1c7.9,1,15.9,1.5,23.9,2.2c7.7,0.7,15.5,1.3,23.2,2c5.1,0.4,10.1,0.6,15.1-0.3c16.1-3,28-11.8,35.8-26.1
		c0.6-1,1.1-2,1.7-3.2c1.9,0.4,3.6,0.8,5.3,1.1c2,0.3,4,0.5,5.9,0.6c5.5,0.3,10.4-5.2,9.3-11.2c-0.4-2.2-0.7-4.4-1.3-6.6
		c-1.6-5.8-3.3-11.6-6.9-16.5c-0.6-0.9-0.7-1.7-0.5-2.7c0.9-3.8,1.8-7.6,2.7-11.3c0.4-1.9,1.3-3.3,2.9-4.6c5.9-5,4.7-13.7-1.4-17.5
		c-0.7-0.4-1.4-0.9-2.2-1.4c0.4-0.9,0.7-1.8,1.1-2.6c12.9-29.9,25.9-59.9,38.8-89.8c11.4-26.4,22.8-52.7,34.2-79.1
		c8-18.5,16-37,23.9-55.5c1-2.5,2.5-4.4,4.6-6.1c9.9-8.2,19-17.3,27-27.4c0.5-0.6,1.1-1.1,1.6-1.7c0.6,0,1.1,0,1.6,0.1
		c10.3,2.1,20.4,4.6,30.3,8.1c7.5,2.7,15.3,3.9,23.3,2.4c9.9-1.9,17.3-7.3,21.4-16.6C575.9,215.7,569.3,194.8,550.7,188z
		 M209.2,470.4c-0.4-0.3-0.7-0.4-0.8-0.5c-21.7-71.4-43.4-142.8-65.2-214.2c0.2-0.2,0.3-0.3,0.5-0.5c1.6,1.5,3.3,3,4.9,4.5
		c11.5,10.8,23.9,20.6,36.8,29.7c4.2,3,3.4,1.6,4.2,6.7c1.4,9.1,2.8,18.2,4.1,27.2c1.3,8.4,2.5,16.8,3.7,25.2
		c1.5,9.9,3,19.8,4.5,29.7c1.3,8.7,2.7,17.5,4,26.2c1.8,12.2,3.7,24.5,5.5,36.7c0.9,6.3,1.9,12.6,2.8,18.9c0.2,1,0.2,2.1,0.3,3.4
		C212.2,465.2,210.3,467.5,209.2,470.4z M351.2,460.4c0-0.5-0.1-1-0.1-1.6c0.1-0.8,0.2-1.6,0.3-2.5c0.2-3-0.8-4.4-3.6-5.2
		c-3.5-1-7-1-10.5-0.2c-1.7,0.4-2.9,0.3-4.2-0.9c-1.8-1.7-3.7-3.3-5.5-4.9c-0.3-0.2-0.5-0.5-0.7-0.8c-1.1-1-2.4-1.5-3.9-0.7
		c-0.8,0.5-1.5,0.4-2.4,0.3c-5-1.1-9.8-0.5-14.6,1c-0.4,0.1-0.9,0.3-1.5,0.5c-0.3-0.5-0.6-0.9-0.8-1.4c-2.9-9.2-9.2-15.2-17.7-19
		c-7.5-3.4-15.4-4.3-23.5-3.8c-5.6,0.4-11,1.6-16.1,3.9c-6.1,2.8-11.3,6.7-15,12.5c-4.1,6.5-5.2,13.5-3.9,21c0.3,1.5,0.7,3,1.1,4.6
		c-1.2,0.4-2-0.6-2.9-0.8c-0.9-0.2-1.8-0.5-2.7-0.6c-1-0.2-2.1-0.2-3.2-0.3c-0.2-1.1-0.5-2.2-0.6-3.2c-7.6-53.5-15.2-107-22.7-160.4
		c1.2-0.6,1.8,0.2,2.4,0.6c9.5,6.3,19.4,12.1,29.3,17.7c10.1,5.7,20.3,11.1,30.7,16.1c3.3,1.6,6.8,2.6,10.3,3.8
		c6.9,2.3,14,4.3,21.1,5.7c5.3,1,10.5,0.9,15.8,0.2c10.1-1.4,19.8-4.3,29.4-7.6c21.3-7.3,42.1-15.9,62.3-25.7
		c1.6-0.8,3.2-1.9,5.3-2.3c-0.1,1.3-0.4,2.3-0.7,3.3c-3.4,10.4-6.7,20.8-10.1,31.3c-5,15.5-9.9,30.9-14.9,46.4
		c-6.3,19.6-12.6,39.2-18.9,58.9c-1.3,4.1-2.7,8.3-4,12.4C353.9,460.1,353,460.7,351.2,460.4z M447.7,282
		c-3.5,8.5-7.1,16.9-10.7,25.4c-11.4,26.9-22.7,53.8-34.1,80.7c-11.4,27.1-22.9,54.3-34.3,81.4c-2.3,5.4-4.6,10.8-6.9,16.2
		c-1.1,2.5-3,2.8-4.9,1c-0.2-0.2-0.3-0.3-0.5-0.5c-0.1-0.2-0.3-0.4-0.4-0.6c-0.9-1.8-1.9-3.5-2.6-5.4c-0.7-2,0.8-3.8,1.2-5.7
		c0.2-1,0.7-2,1.1-3.2c0.7-0.3,1.4-0.6,2.2-0.9c2.2-0.9,4.4-1.7,6.5-2.8c2.5-1.2,3.8-3.4,4.7-5.9c0.2-0.4,0.2-0.9,0.3-1.4
		c0.1-1.6-0.9-2.8-2.5-2.8c-1,0-2.1,0.1-3.1,0.3c-1,0.2-2,0.6-3,0.9c-0.9-0.7-0.4-1.5-0.1-2.3c1.9-5.7,3.7-11.4,5.6-17.1
		c3.5-10.5,6.9-21,10.4-31.5c4.5-13.6,9-27.3,13.5-40.9c6.4-19.3,12.8-38.7,19.2-58c0.5-1.6,1.1-3.1,1.5-4.7
		c0.5-1.9,1.6-3.2,3.4-4.2c7.1-4,14.1-8.1,21-12.4c3.9-2.4,7.6-5.1,11.4-7.7c0.5-0.4,1.1-0.7,1.8-1.1
		C448.8,280.2,448.1,281.1,447.7,282z"/>
	<path d="M529.9,660.3c4.8,1.6,8.9,4.2,11.8,8.6c2.8,4.3,3.9,9,3.6,14.2c3.8,1,6.9,2.8,9.1,6.2c4.2-0.8,8.2-0.5,11.3,2.3
		c2.8-1,5.3-2,7.9-2.7c6.9-1.9,15.7,1.1,19.7,10c3.9,8.5,2.1,19.6-7.1,26.5c-4,3-8.6,4.8-13.5,5.9c-9,2.1-18,3.8-27.1,4.9
		c-10.2,1.2-20.4,2.2-30.6,3.1c-11.7,1.1-23.5,1.6-35.3,1.9c-8.7,0.3-17.4,0.3-26.2,0.4c-14.6,0.2-29.2,0-43.8-0.5
		c-10.8-0.4-21.7-1-32.5-1.7c-7.4-0.4-14.8-1-22.2-1.7c-7.6-0.7-15.2-1.6-22.8-2.6c-9.1-1.3-18.2-2.7-27.2-4.3
		c-7.1-1.3-14.1-2.7-20.9-5.1c-5.9-2.1-11-5.4-14.4-10.8c-4.7-7.3-4.5-16.8,0.3-23.6c4.6-6.5,12.1-9,20-6.5c2.1,0.7,4.1,1.8,6,2.7
		c1.9-0.7,3.7-1.7,5.6-2c1.9-0.3,4,0,6.5,0.1c0.6-0.6,1.5-1.5,2.2-2.3c0.2-2,0.5-3.7,0.7-5.5c0.1-0.9-0.1-1.9-0.2-2.8
		c-0.3-2.5-0.4-4.9,0.1-7.4c0.8-3.8,2.7-7,5.6-9.6c2.2-2,4.6-3.7,7.2-5.1c1-0.6,2-1.2,3.2-1.8c0-0.9,0-1.8,0-2.7
		c-0.2-3.2-0.6-6.3-0.3-9.5c0.9-10.7,9.2-15.7,15.9-17c5.8-1.2,11,0.2,15.6,3.9c1.3,1,2.4,2.3,3.6,3.4c1.3,1.2,2.6,2.4,4.1,3.8
		c1.3-0.2,2.5-1.2,3.8-1.8c2.5-1.1,4.8-2.4,7.4-3.4c3.1-1.2,6.4-1.7,9.7-1.2c5.2,0.9,9,4,12,8.1c3.3,4.5,4.1,9.5,2.4,14.7
		c-0.7,2.1-1.7,4.1-2.6,6.2c-0.6,1.3-1.2,2.5-1.8,3.7c0.5,0.9,1.1,0.4,1.6,0.3c2.6-0.4,5.1-0.8,7.7-1c1.4-0.1,2.4-0.6,3.4-1.5
		c8.5-7.7,18.6-10.3,29.8-8.6c6.7,1,12.7,3.5,18.2,7.3c0.7,0.5,1.3,0.9,2,1.4c1.3-0.3,1.7-1.4,2.3-2.2c3.6-4.8,7.4-9.4,11.8-13.6
		c6.3-6,13.7-9,22.3-9.1c10-0.1,18.4,3.4,25.4,10.4c4.4,4.4,7.2,9.6,8.1,15.7c0.1,0.5,0.2,0.9,0.3,1.4
		C529.6,659.8,529.7,659.9,529.9,660.3z"/>
	<path d="M489.2,421.9c-1.1,1.4-2,2.6-3,3.8c-2.1,2.7-4.2,5.4-6.4,8c-0.9,1.1-2,2-3.2,2.8c-6,4.4-14.9,2.2-18.1-5.1
		c-0.7-1.6-1.2-3.3-1.4-5.1c-0.4-2.7-0.5-5.4-0.8-8.1c-0.2-2.2-0.5-4.4-0.7-6.7c-0.3-2.8-1.8-4.8-4.2-6.2c-1.2-0.7-2.4-1.4-3.7-2.1
		c-3.5-1.7-7-3.3-10.5-5.1c-2.9-1.4-5.5-3.1-7.7-5.5c-1.4-1.6-2.5-3.4-2.8-5.6c-0.5-3.8,0.9-6.8,3.7-9c2-1.6,4.3-3,6.6-4
		c3.8-1.6,7.7-2.9,11.6-4.3c1.9-0.7,3.9-1.1,5.5-2.4c0.5-2.1,0.1-4.2-0.2-6.3c-0.5-3.8-0.6-7.5-0.5-11.3c0.1-1.5,0.3-3.1,0.6-4.5
		c1.4-6,4.8-9.8,12.8-10.7c4.7-0.5,8.9,0.9,12.5,3.8c1.9,1.4,3.5,3.2,5.2,4.8c0.7,0.6,1.3,1.4,1.9,2c1-0.3,0.6-1,0.6-1.5
		c-1-15.3,4.9-27.3,17.7-35.8c5.7-3.8,12.2-5.5,19.1-5.6c16.8-0.4,31.7,10.3,36.8,26.2c5.2,16.2-1,33.8-15.2,43.1
		c-1,0.6-1.9,1.3-3,2c1.2,0.4,2.1,0.6,3,1c3,1.5,3.6,4.5,1.5,7c-0.9,1.1-2.1,1.9-3.2,2.9c0.2,1,0.3,2,0.5,3
		c1.4,6.5,0.7,12.9-1.8,19.1c-1.3,3.4-2.9,6.7-4.6,9.9c-2.7,5.4-5.6,10.6-7.7,16.3c-3.6,9.7-4.1,19.5-1.7,29.5
		c1.9,8,5.3,15.4,9.2,22.5c0.5,0.8,0.9,1.6,1.3,2.5c0.1,0.3,0,0.6-0.1,1.2c-0.5-0.5-0.9-0.7-1.1-1.1c-5.3-9.1-9.5-18.7-11.3-29.1
		c-1.6-9.6-0.3-18.8,3.3-27.7c2.1-5.4,4.9-10.4,7.6-15.6c2.5-4.8,4.8-9.7,5.8-15.1c0.9-4.9,0.8-9.8-0.8-14.7c-0.8,0-1.5,0-2.2,0
		c-1.5-0.1-3.1,0-4.5-0.4c-3.1-0.8-4.2-3.2-3.1-6.3c0.2-0.4,0.3-0.9,0.6-1.6c-2.5,0.2-4.8,0.4-7.1,0.5c-2.3,0.1-4.7,0-7.1,0
		c-2.5,3.2-2.6,5.3-0.5,8.6c1.8,2.6,3.7,5.2,5.4,7.8c1.9,2.8,3.7,5.8,4.9,9c0.7,1.9,1.2,3.8,1.2,5.8c0.2,6.2-3.8,10-8.8,11.2
		c-2.5,0.6-5.1,0.7-7.7,0.4c-3.4-0.5-6.8-1-10.1-1.4c-0.5-0.1-0.9-0.1-1.6-0.2c-0.3,0.7-0.5,1.3-0.8,1.9c-0.2,0.5-0.4,1.1-0.6,1.7
		c0.9,0.4,1.8,0.7,2.6,1.3c1.5,1.1,1.8,2.7,1,4.4c-1.5,3-6.3,4.9-9.4,3.7c-1.9-0.7-2.7-2.1-2.4-4.2c0.1-0.8,0.4-1.6,0.6-2.3
		c-0.8-0.6-1.2-0.1-1.4,0.4c-1.5,4.1-2.2,8.4-2,12.8c0.3,5.4,2.1,10.4,4.5,15.1c1.7,3.4,3.6,6.6,5.3,10c2.1,4.1,4.2,8.2,5.9,12.4
		c4.1,10.2,4.5,20.6,1.9,31.2c-2,8.1-5.3,15.6-9.2,22.9c-0.3,0.6-0.8,1-1.3,1.5c-0.8-0.9-0.1-1.5,0.2-2c3.2-6,6-12.3,8-18.8
		c1.9-6.2,2.9-12.6,2.6-19.2c-0.4-8.3-3.1-15.9-7-23.2c-2-3.8-4.1-7.4-6.1-11.2c-2-3.6-3.7-7.4-4.8-11.4c-1.7-6-1.9-12.1-0.1-18.1
		c0.4-1.2,0.7-2.5,1.1-3.7C490.7,423.5,490.7,423.5,489.2,421.9z"/>
	<path d="M28.5,443.4c1.9-7.6,3.1-9.1,9.6-12.1c0.2-0.4,0.4-1,0.6-1.5c3.6-12.6,22.2-18.3,32.7-6.6c1.5,1.7,2.8,3.5,4.1,5.3
		c0.8,1,1.5,2.1,2.4,3.3c0.8-0.4,1.6-0.7,2.3-1c3.7-1.9,7.7-2.9,11.9-2.8c4.9,0.1,9.3,1.6,12.9,5c1.9,1.8,4,2.3,6.6,2.3
		c-0.4-1.5-0.9-2.8-1.2-4.1c-1.5-6,2.4-12,8.5-13.2c2.1-0.4,4-0.1,5.9,0.8c2,0.9,4,2,6.1,3.1c0.5-0.3,1.1-0.6,1.6-1
		c0.8-0.6,1.6-1.4,2.4-2c5.8-4.4,12.7-1.9,15.9,2c1.4,1.7,2.3,3.6,2.2,5.8c0,2.3-0.2,4.7-0.3,7.3c0.5,0.4,1.1,0.8,1.8,1.3
		c0.8,0.6,1.7,1.3,2.5,2c2.8,2.4,4.1,5.4,3.8,9.1c-0.1,1.6-0.3,3.3-0.2,4.9c0,1.9,0.4,2.4,2.2,2.3c1.8,0,3.4,0.7,4.9,1.4
		c1.3-0.4,2.4-0.9,3.5-1.1c5.8-1.4,11.2,1.9,12.7,7.7c1.6,6.2-1.3,12.4-7.8,15.3c-1.5,0.7-3.1,1.2-4.7,1.5
		c-7.3,1.5-14.6,2.3-22.1,2.9c-11.4,0.8-22.8,1.2-34.3,1c-8.6-0.1-17.2-0.5-25.8-0.9c-8.2-0.4-16.5-1-24.7-1.7
		c-11-1-22-2.4-32.9-4.4c-6.7-1.2-13.4-2.7-19.9-4.7c-2.6-0.8-5.1-2-7.2-3.7c-4.4-3.6-6-9.5-3.9-14.7c2.3-5.6,7.9-8.1,13.6-6
		c0.9,0.3,1.7,0.8,2.4,1c2.4-0.3,4.6-0.6,6.8-0.9C25.2,445.2,26.9,444.3,28.5,443.4z"/>
	<path class="st0" d="M247.7,147.9c-2.2-0.5-4.6-1.1-7-1.6c-10.5-2.3-20.9-4.7-31.4-6.7c-15.1-2.9-30.4-5.4-45.7-7.1
		c-16.2-1.8-32.4-3.1-48.7-2.9c-7.4,0.1-14.8,0.6-22.2,1c-0.5,0-0.9,0-1.3,0c-0.8-1-0.5-1.9-0.4-2.8c1.5-15,5-29.5,10.4-43.5
		c6.7-17.3,16.2-32.9,29.4-46.2c15.8-15.9,34.7-26.5,56.3-32.3c14-3.7,28.3-5.1,42.7-4.1c19.5,1.3,38.1,6.3,55.1,16.3
		c10.8,6.3,20.1,14.4,27.2,24.8c0.5,0.7,1,1.3,1.6,2.1c0.6-0.5,1-0.8,1.4-1.2c9.9-11.3,22.2-18.9,36.2-23.8
		c16.7-5.9,33.9-7.9,51.5-6.5c13.1,1,25.8,3.8,38.1,8.6c17.4,6.7,32.6,16.7,45.4,30.4c14.3,15.3,23.9,33.2,29.5,53.3
		c3.3,11.6,5.1,23.5,5.8,35.5c0.4,6.8,0.3,13.7-0.2,20.5c-0.4,5.2-1.4,10.3-2.2,15.4c0,0.3-0.3,0.6-0.5,1.1c-0.6-0.1-1.3-0.2-2-0.3
		c-10.5-2.5-21.2-4.4-31.9-6.2c-6-1-12.1-1.7-18.2-2.4c-5.5-0.7-11-1.4-16.5-1.9c-6.9-0.6-13.9-1.1-20.8-1.6
		c-15-1.1-30.1-1.4-45.2-1.9c-2.1-0.1-4.2,0-6.4,0c-0.4-0.9-0.8-1.6-1.2-2.3c-4.7-10.1-11.2-18.8-19.7-26c-3.1-2.6-5-5.8-5.9-9.8
		c-0.8-3.4-1.8-6.8-2.9-10.2c-3.1-8.7-7.8-16.3-15.1-22.2c-6.6-5.4-14.2-8.8-22.5-10.4c-3.9-0.8-7.7-0.9-11.6-0.6
		c-2.6,0.2-5.1,0.7-7.3,2.4c-3.1,2.3-3.8,5.7-2,9.1c0.4,0.7,0.8,1.4,1.2,2.2c-1.2,0.4-2.2,0.8-3.1,1.2c-4.3,1.7-8.2,4.2-11.3,7.7
		c-1.1,1.2-2.1,2.6-2.8,4.1c-1.3,2.6-1.1,5.3,0.8,7.6c1.9,2.3,4.5,2.8,7.4,2.2c1.3-0.3,2.5-0.8,3.7-1.2c1.2-0.4,2.5-0.7,3.8-0.9
		c0.4-0.1,0.9,0.2,1.2,0.5c0.4,0.5,0.3,1.1,0,1.6c-0.9,1.3-2.2,1.7-3.5,2.2c-3.1,1.1-6.3,2.1-9.3,3.3c-10.7,4.6-19.5,11.7-26.8,20.8
		c-0.7,0.8-1.3,1.7-2,2.5C248.4,147.5,248.1,147.6,247.7,147.9z"/>
	<path class="st0" d="M237.5,213.6c11.1,29.5,31.4,47.9,62.9,52.3c26.9,3.7,56.4-8.5,72.9-35.9c0.8,0,1.7-0.1,2.7-0.1
		c14.4-0.1,28.8,0.1,43.1,0.8c10.2,0.5,20.5,1,30.7,1.7c5.2,0.3,10.3,1,15.5,1.5c0.8,0.1,1.5,0.4,2.4,0.6c-0.3,1-0.6,1.8-0.9,2.5
		c-5.1,12-10.2,24.1-15.3,36.1c-0.7,1.7-1.7,3-3.2,4c-14.4,10.4-29.5,19.4-45.3,27.4c-23.1,11.8-47.1,21.6-71.7,29.9
		c-7.9,2.7-16,4.8-24.3,6.2c-7.5,1.3-14.8,0.8-22.1-1.1c-7.2-1.9-14.3-3.9-21.3-6.5c-4.9-1.8-9.4-4.3-14-6.7
		c-10.2-5.2-20.2-10.7-30.1-16.4c-17.6-10.3-34.6-21.6-50.6-34.2c-8.6-6.8-16.8-14-24.7-21.7c-1.7-1.7-2.8-3.6-3.5-6
		c-4.8-16.1-9.8-32.2-14.7-48.3c-1.4-4.7-1.7-4.2-6-3.4c-0.6,0.1-1.1,0.4-1.5,0.5c-0.8,1.3-0.2,2.4,0.1,3.5
		c2.2,6.9,4.3,13.7,6.5,20.6c1.6,5.1,3.2,10.1,4.7,15.2c0.2,0.6,0.2,1.3,0.3,2.2c-8.6-8.1-24.3-32.4-28.2-44.3
		c0.8-0.2,1.5-0.5,2.3-0.5c7.2,0,14.4-0.2,21.6,0.2c7.4,0.4,14.8,1.1,22.2,2c8.2,1,16.3,2.4,24.4,3.7c21.4,3.6,42.4,8.7,63.5,13.9
		C236.5,213.2,237.1,213.4,237.5,213.6z"/>
	<path class="st0" d="M374.4,228.5c1.8-4.5,3.5-8.4,5-12.5c1.5-4,2.5-8.1,2.9-12.4c0.4-4.3,0.8-8.7,0.9-13c0-4.2-0.4-8.5-1.4-12.6
		c-1-4.2-2.2-8.4-3.3-12.6c1.4-0.6,2.7-0.4,4-0.3c3.9,0.1,7.8,0.2,11.7,0.4c12.7,0.6,25.4,0.9,38.1,1.8c10.8,0.7,21.6,2,32.4,3.1
		c11.8,1.2,23.6,3.1,35.3,5.3c17.3,3.3,34.2,7.6,50.7,13.9c17.5,6.7,24.7,27.1,16.2,43.4c-4.2,8.1-11.1,12.6-20,14.2
		c-7.8,1.4-15.3,0-22.6-2.6c-6-2.1-12.1-3.9-18.3-5.4c-8.9-2.1-18-3.8-27.1-4.9c-6.2-0.8-12.4-1.6-18.6-2.2
		c-9.6-0.8-19.3-1.6-28.9-2.1c-17.6-1.1-35.3-1.4-53-1.3C377.2,228.5,376,228.5,374.4,228.5z"/>
	<path class="st0" d="M237.1,211.6c-1.4-0.2-2.3-0.2-3.1-0.4c-9.4-2.2-18.8-4.6-28.2-6.7c-13.8-3.2-27.6-5.9-41.6-8.1
		c-13.7-2.2-27.5-3.9-41.4-4.4c-9-0.3-17.9-0.3-26.8,0.7c-2.3,0.3-4.7,0.7-7,1c-5.4,0.6-10.8,0.8-16.2-0.3
		c-3.6-0.8-7.1-1.9-10.2-3.8c-7.2-4.3-11.5-10.6-13-18.9c-2.5-13.6,4.2-27.2,16.5-33.4c3.7-1.9,7.7-2.8,11.8-3.4
		c7.6-1.1,15.2-1.9,22.8-2.3c9.3-0.6,18.6-0.6,27.9-0.3c10.5,0.4,20.9,1.2,31.4,2.4c14.5,1.6,28.9,3.8,43.3,6.4
		c13.9,2.5,27.7,5.4,41.5,8.7c0.7,0.2,1.3,0.4,2.3,0.7c-0.5,1-0.9,1.8-1.4,2.5c-5.2,8.4-8.5,17.5-10.2,27.3
		c-1.5,9.3-1.3,18.5,0.6,27.7C236.3,208.3,236.7,209.6,237.1,211.6z"/>
	<path class="st0" d="M294.9,96.6c-1.4-0.9-2.2-1.4-2.9-2c-3.3-2.8-2.9-7.2,0.9-9.5c1.7-1,3.7-1.5,5.7-1.7c8.2-0.7,15.9,1,23.3,4.5
		c11.4,5.4,19.4,14,23.9,25.8c1.5,3.8,2.7,7.8,3.6,11.8c1,4.6,3.3,8.2,6.8,11.2c10.8,9.4,18.4,21,22.6,34.8
		c7.1,23.4,1.6,50-14.7,68.5c-12,13.6-27,21.8-45,24.4c-28,3.9-55.2-8.9-70.6-31.8c-8.6-12.8-13.2-26.9-12.7-42.3
		c0.8-25.6,11.7-46,33.2-60.3c5.2-3.5,10.9-6,17-7.7c1.5-0.4,2.9-1,4.2-1.8c1.3-0.7,2-2,1.7-3.6c-0.2-1.2-1-2-2.2-1.9
		c-1.2,0.1-2.3,0.3-3.5,0.5c-1.6,0.4-3.1,1-4.7,1.5c-1.9,0.6-3.7,0.4-5.4-0.8c-1.7-1.3-2.5-3.1-2-5.3c0.4-1.9,1.3-3.5,2.6-4.9
		c4.3-4.8,9.6-7.9,15.9-9.1C293.1,96.9,293.6,96.8,294.9,96.6z M252.5,188.7c-0.1,11.7,2.4,21.5,7.8,30.5
		c11.4,18.9,28.2,29,50.3,29.6c15,0.4,28.3-4.7,39.3-14.8c15.1-13.9,21.1-31.4,18.5-51.7c-1.1-8.5-4.2-16.4-9-23.6
		c-14.3-21.5-39.1-30.7-63.2-24.9C269.6,140.4,252.2,164.3,252.5,188.7z"/>
	<path class="st0" d="M207,526.3c5.4,1.2,10.3,2.3,15.2,3.2c5,0.9,10,1.7,15.1,2.5c0,1,0,1.8,0,2.6c-0.4,8.6-1.2,17.2-0.6,25.8
		c0.3,5.5,0.6,11.1,1.8,16.5c0.7,3.2,1.7,6.4,3.2,9.3c1.5,2.9,3.6,4.3,7,4.5c7.8,0.5,15.5,1.3,23.2,1.9c9.2,0.8,18.3,1.4,27.5,2.3
		c3.1,0.3,5.2-0.8,7.1-3c1.8-2.2,3.1-4.7,4.2-7.3c2.3-5.2,3.8-10.7,4.9-16.2c1.8-8.3,3.1-16.7,3.7-25.1c0.1-1.3,0.4-2.6,0.6-4
		c1-0.1,1.9-0.2,2.8-0.2c6.1,0,12.3,0,18.4-0.1c2.5,0,4.9-0.4,7.4-0.5c0.7,0,1.4,0,2.2,0c0,0.9,0,1.6,0,2.2
		c-0.4,4.7-0.7,9.4-1.2,14.1c-1.5,14.2-7.9,25.8-19.3,34.4c-8.1,6.1-17.4,9.3-27.6,9.6c-3.5,0.1-7.1-0.3-10.6-0.6
		c-7.4-0.6-14.8-1.3-22.2-1.9c-7.3-0.6-14.6-1.2-21.8-2c-20.3-2.2-37.7-17.7-41.9-38.9c-0.9-4.6-1.1-9.3-0.6-14.1
		c0.4-3.9,0.7-7.7,1-11.6C206.7,528.7,206.9,527.6,207,526.3z"/>
	<path class="st0" d="M286.6,537.8c2.9-0.5,24.3,0.5,31.6,1.4c0.6,1,0.3,2.2,0.2,3.3c-0.4,4.1-0.8,8.2-1.5,12.3
		c-1,6.7-2.2,13.5-4.1,20c-1.3,4.5-2.8,9-5.1,13.1c-1,1.7-2.1,3.4-3.7,4.7c-1.1,0.9-2.2,1.2-3.6,1.1c-8.6-0.8-17.1-1.5-25.7-2.2
		c-7-0.6-14.1-1.1-21.1-1.7c-2.1-0.2-4.2-0.5-6.3-0.6c-1.4-0.1-2.4-0.8-3.3-1.8c-1.2-1.6-2.1-3.4-2.8-5.3c-1.3-3.8-2.1-7.7-2.6-11.7
		c-1.1-10-1.1-20-0.4-30c0.2-2.6,0.4-5.1,0.6-7.8c3.8-0.5,7.2,0.7,10.7,0.9c3.6,0.3,7.3,0.7,10.9,1.3c3.5,0.5,7,0.4,10.7,1.3
		c-0.3,0.7-0.5,1.2-0.8,1.7c-4.2,6-7.4,12.6-10,19.4c-0.4,1-0.7,2-1,3c-1.8,6.6,1.9,13.1,8.6,14.7c1.8,0.4,3.7,0.6,5.6,0.6
		c2.9,0,5.9-0.3,8.8-0.5c3.9-0.4,7.2-2,9.9-4.9c1.4-1.6,2.3-3.3,2.2-5.4c-0.2-2.7-0.5-5.4-1-8c-1.2-5.8-3.2-11.3-5.8-16.6
		C287.1,539.3,286.9,538.6,286.6,537.8z"/>
	<path class="st0" d="M281,531c1.2-4,2.4-8,3.6-12.1c0.2-0.8,0.6-1.5,1.4-1.9c4-2,6.1-5.3,7-9.6c0-0.2,0.2-0.4,0.3-0.8
		c1.8-0.5,3.7-0.1,5.5,0c4.3,0.3,8.7,0.7,13,1.1c10.3,0.8,20.7,1.5,31,2.2c1.5,0.1,3.1,0.3,4.5,0.9c5.3,2.2,8.3,6.3,8.5,11.9
		c0.2,4.3-0.6,8.7-1,12.9c-2.5,1.6-5.2,1.6-7.7,1.8c-3.6,0.3-7.3,0.4-10.9,0.5c-13.2,0.2-26.4-0.4-39.5-1.1
		c-3.2-0.2-6.3-0.5-9.5-0.6c-1.3-0.1-2.2-0.5-3-1.6C283.3,533.4,282.3,532.4,281,531z"/>
	<path class="st0" d="M272.3,534.8c-3.4-0.3-6.8-0.5-10.2-0.9c-10.2-1.3-20.3-2.5-30.5-4c-6.5-1-13-2.3-19.4-3.7
		c-2.9-0.6-5.7-1.3-8.4-3.2c0-0.7-0.1-1.5,0-2.3c0.2-3.2,0.4-6.3,0.8-9.5c0.8-6.7,6.5-11.9,13.3-11.8c3.8,0.1,7.5,0.6,11.3,1
		c6.4,0.6,12.9,1.3,19.3,1.9c5.9,0.6,11.7,1.1,17.6,1.6c1,0.1,2,0.4,3.1,0.6c0.1,0.9,0.2,1.5,0.2,2.2c0.2,3.5,1.6,6.4,4.3,8.6
		c1.2,1,1.7,2.1,1.7,3.6c0.1,4.1,0.4,8.2,0.6,12.4C274.7,532.5,273.5,533.6,272.3,534.8z"/>
	<path class="st0" d="M272.3,473.7c0.9,1.8,0.9,1.8,2.9,2.9c-0.5,1-0.9,2.1-1.4,3.1c-1.5,3-2.4,6.2-2,9.5c0.2,1.8,0.8,3.7,1.2,5.8
		c-1.2,1.9-3.3,3.2-5.6,4.2c-3.5,1.5-7.2,2-11,2.2c-1.6,0.1-3.3-0.1-4.9-0.2c-0.4,0-0.8-0.2-1.5-0.4c0.8-0.7,1.4-1.1,2-1.6l-0.1,0.1
		c1.1,0,2-0.3,2.3-1.5L254,498c1.7-0.2,2.3-1.6,2.7-2.9c0.3-1.2,0.7-2.5-0.5-3.6c0,0,0.1,0.2,0.1,0.2c-0.3-0.6-0.5-1.3-0.8-1.9
		c-0.1-0.1-0.2-0.2-0.3-0.3c-0.7-0.8-1.4-1.6-2.6-1.5l0.2,0.1c-0.2-0.2-0.4-0.6-0.7-0.7c-4.5-1.4-8.8-1.3-12.5,2.1
		c-0.1,0.1-0.2,0.2-0.3,0.3c-1.1,0.8-1.6,2-1.8,3.2c-0.3,1.4-0.2,2.7,1.2,3.6l-0.1-0.2c0.5,1.9,1.7,2.9,3.7,2.9l-0.1-0.1
		c-0.4,0.6-1,0.9-1.8,0.9c-1.1-0.1-2.1-0.1-3.2-0.2c-4.2-0.4-8.4-0.9-12.6-1.3c-1.9-0.2-3.3-0.9-4.4-2.5c-1.7-2.6-2.9-5.4-2.7-8.6
		c0-0.9,0-1.9,0-2.8c-0.9-0.7-1.8-1.2-2.6-1.9c-4.2-3.4-5.4-9.1-2.8-13.6c2.6-4.5,7.3-6.6,12.7-5c1.6,0.5,3.1,1.6,4.9,2.6
		c4.8-3,10.2-4.7,16.1-5c5.8-0.2,11.2,0.8,16.2,3.3c6.7-5.1,11.7-5.4,16.2-0.8c-0.4,1.3-0.9,2.6-1.4,3.9c-0.1,0.3-0.3,0.6-0.5,0.9
		c-1,0.2-1.1-0.8-1.6-1.1c-0.6-0.3-1.1-0.9-1.8-1.1c-0.6-0.2-1.4-0.2-2.1-0.2c-0.7,0-1.4,0.1-2.1,0.3c-0.6,0.2-1.1,0.8-1.8,1.3
		c2,2,3.8,3.8,5.6,5.5L272.3,473.7z M220.2,476l-0.1,0.1c1.1-0.4,1.4-1.4,1.9-2.2c0.1-0.1,0.2-0.2,0.3-0.3c0.9-1,2.2-1.8,2.4-3.3
		c-1.3-1-2.6-1.4-4.1-1.1c-1.3,0.3-2.4,0.8-3.3,1.9c-1.7,2.2-1.7,4.8,0.2,7.1c0.4,0.4,0.9,1,1.5,0.5c0.3-0.2,0.4-0.8,0.5-1.2
		l-0.1,0.1C220.1,477.2,220.1,476.6,220.2,476z M265,487.6c0.1-0.1,0.2-0.2,0.2-0.3c-0.1-0.3-0.2-0.7-0.4-0.9
		c-2.2-2-5.6-1.8-7.7,0.5c-0.2,0.2-0.1,0.7-0.2,1.3C260.8,486.6,260.8,486.6,265,487.6z M237.3,489.3c-1.2-2.3-2.7-2.8-4.5-2.8
		c-1.8,0.1-3.5,0.4-4.3,2.4c-0.1,0.1,0.2,0.4,0.3,0.6C232.7,488.1,232.7,488.1,237.3,489.3z M268.2,478.3c-0.7-1.9-0.7-1.9-1.4-2.4
		c-1.5-1.1-3.2-1.8-5.2-1.8c-0.5,0-1.2-0.1-1.4,0.9c1.3,0.3,2.7,0.5,3.9,1C265.4,476.5,266.5,477.3,268.2,478.3z M232.3,476.4
		c-3.5-0.8-7.1,1.3-7.3,4.2C227.2,478.6,229.5,477,232.3,476.4z"/>
	<path class="st0" d="M287.8,437.5c0.6,2.2,0.4,4.3-0.5,6.5c-1.2,2.6-1.2,5.5-1,8.3c0.1,0.9,0.1,1.8,0.3,3.3
		c-3.3-9.3-11.6-9.9-16.3-3.1c-2.7-0.8-5.5-1-8.5,0.3c-0.6-0.7-1.1-1.5-1.7-2.1c-4.4-4.1-11.1-2.4-13.2,3.2
		c-0.4,1.1-0.4,2.3-1.3,3.2c0.4-1.7-0.5-3.1-1.2-4.5c-0.4-2.8-0.8-5.5-1-8.3c-0.2-2.2-0.3-4.4,0.6-6.5c0-0.5,0-1,0-1.4
		c-0.1,0-0.2,0-0.3,0c0.1,0.5,0.2,0.9,0.3,1.4c-0.3,0.3-0.9,0.5-1,0.8c-0.5,4.6-0.6,9.2,0.9,13.7c0,0.1,0.4,0.2,0.6,0.3
		c-0.5,1.7,0.2,3.1,1.2,4.5c0.2,1,0.3,2.1,0.5,3.3c-5.2,0.3-10.2,1.4-15,4c-0.4-0.6-0.7-1.1-0.9-1.6c-4.1-11.3-0.7-23.6,8.7-31.2
		c5.8-4.7,12.4-7.2,19.6-8.3c7.3-1,14.6-0.9,21.7,1.2c7.3,2.1,13.6,5.9,18.2,12.1c1.8,2.5,2.6,4.1,3.3,7.1c-4-1.7-7.9-3.5-12.4-2.9
		c-0.2-0.9-0.4-1.7-0.7-2.4C288.5,438.1,288,437.8,287.8,437.5c0.2-0.8,0.5-1.6-0.7-2c0-0.1-0.1-0.2-0.1-0.3c0-0.1,0.1-0.1,0.2-0.2
		c-0.1,0.2-0.1,0.3-0.2,0.5C287.3,436.1,287.5,436.8,287.8,437.5z M255.6,440.2c-3.4-1.2-6.3,0.1-8.3,3.5c1.9-0.6,2.7-2,4.1-2.4
		C252.7,441,254.1,440.6,255.6,440.2z M275.8,439.6c2.1,0.4,3.5,0.6,4.8,1c1.3,0.5,2.5,1.4,4.1,2.3c-0.9-2.1-1.1-2.5-2.9-3.1
		C280.1,439.2,278.4,438.3,275.8,439.6z"/>
	<path class="st0" d="M320.4,477.5c0.1,0.7,0.3,1.4,0.5,2.2c-0.6,0.6-1.3,1.3-1.9,1.9c-0.4-0.1-0.8-0.2-1.1-0.3
		c-0.9-0.5-1.8-1-2.8-1.5c-0.2-0.1-0.6,0-1.2,0.1c1.1,1.6,3.1,1.6,3.6,2.9c0.2,2.7,0.5,5,0.7,7.3c0,0.3-0.1,0.7-0.2,1
		c-0.7,2-1.3,4-2,6.1c-2.8-0.5-5.6-1.8-8.9-1.4c1.6,1,3.2,0.6,4.6,1.2c1.4,0.5,2.9,0.8,4.4,1.2c1.1,2,2.2,4,3.4,6.2
		c-1.4,1.3-2.9,2.3-4.9,2.2c-7-0.4-14.1-0.9-21.3-1.6c-0.5-3.2-1.7-5.9-3.6-8.4c-0.1-0.2,0.2-0.7,0.4-1.4c-0.9-0.6-2.7,0.5-3.6-1.3
		c0.6-0.1,1-0.1,1.5-0.2c0.4,0,0.9-0.1,1.5-0.1c-0.3-0.3-0.4-0.5-0.6-0.5c-2.2-0.1-4.5-0.3-6.7-0.1c-2.3,0.2-4.6,0.9-7.1,1.5
		c-0.3-0.5-0.8-1.1-1-1.8c-1.5-4.1-0.9-8.2,1.1-12c1-2.1,1.5-4.1,1.8-6.4c0.7-5.2,2.5-10,5.6-14.3c0.7-1,1.3-2,3-2.3
		c4.3,2,7.5,5.4,10.2,9.5c2.9,0.4,5.7,0.5,8.4,1.1c2.7,0.6,5.4,1.7,8.3,2.7c0.8-0.4,1.9-0.9,2.9-1.4c2.8-1.4,5.7-2.2,8.8-2.6
		c1.8-0.3,2.7,0.3,3.1,2.1c0.4,1.8,0.5,3.7,0.6,5.6c0.1,1.1-0.1,1.1-1.9,2.2c-0.4-2.5,0.4-5.2-0.7-7.5c-3.7-0.3-6.3,0.6-10,3.6
		c1.8,1.6,3.2,3.7,5.4,4.8C320.5,477.7,320.4,477.5,320.4,477.5z M284.4,470.4c0.6-0.1,1.3-0.1,1.6-0.8l-0.1,0.1
		c0.6-0.1,1.3,0,1.5-0.8l-0.1,0.1c0.8-0.1,1.7,0.2,2.3-0.8l-0.1,0.1c0.9-0.1,1.8-0.2,2.8-0.3c-0.3-1.5-0.7-2.8-2.1-3.4l0.1,0.1
		c-0.4-1.9-1.9-2.9-3.3-3.9c-1.4-1-2.4-0.8-3.3,0.6c-2,3.1-3.2,6.5-3.4,10.2c0,0.4,0.1,0.8,0.2,1.6c1-0.7,1.6-1.1,2.3-1.6
		c0.1-0.1,0.2-0.2,0.3-0.3c0.5-0.4,1-0.8,1.5-1.2L284.4,470.4z M300.4,492.4L300.4,492.4c-1.2-0.6-2.5-0.8-3.8-0.7
		c-1.2,0.1-1.9,1.2-1.4,2.3c0.4,0.9,1,1.8,1.6,2.7c-0.4,0.3-0.7,0.5-1,0.6c-0.3,0.1-0.7,0.1-1,0c-0.5-0.1-0.9-0.3-1.3-0.5
		c-0.3-0.1-0.6-0.4-0.9-0.5c-0.3-0.1-0.6-0.1-1.3-0.3c1,2.1,1.7,3.9,2.6,5.6c1.2,2.2,2.9,2.6,5,1.2c1.4-0.9,2.7-1.9,4-2.9
		c0.3-0.2,0.5-0.6,1-1.2c-2-0.4-4.2,0.6-5.3-1.8c1.2-1,3.4-1,3.3-3.3C301.4,493.4,300.9,492.9,300.4,492.4z M284,484.9
		c-0.2,0.3-0.3,0.4-0.2,0.5c0.5,1.5,1.6,2.4,3.1,2c2.4-0.5,4.3,0.1,6.2,1.6c0.1,0.1,0.3-0.1,0.6-0.1c0.1-1.2-0.5-2-1.5-2.5
		c-0.9-0.5-1.9-0.9-2.9-1c-1.5-0.1-2.3-0.8-2.9-2.1c0-0.1-0.4,0-0.8,0c0.1,0.8,0.1,1.5,0.2,2.5C285.1,485.5,284.6,485.2,284,484.9z
		 M312.9,492.2c0.5-0.7,0.9-1.1,1.2-1.5c0.3-0.4,0.3-0.9-0.4-1c-0.7,0.4-1.4,0.8-2.1,1.1c-0.9-0.3-1.7-0.6-2.5-0.8
		c-1.4-0.4-2.8-0.2-4,0.7c-0.4,0.3-0.8,0.6-0.4,1c1.3,0,2.4,0,3.6,0c1.4,0.1,2.3,1.1,3.4,1.8c1.1,0.7,2.2,0.3,3.6-1.2
		C314.6,492.2,313.9,492.2,312.9,492.2z M290.4,475c-0.7-0.7-0.8-1-1-1c-2.9-0.5-5.3,0.4-7.4,2.3c-0.2,0.1-0.1,0.6-0.2,1.3
		C284.5,475.8,287,474.9,290.4,475z M281.3,490.1c1.5,0.3,2.9,0.6,4.4,0.9c1.5,0.3,2.8,1.3,5.1,1
		C287.3,490.4,284.4,489.7,281.3,490.1z M305.7,497.4c3.2,1.6,5.7,2.8,8.3,4.1c0.1,0,0.2,0,0.3,0c0.1,0,0.1-0.1,0.2-0.2
		C311.6,498.9,308.9,497.7,305.7,497.4z M308.9,502.7c-0.2-1.6-1.3-2.4-2.3-3.3c-0.4-0.3-0.8-0.9-1.5-0.3
		C306.4,500.3,307.7,501.5,308.9,502.7z"/>
	<path class="st0" d="M119.9,197.7c1.3-0.2,2.5-0.5,3.8-0.7c0.3,0.5,0.6,0.9,0.7,1.3c29.3,96.6,58.6,193.1,87.9,289.7
		c0.1,0.2-0.1,0.4-0.2,0.7c-1.1,0-1.7-0.6-2.1-1.5c-0.3-0.9-0.6-1.8-0.9-2.7c-12.6-40.3-25.2-80.7-37.8-121
		c-7.3-23.5-14.7-47-22-70.5c-9.5-30.5-19.1-60.9-28.6-91.4C120.3,200.4,119.6,199.2,119.9,197.7z"/>
	<path class="st0" d="M273.3,574.3c-1.2-0.1-2.8-0.3-4.4-0.6c-5.9-1-10.5-6.9-8.2-13.8c1.9-5.6,4.3-10.9,7.3-16
		c1.6-2.6,3.3-5.1,5.1-7.6c0.7-1,1.7-2,2.7-2.8c2-1.6,4.3-1.4,6,0.5c1,1.1,2,2.3,2.7,3.7c4.2,7.3,6.9,15.2,8.2,23.5
		c0,0.1,0,0.2,0.1,0.3c0.7,5.3-0.8,8.2-5.6,10.6c-1.6,0.8-3.3,1.3-5,1.5C279.4,573.9,276.6,574,273.3,574.3z"/>
	<path class="st0" d="M469.3,234.3c1.8,0,3.1,0,4.4,0.9c-0.5,1.3-1,2.6-1.6,3.9c-9.9,22.8-19.7,45.6-29.6,68.4
		c-11,25.5-22,51-33,76.5c-11.8,27.3-23.7,54.7-35.5,82c-4.4,10.2-8.8,20.3-13.2,30.5c-0.4,1-0.9,1.9-1.4,2.8
		c-0.2,0.3-0.2,0.3-1.6,0c0-0.2-0.2-0.5-0.1-0.7C395,410.6,432.1,322.5,469.3,234.3z"/>
	<path class="st0" d="M310.9,466c-1,0.5-2,1.1-3,1.6c-3.7-0.6-7.4-1.2-11.2-1.8c-2.1-2.2-4.2-4.5-6.4-6.8c-1-1-1.7-2.3-2.1-3.6
		c-0.8-3.3-0.8-6.5,0-9.8c0.8-2.9,2-3.7,4.9-3.2c3.9,0.7,7.5,2.1,10.5,5c1-0.3,2-0.6,3-1c3.4-1.1,6.8-1.8,10.4-1.5
		c1.5,0.1,3,0.4,4.6,0.7c0.1,1.8,0.2,3.4,0.2,5.1c0.1,2.7,1.1,5,2.3,7.4c0.6,1.2,1.8,2.2,1.9,3.7c0,0.3,0.7,0.5,1,0.8
		c2.8,2.3,5.7,4.5,7.5,7.8c0.2,0.3,0.2,0.7,0.4,1.2c-0.4,0.3-0.9,0.7-1.3,0.9c-1.3,0.5-2.6,1-4.2,1.5c-0.1-0.9-0.3-1.6-0.4-2.4
		c-0.1-0.7-0.1-1.4-0.2-2c1.3-0.8,1.9,0.9,2.9,0.6c0.4-0.6,0.1-1.2-0.4-1.5c-1.8-1.1-3.6-2.2-5.5-3c-0.9-0.4-2.1-0.2-3.1,0
		c-1.7,0.4-3.2,0.2-4.8-0.4c-2-0.8-4.1-0.8-6.2,0c-0.4,0.2-0.7,0.6-1,0.9L310.9,466z M300.1,449.1l-0.1,0.1c0.7-0.1,1.1-0.4,0.9-1.2
		c-1.9-1.6-4.3-2.2-6.7-2.8c-2.2-0.5-3.3,0.1-3.8,2.4c-0.6,2.9-0.6,5.8,0.4,8.6c0.1,0.4,0.4,0.7,0.7,1.2c0.5-0.6,0.8-0.9,1.1-1.2
		c0.1-0.1,0.2-0.2,0.3-0.3c1.4-1.6,2.9-3.2,4.3-4.8c0.2-0.2,0.3-0.3,0.5-0.5C298.9,450.6,299.6,450,300.1,449.1z M299.6,464.8
		c1.5-0.3,2.2-0.6,3-0.6c0.9,0,1.8,0.4,2.7,0.6c0.7,0.2,1,1.3,2.2,0.8c-0.4-1.9-1.7-2.7-3.4-2.9
		C302.5,462.4,300.9,462.5,299.6,464.8z M308.9,459.2c-0.5-2-1.7-2.4-2.8-2.9c-1.6-0.8-3.2-1.1-5.4-0.4c1.4,1,2.8,0.6,3.9,1.1
		C305.9,457.6,307.1,458.3,308.9,459.2z"/>
	<path class="st0" d="M190.9,293.8c2.6,0.7,3.9,2.2,4.2,4.7c0.7,5.7,1.6,11.4,2.4,17.2c1.5,10.6,3,21.2,4.5,31.8
		c1.6,11.2,3.1,22.4,4.7,33.6c1.5,10.7,3.1,21.5,4.6,32.2c1.3,9.2,2.6,18.4,3.9,27.6c0.8,5.8,1.7,11.7,2.5,17.5
		c0.1,0.9,0.3,1.9,0.3,2.8c0,0.8-0.7,1.2-1.7,1.2c-0.1-0.4-0.4-0.9-0.5-1.5c-0.9-6.1-1.9-12.1-2.8-18.2c-1.8-11.9-3.6-23.7-5.4-35.6
		c-1.5-10.4-3-20.7-4.5-31.1c-1.2-8.2-2.5-16.3-3.8-24.4c-1.6-10.5-3.1-21-4.7-31.5c-1-7-2.1-14-3.2-21
		C191.2,297.4,190.9,295.7,190.9,293.8z"/>
	<path class="st0" d="M355.8,459.3c0.2-0.7,0.3-1.5,0.6-2.3c5.8-18.2,11.6-36.3,17.4-54.5c5.5-17.3,11.1-34.5,16.6-51.8
		c4.6-14.3,9.3-28.7,13.8-43.1c0.8-2.7,2.5-4,5-4.7c0.6,1,0,1.7-0.3,2.5c-3.5,10.6-7,21.3-10.5,31.9c-6.3,19.1-12.6,38.2-19,57.3
		c-6.7,20.5-13.5,40.9-20.2,61.4c-0.3,1-0.7,2-1.2,2.9C357.6,459.9,356.8,460,355.8,459.3z"/>
	<path class="st0" d="M343.2,493.7c1,1.1,2.3,1.4,3.7,1.6c1.2,0.1,2.3,0.4,3.5,0.7c1.3-0.4,2.7-0.9,4.3-1.4c1,1.6,1.4,3.2,1.1,5.1
		c-5,1.3-7.9,4.5-9.2,9.4c-1.2-0.1-2.2-0.2-3.2-0.3c-0.9-0.1-1.8-0.2-2.7-0.3c-0.1-2,2.1-2.5,2.6-4.5c-2.1,0.9-3.8,2.7-6.2,1.1
		c1-0.7,1.8-1.3,2.6-2c-0.6-1.6-1.9-1.9-3.1-2.1c-1.1-0.2-2.4-0.4-3.3,1c0.5,0.8,1,1.7,1.6,2.7c-2.6,0.9-3.6-1.3-5.2-2.5
		c-0.3,1.3,0.5,1.9,0.8,2.7c0.3,0.9,0.5,1.7,0.8,2.7c-2.4,0.5-4.4-0.1-6.2-1.3c-2.1-1.4-3.9-3-5.4-5c-1.6-2.3-2.1-4.7-1-7.3
		c0.7-1.7,1.5-3.4,2.7-4.9c0.6-0.7,1-1.5,1.4-2.3c0,0-0.1,0.1-0.1,0.1c0.7-0.4,1.4-0.8,2-1.2c1.2-0.9,2.4-1.8,3.5-2.7
		c1.1-0.9,2.1-0.7,3.2-0.1c0.3,0.3,0.6,0.7,0.9,1c1.6,1.8,3.1,3.6,4.7,5.4c0.6,0.6,1.1,1.1,1.7,1.7c0.9,1.1,1.9,1.9,3.3,2.2
		l-0.2-0.1c0.3,0.8,0.9,0.8,1.6,0.8L343.2,493.7z M333.2,498.6c0.2-0.2,0.3-0.3,0.5-0.5c-0.3-0.4-0.4-1-0.8-1.3
		c-0.7-0.4-1.5-0.7-2.3-0.9c-2.4-0.6-2.4-0.6-4-2c-0.4,0.6-1.1,1.1-1,1.6c0.1,0.5,0.7,1.1,1.3,1.5c0.5,0.3,1.1,0.4,1.7,0.4
		C330.3,497.2,331.8,497.8,333.2,498.6z M348.1,497.2c-1.4,1.1-2.8,1-4.3,0.8c-0.9-0.1-1.8,0.1-2.7,0.3c-0.3,0.1-0.4,0.6-0.8,1.3
		c1.2-0.1,2-0.3,2.8-0.2c0.9,0.1,1.8,0.4,2.7,0.6c0.7,0.1,1.4,0.2,2.1,0c0.5-0.1,1.1-0.7,1.1-1.1C349,498.4,348.5,497.9,348.1,497.2
		z M331,488.2c-2.9,0-4.6,1.1-6,2.7c-0.2,0.2-0.2,0.7-0.2,1.1C326.9,490.8,328.7,489.7,331,488.2z"/>
	<path class="st0" d="M347.9,568.3c0.1-0.5,0.1-0.7,0.1-0.9c2-5.8,2.9-11.9,3.1-18c0.1-2.9,0.4-5.9,0.7-8.8c0.1-0.8,0.4-1.6,0.6-2.4
		c0.6-0.3,1.2-0.5,1.7-0.7c2.5-0.9,3.2-0.8,4.7,1.5c1.1,1.7,2,3.5,2.8,5.3c2.3,5.2,3.8,10.6,4.7,16.2c0.8,5.2-2.4,9.3-7.7,9.8
		C356,570.5,351.5,569.7,347.9,568.3z"/>
	<path class="st0" d="M342,467.8c0.5-0.4,0.8-0.5,1-0.8c2-2.5,4.7-3.9,7.7-4.6c1.5-0.3,3-0.6,4.5-1c2.7-0.6,5.5-1.3,8.2-2
		c1.8-0.5,1.8-0.5,4.3-0.1c0.4,2.7-1.1,4.7-3,6.2c-1.4,1.1-3,1.9-4.6,2.5c-2.5,0.9-5.2,1.7-7.8,2.1c-3,0.5-5.7,1.2-7.7,3.6
		c-2.6-0.4-5-0.7-7.4-1.1c-0.3-0.7-0.6-1.4-0.9-2c-1-2.3-2.4-4.3-4.3-5.9c-2.3-1.9-4.3-4-5.9-6.5c-2.1-3.3-3.7-8.2-2.3-13.1
		c0.8-0.5,1.6-0.3,2.2,0.3c0.7,0.6,1.4,1.3,2,2c2.9,3.8,6.1,7.5,9.5,10.9c0.5,0.5,0.9,1.1,1.4,1.6c1.3,1.7,2.3,3.5,2.7,5.7
		C341.6,466.3,341.8,467,342,467.8z"/>
	<path class="st0" d="M291.7,505.8c-0.1,4-1.7,7.2-5.1,9.4c-4.9,3.2-9.9,1.6-12.8-1.5c-4.9-5-4.1-13.2,1.5-17.3
		c6.3-4.6,15.3-0.6,16.3,7.2C291.7,504.4,291.7,505.1,291.7,505.8z"/>
	<path class="st0" d="M205.4,558.3c-3.4,0.6-6.4,0.6-9.5,0.3c-0.8-0.1-1.6-0.4-2.3-0.7c-3.9-1.9-5.4-5.9-4.2-9.4
		c2.2-6.8,5.4-13,9.6-18.7c0.6-0.7,1.2-1.4,1.9-2.1c0.7-0.7,1.6-0.9,2.6-0.9c1.3,0.1,2,0.7,1.9,2c-0.1,1.9-0.2,3.8-0.4,5.6
		c-0.2,3.2-0.6,6.3-0.7,9.5c-0.2,4,0,8,0.8,11.9C205.3,556.6,205.3,557.3,205.4,558.3z"/>
	<path class="st0" d="M462.9,265.2c0-0.6-0.1-1,0-1.3c4.1-9.6,8.3-19.2,12.4-28.8c2.7,0,5.1,0.5,7.5,0.8c2.3,0.4,4.6,0.8,7.2,1.2
		c-0.4,0.7-0.6,1.4-1,1.8c-4.5,5.6-9.3,10.9-14.5,15.9c-3.1,3-6.4,5.9-9.6,8.8C464.4,264.2,463.7,264.6,462.9,265.2z"/>
	<path class="st0" d="M356.9,520.1c-2.9-6.3-3.4-6.9-8.7-10.3c-0.6-2.1,0.6-3.8,1.8-5.3c1.7-2.3,4.1-3.4,7-3.6
		c5.3-0.3,10.1,4,10.2,9.5c0.1,2.7-0.9,5.1-2.8,7C362.4,519.2,360,520.4,356.9,520.1z"/>
	<path class="st0" d="M214.5,498.1c-6.2,3.1-6.2,3.1-10.4,8.9c-6.2-0.4-9.3-6.6-8.5-10.8c0.8-4.6,5-8.9,11-8.2
		C211.4,488.6,214.9,493,214.5,498.1z"/>
	<path class="st0" d="M332.2,483.8c-0.3-0.3-0.6-0.7-0.9-1c-0.4-0.7-0.8-1.4-1.3-2.3c4.6-1.6,8.8-1.1,12.7,1.5
		c1.9,1.2,3.3,2.9,4.7,4.7c1.1,1.5,2.3,2.9,4,3.7c0,0,0.1,0.1,0.1,0.1c0.3,0.6,0.6,1.2,1,1.7c0.3,0.4,0.8,0.7,1.3,1.2
		c-1,1.2-2.1,1.1-3.3,1c-1.2-1.3-2-3.4-4.8-3.6c1.2,1.2,2.1,2.2,3.1,3.2c-2.2,1.3-4-0.4-5.8-0.3c0,0,0.1,0.1,0.1,0.1
		c-0.3-0.8-0.9-0.8-1.6-0.8c0,0,0.2,0.1,0.2,0.1c-0.8-1.2-1.7-2.2-3.3-2.2c-0.6-0.6-1.1-1.1-1.7-1.7
		C336.2,486.6,334.5,485,332.2,483.8z"/>
	<path class="st0" d="M255.2,489.5c0.1,0.1,0.2,0.2,0.3,0.3c0,0.7-0.1,1.5,0.8,1.9c0,0-0.1-0.2-0.1-0.2c0.3,2.1-0.2,4-1.7,5.7
		c-0.2,0.2-0.3,0.6-0.5,0.9l0.1-0.1c-1,0.2-1.8,0.6-2.3,1.5c0,0,0.1-0.1,0.1-0.1c-0.2,0-0.5-0.1-0.7,0c-3.1,1.2-6.2,0.8-9.3,0
		c0,0,0.1,0.1,0.1,0.1c-1.2-1-2.4-2-3.7-2.9l0.1,0.2c-0.6-2-0.6-4,0.6-5.9c0.2-0.3,0.1-0.7,0.1-1c0.1-0.1,0.2-0.2,0.3-0.3
		c1,0.2,1.8-0.5,2.6-0.9c2.7-1.4,5.6-1.7,8.6-0.9c0.7,0.2,1.4,0.2,2.1,0.4c0,0-0.2-0.1-0.2-0.1C253.2,489.1,254,489.6,255.2,489.5z
		 M242.4,495.1c-0.8,0.8-0.4,1.4,0.1,1.8c3.2,2.9,8.1,2.1,10.5-1.6c0.1-0.1-0.1-0.4-0.3-0.7c-1.7,0.6-3.4,1.3-5.1,1.8
		C245.8,496.9,244.1,495.8,242.4,495.1z M246.8,493.8c0.7-0.2,1.6-0.3,2.2-0.8c0.5-0.3,1.1-1,1.1-1.6c0.1-0.8-0.4-1.5-1.2-2
		c-1.4-0.8-2.7-0.7-4,0.1c-0.5,0.4-1,1-1.2,1.6c-0.2,0.9,0.4,1.6,1.2,2C245.6,493.4,246.1,493.5,246.8,493.8z"/>
	<path class="st0" d="M351.7,490.5c0,0-0.1-0.1-0.1-0.1c-0.8-1-1.6-2-2.4-3c-0.8-1-1.6-2-2.4-3c-4-4.8-9.2-6.3-15.2-5.2
		c-0.9,0.2-1.8,0.3-3,0.6c0.8-1.5,2-2,3.2-2.4c6.3-2.1,12.3-1.3,17.8,2.4c1.2,0.8,2.1,1.8,2.7,3.2c0.3,0.8,0.7,1.5,1,2.2
		c0.9,2.3,2.4,4,4.8,4.8c0.2,0.1,0.3,0.3,0.4,0.5c-1.9,2.5-2.4,2.7-4.8,1.5C352.9,491.5,352.3,490.9,351.7,490.5z"/>
	<path class="st0" d="M260.7,457.1c-0.2,0.6-0.5,1.8-1.1,2.9c-0.8,1.5-1.7,1.8-3.5,1.4c-1.7-0.3-3.4-0.7-5.2-0.9
		c-1-0.1-1.8-0.6-2.2-1.5c-1-2.2-0.4-5.1,1.3-6.9c1.7-1.8,4.5-2.4,6.8-1.4C259.1,451.6,260.7,453.9,260.7,457.1z M250.9,457
		c1.4-0.3,2.5-0.8,3.6-0.8c1.2,0,2.4,0.4,4,0.7c-1.3-2-2.7-2.6-4.5-2.3C252.7,454.8,251.4,455.2,250.9,457z"/>
	<path class="st0" d="M279.2,461.8c-2.1-0.9-3.9-1.6-5.7-2.4c-1-0.4-1.5-1-1.7-2.1c-0.6-3.5,1.2-6.7,4.4-7.4
		c3.3-0.8,6.4,0.8,7.6,4.1c0.2,0.5,0.3,1.1,0.4,1.7C282.5,457.7,280.9,459.7,279.2,461.8z M274.1,456.6c1.6-0.4,2.7-0.8,3.8-1
		c1.2-0.3,2.3,1,3.7,0.5c-0.8-1.8-2.2-2.2-3.8-2.1C276.3,454.1,274.9,454.5,274.1,456.6z"/>
	<path class="st0" d="M346.1,455.5c-2.1-1.7-4.6-1.1-7-1.1c-0.8,0-1.6,0.3-2.4,0.3c-0.5,0-1-0.5-1.5-0.8c0.3-0.4,0.5-0.8,0.7-0.9
		c3.9-1.5,7.8-1.5,11.7-0.4c1.8,0.5,2.5,1.4,2.4,3.4c-0.1,1.4-0.4,2.8-0.7,4.1c-0.3,1.3-1.3,1.8-2.9,1.9c0.1-1.6,0.6-3,0.8-4.5
		c0.1-0.9,0.1-1.9-1.2-2.2L346.1,455.5z"/>
	<path class="st0" d="M260.5,463.4c0.4-1.3,0.4-1.9,0.7-2.3c0.8-1.6,1.5-3.2,1.3-5c-0.1-1.3,0.7-1.9,1.8-2.3
		c1.8-0.6,3.4-0.4,5.3,0.7c0.2,1.3,0.4,2.7,0.6,4.2c-1.7,0.6-3.3,0.9-4.8,1.6C263.9,461,262.6,462,260.5,463.4z"/>
	<path class="st0" d="M320.4,477.5c0,0,0.1,0.1,0.1,0.1c-1.3-1.5-2.6-3-3.9-4.5c2.2-2.1,2.4-2.2,7.3-3.3c0.3,0.5,0.8,1.1,0.8,1.7
		c0.1,1.5,0.1,3,0,4.6c0,1.1-0.2,2.1-1.4,2.6C321.9,479.3,321.1,478.6,320.4,477.5z"/>
	<path class="st0" d="M346,455.4c0.4,2.3,0.2,4.4-0.9,6.5c-0.5,1-0.8,2.3-2,2.5c-1.7-2.8-3.3-5.4-5.1-8.3c0.5-0.2,1-0.6,1.5-0.6
		c1.4-0.1,2.8,0,4.2,0c0.8,0,1.6,0.1,2.4,0.1C346.1,455.5,346,455.4,346,455.4z"/>
	<path class="st0" d="M272.5,473.8c-0.1-1.2-1.1-1.8-1.7-2.6c-0.7-0.9-1.6-1.7-2.3-2.5c0.3-1.3,1.2-1.2,2-1.3c1.1-0.2,2.1,0.3,3,0.9
		c0.9,0.6,1.4,1.6,1.7,2.6c0.3,1,0.1,1.7-1,3.7c-0.6-0.3-1.2-0.6-1.7-0.9C272.3,473.7,272.5,473.8,272.5,473.8z"/>
	<path class="st0" d="M215.7,485.9c0.5,4.7-0.6,3.6,3.1,11.8c-0.2,0.1-0.4,0.3-0.6,0.3c-0.3,0-0.7,0-1.3-0.1
		c-1.4-4.2-2.9-8.5-3.9-13C214.4,484.6,214.8,485.7,215.7,485.9z"/>
	<path class="st0" d="M310.7,466.1c0.7-0.1,1.3-0.2,2-0.4c2-0.5,2.7-0.4,5.3,0.7c-1.8,1.4-4,1.9-5.9,3.2c-0.9-0.4-1.8-0.8-3-1.3
		c0.7-0.9,1.2-1.6,1.7-2.3C310.9,466,310.7,466.1,310.7,466.1z"/>
	<path class="st0" d="M330.3,476.3c4.6-3.4,12.1-3.4,16.1,0.1C337.8,474.9,339.3,474.7,330.3,476.3z"/>
	<path class="st0" d="M328.8,481.4c-2.2,0.6-4,1-5.8,1.6c-1.9,0.7-2.6,2.6-3.7,4.7c-0.6-3.3,0.8-5.1,2.9-6.6c1.2-0.9,2.6-1,4-1
		C326.9,480.1,327.3,480.3,328.8,481.4z"/>
	<path class="st0" d="M200,507.7c0.3,0.2,0.8,0.4,0.8,0.6c0.6,5.1,1.1,10.3,1.6,15.4c0,0.4-0.1,0.9-0.2,1.6
		c-0.3-0.6-0.6-0.8-0.6-1.1c-0.7-5.1-1.3-10.3-2-15.4C199.6,508.5,199.9,508.2,200,507.7z"/>
	<path class="st0" d="M277,517.6c1,3,1.4,10.9,0.7,13.1c0,0.1-0.4,0.1-0.8,0.3c-0.1-0.9-0.2-1.8-0.2-2.7c0-0.9,0-1.9,0-2.8
		c0-0.9-0.1-1.9-0.1-2.8c-0.1-0.9-0.2-1.9-0.2-2.8C276.3,519.2,275.7,518.1,277,517.6z"/>
	<path class="st0" d="M283.4,518.2c-0.2,2.4-2.1,9.1-3.5,12.7c-0.5,0.1-1-0.1-0.8-0.7c1-3.6,1.9-7.3,3-10.9
		C282.2,518.8,282.4,517.9,283.4,518.2z"/>
	<path class="st0" d="M357.9,535c-0.6-3.4,0.6-6.4,1.2-9.5c0.3-1.4,0.5-2.9,1.6-4.2c0.2,0.4,0.3,0.7,0.3,0.8
		c-0.1,0.7-0.3,1.4-0.5,2.1C359.7,527.8,358.8,531.4,357.9,535z"/>
	<path class="st0" d="M358.9,521.6c-0.2,2.8-1.2,5.2-2.1,7.8c0-0.5-0.1-1-0.1-1.4c0.1-1.8,0.2-3.7,0.4-5.5
		C357.1,521.5,357.7,521.3,358.9,521.6z"/>
	<path class="st0" d="M353.8,472c-0.6,1.9-0.9,3.7-1.8,5.3c-1.2-0.2-1.7-0.9-1.5-1.7c0.1-1,0.5-2,1-3
		C351.8,471.8,352.6,471.6,353.8,472z"/>
	<path class="st0" d="M270.7,499.7c-0.6,1.5-0.9,2.3-1.2,3.2c-1.6,0.1-3.1,0.1-4.6-0.3c0.1-0.4,0.2-0.7,0.3-0.8
		C266.8,501.1,268.4,500.5,270.7,499.7z"/>
	<path class="st0" d="M278.8,518c0.7,0.2,1.4,0.2,1.9,0.5c0.2,0.1,0.3,0.9,0.2,1.3c-0.5,1.6-0.6,3.4-1.9,5.2
		c-0.1-1.1-0.3-1.9-0.3-2.6C278.7,521,278.3,519.6,278.8,518z"/>
	<path class="st0" d="M322.7,486.7c-0.3,0.1-0.6,0.1-0.9,0.2c-0.2,0.1-0.4,0.2-0.6,0.2c-0.3-0.7,0.1-1.3,0.5-1.8
		c0.8-1,1.8-1.7,3.3-2.1c-0.3,1.7-2.4,1.9-2.4,3.5C322.6,486.8,322.7,486.7,322.7,486.7z"/>
	<path class="st0" d="M203,514.4c-1-2.2-1.4-3.9-1.1-6.1c0.6,0.1,1.1,0.1,1.8,0.2C203.4,510.4,203.2,512.1,203,514.4z"/>
	<path class="st0" d="M349.6,473.3c-0.1,1.1-0.5,1.6-1.2,1.4c-0.4-0.1-0.8-0.5-0.9-0.9c-0.1-0.6,1-1.4,1.7-1.1
		C349.4,472.7,349.5,473.1,349.6,473.3z"/>
	<path class="st0" d="M319.6,506.8c1.3-1.3,1.3-1.3,2.9,0.1C321.4,507.3,320.5,507.2,319.6,506.8z"/>
	<path class="st0" d="M334.7,507.1c-0.1-0.3-0.3-0.5-0.3-0.8c0-0.1,0.5-0.3,0.5-0.3c0.2,0.2,0.4,0.5,0.5,0.7
		C335.2,506.9,335,507,334.7,507.1z"/>
	<path class="st0" d="M337.2,507c-0.3,0.1-0.6,0.2-0.9,0.2c-0.1,0-0.2-0.3-0.2-0.5c0.3-0.1,0.5-0.2,0.8-0.2
		C337,506.4,337.1,506.8,337.2,507z"/>
	<path class="st0" d="M396.4,661.6c2.4-1,4.9-1.4,7.5-1.7c0.7-0.1,1.4-0.1,2.1-0.1c1.7,0,3.1-0.6,4.4-1.8c4.4-4.1,9.5-6.8,15.5-8
		c7.4-1.5,14.5-0.6,21.5,2c3.8,1.4,7.3,3.4,10.5,5.8c0.6,0.5,1.3,0.9,2.1,1.5c0.6-0.8,1.3-1.4,1.8-2.2c3.6-4.9,7.4-9.4,11.6-13.8
		c13.7-14.5,37.7-12.5,49.9,3.7c2.3,3.1,3.8,6.5,4.5,10.3c0.3,1.3,0.5,2.5,0.8,4c0.5,0.2,1.1,0.6,1.8,0.8c9.8,3.1,14.7,13,13.5,21.2
		c-0.1,0.3,0,0.7,0.1,0.9c2,0.8,4.1,1.4,5.8,2.5c1.6,1.1,2.9,2.7,4.3,4.1c2-0.1,4.1-0.4,6.1-0.3c2.2,0.1,3.8,1.7,5.4,3
		c1.9-0.9,3.7-1.8,5.6-2.5c6-2.3,11.6-1.6,16.5,2.6c3.2,2.7,5,6.2,5.8,10.3c2,9.5-3.3,17.5-9.7,21.5c-3.3,2.1-6.9,3.6-10.7,4.4
		c-11.8,2.7-23.8,4.8-35.9,6c-8.6,0.9-17.1,1.7-25.7,2.5c-5.6,0.5-11.3,0.8-16.9,1c-10.4,0.4-20.7,0.7-31.1,0.9
		c-9.2,0.2-18.4,0.3-27.6,0.2c-10.7-0.1-21.4-0.5-32.1-0.9c-6.9-0.2-13.9-0.5-20.8-1c-8.3-0.5-16.7-1.2-25-1.9
		c-7.3-0.6-14.5-1.4-21.8-2.3c-11.1-1.3-22.2-3-33.1-5.3c-4.8-1-9.7-2.1-14.4-3.3c-4.1-1-8.1-2.6-11.6-5.1
		c-5.1-3.7-8.5-8.5-9.2-14.8c-0.7-6.1,1.1-11.5,5.3-15.9c4.4-4.5,9.9-5.7,15.9-3.8c2.6,0.8,4.9,2.1,7.7,3.4c1.4-1.1,3.1-2.4,5.3-2.7
		c2.2-0.3,4.2,0.2,6.2,0.9c0.7-0.8,1.2-1.7,1.9-2.2c1.4-1.1,2.2-2.4,1.6-5.1c1,1.2,1.4,1.7,1.8,2.3c3,4.8,7.4,7.4,12.9,8.5
		c1.7,0.4,3.5,0.5,5.2,0.8c1.1,0.2,2.3,0.5,3.4,0.7c0.5,3.3,1,6.5,1.6,9.6c0.4,2.4,1.2,4.8,2.3,7c2.1,4.2,5.4,7,10,8.2
		c2.7,0.7,5.5,1.2,8.4,0.9c4.9-0.4,8.7-2.7,11.6-6.6c1.5-2.1,2.7-4.4,4-6.6c0.9-1.5,1.7-3.1,2.4-4.5c1.5-0.5,2.8,0,4,0.1
		c3,0.3,6.1,0.8,9.1,0.8c6.8,0.2,12-2.9,15.5-8.8c1.1-1.8,2-3.8,2.7-5.8c1.7-5.1,1-10-1.8-14.6c-1.9-3-4.4-5.5-6.8-8.1
		C397.6,663.5,396.6,662.9,396.4,661.6z"/>
	<path class="st0" d="M374.9,698.7c-1.2,2.2-2.1,4.1-3.2,6c-1.2,2-2.3,4.1-3.7,6c-3.8,5.1-8.9,7.1-15.2,6c-2.1-0.4-4.2-0.9-6.1-1.8
		c-4-1.8-6.3-5.2-7.6-9.3c-0.8-2.5-1.2-5-1.7-7.6c-0.4-2.2-0.6-4.4-1-6.7c-1.6-0.7-3.3-0.8-4.9-1c-2.2-0.3-4.5-0.6-6.6-1.2
		c-7.5-2.2-12.2-8.1-13-15.9c-0.6-6.6,1.8-11.8,7-15.7c2.9-2.2,6.1-4,9.5-6.1c0.1-2.1-0.3-4.6-0.5-7c-0.2-2.2-0.2-4.4,0.1-6.7
		c1.1-7.2,5.4-11.6,11.9-14c6.4-2.4,12.3-1.2,17.5,3.1c1.3,1,2.4,2.2,3.6,3.4c1.3,1.3,2.6,2.7,4,4.2c0.9-0.4,1.8-0.6,2.6-1
		c2-1,3.9-2.1,6-3.1c2.4-1.2,5-2.1,7.6-2.7c3-0.6,5.9-0.3,8.6,1c4.2,2,7.3,5.2,9.3,9.3c1.5,3.1,1.7,6.4,0.7,9.7
		c-0.7,2.4-1.7,4.6-2.7,6.9c-1,2.3-2.2,4.4-3.3,6.6c0.9,1.7,2.3,2.8,3.4,4.1c2,2.3,4.1,4.5,6,7c2.7,3.7,3.6,7.9,2.6,12.4
		c-0.3,1.5-0.8,3-1.5,4.3c-1.6,3.2-3.4,6.2-6.5,8.2c-3.8,2.6-8.1,3-12.5,2.6c-2.3-0.2-4.7-0.7-7-1
		C377.4,698.9,376.3,698.8,374.9,698.7z"/>
	<path class="st0" d="M468.5,336c3.7-0.1,6.9,1.2,9.7,3.2c2.5,1.8,4.7,3.9,6.6,6.3c1.3,1.6,2.6,3.3,4,5c2.1,2.6,2.6,2.7,5.8,1.6
		c1.6-0.5,3-1.3,4.6-1.8c2.4-0.8,4.9-1.7,7.4-2.4c1.6-0.4,3.2-0.6,4.9-0.6c5.7,0,9.8,3.4,10.8,9.1c0.5,2.8,0.4,5.7-0.5,8.4
		c-1.2,3.7-2.6,7.3-3.9,11c-0.5,1.3-1.1,2.6-1.6,3.9c-0.9,2.3-0.8,4.6,0.6,6.7c1.1,1.7,2.3,3.3,3.4,5c2,3.1,4.1,6.1,5.9,9.2
		c1.3,2.2,2.2,4.7,2.5,7.3c0.6,5.1-2.1,9.4-7.1,10.7c-2,0.5-4.2,0.8-6.3,0.7c-4-0.3-7.9-1-11.9-1.6c-1.4-0.2-2.6-0.8-3.7-1.9
		c-2.1-2.1-5.7-2.2-8.2-0.7c-1.5,0.9-2.5,2.1-2.7,3.9c-0.1,0.8-0.5,1.6-0.9,2.2c-2.3,3.1-4.7,6.2-7.1,9.2c-1.3,1.5-2.7,3-4.2,4.3
		c-5.5,4.9-14.5,2.7-17.3-4.9c-1-2.8-1.4-5.7-1.5-8.7c-0.2-2.7-0.4-5.4-0.6-8.1c-0.3-4.5-2.5-7.8-6.5-9.8c-2.5-1.3-5.1-2.4-7.6-3.7
		c-3-1.6-6.1-3.1-9-4.8c-1.5-0.9-2.8-2.2-3.9-3.5c-3.2-3.8-2.9-8.2,0.7-11.7c2.3-2.2,5-3.5,7.8-4.7c3.3-1.3,6.6-2.4,10-3.6
		c1.7-0.6,3.3-1.2,5-1.8c1.5-0.6,2.3-1.6,2.1-3.3c-0.2-1.9-0.2-3.8-0.4-5.6c-0.4-3.9-0.8-7.8-0.3-11.6c0.3-2,0.8-3.9,1.4-5.8
		c1-3,3.2-4.9,6.1-6C464.4,336.4,466.5,335.9,468.5,336z"/>
	<path class="st0" d="M519.5,375.6c0.4-1.2,0.9-2.5,1.4-3.7c1.5-3.7,2.8-7.5,2.9-11.6c0.1-3.5-0.5-6.8-2.6-9.7
		c-2.2-2.9-5.1-4.5-8.7-4.7c-3-0.2-5.9,0.2-8.7,1.2c-2.9,1-5.7,2.1-8.6,3.2c-1.1,0.4-2.2,0.8-3.3,1.1c-1.8-1-2.6-2.4-3-4.3
		c-1.9-9.3-0.2-18.1,4.8-26.1c7-11.1,17.2-17,30.3-17.3c15.9-0.4,29,9.3,34.5,23.1c6.5,16.3,0.2,35.5-15.6,44.7
		c-6.9,4.1-14.5,5.5-22.4,4.7c-0.2,0-0.5-0.1-0.7-0.2C519.8,376,519.8,375.9,519.5,375.6z"/>
	<path class="st0" d="M544.5,377.9c-2.8,4-4.8,4.6-9.5,2.9c-0.1-0.3-0.2-0.6-0.2-1c0.2-1,0.4-2.1,0.6-3.1c1.6-0.7,3.1-1.3,4.7-2
		C541.7,375.4,543,376.6,544.5,377.9z"/>
	<path class="st0" d="M497.6,430.6c-1.6,0.3-3.1,0.2-3.9-1.4c-0.6-1.1,0.3-2.7,1.9-3.7c1.6-1.1,3.4-1.5,5.3-1.2
		c1,0.2,1.8,0.7,2.1,1.7c0.3,0.9,0,1.6-0.9,2.2c-0.4-0.8-0.5-2-1.7-2.2c-1.2-0.3-2.3,0.1-3.4,0.7c-0.8,0.4-1.2,1.1-1.2,2
		c0,1.1,0.8,1.3,1.6,1.5C497.5,430.3,497.5,430.5,497.6,430.6z"/>
	<path class="st0" d="M490.8,420.2c-0.8-1.4-0.3-2.2,0.3-2.9c0.8-1.1,2.1-1.5,3.3-1.7c1.5-0.3,2.8,0.1,4,0.9c1,0.7,1.5,1.7,1.6,3.2
		c-0.5-0.3-0.8-0.4-1-0.6c-2.3-2.5-4.7-2.7-7.2-0.4C491.5,419.1,491.2,419.6,490.8,420.2z"/>
	<path class="st0" d="M546.5,377.7c0.4,2.5-0.8,3.6-2.2,4.6c-1.6,1.1-3.3,1.7-5.2,1.8c-1.5,0.1-3,0-4.6-1.4c2.6,0.1,4.9,0.8,7.1-0.2
		C543.7,381.7,545,379.9,546.5,377.7z"/>
	<path class="st0" d="M497.7,420c-3.8-0.2-3.8-0.1-4.8,2.8c-0.9-0.2-1.1-0.8-0.9-1.5c0.7-2.2,2.5-3.1,4.7-2.5
		c0.2,0.1,0.4,0.2,0.6,0.4C497.4,419.3,497.5,419.5,497.7,420z"/>
	<path class="st0" d="M497.2,422.9c-0.2,0.2-0.5,0.5-0.8,0.6c-0.6,0.2-1.3,0.9-1.8,0.1c-0.3-0.6-0.3-1.4,0.3-1.9
		c0.5-0.5,1.2-0.4,2.1,0.6C497.1,422.3,497.1,422.6,497.2,422.9z"/>
	<path class="st0" d="M497.6,428.1c0.6-0.2,1.2-0.5,1.9-0.7C499.3,428.5,499.3,428.5,497.6,428.1z"/>
	<path class="st0" d="M17.5,449c3.1-1.5,3.1-1.5,6.3-1.1c2.1-1.2,4-2.3,6.2-3.6c0.2-5.9,3.1-10.1,9.4-11.7c0.2-0.7,0.4-1.4,0.6-2.1
		c1.8-6.2,6.3-9.9,12.3-11.6c7.1-2,13.3,0,18.3,5.4c1.6,1.7,2.9,3.7,4.3,5.6c0.9,1.2,1.7,2.5,2.7,3.9c0.9-0.5,1.7-0.9,2.5-1.4
		c5.4-3,11-4,17-2.4c2.8,0.8,5.3,2.1,7.3,4.1c1.3,1.4,2.8,2.1,4.6,2.2c1,0.1,2,0.5,3.4,0.8c-0.7,0.8-1.1,1.3-1.5,1.8
		c-0.9,0.9-1.9,1.8-2.7,2.8c-3.2,3.6-3.5,7.6-1.7,11.9c1.3,3.2,3.5,5.7,7,6.5c1.5,0.3,3,0.3,4.6,0.4c1.5,0.1,3,0,4.7,0
		c0.7,1.5,1.3,3,2.2,4.4c0.8,1.3,1.6,2.7,2.6,3.7c4.2,4.2,14.3,3.5,16.8-3.8c0.8-2.3,1.4-4.7,2.2-7.3c0.8-0.1,1.7-0.4,2.6-0.4
		c3.7-0.1,6.9-1.3,9.5-4.4c0.8,0.7,1.6,1.4,2.6,2.1c2.1-0.1,4.6-0.5,6.1,1.7c1.2-0.5,2.1-0.9,3-1.2c8.5-3.1,13.6,4.4,12.7,10.5
		c-0.5,3.8-2.5,6.6-5.7,8.5c-1.7,1-3.6,1.8-5.5,2.2c-4.1,0.9-8.3,1.6-12.5,2.1c-9.5,1.2-19,1.5-28.6,1.8c-14.6,0.5-29.2,0-43.8-0.9
		c-9.3-0.6-18.6-1.3-27.8-2.2c-14.2-1.5-28.3-3.5-42.1-7.1c-2.7-0.7-5.4-1.6-8-2.7c-2.7-1.1-4.8-3-6.1-5.6c-2-3.9-1.8-7.7,0.5-11.4
		c2-3,6.4-5.3,11.2-3.1C15.4,447.9,16.4,448.4,17.5,449z"/>
	<path class="st0" d="M131.3,423.7c0.9-0.8,1.7-1.5,2.5-2.2c1-0.8,2-1.7,3-2.4c5.9-3.7,12.9,0.5,14.4,5c0.4,1.2,0.6,2.5,0.6,3.8
		c0,2.1-0.3,4.2-0.5,6.5c0.5,0.4,1.1,0.9,1.8,1.4c0.9,0.6,1.8,1.2,2.6,1.9c4.5,3.7,5.3,9,2.1,13.8c-1.5,2.3-3.7,3.6-6.4,4
		c-1.9,0.3-3.7,0.4-5.5,0.7c-1,0.8-0.9,1.9-1.2,2.9c-0.5,1.7-0.8,3.4-1.5,5.1c-1.3,3.4-3.9,5.2-7.5,5.6c-3.7,0.4-6.7-0.8-8.8-4
		c-0.6-1-1.1-2.1-1.6-3.1c-0.6-1.1-1.1-2.3-1.7-3.5c-1.3,0-2.4,0-3.6,0c-0.9,0-1.9,0.1-2.8,0.1c-6.7,0.3-9.9-5-10.4-9.8
		c-0.2-2.2,0.3-4.3,1.8-5.9c1.4-1.6,3-3,4.5-4.5c1.2-1.2,1.3-1.5,0.7-3.1c-0.7-1.8-1.4-3.5-2-5.3c-2.4-6.7,5.9-13.4,11-11.3
		c1.7,0.7,3.4,1.5,5.1,2.3C129,422.3,130.1,423,131.3,423.7z"/>
	<path d="M252.5,188.7c-0.3-24.4,17.1-48.4,43.7-54.9c24.1-5.9,48.9,3.4,63.2,24.9c4.8,7.2,7.9,15,9,23.6
		c2.6,20.3-3.4,37.8-18.5,51.7c-11,10.1-24.4,15.2-39.3,14.8c-22.1-0.6-38.9-10.7-50.3-29.6C254.9,210.2,252.4,200.4,252.5,188.7z
		 M253.8,190.2c-0.1,29.1,23.3,57,57.2,57.2c30.4,0.2,56.5-23.8,56.7-56.2c0.2-32.6-26.2-57.6-57.4-57.7
		C279.4,133.5,253.7,158.5,253.8,190.2z"/>
	<path class="st0" d="M222.2,473.6c-0.1,0.1-0.2,0.2-0.3,0.3c-1.1,0.3-1.6,1.1-1.9,2.2c0,0,0.1-0.1,0.1-0.1
		c-0.3,0.5-0.5,1.1-0.8,1.6c0,0,0.1-0.1,0.1-0.1c-0.9,0.2-1.6,0.1-2.1-0.8c-0.9-1.8-0.6-3.9,0.9-5.2c0.7-0.6,1.6-1,2.5-1.3
		c0.9-0.3,1.9-0.2,2.6,0.6C223,471.7,222.6,472.6,222.2,473.6z"/>
	<path d="M222.2,473.6c0.4-0.9,0.7-1.9,1.1-2.9c-0.7-0.7-1.7-0.9-2.6-0.6c-0.9,0.3-1.8,0.7-2.5,1.3c-1.5,1.3-1.7,3.4-0.9,5.2
		c0.4,0.9,1.2,1,2.1,0.8c-0.2,0.4-0.2,1-0.5,1.2c-0.6,0.5-1.1-0.1-1.5-0.5c-1.9-2.3-2-4.8-0.2-7.1c0.8-1.1,2-1.7,3.3-1.9
		c1.4-0.3,2.8,0.1,4.1,1.1C224.4,471.8,223.1,472.5,222.2,473.6z"/>
	<path d="M265,487.6c-4.3-1-4.3-1-8.1,0.6c0.1-0.5-0.1-1,0.2-1.3c2.1-2.3,5.5-2.5,7.7-0.5c0.2,0.2,0.3,0.6,0.4,0.9
		C265.2,487.4,265.1,487.5,265,487.6z"/>
	<path d="M237.3,489.3c-4.6-1.2-4.6-1.2-8.6,0.2c-0.1-0.2-0.3-0.4-0.3-0.6c0.8-1.9,2.5-2.3,4.3-2.4
		C234.6,486.4,236.2,487,237.3,489.3z"/>
	<path d="M268.2,478.3c-1.7-1-2.8-1.9-4-2.4c-1.2-0.5-2.6-0.7-3.9-1c0.2-1,0.8-0.9,1.4-0.9c1.9,0,3.6,0.7,5.2,1.8
		C267.4,476.4,267.4,476.4,268.2,478.3z"/>
	<path d="M252.8,488.1c-0.7-0.1-1.4-0.2-2.1-0.4c-3-0.8-5.8-0.5-8.6,0.9c-0.8,0.4-1.6,1.1-2.6,0.9c3.7-3.4,8-3.5,12.5-2.1
		C252.3,487.5,252.5,487.9,252.8,488.1z"/>
	<path d="M232.3,476.4c-2.8,0.6-5.1,2.2-7.3,4.2C225.1,477.7,228.8,475.6,232.3,476.4z"/>
	<path d="M239.3,489.8c0,0.3,0,0.7-0.1,1c-1.1,1.9-1.1,3.8-0.6,5.9c-1.4-0.9-1.5-2.2-1.2-3.6C237.7,491.8,238.1,490.6,239.3,489.8z"
		/>
	<path d="M254,498c0.2-0.3,0.3-0.6,0.5-0.9c1.4-1.6,2-3.5,1.7-5.7c1.2,1,0.8,2.4,0.5,3.6C256.3,496.4,255.7,497.8,254,498z"/>
	<path d="M238.5,496.5c1.2,1,2.4,2,3.7,2.9C240.2,499.4,239,498.4,238.5,496.5z"/>
	<path d="M255.2,489.5c-1.2,0.1-2-0.4-2.6-1.5C253.8,487.9,254.5,488.7,255.2,489.5z"/>
	<path d="M220.1,476.1c0.2-1.1,0.7-1.9,1.9-2.2C221.4,474.7,221.2,475.7,220.1,476.1z"/>
	<path d="M251.9,499.4c0.5-0.9,1.3-1.4,2.3-1.5C253.9,499.1,253,499.4,251.9,499.4z"/>
	<path d="M219.4,477.5c0.3-0.5,0.5-1.1,0.8-1.6C220.1,476.6,220.1,477.2,219.4,477.5z"/>
	<path d="M256.3,491.7c-0.8-0.4-0.7-1.2-0.8-1.9C255.7,490.4,256,491,256.3,491.7z"/>
	<path d="M255.6,440.2c-1.4,0.4-2.8,0.7-4.2,1.1c-1.4,0.4-2.2,1.9-4.1,2.4C249.3,440.4,252.1,439.1,255.6,440.2z"/>
	<path d="M244.4,452.5c-0.2-0.1-0.5-0.1-0.6-0.3c-1.5-4.5-1.4-9.1-0.9-13.7c0-0.3,0.6-0.5,1-0.8l0,0c-0.9,2.1-0.8,4.3-0.6,6.5
		C243.5,447,244,449.8,244.4,452.5L244.4,452.5z"/>
	<path d="M275.8,439.6c2.6-1.3,4.3-0.4,6,0.2c1.7,0.6,2,1,2.9,3.1c-1.6-0.9-2.8-1.8-4.1-2.3C279.3,440.1,277.9,440,275.8,439.6z"/>
	<path d="M244.3,452.6c0.6,1.4,1.5,2.8,1.2,4.5c0,0,0.1-0.1,0.1-0.1C244.6,455.6,243.9,454.2,244.3,452.6
		C244.4,452.5,244.3,452.6,244.3,452.6z"/>
	<path d="M243.9,437.7c-0.1-0.5-0.2-0.9-0.3-1.4c0.1,0,0.2,0,0.3,0C243.9,436.7,243.9,437.2,243.9,437.7
		C243.9,437.7,243.9,437.7,243.9,437.7z"/>
	<path d="M287.1,435.5c1.2,0.3,0.9,1.2,0.6,2c0,0,0.1-0.1,0,0C287.5,436.8,287.3,436.1,287.1,435.5L287.1,435.5z"/>
	<path d="M287,435.4c0.1-0.2,0.1-0.3,0.2-0.5c-0.1,0.1-0.2,0.1-0.2,0.2C287,435.3,287.1,435.4,287,435.4
		C287.1,435.5,287,435.4,287,435.4z"/>
	<path d="M300.4,492.4c0.5,0.5,1,0.9,1.5,1.3c0.1,2.3-2.1,2.3-3.3,3.3c1.1,2.3,3.3,1.4,5.3,1.8c-0.4,0.5-0.7,0.9-1,1.2
		c-1.3,1-2.6,2-4,2.9c-2.1,1.4-3.8,1-5-1.2c-0.9-1.7-1.6-3.5-2.6-5.6c0.7,0.2,1,0.2,1.3,0.3c0.3,0.1,0.6,0.4,0.9,0.5
		c0.4,0.2,0.9,0.4,1.3,0.5c0.3,0.1,0.7,0.1,1,0c0.3-0.1,0.6-0.3,1-0.6c-0.6-0.9-1.2-1.8-1.6-2.7c-0.5-1.1,0.2-2.2,1.4-2.3
		C297.9,491.6,299.2,491.8,300.4,492.4c0,0.4,0,0.7,0.1,1.1c0,0,0,0,0.1,0C300.5,493.2,300.4,492.8,300.4,492.4z M297.4,499.2
		c0.1-0.1,0.2-0.1,0.3-0.2c-0.1-0.1-0.2-0.2-0.2-0.2c-0.1,0.1-0.2,0.2-0.3,0.3C297.2,499.2,297.3,499.2,297.4,499.2z"/>
	<path class="st0" d="M283,471.5c-0.1,0.1-0.2,0.2-0.3,0.3c-0.5-0.2-1-0.3-1.6-0.5c0.4-3.2,1.4-6,2.9-8.7c0.3-0.5,0.9-1,1.5-1.6
		c1.1,0.9,2.1,1.8,3.1,2.6c0.5,0.4,1.1,0.8,1.6,1.2c0,0-0.1-0.1-0.1-0.1c0.3,0.8,0.5,1.6,0.8,2.4c-0.5,0.4-1,0.8-1.5,1.2
		c0,0,0.1-0.1,0.1-0.1c-0.8,0.1-1.7,0.1-2.3,0.8c0,0,0.1-0.1,0.1-0.1c-0.6,0.1-1.3,0-1.5,0.8c0,0,0.1-0.1,0.1-0.1
		c-0.6,0-1.3,0-1.6,0.8l0.1-0.1C283.8,470.3,283.3,470.8,283,471.5z"/>
	<path d="M284,484.9c0.6,0.3,1.1,0.6,1.8,0.9c-0.1-0.9-0.2-1.7-0.2-2.5c0.4,0,0.8-0.1,0.8,0c0.6,1.3,1.4,2,2.9,2.1
		c1,0.1,2,0.5,2.9,1c0.9,0.5,1.5,1.3,1.5,2.5c-0.3,0.1-0.6,0.2-0.6,0.1c-1.8-1.5-3.8-2.1-6.2-1.6c-1.5,0.3-2.6-0.5-3.1-2
		C283.7,485.4,283.8,485.2,284,484.9z"/>
	<path d="M312.9,492.2c1,0,1.6,0,2.4,0c-1.4,1.5-2.5,1.9-3.6,1.2c-1.1-0.7-2-1.7-3.4-1.8c-1.2,0-2.3,0-3.6,0c-0.4-0.4,0-0.7,0.4-1
		c1.2-0.9,2.6-1.1,4-0.7c0.8,0.2,1.6,0.5,2.5,0.8c0.6-0.4,1.4-0.7,2.1-1.1c0.6,0.2,0.6,0.6,0.4,1
		C313.8,491.1,313.4,491.5,312.9,492.2z"/>
	<path d="M290.2,464.8c-0.5-0.4-1.1-0.8-1.6-1.2c-1-0.8-1.9-1.6-3.1-2.6c-0.6,0.6-1.1,1-1.5,1.6c-1.5,2.6-2.6,5.4-2.9,8.7
		c0.6,0.2,1.1,0.3,1.6,0.5c-0.6,0.4-1.3,0.9-2.3,1.6c-0.1-0.7-0.2-1.2-0.2-1.6c0.2-3.7,1.4-7.1,3.4-10.2c0.9-1.4,1.9-1.6,3.3-0.6
		C288.3,461.9,289.9,462.9,290.2,464.8z"/>
	<path d="M290.4,475c-3.3-0.1-5.9,0.8-8.5,2.6c0.1-0.7,0-1.1,0.2-1.3c2.1-2,4.6-2.8,7.4-2.3C289.6,474.1,289.7,474.3,290.4,475z"/>
	<path d="M281.3,490.1c3.1-0.5,6.1,0.3,9.5,1.9c-2.3,0.3-3.6-0.7-5.1-1C284.2,490.7,282.7,490.4,281.3,490.1z"/>
	<path d="M305.7,497.4c3.2,0.3,5.9,1.5,8.8,3.9c-0.1,0.1-0.1,0.2-0.2,0.2c-0.1,0-0.2,0.1-0.3,0C311.4,500.2,308.9,499,305.7,497.4z"
		/>
	<path d="M308.9,502.7c-1.3-1.2-2.5-2.4-3.8-3.6c0.7-0.6,1.1,0,1.5,0.3C307.6,500.3,308.7,501.2,308.9,502.7z"/>
	<path d="M289.4,468.3c0.5-0.4,1-0.8,1.5-1.2c-0.3-0.8-0.5-1.6-0.8-2.4c1.5,0.6,1.8,1.8,2.1,3.4
		C291.2,468.1,290.3,468.2,289.4,468.3z"/>
	<path d="M287.3,469c0.6-0.7,1.5-0.7,2.3-0.8C289,469.2,288.1,468.9,287.3,469z"/>
	<path d="M285.8,469.7c0.3-0.8,1-0.7,1.5-0.8C287.1,469.7,286.5,469.6,285.8,469.7z"/>
	<path d="M283,471.5c0.3-0.7,0.7-1.2,1.5-1.2C284.1,470.7,283.6,471.1,283,471.5z"/>
	<path d="M284.4,470.4c0.3-0.8,0.9-0.8,1.6-0.8C285.7,470.4,285.1,470.4,284.4,470.4z"/>
	<path class="st0" d="M297.8,450.6c-0.2,0.1-0.4,0.3-0.5,0.5c-2,1.1-3.7,2.4-4.3,4.8c-0.1,0.1-0.2,0.2-0.3,0.3
		c-0.2-0.1-0.5-0.2-0.6-0.4c-1.5-2-1.7-7-0.3-9.1c0.2-0.3,0.8-0.7,1.2-0.6c2.7,0.1,5.3,0.7,7.1,3.1c0,0,0.1-0.1,0.1-0.1
		C299.1,449.2,298.4,449.8,297.8,450.6z"/>
	<path d="M300,449.2c-1.8-2.4-4.3-3-7.1-3.1c-0.4,0-0.9,0.3-1.2,0.6c-1.4,2-1.2,7,0.3,9.1c0.1,0.2,0.4,0.3,0.6,0.4
		c-0.3,0.3-0.6,0.7-1.1,1.2c-0.3-0.5-0.6-0.8-0.7-1.2c-1-2.8-1-5.7-0.4-8.6c0.5-2.3,1.5-3,3.8-2.4c2.4,0.6,4.7,1.3,6.7,2.8
		C301.1,448.9,300.7,449.1,300,449.2z"/>
	<path d="M299.6,464.8c1.3-2.3,2.8-2.4,4.4-2.1c1.7,0.2,3,1,3.4,2.9c-1.2,0.6-1.5-0.6-2.2-0.8c-0.9-0.2-1.8-0.6-2.7-0.6
		C301.9,464.1,301.1,464.4,299.6,464.8z"/>
	<path d="M308.9,459.2c-1.8-0.9-3-1.6-4.3-2.2c-1.1-0.5-2.5-0.1-3.9-1.1c2.2-0.7,3.8-0.4,5.4,0.4
		C307.1,456.9,308.4,457.3,308.9,459.2z"/>
	<path d="M293,455.9c0.6-2.4,2.3-3.7,4.3-4.8C295.9,452.7,294.4,454.3,293,455.9z"/>
	<path d="M297.8,450.6c0.6-0.8,1.3-1.4,2.3-1.5C299.6,450,298.9,450.6,297.8,450.6z"/>
	<path d="M333.2,498.6c-1.4-0.9-3-1.4-4.7-1.3c-0.6,0-1.2-0.1-1.7-0.4c-0.5-0.3-1.2-0.9-1.3-1.5c-0.1-0.5,0.6-1,1-1.6
		c1.6,1.5,1.6,1.4,4,2c0.8,0.2,1.6,0.5,2.3,0.9c0.4,0.2,0.6,0.8,0.8,1.3C333.6,498.3,333.4,498.5,333.2,498.6z"/>
	<path d="M348.1,497.2c0.4,0.7,0.9,1.2,0.8,1.6c-0.1,0.4-0.7,1-1.1,1.1c-0.6,0.2-1.4,0.1-2.1,0c-0.9-0.1-1.8-0.5-2.7-0.6
		c-0.8-0.1-1.6,0.1-2.8,0.2c0.4-0.7,0.5-1.2,0.8-1.3c0.9-0.2,1.8-0.4,2.7-0.3C345.3,498.2,346.7,498.2,348.1,497.2z"/>
	<path d="M331,488.2c-2.4,1.5-4.2,2.6-6.2,3.9c0.1-0.4,0-0.9,0.2-1.1C326.4,489.3,328.1,488.2,331,488.2z"/>
	<path d="M332.2,483.8c2.3,1.2,4,2.8,4.7,5.4C335.3,487.4,333.8,485.6,332.2,483.8z"/>
	<path d="M338.6,490.9c1.6,0,2.5,1,3.3,2.2C340.5,492.8,339.4,491.9,338.6,490.9z"/>
	<path d="M341.7,493c0.7,0,1.3,0,1.6,0.8C342.6,493.8,342,493.7,341.7,493z"/>
	<path d="M242.4,495.1c1.7,0.6,3.4,1.7,5.3,1.3c1.7-0.4,3.4-1.2,5.1-1.8c0.1,0.3,0.3,0.6,0.3,0.7c-2.5,3.7-7.4,4.5-10.5,1.6
		C242,496.5,241.6,495.9,242.4,495.1z"/>
	<path d="M246.8,493.8c-0.7-0.2-1.2-0.4-1.8-0.6c-0.8-0.4-1.4-1.1-1.2-2c0.1-0.6,0.6-1.3,1.2-1.6c1.3-0.9,2.6-0.9,4-0.1
		c0.8,0.4,1.3,1.1,1.2,2c-0.1,0.6-0.6,1.3-1.1,1.6C248.4,493.4,247.5,493.5,246.8,493.8z M248.5,490.3c-0.1,0.2-0.2,0.4-0.2,0.5
		c0.1,0.1,0.3,0.2,0.5,0.3c0.1-0.2,0.2-0.4,0.2-0.6C248.9,490.4,248.7,490.4,248.5,490.3z"/>
	<path d="M250.9,457c0.5-1.9,1.8-2.3,3.2-2.5c1.8-0.3,3.2,0.4,4.5,2.3c-1.7-0.3-2.8-0.7-4-0.7C253.4,456.3,252.3,456.7,250.9,457z"
		/>
	<path d="M274.1,456.6c0.8-2.1,2.2-2.5,3.8-2.6c1.6-0.1,3,0.3,3.8,2.1c-1.4,0.5-2.5-0.8-3.7-0.5
		C276.8,455.9,275.7,456.2,274.1,456.6z"/>
	<path class="st0" d="M253.8,190.2c-0.2-31.8,25.5-56.8,56.5-56.7c31.2,0.1,57.6,25.1,57.4,57.7c-0.2,32.4-26.3,56.4-56.7,56.2
		C277.1,247.2,253.7,219.4,253.8,190.2z M311.8,164.2c-0.3-0.2-0.7-0.5-1-0.8c-5.3-5.4-11.9-7.6-19.2-7.4
		c-11.4,0.3-19.8,5.7-24.7,16c-4,8.5-4.5,17.2-0.7,26c2.3,5.3,5.8,9.7,9.9,13.6c8.1,7.6,17.5,13,27.4,17.8c1.5,0.7,2.9,0.8,4.4,0.3
		c4.2-1.4,8.6-2.6,12.8-4.1c7.4-2.7,14.5-6.2,20.8-11.1c4.5-3.5,8.3-7.7,10.8-12.9c3.3-6.9,3.6-14.1,1.9-21.4
		c-5.1-21.7-30.3-26-41.8-16.3C312.4,164,312.2,164,311.8,164.2z"/>
	<path class="st0" d="M300.4,492.4c0,0.4,0.1,0.7,0.1,1.1c0,0,0,0-0.1,0C300.4,493.2,300.4,492.8,300.4,492.4
		C300.4,492.4,300.4,492.4,300.4,492.4z"/>
	<path class="st0" d="M297.4,499.2c-0.1,0-0.2-0.1-0.3-0.1c0.1-0.1,0.2-0.2,0.3-0.3c0,0,0.1,0.1,0.2,0.2
		C297.5,499.1,297.4,499.2,297.4,499.2z"/>
	<path class="st0" d="M248.5,490.3c0.2,0.1,0.4,0.1,0.5,0.2c-0.1,0.2-0.2,0.4-0.2,0.6c-0.2-0.1-0.4-0.2-0.5-0.3
		C248.3,490.7,248.4,490.5,248.5,490.3z"/>
	<path d="M311.8,164.2c0.4-0.1,0.6-0.2,0.8-0.3c11.5-9.6,36.8-5.4,41.8,16.3c1.7,7.3,1.4,14.5-1.9,21.4c-2.5,5.2-6.3,9.3-10.8,12.9
		c-6.3,4.9-13.4,8.4-20.8,11.1c-4.2,1.5-8.5,2.7-12.8,4.1c-1.5,0.5-3,0.4-4.4-0.3c-9.9-4.8-19.4-10.2-27.4-17.8
		c-4.2-3.9-7.6-8.3-9.9-13.6c-3.8-8.7-3.4-17.5,0.7-26c4.9-10.3,13.3-15.7,24.7-16c7.3-0.2,13.9,2,19.2,7.4
		C311.2,163.6,311.5,163.9,311.8,164.2z M311.7,166.3c-0.3-0.2-0.6-0.4-0.8-0.7c-4-5.2-9.5-7.5-15.9-8.1c-7.7-0.8-14.7,1.3-20.6,6.5
		c-8.4,7.4-13.7,23.9-4.4,37.8c3,4.5,6.5,8.3,10.6,11.7c7.1,5.9,15.1,10.4,23.4,14.4c1.4,0.7,2.6,0.7,4.1,0.3
		c6.7-1.9,13.3-4.1,19.6-7c6.5-3,12.6-6.8,17.7-12c10.1-10.2,10.5-23.7,5.9-34c-4.2-9.3-13.9-15.1-24.5-14.8
		c-5.3,0.2-10.2,1.6-14.2,5.3C312.3,166,312,166.1,311.7,166.3z"/>
	<path class="st0" d="M311.7,166.3c0.3-0.2,0.7-0.3,0.9-0.5c4.1-3.6,8.9-5.1,14.2-5.3c10.6-0.3,20.3,5.5,24.5,14.8
		c4.6,10.3,4.2,23.7-5.9,34c-5.1,5.2-11.2,8.9-17.7,12c-6.3,2.9-12.9,5.2-19.6,7c-1.4,0.4-2.7,0.4-4.1-0.3
		c-8.3-4-16.3-8.5-23.4-14.4c-4.1-3.4-7.7-7.3-10.6-11.7c-9.2-13.9-3.9-30.4,4.4-37.8c5.9-5.2,12.8-7.3,20.6-6.5
		c6.3,0.6,11.8,3,15.9,8.1C311,165.9,311.4,166,311.7,166.3z"/>
</g>
</svg>
