<?xml version="1.0" encoding="utf-8"?>
<!-- Generator: Adobe Illustrator 26.0.0, SVG Export Plug-In . SVG Version: 6.00 Build 0)  -->
<svg version="1.1" id="Capa_1" xmlns="http://www.w3.org/2000/svg" xmlns:xlink="http://www.w3.org/1999/xlink" x="0px" y="0px"
	 viewBox="0 0 595.3 742.1" style="enable-background:new 0 0 595.3 742.1;" xml:space="preserve">
<style type="text/css">
	.st0{fill:#FFFFFF;}
</style>
<g>
	<path d="M0,370.8c0-116,0-232.1,0-348.1C0,14.2,5.3,4.3,15.7,1.1c1.9-0.6,4-0.8,6-1c1.4-0.2,2.8,0,4.2,0c182.1,0,364.3,0,546.4-0.1
		c10.5,0,20.7,7.4,22.6,18.7c0.2,1.4,0.3,2.8,0.3,4.2c0,116.9,0,233.9,0,350.8c0,115.2,0,230.3,0.1,345.5c0,10.5-7.3,20.5-18.2,22.5
		c-1.7,0.3-3.5,0.4-5.3,0.4c-134.1,0-268.3,0-402.4,0c-48.9,0-97.8-0.1-146.7,0.1c-10.3,0-20.4-7.5-22.3-18.5
		c-0.3-1.6-0.3-3.3-0.3-5C0,602.7,0,486.8,0,370.8z M577.3,578.1c1.1,0,2.2,0,3.3,0c0,0,0,0,0,0
		C579.6,578.1,578.4,578.1,577.3,578.1c-1.4-0.8-1.4-0.8-3.7-0.4C575,577.8,576.1,578,577.3,578.1z M148.2,340.9
		c0.4-0.4,0.6-0.5,0.6-0.7c0.4-0.8,0.7-1.6,1.1-2.4c3.9-10.6,11.4-17.8,21.3-22.8c5.8-2.9,11.7-5.3,17.9-7.2
		c18.5-5.4,37.3-9.2,56.3-12.4c21.1-3.5,42.4-4.9,63.7-5.4c7.8-0.2,15.7,0,23.5,0.2c7.9,0.2,15.6,1.2,23.3,3.2
		c9.7,2.5,17.9,7.3,23.7,15.7c2.7,3.8,5.4,7.6,7.9,11.6c7.1,11.5,12.6,23.8,17.6,36.4c0.3,0.8,0.7,1.7,1.1,2.5
		c3.3-37.3,7.8-74.3,16.3-110.8c-0.9,0-1.5,0-2.1,0c-8.5,0.4-17.1,0.9-25.6,1.1c-11.8,0.2-23.6-0.1-35.4-0.8
		c-15.6-0.9-31.1-2.7-46.5-5.4c-5.5-1-10.8-2.5-15.7-5.3c-6.6-3.9-9.2-9-8-16.6c0.9-5.8,3.9-10,9.5-12c2.6-0.9,5.3-1.5,7.9-2.1
		c1.7-0.4,3.4-0.7,5.3-1c0.2-2.2,0.4-4.2,0.6-6.2c0.8-9.3,5.9-14.4,13.2-16.2c0.3-0.1,0.6-0.3,1.1-0.5c-1-7.3,2.2-12.6,8-16.7
		c6.1-4.3,12.3-3,18.8,0.1c3.5-16.7,8.2-32.6,14.2-48.4c-1.1,0-1.8-0.1-2.5,0c-12.4,1.3-24.7,0.7-36.8-1.7
		c-5.7-1.2-11.3-2.8-16.4-5.7c-3.1-1.8-5.9-3.9-7.6-7.2c-3.4-6.8-3.4-13.7,0.2-20.3c6.2-11.4,21.6-12,28.4-4
		c0.2,0.2,0.5,0.4,0.8,0.6c4.4-5.7,9.9-8.1,16.8-6.2c6.6,1.8,9.3,6.8,9.4,13.5c2.2,0.3,3.9,1.3,5.3,2.8c0.3,0.3,1,0.6,1.3,0.5
		c2.3-0.7,4.3,0.1,6.3,1.3c2.4-1.7,5.2-2.3,8.1-2.2c9.8-18.1,21.5-34.7,35.4-49.7c13.9-15,29.6-27.8,46.8-38.8
		c-0.1-0.2-0.1-0.4-0.2-0.6c-1.5,0-2.9,0-4.4,0c-144.5,0-288.9,0-433.4,0c-1.1,0-2.3,0-3.4,0c-11,0.2-20.6,9.7-20.6,20.8
		c-0.1,15.4,0,30.7,0,46.1c0,0.7,0.1,1.3,0.2,2.1c7.4,0.1,10.8,5.4,14.2,10.7c3-1.7,5.9-2.8,9.2-2.9c0.4,0,1-0.4,1.3-0.7
		c6.4-5.7,15.1-4.5,20.7-0.9c0.6,0.4,1.2,0.7,1.6,1c2.2-2.4,4.1-4.8,6.3-7c3.7-3.6,8.2-4.8,13.2-3.7c6.6,1.4,10.7,5.4,11.9,12.3
		c4.8,1.7,7,5.1,6.9,10c0.3,0.2,0.4,0.3,0.6,0.4c2.2,1,4,3.1,6.8,2.7c1.4,1.2,2.7,0.5,4.2,0.1c4.4-1.5,8.5,0.5,10.1,4.7
		c1.3,3.6,0.6,6.9-1.9,9.8c-2.1,2.4-4.8,3.5-7.8,4.1c-5.6,1-11.1,2-16.7,2.7c-16.8,1.8-33.6,2.1-50.5,1.6
		c-8.7-0.2-17.4-0.9-26.1-1.4c-1.3-0.1-2.6,0-4,0c0,0.8-0.1,1.5-0.1,2.2c0,27.1,0.1,54.2,0.1,81.3c0,0.1,0.1,0.1,0.2,0.2
		c0.1,0,0.2,0,0,0c3.7-3.8,7.1-7.8,10.9-11.3c23.4-21.6,57.2-21.8,80.6-2.6c8.6,7.1,15.4,15.8,20.9,25.4
		c6.5,11.3,11.3,23.3,15.4,35.6c0.3,0.9,0.6,1.8,0.9,2.8c6.1-2,11.5-1.3,15.9,3.4c3.6-4.3,7.9-6.3,13.3-4.7c5,1.5,7,5.3,7.2,9.9
		c1.4,0.9,2.6,1.7,3.8,2.4c0.4,0.3,0.9,0.5,1.4,0.5c1.5,0.2,3.1,0.4,4.6,0.6c0.4,0.2,0.8,0,1.2-0.2c4.2-2,8.6-0.8,11.1,3.1
		c3.1,4.7,1.9,11.2-3.1,14.1c-2.3,1.4-5,2.3-7.6,2.9c-10,2.3-20.1,2.1-30.3,0.9c-3-0.4-6-1-9.3-1.6
		C142.8,299.1,145.8,319.8,148.2,340.9z M151.1,417.6c0.5,21.7,0.9,38.9,1.4,56.1c0.4,11.6,1,23.3,1.7,34.9
		c0.2,4.1,0.6,8.3,1.6,12.3c3.1,12.6,10.1,22.4,22,28.2c5.3,2.6,10.9,3.6,16.6,3.8c8,0.4,16,0.6,24,0.6c13.1,0.1,26.1-0.8,39.1-1.8
		c17-1.3,33.9-3.2,50.7-5.6c18.5-2.6,36.9-5.6,55.2-9.8c9.3-2.1,18.5-4.4,27.5-7.8c12.4-4.7,21-13,25.1-25.8
		c2.3-7.4,2.4-15,1.1-22.5c-2.4-13.4-4.7-26.9-7.6-40.3c-4.8-22.5-9.9-44.9-15.1-67.3c-4.3-18.5-9-37-13.7-55.4
		c-0.7-3-1.9-5.9-3.4-8.6c-3.4-6-9-9.6-15.2-12.1c-9.1-3.6-18.6-4.8-28.2-5.3c-12.7-0.6-25.4-0.5-38.1,0.3
		c-10.9,0.6-21.8,1.3-32.7,2.5c-19.6,2.2-38.9,5.9-58,10.5c-9.6,2.3-19.2,4.8-28.2,8.8c-5.8,2.6-11.4,5.6-16.2,9.9
		c-5.8,5.2-9.1,11.6-9.2,19.5c-0.2,7.4-0.4,14.8-0.4,22.2C151,384.2,151.1,403.1,151.1,417.6z M561.3,468.8c-5.5,0-10.7,0-15.9,0
		c-4.1,0-7-2-8.3-5.7c-0.7-1.8-0.9-3.9-0.9-5.9c-0.1-29,0-58.1,0-87.1c0-0.3,0-0.5,0-0.8c0.2-6,3.1-10.1,8.7-10.8
		c1.4-0.2,2.9-0.8,4.2-1.5c1.7-1,1.9-1.9,1.2-4.2c-0.6,0.2-1.3,0.2-1.9,0.5c-1.1,0.5-2.2,1.2-3.1,0.1c-0.8-1.1-0.1-2.2,0.5-3.2
		c0.2-0.4,0.6-0.7,0.8-1c1.6-1.9,3.7-2.8,6.3-2.9c-0.4-0.4-0.7-0.6-1.1-0.7c-0.4-0.2-0.9-0.2-1.2-0.4c-1.6-0.9-1.8-2.4-0.1-3.2
		c1.1-0.6,2.5-0.7,3.8-0.8c4.1-0.1,8.1-0.1,12.2,0.1c5.7,0.2,10,2.7,12.6,7.8c0.9,1.7,1.7,3.5,2.4,5.3c0.9,2.3,2.4,3.6,4.8,4
		c2.7,0.5,5.5,0.8,7.9,3.4c0.1-1.2,0.1-1.8,0.1-2.4c0-18.4,0-36.7,0-55.1c0-1.4,0-2.8-0.3-4.2c-1.1-7-2.2-13.9-3.5-20.9
		c-3.5-18.9-7.9-37.6-14.2-55.8c-4.5-13-10-25.6-17.5-37.2c-5.4-8.3-11.6-15.9-19.8-21.4c-16.2-10.9-33.1-11.6-50.2-2.1
		c-7,3.9-12.6,9.6-17.6,15.8c-7,8.8-12.2,18.5-16.7,28.7c-7.6,17.4-12.8,35.6-16.9,54.2c-3.1,13.8-5.7,27.6-7.5,41.6
		c-1.7,13.4-3.3,26.8-4.7,40.2c-1,9.9-1.7,19.9-2.4,29.8c-0.1,1.1,0,2.3,0,3.6c7.4-1.4,14.3-0.6,20.7,3.3c6.5,4,10.6,9.8,12.3,17.1
		c1.5,6.4,0.7,12.6-2.3,18.5c-4.1,7.8-10.6,12.4-19.6,14.5c4.6,4,7.1,8.8,9.2,13.8c6.5,15.8,10.6,32.3,12.9,49.2
		c0.4,2.7,0.6,5.4,0.8,8.2c3.9,0.2,7.3-0.7,10.7-2c8.7-3.2,15.2-9.1,20.3-16.7c0.5-0.8,0.8-1.8,2-2.1c0.6,1.1,1,2.1,1.6,3.1
		c4.1,7.3,10.4,11.5,18.7,12.2c10,0.9,18.8-4.2,23.3-13.2c0.4-0.7,0.8-1.4,1.4-2.5c6.4,10.4,14.6,17.7,26.5,20.6
		C561.3,489.9,561.3,479.5,561.3,468.8z M163.9,645.1c0.3-0.9,0.6-1.6,0.8-2.4c1.5-4.9,2.9-9.8,4.4-14.7c0.7-2.4,2.2-3.7,4.5-4.3
		c4.3-1,7.5,0.8,8.6,5.1c1.3,5,2.5,10.1,3.9,15.1c0.6,2.5,0.7,2.4,3.2,2.6c10,0.7,20.1,1.4,30.1,2.2c10.9,0.9,21.8,1.7,32.7,2.9
		c13.3,1.4,26.6,2.9,39.9,4.6c14.6,1.9,29.2,3.7,43.7,6c20.8,3.4,41.5,7,62.2,10.9c27.9,5.2,55.5,11.7,83,18.7
		c37.2,9.5,74.1,20.5,110.5,32.8c0.6,0.2,1.2,0.3,2.1,0.5c0.2-2,0.5-3.8,0.5-5.6c0-31.1,0-62.1,0-93.2c0-0.9,0-1.7,0-2.8
		c-4.6-1-9-2-13.3-2.9c-19-3.7-38-7.5-57.1-10.9c-13.6-2.4-27.3-4.5-41-6.5c-12.8-1.9-25.7-3.5-38.5-5c-12.3-1.5-24.5-2.8-36.8-4
		c-11.8-1.1-23.5-2.1-35.3-2.9c-16.9-1.1-33.8-2.2-50.7-2.9c-12.9-0.6-25.9-0.9-38.9-1.1c-28.6-0.4-57.2-0.3-85.7,0.5
		c-0.9,0-1.9,0.3-2.8,0.6c-7,2.6-13.9,5.5-21,7.9c-3.7,1.3-7.6,2.2-11.5,2.7c-5.4,0.7-9.4-1.7-11-6.6c-0.3-0.9-0.7-1.8-1.2-2.8
		c-17.6,1.2-35.1,2.4-53,3.6c0.3,7.2-1.5,14,0.6,20.9c2.4,7.8,4.1,15.9,6.1,23.8c1.4,5.5,1.4,5.5,7.1,5.1c0.2,0,0.3-0.2,0.6-0.4
		c0.7-2.3,1.4-4.8,2.1-7.2c1.8-6.2,3.7-12.3,5.6-18.5c0.7-2.3,2.3-3.3,4.6-3.2c2.2,0.1,3.6,1.2,4.2,3.3c1.6,6.3,3.2,12.6,4.8,18.9
		c0.6,2.5,1.3,5.1,2,7.5C144.1,644.4,154,644.7,163.9,645.1z M134.4,413.9c0.6-5.8,1.2-11.4,1.7-17c0.2-2.4,0.5-4.8,0.4-7.1
		c-0.5-8.4-1.2-16.7-1.9-25.1c-1.4-17.9-3.6-35.8-6.4-53.6c-2.9-18-6.5-35.9-11.8-53.4c-4.1-13.5-9-26.7-16-39.1
		c-5.1-9-11-17.3-19.2-23.7c-10.8-8.6-22.9-11.8-36.5-8.9c-9.5,2-17.2,7.2-23.8,14.1c-7.9,8.2-13.6,17.9-18.5,28.2
		c-1,2.1-1.5,4.2-1.5,6.6c0,76.3,0,152.7,0,229c0,11.8,0,23.6,0,35.5c0,1,0,2,0,3.4c14.8-0.3,24.6-7.8,32.2-19.8
		c0.6,1.2,0.9,1.9,1.3,2.7c3.6,6.7,9.2,10.9,16.8,11.8c9.7,1.1,17.9-3.6,22.3-12.4c0.3-0.6,0.7-1.1,1.2-1.9c0.9,1.3,1.5,2.2,2.1,3.2
		c4,5.9,9.1,10.5,15.6,13.5c7.9,3.6,16,4.1,24.2,1c1.4-0.5,2.1-1.3,2.1-2.9c0.1-2.9,0.4-5.8,0.7-8.7c0.9-7.6,1.9-15.1,6.1-21.7
		c0.1-0.1,0-0.3,0-0.5c-20.7,0-30.7-17.9-28.2-32.2C100.2,420.5,115,407.7,134.4,413.9z M34,644.9c-5.8,0-11.1-0.1-16.5,0
		c-5.4,0.2-10.8-0.1-16.3,0.6c0,0.9-0.1,1.4-0.1,1.9c0,24.3,0,48.5,0,72.8c0,1.8,0.3,3.7,0.8,5.5c2.7,9.5,11.9,15.5,21.3,15.5
		C204.6,741,386,741,567.4,741c1.9,0,3.7,0.2,5.6,0c2.4-0.2,4.8-0.4,7-1.2c6.4-2.3,10.8-6.8,13.2-13.5
		c-43.8-14.8-87.9-27.6-132.7-38.4c-44.8-10.8-90.1-19.6-135.7-26.2c-45.5-6.7-91.3-11.3-137.5-14.1c1,4.1,1.8,7.8,2.7,11.5
		c4.3,16.9,8.6,33.8,12.9,50.7c0.4,1.7,1.2,2.4,2.9,2.8c3,0.8,6,2,9,3.1c4.3,1.6,3.7,9.5-0.1,10.9c-1,0.4-1.9,1-2.9,1.2
		c-3.4,0.9-6.8,2-10.3,2.5c-18.5,2.7-36.9,2.3-55.3-1c-4.3-0.8-8.5-1.8-12.4-3.7c-2.3-1.1-4.3-2.5-4.3-5.5c0-0.1-0.2-0.2-0.4-0.4
		c-8.3,3.6-17.2,4.9-26.2,5.7c-14,1.2-27.8,0.6-41.6-2.1c-5.7-1.1-11.3-2.6-16.6-5.1c-3.7-1.8-6.1-4.2-5.6-8.8
		c0.2-1.9,0.7-3.5,2.3-4.5c1.4-0.9,2.9-1.7,4.5-2.2c3-1,6.1-1.7,9.4-2.5c0.3-1.2,0.7-2.6,1.2-4.2c-0.8,0-1.1,0-1.4,0
		c-10.4,0.9-20.8,0.7-31.1-1.3c-2.9-0.6-5.7-1.7-8.5-2.7c-1.8-0.7-2-2.4-2-4.2c0-1.7,0.9-2.6,2.2-3.2c0.8-0.4,1.6-0.7,2.5-0.9
		c1.6-0.5,3.2-0.8,4.9-1.3C26.5,669.9,30.2,657.4,34,644.9z M198.4,586.6c19.5-0.1,38.4-0.5,57.4-0.4c19,0.1,37.9,0.4,56.9,1
		c18.9,0.7,37.9,1.6,56.8,2.9c18.8,1.3,37.6,3,56.4,5c18.8,2,37.7,4.3,56.4,7c18.8,2.7,37.5,5.7,56.1,9.1
		c18.6,3.3,37.1,7.2,55.6,10.8c0.5-5,0.3-16.9-0.2-18.4c-3.2,0.7-6.3,1.7-9.5,2.2c-8.9,1.5-17.9,1.3-26.9,0.8
		c-3.7-0.2-7.4-0.9-11-1.5c-1.6-0.3-3.2-0.9-4.8-1.5c-1.8-0.8-2.1-1.5-1.8-3.3c0.2-1.2,0.4-2.4,0.6-3.6c0.5-3.1,1.1-6.2,1.7-9.3
		c-8.2,0.5-16.1,1.2-24,1.3c-7.8,0.2-15.7-0.1-23.5-0.4c-7.9-0.3-15.7-1.1-23.7-2.6c1.7-6.6,3.3-12.9,4.9-19.5
		c-1.7-0.2-3.1-0.4-4.5-0.6c-3.9-0.5-7.9-0.9-11.8-1.4c-5.6-0.6-11.2-1.2-16.8-1.8c-1.2-0.1-2.1,0.3-3.1,1c-1.5,1.1-3.3,2.1-5.1,2.6
		c-2.3,0.6-4.7,1-7.1,0.9c-8.4-0.3-16.7-0.8-25.1-1.5c-3.5-0.3-7-1.1-10.4-1.9c-2.7-0.7-5.2-1.9-6.8-4.3c-0.8-1.2-1.6-1.6-3-1.7
		c-8.5-0.4-17.1-1-25.6-1.4c-13.4-0.6-26.8-1.1-40.2-1.5c-6.1-0.2-12.2-0.2-18.3-0.3c-2.1,0-4.2,0.1-6.3,0.4
		c-18.2,2.2-36.5,3.8-54.8,4.3c-10.5,0.3-21,0.2-31.5,0.3c-1.5,0-3.1,0-4.6,0c0,0.5,0,0.7,0,0.8c1.5,4,2.9,7.9,4.4,11.9
		c1.8,5,0.8,8.6-3.4,12C201,584.9,199.8,585.6,198.4,586.6z M594.1,106.9c-0.7-0.4-1.2-0.7-1.8-0.9c-13.4-6.7-27.4-11.8-42-15
		c-16.8-3.7-33.7-4.8-50.7-2.2c-29.4,4.5-53.6,18.5-72.4,41.5c-13,15.9-21.5,34.1-27,53.7c-0.2,0.5-0.2,1.1-0.3,1.9
		c1-0.1,1.8-0.2,2.5-0.3c6.1-0.5,11.7,0.8,15.9,5.5c1.9,2.1,3.3,4.5,4.8,6.9c0.9,1.4,1.5,2.9,2.5,4.8c0.5-1.5,0.8-2.6,1.2-3.7
		c3.9-12.2,9.2-23.6,16.9-34c9.9-13.3,22.4-23.2,38.4-28.2c15.8-4.9,31.5-4,47.1,0.7c13.1,4,24.9,10.4,35.8,18.4
		c4.6,3.4,9.7,5.7,15.5,6.4c4.6,0.6,9.1,0.3,13.6-1.3C594.1,143,594.1,125.1,594.1,106.9z M593.8,291.4c0.1,0,0.2,0,0.3,0.1
		c0-0.3,0.1-0.7,0.1-1c0-21,0-42,0-63c0-1.2-0.2-2.5-0.6-3.6c-3.8-12.1-8.3-24-14.2-35.3c-5.5-10.6-12-20.5-20.7-28.9
		c-13.9-13.2-30.1-20.2-49.5-19.4c-9.9,0.4-19.1,3-27.8,7.8c-11.7,6.4-20.8,15.6-28.2,26.6c-8.1,12-14,25.1-18.8,38.6
		c-9.3,25.9-14.9,52.7-19,79.8c-1.7,11.3-3.2,22.7-4.4,34.1c-1.2,11.4-2.1,22.8-3.1,34.3c-0.1,1.4,0.2,2.8,0.6,4.1
		c1.4,4.3,2.9,8.5,4.4,12.8c0.2,0.7,0.6,1.4,0.9,2.1c2.8-1.3,5.3-2.6,7.8-3.7c1-12.5,1.9-24.8,3.1-37.1c1.5-16.1,3.6-32.1,6.2-48
		c3.2-19.4,7.2-38.6,12.8-57.5c4.5-15,10-29.6,17.9-43.1c5.4-9.4,11.8-18,20.3-24.9c15.5-12.6,35.7-14.7,53-5.4
		c7.5,4,13.6,9.7,18.9,16.3c7.8,9.7,13.6,20.6,18.4,32c8,19.1,13.3,39,17.5,59.2C591,276,592.3,283.7,593.8,291.4z M490.2,484.5
		c-1.8,17.1-3.9,34-6.8,50.7c-2.9,16.7-6.6,33.2-11.1,50c6,0.6,11.5,1.2,17,1.7c17.1,1.5,34.2,1.2,51.2-0.6c1.4-0.2,2.3-0.5,2.4-2.1
		c0.1-1,0.4-2.1,0.5-3.1c0.1-1.2,0.7-2,1.9-2.3c1.8-0.5,3.6-1,5.3-1.4c1.2-0.3,2.5-0.5,3.9-0.8c-9-30.5-15.4-61.4-20.1-93.3
		c-5.3,8.7-12.3,13.5-21.9,13.6C502.9,497.1,495.6,492.5,490.2,484.5z M594.1,69.3c-0.6-0.3-1.1-0.5-1.6-0.6
		c-18.4-6-37.2-9.6-56.5-10.2c-11.7-0.3-23.3,0.7-34.7,3c-28.8,5.8-53.4,19.3-73.5,40.7c-17.7,18.8-29.4,41-37.1,65.5
		c-0.3,1-0.3,1.8,0.2,2.7c1.6,2.7,2.2,5.8,2.1,8.9c0,2.1-0.3,4.2-0.4,6.3c-0.1,1.7,0.8,2.4,2.4,1.9c2.3-0.7,3.7-1.9,4.4-4.5
		c5.1-18.4,13.1-35.5,24.8-50.8c15.5-20.2,35.3-34.3,59.9-41.4c12.1-3.5,24.5-4.9,37.1-4.6c8.2,0.2,16.4,1,24.4,2.5
		c16.2,3,31.6,8.5,46.5,15.7c0.6,0.3,1.2,0.5,2,0.8C594.1,93.2,594.1,81.4,594.1,69.3z M431.2,429.2c18.9-2.7,27.1-19.5,23.1-33.3
		c-2-7-6.2-12.5-12.8-15.8c-9.9-5.1-19.5-3.9-28.7,2.4c-8.1-24.4-17-48.1-31.7-69.1c0.6,3.2,1.5,6.3,2.3,9.5
		c11,44,21.6,88.2,30.5,132.7c2,10.2,4.1,20.5,5,30.8c1.4,17.4-5.3,31.1-20.6,40.2c-0.6,0.4-1.3,0.8-1.9,1.2
		c0.9,0.3,1.7,0.3,2.4,0.2c12.4-1.9,24.7-3.8,37.1-5.8c3.3-0.5,6.6-1,9.8-2.1c5.8-1.9,10-6.5,9.8-13.5c-0.1-4.8-0.2-9.7-0.8-14.5
		c-1.7-13.5-5-26.7-9.5-39.5C442.3,444,439.2,435.3,431.2,429.2z M592.5,15c-0.1-0.5-0.1-0.8-0.2-1c-3.9-8-10.2-12.7-19.2-12.7
		c-27.9-0.1-55.8-0.1-83.7,0c-1.4,0-2.8,0.4-4,0.9c-3.2,1.4-6.4,3-9.5,4.7c-39.6,20.9-69.6,51.3-90.8,90.6
		c-11.7,21.6-19.8,44.6-25.2,68.5c-0.2,0.8-0.3,1.6-0.5,2.4c1-0.4,1.7-1,2.3-1.6c2.4-2.3,5.1-4.2,8.4-4.9c1.8-0.4,2.4-1.2,2.9-2.8
		c4.2-14,9.6-27.4,16.4-40.4c10.8-20.6,24.5-38.9,41.7-54.6c23.7-21.5,51.3-35.6,82.2-43.3c13.3-3.3,26.8-5.4,40.5-6.1
		c8.3-0.4,16.6-0.3,24.9-0.3C583.3,14.4,587.8,14.7,592.5,15z M185.7,553.5c0-0.1,0-0.2,0.1-0.3c-0.4-0.1-0.8-0.3-1.1-0.4
		c-17.7-5.1-27.4-17.3-30.5-34.9c-1.3-7.4-1.6-15.1-2-22.6c-0.7-15.5-1.3-31-1.6-46.5c-0.4-19-0.4-38.1-0.6-57.1c0-1.1,0-2.1,0-3.2
		c0-12.5,0-25.1,0-37.6c0-0.5,0.1-1.1,0.1-1.6c0-2.6,0-5.3,0-8.4c-0.4,0.8-0.7,1.2-0.8,1.6c-1.4,4.3-3,8.5-4.2,12.8
		c-5,17.8-7.6,36-9.1,54.4c-0.2,2-0.4,4-0.6,6c-19.3-7.1-33.6,5.2-36.4,18c-1.6,7.2-0.6,14.1,3.6,20.3c6.1,9.1,15,12.5,25.8,11.7
		c-4.7,7.4-6.2,11.7-7.3,20.2c-1.4,10.3-1.6,20.7-1.5,31.2c0,2.7,0.3,5.4,0.4,8.1c0.7,0.2,1.1,0.4,1.5,0.5c0.5,0.2,1,0.3,1.5,0.5
		c6.4,2.4,10.6,7.2,13,13.4c2.1,5.5,0,11.1-4.9,14.3c-0.5,0.3-1,0.6-1.7,1.1c2.4,1.9,5.1,2.4,7.8,2.4c3,0,6-0.2,9-0.5
		c9.6-0.7,19.2-1.5,28.7-2.3C178.6,554.1,182.2,553.8,185.7,553.5z M358.7,171.4c-1-0.5-1.8-1-2.7-1.5c-2.2-1.1-4.3-2.4-6.7-3.2
		c-2.3-0.7-4.9-1.4-7.2-1.1c-10.5,1.1-16.9,11.7-13.3,21.6c0.6,1.7,1.4,3.2,2.1,4.8c1.5,3.5,1.8,2.6-0.9,5.3
		c-1.8,1.9-3.6,3.7-5.1,5.7c-2.4,3.2-3.5,6.9-2.9,10.9c0.6,4,2.3,7.6,5,10.6c2.4,2.8,5.5,4.5,9.2,4.7c3.1,0.2,6.2,0,9.2-0.3
		c3-0.3,2.9-0.4,4.4,2.4c1.2,2.3,2.3,4.6,3.7,6.7c6.7,9.9,23,7,26.6-2.4c1.1-2.9,1.8-6,2.6-9.1c0.3-1.2,0.5-2.4,0.7-3.5
		c1-0.1,1.6-0.2,2.3-0.3c2.4-0.4,4.9-0.7,7.2-1.4c11.1-3.4,15.4-19.2,6.7-27.6c-1.6-1.6-3.6-2.9-5.4-4.2c-1-0.7-2.1-1.3-3-1.9
		c0.2-3,0.5-5.8,0.5-8.6c-0.2-9.6-7.8-16.9-17.4-16.8c-4.7,0-8.5,2.1-11.8,5.2C361.4,168.7,360.1,170,358.7,171.4z M1.2,228.1
		c0.5-1,0.8-1.4,1-1.8c1.5-2.9,3-5.8,4.6-8.7c4.7-8.3,10.2-15.8,17.4-22.1c17.3-15.2,40.9-15.5,58.5-0.8
		c6.4,5.3,11.5,11.7,15.9,18.7c7.7,12.3,13,25.6,17.4,39.3c8.7,27.3,13.5,55.5,16.8,83.9c1.6,14,2.7,28.1,4,42.1
		c0.2,1.9,0.3,3.7,0.5,6c0.3-0.7,0.4-0.9,0.5-1.2c0.1-0.5,0.2-1,0.3-1.6c1.9-12,4.4-23.9,8.4-35.4c0.7-2,0.8-4,0.5-6
		c-1.4-10.1-2.6-20.3-4.1-30.4c-2.8-18.8-6.6-37.3-11.9-55.6c-4.2-14.7-9.4-29-16.7-42.5c-5.8-10.6-12.7-20.4-22.3-28
		c-18.5-14.6-38.9-17.9-60.9-9.2C19,179.8,9.6,188.5,2,199c-0.6,0.8-0.8,2.1-0.8,3.2c-0.1,7.9,0,15.7,0,23.6
		C1.1,226.4,1.2,226.9,1.2,228.1z M389.5,167.8c0.2-0.4,0.2-0.7,0.3-0.9c5.3-16.6,12.4-32.2,22.2-46.6c14.3-21,32.5-37.5,55.5-48.6
		c15.1-7.3,31-11.5,47.6-13.3c12.3-1.3,24.7-1.1,37,0.3c13.7,1.6,27.1,4.6,40.2,8.9c0.5,0.2,1.1,0.2,1.7,0.3c0-8.2,0-16.2,0-24.2
		c-0.4-0.2-0.8-0.3-1.1-0.4c-12.5-2.8-25.1-4.6-37.9-5.3c-16-0.8-31.9,0.2-47.6,3.6c-37,7.9-67.5,26.4-91.3,56
		c-14.3,17.8-24.5,37.9-31.6,59.5c-0.7,2-1.2,4-1.8,5.8C385.1,164.5,387.2,166.1,389.5,167.8z M593.3,16.3c-0.7-0.1-1-0.2-1.4-0.2
		c-13.6-1-27.1-1.2-40.7-0.2c-16.1,1.2-31.8,3.9-47.3,8.6c-34.3,10.4-63.4,28.8-87,55.8c-20.2,23.2-33.9,49.9-42.9,79.2
		c-0.1,0.5-0.1,1-0.2,1.4c2.7,0.4,5.1,0.9,7.7,1.3c1.2-3.4,2.2-6.8,3.4-10.1c7.6-21.5,18.2-41.3,33-58.7
		c19.5-23.1,43.6-39.3,72.4-48.6c20.5-6.6,41.5-8.9,62.9-8.1c12.9,0.5,25.6,2.3,38.2,5c0.8,0.2,1.6,0.2,2.6,0.4c0-7.5,0-14.6,0-21.8
		C594,19,593.6,17.7,593.3,16.3z M422.7,247.5c2-7.3,3.8-14.2,5.9-21c2.1-6.8,4.5-13.6,6.8-20.4c-3.4,0-6.6,0-9.8,0
		c-0.1-0.3-0.3-0.6-0.4-0.9c-1.8-4.7-4-9.2-7.4-13c-5.4-6-15.3-7.5-22.2-3.3c1.3,1.1,2.6,2.1,3.9,3.1c2.8,2.5,4.8,5.4,5.6,9.1
		c2.4,11.1-4.6,21.1-15.9,22.5c-1.6,0.2-3.1,0.4-4.7,0.6c-0.2,1.2-0.3,2.3-0.6,3.3c-0.7,2.6-1.2,5.3-2.1,7.9
		c-1.6,4.1-4.4,7.3-8.7,8.7c-9.3,3.2-17.5,1-22.4-8.4c-0.7-1.3-1.3-2.7-2-4c-0.3-0.5-0.6-1.1-0.9-1.6c-2.3,0.2-4.6,0.5-6.9,0.7
		c-6.8,0.4-12.6-1.5-16.4-7.6c-4.1-6.5-5.4-13.3-0.8-20.1c1.4-2,3.1-3.8,4.8-5.6c0.8-0.9,1.7-1.7,2.4-2.5c-1.4-3.3-2.8-6.4-4.2-9.6
		c-5.4,1.1-9.6,3.9-11.7,9.1c-0.9,2.2-1.2,4.6-1.6,6.9c-0.3,2.1-0.5,4.2-0.7,6.3c-1.3,0.2-2.3,0.4-3.3,0.7
		c-3.4,0.8-6.9,1.4-10.2,2.5c-5.1,1.7-7.9,5.4-8.8,10.6c-1,5.6,0,10.6,4.8,14.2c3.8,2.9,8.1,5.2,12.8,6c9.2,1.6,18.4,3.1,27.7,4.4
		c15.3,2.1,30.7,2.7,46.2,3c6.3,0.1,12.5,0,18.8-0.2c6.3-0.2,12.5-0.5,18.8-0.8C420.5,247.8,421.6,247.6,422.7,247.5z M48.7,79.1
		c-1-0.7-1.7-1.3-2.4-1.7C40.7,74,34.8,72.9,29,76.5c-2.4,1.5-4.6,2.5-7.3,3c-2.2,0.4-4.2,1.6-6.6,2.6c-0.4-0.6-0.8-1.3-1.4-2
		c-1.5-1.9-2.8-3.9-4.4-5.6c-2.1-2.2-4.8-3.3-8.1-3.2c0,13.6,0,27.1,0,40.8c2.9,0.3,5.7,0.6,8.5,0.8c12.9,0.9,25.9,1.3,38.9,1.1
		c13.6-0.2,27.1-0.8,40.6-2.7c3.6-0.5,7.1-1.3,10.6-2.1c3-0.7,5.5-2.3,7-5.2c1.6-3,1.1-6.9-1.2-9.3c-2.2-2.3-5-2.7-8.5-1.1
		c-0.5,0.2-0.9,0.5-1.5,0.7C94.2,93,92.4,92.4,91,93c-2.1-1.3-3.8-2.3-5.5-3.4c0.4-4.5-1.2-7.8-5.7-9.5c-1-0.4-1.2-1.1-1.3-2.1
		c-1.3-8.9-14.1-14.8-22.6-7.3c-1.6,1.4-2.9,3.1-4.3,4.6C50.6,76.5,49.7,77.7,48.7,79.1z M72.2,643c1.2-4,2.4-7.9,3.6-11.9
		c1.7-5.6,3.3-11.1,5-16.7c0.4-1.4,1.3-2.8,1.3-4.2c0.1-4.8,0-9.5,0-14.3c0-0.3-0.2-0.6-0.3-0.9c-6.1-0.2-77.2,7.3-80.5,8.5
		c0,13.4,0,26.9,0,40.7c11-0.3,21.9-0.5,32.9-0.8c0.3-0.7,0.6-1.4,0.8-2c1.2-3.8,2.3-7.6,3.5-11.4c0.7-2.3,2.3-3.4,4.5-3.3
		c2.3,0.1,3.6,1.1,4.3,3.5c0.2,0.6,0.3,1.2,0.5,1.8c1,3.6,1.9,7.3,2.9,11C57.9,643,65,643,72.2,643z M33.9,487.4
		c-3.1,31.2-8.2,62-16.5,92.1c13.3,3.1,56.7,3.7,63.3,0.8c-0.2-1.6-0.4-3.3-0.7-5.2c-1,0.3-1.7,0.5-2.3,0.7
		c-6.4,1.8-12.4-0.9-15.1-7c-1.2-2.6-1.6-5.4-1.7-8.2c0-1.4,0-2.8,0-4.4c-1.4,0-2.6,0-3.7,0c-3,0-6-0.5-8.8-1.7c-6-2.6-9.2-9-6.9-15
		c2.6-7,7.2-12.3,14.7-14.4c6.5-1.8,13.1-2.4,19.8-2.7c1.4-0.1,2.8-0.2,4.4-0.3c-2-11.9-4-23.6-6.1-35.7c-4.7,7.8-11.2,12.2-20,12.3
		C45.7,498.8,38.9,494.7,33.9,487.4z M161.5,657.5c-6,20-11.9,39.9-17.8,59.6c1.5,1.4,3.3,1.8,5,2.1c4,0.7,8,1.3,12,1.8
		c11.9,1.4,23.8,1.2,35.6-0.4c2-0.3,4-0.8,5.9-1.3c1.2-0.3,1.8-1,1.3-2.3c-0.2-0.4-0.2-0.9-0.3-1.3c-4.7-18.4-9.4-36.9-14.1-55.3
		c-0.2-0.8-0.5-1.6-0.8-2.4C179.3,659,170.6,658.9,161.5,657.5z M333.5,82.7c-0.4-0.6-0.7-1.1-1-1.5c-4.3-5.2-10-6.5-16.2-4.9
		c-7.3,1.9-11.5,6.9-12.8,14.3c-1.3,7.7,0.6,14.4,7.5,18.9c4.1,2.7,8.7,4.3,13.4,5.5c13.7,3.5,27.6,4.1,41.7,2.7
		c1.7-0.2,2.5-0.8,3.2-2.4c3.2-7.3,6.7-14.6,10-21.9c0.3-0.6,0.5-1.2,0.9-2c-3.1-0.7-5.2,1-7.5,2.4c-2.1-2.4-4.6-2.3-7.2-1.3
		c-2-2.3-2-2.3-6.7-4.2c-0.2-7.1-2.7-11.2-7.9-12.9C344.7,73.4,339.5,75.4,333.5,82.7z M443.8,522.2c-2.1,0.3-4,0.5-5.9,0.8
		c-15.6,2.4-31.2,4.9-46.7,7.3c-1.5,0.2-3,0.7-4.7,1.1c-0.5,7.3-1,14.4-1.5,21.5c-0.4,5.2,2.2,7.6,5.9,8.9c2.9,1,5.9,1.8,8.9,2.2
		c7.5,0.8,15.1,1.4,22.7,1.8c3.8,0.2,7.8-0.1,11.6-0.7c4.2-0.6,7.1-3.2,7.4-8.3c0.7-10.9,1.6-21.8,2.4-32.7
		C443.8,523.6,443.8,523,443.8,522.2z M139,558.7c0.3,1,0.5,1.7,0.8,2.4c2.9,7.9,5.9,15.9,8.9,23.8c1,2.6,1.9,5.1,2.9,7.7
		c1.4,3.8,3.8,5.9,9.3,5.8c1.4,0,2.8-0.3,4.2-0.6c11-3,21.6-6.9,31.9-11.8c1.6-0.7,3.1-1.8,4.5-2.8c3.9-3,4.7-6.1,3-10.7
		c-1.9-5.1-3.8-10.2-5.7-15.4c-1-2.8-1-2.8-3.9-2.9c-1.3,0-2.6,0-4,0.1c-3.2,0.2-6.3,0.6-9.5,0.8c-11.4,0.9-22.9,1.9-34.3,2.8
		C144.4,558.1,141.8,558.4,139,558.7z M62.4,680.8c-0.2,0.4-0.4,0.9-0.5,1.4c-2.4,8-4.8,16-7.2,24.1c-0.7,2.4-0.5,3,1.8,4.2
		c0.9,0.5,1.9,1,2.9,1.2c4.3,0.8,8.6,1.9,13,2.3c12.2,1.1,24.5,1,36.7-0.5c2.9-0.3,5.9-1.2,8.7-2.1c1.9-0.6,2-1.3,1.6-3.3
		c-1-3.9-1.9-7.9-2.9-11.8c-1.2-4.9-2.5-9.7-3.9-14.9C95.7,686.9,79.1,687.2,62.4,680.8z M546.4,352.5c0.9-0.4,1.4-0.5,1.8-0.8
		c1.1-0.5,2.2-0.7,3.1,0.3c0.9,1,1.3,2.5,0.5,3.7c-0.8,1.1-1.8,2.2-3,2.8c-1.2,0.7-2.6,0.9-4,1.2c-4.9,1.1-7.3,4-7.3,8.9
		c0,30,0,60,0,90c0,5.5,3.2,8.7,8.7,8.7c4.8,0,9.5,0,14.3,0c4.8,0,9.5,0.1,14.3,0c4.4-0.1,7.2-2.7,7.8-7.1c0.2-1,0.2-2.1,0.2-3.2
		c0-29,0-58,0-87c0-0.9,0-1.8-0.1-2.6c-0.5-4.3-2.9-6.8-7.2-7.6c-0.6-0.1-1.2-0.2-1.8-0.3c-2.9-0.6-4.9-2.1-6-5
		c-0.7-2-1.6-3.9-2.7-5.7c-2.4-4-6-6.1-10.6-6.4c-1.2-0.1-2.6-0.1-3.7,1.1c1.4,0.7,2.7,1.2,3.9,1.9c1.2,0.8,2,1.9,2,3.5
		C550.9,347,548,348,546.4,352.5z M57.2,526.3c-0.4-0.1-0.5-0.1-0.6-0.1c-0.2,0-0.3,0.1-0.5,0.1c-7,2.3-11.1,7.4-13.6,14.1
		c-0.4,1.2-0.5,2.6-0.3,3.9c0.7,5.1,3.7,8.2,8.5,9.8c3,1,6,1.1,9.2,1c0.7,0,1.5,0.1,2.3,0.1c0,2-0.2,3.7,0,5.3
		c0.4,2.6,0.6,5.3,1.6,7.7c2.4,6.1,8.8,8.7,14.8,6c2.4-1.1,4.5-2.7,6.6-4.3c1.3-1,2.3-2.4,3.6-3.8c0.9,0.9,1.5,1.6,2.2,2.3
		c2.2,2.3,4.6,4.4,7.5,5.8c6.7,3.1,13.6,0.2,16-6.8c1.1-3,1.3-6.2,1.2-9.4c0-0.8,0-1.7,0-2.6c1.9,0,3.5,0.1,5.1,0
		c2.4-0.3,5-0.4,7.2-1.2c7-2.4,9.8-9.4,6.6-16c-1.8-3.7-4.6-6.7-7.9-9.1c-1.6-1.1-3.6-1.7-5.4-2.5c0.2,1.1,0.7,1.6,1.1,2.3
		c0.8,1.2,1.6,2.3,2.2,3.6c2.4,5.3,0.1,10.9-5.4,12.9c-1.8,0.6-3.8,0.8-5.7,1c-1,0.1-2,0-3,0c-0.3,2.5-0.3,4.6-0.7,6.7
		c-0.8,4.1-2.9,7.1-7.2,8.3c-3,0.8-5.8,0.1-8.3-1.6c-1.9-1.3-3.6-2.8-5.4-4.4c-0.6,0.6-1.2,1.2-1.9,1.7c-1.7,1.2-3.3,2.7-5.2,3.5
		c-5.4,2.4-10.9,0.1-12.9-5.5c-0.6-1.8-0.7-3.8-1-5.7c-0.1-1-0.1-2-0.1-2.9c-2.4-0.3-4.6-0.3-6.6-0.7c-8-1.6-11-8.9-6.5-15.7
		C55.3,528.7,56.2,527.6,57.2,526.3z M72.9,645.4c-0.3,0.9-0.6,1.7-0.8,2.6c-2.7,9.1-5.4,18.2-8.2,27.3c-1.3,4.3-1.3,4.4,2.9,5.8
		c5.9,2,12,2.8,18.2,3.2c8.6,0.5,17-1.1,25.2-3.6c0.7-0.2,1.3-0.5,2-0.8c-2.9-11.4-5.7-22.6-8.6-33.8
		C93.2,647.6,83.2,648.2,72.9,645.4z M134.4,645c0.1,0.7,0,1.1,0.1,1.4c1.9,7.7,3.9,15.4,5.8,23.1c0.2,1,0.8,1.4,1.7,1.7
		c1.8,0.5,3.5,1.1,5.2,1.8c1.7,0.7,2.6,1.9,2.5,3.9c-0.1,1.9-0.8,3.3-2.6,3.9c-2.1,0.7-4.2,1.5-6.3,1.9c-7.3,1.3-14.7,1.7-22.1,1.2
		c-1.4-0.1-2.7,0-4.3,0c1.4,5.5,2.8,10.6,4,15.7c0.4,1.7,1.1,2.4,2.8,2.9c3.4,1,6.7,2.2,9.9,3.7c2.2,1,3.6,2.9,3.2,5.5
		c-0.1,0.4,0.1,0.8,0.2,1.3c3.4-0.8,6.6-1.6,9.9-2.4c6.4-21.4,12.7-42.7,19.1-64.3C153.7,645.8,144.2,645.4,134.4,645z M1.3,572.1
		c0,10.1,0,19.9,0,29.8c27-2.8,53.7-5.6,80.7-8.4c-0.3-3.9-0.7-7.7-1-11.6c-11,1.3-21.8,1.5-32.5,1.4c-13-0.1-29.3-1.6-32.2-3.2
		c0.4-3.3,2-6.4,2.2-10.1C12.7,570.7,7.1,571.4,1.3,572.1z M170.6,260.2c-0.9-0.9-1.6-1.7-2.4-2.1c-0.9-0.5-1.9-0.8-3-1.2
		c0-0.5,0-0.9,0-1.3c-0.1-4.7-2.9-8.2-7.4-9c-4.1-0.7-7.5,0.7-10.1,3.8c-0.5,0.6-1,1.3-1.5,2c-5.3-5.3-10.3-6.5-15.4-3.9
		c0.1,0.5,0.1,1,0.2,1.5c2.2,8.3,4.5,16.7,6.6,25c0.4,1.6,1.2,2.2,2.6,2.5c12.6,2.8,25.2,3.3,37.8,0.5c2.3-0.5,4.6-1.4,6.6-2.5
		c3.1-1.7,4.7-4.5,4.6-8c-0.1-3.1-1.4-5.7-4.2-7.2c-2.8-1.6-5.6-1.4-8.2,0.6c-0.2,0.2-0.5,0.2-0.8,0.3
		C174.5,259.7,172.7,259.2,170.6,260.2z M580,467.3c3.2,0,5.7,0.2,8.3,0c3.7-0.3,5.8-2.8,5.8-6.5c0-31.4,0-62.8,0-94.2
		c0-3.6-1.7-5.7-5.2-6.5c-1.2-0.3-2.4-0.5-3.6-0.8c-2.4-0.5-4.1-1.9-5-4.3c-0.7-1.7-1.4-3.4-2.2-5.1c-1.7-3.4-4.3-5.8-7.9-6.9
		c-3-1-6.2-0.8-9.5-0.6c0.4,0.4,0.5,0.7,0.7,0.8c3.1,1.9,5,4.6,6.4,7.9c0.5,1.1,1,2.3,1.4,3.4c0.7,2,2.2,3.2,4.2,3.6
		c0.9,0.2,1.7,0.4,2.6,0.5c4.2,0.6,6.6,3.1,7.7,7c0.3,1.3,0.4,2.6,0.4,3.9c0,29.1,0,58.2,0.1,87.3
		C584.1,460.7,583.4,464.2,580,467.3z M109.3,545.1c1.5,0,2.8,0.1,4.1,0c1.8-0.2,3.7-0.5,5.4-1c3.2-1.1,5-3.6,5.5-6.8
		c0.6-3.5-3.5-10.7-7-11.6c-2.8-0.8-5.8-1-9.3-1.6c0.7,1,0.9,1.4,1.2,1.8c1.5,2.2,2.2,4.4,0.9,6.9c-1.3,2.5-3.5,3.3-6.1,3.4
		c-0.7,0-1.4,0.1-2.1,0.2c-0.3,3.4-0.4,6.9-4.1,8.4c-3.7,1.5-6.4-0.7-8.9-3c-0.9,0.7-1.6,1.4-2.4,1.9c-2.1,1.5-4.3,2.1-6.7,1
		c-2.4-1.1-3.3-3.3-3.5-5.8c-0.1-0.9-0.1-1.7-0.2-2.6c-3.3-0.2-6.5-0.3-8.2-3.5c-1.7-3.1,0-5.8,1.9-8.7c-3.1,0.4-5.7,0.7-8.3,1.1
		c-0.7,0.1-1.4,0.4-1.9,0.9c-2.1,1.7-3.8,3.7-5,6.1c-2.4,5-0.3,10.2,5,11.9c2.1,0.7,4.5,0.7,6.8,1c0.8,0.1,1.5,0.1,2.5,0.1
		c0,1.5-0.1,2.8,0,4.1c0.2,1.7,0.3,3.6,0.9,5.2c1.8,5.1,6.9,7.3,11.8,4.9c1.9-0.9,3.4-2.4,5.1-3.7c0.8-0.6,1.5-1.4,2.3-2.2
		c1,1,1.7,2,2.6,2.7c1.7,1.3,3.3,2.6,5.2,3.6c2.8,1.4,5.7,1,8.3-0.8c2.1-1.5,3.2-3.7,3.6-6.2C108.9,550.2,109,547.8,109.3,545.1z
		 M483.9,1.4c-0.8-0.2-0.9-0.3-1.1-0.3c-4.6,0-9.2,0.1-13.8-0.1c-2,0-3.6,0.5-5.2,1.5c-30,18.8-54.2,43.2-73,73.1
		c-15.2,24.2-25.8,50.3-32.8,77.9c-1.2,4.7-2.2,9.4-3.3,14.2c1.2,0.7,2.1,1.2,3.2,1.9c0.3-1.1,0.5-1.8,0.7-2.6
		c5-22.6,12.4-44.5,22.9-65.2c21.4-42,52.6-74.5,94.5-96.5C478.5,4.2,481,2.9,483.9,1.4z M594,584.1c0-21.9,0-43.8,0-65.9
		c-8.1,1.1-13.8,5.3-17.8,12c-1.1-0.1-2.2-0.1-3.2-0.2c-0.5,2.9-0.4,44,0.2,46.1c0.9,0.1,1.9,0.1,2.8,0.2c4,0.6,8,1.3,12,2
		c1.8,0.3,2.8,1.4,3,3.4C591.3,584.1,591.4,584.1,594,584.1z M137.7,558.8c-7,0.5-13.9,1-20.6,1.5c-0.7,3-1.1,5.7-2.1,8.2
		c-2.3,6.1-8.2,9-14.5,7.5c-0.7-0.2-1.3-0.3-2.2-0.4c-0.8,5.6-1.5,11.1-1.8,16.7c17.6-1.2,34.8-2.3,52.4-3.5
		C145.1,578.7,141.4,568.9,137.7,558.8z M547.4,579.3c-1.4,0.2-2.7,0.4-3,1.9c-1.2,6.4-2.3,12.8-3.5,19.2c-0.3,1.3,0.3,2.1,1.4,2.5
		c1.5,0.5,3,1.1,4.5,1.4c8.1,1.7,16.3,1.8,24.5,1.7c6.1-0.1,12.1-0.6,18.1-2.1c4-1.1,4.4-1.6,3.6-5.7c-1-5.1-2.1-10.2-2.9-15.3
		c-0.3-2.3-1.3-3.4-3.8-3.6c0.9,1.3,0.4,2.1-0.9,2.3c-1.1,0.3-2.2,0.5-3.4,0.6c-8.9,1.1-17.7,0.9-26.6,0.4c-1.9-0.1-3.8-0.5-5.7-0.8
		C548.3,581.5,547.3,581,547.4,579.3z M58.5,688.4c1.3-2.6,1.4-5.1,0.6-7.8c-2-7.1-3.7-14.3-5.5-21.5c-0.8-3.2-1.7-6.5-2.5-9.8
		c-5.7,0-11.2,0-17.2,0c-3.7,12.3-7.4,24.9-11.2,37.4C27,689.9,50.5,690.8,58.5,688.4z M426.2,204.8c2.9,0,5.3-0.1,7.6,0
		c1.9,0.2,2.7-0.7,3.5-2.4c3.2-6.9,6.3-13.8,9.9-20.4c5.8-10.6,13.2-20,22.7-27.7c10.9-8.8,23.3-14.1,37.4-15.1
		c5-0.3,9.9-0.2,14.8,0.6c2.1,0.3,4.1,0.6,5.8-1.3c-0.4-0.2-0.7-0.4-1-0.5c-10.7-3-21.6-4.2-32.7-2.7c-17.5,2.4-32,10.5-43.8,23.5
		c-9.2,10.1-15.7,21.9-20.3,34.7C428.6,197.2,427.5,200.9,426.2,204.8z M475.9,565.1c1.6-4.5,5.4-23.7,5.2-26.4
		c-2.2,0.1-4.5,0.2-6.8,0.3c-0.2-0.4-0.4-0.7-0.6-1.1c-4.1-7.5-12.3-8.9-18.7-3.2c-1.1,1-1.9,0.9-3,0.4c-2.4-1-5-1.6-7.8-0.9
		c-0.7,9.1-1.4,18.1-2.2,27.1C453.3,562.6,464.6,563.8,475.9,565.1z M113.8,636.8c0,0.1-0.2,0.4-0.3,0.7c-1.8,5.9-3.6,11.8-5.3,17.7
		c-0.3,1.1-0.3,2.5,0,3.6c1.2,5.2,2.6,10.4,4,15.6c0.2,0.8,0.5,1.5,0.7,2.1c8.7,1.5,23.9,0.7,27.7-1.6c-3.2-12.7-6.5-25.4-9.7-38.1
		C125,636.8,119.5,636.8,113.8,636.8z M563,468.9c-0.5,3.1-0.4,109,0.1,110.9c3,0.7,6.1,0.6,8.2-0.2c0.5-5.2,0.3-108.8-0.3-110.8
		C568.4,468.9,565.8,468.9,563,468.9z M594,162.8c-0.5,0-0.7-0.1-0.9-0.1c-0.3,0-0.5,0.1-0.8,0.1c-10.1,2.4-19.2,0.3-27.6-5.6
		c-2-1.4-4-2.9-6.1-4.2c-8.4-5.5-17.2-10.1-26.7-13.3c-1.8-0.6-3.2-0.5-4.6,1.1c0.7,0.2,1.3,0.4,1.9,0.6c9.1,2.4,17.2,6.8,24.5,12.7
		c9.4,7.5,16.7,16.9,22.7,27.3c6.7,11.5,11.7,23.7,16,36.2c0.3,0.9,0.7,1.9,1.1,2.8c0.1,0,0.2-0.1,0.3-0.1
		C594,201.1,594,182,594,162.8z M561.4,576.1c0-1.3,0-2.2,0-3.2c0-9.8,0-19.6,0-29.4c0-5.6,0-11.1,0-16.7c0-1.1,0-2.1-0.9-2.9
		c-4.4-4.1-11.9-6.1-18.1-2.3c0,5.2,11.3,50.8,13.6,54.8C557.7,576.4,559.3,576.3,561.4,576.1z M200.3,558.2
		c62.7,1.1,124.2-6.4,184.7-22.4c0.1-1.4,0.2-2.5,0.3-3.7c-0.9,0.2-1.5,0.3-2.1,0.4c-11.4,3.5-23,6-34.7,8.3
		c-20,3.9-40.1,6.8-60.4,9.1c-20.2,2.3-40.4,4.1-60.6,4.7c-7.4,0.2-14.8,0.1-22.2,0.1c-2,0-3.9,0-6.2,0
		C199.5,555.9,199.8,556.9,200.3,558.2z M82.2,613.9c-3,9.9-5.9,19.8-8.9,29.7c5.3,3.1,24.5,3.4,29.8,0.5
		c-2.6-10.1-5.1-20.2-7.7-30.3C89.2,615.5,86,615.1,82.2,613.9z M306.8,553.1c25.6,1.1,51.3,2.1,76.9,3.2c0.4-6.3,0.8-12.6,1.3-19.3
		C359,544.1,333,549.1,306.8,553.1z M481.9,537.7c1.5-9.7,2.9-19.1,4.5-29.1c-1.4,0.9-2.2,1.3-3,1.8c-8,5-16.6,7.7-26,8
		c-3.8,0.1-7.3,0.2-10.5,2.5c-0.1,0.1-0.2,0.1-0.2,0.1c-1.2,0.3-1.7,1-1.8,2.3c-0.1,2.6-0.4,5.1-0.5,7.7c0,0.6,0.1,1.1,0.1,1.4
		c3.2,0.6,6.1,1.2,9.3,1.8c2.9-3.1,6.8-4.6,11.4-3.9c4.6,0.7,7.7,3.5,9.7,7.4C477.3,537.7,479.4,537.7,481.9,537.7z M88.8,540.1
		c1.4,1.1,2.6,2.3,4,3.1c3.1,1.9,6.3,0.6,7.3-2.8c0.3-1,0.4-2.1,0.5-3.1c0.1-0.7,0.1-1.3,0.2-2.3c1.4,0,2.6,0.1,3.8,0
		c3-0.3,5-2.3,5.1-4.8c0.1-3-2.8-6.2-5.8-6.5c-9.8-0.8-19.7-0.6-29.6-0.1c-2.3,0.1-3.7,1.2-4.9,2.9c-2.4,3.6-1,7.3,3.3,8.2
		c0.8,0.2,1.6,0.1,2.4,0.2c0.7,0.1,1.3,0.2,2.2,0.3c0,1.3-0.1,2.4,0,3.6c0.4,4.9,4.6,6.8,8.5,3.9C86.9,541.9,87.8,541,88.8,540.1z
		 M14.9,545.1c0.3-0.2,0.4-0.3,0.4-0.3c0.2-0.9,0.4-1.7,0.7-2.6c1.6-6,4.3-11.5,8.9-15.6c2.7-2.4,4-5.1,4.2-8.6
		c0.2-2.7,0.6-5.3,1-8.1c-13.9,7.5-15,7.5-28.7,9c-0.5,2.9-0.4,24.8,0.2,26.8C6,544,10.5,544.1,14.9,545.1z M16.1,546.6
		c-1.3-0.3-2.2-0.5-3-0.7c-3.3-0.7-6.6-0.6-9.9,0.4c-2,0.6-2.1,0.7-2.1,2.8c0,6.7,0,13.4,0,20.1c0,0.6,0.2,1.1,0.3,1.8
		c6-0.7,11.8-1.5,17.7-2.2c3.6-14.3,6.5-28.6,8.4-43.1c-1.7,1.4-3.2,2.8-4.4,4.5C19.3,534.9,17.2,540.4,16.1,546.6z M118.5,501.4
		c-0.6,0.2-1.2,0.3-1.7,0.5c-6.1,2.2-12.2,2.4-18.5,0.9c-8.3-2-14.9-6.7-20.2-13.3c-0.6-0.8-1.2-1.5-1.9-2.3
		c0.6,6.5,1.7,12.7,2.6,19c0.3,2.2,1.3,3.4,3.1,4.5c6.8,3.9,14,6.2,21.8,6.6c4.9,0.3,9.8-0.2,14.7-1.8
		C118.5,510.8,118.5,506.2,118.5,501.4z M594.2,466.1c-4.2,2.6-4.2,2.6-9.1,2.6c-2.3,0-4.6,0-6.9,0c-1.7,0-3.5,0.1-5.1,0.2
		c-0.6,3.7-0.4,30.3,0.2,32.1c0.2,0,0.5,0,0.8,0c8-1.3,14.4-5.4,19.3-11.9c0.5-0.7,0.8-1.8,0.8-2.7c0.1-3.3,0-6.7,0-10
		C594.2,473.1,594.2,469.8,594.2,466.1z M54.5,702c-4.1,0.6-7.5,1.5-10.9,3c-0.3,0.1-0.6,0.3-0.9,0.5c-3.1,1.9-3.2,3.7-0.4,5.9
		c0.7,0.5,1.5,1,2.3,1.4c1.9,0.9,3.9,1.7,5.9,2.4c8.3,2.7,16.8,4,25.4,4.7c10.8,0.9,21.7,0.8,32.5-0.5c6.4-0.8,12.7-1.8,18.8-4.3
		c1.6-0.6,3.2-1.5,4.6-2.6c1.8-1.4,1.8-3,0-4.4c-3.5-2.7-7.6-3.6-12.3-4.7c0.5,1.8,0.8,3,1.1,4.3c0.7,2.6,0.2,3.7-2.3,4.9
		c-0.9,0.4-1.8,0.8-2.7,1c-3.1,0.6-6.2,1.4-9.4,1.5c-8.4,0.4-16.9,0.6-25.4,0.6c-6.6,0-13.2-0.6-19.7-2.2c-2-0.5-4.1-1.2-5.9-2.2
		c-2.3-1.2-2.7-2.3-2-4.8C53.6,705,54,703.7,54.5,702z M488.9,484c-0.2-0.1-0.4-0.1-0.6-0.2c-3.7,5.2-8.1,9.8-13.5,13.1
		c-5.5,3.4-11.5,5-17.8,5.7c-0.9,8.7-0.9,8.7-4.1,14.9c3-0.2,5.8-0.2,8.5-0.5c8.7-1,16.5-4.1,23.7-9.1c0.9-0.6,1.4-1.4,1.5-2.6
		c0.2-2.5,0.6-4.9,0.8-7.4C488,493.3,488.5,488.7,488.9,484z M1.3,517.2c0.7,0.1,1.2,0.2,1.7,0.1c9.6-0.3,18.3-3.3,26.2-8.7
		c1.1-0.7,1.4-1.7,1.5-2.9c0.6-5.8,1.2-11.6,1.8-17.4c0.1-0.5,0-1.1,0-2.2c-3.9,5.5-8.1,9.8-13.5,12.9c-5.4,3.2-11.3,4.7-17.7,4.7
		C1.3,508.4,1.3,512.7,1.3,517.2z M143.9,712c-4.1,0.7-7.8,1.4-11.1,3.2c-2.8,1.6-2.8,3.2,0.1,4.8c1.8,1,3.8,1.8,5.8,2.4
		c7,2.1,14.3,3,21.6,3.6c11.2,0.9,22.4,1.1,33.5,0c5.2-0.5,10.5-1.5,15.6-2.6c1.9-0.4,3.8-1.4,5.5-2.4c1.7-1,1.7-2.3,0.2-3.6
		c-0.6-0.5-1.3-1-2-1.2c-2.5-0.9-5-1.7-7.5-2.5c-0.5-0.2-1.1-0.1-1.8-0.1c0.3,1.4,0.6,2.5,0.8,3.6c0.4,1.8,0.1,2.4-1.6,3
		c-1.3,0.5-2.7,0.9-4.1,1.1c-16.4,2.6-32.7,2.2-49-0.7c-1.8-0.3-3.6-0.8-5.3-1.5c-2.1-0.8-2.4-1.4-1.8-3.6
		C143.3,714.4,143.6,713.4,143.9,712z M536.1,484.2c-0.1,0.8-0.2,1.1-0.1,1.4c1.1,7.1,2.3,14.3,3.5,21.4c0.2,1.2,1,1.8,1.9,2.4
		c4.8,3,9.8,5.1,15.3,6.5c1.5,0.4,3.1,0.6,4.7,0.9c0-5.2,0-10.1,0-15c-5.2-1.2-9.8-3.3-14-6.3C542.9,492.5,539.4,488.7,536.1,484.2z
		 M60.7,681.1c3.6-12.2,7.3-24.4,11-36.8c-7,0-13.6,0-20.6,0C53.9,656.8,57.2,668.9,60.7,681.1z M572.9,517.1
		c7.5-0.6,14.1-2.8,20.2-6.5c1-0.6,1.1-1.5,1.1-2.5c0-5.2,0-10.4,0-15.6c0-0.6-0.1-1.1-0.1-2.4c-5.8,7.1-12.7,11-21.1,12.2
		C572.9,507.3,572.9,512.1,572.9,517.1z M184.9,644.6c-0.1-0.7-0.1-1.2-0.2-1.7c-1.2-4.7-2.4-9.4-3.6-14.1c-0.7-2.8-2.7-4.3-5.5-4.3
		c-2.7,0-4.7,1.4-5.5,4.1c-1.4,4.6-2.8,9.3-4.2,13.9c-0.2,0.6-0.1,1.2-0.2,1.9C172.2,644.7,178.4,645.5,184.9,644.6z M130.4,715.2
		c-2.5,0.9-4.9,1.8-7.4,2.5c-11.3,3.2-22.9,3.9-34.6,3.9c-4.8,0-9.7-0.4-14.5-0.8c-8.4-0.7-16.6-2-24.6-4.8c-3.1-1.1-6-2.6-9.1-4
		c-0.3,1.5,0.7,2.5,1.7,3.2c1.7,1.1,3.4,2.2,5.3,3c7,2.9,14.3,4.3,21.7,5.3c12,1.6,24.1,1.8,36.1,0.6c7.1-0.7,14.1-1.9,20.9-4.4
		C128.3,718.8,130,717.8,130.4,715.2z M185.5,646.2c-7-0.2-13.7-0.3-20.5-0.5c-1.1,3.6-2,6.9-3.1,10.6c8.9,1.5,17.5,1.6,26.4,0.5
		C187.2,653,186.3,649.5,185.5,646.2z M130.8,720.2c-0.4,1.9,0.7,2.8,1.8,3.5c1.7,0.9,3.4,1.9,5.3,2.4c3.7,1,7.5,2,11.3,2.7
		c14.4,2.4,28.9,2.8,43.5,1.5c5.3-0.5,10.6-1.5,15.9-2.6c2.1-0.4,4.1-1.5,6.1-2.5c1.1-0.5,1.9-1.5,1.6-3c-2.3,0.8-4.5,1.8-6.7,2.4
		c-7.2,2.1-14.5,2.7-21.9,3c-10.8,0.5-21.7,0.3-32.5-1C146.8,725.6,138.5,724.5,130.8,720.2z M81.8,521.9c12.5-0.3,24.8,0.2,37,2.6
		c-0.1-2.2-0.2-4-0.4-6c-2.5,0.8-4.7,1.4-6.9,2.1c-0.6-0.7-1.2-1.5-1.8-2.2c-10.6,0.7-20.4-1.9-30-7.7
		C80.5,514.9,81.2,518.4,81.8,521.9z M575.6,529.2c4.3-7.1,10.5-11,18.4-12.2c0-1.8,0-3.4,0-5.5c-6.7,4-13.6,6.2-21.1,6.9
		c0,3.6,0,6.9,0,10.3C573.8,528.8,574.6,529,575.6,529.2z M81.7,577.9c0.3,2.7,0.5,5,0.8,7.4c0.1,0.5,0.3,1.1,0.7,1.3
		c2,1.4,4,2.7,5.8,4c2.3-1.5,4.5-3.1,6.9-4.7c0.3-2.5,0.6-5.1,0.9-8c-3.6,0.4-5.5,3-7.8,5C86.7,580.9,85,578.5,81.7,577.9z
		 M57.7,690c-0.9,0.1-1.8,0.1-2.6,0.2c-8.2,1-16.4,0.9-24.5-0.2c-2.4-0.3-4.9-0.9-7.2-1.5c-1.7-0.5-1.9-1-1.6-2.7
		c0.1-0.6,0.2-1.1,0.3-1.9c-3,0.7-5.8,1-8.1,3.4c1,0.7,1.7,1.4,2.5,1.7c1.5,0.6,3.1,1.3,4.7,1.6c4.3,0.7,8.7,1.5,13.1,1.9
		c7.2,0.6,14.4,0.6,21.6-0.2C57.3,692.2,58,691.7,57.7,690z M48.7,640.2c-0.9-3.5-1.7-6.9-2.6-10.3c-0.4-1.5-1.7-2-3-2.1
		c-1.4-0.1-2.8,0.4-3.2,1.8c-1.1,3.4-2.1,6.8-3.2,10.6C40.8,640.2,44.6,640.2,48.7,640.2z M128.6,627.6c-0.9-3.5-1.7-6.8-2.5-10
		c-0.4-1.6-1.4-2.3-3.1-2.4c-1.7-0.1-2.9,0.5-3.4,2c-1.1,3.3-2,6.7-3.1,10.4C120.6,627.6,124.4,627.6,128.6,627.6z M114.2,635.2
		c5.6,0.7,10.8,1.2,16.3,0.1c-0.6-2.3-1.1-4.4-1.7-6.5c-4.4,0-8.5,0-12.8,0C115.4,630.9,114.9,632.9,114.2,635.2z M88.9,600.2
		c1.8-1.2,3.5-2.3,5.1-3.5c0.5-0.4,1.1-1,1.1-1.6c0.3-2.3,0.3-4.7,0.5-7.2c-3,0.6-4.5,3-6.6,4.5c-2.1-1.4-3.4-3.9-6.4-4.4
		c0.2,2.9,0.4,5.6,0.5,7.9C85.3,597.4,87.1,598.8,88.9,600.2z M34.3,647.7c5.5,1,10.8,1.1,16.3,0.3c-0.6-2.4-1.2-4.5-1.7-6.6
		c-4.4,0-8.6,0-12.8,0C35.6,643.5,35,645.5,34.3,647.7z M94.8,605.5c0-2.4,0-5,0-8.1c-1.2,0.8-2.2,1.4-3,2.1
		c-0.9,0.7-1.8,1.6-2.7,2.5c-2-1.4-3.1-3.7-5.7-4.1c0,2.7,0,5.3,0,7.6c2,1.6,3.9,3,5.7,4.4C90.9,608.5,92.8,607.1,94.8,605.5z
		 M561.3,518c-7.5-1.2-14.5-3.8-21.4-8c0.7,3.8,1.4,7,2,10.4c7-2.9,13.4-2.1,19.4,2.7C561.3,521.1,561.3,519.7,561.3,518z
		 M86.8,570.1c-1.8,1.4-3.2,2.5-4.7,3.6c-1.4,1.1-1.1,2.3,0.5,3.2c1.8,1,3.5,2.2,5.3,3.4c0.4,0.3,0.8,0.6,1.3,0.9
		c2.2-2,4.2-3.9,7.2-4.5c1.1-0.2,1.3-1.5,0.3-2.2c-1.4-1-2.9-2-4.4-3c-0.7,0.6-1.3,1.1-2.1,1.8C89,572.1,87.9,571.1,86.8,570.1z
		 M113.5,677.9c0.3,2,0.3,2.1,2.2,2.1c5.9,0,11.8,0.2,17.7-0.1c4-0.2,8-1.2,11.9-2c1.3-0.3,2.7-0.8,3.4-2.2c-1.7-2-4.7-3.3-7.4-3.1
		c0.1,0.3,0.1,0.7,0.2,1c0.4,2.2,0.1,2.6-1.9,3.2c-0.6,0.2-1.2,0.3-1.8,0.4c-6.5,0.8-12.9,1.4-19.5,0.9
		C116.6,678,115.1,678,113.5,677.9z M56.8,693.5c-0.4-0.1-0.6-0.1-0.9-0.1c-4.7,0.2-9.5,0.5-14.2,0.5c-7.6,0-15.1-0.6-22.5-2.7
		c-1.6-0.4-3.1-1-4.6-1.6c0.4,0.9,1,1.5,1.7,1.8c1.7,0.7,3.4,1.4,5.2,1.8c9,2.2,18.1,2.4,27.3,2.2c2.2-0.1,4.4-0.3,6.6-0.5
		C56.2,694.9,56.9,694.8,56.8,693.5z M94.6,607.7c-0.2-0.1-0.4-0.2-0.6-0.4c-1.7,1.4-3.4,2.8-5.1,4.2c-2-1.2-3-3.6-5.8-4
		c0,1.5,0,2.8,0,4.1c0,0.9,0.2,1.6,1.2,1.8c3.1,0.7,6.3,0.8,9.3-0.4c0.4-0.2,0.9-0.9,0.9-1.4C94.7,610.3,94.6,609,94.6,607.7z
		 M113.8,681.1c1,1.5,1,1.5,2.2,1.6c7.4,0.4,14.8,0.4,22.2-0.7c2.7-0.4,5.3-1.2,7.9-2c0.9-0.3,1.7-1,2.5-1.5
		C137.2,682,125.7,681.5,113.8,681.1z M116.8,559.2c5.3-0.4,10.4-0.8,16-1.2c-4.6-2.4-4.6-2.3-8.7-1.9c-1.5,0.2-3,0.2-4.5,0.3
		c-0.9,0-1.9,0.1-2.9,0.1C116.8,557.5,116.8,558.1,116.8,559.2z M104.6,644.6c0.8,3.2,1.6,6.2,2.4,9.1c0.1,0,0.3,0,0.4,0
		c0.9-3,1.8-5.9,2.7-9.1C108.3,644.6,106.6,644.6,104.6,644.6z M572,581.5c4.6,0.4,10.6-0.2,13-1.6c-4.3-0.4-8.1-0.7-11.8-1
		C572.7,579.9,572.4,580.6,572,581.5z M561,578.9c-3.7,0.1-7.5,0.3-11.1,1.4c4.1,1.1,8.3,1.4,12.6,1.3
		C561.9,580.7,561.5,579.9,561,578.9z M591.7,585.4c0.7,3.7,1.4,7.1,2.1,10.6c0.4-3,0.4-6,0.5-9
		C594.2,585.5,593.4,585.1,591.7,585.4z M90,571.6c1.3-1.5,1.3-1.5-1.3-3.6c-0.3,0.4-0.7,0.7-1.2,1.3
		C88.4,570.1,89.1,570.8,90,571.6z M111.7,518.2c0,0.3,0.1,0.6,0.1,0.9c1.7,0.1,3.1-0.8,4.6-1.6C114.8,517.7,113.2,518,111.7,518.2z
		 M557.4,577.5c0,0.1,0,0.2,0,0.2c1,0,2.1,0,3.1,0c0-0.1,0-0.2,0-0.2C559.5,577.5,558.5,577.5,557.4,577.5z M554.5,578.2
		c0-0.1,0-0.1-0.1-0.2c-0.3,0-0.6,0-1,0.1c0,0,0,0.1,0,0.1C553.9,578.2,554.2,578.2,554.5,578.2z"/>
	<path class="st0" d="M148.2,340.9c-2.4-21.1-5.4-41.8-10-62.5c3.3,0.6,6.3,1.2,9.3,1.6c10.1,1.3,20.2,1.5,30.3-0.9
		c2.6-0.6,5.3-1.6,7.6-2.9c5-2.9,6.3-9.3,3.1-14.1c-2.6-3.8-6.9-5-11.1-3.1c-0.4,0.2-0.8,0.4-1.2,0.2c-1.5-0.2-3.1-0.3-4.6-0.6
		c-0.5-0.1-1-0.3-1.4-0.5c-1.2-0.7-2.3-1.5-3.8-2.4c-0.2-4.6-2.2-8.4-7.2-9.9c-5.4-1.6-9.7,0.3-13.3,4.7c-4.4-4.7-9.8-5.4-15.9-3.4
		c-0.3-1-0.7-1.9-0.9-2.8c-4.1-12.3-8.9-24.4-15.4-35.6c-5.6-9.6-12.3-18.3-20.9-25.4c-23.4-19.2-57.2-19-80.6,2.6
		c-3.8,3.5-7.2,7.5-10.9,11.3c0.1,0,0,0,0,0c-0.1,0-0.2-0.1-0.2-0.2c0-27.1-0.1-54.2-0.1-81.3c0-0.7,0.1-1.4,0.1-2.2
		c1.4,0,2.7-0.1,4,0c8.7,0.5,17.4,1.2,26.1,1.4c16.9,0.5,33.7,0.2,50.5-1.6c5.6-0.6,11.2-1.7,16.7-2.7c3-0.5,5.7-1.7,7.8-4.1
		c2.6-2.9,3.3-6.2,1.9-9.8c-1.6-4.3-5.7-6.2-10.1-4.7c-1.4,0.5-2.8,1.1-4.2-0.1c-2.8,0.5-4.6-1.6-6.8-2.7c-0.2-0.1-0.3-0.2-0.6-0.4
		c0.1-4.8-2.2-8.3-6.9-10c-1.2-6.8-5.3-10.8-11.9-12.3c-5-1.1-9.5,0.1-13.2,3.7c-2.2,2.2-4.1,4.6-6.3,7c-0.5-0.3-1.1-0.6-1.6-1
		c-5.6-3.6-14.2-4.8-20.7,0.9c-0.4,0.3-0.9,0.7-1.3,0.7c-3.3,0-6.2,1.2-9.2,2.9c-3.5-5.2-6.9-10.6-14.2-10.7
		c-0.1-0.8-0.2-1.5-0.2-2.1c0-15.4-0.1-30.7,0-46.1c0-11.1,9.6-20.6,20.6-20.8c1.1,0,2.3,0,3.4,0c144.5,0,288.9,0,433.4,0
		c1.5,0,2.9,0,4.4,0c0.1,0.2,0.1,0.4,0.2,0.6c-17.3,10.9-33,23.8-46.8,38.8c-13.9,15-25.6,31.6-35.4,49.7c-2.9-0.1-5.6,0.5-8.1,2.2
		c-2-1.2-4-2-6.3-1.3c-0.4,0.1-1.1-0.2-1.3-0.5c-1.4-1.6-3.1-2.6-5.3-2.8c-0.1-6.7-2.8-11.7-9.4-13.5c-6.9-1.9-12.4,0.6-16.8,6.2
		c-0.3-0.2-0.6-0.3-0.8-0.6c-6.8-8-22.1-7.4-28.4,4c-3.6,6.6-3.6,13.5-0.2,20.3c1.6,3.3,4.5,5.4,7.6,7.2c5.1,2.9,10.7,4.6,16.4,5.7
		c12.2,2.5,24.5,3.1,36.8,1.7c0.7-0.1,1.4,0,2.5,0c-6,15.7-10.7,31.7-14.2,48.4c-6.4-3.1-12.7-4.3-18.8-0.1c-5.8,4-9,9.4-8,16.7
		c-0.5,0.2-0.8,0.4-1.1,0.5c-7.3,1.8-12.4,6.9-13.2,16.2c-0.2,2-0.4,4-0.6,6.2c-1.8,0.3-3.6,0.6-5.3,1c-2.7,0.6-5.3,1.2-7.9,2.1
		c-5.6,2-8.6,6.2-9.5,12c-1.1,7.6,1.4,12.7,8,16.6c4.9,2.9,10.1,4.4,15.7,5.3c15.4,2.8,30.9,4.5,46.5,5.4c11.8,0.7,23.6,1,35.4,0.8
		c8.5-0.2,17.1-0.7,25.6-1.1c0.6,0,1.2,0,2.1,0c-8.6,36.5-13,73.5-16.3,110.8c-0.4-0.8-0.7-1.7-1.1-2.5c-5-12.6-10.5-24.9-17.6-36.4
		c-2.4-4-5.2-7.8-7.9-11.6c-5.8-8.4-14.1-13.1-23.7-15.7c-7.6-2-15.4-3.1-23.3-3.2c-7.8-0.2-15.7-0.4-23.5-0.2
		c-21.4,0.5-42.6,1.9-63.7,5.4c-19,3.1-37.8,7-56.3,12.4c-6.2,1.8-12.1,4.2-17.9,7.2c-9.9,5-17.4,12.2-21.3,22.8
		c-0.3,0.8-0.7,1.6-1.1,2.4C148.8,340.4,148.6,340.5,148.2,340.9z"/>
	<path class="st0" d="M151.1,417.6c0-14.5,0-33.5,0-52.4c0-7.4,0.2-14.8,0.4-22.2c0.2-7.9,3.5-14.3,9.2-19.5
		c4.8-4.3,10.3-7.4,16.2-9.9c9.1-4,18.6-6.5,28.2-8.8c19.1-4.6,38.4-8.4,58-10.5c10.9-1.2,21.8-1.9,32.7-2.5
		c12.7-0.7,25.4-0.9,38.1-0.3c9.6,0.4,19.2,1.7,28.2,5.3c6.3,2.5,11.8,6,15.2,12.1c1.5,2.7,2.6,5.6,3.4,8.6
		c4.7,18.5,9.4,36.9,13.7,55.4c5.2,22.4,10.3,44.8,15.1,67.3c2.9,13.3,5.2,26.8,7.6,40.3c1.4,7.6,1.3,15.1-1.1,22.5
		c-4,12.8-12.7,21.1-25.1,25.8c-8.9,3.4-18.2,5.7-27.5,7.8c-18.2,4.1-36.7,7.2-55.2,9.8c-16.9,2.3-33.8,4.2-50.7,5.6
		c-13,1-26,1.9-39.1,1.8c-8-0.1-16-0.3-24-0.6c-5.7-0.3-11.4-1.3-16.6-3.8c-11.9-5.8-18.9-15.6-22-28.2c-1-4-1.4-8.2-1.6-12.3
		c-0.7-11.6-1.3-23.2-1.7-34.9C151.9,456.5,151.6,439.3,151.1,417.6z M160.7,366.2c0.1,0,0.1,0,0.2,0c0,3.3-0.1,6.5,0,9.8
		c0.1,5.4,0.2,10.8,0.6,16.1c0.4,5,2.6,9,7.4,11c1.7,0.7,3.5,1.2,5.3,1.6c4.3,1,8.6,0.4,12.9-0.1c15.4-1.9,30.8-3.7,46.2-5.6
		c12.6-1.5,25.2-3,37.8-4.5c15.4-1.8,30.8-3.7,46.2-5.6c15.5-1.9,31-3.7,46.5-5.5c4-0.5,7.7-1.8,11.2-3.7c4.7-2.7,7.2-6.6,6.9-12.2
		c-0.1-1.5-0.2-3-0.5-4.5c-3-14.8-6.5-29.4-10.8-43.9c-1.5-5.1-4.6-8.8-9.2-11.4c-3.7-2-7.6-3.3-11.7-4.2c-8.8-2-17.8-2.5-26.8-2.4
		c-5.7,0-11.5,0.1-17.2,0.2c-15.8,0.2-31.5,1.4-47.2,3.4c-17.8,2.3-35.5,5.8-53,10.1c-8.7,2.1-17.4,4.5-25.6,8.3
		c-5.1,2.3-9.9,5.1-13.8,9.2c-3,3.1-4.7,6.8-4.8,11.1C161.3,351,161,358.6,160.7,366.2z M282,518.7c11.8,0,20.1-3.4,27.1-9.9
		c0.6-0.6,1.3-1.3,1.7-2c0.5-0.8,0.4-1.7-0.4-2.4c-0.7-0.7-1.6-0.7-2.4-0.1c-0.5,0.4-0.9,0.8-1.4,1.2c-10.9,10.4-26,12.2-39,4.5
		c-0.5-0.3-1-0.7-1.6-0.9c-0.9-0.3-1.7-0.1-2.3,0.7c-0.6,0.9-0.5,1.7,0.2,2.4c0.5,0.5,1.1,0.9,1.7,1.3
		C271.4,516.9,277.5,518.8,282,518.7z M279.7,464.6c10.9,0,19.5-8.6,19.5-19.4c0-10.8-8.8-19.6-19.5-19.5
		c-10.6,0-19.6,8.3-19.5,19.5C260.3,458.1,271.2,465.1,279.7,464.6z"/>
	<path class="st0" d="M561.3,468.8c0,10.7,0,21.1,0,31.8c-11.9-2.9-20.1-10.2-26.5-20.6c-0.6,1.1-1,1.8-1.4,2.5
		c-4.6,9-13.3,14.2-23.3,13.2c-8.3-0.8-14.5-5-18.7-12.2c-0.6-1-1-2-1.6-3.1c-1.2,0.3-1.5,1.3-2,2.1c-5,7.7-11.6,13.5-20.3,16.7
		c-3.4,1.3-6.9,2.2-10.7,2c-0.3-2.8-0.5-5.5-0.8-8.2c-2.3-16.9-6.3-33.4-12.9-49.2c-2.1-5-4.6-9.9-9.2-13.8
		c9-2.1,15.5-6.7,19.6-14.5c3-5.9,3.8-12.1,2.3-18.5c-1.7-7.4-5.9-13.1-12.3-17.1c-6.4-3.9-13.3-4.8-20.7-3.3c0-1.3-0.1-2.5,0-3.6
		c0.8-9.9,1.4-19.9,2.4-29.8c1.4-13.4,3-26.8,4.7-40.2c1.8-14,4.4-27.9,7.5-41.6c4.2-18.5,9.3-36.7,16.9-54.2
		c4.5-10.2,9.7-20,16.7-28.7c5-6.3,10.6-11.9,17.6-15.8c17.1-9.5,33.9-8.7,50.2,2.1c8.3,5.5,14.5,13.1,19.8,21.4
		c7.5,11.6,13,24.2,17.5,37.2c6.3,18.2,10.7,36.9,14.2,55.8c1.3,6.9,2.4,13.9,3.5,20.9c0.2,1.4,0.3,2.8,0.3,4.2
		c0,18.4,0,36.7,0,55.1c0,0.6-0.1,1.2-0.1,2.4c-2.4-2.6-5.1-2.9-7.9-3.4c-2.4-0.4-3.9-1.7-4.8-4c-0.7-1.8-1.5-3.6-2.4-5.3
		c-2.7-5-7-7.6-12.6-7.8c-4.1-0.1-8.1-0.1-12.2-0.1c-1.3,0-2.7,0.2-3.8,0.8c-1.7,0.8-1.5,2.3,0.1,3.2c0.4,0.2,0.8,0.3,1.2,0.4
		c0.4,0.2,0.8,0.4,1.1,0.7c-2.6,0.1-4.6,1-6.3,2.9c-0.3,0.3-0.6,0.6-0.8,1c-0.6,1-1.4,2.1-0.5,3.2c0.9,1.2,2,0.4,3.1-0.1
		c0.6-0.3,1.3-0.3,1.9-0.5c0.7,2.2,0.5,3.2-1.2,4.2c-1.3,0.7-2.8,1.3-4.2,1.5c-5.6,0.7-8.5,4.8-8.7,10.8c0,0.3,0,0.5,0,0.8
		c0,29,0,58.1,0,87.1c0,2,0.3,4.1,0.9,5.9c1.4,3.7,4.3,5.7,8.3,5.7C550.6,468.8,555.8,468.8,561.3,468.8z"/>
	<path class="st0" d="M163.9,645.1c-9.9-0.4-19.8-0.8-30-1.2c-0.6-2.5-1.3-5-2-7.5c-1.6-6.3-3.2-12.6-4.8-18.9
		c-0.6-2.2-2-3.2-4.2-3.3c-2.2-0.1-3.9,0.9-4.6,3.2c-1.9,6.1-3.7,12.3-5.6,18.5c-0.7,2.4-1.4,4.9-2.1,7.2c-0.3,0.2-0.5,0.3-0.6,0.4
		c-5.7,0.4-5.7,0.4-7.1-5.1c-2-7.9-3.8-16-6.1-23.8c-2.1-7-0.3-13.7-0.6-20.9c17.9-1.2,35.4-2.4,53-3.6c0.4,1.1,0.9,1.9,1.2,2.8
		c1.6,4.9,5.6,7.3,11,6.6c3.9-0.5,7.8-1.5,11.5-2.7c7.1-2.4,14-5.3,21-7.9c0.9-0.3,1.9-0.6,2.8-0.6c28.6-0.9,57.2-1,85.7-0.5
		c13,0.2,25.9,0.5,38.9,1.1c16.9,0.8,33.8,1.8,50.7,2.9c11.8,0.8,23.6,1.7,35.3,2.9c12.3,1.2,24.6,2.5,36.8,4
		c12.9,1.5,25.7,3.2,38.5,5c13.7,2,27.4,4,41,6.5c19.1,3.4,38.1,7.2,57.1,10.9c4.4,0.8,8.8,1.9,13.3,2.9c0,1,0,1.9,0,2.8
		c0,31.1,0,62.1,0,93.2c0,1.8-0.3,3.6-0.5,5.6c-0.9-0.2-1.5-0.3-2.1-0.5c-36.4-12.3-73.3-23.2-110.5-32.8c-27.5-7-55.1-13.5-83-18.7
		c-20.7-3.9-41.4-7.5-62.2-10.9c-14.5-2.4-29.1-4.2-43.7-6c-13.3-1.7-26.6-3.2-39.9-4.6c-10.9-1.1-21.8-2-32.7-2.9
		c-10-0.8-20.1-1.4-30.1-2.2c-2.5-0.2-2.6-0.1-3.2-2.6c-1.3-5-2.5-10.1-3.9-15.1c-1.1-4.3-4.4-6.1-8.6-5.1c-2.4,0.6-3.9,1.9-4.5,4.3
		c-1.4,4.9-2.9,9.8-4.4,14.7C164.5,643.5,164.2,644.2,163.9,645.1z"/>
	<path class="st0" d="M134.4,413.9c-19.4-6.2-34.3,6.6-36.8,20.8c-2.6,14.3,7.5,32.2,28.2,32.2c0,0.2,0.1,0.4,0,0.5
		c-4.2,6.6-5.2,14.1-6.1,21.7c-0.3,2.9-0.6,5.8-0.7,8.7c-0.1,1.6-0.7,2.3-2.1,2.9c-8.2,3.1-16.3,2.6-24.2-1
		c-6.5-2.9-11.6-7.6-15.6-13.5c-0.6-0.9-1.3-1.9-2.1-3.2c-0.5,0.8-0.9,1.4-1.2,1.9c-4.3,8.8-12.6,13.5-22.3,12.4
		c-7.7-0.9-13.2-5-16.8-11.8c-0.4-0.7-0.8-1.5-1.3-2.7c-7.6,12-17.4,19.5-32.2,19.8c0-1.3,0-2.3,0-3.4c0-11.8,0-23.6,0-35.5
		c0-76.3,0-152.7,0-229c0-2.4,0.5-4.5,1.5-6.6c4.9-10.3,10.5-20,18.5-28.2c6.6-6.9,14.3-12,23.8-14.1c13.6-2.9,25.7,0.3,36.5,8.9
		c8.1,6.5,14.1,14.8,19.2,23.7c7,12.3,11.9,25.6,16,39.1c5.3,17.5,8.9,35.4,11.8,53.4c2.8,17.8,4.9,35.6,6.4,53.6
		c0.7,8.4,1.3,16.7,1.9,25.1c0.1,2.4-0.2,4.7-0.4,7.1C135.6,402.5,135,408.1,134.4,413.9z"/>
	<path class="st0" d="M34,644.9c-3.7,12.6-7.5,25.1-11.2,37.6c-1.7,0.4-3.3,0.8-4.9,1.3c-0.8,0.2-1.7,0.6-2.5,0.9
		c-1.4,0.6-2.2,1.5-2.2,3.2c0,1.8,0.2,3.5,2,4.2c2.8,1.1,5.6,2.1,8.5,2.7c10.3,2,20.7,2.1,31.1,1.3c0.3,0,0.7,0,1.4,0
		c-0.4,1.6-0.8,2.9-1.2,4.2c-3.3,0.9-6.4,1.6-9.4,2.5c-1.6,0.5-3.1,1.3-4.5,2.2c-1.6,1-2.1,2.5-2.3,4.5c-0.5,4.6,1.9,7.1,5.6,8.8
		c5.3,2.5,10.9,4,16.6,5.1c13.8,2.6,27.7,3.3,41.6,2.1c9-0.8,17.9-2.1,26.2-5.7c0.2,0.2,0.5,0.3,0.4,0.4c0,3,1.9,4.4,4.3,5.5
		c3.9,1.9,8.1,2.9,12.4,3.7c18.4,3.3,36.8,3.6,55.3,1c3.5-0.5,6.9-1.6,10.3-2.5c1-0.3,1.9-0.9,2.9-1.2c3.8-1.4,4.4-9.2,0.1-10.9
		c-3-1.1-5.9-2.3-9-3.1c-1.7-0.5-2.5-1.1-2.9-2.8c-4.2-16.9-8.6-33.8-12.9-50.7c-0.9-3.7-1.8-7.3-2.7-11.5
		c46.2,2.7,92,7.4,137.5,14.1c45.6,6.7,90.9,15.4,135.7,26.2c44.7,10.8,88.9,23.6,132.7,38.4c-2.4,6.7-6.8,11.1-13.2,13.5
		c-2.2,0.8-4.6,1-7,1.2c-1.8,0.2-3.7,0-5.6,0c-181.4,0-362.7,0-544.1,0.1c-9.4,0-18.6-6-21.3-15.5c-0.5-1.8-0.8-3.6-0.8-5.5
		c-0.1-24.3,0-48.5,0-72.8c0-0.5,0.1-1,0.1-1.9c5.4-0.6,10.9-0.4,16.3-0.6C22.8,644.7,28.2,644.9,34,644.9z"/>
	<path class="st0" d="M198.4,586.6c1.4-1,2.6-1.8,3.6-2.6c4.2-3.3,5.2-7,3.4-12c-1.4-4-2.9-7.9-4.4-11.9c-0.1-0.2,0-0.3,0-0.8
		c1.5,0,3.1,0,4.6,0c10.5-0.1,21,0,31.5-0.3c18.3-0.6,36.6-2.1,54.8-4.3c2.1-0.3,4.2-0.4,6.3-0.4c6.1,0,12.2,0.1,18.3,0.3
		c13.4,0.4,26.8,0.9,40.2,1.5c8.5,0.4,17.1,1,25.6,1.4c1.3,0.1,2.2,0.5,3,1.7c1.6,2.4,4.1,3.7,6.8,4.3c3.4,0.8,6.9,1.7,10.4,1.9
		c8.3,0.7,16.7,1.1,25.1,1.5c2.3,0.1,4.8-0.2,7.1-0.9c1.8-0.5,3.6-1.5,5.1-2.6c1-0.7,1.9-1.1,3.1-1c5.6,0.6,11.2,1.2,16.8,1.8
		c3.9,0.4,7.9,0.9,11.8,1.4c1.4,0.2,2.8,0.4,4.5,0.6c-1.7,6.6-3.2,12.9-4.9,19.5c7.9,1.5,15.8,2.3,23.7,2.6
		c7.8,0.3,15.7,0.6,23.5,0.4c7.9-0.2,15.8-0.9,24-1.3c-0.6,3.1-1.1,6.2-1.7,9.3c-0.2,1.2-0.5,2.4-0.6,3.6c-0.3,1.9,0,2.5,1.8,3.3
		c1.5,0.7,3.1,1.3,4.8,1.5c3.6,0.6,7.3,1.3,11,1.5c9,0.5,18,0.6,26.9-0.8c3.2-0.5,6.3-1.4,9.5-2.2c0.5,1.5,0.6,13.4,0.2,18.4
		c-18.5-3.6-37-7.5-55.6-10.8c-18.6-3.3-37.4-6.4-56.1-9.1c-18.8-2.7-37.6-5-56.4-7c-18.8-2-37.6-3.7-56.4-5
		c-18.9-1.3-37.9-2.2-56.8-2.9c-18.9-0.7-37.9-0.9-56.9-1C236.8,586.2,217.9,586.5,198.4,586.6z"/>
	<path class="st0" d="M594.1,106.9c0,18.2,0,36.2,0,54.3c-4.5,1.6-9,1.9-13.6,1.3c-5.7-0.8-10.8-3.1-15.5-6.4
		c-11-8-22.8-14.4-35.8-18.4c-15.6-4.7-31.4-5.6-47.1-0.7c-16,5-28.5,14.8-38.4,28.2c-7.6,10.3-13,21.8-16.9,34
		c-0.3,1.1-0.7,2.2-1.2,3.7c-1-1.9-1.6-3.4-2.5-4.8c-1.5-2.4-3-4.8-4.8-6.9c-4.2-4.7-9.8-6-15.9-5.5c-0.8,0.1-1.5,0.2-2.5,0.3
		c0.1-0.7,0.2-1.3,0.3-1.9c5.6-19.6,14.1-37.8,27-53.7c18.8-23.1,42.9-37,72.4-41.5c17-2.6,33.9-1.5,50.7,2.2
		c14.6,3.2,28.6,8.3,42,15C592.8,106.2,593.4,106.5,594.1,106.9z"/>
	<path class="st0" d="M593.8,291.4c-1.5-7.7-2.8-15.4-4.4-23.1c-4.2-20.2-9.5-40.1-17.5-59.2c-4.8-11.4-10.6-22.3-18.4-32
		c-5.3-6.6-11.4-12.3-18.9-16.3c-17.3-9.3-37.5-7.2-53,5.4c-8.5,6.9-14.9,15.5-20.3,24.9c-7.9,13.6-13.3,28.2-17.9,43.1
		c-5.7,18.8-9.7,38.1-12.8,57.5c-2.6,15.9-4.6,31.9-6.2,48c-1.2,12.3-2,24.6-3.1,37.1c-2.4,1.2-5,2.4-7.8,3.7
		c-0.3-0.7-0.6-1.4-0.9-2.1c-1.5-4.2-3-8.5-4.4-12.8c-0.4-1.3-0.7-2.8-0.6-4.1c0.9-11.4,1.8-22.9,3.1-34.3
		c1.2-11.4,2.7-22.8,4.4-34.1c4.1-27.1,9.7-53.9,19-79.8c4.9-13.6,10.8-26.6,18.8-38.6c7.4-11,16.5-20.2,28.2-26.6
		c8.6-4.8,17.9-7.3,27.8-7.8c19.4-0.8,35.6,6.2,49.5,19.4c8.7,8.3,15.2,18.2,20.7,28.9c5.9,11.3,10.4,23.1,14.2,35.3
		c0.4,1.2,0.6,2.4,0.6,3.6c0,21,0,42,0,63c0,0.3-0.1,0.7-0.1,1C594,291.4,593.9,291.4,593.8,291.4z"/>
	<path class="st0" d="M490.2,484.5c5.4,8,12.7,12.6,22.4,12.4c9.6-0.2,16.6-5,21.9-13.6c4.7,31.9,11.1,62.8,20.1,93.3
		c-1.4,0.3-2.7,0.5-3.9,0.8c-1.8,0.4-3.6,0.9-5.3,1.4c-1.1,0.3-1.7,1.1-1.9,2.3c-0.1,1-0.5,2.1-0.5,3.1c-0.1,1.6-1,2-2.4,2.1
		c-17.1,1.8-34.1,2.2-51.2,0.6c-5.5-0.5-11-1.1-17-1.7c4.5-16.7,8.2-33.3,11.1-50C486.3,518.5,488.4,501.6,490.2,484.5z"/>
	<path class="st0" d="M594.1,69.3c0,12.1,0,23.9,0,36c-0.8-0.3-1.4-0.5-2-0.8c-14.8-7.2-30.2-12.6-46.5-15.7
		c-8.1-1.5-16.2-2.3-24.4-2.5c-12.6-0.3-25,1.1-37.1,4.6c-24.6,7.1-44.4,21.2-59.9,41.4c-11.7,15.2-19.7,32.3-24.8,50.8
		c-0.7,2.6-2.1,3.8-4.4,4.5c-1.6,0.5-2.5-0.3-2.4-1.9c0.2-2.1,0.4-4.2,0.4-6.3c0.1-3.1-0.6-6.1-2.1-8.9c-0.5-0.9-0.5-1.7-0.2-2.7
		c7.6-24.5,19.4-46.7,37.1-65.5c20.1-21.4,44.7-34.9,73.5-40.7c11.5-2.3,23-3.3,34.7-3c19.3,0.5,38.2,4.1,56.5,10.2
		C593,68.9,593.5,69.1,594.1,69.3z"/>
	<path class="st0" d="M431.2,429.2c8,6.1,11.1,14.7,14,23.3c4.5,12.9,7.7,26,9.5,39.5c0.6,4.8,0.7,9.7,0.8,14.5
		c0.2,6.9-4,11.6-9.8,13.5c-3.2,1-6.5,1.5-9.8,2.1c-12.4,2-24.7,3.9-37.1,5.8c-0.7,0.1-1.5,0.1-2.4-0.2c0.6-0.4,1.3-0.8,1.9-1.2
		c15.3-9.1,22-22.8,20.6-40.2c-0.9-10.3-2.9-20.6-5-30.8c-8.9-44.5-19.5-88.7-30.5-132.7c-0.8-3.1-1.7-6.3-2.3-9.5
		c14.7,21,23.7,44.7,31.7,69.1c9.1-6.2,18.7-7.5,28.7-2.4c6.5,3.4,10.7,8.8,12.8,15.8C458.3,409.8,450.1,426.6,431.2,429.2z
		 M410.3,403c-0.4,9.6,7.8,19,18.9,19c10.5,0,18.7-8.3,19-18.7c0.2-8.8-7.3-19.7-18.8-19.2C418.2,384.4,410.6,391.8,410.3,403z"/>
	<path class="st0" d="M592.5,15c-4.7-0.2-9.2-0.5-13.7-0.6c-8.3,0-16.6-0.2-24.9,0.3c-13.7,0.7-27.2,2.8-40.5,6.1
		c-30.9,7.7-58.5,21.8-82.2,43.3c-17.3,15.6-31,34-41.7,54.6c-6.8,12.9-12.2,26.4-16.4,40.4c-0.5,1.6-1.1,2.4-2.9,2.8
		c-3.2,0.7-5.9,2.6-8.4,4.9c-0.6,0.6-1.3,1.2-2.3,1.6c0.2-0.8,0.3-1.6,0.5-2.4c5.4-23.9,13.5-46.9,25.2-68.5
		c21.2-39.3,51.2-69.7,90.8-90.6c3.1-1.6,6.3-3.2,9.5-4.7c1.2-0.6,2.7-0.9,4-0.9c27.9-0.1,55.8-0.1,83.7,0c9,0,15.2,4.8,19.2,12.7
		C592.4,14.1,592.4,14.4,592.5,15z"/>
	<path class="st0" d="M185.7,553.5c-3.6,0.3-7.1,0.7-10.7,1c-9.6,0.8-19.2,1.6-28.7,2.3c-3,0.2-6,0.5-9,0.5c-2.7,0-5.4-0.5-7.8-2.4
		c0.7-0.4,1.2-0.7,1.7-1.1c4.9-3.2,7-8.8,4.9-14.3c-2.4-6.2-6.5-11-13-13.4c-0.5-0.2-1-0.3-1.5-0.5c-0.4-0.1-0.8-0.3-1.5-0.5
		c-0.1-2.7-0.4-5.4-0.4-8.1c-0.1-10.4,0.1-20.8,1.5-31.2c1.1-8.5,2.6-12.9,7.3-20.2c-10.9,0.9-19.7-2.6-25.8-11.7
		c-4.2-6.2-5.2-13-3.6-20.3c2.8-12.8,17.1-25.1,36.4-18c0.2-2,0.4-4,0.6-6c1.5-18.4,4.1-36.6,9.1-54.4c1.2-4.3,2.8-8.5,4.2-12.8
		c0.1-0.4,0.4-0.8,0.8-1.6c0,3.1,0,5.8,0,8.4c0,0.5-0.1,1.1-0.1,1.6c0,12.5,0,25.1,0,37.6c0,1.1,0,2.1,0,3.2
		c0.2,19,0.2,38.1,0.6,57.1c0.3,15.5,0.9,31,1.6,46.5c0.3,7.6,0.7,15.2,2,22.6c3.1,17.6,12.8,29.8,30.5,34.9
		c0.4,0.1,0.8,0.3,1.1,0.4C185.8,553.2,185.8,553.3,185.7,553.5z M124.5,420.5c-6.7,0.6-12.7,2.2-16.2,8.9
		c-2.3,4.3-3.4,8.6-2.5,13.5c1.5,8.9,9.5,16,19.4,15.6c10.1-0.5,17.9-8.4,18.2-18.2c0.1-5.5-1.7-10.4-5.7-14.3
		c-1.3-1.2-2.4-2.7-3.9-3.4C130.9,421.3,127.8,420.4,124.5,420.5z"/>
	<path class="st0" d="M358.7,171.4c1.4-1.3,2.7-2.6,4-3.9c3.3-3.1,7.1-5.2,11.8-5.2c9.6-0.1,17.2,7.2,17.4,16.8
		c0.1,2.8-0.3,5.6-0.5,8.6c1,0.6,2,1.2,3,1.9c1.8,1.4,3.8,2.7,5.4,4.2c8.7,8.5,4.4,24.2-6.7,27.6c-2.3,0.7-4.8,1-7.2,1.4
		c-0.7,0.1-1.4,0.2-2.3,0.3c-0.2,1.2-0.4,2.4-0.7,3.5c-0.8,3-1.5,6.2-2.6,9.1c-3.6,9.3-19.9,12.3-26.6,2.4c-1.4-2.1-2.6-4.4-3.7-6.7
		c-1.4-2.8-1.4-2.7-4.4-2.4c-3.1,0.3-6.2,0.5-9.2,0.3c-3.7-0.2-6.8-1.9-9.2-4.7c-2.7-3.1-4.4-6.6-5-10.6c-0.6-4,0.5-7.7,2.9-10.9
		c1.5-2,3.3-3.9,5.1-5.7c2.6-2.8,2.4-1.9,0.9-5.3c-0.7-1.6-1.5-3.2-2.1-4.8c-3.6-9.9,2.7-20.5,13.3-21.6c2.3-0.3,4.9,0.4,7.2,1.1
		c2.3,0.7,4.5,2.1,6.7,3.2C356.9,170.4,357.7,170.8,358.7,171.4z"/>
	<path class="st0" d="M1.2,228.1c-0.1-1.2-0.1-1.8-0.1-2.4c0-7.9,0-15.7,0-23.6c0-1.1,0.2-2.4,0.8-3.2c7.7-10.5,17-19.2,29.3-24
		c22-8.7,42.4-5.4,60.9,9.2c9.6,7.6,16.5,17.3,22.3,28c7.3,13.5,12.5,27.8,16.7,42.5c5.3,18.2,9,36.8,11.9,55.6
		c1.5,10.1,2.7,20.3,4.1,30.4c0.3,2,0.2,4-0.5,6c-4,11.5-6.5,23.4-8.4,35.4c-0.1,0.5-0.2,1-0.3,1.6c-0.1,0.2-0.2,0.5-0.5,1.2
		c-0.2-2.3-0.4-4.2-0.5-6c-1.3-14-2.3-28.1-4-42.1c-3.3-28.4-8.2-56.5-16.8-83.9c-4.4-13.7-9.7-27.1-17.4-39.3
		c-4.4-7-9.5-13.4-15.9-18.7c-17.7-14.7-41.2-14.3-58.5,0.8c-7.2,6.3-12.8,13.9-17.4,22.1c-1.6,2.8-3.1,5.8-4.6,8.7
		C2,226.8,1.8,227.2,1.2,228.1z"/>
	<path class="st0" d="M389.5,167.8c-2.3-1.7-4.4-3.3-6.8-5.1c0.6-1.8,1.2-3.8,1.8-5.8c7.1-21.6,17.3-41.7,31.6-59.5
		c23.7-29.5,54.2-48.1,91.3-56c15.7-3.4,31.6-4.3,47.6-3.6c12.8,0.6,25.4,2.5,37.9,5.3c0.3,0.1,0.6,0.2,1.1,0.4c0,8,0,16,0,24.2
		c-0.6-0.1-1.2-0.1-1.7-0.3c-13.1-4.2-26.5-7.3-40.2-8.9c-12.3-1.4-24.6-1.6-37-0.3c-16.6,1.7-32.6,6-47.6,13.3
		c-23,11.1-41.2,27.6-55.5,48.6c-9.8,14.4-16.9,30.1-22.2,46.6C389.7,167.1,389.6,167.3,389.5,167.8z"/>
	<path class="st0" d="M593.3,16.3c0.3,1.4,0.7,2.7,0.8,4c0.1,7.1,0,14.3,0,21.8c-1-0.1-1.8-0.2-2.6-0.4c-12.6-2.7-25.3-4.5-38.2-5
		c-21.4-0.8-42.4,1.5-62.9,8.1c-28.8,9.3-52.9,25.5-72.4,48.6c-14.7,17.5-25.4,37.2-33,58.7c-1.2,3.3-2.2,6.7-3.4,10.1
		c-2.5-0.4-5-0.8-7.7-1.3c0.1-0.4,0-0.9,0.2-1.4c9-29.3,22.6-56,42.9-79.2c23.6-27,52.8-45.4,87-55.8c15.4-4.7,31.2-7.4,47.3-8.6
		c13.6-1,27.1-0.8,40.7,0.2C592.3,16.1,592.6,16.2,593.3,16.3z"/>
	<path class="st0" d="M422.7,247.5c-1.1,0.1-2.2,0.3-3.4,0.4c-6.3,0.3-12.5,0.7-18.8,0.8c-6.3,0.2-12.5,0.3-18.8,0.2
		c-15.4-0.3-30.9-0.9-46.2-3c-9.3-1.2-18.5-2.8-27.7-4.4c-4.8-0.8-9-3.1-12.8-6c-4.8-3.6-5.8-8.6-4.8-14.2c0.9-5.2,3.8-8.9,8.8-10.6
		c3.3-1.1,6.8-1.7,10.2-2.5c1-0.2,2.1-0.4,3.3-0.7c0.2-2.1,0.4-4.2,0.7-6.3c0.4-2.3,0.7-4.7,1.6-6.9c2.1-5.3,6.2-8,11.7-9.1
		c1.4,3.2,2.7,6.3,4.2,9.6c-0.7,0.8-1.6,1.6-2.4,2.5c-1.6,1.9-3.4,3.6-4.8,5.6c-4.6,6.8-3.3,13.6,0.8,20.1c3.8,6.1,9.6,8,16.4,7.6
		c2.3-0.1,4.5-0.4,6.9-0.7c0.3,0.6,0.6,1.1,0.9,1.6c0.7,1.3,1.3,2.7,2,4c4.9,9.4,13,11.5,22.4,8.4c4.3-1.5,7.1-4.6,8.7-8.7
		c1-2.5,1.5-5.2,2.1-7.9c0.3-1,0.4-2.1,0.6-3.3c1.6-0.2,3.2-0.4,4.7-0.6c11.3-1.5,18.3-11.4,15.9-22.5c-0.8-3.7-2.8-6.6-5.6-9.1
		c-1.2-1.1-2.5-2.1-3.9-3.1c6.9-4.2,16.7-2.7,22.2,3.3c3.4,3.8,5.6,8.3,7.4,13c0.1,0.3,0.3,0.6,0.4,0.9c3.2,0,6.4,0,9.8,0
		c-2.3,6.9-4.7,13.6-6.8,20.4C426.6,233.3,424.8,240.2,422.7,247.5z"/>
	<path class="st0" d="M48.7,79.1c1-1.3,1.9-2.5,2.9-3.6c1.4-1.6,2.7-3.3,4.3-4.6c8.4-7.4,21.2-1.6,22.6,7.3c0.1,0.9,0.3,1.7,1.3,2.1
		c4.5,1.6,6.1,5,5.7,9.5c1.7,1.1,3.4,2.1,5.5,3.4c1.4-0.6,3.2,0,4.8,1.3c0.5-0.3,1-0.5,1.5-0.7c3.5-1.6,6.3-1.3,8.5,1.1
		c2.3,2.4,2.8,6.3,1.2,9.3c-1.5,2.8-4.1,4.4-7,5.2c-3.5,0.9-7.1,1.6-10.6,2.1c-13.5,1.9-27,2.6-40.6,2.7c-13,0.1-25.9-0.3-38.9-1.1
		c-2.8-0.2-5.6-0.5-8.5-0.8c0-13.7,0-27.1,0-40.8c3.2-0.1,5.9,1,8.1,3.2c1.6,1.7,3,3.7,4.4,5.6c0.5,0.7,1,1.4,1.4,2
		c2.3-0.9,4.4-2.2,6.6-2.6c2.7-0.5,5-1.5,7.3-3c5.8-3.7,11.6-2.6,17.2,0.8C47,77.8,47.7,78.3,48.7,79.1z"/>
	<path class="st0" d="M72.2,643c-7.2,0-14.2,0-21.5,0c-1-3.7-1.9-7.3-2.9-11c-0.2-0.6-0.3-1.2-0.5-1.8c-0.7-2.4-2-3.4-4.3-3.5
		c-2.2-0.1-3.8,1-4.5,3.3c-1.2,3.8-2.3,7.6-3.5,11.4c-0.2,0.7-0.5,1.3-0.8,2c-11,0.3-21.9,0.5-32.9,0.8c0-13.8,0-27.2,0-40.7
		c3.2-1.2,74.3-8.7,80.5-8.5c0.1,0.3,0.3,0.6,0.3,0.9c0,4.8,0.2,9.5,0,14.3c0,1.4-0.9,2.8-1.3,4.2c-1.7,5.6-3.3,11.1-5,16.7
		C74.6,635,73.4,639,72.2,643z"/>
	<path class="st0" d="M33.9,487.4c5,7.4,11.7,11.4,20.5,11.3c8.8-0.1,15.3-4.5,20-12.3c2.1,12.1,4.1,23.8,6.1,35.7
		c-1.6,0.1-3,0.2-4.4,0.3c-6.7,0.3-13.4,0.9-19.8,2.7c-7.5,2.1-12.1,7.4-14.7,14.4c-2.2,6.1,0.9,12.5,6.9,15
		c2.8,1.2,5.7,1.7,8.8,1.7c1.1,0,2.3,0,3.7,0c0,1.6,0,3,0,4.4c0,2.8,0.5,5.6,1.7,8.2c2.7,6.1,8.7,8.8,15.1,7
		c0.7-0.2,1.3-0.4,2.3-0.7c0.2,1.9,0.5,3.5,0.7,5.2c-6.6,2.9-50.1,2.4-63.3-0.8C25.7,549.3,30.9,518.6,33.9,487.4z"/>
	<path class="st0" d="M161.5,657.5c9.1,1.4,17.9,1.6,26.9,0.5c0.3,0.8,0.6,1.6,0.8,2.4c4.7,18.4,9.4,36.9,14.1,55.3
		c0.1,0.4,0.1,0.9,0.3,1.3c0.5,1.3-0.1,2-1.3,2.3c-2,0.5-3.9,1-5.9,1.3c-11.9,1.5-23.7,1.8-35.6,0.4c-4-0.5-8-1.1-12-1.8
		c-1.7-0.3-3.5-0.6-5-2.1C149.6,697.3,155.5,677.5,161.5,657.5z"/>
	<path class="st0" d="M333.5,82.7c6-7.2,11.2-9.3,17.5-7.2c5.2,1.7,7.6,5.8,7.9,12.9c4.7,1.9,4.7,1.9,6.7,4.2c2.5-0.9,5.1-1,7.2,1.3
		c2.3-1.4,4.4-3.1,7.5-2.4c-0.3,0.7-0.6,1.3-0.9,2c-3.3,7.3-6.8,14.5-10,21.9c-0.7,1.6-1.5,2.3-3.2,2.4c-14.1,1.4-28,0.8-41.7-2.7
		c-4.7-1.2-9.3-2.8-13.4-5.5c-6.8-4.6-8.8-11.2-7.5-18.9c1.2-7.4,5.5-12.4,12.8-14.3c6.2-1.6,11.9-0.3,16.2,4.9
		C332.8,81.6,333.1,82,333.5,82.7z"/>
	<path class="st0" d="M443.8,522.2c0,0.8,0,1.4,0,2c-0.8,10.9-1.7,21.8-2.4,32.7c-0.4,5.1-3.2,7.6-7.4,8.3
		c-3.8,0.6-7.7,0.9-11.6,0.7c-7.6-0.4-15.1-1-22.7-1.8c-3-0.3-6.1-1.1-8.9-2.2c-3.7-1.3-6.3-3.7-5.9-8.9c0.5-7.1,1-14.2,1.5-21.5
		c1.7-0.4,3.2-0.9,4.7-1.1c15.6-2.5,31.2-4.9,46.7-7.3C439.8,522.7,441.7,522.5,443.8,522.2z"/>
	<path class="st0" d="M139,558.7c2.8-0.3,5.4-0.6,8-0.8c11.4-1,22.9-1.9,34.3-2.8c3.2-0.3,6.3-0.6,9.5-0.8c1.3-0.1,2.6-0.2,4-0.1
		c2.9,0.1,2.9,0.1,3.9,2.9c1.9,5.1,3.8,10.2,5.7,15.4c1.7,4.6,0.9,7.7-3,10.7c-1.4,1.1-2.9,2.1-4.5,2.8
		c-10.3,4.9-20.9,8.9-31.9,11.8c-1.4,0.4-2.8,0.6-4.2,0.6c-5.6,0.1-7.9-2-9.3-5.8c-1-2.6-1.9-5.1-2.9-7.7c-3-7.9-5.9-15.9-8.9-23.8
		C139.5,560.4,139.3,559.7,139,558.7z"/>
	<path class="st0" d="M62.4,680.8c16.7,6.5,33.4,6.2,50.2,0.5c1.3,5.2,2.6,10,3.9,14.9c1,3.9,2,7.9,2.9,11.8c0.5,2,0.3,2.7-1.6,3.3
		c-2.8,0.9-5.8,1.7-8.7,2.1c-12.2,1.4-24.5,1.6-36.7,0.5c-4.4-0.4-8.7-1.4-13-2.3c-1-0.2-2-0.7-2.9-1.2c-2.3-1.2-2.5-1.7-1.8-4.2
		c2.4-8,4.8-16,7.2-24.1C62,681.7,62.2,681.2,62.4,680.8z"/>
	<path class="st0" d="M546.4,352.5c1.7-4.6,4.5-5.5,10.2-3.6c0-1.6-0.9-2.7-2-3.5c-1.1-0.8-2.5-1.3-3.9-1.9c1.1-1.2,2.5-1.2,3.7-1.1
		c4.6,0.4,8.3,2.4,10.6,6.4c1.1,1.8,1.9,3.8,2.7,5.7c1,2.9,3.1,4.4,6,5c0.6,0.1,1.2,0.2,1.8,0.3c4.3,0.8,6.7,3.3,7.2,7.6
		c0.1,0.9,0.1,1.8,0.1,2.6c0,29,0,58,0,87c0,1.1,0,2.1-0.2,3.2c-0.6,4.4-3.4,7-7.8,7.1c-4.8,0.1-9.5,0-14.3,0c-4.8,0-9.5,0-14.3,0
		c-5.5,0-8.7-3.3-8.7-8.7c0-30,0-60,0-90c0-4.9,2.4-7.8,7.3-8.9c1.4-0.3,2.8-0.5,4-1.2c1.2-0.7,2.2-1.7,3-2.8
		c0.8-1.2,0.4-2.7-0.5-3.7c-1-1-2-0.8-3.1-0.3C547.7,352,547.2,352.2,546.4,352.5z M579.2,386.4c0-5.1,0-10.2,0-15.3
		c-0.1-4.9-2.8-7.5-7.5-7.5c-8.2,0-16.4,0.1-24.6-0.1c-3-0.1-6.2,1.9-6.9,5.6c-0.2,1.1-0.3,2.3-0.3,3.4c0,9.4,0,18.9,0,28.3
		c0,1.1,0.1,2.3,0.3,3.4c0.7,3.2,3.2,5.3,6.3,5.3c8.7,0,17.5,0,26.2,0c2.1,0,3.7-0.9,5-2.6c1.1-1.5,1.6-3.3,1.6-5.2
		C579.2,396.6,579.2,391.5,579.2,386.4z M540.1,440.2c0,5.3,0,10.6,0,15.9c0,4.5,2.7,7.2,7.2,7.3c1.3,0,2.6,0,4,0
		c6.8,0,13.6,0,20.4,0c4.7,0,7-2.9,7.5-6.9c0.1-0.4,0-0.9,0-1.3c0-9.9,0-19.8,0-29.6c0-1.2-0.2-2.5-0.6-3.6
		c-0.9-2.8-3.1-4.5-5.9-4.5c-8.8,0-17.6,0-26.5,0c-2.2,0-3.8,1.1-5,2.9c-0.9,1.4-1.2,2.9-1.2,4.5
		C540.1,429.9,540.1,435.1,540.1,440.2z"/>
	<path class="st0" d="M57.2,526.3c-1,1.3-1.9,2.3-2.6,3.5c-4.4,6.8-1.4,14.1,6.5,15.7c2.1,0.4,4.2,0.5,6.6,0.7c0,0.9,0,1.9,0.1,2.9
		c0.3,1.9,0.4,3.9,1,5.7c2,5.5,7.5,7.9,12.9,5.5c1.9-0.9,3.5-2.3,5.2-3.5c0.7-0.5,1.3-1.2,1.9-1.7c1.9,1.5,3.6,3.1,5.4,4.4
		c2.5,1.7,5.3,2.4,8.3,1.6c4.2-1.2,6.4-4.2,7.2-8.3c0.4-2.1,0.5-4.2,0.7-6.7c1,0,2,0.1,3,0c1.9-0.2,3.9-0.4,5.7-1
		c5.5-2,7.8-7.6,5.4-12.9c-0.6-1.3-1.4-2.4-2.2-3.6c-0.4-0.6-0.9-1.2-1.1-2.3c1.8,0.8,3.8,1.4,5.4,2.5c3.3,2.4,6,5.4,7.9,9.1
		c3.2,6.6,0.4,13.7-6.6,16c-2.3,0.8-4.8,0.9-7.2,1.2c-1.6,0.2-3.1,0-5.1,0c0,0.9,0,1.8,0,2.6c0.1,3.2-0.1,6.3-1.2,9.4
		c-2.4,7-9.3,9.9-16,6.8c-2.9-1.4-5.3-3.4-7.5-5.8c-0.7-0.7-1.3-1.4-2.2-2.3c-1.3,1.4-2.3,2.8-3.6,3.8c-2.1,1.6-4.2,3.3-6.6,4.3
		c-6,2.7-12.4,0.1-14.8-6c-0.9-2.4-1.2-5.1-1.6-7.7c-0.2-1.6,0-3.3,0-5.3c-0.8,0-1.5-0.1-2.3-0.1c-3.1,0.1-6.2-0.1-9.2-1
		c-4.8-1.5-7.8-4.7-8.5-9.8c-0.2-1.3-0.1-2.7,0.3-3.9c2.4-6.7,6.6-11.8,13.6-14.1c0.2-0.1,0.3-0.1,0.5-0.1
		C56.7,526.2,56.8,526.2,57.2,526.3z"/>
	<path class="st0" d="M72.9,645.4c10.3,2.8,20.4,2.2,30.7,0.6c2.9,11.2,5.7,22.4,8.6,33.8c-0.7,0.3-1.4,0.6-2,0.8
		c-8.2,2.5-16.6,4.1-25.2,3.6c-6.2-0.4-12.3-1.2-18.2-3.2c-4.3-1.4-4.2-1.5-2.9-5.8c2.7-9.1,5.4-18.2,8.2-27.3
		C72.3,647.2,72.6,646.3,72.9,645.4z"/>
	<path class="st0" d="M134.4,645c9.8,0.4,19.3,0.8,29.2,1.2c-6.4,21.6-12.8,42.9-19.1,64.3c-3.3,0.8-6.5,1.6-9.9,2.4
		c-0.1-0.5-0.3-0.9-0.2-1.3c0.4-2.7-1-4.5-3.2-5.5c-3.2-1.4-6.5-2.7-9.9-3.7c-1.7-0.5-2.4-1.2-2.8-2.9c-1.2-5.1-2.6-10.2-4-15.7
		c1.6,0,3-0.1,4.3,0c7.4,0.4,14.8,0.1,22.1-1.2c2.1-0.4,4.3-1.1,6.3-1.9c1.7-0.6,2.5-2,2.6-3.9c0.1-2-0.8-3.2-2.5-3.9
		c-1.7-0.7-3.5-1.3-5.2-1.8c-1-0.3-1.5-0.7-1.7-1.7c-1.9-7.7-3.9-15.4-5.8-23.1C134.4,646.1,134.5,645.8,134.4,645z"/>
	<path class="st0" d="M1.3,572.1c5.8-0.7,11.3-1.4,17.2-2.1c-0.2,3.6-1.8,6.8-2.2,10.1c2.9,1.6,19.2,3.2,32.2,3.2
		c10.7,0.1,21.5-0.1,32.5-1.4c0.3,4,0.7,7.7,1,11.6c-27,2.8-53.7,5.6-80.7,8.4C1.3,592,1.3,582.2,1.3,572.1z"/>
	<path class="st0" d="M170.6,260.2c2-0.9,3.8-0.5,5.4,0.9c0.3-0.1,0.6-0.2,0.8-0.3c2.6-2,5.4-2.2,8.2-0.6c2.7,1.6,4.1,4.1,4.2,7.2
		c0.1,3.6-1.5,6.4-4.6,8c-2.1,1.1-4.3,2-6.6,2.5c-12.6,2.8-25.2,2.3-37.8-0.5c-1.4-0.3-2.2-0.9-2.6-2.5c-2.1-8.4-4.4-16.7-6.6-25
		c-0.1-0.5-0.1-1-0.2-1.5c5.2-2.7,10.1-1.5,15.4,3.9c0.5-0.7,1-1.4,1.5-2c2.7-3.1,6.1-4.5,10.1-3.8c4.5,0.8,7.3,4.3,7.4,9
		c0,0.4,0,0.9,0,1.3c1.1,0.4,2.1,0.7,3,1.2C169.1,258.5,169.7,259.3,170.6,260.2z"/>
	<path class="st0" d="M580,467.3c3.4-3.1,4-6.6,4-10.4c-0.1-29.1,0-58.2-0.1-87.3c0-1.3-0.1-2.7-0.4-3.9c-1-3.9-3.5-6.4-7.7-7
		c-0.9-0.1-1.7-0.3-2.6-0.5c-2-0.5-3.5-1.6-4.2-3.6c-0.4-1.2-1-2.3-1.4-3.4c-1.3-3.3-3.3-6-6.4-7.9c-0.2-0.1-0.3-0.4-0.7-0.8
		c3.4-0.2,6.5-0.4,9.5,0.6c3.6,1.2,6.3,3.5,7.9,6.9c0.8,1.7,1.5,3.4,2.2,5.1c0.9,2.4,2.6,3.7,5,4.3c1.2,0.3,2.4,0.5,3.6,0.8
		c3.5,0.8,5.2,2.9,5.2,6.5c0,31.4,0,62.8,0,94.2c0,3.7-2.1,6.2-5.8,6.5C585.8,467.5,583.2,467.3,580,467.3z"/>
	<path class="st0" d="M109.3,545.1c-0.2,2.7-0.4,5.1-0.7,7.4c-0.4,2.5-1.5,4.7-3.6,6.2c-2.6,1.8-5.4,2.2-8.3,0.8
		c-1.9-0.9-3.5-2.3-5.2-3.6c-0.9-0.7-1.6-1.6-2.6-2.7c-0.9,0.8-1.5,1.6-2.3,2.2c-1.7,1.3-3.2,2.8-5.1,3.7c-4.9,2.4-10,0.2-11.8-4.9
		c-0.6-1.6-0.7-3.4-0.9-5.2c-0.1-1.3,0-2.6,0-4.1c-1,0-1.7,0-2.5-0.1c-2.3-0.3-4.6-0.3-6.8-1c-5.3-1.7-7.4-6.9-5-11.9
		c1.2-2.4,2.9-4.4,5-6.1c0.5-0.4,1.2-0.8,1.9-0.9c2.6-0.4,5.2-0.7,8.3-1.1c-1.9,2.9-3.6,5.6-1.9,8.7c1.7,3.2,4.9,3.3,8.2,3.5
		c0.1,0.9,0.1,1.8,0.2,2.6c0.2,2.5,1.1,4.7,3.5,5.8c2.4,1.1,4.7,0.5,6.7-1c0.8-0.6,1.5-1.2,2.4-1.9c2.5,2.3,5.2,4.6,8.9,3
		c3.6-1.5,3.8-5,4.1-8.4c0.7-0.1,1.4-0.2,2.1-0.2c2.6-0.1,4.9-0.9,6.1-3.4c1.3-2.5,0.6-4.8-0.9-6.9c-0.3-0.4-0.6-0.8-1.2-1.8
		c3.5,0.6,6.5,0.9,9.3,1.6c3.5,1,7.6,8.1,7,11.6c-0.6,3.3-2.3,5.8-5.5,6.8c-1.7,0.6-3.6,0.8-5.4,1
		C112.1,545.2,110.8,545.1,109.3,545.1z"/>
	<path class="st0" d="M483.9,1.4c-3,1.5-5.5,2.8-7.9,4.1c-41.9,22-73.1,54.5-94.5,96.5c-10.5,20.7-17.9,42.5-22.9,65.2
		c-0.2,0.8-0.4,1.5-0.7,2.6c-1.1-0.7-2.1-1.2-3.2-1.9c1.1-4.8,2.2-9.5,3.3-14.2c7-27.6,17.6-53.7,32.8-77.9
		c18.8-29.9,43.1-54.4,73-73.1c1.6-1,3.2-1.6,5.2-1.5c4.6,0.1,9.2,0,13.8,0.1C483,1.2,483.2,1.2,483.9,1.4z"/>
	<path class="st0" d="M594,584.1c-2.6,0-2.8,0-3-2.3c-0.2-2-1.2-3.1-3-3.4c-4-0.7-8-1.4-12-2c-0.9-0.2-1.9-0.2-2.8-0.2
		c-0.6-2.1-0.7-43.1-0.2-46.1c1,0,2,0.1,3.2,0.2c4-6.8,9.7-11,17.8-12C594,540.3,594,562.2,594,584.1z"/>
	<path class="st0" d="M137.7,558.8c3.7,10.1,7.4,19.9,11.2,30.1c-17.6,1.2-34.8,2.3-52.4,3.5c0.3-5.7,1-11.1,1.8-16.7
		c0.8,0.2,1.5,0.3,2.2,0.4c6.3,1.5,12.2-1.4,14.5-7.5c1-2.5,1.3-5.2,2.1-8.2C123.8,559.8,130.7,559.3,137.7,558.8z"/>
	<path class="st0" d="M547.4,579.3c-0.1,1.6,0.9,2.2,2.2,2.3c1.9,0.3,3.8,0.7,5.7,0.8c8.9,0.6,17.8,0.7,26.6-0.4
		c1.1-0.1,2.3-0.4,3.4-0.6c1.3-0.3,1.8-1,0.9-2.3c2.5,0.2,3.5,1.3,3.8,3.6c0.8,5.1,1.9,10.2,2.9,15.3c0.8,4.1,0.4,4.7-3.6,5.7
		c-5.9,1.6-12,2-18.1,2.1c-8.2,0.2-16.4,0-24.5-1.7c-1.5-0.3-3-0.9-4.5-1.4c-1.1-0.4-1.7-1.1-1.4-2.5c1.2-6.4,2.4-12.8,3.5-19.2
		C544.7,579.7,546,579.6,547.4,579.3z"/>
	<path class="st0" d="M58.5,688.4c-8,2.4-31.5,1.5-35.8-1.7c3.7-12.5,7.5-25.1,11.2-37.4c5.9,0,11.5,0,17.2,0
		c0.9,3.3,1.7,6.6,2.5,9.8c1.8,7.2,3.5,14.4,5.5,21.5C59.8,683.3,59.7,685.8,58.5,688.4z"/>
	<path class="st0" d="M426.2,204.8c1.3-3.9,2.4-7.6,3.7-11.3c4.7-12.8,11.1-24.6,20.3-34.7c11.8-13,26.3-21.1,43.8-23.5
		c11.1-1.5,22-0.3,32.7,2.7c0.3,0.1,0.6,0.3,1,0.5c-1.7,1.9-3.7,1.6-5.8,1.3c-4.9-0.8-9.8-0.9-14.8-0.6c-14.1,1-26.5,6.3-37.4,15.1
		c-9.5,7.7-16.8,17.1-22.7,27.7c-3.6,6.6-6.8,13.6-9.9,20.4c-0.8,1.7-1.5,2.5-3.5,2.4C431.4,204.7,429,204.8,426.2,204.8z"/>
	<path class="st0" d="M475.9,565.1c-11.4-1.3-22.7-2.5-33.9-3.8c0.7-9.1,1.5-18.1,2.2-27.1c2.8-0.7,5.4-0.1,7.8,0.9
		c1.2,0.5,1.9,0.6,3-0.4c6.3-5.7,14.5-4.2,18.7,3.2c0.2,0.4,0.4,0.8,0.6,1.1c2.3-0.1,4.6-0.2,6.8-0.3
		C481.3,541.4,477.5,560.6,475.9,565.1z"/>
	<path class="st0" d="M113.8,636.8c5.7,0,11.2,0,17.1,0c3.2,12.7,6.5,25.4,9.7,38.1c-3.8,2.3-19,3.2-27.7,1.6
		c-0.2-0.7-0.5-1.4-0.7-2.1c-1.3-5.2-2.7-10.4-4-15.6c-0.3-1.2-0.3-2.5,0-3.6c1.7-5.9,3.5-11.8,5.3-17.7
		C113.6,637.1,113.8,636.8,113.8,636.8z"/>
	<path class="st0" d="M563,468.9c2.8,0,5.4,0,8,0c0.6,2,0.8,105.6,0.3,110.8c-2.1,0.8-5.2,0.8-8.2,0.2
		C562.6,577.9,562.5,471.9,563,468.9z"/>
	<path class="st0" d="M594,162.8c0,19.2,0,38.3,0,57.4c-0.1,0-0.2,0.1-0.3,0.1c-0.4-0.9-0.7-1.9-1.1-2.8c-4.3-12.5-9.3-24.7-16-36.2
		c-6-10.4-13.3-19.8-22.7-27.3c-7.3-5.8-15.4-10.2-24.5-12.7c-0.6-0.2-1.2-0.4-1.9-0.6c1.4-1.5,2.8-1.7,4.6-1.1
		c9.5,3.3,18.3,7.8,26.7,13.3c2.1,1.4,4.1,2.8,6.1,4.2c8.4,5.9,17.5,8,27.6,5.6c0.3-0.1,0.5-0.1,0.8-0.1
		C593.4,162.7,593.5,162.7,594,162.8z"/>
	<path class="st0" d="M561.4,576.1c-2.1,0.1-3.7,0.2-5.3,0.3c-2.3-3.9-13.6-49.5-13.6-54.8c6.2-3.8,13.7-1.7,18.1,2.3
		c0.9,0.8,0.9,1.8,0.9,2.9c0,5.6,0,11.1,0,16.7c0,9.8,0,19.6,0,29.4C561.4,573.9,561.4,574.9,561.4,576.1z"/>
	<path class="st0" d="M200.3,558.2c-0.5-1.3-0.8-2.3-1.3-3.6c2.2,0,4.2,0,6.2,0c7.4,0,14.8,0.1,22.2-0.1c20.3-0.6,40.5-2.3,60.6-4.7
		c20.2-2.3,40.4-5.3,60.4-9.1c11.7-2.3,23.3-4.8,34.7-8.3c0.6-0.2,1.2-0.3,2.1-0.4c-0.1,1.3-0.2,2.4-0.3,3.7
		C324.5,551.9,263,559.3,200.3,558.2z"/>
	<path class="st0" d="M82.2,613.9c3.8,1.2,7,1.6,13.2-0.1c2.6,10.1,5.2,20.2,7.7,30.3c-5.3,2.9-24.5,2.5-29.8-0.5
		C76.3,633.8,79.2,623.8,82.2,613.9z"/>
	<path class="st0" d="M306.8,553.1c26.2-3.9,52.2-9,78.1-16.1c-0.4,6.7-0.8,13-1.3,19.3C358.1,555.2,332.4,554.1,306.8,553.1z"/>
	<path class="st0" d="M481.9,537.7c-2.5,0-4.6,0-6.9,0c-1.9-3.9-5-6.7-9.7-7.4c-4.6-0.7-8.5,0.8-11.4,3.9c-3.2-0.6-6.1-1.2-9.3-1.8
		c0-0.3-0.2-0.8-0.1-1.4c0.2-2.6,0.4-5.1,0.5-7.7c0.1-1.2,0.6-2,1.8-2.3c0.1,0,0.2-0.1,0.2-0.1c3.1-2.3,6.7-2.4,10.5-2.5
		c9.3-0.3,18-3,26-8c0.8-0.5,1.6-1,3-1.8C484.8,518.6,483.4,528,481.9,537.7z"/>
	<path class="st0" d="M88.8,540.1c-1,0.9-1.9,1.8-3,2.6c-4,2.9-8.1,1-8.5-3.9c-0.1-1.1,0-2.3,0-3.6c-0.9-0.1-1.6-0.2-2.2-0.3
		c-0.8-0.1-1.6,0-2.4-0.2c-4.2-0.9-5.7-4.6-3.3-8.2c1.2-1.7,2.6-2.8,4.9-2.9c9.9-0.4,19.7-0.7,29.6,0.1c2.9,0.2,5.8,3.5,5.8,6.5
		c0,2.5-2.1,4.5-5.1,4.8c-1.2,0.1-2.4,0-3.8,0c-0.1,1-0.1,1.6-0.2,2.3c-0.1,1-0.2,2.1-0.5,3.1c-1.1,3.4-4.2,4.7-7.3,2.8
		C91.4,542.4,90.2,541.2,88.8,540.1z"/>
	<path class="st0" d="M14.9,545.1c-4.4-0.9-8.9-1.1-13.3,0.5c-0.6-2-0.7-24-0.2-26.8c13.7-1.5,14.8-1.5,28.7-9
		c-0.4,2.8-0.8,5.5-1,8.1c-0.3,3.5-1.5,6.2-4.2,8.6c-4.6,4.2-7.3,9.6-8.9,15.6c-0.2,0.9-0.4,1.7-0.7,2.6
		C15.3,544.8,15.2,544.8,14.9,545.1z"/>
	<path class="st0" d="M16.1,546.6c1-6.2,3.2-11.7,7-16.5c1.3-1.6,2.8-3.1,4.4-4.5c-1.9,14.5-4.8,28.8-8.4,43.1
		c-5.9,0.7-11.7,1.4-17.7,2.2c-0.1-0.7-0.3-1.3-0.3-1.8c0-6.7,0-13.4,0-20.1c0-2,0.1-2.2,2.1-2.8c3.3-1,6.6-1.1,9.9-0.4
		C14,546.1,14.8,546.3,16.1,546.6z"/>
	<path class="st0" d="M118.5,501.4c0,4.8,0,9.4,0,14.2c-4.9,1.5-9.8,2.1-14.7,1.8c-7.8-0.5-15-2.7-21.8-6.6
		c-1.8-1.1-2.8-2.3-3.1-4.5c-0.9-6.3-2-12.5-2.6-19c0.6,0.8,1.2,1.5,1.9,2.3c5.3,6.6,11.9,11.2,20.2,13.3c6.2,1.5,12.4,1.3,18.5-0.9
		C117.3,501.7,117.9,501.6,118.5,501.4z"/>
	<path class="st0" d="M594.2,466.1c0,3.7,0,7,0,10.4c0,3.4,0.1,6.7,0,10c0,0.9-0.3,2-0.8,2.7c-4.9,6.4-11.3,10.5-19.3,11.9
		c-0.3,0-0.5,0-0.8,0c-0.6-1.8-0.7-28.4-0.2-32.1c1.7-0.1,3.4-0.1,5.1-0.2c2.3,0,4.6,0,6.9,0C589.9,468.7,589.9,468.7,594.2,466.1z"
		/>
	<path class="st0" d="M54.5,702c-0.5,1.7-0.9,3.1-1.3,4.4c-0.7,2.4-0.3,3.6,2,4.8c1.9,0.9,3.9,1.7,5.9,2.2c6.4,1.6,13,2.2,19.7,2.2
		c8.5,0,16.9-0.3,25.4-0.6c3.1-0.1,6.3-0.9,9.4-1.5c0.9-0.2,1.9-0.6,2.7-1c2.5-1.2,3-2.2,2.3-4.9c-0.3-1.3-0.7-2.5-1.1-4.3
		c4.6,1.1,8.8,2,12.3,4.7c1.8,1.4,1.8,3,0,4.4c-1.4,1.1-3,1.9-4.6,2.6c-6,2.4-12.4,3.5-18.8,4.3c-10.8,1.3-21.6,1.4-32.5,0.5
		c-8.6-0.7-17.2-2-25.4-4.7c-2-0.7-3.9-1.5-5.9-2.4c-0.8-0.4-1.5-0.8-2.3-1.4c-2.9-2.1-2.7-4,0.4-5.9c0.3-0.2,0.6-0.3,0.9-0.5
		C47,703.4,50.5,702.6,54.5,702z"/>
	<path class="st0" d="M488.9,484c-0.5,4.6-0.9,9.3-1.4,13.9c-0.3,2.5-0.7,4.9-0.8,7.4c-0.1,1.2-0.6,1.9-1.5,2.6
		c-7.2,4.9-15,8.1-23.7,9.1c-2.8,0.3-5.5,0.4-8.5,0.5c3.2-6.2,3.2-6.2,4.1-14.9c6.3-0.6,12.3-2.3,17.8-5.7
		c5.5-3.4,9.9-7.9,13.5-13.1C488.5,483.9,488.7,484,488.9,484z"/>
	<path class="st0" d="M1.3,517.2c0-4.5,0-8.9,0-13.4c6.4,0,12.3-1.5,17.7-4.7c5.3-3.1,9.6-7.4,13.5-12.9c0,1.1,0,1.7,0,2.2
		c-0.6,5.8-1.2,11.6-1.8,17.4c-0.1,1.2-0.4,2.2-1.5,2.9c-7.9,5.4-16.6,8.3-26.2,8.7C2.4,517.4,1.9,517.3,1.3,517.2z"/>
	<path class="st0" d="M143.9,712c-0.4,1.4-0.7,2.5-1,3.6c-0.6,2.2-0.4,2.8,1.8,3.6c1.7,0.6,3.5,1.2,5.3,1.5
		c16.3,2.9,32.6,3.2,49,0.7c1.4-0.2,2.8-0.6,4.1-1.1c1.7-0.7,2-1.3,1.6-3c-0.2-1.1-0.5-2.2-0.8-3.6c0.7,0,1.3-0.1,1.8,0.1
		c2.5,0.8,5,1.6,7.5,2.5c0.7,0.3,1.4,0.7,2,1.2c1.5,1.3,1.6,2.6-0.2,3.6c-1.7,1-3.6,2-5.5,2.4c-5.2,1.1-10.4,2.1-15.6,2.6
		c-11.2,1.1-22.4,0.9-33.5,0c-7.3-0.6-14.6-1.5-21.6-3.6c-2-0.6-4-1.4-5.8-2.4c-2.9-1.6-2.9-3.2-0.1-4.8
		C136.2,713.4,139.8,712.6,143.9,712z"/>
	<path class="st0" d="M536.1,484.2c3.4,4.5,6.9,8.3,11.2,11.3c4.2,3,8.9,5,14,6.3c0,4.9,0,9.8,0,15c-1.7-0.3-3.2-0.6-4.7-0.9
		c-5.4-1.3-10.5-3.5-15.3-6.5c-0.9-0.6-1.7-1.2-1.9-2.4c-1.1-7.1-2.3-14.3-3.5-21.4C535.9,485.3,536,485,536.1,484.2z"/>
	<path class="st0" d="M60.7,681.1c-3.5-12.2-6.9-24.3-9.7-36.8c7,0,13.6,0,20.6,0C68,656.7,64.4,668.9,60.7,681.1z"/>
	<path class="st0" d="M572.9,517.1c0-5.1,0-9.8,0-14.8c8.4-1.2,15.3-5.1,21.1-12.2c0.1,1.3,0.1,1.9,0.1,2.4c0,5.2,0,10.4,0,15.6
		c0,1-0.1,1.9-1.1,2.5C587,514.3,580.4,516.6,572.9,517.1z"/>
	<path class="st0" d="M184.9,644.6c-6.5,0.8-12.8,0.1-19.2-0.2c0.1-0.8,0.1-1.4,0.2-1.9c1.4-4.6,2.7-9.3,4.2-13.9
		c0.8-2.7,2.8-4.1,5.5-4.1c2.9,0,4.8,1.5,5.5,4.3c1.2,4.7,2.4,9.4,3.6,14.1C184.8,643.4,184.8,644,184.9,644.6z"/>
	<path class="st0" d="M130.4,715.2c-0.3,2.6-2.1,3.6-4.3,4.4c-6.8,2.5-13.8,3.6-20.9,4.4c-12.1,1.2-24.1,1.1-36.1-0.6
		c-7.4-1-14.8-2.4-21.7-5.3c-1.8-0.8-3.6-1.8-5.3-3c-1.1-0.7-2-1.7-1.7-3.2c3.1,1.4,6,2.9,9.1,4c7.9,2.8,16.2,4.1,24.6,4.8
		c4.8,0.4,9.7,0.8,14.5,0.8c11.6,0,23.3-0.8,34.6-3.9C125.4,717,127.8,716,130.4,715.2z"/>
	<path class="st0" d="M185.5,646.2c0.9,3.4,1.8,6.8,2.8,10.7c-8.9,1.1-17.5,1-26.4-0.5c1.1-3.7,2.1-7.1,3.1-10.6
		C171.7,645.8,178.5,646,185.5,646.2z"/>
	<path class="st0" d="M130.8,720.2c7.7,4.3,16,5.3,24.3,6.3c10.8,1.3,21.6,1.5,32.5,1c7.4-0.3,14.8-0.9,21.9-3
		c2.2-0.6,4.4-1.6,6.7-2.4c0.3,1.5-0.5,2.4-1.6,3c-2,1-4,2.1-6.1,2.5c-5.3,1.1-10.5,2.1-15.9,2.6c-14.5,1.3-29.1,0.9-43.5-1.5
		c-3.8-0.6-7.6-1.6-11.3-2.7c-1.8-0.5-3.6-1.5-5.3-2.4C131.5,723.1,130.4,722.2,130.8,720.2z"/>
	<path class="st0" d="M81.8,521.9c-0.7-3.6-1.3-7.1-2.1-11.3c9.6,5.8,19.4,8.4,30,7.7c0.6,0.7,1.2,1.5,1.8,2.2
		c2.3-0.7,4.4-1.3,6.9-2.1c0.1,2.1,0.2,3.8,0.4,6C106.6,522.1,94.4,521.7,81.8,521.9z"/>
	<path class="st0" d="M575.6,529.2c-1-0.2-1.8-0.4-2.7-0.6c0-3.4,0-6.7,0-10.3c7.5-0.7,14.4-2.9,21.1-6.9c0,2.1,0,3.7,0,5.5
		C586.1,518.1,579.8,522,575.6,529.2z"/>
	<path class="st0" d="M81.7,577.9c3.4,0.6,5.1,3,7.3,5c2.3-2,4.2-4.6,7.8-5c-0.3,2.8-0.6,5.5-0.9,8c-2.4,1.6-4.6,3.1-6.9,4.7
		c-1.8-1.2-3.9-2.6-5.8-4c-0.4-0.3-0.6-0.9-0.7-1.3C82.2,582.9,82,580.5,81.7,577.9z"/>
	<path class="st0" d="M57.7,690c0.3,1.6-0.4,2.1-1.8,2.3c-7.2,0.7-14.4,0.8-21.6,0.2c-4.4-0.4-8.7-1.1-13.1-1.9
		c-1.6-0.3-3.2-0.9-4.7-1.6c-0.8-0.4-1.5-1-2.5-1.7c2.3-2.5,5.1-2.7,8.1-3.4c-0.1,0.8-0.2,1.3-0.3,1.9c-0.3,1.8-0.2,2.3,1.6,2.7
		c2.4,0.7,4.8,1.2,7.2,1.5c8.2,1.1,16.3,1.2,24.5,0.2C55.9,690.1,56.8,690.1,57.7,690z"/>
	<path class="st0" d="M48.7,640.2c-4.1,0-7.9,0-12.1,0c1.1-3.8,2.1-7.2,3.2-10.6c0.5-1.4,1.9-1.9,3.2-1.8c1.3,0.1,2.6,0.6,3,2.1
		C47,633.3,47.8,636.7,48.7,640.2z"/>
	<path class="st0" d="M128.6,627.6c-4.2,0-8,0-12.1,0c1.1-3.7,2-7.1,3.1-10.4c0.5-1.5,1.7-2,3.4-2c1.7,0.1,2.6,0.7,3.1,2.4
		C126.9,620.8,127.7,624.1,128.6,627.6z"/>
	<path class="st0" d="M114.2,635.2c0.7-2.4,1.2-4.3,1.8-6.4c4.3,0,8.5,0,12.8,0c0.6,2.2,1.1,4.3,1.7,6.5
		C125,636.5,119.8,636,114.2,635.2z"/>
	<path class="st0" d="M88.9,600.2c-1.9-1.4-3.7-2.8-5.8-4.3c-0.2-2.4-0.3-5-0.5-7.9c2.9,0.5,4.3,3,6.4,4.4c2.1-1.6,3.6-3.9,6.6-4.5
		c-0.2,2.6-0.2,4.9-0.5,7.2c-0.1,0.6-0.6,1.2-1.1,1.6C92.4,597.8,90.7,598.9,88.9,600.2z"/>
	<path class="st0" d="M34.3,647.7c0.7-2.3,1.3-4.2,1.9-6.3c4.2,0,8.4,0,12.8,0c0.5,2.1,1.1,4.2,1.7,6.6
		C45.1,648.8,39.9,648.7,34.3,647.7z"/>
	<path class="st0" d="M94.8,605.5c-2,1.5-3.9,2.9-5.8,4.4c-1.8-1.4-3.7-2.9-5.7-4.4c0-2.4,0-4.9,0-7.6c2.6,0.4,3.7,2.7,5.7,4.1
		c0.9-0.9,1.8-1.7,2.7-2.5c0.9-0.7,1.8-1.2,3-2.1C94.8,600.5,94.8,603.1,94.8,605.5z"/>
	<path class="st0" d="M561.3,518c0,1.7,0,3.2,0,5.1c-6-4.8-12.4-5.6-19.4-2.7c-0.7-3.4-1.3-6.6-2-10.4
		C546.8,514.1,553.8,516.8,561.3,518z"/>
	<path class="st0" d="M86.8,570.1c1.1,1,2.2,2,3.3,3.1c0.7-0.6,1.4-1.2,2.1-1.8c1.5,1,3,2,4.4,3c1,0.7,0.8,2-0.3,2.2
		c-2.9,0.6-5,2.4-7.2,4.5c-0.4-0.3-0.8-0.6-1.3-0.9c-1.8-1.1-3.5-2.4-5.3-3.4c-1.6-0.8-1.8-2.1-0.5-3.2
		C83.6,572.6,85,571.5,86.8,570.1z"/>
	<path class="st0" d="M113.5,677.9c1.6,0.1,3.2,0.1,4.7,0.2c6.5,0.5,13,0,19.5-0.9c0.6-0.1,1.2-0.2,1.8-0.4c2.1-0.6,2.3-1,1.9-3.2
		c-0.1-0.3-0.1-0.7-0.2-1c2.7-0.2,5.7,1.1,7.4,3.1c-0.6,1.5-2,1.9-3.4,2.2c-4,0.8-7.9,1.8-11.9,2c-5.9,0.4-11.8,0.2-17.7,0.1
		C113.7,680,113.7,679.9,113.5,677.9z"/>
	<path class="st0" d="M56.8,693.5c0.1,1.2-0.6,1.4-1.4,1.4c-2.2,0.2-4.4,0.4-6.6,0.5c-9.2,0.3-18.3,0-27.3-2.2
		c-1.8-0.4-3.5-1.1-5.2-1.8c-0.7-0.3-1.3-0.9-1.7-1.8c1.5,0.5,3.1,1.1,4.6,1.6c7.4,2,14.9,2.7,22.5,2.7c4.7,0,9.5-0.3,14.2-0.5
		C56.2,693.4,56.5,693.5,56.8,693.5z"/>
	<path class="st0" d="M94.6,607.7c0,1.3,0.1,2.6,0,3.9c0,0.5-0.5,1.2-0.9,1.4c-3,1.2-6.2,1.2-9.3,0.4c-0.9-0.2-1.2-0.9-1.2-1.8
		c0-1.3,0-2.6,0-4.1c2.8,0.3,3.8,2.8,5.8,4c1.7-1.4,3.4-2.8,5.1-4.2C94.3,607.4,94.5,607.6,94.6,607.7z"/>
	<path class="st0" d="M113.8,681.1c11.9,0.4,23.4,0.9,34.8-2.6c-0.8,0.5-1.6,1.3-2.5,1.5c-2.6,0.8-5.2,1.6-7.9,2
		c-7.3,1.1-14.8,1.1-22.2,0.7C114.8,682.6,114.8,682.6,113.8,681.1z"/>
	<path class="st0" d="M116.8,559.2c0-1.1,0-1.8,0-2.7c1,0,2-0.1,2.9-0.1c1.5-0.1,3-0.1,4.5-0.3c4.1-0.5,4.1-0.5,8.7,1.9
		C127.2,558.5,122.1,558.8,116.8,559.2z"/>
	<path class="st0" d="M104.6,644.6c2,0,3.6,0,5.5,0c-0.9,3.2-1.8,6.1-2.7,9.1c-0.1,0-0.3,0-0.4,0
		C106.2,650.8,105.5,647.8,104.6,644.6z"/>
	<path class="st0" d="M572,581.5c0.4-0.9,0.7-1.6,1.2-2.7c3.7,0.3,7.5,0.7,11.8,1C582.6,581.2,576.6,581.9,572,581.5z"/>
	<path class="st0" d="M561,578.9c0.5,0.9,0.9,1.7,1.4,2.7c-4.3,0.2-8.4-0.2-12.6-1.3C553.5,579.2,557.2,579.1,561,578.9z"/>
	<path class="st0" d="M591.7,585.4c1.7-0.3,2.5,0,2.5,1.7c-0.1,3,0,5.9-0.5,9C593,592.6,592.4,589.1,591.7,585.4z"/>
	<path class="st0" d="M90,571.6c-0.9-0.9-1.7-1.6-2.5-2.4c0.5-0.5,0.9-0.9,1.2-1.3C91.3,570.1,91.3,570.1,90,571.6z"/>
	<path class="st0" d="M111.7,518.2c1.6-0.3,3.1-0.5,4.7-0.8c-1.5,0.8-2.9,1.7-4.6,1.6C111.7,518.8,111.7,518.5,111.7,518.2z"/>
	<path class="st0" d="M557.4,577.5c1,0,2.1,0,3.1,0c0,0.1,0,0.2,0,0.2c-1,0-2.1,0-3.1,0C557.4,577.6,557.4,577.5,557.4,577.5z"/>
	<path class="st0" d="M577.3,578.1c-1.2-0.1-2.4-0.3-3.7-0.4C575.9,577.2,575.9,577.2,577.3,578.1L577.3,578.1z"/>
	<path class="st0" d="M577.3,578.1c1.1,0,2.2,0,3.4,0c0,0,0,0,0,0C579.6,578.1,578.5,578.1,577.3,578.1
		C577.3,578.1,577.3,578.1,577.3,578.1z"/>
	<path class="st0" d="M554.5,578.2c-0.3,0-0.7,0-1,0c0,0,0-0.1,0-0.1c0.3,0,0.6,0,1-0.1C554.5,578.1,554.5,578.1,554.5,578.2z"/>
	<path d="M160.7,366.2c0.3-7.6,0.5-15.2,0.8-22.7c0.1-4.3,1.9-8,4.8-11.1c3.9-4.1,8.7-6.8,13.8-9.2c8.2-3.8,16.9-6.2,25.6-8.3
		c17.5-4.3,35.1-7.8,53-10.1c15.7-2,31.4-3.2,47.2-3.4c5.7-0.1,11.5-0.2,17.2-0.2c9,0,18,0.5,26.8,2.4c4.1,0.9,8,2.2,11.7,4.2
		c4.7,2.5,7.7,6.2,9.2,11.4c4.3,14.5,7.8,29.1,10.8,43.9c0.3,1.5,0.4,3,0.5,4.5c0.3,5.5-2.2,9.5-6.9,12.2c-3.5,2-7.2,3.3-11.2,3.7
		c-15.5,1.9-31,3.7-46.5,5.5c-15.4,1.8-30.8,3.7-46.2,5.6c-12.6,1.5-25.2,3-37.8,4.5c-15.4,1.8-30.8,3.7-46.2,5.6
		c-4.3,0.5-8.6,1.1-12.9,0.1c-1.8-0.4-3.6-0.9-5.3-1.6c-4.8-2-7.1-6-7.4-11c-0.4-5.4-0.5-10.7-0.6-16.1c-0.1-3.3,0-6.5,0-9.8
		C160.9,366.2,160.8,366.2,160.7,366.2z M161.8,366.8c0.1,0,0.1,0,0.2,0c0,2.9-0.1,5.8,0,8.7c0.1,5.4,0.2,10.8,0.6,16.1
		c0.4,5.7,3.3,9.6,8.9,11.2c3.4,1,6.9,1.6,10.5,1.1c13.3-1.5,26.6-3.1,39.9-4.8c15.5-1.9,31-3.8,46.5-5.6c12.6-1.5,25.2-3,37.8-4.5
		c17.4-2.1,34.8-4.2,52.3-6.3c4.3-0.5,8.6-0.9,12.7-2.5c8.4-3.3,11.3-8.1,9.5-16.9c-2.9-14.8-6.5-29.4-10.8-43.9
		c-1.5-5.2-4.6-8.8-9.4-11.2c-1.7-0.8-3.4-1.6-5.1-2.2c-6.7-2.3-13.7-3.3-20.8-3.7c-13.5-0.7-27-0.6-40.5,0.3
		c-11.8,0.7-23.6,1.6-35.3,3c-16,1.9-31.9,5.1-47.6,8.8c-9.5,2.3-19,4.5-28.1,8.4c-5.8,2.5-11.3,5.3-15.8,9.9c-3,3-4.6,6.6-4.7,10.9
		C162.3,351.5,162.1,359.2,161.8,366.8z"/>
	<path d="M282,518.7c-4.5,0.1-10.7-1.7-16.4-5.2c-0.6-0.4-1.2-0.8-1.7-1.3c-0.7-0.7-0.8-1.6-0.2-2.4c0.6-0.8,1.4-1.1,2.3-0.7
		c0.6,0.2,1.1,0.6,1.6,0.9c13,7.6,28.1,5.9,39-4.5c0.4-0.4,0.9-0.9,1.4-1.2c0.8-0.6,1.7-0.5,2.4,0.1c0.7,0.7,0.9,1.6,0.4,2.4
		c-0.5,0.7-1.1,1.4-1.7,2C302.2,515.3,293.9,518.7,282,518.7z"/>
	<path d="M279.7,464.6c-8.6,0.5-19.5-6.5-19.5-19.4c-0.1-11.2,8.9-19.5,19.5-19.5c10.8,0,19.5,8.7,19.5,19.5
		C299.3,456,290.6,464.6,279.7,464.6z M279.6,426.8c-9-0.1-18.3,6.8-18.3,18.3c0,12.5,10.6,18.6,18.5,18.5
		c10.1-0.2,18.4-8.3,18.4-18.4C298.2,435,289.9,426.7,279.6,426.8z"/>
	<path d="M410.3,403c0.3-11.2,7.9-18.5,19.1-19c11.4-0.5,19,10.4,18.8,19.2c-0.3,10.4-8.5,18.7-19,18.7
		C418.1,422,409.9,412.6,410.3,403z M447.1,403.7c0-4.6-1.3-8.1-3.4-11.3c-1.8-2.8-4.5-3.5-7.4-4.4c-6-1.8-11.7-0.9-17.1,2.1
		c-0.8,0.4-1.5,1.2-2.3,1.3c-1.6,0.1-2.2,1.3-2.9,2.4c-3.9,6.3-3.3,14.6,1.5,20.5c4.6,5.7,12.7,8,19.6,5.6
		C442.3,417.4,447.1,410.7,447.1,403.7z"/>
	<path d="M124.5,420.5c3.3-0.1,6.4,0.8,9.3,2.1c1.5,0.7,2.7,2.2,3.9,3.4c4.1,3.9,5.9,8.7,5.7,14.3c-0.3,9.8-8,17.7-18.2,18.2
		c-9.9,0.5-17.9-6.7-19.4-15.6c-0.8-4.8,0.3-9.2,2.5-13.5C111.9,422.8,117.9,421.1,124.5,420.5z M124.8,423.4
		c-4.1,0.2-7.9,1.3-11.3,3.6c-0.6,0.4-1.2,0.6-1.8,1c-0.7,0.5-1.5,0.9-2,1.5c-2.7,4.1-3.7,8.5-2.7,13.3c1.4,7.1,7.2,13,14.3,14.2
		c7.4,1.3,14.7-2,18.5-8.5c3.8-6.3,3.3-14.3-1.3-20.1c-1.4-1.7-2.7-3.5-5.3-3.3c-0.6,0-1.2-0.4-1.8-0.5
		C129.3,424.3,127,423.9,124.8,423.4z"/>
	<path d="M579.2,386.4c0,5.1,0,10.2,0,15.3c0,1.9-0.4,3.7-1.6,5.2c-1.2,1.7-2.9,2.6-5,2.6c-8.7,0-17.5,0-26.2,0
		c-3.1,0-5.6-2.1-6.3-5.3c-0.2-1.1-0.3-2.3-0.3-3.4c0-9.4,0-18.9,0-28.3c0-1.1,0.1-2.3,0.3-3.4c0.7-3.7,3.9-5.7,6.9-5.6
		c8.2,0.2,16.4,0.1,24.6,0.1c4.8,0,7.5,2.7,7.5,7.5C579.3,376.2,579.2,381.3,579.2,386.4z M541,386.6c0,4.6,0,9.2,0,13.7
		c0,1.1,0,2.1,0.2,3.2c0.5,3,2.6,4.9,5.6,4.9c8.5,0,17.1,0,25.6,0c2.5,0,4.2-1.4,5-3.6c0.4-1.1,0.6-2.4,0.6-3.6c0-9.8,0-19.6,0-29.3
		c0-1.2-0.2-2.5-0.6-3.6c-0.9-2.3-2.6-3.7-5.2-3.7c-8.5,0-16.9,0-25.4,0c-3.1,0-5.3,2-5.8,5.1c-0.2,0.9-0.2,1.9-0.2,2.9
		C541,377.2,541,381.9,541,386.6z"/>
	<path d="M540.1,440.2c0-5.1,0-10.2,0-15.4c0-1.6,0.3-3.2,1.2-4.5c1.2-1.8,2.8-2.9,5-2.9c8.8,0,17.6,0,26.5,0c2.8,0,5,1.7,5.9,4.5
		c0.4,1.2,0.6,2.4,0.6,3.6c0,9.9,0,19.8,0,29.6c0,0.4,0,0.9,0,1.3c-0.6,4-2.8,6.9-7.5,6.9c-6.8,0-13.6,0-20.4,0c-1.3,0-2.6,0-4,0
		c-4.5-0.1-7.2-2.8-7.2-7.3C540,450.8,540.1,445.5,540.1,440.2z M541.1,440.4C541.1,440.4,541.1,440.4,541.1,440.4
		c0,4.6,0,9.2,0,13.8c0,0.5,0,1.1,0,1.6c0.1,4.2,2.4,6.5,6.6,6.6c7.9,0.1,15.7,0,23.6,0c0.4,0,0.9,0,1.3-0.1
		c2.8-0.3,4.5-1.8,5.2-4.5c0.3-1.1,0.4-2.3,0.4-3.4c0-9.4,0-18.7,0-28.1c0-1.3-0.2-2.7-0.6-3.9c-0.7-2.4-2.7-3.8-5.1-3.9
		c-8.6,0-17.3,0-25.9,0c-2.3,0-3.9,1.2-4.7,3.2c-0.5,1.1-0.7,2.4-0.7,3.6C541.1,430.3,541.1,435.4,541.1,440.4z"/>
	<path class="st0" d="M161.8,366.8c0.3-7.7,0.5-15.3,0.8-23c0.1-4.3,1.8-7.9,4.7-10.9c4.5-4.6,10.1-7.4,15.8-9.9
		c9-3.9,18.6-6.1,28.1-8.4c15.7-3.7,31.5-6.9,47.6-8.8c11.7-1.4,23.5-2.3,35.3-3c13.5-0.9,27-0.9,40.5-0.3c7.1,0.3,14,1.4,20.8,3.7
		c1.7,0.6,3.5,1.3,5.1,2.2c4.8,2.3,7.9,6,9.4,11.2c4.3,14.5,7.9,29.1,10.8,43.9c1.7,8.8-1.1,13.6-9.5,16.9c-4.1,1.6-8.4,2-12.7,2.5
		c-17.4,2.1-34.8,4.2-52.3,6.3c-12.6,1.5-25.2,3-37.8,4.5c-15.5,1.9-31,3.8-46.5,5.6c-13.3,1.6-26.6,3.2-39.9,4.8
		c-3.5,0.4-7-0.2-10.5-1.1c-5.6-1.6-8.5-5.6-8.9-11.2c-0.4-5.4-0.5-10.7-0.6-16.1c-0.1-2.9,0-5.8,0-8.7
		C161.9,366.8,161.9,366.8,161.8,366.8z M322.2,306.4c-6.2,0.5-12.5,1-18.7,1.5c-1.6,0.1-3.1,0.4-4.7,0.7c-0.8,0.1-1.6,0.6-1.5,1.5
		c0.1,1,0.8,1.5,1.8,1.6c0.5,0.1,1.1,0,1.6,0c6.9,0.2,13.7,0.3,20.6,0.8c5.7,0.4,11.3,1.7,16.8,3.5c8.3,2.7,15,7.7,21,13.8
		c5.7,5.7,10,12.3,11.8,20.3c0.1,0.5,0.3,1.1,0.6,1.4c0.4,0.4,1.1,0.7,1.6,0.6c0.5-0.1,1-0.6,1.3-1.1c0.2-0.4,0.1-1-0.1-1.5
		c-1.2-4.8-2.3-9.6-3.7-14.3c-3.9-12.6-12-21.1-24.6-25.3C338.2,307.4,330.3,306.6,322.2,306.4z"/>
	<path class="st0" d="M279.6,426.8c10.2-0.1,18.5,8.2,18.5,18.5c0,10.1-8.2,18.2-18.4,18.4c-7.9,0.2-18.5-5.9-18.5-18.5
		C261.3,433.6,270.6,426.7,279.6,426.8z M285.5,430.6c-2.5,0-4.5,2-4.5,4.5c0,2.6,2.1,4.7,4.7,4.6c2.5,0,4.5-2,4.5-4.5
		C290.2,432.6,288.2,430.6,285.5,430.6z"/>
	<path class="st0" d="M447.1,403.7c0,6.9-4.8,13.7-12.1,16.2c-6.9,2.4-15,0.1-19.6-5.6c-4.8-5.9-5.4-14.2-1.5-20.5
		c0.7-1.1,1.3-2.2,2.9-2.4c0.8-0.1,1.5-0.8,2.3-1.3c5.4-3,11-3.9,17.1-2.1c2.9,0.8,5.6,1.6,7.4,4.4
		C445.7,395.7,447.1,399.1,447.1,403.7z M419.9,403.1c0,5.3,4.1,9.4,9.4,9.3c5.3,0,9.3-4.1,9.3-9.5c0-5.2-4.2-9.4-9.4-9.3
		C423.9,393.6,419.8,397.8,419.9,403.1z"/>
	<path class="st0" d="M124.8,423.4c2.2,0.4,4.5,0.8,6.7,1.3c0.6,0.1,1.2,0.6,1.8,0.5c2.6-0.2,3.9,1.6,5.3,3.3
		c4.6,5.7,5.1,13.8,1.3,20.1c-3.9,6.4-11.1,9.8-18.5,8.5c-7.1-1.2-12.9-7-14.3-14.2c-0.9-4.9,0.1-9.3,2.7-13.3
		c0.4-0.7,1.3-1.1,2-1.5c0.6-0.4,1.2-0.6,1.8-1C116.9,424.8,120.7,423.7,124.8,423.4z M124.6,430.1c-5.3-0.1-9.5,4-9.6,9.2
		c-0.1,5.2,4.1,9.5,9.3,9.6c5.1,0.1,9.5-4.1,9.6-9.3C134,434.4,129.9,430.2,124.6,430.1z"/>
	<path class="st0" d="M541,386.6c0-4.7,0-9.3,0-14c0-1,0-1.9,0.2-2.9c0.5-3.1,2.7-5.1,5.8-5.1c8.5,0,16.9,0,25.4,0
		c2.6,0,4.3,1.4,5.2,3.7c0.4,1.1,0.6,2.4,0.6,3.6c0,9.8,0,19.6,0,29.3c0,1.2-0.2,2.5-0.6,3.6c-0.9,2.2-2.5,3.6-5,3.6
		c-8.5,0-17.1,0-25.6,0c-3,0-5.1-1.9-5.6-4.9c-0.2-1-0.2-2.1-0.2-3.2C541,395.7,541,391.1,541,386.6z M553.9,375.5
		c-3.6,2.4-6.1,5.4-7.8,9.1c-0.3,0.7-0.7,1.9-0.4,2.2c1.8,2,1.4,4.5,1.8,6.8c0.8,4.9,3.9,8,8,10.2c3,1.5,6,1,8.8-0.9
		c3.8-2.5,6.1-5.9,6.6-10.6c0.1-1.2,0.7-2.5,1.4-3.6c0.5-0.9,0.6-1.5,0.3-2.4c-1.1-2.9-2.5-5.6-4.8-7.8c-1.8-1.8-3.5-3.5-4.5-6
		c-1.2-2.9-4-4.2-6.9-3.7c-0.6,0.1-1.7,0.9-1.7,1.2c0.2,1.2-0.7,1.5-1.2,2.2C552.5,373.4,552.5,373.8,553.9,375.5z"/>
	<path class="st0" d="M541.1,440.4c0-5,0-10.1,0-15.1c0-1.2,0.2-2.5,0.7-3.6c0.9-2,2.4-3.2,4.7-3.2c8.6,0,17.3,0,25.9,0
		c2.4,0,4.4,1.4,5.1,3.9c0.4,1.2,0.6,2.6,0.6,3.9c0,9.4,0,18.7,0,28.1c0,1.1-0.1,2.3-0.4,3.4c-0.6,2.7-2.4,4.2-5.2,4.5
		c-0.4,0.1-0.9,0.1-1.3,0.1c-7.9,0-15.7,0-23.6,0c-4.2,0-6.5-2.3-6.6-6.6c0-0.5,0-1.1,0-1.6C541.1,449.6,541.1,445,541.1,440.4
		C541.1,440.4,541.1,440.4,541.1,440.4z M553.8,429.4c-0.7,0.6-1.3,1-1.8,1.5c-2.5,2.1-4.6,4.7-5.9,7.7c-0.3,0.7-0.5,2-0.1,2.4
		c1.1,1.3,1.2,2.7,1.3,4.2c0.3,4.4,2.1,7.9,5.5,10.7c3.4,2.8,7.7,3.3,11.2,1.1c3.9-2.5,6.4-5.9,6.9-10.7c0.1-1.3,0.6-2.6,1.3-3.6
		c0.7-1,0.7-1.9,0.3-2.9c-1.2-3.1-2.8-5.9-5.3-8.1c-1.6-1.4-3-2.8-3.7-4.9c-0.4-1.2-1.6-2.4-2.6-3.2c-1.4-1.1-3.2-1.6-5-0.9
		c-0.5,0.2-1.2,0.9-1.2,1.2c0.3,1-0.4,1.4-0.9,2C552.5,427.1,552.5,427.5,553.8,429.4z"/>
	<path d="M322.2,306.4c8.1,0.2,16,1,23.8,3.6c12.6,4.2,20.7,12.7,24.6,25.3c1.4,4.7,2.5,9.5,3.7,14.3c0.1,0.5,0.3,1.1,0.1,1.5
		c-0.2,0.5-0.8,1-1.3,1.1c-0.5,0.1-1.2-0.2-1.6-0.6c-0.4-0.3-0.5-0.9-0.6-1.4c-1.8-8-6.2-14.6-11.8-20.3c-6-6.1-12.7-11.1-21-13.8
		c-5.5-1.8-11.1-3.1-16.8-3.5c-6.9-0.5-13.7-0.6-20.6-0.8c-0.5,0-1.1,0.1-1.6,0c-1-0.1-1.7-0.6-1.8-1.6c-0.1-1,0.7-1.4,1.5-1.5
		c1.6-0.3,3.1-0.6,4.7-0.7C309.7,307.4,316,306.9,322.2,306.4z M372.4,351.1c0.2,0,0.4-0.1,0.6-0.1c0-0.5,0.2-1,0.1-1.4
		c-1.1-4.6-2.2-9.3-3.5-13.8c-4.2-13.8-13.5-22.2-27.3-25.8c-5.1-1.3-10.4-2-15.7-2.2c-8.8-0.3-17.6,0.5-26.4,1.7
		c-0.5,0.1-1,0.4-1.5,0.6c0,0.2,0.1,0.4,0.1,0.6c0.9,0,1.7,0,2.6,0c6.8,0.3,13.6,0.3,20.3,0.9c7.6,0.6,14.9,2.4,21.9,5.6
		c6,2.8,11.1,6.9,15.7,11.5c6,5.9,10.6,12.7,12.5,21.1C371.9,350.2,372.2,350.7,372.4,351.1z"/>
	<path d="M285.5,430.6c2.6,0,4.7,2,4.7,4.6c0,2.5-2,4.5-4.5,4.5c-2.6,0-4.7-2-4.7-4.6C281,432.6,283,430.6,285.5,430.6z
		 M289.1,435.1c0-1.9-1.7-3.5-3.6-3.4c-2,0.1-3.4,1.7-3.3,3.7c0.1,1.9,1.6,3.3,3.4,3.3C287.5,438.7,289.2,437,289.1,435.1z"/>
	<path d="M419.9,403.1c0-5.3,4.1-9.5,9.3-9.5c5.3,0,9.4,4.1,9.4,9.3c0,5.3-4,9.4-9.3,9.5C424,412.4,419.9,408.4,419.9,403.1z
		 M430.5,398.4c0,1.5,0.9,2.6,2.3,2.7c1.5,0.1,2.7-1,2.8-2.5c0-1.4-1.2-2.7-2.7-2.7C431.5,395.8,430.5,396.9,430.5,398.4z"/>
	<path d="M124.6,430.1c5.2,0.1,9.3,4.3,9.3,9.5c-0.1,5.1-4.5,9.4-9.6,9.3c-5.2-0.1-9.4-4.4-9.3-9.6
		C115.2,434.1,119.3,430.1,124.6,430.1z M130.8,435.1c0.1-1.5-1.1-2.7-2.6-2.7c-1.4,0-2.5,1.1-2.6,2.5c-0.1,1.5,1,2.7,2.6,2.7
		C129.7,437.5,130.8,436.5,130.8,435.1z"/>
	<path d="M553.9,375.5c-1.4-1.6-1.5-2.1-0.4-3.4c0.5-0.6,1.4-1,1.2-2.2c-0.1-0.3,1-1.1,1.7-1.2c2.9-0.5,5.7,0.8,6.9,3.7
		c1,2.5,2.7,4.2,4.5,6c2.3,2.2,3.7,4.9,4.8,7.8c0.3,0.9,0.2,1.6-0.3,2.4c-0.7,1.1-1.3,2.4-1.4,3.6c-0.5,4.6-2.8,8-6.6,10.6
		c-2.8,1.8-5.8,2.4-8.8,0.9c-4.1-2.1-7.2-5.3-8-10.2c-0.4-2.3,0-4.8-1.8-6.8c-0.3-0.3,0.1-1.5,0.4-2.2
		C547.8,380.8,550.4,377.9,553.9,375.5z M554.4,373.1c2.4,1.1,2.5,1.9,0.7,3.3c-0.4,0.3-0.9,0.6-1.3,0.9c-2.7,2-4.8,4.4-6.3,7.4
		c-0.4,0.8-0.6,1.5-0.1,2.4c0.6,1,1,2.3,1,3.5c0.1,4.5,2,7.9,5.4,10.7c2.9,2.3,6.6,2.6,9.5,0.6c3.6-2.4,5.9-5.7,6.3-10.1
		c0.1-1.2,0.5-2.5,1.1-3.4c0.6-1,0.5-1.7,0.1-2.7c-1.2-3-3-5.6-5.5-7.6c-1.3-1.1-2.3-2.2-2.9-3.9c-0.8-2.4-2.6-4.2-5.5-4.2
		c-0.1,0-0.2,0.2-0.3,0.3c0.4,0.6,0.8,1.2,1.3,1.9C556.1,371.9,556.1,371.9,554.4,373.1z"/>
	<path d="M553.8,429.4c-1.3-1.9-1.3-2.2,0-3.7c0.5-0.6,1.2-0.9,0.9-2c-0.1-0.3,0.7-1,1.2-1.2c1.8-0.7,3.6-0.2,5,0.9
		c1.1,0.8,2.2,1.9,2.6,3.2c0.8,2.1,2.1,3.5,3.7,4.9c2.5,2.2,4.1,5,5.3,8.1c0.4,1.1,0.4,1.9-0.3,2.9c-0.7,1-1.2,2.4-1.3,3.6
		c-0.5,4.8-3.1,8.1-6.9,10.7c-3.5,2.3-7.9,1.7-11.2-1.1c-3.4-2.8-5.2-6.3-5.5-10.7c-0.1-1.5-0.2-2.9-1.3-4.2
		c-0.4-0.4-0.2-1.7,0.1-2.4c1.3-3,3.3-5.6,5.9-7.7C552.5,430.4,553.1,429.9,553.8,429.4z M547.2,439.1c0.6,2.6,1.2,4.5,1.3,6.3
		c0.3,4.7,2.9,8,6.6,10.5c2.7,1.8,5.5,1.6,8.2-0.2c3.5-2.3,5.8-5.3,6.4-9.5c0.3-1.8,1-3.6,1.7-5.9c-1-3.1-3-6.3-6.1-8.7
		c-1.2-1-2-2-2.5-3.5c-0.8-2.4-2.3-4.2-5.1-4.3c-0.2,0-0.5,0.1-0.7,0.2c0.4,0.7,0.8,1.3,1.3,2.1c-1.6-0.1-3-0.6-3.6,0.8
		c0.6,0.6,1.6,1,1.6,1.5c0,0.6-0.7,1.3-1.1,1.9c-0.1,0.1-0.3,0.2-0.4,0.3C551.1,432.7,548.6,435.8,547.2,439.1z"/>
	<path class="st0" d="M372.4,351.1c-0.2-0.5-0.5-0.9-0.6-1.4c-1.9-8.4-6.5-15.2-12.5-21.1c-4.7-4.6-9.7-8.7-15.7-11.5
		c-7-3.2-14.3-5-21.9-5.6c-6.8-0.6-13.6-0.6-20.3-0.9c-0.8,0-1.7,0-2.6,0c0-0.2-0.1-0.4-0.1-0.6c0.5-0.2,1-0.5,1.5-0.6
		c8.7-1.2,17.5-1.9,26.4-1.7c5.3,0.2,10.5,0.8,15.7,2.2c13.8,3.6,23.1,12,27.3,25.8c1.4,4.5,2.4,9.2,3.5,13.8c0.1,0.4,0,0.9-0.1,1.4
		C372.8,351,372.6,351.1,372.4,351.1z"/>
	<path class="st0" d="M289.1,435.1c0,1.9-1.6,3.5-3.5,3.5c-1.9,0-3.3-1.4-3.4-3.3c-0.1-2,1.4-3.6,3.3-3.7
		C287.4,431.6,289.1,433.2,289.1,435.1z"/>
	<path class="st0" d="M430.5,398.4c0-1.4,1.1-2.5,2.5-2.6c1.4,0,2.7,1.2,2.7,2.7c0,1.5-1.3,2.6-2.8,2.5
		C431.4,400.9,430.4,399.9,430.5,398.4z"/>
	<path class="st0" d="M130.8,435.1c-0.1,1.4-1.1,2.5-2.6,2.5c-1.6,0-2.7-1.2-2.6-2.7c0.1-1.4,1.2-2.5,2.6-2.5
		C129.8,432.4,130.9,433.5,130.8,435.1z"/>
	<path class="st0" d="M554.4,373.1c1.7-1.1,1.7-1.1,3.8-1c-0.5-0.7-0.9-1.3-1.3-1.9c0.1-0.1,0.2-0.3,0.3-0.3c2.9,0,4.6,1.7,5.5,4.2
		c0.6,1.7,1.5,2.9,2.9,3.9c2.5,2,4.3,4.6,5.5,7.6c0.4,0.9,0.5,1.7-0.1,2.7c-0.6,1-1,2.3-1.1,3.4c-0.5,4.4-2.7,7.7-6.3,10.1
		c-3,2-6.7,1.7-9.5-0.6c-3.4-2.8-5.3-6.2-5.4-10.7c0-1.2-0.4-2.4-1-3.5c-0.5-1-0.3-1.6,0.1-2.4c1.5-3,3.6-5.4,6.3-7.4
		c0.4-0.3,0.9-0.6,1.3-0.9C556.9,375,556.8,374.1,554.4,373.1z"/>
	<path class="st0" d="M547.2,439.1c1.4-3.3,3.9-6.4,7.4-8.6c0.1-0.1,0.4-0.1,0.4-0.3c0.4-0.6,1.1-1.3,1.1-1.9c0-0.5-1-0.9-1.6-1.5
		c0.7-1.4,2.1-0.9,3.6-0.8c-0.5-0.8-0.9-1.4-1.3-2.1c0.3-0.1,0.5-0.2,0.7-0.2c2.8,0.1,4.3,2,5.1,4.3c0.5,1.5,1.3,2.6,2.5,3.5
		c3,2.4,5.1,5.6,6.1,8.7c-0.7,2.3-1.4,4.1-1.7,5.9c-0.6,4.3-2.9,7.3-6.4,9.5c-2.7,1.8-5.5,1.9-8.2,0.2c-3.7-2.5-6.3-5.8-6.6-10.5
		C548.4,443.5,547.8,441.7,547.2,439.1z"/>
</g>
</svg>
