<?xml version="1.0" encoding="utf-8"?>
<!-- Generator: Adobe Illustrator 26.0.0, SVG Export Plug-In . SVG Version: 6.00 Build 0)  -->
<svg version="1.1" id="Capa_1" xmlns="http://www.w3.org/2000/svg" xmlns:xlink="http://www.w3.org/1999/xlink" x="0px" y="0px"
	 viewBox="0 0 595.3 796.9" style="enable-background:new 0 0 595.3 796.9;" xml:space="preserve">
<style type="text/css">
	.st0{fill:#FFFFFF;}
</style>
<g>
	<path d="M364.9,668c6.6,30.2,11.8,60.3,8.7,91.2c-1.9,12.8,0,33.4-17.2,34.9c-11.8,2.1-26.6-6.5-25-19.8
		c4.2-32.9-0.1-65.5-7.4-97.7c-1.4,0.1-2.9,0.1-4.6,0.2c-2.2,35,1.4,70.7-2.9,105.5c-1.7,4.6-5.4,7.4-9.9,9
		c-11.3,4.9-28.5,0.8-29.4-13.5c-0.5-33.5,0-67-0.2-100.6c-1.4-0.4-2.5-0.8-3.4-1.1c-2.4,1.7-2.3,4.1-2.8,6.3
		c-7.7,29.6-11.8,60.4-8.5,90.9c4.1,24.1-33.4,29.2-38,3.6c-5.4-36,3.4-71.5,7.9-107c-2.6-1.4-5-3.3-6.8,0.3
		c-10.2,14.9-17.5,31.4-21.8,48.9c-1.8,11.3-1.7,22.9-2.7,34.3c-2.1,13,9.5,30.7-6.5,37.8c-11.2,7.6-29.1,2.1-31.8-11.7
		c-3.1-16.4-2.7-33.1-2.4-49.7c0.2-27.3,15-51,24.9-75.6C75.6,603,7.3,488,1.7,368.7C-11.9,227.6,54.9,79.6,190.5,23.6
		c129.4-61,276.4,2.6,351.3,117.4c60.2,92.5,67.4,213.2,32.4,316.4c-27.8,83.5-91.2,151.1-167.3,193.5
		c12.4,21.9,26.5,44.2,28.9,69.9c2,18.9,2.7,37.8-0.4,56.6c-2.5,28.8-48.9,25-45-5.5c2.2-22,5.8-45-4.7-65.6
		c-5.3-11.4-10.9-22.7-16.3-34C368.2,669.9,367.9,668.9,364.9,668z"/>
	<path class="st0" d="M42.2,173.8c169-0.3,338.1-1.9,507.1-2.7c6.3-1.4,18.6,36.8,21,43.1c14,42,20.2,86.5,18.3,130.7
		c-2.8,131.7-75.5,242.4-190.7,304.2c14.1,22.2,28.9,45.7,31.7,72.4c1.8,19.2,3.1,38.7-1.2,57.6c-2.2,12.8-19.4,14.5-26.5,7.9
		c-14.4-11.2,7.8-45.7-10-82.4c-6-13.9-12.6-27.5-19.9-40.8c-1.9-3.4-2.3-3.6-6.1-2.2c-1.8,0.7-3.7,1.2-5.5,1.8
		c-2.7,0.9-3,1.6-2.4,4.3c2,9.5,4.1,19.1,6,28.6c5.7,26.6,5,54.2,1.2,81c-0.4,16.6-29.6,12.4-27.4-3.3c4.4-35.1-1.1-69.9-8.8-104.2
		c-5.3-1.2-10.2,1.6-15.7,0.9c-1.4,34.4-1.1,68.7-1.5,103c0,6-2.1,10.6-10.1,12.5c-7.2,2.1-17.8-0.2-18.3-9.2
		c-0.6-35.3,0.5-70.6-0.5-105.9c-5.1-0.7-9.9-1.3-15-1.9c-10.1,34-15.5,69.3-12,104.7c0.8,5.1-0.9,11.5-6.4,12.9
		c-8.1,2.6-17.9-1.3-18.9-10.4c-4.5-32.3,1.3-64.8,6.7-96.6c0.6-3.7,1.3-7.3,1.9-11c0.4-3,0.2-3.2-2.6-4.2c-2.9-1.1-5.8-2.1-8.6-3.2
		c-2.8-1.1-3.3-1-5.1,1.6c-12.7,18.8-24.2,39.9-26.4,62.8c-0.8,11.9-2.4,23.9-1.7,35.9c0.3,4.5,1,8.9,1.8,13.4
		c1,5.9-0.2,8.5-5.7,11.1c-7.7,5.2-20.2,1.8-22.1-7.8c-1.4-8-2-16.1-2.4-24.2c-0.3-15.7-0.9-32,3.7-47.1
		c6.1-19.4,15.7-37.4,23.5-56.1C77.1,600.7,8.9,476.9,7.1,352.9C5.3,292,14.1,228.3,42.2,173.8z M318.9,473.4
		c59.8,1.8,114.5-39.1,136.9-93.4c5.6-12.1-12.3-21.3-18.1-8c-45.6,108.8-191.8,108.6-237-0.4c-2.9-6-9.5-8.1-14.8-4.5
		c-4.1,2.8-5.4,7.9-3.2,13C205.5,434.1,259,475.1,318.9,473.4z M196.8,281c-0.3,41.7,39.8,85.9,82.4,61.1
		c34-20.8,40.7-69.9,22.6-103.4C265.3,176,194.5,216.4,196.8,281z M325.5,276.8c-0.2,29.7,15,62.2,45.2,70.7
		c48.7,12,78.6-46.4,67.5-87.8C418.4,178.4,326.8,199,325.5,276.8z"/>
	<path class="st0" d="M507.8,108c-140.3-1-280.7,0.1-420.6-2C141.9,44.1,224.2,4.3,307.3,5.8C383.8,10.3,458.6,49.9,507.8,108z"/>
	<path class="st0" d="M548.1,164.5c-167.7,1.5-335.3,1.7-503,3.1c2.9-7.8,8-14,11.7-21.4c1.6-2.9,3.6-3.7,6.8-3.7
		c62.3,0.3,124.7,0.1,187,0.2c93.9,0,187.8,0.1,281.6,0.1c2.3,0,3.8,0.5,5,2.7C540.7,152.1,545.2,157.3,548.1,164.5z"/>
	<path class="st0" d="M530.7,136.1c-5.2,0.8-462.8,0.4-466.1-0.5c0.2-0.8,0.3-1.7,0.7-2.4c4.6-6.2,9.3-12.3,13.9-18.4
		c1.4-1.8,3.2-1.9,5.1-1.9c34.8,0.1,69.5,0.2,104.3,0.3c107.3,0.1,214.5,0.6,321.8,1c2.7,0,4.5,0.9,6.1,3
		C521.3,123.7,526.5,129.3,530.7,136.1z"/>
	<path class="st0" d="M303,260.3c-17.5-25.9-46.2-3.1-41,22.6c2.8,22.2,27.5,32.9,41.1,11.6c-1.3,16.4-11.2,30.8-24.3,40.6
		c-42.7,28.7-82.8-24.7-75.4-65.9C211.6,202.2,287.4,192.3,303,260.3z"/>
	<path class="st0" d="M334.4,295.4c18.8,26.6,47.2-1.2,39.8-26c-4.6-20.2-24.6-28.2-39.6-11c14.7-60.6,83.9-58.9,97.5,1.8
		c14.3,47.5-34,111.4-80.3,69.2C343.9,321,334.1,307.3,334.4,295.4z"/>
</g>
</svg>
