<?xml version="1.0" encoding="utf-8"?>
<!-- Generator: Adobe Illustrator 26.0.0, SVG Export Plug-In . SVG Version: 6.00 Build 0)  -->
<svg version="1.1" id="Capa_1" xmlns="http://www.w3.org/2000/svg" xmlns:xlink="http://www.w3.org/1999/xlink" x="0px" y="0px"
	 viewBox="0 0 595.3 748.3" style="enable-background:new 0 0 595.3 748.3;" xml:space="preserve">
<style type="text/css">
	.st0{fill:#FFFFFF;}
</style>
<g>
	<path d="M90.3,351.2c-56.7,1.4-100-24.4-88.5-87.2c11.2-54.1,64.9-80.8,99.6-118.5c8.7-9.2,15.9-19.5,22-30.5
		c26-46.9,64.5-90.9,117.2-107.1c29.9-9.5,61.8-9.6,92.5-4.4c53.2,9,95.8,46.7,124.5,90.7c28.3,52.7,83.5,81.3,118.4,128.4
		c27,35.5,28.6,96.2-16.1,118.1c-17.4,9.2-37.2,12.5-56.7,13.2c-1.4,0.1-2.1,0.8-2,2.3c0.8,7.6,1.5,15.1,2.2,22.7
		c1,9.9,1.9,19.8,2.8,29.7c3.3,36.2,6.8,72.4,9.2,108.6c1.1,14.8,3.1,29.6,0.1,44.3c-11.8,61.9-75.5,102.3-134.9,109.3
		c-1.3,23.5,0.7,47.2-0.8,70.7c-1.5,5.2-8.8,8.4-13.3,6c-1.8-1-3.6-1-5.4-0.1c-2.6,1.3-5.1,1.2-7.7,0c-1.8-0.8-3.6-0.8-5.4,0.1
		c-5.9,2.9-13.3-2.2-13.8-8.5c-0.2-22.9,0-45.6,0-68.5c-26.3,0-52.3,0-78.7,0c0,22.4-0.1,44.7,0,67.1c0,4.9-2,8.3-6.5,10.1
		c-4.4,2.5-7.7-2.2-11.7-0.2c-2.6,1.3-5.1,1.3-7.7,0c-1.7-0.9-3.4-0.7-5.1,0.1c-5.9,2.9-12.5-2.4-13-7.7c-1.8-24.2,0-48.3-1-72.5
		c-73.3-3.3-134.4-72.6-133.8-145C81.4,465.2,86.6,408.2,90.3,351.2z"/>
	<path class="st0" d="M495.1,348.1c0,8.8,2.1,17.2,2.1,26.1c-60.9-1.1-123,3.4-183.3-2c-10.9,0-21.8,0-32.6,0
		c-61.3,5.5-124.4,0.9-186.4,2c0.4-10,1.5-19.8,2.2-30C41.2,350.6-6.5,324,8.1,261.6c10.3-41.2,47.9-65.8,77.5-92.8
		c18.5-15.5,34-34,45.3-55.4C166.7,47.9,231.2-2.4,308.9,6.2c42.9,2.1,84.2,21.1,113.4,52.7c29.5,29.7,45.8,69.7,78.2,96.8
		c33.2,32.1,78.2,60.2,87.8,108.5C599.5,325.7,548.5,349.8,495.1,348.1z M297.1,310.8c23-0.4,47-3.4,67.1-15.1
		c27.5-15.6,37.8-51.7,22.7-79.3c-11.8-22.8-37.1-34.1-60.7-29.8c-2,0.4-3.2-0.1-4.5-1.7c-6.3-8.5-16.6-12.6-27-11.7
		c-19.5,1-20.2,15-27.4,13.8c-9.5-1.5-19-0.8-27.9,2.8c-45.1,15.2-51.7,82.8-10,106.2C250.1,307.2,273.9,310.9,297.1,310.8z
		 M278,161.4c-0.2,2.7,0.7,5.2,2.5,7.3c9.6,8.7,16.3-8.3,9.8-15.3C284.3,147.8,277.7,154.1,278,161.4z M309.1,171
		c7.8,0.2,9.6-10.4,6.2-15.9c-2.8-5-8.5-5.2-11.6-0.4C300,160.1,301.9,170.7,309.1,171z"/>
	<path class="st0" d="M317.5,418.9c3.5-1.7,6.4-3.5,7.8-7c0.2-0.6,1.2-1.1,1.9-1.3c57.8-0.3,115.6,0,173.4-0.1
		c4,30.8,5.3,61.6,8.2,92.5c1,18.8,5,37.8,1.4,56.6c-4.1,24.9-17,44.7-35.1,61.7c-1.7,1.6-3.4,2.3-5.6,2.2
		c-114.4-1.8-231,3.4-344.4-1.8c-33.6-34.5-48.2-77.9-40.6-125.5c3-28.3,4.5-56.8,7.3-85c2.8-0.8,169.7-1.1,176.7-0.4
		c2,3.6,4.6,6.2,8.3,8.3c0,41,0,82-0.1,123c0,3.9,1.2,6.9,3.9,9.6c4.4,4.3,8.6,8.9,12.8,13.4c3.2,3.3,4.3,3.3,7.4,0.1
		c4.4-4.6,8.7-9.4,13.3-13.8c2.5-2.4,3.4-5,3.4-8.4C317.5,501.6,317.5,460.3,317.5,418.9z M141.9,560.6c-11.8,0-23.6-0.1-35.4,0
		c-3.6,0-4.4,0.9-4.5,4.3c-0.1,3.6-0.1,7.2,0,10.9c-0.4,12.8,15.4,21.2,25.6,13.8c2.1-1.4,3.5-1.6,5.6,0c13.4,8.1,18.8-4.1,22.7-0.4
		c2.3,1.8,5.1,2.6,8.1,2.9c10.6,1.2,18.4-7.6,18.3-15.9c-0.1-3.9,0.1-7.7,0-11.6c0-3.1-0.9-3.9-4-4.1
		C166.3,560.5,154.1,560.7,141.9,560.6z M451.8,560.6c-11.3,0-22.7,0-34,0c-2.5,0-6.4-0.2-6.3,3.2c-0.2,11.2-1.4,25.4,13.5,28.2
		c9.2,2,13.5-5.5,16.7-2.8c13.4,8.9,19.2-3.3,23.6,0c2.7,2.2,6,3,9.5,3.1c16.6-0.6,17.7-14,17-25.7c0-5.5-0.4-5.9-5.9-6
		C474.4,560.6,463.1,560.6,451.8,560.6z M419.9,445.9c0.1-26.1-40.5-27.6-41.2,0C379.2,473.9,420.3,472.3,419.9,445.9z M215.9,500.7
		c-5.5-7.9-13.8-13.2-20.6-20c-2.2-1.9-3.4-1.9-5.6,0c-6.3,5.7-12.6,11.4-18.8,17.3c-2.1,2-2.1,3.7,0,5.7
		c6.2,5.8,12.5,11.5,18.8,17.2c3.4,3.4,6.6-1.3,9.2-3.5C204.6,511.7,211.2,507.2,215.9,500.7z M192.1,438.6c-6.2,0-12.4,0-18.6,0
		c-1.7,0-3.7-0.3-4.4,1.9c-0.7,1.9,0.9,3,1.9,4.2c5.9,6.4,11.8,12.8,17.8,19.2c3,3.2,4.3,3.2,7.3,0c5.9-6.4,11.8-12.8,17.7-19.2
		c1.7-1.6,3.1-5-0.1-5.8C206.6,438.3,199.4,438.7,192.1,438.6z M415.1,504.1c0.1-22-33.8-22.4-33.6-0.1
		C381.7,526.5,415.1,525.5,415.1,504.1z"/>
	<path class="st0" d="M374.8,665.2c0,20.6,0,40.8,0,60.9c-2.8,0.8-30.4,1-34.8,0.2c0-20.4,0-40.8,0-61.6c-30-0.7-59.9-0.4-90-0.1
		c-0.5,20.7,0,41.1-0.2,61.9c-11.2,0-22,0-33.2,0c-0.6-21.8,0.4-43.4-0.4-65.2c-30.9-0.1-59.1-10.8-81.9-31.2
		c0.1-0.2,0.2-0.4,0.3-0.6c109.8,0,219.5,0,329.9,0C439.9,649.9,407.2,664,374.8,665.2z"/>
	<path class="st0" d="M92.5,404.2c-0.2-6.5,0.8-13,1.2-19.4c0.2-2.1,0-5.2,3-4.8c56.9,0,113.8,0,170.7,0c0.8,2.8,0.8,20.7,0,24.3
		C264.6,405.1,95.5,405.1,92.5,404.2z"/>
	<path class="st0" d="M326.1,380.2c56-0.4,111.9,0,167.9-0.2c2.6,0,4.4-0.1,4.4,3c0.6,6.5,1.1,13,1.7,19.5c0.1,1.4-0.5,2.2-2,2.3
		c-55.7,0.1-111.3,0-167,0c-4.3,0-4.3-0.1-4.4-4.3C326.9,393.5,326.8,387.4,326.1,380.2z"/>
	<path class="st0" d="M311.6,419.4c0.5,40.7,0,81.3,0.3,122c0,2.8-0.8,4.9-2.7,6.8c-3.9,4-7.7,8.1-11.7,12.3
		c-4.5-4-8.1-8.5-12.3-12.6c-1.8-1.8-2.6-3.6-2.6-6.2c0.1-39.5,0.1-79,0.1-118.5c0-3.8,0.2-3.9,4-3.9
		C295.1,419.3,303.1,418.9,311.6,419.4z"/>
	<path class="st0" d="M297.4,377.8c5.4,0,10.8,0.2,16.1-0.1c4.1-0.2,7.4,3.5,7.3,7.2c-0.2,7,0,14-0.1,21c0.1,5-3.3,7-7.9,7.2
		c-38.2-2-41,9.9-39.2-27.7c0.1-5.3,3-8.1,9-7.7C287.6,377.8,292.5,377.8,297.4,377.8C297.4,377.8,297.4,377.8,297.4,377.8z"/>
	<path class="st0" d="M374.8,733.8c0.8,6.1-2.1,11.6-8.2,6.9c-5-5.2-6.6,6-13,0c-2.6-2.2-2.7-2.1-5.5,0.1c-3,3.3-8.6,0.9-8.2-3.6
		c0.1-1,0-2.1,0-3C342.7,733.3,369.3,733.1,374.8,733.8z"/>
	<path class="st0" d="M216.8,733.6c11.2,0,22,0,33.2,0c0,1.5,0.1,2.9,0,4.3c-0.1,4.9-5.3,5.7-8.2,2.4c-4.6-4.4-5.8,6.2-12,0.4
		c-2.5-2.1-2.6-2.1-5.1,0.1c-2.7,3.3-8.1,1.2-7.9-3.1C216.8,736.3,216.8,735.1,216.8,733.6z"/>
	<path class="st0" d="M269,193.3c-3.7,36.9,60.9,36.4,56.6-0.6c74.4-11.3,89.6,96.3,5.5,108.9c-35.8,7-97.7,5.8-117.6-30.1
		C191.1,234.6,226.3,182.7,269,193.3z M277.3,247.4c11.7,0.5,12.4-9,5.4-7.2c-9.4,3.8-21.2-2.8-21.4-13.3c-0.1-2.3-1.3-3.6-2.9-3.7
		c-1.8,0-3,1.4-2.9,3.9C255.3,238.6,265.7,247.5,277.3,247.4z"/>
	<path class="st0" d="M108.1,566.9c22.9,0,45.5,0,68.5,0c0.1,3.9,0.5,7.7-0.3,11.3c-1.7,9.5-15.1,11.2-20.1,3.3
		c-2-2.1-4.4-0.8-5.8,1.3c-4.8,5.7-13.4,4.5-17.4-0.7c-2.1-2.2-3.4-2.2-5.5,0c-6.1,8.2-19.7,3.9-19.7-5.4
		C108.1,573.3,107.3,570.3,108.1,566.9z"/>
	<path class="st0" d="M417.4,566.7c22.9,0,45.5,0,68.4,0c0.2,4.2,0.8,8.1-0.2,11.8c-2.5,8.8-12.5,10.5-18.4,5
		c-4-3.8-4.1-3.9-8.1,0.1c-4.2,4.2-12,3.9-15.7-0.4c-1.4-2.1-3.8-3.9-6-1.7c-5,7.9-18.7,6.4-20-3.3
		C417.1,574.6,417.4,571,417.4,566.7z"/>
	<path class="st0" d="M384.6,445.5c0.5-19.7,30.2-18.2,29.6,1C413.4,466.2,383.5,464.9,384.6,445.5z"/>
	<path class="st0" d="M208.6,500.5c-5.6,5.1-10.7,9.9-16.1,14.9c-5.3-4.8-10.4-9.5-16-14.5c5.1-5.3,10.4-9.8,15.9-14.9
		C197.8,490.8,202.9,495.4,208.6,500.5z"/>
	<path class="st0" d="M192.4,459.3c-4.6-5-8.8-9.6-13.7-14.8c9.4-0.3,18-0.2,26.5-0.1c0.1,0.2,0.2,0.5,0.3,0.7
		C201.3,449.7,197,454.3,192.4,459.3z"/>
	<path class="st0" d="M398.4,492.9c14.5,0.5,14.4,21.6,0,22.2C384.3,515,383.1,493.2,398.4,492.9z"/>
</g>
</svg>
