<?xml version="1.0" encoding="utf-8"?>
<!-- Generator: Adobe Illustrator 26.0.0, SVG Export Plug-In . SVG Version: 6.00 Build 0)  -->
<svg version="1.1" id="Capa_1" xmlns="http://www.w3.org/2000/svg" xmlns:xlink="http://www.w3.org/1999/xlink" x="0px" y="0px"
	 viewBox="0 0 595.3 827.1" style="enable-background:new 0 0 595.3 827.1;" xml:space="preserve">
<style type="text/css">
	.st0{fill:#FFFFFF;}
</style>
<g>
	<path d="M594.7,135.6c1.6-22-12.3-39.1-34.9-38.3c-107.1,0.9-214.1,2-321.2,1.6c7.4-9.1,12.3-18.7,14.6-29.8c8-0.8,15.9-0.2,24-0.3
		c4.4-0.4,8.9,2.1,8,7c-1.5,4.8-0.3,10.7,5,11.6c14.2,1.7,11.5-22.1,3.1-28.1c-8.8-8.6-27.2-4.4-39-5.5
		c-6.6-58.1-77.5-74.8-104.9-21.3c-27.1-53.2-98.7-37-104.6,21.1C29.9,54.9,9.7,48.9,2.1,66c-4,7.1-2.7,23.2,8.2,21.3
		c5.1-0.8,6.3-6.6,5.1-11.3c-0.8-5.3,3.1-7.7,8-7.4c7.6,0.2,14.9-0.3,22.5,0.4C48,80.5,53,90.5,61.2,99.7c-22,1.3-42.3,7.4-42,33.4
		c-0.4,141.3,1.1,282.5-0.6,423.8c0.2,35.6,0.8,71.2,0.8,106.8c3.2,37.3,40.1,29.7,66.9,30.8c-0.1,37.7,0.4,75.3-0.3,112.9
		c0,3.8,1.4,7.1,3.6,10.1c12.6,16.9,44.6,8.4,42.2-14.8c-0.2-36-0.6-72.1,0.1-108.1c5.1-0.8,23.3-0.6,26.2,0.4
		c0.2,37-0.4,74,0.2,110.9c-0.6,13,14,22.3,25,21c9.3-1.9,18.3-6.8,19.7-17.1c2.8-38.4,0.4-77,1.1-115.6c28.7-0.1,61.8,5.3,63-33.6
		c0.6-100.6-0.6-201.3,0.3-301.9c97.4-0.1,194.8,0.1,292.2-0.1c13.7,0.2,28.6-3.8,32.8-18.6C598.5,272.5,592.8,203.6,594.7,135.6z
		 M158,98.4c-5.8,0-11.6,0-18,0c3.1-4.8,6-9.2,9.2-14.2c3.6,4.3,5.8,9.2,9.3,13.3C158.3,97.8,158.1,98.1,158,98.4z"/>
	<path class="st0" d="M588.6,187.4c-141.9-2-284.6,4-426.1-2.2c-12.5-3.6-14.7-13-30.2-10.1c-6.4,1-11.5,6.2-12.3,12.6
		c-0.8,25.1,0.3,50.3-0.4,75.4c-1.1,20.7,17.5,32.5,35.2,37.2c141.1,10.5,284.3,0.7,426.1,3.9c2.8,0.4,7.8-1.3,7.8,2.8
		c-0.4,16.2,3.9,40.5-17.6,44.4c-103,3.2-206.4,0.1-309.6,1.2c-1.1,66.5,0.6,132.9-0.6,199.4c-55.2,0-110.4,0-165.6,0
		c-7.6,0-7.9-1.6-7.9,8.1c-0.1,29.3-0.2,58.6-0.2,88c0,8.9-4,15.2-11.6,19.3c-8.9,5.3-19.1-2.7-22.8-10.8c-4-31.5-0.4-64.2-1.5-96
		c-0.2-3.3,1.2-9-3.9-8.5c-7.2-0.1-14.2,0-21.5,0c-0.6-142.2-1.3-284.7,0.3-426.9c4.3-17.6,24.8-19.3,39.9-18.7
		c1.6,0,3.4,0.8,4.9,1.6c18.8,11.6,43.3,11.1,61-2.4c1-0.7,2.3-1.2,3.4-1.3c9.5-0.1,19-0.1,28.4,0c1.3,0,2.7,0.7,3.7,1.4
		c17.7,13.2,43.4,14.2,61.4,1.2c77.7-5.3,157.4-1,235.8-2.8c31.3-0.2,62.7-0.6,94-0.9c12.2-0.5,26,5.6,28.5,18.6
		C590.3,143.6,587.8,165.6,588.6,187.4z M544,163.1c21.1,0,22.5-31.8,0.5-32.8C521.3,130.5,523.7,163.4,544,163.1z M498.9,163.1
		c21.6,0.1,22.1-32.2,0.8-32.8C477.1,130.1,478,162.9,498.9,163.1z"/>
	<path class="st0" d="M93.3,589.9c56.1,0,111.6,0,167.6,0c0.5,23.4,0.1,46.8,0.2,70.2c0.6,12.1-6.4,25.1-19.2,26.9
		c-14.5,2.2-28.9,0.9-43.6,1.2c-0.5,33.9,0,67.8-0.2,101.8c-3.5,0.9-29.8,1-33.7,0.1c0-33.7,0-67.5,0-101.1
		c-3.2-0.9-34-1.1-38.6-0.3c-0.6,33.8,0,67.6-0.2,101.5c-9.8,1.3-19.8,0.2-29.7,0.5c-3.1,0-3.3-0.2-3.3-3.6c0-32.9,0-65.7,0-98.7
		c-17.8-2-41.6,4.3-56.9-5.7c-7-4.9-10.1-13.4-10.2-21.7c0.2-23.7-0.3-47.4,0.2-71c6.5,0,12.7,0,19.5,0c0,19.7,0.3,39.4-0.1,59.1
		c0.1,16.9,19.8,33.5,35.1,22.8c8.6-5.4,13-13.1,13-23.3C93.2,628.9,92.7,609.5,93.3,589.9z"/>
	<path class="st0" d="M416.5,193.8c0.9,3,1.1,99.5,0.2,104.1c-32.6,0-65.2,0-98.2,0c0-34.8,0-69.3,0-104.1
		C351.5,193.8,383.9,193.8,416.5,193.8z"/>
	<path class="st0" d="M220.3,298.2c-1.1-5.8-0.7-101.5,0.4-104.6c29.1,0,58.2,0,87.3,0c4.1,0,4.3,0.2,4.3,4.3
		c-0.2,33.4,0.4,66.7-0.2,100C281.3,298.8,251,297.9,220.3,298.2z"/>
	<path class="st0" d="M423.3,297.9c0-33.1,0-66.1,0-99.3c0-5,0-5.1,5-5.1c27.4,0,54.8,0,82.3,0c1.5,0,2.3,0.8,2.4,2.3
		c0.1,34,0,67.9,0,102C483.1,298.7,453.2,298.4,423.3,297.9z"/>
	<path class="st0" d="M213.2,297.9c-27.2,0.2-59.4,3.8-80.9-16.3c-4.4-4.5-6.7-9.8-6.6-16.3c0.2-24.6,0-49.3,0.1-73.9
		c-0.8-12.1,14.8-13.2,22-6.9c11.4,9.4,27.2,8.9,41.2,9c6.7,0.2,13.4,0,20.1,0c4.2,0,4.4,0.2,4.4,4.2
		C213.3,231.1,214.1,264.6,213.2,297.9z"/>
	<path class="st0" d="M588.5,298.1c-23.3,0-46.1,0-68.9,0c-0.8-2.9-0.9-99.7-0.2-103.7c22.1-2,45.9-0.6,68.4-0.5
		C589.7,228.3,588,263.2,588.5,298.1z"/>
	<path class="st0" d="M159.1,57.2C162.5-4,244.9,4,238.5,64.4C231.1,117.3,158.9,111.2,159.1,57.2z M203.1,58.3
		c0.2-19.4-28-17.8-28.1-0.3C175,75.7,202.8,77.3,203.1,58.3z"/>
	<path class="st0" d="M100.3,101.3c-48.9,1.1-55.1-76.8-7.4-85.8C150.6,6.9,155.8,99.9,100.3,101.3z M109.7,72.1
		c18.7-0.1,17.9-28.2-0.1-28C91.4,43.8,91.1,72.4,109.7,72.1z"/>
	<path class="st0" d="M93.9,583.7c-1.2-3.4-1.3-21.3-0.2-25.4c55.4,0,110.9,0,166.7,0c0.8,7.1,0.2,14.1,0.4,21.3
		c0,3.9-0.2,4.1-4.1,4.1C202.4,583.8,148.2,583.7,93.9,583.7z"/>
	<path class="st0" d="M109,797c4.4,0,8.8-0.1,13.3,0c2.5,0.1,2.9,0.5,2.8,3c-0.2,3.5-0.4,7.1-1.1,10.5c-5.1,15.9-31,12-31.3-4.5
		c-0.2-1.9-0.1-3.8,0-5.7c0.1-2.6,0.6-3.1,3.2-3.2C100.1,796.9,104.5,797,109,797C109,797,109,797,109,797z"/>
	<path class="st0" d="M165.4,797c10.7-0.2,20.8-0.1,31.2-0.1c0.7,10.4,0.7,19.6-10.7,23c-9.5,3.1-20.9-3.4-20.7-14
		C165.2,803.1,165.3,800.2,165.4,797z"/>
	<path class="st0" d="M45.8,558.4c0,8.4,0,16.5,0,24.6c-2.8,0.9-15.5,1.1-20.4,0.2c-0.2-8.1-0.1-16.4,0-24.9
		C32.4,558.4,39,558.4,45.8,558.4z"/>
</g>
</svg>
