<?xml version="1.0" encoding="utf-8"?>
<!-- Generator: Adobe Illustrator 26.0.0, SVG Export Plug-In . SVG Version: 6.00 Build 0)  -->
<svg version="1.1" id="Capa_1" xmlns="http://www.w3.org/2000/svg" xmlns:xlink="http://www.w3.org/1999/xlink" x="0px" y="0px"
	 viewBox="0 0 595.3 704" style="enable-background:new 0 0 595.3 704;" xml:space="preserve">
<style type="text/css">
	.st0{fill:#FFFFFF;}
</style>
<g>
	<path d="M116.4,262.4c-43.2,23.6-100.2-0.6-112.7-48c-29.1-96.9,124.4-148.7,153.6-38c8.9-8.5,17.3-15.5,27.3-22.9
		c-46.2-15.5-67.5-74.1-41.1-115.2c57.4-90.6,194-3.5,131.4,87.5c52.3,0.3,104,26.6,132.1,71.1c1.3,1.9,2.6,2.7,4.9,2.6
		c13.4-0.6,26.9-1.1,40.3-1.6c44.4-0.7,93.8-13.5,124.8,27.6c33.6,38.2,18.9,103.3-26.9,124.6c-15,8.1-31.5,9.4-48.3,8.2
		c-28.1,0.9-56.2,1.9-84.3,2.8c-2.1,0.1-3.3,0.9-4.2,2.6c-16.4,30.5-43.5,52-74.3,66.9c-0.6,34.4-0.1,68.8-0.1,103.2
		c0,3.9,1.5,7.9,2.6,11.7c6.2,21.5,12.6,42.8,18.7,64.3c1,2.9,1,6.8-3.1,6.8c-16.5,0.1-32.8,0-49.3,0c-1.7,26.1,1.7,52.7-1.3,78.7
		c-5.4,13-24.9,10.4-26.1-3.6c-0.8-24.3,0.1-48.6-0.2-73c-0.1-1.5-0.8-2.2-2.3-2.2c-2.9,0.1-5.8,0-9,0c-1.3,25.3,1,50.8-0.9,76
		c-0.9,6.5-7.6,12.1-14.8,11.2c-15.6-2.3-12-18.6-12.4-29.8c0-19.2,0-38.2,0-57.4c-15.8,0-31.3,0-47.1,0c-8.3-0.1-2.7-9.5-1.8-14.1
		c2.2-7.6,4.5-15.2,6.7-22.8c3.9-13.6,8.2-27.2,11.9-40.8c2.2-20,0.2-40.4,0.7-60.5c0-14.5,0-28.9,0.2-43.4c0-2.8-0.7-4.4-3.5-5.6
		C144.6,402.1,106.2,330.1,116.4,262.4z"/>
	<path class="st0" d="M477,202.9c-63.1,30.8-59,123.9,5.1,150.5c-105.6,6.4-44.4-12.8-104.6,45.9c-11.9,10.4-25,18.8-39.2,25.4
		c-3.5,1.6-5.1,3.9-5,7.8c0.2,5.8,0,11.6,0,17.7c-5.7,1-11.4,0.3-17.2,0.4c-4.8-0.2-4.7-5.8-14-5.8c-4.8-0.1-9.6,0.1-14.4,0.2
		c-3.4,0.1-6.2,1.6-8.4,4.1c-0.9,1-1.8,1.5-3.1,1.5c-19.7-0.2-39.5,0.4-59.2-0.3c-0.4-6-0.2-12-0.2-18c0.1-3.5-1.4-5.6-4.6-6.9
		c-59.4-25-98.2-91-90.9-155c0.3-3.5,1-6.9,1.5-10.3c0.2-1.5,1.1-3.2-0.5-4.4c-1.8-1.4-3.7-1.1-5.6,0
		c-37.8,23.6-92.7,3.8-106.3-38.7c-15.8-40.5,11.3-87.8,53.6-96.5c39.9-9.5,82.3,19.3,88.3,59.8c0.2,4,4.6,5.5,7.1,2.3
		c7.4-8,15.5-15.2,24.4-21.5c3.5-2.7,14.9-7.7,6.5-11.6C106,122.4,129.4,0.6,217.2,5.6c57.9,4.5,88.8,74.7,51.1,119.6
		c-2.4,3.7,1.2,6.8,5,6.2c51.7-0.6,102.6,25.8,130,69.9c1.6,2.5,3.5,3.7,6.6,3.6C432.3,204.3,454.6,202.5,477,202.9z M232.6,297.3
		c2,40,57.6,48.8,71.9,12.7c1.3-3,0-6.7-2.7-8c-3.8-1.9-8.2,1-9.3,5c-13.3,25.2-51.2,12.3-47.4-15.1c0.2-6.2-9.5-7.7-11.3-1.9
		C233.2,292.2,233.1,294.6,232.6,297.3z M279.5,227.5c0.5-13.4-21-14.1-20.9,0C259,242.3,279.9,241,279.5,227.5z M297.6,229.8
		c13.9,0.8,14.2-21.3,0.1-21C283.4,209.1,284.3,230.1,297.6,229.8z"/>
	<path class="st0" d="M589.8,276.6c-1.4,102.6-153,97.7-152.9,0.7C438.9,174.9,588.9,178,589.8,276.6z"/>
	<path class="st0" d="M262.9,679c-5.8,0-11,0-16.8,0c-0.1-21.2,0.1-42.4-0.1-63.6c-0.3-3.7-4.1-4.5-7.2-4.2c-14.6,0-29,0-43.7,0
		c6.2-23.9,13.8-47,20.5-70.7c2.6-19.8,0.3-40,1-60c19.4-0.6,38.7-0.1,58.1-0.2c5,0,5.3,0.2,5.3,5.3c0.1,15.5,0.1,30.9,0,46.4
		c0,9-0.1,7.8,6.2,12.4c2.4,1.7,4.7,3.4,7.2,5c2.8,1.9,4.1,1.8,6.6-0.3c2.8-2.3,5.6-4.8,8.4-7.2c1.6-1.4,2.3-3,2.3-5.3
		c-0.1-16.7,0-33.4,0-50.1c-0.3-2.8,0.1-6.4,3.5-6.3c6.2,0.3,12.6-0.5,18.7,0.6c1.6,21.8-2.8,44.4,2.8,65.8
		c6.3,21.4,13.1,42.8,18.4,64.4c-15.2,0.5-30.4,0.1-45.5,0.2c-3-0.3-6.6,0.6-6.7,4.2c-0.2,21.3,0,42.3-0.1,63.6
		c-5.5,0.1-10.7,0.1-16.3,0c-0.4-21.6,0.9-43.2-0.5-64.7c-0.5-2-1.9-3-3.9-3.1c-4.7-0.1-9.4-0.1-14.1,0c-2.4,0.1-3.8,1.7-4,4.1
		C262.8,636.7,263,657.7,262.9,679z M247.3,559.5c-5.9,0-11.9,0-17.8,0c-2.9,0-4.7,1.6-4.8,4.5c-0.7,28.8,42.3,31.5,44.4,1.8
		c0.2-3.5-1.2-6.6-5.8-6.3C258,559.6,252.7,559.4,247.3,559.5z"/>
	<path class="st0" d="M296.7,544.4c-3.2-2.2-5.9-4.3-8.8-6.1c-1.5-1-2-2.1-2-3.9c0.1-16.6,0-33.3,0-49.9c6.5,0,12.7,0,19.1,0
		c0.9,16.6,0.1,33.3,0.4,50c0,1.6-0.3,2.7-1.6,3.8C301.4,540.1,299.2,542.2,296.7,544.4z"/>
	<path class="st0" d="M276.3,456.6c0,6.5,0,11.2,0,17.5c-19.8,0-39.4,0-59.1,0c-0.9-4.7-0.3-9.6-0.5-14.4c0-2.9,0.2-3.1,3-3.2
		C238.7,456.5,257.3,456.6,276.3,456.6z"/>
	<path class="st0" d="M295.5,478.6c-4.6-0.3-12.1,1.8-12.9-4.7c-0.4-6-3.3-23.5,5.7-23.4c6.7,0.5,21.1-3.3,21.3,6.6
		c-1,6.9,3.7,21.7-7.1,21.5C300.2,478.6,297.9,478.7,295.5,478.6C295.5,478.7,295.5,478.7,295.5,478.6z"/>
	<path class="st0" d="M333,457c0,5.9,0,11.4,0,17.1c-6,0-11.8,0-17.5,0c0-5.6,0-11.1,0-17C321.5,456.4,327.2,456.3,333,457z"/>
	<path class="st0" d="M246.3,684.8c5.6,0,10.8,0,16.3,0C266,702.7,243.3,703.6,246.3,684.8z"/>
	<path class="st0" d="M286,684.6c5.7,0.1,10.6-0.3,15.8,0.2C305.3,703,281.8,703.2,286,684.6z"/>
	<path class="st0" d="M262.6,565c1.6,2.5,0.2,4.4-0.5,6.1c-5.7,14.5-28.9,12.4-31.2-3.5c-0.1-2.1,0.2-2.5,2.5-2.6
		C243,565,252.9,565,262.6,565z"/>
</g>
</svg>
