<?xml version="1.0" encoding="utf-8"?>
<!-- Generator: Adobe Illustrator 26.0.0, SVG Export Plug-In . SVG Version: 6.00 Build 0)  -->
<svg version="1.1" id="Capa_1" xmlns="http://www.w3.org/2000/svg" xmlns:xlink="http://www.w3.org/1999/xlink" x="0px" y="0px"
	 viewBox="0 0 595.3 729.4" style="enable-background:new 0 0 595.3 729.4;" xml:space="preserve">
<style type="text/css">
	.st0{fill:#FFFFFF;}
</style>
<g>
	<path d="M260.6,617.7c-15.9,0.9-31.5,1.5-47.4,0.3c-3.8-0.2-4.1-0.1-4.1,3.7c0,21.4,0,42.8,0,64.2c-0.9,12.7,3.8,28.6-8,37.4
		c-9.9,7.5-23.6,7.7-34.3,2c-15.1-7.6-11.7-26.3-10.9-40.1c0-25,0-49.9,0-74.9c0-4.2,0-4.2-3.8-5.7c-27.1-11-51.8-26.1-74.1-44.9
		c-2.1-1.7-4-3-6.9-2.8c-4.7,0.4-9.4-4.4-9.3-8.9c0-3-1.3-4.8-3.2-6.8c-37.7-39-58.5-92.6-57.7-146.8c4.4-99.4-21.7-192,56.1-270
		C32.9,116.5-5.4,98.2,6.1,67c7.9-13.4,26.1-12.2,39.5-10.2c20.8,3.6,40.8,12.7,54.6,28.9c7.4-4.8,14.8-9.6,22.6-14.7
		c-17.2-10.5-33.5-25.5-35.5-46.8C83.7-2,113.5-3.4,131.1,3.6c23.1,7.5,41.9,23.3,52.1,45.6C312.7,25.4,423.4,89.3,460.1,217
		c0.6,1.7,0.9,3.4,1.4,5.1c0.9,3,0.9,3.1,4.2,3.1c9.9,0,19.7-0.1,29.6-0.2c11.7-0.1,23.3-0.1,35-0.1c26-0.1,50.6,16.6,60.6,40.6
		c2.7,6.6,4.5,13.5,4.4,20.7c-0.3,19.7-0.7,39.5-0.9,59.2c-0.3,29-26.4,51.1-53.6,55.6c-24.3,2.3-48.8,0.4-73.2,1.6
		c-9,88.7-65.1,172.9-151.3,202.3c-3.8,1.3-1.5,6.6-2.1,9.6c0.6,25.6-1.3,51.4,0.9,76.9c1.7,14.2,1.5,30.6-14.5,35.7
		c-15.2,6.4-39.3-0.3-40.1-19.3C260,677.7,261.9,647.7,260.6,617.7z"/>
	<path class="st0" d="M458.3,230.8c44.3,2.7,104.9-14.7,127,36.3c3,6.1,4.3,12.8,4.2,19.7c-0.4,20.2-0.6,40.4-1.1,60.6
		c-1.2,25.1-24.8,43.5-48.1,47.7c-25.9,2.3-52.2,0.3-78.2,1.6c-2.7,32.7-11.8,64.5-26.3,94c-1.4,2.8-3.3,3.2-5.9,3.2
		c-105.7,0-211.3,0-317,0c-0.6,11.1-0.1,21.9-0.3,33c0,4.1-0.1,4.2-4.2,4.2c-13.8-0.3-27.5,0.8-41.2-0.6c0-12.3,0-24.2,0-36.5
		c-12.2,0-24.1,0-36.2,0C13.2,461.6,5.9,424.9,6.7,388.1c3.3-96.4-20.9-196,62.7-266.3c-20.4-6.3-43.1-12.5-55.6-31.2
		c-6-9.4-6.4-24.6,7-27.6c16.8-4.3,34.6,1,50,7.8C82.5,75.7,91.1,83.8,99,93.9c12-8.1,23.6-17,37.2-22.3c-0.2-1.8-1.8-1.8-2.8-2.3
		C113.2,60.6,92,42.8,93.1,18.8c0.3-12.7,15.1-14.3,25-12.6c27.2,4.6,52.3,23.1,61.4,49.7C315.9,29.2,422.9,96.6,458.3,230.8z
		 M260,234.5c40.8,63.6,128.9,37.3,135.5-35.9c8.3-83.7-82.2-124.2-135.7-56c-41.5-63.1-130.1-35.6-135.3,38.2
		C118.5,263.7,208,304.7,260,234.5z M173.1,373.4c26.1,0.2,49.6-20.1,53.7-45.7c2.1-11.9-15.3-15.9-18.2-4.3
		c-5.9,40-63.8,42.3-70.6,1.8c-0.7-4-2.4-7.2-6.6-8.4C102.2,312.9,129.5,375.8,173.1,373.4z M424.8,260.3c-33.9-0.1-35,48.9-2,51.6
		C457.1,313.2,458.9,260.9,424.8,260.3z M556.6,285.9c-0.3-33.8-50.9-33.4-51.7,0.6C506.3,319.6,556.5,320.2,556.6,285.9z"/>
	<path class="st0" d="M266.8,611.2c-21.4,2.1-42.1,2.3-63.2,0.2c-0.7,26-0.1,51.9-0.3,77.9c-3.1,0.9-37.1,1.1-41.3,0.3
		c-0.8-27.4-0.1-55-0.3-82.5c0-6.2,0.2-4.9-5-6.9c-26.5-10.5-51.4-25.3-73.3-43.5c-1-0.9-2.7-1.5-2.7-4c6.1,5.5,12.5,6,18.3,0
		c6.5,7.2,18.9,5.6,19.5-5.5c0.2-15.8-0.3-31.4,0.2-47.2c104,0,207.7,0,311.9,0c-25,48.9-71,83.6-122.1,102c0,29.1,0,58.2,0,87.6
		c-7,1.2-13.7,0.2-20.7,0.5c-7.2-0.2-13.7,0.6-21-0.4C266.8,663.5,266.8,637.8,266.8,611.2z"/>
	<path class="st0" d="M287.7,695.7c6.1,0,12.1,0,18.2,0c3.9,0,4.1,0.2,4.1,4c0,2.6-0.1,5.2-0.2,7.8c-1.5,21.5-41.1,21.5-43.6,0.7
		c-0.4-3.2-0.3-6.4-0.3-9.6c0-2.5,0.4-2.8,3-2.8C275.1,695.7,281.4,695.7,287.7,695.7C287.7,695.7,287.7,695.7,287.7,695.7z"/>
	<path class="st0" d="M161,695.9c12.9-0.8,25.7-0.1,38.6-0.3c3.9,0,4.2,0.3,4.2,4.3c0,2.6-0.1,5.2-0.3,7.8
		c-1.2,16-22,19.3-33.9,12.7C159.7,715.7,160.7,705.4,161,695.9z"/>
	<path class="st0" d="M35.2,499.8c8.8,0,17.3,0,25.7,0c0.8,2.7,1,30.9,0.3,34.7C56.3,531.7,37.2,506.4,35.2,499.8z"/>
	<path class="st0" d="M67.5,537.2c15.3-0.1,30,0,45.2,0c-0.5,4.4,1.9,12.3-2.9,13.8c-2.6,0.9-4.5-0.6-6-2.6
		c-3.1-3.2-6.4-3.1-9.4,0.3c-7.3,8.9-9.8-8.8-18.2,0.2c-2.4,3.7-8.2,3.2-8.6-1.7C67.3,544,67.5,540.9,67.5,537.2z"/>
	<path class="st0" d="M258.8,153.8c46.6-70.8,137.2-41,131.1,42.9c-6.1,73.5-95.3,94.8-128.9,27c-1.9-0.2-2,1.4-2.5,2.2
		c-6.3,10.2-14.5,18.7-24.1,25.8c-51,38.1-109.7-12.1-104-69C134.1,109.2,226.2,85.5,258.8,153.8z M187.4,188.9
		c2.5,50,60,40.7,53.8-6.1C234,142.6,187.8,150.7,187.4,188.9z M332.6,189.3c-2-51-62.1-39.3-53.1,8.5
		C288.5,236.4,333.2,226.5,332.6,189.3z"/>
</g>
</svg>
