<?xml version="1.0" encoding="utf-8"?>
<!-- Generator: Adobe Illustrator 26.0.0, SVG Export Plug-In . SVG Version: 6.00 Build 0)  -->
<svg version="1.1" id="Capa_1" xmlns="http://www.w3.org/2000/svg" xmlns:xlink="http://www.w3.org/1999/xlink" x="0px" y="0px"
	 viewBox="0 0 595.3 703.5" style="enable-background:new 0 0 595.3 703.5;" xml:space="preserve">
<style type="text/css">
	.st0{fill:#FFFFFF;}
</style>
<g>
	<path d="M273.3,588c-0.6,33.7,1.4,67.6-0.7,101.1c-1.6,9-9.9,13.5-17,14.2c-21.6-0.2-21.1-18.6-20.4-35.8c0-26.8,0-53.6,0-80.4
		c-12.4-4.9-24.4-13.8-24.1-28.4c0-60,0-120.1,0-180.1c-0.1-2.2,0.6-4.8-2.1-5.7C118.9,339,70.2,246.9,92.2,153.2
		c-26-2.6-52.1-8.2-74.3-22.7C9.9,125,0.4,118,0,107.5C2,81,52.3,87.1,70.3,90.8c14.6,2.4,27.9,8.6,41.6,13.7
		c4.1-5.8,8.2-11.6,12.4-17.6C94.5,76.2,62.5,62.1,45.7,33.7c-5.3-8.7-3.5-21,7.3-24.8c29.8-7.4,63,9.8,87.5,25.6
		c7.6,5.2,14.6,11.1,20.6,18.2c2.2,2.6,2.3,2.6,5.4,1.1c63.2-29.1,112.2-16,161.3,30.7c52.9,50,96.5,33.6,159.4,18.7
		c1.4-0.3,2.4-0.9,2.5-2.3c0.6-7.1,4.7-12.7,8.3-18.4c14.8-23.7,29.8-47.3,44.7-71c3.2-5.1,7.3-8.8,13.2-10.6
		c16.8-4.7,30.6,10.9,26.8,27.5c-1.6,17.1-4.1,34-5.8,51.1c-1.3,14.4-2.8,28.7-4.9,43c-0.4,2.6-1.9,5.1-3.1,7.4
		c-1.3,2.5-1.4,2.4,0.5,4.6c28.1,30.2,29,65.8,22.8,104.5c-9.3,68.4-70.7,115-132.5,135.9c-36.6,12.5-75,20.3-113.6,23.5
		c-3.2,0.2-3.4,0.3-3.4,3.6c0,51-0.1,102.1-0.1,153.1c1,15.6-10,28.3-24.9,31.9c-0.9,33.2,0.3,66.4-0.3,99.5
		c-1,7.4-4.7,12.6-11.6,15.4c-11.3,5.2-25.8-3.4-26-15.9c-0.1-31.1,0-62.3-0.1-93.4c0-5.4-0.1-5.5-5.6-4.9
		C274.1,587.6,274,587.7,273.3,588z"/>
	<path class="st0" d="M489.7,108.3c2.9,6.5,6.7,11.8,13.6,14.3c10.3,4,20.6,8,30.9,12c9.7,3.5,16,7.9,26.2,3c3.1-1.2,3-1.4,5.1,1
		c26.5,28.1,27,63.4,21.2,99.5C570,341.5,454.1,379.9,363.1,391.2c-5.9,0.7-11.7,1.1-17.6,1.7c-3,0.2-7.3-0.4-7.9,3.5
		c-1.3,32.3-0.1,64.5-0.5,96.8c-15.5,0.5-30.9,0-46.4,0.2c-3.5,0.2-5.1,1.8-5.1,5.3c0,12.6-0.4,25.2,0,37.9
		c0.3,10.3-8,19.7-17.4,21.7c-11.7,2.5-26.1-6.8-25.6-19c-0.1-13.3,0-26.6-0.3-39.9c0-4.4-2.6-6.2-6.4-6.1c-6.5,0.2-12.6,0-19.2,0
		c-0.3-39.5,0-79-0.1-118.4c0.4-3.3-1.2-5.3-4.2-6.5c-44.9-16.6-82.4-49.6-102.9-93.1c-18.8-37.5-21-81.4-11.6-121.8
		c1.7-6.6-6.3-6.1-10.6-6.5c-26.3-2.7-53.9-9.9-74.5-27.3c-10.1-8.7-10.2-19,3.8-23.4c17.7-5.7,37-3.3,54.9,0.3
		c53.8,11.7,31.4,28.4,58.6-7.6c2.7-3.3,1.7-6-2.5-7.3c-8.6-2.5-17-5.4-25.2-9.2c-14.9-6.9-28.8-15.4-40.6-26.8
		C37.7,22.3,47.3,7.7,79.4,14.1c29.9,6,59,21.2,79.2,44.2c2.7,3.3,4.1,3.5,7.9,1.7c40.7-20.4,92.6-23.5,129.7,6
		c31.2,23.6,59.9,57.7,102.2,57.5C429.8,125.8,459.4,114.2,489.7,108.3z M492.6,231.5c-0.4-3.9-0.8-8.3-1.5-12.7
		c-2.8-9.6-15.3-4.5-12.8,4.7c7.6,47.9-43.1,88.5-87.9,68.5c-33.3-12.9-31.2-41.7-43.5-35.2c-7.6,4.5,0.1,12.9,2.8,18.3
		C393.1,339.5,491.8,309.3,492.6,231.5z M269.8,126.8c-47.6-22.4-90.6,40.5-51.9,76.6c18.4,17.7,50.2,16.3,67-2.8
		c29.5,12,53.3-4,61.9-20.5C372,131.8,307.1,86.2,269.8,126.8z"/>
	<path class="st0" d="M216.9,519.7c6.4,0,12.7,0,19.3,0c0.7,16.6-2.9,34.1,15.6,42.1c16.5,8.2,36.8-2.1,39.2-20.4
		c0.1-7.1-0.1-14.3,0.2-21.3c2.8-0.7,41.3-0.9,45.6-0.2c0.7,12.2-0.1,24.4,0.3,36.6c0.3,13.6-9.3,22.4-21.4,25.1
		c-2.5,0.6-3.5,2.4-3.6,4.7c-0.3,27.6,0.4,55.2-0.3,82.9c-8.8,0-17.3,0-26.1,0c-0.7-27.5,0.1-55-0.3-82.6c-0.3-3.2-1.9-4.6-5.1-4.7
		c-4.3,0.3-12.1-1.9-12.3,4.5c-0.1,27.5,0,55,0,82.6c-7.7,0.7-15.3,0.1-23.1,0.3c-3.8,0-4-0.1-4-4.1c0-25.2,0-50.5-0.1-75.7
		c0-6.3,0.6-6.8-6.4-9.1c-9.3-3-17-10.4-17.6-20.7C216.8,546.4,216.3,533.1,216.9,519.7z"/>
	<path class="st0" d="M577.6,22.9c-3.2,28.2-6.4,56.4-9.4,84.6c-0.5,4.3-1.1,8.6-1.5,12.8c-1.1,10.1-12.5,15.8-20.7,12.4
		c-13.8-5.7-28-10.6-41.8-16.4c-12.1-5.8-10.3-18.9-3.1-28.3c15.3-24.4,30.6-48.7,45.9-73c2.4-3.8,5.1-7,9.7-8.6
		c10.8-3.8,22.1,5.2,20.9,16.4C577.6,22.9,577.6,22.9,577.6,22.9z"/>
	<path class="st0" d="M291.3,512.9c0-4.5,0-8.6,0-12.5c2.7-0.7,40.1-1,45.1-0.4c0.8,2.6,0.9,9,0.1,12.9
		C321.6,512.9,306.5,512.9,291.3,512.9z"/>
	<path class="st0" d="M267.8,675.6c1.2,11.5-1.7,22.6-15.1,22.2c-10.6-1.7-11.8-11.3-11.9-20.2c-0.1-1.7,0.6-2.5,2.4-2.5
		C251.4,675.4,259.7,674.4,267.8,675.6z"/>
	<path class="st0" d="M285.5,675.3c8.9,0,17.4,0,26.2,0c5.6,27-24.9,29.3-26.3,9.3C285.6,681.5,285.5,678.5,285.5,675.3z"/>
	<path class="st0" d="M217.3,499.9c6.1,0,12.3,0,18.8,0c0,4.3,0,8.4,0,12.6c-2.3,0.8-15.2,0.9-19,0.2
		C216.4,509.4,216.5,502.7,217.3,499.9z"/>
	<path class="st0" d="M304.7,199.3c-5.9,0.3-11.5-1.5-16.9-3.8c-8.4-5.5-7.9,10.8-30.7,14.4c-66.5,7.3-63.6-92.8,3.1-80.6
		c2.5,0.6,4.9,1.7,7.3,2.8c3.7,1.7,4.4,1.6,7-1.4c18.6-22.4,57.5-16.6,68.5,10.4C356.1,169.4,333.4,199.9,304.7,199.3z M269.2,166.5
		c0.8-16-25.7-18.2-25.9-0.2C243.8,184.8,269.4,182,269.2,166.5z M285.4,157.6c-0.6,16.8,25.1,17.4,25.7,0.4
		C311.1,140.7,285,141.3,285.4,157.6z"/>
</g>
</svg>
