<?xml version="1.0" encoding="utf-8"?>
<!-- Generator: Adobe Illustrator 26.0.0, SVG Export Plug-In . SVG Version: 6.00 Build 0)  -->
<svg version="1.1" id="Capa_1" xmlns="http://www.w3.org/2000/svg" xmlns:xlink="http://www.w3.org/1999/xlink" x="0px" y="0px"
	 viewBox="0 0 595.3 1086.5" style="enable-background:new 0 0 595.3 1086.5;" xml:space="preserve">
<style type="text/css">
	.st0{fill:#FFFFFF;}
</style>
<g>
	<path d="M416.9,759.9c-6.9,0.7-13.5,1.3-20.7,2c-0.9,18.6-14.2,143.4-46.2,118.9c-25.8,25.2-40.2,29.7-71,8.6
		c13,39.2,26.4,78.2,39.5,117.4c5,14.7,15.2,46.9-2.3,56c-42.2,15.6-96.6,6.9-129.7-24.6c-5-3.1-10.9-2.7-10.4-10.6
		c0.1-16.8,4.9-33.1,6.1-49.8c-28.9-4.9-58.3-13.6-80.1-34.1c-6,3.7-9.6-1.3-9.1-7.2c0.2-29.8,1.8-59.5,4.9-89.2
		c3-12.6,11.1-161.7,32.6-135.6c38.9-12.6,15.4-98.2,17.2-130.7c-2.5-38.3,26.8-70.1,55.5-91.8c-5.8-7.8-15.2-10.2-23.9-5.7
		c-31.7,16.2-29.6,56.6-38.1,86.5c-9.4,42.9-34.1,85.1-75.7,103.3c4.3-11.7,10.7-21.4,11.9-33.9C55.6,662.1,29.6,682,0,692.9
		c11.9-22.6,18.2-45.7,20.9-71.3c-4.9,2.8-9,5-13.9,4.8c19.3-34.2-22.4-164.1,43.6-145.6c-3.9-37.3,8-108.8,60.5-87.3
		c-1.5-7.5-13-14.8-20.2-19.5c73.5-29.8,150.3,33.2,149,98c36.5-10.6,78.4,4.5,105.2,30.2c7.5-18.4,2.2-38.9-2.3-57.5
		c-21.1,0-47.8,0.9-60.1-19.7c-16.9-31-43.4-58.4-49.9-93.8c-1.6-13.1-0.8-28.7,9.3-38.5c1.9-1.7,2.5-3.6,2.5-6.2
		c-1.3-38,5.3-75.1,20-110.1c-15.3-16.1-21.2-35.6-21.9-57c-0.6-20.6,4.1-40.2,10.8-59.4c5.6-11.9,15.4,6.3,20.4,11
		c1.2-54.9,61.6-80.8,110-67.8c-0.2,2.3-1.9,2.3-3.2,2.7c-8,2.9-15.7,7.3-20.1,14.8c24.4-16,59.2-11.8,79.3,9.4
		c44.1-9.2,77,34.9,80.1,74.8c7.8-14.4,29.6-64.7,48.7-38.7c8.8,20.5,18.8,40.7,23.4,62.8c10.4,39.3-4.6,77.9-41,97.1
		c4.9,34.5-9.1,68.6-1.3,103c2,7.2,3.3,15.3,8.9,20.7c7.3,9.7-11.5,13.1-18.2,11.9c6.8,23.1,7.7,47.6-2.3,70
		c-3.2,9.1-6.8,5.2-11.5-0.4c-10.1,13.8-1,48.5-13.6,42.6c4.9,37.4,18.7,72.8,16.4,111.1c-6.1,51.9-15.8,107.6-56,144.8
		c21.3,36.9,54.9,105.5,47.8,147.8c-6.9,28.2-43.6,188-73.7,182.8c-13.2,8-31.1,29-47.1,25.4c-34.4-14.4-47.8-54.6-57.1-87.9
		c-3.2-6.8-4.4-13.3-1.4-20.5c-17.4-9.2,4.4-26.1,12.4-34.3c26.9-28.9,61.2-59.1,71.4-98.1C425.5,816.4,421.1,788.4,416.9,759.9z"/>
	<path class="st0" d="M129.1,712.7c52.6-13.6,9.9-120.4,26.6-159.4c36.5-77.9,119.7-105.6,188.9-48.9c-8.2,18.3-26.5,26.7-43.9,34.5
		c50.8-9.8,59.7-50.1,46.2-94.6c18.4-1.7,36.6-4.7,54.2-10.5c-33.4,4.2-84.7,19.7-111.9-6.1c-20-39.1-75-90.3-44.6-135.4
		c9.3,7.5,20.7,10.1,32.5,13.4c-8.3,3.3-16,7-17.2,16.7c-1.8,13.8-3.4,33.8,11.9,40.4c12.6,14.6,25.7,9.3,26.5,17.3
		c3.4,12-6.9,31,5,38.8c21.9,11.8,48.6-4.2,57-25.9c4.6-11.5,7-23.4,7.1-35.7c-0.6-5,3.1-7.2,6-10.5c4.6,2.2,6.1,7,9.4,10.9
		c0.2-6.2-5.6-12.2-12.4-13.4c0.6,0.7,1.2,1.3,1.7,1.8c-15.4,14.3-35.3,23.9-56.6,22.7c-16.3-2.9-49.1-0.5-52.1-21.6
		c-8.7-42.4,17.5-40.2,49.8-44.6c-5.2-3.3-10.9-1.3-16.4-1.4c1.1-15.8,3.4-32.6-4.4-46.7c-8-14.7-27.4-26.8-42.1-13.4
		c0.1-32.6,28.8-28.7,52.3-29.2c6.5-26.4-36.5-15.2-45.4-2.8c8.1-26.7,13.7-64,50.8-55.9c15,9,30.6,26.3,49.8,21.2
		c34.4-10.2,71.5-17.6,106.7-7.3c25,18.5,30.9,57.7,36.8,86.4c20.2-36.5,19.5-80.9,11.1-120.1c7-14.4,32-91.4,53.7-68.1
		c8,17.5,15.1,35.6,20.1,54.2c16.9,52.5-8.7,102-63.9,112.4c2.7,2,6.2,0.5,9.5,1.2c-9.1,43.8-3.6,128.2-33.2,161.2
		c-16.4,14-37.4,20.2-56.3,29.7c21.5-6.3,42.2-14.5,60.7-28.9c-0.6,21.9,1.2,43.4,4.5,65c5,35.5,15.3,73.3-2.2,107.1
		c-8.7,0.3-11.4,12.1-12.7,19.1c-3.4,52.9-55.6,90.6-98.8,114.7c-10.6-87.9-39.8-73-107.3-45.9c28.9-5.1,68.9-36.2,92-4.4
		c13.4,34.3,14.3,71.9,14,108.3c0.4,15.3-16.7,152.1-44.6,116.1c1.6-1.9,3.2-3.6,4.7-5.4c-0.2-0.2-0.3-0.5-0.5-0.7
		c-11.2,10.1-32.2,2.8-32.9-14.1c0.6-7.7-0.2-17.3,5.4-23.2c2.6-2.3,5.2-4.6,6.8-7.9c-14.8,13.5-31.4,17.9-51.1,10.7
		c1.4-1.5,2.3-2.5,3.3-3.5c-8.5,2.9-16.5,3.2-24.4-3.2c5.8-1.8,11-3.2,15.3-7c-10.9,3.2-36.5,11.7-35.5-7.6c2.3-0.7,4.7-1.4,7-2.1
		c0-0.2-0.1-0.4-0.1-0.5c-31.3,5.7-18.2-12-3.9-25.3c15-14.7,27.9-30.8,37.6-49.5c8.3-17.3,17.4-35.5,16.3-55.2
		c-6.3,18.7-11,37.5-20.6,55.4c-12.6-0.7-26.7-4-26.6-19.2c-1.7-25.2,0.4-50.6,2.7-75.4c-6.5,24.5-7.3,49.6-6.9,74.9
		c-38.8-24.6-62.6-71.6-53.9-117.5c-15.4,43.5,11,90.5,45.6,116.7c-9.4,31.5-42.3,42.6-72.6,39.4c3.1,2.3,6.6,1.6,9.4,2.5
		c19.1,59.8,44.5,117,68,174.9c-7.7-3.8-11.5-10.4-17.2-16.3c5.9,14.4-3.7,22.7-17.6,17.8c-7.3-3-12.3-8.8-17.6-14.4
		c3.7-5.2,7.4-10.1,9.2-16.2c-11.3,16.7-26.2,33.6-47,37.1c-5.7,1-11.1,0.7-13.2-5.9c3.4-4.9,6.9-10,8.1-16.3
		c-6.8,10.4-20,32.1-34.4,23c-1.7-2.3-4.6-4.3-3.4-7.6c-1.9,3.7-10.7,14.7-12.4,6c-0.5-26.6,2.6-53,4.9-79.5
		C103,848.4,114.2,692.4,129.1,712.7z M459,312.9c3.3-32.2-16.4-64-50.8-65.1c-35.4,0-41.6,46.1-40.2,73.5
		C397.3,328.5,432.5,327.6,459,312.9z M464.4,251.1c0.4-0.2,0.8-0.4,1.3-0.7c-5.4-17.5-13.1-42-33.7-45.7c-8-0.6-40-9.9-42.3-0.5
		c-1.5,4.8-3,14.7,4.1,15.1C434.1,223.5,436.6,220.1,464.4,251.1z M194.3,511c-11.5-0.3-29.1,70.9-10.4,65.5
		c19-4.1,29.8-22,39.4-37.4c1.3-2.1,1.3-4.2-0.1-6.3c-13.9,10.9-14.2-9.3-10.1-18c-0.3-0.2-0.6-0.3-1-0.5
		C205.3,525.4,191.6,528,194.3,511z M531.4,198.2c31.4-6,39.4-55.5,24.9-79.9C565.3,151.5,559.2,179.7,531.4,198.2z M169.7,554.5
		c-7.8-1.8-4.7,11.3,1.8,12.5c1.6-5.1,3.9-10,2.6-15.5c-0.3-0.2-0.7-0.3-1-0.5C172,552.1,170.9,553.3,169.7,554.5z M201.2,572.6
		c-0.4-0.3-0.7-0.6-1.1-0.8c-4.7,1.4-7.4,5.3-10.3,8.9c3.9,6.8,14.4,3.9,10.1-3.1C200.4,575.7,200.8,574.2,201.2,572.6z
		 M311.5,785.2c-10.7,11.2-24,15.4-39.2,16.8C282.9,806.2,304.2,796.9,311.5,785.2z M153.2,868.8c-4.5,12.1-10,22.6-17.5,33.3
		C142.7,899,153.2,878.6,153.2,868.8z M370.6,796.4c-6.5,7.9-12.5,29-10.1,37C362.6,820,365.7,808.7,370.6,796.4z M345.6,815
		c-7.6,9.7-12.8,21.7-11.2,34.1c0.4,0,0.7,0,1.1,0.1C336.3,836.9,339.4,825.5,345.6,815z M166.6,914c6.5-2.2,17.8-18.6,18.7-26.6
		C180.4,897.2,173.9,905.9,166.6,914z M203.2,916c4.5-6.2,4.4-25.2-0.2-31.7C205.5,895.2,204.7,905.6,203.2,916z M287.4,813.5
		c5.5-0.6,21.2-12.9,26.9-20.9C305.2,799.7,296.5,806.4,287.4,813.5z M327.7,341c-2.9-2.5-10.6-2.6-9.9,1.9
		C320.2,346.7,325.4,344.7,327.7,341z M343.1,862.9c0.3,0,0.7,0,1,0c0-6.5,0-13.1,0-19.6C341.7,849.8,341.1,856.3,343.1,862.9z
		 M169,900.2c-4.4,4.8-10.9,8.4-14.1,13.9C161.4,911.1,165.8,906.3,169,900.2z M269.7,326.7c-2.4,1.8,0.3,5.7,2.4,6.4
		C278,333.6,273.4,326.4,269.7,326.7z M210.7,912.6c0.7-4.5,0-8.9-1.2-13.2C208.5,906,208.8,910.1,210.7,912.6z"/>
	<path class="st0" d="M430.8,843.5c-0.7,1.2-1.5,2.4-2.2,3.6c0.8-29.7-2.1-58.9-9.1-88.1c19.4-4.7,36.9-13.9,52.3-27.5
		c19.7,40.5,37.9,82.5,46.2,127c-5,54.9-24.6,108.6-42.4,160.7c-4.8,9.9-23.4,62.2-31.1,29.9c0.1,1.2,0.2,2.4,0.3,3.5
		c-4.1,4.2-7.3,4.5-12,1.2c-11.3-8-7.5-22.9-7-34.7c-0.3-0.1-0.5-0.1-0.8-0.2c-0.6,2-1.3,3.9-2,6.1c-17.9,6.2-54.8,8-48.7-20.3
		c2-0.2,3.8-0.4,5.6-0.6c0-0.2,0.1-0.5,0.1-0.7c-16.2-1.4-43.7-2.3-35.7-25.8c2.5-0.3,5-0.7,7.5-1c0-0.2,0-0.4,0-0.6
		c-25.6,1.9-9.3-19.3,1.6-27.4C382.8,920.1,420.9,883.8,430.8,843.5z M439.7,977.1c-9.7,12.1-22.9,19.6-36.3,27.1
		C412.6,1004.5,432.2,989.9,439.7,977.1z M386.3,978.5c-10.9,5.1-22.4,3.1-33.7,0.8C358.9,985.5,376.7,985.2,386.3,978.5z
		 M446,1035.3c-0.8-12.6,1.1-22.9,6.1-34.5C444.7,1010.3,441.4,1028.5,446,1035.3z M450.2,971.2c-4.6,4.6-15.1,21.2-15.5,24.6
		C437.6,993.9,448.4,976.7,450.2,971.2z M366.6,972c6.8,3.6,20.7,0.7,26.1-5.5C384.1,971.3,375.5,972.2,366.6,972z M453.6,1046.8
		c0.3-8.9,0.7-17.4,1-25.4C451.2,1027.6,450.5,1041.8,453.6,1046.8z M350.4,960.2c2.8,2,15.9,3.4,20.2,2.5
		C363.9,961.2,357.3,959.8,350.4,960.2z"/>
	<path class="st0" d="M501.7,247.8c-4.1-43.9-26.3-104.6-78.5-104.6c-16.3,1-30.2,7.9-41.8,19.3c-8.9,6.5-21.2,6-30.7,12.3
		C250.5,133.6,252.9-12.9,379.2,4.1c-24.3,10.5-49.6,10.1-63.4,36.6c-18.2,39.1,1.8,92.9,30.9,121.9c0.3-0.2,0.5-0.4,0.8-0.5
		C312.5,118.8,285.2,26.7,362,12.2c-8,7.7-9.2,17.1-16.7,25.4c30.8-30.6,59.9-27.5,94.8-5.9c44.7-5.9,71.8,37.6,77.4,76.6
		c-0.4,7.9-5.3,15-7.6,23c-13.3-34-53.2-60.2-88-40c-19.1,10.9-39.2,27.8-43,50.4c27.7-56.3,93.7-78,125.8-12.5
		c16.6,37.2,12.7,81.8-1.9,119C502.4,248,502,247.9,501.7,247.8z M483.1,75.9c-16.6-21.1-51.4-32.7-77.4-20.7
		c-31.5,13.3-65.8,48.6-54.8,85.1c-1.6-35,21.2-65.3,51.9-80.1C429.9,45.6,461.5,56.5,483.1,75.9z"/>
	<path class="st0" d="M273.2,738.8c-8.1,15.3-18.7,28.5-30.5,41c-6.7,8-30.7,27.1-12.2,34.1c2.9,32,22.5,54.9,45.6,74.8
		c14.2,44.3,28.5,88.5,43.7,132.5c11.5,33.8-21.1,2.5-32.6-2.9c18.1,14.7-24.2,12.8-16.5-5.5c-8.9,7.4-21.8,22.8-34.2,15.1
		c3.1-3.3,7.5-5.4,9.2-10c-11.7,11.2-44.8,24.2-56,8.1c-1.6,3.6-1.2,8.1-5.6,8.1c-12-2.4,4.8-43.8,1.5-55.7
		c39.5,4.4,66.9,6.8,55.3-43.3c9.4-3.8-19.2-51.3-21.1-61.6c-14.5-38.4-29.2-76.7-43.7-115.1c27.6,1.7,55.9-12.7,63-40.9
		C252.3,722.5,241.4,740.1,273.2,738.8z M277,996.9c0.9-3.4-5.5-27.2-8.4-31.6C271,975.9,273,986.7,277,996.9z M235.2,996.6
		c-5.9,9.9-12.9,18.1-21.5,25.7C220.9,1020.8,233,1006,235.2,996.6z M252.8,1007.2c7-3.6,12.1-19.3,9.4-28.2
		C262,989.4,258.5,998.6,252.8,1007.2z M295.5,1001.1c0.9,9.3,10.4,21,17.4,21.4C305.2,1016.9,299,1010.1,295.5,1001.1z
		 M197.3,1022.9c0.3,0.4,0.5,0.8,0.8,1.2c8.1-3.6,15.1-8.8,21.3-15.3C212,1013.4,204.7,1018.1,197.3,1022.9z M262.9,1004.6
		c3.7-3.7,6.2-15.7,5.1-23.7C266.2,989.1,264.6,996.5,262.9,1004.6z M305,1009c0.3-0.2,0.7-0.4,1-0.6c-3.5-6.7-7.1-13.5-10.6-20.2
		C297,996,299.8,1003.1,305,1009z"/>
	<path class="st0" d="M16,601.7c5.6-32-20.5-131,36-118.8c0.3-40.3,7.5-106.6,64.1-85.7c0.3-6.8-9.3-17-21.4-22.8
		c67.1-23.2,139.4,31.6,142.5,98.5c-1.6,0.6-3.3,1.2-5.3,2C217.2,384.5,118.6,364.8,85,456.3c-14.4,32.3-7.4,69.4-23.4,101.3
		C53.1,576.6,35.9,596.1,16,601.7z"/>
	<path class="st0" d="M22.7,656c37.3-29.2,57.4-76.6,67.1-122.1c3.8-19.7,7.6-40.2,17.9-57.6c30.7-47.1,82.6-42.5,111.8,3.6
		c-4.8,2.7-9.4,5.2-14.1,7.8c-7-11.1-16.4-9.3-27.4-10.1c-16.7-6.9-38.9-4.3-48.4,12.6c-13.4,20.3-12.3,45.2-13.1,68.6
		c-0.4,26.5-4.6,52.3-11.7,77.7c-5.9,14.9-21.4,25-34.9,32.6c-0.2-0.2-0.4-0.4-0.6-0.7c9.8-13.2,9.3-29.8,17.5-43.4
		C62,649.6,36.6,675.9,3.4,690.2c4-9.3,9.6-17.4,12.3-27.3C16.9,659.6,20.4,658.4,22.7,656z"/>
	<path class="st0" d="M22.7,656c-1.2,1-2.4,2-3.6,3.1c-0.5,0-1,0-1.7,0.1c4.1-15.1,5.2-30.5,7-45.4c-4.2,4.4-8.9,8-14.1,11.1
		c-0.3-0.2-0.5-0.4-0.8-0.6c2.8-6.7,2-16.8,7.7-21.4c33.6-11.8,52.1-46.6,57.3-80.1c2.7-51.3,26.5-133,92-122.5
		c35.8,7.6,57.4,40.6,64,75c-3.1,1.3-6.1,2.6-9.3,4c-34.8-61.4-107.1-46.2-125.5,18.2C83.8,555.5,68.2,614.8,22.7,656z"/>
	<path class="st0" d="M534.2,233c4.4-1.5,8.5-2.9,12.8-4.3c6.2,40.5-17.4,88.6,11.7,123.6c-2.3,4.8-6.9,6.1-19.7,5.6
		c-0.9-1.1-1.8-2.3-2.7-3.5c-0.3,0.1-0.6,0.2-0.9,0.3c5.8,26.7,11.2,55.2-1.9,80.7c-2.5-1.3-4.2-3.3-6.2-5.2c0.5-1.5,1-2.7,1.4-3.9
		c-0.2-0.1-0.4-0.3-0.6-0.4c-11.1,12.2-11.8,29.1-12.4,44.7c-2.3-0.2-3.6-1.1-3.9-3.4c-3.7-23.2-7.1-46.4-6.5-70
		c-0.3-6.3,5.7-10.2,7.2-16.1C528.9,333.5,530,282.6,534.2,233z"/>
	<path class="st0" d="M395.1,742.4c-0.8-13.2-1.5-25.8-2.3-38.5c49.5-18.1,84.7-61.1,106.6-107.2c5.2,7.2,11.9,17,10.3,26.2
		C486.4,674.7,447,718.5,395.1,742.4z"/>
	<path class="st0" d="M103.6,942.2c1-1.6,1.4-2.2,2.7-3.6c5.5,14.7,21.4,6.7,29.1-1.6c13.3,19,40.2-4.2,51.9-14.9
		c5.7,6.9,12.4,14.4,21.9,16c9.1,1.9,20.3-3.9,18.4-14.4c3.7,3.7,7.2,7.2,11.2,11.2c0.4,31.3,4.5,43.7-33.6,41.3
		C169.6,973.2,131.2,966.6,103.6,942.2z"/>
	<path class="st0" d="M319.8,835.4c-7.6,22.3-0.9,46.4,26.6,40.2c0.7,1.1,1.3,2,2,3.2c-12.9,9-26.7,25-43.8,19
		c-36.1-13.8-66.9-44.5-72.4-83.8c1.5-0.2,2.4-0.3,3.3-0.4c-0.4,13.3,10.3,15.2,20.5,14.9c4.8,6.3,11.4,8.6,19.3,7
		C290,842.2,304.9,843.7,319.8,835.4z"/>
	<path class="st0" d="M266.7,1019.3c4.1,11.1,20.7,17.2,27,5.2c9.2,5,17,17,28.5,14.8c5.1,29.6-36.3,25.5-55.4,26.3
		c-28.7-1.2-59-8.8-79.8-29.8c0.9-1.6,1.7-3.1,2.6-4.7c13.6,9,30.8,4.4,44.2-2.5C243.1,1039.9,259.4,1027.4,266.7,1019.3z"/>
	<path class="st0" d="M507.2,632.1c3.2-0.9,6.1-1.7,9.6-2.7c-6.4,62.8-53.4,127.4-120.3,130.2c0-5.1,0-9.9,0-14.8
		C449,722.1,484.7,683.5,507.2,632.1z"/>
	<path class="st0" d="M347.7,1000.5c7.9,2.8,15.9,4.1,24.4,4.3c-8.8,30.9,31.6,29.1,50.5,22.6c-3.2,13.4,5.6,41.1,22.8,28.3
		c0.4,1,0.7,1.9,1.2,3.2c-8,5.9-36.1,27.9-44.7,24.2C370,1069.1,357.4,1031.2,347.7,1000.5z"/>
	<path class="st0" d="M177.6,479.7c-24,12-30.7,38.6-34.6,63c-6.4,33.1-14,69.4-37.2,95c5.4-18.6,10.3-37.2,11.9-56.6
		c2.8-40.1-3.2-120.6,59.8-102.3C177.5,479.1,177.5,479.4,177.6,479.7z"/>
	<path class="st0" d="M277.3,99c-28.2,9.6-30.3,50-7.7,66.5c-1.2,2.6-2.5,5.3-3.9,8.4c-25.7-32.2-20.9-74.9-11.6-112.3
		c5.1-10.4,11.6,7.7,15.8,10.9C276.8,79.9,274.4,90,277.3,99z"/>
	<path class="st0" d="M353.9,397.7c-9.8,16.4-32,28.9-50,18.2c-3.8-2.1-4.1-4.3-1-7.3C315.8,395,336.4,388.2,353.9,397.7z"/>
	<path class="st0" d="M277.7,101c3.1,9.5,6.3,17.6,10.7,26.5c-15.5,0.8-25.3,15.8-20.6,30.8C252.1,142.2,255.2,108.5,277.7,101z"/>
	<path class="st0" d="M295,301.7c-16.2,5.4-33.7-0.4-47.6-9.8c29.2,13.9,42.1-14.1,40.6-39.9C300.6,265.4,294.7,285.1,295,301.7z"/>
	<path class="st0" d="M247.8,282.1c9,3.9,23.7,0.7,24.5-11.8c-5.3-15.9,10.5-11.2,2-29.6c3.9,3.6,8.9,5,10.3,9.7
		c6.2,20.9-11.8,56.2-35.6,38.6C247.2,287.4,247.9,284.4,247.8,282.1z"/>
	<path class="st0" d="M520.2,525.6c4.4,29,8.2,57.1,3.4,85.6c-2.8-13.8-5.4-28.8-14.7-39.9c-1.1-1.3-1.5-2.4-0.7-4
		C515.8,554.4,517.4,540,520.2,525.6z"/>
	<path class="st0" d="M464.3,164.9c-26.1-9-52.5-5.7-79.1-1.9C407.4,142.7,443.7,141.6,464.3,164.9z"/>
	<path class="st0" d="M304.8,149.7c-12.7-3-25.1,2-33.1,11.8c-6.2-15,3.1-29.6,18.6-30.5C294.9,136.9,299.6,142.9,304.8,149.7z"/>
	<path class="st0" d="M352.2,363.3c-8.8,22.3-59.9,15.1-74.8,2.6c0.1-0.2,0.3-0.5,0.4-0.7C302.6,370.6,328.7,376,352.2,363.3z"/>
	<path class="st0" d="M509,628.6c1.3-3.8,2-6.8,5.1-8.7c8-7.5,0.6-22.1-3.3-30.6c-11.3-18.1-9.7,6.6-17,12.7
		c1.9-11.2,2.8-22.7,10.7-32.6c10.9,13.5,12.8,31.1,15.7,47.6C520.8,623.4,514.4,626.2,509,628.6z"/>
	<path class="st0" d="M513,617.7c-2.3-17.2-18.7-20.3-8.9-32.2C511,591.4,516.6,610.8,513,617.7z"/>
	<path class="st0" d="M253.7,265.9c0.8,1,1.5,2,2.7,3.5c-1.5,0.1-2.5,0.2-3.5,0.3c-0.4,0.9-0.8,1.8-1.2,2.8
		c-2.3-2.4-3.1-6.9-1.5-9.9c1.4-0.4,2.7-0.7,4.1-1.1C255.4,263.2,253.6,264.4,253.7,265.9z"/>
	<path d="M531.4,198.2c27.8-18.6,33.9-46.6,24.9-79.9C570.8,142.6,562.8,192.3,531.4,198.2z"/>
	<path d="M483.1,75.9c-21.6-19.4-53.2-30.2-80.2-15.7c-30.7,14.8-53.5,45.2-51.9,80.1c-11-36.5,23.2-71.8,54.8-85.1
		C431.7,43.2,466.5,54.7,483.1,75.9z"/>
	<path class="st0" d="M423.8,257.5c23.1,8.9,31,34.4,28.4,57.5c-26.5,9-55,11.3-82.4,5.2c-0.2-2.9-0.3-5.7-0.5-9.4
		C404.1,341.6,446.3,291.8,423.8,257.5z"/>
	<path class="st0" d="M392.6,255.4c35.1-18.9,45.8,31.7,23.1,53.1c-11.2,13.5-31,12-43.6,1.3c-3.7-2.8-1.5-6.3-1.7-10.7
		c13.4,14.8,35.4,5.7,42.1-10.4c-7.1-12.3,3.1-13.8,3.5-22.2C413.8,255.6,402.3,250.8,392.6,255.4z"/>
	<path class="st0" d="M381.8,290c-0.6,1.2-1.1,2.2-1.7,3.6c-1.9-1.4-1.6-3.4-2.2-5.2c-1.1-0.2-2.4-0.5-3.6-0.7
		c-0.7-2.7,1.9-2.6,2.8-3.8c0.1-1.4,0.3-2.8,0.5-4.9c1.4,1.3,2.3,2.2,3.3,3.1c1.2-0.4,2.4-0.8,3.8-1.3c0.8,2.4-1.1,3.5-1.6,5.1
		c1,1.2,2.1,2.5,3.1,3.8c-0.1,0.3-0.2,0.5-0.3,0.8C384.7,290.2,383.4,290.1,381.8,290z"/>
	<path class="st0" d="M186.9,564.6c13.9,4.3,18.5-13.8,19.7-24.2c2.4,0.2,3.5-1,3.3-3.7c-1.1-0.8-2.4-1.7-3.7-2.6
		c-6,6.6-2.7,26.5-15.7,24c5.7-10.5,11.3-20.9,17.3-32c0.8,7.8,5.8,15.3,14.1,10.5c-9.8,15.6-20.2,35.4-40.4,38
		C183.5,570.9,185.2,567.7,186.9,564.6z"/>
	<path class="st0" d="M185.3,563.1c-1.7,3.2-3.4,6.2-5.5,10c-5.4-19.9,2.5-39.8,11.5-57.4c0.6,8,7.2,11.9,15,8.5
		c-6.1,11.2-11.7,21.5-17.6,32.5c-6.4-10.9,7.9-17.9,12-26.6c-1.7-1.3-3.1-2.3-4.4-3.3c-2.1,1.5-2.7,3-0.9,4.9
		C186.9,539.4,175.8,551.2,185.3,563.1z"/>
</g>
</svg>
