<?xml version="1.0" encoding="utf-8"?>
<!-- Generator: Adobe Illustrator 26.0.0, SVG Export Plug-In . SVG Version: 6.00 Build 0)  -->
<svg version="1.1" id="Capa_1" xmlns="http://www.w3.org/2000/svg" xmlns:xlink="http://www.w3.org/1999/xlink" x="0px" y="0px"
	 viewBox="0 0 595.3 789.5" style="enable-background:new 0 0 595.3 789.5;" xml:space="preserve">
<style type="text/css">
	.st0{fill:#FFFFFF;}
</style>
<g>
	<path d="M503.6,534.6c-14.9-0.1-4.4-8.4-11.1-15.1c-18.8,2.1-24.6-7.3-8.3-19c-0.4-1.8-0.8-3.6-1.2-5.3
		c-10.5-2.7-20.9-5.4-31.5-8.1c-10.1,13.3-21,26.3-36.6,35.1c24,7.1,55,9.5,67.4,34.3c11.9,26.8,17,56.3,23.3,84.8
		c0.3,8.1,9,26.6-2.3,29.5c-0.4,13.1,2.3,34.2-15.5,36c-30,0.8-60.7-16-76.8-41.3c-18.2,1.9-22.3-9.7-7.3-20.1
		c-5.4-0.3-27.6-9.5-12.9-12.7c20-5.2,22.1-30.2,22.2-47.4c-6.6-2.3-13.1-4.6-19.7-6.8c-4.3,11.8-13,18.6-24.7,22.5
		c-1.9,8.8-12.8,12.3-14.2,21.6c-3.3,15.3,18.4,17.3,19.8,2.5c14,11.3,3,33.5-12.1,37.7c-6.2,21.1-35.8,18.4-46.5,2.5
		c-7,9.9-16.2,15.3-28.3,16.5c9.4,16.2,20.3,31.3,29.2,47.7c2.4,3.3-1.3,7.2,1.3,10.1c2.1,4.8,13,15.4,6.4,19.5
		c4,8.1,9.5,22.7-2.8,25.9c-16.2,4-33.1,4.4-49.7,4.8c-12-0.1-24.1-0.4-35.9-3.1c-1.5-0.6-2.9-0.5-4.4-0.3
		c-10.4,2.1-13.2-8.2-10.2-16.5c-5.8,3-18.9,3.2-14.3-6.5c-5.9-2.3-5-7.8-2-12.2c8.4-13.5,11.8-28.5,13.8-44
		c2.7-21.7,2.4-43.4,1.6-65.2c0.2-10.1-1.1-24,11.3-27.1c0.8-17.8,0.2-35.9-1-54.6c-15.9,13.9-33.2,24.4-51.1,33.5
		c6.4,24.3-6.7,46.8-23.2,63.2c-4.2,9.6-10.2,17.9-18.2,24.8c-2.6,2.9-7.4,3.8-8.4,7.8c-5.4,20.4-7.9,42.6-20,60.4
		c-7.3,8.8-8,1.7-13.6,5.3c-28.9,18.9-64.6-3.9-69.4-35.5c-1.3-6.3-0.6-12.8-2.2-19.1c-2.1-6.4,2.6-8.8,7.7-9.4
		c-8.9-4.3-20-20-3.4-21.2c-3.3-5.7-5.1-11.5-2.7-17.9c-17.5-16.3-1.1-47.3,22.4-39.9c-10.1,4.3-6.8,19.5,4.2,19.5
		c24.2-1.5,20.4-34.2,5.9-46.2c-9.5-8.7-16-19.8-18.3-32.3c-9.1,9.7-30.9,9-35.6-10.8c-1.2-7-1.9-15.4,4.7-20.1
		c2.3,5.8,5.9,12.9,13.3,9.7c8.3-2.6,5-11.8,2.4-17.6c-11.8-24.5-15.3-53.6-2-78.2c-34.9-1-28-51.5,5.3-48.1
		c-18,12.9-6.8,28.8,6.5,15c16.8-26.7,22.7-59.8,57.7-69c17.7-6.3,35.4-5.2,53.4-1.6c12.6,0.1,24.8,2,35.6,9
		c36.5,22.7,21.4,68.5,21.1,103.8c11.2-7.9,23-13.5,35.6-17.8c-9.6-19.8-8.1-38.2,6.2-55.5c-19.3-7.5-23-40.1,0.2-46.3
		c-3.4,13.9,9.7,22.3,19.5,11.7c10.3-12,1.8-29-12.8-34.5c-13.4-6.5-29.5-9.7-39.2-21.9c0.1,0.8,0.2,1.6,0.4,2.6
		c-22.6-16.9-22.5-57.4,0.5-75.2c-4-6-7.4-12.6-8.8-19.9c-0.4-1.9-1.2-3.1-3-3.9c-17.8-9.7-30.1-28.4-36.1-47.4
		c15.5-9.6,33.6-11.8,51.4-11.5c-85.8-138.1-100.3-132.1,32-32.7c16.8-15.8,37-25.6,59-32.6c-3.9-20.1-2.9-40.6,3.3-60.4
		c31.4,7.4,57.2,29.7,69.5,59.5c0.6,1.3,1.4,1.7,2.7,1.9c18.8,2.2,36.7,9.9,51.8,21.2c12.4,9,22,20.6,30,33.6c1.2,2,2.6,2.8,4.9,3.2
		c33.9,4.7,50.8,34.2,45.1,66.7c61.6-1.4,80.8,57.6,44.3,102.5c9.3,5.6,14.8,13.7,17.2,24c15.3,62.2-54,94.3-103.1,73.8
		c4.3,13,4.6,26,3.8,39.4c4.5,0.6,9,1.3,13.5,1.9c11.4-19.4,37.4-48.1,60.1-27.7c16.3,18.2,20.9,43.3,28.9,65.7
		c0.3,4.2,6,2.3,5.5,6.5c-3.3,11.9,17.4,26.7,6.5,34.2c0.8,4.4,1.3,11.6-5,11.6C582.6,556.5,524.3,564.9,503.6,534.6z"/>
	<path class="st0" d="M93.4,735.5c-7.3,34.7-20.1-6.3-8.4-11.6c-0.1-0.2-0.2-0.4-0.3-0.6c-40.8,20.8-49.1-6.4-21.7-3.4
		c0-0.2,0.1-0.4,0.1-0.6c-10.8-1.3-20.9-4.2-29.5-11.2c-18.1-16.4,2.5-15.1,15.3-13.1c-7.5-3-15.5-4.9-21.5-10.7
		c-3.7-2.3-7.2-10.9-0.6-11.5c7.9,0.7,14.9,5.4,22.6,7.2c-5.6-4.6-11.7-6.4-18.4-9.6c39.2-14.3,60.6-59.5,86.8-90
		c4.8-6.1,10-13.8,18.6-14.2c-0.1,0.7-0.1,1.3-0.3,2.6c15.5-23.4,27.2-48.9,37.9-74.7c8.1-21.6,20.1-41.5,41.3-52.3
		c50.8-28.9,158-24.8,148.9-106.8c27.5-7,53.6-28.4,64.5-54.7c1.7,1,3.2,1.9,5,2.9c-11.2,17.1-16,41.8,0.9,57
		c4.7,24.5,13.6,33.8,36.5,45.1c11.5,47.1-10.1,94.5-45.7,125.4c-4.7,3-11.5,12.4-17.1,10.3c-5.7-21.7-9.5-42.5-11.9-65.1
		c-2.3,14.3,3.1,47.8,10.5,64.8c-1.5,0-2.7,0-4.2,0c0.8,1.4,2.1,1.5,3,1.7c17.5,4.9,34.9,10.2,52,16.3c17.3,5.5,24,22.9,28.7,38.8
		c1.6,7.9,36,120.6,6.7,81.1c1.2-3.5,2.5-6.7,2.5-10.4c-10.7,26.2-41,51.3-26.4,2.4c-9.9,9.5-22.6,17.8-36.5,21.2
		c-3.4,0.9-11,0.9-8.2-4.5c3.3-7.1,10-12.2,13.2-19.3c-13,12.7-14.9,14.9-33.9,14.7c-20.9-4.7,10.7-20.2,17-24.6
		c-17.6,4.5-11.9,9.4-31.7-1.9c20.7-3.3,27.9-26.2,26.1-44.6c-0.1-2.6-1.3-4.7,0.2-7.2c-16.6-10.5-52.5-14.7-56.6-36.1
		c-5.7-27.8-3.4-56.2-4-84.1c-5.7,29.7-4.7,61.2,2.1,90.7c-39.7,12.3-83.4,15.9-123.4,2.9c14.9-14.2,34-27.7,40.1-48.2
		c-32.6,44.3-78.4,79.3-131.7,93.9c6.9,0.8,13.5-1,20.2-2.9c-13.2,22.3-26.5,45.6-32.3,71.2c-5,21.1-8.2,42.8-16.3,63
		c-3.1,6.4-9.1,23.7-16.8,11.8c-3-3.2-2.7-6.9-2.8-11.1C93.9,735.5,93.7,735.5,93.4,735.5z M206.1,458.4c-2-1.7-0.3-3.5-0.7-5.5
		c-0.9-2.9-4.3,0.3-4,2.5c0.5,3.9,7,0.3,1.2,7.3c-2.8-0.3-1-3.3-2.6-4.4c-2.4-1-3.5,2.6-3,4.3c0.8,1.7,3.2-0.2,5.2,1
		c-6.5,11-4.5,21.5,0.5,32c34.1-4.6,36.5-41.8,14.8-31.4c-0.9-3.7-2.8-6.8-7.6-7.4c0.5-2.7,3.9-5.2,1.8-7.6
		c-5.2-0.6-3.6,4.6-2.4,7.7C208.1,457.5,207.2,457.9,206.1,458.4z M468.2,630.1c-6.9,7.8-11.8,15.7-22.6,17.9
		C453.8,649.5,468.4,637.8,468.2,630.1z M51.6,686.2c7.5,4,16.4,4.9,24.5,1.9c0.8-0.2,1.6-0.7,1.2-1.9
		C61.5,689.4,61.4,687.7,51.6,686.2z M418.6,626.1c0,0.2,0,0.4,0,0.6c5-0.6,15.1,1,17.7-4.1C430.6,621.9,424.6,625.5,418.6,626.1z
		 M54,708.4c6.2,3,15.7,5.6,21.7,1.2c-0.1-0.2-0.1-0.4-0.2-0.6C68.3,710.6,61.2,710,54,708.4z M470,648c7.3,3.3,17.1-8.8,11.1-12.3
		C481.1,642.6,476.8,647.4,470,648z M457.1,633.2c-3.7,4.9-8,8.4-13.5,11.2C450.9,643.6,456.7,639,457.1,633.2z M74.6,700
		c-6.1,2.1-11.9,1.1-17.7,0.6C60.4,702.7,73.7,705.8,74.6,700z M114.2,714.1c-4.6,4.8-5.9,10.7-5.4,17.1c1-3.9,1.9-7.9,3.4-11.7
		C112.8,717.7,114.8,716.4,114.2,714.1z M96.3,715.8c-6-0.2-6.4,11.6-6.5,15.9C91.6,726.4,92.5,720.7,96.3,715.8z M497.5,645.5
		c1.2-3.7-1.5-15.7-5.9-13.5C494.5,636.2,496.3,640.4,497.5,645.5z M425.7,630.3c7,1.7,12.6,0.2,14-3.8
		C435,628.7,430.7,629.8,425.7,630.3z M77.6,717.9c5.4-1.3,9.7-4.7,9.9-7.5C84,711.6,81.1,715.6,77.6,717.9z"/>
	<path class="st0" d="M438.8,343.8c7.6,3.4,21.6,3.9,21.4-7.2c-2.1-12.2-20.4-9.1-23.5,1.6c-34.9-38.7,27.6-69.3,17.5-96.2
		c-0.5,15.7-11.5,27.1-19.8,39.6c-33.2-25.2,22.2-73.7,1.6-112.1c9.5,6,17,14.1,23.6,23.1c0.2-0.1,0.5-0.3,0.7-0.4
		c-16.3-31.9-56.1-43.7-89.6-45.8c13.6-3.6,26.8-1.7,40.1-1.2c-73.8-24.1-106.5,62.9-185.2,61.6c30,5.7,42.1,11.7,72.9,0.2
		c-19.2,18.4-48.4,17.9-72.5,11.2c-0.1,0.2-0.2,0.4-0.2,0.5c1.5,0.8,3,1.7,4.7,2.7c-2.3,11.1-1.6,22.1,1.8,32.9c0.2,0,0.5,0,0.7,0
		c-0.3-4.4-1.2-8.6-0.9-13.1c14.8,24.3,30.2,48.2,46.5,71.5c9.8,14.5,25.3,21.1,42.2,23.7c-2.7,16.5-14.8,28.5-30.5,33
		c6.3,0,11.8-2.1,17.2-5.6c0.7,18.8-40.8,22-29.7,52.1c-12.6,3.6-25.1,7.2-37.9,10.8c-6.1-12.4-7.1-27-2.1-39.9
		c2.4-5.1,5.6-13.3,11.9-13.7c34.3,2.1,34.2-29.2-2.6-2.8c-17.7-5.1-23.9-32.8-3.6-42.9c-6.6,17.4,17.2,23.1,24.1,9.9
		c9.9-14.2-0.4-31-15.1-36.7c-28.3-12.6-43.3-12.4-42.7-48.3c-0.2,0-0.5,0-0.7,0c-1.6,8.9-1.4,16.7,0.5,25.8
		c-16.8-21-14-50.5,5.1-68.8c1.2,0.7,2.4,1.4,3.9,2.3c-19.4-23.5-16.1-59.3-0.1-84.1c6.3,9.1,12.4,18,18.5,27
		c-2.7,5.4-6.1,10.5-6.5,16.8c12.1-28.9,37.3-50,67.3-58c-6,0.8-11.5,2.1-16.9,4.2c-9.3-8.9-20.4-15.2-30.7-23.3
		c17.1-14.7,36.8-24.2,57.7-31.6c2.2,7.1,4.4,14.2,6.7,21.5c-2.9,1.5-6.2,3.2-9.4,4.9c0.1,0.2,0.2,0.4,0.2,0.6
		C341,76.4,370.6,77,406.7,88c-6-3.3-12.4-5.7-18.8-7.5c-1.8-5.6-3.5-11-5.3-16.8c35,6.4,61,25.5,80.9,54.4
		c-28.3-2.6-56.3-4.6-84.4-8.5C429.8,129,523.5,99.5,511.5,186c-42.6,14.1-10.2,41.2,2,5.7c0.6-2.1,1.6-2.7,3.7-2.9
		c58.8-1.3,73.9,56.5,39.4,97.9c-9.9-5.2-52-4.6-39.1,13.9c12.6,9.5,30.1,0.1,39.6-9.8c14.7,6.5,16.9,23.7,12.5,37.5
		c-4.5,17.1-16.5,28.7-30.9,38.4c17.5-4.4,35.3-31,35.2-51c14,64.1-67.3,91.5-112.5,60.7C449.7,369.7,439.6,357.8,438.8,343.8z
		 M464.6,252.8c0.1,0.1,0.2,0.2,0.3,0.3c4.6-2.6,7.1-8.7,12.1-10.4c9.3,0.1,20.3,4.7,22.3,14.8c1,28.4-26.5,49.4-25.9,78.1
		c3.9-9.6,5.3-21.1,10.8-30.6c11.8-21.8,34.9-61.3-6.7-64.3c23.9-33.8-0.2-76.9-38.8-83.2C485.4,174.8,501.4,214.8,464.6,252.8z
		 M322,154.2c-0.1-0.2-0.2-0.3-0.3-0.5c-32.1,15-62.9,48-101.1,35.3c-0.1,0.2-0.2,0.4-0.2,0.5C253.9,207.4,294.5,171.5,322,154.2z
		 M342.2,120.9c0,0.2,0,0.5,0,0.7c28.8-0.4,58,3.7,82.9,19.1C405.5,121.9,368.4,117,342.2,120.9z"/>
	<path class="st0" d="M186.6,461.5c-16.2-47.5-94.1-54.8-102.7,0.9c-3.7,33.3,17.1,45-3.2,78.8c25.5-22.1,1.4-52.6,6.4-79.7
		c3.2-17.9,14.1-29,31.3-33.8c28.1-8.4,54.6,11.1,67,35.4c-2.2,3.6-4.2,7.1-6.5,11c-5.2-17.9-24.8-30.2-42.7-25.6
		c9.8,1,19.7,2.3,27.7,8.6c-33.7,5.2-15.7,47.3-8.6,67.8c-3.5,13.7-12.5,26.5-18.1,39.8c-1.6-0.3-3.1-0.6-4.5-0.9
		c0.7-32-28.4-67.1-7.3-96.3c-25.4,18.9,5.8,69.4,5.8,95.9c-5.5,3.2-10.6,6.5-14.2,12c-10.3,13.6-20.6,27.3-30.9,40.9
		c-16,19.4-31,43.2-55.9,51.4c-2.8-3.3-3.8-10-2.4-14c4.5,2.8,9,5.3,14.6,4.5c-28.1-5.7-29.2-43.7,1-45.1c-11.6,11,3.7,26.6,16,20.4
		c19.1-7.2,16.6-33.2,4.9-46.1c-19.2-18.5-23-31.4-20.1-57.6c-4.8,6.6-2.1,19.6-5.7,21.5c-18.6,14.8-39-6.8-29.7-25.8
		c3.6,19.6,32.2,9.8,18.8-13c-15-29.9-14.9-70.3,14.1-91.5c-9.6,1.8-15.8,14.9-19.5,12.9c-25.2-1.4-25.1-39.8-0.7-42.7
		c-17.5,19.6,11.1,31.3,21.9,4.4c4.6-9.3,8.6-19,13.5-28.2c19.7-38,70.8-42.3,106-24.5c0.1-0.2,0.2-0.4,0.3-0.6
		c-3.8-2.3-7.7-4.5-12.1-7.1c26.1,0.9,48.8,19.4,51.4,45.6c3.7,22-5.4,43.9-1.2,65.7c-1.4,1.1-2.7,2.3-4.4,3.6
		c-3.9-26.8,5.3-72.9-20.5-89.8c15.3,16.4,15.5,38.7,16.5,59.7c0.5,8.3,0.8,16.7,1.2,25c0.3,3.6,2.4,7.5-2.3,9.5
		c-4.5-31.2-26.6-69-61.8-68.8c29.9,5.6,50.6,30.9,57.5,59.5C189,452.8,193.2,455.1,186.6,461.5z M83.1,591.6
		c0.2-0.1,0.3-0.3,0.5-0.4c-22.4-26-27.5-54.6-17.5-87.2C49.5,529.2,59.5,575,83.1,591.6z M167,375.8c0.1-0.2,0.2-0.3,0.3-0.5
		c-23.6-22.3-64.5-14.6-85.3,7.8C107.9,364.5,139,355.6,167,375.8z M65.6,491.1c-13.8,6.9-22.4,18.4-27.9,32.5
		C44.1,510.3,53.7,499.7,65.6,491.1z"/>
	<path class="st0" d="M427.5,279c-15.5,25.7-39.7,48.8-70.2,53.7c-26.6,4-60.1,1.4-76.3-22.9c-16.3-24.3-32.5-48.8-48.7-73.2
		c-2.1-4.4-0.3-9.6,0.5-14.4c4.5,0.9,9,1.8,13.5,2.8c-2.9,8.1-0.9,15.7,1,23.4c0.3,0,0.5,0,0.8,0c1.1-7.3,1-15,4.6-21.6
		c1.8-3.3,6.5-1.1,9.7-1.7c-3.6,7.1-5.8,14.5-6,22.4c0.2,0.1,0.4,0.1,0.6,0.2c7.5-42,18.5-8.5,47.4-44.9c-18.5,5.9-38.5,12.5-57.6,6
		c23.3-5.3,44.1-15.8,64-29.6c-1.6,12.9,4.1,22.5,11.6,31.4c0.2-0.1,0.4-0.2,0.6-0.3c-6.3-9.2-15.5-23.2-8.5-33.9
		c15.7-10.3,30.5-24.8,49.7-27.7c6.3,0.9,13.4-0.2,19.3,2.5c19.1,12.7,31,32.8,43.7,51.3c-7.8-20-21.9-37.8-38.8-50.9
		c0.1-0.2,0.2-0.4,0.3-0.6c14.9,3.6,33.7,6.5,44.3,18.2C453.2,204.8,403,249.6,427.5,279z M276.5,291.2c0.1,0.2,0.3,0.3,0.4,0.5
		c6.6-4,12.2-9,18.5-13.7c0.7,15.3,13.7,23,27.9,17.3c3.8-1,6.4,3.6,10.6,2.4c10.9,0.4,19,16,25.9,9.5
		c21.5-12.6,18.9-39.4,10.5-59.4c1.2-0.6,2.7,0.1,3.3-1.4c-3.5-2.1-10-0.1-11.8,3.6c1.3-0.5,2.6-1,4.4-1.6
		c-5.8,23-29.5,41-51.2,47.7c-16.5-0.6-22.1-22.7-10.9-33.4c3.2-3.6,6.7-6.1,9.8-9.9c-1.4,0.6-2.2,0.9-3.2,1.3
		c-8.2-10.7-17.1-21.2-27.3-29.9c-0.1,0.2-0.3,0.3-0.4,0.5c2.3,2.5,4.6,4.9,7,7.6c-22.9-9-36.5,15-26.7,34.3c1.8,3.6,4,7,6,10.6
		c-0.8,1.5-3.4,1.7-3.4,4.2c2.1,0.1,3.1-1.9,4.8-2.4c0.4,0.4,0.7,0.9,1.1,1.2c-1.2,2.2-4.1,2.7-4.7,5.5c3,0.3,4-2.6,6.2-3.5
		c0.5,0.6,1,1.3,1.5,1.9c-1.4,1.5-2.6,2.8-4.2,4.6c3.1,0.3,3.8-2.2,5.2-2.8c1.1,0.9,2,1.7,3,2.5C278,289.3,277.3,290.3,276.5,291.2z
		 M391.2,169.3c-18.3-17-51.5-16.9-65.8,5.1c-12.8,20.9,9,41.3,22,56.1c18.2-18.8,36.9-37,58.2-52.3c-0.1-0.2-0.3-0.4-0.4-0.6
		c-1.2,0.5-2.4,1.1-3.8,1.7c-0.6-0.7-1.2-1.4-1.8-2.1c4-4.2,4-4.2,3.6-5.8c-2.3,0.6-3.2,3.1-5.2,4.3c-0.6-0.7-1.1-1.2-1.7-1.9
		c2-2.3,4.7-3,5.1-6.5c-3.2,0.8-4.3,3.9-6.8,5.2c-0.6-0.7-1.2-1.3-1.8-1.9c4.4-5,4.4-5,4.2-6.5C394.2,165,393.3,167.7,391.2,169.3z
		 M337.8,256.8c-0.6-3.3-5.2,0.2-5.7,2.1C331.3,264.6,338,260.4,337.8,256.8z M303.4,281.1c1.7,1.7,5.3,1.7,5.8-0.7
		C308.2,277.6,305,278.5,303.4,281.1z"/>
	<path class="st0" d="M260.6,646c1.2-0.9,2.4-1.8,3.9-2.9c11.8,28.8,29.8,54.5,46.2,80.8c1.8,3.7,5.1,7.2,4.6,11.6
		c-1.6-1.7-3.3-3.4-4.9-5.1c-0.2,0.2-0.4,0.3-0.6,0.5c4.4,8.5,11.4,15.6,14.1,24.9c-4.9,1.4-9.4-4.4-13.5-6.6
		c-5.1-4.2-11.2-8.2-11-15.6c-0.2,0-0.5,0-0.7,0c-0.3,7.4,0,15-2.5,22.1c-2.4,8.7-12.2,18.2-12.9,2.9c0.7-3.7,4.4-6.6,4.2-10.6
		c-6.5,8.3-11.9,19.3-22.1,23.3c-5.4,0.9-3.9-7.5-1.8-10.2c2.1-2.7,3.9-4.9,5.7-7.9c-1.8,0-2.3,1.2-3,2c-8.7,9.6-18,18.5-28.7,25.9
		c-4.5,3.7-14.3,4.9-14.8-3c-0.9-9.4,7.7-15.4,11.2-23.3c-7,5.5-12,15.5-22.4,14.2c-9.2-1.9,4.8-9.7,6.4-12.8
		c-3.9,0.9-6.8,3.2-9.6,5.4c-5-1.8-1.7-6.1-0.2-9.2c7.8-12.3,11.3-26,13.4-40.1c2.7-18.3,3.2-36.8,2.7-55.3
		c0.6-11.4-4.8-33.8,7.2-40c0.3,0.7,0.5,1.4,0.8,2.1c6.4-18.1,2.3-39.3,1.6-58.5c24.4,9.8,51.4,9.4,77.3,7.4
		c-12.2,28.8-32.4,52.7-51,77.5C260.3,645.7,260.5,645.9,260.6,646z M251.6,752.9c8.1-6.7,14.7-15.2,15.2-25.2
		c-0.3-0.1-0.6-0.1-0.9-0.2C263.8,737.7,257.9,744.5,251.6,752.9z M282.2,741.3c5.5-2.9,11-15.8,8.1-20.9c-0.2,0-0.4,0.1-0.7,0.1
		C288.8,728,287.7,735.4,282.2,741.3z M273,748.6c4.7-3.7,7.8-8.4,9.4-14c0.5-1.3,0.6-4.8-1.5-2.9
		C279.7,737.8,276.6,743.4,273,748.6z M242.7,753.5c5-2.8,10.1-7.3,11.1-13.1c-0.2-0.1-0.4-0.2-0.6-0.2
		C250.2,745,246.7,749.4,242.7,753.5z M307,731.1c-3.1-3.7-4.4-8-7-12C298.8,722.5,301.7,727.5,307,731.1z"/>
	<path class="st0" d="M313.3,568.1c15.4-2.9,30.3-4.8,44.6-11.2c7.6,11.6,21.3,15.1,33.4,20.7c-4.6,10.1-12,16.8-22.6,20.4
		c-10.1-18.5-35.1,7.4-3.3,3.5c-0.8,4.2-4.7,6-7.2,9c-20.7,20.7,11.5,40.7,16.6,16.3c10.9,17.9-7,35.6-25.2,36.1
		c3.8,1.7,7.1,0.2,10.8,0.2c-8.7,18.2-32.5,13.1-44.1,0.8c0.7-2,1.4-3.9,2.1-5.7c-0.1-0.1-0.3-0.2-0.4-0.3
		c-7.9,11.5-17.5,19.6-31.6,22.2c-3.7-6.5-7.3-12.8-10.9-19.1c16.2-4.6,27.1-12.8,29.7-22.6c-8,10-18.3,16.9-30.4,21.3
		c-3-6.1-6-12-8.8-17.6C284.1,619,304.8,596.9,313.3,568.1z"/>
	<path class="st0" d="M476.9,427.8c4.5,0.7,8.4,1.4,12.6,2.1c-0.5,1.7-1,3.1-1.4,4.6c0.2,0.1,0.4,0.2,0.6,0.3
		c51.6-73.9,68.1-29.8,88.6,31.6c-5.2-0.6-6.3,5.5-9.7,8.2c0.7,1.8,1.4,3.4,2.2,5.3c-2.8,0.9-5.3,1.7-8,2.5c-0.5-1.6-1-3-1.5-4.6
		c-4.6,0.6-9.1,1.1-13.7,1.7c-0.1,1.7-0.2,3.1-0.3,4.6c-3.6,0-7,0-10.6,0c0-1.9,0-3.5,0-5.5c-5.2-1.6-10.5-1.2-15.8-2.2
		c-0.5,1.5-1,2.8-1.5,4.2c-3.4-0.3-10-2.9-13.4-5.3c4-5,0.1-11.6-5.7-12.9c2.2-8.5,5.5-16.5,6.5-25.1c-0.2-0.1-0.4-0.2-0.7-0.2
		c-4.1,7.6-4.5,20.8-10.7,26.4c-3,1.5-4.2,4.5-3.1,7.8c0.3,7.3-6.5,13.3-8,20.5c-9.8-2.5-19.5-5-29.6-7.6
		C465,466.9,473.8,448.4,476.9,427.8z"/>
	<path class="st0" d="M385.2,79.7c-6.8-0.9-13.2-1.8-19.5-2.6c-7.7-22.2-20.2-40.9-40.1-54c16,15.5,29.8,32.7,38.1,53.8
		c-2.5,0.4-4.4,0.4-6.1-1.8c-5.1-5.8-11.3-11.8-19.1-13.3c6.5,4.7,12.8,8.4,17.9,15.2c-13.7,0.4-26.8,2.1-39.4,6.4
		c-9.2-26.7-9.9-53.9-5.2-81.4C349.6,14.8,372.9,42.2,385.2,79.7z"/>
	<path class="st0" d="M591.4,504.3c-2.1-5.1-3.3-10.1-6-14.5c-0.2,0.1-0.4,0.1-0.6,0.2c3,12.9,12.9,36-9.5,18.8
		c-0.2,0.3-0.4,0.5-0.4,0.5c2.9,4.4,0.7,10.2,0.5,15.1c-3.9,10.5-17.8-22-19.1-25.5c-0.2,0-0.4,0.1-0.7,0.1c1.7,12-7.9,25-16.9,32.3
		c-2.6,2.3-8.9,1.7-8.1-2.8c0.2-6.4,6.8-9.1,10.7-13.3c-0.1-0.2-0.3-0.4-0.4-0.6c-12.3,7.6-25.4,16.9-40.4,17.2
		c-12.2-3.5,10.2-20.2,15.5-22c-0.1-0.2-0.2-0.4-0.3-0.7c-5.9,2-44.9,16.4-37.5,0.1c5.7-6.7,13.7-10.9,19.8-17.1
		c-4.5,1.6-8,4.7-12.3,7c-2.4-8.9,4.3-15.7,7.5-23.6c3.8,2.9,7.6,0.4,11.5,2.8c-2,3.5-3.9,6.9-6,10.5c3.8-2.4,6.1-5.5,6.9-9.7
		c3.9,1.5,7.7,3,11.7,4.5c-0.4,3-0.9,5.9-1.3,9.1c1.6,0.2,2.9,0.4,5,0.7c-7,5.4-14.6,8.2-22.5,11.3c6.6,0.3,20.7-6.3,24.1-11.2
		c3.3,0.2,6.8,0.4,10.3,0.6c1.5-2.3,0.9-5.1,1.9-7.4c3.7,0,7.3,0,11.2,0c0.3,2.5,0.6,4.9,0.9,7.4c5.2,0,9.9-1.3,15.5-1.8
		c-0.2-2.6-0.5-5-0.7-7.6c2.8-1,5.6-1.9,8.5-2.9c0.9,1.3,1.9,2.7,3,4.3c3.4-1.4,6.7-2.7,10.4-4.2
		C585.6,487.8,595.9,499.2,591.4,504.3z M546.7,494.9c-1.7,0.4-1.7,0.4-2.3,1.6c-3.6,7-9.1,12.2-15.4,16.8
		C536.4,511,545.1,502.8,546.7,494.9z M539.4,492.8c-3,2.9-3,6.4-5.4,9.5c-2.5,4.8-7.1,7.9-10.4,12.1
		C531.4,509.7,538.7,502.2,539.4,492.8z M495.5,501.7c7.4-0.9,19.2-4.9,20.1-13.1C509.6,495,503.8,498.8,495.5,501.7z M571.1,491.1
		c1.4,3.9,2.9,7.7,4.3,11.6C576.3,497.9,574.3,492.2,571.1,491.1z"/>
	<path class="st0" d="M279.8,415.4c-9.9-28.9,34.3-32.2,28.5-52.2c8.3-6.8,13.2-15.5,14.3-26.4c6.2,0.5,12.2,0.9,18.5,1.4
		c-0.7,11.3-3.7,21.5-11.6,30.1c10.6-5.6,13.9-18.8,13.7-30.2c1.3-0.1,2.6-0.3,4.1-0.5c1.1,5.8,0.4,11.4-0.4,17.1
		c2.9-2.4,3.4-5.7,2.9-17.1c3.8-0.7,7.9-1.4,11.7-2C369.2,382.2,317.9,406.5,279.8,415.4z"/>
	<path class="st0" d="M230.6,82.4c7.7,5.6,15.2,11.2,23.2,17.1c-19,3.1-20.4,32.1-0.3,35c-5.7,5.7-10.7,11.4-15.3,18
		c-6-8.2-11.3-17.1-17.1-25.5c-1-1.4-1.3-2.6-0.7-4.4c3.3-9.9-4.7-21.4-15.6-20.1c-7.3-11-14.5-21.9-21.9-33
		c5.8-10.2-1.9-24-14.4-21.9c-6-8.4-11.4-17.3-16.7-27c18.3,11.5,33.9,27.3,51.1,40.6C186.5,82.1,216.4,106.8,230.6,82.4z"/>
	<path class="st0" d="M413.5,665.3c3.6-1.1,6.9-2,10.6-3.1c-6.6,9.3,0.2,14.5,9.8,11.8c11.6-3.1,21.7-8.7,30.8-16.5
		c-9.4,35.8,15.9,24.7,27.4,3.2c2.1,4.2,4.5,7.6,8.7,9.4c-1,11.4,1.7,30.7-13.4,32.9C458.3,704.2,431.7,687.1,413.5,665.3z"/>
	<path class="st0" d="M238.2,784.4c7.6-5.4,14.2-11.4,21-17.9c1.8,15.7,17.8,0.4,22-6.3c4.4,24.6,21.9-5.2,19.4-16.6
		c0.3-0.2,0.6-0.4,0.9-0.5c4.1,6.9,11.6,12.1,18.9,15.2c1.8,0.3,2.5,1.2,2.8,2.9c4.3,16,4.8,20.5-13.4,22.3
		C286.1,786.6,262,786.7,238.2,784.4z"/>
	<path class="st0" d="M177.3,594.9c5.3,21.2-7,44.5-18.2,55c1.1-5.9,1.7-11.2,1.9-17.1c-0.2,0-0.5-0.1-0.7-0.1
		c-2.6,20.3-11.7,40.3-29.5,51.6c5.4-29.9,19.3-56.7,33.5-83.2C167.3,597.3,173,597.1,177.3,594.9z"/>
	<path class="st0" d="M166.7,137.5c10.2-6,36.3-11.4,49.7-10.3c-2.7,4.4-5.4,8.8-8.2,13.4c-9-1-18.2-0.8-27.1,2.7
		c8.7-1.5,17.4-1.8,26.6-0.5c-5,13.3-5.2,26.8-4.1,40.5C191.1,178,173,156.8,166.7,137.5z"/>
	<path class="st0" d="M557.2,507.4c4.5,14.5,23.7,37.5,21.1,6.4c2.5,1.5,4.6,2.8,6.7,4c-11.9,37.5-54.7,40.3-78.5,16.5
		c7.9-1.8,14.9-5.1,22-8.8c-2.5,10.4,8.2,12.5,14.5,6.2C550.5,525.4,554,516.4,557.2,507.4z"/>
	<path class="st0" d="M27.7,706.4c6.6,6,13.5,10,21.5,12.7c-8.4,5.8-3.7,14.2,5.3,14.4c8.5,1.1,16.5-1.6,24.1-5.2
		c0.3,6.6-1.2,13.4,2.1,19.4c3.3,6.5,9.2,4.7,12.1-1c1.3,1.8,2.6,3.4,4.1,5.4C60.4,770.9,30.3,743.4,27.7,706.4z"/>
	<path class="st0" d="M157,523.4c-3.8-14.6-10.7-27.9-10.5-43c0.3-10.6,7.2-21.2,18.6-21.2c6.5,2.1,9.3,10.6,12.1,16.4
		C172.4,491.8,163.8,507.6,157,523.4z"/>
	<path class="st0" d="M278.9,118.1c-3.9,2-7.4,3.8-11,5.7c-0.7-7.8-9.5-9.1-13.3-2.5c4.7-3.8,11.4-3.8,11.4,3.6
		c-19.5,22.3-36.4-12.4-14.8-22.9c2.6-1.1,5-1.1,7.5,0.8C265.3,108.2,272.3,112.6,278.9,118.1z"/>
	<path class="st0" d="M212.2,82.9c-1.1-3.4-2.3-6.6,0.6-9.2c5-4.6,11.5,5.6,16.3,7.8c-12.7,22.1-39.1-0.2-24.9-19.2
		c3.6,2.5,6.7,5.3,10.3,8.1C209.2,72.7,207.1,79,212.2,82.9z"/>
	<path class="st0" d="M554,289.6c-7.5,7.4-15.7,11.9-25.9,11.9c-5.5,0.6-14.3-5.3-7.7-10.4C530.4,285.4,543.3,285.6,554,289.6z"/>
	<path class="st0" d="M517.9,491.6c0.9-4.6,1.7-8.9,2.5-13.2c4.9,0.3,9.4,0.5,14.1,0.8c-0.8,4.5-1.5,8.8-2.3,13.5
		C527.5,492.3,522.9,492,517.9,491.6z"/>
	<path class="st0" d="M439.3,340.3c1.6-9.3,16.9-13.4,18.4-3.2C456.8,346,444.7,344.5,439.3,340.3z"/>
	<path class="st0" d="M510.9,189.8c-1.3,7.9-9.1,21.2-17.8,15.2C490.6,196.5,503.9,191.7,510.9,189.8z"/>
	<path class="st0" d="M575.1,467.5c2.9,1.2,5.6,2.2,8.5,3.4c0.2,3,0.4,5.8,0.5,8.9c-3.2,1.4-6.5,2.9-10.1,4.4
		c-1.6-3.1-3.1-6.2-4.7-9.3C571.3,472.4,573.1,470.1,575.1,467.5z"/>
	<path class="st0" d="M547.8,481c4.2-0.7,8-1.4,11.9-2.1c0.4,4,0.8,7.8,1.2,12c-4.1,0.6-8,1.1-12.4,1.7
		C548.2,488.7,548,485,547.8,481z"/>
	<path class="st0" d="M498.1,463.9c7.7,0.2,9.6,11.8,0.9,11.9C491.5,476.1,489.8,463.8,498.1,463.9z"/>
	<path class="st0" d="M250.1,370.8c2.2-3.2,29.5-15.8,21.9-5.5C265.9,370.3,258,372.4,250.1,370.8z"/>
	<path class="st0" d="M169.2,48.8c10.6-0.4,17.1,9.7,12.7,19.2C177.6,61.5,173.6,55.3,169.2,48.8z"/>
	<path class="st0" d="M218.5,123c-4.4-6.5-8.4-12.7-12.6-19C215.1,103.5,222.1,113.8,218.5,123z"/>
	<path class="st0" d="M365.8,598.8c-3.3,0.2-6.3,0.5-9.4,0.5c-4.4-0.1-5.5-4-0.4-4.9C359.9,593.6,365,593.8,365.8,598.8z"/>
	<path class="st0" d="M496.9,521.9c-1.1-1.4-1.2-1.7-2.2-3.3c2.1-0.6,4-1.1,6.4-1.7C499.5,518.8,498.3,520.3,496.9,521.9z"/>
	<path d="M464.6,252.8c36.9-38,20.7-78-26-95.3c38.6,6.3,62.7,49.4,38.8,83.2c41.7,3.1,18.6,42.5,6.7,64.3
		c-5.5,9.5-6.9,20.9-10.8,30.6c-0.5-28.7,26.9-49.8,25.9-78.1c-2-10-13-14.6-22.3-14.8c-5,1.7-7.4,7.8-12.1,10.4
		C464.8,252.9,464.7,252.8,464.6,252.8z"/>
	<path d="M322,154.2c-27.5,17.3-68.1,53.1-101.6,35.3c0.1-0.2,0.2-0.4,0.2-0.5c38.2,12.7,69.1-20.3,101.1-35.3
		C321.8,153.9,321.9,154.1,322,154.2z"/>
	<path d="M342.2,120.9c26.1-3.9,63.3,1,82.9,19.8c-24.9-15.4-54.1-19.5-82.9-19.1C342.2,121.4,342.2,121.1,342.2,120.9z"/>
	<path class="st0" d="M220.7,475.1c-0.4,5.2-3.1,9.8-8.3,12.7c-4.8,2.7-10.2,0-11.6-5.3C196.9,470.4,219.7,458.1,220.7,475.1z
		 M210.8,484.6c1.8-0.2,3.1-2.4,1.7-3.8C210.5,479.9,209.3,482.8,210.8,484.6z M212.1,471.5c-1-1.7-3.4-0.4-3.2,1.4
		C209.7,475.3,212.2,474.2,212.1,471.5z M207.2,478.5c-1-1.9-3.3-0.4-3.3,1.4C204.7,482.2,207.1,480.8,207.2,478.5z M218.7,475
		c-1.1-1.5-3.2-0.9-3.1,1.1C215.4,478.9,219,477.9,218.7,475z"/>
	<path class="st0" d="M282.9,233.3c-13.1,14-5.6,36.1,9.3,45.7c-2.2,1.7-4.4,3.3-6.5,4.8c-7.5-6.1-13.7-14.1-17.8-23.1
		C261.7,249.2,266.7,229.7,282.9,233.3z"/>
	<path class="st0" d="M283.2,246.4c7.4,2,13.1,9.9,3.9,15.8c2.4,3.5,5.5,6.1,9.2,8.3c-0.5,3.2,0.1,9.3-4.6,5.3
		c-9.3-7-13.6-16.4-13.2-27.8c0.4-6.6,5.3-17.5,13.2-11.7C287.8,239.1,283.5,241.2,283.2,246.4z"/>
	<path class="st0" d="M374.5,278.4c-0.3,7.2-2.3,13.5-6.7,18.7c-3.1,2.8-13.6,16-15.5,6.5C354.1,292,362.4,280.8,374.5,278.4z"/>
	<path class="st0" d="M326.4,294.2c16.9-7.9,31.2-20.5,40-36.5c3.6,9.1-3.7,16.4-10,21.7C348.7,283.7,334.7,301.9,326.4,294.2z"/>
	<path class="st0" d="M298.8,264.9c-0.4-1.5-0.7-2.4-1-3.4c-1-0.4-2.1-0.8-3.6-1.4c1.4-0.9,2.2-1.4,3.2-2c0-1.1,0-2.2,0-4
		c1.4,1.4,2.3,2.2,3.2,3c1.3-0.5,2.5-1,3.9-1.5C303.9,259.6,301.5,261.9,298.8,264.9z"/>
	<path class="st0" d="M364.2,211.8c-5.6,5.7-10.9,11.2-16.5,16.9c-8.3-7.1-14.4-15.7-19.9-25c-10.9-18.2,5.8-38.7,24.8-40.5
		C336.1,178.7,347.3,202,364.2,211.8z"/>
	<path class="st0" d="M364.9,163.7c-6.4,2.3-10.5,6.1-12,12.5c10.9,1.5,18.1,12.3,4.5,16.9c1.2,3.4,4.4,6.2,13.6,11.6
		c-1.7,1.8-3.4,3.5-5.2,5.3c-12.7-7.5-24.3-23.4-16.7-38C353,165.7,355.9,160.6,364.9,163.7z"/>
	<path class="st0" d="M381.2,192.7c-1.5,0.1-3.1,0.3-4.6,0.4c-0.4,1.1-0.9,2.1-1.3,3.2c-2-0.7-1.9-2.2-2.3-3.5
		c-1.3-0.4-2.4-0.8-4.3-1.4c1.5-1,2.4-1.6,3.4-2.3c-0.1-1.2-0.3-2.4-0.4-3.6c2.3-0.4,2.6,1.7,3.9,2.2c1.2-0.7,2.5-1.3,3.7-2
		c0.2,0.2,0.4,0.3,0.6,0.5c-0.4,1.2-0.7,2.3-1.1,3.6c0.8,0.7,1.7,1.4,2.5,2.2C381.3,192.2,381.2,192.5,381.2,192.7z"/>
</g>
</svg>
