<?xml version="1.0" encoding="utf-8"?>
<!-- Generator: Adobe Illustrator 26.0.0, SVG Export Plug-In . SVG Version: 6.00 Build 0)  -->
<svg version="1.1" id="Capa_1" xmlns="http://www.w3.org/2000/svg" xmlns:xlink="http://www.w3.org/1999/xlink" x="0px" y="0px"
	 viewBox="0 0 595.3 904.7" style="enable-background:new 0 0 595.3 904.7;" xml:space="preserve">
<style type="text/css">
	.st0{fill:#FFFFFF;}
</style>
<g>
	<path d="M161.9,508.8c1.5-6.3,3-12.1,4.4-18.2c-7.1,2.1-16.5-2.4-13.8-11.1c-11.3-4.9-8.7-19.5-4.3-28.6
		c-15.2-4.6-18.4-27.8-4.2-35.6c-10.8-7.7-12.7-18.3-11.1-30.5c-12.8,3.2-24.7,0.1-37.2-4.7c31.8,43.3-12.5,94-55.6,59
		c-5.9-6.7-15.1-20.5-7.9-28.6c4.4,9.3,12.5,13.6,22.1,15.4c14,2.5,19-17.5,12-27c-9-14-25.5-20.8-35-34.4
		c-7.6-10.1-5-27.5,7.8-31.9c5.6-1.9,11.6-2.8,17.2-4.9c5.7-2.5,11.4-9.8,5.4-14.9c-14-16.2-29.7-30.8-42.6-47.9
		C-16,225-0.1,153.2,55.1,142.7c23.4-8.1,78.5-1.3,81.6-33.1c2.4-31-2.2-67.8,29.3-85.9c86.8-53.5,236.4-13.2,268.4,88.3
		c12.8-19.8,16.1-10.6,18.8,7.2c1.1,10.3-0.5,20.4-2.9,30.4c-0.3,1.7-1,1.9,0.2,3.8c5.1-7.4,12.8-13.2,21.2-16.4
		c9.8-2.8-1,24.9-3,28.8c22.2-10.6,45.3-15.6,69.3-18.5c5.8,59.5-18.5,153.3-96.2,133.2c-4.4,29.5-9.9,63-34.8,82.5
		c-6.8,5.8-15.4,7.1-23.5,9.6c-19.6,19-46.5,27.9-72.9,32.8c-2.9,20.5,1.9,39.6,9.1,58.9c34.5-45.9,76.9-85.5,123.3-119.2
		c10.2-5.4,36.5-29.2,46.3-17.5c7.7,11.1,5.6,26.2-2.2,36.8c28.3,0.6,36.4,38.6,10.6,50.5c18.8,8.9,13,31.8-5.8,36
		c6.6,8.9,7.7,25.3-5.6,28.4c1.4,4.9-0.5,8.3-5,10.2c11.9,23.5-3,52.8,10.9,74.5c13,13.5,31.9-13,47.9-7.7
		c13,2.3,15.7,15.6,18.1,26.5c2,6.6,4.1,7.7,10.1,8.6c12.1,2.1,8.4-12.6,4.9-19.1c21.3,3.4,31.6,36.2,9.3,46.2
		c-28.9,13.5-44.4-14.3-54.1-5.2c-26,25.3-51.7,35.8-82.5,10.5c2.5,12.4,5,24.4,7.4,36.6c10.9-1.9,14.6,5.3,17.9,14.3
		c4.9,12.5,10,25,16.5,36.7c5.5,12.6,48,73.4,30.6,80.5c6,14.6,4.9,32.4-14.7,32.5c-0.3,9.5-8.3,10.9-15.4,14.4
		c-12.1,6.3-27.4,6.1-39.5-0.2c-8.4-6.2-22.7-4.5-23.1-18.1c-20.6-5.1-5.8-53.2-5.6-69c-17.4-0.3-6.7-32-6.4-42.8
		c-22.9-18.6-45.8-40.4-54.9-69.2c-3.6,3.8-13.1,8.4-13.4,13.4c1.7,23.6,4.4,47.1,11.3,69.9c4.6,15,11.4,29.1,19.7,42.4
		c4,7,12.3,16.1,4.4,23.6c5.9,10.1,20.7,24,10.6,35.6c7.4,5.9,7,17.8-3,20.8c4,9-6.6,15.9-14.8,13.3c-0.7,11.7-7.9,4-13.1,7.3
		c-2.7,3.1-6,5.3-9.8,6.9c-3.5,1.8-3.4,6.6-5.7,9.4c-4,7-10.9,10.2-18.9,9.6c-3.3,12.8-19.4,11.1-28,4.9
		c-13.3,8.4-79.9,16.4-79.2-7.7c-25.9,9-6.4-47.9-3.8-59.2c16.5-54.4,33.5-108.7,49.4-163.3c-34.7-3.5-59.7-21.1-76.5-51
		c-1.6,2.2-3.3,4.4-5,6.7c11.3,12.8-2.5,32.6-17.8,30c-2.7,2.7-5.3,4.1-6.9,7.2c-5,10.6-12,19.6-21.4,26.6
		c-14.5,11.3-34.4,10.6-48.1-1.6c-6.6-3.4-10.4,3.6-19.9-7c-22.2-36.4-2.5-132,8.5-173.2c6.4-22.9,32.4-30.1,53.4-24.2
		C144.5,484.6,151.7,499.2,161.9,508.8z"/>
	<path class="st0" d="M142.4,238c5.8,10.9,14.1,18,25.3,22.3c-2,3.5-5.4,6.1-5.7,11.2c24.9-32.6,49.8-10.3,72.5,11.1
		c-1.7-4.9-12.9-15.5-27.1-25.7c9.1-32.7,1.4-73.6-41.7-58c3.3-6.9,6.3-13.3,9.3-19.7c2.1,0.2,3.8,0.4,5.7,0.6
		c-1.8,2.6-3.5,5.2-5.6,8.3c10-4.7,19.3-6.4,29.7-9c6.9-1.7,13.8-1.7,20.8-1.4c6,0.5,2.9-7.9-0.8-9.4c14-9.4,26.5-20.1,35.8-34.3
		c1.6-2.4,3.3-3.3,5.9-2.6c53.3,13.2,102.8,37.3,148.5,67.5c4.1,3.5,3.3,10,3.2,15c-5.8,38.2-6.9,169-71.7,138.5
		c2.8,13.6,21,18.3,33.2,19.5c-23.9,17.3-49.6,28.3-78,33.1c0,0.2,0,0.5,0.1,0.7c2,0.2,3.7,0.1,5.8-0.2
		c-6.2,50,23.3,95.1,53.4,132.3c0.3-2.5-1.3-4.2-2.1-6.8c7.8,4.6,15.4,8.9,24.5,10.3c2.7,0.5,4.8,2,5.8,4.4c3.2,9.4,8,18.1,9.2,28
		c-10.8-7-10.5,6.9-3.5,10.8c15.5,0.6,1.3-27.1-0.5-34.9c1.8-0.1,2.5,1.4,3.8,1.7c3.1-2.4,5.9,0.8,8.8,0.2
		c2.5,5.5,5.5,10.4,6.3,16.8c-10-8.7-11.9,5-4.2,9.7c3.6,2.5,6.2-2.1,6.8-5.1c1.6-7.4-2.2-13.8-4.8-20.8c1.3-0.2,2.4-0.3,3.7-0.5
		c19.8,34.1,25.5,73.7,36.2,111c13.7-4,14.8,5.4,18.7,15.8c5.4,16.2,12.6,31.5,21,46.4c10,18.9,21.8,37.1,28.3,57.7
		c1.7,5-0.8,7.5-5.8,8.2c6.8,3.3,7.3,12.5,6.9,19.3c-1.6,12.7-17.5,14.6-27.5,9.9c1.9,2.2,1.9,2.2,8.9,4.5c0.7,3.4-1,5.7-3.5,7.5
		c-15.4,9.8-32.5-5.6-45.3-13.2c1.4,1.5,2.6,2.8,4,4.3c-4.2,4.2-8.3,8.2-14.6,8.8c-7.2,0.5-15.5-3-14.2-11.7
		c1.9-1.3,4.4-2.1,5.5-5.5c-27.7,17.9-9-60.3-11-72.5c-0.3,3.7-3.7,10.4-6.7,4.5c-3.7-13,1.4-26.9,2.6-40.1
		c-17.2-11.5-30.9-26.5-43.7-42.4c-4.1-6.1-18.2-22.2-12.7-29.1c12.4-15.1,17.8-34,14.6-53.5c-3,33.8-12.9,53.6-43,71.9
		c4.5-23.9,11.9-45.4,17.3-68.9c-18.7,60.7-41.9,145.7-30.3,208.4c-1.4,1.3-2.9,2.6-4.3,3.9c0.1,0.1,0.2,0.3,0.2,0.4
		c38.4-21,15.8,18.2,9.9,35.8c0.2,0.1,0.4,0.2,0.7,0.3c2.7-2.9,3.6-9,8.3-9.1c6.5-0.9,15.5,1.3,13.1,9.7
		c-2.3,8.6-8.5,15.5-12.9,23.1c-2.1,4.9-6.7,6.4-10.2,9.7c4.4-1.2,22.2-11.2,21.8-2.2c0.2,8.3-2.8,15.3-9.1,20.7
		c-6,5.1-13.9,2.3-20.9,3c1.7,2.4,4.5,2.2,7,3.2c-2.4,8.7-13.8,8.8-20.6,5.5c-8.7-3.8-14.4-11.4-22-16.9c2.6,3,5.1,5.9,7.7,8.9
		c-3.9,5.6-11.1-0.7-14.8-3.7c-6.8-5.8-9.5-14.1-14.2-21.4c1,4.4,6.5,11.8,1.2,14.8c-7.6,3.8-10.1-5.7-11-11.5c-2.5,2-3.1,3.9-5.1,6
		c-5.1,5-9.5-0.5-10.1-6c0.1,2.9-1.8,4.4-3.6,6.1c-46,48.5-6.9-59.5-2.6-75.8c19-62.9,38.1-125.8,57.3-188.7
		c-0.2-0.1-0.4-0.2-0.7-0.3c-8.7,17.4-14,36.2-20.3,54.6c-31-4.9-64.6-22.4-76-52.1c2.7-8.5,3.8-20.9-4.4-26.7
		c1.2-9,0.8-17.4-7.7-23.4c-0.2-10-0.4-20.3-0.6-30.6c-2,10-2,20-1.2,30.3c-1.7,0.7-2.8,1.1-4.8,1.7c0.1-10.9-3.2-22.5-16.6-17.2
		c-2.6-10.6-3-21.4-4.6-32.1c-0.5,11.1-0.1,22.1,2.9,33c-1.5,1.4-3.1,2.9-4.6,4.3c0.1,0.1,0.2,0.3,0.4,0.4
		c24.2-18.4,21.3,13.3,18.2,28.5c3.2-0.9,2.7-9.7,3.9-12.8c-0.7-3.8,4.6-5.5,7.4-3.4c8.8,7.1,5.6,18.8,3.7,28.4
		c2.5-1.7,2.4-4,3.5-5.8c9.3,9.6,1.5,24.9-3.1,35.2c-2.8-0.3-5.1-2-8.1-0.7c7.3,3.7,11.9,5.3,9.7,16.2c-5.7,22.7-34.3,10.4-47.9,2.3
		c4.9,6.5,18.5,10.9,27.2,13.7c-10.3,9.9-27.4,2.4-37.3-4.9c1.5,2.6,4.1,4,6.2,5.8c-4.2,15.3-19.1,3.1-25.2-4.2c1.2,2,2.4,4,3.6,6
		c-2.6,5.7-7.2,6.5-15.5,2.9c1.2,1,2.4,2,3.6,3c-3.2,8-8.7,9.4-16.9,5.1c1.2,1.8,1.2,1.8,3.9,3.1c14.1,14-17.9,19.5-20-13.3
		c-3.8-39.9,1-80.3,8.3-119.6c2-10,4.4-20,7-29.8c5-23.3,31.6-31.7,52.3-23.9c8.9,3.9,13.6,13.6,20.4,20.1
		c7.5,8.3,13.7,17,24.5,20.8c9.8-43,24.1-84.9,32.8-128.1c12.7,3.3,25.1,8,38.3,8.1c0.1-0.3,0.1-0.6,0.2-0.8
		c-29.1-8.6-59.6-16.1-84.1-34.9C123.8,338.5,108.2,278.5,142.4,238z M374.2,278.6c-4.6-40.8-71.2-59.9-88.2-18.8
		c-2.6,8.1-9.8,27.4-2.2,33.7c22.6,11.8,55.4,26.6,81,20c11.6-3,26.4-7.5,28.8-21.1c-5.4,1.9-10.5,2.6-15.8,0
		c1.6-2.3,3.8-4.1,3.7-7.2c-2-0.3-3.8-0.7-5.7-1c0.7-2,1.4-3.8,2.1-5.8C376.4,278.6,375.4,278.6,374.2,278.6z M265.5,320.9
		c-19.5,9-39.3-6.6-57.3-13.1c-14.6-7-29.5-13.3-45-18.2c-0.2,0.2-0.4,0.4-0.6,0.6c11.7,4.8,3.4,21.9,4,31.5
		c-2.6,28.1,33.1,32.6,53.8,28.1c14-3,29.7-9,36.8-22.3C259,323.8,264.1,325.1,265.5,320.9z M376.2,230.7
		c6.4-21-13.6-37.8-32.1-42.3c-5.3-2.5-26.6,2.9-13.2,8.1C349.5,203.9,366.8,211.9,376.2,230.7z M131.9,610.9
		c0.2-0.3,0.3-0.6,0.5-0.9c-13.7-8.8-18.8-23.9-23.5-38.6C110.8,586.7,117.1,603.9,131.9,610.9z M289.2,848.1
		c-7.7-11.4-11.4-23.7-9.8-37.4C274.7,820.6,280.5,843.2,289.2,848.1z M81.1,654.3c2.5-11.1,6.9-22.1,12.8-31.6
		C86.8,627.8,79,646.1,81.1,654.3z M253.9,813.4c-0.2,0-0.4-0.1-0.6-0.1c-3.2,10.3-7.5,21.4-7.5,32.2c0.3,0,0.6,0.1,0.9,0.1
		C249,834.9,251.5,824.1,253.9,813.4z M472.7,737.6c-0.2,10.1,4.5,22.7,14,26.9C479.5,756.8,474.5,748.1,472.7,737.6z M225.8,852.2
		c6.5-2.1,16.4-18.1,16.7-26.2C238.2,836.1,233.1,843.7,225.8,852.2z M84.8,589.2c-3.7,10.5-10,18.1-18.7,25
		C74.1,613.2,83.6,600.5,84.8,589.2z M335.2,866.9c-7.6,6.3-15.8,9.6-25.6,9.3C317.5,879.7,332.8,874.5,335.2,866.9z M299.1,800.4
		c-2.7,8.1,5.8,23.2,17.3,21.8c0.1-0.2,0.1-0.5,0.2-0.7C306.2,818.6,300,812,299.1,800.4z M230.3,837.4c5.4-2.1,14.1-17.5,14.5-25.5
		C241,821.7,235.7,828.7,230.3,837.4z M481,764.4c-0.1,0-0.2,0-0.3,0c0.8,7.8,5.2,22,13.4,24.2C488.1,781.2,484,773.4,481,764.4z
		 M159.9,632.3c-9.2-0.4-17.5-2.8-25-8.1C140.8,631.5,153.6,635.8,159.9,632.3z M229.4,816.3c6.4-1.1,15.5-13.5,15.7-21.4
		C241.8,803.5,236.1,810.2,229.4,816.3z M421.4,808.4c0.4,0.1,0.7,0.3,1.1,0.4c6-8.4,8.7-17.9,8.7-28.3
		C428.8,790.2,425.7,799.5,421.4,808.4z M229.6,857.2c-8.4,4.6-17.4,16.6-17.1,23.4C217.5,871.3,222.4,864.7,229.6,857.2z
		 M70.7,635.3c4.2-2.6,11.2-17.1,11.9-24.2C79,619,73.2,627,70.7,635.3z M307.8,840.1c7,5.9,22.6,4.2,26-3.6
		C325.2,842.2,316.8,843.8,307.8,840.1z M456.9,812.5c-5.9-6.5-10.1-13-13.1-20.9C443.1,798.5,450.2,810.6,456.9,812.5z
		 M277.6,841.4c-0.3,7.4,8.7,19.1,14.8,18.6C285.9,855,280.8,848.6,277.6,841.4z M483.4,803.3c5.1,8,16.4,13.3,22.6,10.1
		C496.8,812.4,489.4,809.3,483.4,803.3z M74.3,663.1c0-7.8,1.3-15.7,3.8-22.9C73.4,645,71,657.4,74.3,663.1z M470.6,816.8
		c-6.8-4.2-12.4-9.1-17-15.4C455.1,808.5,464.8,817.5,470.6,816.8z M272.1,862.3c1.8,6.1,9.3,14.7,13.9,15.7
		C282.3,872.6,276.5,867.5,272.1,862.3z M318.6,884.1c-7-0.6-13.9-1.8-20.3-4.8C303.3,884.2,313.9,886.8,318.6,884.1z M121.7,567.9
		c-1.6,6.9-1.9,17,5.1,21.2C123.6,581.9,121.3,575.2,121.7,567.9z M149.7,586.3c3.4,6.6,14.9,9.2,20.3,2.8
		C162.4,590.4,155.8,592.2,149.7,586.3z M122.6,613.7c-6.6-4-11.1-8.2-14.7-14.7C108.6,606.4,115.4,613.6,122.6,613.7z M430.3,812.1
		c0.3,0,0.5,0.1,0.8,0.1c3.1-3.6,4.4-14.6,2.3-20.4C432.9,798.8,431.9,805.3,430.3,812.1z M299.6,856c4.3,5.8,12.8,9.6,18.3,7.8
		C310.6,861.9,306,859.8,299.6,856z M437.7,826c3.6-3.5,3.3-14.2-0.6-19.2C438.8,813.6,438.4,819.8,437.7,826z M159.5,613.5
		c-6.4-2.2-12.3-5.1-17-10C144.8,609.3,154.2,615,159.5,613.5z M430.8,759.5c-1.1,6.8-3.3,12.4-4.9,19.4
		C429.7,775.8,431.9,766.8,430.8,759.5z M218.4,283.6c0.2-3.8-6.7-8.4-6.3-2.3C212.7,283.3,217.8,287.3,218.4,283.6z M496.8,805.2
		c3,2.5,14.4,7.4,16.5,3.6C507.9,807.6,502.6,806.4,496.8,805.2z M156.5,603.7c5.4,3.4,14.4,4.8,17.4,2.5
		C168,605.3,162.6,604.5,156.5,603.7z M301.2,845.7c2.4,4,10,9.5,14.2,5.5C309.9,850.5,305.2,849,301.2,845.7z M470.8,797.9
		c-3.3-3.9-5.9-7.8-8.3-12.4C462.4,790.7,466.2,797,470.8,797.9z M169.7,267.2c2.3,1.1,6.9,0.1,5.7-2.9
		C173.6,261.8,169.7,264.4,169.7,267.2z M505.1,793.3c0.1-2.8-2.9-6.3-6.9-8.1C500.4,788.3,501.9,791.1,505.1,793.3z M224.8,871.6
		c-3.2,0.8-5.4,4.3-4.5,6.9C222.5,877.4,223.2,873.7,224.8,871.6z M324.6,814.2c0-0.3-0.1-0.5-0.1-0.8c-2.8,0.4-5.6,0.9-8.6,1.4
		C319.2,816.6,322,816.4,324.6,814.2z M169.1,603c4.4,1.5,7.1,0.9,8.5-2C174.7,601.7,172.2,602.3,169.1,603z"/>
	<path class="st0" d="M338.9,33.2c-31-24.9-69.6-11.5-90.9,18.9c-14.3,18.5-23.3,40.4-37.5,59c-8.8,11.5-19.3,20.9-32.9,26.4
		c-32.8,12.9-69.4,4.4-102.9,14.2c-41.9,11.1-66.4,51.6-60.6,93.8c-19.1-35.1-2.6-84.4,37-95.3c23.5-7.3,48.9-6,72-14.6
		c41.4-17,0.2-78.7,43.9-105.7c81.8-55,234.9-15,265.9,82.7c0.3,1.3,0.5,2.4-0.1,3.6c-5.1,10.4-6.7,21.7-9.1,32.7
		c-3.9-7.1-7.4-14.2-12.9-20.2c-6.8-13.6-13.5-27.2-24.2-38.2c-22.3-26.3-64.5-37.1-91.4-11.4c-14,12.2-22.5,29-32.3,44.4
		c-14.6,24.1-36.9,45-65.1,51.2c-17.9,4.5-35.5-1.7-53-4.7C75.1,156.6,14.6,214.1,43,284.2c-9.7-9.3-18-20-25.1-31.5
		c-15-43.5,19.5-92.7,63.8-99.8c28.6-5.8,58.2-1.3,86.6-8.5c28-6.4,46.5-29.3,60-53.2c23.6-44.4,55.6-87.4,110.2-57.4
		C338.6,33.6,338.7,33.4,338.9,33.2z"/>
	<path class="st0" d="M479.2,372.1c2.4-2.2,4.7-4.3,7.2-6.6c24.1,1.9,31.8,32.4,13.7,45c-5.3,5-7.6,1.9-13.7,2.4
		c23.1,6,28.5,27.1,4.1,36.2c-2.3-2.1-4.5-4.2-6.8-6.2c-0.2,0.1-0.3,0.3-0.5,0.4c7.6,9,18,27.5,2.2,34c-0.8-0.7-1.6-1.4-3-2.7
		c6.7,12.9-6,15.3-15.8,12.5c-2.6-1.6-3.9-5.2-5.8-7.6c-0.2,0.1-0.4,0.2-0.6,0.4c5.1,10.4,18.2,37.5-1.6,39.4
		c0.1-2.1-0.1-3.4-0.7-5.7c0.1,15.2-16.9,21.2-30,18.9c3.6,22.1-26.9,18.5-38.8,10.2c3.7-0.9,7.6,0.1,11.1-2.1c-1.2-1.5-2.7-1-3.9-1
		c-17,0-36.1-6.7-45.8-21.4c-10.2-17-22.7-32.5-29.7-51.3c40.2-45,81.9-88.5,131.7-122.9c6.9-3.7,28.5-21.7,34.5-13.6
		c9,13.5,3.5,31.6-8.4,41.3C478.8,371.7,479,371.9,479.2,372.1z M395.2,495.5c1.2,6.1,3.6,11.9,4.6,18c2.5,17-23.8,10.7-33.8,9.9
		c7.1,4.5,16.9,3.8,25.2,3c8.3-0.9,11.5-6.7,10.4-14.6c26.6,8.5,40.7-3.1,22.4-27.7c31-1.3,20.4-22.6,2.7-35.2
		c24.1-3.8,24.9-22.6,1-27.2c17.2-8,14.2-22.1-4.8-22.2c14.3-10.1,12.2-31.7-2.5-20c22-8.8,5.4,22.7-7.6,21.9
		c31.2-2,32.9,11.3,4.7,22.7c9.6-1.9,19.7-1.9,25.1,7.9c5.8,11.8-15.6,14.5-23.3,15.9c10.4,1.6,17.4,11.2,21.4,20.6
		c5.1,15.5-21.8,12.6-30.6,11.2c-6-13.2-7.5-15.5-10.9-16.7c15.7,24.9,11.9,33.9-17.7,25.1C384.4,492.7,390.8,492.7,395.2,495.5z
		 M443.5,374.6c4.7-0.9,16.5-12,18.9-17.5C456.1,363,449.8,368.8,443.5,374.6z M382.2,439c7.7,3.1,21.1-1.5,24.4-8.3
		C399.4,436.9,391.1,438.6,382.2,439z M387.6,453.7c-8,0.1-15.3-1.6-23.2-4.8C370,454.8,381.6,456.7,387.6,453.7z M402.2,444.2
		c-8.5,1.8-15.2,0-23.5,0.1C384.3,447.8,395.1,447.8,402.2,444.2z M351,475.3c-0.1,0.3-0.1,0.6-0.2,0.9c5.7,1,11.4,2,17,2.9
		C362.6,476.1,357,474.4,351,475.3z M449.8,377.5c0.1,0.3,0.3,0.6,0.4,0.9c5.4-0.7,9.6-3.6,12.9-7.9
		C458.7,372.8,454.2,375.2,449.8,377.5z M351,469.1c-0.1,0.3-0.1,0.7-0.2,1c4.9,0.5,9.8,1.1,14.7,1.6
		C360.9,469.2,356.1,468.1,351,469.1z M461.6,383.2c-3.7-0.3-6.6-0.5-10.1-0.7C454.1,385.2,457.2,385.4,461.6,383.2z"/>
	<path class="st0" d="M65.9,318.4c3.9,4.3,5.7,9.2,8.2,13.6c0.2-0.1,0.5-0.1,0.7-0.2c-2.2-20.3-22.7-31.4-31.1-48.5
		C17.2,212.6,79.4,158,148.5,173.9c-55.4,16.8-98.9,91.2-53.3,139.2c4.5,4.5,9.4,8.9,12.5,14.6c6.9,11.7-5.4,22.2-16.2,24.6
		c-28.1,4.1-22.6,23.8-10.8,42.3c4.7,9.7,4.1,19.4-1,28.7c-7.6,14-27.7,19.3-40.5,10.4c-4.2-5.8-10-13.2-6.9-20.8
		c26.7,36.6,59-1.2,26.7-27.9c-10.7-10.6-31-20.6-27.1-38.3c1.4-5.2,4.3-9.1,9.5-11C51.2,332.1,64.1,331.6,65.9,318.4z"/>
	<path class="st0" d="M519.7,166.2c-30.4,10-57.9,28.5-80.7,50.8c-1.5-1.1-1.6-3.3-2.6-5c10.3-9.8,5.1-22.3,10.5-26.2
		c7.5-4.2,13.5-10.2,19.2-16.5c21.4-11.3,46.2-17.3,70.3-20.2c2.4,19.3-2.3,38.9-5.8,57.9c-9.2,45.8-38.1,80-88.3,71.7
		c0.3-19.8,2.3-39.5-2.7-58.7c24.9-20.7,51.1-39.3,80.5-53C519.9,166.7,519.8,166.5,519.7,166.2z"/>
	<path class="st0" d="M134,209.6c-1.7,10.2,1.3,18.4,6.4,26.2c-1.9,2.9-3.8,5.8-5.7,8.7c-24.3-3.3-50.6,21.9-38.4,46.1
		c18.7,31.2,70.7,72.1,4.7,85.6c17.9,1.2,40-12,34.9-32.4c5.3,6.4,10.4,12.5,15.8,19c-13.7,29.3-43.5,18.3-67.3,10.9
		c3.6,2.7,8.3,3.8,9.7,8.6c7.2,14.9,12.9,31.8,3.9,47.3c-9.5,19.7-40.1,22.8-54.9,7.7c25.5,9.9,51.9-16.8,40.5-42.1
		c-4.9-10.7-18.5-29.6-2.1-36.8c14.7-2.9,38.7-12.2,29.7-31.3c-3.6-6.4-8.6-11.9-13.9-17C70.6,282.3,77.8,237,102,210
		c12.7-15.6,30.3-25.6,48.1-34.4c0.9-0.5,2.2-0.8,3.2-0.6c6.6,1.6,13.4,2.2,19.8,4.6c-6.8,14-8,21.1-22.2,29.6
		c-0.1-0.1-0.5-0.4-1.2-1c-0.5,1.6-1,3.1-1.6,4.7c-1-0.8-1.9-1.4-3.4-2.5c-0.3,2.6-0.5,4.8-0.8,7.2
		C139.5,216.9,136.8,213.7,134,209.6z"/>
	<path class="st0" d="M343.3,851.2c9.9-13.9,13.3-32.4-9.9-27.4c6.9-14.4,16.9-43.3-11-31.6c-4.7-46.1,0.5-91.2,10.4-135.7
		c3.7-1.6,7.3-3.1,11.2-4.8c-0.4,108,57.1,130.3,30,137.2c2.4,0.9,5.1,0.1,6.5,2.7c3.6,4.6,7.4,9.2,9.5,14.7
		c3.1,9.4,5.5,14.6-4.6,19.8c1.4-0.2,2.8-0.3,4.8-0.5c10.7,12.1-0.5,20.7-13.6,18.8c2.9,1.5,4.5,1.7,9.9,1.5
		c3.4,6.9-5.4,12.8-11.6,11.1c-3.4-0.7-6.8-1.9-10-3.2c-0.1,0.2-0.2,0.4-0.3,0.6c2.3,1.3,4.6,2.6,6.9,3.8
		C371.8,871.9,347.5,855.6,343.3,851.2L343.3,851.2z M385.8,811.4c-9.8,2.5-18.1,5.1-27.8,0.1C365.5,818.5,381.6,817.1,385.8,811.4z
		 M370.6,809.3c5.3,2.6,13.6-0.8,13.8-7.2C380.6,806.4,376.6,809.7,370.6,809.3z M379.3,850.2c-5.7-0.1-10.5-1.3-15.7-3.8
		C367.7,851.2,374.8,853.2,379.3,850.2z M382.5,828.2c-5.5,0.5-10.7,0.1-16.2-2.1C370.5,830.4,378.6,831.5,382.5,828.2z M370,832.9
		c-4.8-0.6-9.2-1.8-13-5C358.7,831.9,366.5,836.7,370,832.9z M382.8,839.3c4.1,0.9,8.1-1.5,7.6-4.6
		C387.9,836.3,385.5,837.7,382.8,839.3z"/>
	<path class="st0" d="M176.1,520.7c-2.6-0.4-4.2-2-5.8-3.4c-6-5.2-6.1-5.3-4.2-13c1.7-8.6,5.5-16.7,6.3-25.4
		c-2.6,4.6-4.3,10.3-10.7,9.2c-7.6-0.2-7.9-6.9-5.9-12.8c-0.2-0.2-0.5-0.3-0.7-0.5c-0.5,0.9-0.9,1.8-1.4,2.7
		c-12-9.2-3.8-24.1,2-34.7c-3,1.8-4.1,4.4-6,6.3c-17.4-8.5-14.5-30.8,3.9-36.4c-2.3,0-2.6-0.2-4.3,0.5
		c-10.9,0.8-15.8-20.1-14.4-28.9c9.3-3.6,16-9.9,19.5-19.7c15.6,14.5,34.2,23.2,54.1,30.2C199.5,437.2,180.8,477.3,176.1,520.7z"/>
	<path class="st0" d="M310.6,113.3c-4.8-5.6-9.8-14.9-16.5-6.2c-3.1-3.3-6.1-6.5-9.1-9.7c-0.3,0.2-0.5,0.5-0.8,0.7
		c36.7-56.7,98.4-23.5,122,26.1c-16.7-8.8-1.7,38.2,1,44.2c-10.7-5.5-7.2-36.4-23.7-20.4c-4.6-9.2-7.7-22-19-10.8
		c-4.4-9.1-8-21-18.9-10.2c-4.9-8.2-8.5-18.1-17.9-7.8C322.6,113,317.7,102.7,310.6,113.3z"/>
	<path class="st0" d="M578.8,588.7c-0.2,12.8-14.1,20.8-25.9,18.5c-11.8-1.7-24.2-8.6-35.1-0.4c-19.1,15.6-35.2,19.1-50.9-3.1
		c-11.8-15.6-18.9-49.6-44.4-43c-2-2.9-3.9-5.7-6-8.7c8.4-1.7,14.9-7.7,14.3-16.8c10.4,0.3,19.2-2.6,25.8-11.3
		c7.2,20.8,4.8,49,25.4,62.3c26.8,18,48.9-40.3,74.4,0.2C560.5,595.1,573.4,597.3,578.8,588.7z"/>
	<path class="st0" d="M420.4,210.7c5.2,4.5,7.3,4.9,14.5,2.6c6.2,12.2,3.9,27.3,4.3,40.6c-2.2,36.1-4.3,78.5-31.9,105.1
		c-13.2,11.3-28,13.4-44.1,7.4c-5.9-2.6-12.6-4.9-14.8-11.7C413.2,383.8,419.4,249.7,420.4,210.7z"/>
	<path class="st0" d="M416.5,196.4c-46-33.4-96.7-55.7-152.5-67.2c4.2-6.7,8.2-13.3,12.4-20c1.6-2.6,1.7-2.6,4.6-2
		C311.3,114,425.3,158.8,416.5,196.4z"/>
	<path class="st0" d="M423.4,561.8c26.1-3.3,29.7,37.9,46.2,51.3c18.9,18.2,33.8,9.1,51.6-4.4c10-6.7,21.4,0.3,32,1.1
		c20.5,2.7,34.6-17.5,22.3-35.2c8.8,1.4,14.9,10.6,17.2,18.8c5,30.9-36,30.6-53.2,15.9c-15.8-9.1-31.6,29.4-61,25.2
		c-13.3-1.6-34.6-7.3-36.4-23C437.3,594.3,431,577.8,423.4,561.8z"/>
	<path class="st0" d="M553.5,579.6c-15.4-18.3-32.8-6.9-49.2,4c-13.2,7.9-28.1-2.9-32.4-15.9c-5.1-14.5-6.7-30.1-14-43.8
		c-0.4-0.8-0.1-2-0.2-3.2c18.1,3,15.6-19.4,10-30.1c4,0,7.7,0,11.6,0c6.9,20.3,0.6,41.8,3.7,62.5c11.5,52.3,59.6-27.6,71.1,26.1
		C553.9,579.4,553.7,579.5,553.5,579.6z"/>
	<path class="st0" d="M156,659.5c-13,24-42.4,44.7-67.3,23.5c2.5-4.5,2.8-7.6,0.8-12.3c5.3-0.4,8.5-3.6,10.6-8.7
		c4.6,0.5,9,0.4,11.4-4.7c6.3,6.2,18.9,9.5,21.5-2.2C140.5,658,147.8,659.4,156,659.5z"/>
	<path class="st0" d="M166.5,258.3c-8-3.7-19.9-12.7-21.7-21.5c5.2-23.3,29.4-43.4,53.6-33.1c3.2,1.3,5.4,3.2,6.3,7
		C175.3,208.6,169.3,234.4,166.5,258.3z"/>
	<path class="st0" d="M440.5,171.7c-3.3-2.8-6.3-5.3-10.7-4.4c-1.4-5.3-4.4-10.2-4.7-15.5c2.2-9.4,4.2-18.8,6.7-28.1
		c3.8-13,16-36.1,19.3-8.2C453.5,134.9,447.6,154,440.5,171.7z"/>
	<path class="st0" d="M133.3,247.1c-16.7,24.9-16.9,51.2-7,78.4c-9.3-13.8-22.3-26-28.2-41.6c-4.7-21,16-35.5,34.7-37.3
		C132.9,246.7,133.1,246.9,133.3,247.1z"/>
	<path class="st0" d="M235.2,873.3c5.1,5.4,7.6,5.3,13.7-0.9c2.1,8.8,10.2,13.5,16.7,5.4c4.7,7.2,16.2,21.9,25.1,13
		c1.6,1.4,3.1,2.6,4.8,4.1c-17.1,4.9-61.7,12.6-74.3-2.1C217.1,886.8,231.9,878.4,235.2,873.3z"/>
	<path class="st0" d="M401.8,124.2c15,9.5,22,26.7,26.4,43.4c-5.9,3.7-8.3,9.8-10.4,16.8C407.7,166.6,398.6,145.1,401.8,124.2z"/>
	<path class="st0" d="M184.6,230.3c-5.2,7.4-7.7,15.5-8.5,24.3c-2.2,1.5-4.4,2.9-6.9,4.6c-0.8-16.3,6.3-44.2,25.6-46.1
		c12-0.5,11-2.1,13.8,10.1c-1-0.1-1.7-0.2-2.5-0.3C203.9,234.7,192.2,244.3,184.6,230.3z"/>
	<path class="st0" d="M445,185.7c-1-5-3.8-8.8-2.9-13.3c4.6-16.3,14.8-27.9,30.9-33.9C475.7,158.6,460.4,174.8,445,185.7z"/>
	<path class="st0" d="M442.9,187.8c2.1,19-19.6,39.6-24.1,11c-0.7-9.2,1.1-18.6,6.4-26.2C435.6,160.6,444.6,178.1,442.9,187.8z
		 M438.9,188.8c-1.1-25.6-18.8-2.2-15.2,11c0.4,4,2.4,6.6,5.1,7C436.7,207.6,438.9,195,438.9,188.8z"/>
	<path class="st0" d="M445.5,833.5c5.3-1.9,9.2-5.1,12.3-9.5c8.5,5.9,17.1,10.9,27.1,13.4C475.8,843.4,454.8,841.5,445.5,833.5z"/>
	<path class="st0" d="M343.3,851.2c3.1,6.3,9.6,9.4,15.6,12.4c-2.4,3.2-5.4,5.1-9.2,6.9c0.5-11.7-3-13.1-13.7-9.8
		C338.6,857.3,340.9,854.3,343.3,851.2z"/>
	<path class="st0" d="M384,150.2c2.7-1.4,4.9-2.6,7.4-3.9c2.3,3.9,3.5,7.9,4.2,12.2C392,155.9,388.3,153.3,384,150.2z"/>
	<path class="st0" d="M181.5,244.4c1.5,0.6,2.3,0.9,3.3,1.3c0.6-0.8,1.3-1.8,2-2.8c0.3,0.2,0.6,0.3,0.9,0.5
		c-0.1,1.4-0.3,2.8-0.4,4.3c0.9,0.6,2,1.3,3.6,2.3c-3.3,2.3-6.8,1.4-10,2.4C182.4,250,182.3,247.5,181.5,244.4z"/>
	<path class="st0" d="M358.3,135.2c-3.9-1.9-7.9-3.9-12.2-6c9.7-5.6,8.2-2.8,12.8,5.4C358.6,134.8,358.5,135,358.3,135.2z"/>
	<path class="st0" d="M377.4,146c-3.8-2.2-7.6-4.5-12-7c9.3-5.7,8.5-0.6,12.6,6.5C377.7,145.6,377.6,145.8,377.4,146z"/>
	<path class="st0" d="M339.9,126.4c-3.6-1.5-7.2-3.1-10.9-4.6c5.7-6.9,8-1.6,11.3,4C340.1,126,340,126.2,339.9,126.4z"/>
	<path class="st0" d="M311.8,115.3c1.9-1.4,3.1-2.3,4.5-3.3c2.5,1.6,3.8,3.9,5,6.7C318.4,117.6,315.5,116.6,311.8,115.3z"/>
	<path class="st0" d="M299.7,106.6c1.6,1.9,3,3.6,4.4,5.2c-3.2-0.1-5.9-0.9-9.1-2.4C296.7,108.3,298.1,107.5,299.7,106.6z"/>
	<path class="st0" d="M286.7,107c-2.3-0.6-4.7-1.2-7.5-2c0.9-1.4,1.7-2.6,2.7-4.1c1.9,2,3.6,3.7,5.3,5.4
		C287,106.5,286.8,106.7,286.7,107z"/>
	<path d="M376.2,230.7c-9.4-18.9-26.7-26.8-45.2-34.3c-13.4-5.2,7.8-10.6,13.2-8.1C362.6,192.9,382.6,209.7,376.2,230.7z"/>
	<path class="st0" d="M395.2,495.5c1-2,3.8-0.7,5.6-1.1c7.8-0.1,10.6-5.3,9.3-12.6c4.5,1.4,10.2,0.4,13.4,3.9
		c3.2,4.8,5.4,10.1,6,15.9c1.1,15.3-19.2,8.3-28.4,8.7c-1.7-4.9-2.6-10-5.8-14C395.2,496,395.2,495.7,395.2,495.5z"/>
	<path d="M438.9,188.8c0,6.3-2.3,18.9-10.1,18c-2.6-0.4-4.6-3-5.1-7C420.1,186.6,437.8,163.2,438.9,188.8z M437.8,187.6
		c-2.4-21.7-14.7,2.2-12.1,11.6c0.2,2.2,0.6,4.7,3.3,5.5C435.8,205.3,437.3,193,437.8,187.6z"/>
	<path class="st0" d="M358.2,313.1c-4.2,0-8.3,0-13.1,0c8-8.6,8-18.6,7.2-29c-16.8,7.6-27-6.6-23.7-22.7
		c-19.9,1.2-23.3,25.1-23.7,41.2c-3.4-1-6.8-2.8-10.4-4.4c-1.3-22.6,14-49.4,39.4-46.3c9.9,2.2,16.8,11.2,22.8,18.9
		C363.5,283.4,362.8,299.7,358.2,313.1z"/>
	<path class="st0" d="M361.2,312.1c4.2-23.4,3.5-46.1-19.3-59.3c-27.8-13-50.6,18.7-49.1,44.4c-3.5-1.9-6.6-3.5-10-5.3
		c-0.8-17.9,3.9-43,22.7-50.1c24.1-6.1,52.1,4.2,58.7,29.8c4.1,12.9,3.3,25.8-0.4,38.7C363.2,312.1,363.1,312.1,361.2,312.1z"/>
	<path class="st0" d="M323.2,300.5c0.2,1.6,0.3,3.1,0.5,4.6c-2-0.4-2-0.4-5.1-3.4c-1.1,0.6-2.3,1.2-3.5,1.9
		c-2.1-2.3,0.1-3.9,0.6-5.5c-0.8-1.6-1.5-3-2.5-5.2c2.2,0.4,3.6,0.6,4.9,0.9c0.9-1.3,1.8-2.5,2.8-3.7c2.3,1.8,0.8,4,1.6,5.7
		c1.6,0.4,3.2,0.9,4.7,1.3C326.8,299.7,324.5,299.3,323.2,300.5z"/>
	<path class="st0" d="M250.5,326.6c-6.8,10.3-84.9-16.1-77.3-31.4C199.5,304,222.8,322.4,250.5,326.6z"/>
	<path class="st0" d="M233.6,342.3c-8.5,4-42.1,2.2-55.4-6.4C194.5,321.6,217.6,332.4,233.6,342.3z"/>
	<path class="st0" d="M219.6,346.4c-15.9,3.3-36.6,3.1-47.2-10.8C187.2,343.7,203.2,346.2,219.6,346.4z"/>
	<path class="st0" d="M437.8,187.6c-0.5,5.4-2,17.7-8.8,17.1c-2.7-0.8-3-3.3-3.3-5.5C423.1,189.8,435.4,166,437.8,187.6z"/>
</g>
</svg>
