<?xml version="1.0" encoding="utf-8"?>
<!-- Generator: Adobe Illustrator 26.0.0, SVG Export Plug-In . SVG Version: 6.00 Build 0)  -->
<svg version="1.1" id="Capa_1" xmlns="http://www.w3.org/2000/svg" xmlns:xlink="http://www.w3.org/1999/xlink" x="0px" y="0px"
	 viewBox="0 0 595.3 761" style="enable-background:new 0 0 595.3 761;" xml:space="preserve">
<style type="text/css">
	.st0{fill:#FFFFFF;}
</style>
<g>
	<path d="M461.3,566.5c10.5-1,15.8,8.7,19.9,16.8c7.9,15.9,15.7,31.8,23.7,47.6c7.5,14.8,15.8,29.1,25.9,42.3
		c5.3,5.9,13.9,18,2.8,22.6c4.1,5.2,9.7,15.8,0.7,19.2c1.4,2.7,2,6.3-1,8.1c-9.1,20.5-32,32.8-54.6,30.1
		c-9.3-1.5-16.7-8.6-20.2-17.2c-7.1-6.9-8.2-7.9-8.9-18.8c-13.9,3-10.5-15.2-10-23.6c1.8-27.8,2.8-55.9,0.1-83.6
		C401,597,374,562.8,360.4,525.7c-20.6,10.3-26.2,35.2-33.8,55.1c16.7,12.7,1.9,36.8-0.4,53.5c-4.7,20.5-5.4,41.6-8.1,62.4
		c-0.4,4.8-3,11.2-8.5,6.8c-2.6,7.5-2.5,22.5-13.7,21.2c-15.2,4.2-30.6,6-46.6,7c-0.9,2.4-2.5,4.4-4.9,5.9
		c-3.3,25.4-50.9,24.4-70.5,22.5c-22-3.4-28.9-14-20.1-34.9c-11.6-6,4.2-24.9,7-33.4c-2.8-1.8-4.8-3.1-3.5-6.6
		c14-49.6,32.6-97.5,48.2-146.5c-9.9-4-18.5-9.8-26.5-16.8c-15.3,14.6-52.9,13.2-57.1,36.3c-0.9,28.6,8.7,56.6,20.2,82.4
		c2.4,4.7,0.9,9.6-2.5,13.5c2,6.1,15.9,23.8,2.9,24.2c4.3,9.2-2.6,7.7-8.4,10.2c-18.8,18.4-51.4,30.1-77.5,25.7
		c-9-1.5-5.1-14.3-7.1-21c-27.4,12.2,13-160.5,21.2-172.8c8.8-27.1,38.1-33.8,62.4-41.4c1.8-0.6,2.9-1.3,3.3-3.2
		c1.5-8.5,6.1-16.7,3.5-25.4c-18.8,6.2-8.6,16.3-30,20.4c-4.5,13.9-20.3,21.4-32.8,12.6c-5.9-1.9-8.1,0.4-12.7-6.1
		c-22.9,14.8-55,1.8-62.8-23.9c-7.9-30.5,15.8-64.5,43.8-74.7c-1.5,2.9-3.1,5.8-4.7,8.8c0.1,0.1,0.2,0.2,0.3,0.3
		c3.1-1.6,6.3-3.3,9.9-5.1C39.2,415.8,69.7,424,68,452.8c1.8,0.1,3.5,0.2,5.4,0.3c4.7-7.7,11.9-10.1,21-8.7
		c-0.1-10.4-0.9-24.8,12.6-26.3c-1.5-9.6,2.9-18.9,12.5-22.4c-3.8-11.6-3.9-24.7,8-31.4c-65.5-42.3-49.2-114-10.6-170.4
		c2-34.5,8.5-67.8,37.8-90.5C125,67.2,162.6,18.6,195.9,0c10.8,15,17.7,31.2,22.5,48.9c13.5-8.7,30-9.9,45.3-5.8
		c9.2-14.1,28.2-24.3,42.9-14.1c9.9,6.2,12.2,10.3,14.9,19.2c14.3-2.7,30.9,0.5,38.7,13.9c9.2,13.8,10.3,35.2-4.2,45.8
		c14.1,10.7,22.7,28.5,13,45.1c28.6-8,64.2,1.1,78.9,28.5c-10.5,27.2-41,39.7-68.3,42.3c-3.1,22.2-21.5,52.8,1,70
		c-13.4,1.8-24.1-6.5-29.2-18.5c-7.3,49.2-51.8,90.3-101.2,94.1c7.9,28.7,40.1,39.8,67.1,38.1c22.9-0.9,46.3-5.7,68.5,2.6
		c-7.9-34.7-19-88.3,32.5-90.1c3.1,0.1,4.9-0.9,6.9-3.2c9-10.2,20.4-15.8,34.1-16.5c16.4-0.9,35.7,3.5,44.3,19
		c0.7,1.3,1.7,1.5,2.9,1.7c23.4,3.6,45.9,22.6,47.3,47.3c3.7,37-8,73-8.1,109.9c-1.4,28.3,20,57.4,49.7,40.2
		c-18.2,43.1-78.7,40.7-104.5,6.2c-26.8-29.9-25.1-77.6-57.2-103.6c-6.1-2.8-15.6,9.5-20.8,12.8
		C435.9,474.7,447.9,521.6,461.3,566.5z"/>
	<path class="st0" d="M163.8,710.7c-0.6-1.8-1.2-3.6-1.7-5.4c-0.2,0-0.4,0-0.6,0.1c-0.1,3.5,1.1,7.9,0.1,11.1
		c-2,2.4-7.4,9.9-9.5,3.8c0.7-15.5,14.6-27.8,17.2-42.6c-29.1,52.6,30-107.5,31.4-112.9c9.1-30.4,21.6-61.8,21.2-93.8
		c-4.5,21.8-8.5,43.9-15.7,65.1c-49.4-23.6-71.7-79.3-62.8-131.8c2.8-31.8,20.5-59.4,27.7-89.9c21.4,16.2,46.9,24.6,73.9,22.7
		c-5.7,43.4,19.9,72.6,63.5,73.7c33.2,0.7,75.1-12.4,97.7,20c29.6,42.4,36.1,96,56.1,142.6c-0.2-1.7-0.5-3.4-0.7-5.4
		c15.2-0.4,35.3,58.9,45.2,73.2c7.3,14,15.8,27.3,25.8,39.5c3,3.6,5.5,11.4,0.1,13.8c-3-2.9-6-5.8-9.4-9.1c1.8,5.8,7,9.3,10.3,14.4
		c6.4,10.1,2.8,16.4-8.8,10.6c-0.1,0.2-0.2,0.4-0.3,0.6c27.1,15.4-17.4,14.1-26.8,10.1c10.4,5.4,10.3,17.4-3.7,14
		c-10.8-2.6-15.5-13.4-21.5-21.6c-0.2,0.1-0.4,0.2-0.6,0.3c1.2,4.1,4.8,7.8,3.4,12.2c-0.5,3.7-3.3,10.8-7.2,5.6
		c-3.1-3.8-3.9-8.8-7.2-12.4c1.8,4.3-1.1,18.2-6.3,9.4c-3.3-6.7-2.3-14.4-4.4-21.6c-1.1,2.6-0.3,5.3-0.8,7.9
		c-11.7,0.5-5.7-16.7-6.4-23.9c1.2-26.9,2.6-53.6-0.8-80.4c2.6,0.4,4.9,0.8,7.2,1.2c0.1-0.2,0.2-0.4,0.3-0.6
		c-51.7-16.7-82.8-62.6-93.9-113.9c0.8,9,2.5,17.9,4.4,26.8c-30.8,13.8-63,20.7-96.9,21.1c2.2-24.1,4.5-48.5,6.2-72.9
		c-0.2,0-0.5-0.1-0.7-0.1c-7.8,60.5-16.1,121.5-16.7,182.5c-1.4,5,4.6,72.7-6.5,54.9c2.3,14.4,4.7,38-13.8,16.5
		c9.1,33.3-16.5,10-24.5-3.1c1.9,8.5,2.3,21.2-9.4,11.9c-8.5-7.2-13.3-17-18.1-26.9c1.2,5.8-2.9,10-6.1,14.1
		C166,728.4,164.9,715.3,163.8,710.7c5.7-3.7,11.6-10.7,11.5-17.7c-0.2,0-0.4-0.1-0.6-0.1C171.2,698.9,168.1,705.2,163.8,710.7z
		 M351,446.1L351,446.1c4.3,8,14.9,7.6,21.9,3.6c0.1,0.7,0.3,1.4,0.5,2.5c5.9-8.1,5.8-7.9,15.3-5.3c0.1-0.2,0.2-0.3,0.3-0.5
		c-2-2.4-4-4.7-6-7.1c1.8-2.3,3.5-4.3,5.1-6.3c-0.1-0.2-0.2-0.3-0.3-0.5c-2.6,0.4-5.1,0.9-7.8,1.3c-1.7-2.3-3.3-4.6-5.3-7.5
		c-0.5,3.7-1,6.6-1.4,9.7c-11.5,6.1-23.1-6-15.8-17.2c-7.6,4.5-9.7,14-6.7,22c-1.5-1.6-2.9-3.3-4.4-4.9c-0.2,0.1-0.3,0.2-0.5,0.4
		C347.2,439.7,348.1,443.4,351,446.1z M191.4,695.2c-0.3,0-0.7,0-1,0c-0.8,10.6,4.4,21.8,13.3,28.1
		C196.8,715,193.2,705.8,191.4,695.2z M181.9,684.4c-2.8,9.6-4.4,18.4-10.3,26.5C177.8,705.3,185,692.6,181.9,684.4z M384.2,422
		c0.6,1.5,1,2.7,1.4,3.9c-0.7,1-1.5,2-2.4,3.3c3.8-1.1,5-0.7,7.7,2.1c0-1.6,0-2.7,0-3.9c1.5-0.6,2.8-1.2,4.6-2
		c-1.9-0.5-3.1-0.8-4.4-1.1c-0.2-1.1-0.3-2.1-0.5-3.3c-1,0.9-1.8,1.6-2.6,2.3C386.9,422.9,385.8,422.5,384.2,422z M401.4,436.5
		c-0.1-1.2-0.1-2.4-0.2-4.2c-1.2,1.3-2,2.2-2.8,3.1c-1.3-0.3-2.4-0.6-4.1-1c1.1,1.3,1.8,2.1,2.5,3c-0.7,1-1.4,1.8-2.3,3
		c1.6-0.2,2.8-0.4,3.8-0.5c0.9,0.9,1.6,1.8,2.6,2.9c0.2-1.5,0.3-2.5,0.4-3.4c1.2-0.5,2.2-1,3.6-1.6
		C403.5,437.2,402.5,436.9,401.4,436.5z M469.8,695.6c-1,1-1.1,1-0.9,2c1.3,6.9,0.5,13.4,0.4,20.3
		C472.1,710.7,472.3,698.9,469.8,695.6z M238.3,698.7c2.4,6.9,0.7,12.2-0.6,19.5C240.5,714.1,244.7,700.3,238.3,698.7z M175.8,677.7
		c-0.2-0.1-0.5-0.1-0.7-0.2c-3.8,5.2-6.2,11.3-10,16.5C169.3,690.5,175.6,683.1,175.8,677.7z M215.2,710.6
		c-3.1,6.6,8.3,12.9,13.5,11.3C222.5,720.3,217.8,717.1,215.2,710.6z M495.8,718.6c-0.1-0.6,0-0.9-0.1-0.9
		c-5.3-4-7.9-10.2-11.8-15.2C481.1,706,492,716.5,495.8,718.6z M210.3,718.3c-5.2-4.6-10.1-9.1-12.8-15.7
		C196,709.8,204.5,715.3,210.3,718.3z M527.3,704c-3.2-6.4-12.2-10.7-16.2-7.6C517.8,697,522.2,699.7,527.3,704z M496.1,707.6
		c-0.7,5.6,7.9,9.4,12.8,9.6C503.4,714.5,500.3,712.2,496.1,707.6z M505.1,709c-1.2,5.9,10.5,6.7,13.7,5
		C513.8,713.9,509.4,712.1,505.1,709z M463.5,700.1c0.3,4.6-0.1,8.7-1.5,13C464.1,710.7,468.3,701,463.5,700.1z M450.3,697.4
		c0.2-2.3,0.4-4.2,0.4-6.1c-0.1-1.9,1.6-3.8,0.3-5.9C448.8,687.4,448.5,692.5,450.3,697.4z"/>
	<path class="st0" d="M126.6,223.7c2,3,4,6,5.9,9c0.3-0.1,0.5-0.1,0.8-0.2c1.5-43,15.7-87.3,50.4-115c8.7-6.3,16-15.5,27.6-14.9
		c-4,5.7-6.1,11.1-6.7,18c-12.5,1.1-25.6,8.5-31.2,20.1c11.2-3.9,23.7-11.7,35.4-6.3c3.3,5.2,7.9,8.7,12.5,12.6
		c3.3-4.8,3.3-11.2,7.7-15.6c26.7,38.8,10.6-1.5,28.7-5.2c2.2,8,2.3,18.4,10,23.4c3.6-8.2,3.4-28.1,17-24c7,3.7,12.2,10.1,20.5,11.2
		c23.7,12.8,37.9,38.1,44.7,63.6c2.2-3.6,3.4-7.2,3.6-11.1c0.2,0,0.4,0,0.6,0c10.3,33.4-6.3,66.1-22.5,94.6
		c-11.4,20.6-27.6,38.4-51.2,44.2c-23.5,6.2-48.9,8.4-72.8,3.6c-41.6-18.6-88.2-57.5-81.6-107.7
		C126.3,223.9,126.5,223.8,126.6,223.7z M184.2,237.4c-0.8,6.7,2.1,12.3,2.4,18.3c-5.4,24.4,0,38.5,23.7,48.3
		c26.1,8.5,30.1-0.3,48-16.7c4.4-2.6,9.9-2.5,13.6-7c0.5,1.3,1,2.3,1.5,3.5c1.5-3.3-1.3-8.4-5.1-7c-0.3,1.9,1.7,1.5,2.2,2.5
		c-15.5,10.7-32-5.5-45.8-12.1c-19.3-12.6-35.6-1.7-39.5-30.2c1.6,0.3,2.8,0.5,4.1,0.7c-1.9-4.4-7.2-2.4-9.1,1.3
		C181.7,238.3,182.8,237.9,184.2,237.4z M334.3,268.1c-2.3-2.9-4.9-4.3-7.6-5.4c36.7-55.9-50.3-89.6-58.6-18.4
		c17.9,7.7,35.1,17,53.6,23.2c0.6,1.7,1.3,3.3,1.9,4.9c0.2,0,0.3-0.1,0.5-0.1c-0.1-1.7-0.3-3.4-0.4-5.8c1.5,1.9,2.6,3.4,3.9,5.1
		c0.3-2.7-1.5-4.5-2.3-6.8C328,265.8,330.8,266.8,334.3,268.1z M208,215.8c45.7-58.8-38.6-93.4-53.7-31.9c-2.9-1-5.5-2.5-9-1.9
		c2.9,1.7,6,2.4,8.4,4.9c-4.7,0.6-5,0.7-6.4,2.3c1.8-0.1,3.7-0.3,5.6-0.4c-1.4,1.4-3.1,2.1-4,4c1.9-0.7,3.6-1.4,4.5-1.8
		C171.6,200.1,189.6,208,208,215.8z M342.3,219.7c0.2,0,0.5-0.1,0.7-0.1c2.2-18.3-6.3-38.5-24.6-44.7c-2.5-1-3.7-0.7-5.5,1.3
		c-2,2.5-6.1,9-1.5,10.7C327.8,191.4,335.8,205.3,342.3,219.7z M269.2,255.3c0.1-0.1,0.3-0.2,0.4-0.4
		c-13.7-23.2-47.2-35.5-72.8-26.9C225.1,226.9,249.5,234.3,269.2,255.3z M221,161.4c-6.8-21.3-28.7-23.8-42.8-15
		C197,141.1,210.2,144.2,221,161.4z M333.5,218.3c1-17.3-20.1-25.5-34.2-19.8C316.6,198.9,327,200.2,333.5,218.3z M254.2,267
		c7.9-0.2-2.2-10.2-4.4-4.7C248.3,265.2,252.8,266.3,254.2,267z M206.5,241c-8.6,0.1-0.7,8.1,3.5,4.4
		C211.6,242.8,209.3,240.5,206.5,241z"/>
	<path class="st0" d="M131.9,665.4c0.9,4.2,13.4,17.1,7.5,19.1c-10,1.6-19.1-5.1-22.7-14.1c-0.2,0.1-0.4,0.2-0.6,0.2
		c1.8,6.8,10,26.2-3.6,23.7c-11.3-1.5-18.8-9.6-25.9-17.8c2,5.8,5.8,10.2,10.5,14c-9.2,17-25.9-7.2-33.7-14.5
		c2.2,6.1,6.4,10.8,10.8,15.3c-9.6,11.4-21.5-19-23.9-26.2c-0.2,0-0.4,0.1-0.7,0.1c1,7,2.9,20.6-3.3,25.1
		c-11.3-24.7,15.3-140.6,27.5-169.2c9.7-29.6,43.6-33.1,68.6-43.6c0-0.2-0.1-0.4-0.1-0.6c-1.4,0.1-2.8,0.3-4.4,0.4
		c1.4-4.8,2.7-9.5,4.2-14.6c5.9,22.9,18.7,41.2,34.9,57.6c-17.3,10.3-38.4,12.9-53.9,26.4c0.6-4.1,1.2-8,1.8-11.9
		c-0.2-0.1-0.3-0.1-0.5-0.2c-13.9,33.2-0.4,70.6,12.2,102.2c2.3,5,5.7,9.7,1.8,15.2c-3-3.4-4.9-7.6-9-10c3,6.9,18.9,27.6,15.1,33.7
		c-6,1.6-7.6-8.3-12.2-10.9C132.3,665.1,132.1,665.2,131.9,665.4z M65.5,660.8c-0.4,0-0.7,0-1.1,0c-2.5,10.6,8.8,20.6,18,22.8
		C74.1,678.2,66.4,671.1,65.5,660.8z M91.6,661.8c-0.2,0.1-0.5,0.1-0.7,0.2c0.8,9.6,10.1,17.9,17.8,23
		C102,678.1,96.1,670.4,91.6,661.8z M126.9,668.6c0.2-0.2,0.4-0.3,0.6-0.5c-3.3-5.7-7-11.4-8.3-17.9c-0.3-1.1-0.6-2.3-2.5-2.2
		C116.5,655.9,122.3,662.6,126.9,668.6z M85.3,678.9c-4.6-2.6-8.5-6-11.4-10.5c-0.5-0.8-1.5-1.6-2.5-0.8
		C70.4,673.1,80.6,677.8,85.3,678.9z M49.6,662.8c4.4-4.9,6.1-16.3,3.1-20.3C51.2,649.5,52.2,655.8,49.6,662.8z M116.9,680.5
		c-4-3.8-9.5-6-13.4-10.1c-0.5-0.4-1.3-0.5-2-0.7C100,675.1,112.6,678.4,116.9,680.5z M120.6,640.4c-0.3,4.9,5.6,8.5,6.3,13.9
		C127.8,649.5,125.6,642.7,120.6,640.4z"/>
	<path class="st0" d="M283.9,592.9c1.3,1.7,2.6,3.3,3.9,4.9c0.2-0.2,0.5-0.4,0.7-0.6c-6.8-11.9-15.6-22.6-20.7-35.5
		c-1.4-4.9-6.3-9.2-4.6-14.6c28.1,1.6,55.1-4.1,81.8-13.2c-11.8,14.4-17.3,31.4-20.3,49.6c0.6-0.6,1-0.9,1.5-1.4
		c13.2,16.5-8.4,55.4-7.5,78.2c-1.8,6.7-1.4,41-6.5,41.6c-5.1-2.5-1-10.8-3.8-15.2c-2.1,43.7-13.3,47.1-34.5,8.1
		c-0.3,5,6.2,10,3.9,14.7c-8.3,10.9-17.4-6.7-21.8-13.1c-1.8-15.3-0.2-31.3-0.8-46.8c0.9-6.5-2.5-14.5,1.4-20.1
		C267.8,618.9,277,607.3,283.9,592.9z M287.1,691.8c-5.9,5.9,3.5,20.2,9.4,23.8C291.3,708.2,287.7,701.1,287.1,691.8z M290.6,686.4
		c-2,5.8,2.8,16.3,8.2,18.7C293.6,699.5,293.2,692.9,290.6,686.4z M270.3,704.2c-1.7-6-3.7-11.2-2.1-17.6
		C262.7,681.8,266.4,702.2,270.3,704.2z M263.4,695.2c-2.2-6.1,3.5-16.6,1.3-18.9C260.3,680.1,260.7,690.3,263.4,695.2z
		 M308.6,669.1c-4,2.4-3.9,7.8-0.1,12.1C307.2,676.9,307.2,673.4,308.6,669.1z"/>
	<path class="st0" d="M433.8,418.9c5.9-3.1,11.9-2.4,17.7-2.9c-15.5-6.4-30.3,4.9-40.4,15.9c-0.9-1.2-1.7-2.3-2.8-3.8
		c16.4-14.2,29.9-33.9,51.5-40.4c18.6-4.7,40,4.1,47.4,24.4c15.2,34.4,19.2,139.5,76.4,118.3c-24.2,27.4-69.1,19.3-90.2-7.9
		C466.8,495,467.7,438.1,433.8,418.9z"/>
	<path class="st0" d="M584.8,525.6c-40.1,21.4-53.8-38.7-61.2-66.6c-8-22.7-7.2-52.5-28.3-67.7c-33.8-24.3-68,9.8-87.7,36.1
		c-1.2-1.4-2.3-2.6-3.3-3.8c16.9-29.1,33-61.1,63.7-77.5c34.1-21,74,3.5,79.3,41.2c7.6,32-8.7,64.4-4.7,97
		C543.7,507,559.2,531.6,584.8,525.6z"/>
	<path class="st0" d="M262.7,44.2c-1.1,16.1,0.1,31.8,1.1,47.8c-10.5-4.8-20.5-4.7-29.4,3.1c-1.5,1.2-2.7,1.5-4.5,1.1
		c-8.7-3-12.3,4.2-19.4,2.9c8.8-5.8,18.7-9.2,28.5-12.9c-0.1-0.2-0.2-0.5-0.2-0.7c-63.7,14.7-109.8,80-106.4,144.7
		c-11.7-19.4-13.5-43.4-10.1-65.4c7.5-54.1,60-83.2,109.6-91.4c-11.9-0.5-23.5,3.1-34.8,6.5C211.1,52.1,231.7,40.9,262.7,44.2z
		 M234.7,79.5c-44.9,8.7-92.3,38.4-109.8,82.5c0.2,0.1,0.4,0.2,0.6,0.3C146.7,118.5,190.1,94.1,234.7,79.5z"/>
	<path class="st0" d="M266.5,145.1c-18.9-32.3,15.6-61,24.7-25.3c0.8-2.1,0.4-4.1,0-6.1c0.2-4.9,5.8-8.5,7.6-13.2
		c9.3-15.7,18-31.7,22.6-49.5c2.2-3.3,12.4,0,16.4-0.2c24.8,3.5,35,40.3,16.1,56.4c-4.7,2.3,2.3,1.9-5.4,6.3
		c-15.9,8.7-35.2,18.3-53.5,15.8c-17.9-15.6-24.8-2.8-27.9,15.6C266.9,145,266.7,145,266.5,145.1z"/>
	<path class="st0" d="M501.8,320.3c-2,0-3.7,0-5.4,0c0,0.2-0.1,0.4-0.1,0.5c35.3,6,61.9,31,54.9,68.6c-4.7-39.1-44.1-68-81.3-48.1
		c-32.3,16.2-52.6,48.8-66.4,81.1c-2.8-2.3-5.4-4.6-8.4-7.1c8.9-37.2,16.6-87.7,59.7-99C466.2,312.7,493.7,310.7,501.8,320.3z"/>
	<path class="st0" d="M352.5,179.8c-0.4,5.2-0.2,10-1.7,15.1c-4.6-22.9-18.1-41.7-35.8-56.5c8.7,0.6,17.3,1.2,26-0.3
		c-0.6-1.2-1.6-0.9-2.4-0.9c-12.1,0.4-24.2-1.2-35.9-4.2c0-0.3,0-0.5,0-0.8c18.9-2.6,39.9-6.6,52.3-22.6
		c15.6,13.7,19.5,32.7,6.1,49.5c-7.2-6.1-14.9-11-23.6-14.4c21.3,16.9,44,32.4,40.4,63.7c0.9,25.4-24.3,63.7-3.6,83.3
		c-27.3-9.1-23-32.6-16-54.8C361.9,218.1,362.8,196.7,352.5,179.8z"/>
	<path class="st0" d="M196,1.7c6.8,16.5,15.2,31.8,20.4,48.6c-10.2,8.3-17.5,18.8-22.7,30.9c-0.2-0.1-0.4-0.2-0.6-0.2
		c3-22.6,7.2-47.7-1.5-69.2c3,22.8,3.3,45.4-0.1,68.2c-1.2,4.9-17,9-22.1,12.6c-7.6-8.2-6.5-19.7-6.9-30.1
		c-4.5,10.4-2.6,23.1,5.7,31.2c-4,2.8-7.8,5.5-11.8,8.4C130.9,65.3,165.7,22.8,196,1.7z"/>
	<path class="st0" d="M128.3,365.6c8.7,7,9.3,17.8,12.8,27.7c-1.5,16.3-3.9,32.6-2.1,49.1c2.7,9.3-12.2,10.9-18.7,11
		c1.9,2.4,4.7,1,7.4,1.6c-4.5,10-12.5,14.1-22.7,15.5c1,0.2,1.9,0.4,3.2,0.6c-7.5,17-32.7,19.2-36.5-1.2c8.2,1,16.6-5.3,15.2-14.1
		c-0.8,7.3-7.7,13.7-15.2,11.7c-1.2-12.3,9.1-22.4,22.5-21.8c0.2,4.6-1.6,8.9-1.6,13.6c8.9-11.4-3.2-35.1,14.7-38.8
		c1.2,3.6,2.5,7.2,3.7,10.8c0.2,0,0.4-0.1,0.7-0.1c-2.2-13.1-5.8-26.8,8.4-34.2c4.6,10.3,6.4,20.8,8.4,31.3
		C133.1,406.8,107.1,382.5,128.3,365.6z M114,455.9c10.4-6.7,14.8-31,8.1-41.4C124.1,429.2,121.4,443.1,114,455.9z M95.4,474.3
		c6.9-2.5,19.9-26.3,16.4-32.3c-1.4-0.4-1.6,1.1-1.9,2.1C107.7,455.5,103.3,465.7,95.4,474.3z"/>
	<path class="st0" d="M380,220.9c0.5-4.3,1-8.4,1.5-12.8c10.2,0.1,19.7-2.3,27.7-9.3c-9.1,2.7-17.3,7.1-27,7.4
		c-0.5-10.9-2.6-20.3-6.9-30.4c19.4-4.7,38.4,1.1,56.3,8.5C421,173.9,392.9,168,373.9,174c-3.5-4.3-7-8.7-10.8-13.3
		c1.4-1.5,2.6-4.4,5.1-4.8c29.1-7.4,59.6,1.7,78.6,25.5C432.9,204.7,406.6,218,380,220.9z"/>
	<path class="st0" d="M290.6,110.7c-4.1-8-10.2-10.9-18.2-8.9c-2.5-3.7-6.9-6.3-7.3-10.8c-0.1-13.3-0.2-26.6-0.8-39.8
		c-0.1-7.6-0.1-7.6,5.8-12.3c8-7.3,19.3-13.8,30.2-9.3c8.2,3.3,14.7,8.6,18.8,16.7c2.8,6-3,12.4-4.7,18.1
		C306.3,79.9,299.6,95.8,290.6,110.7z"/>
	<path class="st0" d="M118.6,195c1.9,14.3,9.2,27.6,2.2,41.5c-20.3,39.1-15.5,87,8.3,123.1C63.2,322.4,86.3,247.7,118.6,195z"/>
	<path class="st0" d="M393.7,414.4c-2.2-1.2-3.9-2.2-5.8-3.3c-3.9-37.3-20.6-83.9,33.2-89.7c-1,2.3-1.8,4.1-2.7,5.9
		c0.2,0.1,0.4,0.2,0.6,0.4c15.9-26.9,56.2-34.7,79.2-12.4c-20.9-9.5-45.2-5-64.1,7.2C404.4,342.6,399.6,381.7,393.7,414.4z"/>
	<path class="st0" d="M39.9,383.8c-3.1,5.6-4.7,11.6-4.3,18.1c2.9-8,2.6-10.1,10.8-14.4c0.2,0.2,0.3,0.3,0.5,0.5
		c-33.4,57.4,17.8,41,15.3,81.4c-57.3,11.1-61.7-60.3-23-86C39.4,383.5,39.7,383.7,39.9,383.8z"/>
	<path class="st0" d="M156.4,725.6c2.2-2.6,4.1-4.9,6.1-7.4c4.5,14.4,14.6,6.6,17.9-3.8c4.9,10.3,11.6,23.2,23.4,25.9
		c4.8,0.3,7.1-3.5,6.6-8.1c7,8.7,28.6,23.8,25.1,1.5c2.3,1.3,4.5,2.5,7,3.9c-8.4,20.8-41,20.3-60.1,19.8
		C159.7,755.9,147.2,750,156.4,725.6z"/>
	<path class="st0" d="M249.4,366.9c-0.4-2.1-0.8-4-1.3-6.3c25.5-3.1,46.2-20.2,58.9-41.6c20.7-15.5,31.2-40.4,42.8-62.6
		C351.7,311.6,304,361.3,249.4,366.9z"/>
	<path class="st0" d="M148.4,367.3c-3.3-1.6-7.8-1.3-9.5-4.7c-12.2-25.9-12.6-55.6-0.9-81.6c28.4,30.1,7.9,14.7,14.6,54.3
		C158.4,351.2,153.6,352,148.4,367.3z"/>
	<path class="st0" d="M136.8,279.1c-13.9,28-12.9,55.8-0.2,83.8c-29.9-30.7-33.5-84.8-14.8-122.9
		C122.9,254.6,128.9,267.3,136.8,279.1z"/>
	<path class="st0" d="M243.5,144.7c-37.5-30.8,4.2-75,27-42.3c-9.1,4.3-11.8,12.4-12.7,21.8C247.4,125.7,246,136.3,243.5,144.7z"/>
	<path class="st0" d="M20.7,399.5c-22.1,33.3-3.6,84.4,41.7,70.9c0.5,1.8,0.9,3.6,1.4,5.5C10.4,499.3-18.4,436,20.7,399.5z"/>
	<path class="st0" d="M262,556.5c4.8,12.8,10.9,24.7,20.1,34.6c-7.4,13.4-17,24.9-27,36.6C253,603.7,260.4,580.4,262,556.5z"/>
	<path class="st0" d="M98.7,691.5c5.7,3.4,11.3,5.7,18.4,5.4c-17.7,9.9-38.9,17.7-59.5,14.2c-6.9,0.5-4.2-26.5-4.6-32.1
		c3.2,6.9,15.6,25.9,22.4,13.5C82.5,698,95.1,703.4,98.7,691.5z"/>
	<path class="st0" d="M459.7,734.1c1.2-1.8,2.3-3.4,3.4-5.1c5.5,10.7,14.1,7.5,14.1-4c3.8,5.2,8,9.5,14.2,11.8
		c8.7,3.5,20.5-0.6,14.1-11.5c7.9,1.7,15.5,1.4,23.6-0.2C515.8,748.7,474.9,762.8,459.7,734.1z"/>
	<path class="st0" d="M247.9,358.5c-0.9-7.1-0.7-14.1-0.9-21.5c18.9-1.6,37.3-4.5,54.1-13.8C288.5,342.4,271,354.4,247.9,358.5z"/>
	<path class="st0" d="M63.5,458.1c-8.3-30.4-40.9-17.9-16.9-65.7C40,417.3,74.7,434.1,63.5,458.1z"/>
	<path class="st0" d="M220.4,144.5c-8.6-9-16.3-22.5-9.6-34.4c3.8-6.8,11-14.2,19.4-10.9c-6.2,9.3-5.8,19.1-2.2,29.2
		C222.6,132.4,221.7,138.4,220.4,144.5z"/>
	<path class="st0" d="M279.6,710.2c3.6,4.3,7.1,8.5,10.7,12.9c-12.9,3.6-27,5.2-40.4,5.5c-0.7-4.9-1.4-9.5-2-14.1
		c7.5-0.1,7.1-7.6,7.6-13.4C260.4,708.5,272.7,724.2,279.6,710.2z"/>
	<path class="st0" d="M155.7,301.6c4.4,3.8,8.7,7.5,13.1,11.3c-2.1,10.9-7,21-11.4,31.5C153.4,335.8,152.6,313.6,155.7,301.6z"/>
	<path class="st0" d="M73.6,480.8c-10.6-0.1-12.6-27-1.3-26.1C68.1,463.4,67.7,472.7,73.6,480.8z"/>
	<path class="st0" d="M141.8,389.8c-1.7-5.3-3.3-10.6-5-16.1c2.9,0.7,5.8,1.4,8.9,2.1c-1.2,4.7-2.3,9.3-3.4,13.9
		C142.2,389.8,142,389.8,141.8,389.8z"/>
	<path class="st0" d="M121.5,694.3c1.6-4.4,0.7-8.7,0.1-13.1c3.7,2.1,7.1,4,10.9,6.1C129.2,690.1,125.5,692.3,121.5,694.3z"/>
	<path class="st0" d="M147.9,369.2c-0.5,1.5-1,3-1.5,4.6c-6.4-0.8-11.4-3.5-15.3-8.9C136.8,366.3,142.2,367.7,147.9,369.2z"/>
	<path d="M234.7,79.5c-44.5,14.6-88,39-109.2,82.8c-0.2-0.1-0.4-0.2-0.6-0.3C142.4,117.9,189.8,88.2,234.7,79.5z"/>
	<path d="M114,455.9c7.5-12.8,10.1-26.7,8.1-41.4C128.8,424.9,124.4,449.2,114,455.9z"/>
	<path d="M95.4,474.3c7.8-8.7,12.3-18.9,14.5-30.2c0.3-1,0.5-2.5,1.9-2.1C115.2,448.3,102.5,471.7,95.4,474.3z"/>
	<path class="st0" d="M372.2,442.5c-11.2,8.3-24-8.2-17.7-18.3C352.7,434.9,363.7,439.6,372.2,442.5z"/>
	<path class="st0" d="M352.1,427.4c-0.5,11.9,5,17.9,16.3,18.3C359,452,345.7,438.1,352.1,427.4z"/>
	<path class="st0" d="M373,444.7c-0.1,2.3-1.4,3.3-5.9,4.7c-6.3,2-10.9,0.3-15.2-5.7C358.2,448.5,366.4,449.9,373,444.7z"/>
	<path class="st0" d="M351,446.1c0.1-0.2,0.3-0.5,0.5-1c4.9,6.4,12.8,7.4,20,3.5C365.3,454.2,355.8,451.5,351,446.1z"/>
	<path class="st0" d="M190.4,286.8c16.3-5,33.6,2.2,40.2,17.7C214.7,305.1,200.9,299.1,190.4,286.8z"/>
	<path class="st0" d="M247.6,283.9c-6.5,3.2-12.4-1.4-18.3-3.4c-6.8-4.7-30.8-10.2-30.3-18.7C217.3,263.5,231.4,276.2,247.6,283.9z"
		/>
	<path class="st0" d="M318.7,263.8c-1.9-1-3.3-1.7-4.9-2.6c31.3-42.9-30.3-69.9-38.9-16.7c-5.3-1.4-5.9-1.7-4.2-7
		C287.6,175,355.9,216.2,318.7,263.8z"/>
	<path class="st0" d="M282.6,248.6c-2-0.9-3.6-1.6-5.1-2.3c-2.5-19.6,27-43.1,39.9-19.2c5,10,2.3,25-6.2,32.9
		c-1.6-0.5-3.2-1.1-4.8-1.9c5.4-5.9,6.8-8.4,7.5-12.8c-11.3,2.9-12.2-12.5-2.3-16C299.6,213.6,279.7,233.2,282.6,248.6z"/>
	<path class="st0" d="M294,250.7c-1.3,0.4-2.3,0.7-4,1.2c0.8-1.5,1.2-2.3,1.7-3.2c-0.5-0.8-1-1.7-1.9-3.1c1.6,0.2,2.6,0.4,3.8,0.6
		c0.6-0.9,1.2-1.9,1.9-2.9c0.2,0,0.4,0.1,0.6,0.1c0.2,0.9,0.4,1.8,0.6,2.7c0.8,0.3,1.6,0.6,3.1,1.2c-2.6,1.1-3.1,3.1-3.4,5.8
		C295.3,252,294.7,251.4,294,250.7z"/>
	<path class="st0" d="M207.5,213.4c-1.2-0.5-2.2-0.8-3.4-1.2c31.1-41.2-26.3-70.9-38.7-18.8c-1.8-0.7-3.8-1.5-6.1-2.3
		C171,127.5,249.4,158.4,207.5,213.4z"/>
	<path class="st0" d="M168,194.7c8.8-50.1,64.7-21.8,33.7,16.1c-1.4-0.6-2.9-1.3-4.9-2.1c4-3.6,7-7.6,8.2-13
		c-11.6,3.1-12-13.2-2.4-15.9c-12-15.8-29.8,2.4-29.7,17.4C171.4,196.5,169.8,195.7,168,194.7z"/>
	<path class="st0" d="M180.4,199.2c0.5-0.7,0.9-1.5,1.4-2.2c-0.6-0.8-1.1-1.6-1.7-2.5c0.1-0.2,0.3-0.4,0.4-0.6c1,0.2,2,0.3,3.2,0.5
		c0.6-0.9,1.3-1.8,2.4-3.4c0.4,1.7,0.5,2.6,0.7,3.5c0.8,0.2,1.5,0.5,2.9,0.9c-1.2,0.9-1.9,1.6-2.7,2.2c-0.2,1.1-0.4,2.2-0.6,3.2
		c-0.3,0.1-0.6,0.3-0.9,0.4c-0.5-0.7-1-1.4-1.5-2.2c-1.1,0.2-2.3,0.5-3.5,0.8C180.5,199.6,180.5,199.4,180.4,199.2z"/>
</g>
</svg>
