<?xml version="1.0" encoding="utf-8"?>
<!-- Generator: Adobe Illustrator 26.0.0, SVG Export Plug-In . SVG Version: 6.00 Build 0)  -->
<svg version="1.1" id="Capa_1" xmlns="http://www.w3.org/2000/svg" xmlns:xlink="http://www.w3.org/1999/xlink" x="0px" y="0px"
	 viewBox="0 0 595.3 737.7" style="enable-background:new 0 0 595.3 737.7;" xml:space="preserve">
<style type="text/css">
	.st0{fill:#FFFFFF;}
</style>
<g>
	<path d="M261,685.5c-6.4,1.3-10.4-5.2-14.9-8.9c-13.3,11.5-27-54.2-30.1-63.1c-13-45.5-7.6-54.3,13-94.7
		c-16.2-10.5-15.9-9.9-30.5-28.3c-4.6,8-8.9,16.5-17.1,21.4c4.8,8.8,8.1,27-3.1,31.7c2.7,10.9-3.4,10.6-8.3,17.8
		c-3.8,8-9.9,13.9-17.7,18c-9.9,4.8-24.7,8.1-33.5-0.2c-6-2.4-9.2-5-9-12c-10,4.7-11.5-8.3-11.1-15.3c-15.6-3.5-3.4-79.9-2.1-94.9
		c3.2-19.1,2.7-47.8,29.6-45.6c21.3,3.2,25.1,31.2,32.9,47.6c11.6-6,28.2-25.8,29.2-38.9c-18.8-14.5-39.6-24.2-61.1-33.6
		c-21.3-9.4-44-18.1-57.5-38.3C50.9,317.3,44.8,280.1,28,248.1C20.3,231.3,11.5,215,0.7,200c-3.1-14.6,23.6,4.9,26.5,9.1
		c12.3-15.3,26.5,9.9,33.8,19c12.8-3.6,21,11.8,26.9,20.8c11.6-2.2,15.7,11.6,19.9,19.8c15,1.2,20.4,18.4,23.4,30.9
		c9-0.4,12.3,10.9,14.2,17.9c0.3,1.4,0.8,2.1,2.2,2.5c7.3,2.9,10.4,11.4,11.9,18.5c11.8,2.3,15.2,14.2,18.9,24
		c6.9,0.4,10.3,7.7,13.7,12.9c0,0,0.2-0.1,0.3-0.2c0-9,1.4-20-4.5-27.3c-12.9-10.4-24-22.4-34.1-35.5c-17.9-22.3-16-53.9-3.2-78.2
		c3.6-6.9,6.4-14.1,8.4-21.6c2.8-10.5,6.9-20.4,12.7-29.8c-45.3-38.2-0.9-97.3,28.3-131c8.9,9.3,14.5,20.7,17.2,33.5
		c18.6-42.1,60.5-71,103.2-85.2c-14.9,15.8-19,42.3-0.5,57.1c3.9-6.2,8.4-11.7,14.8-15.5c2-1.5,2.6-3,4.2-5.3
		c-13.8,38,8,40.3,17.7,72.4c6.2-6.2,13.6-9.4,23-9.1c-16.9,14.3,9.8,63.3-24.1,90.9c32.5-5.5,69.3-2.7,95.8,18.5
		c2.8,2.4,4,2.8,1.4,6.1c-19.8,28.3-57,62.3-93.8,45.8c-4.6,18.6-13.6,35.7-20.5,53.6c-10.5,30.2-36.6,48.8-68,51.7
		c3.8,25.1,10.3,41.1,33.5,53.7c1.2,0.8,2,0.4,2.9-0.3c10.8-7.4,21.3-15.4,31.5-23.6c28.7-24.3,65-34.4,99.8-46.5
		c30.7-10.9,62.3-22.4,87.3-44c12.6-10.7,23.1-23.7,35.4-34.6c17.4-5.1-8.7,39.1-13.2,42.9c25.3-0.5-3.7,27.2-11.9,32.9
		c28.7-0.6,14.2,20.4-1.6,28.5c21.9,8.4,0.5,24.8-13.6,27.1c10.9,13.8-10.9,22.9-22,24.3c-2.4,14-15.9,18.9-27.8,23.1
		c11.7,7,20.1,17.9,29.5,27.7c17.6,18.1,46.2,13.7,64.4-1.3c-0.8,6.2-4.3,10.9-7.4,16.2c18.7-9.1,30.8-23.4,34.7-44.1
		c9.5,26.6-2.3,57-18.1,78.9c7.4-4.2,13.9-9,20-14.4c-6,51.5-79.3,90.4-123,55.6c-26.4-18.9-31.2-54.2-52.9-76.5
		c3.2,20.9,8.4,41.6,16.4,61.1c10.5-3.4,14.5,7.5,17.2,15.5c6.6,18.4,11.9,37.4,20.1,55.1c8.8-6.9,13,6.7,14.4,13.5
		c14,1.4,10.5,19.3,8.2,29c5.4,2.9,9.1,9.3,6.4,17.1c-1,3.7-4.5,6.3-5.1,10.1c-0.8,32.2-38.7,63.1-62.3,29.5
		c-4.1-4.3-6.2-9.8-7.2-15.6c-1.4-5.5-8.3-6.8-8.5-14c-2-39.6,0.7-79.7-5.6-119c-9.3-6.1-18.5-12.1-28-18.3
		c-0.9,14.9-0.1,29.6,3.4,44.2c9.6-11.6,17.2,3.2,16.2,13c10.3,0.7,7.8,15.1,4.5,21.6c8.1,5.4-0.6,20.6-7.4,24.1
		c1.7,6.6-1.6,11.9-7,15.4c-1.8,1-3.8,1.4-4.4,3.7c-7.6,20.6-34,25.8-44,4c-6.8-0.3-8.9-5.2-9.9-11.1c-23.1-12.3,6.5-87,10.9-108.4
		c-16.1-5-29-13.8-36.4-29.3c-12,0-24.1,0-36.5,0c-3.3,13.8-9.8,28.1,2.1,39.7c5.1-20.8,24.4,5.2,27.2,14.8
		c10.1-3.7,15.5,9.8,16.3,17.8c0.8,4.2-0.4,8.9,1.3,12.8c5.1,5.1,5.7,12.3,0.6,18.7c-3.7,5.9,1.7,12.1-5.5,18.2
		C306.9,679,287.8,705,261,685.5z"/>
	<path class="st0" d="M304.1,606.4c0.7-5.6-0.1-11.1-1.4-16.6c13.4-1.3,13.5,17.5,14.8,26.9c-2.7-0.2-5.1-1-7.7,0.5
		c9-0.6,14.5,8.8,10,16.4c-3.7,6.6-10,10.2-16.4,13.9c3.2,0.3,5.6-0.8,13.1-6c2.9,16.4-16.8,19.2-28.8,21c2.6,1.1,4.9,0.4,7,0.6
		c1.6,10.2-13.4,10.6-20.3,8.7c-8.3-1.7-11.2-9.5-15.6-15.8c0.3,3.8,2.8,7.5,4.2,11.1c2.4,32.6-17.5,8.2-22.3-6.9
		c-0.6,5.3,3.2,10,3.8,14.8c-7.3,4-17.3-31.4-19.1-37.2c-5.3-22-13.7-43.8-13.8-66.6c0.6-20.4,14.8-37.4,22.4-55.9
		c8.5-17.9,19.8-35.6,23.6-55.2c-8.9,19.3-17.7,38.4-27.7,57.3c-65.2-40.9-27.1-106.4-37.4-166c22.1,16.1,50,17.1,76.2,15.3
		c0.6,23.3,11.9,46.7,35,54.9c-4.3,3.4-8.7,4.8-13.5,7.2c4,4.8,10,8.1,12.4,14.4c2.2,3.2,2.2,9.1,5.6,11
		c21.3,0.7,39.2,27.2,60.9,15.7c2.5,1.3,5.2,2.8,8.1,4.4c0,2.7,0,5.6,0,8.8c4.1,0.8,8.3,1.7,12.6,2.6c-2,8.4-3.9,16.5-5.9,24.7
		c0.2,0.1,0.4,0.2,0.6,0.3c7.4-10.8,14.8-21.5,22.6-32.7c-3.3-0.2-6.1-0.4-9-0.6c0-0.2,0-0.4-0.1-0.6c5.2-1.5,9.7-3.2,14.5-5.9
		c4.5,28.4,7.9,69.1,26.7,91.4c-1.2-2.4-2.4-4.8-3.8-7.6c13.3-1,15.8,29.4,21,39.1c5,12.8,9.3,26.8,17.7,37.7
		c-0.5-1.7-1-3.4-1.5-5.3c10.5-9,11.6,19,12.4,24.3c1.7-3.3,1.4-6.9,1.4-10.4c11.1,0.8,7.5,18.1,6.3,25.8c-0.9-0.1-1.9-0.1-2.8-0.2
		c0,0.1-0.1,0.2-0.1,0.4c20.7,10.8,3.7,29-11.6,34.1c4.9,0.5,8.9-2.5,13.2-4.4c4.1,6.3-4.6,12.2-9.5,14.7
		c-6.9,3.5-14.5,4.1-22.1,5.1c3.8,1.6,7.8,0.9,11.7,0.7c-2.7,12-20.3,12.2-26.1,2.1c-0.2,0.2-0.3,0.3-0.5,0.5c0.7,1.4,1.3,2.8,2,4.1
		c-15.1,9.5-19.1-18.8-21.4-28.4c-0.7,2.3-0.4,4.6-0.4,7.2c-6.2-4.9-5.1-14.1-5.4-21.2c-0.8-35.3,1.3-70.8-5.8-105.6
		c1.5,0.5,2.7,1,3.9,1.4c0.1-0.1,0.2-0.2,0.3-0.3c-33.7-22.2-65.1-47-91.3-77.9c5.8,10.5,13.5,19.4,22.4,28
		c-25.1,4.4-49.8,4.9-74.9,4.7c5-22.7,14.2-44.8,15.4-68c-6.7,30.5-16.5,60.4-23.6,90.8c-2.2,9.4,8.2,24.2,15.4,29.5
		c-2-4.4-6.4-7.3-3.6-12.2c2.2-5.7,8.9-2.6,11.8,0.8c9.5,9.2,12.4,22,14.3,34.6C303.7,606.6,303.9,606.5,304.1,606.4z M468.8,701.9
		c-7.6-1.2-13.3-5.6-18.7-10.7C452.7,696.8,462.7,705.9,468.8,701.9z M282.9,663.1c-0.2-1.1-0.7-1-1.5-1.3
		c-6.5-0.9-11.6-4.8-16.7-8.7C269,658.8,275.5,663.8,282.9,663.1z M480.9,663.9c-6.6,3-10.2,6-17.9,4.6
		C468.2,672,478,669.8,480.9,663.9z M297.9,632.7c-8.1,0.6-14.6-0.3-22-2.9C279.1,633.1,294.3,636.4,297.9,632.7z M250.2,650.9
		c2.1,5.1,3.1,10.8,1.5,16.2c-0.2,0.9-0.5,1.7,0.8,2.3C256,663.7,254.2,656.1,250.2,650.9z M243.3,645.1c1.6,5.8,1.1,11.4,1.3,17.2
		C247.5,659.8,247,651.6,243.3,645.1z M452.7,687.2c1.9,3,16.4,8.7,16.7,3.5C463.6,691.1,457.9,690,452.7,687.2z M465.3,662.3
		c3.5,2.6,14.7,1,14.3-4.3c-0.1-0.1-0.6-0.2-0.7-0.1C475.4,661.9,470.3,662.4,465.3,662.3z M437.3,687.3c-0.9,5.4-1.8,10.8-2.7,16.2
		c0.2,0,0.4,0.1,0.7,0.1C438.1,698.5,438,693,437.3,687.3z M287.5,610.9c2.3-2-6.5-13.2-8.1-13.4C282,601.7,284.7,606.2,287.5,610.9
		z M290.5,609.5c-0.1-4.8-2.6-9-5.8-12.3C286.7,601.1,287,607,290.5,609.5z M431.7,698.1c3.6-3.9,2.1-11.9,1.3-17.1
		C432.5,686.9,432.1,692.4,431.7,698.1z M300.6,627.6c-5,0.8-9.9,0.9-14.7-0.5C291.1,630,298.1,630.4,300.6,627.6z M429.9,674.5
		c-1.4,3.2-2.8,5.9-4.1,8.8C428,687.5,430.2,676.6,429.9,674.5z M278.3,655.4c3.5,2.2,10.6,1.8,12.3-0.7
		C286.4,655.2,282.4,656.6,278.3,655.4z M475.6,647.6c-2.6,1.4-5.2,1.2-7.7-0.1C470.4,650.6,474.2,650.7,475.6,647.6z"/>
	<path class="st0" d="M220.4,149.6c11.5,19.4,23.9,38,43.7,49.5c4.9,2.2,16.8-5.8,23-6.7c15.9-5,33.4-6.8,49.5-1.3
		c14.9,4.3,14.7,23,18.5,35.5c8,34.3-7.1,52.9-18.6,83c-10.4,32.4-37,52.5-70.9,54.1c-21.2,1-44.7,3.6-63.2-9.1
		c-27.9-20.7-62.4-49-58.6-87.4c1-20.1,13.9-36.4,18.6-55.5C169.6,183.2,191.4,157.1,220.4,149.6z M219,273.3
		c1.2-6.3,1.3-13.4,2.8-19.6c0.8-1.6,0.4-2.5-0.5-3.5c-5.8-7.4-13.7-12.6-20.6-18.7c-10.7-10.2-29.1-6.1-37.5-19.1
		c-0.2,0.1-0.4,0.2-0.6,0.2c-0.2,5,1.8,9.7,3,14.9c-1.7-0.8-2.2-1-3.9-1.8C166.2,252.8,193.9,268.8,219,273.3z M341.3,276.9
		c-0.2-0.2-0.3-0.4-0.5-0.6c-12.5,10.2-24.8,1-37.8-2.7c-10.8-1.4-21.7-1.3-32.6-1.1c-1.5,0-3.1,0.1-3.2,2.3
		c-4.1,5.8-9.1,11.1-12.9,17.2c24.1,10.9,57.1,16.7,78.8-1.9c-1.2-0.4-2-0.6-3.1-1C334.4,285.3,338.7,281.9,341.3,276.9z
		 M267.5,322.8c-17.6,6.5-34.1-6.9-50.7-11.4c-11.2-4.8-24.8-9.8-30.2-21.7c1.6,0,2.9,0,4.5,0c-2.8-2.7-7.7-2.1-11.8,1.4
		c2.2-0.5,4-0.9,5.9-1.3c2.2,11.5,6.6,4.8,7.7,22.8c3.7,28.6,48.8,39.9,64.3,15.4c4.5-1.4,8.5-2.5,12.8-3.8c0.9,0.8,2.1,1.7,3.5,3
		c-1.9-4.9-6.3-7.9-9.5-6.7C264.7,321.8,266.6,321.3,267.5,322.8z M265.8,246.7c-0.2,0.2-0.3,0.4-0.5,0.6c2.8,5,4.6,12.2,9.7,15.2
		c11.1,2.3,22.6,2.2,33.8,3.9c9.8-0.4,13.4,7,21.6,11.8c0.2-0.1,0.3-0.3,0.5-0.4c-5.1-9.2-10.6-21.4-22.7-21.6
		C293.9,253.9,277.8,256,265.8,246.7z M173.1,204.5c0.1,0.2,0.3,0.4,0.4,0.6c6.8-2,15.4-11.5,22.3-8.9c11.3,5.6,21,14,31.6,20.7
		c2.2-3.2,5.8-10.9,2.4-13.8c-9.5-5.9-20.1-10.2-29.9-15.4C192.1,183.8,178.5,199.3,173.1,204.5z M262.5,306.4
		c0.1-0.1,0.2-0.2,0.4-0.3c-11-21.8-39.2-28-61.7-27.6C224,283.1,247.6,285.4,262.5,306.4z M247.3,309.1c0.3,0.9,0.8,3.5,2.5,3.7
		c1.6-0.6,1.3-3.3,1.2-4.7C250.4,305,247,305.7,247.3,309.1z M203.2,293.1c2.2,1.6,5.8,1,5.7-1.9C208,288.5,203.5,290.9,203.2,293.1
		z"/>
	<path class="st0" d="M518.5,337.5c9.5-5.1,18-11.9,25.4-19.7c1-1.1,1.9-2,3.6-1.9c25.8,0.3-21.6,37.6-30.2,38.5
		c-3,1.6-6.7,2.1-9,4.7c9.2-1.1,16.9-7.1,25.2-9.8c16.8-1,21.5,6.6,7.8,17.9c-11.2,9.1-25.1,14.4-39,17.7
		c5.1-11.2-10.2-13-17.8-12.4c4.2-5,11.2-9.7,12.1-16.8c0.4-5.1-2.9-8.3-7.9-7.5c-12.5,2-26.5,5.2-35.5,14.6
		c29.6-17.7,65-19.5,21.4,15.1c5.5-2.3,11.1-4,17.1-3.2c5.2,0.1,13.8,4.7,7.9,10.2c-3.1,2.6-6.6,4.2-9.6,7
		c12.3-6.6,26-6.4,38.3-13.3c11.8-3,17,9.8,5.4,16.1c-15,9-33.3,8.8-50.2,10.2c0.4,1.1,1.3,0.9,2,0.9c10.9,1.1,21.5-0.3,32.1-2.4
		c6,5.1,2.1,12.9-3.7,16c-9.3,6-20.1,5.7-30.8,6.2c4.1,1.8,8.5,1.6,13.1,1.9c-6.5,18.4-28.5,21.5-45.6,22.8c2.7,1.5,5.3,0.8,8,1.5
		c-12.3,17.7-35,13.4-53.7,13.6c2.6,1.7,5.2,1.2,7.7,2.3c-16.4,11.1-32.1,8.1-47.5-2.2c-0.1,0.2-0.2,0.3-0.2,0.5
		c0.6,0.8,1.2,1.5,1.9,2.4c-19,9.1-39.1-15.7-59.1-14.8c-2.2-9.8-7.7-18.4-16.3-23.9c37.8-16.3,64.6-50.3,104.9-61.9
		c51.1-18.9,109-31.4,145.9-74.7c6.3-6.7,12.2-13.9,19-20c10.1-3.3-5,23.5-6.9,26.8c-8.8,15.4-22.1,27-36.2,37.4
		C518.4,337.1,518.5,337.3,518.5,337.5z M435.6,390.5c54-10.4,70.9,0.8,11.5,25.1c0.1,0.2,0.1,0.4,0.2,0.6
		c6.7-1.7,33.6-4.6,24.2,8.7c-9.9,8.7-22.3,13.2-34.5,17.4c4.3,0.4,8.2-1,12.4-2.3c-3.8,13-17.9,14.1-28.9,17.3
		c12.5,0.8,28.6-4.6,30.6-18.1c13.9-5.3,41.4-22.7,10.4-26.8c51.5-26.4,15.1-32.9-19.9-24.6c24.9-24.5-34.5-13.2-43.2-5.2
		C410.4,378.3,469.1,363.7,435.6,390.5z M394,409.6c7.5-3.6,17.7-16.3,4.7-19.7c-15.3-1.2-30.6,5.1-43.3,13.2
		c14-4.1,27.5-12.4,42.6-10.9c14.1,4.9-7.2,16-11.6,20.4c63-9.3,64,11.6,5.3,27.9c0.1,0.2,0.1,0.4,0.2,0.6c5.7-1.3,11.4-2.6,17.1-4
		c8.3,9.5-6.5,19-14.7,21.5c-5.5,1.7-11.2,1.8-16.9,2.3c12,5.4,45.6-9,33.2-24.5c9-3,38.5-16.3,20.7-26.1
		C419,407,406.7,408.7,394,409.6z M337.4,457.4c8.4,5.7,23.8-0.2,23.9-11c36.3-13.1,11.6-30-14-22.8c6.5-7.6,0.6-12.9-7.8-10.8
		c-9.4,1.9-17.4,6.4-24.6,12.5c0.1,0.2,0.3,0.3,0.4,0.5c7.4-4.2,14.6-9,23-10.9c17.2-3.4,7.9,7.9,0.7,14.1c36.2-16,59.3,11.2,9,16.8
		c3.8,1.2,7.6,1,11.3,0.6c0.1,0.2,0.2,0.3,0.2,0.3C358.3,457.1,345.8,458.7,337.4,457.4z"/>
	<path class="st0" d="M3.3,197.6c26,6.9,37.9,34.3,53.6,53.5c-6.8-14.8-17.8-27.6-28.1-40.2c7.6-13.3,22,7.5,27,14.2
		c7,10,12.8,20.6,16.1,32.5c0.6,2.3,1.3,4.6,3.2,6.5c-1-13-7.3-24.3-13.8-35.3c26.1,5.4,30.5,38.6,37.5,60c0.2,0,0.4-0.1,0.5-0.1
		c0-13.4-5.9-25.7-10.4-38.1c16.4,1.8,19.7,33.6,26.4,45.8c0.1-9-3.7-17-6.5-25.5c18,4.3,17.4,27.1,23.8,40.8
		c0.5-3.5-0.5-6.9-1-10.5c12.4,4.3,11,20.2,14.3,30.5c1-3.3,0.3-6.6,0.1-10c10.8,4.7,11.7,18.4,12.3,28.6
		c-4.1-5.8-10.4-13.8-17.3-6.6c-3.5-6.4-6.3-13.4-12.8-17.5c-0.7-0.5-1.2-1.5-1.5-2.4c-1.5-9.8-12.9-30.1-22.7-16.1
		c-2.7-5.5-4.6-11.5-8.9-15.9c-7.6-6.3-11.6,3.6-11.7,10.3c-3.1-5.7-18.4-32.5-23.3-16.9c-0.1,8.5,0.8,18.3,6.3,24.9
		c-2.2-6.8-11.1-39.7,4.6-23.1c6.8,8,11.8,17,14.4,27.2c0.9,2.2,0.8,5.2,2.7,6.7c-0.7-5.7-7.6-31.1,3.8-28.9
		c9.9,6.9,10.6,21.2,15.5,31.4c1.4-5.4-5-11.9-0.8-16.5c10.5-8,16.2,10.4,19.1,17.9c-8.7,0.5-7.8,10.4-7.6,16.9
		c-32.5-32-39.6,7.3-9.9,20.8c0.1-0.2,0.2-0.4,0.3-0.6c-33.2-23.9-14.3-51.3,18.2-6.9c-4.7-10.5-8.7-10.3-6.4-23.1
		c1.7-9.1,9.4-3.3,12.8,1.4c5.4,6.7,7,15.1,10.8,22.7c0.8-4.3-4.5-9-0.1-12.2c9.7-5.3,16.6,15.1,19.7,21.7c-5.2,1.3-5.6,2.3-3.8,8.9
		c-6-3-14.1-1.8-10.2,6.5c3.1,5.4,8.2,8.5,13.4,11.3c0.1-0.2,0.3-0.3,0.4-0.5c-3.3-2.5-20.1-15.2-9.7-17.1c5,0.3,8.4,5,13.2,5.9
		c-3.3-3.1-11.3-16.5-0.7-11.4c8.5,5.8,14.9,13.5,21.6,21.1c-0.7-2.5-2.8-9.3,2.2-7.2c5,0.3-1.3,28.6-1,34.2
		c-23.6-18.9-52.1-29.8-79.4-42.2c-42.9-15.9-50.4-59.9-65.1-97.8C34.1,249.1,19.4,222.4,3.3,197.6z M57.3,276.7
		c0.2-0.1,0.4-0.3,0.6-0.4c-3.3-8-12.1-30.8,5.1-17.2c9.2,8.4,14.5,19.7,21.7,29.6c0.2-0.1,0.3-0.2,0.5-0.3
		c-1.6-4.7-4.4-8.8-6.6-13.3c7.5-2.4,11.2,7.3,15,12c-1.5-7.3-7.5-17-16.2-13.6c-5.2-7.5-10.8-16.1-19.3-20.2
		C43.1,250.2,52.2,271,57.3,276.7z"/>
	<path class="st0" d="M146.9,553.7c2.5,2.4,5.6,3.8,9.1,5.1c-2.6,19-20.2,11.7-28.3,0.8c-0.2,0.1-0.3,0.2-0.5,0.3
		c0.5,2.1,2.1,3.7,0.5,5.7c-12,20.9-17.5,6.1-15.7-10c-0.2,0-0.4-0.1-0.5-0.1c-1.7,3.3,0,9.7-4.6,10.4c-1.6,0.3-3.3-0.3-4-1.9
		c-2.8-6.5-1.6-13.2-2-20.3c-1.8,1.9-1.2,4.1-2.2,6c-11.2-5.7-2.1-61.4-1.8-74.7c1.9-15.1,3.3-30.4,6.7-45.3
		c2.8-14.7,22.5-21.7,33.2-10.9c14.7,15.7,16.3,38.5,28.3,55.9c0.2-0.1,0.4-0.2,0.6-0.3c-1.9-4.4-3.8-8.7-5.7-13.2
		c12.6-5.9,20.1-18,26.9-29.6c0.2,18.5,0.3,37.6,9.3,54.4c0.7,8.5-9.2,18.8-15.5,24c-5.3,4-1.7-21.8-14.9-13.1
		c-5.7-13.5-11.3-26.9-16.9-40.4c-0.2,0.1-0.4,0.1-0.6,0.2c4.3,17.9,12.7,34.8,20.7,51.3c-0.2-3.1-1.6-5.8-2.3-8.7
		c10.3-8,8.7,17.8,9.5,22.8c1.6-2.9,1.4-6.3,2.2-9.8c5.7,8.3,8.1,23.5-0.9,30.1c-1.9-1.6-3.7-3.2-5.5-4.7c-0.2,0.1-0.3,0.3-0.5,0.4
		c16.2,19.5-11,24-24.5,15.1C147.1,553.4,147,553.5,146.9,553.7z M136.3,521.5c-1.7,10.2,11.4,21.4,19.9,20.1
		c-0.8-1.7-2.2-1.7-3.3-2.1C144.5,536.6,138.4,530.3,136.3,521.5z M118.5,549.4c5.6-2.9,5.1-18.4,3.2-23.9
		C121.8,534.1,120.8,541.2,118.5,549.4z M145,526.4c4,5.4,11.1,10.2,18,8.4c0-0.2,0-0.4,0-0.6C156.5,532.8,150.3,530.2,145,526.4z
		 M157.9,501c3.1,4.9,5.4,10.1,6.2,15.9c0.1,0.4,0.7,0.8,1.2,1.3C166.3,513.7,162.4,504.7,157.9,501z M105.1,519
		c0.2,6.4-2.1,11.8-5.2,17.5C104.6,533.7,107.5,523.8,105.1,519z M114.8,545.3c2.1-1.7,4.3-9.5,3.9-13.9
		C117.7,536.1,114.8,540.8,114.8,545.3z"/>
	<path class="st0" d="M394,660.7c1.4-0.3,2.9-0.5,4.5-0.8c0.8,15.8-19.1,17.1-30.6,17.9c0,0.2,0,0.4,0,0.6c2,0.3,4,0.7,5.9,1
		c-1.1,10.5-15.9,11.2-21.9,4.3c-2.2-2.4-4.1-4.9-6.1-7.4c-0.2,0.1-0.4,0.2-0.5,0.3c0.4,1.1,0.7,2.2,1.1,3.3
		c-12.8,2.3-9.2-17.3-10.2-25.3c-2.3,2.1-1.4,10.4-1.6,14.4c-15.9-19.2,10.7-82.2,12.7-106.3c3.4,0,6.8,0.8,10.1-0.4
		c-20-2-34.9-11.8-45.7-29.1c13.3-1,26.1-1.6,38.8-5.1c9.8,9.3,20.2,18.1,31.3,26.3c-2,18.9-0.3,39.3,7.2,56.8
		c-0.2-5.7-3.2-12.3,5.4-12.9c10.6,3.8,6.5,19.7,5.7,28.4c2.2-3.3,2.6-7,3.3-10.7c10.1,2,2.4,17.5,0.5,23.6c0.2,0.1,0.3,0.2,0.5,0.3
		c0.8-1,1.7-1.9,2.6-3c1.5,1.1,2,2.8,1.7,4.5c-1.1,8.9-6,15.7-14.6,19C393.9,660.3,393.9,660.5,394,660.7z M362.6,654.3
		c1.7,5.3,7.3,9,14.6,7.9c0.9-0.1,1.9-0.4,2.2-1.9C372.8,661.5,366.9,659.5,362.6,654.3z M384.3,644.3c-5.9,1.8-11.2,1.3-16.5-1.2
		C372,647.9,381,648.8,384.3,644.3z M341.2,641.4c0.6,4.4-0.9,8.3-2.2,12.4c-0.3,0.9-0.9,1.7,0,2.6
		C342.4,653.7,343.7,645.7,341.2,641.4z M345.3,655c0.4,5.5-0.3,10.6-1.6,15.9c0.2,0.1,0.4,0.2,0.6,0.3
		C347.8,666.8,346.9,660.3,345.3,655z M366.8,653.8c3,3,11.3,5.2,14.5,0.5C376,655.6,371.8,655.3,366.8,653.8z M375.6,640.2
		c5.1-0.6,12.4-2.8,13.6-8.3C384.8,635.8,380.9,638,375.6,640.2z M382.2,613.6c0.7,3.6,4.4,9.1,8,6.4
		C386.5,618.7,384.6,616.9,382.2,613.6z"/>
	<path class="st0" d="M308.4,8.4c-17.1,19.8-18.2,57.5-11.6,81.9c3.9,12.7,9.9,24.8,11.9,38c2.9,17.9-3.5,34.9-13.2,49.8
		c-6.2,10.9-16.7,15.8-28.2,20.1c-21.9-39.2-26.7-89.1-10-131.1C268,43,287.2,23.7,308.4,8.4z"/>
	<path class="st0" d="M415.3,475c-0.4-2.9-3.2-8.4,1.9-7.3c6.2-0.2,12.3-0.2,18.5-0.5c3.7,0.1,7.5-2.9,11.2-1.5
		c25.9,10.8,35.7,41.3,60.9,53.4c32.2,18.7,65-3.1,81.5-31.3c-4.7,15.9-11.5,33.1-23.4,44.6c10.1-2.6,18.1-8.6,26.2-15.7
		c-2.8,7.5-4.7,15.8-11.7,20.7c-11.9,9.9-24.4,19.4-40.2,21.4C478.9,570,470.5,480.4,415.3,475z"/>
	<path class="st0" d="M334.2,44.2c-4.8,14.4-0.9,28.6,8.1,40.3c7.9,10.2,11.5,22,15.4,34.1c0.6-2.7-0.5-5.2-0.6-7.7
		c4.8-4.4,11.7-8.2,16.1-8.7c-19.5,14-9.3,39.8-13.3,59.9c-1.7,11.9-10,20.5-19.7,26.7c-2.1,1.7-13.6-2.8-16.3-4
		c22.6-21.9-1.6-51.6-7.3-75.6C310.7,86.6,314.4,59.1,334.2,44.2z"/>
	<path class="st0" d="M195.7,60.7c7.9,28.7,14.5,58.8,7.4,88.3c-0.8,3.7-2.3,5.9-5.6,7.8c-10.3,5.8-18.1,14.3-24.8,24
		C133.4,144,170.4,94.2,195,60.6C195.3,60.7,195.5,60.7,195.7,60.7z"/>
	<path class="st0" d="M355.5,219.3c34-18.5,59-14.8,94.4-3.2c-21.9,26.2-54,55.3-90.8,43.3C361.1,245.7,358.1,232.8,355.5,219.3z"/>
	<path class="st0" d="M448,464.1c13.8-7.7,9-13.5,16-13.1c11.2-0.2,24.5,21.1,32.9,28.5c17.3,18,46.1,17.3,64.3,2.1
		c-2.9,6-7.2,12.5-13.2,15.5c-3.8,1.5-8.3,1.6-11.8,3.8c22.7,1.7,48.7-19.5,55.3-40.8c4.2,16.8-6.5,31.6-17.1,43.6
		c-15.1,17.3-40,26.1-61.5,15.6C485.2,508.5,475.5,474.8,448,464.1z"/>
	<path class="st0" d="M415.5,476.4c37.8,7.4,52.2,48.3,78.5,71.8c24.6,22.8,61.1,14.9,84.3-5.7c-16.5,21.2-44.7,40-72.5,34.7
		c-16.9-6.5-33.1-16.4-42.4-32.3c-14.3-20.4-20.6-51.7-46.5-60.5C416.3,482,416,479.6,415.5,476.4z"/>
	<path class="st0" d="M306.2,15.5c-4.1,15.4-2.2,34.1,12.7,43c-28.3,53.8,33.6,91.9,3,125.7c-0.3,0.4-1.1,0.6-1.6,0.6
		c-10.8-0.9-21.1,1.8-31.4,4.3c34.1-35.9,22.4-66.9,7.6-107.7c-2.9-22-1.7-46.9,9.6-66.5C306.1,15.4,306.2,15.4,306.2,15.5z"/>
	<path class="st0" d="M302.6,9.5c-16,13.1-31.2,27.3-41.6,45.3c-24,43.5-19.8,99.4,3.5,142.4c-22.1-15.7-30.8-43.2-34.9-68.7
		C221.7,78,259,30.8,302.3,9.3C302.5,9.5,302.5,9.5,302.6,9.5z"/>
	<path class="st0" d="M355.1,217.5c-2.9-7.3-3.8-15.2-8.3-22.2c34.8-9.3,76.6-6.3,105.3,17c-0.3,0.7-0.6,1.4-0.9,2
		C415.9,202.5,389,197.6,355.1,217.5z"/>
	<path class="st0" d="M242.3,176.5c-44.4-51.3-30.8-104.6,21.6-142.9c0,0,0.1,0.1,0.4,0.2c-41.9,39.9-48.4,92-21.6,142.6
		C242.6,176.3,242.5,176.4,242.3,176.5z"/>
	<path class="st0" d="M200.4,54.2c6.4,10.3,15,23.6,15.5,35.7c-5.5,19-5.1,39.7,4,57.5c-5.1,1.9-10.2,3.7-15.4,5.7
		c7.2-27.5,4-56.8-4.4-83.9C198.5,62.9,194.2,59.5,200.4,54.2z"/>
	<path class="st0" d="M417.2,486.4c21.1,9.6,28.6,33.5,39.4,52.3c9.2,18.7,24.7,29.9,42.3,39c-42.5-6.7-52.2-52.1-74.3-81.6
		C422.3,492.5,417.2,491.1,417.2,486.4z"/>
	<path class="st0" d="M372.3,105c-2.9,6.7-2.2,13.7-1.7,20.6c2.2,25.7-0.5,54.1-24.8,68.7c-1.9-1.3-3.6-2.5-5.6-4
		C380.3,171.9,349.1,129.8,372.3,105z"/>
	<path class="st0" d="M296.6,663.2c4.6-1.2,9.1-2.4,13.7-3.7c-8,20.2-25.4,38.5-47.8,25.3c2.9-4.8,3.8-9.7,2.9-15.1
		C273.3,676.1,298.5,679.2,296.6,663.2z"/>
	<path class="st0" d="M178.4,373.9c0-3,0-5.9,0-9.1c7.7,2,10.5,10.4,13.4,17c-4.7-2.1-5.9-1.8-7.8,2.1c-5.2-6.9-12.4-12-18.8-17.5
		c-1.3-1.8-1.4-4.4-2.5-6.4c-3.8-6-2.4-12.6-3.2-19.4C172.9,345,175,362,178,374C178.2,373.9,178.3,373.9,178.4,373.9z"/>
	<path class="st0" d="M157.7,559.7c3.7,0,7.1,0,11.1,0c-10.1,15.8-29.9,27-48.2,18.2c4.4-3.5,7.2-8,9.3-13
		C138.1,575.2,157.1,577.2,157.7,559.7z"/>
	<path class="st0" d="M440.9,727.7c3-0.4,5.3-1.1,6.7-3.6c8.5,7.4,24.5,4,25.5-8.4c5.3-1.7,10.6-3.3,15.4-7.2
		C482.5,727.5,458.2,744.2,440.9,727.7z"/>
	<path class="st0" d="M386.7,677.6c-6.9,12.5-24.5,23.1-35.2,9c8.2,6.4,23.7,5.1,24.4-7.3C379.4,678.8,382.9,678.2,386.7,677.6z"/>
	<path class="st0" d="M347.7,682.2c0.4,0.5,0.8,1,1.2,1.4c-0.1,0.1-0.2,0.2-0.3,0.2c-0.4-0.5-0.8-1-1.2-1.4
		C347.5,682.4,347.6,682.3,347.7,682.2z"/>
	<path class="st0" d="M213.2,252.5c-9.6,12.2-20.9-5.6-7.6-11.9c3.9,3.5,10.3,6.2,11.9,11.4c-0.5,6.5-7.8,21.9-15.4,14.8
		C208.7,264.4,212.6,259.7,213.2,252.5z"/>
	<path class="st0" d="M197.9,235.2c-10.9,2.7-15.3,9.6-14.6,20.6c-2.1-2.5-5.4-3.5-5.6-6.5c0.9-7.1,4.4-12.7,10.5-16.5
		C191.5,231.4,194.4,234.2,197.9,235.2z"/>
	<path class="st0" d="M186.2,230.9c-8,7.3-8.1,8.5-11.1,17.2C173,233.7,166.7,225.3,186.2,230.9z"/>
	<path class="st0" d="M209.6,270.3c5.1-3.9,8.1-8.5,10.2-14c-0.5,5.2-1,10.4-1.6,16C215.4,271.7,212.8,271.1,209.6,270.3z"/>
	<path class="st0" d="M188.7,259.8c-0.5-1.7-0.1-3.3-1.8-4.4c1.9-0.1,2.6-1.4,3.2-3.1c0.6,1.1,1,1.8,1.4,2.5
		c0.8-0.1,1.5-0.2,2.9-0.3c-0.9,1.1-1.4,1.7-1.9,2.4c0.2,0.6,0.4,1.3,0.7,2.2C191.7,259,189.9,257.5,188.7,259.8z"/>
	<path class="st0" d="M295.9,300.4c3.1-4.3,4.9-8.5,4.1-14.1c-4.4,8.6-17.2,2.2-13-6.3c2.2-6.6,10.5-0.6,15.4-0.5
		c5.9,3.5,3.6,13.5,1.3,19C302.1,301.2,299,299.6,295.9,300.4z"/>
	<path class="st0" d="M306,299.4c2.7-6.1,3-11.9,1.3-18.2c5.5,1,10.1,3.5,14.7,6.7C317.1,292.7,313.9,300.1,306,299.4z"/>
	<path class="st0" d="M276.9,275.8c-7.1,6.8-8,10.3-5.7,21.5c-9.5-0.9-4.2-16.4-0.2-21.1C272.7,274.6,274.7,275.5,276.9,275.8z"/>
	<path class="st0" d="M265.9,279.8c-2.2,4.8-2.6,9.9-1.9,15.4c-3-1.3-5.6-2.4-8.6-3.7c3.4-4.2,6.6-8.1,9.9-12
		C265.5,279.6,265.7,279.7,265.9,279.8z"/>
	<path class="st0" d="M279.3,290.9c0.2,0.7,0.5,1.5,0.7,2.4c0.8,0,1.7,0,3.2,0c-1,0.9-1.5,1.5-2.3,2.2c0.1,0.6,0.3,1.3,0.5,2.1
		c-1.3,0.6-2-0.6-2.9-0.8c-0.7,0.5-1.4,0.9-2.6,1.8c0.2-1.4,0.3-2.3,0.4-3.3c-0.4-0.5-0.9-1.1-1.6-2c1.1-0.2,1.9-0.4,2.6-0.6
		c0.4-0.7,0.9-1.4,1.3-2.2C278.9,290.7,279.1,290.8,279.3,290.9z"/>
	<path class="st0" d="M238.5,337.8c-4.7,3-34.4-12.8-40.4-16.3C212.7,315.7,232,323.4,238.5,337.8z"/>
	<path class="st0" d="M200.9,306.6c15.4,7.7,31,13.1,47.1,19.1C236.7,329.4,206.2,317.5,200.9,306.6z"/>
	<path class="st0" d="M200.8,325.2c10.4,4.6,20.7,9.2,30.8,13.8C225.2,342.1,206.6,334,200.8,325.2z"/>
</g>
</svg>
