<?xml version="1.0"?>
<svg xmlns="http://www.w3.org/2000/svg" viewBox="0 0 50 50">
    <path style="line-height:normal;text-indent:0;text-align:start;text-decoration-line:none;text-decoration-style:solid;text-decoration-color:#000;text-transform:none;block-progression:tb;isolation:auto;mix-blend-mode:normal" d="M 5 6 L 5 17 A 2.0002 2.0002 0 1 0 9 17 L 9 12.828125 L 15.585938 19.414062 A 2.0002 2.0002 0 1 0 18.414062 16.585938 L 11.828125 10 L 16 10 A 2.0002 2.0002 0 1 0 16 6 L 5 6 z M 32 6 A 2.0002 2.0002 0 1 0 32 10 L 36.171875 10 L 29.585938 16.585938 A 2.0002 2.0002 0 1 0 32.414062 19.414062 L 39 12.828125 L 39 17 A 2.0002 2.0002 0 1 0 43 17 L 43 6 L 32 6 z M 16.960938 29.980469 A 2.0002 2.0002 0 0 0 15.585938 30.585938 L 9 37.171875 L 9 33 A 2.0002 2.0002 0 0 0 6.9707031 30.972656 A 2.0002 2.0002 0 0 0 5 33 L 5 44 L 16 44 A 2.0002 2.0002 0 1 0 16 40 L 11.828125 40 L 18.414062 33.414062 A 2.0002 2.0002 0 0 0 16.960938 29.980469 z M 30.978516 29.980469 A 2.0002 2.0002 0 0 0 29.585938 33.414062 L 36.171875 40 L 32 40 A 2.0002 2.0002 0 1 0 32 44 L 43 44 L 43 33 A 2.0002 2.0002 0 0 0 40.970703 30.972656 A 2.0002 2.0002 0 0 0 39 33 L 39 37.171875 L 32.414062 30.585938 A 2.0002 2.0002 0 0 0 30.978516 29.980469 z"/>
</svg>
