<?xml version="1.0" encoding="utf-8"?>
<!-- Generator: Adobe Illustrator 26.0.0, SVG Export Plug-In . SVG Version: 6.00 Build 0)  -->
<svg version="1.1" id="Capa_1" xmlns="http://www.w3.org/2000/svg" xmlns:xlink="http://www.w3.org/1999/xlink" x="0px" y="0px"
	 viewBox="0 0 595.3 619.5" style="enable-background:new 0 0 595.3 619.5;" xml:space="preserve">
<style type="text/css">
	.st0{fill:#FFFFFF;}
</style>
<g>
	<path d="M501.9,233.2c-2.7-0.8-3.9-2.4-5-4.7c8.8,0.2,13.7-6.8,14.9-14.8c0.3-1.2,0.7-2,1.9-2.6c27.2-13.2,48-38.9,49.8-69.7
		c2.8-17.9-10.9-86.3-38.2-64.7c-10.7,20.5-13.8,44.6-43.6,44.2c-2.1-13.3-11.5-19-22.8-22.9c5.3-11.3-1.6-23.7-10.7-30.4
		c-10.7-8.9-24.5-8.2-37.5-6.5c14.1-33.7-35.2-39.5-56-26.2c9.5-41.6-55.5-47.2-69.8-9.2c-10.4-32.5-73.2-34.4-59.5,8.9
		c-14.8-5.9-32.1-11.2-47.4-4.1c-13.3,6.6-14,24.8-1.7,32.5c-18.2,2.1-35.9,9.8-44.6,26.5c-20.7-9.6-27.8-30.8-29.2-52.1
		C89.1-10,3.2,115.9,91.2,171.9c-5.8,8-10,16.6-10.4,26.7c-0.1,1.5-0.6,2-2,2.3c-16.3,3.9-31.5,10.5-45,20.6
		c-43.7,30.3-44.8,102.4-4.6,136c27.4,21.9,65.8,36.5,99.9,25.4c0.4-0.3,1.4-0.2,1.9,0.1c6.3,3.4,12.8,3.8,20.1,3.9
		c1.7,9.8-3.1,17.9-5.7,26.9c-3.1,15.2,17.4,16.8,25.5,8.3c6.1,6.8,11.3,6.6,22-0.9c3.9,3.6,7.1,3.6,5.9,9.8
		c-2.7,30.2-4.7,60.3-7.1,90.5c0.2,13.6-13.6,16.3-21.5,25.4c-1.5,1.3-2.7,3.2-3.4,5.1c-4.2,9-16.4,9.2-22.3,21.1
		c-7.4,10.8-13.2,32.8,3.3,38c17.3,4.2,35.4,4.1,53.1,3.3c17.7-1.3,71.3-5.4,73.5-27.3c0.2-13.6-0.2-28.8-8.2-40.1
		c-4.8-18.2-33.5-109.7-17.6-119.2c14.9,15.4,39.1,14.7,56.2,3.4c2.7-2,14.2,6.2,20.8,5.7c1.5,0.2,2.1,0.8,2.6,2.1
		c12.9,37.1,25.3,76.8,19.4,116.3c-6.9,11.7-7.2,25.9-6.4,39.1c3.9,19.3,44.7,23.4,61.1,24.5c15.2-0.5,63.6,5.2,66.3-14.7
		c2.4-16.6-5.4-32.3-19.5-41.3c-2.2-1.4-3.8-3.3-3.8-6.2c-0.4-6.6-7.2-10.5-11.3-14.9c-2.1-1.8-5.4-2.3-7.2-4.5
		c-21.8-38.6-39-79.5-56.3-120.1c6.9,1.8,9.2,8.8,15.5,11.8c16.6,12.8,38.1-4.7,20-19.4c3.3-3.4,6.6-6.8,10.1-10.5
		c19.1,13.1,44.2,17.1,67.1,17.3c50.1,2.7,105.9-22.6,111.1-77.8C603.5,283.4,549.5,245.1,501.9,233.2z M82.3,244.4
		c-5,15.4-7.6,31.3,0.9,46.1C51.9,291.9,61.1,252.6,82.3,244.4z M248.8,427.7C248.8,427.7,248.8,427.7,248.8,427.7
		C248.9,427.8,249,427.8,248.8,427.7z M487.5,326.4c0.5-13.3-1.5-25.8-8.6-37.1c6.4-1.1,12.6-2.9,17.3-7.7c0.6-0.5,1.7-1.1,2.3-0.9
		C544.9,295.2,546,349,487.5,326.4z"/>
	<path class="st0" d="M377.4,413.8c-22-1-12.2-10.7-25.8,9.8c-10.6,13.3-29.1,11-42.2,3c-1.7-1.1-3-0.9-4.6,0.2
		c-7.5,5-15.7,8.2-24.8,8.8c-23,2.2-29.1-18.9-33.9-11.7c-9.6,8.6-23.8,5-35,2.2c-10.8-2.8-19.5-9.6-21.5-21.2
		c-0.7-3.8-1.5-4.1-5-2.6c-8.7,3.7-16.8,1.8-24.2-3.3c-9.3-5.6-0.3-18-10.7-16.5c-10.2,0.7-23.7-3.1-24.4-15.1
		c-2.4-7,7.3-17.3-0.2-16.8c-8,0-17.2,0.3-21.5-7.8c-4.9-7.9-6.8-16.5-5.2-25.7c-0.3-4.2,6.9-18.1,1.8-19
		c-12.5-4.6-17.6-14.2-18.1-26.8c-0.8-17.8,7.2-34.1,15.9-49.1c1.5-2.3,0-4-2.4-3.9c-18.3-5.7-9.8-34.4,0.3-44.6
		c1.3-3.3,20.3-14.5,11-16c-7.8-2-8.5-12.6-5.9-18.9c6.1-17,23.2-23.3,39.3-26.9c3.8-0.3,3.8-4.5,0.3-5c-5.5-1.8-7.3-4.8-6.3-10.4
		c5.3-19.9,28.2-28.2,46.9-28.7c2.8,0.7,8,0,5-3.7c-3.4-2.2-7.5-4.3-10.5-7.1c-6.2-5.8-5.4-14.9,1.3-20.2
		c17.3-10.7,40.4-2.1,56.1,8.3c2.5,2.4,5.5-1.7,2.8-3.5c-4.3-3.7-6.9-8.4-7.9-13.8C224.9-7,277.7,4.6,281.8,32
		c0.8,1.9-0.1,6.1,2.9,6.1c1.5,0,2.1-1.1,2.3-2.4c0.8-4.9,2.5-9.6,5-13.9c21.8-35.8,79.3-8.4,52.5,18.9c-3.6,2-0.6,6.2,2.5,3.7
		c15.4-10,36.1-17.2,53.1-7.1c10,5.9,11.2,17.6,3.1,25.9c-3.2,1.9-3.6,6.3,0.8,5.2c17-7.3,40.1-5.3,49.6,12.6
		c2.7,4,4.2,14.8-1.3,16.5c-1.7-0.1-4.7-0.1-4.6,2.3c-0.1,2.4,2.5,2.3,4.3,2.2c13.8-1.5,36.3,18.3,17.6,27.9
		c-2.3,1.3-3.4,3.2-0.9,4.9c13.7,7.6,31,26.4,14.9,40.4c-9,6.2,10.1,7.4,19.4,21.9c7.8,8.5,6,30.4-9.2,26.6
		c-1.5-0.3-3.4-1.5-4.4,0.4c-1.5,2.7,2.5,4.6,3.6,6.8c13.3,17.7,10.8,53.7-16.6,54c-1.5,0-4.1-0.4-4.9,1.2c-0.3,0.7-0.1,1.9,0.4,2.5
		c10.5,12.3,14.5,30.9,8,45.5c-10.5,18.8-27.9,2.2-26.9,10.8c6.3,20-9.9,55.8-33.2,35.4c-1.9-1.3-3.8-0.2-3.7,2
		C416.6,401.7,394.9,413.1,377.4,413.8z M373.5,132.4c-27.9-7.7-59.6,11.3-63.6,40.5c-9.8,68.7,88.6,82.2,100.8,17.6
		c30.8,8.5,27.5-34.2-0.9-21.2c-0.5-1.7-1-3.4-1.3-4.7c28.6-10.2,5.5-41.8-11.7-18.7c-1.2-1.1-2.3-2.1-3.3-3.1
		C413.8,122.8,379,104.5,373.5,132.4z M155.1,152.8c-27.9-10.7-30.9,28.7-1.7,22.1c11.2,64.7,106.5,52.8,100.9-13.1
		c-2.5-30.1-33.7-51.5-62.9-43.9c-2-29.8-41.1-11.6-19.1,9.4c-1.2,1-2.3,2-3,2.6c-18.9-22.7-40.4,9-12.6,18.2
		C156.1,150.1,155.5,151.7,155.1,152.8z M280.7,338.1c32.9-1.5,73.8-7.5,97.7-33.4c22.1-22.4,6.1-60.6-23.8-65.4
		c-35.5-8.2-70.1,11.2-105.8,5.3c-23.3-1.9-46.2-15.6-69.4-6.4c-33,13.3-31.1,50.6-8.5,68.1C202.2,331.4,239.1,337.1,280.7,338.1z"
		/>
	<path class="st0" d="M213.4,571.7c-10.3-12.4-22.3-23.3-39.2-22.8c5.8-3.3,10.8-11.8,18.2-9.8c16.5,3.6,27.5,16.3,38.3,28.3
		c9,3.8,29-3.5,36.4-10.2c0.8,7,5.8,22.3,1.5,27.7c-27.6,19.5-65.2,16.1-97.5,17c-8.1-0.2-16.4-0.5-24.2-3.1c-6-2-5.7-1.7-4.6-7.5
		c2.2-11.8,8-21.4,18.6-27.7C171,574.7,198.7,570.2,213.4,571.7z"/>
	<path class="st0" d="M350.4,560.6c3.1,4.4,20.6,14.1,24.4,10.8c14.6-17.5,47.2-43.8,65.5-17.5c-18.9-4.1-37.6,5.1-49.4,19.9
		c19.9-0.5,40.5,3,59-5.5c8.7,7.1,15.1,17.7,15.4,29.3c0.1,1.6-0.5,2.5-1.9,3.2c-22.3,8-46.9,7.6-70.2,5.1
		c-16.1-2-31.5-6.6-45.3-15.5C342.9,585.7,348.3,566.8,350.4,560.6z"/>
	<path class="st0" d="M531.6,194.3c-20.7-19.3-34.3-42.3-41.2-69.6c9.2-1.8,16.5-6.3,22.2-13c12.7,12.7,26.9,23,44.4,27.9
		c1.9,0.6,2.5,1.4,2.3,3.4C557.4,163.5,547.1,181,531.6,194.3z"/>
	<path class="st0" d="M105.3,69c4,8.9,10.4,15.6,18.7,21c-19.1,18.7-35.4,39.3-49.2,62.6C61.3,136.2,55.8,116,56.4,95
		C69.6,83.2,88.9,76.6,105.3,69z"/>
	<path class="st0" d="M486.2,330.9c8.1,2.2,15.6,4.2,23.8,5.1c0.8,0.1,1.7,0.7,2.1,1.3c12.3,20.9,13.7,46,10,69.5
		c-0.2,1.1-0.5,1.7-1.7,1.9c-15.2,2.9-30.6,4.1-45.9,2.8c16-20.7,16.9-49.3,10.4-73.7C484.1,334.9,485.9,333.2,486.2,330.9z"/>
	<path class="st0" d="M112.4,382.9c-11-1.4-23.2-0.4-33.2-5.7c-22.7-19.8-21.9-62.5,1.6-81.3c2-1.5,5.5-1.2,7.5,0.3
		c2.1,2.6,9.6,3.8,8.4,7.6c-6.3,15.6-1.2,30.3,2,45.7c1.9,12,6,23.5,13.9,32.8C112.6,382.4,112.5,382.7,112.4,382.9z"/>
	<path class="st0" d="M516.2,335.9c5.4-0.5,9.9-1.8,13.9-4.7c10.7,3.3,19.6,12.7,26.8,21.3c3.5,5.4,17.7,23.5,14.2,29
		c-12,13.3-27.4,21.3-44.6,25.7C529.9,382.4,529.3,358.4,516.2,335.9z"/>
	<path class="st0" d="M71.4,376c-14-5.1-43.3-16.6-45.9-32.7c-0.5-21.8,8.1-38.7,27.2-49.7c10.7-5,12.3-4.5,22.4,1.1
		C53.9,315.5,53,352.6,71.4,376z"/>
	<path class="st0" d="M458.5,347.3c8.7,1.9,16.1-0.1,22.6-6.8c5.1,22.9,4.8,49-10.3,68.2c-9.1,7.4-43.3-7.1-52.5-13.7
		c0.9-2.9,1.8-5.7,2.6-8.1C448.1,401.9,460.9,369.7,458.5,347.3z"/>
	<path class="st0" d="M349.1,491c15.6-1,30.9-2.5,44.2-11.7c5.6,12.1,11.1,24,16.8,36.2c-16.8,8.9-35.5,14.2-54.6,11.5
		c-0.5-0.1-1.3-0.8-1.3-1.2C353.3,514.2,351.9,502.7,349.1,491z"/>
	<path class="st0" d="M575.7,375.6c-9.2-20.3-21.8-37.5-42-48.3c2.6-4.2,3.3-8.6,3-13.4c17.8,1.8,35.4,4.6,52.7-1.7
		C595.5,324.8,587.4,362.7,575.7,375.6z"/>
	<path class="st0" d="M253.4,518.1c-17.8,5.9-37.5,10.3-55.4,2.8c-1.1-0.4-1.4-1.2-1.3-2.5c0.8-11.2,1.9-22.2,2.5-33.4
		c15.4,3.2,30.5,2,45.6-1.4C247.6,495,250.4,506.3,253.4,518.1z"/>
	<path class="st0" d="M192.6,534.5c1.2-3.3,2.3-6.3,3.4-9.2c19.7,7.5,39.4,2.9,58.7-2.8c2.8,9.9,5.5,20,8.5,29.9
		c0.3,1.2,0.2,1.9-0.8,2.7c-2.8,4-26.9,11.6-29.8,7.9C222.1,550.2,209.1,538.3,192.6,534.5z"/>
	<path class="st0" d="M354.3,531.4c20.2,3,40.2-2.5,58-12.1c3.4,6.2,6.8,12.3,10.2,18.5c-23.3,1.5-35.2,15.4-51.2,29.4
		C345.9,559.8,354.8,553.1,354.3,531.4z"/>
	<path class="st0" d="M243.3,479.4c-12.6,2.6-26.2,4.3-39.2,2.1c-4.7-0.8-4.8-0.8-4.5-5.5c0.7-11.2,1.5-22.5,2.3-34.1
		c12.6,5,25.2,3.9,37.6,1.3C240.8,454.9,242,466.8,243.3,479.4z"/>
	<path class="st0" d="M559.4,135.7c-16.7-4.9-31.3-13.9-42.8-27c-0.7-0.8-1-1.3-0.3-2.3c5.3-7.4,7.2-16.5,10.8-24.8
		C547.2,59.3,561,122.4,559.4,135.7z"/>
	<path class="st0" d="M376.2,440.6c5.2,11.6,10.2,23.1,15.4,34.6c-12.3,8.8-27.1,10.2-41.6,11.2c-1.4,0.1-2-0.2-2.4-1.7
		c-2.7-10.1-5.7-20.1-8.6-30.2C352.8,453.6,365.1,448.8,376.2,440.6z"/>
	<path class="st0" d="M530.8,297.6c13.1-6.9,24.6-15.4,29.1-31c13.4,11.2,23.6,24.2,28.9,41.4c-16.5,5.7-33.9,3.5-50.8,1.6
		C533.8,308.8,533.2,301,530.8,297.6z"/>
	<path class="st0" d="M61.2,285.2c-27.1,9.2-38.9,29.1-40.8,57c-8.8-13-14.2-26.9-15.2-42.5c1.4-7,9.7-10.2,15.3-13.4
		c11.4-5.6,23.4-7.7,36.1-6.2C59.7,280,60.1,283,61.2,285.2z"/>
	<path class="st0" d="M56.7,87.5C61,70.5,67.1,53.9,79,40.7c4.7-5.8,17.2-15.3,19.1-2.9c0.9,8.8,2.3,18.3,5,26.7
		C87.8,72,72.5,79.6,56.7,87.5z"/>
	<path class="st0" d="M18,244.2c8.2-11.4,18.6-20,30.9-26.9c1,14,6.8,25,18.5,32c-2.8,3.6-4,9.9-7.8,11.8
		C44.6,258.5,30.2,253.7,18,244.2z"/>
	<path class="st0" d="M4.9,291.1c0.1-15.3,2.4-29.7,10.6-42.8c13.2,9.4,27.9,14.8,43.7,17.5c-0.3,3.3-0.6,6.5-0.9,10
		C38.5,273.3,20.7,278.4,4.9,291.1z"/>
	<path class="st0" d="M515.3,282.7c9.1-10.3,14.2-21.9,10.8-36.2c5.3,2.2,30.2,13.5,29.5,18.9c-3.8,13.6-14.7,22-26.7,28
		C525.6,293.7,518.3,285.2,515.3,282.7z"/>
	<path class="st0" d="M81.1,205.2c1.5,7.5,4.1,14,11.5,17c-7.1,14.3-4.9,14.9-19.5,22.7c-8.1,3.1-17.5-13.7-18.6-20.5
		c-0.3-3-1.9-7.3,0.1-9.9C63,210.4,71.7,207.3,81.1,205.2z"/>
	<path class="st0" d="M528.1,197.4c-5.2,3.3-10.3,6.4-15.6,9.8c-3.1-14.5-13.6-22.3-24.3-29c14.5-17.4,2.8-34.8-13.6-45
		c18.3-27.5,7.2,23.1,52.8,63.5C527.5,196.6,527.6,196.8,528.1,197.4z"/>
	<path class="st0" d="M134,108.1c-22.1,4.9-52.6,30.1-31.8,52.8c-2.4,2.3-5.1,4.8-8.1,7.6C91,166,76.5,158.2,78.9,154
		c12.9-22.2,29.4-42,47.4-60.2c1.2-2.1,4.5-0.4,3.8,1.9C129.4,100.5,130.1,104.8,134,108.1z"/>
	<path class="st0" d="M362.1,415.6c2.5,0.2,3.9,1.3,4.8,3.5c0.7,4.2,9,15.7,6.2,18.2c-9.7,7.5-21.7,11.9-33.8,12.7
		c-3.6-0.2-4.1-9.4-6-12.5C347.5,436.4,356.1,427.8,362.1,415.6z"/>
	<path class="st0" d="M502.1,237.5c9.4,4.5,21.4,2.5,20.6,15.5c1.1,10.1-4.2,19.1-10.6,26.5c-3.6,1.4-7.8-2.5-11.6-3.4
		C507.2,263.9,506.6,251,502.1,237.5z"/>
	<path class="st0" d="M346.8,594.9c35,20.3,79.2,20.9,117.5,10.7c-2.2,6.2-10.3,6.8-15.8,7.8c-28.5,2.5-82.7,6.1-102.3-17.8
		C346.4,595.2,346.6,595,346.8,594.9z"/>
	<path class="st0" d="M143.8,602.9c33.1,6.7,96.5,5.9,125.1-12.4c0.1,0.2,0.3,0.3,0.4,0.5c-28,20.9-69.1,20-102.7,18.8
		C159,608.1,148.9,609.7,143.8,602.9z"/>
	<path class="st0" d="M445.3,566c-14.3,4.5-29.2,3.9-43.9,3.8c-0.3-0.3-0.5-0.6-0.8-0.9C412.4,561.5,436.3,548,445.3,566z"/>
	<path class="st0" d="M103.2,350.3c6.2,3.2,12,4.6,19.1,4.8c-2.7,8.7-2.3,17,3.5,24.4C112.7,388.8,105.5,359,103.2,350.3z"/>
	<path class="st0" d="M155.3,400.4c5.3,4.5,5.3,4.5,18.6,8.4c-2.9,8.8-11.2,17.3-21.1,13.1C145.1,416.8,153,406.7,155.3,400.4z"/>
	<path class="st0" d="M165,561.5c10.3-15,28.7-5.2,38.2,5.6C192.8,566.4,172.8,568,165,561.5z"/>
	<path class="st0" d="M380.7,418.1c7.2-0.7,13.5-2.7,19.5-5.9C420.7,419.3,401.8,442.9,380.7,418.1z"/>
	<path class="st0" d="M239.8,432.5c-0.1,2.3,0.9,5.1-1.7,6.1c-3.6,0.7-7.1,1.5-10.8,1.9c-7.6,0.7-15.1,0.6-22.3-2.3
		c-4.4-1.4-1.3-6.4-1.5-9.8C215.4,432.1,227.1,435.2,239.8,432.5z"/>
	<path class="st0" d="M185.1,407c1.1,3.7,4.5,7.3,4.3,11.1c-2.9,3.9-10.4,6.4-13.9,2.4c-3-3.1,2.1-7.4,2.8-10.8
		C179.6,407.4,183.1,407.8,185.1,407z"/>
	<path class="st0" d="M359.8,228.4c-55.6,1.6-66.3-90.6,1.5-93.2C417.3,135.2,425.2,226.2,359.8,228.4z M356.6,168.3
		c-29.7-0.1-29.6,44.8-0.5,45.1C385.9,213.7,386.2,168.6,356.6,168.3z"/>
	<path class="st0" d="M250.3,167.3c-0.9,61.2-91.6,61-92.8,0.1C158.6,106.4,249.1,106.5,250.3,167.3z M235.8,180.2
		c0.2-29.6-44.6-29.6-45.1-0.7C190.2,209.4,235.7,209.8,235.8,180.2z"/>
	<path class="st0" d="M281.4,333.7c-44.1-1.6-99.1-8-120.7-48.3c-11.7-32.4,25.1-54,53.2-43.6c12.2,3.5,24.5,6.2,37.1,7.5
		c35.1,5.3,69.1-13.8,103.9-5.3c25.6,4.8,39.1,37.5,20.5,57.1C353.1,326.3,312.2,331.8,281.4,333.7z M267.3,293.6
		c28.9-0.6,49.1-2.4,73-13.8c1.3-0.7,2.3-1.7,1.5-3.3c-1.7-3.7-17.5,6.2-21.9,6.3c-38.7,10.7-80.6,7.6-118-6.7
		c-3.4-0.4-8.2-5.6-10.9-2.4C194.4,285.2,257.7,294.8,267.3,293.6z"/>
	<path class="st0" d="M353,184.9c0.1,7.5-11.4,7.7-11.6,0.2C341.1,177.5,353,177.2,353,184.9z"/>
	<path class="st0" d="M209.5,176.4c-7.6,0.3-7.7-11.7-0.1-11.5C216.9,164.7,217,176.5,209.5,176.4z"/>
</g>
</svg>
