<?xml version="1.0" encoding="utf-8"?>
<!-- Generator: Adobe Illustrator 26.0.0, SVG Export Plug-In . SVG Version: 6.00 Build 0)  -->
<svg version="1.1" id="Capa_1" xmlns="http://www.w3.org/2000/svg" xmlns:xlink="http://www.w3.org/1999/xlink" x="0px" y="0px"
	 viewBox="0 0 595.3 419.5" style="enable-background:new 0 0 595.3 419.5;" xml:space="preserve">
<style type="text/css">
	.st0{fill:#FFFFFF;}
</style>
<g>
	<path d="M445.5,236.6c-1.4,11.8-10.3,22.1-22.9,18.9c3.9,16.9-9.6,42.9-29.5,33.9c-1.6,5.7-3.9,10.5-7.4,15.4
		c25.5,13.3,45.2,33.6,63.6,55c7.4,2,12.4,6.8,15.7,13.5c0.7,1,1.5,2.8,2.8,3c6.4,0.5,14.1,13.6,15.6,19.6c2.8,8.9-1.6,21-11.9,21.9
		c-25.1,3.5-50.8,1.7-75.8-2.3c-15.1-1.9-8.9-25.2-6.8-35.8c-5.4-24.7-24.7-44.2-44.3-59.4c-11.2,12.5-31.3,16.5-43.7,3.4
		c-12.9,19.1-39.5,16.7-53.5,0.1c-0.9-1-1.6-1.3-3-0.8c-7.8,3.2-16.1,4.1-24.3,1.7c-8.7,20.9,15.9,32,25.4,46.8
		c7.5,3.3,6,13.7,6,20.4c-0.7,7.1-0.1,16.7-8.8,18.7c-14.6,4.2-29.4,6.2-44.5,6.4c-13-1.3-36.7,4.3-39.9-13.2
		c-1.7-9.5,2.1-16.9,8.9-23.1c1.8-1.6,3.5-3.4,6.3-2.9c3.1-5.3,8.5-9.1,13.4-12.9c1-0.7,1.1-1.3,0.6-2.5c-8.4-17.5-10.5-39.1,2.5-55
		c-16,1.2-24.9-13-24.7-28c-9.7,2.2-16.4-1.5-20.3-10.7C123.7,283.1,97,285,72,281.7c-1.2-0.2-2,0.1-2.8,1c-1.6,2.5-4.7,2.8-6.7,4.8
		c-5.4,6.6-20.1-1.8-26.4-4.7c-4.1-2.2-6.5-6.5-7.5-10.9c-0.4-7.5-13.5-9.3-18-15.9c-6.8-6.8-8.9-15-7.1-24.3c0.3-1.4,0-2.4-0.9-3.6
		c-5.7-7.5-1.3-16,4.3-22c0.3-0.4,0.8-1.1,0.7-1.5c-4.7-22.5,30.2-24.8,36.8-6.9c5.5-2.7,12-0.6,17.8-0.3c0.4,0,0.9-0.5,1.2-0.9
		c3.6-5.7,12.1,1,17.3,1.6c8.4,4.1,4.8,15.6,7,23.1c11.1,5.9,26.9,10.3,38.8,3.6c0.5-0.3,1.1-1,1-1.5c-0.5-10.9,3.4-20.9,7.5-30.8
		c-3.4-2-8.7-2-10-6.1c-4-13.8-6.5-27.9-7-42.2c-4.8-10.7-11.1-20.8-12.3-32.8c-2.4-17.5,1.7-33.3,13.1-47
		c10.3-12,17.1-3.8,19.6,8.5c64.4-86.5,211.3-98.9,289.2-24.1c5.2-57.4,58.9,22,37.5,58.5c-1.9,6.1-6.9,10.7-8.8,16.6
		c-0.8,8.1-1.2,34.7-9.3,37.2c5.2,9.8,8.7,19.7,10.8,30.5c13.1,11.4,34.4,8.5,48.8-0.8c2.8-2.6-0.4-9-0.1-12.8
		c-1-4.7-4.4-9.6,0.4-13.4c3.2-3.6,8.9-6,10.6-10.4c-2.7-10.4,7.5-17.9,16.9-13.8c3.6-19.2,29.2-24.9,37.1-5.6
		c0.4,0.7,0.9,1.5,1.6,1.8c9.5,3.9,12.5,11.3,15.2,20.3c8.8,12.3,8.9,25.3,2.2,38.4c-1.1,2.1-1.2,3.7-0.2,5.8
		c7.9,14.8-8.5,25.3-17.8,34.3c-4.8,7.7-14.8,4.9-21.7,2.1C517.7,254.3,477.2,260.7,445.5,236.6z"/>
	<path class="st0" d="M171.4,192.4c-20.2,84.5,171,69.8,149.3-7.9c41.6,4.8,82.9-4.4,120.9-21.2c5.3-1.3,11.6,22.3,12.5,27.2
		c-3.6-2.5-10.4-6.7-11.9-10.7c-0.8-2.2,0.7-7-2.7-7.1c-1.6,0.2-1.6,1.4-1.4,2.7c2.5,11.1-2.2,30-17,25.3c-1.1-0.3-2.6-1.3-3.4,0
		c1,10,5.2,20.1-3.6,28.7c-0.9,0.9-1.4,1.8-0.4,2.9c5.4,2.3,10.2-13,9.7-17.4c5.4,6.9,11.6,12.2,17.7,18.4
		c2.1,4.3-1.2,10.1-3.5,13.9c-7.6,11.3-20.4-0.7-19.4,6.4c5.6,17.1-8.2,43-27.6,30.8c-0.7,0.4-1.1,1.6-1.2,2.5
		c-1.5,17.9-21.8,30.1-37,19.7c-2.7-1.7-3.3-1.5-4.4,1.4c-6.2,17.7-31.8,28.1-45.1,12.7c-2-2.1-2.7-2.1-4.4,0.3
		c-11.4,18.5-37.7,15.2-49.7-0.9c-1.2-1.5-2.3-1.6-4.1-1c-17.2,8.1-33.2,1.6-41.4-15.2c-1.8-2.9-1.6-2.8-4.8-2
		c-18.2,6.8-30.7-5.1-29.3-23.7c0.1-3-0.6-3.3-3.5-2.7c-20.4,6.2-21.4-21.1-16.4-34.2c1.5-3.9-3.6-3-5.9-3.9
		c-20.2-5-10.9-29.6-5.4-43c0.3-0.9,0.8-1.2,1.8-1C150.5,195.6,161,194.9,171.4,192.4z"/>
	<path class="st0" d="M425.8,53.6c-13.4,26-19.1,4.9-11.3,43.9c3.6,14.9,10,28.4,20.1,40.1c3.2,6.7,13.6-9,18.1-10.4
		c-1.5,9.8-1.3,21.5-6.3,30c-37.2,17.5-78.5,28.2-119.9,24.2c-14.1,0.1-15.6-10.2-31.5-6.6c-26.3,4-53.5-0.6-80,4.3
		c-6.5,0.6-12.9,2.6-19.5,2.6c-7.7-0.9-14.5,1.1-20.6,5.8c-14.3,4.7-28.6,5-43,0c-7.4-2.2-9.2-31.7-9.9-39.3
		c17.2,5.8-1.2-16.1,16.8-50.4c11.7-25,49.3-49.8,72.8-25.8c6.1,6.3,8.9,14.1,9.9,22.7c0,1.2,0.2,2.5,1.6,2.8
		c1.2,0.2,1.7-0.6,2.2-1.6c9.6-22.5,15.6-29,22.9-0.7c3,9.3,8.1-11.7,10.4-13.8c16-32.5,57.4-36.5,88-23.9
		c28.7,11.5,42.3,43.9,36.3,73.2c-0.4,1.9,0.3,3,2,2.8c6.3-1,32.5-2.5,31.7-10c-5-17.1-10.8-34.5-8.9-52.6
		C408.7,60.5,412.3,44.8,425.8,53.6z M306.5,167.6c63.1,1.4,71.8-81.5,9.1-89.6C248.8,71.9,239.5,163.2,306.5,167.6z M219.2,123.6
		c-0.1-41.7-46.4-44.9-63.5-11.2c-1.2,2.4-4.4,2.4-5.9,4.6c-4,4.2-0.7,8.7-0.4,13.3c-5.2,21.4,10.8,48.4,34.6,42.6
		C205.8,167.8,219.2,145.1,219.2,123.6z"/>
	<path class="st0" d="M126.2,145.2c-1.7-0.4-4.3,0.2-4.6-2c-3.8-66.8,55.6-116.5,115.7-131.3C235.5,20,232.5,49.7,248,40
		c6.5-8.1,10.1-18.2,17-26c5.3-6.2,12.1-9.6,20.2-10c48.5-2.8,99.5,10,135.9,43.4c-0.1,0.1-0.1,0.2-0.2,0.4
		c-23.2-3-17.5,43.6-13.5,57.3c6,24.1,11.9,19.2-20.6,24.6c6.6-36.1-16.1-74.2-53.5-80c-34.9-9.1-69.6,5-83,39.5
		c-5.9-22.8-17.8-20.9-26-0.5c-4.7-22.6-28.3-36.9-50-27C139.5,73,123.9,110.9,126.2,145.2z"/>
	<path class="st0" d="M236.9,245.9c-20.2-0.1-45.7-5.1-58.3-23.5c-10.9-15.8-6.3-40.9,17-37.1c33.4,4.8,67.2,0.6,99.8-6.9
		c31.5-5.5,28.3,32.5,9.2,46.2C285.6,240.5,261.8,245.7,236.9,245.9z M235.2,218.6c17,0.3,33.9-2.9,49.4-10
		c2.3-1.6,16.9-6.9,10.9-9.8c-21.2,12.9-46.5,18.2-71.3,16c-11.8-1-23.2-3.5-34-8.3c-2.2-1-3.1-0.9-3.6,0.3
		C190.5,215.7,225.1,218.9,235.2,218.6z"/>
	<path class="st0" d="M391.7,382.8c23.1,7,18.9-8.7,36.1-17.3c10.4-5.9,25.1-4.5,31.9,6.1c-12.4-4.2-25.1-2.3-32.2,9.5
		c-1.1,1.6-0.2,3.3,1.8,3.2c12.5-0.2,25-1.2,37.3-4.1c1.3-0.3,2.2-0.1,3.1,0.9c5.3,4.2,18.5,24.4,5.8,25.7
		c-27.9,4.8-56.8,3.7-84.5-1.9C387.2,401.6,391.1,388.1,391.7,382.8z"/>
	<path class="st0" d="M183.2,372.6c12.5-14.5,31.4-1.7,41.2,9.8c5.2,3.4,18.4,0,22.6-5.2c0.9,3.1,2.3,23.5-1.3,23.5
		c-8.6,2.5-17.5,4.2-26.4,5.2c-17.5,1.3-35.9,3.7-53.1-1c-10.7-2.6-1.1-18.4,4.3-22.2c6.8,3.8,36.1,4.4,42.6,1
		c-2.9-7.7-21.7-12.7-29.7-10.8C183.3,372.9,183.3,372.7,183.2,372.6z"/>
	<path class="st0" d="M425,62.5C436.4,73.5,450.4,81,466.1,83c0.3,15.5-6,30.2-16.3,41.5c-0.7,0.8-1.3,0.9-2.3,0.5
		c-23.9-11.5-32.3-24.5-32.8-50.9c0-0.6,0.1-1.5,0.5-1.8C419,69.5,422.3,66.4,425,62.5z"/>
	<path class="st0" d="M524.6,168.9c2.3,1.9,5.1,2.8,6.2,5.5c4.8,11.1,11.4,20.9,20.5,28.8c8.3,7.2,21.6,14.8,31.9,7.1
		c1.9-1.5,2-2,0.6-4.1c0.9-1.3,1.9-2.6,2.8-3.9c6,8.3-1.6,17.9-8.4,23.1c-1.3-5.2-8.1-6.1-12-8.8c-3.7-1.9-7-1.2-9.5,2.1
		c-2.7,4.6-10,9.4-5.6,15c-20.2-5.1-42.3-34.7-40.9-54.5C516.4,178.1,519.8,172.2,524.6,168.9z M543.4,200.9
		c-2.6-5-10.1-19.9-17-13.2c-4.3,4.4-14.1,9-8.4,16.1c4,4.3,8.2,15.6,15.2,9.7C536.9,209.3,543.1,207.4,543.4,200.9z"/>
	<path class="st0" d="M426.9,340.5c-16.1,1.4-30.6,8.5-41.1,20.7c-3-6.6-9.3-11.9-11.2-18.7c4.6-11.1,11.7-19.8,23-24.8
		c1-0.4,1.7-0.5,2.6,0.2C409.7,324.7,418.8,332,426.9,340.5z"/>
	<path class="st0" d="M535.2,174.8c7.2,2.6,11.9-6.9,14.3-2.5c4.7,11.9,16.9,15,28.4,11.8c8.7,4.3,13.7-8.5,12.1-15.6
		c0.2,0,0.4-0.1,0.5-0.1c4.3,15-3.7,29.1-13.3,40.1C560.7,214.7,540.5,188.5,535.2,174.8z"/>
	<path class="st0" d="M442.7,358.1c-18.5,0.3-25.3,11.3-37,22.3c-3.9,0.2-9.8,1.5-12.5-2c-1-4.2-6.2-10.8-4.9-14.6
		c10.4-12.3,24.7-18.9,40.7-19.8C434.7,346.6,438,353.7,442.7,358.1z"/>
	<path class="st0" d="M466,79.3c-14.8-1.9-27.4-9.1-38-19c-0.7-0.6-0.9-1.1-0.4-2c3-5.7,4.3-11.8,4.9-18.1
		c4.2-23.2,26.8,11,29.2,19.9C464.1,66.2,465.8,72.7,466,79.3z"/>
	<path class="st0" d="M67.6,279.1c-1.5-6.8-10.5-5.7-15.6-8.3c-10-2-10.5,23.2-20.5-1c0.2-0.2,0.3-0.3,0.5-0.5
		c0.8,0.5,1.9,0.9,2.3,1.6c7.4,10.6,16.1-2.6,18.8-9.6c5.6-12.4,9-25.3,8.8-39.1c0.8-7.9,2.7-12.3-1.6-21.2
		c4.6-0.5,0.8,11.7,8.4,12.6c5,1.2,9.5,3.3,14.7,3.4c1.2,7.2,1.3,14.4,0.4,21.9c-2.9-4.9-9.4-4-14.1-5.8c-7.7-1.9-6.9,8.7-8.7,13.6
		c-0.9,2.9-1.8,7.5,1.9,8.5c5.7,1.1,11.9,4.3,17.4,0.8C77.8,264.1,73.8,272,67.6,279.1z"/>
	<path class="st0" d="M525.4,244.2c-5.7,1.3-25.8,7.2-29.4,3.6c-8.5-14.5-9.8-29.6-4.1-45.3c2.1-3.5,7.4-3.2,11-5.2
		C500.1,216.3,510,233.5,525.4,244.2z"/>
	<path class="st0" d="M92.7,279.5c10.1-15.5,11.4-32,7.3-49.5c3.9,1.3,9.2,0.1,11.4,4.3c7.9,11.9,12.8,26.9,8.1,41
		C113.5,279.8,100.6,278.8,92.7,279.5z"/>
	<path class="st0" d="M184.4,335.4c9.6,2.3,18.9,2.7,28.7,2c1.5-0.1,2.1,0,2.5,1.6c1.3,6.3,5.1,11.3,9.6,15.8
		c-8,10.4-20.7,9.5-32.2,7.6C187.3,359,184.5,342.1,184.4,335.4z"/>
	<path class="st0" d="M8.4,231.9c-0.1,3.3-0.6,6.3-0.3,9.3c0.6,8.8,13.2,15.1,17.9,5.4c8.5,4.7,16.6-3.2,17.1-12.1
		c5.7,2.8,10.4-1,15-4.1c-1.4,12.5-5.1,24.8-11.6,35.7c-2.6,4.3-2.7,4.2-7.2,2.4c-15.6-5.9-37.5-16.6-32.2-36.8
		C7.5,231.7,8.4,231.8,8.4,231.9z"/>
	<path class="st0" d="M492.6,249.1c-11.2-0.4-21.5-2.9-31.5-7.5c6.6-12.1,11.8-24.7,15.4-38c1.2-3,8.5-0.7,11.7-1.4
		C482.7,218.2,484,233.8,492.6,249.1z"/>
	<path class="st0" d="M586.5,171.1c-0.1,4.1-0.8,9.5-5.3,10.1c-1.1,0-2.1-0.2-2.3-1.6c-0.5-4-3-6.4-6.4-8c-2-0.5-5.7-3.2-6.9-0.4
		c-0.4,1.3,0.3,2,1.5,2.4c1.7,0.6,3.5,1,5,2c1,1.1,5,4.3,2.3,5.4c-10.7,3.1-19.9-3.1-21.9-11.4C548.5,146.6,588.1,151.2,586.5,171.1
		z"/>
	<path class="st0" d="M460.3,198.4c4.4,1.2,8.6,2.4,12.8,3.6c-0.2,5.2-10.4,30.8-15.3,38c-6.8-3.5-12.9-8-18.7-13.3
		C448.6,219,455.8,209.7,460.3,198.4z"/>
	<path class="st0" d="M73.1,278.3c11.1-15.8,15.3-33.4,14.9-52.5c2.6,1.4,6.2,1.4,7.8,3.6c4.5,15.3,3.8,30.1-3.9,44.2
		C88.6,282.7,80.7,278.4,73.1,278.3z"/>
	<path class="st0" d="M123.4,274.9c4.2-14.8-0.7-30.4-9.1-42.8c3.8-0.8,7.6-1.5,11.6-2.3c2.7,7.8,9.3,15.2,15.8,20.9
		c1.2,1.1,1.7,2.1,1.7,3.8c-0.5,3.5,1.5,7.9-0.2,11C137.1,269.7,130.4,273.5,123.4,274.9z"/>
	<path class="st0" d="M509,193.6c6.2,19.2,18.6,32.7,36.7,41.7c-5.8,2.2-11,6.6-16.9,6.7c-15.2-9.7-25.8-27.4-22.1-45.8
		C507,194.6,507,194.6,509,193.6z"/>
	<path class="st0" d="M184.5,331.2c1.2-9.5,4.9-21.4,14.2-25.5c1.1-0.2,1.6,0,2.1,0.9c3.6,6.8,9,12.8,15.7,16.6
		c-1.1,3.4-0.2,8.2-2.6,10.6C203.9,335.1,193.9,334.7,184.5,331.2z"/>
	<path class="st0" d="M108.8,107.1c-1.3-15.1,3.3-30.1,13.4-41.3c8.8-10.4,11.3,3.4,13.6,10.4c-2.5,4.2-4.5,9.1-7.4,13.3
		C121.2,94.4,114.7,100.1,108.8,107.1z"/>
	<path class="st0" d="M395.3,314.8c-11.3,5.4-18.8,14.2-23.7,25.4c-4.7-5.3-9.6-10-14.8-14.8c-0.5-0.5-0.9-1.5-0.8-2.1
		c0.7-3.4,1.9-8.9,5.9-9.6c7.3,0.9,13.8-1.2,19.6-5.6c0.9-0.7,1.6-0.8,2.5-0.2C387.7,310.3,391.7,312.2,395.3,314.8z"/>
	<path class="st0" d="M456.9,197.1c-3.1,9.3-12.4,21.5-20.4,26.8c-4-2.6-14-15.7-14.5-19.1c13.6,1.3,18.1-7.3,20.2-18.2
		C447,190,451.9,193.5,456.9,197.1z"/>
	<path class="st0" d="M582.8,155.9c-12-9.3-34.7-6.9-34.3,11.6c-7-1.9-7.4-10.9-5.2-16.5c2.9-8.4,11.7-13.7,21.1-12.8
		C573,138.7,585,146.3,582.8,155.9z"/>
	<path class="st0" d="M37.9,220.6c-10.5-7.1-20.3-1.7-27.7,7.8c-10.3-1.8-7-16.2,0-20.3C19.7,198.9,46.5,204.4,37.9,220.6z"/>
	<path class="st0" d="M39.6,233c1,9.3-12.6,17.3-12.2,6.2c0.1-1.9,2.6-4.9,0.1-6.1c-6.2-1.6-0.4,19.1-11.5,13.9
		C-1.7,232.7,36.1,204.7,39.6,233z"/>
	<path class="st0" d="M59.8,212.9c1,8.7-9.8,27.5-17.7,14.9c-1.3-2.9-1.3-5.2,0.3-8c2.6-5.8-1.1-9,2.8-17.1c0.2-0.7,0.6-1.5,1.1-1.8
		C54.9,195.8,59.8,205.3,59.8,212.9z"/>
	<path class="st0" d="M268.4,5.6c-7.6,7-13.4,15.5-18.1,24.6c-1.9,3.2-6.5,13-9.7,5.7c-2.8-7.6-0.3-15.7,0.4-23.5
		C240.6,8.6,264,6.9,268.4,5.6z"/>
	<path class="st0" d="M543.4,169.1c-10.7,8.2-21.3-7.1-22.5-17c-1.8-7.1,8-12.1,13.2-7.5C545.1,152.6,532.7,158.2,543.4,169.1z"/>
	<path class="st0" d="M227.8,357.3c5.9,5.1,10.9,10.7,14.9,17.1c1.6,4.3-8.6,5-11.5,5.6c-2.7,0.4-4.7-0.3-6.5-2.5
		c-3.6-4.4-8.1-7.5-12.9-10.6C218.2,365.2,223.6,362.3,227.8,357.3z"/>
	<path class="st0" d="M10.9,203.2c-3.8-21.4,37.5-16.1,29.4,3.5C31.4,197.8,21.4,198.9,10.9,203.2z"/>
	<path class="st0" d="M541.2,146.4c-5.8-4.3-2.1-9.2,1-14.1c5.7-8.5,21.6-7.5,25.6,2.6C556.6,133.6,547.5,136.6,541.2,146.4z"/>
	<path class="st0" d="M117.5,135.3c-3-7.5-7.7-15.5-7.5-23.6c4.5-5.9,9.7-11.9,16-15.6c-4.9,12.6-7.4,25.6-7.9,39.1
		C117.9,135.2,117.7,135.2,117.5,135.3z"/>
	<path class="st0" d="M562.2,218.8c2.3,1.2,15.3,5.5,11.6,8.6c-3,2.8-5.2,11.1-10.2,8.8c-2.2-1.9-12.8-4.3-9.6-7.9
		C556.6,225.1,558.5,220.9,562.2,218.8z"/>
	<path class="st0" d="M390.9,408.8c28.9,5.4,57.8,6.1,86.6,1.5C474.6,419.9,395.8,416.5,390.9,408.8z"/>
	<path class="st0" d="M74.7,254.3c-16-2.8-10.1-2.8-7.9-16.3c1-3.8,8.8,1.1,11.7,1c4.4,1.5-1,9.9-0.9,13.5
		C77.2,253.9,76.1,254.1,74.7,254.3z"/>
	<path class="st0" d="M245.8,405.2c-17.1,8-66.2,13.6-82.4,3.5c0.1-0.2,0.2-0.4,0.3-0.6c26.7,6.4,55.4,2.8,81.9-3.5
		C245.6,404.8,245.7,405,245.8,405.2z"/>
	<path class="st0" d="M83.7,211.2c-1.3,5.2-10.1-0.9-13.8-1c-3.8-1.1-2.8-6.4-4-9.5c-0.3-6.5,10,0.3,13.3,0.6
		C82.7,203.1,82.3,208,83.7,211.2z"/>
	<path class="st0" d="M43.4,282.4c7.3-10.8,8-7.8,19.1-4.5c3.3,1.3-2,5.2-2.7,7.2C57.8,288.6,46.9,283.4,43.4,282.4z"/>
	<path class="st0" d="M446.2,128.3c-3,2.5-5.8,4.8-8.6,7.1c-6.1-6.9-10.7-14.5-14.1-22.9C430,118.9,437.3,124.3,446.2,128.3z"/>
	<path class="st0" d="M432.6,380.6c6.5-9.3,19.2-9.5,30.4-3.3C452.9,379.4,442.9,380.3,432.6,380.6z"/>
	<path class="st0" d="M268.3,179.9c-9.4,2.9-46.7,5.1-55.5,3.3C231.2,180.5,249.7,179.6,268.3,179.9z"/>
	<path class="st0" d="M205.6,381.6c-9.5,0.5-19,1-28.5-0.6C185,373.2,197.1,376,205.6,381.6z"/>
	<path class="st0" d="M518.8,159.1c1.2,2.4,2.3,4.6,3.5,6.9c-2.5,1.2-10.7,11.8-12.7,8.3C504,167.5,514.9,163.7,518.8,159.1z"/>
	<path class="st0" d="M352.2,321.7c-1.7-1.2-3.4-2.6-5.2-3.9c1.4-2.5,2.9-5,4.3-7.6c1.7,0.8,3.4,1.6,5,2.3
		C354.9,315.6,353.6,318.6,352.2,321.7z"/>
	<path class="st0" d="M133.7,237.4c4.1,1.6,7.8,3.1,11.7,4.7c-0.4,1.6-0.8,3.6-1.4,6.3C140.4,244.5,137.2,241,133.7,237.4z"/>
	<path class="st0" d="M318.2,127.7c-14.9,3.7-30.1,6.4-45.5,7.7c-1.5,0.1-1.9-0.3-2.3-1.6c-9.8-37.2,44.7-60.9,68.1-26.4
		c-2.1,1-3.6,2.9-5.8,2.9C323.4,109.4,317.3,119,318.2,127.7z"/>
	<path class="st0" d="M343.8,126.6c-1.7,37.3-55.9,45.1-71.6,12.5c5.5-0.6,10.5-1.2,15.7-1.7c-1.9,31.1,44.9,21.9,31.2-6.4
		c5.5-1,11,0.7,15.9-2.8C337.6,127.1,340.8,127.2,343.8,126.6z"/>
	<path class="st0" d="M274.8,149.8c-41.7-49.7,42.1-97.5,74.7-47.6c-2.7,0.9-5.2,1.8-8,2.8c-29.5-43.4-102-0.3-66.4,44.6
		C275,149.7,274.9,149.8,274.8,149.8z"/>
	<path class="st0" d="M354.9,119.4c2.7,29-26.9,48-53.6,44.4c0-0.1,0-0.3,0-0.4c23,2.5,46.6-14,46.1-38.3
		C347.5,121.6,352.5,121.6,354.9,119.4z"/>
	<path class="st0" d="M296,136c2.9-0.5,5.8-1.1,8.7-1.6C304.6,139.2,297.8,140.4,296,136z"/>
	<path class="st0" d="M169.1,132.1c3-6.8-4.2-10.8-2.7-15.1c7.8-16.2,30.6-23.5,42.6-7.5c7.8,8.4,7.2,19.6,4.1,29.8
		c-0.2,0.9-0.6,1.2-1.5,1.1C197.3,138.4,183,136,169.1,132.1z"/>
	<path class="st0" d="M161.4,134.2c7.9,1.5,15.1,3.4,22.9,5.2c-3.6,10.6,2.5,20.8,13.6,22.2C180.2,180.3,158.7,153.5,161.4,134.2z"
		/>
	<path class="st0" d="M162.8,115.8c-1.3-0.5-2.6-1.1-4-1.7c9.7-20.3,40.9-32,53-7.4C197.6,89.5,172.2,97.1,162.8,115.8z"/>
	<path class="st0" d="M152.7,132.1c2.7,1.7,5.7,1.1,5.2,5c-0.2,13.7,6.1,26,18.5,32.6C158,169.1,149.9,148.2,152.7,132.1z"/>
	<path class="st0" d="M190.6,140.7c2.7,0.5,5.2,1,7.8,1.4C196.9,145.8,191.1,144.7,190.6,140.7z"/>
	<path class="st0" d="M519.7,199.2c11.9-12.5,9.5-12.9,19.3,0.5c2.8,4.8-5.9,7.7-8.3,11.1C528.4,214.4,520.9,201.4,519.7,199.2z"/>
</g>
</svg>
