<?xml version="1.0" encoding="utf-8"?>
<!-- Generator: Adobe Illustrator 26.0.0, SVG Export Plug-In . SVG Version: 6.00 Build 0)  -->
<svg version="1.1" id="Capa_1" xmlns="http://www.w3.org/2000/svg" xmlns:xlink="http://www.w3.org/1999/xlink" x="0px" y="0px"
	 viewBox="0 0 595.3 532.8" style="enable-background:new 0 0 595.3 532.8;" xml:space="preserve">
<style type="text/css">
	.st0{fill:#FFFFFF;}
</style>
<g>
	<path d="M593.7,70.8c-6.1-42.4-58.2-68.8-89.2-32.9c-22.4,8.5-45.7,14.6-67.4,24.6c-14.7-3.5-16.9-0.9-29.9,3.9
		c2.8-13.8,2.4-9.9,10.2-19.9c7-12.2-23.2-9.3-29.2-7.7c-14.2,3.3-25,11.1-31.5,24.5c-10.2-3.1-11.2,2.5-14.4-6.6
		C297.8-24.6,147.4-19,123.7,76.6c-17.3-5.1-37,8.3-32.7,27.4c-6.8,1.2-12.4,4.1-16,10.3c-18.5-8.9-18.7-21.3-26-37.4
		c-10.8-12.4-23.6,8.6-27.6,17.7c-14.5,28.9-7.8,66,17.6,86.6c2.7,2.2,0.3,8,1.3,11.5c0.8,6.7,4.2,12.3,8.7,17.2
		c0.8,0.9,0.9,1.6,0.4,2.7c-5.9,14.1-14.6,30.2-5.5,44.9c-39.1,28.7-78,133.7,6.4,117.2c5-1.2,5.2-1.3,7.3,3.5
		c2.2,4.7,3.9,9.6,5.8,14.5c6.9,15.1,27.3,4.2,21.7-12.5c3.4,6,9.9,9.1,16.6,7c19.3-7.2,5.2-37.6-6.4-46.7c2.8,0.8,6.2,0.2,8.2,2.4
		c2.8,4.8,5.3,9.9,7.6,14.9c4.5,7.5,13.5,9.3,20.4,4.1c1.3-1,2.1-0.8,3.4-0.1c10.4,5.6,20.9,4.6,30.7-1.7c2.8,5.5,6.7,9.9,11.5,13.6
		c0.4,0.3,0.5,1.3,0.3,1.9c-6.5,32.5-11.3,65.4-14.3,98.5c-1.5,3-5.2,4.8-7.6,7.2c-0.4,0.3-1.1,0.6-1.5,0.4c-5.4-1.6-8,4.7-10.1,8.5
		c-4.4,10.3,1.3,11.2,1,17.5c-3.3,25.1,14,23.4,33,25.3c13.3-0.2,46,1.9,50.3-13.9c2.9-9.7,2.9-19.4,0.9-29.2
		c-0.6-3.1-2-5.8-4.9-7.4c-0.4-0.2-0.7-1.1-0.8-1.6c-5.5-33.4-9.6-67-11.5-100.8c0-0.5,0.2-1.3,0.6-1.6c3-2.3,6-4.5,9.2-6.9
		c15.5,19.8,44.7,14,58.2-4.9c1.1-1.3,2.7-1.1,3,0.7c6.3,38.3,6.1,77.8-4.8,115.4c-1.6,3.3-4.6,1.1-6.2,9.1
		c-1.4,7.6-1.5,32.8,8.1,34.3c19,5.2,38.7,7.2,58.3,6.4c13-0.8,35,0.7,35.5-17.2c0.8-9.2-3-16.3-9.5-22.4c-2.4-2.2-4.8-4.8-8.7-3.9
		c-1-3.4-3.1-5.5-5.8-7.4c-3-2.6-9.6-5.8-10.5-9.6c-1.5-11.9-2.7-23.9-4.5-35.7c-3.8-25.1-9.8-49.8-17.5-74
		c-0.4-1.2-0.1-1.8,0.7-2.5c5.2-4.6,8.6-10.7,11.7-16.9c24.3,6.1,36.7-8.1,35.4-31.1c17.4,4.2,25.5-15.5,22.1-29.8
		c-0.7-4.4-2-8.7-3-13.1c13.5-4.7,16.2-8.1,17.9-22.7c81.1,23,147.3-21.7,118.9-109.3c4.3-0.7,8.3-3.1,12.5-2.3
		C572.3,147.6,602.6,106.5,593.7,70.8z M66.2,301.9c0.7-1.6,1.3-2.9,2.1-4.6c0.7,1.6,1.1,2.8,1.7,4.2
		C68.7,301.6,67.6,301.7,66.2,301.9z M75.5,363.5c0.8-0.7,2.2-1.6,3.3-2.5c3.3,5.1,4,11,5.1,16C81.5,373,78.5,368.4,75.5,363.5z
		 M362.8,94.3c-0.6-0.8-1.2-1.7-1.8-2.4c4.5-6.1,2.2-7.7,10.3-6C370.4,90.5,367.5,93.2,362.8,94.3z M460.3,186.9
		c-2.8,25-44.4,20.2-61.5,14.6c4.6-14.7-1.8-26.5-9.6-37.6c9.5-1.5,19.2-4.1,24.6-12.7c0.8-1.1,1.7-1.8,3.1-2.1
		c7-1.4,14-2.9,21.1-4.3c2.7-0.3,4.8,2.3,7.2,3C453.3,150.7,461.7,178.4,460.3,186.9z"/>
	<path class="st0" d="M374.2,149.7c0.2,10.3,4.7,9.5,10.7,15c11.1,13,17.6,32.7,3.4,46c-1.5,1.5-1.6,2.7-0.6,4.6
		c5.8,11,11.9,23.2,10.2,36.1c-2.4,16-21.4,11-17.9,17.4c6.2,13.2,7.6,42.8-14,39c-5-1-5-1-4.7,4c2,21.2-9.9,32.6-30.9,26.9
		c-2.5-0.4-2.7-0.3-4,1.9c-7.9,19.2-24.4,28.7-44.5,20.7c-1.8-0.6-3-0.3-4.2,1.3c-12.1,18.9-40.9,24.5-54.8,4.3
		c-1.2-1.4-2.2-1.3-3.6,0c-13.9,19.1-42.9,9.5-51.1-10.1c-3-7.2-12.3,13.1-32.9,0.8c5.5-20.2-14.8-40.2-33.4-44
		c-4.4-0.8-8.4-2-11.7-5.6c-3.5-3.9-8.6-5.2-13.7-6.1c-5.4-1.7-6.2-9.5-3.4-13.8c2-3.1,4.1-6.2,6.2-9.5c1.9,2.1,6.4,10.7,9.3,7.9
		c1-1.1,0.5-2-0.4-2.9c-8.2-6.9-9-18.5-6.2-28.2c2.9-9.7-13.6,7.3-21.7-10.4c-0.8-1.8-1.4-4.9-3.8-4.6c-0.6,0.2-1.5,2.2-1,3
		c1.1,3.4,1.1,3.4-1.7,5.7c-2.3,1.9-4.6,3.8-7.1,5.9c-8.1-13.6,1.1-29.5,6.6-42.4c0.7-1.6,0.6-2.7-0.6-4c-6.5-6.1-9.7-14.2-9.3-23.2
		c7.1,4.2,13.9,8.6,21.7,11.7c1.2,0.5,1.7,1.1,1.6,2.5c-0.1,1.3,0,2.7,0.4,3.8c1,1.8,3.2,1.8,3.6-0.5c-2.4-16.4,15.9-15.6,19-21.8
		c-1.8-20.2,23.4-24.6,16.2-28.7c-9.9-3.5-11.7-12.2-7.4-21.3c0.8-2.6,6.6-7.5,1.2-8.4c-7.4-1.2-14.5-3.4-21.3-6.7
		c2.8-5.9,9-7.4,14.8-8.5c1.8-0.4,2.4-1.2,1.9-2.9c-6.1-18.9,16.4-31,33.3-22.4c2.8,1.1,3.8,0.4,3.6-2.5
		c-1.1-23.3,28.4-21.5,40.9-9.1c1.8,1.9,5,2.8,4.7-0.9c-2.3-11.6,9.3-20.3,20.1-18.2c11.9,1.5,20.1,9.2,26.3,18.8
		c5.5,7.7,7.4-28.8,37-23.2c16.3,0.6,26.7,11.1,23.3,27.7c0.4,2.2,1.2,3.3,3.3,1.8c10.5-11.4,32.1-15.5,40.6,0.3
		c-10.9,4.4-9.7,13.4-8.4,22.3c-59.5,13.6,9,111.5,41.8,59.3c3.4-3.8,7.9-6.4,11.9-9.5C373.9,149.4,374,149.6,374.2,149.7z
		 M159.3,153c16.6,49.7,98.3,34.8,91.2-18.8c-11.3-51.4-82.3-44.8-94.9,3.2C135.5,134.5,142.4,160.2,159.3,153z M276.5,266.5
		c26.9-0.7,53.2-2.4,74.9-18.5c17.4-12,21.1-41.2,1.7-53.1c-15.1-9.9-33.1-3.8-49.7-2.7c-22.5,1.9-44.8,0.3-66.9-5.1
		c-9.5-2.3-19-3.5-28.7-1.7c-26.4,4.9-32.3,34.9-22.3,50.3C205.1,263.9,246.3,264.6,276.5,266.5z"/>
	<path class="st0" d="M526.6,131.4c-41.6,8.6-94.5,38.4-105-24.8c-6.4-47.6,48.3-50,80.7-63.7C484.1,73.2,496,114.3,526.6,131.4z"/>
	<path class="st0" d="M135.5,57c15.5-37.3,59.1-40.3,94.5-41c44,1.2,106.9,8.5,115.6,61.1c-28.7-24-66.8-34.2-103.5-35.7
		C206.4,40,166.8,37.3,135.5,57z"/>
	<path class="st0" d="M591.4,84c-8.9,88.5-114.3,43.4-90.5-29.5C524.9-3.2,592.1,30.7,591.4,84z M515.1,71.7c-0.2,0-0.3,0.1-0.5,0.1
		c1.8,18.7,7.5,37.7,24.2,48.4c38.1,21.7,57.6-29.5,44.2-59.3C566.8,15.7,515.2,22.4,515.1,71.7z"/>
	<path class="st0" d="M88.2,311.2c-2.2,0-4.1-0.2-5.9,0c-9,1.1-10.9,13.7-2,16.8c3.6,1.5,7.3,2.8,10.9,4.4c3.6,1.1,1.9,3.1,0.9,5.9
		c-8.4-5-21.8-12.4-31.4-9.9c-6.2,2.4-7.6,10.2-2.4,14.4c6.8,4.3,13.9,7.9,18.6,15c-1.5,1.1-3,2.2-4.5,3.4
		c-6.3-5.8-26.4-17.4-30-4.1c-1.3,6.5,5.8,9,9.7,13.2c-7.6,2-14.8,3.4-22.3,2.6c-5.2,0.4-7.9-2.6-10.2-6.9
		C-2.3,330.4,63.2,290.2,88.2,311.2z"/>
	<path class="st0" d="M346.1,483.3c-11.6-1.3-21.5,2.7-30.5,9.4c-1.2,0.6-2.4,2.2-2.3,3.4c0.2,0.6,1.3,1.3,2,1.3
		c15-0.2,30.4,1.8,44.8-3.3c5.2,4.3,9.4,9.6,10.1,17c0.3,3.8-0.2,5.3-3.8,6.5c-28.6,7.9-59.8,4.5-88.5-1.9c-1.1-0.2-1.7-0.6-1.8-1.9
		c-0.7-7.7-2.4-16.1,0.2-23.6c3.6,4.8,20.8,9.1,24.7,4.6C311.2,481.6,332.3,467.7,346.1,483.3z"/>
	<path class="st0" d="M18.3,136.1c17.1-4.6,30.5-14.5,41.5-28.3c4.3,4.6,9.3,8,14.9,10.7c3.1,1.5,3,1.5,2.8,5.1
		c-1.1,23.2-15.3,41.4-32.9,55.2c-0.8,0.8-1.5,0.9-2.5,0.1C29,167.7,20.2,153.4,18.3,136.1z"/>
	<path class="st0" d="M157.9,489.1c-0.1-1.9-0.9-3.8,0.4-5.4c10-10.8,27.1-13,40.9-9.1c17.7,5.1,22.4,21.9,26.3,15.3
		c1.4,7.2,1,14,0.6,21.3c-0.2,3.2-2.4,5.3-5.3,6c-6.7,1.5-13.3,3.1-20.1,4c-15.8,1.8-32,1-47.4-2.7c-10.1-1.9-3.2-17.9,1.8-22.2
		c1.4-1.3,2.9-1.8,5-1.4c15.9,2.5,32.2,4.3,48.3,1.5c2.1-0.4,2.6-2.1,1.1-3.5C196.3,478.3,172.5,475.3,157.9,489.1z"/>
	<path class="st0" d="M371.2,105.4c15.4,7.6,21.2,2.8,29.7-10.5c4.7,3.9,9.8,6.7,16.5,3.1c-0.2,17.1,4.8,31.8,17.9,43.5
		c-10.9,2.3-21.2,4.3-31.9,6.7C380.1,153.3,364,125.6,371.2,105.4z"/>
	<path class="st0" d="M517.6,137.8c0.8,5,8.1,27,4.3,29.5c-13.9,13.4-34.8,16.3-52.1,7.9c-4.9-2.1-8.7-4.6-9.8-10.4
		c-0.6-3-2.3-5.8-3.6-8.8c19.3,1.6,41.6,0.3,55.2-15.3C513.2,139,514.8,137.9,517.6,137.8z"/>
	<path class="st0" d="M343.9,110.8c-4.2,3-6.5,6.3-8.2,10.3c-0.3,0.6-1.5,1.1-2.3,1.2c-7.5,0.9-13.9,6.5-15.7,13.9
		c-4.4,15.6,14.5,29.2,28.1,19.8c2.6-1.4,8.4,2,11.6,2.6c-19.3,29.4-59.7-5.6-56.7-32.8c-0.5-16.6,17.1-27.8,32.1-20.8
		C336.5,106.4,339.9,108.7,343.9,110.8z"/>
	<path class="st0" d="M96.7,126.3c-5.5,10.5-7.1,20.4,4.3,28.1c-7.5,6.2-15,13.4-14.8,23.9c0,1.4-0.6,2-1.8,2.5
		c-6.5,2.9-13.4,6.1-16.4,13.2c-7.6-3.2-14.8-6.7-21.5-11.8c19.9-15.4,33.7-34.3,34.9-60.4C86.5,123.3,91.5,124.8,96.7,126.3z"/>
	<path class="st0" d="M523.5,171c0.9,10.8-0.9,20.4-3.6,30.6c-0.1,0.6-0.6,1.4-1.2,1.6c-20.7,10.7-58.3,1.4-54.7-26.6
		C482.8,187.5,507.3,186.2,523.5,171z"/>
	<path class="st0" d="M288.5,452.9c15,4.2,30.1,5.2,45.6,4.3c0.5,5.1,1,10,1.5,14.7c-30.7,1.9-31.6,21.5-42.2,20.7
		c-3-0.4-14.6-1.3-12.7-6C284.6,475.7,285.9,464.2,288.5,452.9z"/>
	<path class="st0" d="M333.8,453.4c-15.4,1.1-30.1-0.2-44.6-4.3c0.7-9.2,1.4-18.3,2.1-26.9c12.3-0.4,24.6-0.8,37.4-1.2
		C330.3,431.4,332,442.3,333.8,453.4z"/>
	<path class="st0" d="M17.8,132.2c-1.1-17.9,4.4-35.7,15.5-49.7c7.1-8.4,13.4-7.5,15.6,3.7c1.5,6.2,3.8,12.1,7.5,17.3
		c0.6,0.9,0.7,1.5,0,2.4C46.3,118.6,33.7,128.1,17.8,132.2z"/>
	<path class="st0" d="M367.2,81.5c-0.9-3.7-1.4-7-2.5-10.1c-0.5-3-5.9-4.6-3.9-7.9c9.3-19.1,32.8-25.1,52.3-21
		c4.2,0.7-3.7,7.5-4.8,8.7c-4.2,2.7-2.8,13.3-6.7,15.1c-10.5,1.2-18.9,7.3-26,14.7C373.5,82.9,369.5,81.5,367.2,81.5z"/>
	<path class="st0" d="M212,429.7c1.2,8.9,2.3,17.6,3.5,26.8c-15,3.6-30.5,5.9-45-0.8c-1.2-0.5-1.8-1.1-1.6-2.6
		c1.3-8.3,1.7-16.8,3.2-25C185.2,432,198.4,432.5,212,429.7z"/>
	<path class="st0" d="M463.1,193.6c12.3,17.5,34.9,22.1,54.5,14.2c-5.4,11.3-13.4,21.6-24.5,27.1
		C474.3,234.8,447.2,212.2,463.1,193.6z"/>
	<path class="st0" d="M289.7,384.4c9.9,0.6,19.6-0.6,29.6-3.6c2.9,11.9,5.7,23.7,8.6,35.7c-12.4,1.7-24.4,2.1-36.4,1.2
		C290.9,406.6,290.3,395.7,289.7,384.4z"/>
	<path class="st0" d="M211.6,425.8c-13.3,2.8-26.2,2.4-39.2-1.7c1.8-10.6,3.5-21,5.3-31.8c10.3,2.8,20.6,3.8,31.1,2.2
		C209.8,405,210.7,415.3,211.6,425.8z"/>
	<path class="st0" d="M107.3,375.1c0.1,8.8-14.1,12.5-18.1,4.1c-4.8-16.8-8.5-28.7-25.1-37.3c-7.5-2.5-6.6-11.2,1.4-10.4
		C87.4,335.4,107.8,350.7,107.3,375.1z"/>
	<path class="st0" d="M85.1,314.7c53.2,0.7,58.9,60.4,30.6,42.8c-7.6-16.2-14.1-27.4-32.5-32.6C75.1,322.9,77.7,314.4,85.1,314.7z"
		/>
	<path class="st0" d="M437.9,209.1c-5.3,15.2-4.4,28.7,10,38.5c-5.6,0.3-34.1-0.3-35.8-5.2c-5.4-10.9-5-21.6,1.2-32.1
		c0.6-1,1.2-1.4,2.5-1.4C423.2,209.2,430.6,208.8,437.9,209.1z"/>
	<path class="st0" d="M454.4,204.2c2.4,19.9,14.9,30,34.1,33.9c-9.6,5.6-20.3,8.2-31.3,9.3c-17.5-3.6-22.3-23.9-15-38.5
		C445.7,206.5,450.3,205.9,454.4,204.2z"/>
	<path class="st0" d="M171.9,19.7c42.9-26,105.9-17.2,139.1,7.8C267.1,9.8,217.6,7.5,171.9,19.7z"/>
	<path class="st0" d="M173.3,66c-10.7-7.4-22.1-11.5-35.2-5.9c31-19.5,70.5-16.4,105.6-14.6c-8.8,4.5-14.4,11.3-18.1,20
		C213.6,46.5,178.7,37.1,173.3,66z"/>
	<path class="st0" d="M73.3,395.9c-3,0-5.1-1.5-6.2-4.4c-1.6-4.3-3.1-8.6-4.8-12.8c-3-7.2-8.5-12.4-14.4-17.2
		c-1.5-1.2-2.3-2.5-1.5-4.4C59.5,344,100.4,391.2,73.3,395.9z"/>
	<path class="st0" d="M62.8,299.3c-8.8-11.3-20.1-18-35-18.5c4.4-5.9,9.9-11,14.8-16.6c0.9-1,1.6-1.1,2.8-0.4
		c4.8,2.6,26.6,17.2,24.6,22.4C67.6,290.5,65.2,294.8,62.8,299.3z"/>
	<path class="st0" d="M404.9,69.7c-7.2,7.3-10.1,12.1-7.1,22.2c-4.2,10.2-14.6,18.7-24.4,9.3C365.7,88.6,392.7,68.7,404.9,69.7z"/>
	<path class="st0" d="M356.1,115.6c2.6,3.9,5.9,4.6,9.8,4.1c1.1,9.7,4.8,18.1,12.4,25.1c-4.8,1-9.2,2.1-13.6,2.6
		C348.8,147.7,343.6,123.8,356.1,115.6z"/>
	<path class="st0" d="M432.8,65.6c-7.8,6.4-12,14.9-14.2,24.3c-2.9,10.9-17.8,4.4-18.2-4.4C402.1,71.6,419.3,61.9,432.8,65.6z"/>
	<path class="st0" d="M216,459.8c1.3,7.9,2.6,15.5,3.9,23.5c-14-14.6-34.4-17.8-52.9-10.4c0.4-4.8,0.8-9.2,1.2-14
		C183.6,465.5,200.2,464.8,216,459.8z"/>
	<path class="st0" d="M77.9,256.7c-1,5.7-1.4,11.1,0,16.7c-0.3,3-3.2,5.1-4.8,7.9c-7.4-8.5-16-15.5-26.3-21.1
		c4.1-3.5,8.1-6.8,12.2-10.3C63.3,256.1,70.5,259.1,77.9,256.7z"/>
	<path class="st0" d="M60.2,302.8c-12.5,5.7-14.9-14.8-44.5-3.7c2.3-4.6,5.2-8.7,8.1-13.1C34.8,280.6,54.8,292.6,60.2,302.8z"/>
	<path class="st0" d="M289,380.5c-0.7-4.6-1.3-9-2-13.6c9.4,2,18.3,1.5,26.8-3.8c1.5,4.8,2.8,9.3,4.3,14.1
		C308.5,380.2,298.9,381.2,289,380.5z"/>
	<path class="st0" d="M397.3,205.2c4.1,1.1,8.3,2.1,12.7,3.3c-6.5,11.1-7.3,22.7-1.6,35c-2.2-0.9-6.4-0.6-6.8-2.7
		c-1.7-9.2-5.5-17.6-9.8-25.8c-0.6-1.1-0.5-1.8,0.3-2.7C393.9,210,395.5,207.6,397.3,205.2z"/>
	<path class="st0" d="M354.5,112.4c-17.4,11.6-9,38,10.4,39.2C339.3,166.6,324.9,111.5,354.5,112.4z"/>
	<path class="st0" d="M208,380c0.2,3.8,0.4,7.2,0.6,10.6c-5.7,2.1-22.5,0.9-30.1-2c0.8-4,1.6-8,2.5-12.2
		C189.7,380.8,198.4,382.8,208,380z"/>
	<path class="st0" d="M203.9,492.9c-6.2,1.8-32.9,0.7-41.9-1.8C168.3,480.9,193.2,481.9,203.9,492.9z"/>
	<path class="st0" d="M29.2,317.5C13,331.7,6.2,348,16.8,369C-9,353.4,9.1,327.9,29.2,317.5z"/>
	<path class="st0" d="M351.8,88.6c-1.6-7.5-3.2-14.9-4.8-22.3C363.8,61.7,369.6,92.3,351.8,88.6z"/>
	<path class="st0" d="M289.6,69.8c-0.9-7.1-3.1-13.1-7.3-18.8c12.3,2.8,24.4,6.8,35.8,12.7C307.5,61.1,298,63.6,289.6,69.8z"/>
	<path class="st0" d="M278.4,519.8c29.2,5.9,60.9,9.6,89.9,1.4c0.1,0.1,0.2,0.3,0.3,0.4c-13.7,11.8-74.7,7.5-90.5-1.3
		C278.2,520.1,278.3,519.9,278.4,519.8z"/>
	<path class="st0" d="M48.4,305.9C33.1,304,19.9,306.6,8.1,317c0.7-2,1.2-3.7,1.8-5.3c3.5-8.3,1.1-6.7,10.4-10.1
		c9.7-3.7,19.7-2.5,28.2,3.8C48.5,305.6,48.5,305.7,48.4,305.9z"/>
	<path class="st0" d="M223.2,520.7c-4.8,10.8-67.5,11.7-72.8,1.3C174.8,527.2,199.1,527.5,223.2,520.7z"/>
	<path class="st0" d="M409.2,150.9c-6.3,7.3-16,10.2-25.1,7.9c-4.6-1-7.4-6.3-5.3-10.2c1.3-0.4,3.1-0.7,4.2-0.1
		C391.1,153.7,400.2,152.9,409.2,150.9z"/>
	<path class="st0" d="M506.2,140.5c-13.5,12-29.7,13-46.5,11.9c-5.3-0.3-5.3-0.5-5.9-1.7C471.8,151.5,488.8,143.7,506.2,140.5z"/>
	<path class="st0" d="M4,335.1c0.9-3.5,0.7-7.6,2.6-10.7c7.8-9,18.3-15.4,30.5-15.2C23.9,315.1,12.1,322.6,4,335.1z"/>
	<path class="st0" d="M353,492.1c-10.5,2.1-21.1,1.8-31.7,1.5c6.3-5,14.4-6.7,22.3-6.4C347.3,487.4,349.9,490.2,353,492.1z"/>
	<path class="st0" d="M365.2,115.8c-11.2,2.1-6.7-18,2.7-19.2c0.9,2.7,0.7,5.3-0.3,8.1C366.4,108.2,366,112,365.2,115.8z"/>
	<path class="st0" d="M327.4,68.5c6.4,4.5,12.8,8.9,18.4,14.4c2.2,2,1.3,4.7,1.7,7.2c-4.4,3.4-6.6,8.1-8,13.4
		c-0.4,0.4-1.1-0.3-1.3-0.3c4.9-9.7,8.6-21.5-4.5-26c-2.9-1.8-4.3-5.7-6.4-8.4C327.3,68.6,327.4,68.5,327.4,68.5z"/>
	<path class="st0" d="M147,500.5c-2.6-5.3,0.9-10.1,3.7-14.3c0.4-0.6,1.8-1.1,2-0.9c0.6,0.6,1.4,1.7,1.2,2.4
		C153.2,493.9,150,495.4,147,500.5z"/>
	<path class="st0" d="M333.6,129.3c0.5,3.6,1.1,7.2,1.6,10.8C330.1,139.2,329,131.6,333.6,129.3z"/>
	<path class="st0" d="M178.5,142c4.2,1.1,8.5,0.9,11.9-1.3c16.3-6.8,39,0.5,53.6,9.2c1.4,0.9,1.7,1.6,1,3.1
		c-13.1,35.3-70,35.8-81.6-0.7c-0.8-2.4,0.4-1.7,2-2.6C169.1,145.8,176.1,147.7,178.5,142z"/>
	<path class="st0" d="M246.5,146.9c-15.4-9.2-32.8-13.8-50.7-12.1c-1,0.1-1.4-0.1-1.8-1.2c-3.6-10.1-18.3-16.1-23.6-3.5
		c-2.1-0.4-4.1-0.9-6.3-1.3C180.4,85.5,254.5,98.2,246.5,146.9z"/>
	<path class="st0" d="M277.7,262.7c-30.2-1.9-67.8-1.9-88.1-27.7c-16.5-30,11.8-55.3,45.8-44.2c30.9,8.1,62.7,6.7,94.1,2.5
		c33.7-3.5,44.9,34.8,18.1,53C327.2,260.2,301.6,262.2,277.7,262.7z M279.9,232.6c19.3,0.2,38.3-3.3,56-11.1
		c3.3-0.9,1.5-5.4-1.5-3.5c-37.8,16.2-82.5,13.9-119.7-3.1c-1.3-0.6-2.5-0.8-3.2,0.7c-0.7,1.4,0.3,2.2,1.4,2.7
		C233.8,228.5,256.8,232.4,279.9,232.6z"/>
	<path class="st0" d="M573.6,88.2c-3.2,55.6-48.2,32.6-54-7.4C513.1,13.3,573.9,36.7,573.6,88.2z"/>
	<path class="st0" d="M542.2,34.7c38.8-5.3,55.1,61.2,26.8,82.6C586.1,89.7,575.7,44,542.2,34.7z"/>
</g>
</svg>
