<?xml version="1.0" encoding="utf-8"?>
<!-- Generator: Adobe Illustrator 26.0.0, SVG Export Plug-In . SVG Version: 6.00 Build 0)  -->
<svg version="1.1" id="Capa_1" xmlns="http://www.w3.org/2000/svg" xmlns:xlink="http://www.w3.org/1999/xlink" x="0px" y="0px"
	 viewBox="0 0 595.3 493.8" style="enable-background:new 0 0 595.3 493.8;" xml:space="preserve">
<style type="text/css">
	.st0{fill:#FFFFFF;}
</style>
<g>
	<path d="M595.3,150.5c-0.8-8.1-3.2-15.5-8.6-21.8c-0.9-1-1.3-1.9-1.3-3.3c0.6-6-2.4-9.4-7.7-11.9c0.4-11-6.7-19.3-17.7-19.3
		c-0.6,0-1.3-0.5-1.6-1c-3.7-7-9.8-13.2-18.2-9.8c-2,0.7-4,1.7-5.9,2.6c-1.3,0.6-2.7,2.1-3.9,1.9c-1.3-0.2-2.3-1.9-3.5-2.8
		c-1.2-0.9-2.4-2.2-4.1-1.5c-5.4,2.2-10.1-2.3-15.3-3c-3.1-0.6-5.4,1.6-5.2,4.7c0.2,4.3,3.6,7.5,5.4,11.2c0.7,1.4,0.8,3.2,1.3,4.8
		c1,3.5,5,5.2,7.4,7.7c2,1.8,0,4.9,0.4,7.2c0,1.2-0.4,1.8-1.6,2.1c-14.3,4-26.1,20.9-5.6,26.4c-3.2,9.7-7.7,37.6-19.9,37.7
		c-14.2,0.6-27.5-6.1-39.5-13.1c-2.6-2.6-4.5-6.3-6.5-8.9c11.1-9,8.5-20.3,3.7-31.6c56-55.3-6.7-139-17.1-105.8
		c-2,22-7,34.6-27.9,44.4c-3.1-18.9-25.1-25.3-41.7-25.5c13-11.1,2.6-27.5-12.6-26.8c-11.2-0.1-21.3,3.8-31.1,8.9
		c8.5-35-44-28.7-50-1.9c-10.2-18.5-37.9-24.1-53-8.5c-6.2,6.2-7.5,13.1-4.6,21.4c-6.2-2-12.5-3.5-19.1-3.3
		c-15.1-0.7-36.2,12.2-24.9,28.9c-11.9-0.5-24.3,0.7-32.6,10.2c-6.2,6.1-8.3,14.7-4.9,22.9c-3,1.3-6.3,4.5-9.8,4.5
		c-12.2-2.6-20.3-10.1-25.4-21.1c-1.5-3.2-2.5-6.7-4.2-9.9c-3.6-6.7-11.3-7.9-16.8-2.6C61.5,75.6,58,90.8,56.9,105.3
		c-2.3,28.6,16.6,53.5,40,67.8c-6.1,12.7-4.4,21.2,5.3,26.7C35.7,207.9-41.3,266,26,329.4c14.7,14.3,36.7,27.6,57.8,20.5
		c0.5-0.2,1.2,0,1.7,0.3c3.3,1.4,6.6,3,10,4.4c1.1,0.4,1.5,1,1.4,2.1c-1.5,8.4,13.4,8.3,18.9,7.5c6.8-0.5,3.5-5.7,9.6-5.3
		c4.8-0.6,9.5-1.7,14.2-2.7c2.1-0.5,3.4-2,4-4.2c1.3-4.2,1.6-8.3,0.6-12.7c0.6-3.6-0.5-10.3,1.6-13c5.2-4.9,5.5-12.3,0.8-17.8
		c-0.5-0.6-0.9-1.6-0.9-2.4c0.4-4.8-0.4-12.4,3.4-15.9c-0.3,21.7,12.5,38.5,34.8,26.7c2.7,11.3,13.3,17.4,23.6,20.7
		c-13.8,29.8-25.9,60.4-42.4,88.9c-1,1.7-1.9,3.1-4,3.5c-0.6,0.1-1.3,0.5-1.8,1c-3.4,3.9-9.1,6.9-9.9,12.5c-0.2,2.7-1.7,4.2-3.7,5.5
		c-11.6,6.4-22.7,31.7-9.7,39.9c23,8.4,71.9,6.6,92.2-7.9c2.2-1.6,3.6-3.7,3.9-6.5c1.2-11.5,0-23.3-5.6-33.6
		c-3.3-33,6.8-64.9,17.7-95.6c11.2,8.3,25.9,5.4,36.6-1.9c1-0.7,1.8-0.7,2.9-0.2c8.1,4,16.9,4.8,25.8,4.4
		c0.9,30.3-9.6,59.4-17.3,88.4c-1.1,2.5-2.7,1.8-3.6,6c-1.9,10.7-8.3,29.3,3.7,35.8c27.2,13.3,58.6,13.7,88.1,10.5
		c26-2.3,12.1-36.4-4.4-43.2c-3.7-1.4-4.4-5.4-6.6-8.3c-3.5-4.1-7.7-7.5-12.3-10.1c-1.9-1.1-3.1-2.4-3.8-4.2
		c-5.6-27.6-4.9-56.5-7.4-84.6c14.6-1.5,32.7-6.9,35.3-23.5c0.2-1.1,0.8-1,1.6-0.9c11.8,2.3,26.7-4.9,26.1-18.3
		c19.1,2.2,26.7-10.1,21.3-27.6c20.2-0.7,24.8-24.9,17.7-40.2c-0.5-1.4-1.9-3.1-1.5-4.2c0.4-1.2,2.4-1.8,3.6-2.8
		c0.8-0.7,1.4-0.6,2.2-0.1C506.5,262.2,596.6,219.4,595.3,150.5z M114.8,254.3c-0.8,1.7-2,3.3-3.2,4.7c-0.9,1-1.4,1.9-1.5,3.3
		c-0.7,3.3-2.9,6.3-4.4,9.3c-1,1.8-2,3.7-3.5,5.1c-1.5,1.5-1.2,3.2-1.5,5c-12.5-15.3-20.9-9.3-35.9-14.3c-2.3-1-2.7-1.9-1.1-3.7
		c2.4-2.8,5-5.5,7.8-7.7c10.6-8.2,22.3-14.6,34-20.9c0.4-0.2,1.2,0,1.5,0.3c4.8,6.2,5.2,6.5,13.2,9.9
		C117.6,248,116.3,251.2,114.8,254.3z"/>
	<path class="st0" d="M131.9,256.5c-0.4-2.6-2.3-5.2-1.3-7.6c1.4-1.9,5.4-6.7,0.5-6.8c-24.7,4.2-30.7-28.3-17.9-44.1
		c1.9-7.5-9.6,3.5-14.3-5.7c-7.2-12.8,5.9-24.5,15.7-31c8.1-4.4-15.2-6.5-4.5-24.6c6.8-12,21.8-14.1,9.2-18.1
		c-12.3-8.1,5.8-22.4,15.3-22.2c2.5,0.3,4.2-2.4,1.5-3.7c-0.4-0.2-1.1-0.1-1.7,0c-1.9,0.6-2.8-0.4-3.5-2c-1.9-4.2-1.3-8.2,0.8-12.1
		c7.5-14.5,25.9-16.7,40.2-12.8c4.3-1.1,0-4.3-1.8-5.6c-13.9-14.7,9.8-27,23.2-24.8c7.9,0.4,15.3,2.9,22.5,6.1
		c1.3,0.6,3.2,1.6,4-0.2c1.6-3.5-9.3-3.7-8.3-15.3c4.9-22.9,39.6-22.7,50.5-4.5c2,2,3.5,10.8,6,10c1.1-0.2,1.5-1,1.5-2.1
		c0.4-17.6,19.7-30.1,35.5-25.1c11.6,3.5,11.5,18.2,3.7,25.6c-0.8,0.8-1.1,1.8-0.2,2.7c0.9,0.9,1.8,0.8,2.7,0
		c6.5-5.9,14.3-9.3,22.6-11.8c9.2-2.7,22.8-4.8,28.1,5.5c3.3,6.1-1.7,10.9-6.2,14.5c-12.6,1.2-13.8,8.1-12.2,19.2
		c-47.2-0.4-58.9,68.4-11.5,80.5c26.8,7.4,54.2-14.3,53-42c6.6,0.5,15.1-0.5,16.8-7.4c1.7-5.7-1.3-11-5.4-13.9
		c13.7,1.3,29.6,6.7,34.1,21c0.9,3.6,0.6,7-1.9,9.9c-1.1,1.3-4.2,2-4.8,3.6c-0.1,0.6,0.7,1.7,1.3,2c5.4,3,10.4,6.5,14.5,11.2
		c6.8,7.5,12,20.7,4.7,29.6c-1.5,1.5-4.8,2-6.2,3.4c-0.2,0.7,0.3,1.8,0.8,2.5c5.7,6.9,10.4,14.3,13.7,22.6c5.4,12.4,5.8,30-8.4,36.4
		c-3,1.5-3,1.7-1.6,4.8c8.3,14.5,6.7,41.1-15.2,39.3c-0.8-0.1-2.1,0.2-2.5,0.8c-0.4,0.5,0,1.8,0.4,2.5c4.7,7.6,4.3,20.7-5.5,23.7
		c-6.9,3.5-16.1-2.8-15.1,3.5c2.1,12.6-14,18.4-24,14.9c-1.7-0.6-2.6,0-2.9,1.8c-0.6,17-20.9,23.5-35.3,22.9
		c-3.7-0.4-7.3-1.9-10.9-3c-1.4-0.4-2.4-0.5-3.3,0.7c-11.2,14.7-29.3,14.8-44.7,7.3c-1.4-0.6-2.4-0.6-3.6,0.3
		c-14.1,10.8-33.5,9.9-42.3-6.9c-0.9-1.4-1.9-1.6-3.3-0.8c-17.6,9.4-45.2,0.6-47.2-17.8c0.1-1.7-1.3-2.4-2.9-1.6
		c-19.7,13.4-34.6-3.3-31-23.9c0.4-2.2-1-3.3-3-2.4c-4.1,1.7-4.1,1.7-3.8-2.7c0.1-5.2,1.4-10.4-1.8-15.1
		C142.2,261.9,141.7,249.2,131.9,256.5z M200.6,77.7c-1.8-28.9-38.4-9.3-15.5,8.6c-1.2,1.1-2.2,2-2.9,2.6c-2.1-1.9-4-3.8-6.1-5.4
		c-17-10.6-27.7,19.2-3.5,20.9c-0.5,1.8-0.9,3.3-1.4,4.9c-26.4-11.5-26.4,29.7,0.5,17.8c6.4,25.1,36.2,38.1,59.3,26.6
		C276.9,130.6,249,64.9,200.6,77.7z M252.8,156.8c-38.5-2.9-71,10.7-67.7,54.6c5.1,54.6,58.2,82.6,108.9,75
		c103.9-5.1,122-138.7,40.5-143.8c-13.2-0.1-24.9,6.3-37.2,10.3C282.8,157.3,267.9,158.2,252.8,156.8z"/>
	<path class="st0" d="M343.6,64.1c36.4-1.7,52.4,49.1,20.9,67.7C306.3,163.7,276.8,70.1,343.6,64.1z M374.6,107.2
		c0-23-35-22.9-35.1-0.1C339.5,130.1,374.5,130.1,374.6,107.2z"/>
	<path class="st0" d="M292.1,444.3c3.7,4.5,25.4,12.1,29.2,7.3c7.8-10,17.6-18.8,30.2-22c1.8-0.6,3.7-0.3,5.3,1
		c2.7,2.2,5.5,4.3,8.4,6.5c-12.7,0.1-23.1,8.3-30.7,18.2c9.9,0.2,35.2,1.6,41.6-6.2c8.8,4.9,14.1,14.4,15.1,24.2
		c-0.9,8.9-50.6,5.7-58.9,4.9c-13.8-1.4-28.5-3-40.2-11.1c-2.1-1.6-3.3-3.4-2.8-6.2c0.8-5.5,1.5-11.1,2.2-16.6
		C291.7,444.3,291.9,444.3,292.1,444.3z"/>
	<path class="st0" d="M147,452.6c9.4,7.1,34.1,4.6,46.1,4.6c-8.6-11.9-24-19.3-38.7-15.9c8.1-16.2,30.6-6.7,40.7,3
		c3.8,3.5,7.4,7.2,11,10.9c0.7,0.8,1.3,1,2.3,0.7c6.5-1.8,12.2-4.6,17.4-8.9c2.2,6.7,2.7,13.5,3.1,20.4c0.1,1.2-0.4,2-1.4,2.6
		c-20.4,13.1-45.6,14.8-69.2,13c-6.9-0.6-13.7-1.3-20.2-3.6c-4.6-1.6-4.3-1.4-3.7-6.1C135.6,464.8,139.9,457.6,147,452.6z"/>
	<path class="st0" d="M584.8,182c-3.6,7.8-12.7,22.8-20.4,26.3c-14.7-2.3-28.7-6.6-41.5-14.6c-7.2-4.8-20.5-14.2-17-24.2
		c2.3-5.8,3.7-11.9,5.8-17.8C533.5,167.8,557.4,178.9,584.8,182z"/>
	<path class="st0" d="M99.4,287.3c-5.7,0.5-11.5,0.2-15.7,4.4c-6.9,7.2-0.9,13.3,7.2,15.9c-2.1,0.7-4.6,1.3-7,2.4
		c-5.2,2.2-7.3,9.7-2.9,13.8c4,4.3,9.9,5.5,15.2,7.5c0,0.2,0,0.4,0,0.6c-4.1,0.2-8.2-1.4-12.3,0.5c-7.1,2.7-8,10.2-2.7,14.9
		c-9.2,2-17.9,0.7-26.4-2.9c-6.4-6.6-6.3-17.3-4.6-25.8c3.5-15.8,15.8-42.1,33.8-44.1C90.8,276.5,96.5,280.6,99.4,287.3z"/>
	<path class="st0" d="M82.7,157.7c-11.8-11.3-19.8-24.5-22-40.8c-0.2-1.2,0.4-1.4,1.3-1.7c14.2-3.8,25.7-12.8,35.6-23.4
		c5.5,4.5,10.6,7.4,17.4,10.1c-1.1,3.7-3.8,7.1-3.6,11.3C106.3,130.3,95.7,145.4,82.7,157.7z"/>
	<path class="st0" d="M428.8,47.6c11.4,8.2,23,15.9,36.8,19.3c0.8,0.2,1.2,0.5,1.3,1.5c0.3,16.4-2.9,32.4-12.5,46.1
		c-7.1-4.3-41.8-46.1-36.7-52.2C422.8,58.5,426.1,53.2,428.8,47.6z"/>
	<path class="st0" d="M178.2,410.7c4.4-9.5,8.8-18.8,13.3-28.4c10.5,7.1,22.5,8.4,34.8,9.1c-1.7,8.9-3.4,17.8-3.6,26.9
		c0,1.1-0.3,1.6-1.5,1.7C205.8,421.8,191.4,418.2,178.2,410.7z"/>
	<path class="st0" d="M561.7,212c-6.4,5.1-13.4,9.1-20.7,12.5c-4.4,2-9,1.1-13.3-0.5c-14.8-5.4-30.6-19.6-31.3-36.2
		c-0.4-5,3.7-6.1,6.1-9.9C514.3,199.6,539.6,206.6,561.7,212z"/>
	<path class="st0" d="M545.7,149c0.5,1.8,0.9,3.6,1.5,5.4c3.5,10.4,18.7,12.2,22.8,1.3c8.1,7.2,17.8-5.8,20-13.1
		c3.4,11.6,1.3,23.4-3,34.4c-0.5,1.2-1.3,1.1-2.2,1c-25.9-2.3-50.4-13.7-70.8-29.5c-1.7-1-1.3-3.1,0.5-3.6
		c6.3-0.3,11.4-2.9,15.8-7.3C534.3,148,536.9,149.8,545.7,149z"/>
	<path class="st0" d="M309.5,385.5c19,3,19,3,36,1.2c0.8,8.8,1.3,17.6,2,26.4c0.1,3.7-8.9,4.4-11.7,4.8c-11.1,1-21.7-1-32-4.8
		c-0.4-0.2-1-1-0.9-1.4C305.1,403,307.3,394.3,309.5,385.5z"/>
	<path class="st0" d="M48,341.5c-4.1-2.4-18.8-11.8-19.2-16.1c-1.3-21.1,12.5-42.2,31-51.8c5.4-3.1,9-0.5,14.7-0.2
		C54.2,288.5,40.4,316.4,48,341.5z"/>
	<path class="st0" d="M98.5,312c9.2,0.5,17-0.2,24.6-2.6c8.3-3.4,25.1-3,22.9,9.5c-2.6,8-12.6,9.6-19.7,11
		c-7.2,2.8-52.7-2.7-42.4-15.4C87.3,310.6,94.5,311.8,98.5,312z"/>
	<path class="st0" d="M301.7,416.3c15.3,5.2,30.6,8,46.4,2.4c0.8,2.2,1.7,4.6,2.6,7c-13.1,3.5-23.3,12.6-31.7,22.8
		c-0.4,0.4-1.1,1-1.6,0.9c-4.3-0.2-25.5-3.9-22.1-10.5C297.5,431.4,299.3,423.8,301.7,416.3z"/>
	<path class="st0" d="M222.6,423.4c0,4.9,0,9.3,0,13.8c0,1.8,0.4,3.5,0.3,5.3c-1.5,5.9-9,7.4-13.9,9.3c-0.5,0.1-1.3-0.4-1.8-0.8
		c-10.3-11.4-23.1-21.3-39-22.4c2.7-4.9,5.3-9.6,8.1-14.6C190.6,421.6,205.7,425.8,222.6,423.4z"/>
	<path class="st0" d="M560.8,97.8c8.2-0.4,12.9,7.4,13.1,15.2c0,0.4-0.5,1.3-1,1.4c-14,3.6-22.5,16.6-27,29.5
		c-2.4,3.5-8.1,1.8-10-2.1C528.2,126.6,544.1,99.2,560.8,97.8z"/>
	<path class="st0" d="M313.4,353.7c10.4,0.8,20.2,3,30.1-1.4c0.8,9.7,1.3,18.9,1.9,28.6c0.1,1.6-0.4,2.3-1.8,2.4
		c-4.8,0.4-9.7,1.3-14.5,1.1c-5.8-0.2-11.6-1.4-17.4-2.1c-1-0.1-1.3-0.6-1.2-1.7C311.5,371.6,312.4,362.6,313.4,353.7z"/>
	<path class="st0" d="M60.6,268.7c-21.7,11.7-33.5,29.5-36.1,53.6c-4.5-4.5-15-16.9-15-23.1C17.5,280.4,38.9,260.2,60.6,268.7z"/>
	<path class="st0" d="M60.1,111.7c0.5-13.3,2.6-26.6,9.5-38.3c6.1-10.6,14.4-11.6,18,1.3c1.8,4.6,4,9,7.1,13
		C95.2,95.1,67.7,111.2,60.1,111.7z"/>
	<path class="st0" d="M234.5,362.5c-2.5,8-4.5,15.9-6.9,23.9c-0.2,0.5-0.9,1.3-1.3,1.3c-9.9-0.5-19.9-1.3-28.9-6.2
		c-1.4-0.8-3.6-1.4-4-2.6c-0.4-1.1,0.8-3,1.5-4.4c3.4-7.6,6.8-15.1,10.3-22.8C214,357.9,223.6,361.7,234.5,362.5z"/>
	<path class="st0" d="M109.6,306c-5.5-0.1-31-1.1-23.9-11c2-2.3,4.6-3.2,7.5-3.5c5-0.5,10-0.8,14.8-1.8c10.8-1.1,28.5-15.7,35.4-1.6
		C147.8,301,118.4,306.5,109.6,306z"/>
	<path class="st0" d="M119,355.5c-6.6,1.1-46.6-8.6-35.5-18.8c6-3.9,13.4,0.1,19.9,0.3c6.2,0.8,12.3,0.3,18.5-0.8
		c6.6-1.1,17.4-1.5,19.2,6.8c0.7,3.8-0.6,6.6-3.9,8.6C131.6,355,125.2,355.2,119,355.5z"/>
	<path class="st0" d="M58.8,263.6c-23.9-3.9-41.2,12.7-52.2,31.7c-3.2-10.6-5.3-23.2,0.7-33.1C22,249.8,45.1,249.5,58.8,263.6z"/>
	<path class="st0" d="M466.2,63.6c-12.7-4.5-24.4-10.1-34.6-19c-0.9-0.8-1-1.4-0.8-2.6c1.1-5.5,2-11.1,2.9-16.7
		c1.1-11.7,11.1-4.1,15.3,1.1C458,37.2,464.1,49.8,466.2,63.6z"/>
	<path class="st0" d="M61.3,260.4c-16.1-12.9-33-15-51.6-4.4c6.1-10.4,14.7-20.2,25.1-26c13.2,2.8,27.2,9.9,31.5,23.7
		C67.5,256,62.6,258.5,61.3,260.4z"/>
	<path class="st0" d="M69.8,252.5c-5.2-14.9-17.2-21.4-31.4-25.6c5-3.5,18.6-12.1,24.2-11.8c8,2.8,14,7.9,16.7,16.2
		c0.5,2.3,3.6,11.8,2.4,13.2C77.9,247.2,74,249.8,69.8,252.5z"/>
	<path class="st0" d="M581.7,125.9c0,9.8-4.9,0.9-12.7,22.3c-0.9,2.1-1.7,4.4-2.7,6.4c-7,11.9-20.4-0.7-16.3-10.9
		c3-8.3,7.4-15.8,14.6-21.3C570.6,117.6,583,113.8,581.7,125.9C581.7,125.9,581.7,125.9,581.7,125.9z"/>
	<path class="st0" d="M492.4,185.4c0.2,8.4,2.4,14.9,7.5,21.7c7.2,11.1,17.9,16.9,29.6,21.8c-7.8,2.5-15.9,3.7-24.1,4.6
		c-11-4.8-18.1-18.1-20.2-29.8C484.3,197.1,485.8,188.5,492.4,185.4z"/>
	<path class="st0" d="M485.3,186c-9.8,16.6-0.3,35.2,12.1,47.3c-6.7-0.2-15.6-1.5-21.3-5.2C464.3,216.1,462.8,185,485.3,186z"/>
	<path class="st0" d="M532.3,121.2c-3-4.2-7.2-4.6-12.1-4.2c1.2-11.9,6.2-22.9,17.1-28.7c8.1-4.8,14.2-1.4,18,6.7
		C543.3,100,537.1,109.8,532.3,121.2z"/>
	<path class="st0" d="M85.9,242c-1.9-12.9-6.5-23.7-19.2-29.2c0-0.2,0.1-0.3,0.1-0.5c5.1-1.6,10.3-3.1,15.4-4.7
		c3.7-1.3,5.9-1.5,8.6,1.6c6.3,6.4,9.1,16.2,7.9,24.8c-0.8,1.6-3.3,2.4-5.1,3.4C91.3,239,88.7,240.4,85.9,242z"/>
	<path class="st0" d="M233.7,358.7c-4.4,0.4-29.1-6.9-26.1-12.5c1.4-1.8,2.3-7.4,4.7-7.6c7.7,1.2,15,0.4,22.2-2.8
		c0.4-0.2,1.2,0.1,1.5,0.4c1.4,2.1,5.2,5,5,7.4c-1.6,4.7-3.3,9.3-4.8,14C235.6,359.2,234.7,358.7,233.7,358.7z"/>
	<path class="st0" d="M513.8,141.7c-24.4-3.6-4.1-21.3,9.7-21.2c11.2,0.5,6.7,16.5-1.7,19C519.2,140.5,516.4,141,513.8,141.7z"/>
	<path class="st0" d="M364.7,65.7c-1.4-0.7-2.7-1.3-4.2-2.1c3.4-5.4,6.8-10.9,2.8-17.7c13.3,0.5,29.5,5.2,34.7,18.7
		c1.2,4.1,0,6.7-4,8.3c-1.5,0.6-2.9,1.3-2.3,3.1c-4.3,1.1-7.8,2.8-11.4,5.5c-0.9-1.4-1.8-2.8-2.8-4.3
		C405.4,65.7,373.8,37.4,364.7,65.7z"/>
	<path class="st0" d="M113.5,119c1.8,1.3,3.3,2.4,4.8,3.6c-11.1,9.4-22.3,24.8-7.4,36.5c-4,3.6-8,7.1-12.3,11
		c-4.2-3-8.6-6.2-13.2-9.6C97.8,148.4,107.2,134.8,113.5,119z"/>
	<path class="st0" d="M453.8,217.2c13.3-15.1-0.1-32.5,4.5-34.8c2.3-1.8,4.5-2.7,7.5-1.1c2.7,1.4,5.7,2,8.6,3
		c-13.7,9.2-12.6,28.6-4.7,41.4c-0.1,0.1-0.2,0.3-0.3,0.4C464.3,223.2,459.1,220.2,453.8,217.2z"/>
	<path class="st0" d="M342.1,338.1c0.3,2.9,0.6,6,0.8,9.1c0,0.5-0.7,1.4-1.2,1.6c-8.6,4.1-18,2.1-27,0.8c-1.8-0.2-1.8-3.4,0-3.8
		c6-1.9,11.1-5.4,15.2-10.1c0.7-0.8,1.3-1,2.4-0.6C335.5,336.2,338.7,337.1,342.1,338.1z"/>
	<path class="st0" d="M228.7,474.6c-16.6,19-60,15.5-83.3,13.4c-3.9-0.6-8-1.9-10.6-5.1c0.1-0.2,0.2-0.3,0.4-0.5
		c30.4,8.4,65,7.2,93-8.3C228.3,474.3,228.5,474.4,228.7,474.6z"/>
	<path class="st0" d="M389.6,480.2c-1.3,1.9-2.7,3-4.5,3.3c-5.5,0.9-11,1.9-16.5,2.3c-20.3,1.1-63.9,0.1-78.2-15.1
		C314.3,485.2,362.5,485.3,389.6,480.2z"/>
	<path class="st0" d="M430,112.5c3.9-3.5,5-7.7,4.8-12.4c5.8,5.9,11.4,11.7,17.3,17.8c-2.3,2.4-4.7,4.9-7.3,7.6
		C440.6,120.1,435.7,115.9,430,112.5z"/>
	<path class="st0" d="M184.8,453.6c-11.6,0.2-23.2,0.9-34.9-2.9c2-2.6,3.4-5.2,6.5-6.1C166.6,442.6,177.1,447,184.8,453.6z"/>
	<path class="st0" d="M342.9,451.7c3.9-4.7,9.5-8.4,15.6-10.1c5.9-1.9,10.4,1.4,14.1,5.9c-1.7,1.8-4,2.6-6.2,2.8
		C358.6,450.7,350.6,451.7,342.9,451.7z"/>
	<path class="st0" d="M121,280.6c-3,1.9-11,1.1-14.8-1.7C115.1,259.6,115.5,262,121,280.6z"/>
	<path class="st0" d="M142.9,273.4c-5.2,1.6-10.2,0.8-14.9-1.8C137.1,252.1,137.2,254.5,142.9,273.4z"/>
	<path class="st0" d="M115.5,261.3c1.5-2.4,7.3-18.9,10.4-11.8c1,2.7,1.5,5.5,2.6,8.1c0.8,2,0.7,3.6-0.4,5.2
		C126,265.5,117.8,262.8,115.5,261.3z"/>
	<path class="st0" d="M527.8,90.8c-4.2,4.3-7.1,9.3-9.2,15.2c-1.4-1.7-6.3-4.2-5.6-6.2c1.3-5.1,4.3-9,8.7-11.9
		C524.2,86.1,525.7,89.6,527.8,90.8z"/>
	<path class="st0" d="M421.3,81.1c-6.9-4.1-14.1-6.1-21.8-7.2c3.7-3.6,9.1-5.1,13.5-7.9C415.7,70.9,418.4,75.8,421.3,81.1z"/>
	<path class="st0" d="M92,205.3c4.9-0.8,9.2-1.4,13.9-2.1c-8.1,18.1,3.3,28.4-3.1,29.2C102.8,222.1,100.4,212.7,92,205.3z"/>
	<path class="st0" d="M510.7,94.4c-6.4-10.8-7.5-12.6,5.3-7C514.2,89.7,512.6,91.9,510.7,94.4z"/>
	<path class="st0" d="M586,141.8c-0.6,4.7-6.8,11.6-10.7,11.9C575.3,149.9,581.8,142.6,586,141.8z"/>
	<path class="st0" d="M100.6,356.7c5.7,0.9,11.3,1.8,17.2,2.8C115.5,361.6,98.6,361.5,100.6,356.7z"/>
	<path class="st0" d="M580.3,135.7c1.1,0.9,2.1,1.8,3,2.6c-4.1,2.9-7.6,6.3-10.4,10.2C573.1,145.8,577.4,137.9,580.3,135.7z"/>
	<path class="st0" d="M126,279.6c0.1-1.6,0.2-3,0.2-4.2c5.7,2,10.9,2.7,16.9,2.2c0,1,0,2.2,0,3.7C137.8,277.4,132,278.1,126,279.6z"
		/>
	<path class="st0" d="M140.7,335.2c-2.4-1-4.7-1.9-7.1-2.9c2.3-0.9,4.6-1.7,7.1-2.6C140.7,331.6,140.7,333.4,140.7,335.2z"/>
	<path class="st0" d="M111.3,285.3c-2.2,0.5-4.4,1-7,1.5c0.1-1.5,0.1-2.8,0.2-4.2c2.4,0.9,4.6,1.6,6.8,2.4
		C111.3,285.1,111.3,285.2,111.3,285.3z"/>
	<path class="st0" d="M120.6,267.2c1.8,0.2,3.3,0.3,5.1,0.4c-1.3,1.9-3.9,2.9-2.8,5.8c-0.2,0-0.4,0-0.6-0.1
		C121.8,271.4,121.2,269.4,120.6,267.2z"/>
	<path class="st0" d="M142.1,305.1c-1.8-0.4-3.4-0.8-5.4-1.2c1.9-1.2,3.6-2.2,5.6-3.4C142.2,302.1,142.1,303.5,142.1,305.1z"/>
	<path class="st0" d="M458.2,178c-1.1,0.7-1.9,1.3-2.9,1.9c-0.7-1.4-1.3-2.7-1.9-4.1c0.1-0.1,0.2-0.2,0.3-0.2
		C455.1,176.4,456.5,177.1,458.2,178z"/>
	<path class="st0" d="M587.2,136.7c-0.8-1.3-3.3-1.5-2.3-4.4c1,1.5,1.9,2.8,2.7,4.1C587.5,136.5,587.3,136.6,587.2,136.7z"/>
	<path class="st0" d="M250.7,115.7c-29.7-31.2-51.2,31.4-9.3,25.6c-37,39.3-95.7-18.9-51.8-53.9C212.6,69.3,250.8,86.4,250.7,115.7z
		"/>
	<path class="st0" d="M241.7,122.6c-5.4-0.1-5.2-8.3,0.2-8.2C247.3,114.5,247.1,122.6,241.7,122.6z"/>
	<path class="st0" d="M252.3,160.7c19.4,1.6,39.3-0.7,57.2-8.4c6.5-2.7,13.1-4.9,20.1-5.7c78.3-3,66.9,123.4-25,134.7
		c-27.8,4.5-58.4,3.4-82.3-13.1C171.6,230.2,174.9,151,252.3,160.7z M278.6,250.7c23-0.2,49.1-7.9,62.7-28
		c16.9-25,4.6-52.8-27.1-37.1c-20.2,10.7-43.7,10.8-65.8,7.5c-4-0.5-8-0.4-12,0.7c-10.3,1.9-16.6,11-13.5,21.2
		C228.4,239.9,255,251,278.6,250.7z"/>
	<path class="st0" d="M361.3,96.2c5.4,0,5.4,8.1,0.1,8.2C356.1,104.5,356,96.3,361.3,96.2z"/>
	<path class="st0" d="M276.2,247.1c-2.5-0.3-7.1-0.8-11.7-1.3c-1.2-0.1-1.9-0.7-2.4-1.8c-0.7-2.5-4.8-6.1-3.3-8.4
		c12.5-20,41.3-23.1,60.2-10.2c1.1,0.7,1.2,1.4,0.9,2.6c-1.4,3-0.6,9.8-3.6,10.9C304.3,244.5,291.5,246.9,276.2,247.1z"/>
	<path class="st0" d="M313.2,190.2c5.7-3,11.4-5.3,18.1-5.8C327.9,197.8,323.3,201.7,313.2,190.2z"/>
	<path class="st0" d="M239.4,197.1c2.7-1.4,11.5-0.1,17.6,0.9C250.1,209.1,245.1,208.8,239.4,197.1z"/>
	<path class="st0" d="M257.6,244.1c-5.3-1.5-10.3-3.8-14.9-6.9c5.3-9.8,11.8,1.5,15.5,6.3C258,243.7,257.8,243.9,257.6,244.1z"/>
	<path class="st0" d="M334.2,225.9c-3.7,4-7.6,7-12.2,9.8c0.7-4.5,1.2-11.3,6.6-11.6C330.4,224.4,332.1,225.2,334.2,225.9z"/>
	<path class="st0" d="M278.7,198.6c4.8-0.5,9.6-1.1,14.7-1.6c-4.5,10-7.9,8.5-15,2.1C278.4,199,278.6,198.8,278.7,198.6z"/>
</g>
</svg>
