<?xml version="1.0" encoding="utf-8"?>
<!-- Generator: Adobe Illustrator 26.0.0, SVG Export Plug-In . SVG Version: 6.00 Build 0)  -->
<svg version="1.1" id="Capa_1" xmlns="http://www.w3.org/2000/svg" xmlns:xlink="http://www.w3.org/1999/xlink" x="0px" y="0px"
	 viewBox="0 0 595.3 602.8" style="enable-background:new 0 0 595.3 602.8;" xml:space="preserve">
<style type="text/css">
	.st0{fill:#FFFFFF;}
</style>
<g>
	<path d="M35.5,290.8c-12.5-8.6-8.1-25.6-0.7-35.9c-10.9,0-14.6-12.8-11.7-21.6c1.1-3.8,2.7-7.5,4.1-11.3
		c-28.4,7.4-32.8-24.6-21-43.5c9.2-16.8,22.5-30.7,39.8-39.1c0.5-0.3,1.2-1.1,1.1-1.6c-2.8-19.2,16.5-32,32.9-36.3
		C60.8,94,69.8,70,86.1,65.7c11.2-4.2,22.4-2.8,33.5,0.8c-4.4-35.1,28.9-34.7,51-19.4c-8.6-35.6,33-39.6,54.6-22.2
		c3.8,2.6,7.3,5.7,10.7,8.3c15-55.9,77.9-32.7,56.8,7.5c19.2-5.7,58.4-5.8,51.2,23.9c21.3-5.9,52.1,5.6,38.8,31.8
		c8.9,2.2,17.3,5,19,15.8c13.7-3.3,23.8,15.1,12.7,24.3c-2.8,2.4-6.2,4-9.3,6c9.2,2.8,14.1,12.6,9,21.2c-0.6,1-0.3,1.6,0.3,2.4
		c5.9,7.4,7.2,11.7,3.4,20.5c1.2-2.4,5.7-6.4,5.3-8.9c-8.3-19.8,16-51.3,36.7-50.4c0.9,0,2.2-0.5,2.8-1.2
		c8.3-9.1,17.7-16.8,28.6-22.6c1.1-0.6,1.9-1.9,2.4-3c7-16.1,14.4-32,21-48.3c5.9-17,31.7-8.9,30,8.1c0.2,6.3-2.4,11.9-3.8,17.8
		c6.6-8.1,11-19.9,22.1-22.6c9-2.1,17.2,3.9,18.2,13.2c1.2,9.8-4.5,18.4-10.1,25.7c26.1-9.8,32.7,18.5,11.3,30.7
		c-12,7.8-26.2,10.6-40,13.6c-3.1,32.6-21.1,30.1-27.1,45.3c-4.6,14.2-19.4,27.2-34,30.3c-3.8,1-9.6-1.4-12.7,1
		c-12.2,12-24.4,23.9-36.6,35.8c-1,1-1.4,1.8-1.3,3.3c1.7,15.8-9.6,27-25.4,23.8c5,10.7,8.9,22.3,5.5,34c-1.4,7.2-7.4,12.4-15,11
		c0.2,13,0.7,40.3-17.3,40.4c-2.1,15.6-6.7,39.5-27.6,35.2c-1.7,17.2-14.5,34-32.5,22.5c-7.3,16.2-27.3,22-42.6,13.1
		c-4.6,14.3-10.3,28.6-13.6,43.2c-1.4,25.4-1.2,50.8-0.2,76.1c0.3,5.5-3.3,9.1-8.8,7.5c0.7,4,1.1,8,2,11.9c3.1,4.5,2.7,9.5,2.2,14.5
		c-0.9,3.2-0.1,8.2-3.8,9.6c-6.5,2.4-13.2,3.5-20,4.2c-15.4,1.6-30.8,1.5-46.3,0.9c-8.8-0.4-15.4-4.8-20.8-11.5
		c-4.7-5.9-7.7-12.8-10.1-19.9c-0.4-1.2-0.9-1.6-2.2-1.6c-25,1-49.9-1.6-74.9,0.4c-10.2,1-20.3,2.6-30.1,5.6
		c-7.3,2.4-18.5,0.4-21.6-7c-2.9-63.8,0.7-128,12.2-190.9c0.3-1.7,0.3-2.9-1.5-4c-3.5-2.2-6.1-5.4-8.2-8.9c-0.5-0.8-1.3-1.5-2.1-2
		C-3.3,346.6,17,309,35.5,290.8z"/>
	<path class="st0" d="M51.4,136.7c-1.8-20.2,22.2-31.3,39.3-32.4c3.2-0.9,15.3,2.8,15.3-1.5c0.1-1.5-0.9-2.3-2.4-2.4
		c-13.8,0.3-40.1-3.9-26.8-23.1c12.6-15.1,36.9-10.9,51.6-1c3.4,3,6.5-2,2.5-3.8c-3.3-2.1-7.3-3.1-7-7.9c-0.1-3.2-0.4-6.5,0.1-9.7
		c1.8-14.7,21-16.2,32.1-10.4c6.8,3.8,14.7,6.8,19.2,13.5c2,3.4,9,1.1,5.3-2.6c-11.9-11-8.3-34.2,9.9-36
		c16.6-2.3,32.2,7.4,43.5,18.6c0.9,1.2,2.8,2.5,4.3,2.3c0.7-0.2,1.4-1.5,1.6-2.4c1.1-5.9,2.8-11.5,5.6-16.7c13.1-28.3,56.1-18,45,13
		c-3.8,10-11.8,17.5-21.9,21c-1.4,0.6-2.9,1.4-2.2,3.2c1.8,5,15.9-4.9,17.8-7.5c11.2-10.4,41.8-13,52.9-1.4
		c4.6,4.9,4.2,11.7-0.1,16.9c-4.4,2.7-9.4,4.8-14,7.4c-4,1.4-2,7,2.4,3.8c9.5-5.8,19.6-9.9,31-10.1c14.3-1.6,32.3,12.2,21.7,26.9
		c-1.9,2-3.4,5.1,0.4,5.8c3.7,0.9,7.4,1.7,11,3c3.9,0.7,10.7,9.3,5.3,10.3c-35.4,7.2-72.2,4.4-107.7-1.1
		c-38.5-6.3-74-22.5-109.8-37.4c-4.3-1.8-8.6-3.2-13.3-2.5c-17.9,3.4-13.2,23.2-0.2,30.1c-10.8,3-14.8,15-6.9,23.4
		c4.2,4.5,9.6,6.6,15.3,8.6c-12,17.6,10.9,26.6,25.1,28.5c1.7,0.3,2.1,1,2.3,2.6c6,51.7,37.9,79,87.4,88.4
		c-17.1-2.3-34.2-6.2-50.1-13.1c-27.7-11.9-61.4,4.3-67.8,37c-0.3,1.3-0.7,2-2,2.6c-2.8,1.2-5.5,2.6-8.6,4.2c3.2-4.6,5-9.4,6-14.6
		c0.1-0.6,0.8-1.1,1.3-1.6c10-10.1,12.2-32.6-4.3-37.1c-9.9-2.7-14.3,7-17.5,14.6c-2,3.2-5.9,5.1-7.9,8.2
		c-6.4,9.3-10.8,21.2-20.8,27.1c-5.3,1.3-10.7,2.6-16,3.9c-0.8,0.2-1.7,0.3-2.5,0c-5.5-1.8-11-1.8-16.7-1.4
		c1-24.4-30.3-4.4-39.6,2.8c-1.2,0.9-2,0.9-3.2,0.1c-4.7-3.4-5.8-8.3-5.4-13.7c0.5-13.3,14.2-20,11.8-23.1c-1.4-2.2-3.7-0.4-5.6,0
		c-6.3,1.7-10.8-1.3-11.4-7.9c-0.8-8.4,2.5-15.4,7.5-21.8c8.2-3.4,17.6-4.4,26.2-6.9c2-0.5,3.5-0.3,4.7,1.8c1.1,1.9,3.1,3.2,4.8,4.7
		c2.2,2.1,5.3-2,2.6-3.5c-14.7-9.8-2.2-32.5,11.7-37.6c8.2-7.1-13.4-0.4-15.6-22.2c-0.9-8.7,2.1-16.4,7.1-23.3
		c1.3-1.2,2.4-3.5,1.2-4.9c-0.6-0.5-1.9-0.2-2.8-0.1c-2.3,3.5-4.4,4.5-8.5,5.1C61.1,134.1,56.4,135.5,51.4,136.7z"/>
	<path class="st0" d="M401.7,281.2c3.2,5.6,5,11.4,5.7,17.5c1.3,8.1-1.3,24.9-13.2,18.7c-0.7-0.4-2.2-0.4-2.7,0.1
		c-0.6,0.6-0.9,1.9-0.8,2.8c1.3,9.1,1.5,18.2-1.2,27c-1.8,5.5-4.7,13.1-11.9,11.4c-2.6-0.4-3.4,0.2-3.6,2.9c-0.8,9.3-2.2,19-7.3,27
		c-8.7,13.1-19.7-1.1-20.1,8c-1.1,7.2-2.1,15.1-8,20.2c-12.4,10.8-19.9-6.7-23.4,0.6c-2.2,3.5-4.1,7.4-7.1,10.2
		c-7.8,7.5-17.1,7.9-26.8,4.1c-3-1.2-5.8-3.1-8.6-4.9c-2.5-1.6-3-1.7-5,0.5c-4.8,5.4-10.6,9.1-17.8,10.3c-11.9,1.8-21.7-2-29.1-11.4
		c-1.5-1.9-2.3-2.2-4.2-0.9c-15.7,10.9-32,10.3-48.5,2.1c-3.5-1.7-6.9-3.6-10.1-5.8c-2.2-1.5-3.9-1.5-6.4-0.5
		c-10.8,5.4-24.4,5.8-31.9-5.1c-7.6-11.6-3.5-6.1-17.4-5.9c-11.9,0.7-16.7-8.4-16.6-19.3c-0.4-7.5-12.7,5-17.8-10.1
		c14.2-2.4,28.5-6.3,39.3-16.3c2.6-2.4,5.5-4.2,8.7-5.7c16.3-8,34.5-20.8,35.7-40.6c0.1-1.4,0.7-2,1.9-2.2
		c6.2-1.2,12.4-2.4,18.7-3.7c20.2,29.8,43.9,54.8,82.6,59.9c49.5,10.3,119.5-8.2,124.8-66.8c4.2-35.8-21.3-52.8-54.6-50.2
		c34.3-6.3,48.7-29.8,54-62.4c0.2-1.5,0.7-1.9,2.2-1.8c4.9,0.5,9.9,0.8,14.7-0.9c8.6-2.2,12.8-12.3,6.4-19.3c2.4-0.5,6.4-3.6,8.3-2
		c5.2,5.2,6.7,12.8,0.5,17.9c-3.6,3.4-3.7,3.4-0.6,7.3c0.9,1.1,0.7,1.9-0.1,2.9c-7.3,10.2-14.6,20.4-22,30.6
		c-4.1,4.7,8,12.3,3.3,25.5c-0.5,3.7-6.9,6-4.8,9.8c3.3,6.2,6.2,12.7,7.2,19.8c0.4,3.5,0.5,7,0.2,10.5c-0.3,3.2,3.5,2.9,4.3,0.6
		C400.3,289.3,397.5,284,401.7,281.2z"/>
	<path class="st0" d="M380.3,186.6c0-2.3,0.4-4.3-2-4.6c-1.6-0.2-2.3,1-2.6,3.9c-1.7,14.7-5.5,28.6-13.4,41.3
		c-17.2,27.8-54.9,26.7-83.1,20.2c-42.4-7.6-71.3-40.2-74.9-82.9c1.5-0.2,3.3-0.4,3.3-2.3c0-1.4-0.7-2-2-2.3c-4-0.6-8-1-11.8-2.1
		c-4.8-1.4-9.6-3.2-14.2-5.3c-7.6-3.6-8.6-15.6,1.3-16.6c6.4-0.6,12.4,1.2,18.5,2.8c1.8,0.8,4.8,1.4,5.8-0.6
		c1.3-4.7-20.5-7.1-24.2-6.8c-6.9,0.1-13.8-2.6-19.2-6.9c-7.4-5.2-4.6-18.1,5.6-17.2c5.7,0.4,11.4,1.5,17.1,2.6
		c3.9,0.8,7.7,2.2,11.6,3.3c1.5,0.5,2.9,0.5,3.5-1.2c0.7-1.9-0.7-2.7-2.2-3.1c-14.4-4.5-39.4-5.3-40.2-24.9c2.2-12,17.3-5.3,24.7-2
		c68.1,31.3,145.5,51.1,220.2,34.7c11.5-3,17.4,12.1,7.5,17.9c-4.9,3.2-10.4,4.6-16,5.9c-2.5,1.2-9.9-0.1-9.6,3.7
		c0.2,1.8,1.5,2.1,3.1,1.9c8.6-1.2,24.2-1.3,24.4,10.2c0.3,9-11.4,11.2-18.4,9.7c-1.1-0.3-2.3-0.6-3.3-0.4c-0.9,0.2-2.1,1.2-2.2,1.9
		c0.4,3.3,5,2.6,7.2,3.7c5,1.8,9,8.1,3.8,12.2C393.5,187.8,386.7,186.4,380.3,186.6z M302.3,240.5c10.9,0.1,21.3-2.2,30.2-8.6
		c54.6-39.2-3.3-124-61.3-109.6C197.6,141.7,237.8,243.2,302.3,240.5z"/>
	<path class="st0" d="M178.8,311.4c31.2-2.8,24.2-37.9-4.9-33c5-27.6,35.3-44.6,61.2-33.4c25.8,10.6,52.6,15.3,80.5,14.7
		c13.5,0,27.6-1.4,40.2,4.3c33.2,16.5,21.4,65.8-4.4,84.6C298.6,388.9,208.4,372.7,178.8,311.4z M291.7,337.4
		c64.3,1,66.5-49.1,35.3-46c-32.5,6.4-65.8,1-95.7-13c-15.9-6.1-27.6,11.6-18.4,24.6C229.7,329.2,261.4,336.8,291.7,337.4z"/>
	<path class="st0" d="M49.1,570.5c-1.8-63.6,1-126.8,11.1-189.5c6.4-2,2.4,13.9,21.2,12.2c0.7,9,3.4,16.8,12.6,20.2
		c-23.8,21.9-37.6,54.9-35.4,87.3c0.5,29,32.7,57.1,59.5,38.5c3.1-2.1,5.2-4.9,5.7-8.7c0.1-0.7,0.5-1.3,0.8-1.9
		c3.4-5.2,6.2-10.6,11.3-14.3c3.3-4.8,6.5-9.7,9.9-14.5c3.4-4,9.3-5,12-9.9c2-3.2,1.1-5.9,5.3-7.8c17.4-9.2,23.1-28.1,31.2-44
		c8.6-1.2,16.2-3.6,23.9-7.8c4,4.9,9.4,8.4,15.9,10.8c-8.2,14.4-23.7,44.1-38.3,51.2c-3.7,0.1-6.8,1.8-9.6,4
		c-5.3,4.1-9.4,9.3-13.2,14.7c-2.8,3.4-4.5,8.3-7.9,11c-12.6,3.5-13.3,32.4-10.4,43C119.3,566,83.6,560.9,49.1,570.5z"/>
	<path class="st0" d="M535.9,128.1c3.7,13.5,1.1,25.4-8,35.3c-10,11.1-24.7,20.8-39.5,12.7c-12.7-6.3-24.7-16-30.6-29.2
		c-4.4-10.5,22.8-32,31.4-36.8c2.5,2.5,3.5,2.3,5.3-1c9.5-17.8,16.9-36.6,24.5-55.2c2.8-8.6,13.9-8.1,18.3-2.7
		c7.8,11.3-1.2,26.6-7.2,36.8c-3.4,4.7-6.1,10-11.5,12.9c-8.5,6.4-15.8,14.7-23.8,21.8c-1.5,1.3-4.7,2.4-3,4.8
		c3.5,5.1,22.4-17.6,26.2-20.6c6.2-7.2,18.3-4.6,18.6,5.6c0.1,17.4-19.3,27.1-34.7,26.7c-3.7-0.3-3.6,5,0.1,4.6
		C514.7,143.8,528.6,138.9,535.9,128.1z"/>
	<path class="st0" d="M111.7,286.8c-5.5,7-10.9,12.9-18,17.3c-2.8,1.5-0.1,5.8,2.3,3.8c9.9-6.1,16.7-15.6,24.4-24.1
		c3.1-3.8,7-6.7,12.1-4.8c4.9,1.7,7.5,5.6,7.9,10.6c1.6,17.8-16,30.2-32.5,29.6c-5.6-0.4-5.3,5.2,0.2,4.5c16.2,0.3,28.9-8.6,36-23
		c18.2,34.6-37.5,70.1-67.1,54.8c-21.1-8.6-18.1-37.7-4.6-52C82.8,292.4,97.2,290.2,111.7,286.8z"/>
	<path class="st0" d="M147,428.8c-3.3,2.9-6.8,4.5-11.2,3.8c-16.2,5.4-24.1,21.5-22.9,38.2c0.1,3.6,0.3,7.8-2.8,10.3
		c-2.7,2.7-3.9-0.3-5.8-2c-4.7-1.5-3.9,3.4-1.2,5.4c9.4,10.4,22.5,17.1,36.6,16.2c-2.2,2.5-6.3,11.4-8.9,11.3
		c-27.6,3.5-34.5-20.1-38.6-12c-3.9,5.8-8.7,5.9-14.4,2.4c-4.7-24.7,3.2-50.1,18.3-70.5c5-6.4,10.6-12.2,16.6-17.3
		C124.7,428.6,128.6,430.6,147,428.8z"/>
	<path class="st0" d="M511.5,181.6c-3.6,12-13.5,20.2-24,25.9c-20.6,9.1-42.9-9.7-55.9-24.3c-15.7-19.1,5.7-46.8,25.8-51.8
		c0.1,0.2,0.3,0.5,0.4,0.7c-10.6,10.6-2.6,23.3,6.3,31.8C476.3,176.4,493.5,187.9,511.5,181.6z"/>
	<path class="st0" d="M87.3,288.5c-15.1,6.4-26.6,17.6-29.1,34.2c-7.1,27.2,17.7,44.5,42.8,41.1c-23.2,17.4-69.1,20.8-71.3-17.4
		c-5.9-32.4,28.1-57.3,57.6-58.4C87.3,288.1,87.3,288.3,87.3,288.5z"/>
	<path class="st0" d="M243.9,556.6c-15.5-3.3-30.9-2.2-45,5.1c-1.8,0.9-2.1,2.1-1.8,3.9c1.3,5.3-0.1,11.8-6.5,12
		c-2,0.2-4.1,0.4-6.1,0.3c-14.3-1.5-22-27.5-19.4-40c1.7-12.9,13.7-30.3,24-38c-11.7,22.9,12.2,27.7,6.4,42.2
		c-0.5,1.2-1,2.4,0.1,3.5c1.2,1.2,2.5,0.4,3.7-0.2c12.2-6.9,26.2-9.7,39.7-4.9C241.7,541.3,242.7,553.3,243.9,556.6z"/>
	<path class="st0" d="M44.7,571.7c-4.4,0.5-12.1-1.1-12.6-6c-2.2-63,0.7-126.3,12.5-188.3c3.7,1,7.3,2.1,11.1,3.1
		C45.6,443.9,42.8,507.6,44.7,571.7z"/>
	<path class="st0" d="M162.1,530.4c-5,16.5-0.2,34.7,11.3,47.4c9.2,9.4,23.9,3.5,34.5-0.3c13.1-6,27.4-7.1,41.2-3
		c2.5,0.5,3.5,2.3,3.9,4.7c0.5,3.2,0.7,13.9-3.1,14.7c-19.8,6-40.8,3.5-61.2,4.2C161.7,597.1,151.1,550.9,162.1,530.4z"/>
	<path class="st0" d="M26,159c11.7-11.8,25.5-18.9,41.8-21.6c-5.9,15.7-5.9,29.6,9.6,40c-10.4,7.6-17,17.2-15.5,31
		c-6.1,1.3-12.2,2.5-18.6,3.8C50.5,193.1,45.1,168.9,26,159z"/>
	<path class="st0" d="M42,195.3c-0.3,5.2-1.2,16.5-5.9,19.1c-13,5.1-30.2,7.8-31.6-11c-1.3-15.5,8.5-27.8,17-39.6
		c0.9-1.3,1.7-1.3,3-0.6C36.6,169.8,41.4,182.3,42,195.3z"/>
	<path class="st0" d="M541.3,114.1c-0.3-7.1-3.1-12.2-9.5-15c7.6-10.4,14.8-20.8,22.2-31.2c2.5-3.5,5.3-6.6,9.7-7.7
		c6.5-1.7,12.1,2.1,13.1,8.7C577.9,88.5,555.7,103.5,541.3,114.1z"/>
	<path class="st0" d="M205.6,491.5c5.6-7,11-13.9,16.6-20.9c8.3,8.5,18.6,13.2,30.8,14.4c-3.7,8.3-8.8,16.1-13.2,24.2
		c-0.4,0.6-1.6,1.3-2.3,1.2C224.1,509,212.9,503.1,205.6,491.5z"/>
	<path class="st0" d="M542.4,134.1c-0.4-3.9-4.5-11.8-1.4-14.2c10.2-7.6,20.7-14.6,31.9-20.6c18.8-9.4,24.3,11.1,9,20.8
		C570.2,128.4,556.1,131.1,542.4,134.1z"/>
	<path class="st0" d="M102.8,540.1C75.4,543.9,60.1,512,63,488.5c1.2-23.1,17.7-68.2,42.2-74.3c0.1,0.3,0.3,0.6,0.4,0.9
		C72.8,438.9,50.2,528.9,102.8,540.1z"/>
	<path class="st0" d="M224.8,466.5c4.6-8,9.1-15.8,13.6-23.7c8.6,4.4,17.3,8.3,27.4,8.7c-2.7,9.3-6.7,18.2-9.9,27.4
		c-0.4,1-0.8,1.7-2.1,1.5C242.5,479.5,232.4,475.1,224.8,466.5z"/>
	<path class="st0" d="M188.7,438.1c-3.1,7.6-6.4,23-16,23.1c-13.7,2-29.8-13.3-24.7-27c2.5-2.2,5.3-4.2,7.7-6.6
		c1.1-1.1,1.8-1.1,3-0.3C167.9,433.1,177.8,436.9,188.7,438.1z"/>
	<path class="st0" d="M413.8,200.1c4.7,18.6,18.2,25.5,35.7,27.8c-4.6,4.4-8.8,8.7-13.4,13c-14.9,6.9-32.3-6.6-34-22.1
		C401.4,214.9,411.4,204.5,413.8,200.1z"/>
	<path class="st0" d="M152.5,311.5c-0.6-3.1-4.7-11.3-3.3-13.3c6.1-5.1,12.1-10.4,19.6-13.4c19.8-9,34.9,9.9,20.4,18.8
		C177.6,308.2,164.7,309,152.5,311.5z"/>
	<path class="st0" d="M464.5,212.4c-3.3,3.5-6.4,6.8-9.6,10.1c-0.3,0.3-0.8,0.5-1.3,0.6c-16.7,1.5-39.5-11.5-34.3-30.6
		c2.1-3.1,4.3-6.1,6.6-9.3C435.5,196.5,449.4,206.5,464.5,212.4z"/>
	<path class="st0" d="M78,507.8c6.5,2.8,12.2,1.8,16.9-3.8c8.9,8.6,19.4,13,32.2,12.8c-3.6,5.7-6.9,11-11.9,15.3
		c-10.5,8.4-27.9,0-33.1-11.9c-1.8-3.9-3.1-7.9-4.6-11.9C77.7,508.1,77.9,507.9,78,507.8z"/>
	<path class="st0" d="M174.4,465.6c-10.6,22.2-45.2,9.6-42.6-13.3c0.6-7.6,5.4-14.8,10.4-15.3C142,453.8,157.5,468.1,174.4,465.6z"
		/>
	<path class="st0" d="M256.9,488.1c-0.1,21.9,0.5,43.5,0.8,65.3c0,3.5-0.3,3.8-3.9,3.3c-5.7-0.8-5.7-0.8-6.7-6.4
		c0-4.9-0.3-9.8-1-14.7c-0.8-5.8-6.2-6-6.1-8.7c1.1-2.9,1.3-5.7,0.7-8.8c0-0.8-0.2-1.8,0.2-2.4C246.2,506.5,251.6,497.3,256.9,488.1
		z"/>
	<path class="st0" d="M129.7,273.7c3.5-5.9,6.8-11.7,10.4-17.3c4.3-6.9,12.3-7.1,17.2-0.6c8.2,11.8-0.3,28.8-12.1,34.7
		C143.9,281.4,139.5,275.1,129.7,273.7z"/>
	<path class="st0" d="M201,539.7c0.4-4.5-0.6-8.3-3.1-12c10.6-8,24.8-11.8,37.6-8.3c0.7,0.6,1.4,1.8,1.2,2.5
		c-1.1,4.1-2.4,8.1-3.7,12.3C221.8,532.3,211.4,534.9,201,539.7z"/>
	<path class="st0" d="M397.9,222.3c7.7,17.9,12.9,22,31.5,25.1c-3.5,3.5-6.7,6.7-10.3,10.1c-0.6,0.5-1.4,1-2.2,1
		c-4.2,0.6-20.1-1.8-19.7-7.3c1.1-6.9-0.4-13.5-3.7-19.5C391.5,228.5,396.4,225.4,397.9,222.3z"/>
	<path class="st0" d="M227.8,513.2c-11.2,1.6-23.6,2.7-32.4,10.9c-5.5-5.1-6.5-16.5-1.9-22.1c2.8-2.7,5.7-4.7,8.6-7.5
		C208.5,504.1,217.3,510.3,227.8,513.2z"/>
	<path class="st0" d="M118,473.2c6.5-0.2,10.1,6.5,14.8,10c5.9,5.1,13.7,8,21,3.9c0.1,0.1,0.2,0.3,0.3,0.4
		c-12.4,13.4-30.1,9.3-42.7-1.2C115.4,482.7,117.3,478.7,118,473.2z"/>
	<path class="st0" d="M201.9,575c0.4-3-1.2-8.7,1.4-10.3c8.2-3.7,16.8-5.9,25.8-5.3c5.5,0.4,10.9,1.8,16.4,2.5
		c4.3,0.7,4.2,4.4,5,8.1C233.2,564.4,217.2,568.2,201.9,575z"/>
	<path class="st0" d="M117.5,468.5c-1.3-10.3,4.6-22.9,13.5-28.4c-10.7,17.8,2.5,40.2,22.5,41.9c-6.8,4.8-11.1,2.2-17.4-1.8
		C129.3,474.7,126.8,469.4,117.5,468.5z"/>
	<path class="st0" d="M164.9,262.7c-2-9-6.7-14.8-16.2-16.2c3.1-7.1,7.6-15.2,16.1-8.5C171.8,244.4,169.8,255,164.9,262.7z"/>
	<path class="st0" d="M70.6,285.7c-4.9,2.3-9.8,4.2-14.4,6.9c-3.6,2.1-7.1,3.2-11.3,2.9c-2.5-0.2-5.2,0.4-8.3,0.7
		c6.9-6.7,14.4-11.7,23-15.9C63.5,278.6,68.4,282.8,70.6,285.7z"/>
	<path class="st0" d="M392.1,261.3c0.9-1.2,2-2.5,3.1-3.9c5.3,3.4,11.2,5.3,17.4,5.8c-4.7,4.8-9.3,9.6-14,14.5
		C396.4,272.1,394.3,266.7,392.1,261.3z"/>
	<path class="st0" d="M249.3,442.7c8.8-1.2,15.2-6,21.7-11.4c1,2.8-2.6,10.9-3.3,14.5C264.9,449.2,253,444.3,249.3,442.7z"/>
	<path class="st0" d="M17.6,344.7c-4.6-11.8,1.3-25.4,14.6-31.6c-2.8,3.6-3.5,8.2-6.9,11.5C19.8,330,17.4,336.9,17.6,344.7z"/>
	<path class="st0" d="M425.9,256.9c1,11-7.2,18.9-15.7,16.9C415.2,268.4,420.5,262.6,425.9,256.9z"/>
	<path class="st0" d="M24.9,311.3c2.3-3,3.8-6.4,6.3-8.7c4.3-1.1,8.5-2.2,13-2.8c-2.9,2.2-4.6,5.5-8.4,6.6
		C32.2,307.6,28.8,309.6,24.9,311.3z"/>
	<path class="st0" d="M24.4,333.7c0.6,7.2,1.2,14.7,1.8,22.2C21,350.5,21.2,340,24.4,333.7z"/>
	<path class="st0" d="M68,277c5.6-1.9,9.2,1.3,7.5,7C73,281.6,70.6,279.4,68,277z"/>
	<path class="st0" d="M237.5,535.2c0.2-0.9,0.4-1.6,0.9-3.1c1.4,1.6,2.4,2.7,3.4,3.9c-0.1,0.2-0.3,0.3-0.4,0.5
		C240.1,536.1,238.9,535.7,237.5,535.2z"/>
	<path class="st0" d="M305.4,236c-71.7,2.3-88.3-95.3-25.6-104.8c47.4-4.9,82,62.7,45.9,96.3C319.5,233.4,312.4,236.6,305.4,236z
		 M278.6,225.6c27.7,0,27.6-42.7-0.1-42.6C250.5,183.2,250.8,225.7,278.6,225.6z"/>
	<path class="st0" d="M236.5,175.3c-3.7-23.8,16.3-47.4,39.7-49.2c49.5-7.9,99.2,59.3,58.9,97.8c19.7-27.6,8.6-67.5-18-86.2
		C284.4,111.6,236.9,133,236.5,175.3z"/>
	<path class="st0" d="M225.1,311.2c7.9-2.5,14.7-6.9,22.9-5.7c11.6,4,23.9,4.5,35.8,6.7c9.2,4.6,17.4,10.8,22.9,19.7
		C277.8,335.1,248.1,330.8,225.1,311.2z"/>
	<path class="st0" d="M231.3,283.4c2.2,1.3,5.9,1.2,6.2,4.2c-1.2,3.8-0.6,8.3,3.7,9.4c4.1,1.2,8.2,2.2,12.3,3
		c3.8,0.7,5.8-0.9,7.8-5.7c2.8,0.6,5.6,1.1,8.3,1.8c0.3,0.1,0.7,1,0.7,1.5c0.2,5.3,1.8,7,7.1,7.3c5.7,0,14.1,3,15.4-5
		c0.1-0.6,0.9-1,1.8-1.8c1.7,18-45.2,3.7-54.2-0.1C233.7,295.7,225.6,291.6,231.3,283.4z"/>
	<path class="st0" d="M315.4,297.8c4.6-0.7,8.8-1.4,13-2c1.6,6.1,0.6,6-4.1,6.2c-1.7,0.2-3.5,0.3-5.2,0.5
		C315.2,303.3,315.4,300.9,315.4,297.8z"/>
	<path class="st0" d="M256.7,292.9c-0.2,5.3-8.9,0.4-12.1,0.3c-3.5-0.8-3.9-1.5-2.4-5.1C247,289.7,251.8,291.3,256.7,292.9z"/>
	<path class="st0" d="M288.4,298.4c0.1,2.1-1,2.6-2.6,2.4c-2.8-0.2-5.6-0.3-8.4-0.5c-2.5-0.2-2.6-0.3-2.3-3.3
		C279.5,297.4,283.9,297.9,288.4,298.4z"/>
	<path class="st0" d="M310.8,298.9c0.1,4.3,1.9,8.7,6.9,8.2c5-0.4,9.9-0.5,14.6-2.3c-4.5,3.7-10.9,3.7-16.4,3.2
		C311.4,307.3,309.8,304.5,310.8,298.9z"/>
	<path class="st0" d="M285.3,204c-7.7-0.1-7.8-12,0.1-12C293.3,192,293.1,204,285.3,204z"/>
</g>
</svg>
