<?xml version="1.0" encoding="utf-8"?>
<!-- Generator: Adobe Illustrator 26.0.0, SVG Export Plug-In . SVG Version: 6.00 Build 0)  -->
<svg version="1.1" id="Capa_1" xmlns="http://www.w3.org/2000/svg" xmlns:xlink="http://www.w3.org/1999/xlink" x="0px" y="0px"
	 viewBox="0 0 595.3 656.1" style="enable-background:new 0 0 595.3 656.1;" xml:space="preserve">
<style type="text/css">
	.st0{fill:#FFFFFF;}
</style>
<g>
	<path d="M594,273.7c-4.2-12.5-12-22.1-23.6-28.5c-0.9-0.5-1.9-1.6-2.2-2.6c-4-12.9-8.3-26.7-5.4-40.2c3.4-10.1-6.9-17.1-14.6-21.3
		c-28-12.8-67.3-16.3-90.6,7.1c-19.1-16.1-4.4-8.7-11.9-28.4c0.3,0,0.4,0,0.4,0.1c39.7,22.8,53.4-13.1,67.4-6.5
		c7.7,3.7,27.9,3.1,22-10.1c-2-4.3-4.3-8.5-6.7-12.6c-10.9-18.8-25.9-34.5-45.4-44.6c4.8-7.6,6.7-15.9,6.1-24.6
		c0.5-5.2-3.2-11.7-0.4-16.3c3.4-3.9,6.4-8.1,7.5-13.3c3.7-16.3-30.4-8-38.7-5.6c-21.7,7-37.4,22.2-42.8,44.9
		c-6.5-2-12.7-1.1-18.9,1.2c-0.5,0.2-1.5-0.5-1.8-1c-12.2-24.8-30.7-44.3-55.8-55.9c-89.8-38.6-238.8-8.4-243.9,108
		c-12-0.5-23.6,0.2-33.4,7.8c-11.6,8.6-10.4,29.8,7.5,34.7c-12,5-24.5,11.5-28.3,25c-4,11.1,2,18.1,11.5,23.3
		c-9.4,11.7-20,24.4-18.3,40.4c-20.8,24-35.8,49.6-33.7,82.8c-0.9,18.7,16.4,44.2,35.3,26.7c6.1-5.3,12-11.1,18.7-15.9
		c1.4,6.8,2.6,13.2,9.6,16.7c0.6,0.3,0.9,1.8,0.8,2.6c-1,8.7-0.7,17.3,3,25.4c0.9,2,0.6,3.1-0.9,4.7C31.6,432.4,4.3,482,14.3,532.6
		c5,22.1,18.3,48.2,42.6,52.6c4.4,0.5,4.1,12.3,14,18.2c10.8,7.7,24.8,5.7,31-4.7c0.3-0.5,1.3-0.7,1.9-0.7c5.7,0.5,9.7-3.1,14.6-5.3
		c6.2-1.9,12.5-4.1,16-9.8c6.2-10.4,14.3-21.7,9-34.2c-3.4-13.8-14-20.6-25.4-27.2c-4.4-7.6-11.4-12.3-18.9-16.1
		c-26.5-13.1-15.9-46.5-3.8-66.5c6.7,8.9,6.7,8.9,18.3,10.2c0.7,11.5,6.7,20.9,18.5,21.8c5.7,1.5,13-3.7,16.5,2.8
		c8.2,13.8,25.6,15.6,39.2,8.6c6.4,0.1,11.8,6.2,17.9,8.6c-11.6,21.7-21.4,45.3-34.6,65.6c-10.9,3-10.8,14.9-15.9,22.6
		c-9.1,5.9-14.7,14-15.9,25c-1.8,5.4-6.3,9.5-5,15.8c0.1,0.5-0.3,1.4-0.7,1.6c-6.8,4.4-4.1,14-2.9,20.6c2.4,10.8,17,8.8,25.4,11.2
		c18.7,1,98.1,10.4,78.8-26.3c-0.8-15,2.1-33.4-7.7-46.3c-1.1-1.1-1.3-2-1-3.4c6.2-27.8,12.2-55.5,18.4-83.3
		c1.5-4.1,6.9-4.4,10.3-6.8c13.2,16.8,40.4,17,54.3,1c3.4,2.8,9.8,3.2,7.9,8.7c-2.4,24.7-4.9,49.3-7.4,74c-2.1,4.9-8,6.3-8.4,13.1
		c-1.4,11.3-2.7,22.6-4,33.9c0.4,4.3-3.7,6-5.1,9.8c-2.2,7.2-1.8,18.2,6.6,20.7c15.8,6.5,33.2,6.3,49.9,7.7
		c25.1,0.5,52.3,0.5,75.2-11.2c8.7-4.6,4.5-16.1,4.4-24c-0.9-5.8-3.1-7.4-8.9-8.2c-2.1-7.7-6.8-13.1-14.4-15.8
		c-2.5-2.4-2.8-6.9-5.3-9.2c-6.7-5.2-12.6-13.1-21.3-14.6c-3.6-0.5-3.6-0.3-4.1-3.7c-1-6.6-2.5-13.7-9.8-16.3
		c-0.4-0.1-0.7-1-0.7-1.5c-2.4-22.8-4.4-45.7-6.8-68.5c-0.2-2,0-3.8,1.6-5.4c18.4,11.8,31.5-6,33.8-23.3c21.2,5,25.9-20.6,28.4-36.3
		c0.9,0,2,0,3.3,0c-2,19.4,11.5,42.6,32.7,30.1c8.2,9.6,23.5,9.2,33.4-4.7c16.4,28.1,49.5-6.3,26.4-24.2c21.5-7.1,36.3-26.2,41-48.1
		c4.8-17.1-7.2-30.2-22.2-36.9c14.1-6.2,26.4-15,37.2-25.9C587,300.9,599.6,292,594,273.7z M431,146.1c-3.4-1.7-6.8-3.4-10.3-5.1
		c1-2.4,2-4.9,3-7.3c2.6,4.1,5.1,8.2,7.8,12.4C431.3,146.1,431.2,146.2,431,146.1z M446.5,376.9c-1.4,3.4-3.1,6.7-4.2,10.2
		c-0.9,2.8-0.8,3-3.8,4.2c0-5,0-10,0-14.6c3-0.4,5.9-0.8,8.9-1.2C447.2,375.7,446.8,376.2,446.5,376.9z M460.3,362.4
		c-2.6,2-5,4.1-6.9,5.7c0.7-5,1.5-10.5,2.4-16.7c4,1.5,8.3,3,13.2,4.8C465.7,358.6,462.9,360.4,460.3,362.4z"/>
	<path class="st0" d="M72.3,391.8c-7-10.5,0.4-27.9-4.2-30.4c-6.8-2.1-8.7-7.3-8.9-13.6c-2.2-12.9,13.2-34.4,4-32.3
		c-18.6,5.3-16.9-19.2-12.6-30.4c1.2-3.8,2.9-7.4,4.6-11.1c2.2-3.8-1.5-4.3-4.2-5.4c-25.2-10.4-6.9-39.4,6.1-52.6
		c4.8-5-5.6-6.8-8.3-9.7c-10.8-8.2-0.7-24,8.3-29.2c11.3-8.2,24.8-8.9,38.2-8.4c3.8,0.4,3.8-5.3-0.1-4.7c-7.4,0.2-14.8,0.1-22-1.9
		c-36.4-11.7-1.7-50.4,42.5-26.8c2.1,0.9,5.1,3.9,6.8,0.8c1-2-0.5-2.9-2-3.7c-2.8-1.7-7.1-2.5-8.6-5.6c-5.1-11.5-4.9-27.4,10.5-29.4
		c17.2-2.3,33.4,6.8,46.7,16.6c5.6,4.9,6.9-2.4,1.5-5c64.4-8.7,128.1-8.7,192,4.2c-3.2,1.9-17.5,9.5-7,10.2c9.9-7,20.8-12.2,33-13.2
		c16.1-3.2,39.2,11.1,27.5,28.8c-1.8,2.4-3.1,4.6,0.6,6c13.3,5.3,31.5,14.9,25.5,32.2c-1.2,3.7-1.1,3.7,2.2,5.7
		c4.3,2.5,7.7,5.8,9.7,10.5c3.8,10.8-20.2,9.8-21.2,38.5c0.1,12.9,1,36,18.2,36.1c-3.4,16.1-5.6,33.3,4.2,47.8
		c3.6,6.6-3.9,10.5-9.7,10.7c-8.9,0.4,7.5,13.9,4.9,31.6c-0.4,6.9-4.1,17.2-12.8,12.7c-1.1-0.5-2.9-0.8-3.5-0.3
		c-2.5,8.5,2.7,19.4-2.2,27.7c-3.2,3.7-5.6,15.7-10.5,15c-5.1-0.1-4.9,0-5.8,5.1c-1.8,8.3-2.2,17.4-6.7,24.8
		c-7.9,14.4-20.4,0.5-21.4,8.6c-0.8,4.3-1.5,8.6-2.8,12.8c-3.1,9.6-13.5,16.3-22.7,9.5c-5.2-3.6-5.4-3.2-8.1,2.2
		c-7.2,16.7-28.8,18.7-42,7.6c-3.2-2.3-3.4-2.3-6.1,0.6c-14.2,15.9-37.5,13-48.1-1.8c-2.9-5.9-14.6,11.1-35.8,7.3
		c-11.1-1.5-21-6.6-30.2-12.6c-5.4-2.2-11.3,3.6-16.9,3.8c-11.3,2.6-20.1-5.4-25.2-14.7c-3.4-4.1-9.7,0.5-14.3-0.3
		c-22.8,0.3-12.4-23.7-20.3-22.6c-7.8,2.3-13.7-1.5-15.6-8.7c0.7-4.2,5.7-7.7,7.6-11c4.8,0.9,8.7,2.8,13.2,2.5
		c3.4,0.2,3.6-5.2,0-4.8c-13.1,1.5-18.1-12.3-17.9-23.1c-2.5-8.8-18.3-2.6-16.5-22.5c0.1-1.7-0.2-3.2-2.2-3.4
		c-4.3,0.3-2.3,6.4-2.5,9.3C81.1,386.5,75.3,388.1,72.3,391.8z M282.8,414.8c113.4,3.4,118.5-98.1,51.9-96.9
		c-31.2,4.9-63.7,10-94.2-1.1c-7.5-2.5-14.8-5.5-22.3-8.1c-33-12-61.5,26.2-42.3,58.8C198.4,401.2,246,414.5,282.8,414.8z
		 M211,241.5c1.5,91,135.2,90.4,138.2,1.4C348.5,151.2,212.7,150.4,211,241.5z"/>
	<path class="st0" d="M107.7,85.8c5.9-15.9,16.3-30.6,29-41.2c48.3-7.3,96.8-12.9,145.8-10c28.9,1.6,57.7,4.1,86.3,9
		c13.7,10.5,21,28.3,27.7,44.5C301.3,67.5,203.4,70.8,107.7,85.8z"/>
	<path class="st0" d="M485.6,198.2c-8.4-5.3-17.1-4.6-26.3-1c13.3-30.8,74.1-24.1,95.7-5.7c6.2,4.6,2.1,11.4,1.8,17.6
		c0.3,11.2,2.8,22,5.8,32.8c-18-6.4-31,5.6-30.9,24.1c-2.4,20.8,11.1,43.8,34.3,40.7c-11.6,12.5-26.6,21.4-43.2,26
		c-28.8,8.2-69.7-6.6-70.3-40.6c0.1-8.3,0.3-18.1,4.6-25.1c15.2-4.8,29.7-13.8,45.8-15c20.6,0,8.8-15.8,18.9-23.6
		C550,202.7,506.3,166.3,485.6,198.2z"/>
	<path class="st0" d="M401.7,105.4c-12-1.6-21.9,2.2-33.2,3.9C300.9,93.5,231,97.7,163,103.6c-24.6-16.3-68-20-57.2,22.3
		c-1.6-0.4-3.7-1-6.2-1.6c0.6-5.2,2.9-33.2,8.2-33.6c19.1-2.5,38.1-5.5,57.2-7.6c77.1-8.3,155.8-6.8,231.6,10.1
		C400.5,95.5,399.9,101.5,401.7,105.4z"/>
	<path class="st0" d="M432.6,101.1c16.1,2.5,34.6,3.5,46.6-9.6c1.1-1.1,1.8-1.2,3.1-0.5c21.9,11.2,37.5,31.1,48.2,52.8
		c5.9,11.6-15.8,5.6-20.8,3.6c-6.1-1.7-11,5.3-16.1,7.8c-30.1,21.3-62.7-6.5-70.7-36.2c-0.1-0.5,0-1.2,0.3-1.6
		C429.7,110.4,430.2,109.5,432.6,101.1z"/>
	<path class="st0" d="M143,38c55.6-41.9,167.7-48.5,220.9-0.2c-73.6-12-147.1-11.3-220.5,0.7C143.2,38.4,143.1,38.2,143,38z"/>
	<path class="st0" d="M449.4,98.2c-28.5-2.3-8.7-3.6-23.3-20.2c-1.7-2.8-7.1-3.5-5.8-7.3c7.4-30.7,39.3-45.8,68.9-43.3
		c7.8,0.4-1.3,12.8-4.1,15.2c-2,2-2.2,4-1.9,6.5C489.9,74.5,477.2,99.2,449.4,98.2z"/>
	<path class="st0" d="M308.8,579.4c0,2.9-0.5,4.7,2.8,5.1c11.5,4,24.3-0.9,35.3,3.4c2,1.2,3.4,1,5-0.8c15.2-16.9,37.3-10,47.4,8.3
		c-11.4-2.8-22.2-2.6-32,4.5c-2.8,2-2.7,2.8-0.8,5.6c9,13,1.1,10.4-4.3,20.2c-18.2,7.9-39.5,6.8-58.4,1.4c-1.9-0.7-2.6-2-2.4-4.1
		c2.7-14.4,1.7-29.9,6.6-43.7C308.3,579.2,308.5,579.3,308.8,579.4z"/>
	<path class="st0" d="M437.4,233.8c0.3-8.6,2.6-18.1,10.9-24.8c9.4-7.3,24-14.3,34.9-6.5c12.1,7.2,29.1,35.9,12,45.1
		c-11.4,4.3-22.8,8.8-34.2,13.2C440.6,270.4,438.1,250,437.4,233.8z"/>
	<path class="st0" d="M518.5,412.5c9.1-13.9-6.3-26.4-16.8-13.7c-3.1,4.4-6,9.1-8.7,13.8c-1.5,3.2-4.1,1.5-7,1.5
		c5.1-8.9,5.8-20.9-7.3-21.6c-8.8,0-13.1,9.5-19.6,14.5c-0.2-0.1-0.9-0.5-1.8-1c8.8-8.4,2.3-21.3-9.9-19.3
		c3.5-11.5,13.1-18.9,22.7-25.2c11.5-8.7,31.2-1.8,43.8,2.2c15.2,6.4,25.6,20.3,23.1,37C531.9,406.2,526.1,410.2,518.5,412.5z"/>
	<path class="st0" d="M82,573.6c-3.4-6.7-7-16-16-13.5c-9.5,2.1-8.8,12.2-7.9,20c-9.8-0.5-15.7-7.4-22.1-13.8
		c-5.4-16.2,8.8-34.6,21.9-43.4c10.9-7.4,23.2-10.7,36.1-12.5c8.5-0.9,14.9,5.8,19.6,12.2c-19.1,13.3,3.2,20.6-4.9,27
		c-7-4.1-15.5-12.4-23.5-5.6c-3.9,3.4-5,8.6-2.9,13.5C85.4,567.2,92,568.2,82,573.6z"/>
	<path class="st0" d="M297.2,627.9c32.1,19.8,70.6-0.2,103.7-7.9c4.4-0.4,22.1-5.8,22.7,0.3c1.2,6.4,4,16.8-2.9,20.7
		c-33.5,13.9-71.6,11.5-106.9,6.7C302.7,646.2,291.6,641.2,297.2,627.9z"/>
	<path class="st0" d="M179.6,649.9c-9.3-0.9-21.8-1.6-34.2-3.7c-11.1-1.9-9.5-1.9-11.5-12.3c-0.6-4.8-0.5-8.3,4.7-9.9
		c23.5-10.7,47.1-1,70,5.9c6.8,1.7,13.7,1.7,20.6,0.1c1.9-0.4,2.7,0.2,2.9,1.8c1,7.1-0.8,13.2-8.3,14.6
		C207.8,649.2,197.6,649.6,179.6,649.9z"/>
	<path class="st0" d="M224.8,585.1c3.6,3.8,9.6,42.5,1.2,40.8c-7,1.1-14,0.4-20.8-1.5c-3.6-2.7-3.9-8.7-5.7-12.8
		c-1.1-3.1,4.2-7.2-0.2-9c-18.1-8.9-36.3-10.2-55.1-2.1c7.2-28.4,45.5-24.3,64.1-10.4c4.1,2.9,9.6,0.7,14.3,1
		c4.3-0.2,2.6-3.1,1.5-5.8C224.4,585.2,224.6,585.2,224.8,585.1z"/>
	<path class="st0" d="M536.1,268.5c0.8-13.3,5.6-26.1,21-23.2c20.6,3.5,20.2,47.1,5.7,56.6C544.4,302.9,536.9,284.9,536.1,268.5z"/>
	<path class="st0" d="M60.1,321c-1.4,5.1-3.4,10-4.4,15.1c0.1,5.1-2.8,7.9-7.5,9.8c-6.9-19.3-19.1-37.1-37.1-47.9
		c5.4-14.2,13.8-26.2,24.2-36.7c3.9,5.2,8.8,9.2,14.4,12C43.8,288.4,35,320.4,60.1,321z"/>
	<path class="st0" d="M9.7,302.2c16,11.5,28,26.7,33.9,45.6c-1,5.3-8.3,8.5-11.7,12.7c-7.1,6.6-15.1,5.8-20.7-2
		C0.8,341.8,3.8,320,9.7,302.2z"/>
	<path class="st0" d="M356.7,527.2c0.8,8.6,1.7,17,2.4,25.2c-13.6,6.4-28.6,3.3-43.2,4c0.8-8.8,1.5-17.5,2.6-26.1
		c0.1-0.6,0.8-1.6,1.4-1.7C332,526.5,344.2,526,356.7,527.2z"/>
	<path class="st0" d="M228.6,543.4c-1.8,8-3.6,16.3-5.5,25.2c-6.4-1-14,0.2-19.7-2.3c-5.8-9.1-15.8-10.2-25.2-11.9
		c3.7-7.3,7.5-14.5,11-21.4C202.1,538.3,214.8,541.9,228.6,543.4z"/>
	<path class="st0" d="M29.3,557.8c-15.9-24.7,8.9-55.9,35.6-57.8c5.7-0.6,11.5-0.1,17.2,0c4.1-0.2,5.8,3.8,9,6
		C63,509.7,33.6,527.5,30,557.8C29.8,557.7,29.5,557.7,29.3,557.8z"/>
	<path class="st0" d="M191.9,528.2c4.6-9,9.1-17.7,13.7-26.6c9.7,4.8,19.9,6.9,30.7,7.1c-2.2,9.9-4.3,19.6-6.5,29.5
		C216.5,537.5,203.8,534.9,191.9,528.2z"/>
	<path class="st0" d="M482.7,422.6c3.5,0.7,5,2.5,5.1,5.6c1.9,10.3-5.1,20.8-17.2,21.4c-18-1.4-16.7-27.2-8-38
		c3.3-4.8,7.6-8.8,11.9-12.8c4.2-3.9,13,0.9,9.9,6.7c-5,10.7-7.8,22-7.8,33.9c-0.1,1.6,0.6,2.8,2.4,2.7
		C483.2,442,481.5,426.6,482.7,422.6z"/>
	<path class="st0" d="M17.4,498.6c3-11.4,2.6-25.9,14.7-32c14.9-9.7,32-3.4,44.5,7.1c2.2,2.6,1.2,6.7,1.6,9.8
		c-23.2-7.2-43.8-4.7-60,15.2C17.9,498.7,17.6,498.6,17.4,498.6z"/>
	<path class="st0" d="M454.8,410.4c0.8,0.5,1.3,0.8,1.8,1.1c-4.6,10.1-6.9,20-2.7,30.8c0.2,0.6-0.4,1.9-1.1,2.3
		c-19.6,9.7-27.9-18.4-22.8-33.1c2.7-8.9,8.6-15.1,16.8-19.3c5.1-2.9,12.8,2.9,8.5,8.3c-4,5.7-7.1,11.9-8.4,18.8
		c-0.5,5.2-2.8,18.9,2.8,21.4c1.5,0.1,2.2-1.1,2.1-2.7C450.2,428.6,450.4,419.3,454.8,410.4z"/>
	<path class="st0" d="M83.1,451.9c-11.2-12.7-24.5-19.2-42-15.3c4.9-8,11.2-15.2,16.7-22.8c0.6-0.7,1.9-1.3,2.9-1.3
		c13.5,0.9,25.4,11.8,28.6,24.8C89.5,442.6,85.1,447,83.1,451.9z"/>
	<path class="st0" d="M81.5,494.8c-30.9-3.4-55.8,13.3-61.7,40.2c-1.2-6.5-2.4-12.8-2.7-19.4c1.3-18.4,19.6-29.8,36.7-30.9
		C61.9,484.8,79.8,484.7,81.5,494.8z"/>
	<path class="st0" d="M356,521.9c-12.6-0.3-24.3,0.2-36.8,1.7c1.3-4.7,0.1-26.1,4.9-26.2c9.1-2,18.2-3.1,27.5-2.7c1,0,2-0.2,2.1,1.4
		C354.4,504.7,355.6,513.4,356,521.9z"/>
	<path class="st0" d="M116.7,579.7c1.4,10-13.8,19.1-18.1,8.7c-3.1-9.1-6.1-18.2-9.3-27.2c-1.9-4-5.6-9.3-1.6-13
		c2-2.1,4.3-2.4,7.6-0.9C108.6,553.1,115.1,566,116.7,579.7z"/>
	<path class="st0" d="M516.1,424.7c5.7,5.7,3.3,16.8-2.5,21.6c-15,10.2-25.5-10.3-19.8-23.1c2.8-7.5,9-23.8,17.8-24.8
		c3.7,0.2,5.8,3.3,4.6,6.8c-3.7,9.2-7.2,18.8-5.3,28.9c0.2,1.7,0.8,3.2,2.9,2.8c3.9-1,0.7-8.8,1.4-12
		C515.6,424.9,515.9,424.8,516.1,424.7z"/>
	<path class="st0" d="M140.2,557.8c2.2,9.4-14.8,23.5-17.8,10.7c-1.2-7.8-2.5-15.7-6.3-22.8c-4-5.9-10-15.3,0-18.8
		C130.1,529.7,139.7,543.9,140.2,557.8z"/>
	<path class="st0" d="M397.8,76.9c25.5-12.4,41.6,24.3,21.2,37.5c-3.9-3-9.4-4.4-12.2-8.1C403.8,96.6,400.8,86.8,397.8,76.9z"/>
	<path class="st0" d="M26.6,463.7c4.2-6.6,6-15.6,11.9-20.6c15.7-7.6,31.8,0.3,41.6,13.1c1.8,3.9-1,8.3-1.6,12.5
		c-14-11.6-35.7-16.5-51.1-4.5C27.1,464,26.8,463.8,26.6,463.7z"/>
	<path class="st0" d="M83.1,388.3c3.2,5.5,7.8,8.5,13.2,10.3c0.6,0.2,1.2,1.2,1.3,1.9c0.7,6.9,1.9,13.6,6.4,19.2
		c-3.5,4.5-7,8.9-10.6,13.5c-5.2-13.3-16-23-30.6-25.5C69.7,401.1,76.3,394.8,83.1,388.3z"/>
	<path class="st0" d="M138.5,618.3c5.2-24.1,39.7-21,56.9-12.2c-1.6,5.5,0.4,10.5,2.5,16.1c-19.4-7.9-38.7-10.7-58.5-3.5
		C139,618.5,138.7,618.4,138.5,618.3z"/>
	<path class="st0" d="M84.8,577.5c1.7-1.1,2.9-1.9,4.5-2.9c2.7,6.7,3.2,14.2,7.5,20.1c1,1.1,0.8,1.7,0.1,2.7
		C86.7,610.1,66,598.5,64,584.1c-1.1-4.3-1.3-8.8-1.7-13.2c-0.5-6.5,8.8-9,11.4-2.7c3.2,6.5,7.1,13,12.5,17.8
		C94,587.7,87.4,579.8,84.8,577.5z"/>
	<path class="st0" d="M486.9,352c20.2-9.1,49.1-3.9,59.2,17.6c5.5,11.5,1.5,13.9-3.7,24.2c-3.9-27.8-29.7-39.7-55.2-40.7
		C487.1,352.7,487,352.4,486.9,352z"/>
	<path class="st0" d="M369.5,624c7.4-7.3,7.6-10.3,1.7-20.9c10.7-8.3,39.9-5.8,43.3,9.6C399,614.2,384.7,619.7,369.5,624z"/>
	<path class="st0" d="M489.6,201.3c9-18.9,40.1-10.3,36.3,11.1c-1.2,7.1-5.2,12.2-11.5,15.5c-6.3,4.1,4,19.3-10.1,19.3
		C511.2,228.9,503.1,213.5,489.6,201.3z M511.9,217c14-0.2,11.3-21.8-1.6-21.4C496.2,195.6,499.1,217.6,511.9,217z"/>
	<path class="st0" d="M342.2,560.9c-3,6.8-4.3,13-4.1,20.4c-8,0.7-16.1,0.4-24.5-1.2C315.8,553.6,312.2,563.2,342.2,560.9z"/>
	<path class="st0" d="M161.5,575.5c2.7-7.2,6.3-15.8,15.4-15.6c12.1-1,26.5,6.4,25.4,20.2c-13.3-3.2-26.6-7.8-40.1-4
		C161.9,575.8,161.7,575.7,161.5,575.5z"/>
	<path class="st0" d="M369.9,572.6c-7.6,1.3-15,3.7-20.2,9.6c-0.8,0.9-1.4,1-2.6,0.5c-6.8-1.5-3.5-9-2.9-13.9
		c1.8-7.4,9.2-10,16-11.2C368.2,556.2,369.5,566.8,369.9,572.6z"/>
	<path class="st0" d="M472.7,331.4c-4.4,5.2-6.5,11.3-7.1,17.8c-16.2-2.8-10.5-4.2-16.3-18.5c4.7-0.9,9.1-3.1,10.8-8.3
		C464.3,325.5,468.4,328.4,472.7,331.4z"/>
	<path class="st0" d="M518.3,343.9c20.9-5.4,40.1,3.9,33.8,27.9C546.5,355.4,533.8,347.9,518.3,343.9z"/>
	<path class="st0" d="M570.6,301.3c8.7-15.9,10.2-31.8,2.4-48.6c6,4,9.7,8.5,10.4,15.4C583.9,278.5,585.1,301.2,570.6,301.3z"/>
	<path class="st0" d="M489.7,338c-1.7,3.2-1.8,7.9-4.7,10.1c-3.8,0.9-13.4,9.6-14.6,2.2c0.3-5.8,2-11,5.7-15.5
		C478.3,331.9,486.6,337.7,489.7,338z"/>
	<path class="st0" d="M207.8,497.3c0.9-1.8,1.8-3.5,2.7-5.4c9.5,3.1,19.1,3.9,29.1,1.4c-0.8,3.8-1.6,7.2-2.4,10.6
		C226.9,503.8,217.1,502,207.8,497.3z"/>
	<path class="st0" d="M206.5,572.8c5,0,10.1,0,15.7,0c-0.7,3.3-1.2,5.5-1.9,8.5c-1.3,5.4-1.3,5.4-6.9,5.4
		C206.8,585.8,206.8,577.9,206.5,572.8z"/>
	<path class="st0" d="M121.5,577.3c3.3,0.3,6.8,0.6,10.1,0.9c-0.8,2.9-5.6,6.7-10.8,8.1C121.3,583.6,121.7,579.8,121.5,577.3z"/>
	<path class="st0" d="M513.5,339.8c-7.2,1.9-14.5,3.8-21.8,5.6c2.7-9.5,14.4-4.9,21.7-6C513.4,339.6,513.5,339.7,513.5,339.8z"/>
	<path class="st0" d="M586.8,292.2c0.7-5.7,1.5-11.9,2.2-17.6C592,277.8,590.8,287.6,586.8,292.2z"/>
	<path class="st0" d="M111.7,553.7c0.5-0.7,1-1.3,1.9-2.4c0.9,3.1,1.7,5.7,2.5,8.3c-0.1,0.1-0.2,0.1-0.4,0.2
		C114.4,557.8,113.1,555.8,111.7,553.7z"/>
	<path class="st0" d="M349,489.6c1.3-1.2,2.3-2.2,3.7-3.4c0.1,1.4,0.2,2.3,0.3,3.4C351.6,489.6,350.5,489.6,349,489.6z"/>
	<path class="st0" d="M522.7,338.2c2.3-0.7,4.4-2.4,7.5-0.5C527.3,337.9,525,338,522.7,338.2z"/>
	<path class="st0" d="M285.2,410.1c-39-0.8-85.8-12.4-106.9-48.1c-13.3-25.2,10.1-59.7,38.3-48.6c8,2.8,15.8,6,23.9,8.6
		c30.2,10.2,62.3,6.5,93.1,1C394.4,320.1,390.3,412.4,285.2,410.1z M283.9,374.6c18.7-0.3,37.9-3.4,54.9-12.1
		c1.9-1.2,5.8-2.2,4.3-5.1c-1-2.2-3.2-1-4.7-0.2c-11.5,6.2-23.8,9.6-36.6,11.3c-32.1,3.7-66.9-1.4-93-21.6c-1.4-1.1-2.8-1.6-4,0
		c-1.1,1.5-0.4,2.8,1,3.7C228.3,367.8,255.5,374.3,283.9,374.6z"/>
	<path class="st0" d="M280.1,177.4c84.7,1.4,84.2,126.9,0.1,128.7C196,305,195.9,178,280.1,177.4z M278.2,272.1
		c32.9-0.1,32.7-50.6-0.4-50.1C245.1,222.2,245.2,272.2,278.2,272.1z"/>
	<path class="st0" d="M505.4,205.3c0.5-8.1,11.9-5.1,11.3,2C516.1,215.5,505.1,212.3,505.4,205.3z"/>
	<path class="st0" d="M282.7,230.8c10-0.3,9.8,15.2,0.1,15.2C272.9,246.1,272.8,230.8,282.7,230.8z"/>
</g>
</svg>
