<?xml version="1.0" encoding="utf-8"?>
<!-- Generator: Adobe Illustrator 26.0.0, SVG Export Plug-In . SVG Version: 6.00 Build 0)  -->
<svg version="1.1" id="Capa_1" xmlns="http://www.w3.org/2000/svg" xmlns:xlink="http://www.w3.org/1999/xlink" x="0px" y="0px"
	 viewBox="0 0 595.3 667.4" style="enable-background:new 0 0 595.3 667.4;" xml:space="preserve">
<style type="text/css">
	.st0{fill:#FFFFFF;}
</style>
<g>
	<path d="M579.1,263.3c19.8-11.4,14.4-36.3,4.8-52.9c26.6-14.4,3.5-45.4-13.3-57.4c9.6-2.4,15-14.4,12.7-24.4
		c-6.6-22.3-32.4-30.7-53.5-28c28.3-43.1-27.7-54.8-58.9-41.6c22.3-29.7-9.2-49-37.6-41.6c-14.5,3.1-26.5,11.2-38.2,20.1
		c1.6-51-65.5-50.3-60.8,2.1C320.6,21.7,302,8.7,278.5,10.9c-17.7-0.1-32,17.1-21.9,33.2c-25.3-3.6-80.7,5.9-62.5,42.2
		c-25.5,2-47.3,19.9-53.3,44.2c-18.1,11.2-48,49-19.1,63.7c4.7,1.2,8,3.9,10.9,7.8c-15.2,10.7-24.8,40.6-3.1,49.5
		c-9.2,11.3-10.3,21.4-13.2,34.5c-6.9,3.4-14.2,5.8-21.8,3c-24.9-8.9-9-41.3-3.4-58.9c14-14.9,16.3-35.1,5.7-52.9
		c-0.9-1.6-0.7-2.5,0.4-3.8c47.3-55.2-18.1-99.1-16.3-36.2c-1.3,7.1-2.8,31.5-13.4,28.9c-3-1.6-7.2-1.7-9.4-4.4
		c-4.8-7.6-12.2-8.3-18.4-1.6c-3.5,3.3-7.1-2.6-10.8-2.9c-58.5,4.7-32.4,236.9,95.3,180.5c-1.5,12.5,6.5,26.8,20.4,26.6
		c-11.7,17.2-15.4,42.9,8.7,50.7c-6.4,21.8,10.5,51.1,35.4,43.1c6.5,16.9,19.7,23.2,36.6,24.2c-6.4,22.3-8.3,45.1-9.5,68.2
		c-2.6,5.1-5.7,9.5-4.5,15.6c0.1,0.6-0.2,1.6-0.7,2c-13.3,8.8-17.9,24.8-24.9,38.3c-1.9,3,0.9,5.7,0.4,8.8
		c-1.5,3.2-0.7,8.5-4.2,10.1c-8.8,3.4-5.1,15.9-4.3,23.1c1.3,6.6,2.3,7.3,9.1,7.6c30.7-1.5,80.9,14.3,104.5-5.9
		c37.7,21.6,89,22.8,128.9,5.6c7.8-3.3,4.8-13.5,5.4-20.2c-4.9-16-3.9-33-5.8-49.6c-0.6-7.5-4.1-13.1-11.6-15.5
		c-8.8-19.2-20.2-39.2-23-60.7c7.1,1.6,13.6,0.3,19.9-3c96.2,95.8,243.2-25,135.8-129.3c8.1-7.7,9.1-19.6,11-29.9
		c55.9,25,45.4-53.7,28.1-82.3C579.6,264.6,579.3,264,579.1,263.3z M340.6,558.7c-4.3,4-1.1,10.6-1,15.7c-9.9,7-18.3,16.9-24,27.5
		c-9,6.6-15.2,11.1-15.6,23.2c-0.8,0.1-1.6,0.3-2.6,0.5c-0.2-3.3-1.3-5.8-4-7.5c-3.1-16-2.4-32.9-7.5-48.6c-1.1-3.7-3.3-6.7-6.9-8.5
		c-0.5-0.2-0.9-1-1-1.7c-3.4-19.5-6.6-38.9-6.3-58.8c0-1.2,0.1-2,1.6-2.2c5.9-0.9,11.1-3.4,16-6.9c13.6,12.5,27.9,13.3,43.3,3
		c1.5,2.4,4.9,4.7,4.6,8c0,9-0.7,18,0.1,26.9c0.7,9.1,2.8,18.1,4.4,27.1C341.5,557.5,341.5,558,340.6,558.7z M491.8,458.5
		c2-8.1,1.7-16.1,0.5-24.4c7.3,0.5,13.7-1.2,18.9-6.7C518.9,441.7,509,460.8,491.8,458.5z"/>
	<path class="st0" d="M559.1,234.9c2.6-0.4,5.9,0,8.3-1.7c2.9-1.3,0.6-5.8-2.2-4.2c-3.4,1.7-6.8,0.9-10.3,0
		c1.7-3.4,7.9-11.4,2.8-13.5c-4.3-0.1-3.5,6.7-6,9.1c-5.3,7.1-12.9,9.1-21.2,8.3c-4.4-0.1-9-3.6-13.4-2.3c-1.3,0.8-0.8,2.2-0.3,3.4
		c8.4,17.1,2.8,43.4-20.7,39.6c-7.9-1.4,5.5,21.2,0.1,33c-1.4,5.1-4.1,9-9.2,11c-6.7,5.2,5.8,8.8,13.1-6.8
		c14.5,10.2,28.4,21.5,43.1,31.3c8.4,4.6-0.2,26.6-6.1,31.8c-4.8-3.8-9.5-7.5-14.2-11.2c2.5-2.5,10.3-6.3,6.8-10.3
		c-1.3-1-2.6-0.6-3.5,0.7c-1.8,2.5-4,4.4-7,5.4c-8.3,2.9-0.7-18-8.6-16.4c-4.8,3.5,6.2,18.1-7.3,19.6c-6.4,0,2.4,10.4-7.2,21.9
		c-4.4,6.2-10.1,10.8-18,11.8c-1.5,0.2-2.4,1.1-2.2,2.6c1.1,4.7,7.3,0.3,10.3,0.3c8.4,1.5,17.7,15.5,22.4,22.6
		c-0.5,7-10.9,9.7-17.4,8.1c-9.8-3.5,1.3,16.2-4.7,29.5c-19.8-7.9-34-24.4-50.9-36.8c-2.6-2-5.7-3.5-9.3-2.9
		c-11.9-19.5-25.4-41.2-48.8-48.5c-2.4-0.4-3.5-1.7-4.6-3.7c-29.4-48.5-117-64.7-165.9-40.7c-47.4,26.5-44.8,111.8,17.7,113.6
		c37.1,5.2,71.2,29.4,109.5,24.2c4.7,11,18.8,10.8,25.4,2.6c8.4-12,23-15.5,36.4-10.4c-0.8,2.2,0.4,5.9-2.6,6.2
		c-20.7,4.3-42.8,16.9-46.8,39.4c-7.5-2.2-11.3-18.5-15.9-12.6c-8.9,9.8-27.3,11.3-38.5-1.6c-4.1-6.6-12.3,11.8-32.7,5.5
		c-9.8-2.3-14.7-10.1-17.7-19c-1-2.1-2.3-2.5-4.1-1.3c-13,9-33.1,2.5-41-9.5c-3.6-3-1.2-14.1-7.9-10.8c-9,3.8-17.5,1.8-23.9-5.5
		c-16.1-18.3-1.3-35.7-8.7-36.4c-13.7-2.6-20.3-17.8-14.1-30c1.3-5,11.7-18.6,9.8-21.9c-0.6-0.4-2-1.1-2.8-0.6
		c-29.2,5.7-20.9-35.7-7.6-48.5c2.5-2.2-0.7-5.9-3.2-3.7c-3.1,2.4-6.2,2.5-9.6,0.3c-13.7-11-4.9-41.3,5.9-52.5
		c3.8-4.1,3.5-5.1-1.9-6.4c-6.4-1.5-10.2-6.8-10.7-14.2c-1.1-13.3,8.3-22.6,17.7-30.4c3.2-1.9,1.9-5.5-1.7-5.2
		c-16-1.2-0.2-30.9,7.5-35.6c5-4.3,10.6-7.4,16.8-9.4c1.7-0.5,2.7-1.4,2.3-3.2c-1-3.8-6.1,0.6-8.4-2.1c-29.4-25.3,20-60.8,47-55.7
		c10-5.1-18.6-5.9-4.7-27.3C215.6,45,245,47.5,268.1,50.5c4.2,1.4,4.7-5.4,0.6-4.9c-9.8-0.1-13.6-13.8-8.3-21
		c24.4-24.2,63.8,1.9,75.5,27.9c0.9,4.3,6.1,5,5.5,0.1c-2.3-10.9-4.1-22.5,0.3-33.2c12-28.8,51.6-11.7,48.1,16.1
		c1,4.6-6.2,18.8-1.8,19.6c1.9,0.6,2.7-0.6,3.2-2.2c2-13.5,22.8-23.1,34.4-28.2c32.5-13.4,67.9,9.6,33.1,39.1
		c-2.5,2.3-13.6,4.4-11.5,8.8c0.9,1.6,2.3,1.3,3.7,0.6c16.7-8.1,34.1-16.5,53.2-14.6c27.7,2.6,37,21.4,17.6,43
		c-2.6,2.2-0.4,5.7,2.6,4.5c21.8-6.2,64.3,8.4,51.3,36.8c-6.6,11.6-15.9,0.1-20.3,5.1c-0.6,1.6,0.2,2.6,1.7,3.4
		c10.2,5.1,19.1,11.8,26,21c6.7,8.4,11.2,22.2,2.7,31c-1.8,1.9-4,2.4-6.4,1.3c-1.2-0.6-2.4-0.7-3.3,0.4c-1,1.2-0.6,2.3,0.2,3.5
		c10.4,14,19,38.8,0.6,50C571,250.7,565,242.7,559.1,234.9z M351.8,244.3c2.3-53.4-63.3-89.9-106.5-57
		c-58.7,40.2-22.5,142.6,56.8,123.5C325.8,304.7,352.1,280.1,351.8,244.3z"/>
	<path class="st0" d="M369.1,368.8c-12.8,1.9-21.1,15.3-10.4,25.1c5,4,11,6.5,16.9,9c3.5,2.2-1.1,16.1-0.6,20.7
		c-0.2,2.3-1.4,3.2-3.8,3.4c-17.4,1.6-33.1,12.9-37.4,30c-2.6,5.9-27,1.8-32.6,0c-25-7.1-49-17.3-74.5-22.1
		c-23.4-2-46.9-15.5-47.5-41.1C173,290.8,327.5,306.3,369.1,368.8z M210.7,384.4c0.5,27.3,31.8,19.1,49.7,25
		c22.4,3.6,43.9,16.2,66.7,15.4c20.7-2.3,25.8-29.5,10.1-42.2C310.1,358.2,218.1,329.2,210.7,384.4z"/>
	<path class="st0" d="M427.7,423c7.4,3.1,12.4,8.7,18.7,13.4c4.4,4.2,10.6,7.5,13.6,12.9c6.2,26.6-8.6,54.7-31.5,68.3
		c-3.8,2.3-10.4-6.5-14-8.4c-6.7-5.6-9.8-13.3-12.2-21.4c-2.2-5,0.8-4.7,4.9-6.2c13.3-3.5,4.7-22.8-7.3-20c0.2-1.5,0.5-2.8,0.7-4.5
		c13,6.3,23.3-14.7,9.4-19.6c0.7-0.8,1.3-1.5,1.8-2.2C420.4,444.1,432.1,434.6,427.7,423z"/>
	<path class="st0" d="M537.6,332.5c-5.8-5.6-17.3-10.3-19.6-17.2c-6.2-29.3,19.3-60.9,49.8-58.3c6.6,3.4,13.5,23.1,16,30.6
		C559.8,289.2,542.9,310.1,537.6,332.5z"/>
	<path class="st0" d="M292.1,627.7c5.1,46-75.4,19.4-102.5,23.1c-7.8-0.5-6.3,0.7-7.6-6.8c-0.6-3.6-0.5-7.4-0.6-11
		c-0.6-6.3,15.6-5.6,20.2-6.9C225.3,621.5,277.1,649.6,292.1,627.7z"/>
	<path class="st0" d="M421.2,637.4c-1.1,4.1,1.1,10.7-3.1,13.2c-7,2.4-13.9,5.1-21,7c-32.2,9.1-66.5,3.5-97.4-8
		c-6.2-2.6-1.9-11.4-3.1-16.8c6.1-10.2,43.3,6.5,54.1,8.4c16.8,5.1,55.3,5.3,69.9-4C420.7,637.2,421,637.3,421.2,637.4z"/>
	<path class="st0" d="M472.8,535.5c17.3-21.3,22.4-45.1,16.2-71.2c35.5-6.4,43.2,45.8,22.2,66.3
		C499.9,536.8,485.3,536.2,472.8,535.5z"/>
	<path class="st0" d="M431.7,521.7c24.1-16.9,36.4-39.3,34.3-69.1c5.3,3.8,12.5,5.8,16.8,10.8c9.2,18.2,1.5,64.2-19.7,70.6
		C452,531.7,441.5,527.4,431.7,521.7z"/>
	<path class="st0" d="M507,460.8c27.4-28.4,95.5,38.7,12,68C533,507.4,530.9,474.3,507,460.8z"/>
	<path class="st0" d="M589.1,320.6c1.1,13.1-6.2,30.9-23.3,26c-7.1-1.9-19.8-6.1-23.6-12.2c4.7-19.8,19.1-39.7,40.8-41.7
		C588.7,291,588.7,314.8,589.1,320.6z"/>
	<path class="st0" d="M321.3,600.7c12.5-13.7,15.9-26.8,36.8-19.5c11.2,3.6,43.1,18.2,38.8,32.5c-2.4,6.6-9.6,12.5-16.7,8.9
		C361.4,612.2,344.6,596.7,321.3,600.7z"/>
	<path class="st0" d="M256.8,629.5c-22.9-4.4-44.3-11.4-67.8-7.2c3.7-28.8,46.3-40.8,62.6-16.7C247.8,614.6,255.9,621,256.8,629.5z"
		/>
	<path class="st0" d="M564.6,491.9c-0.3-23.9-22.8-46.3-47.2-42.2C520.9,409.7,600.8,424.3,564.6,491.9z"/>
	<path class="st0" d="M387.6,590.6c5.4-7,26.2-1.4,23.3-13.3c5.8,4.2,3.9,14.9,5.4,21.4c0.7,10.1,1.2,20.2,1.6,30.3
		c0.2,4.4-1.4,6.4-5.3,7.2c-15.4,2.9-30.9,4.7-46.7,3.2c-4.7-0.4-4.8-0.4-5.5-5c-0.9-6-2.5-11.4,0.7-17.2c9,5.1,18.9,15.3,29.6,10.3
		c5.9-3,9.7-7.8,11.3-14.2C404.4,603,393.5,597.1,387.6,590.6z"/>
	<path class="st0" d="M570.6,434.7c-16.8-13.9-34-16.9-52.1-2.4c-1.4-6.2-4.3-11.8-7.7-17.1c1.3-18.5,22.2-27.6,38.6-18.9
		C561.2,405.1,566.7,421,570.6,434.7z"/>
	<path class="st0" d="M5.8,219.7c21.2,17.4,50,26.8,77.1,19.1c-2.8,28.6-40.7,22.4-59.8,14.4C3.9,243,5.5,239.5,5.8,219.7z"/>
	<path class="st0" d="M280.5,568.5c2.5,10.2,16.7,64.6-1.6,62.5c-23.6-0.7-12.5,1.9-22.2-15.7c-2.5-5,0-9.6,3.2-13.6
		c4.4-6.2,4.9-14.2,7.4-21.2c1.4-7.8,16-1.2,12.3-11.7C280,568.6,280.2,568.6,280.5,568.5z"/>
	<path class="st0" d="M6.8,248c18.8,16.5,47.3,21.5,70.2,11.5c-1,4.7,1.1,10.7-2.7,14c-17.2,12.4-41.4,16.5-59.9,4.8
		c-0.8-0.5-1.8-1.4-2-2.3C10.6,266.7,7.8,257.4,6.8,248z"/>
	<path class="st0" d="M369.9,374.2c23.6,3.3,39.7,24.3,49.9,44.2c1.7,4.6,7.3,11,1.5,14.8c-2.4,1.5-3.7,1.2-5.4-1
		c-11.1-16.9-27.2-29.7-46-37.2C356.3,391,354,375.8,369.9,374.2z"/>
	<path class="st0" d="M220.4,547.9c0.8-10.9,1.6-21.1,2.4-31.6c14.5,6.2,29,7.9,44.1,3.2c1.1,9.7,2.5,19.4,4,29.1
		c0.4,3-0.2,4.4-2.8,5.7C261.1,560.7,251.4,537.4,220.4,547.9z"/>
	<path class="st0" d="M375.2,431.7c6.8-1.1,45.7,9.1,34.8,19.2c-10.8,9.2-30-17.6-54.4,12.6c-5.3,7-18.6,4.3-17.2-5.6
		C342.2,442.1,359.2,431.2,375.2,431.7z"/>
	<path class="st0" d="M342.1,532.7c14.3,2.8,28.8,0.7,40.9-7.3c4.1,9.3,7.6,18.4,11.8,27.5c1.4,4.9-11.9,9.5-15.7,11.1
		c-0.7,0.2-1.8,0.2-2.4-0.2c-8.8-5.6-18.5-6.8-28.6-6.7c-1,0-1.7,0.2-2-1.2C345,548.2,342.7,540.4,342.1,532.7z"/>
	<path class="st0" d="M76.7,278.1c14.1,18.9-24.6,39.4-40.8,38.1c-10.2-6.8-15.3-20.1-20.5-31.5C37.4,294.8,57.4,289.7,76.7,278.1z"
		/>
	<path class="st0" d="M565.9,252c-32.4-0.3-57.9,30.3-53,62.3c-19-12.9-6-9.3-13.6-35.5c22.8,0.7,30.2-23.2,24-42.1
		c15.4,1.6,16.1,1.5,26.1-3.1C555.9,238.6,561.1,244.8,565.9,252z"/>
	<path class="st0" d="M254.7,600.2c-17.4-17.4-47.7-16.1-63.1,3.4c8.3-18.3,20.4-40.1,43.7-37.1c8.1,0.2,31,6.1,25.9,17.6
		C259.1,589.6,259.1,595.6,254.7,600.2z"/>
	<path class="st0" d="M351.6,502.7c1.6-33.4,71.1-47.3,54.8-25.9c-16,4.6-27,15-33.8,29.9C368.3,517.9,351,514.7,351.6,502.7z"/>
	<path class="st0" d="M58.8,195.1c-0.9,6.8-0.1,13.8-2.5,20.2c-2.6,8.8-16.9,8.5-18.7-0.3c-3.9-15.8-1.4-32.2,3.5-47.4
		c0.9-4.6,7.3-10.2,11.2-5.6c6.7,9.4,5.1,22.2,6.3,33.1C58.6,195.1,58.7,195.1,58.8,195.1z"/>
	<path class="st0" d="M93,170.8c-6.4-5.7-7.1-6.1-13.2-7.4c6-14.4,6-29.9,7.7-45c5.5-15,22.7-2.9,22.3,8.9
		C110.9,143.2,102.9,158.8,93,170.8z"/>
	<path class="st0" d="M98.7,199.8c1.9,22.6-23.5,36.4-18.2,15.6c5.3-15.3-17.8-22.6-11.5-40.1C81.8,153.8,100,186.3,98.7,199.8z"/>
	<path class="st0" d="M357.3,614.7c-5.2,7.1-2.7,14.8-1.3,22.8c-16.6-3.3-31.9-11.8-48.9-12.4c-5.5-0.6,1.8-12.9,4.9-14.4
		C325.6,600.3,344.3,605.6,357.3,614.7z"/>
	<path class="st0" d="M84.7,289.6c2.1,1.7,6.2,2.3,6.8,5.2c-0.5,16.5-5.1,31.3-17.2,43.2c-9.8,2.5-27.9-10-34.8-17.1
		C58.5,318.9,77.9,308.1,84.7,289.6z"/>
	<path class="st0" d="M238.2,478.1c4.1,12.5,13.3,19.3,26,20.6c4.6,0.2,1.2,9.8,2.3,13.2c-0.3,9.3-43.8,5.6-42.7-3.2
		c2.1-8.7,4.1-17.4,6.1-26.1C230.9,479.3,235.7,479.8,238.2,478.1z"/>
	<path class="st0" d="M61.2,169.2c1.6,0.7,2.9,1.2,4.3,1.8c-9.8,22.1,12.6,29.3,10.6,41.8c-2.4,8.4-1.8,19.4,9.8,17.6
		c-20.4,13.6-48.2,4.1-67.5-7.4c-4.4-4.1-15.2-8.6-11.9-15.8c4,11.4,16.6,18.9,25.9,8.1c3.3,13,22.3,15.6,27.9,3.1
		C66.7,202.9,61.3,185.5,61.2,169.2z"/>
	<path class="st0" d="M545.4,389.2c-15.4-4.9-33.3,4.2-38.4,19c-4.5-4.6-9.2-9.4-13.9-14.3c7.9-6.7,13.6-15.6,13-27.2
		c2.4-1.6,4.7-3.1,7.2-4.8C524.9,369.6,535.9,378.5,545.4,389.2z"/>
	<path class="st0" d="M30.4,202.9c-0.5,27.3-33.2,9-16.4-31.2c2.7-7,13.7-14,19-5.9c1.4,2.3,1.2,5-1.3,7.6
		C26.8,181.1,30.9,194,30.4,202.9z"/>
	<path class="st0" d="M117.5,334.5c-12.4,4.6-24.8,7-38.2,5.6c11.6-12.9,16.3-28.1,17.2-45c3.9,0,7.8,0,12,0
		C107.5,308.9,109.8,322.2,117.5,334.5z"/>
	<path class="st0" d="M135.2,140.6c0.6,5.2,0.6,10.2,2,14.8c3.5,9.9-11.2,16.1-10.8,35C101.1,182.2,123.1,151.6,135.2,140.6z"/>
	<path class="st0" d="M344.5,574.3c0.4-3.1-3.3-11.6,0.7-12.1c9.4-1,18.5-0.1,26.9,4.4c4.7,0.6,20.4,22,9.8,20.4
		C370.3,580.2,358.5,574.2,344.5,574.3z"/>
	<path class="st0" d="M378.9,505.9c1.5,2.6,4,13.2,1.6,15.1c-11.1,7.7-24.5,9.3-37.6,6.6c-3.2-1.9-0.7-18.3-1.5-23.4
		c2.7,1.5,5.3,1.5,6.6,5c5.2,14.5,27,11.3,30-3.2C378.4,506,378.7,505.9,378.9,505.9z"/>
	<path class="st0" d="M265.6,574.6c-14.9-13.8-31.4-15.7-49.3-10.3C213.7,539,270.8,550.3,265.6,574.6z"/>
	<path class="st0" d="M382.1,406.6c10.8,6.1,19.9,14.1,26.8,24.6c-2.3,3.5-3,4-6.9,2.1c-7.1-3.3-14.8-5.4-22.5-6.7
		C380.4,420.1,381.2,413.4,382.1,406.6z"/>
	<path class="st0" d="M132.8,312.5c-2.6,2.7-7.4,25.9-12,17.9c-6-10.2-8.2-21.3-7.5-33c0.3-3.3-0.4-5,3.6-5.6
		C118.1,302,121.7,310.2,132.8,312.5z"/>
	<path class="st0" d="M397.9,559.8c2.7,6.3,5.5,12.9,8.6,20c-5.4,1.1-10.6,2.2-15.4,3.2c-2.9-5.1-5.7-10-8.4-14.7
		C387.4,565.7,392.5,562.8,397.9,559.8z"/>
	<path class="st0" d="M396.8,486.4c1.6,5.3,3.5,10.4,5.8,15.4c-6.2,4.5-16.4,4.3-21.5-0.3C383.5,496.8,391.7,488.8,396.8,486.4z"/>
	<path class="st0" d="M142.7,135.2c1.4,6.6,5.2,11.5,10.3,15.4c-3.5,2.3-6.9,4.5-10.3,6.7C139.9,151.2,139.7,138.1,142.7,135.2z"/>
	<path class="st0" d="M267.1,560.4c1.6-0.8,3.3-1.7,5.4-2.8c0.8,4.4,1.6,8.8,2.4,13.3c-1.4,0.1-2.6,0.1-3.5,0.2
		C269.9,567.4,268.5,563.9,267.1,560.4z"/>
	<path class="st0" d="M284.1,308.5c-120.9-11.8-45.6-189.8,46.1-108.2C368,241.3,338,309.2,284.1,308.5z M322.6,230.9
		c-0.1-34.1-51.3-34.5-51.7-0.2C271.1,264.2,322.3,264.6,322.6,230.9z"/>
	<path class="st0" d="M244.7,401.3c10.2-6.3,21.9-11.3,33.9-11.6c16,3.9,32.1,5.9,48.5,6.6c3.7,0.2,7.3,2.4,10.8,4.1
		c4.6,2.2,4.6,2.7,3,7.6c-3.6,12-17.4,14.2-27.9,10.9C290.3,412.3,268.1,405.1,244.7,401.3z"/>
	<path class="st0" d="M267.9,372.2c4.3,1,8.4,1.9,12.6,2.9c0.2,8.5,9.1,8.6,15.3,9c6,0.5,5.6-5.2,8.7-5c3.6,1.3,8.7-0.2,11,3
		c2,5.4,13.5,5.8,18.1,3.6c1.2,1.3,2.7,2.9,4.5,5C327.8,391.2,258.1,390.2,267.9,372.2z"/>
	<path class="st0" d="M223.7,366.9c2.6-1.7,4.7-3.2,6.8-4.7c3.2,5.4,13,10.2,18,5.1c2.3-2.2,6.1,1.4,8.9,1.7
		C253.4,385.3,232.9,372.1,223.7,366.9z"/>
	<path class="st0" d="M295.5,380.6c-4.3-1.5-11.7-0.2-10.8-6.2c1.3-3.3,0-11.4,5.3-10.5c3,1.4,9.7,1.3,10.8,4.5
		C299.7,372.8,300.8,379.2,295.5,380.6z"/>
	<path class="st0" d="M250.8,362.5c0.5-1.4,0.9-2.5,1.3-3.8c10,3.4,19.3,6.3,29.5,9.2c-0.1,0.9-0.3,1.9-0.5,3.2
		C270.8,369.2,260.9,366.2,250.8,362.5z"/>
	<path class="st0" d="M248.2,358.4c-1.3,2.3-1.4,6.7-4.4,6.9c-17.4-4.2-5.2-6,4.1-7.7C247.9,357.9,248,358.2,248.2,358.4z"/>
	<path class="st0" d="M303.6,375.2c0.3-1.4,0.5-2.5,0.8-4.1c4,1.5,10.3,0,11.2,5.1c-0.2,0.2-0.4,0.4-0.6,0.6
		C311.2,376.3,307.5,375.7,303.6,375.2z"/>
	<path class="st0" d="M319.6,375.9c3.4,2.2,6.7,4.4,10.1,6.6c-0.1,0.2-0.2,0.4-0.2,0.6c-5.2,0.1-12.1,0.4-10.5-6.8
		C319.2,376.2,319.4,376.1,319.6,375.9z"/>
	<path class="st0" d="M282.3,364c-3.8-1.1-7.4-2.1-11.1-3.2c0.1-0.3,0.1-0.6,0.2-0.9C273.4,360.2,285,360.5,282.3,364z"/>
	<path class="st0" d="M287.5,228.3c-8.3,0.1-8.2-12.8,0.1-12.6C295.6,215.6,296,228.6,287.5,228.3z"/>
</g>
</svg>
