<?xml version="1.0" encoding="utf-8"?>
<!-- Generator: Adobe Illustrator 26.0.0, SVG Export Plug-In . SVG Version: 6.00 Build 0)  -->
<svg version="1.1" id="Capa_1" xmlns="http://www.w3.org/2000/svg" xmlns:xlink="http://www.w3.org/1999/xlink" x="0px" y="0px"
	 viewBox="0 0 595.3 720.1" style="enable-background:new 0 0 595.3 720.1;" xml:space="preserve">
<style type="text/css">
	.st0{fill:#FFFFFF;}
</style>
<g>
	<path d="M583.4,258.8c-9.5-18-23.6-31.4-41.5-40.9c-1.5-0.8-2.1-1.6-2-3.5c0.7-16.6-11.5-31.9-23.9-41.4
		c6.2-6.4,14.7-10.3,13.8-19.9c-1.4-19-20-28.2-36.3-32.7c24.5-9.3,18.9-37.4-1.8-42.9c-16.4-5.8-33.7-2.5-49.3,3.7
		c18.6-63.8-53.8-57-89.5-32.7c-11.1-62-78.8-65.8-77.9-4.1c-5.4-4.2-10.5-8.6-16.3-12.2c-28-19.2-70.9-7.3-60.6,32.5
		c-20.8-11.4-48.1-18.6-69.7-5.4c-15.3,8.8-18.3,26.1-10.4,41.4c-20.3,7.3-42.8,24.5-35.4,48.8c-15.3,7.2-32.4,16-31.7,35.3
		c0,1.8-0.7,2.6-1.9,3.7c-4.9,4.3-9.9,8.3-14.3,13.1c-15.5,15-44.8,80.5-9.2,85.2c11.1-0.4,21-7,31.8-9.3
		c-4.4,16.2-7.8,42.7,16.4,42.7c-3.3,10.7-8.4,21.6-6.6,33.4c0.1,0.7-0.8,1.7-1.5,2.2C40.6,371.8,18.4,392.4,8,421
		c-18.1,49.3-6.1,115.2,44.5,139.8c7.8,4,16.1,5.8,24.8,2.8c0.6-0.2,1.6,0.2,2.2,0.6c18.7,15.6,42.1,20,65.7,16.4
		c13.9,3.3,27.8,6.5,41.7,9.9c8.8,1.1,9.1,2.8,8.1,11.2c0,0.6-0.5,1.6-1,1.8c-9,3.7-8.5,13.9-9.3,22c-2.9,0.5-6.5,0.2-8.9,1.7
		c-7.9,6.4-19,12-21.2,22.9c-0.9,5.5-11.2,3.5-15,16.8c-1.4,6.3-2.8,2.6-6.5,5.3c-6.9,5-2.7,17.7-3.2,25.2c0.1,2.9,1.4,5.4,3.6,7.2
		c17.9,18.7,140.8,23.3,152.3-0.9c1.1-8,1-17.4-6.6-22.4c-4.6-13.3-6.1-28.2-9.6-42c-1.2-5.7-4.2-10.2-9.3-13.1
		c-0.7-0.4-1.5-1-1.7-1.7c-1-4.5-1.8-9-2.5-12.8c8,1,18.5,4.4,23.2-4.6c0.3-0.7,1.6-1.1,2.5-1.3c15.4-2.8,31-5.6,46.5-8.2
		c0.4,10.9-1.2,22.2-1.6,33.2c0,0.6-0.4,1.3-0.9,1.6c-4.2,2.7-6.4,6.9-7.7,11.5c-3.9,12.8-4.7,25.9-3.5,39.2c1,3.6-2.4,5.4-2.9,8.6
		c-3.7,20.8,12,24.7,29.8,25.9c22.7,2.4,45.3,1.7,67.9-1c6.4-0.8,12.7-2.8,19-4.7c1.8-0.5,4.1-2.4,4.5-4c1.4-5.7,2.5-11.5,2.9-17.3
		c0.5-9.4-5.9-8.1-5.7-12.4c0.5-5.2-1.1-9.7-4.2-13.9c-3.8-13.4-5.4-22.2-17.6-30.9c-8.7-6.4-3.7-18.1-17.5-26.1
		c-0.6-0.4-1-1.5-1.1-2.3c-0.9-5.1-1.5-10.1-2.4-15.2c-0.4-2.1,0.3-2.7,2.3-3.1c11.4-1.9,22.7-3.9,34-5.9c5.1-0.9,10.5-1.2,13.2-6.8
		c11.1,10.2,21.6,11.2,30.2,10.1c100.7-9.8,118.9-156.1,43.4-210.4c-0.9-0.8-2-1.3-1.3-3.1c3.6-9.3,3.7-18.9,1.8-28.5
		c-0.3-1.3-0.3-2.3,1.1-3.1c8.2-4.6,10.1-13.4,9.5-22.3c15.9,3.9,29.4,11.2,42.8,19.9C608.5,357.3,596.2,279,583.4,258.8z
		 M71.7,455.2c-1.1,0.9-1.8,2.4-2.6,3.7c-3.3,5-6.8-8.3-6.6-10.7c-0.5-7,2.1-18.8,5.7-25.8c2,7.1,3.6,13.8,5.9,20.2
		C75.8,447.5,76.1,451.6,71.7,455.2z M495.4,450.5c-0.4,14.6-8.1,24.4-23,25.6c5.3-6.3,5.4-13.2,3.2-20.6
		c12.2-3.2,16-12.4,17.2-23.6C494.7,438.1,495.8,444.2,495.4,450.5z"/>
	<path class="st0" d="M504,368.3c-6.3-2.4-3.2-6.2-4.3-11.3c-0.2-1.6-1.3-2.6-3-2.4c-4.1,0.5-1.9,5.7-2.4,8.5
		c-0.5,6.6-3.4,9.6-10,10.7c-3.4,0.5-3.7,1.2-3.6,4.7c0.7,9.6,1.6,24.6-11.5,24.7c-4.3-0.3-3.7,6.5,0.4,5.4
		c3.5-0.7,6.9-1.7,10.9-2.7c2.9,4,6,8.7,6.2,14.9c0.9,11.4,0.5,28.4-14.1,29.8c-3.6,0.4-4.3,1.8-3.1,5.1
		c5.7,12.9-3.5,22.6-16.9,19.8c-0.8-0.1-1.7-0.8-2.1-1.4c-6.3-9.5-15.1-15.6-25.8-19.2c-1.5-0.5-2.3-1.2-2.5-2.9
		c-1.8-13.6-3.7-27.1-5.5-40.7c-1-7.4-4.1-13.1-11.9-15.2c-12.1-15.3-21.9-6.3-38.3-4.8c18.5-13.2,22.2-37.1,8.4-55.1
		c-15.4-23.4-43.9-15.8-67.1-12.5c-41.5,5.1-82.5,3.3-122.7-9.5c-24.8-9.9-52,10.3-51.3,36.8c0.4,53.2,67.7,63.2,109.1,66.7
		c-4.6,2.1-9.2,4.2-14,6.4c-2.9-3.3-7.3-4.7-11.9-5.8c-44.6-10.1-88.5-23-133.4-31.6c-0.1-5.8-0.1-12.3,0.9-18.3
		c0-1.1-0.8-2.9-1.6-3.2c-10.4-3-11.6-13.4-10.4-22c1.2-8.5,4.4-16.3,7.9-24.1c0.5-1.2,0.7-3.1,0.1-4.1c-1.7-1.6-6-0.4-8.3-0.6
		c-6.4-0.1-10.2-3-12-9.2c-3.7-12.9,2.6-25.3,7.7-36.8c1.6-3.5,1.5-4.4-2.1-5.9c-11.3-4-20.2-13.6-16.6-26.2
		c4.8-23,31.3-33.8,20.6-38.4c-6-4.1-15.5-7.7-13.7-16.5c2.2-14.6,16.6-22.5,29.5-26.4c3.3-1,3.7-1.9,2.7-5.1
		c-4.1-12.8-1-23.2,9.4-31.7c7.2-5.9,15.6-9.9,24.2-13.2c3.9-1.5,4.3-2.7,1.9-6.1c-12.3-16.1-1.1-34.5,16-38.9
		c22.4-6.3,45.7,2.5,64,15.4c1.6,1.2,3.2,1.8,4.6,0c1.4-1.7-0.2-2.8-0.9-4.4c-12.2-17.6-4.1-42.4,19.7-42.4
		c19.3-0.3,36.1,11.5,48.6,25.2c3.3,6,5.3,12.7,8.2,18.9c1.6,4.6,7.6,1.3,4.9-2.6c-32-54.5,30.4-96.7,54.8-31.9
		c1.3,3.7,2.1,7.6,3.2,11.4c0.5,1.7,0.3,2.9-1.4,4c-2.1,2-9.5,5.9-6.5,9.2c1.6,1.7,3.2,0.9,4.6-0.4c23.8-25.7,107.6-47.1,94.1,11.7
		c-1.1,3.4-2.6,6.7-4,10c-1.2,3.4-9.1,3.7-6.7,8.2c1.2,1.9,2.7,1.4,4.4,0.6c5-2.6,9.9-5.3,15.1-7.5c55.8-23.2,89,32.6,14,35.1
		c-1.7,0.2-2.9,1.1-2.8,2.9c0.1,1.8,1.4,2.7,3.1,2.5c4.5-0.3,9-0.9,13.6-1.1c19.1-1,44.9,5.8,49.2,27.2c0.5,3.1-0.1,5.9-2.3,7.9
		c-3.4,3-7,5.8-10.7,8.3c-10.9,5.3,17.8,14.2,22.8,40c3,11.8-5.8,20.2-16,24.3c-3.1,1.6-3.6,2.8-1.7,5.7
		c9.3,13.1,20.1,49.5-6.9,46.4c-11.5-0.2,9.5,20.6,6.5,38.1c-0.5,5.8-3.1,10-8.5,12.4C499.8,337.4,511.5,349.7,504,368.3z
		 M345.7,238.8c-1.9-109.2-163.3-108.3-165.4,0.2C183.2,346.9,343.5,347.3,345.7,238.8z"/>
	<path class="st0" d="M244.4,429.5c50.9-9.6,101.8-18.9,152.7-28.3c8-1.5,13,1.9,14.2,9.9c3.7,26.4,7.2,52.7,10.7,79.2
		c-17.4-0.3-34.1-10.7-51.3-6.6c-10.7,2.6-16,14.6-7.2,22.7c15.6,14,38.6,11.8,58,11c0.1,0.3,0.2,0.5,0.4,0.8
		c-18.4,3.8-38-0.8-56.5-2.9c-17.1-3.3-37.1,15-18.4,28.5c23.4,11.8,51.7,5.5,76.4,1.4c0.2,0.2,0.3,0.4,0.5,0.6
		c-0.6,0.5-1.2,1.2-1.9,1.4c-15.1,3.4-30.4,5-45.9,6.1c-20.6,2.2-30.7,25.5-5.5,31.2c-29.1,5.7-58.5,10.2-87.7,15.6
		c-2.3,0.4-3.3,0.2-3.8-2.4C267.6,541.5,255.7,485.6,244.4,429.5z"/>
	<path class="st0" d="M98.3,508.1c5.9-1.3,11.7-2.1,17.1-4c12.6-3.9,20.2-19.3,7.9-28.5c-9.7-7.6-21.8-4.1-32.8-2.1
		c-1.4,0.2-2.1,0.1-2.6-1.5c-5.3-22.1-14.2-43.7-17.3-66.1c0-3.3,1.6-4.8,4.9-4.7c44.7,8.4,89.2,18.9,133.9,27.9
		c3.1,0.6,3.5,2.9,4,5.1c12.9,55.3,25.7,110.4,38.4,165.8c-33.5-7.9-66.7-15.7-100.4-23.7c8.9-6.3,9.9-18.3,0.5-24.5
		c-6.2-4.5-13.5-4.1-20.8-4.7c9.7-1.3,19.9-3.8,25.4-12.7c4.6-7.2,2.2-15.8-5.2-19.8c-13-6.5-33.8,0.1-48.5,0.3
		C98.7,515.7,99.3,510.4,98.3,508.1z"/>
	<path class="st0" d="M252.6,412.6c-34.6-1.9-72.8-6.3-99.8-29.7c-25.2-21-12.5-71.3,23.7-65.2c32.9,9.3,66.4,15.5,100.8,13.8
		c26.5,1.8,64.2-14.9,85.3-0.4c11.1,7.5,17.9,24.2,14.6,36.5c-5.3,17-22.6,27.1-39.3,30.3C309.5,403.2,281.7,412,252.6,412.6z
		 M255.6,378.2c10.9,3,102.1-11.3,81.7-20.1c-52.3,20.8-114.2,20.5-163.9-7.5c-3.7-2.7-7,3-2.7,4.8
		C197.1,370.7,230.4,378.2,255.6,378.2z"/>
	<path class="st0" d="M427.6,518.9c-2.2-4.4,7.4-2.4,11.9-9.2c4.9-6.4,1.5-15.9-5.9-18.5c4.7-9.2,14.5-11,23.9-9.9
		c4,0.6,9.1-0.3,12.6,1.8c21.4,25.5,27.9,66,7.7,93.7c-13.4,4-29.8,3-39-9c-0.9-1.1-1-1.9-0.1-3c6.3-8.4,0.2-18.1-7.8-19
		c-0.7-0.1-1.3-0.9-1.9-1.4c1.3-2.2,3.8-2.7,5.9-3.9c5.9-3.4,7.3-8.3,4.4-15.4C437.5,520.2,432.1,519.4,427.6,518.9z"/>
	<path class="st0" d="M159.8,650.4c3.8-8,12.1-12.4,18.4-18.4c12.6-3.1,25.4,0.3,34.5,10.1c1.5,1.7,3.1,2.1,5.1,0.8
		c2.8-1.9,6-2.3,9.4-2.1c9.6,0.6,19.1,0.6,28.6-1.4c5-1,5.1-1.1,5.1-5.8c0.2-0.1,0.4-0.2,0.6-0.3c6.5,15.9,7.7,33.5,12,50.1
		c0.4,1.9-0.5,2.8-1.9,3.3c-21.5,6.9-45.9,7-66.6-1.7c-5.5-7.3-15.8-11.9-8-21.8c2-2.3,3.7-4.6,0.3-6.6c-11.2-7.9-23.8-9.3-36.9-5.5
		C160.2,650.9,160,650.6,159.8,650.4z"/>
	<path class="st0" d="M278.5,688.1c2.1,2.7,2.3,5.7,2.4,8.7c0.2,6.5-0.8,7.8-6.8,10.3c-38,10.6-92.3,10.6-129.7-2.4
		c-4.4-1.9-9.2-4.2-9.2-9.8c-0.1-5-0.5-10-0.2-15c0.2-3.2,1-3.6,4.2-3.6c43.9,2.1,85.3,31.5,129.8,17.3
		C272.7,692.7,276.1,691.4,278.5,688.1z"/>
	<path class="st0" d="M220,437.7c7,0.8,13.6,1.6,19.8-2.3c11.5,55.7,23,111.1,34.4,166.7c0.6,2.9-0.2,4.6-3.1,5
		c-4.5,0-12.4,2-13.1-4.3C245.5,547.7,232.5,492.8,220,437.7z"/>
	<path class="st0" d="M374,713.6c-15.4,0.1-30.7-0.9-45.9-3.5c-8.9-1.5-11.9-6.8-11-16.4c0.3-2.8,1.1-3.2,3.9-2.6
		c25.8,6,47.9-12.1,73.2-12.5c9.3-0.2,31,1.5,35.9,10c1.2,4.3,0.2,18.2-5.1,19C408.3,712.2,391.1,712.6,374,713.6z"/>
	<path class="st0" d="M92.2,507.5c0.6,2.2,1.3,4.4,2,7c-10-1.3-25.5,2.4-19.2,15.5c5,9.2,15.9,11,24.5,15.3
		c-10.7-3-29.8-3.6-24.3,13c-20.7,7-32.4-17-35.1-33.9c-5.2-22.6,2.7-48.8,25.2-58.3c3.7-0.8,7.8,0.8,11.6,1.3
		c4.8,1.1,5,1.4,5.6,6.9c-11.7,0-24.8-2.3-22.2,14.6C64,502.1,79.9,506.3,92.2,507.5z"/>
	<path class="st0" d="M540,316.9c-6.3-2-12.3-3.8-18.3-5.8c-0.5-0.2-1.1-0.8-1.3-1.3c-2.2-6.4-5.4-12.7-6.9-19.2
		c28-2.1,18.5-37.3,8.8-53.7c6.7-3.3,12.5-7.6,15.9-14.9c16.2,8.5,29.2,20.1,38.5,35.9C551.5,266.4,544.3,293.9,540,316.9z"/>
	<path class="st0" d="M325,642.5c0.1,2.9,1.7,3.6,3.8,3.7c4.6-0.4,12.2,2,15.8-1.1c2.6-2.6,5.4-4.7,8.9-5.9
		c22.7-8.8,56.2-12.8,64.6,17.2c-20.9-8.3-43.7-7.5-63.7,3.1c-4.9,2.9,2.7,6.3,0.2,11.3c-1.5,3.2-3.3,12.5-6.5,13.6
		c-8.4,2.2-16.9,3.1-25.4,1.4C316.2,683.1,321.1,648,325,642.5z"/>
	<path class="st0" d="M590.2,309.2c-1.1,6.2-0.6,12.9-3.5,18.6c-7,13.7-19.3,4.5-28.3-1.5c-3-2.3-12-4.9-12.8-8.2
		c2.2-16.8,7.1-32.5,18.2-45.7c2.7-3.4,14-13,17-6.5C586.9,279.8,589.5,294.2,590.2,309.2z"/>
	<path class="st0" d="M380.4,545.2c-10.6-1.9-22.6-0.5-31.6-7.2c-11.8-10,6.4-19.7,16.1-17.3c18.1,2.7,36.3,5.7,54.6,4
		c5,0.5,14.4-2.2,15.5,4.6c0.5,2.5,0.3,5-2.4,6c-16.5,6.9-34.4,9.1-52.2,9.3C380.4,544.8,380.4,545,380.4,545.2z"/>
	<path class="st0" d="M486.5,573.9c15.4-33,10.6-63.7-10.7-92.5c3.4-0.7,6.3-2.8,9.3-0.9c24.9,15,35,42.2,26.4,70.7
		c-5,18.1-9,16.2-24.6,23.4C486.8,574.3,486.7,574.1,486.5,573.9z"/>
	<path class="st0" d="M538,415.1c-15.9-2.7-28.8,2.4-40.1,12.7c-3.7-9-7.5-17.9-13.1-25.9c-0.4-0.7-0.7-1.8-0.4-2.4
		c3-6.6,2.6-13.4,2.3-20.5c4.7-1.1,8.7-3.4,11.3-7.9C514.2,383.1,527.7,397.1,538,415.1z"/>
	<path class="st0" d="M120.7,542.3c-11.6-0.3-22.7-2.8-33-8.2c-10.1-5.5-13.2-14.3,1.5-14.2c15,1.2,29.8-0.1,44.7-2.4
		c4.5-0.7,9-0.7,13.3,1.2c6.6,2.9,8,9.1,3.2,14.5C142.9,541.8,131,541.2,120.7,542.3z"/>
	<path class="st0" d="M129.4,576c-17.8-0.2-37.4-5.2-48.8-19.8c-2.2-3.3-0.7-6.4,3.3-7.1c2.4-0.4,5.1-0.4,7.5,0.2
		c16.9,4.3,34.2,2.7,51.3,4.5c7.7,1.3,14.5,9.7,7.4,16.2C144.6,575.6,136.8,576.5,129.4,576z"/>
	<path class="st0" d="M42.1,202.3c-8.2,24.6-4.7,48.5,4.1,72.1c-56.6,29.9-24.8-54.4-4.9-72.8C41.6,201.9,41.9,202.1,42.1,202.3z"/>
	<path class="st0" d="M379.4,580c-8-1.2-26.6-4.6-15-16c5.1-4.5,11.5-5.9,18-6.2c14.7-0.7,29.3-2.1,43.5-6.1
		c4.9-1.8,12.2,2.3,9.2,7.9C424.9,573.4,396.2,577.7,379.4,580z"/>
	<path class="st0" d="M406,512.8c-9.5-0.4-18.9-0.6-27.8-4.1c-9-2.8-21.5-13.3-7.3-19.3c12.3-4.2,24.7,2.9,37,4.4
		c6.1,1.1,12.3,1.4,18.5,2c7-0.7,14.1,5.6,7.6,11.5C425.9,513,415.3,511.7,406,512.8z"/>
	<path class="st0" d="M95.4,502.3c-10.5-0.3-30.7-4.7-29.9-18.1c0.4-2.9,2-4.4,4.9-4.3c11.3,0.4,22.5-0.8,33.5-3.1
		c11.3-3.5,28.3,8.4,15.6,18.9C112.7,501.3,103.7,501.3,95.4,502.3z"/>
	<path class="st0" d="M60.1,427.2c-13.4-12.2-28.3-15.4-45.5-7.5c3.3-8.3,14.8-29.8,23-32.6c12.8,0.6,31.9,15,27.1,28.9
		C62.8,419.6,61.6,423.3,60.1,427.2z"/>
	<path class="st0" d="M551.1,458.6c-10.9-16.6-32.6-18.9-49.9-11.5c-0.3-2.9-0.3-5.7-1.1-8.3c-1.2-3.9,0.3-6.1,3.2-8.5
		c10.6-8.9,22.4-12.7,36-9.2C546.2,424.6,551.5,450.8,551.1,458.6z"/>
	<path class="st0" d="M424.4,677.8c-22.9-8.2-45.1-5.2-67.4,3.9c2.2-6.4,4.9-12.1,2.6-18.6c16-7.5,34.2-9.6,50.9-3.4
		C417.9,662.7,425.6,669,424.4,677.8z"/>
	<path class="st0" d="M515.1,558.2c12-29.8,2-65.3-26-81.9c2-1.6,3.4-4,6.1-3.4c30.4,6.4,39.2,40.5,35.5,67.6
		c-0.1,0.6-0.2,1.2-0.5,1.6C525.1,547.3,520.8,553.9,515.1,558.2z"/>
	<path class="st0" d="M537.4,529.9c-0.2-27-11.5-55.6-40.3-62.3c0.2-2.3,1.1-3.4,3.5-3.7c11.7-1.4,22.5,0.6,31.3,8.9
		C546.4,487.5,547.6,512.5,537.4,529.9z"/>
	<path class="st0" d="M6.3,450.4c3-10.3,0.6-22.9,13-26.8c14.7-5.8,27.3-1.9,38.2,8.9c1.8,2.9-0.7,8-0.8,11.8
		c-15.8-10.1-36.7-6.4-49.7,6.5C6.7,450.6,6.5,450.5,6.3,450.4z"/>
	<path class="st0" d="M144.4,670.5c1-5.1,3.4-9.4,8.1-11.2c12.3-5.2,27-6.9,39,0.1c-2.3,9.2-5.6,17.5,3.7,23.7
		C178.4,678,162,673,144.4,670.5z"/>
	<path class="st0" d="M333.6,612.1c0.3-5.3,0.5-9.8,0.9-14.3c0.1-0.6,1.2-1.5,2-1.6c15.1-2.8,29.7-5.2,44.9-7.9
		c0.9,5.5,1.7,10.9,2.6,16.6c-12.1-0.9-19.5,1.8-29.9,7.3C347.5,612.1,340.8,612.1,333.6,612.1z"/>
	<path class="st0" d="M67.3,398.8c-4-3.7-7.6-7.8-11.8-10.7c-4.2-2.9-9.2-4.6-14-6.9c8-8,17.4-14.8,27.5-21.2
		c11.7,16.8,10-1,9.5,28.6C76.6,400.3,73.7,392.6,67.3,398.8z"/>
	<path class="st0" d="M549.1,493.8c-6.4-25.7-22.5-37.6-48.7-35.6c-0.4-4.2-0.1-4.8,3.4-6.2c20.9-10.3,49.6,3,47.1,27.3
		C550.2,484.1,549.7,489,549.1,493.8z"/>
	<path class="st0" d="M398,628.8c-16.1-3.7-31.1-0.1-46,5c-2.9-15.8,16.5-25.8,30.6-23.4C391.5,611.1,397,620.6,398,628.8z"/>
	<path class="st0" d="M6.6,484.4c-0.3-7.3-0.7-14.6-0.9-21.9c7.3-18.3,38.1-26.3,52-9.3c-25.7-3.4-41.2,8.8-50.4,31.3
		C7.1,484.5,6.9,484.5,6.6,484.4z"/>
	<path class="st0" d="M220.2,612.2c9.7-0.7,19.3,0.4,29,0.6c0.7,0,1.8,1,1.9,1.7c1.3,5.9,2.4,11.8,3.5,17.8c0.3,1.3-0.2,2-1.5,2
		C210.6,635.8,237.4,639.6,220.2,612.2z"/>
	<path class="st0" d="M53.2,466.1C28.8,486.3,28.6,521,42,547.7C14.5,529.4,19.2,474.4,53.2,466.1z"/>
	<path class="st0" d="M56.3,459.5c-30.2,5-41.9,36.7-36.1,64.1c-3.8-6.2-6.3-12.6-8.6-19C6,480.2,30.9,451.8,56.3,459.5z"/>
	<path class="st0" d="M190.1,621.2c1.4-5.1,1.7-14.5,9.3-12.8c11.3,1.3,20.8,8.5,21.7,20.3c0.5,4.8,1.5,7.5-4.2,8.3
		c-0.7,0.2-1.7-0.4-2.3-0.9c-5.8-5.3-12.5-8.6-20.2-9.9C190.4,625.5,190.4,625.5,190.1,621.2z"/>
	<path class="st0" d="M227.1,433.1c-14.6-1.7-6.4-6.4-14.1-8.9c-43.6-9.3-87.2-18.3-130.7-27.7c0.2-3,1.2-4.1,4-4.1
		c44,9.2,87.6,21.3,131.4,31.6C222.4,425.1,226.3,427.1,227.1,433.1z"/>
	<path class="st0" d="M397.3,395.5c-50.1,9.3-99.5,18.4-148.9,27.6c0-0.2-0.1-0.3-0.1-0.5c46.3-9.9,92.5-19.9,138.8-29.8
		C390.6,392.1,393.9,392.7,397.3,395.5z"/>
	<path class="st0" d="M43.5,237.2c-1.2-15.9,1.5-31,9.2-44.9c4.4,3.5,8.4,6.6,12.5,9.8C55.7,212.2,46.4,222.7,43.5,237.2z"/>
	<path class="st0" d="M200.5,593.6c16.5,4.5,33.5,6.4,49.3,12.5c-0.1,0.3-0.2,0.6-0.4,0.9c-11.4-0.5-22.8-1.4-34.3,0
		c-4.7-0.3-9.3-2.8-13.9-4C199.6,601,200.9,596.7,200.5,593.6z"/>
	<path class="st0" d="M333.3,617.6c5.7,0,11,0,16.5,0c0,0.7,0,1-0.1,1.3c-2.8,5-3.7,10.4-3.7,16c-2.4,6.9-8.1,6.5-14.2,6
		C332.3,632.9,332.8,625.3,333.3,617.6z"/>
	<path class="st0" d="M431.1,483.4c-1-0.8-4.3-1.8-4.9-3.7c-0.9-6.4-1.8-12.8-2.7-19.6c9.1,3.1,16.2,8,21.3,15.2
		C440.3,478,435.9,480.6,431.1,483.4z"/>
	<path class="st0" d="M51.4,273.2c-2-6.5-4-12.9-6-19.2c0.2-0.1,0.4-0.3,0.7-0.4c3.7,6.6,9.5,10.5,16.2,13.4
		C61.4,272.7,56,271.6,51.4,273.2z"/>
	<path class="st0" d="M238.5,425.6c-0.9,5-2,6.1-6.3,6.7C232.5,429,234.6,426.7,238.5,425.6z"/>
	<path class="st0" d="M79.4,462.2c-1.9-0.4-3.3-0.7-5.2-1.1c1.2-1.6,2.2-3,3.5-4.8C78.4,458.5,78.8,460.1,79.4,462.2z"/>
	<path class="st0" d="M432.2,570.7c-1.9,4.2-5.4,3.7-8.5,4C426.3,573.5,428.9,572.3,432.2,570.7z"/>
	<path class="st0" d="M241.2,312.5c-83.1-21.3-68.4-157.5,29-150.7c92.4,9.3,92,146.2-1.3,153.5c17.5-7.9,23.4-31.2,10.4-45.5
		C252.4,239.5,206.2,284.5,241.2,312.5z"/>
	<path class="st0" d="M251.8,272.7c13.1-0.1,13.2,19.9,0.2,19.9C238.7,292.8,238.7,272.7,251.8,272.7z"/>
</g>
</svg>
