<?xml version="1.0" encoding="utf-8"?>
<!-- Generator: Adobe Illustrator 26.0.0, SVG Export Plug-In . SVG Version: 6.00 Build 0)  -->
<svg version="1.1" id="Capa_1" xmlns="http://www.w3.org/2000/svg" xmlns:xlink="http://www.w3.org/1999/xlink" x="0px" y="0px"
	 viewBox="0 0 595.3 543.1" style="enable-background:new 0 0 595.3 543.1;" xml:space="preserve">
<style type="text/css">
	.st0{fill:#FFFFFF;}
</style>
<g>
	<path d="M464.3,183.1c9.3,6.5,21.8,24.2,9.4,33.1c7.6,7.3,23.2,27.3,12,36.5c3.6,9.5,10.9,21.4,3.9,30.9c-1.3,1.5-0.7,3.2-0.5,4.7
		c8.9,5.3,20.2,3.8,27.9-3.4c6.7-6.9,10.2-16.8,11.5-26.2c-7.9-1.8-13-6-13.4-14.5c-0.7-8.7,3.1-19.1,13.5-18.4c1.4,0,2-0.3,2.4-1.8
		c4.2-15.6,22-25.1,36.2-13.4c4.2,3.2,7.1,7.2,6.6,12.7c37.8,23.2,19.5,70.6-7.2,94.9c-19.5,19.1-48.3,22.5-73.8,15.6
		c0.7,5.9,2,14.5-5.6,16.4c4.7,9.9,9,31.4-6.5,33.2c-1.2,11.8-6.5,27.6-21.4,23c-3.4,7.8-7.8,14.8-16.2,18.4
		c1.6,5.7,3.6,11.3,5.4,16.9c0.2,0.6,0.8,1.2,1.3,1.4c5.1,1.7,7.3,4.6,7.2,9.9c-0.2,9.1-0.5,18.2-0.9,27.2
		c-0.1,10.4,12.7,13.2,19,19.4c3.6,2.9,6.9,6.3,10,9.8c7,8.1,3.9,25.5-8.3,26.5c-22.7,2.8-46.3,2.6-68.4-3.4
		c-4.6-2.1-12.9-3.7-11.4-10.4c4.1-22.1,5.1-44.5,3.3-66.8c-9.5-1-15-8.7-12.2-17c0.8-3.3,4.6-4.4,6.9-6.3c-2.2-2-4.3-3.8-6.6-5.9
		c-12,11.3-24.7,12.1-37.9,1c-7,7.3-15.1,11.1-25.2,7.3c-3,5.1-5.4,10.4-8.3,15.5c-1.1,3.4,6.7,5.5,0.6,14.7
		c-22.6,31.9-11.1,31.3-13.9,65.6c-3.4,16.4-50.1,13.1-62.8,9.6c-9.5-2.1-10.6-13-9.5-21c0.8-7.2,4.6-13.5,9-18.9
		c6.8-6.1,9.5-14.1,12.2-22.5c3.4-10.6,7.8-20.8,11.9-31.2c2.6-6.2,7.4-12.9,14.7-13.4c2.5-0.4,5.3-7.3,7.1-9.3c-2-3.4-4-6.7-6-10
		c-14,5.8-25.2-8.6-27.4-21.1c-8.3,2.6-14.6-4.2-16.3-12c-8.7,20.3-24.7,50.4-50.4,48.4c-4.9-0.8-9.8-2.4-14.4-4.1
		c-18.4-6.9-33.3-19.8-48.8-31.5c-7.8-5.4-9.3-14.4-9.4-23.2c-50.6,4.2-91.7-23.7-111.8-69.5c-2.2-4.7-2.8-9.4,0.9-13.6
		c2.7-3.2,6.4-4.2,10.4-4.4c24.2-1.1,48.6-7.2,68.6-21.4c17.3-12.7,24.3,9.7,33.1,20.5c5,6.7,10.9,12.5,17.8,17.6
		c14.8-27.5,46.5-24.6,67-5.3c0.5,0.5,1.4,0.9,2.1,0.8c10.6-1.2,21.2-2.5,31.9-3.8c0.9-6.9,4.2-12.4,9.6-16.8
		c-7.9-11.2-2.9-20.3,4.6-29.1c-6.4-4.2-6.3-10.3-4.7-16.9c-33.5-3.3-57.6-30.4-72.8-58.4c-1.8-3.3-3.7-6.6-3.4-10.6
		c0.6-3.6,1.9-7.1,2.1-10.8c0-2.7,4-6.8,2.3-8.7c-10.3-12.1-11-33,5.8-39.4c1.2-0.5,1.6-0.9,1.2-2.3c-4.7-16.8,9.1-29.1,26-27.3
		c3.1-16.4,24.4-19.3,35.8-9.4c7.3-10.6,22-8.6,27.8,2.5c0.8-2.4,3-6.9,5.1-3.1C280,76.4,303.3,66.2,297,51
		c-3.8-9.8-12.9-6.5-9.8-11c23.1-33.4,67.5-48.7,106-34.8c32.3,12.7,52.2,43.8,67.7,73.3c6.1,12.8,19.1,19.5,31.4,25.2
		c16,6.6,10.7,26.4,7.6,39.5C495.5,162.2,480.4,174,464.3,183.1z"/>
	<path class="st0" d="M236.8,291c2.7-13.6,13.9-14.6,10.1-17.8c-9-6.9-2.6-20.8,5.1-26.8c1.3-1.1,1.1-2.6-0.5-3.2
		c-4-1.2-5.9-3.7-6-7.9c-0.2-8.7,6-15.2,12.8-19.6c5.9-3.4-7.5-5.3-3.8-16.6c2.5-7,11.7-6.9,17.4-4.3c0.7,0.4,1.9,0.1,2.7-0.3
		c16.4-7.7,33.2-14,50.6-19.1c-6.6,8.6-1.8,14.9,4.6,21.5c-0.5,0.4-1.2,1-2,1.6c-9.2-25.5-35.2-2.9-18.6,9.1c2.8,1.7,6,2.7,9.2,4.1
		c-0.1,0.4-0.4,1.1-0.7,2c-26.1-14.7-28.6,28-1.4,17.5c8.2,35.3,60,39.8,70.4,3.9c7.8-29.8-18-47.8-41.7-45.3
		c-0.4-7.6,0.8-13.3-8.1-17.5c27.7-6.9,55.5-9.9,84-9c-5,5.8-2.7,11.6-0.5,17.7c-35.5,7-25.1,60.4,5.7,66.7
		c21.4,6,39.1-17.3,31.4-39.8c8,0.8,14.6-1.5,15.2-10.5c2.9,5.3,5.3,14.3-2,16.7c-0.9,0.1-2.3,1-2.6,1.7c-0.1,0.6,0.5,1.5,1.1,1.9
		c8.1,5.5,13.2,13.2,16.2,22.4c0.6,3.3,2,8.7-2.1,10.4c-1.7,0.8-1.8,1.4-1.1,3.1c2.6,8.7,9.1,16.5,6.2,26
		c-12.4-50.3-55.2-23.8-89.8-21c-28.6,3.5-71.8-3.7-79.3,33.5c-12.9,78,155.1,60.7,168.9,4.7c1.9,7.7,4.9,16.9-1.4,23
		c-1.1,1.1-1.3,1.9-0.9,3.3c1,5.6,9.1,23.7-0.6,24.4c-2.6,0.1-3.1,1-1.8,3.4c4.3,7.1,9.4,29.4-3.5,29.7c-5.7-1.3-0.1,9.5-8,19.8
		c-7.6,9.7-14-1.5-15.6,4.8c-3.1,9.8-16,25.1-25.8,13.8c-1.3-1.3-2.1-1.4-3.4,0c-8.1,9.6-27.7,18.7-36,5c-1.2-2.1-1.8-2.1-3.7-0.6
		c-24.3,22.3-33.9-4.1-39,1.8c-20.8,21.8-32.4-6.9-36.4-1.3c-11.2,10.4-25,0.1-28.7-12.1c-0.9-2.5-1.6-2.7-3.7-1.2
		c-10.7,6.8-20.8-6.3-22.9-15.9c-0.8-2,0-6.5-3.5-5.2c-3.4,1.5-7.8,1.3-10.1-2.1c-3.3-4.8-5-10-3.3-15.8c2.1-7.4,3.6-14.9,3.4-22.6
		c0-0.6,0.4-1.4,0.8-1.6c7.8-4.3,15.5-8.9,23.5-12.9c0.5,2.1,0.8,4.3,1.5,6.4c0.8,1.7,3.8,1.7,3.1-0.8c-0.7-3-1-6.3-0.9-9.3
		c0.6-6.1,4-10.9,8.4-14.9c2.1-2.4,6.2-3.8,7-7c0-0.5-1-1.2-1.6-1.4c-12-3.5-7.6-18.3,1.3-23.3c1.4-0.6,2.8-2,2.3-3.4
		c-0.3-0.5-1.7-0.8-2.1-0.5c-3.1,1.9-5.7,5.1-9.1,6.4C263.8,287.8,250.5,289.4,236.8,291z"/>
	<path class="st0" d="M468.4,176.8c2.1-10.7-5.9-20.7-16.9-15.5c-0.9,0.5-2.2,0.6-3.2,0.5c-59.5-7.3-120.3,3.8-174.4,29.3
		c-0.6,0.3-1.4,0.3-2,0.1c-4.8-1.8-9.5-1.7-14.2,0.1c-8.7,3.2-9.2,16.3-2.4,22.1c-4.3,3-7.1,6.8-10.2,10.9
		c-3.2,2.6-20.6-3.5-24.7-5.1c-16.6-9.2-30-23.2-40.4-39.1c-2.5-5.3,2.4-10.7,6.4-13.6c11.3-8.1,25.1-11.8,37.5-17.9
		c24.7-12.4,41.2-36.9,53.8-60.7c2.3-4.7,4.2-9.5,6.2-14.3c0.4-1,0.9-1.4,2.1-1.5c11.6-1.1,18.3-11.9,14.2-22.8
		c14.6-23.2,46.6-36.4,74-30.4c35.2,6.7,57.3,38.4,73.7,67.8c5,10.9,11.6,20.8,22.5,26.4c8.9,5.8,20.2,8.3,27.9,15.8
		c0.8,0.9,1.1,1.8,0.9,3.1C496.8,151.2,485.3,167.3,468.4,176.8z M395.9,81.7c-18.3-12.2-48.9-10.1-60.1,10.6
		c-7.9,16.4-5,41.2,18,39.5c-1.9,6.9,7.1,11.5,12.2,7.2c5.6,6.5,13.3,5.7,17.2-1.9c5.9,3,13.3-3.4,9.9-9.6
		c24-3.3,16.9-32.9,3.5-44.9c5.6-1.2,10.3-0.8,15.8-0.5c8.4,0.3,17.4-7.8,14.4-16.4c-2-7.5-9.1-9.2-16.1-8.1
		c-2.1-23.6-39.7-7.4-19.9,14.4C393.2,74.9,395.4,77.9,395.9,81.7z M316.4,65.2c-23.8-2.4-18.3,29.6,6.6,24.5
		c4.5-1,8.9-2.6,13.7-1.9c0.5,0.1,1.6-1.1,1.6-1.6c-0.5-7.3,5.6-12.7,5.8-19.8C344.9,48.4,313.1,43.9,316.4,65.2z"/>
	<path class="st0" d="M391.6,341.2c-26.2-1.4-55-1.9-66.8-27.2c-4.9-12.1-4.4-24,3.7-34.8c12.1-17.5,35.1-14.6,53.8-16.2
		c15.6-0.7,31-3.3,46.2-6.7c16.3-4.4,35.5-9.3,48.2,5.5c12.5,14.6,12,38-1.8,51.5C452.7,332.5,419.7,339.7,391.6,341.2z M378,287.4
		c-7.3,0.1-15.1-2.2-22,1.1c-11.3,5.2-9.5,21.1,1.7,24.5c21.5,7,44.6,6.7,66.3,0.8c13.4-4.8,41-11.2,39.6-29.2
		c-0.6-12-13.9-12.4-22.3-8.6C420.9,283.6,399.9,288,378,287.4z"/>
	<path class="st0" d="M117.1,370c11.3-1.2,22.4-3.4,33.4-6c8.4-2.5,4.9-7.2,9.2-9.1c2.3-0.8,3.8-2.4,4.7-4.7c1.7-4.4,3.6-8.7,5.4-13
		c2.1-4.9-1.4-5.2-1-8c0.6-1.7,1.3-3.4,2-5.1c1.8-4.7-0.2-8.6-4.9-9.9c-10.8-2.8-21.1-6.5-30.6-12.4c13.2-25.8,42.3-23,61.4-5.5
		c31,28.1-7.8,63-12.1,94.5c-1.2,5.7-2.4,14.5,4.5,16.8c19.8,6,38.2-32.9,41.1-48.6c1.6-8.4,1.3-16.8-3.3-24.4
		c-0.8-1.9-3.1-3-3.1-5.3c0-2.1,0-4.2,0-6.8c37.8,17.4,0.8,96.4-30.1,103.3c-26,1.7-49.7-21.2-69.5-35.5
		C117.7,385.3,116.8,377.4,117.1,370z"/>
	<path class="st0" d="M154,356.4c-0.3,2.7-2.3,3.7-4.3,4.3c-42.7,12.3-93.4,9.1-123.4-27.5c-6.4-8.6-37.8-45.4-13.6-46.9
		c25.3-1.3,50.6-7.6,71.4-22.4c22.3-15.5,17,38.8,79,52.9c5.7,1.5,5.8,3.7,3.8,7.9c-1.5,4.5-2,4.9-6.5,3.2
		c-37.2-7.4-49-37.9-60.3-24.4c-10.8,12.8-25.9,18-40.6,24.5c-2.7,1.9-3.1,4.4-1.4,7.2C78.8,366.9,121.8,360.3,154,356.4z"/>
	<path class="st0" d="M171.9,148.5c1-1.8,1.8-3.4,2.8-4.9c1.6-2.2,1.7-2.1,0-4.4c-3.4-4.5-6.3-9.3-7.3-14.9c-1.8-9.9,3-18,12.5-21.2
		c2.9-1,3-1.1,2-4c-5.7-14.8,7.5-27.2,22.2-24.4c2.9,0.3,3,0.3,3.5-2.5c2.1-14.3,21.5-16.5,30.9-7.4c1.9,1.6,2.5,1.6,3.9-0.5
		c4.2-6.9,13.6-8.6,19.3-2.6c3,3,4.9,6.2,2.4,10.5c-9,16.8-20.3,31.8-34,44.9C213.4,132.5,190,135.3,171.9,148.5z"/>
	<path class="st0" d="M277.9,437.2c-0.8,1.9-4,4.2-1.8,6.2c9.8,8.9,21.3,14.4,34.4,16.3c2.4-0.1,3.2-3.1,4.2-4.9
		c4.3,3.1,0.5,7.8-1.8,11c-4.3,6.4-8.3,12.8-11.1,20c-4.1,11.7-0.4,24.4-1,36.6c0,0.7-0.6,1.7-1.2,2.2c-14.9,8.8-35.2,7.2-51.9,5.2
		c-5.5-1.1-13.9-1.3-13.1-8.9c0.6-10,7.4-17.4,13.7-24.4c2.1-2.4,3.7-5,4.5-8.1c4.7-13.8,12.1-44.5,24.7-51.6
		C277.7,436.9,277.8,437,277.9,437.2z"/>
	<path class="st0" d="M409.5,444.9c0.5,3.2,1.1,6.4,1.4,9.6c0.2,1.6,1,2.3,2.4,2.7c12.1,3.8,24.2,1.7,35.5-3.2
		c2.7-1.2,0.6-4.6,0.7-6.9c2.9,0.9,4.2,2.6,4.2,5.2c-0.3,9.6-0.6,19.2-0.9,28.8c-0.4,6.3,4.4,10.7,9.3,13.7
		c7.6,4.7,14.6,10.1,20.3,17c4.5,4.9,3.2,11.9-3.3,13c-24,3.8-53.1,3.7-75.7-5.8c-1.4-0.8-2-1.8-1.7-3.7c2.5-16.1,3.3-32.3,2.8-48.5
		C405,459.8,400.5,447.1,409.5,444.9z"/>
	<path class="st0" d="M117.1,356.4c-11.5,0-22.9-1-33.9-4.9c-9.3-3.2-16-9.7-21.7-17.4c-3.1-3.8,3.3-5,5.9-6
		c31.6-9.5,35.6-31.8,44.7-22.5c14.7,13.5,32.8,22.4,52.3,26.6c2.7,0.7,3.2,1.5,2.2,4.1c-1.6,4-3.4,7.9-4.9,11.9
		c-0.9,2.6-2.8,3.8-5.3,4.2C143.4,354.7,130.3,356.4,117.1,356.4z"/>
	<path class="st0" d="M297.1,44.6c-1.5-1.2-3.6-2.8-5.7-4.5C322.7-5,393.1-9.8,427.7,34.3c11.8,13.3,21.3,28.2,29.2,44
		c4.3,8.6,10.4,15.3,18.5,20.2c5.1,3.1,10.4,6,15.9,8.4c7.8,3,8.7,10.9,8.7,18.1c-0.4,0.1-0.6,0.2-0.6,0.1c-3.8-3.4-8.4-5.4-13-7.4
		c-8.3-3.7-16.3-8-23.2-14.1c-3.4-3-6.1-6.5-8.1-10.5c-7.8-15.2-16.5-29.8-27.4-43C391.3,4.4,337.1,2.1,297.1,44.6z"/>
	<path class="st0" d="M319.4,224.5c-0.3-35.7,51.8-42.7,63.2-10.5C398,264.6,320.2,271.6,319.4,224.5z M356.7,214.6
		c-20.2,0-19.5,29.3,0.1,29.5C376.6,244.2,376.3,214.7,356.7,214.6z"/>
	<path class="st0" d="M271.2,64.9c2.5,3.4,5.6,5.7,9.7,6.8c-38.9,95.4-88.4,69.7-104.7,102.7c-3.2-6.8-9.6-13.9-3.6-20.8
		c2.5-3.2,5.6-5.7,9.1-7.4c15.8-8.2,33.5-13,47.7-24.1C247.3,106.4,261.2,86.5,271.2,64.9z"/>
	<path class="st0" d="M455.8,220.3c-2.7,38.4-50.1,27.5-54.3-5C397.1,168.1,456.5,179.2,455.8,220.3z M406.2,220.9
		c0,19.3,30.2,19.7,30.2,0.3C436.4,202.3,406.3,201.4,406.2,220.9z"/>
	<path class="st0" d="M532.6,258.7c0.8-0.2,1.6-0.4,2.1-0.5c2.7,4.3,5.2,6.1,10.1,7.5c-0.5,3.4,0,7.7,0.9,11.1
		c5.8,13.1,21.2,6.1,21.4-6.7c0.1-1.2,0.6-1.8,1.7-2.1c3.3-1.3,3.6-1.4,5.8,1.3c12.6,14.2,18.3-16.2,1.9-20.4
		c5.4-6.2,1.7-15.1-4.4-19.4c0.3-0.8,0.7-1.6,1-2.5c24.1,17.7,24,41.6,8.9,65.4C559.7,307.2,536.6,279.5,532.6,258.7z"/>
	<path class="st0" d="M530.9,265.6c6.9,19.4,26,40.8,48.1,32.5c-3,5.1-7.1,9.3-10.8,14c-3.4,4.4-10.9,4.9-15.2,2.9
		c-16.1-6.8-24.3-21.5-25.9-38.5C527.6,272.9,529.8,269.5,530.9,265.6z"/>
	<path class="st0" d="M516.1,290.6c0.6,17.4,8.7,30.6,23.4,40.3c-4.8,1.6-27.7,5.7-30.6,1.6c-6.3-12.1-7.7-26.5-1.1-38.4
		C510.5,292.8,513.2,291.8,516.1,290.6z"/>
	<path class="st0" d="M222.9,334.7c13,20-3.6,48.6-17.6,64c-2.9,3-6.2,5.7-10.6,6.1c-3.2,0.1-7.8-0.6-7.6-4.7
		c-0.4-4.4,0.5-8.6,1.7-12.8c0.1-0.4,1-0.8,1.6-0.8c4.8-0.3,9.5-1.1,14-3.1c8.2-3.4,16.5-11.8,13.8-21.4c-0.3-0.9-0.1-1.4,0.6-2
		c5.2-4.7,6.9-14.6,3.8-21C221.6,337.1,221.7,336.9,222.9,334.7z"/>
	<path class="st0" d="M569.3,244.9c2.3-7.4-11.1-0.9-13.4,1c-1.8,1.5-0.1,4.5-2.6,5.6c-3.4,2.1-5.4,5.3-6.9,8.9
		c-0.5,1.3-1.1,1.4-2.4,1.3c-9.1-1.8-8.6-15.7-4-21.9c5.5-7.1,15.7-9.3,24.4-9.2c13.8,0,14.3,22.3,4.4,14.3
		C569,245,569.2,244.9,569.3,244.9z"/>
	<path class="st0" d="M577.3,267.4c3-5.8-4.3-3.8-7.4-3.4c-1.3,0.2-2.5,1-4.1,0.4c-4.2-0.9,0,15.4-10,15.9
		c-12.4-0.3-8.7-18.8-2.3-24.6c5-4.5,16.2-5.5,22.5-3.3C587.2,256.1,583.8,276.2,577.3,267.4z"/>
	<path class="st0" d="M559.5,227.1c0.1-0.3,0.2-0.7,0.3-1.2c0.1,0.2,0.2,0.3,0.2,0.5c7.8-1.3-2.8-8.5-6.4-2.9c-1.2,1.5-1.9,3.3-3,5
		c-0.4,0.6-0.9,1.3-1.6,1.6c-4.2,1.6-8.4,3.1-11.1,7.1c-13.8-9.5,8.6-39.6,27.3-23.6c5.3,3.5,6.1,8,4.1,13.8
		C568.3,228.7,561.7,227,559.5,227.1z"/>
	<path class="st0" d="M524.3,281.3c3.1,18.8,15.6,35.8,35.3,38.7c-4.3,3.5-9.6,5.8-14.4,8.6c-0.5,0.3-1.5,0.2-2-0.1
		c-15.1-8-23.9-22.9-23.6-40.1C520,285.6,522.7,283.8,524.3,281.3z"/>
	<path class="st0" d="M243.1,343.6c-1.4-3-0.9-5.8-0.3-8.6c2.9-13.9,1.7-29.5-8-40.4c2.6,0,7.7-2,9.6-0.1
		c12.2,11.3,11.2,30.3,5.5,44.6C248.5,341.5,245.3,342.1,243.1,343.6z"/>
	<path class="st0" d="M412.6,443.1c10.7-0.2,21-2.1,30.8-7.5c1.2,5.3,2.4,10.3,3.6,15.7c-10.2,3.6-20.6,6.2-31.3,3.1
		c-1-0.3-1.6-0.7-1.7-1.9C413.7,449.4,413.1,446.3,412.6,443.1z"/>
	<path class="st0" d="M286,430.8c8.9,7,18.5,12.4,29.4,15.6c-1.7,3.2-3.2,6.2-4.9,9.2c-10.4,0.6-22.5-6.8-30.6-13.4
		c-0.3-0.3-0.5-1.1-0.4-1.4C281.7,437.5,283.8,434.2,286,430.8z"/>
	<path class="st0" d="M484.5,526.3c-1.2,3.8-3.8,6.1-7.8,6.7c-14.7,2.2-29.5,2.4-44.3,0.8c-9.8-1.6-20.4-2-29.4-6.6
		c-3.5-2-3.1-2.2-2.2-5.5C420.1,531.1,464.2,533.3,484.5,526.3z"/>
	<path class="st0" d="M505.1,333.3c-2.3-0.9-13.4-2-13.6-3.8c-1-3.7-3.1-6.8,0.1-10.6c5.2-7.3,0.5-17.5-0.6-25.4
		c3.9,0.5,7.9,1.1,12.1,1.7c-4.3,12.7-4,25.3,2.2,37.6C505.3,332.9,505.2,333.1,505.1,333.3z"/>
	<path class="st0" d="M536.1,239.9c-2.3,4.9-3.2,9.8-2.2,14.8c-18.4,6.4-22-27.7-3.8-25.3C530.4,233.8,532.4,237.4,536.1,239.9z"/>
	<path class="st0" d="M300.5,528.4c1.9,14.7-50.9,12.2-59.9,8.2c-3.2-0.9-4.6-3.6-5.5-6.5C256.2,536.1,280,537.1,300.5,528.4z"/>
	<path class="st0" d="M410,433.6c7.2-2.9,13.1-6.5,19-11.5c2.5,2.6,5.8,4.1,9.8,3.9c0.4,0,1,0.5,1.2,0.9c0.3,1.7,3.3,5.4,1,6.3
		c-8.6,4.6-18.2,6.4-27.9,6.5c-0.9,0.1-1.4-0.1-1.7-1.2C411,436.8,410.4,435,410,433.6z"/>
	<path class="st0" d="M260.4,291.6c2.9,0,7.9-1.9,9.8,0c4.5,5.3,6.3,12.7,6.7,19.6c0,1.6-0.4,2.9-1.6,4.1c-3.6,3.8-6,8.1-7,13.3
		c-0.7,2-2.3,2.5-4.3,3.5C268.6,317.9,268.3,304.5,260.4,291.6z"/>
	<path class="st0" d="M208.6,306.7c16.9,0.7,15.5,42-2.5,37.6C212.3,332.2,214.6,319.7,208.6,306.7z"/>
	<path class="st0" d="M254.2,337.4c4.6-15.9,5-30.8-6.2-44.4c2.9-0.3,5.6-0.6,8.3-0.8c0.4,0,0.9,0.6,1.1,1.1
		c7.9,12,7.5,26.1,2.8,39.1C259.5,335.5,256.7,335.9,254.2,337.4z"/>
	<path class="st0" d="M203.4,298.3c4.7-0.6,9.1-1.2,13.6-1.6c11.7,3.3,14,15.7,14.4,26.5c-3-1.8-5.5-3.3-7.9-4.8
		c-1.8-3.9-2.9-8.3-6.3-11.4c-2.5-2.5-5.5-3.8-9.1-3.7C205.6,302.9,205,300.2,203.4,298.3z"/>
	<path class="st0" d="M317,443.4c-10.9-3.1-20.4-8.4-29.2-15.4c0.4-0.6,0.7-1.1,1.1-1.8c8.1,6.4,16.3,6.9,24.5,0.5
		c2.9,2.3,5.8,4.5,8.7,6.9C320.5,436.7,318.8,440,317,443.4z"/>
	<path class="st0" d="M459.9,181.7c0.5-11.6-15.8-16.6-19.9-5c-0.9,2.3-1.2,4.8-1.9,7.5c-0.9-0.4-1.9-0.8-2.9-1.2
		c5.5-10.3,5.6-11.6,2.1-18.9c4.1,0.4,8.1,0.9,12.2,1.3c0.8,0.1,1.8,0,2.4-0.4c4.7-2.8,9.1-1.8,11.6,1.4
		C467.5,171.4,465.2,178.4,459.9,181.7z"/>
	<path class="st0" d="M190.2,383.1c0.3-6.6,13.3-4.9,15.5-19.6c0.4-2.6,1.6-3.7,4.7-3.8c6.5,0,5.9,8.9,2.8,12.6
		C207.9,380,199,382.4,190.2,383.1z"/>
	<path class="st0" d="M239.8,332.9c-1.7-2.8-5.3-5.2-5.4-8.3c0.6-10.7-1.4-22.2-11-28.7c2.9-0.1,5.4-1.6,7.7,0.1
		C241.4,305.2,241.8,320.2,239.8,332.9z"/>
	<path class="st0" d="M205.5,357.6c-4.1-5-3.7-4.4-0.9-10.1c6.6,2,11.4-0.7,15.1-6.3c2.2,5.3,1,11.7-2.8,15.9
		C214.4,359.2,212.8,354,205.5,357.6z"/>
	<path class="st0" d="M201.1,356.4c3.6,7.1-1,15.9-8.6,18.8c2.7-6.4,5.2-12.5,7.8-18.7C200.6,356.5,200.9,356.5,201.1,356.4z"/>
	<path class="st0" d="M396.9,435.3c4.9-5.2,7.7,3.2,10,6.6c-1.5,1.2-2.8,2.2-3.8,3C401.1,441.7,399,438.5,396.9,435.3z"/>
	<path class="st0" d="M400.8,451.8c-4,0.8-8.7-2.3-9.6-6c-0.7-2.9-0.8-6.5,2.2-8.1c0.2,0.1,0.3,0.2,0.5,0.4
		C393,444.1,395.3,448.7,400.8,451.8z"/>
	<path class="st0" d="M450.7,194.7c-0.4-0.5-0.8-1-1.3-1.6c4.1-2.4,7.9-4.9,9.9-9.4c1.5,1.1,3,2.1,4.8,3.5
		C458,187.3,454.3,190.8,450.7,194.7z"/>
	<path class="st0" d="M558.2,248.9c0.8-1.2,2.1-1.7,3.3-2.3c3.4-1.5,2.6-1.7,5.4,1.2c-2.8,0.5-5.6,1-8.3,1.5
		C558.4,249.2,558.3,249.1,558.2,248.9z"/>
	<path class="st0" d="M399,446.8c-0.8-1.6-1.5-3.2-2.3-4.8c0.2-0.1,0.5-0.2,0.7-0.4c0.8,1.6,1.6,3.2,2.4,4.8
		C399.5,446.5,399.2,446.7,399,446.8z"/>
	<path class="st0" d="M276.4,289.6c-0.5,1.1-0.8,1.9-1.3,2.9c-0.6-0.8-1.1-1.5-1.7-2.4C274.4,290,275.3,289.8,276.4,289.6z"/>
	<path class="st0" d="M370.8,77.6c15.3-0.8,29.9,8.5,33.4,23.8c2.4,7.1,2.8,17.8-5.6,20.9c-2.9,1.1-6.1,1.5-9.1,2.4
		c-1.9,0.5-2.5,1.9-0.8,3.2c4.6,2.8-0.3,8.3-3.9,6.1c-1.9-0.6-3-4.8-5.2-3.3c-1.7,2.8,2.4,5.7-1.9,8.3c-4.6,2.4-9.2,0.3-8.7-4.8
		c0.4-2.6-2.5-3.4-3.3-0.9c-1.7,6.9-11.7,3.5-7.9-1.8c0.7-0.8,1.8-1.6,0.9-2.6c-3.2-1.8-7.7-0.2-11.2-1c-6.3-0.9-10.1-4.9-11.4-11
		c-4.6-25.2,10.8-38.2,34.6-39.7C370.7,77.3,370.8,77.5,370.8,77.6z M354,97.1c-18.8-0.1-18.4,27.9,0,28.2
		C373.1,125.3,373,97.7,354,97.1z M387.2,94.1c-18.8,0.1-17.2,27.8,0.5,27.8C406.5,121.5,405.1,94.4,387.2,94.1z"/>
	<path class="st0" d="M407.8,78.7c-2.5-0.3-7.8,0.9-9.4-0.9c-2.8-4.4-5.6-8.8-8.6-13.1c-4.6-7.9,3.7-17.9,12.4-14.8
		c3.9,1.3,5.8,4.8,5.1,9.5c-0.2,1.2-1.1,2.6,0.3,3.6c1.5,1,2.4-0.5,3.4-1.1C425.9,54.6,431.8,81,407.8,78.7
		C407.8,78.8,407.8,78.8,407.8,78.7z"/>
	<path class="st0" d="M334.5,84c-4.9,0.9-9.9,2.1-15.1,2.8c-7.5,1.4-18.3-5.8-14-14.1c1.7-3.2,4.5-4.7,8-4.5c2.3,0,5.4,2.2,7.5,1.2
		c0.9-1.7-0.6-3.8-1.1-5.4c-3.2-14.4,19.5-11.4,20.6,0.1c1.1,4.2-1.5,7.8-3.1,11.5C336.4,78.3,335.5,81.1,334.5,84z"/>
	<path class="st0" d="M359.8,309.8c2.6-2.4,5.3-4.8,7.9-7.2c0.3-0.3,1-0.3,1.3-0.2c3.7,1.8,6.9,0.7,9.7-1.9c2-1.6,3.1-4.7,5.7-5.6
		c4.1-0.6,8.3-1.1,12.4-1.6c2.5-0.3,5.2,5.8,7.6,7.3c5.6,5.4,11,3,14.4-3.4c5.5,2.2,10.3,5.5,14.8,9.9c-24.3,9.1-48.7,9.9-73.4,3.6
		C360.1,310.4,359.9,310.1,359.8,309.8z"/>
	<path class="st0" d="M399.9,289.9c6.4-1.1,12.5-2.2,18.8-3.3C414.8,303.8,409.8,304.2,399.9,289.9z"/>
	<path class="st0" d="M381.8,290.7c-6.6,13.5-12.5,10.9-19.4-0.7C369,290.3,375.2,290.5,381.8,290.7z"/>
	<path class="st0" d="M432.2,282.6c5.3-1.9,10.4-3.6,15.7-5.5C446.7,291,441.1,295.6,432.2,282.6z"/>
	<path class="st0" d="M352.1,231.8c-6.3,0.1-6.4-9.3-0.1-9.2C358.1,222.7,358.4,231.8,352.1,231.8z"/>
	<path class="st0" d="M416.7,214.5c6.3,0.2,6,9.5-0.3,9.2C410.3,223.4,410.3,214.2,416.7,214.5z"/>
	<path class="st0" d="M354.2,122c-14,0-14.7-21.5-0.3-21.6C368.1,100.5,369,122,354.2,122z"/>
	<path class="st0" d="M387.7,118.5c-13.4,0-15-21-0.5-21.1C400.5,97.4,402.1,118.5,387.7,118.5z"/>
</g>
</svg>
