<?xml version="1.0" encoding="utf-8"?>
<!-- Generator: Adobe Illustrator 26.0.0, SVG Export Plug-In . SVG Version: 6.00 Build 0)  -->
<svg version="1.1" id="Capa_1" xmlns="http://www.w3.org/2000/svg" xmlns:xlink="http://www.w3.org/1999/xlink" x="0px" y="0px"
	 viewBox="0 0 595.3 509.7" style="enable-background:new 0 0 595.3 509.7;" xml:space="preserve">
<style type="text/css">
	.st0{fill:#FFFFFF;}
</style>
<g>
	<path d="M29.6,191.8c-5.2-14-11.9-30.4-5.4-44.9c3.9-9.1,20.4-14.2,22.5-1.3c0.6,3.4,0,6.6-0.9,9.8c-3.1,11.1-3.9,22.9-0.5,33.9
		c-2-15.6-4-35.5,10.9-45.7c4.9-3.8,15.4-2.2,15.1,5.3c-0.4,7.8-5,14.4-7.8,21.5c-1.9,4.5-5.4,16.5-3.2,20.7
		c5.6,2.8,10.2,7,14.7,11.2c18.9,17.7,41,29.6,66.1,35.9c1.1,0.3,1.7,0,2.2-1c0.9-1.8,2-3.4,2.9-5.2c0.2-0.4,0.3-1.2,0.1-1.5
		c-5-7.2-0.9-15,1.6-22.4c-3-1-4.2-3.8-5.6-6.5c-4.1-7.2,4.1-18.6,9.3-23.5c4-4.2-5.3-6.3,1.2-17.7c-2.3-2.9-5.2-5.3-7-8.5
		c-0.8-2.2-2.5-2.9-4.6-3.3c-3.9-0.8-7.7-2.2-11.1-4.4c-4.5-3-6.8-6.9-5.9-12.5c0.1-0.5-0.2-1.3-0.6-1.6
		c-10.4-6.8-9.4-18.3-4.3-25.8c-11.8-8.2-11.8-24.7,2.6-29.2c-4.6-13.1,3.8-30.5,18.7-29c1,0.1,1.4-0.2,1.6-1.1
		c2.9-14.6,20.4-22.7,32.3-12.3c10.6-13.1,28.3-7.6,35.9,6c0.6,1,1.1,1.3,2.4,1c14.9-3.1,22.4,14.7,21.5,27
		c19.3,2.1,15.4,24.8,2.5,33.5c0.8,2.3,1.5,4.5,2.3,6.7c9.3,4.3,11.3,3.8,18.4,10.7c6.9-6.9,14.8-11.2,25.1-8.5
		c0.8-4.8,1.8-9.6,3.7-14.2c1.3-4.2-8.9-7.4-3.1-20.1c0.4-0.9,0.4-1.5-0.2-2.3c-7.5-9.3-7.3-24.8,6.7-27.1
		c-1.8-14.9,7-26.8,22.6-20.2c5.5-13.7,25.2-20.6,35.3-7.7c14-9.9,31.8-4.4,34.9,13.5c19.2-2.5,27.6,15.9,24.3,31.4
		c-0.2,1.2,0.1,1.7,1.1,2.4c14.2,8.5,7.9,28.2-2.1,37.5c12.2,14.3-1.2,29.5-17.6,28.6c-1.7,0.4-5.1-1.3-5.6,1
		c-3.5,15.7-19.6,13.8-29.9,5.7c-1.9,1.4-4.1,2.3-5.7,3.9c-2.6,4-5.7,7.4-9.9,10.3c11.3,3.9,21.1,17.6,12.5,28.7
		c9.6,4.7,20.1,18.9,10.1,28.2c6.4,3.6,11.5,8.5,14,15.7c43.7-22.6,68-60.5,72.9-108.5c-6.8-6.4-11.3-14.6-14.1-23.5
		c-3.1-4.8-4.9-9.8-0.7-14.6c2.2-7.1,6.7-12.2,14.5-10.6c-0.2-2.1-0.4-4.1-0.7-6c-0.1-0.4-1-0.7-1.5-0.9c-11.1-4-23.4-5.5-33.4-12
		c-11.4-11,6.5-21.7,16.6-22.1c6.7-0.6,13.1,0.7,19.5,2.3c4.2,1,8.4,2,12.6,3.1c0.9,0.2,1.5,0.1,2.1-0.6c6.2-6.4,8.6-15.3,14.9-21.7
		c14.7-17,42.6-8.6,51.1,10.5c0.5,1,1.1,1.7,1.9,1.4c1.7-6.3,1.7-12.9,5.8-18.1c2.4-3,6.4-2.7,8.3,0.6c2.7,5.8,0.3,12.6,0.5,18.7
		c0.3,2.1,2.1,3.8,2.8,5.8c0.3,0.8,0.5,1.3,1.4,1.5c4.5,1.3,9,2.6,13.5,3.9c4.9,1.1,5.5,7.8,0.7,9.6c-6,2.6-12.2,1.3-18.2-0.4
		c-1.7,3.6-3.4,7.2-5.2,10.9c12.6,4.3,25.5,8.2,38.2,12.4c5.2,1.7,10.3,3.7,14.2,7.7c12.4,12.7-7.2,25.5-19.7,23.5
		c-12.7-1.5-24.6-6.6-37-9.5c3.1,13.3-0.5,27.2-12,35.3c-2.4,0.9-3,2.7-3.4,5.1c-10.2,66.7-65.8,125.6-134.3,131.4
		c8.7,9.2,14.2,22.2,3.1,32c6.8,10.7,13.9,30.4-0.2,38.3c-0.9,0.4-0.8,1-0.7,1.7c1.4,9.1-2.5,18.9-11,23.1
		c11.6,20.3,18.2,46.6,7.3,68.5c-10.8,18.3-33.4,8.6-42-6.5c-7.9,5.2-16.3,11.7-26.4,9c-3.2-1.2-6.3-2.7-9.8-3.1
		c-6.1-1.2-11.2-4.5-16-8.8c-3.8,5.2-6.3,10.9-9.4,16.5c-0.3,0.6-0.2,1.6,0.1,2.2c3.2,5.6,3.6,11.3,0.5,17.2
		c6.5,3.9,4.9,12.3-2.8,12.5c-1.8,0.2-4.1-1.2-5.6,0c-1.2,1.4-2,2.8-1.7,5c-0.4,7.4-5,14.6-9.8,20.2c-3.3,2.4-4.1,3.1-6.1,6.7
		c-14,27.1-36.6,14.9-53-2.4c-13.8-15.3-25.8-34-27.8-54.9c1.9-32.5,36.9-32.7,55.5-12.6c3.6-5,6.6-11.8,12.9-13.5
		c1.8,0,2.4-0.9,3.2-2.3c2.7-4.5,5.5-8.9,8.2-13.2c-3.2-1.9-6.7-3.9-10.3-6c-8.5,13.1-27.1,6.5-36.4-2.4
		c-11.7,11.6-25.9-3.8-29.8-15.2c-15.2,7.6-22-10.8-22.3-22.9c-14.6-0.1-13-19.4-8.8-29.4c0.2-0.6,0.8-1.2-0.2-1.7
		c-9.5-5.9-5.5-18.9-3.1-27.6c-4.6-2-5.7-5.9-5.9-10.1c-34.9-3.2-72.4-12.6-97.5-38.4c-0.7-0.8-1.4-0.8-2.2-0.6
		c-6.1,1.2-12,0.4-17.4-2.4C1.7,230,16,207.4,30.1,221.8c0.5-11.6-0.8-3.1-13.2-14.6c-8.7-8.3-19.5-19.8-16.3-32.8
		c2.3-6.5,10.3-9.9,15.8-6.6c7,4.5,7.8,17.1,13,24.2C29.4,191.9,29.5,191.9,29.6,191.8z"/>
	<path class="st0" d="M370.8,225.6c-1.5,0.7-2.9,1.4-4.4,2.1c-1.1-1.2-2.1-3.9-4-2.6c-1.7,1.2,0.1,2.8,0.9,3.9
		c7,9.7-0.9,15.1,3.4,18.4c4.5,3.9,8.1,9.4,6.9,15.6c-0.2,1.1-0.1,2.1,1.2,2.4c2.9,0.2,1.8-3.8,2.3-5.7c5.1-1.9,12.2,10.2,13.3,14.4
		c3.5,13.6-9.7,14.9-5.7,18.7c6.9,8.2,13.8,29.2,0.4,34.3c-1.5,0.4-1.7,1.3-1.4,2.7c3.1,11.5-5.4,25.6-18.5,22.3
		c-2.3-0.5-2.8-0.2-3.2,2c-1.2,8.6-10,20-19.5,14.6c-2.2-1.3-2.8-1-3.5,1.5c-5,21.5-17,10.1-20.2,15.8c-2.3,4.4-6.7,6.6-11.2,5.6
		c0.5-5.6-3.3-7.9-7.6-9.7c-15.6-6.5-30.5-3.3-42.3,8.9c-2.5,3.2-10.8-4-13.2-5.7c-4-3.8-3.5,10.3-18.5,7.5
		c-14.3-2-18.4-14.2-21.2-9c-7.9,9.7-19.9-2.3-23.2-10.6c-1.5-2.3-1.4-8.3-5.3-5.3c-10.4,6.9-17.1-6.4-17.7-15.2
		c-0.8-2.3,1.1-9-2.9-8c-10,2.4-10.3-11.5-8.5-18.1c0.7-2.9,1.8-5.7,2.8-8.5c0.8-2,0.7-2.6-1.3-3.2c-9.5-3.9-4.5-18.3-2.3-25.7
		c1-4-5.7-0.9-6.1-8.3c-0.6-7.4,1.7-14.2,5.1-20.7c1.2-2.3,1.3-2.4-0.9-4c-7.3-4.8,2-17.5,5-23.2c3.4-4.4-3.6-3.8-1.9-13.1
		c0.7-4.6,2.6-8.7,4.9-12.6c0.4-0.6,2-0.6,3.3-0.9c-2.9,20.6,13.9,39.3,34.4,38.6c43.2-1.6,44.3-65.3,0.7-68c0.4-2.5,1-4.7,1.1-7.1
		c1-9.8-12.9-13.6-18.2-6.2c-4.5,5.2-1.1,11.2,1.3,16.5c-0.4,0.2-0.9,0.5-1.4,0.7c-1.2-10.6-9.8-17.8-18.8-9.1
		c-3.5-6.5,2.4-13.2,7.9-16.1c3.4-1.9,7-2.9,10.7-3.6c0.7-0.1,1.6-0.6,1.8-1.2c0.2-0.5-0.3-1.5-0.8-2c-8.9-10.4,8.9-16.9,17.3-15.5
		c2.6,0.1,3.2-0.7,2.3-3.1c-4.5-12.4,12.5-13,20.1-9.3c2.3,0.3,7.3,4.9,8,0.7c0.6-6.4,5.1-11.3,11.8-11.6
		c8.9-0.6,16.4,4.2,22.4,10.3c1.3,1.3,1.9,1.3,3.2-0.1c5.3-6.2,13.6-11,21.9-8.6c1,0.3,1.4,0.8,1.4,1.9c-0.1,5.2,0.8,10.3,2.8,15.2
		c3.5,10.2,15.5,15.3,25,9c-0.7,11.3,7.4,20.8,19.2,17.1c3.2-1.9,6.1-1,9,0.6c8.5,3.7,15.7,15.7,7.6,23.4c-1.4,1.4-1.3,2.4,0.5,3.3
		c5.2,2.4,9.5,5.8,12.1,11c2.4,4.2,2.8,11.1-2.5,13.2C349.3,210,367.9,212.4,370.8,225.6z M265,166.3c-47.4,10.1-33.2,75,8.8,70.9
		c21.6-1.2,37.4-23.8,31.5-44.7c27.3-1.5,8.4-37.1-7.6-14.5c-0.7-0.8-1.2-1.3-1.6-1.8c2.7-2.2,5.2-4.4,7.2-7.3
		c4.7-6.6-1.2-15.8-9.1-15.7c-8.2-0.6-10.6,7.8-10.8,14.9c-0.6-0.2-1.2-0.3-1.8-0.5C293.9,140,252.4,140.9,265,166.3z M227.6,331.7
		c32.6-1.8,73.2-8,93-36.8c16.2-25.8-5.6-61.9-36.1-58.3c-8.4,0.5-16.8,2.4-25.1,4.1c-18.3,3.8-36.8,5.8-55.5,6.2
		c-17.3-0.3-37.7,0.7-46.5,18.3c-6.6,12.3-6,25.2-0.7,37.6C168.6,329.1,202.5,330.2,227.6,331.7z"/>
	<path class="st0" d="M288.4,89.9c-8.9-9.5,1.5-14.3-2.3-18.9c-6.8-8-7.3-21.8,5.7-22.7c1.8-0.3,2.3-0.9,1.8-2.8
		c-3.5-10.5,4.5-23.4,16.3-18c7.6,4.8,3-4.5,13.9-11c6.9-4.6,17-3.9,21.8,3.5c1.1,1.6,1.7,1.7,3.3,0.5c4.5-3.3,9.4-5.2,15.1-4.8
		c7.9,0.6,14.1,6.4,15.3,14.8c0.7,4.6,1,3.9,4.6,3.4c16.1-2.5,23.5,15.6,19.6,29.4c-0.5,2.3-0.3,2.5,1.8,3.4c11,4.8,9,19.7,2.9,27.6
		c-1.5,2.2-3.5,4.2-5.3,6.2c-4.1,3.5,7.5,5.6,4.1,16.4c-3.1,9.6-14.9,11.5-23.7,10.2c-2.9-0.4-3.1-0.2-3.4,2.7
		c-1,8.6-7.9,12.7-16.5,9.5c-4.1-1.6-7.7-4.5-11.7-6.4c5-18-5.7-31.4-24.2-21.7C334.8,79.6,308.6,56.4,288.4,89.9z"/>
	<path class="st0" d="M152.7,115.5c-14.3,1.9-14.3,19.6-10.1,30.2c-7.1-1.7-17.7-5.4-15-14.4c0.5-1.5,0.2-2.4-1.2-3.3
		c-8.3-5.1-10-14.2-4.1-22.1c1.8-2.4,1.7-2.6-0.7-4.2c-10.2-5.9-10.5-20.5,2-23.6c2.5-0.7,2.7-1.1,1.8-3.5
		c-5.1-11,3.2-27.6,16.1-25.1c5.4,1.7,2-4.1,7.5-11.3c5.7-7.9,15.1-9.3,22.9-3.6c1.5,1.2,3.3,3.4,4.8,0.9
		c9.6-13.7,25.9-6.1,32.3,6.4c1.1,1.8,1.4,1.9,3.4,1.1c13.4-4.3,20,13.3,18.8,24c-0.1,2.4,0.2,2.7,2.5,2.8c7.3,0.2,12,5.4,10.8,12.7
		c-1.1,6.3-5,11.8-10.3,15.4c-1.8,1.4-1.8,1.7-0.6,3.7c1,1.6,1.7,3.3,2.7,5.3c-9.1,0.2-15.1,3.9-17.3,12.7c-8-3.2-16-5.7-24.3-1.5
		C191,77.6,152.4,69.4,152.7,115.5z"/>
	<path class="st0" d="M242.2,494c-0.3,14.3-10.4,15.2-20.8,9c-20.8-12.2-35.3-33.5-42.6-56.1c-0.8-3-1.2-6.1-1.8-9.1
		c-0.9-6.8,13.8-8,18.3-5.8C219.5,441.6,237.9,468.9,242.2,494z"/>
	<path class="st0" d="M265.6,465.5c-5-7.1-8.6-3.1-7.7,3.9c0.7,3.4-2.6,4.3-4.4,6.5c-2.9,3.2-2.2,5.5,1.8,6.7
		c0.5,3.9-1.9,6.5-3.6,9.4c-1.9-27.2-39.7-83.4-71.3-67.8c15.8-24.6,43.7-3.7,56.5,13c1.6,2.4,4.6-0.1,2.5-2.1
		c-2.3-2.6-4.5-5.1-6.8-7.6c-0.7-0.7-0.9-1.3-0.3-2.2c4-6.2,7.2-13.7,16.1-11.7c12.9,2.2,23.9,11.1,29.9,22.5
		c1.7,4.1,1.5,8.2-0.9,12C273.7,453.8,269.8,459.4,265.6,465.5z"/>
	<path class="st0" d="M317.5,422.4c19.5-5,17.6-21,7.3-34.6c10.2-0.3,14.7-6.6,17-15.4c11.3,4.6,21.2-6.1,23.1-16.8
		c12.3,17.5,20.5,41.4,12.9,62.3c-9.3,19.5-25.2,10.5-34-3.8c1.7-2.7,3.2-5.1,4.7-7.5c0.6-1,0.8-2.1-0.4-2.7
		c-1.3-0.6-1.9,0.3-2.5,1.3c-5.8,10.4-16.1,17.8-28.2,17.6C317.4,422.6,317.5,422.5,317.5,422.4z"/>
	<path class="st0" d="M511,107.2c-1.8,4.4-6.1,8.6-3.2,13.2c1.9,3.2,4.3,5.6,8.9,5.2c-1.9,8-3.7,15.7-5.5,23.6
		c-21.9-2.6-42.7-8.4-62.2-18.6c-1.1-0.6-1.4-1.1-1.2-2.3C452.5,94.7,486.4,92.8,511,107.2z"/>
	<path class="st0" d="M215.7,195.9c-6.6-4.9-16.1-2.8-19.9,4.3c-7.7,15.3,13.7,28.6,24,12.5c-0.2,34.4-53,40.3-60.6,5.1
		C150.8,187.1,197.3,163.7,215.7,195.9z"/>
	<path class="st0" d="M325.4,101.1c-0.7,13.8-7.8,35-24.7,36.4c-12.8-0.8-15.8-16.9-14.7-27.3C287.6,79.3,322.9,57.7,325.4,101.1z"
		/>
	<path class="st0" d="M572.6,94c-19.8-3-40.1-11.1-59.7-16c-1.8-0.5-2.4-1.3-1.4-2.9c0.8-1.3,1.9-2.6,3.2-3.5
		c6.4-4.3,11.9-9.5,17-15.3c0.9-1,1.6-1.2,2.8-0.8c17.4,6.5,36.3,9.8,52.6,18.7C600.2,83.7,584.2,95.2,572.6,94z"/>
	<path class="st0" d="M447.1,133.4c19.7,10.2,40.5,16.5,62.9,18.9c-2.8,8.4-6.6,16-10.3,23.9c-0.4,0.9-0.9,1.2-2,0.9
		c-19.8-5.5-40.3-13.4-54.8-27.9C444.3,144,445.7,138.8,447.1,133.4z"/>
	<path class="st0" d="M190.4,130.1c-9.3,0.7-18.1,2.1-22.1,12.6c-13.9-10-16.3-36.7-6.7-50.3c9-12,22.2-0.1,25.9,10.2
		c2.5,5.6,3.5,11.6,3.8,17.7c0,0.4,0,0.9-0.2,1.3C189.8,124.3,189.6,127.1,190.4,130.1z"/>
	<path class="st0" d="M495.8,87.2c6.2-6.7,7.3-16.2,5.7-24.9c-0.1-0.5,0.1-1.2,0.4-1.6c3.1-3.7,3.6-7.7,1.3-11.8
		c-2.4-4.3-6.7-6.6-11.4-5.7c-1.2,0.2-1.9-0.1-2.8-0.9c-6.9-7-16.1-10.2-26-8c3.5-3.3,4.5-7.9,10.1-7.1c15.2,0.7,28,9.1,40.9,16.4
		c14.2,8.3,19.7-7.2,15.9-19.1c3.9,1,10.9,0.2,13.2,3.3c3.4,3.5-11.8,6.9-2.1,14.1c-1.7,3.4-3.3,6.8-5.1,10.2
		c-0.1,0.3-1.1,0.5-1.4,0.3c-2-1-3.3-0.3-4.7,1.3c-5.1,5.9-10.7,11.1-17.1,15.6c-3.6,2.6-6.9,7.3-3.5,11.6
		C505.1,83.5,500.7,85.8,495.8,87.2z"/>
	<path class="st0" d="M470.7,23.6c11.7-29.2,46.5-25.8,56.2,2.6c2.7,6.3,0,20.1-9.2,15.5C503.2,33.1,488.3,24,470.7,23.6z"/>
	<path class="st0" d="M483.4,201.5c-3.4,3-14,17.1-17.1,16.5c-16.3-7-29.9-17.4-40-32.2c-0.7-1.1-0.7-1.7,0-2.8
		c2.9-4.6,5.6-9.2,8.4-13.9C448.6,183.4,464.6,194.2,483.4,201.5z"/>
	<path class="st0" d="M75,206.9c-12.4,11.2-20.4,24.8-23.4,41.7c-3.5-3.2-6.6-6.1-10-9.1c4.9-1.5,7.3-6.9,4.4-11.5
		c-2.4-3.3-7.2-2.6-10.7-3.7c-2.4-0.5-1.4-3.9-1.9-5.7c-0.2-1.8-0.2-3.2,2.1-4.3c3.6-1.7,4.8-7.5,2.8-11.3
		c-1.9-3.5,6.6-10.7,10.1-10.9C59.4,190.7,67.6,200,75,206.9z"/>
	<path class="st0" d="M497.5,180.4c-3.4,6.1-7.2,11.3-11,17c-0.8,1.2-1.5,1.4-2.9,0.8c-17.6-7.1-33.4-17.6-46.4-31.4
		c-1.6-1.4,3.8-10.7,4.6-13.5C458.1,166.4,476.7,175.2,497.5,180.4z"/>
	<path class="st0" d="M313.7,138.8c-0.1-1.8,0.6-4,2.7-6.1c4.2-4.1,6.9-9.3,8.9-14.8c2.4-4.2,7.8-6.2,12.4-6.7
		c15.2-0.6,13.5,19.2,6.9,27.9C337.8,152.3,313.5,161.3,313.7,138.8z"/>
	<path class="st0" d="M74.1,260.9c-6.5-3-12.3-6.5-18.5-10c-1.3-14.4,11.1-32.3,21.9-41.8c5.5,4.1,11,8.2,16.6,12.4
		C83.7,232.6,76.6,245.5,74.1,260.9z"/>
	<path class="st0" d="M423.6,187.4c10.4,15.3,24.3,26,41.3,33.5c-3.4,2.7-6.6,5.3-9.8,7.8c-2.5,1.5-4.7,4.9-7.9,3
		c-14.2-6.9-25-17.1-31.4-31.7c-0.8-1.8-0.7-3,0.7-4.4C419,193.1,421.1,190.2,423.6,187.4z"/>
	<path class="st0" d="M458.5,34.5c-6.2,6.7-11.4,13.5-12.4,22.8c-11.1-4-23-5.5-33.1-11.6c-8.7-8.5,7.9-16.2,15.1-16.4
		C438.6,28.5,448.1,32.4,458.5,34.5z"/>
	<path class="st0" d="M412.4,200.2c6.6,16,18.2,27.1,33.8,34.6c-5.7,3.6-11.7,6.3-17.6,9.6c-0.9,0.5-1.6,0.4-2.5,0
		c-13.2-6.4-20.6-17.3-24.2-31.2c-0.6-2.4-0.2-3.7,1.7-5.2C406.7,205.7,409.4,203,412.4,200.2z"/>
	<path class="st0" d="M423.5,246.7c-8,3.3-15.9,5-24.2,7.3c-0.7,0.2-1.7-0.1-2.2-0.6c-8.9-8-14.5-20.1-12.1-31.8
		c4.4-3,8.9-5.9,13.5-9C401.9,227.3,409.4,239.2,423.5,246.7z"/>
	<path class="st0" d="M121.9,274.8c-7.2-0.9-13.8-2.7-20.8-4.2c-1-0.2-1.4-0.6-1.4-1.7c-1.1-13.5,4-25.9,11.8-36.7
		c0.2-0.3,1-0.7,1.3-0.5c5,2.1,10.4,3.7,15.2,6.2C121.4,249.4,118.2,261.4,121.9,274.8z"/>
	<path class="st0" d="M285.7,412.7c-6.9-11-16.1-17.3-30.1-14.7c10.7-14.1,28-20.5,44.4-12.3c2.4,1.3,6.2,3.8,3.2,6.6
		C297.2,399,291.2,405.5,285.7,412.7z"/>
	<path class="st0" d="M109,230.1c-8.4,11.7-13.6,24.3-12.6,39.2c-6.2-1.8-11.7-4.2-17.8-6.3c-1.3-0.5-1.5-1.2-1.3-2.4
		c2.4-13.9,9.1-26.3,18.8-36.4c0.3-0.3,1.2-0.6,1.5-0.4C101.5,225.8,105.2,227.9,109,230.1z"/>
	<path class="st0" d="M36,196.3c-7.2-11.3-14.3-33.1-9.6-46.4c1.7-4.2,4.8-7,9-8.5c8.6-2.9,9.1,7.2,7.3,12.9
		C39.2,166.1,39,178,41.8,190C42.7,192.2,37.5,194.5,36,196.3z"/>
	<path class="st0" d="M3.1,180.2c-0.5-7.9,8.1-14.3,13.3-8.1c1.2,1.6,2.3,3.5,2.9,5.4c3.2,9.7,7.6,18.5,15.1,25.6
		c2.2,2.1,2.1,6.1-0.1,8.1c-3.9,2.4-8.6-1.5-11.8-3.6C13.6,201,5.3,191,3.1,180.2z"/>
	<path class="st0" d="M511.9,82.9c0.9-1.2,1.8-1.4,3.1-1c3.4,1.5,14.6,3.1,15.9,5.5c4.9,12.5-2.1,33.5-16.9,34.8
		c-3.3-1.2-4.5-4.8-3.1-7.9C517,103.5,518.1,93.9,511.9,82.9z"/>
	<path class="st0" d="M56.1,189.2c-2.6-0.2-5-0.5-7.6-0.7c-1.8-13.8-4-30.9,7.9-41.1c3.2-3.7,13.1-3.7,11.6,2.8
		c-1,3.9-2.4,7.8-4.1,11.4C59.4,170.2,56.6,179.5,56.1,189.2z"/>
	<path class="st0" d="M472.8,57.1c-9-6-20.1-2-23.1,7.3c-1.9-9,2-17.9,8.2-24.1c8.5-6.5,22.8-3.8,29.3,4.7
		C482.5,49.2,477.6,53,472.8,57.1z"/>
	<path class="st0" d="M152.9,119.1c2.1,9.7,4.5,21.6,14.2,26.4c1.8,0.8,2.6,2.2,3.2,4.1c-5.8,1.4-11.1,3.6-15.5,8.1
		c-7.6-6.7-12.1-16.3-11.4-26.5C143.8,125.9,146.7,118.5,152.9,119.1z"/>
	<path class="st0" d="M140.9,241.5c-1.9,5.6-4.8,12.1,0.5,16.8c0.3,0.3,0.6,1.1,0.4,1.4c-2.5,5.1-4.2,10.5-4.9,16.4
		c-2.8-0.2-5.6-0.3-8.4-0.5c-3.1-0.3-3.1-0.3-3.8-3.4c-2.8-11.4,0.3-22.6,6.1-32.5C131.7,238,138.8,241.3,140.9,241.5z"/>
	<path class="st0" d="M277,428c-7.7-9.1-16.7-16.2-29-17.7c3.7-14.3,24.1-11.3,31.3-1.1c3,3.4,5.5,6.8,1.8,11.2
		C279.4,422.6,278.4,425.4,277,428z"/>
	<path class="st0" d="M463.8,57.3c3,0.9,7.3,0.8,7.7,4.9c0.9,7.6,8.3,5.4,4.5,14.3C462.5,97.6,438.1,60.6,463.8,57.3z"/>
	<path class="st0" d="M466.1,86.5c7.7-1.7,14.8-6.6,14.4-15.4c0-0.5,0.5-1.3,1-1.5c5.6-2.1,11.2-4.2,16.8-6.3
		c3.1,9.6-1.4,20.9-10.3,25.5C480.8,91.1,472.8,89.5,466.1,86.5z"/>
	<path class="st0" d="M367.9,230.7c4.4-2.3,8.6-4.4,13.1-6.7c0.2,12,4,22.5,13,31.1c-2.7,0-17.9,2.8-17.9,0.4
		c-1.3-4-3.8-7.2-6.8-10.1c-0.4-0.4-0.7-1.1-0.6-1.6C370,239.4,369.8,235,367.9,230.7z"/>
	<path class="st0" d="M179.2,429.8c7.6-9.1,21.6-4.8,30.1,0.6c15.5,9.1,50.7,55,34.9,71.7C251.8,476.3,208.4,416.1,179.2,429.8z"/>
	<path class="st0" d="M306.5,419.2c9.1-4.8,13.2-14.2,9-25.3c2.2-1.5,3.9-3.1,5.7-5.3c5.8,7,13,20.5,3.3,27.2
		C319.1,419.1,312.9,420.7,306.5,419.2z"/>
	<path class="st0" d="M33.5,237.9c-6.5-0.2-11.2-1.3-15.2-4.2c-8.5-4.9-1.5-17.9,6.8-11.9c4.6,4.1,9.9,6.4,16,7
		c3.9-0.1,3.9,6.1,0.8,6.9C38.6,236.7,35.3,237.5,33.5,237.9z"/>
	<path class="st0" d="M501.4,53.8c-0.1,5.7-5.4,6.9-9.6,8.5c-3.9,1.5-7.9,2.9-11.8,4.4c-1.1,0.4-1.9,0.3-2.6-0.5
		c-2.3-2.5-4.6-5.6-0.9-8c4.1-3.4,8.1-6.8,12.2-10.1c2.5-2.1,5.3-2.6,8.2-1.1C499.7,48.5,501.2,50.9,501.4,53.8z"/>
	<path class="st0" d="M290.9,411c4.9-5.5,9.4-10.6,13.9-15.6c0.3-0.3,0.9-0.4,1.4-0.4c1.8,0,3.5,0.1,5.3-0.1
		c1.1-0.1,1.2,0.6,1.5,1.3c3.4,8.8-0.6,17.3-9.6,20.8c-1.3,0.5-2.5,0.6-3.7-0.2C296.8,415,294,413.1,290.9,411z"/>
	<path class="st0" d="M436.5,93.8c6.8,2.2,10.4-2.6,15-6.1c-0.4,6.2,1.5,11.5,4.6,16.1c-2.4,3.2-4.7,6.2-7.1,9.5
		C443.7,107.8,439.1,101.7,436.5,93.8z"/>
	<path class="st0" d="M449.7,73.3c1.7,2.6,3.2,5,4.9,7.6c-3.5,2.9-7,5.9-10.5,8.7c-2.6,2.1-5.7,2.1-8.3,0.2
		c-2.5-1.8-3.6-4.9-2.8-7.6C434.1,77.4,445.4,75.6,449.7,73.3z"/>
	<path class="st0" d="M479.5,93.3c0.9,4.7-10.3,0.4-20.7,8.8c-3.5-4.9-4.6-10.6-3.9-16.5C455.2,80.8,461.5,91.9,479.5,93.3z"/>
	<path class="st0" d="M369.4,356c4.1-0.9,3.4-1.3,5.3,2.3c10.1,17.6,18.1,51.4,2.1,67.4C391.7,404.8,381.8,375.9,369.4,356z"/>
	<path class="st0" d="M512.1,103.8c-3.2-1.6-6.3-3.1-9.4-4.6c1.4-3.3,2-7.2,2.1-10.8c0.1-2.3,2.7-2.4,4.3-3.7
		C512.2,90.8,514.1,97,512.1,103.8z"/>
	<path class="st0" d="M554.9,41.7c-2-0.1-16.3-2.5-13.4-5.4c1.5-1.2,2.9-4.1,5.1-3.7c4.8,1.4,9.5,2.7,14.3,4.2
		C565.8,40.1,557.1,41,554.9,41.7z"/>
	<path class="st0" d="M540.7,22.3c-2.5-0.2-4.8-0.5-7.1-0.7c-0.9-3.2,1.7-17.9,6.1-17.3c1,0.2,2.1,2,2,3.5
		C541.4,12.7,541.1,17.4,540.7,22.3z"/>
	<path class="st0" d="M261.2,465.6c2.1,1,2.7,4,5.7,3.8c-1.8,5.4-4.4,10.3-8.3,14.5c0.2-3.7,1-5.1-3.6-4.7c3.5-4.1,7.6-4.5,6.1-10.9
		C261,467.4,260.8,466.4,261.2,465.6z"/>
	<path class="st0" d="M213.1,203.3c-0.1,5.9-9.1,5.8-9.1-0.1C204.2,197.3,213.1,197.4,213.1,203.3z"/>
	<path class="st0" d="M494,91.5c-2.9,7.7-2,4.8-11.4,4.2c-0.1-2.4,0.1-2.6,2.4-2.8C487.9,92.4,490.8,92,494,91.5z"/>
	<path class="st0" d="M501.6,88.5c0.1,3.8-0.8,6.9-2.3,10c-1.4-0.3-2.8-0.6-4.1-1C496.8,93.1,496.5,90,501.6,88.5z"/>
	<path class="st0" d="M152.6,181.1c2.1,4.6,5.7,7.1,9.6,9.3c-0.4,0.6-0.6,0.9-1.2,1.5c-3.6-3.2-7.2-6.2-12.7-5.6
		C149.7,184.7,151,183.1,152.6,181.1z"/>
	<path class="st0" d="M274.6,458.2c1.4-2.1,2.7-4,4-5.9C284.4,455.2,280.3,460.2,274.6,458.2z"/>
	<path class="st0" d="M446.8,71c-3.3,1.2-6.5,2.4-9.9,3.6C438.6,70.7,443.4,68.9,446.8,71z"/>
	<path class="st0" d="M292,177.2c-10.3-2-16.3,4.5-17.7,10.7c-3.2,17.4,21.4,24.8,27.8,6c9.6,33.5-38.4,56-58.2,25.9
		C222.6,188.2,264.4,152.6,292,177.2z"/>
	<path class="st0" d="M293.4,187.2c0,6.3-9.5,6.3-9.5,0C284,181,293.3,181,293.4,187.2z"/>
	<path class="st0" d="M229.5,328.3c-26.8-1.4-58.6-1.4-70.4-28.3c-11.2-28.3,8.1-52.5,38.1-49.8c29.7,1.2,58.4-6.2,87.6-10.4
		c32.3-3.6,52,39.6,26.1,62.4C288.8,320.8,257.4,327.4,229.5,328.3z M227.8,305.5c19.5-0.7,51.6-6.3,65.4-20.8
		c6.2-8.1,2.5-18.4-7.4-20.9c-3.8-0.9-7.3-0.3-10.8,0.8c-10.8,3.5-21.7,6.3-33,7.8c-14,2-28.1,1.7-42.2,0.1
		c-4.3-0.5-8.6-0.8-12.8,0.6c-9.6,2.2-10.8,14.7-4.5,21.1C192.8,304.2,214,304.4,227.8,305.5z"/>
	<path class="st0" d="M282.9,288.8c-22.2,10.9-45.2,15.4-69.6,12.4c0.8-2.2,12.7-13.9,14.8-11.3c4.2,3.6,8.9,3.3,11.8-1.4
		C246,279.5,274.9,282.8,282.9,288.8z"/>
	<path class="st0" d="M223,277.3c6.7-0.5,13.1-0.9,19.7-1.4C236.9,293,231.3,293,223,277.3z"/>
	<path class="st0" d="M260.8,272.2c6.2-1.8,12.3-3.6,18.9-5.5c-5.1,13.7-7.6,17.1-19.3,6C260.6,272.5,260.7,272.3,260.8,272.2z"/>
	<path class="st0" d="M192.4,275.2c5.6,0.5,11.1,1,16.8,1.5C203.9,291.7,196.6,289,192.4,275.2z"/>
</g>
</svg>
