<?xml version="1.0" encoding="utf-8"?>
<!-- Generator: Adobe Illustrator 26.0.0, SVG Export Plug-In . SVG Version: 6.00 Build 0)  -->
<svg version="1.1" id="Capa_1" xmlns="http://www.w3.org/2000/svg" xmlns:xlink="http://www.w3.org/1999/xlink" x="0px" y="0px"
	 viewBox="0 0 595.3 532.4" style="enable-background:new 0 0 595.3 532.4;" xml:space="preserve">
<style type="text/css">
	.st0{fill:#FFFFFF;}
</style>
<g>
	<path d="M64.4,256.3c2.2-1.3,4.6-1.8,6-3.9c22.4-35.4,67.7-60.4,108.3-40.3c5.4,4.4,10.1-1.4,15.2-3.3
		c-7.9-12.2,4.9-24.4,16.6-27.3c-4.5-14.6,6.3-25,20-27.1c-2.9-3.8-5.7-7.6-7.3-12.2c-0.9-2.2-6.3-3-8.4-4.3
		c-3.1,2.1-6.3,4.5-9.6,6.5c-9.2,5.5-21.1,1.2-23.8-9.4c-7.1,1.4-14.5,2.4-21.3-0.7c-11.3-4.6-12.7-16.6-7.8-25.1
		c-2.3-2.7-4.7-5.3-7-8.1c-7.6-8.7-10.9-24.5-0.3-32.3c1.1-0.8,1.1-1.4,0.7-2.5c-6.3-16,1.4-37.5,20.9-37
		C166.1,10.7,186,1.1,201.5,9.6c8.8-15.2,30.6-11,38.6,2.7c14.5-9.4,27.6,2.6,27,18c15.3,0.5,17.9,16.3,11.4,27.8
		c-0.3,0.6-0.4,1.5-0.1,2c4.5,6.4,3.8,12.8,0.1,19.3c17.1,6.8,20.1,27.2,19.4,43.3c5.4-0.4,10.4,1.2,14.8,4.4
		c2.1-2.9,0.5-5.7-1.5-8.1c-6.5-7.3-5.2-19.9,5.1-22.9c-3.2-13.1,3.6-25.3,18.3-21.2c5.2-15.3,21.9-20.1,31.5-11.1
		c10.8-10.3,29.3-7,33.4,8.1c18.7-2.5,25.5,9.2,25.8,26.2c0.1,0.8,0,1.3,1,1.7c14,5.9,10.9,24.7,3,34.4
		c12.5,13.2,1.8,27.4-14.2,28.7c1.1,8.4-1,16.2-4.7,23.6c11.8,12.7,10.9,30.8,13.1,46.8c12.8-1.3,12.1,16.5,0.8,18.9
		c-1.2,0.3-1.6,0.9-1.7,2.1c-1.5,12-4.4,23.5-10.2,34.3c-1.1,5,0.3,10.5,0.3,15.6c0,0.6,0.2,1.3,0.5,1.7
		c23.5,26.9,58.5,30.7,75.8-4.6c0.3-0.4,0.2-1.5-0.2-1.9c-8.1-9.1-4.7-20.6,1.1-29.8c0.3-0.5,0.5-1.1,0.5-1.7
		c-0.4-6.7,0.8-13.2,3.2-19.5c-0.2-8.6-8.5-18.2-13.9-24.7c-3.2-3.5-4.4-7.5-2.9-12c2.2-6.6,10.3-9.4,17.1-7.1
		c-4.4-7.3-4.7-16.4,3.7-20.7c6.3-3.7,11-2.3,20,6.2c-1-7.2,2.2-13.4,9.4-15.1c10.7-3.3,16.7,8.5,19,17c12.7-5.7,19.3,4.6,21,15.9
		c2.4,13.5,0.4,26.6-3.6,39.5c-0.5,1.6-0.4,2.9,0.5,4.4c7.1,11.4,3.8,24.7,0.6,36.8c6.9-4.8,20.7-13.3,23.3,0.2
		c0.9,7.4-3.2,14-5.1,20.9c-0.8,2.8-0.6,3.1,1.8,4.6c6.5,3.8,14,11.5,9.6,19.5c-4.8,10.7-27.4,33.1-39.5,31.6
		c-13.4-3.7-0.9-19.2,2.2-26.7c-4.6-2-8.6-4.4-10.3-9.3c-2.2,0.5-4.8-0.1-6,2.1c-28.7,48.4-103.4,62.3-138.5,13.2
		c-1.5,4.5-3.4,8.7-7.9,10.9c-0.4,0.2-0.7,1-0.8,1.6c-0.4,4.7-0.8,9.3-1.2,14c-1.1,4.9-3.4,10.5-9.2,10.3
		c-0.3,11.5-1.9,32.3-18.3,28.2c-3.7,12.4-16.5,29-29.8,16.9c-7.7,10.2-25.6,22.4-35.1,6.8c-9.2,4.2-18.7,6.1-28.8,2.4
		c0.1,2.2,0.2,4,2.3,5.4c7.8,4.8-2.6,31.2-5.1,38.5c14.3,4.8,28.5,9.8,41.4,17.7c9,5.1,8,16.3,5.2,24.8c-9,13.5-86.7,12.1-101.8,4.5
		c-7.6-2.8-4.9-8.1-5.4-14.5c0.5-4-1.3-3.6-1.6-6.5c0.2-7.2-0.1-15.3,3-21.8c1.4-1,1.6-2.4,1.8-3.8c1.9-9.6,3.8-19.2,5.8-28.8
		c0.2-1.2,0-1.6-1.2-1.9c-6.2-1.2-12.4-2.5-18.6-3.7c-0.5-0.1-1.3,0.5-1.6,1c-7,12.2-15.5,24.2-28.2,31c-14.6,8-31.2-8.8-30.2-23.4
		c0.3-4.5,1-9,2.1-13.4c5-19,15.6-35.5,27.5-50.8c1.2-3.3-1.2-7.8-1.6-11.3c-14.5,1.3-20.2-15.6-18.8-28c-18.2-3.4-10.1-26-3.4-36.7
		c-10.8-10.7-2.2-24.1,7.7-30c-5.6-12.5,1.4-20.3,10.3-27.8c-18.8-0.5-31.5,15.8-37.4,31.9c-0.2,0.6-0.3,1.4,0,1.9
		c3.9,7.6,3.5,15.2,0.3,22.8c-1.4,3.2-3.3,6.2-5.1,9.1c-1.2,2.2-4.4,2.5-4.8,5.2c-2.5,8.4-5.9,16.2-11.6,23
		c-1.1,1.3-1.1,3.6-1.4,5.5c-1.5,9.2-1.4,18.5-0.5,27.8c0.6,6-0.7,11.3-5.5,15.3c-7.2,6.1-19.2,3-23.1-5.7
		c-6.9,11.7-20.8,23.1-32.9,11.2c0.1-0.2,0.1-0.3,0.2-0.5c-10.9,9.7-29.5,3.8-25.4-12.2c0.9-3,2.6-5.7,3.9-8.4
		c-12.2,3.7-22.1-8.7-14.9-19.2c1.8-2.9,4.3-5.2,7.2-7c9.9-6.3,18.2-14.2,24.9-23.7c0.8-1.1,1-2,0.6-3.2
		c-5.9-16.4,9.1-28.4,15.5-41.7c-0.2-0.1-0.5-0.3-0.7-0.4c-12.5,15.9-40.6,21.5-27.3-7.4c8.7-16.3,2-8.4-5.4-21
		c-7.8-13.4,15.9-28.5,25.7-34.5c4-2.3,8-4.8,12.8-5.2c5.8-0.9,11.3,3.4,9.1,9.9c-2.3,6.1-6.3,11-9.7,16.7
		C59.4,248.6,63,251.4,64.4,256.3z"/>
	<path class="st0" d="M187.4,216.1c3.5-1.7,6.8-3.4,10.2-5c2.5-1.2,2.6-2.4,0.4-4c-7.1-5.4-0.4-15.6,5.7-18.7c3.1-1.7,6.6-2.8,10-4
		c1.9-0.7,2.5-1.6,1.6-3.2c-7.8-12.2,6.5-23.5,18.3-23.4c0.7,0,1.5,0.4,2.1,0.8c3.3,2.1,6.7,3.7,10.7,3.7c8.9,0.4,13.8-7.5,15.7-15
		c16.7,12.8,31.4-2.2,34.7-19.2c0.3-1.3,0.9-1.6,2-1.7c8.9-0.5,16.3,6.1,20.4,13.6c2.2,5.9,7.4-4.6,21.2-5.1
		c8.8-1.1,18.9,4.7,17.8,14.6c-1.6,8.8,11.2-3.2,25,4.7c11.5,7.7-5.4,15,4.9,16c7,1.5,15.7,5,17.2,12.8
		c-21.2-11.1-45.1-15.9-68.5-20.2c-32.7-5.9-58.9,9.2-70.2,40.5c-2.3-2.9-5.6-4.4-9.4-5.5c1.7-6.4,5.5-12.1,4.9-18.8
		c-1.3-8.2-11.2-6.3-15.7-2c-11.6,9.9-35.4,33.3-14.4,45.4c1.6,1.3,5.2,1.3,4.9,3.9c-0.8,6.8-3.5,13.6-2.2,20.4
		c5.6,16.7,23.1-2.4,27.1-10.7c2.4,10.3,4.6,21,11.8,29.5c-24.7-2-33.2,28.1-24.4,46.9c24,49.8,128,80.2,150.9,14.5
		c-0.4,8.7,0.4,22.4-9.3,26.2c-0.6,0.2-1.1,1.5-1.2,2.3c-0.5,5.2,0.4,25.3-8.3,22.3c-7.2-2.9,3,14.7-8.1,27.3c-2.2,2.6-5,2.8-8,1.1
		c-5.4-4.1-3.4,9.8-13.5,18.1c-12.6,10.6-15.4-7.8-19.7-0.1c-5.4,8.8-23,20.8-29.4,7.3c-1-2.5-1.6-2.6-3.9-1.4
		c-10.6,6-31.2,8.3-34.2-7.3c-0.8-7-17.9,10.2-30.3-3.7c-2.2-2.3-4.1-5-6.1-7.5c-1.4-1.9-1.8-2-3.9-0.9
		c-13.2,7.7-23.9,1.3-29.6-11.6c-0.9-1.7-1.4-1.9-3.2-1.4c-14,6.1-23.2-7.6-22.7-20.4c0-2.2-0.8-2.9-3-2.2
		c-11.8,3.1-17.2-11.8-16.2-21.2c-0.2-2.2,2.2-7-1.7-6.5c-12.1,1.3-10.4-16-6.1-23.4c1.4-2.9,3.1-5.8,4.7-8.6
		c0.7-1.3,0.8-2.4-0.6-3.2c-10-6.7-2-21.2,7-24.8c2.7-1.3,2.9-1.9,1.2-4.2c-6.6-9.1,2.4-19.3,10.2-24c6.2-3.9,18,6.2,22.9,10.1
		c0.8,0.7,0.7,1.2,0.3,2c-1.1,2-4.5,11.9-0.7,12.1c1.2,0.1,1.8-0.8,1.9-2c0.5-10.7,7-16.6,16.2-20.3c8-3.1,10-1.7,3.1-8.8
		c-4.9-7.8,4.5-16.5,12.2-17.7c4.4-0.6,3.2-5.1-0.8-3.5c-2.6,0.5-7.3,3.9-9.5,3C203.1,226.8,195.2,221.4,187.4,216.1z"/>
	<path class="st0" d="M250.6,114.4c-19.2-16.4-34.7,1.4-29.3,22c-0.1,0.1-0.2,0.3-0.3,0.4c-1.4-0.9-3-1.6-4.2-2.7
		c-1.9-1.7-2.2-1.6-4.2,0c-2.9,2.4-6.1,4.7-9.1,7c-8,4.2-16.6,1.5-18.7-7.8c-0.7-2.8-1.1-3-3.9-2.2c-14.3,5.8-36.7-4.2-24.4-21.2
		c1.5-1.9,1.4-2.5-0.6-3.9c-8.8-6.1-16.6-17.1-13.2-28.2c2.6-8.1,9.4-6,6.9-11.1c-6.1-14.6-0.9-34.7,17.9-33.7
		c5.2,0.6,0.7-6.5,5.2-13.7c12.4-19.3,30-1.2,31.4-6.5c5.5-14,27-10.5,33.3,2.3c1.4,2.3,1.9,2.2,4.1,0.9c12.7-8.7,23,1.3,21.4,15.4
		c0,1.8,0.5,2.6,2.4,2.6c15.3-0.2,14.8,13.2,9.1,23.9c-1.8,5.1,8.7,8.4,0.5,20.1c-0.3,0.4-1,0.8-1.5,0.8
		C256.7,80.3,251,100.1,250.6,114.4z"/>
	<path class="st0" d="M417.6,235.9c-2.1-29.2-25.1-37.7-35.1-6.6c-4.7,15.9-5.7,35.3,5.1,49.1c14.5,13.8,26.7-9.6,28.6-22.2
		c0.4-1.6,1.1-2.5,2.9-3c-1.9,13.7-5.2,27-12.9,38.7c-2.7,3.7-5.4,9.2-10.8,7.4c-7.8-2.2-13.2-8.9-19.7-13.2
		c-17.9-13.4-37.3,5.2-56.9,1.6c-3.3-0.3-6.5-0.8-9.4-2.5c-7.6-4.6-15.2-9.2-22.9-13.6c-16.2-9.5-20.8-25.9-20.9-43.3
		c0.4-2.9-2.9-3.6-3.8-0.8c-1.8,3.6-3.6,7.2-5.6,10.6c-2.8,4.7-6.8,8.8-11.8,11.1c-11,3.9-4.6-15.7-4-20.9c0.3-2.8-0.1-6-3-7.2
		c-6-2.8-13.3-7.7-9.5-15.2c4.6-10.6,12.5-19.2,21.4-26.3c7.1-4.9,11.2-2.6,8.3,5.9c-1.3,4.2-2.8,8.4-4.2,12.5
		c-0.7,2.2-0.3,2.7,1.9,3.4c4.1,1.2,8.9,2.6,9.8,7.4c5.7,13.2,4.5-38.3,50.4-42.7c19.7-2.7,88.6,11.3,97.1,29.8
		c5.1,11.7,6.5,24.4,7.3,36.9C420,234.3,419.5,235.3,417.6,235.9z M367.4,236.8c0.7-30.9-41.1-59.2-65.8-29.3
		c-0.4,0.5-1.4,0.8-2.1,0.8c-3.4,0.1-6.1,2.1-6.9,5.4c-1.4,4.6,1.8,6.9,2.1,10.7C288.6,275.4,364.7,295.4,367.4,236.8z"/>
	<path class="st0" d="M343.3,361.3c-33.5-2.4-77.4-19-91.3-51.8c-9-20.4,6.5-51.9,30.7-36.4c66.5,48.5,102.4,16.9,112.9,42.3
		c2.2,5.3,1.4,10.5-1,15.5C385.6,351.7,365,360.5,343.3,361.3z M356.1,336.9c5.9-0.5,16.2-1.5,23-3.9c2.9-0.9,0.8-4.7-1.8-3.2
		c-34.2,9.9-71.3-3.2-95.6-28.3c-1.8-1.5-3.1-5.1-5.9-4c-1.7,1,0,3,0.9,3.9C297.6,323.8,323.8,336.3,356.1,336.9z"/>
	<path class="st0" d="M404.1,150.8c0.4-13.6-1.3-32.1-15.5-38.2c-14.2-4.4-22.5,14.2-23.7,25.9c-0.4,2.7-0.5,5.4-0.6,8.1
		c-0.1,2-0.1,2.1-2.4,1.9c-0.7-20.6-26.8-20.5-39.8-11.2c-3-3.7-6.4-6.7-5-11.8c0.4-1.8,1.9-3.4,0.1-5c-5.8-6-10.9-17.3,0.2-20.9
		c3.8-1.3,3.6-1.3,2.7-5.1c-3.1-9,2.3-19.6,12.9-16.3c4,1.2,3.9,1.2,5.3-2.7c2.9-10.4,17.2-17.6,25.5-8.7c3.3,4.7,5.6-4.6,15.4-5.4
		c8.3-1.2,15,4.4,17,12.3c0.7,2.4,1.1,2.7,3.5,2c15-4.8,23.7,10.3,21.9,23.6c-0.1,2.5,0,2.6,2.3,3.4c13.2,4.7,8.8,22.5,1.3,30.5
		c-2.6,2.8,3.8,5.4,4.8,8.3c4.8,9.2-6.2,17.3-14.8,17.5C412.4,158.5,413.1,151.4,404.1,150.8z"/>
	<path class="st0" d="M544.6,241.2c0.2,1.9-1.4,5.3,1.3,5.8c1.6,0.2,2-1,2.1-2.3c1.1-8-0.1-16-0.2-24.1c0.7-7.8,0.7-15.5-0.8-23.2
		c-0.3-1.3,0.2-1.9,1.3-2.5c4.7-2.2,8.5-1.2,11.3,3.1c8.6,16.5,4.2,36.4-1.4,53.1c-0.6,3.2-0.4,3.5,3.2,3.7
		c6.1,12.2,1.9,27.1-3,39.1c-0.4,1-1.1,0.7-1.8,0.6c-12.3-2.6-24.5-5.8-36.1-10.5c-8.2-3.3-16.2-7.1-24.2-10.6
		c-4.5-2.5-1.6-16.5-0.2-20.8c2.1,0.3,3.9-0.1,3-2.5c-1.3-3.7-2.7-7.5-4.3-11c-3.1-6.6-7.4-12.5-12.2-17.9c-2.8-3.1-3.4-6.2-1.9-9.1
		c5.3-9.3,18.2-3.1,22.9,3.8c7.4,8.8,7.3,20.5,7,31.4c0,1.2,0.3,2.2,1.7,2.3c4.7,0.3,1.3-21.9-0.1-25c-2.6-11.8-16.2-16.9-17.5-29.2
		c-0.8-6.3,6.9-11.6,12.9-9c12.1,7.1,16.7,22.5,17.8,35.7c0.3,5.7,0.1,11.4,0.1,17.1c0,1.3,0.2,2.3,1.6,2.5c6.6-1-0.8-39.3-3.7-44.5
		c-1.1-3.1-1.8-6.3-2.1-9.6c-0.8-9.7,11.6-12.5,16.1-5.8c11.6,17.9,7.7,41.1,2.5,60.5c-0.3,1.3-0.4,2.5,1.1,2.9
		c2.5,0.7,2.4-2.6,3.1-4.1C544.2,241.1,544.4,241.2,544.6,241.2z"/>
	<path class="st0" d="M221.3,445c15.3,8.8,33.7,11.3,50.7,6.7c-8.7,49.9-23,15.9,36,49.2c3.2,1.7,4.4,4.3,4.8,7.7
		c0.5,4.3,0.5,4.3-3.5,5.5c-26,6.8-53.5,7-80.1,4c-3.5-1-23.5-2.6-16.7-8.9c1.8-1,3-4,5.4-3c3.7,1.8,8.9,0.8,8-4.3
		c-1.7-3.2-2.3-5.3,0.4-8.1c2.6-2.6-0.3-7.7-3.9-6.6c-4,1.5-8.5-2.4-8-6.4C216.6,468.7,219.2,457,221.3,445z"/>
	<path class="st0" d="M222.1,415.5c0.2,0.8,0.4,1.4,0.7,2.1c-5.1,0.4-14.9,3.6-14.7,9.7c1,5.7,5,10.3,8.5,14.7
		c1.1,1.3,1.5,2.5,0.6,4.1c-7.9-2-16.1-3.4-24.2-4.6c-6.3-0.3-7.3-6.1-7.5-11.3c-0.1-1.2-0.5-2.2-1.8-2.2c-3.1,0.3-1.3,4.7-1.4,6.8
		c0.9,5.3,3.3,9.4,9.3,10.2c-5.7,11.6-14.3,22.4-25.7,29.1c-7.5,5-16.4,0.4-20.9-6.3c-6.4-22.2,15.3-52.6,28.2-69.7
		c5.4,5.2,11.8,4.2,18.7,3.6C197.5,413.5,209.1,421,222.1,415.5z"/>
	<path class="st0" d="M52.4,293.3c12.1,17.9,37,29.1,57.7,33c-3.5,12.1-10.5,27-24.6,28.6c-20.7,3-46.7-9.8-47.8-32.7
		c0-4.2,1.4-8.1,3.5-11.6C44.7,304.7,48.2,298.6,52.4,293.3z"/>
	<path class="st0" d="M254.3,114.9c-1.4-15.6,12.3-44,30-27.8c13.9,15,14.2,44.7-1.5,58.5c-12.3,9-24.5-5.8-26.7-17.3
		c-1.1-4.4-1.5-8.9-2.2-13.3C254.1,115,254.2,115,254.3,114.9z"/>
	<path class="st0" d="M121.4,295.1c2.8,8.3-0.8,17.9-5.8,24.7c-8.3,9.3-42.5-11.3-50.6-17.8c-6.1-5-13.7-12.5-10.2-21.2
		c3-7.4,5.7-14.9,11.3-20.8C68,273.7,108.2,298.3,121.4,295.1z"/>
	<path class="st0" d="M28.5,297.4c-7.7,0.4-5.5-6.5-4.4-11c1.6-5.8,10.5-16.3,3.9-21c-4.6-4.2-12.3-10-7-16.8
		c8.1-11.3,19.7-19.4,32.4-24.7c8.7-2.6,10.3,2.3,5.8,9.2c-12.2,20.5-10.6,10.4,0.1,21c2.2,2.9,2.3,5.2,0.3,8.2
		c-4.5,6.3-6.2,14-9.9,20.5C44.4,289.4,36.8,295.7,28.5,297.4z"/>
	<path class="st0" d="M490.8,274.8c22,11.9,45.1,19.6,69.6,24.3c-0.6,7.5-5,14-9.3,20c-3.1,4.3-6.6,9.3-12.5,6.8
		c-17.5-5.9-33.5-15.9-46.7-28.8C485.6,290.8,487.7,282,490.8,274.8z"/>
	<path class="st0" d="M584.3,290.8c-0.4,7-4,12.6-5.4,19.2c-0.8,3.4,0.2,5.3,3.1,7.1c5.2,3.2,12.4,8.9,8.5,15.6
		c-4.8,8.7-11.6,15.6-19.5,21.4c-3.6,2.7-18.6,13.7-18.9,3.8c1.2-6.8,5.5-12.7,8.4-19c0.9-1.8,0.5-2.5-1.4-3.4c-2-0.9-4-1.8-5.9-3
		c-2.2-1.8-5.2-4.8-2.4-7.4c6.3-8.4,14.5-18,12.7-29.2c-0.1-0.4,0.2-1,0.5-1.3C568,289.8,583.5,278.1,584.3,290.8z"/>
	<path class="st0" d="M122.4,280.2c-17-7.8-31-19.6-42.7-34.3c7.2-9,15.3-17,25.1-23.7c4.1,17,13.4,32.7,26.6,43.9
		C128.4,270.9,125.4,275.5,122.4,280.2z"/>
	<path class="st0" d="M488.6,310c10.5,13.4,23,24.5,38.3,32.6c-2.7,3.9-23.5,22.4-27.2,19.2c-9.8-11.5-19.4-25.4-21.5-40.3
		C482.3,318.3,485.2,313.9,488.6,310z"/>
	<path class="st0" d="M224,129.1c-0.3-18.6,14.3-23.3,26.4-9.3c2,7.5,3,15.5,7.9,22.1c1,2.1-0.7,7.1-1.4,9.3
		c-6.8,15.8-25.6,3-29.5-8.5C225.4,138.4,224.2,133.9,224,129.1z"/>
	<path class="st0" d="M389.5,166.6c6.2-14.4-10.1-20.3-21.7-18.8c0.6-9.3,1.5-18.7,7.2-26.3c8.4-12.1,19.6-3.9,22.9,7.5
		c4.2,12.8,3.8,26.1-2.1,38.3C395.1,169.4,391.1,166.7,389.5,166.6z"/>
	<path class="st0" d="M166.7,211.6c-9.8,12.3-10.5,26.2-7.9,41c-3.4,0.3-6.7,1-10,1.8c-1.3,0.4-2,0.2-2.8-0.8
		c-10.1-12.1-12.7-27.5-10.7-42.8C137.3,206.2,162.3,209.4,166.7,211.6z"/>
	<path class="st0" d="M50.7,350.6c3.9,1.9,7.6,3.8,11.5,5.8c-1.9,4.7-2.6,10.1-6.5,14.2c-4.4,4.7-8.8,9.4-13.2,14.1
		c-3.9,4.2-6.2,8.8-5.4,14.7c0.1,0.4-0.2,1-0.5,1.3c-2.6,2.1-5.4,3.7-8.7,4.3c-10.4,1.2-15.5-10.5-8-18.5
		C31.8,375.9,43.3,364.9,50.7,350.6z"/>
	<path class="st0" d="M469.9,371.8c-10.3,1.4-19.8-1-29.7-3.4c-1-0.2-1.3-0.8-1.4-1.8c-0.8-12.5,1.3-26,8.6-36.2
		c4.2-0.1,8.3,0,12.8,0C460.1,344.8,463.3,358.6,469.9,371.8z"/>
	<path class="st0" d="M131.8,210.3c-2.4,17.1,0.8,32.6,11.8,46c-3.2,2.4-6.3,4.7-9.6,7.2c-12.8-11-21.7-25.5-25.6-41.9
		C107.1,217.6,128.1,210.8,131.8,210.3z"/>
	<path class="st0" d="M194.2,225.5c-11.2,8-16.7,18.6-15.3,32.7c-4.9-2.2-9.5-4.5-14.9-5c-4.5-1.1-2.8-24-0.7-28
		c1.1-3.1,4.9-11.9,8.3-12.1C179.7,216.1,187.7,219.9,194.2,225.5z"/>
	<path class="st0" d="M78.6,359.1c-4.5,7.9-7.2,16.5-8.3,25.3c0,7.3-6.9,14-12.2,18.3c-12.9,9.3-24.2-4.7-12.9-15.8
		c8.3-8.9,16.8-17.6,23.4-27.9c0.6-0.8,1.1-1.1,2.1-0.9C73.3,358.6,75.8,358.8,78.6,359.1z"/>
	<path class="st0" d="M37.4,335.7c1.2,1.8,2.3,3.5,3.5,5.2c1.1,2,4.2,3.5,3.9,6c-5.1,11.1-26,44.8-39.8,29.2
		c-4-5.7,1.1-12.7,6.1-15.8C21.5,353.8,30,345.4,37.4,335.7z"/>
	<path class="st0" d="M474.5,324.6c4.7,14.8,12.1,28.2,23,40.1c-7.4,3-14.3,5-22,6.5c-1.1,0.3-1.8,0-2.4-1.1
		c-6.3-12.4-9.2-25.5-9.3-39.3c0-1.2,0.4-1.6,1.4-2.1C468.3,327.5,471.2,326.1,474.5,324.6z"/>
	<path class="st0" d="M408.7,294.9c0.4,8.6,2.3,21.6-8.4,24c-1.5-10.6-11.3-19-22-18.8c-6.1-0.1-12.2,0-18.3-0.4
		c-12.3-0.9-24.4-3.2-35.7-8.2c8.5-0.6,16.6-1.8,24.5-4.8c15.6-7,27.1,3.3,38.5,12.5C396.5,305.2,402.5,304.6,408.7,294.9z"/>
	<path class="st0" d="M426.9,322.8c5.4,2.4,10.6,4.7,16,7.1c-5.7,11.2-8.8,23.2-7.7,36.6c-5.7-2.6-22-11.3-23.4-17.3
		C414.3,339.1,419.6,329.9,426.9,322.8z"/>
	<path class="st0" d="M96.8,354.3c-1,9.7-1.3,19.3-0.4,29c1.5,8.2-4.5,17.1-13.7,14.7c-16.9-5.4-5.3-27-0.5-37.8
		c0.4-0.9,1.1-1.4,2.2-1.5C88.9,358.4,93,356.5,96.8,354.3z"/>
	<path class="st0" d="M121.1,283.6c-1,1.8-2.1,8.9-4.3,8.3c-15.7-3.8-29.6-13-41.5-23.7c-1.9-1.8-3.3-4.1-4.8-6.3
		c-0.8-1.1-0.6-2.3,0.2-3.4c2.2-3.1,4.4-6.3,6.7-9.7C89.4,263.8,103.7,275.7,121.1,283.6z"/>
	<path class="st0" d="M382.9,255.2c-0.3-11.1,0.8-22,6-31.9c2.2-3.5,4.5-9.4,9.5-6.6c5.9,2.2,10.7,17.1,9.2,22.6
		C396.4,252.1,412.5,250.4,382.9,255.2z"/>
	<path class="st0" d="M207.7,236.4c-6,8.5-6.3,12.3-1.3,19.8c-6.2,2.2-11.9,5.2-16.2,10.4c-2.3-1.8-4.6-3.5-6.8-5.4
		c-3.7-13.2,2-25.2,13.1-32.8c0.4-0.3,1.2-0.5,1.4-0.3C201.3,230.8,204.5,233.6,207.7,236.4z"/>
	<path class="st0" d="M228.8,431.6c16.8,6.7,37.5-4.2,37.8,2.2c0.5,4.8,0.8,9.7,1,14.5c-5.5,5-30.5,0.4-37.4-2.7
		c-1.1-0.4-1.5-0.9-1.4-2.2C228.9,439.6,228.8,435.8,228.8,431.6z"/>
	<path class="st0" d="M312.1,517.1c-0.1,3.4-1.1,4.9-3.8,5.9c-7,2.5-14.4,3.5-21.7,4.4c-8.9,1.5-80.8,4.6-75.2-10
		C240.6,527,282.4,524.7,312.1,517.1z"/>
	<path class="st0" d="M492.6,302.8c13.2,11.7,27.7,21,44.7,26.8c-2.6,3.5-5.1,6.9-7.8,10.5c-14.9-8.2-28-19-38.3-32.6
		C490.4,305.9,491.6,304.2,492.6,302.8z"/>
	<path class="st0" d="M408.6,347.3c-1.9-2.6-3.7-4.8-5.3-7.1c-0.5-5.4,0.5-11.2,0.4-16.7c0.1-4,6.1-1.9,8.5-13.1
		c3.9,3.4,7.8,6.8,11.8,10.2C416.7,328,411.5,336.7,408.6,347.3z"/>
	<path class="st0" d="M409,181.1c-4-7-4.3-7.3-10.3-11.2c1.9-4.5,3.2-9.3,4.6-14c0.3-1.2,0.7-1.6,1.9-1.3
		C415.1,158,411.7,173.6,409,181.1z"/>
	<path class="st0" d="M222.6,503.5c-8.7-2.2-6-2.5-12.8,2.7c-0.4-6.9,0.2-13.5,1.9-20.6c5.3,6.5,3.7,5.8,12.1,4.9
		C219.2,497.3,219.3,496,222.6,503.5z"/>
	<path class="st0" d="M140.4,454.5c1.6-23.1,14.6-44,28.7-61.5c0.6,0.8,1.1,1.7,1.8,2.6C157,412.9,144.5,432.3,140.4,454.5z"/>
	<path class="st0" d="M262.5,427.9c-6.4,1.3-34.3,6-34.5-3.8c-0.3-3.2-1.4-6.4-2.1-9.9c8.7,14,20.7,17,35.4,10.5
		C261.8,426.1,261.9,426.5,262.5,427.9z"/>
	<path class="st0" d="M388.8,274.2c8.8-1.6,13-8.9,12.1-17.1c0-0.7-0.1-1.8,0.2-1.9c2-0.8,3.9-0.8,5.8,0.5
		c-1.1,8.3-4.8,16.8-11.9,21.8C392.4,279.5,390.7,275.8,388.8,274.2z"/>
	<path class="st0" d="M221,434.8c-1-4.3-2.1-8.4-6.1-11c1.9-1.2,8-3.9,9.1-1.5c0.5,3.3,1,6.6,1.4,9.9C225,434.1,222.6,434,221,434.8
		z"/>
	<path class="st0" d="M400.3,213.2c10.3,0.7,12.5,14.9,13.8,23.1c-0.9,0.2-1.5,0.3-2.2,0.4C410.2,227.8,408.6,219,400.3,213.2z"/>
	<path class="st0" d="M412.8,255.6c-1.8,8-4.5,15.2-10.7,20.8c4.3-5.8,7.1-12.3,8.5-19.4C410.9,255.6,410.9,255.6,412.8,255.6z"/>
	<path class="st0" d="M385,258.7c2.3-0.4,4.6-0.8,7-1.2C393.4,262.4,384.6,264.4,385,258.7z"/>
	<path class="st0" d="M211.8,426.8c4.9,1.8,4.8,6.4,5.8,10.4C215.1,434.1,212.7,430.9,211.8,426.8z"/>
	<path class="st0" d="M225.3,437.2c0,1.9,0,3.8,0,5.6C221.2,441.3,220.5,438.2,225.3,437.2z"/>
	<path class="st0" d="M311.4,213c8.6-8.9,20.6-11,32-7c19.8,6.2,25.9,33.5,15.3,50c-6.9-4.8-13.7-9.6-20.5-14.3
		c8.1-9.4-3.1-29.1-14.2-18.3C322.8,216.8,319.4,212.5,311.4,213z"/>
	<path class="st0" d="M305.6,247.8c6.6,12.1,25.1,9.5,28.3-3.8c3.5,1.2,19,11.8,22.3,15.3C341.9,276.6,310.9,269.8,305.6,247.8z"/>
	<path class="st0" d="M307.4,212.4c-1-0.9-1.9-1.7-2.8-2.5c4.8-9.5,23.6-14.6,34.1-8.9C325.9,199.2,315.3,202.4,307.4,212.4z"/>
	<path class="st0" d="M314.5,239.7c-2.6,0-4.2-2.6-3.1-4.9c0.8-2.3,3-0.7,4.6-0.1c1,0.5,2.3,0.6,1.9,2.3
		C317.5,238.6,316.2,239.7,314.5,239.7z"/>
	<path class="st0" d="M300.3,242.2c-1.9-5.4-2.7-11-2.1-16.7c1.9,0.1,2.5,0.8,2.1,2.6C299.3,232.8,299.7,237.5,300.3,242.2z"/>
	<path class="st0" d="M306.7,230.9c-1.1,3.3-2.2,6.2-3.1,8.8c0-2.8,0-6.2,0-9.9C304.9,230.2,305.9,230.6,306.7,230.9z"/>
</g>
</svg>
