<?xml version="1.0" encoding="utf-8"?>
<!-- Generator: Adobe Illustrator 26.0.0, SVG Export Plug-In . SVG Version: 6.00 Build 0)  -->
<svg version="1.1" id="Capa_1" xmlns="http://www.w3.org/2000/svg" xmlns:xlink="http://www.w3.org/1999/xlink" x="0px" y="0px"
	 viewBox="0 0 595.3 744" style="enable-background:new 0 0 595.3 744;" xml:space="preserve">
<style type="text/css">
	.st0{fill:#FFFFFF;}
</style>
<g>
	<path d="M233.5,336.6c1.1-5.1,3.4-9.5,6.7-13.3c-6.3-3.6-7.2-7.8-5.7-16.3c-8.3,4.8-19,3.2-22.2-6c-12.6,6.4-38.2,8.5-38.3-11.2
		c-17.1-0.1-36.8-8.3-25.2-28.3c-18.5-3.3-26.1-25.7-11.9-38.7c-14.3-13.4-4.2-37.2,13.9-39.8c-11.1-22.3,13.8-45.4,36.1-38.6
		c9.7-18.6,37.3-17.3,49-1.2c15.3-13.8,38.4,0.2,35.7,19.5c22.7-2.5,25.6,19.6,20.8,36.7c10.3,1.3,12.4,14,8,22.1
		c2.9,0.2,5.7,0.4,8.5,0.7c-8.5-16.7,12.3-27.7,26.5-22.7c8,1.8,14.9,5.9,21.7,10.4c1.1-2.4,2.1-4.7,3.3-7.1
		c-13.9-2.6-38.9-14.8-27-31.8c-3.3-1.8-6.7-3.3-9.8-5.3c-10.7-6-14.4-24.1-1.2-29.5c-9-12.4-8.7-28.9,7.5-34.5
		c-10.6-14.8,6.5-34.2,22.8-27.2c-3.2-18.6,21.1-26.7,32.7-14c11-18.7,39.8-14,48.1,4.5c22.7-7.8,42.6,13.1,42.5,35
		c21.6,6.7,21.9,30,8.1,45.5v0.1c6.1,7.3,4.8,15.1,1.3,22.9c-3.4,7.7-9.5,13.2-16.2,18c-0.6,0.5-1.3,1.4-1.3,2.2
		c0,8.7-2.3,16.8-5.4,24.7c10.5,2.8,18.2,12.1,11.2,22.4c17.9,1.4,47.3,15.5,35.7,37.3c3.4,2.1,6.7,4.3,10.3,6.5
		c14.8-35.8,14.1-76.7,4.1-113.7c-8.8-28.4-23.2-55.6-34.5-82.6c-12.4-2.9-6.4-17.3-1.6-24.7c0.6-1,0.7-1.6-0.1-2.6
		c-13.6-14.8-24.9-50.4,8.1-43.9c5.9-14.2,24.2-11.4,33.3-2.5c4-9.2,12.2-11.6,20.5-7.9c11.3,4.9,15.2,18.7,15.3,30.1
		c0.1,2-1.4,4.6-0.3,6.4c5.4,3.2,8.7,8.2,11.4,13.6c21.2,50.6,24.8,128.2,13.7,181.8c-9.5,35.1-25.8,67.9-50.7,94.7
		c-2.7,7.7-0.5,10.3-8.9,16.5c13.2,5.3,26.9,24.7,9.5,33.9c12.8,9.5,22.5,33.2,4.6,42.6c12.6,10,23.7,46.9,0.5,50.1
		c5.1,12,6.6,33.6-10.4,35.6c5.8,14.5-0.7,37-19.3,35.2c1.7,15.8-12.7,37.6-29.5,25.7c-1,4.9-8.9,11.5-7.4,13.8
		c5.9,12.7,9.4,26.1,11,39.9c2.9,13.8-0.1,27.5-5.4,40c1.8,6.8,0.6,13.2-2.3,19.4c-4,8.5-9.5,15.7-17.5,20.9c-0.7,0.4-1.1,1.3-1.4,2
		c-2.3,5.4-4.1,11.1-6.8,16.3c-23.7,40.9-66.8,23.7-77-17.2c-7.5-29.5-1.2-72.8,21.8-94.2c13.4-11.6,31.9-3.3,44.8,4.9
		c-1-7.8-2.4-15.1-5.8-21.9c-10.1,5.6-19.6,5.7-28.3-2.5c-9.9,11.7-27.7,13.1-36.3-0.9c-13.2,9.3-34.3,10.4-42.1-6.3
		c-12.1,5.5-22.6,3-31.9-5.8c-20.5,11.7-31.4-14.5-55.5,5.8c-3.2,2.3,4.6,11.3-0.6,20.9c44.9,2.7-1.1,46.1-19.6,19.1
		c-15.2,16.3-20.9,53.7-45.1,58.6c-46.7-1-99.5-48.2-111.1-92.5c-4.3-21.7,15-40.2,35.6-42.6c17.7-2.5,34.8,2.4,50.4,10.6
		c1.1,0.6,1.7,0.6,2.6-0.4c18-20.3,25.3-28.8,52-13.7c0.9,0.6,1.6,0.6,2.5-0.1c8.7-6.8,18.6-11.2,29.4-13.6
		c-2.2-5.9-1.3-11.7,1.4-17.5c-17.9,1-18.8-23.1-11-34.5c-19-10.1-13.6-39.8,1.4-51.1c-12.5-7.3-9-22-0.2-30.8
		c-27.7-21.3-66.5-39-98.7-16.8c-13.5,8.6-25.3,19.9-40.8,24.8c6.8,17.4,5.1,43.6-13.3,52.8C67.4,459.1,60,443,67.9,433.7
		c6.6-7.8,13.5-38.7-5.3-29.9c-19,10.2-54.9,3.5-62.1-18.9c-2.3-13.2,15.6-20.6,24.7-11.4c7.5,7,16.9,12.5,27.6,11.3
		c0.6-10.2-13,0-32-22.5c-9.7-8.8-17.9-32,1.4-34.4c16.9-2.1,16.3,21.4,33.1,28.5c0.6-2.4,3.4-5,2.2-7.4
		c-6.1-7.4-9.9-15.9-11.9-25.2c-5.5-18.4,16.3-30,24.6-12.7c1.6,6.5,2.5,13,4.9,19.3c46.7-29.1,112.2-24.5,157.3,5.7
		C232.6,336.1,232.9,336.3,233.5,336.6z"/>
	<path class="st0" d="M250.6,527.7c-2-0.4-5.3,1-6-1.4c-1.2-3.4-1.2-6.9,0.1-10.3c0.6-2.8,4.2-6.3,3.4-9.3c-1.2-1.3-3.6-0.5-5.2-0.2
		c-6.3,0.7-9.9-1.8-11.5-7.9c-4.9-14.7,10-24.2,2.7-25.7c-5.8-1.8-8.7-6.2-10-11.7c-6.9-25.9,19.8-35.5,12.5-38.8
		c-5.8-2.6-10.1-8.1-7.7-14.7c2.1-6.6,7-11.7,12.2-16.1c1.5-1.4,1.2-3.1-0.7-3.6c-8.6-3-7-14.8-2.9-21c3-4.8,6.9-8.8,11.2-12.4
		c1.9-1.1,2-4-0.4-4.2c-16.7,1.1-12.2-18.9-3.4-26.2c6.7-6.4-7.9-1.6-7.1-11.2c0.6-12,9.8-20.9,18.6-28c0.9-0.7,1.9-1.4,1.3-2.5
		c-2.3-2.5-7-2.6-6.3-7.2c0.6-15.4,18.3-19.7,30.8-21.2c2.1-0.3,2.2-2.4,0.9-3.7c-13.3-7.2-7-20.6,5.6-23.7
		c9.1-2.6,18.2-1.4,27.2,0.7c1.6,0.3,4,1.6,4.7-0.6c0.4-1.3-0.2-2.1-1.4-2.6c-22.1-8.4,1.2-37.8,36.3-10.7
		c5.7,5.9,6.2-8.2,10.1-11.6c7.8-12.9,32.3-11.4,32.8,5.5c0.5,2.5-1.8,13.7,3.7,8.9c5.2-7.2,11-15.6,20.8-15.5
		c5.4,0.1,11.5,2.2,12.3,8.3c0.5,3.4,1.5,7.5-2.9,8.7c-3.7,0.9-4.4,5.6-0.2,4.7c11.2-6.4,25.8-9.9,37.2-1.8
		c10.9,6.8-8,18.3,0.7,19.2c16.3-1.8,47.9,12.6,34.9,32.1c-4.8,4.6,11,5.8,15.4,14.7c10.2,18.1-6.9,14.4-9.3,20.2
		c1.1,3.8,12.4,3.4,18,10.7c7.9,7.9,6.9,22.4-4.7,25.9c-5.4,4.2,8.2,6.6,10.5,9.1c6.8,3.9,13.9,15.6,5.3,21.3
		c-18.2,8.2,7.8,5.5,9.9,30.3c1,7.6-3.7,13.2-11.1,15.1c-6.2,4.5,17,7,14.9,38c-0.2,6.2-5.1,11.7-11.7,10c-7.8-1.2,7,17.9,0.6,29.2
		c-1.9,4.7-6.2,7-11.2,6.4c-8.4-0.5,8.5,15-3.8,30.2c-3.5,4.5-8.2,6-13.7,4.6c-6.5-2.2,0.9,13.6-8.9,24.1
		c-12.6,15-20.5-6.8-23.2,4.2c-3.1,7.5-7.8,13.6-15.8,16.3c-11,4.5-20.2-4.8-22.8,0.4c-6.9,9.5-22.3,13-30.2,2.8c-1.7-2-2.5-2-4.3,0
		c-9.1,12.1-25.4,12.1-31.5-0.8c-1-2.1-1.9-2.1-3.8-0.9c-7.2,4.8-15.3,9.3-24.2,6.9c-6.6-1.4-10.9-5.5-13.5-11.6
		c-2-6.8-14.4,10.7-31.1-4.7c-2.7-3.9,6.4-9.9-1.9-21.6c-12.3-15.4-32.1-24.4-51.7-25.6C250.7,527.5,250.6,527.6,250.6,527.7z
		 M370.4,354.1c0-0.3,0-0.6,0-0.9c-26-0.3-57.9-1.7-74,22.8c-32.9,51.1,1.5,102.6,55.5,116.3c49.7,13.7,121.8,11.5,146-42.4
		c11-26.4,11.8-59.9-7.5-82.7c-21.6-28.1-58.7-16.4-88.5-13.5C391.5,354.1,380.9,353.9,370.4,354.1z M425.1,259
		c-29.2,4.3-44,40-28.2,63.8c25,43.4,95.9,16.2,80.7-33.4c30.9-2.3,9.7-39-8.4-16.1c-1.3-1.1-2.8-2.3-4.3-3.6
		c25.1-16.5-13.1-38.5-15.7-9.1c-2-0.5-3.7-1-5.5-1.5C455.5,232.6,413.2,231.7,425.1,259z M285.4,311.9c3.7,56.4,86.4,53,85.7-3.1
		c-0.5-24.7-23.6-44.5-48.2-41.1c3.4-29.9-36.5-16.5-16.4,5.5c-1.3,0.9-2.8,1.9-3.9,2.6c-13.6-25.5-39.5,4.6-11.9,13.7
		c-0.7,1.5-1.4,3.1-2.3,4.8C264.3,278.1,257,318.5,285.4,311.9z"/>
	<path class="st0" d="M467.6,182.3c-4.9-26.2-28-22.1-40.2-3.5c-14.2-68.6-67.1-51.3-59.3,13.3c-0.4,2.6-4.1,5.6-6.3,6.7
		c-11.5-1.1-38.3-14-23.5-27c6-4.4-11.2-5.8-15.3-11.4c-6.9-5.5-8.4-18.7,2.2-21.1c3.3-0.9,3.5-1.9,1.4-4.5
		c-6.7-7-10.6-20.9-0.5-26.8c2.2-2.4,11.9-2.4,8-7c-4.5-5.2-5.1-10.7-1.8-16.3c3.6-6.1,9.1-8.7,15.8-7.2c2.6,0.3,5.7,3,8.4,1.9
		c1.3-1.5,0-4.1-0.2-5.8c-2.3-16.2,18.3-20.2,27.2-8.7c1.6,1.3,2.9,1.4,3.8-0.4c9.1-19.2,36.3-13.8,42.8,3.8
		c0.9,2.1,1.9,2.4,3.8,1.1c17-8.5,36.4,8.6,37.2,26.1c1,2.6-1.4,8.3,2.5,8.6c20.3,2.7,18.6,27.4,6.1,39.6c-1.8,2.1-1.7,2.8,0.5,4.4
		C490.3,159.3,477.6,175.3,467.6,182.3z"/>
	<path class="st0" d="M226.7,237.3c-59.6-8-23,53.7,14.6,56.5c-3.5,10.2-22.4,18.6-25.7,4.3c-0.3-2.3-1.5-2.9-3.5-1.8
		c-6.4,3.3-13.1,5.7-20.4,5.4c-22-2.3-8.8-16.7-16.4-16.2c-15.8,1.4-35.2-7.3-22.2-23.4c5.1-5.2-10.5-4.4-14.5-10
		c-7.7-7.1-7.2-19.3,0.9-26.7c3.3-3,3.3-3-0.3-5.8c-12.2-11-2.7-31.7,12.8-32.9c3.8-0.7,4.6-1.5,2.4-5.3
		c-11.5-19.2,13.3-40.5,32.2-32.7c1.7,0.5,2.8,0.2,3.1-1.2c3.8-13.6,22.7-16,33.7-9.6c6.4,2.3,11.1,14.9,14.2,9.1
		c5.8-7.8,18.6-6.4,25,0.1c6.1,5.5,3.1,14,5.2,20.7c0.5,0.4,1.7,0.3,2.4,0c6.9-3.8,16.6,0.6,19,9.1c4.6,9.9-5.9,27.3,0.1,26.4
		c6.5,0.2,9.3,3.2,9,9.7c-0.5,3.8-1.2,9.5-6.5,9.1c-1.9-0.4-4.8,2.4-5.4-0.5c-4.3-12.6-11.1-23.6-20.9-32.7
		C223.5,154,206.8,202.4,226.7,237.3z"/>
	<path class="st0" d="M159.5,558.7c8.9-7,14.8-21,27.2-20.3c26.4,3.4,48.2,26.8,54.9,51.9c3.9,13.7-11.1,20.1-18.8,28.6
		c-10.7,10.4-14.7,24.8-21.8,37.7c-6.3-40.4-73.1-97.4-114.1-100.1c19.5-12.9,45-7.3,64.5,2.7c3.2,0.7,8.6,7,11.3,4.2
		C164,561.5,161.1,559.8,159.5,558.7z"/>
	<path class="st0" d="M177,676.9c-23.9-1.8-44-13.5-61.9-28.4c-13.3-9.2-69.2-73.2-28-72.7c35.7,6.4,63.5,33.5,86.9,59.6
		C182.2,645.6,201.7,675.8,177,676.9z"/>
	<path class="st0" d="M479.7,665.5c1.1,22.8-23.7,44.8-46.1,35.6c-7.2-2.4-13.6-6.2-19.3-11.1c-0.9-1.1-2.3-1.8-3.4-0.5
		c-1.9,3.5,4.7,5.9,6.8,8c11.6,8.4,25.8,11.6,39.7,7.6c-17.2,53.9-62,32-69.5-13.3c-5.1-25.7,4.8-88.5,40.5-82.2
		c30.1,15,12.1,7.8-1.7,24.1c-32.6,39.6,26.4,88.1,45.9,39.9C474.2,670.5,477.1,668.5,479.7,665.5z"/>
	<path class="st0" d="M276.8,250.7c-8.8,1.8-17,4.1-23.6,10.4c-21.3-14.5-36.8-43.8-28.6-69.5c17.2-31.1,53,10.3,58.2,31.1
		c0.4,1.2,0.1,1.8-0.9,2.3C271.7,229.9,267.5,242.6,276.8,250.7z"/>
	<path class="st0" d="M585.8,102.5c-26.1,2.6-50.7,9.7-74.1,21.7c-4.7-9.8-8.8-19.5-13.4-29.3c-0.5-1.2-0.4-1.7,0.7-2.3
		c22.4-12.8,46.3-21.1,71.8-24.7c2.5,0.3,6.8-2.4,7.5,1.2C580.8,80.3,584,91.1,585.8,102.5z"/>
	<path class="st0" d="M402.5,208.4c-0.4-15.9-16.4-22.3-30.1-17.4c-6.2-77.8,54-61.5,52.1,4.4c0,0.9-0.3,1.4-1.3,1.4
		C414.4,196.8,408.1,202.3,402.5,208.4z"/>
	<path class="st0" d="M524.7,154.5c20.3-7,42.1-9.8,63.6-9.1c1.8,0,2.3,0.6,2.3,2.3c0,12,0.7,24,0.5,36c-19.8-2.7-39.3-2-58.4,2
		C530,175.2,527.4,165,524.7,154.5z"/>
	<path class="st0" d="M586.7,106.4c1.3,11.7,2.5,23.2,3.8,35c-23.2-0.5-45.6,1.7-67.3,9.5c-3.2-7.7-6.4-15.3-9.7-23.2
		C536.3,116,560.6,108.9,586.7,106.4z"/>
	<path class="st0" d="M587.8,221.5c-17.3-2.1-34.5-5.2-51.8-7.7c-3-0.2-2.3-20.4-3.1-24.3c18.7-3.7,37.6-4.7,56.6-2.1
		c1.1,0.1,1.6,0.4,1.4,1.6C589.8,199.9,589.1,210.7,587.8,221.5z"/>
	<path class="st0" d="M250.8,283c-2.4,2-3.8,6.5-7.1,6.7c-16.7-1.4-32-11.7-40.7-25.9c-10.9-18.2,4.7-27.8,21.8-22.5
		c3.6,0.8,6.2,2.5,8.3,5.7c4.5,7,10.6,12.6,17.4,17.3C247.8,270.9,244.5,277.5,250.8,283z"/>
	<path class="st0" d="M72.8,575c11.2-53.6,144.4,60.2,120.5,91.1C189.7,631.2,107.7,556.8,72.8,575z"/>
	<path class="st0" d="M106,320.2c-11.9,20.1-7.8,50.2,13.8,61.7c-6.4,4.2-12,11.3-19.7,12.2c-8.6-1.7-14.5-6.9-17.6-15
		C73.3,356.7,78.4,324.2,106,320.2z"/>
	<path class="st0" d="M139.9,369.4c-4.5,2.6-9.2,5.1-13.5,8c-3.8,3.7-9-1.4-11.9-3.9c-13.1-14.7-16.6-41.4-0.8-55.3
		c6.5-0.7,12.9-2.3,19.4-2.6C122,332.1,121.9,357.8,139.9,369.4z"/>
	<path class="st0" d="M587.2,225.8c-1.7,8.3-4.7,16.4-7.1,24.5c-0.3,0.9-0.7,1.2-1.6,1c-15.1-2.6-30.2-5.7-44.7-10.2
		c0.4-7.8,0.8-15.5,1.2-23.1C552.3,220.5,569.6,223.1,587.2,225.8z"/>
	<path class="st0" d="M439.8,214.4c-0.6-6.9-2.6-14.5-10.2-16.3c-1.1-0.3-1.4-0.8-1.4-2c0.3-3.7-0.4-7.7,0.4-11.3
		c4.9-9.4,18.6-23.5,29.1-14.5c9.9,11.1,6.1,28.4,0.8,40.9c-0.2,0.4-0.8,1-1.2,0.9C451.4,211.5,445.1,212.8,439.8,214.4z"/>
	<path class="st0" d="M164.6,316.1c-10.4,14.8-13.8,30.3-5.3,47.3c-5.1,0.2-10.7,4.1-15.7,3.3c-18.3-9.7-17.4-35.4-6.1-50.3
		c4.3-3.4,20.1,0,26.5-0.6C164.2,316,164.4,316.1,164.6,316.1z"/>
	<path class="st0" d="M562,41.5c7.9,5.1,10.8,13.4,14.3,21.7c-28.6,3.2-55.1,12-80.1,26.4c-0.3-2.5-2.8-5.5-1.4-7.5
		c14-10.2,37.7-6.9,39.7-28.9c1-5.1,6.4-1.5,9.7-10C550.3,46.2,556.4,47.7,562,41.5z"/>
	<path class="st0" d="M578.1,255.7c-1.9,3.5-9.8,27-13.1,25.4c-12.5-3.9-24.1-9.7-34.6-17.6c-2-4.1,2.1-13,2.5-18
		C548,248.9,562.9,252.3,578.1,255.7z"/>
	<path class="st0" d="M80.5,331.5c-9.5,21.2-10.2,55,14.7,65.5c-3.3,1.4-4.1,2.1-6.2-1.1c-5.5-7.6-13.3-3.9-15.8,3.5
		c-31.5-10.7-15.6-55.6,7.2-68C80.5,331.5,80.6,331.5,80.5,331.5z"/>
	<path class="st0" d="M62.2,399.1c-17.7,10.2-46.4,5.3-57.4-12.7C0.2,376.6,15,368.8,22,376.2c4.1,3.4,8.2,6.9,13.1,9.3
		C52.7,393.7,49.6,380.9,62.2,399.1z"/>
	<path class="st0" d="M530.4,51.1c-0.3,8.8-6.3,16.1-14.9,18c-8.7,1.4-16.1,5.8-23.8,9.6c-5.4,1.4-6.8-4.5-5.1-8.5
		c4.8-14,14.5-23,28.4-27.5C521.8,40.6,531.5,41.9,530.4,51.1z"/>
	<path class="st0" d="M564.6,285.2c-4.5,8.3-9.3,16.1-14.8,23.4c-0.3,0.4-1.1,0.6-1.5,0.5c-7.1-3.7-16.5-6.6-21.2-13.2
		c-3.7-19.9-7.9-5.4,1.1-28.8C539.4,275.1,551.4,281.2,564.6,285.2z"/>
	<path class="st0" d="M51.7,375.6c-17.2-1.8-33.2-16.6-37.4-33.2c-2.7-11.9,14.9-14.9,18.9-4.9c4,8,9.3,14.9,16.6,20.1
		c3,2,4.2,2.3,3.2,6.2C52.4,367.7,52,371.6,51.7,375.6z"/>
	<path class="st0" d="M448.7,623.9c10.5,8.1,26.6,7.2,35.7-2.8C495.4,665.8,431.8,663,448.7,623.9z"/>
	<path class="st0" d="M250.2,573.2c-4.2-15.4-13-27.1-28.9-33.1c19.4-10,30.4-12.7,41.3,9.5c2.5,5.9,3.4,12.1,2.2,18.5
		C263.8,571.8,253.7,571.5,250.2,573.2z"/>
	<path class="st0" d="M192.1,321.1c-14.1,11.4-18.4,25.5-13.9,42.7c-4.6-1.1-9.9,0.5-14.1-1.8c-9.8-11.8-5.7-29.8,2.5-41.5
		C171.5,313,184.4,321,192.1,321.1z"/>
	<path class="st0" d="M441.5,638.3c2.4,20.2,28,25.4,41.8,11.9c-3.7,10.1-11,18.5-19.8,24.6c-6,4-12.3,4-18.3,0.2
		C431,667,431.9,649,441.5,638.3z"/>
	<path class="st0" d="M513.8,38.3c-14,6.7-14,6.7-22.9,15C458.8,15.3,495.1-3.2,513.8,38.3z"/>
	<path class="st0" d="M92.8,421.3c-0.2,10.5-3,21.6-11.4,28.7c-5.9,5-15.1-1.1-13-8.6c18.2-30.4,3.4-41.5,12.5-45.5
		C89.9,396.6,92.9,413.9,92.8,421.3z"/>
	<path class="st0" d="M446.8,601.3c11-0.1,21.8-1.1,31.5-8c1.7,6.1,3.5,11.7,4.4,17.8c2.1,11.8-13.3,15.5-22.2,13.8
		C446.6,624,448.6,611.5,446.8,601.3z"/>
	<path class="st0" d="M534.6,46.5c-6-13-12.4-6-16.9-10.5c-3.7-8.6-9.5-15.6-16.9-21.2c-1-0.7-1.1-1.3-0.6-2.3
		C515.3-12.7,555.5,41.2,534.6,46.5z"/>
	<path class="st0" d="M216.4,331.2c-16.5,4.4-24.4,22.6-18.3,38.3c-5-2.6-11.5-2.1-15.4-5.9c-4.2-10.5-2.8-24.4,6.6-34
		c2.7-2.1,5.6-5.6,9-6.3c6.1,2.3,12.2,4.8,18.4,7.2C216.5,330.7,216.5,330.9,216.4,331.2z"/>
	<path class="st0" d="M215.7,378c-4.3-2.4-9.1-3.8-12.6-6.9c-8.7-15.1,1.9-38.4,20.5-36.2c2.2,1.8,13.6,7.5,7.8,10.1
		C217.5,348.8,212.9,364.8,215.7,378z"/>
	<path class="st0" d="M560.5,31.8c-0.8,3-1.6,10.7-7.1,9.6c-4.1-0.2-8.6-1.1-9.3-6.2c-1-6.7-4.4-12.5-8.5-17.8
		c-1.7-2.3-4.4-4-2.5-7.1c3.8-10.1,17.8-6.2,21.9,1.8C558.3,17.9,560.2,24,560.5,31.8z"/>
	<path class="st0" d="M453.5,681.8c-3.1,2.5-5,7.5-9,7.5c-7-1.2-12.5-4.9-17-10.3c-14-17.2-4.3-45.5,16-52.6c-0.8,2.6-1,5-3.1,7.1
		C423.3,648.7,429,679.6,453.5,681.8z"/>
	<path class="st0" d="M268.7,570c2.5-15.5-2.8-28.1-14.8-38.4c9.3,1,18.7,3.6,26.5,8.7c7.9,9.3,8.3,23.6-1.2,32
		C275.9,573.3,272.2,570.5,268.7,570z"/>
	<path class="st0" d="M60,346.2c-27.8-39.3,5.3-51.8,7.7-27.8C74.7,339.4,70.7,329.7,60,346.2z"/>
	<path class="st0" d="M235.8,391.1c-5.2-2-9.4-6.4-14.2-9.3c-3.8-6.6-3.8-15.2-0.9-22.2c2.4-5.3,6.3-9.2,12.1-10.8
		c2.7-0.9,4.8,5,10.2,5.4C232.8,363.2,223.6,379.9,235.8,391.1z"/>
	<path class="st0" d="M412.6,607.4c-40.6,23.4-41.8,113.1,4.2,132.2c-0.1,0.2-0.1,0.3-0.2,0.5c-26.7-5.9-38.1-36.4-37.7-61.2
		C380.2,655.1,385.7,614.6,412.6,607.4z"/>
	<path class="st0" d="M473.7,582.9c0.8,1.9,1.7,3.8,2.4,5.7c-1.4,4.3-7.6,5.6-11.5,6.9c-4.6,0.7-16.6,4.1-19.7,0.6
		c-0.5-2.4-3.1-4.8-2-7.3C447.9,581.2,459.5,593.8,473.7,582.9z"/>
	<path class="st0" d="M288.3,545.4c6,4.2,11.7,8.4,13.3,16c2.3,10.4-9.8,17.9-18.7,13.1C290.5,565.8,292.8,556.2,288.3,545.4z"/>
	<path class="st0" d="M214.2,544.5c15.2-2.3,27.6,14.4,31.2,27.6c1.2,4.8,1.1,3.7-2.8,6.4c-6.6-13.6-16.7-24.1-28.4-33.3
		C214.3,545,214.3,544.8,214.2,544.5z"/>
	<path class="st0" d="M546.6,313.3c-3.1,3.6-6.2,7.3-9.6,11.3c-2.8-9.4-9.5-14.3-17.6-17.6c2.2-1.9,4.4-3.7,6.3-5.3
		C532.5,305.3,539.4,309.2,546.6,313.3z"/>
	<path class="st0" d="M227.8,619.1c2.6-2.2,5.2-4.5,7.9-6.8c3.4,5.5,6.2,11.1,13.3,12.4C242.1,629.5,233.5,627.2,227.8,619.1z"/>
	<path class="st0" d="M252.9,620.5c3-8.8-6.3-11-12.9-11.8c0.6-1.2,1.3-1.9,2.6-1.7c4.4,1,9.6,0.4,13.6,2.6
		C262.1,612.5,259,620.2,252.9,620.5z"/>
	<path class="st0" d="M452.6,688.7c3.9-4.5,8.7-7.7,13.8-10.7C463.2,683.5,458.7,687.1,452.6,688.7z"/>
	<path class="st0" d="M241.4,612.7c3.3,0.9,10.9,2.3,7,7.1c-3.5,0.4-5.6-4.1-7.4-6.5C241.2,613.1,241.3,612.9,241.4,612.7z"/>
	<path class="st0" d="M371.4,357.2c39,7.5,90.3-23.9,118.4,15.5c15.8,21.6,14.2,51.6,4.4,75.4c-13.1,31.5-47.8,44.7-79.8,46.5
		c-55.7,5.9-141.4-23.8-124.7-93.6C299,357.9,334.3,355.5,371.4,357.2z M390.4,458.7c23.7-0.2,49.1-2.6,66.9-19.3
		c15.1-12.8,18.7-47.3-5.3-51.6c-10.8-1.6-21.4,2-31.8,4.2c-26.8,8.8-54.1-3.2-81,0.9c-19.8,4.4-20.3,28.7-9.9,42.1
		C342.8,454,368.9,458.4,390.4,458.7z"/>
	<path class="st0" d="M436.1,341c-41.6,0.7-57.9-57.9-18.4-75.3C476.6,242.7,501.8,336.2,436.1,341z M428.4,293.2
		c-23.2,0.2-22.7,35.4,0.4,35.2C451.7,327.8,451.6,293.6,428.4,293.2z"/>
	<path class="st0" d="M367.2,310.1c-0.8,51-76.7,51.1-77.8,0.2C290.1,259.1,366.2,258.8,367.2,310.1z M333.6,337.1
		c23.2,0.1,23.2-35,0.3-35.3C310.6,302.1,310.6,336.6,333.6,337.1z"/>
	<path class="st0" d="M443.9,444.2c-21,12.9-72.8,14.4-94.8,2.1C368.9,423.2,426.5,415.7,443.9,444.2z"/>
	<path class="st0" d="M334,399.2c9.8-5.2,19.8-3.4,30.1-2.6C356.1,423.3,345.8,426,334,399.2z"/>
	<path class="st0" d="M377.9,398.3c11.2,1.4,21.9,1.4,32.8-0.4C403.5,424.7,385.7,425,377.9,398.3z"/>
	<path class="st0" d="M423.7,395.2c9.9-2.1,19.3-5.5,29.5-3.2C447.1,417.2,435.7,417.4,423.7,395.2z"/>
	<path class="st0" d="M426.6,307c0.1,6.3-9.7,6.2-9.7,0C416.8,300.5,426.8,300.7,426.6,307z"/>
	<path class="st0" d="M327,320.4c-6.3,0.1-6-10.1,0.3-9.7C333.6,310.9,333.3,320.5,327,320.4z"/>
</g>
</svg>
