<?xml version="1.0" encoding="utf-8"?>
<!-- Generator: Adobe Illustrator 26.0.0, SVG Export Plug-In . SVG Version: 6.00 Build 0)  -->
<svg version="1.1" id="Capa_1" xmlns="http://www.w3.org/2000/svg" xmlns:xlink="http://www.w3.org/1999/xlink" x="0px" y="0px"
	 viewBox="0 0 595.3 636.4" style="enable-background:new 0 0 595.3 636.4;" xml:space="preserve">
<style type="text/css">
	.st0{fill:#FFFFFF;}
</style>
<g>
	<path d="M594.4,148.3c-2.5-17.6-11.7-31.1-28.2-38.6c-23.4-10-54.5-19.3-76.4-1.5c-0.4,0.3-1.1,0.7-1.5,0.6
		c-4.4-1.5-8.7-3.1-13.2-4.8c3.1-4.6,5-9.7,5.7-15.1c1-3.3,0.7-20.6-5.7-15.7C462,85,446.7,70,431.6,71.9c-2.7-0.9-5.8-12-8.2-15
		C391,3.6,316.3-11.4,260.1,8.3c-42.8,15.5-60.1,43.5-72.6,84.2c-19.7,1.5-45.7,16.4-30.1,38.4c-12.6,6.4-22.8,14.7-25.5,29.7
		c-17.1-22.5-51.3-76.1-82.9-47.5c-17.6,16.9-36.7,50.2-30.8,75.2c4.3,13.7,15.5,1.3,24.1-1.1c14.3-6.5,27.3,2.3,34.3,15
		c3,4.6,7.4,6.3,12.5,4.3c8.9-3.9,15.1-14.8,26-8.8c4.7,2,7.8,6.8,12.8,8.2c1.7,1.4,1.9,5.9,2.9,8.3
		C55.9,197.2-14.8,253.5,2.7,332.3c3.8,20.5,12.2,46.7,35.2,51.4c-0.5,24.9,39.8,49,49.9,18c13.5,3.3,27.7-9.8,21.8-23.4
		c14.7,1.7,24.1-15.7,14.8-27.1c-0.5-0.6-1-1.6-0.8-2.2c2-7,0.6-13.5-2.3-19.9c-4.7-10.3-12.4-16.5-24.2-16.8
		c-0.6,0-1.5-0.7-1.9-1.3c-5.4-8.8-11.4-17.5-15.4-27.1c-7.2-25.6,44.5-22.1,59.3-19.4c-7.9,17.6-20,46.4,2.1,58.5
		c-8.2,17.1-16.8,46.1,6.6,55c-5.1,17.3-7.9,45.8,16.1,49.5c0.4,0.1,1,1,1.1,1.6c0.1,14.8,6.6,29,20.7,35.5
		c-18.4,17.1-35.1,35.6-52.9,53.4c-0.7,0.8-1.3,0.9-2.4,0.5c-21.2-8.6-27.9,5.4-30.7,24c-9.6,1-9.3,7.9-12.9,14.5
		c-10.1,7-9.6,17.1-16.9,25.3c-1.1,1.3-2.3,2.1-4,2.6c-7.3,2.1-12.5,6.6-14.7,14c-2.6,10.7-5.7,32.6,9.3,34.6
		c30.1,4.9,60.8,3.1,90.8-1.5c10.1-2.6,31.5-3.3,26.1-18.7c-1-2.8-1.3-4.8,0.7-7.5c5.3-8.2-0.8-27.8-1-38.1c-0.1-1,0.2-2.2,0.7-3
		c2.4-4.3,5.3-8.3,7.4-12.7c2.8-5.9,3.7-12-0.9-17.7c10.6-15.5,21.2-30.9,31.9-46.5c9.1,6,18.5,8.3,28.8,3.4
		c12.1,21.3,44.7,28.2,60.3,6.9c21.3,18.9,50.1,11.1,62.3-14.8c2.6,0.7,4.9,1.1,7.6,1.4c-0.4,15.6-1.9,30.8-7.5,45
		c-4.4-3.7-11.7-9.8-15.8-3c-3.1,5.4-1.8,12.1-2.5,18c1,18.2-10.2,36-5.1,54c0.2,0.4-0.2,1.1-0.4,1.6c-3.8,6.4-5.3,16.3,2.4,19.5
		c26.5,8,55,7.5,82.4,7.9c19.2-1.4,46.5,1.8,55.7-19.5c7-14.1-3-27.5-14.6-35.2c-3.1-2.3-6.6-3.8-10.7-3.1
		c-4.6-1.3-8.8-4.3-13.3-6.3c-0.4-0.2-0.8-0.7-1-1.1c-3.4-7.9-10.5-12.9-18.6-15.8c1-11.1,16.7-32.3-6.2-28.9
		c0.7-18.6-2.9-36.2-11.4-52.8c-0.9-3,2.1-8.1,2.7-11.4c22.8,2.9,32.1-21.4,30.8-40.5c25.9,3.2,27.7-29.3,24.7-47.7
		c28.1,2.6,23.1-39.4,16.5-56.2c16.9-4.6,16.5-25,13.2-38.8c-2.2-9.1-5.8-17.5-10.4-25.6c-0.9-1.6-0.5-2.4,1.3-2.6
		C539,242.6,603.3,206.9,594.4,148.3z M521.2,183.3c-7.8,9.8-20.4,11.9-31.8,14.7c-0.5,0.1-1.5-0.1-1.8-0.5
		c-2.9-4.8-5.6-9.6-8.4-14.4c11-10.1,7.4-23.7,1.5-35.3c2.1,0.2,5.3-1.2,6.7,0.4c4.8,7.4,11.8,12.2,19.6,15.9
		C515.6,168,531.5,171.4,521.2,183.3z"/>
	<path class="st0" d="M440.9,130.2c5.8,1.3,11.3,1.7,16.9,1.3c1.9-0.1,3.4,1.6,3.4,3.4c0.6,11.8,12.8,9.2,15.4,14.1
		c5.7,9.1,9.5,24.2-1.1,31.3c-1.8,1.2-2,2-0.7,3.9c9.8,15.2,26.7,41,8.1,55.8c-2.8,2.1-2.9,2.3-1.1,5.4c9,13.8,23.7,54.9-0.9,59.8
		c-2.4,0.2-2.9,1.4-2,3.7c5.1,13.6,8.3,29.3,3,43.4c-6.6,17.7-20.9,2.1-19.7,11c3.4,15.6,3.6,50-20.3,45.4c-3.5-0.8-4.2-0.2-4,3.5
		c1.9,16.4-6.7,42.1-27.4,36.8c-2.3-0.5-3.2,0.2-3.4,2.5c-1,18.8-21,34-39.3,27.2c-1.8-0.6-2.8-0.1-3.6,1.6
		c-8.9,23.4-38.6,32.7-56.9,13.5c-2-1.7-2.9-1.7-4.4,0.4c-13.2,20.6-44.8,13.9-54.7-6.5c-1-2-2-2.3-3.8-1.2
		c-17.4,10.1-36.3-7.5-40.9-23.9c-1-3.2-1.4-3.4-4.6-2.3c-19,6-31.3-16.9-29.8-33.2c0.1-3.1-0.2-3.5-3.3-3.7
		c-21.1-1.1-19.1-28.9-14.3-43.8c1-3.7,2-4.4-3.1-6.2c-17.1-6.1-12.2-28.2-6.8-41.2c1.2-3.1,2.7-6.1,4.1-9.1
		c0.8-1.8,0.5-2.8-1.2-3.5c-22.1-9.8-8.4-38.1-1.6-54.3c3.8,1.2,7.4,2.4,10.9,3.7c0.4,0.2,0.8,1.1,0.8,1.7c0.5,4.6,3.1,7.8,7.1,10
		c1.2,0.7,2.5,0.8,3.2-0.6c0.8-1.4,0-2.3-1.2-3.1c-11.6-6.7-0.3-20.5,5-27.9c2.2-2.8,2.1-3.5-1-5.2c-13.7-6.7-8.5-18.9-0.9-28.3
		c0.9-1.3,1.8-2.5,0.2-3.7c-1.5-1.1-2.6-0.1-3.4,1.1c-2.1,3-4.2,6.1-6.5,9.4c-5.1-1.9-10.6-4.2-15.9-5.5c-8-1.9-10.2-11.4-8-18.3
		c1.8-6.5,5.4-12.1,9.2-17.5c1.3-1.6,3.2-3.8,0.7-5.2c-16.5-10.8-1.7-33.7,12.6-39.7c2.6-1.8,9.6-2.7,5.6-6.8
		c-6.2-6.7-6.6-17.4,1-23.2c15.9-14.6,40.4-6.2,37.1-13.9c-1.5-6,0.8-9.9,6.8-11.6c13.4-3.9,19.2,4.8,34.5,0.6
		c43.5-7.9,88.7-5.5,131.1,7c-43.6,5.1-58.2,57-38.4,91.6c-5.9,4-19.2,7.8-14,17.1c5.7,8.7,15-0.6,21.3-3.8c1.3-0.8,1.9-0.6,2.9,0.5
		C394,249.1,470.8,198,440.9,130.2z M387,307.9c34.8,1.6,96.7-15.7,85.2-60.7c-6-24.9-31.1-28.2-53.6-24.5
		c-27.7,4.5-55.5-1.4-81.2-11.9c-7.8-3.1-15.6-6.2-24-7c-34-3.1-48.6,31.7-39.8,52.5C292.5,298.1,346.1,305,387,307.9z"/>
	<path class="st0" d="M346.2,191.1c6.9-8.4,1-16.8-9-13.4c-21.7-40.3,2.8-94,53.1-84.2c11.7,2.4,30.5,11.5,34.8,22.9
		c-0.2,0.1-0.3,0.2-0.5,0.3c-3.4-2.8-6.6-5.9-10.1-8.6c-6.6-5.4-13.9,4.6-6.6,9.2c5.9,4.1,10.6,9.3,14.5,15.3
		c3.9,6.1,12.6,1.2,10.1-5.5c10.7,5.6,12.8,39,8.3,49.9C429.5,218.4,377.7,224.8,346.2,191.1z M430.7,185.8
		c-0.6-5.3-6.5-8.2-10.4-3.8c-4.7,5.3-10.4,8.8-17.3,10.3c-1,0.2-2,0.8-2.7,1.4c-1.9,1.8-2.3,4.6-1.1,6.8
		C405.2,209.8,428.5,193.8,430.7,185.8z M441,158.5c-1.6-6.6,0.7-19.1-8.4-18.2c-3.4,0.7-5.2,3.6-4.4,7.5c1.4,6.9,1.4,13.8-0.4,20.6
		c-0.3,1.1-0.3,2.4,0,3.5c1.1,5.2,9.5,5.4,10.7,0.1C439.6,167.3,440.3,162.5,441,158.5z M386.8,98.5c-7.1,0.1-12.4,0.8-17.6,2.6
		c-7.5,2.5-3.8,13.4,3.6,10.8c12.9-5.6,25.2,3.6,27.4-5.5C401.9,98.7,390.8,99.2,386.8,98.5z M386.3,203.5c7.1,0.6,8.7-9.9,1.6-11.2
		c-6.9-1.5-13-4.6-18.5-9.1c-6.3-5.4-13.8,3.9-7.2,8.9C369.2,197.6,377.6,202.3,386.3,203.5z M340.2,152.3
		c0.8,8.3,3.6,16.7,8.4,24.4c4.1,7.2,14.3,0.8,9.7-6c-4-6.3-5.9-13.4-6.9-20.7C349.5,143.4,339.7,144.9,340.2,152.3z M357.2,111
		c-8.9-0.4-15.8,18.6-16.9,26c-0.6,3.4,1.3,6.2,4.5,6.8c3.3,0.6,6.1-1.3,6.8-4.7c1.1-7,4.2-13.4,8.9-18.7
		C363.7,117.4,361,111,357.2,111z"/>
	<path class="st0" d="M139.3,179c-4.8,6.7-9.3,13.9-10.7,23.1c-4.2-2.6-7.6-5.9-11.9-8.1c-10.7-5.9-19,1.5-27.3,7.8
		c-4.4,2.7-6.9,1.7-9.8-2.5c-7.9-13.7-22.5-22.7-38-16.1c-4.9,1.8-9.5,4.3-14.2,6.7c-2.6,1.3-3.8,1-4.9-1.7
		c-6.5-22.8,12.4-54.8,28-70.8c7.3-7.3,19.1-11.5,28.7-6C105.9,127.1,122,154.2,139.3,179z"/>
	<path class="st0" d="M193.6,91.7c1.8-7.9,2.4-17.2,8.3-23.2c37.2-32.9,139.1-22.9,183.6-6.7c16.4,7,35.1,14.7,45.2,29.9
		c1,5.3,1.6,10.6-4.1,13.9c-12.7-5.7-24.2-14.9-38.6-16.7c-50.5-16.9-103.8-20.7-156.1-10c-8.4-0.9-16.3-4.8-25-2.3
		c-7.3,1.3-11.7,6.3-11.7,13.9C195.1,91.3,195.2,92.2,193.6,91.7z"/>
	<path class="st0" d="M204,60.7c5.7-11.5,14.3-20.7,23.6-29.2c25.2-12.3,54.1-14.1,81.9-14.5c33.6,0.6,66.6,7.6,96.2,23.6
		c11.6,11.7,19.8,25.6,23.4,41.8C395.6,54,351,45.6,308.3,43.6C273,42.6,235,41.5,204,60.7z"/>
	<path class="st0" d="M447.3,581c-3.6,7.4-3.3,19.5-13.6,20c-27.1,1.7-54,0.6-80.8-3.1c-3.4-0.3-5.5-0.4-5.5-4.5
		c-0.7-13.9,3.7-27.2,6.3-40.7c0.6-6.4,0.2-12.9,0.4-19.4c0.5-4.5,3.2-7.7,7.3-3.8c4.3,3.9,5.8,9.6,7.3,15c0.4,1.8,1.4,2.5,3.2,2.3
		c8.9-0.9,17.8-0.3,26.7,0.8c16.4,1.5,16.8,18.2,21.3,16.3c3.4-1.7-1.3-4.3,0.3-6.6c1.6-2.2,2.8-4.8,5.7-5.7c3.8,0,17,9.2,14.7,13.6
		C433.1,578.6,433,573.6,447.3,581z"/>
	<path class="st0" d="M95.5,337.1c-8.5-1.4-16.1,2.3-14.7,12.5c1.7,7.3,3.3,6.8-2.7,12.5c-8.5-7.6-20.6,0.7-19,11.1
		c0.5,2.2-1.9,3.8-3.8,2.5c-4.5-3.9-10.6-1.5-14.2,2.4c-1.1,1.5-2.4,1.5-4,1.2c-14.7-3.5-22.1-18.8-26.5-32
		c3.2-18.4,16.7-31.6,33.1-39.5c12.2-5.4,31.2-9.6,43.2-2.8C92.8,314.3,98.7,325.9,95.5,337.1z"/>
	<path class="st0" d="M174,549.6c2.7-3.9,5.2-7.6,7.8-11.3c0.2,0,0.4,0,0.7,0c3.6,9.4-4,17.5-8.6,25.1c-0.6,1-1,2.4-0.9,3.6
		c1.6,11.8,4.8,23.8,2.3,35.7c-4,9.9-38,10-47.8,10c-3.5,0-4.5-1-5.5-4.2c-5.7-20.6-28.9-24.3-47.2-25.2c9-14,30.6-8.9,40,2.4
		c0.9,1.1,2,1.9,3.3,0.8c1.3-1.1,0.8-2.3-0.2-3.4c-9.1-11.4-23.9-13.9-37.4-10.8c7.4-20.4,29.5-18.8,46.5-8.4
		c-0.4,1.7-1.6,3.8,0.6,4.6c1.5,0.6,2.4-0.3,2.8-1.6c1.7-4.7,4.8-8.2,8.7-11.2c10.1-8.3,23.1-6.1,34.3-1.6c1.4,0.5,2.8,1.2,3.8-0.6
		C178.3,551.7,175.9,550.4,174,549.6z"/>
	<path class="st0" d="M487.5,135.7c3.7-0.2,7.4-1.8,10.9-1c9.5,4.5,19.5,5,29.6,3.3c3.2-0.5,6.4-1.4,9.4-2.6
		c8.4-2.7,8.6-15.3-0.8-17.4c-6.4-1.8-12.7-3.7-19-5.7c-9.4-3-14.1-7.3-23.8-2.1c21.8-16.2,53.7-4.9,75.8,5.6
		c5.2,2.9,6.2,7.4,6.7,12.4c1.7,15.2-5.6,26.9-20.6,33.1c-10.6,4.3-21.9,5.6-33.2,4.7C508.3,160.3,489.5,153.5,487.5,135.7z"/>
	<path class="st0" d="M172.5,610.6c1.1,4.1,3.8,10.1-1.7,12c-18.9,7-39.2,8.3-59.2,9.1C94.4,632.2,77,632.4,60,629
		c-3.2-0.5-5-2.4-5.6-5.8c-2.7-13.3-1.1-33.7,15.8-35c17.6-1.8,42.3,1.9,47.8,21.7c1.2,4.2,4.1,6.7,8.3,6.9
		C142.1,617.3,157.5,616.1,172.5,610.6z"/>
	<path class="st0" d="M420.7,623.6c-26.1-1.1-47.2-0.6-70.5-6.8c-4.9-1.4-6.1-4.2-4.9-9.2c1.1-4,2-6.8,6.6-5.7
		c28.3,3.9,57,5.5,85.5,2.8c5.4-1.3,8.1-5.3,9.5-10.3c1.9-7.2,5.2-14,10.9-18.9c3.4-3.6,7.9-0.4,11,1.9c14,10.2,19.4,22.8,6.7,37
		C461.1,625.4,436.7,622.6,420.7,623.6z"/>
	<path class="st0" d="M8.1,338.3C6.7,333,6.5,327.4,5.3,322c-1.1-5,0.4-9.4,2.8-13.7c12.8-25,43.8-31.7,68-18.5
		c3,1.7,4.3,5.7,6.2,8.4C48.7,295.3,23.5,307.5,8.1,338.3z"/>
	<path class="st0" d="M189.7,519.4c-6.4,9.3-12.5,18.2-18.7,27.2c-0.3,0.4-1.4,0.7-1.8,0.5c-13.3-5.5-26.4-13-33.6-25.9
		c7-7.2,14.3-14.7,21.8-22.3C166.3,508.6,177.4,514.8,189.7,519.4z"/>
	<path class="st0" d="M105.2,258.7c4.3-15.2,1.8-29.4-7.1-42.7c6.1-0.6,26.4-0.8,30.3,3.4c6.1,12.1,4.8,26.6,2,39.3
		C122.1,258.7,113.8,258.7,105.2,258.7z"/>
	<path class="st0" d="M208.9,491.4c-5.3,7.8-10.5,15.4-15.8,23.1c-2.8,4.7-30.5-14.1-32.8-18.6c7.1-7.2,14-14.4,21.1-21.6
		C189.6,481.6,198.9,486.9,208.9,491.4z"/>
	<path class="st0" d="M128.5,559.8c-7.4-4-15.4-7.4-24.4-8c-1.2-14.6,3.1-39.3,24-29.9c6.6,2.6,9.3,8.3,10.2,14.8
		c0.6,4.3,0.4,8.6,0.4,12.9c0,0.5-0.3,1.1-0.7,1.5C135,554,131.9,556.8,128.5,559.8z"/>
	<path class="st0" d="M4.2,304.9c1-6.5,1.3-13.3,3.3-19.5c12.7-30.6,52.7-29,67.5-1.2c-28.6-10.6-52.5-5.6-70,20.7
		C4.7,304.9,4.4,304.9,4.2,304.9z"/>
	<path class="st0" d="M414.6,495.4c1.5,7.8,1.7,15.7,1.1,23.5c-1.7,2.9-6,4.5-8.6,6.6c-0.4,0.3-1.1,0.4-1.5,0.3
		c-9.9-3-20.1-4.2-30.4-5.1c1.4-6.2,2.3-12.5,3.3-18.8C381.7,496.6,408,494.5,414.6,495.4z"/>
	<path class="st0" d="M80.6,365.5c1.6-1.7,3.1-3.3,4-4.3c5.4,4.8,10.4,9.8,16.6,13.6c13.6,9.4-0.7,28.4-14.9,22.1
		c-10.9-2.5-33.7-24.9-17.7-33.4c7.3-3.5,13.2,16.7,30.5,18.7c0.7-0.3,1.7-0.9,1.9-1.6c0-1-1-2.7-2.3-2.7
		C91.1,376.1,85.4,371.5,80.6,365.5z"/>
	<path class="st0" d="M476.5,77.5c1.7,8.5-0.1,17.2-5,24.4c-0.7,1.1-1.6,1.4-2.9,1.6c-2.9,0.3-5.8,2-8.8,1.8c-8-2.1-15.5-7-23.9-5.6
		c-1.2-7.9-2.4-15.6-3.6-23.8c7.5,0.6,15.1,2.2,22.3,4.8C462.5,83.7,469.6,82.2,476.5,77.5z"/>
	<path class="st0" d="M392.4,29.4C343.7,9.9,294,8.5,242.9,20.8C289.5-5,349-0.4,392.4,29.4z"/>
	<path class="st0" d="M155.4,264.8c-7.1-1.9-13.9-3.6-20.3-5.3c1.2-13.6,3.9-27.2-2-40.4c8.1,1.9,15.5,4.4,23,7.5
		c-2.7,9.4,1,16,9.1,20.8C161.2,252.9,157.3,258.3,155.4,264.8z"/>
	<path class="st0" d="M89.4,262c-1.1-17.5-9.4-30.5-24.4-39.3c0-0.2,0.1-0.4,0.1-0.6c4.8-0.8,26.6-8.4,29-4.8
		c8.7,12.5,11.3,26,7,40.7c-0.3,1.1-0.8,1.8-2,1.9C95.7,260.5,92.9,261.2,89.4,262z"/>
	<path class="st0" d="M78.3,268.9c-5.4-19.4-26-33.5-45.9-26.6c-0.1-0.2-0.2-0.4-0.3-0.7c8.1-6.6,16.8-12.1,26.3-16.4
		c0.6-0.3,1.7-0.3,2.3,0c15,7,23.4,21.2,24.5,37.5C85,265.3,80.2,267,78.3,268.9z"/>
	<path class="st0" d="M100.1,342.6c8.8-2.4,16.4,5.5,21.4,11.7c7.4,9.2-3.1,24-14,18.9c-9.9-4.7-23.3-14.9-22.6-27
		c0.2-5.4,7.7-7.3,10.8-3.1c6,7.6,13.3,13.6,22.7,16.5c2.9,1,5-2.6,1.3-3.9C111.9,353.5,105.8,348.2,100.1,342.6z"/>
	<path class="st0" d="M68.5,412.4c-11.6-2-21.1-10.2-25.2-21.2c-4.1-8.2,5.8-19.4,12-9.4c5.5,10,16.4,12,25.5,17.3
		c3.3,1.7,3.5,2.2,1.6,5.6C79.8,409.2,74.3,412.2,68.5,412.4z"/>
	<path class="st0" d="M580.5,125.7c3.3,4,5.7,8.3,7.2,13c3.6,10.7,3.8,8.2-1.9,17.8c-10.8,20.8-38.4,24.2-57.9,14.5
		C555.5,170.8,584.9,157.9,580.5,125.7z"/>
	<path class="st0" d="M75.2,276.6c-16.5-20.8-44.2-24.5-62.8-6.2c2.1-5.4,5.6-10.1,8.3-15.3c2.5-4.5,6.8-6.6,11.3-8.3
		C51.4,238.4,74.7,255.6,75.2,276.6z"/>
	<path class="st0" d="M518.1,135.1c-10.2-0.8-29.7-3.6-23.2-18.4c1.1-3,3.5-4.4,6.7-4.6c3.7-0.2,7.2,0.8,10.4,2.4
		c7.3,3.4,15,5.9,22.9,7.5c5.6,1,6.4,6.9,1.4,9.4C530.7,134.2,524.2,133.9,518.1,135.1z"/>
	<path class="st0" d="M588.3,177.3c-5.6,32.2-58.1,44.4-60.7,4.9c0.2-0.2,0.5-0.3,0.7-0.5C544.6,204.4,572.1,194.9,588.3,177.3z"/>
	<path class="st0" d="M491.4,114c-1.8,5.7-3.7,11.3,1.5,16.8c-11.3,1.9-37.9,0.7-32.7-16.5C464.5,100.2,481.9,112.1,491.4,114z"/>
	<path class="st0" d="M539.3,227.2c-6,2.7-11.9,4.3-18,6.2c-0.7,0.2-2-0.1-2.6-0.6c-8.6-8.6-13.5-18.9-12.3-31.4
		c-0.3-5.3,6.2-5.3,9.7-7.9C516.9,209.2,525.7,219.7,539.3,227.2z"/>
	<path class="st0" d="M529.3,176.5c24.8,8.1,48.3,3.2,61.8-20c0.3,5.9-0.1,11.5-4.5,16C572.5,191,543.1,200.1,529.3,176.5z"/>
	<path class="st0" d="M457.6,109.1c-2.4,6.2-4.2,12.1,0.8,18.5c-12.4,1.2-38-3.9-26.9-21C438.6,99.5,449.8,106.8,457.6,109.1z"/>
	<path class="st0" d="M568,208c-5.8,5.8-12.4,10.5-19.5,14.5c-2.9,2.4-5.7,1.9-8.8,0.1c-9.7-5.5-16.7-13.1-19-24.3
		c-0.4-4-1.6-8.9,2.8-11.2C526.8,207.7,550.4,216.8,568,208z"/>
	<path class="st0" d="M417,554c-3.6-5-8.4-8.5-14.7-10.1c2-7.1,4.6-13.8,11.1-17.9c3.5-1.9,15.9-8.8,15.1-0.2
		c-2.1,7.3-6.4,14-6.4,21.9C421.4,550.2,418.7,551.8,417,554z"/>
	<path class="st0" d="M403.4,529.6c-1.9,4.6-3.7,9-5.6,13.6c-7.6-1-15.7-0.9-23.5-0.8c-1.4,0-1.8-0.4-2.3-1.7
		c-1.8-3.9-1.6-7.4,0.3-11.3c2.1-4.3,1.8-4.4,6.7-4.1C387.3,525.9,395.5,527.4,403.4,529.6z"/>
	<path class="st0" d="M413.8,491c-11.9-0.2-23.3,1.4-34.2,4.8c0-3.6,0-7.1,0-10.6c0-0.3,0.6-0.9,1-0.9c10.9-1.3,18.8-7.2,25.4-15.5
		C409.4,475.8,412,483.1,413.8,491z"/>
	<path class="st0" d="M490.1,202.3c4.2-1,8.1-1.9,12.3-2.9c-1.8,13.6,3.2,25.7,12.8,35.7c-8.2,1.1-15.9,2.1-23.5,3
		c-0.1-0.2-0.2-0.3-0.3-0.5C498.6,225.7,494.9,214.1,490.1,202.3z"/>
	<path class="st0" d="M99.8,337c1.6-6.6,0.5-13.5-2.1-20.4c14.9,0.1,23.8,15.7,22.4,29.3c-3.3-2.1-6.2-4.6-9.5-6.1
		C107.3,338.4,103.6,338,99.8,337z"/>
	<path class="st0" d="M184,470.9c5.9-6,6.5-5.5,14.5-6c0.5,0,1.5,0.3,1.6,0.7c2.7,7.6,7,14,13,19.5c-0.6,0.9-1.2,1.8-1.8,2.8
		C201.5,483.6,192.4,478.5,184,470.9z"/>
	<path class="st0" d="M345.5,184.6c-3.1,5-12.2,8.1-17.2,11.5c-4.2,2.6-7.8-3.8-3.4-6.1c4.8-2.8,9.7-5.7,14.6-8.4
		C342.2,180,345.1,181.5,345.5,184.6z"/>
	<path class="st0" d="M483.1,136.2c0.5,2,1.1,4.5,1.8,7.1c-7.2,0.4-21.2-0.6-19.4-10.5C471.3,133.9,477,135,483.1,136.2z"/>
	<path class="st0" d="M410.6,110.6c4.4,2,19.6,15.5,17.5,20.3c-0.9,0.9-1.8,0.1-2.4-0.8c-4.1-6.5-9.3-11.8-15.5-16.3
		c-1.1-0.9-1.2-2.5-0.4-3.7C410.1,110.3,410.3,110.5,410.6,110.6z"/>
	<path class="st0" d="M444.5,567.6c3.3,1.6,6.6,3.3,10.1,5c-6.2,7.4-4.3,4.5-13.5,0.9C442.2,571.5,443.3,569.6,444.5,567.6z"/>
	<path class="st0" d="M143,536.9c4.1,2.9,8.3,5.7,12.3,8.5c-3.9,0.8-8,1.7-12.3,2.6C143,544.4,143,540.6,143,536.9z"/>
	<path class="st0" d="M99.6,546.9c1.4,5.8-2,5-6.4,6.3C93.9,549.6,96.3,547.2,99.6,546.9z"/>
	<path class="st0" d="M58.8,380.1c0.8-0.7,0.9-0.6,1.8-0.9c1.1,2,2.3,4,3.4,5.9c-0.1,0.1-0.2,0.2-0.3,0.3
		C62.1,383.7,60.5,382,58.8,380.1z"/>
	<path class="st0" d="M388.7,303.8c-38.9-2.4-91.8-8.6-111-48.3c-7.8-17.8,3.6-42.5,22.5-46.7c18.2-4.5,34.5,6.1,51.3,11.3
		c14.1,4.6,28.6,7.5,43.5,8.4c16.4,0.8,32.5-4.7,49-2.3c26.4,3.4,34.9,40.6,13.4,56.3C438.2,298.8,413.7,303.9,388.7,303.8z
		 M393.8,269.1c15.9-0.3,33.8-2.8,48.7-9.3c1.4-0.6,2.3-1.4,1.7-3c-0.9-3.4-9.1,2-11.6,2.2c-38.4,11.7-80.6,5.2-116.6-11.4
		c-2.8-0.9-6.3-4.7-8.9-2.2c-0.3,0.6,0.2,1.9,0.7,2.6C334.1,262.2,362.7,268.6,393.8,269.1z"/>
	<path class="st0" d="M404,199.4c-0.4-0.4-1.4-1-1.3-1.4c0.2-0.7,0.9-1.6,1.6-1.8c4.1-1,8.1-2.4,11.5-4.9c2.5-1.8,4.8-4,7.1-6.1
		c1.9-2.5,4.7-0.2,2.4,2C419.6,193.7,412.5,197.9,404,199.4z"/>
	<path class="st0" d="M436.8,158c-0.6,3.8-1.2,7.8-1.9,11.9c-0.2,1.1-0.7,2.1-2.1,1.8c-1.4-0.4-1.2-1.5-0.9-2.6
		c1.9-7.2,1.8-14.4,0.4-21.6c-0.5-1.2,0.6-2,1.1-3c0.6,0.5,1.6,0.9,1.7,1.5C435.8,149.8,436.3,153.7,436.8,158z"/>
	<path class="st0" d="M385.2,102.5c2.1,0.7,11.8,0,10.8,3.1c-0.3,1.5-1.6,1.2-2.7,1c-7.3-1.3-14.5-1.1-21.7,1.2
		c-0.6,0.2-1.6-0.5-2.4-0.8C370.9,102.9,381.1,102.9,385.2,102.5z"/>
	<path class="st0" d="M387,199.6c-8.3-1.7-15.5-5.2-21.9-10.5c-0.9-0.7-1.8-1.6-0.8-2.7c0.9-1.1,1.8-0.4,2.7,0.3
		c5.8,4.7,12.2,8,19.5,9.6c0.7,0.2,1.5,1.1,1.8,1.8C388.4,198.3,387.3,199.1,387,199.6z"/>
	<path class="st0" d="M346.2,149.8c0.3,0.6,1,1.2,1.1,1.9c1,7.6,3.4,14.7,7.4,21.3c0.3,0.5-0.2,1.5-0.3,2.3c-0.8-0.3-2-0.3-2.2-0.9
		c-4.3-6.7-6.4-14.2-7.9-22C344.1,151.4,344.2,150.2,346.2,149.8z"/>
	<path class="st0" d="M343.9,138c1.3-3.9,2.2-7.7,3.9-11.2c1.9-3.8,4.5-7.2,6.8-10.7c0.6-0.9,1.5-1.6,2.6-0.6c1,0.9,0.5,1.8-0.2,2.6
		c-5,5.7-8.1,12.3-9.5,19.8c-0.1,0.7-1.1,1.5-1.8,1.8C345.4,139.7,344.7,138.7,343.9,138z"/>
</g>
</svg>
