<?xml version="1.0" encoding="utf-8"?>
<!-- Generator: Adobe Illustrator 26.0.0, SVG Export Plug-In . SVG Version: 6.00 Build 0)  -->
<svg version="1.1" id="Capa_1" xmlns="http://www.w3.org/2000/svg" xmlns:xlink="http://www.w3.org/1999/xlink" x="0px" y="0px"
	 viewBox="0 0 595.3 561.3" style="enable-background:new 0 0 595.3 561.3;" xml:space="preserve">
<style type="text/css">
	.st0{fill:#FFFFFF;}
</style>
<g>
	<path d="M361,439.2c-5.4,9.3-17.7,15.8-27.2,8.4c-4.6,16-25,22.7-37.7,11.7c-11.3,11.3-28.3,11.7-36.2-3.5
		c-11.2,12.4-27.4,2.7-33.4-9.9c-1.2,13.4-0.4,26.1,1.5,39c4.2-0.4,9.5,1.6,10.3,6c1.3,11.3,1.3,22.7,2.3,34
		c0.9,8,3.3,15.8,3.5,23.9c-0.3,3-1.9,6.6-5.5,7c-26.4,3.6-54.1,7.8-80.4,2.3c-11.4-3.8-5.9-21-3-29.3c1.7-3.8,4.6-7,6.1-10.9
		c1.5-4.2,2.7-8.5,4.5-12.5c1.1-2.4,3-4.5,4.7-6.6c2.9-3.2-1.7-11.2,7.6-14.8c-0.9-3.6-0.4-6.7,3.1-8.6c0.6-0.4,1.3-1.1,1.4-1.8
		c2.4-16.4,7.1-32.4,13.4-47.7c-16.2,2.7-12.6-8.9-19-8.9c-8.2,0.2-16.5,0.3-24.8,0.6C108.4,448.9,67,485,23.9,517.8
		c-1.9,1.5-2.4,1.5-4-0.2c-1.7-2.5-6.1-4.5-5.6-7.9c7.4-38.2,14.8-76.5,22.2-114.8c0.4-1.9,1-3.3,2.6-4.5
		c29.7-22.3,59.3-44.7,89-67.1c3.5-26.1,0-54.9,1-81.9c-28.5-6.5-60.9,12.5-67.9,50.8c10.6,3.6,16.7,15.3,16,25.1
		c-0.4,7-7.2,9.3-13,11c-0.3,8.8-4.8,13.5-10.5,19.5c-11.4,11.4-25.5,6.4-37.7-0.7c-9.6-5.2-11.7-13.6-12-23.8
		c-3.4-3.9-4.2-8.7-3.8-13.6C3,243.5,58.4,178.5,128.9,193.7c0.1-62.9-0.3-125.8-0.4-188.7c0-4.4,0-4.4,4.3-4.3
		c35,0.8,70,1.6,105,2.4c1.2,0,2.1,0,2.2-1.5c0.1-1.4,1.2-1.6,2.4-1.6c7.3,0.1,14.7,0.1,22,0.2c9.2,0.1,18.4,0.1,27.7,0.3
		c1.5,0,3.1,0.4,4.3,1.2c3.2,1.8,6.4,2.9,10.2,3c32.7,1.1,65.8,0.2,98.4,2.7c23.8,8.3,47.6,16.6,71.4,24.9c2.3,0.8,2.4,1,2.3,3.5
		c-2.9,49.6-6.1,99.2-8.9,148.8c68.1-14.2,121.2,46.6,125.2,110.6c0.4,3.3-0.1,6.6-1.3,9.7c0.9,12.2-1.5,24.5-12.8,30
		c-5.2,2.8-10.9,3.1-16.6,2.4c-9.2,0.9-17.5-0.1-22.7-8.8c-4.9-3.7-9.3-4-11.1-11.3c-0.1-0.4-0.6-0.8-1-0.9
		c-6.3-1.7-10.7-7-11.3-13.6c-1.1-11.4,3.5-20,12.6-26.5c1.4-1,1.3-1.8,0.8-3.1c-7.8-27.2-35.3-46.5-63.6-40.5
		c-1,0.2-1.4,0.6-1.5,1.6c-2.8,45.7-5.5,91.3-8.3,137c-0.1,1.3,0.3,2.1,1.3,2.8c8.5,5.9,17.1,11.6,25.4,17.8
		c25.6,31,48.4,64.8,73,96.8c1.4,1.9,1.4,2.2-0.2,3.9c-1.8,2-3.6,3.9-5.5,5.9c-1.5,1.6-1.9,1.6-3.6,0.3
		c-35.3-28.7-70.5-57.4-105.9-86c-16.4-2.1-33.9,0.6-50.6,0.1c-1.1,0-1.8,0.4-2.4,1.2c-1.5,2-3.2,4-4.8,6.1
		c13.5,11.6,24.3,25.2,31.5,41.3c21-3.6,19.7,3.8,21,21.6c9.4-0.3,6.4,6.2,12.4,9.7c7.7,4.6,11.7,12.8,14.6,21
		c0.2,0.5,0.5,1.1,0.9,1.3c12.6,6.8,20.5,23.6,17.2,37.5c-1.3,4.1-4.3,6.4-8.6,6.6c-29.7,1.1-59.8,4.4-89.3-0.1
		c-11.1-0.9-9.1-12.1-8.1-20.2c2.7-16.4-0.2-32.9-0.4-49.4c-0.3-4.6,4-4.2,3.5-7C377.2,466.6,371,451.9,361,439.2z"/>
	<path class="st0" d="M141.3,414.3c0.5-127.3,1-254.4,1.5-381.6c43.4,0.4,86.6,0.9,129.7,1.3c0.1,12.4-1.1,24.6-1.7,37
		c-0.1,2.5,0.3,3,2.7,2.9c14.7-0.7,29.3-1.3,44-2.1c4.4-0.8,5.3,3.7,7.7,6.4c1.5,2.1,2.2,2.2,4,0.4c1.6-1.6,3.1-3.3,4.8-5
		c1.4,2,2.9,6.9,5.6,3.8c4.5-4.7,4.4-4.7,4.7-11.2c0.5-10.5,0.6-20.9,1.3-31.4c43.2,0.4,86.3,0.9,129.6,1.3
		c-7.3,123.1-15,246.2-22.4,369.3c-0.2,3.5,0.2,2.9-3,2.9C347,410.2,244.2,412.5,141.3,414.3z M304,283.1
		c31.2,0.2,58.3-17.2,72.2-44.6c1.5-2.4-1-4.3-3-2.3c-45.9,41.1-102.4,33-148.8-2.6c-2-2-4.8,0.3-2.8,2.5
		C240.2,265.1,269.4,282.6,304,283.1z M256.5,180.6c0.9,65.4,97,64.6,98.8,0.8C354.2,115.8,257.7,116,256.5,180.6z M331,320.4
		c-0.3-7.4,2.5-19.5-8.3-19.4c-7.4,0-14.8,0-22.2,0c-5.4,0-8.7,3.2-8.9,8.6c-0.2,7.8-0.4,15.7-0.6,23.5c-0.1,5.2,3.3,8.8,8.5,8.8
		c17.2-0.2,34.5-0.5,51.7-0.8c7.1-0.2,8.7-7.3,8.2-13.1c0-4.8-3.2-7.9-8-7.8C344.7,320.3,337.8,320.4,331,320.4z M272.1,320.8
		c-0.6-11.4,3-21.1-13.1-19.8c-5.3,0-8.7,3.4-8.8,8.7c-0.1,7.9,0,15.8-0.4,23.7c-0.2,6.1,4.4,9.2,9.1,9.2c6.7-0.1,13.3-0.2,20-0.3
		c4.6-0.1,8.1-3.6,8.3-8.3C288.4,321.6,283.2,320.2,272.1,320.8z M221.8,322.1c-0.1,0-0.1,0-0.2,0c0.1,13-2.9,22.8,14.7,20.6
		c4.1-0.4,7.3-3.7,7.4-7.8c0.2-8.6,0.4-17.2,0.4-25.8c-0.1-7.7-8-8.7-14-8C219,301.6,222.2,314.5,221.8,322.1z M363.5,321.1
		c-0.2,0-0.3,0-0.5,0c0,3.9,0,7.8,0,11.8c-0.2,6.9,6.3,8.6,12,7.8c4.6-0.2,7.9-3.4,8.1-8c0.2-4.1,0.4-8.3,0.6-12.4
		c0.1-6.9,3.2-19-7.3-19.1C361.4,299.5,364.3,310.4,363.5,321.1z"/>
	<path class="st0" d="M129.6,326.5c2.8,29.3,5.2,57.7,8,86.8c0.2,1.5-0.3,2.4-1.4,3.3c-39.3,29.9-78.3,60.1-117.6,90
		c7.1-37.1,14.3-74,21.5-111.1C67.8,370.7,100.2,349.9,129.6,326.5z"/>
	<path class="st0" d="M183.4,417c67.7-1.4,135.2-2.7,202.7-4.1c-1.9,4.1-6.1,7.6-9.9,10.2c-4.2,2.5-7.5,2.1-11.3-1
		c-1.8-1.4-3.3-0.6-3.3,1.6c1.2,13.4-15.2,31.9-27.4,19.4c-1.3-1.3-3.1-1.1-3.4,0.9c-0.9,12-17.1,23.6-31.5,13.2
		c-3.6-2.6-3.5-2.4-7,0.4c-9.9,9.2-23,9-29.4-3.9c-4.4-11.2-7.7,15.5-26.9-1c-11.4-9.9-7.5-25.2-13.2-20.5
		c-8.2,9.4-18.2-0.6-21.6-9.2c-0.7-2.3-2.1-4.2-4.3-2C191.6,424.7,186.2,423.1,183.4,417z"/>
	<path class="st0" d="M133,4.5c37.4,0.9,75.5-0.1,112.5,3.1c8.8,6.6,17.6,13.2,26.3,19.8c0.9,0.5,0.9,1.7,1.1,2.5
		c0,0.2-1,0.5-1.5,0.5c-42.1-0.4-84.2-0.8-126.3-1.2c-2.8,0-2.8,0-3.7-2.5C138.6,19.3,135.7,12,133,4.5z"/>
	<path class="st0" d="M379.7,543c12.7,1.8,25.3,1,38,0.7c1.6,0,2.2-0.9,2.5-2.4c0.8-5.2,2.5-10.1,5.6-14.3
		c7-9.8,19.3-11.3,30.5-10.8c15.9,1,25.7,20.2,23.4,34.7c-0.8,3-2.9,4.8-6,4.9c-28.6,0.6-57.2,3.5-85.7,0.4c-4.2-0.8-8.6-1-8.4-6.3
		C379.5,547.5,379.2,545.2,379.7,543z"/>
	<path class="st0" d="M342.1,31.4c-0.1,12.5-1,24.9-1.2,37.3c-0.1,2.2-1.1,3.4-2.6,4.8c-1.3-1.8-2.6-6.6-5.3-3.8
		c-1.9,1.9-3.4,3.6-5.4,5.7c-2.3-2.4-3.2-7.2-6.9-7.1c-15.4,0.6-30.7,1.6-46.2,1.9c0.7-13.5,1.4-27.1,2.2-40.8
		C298.4,30.1,320.2,30.7,342.1,31.4z"/>
	<path class="st0" d="M460.9,513.6c-3.3-2.9-4.6-7.1-8.9-7.8c-9.9-1.6-18.8,1-27.2,6.2c-1.3,1-4.4,2-3.1,4.1c0.7,1.1,1.6,1,2.7,0.4
		c7.9-4.8,16.4-9,26-7.5c2.2,0.2,3.4,1.4,4.6,3.3c-19.3,0-33.2,6.4-37.7,26.5c-0.4,1.1-0.7,1.6-1.9,1.7c-11.3,1.1-22.6,0.6-33.9-0.8
		c-0.9-0.1-1.3-0.4-1.1-1.4c1.7-10.6,1-21.2,0.4-31.9c-0.3-5.5-0.6-10.9-0.9-16.4c0.5-5.5,10-4.9,14-4.5c6.9,0.8,14.7,4.6,16.3,11.9
		c0.6,2.4,1.3,2.7,3.5,1.7c10.9-4.7,23.5-7.7,34.9-3.3C454.5,500.1,459.1,506.3,460.9,513.6z"/>
	<path class="st0" d="M239.6,539.9c1,4.1,3.1,11.8-2.7,12.7c-25.6,3.3-52.7,7.7-78.1,2c-7.5-2.2-2.7-16.9-1.3-22.4
		c5.2-18.1,27.2-18.2,42.3-14.4c10.6,2.7,16.9,10.8,19.1,21.2C219.6,543.5,236.1,540.5,239.6,539.9z"/>
	<path class="st0" d="M308.8,8.2c30.5,0.2,61.1,1.2,91.6,1.9c2.9,0.1,5.9,1.2,8.7,2.2c18.7,6.9,38.2,12.6,56.4,20.1
		c-39.8-0.4-79.7-0.8-119.5-1.2c-0.7-2.8-0.7-2.8-3.3-4.3C331.4,20.6,320.1,14.6,308.8,8.2z"/>
	<path class="st0" d="M547.3,480.4c-28.9-22.6-57.7-45.2-86.6-67.8c-4.7-3.6-4.6-3.6-4.2-9.5c0.6-8.5,1.1-17,1.6-25.9
		c8.7,5.6,17,11.7,25.4,17.6c22,27.8,42.7,57,64,85.4C547.5,480.3,547.4,480.4,547.3,480.4z"/>
	<path class="st0" d="M50,309.3c-2.8,3.4-6.2,5.9-10.1,8c-0.5-0.9-1-1.6-1.4-2.4c-2.5-6-10.5-5.2-14.9-1.9c-2.7,2.1-3.4,4.9-3,8.2
		c0.3,2.6,0.2,2.7-2.3,2.8c-2.4,0-4.9,0-7.3-0.5c-14.1-2.9-4.1-32.4-2.4-42.2c0.3-1.2,0.9-1.6,2.1-1.7c16.2-1.4,31.8,0.9,46.5,8.2
		c2.2,1.1,0.5,2.4,0.7,3.8C45.5,289.5,42.4,301.3,50,309.3z"/>
	<path class="st0" d="M585.5,304.9c-3.1-5.1-7.7-4.2-12.7-2.8c1.7-10.7-14.3-15.6-18-4.7c-0.6,1.9-1,3.8-1.6,5.9
		c-3.3-1.7-5.9-3.9-8.2-6.5c-3.7-4.2-3.6-4.2-1.3-9.2c2.3-4.8,2.9-10.3-2.4-13.7c13.7-6.4,27.9-9.5,42.9-8.9c1,0,1.5,0.3,1.8,1.3
		c2.8,11.7,7,24,4.9,36.1C590.1,304.5,587.4,304.1,585.5,304.9z"/>
	<path class="st0" d="M165.3,516.2c2.3-5.7,3.3-12.1,9-15.9c11.8-5.9,27.2-4.3,39.4-0.2c2.3,0.3,7.9,5,9.2,2.4
		c1.1-2.2-1.7-2.7-3.2-3.7c1.5-4.1,3.3-7.9,7.5-9.9c3.6-1.7,7.5,0.5,7.9,4.4c0.6,14,1.8,28,3.4,42c0.1,0.9,0,1.4-1,1.5
		c-4.8,0.3-9.5,0.7-14.3,0.9c-0.4,0-1.1-0.6-1.2-1c-1.8-6.3-4.7-11.8-9.7-16.3c0.7-2.3,5.5-6.6,2-8.1c-15.6-6.6-36.1-10.2-48.5,4.3
		C165.6,516.4,165.5,516.3,165.3,516.2z"/>
	<path class="st0" d="M336,27.3c-20.3-0.4-41.3,0.2-61.3-2.1C265.2,18,255.5,11,246.2,3.7C303.3,3.4,286.5,0,336,27.3z"/>
	<path class="st0" d="M132.5,13.1c3.6,9.3,7.7,18.3,6.9,28.5c-0.8,54.4,0.1,109.1-1,163.4c-1.4-3.4-0.3-9.5-5-10.3
		c-0.3,0-0.8-1.1-0.8-1.7c-0.2-60-0.3-119.9-0.4-179.9C132.2,13.2,132.3,13.1,132.5,13.1z"/>
	<path class="st0" d="M584.4,261.6c-17.4-0.5-33.7,3-48.7,11.6c-1.9-4.6-3.7-9-5.7-13.8c12.6-9.2,26.2-17.7,41-23.1
		C574.5,233.3,583.5,258.4,584.4,261.6z"/>
	<path class="st0" d="M64.4,270.9c-1.8,4.7-3.5,9.1-5.4,13.8c-15.3-7.7-31.7-10.1-49.1-8.6c3-9,6.5-16.9,10.6-25.3
		c0.4-0.8,0.8-1.2,1.8-0.9C37.5,254.7,51.5,261.8,64.4,270.9z"/>
	<path class="st0" d="M101.5,238.8c-3.9,1.8-7.7,3.5-11.5,5.2c-5.1-1.9-11.7-13-14.6-17.9c-1.3-2.6-10.5-20.7-7.3-21.6
		c8.7-4,17.9-7.2,27.4-8.1C91.2,211.4,92.1,225.7,101.5,238.8z"/>
	<path class="st0" d="M529.3,195.2c8,3.8,15.1,8.6,21.8,14.3c-8.9,12.6-18.9,24.3-31.6,33.2c-1.3,0.9-2,0.8-3.1-0.2
		c-2.7-2.3-5.6-4.4-8.6-6.7C518.7,224.5,525.1,210.5,529.3,195.2z"/>
	<path class="st0" d="M63.8,206.7c4.6,15,11.2,28.5,22.3,39.4c-3.4,2.8-6.7,5.6-10.1,8.4c-13.4-8.2-24.1-19.5-33.6-32.3
		C48.8,216.1,55.8,211,63.8,206.7z"/>
	<path class="st0" d="M526.4,193.9c-4.8,14.3-10.1,28.3-20.8,39.2c-0.9,0.9-1.5,1-2.6,0.5c-3.4-1.5-7-2.7-10.6-4.2
		c8.6-12.5,9.8-28.5,4.9-42.9C507.4,187.4,516.8,189.7,526.4,193.9z"/>
	<path class="st0" d="M66.1,267.9c-13.2-9.3-27.4-16.5-43-21.3c4.8-8,10.2-15.2,16.8-21.8c9.6,12.7,20.3,24,33.8,32.4
		C71.1,260.7,68.7,264.2,66.1,267.9z"/>
	<path class="st0" d="M528.3,256.5c-2.6-3.4-5.1-6.8-7.7-10.3c13.2-9.1,23.8-21,33.1-34.4c6.7,6.2,12.3,13.1,17.2,20.8
		C555.3,238.4,541.2,246.5,528.3,256.5z"/>
	<path class="st0" d="M41.8,320.7c2.1-1.2,8.5-7.7,10-6.9c13,7.1,11.4,29.3-5.9,30.4c-13.8,1.9-22.2-12.6-21.9-25
		c0-1.2,0.8-2.8,1.8-3.4c13.6-7.8,8.7,10.8,22.3,14.9c2.9,1.4,4.3-2.7,1.1-3.3C45.5,326.4,43.4,323.7,41.8,320.7z"/>
	<path class="st0" d="M126.2,196.8c-12.3,9.2-15.6,26.3-8.8,39.6c-3.9,0.5-7.7,1.1-11.4,1.5c-0.5,0.1-1.2-0.6-1.5-1.1
		c-9.2-11.5-9.2-26.2-5.4-39.8C101.3,193.2,121.1,196,126.2,196.8z"/>
	<path class="st0" d="M199,428c7.4,8.6,12.6,15.9,24.3,8.5c0.6,8.5-0.8,16.8-1,25.3c-11.1,1.7-21.7,1-31.2-5.6
		c-0.9-0.6-1.2-1.2-0.8-2.2C193.2,445.3,195.9,436.5,199,428z"/>
	<path class="st0" d="M476.6,228.3c5.1-12.8,3.9-26.7-6.3-36.5c-0.9-1-1-2-0.6-2.9c1.6-2,23.2-4.2,24.2-1.5
		c4.7,14.1,4.1,27.6-4.4,40.3c-0.7,1-1.3,1.4-2.6,1.2C483.4,228.2,480.1,228.2,476.6,228.3z"/>
	<path class="st0" d="M413,462c-11.1,3.7-20.9,9.5-30.2,16.8c-1.9-7.1-4.5-13.9-6.7-20.9c-0.3-0.8-0.6-1.4,0.2-2.1
		c6.5-6.2,13.7-11.2,22.5-13.8c1.6-0.5,2.5-0.2,3.3,1.2C405.6,449.6,409.9,455.5,413,462z"/>
	<path class="st0" d="M540.2,297.2c3.6,3.1,7.1,6.2,10.8,9.3c-2.1,3.4-7,1.6-6.9,4.4c0.1,1.5,1.2,1.7,2.5,1.6
		c6.9-0.7,10.1-7,11.2-13.1c1.2-4.4,5-6,9-3.9c6,3.4,0.5,14.8-1.5,19.6c-4.5,10.4-15.7,13.1-25.4,7.9
		C529,318.2,535.5,304.3,540.2,297.2z"/>
	<path class="st0" d="M554.9,490.9c-1.4,1.6-2.8,3-4.3,4.7c-34.3-27.9-68.5-55.7-102.7-83.5c3.1-0.4,5.8-0.8,8.6,1.5
		C489.1,439.5,522.2,464.9,554.9,490.9z"/>
	<path class="st0" d="M436.1,490.2c-8.1,0.2-15.5,1.9-22.9,5.1c-1-3.7-6.5-7.7-6.3-10.5c0-15.5,5.5-20.6,20.9-20.7
		C437,464.8,432.2,483.7,436.1,490.2z"/>
	<path class="st0" d="M22.4,514.6c-1.4-1.2-2.6-2.2-3.9-3.4c39.9-30.7,79.8-61.1,119.6-91.7c1.8-1.9,4-1.6,6.8-1.5
		C103.8,450.3,63,482.5,22.4,514.6z"/>
	<path class="st0" d="M137.6,376.4c-1.5-17-3.2-34.1-4.6-51.1c-0.6-27.7-0.2-55.4-0.4-83c0.3-0.1,0.4-0.2,0.5-0.2
		c3.5,0.5,3.6,0.5,4.3-3c0.3-1.4,0.5-2.8,1.1-4.1c-0.2,47.2-0.4,94.3-0.6,141.5C137.8,376.4,137.7,376.4,137.6,376.4z"/>
	<path class="st0" d="M134.1,238.3c-4.2-0.5-8-1-11.7-1.5c-9-9.5-5.3-28.5,4.7-36.2c1.9-1.2,5.9-4.5,6.6-0.6
		C136.8,212.6,136.2,225.7,134.1,238.3z"/>
	<path class="st0" d="M365.2,426.8c6.9,3.5,12.3,0.4,17.5-4.1c5.7,4.7,10.8,10,15.7,15.9c-9.6,2.7-17.3,7.9-24.4,14.6
		c-3.4-5.6-7-11-10.5-16.5c-0.3-0.5-0.6-1.2-0.5-1.8C363.7,432.2,364.4,429.6,365.2,426.8z"/>
	<path class="st0" d="M184.5,493.7c-0.6-3.8-1.1-7-2.8-10.3c-1.2-2.6-0.6-4,2-5.1c7.2-2.6,15-0.3,22.2,1.1c7.9,2,13.5,11.4,10.6,18
		C206.1,493.3,195.5,492.5,184.5,493.7z"/>
	<path class="st0" d="M220.2,489.8c-4-15.1-21-16.7-34.2-16.1c0.9-4.9,1.9-9.7,2.8-14.8c10.4,7.2,21.7,8.1,33.6,6.4
		c0.3,6.8,1.1,13,1.9,19.7C224.2,487.2,221.8,488.2,220.2,489.8z"/>
	<path class="st0" d="M73.7,315.6c0.3,4.1-2.8,6.8-6.4,8c-3.4,1.2-3.3,1.2-4.8-2c-3.4-6.6-8.4-12.3-12.5-18.4
		c-2.7-3.6,0.7-9.2,5.1-8.4c11.6,0.3,17.2,10.5,18.9,20.7C74,315.6,73.9,315.6,73.7,315.6z"/>
	<path class="st0" d="M530.4,312.8c-7.9-1.4-9.5-10.8-8.4-17.3c1.3-8.3,6.4-13.8,13.3-18c3.1-2.4,7.7,1,6.5,4.6
		c-1.5,4.6-3.4,9-5,13.5C534,301.1,530.9,306.3,530.4,312.8z"/>
	<path class="st0" d="M546.6,329.1c14.6,1.7,21.7-9.2,25.1-21.6c0.3-0.7,0.9-1.5,1.6-1.7c3.4-1.4,9.7-2.8,9.2,2.8
		c-0.4,8.2-3.5,15.4-9.9,20.6C565.4,335,553.4,336.7,546.6,329.1z"/>
	<path class="st0" d="M15.4,327.7c2,0.1,5.5-1.6,6.3,0.8c2.6,12.3,13.7,21.2,26.3,19.2C34.9,357.8,14,345.2,15.4,327.7z"/>
	<path class="st0" d="M469.1,196c8,8.1,8.9,21,3.9,30.9c-1,2.6-3.6,1.7-5.9,2.4C467.8,218.1,468.4,207,469.1,196z"/>
	<path class="st0" d="M407.6,467.9c-3.7,5.2-4.3,10.8-4.2,16.7c-6.1-2.8-12.3-3.4-18.7-2.5C386.6,479.2,401,470.2,407.6,467.9z"/>
	<path class="st0" d="M572.3,333.7c16.2-10.5,10.4-26.4,17.5-26.4C593.5,320.8,583.3,333.2,572.3,333.7z"/>
	<path class="st0" d="M176.2,512.8c11.1-5.9,24-1.8,35.2,2c-0.7,1.2-1.3,2.3-2,3.4C198.9,512.4,187.7,512,176.2,512.8z"/>
	<path class="st0" d="M7.9,326.2c3.7,0.9,3.7,0.9,4.1,4.3c0.5,4.1,1.5,8,3.6,11.7C10.8,340.2,7,332.2,7.9,326.2z"/>
	<path class="st0" d="M179.9,487.6c0.4,2.1,0.7,4.2,1.1,6.4c-2,0.6-3.8,1.2-5.7,1.7C174.2,492.8,176.3,487.5,179.9,487.6z"/>
	<path class="st0" d="M443.2,490.5c-3.3,0.1-3.9-0.3-4.4-3.6C441,486.3,442.6,487.7,443.2,490.5z"/>
	<path class="st0" d="M260.3,175.5c2.4-26.2,28.4-45,54-39.7c18.6,5.6,30.4,24.2,30.1,43.4C316.5,172.8,288.6,172.1,260.3,175.5z"/>
	<path class="st0" d="M340.2,196.7c-15.3,33.8-69,35.8-78.5-3.2C288.1,190.7,314.1,191.3,340.2,196.7z"/>
	<path class="st0" d="M297.8,225.9c40.3,2.4,64.9-46.3,40.4-77.6C371.1,179.9,339.7,235,297.8,225.9z"/>
	<path class="st0" d="M341.9,193.2c-9.5-1.4-18.6-2.8-27.6-4.1c0-3.6,0-7.3,0-11.2c9.5,0.9,18.8,3,28.2,4.4c1.2,0.2,1.7,0.7,1.4,1.9
		C343.2,187.3,342.5,190.3,341.9,193.2z"/>
	<path class="st0" d="M277,177.3c0,4.1,0,7.7,0,11.4c-5.1,0.4-10.5,0.9-16.4,1.4c0.2-1.9-1.5-11.1,0.2-11.2
		C266.3,178.4,271.7,177.8,277,177.3z"/>
	<path class="st0" d="M285.8,177c3.8,0,7.5,0,11.2,0C296.3,183.5,286.7,183.7,285.8,177z"/>
	<path class="st0" d="M325.2,338.5c-8.2,0-16.5,0-24.7,0c-4.3,0-6-1.8-5.9-6c1.6-33-5.8-27.8,28-28c3.5,0,5.1,1.6,5,5.2
		c-0.1,3.9-0.2,7.7-0.3,11.6c0,2.1,0.5,2.7,2.6,2.6c7.1-0.1,14.2-0.1,21.3-0.2c5.6-0.4,5,5.2,4.7,9.1c-0.2,3-2.1,4.8-5.1,4.9
		c-8.5,0-17.1,0-25.6,0C325.2,338,325.2,338.3,325.2,338.5z"/>
	<path class="st0" d="M253.6,321.8c0-4,0-8.1,0-12.1c0-3.4,2-5.2,5.4-5.2c4-0.2,9.8-0.5,9.6,5c0,4.1-0.1,8.2-0.2,12.3
		c0,2.2,0.4,2.6,2.6,2.6c4.4,0.4,12.6-2.2,12.8,4.5c0.2,4,0.4,9.9-5,10c-26.6-0.4-25.8,5.6-25.5-17
		C253.4,321.8,253.5,321.8,253.6,321.8z"/>
	<path class="st0" d="M225.2,322.1c0-4,0-8.1,0-12.1c0-3.5,1.8-5.4,5.3-5.4c4.2-0.2,10.3-0.6,10,5.3c0,7-0.1,14-0.2,21
		c0.2,3.5-0.2,8.2-4.6,8.5c-4,0.2-10.7,1.3-10.7-4.6c0-4.2,0-8.4,0-12.6C225.1,322.1,225.1,322.1,225.2,322.1z"/>
	<path class="st0" d="M367,321.1c0.2-3.9,0.3-7.8,0.5-11.8c0.1-3,1.8-4.7,4.8-4.8c4.1,0,8.4-0.8,8.4,4.7c-0.4,7.7-0.7,15.5-1,23.2
		c-0.1,4.7-4.7,4.9-8.4,4.8c-3.3,0-4.8-1.4-4.8-4.7c0-3.8,0-7.6,0-11.4C366.7,321.1,366.8,321.1,367,321.1z"/>
</g>
</svg>
