<?xml version="1.0" encoding="utf-8"?>
<!-- Generator: Adobe Illustrator 26.0.0, SVG Export Plug-In . SVG Version: 6.00 Build 0)  -->
<svg version="1.1" id="Capa_1" xmlns="http://www.w3.org/2000/svg" xmlns:xlink="http://www.w3.org/1999/xlink" x="0px" y="0px"
	 viewBox="0 0 595.3 689.5" style="enable-background:new 0 0 595.3 689.5;" xml:space="preserve">
<style type="text/css">
	.st0{fill:#FFFFFF;}
</style>
<g>
	<path d="M307,509.1c-17,10.8-41.2,7.1-51.3-11.1c-2.3,1.8-6.2,2.2-6.6,5.3c-1.9,26.4-1.2,52.9,2,79.3c0.1,1.4,0.6,2.2,2.1,2.6
		c4.9,1.4,7.1,4.8,7,9.8c-0.4,18.3-0.1,36.7,2.4,54.9c0.9,7.4,6.2,23.2-3.2,26.6c-36.4,10-74.9,5.4-112.2,6.6
		c-27.2-1.3-10.7-47,5.5-54.5c4.4-11.1,7.2-21.2,18-28.4c1.8-1.3,2.9-2.5,3.6-4.6c1.6-5.1,3.9-6.8,10.2-7.5
		c0.5-10.5-2.7-28.4,12.7-28.1c-0.5-23.3,3.1-46.8,4-69.8c-2.4-4.6-5-9.1-7.4-13.8c-2.4-3.8-9.4,0.2-11.6,2.9
		c-11.5,11.7-29,6.3-43.3,4.4c-20.6-3.4-40.9-8.2-61.1-12.9c13.9,35-20.3,45.7-26.4,21.1c-1.7-9.6,2-18.5,5-27.4
		c-15.9,1.1-8.6-12.2-17.1-13.3c-9.6-1.4-8.2-14.9-6.4-22.2c-70-30.5-12.7-132.8,28.2-166.2c6.9-6.1,14.4-11.5,21.6-17.3
		c0.7-0.5,1.4-1.2,1.6-2c3.4-11.6,9.4-21.8,16.4-31.5c-21.5-21.7,1.9-56.1,17.1-74.7c-13.3-5.1-11.1-21.7-6.2-32.3
		c8.2-18.9,22.9-34.6,43.3-39.9c1.1-0.3,1.5-0.6,1.2-1.8C150,29.9,190.6,26.1,215,37.6c-17.1-35.8,27.2-44.7,48.5-8.7
		c9.8-13.7,23.1-28.7,41.3-28.9c16.9,0,21.5,16.6,18,30.6c8.7-6.3,17.8-11.3,28.6-12.6c20.6-3.6,38.1,15.9,27.4,35.8
		c14.8-4,29.5-4.9,44.2,0.7c17.3,5.9,34.3,25.9,18.9,42.6c16.2,6.9,27.8,24.4,13.5,39.4c12,8.1,21.5,17.9,22.7,33.8
		c16.5-18.9,34.7-37.1,57.8-47.7c17.5-8.8,34.9,6,42.6,21.1c10.5,20,20.6,43.3,15.1,66.2c-5.5,18.1-15.1,5.2-25.3-0.1
		c-10.6-6.8-24.7-4.7-33,4.8c-9.7,12.2-15,14.4-26.6,2.4c-6.3-7.8-15.4-8.8-23.7-3.2c-2.2,1.3-4.4,3-6.8,3.8c-2,0.6-2.7,1.6-3.5,3.3
		c-1.2,2.6-2.9,5-4.7,7.2c-1,1.2-1.1,1.8-0.4,3.1c10.7,16.8,18.1,52.5-8.5,57.7c4.1,16.6,6.8,41.4-13.1,48.6
		c5.9,18.8,11.7,50-13.8,56c2.9,18.4,2,48.7-22.7,49.4c-1.4,0-1.6,0.6-1.8,1.8c-2.4,19.1-17,40.2-40.4,32.4
		c-4,7.8-9.5,14.6-16.7,19.7c-1.1,0.8-1.3,1.5-0.7,2.7c10.4,24.4,20.7,48.8,31.1,73.3c1.8,4.6,19.7-1.9,17.1,14.7
		c5.4,1.9,9.2,6.6,9.2,12.4c0.2,3.6,0.8,6.5,4,9c6.7,6.1,8.2,16.1,11.7,24.3c6.5,8.1,11.5,16.6,13,27.1c1.7,8.6,3.9,19.5-5.8,24
		c-4.7,2.6-9.8,3.4-15.1,3.9c-31.3,2.9-62.8,2-94-1.8c-8.3-3.3-6.9-14.4-5.4-21.5c4.4-20,2.5-40.6,2.9-60.9c0-4.2,1.1-7.7,5-9.9
		c0.5-0.3,0.8-1.4,0.7-2C322,563.7,316.2,536,307,509.1z"/>
	<path class="st0" d="M234.6,333c2.9-8.7-0.9-17.2-9.9-19.2c16.2-11.2,2.3-29.6-13.5-30.6c-10.9-1.5-21.3,1-31.2,5.4
		c-8.3-14.8-26.8-17.5-38.1-3.9c-1.7,2-2.2,1.9-3.2-0.5c-5.9-13.7-25-18.2-36.7-8.5c-1.2,1-2.3,1.2-3.7,0.7
		c-14.5-3.8-12.8-22.8-8.6-34.4c3.6-10.7,9.5-20.3,16.4-29.2c0.7-1.2,0.6-2.3-0.5-3.1c-19.5-14.9-2.6-43.4,7.7-59
		c3.3-4.6,7.3-8.7,10.9-13.2c2-2.2,1.2-4.1-1.7-4.4c-6.3-0.4-9.4-3.5-9.9-9.9C113,101,129,81.2,148.6,72c3.3-1.5,7-2.2,10.6-3.1
		c2.6-0.6,3.3-1.5,2.4-4c-8.2-21.7,17-32.7,34.9-28c8.3,1.5,16,4.4,23.5,8.1c0.4,0.2,0.8,0.5,1.1,0.5c2.8,0.2,3.9-0.9,2.7-3.5
		c-2.2-3.9-4.8-7.5-6.8-11.4c-4.5-8.9,1.1-20.5,12.1-20.3c14.2,0.1,25,11.7,31.8,23c1.8,3,3.4,3.1,5.3,0.1
		c8.4-12.8,19.8-26.2,35.6-28.9c20-1.6,20.4,17.8,13.8,32.1c-1.7,3.3,1.6,5.5,3.9,2.8c6.9-6.4,14.5-11.8,23.5-15
		c22.8-9.4,45.6,9.3,28.8,31.9c-1.4,2.6-0.1,5.2,2.9,3.8c19.5-7.6,42.8-8.1,59.6,6c8.6,6.2,14,20.6,3.8,27.9c-1.2,0.7-3,2.4-3,3.7
		c0.1,0.7,1.1,1.6,2,2c15.1,5.5,29.2,21.1,13.7,34.9c-1.9,1.9-1.6,3,0.5,4.6c4.1,3,8.3,5.8,12.1,9.2c10.4,8.9,15.7,28.4,1.3,36.1
		c-2.3,1.3-2.5,2.1-1.2,4.5c3.3,5.8,6.3,11.7,7.8,18.3c4.3,17.6-10.5,17.7-6.7,23.2c4.5,7,7.8,14.5,9.6,22.7
		c2.7,12.2,1.3,30.7-15.4,31c-2.2,0-2.8,1.2-2.3,3.5c3.8,15,8.7,40-10.9,45.5c-2.5,0.6-3,1.6-2.2,4c5.9,16.2,12.9,46.1-9.9,51.6
		c-3.7,0.7-3.9,1-3.4,4.8c1.8,11.8,2.5,24.4-3.1,35.3c-3.3,7.1-10.6,9.8-18.1,9.1c-6.5-0.4,0.8,20.6-18.9,32.8
		c-6.4,3.9-13,4.5-19.8,0.9c-2.1-1.1-3-0.7-4.1,1.8c-6.6,16.9-28.8,32.9-45.7,20c-1.5-1.2-2.7-0.9-3.9,0.9
		c-12.9,19.7-45.7,23-57.2,0.2c-1.6-2.9-2.4-3.1-5.1-1.1c-18.2,15.1-46.1,6.9-54.4-14.9c-3.9-7.9-0.6-9.6-9.5-8.1
		c4-5.4,4.8-11.5,3.8-18c0.2,0,0.4,0,0.6,0c47.7,45,161.5,28.3,206-15.4c40.7-39.2,36.5-100.1,27.5-151.3c0.1-4.6,2.4-8.9,1.5-13.6
		c0-3.6-5.1-3.3-4.5,0.3c1.7,10.9-7.3,20.9-19,17.7c-5.1-1.2-9.5-3.6-13.6-6.7c-2.6-2.5-5.8,0-3.8,3.1c3.1,6.4,4.7,13.2,2.9,20.2
		c-1.7,7.2-9,14.6-16.3,8.7c-1.7-1.1-3.6-4.5-5.8-2.4c-1.2,1.1-1,2.5,0.2,3.4c2.1,2.1,5.8,3.4,7,6.1c0.1,47.9-33.5,80.6-80,55.5
		c-18.5-7.8-33.3-22.5-52.2-29.3C240.7,347.2,246.3,338.4,234.6,333z M220.3,270c17.4-0.3,38-3.2,52.8-14
		c29.3-16.4,36.5-72.3-4-78.3c-29.9-5.4-49,18-79,6.5c-2.5-0.8-3.5-2-3.8-4.7c-2.2-38.1-54.7-43.4-52,1c0,5-6.4,7.5-8.2,12
		C102,247.1,177.2,270.9,220.3,270z M286.9,115.3c-3.8-70.9-99.5-56.6-106.5,6C174.3,202.9,286.4,188.3,286.9,115.3z"/>
	<path class="st0" d="M476.3,213.6c-0.2-9.7-4.1-17.7-8.1-25.2c18.6-19.5,67.4-85,96.1-56.3c16.3,17,30.5,52.2,25.4,75.7
		c-1,2.9-2.5,9.2-6.6,5.9c-19.3-15-38.2-19-54.9,2.1c-4.6,5.5-7.3,5.8-12.8,1C501.3,201.1,493,203.4,476.3,213.6z"/>
	<path class="st0" d="M219.4,352.2c15.6-5,31,3.2,43.8,11.6c2.5,1.6,3.6,3.4,3.9,6.4c3.1,27.3-1.1,53.2-15.5,77
		c-3.5,5.3-13.1,20.5-18.8,21.8c-18.8-5.2-36.5-16-45.6-34c9.5-0.5,13.7-11.9,9.4-19.5c-2.1-4.2-5.3-7.3-9-10c-2.9-2-0.5-5-0.4-8
		c5,2,10.2,5.7,15.1,1.5c3.4-2.8,4-6.7,3.2-10.9c-1-6-5.8-9.9-9.8-14.2c2.6-5.1,2.8-7,8.7-4C215.4,374.6,223.7,362,219.4,352.2z"/>
	<path class="st0" d="M72.1,417.1c15-11.4,5.5-25.7-6.3-34.7c-1.4-1.1-1.4-1.1-0.3-3c7.2,3.8,14,10.4,22.8,7.9
		c7.3-1.9,12-9.4,10.9-17.4c-0.8-6.7-4.3-12-9.4-16.2c-3.2-2.7-6.8-4.9-10.2-7.4c-0.4-0.3-0.5-0.9-0.7-1.4c0.5-0.1,1.1-0.5,1.5-0.4
		c13,4.8,24.5-9.6,19.8-21.8C97.1,312.1,87,308.1,77.4,305c15-19.5,87,5,108.9,10.8c11,2.9,29.8,9.9,22.8,24.5
		c-16.6-9.5-34.9-16.9-54.4-15.9c-12.8-0.3-24.1,11.9-18.7,23.8c-17.5-1.5-29.6,20.1-12.6,30.4c5.9,3.3,12.5,4,19.1,4.7
		c10,1.1,19.5,3.9,28.9,7.5c1.8,1.3,0.3,3.5-0.1,5.4c-12-4.4-24.1-8.4-37.1-7.9c-17.1-1.3-31,18.7-14.1,29.9
		c12.9,7.2,28.4,5,42.3,8.3c-1,5.6-2.8,7.3-8.2,7.9C126.3,432.5,98.9,424.4,72.1,417.1z"/>
	<path class="st0" d="M377.9,685.3c-8.8-0.9-53.1,0.1-55.5-6.2c-1.3-2-1.9-14.1,1.5-13.6c7.6,1.3,15.2,1.1,22.8,0.2
		c1.9-0.2,2.8-1,3.1-2.9c2.1-15.8,14.3-28.4,30-30.9c18.6-4.3,43.9-3.4,50.9,17.9c2.7,6.9,4,14,4.7,21.3c0.4,4.4-1.7,7.3-6,9.3
		C413,686.1,395,683.6,377.9,685.3z"/>
	<path class="st0" d="M259.7,658.4c0.5,4.2,2.2,12.1-2.4,14.1c-4.6,1.2-9.3,2.6-14,3.2c-31.8,3.9-63.8,2.9-95.8,2.9
		c-6,0-8.9-2.6-9.7-8.6c-1.5-16.4,7.9-37.8,25.8-40.3c20.8-3.5,42.6,5.7,46.4,28.1c0.8,3.1,0.8,3.4,4.1,3.4
		C229.5,661.4,244.4,661,259.7,658.4z"/>
	<path class="st0" d="M258.4,654.1c-13.8,2.2-27.9,2.9-41.9,2.8c-1.6,0-2.2-0.5-2.7-2.1c-5.1-22.8-26-31.9-47.8-30
		c5.6-9.5,26.1-2.8,33.7,1.6c2.1,0.8,5.1,4.3,6.9,1.4c0.7-1.2,0.3-2.3-0.8-3c-12-7.6-24.7-11.3-38.8-7.7c-3.6,1.9-5.3,6-8.1,9
		c1.2-8.5,6.8-16.5,13.7-21.9c13.5-5.8,28.8-3,42.1,2.1c3.3,1.4,4.2,1,4.8-2.5c2.7-12.7,17.8-16.8,29.2-15.2c4.6,0.9,7.3,1.9,7,7
		C255.7,615.2,255.2,634.9,258.4,654.1z"/>
	<path class="st0" d="M271.6,369.5c8.6,5.4,17.5,9.5,26.4,14.3c8.6,19.1,7.6,42.1,0.7,62.2c-4.3,10.2-9.7,21.3-18.5,28.1
		c-13.6,0.1-27.7,0.1-40.7-3.8C266.1,441.9,275.8,408,271.6,369.5z"/>
	<path class="st0" d="M167.1,427.2c4.1,1.7,8,3.3,11.8,5c0.4,0.2,0.7,1.1,0.6,1.6c-3.1,11.5-6.3,22.2-20,23.4
		c-5.5,0.8-10.8,0.1-16.2-0.8c-26.9-4.9-53.6-10.6-79.7-19c-15.9-4.4-18.9-15.1-21.1-30.1c5.9,2.9,10.5,6.9,16.2,10
		c27.4,10.2,56.4,15.6,85.1,20.9C154.4,439.2,164.5,440.3,167.1,427.2z"/>
	<path class="st0" d="M287.5,473.6c21.6-26.1,25-55.4,17.1-86.8c5.1,1.3,10,2.9,15,3.6c3.7,0.5,5.8,2.3,7.8,5.1
		c16.8,21.6,15.2,53.6-4.1,73c-0.5,0.5-1.3,0.9-1.9,1C310,470.8,298.9,472.7,287.5,473.6z"/>
	<path class="st0" d="M419,629.7c-17.5-18.3-43.9-12.5-64.4-2.8c-2.1,1-2.4,2.1-1.2,4.1c1,2.3,4.3,4.8,3.3,7.5
		c-5.7,5.8-8.9,12.8-10.7,20.6c-0.4,1.7-1,2.5-2.8,2.4c-6-0.2-12.1-0.3-18.1-0.5c-1,0-1.7-0.3-1.5-1.6c2.1-13.9,1.8-27.8,1.8-41.8
		c0-4.9-0.1-9.8,0.1-14.6c0.2-4.9,5-7.9,9.7-6.4c6,2,8.6,7.4,11.3,12.7c-1.8,1.5-5.8,2.3-4.2,5.3c0.9,1.5,2.3,1.2,3.6,0.4
		c8.1-4.8,16.8-7.8,26.1-9.2c14.4-1.4,35-4.3,42.4,11.6c1.8,3.9,3.5,7.9,5.2,11.8C419.4,629.4,419.2,629.6,419,629.7z"/>
	<path class="st0" d="M411.6,416c-4-23-17-46.8-43.6-46c4.1-7,7.7-14.1,9.5-22c0.4-1.4,1.1-2.2,2.3-2.8c14.8-7.2,28-4.3,40.1,5.9
		c2.4,2.5,8.3,6.7,8.8,9.9C427,380.5,422.4,399.4,411.6,416z"/>
	<path class="st0" d="M351.5,385.2c2.6-2,5.6-3.7,8-5.9c4.1-5.9,10-5.2,15.9-4.1c21.3,4.1,30.8,26.9,31.5,46.5
		c-7.9,13.8-22.4,23.9-36.4,31.3C381.9,425.3,377.1,402.4,351.5,385.2z"/>
	<path class="st0" d="M330.6,467.4c18-25.4,17.4-50.6,0.2-75.3c3.9-0.6,13.8-5.2,16.8-3.6c25.8,13,30.4,43.6,16.2,67.2
		c-0.3,0.7-1.1,1.3-1.8,1.6C351.9,461.6,341.3,465.5,330.6,467.4z"/>
	<path class="st0" d="M135.4,352.5c23.4,3,46.9,12.9,62.9,30.6c4.5,3.8,4.3,15.7-3.8,12.3c-9.4-3.8-18.8-7.7-28.3-11.3
		c-12.6-5.4-26.7-4.2-39.4-9c-10-3.1-8.5-17.9,0.9-20.9C130.1,353.3,132.8,353,135.4,352.5z"/>
	<path class="st0" d="M134.8,392.6c16.4,0,60.9,11.7,58.6,31.7c-1,6.3-7,6.9-11.9,4.2c-12-6.1-24.9-8.5-38.2-9.3
		c-7-0.4-13.9-1.1-20.2-4.4c-7.2-3.8-8.5-11.5-2.7-17.2C123.7,393.9,131.2,392.8,134.8,392.6z"/>
	<path class="st0" d="M157.8,328.4c17.5,1.5,56.3,10.5,58.1,30.6c-2.2,13.8-14.7,3.5-22.9,1.2c-10.6-4.2-22-3.6-32.8-6.3
		c-5.1-1.4-10.1-3.1-15.2-4.4c-10-2.5-6-16.9,2.3-18.9C151,329.3,154.8,328.9,157.8,328.4z"/>
	<path class="st0" d="M324.1,553.1c14.3-2.5,27.2-7.9,39.4-16c5.3,12.5,10.4,24.8,15.7,37.4c-8.6,1.6-17,2.7-24.6,7.6
		c-6.9,2.5-15.2,1.9-22.6,3c-1,0.1-1.8,0.2-2-1.3C328.2,573.5,325.8,563.4,324.1,553.1z"/>
	<path class="st0" d="M379.5,340.3c0.5-5.9,1-11.5,1.6-17.2c0-0.4,0.6-1,1.1-1.1c8.6-2.4,13.7-8.7,14.2-17.9
		c-1-6.1,25.1,0.4,28.6,1.6c1.1,0.3,1.8,0.7,1.9,2c1.9,15.2,3.2,30.5,2.2,45.8C416.9,339.6,397.2,331.7,379.5,340.3z"/>
	<path class="st0" d="M41.2,368.7c-14.2,1.7-13.9-17.3-3.4-22c17.7-9.6,51.7,2.8,56.7,22.8c0.8,4.7-0.3,8.9-4.2,11.8
		c-8.7,7.1-22.5-7.3-31.5-10.4c-5.7-2.8-11.8-4.8-17.8-7c-2.2-0.8-3.6-0.3-3.9,1.2C36.7,368,39.3,367.8,41.2,368.7z"/>
	<path class="st0" d="M64.1,302.9C79.9,270,138.4,291.3,166,297c24.3,7.5,68.9,13.6,54,49.5c-2.8,4.1-8.2-2.5-6-6.8
		c5.6-16.6-12-24.3-25.5-27.9c-29.8-9.8-60.6-17-92-18.8c-8-0.6-15.6,1.5-21.2,7.6C71.8,304.9,68.9,303.3,64.1,302.9z"/>
	<path class="st0" d="M43.8,339.2C33,342.5,23.2,350.8,26,363.2c1.2,6,7.4,10.6,14.6,10.3c3.2-0.1,6.1-1.7,9.3-2
		c-0.3,2.4-0.9,3.2-3.2,2.9c-11.2-2-27.7,2.6-27.3,16.2c0.2,9,11.2,10.1,17.5,13.7c1.2,0.5,1.5,1.1,1.6,2.5c1.1,9.7,2,9.5-4.1,18
		c-37-15.6-32.4-48-13.6-76.9c3.9-5.4,8.6-9.9,14.1-13.8c1.1-0.8,1.9-0.8,3,0.2C39.7,336.1,41.9,337.7,43.8,339.2z"/>
	<path class="st0" d="M41,423c6.2,17.9,26.2,19.7,41.9,24.7c1,0.3,1.9,0.5,1.8,2c-0.5,4.1,1,7.6,2.1,11.4
		c-10.1,2.7-11.7-8.4-15.6-7.3c-3.5,0.9,0.1,10,0.3,12.7c2.1,7.6,5.5,15,4.8,23c-0.7,14.9-20,14.6-20.7-0.2
		c-1.1-11.6,6.4-21.7,6.8-33.1c0.4-2.9-3.8-3.5-4.5-0.7c-1.2,3.3-3,4.9-5,4.7c-7.1-1.3-2.5-11.9-5.9-15.7c-0.5-0.4-2.1,0.2-2.8,0.8
		C31.7,453,36.4,426.4,41,423z"/>
	<path class="st0" d="M60,335.3c-6.6,7.2-20.1-2.6-22.8-9.8c-4.7-11.8,13.2-17.9,22.6-18c14.1-0.4,38.1,5,36.8,22.6
		c-2.8,15.9-16.2,10.5-25.9,4.4c-6.4-3.3-13.2-5.1-20.4-4.9c-1.9,0.1-4.7-0.1-4.5,2.6c0.1,2.1,1.7,2.1,3.3,2
		C52.6,334,56.2,334.1,60,335.3z"/>
	<path class="st0" d="M314.2,516.2c12.1-4,22.8-8.9,33.8-15.3c4.3,10,8.7,20.4,13.1,30.5c0.5,1.2,0.3,1.8-0.7,2.5
		c-10.9,7.2-22.6,12.1-35.4,14.6c-1.6,0.3-2.1,0-2.5-1.6C319.7,536.6,316.9,526.3,314.2,516.2z"/>
	<path class="st0" d="M243.6,509.6c-0.1,9.7,0.1,18.7,0,28.2c0,0.5-0.8,1.3-1.2,1.4c-13.4,0.9-27.1,1.5-40.4-1
		c0.8-10.8,1.7-21.7,2.5-32.2C217.6,509.1,230.4,510.4,243.6,509.6z"/>
	<path class="st0" d="M40.4,378.4c13.2,0.3,22.3,5.6,29.7,14.3c1.5,1.7,2.9,3.6,4,5.5c4.8,8-5,20.8-13.6,14.7
		c-9.8-7.2-20.7-12.4-31.8-17.3c-5.3-2.3-6.3-6.2-3-11C28.2,379.6,36.4,379.2,40.4,378.4z"/>
	<path class="st0" d="M201.9,542.9c14.2,1.8,27.9,1.8,41.7,0.7c0.6,9.5,1.1,18.7,1.7,28.2c-6.5,1.1-13.2,1.6-19.7,2
		c-0.7,0-1.7-0.5-2-1.1c-4.1-7.9-10.8-11.6-19.4-12.4c-1.8-0.2-2.3-0.7-2.3-2.5C201.9,553,201.9,548.1,201.9,542.9z"/>
	<path class="st0" d="M215.4,601.7c-9.1-3.5-18.2-5.2-27.9-5c2.3-8.8,0.4-18,2.4-26.8c0.8-3.7,2.6-5,6.4-5.2
		c18.9-1.4,27.2,8.9,25.3,27C218.5,594.2,216.6,597.6,215.4,601.7z"/>
	<path class="st0" d="M392,600.4c-13.9-0.7-27.9,0.9-41.2,6.9c-1.5-2.2-2.2-4.3-1.6-7c2.2-10,7.8-16.6,18-18.9
		c8.6-2,17.7-4.2,26.3-1.2c2.4,0.8,3.2,2.5,2.7,4.6C394.8,590,393.4,595,392,600.4z"/>
	<path class="st0" d="M177.3,294.8c11.1-5.2,23-9.6,35.4-6.8c14,2.5,21.5,17.2,5.8,24.1c-1.5,0.1-3.3-1.9-4.9-3.1
		c-10.8-7.4-24.1-9.4-36.2-13.7C177.4,295.2,177.4,295,177.3,294.8z"/>
	<path class="st0" d="M81.4,282.5c-4.9,1.8-8.8,4.9-13.3,7.5c-0.5,0.3-1.4,0.6-1.7,0.4c-6.3-3.9-13.1-5.8-21.1-5.3
		c5-5.9,10.5-10.8,15.8-16.4C67,265.1,78.7,277.3,81.4,282.5z"/>
	<path class="st0" d="M126.4,457.8c5.9,1.1,11.8,2.2,17.7,3.2c3.1,0.8,11-0.3,9.2,5c-6.4,12-23.5,11.3-28.9-1.2
		C124,462.5,125.8,460.3,126.4,457.8z"/>
	<path class="st0" d="M181,443.9c17.3,10.3-8.8,34.2-22.6,18.3C169.9,460.7,177.8,455.3,181,443.9z"/>
	<path class="st0" d="M59.1,302.5c-8.5-3.2-17.2-3.3-26-1.2c-0.1-0.2-0.1-0.3-0.2-0.5c2.5-3.3,4.9-6.6,7.4-9.8
		c7.8-3.2,16.3-1.1,23.4,3.2C62.2,297,60.7,299.6,59.1,302.5z"/>
	<path class="st0" d="M95.4,280.2c-3,0.4-5.7,0.8-8.3,0.9c-0.6,0-1.6-0.7-2-1.3c-4.5-7.4-10.6-12.7-18.7-16.1
		c5.3-4.3,10.5-8.4,16.2-12.9c-0.7,6.1,0,11.3,1.1,17C85.1,274.2,89.7,277.8,95.4,280.2z"/>
	<path class="st0" d="M89.4,449.6c8.7,1.7,17.3,4.1,26.3,6.1C110.2,467.5,86.4,464,89.4,449.6z"/>
	<path class="st0" d="M141.1,479.3c6.7-1.1,11.4-4.3,15.2-9.4c4.9,6,11,9.3,19.1,8.6C170.2,482.9,153.3,483.3,141.1,479.3z"/>
	<path class="st0" d="M405.3,625.5c-15.3-1.1-32.1,1.3-44.1,9.2c-0.9-1.4-1.8-2.8-2.8-4.5C373,624.3,390.2,618.1,405.3,625.5z"/>
	<path class="st0" d="M133.7,284.6c-10.3-1.3-20.2-2.6-30.4-4C111.8,271.5,127.7,273.8,133.7,284.6z"/>
	<path class="st0" d="M225.7,578.7c6.7-0.7,13.3-1.4,20.2-2.1c0.3,2.3,0.6,4.7,0.9,7.2c-7.1-0.1-13.7,0.8-19.9,4.3
		C226.4,584.8,226.1,581.7,225.7,578.7z"/>
	<path class="st0" d="M320.1,499.1c3.7,2.6,8.7,3.7,14.1,4.3c-6.3,3.4-13.1,5.2-19.8,7.7c-1.3,0.5-1.9,0.1-2.4-1.2
		c-1-2.4-0.7-4,1.5-5.5C315.8,502.9,317.7,501,320.1,499.1z"/>
	<path class="st0" d="M396.5,297.1c-0.4-2.1-0.8-3.9-1.3-6.1c9.8,4.8,19.4,6.8,28.9-1.2c0.7,3.9,1.3,7.5,2,11.5
		C416.2,298.2,406.5,296.9,396.5,297.1z"/>
	<path class="st0" d="M12.2,342.7c0.4-3,2.2-5.4,4.9-7.5c2.2-1.9,16.1-11.9,16.6-5.6C26.9,334,19.1,338.7,12.2,342.7z"/>
	<path class="st0" d="M145.9,287.2c4.6-6.7,19.3-1.7,21.9,5.5C160.4,290.8,153.3,289,145.9,287.2z"/>
	<path class="st0" d="M32.9,315.6c-0.7,2.6-0.2,5.7-1.8,7.2c-4.8,1-9.1,3.1-13.6,5.6C22.3,318,21.4,318.3,32.9,315.6z"/>
	<path class="st0" d="M48.5,304.7c-9.6,3.2-8.9,8.2-19.7,7.2c-0.9,0-1.7,0.3-2.8,0.5c1.4-2.9,2.6-5.3,6-6.1
		C37.5,305.1,42.7,303.9,48.5,304.7z"/>
	<path class="st0" d="M331.2,589.8c5.9-0.6,11.8-1.2,17.7-1.7c-1.3,3.2-2.7,6.4-4.1,9.6C336.5,588.7,330.4,593.8,331.2,589.8z"/>
	<path class="st0" d="M238.4,347c-2.7-0.3-5.3-0.7-8-1c-0.3-2.7-0.5-5.5-0.8-8.3C235,336.5,238.9,340.5,238.4,347z"/>
	<path class="st0" d="M121.1,456.6c-0.1,10.3-12.8,16.2-21.5,10.8C108.4,468,116.2,464,121.1,456.6z"/>
	<path class="st0" d="M111.7,473.9c3.2-1.7,6.3-3.4,9.2-5c2.8,2.8,5.8,5.7,8.7,8.6C123.8,476.3,117.7,475.1,111.7,473.9z"/>
	<path class="st0" d="M397.2,600.8c0.4-3.1,0.8-6,1.1-8.8c4.3-0.2,7.4,4.9,6.8,10.7C402.3,601.8,400.2,601.4,397.2,600.8z"/>
	<path class="st0" d="M189.4,459.8c-2.2,14.5-17.5,17.1-24.8,11.6C175.8,473.2,184.2,469.8,189.4,459.8z"/>
	<path class="st0" d="M228.6,333.7c-1.7-5.1-3.4-10-5-14.9C230.4,318.2,233.4,328.7,228.6,333.7z"/>
	<path class="st0" d="M195.3,365.5c-1.2,1.9-2.1,3.4-3.1,5.1c-2.6-1.8-5.2-3.5-7.6-5.3c-0.3-0.2-0.2-1.3,0.1-1.8
		C186,361.5,192.6,365.1,195.3,365.5z"/>
	<path class="st0" d="M172.9,292.4c-2.3-5.9-6.6-9.4-12.3-11.6c5.3-0.7,12.9,4.1,14.5,8.9C175.8,291.7,173.9,291.3,172.9,292.4z"/>
	<path class="st0" d="M205.9,496.2c4.8,2.8,9.6,5.7,14.1,8.3c-4.1-0.4-8.7-2-12.8-3.1C204.3,500.9,205.7,498,205.9,496.2z"/>
	<path class="st0" d="M181.8,401.3c-5.1-3-7.5-1.7-5.1-8.4C182.9,395.5,183.5,394.1,181.8,401.3z"/>
	<path class="st0" d="M93.8,470c-5.6-1.5-11.3-2.9-16.9-4.4c-0.7-0.2-1.1-1.2-1.8-1.9c4.3,0.8,7.9,3.1,12,1.9c3.2-1.3,4.4,2.6,6.8,4
		C93.8,469.7,93.8,469.9,93.8,470z"/>
	<path class="st0" d="M6.7,364.2c0.3-7,3.1-13.1,8.7-17.4C12.5,352.5,9.5,358.5,6.7,364.2z"/>
	<path class="st0" d="M67.2,341c0.3-0.9,0.6-1.6,1-2.6c2.2,1.1,4.2,2.1,6.1,3.3c0.4,0.2,0.4,1.1,0.7,2.2
		C72,342.7,69.7,341.9,67.2,341z"/>
	<path class="st0" d="M61.1,379c-2.9-1.3-5.2-2.2-7.6-3.3c0.2-0.7,0.5-1.3,0.8-2.1c2.2,1.1,4.2,2,6.2,3.1
		C60.8,376.9,60.8,377.9,61.1,379z"/>
	<path class="st0" d="M183.5,593c-0.6,4-1.1,4.4-4.8,4.3C179,594.4,180.7,592.7,183.5,593z"/>
	<path class="st0" d="M183.4,437.3c0.7,1.2,1.3,2.3,2,3.5C182.4,439.7,182.3,439.5,183.4,437.3z"/>
	<path class="st0" d="M135.1,188.7c12.6,51.1,90.1,52.7,126.3,26.1c1.2-0.8,2.3-1.7,1.7-3.3c-1.3-4.4-11.5,4.8-14.5,5.5
		c-14.4,7.3-29.7,10.9-45.9,10.8c-9.1-1.5-14-31-15-39.3c13.7,3.9,27.7,5.6,41.2-0.1c14.9-5.8,32.3-9.9,47.8-3.9
		c10.5,4.5,15.4,12.9,16.1,23.9c2,75.5-124.1,68.7-159.3,25C123.2,220.4,122.6,200.4,135.1,188.7z"/>
	<path class="st0" d="M194.4,227.3c-31.7-4.2-63.5-23.8-54.1-60.1c5-17.1,23.6-16.6,32.3-7.8c5.9,6.1,8.6,13.4,9.5,21.6
		C183.6,197.1,186.7,212.9,194.4,227.3z"/>
	<path class="st0" d="M226.1,172.4c15.2-6.6,21.7-26.7,9.7-39.1c-19.2-19.3-49,9.2-34.2,31c-0.2,0.2-0.4,0.3-0.6,0.5
		c-48.9-41.4,18.5-123.1,67.3-81.9C302.3,114.4,269.6,174.3,226.1,172.4z"/>
	<path class="st0" d="M230.7,142.3c0,9.6-13.8,11.2-14.2,1C216.6,134,230.3,132.1,230.7,142.3z"/>
</g>
</svg>
