<?xml version="1.0" encoding="utf-8"?>
<!-- Generator: Adobe Illustrator 26.0.0, SVG Export Plug-In . SVG Version: 6.00 Build 0)  -->
<svg version="1.1" id="Capa_1" xmlns="http://www.w3.org/2000/svg" xmlns:xlink="http://www.w3.org/1999/xlink" x="0px" y="0px"
	 viewBox="0 0 595.3 801.4" style="enable-background:new 0 0 595.3 801.4;" xml:space="preserve">
<style type="text/css">
	.st0{fill:#FFFFFF;}
</style>
<g>
	<path d="M585.7,428.2c-5.9-26.1-14-51.5-23.5-76.4c-1.3-3.3-1.6-6.1-0.3-9.6c5.9-15.3,0.6-31.6-6.1-45.5
		c27.3-11.5,20.8-50.1,0.4-65.4c9.3-3.3,14.1-11.6,14.6-21c2.2-18.8-10.6-32.4-24.9-42.5c21.7-15.6,5.3-45.9-15.1-53.9
		c16.7-28.5-22-48.3-46.2-48.3c9.4-10.7,1.1-23.4-9.4-29.2c-16.5-9.4-35.3-10.4-53.7-8c13.9-19.1-2.4-26.7-20.3-22.2
		C387.2,9.7,376.6,18.6,368,30c-0.1-32.3-54-45.3-51.3-4.3C294.3,6.6,258-1,233.7,19.2c-10.5,8.2-11.3,21.1-6.2,32.8
		c-8.6-0.7-17.2-1-25.6,0.8c-22.3,3.1-49.4,29.9-31.4,51.5c-16.2,6.1-32.6,15.9-34,35.1c-1,7.9,2.1,16,9.9,20.3
		c-7.5,5.6-13.6,12.3-18,20.7c-17.8-12.8-34.9-27.5-56.3-33.9C20,128.3-22.6,271.2,12.4,258.2c9.8-5.5,18.9-14.7,31-13.4
		c23.3-0.1,34.7,26.8,43.3,14.8c7.5-12.5,19.1-22.8,34.7-20.5c-4.1,12.6-5.6,29.7,8.4,36.5c-7.9,12.6-14.7,31.2-5.5,44.8
		c1,1.3,1.1,2.2,0.3,3.7c-5.1,10-10.4,19.9-14.9,30.1C79.4,422.4,77.4,498.6,83.7,572c3,20.2,5.7,44,23.2,57.1
		c-0.1,16.3-10.7,32.5-24.1,42.1c-25.2,18.7-1.5,48.8,23.2,29.1c11.9,25.9,43.5-2.3,50.6-18.6c7.8-14.6,10.3-30.4,9.4-46.7
		c-0.1-2.3,0.9-2.6,3.2-2.5c0.1,7.8,0.5,15.5,0.2,23.2c0.1,19.1-10.4,36.3-10.4,55.3c0.1,21.2,28.5,20,36.5,4.4
		c14.5-28.4,7-63.2-2.2-92.3c-1.2-3.4-1-4,2.5-5.8c33.5,58.2,89.2,7.6,45.8-10.3c-11.7-3.4-22.6-8.5-32.4-15.8
		c-3-3-1.9-8.1-3.3-11.8c-10.6-38.9-26.6-76.3-33.8-116.1c3,0,5.6,0,8.4,0c-3.4,16.7-1.2,41.1,20.7,39.4
		c-8.6,24.1,12.4,47.2,37.2,41.3c3.6,18.5,14.4,27.6,33.4,25.8c-0.3,27.4-1.2,56-7,82.5c-20.5,23.6-19.2,57.2-23.6,86.5
		c0.3,9.3-4.8,27.9,2.7,34.2c31.2,26.6,74.5,31.8,113.8,26.4c13.6-1.9,26.9-5,39.7-10.4c8.3-3.1,7-11.8,7.6-19.1
		c27.7,1.2,107.9,10.4,118.5-21.5c1.4-12-0.8-25-9.8-33.8c-4.7-4.6-9.5-9-14.1-13.5c-2.3-2.8-3.2-7.1-5.8-9.6
		c-6.1-5.6-12.5-10.9-18.9-16.2c-3.4-3.5-8.3-2-12-4.6c-2.8-1.9-5.2-4.8-8.3-5.8c-10.4-3.6-8.1-17-20.1-22.1
		c-0.7-0.4-1.3-1.7-1.4-2.6c-0.6-7.5-1-15-1.7-22.4c-1.3-13.4-2.8-26.8-4.3-40.2c-0.1-1.2,0-1.9,1.1-2.5
		c9.4-5.5,11.8-15.9,14.8-25.7c22.7,2.2,34.9-19.2,37.1-39c22.9,1,27.6-26.8,24.9-44.5c2.8-0.6,5.4-1.2,8.1-1.8
		c-1.2,22.1-3.9,44.7-3.7,66.4c-6.9,9.9-17,14.5-28.6,16.2c-10.1,1.5-15.6,7.7-14.3,17.2c1.2,11.7,12.4,15.4,22.5,17.1
		c-6.6,9.2-1.1,19.6,7.1,25.4c3.4,2.3,3.7,4.5,1.8,8c-4.2,13.7,10.5,28.4,23.5,20.3c17.6-7.4,25.9-24.8,39.1-37.2
		c12.6-6.5,20.2-16.6,21.7-30.8c0-6.8,4.4-11.6,6.6-17.7C601.6,509.8,593.8,467.4,585.7,428.2z M378.9,644.3
		c-14.8,13.8-17.6,31-22,50.1c-5.4-5.7-5.8-16.3-15-17.4c-3.6-2-3.1-7.6-5-10.9c-2.3-6.1-5.5-11.6-11.3-15.3
		c-0.6-0.4-0.9-1.5-0.9-2.2c-0.5-21.8-1-43.4-2.4-65.2c8.3,0.3,16-1.6,22.9-6c6.4-2.9,7.9,13.4,34.2,11.5
		C380.1,607.1,378.9,625.9,378.9,644.3z M488.8,580.8C488.7,580.7,488.8,580.8,488.8,580.8L488.8,580.8z"/>
	<path class="st0" d="M186.7,331.2c3,5.8,7.8,10.7,14.7,10.5c1.7,0,3-0.6,3-2.5c-0.3-5.3-13.4,0.6-13.2-14.8
		c3.5,0.4,12.2,4.4,13.2-0.7c0.5-5-14.9,0.3-23.9-14.6c-6.1-6.1,1.1-19.6-6.8-17.2c-4.3,0.9-8.7,1.2-13-0.1
		c-6.3-2-10.2-6.3-11.7-12.8c-0.1-4.4-6.5-3.9-5,0.9c0.7,2.4,1.5,4.8,2.7,7c1.1,1.9-0.2,2.8-1.1,3.8c-1.7,1.3-4-0.4-5.2-1.8
		c-1.1-1.1-2.3-1.4-3.5-0.3c-3.1,3.3,2.7,5.6,4.6,7.8c-4.3,6.7-8.7,13.6-13.3,20.8c-7.7-13-0.7-29.8,7.5-41.1
		c1.9-2.5,1.5-4.3-1.4-4.8c-7.4-1.4-10.2-7-10.6-13.7c-0.2-13.7,5.4-29.3,15.7-38.4c1.6-0.9,2.1-2.8,0.8-4.1
		c-8.9-5.4-13.1-10.4-10.9-21.5c1.7-11.6,8.5-20.4,17.3-27.7c2.2-3,11.1-5,10-9.2c-0.5-0.8-1.8-1.6-2.8-1.5
		c-7.2,0.3-11.8-3.6-12.3-11c-1.9-19.8,17.5-32,34.6-35.9c3.4-0.7,2.9-3.3,1-5.4c-8.7-7.2-10-14.8-4.3-24.5
		c11.8-21.4,37.8-24.4,59.8-20.7c3,0.6,4.3-2.3,2.6-4.5c-17.6-20.1,7.3-40.5,27.9-40.6C309.8,8.2,326,53.7,326,36.7
		c-6.1-10.8-6.5-32.5,10.4-31.7c10.6,0.4,18.8,5.1,23.9,14.5c3.8,7.2,2.7,15.6,1.7,23.4c-0.9,3.4,4.2,4.5,5,1.1
		c4.6-13.9,14.4-23.1,26.9-29.7C411,6,435,8.7,412.5,30c-3.6,2.6-1.4,6.6,2.6,5c20.7-4.8,45.6-4.6,62.6,9.6
		c8.8,9.3,8.1,16.9-4.4,21.4c-3.7,1-2.5,5.8,1.1,5.1c22.5-4,70.2,13.2,50.8,42c-4.7,6.6,15.3,5.3,23.5,25c11.7,24.1-18.8,26.9-8,33
		c15.3,8.7,29.1,24.6,24.2,43.3c-1.8,8.2-6.8,12.2-15.3,12.5c-4.3,0.4-3,4.3-0.2,5.8c14.5,10,23.5,28.4,17.4,45.7
		c-2.6,7.8-7.7,12.9-16.4,13.6c-2.5,0.2-3.3,2.3-1.7,4.5c12.2,14.9,18.5,56.3-9,56.6c-9-0.6,8.5,18,0,40.9
		c-2.1,8.3-9.1,14.3-18,14.1c-3.1,0.2-4.1,1.7-2.6,4.5c9.1,16.1,6.5,47.8-16.6,48c-8.9-1,2.4,13.8-5.1,31.5
		c-7.6,21.2-23,7.3-23,16.1c-0.6,18.4-12.7,39.5-33.8,35.7c-8.1,0.8-0.6,33.9-32.5,29.4c-4.4,0.1-9.8-5.2-13.4-1.1
		c-12,14.6-32.1,15.3-44,0.1c-3.7-6-11.8,5.6-21.6,5.6c-40.2,3-33.2-26.6-41.1-19.6c-8.3,7.3-18.1,7.7-28.1,5.9
		c-11.1-1.9-15.2-12.8-17-22.6c-0.7-3.3-1.6-3.9-4.8-2.9c-23.3,7.1-41.3-17-31-38.1c0.8-2.7-0.6-4.1-3.3-3.7
		c-22.1,5.5-21.3-21.6-17.7-36.4c0.7-9.3-15.6,4.1-15.4-5.9C167,413,175.4,371,186.7,331.2z M416.5,352.3c33.7-0.7,66.5-11.9,86-41
		c14.3-20.6,29-47.3,18.9-72.6c-5.7-13.2-15.1-22.5-29.8-24.6c-44.1-5.9-40.6,53.4-97,17.8c-33.9-27.8-70.3-32.4-90.4,10.6
		c-4.1,12-3.2,23.9,1.2,35.5C322,323.8,368.3,353.2,416.5,352.3z M480.6,155.9c-1.4-85.2-127.2-85.3-129.8-0.7
		C351.5,241,480.2,240.5,480.6,155.9z"/>
	<path class="st0" d="M133.2,216.4c-3.6,4.8-6.6,15.7-11.5,17.5c-17.9-0.8-29.8,7-38.7,22.2c-2.8,6.4-17.4-16.2-38.1-16.3
		C26.1,235.7,6.6,263,5.7,250.8c-2.4-35.4,14.1-76.6,44.1-96.7c23.9-14,55.5,16.9,74.6,29.8C128.9,189.1,115.9,205.2,133.2,216.4z"
		/>
	<path class="st0" d="M141.3,630.9c-31.1-3.2-40.2-3.7-48.7-37.3c0-3.5-4.4-10.7-0.7-12.7c31.3-14.1,64.6-22.2,98.6-26.4
		c2.1-0.3,3.2,0.1,3.8,2.4c4.8,19.7,16.3,41-2.7,56.8C177.6,627.3,160.5,629.8,141.3,630.9z"/>
	<path class="st0" d="M376,656c-0.3,4.6-7.6,16.5-1.2,18.2c15.7,6.9,37.9-1.9,48.3,15.1c-1.7,3.7-8.9,8.2-4.6,12.2
		c8.6,9,17.3,18,25.9,27c2.6,2.7,4.1,2.5,5.9-0.9c3.1,4.5,10.5,8.1,8.5,14.3c-1.6,2.9-0.5,8.2-3.7,9.8c-18.4,0.3-38.9,1.9-56.3-3.5
		c-5.9-9.9-15.7-16.6-22.9-25.6c-1.5-4-1.7-8.4-4.9-11.7c-2.6-4.3-7.6-7.8-9-12.7c2.2-14.8,4.8-30,13.4-42.6
		C375.6,655.8,375.8,655.9,376,656z"/>
	<path class="st0" d="M244.9,757.4c22.9,16.8,50.4,23.2,78.3,25.1c3.3,0.4,3.7-0.1,4.6-3.4c5.3-21.6,23.9-45.5,48.5-42
		c19.1,3,25.1,25.6,23,42.3c-6.1,14.1-58.6,16.9-73.6,16.8c-23.6-0.8-46.4-5.6-66.8-18.3C250.4,771.8,243,769.4,244.9,757.4z"/>
	<path class="st0" d="M191.5,549.4C156,553,122.1,562,89.3,576.5c-1.8-12.8-1.9-25.3-2.9-38.1c-0.1-1.7,1.1-1.8,2.1-2.1
		c8.9-2.7,17.7-5.6,26.6-7.9c21-5.4,42.4-8.6,64.1-9.7c1.6-0.1,2.3,0.4,2.8,1.9C185.1,530.3,188.6,539.7,191.5,549.4z"/>
	<path class="st0" d="M263,663.4c-3.9,16-2.5,19.4,14.6,22c9.1,0.7,15.2,5.1,18.7,13.4c0.6,1.3,0.4,2-0.8,2.9
		c-11.3,9.1-24.3,27.8-12.4,41.1c12.4,13.6,25.5,5.1,35.2-6.1c16.2,18.1,14.1,18.3,5,39.1c-0.4,1.1-0.7,1.7-2.1,1.6
		c-26.3-2.1-53.6-8.4-74.4-25.4c-3.8-18.1,5.8-72.3,15.7-88.8C262.7,663.3,262.9,663.3,263,663.4z M271.5,718.3
		c1.3-10.1-7.5-26.1-16.7-12.8c-5.9,9.3-10,33.6,2.7,38.7C269.4,744.1,270.9,727.3,271.5,718.3z"/>
	<path class="st0" d="M514.6,524c-0.8-6.2-0.8-12.1,0.1-18.3c25,3.8,50,4.1,75,1.1c0.7,16-1.7,33.1-9.5,47.4
		c-11.9,18.5-40.3,12.7-52.4-2.8c-2-3.2,4.7-10.5,1.9-17.9C528.3,526.9,521.8,518.5,514.6,524z"/>
	<path class="st0" d="M179.5,513.7c-32,1.6-62.7,7.6-93,18c0-12.3,0-24.3,0-36.6c27.2-6.4,57.4-15.2,84.9-6.7
		C175.6,495.6,176.4,505.2,179.5,513.7z"/>
	<path class="st0" d="M401.9,755.2c19.1,2.4,37.8,1.5,56.8,1.4c2,0,2.6-1.3,2.9-3c0.4-2.5,0.8-5,1.4-7.4c0.9-2.3,5.3-2.5,3.2-5.6
		c-2.7-10.2,19-24.5,28.2-25.6c17.5-4.6,26.1,16.4,24.3,31.2c-1.5,10.1-13.5,13.7-22,16.3c-23.9,6.4-49,3.5-73.5,3.9
		c-5.9-0.1-11.8-1.1-17.7-1.6C402.2,763.9,403.3,758.1,401.9,755.2z"/>
	<path class="st0" d="M170.1,482.2c-28.2-6.1-56.6,0.9-83.9,7.6c0.9-12.6,1.7-25,2.5-37.7c25.3-5.6,50.7-5,75.4,2.5
		C167,454.4,169.8,478.6,170.1,482.2z"/>
	<path class="st0" d="M515.7,500.6c0.9-10.8,1.7-21.3,2.5-32.1c23.1,2.5,46.1,0.6,69.4-4.8c1,12.8,2,25.2,3,37.8
		C565.2,504.8,540.4,504.4,515.7,500.6z"/>
	<path class="st0" d="M370,719.4c-22.9-4.8-46.5,4.6-62.7,20.7c-9.2,11.4-27.9-1-22.9-14.1c7.5-22.3,32.3-34.3,54.8-33.5
		c6.4,0.3,12.2,2.2,16.4,7.6C360.3,706.7,366.3,712.1,370,719.4z"/>
	<path class="st0" d="M188,623.7c9.2,27.2,15.8,59.6,4.3,87c-3.9,7.2-9.5,11.7-18.2,11.2c-22-2.2-1.7-41.8-0.9-55.2
		c2.4-11.5,1.3-23.4,0.6-35C176.2,627.8,183.8,626.5,188,623.7z"/>
	<path class="st0" d="M165,422c-21.6-10.1-44.1-14.9-68.2-13.4c1.6-4.5,8.4-35.8,12.3-34.1c20.1-0.9,39,6.2,55.4,17.4
		C168.2,393.5,164.9,416.7,165,422z"/>
	<path class="st0" d="M165,449.7c-24.8-7.3-49.8-8.7-75.4-2.7c1.4-11,3.5-20.8,5.6-31.4c1.9-5.1,24.1-0.6,29.6-0.8
		c12.4,1.2,23.7,5.9,35,10.5c5.1,2.1,5,2.1,5,7.6C164.6,438.6,165.2,444,165,449.7z"/>
	<path class="st0" d="M580.1,425.4c2.2,11.2,4.4,22.1,6.6,33.4c-5,2.5-74,11.2-68.2,1.7c8.7-7.7,9.6-18.2,11.1-28.7
		C546.5,431.8,563.2,429.6,580.1,425.4z"/>
	<path class="st0" d="M112.5,632c6.1,1,11.8,2,17.9,3c-0.7,26.5-12.9,62.9-43,66.6c-13.5-1.4-12.7-19.7-2.1-25.8
		C100.2,665.4,108.9,649.6,112.5,632z"/>
	<path class="st0" d="M168.4,388.4c-17.1-13-37.9-19.4-59.3-19.1c2-4,12.5-33.6,15.8-31.3c12.5,1.7,23.9,6.1,34.7,12.4
		c3.3,2.8,13.9,6.8,14,10.9C171.9,370.2,170.2,379.1,168.4,388.4z"/>
	<path class="st0" d="M536,565.7c4.2,2,14.3,2.5,16.1,6.3c2.6,25.6-11.3,47.3-34.2,58.3c-16.4,6.9-21.2-18-8.1-24.9
		C524.3,596.9,533.5,582.4,536,565.7z"/>
	<path class="st0" d="M144.8,635.8c5.3-0.5,10.5-1,16.4-1.5c1.2,25.2-6.6,53.1-29,67.3c-4.2,2.6-8.6,4.4-13.6,4
		c-5.1-0.2-9.7-6.1-6.4-10.4c5.6-5.5,10-11.9,13.8-18.8C134.4,663.9,143.2,651.3,144.8,635.8z"/>
	<path class="st0" d="M446.6,723.2c-7.9-8.2-15.7-16.4-23.7-24.6c11.8-14.3,35.9-30.2,53.1-16.1c5.4,5.7,12.4,9.6,16.8,16.3
		C471.8,696.9,457.2,706,446.6,723.2z"/>
	<path class="st0" d="M319.1,619.4c-15,3.2-29.6,3.3-44.1,0.1c0.7-12.1,1.4-24,2.1-36c13.3,3,26.5,3.1,40.2-0.1
		C317.9,595.4,318.5,607.3,319.1,619.4z"/>
	<path class="st0" d="M338.7,687.2c-13.3-0.2-25.6,3.4-37.1,10.2c-7.6-17.7-18.8-8.7-9.1-32.7c4.7-9.4,15.5-12.2,22.8-11.7
		C332.3,654.4,333.9,674.5,338.7,687.2z"/>
	<path class="st0" d="M578.9,420.4c-16.6,4.3-33,6.3-49.5,6.3c-1.2-4.6-2.4-9.1-3.7-13.7c23.2-5,15-24.3,25.5-25.9
		c5.5-1.1,10.8-2.9,16.7-4.6C571.6,395.1,575.2,407.6,578.9,420.4z"/>
	<path class="st0" d="M175,354.1c-14.9-10.7-30.8-18.6-49.3-21.2c2.3-3.8,13.7-27.2,16.8-25.7c15.5,1.4,28.4,10.2,37.9,22.2
		C181.9,335.9,176.2,346.7,175,354.1z"/>
	<path class="st0" d="M207.4,596.5c10.6,7.2,21.7,12.4,33.9,15.9c11.1,2.7,15,18,4,23.9c-18.8,11-36.1-6.5-45.3-21.7
		C198.3,612,207,603.2,207.4,596.5z"/>
	<path class="st0" d="M385.2,617.3c19.1,2.8,23.3,2.2,40.7-2.6c0.7,8.5,1.3,17,2,25.5c-10.3-0.3-18,3.5-22.9,12.6
		c-4.3,5.3-14.2,1.6-20,0.5c-1.1-0.3-1.7-0.8-1.6-2.2C384.1,639.8,384.4,628.5,385.2,617.3z"/>
	<path class="st0" d="M274.5,624.6c14.8,3.1,29.6,3,44.7,0c0,7.9,0,15.6,0,23.3c-11.7-0.9-23.9,2-30.4,12.7c-0.4,0.6-1.6,1.2-2.3,1
		c-4-1.5-14.5-1.6-16.2-5.3C271.6,645.9,273.1,635.5,274.5,624.6z"/>
	<path class="st0" d="M421.9,578.3c-0.3,4.8,5.7,30.9,1.7,31.5c-12.6,4.6-25.3,5-38.7,1.8c0.1-7.9-0.1-16-0.2-23.9
		c2.3-4.9,8.8-7.1,12.8-10.8c4-1.8,8.8,1.7,13.1,1.6C414.1,578.9,417.8,578.5,421.9,578.3z"/>
	<path class="st0" d="M488.8,575.2c-7.9,0-17.3-4.4-17.7-13.3c-0.9-11.2,13.5-10.3,21.1-13.1c15.7-2.9,25.2-25.8,29.1-20.5
		C536,541.4,503.7,577,488.8,575.2z"/>
	<path class="st0" d="M448.7,674.2c-7.9,2.2-15.4,5.5-21.6,11.3c-4.6-5.9-10.2-10.3-17.7-11.6c-1.3-0.3-2-0.8-2.2-2.2
		c-4.3-17.1,14.6-35.7,29.4-21C442.5,657.4,444.6,666.2,448.7,674.2z"/>
	<path class="st0" d="M323.4,733.7c14.1-8.3,42.6-19,53.5-1.8c-18.1-2.4-30.7,7.2-41.5,19.3C331.5,745.5,327.5,739.7,323.4,733.7z"
		/>
	<path class="st0" d="M499.9,709.2c-17.1,1-28.6,10.3-37.9,23.3c-3.2-2.7-5-7.3-10.5-8C460.9,709.5,484.3,694.6,499.9,709.2z"/>
	<path class="st0" d="M501.9,605.1c-9.4-6.8-18.2-19.7-2.4-24.9c8.4-2.4,15,4.4,22.1,7.9C516.5,595.4,508.9,599.5,501.9,605.1z"/>
	<path class="st0" d="M556.8,351.5c3.2,8.9,6.3,17.4,9.4,26.2c-6.4,1.8-12.6,3.6-19,5.4c0.2-8.6-0.7-16.7-3.9-24.8
		C548.5,357.6,552.9,355.6,556.8,351.5z"/>
	<path class="st0" d="M171.8,297.5c2,21.6,16,19.9,11.2,27c-10.3-11.9-22.7-20.1-39.2-22.3c2.5-3.5,4.7-6.7,7.1-10.1
		C157.2,297.7,164.6,298.1,171.8,297.5z"/>
	<path class="st0" d="M401.8,672.9c-7.9,0-15.6-0.5-23.1-2.6c-2.9-0.9,2.1-9.9,2.3-12.9c6.8,2.3,13.7,3.5,20.9,2.9
		C401.8,664.5,401.8,668.5,401.8,672.9z"/>
	<path class="st0" d="M268.3,662.7c5.9,1.5,11.6,2.9,17.2,4.3c-0.7,4.5-1.4,9.2-2.1,13.9C267,678.2,264,680.5,268.3,662.7z"/>
	<path class="st0" d="M277,578.1c0-3,0-5.8,0-8.2c4.1-1.8,7.9-3.5,12.1-5.4c3,7.2,8.8,12,16.1,15.5C295.7,581,286.3,580.5,277,578.1
		z"/>
	<path class="st0" d="M577.1,565.7c-1.2,10.3-6,18.4-15,24.6c1.3-6.3,2.3-12.3,3.3-18.6C566.3,567.7,573.6,567.8,577.1,565.7z"/>
	<path class="st0" d="M524.5,555.3c3,2.9,7,5,6.9,10c-20.5-1.8-15.9,13.7-25,9.4C512.3,568.3,518.3,561.8,524.5,555.3z"/>
	<path class="st0" d="M530.3,570.8c-1.7,4.3-3.5,8.6-5.3,13.3c-3.5-2-6.5-3.7-9.4-5.4C517,573,524.8,568.9,530.3,570.8z"/>
	<path class="st0" d="M139.5,635.7c-0.8,6.6-2.7,12.8-6,18.5c0.7-5.1,1.4-10.3,1.8-15.5C135.5,635,135.5,635,139.5,635.7z"/>
	<path class="st0" d="M557,570.7c1.3,0,2.3,0,4,0c-1.2,6.2-2.4,12.2-3.5,18.3c-0.1,0-0.3-0.1-0.4-0.1C557,582.9,557,576.9,557,570.7
		z"/>
	<path class="st0" d="M348,688.3c-3,0-3.4-0.7-3.4-4.8C345.8,685.1,346.9,686.7,348,688.3z"/>
	<path class="st0" d="M452.4,669.1c1.8,1.2,3.1,2,4.5,2.9C454.8,673.7,453.6,672.8,452.4,669.1z"/>
	<path class="st0" d="M416.3,347c-45.9,1.2-89.8-26.9-106.1-70.2c-4-10.4-4.9-21-1.6-31.8c7.7-25,41.1-39.5,66-20.6
		c24.6,18.4,55.5,37.2,81.5,9.8c18.7-24.8,55.7-17.8,62.2,11.3c5.9,29.1-13.3,57.7-32.8,77.6C466.8,341.2,441.5,346.5,416.3,347z
		 M426.4,300.5c53.3,4,78.8-61.4,62.7-46.5c-11.3,30.8-45.1,47.6-76.6,39.8c-23.9-4.5-43.5-16.3-59.2-34.8c-1.2-1.4-2.4-2.3-4.2-1.1
		c-1.4,1-1.3,2.4,0.2,4.3C370.1,286.4,396.7,299.5,426.4,300.5z"/>
	<path class="st0" d="M415.8,96c78.6,1.2,78.9,118.4-0.7,119.7C337.1,213.1,337.5,97.3,415.8,96z M404.2,188.6
		c35.2,0.2,35-53.5,0.3-53.5C369.3,134.8,369,188.6,404.2,188.6z"/>
	<path class="st0" d="M254.1,726.2c0.9-7.5,1.6-16,8.3-20.7C273.8,715,258,760.2,254.1,726.2z"/>
	<path class="st0" d="M394.1,161.9c-8.7,0.1-8.6-13.4,0.2-13.2C402.7,148.8,402.7,162.1,394.1,161.9z"/>
</g>
</svg>
