<?xml version="1.0" encoding="utf-8"?>
<!-- Generator: Adobe Illustrator 26.0.0, SVG Export Plug-In . SVG Version: 6.00 Build 0)  -->
<svg version="1.1" id="Capa_1" xmlns="http://www.w3.org/2000/svg" xmlns:xlink="http://www.w3.org/1999/xlink" x="0px" y="0px"
	 viewBox="0 0 595.3 478.3" style="enable-background:new 0 0 595.3 478.3;" xml:space="preserve">
<style type="text/css">
	.st0{fill:#FFFFFF;}
</style>
<g>
	<path d="M429.2,357c-5,17-24.9,29.9-39.3,14.8c-5.7,12.1-15,18.9-28.6,19.6c-0.7,7.9,0.5,15.8,3.1,23.3
		c4.3,11.3,18.2,9.2,23.5,33.4c-0.7,7.7,5.6,5.6,4.3,14.4c-1,3.8,0,10.8-4.5,12.1c-18,5.4-37.3,4-55.8,1.9c-3.2-0.6-6.2-1.4-9.6-0.7
		c-1.9,0.4-4.1,0-6-0.7c-10.5-4.2-0.1-14-7.4-19.8c-7.2-6.6-2.7-20.3,6.1-23.3c0.5-0.2,1.1-0.8,1.3-1.3c3.5-10.5,5.7-21.2,6.7-31.7
		c-8.7-1.4-16.2-4.3-23.4-9.2c-5,3.5-10.7,6.1-16.8,7.8c-0.3,9.8,0.4,20.1,1.2,29.9c0.1,1.3,0.3,2.3,2,2.5c7.2,2.3,8.6,14,4.3,19.5
		c-1.2,1.9,0.2,4.7-0.4,6.6c-1.2,5.8,4.6,14.9-3.5,17.9c-4.3,1.6-8.9,2.2-13.3,1.3c-9.1-2-18-1.5-27.1,0.6
		c-19,3.5-69.1,3.8-57.7-27.2c-1.8-13,10.1-17,20.3-19.9c6.8-2.2,12.9-5.6,18.6-9.7c2.5-2,6.7-1.9,8.6-4.7
		c4.6-7.8,6.8-16.4,8.5-25.2c-15.4,1.6-25.8-5.3-32.8-18.6c-14.6,14.9-33.9,2.9-39.4-14.2c-18.3,6.1-29.4-13.6-31.2-29.1
		c-2.7,0.4-7.5-1.3-8.9,1.6c-15.2,29.9-36.2,57.6-62.1,79c-1,0.7-1.4,1.3-1.1,2.5c1.7,7.7,3,16.7-4.8,21.5c-5.4,3.6-11.3,4.1-17.1,1
		c-7.8-3.8-6-13.6-3.3-20.5c-1.7-1.1-3-1-4.4,0.5c-3.5,3.8-7.2,7.5-11,11c-12.8,12.1-30.1-4.4-20.7-18.7c-12.9-6.8-7.5-26,6.2-27.7
		c-4-4.7-4.7-11-1.5-16c4.1-7.1,13.5-7.5,20.4-4.3c28.2-16.3,52.5-42.3,70.7-69.8c0.3-0.5,0.6-1.5,0.4-1.9
		c-8.4-13.3-4-29.7,3.1-42.4c-18-5.6-10.7-26.8-3.1-37.9c-4.2-1.4-7.3-4-9.1-8.2c-10.9,8.3-24.7,10.5-37.7,6.8
		c-2.8-0.7-5.7-2-8.3-1.7c-2.6,0.4-4.9,2.5-7.4,3.9c-6,4-20.1,7.3-19-4.1c2.1-21.4,9.5-40.4,24.8-56.1c-6-4.3-10.1-9.9-12.4-16.7
		c-1.9-4.3-1.4-10.1-5.1-13.3c-3.7-2.8-8.3-4.7-10.8-8.9c-2.7-4.1-1.5-7.9,3-9.5c5.3-1.8,10.6-3.6,16.1-4.7
		c22.7-5,48.8,2.5,62.1,22.4c5.2-3.5,11-4.6,17-4.2c4.1-27.7,17.5-51.9,39.9-68.9C205.4,7.7,272.7-11.9,331,7.9
		C360.5,18.3,375.7,41,387.5,68c5.1,2.1,7.4,6.9,8.2,12.1c10-2.2,20.6-4.6,30.4,0c7.5,2.9,10.8,10.3,9,18.1
		c14.3,0.2,39.1,10.5,25.8,27.8c10,1.5,19.9,3.6,28.3,9.4c11.7,7.6,12.9,24.3-2.2,28.9c11.7,8,26.7,29.2,10.1,39.5
		c-2.3,1.2-2.3,1.3-1,3.5c7.2,10.2,12.6,31.4-4,35.3c6.9,11.9,11.1,26.1,5.7,39.5c2.4-1.8,5.7-2.3,6.7-5.2
		c4.8-20.6,12-38.6,36.2-39.2c1.3-5.5,2.6-11.6,8.3-14c9.1-3.5,19.6-7.3,15.6-19.3c-2.4-7.1-10.7-9.7-17.4-7.7
		c-6.7,1.2-6.6,8.9-10.6,13c-6.5,6.5-13.3-1.6-13.6-8.5c-2.6-33.4,37.7-40.3,58.6-25c25.8,18.8,12.2,61.5-19.2,64.6
		c22.2,9.7,22.6,29.4,19.9,50.5c-0.1,1.7,0.3,3,1.4,4.4c5.4,7,7.1,14.5,2.9,22.7c-2.5,4.9-6.8,8.1-11.7,10.1c-3.1,1.2-4.8,3.1-6,6.2
		c-3.8,9.6-8.8,18.6-15.8,26.4c-25.8,31.3-84.6,21.9-98.3-16.6C449,354.2,441.6,360.7,429.2,357z"/>
	<path class="st0" d="M478.4,294.8c-1.2,44.8-23.6,19.4-23.1,31.2c-0.8,8.5-3.5,16.9-9.7,23.1c-10,10.7-18.6-2.2-20.3,5.1
		c-3.6,15-22,28.5-33.5,12.5c-0.6-0.9-2.2-1.9-3.2-1.9c-0.7,0.1-1.4,1.2-1.9,2c-8.4,21.5-23.8,22.9-43.6,15.3
		c-5.3-2.2-7.3,8.8-17.3,10.9c-8.8,2.4-16.7-2.4-23.5-7.4c-2.7-2-2.8-1.9-5.5,0c-9.2,7.8-22.2,10.2-31.5,1.3c-2.8-2.4-5-5.3-7.5-8.1
		c-1.4-1.5-2.6-1.8-4-0.3c-12.3,13.7-34.8,3.7-39.3-12.6c-4.1-10-10,17.7-29.3,2.6c-4.7-4-7.5-9.2-9.5-14.8
		c-2-7.8-10.2,6.3-21.6-5.8c-6.1-6.4-8-14.8-9.1-23.2c-1.1-8.5-19.1,11.5-23-23.1c-0.3-3.6-0.3-7.2-0.5-10.8
		c-0.4-6.7-11.1,3.3-16.7-12.7c-7.3-21.3,15.7-39.4,5.1-39.4c-17.7-0.9-7.7-24.7-0.9-32.8c5-7.9-15-0.5-10.1-18.6
		c2.2-7.2,7-12.6,12.6-17.3c1.8-2.2,6.8-3.2,5.8-6.8c-1.2-4.2,0.3-7.5,3.5-10.2c8.3-6.5,19.4-5.3,29.3-6.5
		c65.1-29.7,133.4-53,204.1-66.3c3.4-1.2,2.9,3.2,6.5,0.4c6.4-4.3,12.9-9.1,20.9-9.2c6.5-0.4,10.2,5.4,9.6,11.5
		c-0.5,8.7,19.2-7.5,34.7,2.1c5.7,3.2,6.7,8.6,3.4,14.1c-3.7,7.2,17.6,0.3,27.5,11c9.4,9.1-3,12.9-3.3,19.1c0.4,0.8,1.8,1.4,2.8,1.4
		c10.3-0.2,19.8,2.5,28.8,7.5c7.4,3.6,13.3,15.8,3.7,20.4c-2.2,1.1-4.7,1.4-6.9,2.3c-9.4,3.7,6.8,6.3,14,19
		c5.2,6.8,6.7,19.8-4.4,21.2c-3.3,0.5-3.9,2-1.9,4.7c6.7,7.3,16.4,31.7,0.1,32.5c-1.3,0-3.1-0.5-3.5,1.2c-0.3,1.1,0.3,2.6,1,3.6
		c4.7,7.3,7.9,15.1,8.7,23.8c1.1,9.4-3,21.9-14.4,21C477.1,287.2,478.7,292.1,478.4,294.8z M292.5,249.2c-11.5,0.4-23.5-1.3-35,0.4
		c-50.1,7.5-46.5,76-9.2,98.2c26.9,18.9,61.6,17.5,92.8,13.7c39.9-4.4,79.1-37.1,68.9-81.8C397.1,224.3,332.2,254,292.5,249.2z
		 M311.3,129.3c-78.4,1.9-74.7,115.4,0,116.1C387,243.5,387.3,130.8,311.3,129.3z M252.4,205.7c-8.3-76.2-110.9-50.7-96,18
		C167.8,281.5,255,270.6,252.4,205.7z M467.3,204.2c4-81.8-109.7-77.5-95.9,2.6C384.5,262.9,462,258.5,467.3,204.2z"/>
	<path class="st0" d="M120.6,123.6c0.2-14.4,3.2-27.7,8.9-40.7C155,66.5,185,56,213.4,45.1C252.3,31,292.6,21.9,333.2,15
		c13.9,2.7,26,15.1,34.6,26C281.1,55.7,197.8,79.8,120.6,123.6z"/>
	<path class="st0" d="M380.8,66.1c-3.9,1.2-8,1.6-11.1,3.6c-7.2,4.6-15.3,5.8-23.3,7.4c-40.8,8.5-80.9,19-120.2,32.9
		c-26.4,8.4-51.1,21.6-76.5,31.8c-9.6,0-18.8,1.6-27.9,4.4c-0.4-5.5-0.8-11-1-16.6c0-0.5,0.8-1.3,1.4-1.7
		c57.7-33.2,121-55.6,185.8-70.4c20.3-4.6,40.7-8.2,61.1-12.3c1.1-0.2,1.9-0.1,2.6,1C375.5,52.6,378.6,59.3,380.8,66.1z"/>
	<path class="st0" d="M540.3,242.5c-0.1,7.2,3.1,9.4,10,9.7c5.6,0.6,7.5-1.5,8.3-7.6c26.1,8.4,20,31.8,19,53
		c-0.2,3.7-1.7,6.4-4.8,8.2c-18.2,9.6-50,5.3-64.7-9.1c-2.2-2.4-3-4.9-2-8.2C512.5,268.5,514.3,242.5,540.3,242.5z"/>
	<path class="st0" d="M93.7,144.4c2.2,2.2,4.2,4.5,6.5,6.5c2,2.5,7.5,2,6.7,6.1c-0.4,3.5-0.6,7.1-1.1,10.6c-0.1,0.9-0.8,1.9-1.4,2.6
		c-5.1,5.3-9.5,11.1-10.4,18.6c-0.4,3.4-2.2,5-4.6,6.5c-12.5,8.7-26.8,6.2-40.6,2.4c-4.2-1-9.9,5.1-14.2,6.7c-2.7,1.1-9.3,3.1-8.1-2
		c2.3-19.4,8.6-38.2,22.9-52.1c1-1,1.7-1.2,3.1-0.6C66.4,156.2,80.9,150.6,93.7,144.4z"/>
	<path class="st0" d="M326.4,11c-67.1,11.7-131.2,32-192.1,62.7C168.9,19.3,266.2-8.6,326.4,11z"/>
	<path class="st0" d="M53,96c15.6,0.2,32.5,7,42.3,21.1c0.7,0.8,0.8,1.5,0,2.4c-4.6,5.5-5.7,11.7-3.9,18.6c0.2,0.8,0.8,1.6-0.5,2.2
		c-7.5,4-15.3,7.3-24,7.5c-18.3,0.9-29.3-15.4-31.6-32.2c-1.1-3.7-8-5.8-11-8.6c-2.1-1.9-4.4-4.7-0.2-5.7C33.1,98.1,42.2,96.1,53,96
		z"/>
	<path class="st0" d="M553.3,247.8c-3.7-0.4-9.7,0.6-8.3-5c0.4-3.2,1.1-6.4,1.8-9.6c2.5-11,28.7-5.3,22.3-30.7c-1-3-2.7-5.4-5.3-7.1
		c-6.1-4.1-12.8-4.9-19.7-2.2c-4.1,1.6-6.6,4.6-7.9,8.8c-0.8,2.7-4.1,8.3-6.8,4.2c-10.8-26,23.5-39.9,43.7-29.7
		c31.3,14.2,17.3,60.8-15.6,60.4C553.9,236.8,554.5,244.6,553.3,247.8z"/>
	<path class="st0" d="M67.7,404.3c-2.2-12-17.7-11.6-21.2-1.3c-0.8,1.7-0.6,4-2.5,5c5.6-11.1-5.8-19.8-16.1-14.6
		c-5.1-13.4,1.2-27.1,12.4-35c0.5-0.4,1.8-0.3,2.5,0c16.2,6.7,27.1,20.4,32.5,36.8C77.1,397.8,69.6,401.9,67.7,404.3z"/>
	<path class="st0" d="M79.7,393.5c-6.2-18-17-31.1-34.1-38.9c7-5.3,13.4-10.4,19.9-16.1c0.9-0.8,1.6-0.9,2.7-0.4
		c14.4,6.9,27,18.8,29.4,35C91.8,379.8,85.9,386.4,79.7,393.5z"/>
	<path class="st0" d="M257.2,438.4c-5.5,5.2-3.6,15.1,3.8,17.1c4.1,1.9,10-0.1,12.2,4.9c-15.8,2.7-30.6-1.2-45.5-5.5
		c5.9,0.1,13.6-2.6,13.6-8.9c0.1-3.6-2.2-6.8-6.5-8.3c-11.1-4.9-25.1,8.3-11.3,15.6c-10.2-1.8-20.5-3.7-30.9-5.6
		c-2-9.8,10.3-12.3,17.5-14.7c7.1-2.3,13.7-5.8,19.6-10.5c2.1-1.7,4-2,6.5-0.7C244.5,425.8,251.6,431.2,257.2,438.4z"/>
	<path class="st0" d="M581.8,301c4.1,6.3,3.4,13.7-1.6,18.7c-21.7,16.7-54.8,10-75.4-5.9c-9.6-6.2-14.2-21.8-2.7-28.8
		C491,315,575,327.2,581.8,301z"/>
	<path class="st0" d="M102.1,368.1c-6.2-15.2-16.7-27.1-31.6-33.9c5-5.3,9.9-10.4,15-15.6c0.5-0.6,1.7-1.2,2.3-1
		c13.8,4.7,23.8,13.3,28.7,27.3c0.2,0.7,0.3,1.7,0,2.3C111.7,354.2,106.9,361.1,102.1,368.1z"/>
	<path class="st0" d="M495.1,330.5c-2.7,17.1,2,32.2,15.3,44.4c-0.1,0.2-0.2,0.4-0.3,0.6c-11.4-0.5-45.5-8.4-42-24.2
		c1.5-10.8,7.2-19.3,17.2-23.9C488.3,326.7,491.7,329.5,495.1,330.5z"/>
	<path class="st0" d="M315.2,458.6c12.1-1.4,7.7-11.5,8.3-19.7c8.2-11.9,23.3-21.4,37.9-15.5c-2.9,0.2-6-0.5-8.8,0.5
		c-4.2,1-5,6.6-1.1,8.5c5,3.4,20.5,5.9,20.2-3.2c5.2,2.5,12.5,16.8,11.4,21.9c-4.4-0.3-8.7-0.6-13.1-1
		C351.6,446.9,329.7,465.5,315.2,458.6z M325,446.4c0.7,15.3,19.5,9.4,17.9-3C341,430.9,324.9,436,325,446.4z"/>
	<path class="st0" d="M503,326.2c9.6,20.1,23.5,32.7,47.1,31.5c-7.3,8.8-21.9,18.6-33.4,16.5c-14.6-11.3-20-26.2-16.8-44.3
		C500.1,328.6,501.8,327.6,503,326.2z"/>
	<path class="st0" d="M319.6,471.4c-4.4,0.2-6.5-7.5-0.9-6.6c11.8,1,22.6-5.1,33.7-8.2c10.5-3.2,21-2.5,31.5-0.2
		c3.1,0.7,3.7,1.5,3.6,4.7c-0.5,2.8,0.2,8.7-3,9.8c-4.3,0.9-8.6,2.1-13,2.4c-11.7,0.3-40.8,2.5-49-5.7c-0.4-0.5-2.1-0.7-2.6-0.3
		C319.1,468.3,318.5,470.1,319.6,471.4z"/>
	<path class="st0" d="M286.1,462.3c0,2.2,0.2,4.1-0.1,5.9c-2.3,3.4-9.2,3.2-12.9,2.6c-18.8-4.3-37.2,5-56.2,1.6
		c-10-0.9-28.1-3.9-25.7-17.5c0.2-5,23.8,1.8,27.7,2.5C240.9,463.4,263.6,470,286.1,462.3z"/>
	<path class="st0" d="M565.2,332.2c-2.8,7-6.1,13.5-10.4,19.5c-21.7,6.9-42.3-10.2-48.3-30.6C525,332,544.3,336,565.2,332.2z"/>
	<path class="st0" d="M128.5,325.8c-3,5.4-5.4,10.4-8.5,15.5c-5.8-14-16.1-22.8-30-27.8c4.6-6.1,9.1-12,13.7-18.2
		C124.9,303.6,114.1,315.7,128.5,325.8z"/>
	<path class="st0" d="M116.1,115.6c-0.3,11,0.8,21.4,1.5,32.3c0.1,1.7-0.6,2.9-2.2,2.9C87.4,150.4,89.6,113.8,116.1,115.6z"/>
	<path class="st0" d="M327.6,398.9c9.6-0.7,19.2-1.5,28.5-2.2c0.9,5.8,1.9,11.8,2.9,17.9c-5,2.3-24.4,3.8-34.2,2.6
		C325.8,411,326.7,404.8,327.6,398.9z"/>
	<path class="st0" d="M278.1,418.1c-12.2-0.2-24.2-1.8-35.8-5.9c1.8-5.5,3.5-10.9,5.4-16.4c9.6,3.6,19.8,4.7,30.4,4.8
		C278.1,406.5,278.1,412.1,278.1,418.1z"/>
	<path class="st0" d="M9.2,414.9c0.1-4.9,2.2-8.1,5.8-10c5.4-2.9,11-5.5,16.6-7.8c4.9-2.1,12,1.8,8.6,7.6c-3.6,5.5-9,9.7-13.4,14.5
		c-1.2,1.1-2.4,2.2-3.8,3C17.3,426.6,9.1,421.2,9.2,414.9z"/>
	<path class="st0" d="M54.2,430.5c-6.7,0-10-4.5-8.1-10.9c1.5-5,3.1-10,4.8-15c1.7-4.9,7.6-6.7,10.7-3.1c2.8,4.6,2.3,10.7,3.5,15.9
		C66.4,425.1,61.9,430.5,54.2,430.5z"/>
	<path class="st0" d="M483.2,292.8c3-1,6-1.9,8.8-2.8c-4,10.6,1.8,21.1,10.2,27.6c0.8,0.7,0.9,1.3,0.4,2.3c-3,6-9.4,7.2-14.2,2.6
		C479.9,314.7,482.3,302.8,483.2,292.8z"/>
	<path class="st0" d="M269.5,452.7c-4.2-1.1-11-0.8-10.9-6.8c-1.1-6.8,19.4-10.1,24.7-11.4c3.9-1,4.2,6.1,5,8.6
		C288.3,449.3,274.7,452.3,269.5,452.7z"/>
	<path class="st0" d="M279.6,430.1c-31.1,10.7-8.7,4.2-40.7-12c0-0.2-0.1-0.5-0.1-0.7c0.8-0.3,1.7-1,2.2-0.8
		c12.2,4.3,24.9,5.5,37.7,6.2C279,425.3,279.3,427.8,279.6,430.1z"/>
	<path class="st0" d="M21.1,380.9c2.3,17.5,6.6,12.3-9.4,20.6c-8,0.3-9.7-12.2-3.1-16.6C12.1,382.2,17.2,382,21.1,380.9z"/>
	<path class="st0" d="M463.5,351.3c-5.3-7.5-7.2-15.1-3.2-23.8c8.5,1.4,15.1-2,19-10.6c1.2,2.3,2.4,4.3,3.6,6.6
		C471,328.8,465.4,338.6,463.5,351.3z"/>
	<path class="st0" d="M30.3,361.7c-3.5,4.2-6.2,8.5-7.6,13.5c-0.4,1.5-1.7,1.3-2.9,0.9C7.7,370.7,18,354.8,30.3,361.7z"/>
	<path class="st0" d="M319.5,447.5c-0.4,2.5,0.1,7-3.8,6.2c-4.1-0.6-6.1-3-5.8-7.1c0.3-3.8,1.5-7.2,4.9-9.4c1.9-1.2,2.5-1,3.1,1.1
		c0.8,3,1.2,6.1,1.8,9.2C319.6,447.4,319.6,447.4,319.5,447.5z"/>
	<path class="st0" d="M255.5,383.6c3.9,4.8,8.5,9.1,14.4,11.7c-0.1,0.2-0.1,0.4-0.2,0.6c-6.7-0.7-13.3-1.9-19.7-4.1
		c-0.6-0.2-1.6-0.9-1.5-1.2C248.7,386.4,252.6,385.6,255.5,383.6z"/>
	<path class="st0" d="M229.8,440.8c15.4,4.2,1.7,13.5-6.1,7.3C219.5,443.8,226.5,442.1,229.8,440.8z"/>
	<path class="st0" d="M356.5,391.8c-7,0.8-14.1,1.6-21.1,2.4c0-0.2-0.1-0.3-0.1-0.5c1.8-1.4,5.6-7.1,7.5-6.7c4.5,1.4,9.5,2.1,13.8,4
		C356.5,391.3,356.5,391.6,356.5,391.8z"/>
	<path class="st0" d="M320.7,434c-0.6-3.6,2.2-8.4,2.9-12.2c3.4,0.2,6.8,0.3,10,0.5C329.5,426.1,325.2,430,320.7,434z"/>
	<path class="st0" d="M285.2,453.2c0.7,3.9-0.5,4.9-3.9,5.7c-3.4,0.9-3.4,0.9-5-2.5C279.3,455.3,282.2,454.2,285.2,453.2z"/>
	<path class="st0" d="M116.9,293.3c0,1.3,0,2.9,0,4.5c-3.5-2.2-6.9-4.4-10.5-6.7c0.2-0.4,0.5-0.8,0.7-1.1
		C110.4,291.2,113.5,292.2,116.9,293.3z"/>
	<path class="st0" d="M354.3,428.5c4.4-1.3,8.5-0.7,12.3,1.7C362.2,431.4,358.1,430.8,354.3,428.5z"/>
	<path class="st0" d="M112.8,155.3c-0.4,3.1,0.5,6.4-1.3,9c-0.1-0.1-0.3-0.2-0.4-0.3c0.2-2.9,0.3-5.8,0.5-8.9
		C112.1,155.2,112.6,155.3,112.8,155.3z"/>
	<path class="st0" d="M290.3,253.5c17.8,0.9,35.5-0.2,53.1-2c21.3-3,47.1-4.3,58.1,18.4c15.5,30-3,65.5-32,78.5
		c-35,15.5-95.5,17.8-125.3-9.4c-28.6-22-27.8-79.6,13.8-84.7C268.7,253,279.6,253.6,290.3,253.5z M314.1,334.1
		c18.5-0.5,38.9-3,53.8-14.9c15.3-11,15.1-42.1-7.3-42.3c-21.6,2.1-42.9,6.5-64.8,4.9c-12.5,0.7-30.3-6.1-38.2,6.8
		c-5.3,8.7-4.3,17.3,0.8,25.7C270.1,332.8,294.4,334,314.1,334.1z"/>
	<path class="st0" d="M311.3,133.9c69.3,0.6,70,105.4,0.1,106.9C242.6,240.5,239.1,135.5,311.3,133.9z M335.6,195.2
		c-0.7-31.1-48-30.2-47.3,1.3C289.7,227.1,336,226,335.6,195.2z"/>
	<path class="st0" d="M248,211.2c0.8,46.6-68.5,66.1-85.4,17.7C139.8,161.6,245.2,132.1,248,211.2z M216.3,193.9
		c-26.2-0.1-26,39.9,0.1,39.8C242.3,233.5,242.3,193.9,216.3,193.9z"/>
	<path class="st0" d="M417.4,148.7c74.9,5.4,48.9,124.3-21,87C359.9,212.9,372,148.5,417.4,148.7z M427.3,203.5
		c0.2-26.1-39.8-26-39.8-0.1C387.4,229.3,427.1,229.8,427.3,203.5z"/>
	<path class="st0" d="M329.6,446.9c0-2.5,1.1-4.3,3.1-5.7c5.9-3.5,7.6,5.8,3.3,8.6C333.5,452.5,329.1,450.6,329.6,446.9z"/>
	<path class="st0" d="M287.1,327.1c14.7-22,48.7-23.9,66.7-4.7C331.8,330.8,309.6,331.1,287.1,327.1z"/>
	<path class="st0" d="M292.3,286.2c17.1,0.9,33.9,0.1,50.5-2.5c3.5,18.4-25.8,15.9-37.4,15.9C297.6,299.2,292.7,293.6,292.3,286.2z"
		/>
	<path class="st0" d="M298.9,189.5c0-9.8,14.8-9.6,14.8,0.1C313.5,199.1,298.9,199.1,298.9,189.5z"/>
	<path class="st0" d="M217.4,208.6c0.1,7.9-11.8,7.8-11.9,0C205.6,201,217.3,200.7,217.4,208.6z"/>
	<path class="st0" d="M402.6,204.3c-7.7,0-7.6-11.8,0-11.9C410.5,192.5,410.5,204.3,402.6,204.3z"/>
</g>
</svg>
