<?xml version="1.0" encoding="utf-8"?>
<!-- Generator: Adobe Illustrator 26.0.0, SVG Export Plug-In . SVG Version: 6.00 Build 0)  -->
<svg version="1.1" id="Capa_1" xmlns="http://www.w3.org/2000/svg" xmlns:xlink="http://www.w3.org/1999/xlink" x="0px" y="0px"
	 viewBox="0 0 595.3 538.4" style="enable-background:new 0 0 595.3 538.4;" xml:space="preserve">
<style type="text/css">
	.st0{fill:#FFFFFF;}
</style>
<g>
	<path d="M79.3,141c-8.7-5.9-11.8-15.9-5.8-26.2c12.3-19.6,39.2-21.8,59.9-17.3c-11.8-36.3,41.6-44.6,66.1-34
		c-0.1-25.8,32.2-28,50-18.6c18.4-55.2,44.4-62.2,70.6-6.5c0.4,0.7,0.7,1.4,1.2,1.4c4.7,0.2,9.5,0.1,14.1,0.8
		c8.4,1.1,13.8,6.9,13.8,16.7c18.8-11.8,58.9-9.7,51.6,20.9c12.7-2.6,25.8-3.7,37.8,2.2c12.9,6.4,17.7,22.2,10.3,34
		c24.1,3.1,50.2,23.6,37,50.8c23.7,6.4,42.4,39.2,20.2,57.8c15.3,9.4,27.1,28.2,22.5,46.7c-2.1,8.7-6.4,15.6-15.7,18.3
		c9.6,14.6,15.8,43.4-7.6,47.6c1.1,6.4,2.2,12.8,3.4,19.3c9.3-14.2,14.7-32.1,31.2-40c4.9-2.8,10.1-3.2,15.6-2.2
		c8.3-3.5,15.3-0.1,21.9,4.3c13.2,8.5,16.5,24.8,17.3,39.5c3.1,38.2-13.6,39.2-10.5,66.5c2.9,26.3-7.3,47.4-37,39.6
		c-2.1-0.3-3.8-1-3.7-3c-3.7-1-7-2-10.4-2.8c-5.1,0.3-6.5,4.7-13.1,0.6c-6-3.9-12.5-6.9-17.1-12.5c-4.9-0.8-5.7-1-8.1,3.6
		c-13.6,24.1-32.9,45.8-59.6,54.5c-12,12.9-32.2,24.1-39.8,1.9c-8.2,6.3-18.4,13-27.3,4.1c-1.2-1.1-2-1.3-3.6-0.6
		c-18.2,7.7-29.4-17.6-13-27c3.2-1.7,6.3-3.4,9.1-4.9c-1.4-3.8-0.7-12.9-7-9.9c-4.1,3.7-8.9,6.1-14.5,5.6
		c-4.1,0.3-11.3-4.1-14.2-1.9c-5.4,4.1-11.3,4.9-17.5,2.1c-2.3-1-3,0.9-4.7,1.6c3.6,3.7,4.4,7.9,3,12.8c27.9,1.4,25.5,36-0.6,32.1
		c-4.5,24.2-28.1,12.1-40.7,1.8c-0.2,24.4-29.9,20.9-38.8,3.6c-31.5-10.7-57.7-22.5-75.2-53.4c-13.4,4-26.2,10-39.1,15.5
		c-0.7,0.3-1.5,1-1.8,1.7c-3.9,8.1-13.3,11.5-21.6,12.4c-2.1-1.5-3.8-0.3-5.7,0.5c-3.8,1.6-7.4,3.4-10.8,6c-15,11.1-36.6,5.5-50-5.5
		c-14.1-11.1-9.1-31-12.7-46.6c-0.9-5.2-3.3-10.1-4.9-15.1c-8.9-28-4.2-72.2,30.2-78.9c-1.8-7.8-1.5-15.6,1.6-23.2
		c-26.6-3-24.1-37-12.7-53.9c-26.9-8.3-18-45.8-2.5-61.4c6.1-7,13.2-12.7,20.8-18.1c-26.6-8.2-9.4-41.6,7.7-50.9
		C58.3,147.3,68.6,143.8,79.3,141z"/>
	<path class="st0" d="M498.8,367.5c-2.4-3.9-4.6-7.3-6.6-10.9c-0.7-2.8,1.9-7.7-1.8-8.1c-5.5-0.9-1,11.2-13,14.9c-0.1-2.7,1-7-2.8-7
		c-1.6,0.1-2.6,1-2.5,2.5c0.4,11.1-5.9,18.3-14.2,24.1c-3.8,3.3-10.8,4-13.2,8.6c-0.1,1,1.2,2.2,2.2,3.9
		c-14.6,20.1-34.3,36.6-57.3,46.4c-6.5,2.9-12.8,6.4-17.5,11.9c-1.9,2.2-3.6,4.6-6.8,5.1c-0.9,0.1-1.9,0.9-2.5,1.7
		c-4.1,4.7-7.1-5.2-11.7,1.4c-12.7,12.9-21-3.4-29.4,4.2c-8.9,7.9-14.7-4.3-19,1.4c-2.7,3.2-6.1,4.1-10.1,2.8
		c-0.5-0.2-1.1-0.4-1.3-0.8c-4.2-5.9-10.4-8.9-16.8-11.5c-31-10.6-61.7-24.6-79.8-53.3c3.1-0.4,11.6,1.3,11.4-3.1
		c-0.1-2.1-1.7-2.5-3.6-2.5c-12.4,0.9-25.3-1.5-33.7-11.5c-1.8-2.4-4.6-8-7.6-3.9c-6.1,8.9-16,10-25.7,9.8c-4-0.6-4.4,5.4-0.4,5.4
		c1.3,0.1,2.6,0.2,4.1,0.3c0.6,5.2-10,10.4-14.3,11.8c-1.7,0.5-2.8,1.6-2.2,3.5c1.3,5.2,11.9-2.9,15.2-3.8c0,3.7,0,7.9,0,12.1
		c-5.3,0.2-28.1,1.1-28.6-5.8c-5.5-24.6-18.6-56.5-48.1-57.2c-6.3-0.1-12.7,0.1-19,0.4c-1.8,0.1-2.7-0.3-3-2.2
		c-1.3-8.3-0.6-16.2,4.8-23.2c1.6-2.4-0.3-5-2.9-4.2c-19.8,7.8-25-21.4-17.9-34.2c2.2-5,5.5-9.6,8.4-14.3c2.6-3,0.5-6.4-3.2-4.7
		c-5.5,1.9-9.8,0.4-12.9-4.5C5.1,255,15.5,233,29.7,220.8c6-5.5,12.8-10,19.3-14.9c1.5-0.6,2.8-2.5,2.6-4.1
		c-3.2-5.1-21.2,1.2-18.4-17.8c4.9-25.5,32.8-35.1,55.3-39.5c1.5-0.3,2.9-1.1,2.6-2.8c-3.4-6.8-17.6-4-15-18.7
		c7.6-25.6,48.8-27.4,68.1-14.6c4.3,2,4.4-4.1,1.4-5.5c-9.6-5.2-12.1-19.9-3.5-27.2c20.7-18.2,51.2-12.3,72.8,1
		c3.3,2.5,6.4-3.2,2.5-4.7c-3.8-2.6-9.9-3.6-12-8c-1.6-6.8,2.8-13.9,10.3-16.9c10.8-4.4,21.9-1.6,32.1,2.7c-0.9,7-3,13.8-4.2,20.8
		c-0.5,2.9-4.2,1.6-6.3,2.5c-2.5,0.5-3.6,1.8-3.2,3.5c0.4,4.1,12.9,0,16.5,1.4c7,0.9,12,5.8,16.8,10.5c5.3,6.2,6.4-6.2,15.6-11.6
		c10.4-7.2,22.4-4.1,28.1,7.1c2,4,2.6,4.2,6.3,1.7c7.4-5.2,15.6-7.7,24.5-8.5c1.5-0.3,2.3-1.3,2.1-2.9c-0.7-4.5-8-1-11.1-1.2
		c-3-9.2-6.1-18.3-9.1-27.3c4.5-2.1,14.4-0.2,17.7,3.4c2.4,2.6,2.4,5.7,1.9,8.8c-1.3,3.5-2.6,10.7,3.4,7.5
		c7.4-5.4,15.7-8.8,24.9-9.6c15.2-2.2,32.3,9.3,21.8,25.1c-2.5,2.5,0.2,5.9,3.2,4.4c12.9-4.7,28.1-6.2,40.6,0.3
		c10.8,4.8,15.1,26.9,0.8,28.2c-1.9,0-3.6,0.5-3.6,2.7c0,2.2,1.7,2.7,3.6,2.7c8.5-0.1,16.7,1.2,24.5,4.5
		c14.5,5.2,26.5,21.1,19.6,36.6c-0.6,1.5-2.1,2.9-3.5,3.7c-3.3,1.3-3,5.3,0.7,5.5c18.6,2.2,35.5,20.3,30.4,39.5
		c-1.4,6.1-5.9,9.7-12.2,10.1c-3.5-0.1-3.7,4.8-0.5,5.4c18.1,7,32.5,27.7,25.4,47.3c-1.9,6.4-6.9,10.5-13.6,10.9
		c-3.7,0.4-4.4,2.1-2.6,5.1c9,10,18.1,41.8-2.8,42.2c-6.1,0-6.4,0.5-4.1,6.2c3.4,8.4,4,17.2,3.2,26.1
		C502.6,364.3,500.2,365.8,498.8,367.5z M378.1,183.6c-0.3-86.9-134-86.7-134.1,0.3C246,270.7,376.8,270.1,378.1,183.6z
		 M237.9,209.4c-8.1-102.9-142.1-54-114.4,33.3C148.3,311.2,240.8,274.4,237.9,209.4z M317,432.4c26.4-1.5,53-5.9,74.9-21.7
		c47.8-24.3,79.6-158.5-2.4-146c-39.1,11.6-71.9,10.1-110.9-1c-12.4-3.1-24.8-4.6-37.4-2.1c-37.5,5.4-53.7,46.2-44.4,79.9
		C208.3,396.9,261.9,433.2,317,432.4z M481.2,224.8c-0.7-16.8-5.3-31.6-13.9-45.2c-23.2-39.7-75.3-39.5-79.4,11.8
		c-2.1,30.2,12.2,62.9,39.7,77.3C458.4,285.1,483.4,254.4,481.2,224.8z"/>
	<path class="st0" d="M61.4,439c-2.9,20.8,7,35.5-0.8,53.9c-10.5,21-43.9,9.6-43.7-12.8c-0.6-9-1.2-18-2.9-26.8
		c-6.6-20-13.2-40.4-5-61.2c4.6-15.9,27.1-23,37.7-9.1C60.7,397,59.5,422.2,61.4,439z"/>
	<path class="st0" d="M276.2,497.6c-15.3-0.2-16.4,4.7-17.9,13c-7.5-6-17.3-7.7-26.6-7.1c-7.2,0.7-9.5,6.8-8.9,13.5
		c-7.6-1.7-14.3-4.4-21.4-7.2c-1.8-0.6-2.2-1.7-2.3-3.5c-1.6-29.6,26.7-49.9,54.1-49.6c8.6,2,16.9,6.3,25.1,9.5
		c7,3.3,12.7,10.3,8.1,18.1C280.8,487.1,276.4,490.5,276.2,497.6z"/>
	<path class="st0" d="M554.5,436.3c-1.3-1.9-4.1-3.7-2.9-6.4c2.8-6.4,5.3-12.7,4.8-19.9c-0.4-5.8-3.7-9.5-9.5-10.1
		c-5.4-0.6-9.4,3.4-12.9,6.9c-9.8-12.3-25.4-20.2-32.2-34.5c4.2-5,8.3-9.7,12.3-14.5c1.6,13.1,20.5-5.4,18.2-14.7
		c-0.5-4.2-1-7.9-6.6-6.9c5.7-9.6,20.1-24.8,31.5-16c27.1,23.9,7.1,85.4-1.9,115.5C555.1,435.9,554.8,436.1,554.5,436.3z
		 M562.1,362.5c0.2-5.7-1.9-11.6-7.8-13.7c-12.3-3.6-19.9,12.8-16.7,23c1.8,10,14.1,12.3,19.9,4.2
		C560.6,372.1,562.1,367.5,562.1,362.5z"/>
	<path class="st0" d="M373.5,470.2c-7.2-14.3,22.1-24.2,31.6-29.5c24.9-2.7,58.4,11.7,55.6,41.1c-1.5,5.2-16.1,12.5-21.4,13.5
		c-1.9-21.5-25.6-6.9-28.9-11.6c-9.6-14.5-19.3,0-23.5-9.1C384.4,469.8,378.5,469.2,373.5,470.2z"/>
	<path class="st0" d="M269.2,82.9c-5.7-4.8-11.7-9.9-20.5-10.4c1.6-11.1,5.2-21.2,8.1-31.9c0.4-1.5,1.3-2,2.8-2.3
		c10-1.4,48.9-6.3,55,0.6c5.1,10.9,9.2,22.2,12.3,33.9c0.2,0.7,0,1.9-0.5,2.2c-3.6,2-7.3,3.8-11.1,5.7
		C302.8,60.5,282.2,66.6,269.2,82.9z"/>
	<path class="st0" d="M551.3,457.5c4.2-4.3,6.2-9.7,7.8-15.3c4-14.6,8.5-29.1,12-43.9c5.3-27.2,11.8-59.9-9.2-82
		c23.4,3.3,29.4,29.1,28,49.1c-0.3,11.7-2.3,23-7.9,33.5c-3.4,6.4-3.5,13.3-3.2,20.4c0.4,13.5,3,36.5-15,39.1
		c-4.1,0.4-8.2,0.1-12.3,0.1C551.4,458.1,551.3,457.8,551.3,457.5z"/>
	<path class="st0" d="M193.4,505.7c-8.2-4.5-15-11.2-22.5-16.7c-1.2-1-1.4-2.1-1.1-3.5c3.6-23,28-49.8,52.3-45.3
		c6.8,4.1,13.4,8.1,20.5,11.6C214.2,458.8,195.3,474.3,193.4,505.7z"/>
	<path class="st0" d="M23.4,371.2c13.2-8.7,33-7.9,39.6,8.1c11.3,21.5,15.1,45.9,15,70c0.2,21.3,5.7,58.9-25.4,58.4
		c9.3-5.3,14.1-11.5,15.6-22.2c2.5-11.3-1.7-22.1-1.9-33.3c-1.2-21.3,1.7-44.2-9.2-63.4C49.7,375.9,39,366.5,23.4,371.2z"/>
	<path class="st0" d="M466.7,477.4c-2.6-27.2-27.4-40.6-52.2-42.5c4.7-3.7,9.2-7.7,14.2-11c21.8-5.9,53.2,6.9,53.9,32.3
		c0,1-0.2,2.1-0.8,2.9C476.8,465.1,472,471.7,466.7,477.4z"/>
	<path class="st0" d="M213.5,433.9c-25.7,6.6-41.8,22.6-48.5,48.1c-0.2,0.1-0.4,0.2-0.7,0.2c-3.1-4.8-6-9.6-9.2-14.3
		c-3.4-4.8-3.1-9.6-1.2-15c7.2-19.7,26.5-31.4,47.3-28.5C206.5,425.5,209.2,430.8,213.5,433.9z"/>
	<path class="st0" d="M487.7,450.2c-4.5-18.1-23.5-34-51.8-33.1c2.2-3.1,5.3-5.3,7.4-8.5c9.4-11.7,34.7-6.9,44.8,2.3
		c4.9,4.3,8.7,10.3,9.3,16.8C495.6,435.7,492.5,443.1,487.7,450.2z"/>
	<path class="st0" d="M83.3,467.2c0.2-34.7,0.1-74.7-24.5-102c14.6-0.5,26.5,8.8,33.1,21c6,11.6,17.7,36.2,11,48.3
		c-0.4,0.6-1.3,1.3-2.1,1.3c-6.7,0.4-11,4.5-11.3,11.4c-1,9.6,3.3,13-5.1,20.3C84,467.4,83.6,467.3,83.3,467.2z M77.9,395.3
		c0.6,7.1,2.6,13.2,7.4,18.1c3.5,4.4,10.6,2.2,10.7-3.5c0.9-8.1-2.1-16.4-8.3-21.6C82,383.8,77.8,389.7,77.9,395.3z"/>
	<path class="st0" d="M197.9,418.6c-24,0.1-40.3,11.1-49.5,33.5c-2.3-7.3-3.2-14.3-4.5-21.7c-0.2-1.3,0.3-3,1-4.1
		c8.2-13.3,20.7-22.4,36.7-21.2C191,404.6,192.2,412.7,197.9,418.6z"/>
	<path class="st0" d="M511.4,446.1c4.8-5.9,9.6-11.5,14-17.3c6-7.4,9.9-17.1,17.9-22.6c11-4.4,7.7,10.5,5.6,16.1
		c-3.6,10.5-9.4,19.8-17.3,27.6c-4.7,4.7-5.8,4.8-11.5,1.6C517.2,449.8,514,447.6,511.4,446.1z"/>
	<path class="st0" d="M499.5,439.1c6.8-17.9,7.1-36.1,3.2-54.3c4.5,4.8,28.9,22.7,26.8,28.1c-4.8,7-9.7,14-14.7,20.9
		C509.2,440.8,508.8,440.9,499.5,439.1z"/>
	<path class="st0" d="M110.8,426.5c18.1-1,24.4,29.7,21.4,43.5c-0.4,3.2-15.3,7-18.9,9.1c1.2-10.7,2.4-21.6-1.3-31.9
		c-0.6-1.8-1.1-3.8-2.3-5.1C105,437.6,110.7,431.8,110.8,426.5z"/>
	<path class="st0" d="M259.9,32.9C275.7-4,291.7-3,310.5,31C293.4,29.6,276.8,30,259.9,32.9z"/>
	<path class="st0" d="M499.3,415.9c-11.4-16.8-27.7-21.2-47.4-18.5c2.6-3,3.8-6.4,7-8.5c4.8-2.7,8.3-8.1,13.4-10.1
		c9.9-0.4,21.7,2.4,26.1,12.3C499.6,399.3,500.7,407.7,499.3,415.9z"/>
	<path class="st0" d="M274.3,502.6c9.3,2.2,22.9,1.5,25.3,13.2c1.5,7.2-4,13.2-11.2,11.8c-11.2-0.7-39.8-23.2-14.3-24.6
		C274.2,502.9,274.3,502.7,274.3,502.6z"/>
	<path class="st0" d="M93.5,493.8c5.2-16.1,0.2-31.9,1.6-48c0.4-5,7.6-6.4,9.6-1.7C112,456.9,112.2,491.2,93.5,493.8z"/>
	<path class="st0" d="M405.6,486.5c-5.8,2.5-7.8,9.1-12,13.3c-3,2.2-6.6,3.9-9.2,6.4c-9.9,7.7-21.9-7.9-13.3-16.7
		c0.8-0.9,2-1.9,3.2-2.1c7.6-1.8,15.2-3.5,22.9-5C400.8,481.5,403.9,483.2,405.6,486.5z"/>
	<path class="st0" d="M236.2,508.5c5.6,0.5,11.8,1.5,17.3,5.2c9.9,5.3,5.4,20.4-5.2,19.5C235.5,534.7,217.1,508.5,236.2,508.5z"/>
	<path class="st0" d="M400.8,501.7c0.2-13.3,17.3-11.2,26.7-13.3c5.2-0.6,8.4,6.9,4.4,10.4C424.3,508.1,403.7,522.4,400.8,501.7z"/>
	<path class="st0" d="M281.7,498.3c0.8-15.7,21.4-5.4,30.6-4.5c6,1.4,9.5,7.5,7.7,13.2c-1.6,6-11.1,10.1-15.9,5.1
		C300.4,502.4,291,499.9,281.7,498.3z"/>
	<path class="st0" d="M363.8,502.9c-11.2,7.1-20.7-8.9-10.4-15.9c6.9-4,14-7.7,21.1-11.2c3.8-1.9,7.6-0.1,9.3,4
		C370.4,481.3,359.5,487.7,363.8,502.9z"/>
	<path class="st0" d="M142.7,418.4c0.5-5.9,1-11.9,1.7-17.8c0.1-0.5,1.1-1.1,1.8-1.3c6.1-1.8,12-4,16.4-8.6
		c3.8,3.1,7.5,6.1,11.6,9.4c-13.5,0.8-23,8.2-30.6,18.7C143.3,418.7,143,418.5,142.7,418.4z"/>
	<path class="st0" d="M148.2,466.2c-3.5,1.2-6.7,2.2-10.3,3.4c1.4-15.1-1.9-28.6-10.6-41c3.6,0,7.1,0,10.8,0
		C139.5,441.7,142.7,454.2,148.2,466.2z"/>
	<path class="st0" d="M474.7,373.3c0.5-5.5,9.6-4.5,14.5-11.8c3.7,5.6,5.4,11.7,7.1,18.4C489.4,375.4,482.3,373.6,474.7,373.3z"/>
	<path class="st0" d="M80.1,496.3c2.6-7.2,3.7-14,3.8-21c0.9-2.7,4.2-3.7,6.4-5.7c1.1,7.1,0.3,14.3-1.4,21.3
		C87.7,494.7,83.5,494.3,80.1,496.3z"/>
	<path class="st0" d="M537.1,452.5c3.8-5.2,7.5-10.3,11.2-15.4c2.4,2.9,6.8,3.6,4.3,8.1C550.6,452.1,544.1,455.9,537.1,452.5z"/>
	<path class="st0" d="M300.3,485.8c-2.6-0.5-5.3-1.1-7.9-1.6c0.4-2.7,0.7-5.2,1.1-8C298.5,476,303.4,481,300.3,485.8z"/>
	<path class="st0" d="M526.6,343.1c1,4.2-1.7,9.3-6.3,12.1C521.5,350.5,523.6,346.7,526.6,343.1z"/>
	<path class="st0" d="M366.7,464.6c0.5,2.6,1,5.3,1.5,8C364.4,476.1,362.2,466.4,366.7,464.6z"/>
	<path class="st0" d="M284.4,189.9c-11.1,4.4-20.7,10.7-29,19.7c-10-20.5-7.4-45.5,6.8-63.2c41.1-54.3,129.8-6.7,107.5,56.1
		c-8.9-7.1-18.7-12.1-29.5-15.2C350.9,133.8,268.5,137.8,284.4,189.9z"/>
	<path class="st0" d="M314.1,189.3c20.7,0.3,37.4,5.5,51.9,17.1c1.3,1,1.6,1.8,0.8,3.3c-10.7,20.6-27.6,32.5-50.7,34.3
		c-24,1.9-43.1-7.7-56.9-27.5c-1-1.4-0.9-2.3,0.3-3.6C273.1,197.7,294.5,190,314.1,189.3z"/>
	<path class="st0" d="M304.2,164.2c0,6.8-10.1,6.8-10.3,0.2C293.5,157.6,304.3,157.4,304.2,164.2z"/>
	<path class="st0" d="M231.5,222.5c-5.5-0.9-10.9-1.7-16.1-2.5c3.8-15.4-1.7-32.9-18.8-36.2c-21.2-4.4-37.9,23.1-27.2,41.8
		c-14.2,4.9-27.1,11.9-38.3,22.7c-34.2-66,69-136.9,99.1-56.2C233.2,201.8,233.7,213.8,231.5,222.5z"/>
	<path class="st0" d="M230.3,228c-6.5,22.6-24.3,42-47.9,45.9c-19.3,3.2-34.9-3.2-46.9-18.6c-1.3-1.7-1.2-2.6,0.3-4
		C160.8,228,197.4,221.3,230.3,228z"/>
	<path class="st0" d="M181.8,206.7c-6.6,0.2-6.7-10.3-0.1-10.3C188.4,196.2,188.7,206.6,181.8,206.7z"/>
	<path class="st0" d="M317,426.9c-53.7,1.1-106.2-35.2-115.6-89.6c-7.4-30,7.9-66,41-70.5c25.7-4.2,50.5,7.3,75.8,10.2
		c18.6,3,37.1,1.3,55.4-3c79.3-28.9,69.3,70.5,37.4,111.2C389.3,415,352.5,425.9,317,426.9z M393.6,309.6c0.5,2.3,1,4.4,3.5,3.9
		c5.1-1.6,1-11.4-8-8.4c-21.5,7.7-43.8,13.3-66.5,8.8c-24.1-1.2-73.9-26.8-84,6.3c-1.6,5.1-1.7,10.4-1.1,15.6
		c11.4,64.1,116.6,75,148,21c8-13.7,9.7-32.2-1.4-45C387.5,311.1,390.5,310.4,393.6,309.6z"/>
	<path class="st0" d="M475.7,232.5c-9.5-6.8-19.5-11.3-30.3-14.3c2.4-43.5-55.4-49.3-44.2-0.6c-1.6,0.5-3.4,1-5.7,1.7
		c-7.8-24.8-0.5-67.9,33.2-63C461.5,163.9,477.4,201.5,475.7,232.5z"/>
	<path class="st0" d="M397,224.7c26.1-8.8,53.9-3.2,76,12.6c1.4,1,2,2,1.3,3.7c-1.8,4.4-3.1,9.1-5.5,13.1
		C444.6,288.7,407.1,252.9,397,224.7z"/>
	<path class="st0" d="M412.8,203.8c-6.9,0.1-7-10.2-0.2-10.3C419.3,193.5,419.5,203.7,412.8,203.8z"/>
	<path class="st0" d="M541.9,366.8c0.5-4.8,1.9-8.9,5.7-11.8c3-2.4,6.2-1.6,8,1.8C561.8,367.9,545,386.9,541.9,366.8z"/>
	<path class="st0" d="M83.9,392.3c4.7,2.9,8.2,12.8,6.4,17.7C86,408.6,82,397.6,83.9,392.3z"/>
	<path class="st0" d="M253.8,359.6c8.3-10.7,21.3-14.2,33.8-17.5c0.9-0.3,2.1-0.2,2.9,0.2c8.3,4.2,17.3,6,26.5,6.6
		c8.4,0.7,17.1-0.4,25.5,0.4c9.7,4.8,18.5,11,24.1,20.5C337.5,395.1,281.1,390.5,253.8,359.6z"/>
	<path class="st0" d="M285.9,312.2c24.6,5.9,48.5,11.2,73.6,7.2c0.2,6.7-0.2,12.8-3.9,18.1c-10.2,11.4-43.1,6.6-56.7,2.5
		C284.1,335.9,285.8,324.9,285.9,312.2z"/>
</g>
</svg>
