<?xml version="1.0" encoding="utf-8"?>
<!-- Generator: Adobe Illustrator 26.0.0, SVG Export Plug-In . SVG Version: 6.00 Build 0)  -->
<svg version="1.1" id="Capa_1" xmlns="http://www.w3.org/2000/svg" xmlns:xlink="http://www.w3.org/1999/xlink" x="0px" y="0px"
	 viewBox="0 0 595.3 483.3" style="enable-background:new 0 0 595.3 483.3;" xml:space="preserve">
<style type="text/css">
	.st0{fill:#FFFFFF;}
</style>
<g>
	<path d="M135.8,328.8c-6.4,6.9-13.2,13.6-19.8,20.3c-0.6,0.6-1,1.6-1.1,2.4c-0.6,5.2-2.3,9.9-5.7,14.2
		c-7.1,9.6-16.3,18.4-28.4,20.8c-4.5,1.9-8.3,5.4-12.6,7.8c-1,0.6-1.2,1.2-1.2,2.3c1.1,10.2-0.6,21.4-12.8,22.8
		c-9.7,1.8-19.9-6.6-15.7-16.8c0.8-2.3,1.9-4.6,2.9-6.9c-1.4-1.2-2.6-1.3-4.1,0c-3.5,3-7.1,5.8-10.7,8.7c-14,12.4-32.1-5.4-20.4-20
		C-4.8,373-0.7,361,15.6,356.9c-8.6-11.3,5.4-26,17.9-19.7c1.5,0.5,3.7,2.4,4.9,2.1c2.1-1,4.6-2.3,5.8-4.1
		c6.6-9.9,15.3-17.2,25.5-23c4.7-2.7,9.6-3.9,15.1-3c0.8,0.1,1.8-0.1,2.4-0.5c8.8-6.3,18.6-11.1,26.6-18.3
		c-18.5-1.1-20.7-23.9-15.1-37.6c1.6-4.4,3.7-8.5,5.6-12.9c-17-5.3-9.5-27.6-1.5-37.9c-6.7-2.7-11-9.1-9.1-16.2
		c0.9-3.8,0.4-7.4-0.1-11.1C86.3,137,105.7,97.5,141,81.5C187.4,10.8,281.3-12.2,360.8,6c50,11,86,45.4,113.8,86.5
		c38.6,16.9,42.1,64.4,32.5,100.4c-1.5,9.4,2.1,16.2-8.6,21.5c-1.4,0.7-1.5,1.4-0.7,2.7c7.1,10.7,11.8,31.9-4.7,36
		c6.8,14.3,10.9,28.7,1.8,43.9c6.3,3.1,11.8,10.1,19.6,8.1c13.2-0.6,29.2,13.9,36.6,24.3c1.3,1.8,3.8,2.8,5.9,4.1
		c0.3,0.2,1.3-0.4,1.8-0.8c13.3-9.4,29.7,2.1,21.3,17.2c13.7,0.1,21.3,17.4,9.2,26.8c10.6,11.6-2.9,31.5-17.6,22.5
		c-4.6-2.8-8.7-6.2-13-9.4c-2.1-1.6-2.1-1.6-4.5,0.1c16.4,25.6-25.6,35-25.9,8.9c-0.3-2.8,1.5-6.8-0.9-8.9
		c-4.1-2.4-8.1-5.5-12.5-7.2c-11-1.9-19.3-8-26.1-16.5c-10.7-11.1-4.2-15.6-12.3-22.3c-12-11.6-5-4.7-19.1-6.6
		c-2.1,15.4-13.3,35.4-31.7,28.9c-5.9,16.5-26.6,29.8-40,13.2c-6,11.7-15,18.1-28.2,19c0.7,8.6,1.5,17.4,5.4,25.2
		c0.4,0.8,1.2,1.6,2,2.1c10.8,6.1,17.7,16.2,19.9,28.3c-0.7,5.9,4.3,5,4.1,11.1c-0.1,4.1-0.8,8.2-1.7,12.3c-0.3,1.2-2,2.4-3.3,2.8
		c-4,1.2-8,2.4-12.1,2.8c-15.1,1.3-30.3,1.1-45.3-1.2c-2.6-0.8-5.1-0.9-7.9-0.4c-5.4,1-10.2-1.7-11.1-6.1c-0.7-4.9,2-11.4-2.9-14.8
		c-7-6.8-2.3-20.6,6.7-23.4c0.4-0.2,0.9-0.7,1-1.2c3.2-10.4,6-21.1,6.5-31.9c-9.8,0.8-17.5-3.7-25-9.6c-9.7,7.2-20,9.8-31.7,3.9
		c-3.1,12-5.9,23.8-3.7,36.3c7.7,0.1,11.2,13,7.5,18.4c-2.9,5.2-1.3,11.5-0.5,17.1c2.3,11-12.5,11.8-20.1,10.4
		c-7.2-1.4-14.3-1.8-21.6,0.2c-17,4.7-72.9,4.7-62.2-24.2c-0.4-18,9-18.6,23.5-23.6c5.8-2,11.1-5.2,16-8.9c2.1-1.6,4.2-2.9,7-2.9
		c8.5-7.6,14-19,19.2-29.6c-10.2-3-17.3-9.4-21.5-19.2c-15,14.5-34.4,1.6-39.4-15.6c-17.1,5.2-28.1-12.4-29.8-27.1
		C136.3,329.1,136.1,329,135.8,328.8z"/>
	<path class="st0" d="M183.4,176.2c5.3-19.1,14.7-36,26.7-51.7c2.2-3,4.5-4.8,8.4-5c6.6-0.4,13.2-1.5,19.8-2
		c22.1-2,36.8,18.5,58.1,21c20.1,4.1,40.4-1,58.1-10.7c7.5-4.3,15.5-5.9,23.9-6c19,0.4,37.9,4,56.3,8.7c8.4,2.4,16.6,5.5,24.4,9.4
		c1.5,0.8,3.4,1.2,5.1,1.2c11.9,0.1,26.2,3.2,32.1,14.8c2.2,4.9,0.9,9.5-3.9,11.9c-2.9,1.9-8.4,1.1-10.3,4.2
		c-0.1,1.4,1.1,3.1,2.5,3.8c5.5,3.9,10.3,8.5,13.8,14.2c2,3.3,3.5,6.8,3.6,10.8c0.4,13.8-15.6,6.7-11,14.8c2.4,4.1,4.8,8.2,6.6,12.5
		c3.6,7.1,2.8,21.2-8,20.1c-2.7-0.2-4.7,1.8-2.8,4.2c8.8,11.4,15.7,46.1-6.9,45.3c-2.2-0.3-2.9,0.5-3.2,2.8
		c-0.6,5.8-1,11.6-1.8,17.3c-1.6,9.5-8.1,17.8-18.6,14c-7.1-2.8-2.2,16.9-14.6,26.6c-11.5,10.1-18.5-3.7-20.7,4.7
		c-2,5.4-4.8,10.2-9.1,14c-8.4,7.3-18.5,6-24.8-3.1c-0.7-1.1-1.4-2.3-2.9-2.1c-1.6,0.2-2,1.5-2.5,2.8c-8.1,21-26,21.1-44.3,13.2
		c-1.9-0.7-3.2-0.4-4.5,1.3c-6.2,8.9-18.2,12.7-27.7,6.7c-3.3-1.8-6.3-4.1-9.3-6.4c-3.8-3.6-8.1,5.3-17.5,6.5
		c-11.1,2.4-19.8-5.3-25.8-13.6c-2.1-2.6-3-2.8-5.3-0.6c-12.5,12.3-34.7,1.5-38.3-14.7c-0.7-2.6-3.2-3.1-4.8-1
		c-11.6,16.4-30.5,2.9-33.8-12.6c-1.9-8.2-12.6,7.7-23.8-9.5c-3.8-5.9-5.3-12.7-5.9-19.6c-0.1-9.7-13.3,5-19.9-11.8
		c-3.1-7.9-2.8-16.3-2.7-24.6c-0.2-6.4-14.1,4-17.2-17.2c-1.1-11.6,3.4-21.8,9.8-31.1c0.2-1,0.7-2.3,0.3-3c-0.4-0.7-1.8-1.2-2.7-1.2
		c-7.5,0.4-10.2-5.8-9.5-12.1c0.5-7.9,5.1-14.5,9.7-20.7c1.6-2.3,1-4-1.7-4.6c-17.7-4-4.5-24.7,4.9-30.9c2-2.7,11.5-4.9,6.5-9.1
		c-14-10.1,2.1-22.3,13.3-24.4c6.5-1.7,12.9-2.4,19.5-4.2c-8.1,17.6-9.7,35.8-1.8,53.9c0.3,0.8,0.7,1.4-0.3,2.1
		c-7.2,5.1-11,12.3-13.3,20.6c-8,24.6-6.5,58.8,23,68.1c48.8,15.5,79,11.8,84-46.1c2.1-14-1.3-29-13.1-37.9
		C218.1,175.7,200.3,169.5,183.4,176.2z M248.2,222.3c0.4,74.5,117.7,77.5,116.9-3.6C361.3,145.2,248.4,145.1,248.2,222.3z
		 M368.4,233.8c1.6,70.6,93.8,66.1,89.4-3.6C452.6,165.6,368.6,169.7,368.4,233.8z M297,357.8c24.9-0.2,44.2-7.2,63.4-20.8
		c38.4-29.3,13-85.4-33.2-54.9c-20.1,14.3-42.8,9.2-65.5,9.2c-20,2-29.4,18.9-23,37C247.4,349.8,277.9,357,297,357.8z"/>
	<path class="st0" d="M503.4,187.9c-4.2-4.7-8.3-9.4-12.5-14.1c22.4-8.3,6.8-31.8-10.3-35.3c-5.3-1.7-10.9-2.2-16.5-2.3
		c-15.7-6-31.2-12.8-48.2-14.9c-21.2-3.1-43.9-9.1-63.9,2.2c-5.9,3.3-12.4,5.9-18.8,7.9c-23.1,7.3-44.6,3.4-64.6-10
		c-6.7-4.5-14-8-22.1-8.5c-9.4-0.4-18.9,0.2-28.3,1.6c1.4-3.9,0.6-6.2-3-8.3c-15.9-7.2-34.7-3.3-50.1,3.6
		c-8.6,4.4-6.2,13.1-17.9,15.5c-10.6,2-21.7,3.2-30.7,9.8c-8.8,5.8-12,17-3.6,24.8c-5.6,4.2-10.1,8.5-14.6,13.9
		c-6.6-34.7,10.5-71.3,42.5-86.8c24.1-13.7,52.1-11,78.7-14.1c10.5-1.2,20-5.5,28.6-11.7c22.5-17.1,51.5-26.8,79.5-19.6
		c23.6,3.2,40.2,20.6,59,33.3c8.7,5.6,18.3,7.9,28.7,8.5c17.1,1,34,3.9,50.1,10.3c20.2,7.3,37.2,24.1,39.6,46.1
		C507.3,155.6,507.5,172.5,503.4,187.9z M343.5,84.1c0.6-21.1-18.8-57.5-42.8-38.6c-14.7,13.2-32.6,42.8-11,57.6
		C308.2,115.8,345.1,112.8,343.5,84.1z"/>
	<path class="st0" d="M154.1,182.1c-10.6-22.1-3.5-48.9,11.8-66.9c14-6.9,34.1-11.8,48.4-3.6c-16.2,19.6-30.4,41.1-36,66.2
		c-0.3,1.3-0.8,1.6-2,1.7C168.7,180,161.3,179.5,154.1,182.1z"/>
	<path class="st0" d="M160,218c1.9-12.6,7.3-24.4,17.3-32.3c1.3-1.1,2.6-1.5,4.4-1.5c9.6,0.3,19.1,1.4,28.4,3.7
		c5.8,2,13.5,1.5,16.9,7.4c5.8,9.1,8.2,19,8,29.7c0,1.2-0.4,1.7-1.6,1.7C208.5,227.1,183.8,225.6,160,218z"/>
	<path class="st0" d="M357,30.1c-3.5,2.5-7.1,4.8-10.2,7.6c-3,2.7-5.8,2.8-9.6,1.6c-14.5-4.7-29.3-6.1-44.4-3.6
		c-1,0.2-2.2-0.1-3-0.6c-5.4-3.5-11-6.7-16.2-10.4c3.3-4.7,6.5-9.3,9.8-14c3.3-4.6,3.3-4.6,9.1-4.9c10.2-1.5,20.1-0.1,29.9,2.6
		c5,1.8,24.7,3.8,26.2,7.2C351.2,20.4,354.1,25.2,357,30.1z"/>
	<path class="st0" d="M171,184.5c-45.5,45.7,12.5,132.2,61.2,69.4c-4.1,14.6-18.1,25.1-33.5,23.4c-20.7-2.9-47.5-4-58.4-24.7
		c-7.8-15.1-3.3-33.1,1.1-48.5C145.3,190.6,157.3,183.6,171,184.5z"/>
	<path class="st0" d="M224.9,231.7c3,0,6.1,0,9.4,0c-8.9,57.1-77,48-74.8-8.5c9.1,2,18.1,4.1,27.5,6.2
		C181.9,256.6,224.8,262.7,224.9,231.7z"/>
	<path class="st0" d="M279.9,7c-3.5,5.2-6.9,10-10.6,15.1c-12.6,8.6-27.7,13.8-41.3,21.2c-9.7,0.9-19.6-2.1-29.7-2.7
		c0.4-2.7-1.3-7.1,1.5-8.6C224.4,17.8,252,10,279.9,7z"/>
	<path class="st0" d="M429.1,52.3c-6.3-0.6-12.3-1.2-18.2-1.8c-4.5-0.6-9.4-0.4-13.6-2.4c-11.8-7-25.3-12.2-36.1-20.5
		c-2.8-4.6-5.4-9.2-8.4-14.2c4.3-0.4,8-2.6,12.5-1.3C384,18.1,423.1,32.5,429.1,52.3z"/>
	<path class="st0" d="M247.1,465.2c-14.8,2.4-28.9-0.9-43.4-5.1c11.6-0.3,17.4-12.9,5-17.7c-9.7-4.2-23.9,6.3-13.2,15.1
		c-9.3-1.6-19-3.3-28.8-5c-1.7-9.1,8.5-11.8,15.3-13.8c8-2.5,15.4-6.1,22-11.3c2-1.6,3.8-1.8,6.3-0.7c8.2,3.9,15.2,9.3,20.5,15.9
		c-3.4,6.4-4.5,14.7,3.6,17.6C238.5,462.2,245.2,459.9,247.1,465.2z"/>
	<path class="st0" d="M41.5,343.3c-3.8,18.5,11.5,39.7,30.1,43.4c-1.7,1.1-3.1,1.9-4.6,2.8c-0.4-1.8-0.8-3.8-3-3.5
		c-1.5,0.2-2.2,1.2-2.1,2.7c-0.6,7.6,3.8,19.4-3.9,24.1c-5.6,4.1-17.5,1.1-15.4-7.3c1.9-5.8,4.7-11.3,7.2-16.9
		c0.8-1.8,0.5-3.2-0.9-3.8c-3.3-1.5-4.2,3.9-5.5,6.1C22,384.2,23.5,354.3,41.5,343.3z"/>
	<path class="st0" d="M553.8,337.4c18.1,7.7,18.8,41.7-2,47.5c-1.4-2-2-7-5.3-5.7c-1.5,0.6-1.7,2-1.1,3.4c2,4.4,3.9,8.8,6.1,13
		c8.2,16-19.7,18.4-18.5,3.6c0.1-4.7,0.3-9.4,0.5-14.2c0.1-2.8-0.6-3.9-2.2-4c-1.5-0.1-2.3,0.9-2.8,3.8c-1.5-0.9-2.9-1.6-4.9-2.7
		C543,376.9,557.1,357.2,553.8,337.4z"/>
	<path class="st0" d="M97,372.2c-17.9,19.8-45.6,6.3-50.6-17c-3.3-13.1,5-23.9,15.1-31.7C55.8,346.2,72.8,372.5,97,372.2z"/>
	<path class="st0" d="M498.1,369.3c24.7-1.8,41.6-28.1,35.6-51.1c10.9,7.5,19.4,19.3,14.8,32.7C541.6,373.9,518,387,498.1,369.3z"/>
	<path class="st0" d="M357.4,427.7c-2.3,0.2-5,0.3-7.7,0.8c-5.2,0.5-6.2,7.2-1.4,9.3c5.2,3.2,20.2,5.4,20-3.7
		c5.1,2.7,12.4,16.9,11.2,21.6c-4.3-0.4-8.5-0.7-12.8-1.1c-19.2-3.1-38.6,14.5-54.9,9c0.2-0.3,0.3-0.5,0.3-0.5
		c11.9-0.7,5.9-12.8,7.9-20.1C328.2,431.5,343.4,422.8,357.4,427.7z M339.4,449.5c-1.3-16-22.1-7.4-17.8,5.6
		C325.4,466,339.9,459.6,339.4,449.5z"/>
	<path class="st0" d="M401.3,54.4c4.9,0.5,9.5,0.9,14.2,1.4c4.9,0.5,9.8,0.9,14.7,1.5c0.9,0.1,1.9,0.5,2.5,1.1
		c7.9,9,16.2,17.7,23.8,27c-17.7-5.4-35.8-5.8-53.9-8.6C400,76.8,401.9,58,401.3,54.4z"/>
	<path class="st0" d="M315.4,476c-3.7-0.9-4.6-2.9-3-6.6c24.7,2,39.3-16.2,67.4-8.3c6.9,0.6,3.7,8.4,3.1,12.9
		c-0.7,2.5-10.4,3.3-13.1,3.8c-14.3,1.3-28.8,0.7-43-1.5c-3-0.5-6-1.4-8-4.1C316.6,470,313.3,472.7,315.4,476z"/>
	<path class="st0" d="M260.5,467.6c-0.3,2.3,1.1,5.8-1.7,6.9c-7.6,3.1-15.5-0.4-23.3-0.6c-19,2.4-38,6.5-56.9,1
		c-6.8-1.7-15.8-7.1-13.3-15.3c1.3-4.7,24.2,2.1,28.5,2.8C216.4,468.7,237.2,474.4,260.5,467.6z"/>
	<path class="st0" d="M224.4,48.5c-1,3.1-2,19.9-4.4,19.5c-16.1,2.3-32.4,2.4-48.6,3.4c7.9-8.5,16.3-16.7,24.4-25.1
		c0.5-0.5,1.5-1,2.3-0.9C206.8,46.4,215.5,47.4,224.4,48.5z"/>
	<path class="st0" d="M128.3,330.4c-4.6,3.9-8.3,8.1-12.7,12.1c-10.5,4.8-22.1-5.3-23.8-16.1c-0.8-5.2-1-11.1,1.6-15.9
		c4.5-3,9-6,13.7-9.1C107.9,315.6,113.4,326.1,128.3,330.4z"/>
	<path class="st0" d="M395.9,74.7c-17.7-8.6-29.5-24.8-48.2-31.9c4-2.9,7.5-5.4,11.3-8.3c0.9-0.7,1.6-0.7,2.6-0.2
		c11.1,6.1,22.2,12,33.3,18.1c0.6,0.3,1.4,1.1,1.4,1.7c0.1,6.7,0.1,13.4,0.1,20.1C396.3,74.4,396.1,74.5,395.9,74.7z"/>
	<path class="st0" d="M283.8,37c-7.1,3.1-14.3,5.8-21.1,9.4c-12.5,6.3-22.4,16.4-36.3,20.1c1.1-3.9,1.6-17.6,4.2-19.1
		C244,41.6,257,33,270.6,28.7C275.1,31.5,279.6,34.4,283.8,37z"/>
	<path class="st0" d="M472.5,333.5c1-1.2,2-2,2.5-3.1c2.8-6.1,7.2-11.3,10.1-17.2c2.3-2.9,1.7-15.2,6.9-12.4
		c3.2,2.4,8.9,4.3,10.9,7.7c5.1,14.3-3.9,33-20.3,32.9C478.5,340.6,475.7,335.9,472.5,333.5z"/>
	<path class="st0" d="M486,346.1c16.6-3.2,25-18.9,22.6-34.8c17.3,6.3,18.2,21.8,6.7,35.9c-4.2,5.4-10.3,7.3-17,7.2
		C492.8,354.5,490,349.3,486,346.1z"/>
	<path class="st0" d="M86.9,314.8c-2.7,15.6,5.8,32,22.5,33.9c-4.3,3.8-7.3,9.3-13.5,9.1c-12.6,1-21.7-10.4-23.4-22.1
		C70.8,325.3,78.9,319.7,86.9,314.8z"/>
	<path class="st0" d="M217.6,417.3c4.1-5.6,7.3-11.8,10.9-17.7c0.3-0.5,1.2-1,1.7-1c8.4,0.8,16.4,3.2,23.8,7.2
		c0.4,0.2,0.8,1.1,0.7,1.6c-0.8,6.3-1.7,12.6-2.5,18.9C241.1,422.6,229.4,419.6,217.6,417.3z"/>
	<path class="st0" d="M356.4,422.2c-5.8-0.8-12.1-0.4-17.9,0.9c-6.1,0.8-12.1,1.3-18.2,2c0.8-5.1,2.2-10.4,2.8-15.6
		c-0.1-2.2,1-2.8,2.9-3.1c4.7-0.9,26-3.6,27.4,1.7C354.2,412.8,355.3,417.5,356.4,422.2z"/>
	<path class="st0" d="M561,385.4c4.2-3.2,7.3-7,9.4-12.2c4.5,1.7,9.1,3.1,13.3,5.2c7.6,3.9,4.6,16.6-3.2,17.7
		C572.7,396.9,567.4,389.3,561,385.4z"/>
	<path class="st0" d="M25.1,380.4c2,4.8,5,8.4,9.2,11.4c-6.8,4.8-17.1,17.8-24.9,8.8c-3.1-3.9-2.9-9.5,0.6-13.1
		C14.1,383.4,19.8,382.7,25.1,380.4z"/>
	<path class="st0" d="M243.9,457.4c-4.1-1.2-11.2-0.9-10.9-6.8c-0.9-6.7,19.8-10.1,25.1-11.3c3.5,0,3.9,5.7,4.6,8.3
		C262.8,453.9,249.1,457,243.9,457.4z"/>
	<path class="st0" d="M193.5,36.2c-0.2,2.3,0.6,4.6-0.9,6.4c-9.8,10.1-19.7,20.2-29.6,30.3c-3.4,2.2-8,2.6-11.8,4
		C154.3,68.6,182.6,41.2,193.5,36.2z"/>
	<path class="st0" d="M253.5,434.8c-29.5,9.4-7.5,6.9-40-12.6C218.8,422.2,254.9,428.9,253.5,434.8z"/>
	<path class="st0" d="M572.1,368.9c0-4.9,0-9.7,0-14.7c6.9,0.5,16.5-0.4,18.1,8.2c0.8,3.9-0.3,7.3-3.6,9.8c-1,0.8-1.9,0.9-3.1,0.4
		C579.7,371.2,575.8,370.1,572.1,368.9z"/>
	<path class="st0" d="M22.9,361.1c0,18.2,5.3,12.8-11.7,19.4c-7.4-0.4-8.1-11.9-2.2-15.9C12.9,361.8,18.5,362.3,22.9,361.1z"/>
	<path class="st0" d="M108.8,356.5c-2.9,10.3-15.2,13.5-23.7,8.4c-18.4-7.7-31.3-44.9-5.7-51C49.4,331.1,83.3,380.1,108.8,356.5z"/>
	<path class="st0" d="M486.6,353.6c18.3,17,43.2-6.8,41.1-27.4c-0.6-7.3-5.1-12.6-11.2-16.1c-0.1-0.1-0.1-0.2,0-0.9
		c24.6,7.1,12.2,41.2-4.6,50.7C503.9,366.4,489.1,364.9,486.6,353.6z"/>
	<path class="st0" d="M249.3,386.5c2.8,2.8,5.3,5.3,7.8,7.9c1.2,2.1-0.6,4.4-1,6.9c-7.8-3.9-15.9-6.5-24.6-7.5
		C231.2,389.6,240,394.4,249.3,386.5z"/>
	<path class="st0" d="M561.2,336.6c11.9-8.9,23.2,5.7,11.4,12.5c-0.9,0.4-1.9,0.8-2.4-0.5C568.2,344,565.1,340.2,561.2,336.6z"/>
	<path class="st0" d="M34,343.2c-3.8,3.7-6.9,7.7-8.9,12.5c-0.6,1.3-1.8,0.8-2.8,0.4C10.5,349,24.2,334.9,34,343.2z"/>
	<path class="st0" d="M315.5,451c-0.7,2.7,0.6,7.7-3.4,7.4c-4.4-0.5-6.6-3.3-6-7.8c0.4-3.7,1.7-6.8,5.1-8.8
		C314.9,439.1,314.6,449.1,315.5,451z"/>
	<path class="st0" d="M352.7,401.3c-9-1.7-17.6-1.5-26.3-0.3c3.2-1.1,9-9,11.3-8.1c4.5,1.4,9,2.8,13.5,4.2
		C353.4,397.8,352,399.7,352.7,401.3z"/>
	<path class="st0" d="M203.7,455c-15.7-2-1.5-13.7,6.2-6.3C213.1,452.5,206.9,455.3,203.7,455z"/>
	<path class="st0" d="M434,51.3c5.4,3.3,23.4,24.2,27,31.6C452.1,72.3,441.7,62.8,434,51.3z"/>
	<path class="st0" d="M215.4,183.8c-8.7-1.5-17.1-2.9-25.3-4.3C193.4,177.3,208.2,177.8,215.4,183.8z"/>
	<path class="st0" d="M325.6,429.3c-2.6,2.8-5.5,6-8.5,9.2c-1.1-1.2,1.3-5.7,1.5-7.5C320.6,429.9,324,429.8,325.6,429.3z"/>
	<path class="st0" d="M113.2,297.1c0.7,8.7,1.5,16.8,7,23.8C113.5,316,110.4,303.1,113.2,297.1z"/>
	<path class="st0" d="M259.6,458.1c0.7,3.7-0.8,4.8-4,5.4c-3.3,0.9-3.3,0.9-4.7-2.3C253.8,460.2,256.6,459.2,259.6,458.1z"/>
	<path class="st0" d="M362.7,435c-4.2,1-8.1,0.6-11.9-1.7C354.9,432.2,358.9,432.7,362.7,435z"/>
	<path class="st0" d="M194.1,230.1c3.2,0.3,6.1,0.6,9.1,0.9C201,235,195.8,234.2,194.1,230.1z"/>
	<path class="st0" d="M350.8,8.6c-1.9,0.9-5.5,0.4-12.8-2.1C342.2,7.1,346.3,7.8,350.8,8.6z"/>
	<path class="st0" d="M481.2,309.1c0.4-2.2-0.5-5,1.3-6.7c0.2,0.1,0.5,0.3,0.7,0.4c-0.5,2.1-1,4.2-1.5,6.3
		C481.6,309.1,481.4,309.1,481.2,309.1z"/>
	<path class="st0" d="M317,235c-7.6,0-65.8-2.9-63.9-10.7c-2.3-76.5,115.4-73.6,106.6,5.6c-0.1,1.1-0.6,1.5-1.6,1.6
		C344.4,233.4,330.7,234.7,317,235z"/>
	<path class="st0" d="M254.2,232.7c9.8,1.7,19.5,3.4,29.4,5.2c0.9,25.4,37.7,27.6,41.2,2c11-1,22.1-2,33.3-3.1
		C340.4,293.4,261.9,281.9,254.2,232.7z"/>
	<path class="st0" d="M290.6,238.4c3.1,0.2,5.8,0.5,8.7,0.7C297.4,242.7,292.3,242.1,290.6,238.4z"/>
	<path class="st0" d="M453,231.2c-26,5.5-52.1,4.1-78.3,1.6c-0.5,0-1.4-0.8-1.4-1.3c0.1-19.2,12.2-35.7,26.6-41.2
		C426.2,179.5,452.7,204.6,453,231.2z"/>
	<path class="st0" d="M427.5,239.6c8.2-1,16.8-2.1,25.8-3.3c-2.5,57.4-75.6,58.3-79.8,1.3c5.2,0.5,10.3,1.1,15.5,1.6
		c-3.2,21.9,27.1,30.9,36.1,10.9C426.3,246.9,426.7,243.2,427.5,239.6z"/>
	<path class="st0" d="M398.5,240c3,0,6,0,9.1,0C406.7,244.8,399.4,244.6,398.5,240z"/>
	<path class="st0" d="M298.2,353c-18.6-0.9-44-6.3-54.3-24.6c-3.9-8.2-4-21.3,6.4-28.3c19.5-12.1,48.7,7.9,80-14.2
		c40.4-27,60.1,22.1,27.3,47.1C340.1,345.6,320.5,352.8,298.2,353z M290.9,330c24.9,0,44.2-5.9,61.4-22.4c1.7-1.7,1.9-2.9,0.7-4.1
		c-1.1-1.2-2.5-0.9-4.1,0.7c-14.4,14.2-33,20.5-53,21c-10.9,0.3-21.4-1.4-31.2-6.3c-2.5-1.2-3.9-1.1-4.6,0.4
		C258,326,288.5,330.7,290.9,330z"/>
	<path class="st0" d="M315.6,80.6c-7.9-0.2-16-1.9-23.4-6.4c-4.7-2.8-4.9-3-2-7.7c4.3-7,8.7-14,15.7-18.8c14.3-9.8,26.8,8.8,30.4,21
		c1.2,5.6,3.3,5.9-3.2,8.5C327.8,79.8,322.1,80.6,315.6,80.6z"/>
	<path class="st0" d="M285.9,76.2c16.8,10.5,34.1,12.3,52.2,4.3c5.5,18.3-15.2,28.4-30.9,24C292.3,102.8,280.1,92.1,285.9,76.2z"/>
	<path class="st0" d="M335,449.3c-0.2,5.2-8,10.3-9.2,3.1c-0.5-3.3,3.2-8.3,6.7-6.4C333.7,446.7,334.2,448.2,335,449.3z"/>
</g>
</svg>
