<?xml version="1.0" encoding="utf-8"?>
<!-- Generator: Adobe Illustrator 26.0.0, SVG Export Plug-In . SVG Version: 6.00 Build 0)  -->
<svg version="1.1" id="Capa_1" xmlns="http://www.w3.org/2000/svg" xmlns:xlink="http://www.w3.org/1999/xlink" x="0px" y="0px"
	 viewBox="0 0 595.3 501.4" style="enable-background:new 0 0 595.3 501.4;" xml:space="preserve">
<style type="text/css">
	.st0{fill:#FFFFFF;}
</style>
<g>
	<path d="M396.4,383.5c10.2-4,13.3-16.6,24.1-19.7c9.3-3,17.4-0.9,24.7,5.4c7.6,4.8,12.9,9.5,14.1,18.8
		c4.6,22.4-15.2,38.2-24.4,56.4c-3.3,10.8-11.1,21-23,22.1c-5.3,0.7-10.7,1.3-15.6-1.2c-2.6-1.3-4.7-3.5-6.9-5.4
		c-2.6-2.5-3.9-6.2-8.3-5.7c-3.3,0.2-5.8-1.9-7.5-4.7c-2.7-4.4-4.1-9.2-3.4-14.4c-3.9-11.7-13.5-21.6-21.2-31.3
		c-0.8-0.9-1.6-1-2.7-1.1c-4.6-0.3-9.2-0.9-13.7-1.6c-2.7,0.2-6.5-3-8.3-0.3c-9.1,14.8-26.3,14.8-39.3,5.2c-1.1-0.7-1.6-0.5-2.6,0.2
		c-2.2,2.1-10,5.5-10.2,8.1c3.2,12.8,6.4,25.6,9.7,38.4c0.2,0.6,1.1,1.1,1.7,1.5c5.8,1.9,8,7.8,8.4,13.4c0,4.7-3.4,4.6-2.4,11.2
		c-0.8,6.3,5.9,16.2-2.8,19.4c-8.1,3.1-16.3,0.3-24.5-0.3c-18.4,2.4-36.7,5.9-55.1,1.4c-10.9-1.9-24.1-10.9-19.1-23.5
		c-0.2-8.7,0.1-15.5,9.5-19c4.2-1.6,8.5-3,12.7-4.5c7.7-2.5,13.3-8.3,20.6-11.4c5.1-10.1,3.9-23,3.5-34.6
		c-14.5,8.2-32.4-0.1-39.3-14.2c-14.3,16.3-33.4,5-40.3-11.9c-18.1,7.3-30.3-12.5-32.8-27.9c-20.4,4.9-24.9-18.9-26.1-34
		c-6,0-11.3-2.7-14.7-7.6c-0.4-0.5-1.3-0.9-1.9-0.8c-10.9,3.3-18.4,17.4-14.9,28.2c3,7,9.1,12.4,13.8,18.4c0.4,0.5,1.5,0.9,2.1,0.8
		c4.5-0.9,9-1.2,13.6-0.7c17.6,2.5,12.6,29-4.9,22.9c-2.2-1.1-4.7-1.7-7.1-2.5c-0.7,2.7-4.2,6.9-2.5,9c5.4,7.8,20.1,9.2,18.1,20.9
		c-0.9,11-15.3,14.7-22.5,7c-4.2-4-7.2-9-10-14.1c-4.7,1.7,5.8,12.4,7.9,14c12.6,12.6-6.3,29.6-18.3,17.1c-4,7.7-13.5,9.9-20.2,4
		c-6.4-6.4-8-16.1-8.1-24.8c0-0.6-0.5-1.6-1-1.8C3.9,396.9-1.1,369.7,0.2,347.5c0.9-44.5,31.1-80.4,76.9-81.4
		c-12.2-8.9-6.4-25.9-0.6-37c-21.2-7.2-7.2-33.5,4.9-42.9c-10.5-14,3.8-28.4,16.9-34.2c-13.2-19.9,10.9-32.7,28.4-32.7
		c-5.7-26.6,29.5-30,48.1-26.5c-2.7-17.9,13.1-25,28.4-24c11.4-46.7,31.7-48.2,57.8-9.5c13.3-8.8,34.4-12.3,39.5,7.2
		c15.8-11.1,47.5-23.3,55.1,2.6c4.4-1.2,8.7-2.6,13.1-3.4c13.1-3.4,30.7,5.3,26.4,20.9c16.3-0.8,39.9,9.8,27.5,29
		c11,1,22,2.8,30.9,9.8c10.9,8.1,11.5,24.9-2.1,30.4c5.5,4.4,10.1,9.1,14.5,14.7c8.3-12.7,13.3-26.7,16.3-41.4
		c-8.7-6-23.9-9.6-26.6-20.5c-1.4-5.7,2-11.9,7.4-14.8c-16.5-44.1,15.9-89.3,53.7-93.1c66.6-7.3,96.7,59.1,67.9,106.8
		c1.9,14.2-10,18-21.5,19.7c-2.6,1.1-5,1.9-5.6,5.6c-7.6,50.4-46.1,91.3-92.7,109.2c9.3,14.8,17.1,45.6-6.4,50.7
		c0.3,15,1,39-20.6,37.7c-0.8,15.2-9,37.7-28.2,32.5C407.2,371.1,403,378.1,396.4,383.5c-3,1.2-6.1,2.4-9.3,3.7
		c0.9,0.2,2.1,0.9,2.7,0.6C392.1,386.5,394.2,385,396.4,383.5z"/>
	<path class="st0" d="M447.8,190.7c-2.8-1.3-8.9-8.3-11-4.6c-1,1.6,0,2.6,1.3,3.4c3.8,2.3,7.2,4.9,9.8,8.5c2.6,3,4.8,10.8-1.3,10.9
		c-11.4-1,5.7,11.7,4.8,32.9c0.1,3.1,1.1,3.8,4.1,2.9c4.4-1.3,4.5-1.4,6.8,2.7c7,10.8,12.9,38.9-5.8,40.6c-3,0.1-3.5,0.6-3.3,3.7
		c1.1,12.3,1.8,37.5-16.8,33.7c-2.7-0.3-3.2,0.3-3.6,3c-0.6,5-1.2,10.1-2.3,15.1c-2.1,9-10.7,18.7-20.7,14.7
		c-3.3-1.1-3.9-0.8-4.7,2.6c-3.8,19-22.1,30.2-35.7,12c2.2-1.9,8.5-3.2,6.5-6.8c-2.2-3.9-7.4,5.8-21.8,4.6c-3.5-0.1-3.4,0-4.8,3.3
		c-2.3,5.6-5.1,11.6-11.5,13.4c-6.3,2.5,4,7.9,5.5,10.8c-0.1,0.2-0.1,0.4-0.2,0.5c-6.1-1.3-12.2-2.3-18.2-3.9
		c-3.2-1.1-6.3,6.5-8.9,8.4c-8.6,9.2-22,4.4-30.7-2.1c-2.1-1.5-2.7-1.3-4.7,0.4c-2.4,2.1-4.7,4.2-7.4,5.8c-12,7.5-24-0.3-31.8-9.8
		c-1.6-1.7-2.9-1.9-4.3,0c-11.1,14.7-34.1,5.7-39.4-10.1c-0.5-1.2-0.8-2.7-2.5-2.8c-1.7-0.1-2.2,1.3-2.9,2.4
		c-10.7,17.7-28.7,4.9-34.1-10c-2.7-7.5-9.7,6.7-21.1-3.8c-7-6.2-9.6-15.1-11.3-23.9c-0.7-4.6-5.6-1-8.5-1.1
		c-14.5,1.2-15.5-20.8-17-31c-0.4-3.6-0.7-4.1-4.2-3.7c-13.5,1.3-16.9-16.7-15-27.1c0.9-6.8,3.3-13.1,6.4-19.2
		c0.5-1,0.8-2.6,0.3-3.3c-0.4-0.7-2.1-0.9-3.1-0.8c-11.4,1.1-11.8-14-8.6-21.6c1.5-4.2,3.6-8.2,5.7-12.2c4.4-8.4-14,0.7-11.5-17.7
		c2.5-17.4,21.2-23.6,15.6-27.5c-4.4-4.3-5.1-7.5-2.5-13.2c3.6-8,11.3-12.3,19.1-15.5c9.2-3.7-12.3-9.2,0.3-22.8
		c7.2-7,17.6-8.7,27.3-8.6c1.9-0.1,2.9-1.7,1.9-3.4c-9.1-25.1,29-26.5,44.9-22.6c6,1.3,2.6-5,2.3-8.1c-1.9-12.6,12.9-17.3,23.1-16.3
		c-1.7,9.1-2.8,17.9-3.5,27.1c-0.1,1.1-0.4,1.6-1.4,2c-5.5,2.1-9.5,6.2-12.9,10.9c-2.1,2.5,1.9,5.4,3.7,2.6
		c10.3-15.1,23.5-12,36.4-2.4c2.7,1.7,3.3,1.7,5.2-0.9c8.4-13.2,21.2-17,34.2-7.4c6.1,5,6.3-13.6,28.6-12.6c4.4,0.2,4-4.8,0.3-4.6
		c-4.9-0.3-9.6,0.4-14.2,2.3c-4.7-9.5-9.6-18.2-15.2-27.2c9.6-7.4,29-11.5,32.3,4.2c0.6,3.2,0.7,7.4,5,4.5
		c10.7-6.9,21.8-14.6,35.1-13.8c20.6,1.3,11.2,20.5,18.8,16.7c4.7-2.3,9.5-4.1,14.7-4.9c11.5-2.4,26.3,4.2,20.1,17.8
		c-2.6,6.9,10.7,0.6,20.3,5.5c26.9,11.4-3,25.3,8.6,27.2c13.4-0.8,30.3,2.2,37.3,14.8c4.4,8.4-1.9,15.5-10.1,17.3
		c-2.7,1.1-3,3-0.7,4.6c6.6,4.1,12.3,9.1,16.6,15.6C465.1,175.9,450.2,188.2,447.8,190.7z M192.2,210.8
		c31,61.1,123.5,28.5,108.1-38.6c-19.4-72.5-126-47.8-112.4,25.9c-40-63.8-111.1,12.8-72,61C150.2,299.4,202.5,255.4,192.2,210.8z
		 M253.6,364.8c32.7-2,71.5-7,95.3-32.6c37-34.1,20.2-109-37.5-98.8c-10.6,1.7-21.1,3.9-31.6,5.9c-25.5,5.5-51.9,4.9-77.5,9.2
		C134.4,267,165.7,370.4,253.6,364.8z M399.4,189.6c-3.8-67.2-101-75.3-95.6-0.6C311.2,247.3,397.8,255.3,399.4,189.6z"/>
	<path class="st0" d="M463.3,63.5c0.5-8.5,2.6-16.3,6.4-23.9c39.2,11.5,79.3,17,120,17.1c1.5,4,1.7,16.7,0.2,23.2
		C547.1,79.8,504.9,74.6,463.3,63.5z"/>
	<path class="st0" d="M589.1,84.4c-2.2,8.6-7,15.2-11.3,22.7c-0.8,1.3-1.8,1.7-3.3,1.6c-14.8-1.4-29.7-2.4-44.5-4.3
		c-20.9-2.4-41.3-7.7-61.9-12.2c-3.5-3.5-5.7-19-4.7-23.9C504.6,79,546.2,84.3,589.1,84.4z"/>
	<path class="st0" d="M471.9,35.6c3-4.6,11.9-17.2,16.9-17.2c14.4,3.8,29,6.8,43.7,8.9c14.4,2.1,28.9,3.5,43.5,3.8
		c6.5-0.5,11.2,15.4,12.9,21.1C549.1,52.1,510.3,46.7,471.9,35.6z"/>
	<path class="st0" d="M77.9,372.4c-0.5,1.7-1.5,5.1-2.6,8.4c-0.2,0.5-1,1-1.6,1.1c-5.9,0.6-10.5,5.8-10.2,11.9
		c-1.3,6.8-10.9-1.3-16.4,10.3c-0.3,0.7-1.2,1.4-1.9,1.6c-13.4,4.3-24.6-4.1-31.6-14.7c-0.9-1.1-0.6-1.9,0.2-3
		c13.4-18,34.2-28.3,55.5-33.9C73.5,353.4,78.4,366.7,77.9,372.4z"/>
	<path class="st0" d="M455.5,394.5c-0.4,19.3-17.4,32.1-24.9,48.6c-3,10.5-11.2,19.6-22.7,19.4c-6.2-0.8-3-10.2-2.3-14.4
		c8.4-14.6,9.6-32.1,19.2-46.2c5.4-7.6,12-17,22.2-17.7C454.2,384.7,455.2,388,455.5,394.5z"/>
	<path class="st0" d="M226.7,109.3c-9-6.2-12.5-7.5-23.4-8.6c0.5-4.5,0.8-9,1.4-13.5c-1.9-13.3,45.9-17.3,55.8-16.8
		c1.7,0,2.7,0.6,3.4,2.1c3.2,6.1,6.5,12.2,9.8,18.2c0.7,1.3,0.5,2.1-0.8,3.2c-2.6,2-4.8,4.4-7.4,6.8
		C251.8,90.9,235.8,95.3,226.7,109.3z"/>
	<path class="st0" d="M484.8,139.1c18.4,11,38.2,18.3,59.8,21.3c-1.2,4.2-14.8,31.8-19,29.2c-17.5-7-36.5-15.8-48.6-30
		C479.5,152.8,482.1,146,484.8,139.1z"/>
	<path class="st0" d="M66.9,349.9C44.8,356.2,25,366,10.1,385.1c-5.4-14.6-6.8-29.3-4.8-44.5c0.1-1.2,0.6-1.8,1.8-2.3
		c15.4-5.6,39.8-7.9,53.3,2c2,3.2,3.5,7.3,7.1,8.9C67.3,349.4,67.1,349.7,66.9,349.9z"/>
	<path class="st0" d="M524.4,193.9c-6.3,7.5-13.5,13.3-20.4,20.1c-0.8,0.8-1.6,0.8-2.7,0.4c-16.2-6.5-31.1-18.2-36.6-34.9
		c3.2-4.9,6.6-9.8,10-14.8C489.3,177.4,505.6,187.3,524.4,193.9z"/>
	<path class="st0" d="M498.5,218.3c-13.1,9.6-27.1,16.7-42.5,21.6c-0.5-9.5-2.8-18.2-7.2-26.3c7.8-4.3,8.4-9.6,2.3-18.9
		c3.3-3.4,6.5-6.8,9.9-10.4C469.4,200,481.7,211.5,498.5,218.3z"/>
	<path class="st0" d="M256.1,462.8c-6.6,7.2-0.6,17,7.9,17.8c3.7,0.6,7.3-0.2,9.2,3.9c-15.4,2.6-29.8-1.2-44.7-5.3
		c8.1,0,17.2-7.5,9.4-14.9c-10.4-9.4-30.6,3.7-14.5,13.5c-4.4-1-8.4-2.1-12.4-2.8c-5.5-0.9-11-1.7-16.5-2.2c-1.6-0.2-2-0.8-2.1-2.2
		c-0.7-8.8,9.1-10.6,15.6-12.8c7.3-2.3,14-5.9,19.9-10.8c1.9-1.6,3.6-1.9,6-0.8C242.5,450.2,249.9,455.5,256.1,462.8z"/>
	<path class="st0" d="M6.4,333.7c0.2-5.7,10.4-38.1,17.1-35.9c13.7,5.5,25.7,13.5,36.5,23.5c1.6,2-1.3,9-1.5,12
		C41.4,327.6,24,327.3,6.4,333.7z"/>
	<path class="st0" d="M483.7,100.3c29.4,6.8,58.7,11.2,88.8,12.7c-6.7,6.1-13.6,13.4-23.4,13.1c-17.7,0-34.9-2-51.8-7.6
		c-1.4-0.5-1.9-1.3-2.5-2.6C491.7,110.1,488.5,105.2,483.7,100.3z"/>
	<path class="st0" d="M259.5,65.9c-18.3-0.1-35.8,3-52.8,10.2c2.1-11.6,9-45.2,26-38.9c4.5,1.7,8.3,4.6,11.3,8.2
		C249.3,52.1,254.9,58.7,259.5,65.9z"/>
	<path class="st0" d="M25,293.5c5.6-8.7,27.1-20.4,37.9-20.8c0.4,12.4,3.1,24.2,10.2,34.1c-3.5,3.5-6.9,6.9-10.5,10.5
		C51.7,307.4,39.2,299.1,25,293.5z"/>
	<path class="st0" d="M492.2,14.6c26.6-17.4,62.7-12.3,83.2,12.1C547.1,25.5,519.7,21.6,492.2,14.6z"/>
	<path class="st0" d="M553.1,132c-1.4,7.8-3.6,14.8-5.9,22.3c-0.4,1.4-1,1.7-2.5,1.5c-20.8-2.8-40-10-57.9-20.8
		c-2.1-1-0.5-2.9-0.5-4.6c0.1-1.2,0.9-1.4,1.8-2c2.7-1.7,4.8-0.6,7.3,0.7C513.1,138.7,534.4,138.8,553.1,132z"/>
	<path class="st0" d="M195.8,477.4c29.4,2.1,58.2,19.3,87.9,9.6c1.8-0.5,2.5,0,2.7,1.6c0.3,2.1,0.9,4.8-1.9,5.4
		c-3.9,1.2-7.9,1.4-11.8,0.6c-8.6-1.9-16.9-1-25.5,0.6c-17.2,2.9-37,3.8-52.2-6.5c-3-2.1-3.8-5.4-3.6-8.9
		C191.6,476.8,193.4,477.2,195.8,477.4z"/>
	<path class="st0" d="M239.4,422.9c9.9,2.3,19.6,1.6,28.9-3.2c1.5,6.1,2.9,11.9,4.3,17.8c0,2.4,3,6.2,0.5,7.7
		c-8.4,5.4-19.9,6.7-28.6,1.6c-2.6-1.7-5.5-3.1-8.2-4.6C237.3,435.9,238.3,429.5,239.4,422.9z"/>
	<path class="st0" d="M451.4,380.2c-24.6-3.7-38.5,31.4-43.1,50.6c-3.7,10-11.6,19.4-8.2,30.8c-13.2-2.2-6.6-19.1-3.9-27.4
		c8.9-20.9,16.6-46.2,37.6-57.8C440.6,373,447.7,374.5,451.4,380.2z"/>
	<path class="st0" d="M438.5,370c-14.5,4.1-22.9,14.6-30.4,26.5c-0.3-18.1-21.1-4.4-18.6,8.3c1.2,7,8.2,6.7,13,3.1
		c-6.1,14-13.3,27.5-14.8,42.9c-6.9-2.7,0.7-10.8,1.8-15.4c3.6-7.3,6.2-18.5-5.6-18.4c0-10.9,2.6-23.4,13.4-28.5
		C413,381.4,417.4,358.2,438.5,370z"/>
	<path class="st0" d="M469.6,96.8c2.8,0,5.5,1.1,7.4,3.2c4.4,5.4,9.7,10.4,13.3,16.3c2,4.4-2.3,9.7-6.9,7.8
		c-6.2-2.4-11.7-6.3-17.5-9.4C456,109.7,458.7,96.7,469.6,96.8z"/>
	<path class="st0" d="M383.5,390.8c-12.7,14.3-12.7,14.3-16.7,28.3c-3.9-4.9-7.6-9.9-11.4-14.8c-0.4-0.6-0.9-1.5-0.7-2.1
		c3-8.8,8.2-15.8,16.2-20.2C375.2,385.1,379.3,387.9,383.5,390.8z"/>
	<path class="st0" d="M84.5,413.4c-8.5-1.3-13.5-11.3-16.2-18.8c-1.3-3.2,2.7-9.8,6.2-7.3c3.8,5.1,8.8,8.6,14.3,11.5
		C96.4,402.3,93,413.8,84.5,413.4z"/>
	<path class="st0" d="M73,422c-0.6,9.1-11.7,11.6-16.3,4c-3.6-6.4-10.9-22.8,0.7-24.7c0.6,0,1.4,0.5,1.6,1c2.5,6.1,6.6,11,11.4,15.4
		C71.6,418.8,72.2,420.6,73,422z"/>
	<path class="st0" d="M269.2,477c-4.5-1.2-12-1.4-11.3-7.9c-0.1-5.9,19.1-9.2,24.1-10.3c3.4,0.1,4.2,5.7,5.1,8.3
		c0.6,2.6-1.4,4.1-3.3,5.2C279.4,475.1,274.5,476.6,269.2,477z"/>
	<path class="st0" d="M31,410.9c12.7,0.4,9.7-1.2,17.3,9.1C59.2,434.3,31.1,444.9,31,410.9z"/>
	<path class="st0" d="M342.6,390.3c5.6-3.2,8.7-8.3,10.9-14.1c0.2-0.4,0.8-0.8,1.3-0.9c3-0.4,6-0.6,9-0.8c2.1,0.2,2.7,2.7,4.1,4.1
		c-8,4.9-13.4,11.8-16.7,20C348.4,395.9,345.6,393.2,342.6,390.3z"/>
	<path class="st0" d="M80.9,270.7c-4.5,11.6-6.4,22.9-2.9,34.6c-7.9-9.8-10.3-21.3-10.7-33.7C71.9,271.3,76.2,271,80.9,270.7z"/>
	<path class="st0" d="M80.9,361.7c24.5-6.4,23.4,15.5,11,13.8C78.4,371.4,84.3,373.5,80.9,361.7z"/>
	<path class="st0" d="M267.5,415.1c-8.3,4.4-17.7,5.8-26.9,3.4c-0.5-0.1-1.3-0.8-1.3-1.3c0-5.2-1.2-10.3-0.1-15.4
		c7.6,8.5,16.4,14.2,28.3,12.6C267.4,414.6,267.4,414.9,267.5,415.1z"/>
	<path class="st0" d="M379.8,449.3c-4.3-2.2-6.5-10.9-4.7-14.9c2.1-3.9,4.3-7.8,7-11.3c2.7-3.1,7.1-1.6,5.9,2.7
		C386.2,434.2,380.4,440.4,379.8,449.3z"/>
	<path class="st0" d="M382,399c-2.6,6.8-2,14.1-3.2,20.9c-2,2.8-4.1,5.6-6.2,8.4C367.4,420.6,376.2,405,382,399z"/>
	<path class="st0" d="M540,130.7c-15.4,3.5-40.8-1-45.5-8.1C509.3,127.4,524.5,130,540,130.7z"/>
	<path class="st0" d="M254.7,454.6c11.6-0.5,13.2-1.4,21.1-5.4c0.6,1.9,1.2,3.8,1.8,5.8c-5.6,1.4-10.8,3.2-16.2,5.1
		C258.6,460.4,256.8,456.3,254.7,454.6z"/>
	<path class="st0" d="M229.4,474.9c-3.4-1.1-10.7-3.8-5.7-7.8C231.9,462.1,244,471.7,229.4,474.9z"/>
	<path class="st0" d="M403.9,395.1c-0.6,4.7-2.4,8.1-6.1,10.2c-6.9,3.3-3.1-10.1,1.7-12.1C401.9,391.8,403.3,392.5,403.9,395.1z"/>
	<path class="st0" d="M278,483.8c-0.7-1.2-1.2-2.2-1.8-3.3c2.9-1,5.6-2,8.4-3.1C287.1,482.3,281.4,483,278,483.8z"/>
	<path class="st0" d="M571.7,120.5c2.8-2.7,5.5-5.3,8-7.7C579.8,115.6,576.3,119.1,571.7,120.5z"/>
	<path class="st0" d="M396.4,383.5c-2.2,1.4-4.3,3-6.6,4.3c-0.6,0.3-1.8-0.3-2.7-0.6C390.3,385.9,393.4,384.7,396.4,383.5
		C396.4,383.6,396.4,383.5,396.4,383.5z"/>
	<path class="st0" d="M244.6,133c67.2,0.3,71.5,103.7-0.8,106C177,237.8,172.7,134.8,244.6,133z M295.2,184c0.1-31-46.9-31-46.9-0.2
		C248.1,214.5,295.2,214.7,295.2,184z"/>
	<path class="st0" d="M188.2,226c-0.4,37.6-47.9,62.5-71.2,27.1c-31.3-47.5,37.7-111.8,68.6-48.2c-10-10.4-25.1-6.5-31.3,2.6
		C139.5,229.4,172.8,252.9,188.2,226z"/>
	<path class="st0" d="M160.1,213.4c0-7.2,11.4-7.9,11.4-0.4C171.5,220.4,160,221.2,160.1,213.4z"/>
	<path class="st0" d="M250.7,360.6c-31.9,0.2-66.7-14.5-77.1-46.9c-9.2-24.4,1.8-56,29.5-60.8c34.8-4.7,70.2-5.9,104.5-14.4
		c55.6-13.5,73.8,57.1,38.1,90.4C321.5,355,284.1,357.6,250.7,360.6z M254.8,333c23.9-1.2,51.6-4.8,70-21.9
		c15.5-12.8,12.1-46.4-11.8-44.1c-20.7,3.9-40.9,10.4-62.1,11.2c-14.4,2.6-38.4-3.7-45.6,12c-2.5,5.2-2.8,10.7-1.3,16.1
		C210.2,328.6,234,333.2,254.8,333z"/>
	<path class="st0" d="M394.7,191.2c-5.1,67.5-94.7,42.2-86.5-16.4C319.8,117,394.8,138.9,394.7,191.2z M392.1,181.2
		c0.3-21.7-33.1-29.5-37.5-5.7C350.4,201.6,391.4,210.7,392.1,181.2z"/>
	<path class="st0" d="M266.1,170.6c9.7,0.1,9.5,14.1,0.1,14.5C256.8,185,256.5,170.6,266.1,170.6z"/>
	<path class="st0" d="M240.2,327.6c13.3-25.1,49.7-30.7,70.7-11.8C288.3,327,264.6,329.5,240.2,327.6z"/>
	<path class="st0" d="M241.7,283.5c18.2-0.9,36-3.3,53.5-7.8c5.5,19.2-25,19.5-37.4,21C249.1,297,243.4,292.3,241.7,283.5z"/>
	<path class="st0" d="M373.8,175.9c-0.4,7.8-11,5.6-10.9-1.3C363.3,166.7,374.1,168.9,373.8,175.9z"/>
</g>
</svg>
