<?xml version="1.0" encoding="iso-8859-1"?>
<!-- Generator: Adobe Illustrator 19.2.1, SVG Export Plug-In . SVG Version: 6.00 Build 0)  -->
<svg version="1.1" id="Layer_1" xmlns="http://www.w3.org/2000/svg" xmlns:xlink="http://www.w3.org/1999/xlink" x="0px" y="0px"
	 viewBox="0 0 40 40" style="enable-background:new 0 0 40 40;" xml:space="preserve">
<g>
	<path style="fill:#F5C276;" d="M20.207,38.5c-5.262,0-10.29-2.252-13.799-6.178c-3.557-3.979-5.183-9.12-4.579-14.476
		C2.766,9.543,9.452,2.735,17.728,1.662c0.825-0.107,1.659-0.162,2.48-0.162c7.979,0,15.033,5.082,17.554,12.646
		c0.342,1.022,1.021,3.589-0.031,5.315c-0.545,0.894-1.511,1.453-2.869,1.664c-0.514,0.079-1.457,0.199-2.554,0.33
		c-1.867,0.224-3.57,1.225-4.673,2.747c-1.102,1.52-1.521,3.445-1.153,5.284l0.215,1.077c0.391,1.954-0.108,3.959-1.369,5.501
		C24.065,37.607,22.199,38.495,20.207,38.5L20.207,38.5z M19,27.5c-1.93,0-3.5,1.57-3.5,3.5s1.57,3.5,3.5,3.5s3.5-1.57,3.5-3.5
		S20.93,27.5,19,27.5z"/>
	<path style="fill:#C29653;" d="M20.208,2c7.763,0,14.627,4.945,17.08,12.304c0.249,0.747,0.985,3.306,0.015,4.898
		c-0.471,0.773-1.295,1.24-2.519,1.43c-0.456,0.071-1.309,0.181-2.536,0.328c-2.005,0.24-3.834,1.315-5.019,2.949
		c-1.183,1.632-1.634,3.701-1.239,5.677l0.215,1.077c0.361,1.806-0.1,3.66-1.267,5.087c-1.166,1.426-2.892,2.247-4.732,2.251
		c-5.119,0-10.013-2.191-13.427-6.011c-3.46-3.872-5.043-8.875-4.455-14.086C3.237,9.824,9.741,3.202,17.792,2.157
		C18.595,2.053,19.408,2,20.208,2 M19,35c2.206,0,4-1.794,4-4c0-2.206-1.794-4-4-4c-2.206,0-4,1.794-4,4C15,33.206,16.794,35,19,35
		 M20.208,1c-0.837,0-1.686,0.054-2.545,0.166C9.13,2.273,2.297,9.24,1.332,17.791C0.038,29.273,8.987,39,20.208,39
		c4.495-0.011,7.861-4.126,6.979-8.534l-0.215-1.077c-0.716-3.578,1.773-7.003,5.396-7.437c1.103-0.132,2.054-0.252,2.57-0.332
		c5.014-0.777,3.93-5.743,3.3-7.632C35.721,6.441,28.599,1,20.208,1L20.208,1z M19,34c-1.657,0-3-1.343-3-3c0-1.657,1.343-3,3-3
		s3,1.343,3,3C22,32.657,20.657,34,19,34L19,34z"/>
</g>
<g>
	<circle style="fill:#F78F8F;" cx="9.5" cy="24.5" r="3"/>
	<path style="fill:#C74343;" d="M9.5,22c1.379,0,2.5,1.121,2.5,2.5S10.879,27,9.5,27S7,25.878,7,24.5S8.121,22,9.5,22 M9.5,21
		C7.567,21,6,22.567,6,24.5C6,26.433,7.567,28,9.5,28s3.5-1.567,3.5-3.5C13,22.567,11.433,21,9.5,21L9.5,21z"/>
</g>
<g>
	<circle style="fill:#FFEEA3;" cx="9.5" cy="14.5" r="3"/>
	<g>
		<path style="fill:#BA9B48;" d="M9.5,12c1.379,0,2.5,1.121,2.5,2.5S10.879,17,9.5,17S7,15.879,7,14.5S8.121,12,9.5,12 M9.5,11
			C7.567,11,6,12.567,6,14.5S7.567,18,9.5,18s3.5-1.567,3.5-3.5S11.433,11,9.5,11L9.5,11z"/>
	</g>
</g>
<g>
	<circle style="fill:#BAE0BD;" cx="17.5" cy="8.5" r="3"/>
	<g>
		<path style="fill:#5E9C76;" d="M17.5,6C18.879,6,20,7.121,20,8.5S18.879,11,17.5,11S15,9.879,15,8.5S16.121,6,17.5,6 M17.5,5
			C15.567,5,14,6.567,14,8.5s1.567,3.5,3.5,3.5S21,10.433,21,8.5S19.433,5,17.5,5L17.5,5z"/>
	</g>
</g>
<g>
	<circle style="fill:#8BB7F0;" cx="27.5" cy="10.5" r="3"/>
	<g>
		<path style="fill:#4E7AB5;" d="M27.5,8c1.379,0,2.5,1.121,2.5,2.5S28.879,13,27.5,13S25,11.879,25,10.5S26.121,8,27.5,8 M27.5,7
			C25.567,7,24,8.567,24,10.5s1.567,3.5,3.5,3.5s3.5-1.567,3.5-3.5S29.433,7,27.5,7L27.5,7z"/>
	</g>
</g>
</svg>
