<?xml version="1.0"?>
<svg xmlns="http://www.w3.org/2000/svg" viewBox="0 0 24 24" enable-background="new 0 0 24 24">
    <path d="M10.7,1.1c-5,0.6-9.1,4.6-9.7,9.7C0.3,17.4,5.5,23,12,23c0.6,0,1.2-0.1,1.7-0.3c2.5-0.7,3.6-3.8,2.1-6 C15,15.6,15.9,14,17.3,14H21c1.1,0,2-0.9,2-2C23,5.5,17.4,0.3,10.7,1.1z M12,21c-1.1,0-2-0.9-2-2s0.9-2,2-2s2,0.9,2,2S13.1,21,12,21 z M18.5,11c-0.8,0-1.5-0.7-1.5-1.5S17.7,8,18.5,8S20,8.7,20,9.5S19.3,11,18.5,11z M14.5,7C13.7,7,13,6.3,13,5.5S13.7,4,14.5,4 S16,4.7,16,5.5S15.3,7,14.5,7z M9.5,7C8.7,7,8,6.3,8,5.5S8.7,4,9.5,4S11,4.7,11,5.5S10.3,7,9.5,7z M5.5,10C4.7,10,4,9.3,4,8.5 S4.7,7,5.5,7S7,7.7,7,8.5S6.3,10,5.5,10z M4.5,15C3.7,15,3,14.3,3,13.5S3.7,12,4.5,12S6,12.7,6,13.5S5.3,15,4.5,15z"/>
</svg>
