<svg version="1.0" xmlns="http://www.w3.org/2000/svg"
  viewBox="0 0 905.113539 1200.569031"
 preserveAspectRatio="xMidYMid meet">
<metadata>
For more coloring pages, please visit ColoringAll.com
</metadata>
<g transform="translate(-0.882737,1200.845064) scale(0.100000,-0.100000)"
fill="#000000" stroke="none">
<path d="M5385 11995 c-169 -45 -344 -159 -442 -286 -110 -143 -167 -300 -197
-544 -30 -242 -38 -286 -54 -292 -21 -8 -76 5 -295 71 -599 179 -1147 299
-1872 411 -612 95 -695 96 -955 13 -228 -73 -418 -187 -581 -348 -232 -230
-356 -501 -390 -854 -10 -106 -10 -132 5 -205 56 -277 305 -629 705 -996 271
-249 486 -406 766 -560 150 -83 185 -108 185 -137 0 -9 -29 -91 -64 -181 -264
-671 -303 -1058 -152 -1510 85 -256 230 -501 429 -727 37 -41 67 -79 67 -84 0
-5 -65 -99 -144 -210 -79 -111 -185 -267 -236 -348 -61 -99 -101 -153 -123
-166 -18 -11 -106 -41 -197 -67 -296 -84 -647 -218 -963 -367 l-169 -79 -94
41 c-180 79 -357 130 -464 133 -50 1 -63 -2 -86 -23 -48 -45 -70 -141 -44
-191 23 -42 116 -73 266 -88 119 -12 143 -39 67 -75 -53 -25 -139 -95 -211
-169 -106 -111 -143 -231 -86 -276 15 -12 35 -21 45 -21 34 0 123 40 179 81
120 86 159 111 169 105 6 -4 8 -24 5 -49 -17 -119 81 -223 167 -177 23 13 60
83 96 183 48 135 79 184 136 221 141 90 872 420 1000 451 23 6 27 4 27 -13 0
-11 -36 -132 -80 -269 -193 -596 -299 -1073 -435 -1958 -59 -384 -85 -613 -85
-747 0 -136 6 -152 62 -166 92 -23 376 -40 1013 -62 519 -18 847 -38 862 -54
28 -28 61 -1026 34 -1026 -5 0 -44 7 -87 15 -273 50 -864 70 -987 33 -23 -7
-61 -31 -84 -54 l-43 -41 0 -100 c0 -85 3 -104 20 -125 41 -53 162 -82 409
-100 349 -24 983 32 1114 98 81 41 100 86 67 161 -37 85 -60 294 -80 743 -5
129 -12 272 -14 317 l-4 81 82 6 c112 8 2306 49 2312 43 10 -10 62 -1062 53
-1071 -3 -3 -72 3 -154 14 -224 28 -338 39 -542 50 -382 21 -524 -21 -562
-166 -14 -54 2 -134 35 -173 31 -37 108 -70 209 -88 196 -37 1056 -1 1260 52
77 20 103 38 122 83 14 33 14 45 -2 122 -29 142 -33 174 -49 368 -23 269 -36
524 -36 682 l0 138 608 5 c712 5 790 13 859 82 32 32 33 35 33 121 0 112 -32
397 -70 626 -17 97 -30 183 -30 192 0 21 95 21 286 2 214 -23 500 -38 573 -31
96 9 179 52 266 139 91 89 128 159 129 238 1 52 -2 61 -31 90 -27 27 -41 32
-91 36 -33 2 -68 -1 -80 -7 -12 -6 -43 -41 -71 -77 -56 -75 -134 -138 -189
-154 -38 -10 -72 -13 -72 -6 0 3 18 42 40 87 37 77 40 89 40 170 0 169 -74
312 -195 374 -53 27 -66 30 -164 30 -103 0 -108 -1 -156 -32 -96 -62 -180
-165 -190 -236 -4 -23 -2 -97 4 -164 11 -128 7 -181 -15 -190 -24 -9 -65 7
-89 33 -34 36 -47 84 -111 384 -89 423 -171 732 -338 1265 -36 115 -66 217
-66 227 0 10 7 18 16 18 39 0 622 -246 916 -388 137 -65 149 -74 178 -118 16
-27 44 -84 60 -129 73 -193 110 -245 177 -245 65 0 113 81 113 190 0 55 5 52
193 -94 48 -37 66 -46 99 -46 51 0 99 29 123 74 39 72 2 123 -247 351 -49 44
-88 86 -88 92 0 7 21 14 48 18 245 31 302 66 302 181 0 42 -5 56 -26 77 -81
82 -273 55 -549 -77 l-110 -52 -165 77 c-307 143 -819 337 -1018 385 -59 15
-123 34 -142 43 -47 22 -111 109 -259 355 -93 155 -122 211 -118 228 4 13 49
75 102 138 266 320 418 636 545 1135 60 235 71 327 77 630 4 215 2 296 -11
395 -23 175 -78 404 -146 610 -115 351 -220 559 -497 986 -12 19 -8 25 69 86
107 85 310 293 388 399 66 88 136 224 170 329 25 76 41 289 30 390 -9 88 -39
142 -125 227 -176 173 -402 209 -638 100 -114 -53 -192 -110 -307 -226 -112
-113 -187 -215 -295 -404 -75 -132 -95 -151 -142 -138 -87 25 -273 134 -294
172 -12 24 15 87 90 212 115 192 198 384 253 586 28 100 32 132 32 231 0 97
-4 126 -26 186 -62 176 -195 298 -369 339 -78 18 -128 18 -194 0z m180 -246
c119 -22 137 -45 156 -203 14 -122 -1 -294 -37 -406 -48 -153 -234 -490 -308
-559 l-26 -24 -152 72 c-84 40 -170 80 -192 89 l-38 15 5 231 c6 264 17 347
58 430 79 159 240 323 349 357 37 11 119 10 185 -2z m-3452 -589 c49 -6 101
-17 115 -24 60 -32 116 -120 143 -226 24 -93 17 -304 -14 -437 -89 -387 -348
-758 -625 -897 -105 -53 -287 -70 -427 -41 -117 25 -208 76 -301 169 -104 105
-149 192 -165 316 -21 162 5 317 76 469 121 255 304 446 540 563 206 103 409
136 658 108z m797 -74 c400 -69 809 -159 1140 -252 224 -63 543 -174 625 -217
67 -36 85 -51 110 -93 l30 -51 126 -10 c183 -14 282 -63 328 -160 l23 -50 87
-6 c151 -10 263 -76 451 -267 113 -115 130 -129 180 -143 102 -30 295 -176
345 -261 15 -26 27 -66 31 -104 9 -78 19 -92 74 -99 64 -8 108 -33 168 -96 74
-79 159 -214 262 -419 115 -226 153 -322 195 -483 58 -226 70 -353 70 -750 0
-236 -4 -379 -13 -440 -85 -584 -369 -1121 -770 -1455 -240 -201 -537 -358
-829 -440 -233 -66 -291 -73 -629 -78 -711 -10 -1092 65 -1574 309 -614 310
-1017 780 -1124 1311 -37 187 -28 551 19 738 48 194 139 432 215 566 49 84 56
88 160 81 50 -4 100 -3 115 3 55 21 17 109 -91 211 -85 80 -105 90 -190 100
-111 12 -254 87 -502 263 -160 113 -350 267 -462 374 -107 103 -107 112 -9
112 117 0 344 78 487 166 189 117 367 346 483 619 156 368 181 655 92 1044
l-6 24 89 -6 c49 -3 181 -22 294 -41z m4103 -237 c53 -14 101 -61 134 -127 26
-53 28 -66 28 -172 -1 -117 -10 -162 -53 -260 -29 -67 -135 -224 -214 -317
-94 -111 -253 -261 -284 -269 -44 -11 -101 26 -249 163 -152 141 -195 193
-195 238 0 34 122 278 197 394 30 47 83 114 117 149 72 75 217 176 284 196 56
17 182 20 235 5z m-4151 -5333 c378 -272 998 -506 1448 -546 147 -13 771 -13
916 0 331 29 638 137 1078 377 l140 76 34 -39 c120 -139 343 -594 511 -1047
91 -246 171 -534 256 -921 143 -655 300 -1645 267 -1678 -21 -21 -322 -32
-1637 -60 -813 -17 -3560 -17 -3945 0 -162 8 -313 17 -335 20 l-39 7 2 55 c12
270 189 1388 282 1777 60 252 184 642 304 958 156 409 332 766 461 935 58 75
135 160 146 160 5 0 55 -33 111 -74z m5283 -2450 c38 -29 69 -89 60 -116 -9
-29 -54 -60 -86 -60 -34 0 -69 41 -69 82 0 36 40 118 58 118 3 0 20 -11 37
-24z M1290 10643 c-47 -17 -104 -107 -116 -182 -13 -84 60 -191 141 -207 55
-10 120 19 153 68 31 47 42 152 23 210 -26 77 -132 136 -201 111z M1812 10490
c-63 -29 -85 -83 -80 -200 4 -106 21 -137 88 -159 51 -16 88 -7 158 42 74 50
94 143 49 228 -46 87 -138 125 -215 89z M3541 10754 c-167 -45 -345 -211 -393
-368 -47 -151 -19 -347 68 -475 142 -210 413 -322 624 -258 199 60 379 290
397 507 20 253 -193 519 -473 590 -90 23 -148 24 -223 4z m313 -258 c55 -32
92 -75 125 -146 23 -49 26 -67 26 -165 0 -105 -2 -114 -33 -178 -19 -38 -47
-78 -67 -92 -68 -52 -261 -58 -355 -10 -58 29 -145 123 -176 190 -51 108 -21
245 69 319 131 107 308 143 411 82z M3520 10423 c-90 -37 -146 -120 -138 -204
9 -87 59 -131 150 -131 111 1 188 76 188 185 0 91 -50 149 -132 153 -29 2 -60
1 -68 -3z M4751 10194 c-145 -39 -311 -245 -367 -454 -22 -80 -24 -253 -5
-330 50 -201 189 -337 397 -390 141 -36 293 -23 411 37 152 76 285 305 287
493 1 221 -184 493 -409 600 -126 60 -211 72 -314 44z m293 -267 c74 -34 155
-117 197 -202 28 -58 32 -75 31 -148 0 -138 -65 -263 -173 -337 -51 -35 -52
-35 -163 -35 -135 0 -179 17 -262 99 -72 72 -116 164 -117 244 -1 136 116 350
218 398 50 24 199 13 269 -19z M4720 9782 c-44 -5 -59 -17 -81 -67 -45 -99 3
-231 92 -249 43 -8 97 8 148 44 81 59 100 128 59 210 -17 33 -31 46 -53 51
-44 10 -125 16 -165 11z M5981 8420 c-130 -27 -286 -98 -387 -174 -265 -199
-370 -489 -299 -826 60 -284 227 -494 454 -572 58 -20 85 -23 226 -23 154 0
163 1 247 31 106 38 240 125 330 216 115 115 192 251 240 429 31 113 33 356 4
464 -30 113 -89 227 -156 298 -109 117 -223 157 -465 163 -82 1 -170 -1 -194
-6z m339 -90 c146 -23 274 -118 339 -253 54 -110 66 -175 65 -347 -1 -139 -4
-165 -28 -245 -71 -236 -216 -407 -431 -510 -117 -56 -172 -68 -319 -68 -118
-1 -123 0 -191 33 -94 47 -225 175 -289 285 -87 149 -120 322 -97 505 20 164
136 341 296 456 77 55 213 119 291 138 70 17 272 20 364 6z M2779 7597 c-32
-35 -52 -121 -45 -196 23 -250 201 -558 415 -719 143 -108 365 -203 581 -249
128 -27 422 -25 546 4 295 69 491 210 610 439 59 114 40 184 -50 184 -49 0
-60 -7 -186 -120 -172 -155 -304 -232 -459 -269 -238 -57 -548 -25 -764 78
-238 114 -410 321 -482 582 -54 193 -65 226 -85 251 -28 36 -56 41 -81 15z
M7486 194 c-10 -47 -15 -88 -12 -91 5 -6 9 7 30 110 7 37 10 67 6 67 -4 0 -15
-39 -24 -86z M7800 270 c0 -5 5 -10 10 -10 6 0 10 5 10 10 0 6 -4 10 -10 10
-5 0 -10 -4 -10 -10z M8346 194 c-10 -47 -15 -88 -12 -91 5 -6 9 7 30 110 7
37 10 67 6 67 -4 0 -15 -39 -24 -86z M8426 269 c-3 -8 -10 -41 -16 -74 -6 -33
-14 -68 -16 -77 -3 -10 -1 -18 3 -18 10 0 46 171 38 178 -2 3 -7 -1 -9 -9z
M7189 241 c-38 -38 -41 -101 -7 -125 29 -20 79 -20 104 0 18 14 18 15 1 10
-53 -17 -69 -17 -92 -2 -69 45 21 166 94 126 12 -6 21 -7 21 -1 0 12 -25 21
-62 21 -19 0 -39 -10 -59 -29z M8190 189 c-28 -45 -49 -83 -47 -85 2 -3 12 7
21 21 14 21 24 25 66 25 43 0 50 -3 50 -19 0 -11 5 -23 10 -26 6 -3 10 -3 10
1 0 20 -44 164 -51 164 -4 0 -30 -37 -59 -81z m75 4 l7 -33 -42 0 c-42 0 -42
0 -28 23 8 12 21 32 29 44 15 25 22 18 34 -34z M7340 210 c-22 -22 -27 -79 -8
-98 19 -19 66 -14 88 8 22 22 27 79 8 98 -19 19 -66 14 -88 -8z m71 0 c25 -14
25 -54 -1 -80 -23 -23 -33 -24 -61 -10 -25 14 -25 54 1 80 23 23 33 24 61 10z
M7550 210 c-22 -22 -27 -79 -8 -98 19 -19 66 -14 88 8 22 22 27 79 8 98 -19
19 -66 14 -88 -8z m71 0 c25 -14 25 -54 -1 -80 -23 -23 -33 -24 -61 -10 -25
14 -25 54 1 80 23 23 33 24 61 10z M7696 204 c-3 -16 -8 -47 -11 -69 -8 -51
10 -26 19 27 5 27 15 42 34 53 18 10 22 14 10 15 -9 0 -20 -5 -24 -11 -5 -8
-9 -8 -14 1 -5 8 -10 3 -14 -16z M7797 223 c-2 -4 -7 -26 -11 -48 -4 -22 -9
-48 -12 -57 -3 -10 -1 -18 4 -18 4 0 14 28 20 62 11 58 10 81 -1 61z M7855
220 c-1 -3 -5 -23 -9 -45 -4 -22 -9 -48 -12 -57 -3 -10 -1 -18 4 -18 5 0 13
20 17 45 7 53 44 87 74 68 17 -11 19 -28 8 -80 -4 -18 -3 -33 2 -33 16 0 24
99 11 115 -12 14 -87 18 -95 5z M8020 210 c-22 -22 -27 -79 -8 -98 7 -7 24
-12 38 -12 14 0 31 5 38 12 9 9 12 8 12 -5 0 -9 -12 -24 -26 -34 -21 -13 -32
-15 -55 -6 -16 6 -29 8 -29 3 0 -24 81 -27 102 -2 18 19 50 162 37 162 -5 0
-9 -5 -9 -10 0 -7 -6 -7 -19 0 -30 16 -59 12 -81 -10z m71 0 c29 -16 25 -65
-6 -86 -56 -37 -103 28 -55 76 23 23 33 24 61 10z M8521 211 c-23 -23 -28 -80
-9 -99 19 -19 88 -13 88 9 0 5 -11 4 -24 -2 -54 -25 -89 38 -46 81 23 23 33
24 62 9 16 -9 19 -8 16 3 -8 22 -64 22 -87 -1z M8650 210 c-22 -22 -27 -79 -8
-98 19 -19 66 -14 88 8 22 22 27 79 8 98 -19 19 -66 14 -88 -8z m71 0 c25 -14
25 -54 -1 -80 -23 -23 -33 -24 -61 -10 -25 14 -25 54 1 80 23 23 33 24 61 10z
M8796 201 c-3 -14 -8 -44 -11 -66 -8 -51 10 -26 19 27 8 41 35 63 66 53 22 -7
24 -21 11 -77 -5 -22 -5 -38 0 -38 5 0 9 6 9 13 0 68 51 125 85 97 15 -13 15
-35 -1 -92 -3 -10 -1 -18 4 -18 6 0 13 23 17 50 9 63 -5 84 -49 76 -17 -4 -35
-6 -41 -6 -101 8 -104 7 -109 -19z M8440 110 c0 -5 5 -10 10 -10 6 0 10 5 10
10 0 6 -4 10 -10 10 -5 0 -10 -4 -10 -10z"/>
</g>
</svg>
