<?xml version="1.0" encoding="utf-8"?>
<!-- Generator: Adobe Illustrator 26.0.0, SVG Export Plug-In . SVG Version: 6.00 Build 0)  -->
<svg version="1.1" id="Capa_1" xmlns="http://www.w3.org/2000/svg" xmlns:xlink="http://www.w3.org/1999/xlink" x="0px" y="0px"
	 viewBox="0 0 595.3 951" style="enable-background:new 0 0 595.3 951;" xml:space="preserve">
<style type="text/css">
	.st0{fill:#FFFFFF;}
</style>
<g>
	<path d="M422,604.3c12.4,4.3,26,25.5,36.1,35.3c17.8,23.6,51.6,48.3,31.3,81.1c-14,27.9-72.9,17.9-58.3-17.5c2.7-4.4-2.6-4.4-5.5-6
		c-5.1,27.2-17.4,50.8-36.3,70.9c-2.1,1.7-2.1,2.8,0.4,4.5c17.5,11.6,27.2,28.5,32.7,48.3c0.9,3.8,1.2,7.5,5,9.7
		c21.2,15.7,3.2,42.7,9.3,55.2c12.9,14.7,41,30,27.5,52.7c-26.4,18.9-103.8,16.7-120.2-15.3c-4-7-5.3-14.7-3.1-22.6
		c4.5-16.2,6.6-32.6,7.2-49.4c4.1-28.2,11-31.5-17.4-47.2c-1.1-0.6-2.8-1-3.9-0.7c-20.5,6.7-41.5,9.3-63,7.6
		c-6.4,19.4-5.6,53.6-23.8,64c-1.2,0.7-2.4,1.4-1.5,3.2c-6.5,20.9-3.4,43.1-24.7,56.6c-21.5,9.8-47.2,3.3-67.6-6.7
		c-27-12.9-21.9-50.7-2.8-69.3c11.2-12,23.8-22.1,37.7-30.8c5.9-5.2,7.2-14.2,11.5-20.6c4.8-8.2,5.4-17,4.8-26.1
		c-3.3-7-13.1-7.7-19.5-5.9c-15.9,4.3-32,5.8-48.3,3.4c-29.1-4.7-59.4-24.4-66.8-54.3c-8.8-30.3,16.4-69.5-14.2-91.7
		c-7.6-5.8-14.7-12.4-21.9-18.8c-7.8-6.9-5.1-22.2,6.6-22.3c32.6,3.5,59,32.9,58.7,66.2c0.6,17.4-0.1,35,0.7,52.3
		c6.5,38.1,63.2,36,92.8,43.3c0.5-4.7,5.9-11.8,1.5-15.3c-79.3-63-18.8-88.3,31.4-137.4c-115.9-28.2-199.9-113.2-182-238.2
		c3.7-14.5,7.8-28.8,11.7-43.2c1.7-7.9,5.5-15.5,3.5-23.6c-1.2-29.9-14.2-56.2-30.5-80.7C7.2,190.5-0.2,161.9,0.3,133.8
		c0.9-4.6,1.4-13.8,5.3-16.3c24.5-5.1,49.7,0,73.9,5.2c26.1,4.9,50.4,16.4,74.9,25.1c10.8-3.6,21.5-7.3,32.7-11.1
		c-12.2-18-19.9-38.2-32.5-55.9C132.8,65.6,203.1,68,207.5,62c1.2-10.1,6.5-18.3,12.4-26.1c37.3-52.8,108-43.5,133.2,13.5
		c0.9,2.9,2.2,3.6,5,3.5c20.5-0.3,40.7-0.4,61,1.7c3.1,0.2,4.4,3.2,2.9,6.9c-9.7,20.4-19.2,41.4-27.8,62.1c17,2.1,33.8,4.7,50.3,9
		c5.4,1.8,10.9,3.2,16,0c16.1-9.8,104-42,115.1-25.6c10.9,35.5-11.4,69.7-15.4,104.8c-1.1,6.4-3.8,12.8-4.4,19.3
		c2.7,8.4,5,17,8.2,25.2c28.5,61.7,41.1,133.7,22.7,200.2C567.2,533.7,491.3,577.2,422,604.3z"/>
	<path class="st0" d="M41.1,394.1c25.7-6.6,49-11.6,74.7-15c2.3-0.4,3.9,0.7,5.1,2.5c13.2,21.2,27,43.9,52.6,50.9
		c30.4,10.2,63.5,10.4,94,0.3c37.7-10.6,63.1-45.1,67.2-83.4c3.9-5,18.7-4.8,25.3-7c70.5-13.8,141.5-25,212.4-36
		c2.8-0.5,3.5,0.4,4.2,3c9.5,32.4,13.7,66.5,10.6,100.2c-6.6,102.7-75.3,149.3-163.3,185.6c-61.1,7.9-123.4,6.8-184.8,1.6
		c-39.8-4.4-76.8-23-110.6-43.4C71.7,521,42.7,457.9,41.1,394.1z M517.8,416.4c19.9-1.8,34.7-18.4,51.6-27.8
		c6.9-4.6,6.8-39.3,9.2-49.5c0.3-3.8-2.3-10-7-8.4c-31.7,11.2-59.1,31.5-87.3,49.3C472.2,387,508.9,418.6,517.8,416.4z M393.2,463.4
		c26.5,20.4,66.3,6.9,75.1-25.4c12-34.1-21.7-64.1-56.2-48.7c-3.1-15.7-26.8-7.8-37.5-5.7c-6.1,1.7-8.4,6-6.2,11.7
		c-27.8,1.9-64.5,20.5-61.2,52.6c2.2,13.1,9.6,22.7,22,28C350,484.4,380,486,393.2,463.4z M561.2,462.1c1.4-14.6-16.5-9.8-20-0.3
		C536.5,477.2,562.2,477.2,561.2,462.1z M514.6,497.2c16.4-0.2,14.5-24-2-17.3C502.1,482.8,503.5,496.3,514.6,497.2z M488.8,464.1
		c1.1,12.7,18.3,10.4,19.1-0.6C507.4,450.1,489.6,452,488.8,464.1z M265.3,483.5c13.4,0.6,11.1-17.7-0.1-17.9
		C257.6,466.6,251.7,484.4,265.3,483.5z M236.5,512.4c7.8,0.7,12.8-8.9,6.6-14.1c-4.9-4-16.2,1.6-14.5,8.1
		C229.2,510.6,231.5,512.4,236.5,512.4z M206.8,486.7c0.1-10.3-14.8-10.2-15.9-1.4C190.6,496.2,207.2,497.6,206.8,486.7z"/>
	<path class="st0" d="M563.3,277c-174.7,21.9-349.2,46.1-519.7,90.6c2.4-16.6,8.3-32.8,12.2-49.1c2.2-9.2,5.7-18.3,2.9-27.8
		c-2.4-12.5-3-25.4-8.5-37.1C35.7,224.1,15,197,10.1,163.7c-1.2-6.8-6-36.6,0.7-39c30.6-2,61.4,1.9,90.3,12.3
		c15.6,3.6,43.5,20.7,57.2,17c17.4-4,34.3-14.9,52.4-11.8c37.8,2.1,75.8,3.1,113.5,0.2c10.6-2.4,66.7-2,67-10.3
		c1.3-4,5.9-0.1,8.9-0.4c66.7,13.3,42,16.9,105.3-9.3c10.7-4.4,59-18.3,63.9-8.9c2.8,8,2.2,16,0.4,24c-7.4,30.8-13.7,62-22,92.6
		c-0.6,2.2-0.1,3.9,1.7,5.4c6.8,12.5,8.9,27.7,13.9,41.1C563.4,276.5,563.3,277,563.3,277z M32,145.6c-6.9,1-3,6.9-1.7,11.1
		c4.1,26.1,12.9,51.1,25.5,74.4c16,33.3,22,10.5,38.2-6.1c11.5-13.5,22.7-27.3,34.8-40.3c4.7-5.1,4.4-12.3-3.5-15.5
		C94.6,159.6,63.9,150.7,32,145.6z M554.2,137.8c0.5-10.9-11.3-6.9-17.7-4.6c-17.1,6.2-34.2,12.5-51.3,18.9
		c-3.9,1.3-10.2,8-5.1,11.4c17.7,11,32.3,25.2,43.9,42.6c2.1,2.4,6.9,9,9.7,4.2C548.5,189,553.8,163.3,554.2,137.8z"/>
	<path class="st0" d="M250.8,712.8c10.6-11.8,10.5-14.1-2.8-22.6c-0.9-0.7-1.9-2.1-1.8-3.1c1.7-14.1,2.4-28.1,5.4-41.9
		c25.4,11.6,49.6,26.3,77.2,32.3c2.8,0.7,5,0,6-2.7c4.6-12.1,8.1-23.6,11.7-36.3c4.8,5.1,24.8,38.7,30.2,33.5
		c15.6-12.5,30.1-25,45.9-37.4c1.2,13,2.1,25.5-1.1,37.6c-5.8,5.5-6.6,9.1-2.5,18.2c1,2.2,1.3,3.9,0.6,6.3
		c-4,19.3-11.1,37.5-23.6,53.2c-20.3,31.3-55.5,43.8-90.4,50.7c-17.2,2.5-37.9,7.6-51.2-7c-11.3-9.5-12-24.4-14.7-37.9
		c-0.3-1.6,0-2.3,1.7-3.1C257.4,746.3,265.9,725,250.8,712.8z"/>
	<path class="st0" d="M413.3,61c-5.8,15.4-13.9,30.5-20.5,46c-7.3-2.6-14.7,0.8-22.2,1.3c-7.9,0.5-15.8,1.4-23.7,2
		c-35.7,2.2-71.5,4.2-107.2,6.8c-18.4,0.7-36.8,0-55.2-0.4c-2.1,0-3.3-0.6-4.3-2.4c-7.2-12.3-13.3-24.4-21.6-36.2
		c39.4-7.7,78.7-10.5,118.6-12.7C322.5,62.7,367.9,58.1,413.3,61z"/>
	<path class="st0" d="M240.2,687c-8.5,1.4-15.7-6.2-23.5-8.7c3.6-7,13-37.7,2.8-41c-0.4,1-1.2,2.1-1.1,3c1.2,7.5,1.2,15-1.1,22.2
		c-1.6,3.4-4.1,13.4-8.2,13.7c-8.7-1.5-33.2-4.6-39.2,1.6c3.9,3.1,9.4,1.7,14,2.2c15,0,29.1,3.5,42.5,10.2c6.1,4,23.3,3.5,24.8,11.4
		c-2.2,7.1-23-2.6-17.1,7.4c7.5,7.1,23.2,13.9,15.6,26.5c-10.1,18.1-32.9,14.9-47.5,4.6c-18.2-10.2-32.6-24.3-43.2-42.4
		c-16.2-31.1,25.3-55.1,43.6-74.4c3.1-2.4,7.6-5.9,11.6-3c10.2,6.9,20.3,13.8,30.4,20.9c0.8,0.6,1.4,2.3,1.3,3.3
		C244.2,658.8,241.4,672.7,240.2,687z"/>
	<path class="st0" d="M354.5,850c15,4.8,29.3,5,44.6,4.9c11.9,1,20.6-6.1,26-16.4c9.6,11.9,2.8,28.7,3,42.6
		c-17.7,12.2-42.1,4.2-62.4,4.2c2.7,4.2,6.7,6.3,11.1,6.8c18.1,2.7,36.2,3.9,53.5-3.3c7.2,16.5,31.2,19.9,30.3,40.7
		c0,3-1.6,4.8-4.2,5.7c-23.1,8.2-49,10.3-72.8,3.8C324.2,925.7,357,891.3,354.5,850z"/>
	<path class="st0" d="M414.8,603.6c0.3,8,8.5,21.2,1.5,26.3c-14.2,11-27.6,22.2-41.8,33.6c-37.5-47-24.7-58.5-46.4,6.2
		c-23.1-3.3-103.5-44.2-111.7-56.7c3.1-2.9,5.6-11.2,10.3-10.5c20.4,3.2,41.1,3.9,61.7,4.5C330.5,608.5,373,609.8,414.8,603.6z
		 M309.1,650.4c-0.3,3.8,4.1,2.6,5.3,0.1c3.7-7,11.8-13.9,12.7-21.6C318.2,627.5,309.8,642.6,309.1,650.4z M374.1,621.1
		c2.3,7.3,8.1,13.1,12.1,19.7c3.1,2,4.6-1.1,3.7-3.6C387.2,634.5,377.7,613,374.1,621.1z M308.5,622.5c-5.9,2.8-9.3,8.6-13.9,12.9
		c-1.3,1.4-2.5,3-0.9,4.3c5.9,2.8,12.6-9.4,17.1-12.7C312.5,624.7,310.8,623.5,308.5,622.5z M402.7,632c-1.8-5.8-5.8-11-8.8-16.3
		c-0.6-0.9-2.4-1-3.7-1.5C387.1,618.4,400.1,642.1,402.7,632z M269.2,631.8c3.7-3.2,16-10.7,14.8-15.9
		C280.3,612,259.3,630.3,269.2,631.8z M413.3,626.7c-0.8-5.7-1.7-18.7-7.7-20.7c-3.3,0.4-1.3,3.6-1.1,5.8
		C406.8,616,406.5,628.9,413.3,626.7z"/>
	<path class="st0" d="M235.4,755c-2.3,18.5,3.6,33.4,17.1,46.2c-17.6-2.6-31.8-9.2-45.1-20c-5.6-5.4-3.8-8.2-13.3-10.9
		c-9-2.9-17.8-1.7-26.9,0.3c-36.7,9.2-80.5-5.1-96.2-41.5c-3.5-8.2-3.5-17-2.9-25.6c5.4-50.3,9.7-58.3-34.1-89.8
		c-5.6-3.7-8.2-13.6-0.5-14.7c8.9-1.2,16.3,2.6,23.3,7.3c67.9,43.8-20,130.6,83,146.1c15.8,2.8,31.4,6.4,47.3,8.3
		c5.9,0.2,4.6-3.3,3.3-7.5c0.8-3.4,1.6-6.8,2.6-10.6C206.2,750.7,218.8,759.1,235.4,755z"/>
	<path class="st0" d="M221.5,881.1c-17.4,4.7-34.1-2.5-51.2-3.9c-0.2,0.3-0.4,0.6-0.6,0.9c7.6,11.2,44.4,13.8,57.4,11.7
		c0.7,13.9-5,27.3-15,36.8c-16.4,10.9-44.3,4.2-61-4c-18.7-7.5-20.9-28.8-12.8-45.4c9.3-17.9,25.9-31.2,43.2-41
		C177.3,860.2,198.9,879.5,221.5,881.1z"/>
	<path class="st0" d="M347,53.2c-45.2,3.3-89.9,6.7-135.5,10C240.5-1.6,312.2-14.4,347,53.2z"/>
	<path class="st0" d="M427.5,668.8c3.4-18.8-0.2-37-2.1-55.4c20.2,21.1,40.2,42.2,57.3,65.9c22.9,29-15.9,70-44,43.6
		c-2.3-2.5-3.3-5.5-2.8-8.9c-0.4-5.2,5.2-16.6,0.3-19.4c-29.7-10-3.8-29.4,6.6-13.6c0.7,3.3,0.4,7.1,5.1,5.9
		c10.2-2.7,20.7-0.5,30.8-1.5c-2.7-5.2-13.8-5-19.2-6.8c-3.7-1-8.9,1.7-12-0.9C443.3,669.8,436.2,668.1,427.5,668.8z"/>
	<path class="st0" d="M257.2,810.1c-4.2,15.9-7,32.4-12.1,48.1c-10.7,24.5-43.7,16.5-53.9-3.4c-5.1-9.2-4.8-19,0-28
		c7-12.5,11.3-25.5,12.9-39.6C217.8,802.5,238.1,805.3,257.2,810.1z"/>
	<path class="st0" d="M337.3,800.5c15.5-5.8,31.1-12.2,43.3-23.7c2.2-2,3.3-0.4,4.6,0.6c13.8,8.9,50.3,60.7,21.3,67.8
		c-15.4,4.3-32.7,2.6-48-1.8c-2.4-0.8-2.1-2.3-1.7-4.5C363.1,816.4,353.1,813.2,337.3,800.5z"/>
	<path class="st0" d="M390.3,114.6c-2.6,4.2-2.9,11.1-7.4,13.5c-24.7,4.3-49.4,7-74.5,7.7c-38.1,1.1-76.3,1.4-114.2-2
		c-5-1.3-6-6.7-9.5-10.9C253.5,125.6,321.7,118.3,390.3,114.6z"/>
	<path class="st0" d="M566.6,358.6c-0.2,4-8.4,4.4-7.9-0.4C558.6,352.7,566.9,352.5,566.6,358.6z"/>
	<path class="st0" d="M395.7,457.8c-0.9-10.6,2.1-22.3-1.6-32.2c-0.3,0-0.7,0-1,0c-4.4,11.9-0.2,33.2-10.5,40.7
		c-20.1,15.5-65.2,8.9-69.1-20.2c-2.2-28.9,38.8-49.7,63.9-42.7c21.6,10.8,12.5,15.5,30.9-5.3c5-4.1,19.1-3.4,26-4.3
		c11.5-0.4,21.6,6.6,26.1,17.3c6.5,15.4,1.5,28.9-8.3,40.6C438,469.5,413.8,469.4,395.7,457.8z"/>
	<path class="st0" d="M394.7,405.3c-7.6-5.1-14.2-9.6-21.2-14.3c9.1-4.5,19.1-5.8,29-4.9C412.9,387.4,396.3,401.3,394.7,405.3z"/>
	<path class="st0" d="M548.7,469.3c-9.6,0.3-2.7-11.8,3.7-10.9C559.7,458.5,555.3,470.8,548.7,469.3z"/>
	<path class="st0" d="M521.8,487.5c0.3,7.3-12.2,8.2-12.5,0C508.7,482.8,522.5,480.3,521.8,487.5z"/>
	<path class="st0" d="M498,469.7c-9.2-1.2-4.7-10.8,1.6-11.6C504.7,459.8,505.1,469.4,498,469.7z"/>
	<path class="st0" d="M265,479c-7.2,1-3-10.1,1.1-9.4C270.6,472.8,274.2,478.5,265,479z"/>
	<path class="st0" d="M237.1,509.6c-6.6-1.5-5-8.1,1.1-8.5C245.6,501.6,240.9,507.4,237.1,509.6z"/>
	<path class="st0" d="M202.5,486.6c0.7,5.6-8.1,4.2-7.5-0.2C195.5,483.3,203.2,481.9,202.5,486.6z"/>
	<path class="st0" d="M35.5,154.7c11.2-0.9,81,17.4,87.6,22.7c-17.4,21-34.9,42-52.7,63.4C52.5,214.5,42,185.5,35.5,154.7z"/>
	<path class="st0" d="M531.1,200.7c-15.3-13.1-25.4-31.3-43.7-41.3c6.1-5,45.8-19.2,57.7-20.8C548.7,150.3,540.8,185.3,531.1,200.7z
		"/>
</g>
</svg>
