<?xml version="1.0" encoding="utf-8"?>
<!-- Generator: Adobe Illustrator 26.0.0, SVG Export Plug-In . SVG Version: 6.00 Build 0)  -->
<svg version="1.1" id="Capa_1" xmlns="http://www.w3.org/2000/svg" xmlns:xlink="http://www.w3.org/1999/xlink" x="0px" y="0px"
	 viewBox="0 0 595.3 857" style="enable-background:new 0 0 595.3 857;" xml:space="preserve">
<style type="text/css">
	.st0{fill:#FFFFFF;}
</style>
<g>
	<path d="M521.9,542.3c10.4-3.2,18.8-10.5,27.5-17.5c9.6-7.8,20.7-13.2,32.5-16.8c3-0.9,6.2-0.8,9.1,0.8c2.8,1.6,4.3,3.7,4.3,7.3
		c0.2,31.6-26.8,53.2-43.2,77.6c-13.1,16.6-30.4,26.8-50.9,32c-1,0.3-2.2,1.3-2.6,2.3c-8.4,20.6-18.4,40.4-30.3,59.1
		c-14.4,21.9-29.4,43.3-43.9,65c-8.2,14.6,43.6,57.9,19.4,100.8c-1.5,3.6-4.3,4.3-7.8,3.8c-39.2-6.1-53.6-51.5-50.5-86.1
		c-8.6-19.7-44,12.9-54.6,20c-21.9,17.5-85.8,41.8-103,10.5c-1.1-9.8,2-18.2,8.9-25.3c18.8-21.4,48.7-20.9,74.4-27.2
		c20.4-0.5-37.9-55.4-43-60.5c-31.3,9.4-53.6,34.8-80.8,51.4c-42.2,13.7,18.9-86.9,31.2-94C109.1,530.9,97.8,398.2,251.9,320.2
		c-9.6-35-39.9-59.5-75.3-65.2c-28.8-6.6-56.9,5.1-85.8,3.6c-6.1-0.2-12.3-0.6-18.3-1.4c-8.3-0.9-22.5-9.9-14.5-19
		c37-27,106.1-14.7,146.9-0.9c-48.7-46.8-127.1-31.6-176.8-76.5c-6-5.2-6.4-12.5-5.4-19.6c3.9-7.8,14.5-11.2,22.8-12.7
		c18.2-4,38.8-7,55.2,3.9c38.3,22.2,69.2,55.2,105.9,79.5c-22.1-33.9-47.5-66.6-82-88.6c-24.4-14.2-51.7-30.9-81-28.8
		c-10.7,1.6-20.5-1.8-28.7-8.7C-0.3,63.5-2.8,33.1,2.8,7.1c3.3-15,39.3-3.7,48.8,1C93,34.4,123.3,74.6,155.7,110.7
		c2.5-5.9,0.9-11.9,5.7-16.2c5-5.1,16-10.2,22.2-5.3c16.9,18,12.9,44.7,17.6,67.2c6.3,27,23.1,50.8,39.2,72.9
		c-8.6-53.4-17.6-111,6.8-161.7c6.8-14.8,15.6-29.2,29.9-37.9c2-1,8.4-2.3,8.7,1.3c7.9,30.7-12.4,68.5-19.7,98.9
		c-6,19.1-9.6,38.8-11,58.9c-2,25.2-6.1,51,2.1,75.6c2.9,8.4,17.9,50.7,28.6,44c77.9-17.7,165.9,13.7,206.5,84.5
		C518.8,437.9,523.7,491.2,521.9,542.3z"/>
	<path class="st0" d="M511.8,553.2c-95.1,17.5-185.1,54.5-277.2,82.3c-4.3,0.1-9.8,5-13.3,2.1c-29.1-29.8-53-64.9-67.3-104.1
		c-20-52.8-15.3-104,24.3-146c42.1-3.9,81.3-22.1,121.6-33.9c22.8-8.2,46.5-14,68.5-24.4c-64,15.9-125.5,41.1-189.5,56.5
		c26-30.3,22.7-23.9,59.1-35.3c36.2-11.5,73.2-20.2,107.8-36.4c-47,11.2-90.2,32.1-138,42.1c56.7-48.3,142.8-60.2,209.1-25
		c78.7,42.1,110.9,138.4,95.1,223.1C512,553.7,511.9,553.4,511.8,553.2z M358.2,498.4c0.1,0.2,0.2,0.5,0.4,0.7
		c-15.4,3.7-39.7,16.2-39.9,34c2,19.8,22.9,29.2,40.9,26c6.2-1.2,3.2,1.4,6.7,3.1c10.6,2.2,20.8,1.8,30.5-3.6
		c5.5-3.6,10.8-4.2,10.7-11.9c16.9-5.1,27.6-21.2,29.3-38.3c0.1-27.9-33.7-32.2-52.1-18.4c-1.4,1-2,0.9-3.4-0.1
		C373.5,485.1,362.1,490.8,358.2,498.4z M490.5,456.2c0.5-17.3-12-31.1-29.9-27.9c-31.5,10.2-3.2,76.4,19.8,54.5
		C487.1,475.6,490.3,467.1,490.5,456.2z M224,540.8c0.2,0.3,0.3,0.7,0.5,1c14.3-7.1,29.6-7.4,45.1-9.1c5.7-0.8,14.5,2.1,16.8-5
		c1.1-6.1-7-10.3-12.3-9.9C255.6,519.7,235,524.5,224,540.8z M354,568.1c12,15,36,14.3,51.1,4.3c5.5-3.4,12.3-9.9,9.4-16.9
		c-1,0.4-2.5,0.5-3.1,1.2C398.6,574.7,372.6,581.8,354,568.1z"/>
	<path class="st0" d="M225.6,642.1c15.4-0.2,29.1-4,42.7-9.3c23.6-8.1,47.5-16.2,71.1-24.5c56.8-17,113.6-35.2,171.7-46.4
		c-12.7,70.7-53.5,129.5-94.4,186.7c-9.4,7.9,3.7,23,7.9,31.2c11.6,20,23.1,44.5,12.8,67.3c-3.2,5.1-15.7-3.9-19-6.7
		c-19.8-16.5-26.4-40.7-24.6-65.7c-1-5.1-1-12.8-6.3-15.3c-29.4-9-49.8,20.4-73.5,32.5c-19.6,11.6-56.2,22.7-77,10
		c-1.6-1.1-2.4-5-1.5-7c10-26.4,36-29.5,60.4-34.3c11.5-3.4,35.1-3.9,24.6-22.5C297.8,698.1,258.9,672.4,225.6,642.1z"/>
	<path class="st0" d="M273.6,312.1c-4.4,1.5-8.6,3-13.1,4.6c-1.7-20.4-13.8-37-24.1-53.9c-0.2-0.4-0.8-0.8-0.7-1.2
		c0.6-4-2.6-5.8-4.9-8c-6.1-6-12.1-12.2-18.5-18c-35.2-36.9-85.9-39.4-131.4-54.4c-12.9-4.7-25.6-10.1-38.2-15.7
		c-7.4-3.3-11.9-9.4-13.8-17.4c-0.6-2.4,0.1-4.1,2.3-5.4c46.6-29.4,85.2,7.7,120.4,36.1c19.9,16,39.5,32.1,61.6,45.2
		c9,7.7,14.3,18.8,24.5,25.5c-2-5.7-6.2-10.3-7.7-16.2c-2.9-6.8-8.6-11.5-13.2-17.2c-27.6-44.1-60.3-86.3-107.7-110.4
		C94.6,98,79.4,91.9,63.6,87.3c-5.1-1.5-10.1-1.3-15.1-0.2c-12.4,2.3-28.7-0.4-33.9-13.2C7.2,53.4,3.5,31,9.4,9.7
		c2.1-4.5,23.8-1.3,27.8,1.3c43.8,20.3,74,59.4,105.3,94.8c33.2,42.7,63.8,87.7,94.8,132c4.2,8.5,7.5,17.5,10.8,26.3
		C257.3,279.8,260.6,298.3,273.6,312.1z"/>
	<path class="st0" d="M520.3,548.8c26-1.4,38.5-28.4,63.7-32.2c3.3-0.8,4-0.1,3.6,3.1c-3.1,22.5-20.6,39.4-32.1,58.1
		c-13.1,18.7-31.9,31.4-52.8,40C511.4,595.2,517,572.3,520.3,548.8z"/>
	<path class="st0" d="M179.3,732.8c0.8-8.8,3.4-16.9,7.1-24.8c8.8-19.7,19.6-45.6,37.4-57.7c11.1,11.3,24.6,20.8,37.2,30.4
		c-0.1,0.2-0.3,0.5-0.4,0.7c-21.9,6.6-38.9,23.1-57.2,36.2C195.5,723.1,190.7,735,179.3,732.8z"/>
	<path class="st0" d="M245,214c-2.9-34-9.7-68.8-2.6-102.8c6.3-25.9,14.1-57.4,37.4-73c-0.4,38-17.5,74.2-25.8,110.9
		c-4.1,21.4-6,43.2-7.9,64.9C245.7,214,245.3,214,245,214z"/>
	<path class="st0" d="M243.4,285c-23.8-31.1-64.5-41.4-102.1-39.3c-25.4-0.8-56.2,17.7-78.3-1.5c27.9-20.6,72.8-14.2,105.2-9
		c34.6,6.5,58.7,15.9,74.9,49.1C243.3,284.4,243.4,284.7,243.4,285z"/>
	<path class="st0" d="M161.1,117.8c6.3-7.1,0.3-19,11.8-22c18.3-7.4,16.5,42,19.6,52.8c0.6,6.3,3.9,12.5,4.1,18.8
		C184.8,150.9,172.9,134.4,161.1,117.8z"/>
	<path class="st0" d="M389.9,537.4c3.5-10.8-0.5-24-7.2-26c7.4,20.6,6.7,22.7-10.9,37.3c-10.1,6-21.5,3.3-32.2,1
		c-9-2.2-14.3-9-14.2-18.3c6.2-14.4,21.9-22.8,36-28.4c4-0.4,8.1,1.6,12.1,2.3c7.4,1.7,5.6-9.6,16.4-12
		C451.1,467,431.7,558.6,389.9,537.4z"/>
	<path class="st0" d="M364.1,498.2c2.9-5.1,7.4-7,13.8-3.5C374.2,503.7,371.9,500.1,364.1,498.2z"/>
	<path class="st0" d="M481.6,451c-3,0.6-6.2,3.2-9.3,2c-4.5-2.6-5.5-10.8-1.6-14.3C476.5,434.3,480.1,443.3,481.6,451z"/>
</g>
</svg>
