<?xml version="1.0" encoding="utf-8"?>
<!-- Generator: Adobe Illustrator 26.0.0, SVG Export Plug-In . SVG Version: 6.00 Build 0)  -->
<svg version="1.1" id="Capa_1" xmlns="http://www.w3.org/2000/svg" xmlns:xlink="http://www.w3.org/1999/xlink" x="0px" y="0px"
	 viewBox="0 0 595.3 596.9" style="enable-background:new 0 0 595.3 596.9;" xml:space="preserve">
<style type="text/css">
	.st0{fill:#FFFFFF;}
</style>
<g>
	<path d="M593.6,472c-2.5-1.7-4.7,0.9-6.1,2.9c-4.6,5.4-13.7,6.9-18.8,1.2c12.1-6.2,17.6-27.4,0.2-30c-14.7-2.5-12.4,16.6-11,26
		c-4.1,1-10.3-0.8-13.7-4c34-70.8,7.1-157.5-41.7-214.7c29.7-36.5,15.5-86.5-7.7-122.4c-5.6-11-14.5-19.5-23.7-27.6
		c-2.2-2-2.2-2.9,0.4-4.4c20.5-10.8,22.8-30.2,11.3-49.1c-10.6-22.5-80.8-70.8-98.4-39.8c-7.9,16-1.7,22.5-2.1,37.4
		c-11.9-9.3-21.8-21.2-34.2-29.9c-8-4.5-15.7,2.8-14.1,11.2c1,6.7,5.1,11.8,9.6,16.5c-34.8-8.4-69.8-16-105-22.3
		c-6.5-3.5-13.2-3.7-20-1.3c-22.4,9.1-45.7,42.9-25.1,64c13.2,17.9,28.7,33.7,49.7,42.1c-8.9,10.2-9.2,23.7-11.8,36.3
		c-1.6,7.6-2.2,15.3-1.6,23.1c2.2,30.6,2.3,30,17.6,55.9c-4,2.8-6.8,4.8-10.8,7.7c-0.3-14.7-1.4-29.2-10.3-41.6
		c-13.4-18.8-30.4-36.3-53.7-42.1c-44-13-89-23.4-134.7-28.6c-5.2-0.5-10.4-0.8-15.5-1.1c-3.9-0.6-2.6,3.1-3.6,5.6
		C2.5,193.5-1,246.7,0.2,299.3c-0.2,2.5,0.7,3.8,2.4,5.1c10.9,9.2,23.7,15.7,35.3,23.5c-10.5,1.1-20.5,2-30.9,3.1
		c-1.8,0.2-2.5,0.8-2.7,2.4c-1.2,22.1-3,44.2-3,66.3c35.4,15.6,70.9,32.6,108.6,41.6c29.8-1,59.5-0.3,89.3-1.2
		c22.8,43.3,56.8,74.5,102,93.4c-6.1,16.4-15.2,31.2-21.8,47.3c-11.8-6.6-22.1-16.8-35.5-20.1c-6.7-1.5-9.8,5.2-4.9,9.9
		c2.6,2.7,5.6,4.8,9,6.4c11.1,4.9,22,10.7,33.4,14.8c3.3,0.7,5.8-2.1,4.8-5.2c-0.7-2.4,1.5-4.3,2.2-6.4c7-14.6,13.7-29,20.8-43.6
		c49.4,17.1,98.8,17.1,148.1-0.4c6.1,11.7,12,23.1,18,34.6c-9.7,3.5-19.5,7.1-29.1,10.8c-3.4,1.3-6.4,3.2-8.9,6
		c-4,4.1-0.6,10,4.6,9.3c5-0.4,9.5-2.3,13.9-4.7c9.7-5.3,19.6-10.2,28.9-16.2c3.1-1.6,2.6-6.6-0.8-7.6c-0.7-0.2-1.4-0.9-1.8-1.5
		c-5.9-11.2-12-22.1-17.6-33.5c30.2-12.1,58.7-31.2,76-59c7.1,3.2,13.2,4.6,21,4.9C573.2,496.3,602.5,479.9,593.6,472z M563.7,456.7
		c2.8-10.8,19.3,2.6,1.1,13.4C563.7,465.4,562.7,461.1,563.7,456.7z"/>
	<path class="st0" d="M499.5,257.3c71.2,85.1,85.9,227.2-37.7,270.8c-2.9-5.2-6.3-10.2-9.4-15.3c-1.8-2.4-4.1-3.7-5.8-2.3
		c-1.6,1.2-1.8,3.2-0.3,5.9c2.6,5,5.4,9.6,8,14.6c-90.8,34-203.7-2.8-248.2-91.1c4.5-1.6,7.2,1.2,9.1-1.4c0.9-1.1,1.2-2.5,0.4-3.7
		c-0.9-1.3-0.9-2.6-0.9-4c-0.2-11.6-0.4-23.2-0.7-34.8c-0.2-7.5-0.6-15.1-0.9-22.6c0-1.3-0.7-2-1.8-2.6c-8.1-4.5-16.3-9-24.3-13.7
		c0.1-1.4,1.1-1.4,1.8-1.7c4.1-1.9,8.4-3.5,12.3-5.7c3.1-1.7,6-3.9,8.7-6.3c1.4-1.2,2.8-1.6,4.6-1.5c11.9,0.8,23.7,1.6,35.6,0.6
		c3.3,0.5,4.7-4.3,1.3-5.1c-11.4-0.2-22.6-0.6-34.1-1.8c13.3-22.2,17.7-48.3,19.1-73.9c0-0.9,0.2-2.1,0.8-2.5
		c4.1-3.3,8.3-6.5,12.7-10c7,28.7,30.1,32.2,52.1,45.4c15.6,9.2,32.6,13.3,50.7,12.6c12.2-1.1,24.3-2.5,36.4-0.8
		c20.4,2.1,42.9,2.8,59.3-11.7C471.3,276.7,478.1,284.3,499.5,257.3z"/>
	<path class="st0" d="M254.3,124.4c1.2-1.4,0.9-2.9-0.1-4.1c-0.4-0.4-1.5-0.1-2.3-0.1c-2.2,2-4.2,2.5-6.8,1
		c-15.8-5-29.1-14.4-38.9-27.6c28.6,5.2,47.9-42.6,37.1-64.6c38.9,7.3,78.8,14.2,116,27.8c19.1,12,41.2,17.2,62.6,23.6
		c6.9,2.7,13.2,6.9,19.9,10.2c1.1,0.6,1.7,1.2,1.9,2.5c0.3,3.5,3.3,3.4,5.8,1.6c4,2.8,8,5.7,12,8.5c-0.2,1.6-1.4,3.2,0.4,4.3
		c1.4,0.8,2.2-0.2,3.3-1.3c30.3,25.3,51.1,67.4,48.1,107.2c-1.6,20.9-15.1,38.2-29.2,52.6c-4.6,4.6-9.9,8.2-15.9,10.6
		c-16.9,5-27.7,21.6-45.3,24.1c-20.4,3.1-41-3.1-61.3,0c-20.3,3.3-41-0.6-58.4-11.8c-5.8-3.8-11.9-6.9-18.3-9.6
		c-30.5-12.5-23.5-25.9-38.1-48.3c-5.9-8.5-9.4-17.7-10.3-28.1c-0.7-8.7-2-17.3-1.4-26c1-10.8,3.1-21.5,5.2-32.1
		c0.6-3.6,6-17.5,10.5-15.2c2,0.8,4.8,0.7,5.6-1.5C257.1,126.2,255.6,125.5,254.3,124.4z M438.8,201.2c0.4-26.2-32.4-33.4-46.6-13.8
		c-7.9,9.8-6.7,23.7-0.7,32.7C405.7,242,439.3,225.4,438.8,201.2z M272.6,191.5c-0.3-2.5,1.6-6.6-1.5-7.7c-1.3-0.4-2.5-0.1-3.3,1
		c-2.4,4.4-2.4,9.8-1.4,14.6c5.4,28.7,45.9,45.8,57.8,13.1c0.9-3.1-3.2-4.5-4.8,0C305.4,240.4,270.8,216.2,272.6,191.5z M289.3,71.9
		c0,19.9,27.4,13.6,30.8-1.1C325.2,46.5,289.4,46.7,289.3,71.9z M392.2,103.9c0.1-21.3-29.1-13.8-31.6,2.4
		C357.2,128.2,394.4,124.5,392.2,103.9z M269.5,163.7c0.3,1.6,1.5,3.3,2.7,3.3c2.8,0.1,2.6-3.7,4.7-5c2.7-2.7,6-4.6,9.4-6.2
		c3-1.2,1.1-5.7-1.8-4.3c-4.7,1.9-8.7,5.2-12.6,8.4C270.8,160.9,270.3,162.4,269.5,163.7z M305.6,182.4c-0.1,4.2,4.1,3.9,5,0.2
		c1.6-4.4,3.3-8.8,4.8-13.2c0.6-1.6,0.1-2.8-1.1-3.3c-1.1-0.5-2.1-0.1-2.9,1.5C309,172.3,306.5,177.1,305.6,182.4z M291.8,176.2
		c3.9-3.1,6-8.5,9-12.6c0.7-1.1,0.7-2.2-0.4-3c-1-0.8-2.4-0.6-3.2,0.6c-2.4,3.3-4.6,6.6-6.9,10C289,173.1,288.4,176.2,291.8,176.2z
		 M301.6,254.6c0,0,0.1,0,0.1,0c-0.1-2.6-0.1-14.5-4.4-13c-1.2,0.4-1.5,1.4-1.2,2.5c1.3,3.6,1.2,7.4,1.1,11.2
		c0.1,1.9-0.9,6.3,1.9,6.2C302.4,261.3,301,256.8,301.6,254.6z M329.9,180.3c0.1,0,0.2,0,0.2,0c-0.4,2.6-0.8,5.2-1.2,7.8
		c-0.4,1.6-1.3,3.9,0.9,4.6c5.7,1.3,4.6-12.8,3.8-16.1c-0.1-2.5-3.9-2.1-3.9,0.3C329.7,178.1,329.8,179.2,329.9,180.3z M290.8,243.7
		c-0.1-1.9-0.3-5.1-2.7-4.6c-1.4,0.3-1.5,1.3-1.6,2.5c-0.2,1.9-0.6,3.9-1,5.8c-0.4,2.6-3.7,7.8,0.5,8.8c1.3,0.1,1.8-0.7,2.1-1.8
		C289,251,290.3,247.3,290.8,243.7z M270.5,249.6c0.1,0,0.1,0,0.2,0c-0.7,3.3,2.9,5.2,4.1,1.8c0.8-3.6,1.3-7.2,2-10.8
		c0.3-1.7-0.4-2.9-1.9-3.1c-1.6-0.2-2.5,0.6-2.7,2.4C271.8,243.2,271.2,246.4,270.5,249.6z"/>
	<path class="st0" d="M138.1,355.6c-47.2-9.5-93.7-25.4-132.4-54.7c-2.6-53.6,3-107.2,18.4-158.7c45.3,5.9,90.3,13.8,134.5,25.6
		c2.8,0.8,5.5,1.9,8.3,2.9c1.2,0.4,1.7,1.3,1.7,2.6c1.1,24-1,48-4.5,71.7C158.1,282.3,153.3,320.7,138.1,355.6z M149.5,217.1
		c-2.7-29.4,3.5-18.9-35.3-32.9c-25.7-7.7-52.1-12.9-78.7-15.8c-2.8-0.3-3.1,0-3.6,2.7c-0.4,2.6-0.8,5.2-1.2,7.8
		c-6.6,35.5-9,71.6-9.8,107.5c-0.9,2.3,1.2,3.4,2.9,4.4c30.5,19.1,65.5,28.7,99.9,38.3c4,1.6,4.9-1.6,5.9-4.8
		C140.9,289.8,146.8,253.3,149.5,217.1z"/>
	<path class="st0" d="M144.2,357.1c12.2-31,17.7-64.2,22.9-97c4.6-29,7.5-58.3,5.9-87.7c21.3,5.1,38.3,24.2,50,41.8
		c10.6,17.2,9.1,38.3,7.1,57.6c-2.2,19.9-5.2,40.6-16.5,57.7c-4.4,6.5-2.5,5.2-9.6,4.5c-8.1-0.8-16.1-1.7-24.2-2.4
		c-1.2-0.1-2.2-0.3-2.8-1.5c-2.3-3.8-3.7-8-5.5-12.1c-1.7-4.6-7.4-1.5-5.8,2.4c1.6,4.2,3,7.7,5,11.8c-4.1-0.4-7.7-0.7-11.4-1
		c-2.2-0.5-5.2,0-5.4,2.5c-0.2,1.8,0.6,3,2.6,3.4c5,0.8,9.3,1.3,14.5,1.1c-0.5,1-0.7,1.6-1,2.1c-2.9,3.1-5.7,6.3-8.7,9.3
		c-2.8,2.6,1.1,6.7,3.8,4.7c5.7-3.7,9.4-9.5,12.8-15.1c8.4,0.6,16.6,1.3,24.9,1.9c0.1,0.2,0.2,0.3,0.2,0.5
		C186.1,353.5,164.3,356.3,144.2,357.1z M183.3,270.3c-0.1-1.8-0.2-5.2-0.5-8.6c-0.1-4.6-7.6-4.8-7.3,0.2c0.6,9.5-1.3,18.8-2.1,28.2
		c0,2.2,1.5,3.7,3.3,4C184.4,295.2,183.3,276.7,183.3,270.3z M200.3,274.4c-0.1-1.6-0.3-4.6-0.5-7.6c-0.2-4.5-6.4-4.8-7-0.4
		c-1,9.2-1.9,18.4-3.4,27.5c-0.2,3.8,5.6,5.8,7.2,1.8C199.7,289,200.3,282.8,200.3,274.4z M217.6,276.6c-0.2-3-0.3-6-0.7-9
		c-1.1-5-7.6-3-7,1.8c-1.1,8.5-1.8,17.1-3.3,25.5c-0.2,2,1.1,3.8,3,4.3C216.7,301.4,217.7,281.2,217.6,276.6z"/>
	<path class="st0" d="M114.1,436.4c0.1-21.5-1.4-42.5-0.6-63.9c31.4-0.8,62.8,3,94.5,3.1c1.2,19.6-0.2,38.8,0.9,58.3
		C177.4,435.4,145.8,435.8,114.1,436.4z"/>
	<path class="st0" d="M108.4,435.2C73.3,425,40.2,409.4,6.2,396c1.7-19.6,0.2-39.4,2.5-59.4c5.4,0.6,10.3,2.5,15.4,3.9
		c26.2,8.8,52.9,16.3,78.2,27.4c7.7,3.3,6.3,2.4,6.4,9.7C108.9,396.9,109,416,108.4,435.2z M75,364.9c-0.5-1.8-2.5-2.9-4.2-3.5
		c-17.4-6.2-34.7-12.8-52.3-18.6c-2.7-0.9-3.6-0.5-3.8,1.9c-0.6,5.8-1.1,11.7-1.7,17.5c-0.1,1.5,0.3,2.5,1.9,3.1
		c17.9,7,36.1,13.4,54.1,20.2c2.5,0.9,3.7,0,3.9-2.7C73.4,376.6,73.8,371.1,75,364.9z M78.5,378.2c-0.9,15.2,23.9,16.6,24.3,1.8
		C103.6,363.1,79.1,362.2,78.5,378.2z"/>
	<path class="st0" d="M473.9,90.4c-27.3-16.2-54.7-31.9-82-47.9c-4.6-2.7-4.6-2.7-5.5-7.9c-3.5-13.9,2-32.5,19.6-29.3
		c30.6,5.8,64.6,27.4,76.3,57.2C486.1,72.9,483.7,84,473.9,90.4z M408.5,18.4c-2.4-0.3-4.8-4.8-6.9-1.9c-2,2.9,3.5,4.3,5.4,5.8
		c-2.3,5.1-3.3,8.8-6.1,13.8c-1.8-3.6-2.4-6-2.5-9.8c-0.2-2.9-3.8-2.1-3.6,0.5c-1.9,11.8,12.8,23.1,20.7,11c1.5-2.1-1.1-4.6-3.2-2.4
		c-2.1,1.9-4.4,4.9-7.6,2.7c2.2-4.7,4.4-9.3,6.6-14.1c2.5,0.6,6.3,3.1,7.3,0c0.7-2.7-3.7-3.1-5.6-3.9c0.2-2.1,2.9-7.8,0.3-8.6
		C410.3,10.7,409.7,16.6,408.5,18.4z"/>
	<path class="st0" d="M241.3,42.1c-0.3,10-3.3,19.3-7.8,28.1c-2.2,4.4-4.9,8.5-8.5,12c-13.9,15.4-37.5-2.4-32.2-20.3
		c4.2-17.8,20.3-38,40.4-34.8C240.1,26.1,241.2,37.2,241.3,42.1z M213,53.3c-0.6-10.2-13.8-8.2-11.6,2
		C202.6,62.6,213.5,60.7,213,53.3z M218.8,57.7c-0.2,8.4,11.2,8.8,12.1,1.2C231.6,49.4,219.7,48,218.8,57.7z"/>
	<path class="st0" d="M200.4,370.6c-28.6-1.5-57.1-2.5-85.8-3.1c-1.5,0-2.7-0.5-4-1.2c-28.9-14.7-60.9-22.6-91.6-32.1
		c8.5-1.2,17.1-1.7,25.6-2.5c1.1-0.1,2.3,0.1,3.3,0.6c27.7,13.3,57.4,21,87,28.5c14.1,4.6,28.2,0.6,42.2-1.9c1-0.2,2.2-0.3,3,0.2
		C186.7,363,194.2,365.9,200.4,370.6z"/>
	<path class="st0" d="M401.8,67.9c-19.3-4.5-54.6-18.7-62.1-38.3c-1.1-3.5,0.7-8.9,5.2-7.1c9.8,6.3,17.8,15.1,26.8,22.5
		c3.8,3.1,6.9,7,11.1,9.6C389.7,58.6,395.1,63,401.8,67.9z"/>
	<path class="st0" d="M435.3,201.3c0.6,20.3-29,36.1-41,16.6C373.9,185.3,431.5,160,435.3,201.3z"/>
	<path class="st0" d="M294.7,70.3c0.4-17.3,25.7-14.8,19.1,1c-2.8,4.8-7.2,7.4-12.8,7.5C295.8,79.4,295.2,74.4,294.7,70.3z
		 M302.7,63.9c-5.3-0.2-5.7,7.9-0.3,7.9C307.1,71.6,308.6,63.8,302.7,63.9z"/>
	<path class="st0" d="M386.6,105.1c0.6,12.1-22.1,14.7-20.9,2.7C366.9,95.8,385.4,89.7,386.6,105.1z M374,100.9
		c-5.1-0.1-5.7,8.1-0.2,7.9C378.6,108.6,379.8,100.7,374,100.9z"/>
	<path class="st0" d="M123.7,323.4c-32.4-8.7-64.1-18.7-93.8-34.6c-2.2-1.2-3-2.5-3.1-5c-0.2-36.9,2.1-74.2,9.5-110.4
		c35.5,4.9,71,11.8,104.3,25.2c2.2,0.9,2.9,2.1,3.1,4.3c2.7,29.4-5.5,58.1-10.3,86.9C131.1,301.3,128.1,312.5,123.7,323.4z"/>
	<path class="st0" d="M17.9,361.4c0.3-4.6,0.5-8.8,0.8-13.4c17.2,6.4,34.5,11.7,51.4,19.2c-0.6,3.9-1.1,8-1.8,12.6
		C51.2,373.5,34.6,367.4,17.9,361.4z"/>
</g>
</svg>
