<?xml version="1.0" encoding="utf-8"?>
<!-- Generator: Adobe Illustrator 26.0.0, SVG Export Plug-In . SVG Version: 6.00 Build 0)  -->
<svg version="1.1" id="Capa_1" xmlns="http://www.w3.org/2000/svg" xmlns:xlink="http://www.w3.org/1999/xlink" x="0px" y="0px"
	 viewBox="0 0 595.3 506.5" style="enable-background:new 0 0 595.3 506.5;" xml:space="preserve">
<style type="text/css">
	.st0{fill:#FFFFFF;}
</style>
<g>
	<path d="M267.2,430.7c1.4,0.1,2.2-1.4,2.4-2.6c-0.1-3.4-5.4-1.3-7.6-1.6c0.5-5-2.3-2.2-5.5-4.3c-8.8-4.1-18.2-6.5-27.7-8.2
		c-2.9-0.3-4.5-4.4-6.5-6.4c9.8-8.5,13.6-21.2,9.5-33.6c10.4-0.7,20.7-0.8,31.1-1.4c3.6,0,3.7,0,3.6-3.5
		c-1.9-45.8-4.5-96.9-33.7-134.5c-1.3,0.3-2.3,0.5-3.1,0.6c-3.3-7.6-5.4-10.2-12.1-15c20.2-21.8,18.2-56,1.9-79.6
		c15.1-4.3,29.3-10.6,38.5-24c13.9-19.1-2.8-44.8-24.2-42.2c-28.3,2.1-56.6,4.6-84.4,10.6c3.3-19.4-20-28.7-25.7-11.7
		c-1.7,5.9,0.5,11.9,1.9,17.6c-6.8,2.5-13.6,4.9-20.4,7.4c-10.9-30.4-45.3-14.5-17.3,11c-31.5,27.5-35.8,81.7-5.6,111.8
		c-6.6,6.1-13.5,12-18.4,19.8c-1.8,2.7-3.1,5.9-5.3,8.3c-11.8,9.2-23.5,18.9-35.7,27.6c-4.6-2.4-9.4-3.9-14.2-5.8
		c-1-0.4-2.1-0.4-3.1-0.4c-2.4,0.1-2.3,2.9-0.8,4c3,1.4,6.5,2.3,9.6,3.5c-2.6,1-12.6,2.2-10.7,6.3c0.6,1.2,1.7,1.6,2.9,1.2
		c3.8-1.4,7.4-2.6,11.7-2.5c-0.8,2.9-5.6,10.6-1.4,11.9c1.2,0.4,2.3,0.2,3-1.1c1.7-3.1,2.6-6.6,3.7-10c0.9-3.2,8.4-6.6,11.2-9.4
		c6.4-4.8,12.1-10.5,18.9-15c-9.9,24.2-14.2,49.6-16.6,75.5c-0.5,5-0.4,5-5.1,6.5c-1.8,0.6-3.6,1.2-5.7,0.9c2.3-4.6,4.7-10.7-1-13.6
		c-14-6.9-19.6,5.9-8.8,15.3c-5.5,3.3-8.5,1.9-12-2.8c-2-2-5.4,0.2-4.2,3.1c2.5,8,13.9,7.8,19.8,3.4c1.4-0.9,2.7-1.2,4.5-0.9
		c3.9,0.9,7.7,0,11.5-1.2c0.2,9.1-0.6,18.3-0.7,27.5c-0.1,2.5,0.2,2.8,2.6,2.8c22.4,0.7,44.9-0.3,67.3-0.3
		c0.6,9.1-0.2,18.2-1.3,27.3c-0.3,2,0.3,3,2.3,3.4c8.6,0.6,17.4,0.3,26.1,0.5c2.4,0,3.5-0.8,3.6-2.2c0.1-1.6-1.1-2.6-3.5-2.7
		c-7.5-0.4-14.4-0.5-22-0.7c1.8-8.6,0.4-17,0.8-25.6c7,0,13.8,0,20.5,0c2.5,19.7,3,20.8,14.3,34.5c-1.1,2.3-2.7,3.5-5.4,3.9
		c-9.6,1.6-19.1,4.1-27.9,8.5c-2.6,0.8-4.9-0.1-4,3.8c-2.6,0-7.4-1.9-7.8,1.6c-0.1,3.2,4.8,2.5,7,3c0.1,0.2,0.1,0.4,0.2,0.5
		c-2.3,1.4-4.5,3.1-6.5,5c-1.7,1.5,0.5,4.4,2.5,3.5c1.9-1,3.2-2.2,5.1-3.5c-0.3,3,0,3.8,1.3,4.3c1.5,0.5,2.3,0,3.7-2.4
		c2,2,2,2,4.8,0.5c4.8-1.8,9.4-3.5,14.4-4.9c-2.1,8.4-4.1,16.5-6.1,24.8c-1,0.1-2,0.2-3.1,0.3c3.6-6.8-2.7-13.6-9.2-10.1
		c-3.6,2.3-4,7.1-1.8,10.6c-2.7,0.2-4.1-1.3-5.2-3.3c-1.9-2.5-6.2-0.4-4.4,2.7c2.7,5,8.8,7.1,14,5c3.1-1.2,6.1-0.2,9.3-0.8
		c-3.4,24.4-7,16.1,25.9,18.2c0.1,6.5-0.3,12.9-0.4,19.3c-0.1,3,0.3,3.8,3.3,3.9c6,0.3,12.1,0.3,18.1,0.5c1.6,0,3.8-0.4,3.7-2.4
		c0.1-1.8-1.6-2.8-3.2-2.6c-5.5-0.3-10.7-0.4-16.2-0.7c0.3-6,0.5-11.8,0.8-17.4c15.1,0,29.9,0,44.9,0c-0.2,6.7-0.5,13.1-0.6,19.5
		c0,1.6,0.9,3.4,2.8,3.3c6.8,0,13.7,0.7,20.5,0.3c2.5-0.4,2.5-4,0.2-4.7c-5.9-0.6-11.7-0.5-17.8-0.9c0.3-5.9,0.5-11.6,0.8-17.4
		c11.2-0.5,22.3-0.6,33.5-1c3-0.1,3.7-1,3.3-4c-1.9-14.4-4.6-28.5-8.4-42.5c4.9,1,9.4,3,14,4.7c2.5,1.5,2.6,1.4,4.5-0.6
		c1.6,2.5,2.3,3,3.7,2.4c2.1-0.8,1.5-2.5,1.2-4.4c1.8,1.2,2.9,2.2,4.6,3.3c2.3,1.4,5.1-1.5,2.8-3.5c-2.2-2-4-3.3-6.7-5
		C264.2,431,265.2,431,267.2,430.7z M22.8,338.2c-0.5,1-1.3,1.9-2,2.9c-2.3-1.5-3.9-3.4-4.8-5.7C13.7,329.6,27,331.7,22.8,338.2z
		 M119.9,455.8c-0.3,0.8-0.9,1.4-1.4,2.2C113.8,456.1,120,450.6,119.9,455.8z"/>
	<path d="M593.5,233.5c-3.7-1.5-6.7-2.3-10.6-3.6c3.3-2.4,6.1-3.8,9.6-5.7c2.5-1,1.1-4.6-1.3-4.1c-3,0.5-5.3,2.3-8.2,3.7
		c-0.9-2.9-3-1.2-5.1-2.2c-10.4-4.5-21.3-7.9-32.4-10.4c-1.4-0.3-2.3-0.9-3-2.3c-3.8-7.8-8.1-15.2-13.1-22.2
		c-0.6-0.8-0.9-1.5-0.5-2.6c0.5-1.3-0.3-2.7-1.7-2.6c-1.8,0.1-2.5-1.1-3.4-2.1c-2.6-3.1-5.3-6.1-7.9-9.3c12.9-15.7,14-36.1,9.5-55.1
		c1,0.5,1.7,0.9,2.4,1.3c2.9,1.5,5-2.2,2.2-3.9c-1.4-0.9-2.9-1.8-4.4-2.5c-1.6-0.8-2.5-2-3.1-3.7c-6.5-19.5-18.5-35.2-34.8-47.7
		c5.3-8.6,20.7-24.8,11.5-34.5c-18.6-14.6-30.6,4.2-31.3,22.3c-6.8-3.4-12.6-6.1-19.4-9.1c7.3-10.5,15.3-24,2.5-33.8
		c-18.1-12.3-23.2,12-24.6,25.3c-40.2-13-82-19.1-123.2-27.9c-5.2-1.8-10.5-0.2-15.4,2.4c-9.9,5.5-18,14.7-21,25.7
		c-2.7,8.8,2,15.5,8,21.4c6.3,8.3,14.1,14.8,22.4,21c-12.4,13.5-16.9,32.4-15.1,50.4c0.3,2.6-0.2,3.8-2.6,5.1
		c-1.6,3.3,0.5,3.5,3,2.5c2,7.1,4,14,6.1,21.2c-0.8,0.9-3.7,2.4-2.2,4c1.1,1.4,2.6,0,3.6-0.6c3.4,5.9,8,11,10.4,17.3
		c-77.8,67.5-25.3,174.4,63.3,202.1c-7.2-0.4-9,7-10.4,12.5c-12.9-3.3-25.9-5.9-39.2-7.3c-4.2-0.5-8.5-1.2-12.7,0.1
		c-12.6,3.5-22.5,18.7-16.1,31c6.1,10.4,16.9,16.5,28.4,19c0.3,0.7,0,1.1-0.1,1.7c-3.9,12.9,3.4,16.1,0.2,22.3
		c-5.7,1.3-11.5,1.7-16.9,4.1c-1.6-0.2-2.6,0.8-3.4,1.9c-1.9-0.7-4.4-2.4-5.5,0.1c-0.9,2.5,1.8,3.2,3.6,4.5
		c-1.7,0.3-3.1,0.4-4.3,0.7c-1.5,0.4-2.1,1.9-1,3.1c1.4,1.3,3.3,1.3,5.3,1.2c0,1.4-0.1,2.7,0,4c0.9,4,5.4,2.2,4.9-1.6
		c1.9,0.8,1.9,0.7,3.5,0.1c3.8-1.4,7.8-2.1,12-2.7c1,13,10.7,22.6,22.7,26.5c0.1,2.1,0.3,4.1,0.4,6.3c-3,0.2-5.8,0.3-8.6,0.5
		c-1.9,0-4.4,0.5-4.1,2.9c0.1,1.1,0.8,1.8,1.8,2c4.3,0.4,8.7-0.2,13-0.2c5.8,0.4,2.2-6.5,3.2-9.6c10,1,18.7,0.9,28.6-0.4
		c0,1.6,0,3.1,0,4.7c-3.5,0.3-6.6,0.3-10,0.6c-3.4,0.2-3.4,5.1,0.1,4.9c4.3,0,8.7-0.2,13-0.4c2.2-0.1,2.8-1.1,2.6-3.4
		c-0.2-2.6-0.3-5.3-0.4-8.1c6.2-1.8,11.8-4.5,16.7-8.3c4,3.9,8,7.4,14.1,6.7c0.7-0.1,1.6,0.3,2.2,0.6c4,2.2,9.5,1.2,13.2-2.5
		c2.9-2.6-0.5-5.8-3.3-3.7c-1.8,1.1-3.9,3.5-6.1,2.3c1.1-3.1,4.3-7.1,0.8-9.5c-2.4-1.4-5-1.1-7.4,0.2c-2.9,1.4-2.9,5.1-2.2,8.1
		c-3.6-0.6-6-2.6-7.8-5c3.4-4.6,5-8.6,5.9-14.2c1.9,0.5,4,0.8,5.8,1.6c1.4,0.7,2.5,0.8,3.9,0c0.1,2,0.7,4.1,2.6,3.9
		c3,0.1,2.5-4.1,2.5-6.4c2.1,0.3,5.7,0.4,5.7-2.4c-0.5-2.6-3.6-1.7-5.9-2.4c2-1.3,4.7-2.3,3.7-4.5c-0.9-2.3-3.9-0.8-5.8,0
		c-0.6-2.2-2.5-1.6-3.9-2.2c-4.1-1.7-8.5-2.4-12.9-3.2c-3-0.8-4.2-4.4-6.1-6.5c10.2-17.4,8.2-33-6.4-46.7c4-6.1,13.5-17.5,1.7-20.8
		c0-0.2,0.1-0.4,0.1-0.6c34.1,6.4,67.4,3.6,100-8.5c0.9,4.1,0.7,8.1,0.9,12.2c0,3.4,0.7,6.8,0.2,10.3c-0.4,3.2,5.4,1.9,7.5,2.5
		c0.2,0.9,0.3,1.6,0.4,2.5c-9.7,0.9-19.5-0.1-29.1,1.1c-2.3,0.5-2.1,4.2,0.2,4.4c10.6,0.6,21.3,0.3,31.9-0.3c4.2,0,2.5-4.8,2.8-7.6
		c2.2-0.3,8.7,0.7,7.2-2.9c-1-1.4-0.6-2.9-0.6-4.3c0-9.3,0.1-18.2,0.1-27.6c14.9-8.3,28.9-19.6,38.4-34.1c4.5,3.1,9.1,5.1,14.3,5.2
		c0.6,0,1.3,0.6,1.7,1.1c6,8.4,18.6,8.4,25.5,1.4c0.8-0.8,1.1-1.8,0.7-2.9c-2.3-5-6.9,2.6-11,2.7c-3.7,0.8-7.4-0.5-9.4-3.4
		c10.1-3.2,16-18.6,2.5-21.5c-10.3-2.8-10.9,10.6-10.7,17.6c-3.8,0.2-8-1.6-10.9-4.6c14.5-27.4,13.3-59.8,4.4-88.8
		c6.1,1.5,11.5,3.5,17.4,5.4c4,1.5,5.5,4.1,7.6-1.5c0.5,2.9,0.7,4.8,1.3,7.5c0.4,2.8,4.8,2,4.8-0.5c0-3.3-0.8-6.2-1.3-9.6
		c3.5,1.1,6.4,2.2,9.9,3.2C595,238.6,596.8,234.7,593.5,233.5z M406.6,483.7c0.7-0.9,1.6-0.8,3,0.1c-0.8,1.1-1.5,2-2.3,3.1
		C406.2,485.8,405.7,484.9,406.6,483.7z M564.8,317.1c1.3-6,9.1-2.5,7.3,2.3c-1.6,3-3.8,5.7-7.6,6.4
		C564.2,322.6,564,319.8,564.8,317.1z"/>
	<path class="st0" d="M286.9,126.2c2.3-1.2,4.4-2.2,6.6-3.3c1.2-1.2,0.9-2.5-0.9-2.5c-2.2,0.5-3.9,1.4-6.2,2.1
		c-1.6-18.6,1.7-35.2,14.9-49.1c3.8,1.5,16.6,8,19.8,5.4c1-1,0.9-2.2-0.3-2.9c-5.1-2.2-10.1-3.6-15.7-5.7c1-0.8,1.8-1.4,2.4-2
		c2.5-1.9,0-5.6-2.7-3.5c-1.5,1-2.8,2.1-4.2,3.2c-4.8-1.6-15.4-10.4-17.8-14.6c17.5,2.2,28-15.9,30.7-30.9c1-5.2,0.8-10.2-1.5-15.1
		c-0.1-0.1,0-0.3,0.1-0.8c13.5,2.3,27,4.8,40.9,7.7c-25.1,7.6-15.1,46,11.5,42.6c6.6-0.8,11.1-5.1,14.2-10.9
		c5.5,2.7,10.9,5.3,16.4,7.9c-8,24.6,29,44.1,40.1,17.7c27.5,13.3,55.7,25.1,82.9,39.1c1,0.5,1.9,1,2.3,2.3
		c11.5,35.1-6.6,62.7-38.5,77.4c-48.6,24.1-109.9,20.1-157-5.8c1.6-3.4,3.2-6.9,5-10.2c0.3-1.6-1-2.2-2.2-1.6
		c-2.6,2.8-3.8,6.6-5.9,9.9c-6.3-4-11.8-8.5-16.5-14.3c2.4-3.4,5.7-5.6,8.8-8.1c0.7-1.1-0.1-2.4-1.5-2.1c-3.5,1.7-6.4,4.7-9.6,7
		c-2.7-2.9-7.3-10.8-8.7-15.1c1-1.2,5.7-3.2,4.6-5c-1.5-2.2-4.3,1.2-6.1,1.9C289.8,140.3,288,133.6,286.9,126.2z M319.8,123.2
		c-0.3-1.8,1-5-1.3-5.7c-1-0.2-2-0.1-2.6,0.8c-1.7,3.1-1.9,7-1,10.3c3.8,20.5,35.7,33.1,45.1,10c0.3-0.9,0.5-1.7-0.5-2.3
		c-1.7-1.1-2.5,0.9-3.3,2.1C346.3,156.9,318.8,143.1,319.8,123.2z M420,152.7c22.4,0.7,31.3-32.8,7-37.7c-12.3-2.1-26.3,7.7-24.6,21
		C403.3,145.9,410.7,152.9,420,152.7z M378.9,178.4c-0.1-1.5,0.7-4-1.2-4.6c-0.9,0-1.9,1-1.8,2c-0.8,5.3-0.4,10.4,2.1,15.3
		c0.6,1.3,2,3.3,3.5,1.9c1.1-1.2,0.2-2.8-0.4-4C379.7,185.6,378.6,182.2,378.9,178.4z M378.4,109.9c-0.1,0-0.2-0.1-0.3-0.1
		c0-1.4,0.7-3.8-1.3-4c-1.2-0.1-1.7,0.6-1.9,1.7c-0.8,4.2-1.7,8.3-2.6,12.5c-0.5,1.2,0,2.6,1.1,3c1.3,0.2,2.4-1,2.5-2.3
		C376.7,117.2,377.5,113.6,378.4,109.9z M327,90.3c-6.1,1.3-12.2,2.4-16.5,6.7c-1,1.9,0,2.3,1.7,2.5c3.5-2.3,7.2-4.4,11.4-5.5
		C325.5,93.4,331,92.7,327,90.3z M342.6,97.3c-1-7.3-11.6,10.8-7.7,11.3c1.8,0.3,2.7-1.2,3.1-2.7C338.9,102.7,340.6,99.8,342.6,97.3
		z M347,188.1c-0.1,1.3,0,2.6,1.6,2.6c1,0,1.5-0.6,1.8-1.6c0.7-3.1,1.5-6.1,2.4-9.2c1-2-1.7-3.4-2.6-1.3
		C348.7,181.7,347.3,184.8,347,188.1z M357.3,104.9c-0.1,0-0.2-0.1-0.3-0.1c0.5-3.2-3.1-4.1-3.5-0.8c0.1,2.1-2.7,6.2-0.2,7.3
		C356.4,112.4,356.4,106.7,357.3,104.9z"/>
	<path class="st0" d="M521.9,189.8c0.4,5,0.2,9.2,0.4,14.1c0,1.1,0,1.9-1,2.8c-3.9,3.7,8.4,3.8,10.3,5.2c-1.4,3.9-2.8,7.7-4.3,11.8
		c-2.6-0.4-5-0.9-7.6-1.3c-1-0.1-1.7,0.5-1.9,1.5c-0.3,2.5,2.9,2,4.6,2.7c1.1,39.4,0.1,78.8-0.9,118.1c-0.1,3.5-11.3,8.8-14.8,11.1
		c-0.2-2.8-0.2-4.8-0.4-7.4c-0.1-1.1-0.7-1.6-1.8-1.6c-1,0-1.7,0.4-1.9,1.5c-0.2,4.7,0,9.2-0.1,14c-4.4,0-8.7,0-13.1,0
		c-0.8-5-0.4-10.1-0.9-15.1c-0.4-2-3.8-1.5-3.7,0.5c-0.1,5.6,0.1,11.2,0.4,16.8c0.1,1.3-0.3,2.1-2,2.1c2.3-50.8,1.4-101.7,1.1-152.6
		c0-1.3-0.2-2.6,1.2-3.6c0.4-0.3,0.4-1.3,0.3-2c-0.2-2.2-0.4-4.4-0.7-6.9c4.2,0.6,8.1,1.1,11.7,3.1
		C502.5,206.8,516.6,193.1,521.9,189.8z"/>
	<path class="st0" d="M439.6,377c2.3-49.6,1.1-99.2,2.2-148.8c11.2-2.9,21.7-7.3,32.5-12.3c-0.5,51.6,0.8,102.9-1.8,154.5
		C461.9,373.6,451.1,375.9,439.6,377z"/>
	<path class="st0" d="M322.2,199.1c0.5,2.8-0.8,5.5-0.9,8.4c-0.1,0.5-0.2,1.2,0.1,1.6c1.7,2.6,1,5.5,0.9,8.2
		c-1.6,42.8-3.4,85.6-2.4,128.4c-6.6-4.7-26-20.8-26.8-28.4c1.1-44.3,1.4-88.5,1.6-132.9c4.3,3.8,7.9,8.2,11.9,12.3
		c1.6,1.5,2.9,3.7,5.4,3.2C315.4,199.6,318.8,199.4,322.2,199.1z"/>
	<path class="st0" d="M332.6,215c8.8,4.6,16.5,8.2,25.6,12c0.1,46.3-2.4,92.6-1.5,139c-3.8-1.1-26.1-10.6-25.9-14.1
		C329.3,306.2,331.2,260.6,332.6,215z"/>
	<path class="st0" d="M318.6,429.7c4.6-0.3,2.6-4.1,0.1-5.7c-1.3-1.2-2.3,0.3-3.5,1c-7-1.2-13.3-3.9-19.1-8.5
		c16.1-0.6,26.7-20.3,18.7-34.2c3.2-0.7,31.3,4.9,38.4,7.8c0.6,0.9-0.1,2.4,1.5,2.8c1.3,0.3,1.8-0.8,2.4-1.7
		c1.1,0.4,2.1,0.8,3.3,1.2c-0.3,1.3-0.8,2.7,0.7,3.5c1.8,0.9,2.5-0.7,3.6-1.8c1.5,0.7,3.1,1.3,4.5,2.1c1.2,0.6,1,3.9,2.8,2.9
		c2-1.1,3.1,0.4,4.6,1.3c-0.7,1-1.5,2-0.6,3.1c1.4,1.5,2.8,0.2,4.4-0.2c23.3,17.7,8.7,51.5-17.7,55.6
		C343.8,463.9,308.7,455.6,318.6,429.7z M357.3,416.2c7.7,0.2,15.3-9.9,6.9-15.5C352.7,392,341,415.7,357.3,416.2z M339.7,388.5
		c-8.5,0.3-15.2,13.4-4.6,17C347.4,409,355.5,389.5,339.7,388.5z M385.4,432.6c0-11.5-16.9-14.6-23.4-6.3c-3.4,4-3.6,8.5-1.6,13.2
		C365.6,453.2,385.5,445.4,385.4,432.6z M336.1,445.9c3.6-0.1,7-1.7,9.8-4.7c2.1-2.7-1.4-4.7-4-1.8c-14.3,9.8-15.1-7.5-18.6-6.4
		c-1,0.4-1.1,1.4-0.6,3.3C324.2,441.9,329.6,445.9,336.1,445.9z"/>
	<path class="st0" d="M404.6,329.4c10,1.3,9.1-10.3,0.5-11.4c0-7.6,0-15.2,0-22.8c9.4,0.6,7.1-10.9-0.2-12.5
		c-0.4-7.6-0.3-15.3-0.4-23c10.1,1.4,8-11.4-0.1-12.4c0-4.1,0-8.2,0-12.5c8.8-1.4,17.6-2.7,26.8-4.1c-1.2,49.1,0.6,98.3-2.5,147.3
		c-8.4,0.6-16.7,0.3-25.3-0.6C403.2,361.3,404.1,345.5,404.6,329.4z"/>
	<path class="st0" d="M368.7,231c7.2,2,13.5,4.1,20.4,5.7c2.8,0.6,3.1,0.9,3.1,3.9c-1.1,44.9,0.3,89.9-2.8,134.7
		c-7.3-1.1-14.3-3-21.5-5.2C365.9,323.7,368.8,277.4,368.7,231z"/>
	<path class="st0" d="M517.6,105.2c-27-13.3-54.4-24.8-81.5-36.9c1.2-10.4-2.7-20.6-12.9-24.8c-9.4-4.8-19.6-2.3-25.9,6.2
		c-5.8-2.5-11.5-4.9-17.4-7.4c1.8-9.4-0.8-17.4-8.5-23.6c3.5-0.4,44.2,10.3,55,14.4c0,1.8-0.4,5.2,2.2,5.2c2,0.2,2.6-1.6,2.7-3.6
		c4.1,1.5,8,3,12,4.5c0.1,1.3-1.1,2.9,0.8,3.5c1.6,0.5,1.7-1.2,2.8-2c6.6,3.1,13.4,6.2,19.9,9.8c0.8,0.4,1.4,0.8,1.7,1.9
		c0.5,3.2,2,2.7,4.6,1.7c3,1.9,6.1,3.9,8.8,5.7c0.4,3.2,0.5,4.9,3.5,2.7C500.3,73.4,511,87.4,517.6,105.2z"/>
	<path class="st0" d="M387.1,450.6c0.3,0.3,0.7,0.7,1.3,1.4c-0.8,0.1-1.3,0.2-1.7,0.3c-1.9,0.4-2,3.3,0.1,3.4
		c7.3,1.4,14.8,1.9,21.6,4.9c-0.6,2.1-1.2,4.1-1.8,6.1c-7.2-1.4-13.8-3-20.9-3.2c-2.1,0.2-2.4,3.4-0.1,3.4c3.3,0.4,6.5,0.7,9.8,1.4
		c0.4,12.1-10.9,18.7-21.2,21.8c-0.6-2.2-0.2-6.1-3.1-5.8c-2.6,0.3-1.5,4.9-2.1,7.1c-27.4,7.6-61.8-5-50.8-37.7
		C337.4,469.4,368.7,467.5,387.1,450.6z M343.8,468.4c-2.5,0.4-2.7-0.2-3.8-2.3c-1.1,1.8-2.3,1.3-3,0.3c-2.7,1.6-6.4,2.1-6,6
		c1.4,0.1,2.7,0.2,4.4,0.3c-1.4,1.4-2.5,2.4-3.7,3.5c2.9,1.3,4,1.3,8.4,0.2c1.4,2.9,1.3,6.4,4,8.7c1.2,1.5-0.9,2.4-2.4,3
		c1.2,0.5,2.2,0.9,3.3,1.4c0.2-1.5,0.4-1.9,0.9-3.1c1.8,0.8,1.8,0.8,0.4,3.4c1.1,0.2,2.1,0.3,3.2,0.5c-0.3-1.2-0.5-2.1-0.8-3.1
		c1.8-0.1,5.2-2.1,4.9,0.8c0,0.4,0,0.7-0.1,1.5c1.2-0.6,2-1,2.8-1.4c-0.7-0.9-1.2-1.5-1.8-2.4c0.8-0.4,1.4-0.7,2.2-1.1
		c0.4,1,0.7,1.8,1.1,2.8c0.8-0.5,2.1,0.4,2.5-1.4c-1-0.6-2.4-0.9-2.2-2.5c4.7-5,5.4-6.1,5.5-8.1c-1.1,0.1-2.2,0.2-3.4,0.3
		c-0.1,0.3-0.1,0.8-0.2,1.5c-0.6-0.4-1.1-0.7-1.4-0.9c-0.4,0.5-0.7,1.3-1.1,1.4c-1.4,0.3-0.7-1.3-1.4-1.8c-0.4,0-0.8,0-1.2,0.1
		c-0.2-0.7-0.3-1.2-0.5-2c-1.5,1.7-2.6,0.7-3.7-0.2c-0.7,1-0.9,2.6-2.5,1.1c-0.7,0.2-1.3,0.7-2.3,1.1c0.4-1,0.6-1.6,0.8-2.3
		c-1,0-1.7,0-2.8,0c0.8-1.1,1.3-1.8,1.9-2.8c-1,0.1-1.6,0.2-2.7,0.4C343.3,470.3,343.5,469.5,343.8,468.4z"/>
	<path class="st0" d="M532.9,336.5c-0.3-35.6,1.6-71.7-0.3-107.7c4.6,0.1,8.8,1.9,13.3,2.6c1.3,0.3,2.1,0.9,2.5,2.3
		C559.4,268,557.5,308.4,532.9,336.5z"/>
	<path class="st0" d="M282,302.9c-19-32.4-21.6-76.4,2.3-106.8C284.4,231.7,283.6,267.2,282,302.9z"/>
	<path class="st0" d="M309.9,16.2c-0.9,10.9-4.6,20.7-12.5,28.5c-7.5,7.4-19,5.5-24.2-3.7c-6.5-14.1,8-30.9,21.2-35.3
		c3.8-1.4,7.7-0.8,11.6-0.2C309.3,7.5,309.8,12.5,309.9,16.2z M282.9,28.9c6.6,0,6.1-9.8-0.1-9.7C276.9,19.3,276.9,29.2,282.9,28.9z
		 M292.5,27.4c-0.3,6.4,9.4,6.1,9.3,0.2C302,21.2,292.3,20.7,292.5,27.4z"/>
	<path class="st0" d="M484.8,56.4c-2.2-1.8-11.7-6.1-11.5-8.2c0.4-6.1,0.6-12.2,3.2-18c3.2-10,21.2-9.7,20.9,1.8
		C496.4,41.4,489.8,48.8,484.8,56.4z"/>
	<path class="st0" d="M287.1,401.7c0.4-9,8.5-20.5,18.2-19.8c5.3,1.8,8.5,6.6,8,12.1c-0.7,9.7-9.4,20.6-20,17.7
		C288.5,410.8,287.6,405.8,287.1,401.7z M297.9,395.8c0-4.4-6.5-4.8-6.4-0.1C291.2,400.2,298,399.9,297.9,395.8z M304.7,401.3
		c4.6,0.1,4.3-6.8-0.1-6.6C300.7,394.6,300.5,401.7,304.7,401.3z"/>
	<path class="st0" d="M431.1,30.5c0.7-9.7,2.9-34,17.5-23.4c10.7,7.7,0.5,19.9-3.2,28.8C440.5,34.1,435.9,32.3,431.1,30.5z"/>
	<path class="st0" d="M399.5,56.2c1.7,0.7,3.6,1.7,4.7-0.2c1.1-2.1-1.5-2.8-2.9-3.9c0.8-2.2,2.4-3.5,4.3-4.5
		c13.8-8.1,31.4,5.9,25.5,22C424.5,91.7,392.4,74.8,399.5,56.2z M428.1,60.8c0.2-15-21.8-10.5-24.6,0.7
		C399.5,78,429.5,76.2,428.1,60.8z"/>
	<path class="st0" d="M375.5,41.3c-1.5-0.2-3.8-1.4-4.1,0.6c0.1,1.3,1.4,2.1,2.6,2.4c-1.2,6.4-9.4,10.1-15.6,8.2
		c-11.5-2.2-18.3-13.6-14.6-24.6C352,8.3,381.7,20.8,375.5,41.3z M357,46.7c12.4,0.5,22.8-17.1,7.9-22.4
		C350.1,18.4,338.5,45.6,357,46.7z"/>
	<path class="st0" d="M378.1,208c12.5,2.2,24.9,3,37.4,2.8c0.1,0.2,0.1,0.4,0.2,0.5c-6.8,6.9-13.7,13.7-20.4,20.5
		C389.5,223.9,383.9,216.1,378.1,208z"/>
	<path class="st0" d="M452,220.8c-8.5,3-16.9,4.9-25.7,6.3c-0.1-5.6-0.3-11.1-0.4-16.4c8.7-1.3,17.2-2.6,26-4
		C452.1,211.2,452.1,215.9,452,220.8z"/>
	<path class="st0" d="M372.9,227.7c-7.2-2.2-13.8-4.8-20.6-7.8c0.1-6,0.3-11.9,0.4-17.9c5.6,1.1,10.9,2.9,16.5,4.2
		c2.4,0.6,4,2.6,4,5.1C373,216.9,373.1,222.1,372.9,227.7z"/>
	<path class="st0" d="M496.4,200c0-3.9,0-7.8,0-11.8c0-0.5,0.5-1.2,0.9-1.5c5.8-3.9,11.2-8.3,16.2-13.8c3.1,3.7,6.1,7.2,9.5,11.3
		c-8,4.8-15.2,10.6-22.9,15.7C498.6,201,498.7,201,496.4,200z"/>
	<path class="st0" d="M342.1,198c0,5.6,0,11,0,17c-5.5-2.6-10.6-5.6-15.8-8.4c0.2-3.3,0.8-6.6-0.1-9.8c-0.7-3.3-4.1-1.4-6.5-1.2
		c0-2.6,0-5.1,0-7.9C327.6,190.6,334.4,194.8,342.1,198z"/>
	<path class="st0" d="M462.6,203.7c8-3.3,15.6-6.5,23.4-9.7c0,1.1,0,2.2,0,3.5c-2.2-0.4-4.9-1.1-4.7,2c0,2.8,0.4,5.2,0.7,8.1
		c-6.2,3.4-12.6,6.4-19.1,9.1C462.1,215,462.1,206.7,462.6,203.7z"/>
	<path class="st0" d="M562.2,219.6c-1.6,3.8-3.2,7.5-4.8,11.3c-6.4-1.6-12.7-3.2-19.2-4.9c1.2-3.9,2.4-7.7,3.5-11.5
		C543.8,214.4,559,218.1,562.2,219.6z"/>
	<path class="st0" d="M503.4,373.1c0,4,0,8,0,12.1c-4.4-0.2-8.8-0.4-13.3-0.6c-0.8-3.9,0-7.5-0.3-11.5
		C494.2,373.1,498.5,373.1,503.4,373.1z"/>
	<path class="st0" d="M297.6,180.2c2.3-2,4.5-3.9,6.7-5.9c1.7,1.8,3.9,3,4.8,5c0,4.3,0,8.6,0,13.4C304.5,189,301,184.8,297.6,180.2z
		"/>
	<path class="st0" d="M367.9,374.6c4.5,1.2,8.8,2.3,13.4,3.4c0.1,0.8,0.2,1.6,0.3,2.4c-1.1,0.7-2.3,1.1-3,2c-2.8,3.5-6.9,1.9-10.7,2
		C367.9,381.1,367.9,378,367.9,374.6z"/>
	<path class="st0" d="M380,397.8c-1.9-1.2-3.7-2.3-5.6-3.5c2.1-4.8,5.2-9.4,10.5-10.6c3-0.6,2,3.4,1.6,5.1
		C385.3,392.4,382.8,395.1,380,397.8z"/>
	<path class="st0" d="M312.7,457c-0.3,2.6-0.5,4.8-0.8,7.1c-3.9,0.9-7.7,1.8-11.8,2.8c-0.6-2.2-1.2-4.2-1.8-6.3
		C302.8,458,307.6,457.8,312.7,457z"/>
	<path class="st0" d="M573.6,236c-2.1-0.6-3.9-1.2-5.9-1.8c1.5-3.7,2.9-7.2,4.4-11c2,0.8,3.9,1.6,6.1,2.4
		C576.6,229.1,575.1,232.4,573.6,236z"/>
	<path class="st0" d="M415.2,217.8c0,3.9,0,7.2,0,10.9c-3.8,0.4-7.5,0.9-11.3,1.3c-0.1-0.2-0.2-0.3-0.3-0.5
		C407.2,225.5,411.1,221.9,415.2,217.8z"/>
	<path class="st0" d="M362,388.9c-1.7-0.6-3.2-1.1-4.7-1.6c-0.2-4.2,1.8-8.3,4.6-9.8C364.3,379.3,364.4,383.5,362,388.9z"/>
	<path class="st0" d="M532.5,208.1c0-2.9,0-5.5,0-8.1c1.5,0.9,4.5,6,5.4,9.3C536,208.9,534.3,208.5,532.5,208.1z"/>
	<path class="st0" d="M383.9,230.8c0-2.3,0-4.2,0-6.2c0.2-0.1,0.3-0.2,0.5-0.2c1.7,2.4,3.5,4.9,5.4,7.6
		C387.5,232.1,385.8,231.3,383.9,230.8z"/>
	<path class="st0" d="M91.7,112.7c1.8,1,4,3.5,5.9,1.5c1.4-1.5-0.5-3.3-1.8-4.7c2.1-1.4,4.1-2.6,6.5-4.1c0.7,1.8,0.2,4.5,2.5,4.6
		c1.1-0.1,1.4-0.9,1.4-1.9c0-1.5,0-3,0-4.7c6.6-3.5,13.6-6.1,21-8.5c0.9,1.5,1.6,3.3,2.9,4.4c1.5,1,4.3,0.1,3.6-2.1
		c-0.3-1.2-0.9-2.3-1.3-3.4c1.7-1.1,7.3-2.7,10.9-3c-0.9,1.9,0.2,4.7,2.4,2.9c1.6-1.6,1.6-4.7,4.3-4.8c24.5-4.9,48.8-7.8,73.8-10.2
		c-9.1,16.2,6.7,42,25.1,43.4c-8.4,8.2-19.4,12-30.7,14.5c-0.9,0.2-1.6,0.2-2.5-0.4c-1.4-1-2.3-0.8-2.9,0.8
		c-0.6,1.8-2.7,1.3-3.9,2.1c-1.9,1-1.7,3.5,0.6,3.5c2.1-0.2,4-0.6,6.1-1c10.4,14.4,14.7,32.5,11.6,50c-6.9,38.5-52.3,51.4-86.4,51.3
		C72.1,240.9,39.5,158.5,91.7,112.7z M183,119.7c1.2-1.4,2.4-2.7,3.5-4c1.7-0.5,2.4,2.5,4.4,1.3c-0.3-2.2-2.5-2.3-3.9-3.4
		c0.9-6.4-0.3-12.2-6.2-15.6c0.3-1.8,3.8-7.9,1.4-8.4c-1.3-0.2-1.1,1.2-1.3,1.9c-0.5,2-0.9,4-2.4,5.5c-1.9-0.2-3.8-0.4-5.7-0.5
		c-0.5-6.6-0.5-6.6-2.6-7.2c-0.1,6.3,3.3,7-4.3,9.9c-0.7-1.3-5.8-8-6.4-4.3c1.9,1.7,4.1,3.1,4.7,5.7c-6.5,9,0.8,16.1,8.9,19.7
		c-0.4,1.4-0.6,2.5,0.3,3.7c1.3-0.8,1.5-1.9,1.6-3.3c2.9,0.4,6.5-1.7,7.5,2.5c0,0.2,0.7,0.3,1.1,0.4
		C184.7,122.2,183.5,121,183,119.7z M133.2,139.8c0,1.6-0.2,3,0.6,4.4c1.7-0.9,1.3-2.4,1.5-4.1c1.2-0.1,2.4-0.1,3.5-0.3
		c4.2-1,2.2,4.1,5.5,2.8c-0.5-1.3-0.9-2.5-1.4-3.8c1.2-0.9,2.3-1.7,2.9-2.1c2.2-0.6,2.8,2.6,4.9,1.1c-0.5-1.9-2.3-2.2-3.4-3.2
		c1.8-7.4-2.3-11.8-7.8-15.4c2.2-5.9,2.3-6.9,0.5-9c-1.5,2.6-0.4,6-2.6,8.1c-1.8-0.4-3.5-0.7-5.2-1.1c-0.7-5.9-1-6.4-3.3-6.7
		c0.5,2.3,0.9,4.6,1.3,6.5c-2.4,1.3-4.4,2.3-6.6,3.4c-0.8-1.4-3.9-5.3-5.7-4.5c-0.2,1.9,1.8,2.4,2.8,3.7
		C125.8,124.7,114.5,134.4,133.2,139.8z M181.6,198.7c11.1,0.2,24-6.4,26.2-18.5c0.2-1.4,0.8-3.8-1.2-3.9c-1.5-0.2-2.2,0.5-2.7,2.6
		c-3.5,17.7-29.9,20.7-40.8,8.1c-1.8-2.6-6.7,0.2-3.8,2.6C165.2,196,172.6,198.6,181.6,198.7z M126.2,195.8
		c26-2.4,15.5-36.1-7.1-32.2C98,168.4,107.7,196.1,126.2,195.8z"/>
	<path class="st0" d="M214.7,223c8.3,5.8,15.1,12.8,20.6,21.2c-2.4-0.2-4.6-0.4-6.8-0.6c1-5.5,0.3-7.5-2.9-8.5
		c-4-1.2-6.3,0.1-8.5,5.1c-8.4-7.4-18,2.5-6.7,11c-10.8,4.9,0.6,15.6,9.8,7.9c3.1,4.5,8.8,6,12.2,1c2.4-3.1,0.1-5.6-2.8-7.3
		c2.7-1.4,6.1-1.6,7.5-5.3c4.7,7.9,8.1,15.9,11,24.4c-9.8,0.6-9,8.9-2.3,13.7c-3.7,1.7-6,5.5-2.5,8.7c3.3,3.2,7.4,2.1,11.2,0.5
		c1.1,6.1,2.3,12.1,3.4,18.1c-2,0.5-3.7,0.9-5.7,1.3c0.9-7.8-9.2-10.6-12.5-3.5c-8.7-1.5-17.3,1.2-26,2c-0.4-2.7-1.7-4.7-4.2-6.1
		c3.4-1.4,7.3-3.8,5.6-7.6c-1.6-4.3-6.1-4.4-9.8-2.8c0.8-7.3-8-10.6-11.8-4.7c-1.4,2.2-1.3,4.6-1.6,7.2
		c-11.7-4.4-11.7,11.4-0.4,11.9c0,2.2,0,4.3,0,6.7c-3.1,1-6.3,1.9-9.9,3c2.4-20.5-22.6-27.4-23.5-10.5c-5.3,0.4-8.1-0.3-9.6,5.8
		c-4.5-3.7-7.9-2.6-12,1c-8.8,4.4-5,15.4,0.9,20.6c2.1,2.1,4.5,4,6.8,6c-2,2.9-4.1,5.7-6.1,8.7c-1.6,0.4-3.3,0.8-5.3,1.3
		c0.1-3.6-0.9-7.6-5.2-7.6c-4.8-0.3-6.5,2.9-6.5,6.9c-3-1.1-6.2-2.1-8.9,0.3c-2.5,2.1-2.9,5.4-0.7,7.8c1.8,1.8,3.8,3.2,6.3,4.2
		c-2.4,1.8-3.5,4-2.6,7c-24.7,0-49.3,0.6-74,0.5c-2-0.2-2.3-0.4-2.3-2.4c0-1.9,0-3.9,0.1-5.9c0.7-12.4,1.2-24.8,2.6-37.2
		c0.5-3.6,10.3-2.6,5.2-13.4c3.4-1.1,7.6-3.6,6.4-7.4c-0.9-3.8-4-5.3-7.6-5.1c1.2-5.3,2.3-10.4,3.4-15.4c3.6-0.5,6.3-1.3,9.4-3
		c2.3,11.1,16.9,2.9,10.8-6.5c3.1-1.4,7.3-2.9,6.5-7c-0.9-5.6-6.2-6.9-10.4-3.3c-0.7-4.6-0.6-9.2-6.7-7.5c1-2.7,1.9-5,4.2-6.5
		c1.2-0.8,2.2-1.8,3.3-2.7c2.4-1.9,2.3-2.5-0.3-4.5c5.2-8,11.4-15,19.2-20.9C120.1,257.3,178.9,252.2,214.7,223z M136.5,297.3
		c3.2,4.7,8.9,6.4,12.4,1.2c2.5-3.1,0.1-5.7-2.8-7.4c2-0.8,3.7-1.4,5.5-2.4c5.5-4.5-2.8-7.4-6.8-6.4c1.2-5.5,0.6-7.7-2.6-8.7
		c-4.2-1.5-7.5,0.8-8.5,4.9c-3.4-2.5-8.1-3.8-11,0c-3.1,3.7,0.9,8.7,4.2,11.1C114.9,295.4,129.9,305.2,136.5,297.3z M110.3,310.6
		c-0.9-6.1-1.9-7.6-5.4-7.7c-3.8-0.2-5.3,1.3-6.7,6.9c-3.5-1.7-8.3-1.6-10.1,2.3c-2.5,4.8,3.2,8.4,7.2,10.2c-9.8,7,5.8,15,11.5,5
		c4.2,3.6,10.7,3.8,12.3-2.4c1.1-3.6-1.9-5.1-4.9-6.1c1.5-1.2,2.8-2.1,4.1-3.2c2.6-1.8,1.1-5.9-2-5.9
		C114.2,309.6,112.2,309.7,110.3,310.6z M101.8,249.8c-3.5-2.3-9.1-3.4-10.8,1.6c-1.4,3.2,1.2,5.7,3.9,7.3c-10,5.2-2.3,16.8,9.5,9
		c2.5,11.4,16.9,2.6,10.8-6.4c6.2-2.9,7.6-4.9,6.1-8.4c-2.1-5.1-6.1-5-10-2.1c-0.3-1.8-0.4-3.5-0.9-5.1
		C107.9,239.5,101.9,245.2,101.8,249.8z M76.1,347.3c1.8-1.3,3.4-2.3,4.8-3.9c1.4-1.8,1-3.6-0.9-4.7c-2.4-1.5-5.1-0.4-7.6,0.4
		c-0.5-5.6-1.6-7.2-4.7-7.6c-4.8-0.5-7,2.2-7.1,6.5c-4.1-0.7-9.1-1.7-10.6,3.2c-1.9,4.9,3.8,7.5,7.2,9.6c-9.5,8.3,7.3,14.3,11.6,5
		c4.2,3.4,10.3,4.1,12.3-1.9C82.6,350,79.4,348.2,76.1,347.3z M171.1,269.8c-11,5.2,1.8,15.7,9.9,7.7c3.1,4.6,8.6,6.3,12.2,1.3
		c2.6-3.1,0.3-5.8-2.6-7.6c2.7-1.5,7.1-1.7,7.1-5.4c-0.6-3.8-5.3-3.6-8.3-3.6c0.3-2.6,1.4-5.4-0.8-7.4c-3.9-3.6-9.4-0.7-10.6,3.9
		c-3.1-2.8-7.8-3.6-10.6-0.4C163.7,262.1,167.9,266.9,171.1,269.8z"/>
	<path class="st0" d="M222.9,315.2c-3.7,8.3-0.2,17.7,5,24.6c4.8,6.1,9.3,6.8,16.4,7.8c-3.1,2.7-16.9,14.1-20.5,12.5
		c-1-0.6-2.1-0.2-2.3,0.9c-0.2,1.4-1.2,1.6-2.1,2.1c-0.5,0.3-1.1,1.1-1,1.6c0.4,2,3.4,0.6,5.1,0.6c23.2,37.4-27.6,60.3-58.5,50.3
		c-30.3-7.6-38.3-48.7-17.3-70.1c3.4,0.5,3.5-0.3,2.9-2.9c2.1-1.3,4.5-5.1,7.2-4.7c1.8,0.3,2.1-0.1,2.7-2c1-2.5,4.9-3.7,7.1-5.1
		c1-0.5,2.4-0.1,3.5-0.5c1-0.4,0.9-2,2.2-2.4c1.7-0.5,3.2-1.8,5.2-0.7c0.8,0.5,1.8-0.2,2.1-1.2C184.7,320.3,214.9,316.1,222.9,315.2
		z M195.3,396.9c9-0.2,18.9-4.1,22.5-12.9c0.6-1.7,2.2-8.3-0.7-8.3c-1.5,0-1.5,1.4-1.6,2.6c-1.2,15.4-23,19-32.7,9.1
		c-1.1-1.1-2.6-3-4.1-1.5c-0.8,0.7-0.9,1.6-0.3,2.4C182,394.2,188.6,396.8,195.3,396.9z M200.6,341.1c7.7,0.4,15.1-9.2,9.1-15.8
		c-4.4-5.1-12.8-4.8-16.8,0.6C188.2,331.9,192.7,341.5,200.6,341.1z M177.1,352.3c17.7,0.6,13.1-25.7-1.7-20.3
		C165.3,336.6,165.2,351.2,177.1,352.3z M142.5,373.3c-0.6,11.2,13.4,21.1,23.3,14.4c5.9-4.1,9.6-16.2-0.2-22.9
		C157.4,359,142.1,361,142.5,373.3z"/>
	<path class="st0" d="M149.6,413.5c23.7,12.9,46.5,10.7,69.2-2.7c15.8,18.1,19.1,43.9,22.3,67c-37.2,1.9-74.3,0.4-111.6-0.3
		c1-6.3,5.8-44.2,11.2-44.9c2-0.6,7.8-0.7,7.1-3.5c-0.3-1.1-1.2-1.6-3.1-1.1c-9.3,1.9-18.3,4.5-27.3,7.6c-1.4-2.8-2.8-5.6-4.2-8.5
		c9.3-5.9,20.4-7.9,31.1-9.6C147.4,417.2,147.8,415.5,149.6,413.5z M206.4,460.8c4.2-5.4,8.8-10.1,12.1-16c2.1-3.6,2-7.2-0.1-10.8
		c-3.9-7.5-11.7-6.9-17.2-1.6c-6.5-6.6-17.6-2.8-17.4,6.1C184.7,449.3,198.9,454.2,206.4,460.8z"/>
	<path class="st0" d="M234.7,77.7c18.7,2.6,31.8,17.3,21,35.6c-5.9,9.4-13.6,4-19.9-1.7C227.3,104.8,217,78.8,234.7,77.7z
		 M234.9,102.6c6.1,0.3,6.1-9.9-0.1-9.6C228.6,93.1,227.9,102.8,234.9,102.6z M250.3,90.7c-6.4,0-6.8,9.8,0.1,9.6
		C256.3,100.5,256.6,90.4,250.3,90.7z"/>
	<path class="st0" d="M232.5,314.5c20.2-1.5,32.8,27.5,9.5,28.9C229.4,343.6,216,314.5,232.5,314.5z M237.9,329.4
		c0-4.6-6.6-4.1-6.4,0.3C231.5,333.8,238.3,333.9,237.9,329.4z M244.9,330.4c4.2,0.4,4-6.8,0.1-6.7
		C240.8,323.6,240.3,330.4,244.9,330.4z"/>
	<path class="st0" d="M130.5,89.8c-10-22,9.2-28.1,14.5-12.1c0.5,2.5,1.2,6.9-1,8.7C139.6,87.6,135.1,88.6,130.5,89.8z"/>
	<path class="st0" d="M155.3,333.7c-2.8,2.4-5.4,4.6-8.3,7C121.9,323.4,144.8,307.1,155.3,333.7z"/>
	<path class="st0" d="M101.3,100.4c-3.4,2-6.5,3.9-9.8,5.9C68.3,86.3,93.1,75.2,101.3,100.4z"/>
	<path class="st0" d="M257.2,427c-1.4,2.9-2.7,5.6-4.2,8.5c-5.4-1.6-10.5-3.4-15.8-5c-0.9-0.3-1.6-0.6-2-1.5
		c-1.6-3.5-3.3-7-4.9-10.5C234.4,417.8,251.5,423.2,257.2,427z"/>
	<path class="st0" d="M169.6,325.5c-3.7-5.2-7.4-10.8-6.9-17.3c0.4-5.4,7.6-4.6,10.5-1.7c3.7,3.1,5.7,10.4,3.9,14.9
		C175.5,323.9,172.3,324.1,169.6,325.5z"/>
	<path class="st0" d="M214.4,251.7c-3.6-1.9-10.1-6.4-6.8-10.7c1.5-1.7,4-2.3,6-1.1c1.9,1.2,4,3.5,2.4,5.8c-2.9,3.9-1.2,7.7,2.9,9.7
		c0.8,5-5.3,6.2-8.8,4.5c-1.4-0.7-2.4-1.9-2.5-3.5c0.1-3.3,4.1-3.4,6.6-3.9C214.3,252.1,214.4,251.9,214.4,251.7z"/>
	<path class="st0" d="M253.4,293.4c-8.4,5.4-16.1-5.8-2.9-6.9c-16.1-8.9-3-16-2-11.6c0.7,2.9,2.3,5.5,1.8,8.7c-0.2,1,0.4,2.3,1,3.2
		C252.7,288.8,253,291,253.4,293.4z"/>
	<path class="st0" d="M63.8,277.1c6.2-3.2,7.3,7.2,2.3,9c-5.3,2.1-6.3-3-5.3-7.3c-3.7,2.5-5.5,4.9-10.1,5.1c0.5-3,1.4-5.7,2.4-8.7
		C56.3,279,59.7,279.9,63.8,277.1z"/>
	<path class="st0" d="M251.9,347c3.1-4,5.7-7.3,6.7-12.2c0.3-1,0.3-1.9,1.7-2.4c0.8,7,1.3,13.9,1.5,21c-1.5,0.5-2.9,0.9-4.5,1.4
		C257.4,351,256.8,347.5,251.9,347z"/>
	<path class="st0" d="M63.8,277.1c-5.9,2.6-11.7-0.2-8.3-7.1c0,0,0,0,0,0C61.6,265.5,69.6,269.9,63.8,277.1z"/>
	<path class="st0" d="M128.5,365.9c-4.7,0.4-9-5.3-5-8.6C130.8,351.8,138.9,365,128.5,365.9z"/>
	<path class="st0" d="M196.2,301.3c2.4-1.4,5-2.2,7-0.3c1.8,1.5,2.6,3.7,1.9,5.7C201.3,315.4,191.5,308.8,196.2,301.3z"/>
	<path class="st0" d="M221.8,255c-5.1,0.3-8.9-6.1-4.7-9.3C224.3,240.9,231.3,254.2,221.8,255z"/>
	<path class="st0" d="M247.9,366.1c-6.1-7.4,5.3-12.1,9.1-5.3C260,367.2,252.1,368.6,247.9,366.1L247.9,366.1z"/>
	<path class="st0" d="M239.2,369.8c-3.1,0-6.1,0-9.2,0c-1-1.8-2-3.7-3-5.6c2.6-1.2,5.1-2.4,7.4-3.4c2.3,2.4,4.8,4.1,7.7,5.5
		C241.2,367.4,240.3,368.5,239.2,369.8z"/>
	<path class="st0" d="M247.8,366c1.4,1.1,2.4,2,4.3,2.4c-2,0.8-6.9,0.9-10.2,0.2c1.7-0.9,3-1.6,4.8-2.6c-4.2-1.7-8.3-1.9-10.3-6.4
		c2.2-1.6,4.3-3.1,6.5-4.7C250,357.4,241.7,362.4,247.8,366C247.9,366.1,247.8,366,247.8,366z"/>
	<path class="st0" d="M122.6,363.7c-3.4,0.5-8.4-1.8-10-4.6c-2.7-5.8,5.9-8.7,8.9-3.7C123.2,358.4,119.1,360.4,122.6,363.7
		L122.6,363.7z"/>
	<path class="st0" d="M194.7,302.2c-2-4.7-0.5-14.1,6.4-11.7c3.9,1.4,3.8,8.3-1,8.5c-1.4,0.1-3.6,0.6-3.7,2.1
		C195.7,301.5,195.2,301.8,194.7,302.2L194.7,302.2z"/>
	<path class="st0" d="M194.6,302.2c-0.2,1.8-0.4,3.6-0.6,5.7c-3,2.1-6.9,1.1-8.7-2.5c-1.7-3.4,1.2-7.3,5-5.4
		C191.8,300.8,193.1,301.8,194.6,302.2C194.7,302.2,194.6,302.2,194.6,302.2z"/>
	<path class="st0" d="M254.9,357.1c-2.5,0-4.7,0-7.1,0C244,345.9,259.4,345.4,254.9,357.1z"/>
	<path class="st0" d="M225.6,245.5c-2.6-0.6-4.7-1.1-7.1-1.7c-0.3-3.7,2.1-9.2,6.9-7C229.3,238,226.8,242.9,225.6,245.5z"/>
	<path class="st0" d="M206.7,305.4c-1.2-2.1-2.2-3.9-3.3-5.9c1.5-0.7,3.2-1.7,5-2.4C214.2,295.2,217.9,304.7,206.7,305.4z"/>
	<path class="st0" d="M130.6,355.6c-2.4,0-4.6,0-7.1,0c-0.9-3.3-1-8.8,4-8.6C131.9,346.9,132.1,352.8,130.6,355.6z"/>
	<path class="st0" d="M157.6,320.4c-2.8-0.5-4.9-0.9-7.2-1.3c-0.5-3.6,1.2-8.9,5.9-7.5C160.9,312.3,158.6,317.7,157.6,320.4z"/>
	<path class="st0" d="M65.2,268.9c2.2-2.1,5-5.4,7.6-2.2c4.7,5.3-1.8,7.8-6.6,8.6C66.8,272.8,66.8,270.8,65.2,268.9z"/>
	<path class="st0" d="M220.8,256c1.9-0.4,4-0.6,5.5-2.2c0.2-0.2,0.8-0.2,1.2-0.1c2.6,0.6,5.5,2.9,4.1,4.9
		C228.5,264.3,222.4,261.7,220.8,256z"/>
	<path class="st0" d="M122.5,363.7c1,2.1,3.2,2.3,5.2,3.1c0.2,1.4,0.7,3.9-1.3,4.1c-3.1,0.1-6.2,0-9.2,0
		C115.8,365.6,120.6,367,122.5,363.7C122.6,363.7,122.5,363.7,122.5,363.7z"/>
	<path class="st0" d="M44.6,312.6c0.6-3.2,0.9-5.9,1.5-8.5c0.3-1.3,1.9-1.8,3.2-0.9c1.5,1,2.6,2.4,2.7,4.3
		C51.7,311.3,47.8,311.3,44.6,312.6z"/>
	<path class="st0" d="M193.6,316.4c-0.9-2.7-0.6-4.2,1.2-6.9c1.9,0.8,3.8,1.7,5.7,2.5c0.1-0.1,0.2-0.3,0.4-0.4c0.3,1,0.7,2.1,1,3.1
		C199.2,315.8,195.3,316.6,193.6,316.4z"/>
	<path class="st0" d="M241.6,311.1c3.2-6.1,11.6-1.9,8.2,4.3C247.1,314,244.4,312.6,241.6,311.1z"/>
	<path class="st0" d="M58.7,267.5c-3.1-4.2,2.4-11.4,4.4-5.9c0.5,1.9,0.5,4,0.8,6.2C61.9,267.6,60.3,267.6,58.7,267.5z"/>
	<path class="st0" d="M227.5,251.8c-0.4-1.8-0.7-3.2-1.1-4.7c2.6-2.4,7.5-3,8.7,0.6C234.6,250.2,229.6,250.7,227.5,251.8z"/>
	<path class="st0" d="M202.9,311c1.1-1.4,2.1-2.5,3.1-3.8c2.5,0.2,4.4,1.5,5.6,3.7c0.8,1.5,0.4,2.1-1.3,2.6
		C207.4,314.3,205.4,312.4,202.9,311z"/>
	<path class="st0" d="M257.5,315c0.3,2.4,0.6,4.7,1,7c-0.8,0.3-1.5,0.6-2.2,0.9c-1.6-2.1-3.2-4-4.9-6.1
		C253.3,315.8,254.9,314.7,257.5,315z"/>
	<path class="st0" d="M253.7,368.5c2-0.8,3.8-1.8,4.6-4c1.1,0.1,2.1,0.2,3.2,0.3c0,1.4,0,2.6,0,4C259,369,256.4,369.2,253.7,368.5z"
		/>
	<path class="st0" d="M261.2,355.3c-0.1,3.5,1.5,5.6-2.5,7c-0.8-1.3-1.5-2.7-2.3-4.1C257.4,356.4,259.1,355.7,261.2,355.3z"/>
	<path class="st0" d="M164.6,324.8c-1.8,0.6-3.3,1.2-4.8,1.7c-0.5-1.7-0.9-3.1-1.4-4.8c1-0.5,2-1.1,3.2-1.8
		C162.6,321.6,163.5,323.1,164.6,324.8z"/>
	<path class="st0" d="M43,323.7c0.5-3.4,0.9-6.4,1.3-9.6C48.6,315.8,47.2,322.3,43,323.7z"/>
	<path class="st0" d="M152.1,320.3c4.5-1,8.1,3.9,5.8,7.9C155.9,325.6,154.1,323,152.1,320.3z"/>
	<path class="st0" d="M134.4,360.8c-0.9-1.6-1.6-2.8-2.3-4c1.1-1.9,2.8-2.6,5.3-3C136.3,356.2,135.4,358.4,134.4,360.8z"/>
	<path class="st0" d="M133.2,365.2c-0.3,1.6-0.6,3-0.9,4.7c-1.2-1.1-2.1-2-3.2-3C130.5,366.3,131.7,365.8,133.2,365.2z"/>
	<path class="st0" d="M147.1,317c-2-0.5-3.9-0.9-5.9-1.3C143.7,314.4,145.3,314.8,147.1,317z"/>
	<path class="st0" d="M158.9,331.4c-0.2-1.3-0.4-2-0.6-3.3c1.4,0.4,2.3,0.7,3.7,1.1C160.9,330.1,160.2,330.6,158.9,331.4z"/>
	<path class="st0" d="M259.4,323.4c0.1,1.3,0.2,2.3,0.4,4c-1.2-1.1-2-1.8-3.1-2.8C257.7,324.1,258.4,323.8,259.4,323.4z"/>
	<path class="st0" d="M166.2,327c-1.2,0.9-2.3,2.1-3.9,0.7C164.5,326.1,164.8,326,166.2,327z"/>
	<path class="st0" d="M128.6,371.7c0.5-0.9,0.7-1.3,1-1.9c0.7,0.6,1.2,1,2.2,1.8C130.6,371.6,129.8,371.7,128.6,371.7z"/>
	<path class="st0" d="M252.8,287.4c-1.8-1.6-2-3-1.3-4.7C251.9,284.1,252.3,285.4,252.8,287.4z"/>
	<path class="st0" d="M55.4,270c0-0.9-0.3-1.8,1-2.6C56.6,268.7,56,269.2,55.4,270C55.4,270,55.4,270,55.4,270z"/>
	<path class="st0" d="M423.8,116.2c25,1.3,18.8,35.5-3.6,35.1C396.2,150,399.5,116.2,423.8,116.2z"/>
	<path class="st0" d="M356.3,412.5c-5.7,0.3-3.3-9.6,1-9.7C367.2,403.2,364.7,412.4,356.3,412.5z M358.6,410.4c4.1,0,5.1-6,0.3-5.9
		C354.8,404.3,354.2,410.4,358.6,410.4z"/>
	<path class="st0" d="M337.9,402.3c-7.8-0.3-4.3-9.9,1.5-10.6C346.6,390.7,345.6,402.5,337.9,402.3z M338.1,400.1
		c4-0.2,5.1-6.2,0.1-6C333.9,394.2,333.8,400,338.1,400.1z"/>
	<path class="st0" d="M373.3,423.1c20.1,2.1,7.7,27.7-6.9,21.2C357,438.8,359.7,422.7,373.3,423.1z"/>
	<path class="st0" d="M360.2,478.7c-3,6-13.6,11.2-16.8,2.8c-0.8-2.4-1.5-4.6-2.7-6.9c-2,1-3.8,2.1-6.2,1.3c1.3-1.3,2.4-2.4,4-4
		c-2.3-0.3-4-0.5-5.9-0.7c1.1-2.2,2.9-2.6,4.9-2.7c6.9-0.7,3.4,11.6,11.6,8.4C355.2,474.4,353.4,481.4,360.2,478.7z"/>
	<path class="st0" d="M414.2,69.2c-13.1-0.4-5.3-15.4,3.9-14.2c5.7,0.4,7.3,8.8,2.9,12C419.1,68.5,416.7,69,414.2,69.2z M413.5,64.2
		c4,0.1,5-5.8,0.4-5.8C410,58.5,409.2,64,413.5,64.2z"/>
	<path class="st0" d="M351.7,36.5c-0.1-12.4,20.2-11.1,14.9,0.6c-2.4,3.7-6,5.4-10.4,5.5C352.8,42.8,352,39.3,351.7,36.5z
		 M357.9,31.7c-4.1,0.1-4.5,5.6-0.3,5.8C361.5,37.4,362.6,31.6,357.9,31.7z"/>
	<path class="st0" d="M183.4,108.8c0.9,17.4-24.9,2.6-14.4-5.9c3.7-2.8,10.5-3.6,12.8,1.3C182.6,105.9,183.1,107.8,183.4,108.8z
		 M178.8,105.8c-4.6-0.3-4.5,5.3-0.4,5.8C182.9,112.1,182.9,106.1,178.8,105.8z"/>
	<path class="st0" d="M136.6,136.4c-6.2-1.2-12.7-4.1-9.6-11.6c3.3-8.1,15.5-2.8,16.5,4.4c1.3,4.8-2.4,7.2-6.8,6.8
		C136.7,136.2,136.6,136.3,136.6,136.4z M137.9,125.5c-4.6-0.1-4.2,5.5-0.1,5.8C142.3,131.6,142,125.7,137.9,125.5z"/>
	<path class="st0" d="M122.1,164.8c11.1-0.4,22.5,11.6,16.2,22.4c-3,5.2-7.6,7.5-13.6,7.1C107.1,193.1,101.3,165.5,122.1,164.8z"/>
	<path class="st0" d="M135.5,293.7c0,5.1-5.7,6.1-9.3,4.2c-2.9-1.5-2.9-5.6,0.5-6.5c1.7-0.5,2.6-0.5,4.5-1c-2.6-2.1-5.2-2.9-7-5.6
		c-4.7-6.8,6.5-10.3,8.6-3.6c0.3,0.9,0.3,1.9-0.5,2.7C129.3,286.9,131.5,292.1,135.5,293.7z"/>
	<path class="st0" d="M138.2,293.3c-5.3,0.3-8.7-5.8-4.7-9.2C140.4,279.1,147.7,292.4,138.2,293.3z"/>
	<path class="st0" d="M134.6,282c0.9-3.6,1.7-9.1,7-7c4.1,1.2,1.7,6.2,0.4,8.8C139.4,283.2,137.2,282.7,134.6,282z"/>
	<path class="st0" d="M137,294.2c4.8,0,4.7-2.4,6.9-2.1c2.6,0.6,5.5,2.9,4.1,4.9C144.7,303.1,138.5,299.5,137,294.2z"/>
	<path class="st0" d="M143.8,290.2c-0.4-1.9-0.8-3.3-1.1-4.7c3.3-4.1,12.2-1,7.5,2.1C148.3,288.7,146.1,289.3,143.8,290.2z"/>
	<path class="st0" d="M105.4,323.1c-4.8,0.4-9-5.6-4.8-8.7C108.3,309.3,115.8,322.4,105.4,323.1z"/>
	<path class="st0" d="M99.4,321.3c-4.1-0.3-12-3.5-9.9-8.6c1.7-4.1,8.7-2.9,9.5,1.1c0.1,0.3,0.2,0.8,0,1
		C97.5,317.1,98.5,319.2,99.4,321.3L99.4,321.3z"/>
	<path class="st0" d="M99.3,321.4c1.7,0.9,3.4,1.8,5.3,2.9c2.1,4.7-5.3,7.8-8.9,5.4c-2.4-1.5-2.6-3.9-0.3-5.6
		C96.7,323.3,98.6,322.6,99.3,321.4z"/>
	<path class="st0" d="M108.1,312.9c-2.8,0-5.1,0-7.7,0c-0.2-3.5-1-9,4.5-8.5C109.4,304.5,108.4,309.8,108.1,312.9z"/>
	<path class="st0" d="M106.5,323.9c2.1-0.5,3.8-1.5,4.8-3.9c2.4,0.7,7.5,0.7,6.2,4.5c-2,6.5-7.7,3.5-11.2,0
		C106.4,324.3,106.4,324.1,106.5,323.9z"/>
	<path class="st0" d="M111.6,318.4c-0.9-1.7-1.6-2.9-2.4-4.4c1.2-2.5,7.2-4.8,8.7-1.6c0.4,1.2-0.6,2-1.4,2.6
		C115,316.2,113.3,317.2,111.6,318.4z"/>
	<path class="st0" d="M106,264.2c-2.4,2-4.8,4.1-8.1,4.6c-4.1,1.1-8.1-3.2-4.9-6.8c1.9-2.2,5.7-2.8,7.6-0.2
		c2.5,3.1,7.7,2.3,10.4-0.5c6,0.8,4.8,8.4,0.5,10c-4.7,1.6-6.1-2.9-5-6.7C106.4,264.5,106.2,264.3,106,264.2z"/>
	<path class="st0" d="M101.4,254.5c2.6-1,5.3-2,7.9-0.6c2.2,1.1,2.9,3.1,2,5.3C107.6,266.3,96.5,263.1,101.4,254.5
		C101.5,254.4,101.4,254.5,101.4,254.5z"/>
	<path class="st0" d="M101.4,254.5C101.4,254.5,101.5,254.4,101.4,254.5c-1.1,1.2-1.7,2.4-2.2,4.2c-3.1-1-8.6-3-6.5-7.1
		c2.2-4.6,7.5-1.3,9.9,1.5C102.2,253.5,101.8,254,101.4,254.5z"/>
	<path class="st0" d="M112.2,260c0.5-3.4,0.5-3.4-1-6.2c1.9-1.7,4.7-5.3,7.3-2.4C123.5,256.3,117.1,259.9,112.2,260z"/>
	<path class="st0" d="M109.7,252.7c-2.1-0.1-3.5-0.2-5-0.2c-3.4-4,2.2-11.3,4.2-6C109.4,248.4,109.4,250.4,109.7,252.7z"/>
	<path class="st0" d="M62.4,350.1c0.9,1.8,2.7,1.7,4.2,2.4c2,5-4.8,8-8.6,5.9c-2.7-1.5-2.9-4.1-0.4-6c1.5-0.9,2.4-1.1,4-2.2
		c-3.4-1.2-6.5-1.6-9-4.3c-2.8-2.4-1.1-6.8,2.3-7.3c3-0.6,7.4,2.1,5.9,5.5C59.8,346.7,60.4,348.4,62.4,350.1
		C62.5,350.2,62.4,350.1,62.4,350.1z"/>
	<path class="st0" d="M71.7,350.6c-3.2,1.7-6.2,1.1-9.2-0.5c0,0,0.1,0.1,0.1,0.1c-4.4-6.7,2.5-10.4,8.3-7.1c0,0-0.1,0-0.1,0
		C72.4,345.6,73.4,347.9,71.7,350.6L71.7,350.6z"/>
	<path class="st0" d="M62.9,341.6c-1.1-3.6-1.2-9.1,4-8.7c4.4,0.1,4.3,5.2,2.8,8.6C67.4,341,65.2,341.1,62.9,341.6z"/>
	<path class="st0" d="M71.6,350.7c0.7-0.6,1.4-1.2,2.3-2c2.6,0.4,7.5,1.2,5.5,5.1c-2.4,5.9-7.8,2.3-11-0.8
		C69.7,352,70.7,351.3,71.6,350.7C71.7,350.6,71.6,350.7,71.6,350.7z"/>
	<path class="st0" d="M70.9,343c1.6-3,6.9-5.3,9.1-2c0.1,2.6-4.4,4.2-6.2,5.9C72.7,345.5,72.5,343.3,70.9,343z"/>
	<path class="st0" d="M177.5,271.5c0.7,0.8,1.4,1.7,2.3,2.7c0.4,4.6-4.8,5.1-8.2,4.3c-1.8-0.4-3.1-2.3-3.1-3.9
		c0.1-3.1,4.3-3.1,6.8-4.3c-2.5-1.6-5.2-2.9-6.8-5.5c-3.4-4.5,2.5-8.9,6.5-6.2c2.3,1.4,2.7,3.5,1.9,5.9c0,0,0.1-0.1,0.1-0.1
		C174.5,266.6,174.9,269.8,177.5,271.5z"/>
	<path class="st0" d="M177.5,271.5c-1.7-2.2-1.7-4.7-0.4-7.2c0,0-0.1,0.1-0.1,0.1C190.8,258.7,190.1,280,177.5,271.5z"/>
	<path class="st0" d="M186.1,264.2c-2.6-1.2-4.2-1.6-7.1-1.6c0.5-2,0.8-3.8,1.5-5.5C184.4,251.3,192.1,256.8,186.1,264.2z"/>
	<path class="st0" d="M181.7,274.8c2.1-0.8,4-1.6,6.6-2.6c1.6,0.8,6.2,2.6,4,5.5C189.2,283,182.8,279.5,181.7,274.8z"/>
	<path class="st0" d="M188.2,270.3c-0.4-1.8-0.7-3.2-1-4.8c3.8-4.2,12.6,0.1,7.2,2.5C192.4,268.9,190.4,269.5,188.2,270.3z"/>
	<path class="st0" d="M207,329.5c3.8,6.9-11,11.9-12.2,3.3C193.3,324.7,204.1,323.2,207,329.5c-1.7-2.4-6.2-2.7-6.8,0.4
		C200.3,334.7,207.5,334.8,207,329.5z"/>
	<path class="st0" d="M185.1,342.4c-0.3,8.2-13.6,8.9-13.8,0.1C171.9,333.3,184.6,332.6,185.1,342.4z M180.6,338.2
		c-4.9-0.1-3.8,5.8,0.2,6C185.2,344.1,184.9,338.2,180.6,338.2z"/>
	<path class="st0" d="M155.1,363.1c7.8-0.1,17.1,6.7,14.6,15.5c-1.1,4.7-3.5,8.4-8.5,9.5C145.2,391.7,135.2,363.9,155.1,363.1z"/>
	<path class="st0" d="M195.7,451.5c13.8,7.8,8.1,9.8,18.3-3c7.9-9.3-3.7-22.7-12.1-12.5c-4.2-4.8-9-5.4-13.4-0.5
		c-4.9,4.9,0.1,9.9,3.8,13.7c-7-2.5-11.1-13.9-3.6-17.9c4.4-2.7,9.4-1.5,12.4,2.5c2-1.9,4.4-3.2,6.8-4.3c7.4-2.5,14.4,8.6,9.7,15.3
		c-3.4,5.4-7.3,10.2-11.4,15c-3.4-2.5-6.7-4.9-10-7.3C196,452.2,195.9,451.8,195.7,451.5z"/>
	<path class="st0" d="M202.4,440.8c1.1-1.7,1.5-2.8,2.6-4.3c2.9-4.1,9.2-0.2,8.9,4.1c0,5.9-4.8,9.8-7.8,14.4
		c-5.6-4-11.6-6.4-15.7-11.7c-4.3-4.6,4.2-12,8.2-7C200,437.8,200.7,439.3,202.4,440.8z"/>
</g>
</svg>
