<?xml version="1.0" encoding="utf-8"?>
<!-- Generator: Adobe Illustrator 26.0.0, SVG Export Plug-In . SVG Version: 6.00 Build 0)  -->
<svg version="1.1" id="Capa_1" xmlns="http://www.w3.org/2000/svg" xmlns:xlink="http://www.w3.org/1999/xlink" x="0px" y="0px"
	 viewBox="0 0 595.3 769.2" style="enable-background:new 0 0 595.3 769.2;" xml:space="preserve">
<style type="text/css">
	.st0{fill:#FFFFFF;}
</style>
<g>
	<path d="M327.6,445.7c-2.3-15.7-7.6-30.3-16.1-43.7c-0.8-1.3-1.1-2.5-0.7-4.2c3.7-12.6-2.4-25.3-11.6-33.9c0.8-1.7,1.4-3.1,2.2-4.7
		c4.8,4,5.2-1.1,1.8-3.6c2-7.8,4-15.2,5.9-22.7c1.7,1.2,4.6,0.3,3.4-2.1c-1.9-2.2-3.4-1.4-2.9-5.3c1.9-19.3-2.3-39.6-15-54.8
		c7.7-5.8,14.6-12.4,20.4-20.1c5.8-6.9,12.3-14.1,9.9-23.8c-2.8-13.4-12.4-25.4-24.9-30.9c-4.7-1.8-9.5-2.1-14.1,0.1
		c-35.8,7.8-72,14-107.1,25.2c-0.4-5.1-2.5-4.8-6.5-3.1c-3.6-17.8-7.5-35.2-8.1-53.4c-0.7-2.5,1-11.3-3.6-8.9
		c-12.2,10.2-23.6,22.2-26.8,38.4c-9.6-8.6-18.4-18.3-30.5-23.4c-3-1.3-4-0.6-3.7,2.6c0.7,12.3,2.2,24.4,2.2,36.7
		c-16.3-8.3-34.7-10-52.7-8.1c-1,0.1-2,0.3-2.4,1.5c-0.4,1.2,0.4,1.9,1.2,2.5c17.5,16.3,30.9,36.5,49.4,51.8
		c-3.8,2.9-3.6,4.5,0.6,6.6c-12.3,12.8-21.3,27.5-26.4,44.6c-0.4,1.3-1,2.1-2.1,2.8c-1.8,1.1-3.7,2.2-5.4,3.4
		c-1.2,0.8-1.2,2.1-0.5,3.2c1.7,2.3,3.6,0.2,5.8-0.8c-3.8,17.4-4.5,34.3,3.7,50.2c-6.1,6.5-9.3,14.1-7,22.9c0.4,1.6-0.1,2.7-0.9,3.9
		c-26.6,40.4-0.9,29-47.6,44.5c-3.5-2-13.3-12.6-16-7c-0.9,3.1,3.9,3.7,5.7,5.3c1.6,1,3.1,2.1,5.1,3.6c-4.4,1.4-7.2,2.4-11,4.1
		c-1.2,0.5-1.5,1.6-1.1,2.8c0.9,3.9,9.8-1.4,12.8-2c-0.7,3.7-1.1,6.5-1.3,10.1c-0.1,1.6,0.9,2.5,2.3,2.6c1.5,0.1,2.2-0.7,2.5-2.1
		c0.4-3.3,1-6.6,1.6-9.8c0.2-1.1,0.9-1.7,1.9-2.1c8.5-2.9,16.5-6.7,25.2-9.2c-11.3,33.6-14.4,71.7,1.5,104.4
		c-3.3,3.4-6.8,5-10.8,5.1c-0.2-6.4,1-16.1-6.2-19.1c-5.9-1.8-12.6,3.6-12.2,9.8c0.2,6.4,5.3,10.3,10.2,13.7
		c-2.1,2.7-4.9,3.8-8.3,3.4c-5.6-0.2-8-7.2-11-4.1c-5.2,7.4,17.9,15.4,24.8,3.2c0.8-1.2,1.7-1.7,3.2-1.8c5-0.2,9-2.7,13.1-5.3
		c11.1,18.4,27.1,31.1,45.5,40.8c-0.5,12.6,0.2,25.9-1.7,38.2c-2,2.9-1,5.3,2.5,5.6c12,0.2,24.3,3.2,36.1,0.1
		c1.9-0.5,3.1-1.9,3.2-3.9c-0.5-9.8-28.2-2.3-35.2-3.2c0.7-11.5-0.1-22.5,1.6-33.7c11.8,5.9,24.5,8.4,36.4,12.8
		c3.6,3.7,7.1,7.4,10.7,11.2c-0.8,1.6-1.4,3.7,0.3,4.9c2.5,1.5,4-1.3,6.6-2.7c-7.3,20.8-5.9,39.5,8.6,56.1c-1.6,2.7-3.2,5.5-4.8,8.3
		c-0.7,1.3-1.6,1.8-3,2.2c-7.5,2.1-15.2,4.8-22.1,8.2c-2.9-1-11.2-5.6-12.2-0.8c0,3.6,4.5,2.1,6.7,3.4c-2.1,1.8-3.9,3.3-5.7,4.9
		c-2.2,1.9,0.4,5.5,2.9,3.4c1.1-0.8,2.2-1.7,3.6-2.8c0,0.9,0,1.4,0,1.8c-0.4,2.7,3.7,3.5,4.2,0.8c1-2.3,0.9-5.3,3.6-6.2
		c6.3-2.9,11.5-5.3,18.3-7.9c-4.5,11.3-7,22.5-9,33.8c-1.2,0-2.1,0.4-2.9,0c4.3-16-17.1-12.9-10.6,0.7c-2.5,0.2-3.6-1.3-4.6-3
		c-2.9-3.9-6.4,0.7-3.4,3.8c2.4,3.5,7,5.5,11.2,3.9c3.2-1.2,6.3-0.6,9.6-1c-2.8,24.7-6.3,16.4,24,18.3c-0.3,7.1,0.7,13.7-0.7,20.4
		c-0.9,2.6-0.3,3.9,2.5,4.1c7,0.2,14.1,1.5,21.1,0.6c5.9-0.6,5.4-7-0.3-7.2c-6-0.2-11.3,0.6-17.5,1.2c0.3-6.4,0.5-12.5,0.8-18.7
		c14,0,27.7,0,41.5,0c0.8,5.9-0.1,12,0,18c0,0.7-0.3,1.3-0.6,1.9c-1.1,2.4-0.5,3.9,2,4c7.7,0,16.7,2.4,24-0.2
		c2.5-1.2,2.4-4.2-0.1-5.5c-6.1-2.1-13.6,0.1-20.2,0.4c0.3-6.5,0.5-12.5,0.8-18.8c10.4,0,20.5-0.5,30.9-0.7c3-0.1,3.8-0.9,3.4-3.9
		c-2.1-17.6-4.9-35.1-11-51.9c5.2,1.7,9.7,4.2,14.8,6.2c4.2,1.5,5.5,3.6,6.4,7.8c0.6,2.2,4,1.6,4.1-0.5c0.1-0.7,0-1.4,0-2.4
		c1.5,1.2,2.7,2.2,4,3.1c1.8,1.5,4.5-1.4,2.9-3.1c-1.9-2.2-3.9-3.6-6.3-5.5c2.3-1.3,7.2,0.2,6.8-3.7c-1.1-4.5-9.3,0.2-12,1
		c-3.6-1.6-7.1-3.3-10.8-4.7c-3.8-1.9-11.3-2.2-13.6-5.5c-2.4-4-4.7-7.7-7.6-11.4c10.6-10.6,12.8-23,7.7-36.9
		c3.9-0.3,7.2-0.7,10.6-2.3c2.4-1.2,2.9-4.4,1-6.1c-2.1-1.7-4.2-2.1-7-2.6c14.5-11,30.5-24.3,16.1-42.7
		C305.9,548.7,335.5,497.7,327.6,445.7z M30.2,543.9c-2.9-1.2-5-2.8-6.5-5.1c-2.1-2.7-0.8-7.8,3.1-7.7
		C31.7,531.5,30.8,540.1,30.2,543.9z M138.8,718.9c-2.8-0.9-2.1-3.3-0.1-4.3C140.3,716.3,139.9,717.1,138.8,718.9z"/>
	<path d="M593.8,552.5c-4.4-2.2-5.4,10.6-14.8,3.3c20.9-23.9-23.3-24.5-9.7-1.4c-3.4,0.1-6.1-1.1-8.8-2.2c-1.5-0.5-1.9-1.5-2-3
		c-2.5-28.8-6.5-57.4-16.5-84.7c9.2,7.8,18,15.4,27.2,23.1c1.4,1.2,2.3,2.3,2.8,4.1c0.9,3.2,2,6.3,3.2,9.5c0.5,1.3,1.4,2.3,3,1.8
		c4.7-1.8-0.4-9.5-1.2-13c4-0.1,7.3,1.6,11.1,2.6c3.1,1.3,5.2-2.6,2.5-4.5c-3.2-2.3-6-2.5-10.1-3.4c3.4-1.3,6.3-2.4,9.2-3.5
		c3.7-1.1,2.1-5.9-1.4-4.8c-5.6,1.7-10.6,3.6-15.9,6.6c-11.6-9-22.6-18.8-33.8-28.3c-1.3-1.1-2.4-2.3-3.2-3.9
		c-5.4-10.8-13-19.8-22.1-27.8c27.5-30.5,25.9-78,3.6-111c4.6-1.8,1.8-5.1-0.7-7.4c14.9-13.8,26.9-30.3,40.9-44.9
		c1.4-1,2.3-3.3,0.1-4c-15.8-2-32.2,0-46.5,7.4c-0.2-10.8,0.6-20.7,1.3-31.3c0.2-2.9-1.5-3.6-3.7-2.6c-10.3,4.6-17.8,12.8-25.8,20.5
		c-3.4-13.3-12.9-23.6-23.3-31.9c-3.1-2.6-4.4,0.8-4.1,3.6c0,16.8-2.8,33.3-6.2,49.8c-4.8-1.8-5.6,0-5.8,4
		c-26.3-5.7-52.9-8.5-79.6-10.5c-3.2-0.4-6.3-0.3-9.3,0.6c-20.2,5.6-24.9,27-17.3,42.1c7.7,15.3,23.9,23.8,39.7,28.6
		c-15.8,26-18.2,61.9,2.1,86.2c-45,38.4-45.8,106.5-48.7,161.3c-0.1,3.2,0.2,3.4,3.3,3.3c22.1,0.9,44.2,1.3,66.3,2.5
		c0,10.1-1.1,20,0.9,30.1c-7.6-0.6-14.9-1.2-22.5-1.9c-1-0.1-2.1-0.5-3-1.1c-14.1-10.3-28.7-19.9-43.9-28.4c-3.5-2-4.4-1.5-5.1,2.6
		c-2,11.9-3.2,23.9-1.7,35.9c0.5,4.1,1.5,8.1,2.5,12.1c1,4.9,6.3-0.3,9.2-0.5c8.3-1.8,17.3-0.3,24.9,3.5c-9.3-0.5-19.4-4.5-27.5,1.9
		c-22.3,18.2-5.8,41.4,17.4,46.9c-0.5,3.7-1,7.2-1.5,11c-9.8-7.1-3.1,9.4-0.3,12.5c1.4,1.8,1.6,3.4,0.5,5.4c-1.9,0.5-4,1.4-6.3,1.2
		c0.4-4.9,0.6-9.5,0.6-14.4c0.3-4.8-2.7-5.3-6.9-4.8c-8.4,1.2-17,3.3-25.5,1.9c-3.7-0.5-3.5,4.5-3.9,6.9c0.1,11.3-1.7,23.3,4.6,33.4
		c5.5,9.5,19.1,8.6,24.5,1.2c4.2-5.5,4.8-12,6.3-18.7c1.9-0.6,4-1.2,6.4-2c-1.2,14.5,7.4,27.3,21,31.9c0,2.5,0,4.9,0,7.4
		c-3.6-0.2-12.3-3.1-13.1,2c-0.2,1.7,0.4,3,2.1,3.6c4.5,1.4,9.5,0,14.1-0.2c5.6-0.5,0.7-4.5,2.2-11.4c8.7,2.1,17.2,1.4,26-0.1
		c0,2.2,0,4,0,6.1c-3.4-0.5-6.6-1.1-10-0.9c-1.8,0.2-2.8,1.3-3,2.9c-0.5,2.6,2,4.1,4.4,4.2c4.1-0.2,8.3-0.5,12.4-0.9
		c1.9-0.2,2.7-1.4,2-3.2c-1.2-3.2-0.3-6.4-0.6-9.1c5.4-2.9,10.4-5.6,15.6-8.4c2.8,3.2,6.5,6.5,11.1,6.4c1.6,0,2.9,0.2,4.3,0.9
		c3.8,1.9,9.2,0.3,11.6-3.2c1.9-2.2-1-5.2-3.1-3.5c-1.8,1.2-3.3,3.4-6,2.5c1.6-3.1,4.3-8.9-0.7-10.3c-5.7-1.5-8.9,3.9-7.3,9
		c-3.5-0.8-5.6-2.7-7-4.8c4-7.4,5-11.1,4.8-19.4c3.9,1.4,9.7,0.8,9.3,6.4c0,1.7,0,3.9,2.2,4c3,0.1,2.2-4.1,2.2-6.3
		c2.3,0.1,5.3,0.3,5.3-2.4c-0.4-2.5-2.9-1.7-5.1-2.3c1.1-0.9,1.9-1.5,2.6-2.1c1.8-1.7-0.1-3.7-2.1-3.5c-2.2,0.5-4.2,2.4-6.1,3.5
		c-11.2-3-9.9-0.8-15.3-11.4c8.3-13.3,14-27.7,17.4-43c2.3-7.9-3.8-13.9-8.3-19.6c11.8-13.6,26.4-13.4,42.9-13.1
		c10.6,0.2,25.6-9.3,17.6-20.9c-1-1.4-1.5-2.8-1.6-4.5c0-6.6-1-13.2-0.2-19.7c22.2,0.1,44.3,0.3,66.4,0.4c3.1,0,3.3-0.2,3.3-3.2
		c-0.1-9.9-1.2-19.8-0.7-29.7c7.7,3.7,12-0.3,15.7,2.3c6,4.8,17.2,5.1,19.8-3.5C595.6,554.6,595.2,553.2,593.8,552.5z M435.6,746.6
		c0.2-0.8,0.4-1.6,0.8-2.3c0.1-0.2,1,0.2,1.5,0.3c-0.4,1.2-0.4,2.5-1.7,3.2C435.9,747.3,435.5,746.9,435.6,746.6z M425.7,642.8
		c-10.9-7.9-23.4-11.5-36.1-15.2c0-0.3,0-0.6,0.1-0.8c4.7-0.6,9.5-0.7,14.2-1.2c6.5-0.4,2-5.4,2.2-9.4c-0.2-9-1.2-18-0.7-26.9
		c6.8,0,13.4,0,20.2,0C425.1,610.7,435.6,619,425.7,642.8z M484.5,607.7c-13-4.2-23.1,1.6-33.5,9.3c3.1-9.2,4.8-17.8,3.8-27
		c10,0,19.7,0,29.8,0C484.8,595.9,484.5,601.6,484.5,607.7z M574.4,552.6c-1.4-2.9-4.4-6.1-1.3-8.7c1.4-1.1,4.2-1.5,5.4-0.8
		C581.8,545.3,576.9,550.8,574.4,552.6z"/>
	<path d="M493,150.6c-11.1,52.4,59.8,62.9,61.1,17.9c17.7-3.2,26.6-20.2,21.3-37c-7.8-35.1-55.5-44.6-60.7-2.8
		C503.1,131.6,495.5,139,493,150.6z"/>
	<path d="M42.3,97.5c3.7-0.1,7.4-1.7,11.3-2.7c-6.5,12.4,7.2,18.1,17.6,16.5c4.9-0.6,7.7-3.9,7.7-8.9c0-9.6-10.6-14.9-19.3-12.2
		c20.5-22.4-2.7-64-32.4-60.2C-9.1,40.1,1.4,102.1,42.3,97.5z"/>
	<path d="M340.8,112.6c41.5-9.8,15-76.7-21.9-66.1C282.9,60.6,302.6,123.3,340.8,112.6z"/>
	<path d="M1.9,158c5.6,17.4,35.9,18.4,39.2-0.8C45.6,119.1-10.7,112.9,1.9,158z"/>
	<path d="M152.6,76.9c3,0.9,6,1.5,9.1,2.2c9.8-0.3,19.8-6.7,15.8-17c-3.4-9-14-14.1-23.3-11.6C142.7,53.5,138.6,71.9,152.6,76.9z"/>
	<path d="M492.9,122.4c6.7,2,15.5,3.6,19-2.8c2-3.9,1.2-7.7-1-11.2c-5.2-8.9-25.6-9-24.8,5.6C486.4,118.3,488.9,121.1,492.9,122.4z"
		/>
	<path d="M436.8,35c7.3,2.7,20.6,3.3,20-7.7c0.1-2.3-0.6-4.6-2.1-6.6c-6.3-9.4-25.6-7.5-24.6,5.8C430.3,30.9,432.9,33.6,436.8,35z"
		/>
	<path d="M360.4,110.4c0.2,4.1,3,7.4,7.6,8.7c6.4,1.7,17,3.2,18.9-5.3C390.8,96.9,359.7,91.8,360.4,110.4z"/>
	<path d="M475.5,155.5c2.4-0.5,5-3.7,5-6.2c-0.5-6-9.9-5.3-14.8-5.1C467.4,148.9,469.8,156,475.5,155.5z"/>
	<path d="M408.6,21.5c-3.6-1.3-7.4-1.6-11.6-1.1C403.4,43,418,24.7,408.6,21.5z"/>
	<path d="M252.2,80.2c7.1-9.3-6.8-9.1-13-9.6C240.8,76.5,245.9,86.8,252.2,80.2z"/>
	<path d="M387.3,7.9c1.6,3.4,3.8,6.3,6.9,9.1C399-6.8,383.1-1.4,387.3,7.9z"/>
	<path d="M393.7,21.9c-2.9,3.7-4.5,8.5-4.8,13.1c0.3,6.9,13.3,2.4,5.7-13.6C394.2,21.6,393.9,21.7,393.7,21.9z"/>
	<path d="M455.8,131c1.4,3.8,4,6.8,6.8,9.6c0.3-0.1,0.5-0.1,0.8-0.2c0.1-4.7,0.9-9.7-0.8-14.2C460,120.3,453.2,126.4,455.8,131z"/>
	<path d="M236.2,67.5c0.2-0.1,0.4-0.2,0.6-0.3c0.2-4.1,2.1-17-4.3-16.5C223.9,53.3,232.4,64,236.2,67.5z"/>
	<path d="M235.2,73.4c-2,3-8.1,17,0,15.1c6.6-2.7,4-11.5,1.5-16.9C236,72.4,235.5,72.9,235.2,73.4z"/>
	<path d="M249.3,68.5c6-1,5.6-12.4-1-9.3c-3.9,2-6.7,5.3-9.8,8.9C243.7,69.2,246.7,69.3,249.3,68.5z"/>
	<path d="M461,161.9c6.9-1.5,5.1-11.6,2.1-16.5C460.4,147.9,453.5,162.5,461,161.9z"/>
	<path d="M381.3,21.7c4.1,0.2,7.9-1,12-2.8C375.3,4.9,372.9,21.3,381.3,21.7z"/>
	<path d="M222.9,72.2c4.4,0.6,8.4-0.8,12.7-2.7c-3.7-2.6-7.2-4.8-11.6-5.7C218.4,62.4,217.1,71.9,222.9,72.2z"/>
	<path d="M406.8,17.9c8.4-1.6,5.5-20.8-10.5-0.5C400,18.5,403.4,18.7,406.8,17.9z"/>
	<path d="M475.9,141.7c8-2.1,4.8-20.4-10.6-0.6C469.1,142.4,473,142.6,475.9,141.7z"/>
	<path d="M445.7,140.3c-0.8,8.8,11.6,4.6,16.4,2.5C458.2,139.9,447.6,132.7,445.7,140.3z"/>
	<path class="st0" d="M287.1,374.7c-4.9,6.3-10.3,11.2-16.6,15.6c-1.3-1.8-5.1-13.1-7.4-10.8c-0.4,0.5-0.7,1.5-0.5,2
		c1.5,3.7,3.3,7,4.7,10.8c-48.8,29.5-116.2,32.6-164.6,0.6c-27.2-16.2-37.9-46.3-28.9-76.4c0.4-1.7,1.2-2.8,2.8-3.7
		c27.1-14.2,54.2-28.3,81.6-41.8c12.4,29.7,47.9,5.5,39.7-18.9c5.4-2.8,10.7-5.6,16.1-8.5c21.5,36.3,61.6-18.4,26.1-33.8
		c2.8-1.3,35.4-8,40-8.3c-4.3,12.3-0.7,26.2,6,37.1c5.7,8.7,12,13.7,22.7,12.9c-2.7,4.7-12.1,13.1-17.4,15.6
		c-1.3-1.1-2.7-2.3-4.1-3.4c-2.7-2.4-5,1.5-2.9,3.5c0.7,0.7,1.4,1.3,2.4,2.2c-4.5,2.1-8.8,3.5-13.4,5.3c-2.8,1.1-3.3,1.7-2.8,3.2
		c0.6,1.4,1.7,2,4.1,1.2c5.4-2,10.8-3.6,16-6.2c13.3,15.1,16.3,33,14.8,52.7c-2-0.5-6.9-3.9-7.9-1.6c-1.2,2.2,5.5,4,6.9,5.2
		c0.4,4.2-2.9,17.6-5.5,22.5c-0.7-0.5-1.5-1-2.2-1.4c-1.1-0.6-2.2-2.1-3.4-0.7c-1.2,1.5,0.5,2.3,1.4,3.1c0.9,0.8,1.8,1.6,3,2.6
		c-2.3,5.7-5.1,11-8.6,16.1c-3.3-2.6-5.9-5.5-9.3-7.5c-1.6-0.4-2.4,0.8-1.6,2.3C281.3,369.1,284,371.7,287.1,374.7z M191.6,338.3
		c0.7-20.7-31-30.6-38.9-9.9C142.2,358.3,189.8,373.5,191.6,338.3z M272.5,326c1.8,20.1-26.9,38.5-37.1,15.3
		c-1.2-1.5-3.9-0.8-2.9,1.4c0.7,1.7,1.4,3.4,2.4,4.9c14.1,22,46-1,42.5-22.4c-0.4-2-0.8-5.5-3.7-4.8
		C271.4,321.1,272.7,324.2,272.5,326z M214,385.6c0.1,0,0.2,0,0.3,0.1c-0.7,4.6-1.5,9.1-3.4,13.4c-0.3,1-0.5,2,0.8,2.5
		c5.1,1.6,7.6-19.2,3.6-21C213.5,381.9,213.9,383.7,214,385.6z M214.6,310.9c-0.1,0-0.3,0.1-0.4,0.1c1,4.6,1.9,9.2,2.9,13.8
		c0.9,3.3,4.6,1.7,3.3-1.7c-0.9-4.6-1.7-9.3-2.6-13.8c-0.6-0.5-1.2-1.1-1.8-1.2C215.1,308.2,214.3,309.8,214.6,310.9z M265.5,291.3
		c-0.4,0.3-1,0.7-1.6,1.2c0.7,1.2,1.6,2.1,3.1,2.2c4.3,1.3,8.4,2.8,11.9,5.7c0.9,0.8,1.9,1.3,2.9,0.2
		C284.6,296.5,268.9,291.7,265.5,291.3z M251.3,296.7c-1.4,0.6-1.6,1.7-1,2.8c2.2,2.7,3.3,6,4.4,9.2c0.2,1.5,1.5,2.3,2.9,2
		C260.1,308.8,253.9,297.7,251.3,296.7z M245.4,396.3c0.1,0,0.3-0.1,0.4-0.1c-1.1-3.2-2.1-6.5-3.2-9.7c-0.3-1-1-1.9-2.2-1.4
		c-1.2,0.5-0.7,1.5-0.5,2.3c0.8,3.2,1.5,6.4,2.3,9.7c0,0.9,1.2,1.6,1.9,1.7C244.8,398.7,245.7,397.2,245.4,396.3z M235.6,307.1
		c-0.1,0-0.2,0.1-0.3,0.1c0.9,1.8,0.8,7.4,3.7,6.6c1-0.3,1.4-1.1,1.2-2.1c-0.7-2-0.5-7.5-2.9-7.8C235.7,304,235.4,305.7,235.6,307.1
		z"/>
	<path class="st0" d="M209.1,569.6c-6.3-15.9-11.2-31.6-19.1-46.7c-2.5-5.2-4.6-10.5-6.9-15.8c-0.6-1.4-0.5-2.6,0.2-4
		c1.8-3.4,1-5.9-2-7.3c-9-3.8-13,9.6-3.6,11.2c0.5,10.7,1,21.3,1.5,32.4c-6.3-6.7-12.3-13.2-18.3-19.7c0.8-3.4,1.1-7.7-3.1-8.7
		c-3.3-0.9-6.8,0.5-7.9,3.3c-1.2,3,0,6.3,3.4,7.7c2.1,0.9,2.4,2.1,2.7,4.1c1.6,9.2,3.5,17.7,5.1,27c-9.5-4.9-18.1-10.3-27-15.5
		c0.9-4.6-0.5-6.3-5-7.3c-8.2-1-9.3,10.9-0.8,11.7c3.5,9.1,6.9,18.1,10.5,27.5c-10.5-4-20.7-7.9-30.7-11.6c0.1-5.5-2.3-11.4-8.7-8.8
		c-3,1.5-4.5,5.8-3,8.6c1.5,3,4.7,2.5,7.7,2.8c8.8,10.9,17.9,22,26.8,33.1c0,0.9-1.6,0.2-2.1,0.2c-9.3-3.2-18.4-5.9-27.3-10.2
		c-0.2-3.4,2.2-12.2-1.9-12.7c-3.5-0.6-3.5,6.5-4.3,9.7c-56.5-27.6-65.2-90.2-45.8-144.8c0.6-1.8,1.5-2.9,3.4-3.4
		c6.2-1.7,12.3-3.9,18.5-5.6c1.9-0.6,2.5-1.4,2.2-2.7c-0.4-1.6-1.7-1.6-2.9-1.3c-6.1,1.4-11.6,2.6-17.7,4.3
		c4.3-10.6,9.3-20.3,15.2-29.6c19.4,28.4,55,43.4,88.6,46.2c1.2,0.1,2,0.5,2.7,1.5c2.5,3.7,5.6,6.6,9.5,8.7c0.7,0.4,1.3,1.2,1.7,1.9
		c3.8,8.4,10.9,12.9,18.6,17.3c4.5,5.3,9.8,9.3,16.8,10.6c0.7,0.1,1.5,0.6,2.1,1.1c6.6,5.5,14.1,7.2,22.3,5.3
		c-4.8,56.7,71.5,33.7,40.7-12.1c9.9,1.9,18.2-7.9,20.1-17.1c0.2-0.8,0.5-1.8,1.1-2.4c7.4-7.1,4.6-13.5,7.9-21
		c1.2-1.9,1.9-4.3,2.2-6.5c2.3-15.7-7.3-13.7,5.6-26.2c38,56.6,6.5,135.5-47.8,169.2c-4.8-3.4-10.8-5.4-16.7-4.6
		c-10.4,1.6-20.9,3.4-31.2,5.6c-0.2-0.2-0.4-0.4-0.5-0.6C216.9,573,213.8,567.1,209.1,569.6z"/>
	<path class="st0" d="M236.2,574.8c-3.6,6.9-0.8,14,2,20.5c3.8,7.8,8.7,11,17.7,11.8c-1.8,2.7-16.8,15.2-19.5,13
		c-0.3-0.2-1.6,0.3-1.7,0.6c-0.2,1.4-1.1,2-2.2,2.5c-1.5,1.1-0.5,2.1,0.8,2.4c0.9,0,1.8-0.3,3-0.5c20.9,35.5-21.1,60.7-52.9,51.7
		c-27.1-6.6-35.8-40.9-23.4-63.7c0.9-1.8,2.2-3.3,4-4.4c12.6-8.7,25.2-17.5,37.8-26.2C212.5,577.8,224.7,575.2,236.2,574.8z
		 M225.5,590.6c-0.4-12.7-18.9-12.3-19.3,0.4C206.3,604.8,225,602.7,225.5,590.6z M210.1,657.1c10.4-0.1,22-7.1,21.8-18.5
		c0-1,0.2-2.5-1.3-2.6c-1.7-0.1-1.4,1.4-1.5,2.4c-1,13.8-19,20.6-30.4,9.5c-1.6-2.3-4.4-3.7-4.2,0.4
		C197.4,654.3,203.7,656.8,210.1,657.1z M203.8,602.5c-0.4-15.1-15.9-15.3-19-1.6C182.7,614.6,203.4,615.8,203.8,602.5z
		 M187.3,635.5c0.5-12.4-21.7-19.5-25.1-5.3C157.9,649.2,186.6,658.6,187.3,635.5z"/>
	<path class="st0" d="M253,739c-34.8,2.2-69.2,0.4-103.9-0.2c2-22.1,5.4-46.1,18.3-64.8c22.1,13,43.4,10.8,64.5-2.8
		C247.4,690.2,249.5,715.5,253,739z"/>
	<path class="st0" d="M101.7,256.3c-18.2-15.2-32.9-33.2-48.4-50.9c61.7-5.2,53.5,41.4,50.4-30c11.5,5,19.7,15,28.9,23.2
		c2.1,2.8,4.8,2.1,4.7-1.6c1.7-14.4,11.5-26.4,22.4-35.3c1.9,19.4,4.8,39.4,9.7,58.6C147.4,233.8,125.1,245.9,101.7,256.3z"/>
	<path class="st0" d="M236.6,478.1c-2.2-8.6-10.4-10.4-17.5-13c-2.6-1.2-6.1,0.7-8.3-1.5c-3.4-3.1-7.3-5.5-11.7-6.7
		c-1.2-0.3-1.8-1-2.4-2c-2.2-4-5.4-7.4-9.1-10c-1.8-1.3-2.8-2.7-2.8-5.3c13-4.4,25-11.2,34-21.6c1.1-1.1,2.2-1.9,3.7-2.3
		c3.8-0.5,7.8-3,11.6-2c14.4,6.8,29.7,8.3,45.3,7.9c0.5,3.3,0.6,6.7,1.2,10.1c0.2,1.1,0.1,1.9-0.5,2.8c-2.3,3.5-3.8,7.3-4.2,11.5
		c-0.1,3.1-5,3.4-7.6,8.9c-2.8,5.7-7.6,10.8-4.4,17.6C253.2,466.6,244.5,469.5,236.6,478.1z"/>
	<path class="st0" d="M151.5,610.6c-14.5-14.8-27.2-30.8-40.6-47.2c10.7,2.4,20.2,7.3,30.3,11.4c2.2,0.3,3.2-1.1,2.3-3.2
		c-1.9-4.7-3.9-9.3-5.7-14c-1.8-5-3.4-10.1-5.3-15.7c9.5,5.1,18.8,9.9,28.1,15.2c1,0.6,2,1.3,3,0.5c1-0.8,1.6-1.9,1.3-3.4
		c-2.3-10.1-4.1-19.2-5.4-29.8c6.3,5.9,11.4,12.2,17.4,18.3c1.1,1.2,2.3,2.3,3.6,3.3c1.7,1,3.9,0.6,3.3-1.9
		c-0.9-10-2.2-18.9-1.8-29.1c9.6,18.8,17.4,37.8,23.6,57.6C188.2,586.1,169.7,597.6,151.5,610.6z M200.4,569c-0.7-7-9.9-4.9-10,1.3
		C190.6,576.3,200.8,574.7,200.4,569z M163.4,587.4c-5.6,0.1-7.9,9.8-0.7,9.7C168.9,597.3,169.9,587.5,163.4,587.4z M180.2,576.3
		c0.4,6.2,9,6.7,9.3-0.1C189.8,570.2,180.2,570.7,180.2,576.3z M179.9,583.1c-0.2-5.5-9.5-5.1-9.2,0.7
		C170.8,590.4,180.1,588.9,179.9,583.1z M157.1,598.8c0-5.8-9.6-5-9.2,0.6C148.3,605.7,157.3,605.6,157.1,598.8z"/>
	<path class="st0" d="M157.4,267.6c-26.8,13-53.9,25.3-80.4,39.5c14.6-44.6,43.1-51.7,79.4-72.4c20.6-10,43.4-15.4,65.6-20.7
		c-8.2,6.2-10.8,16.2-9,25.7c-5.8,2.7-11.4,5.2-17.2,7.9C181.4,226.6,152.9,245.4,157.4,267.6z"/>
	<path class="st0" d="M121,410.3c-2.7,3.4-4.1,7.3-4,11.5c-0.2,6.3,8.2,6.5,8.3,0.2c0.4-3.2,1.4-6,2.3-9.2c4.7,1.4,9.6,2.9,14.6,4.5
		c0.4,5.5,6.3,7.1,8.7,1.9c5.7,0.8,11.1,1.5,16.3,2.2c0.9,2.8,1.6,5.3,2.6,7.7c2.3,4.9,9.6,1.6,7.4-3.5c-0.4-1.1-0.8-2.2-1.3-3.7
		c12.8,0.2,25.2-0.6,37.7-2.3c-20,18.8-49.9,25.5-76.3,18.4c-23.9-5-87.5-35-64-66c1.6,2.8,4.6,5.2,4.8,8.3c0.1,3.5,0.9,4.5,4.2,5
		c0.7,0.1,1.5,0.5,2.1,0.9c4.1,3.5,8.4,6.7,12.2,10.5c-14.3,9.1-4.7,18.3-0.1,12.1c1.5-3.3,4.8-4.6,5.8-8.2
		C108.6,403.8,114.8,407,121,410.3z"/>
	<path class="st0" d="M262.6,402.1c4.4-2.6,10.3-3.9,12.8-8.9c2.4,2.4,3.5,4.6,4,7.2c0.7,5.8,9.4,4.2,8.2-1.5
		c-0.6-3.9-2.1-7.3-5.1-10.3c3.1-3.2,6.2-6.2,9.2-9.5c3-3.3,4.4-7.5,7.3-11.2c10,9.1,14.6,26.2,4.8,37
		c-15.3,19.5-43.9,14.9-64.7,7.6c5.6-2.2,9.8-3.9,15.1-6.1c1.5,1.8,3,3.5,5.6,2.6C263,407.9,262.5,405,262.6,402.1z M303.6,390.7
		c-0.2-4-3.2-12.4-8.5-9.7c-4.2,2.3-0.4,7.5,0.4,10.9C296.9,397.1,303.9,396.1,303.6,390.7z"/>
	<path class="st0" d="M320.2,231.2c-0.1,7.3-4,12.1-10.4,15C291,253.7,277.4,216,285,202c2.2-5,13.9-2.5,17.4,0.1
		C312.9,208.7,319.1,218.8,320.2,231.2z M313.3,220.4c0.3-7.1-9.1-7-9.2-0.2C303.7,226.6,313.5,227.3,313.3,220.4z M299.4,223.9
		c0.4-7.1-9.2-6.9-9.2-0.2C289.9,230.1,299.5,230.8,299.4,223.9z"/>
	<path class="st0" d="M244.7,573.8c23.9-0.5,28.3,33.5,6,28.5C241.5,600.4,230,573.9,244.7,573.8z M259.3,586.5
		c0.1-4.6-6.4-4.1-6,0.3C253.4,590.9,259.7,590.9,259.3,586.5z M249.9,588.9c0.1-4.6-6.3-4-5.9,0.3
		C244,593.3,250.2,593.4,249.9,588.9z"/>
	<path class="st0" d="M191.7,250.3c-1.3,1.3-3.9,1.8-2.8,4.1c1.1,2.2,2.9,0.8,4.7,0.4c3.4,12-5.4,25-17.9,25.5
		c-4.2,0.3-7.6-1.5-10.2-4.8c-11.6-14.1,1.8-39.1,20-31C188.5,245.7,190.1,247.3,191.7,250.3z M165.3,259.3
		c-1.9,16.1,27.5,19,24.4,1.8C187.5,248.6,165.3,243,165.3,259.3z"/>
	<path class="st0" d="M218.5,242c1.4-0.8,3.4-1,2.7-2.9c-0.8-1.7-2.5-0.6-4-0.4c-4.2-13.7,8.4-29.2,22.7-23.7
		c3.2,1.1,5.7,3.1,7.3,6.1C258.9,240.9,228.3,265,218.5,242z M244.8,233.1c0.1-10.2-13.5-18.3-21.6-9.8
		C210.5,238,244.6,257.1,244.8,233.1z"/>
	<path class="st0" d="M261.3,497.9c0.7,8.2-10.2,12.4-12.9,3.8c-0.4-2.6-0.7-5.2-1.1-7.8c-0.2-1.4,0.3-2.5,1.6-3.2
		c4.2-2.5,4.4-2.6,8.7,0.1C261.2,493.1,261.6,493.8,261.3,497.9z"/>
	<path class="st0" d="M213.6,482.3c4.3-5.2,4.5-6.1,2.8-12.1c3.5-0.2,7.9,2.9,11.3,4.2c5.5,2.6,5,11-1.6,11.4
		C223,486.1,217.5,484.8,213.6,482.3z"/>
	<path class="st0" d="M275.9,454.4c1.1,5.1,4.3,7.3,9.6,7.3c-2,4.9-4.4,8.9-9.3,10.8c-4,2-8.6-2-7.6-6.1c1.9-4,4.2-7.7,6.4-11.6
		C275.1,454.7,275.3,454.7,275.9,454.4z"/>
	<path class="st0" d="M235.1,487.5c11.8,6.2,9.5,2.5,10.9,15.5c-3.3,1.7-6.8,2.4-10.8,2.6C235,499.7,235.1,494,235.1,487.5z"/>
	<path class="st0" d="M263.3,491.9c2.7-1.3,5.4-2.6,8.6-4c0,6.3,0,12,0,17.7c-3.5,0-5.9-2.1-8.6-3.4
		C263.3,498.8,263.3,495.5,263.3,491.9z"/>
	<path class="st0" d="M270.2,485.9c-3.1,1.5-5.9,2.9-8.9,4.4c-9.4-4.9-6-5-6.6-14.4C256.6,476.4,266.1,482.4,270.2,485.9z"/>
	<path class="st0" d="M252.3,475.4c-0.3,3,0.9,9.3-0.8,11.4c-6.3,4.6-8,2.4-14.4-1c5-3.7,9.7-7.2,14.5-10.7
		C251.8,475.2,252.1,475.3,252.3,475.4z"/>
	<path class="st0" d="M285.3,429.2c0-3.2,0-5.8,0-8.8c3.6-0.6,7-1.3,10.4-1.9c1.5,2.5,2,8.4,1,12.5
		C293.5,427.5,289.8,426.6,285.3,429.2z"/>
	<path class="st0" d="M185.4,465.3c-3.7-3.3-6.9-5.9-9.4-9.9c3.9-0.9,6.5-3.2,8.4-6.7c2.6,2.6,4.9,5,7.5,7.6
		C187.6,457.8,185.9,460.7,185.4,465.3z"/>
	<path class="st0" d="M203.1,477.5c-3.8-1.1-6.3-4-9.3-6.9c3-2.1,5-4.7,5.2-8.5c3.3,1.1,5.9,3,8.3,5.3
		C204.5,470.5,203.5,473.2,203.1,477.5z"/>
	<path class="st0" d="M237.2,508c2.8-0.8,5.4-1.4,8-2.2c1.2-0.5,2.1-0.1,3,0.7c5.7,1.4,5.4,7,4.6,11.5
		C250.7,517.4,240,510.6,237.2,508z"/>
	<path class="st0" d="M255.4,517.7c0-2.9,0-5.6,0-8.5c2.3-1.5,4.8-3.1,7.3-4.7c2.2,1,4.5,2.1,6.7,3.2
		C268.3,509.4,258.5,516.5,255.4,517.7z"/>
	<path class="st0" d="M283.7,438.8c3.6,1.4,6.5,2.5,9.8,3.8c0,3.3-1.1,6.7-3.2,10.4c-2-4-5.2-5.6-9.5-6.1
		C281.9,443.8,282.9,441.2,283.7,438.8z"/>
	<path class="st0" d="M169.4,448c-1.6-1.4-3-2.7-4.8-4.4c3.5-0.5,6.3-0.9,9.4-1.3C172.5,444.2,171.1,445.9,169.4,448z"/>
	<path class="st0" d="M211,471.9c1.8,3.3,1.5,4.3-1.3,5.7C208.5,474.9,208.6,474.1,211,471.9z"/>
	<path class="st0" d="M285.5,456.3c-3.4,0.2-4.1-0.5-4.5-3.8C283.8,452.4,284.6,453.1,285.5,456.3z"/>
	<path class="st0" d="M287.6,434.1c3.2-1.7,3.8-1.4,5.4,2.2C290.8,436.8,289.4,435.5,287.6,434.1z"/>
	<path class="st0" d="M193.4,461.5c0.1,2.1-0.6,3.4-2.1,4.4C190.7,463.1,190.7,463.1,193.4,461.5z"/>
	<path class="st0" d="M179.5,446.5c-0.8,2-2,3.1-4.4,3C176.2,447.6,177.2,446.4,179.5,446.5z"/>
	<path class="st0" d="M556.1,586.2c-34.1,0.7-68-0.9-102-0.5c-6.9-16.5-20-16-28.2-0.6c-30.1-0.7-60.9-1.3-92.1-2
		c2.7-52.2,3.9-122.2,47.4-158c35.5,30.9,95,36.8,129.2,0.9c7.7,6.4,13.8,13.9,19,22.5c-1.5,1.1-2.9,2.6-1.2,4.1
		C550.4,469.5,556.6,557.7,556.1,586.2z"/>
	<path class="st0" d="M380.5,336.7c2.7,0.4,5.2,1.8,7.5,0.4c1.1-0.9,0.8-2.2-0.6-2.9c-1.3-0.6-3-0.7-3.9-1.9c-1.6-2.4-1.6-2.4-4-0.6
		c-11.8-2.5-22.9-6.6-31.8-15.7c18.3-2.4,34.1-30.5,24.5-47c25.9,2.3,51.5,5.8,76.8,11.6c4.8,1,9.1,2.9,13.4,5.3
		c13.2,7.4,26.8,14.1,40.6,20.2c2.1,0.9,3.8,2.1,5.4,3.8c34.3,37.9,26,104.9-21.6,127.8c-28.3,15.5-63.9,8.5-90.7-7.1
		C363.3,412.1,360.8,366,380.5,336.7z M415.5,289.7c-6.6,4.2-7.1,10.5-6.6,17.1c-1.4,1.3-3.9,1.3-3.4,4.3c1.5-0.9,2.8-1.6,4-2.2
		c1.3,1.6,2.4,3,3.6,4.3c-0.4,1.4-0.8,2.7-1.3,4.2c2.6,0,2-2.4,3.5-3.2c1.7,0.1,3.7,0.2,5.5,0.2c0.4,1.3,0.8,2.4,1.2,3.8
		c2.6-1.2,0.1-3.2,1.4-4.5c11.1-6.5,13.5-12.5,8.1-21.3c0.7-1.1,1.6-2.3,2.3-3.6c0.7-1.1,2.9-1.4,2.1-3.6c-3.4,0.7-4.3,3.7-6.1,5.8
		c-8.2-3.6-2.6-4.9-4.7-11.2c-2.5,2.7-1.5,5.7-2.2,8.4c-1.8,0.2-3.7,0.3-5.9,0.6c-0.5-1.4-1-2.9-1.6-4.2c-0.6-1.3,0.1-3.3-2-4.1
		C412.2,284.1,414,286.8,415.5,289.7z M462.7,335c19.1-6.1,6.5-16.1,13.1-22.7c1.3-1.2,2.1-1.6,2.1-3.7c-3.2,1.1-4.5,3.5-5.8,5.4
		c-2.2-1.2-4.2-2.3-6.3-3.5c-0.9-2.4,1.6-4.8,0.6-7.9c-3,2.3-2.2,5.4-3,8c-1.8,0.4-3.5,0.8-5.5,1.2c-0.4-1.5-0.8-2.9-1.2-4.3
		c-0.4-1.4,0.5-3.3-1.7-4.2c-1.6,3.5,0.2,6.4,1.2,9.4c-5.5,3.6-9.7,10-7.7,16.7c-2.5,1.7-2.5,1.7-3.2,3.7c2.2,1.2,2.5-2.1,4.5-1.6
		c1,0.8,2.1,1.8,3.1,2.7c-0.3,1.6-1.8,2.7-0.6,4.8c1.2-1.5,1.8-2.5,2.6-4.1c1.9,0.2,3.7,0.4,5.4,0.6c0.2,3.9,0.2,3.9,2.2,4.1
		C462.7,338.1,462.7,336.6,462.7,335z M414.5,398.6c9.4,0,17.3-3.2,22.5-10.3c2.1-2.7-2.7-4.7-4.1-2.2c-11.1,14.8-39.7,7.8-40.7-9.2
		c-0.3-1.8-1.3-2.6-2.5-2.4c-1.2,0.1-1.7,1-1.4,3.1C389.6,390.5,402.1,398.9,414.5,398.6z M474,359.8c-27.3,0.7-26.1,42.7,1.7,35
		C492.2,389.6,495.6,361.6,474,359.8z"/>
	<path class="st0" d="M452.1,273.1c3.7-16.7,6.1-32.8,7.3-50.1c33.3,26.1,6,49,38.6,17.6c3-2.5,6-4.8,9.6-6.5
		c-1.7,62-7.1,21.2,43.7,24.9c-4.6,5.5-37.7,47.7-42.2,43.2C489.5,293.7,470.3,284.3,452.1,273.1z M508.4,293.8
		c12.1-1.3,7.4-16.4-3.8-13.2C496.7,283,501.4,294.3,508.4,293.8z M486.9,283.3c10.3,0.2,9-13.1,0.3-13.6
		C479.1,269.5,477.7,283.3,486.9,283.3z M468.8,273.3c11.3,0.3,6.4-16-2.6-12.7C458.8,263.5,461.4,273.3,468.8,273.3z"/>
	<path class="st0" d="M402.5,707.7c-11.2,10.8-34.3,3.1-46.7-2.6c-1.5-0.7-2.2-1.6-2.1-3.2c0.2-2.7,0.3-5.4,0.7-8.1
		c0.2-1.5,0.4-3.1,2.4-3.3c2-1.3,0-3.4-1-4.5c-0.6-0.9-1.5-1.1-2.6-0.5c-5.4,2.2-14-3.8-18.4-7.4c5.7-1.7,11.8-3.5,14.5-9.3
		c3.3-5.1,4.7-10.8,4.6-16.9c0.1-3.1-1.4-5.8-3.4-8.9c7.1,2,22.6,2.9,26.9,7c-6.1-0.8-12.3,4.2-12.2,10c1.9,14.8,23,4.4,15.9-7.4
		c2.2,0.7,7.3,4.2,10.5,7.5c-6.8,1-11.3,10.4-6.5,15.6c2.6,2.6,5.7,2.2,8.8,1c4.3-1.6,6.2-5,6.7-9.5c3.8,3.6,7.4,7,10.9,10.5
		c1.2,2.4,0.3,5.1,0.5,8.1c-9.4-5.6-21.4,1.6-18.5,12.6C394.5,703.4,397.7,706.1,402.5,707.7z M371.6,707c2.6,0.1,6.9-2.1,8.6-4.9
		c0.8-3.7-1.8-3.7-3.9-1.4c-5.2,4.8-12.3,3.1-14.7-4.6c-0.3-0.9-0.9-2-1.9-1.8c-1.1,0.4-1.1,1.8-0.9,2.8
		C359.7,702.7,364.9,707,371.6,707z"/>
	<path class="st0" d="M423.4,683.3c-23.9-22-57.1-59.2-93-48.2c-3.9-7.5-3.2-32.4-0.4-43.2c35.9,20.2,68.8,45.4,96.6,75.9
		C431.7,672.9,429.4,680.3,423.4,683.3z M428.5,673.7c-0.2-8.3-9.9-6.3-10.2,0.8C418.5,681.3,428.7,681.2,428.5,673.7z M348.4,629
		c2.6,0,4.7-5.5,0.8-5.6C345.9,623.4,344.6,628.9,348.4,629z M337.5,604.4c0.1-3.8-5.6-1.8-5.4,1
		C332.6,609.4,337.4,607.9,337.5,604.4z M364.4,620.9c-0.4-3.5-5.8-1.6-5.3,1.4C359.5,626.3,364.6,624,364.4,620.9z M340.5,616.5
		c0-3.8-5.4-1.9-5.4,0.9C335.4,621.3,340.4,619.9,340.5,616.5z M353.9,613.3c0.1-3.8-5.5-2-5.3,0.9
		C348.8,618.1,354,616.7,353.9,613.3z"/>
	<path class="st0" d="M405.9,750.7c-0.6-1.8,0-5.7-2.8-5.5c-1,0.1-1.5,0.9-1.5,2c-0.1,1.6-0.2,3.2-0.3,5.2
		c-23.7,6.8-53.6-3.3-47.9-32.8c15.6,8.9,35.3,12.3,52.8,6.1c6.5-2.2,10.4-4.8,14.2-10.6c0.7,1.1,1.2,2,2,3.2
		c-2.6-0.5-5.8,1.1-3.2,3.4c2.1,1.4,5.8,0.9,5.9,4.1C427.8,738,417.5,748.1,405.9,750.7z"/>
	<path class="st0" d="M336.9,292.1c-0.7-11.9,10-20.3,20.5-23.3c8.6-2.3,13.7,1.5,13.7,10.3c-0.1,12.7-7.2,24.8-18,31.4
		C342.2,316.7,336.8,300.5,336.9,292.1z M356.8,289.7c-0.2,7,9.6,6.6,9.7,0.3C366.6,283.2,356.5,282.4,356.8,289.7z M345.9,292.4
		c6.8,0.2,6.4-10.2,0.2-10.4C339.9,281.5,339.9,292.5,345.9,292.4z"/>
	<path class="st0" d="M429.7,640.9c10.2-26.5-5-36.3,0.8-55.3c2-6.9,10.5-11.6,16.1-5.4c9.4,11.9,3.6,29.7-1.9,42.2
		c-5.1,6.1-10.6,11.9-14.8,18.7C429.9,641,429.8,641,429.7,640.9z"/>
	<path class="st0" d="M416.3,682.5c1.6,1.7,2.7,2.8,3.8,4c2,2.1,2.6,2.2,5.2,0.6c3.3-2,5.9-4.6,7.7-8c-4.2,12.8-11.9,32.1-22.7,40.3
		c-16.8,9.1-52.3,7.4-60.5-12.6C380.1,721.8,413.4,725.4,416.3,682.5z"/>
	<path class="st0" d="M434.4,641.4c9.3-13.8,22.2-28.1,39.3-31.2c10.6-2.8,25,10.9,12,18.4c-18,8.4-31.7-3.4-51,13.1
		C434.6,641.6,434.5,641.5,434.4,641.4z"/>
	<path class="st0" d="M326.3,662.8c0.6-8.5,4.7-14.9,12.6-18.9c5.7-2.7,11.1,4.4,11.1,9.6c0.4,8.8-5.3,19.5-14.9,20.1
		C328.7,673.9,326.2,668.7,326.3,662.8z M345.3,659.5c-0.2-4.4-5.9-4.3-5.9,0.1C339.2,663.9,345.7,663.7,345.3,659.5z M336.1,657.1
		c-0.2-4.5-6.3-4.2-5.9,0.4C330.3,661.6,336.5,661,336.1,657.1z"/>
	<path class="st0" d="M399.5,634.7c12.5,4,24.1,9.6,32.5,20.2c6.9,7.1,4.6,13.6,1.2,21.9c0.6-4.1,0-8-3-11.2
		c-9.7-10.9-20.2-20.8-31.1-30.4C399.2,635,399.4,634.9,399.5,634.7z"/>
	<path class="st0" d="M326.3,705.3c4.2-0.7,8-1.3,11.7-1.9c2.4-0.3,2.9,0.1,3,2.5c0.2,5.7-0.5,11.4-1.1,17.4
		c-4.3,0.2-8.4,0.4-12.9,0.7C326.8,717.7,326.6,711.6,326.3,705.3z"/>
	<path class="st0" d="M310.5,705.8c4.4,0,8.5,0,13,0c0.8,5.9,0.6,11.9,0.7,18.1c-4.9,0.5-9.5,0.2-14.5-0.2
		C309.6,717.7,309.2,711.8,310.5,705.8z"/>
	<path class="st0" d="M410.3,686.7c-0.4,4.2-5.1,23.2-11,18.3c-4.4-2.6-6.2-9.4-3.9-14.2C398,685.3,405.2,683.3,410.3,686.7z"/>
	<path class="st0" d="M324.3,726.8c-0.2,7-0.5,13.6-0.7,20.3c-10.3,0-13.1-12.1-13.8-20.3C314.6,726.8,319.2,726.8,324.3,726.8z"/>
	<path class="st0" d="M327,726.8c4.2-0.2,8.2-0.5,12.5-0.7c-1,8.6-3.1,19.7-13.3,21.1C326.5,740.3,326.8,733.7,327,726.8z"/>
	<path class="st0" d="M378.6,657.8c0.1,3.3-2.9,6.1-6.2,5.9C361.4,661.5,377.4,644.9,378.6,657.8z M376.1,658.1
		c-0.1-3.8-6.2-3.2-6.1,0.5C370,662.8,376.3,661.9,376.1,658.1z"/>
	<path class="st0" d="M396.7,669.1c-1.1,4-10.5,8-10.1,1.2c0.3-2.3,0.9-5.8,3.9-6C393.6,664.1,396.3,665.6,396.7,669.1z M395,668.4
		c-0.1-3.8-6.2-3.1-6.1,0.5C389,673.1,395.1,672.2,395,668.4z"/>
	<path class="st0" d="M517.9,133c-0.5-13.7,6.2-25.8,19.6-28.9c22.6-1.8,39.1,21.9,35.7,43c-2.5,14.6-19.1,21.5-32.4,17.6
		C525.7,161.5,518.1,147.9,517.9,133z"/>
	<path class="st0" d="M514.5,132.1c1.6,23.4,12.2,35.5,36.1,36.8c1.5,19.7-19.9,29.2-36.4,22.4C489.3,183.7,487.3,137.9,514.5,132.1
		z"/>
	<path class="st0" d="M8.3,60.9c-0.3-12.5,6.9-25,19.6-27.8c22.2-1.9,38.8,21.4,35.8,42.3c-2.1,14.8-18.7,22.1-32.1,18.2
		C15.6,90.4,8.6,76.4,8.3,60.9z"/>
	<path class="st0" d="M68,108.8c-4.7-1.2-12.2-0.8-12.8-7.2c-0.3-3.1,0.8-5.5,3.4-7.2C72.1,86.8,84.7,108,68,108.8z"/>
	<path class="st0" d="M359.3,86.1c-0.1,18.8-19.4,28.8-36.1,22.2c-17.8-4.9-23.4-27.1-18.3-43.1c9.8-28.8,45.5-15.8,51.8,8.5
		C357.9,77.7,358.4,81.9,359.3,86.1z"/>
	<path class="st0" d="M2.7,146.8c0.6-2.6,0.9-5.4,1.7-7.9c2.1-6.2,8.9-11.1,15.6-9.5c20.9,3.5,27.3,40.7,0.7,38.9
		C8,166.9,3.9,158.4,2.7,146.8z"/>
	<path class="st0" d="M161.3,75.9c-2.6-0.6-5.4-1-7.8-2c-9.8-3.4-8.4-16.7,0.8-20.1C172.3,48,186.8,74.7,161.3,75.9z"/>
	<path class="st0" d="M502.1,121.2c-2.5-0.5-5.6-0.9-8.5-1.9c-6.2-2.2-5.1-9.7-1.5-12.2c4.2-3.5,9.5-1.8,13.8,0.6
		c2.6,1.4,3.7,3.9,4,6.7C510.4,119.4,506.5,120.9,502.1,121.2z"/>
	<path class="st0" d="M444.8,33.6c-4.1-0.9-11.4-1.3-11.6-7.2c-0.2-3.2,1.1-5.7,3.9-7.3c6.7-3.9,18.4,1.5,16.5,10.2
		C452.8,33.7,448.6,33.4,444.8,33.6z"/>
	<path class="st0" d="M376.4,117.6c-2.6-0.5-5.6-1-8.4-1.8c-5.8-1.4-5.9-9.9-1-12.6c6.4-4.1,18,0.6,17.1,9.1
		C383.9,116.5,380.1,117.1,376.4,117.6z"/>
	<path class="st0" d="M468.9,146.6c3.1-0.4,11.4-0.2,8.8,4.2C474.4,156.8,470.8,150.2,468.9,146.6z"/>
	<path class="st0" d="M400,22.6c3.2-0.3,11.8,0.1,8.8,4.5C405.3,32.9,402,26,400,22.6z"/>
	<path class="st0" d="M242.8,73.3c3-0.3,11.4,0.1,8.2,4.7C248,83.2,243.5,77,242.8,73.3z"/>
	<path class="st0" d="M391.1,2.4c1.6,2.7,2,5.4,1.1,9C390.3,9.2,386.2,3.3,391.1,2.4z"/>
	<path class="st0" d="M393.7,26.9c1.6,5.6,1.1,7.4-2.3,8.9C390.8,32.3,392.3,29.6,393.7,26.9z"/>
	<path class="st0" d="M460,126.1c1.7,2.8,1.6,5.8,1.5,8.8C458.8,133.2,454.9,127,460,126.1z"/>
	<path class="st0" d="M233.4,52.7c1.8,3,1.7,6,1.5,9.5c-2.1-2.2-3.3-4.3-3.8-6.7C230.9,54.4,231.2,54.1,233.4,52.7z"/>
	<path class="st0" d="M233.4,86.5c0.1-3.5,1.1-6.4,2.5-9.3C238,81.3,237.2,85,233.4,86.5z"/>
	<path class="st0" d="M250.6,60.9c2.4,5.7-3.2,6.1-7.1,5.6C245.4,64,247.4,61.8,250.6,60.9z"/>
	<path class="st0" d="M460,159.6c-0.2-3.5,1.1-6.2,2.3-9.4C464.5,154.9,463.7,158.4,460,159.6z"/>
	<path class="st0" d="M387.5,18.8c-2.5,0-8.7,2.4-8.3-2c0.9-3.3,6.7,0.1,8.5,1.1C387.6,18.2,387.5,18.5,387.5,18.8z"/>
	<path class="st0" d="M229.9,69.3c-2.5,0.2-8.6,2.6-8.5-1.8C222.3,64,228.3,67.4,229.9,69.3z"/>
	<path class="st0" d="M408.4,10.4c1.9,5.6-3.3,5.6-7.2,5.8C402.6,13.3,405.3,11.2,408.4,10.4z"/>
	<path class="st0" d="M469.9,139.4c2-2.2,4-4.4,6.9-5.3c3.3,5.2-3.1,5.8-6.7,6C470.1,139.9,470,139.6,469.9,139.4z"/>
	<path class="st0" d="M457.2,142.4c-3.2,0.3-5.2,1.4-7.9,0.7c-2.4-0.5-1.7-4.3,0.7-3.8C452.5,139.6,454.6,140.6,457.2,142.4z"/>
	<path class="st0" d="M188.6,339.6c-2.8,29-41.6,14.8-33.5-9.5C161.8,311.2,190.1,320.7,188.6,339.6z"/>
	<path class="st0" d="M221,588.8c3.8,5.4-7.4,11.5-10.2,5.9c-4.1-7.9,4.9-13.7,9.9-6.5c-1.7-1.5-4.8-1.9-5.8,0.6
		C213.9,593.8,221.6,594.8,221,588.8z"/>
	<path class="st0" d="M200.6,602.1c-0.3,8.4-12.9,8.9-12.8-0.1C188.5,592.6,200.3,592.3,200.6,602.1z M196.5,597.8
		c-4.4-0.2-3.7,5.7,0,6C200.6,604.1,200.4,597.7,196.5,597.8z"/>
	<path class="st0" d="M163.4,633.3c1.3-19.6,30.8-5.4,20.2,9.8C177.2,653.7,162.3,643.8,163.4,633.3z"/>
	<path class="st0" d="M195,572.5c-5.1,0-2.4-6.5,1-6.3C200.2,566.7,199,572.7,195,572.5z"/>
	<path class="st0" d="M162.8,595.4c-5,0.3-2.8-6.3,0.7-6.3C167.5,589.2,166.8,595.6,162.8,595.4z"/>
	<path class="st0" d="M185.2,573.5c4.2,0,2.8,6.3-0.4,6C181,579,180.9,573.4,185.2,573.5z"/>
	<path class="st0" d="M174.7,586.5c-3.7-0.4-2.9-6,0.9-5.7C179.9,581.1,178.2,586.8,174.7,586.5z"/>
	<path class="st0" d="M152.8,596.5c4.3-0.1,2.9,6.1-0.3,6C148.8,602.1,148.4,596.3,152.8,596.5z"/>
	<path class="st0" d="M178.8,268.7c-12.9-1.2-11-17.3-1.2-15.2c8.2,1.4,12.8,15.6,1.2,14.9C178.9,268.4,178.8,268.5,178.8,268.7z
		 M179.4,257.1c-4.6-0.1-3.6,6.1,0.2,6.2C183.7,263.3,183.3,257,179.4,257.1z"/>
	<path class="st0" d="M240.6,233.6c1,9.5-10.3,7-13.9,1.6c-4.1-5.4,0.6-12.3,7.1-10.9C238.1,225.2,240.6,228.6,240.6,233.6z
		 M234.9,234.5c4.3,0,3.8-6.1-0.2-6.1C230.2,228.4,231,234.3,234.9,234.5z"/>
	<path class="st0" d="M412.3,302.5c1.3-4.5,3-11.3,9.1-9.7c5.1,0.9,10.5,5,7.4,10.6c-2.1,3.9-5.5,6.1-9.8,6.8
		c-4.8,1-6.1-3.7-6.3-7.5C412.5,302.6,412.4,302.5,412.3,302.5z M414.2,301.5c0,4.5,6.4,3.6,6.7-0.3
		C420.9,297.2,414.1,297.3,414.2,301.5z"/>
	<path class="st0" d="M459.4,331c-12.5,0.2-6.6-15.2,1.8-16.5C471.6,312.6,473.8,330.8,459.4,331z M454.8,322.9
		c0,4.5,6.5,3.6,6.7-0.3C461.6,318.6,454.5,318.7,454.8,322.9z"/>
	<path class="st0" d="M456.3,379.9c-0.2-18.7,29.4-25.4,30.5-3.9C486.3,394.4,458.6,401.5,456.3,379.9z"/>
	<path class="st0" d="M513.8,286.7c-0.3,8.2-11.5,6.5-11.6-0.7C502.3,279.6,513.4,281.2,513.8,286.7z"/>
	<path class="st0" d="M487,281.6c-7,0.2-5.9-10.4,0.1-10.2C493.5,271.7,494.9,281.8,487,281.6z"/>
	<path class="st0" d="M473.7,267.5c0.3,6.5-10.3,4.7-10.3-0.7C463.9,260.2,473.6,260.4,473.7,267.5z"/>
	<path class="st0" d="M426.2,673.9c0.2,3.4-5.1,3.2-5.1,0.4C421.1,671.2,426.2,670.3,426.2,673.9z"/>
</g>
</svg>
