<?xml version="1.0" encoding="utf-8"?>
<!-- Generator: Adobe Illustrator 26.0.0, SVG Export Plug-In . SVG Version: 6.00 Build 0)  -->
<svg version="1.1" id="Capa_1" xmlns="http://www.w3.org/2000/svg" xmlns:xlink="http://www.w3.org/1999/xlink" x="0px" y="0px"
	 viewBox="0 0 595.3 628" style="enable-background:new 0 0 595.3 628;" xml:space="preserve">
<style type="text/css">
	.st0{fill:#FFFFFF;}
</style>
<g>
	<path d="M595.1,536.3c-1.3-8.6-12.5-13.1-18.8-6.5c-7.6,6.5-17.7,16-28.5,11.2c9.9-13.4,21.8-43.5-2.4-48.4
		c-27.7-4.5-42.1,17.9-31.8,42.8c-16.8-2.6-27.5-12.8-36.8-25.2c22-24.4,29.2-58,22.1-89.7c13.3,3.8,26,7,39.3,10.3
		c0.7,0.2,1.5,0.8,1.9,1.4c5.8,8.5,5.6,17.9,5.7,27.8c0.4,12.9,19.2,13.9,20.6,1c0.7-7.2,0.4-14.2-0.6-21.5c4.7,0.9,9.2,1.8,14,1.6
		c10.3,0.7,16.8-15.4,6-19.5c-7.3-1.6-14.1-1.4-21.6-2.7c4.8-3.4,9.2-5.7,14-8.9c7.9-4.8,4.8-19.4-5-18.9
		c-11.2,2.7-21.1,9.5-29.5,17.3c-1.2,1.2-2.2,1.3-3.6,0.8c-15.3-4.8-31.1-8.1-46.6-12.2c-1.5-0.4-2.6-0.8-3.2-2.4
		c-8-19.5-19.7-36.7-32.9-53c45.4-66.8,35.2-165.1-28-217.1c15.4-22.7,42.6-54.6,30.2-83.3c-3.4-7.1-11.3-11-19-11.1
		c-32.5-0.6-51.8,32-62.5,58.7c-7.8-3.7-15.4-7.4-23.2-11.2c32.1-84.3-42.5-113-53.3-19.7C236.1,38,168,25.3,99.7,19.9
		C36.7,21.5-10.7,92.1,2.1,151.6c19.1,56.2,74.4,92.3,130.3,104.9c-8.7,30.3-10.8,63.6,3.9,92.4c0.6,1.2,0.7,2.3,0.2,3.6
		c-21,61.1,10.8,29-75.3,56.7c-1.3,0.4-2.1,0.2-3.1-0.8c-8-7.6-17.5-13.5-27.9-17.1c-10.7-2.7-15.6,13.7-6.2,19.1
		c4.5,2.7,8.8,5.2,13.2,8.3c-6.8,1.7-13.9,1.2-20.7,2.7c-11.1,2.9-5.7,19.5,4.2,19.5c5.2,0.3,10-0.5,15.2-1.4
		c-1,7.5-1.8,14.7-0.5,22.2c2.4,12.7,20.6,10.5,20.6-2.1c0.1-10.4-0.3-17.5,5.2-26.8c0.6-1.2,1.5-1.8,2.9-2.1
		c20.1-4.5,39.7-10.4,59.3-16.5c-5.4,67.9,33.3,127.5,98.1,149.4c0.4,12,0.9,23.7,1.3,35.7c-17.3-1.1-38.7-9.8-54.9-2.7
		c-10.8,4.7-11.3,22-0.9,27.4c1.8,1,3.8,1.8,5.7,2.4c17.8,4.2,36.4-0.5,54.5-1.1c5.2-0.5,10.4-1.6,15.6-2.4c1.5-0.2,2.7-0.8,3.7-2.1
		c3.8-5.1,3.1-13.1-1.5-17.1c-0.1-11.1-0.3-22.1-0.4-33.2c41.4,9.4,82.5,7.6,123.5-1.2c0.9,7.2,1.5,27.6,1,29.8
		c-15.8-1.4-31.6-7.1-47.5-4.9c-17,1.8-20.5,21.8-8.3,29.3c2.6,1.4,5.4,2.5,8.3,3.3c5.3,1.4,10.8,1.4,16.3,1
		c17.1-1,34.3-2.1,51.2-4.9c8.5-1.7,8.2-14.7,2.8-19.4c-0.2-13.6-0.5-27-0.7-40.6c26.5-8.6,51.3-20.8,72.5-39.6
		c13.4,19.6,36.7,37.2,61.7,32c1.8-0.4,3-0.2,4.5,0.9c20.1,15.8,49,6.4,63.2-12.8C594.9,541.5,595.6,539,595.1,536.3z M541.8,516
		c-1.8,5.2-5.8,8.9-9.5,13.2C518,509.4,543.4,504,541.8,516z"/>
	<path class="st0" d="M152.2,260c6.2,1.3,12-1,11.7-8c-0.1-3.7-1.4-7-4.9-8.9c-1.1-0.6-1.5-1.4-1.9-2.5c-3.1-9-14.9-11-18.3-0.9
		c-32.8-5.8-61.5-19.7-86.2-42.1C123.8,204,175.4,89.9,130.1,38c22.5,0.2,151.5,28.4,171.1,38.2c0.1,2.6,0.1,5.3,0.3,8.1
		c0.3,6.5,10.3,7.7,12.6,1.9c0.7-1.9,0.6-3.2,0.9-5.5c5.7,2.2,11.1,4.2,16.6,6.4c-0.8,2.2-1.5,4-2.1,5.9c-3,7.9,8.3,16.5,13.9,9.1
		c1.8-2.4,3.3-5,4.9-7.5c3.5,0.9,21.7,10,25.3,12.7c-0.5,4.1-1.5,10.4,3.6,11.6c4,1.3,7.3-0.8,8.7-4.6c5.6,3.4,10.9,7,16.2,11
		c-4.3,3.1-7.9,7.3-4.7,12.6c2.1,3.8,5.8,5.4,9.6,4.1c3.4-1.2,6.4-3,9.5-4.9c89.6,70.6,53.1,217.8-51,252.8
		C275.2,428.4,104.1,386.6,152.2,260z M283.2,166.5c1.3,42.7,55,38.5,73.5,9.8C388.7,121,290.2,84.1,283.2,166.5z M236.1,150.1
		c54.4-2.8,61.5-87.8,2.2-79.9C193.3,79.2,180.8,147.6,236.1,150.1z M326.4,281.5c4.8,84.3,98.6,73.4,112.2-0.4
		C446.6,208.2,327.2,202.9,326.4,281.5z M225.3,336.7c2.8-0.3,6.4-0.6,9.9-1.3c11.1-1,46.6-21.3,33.3-34.1c-5-4.6-10.8-0.7-14.9,3.4
		c-5.3,4.5-10.9,8.8-17.3,11.7c-16,7.7-35.8,2.1-45.4-12.8c-4.7-6.6-7.9-13.8-10.6-21.4c-0.9-4.1-4.3-7.8-8.8-5.9
		c-2.9,1.2-4.6,4.1-4.1,7.5C171.4,313.2,194.6,336.3,225.3,336.7z"/>
	<path class="st0" d="M389.5,542.5c-0.8-7-1.9-13.5-2.9-20.4c-0.7-8.9-16.3-10.2-16.8,0.6c-0.7,8.7-0.9,17-1.3,25.8
		c-130.7,34.8-264.2-25.8-218.9-178.8c73.8,78.5,227.5,67.3,295.9-13.4c9.1,10.8,16.5,22,22.7,34.4c-4.1-0.3-7.5-1.6-11.5-2.2
		c-11.5-1.7-13.6,14.7-3.6,17.1c7.3,2.4,14.6,4.9,22,7.3c1.6,0.3,2.5,1.2,2.8,2.8C496.6,480.7,447.6,525.8,389.5,542.5z"/>
	<path class="st0" d="M16.9,131.7c0-42.2,28.3-82,68.7-94.8c5.9-2.2,16.5,5.1,21.5,8.4c22.5,16,25.5,46.8,17.7,71.5
		c-7.7,25-23.8,49.6-48.7,60C40.5,188.5,15.2,169,16.9,131.7z M34.6,102.5c0.4,2.3,0.6,4.3,1.2,6.2c2.8,12.4,21.4,12,25.5,1.3
		C70,87.9,37.6,75.2,34.6,102.5z M91.4,98.1c-17,0-17.6,31.2-0.4,31.1C111.2,130.3,110.6,98.1,91.4,98.1z"/>
	<path class="st0" d="M415.7,112.4c-8.1-5.4-16-10.7-24.2-16.2c8.8-20.7,22.2-43.2,45.2-49.6c10.9-2.6,9.8,10.6,8.4,17.6
		C441.3,83.1,428.8,99,415.7,112.4z"/>
	<path class="st0" d="M338.7,70.9c-7.5-2.2-14.6-5.4-22.3-8.1c2.3-15.1,5.8-34.5,18.5-44.4c7.2-4.2,9.6,7.2,10.3,12.3
		C346.9,44.5,343.2,58,338.7,70.9z"/>
	<path class="st0" d="M299.1,166.3c0.9-16.1,7.4-36.3,26.9-29.8c14.8,1.9,26,16.8,17,30.6c-7,10-19.7,14.2-31.5,14.5
		C302.4,182.2,299.5,173.6,299.1,166.3z M319.4,142c-21.3,0.3-18.8,33,2.7,27.2C336.9,163.7,337.2,142.2,319.4,142z"/>
	<path class="st0" d="M215.1,114.8c-0.3-14.6,11.5-26.4,24.6-31c17.7-6.3,25.9,17.1,21.4,30.8C256.2,136.3,214.2,142.8,215.1,114.8z
		 M221.6,106.5c1.2,21.1,29.3,14.9,28.8-2.4C248.9,86.4,221.7,89.7,221.6,106.5z"/>
	<path class="st0" d="M384.7,229.9c64.5,3.7,59.8,80.1,8.1,101.4C324.7,355.3,305.6,232.1,384.7,229.9z"/>
</g>
</svg>
