<?xml version="1.0" encoding="utf-8"?>
<!-- Generator: Adobe Illustrator 26.0.0, SVG Export Plug-In . SVG Version: 6.00 Build 0)  -->
<svg version="1.1" id="Capa_1" xmlns="http://www.w3.org/2000/svg" xmlns:xlink="http://www.w3.org/1999/xlink" x="0px" y="0px"
	 viewBox="0 0 595.3 603.6" style="enable-background:new 0 0 595.3 603.6;" xml:space="preserve">
<style type="text/css">
	.st0{fill:#FFFFFF;}
</style>
<g>
	<path d="M595.2,516.5c-0.4-8.2-11.2-13.4-17.4-7.5c-7.7,6.6-17,15.9-28,11.2c9-12.6,21.2-40-0.8-46c-26.2-5.7-42.1,16.1-31.7,40.1
		c-13.3,0.3-29.4-14.2-34.9-23.9c21.6-23.4,23.5-57.6,19-87.7c-3.9-26-18.8-48.7-34.4-69.3c34.4-56.7,30.2-131.4-12.7-182.6
		c17.5-16.3,44.7-42.4,42.7-68.1c-1.1-9.7-6.3-16-15.8-18.3c-31-7.5-55.3,21.4-69.7,45.2c-6.7-4.8-13.3-9.4-20-14.1
		c43.5-74.6-22.2-113.2-47.2-27C282.7,39.1,217.9,12.3,150.9,0C94.4-1.5,44.7,54.2,46.8,109.4c8.9,56.4,55.7,99.1,106.6,120.1
		c-18.2,34.7-22.2,78.3,0.2,112c1.1,1.8,1.3,3.3,0.6,5.2c-6.3,18.9-9.3,38.4-10.3,58.4c-5.5,1.5-10.9,3-16.3,4.5
		c-4.4-8.4-8.8-16.6-13.1-25c7-2.8,13.5-5.4,20.4-8.1c2.4-1,2.8-1.5,2.4-4c-4.8-14.2-13.3-26.5-21.6-39.1c4.3-3.9,9.4-8,11.3-13.7
		c2.5-5.8-4.5-12.3-10.1-9.4c-5.9,2.4-10.2,7.2-15.2,10.9c-1-0.6-1.7-1.1-2.5-1.7c18-33.3-18.9-69.2-50.7-47.3
		c-22,17.2-14,53.9,12,61.9c-0.8,1.8-1.5,3.3-2.2,5c-6.3,0.8-12.7,0.4-18.6,3.1c-5.6,2.4-5.8,11.1-0.2,13.6c1.1,0.6,2.2,1.2,3.4,1.3
		c4.5,0.4,8.9,0.8,13.4,0.7c0.3,3.6,2,7.1,0.8,10.5c-8.2-2.9-12.3-14.6-11,5.1c-1.9,0.5-3.8,1-5.3,1.5c-8.2-7.9-10.5-14-11.5,1.8
		c-2.5,0-5,0-7.6,0c-5.1-7.7-6.5-14.1-10.5-0.9c-2.4-0.2-4.4-1-6.8-1.5c-2.8-1-5.9,2.3-3.6,4.8c4.7,8.8,12.5,15.2,20.9,20.5
		c14.3,9.1,32.3,6,47-0.6c2.5,3.4,2.5,3.4,6.4,1.8c7.7-3.1,15.2-6.4,23-9.3c26.5,39.9,8.8,35.9,46.2,28.3
		c1.7,56.4,41.1,104.2,93.8,122c0.4,11.4,0.9,22.7,1.3,34.1c-13.8-1.8-26.8-5.1-40.5-5.2c-7.7,0.1-17.5,2.9-19.3,11.5
		c-1.3,5.6-0.4,13,4.9,16.3c15,9.4,33.5,3.3,50,3.3c8-0.6,15.9-1.4,23.8-3c2.4-0.5,3.9-1.7,4.9-3.8c2.6-5.6,1.7-10.7-2.7-15.1
		c0-10.2,0-20.7,0-31.3c39.5,9,78.8,7.2,118.2-1.1c0.4,9.7,0.8,19,1.2,28.6c-14-1.8-27-5.2-40.9-5.2c-3.9,0.1-7.7,0.8-11.2,2.4
		c-10.6,4.3-11.4,21.2-1.2,26.5c1.8,1,3.7,1.8,5.7,2.4c5.9,1.8,11.9,1.8,17.9,1.4c16.4-0.9,32.7-2.1,48.9-4.8
		c7.7-2.1,7.3-14.2,2.1-18.5c-0.2-13-0.4-25.9-0.6-38.8c25.4-8.3,49-19.9,69.1-37.6c13.6,18,34.9,35.5,59.1,30.4
		c1.9-0.4,3.1-0.1,4.6,1c19.2,14.8,46.5,5.9,60.1-12.2C594.8,521,595.5,518.8,595.2,516.5z M544.1,496.5c-1.8,4.9-5.6,8-8.8,12.6
		C521,489.4,546.5,485,544.1,496.5z"/>
	<path class="st0" d="M325.4,346.6c6.9-2.7,14-5.4,21-8c1.6-0.7,2.7-0.5,4,0.6c11.5,9.8,28.3,11.9,42.4,7.1
		c40.3-11,68.1-67.3,29.5-96.8c-51.1-39.9-113.1,18.2-84.6,74.2c-14.2,6.4-28.7,12.4-42.9,18.7c-1.4,0.6-2.8,0.9-4.3,0.7
		c-3-0.4-5.3,0.8-7.1,3.2c-12.6,8.2-28.2,12.3-41.9,19c-1.2,0.5-2.4,1.4-3.8,0c-9.8-0.1-20,0.9-29.9,1.2c-1.2,0.1-2.2,0-3.2-0.7
		c-47.2-28.6-63.2-82.4-33.3-130c4.7,1.9,10.3,1.4,11.8-4.1c1.2-4,0.7-7.7-2.6-10.6c-1-0.9-1.4-1.8-1.6-3.1
		c-1.5-8.7-12.6-12.2-17-3.4c-29.7-10.2-55.5-28.6-75.2-53.3c66.6,17.2,133-82.3,98.8-138.9c53.3,17.1,105.7,36.8,155.3,62.9
		c-0.3,2.5-0.6,4.7-0.9,6.9c-1,9.3,12,11,13.2-0.1c5.1,2.8,9.9,5.6,14.6,8.6c-1.1,1.9-2.2,3.7-3,5.6c-3.5,6.7,5.3,16.3,11.6,10.6
		c2.3-2.2,4.1-4.4,6.2-6.9c7.3,5.3,14.5,10.6,21.8,15.9c-1.2,4.3-3.2,10,1.6,12c3.5,1.9,6.6,0.1,9-3c4.4,4.2,8.8,8.4,13.5,12.8
		c-4.7,2.4-8.8,5.7-6.5,11.3c1.4,3.9,4.7,6.1,8.5,5.3c3.2-0.7,6.3-1.9,9.8-3c82.5,96-0.9,236.8-121.2,234.1
		c-1.2-3.2-2.4-6.6-3.7-9.9c6.9-9.4,13.4-19.7,14-31.6c0.2-2.7-0.9-4.8-3.1-6.2C326,347.3,325.5,347.3,325.4,346.6z M342,203.8
		c32.3,0.8,60.8-34.6,36-62.2c-11.1-12.4-30.8-18.5-45.3-8.3C303.1,151.8,297.7,203.5,342,203.8z M272.2,145.4
		c47,1,65.7-69.5,13.2-75.4c-22,0-44.9,16.1-47.3,38.8C235.3,126.7,251.3,146.4,272.2,145.4z M235.2,320.2c15.8-0.2,29.5-6,40-16.9
		c2.2-3.2,1.9-7.5-0.7-10.4c-3.7-4.5-9.6-2.4-13.6,0.7c-34.3,22.6-61.9,4.9-66.9-34.9c-0.8-3.1-2.9-4.6-6-4.4
		c-3.5,0.2-5.8,2.9-5.9,7C180.6,291.4,205.2,320.4,235.2,320.2z"/>
	<path class="st0" d="M161.1,415.4c4.9-1.1,17.2-4.1,11-10.9c-3-3.1-6.7-3.9-10.9-3.9c0.7-13.7,3.1-27,6.9-40.6
		c4.3,4.2,8.3,7.9,12.7,11.6c-1.9,8.4,3.3,9,10,7.5c0.1,0.2,0.1,0.4,0.2,0.6c-2.4,1.1-5.3,2.3-6.5,4.6c-1.2,2.6,0.4,5.5,3.3,6
		c3.6,0.3,6.4,0.3,10.2-0.4c-2.6,2.3-4.5,3.6-6.7,5.9c-3.4,3.7,0.7,10.7,5.8,7.7c4.9-2.1,9.2-5.6,14.3-6.9
		c-3.1,3.1-14,8.8-10.3,13.8c1.2,1.8,3.4,2.7,5.4,2.1c7-2.7,13-7.3,18.5-12.2c1.8-1.6,3.2-1.9,5.5-1c24.8,9.7,51.2,13,77.6,14.5
		c1.2,3.5,2.7,6.8,3.5,10.4c1,4.4,3.7,6.2,7.9,6.6c17.4,1.3,34.8,5,52.2,5c9.2-2.8-1.5-12.4-6.6-13.6c-12.5-3.6-25.7-2.3-38.5-4.1
		c-0.4-1.3-0.8-2.7-1.3-4.4c50.4-2.9,99.8-24.1,131.4-64.4c28.3,33.7,36.9,86.7,14.3,125.6c-16.6,24.5-44.9,37.8-72.1,47
		c-0.7-4.8-1.3-9.4-1.9-14c-0.5-6-2.2-13.1-9.7-12.6c-4.1,0.3-6.9,3.1-7.2,7.3c-0.4,8.2-1,16.3-1.1,24.5
		C290.5,553.2,162,527.3,161.1,415.4z"/>
	<path class="st0" d="M176.7,61.5c-1.2,33.5-21.5,63.1-50.2,78.8c-15.1,7.9-30.4,7.6-45.7,0.7c-18.6-8.3-20.3-31.6-16.8-49.2
		c7.6-39.6,42.6-75.2,83.6-76.9C165.2,23.8,177,41.8,176.7,61.5z M151.2,88.1c0.4-13.5-16.4-20.9-23.9-8.7
		C113.8,102.6,148.4,114.6,151.2,88.1z M85.2,71.9c-1.2,12.6,14.6,18.1,22.6,9.6C124.1,59.5,87.8,41.6,85.2,71.9z"/>
	<path class="st0" d="M356.5,335c8.9-3,16.5-4.9,24.3-9.5c3.4-2,4.4-5.3,2.9-9c-1.4-3.6-4.6-5.4-8.3-4.7c-10.5,2-20.6,5.5-30.5,9.2
		c-16.1-28.1-2.9-69.1,30.6-75.7c31.6-9.5,68.5,22,56.1,54.8C422,328.6,384.6,353.9,356.5,335z"/>
	<path class="st0" d="M65.3,335.1c12.4,1.2,22.8-2,30.9-11.4c9.1,4,14.8,12.1,20.5,19.8c5.8,9.1,12.6,18.1,15.6,28.6
		c-19.8,8-39.3,15.9-59.1,24C64.7,377.5,56.1,354.9,65.3,335.1z"/>
	<path class="st0" d="M443.2,138c-6.9-6.5-13.5-12.7-20.3-19.1c11.6-18.4,28.4-38.4,51.7-39.7c7.3,0.1,6.7,8.1,5.4,13.2
		C474.7,111.9,458.8,126,443.2,138z"/>
	<path class="st0" d="M99,297.3c-18.1,5.9-34.6,15.2-52.8,20.3C34.2,302.4,42.1,278,59,272.1C76.9,264.9,95.8,279.1,99,297.3z
		 M59.1,297.2c0.2-4.6-6.7-5.3-7.1-0.6C51.7,301.4,58.9,302.1,59.1,297.2z M80,288.3c4.8-0.1,4.3-7.2-0.2-7.3
		C75.2,281.2,75.4,288.4,80,288.3z"/>
	<path class="st0" d="M376.8,86.5c-6.4-3.6-12.8-7.2-19.2-10.9c3.3-14.3,10.4-29.5,22.6-38.5c4.1-2.3,6.7-1.3,8.2,3.2
		C392.1,56,384.9,73.5,376.8,86.5z"/>
	<path class="st0" d="M66.7,394.3c-20.5,11.5-47.3,4.9-59-14.1c17.3,2.9,35.9,1.8,51.1-7.5C61.5,380,64,386.9,66.7,394.3z"/>
	<path class="st0" d="M300.8,395.4c-20.7-1.3-40.3-5.2-59.5-12.1c1.1-2.1,1.5-3.4,1.8-5.7c14.7-5.4,29.6-10.8,44.9-16.3
		c1.7,2.6,3.4,5.2,5,7.8c-0.1,0.1-0.2,0.2-0.3,0.4c-2-0.8-4.1-1.8-6.1-2.5c-7-3.1-14.4,7.3-7.5,11.8c4.7,2.8,9.8,4.9,14.7,7
		C298.4,387.4,299.5,391,300.8,395.4z"/>
	<path class="st0" d="M50,321.7c1.6-0.5,2.9-0.9,4.1-1.3c2.4,2,4.7,3.9,7.5,6.1c0.2-2.8,0.4-4.9,0.5-7c0.1-1-0.1-2.1,1.3-2.5
		c1.2-0.4,1.7,0.4,2.4,1c1.9,1.7,3.8,3.2,5.7,4.9c0.2-0.1,0.4-0.2,0.6-0.3c0.2-3,0.3-6.1,0.5-9.3c1.1-0.5,2.2-1,3.1-1.4
		c2.5,2.1,4.8,4,7.6,6.3c0.3-3.7,0.5-6.7,0.8-9.8c0.8-0.3,1.5-0.7,2.2-1c2.5,2,4.8,4,7.4,6.2c1-3.5,0.5-5.9,1-9.4
		c1.2-0.5,2.4-0.9,3.6-1.4C99.5,327.1,66,340.9,50,321.7z"/>
	<path class="st0" d="M231.5,384c-0.8-0.9-1.2-1.5-1.8-2.2c-4.6,2.7-9.1,5.3-13.9,8.1c-0.7-1.8-1.2-3.4-1.9-5.1
		c2.3-1.2,4.5-2.2,6.9-3.4c-0.3-0.8-0.6-1.5-1-2.6c-2.4,0.8-4.7,1.6-7.2,2.5c-0.5-1.2-0.9-2.3-1.4-3.5c1.4-0.8,2.8-1.6,1.4-3.6
		c-0.7-0.1-1.7-0.1-2.9-0.2c-0.5-1.3-1.1-2.7-1.9-4.4c8.1-0.9,15.9-1.1,24-1.2c-2.7,6,0.7,12.1,7.5,12.2
		c-4.7,8.6-12.3,13.8-19.4,20.1c-0.8-1.9-1.4-3.3-2-4.9C222.5,391.8,226.9,388,231.5,384z"/>
	<path class="st0" d="M112.3,329.8c-2.3-2.1-4.1-3.8-6.3-5.8c4.1-2.7,9.1-9.3,14-8.9C128,317.3,114.6,326.9,112.3,329.8z"/>
	<path class="st0" d="M57,344.1c-0.3,3.1-0.6,5.7-0.8,8.4c-3.4,0.6-14.7,2-15.6-2.4c-0.2-1.6,0.7-3,2.6-3.9
		C47.5,344.4,52.1,344.9,57,344.1z"/>
	<path class="st0" d="M211.2,386c0.7,1.8,1.3,3.4,2,5.2c-5.5,3.4-11.2,6.1-16.9,9.2c-1,0.5-2.2,1.4-3.2-0.1
		C190.3,396.2,207.7,387.7,211.2,386z"/>
	<path class="st0" d="M208.3,378.5c0.5,1.3,1,2.4,1.5,3.7c-4.7,2.5-10,3.5-15.1,5.2c-1.7,0.5-3.5,0.3-5.3,0.3
		c-2.6,0.4-3.4-2.8-0.8-3.5C195,381.6,201.4,379.8,208.3,378.5z"/>
	<path class="st0" d="M315,350.7c-1.7,6.4-2.6,12.5-5.2,18.6c-2.5-4.8-4.8-9.1-7.2-13.7C306.6,354,310.5,352.5,315,350.7z"/>
	<path class="st0" d="M204.7,369.6c0.7,1.7,1.2,2.9,1.9,4.6c-6.7,1-13.2,1.7-19.9,2.6c-1.5,0.4-3.4,0.2-3.5-1.6
		c-0.5-3.5,4.2-3,6.5-3.6C194.7,370.9,199.6,370.3,204.7,369.6z"/>
	<path class="st0" d="M215.5,397.2c0.8,1.9,1.4,3.4,2.1,5.1c-2.6,1.8-11.4,9.2-14.1,6.4c-0.9-0.8-0.2-1.5,0.4-2.2
		C207.3,403.1,211.2,400.2,215.5,397.2z"/>
	<path class="st0" d="M71.2,321.4c-2.1-1.8-3.6-3.1-5.5-4.7c2.1-0.9,3.7-1.6,5.9-2.5C71.5,316.6,71.4,318.6,71.2,321.4z"/>
	<path class="st0" d="M83.2,309.3c-0.2,2.6-0.4,4.5-0.6,7c-2-1.7-3.5-3-5.3-4.6C79.4,310.9,81,310.2,83.2,309.3z"/>
	<path class="st0" d="M88.3,307.1c1.8-0.7,3.4-1.4,5.5-2.2c-0.1,2.3-0.3,4.2-0.4,6.4C91.1,310.4,89.7,309,88.3,307.1z"/>
	<path class="st0" d="M56,320.3c1.7-0.6,3.2-1.2,4.9-1.8c0,2,0,3.7,0,5.8C58.8,323.3,57.4,322.1,56,320.3z"/>
	<path class="st0" d="M33.1,371.6c1.1,1.3,2.3,2.6,3.7,4.2c-1.6,0.3-2.9,0.5-4.2,0.7c0-1.7,0-3.2,0-4.7
		C32.7,371.7,32.9,371.7,33.1,371.6z"/>
	<path class="st0" d="M53.2,370.5c-1.4,0.6-2.6,1.2-4.1,1.8c-0.2-1.9-0.4-3.5-0.6-5.1c0.2-0.1,0.3-0.2,0.5-0.3
		C50.4,368.1,51.7,369.2,53.2,370.5z"/>
	<path class="st0" d="M13.9,376.3c0.4-1.3,0.7-2.3,1-3.4c1.5,0.8,1.7,2.2,2.7,3.7C16.2,376.5,15.3,376.4,13.9,376.3z"/>
	<path class="st0" d="M331.9,185.8c9.9,2.2,21.5-7.7,17.9-17.9c-3.3-8.7-15.3-10.8-22.4-5c0.2-4.2,4.2-9.8,6.8-13.1
		c7-9.7,19.6-4.8,28.3,0.8c19.1,14.1,2.5,36.3-17.1,36.4C342.4,187,334,187.6,331.9,185.8L331.9,185.8z"/>
	<path class="st0" d="M331.9,185.7c-0.8-0.1-1.5-0.2-2.3-0.3c0-0.2,0.1-0.4,0.1-0.6C330.5,185.2,331.2,185.5,331.9,185.7
		C331.9,185.8,331.9,185.7,331.9,185.7z"/>
	<path class="st0" d="M254.4,105.5c3.7-13.8,19.3-23.4,33.2-22.3c13.7,3,14.5,21.9,9.5,32.4c-5,11.6-22.7,17.7-33.6,11.6
		c11.1,0.7,22.2-14.4,12.3-22.9c-5.5-5-16.4-5.5-20.7,1.7C254.9,105.9,254.6,105.7,254.4,105.5z"/>
</g>
</svg>
