<?xml version="1.0" encoding="utf-8"?>
<!-- Generator: Adobe Illustrator 26.0.0, SVG Export Plug-In . SVG Version: 6.00 Build 0)  -->
<svg version="1.1" id="Capa_1" xmlns="http://www.w3.org/2000/svg" xmlns:xlink="http://www.w3.org/1999/xlink" x="0px" y="0px"
	 viewBox="0 0 595.3 742.4" style="enable-background:new 0 0 595.3 742.4;" xml:space="preserve">
<style type="text/css">
	.st0{fill:#FFFFFF;}
</style>
<g>
	<path d="M591.9,594.2c-5.1-2.4-7.4,4.7-10.5,7.5c-5.1,5.7-13.9,4.1-19.1-0.7c7.1-5.9,12.1-14.4,11.6-23.7c-0.5-14-17.2-15.1-27-9.7
		c-12.9,5.9-9.5,20.7-2.9,30.4c-2.7,1.6-22.2-3.9-21.5-7.6c-4.5-58.2-13.2-116.6-33.9-171.5c19.3,16.2,37,34.1,57.7,48.6
		c1.1,0.8,1.4,1.7,1.7,2.8c2.3,7.9,4,16,7.9,23.3c1.4,2.8,4.3,3.4,6.8,1.6c6.6-4.3-2.7-19.5-4.2-25.6c8.1,0.7,14.8,2.6,22.2,5.5
		c6.2,2.9,10.6-5.1,5.4-8.7c-6.2-4.4-13.1-5.4-20.6-6.6c6.2-2.8,12.5-4.9,18.8-7.4c2.1-0.8,3.7-1.9,3.9-4.3c0.4-3.4-2.3-6.1-5.8-5.4
		c-11.8,2.1-21.6,8-32.5,13.1c-24.1-17.5-45.6-38.4-68.7-57.1c-1.8-1.5-3.2-3-4.2-5.1c-10.9-22.2-26.2-40.9-45-56.8
		c60.5-66.5,51.9-178.7-10.7-240.9c56.3-55.1-15.1-88.4-34.1-22.6C373.7,66.8,360,61.7,346,57.1c26.8-74.3-54-73.5-46.4-12.8
		c-57.6-13.2-116.1-19.9-175-23.1C83.3,23.6,62.4,72.6,81.4,107c16.3,30,47.4,47.6,79.5,56.3c-32.4,50.6-36.8,124.1,3.8,171.4
		c-18.7,15.5-35.1,33.6-46.6,55.2c-27.1,21.2-52,45.9-80,66.3c-6-3.2-34.6-20.3-37.7-10c-1.2,3.5,1.8,6,5,6.8
		c6.1,2.5,11.9,4.2,17.8,7.3c-8.1,0.7-16.7,1.6-22.4,7.9c-2.7,3.5,1.2,8.9,5.4,7.6c7.9-3.1,14.9-5.3,23.7-6
		c-2.4,7.2-5.5,13.7-6.7,21.1c0,5.1,7.1,8,9.5,2.5c3.7-7.3,5.1-15.4,7.7-23.1c0.3-0.9,0.8-1.9,1.5-2.5c9.3-7.5,18.8-14.8,27.9-22.5
		c12.4-10.4,24-21.5,36.4-31.9c-29.5,77.3-36.8,161.8-38.8,244.3c-0.1,3.9,1.5,5.2,5.3,4.6c44.3,1.4,88.7,3.5,133.1,4.6
		c0.5,20-1.8,40,1.6,59.9c-13.6-0.7-45.9-7.3-56.2-0.9c-7.9,5.3-2.6,13.9,5.3,15.1c4.6,1.4,9.4,1.5,14.1,1.4
		c15.6-0.5,31.3-1.2,46.8-3c3.9-0.3,6.3-6.5,3.4-9.4c-1-1-1.3-2-1.4-3.3c-1.5-19.8-2.5-39.8-2.3-59.6c52.8,0.7,105.4,1.4,158,2.1
		c0.4,19.5-1.9,38.3,1.9,57.5c-14-0.1-44.8-7.5-56.3-0.8c-5.3,3-5.3,10.1-0.1,13.1c6,3.2,13.1,3.7,19.8,3.4
		c15.5-0.7,31.1-0.9,46.5-3c3.4-0.3,6-5.9,3.6-8.8c-1.6-1.9-1.8-3.8-2-5.9c-1.2-18.5-3.1-37-2-55.5c44.9,0.7,89.7,2,134.6,0.8
		c3.4-0.1,4.4-1.1,4.4-4.2c0.1-20.5-1.9-40.9-2-61.4c8.4,3.7,16.9,4.7,25.8,2.5c1.4-0.3,2.5-0.1,3.7,0.9c12.5,11,37.4,12.3,41.9-7
		C595.8,597.9,594.6,595.3,591.9,594.2z M554.2,594.3c-8.8-8.9-7.8-20.8,6.7-19.2C569.6,577.9,558.7,591.2,554.2,594.3z"/>
	<path class="st0" d="M170.1,340.5c69.3,62.4,189.5,73.5,256.5,2c15.6,12.9,28.2,28.3,38.5,45.7c-4.4,1.8-6.4,4.2-2.3,7.9
		c4.2,4.4,10.2,7.4,13,12.9c34,78.3,39.4,165.4,42,249.7c0.2,3.5-3.8,3.1-6.2,3.2c-145.5,0.2-290.9-3.9-436.3-6.2
		C80.2,553.5,84.1,409.5,170.1,340.5z"/>
	<path class="st0" d="M168.2,165c4.8,0.5,9.6,3.2,14.2,1.6c1.4-0.7,1.9-2.1,1.8-3.7c-0.1-3.7-7.6-4-10.5-5.5c0.2-2.1,0.1-4-2.2-4.8
		c-2.5-0.8-3.4,1.3-4.9,2.8c-24.1-5.3-48.4-14.3-65.3-33.1c36.7,2.5,70.1-62.4,50.1-92.1c47.2,4.1,94,11,140.4,20.3
		c12,3,9.1-0.1,14.5,11c1.2,2.2,2.5,2.8,4.1,2.2c3.5-1.3,1.3-5.3,0.5-8.4c7.9,1.9,15.4,3.9,23,6.5c-1.6,4.3-6.3,11-0.4,13.8
		c5.1,2,7.5-6.8,9.4-10.3c4.6,0.1,36.2,13.7,42.5,18.3c-0.1,3.3-0.4,6.7-0.5,10.1c-0.2,4.8,5.5,5.2,6.2,0.7c0.5-2.5,0.7-4.1,1.2-6.8
		c4.8,2.9,9.1,5.8,13.5,9.2c-1.8,1.9-3.5,3.3-4.6,5.6c-1.4,3.4,2.6,7.3,5.8,5.2c2.5-1.4,4.2-2.8,6.5-4.7
		c89.2,82,56.2,245.1-64.9,275.3c-60.4,13.7-131-4-175.6-47.5C131.5,285.8,136.1,214.2,168.2,165z M248.5,121c0.4,2,0.6,4,1.2,6
		c0.7,1.6,3.7,1.6,3.5-0.7c-0.5-2.2-0.7-4.4-0.8-6.6c16.9-5.8,30.3-26,17.2-41.8c1.8-5.1,4.5-8.3,8.7-11.3c2.3-1.6-0.3-4.9-2.4-3
		c-4.3,2.6-7,7.1-9.4,11.4c-13.1-6.8-9.5-1.9-8.2-20.1c-0.1-1.5-1.9-1.8-2.9-0.9c-2.8,4.4-2,10.4-2.1,15.3
		c-4.1,0.3-7.9,0.6-11.8,0.9c-3.2-2.9-4.1-9.9-5.4-15c-0.8-1.8-2.5-1.6-3.3,0.2c-0.7,5.9,2.2,11.5,5.1,16.6
		c-12.1,6.1-15.3,21.7-12.9,33.9c-2.4,1.8-9.5,4.2-7.6,7.4c1.8,2.3,6.2-2.8,8.2-3.7c2.7,3.3,5.2,6.3,7.6,9.2c-0.4,1.9-4.7,7.2-2,8.4
		c2.4,1.1,2.9-2,3.7-3.5c0.6-1.2,1.3-2.5,1.7-3.2C240.9,120.6,244.6,120.8,248.5,121z M337.2,113.6c0.2-4.2,1.5-8.2,2.7-12.3
		c1.2-2.6-2.4-4.3-3.4-1.6c-2.1,4.3-2.9,9.1-3.1,13.7c-3.7,0.8-7.2,1.6-10.9,2.3c-2.7-4.6-2.3-10.3-3.6-15.4c-3-4.2-4,2.5-3.6,4.8
		c0.2,4.5,1.9,8.6,4,12.6c-11.6,6.5-20.2,20-15.5,33.3c-1.7,0.7-9,5.5-6.4,7.4c0.8,0.8,1.7,0.7,2.5,0.1c1.8-1.4,3.4-3.9,5.6-4.1
		c2.5,2,4.8,3.9,7.1,5.8c-0.5,2-4.8,7.3-2.1,8.5c1.1,0.5,2.1,0.2,2.6-0.8c0.8-2,2-4.5,3.1-6.2c4.1,0.4,7.7,0.7,11.4,1
		c-0.1,2.7-1,9.2,2.8,8.9c1.4-0.4,1.4-1.6,1.3-2.8c-0.6-2.3-0.7-4.9,0-6.9c17.1-4.2,26.5-17.1,21.2-34.6c-0.4-1.3-0.4-2.4,0.2-3.8
		c1.8-4.1,4.5-7.3,8.1-9.9c2.5-1.6,0.1-5.2-2.2-3.2c-4,2.5-6.6,6.4-8.8,10.4C346.1,117.2,342.5,115.3,337.2,113.6z M236.1,288.4
		c12.4-0.3,24.5-3.2,34.6-10.6c3.8-3,16.5-12.6,7.9-16.4c-2.5-1-4.5-0.3-6.4,2.2c-22.3,28.3-77.6,18.1-81.1-20.5
		c-1.2-4.1-8.6-4.1-7.8,1.4C185.2,271.2,210.5,289,236.1,288.4z M357.1,212.8c-59.6,0.3-51,85.7,3,65.3
		c18.1-8.7,29.6-32.5,18.4-50.8C372.9,217.7,364.7,212.5,357.1,212.8z"/>
	<path class="st0" d="M149.6,51.8c-0.7,24.9-14.7,48.8-36.1,61.6C88.3,127.1,77.6,82.7,82.6,65C87,37.8,150.9,6.3,149.6,51.8z
		 M109.6,67.3C110.2,56,94,51.4,90.8,63.1C86.9,79.6,108.7,82.2,109.6,67.3z M120.6,71.7c0.8,5.2,3.4,10.7,9.6,10.4
		c4.3-0.1,7.9-2.4,9.3-5.9C144.4,61,121.9,54.1,120.6,71.7z"/>
	<path class="st0" d="M336.9,54.3c-9.5-2.6-18.8-5.1-28.4-7.7C298.8-1.5,360.5-7.5,336.9,54.3z"/>
	<path class="st0" d="M413.8,89.8c-6.5-4.6-12.3-8.4-19.2-12.5C410.8,23,460.4,46.9,413.8,89.8z"/>
	<path class="st0" d="M232.2,97.5c-0.1-10,5.6-21.6,17.1-19.7c27.9,4.3,15.8,33.7-6.6,34.8C234.6,113.5,232.2,103.8,232.2,97.5z
		 M248.4,94.4c-0.2-8.2-13.8-7.2-13.4,1.1C235.5,104.4,248.2,102.4,248.4,94.4z"/>
	<path class="st0" d="M324,154.2c-5.7-0.8-13.1-2.2-13.3-9.3c-0.9-11.1,6.6-20.8,17.3-23.6c10-3.3,17,5.9,17.2,15.2
		C346.2,148.1,334.1,153.9,324,154.2z M322.5,131c-8.4,0-9.4,12.4-0.7,12.9C330,143.5,332.4,131.3,322.5,131z"/>
	<path class="st0" d="M346.1,279.6c-43.8-3.4-33.3-63.9,6.8-64.7C396.3,217.1,384.7,277.6,346.1,279.6z"/>
</g>
</svg>
