<?xml version="1.0" encoding="utf-8"?>
<!-- Generator: Adobe Illustrator 26.0.0, SVG Export Plug-In . SVG Version: 6.00 Build 0)  -->
<svg version="1.1" id="Capa_1" xmlns="http://www.w3.org/2000/svg" xmlns:xlink="http://www.w3.org/1999/xlink" x="0px" y="0px"
	 viewBox="0 0 595.3 983.5" style="enable-background:new 0 0 595.3 983.5;" xml:space="preserve">
<style type="text/css">
	.st0{fill:#FFFFFF;}
</style>
<g>
	<path d="M26.1,683.2c0.1-2.8,1.7-4.4,4.8-4.8c31.5-25.2,63.2-50.6,97.6-72c1.3-0.8,2.7-1.8,3.6-3.1c7.5-10.6,16.3-19.6,25.5-28.7
		c-50-29-147-134.4-113.3-195c33.8-46.3,93.3-64,146.1-79.4c-9.6-3.9-147.8-30.2-121.5-45.2c40.5-13.2,83.6-8.5,125-4.4
		c-18.2-22.8-23.2-51.4-16.7-79.5c1-4.8,2.6-6.1,7.4-6.2c17.5-0.3,34.9,0.8,52,4.8c6-5.6,11.9-11.1,17.6-16.6
		c6.3-14.3,8.1-30.6,15.1-44.8c1.8-3.5,2.4-7.1,2.4-10.9c0.2-16.3,0.9-32.5,3-48.7c1.6-20,11.8-60.6,39.2-45.7
		C334.5,15.4,335,57.1,335.9,79c0,3,1,4.6,3.9,5.8c16.9,7.1,32.3,16.4,47.1,27.1c6.1-25.8,5.3-53.4,16.6-77.8
		c6.7-16.6,24-29.5,38.7-13c26.3,33.9,5.5,108.7,1.6,149.9c-0.4,2.8,0.5,4.6,2.1,6.7c40.5,45.7,52.8,108.4,43.5,167.8
		c29.8,14.3,59.9,28.3,89.7,42.5c2.8,0.6,4.2,2.3,4.9,4.9c2.3,8.5,4.5,17.1,6.9,25.6c0.7,4.3,4.8,9.2,1,13c-1.7,1.9-3.9,2.5-6.3,1.5
		c-41.7-20.6-83.8-40.1-127.2-57c20,62.4,14.1,135.9-29,187.5c15.9,12.5,30.1,26.4,41.5,43.3c1.3,2,3.3,3.6,5.2,5.1
		c28.5,20.2,57.6,39.9,83.9,63c1.9,1.7,3.6,3.6,6.5,4.1c1.3,0.2,2.3,2.5,3.7,4.1c5.8-1.9,12.6-5.1,19-6.2c6.2-1.2,8.7,7.4,2.6,9.6
		c-6,3-13,3.7-18.2,8c7.3,0.9,15.3,2,20.7,7.5c3.2,3.5-0.5,9.5-5,8.1c-7.7-3-14.8-5.6-23.7-5.6c2,7.2,5.5,13.6,6.4,20.9
		c0.1,5.1-7.2,8.1-9.5,2.6c-4.1-8.6-6.1-17-8.7-26.4c-4.3,2.2-7.8,13.1-12.9,7c-10.6-11.4-24.2-19.2-36.7-28.7
		c20.8,72.1,26.8,147.4,27.8,222.2c0.1,3.9-0.8,4.8-4.9,4.9c-45.2,1.1-90.5-0.3-135.7-0.7c0,1.7,0,3.2,0,4.9
		c4.3,0.3,8.5,0.5,12.6,0.9c4.7,0.4,5.3,1,6.1,5.7c2.9,18.9,0.4,38-0.1,57c-0.2,4.9-0.7,5.9-5.6,6.7c-23.4,1.8-47.5,3.4-70.8-0.6
		c-14.5-2-15.5-18-13.7-29.8c3.1-17,23.6-14.5,36.8-14.7c0.8-28-5.2-25,23-24.4c0-2.2,0-3.9,0-6.1c-53.1-0.7-106.2-1.4-159.7-2.1
		c0,2.4,0,4.7,0,7.3c4,0.3,8,0.5,12,0.9c5.3,0.5,6,1.2,6.7,6.6c2.3,18.2,0.3,36.6,0,54.9c-0.2,6.5-1.5,8-8.4,8.4
		c-23.3,0.8-47.3,3.2-70.3-1.7c-12.7-2.5-13.2-17.8-11.9-28.3c2.5-17.7,23.6-15.4,37.1-15.5c1.1-28.6-5.6-24.7,22.8-24.4
		c0.3-3.3,0.4-5.1,0.1-8.3c-45.1-1.4-90.3-3.3-135.5-4.7c-3,0.1-4.3-1-4.4-4.1c1.2-73.9,8.6-147.9,28.4-219.1
		c-13.9,10.7-29.5,19.9-41.8,32.4c-4.7,6.6-9.1-4-12.9-7.2c-2.6,9.5-4.8,17.5-8.5,26.2c-2.4,7-11.3,2.8-9.7-3.3
		c1.8-6.6,3.8-12.8,6.2-19.2c-8.6-1.1-15.7,2.5-23.4,5.2c-5.1,1.6-8.7-5-4.9-8.5c4.8-4.5,14-5.9,20.4-7.1c0-0.3,0-0.6,0.1-0.9
		c-5.4-2.1-10.8-4.2-16.2-6.3c-3-0.7-6.5-2.9-5.6-6.4c0.7-3.8,4.8-4.7,8-3.5C14.1,679.2,20,681.2,26.1,683.2z"/>
	<path class="st0" d="M252.6,313.7c0.6,5.2,1.1,10,1.7,15c-3.4,1-7.1,2.1-11,3.2c-5.8-3.6-5.8-12.9-10.2-14.8
		c-4,4.9,3.8,13,6.7,17.3c-10.8,10.7-10.2,23.3-6.2,34.6c-2.1,3-3.6,5.1-5.1,7.3c-0.8,1.1-1.5,2.5,0.1,3.3c3,0.4,5-3.5,6.9-5.4
		c3.3,2.7,6.3,5.1,9.5,7.7c-0.3,1.2-0.8,2.7-1,4.3c-0.2,1.5-1.6,3.8,1.1,4.2c2.2,0.3,2.1-1.9,2.4-3.4c0.3-1.5,0.8-3,1.2-4.3
		c4.3-0.6,8.1-1.2,12-1.7c1.3,2.5,1.4,5.8,4.8,6.2c2.9-4.8-5.4-5.3,3.9-12.3c11.5-8.7,17.5-28,5.6-38.8c-4.9-4.4,1.3-12.5,5.1-16.1
		c55.1,14.6,110,31,163.8,50.1c2.7,0.8,4.1,2.4,4.8,5c2.3,8.7,5.1,17.3,6.9,26.1c36.5,184.6-130.5,244.2-276.9,174.8
		c-61.8-31.8-112.8-90.7-132.1-157.7c-6.2-24.4,10.2-45.7,29.2-59c39.4-27.1,85.4-43.4,131.7-54.2
		C222.6,305.3,237.7,311,252.6,313.7z M330,363.2c-10,10.6-15.5,22-8.7,35.9c-1.8,2.4-3.4,4.4-4.8,6.5c-0.7,2.6,1.3,2.8,3,1.9
		c1.3-1.6,3-3.8,4.6-5.1c3,1.6,5.6,3,8.1,4.4c-0.5,2.3-1.1,4.5-1.3,6.8c0.1,2,2.1,2.5,3.3,0.8c0.7-2.1,1.1-4.8,1.9-6.9
		c4-0.5,7.7-1,11.3-1.4c1.1,2.4,1,9.5,4.8,8.1c1.8-2.6-0.6-6.7-1-9.6c15.4-6.9,23.2-21.7,15-37.3c-1.5-2.9-1.6-5.5-0.3-8.2
		c1.1-2.5,2.6-4.9,4-7.2c0.9-1.4,2.9-2.9,0.9-4.4c-3.5-2.8-7.9,9.9-9.5,11.9c-4.4-1.4-9-2.9-14-4.5c-0.6-3.8,0.2-8.2,0-12
		c0-2.8-3.1-3.6-3.6-0.6c-1.3,4.7-0.8,9.4-0.3,14.1c-4.1,1.5-6.5,2.6-10.6,4.7c-1.5-2.9-2.9-5.6-4.1-8.3c-1.5-2.2-0.9-8.5-4.9-7.1
		C322.7,351,323.7,354,330,363.2z M256.9,552.2c18.2-1.1,39.6-9.7,48.2-27.7c2.1-6-7-8.1-9.4-2.2c-18.8,30.7-74.6,28-83.7-9.5
		c-1.7-5-9.9-3.6-7.6,2.4C210.3,539.4,231.3,552.4,256.9,552.2z M365.7,440.5c-50.2,0.8-54.1,77.2-0.9,70.5
		C401,503.9,410.1,442.7,365.7,440.5z M85.7,432.6c14.7,0.1,28.3-7.4,31-22.2c3.3-15.4-5.7-33.1-21.5-36.8
		c-22.8-5.3-48.2,19.9-34.8,42.1C66,426.2,74.7,432.3,85.7,432.6z"/>
	<path class="st0" d="M515.9,778.3c-85.1-0.5-169.7-1-254.9-1.5c3.6-55.7,10.2-110.5,20-165c50.5,2.6,104.8-6,142.6-42.4
		c13.6,9.7,25,21.4,35.1,34.8c-1.5,2.6-2.7,5.9,0.8,7.4c11.5,6,21.5,14.3,32.1,21.6c15.2,10.2,30.6,20.4,44.2,32.6
		c-4.1,6.1-8.2,12-12.2,17.9c-24-14.5-45.3-33.9-69-49c-3-1.9-4.6-1.8-6.1,0.1c-1.6,2.2-1,4.6,1.9,6.6c11.2,7.8,22.4,15.6,33.5,23.5
		c8.8,6.3,8.7,6.3,11.8,16.6C505.5,713.4,511.3,745.2,515.9,778.3z M287,666.4c0.6,17.8,24,9.4,23.9-4.4
		C310.3,644.8,287.3,654.1,287,666.4z M288.8,755.7c13.7,0.6,21.8-25.1,4.1-23.8C279.6,732.8,272.2,754.4,288.8,755.7z"/>
	<path class="st0" d="M252.7,776.7c-56.2-0.6-112-0.3-168.3-1.1c11.1-69.9,24.6-148,80.8-196.5c33.4,18.2,69.4,27.7,107.4,31.7
		C262.9,665.8,256.4,720.9,252.7,776.7z"/>
	<path class="st0" d="M243,258.8c21.9-14.6,37.1-35.2,47.5-59.2c2.4-5.5,1.6-8-3.9-10.3c-13.5-5.7-26.8-11-40.4-16.6
		c34.1-38,89.3-51.5,137-32.9C377,191.4,373,243,369.3,294.9C327.4,280.5,287,266.1,243,258.8z"/>
	<path class="st0" d="M83.4,260.4c25.3-5.6,51.3-6.1,77-3.4c107.3,7.1,209.6,43.5,306.5,88.2c35.8,15.5,71.6,31.2,106.7,48.4
		c1.8,0.8,3.2,1.9,3.7,3.9c1.8,7,3.8,13.9,5.7,20.9c-0.3,0.2-0.5,0.5-0.8,0.7c-71.1-32-141.9-64.9-217.3-85.8
		c-92.3-30-189.6-41.3-281.5-71.9C83.4,261.1,83.4,260.8,83.4,260.4z"/>
	<path class="st0" d="M412.3,311.7c-11.8-4.5-23.2-8.8-34.9-13.2c3.6-52.3,8.3-104.5,14-156.7c4.8-36.5,8.6-74,21.9-108.6
		c1.6-3.8,4.2-7,7.6-9.3c11.1-8.2,17.8,5.9,20.9,14.8c9.2,27.1,3.5,56.1-0.2,83.7C432.7,185.7,424.4,249,412.3,311.7z"/>
	<path class="st0" d="M259.1,808c86.9,0,173.2,0,260.2,0c0.8,10.5,1.6,21.2,2.5,32.3c-88.1,1-176.1,0.5-264.3,1.3
		C258,830.4,258.5,819.6,259.1,808z M271.8,823.7c-0.8,16.3,21.2,14,25.2,2.2C302.7,806.7,272.1,807.3,271.8,823.7z"/>
	<path class="st0" d="M256.9,869.2c0.7-8.2,1.4-15.7,2.1-23.7c87-1,173.9-0.5,260.9-1.3c0.6,8.9,1.2,17.5,1.3,26.8
		C433.2,870.5,345.4,869.7,256.9,869.2z"/>
	<path class="st0" d="M523.2,875.3c0.7,6.7,0.8,13.5,0.6,20.3c-0.1,3.6-4.7,2.7-7.2,3c-88.6-0.5-177.1-0.8-265.6-2.8
		c1.2-7.6,2.4-14.9,3.6-22.1C257.6,872.8,517.7,874.3,523.2,875.3z"/>
	<path class="st0" d="M479.9,341.6c-19.9-9.1-39.4-18.1-59.1-27.1c6.9-41.7,13.8-83.7,20.7-125.7
		C475.2,223.1,490.9,291.6,479.9,341.6z"/>
	<path class="st0" d="M261.5,803.9c-0.2-7.7,0.6-15.1,1.1-22.6c3.5-0.9,245.8,0.4,252,1.3c0.8,6.7,1.6,13.6,2.3,20.4
		C513.4,804,269.9,804.9,261.5,803.9z"/>
	<path class="st0" d="M81.2,808.5c56.5,0,112.7,0,169.6,0c-0.4,11-1.2,21.9-2.4,33.1c-56.7,0.3-113.1,0.5-169.4,0.8
		C78.3,838.5,79.8,815.1,81.2,808.5z"/>
	<path class="st0" d="M83.1,804.2c0.9-8.2,1.9-16.3,2.8-24.7c55,0.4,109.5,0.7,164.5,1.1c-0.1,7.9-0.5,15.5-1.3,23.6
		C194,804.2,138.9,804.2,83.1,804.2z"/>
	<path class="st0" d="M246.3,845.4c-1,8.6-0.6,15.8-2.4,23.6c-54.8-0.4-109.6-0.8-165-1.2c0.3-7.4,0.6-14.3,0.9-21.8
		C135.4,845.9,190.5,845.6,246.3,845.4z"/>
	<path class="st0" d="M245.8,872.8c-0.7,8-1.3,15.2-2,22.6c-55.9-1.2-111.5-2.3-167.1-3.5c0-6.6,0-13.2,0-20.3
		C133.2,872,189.2,872.4,245.8,872.8z"/>
	<path class="st0" d="M401.5,921.4c0,17.3,0,34.4,0,51.8c-22.2,0.7-44.6,3.4-66.7,0.1c-5.4-0.6-8.4-3.8-8.7-9.2
		c-0.5-8.4,3.1-18.7,13-18.6c7.2-0.1,14.5,0,21.7,0.9c4.4,0.3,6.6-1.5,6.8-6c0.2-6.4,0.2-12.5,0.2-19
		C379,921.4,389.9,921.4,401.5,921.4z"/>
	<path class="st0" d="M196.3,921.3c11.7,0,22.5,0,33.8,0c0,17.3,0,34.4,0,51.9c-22.1,0.7-44.5,3.3-66.6,0.1
		c-11.6-1-10.8-16.9-4.8-23.8c2.3-3,5.7-4,9.3-4.1c7.4,0,14.8,0.1,22.1,1c3.7,0.1,5.7-1.6,5.9-5.4
		C196.3,934.4,196.3,928,196.3,921.3z"/>
	<path class="st0" d="M272,136.5c3.8-11.8,17.2-48.6,28.6-50.3c30.3,3.4,57.7,19.5,81.8,37.3c3,2.4,3,2.4,1.6,6.8
		C347.6,119.2,306.4,118.6,272,136.5z"/>
	<path class="st0" d="M327.4,79.5c-11-3-21-4.8-32.1-5.5c-5-0.9-10.4,9.9-14.1,13.4c-1.3-23.4,1-50.8,11.8-72.4
		c8.1-13.3,21.6-4.1,25.9,7.2C326.6,40.2,326.8,60.3,327.4,79.5z"/>
	<path class="st0" d="M237.7,246.6c-0.1,0.4-0.1,0.9-0.3,1.1c-9.3,6.3-23,8.2-31-1.2c-18.1-18.1-23.9-44.5-18.5-69.4
		c13.6-0.5,26.9,0.4,40,3.1c-6.7,7.8-8.4,11.8-9.5,22.1c-1.2-2.5-2.2-5.1-4.9-5.7c-3.5,6.4-7.1,12.6-10.4,19
		c-6.2,10.6-4.3,28.3,9.7,31.1c8.3,2.1,17,3.9,25.1-0.1L237.7,246.6z"/>
	<path class="st0" d="M237.8,246.7c16.1-12.4,3.9-24.2,8.9-38.7c-3.7-1-6.4,0.9-9.7,2.7c-0.5-10.6-7.1-19.2-7.3-30.1
		c17.1,3.6,32.5,10.4,47.9,17.5C271.1,214.7,254.3,239.5,237.8,246.7C237.7,246.6,237.8,246.7,237.8,246.7z"/>
	<path class="st0" d="M119.8,622.5c-19.4,38.3-9.1,37.4-48.5,61.8c-4.1-6.1-8.2-12.1-12.7-18.7c19.6-15.3,40.3-29.1,60.5-43.6
		C119.3,622.2,119.5,622.4,119.8,622.5z"/>
	<path class="st0" d="M233.5,229.6c2.9-4.9,2.2-11.7,7.5-16.6c5.1,23.5,0.1,37.7-26.7,30.4c-11-1.8-13-15.5-8.6-24.1
		c2.5-5,5.4-9.9,8.6-15.5c2.9,7.8,0.2,13.7-3.4,19.6c17.1-3.7,8.4-24.3,15.5-35.4C233.3,202.8,233.5,213.9,233.5,229.6z"/>
	<path class="st0" d="M239.2,355.7c-2.4-27.9,43.3-20.3,31,4.3c-3.4,6.5-8.6,11.3-15.7,13.6C243.8,377.6,239.3,363.5,239.2,355.7z
		 M249.5,350.5c-8.5-0.6-10.1,12.5-1.3,13.1C255.7,364,259,350.6,249.5,350.5z"/>
	<path class="st0" d="M527.5,685c3.6-5.3,6.9-10.2,10.6-15.6c5.9,5,11.6,9.8,17.6,14.9c-4.2,4.5-8,8.5-12,12.9
		C538.3,693.1,533.2,689.2,527.5,685z"/>
	<path class="st0" d="M51.6,697.2c-4-4.3-7.9-8.4-12-12.9c5.8-4.9,11.3-9.6,17.2-14.6c3.6,5.3,6.9,10.2,10.6,15.5
		C62.1,689.3,57,693.1,51.6,697.2z"/>
	<path class="st0" d="M268.7,331.4c-2.8-0.7-5.3-1.4-7.8-1.8c-4.8-1.4-4-10.5-3.5-14.8c5.8,1.4,11.4,2.7,17.1,4.1
		C272.5,323.2,270.7,327.2,268.7,331.4z"/>
	<path class="st0" d="M337.5,398.7c-19.3-1.1-10.5-30.2,3.2-34.2C362.7,357.2,371.5,397.1,337.5,398.7z M338.1,375.1
		c-8.4-0.3-9.8,13-0.9,13.1C345,388.4,347.5,375.1,338.1,375.1z"/>
	<path class="st0" d="M392.5,471.8c0.4,24.5-32.3,48.5-52.6,29.5c-8.9-8.4-12-18.7-8.9-30.6C339.4,438.5,390.2,433,392.5,471.8z"/>
	<path class="st0" d="M113.6,401.3c1.6,38-54.5,34.4-52.8-0.2c0.3-5.9,2.5-11.1,6.8-15.2C85.3,368.6,111.4,377.3,113.6,401.3z"/>
</g>
</svg>
