<?xml version="1.0" encoding="utf-8"?>
<!-- Generator: Adobe Illustrator 26.0.0, SVG Export Plug-In . SVG Version: 6.00 Build 0)  -->
<svg version="1.1" id="Capa_1" xmlns="http://www.w3.org/2000/svg" xmlns:xlink="http://www.w3.org/1999/xlink" x="0px" y="0px"
	 viewBox="0 0 595.3 636.3" style="enable-background:new 0 0 595.3 636.3;" xml:space="preserve">
<style type="text/css">
	.st0{fill:#FFFFFF;}
</style>
<g>
	<path d="M593.8,516.2c-3.5-3.4-6.7,2.1-9.6,3.8c-6.3,4-15.1,3.1-19-3.1c43.1-23.4-17.7-60.8-11.1-5.7c-6.6-0.2-11.5-3.3-16.2-7.3
		c35.4-78.6,7.1-174.3-46.1-238c19-25,20.1-57,13.5-86.6c2.9,2.1,7.7,5,8.7-0.2c0.1-4.5-6.1-5.8-9.1-8.1c-1.8-1-2.7-2.3-3.3-4.2
		c-9.1-30.3-26.1-55.5-50.6-75.6c9.5-15.6,33-41.3,13-57.1c-27.7-17.2-40,15.3-41.5,37.8c-9.3-4.7-18.5-9.4-27.8-14.1
		c11.5-16.9,22.3-41.1,0.6-54.9c-25.6-13.6-31.3,24.4-32.5,42C307,26.2,249.4,13.6,191.5,3.5c-7.7-4.4-15.7-4.4-23.8-1.2
		c-17.1,7.5-30,23.6-35.1,41.5c-3.9,13.2,1,24,10.4,33.5c9.3,13.1,20.4,24.3,33.3,33.9c-20,22.9-24.6,54.6-21.8,83.9
		c-1.5,1.1-2.8,2-4,3c-3.3,4.1,1.5,6.2,4.9,3.2c1.9,11.4,4.7,22.5,8.7,33.2c-1.6,2-5.7,4.2-3.6,7c2,2,3.9-0.1,5.7-1.6
		c3.4,10.1,11.2,18.1,14.6,27.9c-11.8,10.6-21.6,22.8-30.3,36.2c-1.9-2.8-2.7-5.7-6.7-5.4c-3.8-2-5.7-7.1-8.5-10.3
		c-1.6-3-3.8-2.2-6.5-1.4c-11.9,3.7-23.8,7.9-35.8,11.3c-6.1-15.1-12.5-29.9-18.7-44.9c-2.9-7.2-10.5-10.1-17.1-13
		c1.4-6.7-7.9-9.5-11.3-4.2c-2.2,3.3-4.5,6.5-6.6,9.8c-9,15.5-43.2,75.1-37.7,89.8c17.6,46.4,35.9,93.6,62,136.2
		c20.1,20.3,58.3,5.6,83.2,2.7c30.1,56.4,75.6,93.9,136.4,112.8c0.4,12.4-0.1,24.6,1.6,36.8c-11.4,0.4-49.5-10.5-51.9,4.3
		c1.8,14.1,46.4,5.7,57.6,5.8c4.9,0.2,7.1-6.5,2.6-8.8c-0.3-11.9-1.5-23.6-1.1-35.5c57.3,14.4,112.7,9,166.4-15.2
		c1.5,16.5,0.7,32.9,2.1,49.4c-11.7,1.2-48.2-10.9-51.6,4.4c2.2,13.9,38.3,5.5,49.3,6.5c4.3-0.9,11.7,0.9,13.2-4.5
		c0.8-2.3-0.6-4.1-2.5-5.3c-0.6-18.3-1.2-36.4-1.8-54.6c27.5-14.4,50.8-33.1,66.9-60c6.7,5.2,13.9,8.2,22,8.3
		C566.3,540.4,601.7,527.4,593.8,516.2z M561.5,497.8c4-18.4,22.9,2.6,0.2,11.9C561,505.4,560.9,501.6,561.5,497.8z"/>
	<path class="st0" d="M186.2,272.8c76.9,73.9,227.8,79.2,301.9-2.2c70.8,81.4,94.7,239-20.8,292.5c-1.4-4.4,0-14.2-6.1-14.3
		c-2.1,0.2-3.6,2-3.6,4.6c0.1,4.7,0.6,9.3,0.6,14.2c-106.1,52.8-250.8,14.2-304.3-94.7c16.6-4.1,32.9-8.7,48.7-15.1
		c4.2-1,8.3-2.9,6.4-7.9c-6.4-20.3-13.6-40.4-20-60.7c8-0.9,15.8-1.6,23.7-2.6c3.4-0.7,2.7-5.9-0.8-5.6c-8.5,0.4-17.1,1.4-25.5,0.9
		c-8.9-24.4-19-48.2-31.7-70.8C158.1,301.9,176.5,280,186.2,272.8z"/>
	<path class="st0" d="M215.7,288.5c2.6-5.6,4.9-10.8,7.4-16.1c0.5-1.1,0.2-1.9-0.7-2.6c-5-2.3-8.2,12.1-10.9,15.3
		c-5.5-2-21.1-16.7-24.1-22.3c3.4-4.4,7.4-8.4,11.9-11.7c1.4-1.1,1.7-2.3,0.9-3.5c-2.4-3.5-13.6,8.9-16.2,11
		c-5.3-7.6-9.4-15.5-12.9-24c2.3-2,4.5-3.6,6.6-5.5c0.8-1,0.7-2,0-2.9c-2.8-2.2-5.6,2.4-8.5,3.7c-4.1-10.6-6.7-21.3-8.4-32.7
		c3.3-1.7,6.5-3.7,9.9-5.2c1-0.7,1.4-1.7,0.9-2.8c-2.2-3.3-8.3,2-11.5,2.5c-2.7-27,2.4-56.5,21.6-76.8c5.1,2.2,26.3,14.4,29.2,7.1
		c0.5-1.6-0.1-2.8-2-3.5c-7.4-3.1-14.6-5.4-21.9-8.7c2.2-2.2,5.5-3.3,4.9-6.7c-0.5-2.7-2.8-3.6-5-2c-2.3,1.8-4.2,3.5-6.5,5.5
		c-10.5-5.9-18.5-14.4-26.6-23.7c33.6,6.3,54.1-47.1,42.4-73c20.2,3.8,40.1,7.8,60.3,12.3c-28.7,8.2-27.4,50.2-3.1,63
		c14.4,8.8,33.3,2.5,39.5-13.3c8.3,3.7,16,8.2,24.1,12.5c-12.6,37.2,41.5,69.6,57.5,27.2c22.5,12.2,45.5,23.5,68.6,34.5
		c17.3,8.4,34.5,17.1,51.1,26.8c2,1.2,3.1,2.6,3.7,4.8c14.1,47.8-4.6,91.6-48.1,115.5C380,335.8,284.5,330.5,215.7,288.5z
		 M199.2,195.5c1,13.7,4.2,26.3,13.6,36.6c18.4,21.5,55.8,7.7,60.1-19.1c0.8-3.1,1.9-13.5-3.9-10c-7.4,5.7-14.5,14.8-24.7,14.1
		c-7.6-0.6-15.6-1.9-21.1-7.8c-7.1-6.9-12-15.6-15.8-24.7C201.7,173,199.7,191.3,199.2,195.5z M357.2,179.6
		c-33.2,0.6-40.6,50.6-8.7,58.2C387,244,399.9,181.2,357.2,179.6z M288.8,282.1c0.1,0,0.2,0,0.3,0c-0.1,4.9,1.6,21.2,8.3,20
		c3.5-2.9-1.9-8.7-2.2-12.4c-1.4-4.9-1.9-10-1.2-15.1c0.2-1.8-0.6-2.8-1.9-3C288.2,271.9,289.7,279.1,288.8,282.1z M292.8,169.4
		c0.9-4.2-4.4-6.1-4.8-1.3c-0.8,7-2.3,13.9-4.1,20.7c-0.4,1.9,0.4,3.2,1.9,3.5C291.5,192.3,292,174.5,292.8,169.4z M221.1,143.7
		c0.1-6.5-18.7,2.3-21.7,4.4c-1.8,1.7-6.6,3.8-4.6,6.7c0.7,1,2,1.2,3.1,0.7c5.3-4.3,11.1-7.1,17.6-8.9
		C217.6,146.1,220,145.5,221.1,143.7z M229,167.1c-0.5,2.5,2.8,3.9,4.2,1.9c2.6-5.6,3.8-11.9,8.1-16.7
		C240,140.8,228.7,163.6,229,167.1z M247.5,294.5c0.3,2.4,0.9,3.4,2.4,3.5c4,0.6,4.6-15,6.4-18.4
		C252.4,270.8,248.3,291.9,247.5,294.5z M262.3,163.8c1.1-4.2-3.9-6.7-4.7-2.2c-0.1,3.1-0.8,6-1.8,8.9c-0.6,1.6,0.1,3,1.4,3.6
		C261.6,175,262,167,262.3,163.8z"/>
	<path class="st0" d="M142.1,309.7c11.2,23.7,21.5,47.5,31,71.9c-14,0.2-27.9-1.2-41.9-0.6c-1.4,0-2.4-0.1-3.2-1.4
		c-3.9-3.4-6-17.2-11.8-15.1c-6.3,3.5,3.3,13.3,4.8,18c-5.1,1.1-17.8-3-18.7,3.5c0.4,6.4,14.9,3.1,19.8,3.9
		c-2.8,4.9-6.8,8.9-10.2,13.3c-1.1,1.5-1.1,2.8,0.1,4.2c6.8,5.6,15.3-12.7,17.8-17.6c15.5-0.2,30.7-0.3,46.3-0.5
		c7.4,19.4,14.1,39,20.3,59.1c-30.2,11.1-62.2,17.6-94,21.9c-1.8,0.2-3.9,0.9-4.8-1.2c-20.9-40.4-37.7-82.8-55-124.9
		C76.3,334.8,109.3,322.9,142.1,309.7z"/>
	<path class="st0" d="M362.3,51.6c-1.8,9.6,7,11.4,6.8,2.5c6.1,2.2,11.9,4.7,17.7,7.3c-2.3,5.2,2.4,7.8,4.6,2.1
		c5.3,3.3,31.7,14.3,31.6,18.6c0.3,4.2,3.6,4.5,6.5,2.1c4.6,3.2,9.2,6.5,13.9,9.8c-2,3.2,0.2,7.4,4,3.3c22.2,17.6,37.4,40,46.7,67.1
		c-38.8-20.8-78.5-38.8-117.8-57.8c7-32.2-35.1-60-55.8-28.9c-8.4-3.9-16.7-7.7-25.2-11.6c2.7-14.7-0.9-27.6-13-37.5
		C287,28.1,353.6,47.3,362.3,51.6z"/>
	<path class="st0" d="M194.3,26c-0.8,14.9-7.2,31.6-17.4,43.2c-11.5,14.9-35.3,5.4-37.6-12c-2-21.4,16.3-46,37.7-49.6
		c3.4-0.4,6.8,0.1,10.1,0.6C193.8,8.3,194,19.4,194.3,26z M162.6,37.6c-1.5-11.2-15.2-9.6-13.6,1.7
		C149.9,48.1,162.7,46.1,162.6,37.6z M182.9,42.7c-0.4-7.6-10.3-11.5-13.2-3.3C165.5,50.2,181.9,54.6,182.9,42.7z"/>
	<path class="st0" d="M15.6,341.2c7.3,1.2,14.2,2.4,21.1,3.5c13.4,43.8,34.8,85,54.3,126.4c-6-1.5-12.8-1.9-17.4-6.1
		C46.5,427.8,33.1,383.2,15.6,341.2z"/>
	<path class="st0" d="M68.6,257.9c6.6,14.2,12.3,28.3,17.7,42.5c-19,8.1-38.2,15.9-55.5,27.5c-0.2-0.1-0.3-0.2-0.3-0.2
		c0-0.1-0.1-0.2,0-0.2C43.3,304.3,55.5,280.9,68.6,257.9z"/>
	<path class="st0" d="M446.5,88.1c-3.9-3.8-15-8.4-16.6-12.6c0.7-7.4,0.5-14.9,2.6-22c2.4-9.6,8.4-20.6,20-17.2
		c6,1.4,12.3,4.8,12.2,11.8c-0.2,14.8-10.6,26.9-17.6,39.1C447.1,87.4,446.9,87.6,446.5,88.1z"/>
	<path class="st0" d="M389.3,55.8c-6.7-2.8-13.3-5.5-20.1-8.3c1.9-11.7,2.1-47.7,21.4-39.1C410.7,18.3,397.4,41.4,389.3,55.8z"/>
	<path class="st0" d="M323.4,87.5c7.8,4.8,10.2-2.8,2.5-6.2c20.9-27.9,57.2,3.5,40.9,33.2C351.5,141.5,314.1,112.4,323.4,87.5z
		 M364.9,94.8c0.1-24.5-33.3-15.6-35.9,2.9C325.8,122.3,367.4,117.5,364.9,94.8z"/>
	<path class="st0" d="M288.9,64.4c-7-2.4-8.6,2.8-1.6,4.8c-13.6,32.2-56.4,0.6-43.5-27.5C258.2,12.1,298.1,35.6,288.9,64.4z
		 M267.8,36.9c-12.2-0.1-20.1,12.3-19.1,23.6c1.8,19.8,29.3,12.8,34.2-1.6C287.7,47.9,279.2,36.4,267.8,36.9z"/>
	<path class="st0" d="M20.4,330.1c-2.5-0.6-4.9-1.3-7.6-2c8.9-29.5,27.4-54.5,41.1-81.8c3.4,1.6,6.7,3.2,10.1,4.8
		C48.7,276.9,35.8,304.3,20.4,330.1z"/>
	<path class="st0" d="M37,332.3c28.6-18.3,61.2-28.6,93.4-38.6c1.7,2.3,3.4,4.6,5.2,6.9c-32.3,11.4-65.1,23.3-98.3,32.3
		C37.2,332.7,37.1,332.5,37,332.3z"/>
	<path class="st0" d="M204.9,191.8c3,5.7,5.8,10.4,9.4,15.6c11.8,17.7,38.3,19.5,53,4.3c-2.2,15.9-18.4,26.5-33.8,24.9
		C213.3,234.4,203.2,209.9,204.9,191.8z"/>
	<path class="st0" d="M382.6,206.9c1,23.7-32.8,41.7-47.7,20.4C308.1,189.3,378.7,156.7,382.6,206.9z"/>
	<path class="st0" d="M340.2,107.1c12.3-4.7-2.1-16.2-4.7-4.1c-3.3-7.7,5.1-16.8,12.8-17.4C365.1,85.8,359.8,112.9,340.2,107.1z"/>
	<path class="st0" d="M262.8,66.3c7.2-7-2.8-12.5-7.1-4.5c-4.1-9.9,4.5-20.9,14.6-18.1C285.2,48.6,274.3,66.5,262.8,66.3z"/>
</g>
</svg>
