<?xml version="1.0" encoding="utf-8"?>
<!-- Generator: Adobe Illustrator 26.0.0, SVG Export Plug-In . SVG Version: 6.00 Build 0)  -->
<svg version="1.1" id="Capa_1" xmlns="http://www.w3.org/2000/svg" xmlns:xlink="http://www.w3.org/1999/xlink" x="0px" y="0px"
	 viewBox="0 0 595.3 845.9" style="enable-background:new 0 0 595.3 845.9;" xml:space="preserve">
<style type="text/css">
	.st0{fill:#FFFFFF;}
</style>
<g>
	<path d="M594.8,508.8c-9.5-27.9-120.8-35.5-129.3-4c-1.9-9.8-2-20.3-3-30.4c2.6-4.4,16.3-5.1,21.6-7.4c2.2-0.6,4.7-2.1,6.4-1.4
		c1.8,0.7,2.9,3.4,4.3,5.3c6.7,9.1,15.2-1.5,11.6-9.3c5.8-3.3,8.9,0.8,14.2,2.4c4.1,1.2,8.6-1.7,9-6.1c0.5-3.2-0.5-6.1-3.3-7.6
		c-8.7-4.4-16.4-8.9-25.9-11.9c5.8-3.7,11-5.3,17-8.1c7.6-3.1,3.5-18.6-5.5-14.8c-5.1,1.9-9.9,4.5-14.9,6.9
		c-6.9-36-58-30.4-59.5,4.8c-14.4,0.2-28.3-2.7-42.5,1.5c-8.4-19-18.7-37.2-32.1-53.4c40.7-38.9,42.8-101.6,16.2-149
		c-1.9-3.8-1.8-3.5,1.9-5.5c7.3-3.9,14.8-7.6,21.7-12.1c28.9-20.4,71.8-58.9,71.7-96.7c-0.3-37.3-28.7-71.6-65.7-77.7
		c-17.9-3.5-35.1,4.9-53,6c-39.3,6.9-78.5,14.2-115.6,29.3c3.6-108.3-123.2-83.9-47,23.2c-7.6,5-15,9.8-22.5,14.8
		C124-4.3,35.3,80.7,127.5,149.6c-54.3,69.6-51.4,170.8,3.1,237C97.8,436,85.4,495.4,75.1,552.9c-1,4.7-8,2.9-12.4,4.7
		c5.5-11.3,7.2-22.8-2-32.8c-7-7.8-18.3-9.1-25.9-2.6c-10.3,9-10.7,25.8-3.3,36.6c-7.3,0.8-13.5-3.5-16.2-10.5
		c-8.2-15-27.5,2.6-3.9,20.9c13,10,26.6,7.5,40.5,1.3c6.8,1.7,13.6,0.4,20.2,0.4c-9.8,86.9-24.2,56.5,95.5,64.2
		c-4.5,5.4-6.7,11.8-3.6,18.8c3.4,10.3,16.6,7.2,25.8,7.7c0.3,23.2,0.7,46.1,1,69c-2.9,0.1-2.8,0.1-3.6-3
		c-5.4-21.3-15.5-39.7-32.7-53.7C119.4,643.8,66,651,35.5,684C1,719.5,2.3,782.1,35.8,817.9c55.4,59.4,154.7,17.8,154.4-62.6
		c0.1-2.2,0.9-2.6,2.8-2.8c9.1-1,17.8-2.1,27-3.1c-3.1,3.3-4.9,6-3.2,10.4c1.6,6,7.2,5,12.2,6.1c-3.5,3.4-5.3,6.8-2.8,11.5
		c3.2,7.1,12.3,2.5,18.3,2.8c9-0.1,23.1,1.8,17.2-12.1c14.7,0.3,31.7,3.5,44.2-5.4c5.1-4.9,3.6-13.3-2.6-16.9
		c-12.7-6.7-27.2-2.7-40.8-1.6c27.3-7.7,56.4-13.9,80.1-31c38.8-25.5,74.5-56.9,121.6-65.4c0.3,2.9,0.6,5.4,0.8,7.8
		c-82.7,13.5-104.3,131-34.6,175.1c68.1,44,149.6-15.9,137.3-93.6c-5-43.4-40.2-80.8-84.4-83.3c-1.4-2.3-2.3-9.9,0.4-12
		c4.6-4.7,3.6-12.8-1.9-16.5c-1.4-1-2.8-2.1-1.8-4.3c24.4,6.4,49.1,10.8,74.4,9c5-1.1,25.4,0.3,26-4.9
		C589.3,587.1,595,547.8,594.8,508.8z M51.6,546.5c-1,2-2.5,3.7-3.8,5.7c-8.5-4.1-6.4-10.9-2.8-15.1
		C49.7,532.8,54.3,542.3,51.6,546.5z M214.2,685.5c2.3,0.5,4.6,0.8,7.3,1.3c0.2,12.5-0.8,25.3-1,37.7c-0.1,5.6-7.7,2.7-11.8,4.1
		c-0.3-22.6-0.7-45-1-67.5c5.3-0.3,10.2-0.6,15.9-1c-3.7,3.5-5.5,7.8-9.7,10.5C206.2,672.2,207.4,683.7,214.2,685.5z M400.3,441.1
		c14,1.8,27.9,3.4,41.7,5.4c5.2,1.5,8.3,5.2,13,8.5c-14.8,3.7-29.2,7.4-43.9,11.2c-1.6,0.4-2.4,0.3-3-1.4
		C405.7,456.9,402,449.1,400.3,441.1z M241.4,709.7c-0.1,0.8-1.5,1.3-2.8,2.5c0.8-4.4-2.6-13.7,3.5-12
		C241.9,703.5,241.9,706.6,241.4,709.7z M458.8,626.9c-27.5,6.4-54.4,15.8-77,33.4c-34.6,26.5-71.3,52.2-115.2,59.7
		c-6,2.1-8.4-4.4-13.5-6.7c-3.3-3.2-0.4-8.7-0.7-13c6-0.7,13.7,0.6,12.8-9.5c10.3-0.1,20.9,1,30.4-3.8c7.8-3.6,7.4-15.7-0.3-19.3
		c-16.7-7.7-35.5-0.3-53.1-1c4-3.1,6.4-7.7,10.9-8.9c10.6-0.9,23.5-2.3,17-16.3c-2-4.2-1.2-5.4,3.3-5.4
		c50.5,0.7,101.1-0.8,151.6-2.9c11-0.4,12.8-3,11.4-13.9c-4.8-40.8-10.7-81.3-19.5-121.5c-0.1-4.1-4-9.5-1.4-13
		c9.6-2.5,19.3-4.8,29-7.2c2.4,22.4,4.9,44.7,7.3,67.1c-2.3,0.9-5.9,0.1-5.5,4.2c0.3,2.9,1.9,3.7,6.9,3.6
		c1.4,10.8,2.9,21.7,4.4,32.9c-3-0.3-6.5-0.7-6.8,3.1c-0.4,2.3,0.5,3.8,2.8,4.4c2.8,0.5,5.6,0.7,5.6,4.4c0.7,8.4,1.7,16.9,2.9,25.3
		C462.5,625.6,461.2,626.2,458.8,626.9z"/>
	<path class="st0" d="M143.3,148.2c4.6-3.1,18.6-20.7,22.3-18.5c4.3,1.2,10.6-0.6,8.9-6.2c-2.9-5.1,20.1-15.8,24.3-19.8
		c3.4-1.7,8.7,4.6,10.2-3.4c0.1-2.4,1.1-3.4,3.1-4.3c4.6-1.3,9.2-6.6,14-5c4.6,3.5,8.2,2.7,10-2.8c11.5-18.3,107-34.6,131.3-37.5
		c-7.5,12.6-7.8,26.5-5,40.4c6.1,34.8,29.4,76.6,70.2,72.4c-16.8,18.7-37,34.4-58.9,46.9c-3.9,2.9-5.8-4.3-10.1-1.4
		c-5.1,2-0.3,7.7-5.3,9c-3.3,1.2-8.4,3.1-6.6,7.4c0.7,2.1,2.2,3.3,4.6,2.9c3-0.5,5.9-1.3,8.9-1.7c15.2,16.5,21,50.8,19.9,73.7
		c-9.3,98.4-144.5,138.8-221.9,91.6c-75.2-45-84.1-176.5-24.6-234.6C144.9,162,148.1,152.3,143.3,148.2z M299.6,74.1
		c-40.1,0.5-42.1,69.2-1.5,68.2C339.7,140.5,343.6,76.3,299.6,74.1z M284.7,337.5c35.7-1.1,72.9-30.9,67.6-69.6
		c-0.4-3.7-2.9-5.3-6.1-4.2c-2.5,0.9-2.8,3-2.8,5.3c-0.1,13-4.1,24.6-12.3,34.8c-14,17-38.1,23.8-59.3,18.7
		c-13.6-3.6-24.1-11.7-32.6-22.7c-4.1-6.6-13.7,1-9.7,6.9C240.3,327.8,259.6,337.6,284.7,337.5z M260.8,146.8
		c0.5-19.4-14-45.6-36.3-38.3c-18.7,7.8-31.3,30.6-25.2,50.5C211.2,196.9,262.5,182.3,260.8,146.8z M157.7,215.2
		c-60.5,1.9-38.5,100.8,14.4,97.1C220.2,307.9,225.1,216.8,157.7,215.2z"/>
	<path class="st0" d="M142.7,394.2c60.7,48,152.3,38.2,210.2-9.5c15.3,18.3,24.4,39.8,33.5,61.9c-8.4-0.9-13.3,7.9-19.7,11.8
		c-5.4,4.9-42.7-7.4-53-8.3c-8.1-0.4-38.4-14-40.9-4.3c-1.1,2.9,0.3,6.7,3.5,8.1c19.8,9.6,40.9,15.3,62.3,20.2
		c5.8,1.4,11.7,2.1,17.6,3c1.5,0.2,2.3,0.9,3,2.4c4.5,10.1,9.9,19.6,19.2,26.1c7.3,6.5,15.5-6.2,9.5-11.4
		c-4.5-4.5-9.2-8.3-13.2-13.3c10.5-4,3.4,13.7,24.9,7.3c11.4,43.6,17.1,88.2,22.9,133.3c-113.1,6.8-226.3,1.7-339.5-0.6
		c-1.9,0-2.5-0.6-2.2-2.5c2.1-15.3,4-30.6,6.3-45.9c8.8-61.2,19.9-124.9,55-177.2C142.1,394.9,142.3,394.7,142.7,394.2z"/>
	<path class="st0" d="M474.1,532.5c29.8,18.7,84.5,15.2,112.8-5c-0.3,30.6-6.2,60.8-12.3,90.7c-2,7.9-51.9,3.7-60.6,2.5
		c-4.6-1.4-31.5-4.2-30-9.3C481.3,585,477.8,558.8,474.1,532.5z"/>
	<path class="st0" d="M394.2,48.7c36.4-2.7,69.5,30.1,68,66.3c0,26.8-31.4,45.7-54.2,30.4c-24.9-14.1-45.7-61.1-32.9-87.9
		C378.9,49.6,386,47.8,394.2,48.7z M402.3,112.7c17.5-0.8,6.8-34.3-7.5-19.8C388.9,99.7,391.5,113.3,402.3,112.7z M442.2,92.3
		c-2.1-18.2-23.3-11.8-19.2,4.6C426.9,109.2,443.2,105.4,442.2,92.3z"/>
	<path class="st0" d="M466.9,643.7c-82.8,16.5-117.5,84-202.4,96c0-5.3,0-10.4,0-16c84.6-13.5,116.4-81.7,201-95.5
		c-1.2-10.6-2.4-21.3-3.6-31.9c4.1,0,7.7,0,11.5,0c1.1,9.9,2.3,19.3,3.8,29c2.4,3.1,6.9,4.3,6.6,9.3c0.2,7.4-6.4,4.2-4.5,12.5
		c2.6,34.2,5.3,68.6,5.5,102.9c0.1,3.7-2.1,6.1-5.5,6.2c-3.4,0.2-6.1-2.3-6.2-5.9c-0.4-11.9-0.6-23.8-1.2-35.7
		C470.3,690.9,469.6,667.2,466.9,643.7z"/>
	<path class="st0" d="M521,492.5c17.7,0.1,35.2,1.9,52.1,7.5c22.5,6.4,13.1,21.6-3,28.8c-10.7,5-22,7.3-33.6,8.1
		c-20.5,0.5-45.7,0.3-61-15.4c-15.7-27.7,27.8-29.7,45.3-28.3C521,493,521,492.8,521,492.5z"/>
	<path class="st0" d="M66,679.5c35.6-21.5,79.3-3.9,98.8,30.7c-14,8-27.2,16.2-40.8,24.7c-10.6,5.5-13.1-14.4-34-6.4
		C82.7,712.1,76.9,694.8,66,679.5z"/>
	<path class="st0" d="M532.5,806.4c-12.7-14.5-25.2-29-37.9-43.5c9.8-10.8,3.2-16.6,7.5-20.5c14.7-9,28.8-18.1,43.7-27.1
		C561.6,745,556,780.3,532.5,806.4z"/>
	<path class="st0" d="M72.7,823.9c3.4-8.2,6.8-16.2,9.8-24.2c3.2-8.7,6.1-17.4,9-26.2c0.7-2.2,1.7-2.8,4.1-2.3
		c7.5,2.7,15.1-5.8,17.5-2c12,14.1,25,27.6,36.4,42.2C130.9,829.7,100.4,837.5,72.7,823.9z"/>
	<path class="st0" d="M450.2,823.4c8.6-15.9,13.2-33.7,19.7-50.6c0.6-1.6,1.4-2.4,3.4-2c8.6,3.1,15.7-6.4,18.9-1.3
		c11.8,14.1,24.1,27.7,35.8,41.8C507.3,831.1,476,836,450.2,823.4z"/>
	<path class="st0" d="M193.9,733.7c-0.4-24.3-0.7-48.1-1.1-72.3c4,0,7.7,0,12,0c0.4,23.4,0.7,46.9,1.1,70.8c6.2-0.7,12-1.3,17.4-1.9
		c1.9,5,3.7,9.8,5.6,14.8c-42.2,6.1-85.1,8.8-127.7,10.8c-10.9,1.4-10.4-15.8-0.5-15.6C131.8,738.1,162.8,736.4,193.9,733.7z"/>
	<path class="st0" d="M66.4,821.1c-27.1-14-41.8-42.2-41-72c0-2.9,0.3-3,3.1-2.3c16.7,4.2,33.4,7.9,50.6,9.5
		c0.8,0.1,1.7,0.9,2.2,1.6c1.8,3.6,5.8,7.2,5.6,11.4C80.6,786.9,75.9,804.9,66.4,821.1z"/>
	<path class="st0" d="M445,820.7c-27.9-14-43.4-43.9-41-74.4c16,3.2,31.9,6,48,9c8.5,0,8.8,4.7,12.6,11c0.4,0.8,0.8,2,0.6,2.7
		C459.2,786.6,453.9,804.2,445,820.7z"/>
	<path class="st0" d="M134.4,141.5c-61.3-47-31.3-104.6,10.2-56.3c6.8,8.9,10.7,19.3,14.5,29.6c0.6,1.6,0.1,2.4-1.1,3.6
		C150,126,142.3,133.9,134.4,141.5z"/>
	<path class="st0" d="M202.6,88c-11.6-15.9-41.9-82.1-0.2-73.9c10.1,3.3,16.6,11,20.6,20.6c4.6,11,5.2,22.4,4.1,34.2
		c-0.6,5.9-2.8,9-8.3,10.9C213,81.9,208.3,85.4,202.6,88z"/>
	<path class="st0" d="M80.2,750.3c-18-2.2-34.9-5.9-52.4-10.1c-0.7-0.2-1.7-1.4-1.6-2c3.2-23.4,14.8-43.3,35.3-55.2
		c9.9,15.1,16.1,32.4,23.4,48.8c0.3,0.6,0.4,1.6,0.1,2.1C81.5,738.6,80.4,744,80.2,750.3z"/>
	<path class="st0" d="M439.2,681.9c10.3,15.6,16.2,32.3,23.7,49.1c1.1,3.6-2.5,7-3.2,10.4c-0.8,2.5-0.9,5.2-1.4,8.2
		c-17.3-1.7-34.5-6.4-51.7-9.4c-1.7-0.3-2.3-1-2.1-2.9C406.9,713.9,420.8,696,439.2,681.9z"/>
	<path class="st0" d="M542.8,709.7c-15.2,9.3-30.3,18.4-45.3,27.5c-2.7-3.1-8.7-5.3-10.1-9.6c-0.9-19.1-2.4-38.2-2.9-57.3
		C504,670,531.5,688.1,542.8,709.7z"/>
	<path class="st0" d="M447.3,473.3c-18.5,4.8-36.5,9.1-55,13.2c-3.8,0.8-7.4-1.4-8.6-4.8c8.6-0.6,24.5,2.7,26-9.3
		c0.2-2.1,1.1-2.7,3-3.2c17-3.3,33.7-11,51-11.7c9.4,1.6,17.5-0.6,24.7-7c5.2-3.3,12.3-3.8,18.2-5.4c3.8-0.8,6.2,1.1,7.3,5.3
		c0.8,3.2-0.8,5.8-4.4,6.7c-16,4.1-32,8.1-47.8,12.5c-2.2,0.6-2.3,1.7-2.1,3.9c0.8,7.5,1,15,1.8,22.6c-0.4,10.1,7.8,41.6,1.2,46.9
		c-5.3,0.3-9.4,1.1-8.3-5.7C451.7,516,450.1,494.6,447.3,473.3z"/>
	<path class="st0" d="M154.4,807c-49.9-58.5-55-46.2,21.7-52.7C175.3,774.6,167.6,791.7,154.4,807z"/>
	<path class="st0" d="M244,638.6c-7.5,5.4-12.7,15.2-21.4,18.5c-14.2,0.5-28.5,0.8-42.7,1.2c-5.4,0.9-11-0.3-13.1-5.3
		c-8.2-22.6,20.8-15,33.3-15.7c14.4,0.3,28.9,0.2,43.3,0.5C243.6,638,243.8,638.3,244,638.6z"/>
	<path class="st0" d="M494.7,428c0.7,37.6-54,33.4-54.3-0.1C439.7,394.3,494.5,390.9,494.7,428z M467.9,409.8
		c-26.4,1.8-24.3,34.9,1.3,36.6C493,445.8,491,409.6,467.9,409.8z"/>
	<path class="st0" d="M468.2,728.4c-6.9-17.5-14.2-33-23.4-49.9c6.9-2.6,13.9-5.2,21.8-8.1c1,20,2,38.9,3,57.8
		C469.2,728.3,468.7,728.3,468.2,728.4z"/>
	<path class="st0" d="M488.5,732.8c5.8,5.8,12.8,13.3,7.8,21.9c-4,7.6-10.2,12.6-18.9,13.2c-17.1,1.8-20.9-25.9-8.8-35.7
		c0.4,0.2,0.9,0.4,1.3,0.7c-20.1,48.4,38,29.6,19.9,7.6C487.8,738.3,486.5,736.3,488.5,732.8z"/>
	<path class="st0" d="M472.1,584.8c-4.1-0.7-9.9,2-11.9-2.2c-1.3-8.9-2.5-17.9-3.7-26.8c-0.1-0.5-0.1-1.2,0.2-1.6
		C471.8,550.5,470.2,575.1,472.1,584.8z"/>
	<path class="st0" d="M136,734.3c10.4-6.1,20.8-12.2,31.8-18.7c2.1,5.5,4.1,10.9,6.2,16.6c-13,1-25.4,2-37.7,2.9
		C136.3,734.8,136.1,734.6,136,734.3z"/>
	<path class="st0" d="M112.4,736.8c-8.5-0.4-19.4-6.6-23.4,4.4c-5.1,10.2,0.7,26.6,14.5,21.6c3.8-2,7.9-3.5,11.9-5.1
		c0.2,0.3,0.4,0.7,0.7,1c-12.1,16.1-34.8,10.6-32.8-10.4c0.3-6.7,2.3-12.9,8.7-16.5C97.7,728.6,110,729.9,112.4,736.8z"/>
	<path class="st0" d="M240.5,721.2c0.3,4.8-2.9,14.2,3.9,14.7c7.4,1,5.9-7.6,6.4-12.5c0.3-0.1,0.6-0.2,0.8-0.4
		c7.8,6.1,4.9,22.4-6.3,21.5C233.7,743.5,226.9,723.5,240.5,721.2z"/>
	<path class="st0" d="M250.9,716.8c22.8,6,7.2,46.2-13.9,30.8c-7.2-4.7-11.4-14.7-9.3-22.3c1.6-5.5,8-12.3,13.5-9.9
		c-0.4,0.7-0.8,1.8-1.4,2c-16.2,4-10.1,27.5,3.8,30.1c8.5,1.8,13.4-3.8,14.9-10.7C261,725.7,255.4,724.6,250.9,716.8z"/>
	<path class="st0" d="M248.1,776.6c-6-0.5-17.9,5.8-19.9-2.6c-0.4-2.7,0.9-4.5,3.9-4.6c8.2-0.2,16.4-0.2,24.6,0
		c2.3,0,3.7,1.5,3.5,4.2c-0.6,5.8-8.2,2.8-12.1,3.5C248.1,776.9,248.1,776.7,248.1,776.6z"/>
	<path class="st0" d="M247.6,697.2c-4.8-1.3-16.9,2.2-17.2-5c0.2-2.8,2.1-2.9,4.3-2.7c9,1.4,19.3,0.3,27.6,3.2
		C262.1,698.9,252,696.1,247.6,697.2z"/>
	<path class="st0" d="M245.1,700.2c1.6,0,2.7,0,4.3,0c-0.7,10.4-1.2,20.6-1.9,30.8C239.1,741.1,245.9,703.8,245.1,700.2z"/>
	<path class="st0" d="M241.7,753.8c1.7,0.1,2.9,0.2,4,0.2c-0.6,4.4,2.7,13.6-4.5,11.3C241.3,761.5,241.5,757.8,241.7,753.8z"/>
	<path class="st0" d="M267.9,644.4c2.9,5.7-0.6,9.2-7.8,9.1C262.4,650.8,265.1,647.7,267.9,644.4z"/>
	<path class="st0" d="M390.1,457.4c0.8,2.3,1.4,4.3,2.3,6.9c-3.6,0.3-6.8,0.6-11,1C384.6,462.3,387.3,460,390.1,457.4z"/>
	<path class="st0" d="M487.2,755.2c0.2-3.9,0.5-7.9,0.7-11.9C491.8,746.3,491.4,752,487.2,755.2z"/>
	<path class="st0" d="M469.4,745.7c0.1,6.6,1.7,10.7,7.3,14.4C469.9,760.9,466.7,751.3,469.4,745.7z"/>
	<path class="st0" d="M91.6,754.9c2.5,3.2,5.8,4.5,9.7,4.2c0,0.3-0.1,0.7-0.1,1C97.1,760.5,92,760.2,91.6,754.9z"/>
	<path class="st0" d="M296.2,129.3c-22.6,0.3-22.6-41.6-0.3-41.5C327.2,87.4,325.7,127.7,296.2,129.3z M305.9,94.6
		c-15.3,0.1-10.4,20.5,1,20.9C320.3,115.2,318.5,93.9,305.9,94.6z"/>
	<path class="st0" d="M250.2,146.7c1,23.1-32.9,32.6-40.6,9.8C199.2,121.1,246.5,104.2,250.2,146.7z M246.8,143.2
		c0.2-13.5-19.6-15.4-20.3-2.2C226.6,154.7,246,157.7,246.8,143.2z"/>
	<path class="st0" d="M123.9,253.4c4.9-61.8,91.2-34,81,18.5C193.8,336.7,122.4,308,123.9,253.4z"/>
	<path class="st0" d="M483.5,428.8c-1.3,27.8-46.1,9.4-27.4-10.8C465.2,407.5,483.9,414.8,483.5,428.8z"/>
</g>
</svg>
