<?xml version="1.0" encoding="utf-8"?>
<!-- Generator: Adobe Illustrator 26.0.0, SVG Export Plug-In . SVG Version: 6.00 Build 0)  -->
<svg version="1.1" id="Capa_1" xmlns="http://www.w3.org/2000/svg" xmlns:xlink="http://www.w3.org/1999/xlink" x="0px" y="0px"
	 viewBox="0 0 595.3 788.1" style="enable-background:new 0 0 595.3 788.1;" xml:space="preserve">
<style type="text/css">
	.st0{fill:#FFFFFF;}
</style>
<g>
	<path d="M590.5,518.6c-7-7.3-14.9-12.3-23.3-18c7.4-2,13.7-2.2,21.1-3.3c4.3-0.6,7-4.1,7-8.8c-0.9-18.5-37.1-2.3-45.5,3.3
		c-28.6-14.1-57.8-27.5-89.3-33.2c-1.8-0.3-2.7-1.3-3.5-2.9c-6.2-12.6-13.4-24.5-21.5-36c68.4-67.2,64.1-185,4.7-256.6
		c108.2-76.5,1.3-165.9-50.1-45.5c-8.8-5.5-17.4-10.8-26.1-16.1c88.7-117.5-59.9-142.5-54.3-25c-54-20.9-110.8-28.1-167.5-37.7
		c-9.8-2.9-19.9-2.3-30-0.4C71.3,41.7,16,105.4,47.3,154.9c24.5,38.6,62,70.1,103.8,88.6c-33.2,53.2-31.5,122.4,16.6,166
		c-11.3,13.7-21.5,28.1-29.5,43.9c-1.9,3.7-4.1,6-8.4,6.2c-29.5,6.5-57.4,18.4-84.2,32.2c-8.1-4.8-16.6-9-26-10.7
		c-7.1-1.1-19.3-3.5-19.6,7.1c-0.3,13.8,19,7.8,27.7,12.6C18.5,507.1,9,513,2,521.7c-6.1,8.3,5.8,17.8,12.9,10.7
		c5.4-4.3,10-8.8,15.7-12.7c-1.1,4.5-2.9,7.9-2,12.2c1.8,7,12.5,9.5,15.2,1.1c2.3-6,4-12.2,6-18.3c0.7-2.2,2-3.9,4.3-5
		c23.7-10.8,47.1-22,71.6-30.9c-25.9,64-34.5,132.8-43.5,200.8c-0.9,8.5,7.1,11.5,14.3,10.7c38.8,2.4,77.5,2.5,116.3,2.8
		c0.3,23.9,2.4,47.4,2.3,71.2c-21.7-1.6-43.2-6.9-65-5.2c-7.8,1-18.4,4.3-18,13.8c-0.4,7.6,7,11.3,13.4,12.9c7.5,2,15.2,2.3,22.9,2
		c21.4-0.9,42.8-1.6,64.1-4.4c3.6-0.4,5.5-2.6,6.5-5.8c1.5-4.4,0.5-7.2-3.7-10.6c-0.6-24.6-1.3-49-1.9-73.8
		c53,0.1,105.4,0.4,158.6-1.1c0.5,24.1,2.3,47.9,2.5,71.9c-21.7-1.1-43.2-7-65-5c-4,0.6-7.9,1.5-11.5,3.3
		c-8.7,3.8-8.9,17.1-0.1,20.9c2.1,1,4.4,2,6.7,2.6c7.5,2,15.2,2.4,22.8,2c21.5-0.9,43.1-1.7,64.4-4.5c7.7-1.3,9.3-11.8,2.6-16.3
		c-0.7-25-1.3-50.1-2-75.3c30-1.2,60-1.1,90-1.5c6.9,0,10.9-6.4,9.4-12.6c-2.5-18.4-5.3-36.8-7.9-55.2c1.2-0.5,1.9-0.2,3-0.1
		c6.3,1.1,12.6,1.1,18.8-0.1c2.1-0.4,3.7-0.1,5.5,0.9c10.8,5.7,22,6.8,33.6,2.7c10.6-3.1,31.3-21.8,19.2-32.2
		c-4.5-3.2-10.5-1.9-13.4,2.9c-3.1,8-11.2,14.4-19.7,12.7c14.1-16.2,3.5-45.9-18.3-44.5c-20.8,2.7-28.6,25.4-18.1,42.4
		c-4.8,0.3-9.1-0.4-13.4-2.1c-7.4-43.7-16.8-86-34-127.2c24.8,9.4,48.8,20.3,72.9,31.5c3,1.4,4.7,3.4,5.6,6.4
		c2,6.3,3.7,12.8,6.4,18.8c4.2,8.6,17.7,0.9,14.5-7.3c-0.8-2.3-1.3-4.7-1.9-7.1c6.1,4.1,11.2,8.8,16.9,13.2
		C592.1,539.4,599.9,525.7,590.5,518.6z M530.5,585.5c5.2-4.5,7.8,3.7,9.1,7.6c1,4.2-3.3,6.5-6,9.1
		C528.1,598.1,524.7,590.5,530.5,585.5z"/>
	<path class="st0" d="M385.8,131.9c-0.5,3.7-1.5,7.5,2.6,9.9c3.2,1.8,6.4,1.6,9.6-0.8c8.1,6.4,15.8,13.4,23,20.9
		c-5.4,7.5-0.5,14.3,7.9,8.9c75.5,80.8,49.6,241.9-65,270.8c-120,34.4-280.2-59.7-200.7-194.3c4.5,0.8,8.6,2,13,2.3
		c5.3,0,7.2-7.4,2.3-9.7c-2.6-1.3-5.2-2.3-8.2-3.5c1.9-8.7-6.4-12.7-12.2-5.8c-26.4-13.5-49.3-31.5-71.2-52.3
		c31.3,4.2,58.2-17.7,70.3-45.1c11-23.7,19.7-52.6,6.2-77c50.2,5.3,99.7,16.2,146.7,34.8c2.9,0.7,2.8,3.7,3.9,6
		c2.4,6.6,9.3,6.1,13.6,1.5c5.8,2.8,11.5,5.6,17.4,8.4c-1.1,6.1,5.6,10.8,10.1,5.9C360.5,114.9,380.3,127.2,385.8,131.9z
		 M277.2,119.3c-1.6-61-95.2-40.4-68.7,14.9C226.8,167.5,277.5,160.4,277.2,119.3z M262.6,368.2c23.6-0.2,48.8-11.5,59.7-33.6
		c3.9-8.4-7.6-15.1-13.4-5.5c-35.2,44.9-119.3,24.3-118.5-36.5c-0.3-2.9-1.1-4.3-3.3-5c-3.7-1.1-6.7,0.7-7.1,4.7
		C174.7,338,220.3,368.6,262.6,368.2z M358.8,162c0-20.8-19.8-46.1-41.7-44.6c-21.8,2.9-33.6,27.6-31,47.8
		C290.4,209.9,359.6,207.8,358.8,162z M345.6,288.2c5.2,89.7,116.1,54.1,101.1-21.8C434.4,208.9,342.1,235.4,345.6,288.2z"/>
	<path class="st0" d="M494.1,676.4c-131.5,2.5-263,8.4-394.4,0.9c13.2-88.2,22.4-184.9,79.8-257.1c68.3,52.1,171.9,61.8,243.1,10.3
		C473.3,501.6,483.2,592.1,494.1,676.4z"/>
	<path class="st0" d="M131.3,53.6c5.9,0.8,10.8-0.6,14.7,2.2c24.2,19.7,6.9,58.2-6.1,79.9c-21.6,38-78,39.1-86.2-5.5
		C49.3,86.6,89.5,52.5,131.3,53.6z M111.5,111.1c0.1,0,0.2,0.1,0.3,0.1c-0.8,13.1,15.6,17.2,21.4,6.3
		C140.9,98.6,114,88.8,111.5,111.1z M98.9,102.4c0.8-12-14.7-18.9-20.9-7.6c-4.3,7.2-1.2,19.8,8.6,19.7
		C94,114.6,98.9,109.9,98.9,102.4z"/>
	<path class="st0" d="M432.1,154.3c-9.2-9.6-18.3-18.1-28.6-26.6C436.8,28,523.3,83.9,432.1,154.3z"/>
	<path class="st0" d="M352.8,95.9c-8.2-3.4-16-7.5-24-11.1c-1.3-0.6-2.3-1.1-2.6-2.8c-4.7-22.5-0.6-50.7,20.8-63.3
		c23.3-12.8,35.2,5.7,29.4,27.9C372.4,64.6,362.7,80.5,352.8,95.9z"/>
	<path class="st0" d="M244.4,96.1c26.7-1.5,26.6,48.1-1,45C210.2,137.9,210.2,96.3,244.4,96.1z M232.7,126.4
		c12.5-0.5,18.3-20.4,3.4-22.6C219.8,100.6,215,125.5,232.7,126.4z"/>
	<path class="st0" d="M298.1,157.6c0.4-7.5,4.6-15.4,12.2-21.6c9.2-7.4,23.5-2.5,29.9,6.5C368,183.2,301.5,206.6,298.1,157.6z
		 M314.5,143.8c-0.1,0.1-0.1,0.2-0.2,0.4c-10.7-0.7-17.3,14.9-7.5,21C321.8,174.1,336.4,147.3,314.5,143.8z"/>
	<path class="st0" d="M442.6,279.1c0.9,32.2-26.7,61.2-58.8,56.7c-25.9-5.4-37.2-36.2-31.3-60C363,230.7,446.3,222.7,442.6,279.1z"
		/>
</g>
</svg>
