<?xml version="1.0" encoding="utf-8"?>
<!-- Generator: Adobe Illustrator 26.0.0, SVG Export Plug-In . SVG Version: 6.00 Build 0)  -->
<svg version="1.1" id="Capa_1" xmlns="http://www.w3.org/2000/svg" xmlns:xlink="http://www.w3.org/1999/xlink" x="0px" y="0px"
	 viewBox="0 0 595.3 790" style="enable-background:new 0 0 595.3 790;" xml:space="preserve">
<style type="text/css">
	.st0{fill:#FFFFFF;}
</style>
<g>
	<path d="M592,522.2c-6.7-7.2-13.5-13.1-20.3-20.3c9-2.9,24.8-0.7,23.2-14.2c-5.4-15.4-32.1-1.3-42,3.3c-2.2,1.1-3.9,1-6.1,0
		c-25.8-12.2-52.2-23.1-79.9-30.4c-12-3.7-17.8-21.6-24.9-31.4c-5.4-9.4-5.7-7.1,1.2-15.2c16.4-19.3,27.1-41.3,34.5-65.4
		c19.7-62.2,2.8-129.7-33.9-182c-1.6-2.4-1.1-3.6,0.9-5.4c6-5.4,12.1-10.8,17.8-16.5c28.7-24.2,38.8-85.4-13-84.5
		c-22.7,2.9-39,21.5-50.4,40.1c-11.1,21.2-10.8,14.5-28.8,5.4c-8-4.3,5.7-17.4,7.3-23.6C393.8,54.4,404.9,8.6,362.3,0
		c-40.5,4-50.8,35.9-53.5,71.5c-0.4,3.4-2,3.9-4.9,3.1c-12.1-3.4-24.2-6.9-36.3-10.2c-30.7-8.5-61.9-14.8-93.4-19.7
		c-27.4-3.6-56.2-12.3-82.1,1.5c-32.1,14.9-50.2,40-53.8,75.5c-1.6,48,62.7,95.7,100.6,117.6c11.7,6.5,9.6,4.9,5.6,15.6
		c-25.8,59-22.8,107.3,21.7,155.9c-5.5,7.9-11,15.6-16.4,23.5c-7,8.2-10.2,21-20.6,25.5c-18,6.2-36,12.3-53.8,18.9
		c-9,2-25,14.2-32.4,12.1c-13-2.5-44.9-23.1-43.1,3.1c7.2,7.4,17.1,5,26.2,8.7c-7.6,6.4-30.9,20.5-23.2,32
		C9,539.9,22.2,526,29,523.5c-1.6,8.4,6.5,23.6,13.8,11.7c2.2-4.5,3.9-9.2,5.8-13.9c1.9-4.7,4.8-8.5,9.6-10.7
		c21.8-9,42.7-20.9,65-28.3c-15.8,50.3-27.5,101.2-34.9,153.3c-2.4,15.1-3.5,30.4-4.7,45.7c-0.6,7.6,0.4,8.2,8.1,9.3
		c38.4,2.5,77,3.9,115.4,6.2c3.5,0.1,4.5,1.8,4.6,4.8c0.3,21,2.3,42.1,1.6,63c-23.2-2-46-5.6-69.3-3.1c-6.1,0.4-9.9,5.5-9.9,11.5
		c-0.1,5-0.5,11.2,5.4,12.6c11.1,5.7,109.8,8.3,101.1-12.5c-6.2-23.1-4.3-47.4-6.6-71.1c-0.3-4.8-0.2-4.9,4.5-5
		c50.9-1,101.6-2.6,152.5-2.7c1.2,23.6,2.3,46.7,3.5,70.3c-17.2-0.1-82.7-16.1-83,9.8c0.1,5.2,1.8,9.8,7.2,11.4
		c5.2,1.6,10.8,3.3,16.2,3.3c25.9-0.9,52.3,0.9,77.8-4.6c11.7-2.3,4.4-15.4,4.3-23.2c-1.7-22.9-4.3-44.9-3.7-68
		c30.6-0.9,61.6,1.9,91.9-2.8c4.7-1.3,6.8-4.2,6.4-9c-1.5-19.1-3.1-37.2-6.6-56.3c26.9-2.7,66.9,15.6,81.4-16.4c6-11.8-8-19.8-16-10
		c-4.6,5.7-9.8,11-17.3,12.5c-0.2-0.3-0.3-0.6-0.5-0.9c9-13.6,6.4-37.5-11.2-42.4c-9.3-2.3-18.2-0.9-24.9,7.4
		c-9.8,9-1.9,22.1-6.3,32.7c-7.5-0.9-8.6-8.2-9.9-14.4c-6.6-37.8-19.8-74.5-28.8-111.5c19.9,5,37.9,16.5,57.4,23.3
		c10.3,4.1,17.3,10.5,20.1,21.4c5.4,17.5,17.5,16.5,18.1-2.4c5.2,2.8,8.7,6.3,13.5,9.6C588.3,540.4,600.6,530.2,592,522.2z
		 M531.8,587.7c2.9-2.3,13.6,10.9,0.6,12.1C528,597,528.2,591.3,531.8,587.7z"/>
	<path class="st0" d="M90.9,180.4c59.3-2,88.4-70.8,74.9-122.4c46.7,5.6,92.7,15.6,136.8,32.2c5.2,2,10,4.4,12.6,9.9
		c0.3,0.7,1.6,1.3,2.6,1.4c10.5,1.5,24.1,0.7,28.8,12.5c0.4,0.9,1.6,2,2.5,2c21.6-1.2,30.4,19.8,47.1,28.2
		c28.9,11.9,18.6,28.7,28.5,29.9c16.4,4.5,22.9,26.8,30.9,40.2c16.6,31.8,15.5,69,13,103.8c-21.4,212.1-407.8,144.3-308-63.2
		c3-10.8,22.1,0.3,19.3-9.5c-4-7.8-9.4-14.1-18.5-16.4C133.7,221.1,110.5,200.8,90.9,180.4z M278.2,116.2
		c-6.4-37.6-57.8-48.8-72.1-8.2C195,162.1,275.7,177.4,278.2,116.2z M262.1,368.2c24.1,1.2,51.4-10.1,60.3-34.2
		c0.9-2.5,1.4-5.2-0.9-7.3c-5.1-4-11,2.3-14.9,5.5c-6.8,5-13.3,10.8-20.7,14.8c-27.8,13.1-65.7,5.2-83.8-20.5
		c-7.7-10.3-8.8-23.1-13.9-34.4c-1.7-3.3-5.8-3.2-7.1,0.3C172.9,336.4,221.4,370.3,262.1,368.2z M286.5,162
		c-1,49.2,75.9,46.8,72.8-2.1c-1.8-23.8-33.8-54.4-56.5-35.1C292.3,134.5,286.2,146.5,286.5,162z M392.4,341.9
		c30-0.4,54.5-27.4,55.3-56.9c1.5-19.7-7.1-44.6-29.1-48.1C331.7,221.4,323.2,339.4,392.4,341.9z"/>
	<path class="st0" d="M423.2,433.6c47.2,65.4,55.3,148.6,69.2,225.8c-0.1,3.7,4.1,16.9-1.5,16.8c-129.6,4.9-259.6,6.3-389.2,1.6
		c11-87,22-180.5,75.9-252.8c1.9-2.6,3.6-2.3,5.9-0.6c46.7,35,101,42.9,157.7,38.8C371.1,462.2,397.2,446.9,423.2,433.6z"/>
	<path class="st0" d="M128.2,55.4c4.3,0.4,8.7,0.9,13,1.2c12.3,1.7,15.3,17,14.9,27.3c-1,28.6-12.4,52.4-34.3,70.6
		c-20,16.6-49.7,11.1-62.9-11.1C40,101.8,83.7,54.6,128.2,55.4z M98.1,102.4c-0.2-15.4-18.7-18.2-21.4-0.5
		C75.4,119.2,99.2,120.8,98.1,102.4z M113.2,112C113.1,112,113.1,112,113.2,112c-1.7,19,22.4,13.9,21-1.8
		C132.2,96,111.6,95.1,113.2,112z"/>
	<path class="st0" d="M471.3,97.3c-0.9,21.8-18.5,38.5-33.4,52.6c-2.6,2.2-5.2,2.8-7.6,0.6c-4.7-5.6-25.7-19.9-23.8-26.2
		c7-17.9,16.8-35.4,34.2-45C455.8,70.8,473.4,78,471.3,97.3z"/>
	<path class="st0" d="M325.7,83.7c0.7-11.8,0.5-24,2.6-35.7c3.3-18.3,23.7-39.1,42.9-28.4c1.8,0.9,3.1,4,3.5,6.3
		c5.9,24.2-7.5,45.7-19.7,65.5c-2.8,4.8-3.3,4.5-8.3,2.1C339.9,90.3,333.1,87.1,325.7,83.7z"/>
	<path class="st0" d="M262.8,120.2c2.2,29.1-39.3,24.7-42.6,1.5C216.1,95,265,86.8,262.8,120.2z M244.1,114.5
		c-0.3-19.4-28.7-8-21.5,6.9C228.2,131.9,244.6,125.9,244.1,114.5z"/>
	<path class="st0" d="M323.6,185.1c-14.8-0.8-26.3-12.9-23.8-27.3c2.1-9.3,7.4-20.7,17.8-22.4C350.5,131.2,357.6,183,323.6,185.1z
		 M313.3,146.6c-0.1-0.3-0.2-0.5-0.3-0.8c-13.6,0.9-12.7,22.8,0.4,21.9C328.3,165.7,330.6,145.6,313.3,146.6z"/>
	<path class="st0" d="M441.2,281.3c2.3,31.4-26.5,59-57.8,54.2c-24.1-7.9-35.9-35.7-29.7-58.6C364.6,233,446.7,225.3,441.2,281.3z"
		/>
</g>
</svg>
