<?xml version="1.0" encoding="utf-8"?>
<!-- Generator: Adobe Illustrator 26.0.0, SVG Export Plug-In . SVG Version: 6.00 Build 0)  -->
<svg version="1.1" id="Capa_1" xmlns="http://www.w3.org/2000/svg" xmlns:xlink="http://www.w3.org/1999/xlink" x="0px" y="0px"
	 viewBox="0 0 595.3 625.6" style="enable-background:new 0 0 595.3 625.6;" xml:space="preserve">
<style type="text/css">
	.st0{fill:#FFFFFF;}
</style>
<g>
	<path d="M589.7,388.6c-2.6-1.2-5.4-2.2-8.2-2.7c-9.7-1.5-19.3-2.8-29-3.8c-0.2-3.3-0.5-6.3-0.7-9.5c42.6-7.7,58.3-63.2,21.4-88.7
		c-42.5-30-94.1,27.4-65.4,68.7c-2.9,1.7-5.6,3.4-8.4,5c-10.3-8-20.2-21.8-33-25c-5.2-1.3-8.8,4.4-10.6,8.6
		c-3.2,11.2,16.7,25.7,25.2,30.9c-5.3,5.6-10.4,11-15.6,16.4c-4.3-1.4-8.5-2.8-13.4-4.5c5.4-3.2,10.1-4.7,15.6-7.2
		c6.9-2.7,3.5-15.4-4.2-13.2c-2.9,0.7-5.8,1.7-8.4,3c-6.5,3.2-12.1,7.7-17,13c-1.1,1.2-2,1.6-3.7,1.3c-20.1-4.1-40.4-6.4-60.9-6.2
		c-0.8-1.8-1.5-3.5-2.2-5.2c7.1-4.5,14.1-8.7,21.2-13.1c2.9-1.7,6-4,5.2-7.8c-1.6-11.2-1.7-22.6-2.9-33.9
		c-0.8-5.7,6.7-10.5,9.7-15.2c1-1.2,2-1.5,3.5-1.6c9.5-0.3,19.4-1,28.8-0.9c3.5,3.7,7.2,6.2,11.9,8c8.3,3.1,16.8,6.2,25.8,6.5
		c2.3,0.2,3.8-1.1,4.3-3.1c1.2-4.2-4.7-5.2-7.7-6.5c2.9-0.5,5.7,0.2,8.7,0.3c3.8,0.5,5.5-4.6,2.9-7c-1.7-1.5-3.7-1.9-5.9-2.8
		c2.2-1,4-1.8,5.8-2.8c1.4-0.8,1.8-2.2,1.5-3.8c-0.3-2.6-2.9-3.1-5.1-3.6c2.8-1.2,5.2-2,4.6-5.5c-0.4-2.4-2.3-3.9-4.7-3.7
		c-14,2.7-27.8,7.4-40.9,12.9c-0.7,1.7-2.1,1.4-3.4,1.3c-13.9-0.5-27.9-0.1-41.7-1.1c0.1-5.9,4-15-4.2-17c-9.4-1.7-9.1,10.6-10.6,17
		c-4.6-0.5-9.1,0.2-13.8-0.8c19.8-39.1,6.5-84.9-21.2-116.5c31-20.8,55.4-51.1,70.2-85.3c14.7-41.3-25.5-82.6-66.1-83.6
		c-9.9-0.6-19.5,1.1-28.5,5.6C275.1,20.3,232.1,35,192.6,58.2C180.2-36.4,65.3,5.7,153.1,85.9c-6.4,5.8-12.5,11.2-18.7,16.7
		C76.1,13.7,4.1,100.5,101.1,146c-33,58.5-26.5,135.9,19,186.1c-28.5,43-41.3,93.7-49.8,144c-0.2,3.4-8.2,3.7-10.9,3.3
		c0.9-2.3,1.9-4.4,2.6-6.6c6.5-16.4-13.2-35.4-28.4-24.5c-10.3,7.4-11.9,23.2-3.9,32.8c-7.3,1.5-13.4-4-16.1-10.7
		C5.6,461-10,473,9.2,489.3c10,8.3,24.3,9.5,36.3,3.2c1.5-0.8,2.9-1.1,4.7-0.8c5.8,1.4,11.5,0.5,17.4,0
		c-8.6,73.7-22.8,51.4,74.3,56.1c-0.7,19.7-1.2,39.2-1.6,58.9c0.4,2.8-3,3.9-3.4,6.6c-1.1,4.2,1.7,8.4,5.9,8.9
		c14.6,2,29.3,2.6,44,3.2c10.6-0.1,21.9,1.7,31.7-3.5c6.8-3.2,6.9-13.6,0-16.6c-6.1-3-13.1-3.7-19.8-3.1
		c-14.3,1.3-28.1,2.6-42.4,4.5c0.8-19.7,1.5-39,2.3-58.5c42.7,0.8,85.4,1.3,128.1,1c-0.5,20.1-1,39.9-1.5,59.2
		c-5.2,4.7-4.6,12.7,3,13.9c5.8,0.7,11.5,1.4,17.3,1.8c14.9,0.9,29.8,1.8,44.7,1.3c4.9-0.2,9.6-1.2,13.9-3.8
		c9.1-6,3.7-16.8-5.7-18.3c-4.9-1.4-10-1.6-15-1.1c-14.2,1.4-27.9,2.8-42.1,4.5c0.8-19.4,1.5-38.4,2.3-57.4
		c25.5-0.3,51-0.7,76.5-1.6c7.1-0.2,14.1-0.6,21.2-0.9c5.7-0.2,8.8-4.9,7.9-9.3c-6.9-49.6-12.9-99.8-29.6-147.4
		c18.1,1.1,36,4.4,54,7c1.7,0.2,3.2,0.7,4.2,2.2c3.2,4.7,6.4,9.4,9.6,14.1c-1.8,2.9-5.4,7-0.9,9.2c19.4,8.9,39,17.7,58.4,26.6
		c9.9,4.6,19.8,9.3,29.7,13.9c3.1,1.5,4.6,1,6.1-2c6.1-18.1,7.6-37.4,10.6-56.2c12.2,3.9,26.2,7.4,38.5,2.1
		C597,403.8,597.3,391.7,589.7,388.6z M48.5,469.1c-0.8,2.5-2.3,4.4-4.5,6.1c-5.7-3.2-6.5-8.3-2.2-13.2c1.2-1.6,2.7-1.6,4.4-0.4
		C48.3,463.2,49.3,466.4,48.5,469.1z M339.9,319.7c5.6-6.9,11-13.7,16.7-20.7c6,7.1,13.2,12.7,21.7,16.8c1.2,10.9,2.4,21.4,3.7,32.3
		c-5.4,3.1-11,6.2-16.8,9.5C358,343.8,349.7,331.1,339.9,319.7z"/>
	<path class="st0" d="M110.9,150.4c7.7,3,10.4-3.4,5.1-8.2c4.4-7,9.6-13.4,15.1-19.8c4.5,2.1,11.8-0.7,9.3-7.2
		c-0.6-1.4-0.5-2.5,0.7-3.6c6.8-5.9,13.2-12.4,20.2-18.1c3.9,3.2,9.5-1.2,7.1-5.9c4.3-3.1,8.5-6.2,12.5-9.1c4.2,1.6,9.7,3,10.9-2.7
		c0.7-3.9,0.2-4.8,4-7c34.3-20.9,71.7-36.4,110.2-47.5c-7.5,22,4.5,44.6,17.2,62.2c13.5,19.6,37.5,31,60.8,24.7
		c-14.1,19.2-29.8,36.8-48.9,51.3c-5.3-4.6-11.8-0.5-8.9,6.2c-2.2,1.6-4.8,2.9-6.8,4.8c-2.2,2.3-0.3,6.8,2.9,6.6
		c4-0.3,7.2-2.4,11.2-3.7c25.4,30.1,38.3,73.4,18.1,109.7c-1.1,2-2.3,2.7-4.5,2.6c-8.9-0.1-17.8,0.6-26.6,2.3
		c-6.4,1-6.4,11.4,0.2,11.7c6.5,0.4,12.7,0.5,19.2-0.2C289.8,365,170,384.2,118.8,309.8C86.2,264,80.6,198.8,110.9,150.4z
		 M252.1,112.4c16.3-0.1,32.5-17,30.8-34c-1.6-19.5-22.8-32.2-40.7-24.1C212.5,67,221.4,112.6,252.1,112.4z M262,285
		c35.4,0.2,76.9-34.7,64.2-73.3c-0.8-2.5-2.5-3.5-4.8-3c-3.1,0.5-3.9,3.5-3.1,6.3c8,48.6-57.3,75.3-90.9,43.3
		c-2.7-2.4-6.8-2.2-8.7,1.1c-3.2,4.7,2.4,8.7,5.3,11.8C234.2,280.9,246.6,284.9,262,285z M224.3,127.4
		c-0.4-21.1-23.6-47.1-44.2-30.2c-10.2,8.6-15.5,19.7-15,33.2C166.8,166.7,223.7,166.5,224.3,127.4z M147.7,196.3
		c-61-0.1-40.7,85.5,9.7,85.7C210.6,282.6,207.9,194.7,147.7,196.3z"/>
	<path class="st0" d="M330.4,328.3c9.6,10.9,16.6,23.1,22.8,36.1c-10.1,8.7-10.9,23.4,5.6,12.5c21.5,50.4,28.5,105.4,35.9,159.2
		c-106.2,6-212.8,1.8-319.1-0.9c9.2-66.3,16.5-136.6,54.4-193.8C187.7,389.1,276,374,330.4,328.3z"/>
	<path class="st0" d="M511.9,357.8c9.1,9.3,19.8,15,33.2,15.3c2.5,28-3.9,56-9.6,83.3c-27.9-12.8-55.6-25.5-83.5-38.3
		C467.3,394.1,487.2,372.2,511.9,357.8z"/>
	<path class="st0" d="M345.4,13.6c30.9-0.1,61.4,25.5,58,57.8c-5.3,29.2-41.9,34.4-61.4,15.5c-13.3-11.5-22.4-25.7-27.2-42.7
		c-2.6-9.1-1.4-19.8,5.8-26.4C328.3,14.6,337.1,14,345.4,13.6z M372.6,57.3c9.7,0.7,12.2-10.6,7.3-16.9c-3.8-5.3-11.6-4.8-14.7,1
		C361.5,47.3,365.2,57.4,372.6,57.3z M355.2,60.3c-0.6-17.6-23.1-12.6-17.7,3.2C340.5,73,355.9,71.1,355.2,60.3z"/>
	<path class="st0" d="M548.1,282.6c63.3,4,43.1,100.2-16.8,81C489,347.3,503.8,282.9,548.1,282.6z M541.7,352.1
		c0-0.1,0.1-0.2,0.1-0.3c5.7,0,11-2.4,13.6-7.7c0.9-1.8,0.6-3.2-0.9-4c-1.5-0.8-2.7-0.5-3.8,1.4c-1.7,3.1-4.3,4.8-7.7,4.9
		c-7.4,0.7-14.5-4.9-12.7-12.8c0.7-2.1,1.3-5.2-1.6-5.8c-1.4-0.3-2.3,0.2-2.8,1.8C521.8,340.8,529.7,351.1,541.7,352.1z M565,321.4
		c6.2,0,6.5-10.2-0.1-10C558.5,311.7,558.4,321.4,565,321.4z M544.9,304.6c0-6.7-9.9-6-9.7,0.4C535.2,311.6,545.1,311.2,544.9,304.6
		z"/>
	<path class="st0" d="M105.8,137.5c-81-41.9-22.8-100.2,19.3-25.4C118.7,120.5,112.3,128.8,105.8,137.5z"/>
	<path class="st0" d="M180.1,66.4c-6.4,4.5-12.7,9-19.1,13.5C85.6,2.9,182-8.6,180.1,66.4z"/>
	<path class="st0" d="M551.7,398.2c0.2-2.9,0.4-5.7,0.7-8.7c8.9,0.1,17.6,1.5,26.5,2.3c2,0.2,4,0.9,5.8,1.8c3.4,1.4,6.2,7,1.3,8.4
		C575.5,404.5,561.4,402.5,551.7,398.2z"/>
	<path class="st0" d="M493.4,361.9c-2.4,2-4.7,3.8-7.1,5.8c-9.5-5.1-18.7-12.4-24.1-21.9c-2.7-5.6,3.8-7.6,7.9-4.9
		c1.5,0.8,3.1,1.7,4.3,2.9C480.7,349.9,487.4,355.4,493.4,361.9z"/>
	<path class="st0" d="M460.8,306.3c-6.8-2.3-13.4-3.9-19.2-8.3c4.3-2.4,5.4-7.6,1.7-11.1c5.7-2.4,11.2-4.3,16.9-6
		c0.5,1.9,0.7,3.5-1.7,3.9c0.4,4.6,1.6,0.9,2.2,5.3c-2.1,0.2-3.8,0.3-5.7,0.5c0,0.9,0,1.7,0,2.6c1.8,0.1,3.5,0.3,5.5,0.4
		c0,1.2,0,2.3,0,3.7c-4-0.5-7.9-1.1-11.9-1.6c-0.3,0.8-0.5,1.5-0.9,2.5c4.3,2,8.7,3.2,13.1,4.5C460.8,303.9,460.8,305,460.8,306.3z"
		/>
	<path class="st0" d="M480.2,299.5c-5.5-0.6-10.8-1.1-16.4-1.7c-0.1-1.3-0.2-2.4-0.4-3.7c5.1-0.6,10,0.7,14.8,2.1
		C479.5,296.7,480.7,297.2,480.2,299.5z"/>
	<path class="st0" d="M481.1,286c-2.4,3.3-8.9,4.7-17.5,3.9c0-0.8-0.1-1.6-0.2-2.6C469.3,286.6,474.8,284.7,481.1,286z"/>
	<path class="st0" d="M463.5,282.9c0-1.1,0-2,0-3.2c4.8-1.2,9.6-2.4,14.4-3.6c1-0.2,2.1,0,2.3,1.2c0.3,1.1-0.5,1.5-1.4,1.7
		C473.8,280.2,468.8,281.5,463.5,282.9z"/>
	<path class="st0" d="M463.9,307.2c0-1.3,0-2.4,0-3.6c3.1,0.7,10.1,1.7,11.5,4.3C472.9,309.9,467.1,307.9,463.9,307.2z"/>
	<path class="st0" d="M270.3,86.4c-2.1-6.2-8.1-9.7-14.3-6.9c-10,4.6-4.1,16.6,5,17.6c-15.7,13.2-32.5-8.4-25-24
		C244.4,55.2,278.4,66.6,270.3,86.4z"/>
	<path class="st0" d="M211.2,136.4c-16.2,26.6-49.4,0.3-31.3-24.6c15.9-20.7,43.1,6.7,31.2,24.7c4.9-15.3-17.6-19.3-18.7-5.4
		C193.4,140.8,205.2,144.4,211.2,136.4z"/>
	<path class="st0" d="M149.4,201.3c53.1,0,53.2,78.7,6.6,75.5C113.8,275.6,93,200.2,149.4,201.3z"/>
</g>
</svg>
