<?xml version="1.0" encoding="utf-8"?>
<!-- Generator: Adobe Illustrator 26.0.0, SVG Export Plug-In . SVG Version: 6.00 Build 0)  -->
<svg version="1.1" id="Capa_1" xmlns="http://www.w3.org/2000/svg" xmlns:xlink="http://www.w3.org/1999/xlink" x="0px" y="0px"
	 viewBox="0 0 595.3 845.9" style="enable-background:new 0 0 595.3 845.9;" xml:space="preserve">
<style type="text/css">
	.st0{fill:#FFFFFF;}
</style>
<g>
	<path d="M143.3,148.2c0.8,0.9,1.1,1.3,1.5,1.8c1.7,2.3,1.6,5-0.2,7c-1.9,2.1-3.9,1.4-5.8,0.1c-1.6-1.2-2.4-0.3-3.2,0.9
		c-5.7,8.8-11.9,17.2-17.1,26.3c-9.9,17.4-14.8,36.5-17.2,56.2c-2,15.8-1.6,31.7,0.6,47.4c3.5,25.2,11.1,48.9,25.7,70
		c9.5,13.8,21.4,25.1,35.8,33.8c14.5,8.7,30.1,14.4,46.7,17.3c20.3,3.6,40.6,3.4,60.8-0.6c19.9-3.9,38.6-11,56-21.5
		c15.4-9.3,29-20.5,39.6-35c11.3-15.4,17.5-32.8,18.8-51.8c1.8-25.9-5.6-49.8-17.3-72.6c-0.4-0.7-1.8-1.2-2.6-1.1
		c-3,0.4-5.9,1.2-8.9,1.7c-2.3,0.4-3.9-0.9-4.6-2.9c-0.8-2.2-0.1-4.1,2-5.3c1.5-0.8,3-1.5,4.6-2.1c1.9-0.7,2.9-1.6,2.5-3.9
		c-0.5-2.2,0.7-4.1,2.8-5.1c2.1-1.1,4.2-0.7,5.7,1c1.5,1.7,2.7,1.3,4.4,0.4c21.8-12.1,40.7-28,58.2-45.6c0.4-0.4,0.5-1,0.7-1.3
		c-3.5,0-6.8,0.2-10-0.1c-3.3-0.3-6.6-0.7-9.7-1.6c-13.5-3.9-23.5-12.6-31.5-23.8c-10-14.1-15.8-30-19-46.9
		c-2.3-11.9-2.7-23.8,2.4-35.3c0.7-1.6,1.6-3,2.6-5.1c-4,0.6-7.3,1.2-10.6,1.6c-21.4,2.5-42.5,6.9-63.3,12.3
		c-17.5,4.5-34.5,10.3-51.2,17.2c-3.2,1.3-5.1,3-6.2,6.4c-1.8,5.6-5.4,6.3-10,2.8c-0.7-0.5-2.1-0.7-2.8-0.4
		c-3.8,1.7-7.4,3.8-11.2,5.4c-2,0.9-3,1.9-3.1,4.3c-0.2,3.9-3.8,5.4-7.1,3.3c-0.8-0.5-2.3-0.4-3.1,0.1c-7.4,4.8-14.6,9.8-21.9,14.5
		c-2.2,1.4-3,2.8-2.4,5.3c0.6,2.4,0,4.9-2.3,5.8c-2,0.8-4.6,0.9-6.6,0.4c-1.5-0.4-2.3-0.6-3.4,0.5
		C155.9,136.2,149.7,142,143.3,148.2z"/>
	<path d="M142.7,394.2c-0.5,0.6-0.7,0.8-0.8,1c-10.8,15.8-19.1,33-26,50.8c-9.5,24.7-16.1,50.1-20.9,76.1
		c-3.1,16.7-5.6,33.5-8.1,50.3c-2.3,15.3-4.2,30.6-6.3,45.9c-0.3,1.9,0.3,2.5,2.2,2.5c5,0,10,0.1,15,0.2c26.5,0.7,53,1.6,79.6,2.2
		c19.8,0.5,39.6,0.8,59.5,1.1c16,0.2,31.9,0.3,47.9,0.4c40.8,0.2,81.6-0.3,122.4-2.4c5-0.3,9.9-0.6,15.1-0.9
		c-5.8-45.1-11.4-89.7-22.9-133.3c-2.6,0.5-4.7,1-6.8,1.3c-4.7,0.7-9.7-2-11.2-5.9c-1.4-3.5-2.8-4.1-6.9-2.7
		c1.5,1.7,2.9,3.4,4.4,4.9c2.9,2.9,6,5.5,8.8,8.4c3,3,2.8,7.1-0.3,10.7c-2.7,3.2-5.4,3.4-9.2,0.7c-9.3-6.6-14.7-16-19.2-26.1
		c-0.7-1.5-1.5-2.2-3-2.4c-5.9-0.9-11.8-1.6-17.6-3c-12.4-3-24.8-6-36.9-9.8c-8.7-2.8-17-6.8-25.4-10.4c-3.2-1.4-4.6-5.1-3.5-8.1
		c1.2-3.2,3.3-4.3,7.3-3.5c4.3,0.8,8.6,1.5,12.8,2.5c7,1.7,13.8,3.8,20.8,5.3c15.5,3.4,31,6.4,46.5,9.8c2.6,0.6,4.6,0.1,6.5-1.5
		c2.9-2.4,5.8-4.8,8.8-7.1c3.1-2.4,5.9-5.8,10.9-4.7c-9.1-22.1-18.2-43.6-33.5-61.9c-0.8,0.6-1.3,0.9-1.8,1.3
		c-10.3,8.3-21.4,15.5-33.4,21.2c-20.8,9.9-42.6,16-65.5,17.8c-24.7,2-49-0.6-72.3-9.7c-11.2-4.4-21.9-9.7-31.6-16.9
		C146.5,397,144.8,395.7,142.7,394.2z"/>
	<path d="M474.1,532.5c0.3,2,0.4,3.3,0.6,4.5c1.9,14.4,3.9,28.8,5.7,43.2c1.3,10.4,2.4,20.8,3.5,31.2c0.2,1.9,0.9,3.1,2.9,3.5
		c9,1.9,18,4.5,27.1,5.8c18.9,2.8,37.8,2.2,56.8,0.7c2.2-0.2,3.4-0.9,3.8-3.2c1.5-8.2,3.3-16.2,4.9-24.4c3.7-19.5,5.9-39.2,7.4-58.9
		c0.2-2.4,0-4.8,0-7.4c-2.3,1.6-4.3,3.1-6.4,4.4c-8.1,4.9-17,7.5-26.3,9.3c-19.8,3.9-39.7,4.8-59.6,0.2
		C487.5,539.7,480.8,537.1,474.1,532.5z"/>
	<path d="M394.2,48.7c-1.2,0-2.5,0.1-3.7,0c-7.4-1-11.8,3-15.2,8.8c-3.9,6.8-4.5,14.1-3.9,21.6c0.8,10.9,4.2,21.2,8.4,31.3
		c6,14.4,14.5,27,28.4,35c10.1,5.8,20.9,7.8,31.7,2.7c13.7-6.6,21.7-17.6,22.5-33.1c0.6-13.8-3.8-26.2-11.4-37.5
		c-6.9-10.2-15.6-18.5-27.1-23.3C414.3,50.2,404.5,48.2,394.2,48.7z"/>
	<path d="M466.9,643.7c0.2,1.2,0.3,1.8,0.4,2.4c0.5,6.4,1,12.8,1.4,19.2c1.1,16.5,2.3,33,3.1,49.4c0.6,11.9,0.8,23.8,1.2,35.7
		c0.1,3.6,2.8,6,6.2,5.9c3.3-0.2,5.6-2.5,5.5-6.2c-0.3-13.8-0.4-27.6-1.2-41.3c-1.1-20.5-2.8-41.1-4.3-61.6
		c-0.2-2.9-1.2-5.6,2.6-7.3c1.2-0.6,2-3.4,1.9-5.2c-0.1-3.1-1.8-5.7-4.6-7.3c-0.8-0.5-1.8-1.3-2-2c-0.9-5.8-1.7-11.5-2.4-17.3
		c-0.5-3.8-0.9-7.6-1.4-11.7c-3.8,0-7.5,0-11.5,0c1.2,10.7,2.4,21.3,3.6,31.9c-6.4,1.6-12.4,3.2-18.4,4.7
		c-20.4,5.2-39.6,13.1-56.9,25.3c-14.4,10.2-28.7,20.5-43.1,30.8c-21.7,15.6-45.6,26.2-71.6,32.1c-3.9,0.9-7.8,1.8-11,2.6
		c0,5.6,0,10.8,0,16c1.2-0.2,2.5-0.4,3.8-0.7c1.3-0.3,2.6-0.7,3.9-0.9c17.3-3.4,33.9-8.9,49.8-16.7c22.9-11.3,43.1-26.8,63.8-41.5
		c16.2-11.5,33-21.5,52-27.6C447.2,649.2,456.9,646.6,466.9,643.7z"/>
	<path d="M521,492.5c0,0.2,0,0.5,0,0.7c-6.3,0-12.7-0.3-19,0.1c-7.5,0.5-15,1.8-21.8,5.5c-8.5,4.7-10.6,15.1-4.6,22.7
		c4.2,5.4,10.1,8.2,16.3,10.2c14.5,4.7,29.4,6.4,44.7,5.2c11.7-0.9,23-3.2,33.6-8.1c5.5-2.6,10.6-5.9,14.2-10.9
		c4.1-5.7,3.1-10.6-2.8-14c-2.7-1.5-5.5-3-8.4-3.9C556.2,494.4,538.7,492.7,521,492.5z"/>
	<path d="M66,679.5c10.9,15.3,16.6,32.6,24,49c2.4-0.6,4.6-1.4,6.8-1.6c7.4-0.8,13.4,2.2,18.6,7.2c2.4,2.3,5.9,2.5,8.6,0.8
		c8.9-5.6,17.9-11.1,26.9-16.6c4.5-2.7,9.1-5.3,13.9-8.1c-11.2-18.3-26.1-31.5-46.6-37.7C100.1,667,82.9,670.6,66,679.5z"/>
	<path d="M532.5,806.4c15.5-16.9,23-38.5,22.1-58.5c-0.5-11.4-3-22.4-8.8-32.5c-2.8,1.7-5.2,3-7.5,4.5
		c-12.1,7.5-24.1,15.1-36.2,22.6c-1.5,1-1.8,2-1.6,3.8c0.7,4.6-0.5,8.8-3,12.6c-0.9,1.4-1.9,2.7-2.9,4.1
		C507.3,777.4,519.8,791.9,532.5,806.4z"/>
	<path d="M72.7,823.9c27.7,13.6,58.2,5.8,76.9-12.6c-2.5-3.1-4.8-6.2-7.4-9.2c-9.6-11-19.3-22-28.9-33c-1.2-1.4-2-1.7-3.7-0.7
		c-4.2,2.5-9,3.7-13.8,2.7c-2.4-0.5-3.4,0.1-4.1,2.3c-2.9,8.8-5.8,17.6-9,26.2C79.5,807.8,76,815.7,72.7,823.9z"/>
	<path d="M450.2,823.4c14,6.5,28.4,8.7,43.4,5.7c13.1-2.7,24.5-8.8,34.4-17.9c-0.4-0.6-0.7-0.9-0.9-1.2
		c-11.7-13.5-23.4-27-34.9-40.6c-1.8-2.1-2.9-2.3-5.2-0.9c-4.2,2.5-8.9,3.2-13.7,2.2c-2-0.4-2.8,0.3-3.4,2c-1.5,4.5-3,8.9-4.7,13.3
		c-3.7,10-7.3,20-11.1,29.9C453.1,818.5,451.6,820.8,450.2,823.4z"/>
	<path d="M193.9,733.7c-7.4,0.6-14.8,1.3-22.1,1.8c-23.7,1.6-47.5,3.2-71.2,4.8c-4.8,0.3-7.8,3.6-7.6,8.7c0.2,4.7,3.1,7.2,8.1,6.9
		c12.3-0.7,24.7-1.2,37-2c12.7-0.8,25.4-1.5,38.1-2.7c14.4-1.3,28.7-3,43-4.7c3.3-0.4,6.6-1,9.6-1.4c-1.9-5-3.7-9.8-5.6-14.8
		c-5.4,0.6-11.2,1.2-17.4,1.9c-0.4-23.9-0.8-47.4-1.1-70.8c-4.3,0-8,0-12,0C193.2,685.6,193.6,709.4,193.9,733.7z"/>
	<path d="M66.4,821.1c2.4-4.8,5.3-9.3,7.1-14.2c4.7-12.4,9-25,13.3-37.6c0.3-0.8,0-2-0.4-2.8c-1.6-2.9-3.4-5.8-5.2-8.6
		c-0.5-0.7-1.4-1.5-2.2-1.6c-17.2-1.6-33.9-5.3-50.6-9.5c-2.8-0.7-3.1-0.5-3.1,2.3c-0.2,11.7,1.8,22.9,6.1,33.8
		C38.3,799.8,50,812.2,66.4,821.1z"/>
	<path d="M445,820.7c2.8-5.9,6-11.5,8.2-17.5c4.3-11.3,8-22.8,11.9-34.2c0.3-0.8-0.1-1.9-0.6-2.7c-1.5-2.9-3.2-5.7-4.9-8.5
		c-0.4-0.6-1-1.4-1.6-1.5c-2-0.5-4.1-0.6-6.1-1c-13.1-2.4-26.1-4.9-39.2-7.3c-2.9-0.5-5.9-1.1-8.8-1.7
		C401.6,776.7,417,806.6,445,820.7z"/>
	<path d="M134.4,141.5c0.5-0.4,0.8-0.6,1.1-0.9c7.5-7.4,15-14.8,22.6-22.2c1.2-1.2,1.6-2,1.1-3.6c-3.8-10.4-7.7-20.7-14.5-29.6
		c-5.6-7.3-12.2-13.3-21-16.6c-13.1-4.8-24.4,3-24.4,16.9c0,5.8,1.2,11.4,3.5,16.8C109.5,118.3,120.9,130.5,134.4,141.5z"/>
	<path d="M202.6,88c1.1-0.6,2-1,2.8-1.4c4.4-2.3,8.7-5.2,13.4-6.8c5.5-1.9,7.8-5,8.3-10.9c1.1-11.8,0.5-23.2-4.1-34.2
		c-4-9.6-10.5-17.2-20.6-20.6c-10.1-3.3-19,0.4-20.6,11.8c-0.5,3.7-0.8,7.6-0.3,11.2C183.8,55.9,193.1,71.8,202.6,88z"/>
	<path d="M80.2,750.3c0.2-6.3,1.3-11.7,4.7-16.4c0.3-0.5,0.2-1.5-0.1-2.1c-5-11.6-9.9-23.2-15.2-34.7c-2.3-5-5.5-9.5-8.2-14.1
		c-0.9,0.2-1.1,0.2-1.3,0.3c-19.4,13.3-31.1,31.5-34,54.9c-0.1,0.6,0.9,1.8,1.6,2c10.3,2.4,20.5,4.8,30.9,6.8
		C65.6,748.4,72.8,749.2,80.2,750.3z"/>
	<path d="M439.2,681.9c-4.7,4.1-9.1,7.5-13,11.4c-12.2,12.2-19.6,26.8-21.8,44.1c-0.2,1.8,0.4,2.5,2.1,2.9c15.3,2.9,30.5,6,45.8,8.9
		c2,0.4,4,0.3,5.9,0.5c0.5-3,0.7-5.7,1.4-8.2c0.8-2.5,2.2-4.8,3.1-7.2c0.4-1,0.5-2.3,0.1-3.2c-4.9-11.3-9.7-22.7-14.9-33.9
		C445.7,692,442.4,687.4,439.2,681.9z"/>
	<path d="M542.8,709.7c-11.2-21.6-38.8-39.7-58.4-39.4c0,0.4-0.1,0.9-0.1,1.3c1,18.7,2,37.3,3,56c0,0.6,0.2,1.4,0.6,1.8
		c3.3,2.8,6.6,5.5,9.5,7.8C512.5,728.1,527.5,718.9,542.8,709.7z"/>
	<path d="M447.3,473.3c0.1,0.9,0.2,1.3,0.3,1.8c2.2,20.7,4.3,41.5,6.6,62.2c0.2,1.9-1,4.8,1.8,5.6c2,0.5,4.3,0.1,6.5,0.1
		c0.1,0,0.2,0,0.3,0c0.4-0.3,0.9-0.5,1-0.8c0.5-2.5,1.6-5.1,1.4-7.6c-1.1-12.8-2.7-25.7-3.9-38.5c-0.7-7.5-0.9-15.1-1.8-22.6
		c-0.2-2.2-0.2-3.3,2.1-3.9c6.2-1.6,12.4-3.4,18.5-5c9.8-2.5,19.6-4.9,29.3-7.5c3.6-1,5.2-3.5,4.4-6.7c-1-4.1-3.5-6.1-7.3-5.3
		c-4.4,0.9-8.8,2-13.2,3.2c-1.8,0.5-3.7,1.1-5,2.2c-7.1,6.4-15.3,8.5-24.7,7c-2.2-0.4-4.7-0.3-6.9,0.3c-14.7,3.7-29.4,7.7-44.1,11.4
		c-1.9,0.5-2.8,1-3,3.2c-0.5,4.5-3,7.2-7.1,8.1c-2.9,0.6-5.8,1.1-8.7,1.2c-3.4,0.2-6.8,0-10.2,0c1.2,3.4,4.9,5.6,8.6,4.8
		c9.8-2.1,19.5-4.3,29.2-6.7C430,477.8,438.5,475.6,447.3,473.3z"/>
	<path d="M154.4,807c13.2-15.3,21-32.4,21.7-52.7c-1.3,0.1-2.4,0.2-3.4,0.2c-16,1.1-32,2.4-48,3.3c-3.3,0.2-5.7,0.9-7.4,3.9
		c-0.7,1.3-0.8,2,0.2,3.2c10.6,12,21.1,24.1,31.6,36.2C150.8,803,152.5,804.8,154.4,807z"/>
	<path d="M244,638.6c-0.2-0.3-0.4-0.6-0.6-0.9c-0.6,0-1.3-0.1-1.9-0.1c-13.8-0.1-27.6-0.2-41.4-0.4c-8.4-0.1-16.8-0.6-25.2-0.5
		c-2.1,0-4.7,1-6.3,2.3c-3.6,3-4.1,9.2-1.8,13.9c1.9,4,5.7,5.9,10.8,5.5c0.8-0.1,1.5-0.1,2.3-0.2c14.2-0.4,28.5-0.7,42.7-1.2
		c1.3,0,2.9-0.8,3.9-1.7c4-3.7,7.8-7.7,11.7-11.5C240.1,642,242.1,640.3,244,638.6z"/>
	<path d="M494.7,428c-0.5-16.5-11.7-27.4-27.9-26.8c-16.8,0.6-26.5,13.5-26.4,26.7c0.1,15.6,14.1,27.7,30.6,27.2
		C484.4,454.7,495.1,442.4,494.7,428z"/>
	<path d="M468.2,728.4c0.5,0,0.9-0.1,1.4-0.2c-1-18.9-2-37.9-3-57.8c-7.8,2.9-14.9,5.5-21.8,8.1c4.5,8.7,8.9,16.6,12.7,24.8
		C461.4,711.5,464.7,720,468.2,728.4z"/>
	<path d="M488.5,732.8c-2,3.5-0.7,5.5,1.4,7.5c4.5,4.3,4.9,9.7,1.5,14.8c-2.9,4.4-7,7-12.2,7.9c-5.8,1-10.7-1.7-12.5-7.2
		c-2-6-1.2-11.9,1.8-17.5c0.9-1.7,1-3.7,1.5-5.6c-0.4-0.2-0.9-0.4-1.3-0.7c-1.6,2-3.5,3.8-4.6,6c-2.5,4.9-3.1,10.3-2.2,15.7
		c1.6,10,8.4,14.6,15.6,14c8.6-0.6,14.8-5.6,18.9-13.2c2.5-4.7,2.3-9.4-0.7-13.7C493.6,738.1,490.9,735.6,488.5,732.8z"/>
	<path d="M472.1,584.8c-0.9-7.1-1.4-14-2.8-20.8c-0.6-3-2.9-5.6-4.4-8.4c-0.8-1.6-7.1-2.7-8.2-1.4c-0.3,0.3-0.3,1-0.2,1.6
		c1.2,9,2.4,17.9,3.7,26.8c0.1,0.8,1.2,2.1,2,2.1C465.3,584.9,468.5,584.8,472.1,584.8z"/>
	<path d="M136,734.3c0.1,0.3,0.2,0.5,0.4,0.8c12.4-1,24.7-1.9,37.7-2.9c-2.1-5.7-4.1-11.1-6.2-16.6C156.9,722,146.4,728.2,136,734.3
		z"/>
	<path d="M112.4,736.8c-0.2-0.9-0.2-1.3-0.4-1.4c-4.5-5.1-14.2-6.8-20.1-3.5c-6.4,3.6-8.3,9.8-8.7,16.5c-0.3,6.4,0.8,12.5,6.3,16.8
		c6.2,4.8,14.8,4.1,21.3-1.5c1.8-1.5,3.4-3.3,5.2-4.9c-0.2-0.3-0.4-0.7-0.7-1c-2.4,1-4.9,1.8-7.3,2.9c-1.6,0.7-3,1.7-4.6,2.2
		c-6.3,2.3-12.8-0.2-14.9-5.9c-2-5.3-1.7-10.6,0.4-15.7c2.4-5.7,6.5-7.7,12.5-6.3c1.1,0.2,2.2,0.8,3.3,0.9
		C107.2,736.2,109.7,736.4,112.4,736.8z"/>
	<path d="M240.5,721.2c-3.2,0.2-5.9,2.4-7,5.5c-2.5,7.2,3.9,16.7,11.9,17.7c3.4,0.5,6.2-0.8,8.1-3.6c3.1-4.6,3.7-9.6,0.9-14.7
		c-0.7-1.2-1.8-2.2-2.7-3.2c-0.3,0.1-0.6,0.2-0.8,0.4c-0.1,2.6-0.2,5.2-0.5,7.7c-0.4,3.7-2.3,5.1-5.9,4.8c-2.9-0.2-4.4-2-4.3-5.5
		C240.2,727.4,240.4,724.4,240.5,721.2z"/>
	<path d="M250.9,716.8c0.5,1,0.7,2.2,1.4,2.8c5.9,4.4,7.9,10.3,6.3,17.2c-1.6,6.9-6.4,12.5-14.9,10.7c-5-1.1-8.6-4.3-11.1-8.6
		c-4.8-8.2-2.8-19,7.3-21.5c0.6-0.2,0.9-1.3,1.4-2c-0.7-0.3-1.4-0.8-2.1-0.7c-5,0.6-10,5.3-11.4,10.6c-2.1,7.7,2.1,17.7,9.3,22.3
		c9.6,6.2,18.7,3.5,23.3-7c0.8-1.8,1.3-3.7,1.7-5.7C263.6,727,258.6,718.2,250.9,716.8z"/>
	<path d="M248.1,776.6c0,0.2,0,0.3,0.1,0.5c2.7,0,5.5,0,8.2,0c2.3,0,3.7-1,3.9-3.5c0.2-2.7-1.2-4.1-3.5-4.2
		c-8.2-0.2-16.4-0.2-24.6,0c-3.1,0.1-4.3,1.9-3.9,4.6c0.4,2.9,2.8,4.7,5.6,4.3C238.5,777.7,243.3,777.1,248.1,776.6z"/>
	<path d="M247.6,697.2c3.7-0.2,7.1-0.3,10.6-0.7c1.1-0.1,2.4-0.6,3.3-1.3c0.6-0.5,0.8-1.7,0.7-2.5c-0.1-0.4-1.2-1-2-1
		c-8.6-0.8-17.1-1.4-25.6-2.2c-2.2-0.2-4.1-0.1-4.3,2.7c-0.2,2.2,1.3,4.1,3.6,4.2C238.6,696.8,243.2,697,247.6,697.2z"/>
	<path d="M245.1,700.2c-0.6,8.6-1.2,16.9-1.7,25.3c-0.1,1.7-0.4,3.4-0.2,5.1c0.1,0.9,1.2,2.2,1.8,2.2c0.9,0,1.9-1,2.5-1.8
		c0.4-0.5,0.2-1.5,0.2-2.2c0.3-4.5,0.6-9,0.8-13.5c0.3-5,0.6-9.9,0.9-15.1C247.9,700.2,246.7,700.2,245.1,700.2z"/>
	<path d="M241.7,753.8c-0.2,4.1-0.4,7.8-0.5,11.6c1.9,0,4.1,1.3,4.4-1.3c0.4-3.2,0.1-6.5,0.1-10
		C244.5,753.9,243.4,753.9,241.7,753.8z"/>
	<path d="M267.9,644.4c-2.8,3.3-5.5,6.4-7.8,9.1C267.2,653.6,270.8,650.2,267.9,644.4z"/>
	<path d="M390.1,457.4c-2.9,2.6-5.5,4.9-8.7,7.9c4.2-0.4,7.4-0.7,11-1C391.5,461.7,390.9,459.7,390.1,457.4z"/>
	<path d="M594.8,508.8c-2.9-6.2-7.7-10.4-13.7-13.3c-9.1-4.4-18.8-6.8-28.7-8.2c-13.9-2-27.9-3.7-42-2.5
		c-10.1,0.9-20.1,1.7-29.7,5.5c-6.7,2.6-12.1,6.6-14.5,13.7c-0.1,0.3-0.5,0.5-0.7,0.8c-0.2-0.2-0.4-0.4-0.4-0.5
		c-0.9-10-1.9-19.9-2.6-29.9c0-0.7,1.1-1.8,1.9-2.1c6.5-1.9,13.1-3.5,19.7-5.3c2.2-0.6,4.7-2.1,6.4-1.4c1.8,0.7,2.9,3.4,4.3,5.3
		c2.2,3,4.4,4,7.2,3.2c3-0.9,5.3-4.1,5.2-7.3c0-1.7-0.5-3.5-0.8-5.2c4.5-1.8,4.5-1.8,8.5,0c1.9,0.8,3.8,1.8,5.7,2.4
		c1.2,0.3,2.6,0.4,3.8,0c2.9-0.9,4.8-3,5.2-6.1c0.5-3.2-0.5-6.1-3.3-7.6c-6.1-3.3-12.4-6.3-18.7-9.3c-2.1-1-4.3-1.6-7.2-2.6
		c2.3-1.3,4-2.4,5.8-3.2c3.7-1.7,7.5-3.1,11.2-4.9c3.7-1.8,5-6.2,3.3-10.5c-1.6-4.1-4.5-5.8-8.8-4.3c-4.1,1.5-8,3.6-12,5.5
		c-1,0.4-1.9,0.9-2.9,1.4c-3.4-15.2-13.8-24.2-28.5-24.6c-6.9-0.2-13.3,1.8-18.8,6c-7.6,5.8-11.5,13.8-12.2,23.4c-1.5,0-2.7,0-3.9,0
		c-5.2-0.2-10.4-0.6-15.6-0.6c-7.6,0-15.3-0.5-23,2.1c-8.4-19-18.7-37.2-32.1-53.4c0.3-0.5,0.5-0.7,0.6-0.9
		c13-13.2,22.6-28.6,28.4-46.1c5.5-16.6,6.4-33.7,4-50.9c-2.5-18.1-8.6-35-16.8-51.1c-1.9-3.8-1.8-3.5,1.9-5.5
		c7.3-3.9,14.8-7.6,21.7-12.1c16.4-10.5,30.4-23.9,43.1-38.6c7.6-8.9,15.6-17.5,21-28.3c4.9-9.5,7.7-19.1,7.6-29.8
		c-0.3-18.3-6.3-34.5-17.6-48.6c-12.4-15.5-28.3-25.7-48.1-29.1c-9.8-1.7-19.5-1.2-29,2.3c-1.3,0.5-2.7,0.8-4.1,1
		c-6.6,0.9-13.3,1.5-19.9,2.7c-18.4,3.4-36.7,6.7-55,10.6c-18.8,4-37.2,9.8-55.2,16.8c-1.8,0.7-3.6,1.3-5.4,1.9
		c-0.2-0.6-0.3-0.8-0.3-1c0-1.4,0.1-2.8,0.2-4.2c0.6-16.1-1.9-31.5-11.3-45.1c-8.3-12.1-19.1-20.4-34.8-19.4
		c-9.4,0.6-16.4,5.2-21,13.4c-5.5,9.8-5.1,20.3-2.7,30.9c3.2,14,9,26.8,16.6,38.8c2.1,3.3,4.2,6.6,6.3,9.8c-7.6,5-15,9.8-22.5,14.8
		c-0.4-0.9-0.8-1.8-1.2-2.6c-4.2-8.1-8-16.5-12.7-24.3c-6.4-10.6-15.2-18.9-26.8-24c-19.9-8.7-39.2,1.7-42.6,23.1
		c-1.3,8.5,0.3,16.6,3.4,24.4c5.9,14.8,15.5,27,27.3,37.4c3.1,2.7,6.3,5.3,9.5,8c-0.5,0.6-0.8,1.1-1.1,1.5
		c-10.9,14.4-19.4,30.1-25.9,47c-8.1,21.2-12.1,43.2-12.2,65.9c-0.2,29.5,4.8,57.9,17.8,84.6c6.2,12.9,14.3,24.6,24.4,34.9
		c1.3,1.3,0.8,2,0.1,3.1c-3.6,5.9-7.4,11.6-10.7,17.7c-10.9,20-19.6,41.1-25.6,63.1c-4.9,17.8-9.2,35.8-13.4,53.8
		c-2.4,10.5-3.9,21.1-5.8,31.7c-0.2,0.8-0.6,2.2-1.1,2.3c-3.5,0.9-7,1.5-11.3,2.4c1-2.4,1.6-3.7,2.2-5.1c3.8-10,3.4-19.3-4.2-27.7
		c-7-7.8-18.3-9.1-25.9-2.6c-7.2,6.1-10.7,19.3-7.3,28.1c1.1,2.9,2.7,5.7,4,8.5c-0.2,0.1-0.3,0.3-0.5,0.3
		c-7.5-0.4-12.9-3.6-15.7-10.8c-2.3-5.8-8.4-7.3-12.9-3.3c-2.4,2.2-3.4,6.3-2,9.7c2.5,5.7,5.9,10.8,11,14.5
		c11.8,8.5,24.2,9,37.1,2.4c1-0.5,2.4-1.3,3.4-1.1c6.5,1.3,13,1.2,19.4,0.1c0.2,0,0.5,0.2,0.8,0.3c0,1,0.1,1.9,0,2.8
		c-1.4,10.1-2.8,20.2-4.2,30.3c-0.9,6.3-1.8,12.5-2.5,18.8c-0.6,5.2,2.3,9.6,6.8,10.2c3,0.4,6,0.6,9,0.6c28,0.4,56.1,0.7,84.2,1.1
		c0.7,0,1.4,0.2,2.2,0.4c-0.3,0.5-0.4,0.8-0.5,1c-4.7,4.8-5.8,11.4-3.1,17.8c2.4,5.7,6.3,7.8,13.7,7.7c3.9-0.1,7.9,0,12.1,0
		c0.3,23.2,0.7,46.1,1,69c-2.9,0.1-2.8,0.1-3.6-3c-5.4-21.3-15.5-39.7-32.7-53.7c-24.1-19.6-51.3-23.6-80.5-14.5
		c-14.9,4.7-27.7,13.2-38.5,24.6c-9.7,10.4-17,22.2-21,35.8c-4.4,15.3-5.4,31-2.9,46.9c3,19.5,10.7,36.8,24.2,51.2
		c18.9,19.9,42.6,28.7,69.8,27.9c20.1-0.6,37.8-8,52.9-21.2c20.9-18.2,30.4-42,31.7-69.3c0.1-2.2,0.9-2.6,2.8-2.8
		c6.9-0.7,13.9-1.6,20.8-2.4c1.9-0.2,3.8-0.4,6.2-0.7c-0.5,0.7-0.7,1.1-0.9,1.3c-3.2,2.4-3.4,5.6-2.3,9.1c1.2,3.9,3.9,5.2,7.7,5.4
		c1.4,0,2.8,0.4,4.5,0.7c-0.5,0.7-0.7,0.9-0.9,1.1c-3.3,2.8-3.9,6.4-1.9,10.4c1.8,3.5,4.5,4.5,8.8,3.8c3.1-0.6,6.4-0.8,9.5-1
		c4.3-0.2,8.7,0.1,13-0.3c4.5-0.4,6.9-5.8,4.9-9.7c-0.3-0.5-0.4-1.1-0.7-2.1c5.5,0.3,10.5,0.9,15.6,0.8c6.7-0.2,13.4-0.7,19.9-1.8
		c3.1-0.5,6.4-2.3,8.7-4.4c5.1-4.9,3.6-13.3-2.6-16.9c-7.1-4-14.8-4-22.6-3.5c-6.1,0.4-12.1,1.2-18.2,1.9c0.7-0.9,1.6-1.3,2.6-1.5
		c7.1-1.6,14.2-3,21.3-4.8c20.2-4.9,38.9-13.5,56.2-24.7c15.8-10.2,31.2-21,46.4-32c18.8-13.7,39.2-23.6,61.6-29.8
		c4.4-1.2,8.9-2.3,13.6-3.6c0.3,2.9,0.6,5.4,0.8,7.8c-4.3,1.2-8.5,2-12.5,3.4c-28.1,9.9-47.9,28.7-58.3,56.6
		c-6.3,16.8-7.2,34.5-4,52.2c4.7,26.5,17,48.2,40.2,62.9c22.7,14.5,47,18.2,73,11.4c13.6-3.6,25.6-10.2,35.7-20
		c12.5-12,21.3-26.3,25.9-43.2c3.8-13.8,4.7-27.7,2.7-41.8c-3.1-22-12-41.4-27.7-57.4c-13.7-13.9-30.1-22.5-49.7-24.8
		c-2.4-0.3-5.6,0.2-7-1.1c-1.4-1.4-0.8-4.6-1.2-7c-0.4-2,0.1-3.4,1.6-5c1.4-1.4,2.5-3.6,2.8-5.6c0.6-4.4-1-8.2-4.7-10.9
		c-1.4-1-2.8-2.1-1.8-4.3c0.9,0.2,1.7,0.4,2.5,0.6c9.4,2.1,18.7,4.5,28.1,6.2c14.5,2.7,29.1,2.7,43.8,2.2c7.6-0.3,15.2-1.3,22.8-2
		c1.9-0.2,2.8-1.1,3.2-2.9c1.6-7.3,3.3-14.5,4.8-21.8c3.7-18.7,6.4-37.6,7.9-56.6c0.9-11.8,1.5-23.6,2.2-35.4
		C595.3,510.7,595.1,509.7,594.8,508.8z M51.6,546.5c-1,2-2.5,3.7-3.8,5.7c-8.5-4.1-6.4-10.9-2.8-15.1c1.2-1.4,2.4-1.5,4-0.6
		C52,538.3,53.4,543,51.6,546.5z M214.2,685.5c2.3,0.5,4.6,0.8,7.3,1.3c0,2.3,0.1,4.7,0,7.2c-0.3,10.2-0.8,20.4-1,30.5
		c0,2.2-0.6,3.2-2.9,3.3c-2.8,0.1-5.6,0.5-8.9,0.8c-0.3-22.6-0.7-45-1-67.5c5.3-0.3,10.2-0.6,15.9-1c-1.2,1.3-1.9,2.1-2.6,2.9
		c-1.7,2.1-3.4,4.2-5.2,6.2c-0.5,0.6-1.2,1.2-1.9,1.4c-3.6,1.1-5.4,3.4-5.4,7.2C208.5,681.2,211.1,684.7,214.2,685.5z M400.3,441.1
		c14,1.8,27.9,3.4,41.7,5.4c1.9,0.3,3.7,1.6,5.3,2.7c2.5,1.7,4.8,3.6,7.7,5.8c-2.2,0.5-3.8,0.9-5.5,1.4c-12.8,3.2-25.6,6.5-38.4,9.8
		c-1.6,0.4-2.4,0.3-3-1.4c-2.6-7.7-5.3-15.3-7.9-23C400.1,441.6,400.3,441.3,400.3,441.1z M241.4,709.7c-0.1,0.8-1.5,1.3-2.8,2.5
		c0-4.1-0.1-7.3,0-10.4c0.1-2.3,1.7-1.7,3.5-1.6C241.9,703.5,241.9,706.6,241.4,709.7z M458.8,626.9c-10,2.7-20.1,5.2-30,8.4
		c-17.1,5.6-32.5,14.4-47,25c-17.8,13-35.3,26.5-54.5,37.6c-18.9,10.9-39.4,17.5-60.7,22.1c-3.2,0.7-5.3,0.7-7.4-2.2
		c-1.4-1.9-4.1-2.9-6.1-4.5c-0.7-0.5-1.5-1.5-1.5-2.3c0.1-3.5,0.5-7,0.8-10.7c6-0.7,13.7,0.6,12.8-9.5c3.8,0,7.5,0.1,11.2,0
		c6.6-0.1,13.2-0.7,19.2-3.8c3.9-2,5.7-5.3,5.7-9.7c-0.1-4.4-2.2-7.5-6-9.6c-6-3.3-12.7-3.7-19.3-3.3c-10.5,0.5-20.9,1.6-31.3,2.4
		c-0.6,0-1.2-0.1-2.5-0.1c3.2-3,6-5.7,8.8-8.2c0.5-0.5,1.4-0.6,2.1-0.7c3.2-0.5,6.4-0.9,9.6-1.2c7.3-0.8,10.5-5.8,8.4-12.8
		c-0.2-0.8-0.6-1.6-1-2.3c-2-4.2-1.2-5.4,3.3-5.4c21.8,0,43.6,0.4,65.5-0.1c28.7-0.6,57.4-1.7,86.1-2.8c11-0.4,12.8-3,11.4-13.9
		c-2.9-21.6-5.3-43.3-8.7-64.8c-3-19-7.1-37.8-10.8-56.7c-0.7-3.5-1.7-7-2.4-10.5c-0.1-0.8,0.5-2.4,1-2.5c9.6-2.5,19.3-4.8,29-7.2
		c2.4,22.4,4.9,44.7,7.3,67.1c-2.3,0.9-5.9,0.1-5.5,4.2c0.3,2.9,1.9,3.7,6.9,3.6c1.4,10.8,2.9,21.7,4.4,32.9
		c-1.1-0.1-1.9-0.1-2.7-0.2c-2.4-0.2-3.8,0.9-4.1,3.3c-0.4,2.3,0.5,3.8,2.8,4.4c0.6,0.2,1.3,0.3,2,0.4c2.5,0.2,3.4,1.5,3.6,4
		c0.7,8.4,1.7,16.9,2.9,25.3C462.5,625.6,461.2,626.2,458.8,626.9z"/>
	<path d="M487.2,755.2c4.1-3.2,4.6-8.9,0.7-11.9C487.7,747.3,487.4,751.3,487.2,755.2z"/>
	<path d="M469.4,745.7c-1.8,4-1,9.5,1.9,12.3c1.6,1.5,3.5,2.6,5.4,2.1c-2-2-4.6-3.5-5.8-5.8C469.8,751.8,469.9,748.7,469.4,745.7z"
		/>
	<path d="M91.6,754.9c0.2,2.8,1.8,4.5,4.2,5.1c1.7,0.4,3.6,0.1,5.4,0.1c0-0.3,0.1-0.7,0.1-1C97.4,759.3,94.1,758,91.6,754.9z"/>
	<path class="st0" d="M143.3,148.2c6.4-6.1,12.7-12,18.9-18c1.1-1.1,1.9-0.9,3.4-0.5c2.1,0.5,4.6,0.4,6.6-0.4
		c2.3-0.9,2.9-3.4,2.3-5.8c-0.6-2.5,0.2-3.9,2.4-5.3c7.4-4.7,14.6-9.7,21.9-14.5c0.8-0.5,2.4-0.6,3.1-0.1c3.3,2,6.9,0.6,7.1-3.3
		c0.1-2.4,1.1-3.4,3.1-4.3c3.8-1.7,7.4-3.7,11.2-5.4c0.8-0.3,2.1-0.1,2.8,0.4c4.6,3.5,8.2,2.7,10-2.8c1.1-3.4,3-5.1,6.2-6.4
		c16.7-6.9,33.7-12.7,51.2-17.2c20.8-5.4,41.9-9.8,63.3-12.3c3.3-0.4,6.7-1,10.6-1.6c-1.1,2.1-1.9,3.6-2.6,5.1
		c-5.1,11.5-4.7,23.3-2.4,35.3c3.3,16.8,9,32.8,19,46.9c7.9,11.2,18,19.9,31.5,23.8c3.1,0.9,6.5,1.4,9.7,1.6c3.3,0.3,6.6,0.1,10,0.1
		c-0.2,0.3-0.3,0.9-0.7,1.3c-17.5,17.6-36.4,33.5-58.2,45.6c-1.7,0.9-2.9,1.3-4.4-0.4c-1.5-1.7-3.6-2.1-5.7-1
		c-2,1.1-3.2,2.9-2.8,5.1c0.5,2.3-0.5,3.2-2.5,3.9c-1.6,0.6-3.2,1.3-4.6,2.1c-2.1,1.2-2.8,3.1-2,5.3c0.7,2.1,2.2,3.3,4.6,2.9
		c3-0.5,5.9-1.3,8.9-1.7c0.8-0.1,2.2,0.5,2.6,1.1c11.8,22.8,19.1,46.7,17.3,72.6c-1.3,19-7.5,36.3-18.8,51.8
		c-10.6,14.6-24.2,25.8-39.6,35c-17.4,10.5-36.1,17.5-56,21.5c-20.2,4-40.5,4.2-60.8,0.6c-16.6-3-32.2-8.6-46.7-17.3
		c-14.4-8.6-26.2-20-35.8-33.8c-14.6-21.1-22.2-44.8-25.7-70c-2.2-15.8-2.6-31.6-0.6-47.4c2.5-19.7,7.4-38.8,17.2-56.2
		c5.2-9.1,11.3-17.6,17.1-26.3c0.8-1.2,1.6-2,3.2-0.9c1.9,1.4,3.9,2.1,5.8-0.1c1.8-2,1.9-4.7,0.2-7
		C144.4,149.5,144,149.1,143.3,148.2z M299.6,74.1c-8.4,0.1-16.3,3.7-22.4,10.8c-10.2,11.9-11.3,25.5-5.7,39.6
		c5.1,12.9,15.4,18.3,26.6,17.8c15.1-0.8,27.7-11.2,32.2-25.8C336.4,96.2,321.5,74.8,299.6,74.1z M284.7,337.5
		c2.7-0.4,7.9-0.8,13-1.9c19.1-4,34.7-13.5,45.7-29.9c7.6-11.4,10.3-24.2,8.9-37.8c-0.4-3.7-2.9-5.3-6.1-4.2c-2.5,0.9-2.8,3-2.8,5.3
		c-0.1,13-4.1,24.6-12.3,34.8c-7.7,9.5-17.7,15.1-29.3,18.2c-9.9,2.6-20,3.1-30,0.5c-13.6-3.6-24.1-11.7-32.6-22.7
		c-2.5-3.3-5.7-3.5-8.6-0.6c-2.2,2.2-2.8,4.7-1.1,7.5c2.6,4.3,5.2,8.8,8.5,12.6C249.8,332.4,265.1,337.2,284.7,337.5z M260.8,146.8
		c-0.1-12.7-4-23.6-12.7-32.4c-6.6-6.6-14.5-9-23.6-5.9c-7.4,2.5-12.8,7.8-17.4,14c-8,11-11.9,23-7.8,36.5
		c7.4,24.3,35,29.2,51.3,13.4C258,165.3,260.5,156.3,260.8,146.8z M157.7,215.2c-18-0.2-31,10-34.7,27.6
		c-3.4,16.1-1.6,31.7,7.5,45.4c9.7,14.7,23.1,24.4,41.6,24.1c9.5-0.1,17.2-4.5,23.3-11.7c7.9-9.2,11.8-20.2,12.8-32.1
		c1.2-15.1-3.1-28.5-14.2-39.1C183.8,220,171.5,215.6,157.7,215.2z"/>
	<path class="st0" d="M142.7,394.2c2,1.5,3.8,2.9,5.6,4.2c9.7,7.2,20.4,12.5,31.6,16.9c23.4,9.1,47.6,11.7,72.3,9.7
		c22.9-1.8,44.7-7.8,65.5-17.8c12-5.7,23-12.9,33.4-21.2c0.5-0.4,1-0.8,1.8-1.3c15.3,18.3,24.4,39.8,33.5,61.9
		c-5.1-1.1-7.8,2.3-10.9,4.7c-3,2.3-5.9,4.7-8.8,7.1c-1.9,1.6-3.9,2.1-6.5,1.5c-15.5-3.4-31-6.4-46.5-9.8c-7-1.5-13.9-3.6-20.8-5.3
		c-4.2-1-8.5-1.7-12.8-2.5c-4-0.8-6.1,0.3-7.3,3.5c-1.1,2.9,0.3,6.7,3.5,8.1c8.4,3.6,16.7,7.6,25.4,10.4c12.1,3.8,24.5,6.8,36.9,9.8
		c5.8,1.4,11.7,2.1,17.6,3c1.5,0.2,2.3,0.9,3,2.4c4.5,10.1,9.9,19.6,19.2,26.1c3.8,2.7,6.5,2.4,9.2-0.7c3.1-3.6,3.3-7.7,0.3-10.7
		c-2.9-2.9-5.9-5.6-8.8-8.4c-1.5-1.5-2.9-3.2-4.4-4.9c4.1-1.4,5.5-0.8,6.9,2.7c1.5,3.9,6.5,6.5,11.2,5.9c2.1-0.3,4.2-0.8,6.8-1.3
		c11.4,43.6,17.1,88.2,22.9,133.3c-5.2,0.3-10.1,0.6-15.1,0.9c-40.8,2.1-81.5,2.6-122.4,2.4c-16-0.1-31.9-0.2-47.9-0.4
		c-19.8-0.3-39.6-0.6-59.5-1.1c-26.5-0.7-53-1.5-79.6-2.2c-5-0.1-10-0.2-15-0.2c-1.9,0-2.5-0.6-2.2-2.5c2.1-15.3,4-30.6,6.3-45.9
		c2.5-16.8,5-33.6,8.1-50.3c4.8-25.9,11.4-51.4,20.9-76.1c6.9-17.9,15.2-35,26-50.8C142.1,394.9,142.3,394.7,142.7,394.2z"/>
	<path class="st0" d="M474.1,532.5c6.7,4.6,13.4,7.2,20.5,8.9c19.9,4.5,39.7,3.7,59.6-0.2c9.2-1.8,18.2-4.4,26.3-9.3
		c2.1-1.3,4.2-2.8,6.4-4.4c0,2.6,0.2,5,0,7.4c-1.5,19.8-3.7,39.4-7.4,58.9c-1.6,8.2-3.4,16.2-4.9,24.4c-0.4,2.3-1.6,3.1-3.8,3.2
		c-19,1.6-37.9,2.1-56.8-0.7c-9.1-1.3-18-3.9-27.1-5.8c-2-0.4-2.7-1.6-2.9-3.5c-1.1-10.4-2.2-20.8-3.5-31.2
		c-1.8-14.4-3.8-28.8-5.7-43.2C474.5,535.8,474.3,534.5,474.1,532.5z"/>
	<path class="st0" d="M394.2,48.7c10.3-0.5,20.1,1.5,29.5,5.5c11.5,4.8,20.2,13.1,27.1,23.3c7.6,11.3,12.1,23.7,11.4,37.5
		c-0.7,15.5-8.7,26.6-22.5,33.1c-10.8,5.1-21.6,3.1-31.7-2.7c-13.9-8-22.3-20.6-28.4-35c-4.2-10-7.6-20.3-8.4-31.3
		c-0.5-7.5,0-14.9,3.9-21.6c3.4-5.9,7.9-9.8,15.2-8.8C391.7,48.8,393,48.7,394.2,48.7z M402.3,112.7c3.3,0.2,6.1-1.4,7.7-4.9
		c1.8-4,1.9-8.1,0.3-12.1c-2.8-6.9-10.8-8.4-15.5-2.8c-2.8,3.4-3.6,7.4-2.7,11.7C393.1,109.8,396.5,112.7,402.3,112.7z M442.2,92.3
		c-0.5-1.6-0.9-3.8-1.8-5.9c-2.4-5.4-8.7-7-13.4-3.3c-3.7,2.9-5.5,8.8-4,13.8c1.3,4.6,5,7.5,9.7,7.5c4.5,0,7.6-2.6,8.9-7.6
		C441.9,95.6,442,94.2,442.2,92.3z"/>
	<path class="st0" d="M466.9,643.7c-10,3-19.6,5.6-29.1,8.6c-19,6.1-35.9,16.1-52,27.6c-20.7,14.7-40.8,30.2-63.8,41.5
		c-15.9,7.8-32.5,13.3-49.8,16.7c-1.3,0.2-2.6,0.6-3.9,0.9c-1.3,0.3-2.5,0.5-3.8,0.7c0-5.3,0-10.4,0-16c3.2-0.8,7.1-1.7,11-2.6
		c26-5.9,49.9-16.5,71.6-32.1c14.3-10.3,28.6-20.6,43.1-30.8c17.3-12.2,36.5-20,56.9-25.3c6-1.5,12-3.1,18.4-4.7
		c-1.2-10.6-2.4-21.3-3.6-31.9c4.1,0,7.7,0,11.5,0c0.5,4.1,0.9,7.9,1.4,11.7c0.8,5.8,1.5,11.6,2.4,17.3c0.1,0.8,1.2,1.6,2,2
		c2.9,1.6,4.5,4.2,4.6,7.3c0.1,1.8-0.7,4.6-1.9,5.2c-3.8,1.7-2.8,4.4-2.6,7.3c1.5,20.5,3.1,41,4.3,61.6c0.8,13.8,0.9,27.5,1.2,41.3
		c0.1,3.7-2.1,6.1-5.5,6.2c-3.4,0.2-6.1-2.3-6.2-5.9c-0.4-11.9-0.6-23.8-1.2-35.7c-0.9-16.5-2-33-3.1-49.4
		c-0.4-6.4-0.9-12.8-1.4-19.2C467.2,645.4,467.1,644.8,466.9,643.7z"/>
	<path class="st0" d="M521,492.5c17.7,0.1,35.2,1.9,52.1,7.5c2.9,1,5.8,2.4,8.4,3.9c6,3.5,6.9,8.3,2.8,14c-3.6,5-8.7,8.3-14.2,10.9
		c-10.7,5-22,7.3-33.6,8.1c-15.2,1.1-30.1-0.5-44.7-5.2c-6.2-2-12.1-4.8-16.3-10.2c-5.9-7.7-3.8-18,4.6-22.7
		c6.8-3.7,14.2-5.1,21.8-5.5c6.3-0.4,12.6-0.1,18.9-0.1C521,493,521,492.8,521,492.5z"/>
	<path class="st0" d="M66,679.5c16.9-8.9,34-12.5,52.2-7c20.5,6.2,35.3,19.4,46.6,37.7c-4.8,2.8-9.4,5.4-13.9,8.1
		c-9,5.5-18,11-26.9,16.6c-2.8,1.7-6.2,1.6-8.6-0.8c-5.2-5-11.1-8.1-18.6-7.2c-2.2,0.2-4.3,1-6.8,1.6
		C82.7,712.1,76.9,694.8,66,679.5z"/>
	<path class="st0" d="M532.5,806.4c-12.7-14.5-25.2-29-37.9-43.5c1-1.4,2-2.7,2.9-4.1c2.5-3.8,3.7-8,3-12.6c-0.3-1.7,0-2.8,1.6-3.8
		c12.1-7.5,24.1-15,36.2-22.6c2.3-1.4,4.7-2.8,7.5-4.5c5.8,10.1,8.2,21.2,8.8,32.5C555.5,767.8,548,789.5,532.5,806.4z"/>
	<path class="st0" d="M72.7,823.9c3.4-8.2,6.8-16.2,9.8-24.2c3.2-8.7,6.1-17.4,9-26.2c0.7-2.2,1.7-2.8,4.1-2.3
		c4.9,1,9.6-0.2,13.8-2.7c1.7-1,2.5-0.7,3.7,0.7c9.6,11,19.3,22,29,33c2.6,3,5,6.2,7.4,9.2C130.9,829.7,100.4,837.5,72.7,823.9z"/>
	<path class="st0" d="M450.2,823.4c1.4-2.5,2.9-4.8,3.9-7.4c3.8-9.9,7.5-19.9,11.1-29.9c1.6-4.4,3.1-8.9,4.7-13.3
		c0.6-1.6,1.4-2.4,3.4-2c4.8,1,9.5,0.3,13.7-2.2c2.3-1.4,3.5-1.2,5.2,0.9c11.5,13.6,23.3,27.1,34.9,40.6c0.2,0.3,0.5,0.6,0.9,1.2
		c-9.9,9.1-21.3,15.2-34.4,17.9C478.6,832.1,464.2,829.8,450.2,823.4z"/>
	<path class="st0" d="M193.9,733.7c-0.4-24.3-0.7-48.1-1.1-72.3c4,0,7.7,0,12,0c0.4,23.4,0.7,46.9,1.1,70.8c6.2-0.7,12-1.3,17.4-1.9
		c1.9,5,3.7,9.8,5.6,14.8c-2.9,0.4-6.2,1-9.6,1.4c-14.3,1.6-28.7,3.3-43,4.7c-12.7,1.2-25.4,1.9-38.1,2.7c-12.3,0.8-24.7,1.3-37,2
		c-5,0.3-7.9-2.2-8.1-6.9c-0.2-5.1,2.7-8.4,7.6-8.7c23.7-1.6,47.5-3.2,71.2-4.8C179.2,735,186.5,734.3,193.9,733.7z"/>
	<path class="st0" d="M66.4,821.1c-16.4-9-28.2-21.3-34.9-38.2c-4.4-10.8-6.3-22.1-6.1-33.8c0-2.9,0.3-3,3.1-2.3
		c16.7,4.2,33.4,7.9,50.6,9.5c0.8,0.1,1.7,0.9,2.2,1.6c1.8,2.8,3.6,5.7,5.2,8.6c0.4,0.8,0.7,2,0.4,2.8c-4.3,12.6-8.6,25.2-13.3,37.6
		C71.7,811.8,68.9,816.3,66.4,821.1z"/>
	<path class="st0" d="M445,820.7c-27.9-14-43.4-43.9-41-74.4c3,0.6,5.9,1.2,8.8,1.7c13,2.5,26.1,4.9,39.2,7.3c2,0.4,4.1,0.5,6.1,1
		c0.6,0.1,1.2,0.9,1.6,1.5c1.7,2.8,3.3,5.6,4.9,8.5c0.4,0.8,0.8,2,0.6,2.7c-3.9,11.4-7.6,22.9-11.9,34.2
		C451,809.1,447.8,814.7,445,820.7z"/>
	<path class="st0" d="M134.4,141.5c-13.4-11-24.9-23.2-31.7-39.2c-2.3-5.3-3.5-10.9-3.5-16.8c0-13.9,11.4-21.7,24.4-16.9
		c8.8,3.3,15.5,9.2,21,16.6c6.8,8.9,10.7,19.3,14.5,29.6c0.6,1.6,0.1,2.4-1.1,3.6c-7.6,7.3-15.1,14.8-22.6,22.2
		C135.1,140.9,134.8,141.1,134.4,141.5z"/>
	<path class="st0" d="M202.6,88c-9.5-16.3-18.8-32.2-21.1-50.9c-0.5-3.7-0.2-7.5,0.3-11.2c1.6-11.4,10.5-15.1,20.6-11.8
		c10.1,3.3,16.6,11,20.6,20.6c4.6,11,5.2,22.4,4.1,34.2c-0.6,5.9-2.8,9-8.3,10.9c-4.7,1.7-8.9,4.5-13.4,6.8
		C204.6,87,203.8,87.5,202.6,88z"/>
	<path class="st0" d="M80.2,750.3c-7.4-1.1-14.5-1.9-21.5-3.3c-10.4-2-20.6-4.4-30.9-6.8c-0.7-0.2-1.7-1.4-1.6-2
		c3-23.5,14.6-41.6,34-54.9c0.2-0.1,0.4-0.1,1.3-0.3c2.7,4.6,5.8,9.2,8.2,14.1c5.3,11.5,10.2,23.1,15.2,34.7
		c0.3,0.6,0.4,1.6,0.1,2.1C81.5,738.6,80.4,744,80.2,750.3z"/>
	<path class="st0" d="M439.2,681.9c3.2,5.4,6.4,10.1,8.8,15.2c5.2,11.2,10,22.6,14.9,33.9c0.4,0.9,0.3,2.2-0.1,3.2
		c-0.9,2.5-2.4,4.7-3.1,7.2c-0.8,2.5-0.9,5.2-1.4,8.2c-1.8-0.1-3.9-0.1-5.9-0.5c-15.3-2.9-30.5-5.9-45.8-8.9c-1.7-0.3-2.3-1-2.1-2.9
		c2.1-17.2,9.5-31.9,21.8-44.1C430.1,689.4,434.5,686,439.2,681.9z"/>
	<path class="st0" d="M542.8,709.7c-15.2,9.3-30.3,18.4-45.3,27.5c-2.9-2.4-6.3-5.1-9.5-7.8c-0.4-0.3-0.6-1.2-0.6-1.8
		c-1-18.7-2-37.3-3-56c0-0.5,0.1-0.9,0.1-1.3C504,670,531.5,688.1,542.8,709.7z"/>
	<path class="st0" d="M447.3,473.3c-8.8,2.2-17.3,4.5-25.8,6.5c-9.7,2.3-19.5,4.5-29.2,6.7c-3.8,0.8-7.4-1.4-8.6-4.8
		c3.4,0,6.8,0.2,10.2,0c2.9-0.2,5.8-0.7,8.7-1.2c4.1-0.9,6.7-3.6,7.1-8.1c0.2-2.1,1.1-2.7,3-3.2c14.7-3.7,29.4-7.7,44.1-11.4
		c2.2-0.5,4.7-0.7,6.9-0.3c9.4,1.6,17.5-0.6,24.7-7c1.3-1.2,3.2-1.8,5-2.2c4.4-1.2,8.8-2.3,13.2-3.2c3.8-0.8,6.2,1.1,7.3,5.3
		c0.8,3.2-0.8,5.8-4.4,6.7c-9.8,2.6-19.6,4.9-29.3,7.5c-6.2,1.6-12.4,3.4-18.5,5c-2.2,0.6-2.3,1.7-2.1,3.9c0.8,7.5,1,15,1.8,22.6
		c1.2,12.9,2.8,25.7,3.9,38.5c0.2,2.5-0.8,5.1-1.4,7.6c-0.1,0.3-0.6,0.6-1,0.8c-0.1,0-0.2,0-0.3,0c-2.2,0-4.5,0.5-6.5-0.1
		c-2.8-0.8-1.6-3.7-1.8-5.6c-2.3-20.7-4.4-41.5-6.6-62.2C447.6,474.7,447.5,474.2,447.3,473.3z"/>
	<path class="st0" d="M154.4,807c-1.9-2.1-3.6-4-5.2-5.9c-10.5-12.1-21.1-24.2-31.7-36.2c-1-1.2-0.9-1.9-0.2-3.2
		c1.7-3,4.1-3.7,7.4-3.9c16-0.9,32-2.2,48-3.3c1-0.1,2-0.1,3.4-0.2C175.3,774.6,167.6,791.7,154.4,807z"/>
	<path class="st0" d="M244,638.6c-1.9,1.8-3.9,3.5-5.8,5.3c-3.9,3.8-7.7,7.8-11.7,11.5c-1,0.9-2.6,1.6-3.9,1.7
		c-14.2,0.5-28.5,0.8-42.7,1.2c-0.8,0-1.5,0.1-2.3,0.2c-5.1,0.5-8.9-1.4-10.8-5.5c-2.3-4.8-1.7-10.9,1.8-13.9
		c1.6-1.4,4.2-2.3,6.3-2.3c8.4,0,16.8,0.4,25.2,0.5c13.8,0.2,27.6,0.3,41.4,0.4c0.6,0,1.3,0.1,1.9,0.1
		C243.6,638,243.8,638.3,244,638.6z"/>
	<path class="st0" d="M494.7,428c0.4,14.4-10.3,26.7-23.7,27.1c-16.5,0.5-30.5-11.6-30.6-27.2c-0.1-13.2,9.6-26,26.4-26.7
		C483,400.6,494.2,411.5,494.7,428z M467.9,409.8c-10.3,0-19.2,8.5-19.2,18.1c0,9.3,10.3,18.3,20.5,18.5c9.2,0.2,17.2-7.9,17.2-17.4
		C486.5,418.2,478.2,409.7,467.9,409.8z"/>
	<path class="st0" d="M468.2,728.4c-3.5-8.4-6.9-16.9-10.7-25.1c-3.8-8.2-8.2-16-12.7-24.8c6.9-2.6,13.9-5.2,21.8-8.1
		c1,20,2,38.9,3,57.8C469.2,728.3,468.7,728.3,468.2,728.4z"/>
	<path class="st0" d="M488.5,732.8c2.4,2.7,5.1,5.2,7.1,8.2c3,4.3,3.1,9,0.7,13.7c-4,7.6-10.2,12.6-18.9,13.2c-7.3,0.5-14-4-15.6-14
		c-0.9-5.5-0.3-10.8,2.2-15.7c1.1-2.2,3.1-4,4.6-6c0.4,0.2,0.9,0.4,1.3,0.7c-0.5,1.9-0.6,3.9-1.5,5.6c-3,5.7-3.8,11.5-1.8,17.5
		c1.8,5.5,6.7,8.2,12.5,7.2c5.2-0.9,9.3-3.5,12.2-7.9c3.4-5.2,3-10.5-1.5-14.8C487.8,738.3,486.5,736.3,488.5,732.8z"/>
	<path class="st0" d="M472.1,584.8c-3.6,0-6.8,0.1-9.9-0.1c-0.7,0-1.9-1.3-2-2.1c-1.3-8.9-2.5-17.9-3.7-26.8
		c-0.1-0.5-0.1-1.2,0.2-1.6c1.1-1.3,7.4-0.2,8.2,1.4c1.5,2.8,3.8,5.4,4.4,8.4C470.7,570.7,471.2,577.7,472.1,584.8z"/>
	<path class="st0" d="M136,734.3c10.4-6.1,20.8-12.2,31.8-18.7c2.1,5.5,4.1,10.9,6.2,16.6c-13,1-25.4,2-37.7,2.9
		C136.3,734.8,136.1,734.6,136,734.3z"/>
	<path class="st0" d="M112.4,736.8c-2.7-0.3-5.2-0.6-7.6-1c-1.1-0.2-2.2-0.7-3.3-0.9c-6-1.4-10.1,0.6-12.5,6.3
		c-2.2,5.1-2.4,10.5-0.4,15.7c2.1,5.7,8.6,8.2,14.9,5.9c1.6-0.6,3-1.6,4.6-2.2c2.4-1,4.9-1.9,7.3-2.9c0.2,0.3,0.4,0.7,0.7,1
		c-1.7,1.7-3.3,3.4-5.2,4.9c-6.5,5.6-15.2,6.3-21.3,1.5c-5.5-4.2-6.6-10.4-6.3-16.8c0.3-6.7,2.3-12.9,8.7-16.5
		c5.9-3.3,15.6-1.6,20.1,3.5C112.2,735.5,112.2,735.8,112.4,736.8z"/>
	<path class="st0" d="M240.5,721.2c-0.1,3.2-0.4,6.2-0.4,9.2c-0.1,3.5,1.4,5.3,4.3,5.5c3.6,0.3,5.5-1.1,5.9-4.8
		c0.3-2.5,0.3-5.1,0.5-7.7c0.3-0.1,0.6-0.2,0.8-0.4c0.9,1.1,2.1,2,2.7,3.2c2.8,5,2.2,10-0.9,14.7c-1.9,2.7-4.6,4-8.1,3.6
		c-8-1.1-14.4-10.6-11.9-17.7C234.6,723.6,237.4,721.4,240.5,721.2z"/>
	<path class="st0" d="M250.9,716.8c7.7,1.5,12.7,10.3,11.1,18.1c-0.4,1.9-0.9,3.9-1.7,5.7c-4.5,10.6-13.6,13.3-23.3,7
		c-7.2-4.7-11.4-14.7-9.3-22.3c1.4-5.3,6.5-10,11.4-10.6c0.7-0.1,1.4,0.5,2.1,0.7c-0.4,0.7-0.8,1.8-1.4,2
		c-10.1,2.5-12.1,13.3-7.3,21.5c2.5,4.3,6.2,7.5,11.1,8.6c8.5,1.8,13.4-3.8,14.9-10.7c1.6-6.9-0.4-12.9-6.3-17.2
		C251.6,719,251.4,717.7,250.9,716.8z"/>
	<path class="st0" d="M248.1,776.6c-4.8,0.6-9.5,1.1-14.3,1.7c-2.8,0.4-5.2-1.4-5.6-4.3c-0.4-2.7,0.9-4.5,3.9-4.6
		c8.2-0.2,16.4-0.2,24.6,0c2.3,0,3.7,1.5,3.5,4.2c-0.2,2.5-1.6,3.5-3.9,3.5c-2.7,0-5.5,0-8.2,0C248.1,776.9,248.1,776.7,248.1,776.6
		z"/>
	<path class="st0" d="M247.6,697.2c-4.4-0.2-9.1-0.5-13.6-0.8c-2.3-0.2-3.8-2.1-3.6-4.2c0.2-2.8,2.1-2.9,4.3-2.7
		c8.6,0.7,17.1,1.4,25.6,2.2c0.7,0.1,1.9,0.6,2,1c0.1,0.8-0.1,2.1-0.7,2.5c-0.9,0.7-2.1,1.2-3.3,1.3
		C254.8,696.8,251.3,697,247.6,697.2z"/>
	<path class="st0" d="M245.1,700.2c1.6,0,2.7,0,4.3,0c-0.3,5.2-0.6,10.1-0.9,15.1c-0.3,4.5-0.6,9-0.8,13.5c-0.1,0.8,0.1,1.7-0.2,2.2
		c-0.6,0.8-1.6,1.8-2.5,1.8c-0.6,0-1.7-1.4-1.8-2.2c-0.2-1.7,0.1-3.4,0.2-5.1C244,717.1,244.5,708.8,245.1,700.2z"/>
	<path class="st0" d="M241.7,753.8c1.7,0.1,2.9,0.2,4,0.2c0,3.5,0.3,6.8-0.1,10c-0.3,2.6-2.5,1.3-4.4,1.3
		C241.3,761.5,241.5,757.8,241.7,753.8z"/>
	<path class="st0" d="M267.9,644.4c2.9,5.7-0.6,9.2-7.8,9.1C262.4,650.8,265.1,647.7,267.9,644.4z"/>
	<path class="st0" d="M390.1,457.4c0.8,2.3,1.4,4.3,2.3,6.9c-3.6,0.3-6.8,0.6-11,1C384.6,462.3,387.3,460,390.1,457.4z"/>
	<path class="st0" d="M487.2,755.2c0.2-3.9,0.5-7.9,0.7-11.9C491.8,746.3,491.4,752,487.2,755.2z"/>
	<path class="st0" d="M469.4,745.7c0.5,3.1,0.3,6.2,1.5,8.6c1.1,2.3,3.7,3.8,5.8,5.8c-2,0.5-3.8-0.6-5.4-2.1
		C468.5,755.2,467.6,749.7,469.4,745.7z"/>
	<path class="st0" d="M91.6,754.9c2.5,3.2,5.8,4.5,9.7,4.2c0,0.3-0.1,0.7-0.1,1c-1.8,0-3.7,0.3-5.4-0.1
		C93.5,759.3,91.8,757.7,91.6,754.9z"/>
	<path d="M299.6,74.1c21.9,0.7,36.8,22.1,30.6,42.3c-4.4,14.6-17,25-32.2,25.8c-11.2,0.6-21.5-4.8-26.6-17.8
		c-5.6-14-4.5-27.7,5.7-39.5C283.3,77.8,291.2,74.2,299.6,74.1z M296.2,129.3c5.1,0.2,9.9-2.2,14.4-5.3c9.7-6.7,11.5-19.8,3.9-28.8
		c-4.8-5.7-11.5-7.2-18.5-7.4c-6-0.2-10.3,2.6-13.2,7.7c-5.1,9-4.6,18.1,0.5,26.8C285.9,126.9,290.1,129.5,296.2,129.3z"/>
	<path d="M284.7,337.5c-19.6-0.2-34.9-5.1-46.7-18.1c-3.4-3.7-5.9-8.2-8.5-12.6c-1.7-2.8-1.1-5.2,1.1-7.5c2.9-3,6.1-2.7,8.6,0.6
		c8.5,11,19,19.1,32.6,22.7c10,2.6,20,2.1,30-0.5c11.6-3,21.6-8.7,29.3-18.2c8.2-10.2,12.1-21.8,12.3-34.8c0-2.3,0.3-4.4,2.8-5.3
		c3.2-1.1,5.7,0.5,6.1,4.2c1.4,13.6-1.2,26.4-8.9,37.8c-11,16.4-26.6,25.9-45.7,29.9C292.6,336.6,287.4,337.1,284.7,337.5z"/>
	<path d="M260.8,146.8c-0.2,9.5-2.8,18.5-10.1,25.6c-16.4,15.8-44,10.9-51.4-13.4c-4.1-13.5-0.2-25.5,7.8-36.5
		c4.5-6.2,9.9-11.4,17.4-14c9.1-3.1,17.1-0.7,23.6,5.9C256.7,123.2,260.6,134.1,260.8,146.8z M250.2,146.7c0-6.8-2.6-12.6-6.6-18
		c-7.5-10.3-17.9-9.2-26.1-2.5c-8.4,6.8-11.6,20.1-7.9,30.3c2.8,7.4,8.1,12.1,16,13.1C238.7,171.2,250.2,160.4,250.2,146.7z"/>
	<path d="M157.7,215.2c13.8,0.4,26.2,4.8,36.2,14.3c11.1,10.6,15.4,24,14.2,39.1c-0.9,11.9-4.9,22.8-12.8,32.1
		c-6.1,7.2-13.8,11.5-23.3,11.7c-18.6,0.2-32-9.4-41.6-24.1c-9.1-13.8-10.9-29.4-7.5-45.4C126.7,225.2,139.7,215.1,157.7,215.2z
		 M123.9,253.4c0.7,5.8,1,10,1.8,14.2c3.8,20.2,15.6,33.9,35.2,40.2c12.8,4.1,24.1,0.9,32.9-9.6c6.4-7.6,9.7-16.6,11.2-26.2
		c1.9-12.6-0.4-24.4-8.2-34.6c-10.1-13.2-24.1-19.1-40.5-18.9c-13.1,0.2-23.2,6-28.2,18.6C125.7,242.6,125,248.8,123.9,253.4z"/>
	<path d="M402.3,112.7c-5.7,0-9.2-2.9-10.2-8c-0.9-4.3-0.2-8.3,2.7-11.7c4.7-5.6,12.7-4.2,15.5,2.8c1.6,4,1.5,8.2-0.3,12.1
		C408.4,111.3,405.6,112.9,402.3,112.7z"/>
	<path d="M442.2,92.3c-0.3,1.9-0.4,3.3-0.7,4.5c-1.2,4.9-4.3,7.5-8.9,7.6c-4.7,0-8.4-2.8-9.7-7.5c-1.4-5,0.3-11,4-13.8
		c4.7-3.6,11-2.1,13.4,3.3C441.3,88.5,441.7,90.7,442.2,92.3z"/>
	<path d="M467.9,409.8c10.2,0,18.6,8.4,18.5,19.2c0,9.5-8.1,17.6-17.2,17.4c-10.3-0.2-20.5-9.2-20.5-18.5
		C448.7,418.2,457.7,409.8,467.9,409.8z M483.5,428.8c0.1-6-4.4-12.8-10-14.9c-5.9-2.3-13.2-0.5-17.4,4c-6.7,7.3-6,15.1,2,21.1
		c1.4,1.1,2.9,2.1,4.5,2.8C472.6,446.5,483.3,439.7,483.5,428.8z"/>
	<path class="st0" d="M296.2,129.3c-6.1,0.1-10.3-2.4-13-7c-5.1-8.8-5.6-17.8-0.5-26.8c2.9-5.1,7.2-7.9,13.2-7.7
		c7.1,0.2,13.7,1.7,18.5,7.4c7.6,9,5.8,22.1-3.9,28.8C306.1,127.1,301.3,129.5,296.2,129.3z M305.9,94.6c-5.8,0-10,3.9-9.9,9
		c0.1,5.7,5.9,12.1,10.9,11.9c5.3-0.2,9.5-4.4,9.5-9.7C316.4,99.3,312,94.6,305.9,94.6z"/>
	<path class="st0" d="M250.2,146.7c0,13.7-11.6,24.5-24.6,22.9c-7.9-1-13.2-5.7-16-13.1c-3.8-10.1-0.6-23.4,7.9-30.3
		c8.2-6.7,18.6-7.8,26.1,2.5C247.6,134.1,250.2,139.9,250.2,146.7z M246.8,143.2c-0.1-6.2-5.1-11.6-10.7-11.4
		c-5.4,0.2-9.7,4.3-9.6,9.2c0.1,6.2,5.4,12.1,10.9,12C242.5,153,246.9,148.4,246.8,143.2z"/>
	<path class="st0" d="M123.9,253.4c1.1-4.6,1.9-10.8,4.1-16.4c5-12.6,15.1-18.4,28.2-18.6c16.4-0.2,30.4,5.6,40.5,18.9
		c7.8,10.2,10.1,22,8.2,34.6c-1.5,9.6-4.8,18.6-11.2,26.2c-8.8,10.4-20.1,13.7-32.9,9.6c-19.6-6.3-31.3-19.9-35.2-40.2
		C124.8,263.5,124.6,259.2,123.9,253.4z"/>
	<path class="st0" d="M483.5,428.8c-0.2,10.9-11,17.7-20.9,13.1c-1.6-0.8-3.1-1.8-4.5-2.8c-8-6-8.7-13.8-2-21.1
		c4.2-4.6,11.5-6.3,17.4-4C479.1,416,483.7,422.8,483.5,428.8z"/>
	<path d="M305.9,94.6c6.1-0.1,10.5,4.7,10.5,11.2c0,5.3-4.2,9.6-9.5,9.7c-5,0.2-10.8-6.2-10.9-11.9
		C295.9,98.5,300.1,94.7,305.9,94.6z"/>
	<path d="M246.8,143.2c0.1,5.2-4.3,9.7-9.4,9.8c-5.6,0.1-10.9-5.8-10.9-12c-0.1-4.9,4.3-9,9.6-9.2
		C241.7,131.6,246.8,137,246.8,143.2z"/>
</g>
</svg>
