<?xml version="1.0" encoding="utf-8"?>
<!-- Generator: Adobe Illustrator 26.0.0, SVG Export Plug-In . SVG Version: 6.00 Build 0)  -->
<svg version="1.1" id="Capa_1" xmlns="http://www.w3.org/2000/svg" xmlns:xlink="http://www.w3.org/1999/xlink" x="0px" y="0px"
	 viewBox="0 0 595.3 750.2" style="enable-background:new 0 0 595.3 750.2;" xml:space="preserve">
<style type="text/css">
	.st0{fill:#FFFFFF;}
</style>
<g>
	<path d="M282.7,647.7c10.4,7.6,22.7,11.6,33.1,19.4c14.5,10.4,40.1,21.2,31.4,43.3c-1.5,3.8-3.8,7.1-6.5,10.1
		c-5.9,7.7-14.2,13-24,10.6c-19.3-3-65.1-47.5-77.8-64.1c-7.5-10-4.9-24.3,1.6-34.2c2.6-3.9,5.1-7.3,7.3-11.6
		c-15.8,6.5-34.3,4.5-46.6-7.9c-19.8-19.1-39.4-38.5-58.6-58.3c-2.9-2.8-6.2-5.3-10.1-6.6c-4.2-1.3-5.3-0.6-6.2,3.7
		c-1,4.6-0.7,9.3,0.2,13.9c1.9,11.2,12.4,24.6,2.5,34.8c-5.7,5-18.2,4.4-20.3-4.1c-7.3-25.8-20.5-76.6,21.5-76
		c29.6,2.2,56.8,39.4,75.2,60.5c8.5,10.7,24.5,20.5,37.5,11.4c4.1-3,8.6-5,12.5-8.3c-17-11.8-27.3-27.9-35.2-46.7
		c-12-29.3-11.6-61.4-9.7-92.5c-4.2-0.8-8.1,0.5-12.2,0.8c-9.5,1.3-19.6,0.5-28.1,5.6c-19.3,10.5-34.5,30.9-57.7,33
		c-20.4-0.6-37.8-13.5-27.5-35c0.8-2.3,2.4-4,4.5-5.1c7.2-3.1,15-4.5,21.1-9.7c14.8-10.9,30.6-20.5,47.9-27.1c0.5-0.2,1-0.5,1.4-1.2
		c-28.1-4-57.4-8.9-81.9-24.1c-4.4-3.7-28.9,13.2-33.7,16.8c-0.7,0.5-0.7,0.5-2,0.5c-0.4-1.1,0.5-1.3,1.1-1.8
		c9.3-7.3,19.4-12.3,30.1-17.6C67.3,375.5,61,371.1,56,365c-0.9-1-1.7-1.2-2.9-0.9c-11.6,3.1-22.8,7.2-33.4,13
		c-0.4,0.2-0.8,0-1.5-0.1c0.6-1.4,1.7-1.8,2.6-2.3c10.3-5.6,21.2-9.1,32.5-12.4c-21.1-29.6-22.2-68-21.9-103.2
		c1.3-20.9,1.3-42.9,9.4-62.5c9.2-20.5,24.1-36.1,42.5-48.5c2-1.4,2.7-2.7,2.3-5.1c-2.3-12-4.2-24.1-6.5-36.1
		c-1.8-8.2,7.9-10.5,14-8.4c18.3,4.6,36.2,12.5,49.8,25.9c1.4,1.4,2.7,1.6,4.6,1.2c50.8-10.9,103.5-13,155.1-7.4
		c8.9,1.2,17.8,2,26.6,3.6c3.6,0.6,5.7-0.4,8.2-2.6c15.5-13.2,32.8-25.3,52.7-30.5c9.1-1.9,22.4-3.9,26.4,6.9
		c8.7,28.3-0.2,58.2-5.5,86.1c0.4,2.8,1.2,5.5,2.4,8.1c16.8,40.3,25.5,84.1,24.8,127.7c-3.2,34.6-36.5,55.6-66.3,66.6
		c-5.6,2.1-11.1,4.4-16.6,6.5c-0.3,0.1-0.5,0.3-0.7,0.9c22.7,2,52.5-6.6,71.7,8.1c6.4,5.5,7.6,15.1,5.1,22.9
		c-2.4,6.1-6.9,9.8-12.5,12.8c-5.5,3-11.4,4.1-17.6,4.5c-38.6,2.2-77.3-0.6-115.8-2.6c1.3,27.3,23.4,75.4,48.4,88.3
		c4.7,3.2,27.6-2,34-3.4c29.5-6.8,57.8-17.4,86.6-26.1c16.7-4.9,33.4-9.5,50.1-14.4c16.6-4.6,34.8-13,51.6-4.7
		c9.9,5.5,15.5,16.6,18.7,27.1c7.5,32.8-25.5,45.6-52.1,48.2c-18.6,1.6-36.6,6.5-55,9.4c-31.7,5.3-63.6,9.3-95.6,12.2
		c-5.3,0.4-9.8,2.6-13.7,5.9c-11.2,9.5-23.1,17.7-36.3,24c-1.5,0.7-2.7,1.7-3.8,3C306.4,620.5,295.1,634.3,282.7,647.7z"/>
	<path d="M170.6,57.3c-1.5,0.9-2.6,1.7-3.8,2.4c-3,1.7-8,1.2-9.1-2.6c-1.7-6.5-7.2-27.9,4.2-27.5c3.6,0.2,4.9,1.5,7.7,3.7
		c-1.2-10.1-10-41.8,10.5-31.1c12.3,9.6,42.9,31.6,32.6,49.4c-3.5,9.2-40.5,44.5-43.1,22.1C169.7,68.1,170.7,63,170.6,57.3z"/>
	<path d="M549.8,198.2c-0.8-9.1-4.5-18.4-2.4-27.5c5.3-17.1,31.6,12.7,37.6,18.6c6,7.3,14.1,17.6,8.3,27.1
		c-8.6,14-21.3,26.4-37.6,30.1c-10.2-1.3-3.9-16.8-4.9-23.6c-3.1,2-6,4.3-9.8,2.8c-1.6-0.7-2.7-1.7-3.1-3.5c-1.2-4.9-2.3-9.9-2.5-15
		c-0.2-5.2,0.5-13.6,7.7-12.1c2.1,0.4,4.2,1,5.7,2.8C549,198.2,549.3,198.3,549.8,198.2z"/>
	<path d="M403.1,632.3c-1-9.1-3.9-18.2-2.4-27.3c0.7-6.3,8.4-6.7,12.7-3.6c9.6,7.1,18.8,14.6,26.5,23.7c3.3,3.9,6,8.2,7.8,13
		c5.1,13.9-15.1,30.5-25.6,37c-3.3,1.9-6.8,3.3-10.2,5.1c-3.1,1.6-7.3-1-8-3.6c-1.7-6.6,0.5-13.1,0.3-19.8c-1.1,0.7-2,1.3-2.9,1.9
		c-3,2.2-8.1,2-9.8-1.7c-1.8-6.4-7.4-27.7,3.6-27.9C398.1,629.2,400.7,630.1,403.1,632.3z"/>
	<path d="M15.7,574.2c-3.3,2.4-6.5,4.7-10.5,2.6c-1.2-0.6-2.1-1.5-2.3-2.9c-0.9-7.5-4.4-15.2-2.1-22.7c1.6-6.8,9.9-5.8,13.6-1
		c0.5-8.5-9.7-36,6.4-33.2c13,5.9,33,24.6,38.3,38c6.4,16.5-22.1,37.6-35.7,42.5C10,600.5,16.3,581.6,15.7,574.2z"/>
	<path d="M93.3,735.5c-3.3,2-7.4,2.4-8.5-1.9c-2-6.6-4.3-22,7.3-16.7c-0.2-5.6-2.2-10.9-1-16.5c3.4-12.7,22.1,8.8,26.2,13.1
		c2.3,2.7,4.2,5.7,5.3,9.1c2.6,11.4-13.6,22.9-22.7,27.1C90.3,752.7,93.1,741.3,93.3,735.5z"/>
	<path d="M491.1,344.2c-0.5-5.4-2.3-10.3-1.4-15.7c1.6-7.8,8.7-4.3,12.7-0.5c5,3.9,10,8,13.9,13c1.9,2.5,3.5,5.3,4.9,8.1
		c4.3,11.2-14,24.5-23.1,28.2c-8.9,2.4-6.1-9.2-5.8-14.4c-3.4,1.6-7.7,2.4-8.6-2.1C482.5,353.4,478.3,340,491.1,344.2z"/>
	<path class="st0" d="M390.4,373.6c-13.9,6.6-28.4,11.9-42.7,17.6c-0.6,0.2-1.4,0.2-1.9,0c-18.8-8.4-38.2-15.2-58-20.8
		c-1.3-0.4-2.6-0.8-4-1.1c-0.7-0.2-1.5-0.6-2.1,0.8c21.5,6.6,42.6,12.5,62.9,22.6c-69.2,18.7-203.5,25.7-265.7-12.5
		c7.9-4.1,16.6-5.9,24.6-9.7c-1.3-1.2-2.4-0.5-3.2-0.2c-3.8,1.2-7.5,2.5-11.2,3.9c-3.5,1.3-7,2.8-10.5,4.2c-1.3,0.5-2.4,0.6-3.7-0.2
		c-6.3-4.2-12.6-8.7-17-15c16.1-4.6,32.9-5.8,49.4-7.1c1.2-0.1,1.2-0.1,1.7-1.4c-16.7,0-33.2,3.2-49.6,6.4c-3.2,0.6-3.2,0.7-5.2-1.9
		c-26.9-38.4-22.3-104.3-15.5-148.9c10.2-38.3,44.6-65.4,81.4-76.2c1.7-0.6,1.9-0.9,0.9-2.6c-8.3-14.8-23.4-23.6-39.3-27.9
		c2.5-8.6,25.5,2.1,31.2,4.1c11.1,4.8,21.4,11.2,29.8,20c0.8,0.8,1.6,1.1,2.8,0.9c8.7-1.7,17.4-3.6,26.1-5.1
		c45.8-6.8,92.5-7.6,138.4-2c10.7,1.7,21.5,2.7,32.2,4.6c28.8,6.2,54.6,26.7,66.2,53.9c0.2,4.4,1.8,8.4,3.5,12.4
		c14.7,35.9,23,74.6,23.8,113.4c4.2,29.3-18.5,53.7-42.6,66.3c-28.5-7-57.6-10.4-86.6-14.6c-14.2-2.1-28.5-4-42.8-5.9
		c-0.7-0.1-1.6-0.3-1.7,1.1c42.6,7,86.2,10.7,128.3,20.3C390.4,373.1,390.4,373.3,390.4,373.6z M95,293.9c9-0.4,23.2-1.8,32.3-6.2
		c11.7-4.4,11.1-19.1,8.7-29.1c-5.9-21.8-24.5-39.2-45.7-46.3c-19.6-5.8-40.3,5.3-44.5,25.8c-3.5,14.3-4.5,30.9,3.7,43.8
		C58.1,295,79,292.6,95,293.9z M171.5,290.6c-22.6-2-48.8,27.5-29.8,46.8c1.5,1.5,2.2,3.1,2.3,5.2c1.9,21.7,23.7,35.8,44,37.2
		c18.9,0.9,42.7-9,46.5-29.3c3.3-18.4-5.7-34.4-20.8-44.4C201,297.6,187,290.9,171.5,290.6z M284.8,181.8
		c-48.2-1.5-86.5,50.7-67.9,95.9c16.4,47.3,82.5,62,117.8,26.7C382.1,260.6,348.7,181.1,284.8,181.8z M315.8,182
		c3.5,0.3,7-0.5,10.3-1.8c4.3-1.6,4.4-8.4-0.1-9.8c-10-2.7-21.5-1.7-29.5-9.5c-3.2-2.9-9.9-3.9-11.6,0.9c-0.7,2-1,4.1,0.4,5.9
		C292.1,177.8,304.1,181.7,315.8,182z M92.1,210.1c5.9,0.2,13.9-3.2,14.5-10.1c0.4-2-0.5-3.4-2.3-4.1c-1.1-0.4-2.4-0.5-3.5-0.3
		c-5.5,1.4-10.5,1-15.3-2.4c-1.8-1.3-4-2.1-6.3-1.8c-9.2,0.6-5.1,12.7,0.6,15.5C83.4,209.1,87.3,210.1,92.1,210.1z"/>
	<path class="st0" d="M360.6,399.1c-1.8-2.5-5.2-2.5-7.3-4.9c20.6,0.4,53.5-5.3,70.2,6.2c8.4,5.9,9,19.5,2.4,26.9
		c-2.4,2.8-5.5,4.6-8.7,6.3c-4.6,2.5-9.5,3.3-14.6,3.7c-39.9,3.2-79.8-1.1-119.7-2.4c2.1,29.6,16.2,57.8,34.5,80.7
		c13.4,14.3,20,15.1,38.6,11.3c30.3-5.8,59.5-15.7,88.6-25.8c27.6-8.1,55.4-15.9,83.1-23.8c12.7-3.5,28.6-2.5,36.4,9.6
		c10.5,13.9,14.5,33.1,1.1,46.6c-15.9,15.9-40.8,15.5-61.7,18.8c-29.8,6.7-60.1,11.3-90.5,14.9c-15,1.9-30,3.4-45,5
		c-5.3,1.4-9.7,5-14,8.4c-11.3,9.1-23.6,18.7-37.7,22.7c-28.5-1.3-56.6-14.6-75.9-35.5c-24-29.3-30.7-69.3-28.2-106.2
		c0.5-5.6,0.6-11.2,0.9-16.8c0.1-2-0.4-2.4-2.5-2.2c-9.3,0.9-18.7,1.8-28,2.7c-23.3,3.7-37.1,26.3-58.7,34.3
		c-10.3,4.8-22.3,2.6-31.8-3.3c-9.4-5.8-9.1-16.8-4.9-25.8c1.9-4.8,7.4-5.6,11.8-6.9c4.2-1.1,8-3.1,11.5-5.7
		c17.3-12.4,35.6-24.5,56.2-30.3c21.2-0.3,42.7,2.5,64,1.3c38.2-0.6,76.5-4.7,113.5-14.5c5.2-1.5,9.5,2.7,14.1,4.5
		C358.8,399.3,359.5,400,360.6,399.1z"/>
	<path class="st0" d="M271.4,593c14.8,7,28.9,11.1,45.2,11.9c-11.5,14.2-23.6,27.8-35.9,41.4c-1.3,1.4-1.4,1.9,0.2,3
		c10,7.5,22.2,11.5,32.3,18.9c11,8.9,27.8,14.1,32.5,28.6c3.5,11.4-5.2,21.8-13.3,28.8c-10.5,8.5-25.1,1.4-34.2-5.8
		c-20.4-16.9-42-33.1-58-54.5c-7-10.7-3-24.6,4-34.2C253.2,618.2,262,605.4,271.4,593z"/>
	<path class="st0" d="M269.1,592.5c-6.2,7.6-11.5,15.3-17.3,23.1c-14.4,11.4-37.1,8.6-49.7-4.5c-19.4-18.9-38.8-37.9-57.7-57.4
		c-4.2-4.3-9.5-7.8-15.6-8c-2.7-0.1-3.3,0.4-4.1,3c-6.1,19.7,8.3,30.6,5.6,45.3c-0.8,3.3-2.5,5.9-6,6.8c-5.4,2-12.4,0.9-13.7-5.6
		c-4.3-20-17.9-57.3,5.6-69.4c26.3-11,48.2,14.8,65.1,31.3c17,15.8,33.9,53,62.1,38.1c4.3-2.8,8.6-5.5,12.8-8.3
		c1-0.6,1.8-0.8,2.9-0.2C262.4,588.6,265.8,590.3,269.1,592.5z"/>
	<path class="st0" d="M403,166.2c-13.2-19.4-30.4-32.5-52.4-39.7c12.7-10.7,27.8-18.9,43.8-23.4c4.8-1.7,11.6,0.5,12.6,6
		c1.6,14-1.3,28.2-1.7,42.2C404.7,156.6,404.6,161.2,403,166.2z"/>
	<path class="st0" d="M408.9,176.3c-1.5-3.3-4.6-5.9-4.2-9.4c1.6-11.2,7.6-53.3,2.4-61.2c-4.2-6.6-12.9-4.6-19.1-2.3
		c-13.6,4.7-25.7,12.1-37.1,20.6c-1.9,1.4-3.5,2.1-5.9,1.1c-2.9-1-5.5-0.9-8.6-2.1c19.7-16,42.7-34.9,69.5-33.1
		C427.1,92.2,414.7,162.4,408.9,176.3z"/>
	<path class="st0" d="M81.4,105.4c16.8,3.7,29.4,12.4,38.5,27c-10.8,4-21.4,7.4-31.4,12.9C86.1,131.9,83.8,118.9,81.4,105.4z"/>
	<path class="st0" d="M172,52c-2.4,2.4-4.7,5.7-8.3,6.3c-1.9,0.3-3.4-0.5-3.8-2.2c-1.2-4.9-6.6-25,2.4-24.1c2,0.4,3.8,1.1,5.1,2.8
		c4.7,5,5.7,1.1,4.3-3.7c-0.3-7.4-9.3-36,7-27c10.5,7.6,41.3,31.4,32.3,45.9c-7,11.8-16.6,20.8-29,26.7c-3.6,2-9.1,4.2-10-1.7
		c-0.1-6.7,1-13.4,1.3-20.1C173.5,53.7,173.8,52.5,172,52z M203.3,42.5c0-2.1-1.3-4.7-3.7-5c-4.9-0.6-6.1,6.4-3.8,9.5
		C199,51.2,204,47,203.3,42.5z"/>
	<path class="st0" d="M537.3,205.8c0.4-3.6,0.4-9.6,5.6-8.3c1.8,0.3,3.3,1,4.4,2.4c1.8,2.7,5.9,4,5.1-0.6c-0.9-9.4-4.9-19-2.7-28.3
		c3.4-12.8,31.3,17.2,35.1,21.9c2.6,3.2,4.8,6.7,6.7,10.4c7.1,15.5-20.2,35.4-32.8,40.4c-5.8,2.4-7.3-3.5-6.4-8.1
		c0.4-5,0.8-10,1.2-15c0.1-1,0.8-2.4-0.7-3c-1.3-0.5-1.7,0.9-2.3,1.7c-2.3,3.2-9.1,7.5-10.6,1.5
		C538.8,215.9,537.4,210.9,537.3,205.8z M574.5,208.4c2.5,11.1,12.5,3.9,7.9-3.9C578.7,200.2,575.5,204.3,574.5,208.4z"/>
	<path class="st0" d="M390.8,638.7c0.3-2.9,0.8-8.7,5.6-7.3c1.7,0.4,3.2,1,4.4,2.5c1.2,1.7,4.9,4.2,5.2,0.6c-1.1-9-4-17.9-3.4-27.1
		c0.2-6.1,5.2-7.1,9.8-4.1c12.3,9.3,24.8,19.1,32.2,33c8.4,16-19.2,35.6-32,41.1c-4.1,1.8-7.2-0.1-7-4.6c0.3-6.4,1-12.7,1.4-19.1
		c0.4-2.4-1-2.8-2.6-1.1c-1.5,1.4-3,2.8-4.6,4.1c-2.2,1.5-5.9,1.5-6.4-1.8C392.1,650,391.1,644.8,390.8,638.7z M437.1,642.4
		c-1.3-10.7-12.2-4.2-7.9,3.6C432.5,650.7,437,647,437.1,642.4z"/>
	<path class="st0" d="M18.4,569.5c-2.3-1.5-3.6,2.7-5.4,3.7c-2.3,2-7,3.7-8-0.3c-2-6.6-7-32.2,7.1-21.6c1.2,1.1,2.6,3.3,4.4,2.4
		c1.2-0.6,1.1-1.8,0.8-3c-0.6-6.8-10.3-37.6,5.3-30.5c11.3,8,43.6,32.2,32.9,47.7c-7,11.2-16.4,19.6-28.1,25.5
		c-3.8,2.1-9.5,4.2-10.3-2C17,584.2,18.4,576.8,18.4,569.5z M48.6,559.9c-0.3-4.3-4.1-7.9-7.6-3.9C36,563.7,47.2,571.1,48.6,559.9z"
		/>
	<path class="st0" d="M95.1,744c-0.1-2.8,1.9-12.1,0.3-13.2c-2.2-0.1-3.2,2.9-5.3,3.5c-1.5,0.6-2.7,0.2-3-1.4
		c-0.5-4.1-1.8-8.4-1.3-12.5c0.6-2.3,2.3-3,4.3-1.7c1.4,0.8,2.5,3.4,4.4,2.5c1-0.6,0.9-1.6,0.7-2.5c-0.6-3.7-1.3-7.3-1.9-11
		c-1.7-12.7,4-9.8,11.1-3.5c5.7,4.7,20,16.7,15.5,24.8c-4.3,7.5-10.4,13.2-18.1,17.2C98.5,748.1,94.7,749.3,95.1,744z M115.5,725.1
		c0.2-4.3-4.9-5.9-6.2-1.5C107.9,729.4,114.8,731.7,115.5,725.1z"/>
	<path class="st0" d="M494,369.9c0.2-3.3,0.5-6.5,0.7-9.8c0-0.7,0.3-1.8-0.8-1.9c-2.6,0.3-6.1,7.1-8,2.3c-1-3.1-4.3-17.9,2.8-14.3
		c1.3,0.9,2.7,2.9,4.4,2.4c1.2-0.8,0.8-2.9,0.5-4.2c-0.3-4.6-6-22.6,4.2-16.9c6.9,5.1,26.8,20.2,20.4,29.8
		C516.7,362.3,491.8,385.4,494,369.9z M514.4,352.3c-0.7-7.4-8.8-3.3-5.9,2.4C510.3,358.3,514.7,356,514.4,352.3z"/>
	<path class="st0" d="M76.4,290.6c-9.1-1.5-20.2-1.4-25.2-10.6c-7.4-12.3-6.3-27.9-3.1-41.4c3.2-16,18.2-27.1,34.5-25.3
		c0.2,1.3-0.8,1.7-1.4,2.2c-21.1,18.8-20.4,52.5-4.5,74.5C76.6,290.2,76.5,290.4,76.4,290.6z"/>
	<path class="st0" d="M95.3,291.4c-4.5-0.4-14.2,1.2-17.1-2.4c-8.4-10.7-12.1-25-11.6-38.5c0.9-14.2,6.5-26.1,17.4-35.3
		c1.3-1.1,2.6-1.5,4.3-1.1c3.9,1,7.5,2.7,11.6,4.9c-32.6,6.5-32.8,59.2-4.5,71.9C95.4,291.1,95.3,291.3,95.3,291.4z"/>
	<path class="st0" d="M118.9,253.9c-12.6-0.1-15.7-17.6-3.9-22.4c3.5-2,11.6,11.8,13.5,14.7C130.5,250.2,122.1,253.9,118.9,253.9z"
		/>
	<path class="st0" d="M163.4,325.8c0.8,4.6,1.7,9.2,2.5,13.9c-13.2,5.5-25.7-1.9-28.1-14.3c-2.7-20.9,21.7-36,40.7-31.9
		c18.9,3.8,37.8,13.6,48.8,29.7c-10.8,0.1-6.8,7.2-19.5,12.7c-11.8,6.2-25.2,4.5-38,4c-4.2-0.2-3.7-10.1-4.5-13.3
		c-0.1-1,0.6-1.4,1.5-1.9c3.2-1.7,5.8-4,7.7-7.1c2.3-4,5.3-11-0.1-13.7c-5.3-2.6-11.6-1.9-17.2-0.8c-5.2,1.3-7.6,5-6.4,10.2
		C152,319.9,156.8,324.5,163.4,325.8z"/>
	<path class="st0" d="M229.1,358.2c-15.7-3.1-35.1,0.9-42.5,16.6c-1.2,2.4-1.2,2.5-3.6,2c-17.6-3.2-35.8-16.1-36.8-35.3
		c12.9,5,14,0.3,25.3,0.8c16,1.5,34.3,1.2,46.5-10.8c2.9-3.4,5.5-7.7,10.6-5.1C233.7,335.2,234.7,349.2,229.1,358.2z"/>
	<path class="st0" d="M187.6,377.3c5-15.9,25.5-21.2,40.3-17.4C222.9,370.3,198.9,379.5,187.6,377.3z"/>
	<path class="st0" d="M175.1,309.3c-0.4,5.4-5.5,12.2-10.5,13.8c-6.7,1-11.4-6.2-11.9-12.1c-0.5-3.7,3.6-5.7,6.7-6.1
		C163.6,304.9,175.2,302.8,175.1,309.3z"/>
	<path class="st0" d="M285.6,322c-99.2-4.3-90.6-144.6,7.4-137.4C379.3,196.5,372.4,318.5,285.6,322z M294,303.5
		c64.1-1.2,70-94.9,6.7-104.2C228.7,192.9,221.6,300.2,294,303.5z"/>
	<path class="st0" d="M315.1,180c-8.5-0.7-17-2.8-24-8.9c-2.4-2.3-6-5.7-3.6-9.1c1-1.4,2.5-1.4,4-1c1.1,0.3,2.3,0.8,3.2,1.6
		c7,6.1,16.1,8,25.1,8.8c2.4,0.8,6.9,0.4,7.3,3.7c0,1.3-0.4,2.5-1.6,3C321.9,179.4,319.1,179.9,315.1,180z"/>
	<path class="st0" d="M92.1,207.9c-5-0.4-9-1.1-12.4-3.8c-2.6-2-6.1-8.7-1.3-10c2-0.6,3.9-0.2,5.4,0.9c10.8,8.6,21.8-1.7,20.2,5.8
		C103.1,206.4,96.3,207.3,92.1,207.9z"/>
	<path class="st0" d="M201.1,43c-0.1,4.2-4.1,4.4-4.1,0.1C196.8,38.7,201,38.9,201.1,43z"/>
	<path class="st0" d="M581.3,208.5c-0.1,4.2-4,4.1-4.1,0C577.2,204.3,581.3,204.1,581.3,208.5z"/>
	<path class="st0" d="M434.8,642.5c-0.2,4.3-4.1,4.2-4.2,0C430.9,638.2,434.6,638.2,434.8,642.5z"/>
	<path class="st0" d="M42,559.7c0.3-3.9,4-3.9,4.3,0C46.4,564.3,41.8,564.1,42,559.7z"/>
	<path class="st0" d="M112,723.4c1.5,1.4,1.5,1.6,0.2,3.1C111.1,725.6,111.3,724.7,112,723.4z"/>
	<path class="st0" d="M511.3,350.8c0.9,1.2,0.8,2.2,0.1,3.2C509.8,352.7,509.8,352.4,511.3,350.8z"/>
	<path class="st0" d="M294.3,301.9c-74-3.6-60.9-114.7,11.9-99.9C362.8,216.6,352.7,301.1,294.3,301.9z M331.2,249.8
		c-0.1-46.7-71.7-47.8-72.6-0.1C259.6,297.1,330.9,296,331.2,249.8z"/>
	<path class="st0" d="M299.8,236c0-15.1,22.5-14.7,22.5-0.1C322.2,250.6,299.8,250.7,299.8,236z"/>
</g>
</svg>
