<?xml version="1.0" encoding="utf-8"?>
<!-- Generator: Adobe Illustrator 26.0.0, SVG Export Plug-In . SVG Version: 6.00 Build 0)  -->
<svg version="1.1" id="Capa_1" xmlns="http://www.w3.org/2000/svg" xmlns:xlink="http://www.w3.org/1999/xlink" x="0px" y="0px"
	 viewBox="0 0 595.3 775.8" style="enable-background:new 0 0 595.3 775.8;" xml:space="preserve">
<style type="text/css">
	.st0{fill:#FFFFFF;}
</style>
<g>
	<path d="M101.1,383.1c-7.1,0-9.2,6.5-15.3,8.1c-4.3,1.5-8.2-0.7-10.1-3.4c-14.1-21.2,24.6-45.5,37.8-14.8
		c14.3-7.3,29.4-14.8,45.8-14.9c1.7,0.1,3-0.4,3.6-2.1c0.9-1.6,2.1-2.4,0.9-4.3c-4.3-9.4-8.9-18.6-12.5-28.4c-0.3-0.9-0.5-2-0.3-2.9
		c1.4-4.9,2-9.6,4.3-14.2c6.6,5.2,12.3,10.8,18.7,16.1c3.8-8.8,6.1-18.3,9.3-27.4c0.3-1.1,0.5-2.4,0.3-3.5
		c-3.2-22.8-3.6-45.9-6.3-68.7c-0.3-47.6,43.3-82.1,85.4-94.7c-7-21.6-14.3-43-21.4-64.6c-2.4-8.6-6.6-16.8-7.8-25.6
		c1.6-0.6,2.2,0.6,2.8,1.2c7.6,7.4,14.8,15,22.5,22.3c4.6-19.5,8.1-39.3,12.3-58.9c0-2.3,1.7-3,3-0.9c9.8,16.7,18.7,33.9,28.7,50.5
		c7.5-8,14.5-16.2,21.8-24.4c0.7-1.1,2.7-2.3,2.9-0.2c-1.8,30.7-4.6,61.3-6.2,92c54.9,2.6,102.3,36.9,117.7,90.3
		c8,21,12,43.2,11.6,65.7c0.6,3.7-1.9,11.8,0.3,14c24.3,27.4,47.7,58.3,55.6,94.8c13.5,62.5,21.4,157.8-51.5,185.1
		c6.9,35.5-2.3,73.8-27.8,100.1c-3.7,4.8-5.8,2.3-7.6,6c-3.5,4.9-6.5,12.2-13.7,11.4c-0.6-0.1-1.3,0.5-1.9,1
		c-6.4,6.7-14.4,12.4-24.2,8.3c-0.3,4.5,0.6,8.8,1,13.3c0.1,1.1,0.6,2.1,1.2,3c2,3.6,5.2,6.7,6.4,10.7c2.7,15,4.2,30,3.3,45.2
		c0,1.2-0.5,1.9-1.5,2.5c-3.5,1.6-6.6,4.6-10.4,5.2c-9.1-0.4-18.5,0.3-27-3.6c-5-2.3-14-5.4-16.5-10.3c-3.2-7-6.4-14-9.6-21
		c-7.6-17.3-1.9-6.6-16.7-14.2c-1.6,2.2-3.3,4.3-4.8,6.6c-1,1.6-2.3,2.4-4.1,2.7c-13.7,3.1-27.6,5.8-41.6,2.5
		c-1.8-0.2-4.1-4.8-3.4-6.4c2.7-6.7,5.4-13.4,8.1-20.2c2-5.2,2.6-9.6,6.9-13.6c-0.7-1.8-1.9-1.7-3.3-1.2c-10.6,3.9-21.9-0.4-29-8.7
		c-0.4-0.4-1.3-0.8-1.7-0.6c-10.1,3.3-17.2-5.4-23.5-11.7c-1-1.1-2-1.9-3.6-2c-8.5-1.4-13.6-12.4-17.3-19.4
		c-1.9-4.4-6.4-4.4-8.6-9.2c-20.3-33.8-19.7-74.6-6.2-110.4c-1-6.1-0.2-12.1,0.8-18.1c0.5-3,2.4-5,4.9-6.9c-0.5-0.4-0.9-0.7-1.3-0.9
		c-3.5-1.1-6-3.5-8.3-6.2c-3.3-4.3-1.7-10.2-1.3-15.2c-1.3-0.4-2.4-0.7-3.7-1.1c-5.7,3.9-12.8,5.2-19.6,4.8c-2.5,0.3-8.1-1.9-9.7,0
		c-21.1,20-52.6-15.4-57.2-36C73.5,429.5,82,402.1,101.1,383.1z"/>
	<path d="M557.9,494.1c12.2,12.8,23.8,25.5,35.9,38.4c1.1,1.2,1.5,2.3,1.5,3.9c0,12.7,0,25.5,0,38.2c0,1.7-0.5,2.9-1.6,4.1
		c-11,12.3-21.9,24.6-32.8,37c-1.6,1.8-2,1.8-3.8-0.1c-11.3-12-22.4-24.2-33.8-36.1c-1.2-1.2-1.7-2.6-1.7-4.3
		c0.1-13.3,0.1-26.7,0-40c0-1.8,0.6-3,1.8-4.3C535,518.6,546,506.1,557.9,494.1z"/>
	<path d="M0,221.6c0-6.6,0-13.2,0-19.8c0-1.8,0.4-3.2,1.7-4.6c11.1-11.8,22.1-23.7,33.2-35.6c0.8-0.8,1.6-0.9,2.4,0
		c11.6,12.3,23,24.7,34.6,37c1.1,1.2,1.6,2.3,1.6,3.9c0,12.9,0,25.8,0,38.7c0,1.4-0.3,2.6-1.3,3.7c-11.1,12.5-22.3,25-33.3,37.5
		c-1.2,1.3-1.7,1.3-3,0c-11.4-12.1-22.7-24.4-34.1-36.5c-1.4-1.4-1.8-2.9-1.8-4.8C0.1,234.7,0,228.1,0,221.6z"/>
	<path d="M104,589.7c0,5.9-0.1,11.8,0,17.7c0,1.9-0.4,3.4-1.7,4.9c-10.7,11.8-21.1,24-31.8,35.7c-1.5,1.5-1.6,1.5-3,0.1
		c-11-11.8-22-23.6-33-35.4c-1.1-1.2-1.7-2.4-1.7-4.1c0.1-12.9,0.1-25.8,0-38.7c0-1.7,0.5-2.9,1.6-4.1
		c10.5-11.2,20.9-22.5,31.4-33.7c1.8-1.9,2.1-2,3.8-0.1c10.8,11.6,21.7,23.2,32.5,34.7c1.4,1.5,1.9,3,1.9,5
		C103.9,577.7,104,583.7,104,589.7z"/>
	<path d="M517.3,215.6c0,3.2,0,6.5,0,9.7c0,1.4-0.4,2.6-1.4,3.7c-5.7,6.4-11.3,12.8-17,19.2c-1.7,1.9-2.1,1.9-3.8,0
		c-5.9-6.3-11.7-12.6-17.7-18.9c-2.7-2.2-0.7-19.5-1.3-24.4c0-1.4,0.3-2.4,1.3-3.4c5.8-6.1,11.5-12.3,17.3-18.5
		c1.5-1.6,1.8-1.6,3.3,0c6.1,6.5,12.1,13,18.2,19.4c0.8,0.9,1.1,1.8,1.1,3C517.3,208.8,517.3,212.2,517.3,215.6z"/>
	<path class="st0" d="M280,526.6c2.6,4.3,6,7.5,11.3,7.6c2.8,0.1,5.7-0.1,8.2-1.5c4.9-2.5,9.5-10.3,4.5-14.8c-2.1-2.3-6.1-2.6-7-5.9
		c-1.8-5.8-5.9-11.4-12.6-11.8c0.6-7.3,3.3-14.2,7.4-20.2c1-1.4,2-1.7,3.6-1.3c8.5,1.9,17,2.9,25.7,2.4c12.7-0.6,25.3-3.4,36.9-8.8
		c1.6-0.8,2.4-1.7,2.2-3.5c-0.2-2.4-0.3-4.4-0.1-6.9c71.5,19.7,115.7,110.6,84.1,178.3c-5.7,10.3-15.6,29.4-27.6,32
		c-71.4,20-135.1-54.4-137-121.3c7.9-3.7,8.4-10.6,4.4-17.6C283.1,530.9,275.6,529.4,280,526.6z"/>
	<path class="st0" d="M207.7,292.3c3.4,1.9,6.5,2.2,9.7,1.1c2.8-0.2,5.3,2.3,5.8,5.1c0.2,0.9,0.8,1.8,1.3,2.9
		c16.5-11.7,36.4-18.3,56.7-17.5c4.3,0.1,5.5-1.2,4.9-5.5c-4.9-37.5-51.9-45-68.6-10.5c-3.5-1.2-6.2-3.6-8.7-6.1
		c-5.5-2.7-1.8,5-0.6,6.9c1.5,2.4,3.9,4,6.3,5.5c1.7,1.1,1.7,1.2,0.8,3.4c-3.1-0.6-6.3-1.3-9.4-1.9c-1.1-0.2-1.6-0.7-1.7-1.9
		c-1.7-11.1-3-22.2-5.1-33.2c-0.4-1.6,0.1-2.6,1.2-3.5c4.2-3.6,8.3-7.4,12.7-10.8c3.2-2.2,1.5-5.1,1.4-8.2c1.3,1.8,2.7,1.4,4.4,0.8
		c12.9-4.9,25.9-9.8,38.8-14.7c1.9-0.7,3.9-1.3,5.8-2.1c1.7-0.6,2-1,1.7-2.9c-1.5-12.6-3.2-24.2-4.3-37c5.4,9.5,8.8,20,13.5,29.9
		c1.2,2.7,1.2,2.8,4.2,2.4c21.7-3.4,43.4-7,65-10.5c2.1-0.3,4.2-0.6,6.3-0.9c2.1-0.4,2.4-0.6,2.4-2.9c0.2-6,0.1-11.6,0.5-17.6
		c2.9,8.1,3.2,16.7,5.1,25.1c0.5,2.5,0.6,2.6,3.2,2.8c4.8,0.4,9.6,0.7,14.3,1.1c10.5,0.9,22.7,0.3,29.5,9.8
		c6.3,7.1,8.2,16.1,9.9,25.2c-4.4,2.7-8.2,6.1-12.8,8c-5.3-3.4,3.5-4.6,4-13.8c0.3-2.2-0.3-7.2-3.4-4.4c-2.2,3-4.1,6-6.5,9.1
		c-10.7-8.1-23.6-14.9-37.4-12.4c-27,3.7-38,29.2-31.6,53.8c4.8,24.5,58.9,19.9,72.1,5c8.7-8.2-0.9-19.9,9.1-22.1
		c4-0.7,8.8-4.6,7.6-9.1c-2.5-1.1-8.2,3.1-11.5,3.2c-0.1-0.2-0.2-0.3-0.3-0.5c1-1.7,3.1-2,4.7-3c3-1.7,5.4-4.1,7.2-7.8
		c3.2,11.1,6.2,21.4,11,31.8c0.5,1.2,0.8,2.6,1,3.9c6.4,58.9-39.4,96.2-93.1,106.3c-18.5,4.1-37.9,5.3-56.5,1.1
		c-0.7-0.1-1.5-0.8-2-1.4c-3.8-3.9-8-7.2-12.9-9.6c-7.5-3.7-15.5-6-23.6-7.5c-3.5-0.2-6-2.1-8.3-4.5
		C216.5,336.5,212.4,313.4,207.7,292.3z M372,207.4c7.8-0.3-2-6.6-4.4-7.8c-9.4-4.6-18.8-3.9-28.3-0.1c-1.9,0.8-2.6,2-2.4,4
		c0.2,3.5,2.9,5.6,6.3,5C352.7,205.8,362.3,205.3,372,207.4z M273.1,241.7c6.3,0.2,9.1-7.1,2.8-9.6c-2.5-0.8-5-1.5-7.6-2.2
		c-8.4-1.9-18.2-0.7-24.2,5.8c-0.9,1.6,0,2.9,1.9,2.7C257.6,234.4,262.5,238.4,273.1,241.7z M315.4,325.3c13.2,3.2,28.6-5.6,33-13.8
		C338.7,319.1,328,324.3,315.4,325.3z M296.6,298c7.7-9.9,15.9-9.1,26.5-4.5c0-0.7-0.1-1-0.4-1.2C314.4,284.7,299.7,285.9,296.6,298
		z"/>
	<path class="st0" d="M454.3,566.6c-11.2-48.5-43.4-92.6-92.8-106.7c-1.8-0.5-2.1-0.7-2-2.6c0.8-5.1,2.9-10,4.4-14.9
		c0.7-2.1,1-2.2,3.2-1.6c6.9,1.6,13.5,1.3,20-1.8c1.1-0.5,2.5-0.6,3.7-0.4c8.8,1.4,17.4,3.5,25.7,6.7c17.7,7.8,32.6,5.8,36.1-15.7
		c2.1-12,2.9-24.1,3.4-36.2c0.1-1.7,0.7-2.9,1.9-4c5.3-5.2,10.5-10.5,15.8-15.7c5.2-5.1,5-11.5,0.4-16.7c-1.1-1.3-1.9-2.5-2.1-4.2
		c-0.3-7.7-7.5-9.7-6.4-13.6c0.7-2.8,1.1-5.7,1.9-8.5c2.5-9.1-11.3-14.2-14.6-4.6c-1.3,3.5-2.4,7.1-3.7,10.6
		c-2.1,0.6-4.1,2.2-6.3,1.8c-6.6-1.6-7.9,6.3-13,8.4c-7.4,3.3-9.5,11.3-9.7,18.7c-0.6,15-0.4,30.1-1.5,45.1
		c-5.6-3.3-10.8-6.1-17-7.5c-9.3-2.8-10.4-12-22.9-14.9c-7.2-1.8-14.9-0.4-21.2,3.5c-2.9,1.8-7.7-0.8-10.9-1.3
		c-0.5-0.1-1.1-1-1.1-1.4c0.6-5,1.3-10,2-14.8c50.3-13.3,83.6-47.5,83.5-100.8c3.6,4.8,6.6,10.8,12,13.8c5.2,2.6,8.7,7,12.4,11.2
		c17.3,20.5,33.4,42.7,43.2,68C517.4,428,530.4,539.5,454.3,566.6z"/>
	<path class="st0" d="M187.5,357.6c2.1-3.6,4.9-6.6,8.9-3.5c1.6,1.4,2.2,2,3.9,0.5c5.3-4.5,4.8,2.5,10.1,2.2
		c24.6,1.3,54.6,3.1,69.6,25.7c16.1,22.6,17.3,69-4.4,88.2c-7.7,5.9-12.2-2.6-19.2-3.3c-5.6-0.2-12.5-0.1-16.7-4.3
		c-1.4-1.7-1.5-1.7-3.2-0.2c-6.4,5.7-15.1,6.8-23.1,4c-1.4-0.5-2.4-0.3-3.4,0.8c-8.4,9.5-21.7,15.3-33.8,9.2
		c-11.3,11.9-18.5,14.3-35,11.4c-1.1-0.3-2-0.2-2.7,0.9c-20.4,21.2-53.5-19.1-55.2-39.8c-6.9-25,3.2-49.2,21.3-66.5
		c-0.2-1.1-1-1.5-2-1.7c-6.4-1.8-10.6,3.7-15.5,6.9c-12.4,6.8-20-17.5-0.1-26c10.3-4.6,19.8,1.6,24,11.9c1.1,2,1.1,2.1,3.1,1.2
		c14.4-7.7,29.7-14.7,46.3-15c5.1,0.3,3.3-6.3,8.6-5.8c3.9,0.3,2.6,2.4,4.5,3.7c1.4-0.3,2.2-2,3.1-3
		C180.4,351.2,184.3,354.8,187.5,357.6z M206.9,396c-7.8,5-17.4,5.1-26.3,4.6c-1.7-0.1-2.9,0.4-3.9,1.7
		c-7.3,10.3-20.7,10.8-31.3,5.4c-3.3,4.1-8,4.2-13,4.5c5.3,29.3,32.6,42,59.1,29.4C208.3,433.8,212.9,412.3,206.9,396z M258.6,383
		c-7,6.4-10.2,9.9-20.1,7.4c1.2,63.4,57.8,71.9,43.8,11.3c-0.2-2.7-4.3-12.6-7.2-12.4C268.6,391.3,263.8,386.1,258.6,383z
		 M240.9,416.8c-0.5-4.2-1.9-10.1-7.2-11.1c-5.8-1.3-12.8,0.7-15.9,6c-3.7,6.9-3,17,2.2,22.9c1.1,1.1,2,2.3,2.9,3.5
		c3.9,4.7,8.1,11.9,15.1,11.1c6.4-0.8,2.7-7.7,0.2-10.8c-1.6-1.9-2.2-3.5-0.3-5.5C239.5,428,240.4,422.9,240.9,416.8z"/>
	<path class="st0" d="M360.4,188.3c-2.7-12.3-4.8-24.8-7-37.1c0-1.3-0.6-2.3-1.7-3c-1.2,1.3-0.9,2.9-1,4.5
		c-0.3,9.5-0.2,18.9-0.9,28.4c-24.3,3.9-48.5,7.8-72.8,11.7c-6.1-13.4-11.6-26.6-17.5-40c-2.6-2.5-2.3,2-2,3.6
		c1.7,14.6,4,29,5.5,43.7c-15.3,5.7-30.4,11.4-45.9,17.2c-1.2-3-2.4-5.8-3.5-8.7c-1-2-1.1-4.8-3.4-5.8c-0.2,0.6-0.8,1.2-0.7,1.7
		c0.6,3.7,1.3,7.4,2,11.1c0.1,2.7,2.6,7.4,0,9.2c-4.5,3.8-8.9,7.8-13.4,11.5c-1.3,1.1-1.5,2.2-1.3,3.8c1.3,8.2,2.4,16.4,3.7,24.6
		c0.4,2.5,0.9,5.1,1.2,7.6c0.3,1.9-0.3,4.2,0.4,6c1.5,2.5,1.6,5.4,2.2,8.1c5.6,24.2,9.3,50.3,26.7,69.3c-6,0.1-12-0.7-18-1
		c-2.8-0.2-2.8-0.2-3-2.9c-0.2-2.7-0.3-5.5-0.3-8.2c0.3-2.4-2.2-2.8-3.6-4.1c-2.7-2.2-4.4-4.6-4.1-8.5c0.3-7.5,0.7-14.8,0-22.3
		c-3.2,1.4-4,4.7-6.6,6.3c-2.6-6.4-5-12.6-7.6-18.9c-4.3-12.2-3.1-25.6-4.9-38.3c-0.8-11.7-2.1-23.4-3.1-35
		c-0.5-43.8,38.7-78.2,77.8-90.6c42.6-18.1,96.5-13.7,134.4,13.4c21.8,15.4,36.7,38.7,44.6,64c9,24.4,14.6,50.9,10.9,76.9
		c-7.8-3.3-12-11.3-15.9-18.3c-8.5-16.3-12.7-34.4-16.7-52.3c-0.7-3.1-2-6.2-3.6-9C400.8,185.5,379.6,191.3,360.4,188.3z"/>
	<path class="st0" d="M416.9,674.6c-2.4,4.3-5.7,10.3-10.9,9.7c-1.5-0.9-2.3-0.1-3.3,0.9c-6.2,6.7-14,13.5-23.4,8
		c-1.6-1-1.7-1-3,0.4c-6.9,8-18.1,12.5-27.9,7.1c-1.8-0.7-2.9-2.4-4.7-0.7c-2.7,2.2-5.6,4.1-8.9,5.4c-9.5,3.9-20.1,1-27.8-5.4
		c-1.9-1.5-1.9-1.5-3.9-0.3c-11.8,7.1-23.3,4.3-32.5-5.3c-0.9-0.8-1.8-0.1-2.6,0.2c-11.9,4.7-22.1-0.8-29.7-9.8
		c-9.7,5-18.3-4.5-24.1-11.2c-0.9-1.1-1.8-1.6-3.4-1.6c-8.4-1.6-12.4-11.1-16.2-17.9c36,8.9,74-25.5,94.4-52.2
		C313.2,649.4,360.7,689.8,416.9,674.6z"/>
	<path class="st0" d="M178.9,541.4c3.6,7.9,8.1,15,17.1,17.2c5.7,1.5,11.2,3.6,16.9,5.2c2.9,0.9,6.4,0.4,9.1,2
		c10.6,6.8,25.6,10.7,35.3,0.3c1.7-1.8,3.7-3.2,5.8-4.6c3.6-2.3,7.2-4.6,10.1-7.8c1-1.1,2.3-1.6,4-1.6c1.6,15.5,4.7,30.7,10.1,45.4
		c0.4,6.9-18.1,23.5-23.6,28.5c-18.7,15.7-55.1,40.7-77.2,19.1C168.2,614.3,164.6,574.4,178.9,541.4z"/>
	<path class="st0" d="M280.7,524.4c-2.8,1.8-5.3,1.4-3.4,5.3c-5.9,1.4-11.2-1.3-16.9-2.3c-0.5-0.1-1.1,0-1.8,0.5
		c2.4,1.9,5.7,1.8,8.5,2.8c3.1,0.8,6.1,1.1,9.4,0.9c6.4-0.9,8.3,5.4,8.5,10.3c0.2,6.1-6.2,7.4-10.7,9.4c-0.7,0.3-1.5,0.6-2,1.1
		c-4.3,5.1-10.8,7.4-15.4,12.1c-8.4,9.6-23.8,7.5-33,0.3c6.4-2.1,13.1-10.3,7.5-16.4c-3.2-4.3,1.5-8.3-7.7-12c2-6-1.8-9.4-7.6-9.5
		c-6.1-0.2-12.2-0.6-18-2.5c6-4.3,8.8-10.3,6.2-17.2c-0.6-1.6-1.7-2.7-3.6-2.9c-8-1.2-7.7,5.8-14.6,4.8c-0.6-1-1.5-1.5-2.9-1.8
		c-4.8-1.1-8.8-6.3-8.9-11.2c0.1-3.5-0.7-6.4,3.6-6.8c21-4.9,41.6-10.2,62.8-14.8c-2.8,4.5-4,9.1-4,14.3c-5.8-4.3-11.2-3.5-16.5,0
		c-0.6,0.4-0.6,0.5-0.3,1.7c16.8-9.5,15.9,5,21.7,5.7c4.6-0.1,10.1,4.5,7.8,9.3c-2.9,7.4-13.6,13.9-20.1,6.9c-2.3-1.8-3.1-6-6.3-6.3
		c-1.8,0.1-3.9-0.7-5.4,0.7c0,0.2,0.1,0.4,0.1,0.6c10.1-0.5,5.1,3,12.4,7.6c7.7,5.2,16.2-1.3,20.4-7.8c16.4,0.7,22.2-10.7,20.8-25
		c6.3,0.6,10.2,4.1,8.2,10.9c-0.3,1.1-0.7,2.2-1.3,3c-1.5,1.9-2.7,7.8-1.7,9.9c2.1-0.9,3.8-2.4,5.8-3.4c5.8-2.9,10.8,3,12.8,7.9
		c1.6,4.8,1.8,4.8,6.3,6.9c3.8,2.5,4.4,5.4,2.1,9.4c-2.9,4.9-7.4,6-12.5,5.6C285.5,532.4,282.9,528.6,280.7,524.4z"/>
	<path class="st0" d="M324.9,31.5c-2.1,29.1-4.2,58.3-6.3,87.7c-18,0-36.6,0.1-53.3,7.8c-1.3-1.3-27-79.9-28-83.9
		c7.8,7.4,14.8,14.9,22.5,22.3c3-7.2,3.2-14.9,5.1-22.5c2.6-13,5.3-25.2,7.9-38.3c9.9,15.7,18.3,32.4,27.7,48.5
		c1.3,2.3,2,2.4,3.7,0.4c6.7-7.4,13.1-15,20-22.2C324.5,31.4,324.7,31.5,324.9,31.5z M283,102.9c3.3-6.8,5.5-13.7,8.5-20.6
		c0.5-1.3,0.5-2.3-0.3-3.6c-4.2-6.5-7.5-13.4-12.2-19.6c-3.3,7.1-5.1,14.7-7.8,22.1c-0.2,0.7-0.1,1.7,0.2,2.4
		C275.4,90,278.4,96.9,283,102.9z"/>
	<path class="st0" d="M287.8,458.3c4.8-11.3,6.1-23.4,6.3-35.6c0.1-2.4,0.8-4.9,1.6-7.2c3.1-9,7.8-17.3,13-25.2
		c1.1-1.6,1.3-1.7,3.1-1c1,0.4,2.1,0.9,3.1,1.1c4,1.1,4.4,6.2,9.7,7.9c10.7,4,17.2-7.2,21.9-5.9c3.1,1,6.2,1.3,9.2,2.6
		c-4.1,14,0,28.6,6.6,41.1c0.4,0.7,0.7,1.4,0.4,2.4c-1.7,5-3.3,10-4.9,15.1c-0.5,1.6-1.3,2.7-2.7,3.5
		C334.5,468.5,309.6,463.7,287.8,458.3z"/>
	<path class="st0" d="M410.1,408.2c3.7,1.5,6.7,4.3,10.9,5.7c1.3-16.2,0.9-32.3,1.6-48.5c0.2-6.4,2.1-14.2,8.7-16.7
		c4.8-1.1,5.6-8.9,10.8-8.1c-0.5,4.8,0.2,7.8,2.5,12c-1,2-3.4,2.7-5.6,3.2c-2,0.4-0.9,2.3,0.7,2.2c3.1-0.4,5.4-2.1,7.4-4.4
		c1.7,0.7,3.6,1.4,5.6,2.1c-1.8,6.4-2.8,10.2,5.3,11.3c5.9-0.2,5.8,5.3,9.4,3.6c-2.4-1.7-3.7-3-5.1-5.6c-2.5,1.6-4.9,0.5-7.3-0.3
		c-1.7-0.6-2.5-1.8-2.2-3.6c0.9-4.9,2.3-6.8,7.3-7.4c6-1.1,12.5,2.6,14.6,8.4c1.2,3.5,0.6,6.8-2.1,9.5c-5.8,5.8-11.4,11.7-17.4,17.4
		c-0.8,0.7-1.1,1.5-1.1,2.5c-0.5,7.2-0.8,14.3-1.5,21.5c-1.4,10.3-0.9,22.4-8.5,30.5c-6.7,6.4-15.7,3.6-23.4,1
		c-5.8-1.9-11.5-3.9-17.2-5.9c-0.6-0.2-1.5-0.7-1.7-1.3C398.2,426.9,399.9,413.9,410.1,408.2z"/>
	<path class="st0" d="M319.7,709.4c3.5,0.3,8.2-0.8,10.8,0.9c14.8,8.3,33.4,11.9,48.7,2.8c2,2.1,3.3,4.9,5,7.1
		c1.1,1.5,1.8,3.1,2,4.9c2.1,13.8,3.9,27.6,2.9,41.6c0.1,3.1-4.9,4-7,5.7c-1.6,0.9-3.2,1.2-5.1,1.1c-5-0.4-10.1-0.5-15.1-0.9
		c-4.8-0.5-22.1-7.5-23.8-11.7c-5.1-12.6-12.8-24.3-15.7-37.7C321.8,718.7,320.6,714.2,319.7,709.4z M375.4,751.6
		c2.6-5.1,3.6-11.1,5.6-16.5c0.4-1.2-0.1-2.1-1-2.9c-4.6-4.1-8.4-8.8-13.3-12.5c-2.7,5.5-4.2,10.9-6.9,16.3
		C361.8,738.9,373.6,750.7,375.4,751.6z"/>
	<path class="st0" d="M199.1,546.2c7.7,0.9,15.2-1.8,21.1-6.8c1.3-1.2,2.4-1,3.7-0.4c7,3.1,3.1,11.9-1.9,14.6c-3.8,2.9-8.2,4-13,3.9
		c-1,0.1-2.2-0.3-2.9,0.3c6.1,3.2,18.2-2.3,22.2-8.8c7.8,5.5-3.1,15.6-10.1,13.5c-3.9-0.6-7.8-1.7-11.7-2.8
		c-4.1-1.2-8.1-2.7-12.2-3.9c-8.1-2.9-12.6-11.3-14.1-19.4c-1.1-6.1-0.6-12.1,0.4-18.1c0.8-4.4,3.4-6.4,7.8-6.8
		c2-0.2,3.4-0.7,4.7-2.2c2-2.5,8.2-5,9.2-0.5c1,4.7,0.6,8.1-3.2,11.4c-9.4,7.2-4.2,5.9,3.7,7.7c4.3,0.7,8.6,1.5,13,1.3
		c1-0.1,2.1,0.1,3,0.4c5.1,1.7,2.1,8.5-1.3,10.5c-4.7,3.2-9.9,4.9-15.6,5.2C201.1,545.3,200.1,545,199.1,546.2z"/>
	<path class="st0" d="M266.1,713.9c0.1,1.4,0.2,2.4,0.3,3.9c4.3-2.4,7.6-5,11.7-7.5c2.6-1.4,2.4-3.1,3.2-5.6
		c6.2,1.8,12.2,1.9,18-0.7c2.3-0.4,4.7-3.6,6.9-1.8c2.9,2.4,6.2,4.2,9.8,5.5c0.9,0.3,1.2,0.8,1.3,1.7c1.2,5.9,2.4,11.9,3.6,17.9
		c-4.1,1.4-7.8-2.2-11.7-3.4c-2.2,2.6-4.1,5.2-6,8c-0.8,1.2-1.8,1.8-3.3,2.1c-10.5,2.1-21.1,4.8-31.9,3.5c-4.2-0.7-11.3,0.5-9.2-6.3
		C261.4,725.5,262.7,719.2,266.1,713.9z"/>
	<path class="st0" d="M372.6,389.5c8.9-0.4,15.7,5.3,21.3,11.5c1.3,1.4,1.2,1.9,0,3.3c-1.8,2.1-2.9,4.6-3.8,7.2
		c-2.2,7.3-3.2,14.9-3.3,22.5c0.1,2.1-0.9,3.1-2.7,3.7c-6,1.9-17.6,3.7-20.8-3.3c-5.8-11.8-10.2-25.5-5.8-38.5
		C359.1,391,368,389.7,372.6,389.5z"/>
	<path class="st0" d="M361.6,282.6c-5,0.2-10.1-0.4-15.1-1.4c-11.2-5.3-16-20.2-13-31.9c8.5-34.3,59.4-26.7,56.9,9.6
		c-0.9,9.1-5.2,18.5-13.9,22.3C371.7,282.3,366.7,282.7,361.6,282.6z M363.6,277.3c36.5-2.6,20.3-59.1-11.9-39.6
		C335.2,248.8,343,277.4,363.6,277.3z"/>
	<path class="st0" d="M199.4,314.3c0.6,3.3,0.1,36.3-0.6,38.3c-5.7-2.7-6.9-3.4-11.9,1.3c-4.2-3.3-8.6-4.3-12.8,0.4
		c-2-1.7-4.2-2.4-6.7-2.3c-2.3-0.4-6.2-11.4-7.7-14c-2.1-4.7-4-9.4-5.9-14.2c-0.4-1-0.7-2.2-0.5-3.2c0.7-3.4,1.7-6.8,2.7-10.5
		c6.9,4.8,12.2,10.8,18.9,16c4.7-9.4,6.2-19.6,10.3-29.3c3.6,7.3,5.5,14.9,9.4,22C197,317.9,197.4,315.5,199.4,314.3z M189.7,350.5
		c2.8-5.2,4.3-11,6.5-16.5c0.2-0.6,0.1-1.4-0.2-1.9c-3.4-5.7-6.8-11.4-10.3-17.1c-0.2-0.4-0.8-0.5-1.2-0.9
		c-2.8,6.3-4.7,12.9-7.2,19.3c-0.5,1.2-0.3,2.2,0.6,3.3C182,341.2,185.2,346.5,189.7,350.5z"/>
	<path class="st0" d="M357.3,458.8c0.2,3.5,0.3,6.7,0.4,9.9c0,1-0.6,1.5-1.5,1.9c-24.1,10.9-52.8,11-77.1,0.6
		c2.6-3.7,5-7.1,7.4-10.6C309.7,466,335.6,470.9,357.3,458.8z"/>
	<path class="st0" d="M382.7,279.2c14.3-14.6,12.1-38.9-5.6-49.6c-31.2-18.5-62.2,24.1-36.6,49.4c-5.9-1.2-9.9-5.4-11.5-10.9
		c-8.5-24.6,13.6-52.6,39.7-46c18.7,3.7,31.6,19.4,33.2,38.1c0.6,10.6-9.7,16.5-18.6,19.2C383.2,279.5,383,279.4,382.7,279.2z"/>
	<path class="st0" d="M328.9,240.6c3.3-15.9,17.6-24.7,33-26.2c11.7-1.1,22.9,4.8,32,11.6c2,1.5,2.2,1.6,3.7-0.2
		c2.3-2.9,4-5.4,6.3-8.6c2.1,6.7-2.4,10.5-6,15.3c1.3,1.9,2.5,5.5,5.3,3.4c4-2.3,7.4-4.5,11.3-7.2c1.1,6.3-5,9.9-9.7,12.2
		c-1.6,0.3-2.8,1.8-2.2,3.4c0.4,1.2,1.2,1.7,2.6,1.3c3.1-1,5.8-2.2,9-3.3c0.2,3.7-4.1,5.8-7.1,6.5c-1.9,0.4-4.1,0.2-4.2,3.4
		c-1.4-1.3-1.6-2.6-2.1-3.7c-10.6-31.7-56.4-40.4-71.7-7.7C329.1,240.7,329,240.6,328.9,240.6z"/>
	<path class="st0" d="M251.1,505c-0.4-14.1-11.7-6.2-12.7-14.5c-1.8-8.8,4.1-21.4,14.4-21c5.1,0.1,3.6-0.3,7.8,2.3
		c10.5,4.2,11.6,19.2,5.5,27.6C263.3,503.5,256,507.8,251.1,505z M252.1,498.4c4.2-0.6,8-1.1,11.8-1.6c0.8-3.3-1.2-17.5-3-20.2
		c-0.9,1.6-1.7,3.1-2.5,4.7c-2.7-3-4.3-6.4-7.3-9.4c-0.9,4.1-0.2,7.7-0.9,11.7c-1.2-0.8-1.9-1.4-2.8-1.8c-0.9-0.4-1.6-1.7-3.3-1
		C246.7,486.6,249.5,492.3,252.1,498.4z"/>
	<path class="st0" d="M216.7,279.6c0.4-1.6,0.7-2.8,0.9-4c-0.2-3.4-8.9-4.1-10.3-12.4c3.1,2.1,5.4,4.5,8.9,6
		c1.9,0.9,2.2,0.8,3.2-1.1c6.7-13.6,21.6-24.1,37.1-20.3c4.6,1.3,9.9,2.1,13.2,6c-16.4-7.1-36.4-0.7-44.3,15.6
		c-3.6,7.3-3.8,15.6-4.2,23.5c-0.8-0.6-1.5-1.2-2.2-1.7c-6.4,1.9-8.1,1.7-11.1-1.3c2.4-1.4,10.5,0,10.2-3.7
		c-0.2-1.4-1.2-2.1-3.2-2.1c-4.9,0.1-10-1.7-11.7-7C208.1,277.5,211.9,278.6,216.7,279.6z"/>
	<path class="st0" d="M345.8,701.9c10.1,6.1,22.8,3,31-5.3c1,4.1,0.8,8,1.4,12.1c0.2,1.4-0.2,2.2-1.4,2.9
		c-13.5,7.9-30.5,4.7-43.6-2.7C337.4,706.7,341.4,704.4,345.8,701.9z"/>
	<path class="st0" d="M293.6,414.9c-1.1-11.6-4.6-22.5-10.9-32.4c7.9-3.9,17.6-2.5,24.4,3.1c1.5,1.5,1.6,1.9,0.4,3.7
		c-5.2,8.1-9.9,16.7-13.3,25.7C294,415,293.8,415,293.6,414.9z"/>
	<path class="st0" d="M175.4,488c0.3-5.1-0.7-2.3-3.9-3c1.5-1.6,3-3.1,4.4-4.6c0.8-0.9,1.7-0.5,2.6-0.1c9.4,3.5,19.8,0.5,27.3-5.6
		c1.7-1.3,3.3-2.7,4.8-4.2c1-1,1.9-1.4,3.4-0.9c8,2.7,16.9,0.8,23.5-4.4c2.9,1.4,5.7,2.7,8.7,4.2c-1.9,1.4-3.5,3.1-6.1,3.6
		c-5.3,1-10.5,2.4-15.7,3.7C208,479.9,191.9,485,175.4,488z"/>
	<path class="st0" d="M345.3,374.8c-0.6,4.1-1,7.6-1.5,11.2c0.1,3.4-1.5,5.6-4.4,7.1c-6.3,4.4-15.6,5.9-19.7-2.2
		c-0.7-2.8,0.4-6,0.6-8.8c0.3-2.2,0.5-2.4,2.6-2.8C330.6,377.9,337.7,376.4,345.3,374.8z"/>
	<path class="st0" d="M238.1,291.3c-4.4,2.6-8.5,5.1-12.9,7.7c-2.9-5.4-2.7-11.8-1.7-17.7c1.3-11.3,8.5-23.2,19.8-26.2
		C234.6,265.2,232.4,279.2,238.1,291.3z"/>
	<path class="st0" d="M400.4,438.1c-4.1-0.9-7.6-1.6-11.2-2.4c-0.1-9.6,0.9-19.8,5.4-28.5c1.6-2.9,3.7-3.5,6.4-2.3
		c2.4,1,4.5,1.3,6.9,2.6C397.7,415.8,397.1,426.3,400.4,438.1z"/>
	<path class="st0" d="M470.1,353.6c-5.1-1.7-9.5-2.8-14.5-0.3c-6.3,2.6-13.9-5.3-10.8-11.5c0.9-2.3,3.4-3.1,5.5-1.9
		c2.3,1.7,4.3,3.6,7.4,1.7c2.1-1.2,4.2-0.8,6.2,1.2C467.1,346,469.4,348.9,470.1,353.6z"/>
	<path class="st0" d="M278,502.9c-1-4.9,4.1-8.4,3.1-14.7c-0.3-4.8-5.3-6.8-9.7-7.5c-2.2-1-2.3-3.5-3.6-5.7c3.2,0.4,5.8-0.6,8.4-1.8
		c0.3-0.2,0.8-0.1,1.2,0c4.5,1.5,9,3.1,13.7,4.7c-3.7,6.1-7,12.3-7.9,19.5C283.1,501.1,281,501.6,278,502.9z"/>
	<path class="st0" d="M244.9,288.5c-1.8,0.8-3.4,1.5-5.1,2.2c-6.8-11.8-3.1-27.6,6.8-36.5c4-2.5,9.3-2.4,13.9-1.1
		C244.8,255.6,236,275.2,244.9,288.5z"/>
	<path class="st0" d="M463.2,339.7c-2.7-0.1-5.3-0.3-7.6,1.2c-1.1,0.4-5.2-2-4.2-3.5c1.3-3.6,2.5-7.2,3.7-10.8
		c2.2-5.9,10.1-4.1,10.4,1.4C465.3,331.8,464,335.5,463.2,339.7z"/>
	<path class="st0" d="M268.5,270.5c-9,0.1-8.7-13.3,0-13.3C277,257.2,277.4,270.5,268.5,270.5z"/>
	<path class="st0" d="M273,700c2.2,1.3,4.3,2.7,6.5,4c0.3,2.4-0.5,4-2.5,5.2c-3.1,1.9-5.5,4-8.9,5.6
		C267.9,709.1,267.7,703.7,273,700z"/>
	<path class="st0" d="M303.4,381c5.2-0.4,9.8-0.7,14.7-1c0.3,3-0.5,5.8-1.2,8.8c-3.2-1.4-6.8-1.6-9.1-4.5
		C306.3,382.8,305.1,382.5,303.4,381z"/>
	<path class="st0" d="M207.2,351.8c-1.8-0.5-3.5-1-5.3-1.5c0-3.4,0-7,0-11.1C209.4,344.8,206.7,342,207.2,351.8z"/>
	<path class="st0" d="M281.1,267.3c2.1,3.4,2.9,7.3,3.5,11.2c0.5,3.7-0.5,4.5-4.7,3.4c0.7-4.8,1.8-9.6,0.2-14.5
		C280.4,267.5,280.7,267.4,281.1,267.3z"/>
	<path class="st0" d="M216.4,286.3c-2.2,1.5-5.1,1.1-7.7,1.6c-2.8,0.6-2.3-1.9-2.8-4.1c3.6,1.3,6.6,1.9,10.3,2
		C216.3,286,216.3,286.2,216.4,286.3z"/>
	<path class="st0" d="M284.4,379.5c-2.5,1.6-2.5,1.6-4.1-0.8C281.8,379,282.9,379.2,284.4,379.5z"/>
	<path class="st0" d="M557.8,521.2c6.1,5.5,11.4,11.7,17.3,17.5c1,1,1.4,2,1.4,3.4c-0.1,8.8,0,17.6,0,26.4c0,1,0,1.9-0.8,2.8
		c-5.9,6.3-11.1,13.2-17.3,19.2c-5.5-6.2-10.8-12.7-16.3-18.9c-1.1-1.2-1.6-2.5-1.6-4.1c0.1-8.4,0-16.8,0-25.1
		c0-1.3,0.2-2.5,1.1-3.5C547.1,533,552,526.6,557.8,521.2z"/>
	<path class="st0" d="M525.1,577.5c3.8-1.9,7.7-3.5,11.6-5.1c2.2-0.9,2.3-0.8,3.9,1c5.1,6,10.2,11.9,15.3,17.9
		c0.7,0.8,1.2,1.9,1.3,2.9c0.1,5.9,0.8,12,0.4,17.9C556,611.2,526.7,580,525.1,577.5z"/>
	<path class="st0" d="M560.3,612.4c-0.8-5.9-0.4-11.9-0.8-17.9c0-1.1,0.3-1.9,1.1-2.8c5.4-6.1,10.8-12.1,16.1-18.2
		c0.7-0.8,1.4-1.4,2.6-0.9c4.1,1.5,8.2,2.9,12.3,4.4C590.8,578.7,563.2,610,560.3,612.4z"/>
	<path class="st0" d="M591.7,534c-3.2,1-6,1.9-8.9,2.8c-2.2,0.3-4.5,2.5-6.3,0.2c-5.4-5.7-10.9-11.3-16.4-17
		c-0.6-0.7-1.2-1.8-1.3-2.7c0.1-6-0.5-12,0.3-17.9C570.7,510.2,581.2,522.2,591.7,534z"/>
	<path class="st0" d="M556.6,499.4c0,6.2,0.1,11.7,0,17.8c0,0.9-0.3,1.9-0.8,2.6c-5.6,6.2-11,12.5-16.8,18.5
		c-4.5-1.8-9.1-3.5-13.7-5.3C526.6,530.4,554.6,500.5,556.6,499.4z"/>
	<path class="st0" d="M592.5,536.2c0.7,2.4,0.7,35.8,0.1,38.3c-4.2-0.9-8.2-2.7-12.3-3.9c-1.1-0.4-1.7-1-1.7-2.2
		c0-8.8,0-17.6,0-26.4c0-0.9,0.2-1.7,1.2-2C584,538.8,588.1,537.5,592.5,536.2z"/>
	<path class="st0" d="M524.3,535.1c4.1,1.3,7.9,3.1,11.9,4.5c3.1,0.9,1.5,4.6,1.9,6.9c-1.1,27.7,5.3,20.3-13.4,28.6
		c-0.9-0.2-0.6-1.4-0.7-2.1C524.3,560.4,523.3,547.6,524.3,535.1z"/>
	<path class="st0" d="M36.1,187.5c6.1,5.5,11.4,11.7,17.2,17.5c1.1,1.1,1.5,2.2,1.4,3.6c0,8.7,0,17.4,0,26.2c0,1.1-0.1,2.2-1,3.1
		c-5.9,6.2-11,13.2-17.2,18.9c-5.7-6.1-10.9-12.7-16.5-19c-1-1.1-1.4-2.2-1.3-3.7c0-8.5,0-17.1,0-25.6c0-1.5,0.4-2.6,1.4-3.6
		C25.6,199.1,30.5,193.1,36.1,187.5z"/>
	<path class="st0" d="M35.4,278.7c-10.7-11.4-21.3-22.9-32.3-34.6c4.9-2.1,9.4-4,14.1-6.1c5.9,6.3,11.2,13,16.9,19.5
		c1.1,1.3,1.7,2.6,1.7,4.4c0,5.5,0.4,11,0.3,16.6C35.9,278.5,35.7,278.6,35.4,278.7z"/>
	<path class="st0" d="M70.2,243.8C59.8,255.5,49.5,267.1,39,279c-1.5-5.9-0.6-12.2-1-18.3c0-0.8,0.4-1.9,1-2.5
		c5.3-6.1,10.7-12.2,16.1-18.3c0.8-0.9,1.6-1.3,2.9-0.8C61.9,240.9,66.4,241.4,70.2,243.8z"/>
	<path class="st0" d="M69.9,200.1c-3.2,2-7.1,2.3-10.6,3.7c-2,0.7-3.5,0.5-5.2-1.3c-4.9-5.3-10-10.5-15.1-15.6
		c-1.1-1.2-1.7-2.3-1.7-4c0.1-5.6,0-11.3,0-17.2C48.9,176.2,59.1,188.7,69.9,200.1z"/>
	<path class="st0" d="M3.1,199.1c10.5-11.3,20.8-22.4,31.5-33.8c0.8,6.1,0.1,11.9,0.3,18.1c0,1.3-0.3,2.3-1.2,3.2
		c-5,5.5-10,11-15,16.5c-0.9,1-1.8,1.5-3.1,1C11.6,202.5,7.6,200.9,3.1,199.1z"/>
	<path class="st0" d="M2.1,241.7c0-13.6,0-26.7,0-40c4.4,0.7,8.1,2.9,12.4,4.2c1.4,0.5,2,1.2,2,2.8c-0.1,8.4-0.1,16.7,0,25.1
		c0,1.5-0.5,2.3-1.9,2.8C10.1,238.3,6.8,240.3,2.1,241.7z"/>
	<path class="st0" d="M71.1,202.7c0,12.8,0,25.5,0,38.6c-4.8-1.7-9.2-3.2-13.9-4.8c-0.5-9-0.1-18-0.2-27c0-2.7,0-2.7,2.6-3.6
		C63.5,204.9,67.1,203.3,71.1,202.7z"/>
	<path class="st0" d="M67.8,556.4c5.9,5.2,10.9,11.3,16.6,16.7c1,1,1.4,2,1.4,3.4c0,8.5,0,16.9,0,25.4c0,1.1-0.1,2.1-0.9,3.1
		c-5.5,6-10.6,12.4-16.3,18.1c-5.9-5.7-10.7-12.5-16.3-18.6c-0.8-0.9-1.1-1.9-1.1-3c0-8.5,0-16.9,0.1-25.4c0-0.9,0.3-1.9,0.9-2.5
		C57.3,568,62.1,561.8,67.8,556.4z"/>
	<path class="st0" d="M49.6,605.1c5.6,6.6,11,12.8,16.5,19.4c0.5,0.6,1,1.5,1,2.2c0.1,5.6,0.7,11.4,0.3,17c-0.6,0.5-1-0.1-1.4-0.5
		c-9.9-10.6-19.8-21.2-29.9-32c1.9-1.9,4.4-2.2,6.5-3.3C44.8,606.9,47.1,606.1,49.6,605.1z"/>
	<path class="st0" d="M100.6,610.7c-10,11.3-20,22.5-30.2,34c-1.2-5.8-0.5-11.5-0.9-17.4c0-1.2,0.4-2.1,1.2-3
		c5-5.6,10-11.2,14.9-16.9c0.9-1.1,1.8-1.7,3.3-1.2C92.8,607.8,97,608.5,100.6,610.7z"/>
	<path class="st0" d="M69.1,534.8c10.7,11.4,21,22.4,31.6,33.8c-4.3,1.4-7.9,2.4-12,3.7c-1.1,0.4-1.9,0.2-2.7-0.6
		c-5.3-5.5-10.7-11-16-16.6c-0.7-0.7-1.2-1.5-1.2-2.7C69.1,546.5,68.3,540.8,69.1,534.8z"/>
	<path class="st0" d="M36.2,567.2c10-10.7,19.9-21.3,30-32.3c0.9,5.8,0.1,11.4,0.4,17.2c0,1.3-0.4,2.3-1.3,3.2
		c-4.8,5.2-9.5,10.5-14.2,15.8c-1,1.1-1.8,1.6-3.3,1C44,570.3,39.7,569.6,36.2,567.2z"/>
	<path class="st0" d="M35.4,569.8c4,1.5,7.8,3,11.6,4.4c1.4,0.5,1.7,1.4,1.7,2.7c-0.1,8.7,0,17.3,0,26c-4.5,1.9-8.8,4-13.3,5.5
		C34.8,606.1,34.8,572.3,35.4,569.8z"/>
	<path class="st0" d="M101.4,608.1c-4.5-1.5-8.8-3-13.2-4.5c-0.4-8.8-0.1-17.5-0.2-26.3c0-2.3,0-2.4,2.2-3c3.6-1.1,7.3-2.2,10.8-3.3
		c0.7,0.4,0.6,1.1,0.7,1.8C101.5,584.5,102.4,596.4,101.4,608.1z"/>
	<path class="st0" d="M496.8,233.9c-3-3.3-5.3-6.1-8.1-9.4c-0.9-1-1.4-2.1-1.3-3.5c0.2-15.9-2-11.5,8.8-23.5
		c3.4,2.2,5.6,5.6,8.5,8.3c0.8,0.8,1.3,1.8,1.3,3c0,4.4,0,8.7,0,13.1C505.9,225.1,499.3,230.6,496.8,233.9z"/>
	<path class="st0" d="M479.2,227.7c2.4-0.6,6.4-3.7,7.7-1.8c2.8,3.6,6.4,6.8,8.7,10.6c0,2.6,0,5.2,0,8.4
		C489.4,239.2,485.1,233.9,479.2,227.7z"/>
	<path class="st0" d="M514.1,227.6c-5.1,6-10.2,11.6-15.6,17.2c-0.5-2.9-0.6-5.7-0.4-8.4c2.2-3.4,5.5-6.3,8-9.6
		C508.4,224,511.1,226.8,514.1,227.6z"/>
	<path class="st0" d="M498,186.6c5.6,5.3,10.6,10.9,16.1,16.8c-2.3,0.5-6,2.8-7.3,1.3c-2.9-2.9-5.7-5.8-8.5-8.8
		C496.9,193.7,497.7,189.4,498,186.6z"/>
	<path class="st0" d="M494.8,186.7c0.5,2.8,0.5,5.5,0.3,8.2c-1.9,3.5-5.5,6.1-7.9,9.3c-1.9,2.3-5.2-0.7-7.8-1.3
		C484.5,197.2,489.5,191.9,494.8,186.7z"/>
	<path class="st0" d="M478.4,225.6c-0.1-7-0.1-13.4,0-20c2.5-0.2,4.3,1.2,6.2,1.9c0.3,0.1,0.5,1,0.6,1.6c0,4,0,8,0,12.1
		C485.3,223.9,480.9,224.2,478.4,225.6z"/>
	<path class="st0" d="M515,205.6c0,6.7,0,13,0,19.6c-2.3-1.1-6.4-1.1-6.6-3.6c-0.1-4.3-0.1-8.5,0-12.8
		C508.8,206.5,512.7,206.6,515,205.6z"/>
	<path class="st0" d="M373,205.9c-10.6-1.9-19.1-1.8-29.5,1.1c-2.5,0.5-4.4-0.3-4.9-2.4c-0.5-2-0.1-3,1.9-3.8
		C351,196.4,365.4,196.4,373,205.9z"/>
	<path class="st0" d="M245.6,236.4c4.5-4.8,11.7-6.3,18.1-5.7c3.9,0.5,7.6,1.7,11.4,2.8c2,0.6,3.1,2,2.9,3.4
		c-0.8,4.1-5.5,3.6-8.4,2.1c-8-3.6-15.2-5.1-23.6-2.1C245.8,236.7,245.7,236.5,245.6,236.4z"/>
	<path class="st0" d="M190.2,402.3c5.7-0.6,11.1-1.1,15.9-4.1c4.4,14.8,0.6,34-14.2,41.5c-9.8,5-21.5,7-32.1,3.3
		C184.6,439.1,194.1,427.4,190.2,402.3z"/>
	<path class="st0" d="M180.7,402.3c2.4,0.3,6.8-1,7.9,1.4c1.8,8.1,1.7,16-2.4,23.4c-5.5,9.9-17.2,13.2-27.8,14.3
		c-12.3,0.2-21.7-17-24-27.6c0.9-0.1,1.7-0.1,2.2-0.2c3.2,7.2,5.8,15.1,13.8,17.8c8.6,3,18,0.3,25.2-4.8
		C184,420.8,183.7,411.1,180.7,402.3z"/>
	<path class="st0" d="M167.2,411.9c2.9-2,5.5-3.9,8.1-5.8c0.7-0.5,1.3-0.6,2,0.1C183.2,413.9,169.9,421.6,167.2,411.9z"/>
	<path class="st0" d="M240.2,392.7c2.7,0,4.9,0,7.4,0c2.7,14.2,10,31.3,26.4,32.5c4.6,0.6,6.5-1.9,9.1-5.4
		c0.9,12.1-7.2,27-21.9,19.4C245.3,429.9,241.6,409.7,240.2,392.7z"/>
	<path class="st0" d="M254.4,389.1c1.4,6.9,3.1,13.4,7.2,19.3c3.8,6.2,14.6,12.3,18,2.6c0.7-1.9,0.5-4,1.5-5.8
		c1.5,5.1,1.9,10.8-0.7,15.5c-5.7,7.9-19.8-1.3-23.4-7.6c-3.2-4.7-5.3-9.9-6.6-15.4C248.8,391.5,248.5,392.4,254.4,389.1z"/>
	<path class="st0" d="M273.5,391.4c2.9-1.2,4.1,3.6,5.8,5.3c2.1,4.6-5.4,7.8-8.7,4.9C266,398.8,267.7,390.4,273.5,391.4z"/>
	<path class="st0" d="M227.3,410.9c1,1.6,2.7,2.2,4.5,3.1c0.4,6.9-0.3,13.9-2.1,20.6c-0.5,2.1-1.4,2.4-3.4,1.8
		c-4.3-1.4-7.3-4-8.4-8.7c-1.5-6.5-1.7-15.5,5.1-19c4.8-2.7,13.5-3.2,15.3,3.2c2.1,6.4-0.2,12.8-1.5,19.1c-0.6,2.8-2.4,4.6-5.4,5.4
		c-0.1-0.4-0.3-0.7-0.2-1c1.9-6.3,2.4-12.7,2.2-19.3c0-1.5-0.1-3,0.8-4.4C235.9,408.3,229.1,407.6,227.3,410.9z"/>
	<path class="st0" d="M234.8,436.4c1.4,2.6,8.5,9.9,3.4,11.1c-6.3,1-10-4.9-13.6-9.7C228.3,438.3,231.6,438.7,234.8,436.4z"/>
	<path class="st0" d="M282.3,99.7c-2.9-5.5-6.1-10.8-9.1-16.2c-0.4-0.7-0.5-1.7-0.3-2.3c2.3-6.2,3.6-12.9,6.5-18.7
		c3.7,5.3,6.6,11,10.1,16.5c0.6,1,0.9,1.9,0.4,3.1c-2.4,5.7-4.6,11.5-6.9,17.3C282.8,99.4,282.6,99.6,282.3,99.7z"/>
	<path class="st0" d="M367.3,722.1c15.2,15.7,13.5,6.6,7.5,27.5c-4.4-4.3-7.8-8.1-12.1-12.3c-1-1-1.2-1.8-0.7-3.2
		C364.1,730.1,365.1,725.9,367.3,722.1z"/>
	<path class="st0" d="M379.4,247.7c-0.2,10.6-16.1,10.6-16.3-0.1C363.3,236.6,379.3,237.1,379.4,247.7z"/>
	<path class="st0" d="M185.3,317.2c2.3,3.9,4.4,7.4,6.5,10.9c2.3,3,3.4,5.6,1.5,9.2c-1.7,3.4-2.3,7-4.1,10.4
		c-3.7-3.3-6.3-7.6-9.6-11.2c-0.8-1-1.1-1.9-0.6-3.3C181.3,328,182.3,322.2,185.3,317.2z"/>
	<path class="st0" d="M247.9,484.2c1.1,0.6,2.3,1.2,3.8,2c0.6-3.4,0.2-6.4,0.5-9.8c3,2.1,3.8,5.3,6.5,7.8c0.8-1.1,1.3-1.9,2.3-3.3
		c0.7,5.1,1.3,9.6,2,14.2c-2.7,1.1-5.2,1-8,1.5c-0.9,0.1-1.9,0.3-2.4-0.8c-1.7-3.7-3.4-7.4-5-11.1
		C247.6,484.4,247.8,484.3,247.9,484.2z"/>
</g>
</svg>
