<?xml version="1.0" encoding="utf-8"?>
<!-- Generator: Adobe Illustrator 26.0.0, SVG Export Plug-In . SVG Version: 6.00 Build 0)  -->
<svg version="1.1" id="Capa_1" xmlns="http://www.w3.org/2000/svg" xmlns:xlink="http://www.w3.org/1999/xlink" x="0px" y="0px"
	 viewBox="0 0 595.3 815.8" style="enable-background:new 0 0 595.3 815.8;" xml:space="preserve">
<style type="text/css">
	.st0{fill:#FFFFFF;}
</style>
<g>
	<path d="M342.5,413.8c13.6,17.7,32.4,32,54.4,37.2c26.8,8.1,57.8,22.6,66.9,51.3c0.6,2.1,0.1,2.7-2.1,2.7
		c-5.1,0.1-10.2-0.1-15.3,0.3c-39.5,3.2-83.9,9.9-111.4,41.3c4.3,8.2-0.8,17.4-9.4,19.7c4.9,8,4,18.3-6.8,21
		c-19.1,5.3-47.3-37.6-59.2-50.9c-19-26.2-30.9-57.3-39.5-88.3c-2.9-12.9-26.6-35.3-38.1-42.1c-6.7-4.5-13.5-8.8-20.1-13.4
		c-1.6-1.1-3.3-1.4-5.1-1.7c-5.2-0.8-10-2.6-14.1-6c-3.4-2.9-6-6.6-8.7-10.1c-3.2-3.9-5.8-7.9-2.4-13.2
		c-28.6-15.4-57.4-30.2-86-45.4c-3.8-2.8-4.5,3.9-14.5,5.1c-0.5,0.1-0.9,0.1-1.4,0.5c-2.5,17.4-26.9,7.3-16-6.8
		c-3-4.1-5.3-8.6-4.9-14.1c-17.3-3.7-6.3-27.8,7.8-15.6c3-1.3,5.8-3.1,9.2-3.4c3.6-0.6,0.7-7.3,9.4-9c8.7-1.8,14.2,9,8.5,15.5
		c4.1,5.4,5.8,11.5,4,18.6c32,17.4,64.2,34.3,96.3,51.5c1.1,0.6,1.7,0.6,2.7-0.2c4.8-4,7.9-4.3,13-0.7c3,2.1,5.9,3.6,9.5,4.2
		c7.1,1.1,13,5.5,19.7,7.8c-22.8-21.8-39.7-49.4-44.5-81c-33.4,15.4-75.3-2.3-86.3-37.5c-22.5-69.6,71.7-115.6,112.8-54.3
		c28.9-33.7,72.7-50.4,116.4-51.8c-16.5-31.7-2-73.2,31.1-86.8c69.7-29.2,121.8,65.6,61.9,109.2C420,189,452,226.2,459.4,271.3
		c31.6-10.8,68,6.3,79.1,37.7c25.1,67.8-65.9,117.3-109.7,60C405.2,393.8,376.1,407.7,342.5,413.8z"/>
	<path d="M464.8,582.3c10.5-38.5,63.3-38.4,73.6,0c45.4-18.3,79.1,41.6,39.2,70.1c-11.1,7.9-24.9,8.8-37.6,4c-1.2-0.4-2-0.2-2.8,0.7
		c-17.6,20.2-52.2,21-70.2,1c-1.7-1.8-3.1-2.1-5.2-1.2c-32.9,13.1-66.3-24.5-49.5-55.7C421.2,581.8,445.5,574,464.8,582.3z"/>
	<path d="M193.7,588.3c39.9-16,68,39,31.8,61.5c-9,5.5-20.2,6.6-30,2.6c-1.4-0.5-2.2-0.3-3.2,0.8c-15.5,17.3-44.9,17.4-60.4,0.1
		c-1-1.1-1.9-1.3-3.4-0.8c-17.4,6.6-36.4-2-43.7-18.3c-13.3-27.7,17.6-58.7,45.5-45.9C138.7,555.7,185.2,555.7,193.7,588.3z"/>
	<path d="M272.3,737.8c8.6-31.1,51.7-33.4,62.4-2.6c0.9,2.6,0.9,2.7,3.4,1.8c46.4-14.6,66.1,54.4,18.9,66.4
		c-6.4,1.6-12.7,0.9-18.9-1.2c-3.1-1.1-2.3-1.1-4.5,1.1c-15.9,16.5-43.4,16.7-59.3,0c-1.6-1.6-2.8-1.8-4.8-1
		c-24.8,9.6-51.6-14.9-45.1-40.1C228.7,741,252.8,729.4,272.3,737.8z"/>
	<path d="M95.3,19.2c7.3-25.6,43.7-25.7,50.8-0.1c50-14.9,52.3,65.9-0.1,51.4c-12.5,13.9-35.4,15.4-48.7,1.7c-1.2-1.2-2.3-1.7-4.1-1
		C43.3,82.7,46.4,4.5,95.3,19.2z"/>
	<path d="M67.2,445.3c5.6-17.2,29.6-17.2,35.3-0.1c35.5-8.9,34.5,46.4-0.1,36.3c-9.1,10.1-25.8,10.3-34.9,0
		C32.4,491.6,31.5,436.3,67.2,445.3z"/>
	<path d="M61.2,754c4.9-17.5,30.3-17.5,35.2,0c24.9-8.6,38.2,28,13,36.7c-3.7,1.1-7.4,1.2-11.1,0c-1.6-0.5-2.6-0.2-3.7,0.9
		c-9,8.4-22.8,8.2-31.7-0.1c-1.1-1.1-2-1.3-3.5-0.8C25.6,797.9,26.9,744.6,61.2,754z"/>
	<path class="st0" d="M291.6,147.6c93.2-2.9,196,84,159,182.3c-31.9,80.6-137.4,101.9-211.2,69.1C90.5,333,129.2,149.3,291.6,147.6z
		 M246.9,259.5c-0.5-3.3-0.9-6.6-1.5-9.8c-3-9.9-13.8-17.5-24.2-15.4c-18.6,3.7-24,28.8-12.6,42.5
		C222.6,295.4,247.8,279.9,246.9,259.5z M352.1,295.3c2.3,38.6,48,31.6,44.2-6c-0.4-6.7-5.4-12.1-10.7-15.6
		C370.4,262.2,351,278.4,352.1,295.3z M295.6,331.6c13.7,1.9,38.9-22.7,20.8-24.8c-10.2-0.8-20.7,0.8-30.6-1.9
		c-4.7-1.6-9.5-3.1-14.2-4.7c-13.9-2.3-6.8,16.8-0.7,21.7C277.8,328.5,286.4,330.9,295.6,331.6z M381.2,233.5
		c-1.4,0.4-2.5,0.6-3.6,1c-2.9,0.9-3.3,5.5-0.5,6.9c8.1,3.8,14.9,9.4,20.3,16.5c1.5,1.8,4,4.4,6.2,2.2c0.9-0.7,1.2-1.6,0.9-2.8
		C402.6,245.2,392.9,236.2,381.2,233.5z M236.2,205c2.1,0,4.2,0.1,6.3,0c5.1-0.4,4.4-6.4,0.3-8c-11-4.3-24.4-0.7-30.8,9.5
		c-1.1,2.2,2.1,5.3,4.2,3.5C222.3,205.8,229.1,204.7,236.2,205z"/>
	<path class="st0" d="M147.2,385.1c15-6.2,1.7-12.4,10.4-16.7c0.8-0.3,1.6-1,1.4-1.8c-1.8-2.2-6.4,3.2-11.6-3.8
		c1.3-4.4,5.5-6.3,9.4-4.1c2.8,1.4,5,4.5,8.1,5c12.1,1.2,22.4,8.8,33.1,14.1c11,7.3,22,14.4,33.8,20.4c-1.6,2.6-3.4,4.8-5.3,7.1
		c-0.9,1.1-0.7,1.8,0.2,2.7c6.2,5.2,14.9,4.7,22.6,4.1c-5.9,6.9-8.1,11.7-6.3,20.8c1.4,7.9,6.6,13.3,12.8,17.8
		c1.7,1,5.9,2.7,5.7-0.7c0-3.5,0.1-7-0.3-10.5c-0.6-6.2-3.6-12.7-1-18.7c2.5,0.4,4.9,0.7,7.5,1.1c-0.2,17,18.8,21.1,32.5,19.8
		c0.6,0,1.4-0.5,1.6-0.9c0.4-1-0.4-1.5-1.2-2.1c-5.8-4.8-13.5-9.5-15.8-17c1.1-0.6,2.1,0,3,0.3c10.9,3.3,22.7,2.1,32.2-4.5
		c3.2-2.2,4.5-2.2,7.3,0.5c13.9,11.9,23.8,27.3,35.8,40.8c1.3,1.5,2.8,2.5,4.7,3.1c7.6,2.6,15,6,21.1,11.5c1.6,1.3,2.3,3.1,2.7,5
		c1.5,6.5-6.7,7-11.5,7c0.2-1.6-0.6-9.7-3.1-8.4c-2,1,1.7,2.9,0.5,7.9c-0.4,3.8-4.7,4.6-7.5,2.6c-2.9-2.9-6.9-3.2-10.5-4.3
		c-13.6-4.2-25.9-11.6-34.5-23.2c-0.4-0.4-1.1-0.5-1.7-0.8c-2.6,14.5,17.2,32.8,7.7,57.4c-3.2,9.2-13.2,9.3-10.3,12.7
		c4,6.2,8,12.3,12,18.5c2.8,4.3,1.6,10.7-2.7,13.9c-12.6,9.2-25.7-9.4-33.9-17.6c-9.3-11.6-5.7-28.8,3.4-39.4
		c0.8-1.3,5.6-6.2,3.5-7.1c-0.4-0.1-1.2,0.2-1.5,0.6c-5,6.4-10.3,12.7-12.1,20.9c-2.2,9.8-1.1,21.2,6.5,28.5
		c6.7,5.8,16.5,18.6,25.3,19.1c1.2,0.1,2,0.6,2.5,1.7c3.2,5.7,4.2,12.7-2.7,16c-14.6,7.2-30.9-16.1-40.2-25.3
		c-28.7-30.5-46.8-68.8-57.8-108.9c-1-6.7-4.6-12.4-9-17.4c-6.2-7.6-13.1-14.6-20.4-21.1c-9.9-7.6-20.8-14-31.1-21.1
		C157.7,387.6,151.9,388.2,147.2,385.1z"/>
	<path class="st0" d="M404.4,119.5c-0.4,16.8-8.5,33-24.3,45.3c-1.4,1.1-2.7,1.2-4.3,0.4c-11.3-5.8-23-10.2-35.3-13.4
		c-15.8-3.9-32-6.6-48.3-6.5c-4.4,0.4-7.6-15.2-8.5-18.9c-5.5-28.7,13-59,40.7-67.8C364.2,45,407,76.5,404.4,119.5z"/>
	<path class="st0" d="M57.4,230.1c-0.4-56.9,77.5-82.3,110.7-33.4c1.6,2.1,1.5,2.2-0.1,4.3c-10.6,13.6-18.1,29.4-21.8,46.2
		c-2.7,12.2-3.5,24.7-2.1,37.1c0.1,1.4-0.3,2.1-1.6,2.6C103,304.1,56.9,275.5,57.4,230.1z"/>
	<path class="st0" d="M459.8,273.7c42.1-14.9,87.3,22.4,79.7,66.6c-7.3,51.9-75.6,70.1-107.7,28.6c-1.3-1.6-1.2-1.7,0.1-3.3
		C453.9,340.6,463.9,306.6,459.8,273.7z"/>
	<path class="st0" d="M329.5,415.5c3-0.4,6-0.7,9.1-1.1c1.3-0.2,1.8,0.8,2.5,1.6c12.2,15,27.7,28,46,34.6
		c27.6,7.3,65.1,21.8,74.1,51.7c-44.8,2-95.3,7.2-127.6,42c-3.9-5.1-7-10.6-10.8-16.2c22.9-13.3,10.1-43.7,2.6-62.6
		c0.2-0.1,0.3-0.2,0.5-0.3c10.4,10.5,22.9,17.7,37.3,21.2c2.4,0.8,4.5,2.2,6.7,3.5c6.3,2.9,6.5-1.6,11-2.3c2.7-0.3,5.4-0.7,8-1.3
		c4.1-1,6.3-5.1,4.9-9.2c-3.3-9.1-13.4-12.6-21.6-16.2c-2.4-1-5.2-1.4-6.9-3.4c-3.1-3.4-6.3-6.8-9.2-10.4
		c-7.7-11.4-17.1-21.3-26.9-31C329.3,415.9,329.4,415.7,329.5,415.5z"/>
	<path class="st0" d="M28.8,319c-22.9,0.4-23.2-34.6-0.4-34.9C51.2,283.9,51.8,318.8,28.8,319z"/>
	<path class="st0" d="M146.6,366.7C112.8,348.9,79,331.1,45,313.2c0.7-1.3,1.3-2.3,2.1-3.6c31.7,16.5,62.9,33.6,94.4,50.3
		c4.9,2.2,2.4,3.1,5.4,6.3C146.8,366.3,146.7,366.5,146.6,366.7z"/>
	<path class="st0" d="M259.1,449.2c-4.7-0.6-10.2-7.7-12.1-11.6c-5.2-8.8-1.4-24.1,10.4-26c0.2,2.5,1.2,5,1,7.4
		C254.5,429,260.7,438.7,259.1,449.2z"/>
	<path class="st0" d="M271.8,413.8c3.7,2.2,7,4.2,10.4,6.2c0.5,8.8,9.1,13.3,14.7,19C280.4,440.9,265,431.9,271.8,413.8z"/>
	<path class="st0" d="M134.4,362.9c4.7,2.5,9.1,5.1,13.8,7.2c2.4,1.1,3.4,2.9,4.2,5c1.9,4.6-5.2,8.7-9,7.2c-3.7-4-6.9-8.6-10.2-12.9
		C131.5,366.9,132,365.2,134.4,362.9z"/>
	<path class="st0" d="M275.8,412.9c13.5,2.2,27,3.7,40.8,3.7C305.2,425,285.4,421.4,275.8,412.9z"/>
	<path class="st0" d="M228.7,406.3c1.8-2.3,3.6-4.6,5.4-6.8c7.7,2.9,15.3,5.8,23.1,8.8C250.8,410.7,233.3,411.4,228.7,406.3z"/>
	<path class="st0" d="M8.4,298c-7.1-0.5-8.2-10.9-1.7-13.1c3.2-1.2,5.8-0.4,7.7,2.1C12.4,290.6,10.4,294.2,8.4,298z"/>
	<path class="st0" d="M15.6,317.1c3.4,2.2,7.2,3.8,11.2,4.6c0.9,7.3-9.6,9.6-12.7,3.5C12.7,322.4,13.2,319.1,15.6,317.1z"/>
	<path class="st0" d="M41.7,286.6c-3.4-2.9-7.3-4.3-11.4-4.9c-0.4-6.7,9.1-8.6,12.3-3.3C44,280.5,44.5,284.4,41.7,286.6z"/>
	<path class="st0" d="M269.8,411.7c-0.7,2.6-1.3,4.9-2,7.5c-4.5,0.6-8.5-1-7.6-6.2c0.5-3.5,1.1-3.9,4.4-3
		C266.5,410.5,267.9,410.7,269.8,411.7z"/>
	<path class="st0" d="M555.1,656.9c-5.5,0.2-10.5-0.9-15.4-3.2c-1.3-0.6-2.1-0.5-3.2,0.7c-4.5,5.2-9.9,9.3-16.3,12.1
		c-17.9,8.2-40.5,3.1-53.4-11.8c-1.6-1.7-1.7-1.8-3.5-0.9c-28.9,13.8-62.1-16.6-51-46.6c6.3-20.9,31.7-31.9,51.4-22.6
		c1.3,0.8,2.8,1.3,3.3-0.7c7.5-36.9,60.6-37.5,69-0.9c0.6,2.4,1.1,2.6,3.2,1.7c20.4-9.9,46.5,1.9,52.1,23.9
		C598.8,632.4,579.4,657.5,555.1,656.9z"/>
	<path class="st0" d="M131.9,591.4c6.5-32.1,51-34.5,59.3-2.3c0.5,6.2,7.5-4.4,23.9-0.3c45.7,13.6,21.9,78.8-22.3,60.2
		c-15.1,19.7-46.8,19.6-61.9-0.1c-15.4,6.8-29.8,2.4-38.6-7.2C68.2,615.2,99.8,575.4,131.9,591.4z"/>
	<path class="st0" d="M258.1,737.4c10.9-0.4,16,6.7,16.7,1.2c6.4-28.2,46.9-31.2,57.1-4.1c0.5,1.5,1,3,1.4,4.5
		c0.5,1.7,0.9,2,2.6,1.5c34.1-15.4,62.7,28.9,35,53.4c-9.3,8.3-22.2,10.2-33.7,5.4c-2.1-0.8-2.3-0.9-3.8,0.9
		c-3.8,4.2-8.3,7.5-13.4,9.9c-15.1,6.8-33.7,3.1-44.8-9.3c-2.1-2.3-2.1-2.2-5-1.1C221.7,815.1,207.4,741.2,258.1,737.4z"/>
	<path class="st0" d="M144.8,22.4c11.5-5.3,24.8-2.9,32.1,6.6c16.7,20.3-6,49.3-29,39.5c-1.8-0.7-2.9-0.5-4.3,1
		C132,82.9,109.7,83,98.1,69.6c-1.4-1.6-2.6-1.7-4.5-1c-14.1,5.3-29-2-33.5-16.5c-6.5-19.8,15.7-39.3,34.6-30.4
		c2.3,1,2.5,0.9,3.2-1.6C105.1-5.2,139-2.9,144.8,22.4z"/>
	<path class="st0" d="M68.8,448.5c3.9-18.5,28.2-18.5,32.1-0.1c32.7-11.9,34.7,39.3,2.7,30.9c-5-1.6-8.1,10.6-23.9,6.9
		c-8.2-1.5-9.9-8.6-14-6.7C33.1,487.2,37.4,436,68.8,448.5z"/>
	<path class="st0" d="M62.5,757.3c3.5-16.4,25-19.6,31.2-3.4c1.2,3.3,1.2,3.4,4.6,2.2c8.5-2.9,17.2,1.3,20.8,8.8
		c6.7,13.1-7.3,28.8-20.8,23.3c-1.8-0.7-3.1-0.5-4.6,1c-7.7,8.4-22.1,8.5-29.8-0.1c-1.4-1.6-2.7-1.6-4.4-0.9
		c-7.9,3.2-17.6-0.9-21.2-9.1C31.7,763.9,48.1,749.6,62.5,757.3z"/>
	<path class="st0" d="M239.6,252.9c0.1,8.1-12.8,9-12.9-0.1C227,243.9,239.6,244.7,239.6,252.9z"/>
	<path class="st0" d="M383.3,281.7c9.8,0.3,9.6,14.3,0.1,14.8C373.7,296.4,373.4,281.7,383.3,281.7z"/>
	<path class="st0" d="M302.2,328.1c-7.6-11.4-18.9-17.1-34-14.4c-2.4-3.4-4.6-13,2.6-11.2c8.9,3.1,17.8,6.5,27.5,6.3
		c6.5-0.1,13,0.2,19.5,0.4c1.9,0.3,2.8,1.4,2.3,3.3C317.1,320.2,310.1,326.1,302.2,328.1z"/>
	<path class="st0" d="M269.8,316.2c11-3,23.9,2.7,29.2,12.1C292.2,332,271.7,323.6,269.8,316.2z"/>
	<path class="st0" d="M401.5,258.6c-6.6-7.3-12.9-14.6-22.1-18.7c-0.8-0.2-1.7-1.4-1.7-1.9c1.2-2.6,5-1.9,7.1-0.9
		c8.7,3.6,16.7,11.4,17.3,21.3C401.9,258.4,401.7,258.5,401.5,258.6z"/>
	<path class="st0" d="M214.5,207.6c-0.3-1,0.5-1.6,1.1-2.2c7-7,15.3-9.5,25-6.7c2,0.3,4.9,3.3,1.6,4c-8.5-0.6-17.1-0.5-24.8,3.8
		C216.4,206.8,215.5,207.9,214.5,207.6z"/>
</g>
</svg>
