<?xml version="1.0" encoding="utf-8"?>
<!-- Generator: Adobe Illustrator 26.0.0, SVG Export Plug-In . SVG Version: 6.00 Build 0)  -->
<svg version="1.1" id="Capa_1" xmlns="http://www.w3.org/2000/svg" xmlns:xlink="http://www.w3.org/1999/xlink" x="0px" y="0px"
	 viewBox="0 0 595.3 779.4" style="enable-background:new 0 0 595.3 779.4;" xml:space="preserve">
<style type="text/css">
	.st0{fill:#FFFFFF;}
</style>
<g>
	<path d="M473.2,322.4c-0.4-3.9-2.6-6.6-5.8-8.8c4.9-5.8,1.3-13.1-5.6-14.7c-1.6-0.3-3.2-0.6-4.8-0.8c-8.3-0.8-23.4-10.6-16.9-20
		c1.1-1.7,2.2-3.5,3-5.4c3.6-7.5-6.7-16.5-13-10.2c-4.2,4.9-6.4,11.2-11.1,15.8c-17.3,11.6-36.6,20.6-55.2,30.1
		c-11,5.2-21.4,11.5-31.2,18.6c-0.7,0.5-1.7,1-2.5,0.9c-5.7-0.6-10.4,0.9-13.3,6.4c-6-1.6-11.9-1.9-17.9-0.9
		c54.2-47.7,49.1-77.8,19.5-138.3c0.9-4,5.6-9.4,2.9-13.3c-2.3-11.9-6.9-23.4-14.9-32.8c14.9-15.6,11.2-42.1-1.7-57.8
		c-64.8-71.7-175-23.1-232.8,34C58,86.3,6.5,116.2,32,147.2c-7.7,4.6-10.3,11.2-7.7,19.8c-33.8,4.8-26.1,55.4,8.2,47
		c-0.3,31.2,7.2,64.1,28.7,87.7c6,6.4,10.7,13.9,15.3,21.3c-23.5,17.9-12.5,47.4,14.5,52.9c-21,12.1-45.1,44.1-26.8,67.1
		c13.1,14.8,34.7,14.4,48.1,0.4c1.3,0.4,1.5,1.3,1.7,2.2c1.2,6.5,4.9,10.9,10.5,14.4c-24.4,22.3-9.2,7.8-31.9,17.9
		c-6.3,3-12.2,7.5-19.3,8.4c-7.8,1-15.5,2.1-23.3,3.1c-3.1,0.4-5.4,2.3-6,5.2c-1.8,10.5,7.6,13.7,16.8,12.9
		c-4.4,4-8.5,6.5-10.8,11.8c-1.8,4.5,0.6,9.4,5.3,10.6c7.5,2,13.2-5,20-6.9c-4.2,7.2-9.1,24.8,4.7,21.8c0.9-0.2,1.8-0.6,2.5-1.2
		c5.1-4.1,9.1-9.4,13.2-14.4c1.1-1.3,2.4-2.1,4-2.5c9.8-2.8,18.6-7.3,26-14.3c24.7-22.1,48.5-46.1,72.9-68.1
		c4.3-0.3,6.4-4.6,9.2-7.4c1-1.3,2.3-1.9,3.9-2.3c7.6-1.7,15-4,21.2-9.1c5.6,11.5,9.2,26.1,3.8,38.4c-6.6,10.8-12.9,33.2-23.4,38.9
		c-5.5,2.3-8.8,7.6-13.1,11.4c-1.9,2-2.1,3.9-0.1,5.9c13.1,9.1,28.4,14.6,42.1,23c-12.7,5.3-24.3,10.1-37.2,14
		c-6,1.7-10.1,5.2-12.6,10.9c-6.6,25.4,4.3,55.8,11.2,80.4c-6.4,6.8-16.7,12.2-16.5,22.7c0.8,21.1,61.4,103.8,83,107.6
		c13.8,4.7,24.5-7.3,26-20.2c3.5-20.7-8.3-41-2.3-61.7c0.4-1.7,1-3.2,2.2-4.6c5.1-5.2,10-10.5,15.1-15.6
		c9.1-7.6,18.8-14.5,21.2-26.9c0.2-0.8,0.8-1.5,1.3-2.1c7.8-7.1,13.1-16.3,18.5-25.3c8.4-10.2,6.8-24.4,5.3-36.6
		c8.8-6.2,18.7-13,21.8-23.9c1.8-4.1,4.6-7.9,5.5-12.5c4.6-14.5-7.9-21.7-15.9-31.5c12.6-3.1,48.8-31.8,27.7-42.8
		c-2.5-1.1-5.2-1.7-7.9-2.4c-16.6-3.7-31.6-12-45.3-21.9c-5-3.6-6-10.1-8.5-15.3c-1-3.9-2.7-2.7-3.5-7.3
		c-3.3-13.6-7.9-26.8-14.5-39.1c9-3.9,15.2-10.4,19.2-19.1c0.5-1.1,1.3-1.7,2.4-2.2c2.7-1.7,9.2-2.9,9.5-6.3
		c0.2-1.6,1.2-2.4,2.6-3.1c22.2-10.8,44.5-21.6,66.6-32.5c2.7-1.3,5.2-1.3,7.9-0.4c5.6,1.7,11.3,3.2,17.2,3.5
		c1.6,0.1,2.7,0.6,3.8,1.7c3.7,3.9,7.6,7.8,11.3,11.7c1.8,1.9,4,2.7,6.6,1.9c6.2-1.6,6.1-9,4-13.9
		C471.3,328.7,474,326.2,473.2,322.4z M193.6,379.7c-8.9,4.6-15.2,14.2-14.5,24.3c0.1,1.3-0.3,2.3-1.2,3.2c-2.6,2.9-6,5.3-7.5,9
		c-0.8,2.2-2.8,3.6-4.7,5.1c0.5-15-1.9-29.4-9-43.2c13.2,1.4,26.1,1.4,39,0.4C195,378.9,194.3,379.4,193.6,379.7z M222.9,376.4
		c-2.3-0.5-4.6-1-7.6-1.6c4.7-1.4,8.9-2.7,13.1-3.9c0,0.1,0.1,0.2,0.1,0.3C226.7,372.9,224.9,374.6,222.9,376.4z M278.9,351.8
		c-0.9,2.1-1.6,4.3-2.4,6.5c-1.9,0.2-3.7,0.4-6,0.7c-0.3-2.2-0.6-4.3-0.9-6.4c4-2.4,8-4.7,12.5-7.3
		C280.9,347.8,279.8,349.8,278.9,351.8z"/>
	<path d="M37.6,10C58-16.7,94.5,15.4,62.2,44.4C54.5,51.1,46.5,57.3,38.8,64c-0.9,0.9-1.7,0.9-2.7,0c-7.6-6.4-15.3-12.6-22.8-19
		C-19.2,16.9,15.3-17.3,37.6,10z"/>
	<path d="M450.2,657.7c22.3-27.3,55.9,7,24.8,34.2c-7.1,6.1-14.3,11.9-21.4,17.9c-3,2.8-3.7,3.2-6.7,0c-6.9-5.7-13.8-11.4-20.7-17.1
		C393.8,665,427.9,630.3,450.2,657.7z"/>
	<path d="M557.8,349.4c22.1-27.3,55.5,6.4,25.7,33.4c-7.1,6.2-14.5,12.2-21.8,18.2c-1.7,0.9-3.2,4.1-5.2,2.3
		c-7.6-6.4-15.2-12.6-22.8-19C501.3,356.7,535.5,321.9,557.8,349.4z"/>
	<path d="M52.4,708.1c21.2-27.5,65.6,8.1,12.1,45.2c-3.6,3-7.2,5.9-10.8,8.9c-1,0.8-1.7,0.9-2.7,0c-7.5-6.2-15-12.4-22.4-18.7
		c-7.5-6.1-12.8-14.9-13.8-24.6C13.3,698.1,41.8,691.1,52.4,708.1z"/>
	<path d="M554.8,521.6c4.3-4.3,10.8-6.1,15.4-2c6.4,5.2,2.9,14.7-2.4,19.4c-3.8,3.3-7.6,6.4-11.4,9.6c-0.9,0.7-1.6,0.7-2.5,0
		c-3.7-3.2-7.6-6.2-11.3-9.4C527.4,525.2,544.6,509.4,554.8,521.6z"/>
	<path d="M429.6,181.7c4.9-3.7,11-6,15.9-1.2c6.1,5.5,2,14.9-3.4,19.4c-16,12.4-8.2,12.8-24.1,0.3
		C402.8,187.4,416.9,169.7,429.6,181.7z"/>
	<path d="M123,620c-4.5-4-9.3-7.9-13.8-12.1c-5-4.7-6.4-14.8,0.1-18.4c4.7-3,10.5-1.5,14.1,2.6c12.9-12.5,26.8,5.3,12.4,17.8
		C131.5,613.1,127.8,617.3,123,620z"/>
	<path d="M447.9,477.2c-4.1-3.3-8.3-6.7-12.2-10.1c-14.5-12.9,0-30.1,12.4-17.7c13-12.5,26.6,5.3,12.6,17.6
		C456.4,470.3,452.5,474.3,447.9,477.2z"/>
	<path class="st0" d="M119.6,361.5c-22.6,28.8-65.7,1.3-50.5-26.9c2.1-3.6,4.9-6.5,8.2-8.8c2.4-1.7,3.7-1.6,5.8,0.5
		c3.9,3.7,9,8.3,14.8,7c2.7-0.7,3.9-2,3.7-4.8c-0.6-7.1-1.1-14.5-7-19.5c8-5.8,3.1-15.9-0.1-22.9c-8.4-16.1-13.9-33.4-22.8-49.2
		c20.3-6.2,22-28.9,16.2-46.3c36.9,7.7,68.5-3.6,73.9-44.5c31.8,14.5,73,17,88-21c13,7.4,25.7,15.6,38.6,23.3
		c2.5,1.6,5.2,3.2,6.9,5.7c3.4,4.3,0.6,9.3,0.5,14.4c-44.9-33.6-60.3,30.4-32.8,59c31.6,36.2,70.6,16.3,47.2-29.4
		c0.7-1.9,1.3-3.5,1.9-5.3c0.6-0.1,1.3-0.2,1.9-0.2c16.1,33.3,37.5,72.4,12.4,106.9c-13.5,21-33.2,37.2-54.8,49.3
		c-10.5,7.7-22.3,12.8-34.9,16.3c-24.3,10.8-51.5,13.5-77.9,11.2C144.8,374.5,132.2,367.7,119.6,361.5z M117,257.1
		c-7-1-13.8-4.2-20.9-3.1c-5.5,1.1-3.2,7.3,0.6,9.1c6.2,3.5,13.3,2.8,20.2,3.1c0.1,1.1,0.2,1.9,0.3,2.9c-6.4,1.1-12.4,2-18.8,3.1
		c-7,1.6-3.5,10.5,2.3,10c3.1-0.2,6.2-0.3,9.2-0.9c2.9-0.6,5.8-1.7,8.6-2.6c0.8-0.3,1.6-0.7,2,0.7c-4.3,2.2-8.6,4.3-13,6.3
		c-1.7,0.7-2.6,2.5-2.4,4.1c0.6,3.6,5.9,4,8.6,2.6c4-2.1,8-4,12.1-6.1c2.1,1.8,3.3,0.6,4.8,3.3c34,51.8,116.9-7.9,80.3-57
		c-6.6-11.8-13.6-17.4-26.9-20.5C154.3,204,123.5,228.3,117,257.1z M246.5,316.8c14.8-1.1,29.7-7.1,38.3-19.6
		c6.8-10.7-1-18-12.3-14.5c-11,3.2-22,6.4-33,9.5c-4.7,1.3-9,3.3-12.8,6.5C215.6,310.6,237.5,317,246.5,316.8z M110.9,230.3
		c0.1,2.2-0.5,4.3,1.9,4.8c2.1,0.3,2.3-2.2,3.2-3.5c6.9-10.9,15.9-20,25.6-28.5c2.7-2.6,2.8-5.6,0.4-8.5
		C130.8,183.6,110.3,220.8,110.9,230.3z M259.8,136.4c-2.8,0.9-6.5,0.5-8.2,3.2c-1.4,2.5-1,5.3,1.2,7.3c1.7,1.6,3.7,2.6,6.3,2.6
		c6.2-0.2,12.1,0.9,17.8,3.6c2.4,0.9,5.8,2.9,8.1,1c0.3-0.6-0.2-2.3-0.8-3C278.1,143.5,269.8,136.9,259.8,136.4z M97.8,362.5
		c0.3,0.3,0.4,0.6,0.5,0.6c4.8-0.3,13.1-6.2,7-10.7c-3.2-1.5-6.6-2.8-8.3-6.2c-2.6-4.7-4.8-13-11.7-11.9c-3.9,0.7-6.8,3.1-9.2,6.2
		c-0.2,0.2,0.1,0.8,0.2,1.6c7.9-8.2,13.8-9.4,18,2.5c1.8,4.6,5.5,7.3,10,9c3.1,1.8,0.6,4.9-1.7,6.1C101.2,360.8,99.2,361,97.8,362.5
		z M259.6,246.3c-9.1-2.5-18,5.2-16.3,14.1C247.3,249.2,250.5,247.5,259.6,246.3z"/>
	<path class="st0" d="M314.5,167.1c-3.6-0.6-5.5,1.3-7.1,3.8c-1.3-1.6-1.9-3-1.3-4.9c1.7-5.1-0.6-13.2-7.3-11.3
		c-0.1-0.1-0.4-0.2-0.4-0.3c-1.4-3.3-4.1-5.2-7-7c-13.6-8.3-27.2-16.6-40.8-24.8c-1.9-1.2-2.2-1-3.1,1.3
		c-13.2,37.2-55.4,33.8-85,19.7c-2.5-1.1-2.8-1-3.2,1.9c-3.2,39.5-38.4,51.4-72.7,42c-2.7-0.4-1.1,2.8-0.8,4.2
		c2.6,8.7,4.2,18.3,1.3,27.2c-2.7,8.5-9.2,13.9-17.8,16.1c-1.1,0.4-1.4,1-0.7,2c6,8.8,9.7,18.8,14.1,28.4c2.6,6.2,5.2,12.4,8.1,18.4
		c2.3,5.8,5.9,11.3,5.7,17.7c0,3.1-1.4,4.7-4.4,5.6c-1.6,0.1-2.8,1.5-0.9,2.5c4,2.1,5.9,5.7,6.9,9.9c0.6,2.8,0.9,5.8,1.1,8.7
		c0.2,2.1-0.7,2.9-2.9,3c-1.9,0.1-3.6-0.5-5.1-1.5c-2.4-1.7-4.8-3.6-7-5.7c-1.2-1.1-2.3-2.1-4-1.6c-1,0.3-1.6-0.4-2.1-1.1
		c-2.8-4.3-5.7-8.6-8.6-13c2-1.8,1.2-3.7,0.3-5.6c-14.2-28.7-27.6-59.1-29.6-91.5c-0.3-4.2,0.1-8.4,1.3-12.5
		c1.8-6.2,2-12.6,2.1-18.9c1-8.6,5.8-16.4,8.5-24.5c25.3-41.7,82.3-80.2,129.6-91.5c41.6-11.1,91.9-6.3,120.9,28.8
		c12.2,15,16.6,40.8,1.8,55.4c-1.4,1.3-1.4,1.5,0.1,3.1C309,155.4,311.7,161,314.5,167.1z"/>
	<path class="st0" d="M319.8,610.5c-12.6,9.2-25.2,18.2-37.8,27.4c-4.1,2.9-4,3-4.7,7.9c-0.9,6.7-1.6,13.5-2.7,20.2
		c-1.2,7.4-3.3,14.6-7.1,21.2c-1.3,2.4-3.3,4.4-5,6.5c-0.9,1.1-2.1,1.2-3.5,0.7c-15.4-6-25.3-20.3-32.8-34.4
		c-12.2-25.8-29.1-71.9-18.6-99.5c0.7-1.6,1.8-2.5,3.5-3.1c20.7-6.9,40.4-16.5,60.4-25.1C273.9,564.4,287.6,598.4,319.8,610.5z"/>
	<path class="st0" d="M119.7,363.4c10.8,5.3,20.6,10,32,13.2c6.4,3.4,9.9,21.6,10.9,28.6c0.3,4.8,2,18.2-1.3,21.4
		c-11.5,10.4-22.7,21.2-34.4,31.5c-12.4-3.7-7.9-15.7-14.8-17.4c-3.2,1.3-5.4,4.8-8.4,6.6c-10.1,7.1-22.9,5.1-32.8-1.4
		c-26.8-19.7,0-58,23-68.8C103.4,374.1,113.7,372,119.7,363.4z"/>
	<path class="st0" d="M107.5,501.9c-6.6,1.7-12.4,5.3-17.7,9.4c-2.1,1.6-4.4,2.2-7,2.5c-3.4,0.3-5.4-1.1-6.3-4.4
		c-2.2-9.5,7.3-16.8,12-23.7c-3-1.8-13.6,15.4-14,18.9c-7.6,0.7-15.7,1.4-23.2-0.4c-5.9-1.2-8.1-11.7-1-12.7
		c9.1-1.1,18.1-2.2,27.1-3.7c10-3.1,18.4-11.3,29.2-11.7c2.4-0.2,4.4-1,6.2-2.7c20.2-18.6,41-36.5,60.1-56.3
		c12.5,0.1,21.6,10.8,22.7,22.9c0.2,1.6-0.2,2.8-1.3,3.9c-22.9,23.1-47.3,44.7-70.9,67.1c-7.2,6.7-15.7,10.8-25,13.4
		c-1.7,0.5-2.9,1.2-4,2.6c-4.1,4.9-7.9,10-12.7,14.2c-1.3,1.3-3,1.6-4.8,1.5c-5.7-0.1-3.5-7.6-2.7-11.1c1.5-4,3.4-7.9,5.5-11.6
		c0.1-0.4,0.2-1.1-0.1-1.4c-0.9-0.7-2.2,0.1-3,0.6c-4.8,2.5-9.6,5.1-14.4,7.7c-4.8,3-12.9-0.5-10.2-6.7c2.7-5.4,7.9-9.1,12.8-12.5
		c2.9-1.4,6.3-0.8,9.5-1.3c0.5,4.8,2.5,9.6,8,9.2c4,0.1,7.4-1.9,10.5-4.3c3.8-2.9,7.9-5.2,12.4-6.8c1.4-0.5,1.4-0.6,2.4-1.7
		C107.7,502.3,107.6,502.1,107.5,501.9z"/>
	<path class="st0" d="M464.9,312.3c-3.8-2.2-7.5-4.4-11.2-6.5c-0.1,0-0.3,0.2-0.7,0.4c1.4,2,3.8,2.8,5.6,4.2
		c3.2,2.3,6.5,4.5,9.6,6.9c2.1,1.6,2.8,4.1,2.8,6.7c0,2.1-1.6,3.2-4.9,3.9c-4.1-4.8-7.1-10.4-11.4-15c-1.1,1.3-0.2,1.9,0.3,2.5
		c4.4,6.2,9.7,12,11.8,19.5c1.4,4.7-3.6,9.8-7.8,5.7c-3.9-3.9-7.7-7.9-11.6-11.8c-0.9-1-1.9-2.1-3.3-2.2c-6.4-0.1-12.4-1.7-18.4-3.5
		c-3.4-1-6.4-1.1-9.7,0.6c-22.8,11.2-45.6,22.4-68.5,33.4c-0.7-11.3-6.2-19.8-14.7-26.9c26.2-19.1,56.9-30.6,84.6-47.3
		c6.7-4.3,9.4-12.4,14.2-18.4c4.8-4.7,12.2,2.8,9.1,8.2c-3.1,5.8-7.6,11.1-2.3,17.1c4.8,6,10.8,10.3,18.9,11
		c1.4,0.1,2.7,0.4,4.1,0.7C466.5,302.4,470.2,308.8,464.9,312.3z"/>
	<path class="st0" d="M204.3,650.7c7.8,21,19.1,44.4,41.8,52.1c2,0.9,4.1,0.8,6-0.1c6.7-3.1,13.1-6.7,16.8-13.5
		c4.7-8.9,7.7-17.8,8.5-28.1c8.8,8,19.1,14.6,31.4,13.8c-16.9,18.5-20,15.3-19,42.8c1.5,13.9,6.5,27.5,3.5,41.7
		c-1.5,6.1-12.6,3.9-16.7,2.1c-30.3-15.4-49.5-48.5-66.8-76.6c-4.5-8-8.2-16.4-9.7-25.4C199.3,655.4,200.8,652.7,204.3,650.7z"/>
	<path class="st0" d="M325.3,533.2c1.8,0.1,4.4,1.3,5.7-0.2c0.3-1-0.5-1.3-1.3-1.4c-13.1-2.1-26.2-4.1-39.3-6.2
		c-2.8-0.5-1.7-3.4-5.4-3c-3.4,0.2-6.5,2.9-9.8,0.9c-5.2-2.6-10.2-5.6-15.3-8.7c16.3-12.1,50.7-26.3,70.8-21.5
		c2.5,0.6,5.2,0.8,7.5,2c8.9,6.7,17.3,14.4,25.9,21.6c4.9,4.4,9.2,9.6,13.9,14.2c9.9,8.9,3.4,21.2-1.2,31c-0.4,1-1.1,1.4-2,1.2
		c-2.5-0.3-5-0.5-7.4-1.2C352.1,556.9,335.8,544.9,325.3,533.2z"/>
	<path class="st0" d="M200.6,517.1c2.8-3.6,5.8-6.1,8.9-9.3c2.7-2.9,6.9-3.8,9.5-6.9c1-1,2-1.4,3.4-1.5c11.6-0.2,22.7-2.7,33.4-6.9
		c30.4-15.8,45.9-23.4,80.6-14.6c12.6,2.5,25.2-2,36.8-6.6c1.4-0.6,2.5-0.5,3.9-0.1c3.9,1.2,7.9,2.2,11.9,3.4
		c3.8,1.4,8.5,1.5,10.5,5.6c-4.1-1-7.5,0.1-10.8,2c-11.9,6.7-24.8,12-38.5,13.2c-12.9-1.3-25.5-8-38.6-4.4
		c-17.6,3.9-34.8,9.8-49.8,19.9C242.9,520.2,221,520.2,200.6,517.1z"/>
	<path class="st0" d="M222.3,497.9c5.2-10.7,10-20.7,15.4-31.1c0.7-1.4,1.7-2.3,3.1-3c23.1-12.3,51-10,74.9-1.3
		c1.7,0.7,3.1,0.5,4.6-0.3c6.1-2.8,20.1-9.7,26.3-6.8c8.1,5.9,16.9,10.1,25.9,14.3c-8.1,4.2-17.3,6.2-26.4,7.4
		c-2.9,0.3-5.8,0.1-8.7-0.6c-7.5-1.8-15.2-3-22.9-3.8c-27.4-3.6-48.8,17.5-74.3,22.9C234.3,496.8,228.4,498.1,222.3,497.9z"/>
	<path class="st0" d="M240.2,462.2c2.1-5.9,1.6-11.6,1.3-17.3c-0.1-1.9,0.4-3,2-3.9c19.9-10.9,44.4-9.9,65.4-2.6
		c1.5,0.5,2.7,0.4,4.1-0.3c4.7-2.4,9.6-4.5,14.8-5.2c3.1-0.3,3.7,0.1,4.8,3c2.5,6.2,3.9,12.7,9.9,16.9c-7.6,1.9-15,4-22,7.7
		c-2,1-3.6,1-5.6,0.2C291,452,263.5,450.5,240.2,462.2z"/>
	<path class="st0" d="M209.3,432.4c-3.8-14.9-12.4-24.5-27.8-26.9c-1.7-9.8,4.5-19.4,13.1-23.8c8.9-4.3,22.8-7.3,31.2-0.8
		c9,11.4,7.6,27.5,5.8,41C229.8,427.5,214.9,431.4,209.3,432.4z"/>
	<path class="st0" d="M198.2,656.1c2.8,22.8,17.6,41.6,30.1,60c13.3,17.8,38.8,54,64,47.7c-22.5,50.6-88.2-61.2-99.8-81.6
		c-3.5-6.2-5-14.9,0.1-20.6C194.2,659.9,196,658.2,198.2,656.1z"/>
	<path class="st0" d="M206.2,559.2c-7.9,21.8-1.1,45.2,5.1,66.7c8.5,26.9,20,57.9,47.4,70.3c-2.7,2.4-5.7,4.3-9.2,4.8
		c-7.5-0.7-14.1-5.7-19.5-10.7c-14.2-14.2-21.8-33.4-27.1-52.4C198.5,621.5,179.7,562.1,206.2,559.2z"/>
	<path class="st0" d="M237.4,429.1c-1-3.1-4.1-7.1-3.7-10.2c1.1-14,2.1-30-8.3-41.1c12.3,4.3,35,9.8,38.6-8c5.3,3.3,9,4.4,15.4,4.9
		c0.2,2.8,0.4,5.9,0.6,9c-5.6,4.6-8.3,10.7-7.2,17.8C272.7,407.3,243.8,427.8,237.4,429.1z"/>
	<path class="st0" d="M315.1,386.9c-6.9-16.1-18.4-25.9-36-27.6c3.1-27.8,42.1-32.9,52.5-7.2c2.1,4.6,3.9,10.1,3,15.2
		C330.7,376.2,324.5,383.4,315.1,386.9z"/>
	<path class="st0" d="M306.9,530.4c5.1,1,9.9,0.8,14.5,2.5c16.1,13.2,31.8,29.9,54,31.8c-5.4,10.3-15.8,15.8-24.8,22.4
		C328.4,575.2,313.4,554.6,306.9,530.4z"/>
	<path class="st0" d="M348.7,587.9c-3.3,1.9-5.7,2.8-8.4,5.4c-3.6,3.5-8.1,4.6-12.9,2.8c-22.3-12.7-39.6-42.8-38.9-68.6
		c5.7,0.9,11.1,1.7,16.6,2.5C312.1,554.9,325.8,574.6,348.7,587.9z"/>
	<path class="st0" d="M341.2,595.5c-4.6,6.6-11.5,10.9-19,13.3c-10.7-1.7-19.8-9.8-27.2-17.4c-12.8-13.9-17.9-32.6-21-50.8
		c-0.1-4.4-3-11.1,2.6-13.1c20.1-9.3,1.1,5.5,21.4,39.6c5.7,10.2,13.4,18.7,22.1,26.4c5.5,5.4,14.5,6.7,20.7,1.6
		C340.9,595.3,341,595.4,341.2,595.5z"/>
	<path class="st0" d="M296.2,366.1c7,4.7,13.2,10.9,16.2,18.8c7.5,14.6,13.9,29.7,17.2,45.8c-0.2,0.2-0.3,0.4-0.5,0.4
		c-5.8,0.6-11.2,2.8-16.3,5.3c-1.2,0.6-2.3,0.8-3.7,0.3c-11.5-4-23.2-5.6-35.4-5.6c5.9-3.7,11.3-7.4,15.4-13.1
		c0.8-1.1,1.7-1.2,2.8-1.3c8.4-0.6,15.1-6.3,16.8-14.4c2.6-15.3-7.3-15.5-9-22.1c-0.6-4.8-1.9-9.4-4-13.8
		C295.8,366.4,296,366.2,296.2,366.1z"/>
	<path class="st0" d="M42.1,184c-0.3,9-2.2,17.8-7,25.5c-0.4,0.7-1.3,1.5-2.1,1.7c-12.2,4.4-26.4-2.6-27.9-15.9
		c-4.2-18,16.5-32,32.2-23.5C42.5,174.1,42.2,179.1,42.1,184z"/>
	<path class="st0" d="M51.6,152.1c-8.4-10.4-14.7-3.1-18.8-7.6c-5.9-6.3-7.1-16.5-2.6-24.5c7-14,29-14.8,36.2-0.7
		c1.3,2.2,2.1,4.7,3.1,7.1c0.5,1.1,0.2,2.1-0.5,3.1C63,136.9,57.7,145,51.6,152.1z"/>
	<path class="st0" d="M252.6,192c-0.3-5.9,1.3-11.2,4.9-15.9c16.9-17.7,40.4,3.8,49.5,19.4c9.5,14.6,16.3,47.8-9,48.8
		C325,218.7,279.4,157.9,252.6,192z"/>
	<path class="st0" d="M203.7,519.7c18.3,2.1,36.3,1.1,53.8-4.6c5.9,3.4,11.8,6.8,17.9,10.2c-1.1,0.7-2.6,1.4-3.2,2.6
		c-0.5,1.4-1.4,2-2.7,2.6c-7.5,3.3-15.1,6.7-22.6,10.1c-1.3,0.6-2.3,0.6-3.6-0.1C230.2,533.4,216.6,527.1,203.7,519.7z"/>
	<path class="st0" d="M344.3,496.7c16.1,1.8,31.8-5.7,45.7-13.3c2.1-1.2,4.2-2,6.6-1.9c3,0.1,4.6,1.9,3.5,4.8
		c-5.6,13.5-17.6,23.5-31.3,28.6c-1.5,0.5-2.6,0.5-4-0.6C358.1,508.3,350.9,502.9,344.3,496.7z"/>
	<path class="st0" d="M334.2,643.6c-1.6,1.7-4,2.5-4.3,5.1c-1.1,5.3-4.7,8.4-10.1,9.1c-14.2,1-25.5-9.7-35.3-18.9
		c5.6-4.1,11.1-8,16.8-12.1c8.8,9.5,19.7,15,32.6,16.4C334.1,643.2,334.1,643.4,334.2,643.6z"/>
	<path class="st0" d="M283.3,639.9c11.4,10.7,26.7,24.2,43,17.7c-3.1,5.8-8.1,10.1-13.6,13.6c-4.4,4.1-13.7,1.5-18.7-0.6
		c-4-1.8-16.1-8.9-16.1-13.4c0.6-4.2,1.3-8.3,1.7-12.5C279.9,642.2,281.2,640.9,283.3,639.9z"/>
	<path class="st0" d="M251.3,185c2.9-27.8,27-31.3,45.4-13.7c1.4-3,0.6-15.7,3.9-15.4c3,0.3,4.6,3.4,4.3,6.2
		c0.2,9.9-8.3,11.2-1.3,16.8c3-2.1,7.4-15.6,11.3-8.4c2.8,6.6-4.5,10-8.5,14.2c0.4,1,0.9,2.1,1.5,3.5c3.2-0.6,9.6-7.3,12-5.1
		c0.9,0.8,0.7,1.9,0.3,2.9c-1.3,4.6-6.1,4.7-10.1,5.4c-0.2,1.4-0.3,2.7-0.5,4.1c-1.5-0.1-1.7-1.2-2.1-1.9
		C296.6,172.9,261.3,152.4,251.3,185z"/>
	<path class="st0" d="M241.2,440.4c-1.1-3.1-2.1-6.1-3.3-9.4c13.6-6.2,24.7-15.8,35.7-26c2.8,6.3,7.4,10.3,14.3,11.7
		c-4.2,6.9-11.3,11.4-18.5,14.7C259.5,432.9,250,435.4,241.2,440.4z"/>
	<path class="st0" d="M319.1,614c1.9-1.5,3.7-2.9,5.9-3.7c6-2.2,11.2-5.5,15.6-10.2c1.6-1.7,3-3.5,3.3-6c0.4-2.1,8.6-5.3,11-7
		c2,10.6,2.7,23.4-4,32.6C342.8,625.4,325.9,620.8,319.1,614z"/>
	<path class="st0" d="M302.9,625.5c4.9-3.5,9.6-6.9,14.5-10.5c9,7.3,19.3,9.9,30.9,7.9c-2.5,5.9-7,10.7-10.2,16.3
		c-1.3,1.9-2.8,2.5-5.2,2.1C321.4,639.7,310.3,634.9,302.9,625.5z"/>
	<path class="st0" d="M69,306.2c-25.6-22.8-34.6-58.6-34.2-91.8c-0.1-2.9,2-4.3,3.5-6.8C39.3,242.8,55.8,274.8,69,306.2z"/>
	<path class="st0" d="M277.7,237.6c8.1,1.7,15.1-0.7,19.1-8.2c7.9-14.1-0.7-31.8-14-39.1c-9-5.6-21.3-0.9-23.6,9.6
		c-2.5,7.8,0.1,15.2,2.3,22.7c-5.6-7.8-11-18.2-8.5-28c5.6-12.5,21.4-14.2,32-6.4c15.7,10.5,26,32.9,15.5,50.3c-1.5,2-3.8,6-6.6,5.9
		C288.1,243.6,281.8,241.7,277.7,237.6z"/>
	<path class="st0" d="M197.5,441.5c-1.7-14.5-8.5-24.3-24.4-26.1c2.7-2.8,5-5.3,7.5-7.6c8.7-0.8,16.7,5.2,21.6,12
		c1.8,2.8,7.2,12,4.4,14.7C203.9,436.6,201.4,442.5,197.5,441.5z"/>
	<path class="st0" d="M42.7,174.5c-3.6-4.5-8.6-5.8-13.7-6.6c-1.7-0.2-2.3-1-2.8-2.5c-5.1-14.3,16.5-25.2,24.6-11.6
		C48.2,160.6,45.5,167.3,42.7,174.5z"/>
	<path class="st0" d="M336.6,365.7c-1.1-13-6.8-23-17.7-29.7c11-18.6,28.8,10.6,27.1,22.9c0,1.7-0.6,2.9-2.3,3.6
		C341.4,363.4,339.2,364.5,336.6,365.7z"/>
	<path class="st0" d="M307.6,398.9c-1,22.4-34,20.9-33.4-1C275.4,376.3,307.7,377.2,307.6,398.9z M293.6,395.8
		c-3.9,6.3,0.7,14.2,8.2,11.5c9.7-5.1,1.5-17.8-7.8-12c6.3-9.1-8.3-16.8-12.2-6.5C279.6,395.5,288.5,401.2,293.6,395.8z M292,405.2
		c0-9.2-13.9-9-14,0C278.1,414.3,291.9,414.6,292,405.2z"/>
	<path class="st0" d="M226.3,376.3c4-3.7,8.1-6.1,12.5-7.8c7.5-0.9,14.7-1.8,22.5-2.9c1.7,2.1,1.6,4.8,0.3,7.4
		C254.3,385.4,237.4,379.9,226.3,376.3z"/>
	<path class="st0" d="M263.1,365c7.4-5.1,15.4-4.8,23.7-2.7c1.6,0.4,2.2,1.2,1.9,2.8C285.6,375.8,268.6,375.3,263.1,365z"/>
	<path class="st0" d="M298,381.8c-5.5-2.2-10.9-1.7-16.4,0.9c-0.2-3.1-0.4-5.8-0.5-8.3c4.5-2.9,9.9-4.6,9.3-11.2
		C295.9,367.1,298,375.9,298,381.8z"/>
	<path class="st0" d="M289.2,201.6c-0.1,4.5-4.4,7.9-8.4,4.9c-6.6-4-4.1-18.2,4.7-12.7C288,195.6,289.1,198.2,289.2,201.6z"/>
	<path class="st0" d="M240.3,365.7c9.7-3.3,18.7-7.3,27.8-12.4c0,2.3,2.1,5.9-0.4,7.5c-7.1,3.6-19.6,6.3-27.4,5.3
		C240.3,366,240.3,365.9,240.3,365.7z"/>
	<path class="st0" d="M317.5,175.3c0.4,1.9,0.7,3.7,1,5.4c-1.7,0.9-3.3,1.7-5,2.6c-0.3-0.6-0.7-1.1-0.9-1.5
		C314.3,179.7,315.8,177.7,317.5,175.3z"/>
	<path class="st0" d="M303.6,176.4c-1.5-2.2-1.5-2.2,0.8-5.1C306.2,173.5,306.2,173.5,303.6,176.4z"/>
	<path class="st0" d="M310.9,183.7c0.6,2-1,1.8-2.1,2.4C308.8,184.4,308.8,184.4,310.9,183.7z"/>
	<path class="st0" d="M37.5,63.1C29.4,56.4,21.6,50,13.9,43.4c-31.3-27.5,4.2-59,23.5-30.7c20.7-28.5,53.8,3.7,24.4,30
		C53.9,49.6,45.8,56.2,37.5,63.1z"/>
	<path class="st0" d="M450.2,660.6c19.8-29.1,54.8,3.6,23.3,30.7c-7.7,6.6-15.3,12.9-23.2,19.3c-7.9-6.4-15.7-12.8-23.4-19.4
		C395,663.1,431.7,631.9,450.2,660.6z"/>
	<path class="st0" d="M557.8,402.4c-8.2-6.9-16.3-13.4-24.2-20.2c-30.6-27.7,5.6-58.4,24.1-30c19.3-28.6,54.1,2.6,24.6,29.6
		C574.4,388.8,566.2,395.5,557.8,402.4z"/>
	<path class="st0" d="M52.4,711.1c19-28.6,54,2.4,24.6,29.5c-8,7.1-16.3,13.8-24.6,20.6c-8-6.6-15.9-12.9-23.7-19.7
		C-2.6,713.3,33.7,682.5,52.4,711.1z"/>
	<path class="st0" d="M555.1,547.8c-4.4-3.8-8.7-7.3-12.8-11.1c-11.6-11.9,3.4-25.7,12.8-12.4c10.1-13.8,24.9,1.4,12,13.3
		C563.3,541,559.2,544.2,555.1,547.8z"/>
	<path class="st0" d="M429.8,208.2c-6-6-14.7-9.7-16.7-18.4c-2.5-8.8,9.3-14,14.8-7.5c0.8,0.7,1.1,1.9,2.2,2c2.3-3.4,6-5.9,10.3-4.8
		c9,1.8,7.4,13.8,1.5,18.3C438.1,201.3,434.1,204.6,429.8,208.2z"/>
	<path class="st0" d="M123.4,618.2c-4.3-3.7-8.4-7.1-12.4-10.6c-4.8-4.2-7.1-13.9-0.4-17.2c4.9-2.6,10-0.1,12.7,4.3
		c5.5-9.4,19.8-5.3,16.5,6.1C137.3,608.9,129.4,612.4,123.4,618.2z"/>
	<path class="st0" d="M448.1,475.6c-4.4-3.9-8.8-7.5-13-11.3c-4.5-4.2-6.1-13.6,0.4-16.6c4.9-2.5,9.9,0,12.6,4.4
		c5.6-9.9,20.2-5.1,16.4,6.4C462.2,465.9,453.6,470.1,448.1,475.6z"/>
	<path class="st0" d="M162.3,308c-50-5.9-44.9-74.1,0.4-86.9C237.5,205.4,235.5,308.5,162.3,308z M212.1,264
		c-2.6-51.5-77.1-44.9-71,5.5C147.8,312.9,211.7,307.5,212.1,264z"/>
	<path class="st0" d="M205.3,227.5c-38.5-30.7-94.5,13.4-77.2,58.3c-0.7-0.6-1.5-1.1-2.4-1.8c-3.8,2.5-13.9,9.8-18.1,6.8
		c-1.2-0.6-1.3-2.3-0.1-3.3c5-2.8,10.3-4.8,15.4-7.7c-0.8-1.3-1.5-2.5-2.2-3.7c-5.1,2-19.5,7.3-23.7,2.6c-1.7-1.8-1.2-4.2,1.2-5.1
		c6.9-1.5,13.9-1.9,20.8-3.8c-0.3-1.8-0.7-3.5-1-5.3c-6.9-0.2-13.9,0.5-20.2-2.6c-3.2-1.3-5.7-6.4-0.7-6.8
		c7.2-0.2,13.8,2.7,20.9,3.6c6-28.4,35.8-53.2,65.4-45.2c8.6,2.2,17.3,5.7,22.3,13.6C205.6,227.3,205.4,227.4,205.3,227.5z"/>
	<path class="st0" d="M236.3,313.6c2.5-13.2,15.1-15.5,25.9-18.6c5.5-1.3,14.1-3.3,18.2,1.8c1.1,1.7,1.1,2.8-0.4,4.1
		c-2.7,2.3-5.4,4.8-8.5,6.7C261,313.7,248.3,317.4,236.3,313.6z"/>
	<path class="st0" d="M229.9,298.5c3.1-2.3,7-3.6,10.5-4.9c11.7-3.5,23.1-6.8,34.9-10c-3.9,5.3-9.4,8.6-15.7,10.3
		C250.1,296.8,239.5,300.2,229.9,298.5z"/>
	<path class="st0" d="M243.7,299.9c-4.8,3.6-7.5,7.9-9.2,13.1c-4.2-1.1-8.5-3.3-9.2-7.8c-0.5-3,1-4.7,4-4.8
		C233.9,300.4,238.4,300.1,243.7,299.9z"/>
	<path class="st0" d="M269,292.1c3.2-2.9,5.7-6.2,9-8.6c8.4-1.1,9.6,8.5,4.6,13.9C279.6,291.7,274.2,292.1,269,292.1z"/>
	<path class="st0" d="M113.2,233.4c-4.3-8.3,13.4-36.9,22.6-39c4.3-2.1,8.6,4.1,5,7.3C130.2,211,120.2,221.1,113.2,233.4z"/>
	<path class="st0" d="M283.4,153.4c-2.2-0.2-3.8-0.9-5.7-1.7c-5.9-2.8-12.1-4.1-18.5-3.9c-3.3,0.1-7.3-2.4-6.7-6.1
		c0.3-1.5,1-2.5,2.5-2.9C265.6,135.6,277.9,144.1,283.4,153.4z"/>
	<path class="st0" d="M288.5,385.5c7.1,0.1,7.4,10.6,0.2,10.9C281.5,396.4,281.3,385.7,288.5,385.5z"/>
	<path class="st0" d="M299.1,406.3c-7.1,0-7-10.7,0-10.9C306.3,395.5,306.4,406.2,299.1,406.3z"/>
	<path class="st0" d="M290.4,405.3c-0.2,7.3-10.9,6.9-10.9-0.2C279.7,398.1,290.6,398.1,290.4,405.3z"/>
	<path class="st0" d="M210.3,264.1c-0.9,45.3-67.3,45.2-68.1-0.2C143.1,218.5,209.5,218.4,210.3,264.1z M149.5,263.1
		c-0.1,34.9,52.2,35,52.4,0.3C202,228.5,149.8,228.3,149.5,263.1z"/>
	<path class="st0" d="M191.8,249.5c-0.1,12.5-18.9,12.6-19.2,0.1C172.8,236.9,191.5,236.7,191.8,249.5z"/>
</g>
</svg>
