<?xml version="1.0" encoding="utf-8"?>
<!-- Generator: Adobe Illustrator 26.0.0, SVG Export Plug-In . SVG Version: 6.00 Build 0)  -->
<svg version="1.1" id="Capa_1" xmlns="http://www.w3.org/2000/svg" xmlns:xlink="http://www.w3.org/1999/xlink" x="0px" y="0px"
	 viewBox="0 0 595.3 816.6" style="enable-background:new 0 0 595.3 816.6;" xml:space="preserve">
<style type="text/css">
	.st0{fill:#FFFFFF;}
</style>
<g>
	<path d="M423.6,490.5c7.5,17.4-9,35.3-26.9,33.4c9.2,17.6,1.2,24.6,6.5,31.1c10.1,13.8,28.6,18.3,44.7,14.3
		c53.1-9.5,48.7-77,106.8-76.9c6.8,0.1,18,2.9,17.7,11.4c-0.3,3.7-2.2,6.5-5.6,8.1c-5.4,2.3-11.5,1.3-17.2,1.1
		c-10.7-0.8-20.4,6.5-26.5,14.7c-24.4,38.8-42.6,61.1-92,62.1c9.3,8.5,21.7,10.9,32.5,16.6c14.4,6.5,12,27.7-1.8,33.4
		c-17.3,8.8-49.5-20.4-63.2-30.8c7.4,14,17.5,26.5,26.7,39.4c6.4,8.1,11.7,19.8,3.6,28.6c-6.6,9-20.4,10-27.8,1.5
		c-10.9-11.7-20.1-24.6-27.4-38.8c-8.8-18.5-14-37.5-21.6-56.8c-0.8,0.7-1.3,1-1.4,1.4c0.1,18.4,0.9,36.8,1.2,55.2
		c0,1.3,0.3,2.4,1.1,3.6c3.4,4.9,2.1,21.4,2.9,28.4c0.1,2.2,0.7,3.9,2.2,5.5c6,6.3,5,15.4,4.9,23.4c-1.7,4.7-0.2,9.4,0.4,14.1
		c3.3,25.6,9.2,51.1,9,77.1c0.4,4.5-2,7.5-5.6,9.8c-17.9,9.8-39.3,8.2-59.1,8.1c-1.3,0-2.2,0.2-3.3,1c-3.3,2.7-7.4,3.6-11.5,4.4
		c-25,4.2-50.6,0.9-75.6-1.6c-15.4-2.1-31.4-2.3-46-8c-2.7-1.2-3.8-3-3.8-6.2c-0.1-34.6,8.1-68.3,24.6-98.7c0.4-0.8,0.8-1.6,0.9-2.4
		c1.5-8.1,5.5-20,14.3-22.5c0.6-0.2,1.2-1.1,1.6-1.8c2.7-5.6,5.4-11.2,8.1-16.8c1.9-3.2,3.2-9,6.4-10.7c0.5-0.3,0.9-1.2,1-1.9
		c3.9-18.2,7.9-36.2,11.6-54.5c-7.3-1.2-14.5-1.8-21.9-2.8c-2.8-0.3-5.5-1.6-5-5c-4.3-1.8-8.8-2.8-12.8-5.1c-2.5-1.7-1.2-4.5,0.8-6
		c5.7-5.4,11.4-10.8,17.1-16.2c7-7.7,12.4-16.8,18.7-25.1c1.9-2.8,3.2-5.9,4.1-9.2c1.1-4.4,3.1-8.7,3.9-13.1
		c-0.4-3.2,0.3-6.4,0.4-9.5c-0.1-4.2-2.7-8-4.6-11.7c-4.4-8.4,2.1-9.7,1.8-15.2c-0.4-2.6-0.7-5.3-1-7.7c-8.7-2-15.7-6.8-20-14.5
		c-2.5-4.9-2.7-10.1-3.8-15.5c-7.4,2.6-14.9,3.4-22.9,3.3c3.1,21,4.4,44.4-7.6,63c-10.9,18.5-44.3,22.9-50.2-1.8
		c-0.6-2.2-1.2-4.5-1.9-7.1c-6.5,4.9-13.3,8.6-21.5,9.5c-15.6,1.8-31.3-9.9-34.3-25.3c-2.7-16.7,7.9-33.3,19.9-43.9
		c-0.1-0.2-0.3-0.4-0.4-0.6c-8-1-16.1-2.4-22.7-7.5C59,412,57.3,392.2,68.7,379.7c-24.3-40-41.6-72-38.1-120.4
		c-36.2,1-42.9-44.3-6.3-50.1c-2.9-9.8-0.1-17.3,9.3-22.1C6.1,152.9,65.8,123.2,76.6,166c11.8-7.3,22.7-15.7,34.4-23.2
		c56-35.3,136.9-52.6,194.1-11.1c21.8,14.5,37,49.2,15.7,70.3c11.8,14.4,18,34.5,11.2,52.4c-0.7,1.8-0.4,3.2,0.3,4.9
		c4.1,10.4,8.8,20.1,11.7,31.1c2.4-1.5,5.9-1.7,6.4-4.8c1.6-8.1,8.3-30.7,19.6-21.2c5.4,4.9,9.1,11.3,12.4,17.7
		c0.5,1.2,1.3,1.8,2.7,2c25.8,4.1,50.7,11.2,75,20.6c23,8.9,45,19.9,65.5,33.6c1.7,1.1,3.2,1.3,5.1,0.9c10-2.1,20.1-3.3,30.3-2.8
		c10.3,0.2,25.1,5,19.7,17.8c-5.1,15-15.7,27.5-25.7,39.5c-1.3,1.5-1.9,3.1-2.1,5.1c-2.7,29.9-7.3,61-23.7,86.8
		C507.8,514,452.4,500.3,423.6,490.5z"/>
	<path d="M33.5,41.7c18.9-5.7,33.7-22,36-41.7c1.5,0.1,1.3,1,1.4,1.7c2.7,19.5,17.4,34.2,35.6,40.1c0,0.2,0,0.4,0,0.6
		c-18,5.6-33.8,20.1-35.6,39.6c-0.1,0.9,0.2,1.9-1.3,2.6c-2.2-21.6-16.4-35.5-36.2-42.3C33.5,42.2,33.5,42,33.5,41.7z"/>
	<path d="M595.2,624.6c-18,5.5-33.7,19.9-35.6,39.4c-0.1,0.9,0.2,1.9-1,2.6c-1-0.9-0.9-2.2-1-3.3c-2.1-19.3-17.7-33.1-35.4-38.8
		c0.3-1.4,1.3-1.3,2-1.5c18.1-6,31.5-22.2,33.9-41.1c1.5,0.4,1.3,1.4,1.4,2.1c2.7,19.2,17.5,34,35.6,39.8
		C595.3,624.1,595.3,624.3,595.2,624.6z"/>
	<path d="M1.3,600.7c15.9-7.9,20.5-11.9,26.3-30.4c3.6,15.8,11.5,24.7,26.6,30.4c-14.3,4.9-24.8,14.9-26.3,30.4c-0.2,0-0.5,0-0.7,0
		C25,614.6,15.8,606.7,1.3,600.7z"/>
	<path d="M290.4,19.2c1.7,14.2,12.2,25.9,25.8,29.8c0,0.3-0.1,0.5-0.1,0.8c-13.8,4.4-24.6,15.3-25.8,30.2c-1.5-0.6-1.2-1.7-1.3-2.6
		c-1.6-13.7-12.7-23.5-25.3-27.5c0.4-1.4,1.5-1.4,2.3-1.7c12.7-4.4,21.6-15.8,23.4-29C289.7,19.3,290,19.2,290.4,19.2z"/>
	<path d="M529.6,239.2c-15.2,5.1-23.3,14.5-26.1,30.1c-1.3-1.7-1-3.7-1.6-5.5c-0.7-2-1.2-4-2-5.9c-4.2-9.4-13.2-15.3-22.7-18.7
		c0.4-1.3,1.4-1.3,2.1-1.5c8.2-3.1,14.8-8.2,19.2-15.8c2.1-3.6,3.3-7.4,4-11.4c0.3-0.9,0.1-1.5,1.2-1.9c3,15.2,11.3,24.7,25.8,30
		C529.5,238.7,529.5,239,529.6,239.2z"/>
	<path d="M100.7,669.3c0.4-1.5,1.6-1.4,2.4-1.7c9.3-3.5,15.7-11.3,17.5-21.1c0.2-0.5,0.4-1,0.9-2c2.8,12.8,9.1,19.6,21.1,24.5
		c-10.1,3.4-19.1,10.8-20.4,21.9c-0.1,0.6-0.3,1.2-1,1.9C117.8,679.5,114.1,674.2,100.7,669.3z"/>
	<path class="st0" d="M44.1,218.2c10.4-7.6,12.2-16.4,9-25.2c11.6-2,19.7-12,23.3-22.7c60.3-51.9,163.6-88.6,232.6-32.5
		c7,6.1,12.7,13.2,16.2,21.8c7.1,14.8,3.8,47.6-18.8,41.7c-2.9-0.9-5.9-2.1-8.5-3.7c-9.8-5.8-20.2-10.4-30.5-15.4
		c-6-2.5-0.1-14.6-16.9-27.8c-0.6,0.8-1,1.3-1.5,1.8c16.9,11.7,18.8,39.9,0.8,51.5c-9.5,7-21.2,9.1-32.7,10.5
		c-14.6,1.7-28.9-4.4-40.4-13c-1-0.9-3.3-2.3-3.1,0.1c3.4,5.1-3,17.2-5.1,22.5c-12.8,26.2-46.5,24.6-70.6,17.9
		c-5.3-1.9-2.2,3.4-1.8,6c2.1,9.6,3.6,20.6-1.7,29.5c-4,6.2-9.8,8.6-17,8.3c-0.6,0-1.6,0.1-1.8,0.4c7.1,17.7,18.3,34.5,21.9,53.8
		c4.6,23.2-7.6,15.6-4,21.1c1.8,2.8,3.8,5.6,5.3,8.6c3.3,7.6,5.2,16-6.1,9.2c-3.4-2.5-6.6-5.3-9.7-8.1c-3.7-3.4-9.1,0.7-12.4,3.3
		c-4.5-7.2-8.6-14.4-12.6-21.6c0.1-0.1,0.3-0.2,0.4-0.3c5.2,4.1,13.4,6.1,9.5-3.6c-11.1-21-19.5-42.8-23.3-66.4
		c-2.4-13.7-3.1-27.4-2-41.3C44.8,236,46,227.2,44.1,218.2z"/>
	<path class="st0" d="M265.1,183.6c2.4,1.2,4.5,2.2,7.1,3.4c-9.2,1.6-4.7,11.7,2.8,12.1c5.6,0.7,11.2,1.2,16.7,2.2
		c3,0.7,3,0.7,5.3-1.2c2.9,1.1,5.8,2.3,8.7,3.4c1.9,1.1,3,3.9,4.1,5.3c-1.1,5.2-2.2,10-3.2,15c-8-5.6-17.4-9-27-5.2
		c-12.8,6.6-21.2,20.3-20.3,34.9c1.4,17.3,6.9,34.3,20.7,45.6c4.3,3.9,9.5,4.1,14.9,3.3c10.6-1.8,19-9.6,26.1-17.2
		c8.9-9.1,3.7-20.4,0-30.7c0.4-1,0.9-2.3,1.2-3.5c0.3-1.2,1.2-1.3,2.6-1.3c7,12.7,12.7,26.4,16.6,40.4c0.4,1.2,0.2,2.1-0.9,2.9
		c-29,22.1-45.9,56.9-53.2,92c-3.9,1-7.8,1.7-11,5.3c0.6,0.5,1.1,1,1.7,1.6c2.8-2.2,5.5-3.5,8.8-3.8c0.4,4.3,0.8,8.4,1.2,12.8
		c-7.1,3-14.8,4.8-22,7.4c-1.3,0.4-2.4,0.3-3.6-0.5c-18.1-13-47.8-1.3-48.2,22.1c-2.8,1.6-5.9,2.2-9.1,2.8c-30,5.1-61,0.5-86.4-17.1
		c-7.9,13.7-24.2,13.8-37.5,9c-18.1-5.8-23.8-31.2-9.6-44c2.5-2.3,7.1-6.9,10.4-3.9c4.7,4.7,10,9.5,16.8,10.6
		c7.6,0.9,5-9.6,2.8-13.6c-1.7-3.3-3.6-6.5-5.5-9.8c15.8-10.8-10.6-58-17.1-71.6c23.4-1.9,23.6-26.3,18.8-44.1
		c36.3,9.8,73.7,3.5,79.3-39.8c13.3,9.1,29.2,14.6,45.4,11.4C242.7,217.4,264.2,206.6,265.1,183.6z M136.2,346.3
		c24.2,46.9,108.6,5.8,88.8-42.5c-12.5-33-43.3-43-74.1-27c-14.9,6.8-22.3,22.2-27.7,36.8c-7.1-1.2-13.9-4.6-21.1-4.6
		c-3.4,0.4-4.9,4.4-2.6,6.9c1.2,1.3,2.7,2.4,4.3,3.3c5.9,3.2,12.7,2.5,19.2,3.3c0.2,1.3,0.3,2.3,0.5,3.5c-5.8,0.5-11.4,0.6-17.2,0.8
		c-3.4,0.1-8.8,2.8-6.6,6.8c3.6,8.1,19,4.6,25.8,2.5c0.3-0.1,0.8,0.2,1.7,0.4c-4.2,2.1-8.6,2.6-13,4.2c-3.9,0.7-6.8,5.7-2.1,7.6
		c6.4,2.1,13.2-1.2,18.6-4.2C132.6,344.9,134.2,345.5,136.2,346.3z M112.4,294.2c0.1,0.5,0.1,1.4,0.4,2.3c0.5,2.3,3.9,2.7,5.1,0.7
		c2-3.8,3.7-7.8,5.6-11.7c3.1-6.7,7-12.9,12.2-18.2c4.2-3.6,9.2-14.2,0.1-14.6C120.8,254,113.2,281.5,112.4,294.2z M280.8,356.3
		c-16.2,13.6-28.5,14-46.4,3.2C248.2,373.7,269.2,373.3,280.8,356.3z M97,414.8c4.2,2.9,8.2-0.4,9-4.7c0.7-2.2,0.2-3.4-1.7-4.6
		c-4.3-2.8-7.6-1.3-9.8-7.1c-1.8-5.5-5.1-12-11.9-10.2c-3.7,0.8-9.7,4.6-10,8.5c0.2,0.1,0.4,0.1,0.5,0.2c4-5.6,13.4-11.7,17.8-3.3
		c1.2,2.4,2.1,4.9,3.3,7.3c1.6,3.9,6.1,3.9,9.3,5.9c1.1,0.6,1.4,1.6,1.1,2.9C103.8,414.6,101.2,414,97,414.8z M273.5,314.4
		c-9.2-6.8-21.6,1.6-19.4,12.6C257.1,316.8,263,312.6,273.5,314.4z"/>
	<path class="st0" d="M291.6,406c14.1-4.3,27.7-2.8,41.2,1.9c0.4-0.7,0.6-1.3,1.1-2.2c-13.7-5.4-29-6.6-43.1-2.2
		c-1.9-3.5-2.8-10.6-2-15.8c18.7-1.9,37.3,3.9,55.2,8.5c0.2-0.8,0.4-1.4,0.8-2.4c-18.3-5.1-36.5-9.9-55.9-9
		c7.3-35.3,27.2-78.5,61.1-94.8c42.4-17.6,138.1,26,175.1,50.6c21.8,12.5,28.8,40.2,25,63.7c-2.7,25.4-9.9,77.2-34.3,90
		c-30,12.1-64.1,3.5-93.4-6.7c-0.9-0.3-1.8-0.8-2.4-1.4c-3.1-3.2-6.7-5.4-10.6-7.3c-22.4-12.2-47.6-17.3-71-27
		C324.5,441.2,296.5,422.6,291.6,406z M475.2,343c-30,1-55.5,33.2-43.7,62.5c9.3,25.9,38.6,37.8,63.6,27
		C541.5,413.4,526.3,341.8,475.2,343z M315.8,339.9c-0.8,30.9,37.9,57,61.8,27.2c7.7-10.5,12.6-23.2,12.5-36.3
		C386.7,281.8,315.2,297,315.8,339.9z M366,402.4c-1.9,17.6,20.1,24.5,34.2,21.3c18-3.2,24.9-28,8-39.8
		c-11.9-8.7-37.6-12.5-42.2,5.7C365.3,393.7,365.7,398.1,366,402.4z M509,483.8c-18.2-22.4-44.4-36.1-70.1-48.2
		c-0.4,0.9-0.7,1.6-1,2.4c25.6,11.9,50.6,25.9,69.5,47.1C508,484.8,508.4,484.5,509,483.8z M441.9,451.7
		c17.3,9.3,31.9,20.8,40.4,38.9c0.8-0.3,1.4-0.6,2.3-1c-8.1-18.4-24-31.2-41.6-40.2C442.6,450.3,442.3,450.9,441.9,451.7z"/>
	<path class="st0" d="M389.4,566.2c-2.6,1.2-5,2.2-7.6,3.3c7.3,19.1,11.7,39.8,24.4,56.3c7.5,11.1,16.6,21.4,22.9,33.2
		c7.9,15.9-14.4,31.5-26.2,18c-16.8-17.7-29.4-38.8-36.7-62.1c-3-9.4-6.2-18.7-10.2-27.7c-1.1-3.3-1.7-6.8-3.2-10
		c-2.4-6-3.6-12.7-6.8-18.4c-11.1-13.8-13.9-31.8-12.1-49c0.9-5.8,0.7-11.4,0.2-17.3c7.7,2.4,15.2,4.8,23,7.2
		c-2.6,3.3-1.4,6.2,0.6,8.9c8.4,11.2,22.9,13.3,36,15.1c10.6,15.2,0.7,24.7,8.9,34.1c22.6,26.7,65.3,14.5,84.8-10
		c7.9-9.7,14.3-20.6,21.8-30.6c12.1-16.2,38.7-29.3,57.9-19.2c6.7,4.8,1.4,12.8-5.6,12.7c-11.6,0.4-19.6-2.2-29.8,5.5
		c-11.5,7.8-17.4,20.9-25,32c-16.6,26.3-45.5,39.9-76.2,38.9C414.3,587.3,400.5,577.2,389.4,566.2z"/>
	<path class="st0" d="M169.8,791.6c1.6-32.2,8.9-62.6,24.6-91.1c18,26.8,50.4,37.3,81.3,29.6c-2.8,12.4-5.7,24.5-8.6,36.9
		c-14.4-1.1-28.5,2-42.3,5.9c0.3,1.4,0.9,1.2,1.6,1c10.5-2.6,21-5,31.8-5.5c3.5-0.2,6.8-0.1,10.2,0.9c15.1,2.8,30,10.2,33.9,26.4
		C276,813.4,201.4,797.6,169.8,791.6z"/>
	<path class="st0" d="M188.5,435.7c3.1,20.4,4.6,42.9-6.5,61.2c-9.7,17.6-41.5,23-46.9-0.6c-0.9-3.4-1.5-6.3-3.5-9.4
		c-11.1,9.4-27.6,15.3-40.5,5.9c-5.9-4.1-10.9-9-12.9-16.3c-4.6-16.3,6.2-31.7,16.6-43.2c8.7-8.3,13.4-3.1,24.4-15.8
		C140.2,430.8,163.1,437.5,188.5,435.7z"/>
	<path class="st0" d="M360,705.1c2.7,25.4,8.2,49.5,10.1,74.9c0.7,8.2-8.4,11.1-14.8,12.9c-15.7,3.9-32.1,3.9-48.1,3.2
		c-1.3-0.1-2.2-0.2-2.7-1.7c-4.1-12.8-13-20.6-25.5-24.8c-0.7-1.3,0.1-2,1.1-2.4c15.2-8,30.1-7.6,46.6-5.4c-0.1-1.4-1-1.3-1.7-1.4
		c-15.5-2.9-31.6-1.8-45.9,5.4c1-16.7,0.6-34.1,4.3-50.4c0.9-3.4,1-6.6-0.3-9.9c-0.3-0.8-0.3-1.8-0.2-2.8
		C305.9,718.8,335.7,718.3,360,705.1z"/>
	<path class="st0" d="M238.5,588.9c26.5-2.4,29.1,10.7,60.8,3.7c-3.1,25.7-6.9,51.4-9.1,77.2c-0.4,2.3-1.8,3.9-3.9,4.4
		c-17.1,4.3-34.9-2.9-50-10.5c-4.9-2.6-9.7-6.1-11.7-11.5c-0.6-1.5-0.3-3,0.7-4.4C230.9,628.6,233.8,608.5,238.5,588.9z"/>
	<path class="st0" d="M348.2,583.5c0.9,19.3,0.9,38.5,1.5,57.8c0.1,1.6-0.3,2.8-1.2,4.1c-12.3,18.3-38.4,12.3-55.2,4.2
		c2.6-19.1,5.1-38.3,7.7-57.4c4.8-1.6,9.5-2.6,14.1-4.5c4.1-2,8.5-2.7,13-2.9C334.9,584.5,341.5,583.5,348.2,583.5z"/>
	<path class="st0" d="M331.9,523.7c0.9,13,4.4,24.4,12,34.9c-8.9,1.2-17.6,1.2-26.5,2.3c-8.9,1.3-17.7,3.9-26.5,5.9
		c-9.3,2.1-18.5-1.3-27.6-2.9c-12.6-2.5-25.8-1.6-38.3-4.4c0.1-3-0.1-3.4-2.8-3.9c-1.6-0.3-3.2-0.5-5.2-0.8c7-9.1,14.1-18,19.8-28
		c26.4,3.5,53.1,5.6,79.1,11.6c1.4,0.3,2.2,0.1,3.1-1C323.5,532.8,327.3,528.3,331.9,523.7z"/>
	<path class="st0" d="M196.8,574.3c5.3-5.9,11.2-10.7,16.7-16.3c2.5-2.7,6.4-0.8,9.3-0.7c0.8,3.2,2.2,4.4,5.4,4.7
		c7.2,0.7,14.4,1.3,21.7,1.8c12,0.3,23.2,5.2,35.2,5.2c9.8-0.5,19-4.4,28.6-6c5-0.9,10.1-1.2,15.2-1.6c4.4-0.4,8.8-0.6,13.2-0.8
		c1.5,0,3.6-0.3,4.1,1.6c1.8,5.6,3.8,11.1,5.6,16.7c0.4,1.3,0.1,2-1.2,2.3c-10.4,2.3-21.5,0.7-31.8,3.5c-17.4,7-37,12-55.4,5.2
		c-10.3-4.4-21.7-1.7-32.5-3.5c-5.4-0.5-10.8-1.3-16.2-1.9c-1.3-0.2-3.9-0.4-3.2-2.3c0.7-1.6-0.3-2.1-1.5-2.6
		C205.4,577.8,201.1,576.7,196.8,574.3z"/>
	<path class="st0" d="M363.7,462.9c-5,3.7-5.6,8.9-1.4,13.2c2.1,2.3,5.2,3.3,7.6,5.4c-4.5-1.1-10.8-2.7-15-0.5
		c-3.6,1.8-4.7,6.3-2.4,9.7c2.5,3.6,6.2,5.4,10,7.5c-1.5,1-2.9,0.8-4.4,0.4c-10.8-3.4-21.5-6.8-32.3-10.2
		c-11.6-3.5-23.2-7.2-34.4-12c-7.7-3.1-15.3-6.4-23-9.5c-4.4-1.5-3.1-7.1-2.8-10.6c2.1-9.3,7.4-19.4,17.2-22.3
		c1.5-0.5,2.8-0.4,4.2,0.3c3.6,1.9,7.3,3.5,10.9,5.4C319.2,448.8,342.1,453.9,363.7,462.9z"/>
	<path class="st0" d="M376.5,503.3c0-1.6-0.9-1.7-1.6-1.9c-3.1-1.2-6.2-2.2-9.2-3.5c-4.2-2.3-9.3-4-12.1-8.1c-3-4.3,1.5-8.9,6.1-8.5
		c6,0.2,11.6,2.2,17.3,4c3.1,1.4,4-1.4,0.9-2.3c-5.6-3-13.3-4.4-16.3-10.6c-3.3-8.3,5.8-9.3,11.6-6.9c14.1,4.8,28.1,10.3,41,17.8
		c17,10.1,7.3,37.4-12.3,38.2c-10.7,1.3-21.7-0.4-31.6-4.8c-7.5-2.3-22.4-18.2-5.2-16.3C369,501.3,372.5,502.8,376.5,503.3z"/>
	<path class="st0" d="M383.8,570.4c1.9-0.8,3.6-1.5,5.3-2.3c9.6,9.7,21,17.4,34.6,20.1c1.2,0.4,2.5,0.8,3.4,1.6
		c7.4,5.8,15.3,10.7,24.3,13.6c4.3,1.4,8.6,3.2,12.5,5.7c19,13.3-0.9,41.7-25.9,25.1c-15.7-10.4-34.6-19.4-43.9-36.5
		C390.1,588.7,386.9,579.6,383.8,570.4z"/>
	<path class="st0" d="M252.1,461.7c-12.7,1.3-27.3-3.3-33-15.4c-4.8-13.3-5.7-28.6,8-37c14.1-10,39.3-5.6,43.6,12.8
		c0.4,2.7,0.5,2.7-1.8,4.1C255.8,433.5,250.2,447.3,252.1,461.7z"/>
	<path class="st0" d="M331.6,494.3c1.4,3.5,1.6,6.1,1.4,8.9c-1,4.7-0.3,17.2-2.8,20c-3.9,4.2-7.7,8.3-11.5,12.6
		c-0.9,1-1.8,1.3-3.1,1c-25.4-6.3-51.7-7.8-77.5-11.5c1-6.9,4.8-12.9,5.6-20c22.4,3.7,45.1,6.7,67.6,9.7c1.7,0.3,2.9-0.2,4-1.5
		C320.6,506.9,326.5,501.1,331.6,494.3z"/>
	<path class="st0" d="M283.4,692.9c-1.1,3.7-2.7,6.6-3,10.1c0.1,4-1.9,7-4.3,10c-1.1,1.4-2.7,1.8-4.4,2.1
		c-23,4.1-45.6-5.4-61.8-21.6c-2.7-2.8-6.6-5.8-5.1-10.2c0.7-2.1,1.1-4.9,3.3-5.7c2.5-0.8,3.8-6.3,5.3-8.6
		c5,13.6,19.2,19.5,31.9,23.9C257.8,697,271.5,699,283.4,692.9z"/>
	<path class="st0" d="M52.1,147c12.5-0.1,21.2,10,22.3,21.8c-0.2,6.7-5.4,12.3-9.8,17c-3.1,3-6.8,4.6-11,5.4
		c-4.5,0.6-6.1-6.4-15.9-4.9c-4.1,0.3-8.7-11.9-8.9-15.5C27.2,157.8,40,147.3,52.1,147z"/>
	<path class="st0" d="M43.5,228.1c0.1,9.4-2.5,18-8.1,25.7c-3.7,6.2-16.3,2-21.5-0.6c-16.1-7.7-15.1-33.1,1.7-39.3
		c3.9-1.7,8.1-2.3,12.3-2.9C38.5,211.9,44.5,217.1,43.5,228.1z"/>
	<path class="st0" d="M326.3,490.7c-19.6,1.8-39.3,3.4-58.9,5c-11.1,0.9-25.9-0.5-29.5-13.2c-0.6-1.8-0.6-3.5,0.5-5.2
		c1.8-2.8,2.8-7.1,6.8-7.4c11.9-1.5,20.5-3.8,31.5,1.9c16.1,7.4,32.8,13,49.6,18.4C326.4,490.4,326.3,490.6,326.3,490.7z"/>
	<path class="st0" d="M222.7,650.1c1.1,17.7,54,33.7,67.2,24c-1.3,4.9-3.1,8.9-4.6,13.6c-0.5,1.5-1.4,2.5-2.6,3.4
		c-16.3,9.8-40,0.6-55.1-8.1c-6.2-4.3-15.2-11.5-11.3-20C218.7,658.7,220.3,654.7,222.7,650.1z"/>
	<path class="st0" d="M204.2,680.2c-1.3,3.9-1.8,7.9,1.5,11.1c5.7,6.1,11.9,11.5,19.1,15.8c14.1,8.8,30.7,12.2,47.2,9.6
		c5.1-0.3,7-4.8,9.6-8.5c0.6,1.8,0.6,3.5,0.2,5.3c-1.4,4.2-2.4,13.5-6.7,15.3c-30,7.3-58.7-1.5-77.4-26.5c-2.2-2.9-2.5-5.7-1.1-8.9
		c2.2-4.6,3.2-10.1,7.3-13.4C203.8,680,204,680.1,204.2,680.2z"/>
	<path class="st0" d="M292.1,671.7c0.4-6.7,0.8-13.3,1.1-20.3c18.5,8.2,46.2,13.8,58.1-7.4c0.5,1.4,1,2.4,1.1,3.5
		c0.6,6.7,0.8,13.4,1.2,20.2c0.2,1.5-0.4,2.4-1.6,3.3C334.7,684.2,310.5,681.4,292.1,671.7z"/>
	<path class="st0" d="M303,797.6c0.7,3,2.4,9-0.1,11.1c-22.1,10.1-54.4,4.5-78.2,2.8c-17.7-2.2-36.2-2.1-52.9-8.9
		c-1.2-0.6-1.9-1.5-1.8-3.1c0.1-2,0-3.9,0-6.2C204.8,799.3,271.9,814.6,303,797.6z"/>
	<path class="st0" d="M358.5,681.2c3.3,5.6,2.3,11.8,2.4,17.9c0,2.7-1,4.6-3.7,5.8c-23.1,11.6-52.9,12.2-73.7-4.5
		c1.1-3.8,2.3-7.4,3.8-11.3c19.8,10.9,43.4,12.5,64.3,3.8c5.2-1.9,6.8-6.2,6.6-11.3C358.1,681.5,358.2,681.5,358.5,681.2z"/>
	<path class="st0" d="M243.2,503.3c0.1-3.5,0.3-6.7,0.4-9.9c7.8,3.7,15.9,4.6,24.3,3.8c21.3-1.6,42.5-4.2,63.7-5.2
		c-5.3,7-11.5,13.1-17.2,19.9c-1.1,1.3-2.1,1.7-3.8,1.4C288.3,509.9,265.5,508,243.2,503.3z"/>
	<path class="st0" d="M263.8,247.3c2.9-18.8,23-25.1,36.4-15c12.8,9.5,22.1,24.3,24.2,40.1c0.5,9.9-10,17.6-17.5,23.2
		C325.3,266.6,295.6,226.4,263.8,247.3z"/>
	<path class="st0" d="M292.5,673.8c19.4,9.2,43.3,11.6,61.2-2.1c0.2,7.1,4.9,6.6,2,15.7c-0.5,1.6-1.9,2.6-3.4,3.4
		c-20.5,9.5-45,8-64.5-3.3C289.3,683.1,290.9,678.6,292.5,673.8z"/>
	<path class="st0" d="M40.6,248.9c-1.3,35,7.3,69.8,24,100.5c0.8,2.2,5.3,9.7,0.1,8.6c-5-1.8-9.2-5.7-11.7-10.4
		c-6.8-14.1-14.9-27.9-17.2-43.6c-2.7-14.5-3.9-29.1-2.8-43.8c0.1-1.3,0.6-2.1,1.5-3.1C36.9,254.4,38.4,251.7,40.6,248.9z"/>
	<path class="st0" d="M265.3,410.2c7.9-2.6,15.5-5.1,22.9-7.5c0.9,0.9,0.7,1.5-0.2,1.9c-2.3,1-4.2,1.8-6.4,3.2
		c0.4,0.8,0.8,1.4,1.2,2.1c2.4-1.1,4.7-2.1,7-3.2c5.4,13.4,17.4,22.3,28.1,31.4c4.8,4.3,10.8,7.4,15,12.2
		c-14.7-4.8-29.6-8.9-43.2-16.3c-1.9-0.9-3.6-1.7-4.8-3.7c-3-3.4-8-3.8-12.4-5.6C272.4,419.1,269.9,414.4,265.3,410.2z"/>
	<path class="st0" d="M260.9,251.9c-0.9-11.4,5.4-21.1,13.6-28.3c9.9-9.3,24.1-4.5,33.3,3.2c1-4.8,1.6-9.3,2.5-14.1
		c0.3-1.3,0.7-2.9,2.4-2.9c1.7,0,2.4,1.5,3,2.9c2.3,6.5-1.8,12.8-4.5,18.5c1.1,1.3,2.2,2.6,3.4,4.1c3.3-3.4,4-7.4,6.3-11.1
		c0.8-1.2,2.1-1.8,3.6-1.4c3.5,1.3,2.5,8.1,0.5,10.4c-2.5,2.9-5,5.7-8.1,8.1c0.8,1.3,1.5,2.5,2.3,4c3.2-2.5,5.7-4.9,8.8-7.1
		c4.5-1.8,3.7,5.2,1,6.7c-2.6,1.7-5.2,3.3-8.3,4.2c-0.2,1.2-0.4,2.4-0.7,3.9c-7.5-9.5-13.5-21.1-25.7-25.3
		C277.3,220.8,262.6,235.1,260.9,251.9z"/>
	<path class="st0" d="M262.2,259.6c0.5-3.7-0.7-7.9,2.4-10.5c15.6-13.2,39.9-3,44.6,16c5.4,15.4-1.4,39.8-22,36
		c-2.8-0.3-5.3-1.7-7.5-4.3c22.6,2.5,34.3-24.8,17.7-39.5c-9.1-8.8-25-9.2-33.3,1.1C263.4,258.8,263.3,259.7,262.2,259.6z"/>
	<path class="st0" d="M537.1,347.9c9.7-0.6,18.5-1.3,27.4-0.2c4.3,0.6,5.3,1.9,4.8,6.2c-1.8,11.2-9.1,21.1-17.1,28.8
		C550.3,369.8,546,358.1,537.1,347.9z"/>
	<path class="st0" d="M370.4,787.2c-0.5,3.4,0.6,7.6-2.3,10.1c-14.8,11.5-43.4,10.3-61.6,9.4c-0.3-3-0.6-5.9-0.9-9.1
		c17,0.2,51.8,1.9,64.2-10.7C370,787,370.2,787.1,370.4,787.2z"/>
	<path class="st0" d="M552.9,392.3c-0.2-2.4-0.5-4.4-0.4-6.3c2.8-5.8,8.3-10.3,11.7-15.8c2.9-4,5.1-8.5,6-13.4
		c0.2-3.3,1.7-9.2-2.8-10c-9.7-2-19.6-0.5-29.4-0.4c-3.5,0.4-5-2.9-7.7-4.7c13.8-3.4,33.6-6.3,46.3,1.5
		C588.2,350.2,559,385.5,552.9,392.3z"/>
	<path class="st0" d="M43.2,216.6c-4.5-4.3-9.7-7.1-15.8-7.2c-4.9-8.2,0.4-18.8,9.9-21.4C56,185.2,58.1,208.5,43.2,216.6z"/>
	<path class="st0" d="M264,465.1c-3.4-1.1-6.2-2.1-9.1-3c-1-0.3-1.1-1.2-1.2-2c-2.4-13.4,4.7-26.5,16.5-32.8
		c0.7-0.4,1.7-0.8,2.4-0.6c4.3,1.6,8.4,1.9,11.9,5.2C270,435.5,262.2,450.7,264,465.1z"/>
	<path class="st0" d="M308.9,204.6c3.3-0.5,6.3-0.9,9.5-1.3c6.8,6.6,14.4,22.6,13.8,33.7c-0.2,0-0.5,0.1-0.6,0
		c-3.4-2.1-5.9,1.2-8.3,3.2c-1-1-0.5-1.7,0.1-2.4c1.1-1.2,2.2-2.5,3.1-3.8c2.4-3.3,3.4-11.1-1.3-12.7c-3.8-1.3-5.7,2.6-7.6,5.3
		c-3.2-3.2,3-9.5-0.9-15.6C313.5,205.8,312.1,211.1,308.9,204.6z"/>
	<path class="st0" d="M380.3,283.8c-1.6,0-2.9,0.1-4.3-0.1c-2.5-1.1-3.3-5.1-4.9-7.2c-5.5-10.7-9.7-8.7-13.7,1.5
		c-1.7,2.9-0.6,9.5-5,9.1c1-7.2,3.4-14.6,8-20.4c4.7-6.4,10,1.1,13,5.1C375.8,275.8,378.6,279.5,380.3,283.8z"/>
	<path class="st0" d="M279,729.7c-0.8,13-1.6,25.9-2.5,39.2c-2.4-0.6-4.6-1.1-7.1-1.7c2.9-12.6,5.9-25.2,8.8-37.7
		C278.4,729.6,278.7,729.6,279,729.7z"/>
	<path class="st0" d="M295.2,199.8c-0.8,0.1-1.6,0.4-2.3,0.2c-6-1.5-12-1.9-18.1-2.5c-2.8-0.3-4.9-1.7-5.9-4.3c-2-5.1,6-5.3,9-3.5
		c5.7,3.3,11.9,5.8,17.4,9.3C295.3,199.3,295.3,199.6,295.2,199.8z"/>
	<path class="st0" d="M292.7,261c-0.2,8.8-13.3,8.9-13.5,0C279.1,252.1,292.7,252.1,292.7,261z"/>
	<path class="st0" d="M373.1,283.6c-5.5,0.7-10.6,1.3-16.1,2c0.9-5,2.1-9.7,5.4-13.7C366.3,267.2,371.5,280.9,373.1,283.6z"/>
	<path class="st0" d="M262.6,466.7c-7.3,0.8-14.6,0.2-21.7,3.4c-0.2-2.3-0.4-4.6-0.6-6.8C248,463.3,255.5,462.4,262.6,466.7z"/>
	<path class="st0" d="M332,244.5c-0.5,3.5-1.2,6.6-2.6,10.1c-1.3-2.1-2.4-3.8-3.5-5.5C327.9,247.6,329.8,246.2,332,244.5z"/>
	<path class="st0" d="M314.7,232.8c-0.5-0.6-1-1.1-1.5-1.8c0.7-1.4,1.4-2.7,2.1-4.1C317.5,229.2,316.9,230.5,314.7,232.8z"/>
	<path class="st0" d="M319.7,242.9c-0.4-1.6-0.4-1.6,1.4-2.6C321.8,241.8,320.8,242.2,319.7,242.9z"/>
	<path class="st0" d="M70.1,5.6c4.6,18.2,16.1,29.5,32.9,36.6C86.7,48.3,74,60,70.2,77.4c-4.9-17.5-16.5-28.5-32.9-35.3
		C53.7,35.6,65.6,23,70.1,5.6z"/>
	<path class="st0" d="M525.8,624.2c16.9-7,28.2-18.4,32.9-36.1c4.7,17.7,16.2,29.1,33,36c-16.6,6.6-28.4,17.2-33,34.9
		C554.2,641.5,542.5,630.8,525.8,624.2z"/>
	<path class="st0" d="M50.4,600.7c-11.4,4.8-19.3,12-22.8,24.2c-3.6-12.1-11.4-19.5-22.3-23.9c11.7-7,17.8-11.3,22.4-25.2
		C31.1,587.9,38.8,595.6,50.4,600.7z"/>
	<path class="st0" d="M267,49.5c11.5-5,19.2-12.7,22.8-24.5c3.6,11.8,11.4,19.6,22.8,24.5c-11.3,4.7-19.4,12-22.8,24.3
		C286.4,61.5,278.4,54.2,267,49.5z"/>
	<path class="st0" d="M503.4,214.3c3.5,11.5,11.6,19.9,22.8,24.5c-11.3,4.7-19.3,12-22.8,24.3c-3.5-12.3-11.5-19.6-22.8-24.3
		C492,233.9,499.8,226,503.4,214.3z"/>
	<path class="st0" d="M104.1,668.9c8.6-3.9,14.5-9.8,17.4-19c3,9.3,8.8,15.2,17.5,19c-8.5,3.7-14.6,9.2-17.4,18.4
		C118.6,678.1,112.5,672.6,104.1,668.9z"/>
	<path class="st0" d="M132.7,321.7c-1.1-34.2,41.1-56.5,69.9-40.7c36.4,19.5,28.1,65.5-8.4,79.4
		C162.3,374.6,131.9,358.5,132.7,321.7z M180,286.2c-47.8,0.9-47.8,71.5,0.1,72.3C228,357.7,227.9,287,180,286.2z"/>
	<path class="st0" d="M124.3,315.4c5.2-14.8,12.5-30.5,27.6-37.3c18-9.1,43.4-11.8,57.6,5.3c-22.2-16.5-55-9.1-70.7,13.1
		c-10.1,13.9-8.8,32-3.6,47.5c-1.9,0.5-2.6-1.3-4.1-1.9c-4.3,2.6-9,5-14.1,5.4c-2.5,0.5-8.1-1-4.8-4.2c5.4-2.9,11.5-3.3,17.1-5.7
		c-1.1-1.5-1.9-2.7-2.8-4c-3.9,2.5-8,2.6-12.1,3.1c-4.5,0.7-10.8,1.1-13.2-3.7c-0.7-1.4-0.6-2.1,0.7-3.1c1.5-1.2,3.3-1.7,5.3-1.8
		c6-0.2,11.9-0.3,17.9-0.8c0.2-2.3-0.2-4.2-0.9-6.4c-5.8-0.5-11.8-0.6-17.4-2.3c-2-0.7-3.8-2-5.5-3.2c-2.5-1.7-0.6-5.5,2.1-5.1
		C110.5,311.4,117.2,314.1,124.3,315.4z"/>
	<path class="st0" d="M114,292.7c1-11.1,8.3-37,21.6-38.4c3.1,0.1,4.5,1.8,3.4,4.8c-0.7,2-1.7,4.1-3.1,5.6c-8.1,8-13,17.9-17.6,28.1
		c-0.8,1.2-1.4,4.8-3.2,4.1C113.8,295.8,113.9,294.7,114,292.7z"/>
	<path class="st0" d="M430.6,396.7c36.9,30.6,81.3-23.1,41.4-51.5c60.9-6.1,67.6,86.8,5.7,89.8C454.7,435.9,434.1,419.3,430.6,396.7
		z"/>
	<path class="st0" d="M430.5,385.9c29.7,33.3,71.8-15.2,34.7-39.5c2-1.3,3.9-1.2,6,0.1c22.3,12.9,18.4,48.6-6.5,55.8
		c-11.8,4.1-22.6,1.6-32.1-6.5C429.2,393.1,430.1,389.8,430.5,385.9z"/>
	<path class="st0" d="M469.3,375.2c-8.2,0-8.1-12.5,0.1-12.4C477.8,363,477.6,375.1,469.3,375.2z"/>
	<path class="st0" d="M357.2,301.8c37.9-0.2,37.7,42.6,18.4,65.5c-16.6,20.3-45.4,10.7-54.3-10.1c12.7,3,25.9-4.1,33.4-14.5
		C362.5,331.6,371.7,311.2,357.2,301.8z"/>
	<path class="st0" d="M317.4,339.7c-0.2-18.1,14.1-32.4,30.8-37c10.4-2.9,16.6,7.8,14.8,16.8c-2.8,17.2-15,34.8-33.4,36.8
		c-3.8,0.2-9.5-0.2-10.4-4.9C318.1,347.6,317.5,343.7,317.4,339.7z M356.4,318.2c-1-4-0.6-9.7-5.3-11.2c-13.7-4.5-25,9.5-30,20.6
		c-7.2,14.5,2.8,28.7,17.3,19.5C347.9,340.4,356,330.3,356.4,318.2z"/>
	<path class="st0" d="M386,396.8c3.3-1.8,13.2-4.3,10.2-9.2c-1.3-2-3-3.6-5.3-4.3c-3.3-1.1-6.6-0.9-9.9,0.3
		c-6.7,2.6-0.4,10.4,3.4,13c-0.3,3.6-0.6,6.9-0.9,10.7c-5.1-0.7-15.5-1-16.1-7.3c-1.6-9.3,1-19.5,11.7-21
		c17.4-4.2,42.4,8.2,36.4,28.8c-0.3,2.7-6,3.2-8.3,4.4c-7,2.2-14.4-0.4-20.6-3.6c-0.9-0.5-1.6-0.9-1.5-2.1
		C385.5,403.2,385.8,400.1,386,396.8z"/>
	<path class="st0" d="M367.2,404c6.2,4.8,12.8,3.4,19.1,6.1c8.7,4.9,18,5.9,27.2,1.6c0.1,0.1,0.3,0.3,0.4,0.4
		C405.2,429.9,367.7,425.2,367.2,404z"/>
	<path class="st0" d="M386.6,383.8c3.2,0.3,6,1.3,7.9,4c1.1,1.5,1.1,2.1-0.3,3.3c-1.9,1.5-7.7,5-10,3.4c-2.1-1.5-3.5-3.6-4.3-6
		C378.4,384.5,384.1,384.6,386.6,383.8z"/>
	<path class="st0" d="M180.1,357.1c-45.9-0.8-45.9-68.5-0.1-69.3C225.8,288.4,226.1,356.2,180.1,357.1z M181.3,296.4
		c-35.1,0.3-35,53.3,0.1,53.3C216.7,349.1,216.6,297,181.3,296.4z"/>
	<path class="st0" d="M347.4,327.5c-8.3-0.1-8.3-11.6,0-11.8C355.4,316,355.6,327.2,347.4,327.5z"/>
	<path class="st0" d="M199,310.4c-0.1,12-18.5,11.9-18.4-0.2C180.9,298.1,198.9,298.3,199,310.4z"/>
</g>
</svg>
