<?xml version="1.0" encoding="utf-8"?>
<!-- Generator: Adobe Illustrator 26.0.0, SVG Export Plug-In . SVG Version: 6.00 Build 0)  -->
<svg version="1.1" id="Capa_1" xmlns="http://www.w3.org/2000/svg" xmlns:xlink="http://www.w3.org/1999/xlink" x="0px" y="0px"
	 viewBox="0 0 595.3 623.5" style="enable-background:new 0 0 595.3 623.5;" xml:space="preserve">
<style type="text/css">
	.st0{fill:#FFFFFF;}
</style>
<g>
	<path d="M390.1,380.9c-0.3,1.6-0.6,2.9-0.9,4.4c4.2,3.6,8,7.5,11.6,11.6c1.6,1.8,1.8,3.7,0.4,5.7c-2.4,3.4-4.6,6.9-7.2,10.3
		c14,9.6,19.5,26.4,22,42.5c1.8,9.6,1.8,19.6,5.3,28.8c11.8,29.9,24,59.5,35.7,89.4c1.5,3.2-0.6,5.5-2.6,8
		c8.9,1.7,17.5,3.6,25.1,8.9c2.9,1.2,6.1,2,9.2,2.9c3.2,0.4,6.6-0.1,9.9,0.1c1.8,0.1,3.4,0.7,4.7,2c2.2,1.5,5.2,0.6,7.6,1.5
		c7.7,2.6,4.6,14.6-2.9,15.5c-1.9,0.4-3.6,0.9-5.2,2.1c-5.3,3.8-17.5,0.6-24.2,0.9c-3.8,0-7.3,2.1-10.9,3c-0.7,0.2-1.4,0.6-1.8,1.1
		c-2.4,3.1-5.7,4-9.3,3.2c-3-0.6-5.8-2.6-8.9-2.8c-11,0.6-19.6-7.3-25.1-16c-2.9,0-8,2.6-9.4-0.8c-2.9-6.1-6-12-8.7-18.2
		c-12.4-29.5-24.7-59.6-29.7-91.3c-0.7-2.8-1.8-9.9-3.9-11.4c0.2,3.8,0.3,7.6,0.4,11.3c0,1.9,0.3,3.7,1.1,5.5c1.4,3,1.6,6.3,1.7,9.5
		c0.6,11-2.4,21.7-2,32.7c0.1,16.5-0.2,33,0.6,49.5c0.1,5.5-1.7,8.6-6.8,10.6c-3.4,1.3-6.3,2.9-9.1,5.3c-4.1,3.4-9.3,4.7-14.3,6.1
		c-13.4,4-26.8-3-36.1-12.3c-1.2-1.2-2.3-1.7-3.9-1.6c-9.6,0.7-19.2,1.1-28.8,2.1c-4.5,0.9-8.2,4.3-12.7,5.4
		c-10.3,3.4-21.2,5-31.9,6.6c-2.5,0.2-3.1,3.8-5.5,4.5c-2.3,1-4.8,1.9-7.3,2.3c-4.9,0.6-10.7,0.5-15.1-1.8c-1.6-1.4-3.3-1.2-5.1-1
		c-9.7,1.3-19.9,0.7-29.3,3.2c-3.9,1.6-7.7,2.3-11.9,0.7c-7.7,0.4-15.4,3-23.3,2.6c-15.7,0.6-28.7-6.2-41.8-13.7
		c-15.6-5.2-32.6-25-44-36.9C30.3,554.5,6,531.6,0.1,508.2c-0.4-3.4,0.3-6.4,2.9-8.8c3-2.5,5-6.4,8.7-8c9.8-4.1,19.7-6.9,30.4-5.7
		c8.9,0.8,17.2,3.4,25.2,7.3c1.1,0.5,2,0.6,3.3,0.3c1.4-0.3,2.9,0,4.9,0.1c21.8-15.3,44.2-31.1,66.1-46.5c3.1-2.7,4.4-1,7.2,1.3
		c46.9-42.4,84.9-27.1,107.1,27c0.5,1.3,1.2,2.3,2.3,3.2c4.1,3.2,7.7,6.5,11.9,9.6c2.1-7.7,3.7-15.3,5.6-23.1
		c3.4-9.8,7.7-19.3,11.5-28.9c2.7-5.9,5.5-7.6,5.8-14.8c-34.2,5-62.9,12.1-88.3-17.4c-8.1-6.4-15-13.6-19.9-22.6
		c-1.7-2.8-3.3-5.8-4.8-8.7c-0.5-1-1-1.5-2.3-1.5c-14.9,0.4-28-6.8-41.3-12.4c-2.8-1.3-5.5-2.8-7.1-5.6c-0.2-0.4-0.9-0.8-1.4-0.8
		c-6-0.5-6.9-9.5-2.3-12.5c1-0.7,2.1-1.2,3.4-1.8c-49.7-34.9-2-109.5,50.3-78.7c23,13.7,29.4,46.5,12.9,67.8c2.7,1.2,7,5,9.5,4.3
		c10.1-2.3,17.4,7.3,21.4,15.2c5.1,10.7,12.3,20.1,18.5,30.1c1,1.5,2.1,2,3.9,1.9c12.1-0.8,24.2-1.4,36.3-2.2
		c13.3-0.8,26.6-1.8,40-2.2c2.3-0.2,4.4-4.5,6.3-6.4c-35-13.2-71-35.8-81.4-74c-0.3-1-0.7-1.5-1.7-1.9
		c-12.1-4.3-19.2-14.4-19.4-27.3c-0.1-9.1,3.2-16.9,8.7-23.8c1.3-1.6,1.8-3,1.4-5.1c-4.8-29.1-0.5-58.5,8.3-86.4
		c0.6-2.1,0.8-4.7,0.5-7.5c-2.7,2.1-5.1,4.4-8,6.4c-3.7,2.7-5.6,0.6-7.6-2.9c-2.8,9.9-3.4,20-3.4,30.2c0,1.3-0.6,2.3-1.8,2.7
		c-1.9,0.8-3.2-1-4.2-2.3c-31.6-37-9.1-89.5,25-116.2c-2.2-16.7,12.2-29.8,23.9-39.5C304.3-7.1,354.6-4,394.1,13.5
		c-0.1-1.2-0.2-2.2-0.3-3.2c-0.2-2.4,2.5-4.1,4.3-2.1c7.8,6.5,16.7,11.1,26.2,14.5c29.8,10.9,59.3,25.5,81.2,49.1
		c1.9,2.1,5,3.2,7.6,4.6c0.3,0.2,1-0.1,1.4-0.3c21.4-9.2,39.4,10.8,55.7,21.8c4.4,2.8,8.6,6.9,14.2,6.5c0.8-0.1,1.7,0.1,2.4,0.3
		c4.8,1.2,3,6.5,1.2,9.5c-3.5,6.2-8.8,10.2-15.1,13.2c5.6,2.6,10.4,6.2,15,10.3c1.7,1.5,0.1,4-1.9,3.3c-5-1.1-9.7-2.5-14.9-2.5
		c1.1,3.4,1,6.7,2.7,9.6c31.9,44.7,24.5,105.3,3.2,152.9c-0.7,1.7-0.8,3,0,4.6c5.9,14.6-1.3,32.7-16.2,38.6
		c-6.5,2.9-13.3,4-20.4,3.2c-1.8-0.2-3.1,0.2-4.4,1.4c-7.8,7.3-19.4,13.8-30.1,9.3c-1.3-0.6-2,0-2.9,0.7
		C471,383.5,428.4,382.3,390.1,380.9z"/>
	<path class="st0" d="M338.2,125c-2.4,24.7,2.9,51.4,21.3,69.1c4.6,4.7,11.4-3.6,14.2-7.1c28.8-39.1,99.1-29.4,142.9-33.9
		c-5.6,5.5-9,11.6-11.3,18.4c8,8.7,25.3,9.6,36.4,10.4c-2.8,11.3-13.2,41.7-7.7,51.7c3.5-2.9,6.3-6.3,9.5-9.4
		c-4.3,25.7-10,51.3-12.1,77.3c-0.6,5.9-1.7,11.8-2.5,17.7c1.8,12.9,22.9-11.2,25.6-15.3c2.5-3.3,4.7-6.8,7.2-10.3
		c10.1,4.9,16.5,14.9,14.5,26.2c-2.2,25.5-37,33.5-54.5,17.1c-27.4,38-76.1,44.2-119.8,42.3c-68.1-1.5-164.5-37.5-156.1-120
		c5.4-40.5,9.3-91.5,38.5-122.2C297.9,125.7,321.4,124.9,338.2,125z M451.4,302.4c22,0.8,41.8-10.5,45.2-32.9
		c0.7-2.7,2.9-3.6,3.3-6.8c9.7-39.4-33.3-66.3-68.5-56.2c-14.5,3.5-30.1,12-33.4,27.7C381.3,270.4,415.4,304,451.4,302.4z
		 M341.5,225.7c-1.7-49.5-61.4-64.1-76.6-13.2c-0.7,3.8-2.5,8.6-0.1,12.1c0.9,1,1,1.9,0.8,3.1c-1.2,7.9-1.3,15.9,0.7,23.7
		C281.7,296.2,345,269.1,341.5,225.7z M460.7,173.2c-10.9,0.3-12.3,12.8-0.2,12.6C474,186,485,193.7,493,204c2.1,3.6,8,3.9,7.8-1.2
		c-0.1-2.1-0.5-4.1-1.7-5.9C490.9,183.1,477.3,173.9,460.7,173.2z M310.3,160.3c9,0,4.8-11.5-1.9-11.5c-2.4-0.2-4.8-0.2-7.2,0.2
		c-9.6,1.5-16.7,6.9-22.2,14.7c-1,1.9-2.7,5.7-0.2,7.2C284.3,173.6,288.7,157.3,310.3,160.3z M343.5,307.7c0,0.1,0,0.2-0.1,0.2
		c14.4,6.3,32.7,9.5,47.1,1.5c-0.9-0.2-1.6,0.1-2.3,0.3C373.6,314.5,358.1,311.4,343.5,307.7z M374.8,276.8
		c1.3-19.1-32.3-22-35.1-3.7c4.3-9.3,13.4-11.8,22.9-9.6C369.4,265,373,270.2,374.8,276.8z"/>
	<path class="st0" d="M340.2,135.2C339,99.1,363,57.5,401.2,53.1c61.3-2.8,131.9,22.5,166.9,75c2.6,4.9,1.3,9-3.9,10.7
		c-6.5,2.2-13.1,4.2-19.8,6c-23.2,7.8-47.7,6.6-71.9,8.1c-36.2,1.8-79.6,2.3-102.6,35.1c-1.2,1.7-2.9,3.2-4.6,4.4
		c-2.1,1.5-3.2,1.2-5-0.7C345.4,176.7,340.1,155.7,340.2,135.2z"/>
	<path class="st0" d="M161.7,619.5c-1.2-1.6-1.4-3.2-1.4-4.8c0.3-12.4,2.2-24.6,3.4-36.9c0.8-7.2-0.3-14.1-2.6-20.8
		c-2.4-7.6-6.6-14.8-7.1-23c-0.6-8,5.2-11.3,12.5-10.2c3.9,1.5,7.9,0.8,11.8,0.7c21.6-0.7,43.3-1.5,64.9-2.2
		c5.9,0.3,11.5,3,17.2,4.6c22.5,12.4,21.9,44.1,13.5,65.3c-5.3,14.5-23.5,14-36.3,17.1c-22.6,3.8-45.4,5.7-68.2,7.6
		C166.9,617.4,164.3,618.7,161.7,619.5z"/>
	<path class="st0" d="M369.1,495.4c-28.1-10.2-56.2-20.5-84.6-30.8c14.6-28.2,46.8-37.6,75.7-44c9.8-2.1,19.7-3.9,29.5-5.8
		c1.6-0.3,2.9-0.1,4.2,0.8c19.6,14,19.6,40.5,23.3,62.1c7.9,24.9,19.7,48.4,28.6,73c-15.9,4.3-30.6,11.1-45.6,17.5
		c-9.7-23.8-18.9-48.3-23-73.8c-0.7-4.2-2.1-8.4-3.4-12.4c-2.3-6.1-7.4-10.8-10.6-16.5c0.1-10.1,5.1-20,12-27.6
		c6.2-6.9,14.7-10.3,22.8-13.7c-19.8,4-34.6,19.4-37.2,39.5c-0.3,1.2,0.1,2.2,1,3.2c2.1,2.7,5.6,5.3,6.6,8.5
		C368.6,482,369.5,488.8,369.1,495.4z M335.4,469c18.7,0.2,22.4-26.5,4.9-31.9C314.7,429.5,308.6,468,335.4,469z"/>
	<path class="st0" d="M257.6,158.2c-42.5-66.4,2.5-124.8,77.3-120.3c-1.2,2.3-6.4,6.4-4.6,8.7c0.7,1,1.8,0.6,2.8,0.4
		c2.9-0.5,5.9-1.2,8.8-1.5c14-1.1,28.1,2.1,39.1,10.9c-23.9,13.6-40.1,38.5-42.4,66c-26.2,0.6-59.1,2.2-75.2,26.1
		C261.5,151.9,259.7,154.9,257.6,158.2z"/>
	<path class="st0" d="M276.3,525.1c-4.8,0-9.2,0-13.6,0c-4.7-1-9.2-2.9-13.8-4c-10.7-1.8-21.7,0.1-32.5,0.1
		c-2.5,0.1-3.9-0.6-4.9-2.8c-4-8.5-8.1-16.3-11.8-25.1c-8.8,9-17.2,18.3-25.7,27.5c-1.6,1.8-3.1,2.2-5.2,1.3
		c-1.9-1.2-6.3-1.1-6.4-3.8c-0.5-6-1-12.1-1.5-18.1c0.7-3.7,3.3-5.5-1.5-7.6c-1.1-14.4-1.5-29.7-9.1-42.4
		c50.9-48.7,92.4-18,107.8,39.9c3.1,7.9,3.9,17.2,9.6,23.8C270.6,517.6,273.8,520.9,276.3,525.1z"/>
	<path class="st0" d="M110.2,298.3c0.7-53.5,77.8-59.4,87.8-8.8c5.2,22.7-8.6,44.1-29.4,52.8c-10.6,4.1-8.7-2.3-17-1.9
		c-3.1,0.2-4.3,2.6-7.5,1.4C124.2,336.9,110,318.8,110.2,298.3z M142.3,295.8c-0.1-9.7-13.9-9.7-14,0
		C128.1,305.5,142.4,305.6,142.3,295.8z M190.4,295.8c-0.9-5.2-5.3-9.6-10.5-6.3C169.2,299,187.7,311.5,190.4,295.8z M166,300.3
		c0-0.2-0.1-0.4-0.1-0.6c-3.5,1.1-6.2,2.2-9.8,0.5c-0.9-0.5-1.5-0.5-2.4-0.1C157,303.4,163.3,303.3,166,300.3z"/>
	<path class="st0" d="M153.1,618.6c-17.9,3.8-39.4,5.1-54.1-7.5c-10.5-11.4-16-24.6-14.4-40.2c1.8-34,38.1-48,67.7-49.2
		c0,0.4,0,0.6-0.1,0.6c-3.4,3-4.3,7-4.3,11.3c-0.1,8,2.1,15.8,4.9,23.2C160.1,576.9,151.4,597.8,153.1,618.6z"/>
	<path class="st0" d="M273.5,598.7c10.8-21.7,13.4-53.9-7.2-70.6c0.1-0.2,0.2-0.3,0.3-0.5c11-0.6,22.1,0.1,33.1,0.2
		c2.9,0.1,5.7,0.8,8.6,1.5c15.9,3.9,33.1,10.4,42.2,24.9c6.3,12,15.6,24.8,13.5,39c-3.9,16-28.5,22.8-41.9,15.6
		c-5.5-2.6-10.3-6.1-14.5-10.4c-1.2-1.2-2.5-1.8-4.2-1.7C293.4,597,283.4,598,273.5,598.7z"/>
	<path class="st0" d="M572.9,155.9c29,52.1,7.8,128.5-38.1,164c-2.1,1.8-4.3,0.9-3.3-2.1c3.8-32.5,8.5-64.9,15.1-97
		c5.9-11.8,13.3-23,15.2-36.5c0.7-3.9,1-7.9,1.4-11.9c0.1-1.1,0.2-2.1,1.1-2.9c3.8-3.6,6.6-7.9,8-13
		C572.3,156.4,572.6,156.2,572.9,155.9z"/>
	<path class="st0" d="M232.6,367.2c2.5,3.8,4.8,7,6.9,10.4c1.3,2.2,3,2.9,5.5,2.9c25.2-0.4,50.3-4.1,75.5-4.2
		c-0.1,0.4,0,0.7-0.1,0.8c-1.9,2.4-2,5-1.3,7.8c2.2,7.5,4.9,13.2,3.8,21.3c-0.1,1.1-0.9,1.3-1.7,1.6c-9.9,3.2-18.9,8.2-26.1,15.8
		c-0.3-1.7,0.3-2.9,1-4.1c5.1-9.3,12.2-18.3,10.5-29.6c-1,3.9-0.4,8-2.4,11.6c-1.9,3.6-8.4,16.9-11.8,17.6c-16,2.1-32,5.7-48.2,4.1
		c-21.7-1.4-32.7-16.5-48-29.6C212.8,392.3,229.7,385.3,232.6,367.2z"/>
	<path class="st0" d="M246.5,57.6C244.6,33.7,282,9.9,303,5.9c64.2-15.5,125.1,24.3,178.1,55.7c-35.8-18.7-74.9-39.2-116.6-35.4
		c-8.5,1.1-16.5,3.6-23.7,8.5c-1.1,0.8-2.2,1-3.5,1c-15.5-0.2-31.2,0.4-46.1,4.6C274.6,40.7,259.7,48,246.5,57.6z"/>
	<path class="st0" d="M89.9,534.4c-6.2-12.6-7.5-26.3-13.1-39.2c22.2-15.7,44.8-31.5,67.6-47.6c11.7,10.9,11,28.9,12.6,43.7
		c0.1,1.3-0.2,2.1-1.3,2.9c-12.3,9-24.6,18-37,27c-0.9,0.7-2.1,1-3.2,1.3C105.9,524.2,97.6,528.4,89.9,534.4z"/>
	<path class="st0" d="M278,465.3c30.2,9.9,59.8,21.6,89.8,32.1c1.8,0.6,2.7,1.7,3.2,3.4c2.4,9.4,0.9,19.5-0.6,28.9
		c-26.3-14.9-55.5-23.6-85-29.9c-1.4-0.3-2.6-0.8-3.7-1.8c-2.8-2.5-5.7-4.9-8.5-7.2c-0.9-0.7-1.2-1.4-0.9-2.6
		C274.3,480.6,275.5,472.8,278,465.3z"/>
	<path class="st0" d="M222.6,175.7c-41.8-45.9,4.8-119.9,57.6-131.2c-26.2,12.4-44.6,40.4-40.9,69.7c0.3,3.1,0,5.6-2.2,8.2
		c-11.9,14.7-13.9,34.8-13.9,53C222.9,175.5,222.8,175.6,222.6,175.7z"/>
	<path class="st0" d="M85.9,605.8c-8-4.4-14.8-10.5-21.3-16.9C43,566.7,20.4,544.3,5.4,517c-1.6-4.2-4.4-8.9-2.6-13.5
		c2.2-9,23,12.3,25.8,15.4c15.4,17.7,33.4,34.8,45.3,54.7c0.8,11.7,4.4,23.2,12.2,32C86,605.6,86,605.7,85.9,605.8z"/>
	<path class="st0" d="M444.1,615.2c1,0.6,2,1.2,3.3,2.1c-9.8,1.3-17.8-6.7-22.5-14.4c-1.4-2.4-1.2-4.2,0.9-6.1
		c7.4-6.3,14.6-13.6,24.3-16.4c0.3,1.1,0.7,2.2,1,3.3c6.4,0.2,12.6,1.7,18.5,4.1c3,1.2,5.8,2.9,8.6,4.4c3.1,1.5,6.5,2.3,9.8,3.3
		c3.2,0.6,6.4-0.1,9.6,0c4.6-0.1,4.4,3.1,7,3c1.4,0,2.8-0.1,4.2,0.1c8.3,1.1,4,13.1-3,11.8c0.9-4.1,1.1-9.5-4.1-10.5
		c-3.7-0.9-7.4-1.6-11.3-2c3.3,1.5,6.9,2.5,10.3,3.6c2,0.5,2.9,2,3.3,3.9c1.3,4.7-0.9,8.2-5.8,8.6c-6.9,0.4-13.9-0.6-20.9-0.8
		c-1,0-2.1,0.4-3.1,0.7c-2.3,0.9-4.5,2.1-7.2,2.2c0-7.6-3.2-7.6-5.5-14.1c-0.6,5.6,5.4,7.9,3.3,14.1
		C461.3,626.4,450.8,616.2,444.1,615.2z"/>
	<path class="st0" d="M398.4,397.7c1.8,1.9,2,2.1,0.8,3.9c-2.2,3.2-4.5,6.4-6.7,9.6c-38.8,10.3-89,12.6-110.5,52.8
		c-1.1-0.3-2.2-0.6-3.4-0.9c6.8-20.7,15.2-44.3,38.1-51.5c22.9-7.9,47.8-14.9,71.9-8.7C392.9,403.4,398,403.1,398.4,397.7z"/>
	<path class="st0" d="M145.4,344.5c-1.2,7.3,5.2,11.5,9.8,15.9c0.1-0.1,0.3-0.2,0.4-0.4c-2.8-3.5-6.6-6.6-8-11c-2-5.8,5.2-8.4,9.2-5
		c3.3,2,6.3,4.7,10.3,5.2c-1.4-0.9-2.9-1.8-4.8-3c12.1-2,20.7-8.9,28.3-17.5c8.1,4.2,21.4,10.1,19.6,21.2
		c-1.7,10.4-12.1,20.5-23.1,17.2c-1.1-0.4-2.1-0.6-3.1-0.1c-9.2,4-20.7,0.1-29.6-3.2c-6.8-3.1-14.2-5.3-20.6-9.4
		C123.4,345.2,137.2,340.3,145.4,344.5z"/>
	<path class="st0" d="M383.6,55.1c-14.3-10.9-32.4-14.3-49.9-10.9c3.7-7.4,17.1-12.6,24.8-14.5c37.8-7.2,79.1,11.8,111.8,29.3
		C442.2,53,411.6,44.4,383.6,55.1z"/>
	<path class="st0" d="M82.8,541c-2.3,4-4.4,7.9-6.6,11.8C59.7,529.6,40,509.2,16.7,492c15.9-7.5,34.4-4.5,49.7,3
		c1.4,0.7,2.4,1.6,3.2,3C78.1,510.8,76.7,527.5,82.8,541z"/>
	<path class="st0" d="M507.9,171c3.4-7.6,7.7-15.9,15.9-18.8c15.1-3.7,30.1-7,44.7-12.7c9.1,18.2-8,34.2-24.2,39.7
		C533.1,179.7,517.1,177.8,507.9,171z"/>
	<path class="st0" d="M446.4,552.2c3.2,6.8,5.5,13.9,8.2,20.9c1.3,3.4,1,4.1-2,6.6c-0.3-0.6-0.6-1.2-1-2
		c-11.2,2.4-19.8,10.9-28.2,18.2c-1.9,1.4-1.5,3.3-1.7,5.5c-3.8,1.2-6.3,2.5-7.8-2.1c-4.4-9.9-9.1-19.6-13-29.7
		C415.7,563.2,430.5,556.4,446.4,552.2z"/>
	<path class="st0" d="M369.7,577.7c-8.3-20.5-18.8-42.4-41.7-49.2c-15-5.5-27-16.6-39.9-25.7c27.7,5.8,55.4,14.4,80.2,28.4
		c1.4,0.8,1.9,1.8,1.9,3.4c0,14.3,0,28.7,0,43C370.1,577.7,369.9,577.7,369.7,577.7z"/>
	<path class="st0" d="M181.6,370.5c5-3.3,8.6,1.5,15.1-1.4c11.2-3.9,20.9-18.8,12.9-29.5c-1.9-2.2-4-4.2-6.2-6.4
		c7.6-1.2,14,7.2,17,13.3c2.5,5.7,5.8,11,9.3,16.1c1.3,1.9,1.5,3.7,1,5.8c-2.9,15.9-19.4,22.9-34.1,23.4
		C192.9,392.9,183,374.1,181.6,370.5z"/>
	<path class="st0" d="M363.8,599.7c7.9-16.2-3.9-31.9-11-45.9c-13.3-20.8-40.8-28.7-64.3-28.5c-2.4-0.4-8.9,0.9-10-1.1
		c-4-5.5-9.2-10.4-12.4-16.4c-2.6-8.8-6.3-17.6-8-26.5c18.8,15.3,37.2,31.1,57.9,44c11,6.2,23.9,8.6,32.4,18.7
		c10.1,11,15.9,25.1,20.8,39C371.2,589.4,372.7,597.9,363.8,599.7z"/>
	<path class="st0" d="M515.8,78.1c22.5-9.3,42.3,17,60.7,26.5c2.4,1.4,4.9,2.3,7.8,2c3.9-0.2,4.1,2.3,2.5,5.3
		c-3.1,5.8-7.9,10.7-14.2,13c-2.7,0.9-3.3,0.6-4.9-1.8C554.9,103.6,535.6,90,515.8,78.1z"/>
	<path class="st0" d="M574.4,301.1c-3.2-4.1-6.8-7.1-11.1-9.5c26.8-40.8,34.2-94,11.7-137.9C602.9,198.1,595.3,255.5,574.4,301.1z"
		/>
	<path class="st0" d="M348,400.5c-1.7-6.2-3.8-11.4-6.9-17c3.6-2.2,5.8-5.8,8.3-9.2c12.5,3.8,25.2,5.7,38.2,6.4
		c-0.3,6.6-4.9,12.2-8.1,18C368.9,397.5,358.5,399.2,348,400.5z"/>
	<path class="st0" d="M283.8,134.6c-20.9,20.3-26.8,48.4-32.7,75.7c-6.9-8.4-5.9-54-4.1-66.1c2.3,4.1,4.5,8.4,6.7,12.6
		c1.2,2.8,4.5,4.5,6.4,1.4c1.7-2.7,3.4-5.5,5-8.3c3.9-7.4,11.4-11.7,18.5-15.5C283.7,134.4,283.8,134.5,283.8,134.6z"/>
	<path class="st0" d="M243.8,157.9c0.5,16.6-2.1,39.6,5.7,54.5c0.7,1.1,0.9,2,0.7,3.2c-2.3,14.4-5.1,27.9-6.4,42.6
		c-12.3-31.9-9.5-68-0.4-100.4C243.6,157.9,243.7,157.9,243.8,157.9z"/>
	<path class="st0" d="M561,173.4c-1.5,21.8-10.6,40.1-25.4,55.7c-0.2,0-0.4-0.1-0.6-0.1c-1.1-15.5,5.3-30.2,8.7-45.1
		c0.4-1.6,1.1-2.5,2.8-3c5.2-1.6,9.6-4.7,14-7.8C560.7,173.2,560.9,173.3,561,173.4z"/>
	<path class="st0" d="M6.3,499.6c6.8-16.9,60.6,51.9,66.4,59.6c2,2.4,0.6,5.9,1.1,8.8c-0.2,0.1-0.3,0.1-0.5,0.2
		c-17-20.3-33.4-41.2-52.8-59.3C16.4,505,11.9,501.6,6.3,499.6z"/>
	<path class="st0" d="M345.4,400.9c-6.9,1.9-13.4,3.6-20.2,5.5c0-5.6,0.2-10.8-2.2-16c-1.1-2.4-1.5-5.2-2-7.9
		c-0.3-4.5,5.8-9.8,8.6-13.4C335.6,379.3,342.2,389.4,345.4,400.9z"/>
	<path class="st0" d="M236.4,241.6c1.9,7,3.7,14.1,6.5,20.8c0.5,1.2,0.7,2.6,0.7,3.8c0,6.8,0.3,13.6,1.7,20.3c0.1,1,0.4,1.8,0,2.8
		C224.9,283.7,222.5,254.9,236.4,241.6z"/>
	<path class="st0" d="M161.2,522.4c-20.5,5.5,2.3,34,1.2,47.4c0.3,12.8-2,25.4-3.3,38.1c-0.4,3.8-0.5,7.6,0.4,11.3
		c-2.1,0.6-4.4-0.4-4.8-2.4c-0.9-10.4,1.3-20.8,1.8-31.2c1-9.9,1.6-20-2.3-29.4c-3.9-10-11.3-36.3,7-34.3
		C161.2,522,161.2,522.2,161.2,522.4z"/>
	<path class="st0" d="M198.8,497.3c3.8,8.1,7.6,15.9,11.4,24c-11.4,0.4-22.7,0.8-34,1.1c-0.1-0.2-0.2-0.3-0.3-0.5
		C183.5,513.7,191.1,505.6,198.8,497.3z"/>
	<path class="st0" d="M396.2,9.8c8.3,6.6,17.2,11.5,27.1,15c27.5,10.4,56,23.2,76.4,44.8c-33.1-19-64.9-39.7-100.6-53.8
		C396.8,14.7,396.1,13.3,396.2,9.8z"/>
	<path class="st0" d="M95.4,609.4c-11.7-5.5-15.7-26.6-15.3-38.5c1.4-31.1,33.7-51.2,62.7-49.9c-18.5,2.9-38,8.9-50.2,24.2
		C78.5,564.4,80,591.3,95.4,609.4z"/>
	<path class="st0" d="M10.3,493.8c6.9-8.7,57.4,47.9,61.8,56c0.9,1.2,1.7,2.4,2.6,3.7c1.4,2,1.3,2,0.2,4.9
		C55.6,535.2,37.6,508,10.3,493.8z"/>
	<path class="st0" d="M160.3,519.3c-9.5-1.5-18.7-1.1-28.2,0c1.3-1.7,23.9-17.5,26.6-18.6C159.2,506.9,159.7,512.9,160.3,519.3z"/>
	<path class="st0" d="M535.2,346.7c-7.9,7-17.8,13.7-28.3,9.6c5.3-5.4,10.4-10.6,15.7-16C526.1,343.1,530.2,345.2,535.2,346.7z"/>
	<path class="st0" d="M83,596.9c-7.2-11.7-8.3-25.9-5.4-39.1c3.3-15.4,17.4-27.5,32.3-31.4C83.2,538.5,71.1,570.1,83,596.9z"/>
	<path class="st0" d="M244.6,138.1c-2.2,1.3-10.8,11.4-12.6,7.9c-1.3-2.3-2.4-4.7-1.3-7.5c2.3-6,5.1-11.5,9.4-16.4
		C241.6,127.5,243,132.5,244.6,138.1z"/>
	<path class="st0" d="M84.4,539.3c-5.3-14.6-4.7-30.9-13.9-44.1c2.1-2.1,5,0.8,5.6,2.8c1.7,4.8,3.4,9.7,4.9,14.6
		c2.3,7.8,3.4,15.7,7.7,23C87.4,536.7,86,537.9,84.4,539.3z"/>
	<path class="st0" d="M123.9,520.2c11.4-8.6,23-16.8,34.4-25.3c0.7-0.5,1.4-0.8,2,0c0.7,1.3-0.2,2.7-1.4,3.4c-10,7-20,14-30,20.8
		c-1.4,0.9-3.2,1.2-4.8,1.7C124,520.6,124,520.4,123.9,520.2z"/>
	<path class="st0" d="M381.8,399.4c1.7-3.1,3.3-5.8,5-8.8c3.5,2.3,6.4,5.2,9.2,8.1C393.8,402.9,385.8,400.4,381.8,399.4z"/>
	<path class="st0" d="M339.6,381.8c-2.5-4.2-4.8-8.1-7-12c0.1-0.2,0.2-0.3,0.3-0.5c4.7,1.3,9.2,3,14.2,4.3
		C345,376.9,343,379.6,339.6,381.8z"/>
	<path class="st0" d="M584.5,138.2c-4.4-0.7-8.8-1.5-13.2-2.2c0.1-2,0.2-4.1,0.3-6.5C576.5,131.6,580.9,134.3,584.5,138.2z"/>
	<path class="st0" d="M203.6,616.2c7.1-0.9,13.9-1.6,20.9-2.5C221.1,617.9,209.8,619.3,203.6,616.2z"/>
	<path class="st0" d="M127.7,349.8c-3.2-1.1-3.6-5.5-1.7-7.9c2-2.3,5.9-2.7,8.8-0.9C129.5,343.3,128,343.7,127.7,349.8z"/>
	<path class="st0" d="M390.9,390.2c1,0.8,2.1,1.7,3.1,2.5c-0.1,0.1-0.3,0.3-0.4,0.4c-1-0.9-1.9-1.9-2.9-2.8L390.9,390.2z"/>
	<path class="st0" d="M390.7,390.3c-1.2-0.4-2.1-1.1-3.1-2.4c1.8,0.2,2.5,1.2,3.2,2.3C390.9,390.2,390.7,390.3,390.7,390.3z"/>
	<path class="st0" d="M451.7,300.9c-81.2-0.6-70.4-108.4,8.1-87.7C508.8,227.7,509.3,303.2,451.7,300.9z M442,295.8
		c48.7-0.1,48.8-74.1,0.2-74.3C393.2,222.2,393.1,294.9,442,295.8z"/>
	<path class="st0" d="M337.2,212.2c-11.3-21-38-18.2-49.5,1.1c-11.9,20.6-8.8,53.3,18.5,58.2c-42.4,9.2-48.6-39.2-30.3-66.9
		c13.4-24.3,53.2-24.2,61.7,7.5C337.5,212.1,337.3,212.2,337.2,212.2z"/>
	<path class="st0" d="M282.3,238.1c0-15.5,7-31.8,22.3-37.7c32.3-10.9,44.5,31.3,27.5,53.2c-5.3,7.5-12.4,12.7-20.7,16.2
		c-1.4,0.6-3.3,0.5-4.9,0.2C290.1,267.9,282,254,282.3,238.1z M324,210c-26.1-17.3-46.9,25.3-30.8,44.9c7.6,11.3,24.5,9.9,32.2-0.6
		c5.6-6.7,8-14.6,7.8-23.3c0-1.5,0.2-2.6,1.2-3.8C340.7,220,334.2,205,324,210z"/>
	<path class="st0" d="M498,204.3c-1.6,0.5-2.4-0.6-3.3-1.6c-8.6-11.1-20.5-19.1-34.9-19.1c-1.4,0-2.9-0.5-4.2-1.2
		c-4.1-2.2,1-7.3,4.3-6.9c15.9-0.2,29.9,9.5,37.6,23C498.7,200.5,498.7,202.2,498,204.3z"/>
	<path class="st0" d="M280.2,169.3c-2.6-6.5,14.7-18.1,21-18c4-0.5,9.5-1.4,11.6,3c1.1,2.2,0.2,3.7-2.3,3.9
		C298.6,156,288.7,161.3,280.2,169.3z"/>
	<path class="st0" d="M334.4,438.3c19.3,0.1,20.4,28,0.8,28.6C316.1,466.8,314.7,438.9,334.4,438.3z M337.8,452.1
		c7.2,0,7.5-10.5,0.2-10.7C330.5,441.4,330.3,451.9,337.8,452.1z M333.6,454.3c0.2-7-10.9-7.2-11.1-0.3
		C322.2,461.1,333.6,461.3,333.6,454.3z M339.3,463.6c7.2,0.4,7.8-10.3,0.6-10.6C332.6,452.5,332,463.3,339.3,463.6z"/>
	<path class="st0" d="M140.3,297.7c-1.6,5.4-8.4,5.3-10,0.1C134.2,301.1,136.4,301.1,140.3,297.7z"/>
	<path class="st0" d="M140,292.4c-1.5,1.4-3.2,2.8-3.7,0.2C136.5,290.1,138.3,291.3,140,292.4z"/>
	<path class="st0" d="M178.9,298.1c2.5,2.5,5.3,2.7,8.7,1C184.6,303,180.9,302.5,178.9,298.1z"/>
	<path class="st0" d="M187.6,292.6c-0.1,2.1-3.3,1.7-3-0.3C184.8,290.5,187.8,290.8,187.6,292.6z"/>
	<path class="st0" d="M478.1,258.7c-0.2,46.7-71.1,47.9-72.1,0C406.7,211.3,477.4,211.1,478.1,258.7z M413.5,257.8
		c0.1,38.2,57.1,37.8,57,0.4c0.4-5.6,6-6.6,2.3-14.9c-4.2-8-8.2-4.3-13.1-7.4C442.1,220.9,413.1,234.9,413.5,257.8z"/>
	<path class="st0" d="M335.8,219.6c-0.1,3-0.9,5.7-3.1,7.9c-9.4,7.8-16.7-9.1-9.4-15.4C328.7,206.7,336.1,213,335.8,219.6z"/>
	<path class="st0" d="M337.7,451c-5.8-0.2-5.8-8.3,0-8.5C343.8,442.7,343.7,450.9,337.7,451z"/>
	<path class="st0" d="M328.2,458.5c-5.8-0.1-6.2-8.1-0.3-8.5C333.8,449.8,334.1,458.2,328.2,458.5z"/>
	<path class="st0" d="M344.1,458.2c-0.1,5.7-8.9,5.6-9,0C335.4,452.7,343.8,452.6,344.1,458.2z"/>
	<path class="st0" d="M453.5,247.9c0.3-12.7,19.1-12.6,19.4,0C472.6,260.8,453.7,260.8,453.5,247.9z"/>
</g>
</svg>
