<?xml version="1.0" encoding="utf-8"?>
<!-- Generator: Adobe Illustrator 26.0.0, SVG Export Plug-In . SVG Version: 6.00 Build 0)  -->
<svg version="1.1" id="Capa_1" xmlns="http://www.w3.org/2000/svg" xmlns:xlink="http://www.w3.org/1999/xlink" x="0px" y="0px"
	 viewBox="0 0 595.3 626.6" style="enable-background:new 0 0 595.3 626.6;" xml:space="preserve">
<style type="text/css">
	.st0{fill:#FFFFFF;}
</style>
<g>
	<path d="M595.2,397.2c-3-16.4-26-11.7-38.2-11.5c18.3-25.6-11.6-27-29.4-19.6c-27.5,10.5-49.7,31.3-68.5,52.9
		c-1.9-2.5-2.8-5.7-4.7-8.3c55-27.5,53.3-89.2,22.5-135c30.3-35.8,44.5-83.5,40.7-130c7.9-2.5,6.5-15-2.3-14.7
		c-10,1.1-9.5,12.8,0,15.5c2.2,44.5-11.9,90.6-42.7,123.3c-1.1-1.6-2.4-2.8-3.1-4c4.3-16.9-1.8-36.4-14.9-47.9
		c-10.5-9.4-24.5-6.9-18.5,8.7c-5-1.8-1.7-8.4-2.6-12.4c-0.2-7.8-0.5-15.7-0.9-23.5c-1.1-19.4-6.5-38.2-12.9-56.4
		c4.6-4.2,2.4-12.4-3.8-13.3c-12.5-0.5-10.5,17.7,1.9,14.7c9.5,27.4,13.2,57.5,10.4,86.2c-25.6-10.9-30.1,12.3-7.6,22.6
		c-7.2,0.6-15.8,1.4-19.8,8.4c-2.5,5.2-0.2,6.4,3.3,9.2c-73.2,33.6-86.3,139.9,6.7,156.4c-0.1,1.1-0.7,1.8-1.4,2.5
		c-27.3-4.2-52-16.8-75.7-30.3c-2.3-1-2.2-3.1-2.7-5.1c-2.8-7.9-10.8-12.7-19-13.2c-1.9-0.3-4.7,0.4-5.2-2
		c0.1-2.6-6.3-11.7-2.7-11.9c7.9,0.5,16.1-3.7,15.6-12.6c11.2-0.4,7.1-9.9,10.5-16.7c4-7.2,0.1-7.3-4.8-10.7
		c2.8-6.6,1.3-13.7-7.4-11.2c-7.9-0.5-4.4-7.9-15.4-0.9c-5.7-10-12.3,1.8-19.9,0.7c-7.4-1-13.8,3.6-9.7,11.6
		c-6.5-0.4-15.3,0.6-15.3,8.9c-0.3,6.8-10.9,13.2-2.7,19c-4.2,4.4-2.7,11.2,3,11.3c2,0,4.1-0.4,5.6,1.1c4.6,6.1,10.8,8.9,17.8,4.4
		c5.4,9.1,12.8,0.2,18.9-3c1.8,3.7,3.9,7.9,4.1,11.9c-10.9,0.7-25.4,10.8-17.7,22.7c-3.4,5.2-1.5,14.1,5.2,16
		c0.4,0.1,0.8,0.2,0.9,0.8c-24.5,2.7-8.3,23.6,8.9,8.8c7.2-5.8,1.6,8.1,1.3,11.1c-1,6.9-5.8,13.6-5.6,20.4
		c7.5,5.8,9.9-26.9,11.8-31.4c6.1,0.9,11.8-2,16-6.4c25.4,11.3,52.6,18.5,80.1,21.7c-7.3,28.7-7.6,61.9,11.8,86.1
		c-14.3,14.8-18.9,21.8-12.3,42.2c0.4,4.2,3.3,9.4-0.3,12.9c-9,7.1-21.2,8.6-31,14.7c-5.9,3.4-18,10.5-11.4,18.3
		c11.5,7.1,26.2,2.6,38.9,2.7c-6.3,24.4,85.8,12.3,96,2c10.1-7.6-1.9-17.2-7.7-23c-5.6-7-10.5-14.4-15.3-22
		c-8.9-11.9-8.7-19-0.5-31.2c7.7-5.9,16.4-11.4,19.3-21.5c2.8-3.7,8.6-4.6,11.5-8.8c9.1-7.6,15.7,9.1,25.3,8.9
		c4.7,1,11.6-0.2,12.2-5.9c1.1-3.6,4.3-6.4,2-10.4c-1.3-2.8-3.4-5.1-5.8-7.1c-0.3-0.3-0.6-0.6-0.3-1.2c11.1,2,16.3-11.2,4.6-14.5
		c-5.2-1.5-11.2,0.4-15.4-4c-2.5-2.6-6.1-3.3-9.7-3.1c-3.1-9.2-6.9-18.1-11.9-26.4C528.9,440,593.6,426.7,595.2,397.2z M496.9,482.5
		c-2.8,3.6-0.4,8.1-2,11.8c-3.7-17.9-18.5-30.1-25.7-46.5c10.6-2.5,19.5,5.8,22.9,15.3C493.8,469.4,497.2,476.2,496.9,482.5z"/>
	<path d="M48.9,396.1c-8,14.2-17.4,29.1-32.3,36.4c-16,5.7-18.5-15.7-15.7-26.7C2.7,383.1,53.7,308,60,365.4
		c6-16.6,2.2-11.1,0.1-26.1c-2-19.8,14.9-34.9,33.4-37.6c-3.4-4.7-8.3-8.8-8.1-15.3c-30-15.4-56.4-42-68.3-73.8
		c-5.5-15.5,7.5-25.6,22-19.5c12.7,4.6,23.4,13.2,33.3,21.9c0.7-9.8,2.9-19.7,7.8-28.4c0.4-0.7,0.5-1.4,0-2.2
		c-8.4-13.3-1.4-30.2,8.7-40.6c6.4-6.8,14.1-11.7,22.5-15.7c1-0.5,1.5-0.9,1.6-2c6.3-17.4,30-20.2,46.1-19.2
		c-7-9.1,0.3-16.8,10.3-14.5c1,0.2,1.4-0.1,1.7-1c7.2-40.3,41.2-73.9,80.3-83.9c-0.2-7.3,11.6-10.8,14.4-2.7
		c3.7,9.5-10,14.3-14.1,5.4c-37.3,9.1-67.8,41.3-74,79.3c-0.2,1.9-1.8,4.7,0.8,5.2c5.7,2.4,10.5,6.6,13.7,11.8
		c1.7,2.6,5.5,1.2,7.9,2.8c1.2,0.5,2.2,0.3,3.3-0.6c4.8-3.9,10.2-6.4,16.1-7.9c11.8-4,24.5,3.9,12.1,14.7c0.5,0.9,1.3,0.6,1.9,0.6
		c6.2,0.3,12.3,2.2,17.6,5.3c1.1,0.7,1.8,0.5,2.7-0.3c9.3-7.2,20.2-12.5,31.6-15.5c20.3-5.5,42.9-3.4,61.3,7
		c0.9,0.6,1.7,0.7,2.6,0.1c3.7-2.6,8.7-1.1,10.8,3c4.9,14.2-18.4,13.8-13.5-0.5c-27.5-17.2-65.5-9.6-89.7,10.2
		c5.6,5.6,12.1,14,7.2,22c17.1,14.8,32.8,58.2,8.2,72.1c1.1,7.6,1.1,15.1-0.5,22.7c24.7-7.9,22,13.7,11,27.7
		c-20.4,23.2-52.9,34.1-82.9,37c5.3,18.8-8.9,22.4-24.2,19.2c-1.9-0.4-2-0.3-2.7,1.3c-11.3,25.3-31.5,49.5-60.3,53.7
		c-0.4,25.2-5.9,53.2-27.1,69.3c-8.3,23.1-23.5,48.2-48.7,55.2c-38.7-2.3,14.5-92.7,40.1-85.3c8.2-10,14.9-30.6,15-40.4
		c-3.4-1.7-7-2.8-10.4-4.5C79.1,394.7,64.9,426.8,48.9,396.1z"/>
	<path class="st0" d="M469.6,273.4c-4.2,2.7-0.6,5,1.6,7.4c1.4,0,1.6-1.4,2.8-1.6c12.4,19.4,21.1,43.1,19.6,66.3
		c-3.7,29.1-24.1,56.7-52.8,65.1C377,426.9,325.9,366.4,361,307.8c13.7-24.8,38-47,67.7-46C442.3,260.6,461.7,260.2,469.6,273.4z
		 M408.4,333.1c0.2,10.8,13.7,22.1,22.6,12.8c-0.4-0.7-0.9-0.5-1.4-0.3c-1.3,0.7-2.8,0.8-4.2,1c-7,1-13.6-5.9-14.7-12.2
		c7.1,13.8,21.5,8.2,26.2-4.2c0.2-0.6,0.5-1.2,1.1-1.3c1.7-0.4,2.1-1.7,2.7-3.1c2.9-7.5,1-15.2-1.5-2.2c-0.1,0.4-0.3,0.8-1,0.7
		c-3.7-11.7-13.1-21-25.1-23.7c5.4-11,24.3-17.5,28.2-2.1c0.2,2.1,2.2,2.6,1.8,0.1c-2.9-20.1-23.6-12.5-31.3,0.1
		c-1.4,1.5-1.7,3.1-0.6,4.9c-4.5,9-4.9,19.7-1.4,29.1C409.3,332.9,408.9,333,408.4,333.1z M376.4,297.4c3.8-4.9,12.4-14.6,18.5-7.9
		c2,3.6,2.9,1.2,1.9-1.5c-6.6-12.9-23.4,7.5-25.3,15.5c-2.5,7.5-3.5,16.3,6.3,17.1c-5.1,2.6-9.4,3.3-13.3-1.3
		c-1.9,8.7,12.2,6.4,15.3,1.5c-0.2-1.2,0.7-1.6,1.5-2.1c5.1-3.3,8.6-7.9,10.6-13.6c0.3-2.2,2.7-5.6,0.9-7.4
		C387.6,294.6,382,295.3,376.4,297.4z M360.8,347.6c7.5,43.8,31.8,38,61,15.5c1.9-2,3.2,0.6,5.1,1.1c4.6,0.8,1.1-6.1-2.2-4.8
		c-26.3,16.2-54.8,32.7-61.2-11.6C363,340.6,351.5,346.4,360.8,347.6z M400.4,338.2c-2.6-6.7-7.5-14.3-15.2-15.5
		c-4.7-0.9-9.6,4.4-8.4,8.8c1.3,0.3,1.6-1.5,2.3-2.2c3.7-5.7,11-1.8,14.4,2.4C395.3,333,398,339.4,400.4,338.2z M432.3,269
		c9.5-1.1,12-0.1,16,9.1c2.6,2.1,3-2.7,2-4.3C447.5,267.1,437.8,262.7,432.3,269z M393.2,275.5c2.7,0.2,4.2-2.1,6.7-2.9
		c3.1-2.2,6.3,0.1,9.6-0.3c0.9-0.2,1.3-1.3,0.7-2C404.9,265.3,396.6,270.8,393.2,275.5z M381.5,344.4c-0.3-1.1-5.1-7.9-5.4-4.4
		C377,342,379.1,345.2,381.5,344.4z"/>
	<path class="st0" d="M472,424.8c21.8-17.1,48.6-28.3,75.7-33.5c33.2-6.5,63.4,4,20.7,29.8c-20,11-42.6,16.2-64.9,20.1
		c-1.2,0.2-2.1,0-3.1-0.7C491.3,434.4,481.8,429.8,472,424.8z"/>
	<path class="st0" d="M433.5,621.3c-14.7,0.6-45.3-1.6-16-16.2c10.4-5.5,22.6-8.5,31.3-16.8c7.5-9.1-10.5-29.2-2.1-41.8
		c7.4-10.5,13.7-24.3,25.8-29.9c15.8,0.9-5.9,23-8.1,29.6c-7.4,12.2,6.1,23.7,11.3,34.2c2.6,4.1,5.4,8,8.1,12.1
		c3,4.7,8.8,6.2,11.4,11.2C503.4,620.4,443.5,620.7,433.5,621.3z"/>
	<path class="st0" d="M442.6,589c-11.5,5.2-22.8,10.2-33.4,17.1c-7.3,2.9-15.7,1.9-23.4,2.9c-5-0.2-21,1.9-21.2-4.9
		c8.7-14.9,33.4-14.9,44.5-25.9c2.3-5.5-2-12-2.3-17.8c-4.9-17.4,1.3-23.2,12.8-35.3c2.2,2.5,4.9,4.1,7.1,6.5
		c-10,8.8-6.1,19-1.6,29.5C429.6,571.5,432.6,582.4,442.6,589z"/>
	<path class="st0" d="M539.8,505.8c-4.8-3.1-11.6-4.3-14.6-9.1c-0.1-0.6-0.4-1.2-1.2-1.1c-2.8,4.7,4.8,6.8,7.8,8.7
		c13.4,8.5-3.5,16.8-18.2-0.8c-9.5-7.4-14.2,12.1-24.2,8.7c-2.9-1-4-4.3-2.3-6.8c3.2-3.9,9.8-4.4,10.5-10.3c0.8-5,0.6-10,4.5-13.8
		c-5.6-11.4-4.7-26.9-17.5-33.4c-7.8-5.4-16-10.3-24.3-15c-3.1-1.7-8.2-3.5-7.5-7.8c0.3-11.3,34.4,11.2,39.6,13.7
		c12.7,6.7,15.7,21.7,20.2,34.2c0.5,1.4,0.9,1.7,2.2,1.6c5.2-0.3,9.9,1.6,13.8,4.8c3.8,2,8.4,1,12.4,2.3c3.9,0.5,4,6.1,0.9,7.5
		c-2.9,1.3-7,1.6-9.9,0.3c-1-0.6-1.9-1.4-3.2-1.5C525.9,489.1,543.5,498.1,539.8,505.8z"/>
	<path class="st0" d="M486.3,482.5c-8.9,24-33.8,42.3-59.7,35.7c-3.9-1.2-9-1.6-11.6-5.2c-4.8-7.8-8.4-17.1-9.4-26.1
		c22.8,16.4,56.3,3,70-19.7C479.7,472,482.8,477.2,486.3,482.5z"/>
	<path class="st0" d="M465.6,265.1c-10.8-6.2-23.1-7.6-35.2-7c-8.1-0.5-18.2,3.9-25.1-1.3c-2.3-4.4,4.5-7.2,8-7.9
		c13.2-3.2,26.3,1.4,38.4,6.4c-6.4-7.7-18.8-7.2-27-12.8c-32.2-20.6,2.3-33.7,34,9.9c-3-11.6-16.9-17.3-19.5-29.1
		c-1.8-8.6,9.8-6.6,13.7-2.4C463.9,231.7,471.2,250.2,465.6,265.1z"/>
	<path class="st0" d="M468.8,423.2c-2.3-1.1-4.3-2-6.5-3.1c16.5-19.5,36.7-37.5,60.4-47.7c8.9-3.2,34.8-12.4,34.6,3.8
		c-1.5,4.4-4.4,10.4-9.4,11.1C519.3,392.7,491.7,405.1,468.8,423.2z"/>
	<path class="st0" d="M309.3,416.5c0.5-3.1-0.4-7,1.4-9.7c2.3-2,2.3-4.7,2.7-7.4c0.8-0.3,1,0.4,1.4,0.9c0.8,1.1,1.9,1.7,3.2,1.9
		c0.7,0.2,1-0.4,1-1c-0.3-0.6-1.3-0.8-1.8-1.3c-2.1-3,4.8-4,4.6-7.4c-1.4-1.1-5,4.3-10.1,3.5c-3.9,0.3-7-3.9-3.9-7.1
		c2-3,7-3.2,8.5-5.9c-1.5-1.6-4.5,0.6-6.3,1.2c-1.5-2.2-1-5.8-1.8-8.5c4.4-1,9.7,1.3,13.3,3.9c6.2,4,4.6,11.2,8.9,14.9
		c24.1,14.4,50.4,25.3,78.3,29.6c-0.7,2.8-1.6,5.5-2.7,8.2c-27.2-3-55.1-10.6-79.5-23.2c-0.6-0.4-1.1-0.3-1.4,0.4
		C322.4,415.2,315.2,417.7,309.3,416.5z"/>
	<path class="st0" d="M408,436.7c13.6,10.6,32.1,6.2,44.9-3.4c2.2-1.3,4.3,1.6,6.4,2.1c3.9,2.2,3.7,8,5.8,11.7
		c2.3,3.4-2.8,5.4-4.7,7.5c-10.1,7.9-22.8,13-35.8,12.6c-6.5-0.3-12.6-2.1-18-5.6C401.1,459.1,407.5,442.2,408,436.7z"/>
	<path class="st0" d="M283.4,354.4c0.7-40.4,49.2-9,26.2-0.4C297.5,353.6,286.3,375,283.4,354.4z M298,341c0-1.7-2.1-5.6-4.1-4.4
		C293.5,337.4,297.5,343.8,298,341z"/>
	<path class="st0" d="M430.4,533.6c4.8,3,10.1,5.1,16,6.3c-8.4,11.7-6.1,19.9-1.6,32.9c1.1,4.2,4.2,9.4,0.9,13.3
		c-11.4-6.7-14.1-21.7-19.3-33C422.8,546.4,424.2,538,430.4,533.6z"/>
	<path class="st0" d="M284.8,339.2c-3.3,6.4-5.4,13-4.7,20.1c-10.7,8.4-11.6-6.2-22.1-4.2C246.8,348.8,278.9,329.4,284.8,339.2z
		 M271.9,343.9c1.9-2,4.1-3.5,6.4-5C278.4,334.8,268.9,342.1,271.9,343.9z"/>
	<path class="st0" d="M299.9,331.8c1.8-8.7,32.8-14.9,26.9-4.1c-4.6,4.2-0.1,14.6-8.6,14.5C314.3,335.9,306.8,333.7,299.9,331.8z
		 M310.8,331.1c-0.8-3.1-7.5-3.6-8.3-0.6C304.8,331.6,308,330.7,310.8,331.1z"/>
	<path class="st0" d="M282.4,324.3c0.1,0.2,0.2,0.5,0.3,0.8c-2.8,4.6-9.8,0.9-13.3,5.1c1,1.4,6.3-1.4,8.4,0.1
		c-0.6,4.3-4.3,4.7-7.8,5.8c-3.8,1.4-7.1,3.6-10.3,6.1c-2.1,1.6-3.4,1.4-4.6-0.9c-1.4-2.6,1.1-5,2.4-7c4.8-4.9,2-6.6,4.5-10.7
		C268,318,276.2,322.4,282.4,324.3L282.4,324.3z"/>
	<path class="st0" d="M282.5,324.4c-0.1-2-3.1-2.6-4.5-3.6c-2.4-1-3.4-3.2-3.8-5.6c-1.2-5.9,6.5-4.8,10.2-4.8
		c5.5,0.9,11.8-7.8,16.1-1.7c-2.8,3.9-4.6,8-5.6,12.8c-7.4,1.7-4.1-1-7.4-4.6c-1.7,1.6-0.5,3.7-0.1,5.6
		C285.9,323.4,284.3,324.8,282.5,324.4C282.4,324.3,282.5,324.4,282.5,324.4z"/>
	<path class="st0" d="M303.2,324.6c-0.6-0.5-1.1-0.8-1.5-1.1c-0.3-1.6,4.4-3.6,2.6-4.7c-3.2,0.4-4.5,6.1-8,2.8
		c1.7-5.9,7.4-16.5,14.6-13c4,4.3,15.9-2.1,12.4,7.8C322.2,321.4,313.1,315.9,303.2,324.6z"/>
	<path class="st0" d="M305.2,375.3c0.7,2.7,1.4,5.2,1.4,8c-3.4,0.6-8.1-1-10.3,2.4c3.2,0.5,6.3-0.5,9.4,0.8c-2.9,2.6-3.6,6-1.6,9.4
		C283.2,403.8,285.1,374.3,305.2,375.3z"/>
	<path class="st0" d="M289.6,398c5.1,3.1,11,2.7,16.2,0.2c2.3,0.7,2.6,1.1,2.7,3.1C308.9,413.7,283,411.8,289.6,398z"/>
	<path class="st0" d="M301.3,326.4c-5.6,9.7-7.2,1.7-15.5,11.1c-1.8-1.6-3.8-2.7-6.3-3.1C281.9,324.6,293.2,321.3,301.3,326.4z"/>
	<path class="st0" d="M306.9,409.5c-0.2,2.1-0.4,3.8-0.7,5.9c-4.8,1-8,5.8-13,6.8c-3.1,0.9-8.2,1.1-8.6-3
		C283.8,414,302.5,411.5,306.9,409.5z"/>
	<path class="st0" d="M414.9,123.6c6.6-0.1,6.4,10.5-0.2,10.1C408.5,134.1,408,123.2,414.9,123.6z"/>
	<path class="st0" d="M515.8,133.4c6.5,0.4,5.8,10.6-0.5,10.2C508.1,142.9,509.2,133,515.8,133.4z"/>
	<path class="st0" d="M473.8,444.7c-5.8,1.5-6.4,0.2-8.3-5C466.4,438.8,472.9,443.8,473.8,444.7z"/>
	<path class="st0" d="M129.2,264.3c-0.8,1.7-2.3,2.6-3.6,4.1c-3.6-2-5.9-5.8-8-9.3c-1.3-0.4-1.5,1.1-2,1.9
		c-11.6,11.6-23.3-12.8-23.3-22.9c0.1-3.1-6.1,0.6-9.3-3.8c-9.6-13.7-7.4-34.9,0.2-49.1c-9.8-22.8,10-46.3,31.3-54.2
		c5.8,2.6,5.8,2.6,7.6,2c-0.3-0.9-1.2-1.2-1.8-1.6c-3.2-2.1-1.3-6.4,0.4-8.9c11.3-13.8,31.9-13,48-11.1c0.5,2,1.2,4.6-0.4,6
		c-1.3,0.7-7.8,5.4-4.5,6.2c5.8-3.4,12.6-3.8,19-2.4c3.8-1.8-5.8-5.9-7.8-5.5c-0.1-5.9,0-12.1,1.5-17.8c5.7,1.9,10.3,6.1,13.9,10.8
		c2,3.9,6.2,2.4,9.7,4c1.3,0.6,2.2,0.4,3.3-0.5c4.8-3.9,10.6-6.7,16.7-7.8c13.9-3,15.3,9.1,2.8,12.3c-0.5,0.2-0.5,1,0,1.1
		c9,0.7,19.1,1.7,26.6,7c-4.2,4.8-3.3,3.4-8.7,2c-1,1.3,1.2,2,2,2.6c8.9,5.5,15.9,14.2,18.2,24.4c1.3-0.2,0.4-2,0.7-3
		c15,14.4,27.9,49.7,7.7,64.6c-1.2,0.5-1.6,1.1-1.1,2.4c2.1,7.9,2.1,16.3,0.2,24.2c-2.4,10.7-13.2,35.5-26.9,25.7
		c-6.7,11.5-20.1,32.3-34.4,18.1c-6.2,7.2-14.9,9.7-20.4,0.4c60.6-0.1,89.9-61.5,68.3-114.5c1.6-0.4,8.5-8.9,4.4-8.2
		c-8.6,8.8-21,0.1-25.1-9c-5.4-9.4,2.2-19.2-9.3-26.8c1,4.2,4.5,7.7,3.9,12.5c-0.1,5-3.2,10.6-8.8,10.6c-10.1,0.2-12-12-18.3-17.8
		c-0.5-0.7-1.8-0.9-2.1,0.1c-5.1,17.3-33,37.6-37.6,8.9c-3.3,3.4-0.3,8.8-2.6,12.5c-6.5,9.1-9.6,20.2-16.7,28.9
		c-5.6,7.8-19.9,9.5-23.2-1.1c-2.1-6.5,0.3-13,1.8-19.3c-16.6,13.1-18.4-6.9-9.9-17.7c-10.3,3.6-13.3,32.1,4,25.6
		c-2.9,10.1,0.3,23.3,11.9,25.5c0.7,11.9-7.7,44.7-24.7,35.7c-6-5.7-1.4,6.1,2.2,6.6c1.9,1.2,5,0.3,5.7,3
		C114.6,250.8,121.2,258.3,129.2,264.3z"/>
	<path class="st0" d="M173.6,277.5c-0.4-11.5-11.1-19.5-22.2-16.7c-5.9,0.6-11.5-1.5-17.4,0.8c-6.4-3.1-16.3-14.9-18.6-23.9
		c12.1-10.1,14.3-26.6,15.3-41.4c19.4-3.4,22.1-26.6,31.6-40.5c14.2,15.8,33.2-4.7,38.8-18.7c5,5.6,6,15.3,14,18.1
		c5.4,2,11.3,0.5,14.7-4.1c2.9,9.4,9.8,19.2,20.2,20.6c1.4,0,2,0.7,2.4,1.9C273.5,229.1,236.6,291,173.6,277.5z M169.4,237.6
		c-0.9,36.3,39.3,42.5,58.1,15.3c1.7-2.6,5.9-8.2,1.8-10.3c-17-0.5-34.5-3.5-48-15C172.7,219.4,168.7,229.5,169.4,237.6z
		 M185.2,210.8c26.7-0.7,21.8-46.4-4.5-40.6C160.2,175.7,163.5,210.7,185.2,210.8z M224.3,202.2c-0.6,19.1,22.8,26.1,26.9,5
		C255.2,183.3,226.2,175.5,224.3,202.2z M203.2,218.8c1.6,1.9,4.8-1.5,6.9-1.6c4.5-1.5,13.3-1.6,13.2,4.7c0.1,0.9-0.1,2.3,0.9,2.6
		c1.8-0.1,1-3.1,1.2-4.4C224,208.8,208.9,212.7,203.2,218.8z M216.2,229.9c-1.6-0.3-2.4,1.5-0.9,2.1
		C217.5,232.8,219.1,229.9,216.2,229.9z"/>
	<path class="st0" d="M74.1,424.2c-1.8,4-5.4,5.5-7.4,9.2c19-8.8,26.3-32.9,30.4-52.2c2.7,0,5.2,0.8,7.9,0.5c0.8,0,1.7-0.2,2.6,0.4
		c0.7,27.8-9.1,54-29.8,72.5c1.4,0,2.4-0.7,3.4-1.3c0.7,0.3,0.5,0.7,0.3,1.1c-5,9.6-9.2,19.9-16.8,27.9
		c-6.8,7.3-27.8,27.3-34.8,11.7C24.7,471.2,49.4,426.1,74.1,424.2z"/>
	<path class="st0" d="M89.8,241.1c1.9,12.1,11.6,33.9,26.8,25.5c1.3,0.6,1.9,2,3.1,3c-11.6,2-28.4,0.8-33.7,13.9
		c-24.4-13.4-45.6-34.8-59.3-59.2c-6.6-11.2-6.7-30.2,11.2-26c12.9,3,23.7,11.5,33.6,20C75.4,227.1,75.8,243.3,89.8,241.1z"/>
	<path class="st0" d="M41.9,368.2c-3.2,5.3,7.6,22.5,4.8,26.8c-22.1,40-56.2,48.6-34.3-8.2c8.7-20.9,39.1-64.6,45.9-17.5
		c1.9,4.2-3.4,10.2-0.9,13.6c4.5-6.9,4.8-16.8,7.9-24.7c1.2-4.8,6.2-12,11.2-6.6c5,8.6,2.1,20.2,1,29.7
		C66.1,424.5,48.9,391.8,41.9,368.2z"/>
	<path class="st0" d="M144.9,360.5c-37.4,39.2-81.2-12.6-58.8-52.6c22.3-7,13.6-2.3,13.7,14C99.1,345.5,121.7,364.8,144.9,360.5z"/>
	<path class="st0" d="M138.6,298.9c3,7-2.9,15.3-10.6,12.8c-1.9-0.6-3.5-1.7-4.7-3.3c-3.2-2.7-8.6-1-12.6-3
		c-35.8-10.9-17.3-35.8,12-32.1c-1.3,4.4-2.7,8.5-3.3,13c-5.2-0.3-10.9-2.2-15.6-4.7c-0.5-0.2-1.3,0-1.3,0.4
		c2.8,6.1,10.9,8,16.8,10.2c0.9,0.9,0,2.4,1.1,3.2c2.9-14.9,6-33.2,26-31.6c0.3,0.5,0.1,0.8-0.2,0.9c-3.4,1-6.9,3.5-7.7,7.1
		c-0.1,1.4,1.6,1.7,2.7,1.3c2.6-1.1,5.3-0.8,8.1-0.9c5.2-0.1,13.2,4.1,11.3,10.2c-6.8-6.5-21.4-8.8-25.5,1.6
		c-2,9.8,11.3,8.1,17.3,7.7c4.8,0,5.2,7.5,0.7,8.6C145.7,303.7,140.6,297.5,138.6,298.9z"/>
	<path class="st0" d="M160.2,286.1c3.3-1.4,3.8-6,2.2-8.8c-3.6-7-11.3-8-18.3-7.6c3.6-4.3,11.5-3,15.7,0.1c0.5,0.4,1.2,0.9,1.8,0.5
		c0.5-0.7-0.4-1.5-0.9-2.1c-2.1-2.6-5.6-3-8.2-4.6c25.4-3.1,18.4,25.7,9.5,39.8c1.3,1.1,1.8-1.1,2.6-1.8c5.4,3.1,10.4,6,16.4,7.4
		c14.1,2.9,8.3-1.3-0.6-4.2c1.3-4.9,2.5-9.8,3.7-14.8c7.5,5.2,12.9,15.2,12.5,24.6c-3,17-31.5,7-41.4,1.4c0.2-0.5,0.4-1,0.5-1.4
		c-0.6-1.1-1.7,0-2.5,0.2c-6.5,2.6-14.4-3.4-11.2-10.2c17.2,5.2,25.3-14.3,9.7-15.5c-3.5,0.4-7,0.6-10.4-0.1
		C129.8,281.4,153.3,274.5,160.2,286.1z"/>
	<path class="st0" d="M195.5,297.1c4.3-0.4,7.7-2.5,10.5-5.8c14.2,10.6,28.2-5.6,35.1-17.1c16.3,7.1,24.9-15,29.6-26.9
		c25.6-8.2,11.4,21.4,0.3,28.9c-15.9,13-35.3,21.2-55.2,25.8c-5.3,1.1-10.7,2.3-16.1,2.4C197.2,303,197,299.4,195.5,297.1z"/>
	<path class="st0" d="M119.4,309.9c0.7-0.3,0.9,0.3,1.1,0.7c3.2,8.4,14.3,8.6,18.7,1.6c2.6,5.2,8.3,9,13.9,5.5
		c5.4,3.7,11.5,5.9,17.9,7.8c-5,13-8.4,13.2-21.8,13C133.9,337.9,120.9,324.7,119.4,309.9z"/>
	<path class="st0" d="M169.9,96.6c-0.3,4.2-0.6,8.4-1,12.7C159.9,107.1,157.1,93.9,169.9,96.6z"/>
	<path class="st0" d="M258.8,12.6c-6.7,0.1-6.1-10.5,0.3-10.2C265.5,2.7,265.6,12.9,258.8,12.6z"/>
	<path class="st0" d="M358.3,119.3c0.2,6.5-10.2,6.2-10.1,0C348.1,112.7,358.6,112.2,358.3,119.3z"/>
	<path class="st0" d="M260.1,144.5c-1.9-5.3-5-9.6-9.5-13.1c0.9-1.6,2.2-2.5,3.4-3.5C258.7,131.2,264.1,139.2,260.1,144.5z"/>
	<path class="st0" d="M421.8,307.5c7.1,2.3,11.6,10.6,14.3,17.3c0.8,6.4-6,14-12.5,14.7c-15.9,0.3-17.7-27.2-9.6-35.8
		c0.5,0.1,1.1,0.7,0.7,1.2C407.3,316.1,419.3,320.5,421.8,307.5z"/>
	<path class="st0" d="M415.5,308.6c-0.6-0.9-0.2-2.3,1-2C417.1,307.2,416.4,308.6,415.5,308.6z"/>
	<path class="st0" d="M374.8,301.7c0.4,9.3,8.4,0.9,9.5-3.6c2.4-0.5,4.4,0.4,6.6,1c1.2,7.6-11.9,25.4-18.6,15.2
		C371.3,310.2,371.8,304.8,374.8,301.7z"/>
	<path class="st0" d="M377.7,300.8c-0.8-0.3-0.3-0.6-0.1-1.1C378.3,300,377.9,300.3,377.7,300.8z"/>
	<path class="st0" d="M201.6,266.5c0.7-7-4-14.3-11.7-12.5c-3.4-5.2-9.6-6-14.3-2c-2.7-6.9-4.3-15.4-1.7-22.5
		c8.9,12.7,24.7,18.6,39.8,19.8c8.9,1.4,10.3-5.3,13.8-4.4C228.4,252.8,209.5,267.4,201.6,266.5z"/>
	<path class="st0" d="M199.4,266.9c-9,0.6-18.9-3.6-22.7-12.2c2.6-2.5,8.1-3.6,10.6-0.5c1.3,1.5,2.2,3.6,4.2,4.3
		c0.5-1.2-0.3-2.2,1.3-2C198.1,256.3,199.9,262.6,199.4,266.9z"/>
	<path class="st0" d="M176,228.3c16.1,9.4,26.1,16.7,46.3,16.4C209.2,251.6,183.7,240.4,176,228.3z"/>
	<path class="st0" d="M168.9,191.6c-0.7-22.4,28.2-26.2,31.9-3.9C204.6,212.9,171,217.3,168.9,191.6z M195.2,198.9
		c-0.3-8.7-13.1-6.8-14.8,0.7C177.8,210.9,195.5,208.4,195.2,198.9z"/>
	<path class="st0" d="M226.5,202.6c-1.1-9.6,10-20,18.1-11.7c7.7,7.8,6.4,24.6-5,28.1C231.4,219.9,226.2,209.9,226.5,202.6z
		 M241,206.9c-7.7-0.5-10.7,12.3-1.3,10.5C245.3,216,248.7,207.6,241,206.9z"/>
	<path class="st0" d="M186.9,197.1c-0.2,1.5-2.6,1.9-2.5,0.3C185,196.3,186.5,195.5,186.9,197.1z"/>
	<path class="st0" d="M238.4,209.7c0.7,0.6,0.2,1.6-0.7,1.4C236.7,210.6,237.3,209.6,238.4,209.7z"/>
</g>
</svg>
