<?xml version="1.0" encoding="utf-8"?>
<!-- Generator: Adobe Illustrator 26.0.0, SVG Export Plug-In . SVG Version: 6.00 Build 0)  -->
<svg version="1.1" id="Capa_1" xmlns="http://www.w3.org/2000/svg" xmlns:xlink="http://www.w3.org/1999/xlink" x="0px" y="0px"
	 viewBox="0 0 595.3 1084.5" style="enable-background:new 0 0 595.3 1084.5;" xml:space="preserve">
<style type="text/css">
	.st0{fill:#FFFFFF;}
</style>
<g>
	<path d="M509.9,690.1c0.6-2,1.8-2.9,3.7-3.5c23.5-6.5,45.7-17,63.3-34.2c20-17.2,28.3-47.3-0.8-60.1c-26.1-11.8-55.7-5.6-82.9-1.4
		c5.7-12.3,19.2-10.8,28.9-18.5c12.5-8.4,20.8-20,25.9-34c0.7-1.8,1.3-3.6,3.2-4.7c15.7-10.4,17.5-31.4,18-48.6
		c1.1-19.1-5.7-37.6-2.8-56.6c0.7-17.3-1.9-34-9.4-49.7c-1.2-2.5-1.7-4.9-1.6-7.6c0.5-41.3-33.4-75.3-71.6-85.9
		c-3.5-1-6.3-2.5-8.9-5c-7.4-7.2-16.3-12.2-26-15.6c-13.3-4.6-26.9-5.7-40.8-4.9c-1.3,0.1-2.7,0.7-4.1-0.6
		c17.9-10.9,26.5-26.1-1.1-29.4c3.1-68.4,5.4-143.3-32-203.7c-1.6-2.4-2.2-4.2-1-7.2C376.1,4.7,355.1-7.2,345.7,5
		c-11,13.6,6.9,30.5,20.4,20.1c39.6,59,34.8,137.3,28.2,205.2c-13.9,5.3-25.5,11.3-35,22.7c-6.6,7.1-16.6,7.5-25.6,11.5
		c-18.7-14-44.1-25.8-67.6-18.7c-15.1,6.7-4.1,20.7,5.3,27.1c-18.7,3.7-36.4,8.1-52.8,17c-45.2-70.2-107.1-136.7-189.9-159.4
		c-0.6-4.8-1.2-9-1.8-13.6c-3.2-1.2-6.6-2.6-10.1-3.6c-5.3-0.6-13.7,2.4-15.7,7.5c-6.7,14.7,14.1,27.3,23.9,14.7
		c1.9-2.4,3.5-2.4,6-1.7c80.1,23.9,137.6,91.9,180.6,160.3c-8.8,7.2-15.3,16.1-12.4,28c0.4,1.9-0.3,2.7-1.6,3.9
		c-23,19.3-41.2,43.9-48.5,73.5c-3.4,13.7-4.2,27.6-0.8,41.4c1.5,9.3,9.7,16.7,6.2,26.4c-5.9,40.1,10.1,111,62.4,104.1
		c5.8,16.4,16.3,29.8,28.7,42c-42.4-9.4-85.1-24.5-129.3-21.1c-41.5,1.8-95.8,31-43.3,68.5c43.9,29.8,98.2,37.8,150.3,36.3
		c6.2,17.9,12.3,35.7,18.6,53.8c-11.9,3.3-17.9,12.5-26.7,19.8c-7.2-29.3-34.9-9.7-25.3,17.9c1,6.6,9.2,7,10.9,12.9
		c2.8,8.9,8.5,15,17.9,16.9c3.2,0.6,6.1,1.6,8.9,3.3c22.5,14.8,46-3,55.7-24.2c3.6,9.8,5.9,20.2,13.1,28.5c1.1,1.4,1,2.6,0.3,4.2
		c-9.3,21.3-18.7,42.7-27.9,64.1c-13,29.7-16.2,62.5-24.4,93.7c-5,18.6-34.8,36.5-48.3,51.5c-13.1,10.8-29.9,39.5-3.3,44.2
		c32,2.2,64.8-1,96.6-5.1c25-4.6,34.1-8.4,28.9-35.8c-1.4-15.1-10.1-28.7-10.9-43.6c3.6-24.4,5.1-49.1,8.6-73.5
		c7.6-23.7,15.2-47.3,22.8-70.9c1.4-4.3,1.5-4.3,5.9-3.7c12.9,2,25.7,1.2,38.6,0.9c5.5,25.9,12.6,51.5,14.8,78
		c0.1,23.9,5.1,48.5,1.1,72.1c-2.8,7.7-5.9,15.4-8.6,23.1c-3.5,13.4-13.4,36.6,5.5,42.1c14,4.5,28.8,5.1,43.4,5.9
		c43.5-0.2,87.3,7.9,130.7,2.9c30-4.7,19.7-21.2,0.4-33c-16.3-10.6-34-18.5-51.9-26.1c-21-8.8-46.5-14.8-49-41.7
		c-11.2-47.5-21.3-95.9-39.8-141.2c-0.9-2-0.3-3.1,1-4.4c9.2-8.9,14.5-19.8,19.7-31.3c11.2,10.4,19.7,27.5,36.2,29.1
		c14.6,1.2,27.1-6.3,36-17.4c10.1-7.4,9.2-19,8.7-30.2c2-15.7-15.1-30-27.1-15.4c-4.2-8.5-11.9-13-18.9-18.2
		C494.7,727.9,504.4,709.9,509.9,690.1z M303.9,696.9c-6.1,14.1-11.5,28-16.4,42.6c-5.2-16.8-10.4-31.1-17.3-47.1
		c11-4.4,25.3-5.2,37.2-8.5c0.3,0.3,0.6,0.6,0.9,0.8C306.7,688.8,305.5,693,303.9,696.9z M455.5,704.4c-0.3,0-0.7,0-1,0
		c-0.8-2.5-1.5-4.9-2.5-8.1c2.6-0.2,4.8-0.4,7-0.5c0.3,0.3,0.5,0.7,0.8,1C458.3,699.3,456.9,701.9,455.5,704.4z"/>
	<path class="st0" d="M271.1,333c23.4,14.7,43.9-14.3,52.1-33.3c6.4,33.8,39.5,69,75.6,51.6c16.9,27.9,27.5,79.2,65.8,83
		c7.2,27.7,6,57.7,17.4,84.2c1,1.9,0.1,3.2-0.9,4.6c-18.3,28.3-41.2,53.8-72.2,68.4c-60.9,29.6-143.2,16.8-186.5-37.2
		c-42.9-49.4-24.4-118.7-1.4-173c0.7-1.6,1.6-2.8,3.5-3.2C247.3,372.9,254.8,347.2,271.1,333z M350.4,381
		c-48.4,1.4-46.9,74.5,0.6,74.8C398.8,455.2,398.4,380.6,350.4,381z M377.9,506.3c-4.7-6.2-9-3.2-12.4,1.1
		c-8.3,9.9-17.7,18.5-28.6,25.4c-26.3,17.9-62.8,15.4-86.4-5.8c-5.2-4.7-11.7,5.5-4.9,4.6c2.6-2.2,4.5-0.7,6.6,0.9
		c32.5,24.7,67.2,24.3,96.8-4.7c7.9-5.7,14.4-20.3,24.6-20.5C374.7,507.4,376,506.7,377.9,506.3z M214.2,442.4
		c4.3,59.7,52.4,27.2,45.5-16.7c-1.4-20.1-20.4-35.9-35.4-15.9C217,419.5,214.3,430.5,214.2,442.4z M256.7,484.8
		c13.2-22.3,15.8-31.7,44.1-22.6C282,446.3,253.6,461.9,256.7,484.8z M264.7,489.5c1.4,3.6,2.6,4.3,6.5,4
		C268,490.1,268,490.1,264.7,489.5z"/>
	<path class="st0" d="M471.5,432.6c23.6-11.7,25.3-42.8,20.9-65.7c-0.6-2.7-0.2-4.6,1.6-6.8c6-8.1,8.7-18.8,5.1-28.5
		c-0.4,9.6-4.1,16.5-12.6,20.9c-9.7-20.9-25-35.9-43.8-47.7c-0.2,0.2-0.4,0.4-0.7,0.7c87.2,68.6,29.9,168-12,90.8
		c-7.6-12.9-12.9-26.9-19.2-40.4c-1.3-4.9-7.2-9.7-3.7-14.7c4.6-7.3,7.4-15.9,6.4-24.6c-9.7,41.3-59.1,36.1-78.1,2.5
		c-7.2-11.3-11.1-23.7-10.5-37.3c0-1.3,0.2-1.3-0.7-2.8c-2.5,18-10.9,34.4-26.5,44.7c-10.6,7.7-25.9,8.4-32.9-4.4
		c-0.3,0.1-0.6,0.2-0.8,0.3c0.8,2.9,1.3,5.4,2.8,8.2c-14,13-27.2,40.5-45.4,44.5c-15.7,3.4-20.5-15-15.4-26.7
		c-12.9,10.3-7.1,30.9,10.3,33.8c-26.6,56.7-43.9,128-1.5,181.3c-8.8,5.2-19.8,0.7-27.3-5.1c-25.3-21.7-31.8-59.8-26.2-91.3
		c4,1.4,7.6,3.5,12.1,2.4c-17.7-7-19.9-27.6-19.5-44.4c0.4-37,24.1-67.1,49.1-92.1c2.4-2.5,5.5-4.4,3.8-8.3c-2.5-8,0.8-17.3,7.8-22
		c1.5,2.4,3,4.9,4.5,7.4c-3.1,4.8-6.5,9.2-7.2,15c7.1-10.5,15.1-19.9,26.2-26.3c-0.2-0.3-0.3-0.5-0.5-0.8c-4.2,1.5-7.9,3.6-11.7,6
		c-2.4-1.6-3.3-4.2-4.7-6.9c19.3-13.1,43.1-15,65.3-19.8c-5.9-5.2-13.3-8-18-14.5c-5.3-10.3,13.5-9.7,19.5-8.3
		c9.8,1.8,19,5.6,27.7,10.3c5.5,1.7,16.8,13.1,21.3,9.7c6.2-4.3,13-6.9,20.5-7.6c2.2-0.2,3.1-1.4,4-3.1
		c6.2-11.7,17.5-23.1,31.2-23.9c0.6,7.3-2,14.9-2.7,22.3c-0.9,8.1-9.1,0.7-14.1,1.8c20.3,9.6,19.7,12.5,28.6,27.4
		c1-8.7-14.5-20.2-2.3-20c36.1-3.9,65.7,8.3,89,36.5c-0.5-3.8-3.4-6.5-4.8-10.4c43.1,13.6,73,60.6,59.3,104.8
		c3.7-3.5,4.3-8.6,7.3-13.3c10.2,18.1,5.7,37.7,4.5,56.7c8.9,32.7,8.2,74.9-23.2,94.9c2.3,0,4.5,0,6.8,0
		c-1.2,11.4-22.4,32.3-34.9,34.4c2.8-7,7.8-12.6,7.9-20.3c-11.5,22.3-31.2,43.1-58.6,40.8c2.5,1.8,4.3,2.8,7.4,4.3
		c-8.9,9.8-36.7,23.5-41.4,4c-0.3-3.7,0.2-5.9,3.7-8.1c26.6-16.2,46.8-39.8,62.8-66.2c40.3,11.8,45.4-46.2,38.4-72.8
		c-0.7,18.8-1.2,37.7-11.4,54.6c-4.8,11.6-21.7,15.8-27.1,1.8c-8.5-24.4-9.6-50.6-16.5-75.5C471.7,434,471.6,433.3,471.5,432.6z"/>
	<path class="st0" d="M390.8,850.1c12.5-2.8,23.6-7.3,33.8-15.3c16.9,40.8,24.8,84.6,34.3,127.7c3.2,13.3,4.2,28.2,13.8,38.9
		c3.5,3.9,7.9,6.6,12.7,8.5c25.1,10.5,51.4,19.1,74.4,33.9c24.7,14.8,20.1,29-8.5,28.2c-36.4-1.6-72.8-6.5-109.3-6.4
		c-44.6-1.6-56.8-5.1-39.7-52.3c9.8-30.3,2.2-63.3,3.7-94.7C402.4,895.5,395.4,873.2,390.8,850.1z"/>
	<path class="st0" d="M234.2,1074.2c-13,0-26.7,2.5-39.6-0.5c-27.2-12.7,42.2-60.4,50.1-73.7c9.1-14.1,8.5-32.4,13.8-48.3
		c8.7-42.3,27.7-81.1,43.6-121c2.3-5.7,2.4-5.7,8.2-3.8c8.6,2.7,16.4,7.3,22.3,14.2c8.7,3.4-22.4,71-24.7,83.6
		c-3.3,24.1-4.4,48.6-6.8,72.8c2,18.9,10.6,36.9,9.3,56.3c-0.1,24.8-58.3,17.8-76,21.2C234.2,1074.7,234.2,1074.4,234.2,1074.2z"/>
	<path class="st0" d="M276.7,629.4c-23.4,14.4-68.7,27.7-55.1,63.3c-54.1,3.4-118.1-6.8-156.7-48c-15.4-20.6,9-38,27.7-42.3
		C154.7,586.4,217.3,613.3,276.7,629.4z"/>
	<path class="st0" d="M210.8,770.2c-1.6-0.5-3.1-1-4.8-1.6c0,3.1,4,4.8,2.2,8.5c13-4.7,21.7-15.9,35-20.1c2.1,2.5,3.3,5.9,7.2,7.3
		c-0.7-2.4-1.3-4.4-1.9-6.3c0.8-0.5,1.5-1,2.3-1.5c-5.1-5.1-5.7-12.1-7.8-18.3c-5.7-17.4-11.4-34.7-16.7-52.2
		c-5-18.4,14.7-29.5,28.1-37.2c22.1-11.1,44-23.2,66.5-33.4c4.9,4.8,6.7,19.7,1.1,24.3c-18.6,13.5-37.1,26.8-55.6,40.4
		c-2.6-2.2-5-4.2-8.4-4.9c11.5,23.1,36.1,86.1,25.1,109.2c-6.8,20.6-31,46.5-53.6,31.3c-2-1.4-3.9-2.2-6.5-2.4
		c-7-0.6-16-4.9-16.7-12.5c3,1,6,2,9.8,3.2c-3.1-4.2-7.5-6-11.8-8.1c-10.4-3.7-13.3-16.8-10.8-24.5
		C195.5,762.9,208.8,759.4,210.8,770.2z"/>
	<path class="st0" d="M470.5,750.9c2.8,1.2,5.4,0.7,7.8-0.3c10.9-2.2,22.7,17.5,28.6,25.4c4.2-25.4,26.8-6.5,19.1,10.5
		c-3.3,5.6-10.3,7.4-14.5,12.1c5.7-1.1,10.2-4.5,15.2-7.8c0.1,11-10.3,22.2-21.6,22.3c-3.1,0-6.4-0.2-9.4,2.1
		c3.9,0.3,7.9,0.7,12.4,1c-20.3,15.8-41.1-6.5-54.2-21.2c-1.5-1.7-1.9-3.3-1.3-5.7c6.2-22.6,6.8-45.8,4.1-68.9
		c-5.4-13.7,25.4-34.6,9-45c-35.4-28.1-31.3-14.6-41.7-61.6c25.5,11.8,50.6,25.8,72.8,43.4c15.4,11.5,6,32.4,1.1,47.2
		C490.3,718.9,486,743.4,470.5,750.9z"/>
	<path class="st0" d="M445.3,617.7c9.7-3.4,18.3-7.2,25.2-15c1-1.1,2.7-2,4.3-2.3c30.6-6.5,64-14.5,94.3-2.9
		c54.1,27.6-24.9,81.4-57.2,85.2c2-12.8-0.9-27.1-13.2-33.7C481.1,638.1,463.1,628.2,445.3,617.7z"/>
	<path class="st0" d="M293.7,744.8c49.2,32.1,101.1,39.7,157.2,18.9c-2,13.4-6.5,43.8-19.7,49.4c-24.6,5.6-49.3,6.9-74.2,2.1
		c-22.5-4.3-43.1-13-62.1-25.8C285,783.2,291.8,753.6,293.7,744.8z"/>
	<path class="st0" d="M445,694.5c-45.1,11.2-89.7,15-135.1,5.1c4.1-12.9,7.9-25.4,9.2-38.8c0.4-4.1,0.5-4.1,4.5-4.4
		c34.5-1.5,68.9-4.7,103.3-7.2C432.8,664.1,438.8,678.9,445,694.5z"/>
	<path class="st0" d="M306.6,615.1c-6.1,2.8-19,11.3-25,9.9c-6.9-2.7-14.8-3.8-21.2-7.4c-15.1-12.6-30.3-27.4-35.7-46.7
		c22.2,22.2,50.9,37.6,81.8,43.3C306.5,614.6,306.5,614.8,306.6,615.1z"/>
	<path class="st0" d="M313.5,653.3c0.3,7.6-2.5,15.3-3.3,22.8c-0.3,1.9-1.3,2.9-3.2,3.3c-12.3,2.8-24.6,5.7-36.9,8.5
		c-3.1,1-4-2.3-1.5-3.8C283.5,673.7,298.2,663.1,313.5,653.3z"/>
	<path class="st0" d="M356.7,3.1c14.4,0.5,14.5,21.7,0,22.2C342.4,25.1,342.3,3.4,356.7,3.1z"/>
	<path class="st0" d="M25.3,125.9c0.4,15.2-22.5,14.6-22.2,0.4C2.7,113,25.3,113.1,25.3,125.9z"/>
	<path class="st0" d="M439.8,662.4c6.2,5.7,25.2,14.9,24,23.9c-0.8,3.5-1.3,4-5,4.2c-8.7,0.3-8.7,0.3-11.9-7.6
		c-2.6-6.7-5.8-13.2-8-20C439.2,662.7,439.5,662.5,439.8,662.4z"/>
	<path class="st0" d="M402,236c3.7-0.5,8,0.6,9.4,4.5c1.3,6.8-6.1,10.9-10.7,14.7C400.2,248.6,401.6,242.4,402,236z"/>
	<path d="M377.9,506.3c-1.8,0.5-3.1,1.1-4.4,1c-10,0-16.7,14.9-24.6,20.5c-29.6,29.1-64.3,29.3-96.8,4.7c-2.1-1.6-4-3.1-6.6-0.9
		c-6.8,0.9-0.3-9.3,4.9-4.6c23.6,21.2,60.1,23.7,86.4,5.8c11-6.9,20.3-15.6,28.6-25.4C368.9,503.1,373.3,500,377.9,506.3z"/>
	<path d="M256.7,484.8c-3.1-22.9,25.1-38.6,44-22.6C272.4,453.1,269.8,462.5,256.7,484.8z"/>
	<path d="M264.7,489.5c3.4,0.6,3.4,0.6,6.5,4C267.3,493.8,266.1,493.1,264.7,489.5z"/>
	<path class="st0" d="M352,386.1c43.6,0.1,42.8,68-0.2,68C306.6,453.3,309,385.3,352,386.1z M373.4,425.3
		c-5-31.8-40.2-8.9-23.6,13.8C359.7,450.9,374.8,438.8,373.4,425.3z"/>
	<path class="st0" d="M258.1,433.7c1,17.4-13.8,52-33.3,34c-13-17.6-9.5-44.9,7-59.2C248.5,397,258.6,420.2,258.1,433.7z
		 M254.2,439.8c-0.7-8.8-8.5-19.3-16.9-9.5c-9.4,8.7-3,38.4,11.9,24.2C252.6,450.6,253.6,445.9,254.2,439.8z"/>
	<path class="st0" d="M359.5,420.4c-0.1,5.4-6.7,4.8-6.5-0.4C353.3,415,359.7,415.4,359.5,420.4z"/>
	<path class="st0" d="M240.1,439.9c-3.5-0.3-3.1-6.3,0.5-6C244,434,243.5,440.3,240.1,439.9z"/>
</g>
</svg>
