<?xml version="1.0" encoding="utf-8"?>
<!-- Generator: Adobe Illustrator 26.0.0, SVG Export Plug-In . SVG Version: 6.00 Build 0)  -->
<svg version="1.1" id="Capa_1" xmlns="http://www.w3.org/2000/svg" xmlns:xlink="http://www.w3.org/1999/xlink" x="0px" y="0px"
	 viewBox="0 0 595.3 920.4" style="enable-background:new 0 0 595.3 920.4;" xml:space="preserve">
<style type="text/css">
	.st0{fill:#FFFFFF;}
</style>
<g>
	<path d="M296.3,675.6c-35.7-36.3-65.6-75.7-76-128.2c-23.9,10.9-47.1,21.4-72.2,32.8c4-20.8,14.9-38.2,21.9-58.1
		c5-12.4-1.3-22.8-6.2-33.6c-17.2-33.4-27.1-71.4-50.8-100.9C91.2,350.9,62.9,318.1,43.2,280C22.9,239.6-1.1,198.7,0,152.2
		C-0.7,118.4,27.6,84,63.3,89.3c47.4,3.6,78.6,41.9,108.7,74.5c7.1,8.1,10.9,19.1,16,28.9c25.3,44.2,40.3,91.9,61.5,138.2
		c11.7-5.5,24.1-11.4,37.9-17.8c-25-38.2-54.2-71.5-76.9-110.7c-11-21-22.3-41.9-32.9-63c-5.4-10.9-8.8-22.9-13.6-34.1
		c-9.8-23.6-4.5-52.2,9.8-72.8c22.6-42.3,90-42.3,120.3-7.6c9.2,11.7,19.6,22.6,29.8,33.6c12.6,13.5,19.5,30.3,28.2,46
		c21.6,38,42.1,76.9,53.9,119.2c2.8,11.3,7.9,22.1,12,33.2c9.7-4,10.2-6.7,16.1,3.3c15.8,25,32,49.8,46.7,75.4
		c5.4,9.4,13,11.7,22.1,12.9c19.6,2.6,39.4,4.8,58.9,7.9c3.7,0.6,6.7,5.1,10,7.7c-18.2,18.5-44.5,26.8-66.4,41.1
		c45.9,49.2,42.8,76.1,55.6,138.7c7.5-4.5,10.8-20.4,21.5-17.2c7,6.5,14.5,13.3,12.4,24.6c-11.9,27.3-27.8,53.7-43.3,79.5
		c-31.2,52.5-28.3,27.7-12.5,85.6c11,54.1,8.2,109.8,1.1,164.3c-1.1,9.1,2,15.4,7.9,21.4c8.7,4.7,1.7,14.4-6.6,12.5
		c-13.5-2.5-27-4.6-40.4-7.5c-14.9-3.3-14.8-3.7-14.2-19c-0.1-9.3-0.8-20-0.5-28.9c-17.2,0.7-34.1,1.3-51,2.4
		c-8.8,1.6-14.2,23.8-19.9,31.3c-8.8,11-26.2,15.4-38.6,21.7c-10.4,3-19.8,7.3-31.2,4.1c15-20.5,20.9-43.2,27.6-66.7
		c-60,28.2-130.1-5.7-169.2-53.2c-19.6-27.9-27.3-52.7-60.2-68.9C195.8,718.2,247,697.4,296.3,675.6z"/>
	<path class="st0" d="M160.7,565.7c5.9-14.6,11.1-27.2,16-40c3.9-10.2,3.3-20.4-1.3-30.3c-13.2-29.3-27.6-58.5-40.2-88
		c35.6-12.9,68.9-31.1,103.3-46.8c13-6.7,13-6.7,10.8-20.9c14.7-7.2,29.4-14.4,45.5-22.2c-1.4-0.3-0.7-0.4-0.5-0.1
		c9.5,10.7,9.7,11,22.4,4.1c36.5-20.2,73.5-38.2,108.9-60.3c71.9,103.8,25.5,88.7,134.9,101.9c0.2,0.6,0.3,1.3,0.5,1.9
		c-53,32.8-108.7,60.3-165.1,86.6C317.2,489.8,241.3,531.5,160.7,565.7z"/>
	<path class="st0" d="M305.7,320.1C254.4,244,183.7,161.4,173,68c0.5-12.5,9.2-24.4,14.2-35.7c11.8-13.1,31.6-17.7,49.3-19.6
		c16-0.8,25.8,8.2,37.2,15.7c40,22.8,63.9,63.6,83.6,103.8c10,26.5,22.1,52.2,34.5,77.6c5.6,12.8,8.8,26.9,13.7,40
		c5.8,10.9,6.1,11.5-4.4,17.4C369.6,285.2,337.8,302.4,305.7,320.1z"/>
	<path class="st0" d="M243.9,350.2c-34.1,15.8-67.2,30.1-100.5,46.6c-4.2,2.1-6.6,1.6-9.4-2.1c-15.8-20.6-32.2-40.7-47.6-61.7
		c-15.9-25.9-30.1-53.3-45.1-79.8c-14.6-26.8-18.9-57.5-25.8-86.9c-4.1-19.1,3.6-34.7,14.7-49.8c18.7-24.1,50.6-8.4,72.9,1.1
		c49.7,30.6,79.3,83.2,101.9,135.4C216.5,286.3,234.3,316,243.9,350.2z"/>
	<path class="st0" d="M419.1,855.7c3.3,3.9,2.8,3.6,7.3,5.3c-5.1,10.8-10,21.5-15.1,32c-0.6,1.2-1.9,2.3-3.1,2.8
		c-16.7,6.7-33.4,13.4-50.1,20c-1.1,0.4-2.6-0.1-4.9-0.2c33.4-50.3,31.2-114.2,33.7-172.3c3.5-2.8,7.3-5.9,11.2-9.1
		c-0.4-0.5-0.7-1.1-1.1-1.6c-30.2,14.1-59.9,28.9-90.5,42.3c-4.6,2-8,1.6-9.5-4.3c-1.5-6.1-3.7-12-5.7-18.4
		c19-11.2,38.4-22.6,57.6-34c5.2-3.1,9.9-3.5,16-1.7c6.9,2,14.5,1.8,21.8,1.8c27,0.5,57.1-0.6,74.4-24.5
		c10.2-14.7,26.6,6.6,41.9-10.7c5.8-6.7,9-15.8,12.9-24.1c0.6-1.3-1.3-3.7-1.5-4.5c13.5-23.5,32.4-42.8,36.9-69.8
		c3.8-10.1,2.8-26,11.1-32.8c6,7.1,11.4,13.5,17.3,20.4c-17.9,31.2-36.1,62.8-54.6,95c-1.5-2-2.6-3.4-3.8-4.9
		c1.6,21.8,12,45.2,13.8,67.9c3.5,27.6,4.5,55.5,5,83.4c0.3,16.9-2.6,33.8-3.3,50.8c-0.7,15.1-7,31.7,11.1,43
		c-0.6,0.5-1.2,0.9-1.8,1.4c-14.6,0.4-29-4.7-43.5-6.3c-6.7-1-9.7-3.9-9.4-11.3c2.1-9.7-6.7-37.5,5.1-39.3c1.8-0.5,3.1-2.4,4.9-3.9
		C474.3,854.9,449.1,857.2,419.1,855.7z"/>
	<path class="st0" d="M306.7,677.3c48.9,28.8,100.4,24.5,153.2,6.4c-18.8,29.1-57.4,30.6-87.6,25.9c-17.6-4.7-28.9,3.4-41.7,11.1
		c-21,11.2-40.9,24.5-61.4,36.7c-7.5,4.2-9.6,19.4-5,26c7.7,11.1,18.8,13.7,29.5,7.3c27.3-15.5,56.7-27.9,85.2-40.6
		c1.6,29.4-2.7,57.7-5.6,86.8c-0.5,5.5-2.6,8.5-7.5,10.5c-36.8,16.4-79.7,3.3-113-16c-46.3-26-52.9-64.4-87.7-97.2
		C212.9,716.4,261.7,702.5,306.7,677.3z"/>
	<path class="st0" d="M274.4,638.3c140.6-1.2,92.1-44,161.9-71.3c58.9-0.4,66.7,2,110-43.1c0.7,0.2,1.4,0.3,2.1,0.5
		c4.8,55-16,117.7-69.8,141c-19.8,9.5-40.2,19.9-62,23.5C361.2,695.6,310,683.8,274.4,638.3z M446.2,610.7c-5.1-9.7,5-9.5,8.7-17.1
		c5.7-8.6,4.7-23.5-6.1-24.4c-0.2,10.5,10.1,13.9-0.6,23.6c-12.4,10.7-29,19.9-43.8,7.7c9.4,12.7,24.5,11.4,36.4,3.4
		c0.9,3.3,1.6,5.9,2.3,8.8c-20.6,18.1-83.9,1.8-88,30.4c-1.9,17.5,17.5,25.5,31.5,26.5c35.7,2.2,68-13.7,94.5-37
		c11.2-9.1,27.8-35.9,10.6-46.3c-5.3-2.5-10.4-2.9-15.3,0.9C466.6,594.9,456.7,602.5,446.2,610.7z"/>
	<path class="st0" d="M518.4,488.5c-1.1,15.1-8,30-22.9,41.2c-47.6,41.1-91.4,20-87.6-42.4c2.6-33.7,22.4-45.4,52.1-57.6
		C495.3,419.3,521.7,453.6,518.4,488.5z M426.3,531.7c6.9,9.4,16.9,20.2,19,2.9c0.2-5.4-5.5-11.9-10-10.7
		C432.5,524.7,430.3,528.1,426.3,531.7z"/>
	<path class="st0" d="M273.4,561.6c3.6-77.3,103-84.2,116.2-6.1c4.7,30.4-28,51.7-53.7,54.8C303.4,617.3,273.8,589.5,273.4,561.6z
		 M326.8,598.1c0.4-13.7-15.8-19.8-16.2-5.8c-0.4,5.4,5.8,13.7,9.3,12.2C323.1,603.2,325.4,599.5,326.8,598.1z"/>
	<path class="st0" d="M267,631.2c-16-22.8-30.3-49.1-37.5-76.8c-2.2-6.5-1.1-11.5,6.7-14.4c9-3.4,17.6-8.2,26.2-12.7
		c4.9-2.2,8.5-7.9,14.4-7c-0.2,1.5,0.2,3.4-0.6,4.4c-10.3,12.8-10.6,28-9.9,43.1c0.6,11.3,6.7,20.5,13.9,28.8
		c17.8,22.4,48.4,28.6,74,16.4c24.3-9.1,47.2-28.5,43.3-57.2c-4.2-31.9-26.5-58.5-58.7-63.1c1.1-1.6,1.7-3.6,3-4.2
		c13.4-6.9,27.1-13.5,40.5-20.4c8.8-3.7,16-12.3,26-12c-14.3,35.6-13.2,87.2,29.2,101.5c-46,14.1-46.6,53-87.2,63.6
		C322.7,630.6,295.7,627.7,267,631.2z"/>
	<path class="st0" d="M452.4,558.7c43.8-6.2,84.4-46.4,71.7-92.4c-4.2-23.5-20.7-37.3-41.6-45.7c1.6-1.5,2.9-3.7,5-4.4
		c12-5.8,13-5.6,21.5,4.7c11.7,14.2,23.6,28.4,28.1,46.9c3.3,13.6,9.6,26.5,8.9,41c-0.1,2.2,1.3,4.5,1.7,5.9
		c-37.6,35.9-40.2,42.5-94.8,46.1C452.6,560,452.5,559.3,452.4,558.7z"/>
	<path class="st0" d="M281,786.7c-18.4-3.3-13.8-28.1,4.9-27.9c4.8-0.3,9.9,8.3,10.3,17.4C296.5,781,288.5,786.5,281,786.7z"/>
	<path class="st0" d="M582.6,564c-5.6-7.3-17.1-14.6-12.7-24.8c2.1-3.5,6.3-5.7,9.8-8.3c0.4-0.3,2.3,0.8,2.7,1.6
		C587.8,543.3,595.3,553.9,582.6,564z"/>
	<path class="st0" d="M468.1,679.4c12.8-7.1,25.7-14.3,38.5-21.4c-4.3,7.5-2.1,19.4-12.5,22c-8.2,2.1-17.2,1.1-25.8,1.5
		C468.2,680.9,468.2,680.1,468.1,679.4z"/>
	<path class="st0" d="M445,656.7c-21.2,6.2-41.1,10.8-62.9,9.7c-2.2,0-5.7-1.6-6.3-3.4c0.8-11.3,15.3-15.5,25-17.2
		C415.7,643.9,435.7,641.2,445,656.7z"/>
	<path class="st0" d="M422.9,625.4c6.8-1.8,13.1-3.6,19.7-5.3c0.8,4.2,2.2,7.6-3.4,9.3C429,632.4,426.1,632.1,422.9,625.4z"/>
</g>
</svg>
