<?xml version="1.0" encoding="utf-8"?>
<!-- Generator: Adobe Illustrator 26.0.0, SVG Export Plug-In . SVG Version: 6.00 Build 0)  -->
<svg version="1.1" id="Capa_1" xmlns="http://www.w3.org/2000/svg" xmlns:xlink="http://www.w3.org/1999/xlink" x="0px" y="0px"
	 viewBox="0 0 595.3 920.4" style="enable-background:new 0 0 595.3 920.4;" xml:space="preserve">
<style type="text/css">
	.st0{fill:#FFFFFF;}
</style>
<g>
	<path d="M296.3,675.6c-35.7-36.3-65.6-75.7-76-128.2c-23.9,10.9-47.1,21.4-72.2,32.8c0.8-4.1,0.9-7,1.9-9.5
		c6.6-16.2,13.4-32.3,20-48.6c5-12.4-1.3-22.8-6.2-33.6C151,460.4,138.5,432,125.3,404c-2.9-6-8.5-10.7-12.3-16.4
		c-8.4-12.7-16.2-25.9-24.8-38.6c-5.8-8.6-12.9-16.3-18.5-25c-9.3-14.4-18.5-28.9-26.5-44c-9.7-18.1-17.9-37-27.1-55.3
		C4.5,201.9,0.8,177.2,0,152.2c-0.7-21.9,10.2-40.1,26.3-53.5c9.7-8.1,23.6-11.1,37-9.4c23.5,2.9,45.1,11.4,62.6,27.7
		c16,14.9,31.7,30.3,46.1,46.8c7.1,8.1,10.9,19.1,16,28.9c8.1,15.7,16.5,31.2,23.8,47.3c7,15.4,12.6,31.5,18.9,47.2
		c1.6,4,3.1,8,4.8,11.9c4.5,10.4,9.1,20.7,14,31.8c11.7-5.5,24.1-11.4,37.9-17.8C274.6,295,262.6,277.3,250,260
		c-13.7-18.8-28.6-36.9-39.5-57.6c-11-21-22.3-41.9-32.9-63c-4.1-8.2-6.9-17-10.3-25.6c-1.1-2.8-2-5.8-3.3-8.5
		c-5.8-12.3-5.9-25.7-3.6-38.2c2.2-12,5.1-24.5,13.4-34.6c2.8-3.4,3.9-8.2,7-11.1c14.3-13.2,31.8-22.5,50.9-21.3
		c22.7,1.5,46.3,4.3,62.4,24.8c9.2,11.7,19.6,22.6,29.8,33.6c12.6,13.5,19.5,30.3,28.2,46c9.7,17.4,20,34.7,28.1,52.9
		c9.6,21.7,20.1,43,25.8,66.3c2.8,11.3,7.9,22.1,12,33.2c0.1,0,0.7,0.1,1-0.1c9.3-5.2,9.5-5.4,15.1,3.4c15.8,25,32,49.8,46.7,75.4
		c5.4,9.4,13,11.7,22.1,12.9c19.6,2.6,39.4,4.8,58.9,7.9c3.7,0.6,6.7,5.1,10,7.7c-2.5,2.6-4.5,5.9-7.5,7.7
		c-19.4,11.3-39.1,22.2-58.9,33.4c7.8,9.7,15.2,18.7,22.6,27.8c12.8,15.7,17.8,34.7,21.9,53.9c4,18.6,7.3,37.4,11.1,57
		c1.2-1,2.8-1.9,3.9-3.3c3-4,5.2-8.6,8.8-11.9c2-1.9,7.5-3.2,8.8-2c7,6.5,14.5,13.3,12.4,24.6c-0.3,1.4-0.1,3.2-0.9,4.1
		c-5.6,6.3-7.6,14.4-11.3,21.5c-9.6,18.4-20.5,36.1-31.1,53.9c-7.6,12.8-15.8,25.3-23.5,38c-1.1,1.9-1.7,4.9-1.1,7
		c3.9,13.6,9.2,26.8,12.1,40.6c7,33.3,8,67.1,6.8,101c-0.7,21.1-3,42.3-5.7,63.3c-1.1,9.1,2,15.4,7.9,21.4c2.1,2.1,5.9,3.4,3.4,7.9
		c-2.3,4.3-5.6,5.4-10,4.6c-13.5-2.5-27-4.6-40.4-7.5c-14.9-3.3-14.8-3.7-14.2-19c0.2-4.9-0.4-9.9-0.5-14.8c-0.1-5,0-9.9,0-14.1
		c-17.2,0.7-34.1,1.3-51,2.4c-2.2,0.1-5,2.3-6.1,4.3c-4.8,8.9-8.8,18.2-13.8,27c-1.7,3-4.8,5.6-7.9,7.1
		c-10.1,5.2-20.2,10.4-30.7,14.6c-7.1,2.8-14.9,4-22.5,5.5c-2.2,0.4-4.8-0.7-8.7-1.4c15-20.5,20.9-43.2,27.6-66.7
		c-18.2,9.2-36.9,11.6-55.9,9.6c-11.4-1.2-22.9-3.5-33.8-7.1c-32-10.5-58.1-30.3-79.5-55.7c-8.1-9.7-13.1-21.9-20.5-32.3
		c-9.7-13.9-19.6-28-36.9-33.9c-1.1-0.4-1.9-1.8-2.8-2.7c1.1-0.9,2.2-2.6,3.4-2.7c26.8-2.3,51.5-12,76.1-21.5
		C248.1,696.4,272.1,685.7,296.3,675.6z"/>
	<path d="M160.7,565.7c7.2-2.9,12.5-4.7,17.6-7.1c18.8-9,37.3-18.3,56.1-27.1c16.7-7.9,33.8-14.9,50.3-23.1
		c17.6-8.8,34.5-18.8,52-27.7c19.6-10,39.4-19.5,59.2-29c25.5-12.4,51.2-24.6,76.7-36.9c7.5-3.6,15.1-6.9,22.3-11
		c16-9.1,31.7-18.7,47.6-28.1c6.1-3.6,12.3-7.1,18.5-10.6c-0.2-0.6-0.3-1.3-0.5-1.9c-19.4-2.4-38.8-4.8-58.2-7
		c-10.9-1.2-20.4-3.7-26.6-14.2c-11.7-20-24.1-39.6-36.3-59.3c-4.3-7-8.9-13.8-13.8-21.4c-6.1,3.8-11.4,7.5-17.1,10.6
		c-30.6,16.7-61.1,33.3-91.8,49.7c-12.8,6.8-12.9,6.6-22.4-4.1c-0.2-0.3-0.9-0.2,0.5,0.1c-16,7.8-30.8,15.1-45.5,22.2
		c2.3,14.2,2.3,14.2-10.8,20.9c-1.5,0.8-2.9,1.5-4.4,2.2c-27.4,12.9-54.8,25.8-82.3,38.5c-5.2,2.4-10.9,4-16.6,6.1
		c0,0,0.2,0.9,0.5,1.8c13.2,28.8,26.5,57.5,39.7,86.2c4.6,9.9,5.2,20.1,1.3,30.3C171.8,538.5,166.5,551.1,160.7,565.7z"/>
	<path d="M305.7,320.1c32.1-17.7,64-34.9,95.5-52.7c10.5-5.9,10.1-6.5,4.4-17.4c-1-1.8-1.4-4-2.1-6c-3.8-11.3-6.9-23-11.6-34
		c-6.7-15.5-15-30.3-21.9-45.6c-4.7-10.4-7.4-21.8-12.6-32c-9.1-17.8-18.3-35.7-29.4-52.2c-8.6-12.8-19.6-24.1-30.7-34.9
		c-6.8-6.7-15.4-11.4-23.5-16.7c-11.4-7.4-21.2-16.5-37.2-15.7c-16.2,0.8-29.8,6.4-43.3,13.7c-2.4,1.3-4.8,3.5-6,5.9
		c-4.2,7.9-8,15.9-11.5,24.1c-1.6,3.6-3.3,7.9-2.7,11.6c2.1,13.1,3,26.2,7.1,39.4c8.3,26.6,21.1,50.9,34.1,75.1
		c10.6,19.7,23.3,38.3,35.6,57c13.7,20.8,28,41.1,42.1,61.6C296,307.1,300.4,312.9,305.7,320.1z"/>
	<path d="M243.9,350.2c-1.8-6.1-2.8-11-4.6-15.5c-11.4-27.2-24-54-34.3-81.6c-8.7-23.3-21.2-44.3-34.3-64.9
		c-12.6-19.8-26-39.5-45.3-54c-7.4-5.5-13.3-12.3-22.3-16.5c-12.4-5.8-24.4-10.8-38-12.8c-13.8-2-25.5-1.1-34.9,11.7
		c-11.1,15.1-18.7,30.7-14.7,49.8c4.1,19.3,8.4,38.6,13.7,57.7c2.8,10.1,7.3,20,12.2,29.3c8.8,16.8,18.6,33.2,28,49.8
		c5.7,10,10.3,20.7,17.1,30c15.3,20.9,31.8,41.1,47.6,61.7c2.8,3.7,5.3,4.2,9.4,2.1c10.7-5.5,21.7-10.6,32.7-15.6
		C198.4,370.9,220.8,360.7,243.9,350.2z"/>
	<path d="M419.1,855.7c15.2,0,29,1,42.7-0.3c13.6-1.2,27-4.6,41.3-7.2c-1.8,1.5-3.2,3.4-4.9,3.9c-6.8,2-6.4,7.1-6.1,12.4
		c0.4,9,1.4,18,1,26.9c-0.3,7.3,2.7,10.2,9.4,11.3c12.6,2,25.2,4.4,37.8,6.5c1.8,0.3,3.8-0.1,5.7-0.2c0.6-0.5,1.2-0.9,1.8-1.4
		c-18-11.3-11.8-27.8-11.1-43c0.8-16.9,3.7-33.9,3.3-50.8c-0.5-27.8-1.5-55.8-5-83.4c-2.9-22.5-9.7-44.5-14.7-66.8
		c0-0.2,0.4-0.6,0.9-1.1c1.2,1.5,2.3,2.9,3.8,4.9c18.5-32.2,36.7-63.9,54.6-95c-5.9-6.9-11.3-13.3-17.3-20.4
		c-1.7,1.9-3.9,3.2-4.4,4.9c-2.5,9.2-4.3,18.6-6.7,27.9c-1.9,7.2-2.9,15.1-6.5,21.4c-9.4,16.3-19.9,31.9-30.4,48.4
		c0.3,0.7,2.1,3.2,1.5,4.5c-3.9,8.3-7,17.3-12.9,24.1c-6.8,7.8-17.4,8.6-27.1,5.8c-6.8-2-10.5-0.6-14.8,4.9
		c-10.1,12.7-23.6,20.8-39.7,22.9c-11.4,1.5-23.1,1.5-34.7,1.6c-7.3,0.1-15,0.2-21.8-1.8c-6.1-1.8-10.8-1.4-16,1.7
		c-19.2,11.5-38.6,22.8-57.6,34c2,6.4,4.2,12.3,5.7,18.4c1.5,5.8,4.9,6.3,9.5,4.3c6.9-3,13.8-6.1,20.7-9.3c23.3-11,46.6-22,69.8-33
		c0.4,0.5,0.7,1.1,1.1,1.6c-3.8,3.1-7.7,6.2-11.2,9.1c0,3.8,0.2,7.6,0,11.3c-0.7,14.4-1.9,28.8-2.2,43.2c-0.7,32-7.7,62.8-17.5,93
		c-2.1,6.5-6.3,12.3-9.7,18.4c-1.1,2-2.5,3.7-4.3,6.4c2.4,0.1,3.8,0.6,4.9,0.2c16.7-6.6,33.4-13.2,50.1-20c1.2-0.5,2.6-1.6,3.1-2.8
		c5.1-10.6,10-21.2,15.1-32c-1.9-0.8-3.1-1.1-4.1-1.8C421.5,858.6,420.9,857.7,419.1,855.7z"/>
	<path d="M306.7,677.3c-22.2,14.4-46.9,21.3-70.2,31s-47.6,17.4-71.3,25.9c13.6,12.9,25.4,28,35,45.1c6.2,11.1,15.1,21.2,24.2,30.2
		c8.4,8.4,18.4,15.5,28.5,21.9c9.1,5.7,19,10.2,29,14.1c8,3.1,16.9,3.9,25.2,6.5c20.3,6.3,39.7,3,58.8-4.6c4.9-2,7-5,7.5-10.5
		c1.5-17.6,4.1-35.1,5.4-52.8c0.8-11.2,0.2-22.5,0.2-34c-1,0.2-2,0.2-2.8,0.6c-27.1,14-56.1,24.3-82.4,40
		c-10.7,6.4-21.8,3.8-29.5-7.3c-4.6-6.6-2.5-21.8,5-26c7.3-4.1,14.2-8.2,21.1-13c12.7-8.8,26.9-15.6,40.3-23.7
		c12.8-7.7,24.2-15.8,41.7-11.1c14.1,3.7,30.2,1.5,45.2,0c17.6-1.8,31.9-10.7,42.4-25.9C407.1,701.8,355.6,706,306.7,677.3z"/>
	<path d="M274.4,638.3c6.4,6.9,11.7,14.7,19,20c14.4,10.3,28.3,21.5,46.7,25.4c12.6,2.7,24.7,7.5,38.1,6.6
		c12.7-0.8,25.6,0.2,38.2-1.6c10.4-1.5,20.6-5.2,30.4-9c10.8-4.2,21.1-9.6,31.6-14.5c26.2-12.2,45.4-31.3,56.5-57.9
		c8.8-21.1,14.1-43.1,14-66.1c0-5.7-0.4-11.3-0.7-17c-0.7-0.2-1.4-0.3-2.1-0.5c-0.3,0.6-0.5,1.3-1,1.7c-12.6,11-24,24.3-38.3,32.2
		c-17.2,9.6-37.5,10.4-57.4,8.4c-4.4-0.4-9.1-0.4-13.3,0.8c-15.1,4.5-28.3,12.8-37.1,25.9c-17,25.4-41.3,38.3-70.6,42.1
		C311.2,637.2,293.4,637.2,274.4,638.3z"/>
	<path d="M518.4,488.5c0.6-20-4.2-35-15.5-48c-8.7-10-30.5-15.9-42.9-10.8c-5.7,2.3-10.9,5.9-16.6,7.9
		c-23.6,8.3-33.1,27.5-35.5,49.7c-1.4,13,1.9,27.2,5.9,40c5.3,17.1,24.9,26.4,43.5,23c15.1-2.8,26.5-11.8,38.2-20.6
		C510.4,518.5,517.3,503.6,518.4,488.5z"/>
	<path d="M273.4,561.6c0.1,2.6-0.1,5.3,0.5,7.7c5.7,23.8,31.7,47.8,62,41c17-3.8,34-8.1,45.4-25c6.7-9.9,10.3-18.7,8.3-29.8
		c-1.1-5.9-3.9-11.4-5.6-17.1c-5.8-19.2-19.8-31-38-36.4c-15.1-4.5-30.3-2.3-44.6,7.2C282.2,522,274.1,539.6,273.4,561.6z"/>
	<path d="M267,631.2c5.8-0.6,9.6-1.3,13.4-1.4c12.7-0.5,25.5-0.1,38.1-1.5c10.7-1.2,21.2-4.2,31.7-6.8c14.8-3.6,26.6-12.1,35.8-23.9
		c10.1-13,20.5-25.5,35.8-32.7c5.3-2.5,10.7-4.8,15.6-7c-13-5-24.4-12.4-29.8-25.4c-9.6-23.1-12-46.8-0.4-70.3
		c0.8-1.7,0.7-3.9,1-5.8c-2.2,0.2-4.7-0.3-6.4,0.7c-6.6,3.6-12.9,7.9-19.6,11.3c-13.4,7-27,13.5-40.5,20.4c-1.3,0.7-1.9,2.6-3,4.2
		c5.8,1.3,11.1,1.3,15.3,3.5c24.3,12.6,40,31.6,43.4,59.6c2.3,18.9-5.9,33.2-19.8,44.4c-6.8,5.5-15.3,9.3-23.5,12.8
		c-12.4,5.4-26,7.8-38.9,5.2c-13.7-2.7-25.7-10.6-35.1-21.6c-7.1-8.4-13.3-17.6-13.9-28.8c-0.8-15.2-0.4-30.3,9.9-43.1
		c0.8-1,0.4-2.9,0.6-4.4c-1.5,0.1-3.3-0.2-4.4,0.4c-3.4,2-6.5,4.7-10,6.6c-8.6,4.5-17.1,9.3-26.2,12.7c-7.8,2.9-8.9,7.9-6.7,14.4
		c4.4,13,8.2,26.4,14.2,38.6C250.5,606.7,259.6,619.2,267,631.2z"/>
	<path d="M452.4,558.7c0.1,0.7,0.2,1.3,0.3,2c13.2-1.6,26.7-2,39.5-5.2c19.5-4.9,33.5-18.6,46.3-33.4c2.4-2.8,5.8-4.9,9-7.5
		c-0.4-1.4-1.8-3.7-1.7-5.9c0.7-14.5-5.6-27.5-8.9-41c-4.5-18.4-16.4-32.6-28.1-46.9c-8.5-10.3-9.5-10.5-21.5-4.7
		c-0.4,0.2-1,0.3-1.3,0.6c-1.3,1.2-2.4,2.5-3.7,3.8c1.4,0.9,2.7,2.1,4.2,2.7c2.8,1.2,6,1.7,8.6,3.1c15.7,8.9,25.1,22.2,28.8,39.9
		c3.8,18.1,3.5,36.8-7.3,51.1C500.9,538.4,480.7,555.6,452.4,558.7z"/>
	<path d="M281,786.7c7.5-0.1,15.4-5.7,15.2-10.6c-0.4-9-5.5-17.7-10.3-17.4c-10.8,0.7-16.8,6.7-16.7,16.5
		C269.3,780.1,276.2,786.8,281,786.7z"/>
	<path d="M582.6,564c6.5-6,8.9-11.3,6.2-17.9c-1.9-4.6-4.1-9.1-6.4-13.6c-0.4-0.8-2.3-1.8-2.7-1.6c-3.5,2.5-7.7,4.8-9.8,8.3
		c-1.5,2.5-1.2,7.5,0.4,10.1C573.5,554.6,578.2,559,582.6,564z"/>
	<path d="M468.1,679.4c0.1,0.7,0.1,1.4,0.2,2.2c8.6-0.4,17.6,0.6,25.8-1.5c10.3-2.7,8.2-14.6,12.5-22
		C493.8,665.1,480.9,672.3,468.1,679.4z"/>
	<path class="st0" d="M160.7,565.7c5.9-14.6,11.1-27.2,16-40c3.9-10.2,3.3-20.4-1.3-30.3c-13.2-28.7-26.5-57.5-39.7-86.2
		c-0.4-0.8-0.5-1.8-0.5-1.8c5.7-2.1,11.4-3.6,16.6-6.1c27.5-12.7,54.9-25.6,82.3-38.5c1.5-0.7,3-1.5,4.4-2.2
		c13-6.7,13-6.7,10.8-20.9c14.7-7.2,29.4-14.4,45.5-22.2c-1.4-0.3-0.7-0.4-0.5-0.1c9.5,10.7,9.7,11,22.4,4.1
		c30.7-16.4,61.3-33.1,91.8-49.7c5.6-3.1,11-6.8,17.1-10.6c4.9,7.6,9.5,14.4,13.8,21.4c12.2,19.7,24.6,39.3,36.3,59.3
		c6.2,10.5,15.7,13,26.6,14.2c19.4,2.2,38.8,4.6,58.2,7c0.2,0.6,0.3,1.3,0.5,1.9c-6.2,3.5-12.3,7-18.5,10.6
		c-15.9,9.4-31.6,18.9-47.6,28.1c-7.2,4.1-14.8,7.4-22.3,11c-25.6,12.3-51.2,24.5-76.7,36.9c-19.8,9.6-39.6,19-59.2,29
		c-17.5,8.9-34.5,19-52,27.7c-16.5,8.2-33.6,15.2-50.3,23.1c-18.8,8.9-37.4,18.2-56.1,27.1C173.2,561,167.8,562.8,160.7,565.7z"/>
	<path class="st0" d="M305.7,320.1c-5.2-7.2-9.7-13-13.8-19c-14.1-20.5-28.4-40.8-42.1-61.6c-12.3-18.7-25-37.3-35.6-57
		c-13-24.2-25.7-48.5-34.1-75.1C176,94.2,175,81.2,173,68c-0.6-3.6,1.2-7.9,2.7-11.6c3.5-8.2,7.4-16.2,11.5-24.1
		c1.3-2.4,3.6-4.6,6-5.9c13.5-7.4,27.1-12.9,43.3-13.7c16-0.8,25.8,8.2,37.2,15.7c8,5.3,16.7,10,23.5,16.7
		c11,10.9,22.1,22.2,30.7,34.9c11.1,16.5,20.4,34.4,29.4,52.2c5.2,10.2,7.9,21.6,12.6,32c6.9,15.4,15.2,30.2,21.9,45.6
		c4.7,10.9,7.8,22.6,11.6,34c0.7,2,1.1,4.1,2.1,6c5.8,10.9,6.1,11.5-4.4,17.4C369.6,285.2,337.8,302.4,305.7,320.1z"/>
	<path class="st0" d="M243.9,350.2c-23,10.5-45.4,20.7-67.8,31c-11,5.1-21.9,10.1-32.7,15.6c-4.2,2.1-6.6,1.6-9.4-2.1
		c-15.8-20.6-32.2-40.7-47.6-61.7c-6.8-9.2-11.4-19.9-17.1-30c-9.4-16.6-19.1-32.9-28-49.8C36.4,244,32,234.1,29.2,224
		c-5.3-19-9.6-38.3-13.7-57.7c-4.1-19.1,3.6-34.7,14.7-49.8c9.4-12.8,21.1-13.7,34.9-11.7c13.6,1.9,25.6,7,38,12.8
		c9,4.2,14.9,11,22.3,16.5c19.4,14.5,32.8,34.1,45.3,54c13.1,20.6,25.7,41.6,34.3,64.9c10.3,27.6,22.9,54.4,34.3,81.6
		C241.1,339.1,242.1,344,243.9,350.2z"/>
	<path class="st0" d="M419.1,855.7c1.8,2,2.4,2.9,3.2,3.5c0.9,0.6,2.1,1,4.1,1.8c-5.1,10.8-10,21.5-15.1,32
		c-0.6,1.2-1.9,2.3-3.1,2.8c-16.7,6.7-33.4,13.4-50.1,20c-1.1,0.4-2.6-0.1-4.9-0.2c1.8-2.7,3.2-4.4,4.3-6.4
		c3.4-6.1,7.6-11.9,9.7-18.4c9.8-30.2,16.9-61,17.5-93c0.3-14.4,1.5-28.8,2.2-43.2c0.2-3.7,0-7.5,0-11.3c3.5-2.8,7.3-5.9,11.2-9.1
		c-0.4-0.5-0.7-1.1-1.1-1.6c-23.3,11-46.5,22.1-69.8,33c-6.8,3.2-13.7,6.3-20.7,9.3c-4.6,2-8,1.6-9.5-4.3c-1.5-6.1-3.7-12-5.7-18.4
		c19-11.2,38.4-22.6,57.6-34c5.2-3.1,9.9-3.5,16-1.7c6.9,2,14.5,1.8,21.8,1.8c11.6-0.1,23.3-0.1,34.7-1.6
		c16.1-2.1,29.6-10.2,39.7-22.9c4.3-5.5,8-6.9,14.8-4.9c9.7,2.8,20.3,2.1,27.1-5.8c5.8-6.7,9-15.8,12.9-24.1
		c0.6-1.3-1.3-3.7-1.5-4.5c10.4-16.5,21-32.1,30.4-48.4c3.6-6.3,4.6-14.1,6.5-21.4c2.4-9.3,4.2-18.6,6.7-27.9
		c0.5-1.8,2.7-3.1,4.4-4.9c6,7.1,11.4,13.5,17.3,20.4c-17.9,31.2-36.1,62.8-54.6,95c-1.5-2-2.6-3.4-3.8-4.9
		c-0.4,0.5-0.9,0.9-0.9,1.1c5,22.2,11.8,44.3,14.7,66.8c3.5,27.6,4.5,55.5,5,83.4c0.3,16.9-2.6,33.8-3.3,50.8
		c-0.7,15.1-7,31.7,11.1,43c-0.6,0.5-1.2,0.9-1.8,1.4c-1.9,0.1-3.9,0.5-5.7,0.2c-12.6-2.1-25.2-4.5-37.8-6.5
		c-6.7-1-9.7-3.9-9.4-11.3c0.4-8.9-0.6-17.9-1-26.9c-0.2-5.3-0.7-10.4,6.1-12.4c1.8-0.5,3.1-2.4,4.9-3.9c-14.2,2.6-27.6,6-41.3,7.2
		C448.2,856.7,434.3,855.7,419.1,855.7z"/>
	<path class="st0" d="M306.7,677.3c48.9,28.8,100.4,24.5,153.2,6.4c-10.6,15.2-24.8,24.2-42.4,25.9c-15,1.5-31.1,3.7-45.2,0
		c-17.6-4.7-28.9,3.4-41.7,11.1c-13.3,8-27.5,14.8-40.3,23.7c-6.9,4.8-13.8,8.9-21.1,13c-7.5,4.2-9.6,19.4-5,26
		c7.7,11.1,18.8,13.7,29.5,7.3c26.3-15.7,55.3-25.9,82.4-40c0.8-0.4,1.8-0.4,2.8-0.6c0,11.5,0.7,22.8-0.2,34
		c-1.3,17.6-3.9,35.1-5.4,52.8c-0.5,5.5-2.6,8.5-7.5,10.5c-19.1,7.6-38.5,10.9-58.8,4.6c-8.3-2.6-17.1-3.4-25.2-6.5
		c-10-3.8-20-8.4-29-14.1c-10.1-6.4-20.1-13.5-28.5-21.9c-9.1-9.1-18-19.1-24.2-30.2c-9.6-17.1-21.4-32.2-35-45.1
		c23.7-8.5,47.9-16.2,71.3-25.9C259.8,698.5,284.5,691.6,306.7,677.3z"/>
	<path class="st0" d="M274.4,638.3c19-1.1,36.8-1,54.2-3.3c29.3-3.8,53.6-16.7,70.6-42.1c8.8-13.1,22-21.4,37.1-25.9
		c4.1-1.2,8.9-1.3,13.3-0.8c19.9,2,40.2,1.2,57.4-8.4c14.3-8,25.7-21.3,38.3-32.2c0.5-0.4,0.6-1.1,1-1.7c0.7,0.2,1.4,0.3,2.1,0.5
		c0.2,5.7,0.7,11.3,0.7,17c0.1,23-5.2,45.1-14,66.1c-11.1,26.6-30.4,45.7-56.5,57.9c-10.5,4.9-20.8,10.3-31.6,14.5
		c-9.9,3.8-20.1,7.5-30.4,9c-12.5,1.8-25.5,0.7-38.2,1.6c-13.3,0.9-25.4-3.9-38.1-6.6c-18.4-4-32.3-15.1-46.7-25.4
		C286.2,653,280.8,645.1,274.4,638.3z M446.2,610.7c-1.7-4.2-2.8-7.6,2.5-10.4c2.6-1.3,4.5-4.2,6.2-6.7c5-7.3,4.4-18.3-1.2-22.9
		c-1.2-1-3.3-1-4.9-1.5c0.1,1.7-0.4,3.7,0.4,5c4.9,7.8,5.6,12.6-1,18.6c-5.9,5.4-13.4,9.5-20.8,12.6c-8.2,3.4-15.8-0.3-23-4.9
		c2.8,3.2,5.9,5.9,9.4,7.7c9.7,4.9,18.3,0.3,27-4.3c0.9,3.3,1.6,5.9,2.3,8.8c-9.2,6.1-19.2,8.7-30.1,9.5
		c-14.1,1.1-28.2,2.8-42.1,5.4c-7.9,1.5-15,7.3-15.8,15.5c-0.5,5.6,2,14,6.1,16.9c7.3,5.1,16.8,9.5,25.4,9.6
		c25.9,0.4,50.8-4.7,72.3-20.5c7.4-5.5,15.3-10.4,22.2-16.5c10-8.8,17-19.7,17.7-33.5c0.3-5.5-1.5-10.2-7.1-12.8
		c-5.3-2.5-10.4-2.9-15.3,0.9C466.6,594.9,456.7,602.5,446.2,610.7z"/>
	<path class="st0" d="M518.4,488.5c-1.1,15.1-8,30-22.9,41.2c-11.8,8.8-23.1,17.8-38.2,20.6c-18.6,3.4-38.2-5.8-43.5-23
		c-4-12.8-7.3-27-5.9-40c2.4-22.1,11.9-41.4,35.5-49.7c5.8-2,11-5.6,16.6-7.9c12.4-5.1,34.1,0.8,42.9,10.8
		C514.2,453.5,519,468.5,518.4,488.5z M426.3,531.7c4.6,4.9,7.4,10.6,11.6,11.8c5.1,1.5,7.2-4.1,7.4-8.9c0.2-5.4-5.5-11.9-10-10.7
		C432.5,524.7,430.3,528.1,426.3,531.7z"/>
	<path class="st0" d="M273.4,561.6c0.7-22,8.8-39.6,28-52.4c14.3-9.5,29.5-11.7,44.6-7.2c18.1,5.4,32.1,17.2,38,36.4
		c1.7,5.8,4.5,11.3,5.6,17.1c2,11.1-1.6,20-8.3,29.8c-11.5,16.9-28.4,21.1-45.4,25c-30.3,6.8-56.2-17.2-62-41
		C273.2,566.9,273.5,564.2,273.4,561.6z M326.8,598.1c-0.2-8.2-5.3-14-10-13.8c-5,0.2-6,4.1-6.2,8c-0.4,5.4,5.8,13.7,9.3,12.2
		C323.1,603.2,325.4,599.5,326.8,598.1z"/>
	<path class="st0" d="M267,631.2c-7.5-12-16.5-24.5-23.3-38.2c-6.1-12.2-9.8-25.6-14.2-38.6c-2.2-6.5-1.1-11.5,6.7-14.4
		c9-3.4,17.6-8.2,26.2-12.7c3.5-1.8,6.5-4.6,10-6.6c1.2-0.7,2.9-0.3,4.4-0.4c-0.2,1.5,0.2,3.4-0.6,4.4c-10.3,12.8-10.6,28-9.9,43.1
		c0.6,11.3,6.7,20.5,13.9,28.8c9.3,11,21.3,18.9,35.1,21.6c13,2.6,26.5,0.2,38.9-5.2c8.2-3.5,16.7-7.3,23.5-12.8
		c13.8-11.2,22.1-25.5,19.8-44.4c-3.5-28-19.2-47-43.4-59.6c-4.2-2.2-9.4-2.2-15.3-3.5c1.1-1.6,1.7-3.6,3-4.2
		c13.4-6.9,27.1-13.5,40.5-20.4c6.7-3.5,12.9-7.8,19.6-11.3c1.8-0.9,4.3-0.5,6.4-0.7c-0.3,2-0.2,4.1-1,5.8
		c-11.6,23.5-9.2,47.2,0.4,70.3c5.4,13,16.8,20.4,29.8,25.4c-4.9,2.2-10.3,4.5-15.6,7c-15.3,7.3-25.7,19.7-35.8,32.7
		c-9.2,11.8-21,20.3-35.8,23.9c-10.5,2.6-21,5.6-31.7,6.8c-12.6,1.4-25.4,1-38.1,1.5C276.6,629.9,272.8,630.6,267,631.2z"/>
	<path class="st0" d="M452.4,558.7c28.3-3.1,48.5-20.3,64.4-41.3c10.8-14.3,11.1-33,7.3-51.1c-3.7-17.7-13.2-31-28.8-39.9
		c-2.6-1.5-5.8-2-8.6-3.1c-1.5-0.6-2.8-1.8-4.2-2.7c1.2-1.3,2.4-2.6,3.7-3.8c0.3-0.3,0.9-0.4,1.3-0.6c12-5.8,13-5.6,21.5,4.7
		c11.7,14.2,23.6,28.4,28.1,46.9c3.3,13.6,9.6,26.5,8.9,41c-0.1,2.2,1.3,4.5,1.7,5.9c-3.2,2.6-6.6,4.7-9,7.5
		c-12.8,14.8-26.8,28.6-46.3,33.4c-12.8,3.2-26.3,3.5-39.5,5.2C452.6,560,452.5,559.3,452.4,558.7z"/>
	<path class="st0" d="M281,786.7c-4.9,0.1-11.7-6.5-11.8-11.4c-0.1-9.9,5.9-15.8,16.7-16.5c4.8-0.3,9.9,8.3,10.3,17.4
		C296.5,781,288.5,786.5,281,786.7z"/>
	<path class="st0" d="M582.6,564c-4.3-5-9-9.4-12.3-14.7c-1.6-2.6-1.9-7.6-0.4-10.1c2.1-3.5,6.3-5.7,9.8-8.3
		c0.4-0.3,2.3,0.8,2.7,1.6c2.3,4.5,4.5,8.9,6.4,13.6C591.4,552.7,589.1,558,582.6,564z"/>
	<path class="st0" d="M468.1,679.4c12.8-7.1,25.7-14.3,38.5-21.4c-4.3,7.5-2.1,19.4-12.5,22c-8.2,2.1-17.2,1.1-25.8,1.5
		C468.2,680.9,468.2,680.1,468.1,679.4z"/>
	<path d="M446.2,610.7c10.5-8.1,20.4-15.8,30.2-23.4c4.9-3.8,10-3.3,15.3-0.9c5.5,2.6,7.4,7.2,7.1,12.8
		c-0.7,13.8-7.7,24.7-17.7,33.5c-6.9,6.1-14.7,11-22.2,16.5c-21.5,15.8-46.5,20.9-72.3,20.5c-8.6-0.1-18.1-4.5-25.4-9.6
		c-4.1-2.9-6.6-11.3-6.1-16.9c0.8-8.2,7.9-13.9,15.8-15.5c13.9-2.7,28-4.3,42.1-5.4c10.9-0.9,20.9-3.4,30.1-9.5
		c-0.8-2.9-1.5-5.5-2.3-8.8c-8.7,4.7-17.4,9.3-27,4.3c-3.5-1.8-6.6-4.5-9.4-7.7c7.2,4.6,14.9,8.3,23,4.9c7.4-3.1,14.9-7.2,20.8-12.6
		c6.6-6.1,5.9-10.9,1-18.6c-0.8-1.3-0.3-3.3-0.4-5c1.7,0.5,3.7,0.5,4.9,1.5c5.6,4.6,6.2,15.6,1.2,22.9c-1.7,2.5-3.7,5.4-6.2,6.7
		C443.4,603,444.5,606.5,446.2,610.7z"/>
	<path d="M445,656.7c-3.3-7.2-8.8-8.8-14.1-10.5c-9.9-3.1-19.9-2-30-0.5c-8.7,1.4-16.5,4-22.5,10.5c-1.6,1.7-3.2,5-2.5,6.7
		c0.6,1.7,4.1,3.4,6.3,3.4c9.9-0.1,19.9,0.1,29.5-1.5C422.6,663.1,433.4,659.6,445,656.7z"/>
	<path d="M422.9,625.4c3.1,6.7,6,7,16.3,4c5.6-1.7,4.2-5.1,3.4-9.3C436,621.8,429.7,623.5,422.9,625.4z"/>
	<path d="M426.3,531.7c4-3.6,6.1-7,9-7.8c4.5-1.1,10.2,5.4,10,10.7c-0.2,4.8-2.3,10.4-7.4,8.9C433.7,542.3,430.9,536.6,426.3,531.7z
		"/>
	<path d="M326.8,598.1c-1.4,1.4-3.8,5-7,6.4c-3.5,1.5-9.6-6.8-9.3-12.2c0.3-3.8,1.3-7.7,6.2-8C321.5,584.1,326.6,590,326.8,598.1z"
		/>
	<path class="st0" d="M445,656.7c-11.6,2.9-22.3,6.4-33.4,8.2c-9.7,1.6-19.7,1.4-29.5,1.5c-2.2,0-5.7-1.6-6.3-3.4
		c-0.6-1.8,1-5,2.5-6.7c6-6.5,13.8-9.1,22.5-10.5c10.1-1.6,20-2.7,30,0.5C436.1,647.9,441.6,649.5,445,656.7z"/>
	<path class="st0" d="M422.9,625.4c6.8-1.8,13.1-3.6,19.7-5.3c0.8,4.2,2.2,7.6-3.4,9.3C429,632.4,426.1,632.1,422.9,625.4z"/>
</g>
</svg>
