<?xml version="1.0" encoding="utf-8"?>
<!-- Generator: Adobe Illustrator 26.0.0, SVG Export Plug-In . SVG Version: 6.00 Build 0)  -->
<svg version="1.1" id="Capa_1" xmlns="http://www.w3.org/2000/svg" xmlns:xlink="http://www.w3.org/1999/xlink" x="0px" y="0px"
	 viewBox="0 0 595.3 819.8" style="enable-background:new 0 0 595.3 819.8;" xml:space="preserve">
<style type="text/css">
	.st0{fill:#FFFFFF;}
</style>
<g>
	<path d="M460,460.6c7.5,0.5,14.8,0.9,22.8,1.5c-0.3-2.3-0.6-4.2-0.9-6.2c-0.1-0.8-0.1-1.5,0-2.3c0.5-3.1,1.5-6.2-0.2-9.3
		c-0.3-0.6-0.2-1.5-0.1-2.3c0.2-2.6,0.5-5.2,0.8-7.8c0.1-1.1,0.5-2.3,0.6-3.4c0.1-0.6,0.2-1.4-0.1-1.7c-1.3-1.6-1.1-3.2-0.8-5.1
		c0.6-3.6,1-7.2,1.1-10.9c0.1-2.6-0.7-5.2-0.8-7.8c-0.3-6.8-0.3-13.7,0.9-20.5c0.7-3.9,1.5-7.9,2.2-11.8c0.5-2.6,0.7-5.2,1.2-7.8
		c0.9-4.5,1.5-9.2,3.2-13.5c2.4-6,4-12.2,5.6-18.4c0.9-3.6,2-7.2,4.2-10.4c2-2.9,2.7-6.7,4.1-10.1c1-2.5,2.3-4.9,3.5-7.3
		c2.7-5.4,5-11.1,8.3-16.1c2.8-4.3,5-9,9.2-12.3c1.2-0.9,1.6-3,2.8-4c1.9-1.5,4.3-2.4,6.4-3.8c2-1.3,3.9-2.8,5.6-4.4
		c2.9-2.9,6.1-4.9,10.3-5.2c6.3-0.5,12.3,0.9,18.3,2.6c3.3,0.9,6.5,2.2,9.5,3.8c1.4,0.7,2.3,2.5,3.3,3.9c2.1,3.1,4.2,6.2,6.1,9.4
		c2.5,4.4,3.9,9.3,4.6,14.3c0.6,4,1.4,8,2,12c0.5,3.7,0.7,7.4,1,11.1c0.2,2.6,0.5,5.3,0.5,7.9c0,2.1-0.3,4.2-0.4,6.3
		c-0.1,2.3-0.2,4.6-0.2,7c-0.1,4-0.4,7.9-2.1,11.6c-0.5,1-0.5,2.3-0.6,3.4c-1,7.5-1.8,15.1-2.9,22.6c-0.2,1.2-1.1,2.3-1.7,3.5
		c-0.2,0.3-0.5,0.6-0.6,1c-0.9,3.2-1.6,6.5-2.5,9.6c-0.9,3.1-2.2,6.1-3.2,9.1c-0.7,2-1.1,4.1-1.8,6.2c-1.1,3.6-2.7,7.2-3.2,10.9
		c-0.5,3.5-2.6,6-3.6,9.1c-1.3,3.9-2.5,7.9-3.8,11.8c-0.6,1.7-1.5,3.2-2.2,4.8c-2.1,4.7-4,9.5-6.1,14.2c-2.2,4.8-4.4,9.6-6.9,14.2
		c-1.7,3.2-4,6.1-5.7,9.3c-1,1.8-1.4,4-2.2,5.9c-0.4,1-1,1.8-1.7,2.9c0.2,0.2,0.6,0.6,1,0.9c8.7,6.4,16.8,13.5,22.3,22.9
		c1.9,3.3,3.6,6.9,4.8,10.5c1.6,4.7,2.5,9.6,3.7,14.5c0.2,0.8,0.3,1.6,0.3,2.3c0,4.9-0.2,9.8-0.1,14.6c0.2,6.8,0.4,13.6-0.7,20.4
		c-0.1,0.5,0.4,1.4,0.9,1.7c2.2,1.6,2.7,3.8,3,6.3c0.3,3.2,1,6.4,1.4,9.6c0.2,1.5,0.2,3.1,0.2,4.7c-0.1,6,0.2,12-0.4,18
		c-0.4,4.1-2,8-3.3,12c-1,3.2-2,6.4-3.5,9.4c-2,3.9-3.9,7.9-7.2,11.1c-1.9,1.8-3.4,4.1-5.3,5.9c-2.2,2.1-4.7,4.1-7.2,5.9
		c-3,2.1-6.2,4.1-9.3,6c-4.2,2.6-8.6,4.8-13.5,5.7c-1.3,0.3-1.7,0.7-1.8,2.1c-0.2,1.7-1,3.3-1.6,5c-0.2,0-0.5-0.1-0.7-0.1
		c0.2,0.3,0.4,0.6,0.7,0.8c5.9,4,9.6,9.3,10.8,16.3c0.5,3.1,1.3,6.2,1.7,9.3c0.8,6.6-1.6,12.6-3.6,18.7c-1.6,4.7-3.7,9.3-7.3,12.6
		c-3.4,3.1-1.9,7-3.2,10.3c-1.6,4.2-3.3,8.4-6.8,11.2c-1.8,1.4-4.7,1.5-7.5,2.2c-0.3,1.2-0.8,3.1-1.1,5.1
		c-1.2,6.8-2.3,13.7-3.7,20.5c-0.6,2.9-1.3,6-2.8,8.5c-1,1.6-3.4,2.8-5.4,3.3c-8.5,2.4-17.1,4.4-26,4.2c-3.7-0.1-7.5-0.4-11.1-1.1
		c-4.6-1-6.1-5.9-3.1-9.5c3.5-4.2,4.8-8.9,4.2-14.3c-0.3-2.1,0-4.2,0-6.8c-3.8,0-7.4,0-11,0c0,2.1-0.2,4.5,0.1,6.8
		c0.4,3.1-0.5,6.1-0.1,9.3c0.3,2.4,1.7,3.9,2.5,5.8c1.8,4.6-0.4,6.7-4.8,7.5c-5.3,1-10.6,0.2-16-0.2c-7.1-0.5-13-4-19.5-5.9
		c-0.3-0.1-0.7-0.4-0.8-0.7c-1.5-5.1-2.9-10.2-4.5-15.3c-1.8-5.9-2.4-12-2.7-18c-0.1-2.8,0.5-5.7,0.6-8.6c0-1.2-0.3-2.7-1.1-3.4
		c-6-5.7-9.7-12.7-10.9-20.7c-0.7-4.7-0.2-9.6-0.3-14.3c0-0.5,0-0.9,0-1.6c-8.9,1-17.3-1.3-25.8-3c-1.8-0.4-3.8-0.1-5.6-0.7
		c-8.2-3-14.8-8.1-19.7-15.4c-2.5-3.7-4.9-7.6-4.4-12c0.5-4.5-3.7-4.8-5.1-7.5c-0.8-1.5-2-2.9-3.1-4.3c-0.3-0.3-0.9-0.8-1-0.7
		c-0.5,0.3-1,0.8-1.1,1.3c-0.7,3.6-0.9,7.4-2,10.9c-1,3.2-3,6.2-4.7,9.1c-0.5,0.8-1.6,1.2-2.5,1.6c-3.2,1.3-6.3,2.7-9.6,3.7
		c-1.7,0.5-3.8,0.7-5.5,0.2c-4.4-1.1-8.8-2.6-12-6c-1.4-1.5-2.4-3.6-3.5-5.4c-0.5-0.8-1-1.7-1.4-2.5c-1.3,0.9-2.3,2-3.6,2.6
		c-1.7,0.8-2.1,2.1-2,3.8c0.4,10.5,0.9,21,1.2,31.5c0.4,13.6,0.6,27.1,0.8,40.7c0.1,6.7,0,13.3-0.1,20c0,1-0.5,1.9-0.8,2.8
		c-0.1,0.4-0.4,0.8-0.4,1.2c0.1,4.1,0.2,8.3,0.4,12.4c0,1.2-0.3,1.7-1.6,2.2c-0.8,0.3-1.4,1.6-1.9,2.5c-0.8,1.9-1.2,4-2.2,5.8
		c-0.9,1.6-2.4,2.6-4.7,2.6c-1.4,0-2.9,0.9-4.2,1.7c-2.2,1.4-4.2,3.1-6.3,4.5c-1.1,0.7-2.3,1.4-3.5,1.7c-3.5,0.7-7.1,1.1-10.7,1.8
		c-3.7,0.7-7.3,1.6-10.9,2.4c-5.6,1.3-11.3,1.5-17,0.3c-1.9-0.4-3.9-0.1-5.9-0.2c-1.1-0.1-2.1-0.4-3.2-0.5c-0.6-0.1-1.3-0.2-1.8,0
		c-3,1.8-7-0.4-9.5-1.9c-3.1-1.8-3-4.5-3.1-7.6c-0.3-5.3,1.2-9.9,3.7-14.4c0.3-0.6,1-1,1.4-1.5c3.2-3.6,2.3-7.8,1.6-12
		c-0.3-1.8-0.3-3.7-0.1-5.5c0.2-2.3-1.1-4.9,1.3-6.8c0.2-0.1,0.2-0.7,0.1-0.9c-2.4-4.1-0.8-8.6-1.3-12.9c-0.4-4,0.1-8-0.3-12
		c-0.4-4.7-1.2-9.3-1.8-14c-0.1-1.2-0.1-2.3-0.1-3.5c0-1,0.6-2.5,0.1-2.8c-1.2-0.9-2.7-1.5-4.2-2c-1.4-0.4-2.9-0.5-4.9-0.8
		c0.2,1.6,0.4,3.1,0.4,4.6c0,1.5-0.2,2.9-0.1,4.4c0,1.9,0.2,3.7,0.3,5.6c0,0.4,0.1,0.8-0.1,1.2c-2.4,4.5-1,9.4-1.1,14.1
		c-0.1,6.8,0.3,13.6,0.3,20.5c0,2.8-0.7,5.5-0.8,8.3c-0.1,1.3,0.4,2.7,0.6,4.1c0.2,1.4,0.3,2.8,0.5,4.1c0.3,1.7-0.5,2.7-1.9,3.3
		c-0.3,0.1-0.4,0.8-0.6,1.2c-0.5,1.1-0.9,2.2-1.5,3.2c-1.7,3.4-4.9,4.3-8.3,4.9c-6.6,1.3-13.2,2.5-19.8,3.8
		c-0.5,0.1-1.1,0.2-1.6,0.2c-8.7,0.3-17.4,0.7-26.1,0.9c-5.4,0.1-10.8,0-16.2-0.5c-5.8-0.5-9.2-6.8-7.1-12.3
		c0.6-1.5,0.3-3.4,1.1-4.6c1.4-2.1,3.4-3.8,5.1-5.7c0.5-0.6,1-1.5,1-2.3c0.3-5.3-0.2-10.7,0.8-15.8c1.3-6.4,0.3-12.8,0.7-19.1
		c0.2-2.9,1.3-6,0.8-8.7c-1.5-8.6-0.3-17.2-0.9-25.7c-0.1-1.3-1.1-2.5-1.6-3.8c-0.5-1.4-1-2.9-1.1-4.4c-0.2-4.3,0.1-8.6-0.1-12.9
		c-0.1-2.7-0.7-5.3-1-8c-0.5-5.1-1-10.2-1.4-15.3c-0.3-3.3-0.5-6.6-0.7-9.8c-0.7-10.4-1.5-20.9-2-31.3c-0.2-4.6,0-9.1,0-13.9
		c-2.4,0.9-4.6,1.7-6.8,2.5c-4.7,1.7-9.5,0.9-14.1-0.2c-5.7-1.4-11.1-3.7-16.7-5.5c-0.4-0.1-0.9-0.4-1.1-0.3c-1.9,1.6-3.2-0.1-4.5-1
		c-1.8-1.2-3.8-2.2-5.5-3.7c-3.6-3.1-7-6.5-10.7-9.6c-2.4-2.1-5.2-3.7-7.8-5.7c-2.6-2-5.2-4.2-7.8-6.2c-1.3-1-2.8-1.8-4.1-2.8
		c-3.4-2.7-6.8-5.6-10.2-8.3c-4.4-3.4-4.8-4-3.2-9.3c1.4-4.7,3.2-9.2,4.9-14.1c-1.3-0.6-2.8-1.3-4.3-1.8c-4.2-1.5-7.2-4.4-10.3-7.4
		c-3.4-3.3-5.7-7.3-6.6-11.8c-0.7-3.2-0.6-6.7-0.3-9.9c0.3-2.7,1.3-5.5,2.2-8.1c0.5-1.4,1.6-2.7,2.5-3.9c2.6-3.3,5.2-6.6,9.5-8
		c4.3-1.4,8.5-1.7,12.8-0.2c0.5,0.2,1.5-0.1,1.6-0.5c0.7-1.3,1.2-2.7,1.6-4.1c1.2-3.8,3-6.9,6.7-8.8c2.3-1.1,6.7-1.2,8.8,1.5
		c1.4,1.8,2.9,3.6,3.7,5.6c1.8,4.4,3.3,8.9,4.9,13.5c2.1,0,4.4,0.4,4.7,3.5c0,0.2,0.3,0.4,0.4,0.5c1.9,1.9,3.8,3.8,5.8,5.6
		c2.3,2.1,4.6,4.1,6.9,6.1c1.4,1.2,2.8,2.4,4.3,3.5c2.5,2,4.9,3.9,7.6,6c5.8-7.9,11.7-16,17.4-23.8c-4.8-3.9-9.7-7-13.7-11.1
		c-4.8-4.9-10.3-9.4-13.8-15.5c-2-3.4-3.6-7.1-5.4-10.6c-0.1-0.3-0.1-0.7-0.4-0.9c-4.9-4-4-9.9-5.1-15.1c-0.1-0.7-0.5-1.3-0.5-2
		c-0.2-2-0.4-4-0.5-6c0-2.1,0-4.3,0.2-6.4c0.2-2.1,0.5-4.3,0.9-6.4c1.1-7.5,2.8-14.8,6.5-21.4c1.4-2.5,3-5,4.8-7.1
		c2.9-3.3,2.3-7.1,2-10.9c0-0.2-0.1-0.3-0.1-0.5c-0.3-6.8-0.7-13.5-0.8-20.3c0-2.3,0.7-4.5,0.9-6.8c0-0.6-0.7-1.3-1.2-1.8
		c-1.5-1.1-3.2-2.1-4.8-3.1c-0.3-0.2-0.7-0.5-1-0.6c-1.7-0.3-3-0.6-3.3-3c-0.2-1.6-0.4-2.9,0.1-4.6c0.9-3,1.1-6.2,1.7-9.3
		c0.7-3.6,1.8-7.1,2.4-10.6c1.2-7,4.3-13.4,7.1-19.8c1.3-3,3.4-5.6,5-8.4c1.9-3.4,3.8-6.8,5.5-10.2c0.3-0.5,0-1.4-0.3-2
		c-1.5-3.5-3.1-6.9-4.4-10.5c-1.5-3.7-2.9-7.5-4.2-11.3c-2-6.2-3.8-12.5-5.7-18.7c-0.9-2.9-2-5.7-2.9-8.6c-0.6-2.1-0.8-4.3-1.4-6.5
		c-0.6-2.3-1.6-4.5-2.1-6.8c-0.9-3.7-1.4-7.6-2.2-11.3c-0.7-3.3-1.6-6.6-2.5-9.8c-1.2-4.2-2.6-8.4-3.7-12.6
		c-1.5-5.5-3.1-11.1-4.4-16.7c-1.1-5-1.8-10.2-2.5-15.3c-0.8-6-1.6-12-2.2-18c-0.5-4.9-1.2-9.8-0.6-14.6c0.4-3.1,0.3-5.7-0.5-8.5
		c-0.5-1.9-0.1-4-0.4-6c-0.2-1.5-1-3-0.9-4.5c0.1-1.8,0.7-3.6,1.1-5.4c0.2-0.8,0.3-1.7,0.3-2.6c0.1-7.4,0-14.8,0.2-22.2
		c0.1-3,1-6,1.5-9.1c0.6-3.5,1.3-7,1.9-10.5c0.5-3.3,1.5-6.4,2.9-9.4c2.6-5.8,4.7-11.9,7.1-17.8c1.7-4,3.1-8.5,7-10.8
		c3.6-2.1,5.8-5.4,8.6-8.1c1.1-1,2.9-1.4,4.4-1.7c1.8-0.4,3.5-0.4,4.6-2.3c0.3-0.5,1.3-0.9,2-0.9c4.8-0.1,9.6-0.4,14.4-0.1
		c5.5,0.3,10.4,2.7,15.2,5.1c6,3.1,11.1,7.4,16.2,11.7c1.9,1.6,3.9,2.7,4.9,5.1c2.9,6.6,6.5,13.1,8.6,20c1.3,4.1,4,7.3,5.1,11.4
		c0.5,1.9,0.9,3.8,1.5,5.7c0.5,1.8,1.2,3.5,1.6,5.2c0.5,1.8,0.8,3.7,1.2,5.6c0.6,2.8,1.2,5.6,1.8,8.3c0.5,2.5,1.3,4.9,1.6,7.5
		c0.7,6.4,1.3,12.8,1.8,19.2c0.1,1.5-0.3,3-0.3,4.4c0.1,4.9,0.4,9.9,0.3,14.8c-0.1,5.8,0.4,11.7-0.8,17.4
		c-1.7,8.2-0.7,16.3-1.1,24.5c0,0.6,0.1,1.4-0.2,1.8c-1.8,2.6-1.1,5.6-1.3,8.4c-0.3,5.8-0.1,11.8-1.2,17.4
		c-0.9,4.6-0.5,9.1-0.8,13.7c-0.3,4.5-0.1,9-0.5,13.5c-0.2,3.1-1,6.1-1.6,9.1c-0.1,0.5-0.2,0.9-0.3,1.4c-0.2,3.4-0.3,6.7-0.5,10.6
		c3.4-1.2,7.1-2.4,10.9-3.7c0.6-0.2,1.2-0.4,1.8-0.5c9.1-1.7,18.3-2.2,27.6-1.9c1.1,0,2.2-0.1,3.7-0.2c-0.8-4.6-1.6-9-2.3-13.4
		c-0.1-0.5-0.2-0.9-0.2-1.4c-0.4-4.6-0.8-9.3-1.3-13.9c0-0.2,0.1-0.5,0-0.7c-3.5-5.5-1.4-11.6-1.5-17.3c-0.1-4.5-1.1-9-0.9-13.5
		c0.1-2-1.1-4.1-1-6.2c0.1-4.3,0.7-8.6,1-12.9c0.1-1.5,0.1-3.1,0.1-4.7c0.2-3.6,0.3-7.1,0.6-10.7c0.2-1.9,0.7-3.8,1-5.7
		c0.3-1.9,0.5-3.8,0.7-5.8c0.4-3.7,0.8-7.5,1.2-11.2c0-0.3,0-0.6,0-0.9c0.2-5.1,0.3-10.2,0.6-15.2c0.4-5.9,1.1-11.8,1.8-17.7
		c0.5-3.7,1.3-7.4,2-11c0.2-1.1,0.2-2.2,0.4-3.2c0.8-4.2,1.4-8.4,2.7-12.4c0.7-2.1,1.3-4.1,1.6-6.3c0.3-2.4,0.8-4.7,1.2-7
		c0.1-0.4,0-0.8,0.1-1.2c1.4-4.1,3.1-8.2,4.3-12.3c0.9-3,2.9-5.4,4.1-8.1c1.2-2.6,1.9-5.5,2.9-8.3c0-0.1,0-0.2,0.1-0.2
		c2.8-4.6,5.2-9.5,8.6-13.6c3.8-4.6,8.7-8.1,14.9-9c2.8-0.4,5.6-0.3,8.4,0c0.6,0.1,1,1.9,1.6,3.1c3.5,1,7.5,2.1,11.4,3.3
		c4.5,1.3,8.4,3.6,11.5,7.1c3.5,4,7.1,7.9,10.5,12c0.8,1,1.3,2.4,1.7,3.7c0.8,2.6,1.4,5.3,2.2,8c0.7,2.4,1.5,4.7,2.4,7.1
		c2.5,6.7,4.2,13.5,4.4,20.7c0.1,3.2,1,6.3,1.5,9.5c0.1,0.4,0.1,0.8,0.1,1.2c0,3.3-0.6,6.8,0.2,9.9c1.3,5-0.2,9.6-0.4,14.4
		c-0.2,8.6-1.4,17.1-2.3,25.7c-0.5,5.2-1.2,10.3-1.9,15.5c-0.7,4.9-1.5,9.8-2.3,14.7c-0.1,0.6-0.2,1.2-0.3,1.9
		c-0.4,3.5-0.6,7.1-1.2,10.6c-0.8,4.5-1.8,9-2.7,13.5c-0.5,2.7-0.8,5.5-1.5,8.2c-1.6,6.4-2.1,13.1-5,19.2c-0.9,2-0.9,4.4-1.5,6.6
		c-1.1,3.9-2.3,7.8-3.5,11.8c-0.2,0.5-0.6,1.1-0.5,1.5c1.6,5.5-1.8,10.1-3,15c-0.9,3.5-2.6,6.8-3.8,10.3c-1.3,3.9-2.4,7.8-3.5,11.7
		c-0.1,0.3-0.1,0.6-0.2,0.9c-1.3,3.5-1.1,5.3,2,7.3c5.5,3.6,9.3,8.9,13.1,14c2,2.7,3.5,5.9,6,8.3c4.4,4.1,7.1,9.1,9.1,14.7
		c1.2,3.5,3.6,6.6,5.5,9.8c3.2,5.5,4.6,11.5,5.2,17.8c0,0.4-0.1,0.9,0.1,1.1c1.8,2.6-0.1,4.2-1.9,5.3c-2.6,1.7-5.4,3-8.5,4.6
		c0.1,0.4,0.1,1.5,0.5,2.4c0.3,0.7,1,1.5,1.8,1.7c2.2,0.7,3.9,1.8,5.3,3.6c3.2,4.2,6.6,8.3,9.8,12.6c1.7,2.4,3,5.1,4.5,7.6
		c0.9,1.5,2,3,2.9,4.5c1.7,2.8,3.4,5.7,5.1,8.5c0.8,1.2,2,2.4,2.3,3.7c1,4.2,1.8,8.5,2.4,12.8c0.7,4.6,1.2,9.2,1.7,13.7
		c0.3,2.8,0.5,5.6,0.3,8.4c-0.3,4.1-1.3,8.3-1.5,12.4c-0.1,3-1.1,5.6-2.1,8.3c-1.4,3.8-2.4,7.7-4.1,11.4c-2,4.3-4.7,8.2-6.8,12.5
		c-1.8,3.7-4.7,6.3-8.1,8.4c-1,0.6-1.8,1.7-2.6,2.6c-1.6,2-4.3,2.6-5.5,5.2c-0.8,1.6-3,2.6-4.6,3.7c-1.3,0.8-1.1,1.5-0.4,2.7
		c2.6,4.7,5.2,9.4,7.7,14.2c3.6,7.1,6.3,14.4,7.8,22.2c0.4,2.1,1.4,4.1,1.9,6.2c1.2,4.2,2.1,8.5,3.3,12.6c1.3,4.5,2.6,8.9,4.1,13.3
		c1.4,3.9,3,7.8,4.5,11.6c0,0.1,0.1,0.1,0.1,0.2c0.6,3.3,1.1,6.7,1.8,10c0.8,3.8,1.2,8,3,11.4c2.5,4.6,2.4,9.8,4.4,14.3
		c1.6,3.5,1.4,6.9,1.7,10.5c0.3,3.7,0.6,7.4,1,11c0.2,1.7,0.8,3.4,1.4,5.1c0.2,0.5,0.9,0.9,1.4,1c4.9,1.3,9.2,3.7,12.6,7.3
		c2.5,2.7,5.6,2.3,8.6,2.5c2.6,0.2,5.1,0.2,7.7,0.4c-0.9-1.3-1.9-2.7-2.8-4.3c-1-1.7-1.9-3.4-2.9-5.1c0-0.1-0.1-0.1-0.1-0.2
		c0.5-5.1-4.4-8.3-4.7-13c-0.2-3.4-1.7-6.6-0.5-10.2c0.7-2.1,0.3-4.6,0.4-6.9c0.2-7.7,1.6-15.2,4.5-22.4c0.5-1.1,1.1-2.5,2.1-3
		c3.7-2,2.2-5.5,2.6-8.3c0.4-2.5-0.3-5.1-0.1-7.7c0.4-5.1,0.9-10.1,1.6-15.2c0.3-1.9,1.2-3.7,1.8-5.7c-3.8-1-7.4-1.8-11-2.8
		c-1.5-0.4-2.9-1.2-4.2-2c-0.5-0.3-0.7-1.5-0.5-2.1c0.8-2.7,1.7-5.5,2.8-8.1c1.6-3.7,3.4-7.4,5.3-10.9c1.4-2.6,3-5.1,4.6-7.5
		c3.2-4.7,6.5-9.5,9.9-14.1c1.5-2.1,3.2-4,5.1-5.8c3.8-3.6,7.4-7.6,12.3-9.9c1.5-0.7,2.7-2.1,4-3.1c-1.3-5.7-2.5-11.3-3.7-16.9
		c-0.4-1.8-1.1-3.6-1.4-5.5c-0.7-4.3-1.3-8.6-1.9-12.9c-0.3-2.4-0.7-4.7-1.1-7.1c-0.9-5.6-1.7-11.1-2.7-16.7c-0.4-2.4-1-4.7-1.4-7
		c-0.3-1.6-0.3-3.2-0.4-4.9c-0.2-3.2-0.5-6.5-0.7-9.7c0-0.6,0-1.3,0.2-1.8c1.4-3.4,0.5-6.7-0.6-10c-0.4-1.1-0.5-2.4-0.6-3.6
		c-0.2-2-0.4-4-0.5-6c0-1.2,0.4-2.5,0.4-3.7c0-4.3-0.2-8.5-0.2-12.8c0-1.2,0.3-2.5,0.2-3.7c-0.6-9.7,1.3-19.3,2-29
		c0.7-8.6,1.6-17.2,2.8-25.7c0.6-4.6,2.4-9.1,3-13.7c0.9-6.2,3.4-11.9,5-17.9c1.9-7.3,5.8-13.3,10.7-19c3.1-3.6,7.2-5.1,10.8-7.6
		c1.9-1.3,4.6-1.3,6.8-2.2c1.5-0.6,2.8-2.2,4.3-2.4c3-0.4,6.1-0.3,9.1,0c5.3,0.5,10.6,1.2,15.4,3.7c3.1,1.7,6.2,3.6,7.6,7.2
		c0.3,0.7,0.9,1.3,1.4,1.8c4.8,3.9,7.2,9.4,9,15c1.7,5.1,2.7,10.5,3.7,15.9c0.8,4.4,1.4,8.9,1.7,13.4c0.5,6,0.6,11.9,0.9,17.9
		c0.1,2.4,0.7,4.8,0.6,7.1c-0.1,4.4-0.7,8.7-0.9,13c-0.1,2.6,0.5,5.2,0.2,7.7c-0.4,4.5-1.2,9-1.6,13.5c-0.3,2.9-0.2,5.8-0.4,8.6
		c-0.5,5.6-1,11.2-1.7,16.8c-0.7,5.7-1.6,11.5-2.5,17.2c-0.7,4.4-1.5,8.7-2.3,13.1c-1,5.7-2,11.3-3.2,17c-0.9,4.1-2,8.1-3.1,12.1
		c-1.3,4.5-2.7,8.9-4,13.3C460.1,458.2,460.1,459.5,460,460.6z M268.1,664.4c-1.4-0.6-3.2-1.2-4.8-2.2c-1.1-0.7-2.6-1.8-2.8-3
		c-0.8-3.6-1.2-7.3-1.5-11c-0.5-6.5-0.9-13-1.4-19.5c-0.2-3-0.1-6-0.5-8.9c-0.6-4.1-1.6-8.1-2.3-12.2c-0.3-1.7,0.1-3.5-0.1-5.2
		c-0.7-5.4,0.1-10.9-1.3-16.2c-0.8-3-1.1-6.2-1.4-9.4c-0.4-4.5-0.7-9-0.9-13.5c0-0.7,1.1-1.4,1.7-2c0.7,0.7,2,1.3,2.1,2.1
		c0.5,3.4,0.7,6.9,0.9,10.3c0.2,3.6-0.2,7.4,0.7,10.8c1.1,3.6,1.1,7.2,1.4,10.9c0.6,6.2,0.7,12.5,2.1,18.5c1,4.3,1.1,8.5,1.3,12.7
		c0.2,3.7,0.1,3.7,3.7,3.9c3.8,0.2,7.5,0.8,11.3,0.5c7.3-0.6,14.6-1.6,21.9-2.7c5.6-0.9,11-2.2,16.5-3.5c5-1.1,10.1-2.4,15.2-3.7
		c0-0.3,0.2-0.6,0.1-0.8c-1.9-3.6-2.9-7.4-3-11.4c0-0.2-0.1-0.5-0.2-0.7c-2.1-3.8-4.1-7.7-4-12.3c0-0.4-0.2-0.9-0.3-1.3
		c-1-3.1-2-6.1-2.9-9.2c-1.2-4.3-2.3-8.6-3.3-12.9c-1.1-4.8-3.4-9.1-4.5-14c-1.1-5.3-1.7-11-5-15.9c-2.3-3.5-3.2-7.9-4.7-11.9
		c-0.6-1.6-1-3.3-1.7-4.9c-1.7-4.3-3.4-8.5-5.2-12.7c-0.8-1.8-1.8-3.5-2.6-5.2c-1.4-2.9-2.8-5.8-4.3-8.8c-2.1,1-3.8,1.6-5.3,2.5
		c-6.3,4-13,7.1-20.7,7c-2.1,0-4.2,0.9-6.3,1.5c-5.4,1.4-10.3,4.5-16.2,4.2c-2.4-0.1-4.9,0.5-7.4,1c-3.3,0.6-6.6,1.5-9.9,1.8
		c-5.3,0.4-10.7,0.6-16,0.4c-4.6-0.1-9.2-0.8-13.7-1.1c-4.3-0.3-8.6-0.3-12.8-0.5c-1.9-0.1-3.9-0.6-5.8-0.7
		c-3.1-0.2-6.1-0.3-9.3-0.5c0.5,14.7,0.8,28.7,1.5,42.6c0.2,4.2,1.5,8.3,2.3,12.4c0,0.1,0.1,0.1,0.1,0.2c0.4,1.5,0.8,3.1,1.2,4.6
		c0.2,0.7,0.2,1.6,0.6,2.2c1.5,2.6,3.1,5.2,4.6,7.8c1.5,2.7,2.9,5.3,4.3,7.8c3.6-1.2,6.7-2.4,9.9-3.3c3.9-1.1,7.9-1.8,11.8-2.7
		c3.2-0.8,6.3-1.7,9.4-2.5c1.5-0.4,3.2-0.1,4.6-0.6c2.8-1.2,5.4-2.8,8.1-4.1c2-0.9,4-1.6,6.1-2.2c0.5-0.1,1.2,0.5,1.7,0.7
		c-0.4,0.5-0.7,1.2-1.2,1.4c-2.2,1.1-4.5,2.1-6.7,3.2c-5.8,2.8-11.5,5.9-17.5,8.2c-7.7,3-15.7,5.5-23.5,8.2c1.2,2,1.3,4.1,0.3,6.4
		c-0.6,1.5-1,3-1.2,4.6c-0.3,2.3-0.2,4.7-0.4,7.1c-0.5,5.1-1.1,10.2-1.5,15.3c-0.1,1.3,0,2.7-0.1,4c-0.5,4.5-1.1,9-1.5,13.5
		c-0.2,2.3,0.5,4.7,0.3,7c-0.2,2.1,0.9,2.9,2.5,3.2c3.2,0.7,6.4,1.2,9.7,1.8c8.2,1.5,16.4,3,24.6,4.7c4.9,1.1,9.7,2.8,14.6,3.9
		c1.9,0.4,1.9,1.5,1.9,2.9c0,1.7-1.2,1.4-2.3,1.5c-7.9,0.6-15.3-2-22.8-3.9c-2.6-0.7-5.3-1.4-7.8-2.2c-6.5-2.2-13-4.4-19.8-6.7
		c-0.1,1.4-0.3,2.1-0.2,2.7c0.3,2.9,0.6,5.8,1,8.7c0.5,3,1.2,6,1.9,9c0.7,2.8,1.7,5.5,2.5,8.2c0.9,3.3,1.3,6.7,2.3,10
		c1.1,3.4,2.6,6.6,4.2,9.8c0.9,1.8,2,4.1,3.5,4.7c3.3,1.3,6.9,1.6,10.4,2.2c2.3,0.3,3.4,2,2.8,4.3c-0.5,1.9-0.8,3.9-0.6,5.8
		c0.4,4.6,1.2,9.2,1.5,13.8c0.3,4.8,0.1,9.6,0.1,14.4c0,2-0.4,4.3,0.4,6.1c1.7,3.8,0.7,7.7,1.3,11.6c0.2,0.9-0.3,2.1-0.8,3
		c-1.4,2.5-0.6,4.1,2.2,4.4c5.8,0.6,11.7,1,17.5,1.7c8.9,1.1,17.8,1.3,26.6-0.2c2.4-0.4,4.7-0.8,7.1-1.1c2.5-0.3,5.1-0.3,7.6-0.8
		c2.3-0.5,4.4-1.4,7.3-2.3c0.7-15.6-0.6-31.4-0.1-47.1c0.5-15.8-0.5-31.6-1.1-47.4c-3.7-0.4-6.1-2.4-6.4-5.6
		C269,672.8,268.5,668.7,268.1,664.4z M149.3,81.4c0-1.3,0.1-2,0-2.5c-1.1-4.3-2.2-8.7-3.5-13c-1.5-5.2-3.3-10.3-4.7-15.5
		c-1.6-6-4.7-11.1-8.9-15.6c-1.5-1.6-3.1-3-4.8-4.3c-1.9-1.5-4.2-2.5-5.9-4.1c-3.3-3-6.9-5.4-10.9-7.4c-2.9-1.5-5.6-3.4-8.5-4.7
		c-1.4-0.6-4-1.1-4.7-0.4c-2,2.3-4.5,2.6-7.2,2.7c-0.6,0-1.3,0.1-1.7,0.4c-1.6,1.3-3.4,2.4-4.5,4c-3.3,4.6-7.3,8.8-8.6,14.7
		c-0.4,2.1-2.1,3.8-4.6,4.1c-0.4,0-1.1,0.1-1.3,0.4c-1.1,2.1-2.1,4.1-3,6.3c-0.9,2.2-1.5,4.5-2.4,6.7c-1.1,2.7-2.6,5.3-3.5,8.1
		c-1.3,3.8-2.1,7.7-3.2,11.5c-0.7,2.6-1.9,5.2-2.1,7.8c-0.7,7-1,14.1-1.4,21.1c-0.2,2.8-0.9,5.7-0.6,8.5c0.4,4.5,1.5,8.8,2,13.3
		c0.3,2.5-0.4,5-0.3,7.5c0,1.7,0.7,3.3,0.8,5c0.4,4.5,0.7,9,1,13.4c0,0.2,0.1,0.5,0.1,0.7c0.5,3.3,1.1,6.7,1.6,10
		c0.3,2.4,0.3,4.9,0.9,7.3c0.7,3.4,1.9,6.7,2.7,10.1c0.6,2.6,0.9,5.2,1.7,7.8c0.9,3.2,2.1,6.2,3.1,9.4c1,3.3,1.7,6.6,2.7,9.9
		c0.3,0.9,1.2,1.8,1.2,2.7c-0.1,2.9,2.5,4.9,2.1,8.1c-0.3,2.5,1.2,5.3,1.9,7.9c0.4,1.6,0.3,3.4,1.2,4.6c2.6,3.5,1.8,7.8,3.2,11.6
		c1.2,3.1,1.2,6.7,1.9,10c0.5,2.5,1.2,5,1.9,7.5c0.6,2.1,1.4,4.1,2.1,6.2c0.3,1.1,0.4,2.2,0.8,3.2c1.1,2.6,2.6,5,3.5,7.7
		c2.2,6.5,4.1,13.2,6.4,19.7c0.4,1.2,1.7,2.7,2.8,3c4.3,0.9,8.8,1.8,13.2,1.9c3.9,0.1,7.9-0.7,11.8-1.6c3.3-0.7,7-0.5,9.9-2.8
		c1.8-1.4,3.9-2.4,5.6-3.8c1.4-1.2,2.7-2.6,3.4-4.2c0.8-1.8,0.8-3.9,1.1-5.9c0.4-2.5,0.6-5,1-7.5c0.5-3.4,1.2-6.8,1.8-10.2
		c0.8-4.8,1.7-9.5,2.5-14.3c0.3-1.4,0.9-2.9,0.9-4.3c-0.1-5.3,0.7-10.4,1.8-15.6c1-4.8,0.1-9.8,1.5-14.7c1.3-4.4,0-9.2,1-13.9
		c1-4.8,0.8-9.9,1.1-14.8c0.3-3.8,0.2-7.7,0.6-11.6c0.8-8.7,0.5-17.4,0.4-26.1c-0.1-8.8-0.6-17.6-1-26.4c-0.2-3.9-0.1-7.8-0.5-11.7
		c-0.3-3.3-1-6.6-1.6-9.9c-0.5-2.8-0.8-5.7-1.3-8.5C150.6,87.5,149.9,84.1,149.3,81.4z M187.7,714.1c-1.3-3.1-2.3-5.4-3.2-7.7
		c-1.7-4.1-3.4-8.1-4.9-12.2c-1.4-3.9-2.1-8-3.7-11.8c-1.8-4.2-1-8.7-2.2-12.9c-0.5-1.9-0.3-4.1-0.1-6.1c0.3-2.5-1-3.1-3.1-3.8
		c-3.8-1.1-7.6-1.9-11-4.3c-2-1.4-4.6-2.5-7-3c-5.4-1.1-9.9-3.7-14.1-7.1c-0.6-0.5-1.1-1.1-1.5-1.8c-0.2-0.4-0.2-1.2,0.1-1.5
		c0.2-0.3,1-0.3,1.4-0.1c1.5,0.7,3.3,1.3,4.5,2.5c2.6,2.5,5.7,3.7,9,4.6c2.2,0.6,4.6,1.1,6.6,2.2c4.6,2.6,9.4,4.7,14.4,6
		c-0.2-1.5-0.6-3-0.5-4.4c0.3-3.3,0-6.5,1.1-9.8c1-3.1,0.1-6.6,1-10.1c1.1-4.5,0.8-9.4,1.2-14.1c0.2-2.7,0.2-5.5,1-8
		c1.2-3.6,1.7-7-0.6-10.3c-0.4-0.6-1.3-1.2-1.8-1.1c-6.5,1.1-12.9,2.1-19.3,3.7c-3.3,0.8-6.4,1.1-9.7,0.4c-0.4-0.1-0.8-0.4-1.7-0.9
		c1.1-0.3,1.5-0.5,2-0.6c6.3-1.4,12.6-2.7,18.9-4.4c2.9-0.8,5.5-2.2,8.2-3.5c0.4-0.2,0.7-1.3,0.5-1.8c-0.9-2.2-1.9-4.2-2.9-6.3
		c-0.5-1-0.8-2.3-1.6-3.1c-1.8-2-2.5-4.4-2.2-6.8c0.5-3.2-2.3-6.1-0.5-9.2c0-0.1-0.2-0.3-0.2-0.4c-2.6-5-4.8-10-4.8-15.8
		c0-2.2-1-4.4-1.2-6.6c-0.2-3.4-0.1-6.7-0.2-10.1c0-1.5-0.6-3.3,1.8-3.6c0.2,0,0.4-0.6,0.4-1c0-5.1,0-10.3,0-15.9
		c-2.7,0.5-4.8,1.1-6.8,1.1c-3.1,0-6.2-0.6-9.3-0.5c-6.1,0.3-12,0.1-18-1.3c-6.4-1.5-13-2.3-18.4-6.4c-1.8,2.1-3.5,4-5.2,5.9
		c-0.4,0.5-0.6,1.1-1,1.6c-0.7,1.1-1.4,2.4-2.3,3.4c-1.8,1.9-3.9,3.5-5.5,5.6c-1.6,2-2.5,4.4-4,6.6c-0.9,1.3-0.5,2.1,0.2,3.1
		c0.9,1.2,1.9,2.5,2.7,3.8c3.4,5.3,6.7,10.7,10,16.1c0.3,0.5,0.4,1,0.7,1.9c-0.8-0.2-1.2-0.2-1.3-0.4c-3.4-3.6-6.8-7.1-10.1-10.8
		c-0.9-1-1.5-2.2-2.4-3.1c-3.5-3.4-7.2-6.6-10.6-10c-2.2-2.1-4.1-4.4-6.2-6.6c-3-3.1-6-6.1-9.1-9.1c-0.8-0.8-1.9-1.3-3-2.1
		c0.2,2.3,0.4,4.2,0.6,6.1c0.2,2.6,1.1,5.4,0.5,7.8c-1.8,8.1-6.1,15-12.1,20.6c-1.9,1.7-4.3,2.9-6.1,4.6c-4.7,4.5-10,8.1-15.9,10.9
		c-2.2,1-4.5,1.7-6.9,2.6c7.3,5.8,14.4,11.5,20.3,16.1c1.4-0.6,2.5-0.8,3.4-1.4c4-2.7,8.2-5.2,11.9-8.2c3.4-2.8,6.7-5.9,9.5-9.3
		c2.5-3,4.5-6.4,6.4-9.8c3-5.2,6-10.5,6.6-16.6c0.1-1.3,0-2.7,0-4.4c2.5,1,2.9,2.8,2.5,4.5c-1.1,4.3-2.5,8.5-3.9,12.7
		c-2.6,7.9-7.8,14.1-13.8,19.5c-6,5.4-12.8,10-19.4,15c0.7,0.5,1.6,1.2,2.6,1.8c2.4,1.6,4.9,3.1,7.2,4.9
		c7.2,5.6,14.6,10.6,23.6,12.7c2.7,0.7,5.4,1.7,8.1,2.3c1.2,0.3,2.6-0.2,3.9-0.3c1.5-0.1,3.2,0.3,4.6-0.1c3.4-1,6.7-2.4,10.5-1.6
		c0.9,0.2,1.8,0,2.8,0c0-0.8,0.1-1.3,0.1-1.7c0.2-12.6,0.4-25.1,0.6-37.7c0-0.3,0-0.6,0-0.9c0.6-5.4,1.1-10.7,1.8-16.1
		c0.1-0.9,1.1-1.6,1.6-2.4c0.5,0.8,1.3,1.5,1.3,2.3c0.3,9.2,0.7,18.4,0.7,27.7c0,5-0.5,9.9-0.7,14.9c-0.1,3.6,0,7.2,0,10.8
		c-0.1,3.2-0.5,6.4-0.3,9.5c0.2,3.5,1.1,7,1.6,10.6c0.1,0.8,0,1.6-0.1,2.3c-0.1,3.3-0.2,6.7-0.1,10c0,2.3,0.7,4.5,0.5,6.8
		c-0.5,4.5-1,8.9,0.1,13.4c0.6,2.7,0.5,5.6,0.8,8.4c0.6,4.2,1.3,8.4,2,12.7c0.4,2.1,1.2,4.3,1.1,6.4c-0.3,4.9-0.3,9.7,0.8,14.5
		c0.3,1.3,0.1,2.8,0.3,4.2c0.4,2.8,1,5.7,1.2,8.5c0.2,4.1-0.1,8.2,0.1,12.2c0.2,2.7,1.3,5.3,1.2,7.9c-0.1,6.8,0.9,13.7-0.6,20.6
		c-0.9,4.1-0.2,8.6-0.1,12.9c0,0.5,0.6,1.3,1.1,1.5c7.8,2.5,15.6,5.1,23.5,7.1c7,1.8,14.2,3.1,21.3,4.3c5.1,0.9,10.4,1.1,15.3,1.6
		c0.5-4,1.2-7.6,1.4-11.3c0.2-4.4-0.1-8.8-0.2-13.2c0-8.5,0-17.1,0-25.6c0-2.1,0-4.2,0-5.7c-5.3-1.7-10.5-3.4-15.5-5.2
		c-0.9-0.3-1.6-1.5-2.4-2.2c0.2-0.3,0.4-0.6,0.5-1C174.7,712.1,180.9,713.1,187.7,714.1z M258.6,268.2c0.3-0.8,0.7-1.5,0.9-2.2
		c1.5-4.8,2.9-9.6,4.5-14.4c0.4-1.3,1.3-2.5,1.7-3.8c2.8-9,5.7-18.1,8.3-27.2c0.8-2.7,1.1-5.6,1.6-8.5c0.5-3,0.7-6,1.2-8.9
		c0.6-3.8,1.4-7.5,2.1-11.3c0.4-2.1,0.6-4.2,1-6.3c0.9-4.8,2-9.6,2.9-14.5c1.2-6.5,2.4-12.9,3.4-19.4c0.7-4.2,1-8.5,1.3-12.8
		c0.6-7.9,1-15.7,1.5-23.6c0.1-2.4,0.3-4.8,0.3-7.2c0-7.6-0.1-15.3-0.2-22.9c-0.1-3.9-0.6-7.7-0.8-11.6c-0.2-4.2,0.2-8.5-0.3-12.6
		c-0.6-4.3-1.8-8.5-3.2-12.6c-1.5-4.2-3.5-8.3-5.5-12.3c-2.1-4.1-4.5-8-8.2-10.9c-2.7-2.2-5.2-4.8-8.1-6.6
		c-3.6-2.3-7.1-5.1-11.8-5.2c-3.5-0.1-7-0.5-10.5-0.8c-0.8-0.1-2-0.1-2.5,0.4c-2.8,2.5-5.8,4.9-8.1,7.8c-1.9,2.3-3.1,5.3-4.4,8
		c-1.1,2.3-1.8,4.9-2.8,7.3c-0.8,2-1.8,3.9-2.6,5.9c-1.2,3.1-2.3,6.2-3.4,9.3c-0.1,0.2-0.2,0.6-0.3,0.6c-2.7,0.7-3.2,3.1-3.8,5.3
		c-1,4.2-2,8.5-3.2,12.7c-0.6,2.3-1.5,4.6-2.3,6.9c-0.1,0.4-0.2,0.8-0.2,1.1c-0.6,4.9-1.3,9.8-1.9,14.6c-0.5,3.6-1,7.3-1.4,10.9
		c-0.3,2.4-0.2,4.8-0.5,7.2c-0.2,2.1-0.8,4.2-1.1,6.3c-0.5,2.6-1.2,5.2-1.3,7.8c-0.2,3.5-0.1,7.1-0.1,10.7c0,2.2-0.2,4.5-0.4,6.7
		c-0.4,5.4-1,10.7-1.2,16.1c-0.1,5.5,0.2,11,0.2,16.6c0,0.5-0.3,1-0.4,1.6c-0.1,0.9-0.2,1.9-0.1,2.8c0.6,5.3,1.3,10.6,1.7,15.9
		c0.1,1.8-0.8,3.6-0.7,5.5c0.2,3.9,0.7,7.7,1.1,11.6c0.7,6.6,1.3,13.2,2,19.7c0.4,4.1,1,8.3,1.5,12.7
		C224.9,247.1,243,254.4,258.6,268.2z M556.9,266.9c-10.4,0.2-17.4,4.7-23.9,10.2c-0.4,0.3-0.6,0.9-1,1.3c-0.8,1.1-1.6,2.3-2.4,3.4
		c-3,4.1-6.2,8-8.8,12.3c-3.8,6.3-6.4,13.4-12.8,17.8c-0.2,0.1-0.2,0.5-0.3,0.8c-1.4,4.7-2.8,9.5-4.2,14.2c-1,3.3-2,6.6-2.9,9.9
		c-0.7,2.6-1.2,5.3-1.8,7.9c-0.8,3.6-1.8,7.2-2.6,10.9c-0.5,2.4-0.7,4.9-1.2,7.3c-0.9,4.4-1.9,8.8-2.7,13.2c-0.2,1.3,0.2,2.8,0,4.1
		c-0.4,4.4-1.1,8.8-1.5,13.2c-0.5,5.9-0.7,11.8-1.2,17.7c-0.1,2.1-0.6,4.1-0.7,6.2c-0.1,3.1,0,6.1,0.1,9.2c0,2.7,0.1,5.4,0.2,8.2
		c0.1,1.1,0.5,2.2,0.6,3.3c0.1,2.9-0.9,5.5,0,8.6c1,3.3,0.3,7.2,0.5,10.8c0.3,5.5-0.9,11.2-1.4,16.8c-0.1,1.3,0.4,2.6,0.6,4
		c0.1,0.7,0.3,1.4,0.3,2c0.1,2.9,0,5.8,0.2,8.7c0.1,1.2,0.7,2.4,1.4,3.4c0.9,1.3,2.1,2.4,3.1,3.6c3.4,4.1,8,6.2,12.8,7.5
		c3.8,1,7.9,1.3,11.8,1.4c2.6,0,5.2-0.9,7.8-1.5c0.5-0.1,1-0.5,1.3-0.9c1.4-2.3,2.8-4.6,4.2-6.9c0.6-1.1,0.8-2.7,1.7-3.2
		c3.5-2.2,4-6.2,6-9.2c2.4-3.5,3.8-7.7,5.6-11.6c0.4-0.9,1.2-1.7,1.4-2.6c0.9-4.7,1.1-9.6,6.2-12.2c0.2-0.1,0.2-0.4,0.3-0.6
		c3-4.1,3-9.4,5.2-13.8c1.6-3.3,3.1-6.7,4.3-10.2c1.2-3.2,1.9-6.5,3-9.7c0.7-2.3,1.5-4.5,2.3-6.7c1-2.8,2.2-5.5,3.2-8.2
		c0.6-1.7,1.3-3.4,1.8-5.1c0.8-2.9,1.3-5.8,2.2-8.6c0.7-2.3,1.5-4.7,2.6-6.8c0.9-1.8,2-3.4,1.3-5.5c-0.1-0.4,0.2-1.2,0.5-1.5
		c1.8-1.4,1.6-3.4,1.6-5.4c0-0.9,0.2-1.8,0.4-2.7c1-3,2.3-5.8,2.9-8.8c0.7-3.3,0.8-6.7,1.3-10c0.4-2.8,1-5.7,1.5-8.5
		c0.3-1.4,0.9-2.9,0.9-4.3c0.1-4.3,0.1-8.6,0-13c0-2.2-0.1-4.3-0.2-6.5c-0.1-2.9-0.1-5.8-0.2-8.7c0-0.4-0.1-0.8-0.1-1.1
		c-1.1-4.8-2.1-9.6-3.3-14.3c-1.8-6.7-3.7-13.3-8.6-18.7c-1.3-1.4-2.5-2.9-3.2-4.6c-0.9-2.2-2.1-3.6-4.7-4
		C564.3,268.6,559.9,267.5,556.9,266.9z M425.1,251.5c-2.3,1.5-4.6,3.6-7.2,4.6c-3.3,1.4-5.1,3.9-6.9,6.7c-1,1.5-2.8,2.3-4.3,3.5
		c-0.6,0.4-1.5,0.7-1.7,1.3c-0.6,1.3-0.9,2.8-1.2,4.2c-0.7,2.8-1.5,5.5-2.2,8.3c-0.8,3.1-1.5,6.3-2.3,9.4c-0.3,1.3-0.7,2.5-1.4,3.7
		c-0.9,1.7-2.6,3.1-2.9,4.9c-0.6,4-0.6,8.1-0.9,12.2c-0.3,4.8-0.6,9.5-1.1,14.3c-0.8,8.1-1.8,16.2-2.4,24.3
		c-0.4,5.4,0,10.9-0.1,16.4c0,1.7-0.5,3.4-0.5,5.1c0.1,3.9,0.4,7.8,0.4,11.7c0,4.4-0.9,8.7-0.1,13.2c0.8,4.5,0.7,9.2,0.9,13.8
		c0.1,1.6-0.1,3.2,0.3,4.7c1.3,5.3,1.6,10.7,1.7,16.1c0,2.6,0,5.1,0.3,7.7c0.3,2.8,0.9,5.5,1.3,8.3c0.6,3.7,1.2,7.4,1.9,11.1
		c0.7,3.5,1.6,7,2.5,10.5c1,3.8,2,7.6,3.1,11.8c1.1-0.8,1.9-1.4,2.8-2.1c1.4-1,2.8-2.2,4.4-3.1c1.7-1,3.6-1.9,5.4-2.8
		c2.2-1,4.4-2.1,6.6-2.9c2.3-0.8,5.1-0.4,6.5-3.1c0.1-0.3,0.9-0.2,1.3-0.3c3.6-0.8,7.1-1.6,10.7-2.4c2.2-0.5,4.5-0.8,6.7-1.1
		c2.3-0.3,4.5-0.3,6.8-0.7c0.6-0.1,1.3-0.9,1.4-1.5c0.5-1.9,0.5-3.9,1-5.7c0.9-3.4,2.2-6.7,3.1-10.2c0.9-3.6,1.4-7.3,2.2-10.9
		c1.2-5.8,2.7-11.6,3.8-17.5c1.2-6,2.2-12.1,3-18.2c1.2-9,3-17.9,2.7-27.1c-0.1-3.2,0.5-6.5,0.5-9.8c0.1-5.6,1.8-11,1.3-16.7
		c-0.4-3.7,0.7-7.6,0.7-11.4c0-4.4-0.5-8.7-0.7-13.1c-0.3-5.9-0.5-11.8-1-17.7c-0.3-3.8-1-7.5-1.7-11.3c-0.7-3.6-1.6-7.3-2.8-10.8
		c-1.5-4.5-2.6-9.2-5-13.2c-2.3-3.8-6.1-6.9-9.3-10.2c-0.6-0.6-1.6-1-2.5-1.1c-5-0.8-10-1.5-15.1-2c-1.5-0.2-3.2-0.1-4.6,0.4
		C428.6,253.7,427,253,425.1,251.5z M84.2,362.4c-0.3,3,0.1,5.4-0.8,7.2c-1.4,2.8-0.9,5.5-0.8,8.3c0.2,3.9,1.3,7.7,1.6,11.6
		c0.4,4.1-0.6,8.3,0.4,12.5c0.2,1-0.4,2.2-0.2,3.2c0.7,2.7,1.7,5.4,2.5,8.1c1.1,3.9,2,7.9,2.9,11.8c0.3,1.1,0.4,2.1,0.7,3.2
		c0.4,1.8,0.8,3.7,1.3,5.5c0.6,1.8,1.3,3.6,2.2,5.4c1.5,3.1,2.5,6.4,4.6,9.4c3.5,5.1,7.1,10.1,11.3,14.7c2.3,2.5,4,5.6,6.5,7.8
		c2.9,2.5,5.7,4.9,8.2,7.9c3,3.6,6.2,7.1,11.7,6.3c0.8-0.1,1.7,0.6,2.5,1.1c2.4,1.3,4.6,3.1,7.1,4c7,2.4,13,7.5,20.9,7.4
		c0.7,0,1.3,0.5,2,0.8c0.4,0.2,0.9,0.4,1.3,0.3c3.9-1.1,7.9-2.3,11.8-3.6c2.8-0.9,5.5-2.5,8.3-2.9c8.4-1.3,16.2-4.1,23.6-8
		c2.5-1.3,5-2.6,7.5-3.7c2.4-1,4.9-1.9,7.4-2.8c1.3-0.5,2.7-0.9,3.9-1.4c1.4-0.7,2.7-1.6,4-2.3c4.7-2.2,9.5-4.3,14.1-6.7
		c3.5-1.9,6.7-4.3,10.1-6.3c6-3.6,12-7.1,18-10.8c1-0.6,2-1.5,2.5-2.6c1.1-2.4,2-4.8,2.8-7.4c1.3-4.4,2.4-8.9,3.5-13.3
		c1-4.2,2.1-8.4,2.8-12.6c0.6-3.3,1-6.7,1.2-10.1c0.3-6.2,0.5-12.4,0.4-18.6c-0.1-5.2-0.9-10.4-1.3-15.5c-0.2-1.9-0.4-3.9-0.7-5.8
		c-0.3-2-0.8-3.9-1.2-5.9c-0.4-2-0.7-4-1.1-6.5c-1.4,1-2.3,1.5-3.1,2.1c0.5,0.9,1,1.5,1.1,2.3c0.9,5.2,1.9,10.4,2.5,15.6
		c0.3,2.1-0.3,4.3-0.4,6.5c-0.2,2.9-0.1,6-0.6,8.8c-0.6,3.5-1.8,6.8-2.8,10.3c-0.1,0.4-0.3,0.9-0.5,1.3c-1.8,2.6-3.6,5.2-5.4,7.9
		c-1.9,2.7-3.9,5.3-6.9,7c-4.4,2.5-9.2,3.6-14.1,4.8c-10.4,2.6-21.1-2.2-26.9-10.5c-0.4-0.6-0.9-1.3-1.1-2.1c-0.7-2-1.4-3.9-1.9-6
		c-0.4-2-0.3-4-0.6-6c-1-7.9,0.8-15.5,3.1-22.9c0.7-2.3-0.2-2.4-1.7-2.2c-1.5,0.1-3.1,0.7-4.6,0.8c-5.6,0.4-11.3,0.5-16.9,0.9
		c-4.9,0.3-9.8,0.9-14.9,1.4c0.7,1.3,1.4,2.6,2.1,3.9c1,2,2.3,4,2.6,6.2c0.4,2.6,2.6,4.9,1.4,7.7c-0.1,0.2,0.3,0.5,0.4,0.8
		c0.8,2.7,2.5,5.2,1.2,8.3c-0.4,0.9-0.2,2.3,0.3,3.2c1,1.8,0.6,3.3-0.2,4.9c-0.5,1-0.6,2.2-1,3.2c-0.8,1.8-1.3,4-2.6,5.3
		c-3.6,3.3-7.5,6.3-11.4,9.2c-0.8,0.6-2,0.8-3,1.1c-4,0.8-8,1.5-12,2.3c-0.1,0-0.1,0.1-0.2,0.1c-4.1,0.2-8.3,0.8-12.3,0.3
		c-3.9-0.5-7.6-2.4-11.5-3.1c-6-1-10.5-4.8-15.4-7.8c-0.8-0.5-1.5-1.4-2-2.3c-2-4.2-4.2-8.3-5.8-12.6c-1.9-4.9-3.2-9.9-4.8-14.9
		c-0.2-0.6-0.1-1.2-0.1-1.9c0.4-3.7,0.9-7.3,1.3-11c0.1-1,0.3-2.1,0.7-3.1c0.6-1.7,0.1-2.7-1.6-3c-1.6-0.3-3.2-0.6-4.8-0.9
		c-5.7-1.1-11.3-2.1-17-3.2C92.2,364.1,88.2,363.2,84.2,362.4z M534.6,596.8c0.6,2.2,1.1,4.7,2,7c1,2.4,2.4,4.7,3.7,7
		c1.1,2,2.8,2.5,4.4,0.8c4.9-5.2,9.6-10.5,14.4-15.7c0.2-0.2,0.2-0.6,0.4-0.8c2-3.6,3.8-7.4,6.1-10.7c2.4-3.5,3.4-7.4,4.2-11.3
		c0.9-4.1,1-8.4,1.3-12.6c0.3-4.1,0.7-8.1,0.4-12.2c-0.3-4.3-1.3-8.5-2-12.7c-0.2-1.1-0.5-2.3-0.9-3.3c-0.9-2.3-1.9-4.6-2.7-6.9
		c-0.6-1.6-0.8-3.4-1.6-4.8c-2.4-4-4.7-8.1-7.5-11.8c-2.3-3-5.1-5.6-7.9-8.2c-2.6-2.4-5.4-4.6-8.4-7.2c-1.1,1.5-2.2,2.6-2.8,3.9
		c-2.7,5.5-5,11.2-12.1,12.4c-1.6,0.3-3.2,1.1-4.9,1.2c-1.9,0.1-3.9-0.2-5.8-0.5c-1.4-0.2-2.9-0.4-4.3-0.9
		c-4.1-1.4-8.4-2.6-12.3-4.4c-2.5-1.2-4.8-3.3-6.8-5.3c-1.9-2.1-3.1-4.8-5-7c-1.5-1.8-2.3-3.4-2-5.8c0.5-4-1.3-8-0.2-12
		c0-0.2-0.2-0.4-0.2-0.6c-0.2-1.3-0.6-2.6-0.5-3.8c0.1-1.5-0.1-2.5-2-2.6c-4.9-0.3-9.8-0.9-14.8-1.1c-4.5-0.2-9.1-0.6-13.6-0.2
		c-5.9,0.5-11.4,3.1-17.5,3.1c-0.5,0-0.9,0.1-1.4,0.3c-2.6,0.8-5.2,2-7.9,2.5c-6.9,1.2-11.6,6.1-17.2,9.4c-2.8,1.7-5.1,4.1-7.7,5.9
		c-3,2.1-6.4,3.7-9.1,6.1c-3,2.6-5.6,5.6-8,8.8c-3.5,4.7-6.9,9.5-9.7,14.6c-3.3,6-7.9,11.2-10,17.9c-0.6,2-1.3,4-2,6.3
		c2.9,0.4,5.3,0.5,7.6,1c5.2,1.1,10.3,2.6,15.5,3.5c7.4,1.2,14.9,2,22.3,3.1c9.7,1.4,19.4,3.1,29.2,4.3c8.9,1.1,17.8,1.8,26.7,2.6
		c5.1,0.4,10.2,0.5,15.2,1c1.8,0.2,3.5,1.5,5.4,1.7c3.9,0.6,7.9,0.9,11.9,1.2c6.6,0.5,13.1,1.1,19.7,1.5c5.8,0.4,11.5,0.6,17.3,0.9
		c3.5,0.2,4,0.8,3.8,4.3c-0.1,0.9-0.4,1.8-0.4,2.8c-0.2,2.2-0.4,4.5-0.4,6.7c0,1,0.6,2.1,0.5,3.1c-0.3,4.5-0.7,9.1-1.1,13.6
		C535.4,593.8,534.9,595.3,534.6,596.8z M224.4,364.1c0,0,0,0.1,0,0.1c3.5-0.3,7-0.7,10.5-1c0.4,0,0.9-0.4,1-0.7c0.7-2,1.6-4,1.8-6
		c0.9-9,1.5-18,2.2-27c0.4-4.8,0.7-9.6,0.9-14.4c0.4-8.2,0.8-16.4,0.9-24.6c0.1-8-0.3-16-0.4-23.9c0-1.6-0.5-2.6-1.8-3.2
		c-3.2-1.5-6.5-3-9.8-4.3c-1.7-0.7-3.6-0.9-5.3-1.5c-3.6-1.3-7.2-3.1-10.9-3.9c-4.1-0.9-8.3-1-12.5-1.4c-7.2-0.7-14.3-1.4-21.4,0.7
		c-0.4,0.1-0.9,0.1-1.4,0.1c-4.1,0.4-8.3,0.6-12.4,1.1c-2.9,0.4-5.7,1.4-8.6,1.9c-3.9,0.7-5.2,2-5.8,5.7c-0.6,3.9-1.5,7.7-2.4,11.6
		c-0.2,1-0.8,2-1.1,3c-0.6,2.5-1,5-1.6,7.5c-0.5,2.2-0.8,4.3,1.3,6c0.6,0.5,1,1.2,1.4,1.8c1.9,3.2,3.7,6.5,5.6,9.7
		c4.3,7.3,8.6,14.5,12.8,21.8c7.5,12.9,14,26.2,19.7,39.9c1.7,4,2.9,4.6,7.1,3.8c0.4-0.1,0.8,0,1.2,0c6.9-0.6,13.9-1.1,20.8-1.8
		C219,364.9,221.7,364.4,224.4,364.1z M377.5,549.9c-1.1-0.6-1.9-0.6-2.3,1.5c-0.5,3.2-1.5,6.3-2,9.5c-0.7,4.2-1.3,8.5-1.5,12.8
		c-0.1,3.3,0.4,6.7,0.8,10c0.4,3.4,0.6,6.8,1.4,10.1c1.7,7,3.6,14,6.4,20.8c3.6,8.5,8,16.1,15.6,21.6c5.9,4.3,12,8.5,18,12.7
		c0.4,0.3,1,0.4,1.5,0.6c4.3,1.8,8.9,3.1,12.8,5.6c2.5,1.6,4.8,1.6,7.3,1.5c7.9-0.5,15.8-1.1,23.7-1.7c2.9-0.2,6-0.4,8.8-1.2
		c6-1.8,11.9-3.9,17.8-5.9c2.9-1,5.9-2,8.7-3.3c8.2-4.1,16.3-8.3,24.4-12.5c3.2-1.7,6.5-3.5,8.4-6.9c1.6-2.8,3.3-5.5,5.1-8.1
		c1.6-2.5,1.5-5.1-0.2-7.2c-2.3-3-2.3-6.5-2.4-9.8c-0.1-4.6,0.5-9.2,0.8-13.8c0.5-6.8,1-13.5,1.4-20.3c-4.2-0.8-5.3,0.4-4.2,3.9
		c0.2,0.6,0.3,1.3,0.1,1.8c-1.9,5.4-1.1,11.2-3.9,16.5c-2.6,5-4.9,10.2-9,14.3c-2.2,2.2-5,3.8-7.4,5.9c-1.8,1.5-3.4,2.8-5.8,3.5
		c-4.7,1.4-9.2,2.9-14.1,2.6c-6.1-0.4-12.4,1.4-18.4-1.8c-3.6-1.9-7.8-2.5-11-5.3c-3-2.5-6.1-5-7.4-8.7c-1.9-5.6-1.7-11.6-1.8-17.5
		c-0.1-5.1,2.7-9.3,4.2-13.9c0.6-1.8,1.7-3.4,2.7-5.3c-5.4-0.4-10.3-0.8-14.9-1.2c-0.3,4.6,0.1,9-0.9,13.1
		c-1.3,5.3-3.8,10.3-5.8,15.4c-1.9,4.8-5.4,8.2-9.7,10.9c-3.7,2.4-7.7,4-12.2,4.4c-2.5,0.2-5,1.1-7.4,0.7c-4.4-0.7-8.8-1.9-13.1-3.3
		c-2.4-0.8-4.6-2.3-6.7-3.7c-0.9-0.6-1.6-1.7-2.3-2.6c-1.5-1.7-3.3-3.3-4.4-5.2c-2.5-4.4-4-9.2-4.7-14.2c-0.1-1-0.7-2-0.6-2.9
		C374.8,565.3,376.2,557.7,377.5,549.9z M165.9,510.8c3.1,0.3,5.4,0.7,7.7,0.8c8.4,0.3,16.7,0.4,25.1,0.6c0.5,0,0.9,0.1,1.4,0.2
		c5.1,0.3,10.2,1.3,15.2,0.6c9.3-1.3,18.5-3.4,27.6-5.6c8-1.9,15.9-4.1,23.6-6.7c5.6-1.9,11.1-4.2,16.2-7.2
		c5.4-3.1,10.6-6.9,15.3-11c2.9-2.5,6.8-4.2,8.5-8.1c0.5-1.1,1.4-2,2.1-3.1c2.4-3.9,5.2-7.5,6.8-11.7c1.5-4,5.4-7.3,4-12.3
		c-0.1-0.3,0.4-0.7,0.5-1c0.7-2.1,1.4-4.2,2-6.3c0.7-2.7-0.5-5.7,1.6-8.2c0.2-0.2-0.1-0.9-0.1-1.3c0-0.6,0.1-1.2,0.2-1.8
		c0.3-1.5,0.8-2.9,0.7-4.4c-0.1-2.9-0.5-5.7-0.7-8.6c-0.1-1.1,0.3-2.2,0.1-3.2c-1.3-5.2-2.7-10.4-4.2-15.5c-1-3.2-2.1-6.4-3.5-9.4
		c-1.3-2.7-3-5.2-4.6-7.7c-1.9-3-3.6-6.3-6-8.9c-2-2.2-3.4-5.4-6.9-5.9c0,0.5,0,1,0,1.4c0.4,6.8,1.2,13.6,1.2,20.3
		c0,5.4-0.9,10.9-1.5,16.3c-0.5,4.5-1.2,8.9-1.7,13.4c-0.3,2.2-0.3,4.4-0.5,6.6c0,0.5-0.2,0.9-0.3,1.4c-1.9,5.8-3.9,11.6-6.1,18.1
		c1.4-1.3,2.4-2.1,3.3-3c2.5-2.3,5-4.7,7.6-7c0.4-0.4,1.2-0.4,1.8-0.5c0,0.6,0.4,1.5,0.1,1.8c-2.3,3.1-4.5,6.6-7.3,9.1
		c-4.6,4.1-9.5,7.8-14.6,11.2c-4.6,3.1-9.7,5.6-14.5,8.5c-2.7,1.6-5.3,3.5-8,5.2c-1.8,1.1-3.7,2-5.6,2.9c-3.3,1.6-5.5,4.5-9.2,5.7
		c-3.5,1.1-6.7,3.4-10.1,4.9c-1.9,0.8-4.1,1-6,1.8c-3.4,1.5-6.7,3.3-10.1,4.9c-3.8,1.8-7.5,3.7-11.4,5.4c-2.8,1.2-5.8,2.1-8.7,3.1
		c-4.1,1.3-8.1,2.5-12.2,3.8c-1.3,0.4-2.5,0.8-3.8,1.1c-5.1,1.5-10.1,3.1-15.6,2.7c-1.5-0.1-2.3,1-1.5,2.6
		C164.6,508.2,165.4,509.8,165.9,510.8z M433.6,666.3c-0.4,2.2-0.7,4.1-1,6c-0.9,6,1.7,11.5,3,17.1c0.9,3.9,2.4,7.7,3.9,11.5
		c0.4,1,1.6,2.1,2.6,2.5c1.6,0.6,3.4,0.8,5,0.8c10.7-0.2,21.5-0.5,32.2-0.8c0.8,0,1.5,0.5,2.3,0.8c-0.6,0.4-1.2,1.1-1.9,1.2
		c-12.4,0.4-24.8,0.7-37.1,1c-2.7,0.1-5-0.5-6.9,2.8c-3,5.2-3.9,10.3-2,15.8c1.5,4.3,3.4,8.5,5.4,12.6c1.3,2.7,3.6,5.2,6.7,5.3
		c5.9,0.1,11.7-0.3,17.6-0.7c1.9-0.1,3.8-0.8,5.7-1.1c2.8-0.4,5.6-0.6,8.3-0.9c1.1-0.1,2.2-0.2,3.4-0.3c0.1,0.3,0.2,0.5,0.3,0.8
		c-1.1,0.5-2.1,1.3-3.2,1.5c-3.1,0.5-6.2,0.7-9.3,1.1c-7.1,1.1-14.1,2.2-21.2,3.4c-0.6,0.1-1.4,0.5-1.5,1c-0.4,1.4-0.7,2.9-0.7,4.4
		c0.1,2.8,0.4,5.7,0.9,8.5c0.3,1.3,1.2,3.5,2.1,3.6c5.1,0.8,10.2,1.1,15.4,1.4c1.6,0.1,2.7,0.5,2.7,2.2c0.1,6.1,0.3,12.2,0.2,18.3
		c0,1.2-0.7,2.6-1.5,3.5c-1.7,2.1-1.6,4.6,1,5.2c3.7,0.9,7.7,1.8,11.4,1.4c5.9-0.6,11.7-2.5,17.6-3.5c3.4-0.6,4.7-2.6,5.4-5.7
		c0.8-3.9,1.8-7.7,2.8-11.5c1.4-5.7,2.9-11.4,4.2-17.1c0.3-1.3,0.6-2.8,0.2-3.9c-0.8-2-2.1-3.7-3.3-5.5c-3.1,2-7.2,0.9-8.4-2.5
		c-0.8-2.3-0.7-4.8-1.1-7.2c-0.2-1.1-0.4-2.3-1-3.1c-0.8-1-2.5-1.4-3.2-2.4c-2.9-4.3-4.2-9.2-4.8-14.3c-0.7-5.6,1.7-10.4,4.3-14.7
		c-2.6-3.2-5.1-6.3-7.7-9.3c-3.1-3.7-4.2-8.2-4.5-12.8c-0.4-5.6,0.4-4-4.8-4.9c-0.2,0-0.5,0-0.7,0c-5.4,0.3-10.5-1.5-15.6-2.9
		c-5-1.4-9.6-4.7-15.1-4.2c-0.4,0-0.8-0.4-1.2-0.6C438.3,668.7,436.2,667.6,433.6,666.3z M90.9,295.2c-1.6,3.2-2.9,5.8-4.1,8.3
		c-1,2.2-1.8,4.4-2.8,6.6c-1.6,3.3-3.7,6.5-4.7,10c-1.3,5-2,10.2-4,15.1c-1.7,4.4-2.6,9.1-3.7,13.7c-0.1,0.5,0.4,1.4,0.9,1.7
		c2.2,1.1,4.4,2.4,6.7,3c2.9,0.9,5.4,2.9,8.8,2.8c2.7,0,5.7,1,8,2.5c1.7,1.1,3.2,1.9,5.1,2.3c2.3,0.4,4.6,0.7,6.9,1
		c4.1,0.6,8.2,1.2,12.3,1.8c0.7,0.1,1.4-0.2,2.1-0.2c0.9,0,2-0.3,2.7,0.1c4.4,2.4,9.3,2.2,13.9,2.6c6.3,0.5,12.7,0.1,19,0.1
		c3.5,0,7,0.4,10.5,0.5c2.6,0.1,5.3-0.4,7.9,0c3.2,0.5,6.4,1.3,9.8-0.2c-0.3-1.1-0.5-2.5-1-3.6c-4.3-8.7-8.6-17.4-12.9-26.1
		c-2.4-4.9-4.7-9.9-7.5-14.6c-5.2-8.9-10.6-17.6-16-26.3c-1.1-1.8-2.7-3.3-4.1-5c-1,1.2-1.6,2.5-2.6,2.9c-4.5,2.2-9,4.2-13.5,6.2
		c-2.1,0.9-4.3,2-6.4,2c-6.3,0.2-12.5,1.6-18.8,0.1C98.5,301.7,93.5,301.4,90.9,295.2z M435.5,703.1c0.2-0.2,0.3-0.4,0.5-0.6
		c-4.7-11.6-6.9-23.6-4.7-35.9c-6.9,0.4-13.6,0.8-20.3,1.3c-1.3,0.1-3.3,0.4-3.6,1.1c-1.3,3.5-2.5,7.2-2.9,10.9
		c-0.3,2.6,0.7,5.5,1.3,8.1c0.8,3.2,2,6.3,2.7,9.5c0.2,0.7-0.7,2.4-1.2,2.4c-3,0.3-3.9,2.6-5.1,4.7c-3.1,5.6-2.9,11.8-2.7,17.9
		c0,2.3,0.3,4.7,1,6.9c0.8,3,2.3,5.9,3.1,8.9c0.6,2.6,2,4.3,4.1,5.6c2.4,1.4,3.3,3.2,2.8,6c-1.4,8.6,0.5,16.9,2.8,25
		c1,3.5,2.6,6.8,3.3,10.4c0.4,2,1.4,3.1,2.9,3.9c5.4,3,11.2,4.5,17.3,5.4c4,0.6,7.9,0.3,11.8-0.1c0.8-0.1,1.6-0.5,2.9-1
		c-1.4-1.7-2.6-3-3.6-4.3c-0.4-0.6-0.9-1.4-0.9-2.1c0.1-5.4,0.4-10.8,0.6-16.1c0.1-3.3-0.4-3.7-3.9-3.9c-1.3-0.1-2.7-0.6-3.9-1.1
		c-0.4-0.2-0.7-1.2-0.5-1.8c0.1-0.4,0.9-0.8,1.4-0.9c0.8-0.1,1.6,0,2.1,0c0-5.7,0-11,0-16.5c-0.3,0-0.8-0.1-1.2-0.1
		c-7.2,0-14.4,0-21.7-0.1c-1.4,0-2.9-0.5-4.2-1.1c-0.5-0.2-0.9-1.3-0.9-1.9c0-0.5,0.8-1.3,1.3-1.4c1.5-0.2,3-0.2,4.4-0.1
		c5.6,0.3,11.2,0.6,17.1,1c-0.8-1.4-1.4-2.2-1.8-3.1c-1.9-4.7-4.1-9.3-5.4-14.1c-1.3-4.8-1.7-9.9,0.7-14.7c0.9-1.8,1.9-3.5,2.7-4.9
		c-6.2-1.2-12.4-2.3-18.6-3.5c-0.7-0.1-1.4-0.4-1.9-0.8c-0.5-0.5-0.7-1.3-1-1.9c0.7-0.2,1.4-0.7,2-0.5c3.1,0.9,6.2,2.2,9.6,1.3
		c0.3-0.1,0.8,0.1,1.1,0.2C428.5,701.6,432,702.4,435.5,703.1z M435.1,661.2c-0.1,0.1-0.2,0.2-0.3,0.3c1,0.4,2,1,3,1.3
		c1.8,0.6,3.7,0.8,5.3,1.6c4.1,2,7.8,4.3,12.9,4.5c4.9,0.2,9.7,3.2,14.9,3.5c4.5,0.2,9,0.5,13.5,0.6c1.3,0,2.5-0.9,3.8-1.1
		c5.3-0.5,10.6-0.8,15.9-1.4c5.5-0.6,11-1.2,16.4-2.4c4.4-1,8.8-2.5,13-4.4c5-2.2,10.7-3.1,14.5-7.6c1.2-1.4,3.1-2.3,4.6-3.5
		c3.2-2.8,6.7-5.3,9.2-8.6c5-6.5,8.9-13.6,10.5-21.8c0.7-3.6,1.6-7.1,2.1-10.7c0.2-1.7-0.8-3.6-0.5-5.2c0.9-4,0.4-8.2,1.5-12.3
		c0.8-3-0.4-6.6-0.8-9.9c-0.1-1-0.7-2-1.1-3c-0.4,0.9-0.8,1.8-1.3,2.6c-2.5,4.4-4.8,9-7.7,13.2c-2.3,3.4-5.4,6.2-8.1,9.3
		c-3.3,3.6-6.5,7.3-10,10.8c-2.7,2.7-5.8,5-8.6,7.6c-1.4,1.2-2.5,2.8-4,3.9c-3.1,2.4-6.3,4.8-9.7,6.9c-4.1,2.6-8.2,5.1-12.5,7.2
		c-4.3,2.1-8.9,3.4-13.4,5.3c-7.6,3.2-14.8,7.5-23.1,9c-6.2,1.1-11.9,3.9-18.4,3.7C449.7,660.1,442.4,660.9,435.1,661.2z
		 M178.4,422.4c-1.3-4.8-2.3-9.3,2.2-12.9c2-1.6,4.5-1.8,5.9,0.4c1.4,2.1,2.3,4.6,3.5,7.1c2.5-3.9,5.1-8.2,7.5-12
		c-0.3-1.5-0.4-2.7-0.7-3.7c-0.7-2.6,1.2-5.1,0.1-7.7c-0.6-1.3-0.8-2.8-1.1-4.2c-0.3-1.4-0.5-2.9-0.9-4.3c-1-3.3-3-6-4.6-8.9
		c-1.7-3.2-3.4-4-7.1-3.8c-8.8,0.5-17.7-0.1-26.6-0.3c-2.6-0.1-5.3-0.3-7.9-0.5c-3-0.3-6-0.8-9-0.8c-4.8-0.1-9.7,1-14.5-0.5
		c-0.6-0.2-1.9,0.4-2,0.9c-0.5,2-0.8,4.1-1,6.1c-0.1,1.5,0.2,3-0.1,4.5c-0.5,2.7-1.2,5.4-0.2,8.2c1.1,3,1.7,6.2,2.7,9.3
		c0.8,2.6,2,5,2.8,7.6c0.9,2.9,2.2,5.4,4.5,7.5c1.3,1.2,2.5,2.7,3.9,3.6c1.8,1.1,3.9,1.8,5.9,2.6c0.6,0.2,1.4,0,2.1,0.3
		c2.6,1,5.1,2.2,7.8,3.1c3.5,1.1,6.9,2.4,10.7,1.9c1.3-0.2,2.6-0.5,3.9-0.5C170.2,424.9,174.4,424.6,178.4,422.4z M238.7,362.6
		c2.9-0.8,4.9-1.5,7-2c6.1-1.5,12.3-2.7,18.4-4.3c2.3-0.6,4.4-2.3,6.7-3.1c2.3-0.8,4.7-0.9,7-1.6c3.1-1,6.1-2.2,9.1-3.5
		c3.8-1.7,7.6-3.6,11.4-5.3c1.5-0.7,1.8-1.8,1.3-3.3c-1.2-3.4-2.7-6.8-3.6-10.3c-2.2-7.8-7-14.2-10.7-21.2
		c-2.3-4.4-5.6-8.2-8.6-12.2c-3-4-6-8-9.4-11.8c-2.1-2.3-4.9-4.1-7.3-6.2c-3.4-2.8-6.7-5.7-10.2-8.4c-1.4-1.1-3.2-1.8-5.4-3
		C245.7,298.8,243.3,330.5,238.7,362.6z M455.7,570.1c-1.1,3.3-2.6,6.4-3.2,9.6c-0.6,3.7-1.6,7.5-0.3,11.3c0.9,2.7,1.4,5.7,2.9,7.9
		c4.6,6.8,11.2,10.6,19.5,11.7c8.2,1.2,16.2,0,24.1-1.4c3-0.5,5.9-1.7,8.1-3.8c1.3-1.2,2.6-2.4,3.9-3.7c1.8-1.8,3.9-3.4,5.3-5.5
		c2.2-3.6,4-7.4,5.8-11.2c0.8-1.8,1.5-3.8,1.7-5.8c0.4-4.2,0.4-8.5,0.6-13c-19.8-0.9-39.1-3.9-58.5-3.4c0.9,5.5-0.2,7.8-4.5,9.7
		C459.2,573.2,457.6,572.6,455.7,570.1z M480.7,678.7c0.3,1,0.4,2.1,0.8,3.1c2.8,7,7.1,13,12.4,18.3c1.7,1.7,2,4.2,0.4,5.1
		c-3.7,2.3-3.6,6.3-4.1,9.7c-0.9,6.1,2.1,11.5,4.7,16.9c1,2,2.8,2.7,4.8,2.7c5.6-0.2,11.2-0.5,16.8-0.7c2.9-0.1,5.8-0.1,8.4-1.6
		c0.9-0.5,2.3-0.9,2.8-1.7c1.2-1.9,2.2-4.1,3.1-6.2c2.6-5.9,4.5-11.7,4.4-18.4c-0.1-10.6-3.9-19.3-11.5-26.5c-1-0.9-1.1-1.7-0.5-2.8
		c0.5-1,0.8-2.2,1.1-3.3C509.9,676.6,495.4,677,480.7,678.7z M78.3,409.5c-0.3-0.2-0.6-0.4-0.8-0.6c-0.1,0.4-0.2,0.9-0.4,1.3
		c-1,2-1.9,4.1-3.2,5.9c-2.5,3.7-3.2,8-4.7,12c-2.2,6.1-1.5,12.5-0.8,18.8c0.4,3.6,1.1,7.2,2.4,10.5c2,5.1,4.5,10,7,14.9
		c0.9,1.7,2.3,3.3,3.8,4.7c2.3,2.2,5.1,4,7.1,6.4c3.8,4.6,8.2,8.5,13.2,11.9c0.5,0.3,1,0.8,1.4,1.2c1.3,1.2,2.5,2.6,4,3.4
		c2,1.1,4.3,1.9,6.5,2.8c6.5,2.6,12.9,5.6,20,6.3c2.5,0.2,5,0.1,7.5,0.2c4.5,0.2,9.1,0.6,13.6,0.8c2,0.1,4.1-0.2,6.2-0.3
		c-0.4-1.4-0.7-2.7-1.2-3.9c-0.6-1.3-1.1-2.5-2.9-3c-2.9-0.8-5.8-1.9-8.4-3.4c-6.3-3.4-12.7-6.8-18.7-10.7
		c-7.5-5-14.8-10.5-21.9-16.1c-3.3-2.6-6.2-5.7-8.9-9c-2.6-3.1-4.6-6.7-6.8-10.1c-1.4-2.1-3-4.2-4-6.5c-1.2-2.7-1.9-5.6-2.9-8.3
		c-1.8-5-3.9-9.9-5.3-15c-1.1-4-1.2-8.2-1.7-12.3C78.3,410.8,78.4,410.1,78.3,409.5z M282.1,354.8c-6.8,2.4-12.9,4.8-19.1,6.6
		c-5.4,1.6-11,2.7-16.6,4c-4.1,0.9-8.2,1.7-12.3,2.7c-0.5,0.1-1.1,1-1.3,1.6c-1.1,4.4-0.9,9-3.1,13.2c-0.3,0.6-0.4,1.4-0.4,2.1
		c-0.2,5.4-0.1,10.8,2.7,15.8c1.6,3,2.6,6.4,4.5,9.2c1.2,1.8,3.4,3.2,5.5,4c2.5,0.9,5.4,0.9,8.1,1.2c1,0.1,2.1,0,3.2,0
		c-1.5-5.1-2.1-9.5,2.4-13c2-1.6,4-1.6,5.8,0.3c2.7,2.9,3.4,6.3,1.9,10.1c3.4,0.4,4.4-0.2,5.7-1.9c1.2-1.6,2.7-3.1,4.3-4.4
		c2.8-2.3,5.9-4.5,7.2-8.1c1.6-4.8,3.4-9.6,3.6-14.7c0.2-4.4,0.9-8.8,1.1-13.2c0.1-1.4-0.6-2.8-0.9-4.2
		C283.8,362.2,283,358.6,282.1,354.8z M438.2,560.2c-2.2-1-4.1-2.2-6-2.5c-5.9-1.1-11.9-1.8-17.8-2.6c-3.5-0.5-7-0.5-10.5-1.1
		c-5.3-0.8-10.6-1.9-16.3-2.9c1.9,4,1,7.1-2.1,9.5c-2.5,2-3.5,1.9-7.1-0.5c-0.1,0.3-0.3,0.6-0.3,0.8c-0.5,7.2-0.9,14.5,2,21.4
		c1.4,3.3,2.7,6.7,4.8,9.5c1.4,1.9,4,3.1,6.2,4.4c4.9,3.1,10.6,4.5,16.2,5c3.8,0.4,8.2,1.8,11.4-2.2c0.2-0.2,0.6-0.3,0.9-0.3
		c3.3-0.1,5.7-1.8,8-4.1c3.7-3.6,5.5-8.1,7.6-12.5c1.5-3-0.2-6.8,2.6-9.4c0.2-0.2,0.1-0.8,0.1-1.1C437.9,567.8,438,564,438.2,560.2z
		 M334.9,657.2c-1.1-4.1-1.4-5.6,0.1-7c4.1-3.8,0.3-7.5,0.1-11.2c-0.1-1.6-1.1-3.1-1.6-4.7c-1.1-3.7-2.1-7.4-3.1-11.1
		c-1.3,0.5-2.4,1.1-3.6,1.4c-7.4,1.6-14.8,3.1-22.2,4.8c-6.9,1.6-13.8,3.2-20.9,3.4c-6.8,0.1-13.7,0-20.8,0c0,1-0.1,2.2,0,3.4
		c0.5,5,1.1,10,1.6,15c0.3,2.9,0.3,5.8,0.5,8.7c5.2,0.7,10.4,1.5,15.5,2.1c4.1,0.4,8.2,0.6,12.3,0.8c5,0.3,10,0.5,15,0.8
		c2.2,0.1,4.2-0.4,6.3-1.2c2.4-0.9,5.2-0.8,7.7-1.4C326.1,659.9,330.4,658.5,334.9,657.2z M404.7,667.3c-2.5,0.1-4.3,0.4-6.1,0.3
		c-2.2-0.1-4.8,0.2-6.7-0.7c-2.3-1.1-3.8-0.4-5.6,0.6c-0.9,0.6-1.8,1.2-2.8,1.8c-1.4,0.9-2.2,0.6-2.5-1.1c-0.5-3-1.9-5.6-4.4-7.5
		c-2.4-1.8-4.7-3.6-7.3-4.9c-2.9-1.5-5.9-3.1-9.5-2.5c-1.2,0.2-2.5,0.1-3.7,0.3c-0.6,0.1-1.1,0.6-1.5,1.1c-2.2,3-4.2,6.1-6.6,9.1
		c-1.8,2.2-4,4.1-5.8,6.2c-0.6,0.7-1,2-0.8,2.9c0.8,3.2,1.7,6.4,2.8,9.6c0.5,1.7,1.1,3.4,2.1,4.8c3.3,4.5,8.2,7.3,12.6,10.5
		c1.6,1.2,3.5,2.2,5.4,2.7c5.2,1.3,10.4,2.6,15.7,3.5c4,0.7,8.1,0.8,12.1,1.1c2.1,0.1,3.5-0.7,4.5-2.9c1-2.2,2.9-4.1,4.7-5.7
		c1.1-1,1.2-1.8,0.9-3.1c-0.5-2.4-1.1-4.8-1.4-7.2C400.4,679.8,401.7,673.7,404.7,667.3z M34,503.2c-1.1-0.7-1.9-1-2.5-1.5
		c-6.3-4.9-15.2-4.1-20.2,0.7c-3.4,3.3-6.1,6.8-7.2,11.7c-0.9,3.9,0.3,7.2,1.5,10.7c2.2,6,5.9,10.8,11.3,14.1c5,3,10.3,5.8,15.6,8.4
		c1.7,0.8,4.2,1.8,5.6,1.2c5.9-2.9,11.6-6.4,14.7-12.7c1-2,2-4,3.2-5.9c2.7-4.2,2.3-9.1-0.8-13.2c-2-2.7-4.5-5-5.2-8.7
		c-0.9-5.3-2.4-10.4-3.8-15.6c-0.4-1.5-1.2-2.9-2.1-4.2c-1-1.4-2.6-2.4-4.3-1.6c-1.1,0.5-2.1,1.7-2.7,2.8c-0.7,1.4-1,3.1-1.4,4.7
		C35.2,496.8,34.7,499.8,34,503.2z M276.4,782.3c-11.4,1.1-22.4,4.3-33.9,3.4c-11.4-0.8-22.9-1-34-3.5c0,1.6,0,2.9,0,4.3
		c0,4.4-2.1,8.2-3.7,12.2c-0.4,0.9-0.7,2-1.4,2.6c-2.2,1.7-1.1,4.4-2.1,6.4c-0.1,0.3,0.1,0.8,0.4,1.1c1.4,1.2,2.7,2.6,4.4,3.3
		c2,0.8,4.2,1.1,6.3,1.4c6.9,0.9,13.8,1.6,20.5-1.3c0.9-0.4,2-0.5,2.9-0.9c4.2-2,9,0.8,13.2-2.3c2-1.5,5.3-1.6,8.1-1.8
		c3.5-0.3,5.8-2.6,8.1-4.7c2.2-1.9,3.7-4.6,6.5-4.7C273.4,792.6,272.4,786.9,276.4,782.3z M123.7,765c-0.4,1.3-1,2.4-1.1,3.6
		c-0.5,3.8-0.9,7.6-1.4,11.4c-0.1,0.4-0.3,0.9-0.5,1.2c-1.2,1.5-2.5,3-3.7,4.5c-2.1,2.6-3.9,5.2-3.5,8.8c0.2,2.2,1,3.3,3.2,3.4
		c1.7,0.1,3.4,0.4,5.1,0.4c4.9,0.2,9.8,0.3,14.8,0.4c0.4,0,0.9-0.2,1.3-0.5c2.8-2.3,6.1-1.6,9-1c5.4,1.1,10.3-0.1,15.1-2.3
		c2.8-1.3,6.9-1.3,8.4,1c2-1.1,4-3.1,6-3.2c3.5-0.1,6-1,7.7-4c0.1-0.3,0.5-0.4,0.7-0.6c0.2-0.4,0.5-0.8,0.5-1.2c0-2.8,0-5.6,0-8.5
		c-1.5-0.4-2.7-0.9-3.9-1c-5.4-0.6-10.8-1-16.1-1.8c-5.9-0.9-11.9-1.9-17.7-3.3c-5.5-1.3-10.9-3.1-16.3-4.7
		C128.6,767,126.2,766,123.7,765z M428.6,662c0.1-0.2,0.2-0.4,0.4-0.6c-1.3-1.2-2.6-3.1-4-3.3c-5.1-0.8-9.6-2.9-13.9-5.4
		c-4.6-2.6-8.8-5.7-13.2-8.5c-1.6-1-3.4-1.9-4.9-3.1c-2.7-2.4-5.4-5-7.9-7.7c-3.9-4.3-7.8-8.5-11.3-13.1c-2.6-3.3-4.6-7.1-6.8-10.7
		c-0.3-0.6-0.1-1.5-0.1-2.3c0.8,0.3,1.7,0.5,2.3,1c0.8,0.6,1.3,1.6,1.9,2.4c0.1-0.1,0.2-0.2,0.3-0.2c-1.8-6.8-3.5-13.5-5.3-20.2
		c-0.1,0.1-0.4,0.5-0.5,1c-1.2,3.9-2.7,7.7-3.3,11.7c-0.6,4.3-0.4,8.7-0.4,13c0,1.4,0.5,2.7,0.7,4.1c0.4,2.4,0.5,4.8,1.1,7.1
		c0.5,2.2,2.4,4.1,1.5,6.7c-0.1,0.3,0.3,0.8,0.6,1.2c2.7,4.4,5.3,9,8.2,13.2c1.9,2.7,4,5.6,6.8,7.3c3.7,2.4,8,4.2,12.2,5.7
		c7.4,2.8,15,4.3,23.1,2.6C420.1,662.9,424.4,662.6,428.6,662z M272.2,664.9c0,2.1-0.1,3.9,0,5.6c0.1,1.3,0.5,2.5,1,3.7
		c0.5,1.1,0.9,2.8,1.8,3.1c1.6,0.6,3.3,0.5,5-0.9c1.6-1.4,2-3.1,2.8-4.8c0.5-1.1,2-2.1,3.2-2.5c1.4-0.5,2.6,0.2,2.6,2
		c0,0.4,0.4,0.8,0.7,1.2c1.1,1.7,2.7,3.3,3.2,5.2c0.6,2.6,2.3,4.2,4.1,5.7c3.7,3,7.5,5,12.3,2.1c1-0.6,2.5-0.6,3.4-1.4
		c1.8-1.4,4-2.7,5-4.7c1.8-3.5,2.9-7.3,4.5-11.7c-4.1,0.3-7.5,0.7-11,0.9c-9.2,0.5-18.3-0.8-27.4-2.1
		C279.9,666,276.3,665.5,272.2,664.9z M498.6,738.5c-0.1,1.1-0.2,1.8-0.1,2.6c0.3,1.9,0.1,4.1,2.2,5.1c2.2,0.9,2.9-1.2,4-2.3
		c0.1-0.1,0.1-0.1,0.2-0.2c0.9-0.8,1.7-0.8,2.1,0.5c0.2,0.7,0.4,1.4,0.7,2c1.2,2,2.2,4.1,3.7,5.8c1.4,1.6,4.1,1.3,5.8-0.1
		c4.3-3.4,5.1-8.4,6.3-13.3C515.1,738.5,506.9,738.5,498.6,738.5z M337,669.7c4.4-5.2,8.7-10.4,13.4-15.9c-2.4-1.2-4.7-2.4-7-3.3
		c-2.3-0.9-3.7,0.5-5.1,2.2c-1.3,1.7,0.3,2.5,0.9,3.7c0.2,0.5,0.7,0.8,1.1,1.2c2.7,2.5,2.5,3.4-0.9,4.5
		C333,664.2,333,664.2,337,669.7z M36.7,554c0-0.3,0-0.6,0-0.9c-3.6-1.8-7.2-3.6-11.2-5.5c-1.4,4.4-2.6,8.5-4,12.8
		C27.8,560.2,31.6,555.9,36.7,554z M339.6,645.9c2.3,0.3,4.2,0.6,6.1,0.9c0-0.1,0-0.2,0.1-0.3c-2-1-4-2.1-6.4-3.3
		C339.5,644.6,339.6,645.4,339.6,645.9z"/>
	<path class="st0" d="M268.1,664.4c0.4,4.3,0.9,8.4,1.3,12.5c0.3,3.2,2.7,5.2,6.4,5.6c0.6,15.8,1.6,31.6,1.1,47.4
		c-0.5,15.8,0.8,31.5,0.1,47.1c-2.8,0.9-5,1.8-7.3,2.3c-2.5,0.5-5.1,0.5-7.6,0.8c-2.4,0.3-4.7,0.7-7.1,1.1
		c-8.9,1.5-17.7,1.3-26.6,0.2c-5.8-0.7-11.7-1.2-17.5-1.7c-2.8-0.3-3.5-1.8-2.2-4.4c0.5-0.9,1-2.1,0.8-3c-0.6-3.8,0.3-7.8-1.3-11.6
		c-0.8-1.7-0.3-4-0.4-6.1c0-4.8,0.2-9.6-0.1-14.4c-0.3-4.6-1.1-9.2-1.5-13.8c-0.1-1.9,0.1-4,0.6-5.8c0.6-2.3-0.4-3.9-2.8-4.3
		c-3.5-0.5-7.2-0.9-10.4-2.2c-1.6-0.6-2.6-3-3.5-4.7c-1.6-3.2-3.1-6.4-4.2-9.8c-1.1-3.2-1.5-6.7-2.3-10c-0.7-2.8-1.7-5.5-2.5-8.2
		c-0.8-3-1.4-6-1.9-9c-0.5-2.9-0.7-5.8-1-8.7c-0.1-0.7,0.1-1.3,0.2-2.7c6.8,2.3,13.3,4.6,19.8,6.7c2.6,0.9,5.2,1.6,7.8,2.2
		c7.5,1.9,14.9,4.5,22.8,3.9c1.1-0.1,2.3,0.2,2.3-1.5c0-1.4,0-2.4-1.9-2.9c-4.9-1.1-9.7-2.8-14.6-3.9c-8.1-1.7-16.4-3.2-24.6-4.7
		c-3.2-0.6-6.5-1.1-9.7-1.8c-1.6-0.3-2.7-1.1-2.5-3.2c0.2-2.3-0.5-4.7-0.3-7c0.3-4.5,1-9,1.5-13.5c0.1-1.3,0-2.7,0.1-4
		c0.5-5.1,1.1-10.2,1.5-15.3c0.2-2.4,0.1-4.7,0.4-7.1c0.2-1.6,0.6-3.1,1.2-4.6c0.9-2.3,0.9-4.4-0.3-6.4c7.8-2.7,15.8-5.1,23.5-8.2
		c6-2.4,11.7-5.5,17.5-8.2c2.2-1.1,4.5-2,6.7-3.2c0.5-0.3,0.8-0.9,1.2-1.4c-0.6-0.3-1.3-0.9-1.7-0.7c-2.1,0.6-4.2,1.3-6.1,2.2
		c-2.7,1.3-5.3,2.9-8.1,4.1c-1.4,0.6-3.1,0.3-4.6,0.6c-3.2,0.8-6.3,1.7-9.4,2.5c-3.9,1-7.9,1.7-11.8,2.7c-3.2,0.9-6.3,2.1-9.9,3.3
		c-1.3-2.5-2.8-5.2-4.3-7.8c-1.5-2.6-3.1-5.2-4.6-7.8c-0.4-0.6-0.4-1.5-0.6-2.2c-0.4-1.5-0.8-3.1-1.2-4.6c0-0.1-0.1-0.1-0.1-0.2
		c-0.8-4.1-2.1-8.2-2.3-12.4c-0.7-14-1-28-1.5-42.6c3.2,0.2,6.3,0.3,9.3,0.5c1.9,0.1,3.9,0.6,5.8,0.7c4.3,0.2,8.6,0.3,12.8,0.5
		c4.6,0.3,9.2,1,13.7,1.1c5.3,0.1,10.7,0,16-0.4c3.3-0.3,6.6-1.2,9.9-1.8c2.5-0.4,5-1.1,7.4-1c5.9,0.3,10.8-2.8,16.2-4.2
		c2.1-0.5,4.2-1.5,6.3-1.5c7.8,0,14.4-3,20.7-7c1.5-0.9,3.2-1.5,5.3-2.5c1.5,3,2.9,5.9,4.3,8.8c0.9,1.7,1.9,3.4,2.6,5.2
		c1.8,4.2,3.5,8.5,5.2,12.7c0.6,1.6,1.1,3.3,1.7,4.9c1.5,4,2.4,8.4,4.7,11.9c3.3,4.9,3.9,10.6,5,15.9c1,4.9,3.4,9.2,4.5,14
		c1,4.3,2.1,8.6,3.3,12.9c0.9,3.1,1.9,6.1,2.9,9.2c0.1,0.4,0.4,0.9,0.3,1.3c-0.1,4.6,1.8,8.4,4,12.3c0.1,0.2,0.2,0.4,0.2,0.7
		c0.1,4,1.2,7.9,3,11.4c0.1,0.2-0.1,0.6-0.1,0.8c-5.1,1.2-10.1,2.5-15.2,3.7c-5.5,1.2-11,2.6-16.5,3.5c-7.3,1.1-14.6,2.1-21.9,2.7
		c-3.7,0.3-7.5-0.3-11.3-0.5c-3.6-0.2-3.5-0.2-3.7-3.9c-0.2-4.2-0.3-8.4-1.3-12.7c-1.4-6-1.5-12.3-2.1-18.5
		c-0.3-3.6-0.4-7.2-1.4-10.9c-1-3.4-0.5-7.2-0.7-10.8c-0.2-3.4-0.4-6.9-0.9-10.3c-0.1-0.8-1.4-1.4-2.1-2.1c-0.6,0.7-1.7,1.4-1.7,2
		c0.2,4.5,0.5,9,0.9,13.5c0.3,3.2,0.6,6.4,1.4,9.4c1.5,5.4,0.7,10.9,1.3,16.2c0.2,1.7-0.2,3.5,0.1,5.2c0.7,4.1,1.7,8.1,2.3,12.2
		c0.4,2.9,0.3,5.9,0.5,8.9c0.4,6.5,0.8,13,1.4,19.5c0.3,3.7,0.7,7.4,1.5,11c0.2,1.1,1.7,2.2,2.8,3
		C264.9,663.2,266.7,663.8,268.1,664.4z"/>
	<path class="st0" d="M149.3,81.4c0.6,2.8,1.4,6.1,2,9.6c0.5,2.8,0.9,5.6,1.3,8.5c0.5,3.3,1.3,6.6,1.6,9.9c0.4,3.9,0.3,7.8,0.5,11.7
		c0.3,8.8,0.9,17.6,1,26.4c0.1,8.7,0.4,17.5-0.4,26.1c-0.4,3.9-0.3,7.7-0.6,11.6c-0.3,5-0.1,10-1.1,14.8c-1,4.7,0.3,9.6-1,13.9
		c-1.4,5-0.5,9.9-1.5,14.7c-1.1,5.2-1.8,10.3-1.8,15.6c0,1.4-0.6,2.8-0.9,4.3c-0.9,4.8-1.7,9.5-2.5,14.3c-0.6,3.4-1.2,6.8-1.8,10.2
		c-0.4,2.5-0.6,5-1,7.5c-0.3,2-0.3,4.1-1.1,5.9c-0.7,1.6-2,3-3.4,4.2c-1.7,1.5-3.8,2.5-5.6,3.8c-3,2.3-6.6,2-9.9,2.8
		c-3.9,0.9-7.9,1.6-11.8,1.6c-4.4-0.1-8.8-1-13.2-1.9c-1.1-0.2-2.4-1.8-2.8-3c-2.3-6.5-4.2-13.2-6.4-19.7c-0.9-2.6-2.4-5.1-3.5-7.7
		c-0.4-1-0.5-2.2-0.8-3.2c-0.7-2.1-1.5-4.1-2.1-6.2c-0.7-2.5-1.4-5-1.9-7.5c-0.7-3.3-0.7-6.9-1.9-10c-1.4-3.8-0.6-8.1-3.2-11.6
		c-0.9-1.2-0.8-3.1-1.2-4.6c-0.7-2.7-2.2-5.4-1.9-7.9c0.4-3.2-2.2-5.2-2.1-8.1c0-0.9-0.9-1.8-1.2-2.7c-0.9-3.3-1.7-6.6-2.7-9.9
		c-0.9-3.1-2.2-6.2-3.1-9.4c-0.7-2.6-1-5.2-1.7-7.8c-0.8-3.4-2-6.7-2.7-10.1c-0.5-2.4-0.5-4.9-0.9-7.3c-0.5-3.3-1-6.7-1.6-10
		c0-0.2-0.1-0.5-0.1-0.7c-0.3-4.5-0.6-9-1-13.4c-0.1-1.7-0.8-3.3-0.8-5c0-2.5,0.6-5.1,0.3-7.5c-0.5-4.5-1.6-8.8-2-13.3
		c-0.2-2.8,0.5-5.7,0.6-8.5c0.5-7,0.8-14.1,1.4-21.1c0.3-2.6,1.4-5.2,2.1-7.8c1.1-3.8,1.9-7.8,3.2-11.5c0.9-2.8,2.4-5.4,3.5-8.1
		c0.9-2.2,1.5-4.5,2.4-6.7c0.9-2.1,1.9-4.2,3-6.3c0.1-0.3,0.8-0.3,1.3-0.4c2.5-0.3,4.2-2,4.6-4.1c1.3-5.9,5.2-10.1,8.6-14.7
		c1.2-1.6,2.9-2.8,4.5-4c0.4-0.3,1.2-0.4,1.7-0.4c2.7-0.1,5.1-0.3,7.2-2.7c0.6-0.7,3.3-0.3,4.7,0.4c2.9,1.3,5.6,3.3,8.5,4.7
		c4,2,7.6,4.4,10.9,7.4c1.7,1.6,4,2.6,5.9,4.1c1.7,1.3,3.3,2.8,4.8,4.3c4.2,4.5,7.3,9.6,8.9,15.6c1.4,5.2,3.2,10.3,4.7,15.5
		c1.3,4.3,2.4,8.6,3.5,13C149.4,79.4,149.3,80.1,149.3,81.4z"/>
	<path class="st0" d="M187.7,714.1c-6.7-1-13-2-19.2-3c-0.2,0.3-0.4,0.6-0.5,1c0.8,0.8,1.4,1.9,2.4,2.2c5.1,1.8,10.2,3.4,15.5,5.2
		c0,1.6,0,3.6,0,5.7c0,8.5,0,17.1,0,25.6c0,4.4,0.4,8.8,0.2,13.2c-0.2,3.7-0.9,7.3-1.4,11.3c-5-0.5-10.2-0.8-15.3-1.6
		c-7.1-1.2-14.3-2.5-21.3-4.3c-7.9-2-15.7-4.7-23.5-7.1c-0.5-0.2-1.1-1-1.1-1.5c-0.1-4.3-0.8-8.8,0.1-12.9
		c1.5-6.9,0.5-13.7,0.6-20.6c0.1-2.6-1.1-5.3-1.2-7.9c-0.2-4.1,0.1-8.2-0.1-12.2c-0.1-2.9-0.8-5.7-1.2-8.5c-0.2-1.4,0-2.8-0.3-4.2
		c-1.1-4.8-1.1-9.6-0.8-14.5c0.1-2.1-0.7-4.3-1.1-6.4c-0.7-4.2-1.4-8.4-2-12.7c-0.4-2.8-0.2-5.7-0.8-8.4c-1.1-4.5-0.5-8.9-0.1-13.4
		c0.2-2.2-0.5-4.5-0.5-6.8c-0.1-3.3,0.1-6.7,0.1-10c0-0.8,0.2-1.6,0.1-2.3c-0.5-3.5-1.3-7-1.6-10.6c-0.2-3.2,0.2-6.4,0.3-9.5
		c0.1-3.6-0.1-7.2,0-10.8c0.2-5,0.7-10,0.7-14.9c-0.1-9.2-0.4-18.5-0.7-27.7c0-0.8-0.9-1.6-1.3-2.3c-0.6,0.8-1.5,1.5-1.6,2.4
		c-0.7,5.3-1.2,10.7-1.8,16.1c0,0.3,0,0.6,0,0.9c-0.2,12.6-0.4,25.1-0.6,37.7c0,0.5-0.1,0.9-0.1,1.7c-1,0-1.9,0.2-2.8,0
		c-3.7-0.8-7,0.7-10.5,1.6c-1.4,0.4-3,0-4.6,0.1c-1.3,0.1-2.7,0.5-3.9,0.3c-2.7-0.6-5.4-1.7-8.1-2.3c-9-2.2-16.5-7.1-23.6-12.7
		c-2.3-1.8-4.8-3.2-7.2-4.9c-0.9-0.6-1.9-1.3-2.6-1.8c6.6-5,13.3-9.6,19.4-15c6-5.4,11.2-11.6,13.8-19.5c1.4-4.2,2.8-8.5,3.9-12.7
		c0.5-1.8,0-3.5-2.5-4.5c0,1.7,0.1,3,0,4.4c-0.7,6.2-3.6,11.4-6.6,16.6c-1.9,3.4-3.9,6.8-6.4,9.8c-2.8,3.4-6.1,6.5-9.5,9.3
		c-3.7,3-7.9,5.6-11.9,8.2c-0.9,0.6-1.9,0.8-3.4,1.4c-5.8-4.6-12.9-10.3-20.3-16.1c2.4-0.9,4.7-1.6,6.9-2.6
		c5.9-2.8,11.2-6.3,15.9-10.9c1.8-1.8,4.3-2.9,6.1-4.6c6-5.7,10.2-12.6,12.1-20.6c0.6-2.4-0.3-5.2-0.5-7.8c-0.2-1.9-0.4-3.8-0.6-6.1
		c1.1,0.7,2.1,1.3,3,2.1c3.1,3,6.1,6,9.1,9.1c2.1,2.2,4,4.5,6.2,6.6c3.5,3.4,7.1,6.6,10.6,10c0.9,0.9,1.5,2.1,2.4,3.1
		c3.3,3.6,6.7,7.2,10.1,10.8c0.2,0.2,0.6,0.2,1.3,0.4c-0.3-0.9-0.4-1.4-0.7-1.9c-3.3-5.4-6.6-10.8-10-16.1c-0.8-1.3-1.8-2.5-2.7-3.8
		c-0.8-1-1.1-1.9-0.2-3.1c1.5-2.1,2.4-4.6,4-6.6c1.6-2,3.7-3.6,5.5-5.6c0.9-1,1.5-2.2,2.3-3.4c0.3-0.5,0.6-1.1,1-1.6
		c1.7-1.9,3.4-3.9,5.2-5.9c5.4,4.2,11.9,4.9,18.4,6.4c6,1.4,11.9,1.6,18,1.3c3.1-0.1,6.2,0.5,9.3,0.5c2.1,0,4.1-0.6,6.8-1.1
		c0,5.6,0,10.7,0,15.9c0,0.3-0.2,0.9-0.4,1c-2.4,0.3-1.8,2.1-1.8,3.6c0,3.4-0.1,6.8,0.2,10.1c0.2,2.2,1.2,4.4,1.2,6.6
		c0,5.8,2.2,10.9,4.8,15.8c0.1,0.1,0.3,0.3,0.2,0.4c-1.8,3.2,1,6.1,0.5,9.2c-0.4,2.4,0.4,4.8,2.2,6.8c0.7,0.8,1.1,2,1.6,3.1
		c1,2.1,2.1,4.2,2.9,6.3c0.2,0.5-0.1,1.6-0.5,1.8c-2.7,1.3-5.4,2.7-8.2,3.5c-6.2,1.7-12.6,2.9-18.9,4.4c-0.5,0.1-1,0.3-2,0.6
		c0.9,0.5,1.3,0.8,1.7,0.9c3.3,0.7,6.4,0.4,9.7-0.4c6.4-1.6,12.8-2.6,19.3-3.7c0.5-0.1,1.4,0.6,1.8,1.1c2.3,3.3,1.9,6.6,0.6,10.3
		c-0.9,2.5-0.8,5.3-1,8c-0.4,4.7-0.1,9.6-1.2,14.1c-0.8,3.5,0.1,7-1,10.1c-1.1,3.3-0.7,6.6-1.1,9.8c-0.1,1.4,0.3,2.9,0.5,4.4
		c-5-1.3-9.8-3.3-14.4-6c-2-1.1-4.3-1.6-6.6-2.2c-3.4-0.9-6.5-2.1-9-4.6c-1.2-1.1-2.9-1.7-4.5-2.5c-0.4-0.2-1.2-0.2-1.4,0.1
		c-0.3,0.3-0.3,1.1-0.1,1.5c0.3,0.7,0.9,1.3,1.5,1.8c4.2,3.3,8.7,6,14.1,7.1c2.5,0.5,5,1.5,7,3c3.4,2.4,7.2,3.1,11,4.3
		c2,0.6,3.3,1.3,3.1,3.8c-0.2,2-0.5,4.2,0.1,6.1c1.2,4.2,0.4,8.7,2.2,12.9c1.6,3.8,2.3,7.9,3.7,11.8c1.5,4.1,3.3,8.1,4.9,12.2
		C185.4,708.7,186.4,711,187.7,714.1z"/>
	<path class="st0" d="M258.6,268.2c-15.6-13.8-33.7-21.1-54-23.6c-0.5-4.4-1.1-8.6-1.5-12.7c-0.7-6.6-1.3-13.2-2-19.7
		c-0.4-3.9-0.9-7.7-1.1-11.6c-0.1-1.8,0.8-3.7,0.7-5.5c-0.4-5.3-1.2-10.6-1.7-15.9c-0.1-0.9,0-1.9,0.1-2.8c0.1-0.5,0.4-1.1,0.4-1.6
		c-0.1-5.5-0.4-11-0.2-16.6c0.1-5.4,0.8-10.7,1.2-16.1c0.2-2.2,0.3-4.5,0.4-6.7c0.1-3.6-0.1-7.1,0.1-10.7c0.2-2.6,0.9-5.2,1.3-7.8
		c0.4-2.1,0.9-4.2,1.1-6.3c0.3-2.4,0.2-4.8,0.5-7.2c0.4-3.6,0.9-7.3,1.4-10.9c0.6-4.9,1.3-9.8,1.9-14.6c0.1-0.4,0.1-0.8,0.2-1.1
		c0.8-2.3,1.6-4.6,2.3-6.9c1.1-4.2,2.1-8.4,3.2-12.7c0.6-2.3,1.1-4.6,3.8-5.3c0.2,0,0.2-0.4,0.3-0.6c1.1-3.1,2.2-6.2,3.4-9.3
		c0.8-2,1.8-3.9,2.6-5.9c1-2.4,1.7-4.9,2.8-7.3c1.3-2.8,2.5-5.7,4.4-8c2.4-2.9,5.3-5.3,8.1-7.8c0.5-0.5,1.6-0.4,2.5-0.4
		c3.5,0.2,7,0.7,10.5,0.8c4.7,0.1,8.2,2.9,11.8,5.2c2.9,1.8,5.3,4.5,8.1,6.6c3.7,2.9,6.1,6.8,8.2,10.9c2,4,4,8.1,5.5,12.3
		c1.4,4.1,2.6,8.3,3.2,12.6c0.6,4.1,0.2,8.4,0.3,12.6c0.2,3.9,0.7,7.7,0.8,11.6c0.2,7.6,0.2,15.3,0.2,22.9c0,2.4-0.1,4.8-0.3,7.2
		c-0.5,7.9-0.9,15.7-1.5,23.6c-0.3,4.3-0.7,8.6-1.3,12.8c-1,6.5-2.2,13-3.4,19.4c-0.9,4.8-2,9.7-2.9,14.5c-0.4,2.1-0.6,4.2-1,6.3
		c-0.7,3.8-1.5,7.5-2.1,11.3c-0.5,3-0.8,6-1.2,8.9c-0.5,2.8-0.8,5.7-1.6,8.5c-2.7,9.1-5.5,18.1-8.3,27.2c-0.4,1.3-1.3,2.5-1.7,3.8
		c-1.6,4.8-3,9.6-4.5,14.4C259.3,266.7,258.9,267.4,258.6,268.2z"/>
	<path class="st0" d="M556.9,266.9c3,0.6,7.4,1.8,11.9,2.4c2.6,0.4,3.7,1.7,4.7,4c0.7,1.7,2,3.2,3.2,4.6c4.8,5.3,6.8,12,8.6,18.7
		c1.2,4.7,2.2,9.5,3.3,14.3c0.1,0.4,0.1,0.8,0.1,1.1c0.1,2.9,0.1,5.8,0.2,8.7c0,2.2,0.1,4.3,0.2,6.5c0,4.3,0.1,8.6,0,13
		c0,1.4-0.7,2.9-0.9,4.3c-0.5,2.8-1.1,5.7-1.5,8.5c-0.5,3.3-0.6,6.7-1.3,10c-0.7,3-2,5.9-2.9,8.8c-0.3,0.9-0.5,1.8-0.4,2.7
		c0,2,0.2,3.9-1.6,5.4c-0.4,0.3-0.6,1.1-0.5,1.5c0.7,2.1-0.3,3.7-1.3,5.5c-1.1,2.2-1.9,4.5-2.6,6.8c-0.8,2.8-1.4,5.8-2.2,8.6
		c-0.5,1.7-1.1,3.4-1.8,5.1c-1,2.8-2.2,5.5-3.2,8.2c-0.8,2.2-1.6,4.4-2.3,6.7c-1,3.2-1.8,6.5-3,9.7c-1.3,3.5-2.7,6.9-4.3,10.2
		c-2.2,4.4-2.2,9.7-5.2,13.8c-0.1,0.2-0.2,0.5-0.3,0.6c-5.1,2.5-5.3,7.5-6.2,12.2c-0.2,0.9-1,1.7-1.4,2.6c-1.9,3.9-3.3,8.1-5.6,11.6
		c-2,3-2.6,7-6,9.2c-0.9,0.5-1,2.2-1.7,3.2c-1.4,2.3-2.8,4.7-4.2,6.9c-0.3,0.4-0.8,0.8-1.3,0.9c-2.6,0.6-5.2,1.5-7.8,1.5
		c-4-0.1-8-0.4-11.8-1.4c-4.9-1.3-9.5-3.4-12.8-7.5c-1-1.2-2.2-2.3-3.1-3.6c-0.7-1-1.3-2.2-1.4-3.4c-0.2-2.9-0.2-5.8-0.2-8.7
		c0-0.7-0.2-1.4-0.3-2c-0.2-1.3-0.7-2.7-0.6-4c0.4-5.6,1.7-11.2,1.4-16.8c-0.2-3.6,0.5-7.5-0.5-10.8c-0.9-3.1,0.1-5.8,0-8.6
		c0-1.1-0.5-2.2-0.6-3.3c-0.1-2.7-0.2-5.4-0.2-8.2c0-3.1-0.2-6.1-0.1-9.2c0.1-2.1,0.6-4.1,0.7-6.2c0.4-5.9,0.7-11.8,1.2-17.7
		c0.4-4.4,1-8.8,1.5-13.2c0.1-1.4-0.3-2.8,0-4.1c0.8-4.4,1.9-8.8,2.7-13.2c0.5-2.4,0.7-4.9,1.2-7.3c0.8-3.7,1.7-7.3,2.6-10.9
		c0.6-2.6,1.1-5.3,1.8-7.9c0.9-3.3,1.9-6.6,2.9-9.9c1.4-4.7,2.8-9.5,4.2-14.2c0.1-0.3,0.1-0.7,0.3-0.8c6.4-4.4,9-11.5,12.8-17.8
		c2.6-4.3,5.9-8.2,8.8-12.3c0.8-1.1,1.6-2.3,2.4-3.4c0.3-0.4,0.6-1,1-1.3C539.5,271.6,546.5,267.1,556.9,266.9z"/>
	<path class="st0" d="M425.1,251.5c1.9,1.5,3.5,2.2,5.7,1.4c1.4-0.5,3.1-0.6,4.6-0.4c5,0.6,10.1,1.3,15.1,2c0.9,0.1,1.9,0.5,2.5,1.1
		c3.2,3.3,6.9,6.3,9.3,10.2c2.4,4,3.6,8.7,5,13.2c1.1,3.5,2,7.2,2.8,10.8c0.8,3.7,1.4,7.5,1.7,11.3c0.5,5.9,0.7,11.8,1,17.7
		c0.2,4.4,0.7,8.7,0.7,13.1c0,3.8-1.1,7.7-0.7,11.4c0.6,5.7-1.2,11.1-1.3,16.7c-0.1,3.3-0.6,6.5-0.5,9.8c0.3,9.2-1.4,18.1-2.7,27.1
		c-0.8,6.1-1.9,12.1-3,18.2c-1.1,5.9-2.5,11.7-3.8,17.5c-0.8,3.6-1.3,7.3-2.2,10.9c-0.9,3.4-2.2,6.7-3.1,10.2
		c-0.5,1.9-0.6,3.9-1,5.7c-0.2,0.6-0.9,1.5-1.4,1.5c-2.2,0.4-4.5,0.4-6.8,0.7c-2.2,0.3-4.5,0.6-6.7,1.1c-3.6,0.7-7.1,1.6-10.7,2.4
		c-0.5,0.1-1.2,0-1.3,0.3c-1.4,2.7-4.3,2.2-6.5,3.1c-2.3,0.8-4.4,1.9-6.6,2.9c-1.8,0.9-3.7,1.7-5.4,2.8c-1.5,0.9-2.9,2-4.4,3.1
		c-0.9,0.6-1.7,1.2-2.8,2.1c-1.1-4.2-2.1-8-3.1-11.8c-0.9-3.5-1.8-7-2.5-10.5c-0.8-3.7-1.3-7.4-1.9-11.1c-0.5-2.8-1-5.5-1.3-8.3
		c-0.3-2.5-0.3-5.1-0.3-7.7c-0.1-5.4-0.4-10.8-1.7-16.1c-0.4-1.5-0.2-3.1-0.3-4.7c-0.3-4.6-0.1-9.3-0.9-13.8
		c-0.8-4.5,0.1-8.8,0.1-13.2c0-3.9-0.4-7.8-0.4-11.7c0-1.7,0.4-3.4,0.5-5.1c0.1-5.5-0.2-11,0.1-16.4c0.6-8.1,1.6-16.2,2.4-24.3
		c0.4-4.8,0.7-9.5,1.1-14.3c0.3-4.1,0.3-8.2,0.9-12.2c0.3-1.7,2-3.2,2.9-4.9c0.6-1.1,1-2.4,1.4-3.7c0.8-3.1,1.5-6.3,2.3-9.4
		c0.7-2.8,1.4-5.5,2.2-8.3c0.4-1.4,0.7-2.9,1.2-4.2c0.3-0.6,1.1-0.9,1.7-1.3c1.5-1.1,3.4-2,4.3-3.5c1.8-2.8,3.6-5.3,6.9-6.7
		C420.5,255.1,422.7,253,425.1,251.5z"/>
	<path class="st0" d="M84.2,362.4c4,0.8,8,1.7,12,2.5c5.7,1.1,11.3,2.1,17,3.2c1.6,0.3,3.2,0.6,4.8,0.9c1.7,0.3,2.2,1.4,1.6,3
		c-0.4,1-0.5,2-0.7,3.1c-0.5,3.7-0.9,7.3-1.3,11c-0.1,0.6-0.1,1.3,0.1,1.9c1.5,5,2.9,10,4.8,14.9c1.6,4.3,3.8,8.4,5.8,12.6
		c0.4,0.9,1.1,1.8,2,2.3c5,2.9,9.4,6.7,15.4,7.8c3.9,0.7,7.6,2.6,11.5,3.1c4,0.5,8.2-0.2,12.3-0.3c0.1,0,0.1-0.1,0.2-0.1
		c4-0.8,8-1.5,12-2.3c1-0.2,2.2-0.4,3-1.1c3.9-3,7.8-5.9,11.4-9.2c1.4-1.3,1.8-3.5,2.6-5.3c0.4-1,0.5-2.2,1-3.2
		c0.8-1.6,1.2-3.1,0.2-4.9c-0.5-0.9-0.6-2.3-0.3-3.2c1.2-3.1-0.4-5.6-1.2-8.3c-0.1-0.3-0.4-0.6-0.4-0.8c1.2-2.9-1-5.1-1.4-7.7
		c-0.3-2.2-1.7-4.2-2.6-6.2c-0.6-1.3-1.4-2.6-2.1-3.9c5.1-0.5,10-1,14.9-1.4c5.6-0.4,11.3-0.6,16.9-0.9c1.5-0.1,3.1-0.6,4.6-0.8
		c1.5-0.1,2.4,0,1.7,2.2c-2.3,7.4-4.1,15-3.1,22.9c0.3,2,0.2,4.1,0.6,6c0.4,2,1.2,4,1.9,6c0.3,0.7,0.7,1.4,1.1,2.1
		c5.8,8.2,16.5,13.1,26.9,10.5c4.8-1.2,9.6-2.3,14.1-4.8c3-1.7,5-4.3,6.9-7c1.8-2.6,3.6-5.2,5.4-7.9c0.3-0.4,0.4-0.9,0.5-1.3
		c1-3.4,2.1-6.8,2.8-10.3c0.5-2.9,0.4-5.9,0.6-8.8c0.1-2.2,0.7-4.4,0.4-6.5c-0.6-5.2-1.6-10.4-2.5-15.6c-0.1-0.7-0.7-1.4-1.1-2.3
		c0.9-0.6,1.7-1.2,3.1-2.1c0.4,2.5,0.7,4.5,1.1,6.5c0.4,2,0.8,3.9,1.2,5.9c0.3,1.9,0.5,3.8,0.7,5.8c0.5,5.2,1.2,10.4,1.3,15.5
		c0.2,6.2-0.1,12.4-0.4,18.6c-0.2,3.4-0.6,6.8-1.2,10.1c-0.8,4.2-1.8,8.4-2.8,12.6c-1.1,4.5-2.2,8.9-3.5,13.3
		c-0.7,2.5-1.6,5-2.8,7.4c-0.5,1-1.5,2-2.5,2.6c-6,3.6-12,7.1-18,10.8c-3.4,2.1-6.6,4.5-10.1,6.3c-4.6,2.4-9.4,4.4-14.1,6.7
		c-1.4,0.7-2.6,1.6-4,2.3c-1.3,0.6-2.6,1-3.9,1.4c-2.5,0.9-5,1.7-7.4,2.8c-2.6,1.1-5,2.4-7.5,3.7c-7.5,3.9-15.2,6.7-23.6,8
		c-2.9,0.4-5.5,2-8.3,2.9c-3.9,1.3-7.8,2.4-11.8,3.6c-0.4,0.1-0.9-0.2-1.3-0.3c-0.7-0.2-1.3-0.8-2-0.8c-7.9,0-13.9-5.1-20.9-7.4
		c-2.5-0.9-4.7-2.7-7.1-4c-0.8-0.4-1.7-1.2-2.5-1.1c-5.5,0.7-8.7-2.8-11.7-6.3c-2.5-2.9-5.3-5.4-8.2-7.9c-2.5-2.2-4.2-5.3-6.5-7.8
		c-4.2-4.6-7.7-9.6-11.3-14.7c-2-2.9-3-6.3-4.6-9.4c-0.8-1.7-1.6-3.5-2.2-5.4c-0.6-1.8-0.9-3.6-1.3-5.5c-0.2-1.1-0.4-2.1-0.7-3.2
		c-1-3.9-1.9-7.9-2.9-11.8c-0.7-2.7-1.8-5.4-2.5-8.1c-0.2-1,0.4-2.2,0.2-3.2c-1-4.2-0.1-8.4-0.4-12.5c-0.4-3.9-1.4-7.7-1.6-11.6
		c-0.2-2.7-0.6-5.5,0.8-8.3C84.3,367.8,84,365.3,84.2,362.4z M227,452.2c1.2-0.2,2.4-0.3,3.5-0.7c2.7-1,5.5-1.8,7.9-3.3
		c1.8-1.2,3.2-3.2,4.3-5.2c1.3-2.3,0.9-5,0-7.4c-1-2.6-1.2-5.7-4.1-7.3c-1.4-0.8-2.6-2-4-2.8c-0.7-0.4-1.6-0.6-2.4-0.6
		c-1.5,0.1-1.8,1.2-0.8,2.1c1.1,1.1,2.7,1.7,3.9,2.8c1,0.9,1.9,2,2.7,3.1c0.3,0.4,0.1,1.2,0.4,1.6c1.8,2.1,1.8,4.4,0.4,6.5
		c-1.2,2-2.7,4.2-4.7,5.2c-5.4,2.8-11.4,3.7-17.4,4.5c-1.5,0.2-3.4,0.2-4.5-0.6c-2.2-1.6-3.9-3.7-5.8-5.6c-1-1-2.1-2.1-3.3-2.9
		c-0.5-0.3-1.7-0.1-2.2,0.3c-0.4,0.3-0.8,1.4-0.6,1.9c0.5,1.6,1,3.4,2,4.6c1.6,2,3.5,4.7,5.7,5.1c4.1,0.7,8.5,0.3,12.7-0.1
		c1.8-0.2,2.9-0.2,3.7,1.6c2.3,5.2,4.7,10.3,7.2,15.7c-2.1,2.2-5.3,3.1-8.3,2.3c-5.1-1.2-10.4-1.9-14.4-5.8
		c-1.2-1.2-2.8-0.5-3.8,0.6c-1,1.1,0,2,0.9,2.7c0.7,0.5,1.2,1.2,1.9,1.7c3.9,2.9,8.6,4.1,13.3,4.9c3,0.5,6.6,0.3,9.4-0.8
		c4.8-1.8,8.3-5.7,11.2-9.9c0.3-0.4-0.1-1.3-0.1-2c-0.6,0.2-1.4,0.2-1.9,0.6c-1.5,1.1-2.7,2.5-4.2,3.6c-1,0.7-1.8,0.8-2.4-0.8
		C231.1,462.5,229,457.4,227,452.2z"/>
	<path class="st0" d="M534.6,596.8c0.4-1.5,0.8-3,1-4.5c0.5-4.5,0.8-9.1,1.1-13.6c0.1-1-0.5-2-0.5-3.1c0-2.2,0.3-4.5,0.4-6.7
		c0.1-0.9,0.4-1.8,0.4-2.8c0.2-3.5-0.4-4.1-3.8-4.3c-5.8-0.3-11.5-0.5-17.3-0.9c-6.6-0.4-13.1-1-19.7-1.5c-4-0.3-8-0.6-11.9-1.2
		c-1.8-0.3-3.5-1.5-5.4-1.7c-5.1-0.5-10.2-0.5-15.2-1c-8.9-0.8-17.8-1.5-26.7-2.6c-9.8-1.2-19.5-2.9-29.2-4.3
		c-7.4-1.1-14.9-1.8-22.3-3.1c-5.2-0.9-10.3-2.4-15.5-3.5c-2.3-0.5-4.7-0.6-7.6-1c0.7-2.2,1.3-4.3,2-6.3c2.1-6.6,6.7-11.9,10-17.9
		c2.8-5.1,6.3-9.9,9.7-14.6c2.3-3.2,5-6.2,8-8.8c2.7-2.4,6.1-4,9.1-6.1c2.7-1.9,5-4.3,7.7-5.9c5.6-3.3,10.4-8.2,17.2-9.4
		c2.7-0.5,5.3-1.6,7.9-2.5c0.4-0.1,0.9-0.3,1.4-0.3c6,0.1,11.6-2.6,17.5-3.1c4.5-0.4,9.1,0,13.6,0.2c4.9,0.3,9.8,0.8,14.8,1.1
		c1.9,0.1,2,1.1,2,2.6c-0.1,1.3,0.3,2.6,0.5,3.8c0,0.2,0.3,0.5,0.2,0.6c-1.1,4,0.6,8,0.2,12c-0.3,2.4,0.5,4,2,5.8
		c1.9,2.1,3.1,4.9,5,7c2,2.1,4.2,4.1,6.8,5.3c3.9,1.9,8.2,3.1,12.3,4.4c1.4,0.5,2.8,0.7,4.3,0.9c1.9,0.3,3.9,0.6,5.8,0.5
		c1.6-0.1,3.2-0.9,4.9-1.2c7.1-1.2,9.4-6.9,12.1-12.4c0.6-1.3,1.7-2.4,2.8-3.9c3,2.5,5.8,4.7,8.4,7.2c2.8,2.6,5.6,5.2,7.9,8.2
		c2.8,3.7,5.2,7.8,7.5,11.8c0.8,1.4,1,3.2,1.6,4.8c0.9,2.3,1.9,4.6,2.7,6.9c0.4,1.1,0.7,2.2,0.9,3.3c0.7,4.2,1.7,8.5,2,12.7
		c0.3,4-0.1,8.1-0.4,12.2c-0.3,4.2-0.4,8.5-1.3,12.6c-0.8,3.9-1.8,7.8-4.2,11.3c-2.4,3.4-4.1,7.1-6.1,10.7c-0.1,0.3-0.2,0.6-0.4,0.8
		c-4.8,5.3-9.5,10.5-14.4,15.7c-1.6,1.7-3.3,1.2-4.4-0.8c-1.3-2.3-2.7-4.6-3.7-7C535.6,601.5,535.1,599,534.6,596.8z M461.3,542.5
		c0.2,0,1.2,0,1.7-0.4c3.5-3,7.4-5.6,10.1-9.2c3.1-4.1,5-9.1,7.4-13.7c2.1-4,3.3-8.2,3.7-12.7c0.2-2.9-0.2-4.3-3.3-5.5
		c-1.4-0.5-3.9,0-5.1,1c-3,2.7-6,5.6-8.1,9c-5.3,8.2-9.9,16.8-11,26.7C456.4,541.2,457.3,542.4,461.3,542.5z M427.9,538
		c0.1,0.2,0.2,0.4,0.3,0.6c1.6-0.9,4.1-1.5,4.7-2.9c1.7-4.2,2.9-8.6,3.7-13.1c0.9-5.2,1.3-10.6,1.4-15.9c0.1-4.5,0.2-9.2-3.3-12.9
		c-1.2-1.4-3.7-1.9-5-0.6c-2.1,2.2-4.1,4.5-4.3,7.8c-0.1,1.2-0.4,2.3-0.7,3.4c-0.7,3.3-1.8,6.6-2.2,10c-0.4,3.5-0.1,7-0.1,10.5
		c0,3.7,0.4,7.2,2,10.6C425.2,537.3,426,538.3,427.9,538z"/>
	<path class="st0" d="M224.4,364.1c-2.7,0.4-5.4,0.8-8.1,1.1c-6.9,0.6-13.8,1.2-20.8,1.8c-0.4,0-0.8,0-1.2,0
		c-4.2,0.8-5.5,0.2-7.1-3.8c-5.7-13.7-12.2-27.1-19.7-39.9c-4.2-7.3-8.5-14.5-12.8-21.8c-1.9-3.2-3.7-6.5-5.6-9.7
		c-0.4-0.7-0.8-1.4-1.4-1.8c-2.1-1.6-1.8-3.7-1.3-6c0.6-2.5,1-5,1.6-7.5c0.2-1,0.8-2,1.1-3c0.8-3.9,1.7-7.7,2.4-11.6
		c0.6-3.7,1.9-5,5.8-5.7c2.9-0.5,5.7-1.5,8.6-1.9c4.1-0.6,8.3-0.8,12.4-1.1c0.5,0,1,0,1.4-0.1c7.1-2.1,14.2-1.4,21.4-0.7
		c4.2,0.4,8.5,0.5,12.5,1.4c3.7,0.8,7.2,2.6,10.9,3.9c1.7,0.6,3.6,0.8,5.3,1.5c3.3,1.3,6.6,2.8,9.8,4.3c1.3,0.6,1.8,1.6,1.8,3.2
		c0,8,0.5,16,0.4,23.9c-0.1,8.2-0.6,16.4-0.9,24.6c-0.2,4.8-0.5,9.6-0.9,14.4c-0.7,9-1.4,18-2.2,27c-0.2,2-1.1,4-1.8,6
		c-0.1,0.3-0.7,0.6-1,0.7c-3.5,0.4-7,0.7-10.5,1C224.4,364.2,224.4,364.1,224.4,364.1z M220.2,283.2c0-1.9-0.9-2.7-2.5-2.4
		c-6.7,1-13.4,1.9-20.1,2.9c-6.5,1-13.1,2.2-19.6,3.4c-2.4,0.4-3.1,1.7-1.8,3.8c4.4,7.1,8.7,14.2,13.3,21.2
		c4.9,7.6,10.1,15,15.1,22.5c1.3,1.9,2.7,3.8,4.2,5.6c0.4,0.5,1.5,0.8,2,0.6c0.4-0.1,0.6-1.2,0.7-1.9c0.1-0.5-0.1-1.1,0-1.6
		c0.8-4.1,1.8-8.1,2.5-12.2c0.8-4.8,1.2-9.7,1.9-14.5c0.8-5.6,1.8-11.2,2.6-16.8c0.2-1.5,0.3-3.1,0.5-4.6
		C219.4,287,219.8,285,220.2,283.2z"/>
	<path class="st0" d="M377.5,549.9c-1.4,7.8-2.8,15.4-4,22.9c-0.2,0.9,0.4,1.9,0.6,2.9c0.7,5,2.2,9.8,4.7,14.2
		c1.1,1.9,2.9,3.5,4.4,5.2c0.8,0.9,1.4,2,2.3,2.6c2.1,1.4,4.3,2.9,6.7,3.7c4.3,1.4,8.7,2.6,13.1,3.3c2.4,0.4,4.9-0.4,7.4-0.7
		c4.4-0.4,8.5-2,12.2-4.4c4.2-2.7,7.8-6.1,9.7-10.9c2-5.1,4.4-10.1,5.8-15.4c1-4.1,0.7-8.5,0.9-13.1c4.6,0.4,9.5,0.8,14.9,1.2
		c-1,1.9-2.1,3.5-2.7,5.3c-1.5,4.6-4.3,8.9-4.2,13.9c0.1,5.9-0.1,11.8,1.8,17.5c1.2,3.7,4.4,6.2,7.4,8.7c3.3,2.8,7.5,3.4,11,5.3
		c6,3.3,12.2,1.4,18.4,1.8c4.9,0.3,9.5-1.2,14.1-2.6c2.4-0.7,4.1-2,5.8-3.5c2.4-2.1,5.2-3.7,7.4-5.9c4.1-4,6.3-9.2,9-14.3
		c2.8-5.4,2.1-11.2,3.9-16.5c0.2-0.5,0.1-1.2-0.1-1.8c-1.1-3.5,0-4.7,4.2-3.9c-0.5,6.7-1,13.5-1.4,20.3c-0.3,4.6-0.9,9.2-0.8,13.8
		c0.1,3.3,0.1,6.8,2.4,9.8c1.7,2.2,1.8,4.8,0.2,7.2c-1.7,2.7-3.5,5.4-5.1,8.1c-1.9,3.4-5.2,5.1-8.4,6.9c-8.1,4.3-16.2,8.5-24.4,12.5
		c-2.8,1.4-5.8,2.3-8.7,3.3c-5.9,2-11.8,4.2-17.8,5.9c-2.8,0.8-5.8,1-8.8,1.2c-7.9,0.7-15.8,1.3-23.7,1.7c-2.5,0.1-4.8,0.1-7.3-1.5
		c-3.9-2.5-8.5-3.8-12.8-5.6c-0.5-0.2-1.1-0.3-1.5-0.6c-6-4.2-12-8.4-18-12.7c-7.6-5.5-12-13.1-15.6-21.6
		c-2.9-6.8-4.7-13.8-6.4-20.8c-0.8-3.3-1-6.7-1.4-10.1c-0.4-3.3-0.9-6.7-0.8-10c0.2-4.3,0.8-8.5,1.5-12.8c0.5-3.2,1.5-6.3,2-9.5
		C375.6,549.4,376.4,549.3,377.5,549.9z M432.7,625c0.3-0.1,0.5-0.1,0.6-0.1c0.4,0,0.8-0.1,1.2,0c6.3,0.5,10.3-2.7,12.8-8.1
		c0.2-0.5,0.6-1.1,0.5-1.5c-0.1-0.6-0.7-1.1-1-1.6c-0.4,0.4-0.8,0.7-1.1,1.2c-1.5,1.8-2.7,4.7-4.5,5.3c-6.6,2-13.3,1.5-19.5-1.9
		c-0.6-0.4-1.2-1.7-1.1-2.4c0.4-1.8,1.3-3.5,1.7-5.3c0.2-0.7-0.2-1.5-0.4-2.2c-0.8,0.2-1.9,0.1-2.2,0.6c-1.2,1.7-2.3,3.5-3.1,5.4
		c-1.8,4.5-0.4,7.5,4.1,9c3.1,1,6.4,1.7,9.8,2.5c-0.6,2-1.2,4.2-1.8,6.4c-5.9-2.2-11.4-4.8-16-8.9c-4.4-3.9-8.3-8.2-12.5-12.3
		c-0.6-0.6-1.4-1.1-2-1.6c-0.2,0.2-0.4,0.4-0.7,0.6c0.8,1.6,1.3,3.6,2.5,4.9c4.1,4.2,8.4,8.4,12.9,12.2c1.6,1.4,2.4,2.5,2.3,4.6
		c-0.3,4.5,0.4,5.4,4.5,6.9c2.6,1,5.3,1.8,7.9,2.8c4,1.6,4.9,1.5,7.1-2.1c0.9-1.4,1.8-1.4,3.3-1.3c3.8,0.4,7.7,1,11.4,0.7
		c5.6-0.5,11.3-0.8,16.9-2.4c6.7-2,13-4.8,18.6-9c0.7-0.5,1-1.4,1.6-2.4c-0.8-0.1-0.9-0.2-1-0.1c-0.4,0.2-0.7,0.4-1,0.6
		c-6.3,5.1-13.8,7.6-21.6,8.9c-6.2,1-12.6,1.2-18.9,1.2c-3.8,0-7.7-1.1-11.5-1.8c-1.5-0.2-1.9-1.2-1.5-2.6
		C431.5,628.8,432.1,626.9,432.7,625z"/>
	<path class="st0" d="M165.9,510.8c-0.5-1-1.3-2.5-2.1-4.1c-0.8-1.6,0-2.7,1.5-2.6c5.4,0.4,10.5-1.1,15.6-2.7
		c1.3-0.4,2.5-0.7,3.8-1.1c4.1-1.2,8.2-2.5,12.2-3.8c2.9-0.9,5.9-1.8,8.7-3.1c3.9-1.7,7.6-3.6,11.4-5.4c3.4-1.6,6.7-3.4,10.1-4.9
		c1.9-0.8,4.1-1,6-1.8c3.4-1.5,6.6-3.7,10.1-4.9c3.6-1.2,5.9-4.1,9.2-5.7c1.9-0.9,3.8-1.8,5.6-2.9c2.7-1.6,5.3-3.5,8-5.2
		c4.8-2.9,9.8-5.4,14.5-8.5c5.1-3.4,10-7.2,14.6-11.2c2.9-2.6,5-6,7.3-9.1c0.3-0.4,0-1.2-0.1-1.8c-0.6,0.2-1.4,0.1-1.8,0.5
		c-2.6,2.3-5,4.7-7.6,7c-0.9,0.9-1.9,1.7-3.3,3c2.2-6.5,4.1-12.3,6.1-18.1c0.1-0.4,0.3-0.9,0.3-1.4c0.2-2.2,0.3-4.4,0.5-6.6
		c0.5-4.5,1.2-8.9,1.7-13.4c0.6-5.4,1.5-10.9,1.5-16.3c0-6.8-0.8-13.6-1.2-20.3c0-0.5,0-0.9,0-1.4c3.6,0.5,4.9,3.7,6.9,5.9
		c2.4,2.6,4.1,5.9,6,8.9c1.6,2.5,3.3,5,4.6,7.7c1.4,3,2.5,6.2,3.5,9.4c1.5,5.1,2.9,10.3,4.2,15.5c0.3,1-0.2,2.1-0.1,3.2
		c0.2,2.9,0.7,5.7,0.7,8.6c0,1.5-0.5,2.9-0.7,4.4c-0.1,0.6-0.2,1.2-0.2,1.8c0,0.4,0.3,1.1,0.1,1.3c-2,2.5-0.8,5.5-1.6,8.2
		c-0.6,2.1-1.3,4.2-2,6.3c-0.1,0.4-0.6,0.7-0.5,1c1.4,5-2.4,8.3-4,12.3c-1.6,4.2-4.5,7.8-6.8,11.7c-0.6,1.1-1.6,2-2.1,3.1
		c-1.7,3.9-5.6,5.6-8.5,8.1c-4.8,4.1-9.9,7.9-15.3,11c-5.1,2.9-10.6,5.3-16.2,7.2c-7.8,2.6-15.7,4.8-23.6,6.7
		c-9.1,2.2-18.3,4.3-27.6,5.6c-4.9,0.7-10.1-0.4-15.2-0.6c-0.5,0-0.9-0.1-1.4-0.2c-8.4-0.2-16.7-0.3-25.1-0.6
		C171.3,511.5,169,511.1,165.9,510.8z"/>
	<path class="st0" d="M433.6,666.3c2.5,1.3,4.7,2.4,6.9,3.5c0.4,0.2,0.8,0.6,1.2,0.6c5.6-0.5,10.1,2.8,15.1,4.2
		c5.1,1.4,10.2,3.2,15.6,2.9c0.2,0,0.5,0,0.7,0c5.3,0.9,4.4-0.7,4.8,4.9c0.3,4.6,1.4,9.1,4.5,12.8c2.6,3,5,6.1,7.7,9.3
		c-2.6,4.3-5,9.1-4.3,14.7c0.6,5.1,1.9,10,4.8,14.3c0.7,1,2.3,1.4,3.2,2.4c0.7,0.8,0.9,2.1,1,3.1c0.4,2.4,0.3,5,1.1,7.2
		c1.2,3.4,5.3,4.5,8.4,2.5c1.1,1.8,2.5,3.5,3.3,5.5c0.4,1.1,0.1,2.6-0.2,3.9c-1.4,5.7-2.8,11.4-4.2,17.1c-1,3.8-2,7.7-2.8,11.5
		c-0.7,3.1-2,5.1-5.4,5.7c-5.9,1-11.7,2.9-17.6,3.5c-3.7,0.4-7.7-0.5-11.4-1.4c-2.6-0.6-2.8-3.1-1-5.2c0.8-1,1.5-2.3,1.5-3.5
		c0.1-6.1,0-12.2-0.2-18.3c0-1.6-1.1-2.1-2.7-2.2c-5.1-0.3-10.3-0.7-15.4-1.4c-0.9-0.1-1.8-2.3-2.1-3.6c-0.5-2.8-0.8-5.7-0.9-8.5
		c-0.1-1.4,0.3-2.9,0.7-4.4c0.1-0.4,1-0.9,1.5-1c7-1.2,14.1-2.3,21.2-3.4c3.1-0.5,6.2-0.6,9.3-1.1c1.1-0.2,2.1-1,3.2-1.5
		c-0.1-0.3-0.2-0.5-0.3-0.8c-1.1,0.1-2.2,0.2-3.4,0.3c-2.8,0.3-5.6,0.5-8.3,0.9c-1.9,0.3-3.8,1-5.7,1.1c-5.9,0.4-11.7,0.8-17.6,0.7
		c-3.1-0.1-5.3-2.6-6.7-5.3c-2.1-4.1-3.9-8.3-5.4-12.6c-1.9-5.5-1-10.6,2-15.8c1.9-3.3,4.2-2.7,6.9-2.8c12.4-0.2,24.8-0.6,37.1-1
		c0.6,0,1.3-0.8,1.9-1.2c-0.8-0.3-1.5-0.8-2.3-0.8c-10.7,0.2-21.5,0.6-32.2,0.8c-1.7,0-3.5-0.2-5-0.8c-1.1-0.4-2.2-1.5-2.6-2.5
		c-1.5-3.8-2.9-7.6-3.9-11.5c-1.3-5.6-3.9-11.1-3-17.1C432.9,670.4,433.3,668.5,433.6,666.3z"/>
	<path class="st0" d="M90.9,295.2c2.5,6.2,7.6,6.5,12.4,7.5c6.3,1.4,12.6,0,18.8-0.1c2.2-0.1,4.4-1.2,6.4-2c4.6-2,9.1-4,13.5-6.2
		c0.9-0.5,1.5-1.7,2.6-2.9c1.4,1.7,2.9,3.2,4.1,5c5.4,8.7,10.8,17.4,16,26.3c2.7,4.7,5,9.7,7.5,14.6c4.3,8.7,8.6,17.4,12.9,26.1
		c0.6,1.2,0.7,2.5,1,3.6c-3.4,1.5-6.5,0.6-9.8,0.2c-2.6-0.4-5.2,0.1-7.9,0c-3.5-0.1-7-0.4-10.5-0.5c-6.3-0.1-12.7,0.4-19-0.1
		c-4.7-0.4-9.6-0.2-13.9-2.6c-0.7-0.4-1.8-0.1-2.7-0.1c-0.7,0-1.4,0.3-2.1,0.2c-4.1-0.5-8.2-1.2-12.3-1.8c-2.3-0.3-4.6-0.6-6.9-1
		c-1.9-0.3-3.4-1.1-5.1-2.3c-2.2-1.5-5.3-2.5-8-2.5c-3.4,0-5.8-2-8.8-2.8c-2.3-0.7-4.5-1.9-6.7-3c-0.5-0.3-1-1.2-0.9-1.7
		c1.1-4.6,2-9.3,3.7-13.7c1.9-4.9,2.7-10.1,4-15.1c0.9-3.5,3.1-6.7,4.7-10c1-2.2,1.8-4.4,2.8-6.6C88,301,89.3,298.5,90.9,295.2z
		 M112.3,327.4c1,2.6,1.6,6.5,3.7,9.4c1.7,2.3,4.1,4.5,7.5,5.1c4.8,0.9,9.4,1.2,13.6-1.9c0.7-0.5,1.4-1.1,1.7-1.9
		c1.2-2.9,2.4-5.8,3.4-8.8c0.4-1.1,0.6-2.7,0-3.6c-1.9-3.1-3.8-6.3-6.4-8.7c-1.9-1.7-4.9-2.3-7.5-2.9c-3.2-0.7-6.2-0.2-8.3,2.8
		c-0.5,0.7-1.3,1.2-2,1.5C114,319.6,113,322.8,112.3,327.4z"/>
	<path class="st0" d="M435.5,703.1c-3.5-0.7-7-1.4-10.5-2.1c-0.4-0.1-0.8-0.3-1.1-0.2c-3.4,0.9-6.4-0.4-9.6-1.3
		c-0.6-0.2-1.3,0.3-2,0.5c0.3,0.7,0.5,1.4,1,1.9c0.5,0.5,1.2,0.7,1.9,0.8c6.2,1.2,12.4,2.4,18.6,3.5c-0.8,1.4-1.8,3.1-2.7,4.9
		c-2.4,4.8-2,9.8-0.7,14.7c1.3,4.8,3.5,9.4,5.4,14.1c0.4,0.9,1,1.7,1.8,3.1c-6-0.3-11.6-0.7-17.1-1c-1.5-0.1-3-0.1-4.4,0.1
		c-0.5,0.1-1.3,0.9-1.3,1.4c0,0.7,0.4,1.7,0.9,1.9c1.3,0.6,2.8,1.1,4.2,1.1c7.2,0.1,14.4,0.1,21.7,0.1c0.5,0,0.9,0.1,1.2,0.1
		c0,5.5,0,10.8,0,16.5c-0.4,0-1.3-0.1-2.1,0c-0.5,0.1-1.4,0.5-1.4,0.9c-0.1,0.6,0.1,1.6,0.5,1.8c1.2,0.6,2.6,1.1,3.9,1.1
		c3.4,0.2,4,0.6,3.9,3.9c-0.2,5.4-0.4,10.8-0.6,16.1c0,0.7,0.5,1.5,0.9,2.1c1,1.3,2.1,2.6,3.6,4.3c-1.3,0.4-2.1,0.9-2.9,1
		c-3.9,0.3-7.8,0.7-11.8,0.1c-6.1-0.9-11.9-2.4-17.3-5.4c-1.5-0.8-2.5-1.9-2.9-3.9c-0.7-3.5-2.3-6.9-3.3-10.4
		c-2.3-8.2-4.1-16.4-2.8-25c0.5-2.8-0.5-4.5-2.8-6c-2.1-1.3-3.5-3-4.1-5.6c-0.8-3.1-2.3-5.9-3.1-8.9c-0.6-2.2-0.9-4.6-1-6.9
		c-0.1-6.1-0.3-12.3,2.7-17.9c1.1-2.1,2.1-4.4,5.1-4.7c0.5,0,1.4-1.7,1.2-2.4c-0.7-3.2-1.9-6.3-2.7-9.5c-0.7-2.7-1.6-5.5-1.3-8.1
		c0.4-3.7,1.6-7.3,2.9-10.9c0.3-0.7,2.3-1,3.6-1.1c6.7-0.5,13.4-0.9,20.3-1.3c-2.2,12.3-0.1,24.3,4.7,35.9
		C435.8,702.7,435.7,702.9,435.5,703.1z"/>
	<path class="st0" d="M435.1,661.2c7.3-0.3,14.5-1.1,21.8-0.8c6.5,0.2,12.2-2.6,18.4-3.7c8.3-1.4,15.5-5.8,23.1-9
		c4.4-1.8,9.1-3.2,13.4-5.3c4.3-2.1,8.4-4.6,12.5-7.2c3.3-2.1,6.5-4.5,9.7-6.9c1.5-1.1,2.6-2.7,4-3.9c2.9-2.5,5.9-4.9,8.6-7.6
		c3.5-3.4,6.7-7.1,10-10.8c2.8-3.1,5.8-5.9,8.1-9.3c2.9-4.2,5.2-8.8,7.7-13.2c0.5-0.8,0.8-1.7,1.3-2.6c0.4,1,0.9,2,1.1,3
		c0.4,3.3,1.7,6.9,0.8,9.9c-1.1,4.1-0.5,8.2-1.5,12.3c-0.4,1.6,0.7,3.5,0.5,5.2c-0.5,3.6-1.5,7.1-2.1,10.7
		c-1.6,8.2-5.5,15.4-10.5,21.8c-2.5,3.3-6,5.8-9.2,8.6c-1.4,1.3-3.4,2.1-4.6,3.5c-3.8,4.6-9.5,5.4-14.5,7.6c-4.2,1.8-8.6,3.4-13,4.4
		c-5.4,1.2-10.9,1.8-16.4,2.4c-5.3,0.6-10.6,0.9-15.9,1.4c-1.3,0.1-2.5,1.1-3.8,1.1c-4.5-0.1-9-0.4-13.5-0.6
		c-5.2-0.3-10-3.2-14.9-3.5c-5.1-0.2-8.8-2.5-12.9-4.5c-1.6-0.8-3.6-1-5.3-1.6c-1-0.3-2-0.9-3-1.3
		C434.9,661.4,435,661.3,435.1,661.2z"/>
	<path class="st0" d="M178.4,422.4c-3.9,2.2-8.1,2.5-12.3,2.6c-1.3,0-2.6,0.3-3.9,0.5c-3.8,0.6-7.2-0.7-10.7-1.9
		c-2.6-0.9-5.2-2.1-7.8-3.1c-0.6-0.2-1.4,0-2.1-0.3c-2-0.8-4.1-1.5-5.9-2.6c-1.5-0.9-2.6-2.4-3.9-3.6c-2.3-2-3.6-4.6-4.5-7.5
		c-0.8-2.6-2-5-2.8-7.6c-1-3.1-1.6-6.3-2.7-9.3c-1-2.8-0.3-5.5,0.2-8.2c0.3-1.4-0.1-3,0.1-4.5c0.2-2.1,0.5-4.1,1-6.1
		c0.1-0.5,1.5-1,2-0.9c4.8,1.6,9.6,0.4,14.5,0.5c3,0.1,6,0.6,9,0.8c2.6,0.2,5.3,0.4,7.9,0.5c8.9,0.2,17.7,0.8,26.6,0.3
		c3.8-0.2,5.4,0.6,7.1,3.8c1.6,3,3.6,5.7,4.6,8.9c0.4,1.4,0.6,2.8,0.9,4.3c0.3,1.4,0.5,2.9,1.1,4.2c1.1,2.6-0.8,5.1-0.1,7.7
		c0.3,1.1,0.4,2.2,0.7,3.7c-2.4,3.8-5,8-7.5,12c-1.2-2.5-2.1-4.9-3.5-7.1c-1.4-2.1-3.9-2-5.9-0.4
		C176.1,413.1,177.1,417.6,178.4,422.4z"/>
	<path class="st0" d="M238.7,362.6c4.6-32.1,7.1-63.8,5.6-96.2c2.2,1.2,4,1.9,5.4,3c3.5,2.7,6.8,5.6,10.2,8.4c2.5,2,5.2,3.8,7.3,6.2
		c3.4,3.7,6.4,7.8,9.4,11.8c3,4,6.3,7.8,8.6,12.2c3.6,7,8.5,13.4,10.7,21.2c1,3.5,2.4,6.9,3.6,10.3c0.5,1.5,0.3,2.6-1.3,3.3
		c-3.8,1.8-7.6,3.7-11.4,5.3c-3,1.3-6,2.5-9.1,3.5c-2.3,0.7-4.8,0.8-7,1.6c-2.3,0.8-4.4,2.4-6.7,3.1c-6.1,1.6-12.3,2.9-18.4,4.3
		C243.6,361.1,241.6,361.8,238.7,362.6z M268,322.4c3.3,0.1,6.4-2.3,7.3-5.1c0.4-1.2,1.1-2.3,1.3-3.5c0.6-2.9,1.5-5.9,1.2-8.7
		c-0.5-6-6.8-10.9-12.9-10.6c-0.2,0-0.5,0-0.7,0.2c-1.4,1.3-3.1,2.4-4.2,3.9c-2.8,3.6-4.1,8-4.7,12.5c-0.3,2,0.4,4.3,1.4,6.1
		C259.1,321.7,264.5,320.8,268,322.4z"/>
	<path class="st0" d="M455.7,570.1c1.9,2.6,3.5,3.2,5.5,2.3c4.3-1.9,5.4-4.3,4.5-9.7c19.4-0.5,38.7,2.5,58.5,3.4
		c-0.2,4.6-0.2,8.8-0.6,13c-0.2,2-0.9,4-1.7,5.8c-1.8,3.8-3.6,7.7-5.8,11.2c-1.3,2.1-3.5,3.7-5.3,5.5c-1.3,1.3-2.6,2.5-3.9,3.7
		c-2.3,2.2-5.2,3.3-8.1,3.8c-8,1.4-15.9,2.6-24.1,1.4c-8.3-1.2-14.8-4.9-19.5-11.7c-1.5-2.3-2-5.3-2.9-7.9
		c-1.3-3.8-0.4-7.6,0.3-11.3C453.1,576.4,454.6,573.4,455.7,570.1z"/>
	<path class="st0" d="M480.7,678.7c14.6-1.7,29.2-2.1,43.8-5.5c-0.4,1.1-0.6,2.3-1.1,3.3c-0.6,1.2-0.5,1.9,0.5,2.8
		c7.6,7.2,11.3,15.9,11.5,26.5c0.1,6.7-1.9,12.5-4.4,18.4c-0.9,2.1-1.9,4.3-3.1,6.2c-0.5,0.8-1.8,1.1-2.8,1.7
		c-2.6,1.5-5.5,1.6-8.4,1.6c-5.6,0.1-11.2,0.5-16.8,0.7c-2,0.1-3.9-0.7-4.8-2.7c-2.6-5.4-5.6-10.8-4.7-16.9c0.5-3.4,0.4-7.4,4.1-9.7
		c1.5-1,1.2-3.4-0.4-5.1c-5.3-5.3-9.6-11.3-12.4-18.3C481.2,680.8,481,679.8,480.7,678.7z"/>
	<path class="st0" d="M78.3,409.5c0,0.7,0,1.3,0.1,2c0.5,4.1,0.7,8.4,1.7,12.3c1.4,5.1,3.5,10,5.3,15c1,2.8,1.7,5.7,2.9,8.3
		c1,2.3,2.6,4.4,4,6.5c2.2,3.4,4.2,6.9,6.8,10.1c2.7,3.2,5.6,6.4,8.9,9c7.1,5.6,14.4,11.1,21.9,16.1c6,4,12.4,7.3,18.7,10.7
		c2.6,1.4,5.5,2.6,8.4,3.4c1.8,0.5,2.3,1.7,2.9,3c0.5,1.2,0.8,2.5,1.2,3.9c-2.1,0.1-4.2,0.4-6.2,0.3c-4.5-0.2-9.1-0.6-13.6-0.8
		c-2.5-0.1-5,0-7.5-0.2c-7.1-0.7-13.5-3.7-20-6.3c-2.2-0.9-4.4-1.6-6.5-2.8c-1.5-0.8-2.7-2.3-4-3.4c-0.5-0.4-0.9-0.8-1.4-1.2
		c-4.9-3.4-9.3-7.3-13.2-11.9c-2-2.4-4.8-4.2-7.1-6.4c-1.4-1.4-2.9-2.9-3.8-4.7c-2.5-4.9-5-9.8-7-14.9c-1.3-3.3-2-7-2.4-10.5
		c-0.7-6.3-1.4-12.7,0.8-18.8c1.5-4,2.1-8.4,4.7-12c1.3-1.8,2.2-3.9,3.2-5.9c0.2-0.4,0.3-0.9,0.4-1.3
		C77.8,409.1,78,409.3,78.3,409.5z"/>
	<path class="st0" d="M282.1,354.8c0.8,3.8,1.6,7.5,2.5,11.1c0.3,1.4,1,2.8,0.9,4.2c-0.2,4.4-0.9,8.8-1.1,13.2
		c-0.2,5.2-2,10-3.6,14.7c-1.2,3.6-4.4,5.8-7.2,8.1c-1.6,1.3-3.1,2.8-4.3,4.4c-1.3,1.8-2.4,2.3-5.7,1.9c1.5-3.8,0.8-7.1-1.9-10.1
		c-1.8-1.9-3.7-1.9-5.8-0.3c-4.5,3.5-3.8,7.9-2.4,13c-1.2,0-2.2,0.1-3.2,0c-2.7-0.3-5.6-0.3-8.1-1.2c-2.1-0.7-4.3-2.2-5.5-4
		c-1.9-2.8-2.9-6.2-4.5-9.2c-2.7-5-2.8-10.3-2.7-15.8c0-0.7,0.1-1.5,0.4-2.1c2.1-4.1,2-8.8,3.1-13.2c0.2-0.6,0.7-1.5,1.3-1.6
		c4.1-1,8.2-1.8,12.3-2.7c5.5-1.3,11.1-2.3,16.6-4C269.3,359.5,275.3,357.1,282.1,354.8z"/>
	<path class="st0" d="M438.2,560.2c-0.2,3.8-0.3,7.6-0.5,11.4c0,0.4,0.1,1-0.1,1.1c-2.8,2.6-1.1,6.4-2.6,9.4
		c-2.2,4.4-4,8.9-7.6,12.5c-2.4,2.3-4.7,4-8,4.1c-0.3,0-0.7,0.1-0.9,0.3c-3.1,4-7.6,2.6-11.4,2.2c-5.6-0.5-11.3-1.9-16.2-5
		c-2.2-1.3-4.7-2.5-6.2-4.4c-2.1-2.8-3.4-6.3-4.8-9.5c-2.9-6.9-2.4-14.2-2-21.4c0-0.3,0.2-0.5,0.3-0.8c3.6,2.3,4.6,2.5,7.1,0.5
		c3-2.4,4-5.5,2.1-9.5c5.6,1,10.9,2.1,16.3,2.9c3.5,0.5,7,0.6,10.5,1.1c6,0.8,11.9,1.5,17.8,2.6C434.1,558,436,559.2,438.2,560.2z"
		/>
	<path class="st0" d="M334.9,657.2c-4.5,1.3-8.8,2.7-13.2,3.9c-2.5,0.7-5.3,0.5-7.7,1.4c-2.1,0.8-4.1,1.3-6.3,1.2
		c-5-0.3-10-0.5-15-0.8c-4.1-0.2-8.2-0.4-12.3-0.8c-5.2-0.6-10.3-1.4-15.5-2.1c-0.1-3-0.2-5.9-0.5-8.7c-0.5-5-1.1-10-1.6-15
		c-0.1-1.2,0-2.4,0-3.4c7.1,0,14,0.1,20.8,0c7.1-0.1,14-1.7,20.9-3.4c7.4-1.7,14.8-3.2,22.2-4.8c1.2-0.3,2.3-0.9,3.6-1.4
		c1,3.7,2,7.4,3.1,11.1c0.5,1.6,1.5,3.1,1.6,4.7c0.3,3.7,4.1,7.4-0.1,11.2C333.5,651.6,333.8,653.1,334.9,657.2z"/>
	<path class="st0" d="M404.7,667.3c-3,6.4-4.3,12.4-3.7,18.8c0.2,2.4,0.9,4.8,1.4,7.2c0.2,1.2,0.2,2-0.9,3.1
		c-1.8,1.7-3.6,3.6-4.7,5.7c-1,2.2-2.4,3-4.5,2.9c-4.1-0.3-8.1-0.4-12.1-1.1c-5.3-0.9-10.5-2.1-15.7-3.5c-1.9-0.5-3.8-1.5-5.4-2.7
		c-4.5-3.2-9.3-6-12.6-10.5c-1-1.4-1.6-3.2-2.1-4.8c-1-3.2-2-6.3-2.8-9.6c-0.2-0.9,0.2-2.2,0.8-2.9c1.8-2.2,4-4,5.8-6.2
		c2.3-2.9,4.3-6.1,6.6-9.1c0.4-0.5,0.9-1,1.5-1.1c1.2-0.2,2.5-0.1,3.7-0.3c3.6-0.6,6.6,1,9.5,2.5c2.6,1.3,5,3.2,7.3,4.9
		c2.5,1.8,3.9,4.4,4.4,7.5c0.3,1.7,1.1,1.9,2.5,1.1c0.9-0.6,1.8-1.2,2.8-1.8c1.7-1,3.3-1.7,5.6-0.6c1.9,0.9,4.4,0.7,6.7,0.7
		C400.4,667.7,402.2,667.5,404.7,667.3z"/>
	<path class="st0" d="M34,503.2c0.7-3.4,1.2-6.4,1.8-9.3c0.3-1.6,0.6-3.3,1.4-4.7c0.6-1.1,1.6-2.3,2.7-2.8c1.7-0.7,3.3,0.2,4.3,1.6
		c0.9,1.3,1.7,2.7,2.1,4.2c1.4,5.2,2.9,10.3,3.8,15.6c0.6,3.7,3.1,6.1,5.2,8.7c3.1,4.1,3.5,9,0.8,13.2c-1.2,1.9-2.2,3.9-3.2,5.9
		c-3.1,6.3-8.8,9.8-14.7,12.7c-1.4,0.7-3.9-0.3-5.6-1.2c-5.3-2.6-10.5-5.3-15.6-8.4c-5.4-3.3-9.1-8.1-11.3-14.1
		c-1.2-3.4-2.4-6.8-1.5-10.7c1.1-4.8,3.8-8.4,7.2-11.7c5-4.8,13.9-5.6,20.2-0.7C32.2,502.2,32.9,502.5,34,503.2z M26.7,501.3
		c0.5,0.7,0.6,1.2,0.9,1.3c2.7,1.7,3.2,4.4,3.6,7.2c1,8-3.2,14.3-7.1,20.6c-0.9,1.4-3.2,1.9-4.9,2.8c-0.4,0.2-0.7,0.7-1.1,1
		c0.5,0.3,1,0.9,1.4,0.8c1.6-0.3,3.2-0.7,4.7-1.3c5.1-2.3,7.7-6.7,9.7-11.7c2.4-6,1.4-11.7-1.7-17C31.2,503.3,29.8,501.4,26.7,501.3
		z"/>
	<path class="st0" d="M276.4,782.3c-4,4.6-3,10.2-4.8,15.5c-2.8,0.1-4.3,2.7-6.5,4.7c-2.3,2.1-4.6,4.4-8.1,4.7
		c-2.8,0.2-6,0.3-8.1,1.8c-4.2,3.1-9.1,0.3-13.2,2.3c-0.9,0.4-2,0.5-2.9,0.9c-6.7,2.9-13.6,2.3-20.5,1.3c-2.1-0.3-4.4-0.6-6.3-1.4
		c-1.6-0.7-3-2.1-4.4-3.3c-0.3-0.2-0.5-0.8-0.4-1.1c0.9-2.1-0.1-4.7,2.1-6.4c0.7-0.6,1.1-1.7,1.4-2.6c1.6-3.9,3.7-7.7,3.7-12.2
		c0-1.4,0-2.7,0-4.3c11.1,2.5,22.6,2.6,34,3.5C254,786.6,265,783.4,276.4,782.3z"/>
	<path class="st0" d="M123.7,765c2.5,0.9,4.9,2,7.4,2.8c5.4,1.7,10.8,3.4,16.3,4.7c5.8,1.4,11.8,2.4,17.7,3.3
		c5.3,0.8,10.7,1.2,16.1,1.8c1.2,0.1,2.4,0.6,3.9,1c0,2.9,0,5.7,0,8.5c0,0.4-0.3,0.8-0.5,1.2c-0.2,0.2-0.6,0.4-0.7,0.6
		c-1.7,3-4.2,3.9-7.7,4c-2.1,0.1-4,2-6,3.2c-1.5-2.3-5.6-2.3-8.4-1c-4.7,2.2-9.6,3.4-15.1,2.3c-2.9-0.6-6.2-1.3-9,1
		c-0.3,0.3-0.8,0.5-1.3,0.5c-4.9-0.1-9.8-0.2-14.8-0.4c-1.7-0.1-3.4-0.3-5.1-0.4c-2.1-0.1-2.9-1.3-3.2-3.4c-0.4-3.6,1.4-6.3,3.5-8.8
		c1.2-1.5,2.5-3,3.7-4.5c0.3-0.3,0.5-0.8,0.5-1.2c0.5-3.8,0.9-7.6,1.4-11.4C122.8,767.5,123.3,766.4,123.7,765z"/>
	<path class="st0" d="M428.6,662c-4.2,0.6-8.5,0.9-12.6,1.8c-8,1.7-15.6,0.2-23.1-2.6c-4.2-1.6-8.4-3.3-12.2-5.7
		c-2.7-1.8-4.9-4.6-6.8-7.3c-3-4.3-5.5-8.8-8.2-13.2c-0.2-0.4-0.7-0.9-0.6-1.2c0.9-2.6-0.9-4.5-1.5-6.7c-0.5-2.3-0.7-4.7-1.1-7.1
		c-0.2-1.4-0.7-2.7-0.7-4.1c0-4.4-0.3-8.8,0.4-13c0.6-4,2.1-7.8,3.3-11.7c0.1-0.5,0.5-0.9,0.5-1c1.7,6.6,3.5,13.4,5.3,20.2
		c-0.1,0.1-0.2,0.2-0.3,0.2c-0.6-0.8-1.2-1.7-1.9-2.4c-0.6-0.5-1.5-0.7-2.3-1c0,0.8-0.3,1.7,0.1,2.3c2.2,3.6,4.2,7.4,6.8,10.7
		c3.5,4.5,7.4,8.8,11.3,13.1c2.5,2.7,5.1,5.3,7.9,7.7c1.4,1.3,3.2,2.1,4.9,3.1c4.4,2.8,8.7,5.9,13.2,8.5c4.3,2.5,8.8,4.6,13.9,5.4
		c1.5,0.2,2.7,2.2,4,3.3C428.8,661.6,428.7,661.8,428.6,662z"/>
	<path class="st0" d="M272.2,664.9c4,0.6,7.7,1.1,11.3,1.6c9.1,1.3,18.2,2.6,27.4,2.1c3.4-0.2,6.8-0.5,11-0.9
		c-1.7,4.4-2.7,8.3-4.5,11.7c-1,1.9-3.1,3.3-5,4.7c-0.9,0.7-2.4,0.7-3.4,1.4c-4.8,2.9-8.6,0.8-12.3-2.1c-1.9-1.5-3.5-3.1-4.1-5.7
		c-0.5-1.9-2.1-3.5-3.2-5.2c-0.2-0.4-0.7-0.8-0.7-1.2c0-1.8-1.2-2.5-2.6-2c-1.2,0.4-2.7,1.4-3.2,2.5c-0.8,1.7-1.2,3.4-2.8,4.8
		c-1.6,1.4-3.4,1.5-5,0.9c-0.9-0.3-1.3-2-1.8-3.1c-0.5-1.2-0.9-2.4-1-3.7C272.1,668.8,272.2,667,272.2,664.9z"/>
	<path class="st0" d="M498.6,738.5c8.3,0,16.5,0,24.9,0c-1.2,4.9-2,9.9-6.3,13.3c-1.7,1.4-4.4,1.7-5.8,0.1c-1.5-1.7-2.5-3.8-3.7-5.8
		c-0.3-0.6-0.5-1.3-0.7-2c-0.5-1.3-1.2-1.3-2.1-0.5c-0.1,0-0.1,0.1-0.2,0.2c-1.2,1.1-1.9,3.3-4,2.3c-2.1-0.9-2-3.2-2.2-5.1
		C498.4,740.4,498.5,739.6,498.6,738.5z"/>
	<path class="st0" d="M337,669.7c-4-5.5-4-5.5,2.5-7.7c3.4-1.1,3.5-2,0.9-4.5c-0.4-0.4-0.9-0.7-1.1-1.2c-0.6-1.1-2.2-2-0.9-3.7
		c1.3-1.7,2.7-3.2,5.1-2.2c2.3,0.9,4.6,2.1,7,3.3C345.7,659.3,341.4,664.5,337,669.7z"/>
	<path class="st0" d="M36.7,554c-5,1.9-8.9,6.2-15.3,6.4c1.4-4.4,2.6-8.4,4-12.8c4,2,7.6,3.8,11.2,5.5
		C36.6,553.4,36.7,553.7,36.7,554z"/>
	<path class="st0" d="M339.6,645.9c0-0.5-0.1-1.3-0.2-2.6c2.4,1.2,4.4,2.3,6.4,3.3c0,0.1,0,0.2-0.1,0.3
		C343.8,646.6,341.9,646.3,339.6,645.9z"/>
	<path d="M227,452.2c2,5.2,4.2,10.3,6.1,15.5c0.6,1.6,1.4,1.6,2.4,0.8c1.5-1.1,2.8-2.5,4.2-3.6c0.5-0.4,1.3-0.4,1.9-0.6
		c0.1,0.7,0.4,1.6,0.1,2c-2.9,4.2-6.4,8.1-11.2,9.9c-2.9,1.1-6.4,1.3-9.4,0.8c-4.6-0.8-9.3-1.9-13.3-4.9c-0.7-0.5-1.2-1.2-1.9-1.7
		c-0.9-0.7-1.9-1.6-0.9-2.7c1-1.1,2.6-1.8,3.8-0.6c4,3.9,9.4,4.6,14.4,5.8c3.1,0.7,6.2-0.1,8.3-2.3c-2.5-5.4-4.9-10.5-7.2-15.7
		c-0.8-1.8-1.9-1.8-3.7-1.6c-4.2,0.4-8.6,0.9-12.7,0.1c-2.1-0.4-4-3.1-5.7-5.1c-1-1.2-1.5-3-2-4.6c-0.2-0.5,0.2-1.6,0.6-1.9
		c0.6-0.4,1.7-0.6,2.2-0.3c1.2,0.8,2.2,1.9,3.3,2.9c1.9,1.9,3.6,4.1,5.8,5.6c1.1,0.8,3,0.8,4.5,0.6c6-0.8,12-1.7,17.4-4.5
		c1.9-1,3.4-3.2,4.7-5.2c1.3-2.1,1.4-4.4-0.4-6.5c-0.3-0.4-0.1-1.2-0.4-1.6c-0.8-1.1-1.7-2.2-2.7-3.1c-1.2-1-2.8-1.7-3.9-2.8
		c-1-0.9-0.6-2,0.8-2.1c0.8-0.1,1.7,0.2,2.4,0.6c1.4,0.8,2.6,2,4,2.8c3,1.6,3.1,4.7,4.1,7.3c1,2.3,1.3,5.1,0,7.4
		c-1.1,1.9-2.5,4-4.3,5.2c-2.3,1.5-5.2,2.3-7.9,3.3C229.4,452,228.2,452,227,452.2z"/>
	<path d="M461.3,542.5c-4.1-0.1-5-1.3-4.6-4.7c1.1-10,5.7-18.5,11-26.7c2.2-3.4,5.1-6.3,8.1-9c1.1-1,3.6-1.5,5.1-1
		c3.1,1.1,3.6,2.6,3.3,5.5c-0.4,4.5-1.5,8.7-3.7,12.7c-2.5,4.6-4.4,9.6-7.4,13.7c-2.7,3.6-6.6,6.2-10.1,9.2
		C462.5,542.5,461.6,542.4,461.3,542.5z"/>
	<path d="M427.9,538c-1.9,0.3-2.7-0.7-3.5-2.3c-1.6-3.4-2-6.9-2-10.6c0-3.5-0.3-7.1,0.1-10.5c0.4-3.4,1.4-6.7,2.2-10
		c0.3-1.1,0.6-2.3,0.7-3.4c0.2-3.3,2.2-5.6,4.3-7.8c1.2-1.3,3.7-0.7,5,0.6c3.4,3.7,3.4,8.4,3.3,12.9c-0.1,5.3-0.5,10.6-1.4,15.9
		c-0.7,4.4-2,8.9-3.7,13.1c-0.5,1.4-3.1,1.9-4.7,2.9C428.1,538.4,428,538.2,427.9,538z"/>
	<path d="M220.2,283.2c-0.4,1.8-0.8,3.8-1.2,5.9c-0.3,1.5-0.3,3.1-0.5,4.6c-0.9,5.6-1.8,11.2-2.6,16.8c-0.7,4.8-1.1,9.7-1.9,14.5
		c-0.7,4.1-1.7,8.2-2.5,12.2c-0.1,0.5,0.1,1.1,0,1.6c-0.1,0.7-0.3,1.8-0.7,1.9c-0.6,0.2-1.6-0.1-2-0.6c-1.5-1.8-2.9-3.7-4.2-5.6
		c-5.1-7.5-10.2-14.9-15.1-22.5c-4.5-7-8.9-14.1-13.3-21.2c-1.3-2.1-0.6-3.4,1.8-3.8c6.5-1.2,13-2.3,19.6-3.4
		c6.7-1.1,13.4-1.9,20.1-2.9C219.3,280.5,220.2,281.3,220.2,283.2z M178.5,290c4.8,7.3,9.4,15.2,14.9,22.6
		c5.4,7.3,8.9,15.9,15.2,22.6c0.3-0.1,0.6-0.1,0.9-0.2c2.5-17,5-33.9,7.6-51.1C204.1,286,191.2,288,178.5,290z"/>
	<path d="M432.7,625c-0.6,1.9-1.2,3.9-1.8,5.9c-0.4,1.4,0,2.3,1.5,2.6c3.8,0.6,7.7,1.7,11.5,1.8c6.3,0,12.7-0.1,18.9-1.2
		c7.8-1.3,15.3-3.8,21.6-8.9c0.3-0.2,0.7-0.4,1-0.6c0.1-0.1,0.3,0,1,0.1c-0.6,0.9-1,1.9-1.6,2.4c-5.6,4.2-11.8,7-18.6,9
		c-5.5,1.6-11.2,2-16.9,2.4c-3.8,0.3-7.6-0.3-11.4-0.7c-1.5-0.2-2.4-0.2-3.3,1.3c-2.2,3.5-3.2,3.7-7.1,2.1c-2.6-1-5.3-1.8-7.9-2.8
		c-4.2-1.5-4.8-2.4-4.5-6.9c0.1-2.1-0.7-3.3-2.3-4.6c-4.5-3.8-8.8-8-12.9-12.2c-1.2-1.2-1.7-3.2-2.5-4.9c0.2-0.2,0.4-0.4,0.7-0.6
		c0.7,0.5,1.4,1,2,1.6c4.2,4.1,8.1,8.4,12.5,12.3c4.6,4.1,10.1,6.7,16,8.9c0.6-2.2,1.3-4.4,1.8-6.4c-3.3-0.8-6.6-1.5-9.8-2.5
		c-4.5-1.5-5.9-4.5-4.1-9c0.8-1.9,1.9-3.7,3.1-5.4c0.3-0.5,1.5-0.4,2.2-0.6c0.1,0.8,0.5,1.6,0.4,2.2c-0.5,1.8-1.4,3.5-1.7,5.3
		c-0.1,0.7,0.4,2,1.1,2.4c6.2,3.5,12.9,4,19.5,1.9c1.9-0.6,3-3.5,4.5-5.3c0.3-0.4,0.8-0.8,1.1-1.2c0.4,0.5,0.9,1,1,1.6
		c0.1,0.4-0.2,1-0.5,1.5c-2.5,5.4-6.5,8.6-12.8,8.1c-0.4,0-0.8,0-1.2,0C433.2,624.8,433,624.9,432.7,625z M433.2,637.1
		c-5.3-2.3-10.4-4.6-15.5-6.9c-0.7,3.3-0.3,4.5,2.3,5.5c3,1.1,6.2,1.9,9.1,3.2C431.7,640.3,432.5,639.3,433.2,637.1z"/>
	<path d="M112.3,327.4c0.7-4.6,1.7-7.8,5.6-9c0.8-0.2,1.6-0.8,2-1.5c2.1-3,5.1-3.5,8.3-2.8c2.6,0.6,5.6,1.2,7.5,2.9
		c2.6,2.3,4.5,5.6,6.4,8.7c0.5,0.9,0.3,2.5,0,3.6c-1,3-2.2,5.9-3.4,8.8c-0.3,0.7-1,1.4-1.7,1.9c-4.2,3.1-8.7,2.9-13.6,1.9
		c-3.4-0.7-5.9-2.9-7.5-5.1C113.9,333.9,113.2,330,112.3,327.4z"/>
	<path d="M268,322.4c-3.5-1.6-8.8-0.6-11.4-5.3c-1-1.8-1.6-4.2-1.4-6.1c0.6-4.4,1.9-8.8,4.7-12.5c1.1-1.5,2.8-2.6,4.2-3.9
		c0.2-0.1,0.4-0.2,0.7-0.2c6.1-0.2,12.4,4.7,12.9,10.6c0.2,2.9-0.7,5.8-1.2,8.7c-0.2,1.2-0.9,2.3-1.3,3.5
		C274.4,320.1,271.3,322.5,268,322.4z"/>
	<path d="M26.7,501.3c3.1,0.1,4.5,2,5.5,3.8c3.1,5.4,4,11,1.7,17c-2,5-4.5,9.4-9.7,11.7c-1.5,0.7-3.1,1-4.7,1.3
		c-0.4,0.1-0.9-0.5-1.4-0.8c0.4-0.3,0.7-0.8,1.1-1c1.6-0.9,4-1.4,4.9-2.8c3.9-6.3,8.1-12.6,7.1-20.6c-0.3-2.9-0.9-5.5-3.6-7.2
		C27.3,502.5,27.2,502.1,26.7,501.3z"/>
	<path class="st0" d="M178.5,290c12.7-2,25.6-4.1,38.5-6.1c-2.5,17.1-5.1,34.1-7.6,51.1c-0.3,0.1-0.6,0.1-0.9,0.2
		c-6.3-6.7-9.8-15.3-15.2-22.6C188,305.3,183.3,297.4,178.5,290z"/>
	<path class="st0" d="M433.2,637.1c-0.6,2.2-1.5,3.1-4,1.9c-2.9-1.4-6.1-2.1-9.1-3.2c-2.6-1-3.1-2.2-2.3-5.5
		C422.8,632.5,427.9,634.8,433.2,637.1z"/>
</g>
</svg>
