<?xml version="1.0" encoding="utf-8"?>
<!-- Generator: Adobe Illustrator 26.0.0, SVG Export Plug-In . SVG Version: 6.00 Build 0)  -->
<svg version="1.1" id="Capa_1" xmlns="http://www.w3.org/2000/svg" xmlns:xlink="http://www.w3.org/1999/xlink" x="0px" y="0px"
	 viewBox="0 0 595.3 1008.9" style="enable-background:new 0 0 595.3 1008.9;" xml:space="preserve">
<style type="text/css">
	.st0{fill:#FFFFFF;}
</style>
<g>
	<path d="M240.9,851.9c0,4.6,0.2,9.8,0,14.9c-0.2,4.8-0.8,9.6-1.3,14.3c-0.4,4.8-0.8,9.5-1.2,14.3c-0.7,7.9-1.4,15.8-2,23.8
		c-0.4,4.9-0.4,9.8-0.7,14.6c-0.1,1.9-0.7,3.8-1.2,5.7c-0.1,0.6-0.4,1.1-0.4,1.7c-0.3,11.1-0.5,22.1-0.8,33.2
		c-0.1,1.7-0.8,3.4-1.1,5.1c-0.2,1.3-0.3,2.7,0,4c0.5,2.2,0.4,4-1.3,5.9c-0.8,0.9-1,2.7-1.1,4.1c-0.1,2.2-1.2,3.3-3,3.9
		c-4.8,1.6-9.6,3.3-14.5,4.6c-5,1.3-10.2,2.2-15.2,3.2c-12.1,2.6-24.4,3.6-36.8,3.7c-3.3,0-6.7-0.2-10-0.7c-2.8-0.4-4.2-2.8-4.4-5.3
		c-0.6-6.9,2-12.3,7.7-16.4c1.7-1.2,3.1-3.5,3.5-5.5c1.4-6.8,2.6-13.7,3.4-20.6c0.9-7.2,1.2-14.5,1.9-21.7c0.5-4.7,1.4-9.3,1.9-14
		c0.3-2.6-0.2-5.3,0.1-7.9c0.7-6.7,1.8-13.4,2.4-20.2c0.7-8,0.9-16.1,1.5-24.1c0.4-5.2,1.5-10.3,2-15.5c0.5-4.8,0.5-9.7,0.9-14.5
		c0.5-4.7,1.4-9.3,1.9-13.9c0.6-5.6,1-11.2,1.3-16.8c0-1-0.8-2.2-1.5-3.1c-1.7-2.2-2.4-4.6-2.1-7.4c0.4-3.9-0.1-7.9,0.5-11.7
		c0.3-1.7,1.9-4.2,3.4-4.5c2.8-0.7,3.1-2.2,3.2-4.4c0.3-8,0.4-15.9,0.9-23.9c0.4-5.9,1.3-11.7,1.9-17.5c0.3-2.6,0.4-5.3,0.6-7.9
		c0.7-12.3,1.3-24.6,2.3-36.8c0.5-6.7,1.9-13.4,2.8-20.1c0.1-0.6,0.1-1.3,0.3-2.7c-1.6,1.6-2.9,2.6-3.9,3.8
		c-3.9,4.8-7.6,9.7-11.5,14.5c-3.5,4.2-7.1,8.3-10.6,12.6c-5.1,6.3-10,12.8-15.1,19.1c-3.9,4.8-8.2,9.4-12.1,14.3
		c-3.5,4.4-6.5,9.1-9.9,13.6c-6.1,8-12.5,15.9-18.6,23.9c-0.8,1-1.3,2.4-1.3,3.7c-0.1,4.1-0.6,8-3,11.5c-1.7,2.5-5,3.6-7.6,1.9
		c-2-1.3-3.3-1.7-5.6,0.2c-2.1,1.7-5.3,3.5-7.7,3c-2.8-0.5-6.1-2.8-7.6-5.2c-1.4-2.4-2.9-4.2-4.9-6c-0.9-0.8-2.1-2.1-2-3
		c0.6-3.4-1.9-4.6-3.9-6.3c-1.9-1.6-5-2.7-4.6-5.6c0.5-3.3,1.3-6.9,3-9.6c3.7-5.6,8.6-10.5,12.3-16.2c6.6-10.2,13.4-20.2,21.6-29.3
		c3.8-4.3,6.9-9.3,10.4-13.9c1.4-1.8,3.2-3.2,4.7-4.9c4.4-5.2,8.7-10.5,13.2-15.8c2.2-2.6,4.7-5,7-7.6c3.5-4,6.8-8.3,10.6-12.1
		c5.5-5.6,11.4-11,17.2-16.4c5.7-5.3,11.5-10.5,17.4-15.6c3.1-2.7,6.5-5.1,9.9-7.4c4.5-3.1,9.1-6,13.6-9c0.6-0.4,1.2-0.7,1.2-0.7
		c-7.1-4.7-14-9.1-20.6-13.8c-4.9-3.5-9.5-7.5-14.2-11.3c-1.3-1-2.3-2.4-3.3-3.7c-3.4-4.3-7.7-8.1-9.9-13c-1.8-4.2-5.1-6.2-7.9-8.9
		c-4.1-4-6.6-8.7-8.3-14.2c-1.9-6.3-4.6-12.4-6.8-18.6c-1.2-3.7-2-7.5-3.1-11.2c-1.3-4.8-2.7-9.5-4-14.3c-0.5-2.1-0.9-4.2-1.1-6.3
		c-0.7-5.5-1.3-11.1-2-16.7c-0.7-5.7-1.9-11.4-2.3-17.1c-0.3-4.6,0.4-9.2,0.6-13.8c0.1-1.5,0.1-2.9,0.3-4.4c0.5-4.2,1-8.4,1.6-12.6
		c0.6-4.1,1.4-8.1,2-12.2c0.5-3.4,1.1-6.9,1.5-10.4c0.7-6.3,3.9-11.8,5.8-17.7c0.8-2.7,2.1-5.2,3.1-7.9c0.2-0.5,0.3-1.3,0-1.6
		c-2.1-2.3-3-5.4-6.2-6.9c-1.7-0.8-3-2.6-4.1-4.2c-3.3-4.9-6.5-10-9.7-15c-2-3.2-4.1-6.4-6.1-9.6c-4.8-7.8-9.6-15.6-14.4-23.3
		c-2.3-3.6-4.8-7.1-7-10.7c-1-1.5-1.6-3.3-2.5-4.9c-4-7.5-8.1-15.1-12.2-22.6c-2.1-3.9-4.3-7.8-6.6-11.7
		c-4.2-6.9-8.6-13.7-12.6-20.7c-2.8-4.9-5.2-10-7.8-15c-1.5-2.8-3.1-5.4-4.6-8.1c-1.6-3.1-3.2-6.2-4.6-9.4
		c-1.7-4.1-3.1-8.4-4.7-12.6c-2.1-5.6-4.5-11-6.3-16.7c-1-3.3-1.2-6.9-1.8-10.3c-0.2-1-0.5-2-1-2.9c-1.1-2.2-2.5-4.2-3.6-6.4
		c-1.2-2.4-2.4-4.9-3.1-7.5c-0.7-2.6-0.7-5.4-1.1-8.1c-0.4-2.5-1.1-5-1.7-7.5c-2.1-8.3-4.7-16.5-6.4-24.9
		c-1.2-6.2-1.2-12.5-1.8-18.8c-0.3-3.2-0.9-6.4-0.8-9.6c0.2-4.8,0.7-9.5,1.3-14.3C2.5,68.5,3.4,59.2,5.3,50c0.6-3,3.7-5.5,5.5-8.3
		c1-1.5,2.3-3,2.7-4.7c1.1-4.2,3-7.4,7.3-8.9c2.2-0.7,4.4-1.7,4.9-4.6c0.1-0.6,1.5-1.2,2.3-1.5c5.6-1.6,11.1-3.3,16.8-4.6
		c7-1.7,13.9-0.3,20.7,1.1c8.3,1.7,15.8,5.6,23.6,8.7c4.5,1.9,7.4,4.4,10.1,8.3c2.5,3.8,6.3,6.7,9.2,10.3c2.5,3,4.4,6.4,6.7,9.6
		c1.1,1.6,2.2,3.3,3.7,4.5c4.2,3.3,6.5,7.8,8.8,12.3c0.4,0.9,0.9,1.8,1.4,2.5c5.6,7.5,9.1,16,13,24.4c2.9,6.3,6,12.5,8.4,18.9
		c1.7,4.7,2.3,9.8,3.6,14.6c0.7,2.7,2.3,5.2,3,7.9c1.7,6.4,3.1,12.8,4.6,19.2c0.8,3.2,2.2,6.3,2.2,9.4c0.1,11.1,4.8,21.1,6.9,31.8
		c1.2,6,1.4,12.2,2.4,18.2c0.7,4.2,2.3,8.1,3.2,12.3c1.8,8.7,3.3,17.4,5.1,26.1c0.5,2.3,1.6,4.5,2,6.8c0.9,5.3,1.4,10.7,2.2,16.1
		c0.3,2,1.2,4,1.5,6c0.4,3.2,0.5,6.5,0.7,9.8c0.2,2.2,0.3,4.4,0.4,6.6c0.3,3.1,0.7,6.1,0.8,9.2c0.2,4.8,0.2,9.5,0.2,14.3
		c0,0.7-0.2,1.3-0.2,2c0.2,3.6,0.6,7.2,0.6,10.8c0,2,0.6,2.7,2.4,1.8c3-1.5,6-3,8.7-4.9c4.3-3,8.8-4.7,14-5.5
		c7.7-1.2,15.3-3.4,23.7-5.3c-1.5-3.3-2.7-6-3.9-8.7c-0.1-0.2-0.2-0.3-0.3-0.5c-2.8-7-5.5-14-8.3-20.9c-1.5-3.7-3.2-7.3-4.8-10.9
		c-0.2-0.4-0.4-0.7-0.6-1c-2.1-6.4-4.2-12.8-6.4-19.1c-0.6-1.7-1.8-3.2-2.6-4.7c-0.8-1.4-1.8-2.8-2.1-4.3c-1.1-5-2-10.1-3-15.2
		c-0.2-1.1-0.1-2.3-0.4-3.5c-0.3-1.6-0.8-3.1-1.3-4.7c-0.4-1.4-1-2.7-1.5-4.1c-1.6-4.3-3.6-8.5-4.6-12.9c-1.3-6-1.6-12.2-2.6-18.4
		c-0.5-3.3-1.6-6.5-2-9.8c-0.5-4-0.6-8.1-0.8-12.1c-0.3-4-0.4-8-0.7-11.9c-0.3-4.4-0.7-8.8-1.2-13.2c-0.4-3.5-1.2-6.9-1.6-10.4
		c-0.5-3.4-0.7-6.8-1.1-10.2c-0.3-2.9-0.5-5.7-0.7-8.6c-0.4-4.2-0.9-8.4-1.1-12.6c-0.3-5.2-0.4-10.4-0.4-15.6c0-2.9,0.2-5.9,0.6-8.8
		c0.7-6.1,0.5-12.2,0.7-18.3c0.1-4.8,1.3-9.7,2.4-14.5c1.4-6.2,2.9-12.4,5-18.4c3.1-8.6,6.6-17.1,14-23.2c5.4-4.5,11.8-6.9,18.6-8.6
		c0.6-0.1,1.9,0.4,2.1,0.9c0.8,2.2,2.3,1.6,3.9,1.5c5.8-0.4,11.5-1.1,17.3-0.9c6.6,0.3,12.9,2.2,18.5,6c1.9,1.3,4.2,2.1,6.4,2.8
		c4.9,1.7,7.2,6.1,10.5,9.6c3.9,4.1,7.6,8.5,11,13c2.7,3.6,4.8,7.6,7,11.5c1.8,3.2,3.4,6.6,5,9.9c1.6,3.4,3.1,6.9,4.7,10.3
		c5.3,11.4,6.6,24,9.7,36c1.6,6.3,2.1,12.8,3.2,19.3c0.3,2,1,4,1.3,6c1.2,7.3,2.3,14.6,3.5,21.9c0.8,5.1,2.2,10.1,2.7,15.3
		c0.6,6,2.8,11.7,1.9,17.9c-0.4,2.8,0.6,5.8,0.8,8.7c0.3,4.6,0.5,9.2,0.8,13.8c0.3,4.3,0.8,8.7,0.9,13c0.2,5.7,0,11.4,0.1,17.2
		c0.1,3,0.9,6,0.6,8.9c-0.4,4.3,0.4,8,1.7,12.1c1.3,4,0.1,8.8-0.1,13.2c-0.5,7.4-1.3,14.7-1.6,22.1c-0.2,5.9,0.2,11.9,0.1,17.8
		c0,4.2-0.5,8.4-0.5,12.6c-0.1,4.2,0.1,8.4,0.2,12.7c0,0.5,0.2,1,0.1,1.4c-0.8,6.3,0.8,8,6.7,10.7c4.2,2,8.1,5.2,11.3,8.7
		c3.6,3.8,6.2,8.5,9.3,12.8c0.7,1,1.8,1.9,2.5,2.9c3.4,4.8,6.9,9.5,9.9,14.5c0.7,1.2-0.1,3.4-0.2,5.2c0,0.8,0,1.7,0.4,2.4
		c2.2,4.1,4.6,8.2,6.7,12.4c0.9,1.8,1.4,3.9,1.8,5.9c1.1,6.6,5.3,12.2,5.8,19c0.3,4.9,1.9,9.8,2.9,14.6c0.8,3.8,2,7.6,2.2,11.4
		c0.3,6.6,0,13.3,0,19.9c0,4.5,0,9-0.1,13.5c0,1.5-0.5,3.1-0.4,4.6c0.2,9.7-1.9,19.1-4.2,28.4c-2.5,10.1-5.5,20-10.3,29.3
		c-2.3,4.6-5.2,8.8-8.2,13.7c2.1-0.7,3.7-1.1,5.3-1.7c5.3-2,10.5-4.1,15.8-6c4.6-1.7,9.2-3.3,13.7-5.1c1.3-0.5,2.5-1.6,3.8-2.1
		c7.1-3,14.3-5.8,21.4-8.8c3.2-1.3,6.4-2.8,9.6-4.3c0.6-0.3,1.2-0.6,1.9-0.8c8.7-2.9,17.6-5.2,25.9-8.8c3.2-1.4,6.1-0.3,9-1.1
		c5-1.2,10.2-1.9,15.3-2.8c5.7-1,11.3-0.3,16.1,3c7.2,4.8,10.7,11.9,11.2,20.4c0.1,2.4,0.5,3.4,3.1,3.7c4.1,0.5,8.1,1.5,12.1,2.4
		c4.4,1.1,7.8,4,11.6,6.2c4.7,2.7,8.4,6.4,12.2,9.9c3.5,3.3,6.3,7.5,9,11.6c1.9,2.8,3.4,6,4.9,9.1c0.4,0.7,0.3,1.7,0.5,2.6
		c0.6,1.8,1.3,3.6,1.8,5.4c0.9,3.2,1.9,6.3,2.5,9.6c1.5,8,3,16,4.1,24c0.7,4.7,1,9.5,1.1,14.2c0.1,4.5-0.6,9-0.3,13.4
		c0.1,1.9,1.8,3.8,2.7,5.7c1.1,2.3,2.1,4.6,3.1,6.9c0.7,1.8,1.4,3.6,2,5.5c0.3,0.9,0.6,2,0.4,2.9c-0.9,3.6-1.9,7.2-2.9,10.7
		c-0.8,3.2-1.5,6.4-2.3,9.6c-1.3,5.2-2.6,10.4-4,15.6c-1.4,5.1-3,10.2-4.2,15.3c-1.5,6.4-2.4,12.9-4,19.2c-2.4,9.5-5.1,19-7.6,28.5
		c-3.2,11.8-6.5,23.6-9.5,35.5c-1.4,5.4-2.1,10.9-3.6,16.3c-1.4,4.8-2.8,9.7-5.3,14c-2,3.3-5.4,5.8-8.6,8.3
		c-9.2,7.4-20.5,10.1-31.2,14.1c-3.1,1.1-6.5,1.5-9.8,1.9c-12.8,1.4-25.5-0.4-38-2.3c-6.6-1-13-3.6-19.1-6.4
		c-8.2-3.7-16.1-8.1-24-12.4c-8.2-4.4-14-11.3-19.2-18.9c-0.6-0.9-0.7-2-1.1-3c-0.6-1.7-1.4-3.3-1.9-5c-0.4-1.5-0.6-3-0.5-4.6
		c0.1-3.1,0.6-6.2,0.8-9.3c0.2-3.4,0.3-6.8,0.5-10.2c0.3-5.1,0.9-10.2,1-15.3c0.3-9.9,0.5-19.7,0.7-29.6c0.1-6.1-0.7-12.4,0.5-18.2
		c1.5-7.3-0.1-14.4,0.8-21.6c0.8-6.5,0.2-13.1,0.4-19.6c0.2-5.8,0.5-11.5,0.9-17.3c0.1-2,0.9-4,1.1-6.1c0.6-5.6,1.2-11.3,1.7-17
		c0.3-2.7,1.2-4.7,3.6-6.4c2.1-1.6,3.2-4.4,5.2-6.1c2.7-2.4,5.6-4.7,8.7-6.4c5-2.8,10.6-4.6,15.4-7.7c2-1.3,2.8-4.5,3.8-7
		c2.2-5.2,4.1-10.6,6.2-15.8c1.1-2.9,2.4-5.8,3.6-8.7c0.6-1.3,1.3-2.6,2.2-3.8c2.7-3.6,5.5-7.1,8.3-10.6c-0.1-0.3-0.2-0.6-0.4-0.9
		c-3.3,1-6.6,1.9-9.8,3c-4.2,1.4-8.3,3-12.4,4.6c-4.8,1.8-9.6,3.9-14.4,5.6c-4.3,1.5-8.8,2.8-13.2,4.2c-5,1.6-10,3.3-15.1,5
		c-4.5,1.5-9.1,2.9-13.6,4.5c-1.4,0.5-2.6,1.5-3.9,1.9c-5.4,1.9-10.9,3.7-16.3,5.7c-1.9,0.7-3.5,2.2-5.4,2.9
		c-6.6,2.4-13.1,4.6-19.8,6.6c-2.1,0.6-2.8,1.5-2.9,3.6c-0.2,10-0.6,20-0.9,30c-0.4,13.1-0.8,26.2-1.3,39.3
		c-0.3,7.6-1.3,15.2-1.6,22.9c-0.4,9.8-0.4,19.5-0.7,29.3c-0.1,4.5-0.6,9-1,13.5c-0.1,0.8-0.3,1.6-0.3,2.3
		c0.1,9.8,0.5,19.6,0.4,29.4c0,5.8-0.9,11.7-1.1,17.5c-0.1,3.2-0.9,6.2-1.6,9.3c-0.8,3.4-0.2,7.2,0,10.9c0.3,5.9,1.1,11.9,1.2,17.8
		c0.2,12.8,0,25.6-0.1,38.4c0,2.6-0.7,5.2-1,7.8c-0.1,0.8-0.2,1.6-0.1,2.3c0.3,3.6,0.8,7.1,1.1,10.7c0.5,5.9,1,11.9,1.2,17.9
		c0.2,7.6,0,15.2-0.2,22.7c-0.1,3.7-0.6,7.4-1.1,11c-0.3,1.9-1.4,3.7-1.3,5.6c0.1,2.6,1.2,5.1,1.6,7.7c0.2,1.4,0.2,3.2-0.4,4.3
		c-1,1.9-0.7,3.2,0.4,4.9c1.4,2.2,2.4,4.7,3.7,6.9c1,1.6,2,3.4,3.5,4.2c2.9,1.7,3.5,4.4,2.6,6.7c-0.7,2-2.9,4.2-4.9,4.9
		c-3.9,1.3-8.2,2-12.4,2c-12.3,0-24.6-0.2-36.9-0.9c-6.1-0.3-12.2-1.9-18.3-2.5c-3.2-0.3-5.9-1-7.9-3.5c-0.9-1-3.1-1.6-1.5-3.7
		c0.1-0.2-0.4-1.1-0.9-1.4c-3.1-1.5-2.5-4.3-2.5-6.9c0-1.8-0.1-3.5,0.1-5.3c0.3-2.2,1.1-4.2,1.2-6.4c0.1-2.6-0.3-5.3-0.5-7.9
		c-0.1-1.4-0.4-2.9-0.4-4.3c0.1-5.3,0.4-10.5,0.5-15.8c0.1-3-0.2-6-0.2-9.1c0-8-0.1-15.9,0.3-23.9c0.3-8,1.3-16,1.5-24
		c0.2-5.2-0.6-10.5-0.6-15.7c0.1-6.8,0.5-13.5,0.8-20.3c0.1-1.3,0.1-2.6-1.8-2.6C250.7,852.1,246.2,852,240.9,851.9z M516.7,537.1
		c0.9,2.9,1.8,5.8,2.7,8.7c0.3-0.1,0.5-0.2,0.8-0.3C519.7,542.5,519.4,539.4,516.7,537.1c-4.5-5.6-9.9-9.5-17.5-9.1
		c-5.5,0.3-11,0.7-16.4,1.5c-5.8,0.9-11.7,1.9-17.3,3.7c-8.3,2.7-16.4,6-24.6,9.3c-7.3,2.9-14.5,6-21.7,9.2
		c-6.3,2.8-12.4,6-18.7,8.7c-9.6,4-19.4,7.5-29.1,11.4c-1.5,0.6-2.8,2.1-4,3.3c-5,4.9-8.7,11.1-15,14.5c-1.2,0.7-2.6,1.2-3.5,2.2
		c-4.3,5-10.1,7.7-16.1,9.9c-2.5,0.9-5.2,1.3-7.6,2.3c-6.1,2.6-11.9,6-18.2,8.1c-5.8,1.9-12,2.9-18.2,3.6c-8.5,1-17,1.6-25.5,2.1
		c-5.3,0.3-10.6,0.1-15.8,0.1c-3.3,0-6.7-0.1-10-0.2c-1.1,0-2.4,0.3-3.2-0.2c-3.3-2.1-7-1.4-10.6-1.9c-3.3-0.4-6.5-0.8-9.4-3
		c-1.2-0.9-3.9-1.1-5.3-0.4c-4.6,2.2-8.8,5-13.2,7.5c-5.1,3-10.4,5.8-15.4,9.1c-2.9,1.9-5.3,4.6-8,6.9c-1.3,1.1-3.1,1.7-4.4,2.9
		c-3.4,3.2-6.7,6.6-10,9.9c-1.8,1.8-3.3,3.9-5.2,5.7c-5.4,5.2-11.1,10.2-16.3,15.6c-3.8,3.9-6.8,8.6-10.3,12.8
		c-2.3,2.8-4.9,5.3-7.3,8c-6.2,7.3-12.5,14.6-18.5,22c-4.4,5.4-8.6,10.9-12.6,16.6c-4.6,6.4-8.9,13.1-13.4,19.6
		c-2.8,4-6,7.8-8.6,11.9c-1.2,1.9-1.7,4.3-2.1,6.6c-0.3,1.9,0.3,3.3,2.8,4.1c2.4,0.7,5.5,1.5,5.1,5.3c-0.1,0.7,1.6,2.3,2,2.2
		c3.4-1,4.7,1.9,7.1,3.1c-0.6,0.9-1.1,1.4-1.3,2.1c-0.3,1-0.4,2.1-0.6,3.2c0.9-0.2,2-0.2,2.6-0.7c4.1-3.5,8.1-4,12.7-0.5
		c1.8,1.4,3.9,0.4,4.4-2.1c0.5-2.7,0.7-5.4,1.2-8.1c0.3-1.8,0.6-3.7,1.6-5.1c2.4-3.3,5.4-6.2,7.9-9.4c2.5-3.2,4.5-6.7,7-9.9
		c1.5-2,3.6-3.5,5.1-5.5c4.9-6.8,9.4-13.8,14.5-20.5c7.5-9.9,15.2-19.7,22.9-29.5c4.8-6.1,9.9-12.1,14.9-18.1c1.2-1.4,2.5-2.7,3.9-4
		c2.4-2.3,4.9-4.5,7.4-6.8c4.2-3.8,8.3-7.7,12.5-11.5c0.5-0.5,1.4-0.5,2.1-0.8c-0.6,2.2-2,3.7-2.6,5.4c-1,3.3-1.5,6.7-2.1,10
		c-1.1,5.4-2.3,10.9-3.2,16.3c-1.1,6.8-2.2,13.5-2.8,20.3c-0.7,8-0.8,16.1-1.3,24.2c-0.8,12.1-1.7,24.3-2.6,36.4
		c-0.3,4.5-0.3,9-1,13.5c-0.6,3.7-0.6,4.1,3.3,4.7c1.2,0.2,2.3,0.7,3.4,0.8c9.6,1.1,19.1,2.6,28.7,3.3c14.9,1.1,29.8,1.7,44.8,2.4
		c11.8,0.5,23.6,0.7,35.4,1c7.4,0.2,14.7,0.4,22.1,0.5c5.6,0.1,5.7,0,5.2-5.5c-0.1-0.8-0.1-1.6-0.1-2.4c0.2-5.4,0.6-10.8,0.7-16.2
		c0.3-10.8,0.4-21.6,0.9-32.4c0.6-15.6,1.5-31.2,2.3-46.8c0.2-3.1,0.5-6.2,0.5-9.3c0.1-4.6,0.1-9.2,0.1-13.8
		c0.1-9.1,0.2-18.3,0.2-27.4c0-6.2-0.5-12.4-0.3-18.6c0-1.6,1.8-3.2,2.8-4.7c1,1,1.9,2.1,2.9,3.1c0.1,0.1,0.3,0.2,0.6,0.5
		c0.6-0.2,1.4-0.3,2.1-0.6c10-3.8,20.1-7.6,30.1-11.5c19.1-7.5,38.2-15.1,57.3-22.5c6.6-2.6,13.3-4.7,20-7.1
		c5.6-2,10.9-4.7,16.7-5.9c10.3-2.2,17.2-9.7,25.7-14.9c-0.7-1.1-1.3-1.8-1.8-2.7c2-2.1,2.2-3.9-0.3-5.8c-0.7-0.6-0.8-1.9-1.2-2.9
		c1,0,2.1-0.2,3.1-0.1c0.7,0.1,1.4,0.7,2.1,1.1c1.5,0.9,2.5,1.8,1.3,3.8c-0.4,0.6-0.1,2,0.3,2.7c1.3,1.9,3.1,3.4,5.7,2.9
		c2.3-0.5,4.3-3.1,4.4-5.7c0.2-3.8-1.7-6.8-4.1-9.5c-0.4-0.4-0.8-1.4-0.6-1.7c0.3-0.4,1.2-0.7,1.8-0.7c2.6,0.1,4.4,1.6,5.5,3.9
		c1.7,3.6,3.6,7.2,2.4,11.4c3.3,0.8,5.6-0.7,6.1-4.2c0.7-4.7-0.3-8.9-3.6-12.6c-0.7-0.8-0.8-2.3-1.1-3.5c1.2,0.2,2.6,0.2,3.7,0.7
		C514.5,535.4,515.5,536.4,516.7,537.1z M391.6,476.4c-0.4-3.7-0.9-7-1-10.3c-0.4-9.7-1.4-19.3-4-28.7c-1.5-5.2-1.6-10.7-4-15.8
		c-2-4.4-2.7-9.5-4.3-14.2c-1.9-5.3-3.9-10.6-6.3-15.7c-2.7-6-5.6-11.9-9-17.5c-1.7-2.8-4.6-4.9-7-7.3c-0.6-0.6-1.3-1.1-2-1.8
		c-3.7-3.8-7.4-7.5-11.1-11.3c-1.2-1.2-2.3-1.8-4.1-0.6c-0.9,0.6-3,0.8-3.8,0.2c-1.8-1.3-3.2-3.3-4.7-5c-0.1-0.1,0.1-0.6,0.2-0.8
		c2.4-4.9,1.9-10.1,2.1-15.2c0.4-9.9,0.6-19.9,0.8-29.8c0.1-4.6-0.2-9.1,0-13.7c0.3-5.3,1.1-10.6,1.4-16c0.3-5.6-0.2-11.3,0.5-16.9
		c1.1-8.9,0.2-17.7-0.9-26.5c-0.4-3.4-1.5-6.6-1.9-10c-0.7-5.6-1.1-11.2-1.7-16.8c0-0.4,0-0.8,0-1.2c0-2.6,0.2-5.1-0.1-7.7
		c-0.6-5.4-1.4-10.7-2-16.1c-0.2-1.5,0.1-3.1,0-4.6c-0.8-6.3-1.5-12.7-2.5-19c-0.9-6-2.2-11.9-3.4-17.8c-0.2-1.2-0.6-2.3-0.8-3.4
		c-1.6-8.1-2.8-16.3-4.8-24.4c-2.4-9.8-5.5-19.5-8.3-29.2c-0.5-1.7-1.2-3.3-2-4.9c-1.4-3.2-3.1-6.3-4.4-9.5c-1.6-3.9-3-7.8-4.4-11.8
		c-0.8-2.3-0.9-4.9-2.1-7c-2.1-3.7-4.6-7.3-7.4-10.6c-6.1-7.1-12.9-13.5-21.3-17.9c-6.8-3.6-14.2-4.9-21.6-6.6
		c-7.5-1.8-14.4,0.4-21.5,1.9c-1.2,0.3-2.4,0.3-3.5,0.7c-1.6,0.6-3.5,1-4.6,2.2c-2.8,3-5.5,6.2-7.6,9.7c-1.7,2.9-2.7,6.2-3.7,9.4
		c-0.8,2.5-1,5.1-1.7,7.7c-1.2,4.8-2.5,9.6-3.5,14.4c-0.4,1.9-0.4,3.6-2.4,4.7c-0.8,0.5-1.5,1.7-1.7,2.6c-0.7,5.4-1.2,10.8-1.7,16.1
		c-0.3,4.2-0.5,8.4-0.6,12.6c-0.1,4.2-0.1,8.3,0.2,12.5c0.3,4.5,0.9,9.1,1.3,13.6c0.2,2.1,0.2,4.3,0.3,6.4c0.2,3.6,0.5,7.2,0.7,10.8
		c0.2,3,0.1,6,0.5,9c0.6,4.1,1.7,8.1,2.4,12.2c1.2,7.8,2.1,15.6,3.4,23.4c1.2,7,2.7,14,4,21c0.5,2.7,0.4,5.4,1.1,8
		c0.4,1.8,1.8,3.4,2.4,5.3c1.5,4.3,3,8.6,4,13.1c1,3.9,1.1,8.1,2.2,12c1.4,5.3,3.2,10.4,4.9,15.6c2.9,8.6,5.7,17.2,8.7,25.8
		c1.6,4.7,2.9,9.6,5,14c2.3,4.9,4.8,9.6,6.1,15.1c1.1,4.6,3.5,8.8,5.1,13.3c0.6,1.8,1.5,2.4,3.3,2.7c5.8,0.8,11.6,1.8,17.4,2.9
		c0.9,0.2,1.7,1.1,2.5,1.7c-0.9,0.5-1.7,1.2-2.6,1.3c-1.3,0.1-2.8,0-4-0.4c-6.4-2.2-13.1-2.9-19.7-1.9c-10.1,1.6-20.3,2.8-29.8,6.7
		c-3.4,1.4-6.8,3.1-9.7,5.3c-2.4,1.8-4.6,3.1-7.6,3.4c-5,0.6-5.1,0.8-6.1,5.5c-0.1,0.6-0.2,1.3-0.6,1.6c-0.7,0.6-1.6,0.9-2.4,1.3
		c-0.3-0.8-0.9-1.6-0.9-2.3c0-1.4,0.6-2.7,0.5-4c-0.8-8-1.7-16-2.6-24c-0.2-1.7,0-3.5-0.3-5.2c-0.5-3.4-1.2-6.9-1.7-10.3
		c-0.4-2.3-0.7-4.6-0.8-6.9c-0.2-4.1,0.6-8.5-0.3-12.4c-1.6-6.8-2.6-13.5-3.1-20.4c-0.4-6-3-11.6-3.2-17.8c-0.2-6-2.2-11.9-3.4-17.8
		c-1.3-6.1-2.6-12.2-3.8-18.3c-1-4.9-1.8-9.8-3-14.6c-2.6-10.5-5.1-21.1-8.2-31.5c-2.8-9.3-4.7-18.8-9-27.7
		c-3.5-7.3-5.4-15.3-8.2-22.9c-2-5.5-4.3-10.9-6.8-16.2c-2.8-6-5.9-11.9-9.2-17.6c-6-10.2-12.1-20.3-18.3-30.4
		c-2-3.2-4.1-6.7-7.1-8.9c-6-4.4-11.6-9.5-19.5-11c-4.9-0.9-9.4-4-14.2-5.6C57.6,26.8,51.3,25.3,45,24c-2.2-0.5-5.2-1.1-6.4,1.4
		c-1.6,3.3-4.4,4.2-7.3,5.4c-1,0.4-2.2,1.1-2.7,2c-2.1,3.5-4.4,7-5.9,10.8c-1.5,3.9-2.3,8.2-3.1,12.3c-0.6,3.1,0.4,7.1-2.9,8.8
		c-4.8,2.4-3.8,6.9-4.7,10.7c-0.8,3.8-0.9,7.7-1.3,11.5c-0.3,2.7-0.9,5.4-1,8.1c-0.2,5.3-0.2,10.6-0.1,15.8
		c0.1,4.6,0.4,9.2,1.1,13.8c0.7,4.5,3,8.8,2.8,13.2c-0.2,6,2.4,11,3.5,16.5c0.1,0.6,0.1,1.2,0.2,1.7c0.2,1.1,0.4,2.1,0.8,3.1
		c2.4,5.9,5,11.7,7.4,17.6c0.6,1.6,0.1,3.7,0.7,5.3c2.1,5.4,4.5,10.6,6.7,15.9c2.5,5.9,5.2,11.8,7.1,17.9
		c2.3,7.4,6.8,13.6,10.3,20.4c1.7,3.4,3.3,6.8,5.3,10.1c2,3.4,4.5,6.6,6.6,9.9c1.6,2.4,3.1,4.8,4.5,7.2c1.9,3.2,3.8,6.5,5.8,9.8
		c2,3.4,4.2,6.6,6.2,10c1.4,2.4,2.6,5,4,7.5c2.4,4.3,4.9,8.6,7.4,12.8c1.6,2.8,3.1,5.6,4.9,8.3c3.3,5,6.9,9.9,10.3,14.9
		c3.5,5.1,6.7,10.4,10.2,15.6c3,4.3,6.2,8.5,9.3,12.8c3.9,5.4,7.8,10.8,11.9,16c1.9,2.5,4.1,4.9,3.3,8.4c-0.1,0.5,0.2,1.2,0.6,1.6
		c1.6,1.7,0.8,3.1-0.3,4.7c-1.7,2.3-3.4,4.6-4.7,7c-1.4,2.6-2.2,5.4-3.7,8c-1.2,2-3.7,3.6-4.3,5.7c-1.3,4.8-2,9.9-2.3,14.9
		c-0.2,4.1,0.7,8.3,0.8,12.4c0.1,2.9,0,5.9-0.6,8.7c-1,4.5-1.7,8.9-1.1,13.5c0.1,0.9-0.1,1.9-0.1,2.9c0,3.6-0.4,7.2,0.1,10.7
		c0.7,5.1,2.4,10,3.1,15c1.1,8.1,0.9,16.4,4.8,23.9c0.2,0.4,0.2,1,0.3,1.4c1.2,4.1,1.7,8.6,3.8,12.2c4.3,7.6,4.3,17.1,10,24
		c2.7,3.2,3.4,7.3,6.4,10.4c5.1,5.2,9.3,11.3,14.9,16c3.9,3.3,7,7.4,10.9,10.7c4.5,3.9,9.4,7.3,13.9,11.3c3,2.7,6,4.3,10,4
		c1.7-0.1,3.6-0.1,5.2,0.5c7.3,2.8,14.5,5.9,21.8,8.7c3,1.1,6.2,2.7,9.2,2.6c7.5-0.1,14.2,4.4,21.8,2.7c1.2-0.3,2.5,0.3,3.8,0.4
		c0.5,0,1-0.3,1.6-0.5c1.1-0.4,2.2-1.2,3.3-1.3c6.3-0.5,12.7-0.7,19-1.4c9.3-1,18.6-2.4,26.7-7.5c1.3-0.8,2.9-1.3,4.4-1.7
		c8.4-2.1,16.4-5.1,23.2-10.8c1.9-1.6,4.4-2.6,6.5-4c1.3-0.8,2.6-1.7,3.7-2.8c3.1-3,6.1-6.1,8.9-9.3c2.4-2.8,4.8-5.7,6.8-8.9
		c2.6-4.3,4.8-8.9,7.1-13.4c2.7-5.5,6-10.9,7.8-16.7c1.9-6.1,2.3-12.6,3.8-18.8c1.7-7.2,2.2-14.6,3.6-21.8
		C391.9,488.3,390,482.2,391.6,476.4z M412.4,669.5c-0.3,1.3-0.6,1.9-0.6,2.5c-0.2,10.3-0.3,20.6-0.6,30.9
		c-0.3,9.6-0.7,19.2-1.1,28.8c-0.3,7-0.7,14-0.8,21.1c0,2.6,0.9,5.2,0.8,7.8c-0.4,7.6-1.1,15.2-1.7,22.8c-0.4,5.3-0.9,10.5-1,15.8
		c-0.2,8.3-0.1,16.5-0.1,24.8c0,0.6,0.3,1.4,0.7,1.9c5.5,6.8,11.7,12.8,19.7,16.9c4.3,2.2,8.5,4.8,13,6.9c5,2.3,10.3,4.1,15.3,6.6
		c3.1,1.6,6.2,2.3,9.6,2.4c3.1,0.1,6.1,0.8,9.2,1.2c1.4,0.2,2.7,0.4,4.1,0.3c7.5-0.5,15,0.6,22.6-0.3c6.3-0.8,12.7-1.5,18.4-4.1
		c6.2-2.8,12.3-5.8,17.9-9.9c5.2-3.8,8.8-8.5,10.6-14.5c1.6-5.4,2.7-11,4.1-16.5c2.7-10,5.4-20,8.2-30c2.4-8.5,5.1-17,7.3-25.5
		c1.2-4.8,1.6-9.8,2.8-14.7c2.1-8.7,4.6-17.4,6.8-26.1c1.9-7.7,3.5-15.5,5.3-23.6c-0.9,0.3-1.5,0.3-1.9,0.6c-1.7,1-3.2,2.4-4.9,3.2
		c-6,2.6-12,5.2-18.2,7.5c-3.3,1.2-6.8,1.7-10.2,2.5c-4.3,1.1-8.6,2.7-12.9,3.2c-4.7,0.5-9.4-0.1-14.3,1.1c-4.2,1-8.9,0.3-13.4,0.2
		c-3.2-0.1-6.4-0.4-9.5-0.7c-9.2-0.7-18.5-1.1-27.3-4.9c-6-2.6-12.3-4.5-18.4-6.8c-1.6-0.6-3.3-1.3-4.7-2.2
		c-2.2-1.3-4.2-2.9-6.3-4.3c-8.4-5.4-16.9-10.8-23.1-18.9C416.1,673.4,414.3,671.7,412.4,669.5z M322.3,824.1
		c-6,3.1-11.2,5.8-16.4,8.5c-7.4,3.8-14.9,7.1-22,11.4c-5.9,3.5-12.3,4.9-18.6,6.9c-1.9,0.6-2.5,1.2-2.6,3.1
		c-0.1,3.4-0.7,6.8-0.8,10.3c-0.2,5.5-0.5,10.9-0.2,16.4c0.3,5,1.6,10,1.9,15c0.6,11.1,0.8,22.2,1.2,33.3c0.1,3,1.1,6.4,0,9
		c-1.7,4.3-1.2,7.9,0.5,11.8c0.5,1.3,0.4,2.9,0.3,4.3c-0.2,3.1-0.5,6.2-0.8,9.2c-0.1,0.9-0.1,1.7-0.3,2.6c-0.3,1.7-1,3.3-1,5
		c0.1,5.5,0.3,11,0.6,16.5c0.1,1,0.4,2.1,0.9,3c2.8,4.8,7.6,6.4,12.5,7.3c6.3,1.2,12.7,2.6,19.1,2.9c9.1,0.4,18.3,0.2,27.4-0.6
		c4.9-0.4,6.6-6.7,2.6-9.5c-4.4-3.1-5.6-6.4-4.1-11.2c0.1-0.4,0.1-1,0-1.5c-0.4-2.5-1.1-5-1.2-7.5c-0.2-6.1-0.3-12.1-0.2-18.2
		c0.1-4,1.1-7.9,1.1-11.9c0-6.9-0.6-13.9-0.7-20.8c-0.1-4.5,0.4-9,0.3-13.6c0-2.4-0.9-4.8-1-7.2c-0.2-5.1,1.8-10.1,0.4-15.3
		c-0.1-0.4,0-0.8,0-1.2c0.3-2.6,0.7-5.2,0.8-7.8c0.3-8.1,0.5-16.1,0.7-24.2c0-1,0.1-2,0.1-2.9c-0.2-3.5-0.5-7-0.6-10.5
		C322.2,832.7,322.3,828.5,322.3,824.1z M182.3,817.3c-0.7,6.8-1.4,12.6-1.9,18.5c-1,11.2-1.9,22.3-3,33.5c-0.6,6-1.7,12-2.2,18.1
		c-0.5,6.2-0.2,12.5-0.7,18.8c-0.6,7.6-1.6,15.2-2.4,22.8c-0.7,7-1.3,14.1-2,21.1c-0.9,9.5-1.7,19-2.7,28.4
		c-0.2,2.2-0.5,4.6-1.7,6.4c-2.3,3.6-5.4,6.8-7.9,10.3c-0.8,1.2-1.4,3.3-0.9,4.5c0.9,2,2.7,3.5,5.5,3.2c9.5-1.1,19-1.8,28.4-3.1
		c4.2-0.6,8.4-2,12.5-3.3c3.3-1,6.4-2.7,9.7-3.3c4.2-0.7,6.5-3.1,8.1-6.7c0.6-1.5,1.8-2.9,1.9-4.4c0.3-5.5,0.1-11,0.4-16.5
		c0.1-1.6,1.2-3.1,1.4-4.7c0.9-9,0.4-18.1,2.1-27.2c1.9-10,1.7-20.4,2.7-30.5c0.3-3.3,1.5-6.4,2-9.7c0.2-1.5-0.5-3.1-0.3-4.6
		c0.7-5,1.8-10,2.3-15c0.7-7.8,1.1-15.7,1.5-23.6c0-1-0.9-2.4-1.7-2.9c-5.2-2.9-10.4-5.5-15.7-8.2c-4.7-2.5-9.2-5.4-14.1-7.3
		c-5.5-2.2-10.3-5.3-14.7-9.1C186.9,820.9,184.8,819.3,182.3,817.3z M254.1,848c3.5-0.2,7-0.3,10.5-0.8c5.8-0.7,11-3.2,16.3-5.6
		c7.9-3.6,15.7-7,22.9-11.9c5.6-3.8,11.2-7.6,17.1-10.9c2.7-1.5,3.7-3.5,3.9-6.3c0.2-3.6,0.5-7.2,0.9-10.8c0.3-3.1-0.8-4.4-3.9-4.4
		c-8.7,0-17.5,0-26.2,0c-3.3,0-6.7,0.1-10-0.1c-9.6-0.5-19.2-1.3-28.8-1.7c-11.9-0.4-23.9-0.6-35.7-2.7c-4-0.7-8.2-0.9-12.3-1.3
		c-5-0.4-10-1.4-15-0.9c-4.8,0.4-9.3,0.3-13.9-1.1c-1.9-0.6-3.2-0.1-3.2,2.4c0,2-0.5,4.1-0.5,6.1c0,4.6-0.2,9.2,4.3,12.4
		c3.3,2.3,6,5.3,9.3,7.6c6,4.2,11.9,8.5,18.3,12.1c7,4.1,14.2,7.9,21.6,11C237.5,844.6,245,849.6,254.1,848z M579.2,650.4
		c0.2-0.2,0.4-0.4,0.6-0.6c-0.4-4.7-0.5-9.4-1.1-14c-1-7.1-2.1-14.1-3.5-21.1c-1.4-6.6-2.8-13.2-5-19.5c-1.4-4-1.8-8.6-5.3-11.9
		c-1.5-1.4-2.1-3.6-3.2-5.4c-0.4-0.6-1.1-1.1-1.6-1.7c-1-1-2.2-2-3.1-3c-1.5-1.7-2.7-3.8-4.4-5.2c-2.5-2.1-5.4-3.6-8-5.5
		c-1.4-1-2.7-2.8-4.2-3.1c-6.7-1.3-13.4-2.6-20.2-2.9c-3.8-0.1-7.7,1.8-11.4,2.9c-0.5,0.1-0.9,1.1-1,1.8c-0.2,4.9-2.4,8.1-7.2,9.1
		c-5.6,1.1-11.4,1.6-17.1,2.4c-1.1,0.1-2.4-0.1-3.1,0.4c-2.8,2.2-5.9,4.2-7.8,7c-5.4,7.9-10.5,16-15.1,24.4
		c-2.9,5.3-4.6,11.2-7.3,17.7c31.2-7,60.9-2.8,90.7,5c0.3-0.6,0.7-1.3,1.1-2.1c2.4-4.7,5.2-9.1,9.4-12.6c5.5-4.6,12.3-3.8,17,0.1
		c6.9,5.7,9.4,15.7,5,25.1c-1.6,3.4-1.9,6,1.2,8.5C576,647.6,577.6,649.1,579.2,650.4z M521.6,677.9c1.9-4.8,3.9-9.7,5.8-14.7
		c3.1-8,6.1-16,9.1-24c1.1-3,0.8-4.1-2.4-5c-3.9-1.2-8-1.8-12.1-2.6c-6-1.2-12.1-2.3-18.1-3.5c-2.2-0.4-4.3-2.2-6.7-0.9
		c-0.2,0.1-0.7-0.4-1-0.5c-2.5-0.6-5-1.4-7.5-1.6c-2.9-0.2-5.9,0.1-8.8,0.2c-4.6,0.2-9.2,0.5-13.8,0.8c-0.3,0-0.6,0.1-0.9,0.2
		c-4.3,1-8.5,2-12.7,3.2c-2.1,0.6-5,0.4-5.7,3.3c-2.4,10.4-4.7,20.8-7.1,31.2c-0.6,2.5-1,5.1-1.6,7.7c-0.6,2.7-1.4,5.3-1.8,8
		c-0.1,0.7,0.3,1.9,0.8,2.2c4.9,3.2,9.8,6.6,15,9.1c4.4,2.2,9.4,3.4,14.1,5c4.6,1.6,9.2,3.2,13.8,4.7c1.7,0.6,3.3,0.4,4.1-1.7
		c1-2.6,2-5.1,2.9-7.6c3-8.4,14.7-17.7,23.9-15.9C514.4,676.3,517.9,677.1,521.6,677.9z M508,706c9.6-0.7,18.6-1.1,27.3-3.9
		c1.8-0.6,2.3-1.2,0.8-2.8c-0.7-0.7-0.7-2-1-3c1.3,0,2.6-0.3,3.8,0c0.9,0.3,1.5,1.5,2.3,2.2c0.7,0.6,1.6,1.5,2.4,1.4
		c2.8-0.3,5.6-0.9,8.4-1.5c0.6-0.1,1.4-0.9,1.5-1.5c0.1-0.5-0.7-1.3-1.3-1.6c-3-1.9-6-3.7-9-5.4c-2.2-1.2-3-2.8-1.9-5.1
		c2.1-4.4,4.2-8.9,6.5-13.2c6.9-12.9,14-25.7,21-38.5c3.6-6.7,3.3-8.4-2.5-13.7c-0.5-0.5-1.1-0.9-1.6-1.3c-3.8-3.2-7.9-2.7-10.8,1.2
		c-4.3,6-8.2,12.2-10.6,19.3c-2.5,7.3-5.4,14.5-8,21.7c-0.9,2.4-1.3,4.9-2.1,7.3c-1.6,5.2-3.3,10.4-5,15.6c-0.2,0.6-1.3,1.5-1.8,1.4
		c-2.9-0.9-5.8-1.9-8.5-3.2c-9.6-4.4-20.4,0.5-24.4,9.7c-1.2,2.8-2.2,5.6-3.3,8.5c-1.1,3-0.8,3.7,2.3,4.2
		C497.9,704.7,503.3,705.4,508,706z M561.5,694.2c0.6-0.1,1.1-0.1,1.4-0.3c4.6-2.6,8.8-6.1,13.7-8.2c0.2-0.1,0.3-0.3,0.4-0.4
		c3-3.7,5.9-7.4,8.8-11.1c0.3-0.3,0.5-1,0.3-1.3c-2.3-3.5-4.2-7.3-7-10.4c-2.9-3.2-6.7-5.8-10-8.7c-2.7-2.4-3.5-2.5-5.3,0.8
		c-4.1,7.2-7.9,14.6-11.8,21.9c-1.1,2.2-2.1,4.4-3.1,6.6c-0.7,1.4-0.7,2.5,0.8,3.5c3.4,2.3,6.7,4.7,10.1,6.9
		C560.4,693.9,561.1,694.1,561.5,694.2z M438.1,634.8c-3.4,1.9-6.1,3.4-8.7,5c-4.5,2.6-8.9,5.3-13.4,7.9c-0.2,0.1-0.4,0.4-0.6,0.7
		c-2.6,3.4-1.5,12.2,1.6,15.1c3,2.7,5.7,5.7,8.6,8.6c1.3,1.2,2.7,2.3,4,3.4C432.6,661.8,435.2,648.7,438.1,634.8z M487.6,566.3
		c3.5,2.4,11.2,1.9,14.5-0.7c0.8-0.6,1.1-1.7,1.6-2.5c-0.9-0.5-1.7-1.3-2.6-1.6C495.4,559.5,492.2,564.3,487.6,566.3z"/>
	<path class="st0" d="M391.6,476.4c-1.6,5.8,0.3,11.9-1,18.2c-1.5,7.2-1.9,14.6-3.6,21.8c-1.5,6.2-1.8,12.8-3.8,18.8
		c-1.9,5.8-5.1,11.2-7.8,16.7c-2.3,4.5-4.5,9.1-7.1,13.4c-1.9,3.2-4.3,6.1-6.8,8.9c-2.8,3.2-5.9,6.3-8.9,9.3
		c-1.1,1.1-2.4,1.9-3.7,2.8c-2.2,1.4-4.6,2.4-6.5,4c-6.8,5.7-14.7,8.7-23.2,10.8c-1.5,0.4-3.1,0.9-4.4,1.7
		c-8.2,5.2-17.4,6.6-26.7,7.5c-6.3,0.7-12.7,0.8-19,1.4c-1.1,0.1-2.2,0.9-3.3,1.3c-0.5,0.2-1,0.5-1.6,0.5c-1.3-0.1-2.6-0.7-3.8-0.4
		c-7.6,1.6-14.4-2.9-21.8-2.7c-3.1,0.1-6.3-1.4-9.2-2.6c-7.3-2.8-14.5-5.9-21.8-8.7c-1.6-0.6-3.5-0.6-5.2-0.5c-4.1,0.3-7.1-1.3-10-4
		c-4.4-4-9.4-7.3-13.9-11.3c-3.8-3.4-7-7.5-10.9-10.7c-5.6-4.8-9.8-10.8-14.9-16c-3-3.1-3.8-7.2-6.4-10.4c-5.8-6.9-5.7-16.3-10-24
		c-2-3.6-2.6-8.1-3.8-12.2c-0.1-0.5-0.1-1-0.3-1.4c-3.9-7.5-3.7-15.8-4.8-23.9c-0.7-5.1-2.3-10-3.1-15c-0.5-3.5-0.1-7.1-0.1-10.7
		c0-1,0.3-1.9,0.1-2.9c-0.6-4.6,0.1-9,1.1-13.5c0.6-2.8,0.7-5.8,0.6-8.7c-0.1-4.1-1-8.3-0.8-12.4c0.3-5,1-10,2.3-14.9
		c0.5-2.1,3.1-3.6,4.3-5.7c1.5-2.5,2.3-5.4,3.7-8c1.4-2.5,3-4.8,4.7-7c1.1-1.6,2-3,0.3-4.7c-0.4-0.4-0.7-1.1-0.6-1.6
		c0.8-3.6-1.3-5.9-3.3-8.4c-4-5.3-7.9-10.7-11.9-16c-3.1-4.2-6.3-8.4-9.3-12.8c-3.5-5.1-6.8-10.4-10.2-15.6c-3.4-5-7-9.9-10.3-14.9
		c-1.8-2.7-3.3-5.5-4.9-8.3c-2.5-4.3-4.9-8.5-7.4-12.8c-1.4-2.5-2.6-5-4-7.5c-2-3.4-4.2-6.7-6.2-10c-2-3.2-3.8-6.5-5.8-9.8
		c-1.5-2.4-3-4.8-4.5-7.2c-2.2-3.3-4.6-6.5-6.6-9.9c-1.9-3.3-3.5-6.7-5.3-10.1c-3.5-6.7-8-12.9-10.3-20.4
		c-1.9-6.1-4.6-11.9-7.1-17.9c-2.2-5.3-4.6-10.5-6.7-15.9c-0.6-1.6-0.1-3.7-0.7-5.3c-2.3-5.9-4.9-11.8-7.4-17.6
		c-0.4-1-0.6-2.1-0.8-3.1c-0.1-0.6-0.1-1.2-0.2-1.7c-1.1-5.5-3.7-10.6-3.5-16.5c0.1-4.4-2.1-8.7-2.8-13.2c-0.7-4.5-0.9-9.2-1.1-13.8
		c-0.2-5.3-0.1-10.6,0.1-15.8c0.1-2.7,0.7-5.4,1-8.1c0.5-3.8,0.5-7.8,1.3-11.5c0.8-3.8-0.1-8.2,4.7-10.7c3.3-1.7,2.3-5.7,2.9-8.8
		c0.8-4.2,1.6-8.4,3.1-12.3c1.5-3.8,3.8-7.3,5.9-10.8c0.5-0.9,1.7-1.5,2.7-2c2.9-1.2,5.7-2.2,7.3-5.4c1.2-2.6,4.2-1.9,6.4-1.4
		c6.3,1.4,12.6,2.8,18.7,4.7c4.8,1.5,9.3,4.6,14.2,5.6c7.9,1.5,13.5,6.6,19.5,11c3,2.2,5.1,5.7,7.1,8.9c6.3,10,12.4,20.2,18.3,30.4
		c3.3,5.7,6.4,11.6,9.2,17.6c2.5,5.3,4.7,10.7,6.8,16.2c2.8,7.6,4.7,15.6,8.2,22.9c4.2,8.9,6.2,18.4,9,27.7
		c3.1,10.4,5.6,21,8.2,31.5c1.2,4.8,2,9.7,3,14.6c1.3,6.1,2.6,12.2,3.8,18.3c1.2,5.9,3.2,11.8,3.4,17.8c0.2,6.2,2.7,11.8,3.2,17.8
		c0.5,6.9,1.5,13.7,3.1,20.4c0.9,3.9,0.2,8.3,0.3,12.4c0.1,2.3,0.5,4.6,0.8,6.9c0.5,3.4,1.2,6.8,1.7,10.3c0.2,1.7,0.1,3.5,0.3,5.2
		c0.8,8,1.8,16,2.6,24c0.1,1.3-0.5,2.7-0.5,4c0,0.8,0.5,1.6,0.9,2.3c0.8-0.4,1.7-0.8,2.4-1.3c0.4-0.3,0.5-1,0.6-1.6
		c1-4.8,1.1-5,6.1-5.5c3-0.3,5.2-1.6,7.6-3.4c2.9-2.2,6.3-3.9,9.7-5.3c9.5-3.9,19.7-5.2,29.8-6.7c6.7-1,13.3-0.3,19.7,1.9
		c1.3,0.4,2.7,0.5,4,0.4c0.9-0.1,1.7-0.9,2.6-1.3c-0.8-0.6-1.6-1.5-2.5-1.7c-5.8-1.1-11.6-2.1-17.4-2.9c-1.8-0.3-2.7-0.9-3.3-2.7
		c-1.6-4.5-4-8.7-5.1-13.3c-1.3-5.4-3.7-10.1-6.1-15.1c-2.1-4.5-3.4-9.3-5-14c-2.9-8.6-5.8-17.2-8.7-25.8
		c-1.7-5.2-3.6-10.3-4.9-15.6c-1-3.9-1.2-8.1-2.2-12c-1.1-4.4-2.6-8.8-4-13.1c-0.6-1.8-2-3.4-2.4-5.3c-0.6-2.6-0.6-5.4-1.1-8
		c-1.3-7-2.9-14-4-21c-1.3-7.8-2.2-15.6-3.4-23.4c-0.6-4.1-1.8-8.1-2.4-12.2c-0.4-2.9-0.4-6-0.5-9c-0.2-3.6-0.5-7.2-0.7-10.8
		c-0.1-2.1-0.2-4.3-0.3-6.4c-0.4-4.5-1-9-1.3-13.6c-0.2-4.1-0.3-8.3-0.2-12.5c0.1-4.2,0.2-8.4,0.6-12.6c0.4-5.4,1-10.8,1.7-16.1
		c0.1-1,0.8-2.2,1.7-2.6c2-1.1,2-2.8,2.4-4.7c1-4.8,2.4-9.6,3.5-14.4c0.6-2.5,0.9-5.2,1.7-7.7c1-3.2,2-6.6,3.7-9.4
		c2.1-3.5,4.8-6.7,7.6-9.7c1.1-1.2,3-1.6,4.6-2.2c1.1-0.4,2.3-0.5,3.5-0.7c7.1-1.6,14-3.7,21.5-1.9c7.4,1.7,14.8,3,21.6,6.6
		c8.4,4.4,15.2,10.8,21.3,17.9c2.8,3.3,5.2,6.9,7.4,10.6c1.2,2,1.3,4.7,2.1,7c1.4,4,2.8,7.9,4.4,11.8c1.3,3.2,3,6.3,4.4,9.5
		c0.7,1.6,1.5,3.2,2,4.9c2.8,9.7,5.9,19.4,8.3,29.2c2,8,3.2,16.2,4.8,24.4c0.2,1.2,0.6,2.3,0.8,3.4c1.1,5.9,2.4,11.8,3.4,17.8
		c1,6.3,1.7,12.6,2.5,19c0.2,1.5-0.1,3.1,0,4.6c0.6,5.4,1.4,10.7,2,16.1c0.3,2.5,0.1,5.1,0.1,7.7c0,0.4-0.1,0.8,0,1.2
		c0.5,5.6,1,11.2,1.7,16.8c0.4,3.4,1.5,6.6,1.9,10c1.2,8.8,2,17.5,0.9,26.5c-0.7,5.6-0.2,11.2-0.5,16.9c-0.3,5.3-1.2,10.6-1.4,16
		c-0.2,4.5,0,9.1,0,13.7c-0.2,9.9-0.3,19.9-0.8,29.8c-0.2,5.1,0.3,10.4-2.1,15.2c-0.1,0.3-0.3,0.7-0.2,0.8c1.5,1.7,2.8,3.7,4.7,5
		c0.8,0.6,2.9,0.4,3.8-0.2c1.8-1.2,2.9-0.6,4.1,0.6c3.7,3.7,7.4,7.5,11.1,11.3c0.6,0.6,1.3,1.1,2,1.8c2.4,2.4,5.3,4.5,7,7.3
		c3.4,5.6,6.2,11.5,9,17.5c2.3,5.1,4.4,10.4,6.3,15.7c1.6,4.7,2.2,9.7,4.3,14.2c2.4,5.1,2.5,10.6,4,15.8c2.7,9.4,3.7,19,4,28.7
		C390.7,469.4,391.2,472.7,391.6,476.4z M308.9,538.4c-0.2,1.2-0.4,2.2-0.5,3.3c-0.1,3.5-0.1,7-0.3,10.4c0,0.6-0.7,1.6-1.2,1.7
		c-4,0.8-8,1.8-12.1,2.2c-7.4,0.7-14.7,0-22-1c-5-0.7-10.2-0.4-15.2-1.2c-3.7-0.6-7.3-0.8-11-0.1c-6.3,1.2-12.8,0.5-18.9,3.7
		c-3.6,1.9-6.3,4.2-7.9,7.8c-0.9,2-1.5,4,0.1,6.1c1,1.4,1.7,3.1,2.3,4.7c1.4,3.9,4.6,6.1,7.9,7.8c3.1,1.6,6.6,2.3,9.8,3.8
		c4.3,2,8.5,4.2,13.5,4.4c8.9,0.3,17.8,1.2,26.7,1.4c3.1,0.1,6.3-1.1,9.4-1.8c6.3-1.4,12.7-2.6,18.9-4.2c5.4-1.4,10.6-3.4,15.9-5.2
		c1.9-0.7,4.2-1,5.7-2.2c6.4-5.3,15.4-6.9,20.1-14.5c0.1-0.2,0.5-0.4,0.7-0.5c2.8-1.4,4.2-3.7,4.9-6.6c0.4-1.7,0.7-3.5,1.3-5.2
		c1.3-4.3-1-9.1-5.2-10.4c-0.7-0.2-1.4-0.8-2.2-0.9c-2.5-0.4-5.4-1.6-7.6-0.9c-6.9,2.1-13.6,5-20.3,7.6c-3,1.2-5.9,2.7-8.8,3.9
		c-1.6,0.7-2.5,0-2.4-1.8c0.1-2.7,0.1-5.4,0.4-8.2c0.3-2.6,0.5-5.9,3.7-6.4c5-0.7,9-3.5,13.1-5.9c2.4-1.4,4.2-4.5,5.5-7.2
		c1.5-3.2,0.5-6.7-1.1-9.6c-1.4-2.5-1.6-6-4.9-7.4c-2-0.9-3.7-2.3-5.6-3.1c-1.2-0.5-2.7-0.1-4-0.1c0.7,1,1.3,2,2.1,2.8
		c0.4,0.5,1.1,1,1.7,1.1c4,0.3,5.1,3.1,6.5,6.2c2.6,5.9,0.9,12.9-4.6,16c-7.4,4.2-15.4,6.4-23.7,7.5c-1.2,0.2-2.8,0.1-3.7-0.5
		c-3-2.2-5.9-4.7-8.8-7c-1.1-0.9-2.2-2-3.5-2.5c-0.7-0.3-1.9,0.3-2.6,0.7c-0.3,0.2-0.4,1.3-0.2,1.8c2.3,6.6,9.1,12.9,17.6,11.2
		C301.7,539.6,305.2,539.1,308.9,538.4z M209.1,414.4c-0.2,0-0.4,0-0.6,0c-6.1-0.1-11.9,1.2-17.2,4.1c-0.8,0.4-1.4,1.3-2.1,2
		c-1.2,1.2-2.1,2.9-3.5,3.6c-2.7,1.4-3.9,3.6-5.1,6.2c-1.8,4.1-3.5,8.4-6.1,11.9c-4,5.3-4.8,10.8-3.9,17c0.2,1.7-0.1,3.4-0.1,5.2
		c-0.1,2.6-0.8,5.3-0.3,7.8c0.9,4,2.4,7.8,4.1,11.5c2.4,5.2,5.6,10.1,7.9,15.3c3.5,8.2,10.3,12,18,14.6c3.4,1.2,7,1.9,10.5,2.7
		c7.2,1.7,14.5,3.6,22,2c3.7-0.8,7.5-1.3,11.2-2.4c4.6-1.3,9.1-2.9,13.6-4.5c1-0.3,1.7-1.3,2.5-2c1.4-1.2,2.6-2.7,4.2-3.7
		c7.3-5,10.3-12.7,11.1-20.8c0.4-4.1-0.9-8.7-1.6-13c-0.9-4.7-3.4-9.2-5-13.8c-2.2-6.2-4.6-12.2-8.9-17.3c-0.8-1-2-1.8-2.5-2.9
		c-2.4-5.5-7.4-8.2-11.8-11.6c-1.9-1.5-4.1-2.7-6.3-3.6c-3.8-1.6-7.8-2.7-11.5-4.4C221.7,415.8,215.6,414.2,209.1,414.4z
		 M340.3,501.2c1-0.1,2-0.2,2.9-0.5c4.8-1.4,9.6-2.9,14.4-4.3c10.5-3.1,15.9-11.2,20.4-20.3c0.9-1.8,2.2-3.6,2.6-5.5
		c0.9-3.9,1.7-7.9,1.8-11.8c0.3-7.3,0.5-14.6-0.2-21.8c-0.5-5.2-2-10.4-3.8-15.3c-4.2-12.1-12.6-19.7-25.3-22.2
		c-1.6-0.3-3.5-0.9-4.9-0.4c-4.8,1.5-9.6,3-14,5.2c-3.2,1.6-5.8,4.5-8.9,6.6c-5.3,3.6-8.1,9-10.9,14.3c-2,3.9-2.8,8.4-3.7,12.7
		c-0.9,4.4-0.6,9-1.8,13.3c-1.4,5.3-1.8,10.4-0.9,15.7c0.9,5.3,0.7,10.9,3.4,15.8c0.5,0.9,0.9,2,1.5,2.8c2.3,3.2,4,7.4,7.1,9.3
		C326.1,498.4,332.7,501.6,340.3,501.2z"/>
	<path class="st0" d="M516.7,537.1c-1.1-0.7-2.2-1.7-3.5-2.2c-1.1-0.5-2.5-0.5-3.7-0.7c0.4,1.2,0.4,2.6,1.1,3.5
		c3.3,3.7,4.3,7.9,3.6,12.6c-0.5,3.5-2.8,5-6.1,4.2c1.2-4.2-0.7-7.8-2.4-11.4c-1.1-2.3-2.9-3.8-5.5-3.9c-0.6,0-1.5,0.3-1.8,0.7
		c-0.2,0.3,0.2,1.3,0.6,1.7c2.4,2.7,4.3,5.7,4.1,9.5c-0.1,2.6-2.1,5.2-4.4,5.7c-2.6,0.5-4.3-1.1-5.7-2.9c-0.5-0.7-0.7-2-0.3-2.7
		c1.2-2,0.2-2.9-1.3-3.8c-0.7-0.4-1.4-0.9-2.1-1.1c-1-0.2-2.1,0-3.1,0.1c0.4,1,0.5,2.3,1.2,2.9c2.4,1.8,2.3,3.6,0.3,5.8
		c0.6,0.8,1.1,1.6,1.8,2.7c-8.5,5.2-15.4,12.7-25.7,14.9c-5.7,1.2-11.1,3.9-16.7,5.9c-6.7,2.4-13.4,4.5-20,7.1
		c-19.1,7.4-38.2,15.1-57.3,22.5c-10,3.9-20,7.7-30.1,11.5c-0.7,0.3-1.5,0.4-2.1,0.6c-0.3-0.2-0.5-0.3-0.6-0.5c-1-1-1.9-2.1-2.9-3.1
		c-1,1.6-2.8,3.1-2.8,4.7c-0.2,6.2,0.3,12.4,0.3,18.6c0,9.1-0.1,18.3-0.2,27.4c0,4.6,0,9.2-0.1,13.8c-0.1,3.1-0.4,6.2-0.5,9.3
		c-0.8,15.6-1.7,31.2-2.3,46.8c-0.4,10.8-0.5,21.6-0.9,32.4c-0.2,5.4-0.5,10.8-0.7,16.2c0,0.8,0,1.6,0.1,2.4
		c0.5,5.5,0.4,5.6-5.2,5.5c-7.4-0.2-14.7-0.3-22.1-0.5c-11.8-0.3-23.6-0.5-35.4-1c-14.9-0.6-29.9-1.3-44.8-2.4
		c-9.6-0.7-19.1-2.1-28.7-3.3c-1.2-0.1-2.3-0.7-3.4-0.8c-3.9-0.6-3.9-1-3.3-4.7c0.7-4.4,0.6-9,1-13.5c0.8-12.1,1.8-24.3,2.6-36.4
		c0.5-8,0.6-16.1,1.3-24.2c0.6-6.8,1.7-13.6,2.8-20.3c0.9-5.5,2.1-10.9,3.2-16.3c0.7-3.3,1.2-6.8,2.1-10c0.5-1.7,1.9-3.2,2.6-5.4
		c-0.7,0.3-1.6,0.3-2.1,0.8c-4.2,3.8-8.4,7.7-12.5,11.5c-2.5,2.3-4.9,4.5-7.4,6.8c-1.3,1.3-2.7,2.5-3.9,4c-5,6-10,12-14.9,18.1
		c-7.7,9.8-15.5,19.5-22.9,29.5c-5,6.7-9.6,13.7-14.5,20.5c-1.5,2-3.5,3.6-5.1,5.5c-2.4,3.2-4.5,6.7-7,9.9c-2.5,3.2-5.5,6.1-7.9,9.4
		c-1,1.4-1.3,3.3-1.6,5.1c-0.5,2.7-0.7,5.4-1.2,8.1c-0.5,2.5-2.6,3.5-4.4,2.1c-4.6-3.4-8.6-3-12.7,0.5c-0.6,0.5-1.7,0.5-2.6,0.7
		c0.2-1.1,0.3-2.2,0.6-3.2c0.2-0.6,0.7-1.2,1.3-2.1c-2.4-1.2-3.7-4.1-7.1-3.1c-0.5,0.1-2.1-1.5-2-2.2c0.4-3.9-2.7-4.7-5.1-5.3
		c-2.5-0.7-3.1-2.2-2.8-4.1c0.4-2.3,0.9-4.7,2.1-6.6c2.6-4.1,5.8-7.9,8.6-11.9c4.5-6.5,8.8-13.2,13.4-19.6c4-5.6,8.3-11.2,12.6-16.6
		c6-7.4,12.3-14.7,18.5-22c2.3-2.7,5-5.3,7.3-8c3.5-4.2,6.5-8.8,10.3-12.8c5.2-5.4,10.9-10.4,16.3-15.6c1.8-1.8,3.4-3.9,5.2-5.7
		c3.3-3.4,6.6-6.7,10-9.9c1.3-1.2,3-1.8,4.4-2.9c2.7-2.2,5.1-5,8-6.9c5-3.3,10.2-6.1,15.4-9.1c4.4-2.6,8.7-5.3,13.2-7.5
		c1.4-0.7,4.1-0.5,5.3,0.4c2.9,2.2,6.1,2.6,9.4,3c3.6,0.5,7.3-0.2,10.6,1.9c0.8,0.5,2.1,0.1,3.2,0.2c3.3,0.1,6.7,0.2,10,0.2
		c5.3,0,10.6,0.2,15.8-0.1c8.5-0.5,17.1-1,25.5-2.1c6.1-0.7,12.3-1.7,18.2-3.6c6.3-2.1,12.1-5.5,18.2-8.1c2.4-1,5.1-1.4,7.6-2.3
		c6-2.2,11.7-4.9,16.1-9.9c0.9-1,2.3-1.5,3.5-2.2c6.4-3.5,10.1-9.7,15-14.5c1.2-1.2,2.5-2.7,4-3.3c9.7-3.9,19.5-7.4,29.1-11.4
		c6.3-2.6,12.4-5.9,18.7-8.7c7.2-3.2,14.4-6.2,21.7-9.2c8.1-3.2,16.2-6.6,24.6-9.3c5.6-1.8,11.5-2.8,17.3-3.7
		c5.4-0.8,10.9-1.2,16.4-1.5C506.7,527.6,512.2,531.5,516.7,537.1L516.7,537.1z"/>
	<path class="st0" d="M412.4,669.5c2,2.2,3.7,3.9,5.1,5.8c6.2,8.2,14.7,13.5,23.1,18.9c2.1,1.4,4.2,3,6.3,4.3
		c1.5,0.9,3.1,1.6,4.7,2.2c6.1,2.3,12.4,4.2,18.4,6.8c8.8,3.8,18,4.2,27.3,4.9c3.2,0.3,6.4,0.6,9.5,0.7c4.5,0.1,9.2,0.9,13.4-0.2
		c4.8-1.2,9.5-0.6,14.3-1.1c4.4-0.5,8.6-2.1,12.9-3.2c3.4-0.8,7-1.3,10.2-2.5c6.1-2.3,12.2-4.8,18.2-7.5c1.8-0.8,3.3-2.1,4.9-3.2
		c0.4-0.3,1-0.3,1.9-0.6c-1.8,8.1-3.4,15.9-5.3,23.6c-2.1,8.7-4.7,17.4-6.8,26.1c-1.2,4.8-1.5,9.9-2.8,14.7
		c-2.2,8.6-4.9,17-7.3,25.5c-2.8,10-5.6,20-8.2,30c-1.5,5.5-2.5,11.1-4.1,16.5c-1.8,6-5.4,10.7-10.6,14.5
		c-5.6,4.1-11.7,7.2-17.9,9.9c-5.7,2.6-12,3.3-18.4,4.1c-7.6,0.9-15.1-0.2-22.6,0.3c-1.4,0.1-2.7-0.1-4.1-0.3
		c-3.1-0.4-6.1-1.1-9.2-1.2c-3.4-0.1-6.5-0.8-9.6-2.4c-4.9-2.5-10.3-4.2-15.3-6.6c-4.4-2.1-8.6-4.6-13-6.9
		c-7.9-4.1-14.2-10.1-19.7-16.9c-0.4-0.5-0.7-1.2-0.7-1.9c0-8.3-0.1-16.5,0.1-24.8c0.1-5.3,0.6-10.5,1-15.8
		c0.6-7.6,1.3-15.2,1.7-22.8c0.1-2.6-0.8-5.2-0.8-7.8c0.1-7,0.5-14,0.8-21.1c0.4-9.6,0.9-19.2,1.1-28.8c0.3-10.3,0.4-20.6,0.6-30.9
		C411.8,671.4,412,670.8,412.4,669.5z M439.7,715.2c0.5-6.2-2.9-10.9-7.6-14.7c-3.4-2.7-9.1-3.5-12.7,0.4c-2.7,3-3.3,6.6-3.8,10.3
		c-0.9,6.4,2.9,13,9,15.3c2.2,0.9,5.1,1.9,7,1.1C436.1,725.7,440.6,722.6,439.7,715.2z"/>
	<path class="st0" d="M322.3,824.1c0,4.5-0.1,8.6,0,12.8c0.1,3.5,0.4,7,0.6,10.5c0,1,0,2-0.1,2.9c-0.2,8.1-0.4,16.1-0.7,24.2
		c-0.1,2.6-0.5,5.2-0.8,7.8c0,0.4-0.1,0.8,0,1.2c1.4,5.1-0.6,10.2-0.4,15.3c0.1,2.4,0.9,4.8,1,7.2c0.1,4.5-0.4,9-0.3,13.6
		c0.1,6.9,0.7,13.9,0.7,20.8c0,4-1,7.9-1.1,11.9c-0.2,6.1-0.1,12.1,0.2,18.2c0.1,2.5,0.8,5,1.2,7.5c0.1,0.5,0.1,1,0,1.5
		c-1.5,4.8-0.3,8.1,4.1,11.2c4.1,2.8,2.3,9.1-2.6,9.5c-9.1,0.7-18.3,0.9-27.4,0.6c-6.4-0.3-12.8-1.7-19.1-2.9c-5-1-9.8-2.5-12.5-7.3
		c-0.5-0.9-0.8-2-0.9-3c-0.3-5.5-0.5-11-0.6-16.5c0-1.6,0.7-3.3,1-5c0.2-0.9,0.2-1.7,0.3-2.6c0.3-3.1,0.6-6.2,0.8-9.2
		c0.1-1.4,0.2-3.1-0.3-4.3c-1.6-3.9-2.2-7.6-0.5-11.8c1-2.6,0.1-6,0-9c-0.4-11.1-0.6-22.2-1.2-33.3c-0.3-5-1.6-10-1.9-15
		c-0.3-5.4,0-10.9,0.2-16.4c0.1-3.4,0.6-6.8,0.8-10.3c0.1-1.9,0.7-2.5,2.6-3.1c6.3-1.9,12.8-3.4,18.6-6.9c7.1-4.2,14.7-7.6,22-11.4
		C311.1,829.9,316.3,827.2,322.3,824.1z"/>
	<path class="st0" d="M182.3,817.3c2.5,2,4.7,3.6,6.7,5.4c4.4,3.9,9.2,6.9,14.7,9.1c4.9,2,9.4,4.9,14.1,7.3
		c5.2,2.7,10.5,5.4,15.7,8.2c0.9,0.5,1.8,1.9,1.7,2.9c-0.3,7.9-0.7,15.7-1.5,23.6c-0.5,5-1.6,10-2.3,15c-0.2,1.5,0.6,3.1,0.3,4.6
		c-0.5,3.3-1.6,6.4-2,9.7c-1,10.2-0.8,20.5-2.7,30.5c-1.7,9.1-1.2,18.1-2.1,27.2c-0.2,1.6-1.3,3.1-1.4,4.7c-0.3,5.5-0.1,11-0.4,16.5
		c-0.1,1.5-1.3,2.9-1.9,4.4c-1.5,3.7-3.9,6-8.1,6.7c-3.3,0.6-6.4,2.3-9.7,3.3c-4.1,1.2-8.3,2.7-12.5,3.3c-9.4,1.3-19,2-28.4,3.1
		c-2.7,0.3-4.5-1.1-5.5-3.2c-0.5-1.2,0-3.3,0.9-4.5c2.5-3.5,5.5-6.7,7.9-10.3c1.1-1.8,1.5-4.2,1.7-6.4c1-9.5,1.8-18.9,2.7-28.4
		c0.7-7,1.3-14.1,2-21.1c0.8-7.6,1.8-15.2,2.4-22.8c0.5-6.2,0.2-12.5,0.7-18.8c0.5-6.1,1.6-12.1,2.2-18.1c1.1-11.2,2-22.3,3-33.5
		C180.9,829.9,181.6,824,182.3,817.3z"/>
	<path class="st0" d="M254.1,848c-9.2,1.6-16.6-3.4-24.4-6.6c-7.5-3.1-14.6-7-21.6-11c-6.3-3.7-12.3-7.9-18.3-12.1
		c-3.3-2.3-6-5.3-9.3-7.6c-4.5-3.2-4.4-7.8-4.3-12.4c0-2,0.5-4.1,0.5-6.1c0-2.5,1.3-3,3.2-2.4c4.6,1.3,9.1,1.5,13.9,1.1
		c4.9-0.4,10,0.5,15,0.9c4.1,0.4,8.2,0.6,12.3,1.3c11.8,2.1,23.8,2.3,35.7,2.7c9.6,0.3,19.2,1.2,28.8,1.7c3.3,0.2,6.7,0.1,10,0.1
		c8.7,0,17.5,0,26.2,0c3.1,0,4.2,1.3,3.9,4.4c-0.3,3.6-0.6,7.2-0.9,10.8c-0.2,2.8-1.2,4.8-3.9,6.3c-5.9,3.3-11.5,7.1-17.1,10.9
		c-7.2,4.9-15,8.3-22.9,11.9c-5.3,2.4-10.5,4.8-16.3,5.6C261.2,847.6,257.6,847.7,254.1,848z"/>
	<path class="st0" d="M521.6,677.9c-3.7-0.8-7.2-1.7-10.7-2.4c-9.1-1.9-20.9,7.4-23.9,15.9c-0.9,2.6-2,5.1-2.9,7.6
		c-0.8,2.1-2.3,2.2-4.1,1.7c-4.6-1.5-9.2-3.1-13.8-4.7c-4.7-1.6-9.6-2.8-14.1-5c-5.2-2.6-10.1-6-15-9.1c-0.6-0.4-1-1.5-0.8-2.2
		c0.5-2.7,1.2-5.3,1.8-8c0.6-2.5,1-5.1,1.6-7.7c2.3-10.4,4.6-20.8,7.1-31.2c0.7-2.9,3.6-2.7,5.7-3.3c4.2-1.2,8.5-2.1,12.7-3.2
		c0.3-0.1,0.6-0.2,0.9-0.2c4.6-0.3,9.2-0.5,13.8-0.8c2.9-0.1,5.9-0.5,8.8-0.2c2.5,0.2,5,1.1,7.5,1.6c0.4,0.1,0.8,0.6,1,0.5
		c2.5-1.3,4.5,0.4,6.7,0.9c6,1.1,12.1,2.3,18.1,3.5c4,0.8,8.1,1.5,12.1,2.6c3.2,0.9,3.5,2.1,2.4,5c-3,8-6.1,16-9.1,24
		C525.5,668.2,523.5,673.2,521.6,677.9z"/>
	<path class="st0" d="M508,706c-4.8-0.7-10.1-1.3-15.5-2.1c-3.1-0.5-3.4-1.1-2.3-4.2c1.1-2.8,2.1-5.7,3.3-8.5
		c4-9.2,14.8-14.1,24.4-9.7c2.7,1.3,5.6,2.2,8.5,3.2c0.4,0.1,1.5-0.8,1.8-1.4c1.8-5.2,3.4-10.4,5-15.6c0.8-2.4,1.2-5,2.1-7.3
		c2.6-7.3,5.5-14.4,8-21.7c2.4-7.1,6.2-13.3,10.6-19.3c2.9-4,7-4.5,10.8-1.2c0.5,0.4,1.1,0.9,1.6,1.3c5.8,5.3,6.1,7,2.5,13.7
		c-7,12.9-14,25.7-21,38.5c-2.3,4.3-4.4,8.8-6.5,13.2c-1.1,2.3-0.3,3.8,1.9,5.1c3.1,1.7,6.1,3.6,9,5.4c0.6,0.4,1.4,1.1,1.3,1.6
		c-0.1,0.6-0.9,1.3-1.5,1.5c-2.8,0.6-5.6,1.2-8.4,1.5c-0.8,0.1-1.7-0.8-2.4-1.4c-0.8-0.7-1.4-1.9-2.3-2.2c-1.1-0.4-2.5-0.1-3.8,0
		c0.3,1,0.4,2.3,1,3c1.5,1.6,1.1,2.3-0.8,2.8C526.7,704.9,517.7,705.3,508,706z M554.6,626.2c2.4-0.4,4.2-0.6,5.9-1.1
		c0.5-0.1,1-1.3,0.9-1.8c-0.1-0.5-1.1-1.4-1.5-1.3C557.9,622.5,555.6,622.8,554.6,626.2z"/>
	<path class="st0" d="M561.5,694.2c-0.4-0.2-1.1-0.3-1.7-0.7c-3.4-2.3-6.7-4.7-10.1-6.9c-1.5-1-1.5-2.1-0.8-3.5
		c1.1-2.2,2-4.5,3.1-6.6c3.9-7.3,7.7-14.7,11.8-21.9c1.8-3.2,2.6-3.2,5.3-0.8c3.3,2.9,7,5.4,10,8.7c2.8,3.1,4.7,6.9,7,10.4
		c0.2,0.3,0,1-0.3,1.3c-2.9,3.7-5.9,7.4-8.8,11.1c-0.1,0.2-0.3,0.3-0.4,0.4c-4.9,2.2-9.1,5.6-13.7,8.2
		C562.6,694.1,562.2,694.1,561.5,694.2z"/>
	<path class="st0" d="M438.1,634.8c-2.9,14-5.6,27-8.3,40.5c-1.3-1.1-2.8-2.1-4-3.4c-2.9-2.8-5.6-5.8-8.6-8.6
		c-3.1-2.8-4.2-11.7-1.6-15.1c0.2-0.2,0.3-0.5,0.6-0.7c4.4-2.7,8.9-5.3,13.4-7.9C432,638.2,434.7,636.7,438.1,634.8z"/>
	<path class="st0" d="M487.6,566.3c4.6-2,7.8-6.9,13.6-4.8c0.9,0.3,1.8,1,2.6,1.6c-0.5,0.9-0.9,2-1.6,2.5
		C498.8,568.2,491.1,568.7,487.6,566.3z"/>
	<path class="st0" d="M516.6,537.2c2.8,2.2,3.1,5.3,3.6,8.3c-0.3,0.1-0.5,0.2-0.8,0.3C518.5,542.9,517.6,540,516.6,537.2
		C516.7,537.1,516.6,537.2,516.6,537.2z"/>
	<path d="M308.9,538.4c-3.7,0.7-7.2,1.3-10.6,2c-8.4,1.7-15.3-4.7-17.6-11.2c-0.2-0.5-0.1-1.6,0.2-1.8c0.8-0.5,1.9-1,2.6-0.7
		c1.3,0.5,2.4,1.6,3.5,2.5c2.9,2.3,5.7,4.8,8.8,7c0.9,0.6,2.5,0.7,3.7,0.5c8.3-1.1,16.4-3.3,23.7-7.5c5.5-3.1,7.2-10.1,4.6-16
		c-1.4-3.1-2.5-6-6.5-6.2c-0.6,0-1.3-0.6-1.7-1.1c-0.8-0.9-1.4-1.9-2.1-2.8c1.4,0,2.9-0.4,4,0.1c2,0.8,3.7,2.2,5.6,3.1
		c3.3,1.4,3.4,4.9,4.9,7.4c1.6,2.9,2.6,6.4,1.1,9.6c-1.3,2.7-3,5.7-5.5,7.2c-4.1,2.4-8,5.2-13.1,5.9c-3.2,0.4-3.4,3.7-3.7,6.4
		c-0.3,2.7-0.3,5.4-0.4,8.2c-0.1,1.8,0.8,2.4,2.4,1.8c3-1.3,5.8-2.8,8.8-3.9c6.7-2.7,13.4-5.5,20.3-7.6c2.2-0.7,5.1,0.5,7.6,0.9
		c0.8,0.1,1.4,0.7,2.2,0.9c4.2,1.4,6.5,6.1,5.2,10.4c-0.5,1.7-0.8,3.4-1.3,5.2c-0.7,2.9-2.2,5.3-4.9,6.6c-0.3,0.1-0.6,0.3-0.7,0.5
		c-4.7,7.6-13.7,9.2-20.1,14.5c-1.5,1.2-3.8,1.6-5.7,2.2c-5.3,1.8-10.5,3.7-15.9,5.2c-6.2,1.7-12.6,2.9-18.9,4.2
		c-3.1,0.7-6.3,1.8-9.4,1.8c-8.9-0.2-17.8-1-26.7-1.4c-5-0.2-9.2-2.4-13.5-4.4c-3.2-1.5-6.7-2.2-9.8-3.8c-3.3-1.7-6.5-3.9-7.9-7.8
		c-0.6-1.6-1.3-3.3-2.3-4.7c-1.6-2.1-1-4.1-0.1-6.1c1.7-3.6,4.4-5.9,7.9-7.8c6-3.2,12.6-2.5,18.9-3.7c3.7-0.7,7.3-0.5,11,0.1
		c5,0.8,10.1,0.5,15.2,1.2c7.3,1,14.7,1.7,22,1c4.1-0.4,8.1-1.3,12.1-2.2c0.5-0.1,1.2-1.1,1.2-1.7c0.2-3.5,0.1-7,0.3-10.4
		C308.5,540.6,308.7,539.6,308.9,538.4z M292.3,588.7c0.2-0.4,0.3-0.8,0.5-1.2c-0.8-0.9-1.5-1.9-2.4-2.6
		c-8.3-5.9-17.4-9.5-27.5-10.2c-3.3-0.2-6.5-0.7-9.7-1c-6.8-0.5-13.8,0.5-20.1,3.7c-2.5,1.2-2.7,2.2-0.4,3.7
		c2.5,1.7,5.7,2.6,8.1,4.4c3.8,2.7,8.2,3.1,12.4,4c9.2,2,18.5,2,27.9,1.1C284.9,590.3,288.6,589.4,292.3,588.7z M278.5,559.1
		c0,0,0-0.1,0-0.1c-0.4,0-0.8,0-1.2-0.1c-2-0.5-3,0.4-3.3,2.3c-0.3,2.1,0.5,3.2,2.5,3.5c1.2,0.2,2.3,0.5,3.5,0.4c4-0.3,8-0.9,12.1-1
		c2.8-0.1,2.8-2.2,2.9-3.9c0.2-2.2-1.7-1.8-3-1.7C287.5,558.6,283,558.9,278.5,559.1z M323.8,550.2c-4.9,2.2-9.7,4.2-14.4,6.4
		c-0.4,0.2-0.8,1.1-0.7,1.3c0.3,0.5,1.1,1.1,1.5,1c3.4-0.7,6.9-1.2,10.2-2.4C323.2,555.4,324.5,552.3,323.8,550.2z"/>
	<path d="M209.1,414.4c6.5-0.2,12.6,1.5,18.5,4c3.8,1.6,7.8,2.8,11.5,4.4c2.2,0.9,4.4,2.1,6.3,3.6c4.4,3.4,9.4,6.1,11.8,11.6
		c0.5,1.1,1.6,1.9,2.5,2.9c4.4,5,6.7,11.1,8.9,17.3c1.6,4.6,4.2,9,5,13.8c0.8,4.3,2,9,1.6,13c-0.8,8.1-3.8,15.8-11.1,20.8
		c-1.5,1-2.8,2.5-4.2,3.7c-0.8,0.7-1.6,1.6-2.5,2c-4.5,1.6-9,3.2-13.6,4.5c-3.7,1-7.5,1.6-11.2,2.4c-7.6,1.6-14.8-0.3-22-2
		c-3.5-0.8-7.1-1.5-10.5-2.7c-7.7-2.7-14.6-6.4-18-14.6c-2.2-5.3-5.4-10.1-7.9-15.3c-1.7-3.7-3.2-7.6-4.1-11.5
		c-0.6-2.4,0.2-5.2,0.3-7.8c0.1-1.7,0.4-3.5,0.1-5.2c-0.8-6.2,0-11.8,3.9-17c2.6-3.5,4.3-7.8,6.1-11.9c1.2-2.6,2.4-4.8,5.1-6.2
		c1.4-0.7,2.3-2.4,3.5-3.6c0.7-0.7,1.2-1.5,2.1-2c5.4-2.9,11.1-4.2,17.2-4.1C208.7,414.4,208.9,414.4,209.1,414.4z M265.5,456.3
		c-1.9,1.7-3,2.9-4.3,3.9c-2.1,1.7-5.4,1.9-7.1,0.3c-3-2.7-3.6-11.8-1-14.9c2.6-3,2.5-4.5-0.5-7.1c-3-2.6-6-5.4-9.2-7.7
		c-8-5.7-16.3-11.1-26.7-11.2c-4.3,0-8.7,0-12.8,0.9c-3.8,0.8-7.3,2.6-10.9,4.2c-2.6,1.2-5.5,2.3-7.3,4.3c-2.7,3-4.5,6.7-6.7,10.1
		c-4.5,7.1-6.8,14.6-5.1,23c0.1,0.6,0.2,1.2,0,1.7c-2.2,6.2,0.5,11.6,2.8,17c2,4.8,5,9.1,6.6,14c2.6,7.8,9.4,11,15.2,15.2
		c1.1,0.8,3,0.7,4.6,0.9c0.9,0.1,1.8-0.1,2.6,0.1c4.6,1.2,9.1,2.8,13.8,3.6c3.7,0.6,7.5,0.3,11.3,0.2c1.1,0,2.2-1,3.3-1
		c7.4,0.2,13.7-3.8,20.7-5.3c0.6-0.1,1.1-0.8,1.6-1.2c1.4-1.2,2.9-2.3,4.2-3.6c1.7-1.8,3.5-3.6,4.9-5.7c1.4-2.1,2.3-4.5,3.5-6.8
		c1.8-3.3,4.6-6.4,2.1-10.6c-0.3-0.4-0.1-1.2-0.2-1.7c-0.4-3.4,0.9-6.9-1.2-10.2c-0.7-1.1-0.9-2.5-1.3-3.8
		C267.5,462.3,266.6,459.5,265.5,456.3z"/>
	<path d="M340.3,501.2c-7.6,0.3-14.2-2.9-20.2-6.6c-3.1-1.9-4.8-6.1-7.1-9.3c-0.6-0.9-1-1.9-1.5-2.8c-2.8-4.9-2.5-10.5-3.4-15.8
		c-0.9-5.3-0.5-10.4,0.9-15.7c1.2-4.3,0.9-8.9,1.8-13.3c0.9-4.3,1.7-8.8,3.7-12.7c2.7-5.3,5.6-10.8,10.9-14.3c3.1-2.1,5.6-5,8.9-6.6
		c4.4-2.2,9.3-3.7,14-5.2c1.5-0.4,3.3,0.1,4.9,0.4c12.7,2.5,21.1,10.1,25.3,22.2c1.7,5,3.3,10.1,3.8,15.3c0.7,7.2,0.4,14.6,0.2,21.8
		c-0.1,4-1,7.9-1.8,11.8c-0.4,1.9-1.7,3.7-2.6,5.5c-4.5,9.1-9.9,17.2-20.4,20.3c-4.8,1.4-9.6,2.9-14.4,4.3
		C342.2,501.1,341.2,501.1,340.3,501.2z M373.5,415.2c-2.3-2.4-4-4.4-5.8-6.1c-4.6-4.3-10.9-4.7-16.5-6.4c-0.6-0.2-1.4,0-2,0.1
		c-5.8,0.4-10.6,4.9-16.7,3.9c-0.3,0-0.8,0.3-1,0.6c-3.3,4.2-8.4,6.8-10.3,12.2c-0.4,1.2-1.1,2.3-1.7,3.4c-1.7,3.3-3.9,6.5-5.1,10.1
		c-1.2,3.4-1.4,7-2,10.6c-0.8,5.1-1.7,10.1-2.3,15.2c-0.7,6.4,0.7,12.6,3.1,18.3c2.2,5.2,5.5,10.1,8.9,14.7c1.8,2.4,4.6,4.1,8.1,4.1
		c2.8,0,5.6,0.4,8.5,0.4c2,0,4-0.2,6-0.6c4.7-1.1,9.2-2.6,13.9-3.7c2.8-0.6,4.5-1.9,5.8-4.4c1-1.9,2.5-3.8,4.2-5.2
		c3.5-3,6.8-6.1,8.1-10.6c1.3-4.6,2-9.5,2.9-14.2c0.9-5.1,1.1-10.3,0-15.4c-0.1-0.5,0.2-1.1,0.3-1.7c1-3.7,0.2-7.1-2.2-10.3
		c-0.9,1-1.7,1.9-2.5,2.7c-3.9,3.5-8.2,2.4-9.6-2.5c-0.7-2.3-1-4.9-0.8-7.3C365.1,418.5,367.8,415.6,373.5,415.2z"/>
	<path d="M439.7,715.2c0.9,7.4-3.6,10.6-8.2,12.4c-1.9,0.8-4.8-0.3-7-1.1c-6.1-2.3-9.8-8.9-9-15.3c0.5-3.7,1.1-7.3,3.8-10.3
		c3.6-3.9,9.3-3.1,12.7-0.4C436.8,704.2,440.2,709,439.7,715.2z M436.5,713.9c0.1-4.2-4.6-10.8-8.7-11.5c-1.4-0.2-3.1,0.3-4.3,1
		c-5.3,3.4-4,13.9,0.1,17.3c1.6,1.3,3.9,2.7,5.7,2.4C434,722.3,436.3,718.8,436.5,713.9z"/>
	<path d="M554.6,626.2c1-3.4,3.3-3.7,5.3-4.2c0.4-0.1,1.4,0.8,1.5,1.3c0.1,0.6-0.4,1.7-0.9,1.8C558.8,625.7,557,625.8,554.6,626.2z"
		/>
	<path class="st0" d="M292.3,588.7c-3.7,0.7-7.4,1.6-11.2,1.9c-9.3,0.9-18.7,0.9-27.9-1.1c-4.2-0.9-8.6-1.3-12.4-4
		c-2.5-1.8-5.6-2.7-8.1-4.4c-2.3-1.5-2.1-2.5,0.4-3.7c6.3-3.2,13.3-4.2,20.1-3.7c3.2,0.2,6.4,0.8,9.7,1c10.1,0.7,19.3,4.3,27.5,10.2
		c0.9,0.7,1.6,1.7,2.4,2.6C292.6,587.9,292.5,588.3,292.3,588.7z M267.5,582.8c0.2-0.4,0.5-0.7,0.7-1.1c-2.4-1.5-4.9-3.1-7.3-4.6
		c-0.1,0.2-0.3,0.4-0.4,0.7C262.9,579.4,265.2,581.1,267.5,582.8z"/>
	<path class="st0" d="M278.5,559.1c4.5-0.2,9-0.5,13.5-0.7c1.3,0,3.2-0.4,3,1.7c-0.1,1.7-0.1,3.8-2.9,3.9c-4,0.2-8,0.8-12.1,1
		c-1.1,0.1-2.3-0.2-3.5-0.4c-2-0.3-2.9-1.5-2.5-3.5c0.3-1.9,1.3-2.8,3.3-2.3c0.4,0.1,0.8,0.1,1.2,0.1
		C278.5,559,278.5,559.1,278.5,559.1z"/>
	<path class="st0" d="M323.8,550.2c0.7,2.1-0.6,5.2-3.5,6.3c-3.2,1.2-6.7,1.7-10.2,2.4c-0.4,0.1-1.2-0.5-1.5-1
		c-0.1-0.2,0.3-1.2,0.7-1.3C314.1,554.5,318.9,552.4,323.8,550.2z"/>
	<path class="st0" d="M265.5,456.3c1.1,3.2,2.1,6,3,8.9c0.4,1.3,0.6,2.7,1.3,3.8c2.1,3.2,0.8,6.8,1.2,10.2c0.1,0.6-0.1,1.3,0.2,1.7
		c2.6,4.2-0.3,7.3-2.1,10.6c-1.2,2.2-2.1,4.7-3.5,6.8c-1.4,2.1-3.1,3.9-4.9,5.7c-1.3,1.3-2.8,2.4-4.2,3.6c-0.5,0.4-1,1.1-1.6,1.2
		c-6.9,1.5-13.2,5.6-20.7,5.3c-1.1,0-2.2,1-3.3,1c-3.8,0.1-7.6,0.4-11.3-0.2c-4.7-0.8-9.2-2.4-13.8-3.6c-0.8-0.2-1.8,0-2.6-0.1
		c-1.5-0.2-3.4-0.1-4.6-0.9c-5.8-4.3-12.6-7.5-15.2-15.2c-1.6-4.9-4.6-9.2-6.6-14c-2.2-5.4-5-10.8-2.8-17c0.2-0.5,0.1-1.2,0-1.7
		c-1.7-8.4,0.5-16,5.1-23c2.2-3.4,4.1-7.1,6.7-10.1c1.8-2,4.7-3.1,7.3-4.3c3.5-1.6,7.1-3.4,10.9-4.2c4.2-0.9,8.5-0.9,12.8-0.9
		c10.4,0.1,18.6,5.5,26.7,11.2c3.3,2.3,6.2,5,9.2,7.7c3,2.7,3.1,4.1,0.5,7.1c-2.6,3.1-2,12.1,1,14.9c1.7,1.5,4.9,1.4,7.1-0.3
		C262.4,459.1,263.6,458,265.5,456.3z"/>
	<path class="st0" d="M373.5,415.2c-5.7,0.4-8.4,3.3-8.9,7.8c-0.3,2.4,0.1,5,0.8,7.3c1.4,5,5.7,6,9.6,2.5c0.8-0.8,1.6-1.7,2.5-2.7
		c2.4,3.3,3.2,6.6,2.2,10.3c-0.1,0.6-0.4,1.2-0.3,1.7c1.1,5.1,1,10.3,0,15.4c-0.8,4.8-1.6,9.6-2.9,14.2c-1.3,4.5-4.6,7.6-8.1,10.6
		c-1.7,1.4-3.1,3.3-4.2,5.2c-1.3,2.5-3,3.8-5.8,4.4c-4.7,1-9.2,2.5-13.9,3.7c-1.9,0.5-4,0.6-6,0.6c-2.8,0-5.6-0.5-8.5-0.4
		c-3.5,0-6.3-1.7-8.1-4.1c-3.4-4.6-6.7-9.5-8.9-14.7c-2.4-5.7-3.8-12-3.1-18.3c0.6-5.1,1.5-10.2,2.3-15.2c0.6-3.6,0.8-7.2,2-10.6
		c1.2-3.5,3.4-6.7,5.1-10.1c0.6-1.1,1.3-2.2,1.7-3.4c1.8-5.4,6.9-8.1,10.3-12.2c0.2-0.3,0.7-0.6,1-0.6c6.1,1,10.9-3.5,16.7-3.9
		c0.7-0.1,1.4-0.2,2-0.1c5.7,1.7,11.9,2.1,16.5,6.4C369.5,410.9,371.2,412.8,373.5,415.2z"/>
	<path class="st0" d="M436.5,713.9c-0.2,4.9-2.5,8.4-7.3,9.2c-1.7,0.3-4.1-1.1-5.7-2.4c-4.1-3.3-5.5-13.8-0.1-17.3
		c1.2-0.8,3-1.3,4.3-1C431.8,703.1,436.6,709.7,436.5,713.9z"/>
	<path d="M267.5,582.8c-2.3-1.7-4.7-3.4-7-5c0.1-0.2,0.3-0.4,0.4-0.7c2.4,1.5,4.9,3.1,7.3,4.6C268,582,267.8,582.4,267.5,582.8z"/>
</g>
</svg>
