<?xml version="1.0" encoding="utf-8"?>
<!-- Generator: Adobe Illustrator 26.0.0, SVG Export Plug-In . SVG Version: 6.00 Build 0)  -->
<svg version="1.1" id="Capa_1" xmlns="http://www.w3.org/2000/svg" xmlns:xlink="http://www.w3.org/1999/xlink" x="0px" y="0px"
	 viewBox="0 0 595.3 1008.9" style="enable-background:new 0 0 595.3 1008.9;" xml:space="preserve">
<style type="text/css">
	.st0{fill:#FFFFFF;}
</style>
<g>
	<path d="M595,676.6c-1.7-6.3-5.6-12.2-7.8-18.1c1.1-17.4-1.3-34.6-4.9-51.6c-4.4-27.5-25.6-53.9-54.6-56.8c-2.6-0.3-3-1.3-3.1-3.7
		c-0.2-14-13-26.6-27.3-23.4c-8.3,1.6-15.9,2.6-24.3,3.9c-33.2,10.7-64.3,26.5-97.4,37.6c18-26.3,24-58.2,23.2-89.5
		c1.6-15.7-2.1-30.7-5.1-45.9c-0.5-6.8-4.7-12.4-5.8-19c-0.9-7.7-7.6-13.4-8.9-20.7c1.9-8-6.2-13.2-9.7-19.7
		c-4.5-4.8-7.3-11-11.8-15.7c-5.6-8.6-20.4-8.3-18-19.4c-0.4-22.2-0.3-44.4,1.7-66.6c0.2-4.4,1.4-9.2,0.1-13.2
		c-2.6-6.9-1.2-13.8-2.3-21c0.4-36.4-4.1-72.1-10.7-107.8c-4.7-24.2-7.2-49.4-18.9-71.6c-7.9-16.5-18.4-33.4-33.5-44
		C259.8,2,252.2,0,233.7,2.5c-1.6,0.1-3.1,0.7-3.9-1.5c-52.8,0.2-44.9,112.5-38.5,148.3c2.2,15.6,0.8,31.6,4.7,47
		c0.6,14.2,5.6,26.8,10,40.1c1.3,9.7,2.5,19.4,8.1,27.7c6.9,21,15.5,40.7,24.3,61.1c-8.4,1.9-16,4.1-23.7,5.3
		c-8.8,0.9-15,6.8-22.7,10.4c-1.8,0.9-2.4,0.2-2.4-1.8c0.1-4.3-0.9-8.6-0.4-12.8c0.5-36.4-7.7-72-16.1-107.2c-0.6-17.2-8-33-9.3-50
		c-5.5-23.7-10.9-48-21.8-70c-7-15.7-15.2-31-26.9-43.7c-4.2-7.5-10.6-13.4-15.9-19.9c-2.7-3.9-5.6-6.4-10.1-8.3
		C68.8,17.3,49.7,13,28,22c-3.7,1-1.9,5.1-7.2,6.1c-6.7,1.9-6.2,9-10,13.6C9,44.5,5.9,47,5.3,50C2.9,63.8,0.4,78.1-0.4,92.2
		c0.6,18.2,3.6,36,9,53.3c2.4,7.7,1.5,16.1,5.9,23.1c4.4,5.8,5,12.7,6.4,19.6c3.4,9.8,7.4,19.5,11,29.3c10.5,22.4,24,43.4,36.2,64.9
		c10.8,21.3,23.4,41.2,36.1,61.5c6.8,9.3,11.5,21,19.9,28.8c3.2,1.5,4.1,4.6,6.2,6.9c-3.3,12.3-10,24.3-10.4,37.6
		c-9.6,42.8-0.9,86.9,14.8,127.2c2,10.3,11,14.7,16.2,23.1c10.9,18.8,30.2,29.9,48,41.8c-29.6,17.8-54.2,43-76.9,68.8
		c-17.4,20.8-35.3,41.1-49.9,63.9c-4.6,8.3-23.9,23.5-10.7,31.4c2,1.7,4.5,2.9,3.9,6.3c-0.1,0.9,1.1,2.2,2,3
		c4.2,3.6,6.3,10.3,12.5,11.2c4.6,1.4,9-7,13.3-3.2c2.6,1.7,5.9,0.6,7.6-1.9c3.8-4.5,1.6-10.5,4.3-15.2
		c26.7-34.4,53-69.1,81.7-101.8c-3.3,19.8-4.4,39.5-5.4,59.6c-1.5,16.4-3.4,32.8-3.4,49.3c0.4,5.3-5.8,3.3-6.6,8.9
		c0.1,6.2-2.3,13.7,1.6,19.1c0.7,0.9,1.5,2.1,1.5,3.1c-0.6,15.1-3.6,30-4.1,45.2c-5.2,41.2-5.7,83-13.2,124
		c-3.4,8.9-12.6,9.1-11.2,21.9c-0.3,12,43.1,3.5,51.2,2.3c6.3-1.8,32.2-4.8,32.7-11.7c0.1-1.4,0.3-3.2,1.1-4.1
		c1.7-1.9,1.8-3.7,1.3-5.9c-0.8-3.1,0.8-6.1,1.1-9.1c-0.2-40.9,7.5-81.6,7.6-122.5c5.3,0.1,9.8,0.2,14.5,0c1.9,0,1.9,1.3,1.8,2.6
		c-0.9,12-0.7,24-0.2,36c-3.3,30.4-0.3,61.3-2.4,91.4c0.4,4.1-2,9.6,2.4,12.2c2.6,2.5-2.1,1.9,2.4,5.1c2,2.5,4.7,3.2,7.9,3.5
		c18.2,3.3,36.7,3.4,55.2,3.4c4.2,0,8.5-0.7,12.4-2c4.6-1.8,8-8.3,2.3-11.6c-3.6-2.5-4.8-7.5-7.2-11.1c-2.5-3,0.9-5.8,0-9.2
		c-1.2-4.6-2.3-8.8-0.3-13.3c2.7-20.6,1.2-41.7-1-62.3c3.2-25.5,0-51.7,0-77.2c5.1-23.7,0.8-48.1,3.6-72c0.9-40.5,4-80.9,4.5-121.5
		c0.1-2.1,0.8-3,2.9-3.6c8.5-2.8,17.4-4.9,25.2-9.5c32.8-11.7,65.7-23.1,98.7-34.5c0.2,0.3,0.3,0.6,0.4,0.9
		c-13.2,12.7-15,31.4-24.1,45.9c-10.6,5.6-22.3,9.8-29.3,20.2c-6.4,5.6-3.4,15.9-5.3,23.4c-3.7,21.4-1.1,43.1-3.2,64.6
		c-1.5,20.8,0,42.2-2.2,63.1c-0.1,10.9-3.4,22.1,2.2,32.1c9.5,16.1,27,23.5,43.2,31.3c31.1,13.8,69.9,12.7,98.1-7.3
		c13.3-8.3,14.1-24.8,17.5-38.6c3-11.9,6.3-23.7,9.5-35.5c4.3-15.8,8.6-31.5,11.6-47.7C586,712.8,593.4,694.6,595,676.6z
		 M579.2,650.4c-4-3.4-9.4-7-5.8-12.7c9.8-25.9-19.6-42.6-32.5-10.5c-29.8-7.8-59.5-12-90.7-5c7.1-18,15.1-36.9,30.2-49.1
		c6.5-1.1,13.7-1.4,20.2-2.8c4.8-1,7-4.2,7.2-9.1c0.1-0.7,0.5-1.7,1-1.8c10.2-4.9,21-2,31.6,0c1.5,0.3,2.8,2.1,4.2,3.1
		c7,3.7,11.7,9.8,17.1,15.4c3.3,5.9,7.5,10.6,8.5,17.3c5.5,17.6,8.5,36.1,9.6,54.6C579.6,650,579.4,650.2,579.2,650.4z"/>
	<path class="st0" d="M391.6,476.4c-0.9,19.4-3.7,39.7-8.4,58.8c-13.3,34.3-31.8,57.7-68.4,67.6c-13.8,8.5-30.2,7.4-45.7,8.9
		c-1.7,0.2-3.2,1.7-4.9,1.8c-1.3-0.1-2.6-0.7-3.8-0.4c-7.6,1.6-14.4-2.9-21.8-2.7c-10.7-1.7-20.7-7.9-31-11.3
		c-5.4-1.1-11.2,0.3-15.2-4.5c-8.7-6.8-17.1-14.1-24.8-22c-8.3-7.8-16-16.4-21.3-26.4c-5.8-6.9-5.7-16.3-10-24
		c-2-3.6-2.6-8.1-3.8-12.2c-3.5-8.1-4.3-16.6-5.1-25.3c-3.3-13.8-4.8-28.1-2-42.1c1.7-12-2.1-24.2,2.1-36c0.5-2.1,3.1-3.6,4.3-5.7
		c1.5-2.5,2.3-5.4,3.7-8c1.1-3.8,8-7.8,5-11.7c-0.4-0.4-0.7-1.1-0.6-1.6c0.8-3.6-1.3-5.9-3.3-8.4c-4-5.3-7.9-10.7-11.9-16
		c-12.1-16.7-24-34-34.7-51.6c-15.6-29.9-36.6-56.7-50.1-87.7c-3.8-11.5-9.4-22.5-13.8-33.8c-0.6-8.1-5.2-15.4-8.1-22.9
		c-3.6-15.9-7.7-31.8-8.4-48.3c-0.1-8.5,0.2-44.2,7.1-46.1c3.3-1.7,2.3-5.7,2.9-8.8c1.7-9,4.2-19.5,11.7-25.1
		c2.9-1.2,5.7-2.2,7.3-5.4c2.8-6.5,33.9,7.4,39.3,8.9c11.1,3,20.8,10.2,26.6,19.9c32.5,48.3,51.3,104.2,62.7,160.9
		c10.9,45.8,15.2,93.1,19.6,139.4c1.3-0.7,3-1.1,3-2.9c0.6-8.4,8.3-3.3,13.7-8.9c11.4-8.2,25.9-10,39.5-12c9.5-2.9,20.7,4.8,26.3,1
		c-5.6-3.9-13.4-3-19.9-4.6c-4.4-0.4-6.7-12.2-8.4-16c-9.9-27-21.8-54-26.9-82.5c-1.6-6.3-3.7-12.5-6.4-18.4
		c-1.1-9.7-3.5-19.3-5.1-29c-2.5-18.5-6.7-36.6-7-55.4c-1.9-20.3-2.8-40.9,0.5-61.2c0.8-3.5,4.1-2.8,4.1-7.3
		c6.9-30.2,8.4-49.2,46.1-46c21.5,2.8,39.7,16.5,50.3,35.1c2.1,6.1,3.8,12.8,6.5,18.8c10.4,21.3,15.3,44.7,19.5,68
		c5.1,22.9,8,46.4,8.8,69.8c0.7,9,1.7,18,3.6,26.8c2.6,14.4,0.3,28.8,0.4,43.4c-2.4,19.7-1,39.7-2.2,59.5
		c-0.2,5.1,0.3,10.4-2.1,15.2c-0.1,0.3-0.3,0.7-0.2,0.8c1.5,1.7,2.8,3.7,4.7,5c0.8,0.6,2.9,0.4,3.8-0.2c4.2-2.7,11.4,9.2,15.2,11.9
		c16.7,13.9,21.8,36.8,28.6,56.5C389.2,439.8,391,457.6,391.6,476.4z M308.9,538.4c-1.6,4.6,1,11.9-2,15.4
		c-19.9,6-40.3-1.5-60.3-0.1c-9.4,1.2-22.2,1.2-26.8,11.5c-0.9,2-1.5,4,0.1,6.1c3.5,10.2,10.4,13.3,20,16.3
		c12.1,6.7,26.8,4.5,40.2,5.8c9.4-1.2,19-4.1,28.3-6c7.2-2.2,14.8-4.4,21.6-7.4c6.4-5.3,15.4-6.9,20.1-14.5
		c5.1-2.3,5.6-7.5,6.9-12.3c1.7-5.5-2.3-10.1-7.4-11.3c-9.9-3.2-18.7,4-27.9,6.7c-10.6,4.5-12.3,7.9-10.8-6.1
		c0.3-2.6,0.5-5.9,3.7-6.4c5-0.7,9-3.5,13.1-5.9c5.1-3.4,8.3-11.2,4.4-16.8c-1.4-2.5-1.6-6-4.9-7.4c-3.2-1.6-5.8-4.1-9.6-3.2
		c1.1,1.5,2,3.4,3.8,3.9c4,0.3,5.1,3.1,6.5,6.2c6.8,17.1-16.2,21.6-28.3,23.5c-6.8,1.6-12.6-12.5-18.6-9.3c-0.3,0.2-0.4,1.3-0.2,1.8
		C285.1,541.7,297.1,541.4,308.9,538.4z M209.1,414.4c-9.1-0.4-17.8,2.5-23.4,9.7c-6.4,3.9-6.6,12.8-11.2,18.1
		c-6.7,8.9-3.2,19.8-4.3,30c2.1,9.7,7.9,18,12,26.8c3.5,8.2,10.3,12,18,14.6c10.6,2.7,21.4,6.7,32.5,4.7c35.6-5,52.8-25.6,36-60.2
		c-4.3-12.6-12.2-24.5-23.2-31.8C234.5,420.1,221.8,414.7,209.1,414.4z M340.3,501.2c37.7-5.9,44.8-29.8,41.9-64.2
		c-1.9-25.1-22.8-47.8-48-32.7c-12.4,7.2-21.7,19.2-23.5,33.6C305.3,464.1,304.9,500.3,340.3,501.2z"/>
	<path class="st0" d="M516.7,537.1c-2-1.7-4.5-2.9-7.2-2.9c0.4,1.2,0.4,2.6,1.1,3.5c4.6,4.2,6.7,18.4-2.5,16.8
		c1.4-5.2-2.9-18-9.7-14.6c1.2,3.7,5.4,6.5,4.7,11.2c-0.2,5.8-7.3,7.8-10.1,2.8c-0.5-0.7-0.7-2-0.3-2.7c2.1-3.7-3.8-5.5-6.5-4.8
		c0.6,3.7,5.3,5,1.5,8.7c0.6,0.8,1.1,1.6,1.8,2.7c-8.5,5.2-15.4,12.7-25.7,14.9c-12.3,3.7-24.5,8.8-36.7,13
		c-29.9,11.4-59.4,23.9-89.5,34.6c-1.4-1-2.3-2.4-3.5-3.6c-5.6,6.4-1.6,15.5-2.5,23.3c0,9.1-0.1,18.3-0.2,27.4
		c-0.8,40.3-3.9,80.6-4.4,120.9c0.5,5.5,0.4,5.6-5.2,5.5c-19.2-0.5-38.3-0.7-57.5-1.5c-24.6-1-49.1-2.1-73.5-5.7
		c-3.6-1.2-8.5-0.2-6.7-5.5c4.7-41.8,1.1-86.1,15.6-126.1c-25.8,18.4-44.2,45.9-63.7,70.7c-8.4,12.4-17.8,23.8-26.6,35.9
		c-3.4,4.7-9,8.2-9.5,14.5c-1.7,22.5-7.8,0.7-18.3,10.7c-0.6,0.5-1.7,0.5-2.6,0.7c0.3-2.2,0.4-3.5,1.9-5.3c-2.4-1.2-3.7-4.1-7.1-3.1
		c-0.5,0.1-2.1-1.5-2-2.2c0.4-3.9-2.7-4.7-5.1-5.3c-8.9-4.6,5-17.4,7.9-22.6c4.5-6.5,8.8-13.2,13.4-19.6c20.1-26.2,40.9-52.4,65-75
		c12.2-14,26.5-25.9,43-34.5c19.6-11.3,9.3-8.2,27.9-4.1c3.6,0.5,7.3-0.2,10.6,1.9c30.5,0.9,63.4,1.8,90.9-13.5
		c8.6-2.6,17.5-5.1,23.7-12.2c0.9-1,2.3-1.5,3.5-2.2c8-4.3,11.7-13.1,19-17.8C402.4,563.6,494.8,506.6,516.7,537.1L516.7,537.1z"/>
	<path class="st0" d="M412.4,669.5c39.7,50,117,55.5,170.2,25.3c-8.9,40.5-19.2,80.1-30.4,119.9c-3,11.3-3.9,24-14.7,31
		c-23,17.4-55.1,17.5-81.8,10.4c-17.3-7.6-36.3-14.7-48-30.4c-1.9-13.7-0.4-28.5,0.4-42.5c0.6-10.2,2.5-20.4,0.9-30.6
		c0.9-26.9,2.3-53.9,2.5-80.8C411.8,671.4,412,670.8,412.4,669.5z M439.7,715.2c1-9.5-11.2-22.6-20.3-14.3
		C403.4,722.8,439,740.7,439.7,715.2z"/>
	<path class="st0" d="M322.3,824.1c1,39.1-2.1,77.3,0,116.3c-1.1,12.5-2.3,25.2,0.3,37.6c-0.8,5.3-1.3,9.3,4.1,12.7
		c4.1,2.8,2.3,9.1-2.6,9.5c-15.9,0.4-48.4,3.8-59-9.6c-3.3-11.8-0.2-24.3,0.6-36.3c0.4-5.7-3.7-10.3-0.8-16.1c1-2.6,0.1-6,0-9
		c0.5-25.2-5.2-49.9-2.1-75c0.1-1.9,0.7-2.5,2.6-3.1C286,845.6,302.9,833.4,322.3,824.1z"/>
	<path class="st0" d="M182.3,817.3c15,13.6,33.9,20,51.2,30c0.9,0.5,1.8,1.9,1.7,2.9c-0.4,12.9-1.4,25.8-3.8,38.6
		c1,4.9-1,9.5-1.7,14.3c-1,10.2-0.8,20.5-2.7,30.5c-2.3,10.6-0.2,21.6-3.5,31.9c-0.6,9.7,2.2,24.9-10.4,27.6
		c-7.3,2-14.6,5.5-22.2,6.6c-9.4,1.3-19,2-28.4,3.1c-4.5,0.6-7.3-4.2-4.6-7.7c3.6-5.3,9.5-9.7,9.6-16.7
		C173,924.5,176.8,871.3,182.3,817.3z"/>
	<path class="st0" d="M254.1,848c-15.5,1.2-32.4-11-46-17.6c-9.8-5.7-19-12.4-27.6-19.7c-6.3-4.6-4-12.1-3.8-18.5
		c0-2.5,1.3-3,3.2-2.4c9.5,2.5,19.2,0.1,28.9,2c16,1.7,31.9,4.1,48,4c21.6,1.5,43.3,2.2,65,1.8c3.1,0,4.2,1.3,3.9,4.4
		c-1.2,5.7,1.2,13.6-4.8,17.1C300.1,831.4,279.4,848.3,254.1,848z"/>
	<path class="st0" d="M521.6,677.9c-18.4-7.3-32.7,2.9-37.5,21.1c-0.8,2.1-2.3,2.2-4.1,1.7c-9.2-3.3-18.8-5.9-27.9-9.7
		c-18.9-11.3-17-5.6-12.4-27c2.3-10.4,4.6-20.8,7.1-31.2c1.3-4.3,14.1-4.6,18.4-6.5c10.5-0.5,22-3.1,32,0.9c2.5-1.3,4.5,0.4,6.7,0.9
		c10.1,2,20.2,3.7,30.2,6.1c3.2,0.9,3.5,2.1,2.4,5C531.6,652,526.7,665.3,521.6,677.9z"/>
	<path class="st0" d="M508,706c-4.8-0.7-10.1-1.3-15.5-2.1c-3.1-0.5-3.4-1.1-2.3-4.2c5.5-20,18.2-23.9,36.2-15
		c4-2.5,4.7-12.5,6.8-17c2.5-10,6.8-19.3,10.1-29c3.5-7.4,10.7-29.2,21.4-20.5c6.2,5,8.5,7.9,4.1,15c-9.2,17.3-19.2,34-27.5,51.7
		c-2.3,5.9,7.7,7.3,10.9,10.5c4.8,3.8-6.5,4-8.6,4.6c-3.6-1-3.6-5.1-8.5-3.6c-0.2,2.4,4,5.1,0.2,5.8
		C526.7,704.9,517.7,705.3,508,706z M554.6,626.2c2.8-0.9,6.5,0.2,6.8-2.9c-0.1-0.5-1.1-1.4-1.5-1.3
		C557.9,622.5,555.6,622.8,554.6,626.2z"/>
	<path class="st0" d="M561.5,694.2c-4.2-1.8-7.9-5.3-11.8-7.6c-1.5-1-1.5-2.1-0.8-3.5c4.5-9.8,9.7-19.1,14.9-28.5
		c1.8-3.2,2.6-3.2,5.3-0.8c3.3,2.9,7,5.4,10,8.7c1.8,2.6,7.5,8.9,6.7,11.7c-3.1,3.8-6.1,7.8-9.2,11.5
		C571.1,687.8,567,692.5,561.5,694.2z"/>
	<path class="st0" d="M438.1,634.8c-2.9,14-5.6,27-8.3,40.5c-7.4-6.5-20.3-15.8-14.2-27.1C422.9,642.8,429.9,639.7,438.1,634.8z"/>
	<path class="st0" d="M487.6,566.3c5-2.6,10.5-8.4,16.2-3.2C501.8,568.7,491.8,568.9,487.6,566.3z"/>
	<path class="st0" d="M516.6,537.2c2.8,2.2,3.1,5.3,3.6,8.3c-0.3,0.1-0.5,0.2-0.8,0.3C518.5,542.9,517.6,540,516.6,537.2
		C516.7,537.1,516.6,537.2,516.6,537.2z"/>
	<path class="st0" d="M292.3,588.7c-19.9,4.3-42.1,4-59.6-7.6c-2.3-1.5-2.1-2.5,0.4-3.7c17.3-7.7,46.3-3.5,59.7,10.1
		C292.6,587.9,292.5,588.3,292.3,588.7z M267.5,582.8c0.2-0.4,0.5-0.7,0.7-1.1c-2.4-1.5-4.9-3.1-7.3-4.6c-0.1,0.2-0.3,0.4-0.4,0.7
		C262.9,579.4,265.2,581.1,267.5,582.8z"/>
	<path class="st0" d="M278.5,559.1c3,0.6,16.9-2.8,16.5,1c-0.1,1.7-0.1,3.8-2.9,3.9c-5.2,0.1-10.4,1.7-15.6,0.6
		c-4.7-0.8-2.6-7.5,2-5.7C278.5,559,278.5,559.1,278.5,559.1z"/>
	<path class="st0" d="M323.8,550.2c1.6,7-8.7,7.6-13.7,8.7c-0.4,0.1-1.2-0.5-1.5-1C310.5,554.6,319.9,552.6,323.8,550.2z"/>
	<path class="st0" d="M265.5,456.3c1.7,4.5,2.6,8.5,4.3,12.7c2.4,3.7,0.4,8.1,1.4,11.9c2.6,4.2-0.3,7.3-2.1,10.6
		c-2.8,7.1-7.9,13-14.2,17.3c-15.7,6-32.9,9.2-49.1,2.5c-8.2,0.7-19.5-8.3-22.4-16.2c-3.3-10.2-12.7-19.5-9.4-31
		c-1.3-8.9-0.2-17.2,5.1-24.7c4.6-10.5,14.1-15.9,24.9-18.6c14.3-3.3,28.4,1.3,39.5,10.3c3.6,3.7,15.7,9,9.7,14.8
		C248.1,456.1,255.2,469.5,265.5,456.3z"/>
	<path class="st0" d="M373.5,415.2c-16.4,0-7.9,31.2,4,14.9c3,3.8,2.9,7.8,1.9,12c1.1,5.1,1,10.3,0,15.4c-2.1,17.9-4.5,17.5-15.2,30
		c-1.3,2.5-3,3.8-5.8,4.4c-9.4,2.6-18.5,5.4-28.4,3.9c-9.5-0.7-12.9-11.8-17-18.8c-5.2-10.5-2.8-22.5-0.8-33.5
		c0.3-9,4.7-16.3,8.8-24.1c1.8-5.4,6.9-8.1,10.3-12.2c0.2-0.3,0.7-0.6,1-0.6c6.1,1,10.9-3.5,16.7-3.9
		C358.8,403,367.3,407.2,373.5,415.2z"/>
	<path class="st0" d="M436.5,713.9c0.2,7.2-7.3,12.3-13,6.8c-4.1-3.3-5.5-13.8-0.1-17.3C429.4,699.2,436.4,708.4,436.5,713.9z"/>
</g>
</svg>
