<?xml version="1.0" encoding="utf-8"?>
<!-- Generator: Adobe Illustrator 26.0.0, SVG Export Plug-In . SVG Version: 6.00 Build 0)  -->
<svg version="1.1" id="Capa_1" xmlns="http://www.w3.org/2000/svg" xmlns:xlink="http://www.w3.org/1999/xlink" x="0px" y="0px"
	 viewBox="0 0 595.3 819.8" style="enable-background:new 0 0 595.3 819.8;" xml:space="preserve">
<style type="text/css">
	.st0{fill:#FFFFFF;}
</style>
<g>
	<path d="M460,460.6c7.5,0.5,14.8,0.9,22.8,1.5c-0.3-3.1-1.2-5.6-0.9-8.5c0.5-3.1,1.5-6.2-0.2-9.3c-0.4-4.4,0.7-9.1,1.3-13.5
		c0.1-0.6,0.2-1.4-0.1-1.7c-2.6-4.8,0.9-10.7,0.3-16c-3.6-27.1,4.8-54,12.3-79.8c7.9-19.3,20-54,38.5-64c5.4-3.3,9-9.4,15.9-9.6
		c9.6-0.5,19.3,2.2,27.8,6.4c17.9,18.8,17.6,47.5,16.9,71.9c0.4,5.3-2,9.9-2.7,15c-1,7.5-1.8,15.1-2.9,22.6
		c-3.8,7.2-4.8,15.7-8,23.2c-8.3,31.4-21.8,60.9-37.2,89.3c32,21.4,34.8,50.5,31.3,86.1c-0.1,0.5,0.4,1.4,0.9,1.7
		c2.2,1.6,2.7,3.8,3,6.3c8,38.6-8.6,76.7-48.1,88.3c-2.8,0.8-1.8,4.8-3.4,7.1c-0.2,0-0.5-0.1-0.7-0.1c18.3,12.9,16,42.2,2.3,57.7
		c-3.4,3.1-1.9,7-3.2,10.3c-2.4,7.1-6,13-14.3,13.4c-7.4,33.3,1.1,39.6-39,41.6c-6.5,0.2-20.6-1-14.2-10.6
		c5.7-6.1,3.9-13.4,4.2-21.1c-3.8,0-7.4,0-11,0c0.6,7.1-1.8,15.6,2.5,21.9c5.3,15.5-35.5,5-41.1,0.7c-3.1-10.9-7.1-21.9-7.2-33.3
		c-0.5-3.7,2-8.7-0.5-12c-10.7-9.4-12-23.3-11.2-36.6c-10.8,1.2-20.9-2.6-31.4-3.7c-11.3-4.3-23.6-14.7-24.1-27.4
		c0.5-4.5-3.7-4.8-5.1-7.5c-1-1.4-3.8-7.2-5.2-3.7c-1.2,7.5-2.1,17.4-9.2,21.6c-12.4,7.4-26.4,3.8-32-10c-2.1,2.1-6.1,2.9-5.6,6.4
		c0.4,10.5,0.9,21,1.2,31.5c1.2,26.2,0.6,51.3-0.1,77.1c0,1.2-0.3,1.7-1.6,2.2c-2.5,1.7-2.6,5.8-4.1,8.3c-1.5,3.4-6.2,1.9-8.9,4.3
		c-8.6,8.2-20.6,7.3-31.4,10.4c-8.6,2.2-17.4,0.3-26.1-0.4c-0.6-0.1-1.3-0.2-1.8,0c-5.8,2.4-13.8-3-12.6-9.5
		c-1.3-13.6,10.2-15.5,6.7-27.9c0.1-3.2-1.4-10.2,1.2-12.3c0.2-0.1,0.2-0.7,0.1-0.9c-2.4-4.1-0.8-8.6-1.3-12.9
		c0.3-9.9-1.5-19.6-2.2-29.5c1.5-5.1-5.3-4.8-9-5.6c0.6,5.3,0.3,10.5,0.5,15.8c-3.7,13.8,1.1,28.7-1.6,42.9
		c-0.4,3.5,3.4,9.5-0.8,11.5c-0.9,1.2-1.2,3.2-2.1,4.4c-6,9.4-44.4,9.3-55.8,9.8c-13.5,0.2-29.2,1.5-22.2-17.4
		c1.6-2.9,5.5-4.6,6.1-8c0.4-14.6,1.7-29.2,2.3-43.6c-2.4-9.8,1.6-20.4-2.5-29.5c-2.9-31.6-6.3-63.7-6.3-95.6
		c-13,7.3-26.1,0.6-38.7-3.5c-4.7,2.5-16.4-11.3-20.7-14.3c-5.1-3.9-10.6-7.7-15.6-11.9c-20-16.1-22-9.6-12.6-34.5
		C3.4,541.2-7.1,519,4.8,503.2c4.6-7.3,13.9-11.2,22.3-8.2c0.5,0.2,1.5-0.1,1.6-0.5c2-7.3,8.5-18.8,17.1-11.4
		c4.8,5.5,6,12.4,8.6,19.1c2.1,0,4.4,0.4,4.7,3.5c7.6,8.1,16.2,14.8,25,21.7c5.8-7.9,11.7-16,17.4-23.8c-14-10.3-27-21.7-33.3-38.1
		c-10.3-13-6-43.3,1.5-57.3c1.4-2.5,3-5,4.8-7.1c5.6-8.1-1.4-27.6,2-38.5c-1-2.7-4.8-3.8-7-5.5c-1.7-0.3-3-0.6-3.3-3
		c-0.2-8.1,2.8-16.5,4.2-24.5c2.5-14.2,11.2-25.9,17.6-38.4c-6.3-16.6-12.3-33.9-17.5-51.1c-4.8-21.4-10.6-42.5-16.3-63.7
		c-4.4-20.5-5.1-41.7-6.2-62.4c-1.2-3.3-0.9-6.6,0.2-9.9c0.8-8.2,0.1-16.6,0.5-24.8c1.5-16.4,6.9-31.8,13.4-46.8
		c1.7-4,3.1-8.5,7-10.8c5.2-2.7,7-9.1,13-9.8c1.8-0.4,3.5-0.4,4.6-2.3c10-2.8,22.4-1.2,31.6,4.1c7.6,4.6,15.7,9.8,21.1,16.8
		c6.3,13.9,12.9,27.6,16.8,42.3c9.7,33.8,5.7,69,4.3,103.5c-3,8.1-0.4,17.5-2.5,25.8c-1.3,9.1-0.6,18.1-1.3,27.2
		c-1.1,7.3-2.5,13.5-2.4,21.1c13.8-6,29.1-6.3,44-6.3c-1.9-9.7-3-19-3.8-28.7c-2.9-5.9-1.8-12-1.5-18c-3.2-23.6-0.2-47.1,2.7-70.7
		c0.6-35.7,7.3-71.5,21.8-103.8C223,13.3,228.8,2,241,0.3c3.8,0,8.9-2.1,10,3.1c16.7,3.2,23.2,9.3,33.4,22.4
		c3.2,5.7,3.5,12.7,6.3,18.8c10.3,31.4,5.7,64.8,1.6,96.9c-3.9,29.3-8.9,58.3-18,86.5c0.1,9.5-4,17.9-7.3,26.8
		c-0.8,5.6-8,16.5-1.7,19.9c8.6,5.5,12.8,14.8,19.1,22.3c4.4,4.1,7.1,9.1,9.1,14.7c4.7,9.1,10.8,17.9,10.8,28.7
		c3,5.7-6.9,7.2-10.4,9.9c0.1,1.3,0.6,3.7,2.3,4.1c7,2.8,10.1,10.8,15.1,16.2c4.8,8.1,10,16.3,14.8,24.3c7.1,27,5.7,55.9-10.1,79.5
		c-3.6,7.2-11.6,9.9-16.2,16.2c-0.7,2.5-7.2,3.1-5,6.4c6.4,11.5,13.2,23.2,15.5,36.4c4.4,14.7,7.6,29.9,13.9,43.9
		c1.5,12.3,5.8,24.1,9.2,35.7c3.9,8.4-0.7,20.8,5.5,27.6c15.3,4.8,9,11,28.9,10.2c-2.1-2.8-3.9-6.3-5.7-9.4
		c0.3-5.1-4.4-8.5-4.8-13.2c-0.2-3.4-1.7-6.6-0.5-10.2c1.2-10.6,0.1-23.4,7-32.3c4.7-2.7,1.9-11.4,2.5-16c0.8-7.1,0.7-14.2,3.4-20.9
		c-5.2-1.6-10.6-1.9-15.2-4.8c-1.6-3,1.5-7.1,2.3-10.2c9.2-20.2,22.2-39.4,41.2-51.3c-11.2-49.3-18.4-101-12.4-151.3
		c2.8-25.3,4.9-56,21.5-76.3c6-6.6,14.5-8.3,21.9-12.2c11-0.5,26.1,0.1,32.1,10.9c32.3,32,11.5,161.5-2.2,203.4
		C460.1,458.2,460.1,459.5,460,460.6z"/>
	<path class="st0" d="M268.1,664.4c1.6,6.6-1.6,17.1,7.7,18.1c1.5,31.4,1.3,63.2,1.2,94.5c-21.5,7-44,5.3-66.1,2.7
		c-5.2-0.4-1.4-4.5-1.4-7.4c-0.6-3.8,0.3-7.8-1.3-11.6c-1.2-6.5,0.2-13.8-0.5-20.5c-0.3-4.6-1.1-9.2-1.5-13.8
		c-0.7-3.5,3.2-9.2-2.2-10.1c-13-0.5-14-5.7-18.1-16.7c-2.6-12.9-8.2-25.3-7.5-38.6c9.2,2.6,47.1,17.9,52.7,11.3
		c0.7-6.3-43.6-11-50.8-13.3c-6.7-0.5,0.8-36.2,0.3-43c-1-6.1,3.8-12.5,1.3-18.1c16.6-5.6,34.4-11.3,48.9-21
		c-5.4-1.8-10.8,4-15.9,5.6c-12.2,2.3-23.8,4.9-35.7,9.1c-16.8-23.3-13.2-50.1-14.6-77.6c30.4,2.1,61.9,6.1,91.1-4.6
		c2.1-0.5,4.2-1.5,6.3-1.5c10.2,0.3,17.2-5.5,26-9.5c7.9,13.8,12.3,29.1,18.5,43.5c3.3,4.9,3.9,10.6,5,15.9
		c4.1,12.4,7.2,24.9,11,37.4c-0.3,4.9,2.3,8.7,4.2,13c-0.3,4.4,2.1,8.3,2.9,12.2c-7.9,2-70.3,17.8-68.6,5.5c-1.4-14-3-28-4.8-42.1
		c-2.3-6.7,1.8-18.3-3.7-23.2c-3.8,2.6,0,20,0.6,24.9c1.9,11.3,0.6,22.5,3.7,33.6c1,13.1,0.9,26.5,3.4,39.4
		C261.2,661.1,266,663.6,268.1,664.4z"/>
	<path class="st0" d="M149.3,81.4c12.5,63.1,5.6,128.9-5.2,191.6c-1.3,6,0.1,13.5-5.5,17.6c-11.2,8.9-27,9.4-40.5,6.3
		c-5.4-3.7-6.2-16.5-9.2-22.7c-2.6-5.5-4.7-11.3-6.4-17.1c-3.2-9.6-2.8-20-7-29.1c-1.1-3.8-2.9-8.7-3.1-12.5
		c-4.2-15.9-9.9-31.7-13.5-48c-3.4-19-3.3-38.3-6.1-57.2c0.3-22.1,3.8-43.6,13.2-63.7c3.7-11.1,6.5-3.8,8.9-10.8
		c2.2-7.5,7.1-14,13.1-18.7c3.1-1,6.4,0.1,8.9-3.1c0.6-0.7,3.3-0.3,4.7,0.4c9.1,4.4,17.1,10.2,25.3,16.2
		C142,41.8,143.5,62.2,148.8,79C149.4,79.4,149.3,80.1,149.3,81.4z"/>
	<path class="st0" d="M187.7,714.1c-6.7-1-13-2-19.2-3c-0.2,0.3-0.4,0.6-0.5,1c4.5,4.7,11.9,4.7,17.9,7.4
		c-0.7,18.6,1.6,37.3-1.2,55.8c-20.5-1.2-40.7-6.4-60.1-13c-2.4-2.6-1.3-10.9-1-14.4c1.5-9.5,1-19.1-0.6-28.5
		c0.9-13.4-3.2-26.1-2.4-39.4c-3.1-15.8-4.6-31.7-4.5-47.7c1-10.9-2.2-21.5-1.1-32.4c-0.7-18.3,3.1-38.1-1.3-55.7
		c-3.6,5.1-2,12.4-3.4,18.5c-0.2,13.5-0.3,26.8-0.7,40.3c-6.3-1.1-11.6,2-17.9,1.7c-17.5,0.5-31.7-12.2-45.4-21.4
		c17.8-12.2,33.4-24.7,37.1-47.2c0.5-1.8,0-3.5-2.5-4.5c-0.7,21.9-18.8,40.8-37.8,49.7c-5.8-4.6-12.9-10.3-20.3-16.1
		c11.4-3.1,19.8-11.1,28.9-18.1c10.2-9.2,14.1-21.1,11-34.5c10.6,8.1,18.6,19.2,28.9,27.8c4.3,4.8,8.3,10.9,13.8,14.3
		c-0.9-5.3-16-22.3-13.6-24.9c4.9-8.5,11.9-15.3,18-23.1c15.3,9,35.3,9,52.5,7.1c-0.3,5.9,0.7,11.6-0.4,16.9
		c-3.5-0.1-1.3,11.1-1.6,13.7c1.5,7.7,1.7,15.7,6,22.4c0.1,0.1,0.3,0.3,0.2,0.4c-1.8,3.2,1,6.1,0.5,9.2c-0.4,5.8,5.3,10.6,6.7,16.2
		c-2.4,6.6-22.8,7.5-29.6,10.3c9.8,3.7,20.5-2.8,30.7-3.2c7.3,3.8,0.6,13.1,1.4,19.4c0.2,13-4.2,25.7-2.8,38.4
		c-5-1.3-9.8-3.3-14.4-6c-5-2.5-11.5-2.4-15.6-6.8c-1.5-0.9-4-3.1-5.9-2.4c-0.6,4.9,11.2,9.4,15.5,10.4c6.4,1.6,11.4,6.3,18,7.3
		c2,0.6,3.3,1.3,3.1,3.8C173.5,681.7,181.5,697.4,187.7,714.1z"/>
	<path class="st0" d="M258.6,268.2c-15.6-13.8-33.7-21.1-54-23.6c-3.7-29-5.6-57.4-5.3-86.4c1.3-27.3,4.2-54.4,8.1-81.4
		c3.5-6.1,3.5-22.6,9.3-24.9c4.3-10.2,7.4-21.7,13.5-31.1c3.2-2.9,6-8,10.6-8.2c3.5,0.2,7,0.7,10.5,0.8
		c11.7,2.3,22.5,12.4,28.1,22.7c6.3,11.6,10,24.3,9,37.5c1.9,21.7,0.9,43.6-0.8,65.3c-1.6,21.8-7.3,42.8-10.7,64.3
		C274.6,225.8,265.7,246.9,258.6,268.2z"/>
	<path class="st0" d="M556.9,266.9c4,1.9,14.4,0.4,16.6,6.4c10.8,13.2,15.3,30.5,15.4,47.4c1.3,14.3-1.4,28.2-3.5,42.3
		c-0.7,3.9-3.2,7.5-3.3,11.5c0,2,0.2,3.9-1.6,5.4c-0.4,0.3-0.6,1.1-0.5,1.5c0.8,4.4-3.3,8-3.9,12.3c-3,13.2-9,25.3-12.5,38.3
		c-3.9,8.1-5.8,16.7-9.8,24.6c-6.5,2.9-4.4,9.9-7.6,14.8c-3.7,7.2-5.8,15.1-11.6,20.8c-2.4,3.2-3.7,8.7-7.2,11
		c-13.3,4-31.8-0.3-36.9-14.4c-0.1-4.9-0.2-9.9-1.1-14.7c0.4-5.6,1.7-11.2,1.4-16.8c0.5-6.6-1.3-13.1-0.5-19.4
		c-2.6-33.8,2.9-68.3,10.8-101.2c2.4-8.3,4.8-16.7,7.4-24.9c6.4-4.4,9-11.5,12.8-17.8C530.2,280.8,538.1,267.2,556.9,266.9z"/>
	<path class="st0" d="M425.1,251.5c1.9,1.5,3.5,2.2,5.7,1.4c6.4-1.3,13.2,1.2,19.7,1.6c16.1,8.7,18.8,30,21.3,46.6
		c3.9,47.8-1.7,95.8-12.5,142.4c-1.5,5.1-3.5,10.5-4.1,15.9c-1.4,3-5.5,1.4-8.2,2.2c-6.2,0.8-12.7,2.4-18.7,3.8
		c-1.4,2.7-4.3,2.2-6.5,3.1c-7,2.7-13.3,6-19.2,10.9c-15.2-55-13.8-112.7-8.2-169c0.3-4.1,0.3-8.2,0.9-12.2c3.5-5.3,5.4-11.7,6.6-18
		c1.8-4.4,1.2-10.9,5.1-13.8c1.5-1.1,3.4-2,4.3-3.5C414.2,257.3,420.2,255.4,425.1,251.5z"/>
	<path class="st0" d="M84.2,362.4c59.8,12.3,21.8-2,38.3,40.5c5.5,18.4,17.4,21.8,34.7,25.8c9.1,0.5,18.9-0.8,27.5-3.8
		c5.1-4.5,12.2-7.5,14-14.5c0.4-2.8,2.8-5.2,1.2-8.1c-0.5-0.9-0.6-2.3-0.3-3.2c1.2-3.1-0.4-5.6-1.2-8.3c-0.2-6.5-3.2-12.8-6.5-18.6
		c12.2-1.7,24.3-1.2,36.4-3.1c1.5-0.1,2.4,0,1.7,2.2c-3.8,11.7-5.4,25.6,0.5,37c10.3,15.9,37.5,13.7,47.9-1.3
		c11.6-14.4,11.7-35.8,6.1-52.7c0.9-0.6,1.7-1.2,3.1-2.1c6.9,31.8,5.9,65.3-6.4,95.7c-5.4,5.9-13.9,8.6-20.5,13.4
		c-14.4,10.2-31.3,15.5-47,23.2c-13.8,7.1-29.2,9.2-43.7,14.5c-11.2-2.1-21.5-6.7-31.3-12.5c-0.8-0.4-1.7-1.2-2.5-1.1
		c-5.5,0.7-8.7-2.8-11.7-6.3c-4.9-5.3-10.5-9.6-14.7-15.7c-16.7-16.3-19.5-36.8-25.5-58.1c0.1-9.2-0.4-18.2-1.8-27.3
		C81.4,372.5,84.6,368.4,84.2,362.4z M227,452.2c13.9-1.7,22.5-12.2,11.6-23.9c-5-4.9-12.6-4.2-3.3,1.5
		c13.4,13.3-7.2,20.4-18.6,20.9c-7.3,2.1-9.5-10.4-15.8-8.8c-1.6,1.8,0.4,4.9,1.4,6.5c4,7.2,11.6,5.5,18.4,5
		c4.8-1.8,8.1,13.4,10.9,17.3c-5.9,5.5-17.1,0.9-22.7-3.5c-2.1-2.1-6.2,1.7-2.9,3.3c6.3,5.7,16.4,8.4,24.6,5.8
		c4.3-1.9,11.3-6.8,11.1-11.9c-2.6,0.3-4,2.8-6.1,4.2C232.6,471.6,228.7,454.5,227,452.2z"/>
	<path class="st0" d="M534.6,596.8c3-10.1,0.9-20.5,2.4-30.7c0.2-3.5-0.4-4.1-3.8-4.3c-12.4-0.5-24.7-1.4-37-2.4
		c-19.7-2.9-39.3-4.5-59.2-6.5c-25.2-3.3-49.7-7.2-74.6-11.9c4-14.5,13.5-26.5,21.7-38.8c6-9.2,16.5-14,24.8-20.8
		c7.8-6.1,16.8-9.9,26.5-12.2c6,0.1,11.6-2.6,17.5-3.1c9.5-0.6,18.9,0.8,28.4,1.3c3.4,0.2,1.4,4.9,2.7,7c-1.1,4,0.6,8,0.2,12
		c-0.3,2.4,0.5,4,2,5.8c5,9.4,13.9,14.4,24.1,16.7c4.9,1.4,10.1,2,15,0.2c9.3-1.5,9.7-10.4,14.9-16.3
		c32.7,22.2,41.1,70.4,18.6,102.5C546.2,607,541.6,624.5,534.6,596.8z M461.3,542.5c10,0.1,36.5-48.7,14.5-40.5
		C469.4,505.2,446.9,542.4,461.3,542.5z M427.9,538c0.1,0.2,0.2,0.4,0.3,0.6c7.1-2,6.7-10.1,8.4-16c0.7-6.7,5.5-33-6.9-29.4
		C423,497.7,417.6,536.9,427.9,538z"/>
	<path class="st0" d="M224.4,364.1c-10,1.5-20,2.2-30.1,2.9c-4.2,0.8-5.5,0.2-7.1-3.8c-10-25.2-24.6-48-38.1-71.4
		c-2-2.6-4-4.2-2.7-7.8c0.9-3.5,1.2-7.2,2.7-10.5c2.4-5.9,0-16.2,8.2-17.3c22-4.4,46-7.7,67.2,1.5c4.3,1.6,16.6,3.9,16.9,9
		c0.7,21.1,0.2,41.9-1.4,62.9c-1.5,11-0.3,22.5-4,33c-3.2,1.9-7.8,1-11.5,1.7C224.4,364.2,224.4,364.1,224.4,364.1z M220.2,283.2
		c0-1.9-0.9-2.7-2.5-2.4c-13.3,1.9-26.5,3.7-39.7,6.3c-2.4,0.4-3.1,1.7-1.8,3.8c9,14.9,18.6,29.4,28.4,43.7c1.4,1.8,5.8,9.9,6.9,4.3
		C214.9,320.6,216.9,301.6,220.2,283.2z"/>
	<path class="st0" d="M377.5,549.9c-3.8,18.3-7.5,33.8,8,47.8c31.5,19.3,56.8-3.8,55.8-37.5c4.6,0.4,9.5,0.8,14.9,1.2
		c-10.9,18.8-11.4,44.1,13.3,50.7c10.4,3.8,22.2,2.2,32.5-0.8c10.3-4.8,17.7-13.3,22.2-23.7c2.5-6,3.1-12.3,3.8-18.3
		c-1.1-3.5,0-4.7,4.2-3.9c-0.5,6.7-1,13.5-1.4,20.3c-0.1,7.9-2.9,16.4,1.6,23.6c4.1,5.3-2.8,10.6-4.9,15.3
		c-8.3,9.7-22.1,13-32.8,19.4c-18.6,8.6-38.6,11.8-59,12.1c-2.5,0.1-4.8,0.1-7.3-1.5c-4.3-2.8-9.6-4.1-14.3-6.2
		c-6-4.2-12-8.4-18-12.7c-22.5-19-28.1-57.5-20.7-84.8C375.6,549.4,376.4,549.3,377.5,549.9z M432.7,625c6.7,0.4,12-1.8,14.6-8.2
		c0.9-1.2,0.4-2.1-0.5-3.1c-2.1,1.7-3.4,5.7-5.6,6.5c-6.6,2-13.3,1.5-19.5-1.9c-3.2-2.8,2.1-6.6,0.2-9.9c-3.3,0-3.9,3.7-5.3,6
		c-3.9,9.2,7.7,9.8,13.9,11.5c-0.6,2-1.2,4.2-1.8,6.4c-13-3.7-20.9-14.3-30.5-22.8c-0.2,0.2-0.4,0.4-0.7,0.6
		c2.4,9.2,15.9,13.4,17.7,21.7c-1.4,7.6,7.5,7.2,12.4,9.7c4,1.6,4.9,1.5,7.1-2.1c3.3-3.3,10.3,0.6,14.7-0.6
		c12.8-1,28.6-3.3,37.1-13.8c-1.3-0.3-1.2,0.1-2,0.5c-6.3,5.1-13.8,7.6-21.6,8.9c-10.1,1.4-20.4,2-30.4-0.6
		C428.8,632.9,432.6,627.2,432.7,625z"/>
	<path class="st0" d="M165.9,510.8c-0.5-1.3-4.6-6.8-0.6-6.7c10.9,0.3,21.3-4.8,31.6-7.6c15.9-5.6,30.8-13.8,46.3-20.1
		c15.2-10.4,54.5-27.6,59.1-44.4c-5.3,2-8,7.1-12.7,10.5c9.4-24.5,11.2-51.6,8.9-77.5c8.5,3.3,18.3,23.1,21,31.9
		c3.4,10.8,6.1,22.2,3.9,33.5c0,0.4,0.3,1.1,0.1,1.3c-2,2.5-0.8,5.5-1.6,8.2c-0.7,2.4-1.5,5.1-2.5,7.3c1.4,6.9-7.5,17.8-10.8,24
		c-14.9,21.2-41.4,30.5-65.7,36.1c-9.1,2.2-18.3,4.3-27.6,5.6C198.8,512.4,182.5,512,165.9,510.8z"/>
	<path class="st0" d="M433.6,666.3c3,1.5,5.4,2.8,8.1,4.1c10.9,0.5,20.1,8.2,31.4,7.1c11.1,0.4-3.8,5.7,17,27
		c-6.5,8.8-5.8,24.8,3.7,31.4c2.5,5.5,0.1,17.4,10.5,12.8c1.8,2.9,4.5,5.7,3.1,9.4c-2.3,9.5-4.8,19.1-7,28.6
		c-0.8,7.9-16.7,7.4-23,9.2c-3.9,0-17.3,0.3-12.4-6.6c0.8-1,1.5-2.3,1.5-3.5c0.1-6.1,0-12.2-0.2-18.3c0-1.6-1.1-2.1-2.7-2.2
		c-13-1.8-18.4,3.2-18.4-13.5c0.1-1.7-0.1-4.9,2.2-5.4c11-2.7,23.2-2.1,33.7-6c-0.1-0.3-0.2-0.5-0.3-0.8
		c-10.5-0.5-36.6,9.2-41.7-2.3c-4.4-8.9-9.7-18.9-3.4-28.4c1.9-3.3,4.2-2.7,6.9-2.8c12.4-0.2,24.8-0.6,37.1-1c0.6,0,1.3-0.8,1.9-1.2
		c-12.7-2.6-26.7,1.9-39.5-0.8c-4.5-2.8-4.7-9.5-6.5-14C433.2,681.5,431.3,674.4,433.6,666.3z"/>
	<path class="st0" d="M90.9,295.2c6.2,11.5,20.8,7.3,31.2,7.4c7-2,17.9-5.6,22.5-11.1c17.1,22.9,30.4,49.4,41.5,75.6
		c-3.4,1.5-6.5,0.6-9.8,0.2c-6.1-0.2-12.3,0-18.4-0.5c-10.9-0.4-22.6,1.7-32.9-2.7c-5.6,0.1-11.4-0.7-17.1-1.7
		c-4.2-0.7-8.5-0.5-12-3.3c-2.2-1.5-5.3-2.5-8-2.5c-5.6-0.8-10.4-3.5-15.5-5.8c-2.3-2.9,2-11.7,2.8-15.4
		C78.6,321,84,308.5,90.9,295.2z M112.3,327.4c1.8,12.2,13.3,19.6,24.8,12.6c2.5-2.3,6.2-11,5.1-14.3c-3.4-7.8-14.8-17-22.2-8.8
		C115.6,319.9,112.8,320.7,112.3,327.4z"/>
	<path class="st0" d="M435.5,703.1c-3.8-0.7-7.8-1.6-11.6-2.3c-3.4,0.9-6.4-0.4-9.6-1.3c-0.6-0.2-1.3,0.3-2,0.5
		c1.4,4.7,16.6,4.4,21.5,6.2c-8.8,11.5-2.2,25.6,3.8,36.8c-3.5,0.7-27.3-4.3-21.9,2.4c8.6,2.7,18.1,0.4,27.1,1.3
		c0,5.5,0,10.8,0,16.5c-6-0.6-3.5,4.1,0.9,3.8c3.4,0.2,4,0.6,3.9,3.9c-0.2,5.4-0.4,10.8-0.6,16.1c0.6,2.7,2.6,3.9,4.5,6.4
		c-10.5,3.3-22.4,0.6-32-4.3c-6.2-6.4-10.6-30-9-39.3c1.4-5.8-6.3-6.2-6.9-11.6c-4.3-10.6-6.4-22.9-1.4-33.7
		c5.7-10.1,8.9,1,3.6-16.6c-2.5-6.5-0.8-12.7,1.6-19c7-2.6,16.1-1.4,23.9-2.4c-2.2,12.3-0.1,24.3,4.7,35.9
		C435.8,702.7,435.7,702.9,435.5,703.1z"/>
	<path class="st0" d="M435.1,661.2c22-0.1,43.8-2.7,63.3-13.5c31.6-10.8,60.1-37.3,75.3-66.8c3.6,8.2,1.3,16.8,0.4,25.2
		c1.6,19.8-9.3,39.1-25.9,49.8c-16.7,13-39.4,14-59.8,15.8c-10.5,3.1-22-0.8-32.2-3c-8-0.9-13.8-5.3-21.2-7.4
		C434.9,661.4,435,661.3,435.1,661.2z"/>
	<path class="st0" d="M178.4,422.4c-11.3,5-23.9,3.6-34.7-1.9c-4.6-0.5-8.9-3-11.9-6.5c-5.3-5.6-12-25.2-9.8-32.6
		c0.6-3.1-1.1-11.1,3.1-11.5c19.2,1.3,38.7,2.5,58,2.1c9.5-0.8,11.7,14.4,13.7,21.2c1.1,2.6-0.8,5.1-0.1,7.7
		c0.3,1.1,0.4,2.2,0.7,3.7c-2.4,3.8-5,8-7.5,12C185.1,400.2,173.9,410.5,178.4,422.4z"/>
	<path class="st0" d="M238.7,362.6c4.6-32.1,7.1-63.8,5.6-96.2c27.1,15.8,45.7,43.6,55.2,73.1c2.8,4.9-24.8,13-28.8,13.7
		C260.5,358.7,249.7,358.8,238.7,362.6z M268,322.4c5.1,0.1,7.6-4.5,8.6-8.6c3.7-8.9-1.2-19.6-11.7-19.3c-7.1,4-12,15-8.2,22.7
		C259.1,321.7,264.5,320.8,268,322.4z"/>
	<path class="st0" d="M455.7,570.1c4.8,6.6,12.1-0.6,10-7.4c19.4-0.5,38.7,2.5,58.5,3.4c1.2,17.5-7.9,37.7-25.4,43
		C470.1,616.6,441.1,603.1,455.7,570.1z"/>
	<path class="st0" d="M480.7,678.7c14.6-1.7,29.2-2.1,43.8-5.5c-5.2,9.4,10.5,8.4,10.9,32.6c0,9-3.3,17-7.5,24.6
		c-2.9,2.5-7.4,3.5-11.2,3.3c-6.1-1-17.9,3.7-21.6-2c-4.2-7.9-8.4-19.6-0.6-26.6c1.5-1,1.2-3.4-0.4-5.1
		C488.1,694,483.1,686.9,480.7,678.7z"/>
	<path class="st0" d="M78.3,409.5c1.2,19.6,9,38.7,20.8,54.2c8.5,10.2,20.1,17.5,30.8,25.1c8.7,5.3,17.4,10.9,27.1,14.1
		c3.2,1.1,3.1,4.2,4.1,6.9c-18.6,1-37.2-0.8-53.8-9.8c-10.4-8.4-21-17.2-29.5-27.6C65,451.6,64.5,429.7,77.5,409
		C77.8,409.1,78,409.3,78.3,409.5z"/>
	<path class="st0" d="M282.1,354.8c0.9,5.3,2.6,10.2,3.4,15.3c-1.4,12.4-0.2,28.3-11.9,36c-3.9,2.5-4.1,7.4-10,6.3
		c3.9-17.3-16.1-13.2-10.1,2.6c-5.9,0-13.1,0-16.8-5.2c-4.4-7.7-8.1-16-7.2-25c1.5-5,2.7-10,3.5-15.3c2.3-3.6,9.7-2.7,13.6-4.3
		C259,362.8,269.8,359.3,282.1,354.8z"/>
	<path class="st0" d="M438.2,560.2c-0.3,4.1-0.2,8.5-0.6,12.5c-2.8,2.6-1.1,6.4-2.6,9.4c-3.3,7.2-7.7,16.1-16.5,16.9
		c-5.2,6.1-21.6,0.7-27.6-2.8c-12.6-6.3-14.6-23.7-12.7-36.1c6.3,5.3,12.4-3,9.2-9C404.3,555.6,422.1,553.5,438.2,560.2z"/>
	<path class="st0" d="M334.9,657.2c-22.6,8.9-46.5,6.4-70,2.8c0-9.2-2.1-18-2.1-27.1c23.1,1.4,45.5-3,67.5-9.6
		c1.3,5.3,3.1,10.7,4.7,15.8c0.3,3.7,4.1,7.4-0.1,11.2C333.5,651.6,333.8,653.1,334.9,657.2z"/>
	<path class="st0" d="M404.7,667.3c-4.2,8.7-4.8,17.1-2.3,26c0.7,3.6-4.6,5.6-5.6,8.8c-1,2.2-2.4,3-4.5,2.9
		c-16.7-0.8-34.9-3.9-45.8-17.8c-1.8-4.2-6.3-13.2-4.1-17.3c4.7-4.7,8.6-9.8,12.4-15.3c1.2-1.8,3.4-1,5.2-1.4
		c8.1-0.2,19.6,6.7,21.2,14.9c0.3,1.7,1.1,1.9,2.5,1.1c2.6-1.5,4.9-4.1,8.4-2.4C396.2,668.1,399.9,667.5,404.7,667.3z"/>
	<path class="st0" d="M34,503.2c4.3-30.3,13.3-15,16.1,4.6c2.1,7.7,12.1,13.5,6,21.9c-3.8,8.3-9.4,15.2-17.9,18.6
		c-1.4,0.7-3.9-0.3-5.6-1.2C-18.4,527.6,10.3,483.9,34,503.2z M26.7,501.3c9.1,8.2,3.1,20.8-2.6,29.1c-1.2,1.8-4.5,1.9-6,3.8
		c7.1,2.6,13.6-6,15.8-12.2C36.6,514.8,35.4,503.2,26.7,501.3z"/>
	<path class="st0" d="M276.4,782.3c-4,4.6-3,10.2-4.8,15.5c-5.6,1-8.1,9.1-14.6,9.4c-2.8,0.2-6,0.3-8.1,1.8
		c-4.2,3.1-9.1,0.3-13.2,2.3c-10.6,3.9-25,5.3-34.1-2.5c-0.3-0.2-0.5-0.8-0.4-1.1c0.9-2.1-0.1-4.7,2.1-6.4
		c3.4-5.7,5.6-12.2,5.1-19.1C230.8,786.7,254,786.5,276.4,782.3z"/>
	<path class="st0" d="M123.7,765c19.5,8.5,40.7,10.2,61.4,13.6c-0.5,3.4,1.3,7.8-1.2,10.3c-2.9,5.4-9.6,2.8-13.7,7.2
		c-6-5.7-15.4,4.6-23.5,1.3c-3.5-1.2-6.9-0.4-10.3,1.5c-5-1.1-22.8,2.3-23.1-4.2c-0.6-5.7,4.2-9.2,7.2-13.3
		C122.3,776.2,121.3,770.2,123.7,765z"/>
	<path class="st0" d="M428.6,662c-12.1,1.7-24.1,4.5-35.7-0.8c-13.6-3.3-21-14.7-27.2-26.2c-3.9-14.2-6.5-30.6,0.3-44.8
		c1.7,6.6,3.5,13.4,5.3,20.2c-0.1,0.1-0.2,0.2-0.3,0.2c-1.1-1.6-2.2-3-4.2-3.4c2.2,10.8,21.2,31.1,31,36.9
		c8.6,5.4,16.7,12.2,27.1,13.9c1.5,0.2,2.7,2.2,4,3.3C428.8,661.6,428.7,661.8,428.6,662z"/>
	<path class="st0" d="M272.2,664.9c17,2.5,32.5,5.2,49.7,2.8c-2.7,6.8-3.1,12.7-9.5,16.4c-5.7,3.2-10.9,4-15.7-0.7
		c-3.9-2.5-4.1-7.5-7.3-10.9c-1.1-1.5-0.8-4.1-3.3-3.2c-3.8,1-3.4,5-6,7.3C272.8,681.8,271.8,669.9,272.2,664.9z"/>
	<path class="st0" d="M498.6,738.5c8.3,0,16.5,0,24.9,0c-1.2,9.7-9.6,22.4-15.8,7.6c-0.6-1.2-1-4.3-2.8-2.5
		C500.5,750,497.7,743.6,498.6,738.5z"/>
	<path class="st0" d="M337,669.7c-9.7-10.3,10.8-4.8,3.4-12.2c-1.1-1.3-3.4-2.9-2-4.9c1.3-1.7,2.7-3.2,5.1-2.2
		c2.3,0.9,4.6,2.1,7,3.3C345.7,659.3,341.4,664.5,337,669.7z"/>
	<path class="st0" d="M36.7,554c-5,1.9-8.9,6.2-15.3,6.4c1.4-4.4,2.6-8.4,4-12.8c4,2,7.6,3.8,11.2,5.5
		C36.6,553.4,36.7,553.7,36.7,554z"/>
	<path class="st0" d="M339.6,645.9c0-0.5-0.1-1.3-0.2-2.6c2.4,1.2,4.4,2.3,6.4,3.3c0,0.1,0,0.2-0.1,0.3
		C343.8,646.6,341.9,646.3,339.6,645.9z"/>
	<path class="st0" d="M178.5,290c12.7-2,25.6-4.1,38.5-6.1c-2.5,17.1-5.1,34.1-7.6,51.1c-0.3,0.1-0.6,0.1-0.9,0.2
		C197.6,320.9,188.5,304.8,178.5,290z"/>
	<path class="st0" d="M433.2,637.1c-0.9,5.6-9.5-1.1-13.1-1.3c-2.6-1-3.1-2.2-2.3-5.5C422.8,632.5,427.9,634.8,433.2,637.1z"/>
</g>
</svg>
