<?xml version="1.0" encoding="utf-8"?>
<!-- Generator: Adobe Illustrator 26.0.0, SVG Export Plug-In . SVG Version: 6.00 Build 0)  -->
<svg version="1.1" id="Capa_1" xmlns="http://www.w3.org/2000/svg" xmlns:xlink="http://www.w3.org/1999/xlink" x="0px" y="0px"
	 viewBox="0 0 595.3 691.2" style="enable-background:new 0 0 595.3 691.2;" xml:space="preserve">
<style type="text/css">
	.st0{fill:#FFFFFF;}
</style>
<g>
	<path d="M148.5,407c8.6,0.5,17,1,25.7,1.6c-17.7-50-58.3-149.8-37.8-199.2c7.5-15.5,28.6-14.8,42.6-9.6
		c19.9,8.4,29.6,29.7,38.4,48.1c2.3,5.2,4.3,10.8,6.1,16.3c-0.3,9.7,4,18.6,5.4,28c6.4,30.9,7,62.3,5.5,93.7
		c-0.8,13-1.7,25.9-2.7,38.9c-0.1,1.8,0.3,2.7,1.8,3.7c15.7,9.7,21.2,27.2,23.9,44.4c0.3-38.7,6-55,47.4-58.2
		c-36.6-33.7-43-91-25-135.7c1.4-6.5,10.7-16,9.1-21.7c-5.8-15.1-12.3-29.7-19.5-44.2c-24.5-57.2-54.8-124.6-33.8-187
		C242.7,4,267.8-6.6,288.2,4.9c39.6,22.1,42.7,89.6,46.2,130.4c4.8,34.1,2.3,68-0.4,102.2c9.9-6.8,20.7-8.8,32.3-8.1
		c-11-34.7-16.1-70.8-14-107.1c1.7-35-0.3-79.9,23-108.2c10.3-9,26.3-8,37.7-1.8c37.5,20.2,37.6,85.9,36.3,123.5
		c0.3,30.7-5.4,60.9-10,91.1c0.1,5.8-5.8,23.5-2.6,26.8c18.6,15.7,24.8,40.2,27.4,63.4c2.1,20.2-3.5,39.9-9.5,59
		c-33.8,79.2-47.5,4-5.7,111.3c2.4,4.1,2.8,10.8,7.2,13c26.8,1.6,53.6,2.6,80.4,3c13-2.4,26.3-4.5,39.5-5.9
		c25.9-5.5,19,20.1,16.3,36.2c-1.1,3.3-2,9.9-6.7,8.6c-13.1-4.2-26.7-4.9-40.2-6.4c-1.3-0.1-2.6,0.1-3.2-1.6
		c-0.1-0.3-1.1-0.4-1.6-0.4c-12.7,0.5-25.4,1.2-38.1,1.6c-6.5,1.1-20.9-2-25.4,1.2c-2.7,3.7-3.8,9.6-9,10.2c-0.4,0-0.9,0.5-1.1,0.9
		c-6.8,14.1-27.2,10.3-36.8,1.5c-1.4,2-2.4,4.4-4.2,5.7c-7.7,6.6-2.6,21.9-3.3,31.1c1.6,26.2-1.8,52.5-3.4,78.6
		c19.3,6.1,2.3,20.9-10.4,20.5c-11.8,0.7-23.3-0.9-34.5-4.6c-6.2-2-9-5.6-8.6-12.1c1-17.3,2.2-34.6,3.3-51.9
		c0.5-17.7,4.4-15.7-14.2-16.8c-0.5,0-1.6,1-1.6,1.6c-0.7,9.6-1.4,19.2-1.9,28.8c-0.7,11.7-1,23.5-2.2,35.2c-0.4,3.8,0.4,5.9,3.4,8
		c2.8,1.9,4.4,4.9,4.2,8.4c-2.4,16.9-50.1,5.5-58.1-3.7c-5.8-5.8-0.5-23.1-1.3-31.5c1-23.7,2.2-48.1,2.8-71.7
		c-26.1-3.5-52-18.5-54.4-47.1c-9.6,19.4-24.1,35.5-44.6,42.5c6.4,12.7,20.5,42.8-1.6,46.5c-2,0.1-2.4,0.8-2.5,2.6
		c-0.4,13.1-0.8,26.1-1.4,39.2c-1.7,7.8,2.2,20.9-7.2,24.3c-32.3,9-24,3.3-24.7-23.2c-3.7,1.5-14.7,1.2-15.6,4.7
		c1.2,4.9-1.1,14.1,3.8,16.7c1.5,0.5,2.9,1.6,4.1,2.8c7.4,9.4-34.6,7.8-38.6,4c-4.5-4.8-4.2-15.2-6.4-21.6
		c-4-17.1-6.9-34.5-3.2-51.8c-7.8-13.1-1.5-30.3,2.2-44c0.4-3.5,8.5-13,5-14.7c-24.8-17.6-33.4-49-31.5-78.1
		c1-19.2,4.3-41.2,19.9-54.3c-21.2-23.5-40.3-48.8-59.2-74.1c-17.9-25.3-33.4-52.7-40-83.2c-4.4-14.5-6.4-29.9-0.6-44.4
		c4.6-15.6,20.1-24.8,36-22.4c21.5,2.5,35.6,19.9,49.7,34.5c16.4,15.3,23.6,37,32.9,56.9C138.2,327.6,146.6,367,148.5,407z"/>
	<path class="st0" d="M444.5,126c0.6,42.5-7.8,83.9-13.8,125.8c-0.5,3.7-0.6,3.8,2.7,5.5c8.2,8.2,15.5,17.6,19.4,28.8
		c14.8,43.1,4.1,96.4-29.3,128.1c-13,11.1-30.5,16.1-47.3,18.2c-69.4,6.4-110.6-58.2-99.8-122c2.1-13.3,5.9-26.1,11.6-38.3
		c6.4-13.7,11-10.7,2.5-25.3c-20.5-44.7-43-89.7-52.8-138.2c-4.7-25.5-8-52.1,1.3-77c3.9-10.3,9.9-22.1,21.5-24.6
		c16.4-4.2,33,3.2,42,17.4c15.6,20.6,18.1,47.2,23.1,71.7c3.5,36.4,8.9,72.8,5.6,109.4c-0.6,12.5-2.9,25.1-1.9,37.6
		c-0.8,3.1,2.3,1.8,3.7,0.8c15.7-13.1,38.8-11.7,56.6-3.9c2.9,1,6.2,3,9.3,2.3c0.1-5.6-19.8-11.1-25-12.1c-0.7-0.1-1.8-0.8-2-1.4
		c-12-30.3-15.5-62.4-14.9-94.8c0.1-29.8,1-60,8.5-89c2.3-7.9,4.9-15.6,9.3-22.6c14.5-19.1,43.1-7.4,52.6,10.8
		c16.8,27.7,17.2,61.5,17.4,93C444.8,126,444.6,126,444.5,126z M337.7,368.5c8.7-1.4,18.6-0.9,25.4-7.4c1.5-1.3,2.3-3.6,4.8-3.5
		c6.4-14.9,2.4-31.8-6.1-45c-12.5-22.5-50.6-32.1-63.6-5.1C283.3,338.6,304.1,367.6,337.7,368.5z M453.2,323.1
		c2.3-41.2-44.3-46.3-57.8-10.6c-13.1,27.8,2.8,65.6,37.6,51.1C447.9,356.5,453,338.7,453.2,323.1z M397.9,408.9
		c-8.5,1.3-14.4-1.8-19.2-8c-1.1,3.8,2.3,6.2,5,8c8,5.7,22.4,5.9,26.4-4.6c-3.4-1.4-5.9,2.8-8.9,4.2c-1.2-5.5-2.3-10.6-3.4-15.9
		c6.8-3.1,13.3-7.9,9.9-16.1c-1.1-2.2-2.5-5.8-5.3-6.2c-0.6,4.8,5.7,9.1,1.1,13.8c-8.7,10.4-26.1,8.1-28.2-6.5
		c-3.9,11.3,7,16,15.9,15.7C397.6,392.5,395.8,404.5,397.9,408.9z M355.5,264c-1.5-3.6-6.8,3.1-9,4.1c-1.7,1.6-2.5,3.8-1.6,6.1
		c2.4-0.4,3.6-2.4,5.5-3.4C353.2,269.7,355.6,267,355.5,264z M402,280.9c-2.8-3.5-5.6-8.6-10.1-10c-1.2-0.2-2.2,1.4-1.5,2.3
		C392.9,274.8,399.9,285.5,402,280.9z"/>
	<path class="st0" d="M188.9,533.4c-1.4,3.6-0.3,10.3-5.1,11.2c-9.1,1.2-17.2-3.3-20-12.1c-3.4,8.1,7.5,14,14.2,15.1
		c1.4,10-15.3-0.4-20.2,0.3c-15.1,0.8-5.7,16.9,1.1,22.1c-43.3-6.6-72-39.7-71-83.7c0.3-20.6,2.1-44.1,18.1-59
		c1,1.8,10.1,10.2,8.9,4.6c-10.3-15.7-24-28.9-35.6-43.6c-30.2-38.3-62.8-78.1-71-127.6c-12.2-43.8,18.7-74.5,57.6-42.1
		c35.1,27.9,52.8,69.8,65.3,111.7c8.1,25.6,10.8,52.3,12.3,79c0.1,2.8,2.9,4.9,5.1,3.5c0.5-5.4,38.1,2.2,42.6,4.8
		c3.2,0.5,8.9,6.1,11.4,3.1c-1.7-5.2-11.3-6.1-15.7-8.8c-4.4-0.7-7.6-1.7-8.8-6.5c-18.9-56.4-43.7-113.4-41.4-174
		c1.2-26.5,15-33.9,39.6-26.4c20.7,8.1,29.1,31.2,38.5,49.6c5.3,24.4,13.7,48.7,14.5,74c1.6,32.1,0.5,64-3,95.9
		c0.3,2.4-1.3,7.8,2.4,7.4c0.9-0.2,2.1,0.2,2.9,0.7c47.1,37.5,12.1,129.3-44,137.3c11-7.2,6.5-20-6.8-17.3c-0.7-9.2,7.4-0.6,9.2-10
		c0.6-3.1,1.7-6.7-0.4-9.5C189.3,533.1,189.1,533.2,188.9,533.4z M141.5,524.7c50.8-2.9,31.8-70.9-13.8-67.5
		c-17-0.5-28.6,17.1-28.8,32.8C97.8,511.9,121.7,525,141.5,524.7z M211.7,533.3c39.2,2.9,42.7-62.9,5-65
		C176.8,467.7,163.5,535.6,211.7,533.3z"/>
	<path class="st0" d="M416.6,563.7c1.2,24.6,2,48.4-0.5,72.7c-0.5,10.1-2,20.2-2.5,30.3c-0.2,6,6.6,2.4,9.3,6.2
		c-12.4,12.9-33.7,5.9-48.7,1.7c-1-0.3-2.1-2-2.1-3.1c-1.2-22.7,1.7-45.1,3-67.7c1.4-12.9-16-7.4-24-9.7c-1.9-0.2-2.7,0.5-2.8,2.5
		c-0.7,13.2-1.8,26.4-2.2,39.6c-0.3,10.8-0.9,21.5-2.4,32.2c-1.4,5.9,1.7,7,6.4,9.5c11.2,14.3-52.7,4.6-48.1-8.3
		c1.2-31.1,3.3-62.2,3.8-93.4c0-1.1,0.1-2.1,1.7-2.1c9.8-0.6,19-3.3,27.7-7.5C366.4,553.4,377.2,584.4,416.6,563.7z"/>
	<path class="st0" d="M178.7,654c-10.6,1.6-21.2,3.5-31.8,5.3c-0.6,0.1-1.5,1-1.5,1.5c0.1,6.1,0.2,12.2,0.6,18.3
		c0.9,3.3,3.9,4.3,6.9,6.5c-8.7,1.8-28.3,5-34.4-2.1c-5.7-21.7-12.5-44.4-7.7-67c13.6,4.4,25.7-9,27.8-21.4
		c3.1-8.7,14.2-11.4,7.6-23.3c11.7,3.3,22.5,4.7,35,4.4c-2.5,3-5.8,4.1-4.6,8.3c1.4,3.8-1.2,10.1,4,11.2
		c-0.9,5.6,6.5,19.5,13.5,20.7c-1.6,19.9-0.1,40.3-3.4,60.1c-4.4,5.8-16.5,7.2-23.6,7.4c-0.1-7.9,0.3-15.3-0.2-23
		c0.2-4.7,8.8-3.8,11.9-6.3C178.8,654.4,178.7,654.2,178.7,654z"/>
	<path class="st0" d="M449.9,499.7c-4.6-0.2-9.1-0.4-13.7-0.6c-2-11.9-7.8-23-17.4-30.2c-9.2-4.9-7-6.3-9.3-15.5
		c-0.2,0-0.5,0-0.7,0.1c0,2.8,0,5.7,0,8.7c-17.2-7.2-33.6,4.4-51.1,4.2c-16.4,0.7-25.3-15-40.4-18.3c1.6-0.5,3-0.9,4.3-1.4
		c0-0.3-0.1-0.5-0.1-0.8c-13.4-2.4-32.8,4.5-31.6,20.9c0.4,7.7,1.2,15.6,1.5,23.3c0.2,5.6-0.2,6.3-5.8,7.3
		c-4.3,0.8-8.8,1.3-13.2,1.4c-4.5-0.3-10.1-2.9-10-8.1c-2.6-16.5-2.5-33.4,2.1-49.6c3.3-16.7,20.3-19.8,34.6-22.2
		c4.1-0.3,8.5-2.7,12.1,0.2c35.9,24.2,69.6,23.4,107.9,5.1c10.4,24.8,20.8,49.8,31.3,74.8C450.3,499.2,450.1,499.4,449.9,499.7z"/>
	<path class="st0" d="M257.9,481.9c0.6,6.4,2.6,12.3,4.5,18.4c1.6,6.1-1.3,18.6,7.9,18.3c0.7,0,1.6,0.3,2.2,0.7c5,4.4,9.7-1.2,9.3,3
		c0.6,2.7-1.9,12.9,1,13.3c3.9-0.2,0.9-11.4,2.1-14.6c14.3,1.2,28.4,2.2,42.6,3.1c4.6,0.9,14.1-0.8,17.3,1.9
		c2.1,7.9,12.5,13.9,20.9,14.1c9.6,0.1,16.3-4.1,21.7-11.4c2.7-2.5,6.7-1.1,10.2-1.4c-2.4,15.3,18.3,7.7,27.2,9.8
		c-4.8,18.1-19.5,32.6-39.1,30.8c-14,0.2-26-11.3-40.1-8c-15.1,3.9-28.9,12.3-45.1,10.8c-23.7-1.3-48.9-16-50.4-41.8
		c-0.6-4.4-1-8.9,0.8-13.2c4.5-10.8,6.2-22.2,6.2-33.8C257.7,481.9,257.8,481.9,257.9,481.9z"/>
	<path class="st0" d="M299,503.7c-1.3-2.9-3.8-5.5-4.3-8.6c-0.5-10.5-1.6-21.2-1.2-31.8c1.4-5.2,20.7-0.3,24.6,1.9
		c12.1,6.8,22.8,23,38.5,15.9c15.8-4.5,33.6-17.1,48.8-4.4c6.7,5.5,12.8,12.1,14.4,20.9c-6.2,0.4-12.3,0.7-18.4,1
		c-4.1-0.2-4,3-4,6.2c0.4,4.7-4.3,6-7.3,2.9c-1.5-5.3-5.6-8.2-10-10.8c-10.4-6.3-25.9-4.9-31.9,6.8c-0.7,1.3-1.4,1.7-2.8,1.6
		C330,504.4,314.4,502.1,299,503.7z"/>
	<path class="st0" d="M544.8,523.8c0.8-3.3-1.9-8.6,2.2-9.1c10.6-0.2,21.4,0,31.9-1.1c0-0.4,0-0.8,0-1.1c-10.9-2-22-1.1-33.2-1
		c0-1.6,0-3.1,0-4.7c12.9-1.6,25.6-3.2,38.4-4.8c5.4-0.7,7.2,0.6,7.3,6.1c-0.2,4.7-0.3,32.3-6.4,30.8c-12.8-2.5-25.3-6.2-38.4-6
		c-1.9-0.1-2.5-0.5-2.1-2.6c0.6-3.3,0.5-3.3,4-3.5c8.8-0.4,17.6-0.8,26.3-1.3c0.7,0,1.4-0.9,2.1-1.3c-0.7-0.4-1.3-1.2-2-1.2
		C564.7,523,555.2,523.2,544.8,523.8z"/>
	<path class="st0" d="M542.1,515.5c-0.1,2.5-0.2,5.2-0.4,8.2c-22.2,0.8-44.3-0.7-66.7,0.5c-0.2-4.7-4.7-9.2-9-5.2
		c-0.8,1.2-1.4,1-2.6,0.9c-2.2-0.2-4.9,0.3-7.1,0.7c-2.8-0.5-5.5-0.8-7.6,1.7c-14.8,0.9-30,0.7-44.9,1.3c-4.5,0.5-1.8-7.3-2.9-10.5
		C448.1,513.9,494.9,514.7,542.1,515.5z"/>
	<path class="st0" d="M432.9,498.9c-3.8-0.9-7.9,0.9-9.7-2.3c-3.3-12.2-13.1-22.7-24.8-27.3c-14.5-4.3-28.1,3.8-41.4,8.2
		c-24.2,8.8-28-23.7-62.2-19.3c11.1-14.9,30.9-6.2,41.9,4c6.1,5.7,13.5,7,21.3,7.4c8.4,0.4,16.2-1.6,24.1-4.4
		C405.5,456.4,428.7,476,432.9,498.9z"/>
	<path class="st0" d="M401.2,509.5c0-2.6,0-5,0-7.6c23.2-0.7,46.3,1.5,69.4,3.4c23.8,1.3,47.7,0.8,71.5,2c-0.1,1.4-0.1,2.6-0.2,4.5
		C495.1,511,448.2,510.2,401.2,509.5z"/>
	<path class="st0" d="M126.7,563.9c-5.2,8.2-13.8,14-13.9,24.5c4.7-3.7,6.2-9.1,10.3-13.2c3.5,7,10.2,13,11.6,20.4
		c-3.2,8.8-8.7,15.2-18,17.7c-14.4,4.1-6.2-31.2-3.7-38.2c1.9-5.3,4.6-10,7-15.1C122.6,561.3,124.8,562.7,126.7,563.9z"/>
	<path class="st0" d="M197.2,581.1c2.6,5.1,5,10,7.6,15.2c1.6-4.5-3-14.7-7.9-18.7c-3,3-4.7-1.9-6.6-3.8c2.3-0.1,5.9-3.1,7.8-1
		c5.6,8.7,9.4,18.1,10,28.6c1.9,8.4-5.5,15.4-14.1,11c-5.9-2.7-8-9.1-10.3-14.6C183.1,589.8,192,585.9,197.2,581.1z"/>
	<path class="st0" d="M293,518.6c0.1-1.2,0.1-2.2,0.2-3.1c5.6-2.2,6.6-3.4,7.2-8.5c14.2-0.4,28.6,0.9,42.8,1.7
		c2.9,0.2,2.9,0.2,2.3,2.9c-0.9,3.4-1,6.2-1.3,9.9C327.2,520.6,310.3,519.6,293,518.6z"/>
	<path class="st0" d="M460.4,544.6c-3.4-1.2-8.6-0.3-10.8-3.2c-0.8-5.9-1.7-12.2,1.7-17.6c2.2-3.2,5.5,1.1,8.3-1.2
		c4.9-2.8,4.6,5.3,9.3-1.5c3.1-2.2,3.4,1.9,3.7,4c0.6,2.7,4.2,2.8,3.7,5.5c-1.4,8.7-6.1,14.9-15.6,13.4
		C460.5,544.3,460.4,544.4,460.4,544.6z"/>
	<path class="st0" d="M376.1,523.4c-8.9-0.5-17.8-1-26.7-1.6c-3.3-1.8-0.4-7.8-0.4-11c0.1-0.6,1.4-1.5,2.1-1.4
		c11.7,0.9,23.4,2,35.1,3c3.5,0.6,0.4,7,0.8,9.6c-0.8,3.5-8,0.9-10.9,1.7C376.1,523.6,376.1,523.5,376.1,523.4z"/>
	<path class="st0" d="M265,501c24.6,4.4,26.2-10.7,31.5,5.9c2.7,8.4-7.6,1.8-6.7,8.6c-0.1,2.1-2.8,2.3-4.1,1.3
		c-1.5-1.5-2.6-1.9-4.1-0.7c-3.2,2.5-5.4,2.5-8.4-0.2c-1.2-1-2.1-1.9-3.7-0.6C265.4,515.8,266.2,503.8,265,501z"/>
	<path class="st0" d="M541.4,527c0.4,3.3,0.2,4.1-3.5,4.1c-8.6-0.1-17.1,0.7-25.7,0.9c-9.4,0.2-18.8,0.1-28.2,0.1
		c-4.3,0.3-6-0.4-5.5-5.1C499.4,527,520.4,527,541.4,527z"/>
	<path class="st0" d="M447,525.9c-0.2,2.2-0.4,4.5-0.7,7.1c-14.2-0.1-28.4,1.7-42.5,0.4c-3.1,0-1.6-4-2.1-6
		C416.6,527,431.7,526.4,447,525.9z"/>
	<path class="st0" d="M436.3,536.7c3.5-0.3,6.5-0.4,10.4-0.3c0.6,2.9-1.4,7.2,1.6,9c5,2.7,9.9,2.2,15.4,2.2
		c-7.8,10.3-21.8,7-30.3-0.2C430.8,544.6,435.6,540.1,436.3,536.7z"/>
	<path class="st0" d="M349.2,525.3c11.8,0.7,23.4,1.4,35,2.1C377.9,540.7,351.6,539.5,349.2,525.3z"/>
	<path class="st0" d="M350.9,505.8c7.8-14,28.4-10.1,35.7,2c-0.1,0.3-0.2,0.6-0.3,0.9C374.5,507.7,362.9,506.7,350.9,505.8z"/>
	<path class="st0" d="M136.2,588.9c-2.3-4.9-15.5-17-8.3-21.2c4.9-2.7,5.9-0.2,9.5,3c1.1,1.2,1.9,2.5,3.8,2.4c1.5-0.1,2.4,0.6,3,2.2
		C146.7,582.1,141.5,585.7,136.2,588.9z"/>
	<path class="st0" d="M181,592.3c-0.2-3.4-4.3-9.2,0.1-10.9c1.6-2,2.5-5.9,6.1-5.2c1.7,0.2,4.3,3,4.4,4.9
		C188.9,585.3,183.5,587.6,181,592.3z"/>
	<path class="st0" d="M391.3,512.9c1.9,0,3.8,0,5.9,0c-0.3,7.8,3.8,11.8-6.7,10.8C390.8,520,391.1,516.5,391.3,512.9z"/>
	<path class="st0" d="M166.3,568.6c-4.8-1-12.7-5.9-13.1-10.3C161.7,559.3,167,563.4,166.3,568.6z"/>
	<path class="st0" d="M419.6,556.7c4.2-6.1,7.5-12.5,9.1-19.9c1.1,0,2.3,0,3.9,0C429.2,544.2,426.3,551.7,419.6,556.7z"/>
	<path class="st0" d="M168.4,553.6c3.3,0.6,7.5-0.6,10.3,1.3c-2.4,2.7-8.6,2.7-10.6-0.8C168.1,554,168.3,553.8,168.4,553.6z"/>
	<path class="st0" d="M307.7,354.4c14.7-2.7-0.2-20.2-3.9-3.7c-18.8-25.6,1.8-68.6,35.5-52.9c19.3,6.7,41.5,48.1,19.9,61.8
		C343.3,366.7,321.2,366.2,307.7,354.4z"/>
	<path class="st0" d="M400.9,354.2c4.5,0,5.1-0.3,5.6-3.4c0.9-6-6.9-7.9-9-1.5c-11-20.8,3.6-56,28.7-57c8.8-0.4,14.6,4.2,18.6,11.5
		c8.5,16.7,6,40-8.1,52.9C426.6,365,408.6,366,400.9,354.2z"/>
	<path class="st0" d="M161.2,476c13.2,15.8,7.8,42.9-14.5,44.8c-19.8,3.2-46.9-9.1-44.8-32.2c0.6-10.6,5.9-18.8,14.2-25.1
		c10.9-7.2,28.9-1.6,39.1,5.1c1.9,1.1,1.6,2-0.6,2.9c-3.8,1.5-4.5,4.4-2.2,7.6C154.9,482.6,161,480.2,161.2,476z"/>
	<path class="st0" d="M227,474.8c-8.1,7.4,1.3,15.2,6.6,6.5c17.4,25.2-1.9,55.1-32.6,47.6C163.5,518.7,195.4,456.4,227,474.8z"/>
</g>
</svg>
