<?xml version="1.0" encoding="utf-8"?>
<!-- Generator: Adobe Illustrator 26.0.0, SVG Export Plug-In . SVG Version: 6.00 Build 0)  -->
<svg version="1.1" id="Capa_1" xmlns="http://www.w3.org/2000/svg" xmlns:xlink="http://www.w3.org/1999/xlink" x="0px" y="0px"
	 viewBox="0 0 595.3 691.2" style="enable-background:new 0 0 595.3 691.2;" xml:space="preserve">
<style type="text/css">
	.st0{fill:#FFFFFF;}
</style>
<g>
	<path d="M148.5,407c8.6,0.5,17,1,25.7,1.6c-1-2.5-2.1-4.9-3-7.4c-3.7-10.3-7.5-20.5-10.9-30.8c-5.1-15.5-10.3-31-14.9-46.7
		c-3.5-12.1-6.5-24.3-9.3-36.6c-1.7-7.3-2.2-14.9-3.7-22.3c-2.2-10.7-2.2-21.5-1.3-32.3c0.6-7.9,1.4-15.9,5.3-23.1
		c3.9-7.2,9.7-11.6,18.3-12.4c8.4-0.8,16.5-0.4,24.3,2.8c7.5,3.1,13.7,8,18.7,14.3c8.2,10.3,14.4,21.8,19.7,33.8
		c2.3,5,4,10.4,5.9,15.6c0.1,0.2,0.2,0.4,0.2,0.7c-0.3,9.7,4,18.6,5.4,28c1.5,9.6,3.2,19.3,4.5,28.9c0.9,7.1,1.5,14.3,1.7,21.5
		c0.2,9.2-0.3,18.3-0.4,27.5c-0.1,5.3,0,10.6-0.3,15.8c-0.8,13-1.7,25.9-2.7,38.9c-0.1,1.8,0.3,2.7,1.8,3.7
		c10.8,6.9,17.1,17.1,20.6,29.1c1.4,5,2.2,10.1,3.3,15.3c0.1-0.8,0.2-1.6,0.2-2.3c-0.9-11.3,1.1-22.2,4.5-32.9
		c2.3-7.3,6.6-12.7,13.3-16.1c6-3,12.4-4.6,19.1-5.4c3.2-0.4,6.5-0.9,10.3-1.5c-2.7-2.7-5.2-4.9-7.5-7.4c-7.6-8.3-12.9-18-17.1-28.3
		c-4.8-11.7-8.1-23.9-9.7-36.4c-1.2-9.3-0.6-18.6,0.4-27.9c1.4-12.3,4.5-24.2,8.9-35.7c2.3-6,5.7-11.6,8.8-17.3
		c0.9-1.6,1.1-2.7,0.3-4.4c-2.8-6.7-5.2-13.5-8.2-20.1c-3.6-8.1-7.4-16.1-11.3-24.1c-6.8-14.3-12.8-28.9-18.2-43.7
		c-3.7-10.3-7.6-20.4-11-30.8c-3.4-10.4-5.9-21-7.4-31.9c-0.8-6.2-2.3-12.3-3.1-18.5c-1.5-10.9-1.6-21.8-0.7-32.7
		c0.8-10.1,2.8-20,6.6-29.4c4-10.1,10.1-18.5,20.3-23.1c5.9-2.7,12.2-3.3,18.4-2.4c4.8,0.7,9.7,2,13.9,4.3
		c11.4,6.4,20,15.6,25.6,27.6c6.8,14.5,10.9,29.8,13.8,45.5c1.7,9,3.4,18,4.5,27.1c1.2,10,1.5,20.1,2.3,30.2
		c0.8,9.3,1.9,18.6,2.5,27.9c0.9,13,0.6,26-0.5,39c-0.9,10-1.4,20.1-2,30.2c-0.1,1.4-0.2,2.9-0.4,5.1c9.9-6.8,20.7-8.8,32.3-8.1
		c-1.2-4.4-2.2-8.4-3.4-12.3c-5.9-18.1-8.6-36.7-10-55.6c-0.7-9.1-0.9-18.2-1.2-27.3c-0.1-4,0.5-7.9,0.6-11.9
		c0.4-10.9,0.1-21.9,1.1-32.7c1.7-19.3,3.8-38.7,10.8-57c2.6-6.7,5.3-13.5,11.1-18.5c4.6-3.9,9.8-6.1,15.8-6.4
		c7.7-0.4,15.2,0.7,21.9,4.6C422.6,17.5,430,25,434.9,35c6.1,12.2,9.5,25.3,11.5,38.7c1.4,9.7,2.4,19.4,3.6,29.1
		c0.2,1.8,0.1,3.7,0.1,5.5c-0.2,9.2-0.6,18.3-0.8,27.5c-0.2,14.3-0.7,28.6-2.7,42.8c-2.3,16.1-4.8,32.2-7.3,48.3
		c-1.2,8-2.5,16-3.8,24c-0.2,1.3,0.2,2,1.2,2.8c10.6,9.1,17.3,20.6,21.4,33.8c3,9.7,5,19.5,6,29.6c0.9,10,0.5,19.9-1.7,29.6
		c-2.2,9.9-4.5,19.8-7.8,29.4c-5.4,15.8-14.3,29.7-26.8,41c-1.3,1.2-2.7,2.2-4.2,3.2c-1.3,0.9-1.7,1.8-1,3.3
		c3.1,7.2,6.2,14.5,9.1,21.7c5.8,14,11.4,28.1,17.2,42.1c1.6,3.9,3.3,7.9,5.1,11.7c0.3,0.6,1.4,1.2,2.1,1.3
		c12.7,0.7,25.5,1.4,38.2,1.9c14.1,0.5,28.1,0.9,42.2,1.1c2.6,0,5.2-1,7.7-1.5c3.8-0.7,7.7-1.3,11.6-1.8c6.7-0.9,13.5-1.9,20.2-2.6
		c3.8-0.4,7.7-0.6,11.4-0.1c2.5,0.4,5.1,1.7,6,4.8c1.6,5.8,2.2,11.6,1.3,17.5c-0.7,4.7-1.4,9.4-2.4,14c-0.5,2.3-1.5,4.5-2.4,6.6
		c-0.8,1.8-2.3,2.7-4.3,2c-11.6-3.9-23.7-4.4-35.6-6c-1.5-0.2-3-0.3-4.6-0.4c-1.3-0.1-2.6,0.1-3.2-1.6c-0.1-0.3-1.1-0.4-1.6-0.4
		c-12.7,0.5-25.4,1.2-38.1,1.6c-7.8,0.2-15.6-0.1-23.4-0.1c-0.7,0-1.6,0.7-2,1.3c-1.4,2.2-2.6,4.5-3.9,6.7c-1.2,1.9-2.7,3.3-5.1,3.5
		c-0.4,0-0.9,0.5-1.1,0.9c-2.7,6.1-8,8.5-14.1,9.2c-6.8,0.8-13.1-1.8-19.1-4.7c-1.3-0.6-2.3-1.9-3.6-3c-1.4,2-2.4,4.4-4.2,5.7
		c-4.1,3-4.1,7.1-4,11.4c0.1,6.6,0.3,13.2,0.7,19.7c0.9,15.2,0.2,30.4-1,45.6c-0.9,11-1.6,22.1-2.4,33c1.9,0.9,3.8,1.5,5.5,2.6
		c4.1,2.5,4.4,7.2,0.8,10.9c-4.5,4.7-10.3,6.6-16.7,7c-11.8,0.7-23.3-0.9-34.5-4.6c-6.2-2-9-5.6-8.6-12.1c1-17.3,2.2-34.6,3.3-51.9
		c0.3-4.5,0.4-9,0.6-13.5c0.1-1.4-0.3-2.2-1.8-2.3c-4.3-0.3-8.7-0.8-13-1c-0.5,0-1.6,1-1.6,1.6c-0.7,9.6-1.4,19.2-1.9,28.8
		c-0.7,11.7-1,23.5-2.2,35.2c-0.4,3.8,0.4,5.9,3.4,8c2.8,1.9,4.4,4.9,4.2,8.4c-0.1,3.4-2.5,6.4-5.8,7.1c-15.5,3-30.4,0.3-44.8-5.6
		c-2.8-1.1-5.1-3.3-7.5-5.2c-2.5-2-2.8-4.9-2.6-7.9c0.5-7.9,0.9-15.7,1.3-23.6c0.6-14,1.2-27.9,1.8-41.9c0.4-10.1,0.7-20.1,1-29.8
		c-6.4-1.5-13.1-2.8-19.5-4.8c-9.7-2.9-17.1-9.2-24.1-16.4c-6.2-6.5-8.6-14.2-10.2-22.5c-0.2-0.9-0.3-1.8-0.6-3.4
		c-4.9,10.1-11,18.4-18.3,25.9c-7.4,7.7-16.3,13-26.3,16.6c5.3,8.8,7.8,18.1,9.8,27.6c0.9,4.4,1.1,9.1-1.7,13.3
		c-2.4,3.5-5.6,5.4-9.7,5.6c-2,0.1-2.4,0.8-2.5,2.6c-0.4,13.1-0.8,26.1-1.4,39.2c-0.3,5.9-0.8,11.9-1.5,17.8
		c-0.4,3.3-2.3,5.5-5.7,6.5c-6.8,2-13.4,4.2-20.6,3.6c-3.6-0.3-4.9-1.7-4.7-5.3c0.4-5.9,0.6-11.9,0.9-17.8c0-1.2-0.2-2.4-0.3-3.7
		c-5,1-9.8,1.9-14.6,3c-0.4,0.1-1,1.1-1,1.7c0.3,4.6,0.7,9.3,1.3,13.9c0.2,1.4,1,2.3,2.5,2.8c1.5,0.5,2.9,1.6,4.1,2.8
		c1.7,1.7,1.7,2.8-0.5,4c-2.1,1.2-4.6,2.1-7,2.4c-5.3,0.5-10.7,0.5-16,0.8c-5.3,0.3-10.2-1.7-15.1-3.2c-0.9-0.3-1.8-1.7-2.1-2.8
		c-1.5-6.2-3-12.5-4.3-18.8c-1.6-7.9-3.3-15.9-4.5-23.9c-1.3-8.8-0.6-17.7,1.4-26.4c0.1-0.5,0.1-1.1-0.1-1.5
		c-3.7-5.2-4.2-11.1-3.4-17.1c1.2-9.1,2.2-18.2,5.6-26.9c1.6-4.1,3.7-8,5.8-11.9c0.9-1.6,0.1-2-0.8-2.8c-3.8-3.4-7.8-6.5-11.2-10.1
		c-7.8-8.2-12.7-18-16-28.8c-3.9-12.8-4.9-26-4.3-39.2c0.5-10.7,1.8-21.5,5.3-31.8c2.2-6.5,5.5-12.6,9.8-18c1.3-1.6,3.1-2.9,4.8-4.5
		c-8-9.3-16.2-18.5-24-28c-5.3-6.4-10-13.1-15-19.7c-6.7-8.8-13.8-17.4-20.2-26.4c-5.8-8.2-11.2-16.8-16.4-25.4
		c-6-10-11.7-20.1-15.6-31.1c-3.1-8.8-5.6-17.8-8-26.7c-1.6-5.7-3-11.5-3.8-17.4c-1.3-9.2,0-18.2,3.2-27c2.3-6.2,5.3-11.7,10.5-15.8
		c7.5-6,16.1-7.5,25.5-6.6c12.3,1.2,21.9,7.8,30.8,15.5c6.7,5.8,12.8,12.5,18.9,19c4.6,4.8,8.9,9.9,13.1,15.1
		c1.8,2.2,2.7,5.2,3.9,7.8c5.3,11.3,11.2,22.4,15.9,34c5.3,13.2,9.9,26.7,14.3,40.3c6.4,19.7,8.8,40.1,10.5,60.6
		C147.5,396.9,148,402,148.5,407z M444.5,126c0.1,0,0.3,0,0.4,0c0-6.3,0.3-12.5-0.1-18.8c-0.6-9.5-1.3-18.9-2.5-28.3
		c-2-16.2-6-31.8-14.8-45.9c-8.6-13.7-20.2-22.1-37.2-20c-6.3,0.8-11.9,3.5-15.4,9.2c-4.4,7-7.1,14.7-9.3,22.6
		c-3.2,11-4.7,22.3-5.9,33.6c-0.7,6.9-1.3,13.8-1.8,20.8c-0.2,3-0.3,6-0.5,9c0,0.4,0,0.8,0,1.1c-0.1,8.2-0.4,16.4-0.3,24.5
		c0.1,10.8,0.3,21.6,0.9,32.3c0.8,14,3.1,27.8,7.1,41.2c2.1,7.2,4.5,14.3,6.9,21.3c0.2,0.6,1.2,1.3,2,1.4c8.3,1.3,15.7,4.9,23.1,8.6
		c0.6,0.3,1.2,0.8,1.5,1.4c0.3,0.6,0.3,1.4,0.4,2.1c-0.6,0.1-1.4,0.3-1.9,0.2c-2.5-0.8-5-1.4-7.4-2.5c-9.1-4.1-18.7-6.1-28.7-5.7
		c-6.8,0.3-13.5,0.9-19.6,4.1c-2.9,1.5-5.5,3.7-8.3,5.5c-0.6,0.4-1.1,0.9-1.8,1c-0.6,0.2-1.4,0.2-1.9-0.1c-0.3-0.2,0-1.1,0-1.7
		c0-0.6,0-1.1,0-1.7c-0.1-2.1-0.5-4.3-0.4-6.4c0.7-9.8,1.5-19.7,2.3-29.5c1.3-17.5,1.5-35,0-52.5c-1.6-19-3.7-37.9-5.6-56.9
		c0-0.2,0-0.3,0-0.5c-2.4-11.9-4.5-23.8-7.3-35.6c-3-12.8-7.7-25-15.8-35.6c-4.3-5.7-8.8-11.2-15.4-14.5c-8.5-4.3-17.4-4.8-26.6-2.9
		c-5.1,1.1-9.3,3.9-12.5,8c-4,5-6.8,10.6-9,16.6c-4.5,12.6-6,25.5-6.1,38.7c-0.1,13,3.1,25.6,4.8,38.3c1.2,9,3.9,17.9,6.6,26.6
		c3.2,10.2,7,20.2,10.7,30.2c4.9,13.6,10.1,27.2,16.4,40.3c6.6,13.6,12.7,27.4,19.1,41.1c1.6,3.4,3.4,6.6,5,9.9
		c0.3,0.6,0.2,1.5-0.1,2.1c-2.4,4.5-5.3,8.7-7.4,13.3c-5.7,12.2-9.5,25-11.6,38.3c-4.1,26.3-0.3,51.5,11.8,75.2
		c7.8,15.2,18.7,27.4,34.3,35.1c8.5,4.1,17.1,7.8,26.1,10.4c9,2.5,18.4,2.2,27.6,1.3c8.6-0.8,16.8-3,25-5.8
		c8.2-2.8,15.8-6.7,22.3-12.4c11.5-10.1,19.2-22.9,25.2-36.8c4.9-11.4,7.5-23.4,9.5-35.5c3.1-19.1,0.7-37.6-5.4-55.8
		c-3.7-11.1-11-19.8-18.7-28.3c-0.2-0.2-0.5-0.4-0.7-0.5c-3.3-1.7-3.3-1.8-2.7-5.5c1.1-7.3,2-14.7,3.1-22
		c1.6-10.6,3.5-21.2,5.1-31.9c1.4-9.1,3.2-18.1,3.8-27.2C443.7,155.8,443.9,140.9,444.5,126z M188.9,533.4c0.2-0.1,0.4-0.3,0.5-0.4
		c0.4,0.9,1.2,1.8,1.2,2.7c-0.1,2.3-0.2,4.6-0.8,6.8c-1.2,4.3-2.5,5.2-7,5.3c-1.2,0-1.9,0.4-2,1.6c-0.1,1-0.1,1.9-0.2,3.1
		c5.2-0.6,10.4-0.5,12.5,4.7c2.2,5.5-1.5,9.3-5.7,12.6c2.3-0.4,4.4-1,6.5-1.6c16.1-4.5,29.3-12.9,38.7-27.1
		c9.3-14,16.9-28.5,19.4-45.3c2.3-15.5,1.7-30.8-5.5-45.2c-3.6-7.3-8.3-13.5-15.1-18.1c-0.8-0.5-2-0.9-2.9-0.7
		c-1.5,0.3-2.1-0.3-2.2-1.5c-0.2-2-0.3-4-0.2-5.9c1.1-14.7,2.9-29.4,3.4-44.1c0.5-17.3,0.3-34.6-0.4-51.8c-0.6-14.5-3.6-28.8-6.6-43
		c-2.1-9.8-6.6-18.9-7.2-29.1c0-0.7-0.5-1.3-0.7-1.9c-5.5-12.4-12-24.2-19.9-35.3c-4.8-6.6-10.9-11.4-18.6-14.3
		c-7-2.7-14.2-2.7-21.5-2.1c-4.1,0.3-8.2,1.5-10.6,5.1c-4.9,7-7.5,14.8-7.5,23.4c0,7-0.4,13.9,0.1,20.9c0.5,8.5,1.3,17.1,2.7,25.5
		c1.1,7.1,3,14.2,4.8,21.2c2.4,9.8,4.8,19.6,7.7,29.2c4.6,15,9.6,29.9,14.7,44.8c3.7,10.8,7.7,21.6,11.4,32.4c1.2,3.6,3,6,7,6
		c0.6,0,1.2,0.2,1.8,0.5c4.6,1.9,9.2,3.7,13.6,5.8c1,0.5,2.4,2.5,2.1,3c-1,1.7-2.7,0.7-4.1,0.2c-2.5-1-4.8-2.3-7.3-3.3
		c-12.4-4.5-25.3-6.3-38.5-6.4c-1.5,0-3.6-1.2-4.1,1.6c0,0.2-0.8,0.3-1.2,0.4c-2.1,0.2-3.7-1.6-3.9-3.9c-0.7-9.6-1.3-19.2-2.2-28.8
		c-1.5-17.1-5.2-33.8-10.1-50.2c-6.3-21-14.2-41.3-23.9-60.9c-3.6-7.2-7-14.7-12.5-20.7c-9.4-10.3-17.9-21.3-28.9-30.1
		c-9.8-7.8-20.4-13.7-33.5-13.4c-7.9,0.2-14.4,3.8-18.9,10.2c-5.7,8.1-7.6,17.5-8,27.3c-0.2,6.2,1.6,12,2.8,18
		c1.7,8.8,3.7,17.4,6.7,25.9c5.7,15.9,13.3,30.8,22.2,45c12.6,19.9,27.8,38,42.1,56.7c5.4,7,11.6,13.4,17.3,20.2
		c5.5,6.6,10.9,13.2,16.2,19.9c0.9,1.1,1.5,2.3,2.1,3.5c0.2,0.5,0.3,1.5,0.1,1.6c-0.5,0.3-1.4,0.5-1.8,0.2c-1.7-1.2-3.4-2.5-5-3.9
		c-0.8-0.7-1.4-1.6-2.2-2.5c-5.8,5.3-9.8,11.4-12.2,18.6c-4.4,13.1-6.2,26.6-5.9,40.4c0.3,13.8,2.4,27.3,8.3,40.1
		c6.6,14.2,17,24.7,30.4,32.3c9.3,5.3,19.5,8.4,29.8,11c0.8,0.2,1.7,0.2,2.5,0.3c-0.7-1.1-1.5-1.6-2.2-2.3c-3.6-3-6.2-6.6-6.7-11.3
		c-0.7-5.9,1.1-7.9,7.8-8.5c0.6-0.1,1.2,0,1.8,0.2c4.2,1.1,8.4,2.3,12.5,3.4c4,1.1,6.8,0.7,5.9-3.9c-5.7-0.8-10.2-3.7-13.7-8.2
		c-1.7-2.2-1.6-4.4-0.5-6.9c0.6,0.7,0.9,1.5,1.2,2.3c0.4,1,0.6,2.2,1.2,3c4.5,5.7,10.6,7.5,17.6,6.8c1.8-0.2,2.9-1.3,3.3-3
		C187.8,538.8,188.3,536.1,188.9,533.4z M416.6,563.7c-4.1,1.6-7.8,3.1-11.6,4.6c-8.4,3.5-17,3.7-25.7,2c-5.1-1-10-3.1-15-4.7
		c-9.9-3.2-19.6-3.5-29.2,1.2c-8.7,4.2-17.9,7-27.7,7.5c-1.6,0.1-1.6,1.1-1.7,2.1c-0.3,10.2-0.5,20.5-0.9,30.7
		c-0.6,14.1-1.4,28.2-2,42.3c-0.3,6.8-0.7,13.6-0.9,20.4c0,1.6,0.3,3.7,1.3,4.7c3.2,3,7,5.2,11.2,6.4c7.8,2.2,15.7,3.8,23.8,4
		c3.8,0.1,7.7,0.6,11.3-1.2c2.6-1.4,2.9-3.8,0.5-5.6c-0.6-0.5-1.3-0.8-2-1.1c-4.7-2.5-5.2-3.3-4.4-8.4c1.5-10.7,2.1-21.4,2.4-32.2
		c0.4-13.2,1.5-26.4,2.2-39.6c0.1-2,0.9-2.7,2.8-2.5c5.3,0.5,10.7,0.9,16,1.2c6.3,0.3,8.4,2.2,8,8.5c-0.9,15.1-2.3,30.2-3.1,45.3
		c-0.4,7.5-0.1,15,0.1,22.4c0,1.1,1.1,2.7,2.1,3.1c11.8,4,23.8,6.3,36.3,4.9c5-0.6,9.2-2.6,12.4-6.6c-1.5-1.8-3.4-2.1-5.4-2.2
		c-2.8-0.1-3.8-1.2-3.9-4c0-0.8,0-1.7,0.1-2.5c0.8-9.3,1.8-18.6,2.4-27.8c1.1-15.8,2.4-31.6,1.5-47.4
		C417.2,580.7,417,572.4,416.6,563.7z M178.7,654c0,0.2,0.1,0.3,0.1,0.5c-0.3,0.2-0.6,0.4-0.9,0.5c-3,1-5.9,2-8.9,2.9
		c-1.5,0.4-2.4,1-2.1,2.9c0.3,2.2,0.2,4.4,0.2,6.6c0,5.3,0,10.7,0,16.4c0.8,0,1.8,0.1,2.8,0c6.8-0.5,13.2-2.4,19.3-5.4
		c0.7-0.3,1.4-1.3,1.5-2c0.7-5.8,1.6-11.7,1.9-17.5c0.5-11.9,0.7-23.8,1-35.8c0.1-2.3,0.3-4.5,0.5-6.8c-6.9-1.3-14.3-15.1-13.5-20.7
		c-3-0.6-3.4-2.8-3.4-5.5c0-1.9-0.4-3.8-0.6-5.7c-0.3-2.3-0.3-4.4,2.1-5.7c0.8-0.5,1.4-1.4,2.5-2.6c-6.4-0.2-12.2,0-17.9-0.7
		c-5.8-0.7-11.4-2.4-17.1-3.7c0.5,1.2,1.2,2.3,1.5,3.5c1.5,6-1.4,10.4-5.5,14.1c-1.8,1.7-3.2,3-3.6,5.7c-1,6.3-4.2,11.8-8.9,16.2
		c-3.9,3.7-8.4,6.4-14.1,6.1c-1.6-0.1-3.1-0.5-4.8-0.9c-1.8,9-2.5,18.1-1,27c1.8,10.9,4.2,21.7,6.4,32.6c0.5,2.5,1.2,5.1,2.3,7.4
		c0.5,1.1,1.8,2.3,2.9,2.6c8.9,1.9,17.9,2.4,26.8,0.4c1.3-0.3,2.7-0.5,4.7-0.9c-2-1.4-3.5-2.2-4.7-3.3c-0.9-0.9-2.1-2.1-2.2-3.2
		c-0.4-6.1-0.5-12.2-0.6-18.3c0-0.5,0.9-1.4,1.5-1.5c8-1.4,16.1-2.8,24.2-4.1C173.6,654.8,176.1,654.4,178.7,654z M449.9,499.7
		c0.2-0.2,0.4-0.5,0.5-0.7c-10.5-25-21-50-31.3-74.8c-4.7,2.1-9.2,4.7-13.9,6.1c-9,2.6-18.1,4.9-27.3,6.6
		c-10.1,1.9-20.3,1.4-30.3-1.3c-13-3.5-25.1-9-36.4-16.5c-1.9-1.2-3.6-2-6-1.3c-2,0.6-4.1,0.7-6.1,1.1c-5.6,1.2-11.3,2.1-16.8,3.7
		c-9.4,2.7-15.4,9-17.8,18.5c-1.2,4.8-2.3,9.7-3,14.6c-1.7,11.7-0.8,23.3,0.9,35c0.4,2.6,1.2,5.2,3.9,6.3c2,0.8,4,1.8,6.1,1.8
		c4.4-0.1,8.8-0.6,13.2-1.4c5.6-1,6-1.7,5.8-7.3c0-0.8-0.1-1.7-0.1-2.5c-0.5-6.9-1-13.9-1.4-20.8c-0.5-9,4.3-14.7,12.1-18.4
		c5.6-2.7,11.6-2.9,17.7-3c0.6,0,1.2,0.4,1.8,0.5c0,0.3,0.1,0.5,0.1,0.8c-1.4,0.4-2.8,0.9-4.3,1.4c3,1.1,5.9,1.8,8.5,3.2
		c4.4,2.6,8.6,5.5,12.7,8.5c5.8,4.2,11.8,6.7,19.2,6.6c9.7-0.2,18.9-2.7,28-5.4c4.9-1.5,9.8-1.4,14.7-0.9c2.8,0.3,5.5,1.3,8.4,2.1
		c0-3,0-5.8,0-8.7c0.2,0,0.5,0,0.7-0.1c0.2,0.9,0.5,1.8,0.7,2.7c0.5,2.3,0.8,4.7,1.3,7c0.2,0.7,0.5,1.5,1.1,1.9
		c2,1.4,4.3,2.3,6.2,3.9c3,2.6,6.4,5,8.4,8.3c4,6.8,8.2,13.6,9,21.9C440.8,499.2,445.4,499.5,449.9,499.7z M257.9,481.9
		c-0.1,0-0.3,0-0.4,0c0,0.4-0.1,0.7-0.1,1.1c0.2,11.3-1.9,22.2-6.1,32.7c-1.2,3-1.4,5.9-1.3,8.9c0.1,1.4,0.3,2.9,0.5,4.3
		c1.5,15.7,9.4,26.9,23.3,34.2c8.5,4.5,17.5,7.1,27.1,7.6c10.2,0.5,19.8-1.8,29.3-5.5c5.2-2,10.4-4,15.8-5.3c7-1.7,13.7,0.2,20.2,3
		c6.3,2.7,12.9,4.6,19.9,5c13.6,0.8,24.1-4.6,32.1-15.5c3.3-4.6,5.1-9.8,7-15.3c-0.9-0.1-1.5-0.2-2-0.2c-4.4,0-8.9,0.1-13.3,0
		c-2.6-0.1-5.2-0.2-7.7-0.6c-2.8-0.5-4.1-2.3-4.2-5.2c0-1.2,0-2.4,0-3.8c-2.7,0-5.2-0.1-7.6,0.1c-0.9,0.1-2.1,0.6-2.6,1.3
		c-5.4,7.3-12.2,11.5-21.7,11.4c-8.5-0.1-18.8-6.2-20.9-14.1c-0.1-0.5-1-1.1-1.5-1.1c-5.3-0.3-10.5-0.5-15.8-0.8
		c-9.4-0.6-18.8-1.2-28.1-1.9c-4.8-0.3-9.5-0.8-14.5-1.2c-0.1,1.2-0.2,2.5-0.2,3.9c0,2.9-0.1,5.8,0,8.7c0,1.4-0.6,2-1.9,2
		c-1.5,0-1.4-1.1-1.3-2.1c0.1-3.7,0.2-7.5,0.3-11.2c0-1.1,0-2.2-1.6-1.6c-2.9,1.2-5.3,0.3-7.7-1.4c-0.6-0.4-1.5-0.7-2.2-0.7
		c-3.5,0.1-5.7-1.3-6.3-4.9c-0.8-4.4-1.1-8.9-1.6-13.4c-0.1-0.9-0.3-1.8-0.6-2.6c-0.7-1.8-1.7-3.6-2.1-5.5
		C258.9,488.8,258.5,485.3,257.9,481.9z M299,503.7c1.8-0.2,3.5-0.4,5.2-0.4c5.6,0.1,11.2,0.2,16.7,0.5c8.2,0.5,16.3,1.1,24.5,1.7
		c1.4,0.1,2.1-0.2,2.8-1.6c3.5-6.7,9.5-9.8,16.7-10.4c5.3-0.5,10.5,0.9,15.2,3.6c4.4,2.6,8.5,5.5,10,10.8c0.1,0.5,0.8,1,1.3,1.1
		c4,1.4,5.9,0.1,6-4c0-0.8,0-1.5,0.1-2.3c0.2-3.1,0.9-3.7,3.9-3.9c6.1-0.3,12.2-0.7,18.4-1c-0.1-0.4-0.1-0.9-0.2-1.4
		c-2.4-8.2-7.7-14.3-14.2-19.5c-7.4-5.9-15.7-7-24.4-4.2c-8.2,2.6-16.2,5.9-24.4,8.6c-5.7,1.9-11.7,2.7-17.1-0.4
		c-3.7-2.1-6.9-5-10.3-7.5c-3.7-2.7-7.1-6-11.1-8c-7-3.4-14.7-4.3-22.6-3.8c-1.3,0.1-2,0.5-2,1.9c0,2.7-0.2,5.3-0.1,8
		c0.4,7.9,0.8,15.8,1.3,23.8c0,0.6,0.1,1.2,0.4,1.7C296.3,499.1,297.7,501.4,299,503.7z M544.8,523.8c4.5-0.2,8.7-0.5,12.9-0.6
		c5.8-0.1,11.6-0.2,17.4-0.2c0.7,0,1.3,0.8,2,1.2c-0.7,0.5-1.4,1.3-2.1,1.3c-8.8,0.5-17.6,0.9-26.3,1.3c-3.5,0.2-3.3,0.2-4,3.5
		c-0.4,2.1,0.3,2.5,2.1,2.6c4.2,0.2,8.5,0.1,12.6,0.8c8.6,1.5,17.2,3.4,25.8,5.2c1.7,0.4,2.7-0.2,3.1-1.8c2.2-9.6,3.4-19.2,3.3-29
		c-0.1-5.5-1.9-6.8-7.3-6.1c-12.8,1.6-25.6,3.2-38.4,4.8c0,1.6,0,3.1,0,4.7c11.2-0.1,22.2-1,33.2,1c0,0.4,0,0.8,0,1.1
		c-2.5,0.2-5.1,0.5-7.6,0.6c-8.1,0.2-16.2,0.4-24.3,0.5c-1.7,0-2.3,0.6-2.2,2.3C544.9,519.1,544.8,521.2,544.8,523.8z M542.1,515.5
		c-47.2-0.8-94-1.6-141.1-2.4c0.2,3.1,0.5,5.7,0.4,8.2c-0.1,2,0.7,2.4,2.5,2.3c14.5-0.4,28.9-0.8,43.4-1.1c0.5,0,1.3,0.1,1.5-0.2
		c2.1-2.5,4.8-2.2,7.6-1.7c0.5,0.1,1-0.3,1.5-0.3c1.9-0.2,3.7-0.5,5.6-0.4c1.2,0.1,1.8,0.4,2.6-0.9c1.5-2.3,6.6-1.6,7.7,0.9
		c0.6,1.5,0.9,3.1,1.3,4.3c22.4-1.2,44.5,0.3,66.7-0.5C541.9,520.7,542,518,542.1,515.5z M432.9,498.9c-1-3.2-1.6-6-2.7-8.6
		c-3.5-8.4-8.2-15.8-16.1-20.8c-10.1-6.4-20.8-8.2-32-4.3c-7.9,2.8-15.8,4.7-24.1,4.4c-7.8-0.3-15.3-1.6-21.3-7.4
		c-5.1-4.9-11.1-8.6-18.1-10.4c-5-1.3-9.8-3.3-15-0.5c-3.2,1.8-6.2,3.6-8.8,6.9c1.2,0,1.9,0,2.5,0c0.7,0,1.4-0.2,2-0.2
		c10.9-0.1,20.6,3,29,10.1c2.4,2.1,5.1,3.9,7.5,6c6.4,5.5,13.5,6.2,21.2,3.4c6.7-2.5,13.4-5.1,20.2-7.3c6.9-2.2,14-3,21.2-0.9
		c4.5,1.3,8,4,11.4,7c6.3,5.6,11.2,12,13.4,20.3c0.2,0.6,1,1.5,1.6,1.6C427.2,498.5,429.7,498.6,432.9,498.9z M401.2,509.5
		c47,0.8,93.9,1.6,140.8,2.3c0.1-1.9,0.1-3.1,0.2-4.5c-5.3-0.2-10.6-0.5-15.8-0.6c-12.3-0.3-24.6-0.4-36.9-0.7
		c-6.3-0.1-12.5-0.3-18.8-0.7c-13.4-1-26.8-2.3-40.2-3.1c-8.2-0.5-16.5-0.2-24.8-0.3c-1.4,0-2.8,0-4.4,0
		C401.2,504.4,401.2,506.9,401.2,509.5z M126.7,563.9c-1.9-1.1-4.1-2.5-6.6-4c-0.7,1.4-1.3,2.7-1.9,3.9c-1.7,3.7-3.8,7.3-5.1,11.2
		c-3.7,10.8-5.1,21.8-3.8,33.2c0.5,4.6,3,6.2,7.5,5c9.3-2.5,14.8-8.9,18-17.7c0.3-0.7,0-1.9-0.4-2.6c-3.6-5.9-7.4-11.7-11.2-17.8
		c-0.5,0.5-1.1,1-1.5,1.6c-2.1,3.1-4.2,6.2-6.3,9.3c-0.5,0.8-1.4,1.3-2.5,2.3c-0.3-4,0.8-6.8,2.7-9.3c1.9-2.6,3.7-5.3,5.7-8
		C122.9,568.7,124.8,566.4,126.7,563.9z M197.2,581.1c-1.1,1.1-1.8,2-2.7,2.5c-4.5,2.5-7.7,6.2-10.4,10.4c-0.7,1.1-0.8,2.9-0.5,4.1
		c0.8,2.6,2.2,5,3.4,7.5c1.5,3.1,3.7,5.6,6.9,7.1c4.9,2.3,9.9,1.5,12.6-2.2c2-2.6,1.6-5.8,1.5-8.8c-0.6-10.5-4.4-19.9-10-28.6
		c-0.3-0.4-1-1-1.3-0.9c-2.3,0.5-4.5,1.3-6.5,1.9c1.3,1.6,2.5,3.2,3.7,4.6c0.3,0.3,1.1,0.3,1.5,0.1c0.5-0.2,1-0.6,1.4-0.9
		c4.9,4,9.5,14.2,7.9,18.7C202.1,591.1,199.7,586.3,197.2,581.1z M293,518.6c17.2,1,34.2,2,51.2,3c0.1-2,0.2-3.6,0.4-5.2
		c0.2-1.6,0.5-3.2,0.9-4.7c0.6-2.7,0.6-2.7-2.3-2.9c-9.7-0.6-19.4-1.2-29.1-1.7c-4.6-0.2-9.1,0-13.7,0c-0.6,5.1-1.6,6.3-7.2,8.5
		C293.1,516.4,293.1,517.4,293,518.6z M460.4,544.6c0-0.2,0.1-0.3,0.1-0.5c1.4,0,2.8,0.2,4.1,0c1.9-0.3,4.3-0.2,5.4-1.4
		c3.1-3.4,5.7-7.2,6.1-12c0.1-1.3-0.1-2.2-1.7-2.8c-0.9-0.3-1.6-1.7-2-2.7c-0.4-0.8-0.2-1.8-0.4-2.7c-0.3-1.9-1.8-2.4-3.3-1.3
		c-0.6,0.5-1,1.1-1.5,1.7c-1,1.4-2.2,1.7-3.4,0.3c-1.3-1.5-3.1-1.3-4.4-0.5c-1.6,1-2.9,0.8-4.5,0.3c-1.3-0.4-2.9-0.8-3.8,0.9
		c-0.6,1.1-1.2,2.1-1.6,3.3c-1.5,4.7-0.6,9.5-0.1,14.3c0.1,0.5,0.8,1.2,1.3,1.3C454,543.4,457.2,544,460.4,544.6z M376.1,523.4
		c0,0.1,0,0.2,0,0.3c2.9,0,5.8,0,8.7,0c1.3,0,2-0.4,2.2-1.7c0.3-2.6,0.5-5.3,0.8-7.9c0.1-1.2-0.4-1.6-1.6-1.7
		c-11.7-1-23.4-2.1-35.1-3c-0.7-0.1-2,0.8-2.1,1.4c-0.5,3.1-0.9,6.2-1.1,9.3c0,0.6,0.9,1.7,1.5,1.7
		C358.3,522.4,367.2,522.9,376.1,523.4z M265,501c0.7,4.3,1.4,8.8,2.3,13.4c0.1,0.5,1.9,1.2,2.2,0.9c1.6-1.3,2.5-0.4,3.7,0.6
		c3.1,2.7,5.3,2.7,8.4,0.2c1.5-1.2,2.6-0.9,4.1,0.7c0.6,0.6,1.9,0.7,2.9,0.5c0.5-0.1,1.1-1.1,1.2-1.8c0.2-3.3,0.1-3.3,3.3-3.5
		c3.5-0.2,4.6-1.9,3.4-5.1c-0.8-2.1-1.8-4.2-2.7-6.3c-0.9-2.1-1.8-2.1-4-1.5c-3.8,1.1-7.8,2.3-11.7,2.6
		C273.9,502,269.7,501.3,265,501z M541.4,527c-21,0-42,0-62.9,0c0.2,1.4-0.1,3.6,0.7,4.4c1,0.9,3.1,0.7,4.8,0.7
		c9.4,0,18.8,0.1,28.2-0.1c8.6-0.2,17.1-0.9,25.7-0.9C541.6,531.1,541.8,530.3,541.4,527z M447,525.9c-15.3,0.5-30.4,1.1-45.5,1.6
		c0.1,1.3,0.3,2.7,0.2,4.1c0,1.5,0.7,1.9,1.9,1.9c3.1,0.2,6.1,0.5,9.1,0.5c9.9-0.2,19.9-0.6,29.8-0.9c1.2,0,2.4,0,3.6,0
		C446.5,530.4,446.8,528.1,447,525.9z M436.3,536.7c-1.3,2.7-2.3,5.3-3.6,7.7c-0.6,1.2-0.5,2,0.6,2.9c5.9,4.9,12.5,7.3,20.1,6.5
		c4-0.4,7.2-2.7,10.2-6.3c-1.5,0-2.5,0-3.4,0c-4.2,0.1-8.2-0.3-12-2.2c-1.2-0.6-1.7-1.3-1.6-2.7c0.1-2.1,0-4.2,0-6.3
		c-2.2,0-3.8,0-5.5,0C439.5,536.4,437.9,536.6,436.3,536.7z M349.2,525.3c0.3,4.8,5.6,9.6,12.6,11c9.1,1.8,17.6-1,22.4-8.9
		C372.6,526.7,361,526,349.2,525.3z M350.9,505.8c12,1,23.7,1.9,35.4,2.8c0.1-0.3,0.2-0.6,0.3-0.9c-0.8-1.2-1.6-2.4-2.5-3.5
		c-3.4-3.9-7.9-5.4-12.7-6.7C363.1,495.3,355.5,498.1,350.9,505.8z M136.2,588.9c1.5-1,2.5-2,3.7-2.6c4.3-2.3,5.8-6.5,4.3-11.1
		c-0.5-1.6-1.5-2.3-3-2.2c-2,0.2-2.7-1.2-3.8-2.4c-1.5-1.6-3.3-2.9-5-4.3c-0.1-0.1-0.4-0.1-0.6-0.1c-1.3,0.4-2.6,0.8-3.9,1.4
		c-2.2,1-3,4.2-1.7,6.2c2.3,3.5,4.5,7.1,6.9,10.6C134.2,586.1,135.3,587.6,136.2,588.9z M181,592.3c1.4-1.8,2.6-3.5,4.1-5
		c1.6-1.6,3.4-2.8,5.1-4.2c0.6-0.5,1.3-1.3,1.3-1.9c0-1.8-2.7-4.6-4.4-4.9c-2.4-0.3-3.8,1.2-4.9,3.1c-0.4,0.7-0.7,1.9-1.2,2.1
		c-2.2,0.5-2,2.1-1.8,3.6C179.7,587.4,180.4,589.8,181,592.3z M391.3,512.9c-0.3,3.6-0.5,7-0.8,10.7c2,0,4,0.1,6.1-0.1
		c0.4,0,1-0.9,1-1.4c-0.1-3-0.3-6-0.4-9.3C395.2,512.9,393.3,512.9,391.3,512.9z M166.3,568.6c0.7-5.2-4.6-9.3-13.1-10.3
		C153.6,562.7,161.5,567.6,166.3,568.6z M419.6,556.7c6.7-5,9.6-12.5,13-19.9c-1.6,0-2.8,0-3.9,0
		C427.1,544.2,423.9,550.6,419.6,556.7z M168.4,553.6c-0.1,0.2-0.2,0.4-0.3,0.6c0.4,0.5,0.7,1.2,1.2,1.5c2.7,1.7,5.6,1.2,8.4,0.4
		c0.4-0.1,0.6-0.7,1-1.1c-0.4-0.3-0.8-0.8-1.2-0.8C174.4,553.9,171.4,553.8,168.4,553.6z"/>
	<path class="st0" d="M444.5,126c-0.6,14.9-0.8,29.8-1.8,44.7c-0.6,9.1-2.4,18.1-3.8,27.2c-1.6,10.6-3.5,21.2-5.1,31.9
		c-1.1,7.3-2,14.7-3.1,22c-0.5,3.7-0.6,3.8,2.7,5.5c0.3,0.1,0.5,0.3,0.7,0.5c7.7,8.4,15,17.2,18.7,28.3c6.1,18.2,8.5,36.7,5.4,55.8
		c-2,12.2-4.6,24.2-9.5,35.5c-5.9,13.9-13.7,26.7-25.2,36.8c-6.5,5.7-14,9.6-22.3,12.4c-8.1,2.8-16.4,5-25,5.8
		c-9.2,0.9-18.6,1.2-27.6-1.3c-9-2.5-17.6-6.2-26.1-10.4c-15.7-7.6-26.6-19.8-34.3-35.1c-12.1-23.8-15.9-48.9-11.8-75.2
		c2.1-13.3,5.9-26.1,11.6-38.3c2.2-4.6,5-8.9,7.4-13.3c0.3-0.6,0.4-1.5,0.1-2.1c-1.6-3.3-3.5-6.5-5-9.9
		c-6.4-13.7-12.5-27.5-19.1-41.1c-6.3-13.1-11.5-26.6-16.4-40.3c-3.6-10.1-7.5-20-10.7-30.2c-2.7-8.7-5.4-17.6-6.6-26.6
		c-1.6-12.8-4.9-25.3-4.8-38.3c0.1-13.2,1.6-26.2,6.1-38.7c2.2-6,5-11.7,9-16.6c3.3-4.1,7.5-6.9,12.5-8c9.1-1.9,18.1-1.4,26.6,2.9
		c6.5,3.3,11,8.8,15.4,14.5c8,10.6,12.7,22.8,15.8,35.6c2.8,11.8,4.9,23.8,7.3,35.6c0,0.1,0,0.3,0,0.5c1.9,19,4,37.9,5.6,56.9
		c1.5,17.5,1.3,35,0,52.5c-0.7,9.8-1.6,19.7-2.3,29.5c-0.1,2.1,0.2,4.3,0.4,6.4c0,0.6,0,1.1,0,1.7c0,0.6-0.2,1.6,0,1.7
		c0.5,0.3,1.3,0.3,1.9,0.1c0.6-0.2,1.2-0.7,1.8-1c2.8-1.9,5.4-4,8.3-5.5c6.1-3.2,12.8-3.8,19.6-4.1c10-0.4,19.6,1.6,28.7,5.7
		c2.3,1.1,4.9,1.8,7.4,2.5c0.6,0.2,1.3-0.1,1.9-0.2c-0.1-0.7,0-1.5-0.4-2.1c-0.3-0.6-0.9-1.1-1.5-1.4c-7.4-3.7-14.8-7.3-23.1-8.6
		c-0.7-0.1-1.8-0.8-2-1.4c-2.4-7.1-4.8-14.2-6.9-21.3c-4-13.5-6.4-27.2-7.1-41.2c-0.6-10.8-0.8-21.5-0.9-32.3
		c-0.1-8.2,0.2-16.4,0.3-24.5c0-0.4,0-0.8,0-1.1c0.1-3,0.2-6,0.5-9c0.6-6.9,1.1-13.9,1.8-20.8c1.2-11.3,2.7-22.6,5.9-33.6
		c2.3-7.9,4.9-15.6,9.3-22.6c3.5-5.7,9.1-8.4,15.4-9.2c17-2.1,28.6,6.4,37.2,20c8.8,14,12.8,29.7,14.8,45.9
		c1.2,9.4,1.9,18.9,2.5,28.3c0.4,6.2,0.1,12.5,0.1,18.8C444.8,126,444.6,126,444.5,126z M337.7,368.5c4.5-0.6,9.1-1.2,13.6-1.8
		c4.5-0.6,8.4-2.7,11.8-5.6c1.5-1.3,2.3-3.6,4.8-3.5c0.2,0,0.5-0.7,0.6-1.1c0.8-3.6,2-7.2,2.4-10.9c1.4-12.2-3.1-22.9-9.1-33
		c-6.5-10.8-16.4-17.6-28.7-20.5c-5.9-1.4-12.2-2.4-17.9,0c-7.3,3.1-13.3,8.3-17,15.4c-3.9,7.6-5.4,15.7-4.4,24.2
		c1.4,12,5.7,22.3,17,28.7C319.3,365.2,328,368.1,337.7,368.5z M453.2,323.1c-0.4-3.9-0.5-7.8-1.1-11.6c-1.3-8.4-5.3-15.5-12.9-19.6
		c-9.8-5.4-19.7-3.9-29,1.7c-7.3,4.4-11.9,11.1-14.8,18.9c-4.3,11.9-7,24-1.9,36.4c3.8,9.2,10,15.9,20.4,17.3
		c6.6,0.9,13.1,0.2,19.1-2.6c6.5-3.1,11.3-8.2,14.5-14.8C451.4,340.8,453.1,332.2,453.2,323.1z M397.9,408.9
		c-8.5,1.3-14.4-1.8-19.2-8c-0.2,1-0.3,1.7-0.1,2.4c0.7,2.7,3,4.1,5.1,5.6c4.4,3.2,9.4,4,14.8,3.7c4.5-0.3,8-2.2,10.4-6.1
		c0.1-0.2,0.4-0.3,0.5-0.5c0.3-0.6,0.4-1.1,0.7-1.7c-0.7-0.2-1.4-0.5-2.1-0.4c-0.6,0.1-1.1,0.7-1.7,1.1c-1.7,1.1-3.3,2.3-5.1,3.5
		c-1.2-5.5-2.3-10.6-3.4-15.9c1.5-0.9,3.4-2,5.3-3c5.7-3.1,6.2-7.5,4.6-13.1c-0.6-2-2.2-3.8-3.5-5.6c-0.3-0.4-1.2-0.4-1.8-0.6
		c-0.1,0.6-0.4,1.3-0.2,1.8c0.5,1.3,1.2,2.5,1.8,3.7c1.4,2.9,1.8,5.6-0.5,8.3c-3.6,4.3-8.1,6.2-13.6,6.4
		c-7.1,0.1-11.9-3.4-13.7-10.3c-0.2-0.7-0.5-1.4-0.9-2.6c-1.6,5.6-0.6,9.8,3.1,12.1c3.9,2.4,8.1,4,12.8,3.6c2.5-0.2,3.8,0.5,4.2,3.1
		C396.1,400.5,397,404.7,397.9,408.9z M355.5,264c-0.3-1.1-1.1-1.7-2.4-0.8c-2.2,1.6-4.5,3.1-6.6,4.9c-0.9,0.8-1.6,2.1-2,3.3
		c-0.2,0.8,0.2,1.8,0.4,2.8c0.9-0.4,1.9-0.6,2.6-1.1c1-0.7,1.8-2,2.9-2.3C353.2,269.7,355.6,267,355.5,264z M402,280.9
		c-0.2-0.5-0.3-0.8-0.5-1c-2.3-2.7-4.6-5.4-7.1-8c-0.6-0.6-1.6-0.9-2.5-1c-0.5-0.1-1.2,0.3-1.5,0.7c-0.3,0.4-0.3,1.3,0,1.6
		c2.9,3,6,5.9,9,8.8c0.3,0.3,1.1,0.3,1.4,0.1C401.3,281.9,401.6,281.3,402,280.9z"/>
	<path class="st0" d="M188.9,533.4c-0.6,2.7-1.1,5.5-1.8,8.2c-0.4,1.7-1.5,2.8-3.3,3c-7,0.7-13.1-1.1-17.6-6.8c-0.6-0.8-0.8-2-1.2-3
		c-0.3-0.8-0.6-1.6-1.2-2.3c-1.1,2.5-1.2,4.8,0.5,6.9c3.6,4.5,8,7.4,13.7,8.2c0.8,4.6-1.9,4.9-5.9,3.9c-4.2-1.1-8.4-2.3-12.5-3.4
		c-0.6-0.2-1.2-0.2-1.8-0.2c-6.7,0.6-8.6,2.6-7.8,8.5c0.6,4.7,3.2,8.3,6.7,11.3c0.7,0.6,1.5,1.2,2.2,2.3c-0.8-0.1-1.7-0.1-2.5-0.3
		c-10.3-2.6-20.4-5.7-29.8-11c-13.5-7.7-23.9-18.2-30.4-32.3c-5.9-12.7-7.9-26.2-8.3-40.1c-0.3-13.8,1.5-27.3,5.9-40.4
		c2.4-7.2,6.4-13.3,12.2-18.6c0.8,0.9,1.4,1.8,2.2,2.5c1.6,1.4,3.3,2.7,5,3.9c0.4,0.3,1.4,0.1,1.8-0.2c0.3-0.2,0.2-1.2-0.1-1.6
		c-0.6-1.2-1.2-2.5-2.1-3.5c-5.4-6.7-10.7-13.3-16.2-19.9c-5.7-6.8-11.9-13.2-17.3-20.2c-14.3-18.7-29.5-36.8-42.1-56.7
		c-9-14.2-16.5-29.2-22.2-45c-3.1-8.4-5-17.1-6.7-25.9c-1.2-6-3-11.8-2.8-18c0.4-9.8,2.3-19.2,8-27.3c4.5-6.4,11-9.9,18.9-10.2
		c13-0.4,23.7,5.5,33.5,13.4c11,8.8,19.5,19.8,28.9,30.1c5.5,6.1,8.9,13.5,12.5,20.7c9.7,19.6,17.7,40,23.9,60.9
		c4.9,16.4,8.5,33.1,10.1,50.2c0.9,9.6,1.5,19.2,2.2,28.8c0.2,2.4,1.8,4.1,3.9,3.9c0.4,0,1.2-0.2,1.2-0.4c0.5-2.8,2.6-1.6,4.1-1.6
		c13.2,0.1,26.1,1.8,38.5,6.4c2.5,0.9,4.8,2.2,7.3,3.3c1.4,0.6,3.1,1.6,4.1-0.2c0.3-0.5-1.1-2.5-2.1-3c-4.5-2.1-9.1-3.9-13.6-5.8
		c-0.6-0.2-1.2-0.5-1.8-0.5c-4.1,0-5.8-2.4-7-6c-3.7-10.8-7.7-21.5-11.4-32.4c-5-14.9-10-29.8-14.7-44.8c-3-9.6-5.3-19.4-7.7-29.2
		c-1.8-7-3.6-14.1-4.8-21.2c-1.3-8.4-2.1-17-2.7-25.5c-0.4-6.9-0.1-13.9-0.1-20.9c0-8.6,2.7-16.4,7.5-23.4c2.5-3.6,6.6-4.8,10.6-5.1
		c7.3-0.6,14.5-0.6,21.5,2.1c7.7,2.9,13.8,7.7,18.6,14.3c7.9,11,14.4,22.9,19.9,35.3c0.3,0.6,0.7,1.3,0.7,1.9
		c0.6,10.1,5.1,19.3,7.2,29.1c3,14.2,6,28.5,6.6,43c0.7,17.3,0.9,34.6,0.4,51.8c-0.4,14.7-2.2,29.4-3.4,44.1c-0.2,2,0,4,0.2,5.9
		c0.1,1.2,0.8,1.8,2.2,1.5c0.9-0.2,2.1,0.2,2.9,0.7c6.8,4.6,11.5,10.9,15.1,18.1c7.2,14.4,7.8,29.7,5.5,45.2
		c-2.5,16.7-10.1,31.3-19.4,45.3c-9.4,14.2-22.6,22.7-38.7,27.1c-2.1,0.6-4.2,1.2-6.5,1.6c4.1-3.3,7.9-7.2,5.7-12.6
		c-2.1-5.2-7.4-5.2-12.5-4.7c0.1-1.2,0.1-2.2,0.2-3.1c0.1-1.2,0.8-1.6,2-1.6c4.5-0.1,5.8-1,7-5.3c0.6-2.2,0.8-4.5,0.8-6.8
		c0-0.9-0.8-1.8-1.2-2.7C189.3,533.1,189.1,533.2,188.9,533.4z M141.5,524.7c1.9-0.1,3.8-0.2,5.7-0.4c7.9-1.1,14.7-4.6,19.3-11.1
		c4-5.7,5.3-12.4,5.1-19.4c-0.3-9-4.1-16.4-10-22.8c-3.1-3.3-6.6-6.4-10.5-8.7c-7.2-4.2-15.3-4.8-23.4-5.1
		c-6.3-0.3-11.6,1.7-16.1,5.8c-7.9,7.2-12.6,16-12.7,27c-0.1,7.4,1.5,14.3,7,19.8C115.6,519.5,127.4,524.9,141.5,524.7z
		 M211.7,533.3c13.3,0.2,23.6-6.2,28.5-17.3c3.5-7.9,3.7-16.1,2.1-24.5c-1.2-6.5-4.8-11.8-9-16.4c-4.2-4.6-10.3-6.4-16.6-6.8
		c-8.4-0.4-15.5,2.5-21.7,8c-10.6,9.4-15.4,21-14,35.1c0.9,8.5,5.5,14.6,13.1,18.4C199.8,532.6,206,533.5,211.7,533.3z"/>
	<path class="st0" d="M416.6,563.7c0.3,8.7,0.5,17,1,25.3c0.9,15.9-0.4,31.6-1.5,47.4c-0.6,9.3-1.6,18.6-2.4,27.8
		c-0.1,0.8-0.2,1.7-0.1,2.5c0.1,2.8,1.2,3.8,3.9,4c2,0.1,3.9,0.4,5.4,2.2c-3.2,4-7.4,6.1-12.4,6.6c-12.5,1.4-24.5-0.8-36.3-4.9
		c-1-0.3-2.1-2-2.1-3.1c-0.2-7.5-0.5-15-0.1-22.4c0.8-15.1,2.2-30.2,3.1-45.3c0.4-6.3-1.7-8.1-8-8.5c-5.3-0.3-10.7-0.7-16-1.2
		c-1.9-0.2-2.7,0.5-2.8,2.5c-0.7,13.2-1.8,26.4-2.2,39.6c-0.3,10.8-0.9,21.5-2.4,32.2c-0.7,5.1-0.3,5.9,4.4,8.4
		c0.7,0.4,1.4,0.7,2,1.1c2.4,1.9,2.1,4.3-0.5,5.6c-3.6,1.9-7.5,1.4-11.3,1.2c-8.1-0.2-16-1.8-23.8-4c-4.3-1.2-8.1-3.4-11.2-6.4
		c-1-1-1.3-3.1-1.3-4.7c0.2-6.8,0.5-13.6,0.9-20.4c0.7-14.1,1.4-28.2,2-42.3c0.4-10.2,0.6-20.5,0.9-30.7c0-1.1,0.1-2.1,1.7-2.1
		c9.8-0.6,19-3.3,27.7-7.5c9.7-4.7,19.3-4.4,29.2-1.2c5,1.6,9.9,3.7,15,4.7c8.7,1.7,17.3,1.5,25.7-2
		C408.8,566.7,412.6,565.3,416.6,563.7z"/>
	<path class="st0" d="M178.7,654c-2.5,0.4-5,0.8-7.6,1.2c-8.1,1.3-16.1,2.7-24.2,4.1c-0.6,0.1-1.5,1-1.5,1.5
		c0.1,6.1,0.2,12.2,0.6,18.3c0.1,1.1,1.2,2.4,2.2,3.2c1.2,1.1,2.7,1.9,4.7,3.3c-2,0.4-3.4,0.6-4.7,0.9c-9,2.1-17.9,1.5-26.8-0.4
		c-1.1-0.2-2.4-1.5-2.9-2.6c-1-2.4-1.7-4.9-2.3-7.4c-2.2-10.8-4.6-21.7-6.4-32.6c-1.5-8.9-0.8-17.9,1-27c1.7,0.3,3.2,0.8,4.8,0.9
		c5.7,0.3,10.2-2.4,14.1-6.1c4.6-4.4,7.9-9.9,8.9-16.2c0.4-2.7,1.8-4.1,3.6-5.7c4.1-3.7,7-8.2,5.5-14.1c-0.3-1.2-1-2.4-1.5-3.5
		c5.7,1.3,11.3,2.9,17.1,3.7c5.7,0.7,11.5,0.5,17.9,0.7c-1.1,1.1-1.7,2.1-2.5,2.6c-2.4,1.3-2.5,3.4-2.1,5.7c0.3,1.9,0.7,3.8,0.6,5.7
		c0,2.7,0.4,4.9,3.4,5.5c-0.9,5.6,6.5,19.5,13.5,20.7c-0.2,2.2-0.4,4.5-0.5,6.8c-0.3,11.9-0.5,23.8-1,35.8
		c-0.3,5.9-1.1,11.7-1.9,17.5c-0.1,0.7-0.8,1.7-1.5,2c-6.1,3.1-12.5,4.9-19.3,5.4c-1,0.1-1.9,0-2.8,0c0-5.7,0-11,0-16.4
		c0-2.2,0.1-4.5-0.2-6.6c-0.2-1.8,0.7-2.4,2.1-2.9c3-0.9,6-1.9,8.9-2.9c0.3-0.1,0.6-0.3,0.9-0.5C178.8,654.4,178.7,654.2,178.7,654z
		"/>
	<path class="st0" d="M449.9,499.7c-4.6-0.2-9.1-0.4-13.7-0.6c-0.8-8.3-5.1-15.1-9-21.9c-1.9-3.3-5.4-5.8-8.4-8.3
		c-1.8-1.6-4.2-2.5-6.2-3.9c-0.5-0.4-0.9-1.2-1.1-1.9c-0.5-2.3-0.9-4.7-1.3-7c-0.2-0.9-0.5-1.8-0.7-2.7c-0.2,0-0.5,0-0.7,0.1
		c0,2.8,0,5.7,0,8.7c-2.8-0.7-5.6-1.8-8.4-2.1c-4.9-0.5-9.8-0.6-14.7,0.9c-9.1,2.7-18.3,5.2-28,5.4c-7.4,0.1-13.5-2.4-19.2-6.6
		c-4.1-3-8.3-6-12.7-8.5c-2.5-1.5-5.5-2.1-8.5-3.2c1.6-0.5,3-0.9,4.3-1.4c0-0.3-0.1-0.5-0.1-0.8c-0.6-0.2-1.2-0.6-1.8-0.5
		c-6.1,0.1-12.1,0.3-17.7,3c-7.8,3.7-12.6,9.3-12.1,18.4c0.4,6.9,0.9,13.9,1.4,20.8c0.1,0.8,0.1,1.7,0.1,2.5
		c0.2,5.6-0.2,6.3-5.8,7.3c-4.3,0.8-8.8,1.3-13.2,1.4c-2,0-4.1-1-6.1-1.8c-2.7-1.1-3.6-3.7-3.9-6.3c-1.7-11.6-2.5-23.3-0.9-35
		c0.7-4.9,1.7-9.8,3-14.6c2.4-9.5,8.4-15.8,17.8-18.5c5.5-1.6,11.2-2.5,16.8-3.7c2-0.4,4.1-0.5,6.1-1.1c2.3-0.7,4.1,0.1,6,1.3
		c11.2,7.4,23.4,12.9,36.4,16.5c9.9,2.7,20.1,3.3,30.3,1.3c9.2-1.8,18.3-4,27.3-6.6c4.8-1.4,9.2-4,13.9-6.1
		c10.4,24.8,20.8,49.8,31.3,74.8C450.3,499.2,450.1,499.4,449.9,499.7z"/>
	<path class="st0" d="M257.9,481.9c0.6,3.4,1,6.9,1.8,10.3c0.4,1.9,1.4,3.6,2.1,5.5c0.3,0.8,0.5,1.7,0.6,2.6c0.5,4.5,0.9,9,1.6,13.4
		c0.6,3.6,2.8,5,6.3,4.9c0.7,0,1.6,0.3,2.2,0.7c2.4,1.6,4.8,2.6,7.7,1.4c1.6-0.7,1.6,0.5,1.6,1.6c-0.1,3.7-0.2,7.5-0.3,11.2
		c0,1-0.1,2.1,1.3,2.1c1.3,0,1.9-0.6,1.9-2c-0.1-2.9,0-5.8,0-8.7c0-1.4,0.1-2.7,0.2-3.9c5,0.4,9.7,0.8,14.5,1.2
		c9.4,0.7,18.8,1.3,28.1,1.9c5.3,0.3,10.5,0.5,15.8,0.8c0.6,0,1.4,0.6,1.5,1.1c2.1,7.9,12.5,13.9,20.9,14.1
		c9.6,0.1,16.3-4.1,21.7-11.4c0.5-0.7,1.7-1.2,2.6-1.3c2.4-0.2,4.9-0.1,7.6-0.1c0,1.4,0,2.6,0,3.8c0.1,2.9,1.4,4.7,4.2,5.2
		c2.5,0.4,5.1,0.6,7.7,0.6c4.4,0.1,8.9,0,13.3,0c0.6,0,1.1,0.1,2,0.2c-1.9,5.5-3.7,10.7-7,15.3c-7.9,11-18.5,16.3-32.1,15.5
		c-6.9-0.4-13.6-2.3-19.9-5c-6.5-2.8-13.2-4.7-20.2-3c-5.4,1.3-10.7,3.2-15.8,5.3c-9.4,3.7-19,6.1-29.3,5.5
		c-9.6-0.5-18.6-3.2-27.1-7.6c-13.8-7.3-21.8-18.5-23.3-34.2c-0.1-1.4-0.4-2.9-0.5-4.3c-0.1-3,0.1-6,1.3-8.9
		c4.2-10.5,6.3-21.4,6.1-32.7c0-0.4,0.1-0.7,0.1-1.1C257.7,481.9,257.8,481.9,257.9,481.9z"/>
	<path class="st0" d="M299,503.7c-1.3-2.3-2.6-4.6-3.9-6.9c-0.3-0.5-0.4-1.1-0.4-1.7c-0.5-7.9-0.9-15.8-1.3-23.8
		c-0.1-2.7,0.1-5.3,0.1-8c0-1.4,0.7-1.8,2-1.9c7.8-0.5,15.5,0.4,22.6,3.8c4,2,7.4,5.3,11.1,8c3.4,2.5,6.6,5.4,10.3,7.5
		c5.5,3.1,11.4,2.3,17.1,0.4c8.2-2.7,16.2-6,24.4-8.6c8.7-2.8,17-1.7,24.4,4.2c6.5,5.2,11.9,11.3,14.2,19.5c0.1,0.5,0.1,1,0.2,1.4
		c-6.2,0.4-12.3,0.7-18.4,1c-3,0.2-3.7,0.8-3.9,3.9c-0.1,0.8-0.1,1.5-0.1,2.3c-0.1,4.1-2,5.4-6,4c-0.5-0.2-1.1-0.7-1.3-1.1
		c-1.5-5.3-5.6-8.2-10-10.8c-4.7-2.7-9.9-4.1-15.2-3.6c-7.2,0.6-13.2,3.7-16.7,10.4c-0.7,1.3-1.4,1.7-2.8,1.6
		c-8.2-0.6-16.3-1.3-24.5-1.7c-5.6-0.3-11.2-0.4-16.7-0.5C302.5,503.2,300.8,503.5,299,503.7z"/>
	<path class="st0" d="M544.8,523.8c0-2.6,0.1-4.7,0-6.8c-0.1-1.6,0.5-2.2,2.2-2.3c8.1-0.1,16.2-0.2,24.3-0.5
		c2.6-0.1,5.1-0.4,7.6-0.6c0-0.4,0-0.8,0-1.1c-10.9-2-22-1.1-33.2-1c0-1.6,0-3.1,0-4.7c12.9-1.6,25.6-3.2,38.4-4.8
		c5.4-0.7,7.2,0.6,7.3,6.1c0.2,9.8-1.1,19.5-3.3,29c-0.4,1.6-1.4,2.1-3.1,1.8c-8.6-1.8-17.2-3.7-25.8-5.2c-4.1-0.7-8.4-0.7-12.6-0.8
		c-1.9-0.1-2.5-0.5-2.1-2.6c0.6-3.3,0.5-3.3,4-3.5c8.8-0.4,17.6-0.8,26.3-1.3c0.7,0,1.4-0.9,2.1-1.3c-0.7-0.4-1.3-1.2-2-1.2
		c-5.8,0-11.6,0.1-17.4,0.2C553.5,523.4,549.3,523.6,544.8,523.8z"/>
	<path class="st0" d="M542.1,515.5c-0.1,2.5-0.2,5.2-0.4,8.2c-22.2,0.8-44.3-0.7-66.7,0.5c-0.3-1.1-0.6-2.8-1.3-4.3
		c-1.1-2.5-6.2-3.2-7.7-0.9c-0.8,1.2-1.4,1-2.6,0.9c-1.8-0.2-3.7,0.2-5.6,0.4c-0.5,0-1.1,0.4-1.5,0.3c-2.8-0.5-5.5-0.8-7.6,1.7
		c-0.2,0.3-1,0.2-1.5,0.2c-14.5,0.4-28.9,0.7-43.4,1.1c-1.8,0.1-2.6-0.3-2.5-2.3c0.1-2.6-0.2-5.2-0.4-8.2
		C448.1,513.9,494.9,514.7,542.1,515.5z"/>
	<path class="st0" d="M432.9,498.9c-3.2-0.3-5.7-0.4-8.1-0.7c-0.6-0.1-1.4-0.9-1.6-1.6c-2.1-8.3-7-14.8-13.4-20.3
		c-3.4-3-7-5.7-11.4-7c-7.2-2.1-14.3-1.3-21.2,0.9c-6.8,2.2-13.5,4.9-20.2,7.3c-7.7,2.8-14.8,2.1-21.2-3.4c-2.4-2.1-5.1-3.9-7.5-6
		c-8.4-7.1-18.1-10.2-29-10.1c-0.7,0-1.4,0.2-2,0.2c-0.7,0-1.3,0-2.5,0c2.6-3.3,5.6-5.2,8.8-6.9c5.2-2.8,10.1-0.8,15,0.5
		c7,1.8,12.9,5.5,18.1,10.4c6.1,5.7,13.5,7,21.3,7.4c8.4,0.4,16.2-1.6,24.1-4.4c11.1-3.9,21.9-2.2,32,4.3
		c7.9,5.1,12.6,12.5,16.1,20.8C431.3,492.9,431.9,495.6,432.9,498.9z"/>
	<path class="st0" d="M401.2,509.5c0-2.6,0-5,0-7.6c1.6,0,3,0,4.4,0c8.3,0.1,16.5-0.2,24.8,0.3c13.4,0.8,26.8,2.2,40.2,3.1
		c6.3,0.4,12.5,0.6,18.8,0.7c12.3,0.3,24.6,0.4,36.9,0.7c5.3,0.1,10.5,0.4,15.8,0.6c-0.1,1.4-0.1,2.6-0.2,4.5
		C495.1,511,448.2,510.2,401.2,509.5z"/>
	<path class="st0" d="M126.7,563.9c-2,2.6-3.8,4.8-5.5,7.2c-1.9,2.6-3.7,5.3-5.7,8c-1.9,2.5-2.9,5.3-2.7,9.3c1.1-1.1,2-1.6,2.5-2.3
		c2.2-3.1,4.2-6.2,6.3-9.3c0.4-0.6,1-1.1,1.5-1.6c3.8,6.1,7.6,11.9,11.2,17.8c0.4,0.7,0.7,1.8,0.4,2.6c-3.2,8.8-8.7,15.2-18,17.7
		c-4.5,1.2-7-0.4-7.5-5c-1.3-11.3,0.1-22.4,3.8-33.2c1.3-3.9,3.4-7.5,5.1-11.2c0.6-1.3,1.2-2.5,1.9-3.9
		C122.6,561.3,124.8,562.7,126.7,563.9z"/>
	<path class="st0" d="M197.2,581.1c2.6,5.1,5,10,7.6,15.2c1.6-4.5-3-14.7-7.9-18.7c-0.4,0.3-0.9,0.8-1.4,0.9
		c-0.5,0.1-1.3,0.2-1.5-0.1c-1.3-1.4-2.4-3-3.7-4.6c2-0.6,4.3-1.3,6.5-1.9c0.4-0.1,1,0.5,1.3,0.9c5.6,8.7,9.4,18.1,10,28.6
		c0.2,3,0.5,6.2-1.5,8.8c-2.7,3.7-7.7,4.5-12.6,2.2c-3.2-1.5-5.4-4-6.9-7.1c-1.2-2.5-2.5-4.9-3.4-7.5c-0.4-1.2-0.2-3,0.5-4.1
		c2.7-4.2,5.9-7.9,10.4-10.4C195.4,583.1,196,582.2,197.2,581.1z"/>
	<path class="st0" d="M293,518.6c0.1-1.2,0.1-2.2,0.2-3.1c5.6-2.2,6.6-3.4,7.2-8.5c4.5,0,9.1-0.2,13.7,0c9.7,0.5,19.4,1.1,29.1,1.7
		c2.9,0.2,2.9,0.2,2.3,2.9c-0.4,1.6-0.7,3.1-0.9,4.7c-0.2,1.6-0.2,3.2-0.4,5.2C327.2,520.6,310.3,519.6,293,518.6z"/>
	<path class="st0" d="M460.4,544.6c-3.2-0.6-6.4-1.2-9.5-1.9c-0.5-0.1-1.3-0.8-1.3-1.3c-0.6-4.8-1.4-9.5,0.1-14.3
		c0.4-1.1,1-2.2,1.6-3.3c0.9-1.7,2.5-1.3,3.8-0.9c1.6,0.5,2.9,0.7,4.5-0.3c1.3-0.8,3-1,4.4,0.5c1.2,1.4,2.4,1.1,3.4-0.3
		c0.4-0.6,0.9-1.3,1.5-1.7c1.5-1.1,2.9-0.6,3.3,1.3c0.2,0.9,0,1.9,0.4,2.7c0.5,1,1.1,2.4,2,2.7c1.6,0.6,1.8,1.5,1.7,2.8
		c-0.4,4.8-3.1,8.6-6.1,12c-1,1.2-3.5,1.1-5.4,1.4c-1.3,0.2-2.7,0-4.1,0C460.5,544.3,460.4,544.4,460.4,544.6z"/>
	<path class="st0" d="M376.1,523.4c-8.9-0.5-17.8-1-26.7-1.6c-0.6,0-1.5-1.1-1.5-1.7c0.2-3.1,0.5-6.2,1.1-9.3
		c0.1-0.6,1.4-1.5,2.1-1.4c11.7,0.9,23.4,2,35.1,3c1.1,0.1,1.7,0.5,1.6,1.7c-0.3,2.6-0.5,5.3-0.8,7.9c-0.1,1.3-0.9,1.8-2.2,1.7
		c-2.9-0.1-5.8,0-8.7,0C376.1,523.6,376.1,523.5,376.1,523.4z"/>
	<path class="st0" d="M265,501c4.6,0.3,8.9,1,13.1,0.7c4-0.3,7.9-1.5,11.7-2.6c2.2-0.7,3.1-0.6,4,1.5c0.9,2.1,1.9,4.2,2.7,6.3
		c1.2,3.2,0.1,4.9-3.4,5.1c-3.2,0.2-3.1,0.2-3.3,3.5c0,0.6-0.7,1.7-1.2,1.8c-0.9,0.1-2.3,0.1-2.9-0.5c-1.5-1.5-2.6-1.9-4.1-0.7
		c-3.2,2.5-5.4,2.5-8.4-0.2c-1.2-1-2.1-1.9-3.7-0.6c-0.3,0.3-2.1-0.5-2.2-0.9C266.4,509.8,265.7,505.3,265,501z"/>
	<path class="st0" d="M541.4,527c0.4,3.3,0.2,4.1-3.5,4.1c-8.6-0.1-17.1,0.7-25.7,0.9c-9.4,0.2-18.8,0.1-28.2,0.1
		c-1.6,0-3.7,0.2-4.8-0.7c-0.9-0.7-0.6-2.9-0.7-4.4C499.4,527,520.4,527,541.4,527z"/>
	<path class="st0" d="M447,525.9c-0.2,2.2-0.4,4.5-0.7,7.1c-1.3,0-2.5,0-3.6,0c-9.9,0.3-19.9,0.7-29.8,0.9c-3,0.1-6.1-0.3-9.1-0.5
		c-1.2-0.1-2-0.5-1.9-1.9c0-1.4-0.1-2.7-0.2-4.1C416.6,527,431.7,526.4,447,525.9z"/>
	<path class="st0" d="M436.3,536.7c1.5-0.1,3.2-0.3,4.9-0.3c1.7-0.1,3.3,0,5.5,0c0,2.1,0.1,4.2,0,6.3c-0.1,1.3,0.4,2,1.6,2.7
		c3.8,2,7.8,2.4,12,2.2c1,0,1.9,0,3.4,0c-3,3.6-6.2,5.9-10.2,6.3c-7.6,0.8-14.3-1.6-20.1-6.5c-1.1-0.9-1.2-1.7-0.6-2.9
		C434,542,435.1,539.4,436.3,536.7z"/>
	<path class="st0" d="M349.2,525.3c11.8,0.7,23.4,1.4,35,2.1c-4.8,7.9-13.4,10.7-22.4,8.9C354.8,534.9,349.5,530.1,349.2,525.3z"/>
	<path class="st0" d="M350.9,505.8c4.7-7.7,12.3-10.5,20.5-8.2c4.8,1.3,9.3,2.9,12.7,6.7c0.9,1.1,1.7,2.3,2.5,3.5
		c-0.1,0.3-0.2,0.6-0.3,0.9C374.5,507.7,362.9,506.7,350.9,505.8z"/>
	<path class="st0" d="M136.2,588.9c-0.9-1.3-2.1-2.8-3.1-4.4c-2.3-3.5-4.6-7.1-6.9-10.6c-1.3-2-0.5-5.2,1.7-6.2
		c1.2-0.6,2.6-0.9,3.9-1.4c0.2-0.1,0.5-0.1,0.6,0.1c1.7,1.4,3.5,2.7,5,4.3c1.1,1.2,1.9,2.5,3.8,2.4c1.5-0.1,2.4,0.6,3,2.2
		c1.5,4.6,0,8.8-4.3,11.1C138.8,587,137.7,587.9,136.2,588.9z"/>
	<path class="st0" d="M181,592.3c-0.6-2.5-1.3-4.9-1.7-7.3c-0.3-1.5-0.4-3,1.8-3.6c0.6-0.1,0.8-1.4,1.2-2.1c1.1-1.9,2.4-3.4,4.9-3.1
		c1.7,0.2,4.3,3,4.4,4.9c0,0.6-0.7,1.4-1.3,1.9c-1.7,1.5-3.5,2.7-5.1,4.2C183.6,588.8,182.4,590.5,181,592.3z"/>
	<path class="st0" d="M391.3,512.9c1.9,0,3.8,0,5.9,0c0.2,3.2,0.4,6.2,0.4,9.3c0,0.5-0.6,1.4-1,1.4c-2,0.1-4,0.1-6.1,0.1
		C390.8,520,391.1,516.5,391.3,512.9z"/>
	<path class="st0" d="M166.3,568.6c-4.8-1-12.7-5.9-13.1-10.3C161.7,559.3,167,563.4,166.3,568.6z"/>
	<path class="st0" d="M419.6,556.7c4.2-6.1,7.5-12.5,9.1-19.9c1.1,0,2.3,0,3.9,0C429.2,544.2,426.3,551.7,419.6,556.7z"/>
	<path class="st0" d="M168.4,553.6c3,0.2,6.1,0.3,9.1,0.5c0.4,0,0.8,0.5,1.2,0.8c-0.3,0.4-0.6,0.9-1,1.1c-2.8,0.8-5.7,1.3-8.4-0.4
		c-0.5-0.3-0.8-1-1.2-1.5C168.1,554,168.3,553.8,168.4,553.6z"/>
	<path d="M337.7,368.5c-9.7-0.4-18.4-3.3-26.8-8c-11.3-6.4-15.5-16.7-17-28.7c-1-8.5,0.4-16.7,4.4-24.2c3.7-7.2,9.7-12.4,17-15.4
		c5.7-2.4,11.9-1.4,17.9,0c12.3,2.9,22.2,9.7,28.7,20.5c6,10,10.5,20.8,9.1,33c-0.4,3.7-1.6,7.3-2.4,10.9c-0.1,0.4-0.4,1.1-0.6,1.1
		c-2.5-0.1-3.3,2.2-4.8,3.5c-3.4,3-7.3,5-11.8,5.6C346.8,367.3,342.2,367.9,337.7,368.5z M307.7,354.4c0.3,0.4,0.5,0.7,0.7,0.9
		c0.5,0.4,0.9,0.8,1.4,1.1c3.8,2.9,8,4.5,12.6,5.7c8.5,2,17,3.1,25.6,1.2c3.8-0.9,7.8-1.8,11.3-3.6c6.3-3.2,8.6-9,8.6-15.8
		c0-8.1-2.1-15.7-5.7-22.9c-5.1-10.1-12-18.6-22.8-23.1c-6-2.5-12.2-3.7-18.6-2.9c-7.8,0.9-13.5,5.6-17.7,11.9
		c-8.1,12.2-8.3,25.2-2.4,38.4c0.9,1.9,2.1,3.7,3.2,5.5c0.7-3.8,3.1-7,5.6-7.1c2.1-0.1,4.3,1.9,4.5,4.1
		C314.3,351.4,312.3,353.6,307.7,354.4z"/>
	<path d="M453.2,323.1c-0.1,9-1.8,17.6-5.8,25.8c-3.2,6.5-8.1,11.7-14.5,14.8c-5.9,2.8-12.5,3.5-19.1,2.6
		c-10.4-1.4-16.6-8.1-20.4-17.3c-5.1-12.4-2.4-24.5,1.9-36.4c2.9-7.9,7.6-14.6,14.8-18.9c9.3-5.6,19.2-7,29-1.7
		c7.5,4.1,11.5,11.2,12.9,19.6C452.7,315.4,452.8,319.3,453.2,323.1z M400.9,354.2c0.5,0.7,0.7,1.1,1,1.5c3.1,4.1,7.6,6.1,12.5,6.8
		c8.2,1.1,15.8-0.3,22.3-5.8c7-5.9,10.3-13.7,11.8-22.4c1.8-10.5,1.8-20.9-3.7-30.5c-4.1-7.2-9.9-11.8-18.6-11.5
		c-8.8,0.4-16,4.2-21.3,11c-6.1,7.8-9.7,16.9-11.1,26.8c-0.9,6.8,0.6,13.1,3.7,19.2c2.1-4.2,3.1-4.7,6.6-3.5c2,0.6,2.9,2.4,2.4,5
		C406,353.8,405.4,354.2,400.9,354.2z"/>
	<path d="M397.9,408.9c-0.8-4.2-1.7-8.3-2.4-12.5c-0.4-2.6-1.7-3.3-4.2-3.1c-4.7,0.4-9-1.2-12.8-3.6c-3.7-2.3-4.7-6.4-3.1-12.1
		c0.4,1.2,0.7,1.9,0.9,2.6c1.7,6.8,6.6,10.4,13.7,10.3c5.5-0.1,10.1-2,13.6-6.4c2.3-2.7,1.9-5.5,0.5-8.3c-0.6-1.2-1.3-2.4-1.8-3.7
		c-0.2-0.5,0.1-1.2,0.2-1.8c0.6,0.2,1.5,0.2,1.8,0.6c1.3,1.8,2.9,3.5,3.5,5.6c1.6,5.6,1.1,10-4.6,13.1c-1.9,1.1-3.8,2.2-5.3,3
		c1.1,5.3,2.2,10.4,3.4,15.9c1.8-1.2,3.4-2.3,5.1-3.5c0.6-0.4,1.1-1,1.7-1.1c0.7-0.1,1.4,0.2,2.1,0.4c-0.2,0.6-0.4,1.2-0.7,1.7
		c-0.1,0.2-0.4,0.3-0.5,0.5c-2.4,3.9-5.9,5.8-10.4,6.1c-5.3,0.3-10.3-0.5-14.8-3.7c-2.1-1.5-4.4-2.9-5.1-5.6
		c-0.2-0.7-0.2-1.5,0.1-2.4C383.5,407.1,389.4,410.1,397.9,408.9z"/>
	<path d="M355.5,264c0.1,3-2.3,5.8-5,6.6c-1.1,0.3-1.9,1.6-2.9,2.3c-0.8,0.5-1.8,0.8-2.6,1.1c-0.2-0.9-0.6-2-0.4-2.8
		c0.4-1.2,1-2.5,2-3.3c2.1-1.8,4.3-3.3,6.6-4.9C354.4,262.3,355.2,262.8,355.5,264z"/>
	<path d="M402,280.9c-0.3,0.4-0.6,1-1.1,1.2c-0.4,0.2-1.1,0.1-1.4-0.1c-3.1-2.9-6.1-5.8-9-8.8c-0.3-0.3-0.3-1.2,0-1.6
		c0.3-0.4,1-0.8,1.5-0.7c0.9,0.1,1.9,0.4,2.5,1c2.4,2.6,4.7,5.3,7.1,8C401.7,280.1,401.7,280.4,402,280.9z"/>
	<path d="M141.5,524.7c-14.1,0.2-25.9-5.2-35.8-15c-5.5-5.4-7-12.4-7-19.8c0.1-10.9,4.8-19.7,12.7-27c4.5-4.1,9.8-6.1,16.1-5.8
		c8.2,0.3,16.3,0.9,23.4,5.1c3.9,2.3,7.4,5.4,10.5,8.7c5.9,6.4,9.7,13.8,10,22.8c0.2,7-1.1,13.7-5.1,19.4
		c-4.6,6.6-11.3,10-19.3,11.1C145.3,524.6,143.4,524.6,141.5,524.7z M161.2,476c-0.2,0.9-0.4,1.4-0.5,1.8c-0.7,2.1-2.5,2.4-4.3,2.8
		c-1.7,0.3-2.9-0.1-3.9-1.5c-2.3-3.2-1.5-6.1,2.2-7.6c2.1-0.8,2.4-1.8,0.6-2.9c-3.9-2.3-7.8-4.9-12.1-6.1c-5.2-1.4-10.7-1.6-16-2.2
		c-4.1-0.5-7.9,0.9-11,3.2c-8.3,6.3-13.5,14.5-14.2,25.1c-0.5,7.6,1.6,14.5,6.9,20c5.9,6,13.2,9.8,21.5,11.7
		c5.4,1.2,10.9,0.9,16.4,0.5c5.6-0.5,10.5-2.3,14.3-6.4C171.9,502.6,170.1,488.6,161.2,476z"/>
	<path d="M211.7,533.3c-5.7,0.1-11.9-0.7-17.5-3.5c-7.6-3.7-12.2-9.8-13.1-18.4c-1.4-14.1,3.4-25.7,14-35.1c6.2-5.5,13.4-8.4,21.7-8
		c6.3,0.3,12.4,2.2,16.6,6.8c4.2,4.6,7.7,9.9,9,16.4c1.6,8.4,1.3,16.6-2.1,24.5C235.3,527.2,225,533.5,211.7,533.3z M227,474.8
		c-4.4-2.1-8.9-3.7-13.9-3.1c-5.2,0.7-10,2.5-14.1,5.7c-9.1,7.3-14.1,16.9-14.8,28.6c-0.8,12.2,6,19.7,16.9,22.9
		c3.5,1,7.4,0.7,11.2,0.7c8.6,0.2,15.9-2.7,21.3-9.6c6.9-8.8,7.7-18.7,5-29.1c-0.9-3.5-2.4-6.9-4.9-9.6c-2.7,4-5.8,4.9-8.5,2.7
		C222.8,482.1,223.5,478.6,227,474.8z"/>
	<path class="st0" d="M307.7,354.4c4.6-0.7,6.6-2.9,6.2-6.7c-0.2-2.2-2.4-4.2-4.5-4.1c-2.4,0.1-4.9,3.3-5.6,7.1
		c-1.1-1.8-2.3-3.6-3.2-5.5c-5.9-13.2-5.6-26.1,2.4-38.4c4.2-6.3,9.9-11,17.7-11.9c6.4-0.8,12.6,0.4,18.6,2.9
		c10.8,4.6,17.7,13,22.8,23.1c3.6,7.2,5.7,14.8,5.7,22.9c0,6.8-2.3,12.6-8.6,15.8c-3.5,1.8-7.4,2.7-11.3,3.6
		c-8.6,2-17.1,0.9-25.6-1.2c-4.6-1.1-8.9-2.8-12.6-5.7c-0.5-0.4-1-0.7-1.4-1.1C308.2,355.1,308.1,354.8,307.7,354.4z"/>
	<path class="st0" d="M400.9,354.2c4.5,0,5.1-0.3,5.6-3.4c0.4-2.6-0.4-4.3-2.4-5c-3.5-1.1-4.4-0.6-6.6,3.5
		c-3.1-6.1-4.7-12.5-3.7-19.2c1.4-9.9,5-19,11.1-26.8c5.3-6.8,12.5-10.6,21.3-11c8.8-0.4,14.6,4.2,18.6,11.5
		c5.5,9.6,5.4,20,3.7,30.5c-1.5,8.7-4.8,16.5-11.8,22.4c-6.6,5.5-14.2,6.9-22.3,5.8c-4.9-0.7-9.3-2.6-12.5-6.8
		C401.6,355.3,401.3,354.9,400.9,354.2z"/>
	<path class="st0" d="M161.2,476c8.9,12.7,10.7,26.7-0.2,38.4c-3.8,4.1-8.8,5.9-14.3,6.4c-5.5,0.5-11,0.8-16.4-0.5
		c-8.2-1.9-15.5-5.7-21.5-11.7c-5.4-5.4-7.4-12.4-6.9-20c0.6-10.6,5.9-18.8,14.2-25.1c3.1-2.4,6.9-3.7,11-3.2
		c5.4,0.6,10.9,0.7,16,2.2c4.3,1.2,8.2,3.8,12.1,6.1c1.9,1.1,1.6,2-0.6,2.9c-3.8,1.5-4.5,4.4-2.2,7.6c1,1.5,2.2,1.8,3.9,1.5
		c1.9-0.3,3.7-0.7,4.3-2.8C160.9,477.3,161,476.8,161.2,476z"/>
	<path class="st0" d="M227,474.8c-3.6,3.8-4.2,7.3-1.9,9.2c2.8,2.2,5.9,1.3,8.5-2.7c2.6,2.8,4,6.1,4.9,9.6c2.8,10.4,2,20.3-5,29.1
		c-5.4,6.9-12.7,9.8-21.3,9.6c-3.7-0.1-7.7,0.3-11.2-0.7c-10.9-3.1-17.7-10.7-16.9-22.9c0.8-11.7,5.7-21.3,14.8-28.6
		c4-3.2,8.9-5,14.1-5.7C218.1,471.1,222.6,472.7,227,474.8z"/>
</g>
</svg>
