<?xml version="1.0" encoding="utf-8"?>
<!-- Generator: Adobe Illustrator 26.0.0, SVG Export Plug-In . SVG Version: 6.00 Build 0)  -->
<svg version="1.1" id="Capa_1" xmlns="http://www.w3.org/2000/svg" xmlns:xlink="http://www.w3.org/1999/xlink" x="0px" y="0px"
	 viewBox="0 0 595.3 662.7" style="enable-background:new 0 0 595.3 662.7;" xml:space="preserve">
<style type="text/css">
	.st0{fill:#FFFFFF;}
</style>
<g>
	<path d="M316,363.6c29.4-6.4,55.5-22.5,85.2-27.8c15.5-2.6,30.6,4.2,45.6,7c19.3,4.9,31.3,25.4,51.7,26.8c6.7,0.8,13.5,1.8,20.3,2
		c7.1,1.3,20.9-7.8,24.5,1c2.6,12.5,8.6,24.3,18.4,32.9c2.6,1.7,5.7,5.8,8.6,2.4c4.6-3.8,19.4-26.5,23.5-24
		c4.5,3.4,0.1,27.3-1.6,33.1c-13.8,46.9-72.7,43.6-112.2,41.5c-51.4-2.5-102.3-10.2-153.7-14c13.3,17.8,30.5,31,45.2,47.3
		c5.4,7.7,13,13.3,19.5,19.9c1.7,2.5,0.8,5.4-2,6.2c-2.7,0.8-4.4,2.4-5.8,4.7c-3.1,4.1-7.7,6.6-11.8,10c6.6,3.2,13.8,4.7,20.6,7.3
		c1.9,1,3,0.3,4-1.3c4.1-6.8,8.3-13.6,12.5-20.4c5.7-9.5,16.4-1.2,23.2,2.5c9.7,5.9,19.4,11.9,29,17.9c4.5,2.3,8.8,4.2,9.2,9.9
		c0.3,1.9-0.1,3.2-1.7,3.8c-7.2,4.3-18.6-1.3-23.1,7.2c-6.9,13.6-15.3,26.2-23.5,39c-4.6,6.6-12.1,12.4-20.5,9.3
		c-29.6-6.9-55.6-27.3-86.7-27.2c-12.3,0-24.5,0.4-36.8,0.8c-2.8,0.3-5.4,2.4-7.3,4.6c-17.4,17.9-32.5,37.9-51.3,54.5
		c-6.3,5.8-12.8,11.3-19.3,16.9c-3.3,3.1-6.4,7.2-11.4,4.7c-9.1-6.6-52.1-31-45.9-41.8c0.8-4.6,13.5-4.1,17.7-5.2
		c3.9-0.1,6-4.5,8.9-6.7c18.5-22.2,41.8-40.5,61-61.9c-5-8.7-10.5-16.9-16.4-24.8c-6.4-9.1-10-19.5-15.6-29
		c-2.1-2.5-5.6-0.9-8.2,0.1c-14.8,4.9-29.6,9.8-44.8,13.7c-10.7,3-11.4-12.4-15.6-18.9c-5.6,3.4-11.4,2.8-17.4,2.8
		c-6.5,2.9-18.2-4.3-10.3-10.6c5-3.2-7.1-6.6-8.8-9.3c-5.6-4.1,0.4-8.2,5.2-8.4c0-0.2,0-0.4,0-0.7c-7.9-1.1-9.1-10.2-0.6-10
		c7.8,0.7,14.3,6.3,21.3,9.1c18.5-5.4,37.7-8.2,56.4-12.7c0.1-0.2,0.2-0.5,0.2-0.7c-8.3-8.9-17.9-15.8-28.3-22.3
		c-4.2-3.2-8.7-4.6-14-4.2c-23.5-0.1-46.7,2-70,4.2c-5.6-0.4-30.1,4.3-27.6-5.1c-4.9,0.3-9.7-0.9-14.1,2c-13.1,9.2-9.2-1.4-6.1-9.9
		c-4.8-1-12.7,2.5-15.1-3.2c-0.6-2.2,0.3-4,2.1-5.2c3.5-2.2,8.9-3.9,12.1-6.3c-2.4-4.4-9.5-7.7-8.3-13.2c1-2.1,3.4-3.5,6.1-2.9
		c5.1,0.1,14.1,5.6,17.9,3.6c1.6-2.2,3.9-4,4.2-7.1c0.1-1.1,1.3-2.3,2.3-3.1c6.1-3.6,6.5,7.1,5.5,11.1c23.2-0.4,46-0.9,69.3-1.3
		c-17.5-40.8-8.7-98.2,14.3-135.5c6.2-9.4,13-18.6,22.3-25.3c8.5-7.4,21.8-9.7,27.2-20.1c23.6-49.3,48.5-98.5,82.8-141.4
		c18.9-25.9,40.9-51.7,73-60.6c15.1-3.4,29.5,3.9,42.7,10.6c22.4,14,0.6,53.7,10.2,45.8c10.8-11.2,24.3-19,38.1-25.7
		c11.7-4.5,22.9-13.2,36-11.9c28.3,0.7,52.3,18.6,47.3,49.1c-6.1,26.4-22.6,47.5-40,67.4c-23.1,26.1-50.2,48.5-80.6,65.6
		c-23.9,16.2-48.5,31.2-73,46.2c7.4,10.6,13.3,21.9,13.4,35.2c0.8,7.9,3.1,15.7,1,23.7c-0.5,2.2-0.8,4.6-0.6,6.8
		C327.1,331.6,320.5,346.8,316,363.6z"/>
	<path class="st0" d="M319.3,300.7c-57.3-26.5-120-54.4-184-55.1c6.9-10.2,16.1-18.6,26.9-24.4c4.1-2.6,11.5-2.1,13.9-6.7
		c7-19.4,17.8-37.2,25.4-56.4c5.3-11.6,11.3-22.8,19-33.2c19.1-28.7,36.9-58.9,62-83C297,29,309.9,11,330.6,8.9
		c15.9-3.5,31.4,2.3,42.3,14.1c9.6,12.2-1.9,29.4-1.7,43.3c-5.6,12.6-17.8,21.5-26.1,32.5c-7.8,8.1-14.4,17.1-21.4,25.9
		c-21,27.1-44,53.3-58.6,84.6c-1.3,2.9-2.5,3.5-5.2,2.2c-4.1-2-8.4-2.6-12.8-3c-11.8-0.1-27.8-7.8-36.9,2.6
		c7.6,3.5,16.9,1.8,25.1,2.8c7.9-1.8,29.2,11,30.7,2c1-7.3,6.1-12.3,9.9-18.1c5-7.6,9.8-15.3,15-22.7c19.8-27.1,40.3-53.4,63.1-78.2
		c27.5-29.5,59.4-59,98.7-70.8c62.9-2,52,42.6,28,82.4c-14,23.1-35.2,40.8-54.9,58.9c-15.9,14.5-35.5,23.4-53.7,34.6
		c-8.8,5.3-17.3,11-26,16.4c-14.8,10.4-32.4,16.1-47.1,26C316,258.3,319,280,319.3,300.7z"/>
	<path class="st0" d="M216.2,436.3c8-8.4,17.6-14.5,29.1-17.2c18.3-9.1,44.6-7.8,64.2-4c25.9,4.6,51.3,11.4,75.9,19.7
		c0.1-0.3,0.2-0.6,0.3-0.9C356.9,419,324.1,410.6,292,407c7.5-10.4,14.9-20.6,19.1-32.9c1.3-3.5,3.3-4.9,6.9-5.9
		c17.7-5.2,35.7-10,52.6-17.6c39.5-23.3,80-3.4,113.8,20c26.5,17.9,57.1-6,56.1,8.4c1.2,10.3,12,27.1,21.4,31.9
		c6.8,3.1-2.6,6.3-4.6,9.3c-9.6,10.8-21.6,17.8-34.9,22.8c-10.2,3.4-20.3,8.4-31.3,7.6c-4.9-0.7-4.9,4.3,0,3.5
		c32-0.4,58.5-20.3,82.4-39.2c5.3-4.1,9.7-9.1,12.8-15.1c1-1.4,2-4.2,4.1-4c2,1.4,0.6,4.9,0.5,7c-4.1,19.1-13.4,38.6-33.4,44.8
		c-39.9,13.3-82.8,6.2-123.8,3c-36-3.4-72-5.9-107.8-11.2c-13.6-2.5-15.4-20.3-31.9-20.8c-26.8-0.7-51.6,14.5-77.8,18.9
		C216.3,436.7,216.2,436.5,216.2,436.3z M460.4,407.5c0.1-0.4,0.2-0.8,0.3-1.2c-19.3-3.4-37.9-9.7-56.4-16.2
		c-8.2-2.2-16-5.1-23.3-9.3c-1.7-1-3.6-1.7-5.8-0.6c12.4,8.9,28.3,11.8,42.2,17.7C430.9,404.6,445.7,405.6,460.4,407.5z"/>
	<path class="st0" d="M287.6,456.7c-28,6.7-55.3,17-83,25.1c-19.2,4.6-37.8,10.9-56.2,17.8c-4.6,1.6-6.8,0.8-8.8-3.6
		c-5.2-9.8-10-19.8-14.7-29.8c-2.8-4.5,10.8-3.9,13.3-5.4c21.1-4.8,42.5-9.5,63.7-13.7c16.1-4.8,32.6-9.3,48.7-13.9
		c11.1-3.9,22.1-8.8,33.8-10.3c15.5-1.3,28.2,12.8,37.1,24.2c8.9,11.6,19.8,21.6,28.8,33.2c7.5,8.1,14.5,16.7,22.4,24.3
		c1.9,3.1,10.6,7.3,5.9,10.6c-19.7,17.8-38.1,26-63.5,32.7c-14.6,3.7-30,1.6-44.9,1.7c-11.9-1.5-31.6-1.8-39.4-11.8
		c-8.9-16-20.2-30.4-28.7-46.6c-0.8-1.5-0.5-2.3,1.4-3c10.7-3.8,21.2-8.6,32.1-11.8c16.7-5.7,33.1-11.9,49.9-17.1
		C287.4,458.9,287.5,458.6,287.6,456.7z"/>
	<path class="st0" d="M463.1,548.5c-6.6,2.1-16.4-2.4-20.7,4.2c-6.9,11.2-13.8,22.6-21.1,33.6c-4.3,4.6-9.7,15.8-16.7,15.1
		c-21.3-4.6-40.9-15.8-61.4-22.9c-3.4-1.4-6.8-3.1-10.7-3c-20-0.2-40.1-0.1-60.1,1.7c-4.5-0.3-2.2,3.9-4.6,6.1
		c-24.1,22.6-46.3,47-70.5,69.5c-13,9.7-34.6-18.2-45.1-25.3c-4.8-5,4.1-6.9,7.8-6.3c5.2,0.5,8.7-1.7,11.6-5.7
		c4.5-5.8,10.2-10.7,14.5-16.6c6.5-8.8,16-14.7,23.3-22.8c7-7.1,14.1-14.2,21.1-21.4c4.5-4.6,4.5-4.7,10.6-2.6
		c20.2,7.5,41.8,5.3,62.8,4.6c15.5-1.3,30.4-7.2,45.2-11.9c6.1-1.7,12.1-9.3,18.4-8.1c8.2,3.6,16.2,7.5,24.5,10.8
		c9.5,3.2,7.5-10,12.8-14.4c4.1-3.4,9-19.6,15.1-14c13.3,11.5,30.8,16.3,43.3,28.7C463.2,547.9,463.2,548.2,463.1,548.5z"/>
	<path class="st0" d="M246.7,383.8c-30.4,0.7-48.2-9.4-70.8-28.3c-6.2-6.4-13.4-12-22.8-11.5c-13.9,0-29.9,7.4-42.3-2
		c-9.8-14.5,5.9-66,14.8-81c3.1-3.7,4.4-11,10.2-11.1c6.6,0.3,13.3,0.7,19.9,1.4c39.8,5,77.9,19.3,115.1,34c10.6,4.6,21,9.4,31.9,13
		c4,2,15.7,5,16.6,9c0.8,22.7-5.8,43.7-15.3,64.2c-1.7,4.6-5.1,6.9-9.8,7.4C278.4,380.8,262.7,383.2,246.7,383.8z M217.6,368
		c0,0.2,0.1,0.4,0.1,0.6c10.4-2.5,23.7-0.9,31.5-9.5c5.8-9.6,15.1-18.8,14.2-30.9c0.4-6.4,2.8-12.8-1.7-18.5
		c-3.8-7.9-7.4-18.5-16.6-21.6c-30.1-8.1-57.8,13-64.1,42.4C173.2,352.6,198.3,367.4,217.6,368z M159.4,294
		c1.2-44-37.9-39.9-43.6,0.2c-6.4,20,5,67.6,31.5,40.9C155.9,323.3,160.6,308.9,159.4,294z"/>
	<path class="st0" d="M108.9,343c9.8,7.3,20.3,10.3,31.7,4.7c-2.8,12.1,3.8,15.8,13.8,19.8c2.6,2.1-0.1,9.6,0.3,13.3
		c-7.2-4.3-13.4-8.1-20.8-11.4c-11.7-4.7-17.5,7.7-12.3,16.6c3.4,8.3,12.4,12.2,19.4,17.2c16.3,10.5,36.9,16,56.1,12.7
		c10.8-2.1,25.7-5.5,26.6-18.9c-3.1-22.3-51.3-6.7-67.4-15.9c0.5-4,1-8,1.5-12.3c9.7,3.2,16.7,4.6,22.6-5
		c10.2,7.9,20.4,15.7,33.1,19.1c28.1,6.8,57.7,3.3,85.6-2.7c0.1,0.5,0.2,0.7,0.1,0.8c-6,8.7-10.5,19.7-19.2,25.8
		c-18.3,2.1-37.2,4.5-53.7,13.3c-5.6,4.4-13,8.4-16.1,15c-1.2,3.3-1.2,3.2-4.9,3.4c-30,1.3-60.1-13.8-78-37.6
		c-10.7-19.7-19.3-34.2-19.1-57.5C108.5,343.5,108.7,343.2,108.9,343z"/>
	<path class="st0" d="M133.8,417.1c-30-1.1-65.8,2.5-93.3,1.4c8.7-8.9,7.2-18.8,4.7-28.7c19.5-1,39.2-2,58.7-2.9
		c3.2,0.3,7.5-2.1,9.8,0.8c5.6,10.4,9.3,22.4,20.3,28.4C133.9,416.5,133.9,416.8,133.8,417.1z"/>
	<path class="st0" d="M16.2,420.1c2.8-11.4,2.3-13.7-10-12.9c-0.5,0-1.2-0.5-1.3-0.9c1.2-3,8.8-4.4,11.4-7.2
		c5.9-5.5-6.1-9.2-7.4-14.2c4.8-3.3,22.8,8.6,24.6,2.5c2-3.7,1.4-8.9,5.3-11.2c1.8,1.7,1.8,4.2,1.5,6.5c-1.5,7.7,4.8,14,2.9,21.8
		c-1.2,7.4-4.8,10.2-12.2,8.9C24.8,411.8,21.6,420.2,16.2,420.1z M25.6,392.3c-4.9,3.9,7.3,8.3,10,7.2c1.4-1.2,1.8-2.5-0.4-3.2
		C31.4,396.6,27.1,396.7,25.6,392.3z"/>
	<path class="st0" d="M128.1,484.8c-4.4,0.3-8.4,2.4-12.8,1.3c-1.2-0.3-2.7,0.1-3.9,0.5c-2.6,0.9-5,0.1-7.3-1
		c-4.5-2.2,1.6-6.1,3.1-8.4c2.7-3.9-12.7-7.1-12.4-11.7c1.9-2.3,5.3-0.6,7.5-2.3c-0.9-2.3-2.9-2.8-4.9-4c-2.1-1.4-3.3-3.4-2.3-4.4
		c3.2-2.6,17.6,7.1,22,8.5C121,465.6,127.5,479.9,128.1,484.8z"/>
	<path class="st0" d="M178.3,361.8c-13.5,10.4-13.9,6.3-28,0.7c-6-1.6-11.3-13.2-3.5-15.5C160,345.7,168.2,354.4,178.3,361.8z"/>
	<path class="st0" d="M193.3,400.4c-2.9,2.3-6.4,3.1-8.6,5.6c0.1,0.2,0.2,0.4,0.4,0.6c1.1,0,2.1-0.5,2.8-1.3
		c7.9-8.7,17.6-4.9,26.4-0.4c-6.4,5.3-14.9,7.1-23,7.3c-3.7-0.8-34.3,2.9-21.9-5.5C176.7,402.2,184.5,399.3,193.3,400.4z"/>
	<path class="st0" d="M166.5,386.6c3.5,0.4,7.2,1.3,10.7,1.1c1.2-0.1,2.5-1,2.6,1.2c0.5,6.6-8.8,1.3-12.3,1.1
		c-0.8-0.2-1.2-1.8-1.8-2.8C166.1,387,166.3,386.8,166.5,386.6z"/>
	<path class="st0" d="M189.2,443c-7.9,2.9-10,2.7-16.1-3.5C178.6,440.7,183.7,441.8,189.2,443z"/>
	<path class="st0" d="M156.9,386.3c-7.1-1.4-10.9-4.4-10.4-8.4c3.5,2.1,7,4.1,10.6,6.3C157,384.7,157,385.4,156.9,386.3z"/>
	<path class="st0" d="M227.6,289c9.3,0.4,18.2,3.2,25.5,8.7c8.3,11.5,10.8,24,7.3,37.8c-6.5,11.3-11.2,26.8-26.3,28.4
		c-12.5,2.3-25.1,2.3-36.4-4.4c-6.4-3.1-11.4-6.9-13.8-13.7C175.4,320.4,203.4,292.1,227.6,289z M200.4,336.1
		c-0.7-9.3-12.5-8.2-11.5,1.2c-0.5,4.5,6.6,10.5,9.5,5C199.3,340.4,199.7,338.2,200.4,336.1z"/>
	<path class="st0" d="M116.4,313.3c-0.6-15.4,2.2-27.6,10-40.9c10.5-13.6,25.7-9.5,29.6,6.9c3.3,13.1,2.5,26.6-1.3,39.4
		c-3.1,12.6-20.5,31.5-31.1,14.7C120.8,326.9,117.4,320.3,116.4,313.3C116.2,313.3,116.3,313.3,116.4,313.3z M144.9,321
		c-3.5-14.7-12.6,3-7.4,8.2c1.7,2,4.6,1.7,5.5-0.8C143.7,326,144.2,323.6,144.9,321z"/>
</g>
</svg>
