<?xml version="1.0" encoding="utf-8"?>
<!-- Generator: Adobe Illustrator 26.0.0, SVG Export Plug-In . SVG Version: 6.00 Build 0)  -->
<svg version="1.1" id="Capa_1" xmlns="http://www.w3.org/2000/svg" xmlns:xlink="http://www.w3.org/1999/xlink" x="0px" y="0px"
	 viewBox="0 0 595.3 662.7" style="enable-background:new 0 0 595.3 662.7;" xml:space="preserve">
<style type="text/css">
	.st0{fill:#FFFFFF;}
</style>
<g>
	<path d="M316,363.6c3.8-1,7.6-2,11.4-3.1c13.9-4,27.3-9.6,40.7-15c10.7-4.3,21.7-7.6,33.1-9.7c7.1-1.3,14.1-0.5,21.1,1.1
		c8.2,2,16.3,4,24.5,5.9c8.1,2,14.6,7,21.3,11.6c4.5,3.1,8.9,6.3,13.4,9.5c5.1,3.6,11,5,17,5.7c6.7,0.8,13.5,1.8,20.3,2
		c4,0.1,8-1.1,12-1.7c2.3-0.4,4.6-1,7-1.1c2.9-0.2,4.6,1.1,5.5,3.8c0.4,1.2,0.7,2.4,0.9,3.6c0.2,1.1,0.2,2.3,0.6,3.3
		c4,9.7,8.6,19.1,16.9,26c1.2,1,2.5,1.8,3.7,2.8c1.7,1.3,3.4,1.3,4.9-0.4c4.6-5.4,9.2-10.7,13.8-16.1c1.8-2.1,3.5-4.4,5.4-6.4
		c1.1-1.2,2.5-2.3,4.3-1.5c1.8,0.7,1.7,2.4,1.7,4c0,9.8-0.4,19.5-3.3,29.1c-5.5,18-17,29.7-34.8,35.8c-13,4.5-26.4,5.9-40.1,6.2
		c-8,0.2-16.1,0.7-24.1,0.7c-4.4,0-8.8-1-13.2-1.2c-6.3-0.4-12.7-0.4-19-0.8c-8-0.6-16-1.6-24-2.4c-9.9-1-19.8-2-29.7-3
		c-12-1.2-24.1-2.5-36.1-3.7c-12.5-1.2-25-2.3-37.5-3.4c-2.3-0.2-4.5-0.4-7.4-0.7c2.4,3,4.3,5.7,6.5,8.1
		c5.7,6.2,11.6,12.2,17.4,18.3c0.9,0.9,1.7,1.9,2.7,2.6c7.3,5,12.3,12.3,18.6,18.3c2.1,2,3.5,4.8,5.6,6.9c3.4,3.4,7.1,6.5,10.6,9.7
		c1.1,1,2.4,2,3.3,3.3c1.7,2.5,0.8,5.4-2,6.2c-2.7,0.8-4.4,2.4-5.8,4.7c-0.8,1.4-2.2,2.5-3.5,3.6c-2.6,2.1-5.4,4.2-8.3,6.4
		c0.7,0.4,1.1,0.7,1.6,0.9c5.4,1.8,10.7,3.6,16.1,5.4c1,0.3,2,0.6,2.9,1c1.9,1,3,0.3,4-1.3c4.1-6.8,8.3-13.6,12.5-20.4
		c2.3-3.9,6.8-5.6,11-3.8c4.2,1.8,8.3,3.9,12.2,6.3c9.7,5.9,19.4,11.9,29,17.9c0.8,0.5,1.5,1,2.3,1.3c4.1,1.4,6.3,4.3,6.9,8.6
		c0.3,1.9-0.1,3.2-1.7,3.8c-2.2,0.8-4.6,1.6-7,1.9c-2.9,0.4-5.9,0.3-8.8,0.4c-3.4,0.2-5.7,1.9-7.3,4.9c-4,7.3-7.8,14.8-12.4,21.7
		c-3.8,5.7-7.4,11.5-11.1,17.3c-2.1,3.3-5.5,5.9-8.7,8.4c-3.6,2.8-7.8,1.5-11.8,0.9c-6.9-1-12.9-4.7-19.4-6.7
		c-12.9-3.9-24.9-10.1-37.4-15c-9.6-3.8-19.6-5.5-29.9-5.5c-12.3,0-24.5,0.4-36.8,0.8c-1.4,0-2.9,0.9-4.2,1.7
		c-1.2,0.7-2.1,1.8-3.1,2.9c-4.3,4.6-8.7,9.2-13,13.9c-6.5,7.3-12.8,14.9-19.5,22.1c-6,6.4-12.3,12.5-18.8,18.5
		c-6.3,5.8-12.8,11.3-19.3,16.9c-1.1,0.9-2.1,1.9-3,2.9c-2.6,2.6-5,3.2-8.4,1.8c-1.5-0.6-2.9-1.5-4.2-2.4c-10-7-20-14-29.8-21.2
		c-3.5-2.6-6.8-5.7-9.8-8.9c-2.3-2.5-3.3-5.7-2.1-9.3c0.7-2.1,2-3.2,4.4-3.2c2,0,4-0.6,6.1-1c2.4-0.4,4.8-0.8,7.2-1
		c1.7-0.1,3-0.6,4.2-2c1.4-1.7,3.2-3.1,4.7-4.7c4.1-4.6,8.1-9.4,12.3-13.9c4.9-5,10-9.9,15.1-14.6c7.9-7.4,16.3-14.3,23.2-22.7
		c3.3-4,7.2-7.4,10.4-10.7c-3.2-5.2-6.2-10.4-9.5-15.4c-2.1-3.3-5-6.1-6.9-9.4c-4-6.7-8.4-13.2-11.1-20.6c-1.1-3-2.8-5.7-4.5-8.4
		c-0.5-0.8-2.1-1.4-3.1-1.4c-1.7,0.1-3.4,0.9-5.1,1.5c-9,2.9-18,6-27.1,8.8c-5.8,1.8-11.8,3.2-17.7,4.9c-4,1.1-6.4,0.4-8.5-3.1
		c-1.4-2.4-2.4-5.1-3.5-7.6c-1.2-2.7-2.4-5.4-3.6-8.2c-1.4,0.6-2.5,1.1-3.7,1.6c-3.6,1.6-7.3,1.5-11.1,1.1c-0.9-0.1-1.8-0.2-2.6,0.1
		c-4.5,1.8-8.1-0.2-11.5-2.7c-2.1-1.5-2-4.1-0.2-6.5c0.4-0.5,0.9-1,1.4-1.4c2-1.7,1.9-2.3-0.4-3.7c-2.9-1.8-5.8-3.5-8.4-5.6
		c-1.1-0.9-2.5-2.6-2.3-3.8c0.2-2.1,2.3-3.3,4.4-3.9c1-0.3,2-0.5,3.1-0.7c0-0.2,0-0.4,0-0.7c-0.9-0.3-1.8-0.7-2.7-1
		c-2.8-1-4.3-3-3.7-5.2c0.7-2.8,2.8-4.2,5.8-3.8c4.2,0.5,7.9,1.8,11.5,4.1c3.1,2,6.7,3.4,9.8,5c1.7-0.6,3.3-1.3,5-1.6
		c5.9-1.3,11.8-2.6,17.7-3.8c11.2-2.4,22.5-4.9,33.7-7.3c0.1-0.2,0.2-0.5,0.2-0.7c-1.1-1-2.1-2-3.2-3c-2.2-2.2-4.4-4.3-6.6-6.5
		c-0.3-0.3-0.4-0.6-0.7-0.8c-5.9-4-11.8-8-17.8-12c-0.5-0.3-1.1-0.5-1.5-0.9c-3.6-3.1-8-3.4-12.5-3.3c-11.1,0.2-22.2,0.3-33.2,1
		c-12.3,0.8-24.5,2.3-36.8,3.2c-6.8,0.5-13.5,0.6-20.3,0.7c-1.8,0-3.7-0.8-5.5-1.5c-1.8-0.7-2.8-1.9-1.8-4.3
		c-4.9,0.3-9.7-0.9-14.1,2c-1.8,1.2-3.8,2.4-5.8,3.3c-2.2,1-3.5,0.1-3.5-2.3c0-1.4,0.5-2.9,0.9-4.3c0.2-0.7,0.7-1.3,0.9-2
		c0.5-1.5,0.9-3.1,1.4-4.6c-1.4,0-2.9-0.1-4.3-0.1c-2.1,0-4.3,0.1-6.4,0c-2-0.1-3.8-0.8-4.4-3.1c-0.6-2.2,0.3-4,2.1-5.2
		c1.6-1.1,3.5-1.8,5.3-2.7c1-0.5,2.1-0.8,3-1.3c1.5-0.9,3-1.8,3.8-2.3c-2.1-2.6-4.3-5.2-6.5-7.7c-1.4-1.6-2.8-3.1-1.8-5.5
		c1-2.1,3.4-3.5,6.1-2.9c3.6,0.7,7.2,1.7,10.7,2.7c1.7,0.5,3.3,1.3,5,1.6c0.7,0.1,1.8-0.2,2.2-0.7c1.6-2.2,3.9-4,4.2-7.1
		c0.1-1.1,1.3-2.3,2.3-3.1c1.5-1.3,3.7-1.1,4.5,0.6c0.9,1.9,1.2,4.1,1.5,6.3c0.2,1.2-0.3,2.4-0.5,4.2c23.2-0.4,46-0.9,69.3-1.3
		c-0.6-1.4-0.9-2.1-1.1-2.9c-1.6-3.9-3.3-7.7-4.6-11.7c-0.8-2.6-1.2-5.5-1.4-8.2c-0.6-6.2-1.4-12.5-1.6-18.7
		c-0.3-6.3-0.1-12.7-0.1-19c0-11.4,3.5-22.3,5.9-33.3c3.3-14.8,8.8-29,17.2-41.7c6.2-9.4,13-18.6,22.3-25.3
		c5.7-4.1,11.9-7.7,18.1-11c4.1-2.2,7.1-4.9,9.1-9.1c5.5-11.3,11.3-22.4,16.8-33.7c2.2-4.5,3.6-9.4,6-13.8c4.3-7.9,9-15.6,13.6-23.3
		c0.5-0.9,1.1-1.7,1.6-2.7c12.5-24.3,28.3-46.3,44.8-67.9c7.9-10.4,15.8-20.8,24.8-30.3c10.3-10.8,21.7-20,35.9-25.4
		c4.1-1.6,8-4.1,12.3-4.9c8.5-1.6,16.9-0.9,25,2.5c6,2.5,12,5,17.7,8.1c2.3,1.2,4.2,3.7,5.8,5.9c5.6,8.3,6,17.4,3.9,26.8
		c-0.9,4.2-1.6,8.6-2.3,12.8c-0.2,1.4,0.4,1.8,1.6,1.2c0.5-0.2,0.9-0.5,1.2-0.9c3.7-4.8,9-7.6,13.5-11.3
		c7.4-6.1,16.1-10.1,24.6-14.4c7-3.5,14.5-6.3,21.6-9.6c4.6-2.1,9.2-3,14.4-2.3c6.9,1,13.8,1.1,20.4,3.6c7.5,2.9,13.8,7.6,19.6,13.1
		c0.8,0.7,1.4,1.7,1.9,2.7c1.5,3.1,2.9,6.3,4.3,9.5c0.4,0.8,0.6,1.7,0.7,2.6c0.4,4.2,0.7,8.4,0.9,12.6c0.1,1.7,0,3.4-0.5,5
		c-3.5,11.7-7.6,23.2-13.8,33.7c-2.7,4.5-5.8,8.8-9,12.9c-5.6,7-11.8,13.7-17.2,20.8c-8.3,11-19.4,19.1-29.1,28.6
		c-9.8,9.6-20.5,18-32.2,25.3c-6.4,4-13,7.6-19.3,11.7c-12.7,8.2-25.1,16.7-37.8,24.7c-11.4,7.2-23.1,14-34.7,20.9
		c-0.2,0.1-0.3,0.3-0.5,0.6c1.1,1.7,2.1,3.4,3.2,5c6.2,9.1,9.9,19.1,10.2,30.2c0.1,2.6,0.6,5.3,1.1,7.9c1,5.3,1,10.5-0.1,15.8
		c-0.5,2.2-0.8,4.6-0.6,6.8c1,11-1.3,21.6-4.3,32.1C319.4,351.6,317.7,357.4,316,363.6z M319.3,300.7c-0.1-2.3-0.2-3.9-0.3-5.5
		c-0.2-1.9-0.6-3.8-0.7-5.7c-0.3-12.8-3.2-24.9-10.6-35.5c-1.5-2.2-3.6-4-5.5-6c-1.1-1.2-2.3-2.3-3.4-3.5c1.3-1.1,2.4-2.6,3.9-3.2
		c15-6.5,29.3-14.3,43.2-22.8c8.7-5.4,17.3-11.1,26-16.4c8.3-5.1,16.8-9.8,25.3-14.7c10-5.9,19.8-12.1,28.4-19.9
		c6.2-5.6,12.3-11.3,18.4-16.9c4.8-4.5,9.9-8.7,14.3-13.6c6.2-6.8,11.9-14.1,17.7-21.3c1.8-2.2,3.2-4.6,4.5-7.1
		c4.3-8.1,8.5-16.3,12.6-24.5c4.5-9.1,6.7-18.8,6.3-28.9c-0.4-11.5-5.7-20.1-16.6-24.5c-3.5-1.4-7.3-2.5-11-3.1
		c-6.4-1-12.8-2.5-19.3-1.4c-8,1.3-15.2,4.6-22.2,8.6c-29,16.4-54.6,37.1-76.5,62.2c-10.5,12.1-21.3,24-31.5,36.3
		c-7,8.5-13.2,17.6-19.8,26.4c-3.9,5.2-8.1,10.2-11.8,15.5c-5.2,7.5-10,15.1-15,22.7c-3.8,5.8-8.8,10.8-9.9,18.1
		c-0.3,2-2,3.5-4.1,3.4c-2.3-0.1-4.8-0.3-6.8-1.2c-6.4-2.7-13-3.9-19.8-4.2c-7.3-0.3-14.6-0.8-21.9-1.3c-1.1-0.1-2.1-1-3.2-1.5
		c0.8-0.9,1.4-2.1,2.3-2.6c4.6-2.3,9.4-3.3,14.6-2.6c6.6,0.9,13.3,1.9,20,2.6c4.4,0.5,8.7,1,12.8,3c2.7,1.3,3.9,0.7,5.2-2.2
		c4.3-9.8,9.8-19,15.8-27.9c13.2-19.8,28.1-38.2,42.8-56.7c4.8-6,9.5-12.1,14.3-18c2.2-2.7,4.8-5.2,7.1-7.9
		c7.8-8.9,15.7-17.7,23.3-26.7c1.4-1.6,2.3-3.8,2.8-5.8c0.7-2.5,0.5-5.3,1-7.9c1.3-7,3.1-14,4.2-21c0.8-5.1,0.4-10.6-3.5-14.4
		c-4.1-4-8.6-7.8-13.6-10.5c-8.9-5-18.8-5.2-28.7-3.6c-7.6,1.3-15.2,3.2-21.2,8.3c-9.3,7.9-18.3,16.1-26.9,24.7
		c-15.2,15.1-28.4,32-40.4,49.8c-7.4,11-13.8,22.6-21.6,33.2c-7.7,10.4-13.7,21.5-19,33.2c-2.6,5.6-5,11.3-7.5,17
		c-1.2,2.8-2.6,5.5-3.9,8.2c-1.8,3.9-3.5,7.8-5.3,11.7c-3,6.5-7.3,12.3-8.7,19.5c-0.2,1.2-1.9,2.4-3.2,2.9
		c-3.5,1.4-7.4,2.1-10.7,3.8c-10,5-17.6,12.8-24.8,21.1c-0.7,0.8-1.2,1.9-2.1,3.3c1.5,0,2.4,0,3.4,0c13.5-0.4,26.8,1.9,40,4.2
		c18.6,3.3,36.4,9.7,54.5,15c6.8,2,13,5.6,19.8,7.7c15.1,4.8,29.4,11.4,44,17.5C304.4,293.1,311.5,296.9,319.3,300.7z M216.2,436.3
		c0.1,0.2,0.1,0.4,0.2,0.6c2.8-0.6,5.7-1.1,8.5-1.9c16.7-5,33.3-10,50-15.1c6.3-1.9,12.7-2.4,19.3-1.9c9.5,0.8,15.6,6.8,20.9,13.8
		c2.9,3.8,5.9,6.5,11,7c14.5,1.6,28.9,4,43.4,5.6c11.1,1.3,22.4,1.8,33.5,2.7c10.3,0.9,20.6,1.9,30.9,2.9c8.4,0.8,16.9,1.6,25.3,2.3
		c7.3,0.6,14.6,1,21.9,1.5c5.8,0.4,11.6,1.4,17.4,1.2c9.4-0.2,18.9-1.2,28.3-1.7c10.6-0.6,20.9-2.4,30.9-6.3
		c10.1-4,18.7-9.7,24.1-19.5c4.4-8,7.2-16.5,9.3-25.3c0.4-1.8,0.5-3.6,0.5-5.5c0-0.5-0.5-1.3-1-1.5c-0.5-0.1-1.3,0.2-1.7,0.6
		c-0.9,1.1-1.7,2.2-2.4,3.4c-3.1,6-7.5,10.9-12.8,15.1c-5,3.9-10.1,7.5-15,11.3c-12.5,9.7-25.6,18.4-41.1,22.9
		c-8.7,2.5-17.1,5.5-26.3,5c-1.4-0.1-3.7,0.3-3.7-1.7c0-1.9,2.2-1.7,3.7-1.8c3.1-0.1,6.4,0.4,9.3-0.4c7.4-2.1,14.8-4.4,22-7.2
		c13.2-5.1,25.3-12,34.9-22.8c1.4-1.6,3.2-2.9,4.9-4.1c3-2.1,3-3.6-0.3-5.2c-4.1-2-7.4-4.9-9.9-8.6c-2.9-4.3-5.5-8.9-8.4-13.3
		c-2-3.1-3-6.3-3.1-10c-0.1-4.7-2.3-6-6.8-4.9c-5.1,1.2-10.3,2.5-15.6,3.1c-11.9,1.4-23.3-0.1-33.7-6.6
		c-10.5-6.6-21.1-13.1-31.7-19.5c-1.7-1.1-3.7-1.8-5.6-2.5c-2.8-1-5.8-1.6-8.6-2.7c-8.4-3.2-17.1-5.7-26-5.7c-13.6,0-26.9,2-38.9,9
		c-1,0.6-2,1-3,1.4c-16.9,7.6-34.9,12.4-52.6,17.6c-3.5,1-5.5,2.4-6.9,5.9c-3.8,10.3-9,19.9-16.1,28.4c-1.1,1.3-1.9,2.8-3,4.5
		c1.3,0.2,2.1,0.3,3,0.4c4.1,0.3,8.3,0.3,12.4,1c4.5,0.8,8.9,2.5,13.4,3.6c7.2,1.7,14.4,3.2,21.5,5c14.2,3.6,27.7,9.2,41,15.3
		c0.9,0.4,1.6,1.1,2.4,1.6c-0.1,0.3-0.2,0.6-0.3,0.9c-1.7-0.3-3.6-0.2-4.9-1c-5.9-3.7-12.8-4.5-19.2-6.6c-9.5-3.1-19.3-5.2-29.1-7.4
		c-7.5-1.8-15.1-3.2-22.7-4.7c-5.9-1.1-11.9-2.5-17.9-2.7c-8.1-0.3-16.2,0.3-24.3,0.9c-7.7,0.6-15.3,1.7-22,5.8
		c-0.9,0.5-1.9,0.8-2.9,1C231.6,422.3,223.7,429,216.2,436.3z M287.6,456.7c-0.1,1.9-0.2,2.2-2.1,2.8c-3.1,1.1-6.4,1.9-9.5,3
		c-13.5,4.7-26.9,9.4-40.4,14.1c-0.7,0.2-1.4,0.3-2.1,0.6c-2.7,0.9-5.4,1.8-8.1,2.8c-7.3,2.8-14.5,5.8-21.9,8.4
		c-1.9,0.7-2.2,1.5-1.4,3c2.8,5.1,5.6,10.2,8.7,15.1c3.5,5.6,7.4,10.8,10.9,16.4c3.2,5,6.1,10.1,9.1,15.1c1.5,2.5,3.5,4.3,6.3,5.3
		c10.7,3.8,21.8,6,33.1,6.5c10.9,0.5,21.9,0.4,32.8,0.2c4.1-0.1,8.2-0.9,12.1-1.9c6-1.6,11.8-3.8,17.6-5.7c4.7-1.6,9.7-2.7,14.2-4.9
		c5.6-2.8,11-6.4,16.2-10c5.4-3.8,10.4-8,15.5-12.1c1-0.8,2.4-2,1-3.5c-2.2-2.4-4.6-4.8-6.9-7.1c-1.6-1.6-3.3-3.1-4.8-4.8
		c-3.8-4.2-7.6-8.4-11.4-12.6c-2.1-2.3-4.2-4.5-6.2-6.9c-6-6.9-11.6-14.2-18-20.7c-3.9-4-7.8-7.9-10.8-12.5
		c-6.5-9.6-15-16.7-25.1-22.2c-3.8-2.1-7.8-2.8-12-2c-8,1.5-16,3.2-23.6,6.5c-3.3,1.4-6.7,2.8-10.2,3.8
		c-13.2,3.8-26.5,7.4-39.8,11.2c-3,0.8-5.9,2-8.9,2.7c-8.4,1.8-16.8,3.3-25.1,5.1c-8.8,1.9-17.5,3.9-26.3,5.8
		c-4.1,0.9-8.2,1.9-12.3,2.8c-4,0.9-8.1,1.7-12.1,2.5c-1.8,0.4-2,1.4-1.2,2.9c0.9,1.8,1.8,3.6,2.6,5.4c2.3,4.8,4.5,9.6,6.9,14.4
		c1.7,3.4,3.6,6.6,5.2,10c2.1,4.4,4.2,5.3,8.8,3.6c11.4-4.1,22.9-8.2,34.4-12c7.1-2.3,14.6-3.6,21.8-5.8c15.9-4.9,31.7-10.1,47.6-15
		c10.8-3.4,21.6-6.5,32.4-9.7C285.5,456.8,286.6,456.8,287.6,456.7z M463.1,548.5c0.1-0.3,0.1-0.5,0.2-0.8c-0.4-0.4-0.7-1-1.1-1.3
		c-4.4-3.2-8.6-6.8-13.3-9.5c-9.8-5.7-20.2-10.4-28.9-17.9c-2.7-2.3-4.5-1.6-6.5,1.4c-2.8,4.2-5.6,8.5-8.6,12.6
		c-2.3,3.1-4.2,6.4-5.1,10.2c-1.1,4.4-3.3,5.5-7.7,4.2c-0.6-0.2-1.1-0.4-1.7-0.6c-4.7-2.1-9.4-4.2-14.1-6.3
		c-2.9-1.3-5.8-2.6-8.7-3.9c-1.7-0.8-3.1-0.5-4.7,0.5c-4.5,2.7-9,5.4-13.7,7.6c-3.4,1.6-7.1,2.5-10.7,3.5c-11.5,3-22.5,7.9-34.5,8.4
		c-12.4,0.4-24.8,1.1-37.1,0.6c-8.7-0.4-17.4-2.3-25.7-5.2c-6.1-2.1-6.1-2-10.6,2.6c-7,7.2-14.1,14.3-21.1,21.4
		c-0.8,0.8-1.6,1.7-2.5,2.5c-3.3,3.1-6.5,6.4-10,9.3c-4,3.3-7.8,6.7-10.8,11c-2.4,3.4-5.4,6.4-8.2,9.5c-2.1,2.4-4.4,4.6-6.3,7.1
		c-2.9,4-6.5,6.2-11.6,5.7c-2.2-0.2-4.6,0.1-6.7,0.8c-2.9,1-3.3,3.3-1.1,5.5c2,1.9,4.1,3.5,6.2,5.3c2.7,2.3,5.8,4.4,8.1,7.1
		c5.4,6.1,12.3,10.1,19.4,13.8c3.7,1.9,7.9,2.2,11.4-0.9c3.4-3,6.8-5.9,10-9.1c7-7,13.7-14.3,20.7-21.3c13.2-13.1,26.6-26,39.8-39.1
		c0.7-0.7,1.2-1.7,1.3-2.6c0.2-2.8,0.5-3.3,3.3-3.5c3.6-0.2,7.3-0.1,10.8-0.6c16.4-2.3,32.9-0.6,49.3-1.1c4-0.1,7.3,1.7,10.7,3
		c14.8,5.8,29.5,11.7,44.1,17.7c5.6,2.3,11.2,4.5,17.3,5.2c2.1,0.2,4.1-0.1,5.5-1.7c3.8-4.4,8-8.6,11.2-13.4
		c7.3-11,14.1-22.3,21.1-33.6c1.5-2.5,3.3-3.7,6.3-3.5c2.7,0.2,5.5,0,8.2-0.1C459,549,461,548.7,463.1,548.5z M246.7,383.8
		c5.8-0.4,11.7-0.5,17.4-1.1c10-1.1,20.1-2.5,30.1-3.7c4.8-0.6,8.1-2.9,9.8-7.4c1.1-3,2.2-6,3.6-8.8c8.5-17.5,11.8-36.1,11.7-55.4
		c0-0.7-0.5-1.8-1-2.1c-5.1-2.4-10.2-5.1-15.6-6.9c-11-3.6-21.4-8.4-31.9-13c-3.8-1.6-7.5-3.4-11.4-4.8
		c-13.1-4.7-26.2-9.4-39.5-13.8c-20.9-6.9-42.1-13-64.2-15.4c-6.6-0.7-13.2-1.1-19.9-1.4c-1.4-0.1-3.3,0.6-4.1,1.6
		c-2.3,3-4,6.3-6.1,9.5c-5.3,8.1-7.7,17.5-10.6,26.6c-2.6,7.9-4.2,16.1-5.5,24.3c-1.3,8.1-2.2,16.2-1.4,24.5
		c0.2,2.3,0.9,4.3,2.7,5.6c1.8,1.3,3.7,2.5,5.7,3.2c6.5,2.2,13.1,1.6,19.7,0.7c5.6-0.8,11.2-1.8,16.9-1.9c7.4-0.1,13.8,2.6,19.1,8
		c1.2,1.2,2.4,2.4,3.7,3.5c6.2,4.7,12.4,9.3,18.6,14c5.2,3.9,10.9,7,17.1,9.1C223,382.5,234.8,383.6,246.7,383.8z M108.9,343
		c-0.2,0.2-0.3,0.5-0.5,0.7c0.2,2.8,0.4,5.6,0.7,8.3c0.7,7.8,1.1,15.7,4.8,22.8c4.5,8.8,9,17.6,13.6,26.4c1,1.8,2.2,3.6,3.6,5
		c8.4,7.9,16.6,15.9,27.2,21c6.7,3.2,12.8,7.6,20.2,8.8c8.9,1.5,17.9,3.3,27,2.8c3.7-0.2,3.7-0.1,4.9-3.4c0.4-1,0.9-2,1.5-2.9
		c0.4-0.7,1-1.3,1.6-1.8c4.3-3.5,8.3-7.4,13-10.3c3.9-2.4,8.6-3.8,13-5.4c8.1-2.8,16.3-5.1,24.9-5.9c5.3-0.5,10.5-1.3,15.8-2
		c0.6-0.1,1.3-0.4,1.7-0.8c7-7.5,12.1-16.3,17.5-25c0.1-0.1,0-0.3-0.1-0.8c-1.6,0.3-3.1,0.6-4.7,1c-2.7,0.7-5.4,1.7-8.1,2
		c-10.1,1.1-20.3,2.1-30.4,2.9c-14.3,1.2-28.4,0.4-42.4-3.2c-11.3-2.9-20.3-9.6-29.5-16.2c-1.2-0.9-2.4-1.9-3.6-2.9
		c-0.3,0.5-0.5,0.8-0.8,1.1c-3.7,4.7-8,8.1-14.5,5.9c-2.3-0.8-4.6-1.3-7.3-2c-0.5,4.3-1,8.3-1.5,12.3c1.7,0.5,3.2,0.8,4.6,1.4
		c4.9,1.8,10,2.3,15.2,2.2c6.6-0.1,13.2-0.9,19.9-0.9c3.9,0,7.9,1.1,11.8,1.3c4.5,0.2,8.4,2,11.9,4.4c2.4,1.7,4.3,4.2,4,7.5
		c-0.5,5.9-3.6,10.8-8.8,13.2c-5.6,2.6-11.7,4.8-17.8,5.7c-9.8,1.3-19.6,1.5-29.4-1.3c-9.4-2.7-18.6-5.8-26.7-11.4
		c-3.1-2.1-6.2-4.4-9.4-6.2c-4.6-2.6-7.8-6.6-10-11c-1.5-3-2.1-6.9-1.7-10.2c0.7-5.9,7.9-9,14-6.4c4.2,1.8,8.2,4.1,12.2,6.3
		c2.8,1.5,5.4,3.2,8.6,5.1c0.3-4.2,0.6-8.1,0.8-11.9c0-0.4-0.6-1.1-1.1-1.4c-2.4-1.2-4.9-2.4-7.4-3.4c-4.3-1.7-6.3-5-6.9-9.3
		c-0.3-2.2,0.3-4.4,0.5-7.1C129.1,353.3,118.7,350.3,108.9,343z M133.8,417.1c0-0.3,0.1-0.6,0.1-0.9c-0.7-0.5-1.4-1.1-2.1-1.5
		c-5-3.4-8.9-7.6-11.4-13.2c-2.1-4.6-4.5-9.1-6.8-13.7c-0.4-0.7-1.4-1.4-2.1-1.4c-2.6,0-5.1,0.4-7.7,0.6
		c-11.8,0.6-23.6,1.2-35.4,1.7c-7.8,0.4-15.6,0.8-23.3,1.2c2.5,10,4,19.8-4.7,28.7c1.6,0.4,2.9,1,4.1,1c1.9,0,3.8-0.6,5.7-0.6
		c11.6-0.5,23.1-1,34.7-1.3c11.8-0.3,23.6-0.4,35.4-0.5C124.9,417,129.4,417.1,133.8,417.1z M16.2,420.1c0.2,0.1,0.4,0.3,0.5,0.4
		c1.3-0.7,2.6-1.2,3.8-2c1.5-1,2.8-2.2,4.2-3.3c1.8-1.5,3.7-2.2,6.3-1.7c7.4,1.3,11-1.5,12.2-8.9c0.7-4.1,0.1-7.9-1.5-11.7
		c-1.4-3.3-2.2-6.5-1.4-10.1c0.3-1.4,0.1-3-0.1-4.4c-0.1-0.8-0.9-1.4-1.4-2.1c-0.6,0.5-1.4,1-1.9,1.6c-0.5,0.8-0.7,1.8-1.1,2.7
		c-0.8,2.3-1.5,4.6-2.3,6.9c-0.5,1.3-1.3,2.4-3,1.9c-5-1.4-10-2.7-15.1-4.1c-1.3-0.4-2.5-0.9-3.8-1c-0.9-0.1-1.8,0.5-2.7,0.7
		c0.4,0.8,0.7,1.7,1.3,2.3c2.1,2.1,4.3,3.9,6.4,6.1c1.9,2,1.9,4.1-0.3,5.8c-2.1,1.6-4.6,2.8-7,4.1c-1.2,0.6-2.4,1.1-3.6,1.7
		c-0.4,0.2-0.9,1-0.8,1.4c0.1,0.4,0.8,0.9,1.3,0.9c1.7,0.1,3.4,0.1,5.1,0c5.4-0.3,7.2,1.8,6,7.1C16.9,416.3,16.6,418.2,16.2,420.1z
		 M128.1,484.8c-0.7-4.3-2.1-8-4.4-11.4c-1.4-2.1-2.4-4.5-3.5-6.8c-0.7-1.5-1.5-2.7-3.2-3.4c-2.8-1.2-5.4-2.8-8.1-4.1
		c-1.7-0.9-3.4-1.6-5.2-2.4c-1.3-0.6-2.7-1.1-4.1-1.6c-1.5-0.6-3-2.1-4.6-0.4c-1,1,0.2,3,2.3,4.4c0.4,0.2,0.8,0.4,1.2,0.7
		c0.8,0.4,1.6,0.7,2.3,1.3c0.6,0.5,0.9,1.4,1.4,2c-0.7,0.3-1.4,0.8-2.1,0.9c-0.9,0.2-2-0.1-2.9,0.1c-0.9,0.2-2,0.6-2.5,1.3
		c-0.3,0.4,0.4,1.9,1.1,2.3c3.4,2.3,6.8,4.6,10.4,6.6c1.5,0.8,1.9,1.5,0.9,2.8c-1.1,1.4-2.3,2.7-3.5,3.9c-1.7,1.7-1.6,3.6,0.4,4.5
		c2.3,1,4.6,1.9,7.3,1c1.2-0.4,2.7-0.8,3.9-0.5C119.7,487.2,123.7,485.1,128.1,484.8z M178.3,361.8c-3.9-3-7.4-5.1-10.3-7.9
		c-6-5.7-13.3-6.9-21.1-6.9c-0.6,0-1.4,0.2-1.8,0.6c-2.6,2.5-2.7,5.9-1,9.1c1.4,2.8,3.5,4.6,6.3,5.8c4.8,2,9.5,4.1,14.3,5.9
		c1.1,0.4,2.7,0.4,3.6-0.2C171.5,366.4,174.6,364.2,178.3,361.8z M193.3,400.4c-0.8-0.1-1.2-0.1-1.6-0.2c-8.2-0.7-15.3,2.3-22.1,6.4
		c-1.3,0.8-3.2,2.3-3,3.2c0.4,2.2,2.8,2.1,4.6,2.1c6.8,0.2,13.5,0.1,20.3,0.2c7.6,0,14.7-2,21.3-5.8c0.6-0.3,1-0.9,1.7-1.5
		c-1.6-0.8-2.8-1.5-4.1-2c-7.9-3.5-15.5-4.9-22.3,2.4c-0.4,0.5-1,0.8-1.6,1.1c-0.3,0.2-0.8,0.2-1.2,0.2c-0.1-0.2-0.2-0.4-0.4-0.6
		C186.9,403.5,190.4,402.7,193.3,400.4z M166.5,386.6c-0.2,0.2-0.5,0.4-0.7,0.6c0.6,1,1,2.5,1.8,2.8c3.2,1,6.6,1.7,9.9,2.1
		c2.1,0.3,2.5-0.8,2.4-3.2c-0.2-2.2-1.4-1.4-2.6-1.2c-1.2,0.1-2.4,0-3.5-0.1C171.3,387.3,168.9,387,166.5,386.6z M189.2,443
		c-5.5-1.2-10.5-2.3-16.1-3.5C179.2,445.7,181.3,445.9,189.2,443z M156.9,386.3c0.1-0.9,0.1-1.6,0.2-2.1c-3.6-2.1-7.1-4.2-10.6-6.3
		C146,381.9,149.8,384.9,156.9,386.3z"/>
	<path class="st0" d="M319.3,300.7c-7.8-3.8-14.9-7.6-22.3-10.7c-14.5-6.1-28.9-12.7-44-17.5c-6.7-2.1-13-5.7-19.8-7.7
		c-18.1-5.3-35.9-11.7-54.5-15c-13.2-2.4-26.5-4.6-40-4.2c-0.9,0-1.9,0-3.4,0c0.9-1.4,1.3-2.5,2.1-3.3c7.2-8.3,14.9-16.1,24.8-21.1
		c3.4-1.7,7.2-2.4,10.7-3.8c1.3-0.5,3-1.7,3.2-2.9c1.4-7.2,5.7-13.1,8.7-19.5c1.8-3.9,3.5-7.8,5.3-11.7c1.3-2.7,2.6-5.4,3.9-8.2
		c2.5-5.7,4.9-11.4,7.5-17c5.3-11.6,11.3-22.8,19-33.2c7.8-10.6,14.2-22.3,21.6-33.2c12-17.8,25.2-34.7,40.4-49.8
		c8.6-8.6,17.7-16.8,26.9-24.7c6-5.1,13.6-7,21.2-8.3c9.9-1.6,19.8-1.4,28.7,3.6c5,2.8,9.5,6.5,13.6,10.5c3.9,3.8,4.3,9.3,3.5,14.4
		c-1.1,7.1-2.9,14-4.2,21c-0.5,2.6-0.4,5.3-1,7.9c-0.5,2.1-1.4,4.2-2.8,5.8c-7.7,9-15.5,17.8-23.3,26.7c-2.3,2.7-4.9,5.1-7.1,7.9
		c-4.9,5.9-9.5,12-14.3,18c-14.7,18.6-29.7,37-42.8,56.7c-5.9,8.9-11.5,18.1-15.8,27.9c-1.3,2.9-2.5,3.5-5.2,2.2
		c-4.1-2-8.4-2.6-12.8-3c-6.7-0.7-13.3-1.7-20-2.6c-5.2-0.7-10,0.3-14.6,2.6c-1,0.5-1.6,1.7-2.3,2.6c1.1,0.5,2.1,1.4,3.2,1.5
		c7.3,0.6,14.6,1,21.9,1.3c6.8,0.3,13.4,1.5,19.8,4.2c2.1,0.9,4.5,1.1,6.8,1.2c2.1,0.1,3.9-1.4,4.1-3.4c1-7.3,6.1-12.3,9.9-18.1
		c5-7.6,9.8-15.3,15-22.7c3.7-5.3,7.9-10.3,11.8-15.5c6.6-8.8,12.8-17.9,19.8-26.4c10.2-12.3,20.9-24.2,31.5-36.3
		c21.9-25.1,47.5-45.7,76.5-62.2c7-3.9,14.2-7.2,22.2-8.6c6.6-1.1,12.9,0.4,19.3,1.4c3.8,0.6,7.5,1.7,11,3.1
		c10.9,4.4,16.1,13,16.6,24.5c0.4,10.1-1.8,19.8-6.3,28.9c-4.1,8.2-8.4,16.4-12.6,24.5c-1.3,2.5-2.8,4.9-4.5,7.1
		c-5.8,7.2-11.5,14.4-17.7,21.3c-4.4,4.9-9.5,9.1-14.3,13.6c-6.1,5.7-12.3,11.3-18.4,16.9c-8.6,7.9-18.4,14.1-28.4,19.9
		c-8.4,4.9-16.9,9.6-25.3,14.7c-8.8,5.3-17.3,11-26,16.4c-13.9,8.6-28.2,16.4-43.2,22.8c-1.5,0.6-2.6,2.1-3.9,3.2
		c1.1,1.2,2.3,2.3,3.4,3.5c1.9,2,4,3.8,5.5,6c7.4,10.7,10.3,22.7,10.6,35.5c0.1,1.9,0.5,3.8,0.7,5.7
		C319.2,296.8,319.2,298.4,319.3,300.7z"/>
	<path class="st0" d="M216.2,436.3c7.5-7.3,15.5-14,26.2-16.2c1-0.2,2.1-0.5,2.9-1c6.8-4.2,14.4-5.3,22-5.8
		c8.1-0.6,16.2-1.2,24.3-0.9c6,0.2,12,1.6,17.9,2.7c7.6,1.4,15.2,2.9,22.7,4.7c9.8,2.3,19.6,4.3,29.1,7.4c6.4,2.1,13.3,2.9,19.2,6.6
		c1.3,0.8,3.3,0.7,4.9,1c0.1-0.3,0.2-0.6,0.3-0.9c-0.8-0.5-1.5-1.2-2.4-1.6c-13.3-6-26.8-11.7-41-15.3c-7.1-1.8-14.4-3.3-21.5-5
		c-4.5-1.1-8.9-2.7-13.4-3.6c-4-0.7-8.2-0.7-12.4-1c-0.9-0.1-1.7-0.2-3-0.4c1.1-1.6,1.9-3.2,3-4.5c7.1-8.5,12.2-18.1,16.1-28.4
		c1.3-3.5,3.3-4.9,6.9-5.9c17.7-5.2,35.7-10,52.6-17.6c1-0.5,2-0.9,3-1.4c12-7.1,25.4-9,38.9-9c8.9,0,17.6,2.4,26,5.7
		c2.8,1.1,5.8,1.7,8.6,2.7c1.9,0.7,3.9,1.4,5.6,2.5c10.6,6.4,21.2,12.9,31.7,19.5c10.4,6.5,21.8,7.9,33.7,6.6
		c5.2-0.6,10.4-1.8,15.6-3.1c4.5-1.1,6.7,0.3,6.8,4.9c0.1,3.7,1.2,6.9,3.1,10c2.8,4.4,5.4,9,8.4,13.3c2.5,3.7,5.9,6.6,9.9,8.6
		c3.3,1.6,3.2,3.1,0.3,5.2c-1.7,1.2-3.5,2.5-4.9,4.1c-9.6,10.8-21.6,17.8-34.9,22.8c-7.2,2.8-14.6,5.1-22,7.2
		c-2.9,0.8-6.2,0.3-9.3,0.4c-1.5,0-3.7-0.1-3.7,1.8c0,2,2.2,1.7,3.7,1.7c9.2,0.5,17.7-2.5,26.3-5c15.6-4.5,28.6-13.2,41.1-22.9
		c5-3.8,10.1-7.5,15-11.3c5.3-4.1,9.7-9.1,12.8-15.1c0.6-1.2,1.5-2.4,2.4-3.4c0.4-0.4,1.2-0.8,1.7-0.6c0.5,0.1,1,1,1,1.5
		c0,1.8-0.1,3.7-0.5,5.5c-2.1,8.8-5,17.3-9.3,25.3c-5.4,9.8-13.9,15.5-24.1,19.5c-10,3.9-20.3,5.7-30.9,6.3
		c-9.4,0.5-18.9,1.5-28.3,1.7c-5.8,0.1-11.6-0.8-17.4-1.2c-7.3-0.5-14.6-0.9-21.9-1.5c-8.5-0.7-16.9-1.5-25.3-2.3
		c-10.3-1-20.6-2-30.9-2.9c-11.2-1-22.4-1.5-33.5-2.7c-14.5-1.6-28.9-4-43.4-5.6c-5.1-0.6-8.1-3.3-11-7c-5.4-7-11.4-13-20.9-13.8
		c-6.5-0.6-12.9-0.1-19.3,1.9c-16.6,5.1-33.3,10.1-50,15.1c-2.8,0.8-5.7,1.3-8.5,1.9C216.3,436.7,216.2,436.5,216.2,436.3z
		 M460.4,407.5c0.1-0.4,0.2-0.8,0.3-1.2c-1.3-0.4-2.5-1-3.8-1.2c-9.4-1-18.5-3.5-27.5-6.4c-8.4-2.6-16.6-6.2-25.1-8.6
		c-8.2-2.2-16-5.1-23.3-9.3c-1.7-1-3.6-1.7-5.8-0.6c1.3,1.2,2.7,2.3,4.3,3.1c3.6,1.7,7.2,3.3,10.9,4.7c9,3.4,18,6.6,27,9.9
		c5,1.8,9.8,4.5,14.9,5.5C441.6,405.3,451,406.2,460.4,407.5z"/>
	<path class="st0" d="M287.6,456.7c-1,0.1-2.1,0.1-3,0.4c-10.8,3.2-21.6,6.4-32.4,9.7c-15.9,5-31.7,10.2-47.6,15
		c-7.2,2.2-14.7,3.5-21.8,5.8c-11.6,3.7-23,7.9-34.4,12c-4.6,1.6-6.8,0.8-8.8-3.6c-1.6-3.4-3.5-6.6-5.2-10
		c-2.4-4.8-4.6-9.6-6.9-14.4c-0.9-1.8-1.7-3.6-2.6-5.4c-0.8-1.5-0.6-2.5,1.2-2.9c4-0.8,8.1-1.6,12.1-2.5c4.1-0.9,8.2-1.8,12.3-2.8
		c8.8-1.9,17.5-3.9,26.3-5.8c8.4-1.8,16.8-3.3,25.1-5.1c3-0.6,5.9-1.8,8.9-2.7c13.3-3.7,26.6-7.4,39.8-11.2c3.5-1,6.8-2.3,10.2-3.8
		c7.6-3.3,15.6-5,23.6-6.5c4.2-0.8,8.2,0,12,2c10,5.5,18.6,12.6,25.1,22.2c3.1,4.6,6.9,8.5,10.8,12.5c6.4,6.5,12,13.8,18,20.7
		c2,2.3,4.2,4.6,6.2,6.9c3.8,4.2,7.6,8.5,11.4,12.6c1.5,1.7,3.2,3.2,4.8,4.8c2.3,2.4,4.7,4.7,6.9,7.1c1.4,1.5,0,2.7-1,3.5
		c-5.1,4.1-10.2,8.3-15.5,12.1c-5.2,3.6-10.5,7.2-16.2,10c-4.4,2.2-9.4,3.3-14.2,4.9c-5.9,1.9-11.7,4.1-17.6,5.7
		c-3.9,1.1-8.1,1.9-12.1,1.9c-10.9,0.2-21.9,0.2-32.8-0.2c-11.3-0.5-22.4-2.7-33.1-6.5c-2.8-1-4.8-2.7-6.3-5.3
		c-3-5.1-5.9-10.2-9.1-15.1c-3.5-5.5-7.4-10.8-10.9-16.4c-3.1-4.9-5.8-10.1-8.7-15.1c-0.8-1.5-0.5-2.3,1.4-3
		c7.3-2.7,14.6-5.6,21.9-8.4c2.7-1,5.4-1.9,8.1-2.8c0.7-0.2,1.4-0.3,2.1-0.6c13.5-4.7,26.9-9.5,40.4-14.1c3.1-1.1,6.3-1.9,9.5-3
		C287.4,458.9,287.5,458.6,287.6,456.7z"/>
	<path class="st0" d="M463.1,548.5c-2.1,0.2-4.1,0.5-6.2,0.6c-2.7,0.1-5.5,0.3-8.2,0.1c-3-0.2-4.8,1-6.3,3.5
		c-6.9,11.2-13.8,22.6-21.1,33.6c-3.2,4.8-7.4,9-11.2,13.4c-1.4,1.6-3.3,2-5.5,1.7c-6.1-0.7-11.7-2.9-17.3-5.2
		c-14.7-6-29.4-11.9-44.1-17.7c-3.4-1.4-6.8-3.1-10.7-3c-16.4,0.5-32.9-1.2-49.3,1.1c-3.6,0.5-7.2,0.4-10.8,0.6
		c-2.8,0.2-3.1,0.8-3.3,3.5c-0.1,0.9-0.6,2-1.3,2.6c-13.3,13-26.6,26-39.8,39.1c-7,7-13.7,14.2-20.7,21.3c-3.2,3.2-6.6,6.1-10,9.1
		c-3.5,3.1-7.8,2.8-11.4,0.9c-7-3.7-14-7.6-19.4-13.8c-2.4-2.7-5.4-4.8-8.1-7.1c-2.1-1.8-4.3-3.4-6.2-5.3c-2.2-2.1-1.8-4.5,1.1-5.5
		c2.1-0.7,4.5-1,6.7-0.8c5.2,0.5,8.7-1.7,11.6-5.7c1.9-2.6,4.2-4.8,6.3-7.1c2.8-3.2,5.8-6.1,8.2-9.5c3-4.3,6.8-7.7,10.8-11
		c3.5-2.9,6.7-6.2,10-9.3c0.9-0.8,1.6-1.7,2.5-2.5c7-7.1,14.1-14.2,21.1-21.4c4.5-4.6,4.5-4.7,10.6-2.6c8.4,2.8,17,4.8,25.7,5.2
		c12.4,0.5,24.8-0.1,37.1-0.6c12-0.4,23-5.4,34.5-8.4c3.6-0.9,7.3-1.9,10.7-3.5c4.7-2.2,9.2-4.9,13.7-7.6c1.6-0.9,3-1.3,4.7-0.5
		c2.9,1.4,5.8,2.6,8.7,3.9c4.7,2.1,9.4,4.2,14.1,6.3c0.5,0.2,1.1,0.5,1.7,0.6c4.5,1.3,6.6,0.2,7.7-4.2c1-3.8,2.8-7.1,5.1-10.2
		c3-4.1,5.8-8.3,8.6-12.6c2-3,3.8-3.7,6.5-1.4c8.7,7.6,19.1,12.2,28.9,17.9c4.7,2.7,8.9,6.3,13.3,9.5c0.4,0.3,0.7,0.9,1.1,1.3
		C463.2,547.9,463.2,548.2,463.1,548.5z"/>
	<path class="st0" d="M246.7,383.8c-12-0.2-23.7-1.3-35.1-5.2c-6.2-2.1-11.9-5.2-17.1-9.1c-6.2-4.7-12.4-9.3-18.6-14
		c-1.3-1-2.5-2.2-3.7-3.5c-5.2-5.4-11.7-8.1-19.1-8c-5.6,0.1-11.3,1.1-16.9,1.9c-6.6,0.9-13.2,1.5-19.7-0.7c-2-0.7-4-1.9-5.7-3.2
		c-1.8-1.3-2.5-3.3-2.7-5.6c-0.8-8.2,0.1-16.4,1.4-24.5c1.3-8.2,2.9-16.5,5.5-24.3c3-9,5.3-18.4,10.6-26.6c2.1-3.1,3.8-6.5,6.1-9.5
		c0.8-1,2.7-1.7,4.1-1.6c6.6,0.3,13.3,0.7,19.9,1.4c22,2.4,43.2,8.4,64.2,15.4c13.2,4.4,26.3,9.1,39.5,13.8
		c3.9,1.4,7.6,3.2,11.4,4.8c10.6,4.6,21,9.4,31.9,13c5.4,1.8,10.4,4.5,15.6,6.9c0.6,0.3,1,1.4,1,2.1c0.1,19.3-3.1,37.9-11.7,55.4
		c-1.4,2.8-2.5,5.8-3.6,8.8c-1.7,4.6-5.1,6.9-9.8,7.4c-10,1.2-20,2.6-30.1,3.7C258.4,383.3,252.5,383.4,246.7,383.8z M217.6,368
		c0,0.2,0.1,0.4,0.1,0.6c7-1.1,14-1.9,20.9-3.6c3.9-0.9,8.1-2.2,10.6-5.9c3.4-5,6.8-10,9.9-15.2c2.9-4.8,4.9-9.9,4.3-15.7
		c-0.1-1.3,0.1-2.7,0.4-3.9c1.1-5.1,1.2-10.1-2.1-14.6c-0.2-0.2-0.3-0.5-0.4-0.8c-2.5-5.6-4.8-11.3-9.1-16c-2.1-2.3-4.2-4-7.1-4.8
		c-8.7-2.2-17.2-2.4-25.9,0.3c-7.1,2.2-14,4.5-19.7,9.5c-0.8,0.7-1.6,1.5-2.3,2.4c-2.2,2.9-4.4,5.9-6.6,8.8
		c-4.8,6.4-7.8,13.7-9.6,21.4c-0.6,2.4-1,4.9-1.2,7.4c-0.1,2.4-0.2,4.9,0.5,7.2c1.8,6.5,6.5,10.9,12.1,14.4c1.7,1.1,3.6,2,5.4,3
		C203.8,365.8,210.3,368.1,217.6,368z M159.4,294c1-6-0.4-12.1-2.4-18c-1.8-5.3-5.1-9.2-10-11.9c-1.6-0.9-3-2.1-5.1-1.7
		c-1.9,0.4-3.9,0.6-5.9,0.9c-3.2,0.5-5.8,2-7.9,4.5c-1.5,1.8-3,3.7-4.4,5.5c-4.7,6.1-6.2,13.7-7.9,20.9c-1.8,7.6-1.9,15.4-1.1,23.3
		c0.8,8.8,4.1,16.3,10.3,22.6c1.9,1.9,4,3,6.7,2.9c6.3-0.3,11.5-3.2,15.6-7.9c2.3-2.6,3.9-5.8,5.4-8.9c1.8-3.8,3.7-7.8,4.8-11.9
		C159.1,307.8,160.1,301.1,159.4,294z"/>
	<path class="st0" d="M108.9,343c9.8,7.3,20.3,10.3,31.7,4.7c-0.2,2.7-0.8,5-0.5,7.1c0.6,4.2,2.6,7.6,6.9,9.3c2.5,1,5,2.2,7.4,3.4
		c0.5,0.2,1.2,0.9,1.1,1.4c-0.2,3.9-0.5,7.7-0.8,11.9c-3.2-1.9-5.8-3.6-8.6-5.1c-4-2.2-8-4.5-12.2-6.3c-6.1-2.6-13.3,0.5-14,6.4
		c-0.4,3.3,0.2,7.2,1.7,10.2c2.2,4.4,5.4,8.4,10,11c3.3,1.9,6.3,4.1,9.4,6.2c8.1,5.6,17.2,8.7,26.7,11.4c9.8,2.8,19.6,2.7,29.4,1.3
		c6.1-0.8,12.2-3,17.8-5.7c5.2-2.4,8.2-7.3,8.8-13.2c0.3-3.3-1.6-5.8-4-7.5c-3.5-2.4-7.4-4.2-11.9-4.4c-4-0.2-7.9-1.3-11.8-1.3
		c-6.6,0-13.2,0.8-19.9,0.9c-5.1,0.1-10.3-0.4-15.2-2.2c-1.4-0.5-2.9-0.9-4.6-1.4c0.5-4,1-8,1.5-12.3c2.7,0.7,5,1.2,7.3,2
		c6.6,2.2,10.8-1.2,14.5-5.9c0.2-0.3,0.4-0.6,0.8-1.1c1.3,1,2.4,2,3.6,2.9c9.2,6.6,18.2,13.3,29.5,16.2c14,3.6,28.1,4.4,42.4,3.2
		c10.1-0.8,20.3-1.8,30.4-2.9c2.8-0.3,5.4-1.3,8.1-2c1.5-0.4,3.1-0.7,4.7-1c0.1,0.5,0.2,0.7,0.1,0.8c-5.4,8.7-10.4,17.5-17.5,25
		c-0.4,0.4-1.1,0.7-1.7,0.8c-5.3,0.7-10.5,1.5-15.8,2c-8.6,0.8-16.8,3.1-24.9,5.9c-4.4,1.6-9.1,2.9-13,5.4c-4.7,2.9-8.7,6.8-13,10.3
		c-0.6,0.5-1.2,1.1-1.6,1.8c-0.6,0.9-1.2,1.9-1.5,2.9c-1.2,3.3-1.2,3.2-4.9,3.4c-9.2,0.5-18.1-1.3-27-2.8
		c-7.4-1.2-13.5-5.7-20.2-8.8c-10.6-5-18.9-13.1-27.2-21c-1.5-1.4-2.7-3.2-3.6-5c-4.6-8.7-9.1-17.5-13.6-26.4
		c-3.7-7.2-4.1-15-4.8-22.8c-0.2-2.8-0.5-5.6-0.7-8.3C108.5,343.5,108.7,343.2,108.9,343z"/>
	<path class="st0" d="M133.8,417.1c-4.5,0-9,0-13.4,0c-11.8,0.1-23.6,0.2-35.4,0.5c-11.6,0.3-23.2,0.8-34.7,1.3
		c-1.9,0.1-3.8,0.6-5.7,0.6c-1.3,0-2.5-0.6-4.1-1c8.7-8.9,7.2-18.8,4.7-28.7c7.7-0.4,15.5-0.8,23.3-1.2c11.8-0.6,23.6-1.1,35.4-1.7
		c2.6-0.1,5.1-0.5,7.7-0.6c0.7,0,1.7,0.8,2.1,1.4c2.4,4.5,4.7,9,6.8,13.7c2.5,5.6,6.4,9.8,11.4,13.2c0.7,0.5,1.4,1,2.1,1.5
		C133.9,416.5,133.9,416.8,133.8,417.1z"/>
	<path class="st0" d="M16.2,420.1c0.4-1.9,0.7-3.8,1.1-5.8c1.2-5.3-0.6-7.4-6-7.1c-1.7,0.1-3.4,0.1-5.1,0c-0.5,0-1.2-0.5-1.3-0.9
		c-0.1-0.4,0.3-1.2,0.8-1.4c1.1-0.7,2.4-1.1,3.6-1.7c2.4-1.3,4.9-2.5,7-4.1c2.2-1.7,2.2-3.8,0.3-5.8c-2-2.1-4.3-4-6.4-6.1
		c-0.6-0.6-0.9-1.6-1.3-2.3c0.9-0.3,1.8-0.8,2.7-0.7c1.3,0.1,2.5,0.7,3.8,1c5,1.4,10,2.7,15.1,4.1c1.7,0.5,2.5-0.6,3-1.9
		c0.9-2.3,1.6-4.6,2.3-6.9c0.3-0.9,0.5-1.9,1.1-2.7c0.4-0.7,1.2-1.1,1.9-1.6c0.5,0.7,1.2,1.3,1.4,2.1c0.2,1.4,0.4,3,0.1,4.4
		c-0.7,3.6,0.1,6.9,1.4,10.1c1.6,3.8,2.1,7.6,1.5,11.7c-1.2,7.4-4.8,10.2-12.2,8.9c-2.6-0.5-4.4,0.2-6.3,1.7
		c-1.4,1.1-2.7,2.3-4.2,3.3c-1.2,0.8-2.5,1.4-3.8,2C16.6,420.4,16.4,420.2,16.2,420.1z M25.6,392.3c-2.1,1.7-1.3,2.6-0.4,3.5
		c2.5,2.3,5.6,3.5,8.9,3.9c0.5,0.1,1.2,0.1,1.5-0.2c0.6-0.5,1.2-1.3,1.3-2c0-0.3-1.1-1-1.7-1.2c-0.9-0.2-1.9-0.1-2.8,0.1
		c-2.3,0.4-4.2-0.5-5.7-2.2C26.2,393.6,25.9,392.9,25.6,392.3z"/>
	<path class="st0" d="M128.1,484.8c-4.4,0.3-8.4,2.4-12.8,1.3c-1.2-0.3-2.7,0.1-3.9,0.5c-2.6,0.9-5,0.1-7.3-1
		c-2.1-0.9-2.1-2.8-0.4-4.5c1.2-1.3,2.4-2.6,3.5-3.9c1-1.3,0.6-2-0.9-2.8c-3.6-2-7-4.3-10.4-6.6c-0.6-0.4-1.3-1.9-1.1-2.3
		c0.5-0.7,1.6-1.1,2.5-1.3c0.9-0.2,1.9,0.1,2.9-0.1c0.7-0.1,1.4-0.6,2.1-0.9c-0.5-0.7-0.8-1.5-1.4-2c-0.6-0.6-1.5-0.9-2.3-1.3
		c-0.4-0.2-0.8-0.4-1.2-0.7c-2.1-1.4-3.3-3.4-2.3-4.4c1.6-1.7,3.1-0.2,4.6,0.4c1.3,0.6,2.7,1,4.1,1.6c1.7,0.8,3.5,1.5,5.2,2.4
		c2.7,1.4,5.3,2.9,8.1,4.1c1.7,0.7,2.5,1.9,3.2,3.4c1.1,2.3,2,4.7,3.5,6.8C126,476.8,127.4,480.5,128.1,484.8z"/>
	<path class="st0" d="M178.3,361.8c-3.7,2.4-6.8,4.6-10.1,6.4c-1,0.5-2.6,0.6-3.6,0.2c-4.8-1.8-9.5-3.9-14.3-5.9
		c-2.8-1.2-4.9-3-6.3-5.8c-1.6-3.2-1.5-6.6,1-9.1c0.4-0.4,1.2-0.6,1.8-0.6c7.8,0,15.1,1.2,21.1,6.9
		C170.9,356.7,174.4,358.9,178.3,361.8z"/>
	<path class="st0" d="M193.3,400.4c-2.9,2.3-6.4,3.1-8.6,5.6c0.1,0.2,0.2,0.4,0.4,0.6c0.4-0.1,0.9,0,1.2-0.2
		c0.6-0.3,1.2-0.6,1.6-1.1c6.7-7.3,14.4-5.8,22.3-2.4c1.3,0.6,2.5,1.2,4.1,2c-0.7,0.6-1.1,1.2-1.7,1.5c-6.6,3.8-13.7,5.8-21.3,5.8
		c-6.8,0-13.5,0-20.3-0.2c-1.8,0-4.2,0.1-4.6-2.1c-0.1-0.9,1.8-2.5,3-3.2c6.8-4.1,13.9-7.1,22.1-6.4
		C192.1,400.3,192.5,400.3,193.3,400.4z"/>
	<path class="st0" d="M166.5,386.6c2.4,0.3,4.8,0.7,7.2,1c1.2,0.1,2.4,0.2,3.5,0.1c1.2-0.1,2.5-1,2.6,1.2c0.2,2.4-0.3,3.4-2.4,3.2
		c-3.3-0.4-6.7-1.2-9.9-2.1c-0.8-0.2-1.2-1.8-1.8-2.8C166.1,387,166.3,386.8,166.5,386.6z"/>
	<path class="st0" d="M189.2,443c-7.9,2.9-10,2.7-16.1-3.5C178.6,440.7,183.7,441.8,189.2,443z"/>
	<path class="st0" d="M156.9,386.3c-7.1-1.4-10.9-4.4-10.4-8.4c3.5,2.1,7,4.1,10.6,6.3C157,384.7,157,385.4,156.9,386.3z"/>
	<path d="M460.4,407.5c-9.4-1.3-18.8-2.2-28.1-4c-5.1-1-9.9-3.6-14.9-5.5c-9-3.3-18-6.5-27-9.9c-3.7-1.4-7.3-3.1-10.9-4.7
		c-1.6-0.7-3-1.9-4.3-3.1c2.2-1.1,4.1-0.3,5.8,0.6c7.4,4.1,15.2,7,23.3,9.3c8.5,2.3,16.6,5.9,25.1,8.6c9,2.8,18.1,5.3,27.5,6.4
		c1.3,0.1,2.5,0.8,3.8,1.2C460.6,406.7,460.5,407.1,460.4,407.5z"/>
	<path d="M217.6,368c-7.2,0.1-13.8-2.2-20-5.6c-1.8-1-3.7-1.9-5.4-3c-5.6-3.5-10.2-7.8-12.1-14.4c-0.6-2.3-0.6-4.8-0.5-7.2
		c0.1-2.5,0.6-5,1.2-7.4c1.8-7.7,4.8-15,9.6-21.4c2.2-2.9,4.4-5.9,6.6-8.8c0.7-0.9,1.5-1.7,2.3-2.4c5.7-5,12.6-7.3,19.7-9.5
		c8.8-2.7,17.3-2.5,25.9-0.3c3,0.8,5.1,2.5,7.1,4.8c4.2,4.7,6.6,10.4,9.1,16c0.1,0.3,0.3,0.5,0.4,0.8c3.4,4.5,3.3,9.4,2.1,14.6
		c-0.3,1.3-0.5,2.7-0.4,3.9c0.5,5.8-1.5,10.9-4.3,15.7c-3.1,5.2-6.5,10.1-9.9,15.2c-2.5,3.7-6.7,5-10.6,5.9
		c-6.8,1.7-13.9,2.4-20.9,3.6C217.6,368.3,217.6,368.1,217.6,368z M227.6,289c-2.4,0.5-4.8,0.8-7.1,1.5c-2.5,0.8-5,1.9-7.4,3.1
		c-7.1,3.4-13.8,7.4-18.1,14.4c-0.4,0.6-0.8,1.3-1.4,1.7c-6.2,5.2-8.6,12.4-10.5,20c-1.4,5.5-1.8,10.7,0.7,16.1
		c2.3,4.9,4.6,9.4,10,11.5c1.4,0.5,2.6,1.5,3.8,2.2c5.9,3.5,12.7,4.7,19.3,6.2c0.8,0.2,1.8,0,2.6-0.1c4.8-0.5,9.7-1.1,14.5-1.7
		c6.4-0.8,11.6-4.1,15.2-9c4.3-6,7.5-12.8,11.1-19.4c0.6-1,0.7-2.4,0.8-3.6c0.3-3.4,0.5-6.8,0.6-10.1c0.1-1.6,0.2-3.3,0-4.9
		c-1.1-7.2-5.1-13.1-8.7-19.2c-0.2-0.4-0.7-0.7-1.2-1C244.5,292,236.5,289.3,227.6,289z"/>
	<path d="M159.4,294c0.7,7.1-0.3,13.8-2,20.3c-1.1,4.1-2.9,8-4.8,11.9c-1.5,3.1-3.1,6.4-5.4,8.9c-4,4.6-9.2,7.6-15.6,7.9
		c-2.7,0.1-4.8-1-6.7-2.9c-6.2-6.3-9.5-13.8-10.3-22.6c-0.8-7.9-0.7-15.7,1.1-23.3c1.8-7.2,3.2-14.7,7.9-20.9
		c1.4-1.9,2.9-3.7,4.4-5.5c2-2.5,4.7-4,7.9-4.5c2-0.3,4-0.5,5.9-0.9c2.1-0.4,3.5,0.8,5.1,1.7c4.9,2.7,8.2,6.6,10,11.9
		C159,282,160.4,288,159.4,294z M116.4,313.3c-0.1,0-0.2,0-0.2,0c0.2,1.2,0.2,2.6,0.6,3.7c2.1,5.5,4,11.1,6.6,16.4
		c2.8,5.7,10,8.1,15,5.7c8.8-4.2,12.9-12,16.1-20.4c1.3-3.5,1.8-7.3,2.3-11c0.7-4.3,1.5-8.7,1.3-12.9c-0.2-5.2-1.5-10.3-2.3-15.5
		c-0.6-4.3-2.5-7.8-6-10.6c-1.1-0.9-1.8-2.1-2.9-3c-0.6-0.5-1.3-0.9-2.1-1.1c-3.5-0.8-7.1-0.9-10.2,1c-3.1,1.9-6.7,3.9-8.4,6.8
		c-3.5,6.3-5.9,13.2-8.8,19.9c-0.3,0.7-0.4,1.4-0.5,2.2C116.8,300.8,116.6,307.1,116.4,313.3z"/>
	<path d="M25.6,392.3c0.4,0.6,0.6,1.3,1,1.8c1.5,1.7,3.3,2.6,5.7,2.2c0.9-0.1,1.9-0.2,2.8-0.1c0.7,0.1,1.8,0.9,1.7,1.2
		c-0.1,0.7-0.7,1.5-1.3,2c-0.3,0.3-1,0.3-1.5,0.2c-3.3-0.4-6.4-1.6-8.9-3.9C24.2,394.9,23.5,394,25.6,392.3z"/>
	<path class="st0" d="M227.6,289c8.9,0.3,16.9,3.1,24.3,7.7c0.4,0.3,0.9,0.6,1.2,1c3.5,6.1,7.6,12,8.7,19.2c0.2,1.6,0.1,3.2,0,4.9
		c-0.2,3.4-0.4,6.8-0.6,10.1c-0.1,1.2-0.2,2.6-0.8,3.6c-3.6,6.5-6.7,13.4-11.1,19.4c-3.5,4.9-8.8,8.2-15.2,9
		c-4.8,0.6-9.7,1.1-14.5,1.7c-0.9,0.1-1.8,0.3-2.6,0.1c-6.6-1.5-13.3-2.6-19.3-6.2c-1.3-0.8-2.5-1.7-3.8-2.2
		c-5.4-2.1-7.7-6.7-10-11.5c-2.6-5.4-2.1-10.6-0.7-16.1c1.9-7.5,4.3-14.7,10.5-20c0.6-0.5,1-1.1,1.4-1.7c4.3-7,11-11,18.1-14.4
		c2.4-1.2,4.8-2.3,7.4-3.1C222.9,289.7,225.3,289.4,227.6,289z M200.4,336.1c0.1-3.5-2.1-5.1-4.6-6.3c-0.9-0.5-2.5-0.4-3.4,0.1
		c-2.8,1.6-3.6,4.3-3.5,7.4c0.1,2.9,1.4,5.2,4.1,6.6c2.2,1.2,4.3,0.7,5.4-1.6C199.3,340.4,199.7,338.2,200.4,336.1z"/>
	<path class="st0" d="M116.4,313.3c0.2-6.3,0.4-12.5,0.7-18.8c0-0.7,0.2-1.5,0.5-2.2c2.8-6.7,5.2-13.6,8.8-19.9
		c1.6-2.9,5.3-4.9,8.4-6.8c3.1-1.9,6.7-1.8,10.2-1c0.7,0.2,1.5,0.6,2.1,1.1c1,0.9,1.8,2.1,2.9,3c3.4,2.7,5.3,6.3,6,10.6
		c0.8,5.2,2.1,10.3,2.3,15.5c0.2,4.3-0.7,8.7-1.3,12.9c-0.6,3.7-1,7.5-2.3,11c-3.2,8.5-7.3,16.3-16.1,20.4c-5.1,2.4-12.3,0-15-5.7
		c-2.6-5.3-4.5-10.9-6.6-16.4c-0.4-1.1-0.4-2.5-0.6-3.7C116.2,313.3,116.3,313.3,116.4,313.3z M144.9,321c-0.5-1.3-0.9-2.6-1.5-3.8
		c-1.3-2.5-3.2-2.8-4.7-0.5c-1.4,2.1-2.1,4.6-2.8,7c-0.7,2.1,0.3,3.9,1.6,5.5c1.7,2,4.6,1.7,5.5-0.8
		C143.7,326,144.2,323.6,144.9,321z"/>
	<path d="M200.4,336.1c-0.7,2.1-1.1,4.3-2,6.2c-1.1,2.3-3.2,2.7-5.4,1.6c-2.6-1.4-3.9-3.7-4.1-6.6c-0.1-3.1,0.7-5.8,3.5-7.4
		c0.9-0.5,2.5-0.6,3.4-0.1C198.3,331,200.5,332.6,200.4,336.1z"/>
	<path d="M144.9,321c-0.7,2.6-1.1,5.1-1.9,7.4c-0.9,2.5-3.8,2.8-5.5,0.8c-1.3-1.6-2.2-3.4-1.6-5.5c0.8-2.4,1.5-4.9,2.8-7
		c1.5-2.3,3.4-1.9,4.7,0.5C144,318.4,144.4,319.7,144.9,321z"/>
</g>
</svg>
