<?xml version="1.0" encoding="utf-8"?>
<!-- Generator: Adobe Illustrator 26.0.0, SVG Export Plug-In . SVG Version: 6.00 Build 0)  -->
<svg version="1.1" id="Capa_1" xmlns="http://www.w3.org/2000/svg" xmlns:xlink="http://www.w3.org/1999/xlink" x="0px" y="0px"
	 viewBox="0 0 595.3 925.9" style="enable-background:new 0 0 595.3 925.9;" xml:space="preserve">
<style type="text/css">
	.st0{fill:#FFFFFF;}
</style>
<g>
	<path d="M423.3,824.2c10.6,18.4,21.4,36.5,31.6,55c4.2,7.5,7.3,15.6,14.1,21.2c2,1.7,3.9,3.5,6.2,4.9c5,3.1,4.4,10.1-0.7,13.5
		c-5.8,3.9-12.3,5-19,4.9c-11.4-0.1-22.7-0.1-34.1-0.6c-9.2-0.4-18.8-0.2-26.7-6.1c-1.5-1.1-2.4-3.3-3.2-5.1
		c-1.3-3.1-1.7-6.8-3.5-9.5c-4.9-6.9-10.6-13.3-15.8-20.1c-9.9-12.8-19.6-25.8-29.5-38.6c-8.1-10.4-17.8-19.3-28.4-27.1
		c-2.6-1.9-6.6-2.5-10-2.7c-18.9-1.5-37.9-2.7-56.8-4.2c-3.4-0.3-5.8,0.6-7.6,3.3c-2.4,3.4-4.8,6.9-7.1,10.3
		c-2.7,3.9-4.4,7.1-1.6,12.6c5,10.2,8.3,21.3,11.9,32.2c3.9,11.8,7.3,23.8,10.9,35.7c1.5,5.2-0.7,8.6-5.8,9.4
		c-0.5,0.1-1.2-0.1-1.5,0.1c-13.2,10.8-29.4,6.5-44.3,9.2c-7,1.3-14.1,2.4-21.2,3.2c-8.1,0.9-13.5-4.3-13.5-12.3
		c0-5.6,1.6-10.5,5.4-14.7c2.5-2.8,4.6-5.8,7.4-9.4c-0.7-1.7-1.9-4-2.7-6.4c-3-8.9-5.6-17.8-8.7-26.6c-2.3-6.4-4.6-12.8-7.7-18.9
		c-6.1-12.2-4-22.9,3.4-33.8c5.2-7.8,8.7-16.8,13.2-25.1c2.7-5.1,6-9.9,9.3-15.4c-5.3,0.4-7.1-2.3-7.5-6.4
		c-0.6-6.1-1.4-12.2-1.8-18.3c-0.6-9.2-0.8-18.5-1.3-27.7c-0.1-2.6-0.6-5.3-0.6-7.9c-0.4-16.7-0.9-33.4-1.1-50.1
		c-0.2-17.9,0.1-35.9,0.1-53.8c0-6.6-0.6-13.3,0-19.9c0.4-4.9-2.4-6.4-5.8-8c-11.2-5.4-22.4-10.9-33.7-16.2
		c-14.2-6.8-28.6-13.4-42.7-20.4c-8.2-4.1-16-9.1-24.2-13.3c-7.1-3.7-14.6-6.8-21.8-10.3c-9.1-4.4-18.4-8.6-27.1-13.7
		c-1.7-1-2-6.2-1.2-9.1c1.2-4.3,0.2-5.8-3.9-7.1c-7.9-2.5-12.7-9.4-12.4-18.7c0.2-6.3,1.8-12.7,3.2-18.9c0.8-3.6,1-6.5-0.8-10
		C2.2,429,0.6,423.9,0,419c-0.3-2.5,1.9-6.4,4.1-7.6c1.8-1,5.9,0.3,7.9,1.9c3.4,2.7,6,6.4,8.9,9.7c5.4,6.2,10.6,12.6,16.3,18.5
		c1.7,1.7,4.9,1.8,7.2,3c6.3,3.2,12.5,6.6,18.7,10c14.6,8.1,29.2,16.1,43.7,24.3c6.6,3.7,12.8,7.9,19.4,11.6
		c7.4,4.2,15,8.1,23.9,12.8c-2.6-6.8-5.3-11.9-6.4-17.5c-2.5-12.7-5.7-25.5-6-38.3c-0.4-14.5,1.9-29.1,3.5-43.6
		c0.8-7.1,1.8-14.3,4.1-20.9c3-8.9,7.1-17.4,11.1-26c2.9-6.3,6-12.6,9.7-18.4c3.1-4.8,7-9.1,10.7-13.5c3-3.6,6-7.3,9.5-10.4
		c4.6-4,9.3-8.3,14.7-10.7c3.6-1.6,5.4-3.7,6.2-6.9c3.2-12.3,6.3-24.7,9.1-37.1c3.5-15.1,5.5-30.7,10.4-45.4
		c3.5-10.4,6.2-21,9.8-31.3c3.3-9.5,5.5-19.4,8.9-28.8c4.5-12.4,9.4-24.7,14.5-36.9c5.8-13.8,12-27.6,18.2-41.2
		c7.1-15.5,15.4-30.2,26.4-43.4c9.7-11.7,21.6-21.2,34.7-27.7c10.2-5.1,22.5-7.5,34.5-2.6c3.7,1.5,8,4.2,11.4,3.5
		c9.7-1.9,14.6,4.6,18.9,10.4c3.8,5.1,6.7,11.8,7.3,18.1c1.7,16.4,3.3,32.9-2.4,49.2c-2.7,7.7-2.7,16.4-5.2,24.2
		c-4.3,13.7-9.7,27.1-14.5,40.7c-3.6,10.2-7,20.4-10.6,30.6c-2.2,6.1-4.7,12-6.9,18c-3.6,10-9.8,18.4-16,26.8
		c-1.4,1.9-1.7,4.5-2.8,6.7c-7.5,16-19,29.3-29.1,43.5c-5,7.1-10.1,14.2-15,21c13.4,4.3,27.2,8.8,41.3,13.3c4-11.5,8.3-24.3,13-37
		c2.6-7,5.8-13.8,9.4-20.3c6.8-12.4,14.2-24.5,21.2-36.9c7.1-12.7,13.9-25.5,20.8-38.3c4.7-8.8,8.8-17.9,14.2-26.3
		c10.1-15.8,20.9-31,34.5-44.1c14.1-13.5,29.3-25.5,46.3-34.9c20.9-11.7,42.3-11.6,64.2-1.4c6.7,3.1,11.3,8.3,15.1,13.5
		c3.9,5.4,6.4,13.1,6.4,19.8c-0.1,21.2-5.3,41.6-14.8,60.7c-3.2,6.5-7.5,12.6-11.4,18.8c-5.5,8.8-9.8,18.2-17.7,25.7
		c-6,5.7-9.5,13.9-14.2,21c-9.2,13.8-21.3,25-33.2,36.3c-10.9,10.4-21.8,20.7-32.9,30.8c-10.2,9.3-20.6,18.3-30.9,27.4
		c-8.2,7.3-16.3,14.7-24.7,21.8c-4.7,4-10,7.3-15,11c4.1,10.8,7.5,22.5,7.6,35c0,8.8,0.8,17.6,1,26.4c0.4,13.3-2.2,26.1-6.1,38.7
		c-3.8,12.3-7.7,24.7-12.5,36.6c-3.8,9.5-9.1,18.3-13.7,27.5c-0.1,0.2-0.1,0.4-0.3,0.4c-13.3,9.5-20.7,25.8-36.8,32.2
		c-1.4,0.6-2.5,1.9-4.8,3.8c8.1,5.5,15.3,11.3,23.2,15.7c9.3,5.1,19.1,9.5,29.1,13.4c15.7,6.2,31.7,11.9,47.6,17.6
		c5.2,1.9,10.5,3.8,15.9,4.9c9.7,2,19.6,3.9,29.5,4.8c12.4,1.2,25,1.6,37.5,2c4.3,0.1,8.6-0.9,12.9-1.3c3.4-0.3,7,0,10.4-0.7
		c6.6-1.5,13.1-3.6,19.7-5.3c1.6-0.4,3.5-0.6,4.8,0c0.7,0.4,1,2.9,0.5,4.2c-7.4,21.7-11.6,44-14.1,66.8
		c-2.1,19.5-8.7,37.6-18.8,54.4c-3.5,5.9-6.3,12.3-10.5,17.6c-6,7.6-12.4,15.2-19.8,21.4c-12.3,10.2-25,19.9-38.4,28.5
		c-12.8,8.2-26.6,14.8-40,22.1C424,823.6,423.6,824,423.3,824.2z M402,387.4c0.4-0.3,0.8-0.7,1.2-1c-2.2-5.4-4.3-10.8-6.8-16
		c-2-4-4.2-8.1-7.2-11.3c-2.7-2.9-1.9-4.6,0.3-6.5c2.8-2.4,5.9-4.5,8.8-6.7c10.8-8.2,22-16,32.5-24.7c11.7-9.6,22.9-19.9,34.2-29.9
		c11.1-9.8,22.2-19.6,33-29.6c7.8-7.2,15.8-14.4,22.6-22.5c9.2-10.9,16.5-23.3,26.2-33.7c11.6-12.4,17.9-27.8,26.3-42
		c1.6-2.8,2.6-6,3.3-9.2c2.4-10.9,4.5-21.8,6.6-32.7c0.4-2.2,0.9-5.5-0.2-6.5c-4.1-3.6-2.1-7.4-1.9-11.6c0.3-9.1,1.4-18.8-8-24.9
		c-1-0.6-1.4-2-2.3-2.8c-1.4-1.3-2.9-3.5-4.4-3.6c-8.9-0.2-17.8,0.1-26.8,0.4c-3.5,0.1-6.9,1.2-10.4,1.3c-8.7,0.4-16.9,2.8-23.4,8.2
		c-12.4,10.3-24.1,21.3-36,32.2c-14.8,13.6-26.5,29.9-37.5,46.5c-11.4,17.3-21.4,35.6-31.6,53.8c-7.9,14.1-15.6,28.4-22.6,43.1
		c-8,16.8-15,34.1-22.6,51.1c-1.4,3.2-1.7,5.4,2.2,6.4c3.6,0.9,3.9,2.9,2.2,6.2c-4.3-1.3-9.5-1.5-12.8-4.1
		c-6.7-5.3-14.2-8.4-22-10.9c-19.7-6.4-39.4-13-60.7-10.6c-2.3,0.3-4.7-0.7-7-1.2c1.3-1.6,2.5-2.2,3.6-2.2c12.1,0.6,24.2,1.1,36.2,2
		c2.8,0.2,4.1,0,5.8-2.6c5.2-8.1,11.2-15.6,16.4-23.6c8.8-13.3,17.3-26.7,25.8-40.2c1.9-3.1,2.7-6.8,4.5-10
		c3.7-6.6,8.1-12.9,11.4-19.7c7.4-15.1,14.8-30.1,21.1-45.6c5.3-13,9.7-26.4,13.5-39.9c3.5-12.3,5.5-25,8.2-37.5
		c0.3-1.5,0.9-3.5,0.2-4.6c-3-4.7-1.1-9.7-1.3-14.6c-0.3-7.3,0.3-14.7-1.1-21.7c-1-5-3.4-11.6-7.2-14C381.7,12.7,367.7,8,352.6,7.7
		c-3.9-0.1-7.1,0.1-8.8,4.6c-0.7,1.8-3.3,3-5.3,4c-10.2,5.1-19.3,11-25.4,21.2c-6.4,10.6-14.3,20.3-20.9,30.8
		c-5.1,8.1-9.5,16.8-13.9,25.3c-5.1,10-10.3,19.9-14.4,30.3c-7.1,18.1-12.9,36.7-20,54.8c-5,12.8-10.6,25.4-13,39.1
		c-1.6,9.3-2.9,18.7-4.9,27.9c-3.5,15.9-8.9,31.5-10.5,47.5c-1,10.6-5.5,15.8-13.7,20.3c-3.8,2.1-6.9,5.6-11.3,9.3
		c12.2-1.7,22.7-3.9,33.4-4.4c16.5-0.8,33.1-0.6,49.6-0.7c17.3,0,34.3,3.1,49.9,10c14.7,6.4,30.1,12.4,41.5,25.1
		c6.3,7,14.3,12.3,21.2,18.7C391.6,376.6,396.7,382.1,402,387.4z M330.6,604.4c0.3-0.1,0.7-0.3,1-0.4c1.5,3.4,3.7,6.7,4.4,10.2
		c1.2,6,4.5,9.4,9.9,11.8c14.3,6.5,28.5,13.3,42.8,20c28.3,13.2,56.5,26.4,85.9,40.1c1.3-3.4,3.7-7,3.8-10.7
		c0.4-9.6,0-19.3-0.4-28.9c-0.3-6.8-2.3-12.8-10.3-14.3c-1-0.2-1.8-1.1-2.7-1.6c-8.4-4.4-16.6-9.1-25.2-13
		c-14.3-6.5-29-12.3-43.4-18.7c-8.6-3.8-17-8.3-25.6-12.3c-11.7-5.4-23.6-10.6-35.3-16c-8.4-3.9-8.3-3.9-14.6,3.1
		c-3.5,3.9-6.7,8-10.6,11.6c-5.8,5.4-13,8-21,8.2c-10.1,0.3-20.7,1.8-29-6c-4.2-4-7.8-8.8-12.3-13.9c-2.4,2.7-4.8,5.5-7.3,8
		c-9.4,9.4-29.1,11.5-40.2,4.4c-15-9.6-25.7-22.5-27.5-40.8c-0.7-6.8-1.5-12.7-6.7-17.7c-4.2-4.1-6.8-10.2-11.4-13.5
		c-7.7-5.6-16.5-9.8-24.9-14.4c-15.3-8.5-30.7-17-46.1-25.3c-12.8-6.9-25.8-13.3-38.7-20.1c-3.2-1.7-5-0.3-7.1,2
		c-8,8.7-11.9,19.1-14.4,30.4c-0.7,3.2-0.2,4.8,2.9,6.2c5.4,2.5,10.7,5.2,16,8c23.4,12.5,46.7,25.1,70,37.6
		c9.7,5.2,19.5,10.3,29.2,15.4c10.8,5.6,21.8,11,32.5,16.8c1.7,0.9,3.6,3.5,3.6,5.4c0.8,20.5,1.1,41.1,1.7,61.6
		c0.1,4.4,0.6,8.8,0.8,13.2c0.7,10.2,1.2,20.4,2.1,30.6c0.3,3.5,2.2,7.1,1.7,10.3c-2.1,13.3,2.6,26.1,2.8,39.2
		c0.1,5-0.3,10,0.4,14.9c0.5,3.3-1.1,8.5,4,9.4c6.5,1.2,13.2,1.7,19.8,1.8c5.4,0.1,10.7-1.2,16.1-1c21,0.7,42,2.4,63-1
		c14.7-2.4,29.7-3.6,44.5-5.6c5.2-0.7,10.3-2.1,15.3-3.6c3.1-0.9,5.9-3,9.1-3.5c4.1-0.6,5.7-2.1,4.7-6.2c-2.5-10.5-5-21-7.5-31.5
		c-3.4-14.2-7.9-28.3-10.1-42.8c-2.3-15.1-6.2-29.5-11.9-43.6C333.1,613.8,332,609,330.6,604.4z M235.7,801.1c2-0.2,2.6-0.3,3.1-0.2
		c25,2.2,50.1,4.3,75.1,6.8c3.8,0.4,8.6,1.7,11,4.3c11.8,13.2,23.1,26.8,34.3,40.5c11,13.6,21.9,27.3,32.4,41.2
		c3.5,4.6,8,8.9,8.3,15.5c0.1,1.2,2.3,3.1,3.8,3.4c9.9,2,19.9,4.6,29.9,5c10.9,0.5,22-0.9,32.9-1.9c2-0.2,3.8-2.5,6.1-4.2
		c-4.6-3.7-9-5.8-11.4-9.3c-9.6-14-18.7-28.5-27.8-42.8c-8.5-13.4-17-26.8-25.3-40.3c-1.7-2.8-2.8-6.1-4.4-8.9
		c-7.2-12.5-14.3-25.1-22-37.4c-5.5-8.8-11.9-17.1-17.4-24.8c-13,3-24.3,6-35.8,8.2c-15.6,3-31.5,2.3-47.2,6.6
		c-13.4,3.7-28.2,2.5-42.4,2.8c-8.6,0.2-17.2-0.6-25.7-1.1c-9.5-0.6-19.7-3.1-24.2,9.4c-0.3,0.9-1.3,1.6-1.9,2.5
		c-6.8,11.2-13.7,22.4-20.3,33.7c-4.6,8.1-4,16.8-0.8,25.1c3.1,8.2,7.7,15.9,10.6,24.2c3.7,10.6,6.5,21.6,9.4,32.5
		c0.4,1.5-1,3.6-2,5.2c-3,4.5-6.5,8.6-9.2,13.3c-2.1,3.7-0.5,6.4,4,7c4.7,0.6,9.5,1.1,14.1,0.7c10.1-0.8,20.2-2.2,30.2-3.3
		c7.6-0.8,14.8-2.7,20.8-7.6c1.6-1.3,3.1-4.3,2.7-6.1c-1.8-8.8-3.5-17.8-6.7-26.2c-5.2-13.8-11.7-27.2-17.4-40.8
		c-0.5-1.2-0.2-3.2,0.5-4.3c4.5-7.1,9-14.2,13.8-21C238.9,806.1,240.3,803.9,235.7,801.1z M477.1,695.3c-46-21.1-89.9-45.3-136-67.8
		c1.5,4,2.6,6.7,3.6,9.4c4.6,12.8,9.5,25.4,13.5,38.4c5.1,16.7,9.6,33.5,14.1,50.4c1.2,4.4,3.1,9.6,1.7,13.4
		c-1.8,5-0.8,7.9,2.1,11.8c4.9,6.5,9.4,13.4,13.8,20.2c3.2,5,5.9,10.2,9,15.3c2.1,3.6,4.5,7,6.7,10.5c3.6,6,6.9,12.1,10.7,18
		c0.6,0.9,3.1,1.4,4.2,1c5.1-2.2,10.3-4.5,15.1-7.4c14.7-8.9,29.3-17.8,43.7-27.1c5.7-3.7,11-8.1,16-12.6c7.4-6.7,15.3-13,21.2-20.8
		c6.9-9.2,12.2-19.7,17.6-29.9c7-13.2,11.6-27.3,14.1-42.1c3.1-18.1,6.9-36.1,10.3-54.1c0.5-2.7,0.7-5.4,1-8.1
		c-0.2-0.5-0.5-1-0.7-1.6c-8.9,9-20.6,3.7-30.2,7.5c-10.8,4.2-21.6,2.9-32.5,2.3c-10.5-0.6-20.9-2.4-31.4-3.6c-0.3,0.7-0.7,1.3-1,2
		c12,3.2,21.6,8.4,19.4,21.7c5,2.3,9.4,3.7,13.2,6.1c3.7,2.3,9.3,4.1,6.3,10.7c-0.2,0.4,0.8,1.4,1.4,2c2.8,2.7,2.9,5.5,1.1,9
		c-0.8,1.6-1.1,4.4-0.3,5.6c3.4,4.6,1.8,8.3-1.3,11.8c-2.1,2.5-10.6,3.3-13.3,1.7c-2.6-1.6-5.4-3-8.3-4.6
		C480.3,687.7,479,690.7,477.1,695.3z M146.6,418.4c-0.4,7.8-1.4,15.6-1.1,23.3c0.5,13,0.2,26.4,3.3,38.9
		c3.7,14.9,9.3,29.4,19.5,41.9c8.1,10,17.6,17.8,28.8,23.7c3.4,1.8,7,3.2,10.5,4.8c5.1,2.3,10,5.4,15.3,6.8
		c8.3,2.2,16.9,2.9,25.2,5.1c7.6,2,14.9,2.5,22.9,2c11.9-0.8,23.1-3.7,34.4-6.9c1.7-0.5,3.5-1.6,5-1.2c7.1,1.8,12.1-2,17.1-6
		c1.8-1.4,3.7-2.6,5.6-3.9c12.9-8.8,25.3-18.1,35.2-30.5c10.4-12.9,14.5-28.9,22.6-42.9c0.7-1.1,0.3-2.8,0.4-4.5
		c-13.9,5.5-27.9,4.3-41.6,3.8c-12.2-0.5-24.5-2.7-35.7-8c-7.3-3.5-15.6-6.8-20.8-12.6c-8.9-9.8-20.7-14-31.3-20.4
		c-11.3-6.8-23.5-3-35.2,0.7c-5.5,1.7-10.7,5.1-16.3,5.7c-7.8,1-15.8,0.7-23.6,0C171.5,436.9,158.1,431,146.6,418.4z M403.2,410.5
		c0-4.8,0.3-9.5-0.1-14.2c-0.2-2.4-1.5-5.2-3.2-6.8c-9.5-9.1-19.1-18.1-28.9-26.9c-10-9-20.8-16.7-33.1-22.7
		c-23.9-11.7-49.1-17.2-75.2-17.7c-24.2-0.5-48.4,0.3-72.4,4.5c-4.8,0.8-10.3,0.7-13.7,5.6c-15,22.1-25.7,45.9-28.3,72.7
		c-0.3,2.8,0.2,6.4,1.8,8.5c6.6,8.1,14.6,15.1,24.9,17.7c8.7,2.2,18,3.1,27,3.1c6.7,0,14.9-0.4,19.7-4c5.6-4.2,11.2-6.1,17.4-7.5
		c8.6-1.9,17.4-1.1,25,3.3c9.2,5.3,17.3,12.5,26.5,17.7c19.4,11,37.9,24.5,62.1,22.9c11.3-0.7,22.6-0.2,33.9-0.6
		c1.7-0.1,4.1-1.9,4.8-3.5C398.2,445.9,404.1,429,403.2,410.5z M176.9,539.3c0.4,2.5,0.6,4.4,1,6.2c1.9,9.1,4.6,17.8,10.2,25.5
		c7.5,10.2,25.4,18.7,36.8,13.8c8.4-3.6,14.6-9.6,21.2-16.1C220.4,565.3,198.9,552.7,176.9,539.3z M38.2,446.6
		c-11-9.7-18.5-22.8-30.4-31.8c-4.2,5.7-1.4,17.5,4.2,18.8c4.4,1.1,6.1,3.7,5.1,7.5c-0.3,1.1-4.1,1.3-7,2.1c-0.4,1.2-1.6,3.4-2,5.8
		c-1.5,8.8-3.1,17.5,5.2,24.6c5.3,4.6,8.5,4.1,10.5-3C26.4,461.5,31.5,453.8,38.2,446.6z M253.1,569.1c4.9,14.6,16.6,22.8,37.2,19.8
		c12.5-1.8,27.9-13.4,30.7-24.4C298.9,571,276.4,572.9,253.1,569.1z M498.5,662.6c0-3.9,1-7.7-0.2-8.5c-4.3-3.2-9.4-5.4-15-8.4
		c0,11.7,0,21.9,0,32.2c0,1,0.2,2.2,0.7,2.9c3.4,4.7,12.3,5.5,17.3,1.3c-1.6-2.2-3.3-4.4-4.9-6.6c-2.4-3.2-0.8-5.1,2.2-6.4
		c1-0.4,2.2-0.5,4.6-1C500.9,665.4,499.2,663.5,498.5,662.6z"/>
	<path class="st0" d="M402,387.4c-5.3-5.3-10.4-10.9-15.9-16c-6.9-6.4-14.9-11.8-21.2-18.7c-11.4-12.7-26.8-18.6-41.5-25.1
		c-15.6-6.8-32.6-10-49.9-10c-16.5,0-33.1-0.2-49.6,0.7c-10.6,0.5-21.2,2.8-33.4,4.4c4.4-3.7,7.5-7.2,11.3-9.3
		c8.2-4.5,12.7-9.7,13.7-20.3c1.6-16,7-31.6,10.5-47.5c2-9.2,3.4-18.6,4.9-27.9c2.3-13.7,7.9-26.3,13-39.1
		c7.1-18.1,12.9-36.7,20-54.8c4.1-10.4,9.3-20.4,14.4-30.3c4.3-8.6,8.7-17.2,13.9-25.3c6.6-10.5,14.5-20.2,20.9-30.8
		c6.2-10.2,15.3-16.1,25.4-21.2c2-1,4.6-2.3,5.3-4c1.7-4.5,4.9-4.7,8.8-4.6c15.1,0.3,29,4.9,41.6,12.6c3.9,2.4,6.2,8.9,7.2,14
		c1.4,7,0.8,14.5,1.1,21.7c0.2,4.9-1.6,9.9,1.3,14.6c0.7,1.1,0.1,3.1-0.2,4.6c-2.6,12.5-4.7,25.2-8.2,37.5
		c-3.8,13.5-8.2,26.9-13.5,39.9c-6.4,15.5-13.8,30.6-21.1,45.6c-3.3,6.8-7.7,13.1-11.4,19.7c-1.8,3.2-2.6,6.9-4.5,10
		c-8.4,13.5-17,26.9-25.8,40.2c-5.3,8-11.3,15.5-16.4,23.6c-1.7,2.6-2.9,2.9-5.8,2.6c-12.1-0.9-24.1-1.4-36.2-2
		c-1.1-0.1-2.3,0.5-3.6,2.2c2.3,0.4,4.8,1.4,7,1.2c21.3-2.4,41,4.2,60.7,10.6c7.8,2.5,15.3,5.7,22,10.9c3.3,2.6,8.5,2.8,12.8,4.1
		c1.7-3.2,1.4-5.3-2.2-6.2c-3.9-1-3.7-3.2-2.2-6.4c7.6-17,14.6-34.3,22.6-51.1c7-14.6,14.7-28.9,22.6-43.1
		c10.2-18.1,20.2-36.4,31.6-53.8c11-16.6,22.7-32.9,37.5-46.5c11.8-10.9,23.6-21.9,36-32.2c6.5-5.4,14.7-7.9,23.4-8.2
		c3.5-0.1,6.9-1.2,10.4-1.3c8.9-0.3,17.8-0.6,26.8-0.4c1.5,0,3,2.2,4.4,3.6c0.9,0.8,1.3,2.2,2.3,2.8c9.5,6.1,8.3,15.8,8,24.9
		c-0.1,4.1-2.2,7.9,1.9,11.6c1.1,1,0.6,4.4,0.2,6.5c-2.1,10.9-4.2,21.9-6.6,32.7c-0.7,3.2-1.6,6.5-3.3,9.2
		c-8.5,14.2-14.7,29.5-26.3,42c-9.7,10.4-17,22.9-26.2,33.7c-6.9,8.1-14.8,15.3-22.6,22.5c-10.9,10-22,19.8-33,29.6
		c-11.3,10.1-22.5,20.3-34.2,29.9c-10.5,8.6-21.6,16.5-32.5,24.7c-2.9,2.2-6,4.3-8.8,6.7c-2.2,1.9-3,3.6-0.3,6.5
		c3,3.2,5.2,7.3,7.2,11.3c2.6,5.2,4.6,10.7,6.8,16C402.7,386.7,402.4,387.1,402,387.4z"/>
	<path class="st0" d="M330.6,604.4c1.4,4.6,2.5,9.4,4.2,13.8c5.6,14.1,9.5,28.5,11.9,43.6c2.2,14.4,6.7,28.5,10.1,42.8
		c2.5,10.5,5,21,7.5,31.5c1,4-0.7,5.6-4.7,6.2c-3.1,0.5-5.9,2.6-9.1,3.5c-5,1.4-10.1,2.9-15.3,3.6c-14.8,2-29.7,3.2-44.5,5.6
		c-21,3.4-42,1.7-63,1c-5.3-0.2-10.7,1.1-16.1,1c-6.6-0.2-13.3-0.6-19.8-1.8c-5-0.9-3.5-6.1-4-9.4c-0.7-4.9-0.3-9.9-0.4-14.9
		c-0.2-13.1-4.9-25.8-2.8-39.2c0.5-3.3-1.4-6.9-1.7-10.3c-0.8-10.2-1.4-20.4-2.1-30.6c-0.3-4.4-0.7-8.8-0.8-13.2
		c-0.6-20.5-0.9-41.1-1.7-61.6c-0.1-1.9-1.9-4.4-3.6-5.4c-10.7-5.8-21.7-11.2-32.5-16.8c-9.8-5.1-19.5-10.2-29.2-15.4
		c-23.4-12.5-46.7-25.1-70-37.6c-5.2-2.8-10.5-5.6-16-8c-3-1.4-3.6-3-2.9-6.2c2.5-11.3,6.4-21.7,14.4-30.4c2.1-2.3,3.9-3.7,7.1-2
		c12.9,6.7,25.9,13.2,38.7,20.1c15.5,8.3,30.8,16.8,46.1,25.3c8.4,4.7,17.2,8.9,24.9,14.4c4.6,3.3,7.2,9.4,11.4,13.5
		c5.2,5.1,6,10.9,6.7,17.7c1.8,18.2,12.4,31.1,27.5,40.8c11,7.1,30.8,5,40.2-4.4c2.6-2.6,4.9-5.4,7.3-8c4.5,5.1,8,9.9,12.3,13.9
		c8.3,7.9,18.8,6.3,29,6c7.9-0.2,15.1-2.8,21-8.2c3.8-3.6,7.1-7.7,10.6-11.6c6.3-7,6.2-6.9,14.6-3.1c11.7,5.4,23.6,10.6,35.3,16
		c8.6,4,16.9,8.4,25.6,12.3c14.4,6.4,29,12.2,43.4,18.7c8.6,3.9,16.8,8.6,25.2,13c0.9,0.5,1.7,1.4,2.7,1.6c8,1.5,10,7.5,10.3,14.3
		c0.4,9.6,0.8,19.3,0.4,28.9c-0.2,3.7-2.5,7.3-3.8,10.7c-29.4-13.7-57.6-26.9-85.9-40.1c-14.3-6.7-28.5-13.5-42.8-20
		c-5.4-2.4-8.7-5.8-9.9-11.8c-0.7-3.6-2.9-6.8-4.4-10.2C331.3,604.1,330.9,604.3,330.6,604.4z"/>
	<path class="st0" d="M235.7,801.1c4.6,2.8,3.2,5,1.2,7.7c-4.8,6.8-9.4,13.9-13.8,21c-0.7,1.1-1,3.2-0.5,4.3
		c5.8,13.6,12.2,27,17.4,40.8c3.2,8.4,4.9,17.4,6.7,26.2c0.4,1.8-1.1,4.8-2.7,6.1c-6,4.9-13.2,6.8-20.8,7.6
		c-10.1,1.1-20.1,2.5-30.2,3.3c-4.7,0.4-9.5-0.1-14.1-0.7c-4.4-0.5-6.1-3.2-4-7c2.6-4.7,6.2-8.8,9.2-13.3c1-1.5,2.4-3.7,2-5.2
		c-2.9-10.9-5.7-21.9-9.4-32.5c-2.9-8.3-7.5-16-10.6-24.2c-3.2-8.3-3.8-17,0.8-25.1c6.5-11.4,13.5-22.5,20.3-33.7
		c0.5-0.9,1.5-1.6,1.9-2.5c4.5-12.5,14.6-10,24.2-9.4c8.6,0.5,17.2,1.3,25.7,1.1c14.2-0.4,29,0.8,42.4-2.8
		c15.7-4.3,31.6-3.6,47.2-6.6c11.5-2.2,22.8-5.2,35.8-8.2c5.4,7.7,11.8,16,17.4,24.8c7.7,12.2,14.7,24.9,22,37.4
		c1.7,2.9,2.7,6.1,4.4,8.9c8.4,13.5,16.8,26.9,25.3,40.3c9.2,14.4,18.2,28.8,27.8,42.8c2.4,3.5,6.8,5.6,11.4,9.3
		c-2.4,1.7-4.2,4-6.1,4.2c-10.9,1-22,2.4-32.9,1.9c-10-0.5-20-3.1-29.9-5c-1.5-0.3-3.7-2.2-3.8-3.4c-0.3-6.6-4.8-10.9-8.3-15.5
		c-10.5-14-21.4-27.7-32.4-41.2c-11.2-13.7-22.5-27.3-34.3-40.5c-2.4-2.6-7.2-3.9-11-4.3c-25-2.5-50-4.6-75.1-6.8
		C238.3,800.9,237.7,801,235.7,801.1z"/>
	<path class="st0" d="M477.1,695.3c1.9-4.6,3.2-7.6,4.7-11.1c3,1.6,5.7,3.1,8.3,4.6c2.8,1.6,11.2,0.8,13.3-1.7
		c3.1-3.6,4.7-7.3,1.3-11.8c-0.9-1.2-0.5-4,0.3-5.6c1.8-3.4,1.7-6.3-1.1-9c-0.6-0.6-1.5-1.6-1.4-2c3-6.6-2.6-8.4-6.3-10.7
		c-3.8-2.4-8.1-3.8-13.2-6.1c2.2-13.3-7.4-18.5-19.4-21.7c0.3-0.7,0.7-1.3,1-2c10.5,1.3,20.9,3,31.4,3.6c10.8,0.6,21.7,2,32.5-2.3
		c9.7-3.8,21.4,1.6,30.2-7.5c0.2,0.5,0.5,1,0.7,1.6c-0.3,2.7-0.5,5.4-1,8.1c-3.4,18.1-7.2,36-10.3,54.1
		c-2.5,14.8-7.2,28.9-14.1,42.1c-5.4,10.2-10.7,20.7-17.6,29.9c-5.9,7.8-13.8,14.2-21.2,20.8c-5,4.6-10.3,9-16,12.6
		c-14.4,9.3-29,18.3-43.7,27.1c-4.8,2.9-9.9,5.2-15.1,7.4c-1.1,0.5-3.6-0.1-4.2-1c-3.7-5.9-7.1-12-10.7-18c-2.1-3.6-4.5-7-6.7-10.5
		c-3.1-5.1-5.8-10.3-9-15.3c-4.4-6.9-8.8-13.7-13.8-20.2c-2.9-3.8-3.9-6.7-2.1-11.8c1.4-3.8-0.6-9-1.7-13.4
		c-4.5-16.9-9-33.7-14.1-50.4c-4-13-9-25.6-13.5-38.4c-1-2.7-2.1-5.4-3.6-9.4C387.2,650,431.1,674.2,477.1,695.3z"/>
	<path class="st0" d="M146.6,418.4c11.5,12.6,24.9,18.5,40.3,19.9c7.8,0.7,15.9,1,23.6,0c5.6-0.7,10.8-4,16.3-5.7
		c11.7-3.7,23.9-7.4,35.2-0.7c10.6,6.4,22.5,10.6,31.3,20.4c5.2,5.8,13.5,9.1,20.8,12.6c11.2,5.4,23.5,7.6,35.7,8
		c13.7,0.5,27.7,1.7,41.6-3.8c-0.1,1.6,0.3,3.4-0.4,4.5c-8.1,14-12.2,30-22.6,42.9c-10,12.4-22.3,21.7-35.2,30.5
		c-1.9,1.3-3.8,2.5-5.6,3.9c-5,4-10,7.8-17.1,6c-1.5-0.4-3.3,0.7-5,1.2c-11.3,3.2-22.5,6.1-34.4,6.9c-8,0.5-15.3,0-22.9-2
		c-8.3-2.2-16.9-2.9-25.2-5.1c-5.3-1.4-10.2-4.5-15.3-6.8c-3.5-1.6-7.1-3-10.5-4.8c-11.2-5.9-20.7-13.7-28.8-23.7
		c-10.2-12.5-15.8-27-19.5-41.9c-3.1-12.5-2.8-25.9-3.3-38.9C145.2,434,146.2,426.2,146.6,418.4z M239.9,483.3
		c-1.7-0.8-2.8-1.4-3.8-1.9c-7.2-3.5-14.3-7.3-21.7-10.2c-6-2.4-10.2,0.1-12.2,6.2c-1.7,5.3-1.1,10.4,2.2,15
		c8.8,12.5,21.8,19.4,35.6,24.1c14.8,5.1,30.5,6.5,46.2,3.3c8.9-1.8,17.4-4.4,24.5-10.2c4.2-3.5,5.9-8.1,4.8-13.5
		c-1.2-5.7-5.6-8-10.7-9.5c-9.8-2.9-19.7-1.3-29.6-0.5c-10.9,0.8-21.7,0.5-32.1-2.1c0-3.3-0.2-6.1,0.1-8.8c0.2-2.9,0.9-5.7,1.3-8.4
		c5.6,0,11.2,0.2,16.8,0c7.4-0.3,11.3-6.6,12.6-12.1c0.2-1.1-0.6-2.4-1-3.6c-1.2,0.5-2.6,0.8-3.5,1.5c-0.9,0.7-1.2,2.1-1.9,3.1
		c-3.5,4.5-6.7,9.5-13.7,8.5c-5.5-0.8-11.1-1.3-16.7-2.1c-5.6-0.8-9.7-4.3-10.7-9.5c-0.9-4.4-0.4-9.5,5.1-12
		c1.2-0.5,1.9-2.3,2.8-3.5c-0.8-0.4-1.1-0.8-1.4-0.7c-5,1.2-9.4,7.2-10.1,13.8c-0.7,5.7,1.8,11,6.6,13.2c2.7,1.2,5.7,2,8.6,2.4
		c3,0.4,3.8,2.3,3.7,4.7C241.1,474.3,240.5,478.5,239.9,483.3z"/>
	<path class="st0" d="M403.2,410.5c0.9,18.4-5,35.4-11.6,52.1c-0.6,1.6-3.1,3.5-4.8,3.5c-11.3,0.4-22.7-0.2-33.9,0.6
		c-24.2,1.6-42.8-11.9-62.1-22.9c-9.2-5.2-17.3-12.4-26.5-17.7c-7.6-4.4-16.4-5.2-25-3.3c-6.2,1.3-11.8,3.2-17.4,7.5
		c-4.9,3.7-13,4.1-19.7,4c-9,0-18.3-0.9-27-3.1c-10.3-2.6-18.3-9.6-24.9-17.7c-1.6-2-2.1-5.7-1.8-8.5c2.7-26.9,13.4-50.6,28.3-72.7
		c3.3-4.9,8.8-4.8,13.7-5.6c23.9-4.2,48.2-5,72.4-4.5c26.1,0.5,51.3,6,75.2,17.7c12.3,6,23,13.7,33.1,22.7
		c9.8,8.8,19.4,17.7,28.9,26.9c1.7,1.6,2.9,4.4,3.2,6.8C403.5,401,403.2,405.8,403.2,410.5z M331.6,451.7c4-0.2,8.2,0.2,12-0.9
		c6.3-1.8,14-2.9,18-7.2c11.7-12.7,17.4-28.3,14.9-46c-0.3-2.2-0.4-4.9-1.6-6.5c-5.5-6.9-7.1-15.8-13.8-22.5
		c-7.5-7.5-15.7-9.9-25.2-9.2c-6.7,0.5-13.6,2-19.9,4.5c-6,2.4-12.2,5.6-16.6,10.1c-8,8.3-12.7,19-16.1,30
		c-1.2,3.9-1.9,8.2-1.5,12.2c0.7,7.8,4,14.8,10.4,19.7c4.1,3.1,8.4,6.1,12.9,8.5C313.3,449.1,322,452.2,331.6,451.7z M173.6,391.2
		c1.3,10.3,3.5,19.1,12.5,23.3c11.4,5.3,23.3,7.1,35.7,2.4c10.6-4.1,17.8-11,23-21.2c4.8-9.4,4.9-19.2,5.4-29
		c0.3-7.4-0.9-15.3-7.1-20.6c-13.9-12-28.1-13-43.3-3.3C181.7,354.1,176.2,372.4,173.6,391.2z"/>
	<path class="st0" d="M176.9,539.3c22,13.3,43.4,26,69.3,29.3c-6.6,6.5-12.8,12.5-21.2,16.1c-11.4,4.9-29.4-3.6-36.8-13.8
		c-5.7-7.7-8.3-16.4-10.2-25.5C177.5,543.7,177.3,541.8,176.9,539.3z"/>
	<path class="st0" d="M38.2,446.6c-6.6,7.2-11.7,14.9-14.4,24.1c-2.1,7.1-5.2,7.6-10.5,3c-8.3-7.1-6.7-15.8-5.2-24.6
		c0.4-2.4,1.6-4.6,2-5.8c2.9-0.8,6.7-1,7-2.1c1-3.8-0.7-6.4-5.1-7.5c-5.6-1.4-8.4-13.1-4.2-18.8C19.7,423.8,27.2,436.9,38.2,446.6z"
		/>
	<path class="st0" d="M253.1,569.1c23.3,3.7,45.8,1.8,67.9-4.6c-2.8,11-18.2,22.6-30.7,24.4C269.7,591.9,258,583.8,253.1,569.1z"/>
	<path class="st0" d="M498.5,662.6c0.8,0.9,2.5,2.8,4.8,5.5c-2.4,0.5-3.6,0.6-4.6,1c-3,1.3-4.6,3.2-2.2,6.4c1.6,2.2,3.3,4.4,4.9,6.6
		c-5,4.2-13.8,3.4-17.3-1.3c-0.6-0.8-0.7-2-0.7-2.9c0-10.3,0-20.5,0-32.2c5.6,3,10.6,5.2,15,8.4
		C499.4,654.9,498.5,658.7,498.5,662.6z"/>
	<path d="M239.9,483.3c0.6-4.9,1.2-9,1.5-13.1c0.2-2.4-0.6-4.3-3.7-4.7c-2.9-0.4-5.9-1.2-8.6-2.4c-4.8-2.1-7.2-7.5-6.6-13.2
		c0.7-6.5,5.1-12.5,10.1-13.8c0.2-0.1,0.6,0.3,1.4,0.7c-1,1.2-1.6,3-2.8,3.5c-5.5,2.5-5.9,7.6-5.1,12c1,5.2,5.1,8.7,10.7,9.5
		c5.5,0.8,11.1,1.3,16.7,2.1c7,1,10.2-3.9,13.7-8.5c0.7-1,1-2.4,1.9-3.1c0.9-0.8,2.3-1.1,3.5-1.5c0.3,1.2,1.2,2.5,1,3.6
		c-1.2,5.5-5.2,11.8-12.6,12.1c-5.6,0.2-11.2,0-16.8,0c-0.4,2.6-1.1,5.5-1.3,8.4c-0.2,2.7-0.1,5.5-0.1,8.8
		c10.4,2.6,21.3,2.9,32.1,2.1c9.9-0.8,19.8-2.3,29.6,0.5c5.1,1.5,9.5,3.7,10.7,9.5c1.1,5.4-0.5,10.1-4.8,13.5
		c-7.1,5.9-15.7,8.4-24.5,10.2c-15.7,3.2-31.4,1.8-46.2-3.3c-13.8-4.7-26.8-11.7-35.6-24.1c-3.2-4.6-3.9-9.7-2.2-15
		c2-6.1,6.2-8.6,12.2-6.2c7.4,3,14.5,6.8,21.7,10.2C237.1,481.9,238.2,482.5,239.9,483.3z M306.9,508.8c-10.5-6.9-44.6-2.5-52.5,7.6
		C261.5,522.1,302.1,516.7,306.9,508.8z M272.5,489.5c-2.4,0-5,0.1-7.6,0c-2.6-0.2-5.2-0.8-7.8-0.8c-1.1,0-3.1,1.3-3.1,2.1
		c-0.1,1.1,1.1,3.1,2,3.3c4.1,0.8,8.3,1.5,12.5,1.6C272.1,495.8,274.1,494,272.5,489.5z M228.4,479.2c-1.1,6.5,5.4,10.5,13.1,8
		C237,484.5,232.7,481.9,228.4,479.2z"/>
	<path d="M331.6,451.7c-9.6,0.5-18.3-2.6-26.5-7.1c-4.5-2.5-8.8-5.4-12.9-8.5c-6.4-4.9-9.7-11.9-10.4-19.7c-0.4-4,0.3-8.3,1.5-12.2
		c3.4-11,8.1-21.7,16.1-30c4.4-4.5,10.6-7.8,16.6-10.1c6.3-2.5,13.2-4,19.9-4.5c9.5-0.7,17.7,1.7,25.2,9.2
		c6.7,6.7,8.3,15.6,13.8,22.5c1.3,1.6,1.3,4.3,1.6,6.5c2.5,17.8-3.2,33.3-14.9,46c-4,4.3-11.7,5.4-18,7.2
		C339.8,452,335.6,451.5,331.6,451.7z M332.1,362.9c-1.7,0.2-3.6,0-5.2,0.5c-10.9,3.9-21.3,7.8-28.7,18.1
		c-5.2,7.2-10.4,14-12.3,22.7c-0.9,4-2.5,8.5-1.4,12.1c2.8,9,6.6,18.3,15.4,23c13.2,7,27,12.6,42.6,8.5c1.2-0.3,2.4-0.6,3.6-0.5
		c7.7,0.4,13.5-3.7,17-9.5c6.1-9.8,11.5-19.6,11.1-32.4c-0.3-9.1-3-16.6-7-24.1c-1.6-3-3.8-6-6.4-8.1
		C352.5,366.6,342.9,363.2,332.1,362.9z"/>
	<path d="M173.6,391.2c2.6-18.7,8.1-37.1,26.1-48.5c15.2-9.7,29.4-8.7,43.3,3.3c6.2,5.3,7.4,13.2,7.1,20.6c-0.5,9.8-0.6,19.6-5.4,29
		c-5.2,10.2-12.4,17.1-23,21.2c-12.4,4.8-24.3,2.9-35.7-2.4C177.1,410.3,174.9,401.4,173.6,391.2z M248.8,364.1
		c-2.2-5-4.3-11.3-7.5-17c-2.7-4.6-8.1-5.1-13.2-6.6c-10.6-3-19.7-0.5-28.8,4.2c-2.6,1.3-5.1,3.3-6.8,5.6c-6,7.9-11.4,16-13.5,26.1
		c-1.6,7.9-4.7,16.5-0.3,23.5c3.9,6.2,8.1,13.4,17.5,14.6c9.8,1.3,20,3.5,28.7-1.5c6.4-3.7,11.2-10.2,16.2-15.9
		C248.9,387.9,246,376.1,248.8,364.1z"/>
	<path class="st0" d="M306.9,508.8c-4.8,8-45.4,13.3-52.5,7.6C262.4,506.2,296.4,501.9,306.9,508.8z"/>
	<path class="st0" d="M272.5,489.5c1.6,4.5-0.4,6.3-4,6.2c-4.2-0.1-8.4-0.8-12.5-1.6c-0.9-0.2-2.1-2.2-2-3.3c0.1-0.8,2-2,3.1-2.1
		c2.6-0.1,5.2,0.6,7.8,0.8C267.5,489.6,270.1,489.5,272.5,489.5z"/>
	<path class="st0" d="M228.4,479.2c4.4,2.7,8.6,5.3,13.1,8C233.8,489.8,227.3,485.7,228.4,479.2z"/>
	<path class="st0" d="M332.1,362.9c10.7,0.3,20.4,3.7,28.8,10.2c2.6,2.1,4.8,5.1,6.4,8.1c4,7.5,6.6,15,7,24.1
		c0.4,12.8-5,22.6-11.1,32.4c-3.6,5.8-9.3,9.9-17,9.5c-1.2-0.1-2.4,0.2-3.6,0.5c-15.6,4.1-29.4-1.5-42.6-8.5
		c-8.8-4.7-12.6-13.9-15.4-23c-1.1-3.6,0.5-8.1,1.4-12.1c2-8.7,7.2-15.5,12.3-22.7c7.4-10.2,17.8-14.2,28.7-18.1
		C328.6,362.8,330.4,363,332.1,362.9z M317.5,383.5c-1-0.8-2.7-3.4-4.8-3.8c-4-0.8-8.8,4.9-8.7,9.5c0.1,3.1,1.3,5.6,4.8,5.7
		C313.2,395,317.6,390.1,317.5,383.5z"/>
	<path class="st0" d="M248.8,364.1c-2.8,12,0.1,23.8-7.8,32.9c-5,5.7-9.8,12.3-16.2,15.9c-8.7,5-18.8,2.8-28.7,1.5
		c-9.4-1.2-13.6-8.4-17.5-14.6c-4.4-7-1.3-15.5,0.3-23.5c2.1-10,7.5-18.2,13.5-26.1c1.7-2.3,4.2-4.3,6.8-5.6
		c9.1-4.7,18.2-7.2,28.8-4.2c5,1.5,10.5,1.9,13.2,6.6C244.5,352.8,246.6,359.1,248.8,364.1z M202.7,351.8
		c-6.3,0.2-10.6,4.9-10.2,9.6c0.2,3.2,1.7,5.3,5.2,5.1c4.5-0.3,8.9-5.2,8.6-9.6C206.1,353.6,204.4,351.8,202.7,351.8z"/>
	<path d="M317.5,383.5c0.2,6.6-4.3,11.6-8.7,11.4c-3.6-0.1-4.7-2.6-4.8-5.7c-0.2-4.6,4.6-10.3,8.7-9.5
		C314.7,380.1,316.5,382.7,317.5,383.5z"/>
	<path d="M202.7,351.8c1.7,0,3.4,1.8,3.6,5.1c0.3,4.4-4.1,9.3-8.6,9.6c-3.6,0.2-5-2-5.2-5.1C192.1,356.8,196.4,352,202.7,351.8z"/>
</g>
</svg>
