<?xml version="1.0" encoding="utf-8"?>
<!-- Generator: Adobe Illustrator 26.0.0, SVG Export Plug-In . SVG Version: 6.00 Build 0)  -->
<svg version="1.1" id="Capa_1" xmlns="http://www.w3.org/2000/svg" xmlns:xlink="http://www.w3.org/1999/xlink" x="0px" y="0px"
	 viewBox="0 0 595.3 379.2" style="enable-background:new 0 0 595.3 379.2;" xml:space="preserve">
<style type="text/css">
	.st0{fill:#FFFFFF;}
</style>
<g>
	<path d="M473,104.7c-1.2-4.6-7.1-4.5-10.8-3.3c-1.5-6.9-6.8-11.5-13.3-6.6c-0.5,0.5-1.4,0.8-2,0.7c-5.5-2.5-9.7-0.2-12,5.2
		c-13.6-4.8-26.8-10-39.7-16.4c12-13.6,35.2-54.3,2.7-56.7c-23.9,3.5-41.3,24.5-50.2,45.7c-2.4-0.1-4.4-0.3-6.8-0.4
		c9.7-12.3,27.2-52,5-58.9c-6.4-3.1-13.6-1.8-19.7,1.6C316,21.2,311.8,32.4,305,41.1c-5.4,7-8.1,15.4-12.4,23
		c-4.9,9.7-11.4,18.9-14.5,29.6c-2.7,5.5-9,8.2-13.2,12.4c-1.3,1.1-2.5,2.6-4.6,1.7c-1.8,0.5-3.6,0.5-5.5,0.3
		c-8.7-0.1-7.2,19-2.9,23.7c-5.8,12.2-11,24.7-7.5,38.1c0.6,7-6.6,9.5-2.8,21.5c13.5,26.9,12.4-0.9,5.5,41.4
		c-4.5,2.6-9.4,3.9-14.1,5.8c-2.8,0.7-5.5,3.2-8.4,2c-3.5-2-7,0.8-9.9,2.5c-3.1,1.9-6.3-1-9.4-1.6c-2.2-0.7-4.4-0.7-6.2,1
		c-6.1,7.6,5,15.8,9,22c-21.4,8.7-42.2,19-64.6,25.3c0.2-4.5,3.6-7,4.1-10.9c-3.1-12.7,1.6-14.5-12.8-18.3
		c-17.1,17.9-14.1,43.7-3,63.9c13.7,22.5,45.7,22.4,66.2,9.7c-1.1,23.3,18.5,44.2,41.8,45c21.5,1.2,38.9-12.3,57.6-20.7
		c45.9-22.9,92.5-44.6,137.8-68.7c-0.5-3.2-0.9-6.3-1.4-9.3c-5.2-1-9.9-4.9-14.9-3.7c-6.8,3.4-13.6,6.4-20.8,9.3
		c-0.5-7.7-1.9-15-1.8-22.3c9.1-6.5,26.8-9.8,31.7-19.6c2.1-17-30.5,4-37,6.7c-2.7,1.5-5,1.6-7.9,0.6c-13.1-4.5-26.3-8.6-39.5-12.8
		c-0.6-5-1.2-9.7-1.8-14.2c16.1-7,11.7-19.1-4.8-11.3c-2.5-4.2-4.9-7.6-8.4-11c8-6.4,11.4-16.1,12.5-26c0.8-3.3-2.4-5.6-4-8
		c0.5-2.3,1.1-4.7,1.6-7.1c10.7,0,19.2-11.9,12.2-21.4c11.3-7.7,24.5-17.8,38.9-16.7c16.8,2.7,33.9,1.2,50.6-1.4
		c3.2,10.1,23.4,8.7,24-2.9C472.4,119.4,475,111,473,104.7z M170.9,322.4c-6.6,1.6-14.5,4-20.9,1.2c-4.9-6-8.6-12.9-8.6-20.7
		c7.8-3.2,48-17.2,50.7-17.6c0.7,2.4,0.7,2.6,3.3,3.3c7,1.5,4.5,13.7,6.3,19.3C192.1,314.2,181.9,319.2,170.9,322.4z M231.4,310.6
		c7.9-2.6,13.3-8.5,21.6-3.4c-11.3,5.6-22.6,10.5-34.3,15.6c0.2-3.6,3.6-4.6,3.4-7.9C225.1,313.2,228.2,311.9,231.4,310.6z
		 M215.5,299.8c-0.4-1.7-0.6-3.3-0.9-5.5c3.7,1.3,7.1,2.4,10.4,3.5c0,0.1,0,0.3,0,0.4C222.4,298.4,216.6,303.3,215.5,299.8z
		 M267.4,350.3c-19.9,10.2-47.8,24.8-50.2-9.6c19.9-5.5,37.8-15.3,56.8-23.2c1.4,9,2.8,17.7,4.2,26.4
		C274.5,346.1,271,348.3,267.4,350.3z M346,285.8c11.7-5.2,22.9-10.4,34.6-15.7c1.2,7.7,2.6,15.1,3.5,22.7
		c-30.6,14.9-61.2,29.5-92.1,43.9c-0.9-8.7-1.8-17.3-2.6-26C308.2,302.5,327.2,294.5,346,285.8z"/>
	<path d="M550.3,346.9c-26.3,7.9-51.7,21.8-78.8,24.9c-9.5-6.3-18.3-14-27.7-20.6c-3.5-3.7-13.2-8.4-14.2-12.8
		c4.4-41.6-8.8-35.7,28.3-49.6c-1.7-8.6,7.2-12.1,13.3-15.7c7.2-4.7,13.4-3,14.5,6c6.2-5.7,15.5-14.7,17.4-0.3
		c12-1.9,5.6,10.7,12.9,13.7c-0.5-25.5-1.7-51-1.3-76.6c10.7-1.6,20.8-6.5,30.6-9.7c13.5,5.8,26.8,12.2,39.1,20.3
		c7.3,4.7,4.3,34.1,6.5,44c1.4,25.5,4,51,4.2,76.5c-11.8,1.2-23.9,1.4-35.4,4.8C556.3,351.8,553.5,347.8,550.3,346.9z"/>
	<path d="M0.3,347.1c-1.1-17.9,1.9-34.8,1.7-52.6c0.5-6.6,0.2-13.2-0.1-19.8c-0.3-4.8,5.2-7,8.5-9.5c9.9-5.4,19.6-13.7,30.4-16.3
		c17.7,5.3,35.3,11.5,53.1,16.5c4.7,1.1,0.4,24.9,1.4,30.3c0.6,9.3-0.7,18.5-0.5,27.8c-0.7,3.8,1.1,8.6-1.5,11.7
		c-10.5,8.9-22.8,17.9-36.1,21.5C38,354.6,18.7,353,0.3,347.1z"/>
	<path d="M536.8,138.8c-15.5,13-19.9,11.1-12.6-8.4c-8.5-10.7-17.4-18.7,3.7-15.6c7.8-17,12.2-20.6,16,0.7c19.7-0.7,22.2,3,6.9,16.4
		C564.4,156.3,550.9,153.7,536.8,138.8z"/>
	<path d="M30.6,38.9c-0.1-4.5-3.3-19.7,5.3-15.2c3.9,2.3,6.9,9.2,11.2,9.5c18.3-9,10.9,3.9,6.6,14.4c12.4,16.3,9.1,19.8-9.5,11.9
		C34.5,78,22.6,84.1,28.7,56.9C10.1,47.9,11.6,44.4,30.6,38.9z"/>
	<path d="M219.5,11.1c0.3-12.2,3-15.4,10.1-3.5c11.6-5.2,14.6-3.1,8.3,8.6c13.9,12,5.4,13.2-7.3,8c-6.3,11.7-9.9,10.6-9.8-2.5
		C212.9,17.2,205.5,14,219.5,11.1z"/>
	<path d="M165.3,112.1c-1.5-8.8-3.8-16.5,7.2-7.8c9.6-7.2,14-7.8,9.2,5.6c11.6,5.7,11.8,9.1-1.3,11.9c-0.2,18-6.8,12.9-10.9-0.4
		C156.5,124,154.9,120,165.3,112.1z"/>
	<path d="M453.2,35.6c2.2,12.7-0.6,14.9-10.3,6c-14.7,10.8-14.2,1.7-6-9.1c-9.6-8.7-7.9-12.2,4.8-8.9c6-6.2,11.6-12.7,10.6,1.2
		C464.1,28.5,467.2,31.8,453.2,35.6z"/>
	<path d="M64.2,165.5c-3.6-6.3-7.3-12,3.5-8.3c6-8.6,8.6-9.6,9.1,2c10.7,1.3,11.1,4.3,2,9.8c4.8,14.3-2.1,12-8.7,2.6
		C60.6,177.3,58.5,175,64.2,165.5z"/>
	<path d="M447.3,179.4c5.4,9.6,3.7,11.6-6,6.3c-6.7,8.9-13.6,11.6-8.7-2.7c-15.8-10.5,0.7-7,2.3-11c0.3-2.5-0.7-6.5,2.2-7.6
		c2.7,0,3.7,3.8,5.4,5.5C444.8,173.9,456.9,163,447.3,179.4z"/>
	<path class="st0" d="M388.7,119.8c0.6-0.6,1.2-1.1,2.1-1.9c-8.5-0.5-35.3,13.6-41.2,20.3c-23.8-17.4-52.2-32.7-82.4-30
		c11.7-12,25.6-22.3,40.7-29.4c12.6-2.4,25.3-3.9,38.2-2.8c-18.7,44.1-31.4,25.7-0.5,54.3c17.1-13.4,34.7-26.1,48.2-43.3
		c15.2,7,30.6,13.7,46.8,18c2.6,1.3,2.7,5.1,5.8,6c0,1.8,0,3.5,0,5.7C428.4,123.3,407.4,124,388.7,119.8z"/>
	<path class="st0" d="M346.3,126.2c-6-5.2-11.7-10.1-17.4-15.1c16.7-21.1,22.2-49.8,43-67.7c26-24.8,53.7-13.1,32,22.4
		C391.3,91.3,368.9,109.7,346.3,126.2z"/>
	<path class="st0" d="M295.8,200.5c7.4-2.6,7.5-13.9-0.9-14.8c-8.2-0.7-16.6,3.1-24.3-1c0-1.3,0-2.8,0-4.3c3.3,1.5,9.5,2.4,10.3-2.3
		c-0.7-0.6-1-0.1-1.4,0.4c-4,4.5-10.6-0.5-13.8-3.8c-3.6-3.5,4.4-4.8,3.5-7.5c-8.2,3.6-6.2,8.5,0.4,12.8c-0.1,0.9-0.2,2.2-0.3,3.8
		c-4.1-2.5-6.4-6.6-11-7.7c-5.5-1.2-7.5,4.2-6.8,9.2c-4.2-7.8-5.4-17.5-5.7-26.2c0.6-11.2,6.8-21.9,12.3-31.4
		c21.7,1.2,43.7,5.7,62.7,16.8c4.8,3.1,16.9,8.5,16.2,14.8c-3.1,16.4-12.8,31.9-28.1,39.3c-17.4,9.3-46.8,10-55.8-10.6
		c6.8,11.3,30.9,19.1,42.6,12.7C295.4,200.5,295.6,200.5,295.8,200.5z M303.4,146.9c-20.8-0.4-23.3,23.1-11.1,25.2
		c5.6,0.4,11.4-1.3,16.9,0.3C330.4,174.4,322.2,145.7,303.4,146.9z M261.7,134.8c-8.2-0.3-14.1,10.1-9.8,16.5
		c4.2,4.5,10,8.7,16.2,9.6c6.8,0.5,13.8-6.2,10.1-12.9C274.9,141.4,270,134.6,261.7,134.8z"/>
	<path class="st0" d="M254.1,207.6c6.7,4,13.9,4.9,21.4,4.8c11.3,4.1,23.2,3.2,34.6-0.3c6.6-0.3,11.9-3.8,16.9-7.9
		c2.9,2.2,5,5.3,7.5,8.2c-7.8,10.1-18.4,18-31,20.7c-0.6-3,3.9-6.4,1.7-8.4c-0.8-0.3-1.2,0.2-1.4,0.8c-5,13.7-10.4,27.5-15.7,41
		c-5.8,2.4-28.5,0.6-24.9-8.8c4.3-12.3,9.6-24.1,13.5-36.5c0.3-2.1,3.1-4.8,1.6-6.8c-3,0.6-4.2,10.7-6.3,13.5
		c-4,9.2-6.3,19.1-10.5,28.2c-3.6,4.7-12.9-0.8-15.4-4.7C247.5,236.9,251.5,222.1,254.1,207.6z"/>
	<path class="st0" d="M338.4,72.7c-23.1-0.2-39,3.7-56.8,18.8c3.9-8.8,7.9-17.4,12.8-25.7c4.5-10.1,9.4-19.8,17.2-27.8
		c4.6-8.6,9.9-17.6,19.3-21.6c9.4-4.9,23.5,0.9,23,12.6c1.4,4.5-1.1,8.3-1.7,12.6C350.6,53,344.5,63.2,338.4,72.7z"/>
	<path class="st0" d="M220.3,305.2c2.1,13.6-2.9,10.9-4.5,20.9c-0.8,11.2-1.1,24.2,6.4,33.3c23.6,25.4,53-1.9,78-10.8
		c44.4-21.5,88-44.7,132.1-66.6c0.3,2.4,0.6,4.6,0.9,6.9c-40.8,21.1-82,41.3-123.3,61.4c-20.5,8.2-38.9,23.2-61,26.5
		C213.1,378.8,198.6,328.5,220.3,305.2z"/>
	<path class="st0" d="M339.8,159c-1.2-9-11.3-11.4-17.4-16.2c-16-11-35.3-15.3-54.3-17.1c-2.7,0.1-17-3.6-13.3,2
		c-0.2,0.3-0.5,0.9-0.9,1.5c-4.5-3.6-1.7-10.2-2.3-15.2c0-1.9,1.6-3.4,3.5-3.6c9.8,0.1,19.9-2.1,29.5,1.4c10.5,1.3,20.2,4,29.9,8.3
		c8,2.7,14.5,7.7,21.7,12c4.9,2.1,8.2,6.2,12.6,9.1C356.5,149.3,347.5,155.9,339.8,159z"/>
	<path class="st0" d="M384.2,295.2c4.7,5.7,16,2.3,13.8-5.8c0.2-3.6,11.7-5.6,14.8-7.7c6.9-3.8,9.9-3.4,17.5-0.9
		c-38,19.5-76.1,39-114.3,58c-16.6,7.8-32.6,16.3-49.5,23.6c-10.6,5.9-24.5,10.2-35,2.2c17-0.3,32.1-9.8,46.4-18.4
		c0.2,5.6,7,6.6,11.1,4.4c4.1-2.4,3-7.7,2.9-11.8C322.8,324.5,353.1,308.9,384.2,295.2z"/>
	<path class="st0" d="M306.7,288.1c-3.7-3.2-6.6-9-12.3-9.2c-1.1-3.1-3.3-5.2-6.3-6.6c1.1-5.2,5.2-9.1,8-13.5
		c1.5-1.7,2.3-4.6,4.7-5.2c15-3.9,29.9-9,39.4-21.9c0.4,7.7,2.6,20.3-2.7,26.4C325.1,265.9,318.2,279.3,306.7,288.1z"/>
	<path class="st0" d="M296.4,305.6c1.4-1.6,2.5-2.9,3.6-4.2c8.4,0.4,4.9-9.3,12.2-11.3c27.2-14.1,55.8-25.6,83.2-39.4
		c9.1-3.6,17.7-9.8,27.4-11.5c3.2-0.1,4.8,2.9,3.2,5.6c-1.6,3.4-4.6,4.3-7.7,5.7c-17.2,10.1-36.4,16-54.1,25
		C341.6,285.5,319.5,296.7,296.4,305.6z"/>
	<path class="st0" d="M254.9,288.3c-2.2,1.4-7.9,1.9-8.1,4.5c3,0.8,5.9-2.2,9-2.8c3.4-1.2,6.8-0.5,10.4-0.6c3.9,5.1,9.3,9,14.3,13.5
		c-3.4,1-6.7,3.8-10.1,3.5c-7.1-2.2-13.7-5.4-20.7-7.7c-17.7-6.9-35.6-13.7-53.5-20.3c6.3-2.6,12.2-4.9,18-7.4
		c4,3.6,8.1,3.7,14.1,0.3c3.9,1.6,3.9,1.6,8.9,0c-0.7,1.8-1.2,3.5-1.3,5.4c-0.5,0.4-1.1,0.9-1.7,1.4c0.3,0.3,0.5,0.6,0.6,0.5
		c1.9-0.3,3,0.9,4.2,2c3.7,3,8.2,1.2,12.5,1.4C252,284.7,252.7,286.2,254.9,288.3z"/>
	<path class="st0" d="M359.6,251.2c-3.7-1.4-13.6,7.2-19.2,7.2c3.9-5,2.6-11.7,3.4-17.7c14.1,4.7,27.4,9,41.7,13.2
		c-25.3,9.9-49.1,23-74.1,33.7c8.1-9,15.9-19,25.6-26.1C344.9,259.2,353.1,256.2,359.6,251.2z"/>
	<path class="st0" d="M143.1,267.6c0.3,0.4,0.4,0.5,0.5,0.6c5.9,18.6-5.2,15-4.2,34.3c5,35.9,31.2,34.8,58.9,23.5
		c-0.2,2.1-0.3,4-0.6,5.8c-3.6,3-8.7,4.4-13.1,6.2c-17.7,7.9-34.8,1.1-43.9-15.7C130.6,305.3,132.3,284,143.1,267.6z"/>
	<path class="st0" d="M336,170c3.8,2.3,2.9,6.3,2.7,10c-0.8,10-8,18.2-15.5,24.4c-8.8,7.3-41.4,13.2-48.3,2.9
		C301.3,208.5,327.7,196.5,336,170z"/>
	<path class="st0" d="M235.4,376.6c-36-5.5-45.1-48.5-25.2-75.3c2.9,0.6,5.6,1.2,8.6,1.8C200.7,325.8,206,366.5,235.4,376.6z"/>
	<path class="st0" d="M135.5,263.2c2.2,0.7,4.5,1.3,6.8,2c-15.9,23.8-11.8,59.1,13.7,74.3c-16.9-2.4-27.4-18.4-29.2-34.4
		C122.6,290.5,124.7,274.7,135.5,263.2z"/>
	<path class="st0" d="M217.1,339.1c-0.1-3-0.3-5.8-0.4-8.5c14.9-6.7,30.5-11.9,45.8-17.9c6-2.5,12-5.5,18.1-8
		c3.3-1.5,5.7,2.2,8.4,3.6C265,318.8,241.9,330.5,217.1,339.1z"/>
	<path class="st0" d="M451.6,108.4c-3.7-0.3-6.8-1.7-8-5.2c-0.2-0.8,0.8-1.7,1-2.4c-1.4-1.3-2-1.1-4.1,1.3c-1-0.3-2.1-0.5-3.2-0.8
		c0.7-4,5.2-6.3,8.6-4.2c1.1,0.7,1.9,0.6,2.9-0.1c6.4-5.3,11.7-1.2,10.8,6.6c4.2,1.1,11.2-3.5,11.8,3.5c0.8,6.6-1.9,11.5-9.1,8.6
		c-0.7,2.8,0.7,7-2.7,8.3c-5.5,2.7-14.6,4.1-17.1-3.1c4.3-3.1,14.2,0.5,14.4-5.1c-1.3-1.6-5.3,0.7-8-2.1
		C449.2,111.5,450.9,110.2,451.6,108.4z"/>
	<path class="st0" d="M209.1,266.4c1.1,0.8,2.1,1.6,3.5,2.6c-7.3,3.1-14,5.5-21,8.7c0.2,2.1,0.4,3.9,0.6,5.8
		c-16.9,5.9-33.6,11.9-50.9,17.3c0.7-9.5-0.3-9,9-11C170.4,283.4,189.5,274.1,209.1,266.4z"/>
	<path class="st0" d="M215,247.6c-0.4,0.6-0.6,0.9-1,1.4c7.7,1.8,10,8.4,13.2,14.6c2.8,4.4-1.9,7.1-5.7,7.9
		c-7.5,0.5-10.9-8.7-15.9-13C192.7,245,200,239.3,215,247.6z"/>
	<path class="st0" d="M275.8,316.4c3.9-1.6,7.8-3.3,11.9-5c1.4,11.3,2.5,22.6,2.9,33.9c-0.1,3.8-5,4.8-8.1,3.7
		C278.1,347.1,276.8,322.4,275.8,316.4z"/>
	<path class="st0" d="M293.5,292.7c1.2,4.9,6.6,5.2,4.6,7.7c-2.2,3-6.1,8.3-10.1,4.9c-3.3-3.6-26.7-17.9-20-22.3
		c7.1-2.4,13.5,1.9,20.3,3.7C289.4,288.9,290.4,291.8,293.5,292.7z"/>
	<path class="st0" d="M202.1,310.2c1.1,4.7-2.7,9.2-3.7,14.1c-14.5,3.3-31.9,13.8-45,1.6C171.1,326.6,186.8,318,202.1,310.2z"/>
	<path class="st0" d="M382.6,269.9c4-2,7.7-3.8,11.6-5.7c0.3,5.9,5.5,30.5-1.1,31.7c-2.2,0.6-5.6,0.4-6.7-2
		C385.1,285.9,383.2,277.9,382.6,269.9z"/>
	<path class="st0" d="M260.2,260.5c4.4,9.3,17,9.4,25.9,8.4c-0.5,1.7-0.9,3.1-2.8,3.5c-0.8,0.2-1.5,1.3-2.1,2.1
		c-1.3,1.8-3.1,2.1-4.6,4.3C265.2,280.7,249.9,273,260.2,260.5z"/>
	<path class="st0" d="M267.6,308c-1.8,1.8-3.3,1.2-5.1,0.5c-22.4-8.2-45.3-15.1-67.9-22.7c-0.3-1.8-0.6-3.6-0.9-5.5
		c7.8,1.2,14.1,5.2,21.2,8c6.6,2,12.9,4.5,19,7.5C245.4,299.5,256.5,303.3,267.6,308z"/>
	<path class="st0" d="M245.5,176.4c2.4,16.3,11.1,26,27,30.4c0.1,0.9,0.1,1.8,0.2,2.9c-17.6,2.6-37.1-15.8-27.6-33.3
		C245.2,176.4,245.4,176.4,245.5,176.4z"/>
	<path class="st0" d="M215.3,245.1c1.1-0.2,2-0.4,3-0.6c3-5.8,6.6,0.2,10.3,1.6c5.1,1.8,1.8,5.7,4.4,7.9c4.7,2.3,2,5.9,4.2,7.9
		c1.1,0.5,1.4,1.5,1.3,2.6c-0.1,1.7-2.1,1.8-2.2,3.6c-0.5,2-3,1.9-4.7,2.1c-3.7,0.3,0.2-7.7-3.9-9.8c-2.1-4.4-4.1-9.4-9.2-11.5
		C216.6,248.2,216.9,246.4,215.3,245.1z"/>
	<path class="st0" d="M289.3,284.5c-3.3,0.4-5.3-1.2-8.1-2.4c-2.8-1.1-2.8-4.2,0.8-3.8c0.4-2.1,1.2-4.4,3.8-3.6
		c3.5-1.4,6.3,2.9,6.9,5.9c7.8,0.7,19,12.7,8.9,18.3c-0.7-0.8-0.7-0.8-1-3.4c-3.6,0.4-3.9-2-5.7-4.8
		C291.6,290.9,290.7,286.8,289.3,284.5z"/>
	<path class="st0" d="M262.4,310.5c-2.1,1.6-41.5,17.3-45,17.9c-0.5-2-0.3-2.7,1.5-3.5c8.2-3.9,16.4-7.7,24.6-11.6
		C250.8,310.3,254.4,306.1,262.4,310.5z"/>
	<path class="st0" d="M234.1,252c0.3-4.7-2.7-7.1-6.8-9c6.1-3,12.4-4.7,18.6-7.1c-0.5,4.6-0.5,9.3-2.4,13.1
		c-3.7,3.9-3.7,11.6-0.4,15.9c-0.6,0.2-1.1,0.4-1.6,0.6c0-2.3-1.1-3.9-2.2-5.8C239,256.2,237.5,253.6,234.1,252z"/>
	<path class="st0" d="M220.6,301.3c7.7-4.1,15.7-0.2,23.1,2.4c-2.3,1.6-18.7,8.2-21.4,8.6C221.8,308.5,222.5,304.8,220.6,301.3z"/>
	<path class="st0" d="M295.8,200.5c-8.1,2.3-16,1.8-24.1-0.9c1.1-2.7,11.8-8.7,11.7-3.4C287.2,191.8,295.4,195.1,295.8,200.5z"/>
	<path class="st0" d="M243.9,252.3c3.5,4.4,7.9,6.8,13.3,7.4c-0.9,3.2-1.7,6.1-2.6,9.5C245.9,269.4,239.8,260.1,243.9,252.3z"/>
	<path class="st0" d="M244.7,267c2.5,2.4,5.5,3.5,8.8,4.2c-2.9,2-1.5,5-2.2,7.8C238.9,282.5,232,274.1,244.7,267z"/>
	<path class="st0" d="M213.2,293.9c0.2,2.1,0.4,4.1,0.7,6.3c-1.6-0.3-2.9-0.5-4.4-0.8c-1.9,3.1-3.8,6.2-5.8,9.6
		c-1.7-6.4-1.7-12.1-2.5-18.7C205.3,291.6,209.1,292.7,213.2,293.9z"/>
	<path class="st0" d="M257.4,275.1c2.4,2.9,5.7,4.5,9.1,5.9c-2.6,2.5-2.6,2.5-2.1,6.1c-2.1,0-4.2,0.3-6.3-0.1
		C252.6,285.9,252.3,277.5,257.4,275.1z"/>
	<path class="st0" d="M341.6,222c-1.2-2.6-2.3-4.8-3.4-7.1c3.2-1.3,11.5-6.1,11.9,0.2C350.2,220,345.2,220.5,341.6,222z"/>
	<path class="st0" d="M273.6,187.5c2.3,0.7,6.5-0.3,7.5,1.7c0,0.9-0.6,1.2-1.4,1.1C277.9,189.5,272.4,190.5,273.6,187.5z"/>
	<path class="st0" d="M268.9,187.6c-1.8-1.4-5.9-2-4.1-5c1.4,0.9,2.8,1.8,4.1,2.7C269.5,185.7,269.4,185.7,268.9,187.6z"/>
	<path class="st0" d="M296.5,254.5c-0.8,1.3-1.5,2.3-2.4,3.7C294.4,255.4,294.7,254.8,296.5,254.5z"/>
	<path class="st0" d="M255.9,273.4c-0.4,0.2-0.9,0.4-1.4,0.6c0-0.2-0.1-0.4-0.1-0.4c0.4-0.3,0.8-0.5,1.3-0.7
		C255.8,273.1,255.9,273.3,255.9,273.4z"/>
	<path class="st0" d="M586.3,231.5c1,17.2,3.2,33.9,3.5,51.1c-9,4.5-18.4,6.8-28.5,6.3c0-16.6,0-32.9,0-49.3
		C569.5,237,578.1,235.1,586.3,231.5z"/>
	<path class="st0" d="M591,302.2c0.9,3.9,2,38.6,1.3,41.7c-10.3,1.5-20.8,1.8-31.2,4.6c0-14.1-0.2-27.6,0.2-41.6
		C571.3,305.3,581,303.4,591,302.2z"/>
	<path class="st0" d="M502.1,322.1c3.4,12.7,3.3,25.5,3.2,38.5c-10.5,2.8-20.4,6.9-31,9.3c-2.4-12.7-1-24.9,1.5-37.3
		C476.7,328.1,496.6,325.9,502.1,322.1z"/>
	<path class="st0" d="M524.7,353.4c-2-11.9-2.7-23.4-3.3-35.3c6.4-3.2,13.3-6,20.6-8.4C546.2,350.7,559.1,342.4,524.7,353.4z"/>
	<path class="st0" d="M508,359.3c-1.2-13.4,3.9-36.9-9.8-44.3c-0.1,0-0.1-0.1-0.2-0.3c8.7-2.9,10.9-7.1,18.5,0.6
		c1.9,1.7,2.7,4,2.8,6.6c0.4,10.7,0.7,21.5,2.9,31.9C517.5,355.6,512.8,357.4,508,359.3z"/>
	<path class="st0" d="M454.9,357.1c-16.4-8.4-10.1-11.4-9.9-26.8c-0.1-20.8-2.5-19.5,18.3-24c1.4,2.3,2.7,4.4,4.1,6.7
		c-7.6,2.4-12.7,7-11,15.5C456.8,338.1,455.3,347.5,454.9,357.1z"/>
	<path class="st0" d="M558.8,287.5c-2.3-1.2-4.3-2.3-6.2-3.3c0-2.3,0-4.5,0-6.7c-2.4-0.7-4.7-0.1-7.1,0.9
		c4.4-8.2,10.8-18.9-1.4-23.3c-0.1-7.7,0.9-14.6-0.5-22.2c4.5,2.1,8.5,4.7,13.3,5.8c1.3,0.3,2.1,0.9,2.1,2.4
		C559.3,256.7,559.5,271.8,558.8,287.5z"/>
	<path class="st0" d="M456.7,358.2c0.4-8.6,1.6-17.6,2.5-26.3c0-3.9-1.3-7.5,0.3-11.3c3.9,2.7,13.4,6.9,13.4,11.8
		c-3.2,12-0.4,24.5-1.2,36.6C466.4,365.9,461.8,361.9,456.7,358.2z"/>
	<path class="st0" d="M517.6,219.1c1.8,0,3.1,0.9,4.2,1.9c2.9,2.9,8.6,2.6,8.6,7.6c0.6,8.3-0.1,16.6,0,24.9
		c-8.5,1.7-6.3,10.5-4.5,16.7c-3.1-1.6-7.2-2.4-8.3-5.9c0-14.8-0.2-29.7,0-44.5C517.5,219.7,517.6,219.5,517.6,219.1z"/>
	<path class="st0" d="M488,294.8c-1.6-0.5-3.1-0.9-4.5-1.4c2.2-12.6,1.6-12.4,12.8-19.7c3.5-1.5,4.1,4.3,3.8,6.7
		c-0.2,1.4,0,1.7,1.4,1.7c2.7,0.1,6.3-1.9,7,1.8c6.2,13.5-6.8,24.7-19.7,18.5c0.6-1.7,1.4-3.2,0.9-5c-0.1-0.2,0.1-0.5,0.3-0.7
		c3.4-4.1,7.1-9.9,13.4-8.3c-0.3,6.1-4.6,11.9-11.1,9.1c6.3,6.8,13.8-2.9,13.5-9.6C501.4,281.4,490.2,288.9,488,294.8z"/>
	<path class="st0" d="M558.1,348.3c-2.5-1.2-5.4-1.9-7.3-3.8c-2.5-8-3.8-16.9-5.9-25.2c-2.8-7.2,6.1-9.2,10.4-13.3
		c-0.2-0.6-0.4-1.4-0.8-2.6c1.6,1.4,4,1.6,4.3,3.6c-0.5,5.7,0.8,11.4,0.1,17.1C558.4,332.1,559.6,340.4,558.1,348.3z"/>
	<path class="st0" d="M561.1,304.3c0-4.6,0-8.7,0-13c10.3,0.4,19.2-2.3,28.7-6.3c0.7,5,0.7,9.9,1.2,14.9
		C581,301.7,571.1,302.8,561.1,304.3z"/>
	<path class="st0" d="M433.2,303.5c3.8,2.4,7.2,4.7,10.8,7.1c-2.7,11.6-0.3,23.8-2.4,35.6c-2.6-1.7-10.5-6.2-9.9-9.4
		C432.3,325.7,432.2,314.6,433.2,303.5z"/>
	<path class="st0" d="M434.5,300.5c7.3-5.3,16.1-7.3,24.4-10.6c3.3,5.3,8.1,8.6,13.6,11.3c-4.9,0.4-9.3,0.9-13.4,3.6
		c-5.1,1.3-9.6,2.1-14.6,4.1C440.8,307.2,437.8,303.8,434.5,300.5z"/>
	<path class="st0" d="M460.2,319.5c2.4-3.2,5.9-4.1,8.9-5.4c5.9,4.1,11,1.1,14.7-4.2c5.9,13.3,8.9,0.1,17,10.6
		c-8.2,2.6-16.5,5-24.7,7.5c-1.2,0.4-2,0.4-3-0.5C469.2,324.3,464.9,321.5,460.2,319.5z"/>
	<path class="st0" d="M584.8,230.1c-7.6,2.5-14.8,4.5-22.3,6.9c-6.2,1.3-11.3-3.5-17.2-5.7c9.3-3.4,18-7.8,27.9-8.8
		C578.1,222.6,581,227.1,584.8,230.1z"/>
	<path class="st0" d="M538.7,308.6c-6.2,3.3-12.8,4.3-18.6,7.5c-4-5.9-10.7-5.1-13.8-11.8C518.1,289,526.1,303.9,538.7,308.6z"/>
	<path class="st0" d="M479.7,294.2c-1.2-6-5.6-14-12.7-9.6c1,0.5,1,1.3,1,2.3c0.2,3.2,1,7,4.3,8.3c-0.4-3.6-2.3-6-1.3-9.6
		c4.8,0.6,5.1,6.9,5.7,10.6c-1,1.1-1.8,2.2-2.8,3.3c-18-11.2-15.7-19,3.3-26.1c5.9-1.7,5.3,6,5.3,9.7
		C481.6,286.1,483.2,293.2,479.7,294.2z"/>
	<path class="st0" d="M542.2,277.8c5.1-24.7-13.2-14.3-7.8,3.3c-4.4-0.9-12.8-25.4-3.2-24.7c2.2-0.3,4.3,0.5,6.5-0.7
		c0.6-0.4,1.6-0.3,2.4-0.1c13.9,2.8,9.5,14.4,2.6,22.3C542.5,277.9,542.3,277.8,542.2,277.8z"/>
	<path class="st0" d="M519.5,217c8.1-2.5,16.4-5,24.1-8.7c4.5-0.5,8.4,3.4,13.1,4.8c-7.4,5.1-15.8,6.9-24,10.2
		c-4.9,0.8-9.1-4-13.4-5.8C519.4,217.3,519.5,217.2,519.5,217z"/>
	<path class="st0" d="M534.9,225.5c8.3-4.3,16.4-6.5,24.4-11.6c3.8,1.9,7.7,4,11.6,6c0,0.2,0,0.3,0,0.5c-7.6,2.5-15.7,3.9-23.1,7.1
		C541.6,230.7,540.2,229.1,534.9,225.5z"/>
	<path class="st0" d="M532.4,227c3.2,2.6,8.8,2.8,9.3,7c0.3,6.6,0.9,13.1,0.2,19.7c-1.9-0.1-3.8-0.9-5.5-0.1c-1.3,1.2-2.5,0.5-4-0.1
		C532.6,244.4,532.9,236.3,532.4,227z"/>
	<path class="st0" d="M544.5,311.4c-4.2-12.7-11,2.1-4.1-20.5c6.4,2.3,10,8.1,12.1,14.2C549.8,307.3,547.2,309.3,544.5,311.4z"/>
	<path class="st0" d="M532.3,282.7c0.9,0.7,1.7,1.2,2.5,1.9c-2,2.8-4.1,15.9-8.6,10c-4.2,1.2,1.7,5,3.7,3.6
		c3.7-2.5,5.7-7.3,6.3-11.7c0.2-1.7,0.4-1.8,2.2-1.3c-0.1,6.2-1.5,12.1-5.1,17.4c-4.4-1.9-8.1-4.5-12.1-7.1
		C523.7,290.3,527.1,285.9,532.3,282.7z"/>
	<path class="st0" d="M517.7,267.9c7.1,4.1,10.3,4.9,13,13.2c-1.9,1.6-3.9,3.3-5.8,4.9c-2.1-1.4-6.1-1.3-6.9-3.8
		c-0.1-4.6-0.3-9.2-0.5-13.8C517.4,268.3,517.5,268.2,517.7,267.9z"/>
	<path class="st0" d="M482.1,307.2c-3.9,10.2-14.2,7-16.1-2.4c2.7-0.7,5.4-1.5,8.2-2.2C476,305.1,479,306.1,482.1,307.2z"/>
	<path class="st0" d="M550.3,279.8c0.5,5.1,1,10,1.5,15.2c-3.8-2.1-7.2-4.4-10.8-6.3c0.3-1.8-0.6-4,0.5-5.4
		C544.1,281.6,547.2,280,550.3,279.8z"/>
	<path class="st0" d="M487.9,303.7c5,2.8,10,4.2,15.8,2.2c0.5,0.7,1.1,1.6,1.8,2.7c-4.2,0.6-16,8.3-17.6,3.1
		C486,309.1,485.8,306.4,487.9,303.7z"/>
	<path class="st0" d="M551.2,296.7c1.3,0.7,2.6,1.3,3.9,2c-1.4-3.8-1.9-7.6-2.4-11.7c8.6,1.2,5.6,10.1,6.3,16.4
		C555.5,301.6,552,300.9,551.2,296.7z"/>
	<path class="st0" d="M539.9,265.5c3.2,4.5-0.7,10.2,0,15.2C535.3,287.1,533.5,265.4,539.9,265.5z"/>
	<path class="st0" d="M484,305c-7.3-1.4-11-5-2.4-8.7C489.4,295.4,487,300.6,484,305z"/>
	<path class="st0" d="M518.3,285.5c1.9,0.8,3.4,1.4,5.2,2.2c-1.5,2.3-2.9,4.3-4.2,6.4c-0.1,0-0.2,0-0.4,0
		C518.7,291.2,518.5,288.5,518.3,285.5z"/>
	<path class="st0" d="M516.3,294.9c-1.5,0.7-2.6,1.2-4,1.9c0.3-1.6,0.5-2.9,0.8-4.4C514.4,292.8,515.1,293.9,516.3,294.9z"/>
	<path class="st0" d="M1.9,345.6C2.5,333,3,320.5,3.5,307.7c6.5,1.3,12.3,4,18.9,4.9c1.6,0.5,1.5,0.5,1.7,2.3
		c-0.3,11.9-1.1,23.6-2.2,35.5C15.2,349.1,8.6,347.8,1.9,345.6z"/>
	<path class="st0" d="M36.3,316.8c6.4,1.3,11.7,4.4,17.8,6.2c1.4,0.4,3,0.8,2.8,2.6c0.2,9.6,0.9,19.2,0.8,28.7
		c-6.5,0.2-13.1-1.1-19.6-1.7c-1.7-0.2-1.8-0.3-2-2C35.3,339.3,34.8,328,36.3,316.8z"/>
	<path class="st0" d="M79.5,277.5c0.8,21,1.5,41.9,3.3,62.8c-3.5,3-7.4,5.3-11.6,7.7c-0.9-15-0.2-30.3-1-45.3
		c-0.2-6.2-0.5-12.5-0.2-18.7C71.5,280.6,76.3,280.1,79.5,277.5z"/>
	<path class="st0" d="M28.7,281.3c3.3,1,6.3,2,9.4,2.9c-3.7,22.6-5.7,44.9-3.7,67.8c-3.4-0.2-6.8-0.7-10.2-1.3
		C25.2,327.5,27.5,304.4,28.7,281.3z"/>
	<path class="st0" d="M25.8,295.6c-7.4-2.1-14.7-4.1-21.9-6.2c0-5.6,0-10.8,0-16.3c7.6,2.5,15.2,4.9,22.6,7.3
		C26.8,282.1,26.3,293.8,25.8,295.6z"/>
	<path class="st0" d="M37.6,301c0.7-5.5,1.4-10.9,2.1-16.3C60.8,290.5,57,285,56.5,307C50.2,305,44.1,303,37.6,301z"/>
	<path class="st0" d="M25.6,297.7c-0.5,4.7-0.9,9-1.4,13.5c-7.1-1.3-13.8-3.5-20.5-5.3c0-4.9,0-9.6,0-14.6
		C11.3,293.2,18.3,295.1,25.6,297.7z"/>
	<path class="st0" d="M68.6,319.3c0.2,10.3,0.5,20.2,0.7,30.1c-2.9,2.3-6.6,2.8-9.5,4.8c-0.2-0.2-0.3-0.3-0.3-0.3
		c-0.1-9.4-0.4-18.9-0.8-28.3C59.6,322.7,65.9,320.9,68.6,319.3z"/>
	<path class="st0" d="M44.8,266.3c3.7-2.3,19-7.7,16.3,1.1c-0.5,0.8-1.1,1.1-2,0.6c-3.1-1.4-6.4-3.8-9.9-1.9c-1.8,1-1.9,2.2-0.1,3.1
		c5.4,4,10.9-0.5,13.6,2.8c1.8,4.2-4.5,2.4-6.6,1.9c-3.3-0.2-4.3-4.9-8.1-3.9c-0.2,3.7,5.5,3.1,5.8,6.3c0.3,1.9-1.8,4.2-3.7,4.1
		c-4.4-1.4-2.8-7.7-4.6-11.2c-0.9,0.4-0.9,1.1-1.1,1.8c-1.2,5.8-6.7,7.7-11.6,6.2c0.1-5.9,6.2-5.1,9.1-8.2c-3.5-1.9-6.3,2.1-9.6,0.7
		c-1.7-0.1-2.2-2.4-0.6-3.3c0.7-0.4,1.4-0.7,2.2-0.1c7.7,3.4,10.8-3.9,0.3-2.6C34.6,255.3,43.2,262.6,44.8,266.3z"/>
	<path class="st0" d="M4.7,271.3c11.8-7,11.5-12.9,24.7-4.9c-0.9,3.1-0.6,3.6,3.9,5.5c-1.8,2.1-1.8,5.5-4.4,6.7
		c-1.1,0.7-2.1,0.4-3.1,0.1C18.6,276.2,12.1,273.8,4.7,271.3z"/>
	<path class="st0" d="M56.7,322c-6.9-2.5-13.7-4.9-20.6-7.4c0.5-3.9,0.9-7.6,1.4-11.6c6.6,1.2,12.8,4.5,19.2,6.2
		C56.7,313.4,56.7,317.6,56.7,322z"/>
	<path class="st0" d="M84.5,339.2c-0.6-8.6-1.1-17.1-1.7-25.7c3.4-2.5,6.9-4.9,10.6-7.6c0.1,8.9-0.7,17.4-1.3,26.2
		c-1.3,2.8-4.8,4.5-6.9,6.8C85.2,339,84.9,339,84.5,339.2z"/>
	<path class="st0" d="M82.1,295.4c0-6.5,0-12.9,0-19.5c3.7-2.2,7.6-4.5,11.7-6.9c0.2,5.3,0,10.7,0.2,15.9c0.1,3.2,0.1,3.7-2.8,5
		C87.8,291.3,85.4,294,82.1,295.4z"/>
	<path class="st0" d="M58.5,307.1c-0.1-5.9,0.2-10.9,0.2-16.6c0.8-3.7,6.2-4.2,9.1-6.6c0.9,5.5,0.4,11.2,0.7,16.8
		c0,1.9-0.1,1.8-2,2.6C63.6,304.5,61.3,305.6,58.5,307.1z"/>
	<path class="st0" d="M92.2,267.2C78,277.3,79,273.3,63.1,269C77,260.7,77.3,262.3,92.2,267.2z"/>
	<path class="st0" d="M62.3,257.6c-4.1,2.9-8.3,3.1-13,3.6c-5.8-2.2-11.3-4.2-17.1-6.8c3.2-1.2,5.7-4,9-3.5
		C48.4,253.1,55,255.1,62.3,257.6z"/>
	<path class="st0" d="M82.6,311.3c-0.2-4.8-0.3-9.2-0.5-13.6c3.9-2.5,7.6-4.9,11.4-7.3C94,304.8,94.9,303.7,82.6,311.3z"/>
	<path class="st0" d="M68.4,304.7c-0.6,12.5,3.4,12.1-9.4,17.3C58.3,310.1,55.7,308.9,68.4,304.7z"/>
	<path class="st0" d="M66.1,282.2c-8.3,8.4-14.2,3.5-24.1,1.3c1.4-1.6,3.1-2.1,4.6-3c2.5,2.9,6.5,1.6,8.1-1.9
		C58.5,279.8,62.1,281,66.1,282.2z"/>
	<path class="st0" d="M54.8,275.3c4.2,1.3,11.2,2.4,8.9-4.2c4.9,0.9,9.2,3,14.2,4.2c-4,2.1-7.8,7.1-12.5,5.1
		C62.7,278.2,55.2,278.5,54.8,275.3z"/>
	<path class="st0" d="M32.6,264.3c-2.4,2-8.4-2.8-11.5-3.6c5-3.2,8.8-7,14.6-3C33.3,259.4,32.6,261.8,32.6,264.3z"/>
	<path class="st0" d="M73.6,261.4c-3.5,1.9-6.9,3.7-10.6,5.7c-0.1-2.7,0.4-5.3-3.1-6.4c4.5-3.5,8.3-1.3,13,0.1
		C73,261,73.2,261.2,73.6,261.4z"/>
	<path class="st0" d="M45.1,275.5c0.3,1.1,0.5,2.1,0.8,3.2c-6.1,4.6-8.5,3.5-15.4,1.5C33.2,277.4,38.7,282,45.1,275.5z"/>
	<path class="st0" d="M58.2,269c-2.7,1.3-7.1,0.4-8.9-1.7C52.7,265.7,55.3,267.9,58.2,269z"/>
	<path class="st0" d="M43.5,261.2c1.2,0.4,2.3,0.8,3.8,1.4c-0.8,0.5-1.3,0.8-1.9,1.1c-0.7-0.8-1.4-1.5-2.1-2.2
		C43.4,261.5,43.5,261.4,43.5,261.2z"/>
	<path class="st0" d="M35,265.4c1.6-0.7,2.8-0.3,4.2,0.4C37.7,266.5,36.8,266.4,35,265.4z"/>
	<path class="st0" d="M559.1,119.1c-2.4,4.6-6.2,8-10.1,11.5c-3.4,1.1,7.5,13,5.9,18.1c-5.5,0-13.5-7.7-18.2-12
		c-4.5,3-8.8,6.7-13.8,9.3c-2.4-5.5,5.4-15.9,2.5-17.1c-2.1-2.7-9.7-9.9-8.9-13c18.5,1.7,10.3,0,20.6-14.1c4.2,2.1,3.9,8.6,4.5,12.8
		C540.6,118.6,555.8,115.9,559.1,119.1z"/>
	<path class="st0" d="M16.9,46.8c2.4-4,17.8-5.9,15.5-9.4c-0.6-4.3-2.6-10.1,0.6-13.6c4.6,2,9.5,12.3,14.5,11.2
		c1.9-0.2,10.3-5.8,9.9-1.9c-1.8,5.2-3.5,9.9-6,14.9c3.1,4.1,6.9,8.2,8,14.2c-5.7-0.9-10.7-3.5-16.3-5c-3.3,6.4-7.1,13.7-13.8,17
		c-1.7-5.5,1-11.1,1.6-16.6c0.4-1.9,0.5-1.8-1.2-2.6C25,52.8,20.4,50.6,16.9,46.8z"/>
	<path class="st0" d="M222.2,0.7c2.8,1.6,3.7,4.2,5.3,6.7c1.4,3.9,8.5-2.2,12.1-0.9c-0.5,3.8-2.2,6.9-3.8,10.3
		c3,2.7,6.5,4.9,8.7,8.9c-5.3,0.3-9.7-1.2-14.1-3.4c-2,3-4,6-6.3,9.3c-2.1-3.6-1.5-7.2-1.7-10.4c-3.1-2.4-7.3-3.6-9.5-6.4
		C224.1,11.6,219.9,10.3,222.2,0.7z"/>
	<path class="st0" d="M181.9,99.8c1,1,0.8,2,0.5,2.9c-0.1,2.5-3.5,5.9-1.4,7.8c2.8,2.1,6,3.1,7.9,6.4c-3.1,2-6.7,2.6-10.3,3.6
		c-0.2,4,0.5,8.1-1.3,12.2c-3.9-3.6-4.8-8.1-6.6-12.9c-3.5,0.3-7.1,0.7-11.1,1c1.6-3.8,4.5-5.7,7.2-8.1c-1.1-3.6-1.3-7.3-1.8-11.4
		C175.6,107.7,171.3,105.4,181.9,99.8z"/>
	<path class="st0" d="M450.4,17.6c0.2,11.2,2.4,8,11.2,12.2c-1,1.8-1,1.8-9.1,4.3c-0.6,3.7,0.8,7.6-0.6,11.6c-3.5-1.6-6.2-4-9-6.4
		c-3.4,2.3-6.3,5.1-10.4,6.1c-0.3-2.7,1.1-5.4,6.4-12.8c-2.4-2.6-4.8-5.3-7.3-8.1c3.1-1.6,6.2,0.2,9.4,0.6c2.3,0.5,6.5-6.1,9-7.7
		C450,17.5,450.2,17.6,450.4,17.6z"/>
	<path class="st0" d="M84.3,162.6c-2.1,2.7-4.8,4.1-7.3,5.9c1,3.2,2.6,6.2,2.3,10c-3.8-2.1-6.3-5-8.4-8.6c-2.8,1.3-5.5,2.5-8.5,3.9
		c0.1-3.4,2-5.7,3.3-8c-1.5-2.8-2.9-5.5-4.3-8.2c0.1-0.1,0.2-0.3,0.3-0.4c8.8,3,7.3-0.6,12.7-6C76.9,163.3,72.1,158,84.3,162.6z"/>
	<path class="st0" d="M445.8,179.6c1.4,2.5,3.1,4.7,3.3,8c-3-1.1-5.6-2.6-8.3-3.7c-6.3,7.3-6.3,7.3-8.5,8.1
		c-0.5-3.4,1.3-6.3,2.2-9.6c-2.4-1.7-5.1-3.2-7.2-5.7c2.7-2.1,6.1-1.7,8.8-3.1c0.5-2.8-0.2-5.8,1.1-8.2c6.3,4.5,2.8,9,12.6,5.7
		c0.1,0.1,0.2,0.2,0.3,0.4C448.8,174.5,447.4,176.7,445.8,179.6z"/>
	<path class="st0" d="M305.1,147.9c12.6-1.2,23.5,20.7,7.1,24c-8.3-3.2-22.5,4-25.6-5.8C282.9,154.3,293.9,146.7,305.1,147.9z
		 M304.2,158.4c-0.1,0-0.1-0.1-0.2-0.1c-0.7-5.6-5.1-2.2-4.1,2C301.1,163.7,303.9,160.6,304.2,158.4z"/>
	<path class="st0" d="M251.7,146.4c-0.4-11.9,15.8-14.2,21.8-4.3c2.5,3.5,6.3,7.7,4.3,12.3C272.9,166,251.8,156.5,251.7,146.4z
		 M268.8,150.7c0.1,2.2,1.3,4.5,3.4,2.7C275.7,149.7,270.2,144,268.8,150.7z"/>
</g>
</svg>
