<?xml version="1.0" encoding="utf-8"?>
<!-- Generator: Adobe Illustrator 26.0.0, SVG Export Plug-In . SVG Version: 6.00 Build 0)  -->
<svg version="1.1" id="Capa_1" xmlns="http://www.w3.org/2000/svg" xmlns:xlink="http://www.w3.org/1999/xlink" x="0px" y="0px"
	 viewBox="0 0 595.3 700.1" style="enable-background:new 0 0 595.3 700.1;" xml:space="preserve">
<style type="text/css">
	.st0{fill:#FFFFFF;}
</style>
<g>
	<path d="M375.2,604.7c-0.3,0.9-0.5,1.6-0.7,2.3c-2.7,10.9-8.8,19.5-17.7,26.3c-6.6,5-14,8.5-21.6,11.5
		c-16.3,6.3-33.2,10.2-50.6,12.5c-21.1,2.8-42.4,3.1-63.6,2.6c-9.9-0.2-19.9-0.5-29.8-0.9c-2.2-0.1-3.3,0.7-4.2,2.7
		c-9.7,21.1-26,33.9-48.9,37.4c-20.3,3.2-38.6-1.8-53.4-16.6c-9.1-9.1-14-20.5-15.9-33.1c-0.6-3.8-0.7-7.6-0.7-11.5
		c0-2.9-1-5.1-3.2-7c-14.8-12.1-22.3-28-23.6-46.9c-1.1-15,1.3-29.6,6.3-43.7c1.3-3.7,3.2-7.2,5.3-10.5c3-4.5,7.5-7,13.1-7.3
		c0.7,0,1.4-0.2,2.5-0.3c-0.3-0.8-0.5-1.5-0.9-1.9c-0.6-0.6-1.3-1.2-2-1.4c-6.7-2.1-9.2-7.3-10.3-13.6c-1.1-6.7-0.9-13.4,1.4-19.9
		c1.8-5.1,3.4-10.2,5.2-15.5c-1.3-1-2.6-1.9-3.8-2.9c-15-11.3-28.5-24-39.7-39.2c-7-9.6-13.1-19.7-16.5-31.2
		c-1.3-4.2-2.4-8.4-1.7-12.8c1.5-10.1,10.9-16.4,20.8-14c4.1,1,7.7,2.9,11.2,5.2c11.1,7.2,20.6,16,28.6,26.5c0.8,1.1,1.6,2.1,2.9,3
		c-0.3-0.7-0.6-1.5-0.9-2.2c-3.4-8-6.8-16-8.5-24.6c-0.7-3.7-0.9-7.4-0.1-11.1c2.6-11.5,15.3-18,26.3-13.5c3.9,1.6,7.3,4,10,7.2
		c2.9,3.4,5.7,6.9,8.1,10.6c14,21.8,23.6,45.3,28.2,70.9c0.9,5,3.1,9.2,6.9,12.5c4,3.5,7.8,7.1,11,11.4c0.7,1,1.5,1.6,2.9,1.3
		c10.4-2.3,20.4-0.4,30.1,3.3c4.5,1.7,8.8,4.1,13.1,6.4c3.3,1.9,6.6,2.3,10.5,0.8c-1-1.6-1.9-3-2.9-4.5c-3-4.4-4.4-9.1-3.3-14.4
		c1.2-6,4.8-10,10.7-11.8c4.5-1.4,9-1.2,13.5-0.4c4.1,0.8,8.1,1.6,12.6,2.5c-1-5.3-0.2-10.9-4.3-15.2c-2.3-2.4-2.6-5.3-2.6-8.4
		c0-9.2-0.1-18.5-0.1-27.7c0.1-8.5,0.1-17,0.6-25.5c0.9-15,4-29.8,8.1-44.3c4.2-14.9,8.9-29.6,15.7-43.5
		c5.1-10.4,11.4-19.9,19.1-28.6c5.4-6,10.2-12.5,15-19c1.6-2.2,2.6-4.9,3.8-7.4c0.7-1.6,0.4-3.2-0.8-4.3c-5.1-4.8-6-11.2-6.6-17.6
		c-1.3-13.1,1.2-25.4,8.9-36.3c1.4-1.9,1-3.6,0.2-5.5c-4.9-11.9-9.9-23.7-14.5-35.7c-7.2-19-12.5-38.6-15.7-58.8
		c-1.7-11-2.8-22-2.6-33.1c0.1-6.9,1.2-13.7,4.2-19.9c1.2-2.5,2.7-4.9,4.4-7.1c2.9-3.6,7-4.8,11.5-4c7.8,1.4,14,5.6,18.9,11.6
		c6.1,7.5,10.1,16.1,13.1,25.3c3.3,10.3,5.2,20.9,6.8,31.6c2.9,19.2,4.5,38.5,5.1,57.9c0.1,3.3,0.1,6.6,0.2,9.9
		c0,1.2,0.2,2.4,0.4,3.9c3.1-0.5,5.9-1,8.7-1.4c3.5-0.4,7-0.7,10.5-1c2.4-0.2,2.9-0.5,3-2.9c0-0.7-0.1-1.4-0.2-2.2
		c-1.7-13.6-3.6-27.1-5-40.7c-1.7-17.3-2.2-34.8-1.1-52.2c0.7-10.3,1.7-20.4,3.9-30.5c0.6-2.6,1.5-5.2,2.6-7.6
		c2.4-5.3,6.7-8.1,12.3-8.8c2.5-0.3,5.2-0.2,7.8,0c3.4,0.3,6.3,1.8,8.6,4.5c3.5,4,6.3,8.4,7.9,13.6c4,12.6,6.5,25.5,7.6,38.6
		c1.6,19.6,0.5,39.1-2.5,58.6c-1.6,10.6-3.3,21.1-6.2,31.4c-1.3,4.5-0.7,8.6,2.1,12.4c2.3,3.1,3.5,6.7,4.7,10.4
		c1.2,3.6,2.6,7.2,4.2,10.7c2.8,5.9,4,12.2,4.4,18.6c0.5,8-0.4,15.7-3,23.3c-1.8,5.2-3.3,10.5-5.1,15.7c-2.6,7.6-7,14.1-12.8,19.6
		c-1.7,1.6-3.7,3-5.6,4.4c-2.4,1.7-3.8,3.8-3.5,6.8c0.4,4.3-1.3,7.7-4.5,10.4c-3.8,3.2-6.7,6.9-8.5,11.6c-0.5,1.4-1.6,2.7-2.7,3.7
		c-1.6,1.5-2.6,3.1-3,5.3c-1.7,9.7-3.5,19.4-5.1,29.1c-0.5,2.7-0.5,5.6-0.7,8.4c-0.3,4.9-0.7,9.7-0.8,14.6c-0.2,6,1.7,8.5,7.5,10.1
		c1.9,0.5,3.8,0.9,5.8,1.1c2.4,0.3,4.8,0,6.9-1.4c1.7-1.2,3.4-1,5.3-0.2c4.4,2,8.9,3.9,13.5,5.6c1.3,0.5,2.8,0.7,4.2,0.6
		c3.2-0.2,5.9,0.8,8.1,3.1c1.2,1.3,2.4,2.6,3.4,4c2.5,3.3,5.9,5.2,10,5.7c9.3,1.1,18.3,3.6,27.2,6.2c2.4,0.7,4.8,1.5,7,2.6
		c2.1,1.1,4.1,2.4,5.9,4c2.4,2,3.7,4.6,3.7,7.9c0,7.8,4.2,14.2,7.8,20.6c0.1,0.2,0.3,0.2,0.8,0.5c0.9-1,2-1.9,2.8-3.1
		c1.6-2.4,3.2-4.8,4.6-7.4c3-5.5,7.2-9.7,12.8-12.3c5.5-2.6,11.1-5.1,16.8-7.2c5.8-2.2,9.3-0.9,12.9,4.2c1.2,1.7,2.2,3.5,3,5.4
		c3.1,7.4,5.7,14.9,6.9,22.9c0.5,3,0.5,6.2,0.4,9.3c0,2.5-1.2,4.6-3.2,6.1c-1.3,1-2.8,1.9-4.3,2.5c-7,2.6-14.1,4.9-21.5,6
		c-6.1,0.9-12,0.2-17.7-2c-1.7-0.7-3.5-1.3-5.3-2c-0.4,2.3,0.6,4.2,1.4,6.1c1.8,4.1,3.6,8.2,5.7,12.1c5.1,9.3,9.1,19.1,13.2,28.8
		c4.3,10.1,8.8,20.1,13.2,30.2c0.9,2.2,1.7,4.4,2.6,6.9c0.8-0.1,1.6-0.2,2.4-0.4c4.9-1.1,9.7-2.3,14.6-3.3
		c8.6-1.8,16.9-0.5,25.1,2.1c7.6,2.4,14.5,6.1,20.9,10.7c7,5.1,13,11,17.9,18.3c4.2,6.3,7.1,13,9.6,20.1c0.3,0.8,0.5,1.6,0.8,2.4
		c9.2,25,0.5,55.8-15.1,72.6c-10.3,11.2-22.9,17.9-37.8,20.4c-13.9,2.4-27.7,1.6-41.3-2.1c-14.4-4-25.5-12.7-34-24.8
		c-9.8-13.9-14.4-29.5-14.1-46.5c0.2-12.2,3.7-23.5,9.9-33.9c4.5-7.5,9.6-14.5,16.4-20.2c0.7-0.6,1.3-1.3,1.9-2
		c0.8-0.9,0.8-1.8,0.4-2.9c-7.6-17.5-15.1-35-22.7-52.5c-0.6-1.4-1.4-2.8-2.3-4.1c-0.4-0.6-1.1-1.1-1.9-2c-0.4,1.6-0.8,2.6-1,3.7
		c-5.9,27.9-13.4,55.4-21,82.8c-1.5,5.5-3,11-4.8,16.4c-1,2.9-2.3,5.8-3.8,8.5c-3.3,6.1-8.5,9.9-15.3,11.2
		c-3.5,0.7-7.2,1.1-10.8,1.3c-5.2,0.2-10.4,0.1-15.5,0.2C377.5,604.6,376.4,604.6,375.2,604.7z M291.5,247.7
		C291.5,247.7,291.6,247.8,291.5,247.7c0.9-1.8,1.7-3.7,2.5-5.6c0.4-0.9,0.9-2,0.8-2.9c-0.5-3.7-1.6-7.2-3.6-10.5
		c-2.2,1.2-3,3.1-3.7,5c-1.6,4.5-4,8.4-7.5,11.6c-1.8,1.6-2.4,3.6-2.1,5.9c0.2,1.5,0.6,3,1.1,4.5c2.9,8.4,8,15.4,14.6,21.3
		c0.5,0.4,1.1,0.8,1.6,1.1c4.6-7.1,9-13.9,13.6-21c-5.1-4.4-9.3-9.7-12.9-16.1c-0.9,1.5-1.5,2.6-2.1,3.6
		C293.1,245.7,292.3,246.7,291.5,247.7z M348.1,275.7L348.1,275.7c0.9-2.1,1.7-4.3,2.6-6.8c-1.2,0.1-1.9,0.1-2.6,0.2
		c-3.8,0.6-7.6,0.8-11.4-0.1c-2.4-0.5-3.9,0.2-5,2.4c-1.2,2.1-2.7,4.1-4.1,6.1c-0.2-0.1-0.4-0.3-0.6-0.4c1.7-2.8,3.4-5.6,5.3-8.7
		c-8.5-1.7-16-5.1-22.6-10.8c-4.5,7.2-9,14.3-13.5,21.5c6.8,5.2,13.3,10.2,21.7,12.4c0.6-0.8,1.2-1.5,2.1-2.6
		c-0.4,1.3-0.6,2.1-0.8,2.9c2.3,1.5,4.6,1.9,7,2c1.4,0.1,2.9-0.1,4.3,0.2c2.3,0.5,4.3,0.4,6.1-2c0,1.1,0,1.6,0,2.2
		c5.5,1.1,8.9-0.3,11.2-5c2.1-4.4,5-8,8.8-11.1c1.4-1.2,2.7-2.6,3.7-4.2c1.5-2.3,2.2-4.9,0.6-7.5c-3.2,0.8-6.3,1.5-9.3,2.3
		C350.8,272.5,350.2,273.8,348.1,275.7z M68.1,628.7c0.5-1.4,1-2.6,1.3-3.9c1.5-7.1,4.8-13.2,9.3-18.8c6.2-7.6,13.8-13.4,22.4-18
		c7.3-3.9,15.2-5.2,23.1-7c12.6-2.9,24.2-0.4,35.3,5.8c1.6,0.9,3.2,2,4.8,2.9c9.6,5.5,15.8,14.2,21.4,23.3c0.5,0.9,0.9,1.9,1.2,2.9
		c3.8,10.6,4.5,21.7,3.8,32.8c-0.1,0.9-0.3,1.8-0.5,2.7c-1.2,4.2-0.8,4.8,3.7,4.8c0.3,0,0.6,0,0.9,0c4.1-0.1,8.3-0.2,12.4-0.1
		c17.1,0.4,34.2,0.9,51.3-0.2c8.7-0.5,17.4-1.2,26-2.3c12.9-1.6,25.4-4.9,37.9-8.4c9.8-2.8,19.3-6.2,28.1-11.4
		c7.5-4.4,13.4-10.4,17.1-18.4c1-2.1,1.9-4.1,2.8-6.2c4.8-10.8,4.3-21.6-0.4-32.2c-2.6-5.9-6.1-11.3-10.3-16.2
		c-1.2-1.5-2.5-2.9-4-4.6c-1.6,1.7-2.8,3.2-4.3,4.5c-2.1,1.9-4.6,3.1-7.6,3.2c-5.9,0.1-9.3-4.5-7.1-10c0.9-2.2,2.7-4.1,4.1-6.2
		c0.4-0.6,0.9-1.1,1.5-1.9c-4.3-2.7-8.5-5.3-13.1-6.7c-5.8-1.7-11.6-3.1-17.6-4c-11.9-1.7-23.9-2.9-35.8-4.4
		c-6.1-0.7-12.2-1-18.2-2.3c-7-1.6-13.9-4-20.8-6.3c-2.3-0.8-4.5-1.1-6.5,0.2c-4,2.6-8,5.1-11.7,8.2c-5.1,4.2-9.8,8.9-14.8,13.2
		c-11.5,9.8-24.1,18-38.2,23.5c-9.2,3.6-18.7,6-28.3,8.1c-18.7,4.2-37.4,4.3-56.1-0.3c-8.6-2.1-15.8-6.3-21.3-13.2
		c-5.1-6.5-8.6-13.8-7.8-22.7c-1.7,0.7-1.7,2.3-2.2,3.6c-2.8,8.5-4.5,17.2-5.4,26.1c-1,9.7-0.9,19.1,1.5,28.7
		c3,12.4,10.1,21.8,19.6,29.8C66.4,628,67.1,628.2,68.1,628.7z M262.8,286.4c0.1,1.2,0.1,2,0.1,2.7c-0.1,5.7-0.1,11.4-0.2,17.1
		c-0.2,22,0.3,43.9,3.1,65.8c1.2,9.3,5.4,16.1,14.1,20c0.9,0.4,1.9,0.9,2.8,1.3c6.1,2.6,12.2,5.3,18.3,7.9c5.3,2.3,10.6,4.7,16,6.7
		c5.7,2.1,7.5,0.9,8.4-5.1c1-6.5,3.4-12.4,6.4-18.1c0.4-0.8,0.8-1.6,1.4-2.8c-1.6-0.8-3-1.6-4.5-2.2c-9.5-3.6-18.9-7.3-28.5-10.7
		c-3.5-1.2-5.2-3.3-5.7-6.9c-1.4-8.7-3.2-17.3-4.5-26c-1.5-10.2-2.7-20.5-4-30.8c-0.2-1.4-0.3-2.9,1.2-3.9c1.8,1.5,2.1,3.6,2.4,5.6
		c1.4,10.5,2.7,21,4.3,31.4c1.2,7.7,2.8,15.3,4.2,22.9c0.5,2.8,2,4.6,4.7,5.6c10,3.7,20,7.5,30,11.2c4.1,1.5,5,0.8,4.8-3.6
		c-0.2-3.6-0.5-7.2-0.7-10.9c-0.4-11.7,0-23.4,1.3-35.1c0.9-8.3,2.4-16.6,3.6-24.9c0.2-1.3,0.6-2.6,0.8-4c0.4-3-0.5-4-3.5-4
		c-1,0-2.1,0.1-3.1,0.2c-4.8,0.7-9.5,0.4-14.2-0.6c-12.4-2.8-22.9-9-31.5-18.3c-5.3-5.7-10.2-11.7-12.6-19.4
		c-1.1-3.7-3.2-4.2-5.9-1.3c-2.8,3.1-5.4,6.6-7.6,10.2c-8.6,13.9-15.2,28.7-21.3,43.9c-10,24.8-15.2,50.5-14.9,77.3
		c0.2,12.2,0.3,24.5,0.4,36.7c0,3,1.2,5.4,3.6,7.3c2.8,2.3,6.1,3.6,9.4,4.7c17,5.7,34.2,5.7,51.5,1.6c12.3-2.9,23.7-8.2,35.1-13.2
		c1-0.5,2-1.1,2.9-1.8c0.5-0.4,0.8-1.1,1.4-2.1c-1.8-0.5-3.3-0.9-4.8-1.3c-2.1-0.6-3.9-1.5-4-4.1c-0.1-2.4-1.6-3.6-3.9-4.1
		c-2.1-0.4-4.2-1-6.3-1.6c-15.3-4.8-29.5-12.2-43.5-19.8c-4.7-2.6-7.3-6.7-7.7-12c-0.8-10.4-1.9-20.9-2.3-31.3
		c-0.4-11.4-0.3-22.8-0.2-34.2c0-7,0.3-14.1,0.5-21.1C260.4,289.4,260.6,287.7,262.8,286.4z M492,567.2c-0.8-1.4-1.4-2.7-2.1-4
		c-2.4-4.7-4.9-9.4-7.2-14.1c-2.5-5-3.7-5.3-7.4-1.1c-15.3,17.3-23,37.3-20.8,60.5c2.4,24.2,14.5,42.3,35.3,54.7
		c4.6,2.7,9.5,4.8,14.8,5.3c14.9,1.4,29.6,1,44-3.6c21.3-6.9,34.9-21.2,40.7-42.8c2.5-9.3,2.9-18.8,3.3-28.3c0-1.2-0.1-2.5-0.5-3.7
		c-1.4-5-3-9.9-4.4-14.9c-2.3-8.4-6.2-15.8-12.7-21.7c-5.7-5.2-11.7-10.3-17.8-15c-6.6-5-14.2-8.2-22.3-9.8
		c-4.1-0.8-8.4-1.1-12.6-1.3c-3.1-0.1-6.2,0.2-9.3,0.6c-2.1,0.3-4.3,0.8-6.2,1.7c-3.8,1.8-4.5,3.6-2.9,7.5
		c2.4,6.1,4.9,12.1,7.6,18.1c2.3,5.2,1.4,4.2,6.5,4.2c13.6,0,25.7,3.9,35,14.5c0.5,0.5,1.1,1,1.5,1.5c0.6,0.8,1.3,1.6,1.7,2.5
		c2,5.3,3.9,10.7,5.8,16.1c0.3,0.8,0.6,1.6,0.6,2.4c0,2.4-0.2,4.7-0.3,7.1c-0.1,5.3-0.9,10.6-3,15.5c-6.4,15-18.1,23.3-34,25.1
		c-16.1,1.7-29.4-4-38.8-17.5c-6.6-9.4-8.2-20.2-7.9-31.4c0.2-9.1,3.4-17,9.6-23.6C489.5,570.1,490.6,568.8,492,567.2z M331.1,448.4
		c-0.8-0.6-1.5-1.1-2.1-1.5c-4.6-2.8-9.1-5.7-13.7-8.5c-3.4-2.1-6.7-2.3-10.7-1.1c-13.6,4.2-27.5,7-41.9,5.9
		c-7.3-0.6-14.6-1.4-21.5-4.5c-1.7-0.8-3.5-1.3-5.3-1.6c-2.2-0.4-3,0.6-2.9,2.8c0,0.8,0.2,1.6,0.4,2.4c1.6,6.6,4.3,12.7,7.1,18.9
		c1,2.3,2.8,3.6,5.2,4.5c14.2,5.5,28.3,11.2,41.1,19.7c2,1.3,4.1,2.4,6.3,3.3c4.5,1.8,6.2,1.1,8.9-2.8c0.3-0.4,0.6-0.9,0.8-1.3
		c0.9-2.3,2.8-3.7,5-5.4c-0.4,2.7-1.4,4.6-2.6,6.3c-1.8,2.5-3.7,5-5.7,7.4c-7.7,9.1-15.5,18.1-23.2,27.2c-2.1,2.4-3.9,5.1-5.9,7.8
		c2.6,1.6,5.1,1.8,7.5,1.8c9.2-0.2,18.2,1,27.2,2.3c4.5,0.7,9,1.6,13.4,2.5c2.7,0.6,5,0.3,6.9-2.1c2.8-3.3,5.9-6.4,8.9-9.6
		c8.2-9,16-18.2,22.7-28.4c2-3,3.6-6.3,5-9.6c1.9-4.9,1.1-9.7-1.9-13.9c-1.9-2.6-4.1-5-6.4-7.1c-5.2-4.7-11.4-7.8-17.4-11.3
		c-2.1-1.2-4.4-1.2-6.6-0.3c-1.4,0.6-2.8,1.3-4.2,2c-1.8,0.8-3.5,1.7-5.4,2.4c-1.4,0.5-2.9,0.7-4.6-1
		C320.7,453.1,325.6,450.9,331.1,448.4z M72.1,639.9c0.1,1.1,0.2,3.2,0.4,5.3c1.2,11.1,4.2,21.4,11.5,30.3c4,4.9,8.7,8.8,13.7,12.5
		c7.8,5.7,16.6,8.3,26.2,8.3c9.9,0,19.6-1.6,29-4.9c3.4-1.2,6.7-2.9,9.6-5c5.6-3.9,10.4-8.9,14.7-14.2c7-8.6,9.7-18.5,10.4-29.4
		c0.5-8.5-1.6-16.5-4.1-24.4c-0.9-3-1.8-6-3.5-8.6c-6.9-11-16.3-18.9-28.8-22.9c-1.5-0.5-3-0.9-4.4-1.5c-3.6-1.5-7.3-2.3-11.2-2.2
		c-10.4,0.1-20.4,2.1-29.9,6.3c-3.6,1.6-7,3.6-10.1,6c-3.6,2.7-6.8,6.1-10.2,9.1c-5.3,4.8-8.8,10.6-10.8,17.5
		C73,627.6,72.1,633.2,72.1,639.9z M258.6,46.8c0.6,5.5,1,12.3,2,19.1c3.2,20.7,8.8,40.9,15.2,60.8c3.3,10.4,8.1,20.4,12.2,30.6
		c0.9,2.3,1.9,4.6,2.9,6.9c0.9,2,1.8,2.3,3.5,0.9c1.1-0.9,2-2.1,3-3.2c3-3.7,6.5-6.7,10.8-8.7c2.5-1.1,5.1-2.3,7.7-3.4
		c2.3-0.9,3.3-2.3,3.2-4.9c-0.6-8.4-0.9-16.8-1.3-25.1c-0.7-13.6-1.4-27.1-3.9-40.5c-1.5-8.1-2.7-16.4-4.5-24.4
		c-0.9-4.1-2.5-8.1-4-12c-1-2.6-2.6-5-3.9-7.4c-1.4-2.5-2.8-5.1-4.4-7.5c-1.9-3.1-3.9-6.1-6-9.1c-1.1-1.5-2.3-3.1-3.8-3.9
		c-4.5-2.4-9.5-2.9-14.5-1.9c-4.7,0.9-7.4,4.2-9.5,8.3C259.5,28.9,258.8,37.1,258.6,46.8z M376.8,152c0.2-0.7,0.5-1.8,0.7-2.9
		c1.1-7.8,2.2-15.6,3.4-23.4c1.8-11.6,3.3-23.2,3.9-34.9c0.9-18.2,0.1-36.3-3.1-54.2c-0.6-3.3-1-6.9-2.6-9.8
		c-2.3-4.1-4.2-8.3-5.2-12.9c-1-4.5-3.9-7.5-8.5-8.4c-1.1-0.2-2.2-0.7-3.3-0.9c-5.6-1.3-10.4,0-14.4,4.3c-2.8,3-4.7,6.6-5.6,10.6
		c-2.2,10.5-3.3,21.1-3.7,31.8c-0.7,16.9-0.3,33.8,1.7,50.6c1.1,9.4,2.4,18.7,3.5,28.1c0.6,4.5,1,9.1,1.4,13.6
		c0.1,1.5,0.9,2,2.3,2.4c4.6,1.1,9.2,2.4,13.8,3.6c1,0.3,2,0.4,3,0.5C368.2,150.7,372.4,151.3,376.8,152z M428.1,499.3
		c0.4-1.8,0.8-3.1,1-4.4c2.7-13.4,5.1-26.8,8.1-40.2c1.4-6.4,0.2-11.9-3.1-17.2c-1.7-2.8-4.2-4.4-7.5-5c-6.1-1.2-12.2-1.1-18.2,0.4
		c-8,2.1-16,4.4-23.8,7c-9,3.1-17.9,6.6-26.8,10c-2.9,1.1-5.6,2.5-8,4.9c0.8,0.6,1.4,1,1.9,1.4c4,3.2,7.7,6.7,10.6,10.8
		c5.1,7.2,6.5,14.9,2.9,23.2c-0.8,1.8-1.9,3.4-2.8,5.2c-0.7,1.3-1.4,2.7-2.3,4.5c2.1-0.2,3.7-0.3,5.2-0.4c5.6-0.5,11.1-1.2,16.7-1.6
		c10.1-0.6,20.3-1,30.4-1.5C417.8,496.2,422.9,496.4,428.1,499.3z M326.1,535.7c2.3,1,4.1,1.8,6,2.6c2.4,0.9,5,1.5,7.3,2.6
		c11.7,5.8,21.2,14.1,28.4,25c3.2,4.8,5.5,10,7,15.5c0.7,2.7,1.5,3.2,3.9,3.1c3-0.2,6-0.5,9-0.7c12.9-1,19.8-6.5,23.7-18.8
		c1.4-4.4,2.6-8.7,3.8-13.1c3.1-11.8,6.1-23.7,9.2-35.5c0.3-1.3,0.9-2.6-0.3-3.8c-0.3,0-0.6,0-0.9,0.1c-5,1.3-10,2.9-15,4
		c-9.1,2-18.4,3-27.7,3.3c-12.2,0.5-24.4,0.8-36.7,1.2c-2.1,0.1-4.2,0.3-5.8,1.8c-2.9,2.7-5.7,5.4-8.5,8.2
		C328.2,532.3,327.4,533.9,326.1,535.7z M62.8,467.8c1-1.2,1.7-2,2.4-2.9c3.6-4.8,7.9-8.8,13.4-11.3c0.5-0.2,0.9-0.5,1.4-0.8
		c1.9-1.3,2.1-2.1,1.1-4.2c-1.5-3.3-3.2-6.5-4.5-9.9c-3.2-8.1-7.3-15.8-11.5-23.4c-5.6-10-12.3-19.2-19.9-27.7
		c-1.3-1.5-2.8-2.7-4.5-3.8c-3.8-2.5-7.7-4.9-11.5-7.3c-2.9-1.8-6-3.3-9.4-4.1c-4.9-1.1-8.6,1.3-12.4,3.8c-2.9,1.9-3.1,5-3.4,8
		c-0.6,6.3,0.5,12.4,2.7,18.3c3.5,9.4,8.8,17.9,15.4,25.4c6.5,7.4,13.2,14.6,20,21.7c3,3.1,6.3,5.9,9.6,8.8c1.8,1.6,3.7,3,5.5,4.5
		C59.1,464.5,60.8,466.1,62.8,467.8z M525.3,585.2c4.3-0.3,10.8,3.4,12.7,7c1,2,1,4.1-0.4,5.9c-0.9,1.2-2.1,2.3-3.4,3.1
		c-6.2,3.8-13.1,5.6-20.4,6c-5,0.3-7-1.8-6.9-6.8c0-2.7-0.6-5.1-1.9-7.4c-3.2-5.4-6.3-10.9-8.4-17c-0.7-2-1.7-4-3.5-5.4
		c-3.4,1.7-5.8,4.3-6.8,7.8c-1.5,5.3-3.1,10.5-4.1,15.9c-0.6,3.2-0.7,6.7,0.1,9.9c1.9,8.2,5.1,16,10.1,22.9
		c8,10.8,18.8,15.2,32.1,13.3c7.2-1,13.5-4.3,19.6-8.2c5.2-3.3,8.8-7.7,11.4-13.2c2.7-5.5,3.4-11.5,4.1-17.4c0.2-1.8,0-3.7-0.6-5.5
		c-1.7-5.4-3.5-10.8-5.6-16.1c-0.8-2.2-2.4-4.1-3.8-5.9c-0.8-1-2.3-1.4-3.3-2.2c-6.9-5.5-14.9-8.4-23.5-9.8
		c-2.4-0.4-4.9-0.6-7.6,0.5C516.4,571.2,521.5,577.9,525.3,585.2z M126.5,450.3c0-1.3,0.1-1.9,0-2.5c-0.6-3.3-1.1-6.5-1.9-9.7
		c-5.2-20.8-12.9-40.6-24.2-59c-0.9-1.4-1.7-2.8-2.4-4.4c-1.4-3.3-3.5-6.1-5.9-8.7c-2.1-2.3-4.1-4.7-6.3-6.9
		c-3.5-3.4-8.1-4.3-12.8-4.4c-0.6,0-1.2,0.3-1.8,0.6c-2.2,1.1-4.4,2.3-6.7,3.3c-3.9,1.8-5.9,5.2-6.7,9.2c-0.4,1.9-0.4,3.9-0.3,5.9
		c0.5,8.6,3.2,16.7,6.7,24.4c7.1,16.1,15.7,31.5,26.6,45.5c1.7,2.2,3.3,2.8,6.1,2.2c8.7-1.8,17.1-1,25.2,2.9
		C123.3,449.3,124.7,449.7,126.5,450.3z M521.8,586.1c-0.3-0.8-0.5-1.5-0.8-2.1c-21.7-49.8-43.4-99.5-65.1-149.3
		c-2.9-6.5-6-13-7.6-20c-0.3-1.2-0.8-2.3-1.4-3.4c-0.8-1.5-2.1-2.1-3.7-1.6c-3.8,1.4-7.6,2.7-11.2,4.5c-2.9,1.4-3.3,3.1-2.1,6.1
		c2.3,5.5,4.5,10.9,6.8,16.4c2.5,5.9,5.2,11.7,7.7,17.7c2.2,5.4,4.1,11.1,6.4,16.5c8.5,20.4,17.2,40.6,27.1,60.4
		c8.5,17,17.3,33.8,25.9,50.6c1.8,3.6,3.6,7.2,5.4,10.8C513.5,590.3,517.5,588.3,521.8,586.1z M372.5,198.9c1,0.8,1.8,1.4,2.5,1.9
		c2.7,2,4.3,4.7,4.8,8c0.6,4,0.2,7.9-1.4,11.6c-1,2.3-2.4,4.4-4.7,5.6c-4.1,2.2-8.3,3-12.9,1.9c-2.6-0.6-4.7-2.1-6.4-4.2
		c-7.2-9.2-2.7-18.6,3.5-23.6c0.8-0.6,1.7-1.1,3.1-2.1c-4.6,0.2-8.4,0.5-12.3,0.6c-3.7,0.1-7.4-0.2-11.2-0.2c-2,0-4.1-0.4-6.2,0.8
		c0.9,0.7,1.7,1.3,2.4,1.8c3.6,2.7,6,6.2,7.2,10.6c2.1,8.3-3.8,16.7-12.3,17.3c-2.8,0.2-5.6-0.1-8.3-0.5c-3.8-0.5-6.4-2.7-8.2-6
		c-3.2-6-1.9-15.5,2.7-20.4c0.8-0.9,1.7-1.6,2.9-2.6c-3.2-0.6-5.5,0.5-7.3,2.5c-3.2,3.6-4.3,8.1-3.5,12.8c0.8,4.6,1.4,9.4,5.2,13
		c-3.4-1.2-4.4-4.2-5.7-7.2c-0.2,2.9-0.8,5.7-3.5,6.9c-2.5,1.1-5.2,1.5-8.1,2.3c1.5,4,2.8,8.2,4.7,12.2
		c6.5,13.2,17.8,20.7,31.4,24.4c15.1,4.1,28.7-0.2,40.4-10.3c8.4-7.2,12.2-17,14.8-27.4c0.1-0.6,0-1.2,0-1.4
		c-1.7-0.7-3.1-1.3-4.5-1.8c-1,0.7-2.1,1.5-3.3,2.3c0.5-1.8,1.4-3.2,2.2-4.6c4.2-7.7,2.5-15-1.2-22.2c-0.1-0.3-0.3-0.5-0.5-0.8
		C377.1,197.8,375.5,197.5,372.5,198.9z M102.4,575.9c0,0.2,0,0.5,0,0.7c0.5,0.1,0.9,0.3,1.4,0.3c2.9-0.1,5.8-0.1,8.7-0.4
		c4-0.4,8-1.2,12-1.4c7.1-0.3,13.9-1.7,20.8-3.6c12.2-3.3,23.4-8.8,34.7-14.2c11.7-5.6,22.3-12.6,31-22.4c4.5-5.1,9.5-9.8,15.8-12.9
		c2.6-1.2,2.6-2.3,0.4-4.2c-2.5-2.2-5.4-3.7-8.5-5c-2.9-1.2-5.7-2.8-8.6-4.3c-1.8-1-3.6-2.1-5.4-3c-1.9-1-3.7-0.9-5.6,0.1
		c-11.9,5.9-21.9,14.1-30.1,24.6c-5.6,7.1-11.5,13.8-17.9,20.3c-9.6,9.7-21,16.4-33.6,21.3c-4.1,1.6-8.6,2.2-12.9,3.3
		C104,575.4,103.2,575.7,102.4,575.9z M228.1,515.5c0.2-0.2,0.3-0.3,0.5-0.5c-0.8-1.1-1.4-2.3-2.4-3.2c-6-6-11.9-12.1-18.2-17.8
		c-7.6-6.9-16.1-12.7-25.6-16.9c-9.4-4.2-19.2-6.6-29.6-5.5c-1.4,0.1-3.2-0.1-3.8,1.5c-0.5,1.6,0.9,2.9,1.9,4c0.5,0.6,1.3,1,2,1.5
		c0.8,0.5,1.7,0.9,2.4,1.4c2.1,1.4,2.2,2.8,0.3,4.5c-0.7,0.7-1.6,1.3-2.4,1.9c-1.1,0.8-1.3,1.6-0.9,2.9c2.6,8.8,2.7,17.8,0.8,26.7
		c-2.3,11.2-8.5,19.6-18.7,25c-0.5,0.3-0.9,0.8-1.3,1.2c1.7,3.8,3.3,7.5,5,11.2c0.5,1.2,1.6,1.4,2.6,0.9c1.3-0.6,2.5-1.5,3.6-2.4
		c8.1-6.8,15.1-14.7,22.3-22.5c7-7.6,14.4-14.9,23-20.9c3-2.1,6.4-3.8,9.7-5.5c2.6-1.3,5.2-0.9,7.7,0.6c6.1,3.5,12.2,7,18.3,10.5
		C226.3,514.6,227.2,515,228.1,515.5z M376.8,588.4c-0.3,3.2-0.8,6.2-0.9,9.2c-0.1,3.2,0.9,4.3,4.2,4.4c2.5,0.1,5-0.1,7.4-0.4
		c4.4-0.5,8.8-1.3,13.2-1.7c9.5-0.7,15.8-5.6,19.4-14.2c1.3-3.1,2.5-6.4,3.3-9.7c8.2-31.9,16.3-63.8,24.3-95.8
		c0.5-2.2,0.7-4.6,0.3-6.8c-1-6.7-4.4-12.4-7.6-18.8c-0.4,1.3-0.6,2.1-0.8,2.9c-4.2,19.9-8.1,39.8-12.7,59.6
		c-3.8,16.5-8.4,32.9-13,49.3c-1.1,3.9-3,7.7-5.1,11.3c-2.8,4.9-7.3,8-12.9,8.8c-4.2,0.6-8.4,0.8-12.7,1.2
		C381.2,587.7,379.1,588.1,376.8,588.4z M283.1,487.3c0-0.2,0-0.4,0.1-0.6c-3.7-1.8-7.3-3.7-11-5.4c-8.3-3.7-16.6-7.5-25-11
		c-6.1-2.6-10.4-6.6-12.3-13.1c-0.8-3-2.8-4.7-5.9-5.2c-4.8-0.7-9.6-1.3-14.4-2.3c-4.1-0.8-7.6,0.3-10.9,2.3
		c-4.5,2.7-6.1,6.4-5.1,11.6c1.1,5.6,3.9,10.4,7.4,14.9c1.3,1.7,2.8,3.5,4.6,4.5c3.9,2.1,7.9,4.1,12.1,5.5
		c6.6,2.2,13.5,2.8,20.5,2.8c9.9,0,19.6-0.9,29.4-2.2C276.1,488.5,279.6,487.9,283.1,487.3z M87,452.1c-3.7,2.2-7.1,4.2-10.4,6.3
		c-7.4,4.8-13,11.2-15.8,19.7c-2.3,6.9-3.6,14.1-3.5,21.4c0.1,3.5,0.7,7,1.5,10.4c0.9,3.6,3.3,5.9,7,6.8c0.9,0.2,1.8,0.5,2.7,0.7
		c5.8,1.4,7.9-0.5,7.4-6.5c-0.3-3.5-0.4-7-0.3-10.5c0.1-2.6,0.8-3.3,3.4-3.6c2.5-0.4,4.9-0.5,7.4-0.8c4.6-0.4,9.3-0.7,13.9-1.3
		c3.3-0.4,4-1.7,3.1-4.9c-0.3-1-0.7-1.9-1-2.9c-0.9-2.5-1.8-5.1-2.6-7.6c-1.9-6.7-3.8-13.3-6.9-19.6C91.5,456.6,89.7,454,87,452.1z
		 M78.9,511.7c-0.8,2.3-1.6,4.1-2.1,6c-0.2,0.8,0.1,1.9,0.5,2.6c5.2,8.4,11.6,15.5,20.4,20.4c10.7,6,21.5,4.8,32,0.5
		c9.4-3.9,15.3-11.5,19-20.8c3.5-8.9,4.3-18.1,2.2-27.5c-0.3-1.1-0.8-2.2-1.3-3.2c-0.2,0.1-0.5,0.1-0.7,0.2c0,0.6-0.2,1.4,0.1,1.9
		c2.2,3.3,1.9,6.9,1.7,10.6c-0.3,6.8-3.9,11.3-10.4,13.7c-7.3,2.7-18-0.6-20.2-10.1c-0.3-1.1-0.7-2.2-1-3.3c-0.4-1.5-1.4-2-2.8-1.7
		c-1,0.2-1.9,0.6-3,1c0.2,0.9,0.4,1.5,0.6,2.1c2.4,8.1-1.7,15.6-9.8,18.1c-3.9,1.1-7.8,1.1-11.7,0.4c-4.7-0.8-8.5-3.2-11.2-7.2
		C80.8,514.2,80,513.1,78.9,511.7z M506.5,439.8c-1-0.5-1.4-0.6-1.7-0.9c-4.5-3.6-7.5-8.3-9.3-13.7c-2.7-7.9-4-16.1-3.7-24.5
		c0.1-1.5,0.3-3,0.5-4.9c-3.4,1.6-6.5,2.9-9.6,4.4c-2.9,1.4-5.9,2.7-8.5,4.6c-3.1,2.2-6.5,4.4-8.6,7.4c-2.8,3.9-4.6,8.6-6.4,13
		c-1.9,4.7-0.5,9,3,12.5c1.2,1.2,2.7,2.3,4.3,3.1c6.7,3,13.6,5.8,21.2,3.6c0.3-0.1,0.6-0.1,0.9-0.1c4.9-0.1,9.6-1.6,14.2-3.1
		C503.8,441,504.7,440.5,506.5,439.8z M219.4,499.4c0.2,0.6,0.2,1,0.4,1.2c5.4,5,9.7,10.8,13.7,16.8c1.2,1.8,2.9,2.9,4.9,3.6
		c8.2,2.6,16.4,5.1,24.9,6.5c2.3,0.4,3.8-0.4,5.1-2c5.3-6.6,10.6-13.2,15.9-19.9c0.5-0.6,0.9-1.3,1.6-2.4c-1.5-0.2-2.6-0.5-3.6-0.6
		c-2.4-0.3-4.7-0.4-7.1-0.7c-8.2-0.9-16.5-2-24.8-1.7c-9.2,0.3-18.4,0.3-27.6-0.9C221.7,499.1,220.6,499.3,219.4,499.4z
		 M325.8,151.3c-11.6-0.1-19.2,5-22.5,13.9c-0.7,1.9-1.3,3.9-1.7,6c-2,11.2,4.2,21.8,14.6,24.5c8.3,2.2,16.1,0.9,22.7-4.9
		c1.4-1.2,2.7-2.6,4-3.9c1.3-1.3,2.5-2.8,3.9-4.1c1.8-1.7,3.7-1.7,5.4,0.1c1,1.1,1.6,2.4,2.5,3.6c1.4,1.9,2.7,3.9,4.2,5.7
		c1.8,2.1,4.2,3.3,6.9,3.9c8.8,1.8,17.2-3.8,18.3-12.8c1.1-8.5-1-16.5-5.7-23.7c-0.8-1.3-2-2.4-3.1-3.5c-3-2.8-6.6-4.3-10.8-3.8
		c-2,0.2-4.1,0.7-6.1,1.1c-2.6,0.5-5.3,1.2-7.9,1.5c-4.9,0.6-9.7-0.5-14.4-1.6C332.1,152.5,328,151.8,325.8,151.3z M87.6,554.9
		c-0.3,0.1-0.5,0.1-0.8,0.2c-0.3-0.9-0.7-1.8-0.9-2.8c-0.8-3.5-2.1-6.7-4.2-9.6c-0.9-1.2-1.1-2.8-1.7-4.2c-0.2-0.6-0.4-1.4-0.8-1.9
		c-2.3-2.9-4.7-5.7-7.1-8.6c-1-1.2-2.1-2.3-3.8-2.4c-8.5-0.7-13.9,5.9-13.9,12.2c0,9.3,3.1,17.4,8.9,24.6c3.7,4.6,8.5,7.5,14.3,8.8
		c2,0.4,4,1,6,1.6c5.1,1.4,5.8,0.8,5.7-4.4c-0.1-5.1-0.1-10.2,2.2-14.9c0.8-1.7,1.5-3.4,2.1-5.2c0.8-2.1,0.6-2.4-1.5-3.2
		c-1.3-0.5-2.5-1-3.7-1.6c-1.5-0.8-2.9-1.7-4.7-2.7C85.4,545.7,89,549.7,87.6,554.9z M344.2,517.2c0.1,0.2,0.2,0.5,0.4,0.7
		c5.7-0.2,11.4-0.3,17.1-0.6c11.3-0.6,22.5-1.1,33.8-2.1c9.8-0.8,19.4-2.9,28.8-6.2c0.6-0.2,1.3-0.6,1.7-1.2
		c2.5-3.4,1.5-6.6-2.6-7.5c-3.3-0.7-6.8-1.1-10.1-1c-16.6,0.4-33.1,1.8-49.5,3.9c-2.5,0.3-5.3,0.6-7.5,1.8
		C350.9,507.7,347.5,512.5,344.2,517.2z M395.3,393.5c0.7,0.2,0.9,0.4,1.2,0.4c7.8,1.4,15.7,2.8,23.6,4.1c1.1,0.2,2.4-0.3,3.6-0.4
		c0.6,0,1.3,0.1,1.9,0.1c-0.1,0.7,0.1,1.7-0.3,2c-1.1,0.9-2.3,1.8-3.6,2.2c-6.3,2-12.7,2.9-19.3,2.8c-1.1,0-2.2,0-3.5,0
		c-0.7,5-0.7,9.5,0.7,14c1.2,0,2.3,0.1,3.3,0c8.7-1,17.2-2.9,25.5-5.5c3.9-1.2,7.6-2.8,10.8-5.4c1.4-1.2,3-2.4,3.9-4
		c2.4-4.2,2-7.3-2.4-10c-1.3-0.8-2.8-1.4-4.2-1.9c-7.2-2.2-14.5-4.4-21.8-6.3c-4.7-1.2-9.5-2-14.4-3.1c-0.5,2.4-1.5,4.2-3.5,5.1
		c-0.4,0.2-0.7,0.8-0.8,1.2C395.8,390.5,395.5,391.9,395.3,393.5z M367.1,443.3c-7.7-6.2-14.8-11.8-21.8-17.4
		c-1.8-1.4-3.9-1.7-6.2-1.6c-3.3,0.2-6.2,1.4-9.1,2.8c-4.5,2.2-8.8,4.6-13.6,6.1c-1.1,0.3-2,1.1-3.2,1.8c6,3.6,11.7,6.8,17.1,10.3
		c3,1.9,5.9,2.9,9.3,1.8c0.1,0,0.3,0.2,1.3,0.9c-1.2,0.4-2.1,0.7-3.4,1.1c1.9,1.3,3.1,2,4.2,2.7c2,1.3,3.9,1.5,6.1,0.4
		C354,449.3,360.2,446.5,367.1,443.3z M352.6,426.2c-0.1,0.2-0.2,0.4-0.3,0.7c0.6,0.6,1.1,1.3,1.7,1.9c4.2,3.6,8.5,7,12.6,10.6
		c2.7,2.3,5.4,2.7,8.6,1.2c10.3-4.7,21.2-7.6,32.1-10.7c6.3-1.8,12.8-2.6,19.3-0.5c1.1,0.3,2.3,0.3,3.9,0.6c-1.3-3.3-2.3-6-3.5-8.6
		c-1.4-3.1-2.3-3.6-5.6-2.7c-11.8,3.1-23.9,4-36,3.9c-2.3,0-4.3,0.4-5.7,2.4c-1.3,1.7-3,2.1-5,1.5c-0.9-0.3-1.8-0.6-2.6-0.9
		c-1.6-0.7-3.3-0.7-4.8,0.2c-3.5,2.3-7.2,2.1-11.1,1C355,426.4,353.8,426.4,352.6,426.2z M299.8,184.5c-4.1,2.4-8,4.7-11.9,7.1
		c-2.4,1.5-4.5,3.5-5,6.4c-1.2,6.4-1,12.8,1.3,19c1.7,4.6,4.9,7.9,9.9,9.1c5.4,1.3,9.1-1.7,9.2-7.3c0.1-3.3,0.3-6.6,0.8-9.9
		c0.5-3.9,1.9-7.4,4.9-10.1c0.6-0.5,1.1-1.2,1.6-1.8C307,192.8,303.5,188.8,299.8,184.5z M379.7,402.1c-1.7-1.7-3.1-2.6-5-2.7
		c-0.7,0-1.6-0.1-2-0.6c-1.8-1.8-4.1-1.8-6.3-1.9c-3.2-0.2-6.4-0.4-9.6-0.6c-5-0.3-5-0.3-7,4.4c-0.2,0.4-0.3,0.8-0.5,1.1
		c-1.5,3.5-2.4,7.1-1.9,10.9c0.6,4.3,2.1,8.3,5.9,10.5c4.2,2.4,9,2.5,13.6,0.8c0.8-0.3,1.2-0.7,1.2-1.8c0-1.4,0.9-1.8,2.1-1.1
		c0.9,0.5,1.5,1.4,2.3,2c2,1.6,3.2,1.6,5.1,0.4c-1.8-5.9-3.6-11.7-5.3-17.5c-0.2-0.7-0.5-1.4-0.5-2.1c-0.1-1.6,1.3-2.6,2.3-1.6
		C376.1,404,377.5,402.7,379.7,402.1z M96.6,546.5c-0.5,0.7-0.9,1.3-1.2,1.9c-3.6,7.5-4.2,15.5-4.3,23.6c0,1.3,0.7,2,1.8,2.1
		c1.5,0.2,3.1,0.5,4.6,0.2c4.8-0.8,9.6-1.7,14.3-2.7c2.5-0.5,4.2-2.2,5-4.6c2.2-6.4,4.3-12.7,6.5-19.1c0.2-0.5,0-1.2,0-2.4
		C114.3,548.5,105.6,549.6,96.6,546.5z M128.6,485.7c6.4-1.9,12-4.4,17.5-7.3c0.9-0.5,1.5-1.2,1.2-2.3c-0.5-2.2-0.9-4.5-1.8-6.5
		c-1.7-3.9-4.7-6.7-8-9.3c-7.9-6.1-17.1-9.5-26.7-11.9c-0.8-0.2-1.7,0-2.6,0c-0.1,0.3-0.3,0.5-0.4,0.8c1.8,2.9,4.8,4.9,6.6,7.8
		c1.9,3,4,5.8,5.7,8.8c1.8,3.1,3.3,6.5,4.7,9.8C126.2,478.8,127.3,482.1,128.6,485.7z M346.7,401.3c2-3.1,4.1-6.2,6.1-9.3
		c1.5-2.5,1.1-3.7-1.5-4.8c-3.6-1.6-7.2-3.2-10.8-4.7c-3.1-1.4-4.3-0.9-6.1,2.1c-3.4,5.6-5.8,11.7-7.2,18.1c-0.7,3.2-1,6.5-1.5,9.8
		c-0.3,2,0.6,3.5,2.6,4.1c4.3,1.2,8.5,2.4,12.9,3.3c2.7,0.6,3.4-0.2,3.2-3c-0.2-4.2,0.6-8.2,1.8-12.2c0.2-0.7,0.3-1.4,0.5-2.1
		c-2-0.6-3.9-1.3-5.7-1.8c-2-0.6-4-1.2-5.9-1.9c-1.7-0.6-3.7-0.6-5-2.1c0.1-0.2,0.2-0.5,0.3-0.7
		C335.8,397.7,341.3,399.5,346.7,401.3z M339.1,219.9c-2-2.3-2.4-4.9-0.5-7.6c0.2-0.3,0.4-0.9,0.3-1.2c-1.1-2.7-1.5-6-4.4-7.6
		c-2-1.1-4-2.2-6.2-2.8c-6-1.6-14.3,1.1-16,8.9c-0.8,3.6-0.6,7.2,0.5,10.7c0.6,1.8,1.6,3.4,3.4,4.3c3.8,1.9,7.8,3.4,12.2,3.3
		C333.2,227.9,337.3,224.8,339.1,219.9z M378.7,210.5c-0.1-0.6-0.1-0.9-0.2-1.2c-0.2-0.6-0.4-1.2-0.6-1.8c-2-4.9-5.4-8.1-10.9-8.3
		c-5.5-0.2-9.6,2.1-12.1,7c-2,3.7-2.4,7.7-1.6,11.8c0.6,2.9,2,5.4,4.6,7.1c7.1,4.8,17,1.7,20.1-6.3
		C374.9,214.2,375.1,212.4,378.7,210.5z M112.7,502.5c-1.9,0-3.3-0.1-4.7,0c-7.3,0.5-14.6,1.3-22,0.4c-1.7-0.2-3.5-0.5-5.2-0.6
		c-1.7,0-2.3,0.6-2.2,2.2c0.3,8.5,6.9,15.1,13.1,16.1c3.6,0.6,7.1,0.8,10.8,0.3c4.7-0.7,10.1-4.4,10.8-10.4
		C109.6,507.9,109.6,507.8,112.7,502.5z M494.8,405.7c0.5,3.4,0.8,7.6,1.7,11.8c1.4,6.8,5.2,12.6,9.2,18.2c1,1.4,2.4,2.4,4.3,2
		c1.9-0.4,2.3-2,2.5-3.6c0.3-2.7,0.8-5.4,0.5-8c-0.9-8.4-3.1-16.5-6.8-24.1c-1.2-2.4-3.1-4.7-5.1-6.5c-2.7-2.5-4.8-1.6-5.3,2
		C495.2,399.8,495.1,402.3,494.8,405.7z M148.1,491.4c-2-0.2-2-0.3-3.4,0.5c-5,2.9-10.3,4.8-15.9,6.2c-2.1,0.5-4.2,1-6.3,1.6
		c-2.1,0.5-2.8,1.5-2,3.4c1.1,2.8,2.3,5.6,3.9,8.1c2.1,3.3,5.7,4.7,9.3,4.5c2.9-0.1,5.9-1.2,8.6-2.5c4.1-1.9,6.3-5.6,7.3-9.9
		c0.5-2.1,0.6-4.2-2-5.6c-1.8-1-1.8-2.7-0.6-4.5C147.4,492.7,147.7,492.1,148.1,491.4z M78.3,499.6c0.7,0.3,1.2,0.7,1.7,0.8
		c2.1,0.3,4.1,0.5,6.2,0.6c13.9,0.9,27.6-0.7,40.8-5c7-2.3,13.8-5.2,20.5-8.1c2.1-0.9,3.9-2.6,5.8-4.1c1-0.8,1.1-1.9,0-2.9
		c-1.8-1.5-5.3-2.1-7.2-0.6c-4,2.9-8.7,4.4-13.2,6.1c-11.8,4.7-23.8,8.4-36.5,9.9c-4.5,0.5-9.1,1-13.6,1.5
		C81.2,498.1,79.6,498.2,78.3,499.6z M296.2,492.3c-2.7-1.1-5-2-7.4-2.8c-0.7-0.2-1.6-0.1-2.4,0c-5.1,1-10.1,2-15.2,3.1
		c-11.4,2.5-22.9,3.3-34.6,2.6c-4.9-0.3-9.7-0.7-14.4-2.3c-6.3-2.2-12.2-5.2-16.8-10.2c-1.7-1.9-3.6-2.5-6.6-1.1
		c1.2,0.9,1.9,1.7,2.8,2.2c4.2,2.7,8.3,5.6,11.5,9.4c2.2,2.6,4.6,3.3,7.8,3.4c17.6,0.5,35.2,1.1,52.8,1.8c3.8,0.2,7.6,0.7,11.4,1.3
		c2.3,0.3,4.3-0.2,5.9-2C292.6,496,294.2,494.4,296.2,492.3z M379.9,419.8c5.1,0,10.3,0.1,15.4,0c1.8,0,2.3-0.8,1.9-2.8
		c-0.7-3.9-1.4-7.7-0.5-11.6c-0.7-0.2-1.1-0.4-1.5-0.4c-5.8,0-11.6,0.1-17.3,0.2c-0.3,0-0.6,0-0.9,0.1c-1.2,0.3-1.8,0.9-1.4,2.2
		C377,411.6,378.4,415.6,379.9,419.8z M385.4,223.2c1.5,0.6,2.5,0.2,3.1-0.9c0.5-1,1-2.1,1.4-3.1c2.5-6.7,2.4-13.6,1.6-20.5
		c-0.4-3.4-1-6.7-1.8-10.1c-0.3-1.4-0.8-3.1-3-3.7c-0.5,0.8-1.4,1.7-1.6,2.7c-0.8,3.2-2.8,5.5-5.1,7.6c-0.5,0.4-0.8,0.9-1.3,1.5
		c0.8,1,1.6,1.9,2.3,2.9c2.3,3,4.1,6.2,4.1,10.2c0,3.4,0.2,6.8,0.3,10.2C385.4,221,385.4,222.1,385.4,223.2z M515.4,603.8
		c1.4-0.1,2.3,0,3-0.3c3.8-1.3,7.6-2.6,11.4-4c1-0.4,2-1,3-1.7c2.8-2,2.9-3.8,0.4-6c-1.3-1.1-2.9-2-4.4-2.8
		c-0.8-0.4-1.8-0.6-2.6-0.3c-3.8,1.2-7.7,2.3-11.4,3.8c-1.6,0.6-3.1,1.8-4.2,3c-2.3,2.4-1.6,5.7,1.4,7.2
		C513.1,603.4,514.6,603.6,515.4,603.8z M354.4,366.4c-4.8-1.2-9.6-2.4-14.8-3.6c0.2,5.2,0.3,10.3,0.6,15.3c0.1,0.9,0.7,2.1,1.4,2.5
		c2.5,1.3,5.2,2.4,7.5,3.4C351,378,352.7,372.3,354.4,366.4z M117.5,569.8c2.9-1.5,5.5-2.7,8.1-4.2c0.5-0.3,1-1.1,1.2-1.7
		c1.4-4,2.8-8,3.9-12.1c0.8-2.9,1.4-5.9,1.4-9c-2.4,0.5-4.5,0.9-6.8,1.3c-1.1,4.2-2.2,8.5-3.5,12.7
		C120.6,561.1,119.1,565.2,117.5,569.8z M375.6,377.2c0.2,0.2,0.4,0.3,0.5,0.5c0.6-0.2,1.2-0.2,1.7-0.5c2.3-1.2,4.3-0.4,6,1.2
		c1.1,1,2,2.4,2.9,3.6c0.8,1,1.4,2.1,2.3,2.9c2.8,2.4,6.4,1.6,8.4-1.7c-1.2-1.1-2.5-2.1-3.7-3.3c-1.1-1.2-2.6-2.5-2.9-3.9
		c-0.9-3.9-3.7-5-6.9-5.7c-3.6-0.8-4.4-0.5-6.3,2.8C376.8,374.4,376.3,375.9,375.6,377.2z M374.6,374.7c-6.4-1.5-12.4-2.8-18.5-4.2
		c-1,2.8-1.9,5.4-2.9,8.2c6.4,0.8,12.4,1.5,18.6,2.2C372.7,378.9,373.5,377,374.6,374.7z M352.9,380.2c-0.3,0.9-0.5,1.5-0.7,2.2
		c-0.1,0.4-0.3,0.8-0.2,1.2c0.2,0.8,0.2,1.7,0.7,2.2c4.4,3.9,9.7,5.2,15.6,5.1c1-2.7,2.1-5.2,2.2-8.4
		C364.7,381.8,359,381,352.9,380.2z M344.2,549c-0.5,0.3-1.7,0.7-2.2,1.5c-1.3,2-2.5,4.1-3.2,6.3c-1,3,0.8,5.3,3.9,5
		c3-0.2,5.9-1.2,8.4-3c1.5-1.1,1.9-2.5,1.4-4.1C351.6,552.3,347.4,549.1,344.2,549z M386.6,393.6c-1.9-0.5-3.5-1.4-5-1.3
		c-2.9,0.3-5.5,0.2-7.9-1.7c-0.9-0.8-2.2-0.9-3,0.3c-0.7,1-0.2,2.2,1.2,3c0.5,0.3,1.1,0.5,1.7,0.8c1.9,1,3.8,1.9,5.7,3.1
		c2.5,1.5,4.2,1.5,6.5-0.3c0.5-0.4,0.9-0.7,1.4-1.2c1.3,1.4,2.5,2.7,3.8,4.1c2.2-2.9,2.6-7.1,1-9.6c-0.4-0.6-0.9-1.2-1.5-1.5
		c-1.8-1.1-3.6-0.3-3.8,1.8C386.6,392,386.6,392.9,386.6,393.6z M358.1,194.9c-2-3.2-3.7-6.1-5.6-8.9c-1.7-2.5-3.4-2.5-5.3-0.4
		c-2.5,2.7-5.1,5.5-7.6,8.2c-0.4,0.4-0.6,0.9-1.4,2C345.2,195.5,351.5,195.2,358.1,194.9z M386.7,386.2c-1-1.5-2-2.9-3-4.4
		c-0.4-0.5-0.8-1-1.2-1.4c-2.9-2.7-7.7-1.8-9.2,1.8c-0.7,1.7-1,3.5-1.5,5.1c1.9,0.9,3.4,1.6,4.8,2.3c0.5,0.2,1,0.4,1.5,0.4
		c2.2,0,4.5,0,6.9,0C385.4,389.1,386,387.8,386.7,386.2z M360.4,362.3c-1.8,1.3-2.6,3-3.2,4.9c-0.4,1.5,0,2.5,1.5,2.8
		c4.7,1,9.4,2.1,14.2,2.9c2.5,0.4,3.2-0.6,3.1-3.3c-2.6-1.1-5.3-2-7.8-3.2C365.7,365.2,363.2,363.7,360.4,362.3z M356.2,151.5
		c-2.4-1.7-3.5-2.3-6.5-2.6c-4-0.5-8-0.8-12-1.2c-3-0.3-5.6,0.9-9,2.1c1.7,0.4,2.7,0.7,3.8,1c2.7,0.6,5.5,1.1,8.2,1.8
		C345.9,153.9,350.9,153.5,356.2,151.5z M72.8,421.8c-0.1,0.1-0.2,0.1-0.4,0.2c1.4,3.1,2.7,6.1,4.1,9.2c1.4,3,3.2,5.8,4.6,8.8
		c1.4,3,2.5,6.2,3.9,9.6c1.8-0.7,3.5-1.4,5.1-2.1C84.2,438.7,78.5,430.2,72.8,421.8z M94.4,541.7c-0.6-0.7-0.7-1-0.9-1.1
		c-7.3-4.8-12.3-11.6-17.1-18.6c-0.5-0.7-0.9-1.4-1.4-2c-1-0.9-2-0.9-3,0.2C77.1,529.5,83.4,537.6,94.4,541.7z M134.4,547.6
		c-0.2,0.1-0.4,0.1-0.6,0.2c-1.4,5.1-2.9,10.2-4.5,16c2.7-1.9,5-3.3,7-5.1c0.6-0.5,1.1-1.9,0.9-2.7
		C136.4,553.1,135.4,550.3,134.4,547.6z M415.3,400.9c0-0.2,0-0.3,0-0.5c-6.5-1.1-13-2.2-19.6-3.3c-0.4,1.7-0.8,3.2-1.2,5
		C401.6,401.7,408.4,401.3,415.3,400.9z M301.9,161.3c-4.2,3.2-7.6,6.6-10.5,11.4C297,170.4,301.6,168.1,301.9,161.3z M382,401.9
		c2.2,1.2,3.9,0.3,5.9,0C386.1,400,385.4,400,382,401.9z M356.4,393.7c1.8,0,3.1,0,5,0C359.5,392.7,358.3,392.6,356.4,393.7z
		 M347.6,420.5c-0.2,0-0.4-0.1-0.6-0.1c-0.2,0.6-0.8,1.4-0.6,1.9c0.2,0.5,1.1,0.7,1.6,1.1c0.1-0.2,0.3-0.3,0.4-0.5
		C348.1,422.1,347.9,421.3,347.6,420.5z"/>
	<path class="st0" d="M68.1,628.7c-1-0.5-1.7-0.7-2.2-1.2c-9.5-8-16.6-17.5-19.6-29.8c-2.4-9.6-2.5-19-1.5-28.7
		c0.9-8.9,2.5-17.6,5.4-26.1c0.4-1.3,0.5-2.9,2.2-3.6c-0.9,8.8,2.6,16.1,7.8,22.7c5.4,6.9,12.7,11.1,21.3,13.2
		c18.7,4.5,37.3,4.5,56.1,0.3c9.6-2.2,19.1-4.6,28.3-8.1c14.2-5.5,26.7-13.7,38.2-23.5c5-4.3,9.7-9,14.8-13.2
		c3.7-3,7.7-5.6,11.7-8.2c2-1.3,4.2-1,6.5-0.2c6.9,2.3,13.7,4.7,20.8,6.3c5.9,1.3,12.1,1.6,18.2,2.3c11.9,1.4,23.9,2.7,35.8,4.4
		c5.9,0.9,11.8,2.3,17.6,4c4.7,1.3,8.8,4,13.1,6.7c-0.7,0.8-1.2,1.3-1.5,1.9c-1.4,2-3.2,3.9-4.1,6.2c-2.2,5.5,1.2,10.1,7.1,10
		c3,0,5.4-1.3,7.6-3.2c1.5-1.3,2.7-2.8,4.3-4.5c1.5,1.7,2.8,3.1,4,4.6c4.2,4.9,7.7,10.3,10.3,16.2c4.7,10.7,5.2,21.4,0.4,32.2
		c-0.9,2.1-1.9,4.2-2.8,6.2c-3.7,8-9.6,13.9-17.1,18.4c-8.8,5.2-18.4,8.7-28.1,11.4c-12.5,3.6-25,6.8-37.9,8.4
		c-8.6,1.1-17.3,1.7-26,2.3c-17.1,1.1-34.2,0.5-51.3,0.2c-4.1-0.1-8.3,0.1-12.4,0.1c-0.3,0-0.6,0-0.9,0c-4.5,0-4.9-0.5-3.7-4.8
		c0.2-0.9,0.5-1.8,0.5-2.7c0.7-11.2,0.1-22.2-3.8-32.8c-0.4-1-0.7-2-1.2-2.9c-5.7-9.1-11.9-17.8-21.4-23.3c-1.6-0.9-3.2-2-4.8-2.9
		c-11.1-6.2-22.7-8.7-35.3-5.8c-7.9,1.8-15.9,3.1-23.1,7c-8.6,4.6-16.2,10.4-22.4,18c-4.5,5.5-7.8,11.7-9.3,18.8
		C69.1,626.1,68.6,627.3,68.1,628.7z"/>
	<path class="st0" d="M262.8,286.4c-2.3,1.3-2.5,3-2.5,4.8c-0.2,7-0.5,14.1-0.5,21.1c-0.1,11.4-0.2,22.8,0.2,34.2
		c0.4,10.5,1.4,20.9,2.3,31.3c0.4,5.3,3,9.4,7.7,12c14,7.6,28.2,15,43.5,19.8c2.1,0.7,4.2,1.2,6.3,1.6c2.3,0.5,3.8,1.6,3.9,4.1
		c0.1,2.6,1.9,3.5,4,4.1c1.5,0.4,2.9,0.8,4.8,1.3c-0.7,1-0.9,1.7-1.4,2.1c-0.9,0.7-1.9,1.3-2.9,1.8c-11.5,5-22.8,10.3-35.1,13.2
		c-17.3,4.1-34.5,4.1-51.5-1.6c-3.4-1.1-6.6-2.4-9.4-4.7c-2.3-1.9-3.5-4.2-3.6-7.3c-0.1-12.2-0.2-24.5-0.4-36.7
		c-0.4-26.8,4.9-52.5,14.9-77.3c6.1-15.1,12.7-30,21.3-43.9c2.2-3.6,4.8-7,7.6-10.2c2.6-2.9,4.7-2.4,5.9,1.3
		c2.4,7.7,7.2,13.7,12.6,19.4c8.7,9.2,19.1,15.5,31.5,18.3c4.7,1,9.4,1.4,14.2,0.6c1-0.2,2.1-0.2,3.1-0.2c3.1,0,4,1,3.5,4
		c-0.2,1.3-0.6,2.6-0.8,4c-1.2,8.3-2.7,16.6-3.6,24.9c-1.3,11.7-1.7,23.4-1.3,35.1c0.1,3.6,0.5,7.2,0.7,10.9
		c0.2,4.4-0.8,5.1-4.8,3.6c-10-3.7-20-7.5-30-11.2c-2.7-1-4.2-2.7-4.7-5.6c-1.4-7.6-3-15.3-4.2-22.9c-1.6-10.4-2.9-20.9-4.3-31.4
		c-0.3-2.1-0.6-4.1-2.4-5.6c-1.4,1.1-1.3,2.5-1.2,3.9c1.3,10.3,2.4,20.6,4,30.8c1.3,8.7,3.1,17.3,4.5,26c0.6,3.6,2.3,5.6,5.7,6.9
		c9.6,3.4,19,7.1,28.5,10.7c1.5,0.6,2.9,1.4,4.5,2.2c-0.6,1.2-1,2-1.4,2.8c-3.1,5.7-5.5,11.6-6.4,18.1c-0.9,6-2.8,7.2-8.4,5.1
		c-5.4-2-10.7-4.4-16-6.7c-6.1-2.6-12.2-5.3-18.3-7.9c-0.9-0.4-1.9-0.9-2.8-1.3c-8.7-3.9-12.9-10.7-14.1-20
		c-2.9-21.9-3.3-43.8-3.1-65.8c0.1-5.7,0.1-11.4,0.2-17.1C263,288.3,262.9,287.6,262.8,286.4z"/>
	<path class="st0" d="M492,567.2c-1.4,1.5-2.5,2.9-3.7,4.2c-6.2,6.6-9.4,14.5-9.6,23.6c-0.3,11.2,1.3,22,7.9,31.4
		c9.4,13.4,22.7,19.2,38.8,17.5c15.9-1.7,27.6-10.1,34-25.1c2.1-4.9,2.9-10.1,3-15.5c0-2.4,0.2-4.7,0.3-7.1c0-0.8-0.3-1.6-0.6-2.4
		c-1.9-5.4-3.8-10.7-5.8-16.1c-0.3-0.9-1-1.7-1.7-2.5c-0.4-0.6-1.1-1-1.5-1.5c-9.3-10.6-21.4-14.5-35-14.5c-5.1,0-4.2,1.1-6.5-4.2
		c-2.6-6-5.1-12-7.6-18.1c-1.6-3.9-0.9-5.7,2.9-7.5c1.9-0.9,4.1-1.4,6.2-1.7c3.1-0.4,6.2-0.8,9.3-0.6c4.2,0.2,8.5,0.5,12.6,1.3
		c8.1,1.6,15.7,4.8,22.3,9.8c6.2,4.7,12.1,9.8,17.8,15c6.4,5.9,10.4,13.3,12.7,21.7c1.4,5,3,9.9,4.4,14.9c0.3,1.2,0.5,2.5,0.5,3.7
		c-0.3,9.5-0.8,19.1-3.3,28.3c-5.8,21.6-19.4,36-40.7,42.8c-14.3,4.6-29.1,5.1-44,3.6c-5.3-0.5-10.2-2.6-14.8-5.3
		c-20.8-12.4-32.9-30.5-35.3-54.7c-2.3-23.2,5.5-43.2,20.8-60.5c3.7-4.2,4.9-3.9,7.4,1.1c2.3,4.7,4.8,9.4,7.2,14.1
		C490.6,564.5,491.2,565.8,492,567.2z M561.6,554.9c-8.5-6.4-9.3-6.8-12.7-6.4c1.9,3.4,5.1,5.1,7.8,7.6c-0.7,0.3-1.3,0.6-2,1
		c1.6,2,3.1,3.8,5.8,4.1c-0.1-0.9-0.1-1.5-0.2-2.2c2,1.5,3.5,3.3,5,5c0.7,0.8,1.6,1.6,2.6,0.7c0.9-0.7,0.5-1.7,0-2.5
		c-0.7-1.1-1.6-2.1-2.4-3.2c0.9,0.3,1.5,0.9,2.3,1.2c0.4,0.2,1.1,0,1.6-0.3c0.1-0.1,0.1-1-0.2-1.3c-2.4-2.7-5-5.1-8.4-6.8
		C561.1,552.7,561.3,553.6,561.6,554.9z M564.2,549.6c1,2.9,3.5,4.8,5,7.4c1.8-1.5,1.9-1.8,1.1-2.8
		C568.7,552.1,566.8,550.4,564.2,549.6z"/>
	<path class="st0" d="M331.1,448.4c-5.5,2.5-10.4,4.8-15.8,7.2c1.7,1.7,3.2,1.5,4.6,1c1.8-0.7,3.6-1.6,5.4-2.4
		c1.4-0.6,2.8-1.4,4.2-2c2.2-0.9,4.5-0.9,6.6,0.3c6,3.4,12.3,6.6,17.4,11.3c2.4,2.1,4.6,4.5,6.4,7.1c3,4.2,3.8,9,1.9,13.9
		c-1.3,3.3-3,6.6-5,9.6c-6.7,10.1-14.6,19.4-22.7,28.4c-2.9,3.2-6.1,6.2-8.9,9.6c-2,2.4-4.2,2.6-6.9,2.1c-4.5-0.9-8.9-1.8-13.4-2.5
		c-9-1.3-18.1-2.6-27.2-2.3c-2.5,0.1-4.9-0.2-7.5-1.8c2.1-2.7,3.9-5.4,5.9-7.8c7.7-9.1,15.5-18.1,23.2-27.2c2-2.4,3.9-4.8,5.7-7.4
		c1.3-1.7,2.3-3.7,2.6-6.3c-2.2,1.7-4.1,3.1-5,5.4c-0.2,0.5-0.5,0.9-0.8,1.3c-2.8,3.9-4.5,4.6-8.9,2.8c-2.2-0.9-4.4-2-6.3-3.3
		c-12.7-8.6-26.9-14.2-41.1-19.7c-2.4-0.9-4.2-2.2-5.2-4.5c-2.8-6.1-5.5-12.3-7.1-18.9c-0.2-0.8-0.3-1.6-0.4-2.4
		c-0.1-2.2,0.7-3.2,2.9-2.8c1.8,0.3,3.7,0.8,5.3,1.6c6.8,3.1,14.1,3.9,21.5,4.5c14.4,1.1,28.3-1.7,41.9-5.9c3.9-1.2,7.3-1,10.7,1.1
		c4.6,2.8,9.2,5.7,13.7,8.5C329.6,447.3,330.3,447.8,331.1,448.4z"/>
	<path class="st0" d="M72.1,639.9c0-6.7,0.9-12.3,2.5-17.8c2-6.8,5.5-12.7,10.8-17.5c3.4-3,6.6-6.4,10.2-9.1c3.1-2.4,6.6-4.4,10.1-6
		c9.5-4.3,19.5-6.2,29.9-6.3c3.9,0,7.6,0.7,11.2,2.2c1.4,0.6,2.9,1.1,4.4,1.5c12.5,4,22,11.9,28.8,22.9c1.6,2.6,2.5,5.7,3.5,8.6
		c2.5,7.9,4.6,15.9,4.1,24.4c-0.6,10.8-3.3,20.8-10.4,29.4c-4.4,5.3-9.1,10.3-14.7,14.2c-2.9,2.1-6.2,3.8-9.6,5
		c-9.3,3.3-19,4.9-29,4.9c-9.6,0-18.4-2.6-26.2-8.3c-5-3.7-9.7-7.6-13.7-12.5c-7.3-8.9-10.2-19.3-11.5-30.3
		C72.3,643.1,72.2,641,72.1,639.9z M170.2,612.4c-0.3-0.3-0.6-0.5-0.9-0.8c-2.1-2.2-4.2-4.5-6.4-6.7c-1-0.9-2.1-1.8-4.1-1.1
		c2.1,1.9,4,3.4,5.7,5.1c1.6,1.7,3,3.7,4.5,5.5c1.5,1.8,2.4,4.3,5,5.4c-0.2-0.8-0.5-1.6-0.7-2.4c0.7,0.5,1.5,1.1,2.3,1.5
		c0.4,0.2,1.1,0.2,1.4,0c0.3-0.2,0.6-0.9,0.4-1.3c-0.2-0.8-0.6-1.5-1.1-2.1c-1.2-1.4-2.4-2.8-3.7-4.1c-0.4-0.4-1.1-0.6-1.9-1
		C170.5,611.3,170.4,611.9,170.2,612.4z M122.6,674.6c2.2-0.2,4.6-0.1,6.8-0.6c6.3-1.2,12.6-2.9,17.4-7.6
		c4.9-4.9,8.7-10.6,10.7-17.3c3.7-12.3,1.6-23.6-7.3-32.9c-8.6-9-19.1-11.7-31.3-8.4c-8.1,2.2-15.3,5.7-21.2,11.7
		c-3.2,3.2-5.5,7-6.6,11.4c-1.2,4.9-1.3,9.8-0.5,14.8c1.5,9,4.7,16.8,12.7,22.2C109.2,671.9,115.4,674.5,122.6,674.6z M169.8,605.2
		c-0.2,0.2-0.3,0.5-0.5,0.7c1,0.7,1.3,2.4,3.9,2.2C171.7,606.8,170.8,606,169.8,605.2z M167.1,614.4c-0.2,0.1-0.4,0.3-0.6,0.4
		c0.7,0.9,1.4,1.8,2.1,2.7C168.5,615.3,168.5,615.3,167.1,614.4z"/>
	<path class="st0" d="M258.6,46.8c0.2-9.7,0.9-17.9,4.7-25.5c2-4.1,4.8-7.4,9.5-8.3c5-1,10-0.5,14.5,1.9c1.5,0.8,2.8,2.4,3.8,3.9
		c2.1,2.9,4.1,6,6,9.1c1.5,2.5,2.9,5,4.4,7.5c1.4,2.4,2.9,4.8,3.9,7.4c1.6,3.9,3.2,7.9,4,12c1.7,8.1,3,16.3,4.5,24.4
		c2.5,13.4,3.2,27,3.9,40.5c0.4,8.4,0.8,16.8,1.3,25.1c0.2,2.6-0.9,4-3.2,4.9c-2.6,1-5.1,2.2-7.7,3.4c-4.4,2-7.8,5-10.8,8.7
		c-0.9,1.1-1.9,2.3-3,3.2c-1.7,1.4-2.6,1.2-3.5-0.9c-1-2.3-1.9-4.6-2.9-6.9c-4.1-10.2-8.8-20.2-12.2-30.6
		c-6.4-19.9-12-40.1-15.2-60.8C259.6,59.1,259.2,52.3,258.6,46.8z"/>
	<path class="st0" d="M376.8,152c-4.4-0.7-8.6-1.3-12.7-2c-1-0.2-2-0.3-3-0.5c-4.6-1.2-9.2-2.5-13.8-3.6c-1.4-0.3-2.2-0.9-2.3-2.4
		c-0.4-4.5-0.9-9.1-1.4-13.6c-1.1-9.4-2.4-18.7-3.5-28.1c-2-16.8-2.4-33.7-1.7-50.6c0.4-10.7,1.5-21.3,3.7-31.8
		c0.9-4,2.7-7.6,5.6-10.6c4-4.3,8.8-5.6,14.4-4.3c1.1,0.3,2.2,0.7,3.3,0.9c4.7,1,7.5,3.9,8.5,8.4c1.1,4.6,2.9,8.7,5.2,12.9
		c1.6,2.9,2.1,6.5,2.6,9.8c3.2,17.9,4,36,3.1,54.2c-0.6,11.7-2.1,23.3-3.9,34.9c-1.2,7.8-2.2,15.6-3.4,23.4
		C377.3,150.2,376.9,151.3,376.8,152z"/>
	<path class="st0" d="M428.1,499.3c-5.2-2.9-10.3-3.1-15.5-2.9c-10.1,0.5-20.3,0.9-30.4,1.5c-5.6,0.3-11.1,1.1-16.7,1.6
		c-1.5,0.1-3.1,0.3-5.2,0.4c0.9-1.8,1.6-3.1,2.3-4.5c0.9-1.7,2-3.4,2.8-5.2c3.6-8.3,2.2-16-2.9-23.2c-3-4.2-6.6-7.7-10.6-10.8
		c-0.5-0.4-1.1-0.8-1.9-1.4c2.4-2.4,5.1-3.8,8-4.9c8.9-3.4,17.8-6.9,26.8-10c7.8-2.7,15.8-4.9,23.8-7c6-1.6,12.1-1.6,18.2-0.4
		c3.3,0.6,5.8,2.2,7.5,5c3.2,5.3,4.5,10.8,3.1,17.2c-3,13.3-5.4,26.8-8.1,40.2C428.9,496.2,428.6,497.5,428.1,499.3z"/>
	<path class="st0" d="M326.1,535.7c1.2-1.8,2.1-3.4,3.2-4.7c2.7-2.8,5.6-5.5,8.5-8.2c1.6-1.5,3.7-1.7,5.8-1.8
		c12.2-0.4,24.4-0.7,36.7-1.2c9.3-0.4,18.6-1.3,27.7-3.3c5-1.1,10-2.7,15-4c0.3-0.1,0.6-0.1,0.9-0.1c1.3,1.2,0.7,2.5,0.3,3.8
		c-3,11.8-6.1,23.7-9.2,35.5c-1.2,4.4-2.4,8.8-3.8,13.1c-3.8,12.3-10.8,17.8-23.7,18.8c-3,0.2-6,0.5-9,0.7c-2.3,0.2-3.1-0.3-3.9-3.1
		c-1.5-5.6-3.8-10.7-7-15.5c-7.2-10.9-16.7-19.2-28.4-25c-2.3-1.1-4.9-1.7-7.3-2.6C330.2,537.6,328.4,536.7,326.1,535.7z"/>
	<path class="st0" d="M62.8,467.8c-2-1.8-3.7-3.3-5.5-4.8c-1.8-1.5-3.7-2.9-5.5-4.5c-3.2-2.9-6.6-5.7-9.6-8.8
		c-6.8-7.1-13.5-14.3-20-21.7c-6.6-7.5-11.9-16-15.4-25.4c-2.2-5.9-3.4-12-2.7-18.3c0.3-3,0.5-6.1,3.4-8c3.7-2.5,7.5-4.9,12.4-3.8
		c3.4,0.8,6.4,2.2,9.4,4.1c3.9,2.4,7.8,4.8,11.5,7.3c1.6,1.1,3.2,2.4,4.5,3.8c7.6,8.5,14.3,17.7,19.9,27.7
		c4.3,7.6,8.3,15.3,11.5,23.4c1.3,3.4,3,6.6,4.5,9.9c0.9,2,0.7,2.9-1.1,4.2c-0.4,0.3-0.9,0.5-1.4,0.8c-5.5,2.5-9.8,6.5-13.4,11.3
		C64.6,465.8,63.8,466.7,62.8,467.8z"/>
	<path class="st0" d="M525.3,585.2c-3.8-7.4-8.9-14.1-10.2-22.6c2.7-1.1,5.2-0.9,7.6-0.5c8.6,1.3,16.6,4.2,23.5,9.8
		c1,0.8,2.5,1.3,3.3,2.2c1.5,1.8,3,3.8,3.8,5.9c2.1,5.3,3.9,10.7,5.6,16.1c0.5,1.7,0.8,3.7,0.6,5.5c-0.6,6-1.4,11.9-4.1,17.4
		c-2.7,5.4-6.3,9.9-11.4,13.2c-6.1,3.9-12.4,7.1-19.6,8.2c-13.3,1.9-24.1-2.5-32.1-13.3c-5-6.8-8.2-14.7-10.1-22.9
		c-0.7-3.1-0.6-6.7-0.1-9.9c1-5.4,2.6-10.7,4.1-15.9c1-3.6,3.3-6.1,6.8-7.8c1.8,1.4,2.8,3.3,3.5,5.4c2.1,6,5.2,11.5,8.4,17
		c1.4,2.3,2,4.7,1.9,7.4c-0.1,5,1.9,7.1,6.9,6.8c7.2-0.4,14.1-2.2,20.4-6c1.3-0.8,2.5-1.9,3.4-3.1c1.4-1.8,1.4-3.8,0.4-5.9
		C536.1,588.6,529.6,585,525.3,585.2z"/>
	<path class="st0" d="M126.5,450.3c-1.8-0.6-3.2-1-4.4-1.6c-8.1-3.8-16.5-4.7-25.2-2.9c-2.7,0.6-4.4,0-6.1-2.2
		c-10.9-14-19.4-29.3-26.6-45.5c-3.4-7.8-6.2-15.8-6.7-24.4c-0.1-2-0.2-4,0.3-5.9c0.9-4,2.8-7.3,6.7-9.2c2.2-1.1,4.4-2.2,6.7-3.3
		c0.6-0.3,1.2-0.6,1.8-0.6c4.7,0.2,9.3,1,12.8,4.4c2.2,2.2,4.2,4.6,6.3,6.9c2.4,2.6,4.5,5.4,5.9,8.7c0.6,1.5,1.5,2.9,2.4,4.4
		c11.2,18.4,19,38.2,24.2,59c0.8,3.2,1.3,6.5,1.9,9.7C126.6,448.4,126.5,449,126.5,450.3z"/>
	<path class="st0" d="M521.8,586.1c-4.3,2.2-8.3,4.3-12.6,6.4c-1.8-3.6-3.6-7.2-5.4-10.8c-8.6-16.9-17.4-33.7-25.9-50.6
		c-9.9-19.7-18.6-40-27.1-60.4c-2.3-5.4-4.1-11-6.4-16.5c-2.4-5.9-5.2-11.8-7.7-17.7c-2.3-5.4-4.6-10.9-6.8-16.4
		c-1.2-3-0.8-4.7,2.1-6.1c3.6-1.7,7.5-3.1,11.2-4.5c1.6-0.6,2.9,0.1,3.7,1.6c0.6,1.1,1.1,2.2,1.4,3.4c1.6,7,4.7,13.5,7.6,20
		c21.7,49.8,43.4,99.5,65.1,149.3C521.3,584.6,521.5,585.3,521.8,586.1z"/>
	<path class="st0" d="M372.5,198.9c3.1-1.4,4.6-1.1,6.3,1c0.2,0.2,0.4,0.5,0.5,0.8c3.6,7.2,5.4,14.6,1.2,22.2
		c-0.8,1.4-1.6,2.8-2.2,4.6c1.1-0.8,2.3-1.6,3.3-2.3c1.4,0.6,2.8,1.1,4.5,1.8c0,0.2,0.1,0.8,0,1.4c-2.5,10.4-6.3,20.2-14.8,27.4
		c-11.7,10.1-25.3,14.5-40.4,10.3c-13.6-3.7-25-11.2-31.4-24.4c-1.9-4-3.2-8.3-4.7-12.2c2.8-0.8,5.6-1.2,8.1-2.3
		c2.7-1.2,3.3-4,3.5-6.9c1.4,2.9,2.4,5.9,5.7,7.2c-3.8-3.5-4.3-8.4-5.2-13c-0.9-4.6,0.3-9.1,3.5-12.8c1.8-2,4.1-3.1,7.3-2.5
		c-1.1,1-2,1.7-2.9,2.6c-4.6,5-5.8,14.4-2.7,20.4c1.8,3.3,4.4,5.5,8.2,6c2.8,0.4,5.6,0.7,8.3,0.5c8.5-0.6,14.5-9,12.3-17.3
		c-1.1-4.4-3.6-7.9-7.2-10.6c-0.7-0.6-1.4-1.1-2.4-1.8c2.2-1.2,4.2-0.8,6.2-0.8c3.7,0,7.5,0.3,11.2,0.2c3.9-0.1,7.7-0.4,12.3-0.6
		c-1.4,1-2.3,1.5-3.1,2.1c-6.2,5-10.6,14.4-3.5,23.6c1.7,2.1,3.7,3.5,6.4,4.2c4.6,1.1,8.9,0.3,12.9-1.9c2.3-1.2,3.7-3.3,4.7-5.6
		c1.6-3.7,1.9-7.6,1.4-11.6c-0.5-3.3-2.1-6-4.8-8C374.2,200.3,373.5,199.7,372.5,198.9z M350.4,249.8c1.3-0.1,2.2-0.1,3.2-0.2
		c3.3-0.4,6.1-1.9,8.2-4.6c1.2-1.6,1.7-3.3,0.9-5.2c-1.4-3.2-3.5-6-6.1-8.3c0.3,1,0.8,1.8,1.4,2.6c1,1.6,2.1,3.1,3,4.7
		c1.4,2.6,1,4.6-1.4,6.2c-1.5,1-3.3,1.8-5.1,2.2c-3.6,0.7-7-0.3-10.1-2.2c-0.8-0.5-1.7-1.1-2.7-1.7c0.7,4.1,1.8,5.1,7.4,6.8
		c-0.5,1.7-1,3.3-1.5,5c-0.2,0.6-0.4,1.1-0.6,1.6c-5.2-0.2-10.1-2.5-13.8-6.8c0.8-1.4,1.6-2.8,2.5-4.6c-3,1.2-5.9,5.4-6.2,8.8
		c0.9-0.9,1.7-1.6,2.7-2.5c0.3,0.4,0.6,0.7,0.8,1c6.6,8,18.1,7,25.3,2.7c0.5-0.3,0.7-1,1-1.5c-3.6,1.2-6.8,3-10.9,2.9
		C349.2,254.2,349.8,252.1,350.4,249.8z"/>
	<path class="st0" d="M102.4,575.9c0.8-0.2,1.5-0.5,2.3-0.7c4.3-1.1,8.8-1.7,12.9-3.3c12.6-4.9,24-11.6,33.6-21.3
		c6.4-6.4,12.3-13.1,17.9-20.3c8.2-10.4,18.2-18.6,30.1-24.6c1.9-1,3.7-1.1,5.6-0.1c1.8,1,3.6,2.1,5.4,3c2.8,1.5,5.6,3.1,8.6,4.3
		c3.1,1.3,6,2.8,8.5,5c2.1,1.8,2.1,2.9-0.4,4.2c-6.3,3-11.3,7.8-15.8,12.9c-8.7,9.8-19.3,16.7-31,22.4
		c-11.3,5.4-22.6,10.9-34.7,14.2c-6.8,1.9-13.7,3.2-20.8,3.6c-4,0.2-8,1-12,1.4c-2.9,0.3-5.8,0.3-8.7,0.4c-0.5,0-0.9-0.2-1.4-0.3
		C102.4,576.4,102.4,576.2,102.4,575.9z"/>
	<path class="st0" d="M228.1,515.5c-0.9-0.5-1.8-0.9-2.7-1.4c-6.1-3.5-12.2-6.9-18.3-10.5c-2.5-1.5-5.1-1.9-7.7-0.6
		c-3.3,1.7-6.6,3.4-9.7,5.5c-8.5,5.9-15.9,13.2-23,20.9c-7.2,7.8-14.2,15.7-22.3,22.5c-1.1,0.9-2.3,1.8-3.6,2.4
		c-1,0.5-2.1,0.3-2.6-0.9c-1.6-3.7-3.3-7.3-5-11.2c0.4-0.4,0.8-0.9,1.3-1.2c10.1-5.4,16.4-13.8,18.7-25c1.8-8.9,1.8-17.9-0.8-26.7
		c-0.4-1.3-0.2-2.2,0.9-2.9c0.8-0.6,1.7-1.2,2.4-1.9c1.8-1.8,1.7-3.1-0.3-4.5c-0.8-0.5-1.6-0.9-2.4-1.4c-0.7-0.4-1.4-0.9-2-1.5
		c-1-1.1-2.4-2.4-1.9-4c0.5-1.6,2.4-1.4,3.8-1.5c10.4-1.1,20.1,1.4,29.6,5.5c9.5,4.2,17.9,10,25.6,16.9c6.3,5.7,12.2,11.8,18.2,17.8
		c0.9,0.9,1.6,2.1,2.4,3.2C228.4,515.2,228.3,515.3,228.1,515.5z"/>
	<path class="st0" d="M376.8,588.4c2.3-0.3,4.5-0.6,6.6-0.8c4.2-0.4,8.5-0.5,12.7-1.2c5.6-0.8,10.1-3.9,12.9-8.8
		c2.1-3.5,4-7.3,5.1-11.3c4.5-16.4,9.1-32.7,13-49.3c4.6-19.8,8.5-39.7,12.7-59.6c0.2-0.8,0.4-1.5,0.8-2.9
		c3.2,6.4,6.6,12.1,7.6,18.8c0.3,2.2,0.2,4.6-0.3,6.8c-8,31.9-16.1,63.9-24.3,95.8c-0.8,3.3-2,6.5-3.3,9.7
		c-3.6,8.6-9.9,13.5-19.4,14.2c-4.4,0.3-8.8,1.2-13.2,1.7c-2.5,0.3-5,0.4-7.4,0.4c-3.3-0.1-4.4-1.2-4.2-4.4
		C376,594.5,376.4,591.6,376.8,588.4z"/>
	<path class="st0" d="M283.1,487.3c-3.5,0.6-6.9,1.2-10.4,1.7c-9.8,1.3-19.5,2.2-29.4,2.2c-7,0-13.9-0.6-20.5-2.8
		c-4.2-1.4-8.2-3.4-12.1-5.5c-1.8-1-3.3-2.8-4.6-4.5c-3.5-4.4-6.3-9.2-7.4-14.9c-1-5.2,0.6-8.9,5.1-11.6c3.4-2,6.9-3.1,10.9-2.3
		c4.8,0.9,9.6,1.5,14.4,2.3c3.1,0.5,5,2.2,5.9,5.2c1.8,6.5,6.2,10.5,12.3,13.1c8.4,3.6,16.7,7.3,25,11c3.7,1.7,7.3,3.6,11,5.4
		C283.1,486.9,283.1,487.1,283.1,487.3z"/>
	<path class="st0" d="M87,452.1c2.7,2,4.5,4.5,5.9,7.5c3,6.3,4.9,12.9,6.9,19.6c0.7,2.6,1.7,5.1,2.6,7.6c0.3,1,0.8,1.9,1,2.9
		c0.9,3.3,0.2,4.5-3.1,4.9c-4.6,0.6-9.3,0.9-13.9,1.3c-2.5,0.2-5,0.4-7.4,0.8c-2.5,0.4-3.3,1-3.4,3.6c-0.1,3.5,0,7,0.3,10.5
		c0.4,6-1.7,7.9-7.4,6.5c-0.9-0.2-1.8-0.5-2.7-0.7c-3.6-0.9-6.1-3.3-7-6.8c-0.8-3.4-1.4-6.9-1.5-10.4c-0.1-7.3,1.2-14.4,3.5-21.4
		c2.9-8.5,8.4-14.9,15.8-19.7C79.9,456.3,83.4,454.3,87,452.1z"/>
	<path class="st0" d="M78.9,511.7c1,1.4,1.8,2.4,2.6,3.5c2.7,4,6.5,6.4,11.2,7.2c3.9,0.7,7.8,0.8,11.7-0.4c8.1-2.4,12.2-10,9.8-18.1
		c-0.2-0.6-0.3-1.2-0.6-2.1c1.1-0.4,2-0.7,3-1c1.4-0.3,2.4,0.2,2.8,1.7c0.3,1.1,0.7,2.2,1,3.3c2.2,9.5,13,12.8,20.2,10.1
		c6.4-2.4,10-6.8,10.4-13.7c0.2-3.6,0.5-7.3-1.7-10.6c-0.3-0.5-0.1-1.3-0.1-1.9c0.2-0.1,0.5-0.1,0.7-0.2c0.4,1.1,1,2.1,1.3,3.2
		c2.1,9.4,1.4,18.6-2.2,27.5c-3.7,9.3-9.7,16.9-19,20.8c-10.6,4.4-21.4,5.5-32-0.5c-8.8-4.9-15.2-12-20.4-20.4
		c-0.5-0.7-0.7-1.8-0.5-2.6C77.3,515.8,78.1,514,78.9,511.7z M126.2,531.3c-0.9,0.6-1.9,1.2-2.5,1.6c0.9,0.5,2,1,3.1,1.7
		c1.9,1.1,8-1.3,8.5-3.4c0.1-0.2,0.1-0.4,0-0.6c-0.3-2.2,1.1-3.4,2.6-4.6c1.1-0.9,2.3-1.7,3.4-2.7c1-0.9,1.9-1.9,1.2-3.5
		c-1.9,0.8-1.8,0.9-3.4,3c-1.7,2.2-3.2,4.6-6.6,4.5c-0.5,0-1.1,0.6-1.6,0.8c-0.6,0.3-1.3,0.8-2,0.8c-1.8,0-2.5,1.1-3,2.5
		L126.2,531.3z M119,525.4c-0.2,0.2-0.3,0.4-0.5,0.5c0.9,0.6,1.7,1.5,2.6,1.7c2,0.3,4.2,0.5,6.2,0c1.7-0.4,3.1-1.9,4.6-3
		c1.2-1,1.4-2.4,0.7-3.7c-0.7-1.3-1.4-2.7-3.6-2.4c0.8,1.3,1.4,2.3,2,3.3C128,526.1,123.8,527.4,119,525.4z M120.5,533.5
		c-3.1-0.4-6.3-0.6-9.4-1.3c-3.1-0.7-6.2-1.8-9.2-2.7C105,532.6,112.9,534.5,120.5,533.5z"/>
	<path class="st0" d="M506.5,439.8c-1.7,0.7-2.6,1.2-3.6,1.5c-4.6,1.5-9.3,3-14.2,3.1c-0.3,0-0.6,0-0.9,0.1
		c-7.7,2.3-14.5-0.5-21.2-3.6c-1.6-0.7-3-1.8-4.3-3.1c-3.5-3.5-4.9-7.8-3-12.5c1.8-4.5,3.7-9.1,6.4-13c2.1-3,5.5-5.2,8.6-7.4
		c2.6-1.8,5.6-3.2,8.5-4.6c3.1-1.5,6.2-2.9,9.6-4.4c-0.2,1.9-0.4,3.4-0.5,4.9c-0.4,8.4,1,16.5,3.7,24.5c1.8,5.4,4.8,10.1,9.3,13.7
		C505.1,439.2,505.5,439.3,506.5,439.8z"/>
	<path class="st0" d="M348.1,275.7c2.1-1.9,2.7-3.2,3.4-6.9c3.1-0.7,6.1-1.5,9.3-2.3c1.5,2.6,0.9,5.1-0.6,7.5c-1,1.5-2.3,3-3.7,4.2
		c-3.7,3.1-6.6,6.7-8.8,11.1c-2.3,4.8-5.6,6.1-11.2,5c0-0.5,0-1.1,0-2.2c-1.8,2.3-3.8,2.5-6.1,2c-1.4-0.3-2.9-0.1-4.3-0.2
		c-2.4-0.1-4.7-0.5-7-2c0.2-0.8,0.4-1.6,0.8-2.9c-0.9,1.1-1.5,1.8-2.1,2.6c-8.3-2.2-14.9-7.2-21.7-12.4c4.5-7.2,9-14.3,13.5-21.5
		c6.6,5.7,14.1,9,22.6,10.8c-1.9,3.1-3.6,5.9-5.3,8.7c0.2,0.1,0.4,0.3,0.6,0.4c1.4-2,2.9-4,4.1-6.1c1.2-2.2,2.6-2.9,5-2.4
		c3.8,0.8,7.6,0.7,11.4,0.1c0.7-0.1,1.4-0.1,2.6-0.2C349.8,271.4,349,273.6,348.1,275.7c-0.7,0.9-1.5,1.8-2.3,2.6
		c0.2,0.1,0.4,0.3,0.6,0.4C347,277.7,347.5,276.7,348.1,275.7z M345.1,280c-0.2-0.1-0.3-0.3-0.5-0.4c-1.6,1.3-2.8,3-3.3,5.1
		C342.6,283.1,343.8,281.6,345.1,280z"/>
	<path class="st0" d="M219.4,499.4c1.3-0.1,2.4-0.3,3.4-0.1c9.2,1.2,18.4,1.2,27.6,0.9c8.3-0.3,16.5,0.8,24.8,1.7
		c2.4,0.3,4.7,0.4,7.1,0.7c1.1,0.1,2.2,0.3,3.6,0.6c-0.7,1.1-1.1,1.8-1.6,2.4c-5.3,6.6-10.6,13.2-15.9,19.9c-1.3,1.7-2.8,2.4-5.1,2
		c-8.5-1.4-16.7-3.8-24.9-6.5c-2-0.7-3.8-1.8-4.9-3.6c-4-6-8.4-11.9-13.7-16.8C219.6,500.4,219.6,500,219.4,499.4z"/>
	<path class="st0" d="M325.8,151.3c2.1,0.4,6.3,1.2,10.4,2.2c4.8,1.1,9.5,2.2,14.4,1.6c2.7-0.3,5.3-1,7.9-1.5c2-0.4,4-0.9,6.1-1.1
		c4.2-0.5,7.8,1,10.8,3.8c1.1,1.1,2.2,2.2,3.1,3.5c4.7,7.2,6.7,15.1,5.7,23.7c-1.1,9-9.5,14.7-18.3,12.8c-2.7-0.6-5.1-1.8-6.9-3.9
		c-1.6-1.8-2.9-3.8-4.2-5.7c-0.8-1.2-1.5-2.5-2.5-3.6c-1.7-1.8-3.6-1.9-5.4-0.1c-1.4,1.3-2.5,2.7-3.9,4.1c-1.3,1.3-2.6,2.7-4,3.9
		c-6.7,5.8-14.4,7.1-22.7,4.9c-10.4-2.7-16.6-13.4-14.6-24.5c0.4-2,0.9-4,1.7-6C306.7,156.3,314.2,151.2,325.8,151.3z M379.3,178.3
		c0-5.2-1-9.7-3.1-13.8c-3.1-6.1-7.5-8.4-14.3-7.3c-3.1,0.5-6.1,1.1-9.1,1.9c-5.3,1.3-10.5,1.2-15.6-0.6c-2.1-0.7-4.1-1.3-6.2-1.9
		c-3.6-0.9-7.2-1-10.8-0.1c-6.7,1.7-11,6-12.6,12.8c-1.6,7.1,0.1,13.4,5.5,18.4c2.2,2,4.9,3.1,7.9,3.2c7.5,0.3,13.9-2,18.2-8.6
		c1.2-1.8,2.5-3.6,4-5.2c3.6-3.8,7.2-3.6,10.5,0.4c1.4,1.7,2.5,3.5,3.8,5.3c1.9,2.7,4.1,5.2,7.2,6.7c5.1,2.5,10.3,0.8,13-4.2
		C378.9,183.1,379.5,180.5,379.3,178.3z"/>
	<path class="st0" d="M87.6,554.9c1.4-5.2-2.2-9.2-3.8-14.1c1.8,1,3.2,1.9,4.7,2.7c1.2,0.6,2.4,1.1,3.7,1.6c2.1,0.8,2.3,1.1,1.5,3.2
		c-0.7,1.7-1.3,3.5-2.1,5.2c-2.3,4.8-2.2,9.8-2.2,14.9c0.1,5.2-0.7,5.8-5.7,4.4c-2-0.6-4-1.1-6-1.6c-5.8-1.3-10.6-4.2-14.3-8.8
		c-5.8-7.1-8.9-15.3-8.9-24.6c0-6.3,5.4-12.9,13.9-12.2c1.7,0.1,2.8,1.2,3.8,2.4c2.3,2.9,4.8,5.7,7.1,8.6c0.4,0.5,0.6,1.2,0.8,1.9
		c0.6,1.4,0.8,3.1,1.7,4.2c2.1,2.9,3.4,6.1,4.2,9.6c0.2,1,0.6,1.9,0.9,2.8C87.1,555,87.4,555,87.6,554.9z M59.1,536.8
		c2.4,2.2,4.7,4.2,6.8,6.4c2.1,2.1,4.3,4.2,6.1,6.6c1.9,2.4,3.5,5.1,5.3,7.6c1.7,2.5,2.5,5.5,4.8,7.7c-0.4-2-1.2-3.9-1.8-5.8
		c-3.2-9.9-10.8-16.2-18.2-22.6C61.4,536.2,60.6,535.5,59.1,536.8z"/>
	<path class="st0" d="M344.2,517.2c3.3-4.7,6.7-9.5,12-12.2c2.2-1.1,4.9-1.5,7.5-1.8c16.4-2.1,32.9-3.6,49.5-3.9
		c3.4-0.1,6.8,0.3,10.1,1c4.1,0.9,5.1,4.1,2.6,7.5c-0.4,0.5-1.1,0.9-1.7,1.2c-9.3,3.3-18.9,5.3-28.8,6.2c-11.2,1-22.5,1.5-33.8,2.1
		c-5.7,0.3-11.4,0.4-17.1,0.6C344.4,517.6,344.3,517.4,344.2,517.2z"/>
	<path class="st0" d="M395.3,393.5c0.3-1.6,0.5-3,0.8-4.4c0.1-0.5,0.4-1.1,0.8-1.2c2.1-1,3-2.7,3.5-5.1c4.9,1,9.7,1.8,14.4,3.1
		c7.3,1.9,14.5,4.2,21.8,6.3c1.5,0.4,2.9,1.1,4.2,1.9c4.4,2.7,4.8,5.8,2.4,10c-0.9,1.6-2.4,2.8-3.9,4c-3.2,2.6-6.9,4.1-10.8,5.4
		c-8.3,2.6-16.8,4.5-25.5,5.5c-1,0.1-2.1,0-3.3,0c-1.5-4.5-1.5-9-0.7-14c1.2,0,2.4,0,3.5,0c6.6,0.1,13-0.8,19.3-2.8
		c1.3-0.4,2.5-1.3,3.6-2.2c0.4-0.3,0.2-1.3,0.3-2c-0.6,0-1.3-0.2-1.9-0.1c-1.2,0.1-2.4,0.5-3.6,0.4c-7.9-1.3-15.7-2.7-23.6-4.1
		C396.2,393.9,395.9,393.7,395.3,393.5z"/>
	<path class="st0" d="M367.1,443.3c-6.9,3.2-13.1,6-19.2,8.9c-2.2,1.1-4.2,0.9-6.1-0.4c-1.1-0.7-2.2-1.5-4.2-2.7
		c1.3-0.4,2.2-0.7,3.4-1.1c-1.1-0.7-1.3-0.9-1.3-0.9c-3.5,1.2-6.4,0.1-9.3-1.8c-5.5-3.5-11.1-6.7-17.1-10.3c1.2-0.7,2.1-1.5,3.2-1.8
		c4.8-1.4,9.1-3.9,13.6-6.1c2.9-1.4,5.8-2.7,9.1-2.8c2.2-0.1,4.4,0.2,6.2,1.6C352.3,431.5,359.3,437.1,367.1,443.3z"/>
	<path class="st0" d="M352.6,426.2c1.2,0.2,2.4,0.2,3.5,0.5c3.8,1.1,7.5,1.3,11.1-1c1.5-0.9,3.2-0.9,4.8-0.2
		c0.9,0.4,1.8,0.6,2.6,0.9c2,0.6,3.7,0.2,5-1.5c1.5-2,3.4-2.4,5.7-2.4c12.2,0.1,24.2-0.8,36-3.9c3.3-0.9,4.2-0.4,5.6,2.7
		c1.2,2.6,2.2,5.3,3.5,8.6c-1.6-0.2-2.8-0.2-3.9-0.6c-6.5-2.1-13-1.3-19.3,0.5c-10.8,3.1-21.8,6-32.1,10.7c-3.2,1.5-5.9,1.1-8.6-1.2
		c-4.1-3.6-8.4-7.1-12.6-10.6c-0.6-0.6-1.2-1.3-1.7-1.9C352.4,426.7,352.5,426.4,352.6,426.2z"/>
	<path class="st0" d="M299.8,184.5c3.7,4.3,7.2,8.3,10.8,12.5c-0.5,0.6-1,1.3-1.6,1.8c-3,2.7-4.4,6.2-4.9,10.1
		c-0.4,3.3-0.7,6.6-0.8,9.9c-0.1,5.5-3.9,8.6-9.2,7.3c-4.9-1.2-8.1-4.5-9.9-9.1c-2.3-6.1-2.5-12.5-1.3-19c0.6-2.9,2.6-4.9,5-6.4
		C291.8,189.2,295.7,187,299.8,184.5z"/>
	<path class="st0" d="M291.5,247.7c0.8-1,1.6-2,2.3-3.1c0.7-1,1.2-2.1,2.1-3.6c3.6,6.4,7.8,11.7,12.9,16.1c-4.6,7.1-9,13.9-13.6,21
		c-0.5-0.3-1.1-0.6-1.6-1.1c-6.6-5.9-11.7-12.9-14.6-21.3c-0.5-1.5-0.9-3-1.1-4.5c-0.3-2.3,0.3-4.3,2.1-5.9
		c3.5-3.2,5.9-7.1,7.5-11.6c0.7-1.9,1.5-3.9,3.7-5c2,3.3,3.1,6.8,3.6,10.5c0.1,0.9-0.4,2-0.8,2.9C293.2,244,292.4,245.9,291.5,247.7
		c-0.4,0.6-0.9,1.1-1.3,1.6c-2.1,3.2-4.3,6.3-6.4,9.5c-0.4,0.5-0.7,1.1-1.4,2.2c2.1-0.7,2.9-1.9,3.6-3.1c1.3-2.2,2.6-4.4,3.9-6.7
		C290.5,250.1,291,248.9,291.5,247.7z"/>
	<path class="st0" d="M379.7,402.1c-2.2,0.6-3.7,1.9-5.6,0.1c-1-1-2.4,0.1-2.3,1.6c0.1,0.7,0.3,1.4,0.5,2.1
		c1.8,5.8,3.6,11.7,5.3,17.5c-1.8,1.3-3.1,1.2-5.1-0.4c-0.8-0.6-1.5-1.5-2.3-2c-1.1-0.7-2.1-0.3-2.1,1.1c0,1.1-0.4,1.5-1.2,1.8
		c-4.7,1.7-9.4,1.6-13.6-0.8c-3.8-2.2-5.3-6.2-5.9-10.5c-0.5-3.8,0.4-7.4,1.9-10.9c0.2-0.4,0.3-0.8,0.5-1.1c2-4.7,2-4.7,7-4.4
		c3.2,0.2,6.4,0.4,9.6,0.6c2.3,0.1,4.5,0.1,6.3,1.9c0.4,0.4,1.3,0.5,2,0.6C376.6,399.5,378,400.5,379.7,402.1z"/>
	<path class="st0" d="M96.6,546.5c8.9,3.1,17.7,2.1,26.6-0.9c0,1.3,0.2,1.9,0,2.4c-2.1,6.4-4.3,12.7-6.5,19.1
		c-0.8,2.4-2.5,4.1-5,4.6c-4.7,1-9.5,1.9-14.3,2.7c-1.5,0.2-3.1,0-4.6-0.2c-1.1-0.2-1.8-0.9-1.8-2.1c0.2-8.1,0.7-16.1,4.3-23.6
		C95.7,547.7,96.2,547.2,96.6,546.5z"/>
	<path class="st0" d="M128.6,485.7c-1.3-3.6-2.4-6.9-3.7-10.2c-1.4-3.3-2.9-6.6-4.7-9.8c-1.7-3.1-3.9-5.9-5.7-8.8
		c-1.8-2.9-4.8-4.9-6.6-7.8c0.1-0.3,0.3-0.5,0.4-0.8c0.9,0,1.8-0.2,2.6,0c9.6,2.5,18.8,5.8,26.7,11.9c3.3,2.6,6.3,5.4,8,9.3
		c0.9,2,1.3,4.3,1.8,6.5c0.2,1-0.3,1.7-1.2,2.3C140.6,481.3,135,483.8,128.6,485.7z"/>
	<path class="st0" d="M346.7,401.3c-5.4-1.8-10.9-3.6-16.4-5.4c-0.1,0.2-0.2,0.5-0.3,0.7c1.3,1.5,3.3,1.4,5,2.1
		c1.9,0.7,3.9,1.3,5.9,1.9c1.9,0.6,3.7,1.2,5.7,1.8c-0.2,0.7-0.3,1.4-0.5,2.1c-1.2,4-2,8-1.8,12.2c0.1,2.8-0.6,3.6-3.2,3
		c-4.3-0.9-8.6-2.1-12.9-3.3c-2-0.6-2.8-2.1-2.6-4.1c0.4-3.3,0.8-6.6,1.5-9.8c1.4-6.4,3.9-12.4,7.2-18.1c1.8-3,3-3.4,6.1-2.1
		c3.6,1.6,7.2,3.2,10.8,4.7c2.6,1.2,3.1,2.3,1.5,4.8C350.8,395.1,348.7,398.1,346.7,401.3z M342.7,413.3c-1.6-0.5-3.3-0.9-4.9-1.4
		c-1.7-0.5-3.3-1.1-5.1-1.5c-1.6-0.4-3.2-1.2-5.1-0.7C330.1,411.9,339.1,414.2,342.7,413.3z M350.6,393.4c0.1-0.2,0.2-0.5,0.3-0.7
		c-5-2.4-9.9-4.9-15.2-6.5c0.2,0.6,0.4,1,0.8,1.2C341.2,389.4,345.9,391.4,350.6,393.4z"/>
	<path class="st0" d="M339.1,219.9c-1.8,4.9-5.9,7.9-10.8,8c-4.4,0.1-8.3-1.4-12.2-3.3c-1.7-0.9-2.8-2.4-3.4-4.3
		c-1.1-3.5-1.3-7.1-0.5-10.7c1.8-7.9,10-10.5,16-8.9c2.2,0.6,4.2,1.7,6.2,2.8c2.9,1.7,3.2,4.9,4.4,7.6c0.1,0.3-0.1,0.8-0.3,1.2
		C336.7,215.1,337.1,217.6,339.1,219.9z"/>
	<path class="st0" d="M378.7,210.5c-3.6,1.8-3.8,3.6-0.8,8.4c-3.1,8-13,11.2-20.1,6.3c-2.5-1.7-4-4.2-4.6-7.1
		c-0.8-4.1-0.4-8,1.6-11.8c2.6-4.9,6.7-7.2,12.1-7c5.5,0.2,8.9,3.3,10.9,8.3c0.2,0.6,0.4,1.2,0.6,1.8
		C378.6,209.6,378.6,210,378.7,210.5z"/>
	<path class="st0" d="M112.7,502.5c-3.2,5.3-3.1,5.3,0.6,8.1c-0.7,6-6,9.6-10.8,10.4c-3.7,0.6-7.2,0.3-10.8-0.3
		c-6.2-1-12.8-7.6-13.1-16.1c-0.1-1.7,0.5-2.3,2.2-2.2c1.7,0,3.5,0.4,5.2,0.6c7.4,0.9,14.7,0,22-0.4
		C109.4,502.4,110.8,502.5,112.7,502.5z"/>
	<path class="st0" d="M494.8,405.7c0.3-3.4,0.4-5.8,0.8-8.3c0.6-3.6,2.6-4.5,5.3-2c2,1.9,4,4.1,5.1,6.5c3.7,7.6,5.9,15.7,6.8,24.1
		c0.3,2.6-0.2,5.4-0.5,8c-0.2,1.5-0.6,3.2-2.5,3.6c-1.9,0.4-3.2-0.6-4.3-2c-4-5.6-7.8-11.3-9.2-18.2
		C495.6,413.3,495.2,409,494.8,405.7z"/>
	<path class="st0" d="M148.1,491.4c-0.4,0.7-0.7,1.3-1.1,1.8c-1.3,1.9-1.3,3.5,0.6,4.5c2.6,1.4,2.4,3.5,2,5.6c-1,4.3-3.1,8-7.3,9.9
		c-2.7,1.2-5.7,2.3-8.6,2.5c-3.6,0.2-7.2-1.2-9.3-4.5c-1.6-2.5-2.8-5.3-3.9-8.1c-0.7-1.9-0.1-2.8,2-3.4c2.1-0.6,4.2-1,6.3-1.6
		c5.5-1.4,10.9-3.3,15.9-6.2C146.1,491.2,146.1,491.2,148.1,491.4z"/>
	<path class="st0" d="M78.3,499.6c1.4-1.4,2.9-1.5,4.4-1.7c4.5-0.6,9.1-1,13.6-1.5c12.6-1.5,24.7-5.3,36.5-9.9
		c4.5-1.8,9.2-3.2,13.2-6.1c2-1.4,5.4-0.9,7.2,0.6c1.2,1,1,2.1,0,2.9c-1.8,1.5-3.6,3.2-5.8,4.1c-6.8,2.9-13.5,5.8-20.5,8.1
		c-13.2,4.3-26.9,5.9-40.8,5c-2.1-0.1-4.1-0.3-6.2-0.6C79.4,500.3,78.9,499.9,78.3,499.6z"/>
	<path class="st0" d="M296.2,492.3c-2,2.1-3.6,3.7-5.1,5.4c-1.6,1.8-3.5,2.3-5.9,2c-3.8-0.5-7.6-1.1-11.4-1.3
		c-17.6-0.7-35.2-1.4-52.8-1.8c-3.2-0.1-5.6-0.7-7.8-3.4c-3.2-3.8-7.3-6.7-11.5-9.4c-0.9-0.6-1.7-1.3-2.8-2.2
		c2.9-1.4,4.9-0.7,6.6,1.1c4.6,5,10.5,8,16.8,10.2c4.7,1.6,9.5,2,14.4,2.3c11.6,0.7,23.2-0.1,34.6-2.6c5-1.1,10.1-2.1,15.2-3.1
		c0.8-0.2,1.7-0.3,2.4,0C291.2,490.3,293.5,491.3,296.2,492.3z"/>
	<path class="st0" d="M379.9,419.8c-1.5-4.2-2.9-8.2-4.3-12.3c-0.4-1.3,0.2-2,1.4-2.2c0.3-0.1,0.6-0.1,0.9-0.1
		c5.8-0.1,11.6-0.1,17.3-0.2c0.4,0,0.8,0.2,1.5,0.4c-0.9,4-0.3,7.8,0.5,11.6c0.4,2-0.1,2.7-1.9,2.8
		C390.2,419.9,385,419.8,379.9,419.8z"/>
	<path class="st0" d="M385.4,223.2c0-1,0-2.2,0-3.3c-0.1-3.4-0.3-6.8-0.3-10.2c0-4-1.7-7.2-4.1-10.2c-0.8-1-1.5-1.9-2.3-2.9
		c0.5-0.6,0.9-1.2,1.3-1.5c2.4-2.1,4.3-4.4,5.1-7.6c0.3-1,1.1-1.8,1.6-2.7c2.2,0.7,2.6,2.3,3,3.7c0.7,3.3,1.4,6.7,1.8,10.1
		c0.7,6.9,0.9,13.8-1.6,20.5c-0.4,1.1-0.8,2.1-1.4,3.1C387.8,223.4,386.9,223.8,385.4,223.2z"/>
	<path class="st0" d="M515.4,603.8c-0.9-0.2-2.3-0.4-3.6-1c-3-1.5-3.6-4.8-1.4-7.2c1.2-1.3,2.6-2.4,4.2-3c3.7-1.5,7.6-2.7,11.4-3.8
		c0.8-0.2,1.9-0.1,2.6,0.3c1.6,0.8,3.1,1.7,4.4,2.8c2.6,2.2,2.4,4-0.4,6c-0.9,0.7-1.9,1.3-3,1.7c-3.8,1.4-7.6,2.7-11.4,4
		C517.7,603.8,516.8,603.7,515.4,603.8z"/>
	<path class="st0" d="M354.4,366.4c-1.7,5.9-3.4,11.6-5.2,17.6c-2.3-1-5-2.1-7.5-3.4c-0.7-0.4-1.4-1.6-1.4-2.5
		c-0.3-5-0.4-10.1-0.6-15.3C344.7,364.1,349.6,365.3,354.4,366.4z"/>
	<path class="st0" d="M117.5,569.8c1.5-4.6,3-8.7,4.3-12.9c1.3-4.2,2.3-8.5,3.5-12.7c2.3-0.5,4.4-0.9,6.8-1.3c0,3.1-0.6,6.1-1.4,9
		c-1.1,4.1-2.6,8.1-3.9,12.1c-0.2,0.6-0.6,1.4-1.2,1.7C123.1,567.1,120.4,568.3,117.5,569.8z"/>
	<path class="st0" d="M375.6,377.2c0.7-1.4,1.2-2.8,2-4.1c1.9-3.3,2.7-3.6,6.3-2.8c3.2,0.7,6,1.9,6.9,5.7c0.3,1.5,1.8,2.7,2.9,3.9
		c1.1,1.2,2.4,2.2,3.7,3.3c-1.9,3.3-5.6,4.1-8.4,1.7c-0.9-0.8-1.5-1.9-2.3-2.9c-0.9-1.2-1.8-2.6-2.9-3.6c-1.7-1.5-3.7-2.3-6-1.2
		c-0.5,0.3-1.1,0.3-1.7,0.5C376,377.6,375.8,377.4,375.6,377.2z"/>
	<path class="st0" d="M374.6,374.7c-1.1,2.3-1.9,4.2-2.8,6.2c-6.2-0.7-12.2-1.5-18.6-2.2c1-2.8,1.9-5.5,2.9-8.2
		C362.2,371.9,368.2,373.3,374.6,374.7z"/>
	<path class="st0" d="M352.9,380.2c6.1,0.8,11.8,1.5,17.6,2.3c-0.1,3.2-1.2,5.7-2.2,8.4c-5.9,0.1-11.2-1.2-15.6-5.1
		c-0.5-0.4-0.6-1.4-0.7-2.2c-0.1-0.4,0.1-0.8,0.2-1.2C352.4,381.8,352.6,381.1,352.9,380.2z"/>
	<path class="st0" d="M344.2,549c3.2,0,7.5,3.3,8.2,5.7c0.5,1.6,0.1,3-1.4,4.1c-2.5,1.8-5.3,2.8-8.4,3c-3.1,0.2-4.9-2-3.9-5
		c0.7-2.2,1.9-4.3,3.2-6.3C342.5,549.7,343.7,549.3,344.2,549z"/>
	<path class="st0" d="M386.6,393.6c0-0.7,0-1.6,0.2-2.5c0.3-2.1,2.1-2.9,3.8-1.8c0.6,0.4,1.1,1,1.5,1.5c1.6,2.4,1.2,6.6-1,9.6
		c-1.3-1.3-2.5-2.6-3.8-4.1c-0.5,0.4-1,0.8-1.4,1.2c-2.3,1.8-4,1.8-6.5,0.3c-1.8-1.1-3.8-2.1-5.7-3.1c-0.5-0.3-1.1-0.5-1.7-0.8
		c-1.4-0.9-1.9-2.1-1.2-3c0.8-1.2,2.1-1.1,3-0.3c2.4,2,4.9,2.1,7.9,1.7C383,392.2,384.6,393.1,386.6,393.6z"/>
	<path class="st0" d="M358.1,194.9c-6.5,0.3-12.9,0.5-19.8,0.8c0.7-1.1,1-1.6,1.4-2c2.5-2.7,5.1-5.5,7.6-8.2c1.9-2.1,3.6-2,5.3,0.4
		C354.3,188.8,356,191.7,358.1,194.9z"/>
	<path class="st0" d="M386.7,386.2c-0.7,1.6-1.3,2.9-1.8,3.9c-2.4,0-4.6,0-6.9,0c-0.5,0-1-0.2-1.5-0.4c-1.5-0.7-3-1.4-4.8-2.3
		c0.5-1.6,0.8-3.4,1.5-5.1c1.5-3.7,6.3-4.6,9.2-1.8c0.4,0.4,0.9,0.9,1.2,1.4C384.7,383.2,385.7,384.7,386.7,386.2z"/>
	<path class="st0" d="M360.4,362.3c2.8,1.5,5.2,3,7.8,4.2c2.5,1.2,5.1,2.1,7.8,3.2c0.1,2.7-0.5,3.7-3.1,3.3
		c-4.8-0.8-9.5-1.9-14.2-2.9c-1.5-0.3-1.9-1.3-1.5-2.8C357.8,365.2,358.6,363.5,360.4,362.3z"/>
	<path class="st0" d="M356.2,151.5c-5.3,2-10.4,2.4-15.5,1.1c-2.7-0.7-5.5-1.2-8.2-1.8c-1.1-0.2-2.1-0.5-3.8-1c3.3-1.2,6-2.4,9-2.1
		c4,0.4,8,0.7,12,1.2C352.7,149.2,353.8,149.7,356.2,151.5z"/>
	<path class="st0" d="M72.8,421.8c5.7,8.4,11.4,16.9,17.3,25.6c-1.7,0.7-3.3,1.3-5.1,2.1c-1.3-3.3-2.5-6.5-3.9-9.6
		c-1.4-3-3.1-5.8-4.6-8.8c-1.5-3-2.7-6.1-4.1-9.2C72.5,421.9,72.7,421.8,72.8,421.8z"/>
	<path class="st0" d="M94.4,541.7c-11-4.1-17.3-12.2-22.5-21.6c1-1.1,2-1.2,3-0.2c0.6,0.6,1,1.3,1.4,2c4.8,7.1,9.9,13.8,17.1,18.6
		C93.7,540.7,93.8,540.9,94.4,541.7z"/>
	<path class="st0" d="M134.4,547.6c0.9,2.8,2,5.5,2.8,8.4c0.2,0.8-0.3,2.2-0.9,2.7c-2,1.7-4.3,3.1-7,5.1c1.6-5.8,3.1-10.9,4.5-16
		C134,547.7,134.2,547.6,134.4,547.6z"/>
	<path class="st0" d="M415.3,400.9c-6.9,0.4-13.8,0.8-20.7,1.2c0.4-1.8,0.8-3.2,1.2-5c6.6,1.1,13.1,2.2,19.6,3.3
		C415.3,400.6,415.3,400.8,415.3,400.9z"/>
	<path class="st0" d="M301.9,161.3c-0.3,6.8-4.9,9.1-10.5,11.4C294.3,167.9,297.7,164.5,301.9,161.3z"/>
	<path class="st0" d="M382,401.9c3.4-1.9,4.1-1.9,5.9,0C385.9,402.2,384.2,403.1,382,401.9z"/>
	<path class="st0" d="M356.4,393.7c1.8-1.1,3.1-1,5,0C359.5,393.7,358.3,393.7,356.4,393.7z"/>
	<path class="st0" d="M347.6,420.5c0.3,0.8,0.5,1.6,0.8,2.4c-0.1,0.2-0.3,0.3-0.4,0.5c-0.6-0.3-1.5-0.6-1.6-1.1
		c-0.2-0.5,0.4-1.3,0.6-1.9C347.2,420.4,347.4,420.5,347.6,420.5z"/>
	<path d="M561.6,554.9c-0.3-1.3-0.5-2.2-0.7-3.2c3.4,1.7,6,4.2,8.4,6.8c0.3,0.3,0.4,1.3,0.2,1.3c-0.5,0.3-1.2,0.5-1.6,0.3
		c-0.8-0.3-1.5-0.9-2.3-1.2c0.8,1,1.6,2.1,2.4,3.2c0.5,0.8,0.9,1.8,0,2.5c-1.1,0.9-1.9,0.1-2.6-0.7c-1.6-1.7-3.1-3.5-5-5
		c0.1,0.6,0.1,1.3,0.2,2.2c-2.8-0.3-4.2-2-5.8-4.1c0.7-0.4,1.3-0.6,2-1c-2.7-2.4-5.9-4.2-7.8-7.6
		C552.2,548.1,553.1,548.6,561.6,554.9z"/>
	<path d="M564.2,549.6c2.7,0.8,4.6,2.5,6.1,4.6c0.8,1,0.6,1.3-1.1,2.8C567.7,554.4,565.2,552.6,564.2,549.6z"/>
	<path d="M122.6,674.6c-7.2,0-13.5-2.6-19.4-6.6c-8-5.4-11.2-13.3-12.7-22.2c-0.8-5-0.7-9.9,0.5-14.8c1.1-4.5,3.3-8.2,6.6-11.4
		c5.9-6,13.1-9.5,21.2-11.7c12.2-3.3,22.7-0.6,31.3,8.4c8.9,9.3,11,20.6,7.3,32.9c-2,6.7-5.8,12.4-10.7,17.3
		c-4.8,4.7-11,6.4-17.4,7.6C127.2,674.4,124.9,674.4,122.6,674.6z M156.7,638.8c-0.1-1.1-0.1-2.3-0.2-3.4c-0.7-9-5.4-16-12.5-20.9
		c-6.4-4.4-14.1-5.2-21.8-4.2c-5,0.6-9.4,3.1-13.9,5.2c-5.4,2.5-8.9,6.7-11.5,11.8c-2.5,4.8-4.2,9.7-2.7,15.2
		c0.2,0.8,0.2,1.6,0.2,2.5c0,4.7,1.5,8.9,4.4,12.7c1.3,1.6,2.4,3.4,3.7,5c2.1,2.6,4.5,5,7.7,6.1c6,2.2,12.3,3,18.6,2.5
		C141.6,670.1,157.2,656.3,156.7,638.8z"/>
	<path d="M173.4,617.5c0.2,0.8,0.5,1.6,0.7,2.4c-2.7-1.1-3.5-3.6-5-5.4c-1.5-1.8-2.9-3.8-4.5-5.5c-1.7-1.8-3.6-3.3-5.7-5.1
		c2-0.8,3.2,0.1,4.1,1.1c2.2,2.2,4.3,4.5,6.4,6.7c0.3,0.3,0.6,0.5,0.9,0.8c0,0-0.1-0.1-0.1-0.1c0.6,1.6,1,3.2,2.9,3.8
		C173.2,616.6,173.3,617.1,173.4,617.5z"/>
	<path d="M173.4,617.5c-0.1-0.4-0.2-0.9-0.3-1.3c-1-1.3-1.9-2.5-2.9-3.8c0,0,0.1,0.1,0.1,0.1c0.1-0.6,0.3-1.1,0.5-2
		c0.8,0.4,1.4,0.6,1.9,1c1.3,1.3,2.5,2.7,3.7,4.1c0.5,0.6,0.9,1.4,1.1,2.1c0.1,0.4-0.1,1.1-0.4,1.3c-0.3,0.2-1,0.2-1.4,0
		C174.8,618.6,174.1,618,173.4,617.5z"/>
	<path d="M169.8,605.2c0.9,0.8,1.9,1.6,3.3,2.9c-2.6,0.2-2.9-1.4-3.9-2.2C169.5,605.6,169.7,605.4,169.8,605.2z"/>
	<path d="M167.1,614.4c1.4,0.9,1.4,0.9,1.5,3.1c-0.7-0.9-1.4-1.8-2.1-2.7C166.7,614.7,166.9,614.5,167.1,614.4z"/>
	<path d="M350.4,249.8c-0.6,2.3-1.2,4.5-1.9,6.9c4.1,0,7.3-1.7,10.9-2.9c-0.3,0.5-0.5,1.2-1,1.5c-7.2,4.3-18.7,5.3-25.3-2.7
		c-0.3-0.3-0.5-0.6-0.8-1c-0.9,0.9-1.7,1.6-2.7,2.5c0.3-3.4,3.2-7.6,6.2-8.8c-1,1.7-1.8,3.2-2.5,4.6c3.7,4.2,8.6,6.6,13.8,6.8
		c0.2-0.5,0.4-1.1,0.6-1.6c0.5-1.7,1-3.3,1.5-5c-5.5-1.7-6.7-2.7-7.4-6.8c1,0.6,1.8,1.2,2.7,1.7c3.1,2,6.4,3,10.1,2.2
		c1.8-0.4,3.6-1.2,5.1-2.2c2.4-1.6,2.8-3.6,1.4-6.2c-0.9-1.6-2-3.1-3-4.7c-0.5-0.8-1-1.7-1.4-2.6c2.6,2.4,4.7,5.1,6.1,8.3
		c0.8,1.9,0.3,3.7-0.9,5.2c-2,2.7-4.8,4.2-8.2,4.6C352.6,249.7,351.7,249.7,350.4,249.8z"/>
	<path d="M126.1,531.4c0.4-1.5,1.2-2.5,3-2.5c0.7,0,1.3-0.5,2-0.8c0.6-0.3,1.1-0.9,1.6-0.8c3.3,0.1,4.9-2.3,6.6-4.5
		c1.6-2.1,1.5-2.1,3.4-3c0.7,1.6-0.3,2.6-1.2,3.5c-1.1,1-2.3,1.8-3.4,2.7c-1.5,1.2-2.9,2.4-2.6,4.6c0,0.2,0,0.4,0,0.6
		c-0.6,2.1-6.7,4.5-8.5,3.4c-1.1-0.6-2.2-1.2-3.1-1.7c0.7-0.4,1.6-1,2.5-1.6c0.6,2.3,1,2.6,2.8,1.9c1.4-0.6,2.8-1.3,4.1-2.1
		c1-0.6,1.4-1.5,0.7-2.6C131.2,529.5,128.6,530.5,126.1,531.4z"/>
	<path d="M119,525.4c4.8,1.9,9,0.7,11.9-3.6c-0.6-1-1.2-2-2-3.3c2.2-0.3,3,1.1,3.6,2.4c0.7,1.3,0.5,2.7-0.7,3.7
		c-1.4,1.1-2.9,2.6-4.6,3c-1.9,0.5-4.1,0.3-6.2,0c-0.9-0.1-1.8-1.1-2.6-1.7C118.7,525.8,118.8,525.6,119,525.4z"/>
	<path d="M120.5,533.5c-7.6,1-15.5-0.9-18.6-4c3,0.9,6,2,9.2,2.7C114.2,532.8,117.4,533.1,120.5,533.5z"/>
	<path d="M345.1,280c-1.3,1.6-2.5,3.1-3.8,4.7c0.5-2.1,1.7-3.8,3.3-5.1C344.8,279.7,344.9,279.8,345.1,280z"/>
	<path d="M348.1,275.7c-0.6,1-1.1,2-1.7,3.1c-0.2-0.1-0.4-0.3-0.6-0.4C346.6,277.5,347.4,276.6,348.1,275.7
		C348.1,275.7,348.1,275.7,348.1,275.7z"/>
	<path d="M379.3,178.3c0.1,2.2-0.4,4.8-1.7,7.2c-2.6,5-7.9,6.7-13,4.2c-3.1-1.5-5.2-4-7.2-6.7c-1.3-1.8-2.4-3.7-3.8-5.3
		c-3.4-4-6.9-4.2-10.5-0.4c-1.5,1.6-2.8,3.4-4,5.2c-4.3,6.6-10.7,8.8-18.2,8.6c-3-0.1-5.7-1.2-7.9-3.2c-5.4-5-7.1-11.3-5.5-18.4
		c1.5-6.8,5.9-11,12.6-12.8c3.6-0.9,7.2-0.8,10.8,0.1c2.1,0.5,4.2,1.2,6.2,1.9c5.2,1.8,10.3,1.8,15.6,0.6c3-0.7,6.1-1.4,9.1-1.9
		c6.8-1.1,11.2,1.2,14.3,7.3C378.3,168.7,379.3,173.1,379.3,178.3z M326.7,158c-7.6,0.1-12.5,2.9-15.4,8.5c-3,5.6-2.4,11.3,1,16.5
		c3.3,5.1,8.9,6.9,14.7,5c3.7-1.2,6.6-3.4,9.1-6.2c1.6-1.9,3.2-3.9,4.9-5.6c5.3-5.3,11.5-4.7,15.8,1.4c1.3,1.9,2.5,3.8,3.8,5.7
		c1.6,2.3,3.7,3.9,6.4,4.7c3.4,1,5.8,0,7.7-3c4.1-6.4,3.1-12.9-0.1-19.2c-2.6-5.1-7.7-7.4-13.3-6.2c-1.5,0.3-3,0.8-4.5,1.2
		c-1.7,0.4-3.4,0.8-5.2,1.1c-5.7,0.9-11.1,0-16.5-1.6C331.9,159.3,328.7,158.6,326.7,158z"/>
	<path d="M59.1,536.8c1.5-1.3,2.3-0.7,3-0.1c7.5,6.4,15.1,12.7,18.2,22.6c0.6,1.9,1.4,3.7,1.8,5.8c-2.3-2.2-3.1-5.2-4.8-7.7
		c-1.7-2.6-3.3-5.2-5.3-7.6c-1.9-2.3-4-4.5-6.1-6.6C63.8,541.1,61.5,539,59.1,536.8z"/>
	<path d="M291.5,247.7c-0.5,1.2-1,2.4-1.6,3.6c-1.2,2.3-2.5,4.5-3.9,6.7c-0.7,1.2-1.5,2.4-3.6,3.1c0.7-1.1,1-1.7,1.4-2.2
		c2.1-3.2,4.2-6.3,6.4-9.5C290.6,248.8,291.1,248.3,291.5,247.7C291.6,247.8,291.5,247.7,291.5,247.7z"/>
	<path d="M342.7,413.3c-3.6,0.9-12.6-1.4-15.1-3.6c2-0.5,3.5,0.3,5.1,0.7c1.7,0.4,3.4,1,5.1,1.5C339.4,412.3,341,412.8,342.7,413.3z
		"/>
	<path d="M350.6,393.4c-4.7-2-9.4-4-14.1-6c-0.4-0.2-0.6-0.6-0.8-1.2c5.3,1.7,10.2,4.1,15.2,6.5
		C350.8,392.9,350.7,393.2,350.6,393.4z"/>
	<path class="st0" d="M156.7,638.8c0.5,17.5-15.1,31.3-28,32.4c-6.4,0.5-12.6-0.3-18.6-2.5c-3.2-1.2-5.6-3.5-7.7-6.1
		c-1.3-1.6-2.4-3.4-3.7-5c-2.9-3.7-4.5-7.9-4.4-12.7c0-0.8,0-1.7-0.2-2.5c-1.5-5.5,0.3-10.5,2.7-15.2c2.6-5.1,6.2-9.3,11.5-11.8
		c4.5-2.1,8.9-4.6,13.9-5.2c7.7-1,15.4-0.2,21.8,4.2c7.1,4.9,11.8,11.9,12.5,20.9C156.6,636.5,156.7,637.7,156.7,638.8z
		 M121.6,633.7c-3.9,0-5.6,1-6.9,4.1c-1.6,3.7-0.4,7.6,2.9,9.3c3.4,1.7,6.8,0.5,8.9-3.1c0.4-0.7,0.7-1.5,1-2.3
		C129.1,637,126.6,633.7,121.6,633.7z"/>
	<path class="st0" d="M170.2,612.3c1,1.3,1.9,2.5,2.9,3.8C171.2,615.6,170.8,613.9,170.2,612.3z"/>
	<path class="st0" d="M126.1,531.4c2.6-1,5.1-1.9,7.7-2.9c0.7,1.1,0.2,2-0.7,2.6c-1.3,0.8-2.7,1.5-4.1,2.1c-1.8,0.7-2.2,0.4-2.8-1.9
		C126.2,531.3,126.1,531.4,126.1,531.4z"/>
	<path class="st0" d="M326.7,158c2.1,0.5,5.3,1.3,8.4,2.2c5.4,1.7,10.9,2.6,16.5,1.6c1.7-0.3,3.4-0.7,5.2-1.1c1.5-0.4,3-0.9,4.5-1.2
		c5.6-1.2,10.7,1.1,13.3,6.2c3.2,6.3,4.2,12.8,0.1,19.2c-1.9,3-4.3,4-7.7,3c-2.7-0.8-4.8-2.5-6.4-4.7c-1.3-1.9-2.5-3.8-3.8-5.7
		c-4.3-6.1-10.5-6.6-15.8-1.4c-1.8,1.7-3.3,3.7-4.9,5.6c-2.5,2.9-5.5,5.1-9.1,6.2c-5.8,1.9-11.4,0.1-14.7-5c-3.4-5.3-4-10.9-1-16.5
		C314.2,161,319.1,158.2,326.7,158z"/>
	<path d="M121.6,633.7c4.9,0,7.4,3.3,5.9,8c-0.3,0.8-0.6,1.5-1,2.3c-2.1,3.6-5.5,4.8-8.9,3.1c-3.3-1.7-4.6-5.7-2.9-9.3
		C116.1,634.7,117.8,633.7,121.6,633.7z M121.3,635.9c-2.6,0-4.9,1.8-4.9,3.7c0,2.1,2.9,4.5,5.2,4.5c2.3,0,4-2,4-4.6
		C125.6,637,124.3,635.9,121.3,635.9z"/>
	<path class="st0" d="M121.3,635.9c3,0,4.3,1.1,4.3,3.6c0,2.7-1.6,4.6-4,4.6c-2.3,0-5.2-2.5-5.2-4.5
		C116.4,637.7,118.7,635.9,121.3,635.9z"/>
</g>
</svg>
