<?xml version="1.0" encoding="utf-8"?>
<!-- Generator: Adobe Illustrator 26.0.0, SVG Export Plug-In . SVG Version: 6.00 Build 0)  -->
<svg version="1.1" id="Capa_1" xmlns="http://www.w3.org/2000/svg" xmlns:xlink="http://www.w3.org/1999/xlink" x="0px" y="0px"
	 viewBox="0 0 595.3 700.1" style="enable-background:new 0 0 595.3 700.1;" xml:space="preserve">
<style type="text/css">
	.st0{fill:#FFFFFF;}
</style>
<g>
	<path d="M375.2,604.7c-15.7,62-133.4,55.9-184,54.3c-2.2-0.1-3.3,0.7-4.2,2.7c-16,39.6-72.4,51.9-102.3,20.8
		c-9.1-9.1-14-20.5-15.9-33.1c-1.7-6.1,1.5-13.9-3.9-18.5c-27.4-21.4-28.3-60.2-17.3-90.6c3.3-9.6,9.6-18.5,20.9-18.1
		c-0.5-1.7-1.5-2.8-2.9-3.3c-19.2-8.7-8.8-34-3.7-49c-27.3-21.3-59.3-49.3-61.7-86.1c12.1-36.6,50.6,5,63.5,20.7
		c-4.6-12-11.7-24.6-9.5-37.9c2.6-11.5,15.3-18,26.3-13.5c27.2,17.5,39.5,58.3,46.3,88.7c1.4,10.9,12.2,15.5,17.9,23.9
		c0.7,1,1.5,1.6,2.9,1.3c10.4-2.3,20.4-0.4,30.1,3.3c8,2.2,14.7,10.7,23.6,7.2c-8.4-9.3-9.8-26.6,4.5-30.7
		c8.9-2.7,17.1,0.6,26.1,2.1c-1-5.3-0.2-10.9-4.3-15.2c-2.3-2.4-2.6-5.3-2.6-8.4c-2.2-48.2,2.8-97.1,24.3-141
		c8.8-20.9,28.2-34.8,37.9-55c0.7-1.6,0.4-3.2-0.8-4.3c-11.9-14.8-7.8-39,2.3-53.9c1.4-1.9,1-3.6,0.2-5.5
		c-13-30.6-25.4-61.4-30.2-94.5c-2.5-17.7-9.3-64.3,17.5-64.1c44.8,10.9,41.4,103.1,44.5,140.2c6.6-1.2,12.6-1.9,19.2-2.4
		c2.4-0.2,2.9-0.5,3-2.9c-1.6-14.3-3.8-28.6-5.2-42.9c-2.2-29.8-4-61.5,5.4-90.3c4.4-10.6,21.2-12.2,28.7-4.3
		c25,37.3,16.6,100.3,6.8,142.2c-3.1,8.7,5.2,14.7,6.8,22.8c12.1,25,10.4,43,0.5,68.3c-5.1,18.4-22.9,23.2-21.9,30.8
		c0.4,4.3-1.3,7.7-4.5,10.4c-5.6,3.8-7,10.5-11.2,15.3c-6.2,8.5-5.2,24-8.1,34.4c-0.9,7.6-1.1,15.4-1.5,23c-0.2,6,1.7,8.5,7.5,10.1
		c4.1,1,8.9,2.3,12.7-0.3c6.2-2.5,12.6,4.2,18.8,5.4c6.7,0.7,11.9,1.2,15.7,7.7c2.5,3.3,5.9,5.2,10,5.7c9.3,1.1,18.3,3.6,27.2,6.2
		c25.3,7.2,10.6,19.1,25.2,35.6c7.1-7.3,9.9-18.9,20.2-22.8c12.3-5.1,26.1-15.9,32.7,2.4c3.5,10.2,12.5,29.2,4.1,38.3
		c-14.6,8.2-33.2,12.3-48.8,4.5c0.2,6.6,4.6,12.3,7.1,18.2c10.8,21.5,19.8,43.6,29,65.9c72.5-25.6,124.2,70.3,76.2,122.5
		c-19.6,22.1-51.9,25.7-79.1,18.3c-30.6-8.5-48.9-40.7-48.1-71.3c0.4-20.8,10.9-40.4,26.3-54.1c1.3-1.3,3.3-2.8,2.3-4.9
		c-9.5-19.2-15.2-40.8-26.9-58.6c-9.5,37.3-16.4,75.7-30.6,111.4C411.6,608.1,390.4,603.4,375.2,604.7z"/>
	<path class="st0" d="M68.1,628.7c-19.8-12.4-26.3-37.6-23.3-59.7c1.5-9.2,2.1-22.4,7.6-29.7c2.2,53.5,79.3,41.1,113.5,28.1
		c25.8-8.7,42.7-30.4,64.7-44.9c2-1.3,4.2-1,6.5-0.2c12.6,4.7,25.5,7.9,39,8.6c22.3,3.6,47,2.1,66.5,15.1c-15.4,15,2,26.2,13.4,10.4
		c15.7,15.6,24.4,39,11.9,59.2c-21.1,41.6-119,42.2-160.4,40.7c-4.4-0.1-8.9,0.1-13.3,0.1c-6.5,0.7-3.7-3.3-3.2-7.5
		c5.6-38.4-27.3-75.2-66.5-67.7C98.4,584.8,74.5,602.4,68.1,628.7z"/>
	<path class="st0" d="M262.8,286.4c-4.9,2.6-2.1,20.2-3,25.9c-0.4,21.8,0.2,43.8,2.5,65.5c-1.8,13.9,45.5,30.4,57.5,33.4
		c7.9,2.5-1.1,7.3,12.7,9.5c-26.3,18.9-70.8,28.2-100.3,10.8c-2.3-1.9-3.5-4.2-3.6-7.3c-1.2-38.7-1.5-77.9,14.5-114
		c7.9-18.8,15.6-38.3,28.9-54.1c6.4-7.6,5.9,10,18.5,20.7c27.8,30.1,55,12.3,52.3,22.7c-4.7,24.7-7.3,49.8-5,74.9
		c0.2,4.4-0.8,5.1-4.8,3.6c-7.1-4-34.7-9.4-34.7-16.8c-3.7-18-6.2-36-8.5-54.3c-0.3-2.1-0.6-4.1-2.4-5.6c-1.4,1.1-1.3,2.5-1.2,3.9
		c2.1,19.1,5,37.9,8.5,56.8c-0.3,9.1,30.5,14,38.7,19.8c-17.7,34.8,4.8,33.8-53.3,10.1c-8.7-3.9-12.9-10.7-14.1-20
		C261.9,343.4,263.3,315,262.8,286.4z"/>
	<path class="st0" d="M492,567.2c-29.6,25.7-7.2,83.3,33.4,76.7c53.6-5.9,47-87.5-7.3-84.7c-5.1,0-4.2,1.1-6.5-4.2
		c-1.4-6.2-13.9-23-4.7-25.6c16.6-5.4,36.4-1.5,50.4,8.8c12.6,10,26.7,20.1,30.5,36.7c6.1,15.1,5.8,31.3,1.6,46.9
		c-8.5,38.1-49.7,51.2-84.7,46.4c-28.2-6.1-47.5-31.8-50.1-60c-2.3-23.2,5.5-43.2,20.8-60.5c3.7-4.2,4.9-3.9,7.4,1.1
		C485.8,554.9,489.1,561.1,492,567.2z M561.6,554.9c-8.5-6.4-9.3-6.8-12.7-6.4c1.9,3.4,5.1,5.1,7.8,7.6c-0.7,0.3-1.3,0.6-2,1
		c1.6,2,3.1,3.8,5.8,4.1c-0.1-0.9-0.1-1.5-0.2-2.2c2.7,1.2,4.8,7.1,7.6,5.7c1.7-1.9-1.5-4-2.4-5.7c9.7,4.6-1.3-6.3-4.7-7.2
		C561.1,552.7,561.3,553.6,561.6,554.9z M564.2,549.6c1,2.9,3.5,4.8,5,7.4C573.5,554.4,566.6,550.5,564.2,549.6z"/>
	<path class="st0" d="M331.1,448.4c-5.5,2.5-10.4,4.8-15.8,7.2c3.5,3.2,6.6-0.3,10-1.4c3.4-1.6,7.1-4,10.8-1.7
		c6,3.4,12.3,6.6,17.4,11.3c11.1,8.5,11.6,19.8,3.3,30.6c-9.1,13.8-20.4,25.8-31.6,38c-5.5,5.4-13.7-0.5-20.3-0.4
		c-9-1.3-18.1-2.6-27.2-2.3c-2.5,0.1-4.9-0.2-7.5-1.8c9-12.4,19.4-23.2,29.1-35c3.2-4.4,7.5-7.9,8.3-13.7c-9.6,8.1-6.5,15.3-21,6.2
		c-12.7-8.6-26.9-14.2-41.1-19.7c-7.9-3.5-10.6-17.9-12.7-25.8c-0.5-5,5.7-2.2,8.2-1.2c6.8,3.1,14.1,3.9,21.5,4.5
		c14.4,1.1,28.3-1.7,41.9-5.9C314.7,434.2,322.6,444.2,331.1,448.4z"/>
	<path class="st0" d="M72.1,639.9c-2-38.8,44.7-66.7,79.1-53c47.9,15.5,48.3,86.5,1.7,104.5C112.7,707.3,73.2,683.9,72.1,639.9z
		 M170.2,612.4c-3.9-2.5-6-9.4-11.4-8.6c6.6,4.5,9.2,11.2,15.2,16c-0.2-0.8-0.5-1.6-0.7-2.4c8.6,5.8,1.3-6.2-2.6-7
		C170.5,611.3,170.4,611.9,170.2,612.4z M122.6,674.6c50,0.5,47.7-77.8-3.7-66.8C77.8,616.2,81.8,671.7,122.6,674.6z M169.8,605.2
		c-0.2,0.2-0.3,0.5-0.5,0.7c1,0.7,1.3,2.4,3.9,2.2C171.7,606.8,170.8,606,169.8,605.2z M167.1,614.4c-0.2,0.1-0.4,0.3-0.6,0.4
		c0.7,0.9,1.4,1.8,2.1,2.7C168.5,615.3,168.5,615.3,167.1,614.4z"/>
	<path class="st0" d="M258.6,46.8c-0.6-18.5,6.3-42.7,28.7-31.9c7.9,7.4,12.9,18.4,18.1,27.9c11.6,32.5,11.7,67.9,13.7,102
		c1,6.7-16.4,7.5-21.7,17c-6.2,8.5-6.7,1.2-9.4-4.6c-4.1-10.2-8.8-20.2-12.2-30.6c-6.4-19.9-12-40.1-15.2-60.8
		C259.6,59.1,259.2,52.3,258.6,46.8z"/>
	<path class="st0" d="M376.8,152c-6-1.4-30.1-3.5-31.8-8.5c-3.1-30.7-8.6-61.3-6.6-92.3C340.1,35,337.7,1,362.1,4.5
		c13.2,1.2,11.4,13.3,17,22.2C390.7,67.4,383.6,111,376.8,152z"/>
	<path class="st0" d="M428.1,499.3c-5.2-2.9-10.3-3.1-15.5-2.9c-17.6,0.7-34.8,1.7-52.3,3.5c12.6-18,6.8-33.2-10.3-45.1
		c10.1-7.8,23.2-10,34.8-14.9c14.7-3.6,37.2-15.7,49.5-2.4c3.2,5.3,4.5,10.8,3.1,17.2C433.9,469.5,431.9,484.5,428.1,499.3z"/>
	<path class="st0" d="M326.1,535.7c4.3-5.9,9.7-14.2,17.5-14.7c12.2-0.4,24.4-0.7,36.7-1.2c14.9-0.2,29.3-3.5,43.6-7.4
		c1.3,1.2,0.7,2.5,0.3,3.8c-3,11.8-6.1,23.7-9.2,35.5c-5,23-11.4,32.9-36.5,32.6c-2.3,0.2-3.1-0.3-3.9-3.1
		C368.3,558.1,348.2,542.6,326.1,535.7z"/>
	<path class="st0" d="M62.8,467.8c-21.4-18.8-44.9-38.2-56-65.2c-2.5-8-5.9-19.6,0.7-26.3c6.4-5.7,15.1-4.6,21.8,0.3
		c16.4,8.2,27,23.2,35.9,38.8c4.3,7.6,8.3,15.3,11.5,23.4C87.4,460.4,78.2,446.3,62.8,467.8z"/>
	<path class="st0" d="M525.3,585.2c-3.8-7.4-8.9-14.1-10.2-22.6c12.5-2.8,24.6,4.4,34.4,11.5c13,17.1,14,45.3-5.5,58.1
		c-28,19.8-55.6,3.7-61.8-28c-1.3-8.7,1.9-29.8,10.8-33.6c1.8,1.4,2.8,3.3,3.5,5.4c2.2,8.7,10,15.4,10.3,24.4
		c-1,13.9,26.1,3.8,30.7-2.3C542,591.5,531.2,585.1,525.3,585.2z"/>
	<path class="st0" d="M126.5,450.3c-9.8-4-19.1-7-29.6-4.5c-10.5,1.6-27.9-38.4-32.7-47.7c-4-9.5-7.9-19.9-6.4-30.3
		c2.4-11.5,19.4-17.2,28-8.7C107.8,384.1,121.6,417.6,126.5,450.3z"/>
	<path class="st0" d="M521.8,586.1c-4.3,2.2-8.3,4.3-12.6,6.4c-26.9-50.8-51.4-102.5-72.5-156c-1-5.4-11.9-19.7-4.7-22.5
		c4-0.9,12-7.5,14.9-2.9C469.5,470.3,497.7,527.4,521.8,586.1z"/>
	<path class="st0" d="M372.5,198.9c10.1-4.9,12.6,18.3,8,24c-0.8,1.4-1.6,2.8-2.2,4.6c1.1-0.8,2.3-1.6,3.3-2.3
		c1.4,0.6,2.8,1.1,4.5,1.8c-7.5,53-79.1,53.2-91.3,2.5c5.5-1.3,12-2.1,11.6-9.2c1.4,2.9,2.4,5.9,5.7,7.2c-7.4-7.4-8.8-29,5.6-28.3
		c-13.4,10.3-8,32.9,10.9,29.5c16.6-1.8,15.7-23,2.7-29.7c10-2.1,19.2,0.3,29.7-1.2c-11.3,4.9-15.2,24.8-0.2,29.9
		C378.4,232.9,387.8,207.3,372.5,198.9z M350.4,249.8c13.3,0,16.4-10.1,6.2-18.3c1,2.7,3.1,4.8,4.4,7.3c2.9,4.7-2.6,7.5-6.5,8.4
		c-4.8,1-8.9-1.3-12.8-3.9c0.7,4.1,1.8,5.1,7.4,6.8c-0.7,2.2-1.2,4.5-2.1,6.6c-5.2-0.2-10.1-2.5-13.8-6.8c0.8-1.4,1.6-2.8,2.5-4.6
		c-3,1.2-5.9,5.4-6.2,8.8c0.9-0.9,1.7-1.6,2.7-2.5c6.1,8.8,21,9.2,27.1,2.2c-3.6,1.2-6.8,3-10.9,2.9
		C349.2,254.2,349.8,252.1,350.4,249.8z"/>
	<path class="st0" d="M102.4,575.9c28-4.7,50.2-23.2,66.7-45.6c8.2-10.4,18.2-18.6,30.1-24.6c4-2.4,7.5,1.4,11,2.9
		c5.5,3.4,12.2,5,17.1,9.3c2.1,1.8,2.1,2.9-0.4,4.2c-6.3,3-11.3,7.8-15.8,12.9c-8.7,9.8-19.3,16.7-31,22.4
		c-23.9,12.7-50.6,20.1-77.6,19.3C102.4,576.4,102.4,576.2,102.4,575.9z"/>
	<path class="st0" d="M228.1,515.5c-7.1-3.8-14-7.8-21-11.9c-6.1-3.9-12.1,2.1-17.4,4.9c-17.3,11.8-29.3,30-45.3,43.4
		c-7.6,7.7-7.8-4.6-11.2-9.7c19.1-10,25.1-33,19.2-52.9c-1-2.6,2-3.3,3.3-4.8c5-5.3-7.9-5.8-6.6-11.4c0.5-1.6,2.4-1.4,3.8-1.5
		c31.3-2.4,56.7,21.4,75.8,43.4C228.4,515.2,228.3,515.3,228.1,515.5z"/>
	<path class="st0" d="M376.8,588.4c19-1.9,31.3-0.2,37.3-22.1c10.9-36.8,18.4-74.3,26.5-111.8c4.1,8.4,9.3,16.3,7.3,25.6
		c-9.4,35-16.6,70.9-27.6,105.5c-4.8,14.3-19.9,14.3-32.6,15.9C374.4,603.5,375.3,600.1,376.8,588.4z"/>
	<path class="st0" d="M283.1,487.3c-23.8,3.6-50.6,8.7-72.4-4.4c-22.7-22-12.9-39.6,18.4-31c3.1,0.5,5,2.2,5.9,5.2
		c1.8,6.5,6.2,10.5,12.3,13.1c12.2,5.3,24.2,10.4,36,16.4C283.1,486.9,283.1,487.1,283.1,487.3z"/>
	<path class="st0" d="M87,452.1c9.9,8.6,10.4,23.2,15.4,34.7c1.3,3.2,2.9,7.7-2.1,7.8c-7,1-14.3,1.1-21.3,2.1
		c-6.2,0.9-2.6,9.8-3.1,14.1c2,11.9-15.8,6.5-17.1-1C53.2,484.8,63.4,462.6,87,452.1z"/>
	<path class="st0" d="M78.9,511.7c8.5,18.6,43.1,13,34.7-9.9c4.7-2.3,5.8-0.5,6.8,4c7.3,21,39.3,10.6,28.8-16.1
		c0.2-0.1,0.5-0.1,0.7-0.2c12.2,31.2-19.8,68-51.9,51c-8.8-4.9-15.2-12-20.4-20.4C76.1,517.3,78,515,78.9,511.7z M126.2,531.3
		c-0.9,0.6-1.9,1.2-2.5,1.6c3.4,2.9,9.3,2.2,11.6-1.7c-0.3-2.3,0.8-3.9,2.6-5.2c1.7-1.8,5.7-3,4.6-6.2c-3.9,1.4-4.7,7.8-10,7.5
		c-1.2,0.3-2.3,1.5-3.6,1.6c-1.8,0-2.5,1.1-3,2.5L126.2,531.3z M119,525.4c-0.2,0.2-0.3,0.4-0.5,0.5c3.7,4.3,15.9,1.4,14.1-5
		c-0.7-1.3-1.4-2.7-3.6-2.4c0.8,1.3,1.4,2.3,2,3.3C128,526.1,123.8,527.4,119,525.4z M120.5,533.5c-6.3-0.5-12.6-1.9-18.6-4
		C105,532.6,112.9,534.5,120.5,533.5z"/>
	<path class="st0" d="M506.5,439.8c-12.7,5.3-27.6,8.2-39.9,1.1c-5.7-2.7-10.1-9.3-7.3-15.6c4.2-16.2,18.6-23.6,33.1-29.4
		C491,411,492.7,430.8,506.5,439.8z"/>
	<path class="st0" d="M348.1,275.7c2.1-1.9,2.7-3.2,3.4-6.9c3.1-0.7,6.1-1.5,9.3-2.3c3.8,9.8-10.6,14.1-13.1,22.8
		c-2.3,4.8-5.6,6.1-11.2,5c0-0.5,0-1.1,0-2.2c-2.1,3.8-14.2,1.9-17.4-0.2c0.2-0.8,0.4-1.6,0.8-2.9c-0.9,1.1-1.5,1.8-2.1,2.6
		c-8.3-2.2-14.9-7.2-21.7-12.4c4.5-7.2,9-14.3,13.5-21.5c6.6,5.7,14.1,9,22.6,10.8c-1.9,3.1-3.6,5.9-5.3,8.7
		c0.2,0.1,0.4,0.3,0.6,0.4c8.8-14.7,7.3-5.5,23.1-8.6c-1.3,3.5-2,6.9-4.8,9.3c0.2,0.1,0.4,0.3,0.6,0.4
		C347,277.7,347.5,276.7,348.1,275.7z M345.1,280c-0.2-0.1-0.3-0.3-0.5-0.4c-1.6,1.3-2.8,3-3.3,5.1
		C342.6,283.1,343.8,281.6,345.1,280z"/>
	<path class="st0" d="M219.4,499.4c22.2,1.4,44.4,0,66.5,3.8c-5.5,7.8-11.7,14.7-17.5,22.3c-1.3,1.7-2.8,2.4-5.1,2
		c-9.8-2.6-22.2-3-29.8-10.1C229.7,510.7,223.7,505.4,219.4,499.4z"/>
	<path class="st0" d="M325.8,151.3c33.1,10.7,39.8-8.2,52.7,8.5c9.7,12.5,8.6,40.2-12.6,36.5c-7-1.2-9.7-8.2-13.6-13.2
		c-7-6.9-13.3,20-36,12.8C292.2,189.4,299.1,148.9,325.8,151.3z M379.3,178.3c-0.3-17.9-9.6-25.3-26.5-19.2
		c-11.3,3.9-21.4-5.6-32.6-2.6c-13.9,2.8-17.6,22.3-7.1,31.2c8,6.4,20.7,3.1,26.1-5.4c11.7-19,15,1.3,25.5,7.2
		C372.3,193.7,380.1,185.9,379.3,178.3z"/>
	<path class="st0" d="M87.6,554.9c1.4-5.2-2.2-9.2-3.8-14.1c7.8,5.9,13.4,1.5,7.8,12.7c-4.9,6.9,2.3,23.6-7.9,19.3
		c-17.5-2.1-29.5-17.6-29.2-35c0-6.3,5.4-12.9,13.9-12.2c5,1.5,7.3,7.5,10.9,11c2.4,6.3,6.1,11.8,7.6,18.5
		C87.1,555,87.4,555,87.6,554.9z M59.1,536.8c9.9,7.8,16.5,17.8,23,28.3c-2.4-12.2-10.8-21-20-28.4
		C61.4,536.2,60.6,535.5,59.1,536.8z"/>
	<path class="st0" d="M344.2,517.2c4.6-6.9,10.5-13.8,19.5-14c16.4-2.1,32.9-3.6,49.5-3.9c6.2-0.6,20.7,2,11,9.7
		c-25.5,8.8-53.1,7.4-79.7,8.9C344.4,517.6,344.3,517.4,344.2,517.2z"/>
	<path class="st0" d="M395.3,393.5c0.3-7.5,3.9-4.7,5.1-10.7c13.7,2.8,27.5,5.9,40.4,11.3c17.2,15.7-30.9,25.5-41.1,24.9
		c-1.5-4.5-1.5-9-0.7-14c6.1-0.2,25.7,0.5,26.7-7C415.6,398.3,405.1,396.1,395.3,393.5z"/>
	<path class="st0" d="M367.1,443.3c-6.9,3.2-13.1,6-19.2,8.9c-4.3,2.1-6.3-0.9-10.3-3.1c1.3-0.4,2.2-0.7,3.4-1.1
		c-1.1-0.7-1.3-0.9-1.3-0.9c-9.2,2-17.7-8.5-26.4-12.1C346.5,418.6,338.9,421.5,367.1,443.3z"/>
	<path class="st0" d="M352.6,426.2c5.1,0.6,9.8,2.8,14.6-0.5c1.5-0.9,3.2-0.9,4.8-0.2c2.6,1.1,5.7,2.1,7.6-0.6
		c1.5-2,3.4-2.4,5.7-2.4c12.2,0.1,24.2-0.8,36-3.9c6.6-2.1,6.5,6.8,9.1,11.3c-19-5.1-37.6,4.1-55.3,10.6c-7.4,4-17.2-9.3-22.9-13.7
		C352.4,426.7,352.5,426.4,352.6,426.2z"/>
	<path class="st0" d="M299.8,184.5c3.7,4.3,7.2,8.3,10.8,12.5c-6.6,5.5-7.1,13.8-7.3,21.8c-2.5,17.3-26.4,3.9-20.4-20.8
		C285.2,190.5,294,188.9,299.8,184.5z"/>
	<path class="st0" d="M291.5,247.7c1.9-2.2,2.9-3.9,4.4-6.7c3.6,6.4,7.8,11.7,12.9,16.1c-4.6,7.1-9,13.9-13.6,21
		c-7.5-5.6-22.5-23.6-15.2-32.8c6-4.2,5.8-12.3,11.2-16.6c8.9,11.9-2.7,22.3-8.8,32.3C287.6,258.3,288.8,252.5,291.5,247.7z"/>
	<path class="st0" d="M379.7,402.1c-2.2,0.6-3.7,1.9-5.6,0.1c-6.2-2.7,3.5,18.4,3.5,21.2c-3.6,4-8.4-6.3-9.5-1.3
		c0,1.1-0.4,1.5-1.2,1.8c-15.4,6.2-24.4-10.8-17.1-23.3c2-4.7,2-4.7,7-4.4c5.2,0.9,11.4-0.8,15.9,2.5
		C375.2,399.6,377.6,399.6,379.7,402.1z"/>
	<path class="st0" d="M96.6,546.5c8.9,3.1,17.7,2.1,26.6-0.9c-0.5,7.6-4.5,14.2-6.5,21.5c-2.9,7.2-13,5.2-19.3,7.3
		c-2.1,0-6.3,0.7-6.4-2.3C91.3,563.4,91.6,554.1,96.6,546.5z"/>
	<path class="st0" d="M128.6,485.7c-4.2-13.7-10.9-26.2-20.7-36.6c0.1-0.3,0.3-0.5,0.4-0.8c12.7,0.6,43.6,14.5,37.9,30
		C140.6,481.3,135,483.8,128.6,485.7z"/>
	<path class="st0" d="M346.7,401.3c-5.4-1.8-10.9-3.6-16.4-5.4c-0.1,0.2-0.2,0.5-0.3,0.7c5,3,11.1,3.7,16.6,5.8
		c-1.2,4.7-2.6,9.4-2.3,14.3c0.1,2.8-0.6,3.6-3.2,3c-13.4-3.6-18.2-0.9-14-17.2c1.6-5,5.9-24.3,13.3-20.2
		C355.8,389.1,356.7,386.5,346.7,401.3z M342.7,413.3c-5.1-1-9.8-3.9-15.1-3.6C330.1,411.9,339.1,414.2,342.7,413.3z M350.6,393.4
		c0.1-0.2,0.2-0.5,0.3-0.7c-5-2.4-9.9-4.9-15.2-6.5C339.3,390,345.9,390.8,350.6,393.4z"/>
	<path class="st0" d="M339.1,219.9c-3.5,10.2-15.3,9.1-23,4.7c-4.8-2.9-4.8-10-3.9-15c3.7-14.1,24.5-11.1,26.6,1.5
		C337.6,214.3,336.3,217.2,339.1,219.9z"/>
	<path class="st0" d="M378.7,210.5c-3.6,1.8-3.8,3.6-0.8,8.4c-3.9,11.4-22.3,11.5-24.7-0.8C348.8,199.8,374.3,190.5,378.7,210.5z"/>
	<path class="st0" d="M112.7,502.5c-3.2,5.3-3.1,5.3,0.6,8.1c-4.4,17.9-34.5,12.8-34.7-6c-0.1-1.7,0.5-2.3,2.2-2.2
		C91.6,504.2,101.9,502.7,112.7,502.5z"/>
	<path class="st0" d="M494.8,405.7c1-32,18.9,10,18,20.3c-0.3,3.6,1,9.8-3,11.6c-1.9,0.4-3.2-0.6-4.3-2
		C498.5,427.4,495.1,416.1,494.8,405.7z"/>
	<path class="st0" d="M148.1,491.4c-5.8,7.4,3.6,5,1.5,11.9c-1.4,10.5-18.5,17.4-25.2,7.9c-4.7-8.7-7.4-11.2,4.4-13.1
		c5.5-1.4,10.9-3.3,15.9-6.2C146.1,491.2,146.1,491.2,148.1,491.4z"/>
	<path class="st0" d="M78.3,499.6c5.3-3.3,12.1-2,18-3.2c17.2-2.5,34.4-7.7,49.7-16c2-1.4,5.4-0.9,7.2,0.6
		c4.2,5.9-21.9,13-26.3,15.1C111.5,500.6,94,503.8,78.3,499.6z"/>
	<path class="st0" d="M296.2,492.3c-7.9,10.5-11.2,6.9-22.4,6.1c-17.6-0.7-35.2-1.4-52.8-1.8c-3.2-0.1-5.6-0.7-7.8-3.4
		c-3.9-4.9-9.4-7.6-14.3-11.6c6.6-4.3,12.8,13.9,37.8,13.6c11.6,0.7,23.2-0.1,34.6-2.6C279.9,491,288,487.3,296.2,492.3z"/>
	<path class="st0" d="M379.9,419.8c-6.9-18.9-7.5-14.5,16.8-14.4C395.6,425.1,402.8,418.8,379.9,419.8z"/>
	<path class="st0" d="M385.4,223.2c-0.1-9.4,0.9-19.6-6.7-26.6c3.9-3.4,5.7-7.4,8-11.8C393.4,186.5,394.4,225.3,385.4,223.2z"/>
	<path class="st0" d="M515.4,603.8c-4-0.1-8.7-4.3-5-8.2c4-3.7,12.9-7.2,18.2-6.5c3.5,1.7,9.4,5.4,4,8.8
		C527.2,600.9,521.6,603.1,515.4,603.8z"/>
	<path class="st0" d="M354.4,366.4c-1.7,5.9-3.4,11.6-5.2,17.6c-2.6-1.7-8.3-2-8.9-5.9c-0.3-5-0.4-10.1-0.6-15.3
		C344.7,364.1,349.6,365.3,354.4,366.4z"/>
	<path class="st0" d="M117.5,569.8c3.1-8.8,5.6-16.8,7.8-25.6c2.3-0.5,4.4-0.9,6.8-1.3c-0.1,7.4-3.1,14.2-5.3,21.1
		C125.1,567.3,120.7,567.6,117.5,569.8z"/>
	<path class="st0" d="M375.6,377.2c1.9-3.8,3.1-8.8,8.3-6.9c3.2,0.7,6,1.9,6.9,5.7c1.1,3,4.2,5.1,6.6,7.2
		c-9.2,11.4-10.9-11.5-21.3-5.5C376,377.6,375.8,377.4,375.6,377.2z"/>
	<path class="st0" d="M374.6,374.7c-1.1,2.3-1.9,4.2-2.8,6.2c-6.2-0.7-12.2-1.5-18.6-2.2c1-2.8,1.9-5.5,2.9-8.2
		C362.2,371.9,368.2,373.3,374.6,374.7z"/>
	<path class="st0" d="M352.9,380.2c6.1,0.8,11.8,1.5,17.6,2.3c-0.1,3.2-1.2,5.7-2.2,8.4C362.1,390.9,349,388.8,352.9,380.2z"/>
	<path class="st0" d="M344.2,549c12.3,2.6,10,12.2-1.6,12.8C334.7,562,340,550.7,344.2,549z"/>
	<path class="st0" d="M386.6,393.6c0.6-11.6,10.7,0,4.5,6.8c-1.3-1.3-2.5-2.6-3.8-4.1c-2.4,2.3-4.9,3.6-7.9,1.5
		c-2.2-2.2-9.9-3.1-8.6-6.9c0.8-1.2,2.1-1.1,3-0.3C377.8,394,381.8,391.2,386.6,393.6z"/>
	<path class="st0" d="M358.1,194.9c-6.5,0.3-12.9,0.5-19.8,0.8C349.6,183.3,348.5,177.8,358.1,194.9z"/>
	<path class="st0" d="M386.7,386.2c-0.7,1.6-1.3,2.9-1.8,3.9c-5,0.3-8.8,0.1-13.2-2.7C373.5,375.7,381.9,376.9,386.7,386.2z"/>
	<path class="st0" d="M360.4,362.3c5.3,3.1,9.9,5.3,15.6,7.4c1.2,7.3-13.4,0.3-17.3,0.4C355,369.1,358.4,363.6,360.4,362.3z"/>
	<path class="st0" d="M356.2,151.5c-9.5,3.9-18.1,0.5-27.5-1.7C335.2,146.5,350.5,147.4,356.2,151.5z"/>
	<path class="st0" d="M72.8,421.8c5.7,8.4,11.4,16.9,17.3,25.6c-1.7,0.7-3.3,1.3-5.1,2.1c-3.3-9.7-8.8-18.1-12.6-27.6
		C72.5,421.9,72.7,421.8,72.8,421.8z"/>
	<path class="st0" d="M94.4,541.7c-11-4.1-17.3-12.2-22.5-21.6c1.8-2.2,3.6,0.1,4.4,1.8C81.2,529.8,87.3,535.9,94.4,541.7z"/>
	<path class="st0" d="M134.4,547.6c3.8,10.1,4.5,10-5.1,16.2c1.6-5.8,3.1-10.9,4.5-16C134,547.7,134.2,547.6,134.4,547.6z"/>
	<path class="st0" d="M415.3,400.9c-6.9,0.4-13.8,0.8-20.7,1.2c0.4-1.8,0.8-3.2,1.2-5c6.6,1.1,13.1,2.2,19.6,3.3
		C415.3,400.6,415.3,400.8,415.3,400.9z"/>
	<path class="st0" d="M301.9,161.3c-0.3,6.8-4.9,9.1-10.5,11.4C294.3,167.9,297.7,164.5,301.9,161.3z"/>
	<path class="st0" d="M382,401.9c3.4-1.9,4.1-1.9,5.9,0C385.9,402.2,384.2,403.1,382,401.9z"/>
	<path class="st0" d="M356.4,393.7c1.8-1.1,3.1-1,5,0C359.5,393.7,358.3,393.7,356.4,393.7z"/>
	<path class="st0" d="M347.6,420.5c0.3,0.8,0.5,1.6,0.8,2.4c-0.1,0.2-0.3,0.3-0.4,0.5c-1.8-0.6-1.9-1.5-1-3
		C347.2,420.4,347.4,420.5,347.6,420.5z"/>
	<path class="st0" d="M156.7,638.8c0.1,29.3-36.3,43.3-54.3,23.8c-8.5-9.2-11.8-24.1-5.6-35.4C110.7,600.7,157.4,605.1,156.7,638.8z
		 M121.6,633.7c-7.9-1-10.2,10.4-4,13.4C126.3,652,133.5,633.2,121.6,633.7z"/>
	<path class="st0" d="M170.2,612.3c1,1.3,1.9,2.5,2.9,3.8C171.2,615.6,170.8,613.9,170.2,612.3z"/>
	<path class="st0" d="M126.1,531.4c2.6-1,5.1-1.9,7.7-2.9c1.4,2.8-3.1,3.6-4.8,4.7c-1.8,0.7-2.2,0.4-2.8-1.9
		C126.2,531.3,126.1,531.4,126.1,531.4z"/>
	<path class="st0" d="M326.7,158c10.9,3.5,23.3,6,34.6,1.5c13.4-3,20.2,15.6,13.4,25.4c-13.7,15.2-17.5-24.5-33.7-8.8
		C316.7,211.2,291.4,161.6,326.7,158z"/>
	<path class="st0" d="M121.3,635.9c6.2-0.7,5.2,8.4,0.3,8.2C115.7,643.6,114.2,636.2,121.3,635.9z"/>
</g>
</svg>
