<?xml version="1.0" encoding="utf-8"?>
<!-- Generator: Adobe Illustrator 26.0.0, SVG Export Plug-In . SVG Version: 6.00 Build 0)  -->
<svg version="1.1" id="Capa_1" xmlns="http://www.w3.org/2000/svg" xmlns:xlink="http://www.w3.org/1999/xlink" x="0px" y="0px"
	 viewBox="0 0 595.3 925.9" style="enable-background:new 0 0 595.3 925.9;" xml:space="preserve">
<style type="text/css">
	.st0{fill:#FFFFFF;}
</style>
<g>
	<path d="M423.3,824.2c10.6,18.4,21.4,36.5,31.6,55c5,10.1,10.3,20.1,20.3,26.1c12.1,11-10.1,20-19.7,18.4
		c-19-1.6-44.3,3.5-60.8-6.7c-4.1-3.5-4-10.3-6.7-14.6c-4.9-6.9-10.6-13.3-15.8-20.1c-18.3-22.8-33.6-48.7-57.9-65.7
		c-21-6.5-44.9-3.8-66.8-6.9c-8.1-1-10.3,8.7-14.7,13.6c-2.7,3.9-4.4,7.1-1.6,12.6c9.8,21.6,15.7,45.2,22.8,67.9
		c1.9,5.8-1.8,9.5-7.3,9.5c-13.2,10.8-29.4,6.5-44.3,9.2c-7,1.3-14.1,2.4-21.2,3.2c-8.1,0.9-13.5-4.3-13.5-12.3
		c-0.5-10.4,7.1-16,12.8-24.1c-7.2-16.8-10.7-35.5-19.1-51.9c-6.1-12.2-4-22.9,3.4-33.8c8.2-13.3,13.4-27.4,22.5-40.5
		c-5.3,0.4-7.1-2.3-7.5-6.4c-2.4-17.9-2.3-36-3.7-53.9c-1.1-34.6-1.3-69.3-1-103.9c0-6.6-0.6-13.3,0-19.9c0.4-4.9-2.4-6.4-5.8-8
		c-41.3-19.1-81.7-40.1-122.4-60.2c-9.1-4.4-18.4-8.6-27.1-13.7c-1.7-1-2-6.2-1.2-9.1c3.7-10.9-16.8-3.8-16.3-25.8
		c0.2-6.3,1.8-12.7,3.2-18.9c3.7-10.6-12.9-23.1-1.4-31.9c9.9-3.2,24.9,23.8,33.1,30.1c39.3,18,74.2,41.7,112.9,61.7
		c-14.1-32-14.2-65.6-8.9-99.4c3.9-32.3,21.9-66.5,45.1-89.2c4.6-4,9.3-8.3,14.7-10.7c3.6-1.6,5.4-3.7,6.2-6.9
		c7.9-27.1,11.7-55.4,19.5-82.5c10.3-32.7,19.3-65.6,33.2-97c18.2-41.7,35.6-91.2,79.3-112.3c10.2-5.1,22.5-7.5,34.5-2.6
		c3.7,1.5,8,4.2,11.4,3.5c15.3-2.6,24.3,16.6,26.2,28.5c6.1,39.1-8.8,77.8-22.1,114.1c-9.6,25.7-15.8,53.8-33.5,75.4
		c-10.8,26.4-31.4,47.7-46.9,71.2c13.4,4.3,27.2,8.8,41.3,13.3c4-11.5,8.3-24.3,13-37c7.7-20.4,20.1-38.2,30.6-57.2
		c21.3-37.4,37.8-78.5,69.5-108.7c29.3-28,69-58.2,110.5-36.3c35.3,18.7,19.8,65.3,6.7,94c-9.3,15.1-16.9,31.2-29.1,44.5
		c-6,5.7-9.5,13.9-14.2,21c-18.3,25.7-43.6,45.3-66.1,67.1c-23.5,20.2-45.2,42.4-70.6,60.2c8.4,18.7,7.8,40.9,8.6,61.4
		c-0.8,36.4-15.7,71.6-32.6,103.2c-13.3,9.5-20.7,25.8-36.8,32.2c-1.4,0.6-2.5,1.9-4.8,3.8c16.6,12.5,33,22,52.3,29.1
		c21,7.8,41.9,16.6,63.5,22.5c29.6,6.3,60.3,8.3,90.3,4.8c5.1,0.2,28.2-11.9,25-1.1c-7.4,21.7-11.6,44-14.1,66.8
		c-8.6,72.3-66.7,114.2-127.5,144C424,823.6,423.6,824,423.3,824.2z"/>
	<path class="st0" d="M402,387.4c-11.2-12.8-25-23-37.1-34.7c-11.4-12.7-26.8-18.6-41.5-25.1c-38-16.1-92-10.8-132.9-4.9
		c10.2-10.9,24.1-12.5,25-29.6c1.6-16,7-31.6,10.5-47.5c3.9-23,7.7-45.8,17.9-67c13.6-37.9,26.6-76.2,48.3-110.4
		c13.8-18.6,23.8-42.6,46.3-52c2-1,4.6-2.3,5.3-4c6-12.6,41.8,2.3,50.4,8c9.7,8,7.8,24.1,8.3,35.7c0.2,4.9-1.6,9.9,1.3,14.6
		c-0.9,13.9-5.2,28.4-8.4,42.1C379.5,168.5,351,219.9,319.1,268c-5.3,8-11.3,15.5-16.4,23.6c-1.7,2.6-2.9,2.9-5.8,2.6
		c-7.1,0.4-37.6-4.7-39.8,0.2c2.3,0.4,4.8,1.4,7,1.2c21.3-2.4,41,4.2,60.7,10.6c12.7,2.9,21.5,13.3,34.8,15c1.7-3.2,1.4-5.3-2.2-6.2
		c-3.9-1-3.7-3.2-2.2-6.4c7.6-17,14.6-34.3,22.6-51.1c32.5-65.3,68.1-131.1,127.7-175.6c9.1-8.1,22.2-8,33.8-9.5
		c8.9-0.3,17.8-0.6,26.8-0.4c2.5,0.4,4.8,4.6,6.7,6.4c15.8,10.1,2.5,28.7,9.9,36.5c1.1,1,0.6,4.4,0.2,6.5
		c-3.3,13.8-4.1,28.9-9.9,41.9c-13.4,27.8-33.8,51.3-52.5,75.7c-27.8,29.4-59.4,55.3-89.8,82c-58.5,48.5-45.6,16.9-27.6,65.2
		C402.7,386.7,402.4,387.1,402,387.4z"/>
	<path class="st0" d="M330.6,604.4c5.6,19.2,13.5,37.3,16.1,57.4c2.2,14.4,6.7,28.5,10.1,42.8c2.5,10.5,5,21,7.5,31.5
		c1,4-0.7,5.6-4.7,6.2c-21.6,9.5-45.9,8.6-68.9,12.7c-21,3.4-42,1.7-63,1c-11.9,0.8-24.1,1.7-35.9-0.8c-5-0.9-3.5-6.1-4-9.4
		c0.7-18.2-4.7-35.8-3.2-54.1c0.5-3.3-1.4-6.9-1.7-10.3c-3.1-35.1-3.5-70.2-4.6-105.4c-0.1-1.9-1.9-4.4-3.6-5.4
		c-49.7-25-98.1-52.7-147.7-77.8c-10.4-2.5,10.5-45.4,18.6-38.6c36.9,19.1,74.2,38.3,109.7,59.8c4.6,3.3,7.2,9.4,11.4,13.5
		c5.2,5.1,6,10.9,6.7,17.7c3,36.6,50.4,63.8,75,28.4c12.9,16.9,20,22.3,41.3,19.9c13.9,0.4,23.5-9.8,31.6-19.8
		c6.3-7,6.2-6.9,14.6-3.1c34.8,15.7,69,32.3,104.3,47c9.5,4.4,18.8,9.5,27.9,14.6c8,1.5,10,7.5,10.3,14.3
		c-0.1,13.2,3.3,27.5-3.4,39.6c-44-20.4-85.5-40-128.7-60.1c-9.9-3.4-9.5-14.2-14.3-22C331.3,604.1,330.9,604.3,330.6,604.4z"/>
	<path class="st0" d="M235.7,801.1c4.6,2.8,3.2,5,1.2,7.7c-4.8,6.8-9.4,13.9-13.8,21c-0.7,1.1-1,3.2-0.5,4.3
		c9.4,21.9,20.5,43.2,24.1,67c1.3,16.1-56.2,17.9-67.8,16.3c-12.2-2.5,2.5-14.8,5.2-20.3c1-1.5,2.4-3.7,2-5.2
		c-4.5-19.7-11.2-38.5-20-56.7c-9.5-22,12.1-40.4,21.1-58.8c6.8-13.9,13.1-13.3,26.1-11.9c8.6,0.5,17.2,1.3,25.7,1.1
		c14.2-0.4,29,0.8,42.4-2.8c28.7-5.4,54.4-6.2,83-14.8c26.3,34.4,44.7,75.5,69.1,111.4c13.2,17.9,20.1,39.2,39.2,52.1
		c-2.4,1.7-4.2,4-6.1,4.2c-21.1,3-42.1,2.4-62.8-3.1c-1.5-0.3-3.7-2.2-3.8-3.4c-0.3-6.6-4.8-10.9-8.3-15.5
		c-10.5-14-21.4-27.7-32.4-41.2c-11.2-13.7-22.5-27.3-34.3-40.5c-2.4-2.6-7.2-3.9-11-4.3C287.8,805.5,262,802.1,235.7,801.1z"/>
	<path class="st0" d="M477.1,695.3c1.9-4.6,3.2-7.6,4.7-11.1c3,1.6,5.7,3.1,8.3,4.6c8.1,3.8,21.6-4.1,14.6-13.5
		c-2.1-4.7,4.8-10.5-0.8-14.6c-0.6-0.6-1.5-1.6-1.4-2c4.6-9.6-12.9-13.1-19.5-16.8c2.2-13.3-7.4-18.5-19.4-21.7c0.3-0.7,0.7-1.3,1-2
		c21.3,1.9,42.8,8.1,63.9,1.3c9.7-3.8,21.4,1.6,30.2-7.5c0.1,21.1-8.1,42.6-10.6,63.8c-4.3,26.2-16.8,50.3-31.7,72
		c-25.8,29.7-61.2,50.3-96,67.9c-6,1.9-11.1-14.9-14.9-19c-9.9-15.3-18.3-31.5-29.5-46c-2.9-3.8-3.9-6.7-2.1-11.8
		c1.4-3.8-0.6-9-1.7-13.4c-8.5-33.6-18.4-65.9-31.2-98.2C387.2,650,431.1,674.2,477.1,695.3z"/>
	<path class="st0" d="M146.6,418.4c20.6,22.5,53.8,26,80.2,14.2c11.7-3.7,23.9-7.4,35.2-0.7c10.6,6.4,22.5,10.6,31.3,20.4
		c25.5,21.6,66.3,26.1,98.1,16.8c-0.1,1.6,0.3,3.4-0.4,4.5c-8.1,14-12.2,30-22.6,42.9c-10,12.4-22.3,21.7-35.2,30.5
		c-7.3,4.3-13,12.4-22.7,9.9c-12.9,2.9-25.8,7.5-39.4,8.1c-8,0.5-15.3,0-22.9-2c-13.9-3.1-28-4.2-40.5-11.9
		C152.2,530.4,140.9,471.2,146.6,418.4z M239.9,483.3c-10.2-3.2-32.7-22.9-37.7-5.9c-4.8,21,21.9,33.2,37.8,39.1
		c17.4,8.3,78.6,7.8,75.5-20.4c-6.4-21.2-53.7-4-72.4-12.1c-0.3-6.3,0.2-11.4,1.4-17.2c11.6,0.2,26.9,2.6,29.4-12.1
		c0.2-1.1-0.6-2.4-1-3.6c-7.7,2.1-7.7,14.7-19.1,13.1c-9.3-2-25,0.5-27.4-11.6c-1.9-10.1,3.3-8.7,7.9-15.5c-0.8-0.4-1.1-0.8-1.4-0.7
		c-10.1,2.2-14.8,22.3-3.5,27C246.5,468,241.3,466.9,239.9,483.3z"/>
	<path class="st0" d="M403.2,410.5c1.3,10.5-6.3,52.8-16.4,55.6c-11.3,0.4-22.7-0.2-33.9,0.6c-35,0.9-60.8-23.7-88.6-40.6
		c-13.3-7.4-30-4.6-42.4,4.2c-4.9,3.7-13,4.1-19.7,4c-19.5,0.4-40.1-3.9-51.9-20.8c-1.6-2-2.1-5.7-1.8-8.5
		c1.5-19.3,19.2-79.5,42-78.3c61.5-9.5,132.4-9.1,180.7,35.9c9.8,8.8,19.4,17.7,28.9,26.9C405.4,395,402.8,403.6,403.2,410.5z
		 M331.6,451.7c9.9,0,22.8-1.9,30-8.1c12.9-13.8,19.3-33.9,13.3-52.5c-5.5-6.9-7.1-15.8-13.8-22.5c-17.2-17.1-45.6-8.2-61.7,5.4
		c-13.9,15.8-27.5,45.8-7.2,61.9C303.7,444.5,316.8,452.5,331.6,451.7z M173.6,391.2c0.3,25.9,27.4,32.9,48.2,25.7
		c20.8-7.1,29.2-30,28.4-50.2C249.5,320.1,178.5,326.8,173.6,391.2z"/>
	<path class="st0" d="M176.9,539.3c22,13.3,43.4,26,69.3,29.3c-6.6,6.5-12.8,12.5-21.2,16.1C197.8,592.4,178.8,563.9,176.9,539.3z"
		/>
	<path class="st0" d="M38.2,446.6c-6.6,7.2-11.7,14.9-14.4,24.1c-2.1,7.1-5.2,7.6-10.5,3c-9.6-8.2-6.7-20.8-3.2-30.4
		c2.9-0.8,6.7-1,7-2.1c1-3.8-0.7-6.4-5.1-7.5c-5.6-1.4-8.4-13.1-4.2-18.8C19.7,423.8,27.2,436.9,38.2,446.6z"/>
	<path class="st0" d="M253.1,569.1c23.3,3.7,45.8,1.8,67.9-4.6C312.6,592.7,260.3,600.1,253.1,569.1z"/>
	<path class="st0" d="M498.5,662.6c0.8,0.9,2.5,2.8,4.8,5.5c-12.7,1.5-7,7.4-1.9,14c-5,4.2-13.8,3.4-17.3-1.3
		c-1.9-11.2-0.1-22.4-0.7-35.1c5.6,3,10.6,5.2,15,8.4C499.4,654.9,498.5,658.7,498.5,662.6z"/>
	<path class="st0" d="M306.9,508.8c-4.8,8-45.4,13.3-52.5,7.6C262.4,506.2,296.4,501.9,306.9,508.8z"/>
	<path class="st0" d="M272.5,489.5c3.1,10.5-11.3,4.9-16.5,4.6c-2.8-1.5-2.6-4.9,1.1-5.4C262.1,489,267.5,489.9,272.5,489.5z"/>
	<path class="st0" d="M228.4,479.2c4.4,2.7,8.6,5.3,13.1,8C233.8,489.8,227.3,485.7,228.4,479.2z"/>
	<path class="st0" d="M332.1,362.9c40.6,0.3,53.3,45.5,31.1,74.8c-3.6,5.8-9.3,9.9-17,9.5c-16.7,4.3-32,0.2-46.2-8
		c-8.8-4.7-12.6-13.9-15.4-23C283.9,391,307,364.8,332.1,362.9z M317.5,383.5c-4.8-7.5-12.9-2.4-13.5,5.7
		C304.8,400.2,318.5,393.5,317.5,383.5z"/>
	<path class="st0" d="M248.8,364.1c-2.8,12,0.1,23.8-7.8,32.9c-5,5.7-9.8,12.3-16.2,15.9c-8.7,5-18.8,2.8-28.7,1.5
		c-9.4-1.2-13.6-8.4-17.5-14.6c-7.2-15.8,6.3-46.3,20.6-55.2c11.7-6.9,32-8.3,42,2.4C244.5,352.8,246.6,359.1,248.8,364.1z
		 M202.7,351.8c-9.3-0.7-15.1,13.9-5,14.7C204.7,366.8,210.2,353.7,202.7,351.8z"/>
</g>
</svg>
