<?xml version="1.0" encoding="utf-8"?>
<!-- Generator: Adobe Illustrator 26.0.0, SVG Export Plug-In . SVG Version: 6.00 Build 0)  -->
<svg version="1.1" id="Capa_1" xmlns="http://www.w3.org/2000/svg" xmlns:xlink="http://www.w3.org/1999/xlink" x="0px" y="0px"
	 viewBox="0 0 595.3 575.4" style="enable-background:new 0 0 595.3 575.4;" xml:space="preserve">
<style type="text/css">
	.st0{fill:#FFFFFF;}
</style>
<g>
	<path d="M504.9,227.6c31.3,6,62.2,17.3,86.4,38.4c2.7,2,5.5,5.3,3,8.5c-13,12.2-30.5,19.1-46.7,26.2c-18.5,7.8-38,11.2-58,11.3
		c21.7,14.7,41.6,32.8,54.7,56c3.1,7,15.2,23.5,1.7,25.9c-34.4,3.3-71.4,2.7-101.8-15.8c-0.1,1.4,0.6,2.1,1.1,2.8
		c14.8,21.6,23.4,47.1,25.8,73.1c0.4,4.8,0.6,9.5,1,14.3c0.1,1.6-0.6,2.5-1.8,3.4c-2.4,1.8-4.8,1.9-7.6,1.1
		c-32.1-9.7-63.3-25.3-86.1-50.3c-0.7,2.2,0.5,8.7,2.5,12.8c25.6-4.1,30.7,45.9,26.3,63.2c-2.6,11.1-16.4,9.1-22.2,1.8
		c-4.2-4.4-6.5-9.3-9.3-14.8c-1.8,6.3-3.5,11.9-5.2,17.7c18.8,4.7,21.9,35.6,23.3,51.9c1.1,26.4-19.4,24.8-30.3,5.3
		c-7.1-12.3-12-25.6-14.5-39.6c0.2-5.7-3.3-10.1-5.1-15.1c-21.3-17.1-35.7-40.9-42.5-67.4c-10.9,30.3-27.6,56.8-51.2,78.8
		c-1.8,1.7-3.6,2.1-6,2.2c-2.7,0.1-3.6-1.2-4.7-3.2c-15-27.2-22.4-58.7-17.7-89.5c-20.7,25.9-48.6,48.1-81.9,54.3
		c-2.2,0.4-3.9-0.3-5.6-1.5c-3.7-3.3-1.5-23.5-1.5-29.2c1.4-22,6.1-44.3,18.7-62.7C116.9,399.1,81,405.4,47,395.8
		c-1.7-0.4-2.5-1.4-3-2.9c-1.8-4.5,1.6-8.9,3.2-13c11.8-24.7,29.8-46.9,51.9-62.4C62.5,315.5,27.7,302,1.5,276
		c-1.7-1.3-2.3-4.3,0.3-4.9c65.5-0.1,132.6,6,197.1-7.9c-13.1-9.2-27.2-17.2-40.1-26.9c-1.1-0.8-2.1-1.3-3.6-1.3
		c-3.4-0.1-6.5-2-9.3-3.8c-4.2-4.1-7.4-0.4-12.4-2.1c-2.7-0.6-3.5-3.9-5.3-5.7c-1.8-2.2-3.9-4.2-5.6-6.5c-1.6-2.2-1.5-3,0-5.2
		c3.7-5.9,8.1-11.3,14.2-14.8c4.1-2.3,8-1.8,11.4,1.5c7.8,6.8,13.9,15.9,23.2,20.7c25.1,11.4,49.7,24.2,76.1,32.5
		c1.1,0.4,2,0.4,2.9-0.3c6.9-5.2,11-3.4,19-2.6c-1-2.2-1.9-4.1-2.6-5.7c-78.5-5.1-102.2-62.4-96.6-133.2c-0.7-5.7-0.1-11.3,1-16.8
		c0.8-2.8,1.2-5.4,0.4-8.4c-1.2-4.6-0.5-9.4,0.7-13.9c0.9-3.5,2.2-6.9,3.4-10.4c1.4-4.3-4.2-6.1-0.8-16.8c2.3-7.8,7.7-14.2,13-20.2
		c2.1-2.3,3.8-4.7,5-7.6c1.2-2.9,2.3-5.8,3.3-8.8c0.5-1.6,1.3-2.4,3-2.8c4.6-1.1,4.7-1.1,4.5,3.7c-0.4,8.6-1,17.1-1.2,25.7
		c1.6,1,2.7,0.7,4-0.4C247.2-1.2,309-5.1,352.7,26c2.7,1.9,5.3,2.4,8.4,2.1c25.3,0.3,44.8-5.7,61-26.3c1.8-2.3,1.8-2.2,4.2-0.8
		c1.5,0.8,2.2,1.9,2.3,3.7c1.1,15.3,1.1,32.6-9.4,44.9c-1.1,1.8-4.6,4.5-2.3,6.6c0.4,0.3,0.7,0.8,0.9,1.3c11.7,25.1-4.8,21.4-1.8,34
		c2.1,6.9,6.3,15.5,1.8,22.2c-1.7,3.1-5.5,5.1-6.2,8.7c-5.4,58.6-49,107.8-107.5,117.4c0.3,1.3,0.6,2.3,1.1,3.4
		c2.5,0.4,4.8,1.2,7.2,0c5.2-2.3,10.4-4.3,16-5.3c15.7-1.4,31.3-3.1,46.3-7.9c69.8-22.7,134.7-58.1,200.8-89.4
		c5.9-2.2,4.8,5,2.7,8.1c-4.2,7.4-8.3,14.9-12.9,22c-15,23.4-35,44.5-60.6,56.3C504.9,227.2,504.9,227.4,504.9,227.6z"/>
	<path class="st0" d="M207.5,219.4c-32.6-24.3-37.4-69.6-33.9-107.3c-1.5-7.2-0.4-14.2,1.3-21.1c0.4-1.8,0.5-3.5,0-5.3
		c-2.6-8.5,1.6-17,4.2-25c0.5-1.4,0.6-2.5-0.3-3.8c-4.7-7.4,0.1-16.3,4.5-22.7c5.5,4.3,12.1,5.8,18.6,7.2c22.3,5,41.1,19.8,53.2,39
		c10.2-11.4,21.7-20.8,36.2-26.4c19.2-8.6,39.1-15.7,60.2-17.4c23.9-3.9,52.6,0.4,70.6-19c1,8.7,0.9,17.2-1.7,25.5
		c-4.1,6.6-7.9,10.9-14.7,15.2c3.1,0.6,5.2-0.4,7.7-1.5c3.2,3.5,4,8.5,5.4,12.8c2.8,9.2-9.1,13.4-5.6,22.7c1.3,4.2,2.4,8.5,3.5,12.8
		c1.5,5.3-2.8,9.3-6.1,12.7c-0.9,0.9-1.4,1.8-1.6,3.1c-1.4,10.3-3.5,20.4-6.6,30.2c-15.9,58.2-78,93.1-135.9,88.6
		c18.7-2.7,38.6-7.2,52.5-20.9c20.3-23.2,5-49.9-23.9-52.9c-21-2.8-41.7,7.1-62.5-0.1c-7.4-2.1-15.1-2.7-22.7-1.6
		c-17.3,2-23.6,23.5-16.2,37.5C196.7,208.7,202.2,213.9,207.5,219.4L207.5,219.4z M338.2,120.2c1.9-2.1,4.8-3.2,7.1-5
		c3-1.3,2.7-3.6-0.4-4.4c-26.4-13.6-70.2-6.7-70.6,28.1c-0.3,6.3,2.3,10,8.5,11.7c11.3,2.9,23.2,1.2,34.7,1.1
		C333.1,151.4,345.3,134.9,338.2,120.2z M190.1,119.1c-8.5,37.2,20.4,34.4,46.9,29.2c2.3-0.5,2.7-0.7,2.6-3.1
		c0.1-11.9-2.5-24.3-11.6-32.6c-13.7-13.1-31.4-11.3-44.1-2.1C179.9,113.8,187.8,117.1,190.1,119.1z"/>
	<path class="st0" d="M344,386c-10.4,5.2-9.6,19.3-7.2,29c2,8.7,3.2,17.7,7.8,25.5c7.4,20.4,11.3,42.1,17.3,62.9
		c0.7,2.8,2,5.4,4,7.8c0-1.4,0-2.8,0-4.3c11.2-1,16.1,12.2,18.7,21c2.9,12,6.4,24.7,3.8,37c-3.4,12.9-14.9,7.2-20.5-0.7
		c-9.4-12.7-15-28.6-17.6-44.1c0.2-2.4-0.6-4.6-1.6-6.7c-12.1-27.5-24.3-54.9-36.1-82.6c-13.8-36.7-27-73.6-46.9-107.5
		c2.7,2.4,5.6,3.9,8.2,6.5c-1,0.1-1.9,0.1-3.2,0.2c2.8,5.6,9.8,6.1,15.3,5.8c8-0.8,15.7,1.1,23.2,3.6c4.6-7.8,11.3-13.6,19.1-17.9
		c4-2.2,6.5-5.5,8.3-10.3c-1.6,0.3-2.8,0.5-4,0.7c-0.8-3.3,6.3-2.9,5.8-11.4c-1.2,0.4-2.3,0.8-3.4,1.1c-1.2-2.6,3.6-3,4.7-11.5
		c-2.2-0.6-4.1,0.1-6,0.1c-0.9,7.8-2.7,15-5.1,22.5c-0.8,2.7-2.7,4.7-4.8,6.7c-5.4,5.3-10.9,10.8-16.1,16.4
		c-30.2-6.1-33.7-2.6-49.4-31.9c-0.9,0.2-1.7,0.3-2.7,0.5c-2.8-5.1-5-10.7-7.3-16.1c-2-5-5.5-8.4-10.2-10.6
		c-9.7-4.5-19.4-8.9-29.2-13.3c-17.7-8-33-20.1-48.9-30.9c0.4-0.7,0.8-1.5,1.3-2.3c-1.2-0.6-2.1,0-3,0.4c-4.3,1.7-8.6-1.4-12-3.8
		c0.1-0.2,0.1-0.3,0.2-0.5c1.9,0.6,3.7,1.3,5.8,2c-4.7-7.6-5.9-4.7-12.6-2.9c-1.3,0.3-2.8,0.4-4.1,0.3c-6.3-1.1,1.2-7.8,4.1-8.7
		c2.8-1.2,5.8-2.1,8.5-3.7c0-0.2-0.1-0.3-0.1-0.5c-1.7,0.2-3.5,0.4-5.3,0.7c-2.9-4.4-1.5-6.8-0.2-11.4c-0.2-0.1-0.3-0.2-0.5-0.2
		c-1.3,0.9-1.9,2.3-2.8,3.5c-1.7,2.2-2.5,4.5-0.4,7c0.3,0.4,0.5,1.1,0.3,1.6c-1.6,0.9-3.2,1.7-5,2.7c-2.1-2.7-7.5-7.5-4.2-11
		c3.2-2.4,5.9-5.8,9.6-7.4c2.4-0.9,4.5-0.6,6.4,1.4c8.3,7.4,15,17.1,25.2,22c28.6,13.3,56.9,27.2,87.2,36.1c0.6,0.2,1.3,0.6,1.6,1.1
		c9.2,17.1,31.6,10.6,45.6,3.7c4.7-2.5,8.9-5.7,11.9-10.3c0.4-0.6,0.9-1.1,1.5-1.4c2.9-1.5,5.8-3.2,8.9-4.3
		c9.3-2.8,19.4,0.1,28.9,0.4c19.4,1.9,38.7,3.9,58.1,5.7c8.5,0.3,17.2,2.9,25.6,1.6c9.4-2.5,18.6-6.2,28.5-4.5
		c-3.8,1.9-7.8,3.4-10.9,6.5c10.6-1.4,19.3-6.9,28.1-12.6c2.2,6.1-13.6,13.1-17.7,16.4c-5.7,4-11.5,7.9-15.8,13.4
		c-3.2,2.8,6.9,5.1,10.5,10.6c1.7,1.7,1.1,5.3-1.8,4.5c-4.6-2.1-8.8-4.9-13.4-6.9c-6-2.8-10.5-7-13.5-12.8c-0.3-0.6-0.7-1.2-1.5-1.7
		c0.1,1.3,0.2,2.5,0.3,4c-29.8,1.9-59.6-0.3-89.4-1.3c-2-0.1-2.4,0.3-2.6,2.1c-1.2,15.8-2.1,32.4,4.1,47.3
		c5,10.8,10.1,21.8,17.3,31.4c20.6,20.7,7.7,50,11.5,75.5c0.8,6.2,2.4,12.4,8.1,16.1c0.5-1.6-1-2.6-0.8-4.1
		c20.6-3.1,24.4,42.4,22.4,56.5c-0.8,6.2-5.4,10.3-11.7,7.7c-12.9-5.4-21.1-32.9-22.9-45.9c2.2,0.7,4.3,1.4,6.4,2.1
		c0.1-0.1,0.1-0.3,0.2-0.4c-9.2-6-20.5-9.5-27.4-18.3c-6.7-9.5-7.3-21.6-9.5-32.7C337.1,399.7,339.2,392.6,344,386z M307.4,288.1
		c-9.4,1.8-18.3,3.4-27.6,5.2c1.3,1.2,2.3,2.2,3.1,2.9c-1.2,1.8-2.4,3.4-3.7,5.2c-5.9,0.9-12.2,1.8-18.8,2.8
		c5.7,12.1,14.2,25,28.5,26.4c5.9,0.7,11.6,1.8,17.5,2.7c15.4-16.4,24.2-16.9,24.9-42.3c-6.9,1.7-13.5,3.2-19.6,4.7
		c-2.1-1.6-3.8-2.9-5.6-4.3C306.4,290.5,306.8,289.6,307.4,288.1z"/>
	<path class="st0" d="M222.6,350c-9.6,20.4-11.3,43.7-6.6,65.6c0.3,1.2,0.2,2.1-0.7,3.1c-13.8,14.6-43,48.9-64.8,34.1
		c-16.7-14.2,2.3-50.6,8.8-66.9c-2.7,0.2-5.4,0.5-8.1,0.7c-0.2,0-0.5-0.4-1-0.8c5.6-21.5,13.4-44.3,30.5-59.5
		c3.4-2.9,7.1-5.2,11.3-6.8c17.3-6.4,33.9-14.1,48.8-25.3c-6.7,15.8-13.9,31.8-15.5,49.1c-0.2,1.6-0.6,2.7-1.8,3.8
		c-13,12.5-28.3,22.4-43.7,31.2c15.8-6.6,30.1-16.6,42.4-28.6C222.3,349.9,222.5,350,222.6,350z M177.9,379.3c0-0.1-0.1-0.2-0.1-0.3
		c-0.5,0.2-0.9,0.4-1.4,0.7c0,0.1,0.1,0.2,0.1,0.3C177,379.7,177.4,379.5,177.9,379.3z"/>
	<path class="st0" d="M260.9,177.9c-5.8,5.1-23.4,2.6-21.1-7.3c25.4,3.8,52.4-10.9,75.3,5.7c6,4.4,9.2,10.5,9.8,17.9
		c2,18.2-14.6,30.2-29.9,35.6c-15.3,5-32.4,9.9-48.4,5.3c-24.3-6.5-62.9-27.4-50.4-57.7c6-13.3,22.5-11.8,34.4-9.2
		c1.4,0.3,2,1,2.4,2.3c2.6,7.6,8.3,11.8,16.4,12C253.5,182.3,258.9,182.4,260.9,177.9z M255.1,204.3c7.8-0.2,17.5-2.9,21.2-10.7
		c0.5-1-0.1-1.7-1.2-1.6c-12.3,2.6-24.8,3-37.1-0.4c-3.8-1-7.5-2.8-11.2-4.1c-0.7-0.2-1.6-0.6-2.1-0.3c-0.9,0.5-0.4,1.6-0.1,2.3
		C229.5,201.5,243.1,203.7,255.1,204.3z"/>
	<path class="st0" d="M183.8,320.7c-17.5,12.8-26.4,33.5-32.3,53.8c-0.5,1.8-1.3,2.8-3.1,3.4c-21.6,6.5-48.7,17.4-70.9,9.3
		C53.8,372,94,334,106.9,322.9c1-0.9,1.9-1.1,3.3-0.9C134.6,326.6,159.4,325.2,183.8,320.7z"/>
	<path class="st0" d="M370.2,347.1c18.9,15.2,41.1,23.9,63,33.1c10.3,13.8,21.3,29.1,22.4,46.8c0.8,16.4-17.3,22.4-30.6,17.4
		c-17.7-5.7-32.2-18.2-45.4-31c-1-1-1.3-2-1.2-3.5c0.4-7.5,1-15.1,1-22.6C379.5,373.2,376.9,359.7,370.2,347.1z"/>
	<path class="st0" d="M407.5,311.2c21.5,6.3,43.8,8.8,66.1,6.1c6.3-0.7,4.4-1.1,9.1,2.6c12.9,10.5,57.3,45.2,31,60.4
		c-21,6-48-5-68.2-11.6c-1.5-0.6-2.4-1.4-3-2.9c-8.2-19.8-18.4-40.5-35.5-54C407.2,311.6,407.4,311.4,407.5,311.2z"/>
	<path class="st0" d="M270.9,363.5c0.4,22.7,5.4,45.1,19.2,63.7c3.4,3.5,3.3,4.6,1,8.8c-9.3,18.5-17.6,40.1-35.3,52.1
		c-2.5,1.5-5.2,1.7-8,0.8c-22.9-8.1-17.9-45.5-18.8-65.1c0-1,0.2-1.8,1.1-2.5c19.2-15,31.7-35.5,40.6-57.8
		C270.7,363.4,270.8,363.4,270.9,363.5z"/>
	<path class="st0" d="M255.6,71.2c-9.5-18.8-27.1-29.8-47-35.6c40.3-33.9,99.4-37.4,142.8-7C316.8,34.2,280.2,44.3,255.6,71.2z"/>
	<path class="st0" d="M455.3,274.8c5.2-4.8,10.5-8.4,16-12.6c1.3-1,2.6-1.5,4.3-1.2c6.8,0.5,13.9,2.1,20.7,1.1
		c3-0.6,5.6-4.7,1.7-6.2c-0.8-0.3-1.5-0.6-2.6-1c4.5-2,6.3-6.1,3.7-10.1c-0.9-2.1-7.3,0.5-9.6,0.4c-0.4-1-0.7-2-1.1-3.1
		c2-1.6,3.5-4.8,6.3-4.8c16.3,2.7,32.4,6.3,47.2,14c31.4,17.3,14.1,35.9-12.5,43.2c-14.5,4.5-29.4,6.8-44.4,8.5
		c-1.2,0.2-2.1-0.1-3-1c-4.7-4.8-9.4-9.5-14.2-14.2c-0.4-0.4-0.9-0.9-1-1.5C465.1,280.5,460.1,278.2,455.3,274.8z"/>
	<path class="st0" d="M344.3,286.6c17,9.3,34.6,18.7,53.8,22c1.1,0.2,2.1,0.7,3,1.3c21.3,15.9,34.7,39.9,41.2,65.2
		c0.5,1.9,0.4,2-0.7,4.1c-24.1-7.1-64.8-23.1-78.6-44.6c-2.9-17.1-9.4-33.3-19-47.8C344.1,286.8,344.2,286.7,344.3,286.6z"/>
	<path class="st0" d="M222.1,274.1c-15.4,10-26.4,24.7-34.7,40.9c-0.9,1.7-2,2.6-3.8,3.1c-26,7.5-53.6,6.1-79.8,0.6
		c-1.7-0.4-2.7-1-2.9-2.9c16.9-14.6,35.9-33.9,58.9-36.8c19.4-1.9,38.8-3.9,58.2-5.9C219.4,272.9,220.8,272.9,222.1,274.1z"/>
	<path class="st0" d="M257.2,315.2c3.3,6,7.5,11.7,9.6,18.3c1.4,7.2,2.7,14.5,4,21.8c0.3,1.4,0.2,2.7-0.3,4.1
		c-10.5,25.2-25.8,46.9-47,64.3c-1.6,1.6-4.4,1.3-4.5-1.3c-4-23.1-5.3-48.1,5.1-69.7c1.7-3.4,3.7-6.3,6.7-8.8
		C240.7,335.2,249.1,325.4,257.2,315.2z"/>
	<path class="st0" d="M502.6,228c-8.4,7.1-17.2,13.4-26.6,19.1c-1.2,0.7-2.7,0.6-4,0.4c-10.8-1.2-21.2,0.8-31.4,4.4
		c-1.9,0.7-3.8,0.7-5.9,0.5c-24.8-3-50.1-4-74.8-7.9c12.3-1.8,25.1-3.9,35.8-10.7c13.6-8.4,28.5-15.9,44.1-19.2
		C461.1,217.1,482.7,219.9,502.6,228z"/>
	<path class="st0" d="M370.5,274.2c10.6,1.1,20.3,1.4,30.8,1.3c10.5-0.1,21-0.4,31.5-0.7c1.3,0,2,0.4,2.8,1.5
		c5.1,7.5,14.3,9.8,21.6,14.4c3.9,2.1,4.9,3.1,9.1-0.6c6.9,5.8,13.3,12.3,20.1,18.3c1.5,1.4,1.9,2.7,0.8,4.9
		c-27.6,4.8-57.1,4.7-83.5-5.7c-1.5-0.6-2.7-1.4-3.8-2.6C390.6,294.2,380.6,284.3,370.5,274.2z"/>
	<path class="st0" d="M139.7,282.6c-12.9,9-25.2,20-38.9,27.5c-20.3-0.6-53.2-3.2-59.8-26.5c33.1-0.5,65.8-0.9,98.6-1.4
		C139.6,282.3,139.7,282.5,139.7,282.6z"/>
	<path class="st0" d="M449.4,213.1c14.4-6.4,29.3-11.8,44.2-16.8c18.5-6.5,35.3-16.8,52-26.9c6.3,21.4-34.8,43.6-50.4,52.3
		c-1,0.5-1.9,0.6-3,0.3c-13.9-4.3-28.3-6.7-42.8-8.3C449.4,213.5,449.4,213.3,449.4,213.1z"/>
	<path class="st0" d="M277.4,352c11.9,22.5,19.7,46.6,28.4,70.4c1.3,3.1-3.2,11-4.1,14.7c-2.1-0.1-3.4-1-4.6-2.6
		c-14.6-20.5-23.9-44.9-23.8-70.4C273.3,358.6,273.8,357.2,277.4,352z"/>
	<path class="st0" d="M244.4,286.9c-10.9,11.9-45.2,30.7-55.2,30.3c7.7-16.4,19.2-31.2,34.4-41.3c0.9-0.7,1.8-0.7,2.9-0.2
		c3.6,1.7,7.3,3.2,10.9,4.9C240.3,282.1,242.4,284.4,244.4,286.9z"/>
	<path class="st0" d="M397.9,307.2c-19.4-3.2-37-12.1-53.2-22.9c-1.1-0.7-1.5-1.5-1.4-2.8c0.2-2.6,0.3-5.1,0.5-7.7
		c6.8-0.4,13.5,0.3,20.3,0.2c1.7,0,3,0.6,4.2,1.7c10.6,9.7,20.6,20.1,29.8,31.1C398,306.9,397.9,307,397.9,307.2z"/>
	<path class="st0" d="M227.2,343c4.2-18.5,8.4-36.6,18.1-53.4c3.7,8,7.2,15.5,10.7,23.1C251.6,320.9,232.9,340.9,227.2,343z"/>
	<path class="st0" d="M337.6,240.6c-7.4,3.7-16.7,4.5-22.6,10.7c-1.7,2.8-4,5-6.7,6.8c-13.2,8.3-36.7,16.3-46.6-0.4
		c-1-1.8-2-3.6-3.4-5.2c0,0.9,0,1.7,0,2.9c-1.8-0.6-3.3-1.1-5.3-1.8c2.8-1.7,5.1-3.3,8.2-2.7c2.5,0.5,5.2,0.6,7.7,1
		c0.7,0.1,1.7,0,2.4,1.4c-1.5-0.5-2.5-0.8-3.7-1.2c1.4,4,7.4,5.6,11.2,5.8c9.2,0,22.2-4.7,28.6-11.4c2,1.2,5.5,0.2,7.9-1.1
		c7-3.3,14.5-5.2,22.3-5.4C337.5,240.2,337.6,240.4,337.6,240.6z"/>
	<path class="st0" d="M424.8,3.5c1.8,3.1,1.8,17.3-0.1,25.7c-0.1-4.5-0.6-8.9-1-13.4c0-1.5-1.1-3.5-2.4-1.5
		c-17.7,23.8-57.4,15.1-83.7,22.2c-18.8,2.8-36.1,10.5-53.2,18.3c-11.5,5-20.5,13.4-29.2,22.1c-0.2-0.3-0.4-0.6-0.7-0.9
		c21.2-23.2,50.9-35.8,81.5-41.7C373.3,27.2,397,37.2,424.8,3.5z"/>
	<path class="st0" d="M199.3,33.2c-2.6-0.8-5.3-1.3-7.4-3.4c1.2-2,2.2-3.7,3.3-5.4c-2.9,0.6-6.9,3.5-5.8,6.6
		c1.4,4,10.6,5.2,14.5,6.6c19.5,4.8,40.7,15.9,48.7,35.2c-13.5-17.4-31.9-29.9-53.6-34.1c-3.1-0.9-6.1-1.9-9.2-3
		c-2.6-1.3-6.5-2.5-3.3-5.6c4.1-4.7,8.5-9,10.4-15.1c1.2-2.7,1.5-5.4,3.5-7.9C200.8,9.1,199.9,30.1,199.3,33.2z"/>
	<path class="st0" d="M357.9,479.1c-3.1-11.2-6-21.8-8.9-32.6c2,0.3,13.8,6.3,18.3,9.3C366.8,464.6,367.2,474.5,357.9,479.1z"/>
	<path class="st0" d="M270.8,243.3c10.3-0.4,19.9-1.3,30.3-2.8c0.7,1.9,1.4,3.9,2.2,6.1c-8.8,5.2-17.7,9-28,7.9
		C273.4,251.3,270.8,244.7,270.8,243.3z"/>
	<path class="st0" d="M361.5,337.3c-2.7-1.6-5.5-2.1-7-4.7c-8.7-16-11.3-23.9-11.5-42.3C348.3,294.8,359.7,323.8,361.5,337.3z"/>
	<path class="st0" d="M308.3,428.9c4.5,10.2,8.9,20.2,13.4,30.2c-0.1,0.1-0.3,0.1-0.4,0.2c-4.9-8.1-9-16.6-13.8-24.7
		C306.2,432.5,306.3,430.9,308.3,428.9z"/>
	<path class="st0" d="M484.2,254.6c5.5-7.7,3.7-6,12.6-7.7c0.8,2.6,0.5,3.8-1.7,4.5C491.6,252.7,488.1,253.5,484.2,254.6z"/>
	<path class="st0" d="M272.8,355.4c-1.1-5.8-2.1-11.7-3.2-17.5c0.1-0.1,0.2-0.1,0.4-0.2c2.1,3.4,3.8,7.1,5.7,10.6
		c1.3,2.5-1.6,4.8-2.3,7.1C273.1,355.5,273,355.4,272.8,355.4z"/>
	<path class="st0" d="M368.8,354.4c-4.5-4.8-8.3-10.1-11.2-16.4c2.2,0.3,3.8,1,5,2.9C365,345.1,368.2,349.6,368.8,354.4z"/>
	<path class="st0" d="M496.1,259.2c-4.8,1-9.5-0.6-14.4-1.1c6.1-1.8,8.6-2.2,14.6,0.4C496.3,258.7,496.2,258.9,496.1,259.2z"/>
	<path class="st0" d="M124.3,214.7c0.9-1.1,1.4-1.8,1.9-2.5c1.9,2.6,3.8,5.1,5.7,7.8c-0.3,0.5-0.6,1-1.2,1.9
		C128.6,219.4,126.5,217.1,124.3,214.7z"/>
	<path class="st0" d="M265.1,317.8c-1.2,0.1-2,0.1-2.9,0.2c-1.1-2.2-2.2-4.3-3.2-6.4c0.1-0.1,0.3-0.2,0.4-0.3
		C261.1,313.3,262.9,315.4,265.1,317.8z"/>
	<path class="st0" d="M207.5,219.5c0.7,0.3,1.3,0.7,2,1C208.5,220.6,207.8,220.3,207.5,219.5C207.5,219.4,207.5,219.5,207.5,219.5z"
		/>
	<path class="st0" d="M320.5,148.1c6.3-8.3,6.6-20.4,0.1-28.5c-19.1-20.9-41.2,12-24.9,29.4c-0.6,0.1-1.1,0.3-1.5,0.3
		c-4.5-0.7-9.4-0.3-13.4-2.6c-2.8-1.6-4.1-4.5-3.3-7.6c3-12.1,11.9-24,28.2-26.4C344.3,106.3,345.6,143.4,320.5,148.1z"/>
	<path class="st0" d="M307.7,149.3c-1.6,0-3.1-0.1-4.7,0c-12.2-1.6-12.8-23.1-4.4-29.8c17.4-14.4,32.3,15.6,18.5,27.9
		c-2.4,2.6-6.3,1.2-9.4,1.6C307.7,149.1,307.7,149.2,307.7,149.3z M311.3,123.4c-10.4-4-15.3,12.1-8.2,18.1
		c7.2,6.7,16.4-3.5,13.2-11.3C311.8,130.8,310.7,128.4,311.3,123.4z"/>
	<path class="st0" d="M217.4,111.4c-13.5,7-15.5,25.4-6,36.8c-17.3,0-21-8.1-19.3-23.9C193.7,113.6,208,108.9,217.4,111.4z"/>
	<path class="st0" d="M208.4,131.8c-0.8-9.2,7.9-22.4,17.9-16.2c8.6,7.7,10.9,18,5.1,27.8c-1.3,2.4-3.3,3.9-6.2,4
		c-2.3,0.1-4.7,0.3-7,0.6C211.4,148.1,208.2,137.4,208.4,131.8z M224.6,121.8c-9.6-4.1-13.2,12-7.7,17.6c7.1,7.7,14.7-3.6,12.3-10.9
		C225.7,129.1,223.9,127.5,224.6,121.8z"/>
	<path class="st0" d="M236.5,145.3c-0.9,0.2-1.9,0.4-3.2,0.7c1.3-2.3,1.7-3.9,3.2-6C236.5,141.7,236.5,143.3,236.5,145.3z"/>
	<path class="st0" d="M298.6,304.5c0.8-7.2,3.3-11.9,10.9-7.8C309.3,303.2,304.8,306.5,298.6,304.5z"/>
	<path class="st0" d="M294.3,304.9c-4.9,4.5-10.2,3.4-13.1-2.4C285.3,295.7,290.8,300.3,294.3,304.9z"/>
	<path class="st0" d="M232.4,192.3c13.1,4.5,26.5,4.8,40.2,2.5c-3.1,6.1-6,2.4-10.6,3.7c-3.9,1.6-7.6-1.3-11.5-0.5
		c-3.3,1-6.4-0.6-9.7-0.6C237.1,197.2,231.8,198,232.4,192.3z"/>
</g>
</svg>
