<?xml version="1.0" encoding="utf-8"?>
<!-- Generator: Adobe Illustrator 26.0.0, SVG Export Plug-In . SVG Version: 6.00 Build 0)  -->
<svg version="1.1" id="Capa_1" xmlns="http://www.w3.org/2000/svg" xmlns:xlink="http://www.w3.org/1999/xlink" x="0px" y="0px"
	 viewBox="0 0 595.3 1138.9" style="enable-background:new 0 0 595.3 1138.9;" xml:space="preserve">
<style type="text/css">
	.st0{fill:#FFFFFF;}
</style>
<g>
	<path d="M593.5,799c-12.3-26.6-30-50.3-48-73.3c-5.3-6.7-8.8-13.9-10.4-22.2c-7.1-49.4-7.1-99.7-13.5-149.2
		c-1.5-24.7-8.9-49.7-7.6-74.2c18.5-56.5,34.7-113.8,51.9-170.7c3.2-7.4,9.4-13.1,13.7-19.9c6.8-8.7,8-19.5,9.9-30
		c1.4-11.3,6.4-25.4-2.2-34.8c-5.7-5.9-12-10.5-20.7-9.5c-5.8-9.4-13.6-13.6-24.4-10.1c-8.8,0.9-18.4-4.5-25.4,4.4
		c-11.9-4.1-17.9,9.5-25.1,16.2c-8.3,8.8-1.5,21.1-0.6,31.4c-0.1,0-0.3,0.1-0.4,0.1c-29.9-66.8-58-139.5-117.6-185.8
		c-5.8-4.4-8.6-9.1-9.8-16.2c-3-17.4-7.5-35.3-18.1-49.8c-5.5-8.1-15.5-5.4-22.9-1.5c-17.5,9-32.5,21.8-46.9,35
		c-1.8,1.7-3.7,2.5-6.3,2.8c-30.9,2.3-60.8,11.5-88.1,26c-17.4,9.1-33.9,19.5-48.6,32.7c-2.5,2.2-5.4,3.2-8.7,3.2
		c-37.1,0.9-75.3,0.3-111.3,10.6c-11.8,4.1-14.6,9.1-11.1,21.1c14.5,44.3,45.9,80.2,71.4,118.4c5.3,7.6,9.7,15.6,12.8,24.4
		c29.3,72.4,71.5,145.1,140.5,185.9c35.2,20.8,75.2,29.8,115.9,24.9c1.3-0.1,3.1,0.2,3.8,1c2.8,3.6,5,7.6,6.9,12.6
		c-10.5,2.6-20.2,2.9-30.7,4.2c-21.2,2.5-37.7,17.9-55.6,28.3c-16.2,11-32.1,22.4-48.2,33.5c-6.4,4.5-10.5,10.5-13,17.8
		c-5.8,16.9-6.7,33.9-0.9,51c0.9,2.5,0.6,4.4-0.7,6.7c-3.6,6.4-7,12.9-10.4,19.3c-4.9,9.4-2.5,20.8-2.4,31
		c0.3,11.5,8.3,20,15.3,28.2c6.9,9.5,16.1,1.3,23.9-3.1c1.9,4,5.5,6.3,9.7,4.2c4-1.6,8.3-2.7,11.7-5.3c4.6-3.5,9.7-3,14.4-3.9
		c4,8.5,14.1,14.9,20.7,5.5c3.9-6.5,15.9-19.5,16.1-26c-1.2-21.9-11.7-41.3-27.3-56.2c-7.6-6.9-8.2-16.5-11.5-25.9
		c19.7-10.5,39.4-19.6,60.2-27.3c10.5,17.7,18.3,36.6,25.7,55.7c7,21.4,3.8,44.6,6.1,66.8c0,15,3.9,29.7,5,44.4
		c-6.1,36.6-13,73-19.4,109.5c-0.5,2.6-1.5,4.8-3.3,6.7c-49.8,53.7-113.8,93-180.2,122.8c-26.2,12-56.7,9.3-82.1-3.1
		c-10.9-6.3-31.1-5-26.8,12.1c1.4,4.5,4.2,7.9,8.1,10.3c21.6,13.9,46.5,21.9,72.3,19.3c78.3-13.2,144.5-63.1,205.2-111.4
		c-3.9,36-3.9,72.3-12.8,107.5c-10.9,35.4-40.5,94.7,10.2,112c44.1,13.4,53.8-47.1,57.1-78.4c9.7-81.4,28.8-162.1,49.4-241.4
		c0.9-3.2,2.7-5,5.9-6.1c10.5-3.7,20.3-9,29.4-15.6c14.4-10.3,27.9,9.6,39.5,16.6c-9.5,21.6-17.4,43-30.3,62.7
		c-8.3,13.2-14.8,27.7-16.2,43.4c-0.8,7.2,0.7,13.9,5,19.9c15.4,21.6,40.5,36.8,67.7,33c14.3-1.4,16-17.1,15.2-28.5
		c-0.9-14.1-4.3-27.6-8.5-41c-1-3.3-0.6-5.5,1.4-8.2C560.2,875,604.5,819.3,593.5,799z M425.1,471.1c-1.3-3.2-2.6-6.4-4-9.9
		c8.7-5.3,17.3-10.5,25.9-15.8C445.5,450.7,430.7,468.2,425.1,471.1z"/>
	<path class="st0" d="M482.8,707.8c-26.9-15.8-55.6-26.6-86.1-34.5c-1.1,6.2,0.8,11.7-0.1,17.7c-11.3-2.5-22.4-4.9-34-7.5
		c1.1-3.2,2.2-6.1,3.4-9.4c-2.3-1-4.3-1.9-6.5-2.8c-0.8-12.5-1.1-25.2-6.5-36.8c-7.9-17-14.1-34.9-23.7-51c-2.6-4-3.4-4.3-7.9-2.9
		c-18.2,6.1-35.1,15.1-52.6,22.9c-0.4-19.8-17.1-32.4-32.8-41.9c13.3-10.3,27.7-18.7,41.4-28.4c6.3-4.6,12.9,0.3,19.5,2
		c-1.1,5-4.5,11.8,2.2,13.5c9.6,2.7,17.5,8.1,24.6,15c1.5,1.4,2.8,3.6,5.8,2.6c1.2-5.3-13.8-25.3-17.2-31.7c6-10.6-0.7-11.4-8.8-17
		c8.7-6.3,9.3-2.3,16.4,2.8c-3,7.1-5.8,7,2.4,10.9c12.7,5.3,24.7,13.7,38.2,16.6c-6.1-8.6-14.4-14.8-22.2-22.4
		c12.1-6.5,11.8-6.8,1.5-15.7c5.9-2.8,8.7,3,12.7,6.2c-0.6,1.7-1.1,3.3-1.8,5.4c10.2,4.1,20.6,6.5,31.4,7.9
		c-3.5-6-9.8-9.1-14.3-13.9c2.8-2.3,6.6-2.9,8.8-6.8c-24.2-5.3-12.7,1-26.5-22.5c3.4-1,6.8-2.1,10.3-3.1c0-0.2-0.1-0.4-0.1-0.6
		c-47.3,5.6-94.4,1-135.3-25.2c-6.3-3.6-2.4-11.8-3.1-17.6c0.1-4.6-0.2-7.6-6.6-5.5c-0.2,0.1-0.6-0.1-1-0.3
		c2.8-22.2,7.5-43.5,14.3-64.9c-11.8-2.7-17.8,30-21.6,38.4c-3.7,9.7-6,19.6-11,28.8c-4.5-4-8.6-7.7-12.9-11.7
		c19.3-19.5,21.6-48.1,36.7-70.2c2.2-2.5,4.4-8.9-1.3-7.4c-2.3,1.4-4.6,2.9-6.5,4.8c-15.1,14.5-22.9,34.2-37.3,49.3
		c-1-2.8-1.9-5.2-3.1-8.5c-3.9,4.8-8,11.4-13.1,4.8c-3.3-4.1-6.4-8.3-10.3-13.3c5.3,1.9,9.7,3.1,14.5,0.1c9.7-5.4,16.7-14.1,23.1-23
		c7.7-10.9,14.9-22.2,22.3-33.3c1.3-1.9,2.8-3.8,2.7-6.3c-4.7-3.1-14.1,6.2-18.2,8.8c-12.2,9.6-23.4,24.6-40.3,24.8
		c0.5-18-10.7-1.5-20.6-4c-11.6,1.7-38.3-69.3-44.1-81.8c-9.7-19.8-24.4-36.8-36.4-55.3c-17-24.7-34.5-49.7-44.6-78.1
		c-3.8-11.2-1.8-14.7,9.6-18.2c10.5-3.3,21.4-4.8,32.3-5.9c25.2-2.7,50.5-3.6,75.8-3.9c6.1-0.3,12.2-2.3,17.9-4.6
		c8.1-3.6,16.5-4,25.2-2.9c22.2,2.6,44.3,6.1,66.5,7.7c0.2-0.3,0.4-0.7,0.6-1c-7.2-12.7-34.5-20.8-47.9-28.6
		c3.8-1.7,11.2-1.7,11.2-6.2c-0.5-3.7-4-3.1-7-3.8c5-3.3,9.3-5.7,15.2-3.1c27.6,12.1,49.5,33.9,73.1,52.1c4-2.6-1-12.7-1.9-16.5
		c-8.7-21.8-13.1-39.2-35.9-50.2c6.6-2.3,12,4.4,18.5-0.9c9.4-3.2,19.9,3.9,24.9,11.6c3.8,5,4.9,13,9.5,17.1
		c2.2,0.7,3.2-1.6,4.1-3.3c4.5-9,2.9-18.4,1.9-28.2c87.6,7.7,135.9,98.2,167.6,170.4c-3.1,1.2-6.5-1.7-9.6,1.4c2,3.2,5.7,4.6,9.1,6
		c8,2.8,8.5,12.8,12.5,19.3c-2.7,1.5-5.5-1.9-8,0.8c3.4,6.8,13.3,4.6,13.8,13.8c-2.2-0.9-4.1-1.7-7.1-2.9c1.2,5.6,5.6,7,9,10.9
		c1.3,1.3,2.8,2.7,3.4,4.4c3.4,11,8.7,21.8,10.7,32.9c-2.7-3.7-9.5-27-14.9-18.6c-2.8,3.9-4.9,7.8-7.3,12
		c-22.1-0.8-42.5,6.3-62.9,14.1c-20.6-26.7-49.1,18.7-66.7,29.2c-24.1,10.5-46.1,24.4-66.2,41.3c-2.2,1.9-4.3,2.8-7.3,2.7
		c-6-0.2-46.3,3.4-42.5,11.6c19.8,90.4,109.9,93.6,182.9,66.6c1.8,4.6,3.5,9,5.4,13.3c1.3,3,1.5,3.1,5.3,2c4.8,9.6,3.3,9.6,14.4,8
		c2.6,5.4,5.3,10.8,8.1,16.4c3-4.3,4.9-16.7,3.9-23.6c-7.6,0.1-13.6-3.4-18.4-9.6c1.3-1.6,2.5-3,3.9-4.6c4.1,4.1,8,8,12.1,12.1
		c2.7-1.8,5.1-3.3,7.7-5c5,8.7,8.9,17.9,15,26.3c1.8-2.1,1.2-4.1,1-5.8c-2-15.7-3-31.4-7-46.8c-4.5,0.8-6.5,4.5-9.9,6.7
		c-1.6-1.7-3.3-3.4-5.1-5.4c2.1-3,4.2-5.9,6.4-9c3,2.2,5.7,4.1,8.8,6.4c1.8-2.1,3.5-4.1,5.4-6.4c9.6,10.8,18.6,21.6,24.4,34.8
		c7.8-10.8-13.7-43.4-20-54c14.4-15.2,24.5-32.8,29.6-53.6c6.6,14.3,12-0.7,23.9,5.8c3.1,1.5,6.5,2.2,10.3,3.5
		c-41.6,134.8-36.3,81.6-21.1,221.3c1.7,16,2.5,32,3.9,48.1c0.4,4.6-0.3,8.8-2.2,13C513.7,676.9,497.7,692.4,482.8,707.8z
		 M450.9,575.5c-3.3,2-6.1,3.7-9.3,5.6c2.6,3,4.9,5.7,7.1,8.4c-0.2,0.2-0.4,0.4-0.6,0.6c-3.8-2.8-7.6-5.5-11.4-8.3
		c-3.9,2.2-7.6,4.3-11.6,6.5c-2.4-4-4.7-7.7-6.9-11.4c-6.2,3.2-15.5,9.1-14.6,16.6c1.3,10.3,2.3,20.5,3.7,30.8
		c10,19.5,46.3,24.3,66.4,25.7c-1-5.6-0.6-11-6.9-13.9c1.2-1.5,1.9-3.1,3.1-3.5c2.2-0.8,4.8-2.2,6.8,0.3c0.1,3.1-3.7,4.3-2.8,7.5
		c0.7,2.7,1.3,5.4,1.9,8.4c20.9-10.2,30.5-32.2,34.9-53.7c2.3-9.8-4.2-18.2-8-26.7c-4.4-9.8-13.1-19.6-24.7-14.6
		c1.4,3.8,2.8,7.6,4.3,11.7c-3.5,1.1-6.7,2.2-10.1,3.3c-1,4.6-1.9,9-2.8,13.5c-0.2,0-0.4,0-0.6,0c-0.4-3.9-0.8-7.7-1.2-12
		c-3.3,0.9-6.2,1.7-9.5,2.5c0.7,5.2,1.5,10.1,2.2,15c-0.3,0.1-0.6,0.3-0.9,0.4C456.6,584.1,453.9,580.1,450.9,575.5z M113,131.2
		c-20.7-4.6-96.8-14.2-74.6,26.6c12.3,18.8,28.9,34.5,47.4,47.2C89.3,178.1,101.8,155.3,113,131.2z M285.5,252.5
		c-27.5,2-65.9,20.5-59.3,53.5c3.5,15.9,8.9,31.9,18.7,45c5.1,6.6,8.8,7.5,16.6,4.8c11-3.9,73.6-30.6,71.3-41.5
		c-1.7-19.7-14.3-36.8-25.9-52.2C301.4,255.4,294.3,252.3,285.5,252.5z M412.3,200.7c-14.6,0.9-28.8,5.6-38.5,17.1
		c-16.5,16.5,8,50.4,15.6,67.8c2.8,6.2,8.9,6.4,14.7,5.5c18.6-3.3,35.8-11,53.3-17.6c5.6-2.1,7.7-7.4,6.2-13.5
		C457.2,234.7,441.9,202.4,412.3,200.7z M260.9,163.2c3.9,0.3,12.1,1.8,9.6-4.7c-2.4-5.6-3.3-14.2-11-14.3
		c-29.5-2-54.5,20-66.6,45.2c-2.3,4.6-3.1,9.9-4.3,15c-0.2,1,0.8,2.9,1.7,3.4c3.2,1.2,5.7-2,7.2-4.5
		C212,182.5,233.8,162.1,260.9,163.2z M403.3,136.5c1.1-0.6,2.5-1.3,3.9-2.1c-17.9-24.6-59-25.2-80.3-4c-1.6,1.6-3.2,3.3-2.2,5.8
		c2.1,3.3,5.2,18.2,10.7,12.7C351.2,127,380.2,128.9,403.3,136.5z"/>
	<path class="st0" d="M418.5,316.6c18.6-8.3,39.2-14.9,59.9-13.8c6.5,0.7,6.8-8.5,10.8-11.9c8.7,15.4,18,36.9,17.1,55.1
		c-3.8,51.6-44.1,88.7-87.9,110.6c-68.9,29.1-160.1,26.5-179.9-60.5c13.4-3.9,26.3-6.8,40.2-6.4c2.4,0.1,4.2-0.6,6-2.2
		c20.5-17.6,43.2-32,68-42.7c18.5-12.7,57.6-66.5,63.5-14.4c0,19.6-25.2,26.7-40,17.7c-2.8-1.7-7.8-5.1-10.2-1.5
		c-1.2,1.7-0.8,4.1,1.3,5.9C391.7,368.5,433.9,348.8,418.5,316.6z M330,390.8c1.6,6.2,9.4,7.5,14.5,9.4
		c47.7,10.3,91.5-1.7,109.6-50.5c0.5-3.6-3.6-1.7-4.9-0.2c-30.9,31.9-64.3,45.1-108.8,38.9C336.6,387.9,333.2,388.2,330,390.8z"/>
	<path class="st0" d="M417.3,861.8c-31-48.3-17.6-50.9-56.6-15.9c-1.1-1.8-2.1-3.5-3.4-5.4c12.4-13.3,27.3-24.4,42.9-35.6
		c5.6,10.5,8.6,21.9,15.5,31.6c5.4-3.4,0-12.8,0.1-18c-1.3-11.2-2.5-22.4-3.7-33.7c-0.4-6.1-0.7-13.2-8.1-7.5
		c-18.3,13.1-33.1,29.4-50.2,44.1c3.2-25.8,10.9-50.2,11.8-75.9c-1.5-9.1-3-18.2-4.6-27.8c6.6-0.6,12.5-0.1,18.1,1.5
		c14.5,4.3,28.6,9.7,42.8,14.7c8.8,3.2,6.3-7.1,5-12.3c13.8,2.2,27.4,5.4,41.1,7.8c2.9,0.5,5.9,0.8,9.1-0.4
		c-4.9-4-58.6-25-63.7-24.8c-0.2,3.3,0.1,5.6,1.1,9.1c-17-3.3-33.6-7.5-50.5-11.2c-1.9-0.4-4.4-0.5-3.1-4.2
		c15.5,3.2,30.8,7.3,46.1,11.1c6,1.9,4.9-4.4,4.6-8.6c22.1,4,43.8,9.8,65.7,14.6c4.1,1,7.4,0.3,10.7-2.2c11.6-9,22.8-17.6,34.5-26.6
		c0,2.9-1.6,4.1-3,5.5c-7.9,8.1-15.7,16.2-23.6,24.4c-2,2.6-5.1,4.6-5.6,8c10.7-4.3,19.3-11.9,28.9-17.8c3.7,5.8,7.1,0.1,11.3,0.1
		c2,9.1,6.1,17.5,12.6,25c-3.6-1.1-7.2-2.2-10.8-3.3c-2.1,4.7-1.8,21.8,0.3,30.4c5.9-4.2,7.7-10.5,11.6-16.6
		c4.1,2.2,9.2,1.8,12.2,6.7c-5.8,10.5-12.5,20.6-18.4,31.1c-1.8,3.2-4.3,4.3-7.7,4.5c-6.3,0.5-12.7,1.1-19,1.9
		c-5.7,0.7-11.2,2.3-16.3,5.8c-4.6-4.1-10.2-3.9-16.4-3.5c1.9-4.4,3.5-8.2,5.2-12.1c-0.2-0.2-0.4-0.4-0.6-0.5
		c-3.2,2.6-5.4,6.3-7.6,9.7c-7.3,12.1-22.2,15.5-34,21.6c-3.2,1.4-5.5,3.1-6.5,6.3c-2.9,9.6-5.8,19.2-8.6,28.8
		c-1.4,4.9-2.7,9.8-3.6,14.8C422.5,860.1,420.9,861.6,417.3,861.8z"/>
	<path class="st0" d="M275,693.1c-0.4-2.6-0.7-4.4-1-6.5c6.7,8.8,2.9,18.3-4.8,21.6c-11.5,3.9-11.5,3.9-17.9-6.1
		c-3.6-5.1-6.1-11.1-10.7-15.4c3.3,8.4,8.2,16,12.9,24.2c-3.2,3.6-17.3,12.4-20.5,6.6c-6.3-6.7-11.9-14.2-18.8-20.4
		c2.3,7,8,11.8,12,17.9c-3,4.3-11,9.7-15.4,5.2c-9.1-11.2-15-16.2-15.5-31.5c-4.7-28.1,22-45,13.4-52.6c8.5-9.3,21.3-10.5,33-11.2
		c4.7-0.1,4.8-0.1,6.3-4.5c0.8-2.2,2.3-2.7,4.1-1.8c5.4,2.6,11.2,4.8,12.7,11.8c0.9,3.9,3.2,7,6.2,9.8c13.3,12.2,35,44,23.2,61.8
		c-5.6,6.5-15.2,28.1-22.5,11.5c8.7-5.9,13.6-16.2,8.6-26.4c-1.4-3-3.8-5.5-3.8-9.1c0-0.5-0.9-1.2-1.6-1.6
		C260.4,673.7,268.7,687.6,275,693.1z"/>
	<path class="st0" d="M309.2,1104.6c-3.3-18.1,2.6-35.1,8.9-51.7c7.6-18.8,11.7-38.5,15.6-58.3c3.4,5.7,10.7,31.6,19.5,26.3
		c15.8-9.6,27.8-23.2,42.2-34.9c-2.4,17.1-6.5,33.1-9.1,50.1c-2.2,26.3-3.9,53.2-15.2,77.6c-0.4,0.3-0.9,0.5-1.3,0.8
		C356.2,1090.3,330.5,1088.2,309.2,1104.6z"/>
	<path class="st0" d="M514.8,311.8c0,1.2,0,2.3,0,3.6c-1.7,0-3.1,0-4.5,0c-2-6.3-2-6.3-0.3-12.9c3-1.9,7.2-0.8,10-3.9
		c-1.8-3.4-5.6-4-8.5-6.5c-0.1-2.6,0.7-5.7-1.4-7.9c-11.2-14.1-15.4-30.8-17.4-48.2c-0.8-5.9,11-15.4,14.8-20.2
		c1.4-1.4,3.9-2.3,5.9-2.3c9.8,2.1,3.6,16.6-0.9,21.6c-3.6,2.7-8.4,1.8-13.1,2.3c3.9,3.2,6.7,3.9,12.7,3.9c6.3,6,11,12.1,19.6,6.5
		c6.3,4.4,7.9,4.6,18.8,2.6c3.4,6.2,9.3,10,16.3,8.5c6.3-1.3,7.1-8.6,8.9-13.6c1.3-5.9,7.7-4.7,8.9-11.6c-3.9,1.2-7.2,2.1-10.3,3.3
		c-5.1,5.1-3.8,23.7-15.9,15.6c-8.4-6.7-2.9-17.5,0.3-25.5c3-6.8,10.2-9.4,16.7-5.7c5.3,3.5,12.3,8,11.7,15.3
		c-0.7,11.1-2.3,22.1-4.4,33c-0.6,5-2.4,9.6-5.1,13.7c-6.2,9.1-12.2,16.4-18,26.2C545.7,312.9,528.8,306.5,514.8,311.8z"/>
	<path class="st0" d="M344.7,875.5c1.7,1.2,3.1,2.3,5,3.6c12.4-8.4,23.6-18.3,35.7-27.7c7.8,8.8,15,18.1,22.6,27.1
		c3.6,4.3,3.7,4.2,9,4.6c-3.5,16.8-7.1,33.5-10.5,50.3c-0.6,3.2-2.2,5.4-5.2,6.9c0-3.6,0-6.9,0-11.1c-11,7.6-21.1,15.4-32,23
		c-3.1,1.5-7.9,6.3-10.9,2.5c-7.2-9.1-11.8-20-17.5-30c-0.8-1.5-1.3-3.4-1.1-5C341.4,905.1,342.2,890.2,344.7,875.5z"/>
	<path class="st0" d="M518.1,835.6c5.5,6.9,10.8,13.6,16.4,20.5c2.1-1.6,3.7-2.8,5.6-4.2c5.9,6.6,9.9,14.4,16.6,20.5
		c-2.1,2.5-5.5,3.2-8.5,4.2c-0.9,0.3-2.7-0.9-3.5-1.9c-4-4.9-7.9-9.9-11.8-14.9c-2.8-4.1-8.6-12.1-12.5-4.6
		c-4.6,11.2,6.7,24.9,12.4,34c3.2,4.4,3.2,4.4,9,4.3c-1.3,2.8-2.6,5.4-4.2,8.8c1.7-0.4,2.7-0.6,3.9-0.9c3.8,11.6,6.6,23.4,8.4,36.1
		c-18.3-11.1-44.6-9.9-51.6,13.5c-9.8-6.2-16.3-15.5-24.5-23.5c-2.4-2.5-2.1-5.6-1.8-8.6c1.3-17.6,10.1-33.1,19.2-47.8
		c5.3-8.5,10-17.4,13.7-26.7C506.8,838.5,512.8,838.4,518.1,835.6z"/>
	<path class="st0" d="M568.2,850.5c-6.6-8.4-11.3-17.5-18.9-24.4c-3.9,1.5-4,5.1-5.8,8.1c-5.2-3.5-9.8-7.8-14.6-11.8
		c-5-4.3-9.5,0.7-15.2,2.4c7.8-18.8,7.1-11.9-7.9-25.1c9.8-3.3,35.6,1.1,41.3-4.5c7.9-7.3,16-14.5,22.1-23.7
		c2.5,0.6,4.6,1.4,5.9,3.7c4.4,7.9,8.9,15.8,13.2,23.7c3,5.6,3,11.5,0.7,17.5C583.8,827.7,578.5,843.3,568.2,850.5z"/>
	<path class="st0" d="M281,40.8c14.2-13.9,30.1-26.6,48.3-34.7c6.6-2.7,10.3-1.5,14.1,4.7c8.7,15.3,13.8,33,15.8,50.3
		c-4.3-2.4-8.5-4.6-12.9-7c-0.3-9.3-0.8-20.9-11.3-24.5c-13-5.2-24.3,1.1-31.4,12.5C296.6,41.7,289.1,41.2,281,40.8z"/>
	<path class="st0" d="M313,929.2c-13,9.6-25.7,19.1-38.2,28.3c-8.2-3.5-3.1-12.2-1.5-18.1c2.4-4.8,3.5-10.9,7.8-14.4
		c8.6-6.3,16-13.6,25.8-18.1C306.4,915.7,304.4,923.9,313,929.2z"/>
	<path class="st0" d="M165.2,996.5c-1.1-0.9-1.8-1.5-2.9-2.4c8.4-3.9,16.5-7.7,25.1-11.7c-0.6,2.2-1.1,3.9-1.6,5.6
		c4.1,1.8,7.4-0.7,11.4-0.9c-1.6,5-3.7,9.8,0.5,14.9c-14.5,7.1-29.3,12.7-44.6,17C148.2,1012.8,160.7,1000.9,165.2,996.5z"/>
	<path class="st0" d="M336.8,955.2c23.6,37.9,17.4,33.3,52.4,7.4c0.4,0.7,0.8,1.1,0.9,1.6c1.3,7.2,5.9,1.4,9.2-0.9
		c0.6,3.2,0.7,3.4-1.2,4.8c-13.4,10.2-26.8,20.4-40.4,30.4c-4,3-5.2,2.7-7.4-1.8c-5-10.5-9.6-21.1-14.1-31.8
		C335,962.1,335.8,958.9,336.8,955.2z"/>
	<path class="st0" d="M250.3,973.6c-10.7,6.2-21.1,12.3-31.3,18.2c-3.9-2.3-4.2-5.6-3.1-8.6c2.5-6.4,5.3-12.6,9.2-18.3
		c-0.9-0.5-1.7-1-2.6-1.5c6-3.6,11.8-7.1,16.6-10c4,0.2,7,0.4,10.4,0.6C247.8,960.3,245.5,966.9,250.3,973.6z"/>
	<path class="st0" d="M548.6,352.9c-11.2,0.2-20.3-3.8-30.8-5.9c-8.1-1.2-5.1-9.5-5.1-15.4c4.4,0.7,8.5,1.4,12.5,2.1
		c6,1.2,6.1,1.1,6.3-4.7c7.9,0,15.8,0,24,0C553.2,337.1,550.9,344.8,548.6,352.9z"/>
	<path class="st0" d="M102.6,1005.3c-0.2-1.4-0.4-2.4-0.6-3.7c7.3,0.6,14.5,1.3,21.9,1.9c-0.7,0.9-1.2,1.8-2.3,3.3
		c4.1,1.2,6.4,1.7,10.8,2.2c-2.9,4.8-7.4,8.6-6.7,15.2c-14.4,1.2-28.1-1.4-41.4-6.2C85.3,1012.2,87.2,1010.9,102.6,1005.3z"/>
	<path class="st0" d="M548.2,245.5c-29.7,12.9-10.8-61.5,13.5-29.2C552,223.6,550.7,234.4,548.2,245.5z"/>
	<path class="st0" d="M255.8,610.5c-4.4-2-9.8-6.9-14-1.9c-0.6,0.7-1.9,1.1-2.9,1.1c-11.9-0.3-22.4,4-33,9
		c-1.1-4.9-0.6-9.4,0.1-13.9c1.5-3,6.2-3.1,9.1-4.1c3.3-0.7,6.7-1,9.5-3.5c10-3.6,23.8,6.8,31.7,12.6
		C256.2,610,256,610.3,255.8,610.5z"/>
	<path class="st0" d="M259.6,603.3c-8.1-6.9-16.7-13.1-25.1-19.5c-6.1-4.2-11-6.5-14.7,1.9c-2.6,0-5.4,0-8.2,0
		c-0.4-5.6,7.6-12.7,16.1-17.9c13.2,9.3,26,19,32.6,34.6C260.1,602.7,259.9,603,259.6,603.3z"/>
	<path class="st0" d="M521,212.3c4.3-5.2,9.5-2.4,14.9-3.1c-5.9,11.1-10,21.8-6.3,33.7c-5.8,4.8-14.6-0.5-11.3-7.3
		C521.7,228.2,526.3,220.3,521,212.3z"/>
	<path class="st0" d="M335.6,910.4c-15.5-1.7-2.2-29.5,3.8-35.7C338.1,886.8,336.9,898.5,335.6,910.4z"/>
	<path class="st0" d="M504.9,295.8c-2.1-6.1-4.1-12.2-6.2-18.3c0.1-0.1,0.3-0.2,0.4-0.2c2.3,3.3,4.7,6.6,6.9,10
		c1.2,2.6-0.1,5.7-0.3,8.3C505.4,295.7,505.1,295.7,504.9,295.8z"/>
	<path class="st0" d="M425.6,619.9c3.4-20.9,22-9,32.9-1.8C453.8,632.9,436.1,626.2,425.6,619.9z"/>
	<path class="st0" d="M476.8,611.9c3.1-7.1,6-14.1,9.3-21c1.7-3.5,2.8-3.7,6.5-2.6c4.5,1.6,8.1,2.3,6,7.9
		C496.2,606.1,489.4,621,476.8,611.9z"/>
	<path class="st0" d="M264.2,349.6c-10,4.5-12.5,4-17.6-4c-9-15.8-22.6-43.1-13.1-60.5c10.1-18.7,53.9-39.8,70.2-19.8
		c10.3,13,19.1,27.2,24.2,43c1.5,6.6,0.7,8.6-5.2,12.1c-3.5,2.1-7,4.2-11.4,6.8c11.9-43.6-47.9-66.1-67-25.7
		C235.7,319.9,244.9,342,264.2,349.6z"/>
	<path class="st0" d="M246,315.7c3.1-48.4,74.5-34.8,59.9,11.3c-1,2.6-2.4,4.6-5.1,5.9c-8.2,3.9-16.3,7.9-24.3,12.1
		C260.1,350,245.5,331,246,315.7z M275.9,297.6c-22.3,2.7-22.5,32.8-1.8,36.7c19.7,3.7,29.9-24.7,13.1-33.3
		C281.4,304,279.9,303.5,275.9,297.6z"/>
	<path class="st0" d="M376,247.2c-1.7-7.5-6.2-15.7-1.2-22.9c10.1-15.6,33.3-23.8,50.4-15.6c19.2,10.2,28.7,31.9,33.9,52
		c1.1,4.5-0.2,7.3-4.2,9c-5,2.1-10.1,3.8-15.8,5.8c7.9-35.7-45.3-69.2-62-28.5C376.6,247.1,376.3,247.2,376,247.2z"/>
	<path class="st0" d="M434.6,268.1c0.2,8.7-0.3,9.6-8.5,12.2c-7.4,2.2-14.9,4.5-22.5,6.3c-7.4,1-8.1,0.8-11.6-5.9
		c-3.3-6.3-6.4-12.8-9.7-19.1c-1.8-3.3-1.9-6.6-1.1-10.1C390.3,215.9,435.9,238.9,434.6,268.1z M404,243.8
		c-20,0.8-15.2,30.9,1.1,34.5c18.8,4.9,23.2-20.4,10.7-30.3C410.3,253.2,407.1,252,404,243.8z"/>
	<path class="st0" d="M336,391.6c39.6,6.1,81.1-3.7,109.1-33.5c-14.2,42.6-72.7,50.3-109.5,35C335.7,392.5,335.8,392.1,336,391.6z"
		/>
</g>
</svg>
