<?xml version="1.0" encoding="utf-8"?>
<!-- Generator: Adobe Illustrator 26.0.0, SVG Export Plug-In . SVG Version: 6.00 Build 0)  -->
<svg version="1.1" id="Capa_1" xmlns="http://www.w3.org/2000/svg" xmlns:xlink="http://www.w3.org/1999/xlink" x="0px" y="0px"
	 viewBox="0 0 595.3 997.5" style="enable-background:new 0 0 595.3 997.5;" xml:space="preserve">
<style type="text/css">
	.st0{fill:#FFFFFF;}
</style>
<g>
	<path d="M253.4,572.5c-1.8,1.7-3.6,3.5-5.6,5.1c-2.7,2.2-5.4,4.6-8.4,6.5c-9.5,6.2-19,12.2-28.7,18.3c1.6,9.6-3.6,15.8-10.3,21.3
		c-4.8,3.9-10.1,6.9-16.1,8.6c-4.2,1.2-8.2,2.9-12.5,3.7c-7.9,1.5-14.8-1.1-20.5-6.8c-1.6-1.6-3.4-3.2-5.2-4.6
		c-4.2-3.4-7.6-7.4-10.2-12.1c-1.8-3.2-3.8-6.3-5.1-9.7c-1-2.7-1-5.7-1.5-8.6c0.3-0.2,0.6-0.3,0.9-0.5c-4.9-3.9-9.7-7.8-14.6-11.7
		c-1.8-1.4-3.8-2.6-5.7-4c-8.3-6.4-14-14.4-15.4-25.1c-1.8-14.7-3.6-29.5-5.4-44.2c-0.2-1.3-0.1-2.7-0.2-4.1
		c-0.9-11.5,2.7-21.1,11.6-28.7c3.3-2.8,5.9-6.4,8.6-9.9c3.4-4.3,7.6-6.1,12.9-4.6c4.1,1.1,8.2,2.1,12.1,3.7
		c4.6,1.9,9.2,4.1,13.6,6.6c7.2,4.1,12.5,10,15.8,17.7c0.9,2.1,2.4,3.9,3.5,5.9c1.1,1.9,2.4,3.7,3,5.8c1.3,4.6,2.5,9.2,3.2,13.9
		c0.8,5.6-2,9.8-6.9,12.3c-2.9,1.5-6,2.3-9.4,3.6c0,2.7,0,5.9,0,9.2c7.5,1.9,14.9,3.7,22,5.4c8.4-7.3,16.6-14.6,25-21.9
		c1.2-1,1.6-2,1.4-3.5c-0.4-4.7,1.9-8.2,5.6-10.6c2-1.3,3.4-2.8,4.1-5.2c1-3.5,3.8-5.6,7-7c3.3-1.5,6.7-2.8,9.3-5.7
		c1.1-1.2,2.9-1.8,4.8-3c-1.3-0.5-2.1-0.9-3-1.2c-43-15.2-72.5-44.2-88.5-86.8c-7-18.7-11.1-38.2-13.9-57.9
		c-4.5-32.1-5.5-64.4-3.9-96.7c0.9-19.1,1.9-38.2,6.2-56.8c13.3-56.3,48.1-93,102.3-112.1c1.3-0.4,2.6-0.9,4.3-1.5
		c0-1.6,0-3.1,0-4.7c0.1-5.7,0.6-11.4,2.4-16.9c3.7-11.5,14.1-16.7,25.6-12.9c0.9,0.3,1.8,0.5,3.1,0.9c0-2.2-0.1-4.1,0-5.9
		c0.2-4.9,0.4-9.8,0.8-14.7c0.4-5,2.1-9.6,5.1-13.6c6.8-9.1,18.9-10.3,27.2-2.5c2.7,2.6,5.1,5.7,6.9,9c2.8,5.1,5.2,10.5,7.3,15.9
		c4.6,11.8,7.9,24,10.6,36.5c0.2,0.9,0.5,1.8,0.8,2.9c5.5,0.9,11,1.6,16.5,2.6c24.5,4.5,47,13.8,66.4,29.7
		c15.5,12.6,27,28.3,35.9,46.1c11,21.9,18.2,45.2,23.6,69.1c3.7,16.3,5.5,32.8,7.3,49.3c1.8,16.9,3.8,33.9,5.4,50.8
		c1.9,20.1,3.6,40.2,5,60.3c0.8,10.5,0.1,21-2.1,31.3c-2.8,13-9,24.2-18.2,33.7c-13.2,13.6-29,23.4-46,31.4c-4.1,1.9-8.1,3.7-12,5.4
		c1.7,2.2,3.3,4.2,4.9,6.2c0.6,0.7,1.4,1.2,2.3,1.5c3.9,1.2,6.7,3.7,7.8,7.7c0.5,1.9,1.8,2.9,3.4,3.7c6.6,3.2,13.1,6.7,19.8,9.7
		c11.3,5.2,22,11.4,31.8,19.1c1.4,1.1,2.5,2.1,4.7,1c11.6-5.8,24.1-7.4,36.9-7.1c0.7,0,1.3,0,2.5,0c-0.6-1-1-1.7-1.5-2.5
		c-2.3-4-4.6-8-6.9-12c-1.4-2.3-2.9-4.6-4.3-6.9c-1.1-1.7-2.3-3.4-3.2-5.2c-1.3-2.4-1.4-5-0.4-7.5c2.1-5.7,5.9-9.7,11.6-11.9
		c2.8-1.1,4.6-0.9,8.4,0.3c4.4-6.1,11.1-9.5,17.3-13.3c4.4-2.7,9.1-2.2,13.4,0.9c7.3,5.3,14.8,10.3,22,15.6c2.6,1.9,4.8,4.4,6.9,6.9
		c1.8,2.2,3.1,4.8,4.6,7.2c1.7,2.8,2.2,5.9,1.7,9.1c-2.1,12.4-4.5,24.7-10,36.1c-6,12.2-14.3,22.1-27.3,27.5
		c-6.9,2.9-13.7,6.1-20.8,9.3c0.1,0.7,0.2,1.6,0.3,2.5c0.4,3.3-0.8,5.8-3.5,7.7c-1.1,0.8-2.1,1.7-2.9,2.7
		c-4.6,6.1-10.6,10.1-17.6,12.8c-1.7,0.7-3.5,1.5-5,2.6c-8.1,6.2-17,7.6-26.7,4.4c-1.9-0.6-3.9-0.9-5.9-1.2
		c-5.9-0.9-11.3-3-15.9-6.9c-2.9-2.4-6.1-4.5-9-7.1c-2.3-2.1-4.2-4.5-6.6-7.1c0.4,1.7,0.8,3.3,1.2,4.9c6.2,26.2,9.9,52.8,8.6,79.8
		c-0.6,12.7-3,25.2-8.3,36.9c-1.1,2.3-0.6,3.9,1.1,5.4c4.6,4.3,9.1,8.6,13.7,12.9c5.2,5,10.6,9.8,15.6,15c4.2,4.4,8,9.3,11.9,14
		c3.7,4.5,7.4,9.1,11,13.7c4.7,6.2,9.3,12.4,14,18.6c0.9,1.2,1.8,2.4,2.8,3.5c5.1,5.8,8.7,12.5,11.9,19.5c0.3,0.7,0.6,1.5,0.8,2.3
		c1.7,9.4,2.9,19,0.8,28.4c-2.5,11.3-4.2,22.7-5.7,34.2c-0.5,3.6-1.2,7.3-2,10.8c-1,4.1,0.1,7.5,3,10.5c1.4,1.5,2.8,3,4.4,4.3
		c8.2,7.4,15.5,15.7,22.3,24.5c2.4,3.1,5,6.1,7.4,9.3c1.3,1.6,2.5,3.1,4.6,3.7c2.1,0.6,3.4,2.6,3.6,4.6c0.6,5,1.1,10,1.1,15
		c0,4.4-3,7.1-6.8,8.9c-5.6,2.7-11.5,4.2-17.6,5.2c-15.5,2.6-31,2.1-46.4-0.3c-19.9-3-39.8-6.3-59.4-11.3c-4.5-1.2-8.9-2.5-13.3-4.1
		c-2.6-1-5.2-2.5-7.5-4c-2.8-1.8-4.2-4.5-4-8c0.2-4.4,0.1-8.7,0-13.1c0-2.5,0.8-4.8,2.1-6.9c0.8-1.3,1.5-2.9,1.6-4.5
		c1.1-10.4,1.9-20.9,3-31.3c0.7-6.1,1.9-12.1,2.6-18.2c1.4-11.6,2.5-23.3,3.9-34.9c0.2-1.7-0.1-3.1-1.2-4.6
		c-7.6-10.3-14.8-21-22.9-30.9c-4.9-6-10.6-11.5-16.9-15.9c-4.9-3.4-10.9-5.8-17.7-4.5c-6,1.1-12.2,1.3-18.3,1.7
		c-10.1,0.7-19.6,3.1-28.2,8.6c-2.5,1.6-5,3.4-7.1,5.5c-2.7,2.7-5.2,5.6-7.4,8.7c-15.2,20.4-28.8,41.7-40,64.5
		c-7.5,15.3-13.9,31.1-20.2,46.9c-0.6,1.5-0.8,3.2-0.8,4.8c0.1,6,0.4,12,0.7,18c0.1,1.3,0.7,2.5,1.1,3.8c0.7,2.3,1.9,4.6,2,7
		c0.3,4.9,0.3,9.8-0.1,14.7c-0.1,1.9-1.3,3.9-2.5,5.4c-1.2,1.6-2.9,2.9-4.5,4.1c-16.9,11.5-35,20-55.2,23.6
		c-8.8,1.6-17.7,1.8-26.5,1c-9.9-0.9-19.7-2.3-29.6-3.9c-3.7-0.6-7.4-2-10.9-3.4c-2.5-1-4.8-2.5-7-4.2c-2.4-1.8-3.7-4.4-3.5-7.5
		c0.3-4.7,1.2-9.2,4.5-12.9c0.7-0.8,1.4-1.7,1.8-2.7c2.7-7.8,7-14.8,11.1-21.8c2.8-4.7,5.5-9.4,8-14.2c3-5.7,5.3-11.6,6.9-17.9
		c3.2-12.4,8-24.3,13.5-35.9c4.8-10.1,9.7-20.1,14.5-30.2c0.6-1.2,1.1-2.4,1.8-4.1c-1.7,0.2-2.9,0.2-4.1,0.4
		c-47.9,7.7-92.4-0.9-133.5-26.9c-9.6-6.1-18.6-12.9-26.6-20.9c-2.3-2.3-4.5-4.8-6.2-7.6c-3-4.7-1.2-8.7,4.4-9.3
		c3.6-0.4,7.4-0.2,11,0.3c11.5,1.7,22.4,5.6,33.2,9.9c12.3,4.9,24.8,9.1,37.9,11.1c13.7,2.1,27.4,1.7,41.2,0.2
		c20.8-2.3,39.5-10.3,57.3-20.6c13.9-8,27.5-16.7,41.1-25.2c1-0.6,2-1.5,2.8-2.4c8.8-10.4,17.5-20.9,26.4-31.2
		c5.8-6.7,8.6-14.4,9.8-23c2.3-17,4.7-34,7-51c0.4-2.8,0.5-5.7,0.3-8.6c-1-9.9-2.5-19.7-5.8-29.2c-3.4-9.9-6.9-19.8-12.2-28.9
		c-0.5-0.8-0.9-1.7-1.5-2.5C254.2,573.1,254,573,253.4,572.5z"/>
	<path class="st0" d="M436.4,571c-0.4-0.1-0.7-0.2-1.3-0.3c0,0.5-0.1,0.9,0,1.2c6,14.5,8.8,29.7,11.3,45.1
		c2.7,16.6,4.3,33.3,3.5,50.1c-0.4,10-1.9,19.8-4.9,29.4c-2.4,7.9-6.2,15.1-11.7,21.4c-5,5.7-10.3,11.2-15.3,16.5
		c5.4-1,12.3-6.8,24.2-20.8c11.3,10.9,23,21.3,33.8,32.7c8.2,8.7,15.2,18.5,22.8,27.8c1.3,1.7,2.7,3.3,4.2,5.3
		c-0.9,0.2-1.2,0.4-1.6,0.4c-5.1-0.7-9.5,1.1-13.1,4.5c-3.4,3.3-6.8,6.7-9.7,10.5c-5.6,7.2-6.5,15.1-2.7,23.4
		c2.2,4.7,4.4,9.4,7,13.8c4.7,8,7.4,16.6,9.5,25.6c0.5,2.2,1.2,4.5,2.3,6.5c2.8,5.3,8,7.4,13.8,6.1c4.7-1,8.4-3.7,12.3-6.9
		c-0.6,4.2-1.1,8.3-1.7,12.5c-0.4,2.8-1,5.6-1.6,8.4c-1.3,5.5,0.1,10.2,3.9,14.3c1.3,1.4,2.6,2.8,4.1,4c8.1,7.3,15.4,15.4,22.1,24.1
		c3.2,4.2,6.6,8.3,9.9,12.5c0.8,1.1,1.3,2.5,2.3,3.4c-0.1,1.8-2.2,3-4.3,3.8c-4,1.6-8.2,3-12.4,4.2c-3.8,1.1-7.7,1.8-11.5,2.7
		c-2.9,0.7-5.7,1.8-7.7,4.3c-2,2.4-4.7,3.2-7.7,3c-8.8-0.7-17.7-1.1-26.4-2.5c-16.5-2.6-33-5.8-49.4-9c-3.2-0.6-6.2-1.9-9.3-3.1
		c-2.7-1.1-4.5-3.2-5.7-6c-1.3-2.9-3.1-5.7-5-8.4c-1.9-2.8-2-4-0.5-6.9c0.6-1,0.7-2.3,0.9-3.5c1.3-13.2,2.4-26.3,3.9-39.5
		c1.7-15.4,3.7-30.8,5.7-46.2c0.4-3.2-0.3-5.7-2.2-8.3c-7.3-9.7-14.3-19.6-21.6-29.3c-5.4-7.1-12.3-12.7-19.1-18.4
		c-1-0.8-2.4-1.2-3.7-1.7c-1.9-0.7-3.8-1.4-6.4-2.3c6.8-3.2,12.7-6.7,15.9-13.5c-0.7,0.4-1.5,0.8-2.2,1.2
		c-10.8,7.4-22.6,11.9-35.7,12.6c-5.4,0.3-10.9,0.9-16.2,1.9c-12.8,2.4-23.9,8.1-32.2,18.5c-1.7,2.1-3.4,4.3-5.1,6.4
		c-23.7,31.4-42,65.9-56.2,102.5c0,0.1-0.1,0.3-0.1,0.4c-4.3,7.4-4.6,15.5-3.9,23.8c0.3,3.7-0.2,7.6,0.8,11c1.2,3.9,1,7.8,1.3,11.6
		c0.4,5.2-1.8,9.2-6,12.2c-0.7,0.5-1.3,1-2,1.4c-12.1,6.7-24.6,12.3-38,15.9c-1.8,0.5-3.8,0.7-5.7,0.8c-2.2,0.1-4.4-0.2-6.1-1.9
		c-3-3-6.8-3.7-10.9-4c-5.2-0.3-10.4-0.3-15.5-0.9c-10.6-1.2-21.1-2.6-31.6-4.2c-3.3-0.5-6.5-1.8-9.7-2.8
		c2.9-9.1,7.4-17.1,12.1-25.1c3.5-5.8,6.9-11.7,9.9-17.9c2.3-4.9,4.1-10.1,5.6-15.3c3.5-12.1,7.9-23.8,13.3-35.1
		c8.1-17.1,16.1-34.3,24.6-51.2c3.8-7.5,8.3-14.7,12.8-21.8c6.3-9.9,12.6-19.8,19.5-29.3c6.7-9.2,14.1-18,21.3-26.9
		c7.5-9.2,15.2-18.2,22.9-27.2c6.1-7.1,9.1-15.4,10.4-24.5c2.3-16.9,4.8-33.7,6.9-50.6c0.6-4.4,0.2-9,0-13.4
		c-0.7-13.9-5.4-26.9-10.1-39.8c-2.4-6.6-6.1-12.8-9.3-19.1c-0.6-1.2-1.7-2.1-2.7-3.3c2.2-3.4,5.6-4.6,9.8-4.3
		c-1.7-2.8-3.8-3.6-6.8-2.8c-3.2,0.9-5.9,2.8-7.3,5.6c-4.3,8.1-11.6,12.9-19,17.5c-13.8,8.6-27.7,16.8-41.5,25.3
		c-4.7,2.9-9.3,2.8-13.8,0c-2.3-1.4-4.4-3.2-6.6-4.8c-0.8-0.6-1.6-1.3-2.7-2.2c2.8,10.6,14.9,16.1,23.9,11.3c4-2.1,7.8-4.4,11.7-6.6
		c1-0.6,2.1-1.1,3.7-1.9c0.2,4.7-1.1,8.3-4.3,10.8c-5.4,4.3-11.4,7.5-18.6,7.4c-1.8,0-3.2,0.6-4.2,2.1c-2.2,3.5-5.7,4.6-9.5,4.7
		c-4.5,0.2-9-0.4-12.8-3.3c-0.5-0.4-0.8-0.9-1.2-1.3c3-1.6,6-2.8,8.6-4.6c2.3-1.6,2.3-2.7,1.1-6c-0.3,0.2-0.8,0.4-0.9,0.6
		c-0.6,1.9-1.1,3.9-3.3,4.8c-2.8,1.1-5.7,2.1-8.7,1.3c-4.5-1.2-8.2-3.8-11.1-7.3c-1.9-2.4-3.2-5.3-5.2-8.7c6.3,0,11.8-0.2,17.3,0.1
		c2,0.1,4,1.3,6,2.2c0.7,0.3,1.3,0.9,2.5,1c-0.2-0.8-0.2-1.7-0.6-2.3c-2.2-2.6-5.2-3.4-8.4-3.5c-3.8-0.1-7.6,0.1-11.4,0.2
		c-2.5,0-4.8-0.7-6.8-2.3c-1.2-0.9-1.2-0.9-1.2-3.4c9.3,1.3,16.1,0.9,25.8-1.8c-1.4-0.3-2.8-0.9-4.2-0.9c-4.1-0.2-8.2-0.2-12.3-0.2
		c-2.6,0-4.6-0.7-6.7-2.3c-6.5-5-13.2-9.7-19.8-14.5c-1.4-1-2.9-2-4.3-3.1c-8.5-6.3-13.2-14.7-14.4-25.1c-1.6-13.5-3.4-27-4.7-40.6
		c-0.5-4.7,0.1-9.5,0.3-14.3c0.1-3.9,1.9-7.1,4.4-9.9c5.1-5.9,10.3-11.6,15.4-17.4c1.3-1.5,3-2.5,5-2.3c6.1,0.7,11.9,2.5,17.6,5.5
		c-11.9,5.6-24.9,15.2-28.4,21.1c7.3-4.4,14-8.5,20.7-12.4c2.7-1.6,5.5-3.1,8.4-4.2c4.1-1.5,7.9-0.9,11.5,1.8
		c5.6,4.3,8.8,8.1,10.8,14.1c-9.1-3.2-17.3,0.4-25.7,2.7c-3.4,0.9-6.7,2.1-10,5.2c8.2-1.6,15.7-2.9,23.2-4.5c4.7-1,9.2-0.9,13.6,1.1
		c2.2,1,3.9,2.5,4.9,4.7c2.2,4.8,3.5,9.8,3.9,15c0.4,5.4-5.4,10.8-10.8,10.5c-1.4-0.1-2.5-0.6-3-2.2c-0.9-2.8-2-5.6-3-8.6
		c3.3-1,6.5-2.1,8.4-5.6c-2.5,0.9-4.7,2.2-7.1,2.4c-2.2,0.2-4.6-0.7-7.2-1.1c0.1,1.1,0,1.7,0.2,2.1c4.7,9.1,5.9,18.8,5.8,28.9
		c-0.1,7.2-1.1,14-4.5,20.4c5.3-4.4,7.2-10.4,8.4-17.1c1.3,0.1,2.5-0.1,3.6,0.2c5,1.4,9.9,3.1,14.9,4.3c8.4,2,11.8,8.4,14.2,15.7
		c0.2,0.8,0.5,1.5,0.9,2.4c2.6-5.6,1-10.3-6.7-19.8c1.4-1.4,2.8-2.8,4.3-4.2c16.1-15.7,34.1-28.8,53.8-39.6c5.7-3.1,12-4.2,18.2-5.8
		c7.5-1.9,14.9-2.4,22.6-1.4c18.1,2.5,36.2,1.6,54.2-0.5c9.9-1.1,19.8-2.2,29.6-3.6c5.1-0.7,10.1-2,15.2-3.3
		c2.3-0.6,4.4-0.9,6.8-0.2c9.8,2.7,19.7,5.2,29.5,8.1c3.1,0.9,6,2.5,8.9,4c7.6,3.7,15.1,7.6,22.7,11.2c10.8,5.1,21,11,30.3,18.5
		c2.9,2.4,5.3,2.6,8.8,0.9c11.8-5.8,24.4-7.3,37.4-6.3c2.9,0.2,5.5,1.3,7.8,3.3c1.3,1.1,2.7,2.1,4.1,3.1c0.2-0.2,0.5-0.4,0.7-0.6
		c-2-3.4-4.1-6.9-5.8-9.8c1.5-1.2,3.1-2.1,4.2-3.4c2.7-3,5.4-6.1,6-10.5c0.3-2.5,0.3-4.5-1.7-6.6c-3-3.1-4.5-7.1-4.6-11.5
		c-0.1-3.7,1-6.9,3.7-9.6c2.7-2.6,5.3-5.5,7.8-8.4c2.6-3,5.7-3.6,9.6-3c3.2,0.5,5.9,1.9,8.4,3.7c4.9,3.5,9.9,6.8,14.7,10.4
		c1.5,1.1,2.9,2.5,4,4c1.3,1.6,2,3.6,3.3,5.1c3.3,3.9,3.8,8.4,2.6,13.1c-2.1,8.5-4.1,16.9-6.7,25.3c-2.7,8.9-8.1,16.4-14.6,22.9
		c-2.8,2.8-6.4,5.2-10,6.9c-9,4.3-18.2,8.1-27.3,12.1c-1.2,0.5-2.4,1-4.2,1.8c1.6,0.7,2.7,1,3.7,1.6c2.5,1.5,2.7,4.7,0.1,5.9
		c-1.9,0.9-2.7,2.4-4,3.8c-2.6,2.8-5.2,5.6-8.3,7.8c-3.5,2.6-7.5,2.8-12.3,1c0.5,1.5,0.8,2.5,1.1,3.6c-3.8,4-8,6.6-14,5.8
		c-3.5-0.5-7-0.6-10.6-2.7c1.4-0.7,2.4-1.3,3.5-1.7c6-2.1,11.6-5.4,18.2-5.7c1.2-0.1,2.4-1.2,3.4-2.1c1.3-1.2,2.4-2.7,3.7-3.8
		c4.4-3.6,9-6.7,15.4-5.1c0-0.3,0-0.5,0-0.8c-0.5-0.4-1-1-1.6-1.3c-2.4-1-4.9-0.6-7.1,0.5c-2.2,1.1-4.4,2.2-6.4,3.6
		c-7,5.3-15,8.4-23.2,10.9c-9,2.7-17.8,1.4-25.6-4.5c-0.7-0.5-1.2-1.4-1.7-2.2c-0.5-0.8-0.8-1.7-1.4-2.5c-1-1.3-2.3-2.2-3.9-1.3
		c-1.5,0.9-1,2.4-0.5,3.7c0.4,1,0.8,1.9,1.4,3.3c-6-2.6-9.3-6.5-10.6-13c1.4,0.4,2.3,0.5,3,0.8c8.4,3.6,16.8,7.2,25.1,10.9
		c4.1,1.8,8,2.3,12.2,0.7c2.8-1.1,5.7-1.7,8.6-2.5c4.3-1.2,8-3.2,11.3-6.3c3-2.9,6.2-5.5,9.3-8.2c-0.1-0.2-0.3-0.5-0.4-0.7
		c-2,1.1-4.2,1.9-5.9,3.2c-6.5,5.3-13.9,8.2-22,10.1c-4.1,1-7.7,1.2-11.5-0.2C463.3,581.2,449.9,576.1,436.4,571
		c-0.1-1.6,0-3.3-0.3-4.8c-2.2-9.3-4.6-18.5-6.9-27.8c-1.7-7.1-3.7-14.2-3.7-21.7c0-4.4-2.3-8.2-5.4-11.3c-0.1,0.8,0.1,1.4,0.3,2
		c1.7,4.1,2.7,8.2,1.8,12.7c-0.4,1.8-0.1,3.8,0.2,5.7c2,14.1,6.3,27.6,12.1,40.6C435.1,568,435.7,569.5,436.4,571z M334,550.4
		c0-1,0-2.1,0-3.1c0.1-7.1,4.2-11.5,11.3-12.1c5.3-0.5,10.3,0.9,14.8,3.8c7.3,4.9,12.1,12,16.1,19.7c0.9,1.8,0.5,3.3-1.1,4.7
		c-3.3,3-7.2,4.1-11.7,4c-5.9-0.2-11.5-2-17-4.2c-9.9-3.9-19.2-9.1-28.3-14.6c-1.2-0.7-2.4-1.4-4.2-2.4c0.9,4.1,2.9,6.9,5.1,9.5
		c17.1,19.8,38.4,30.5,64.9,29.2c8.2-0.4,16.2-2.3,23.5-6.4c8.5-4.7,13.7-11.8,15.6-21.3c1.1-5.6,1-11.1-0.1-16.6
		c-0.1-0.6-0.6-1.2-1-2.1c-1.7,3.7-3.1,7.1-4.8,10.3c-2.9,5.3-6.5,10-11.7,13.3c-5.2,3.4-10.6,3-16,0.6c-2-0.9-3.5-2.3-3.6-4.6
		c-0.3-7.4,0.3-14.7,3.6-21.5c0.5-1,1.2-1.9,1.9-2.7c4.4-4.9,11.8-5.2,16.2-0.2c2.5,2.8,4.4,6.1,6.7,9.5c2.9-2,5.5-4.2,7-7.9
		c-8.9-12.6-21.1-19.4-36.5-21.5c0,1,0,1.5,0,2c0.2,6,0.9,12,0.5,17.9c-0.3,4.7-1.5,9.4-2.9,13.9c-1.3,4.3-3.5,4.7-7,1.8
		c-1.6-1.3-3-2.8-4.3-4.3c-7.2-8.7-14.8-17.1-20.3-27.1c-0.2-0.3-0.6-0.5-1.1-1c-5,1.4-9.9,3.5-14.6,6c-7.2,4-13.6,9.1-18.4,15.9
		c-1.1,1.6-2,3.4-2.9,5.1C318.5,546.6,331,550.5,334,550.4z M206.8,880.5c8.6,0,11.5-1,16.2-5.5c2.8-2.7,5.6-5.6,8.1-8.6
		c6.8-8.2,13.5-16.4,20.1-24.7c2-2.5,3.8-5.4,5.2-8.3c3.7-7.4,3.2-14.7-1-21.8c-4.1-7-10.3-11.6-17.6-14.6
		c-7.7-3.2-15.5-2.8-22.8,1.4c-3,1.8-6,3.7-8.7,6.1c-10.3,9-18,20-23.4,32.6c-1.1,2.6-2,5.4-2.7,8.1c-1.6,6.8-2,13.7,2,19.8
		C188.5,874.5,197.4,880,206.8,880.5z M550.6,509.2c-4.5,4-4.4,14.6-1,19.7c2.2,3.4,4.7,3.7,7.7,0.8c1.3-1.2,2.4-2.7,3.3-4.1
		c4.5-7.1,9.1-14.2,13.3-21.5c1.4-2.6,2.8-4.9,5.4-6.7c-4.1-1.1-8.1-0.8-12.3-0.6c0.1-1.1,0.2-2,0.3-3.5c-2.9,2.7-5.4,5-7.8,7.3
		C561.3,509.6,559.3,511.5,550.6,509.2z M382.7,521.1c0.6-9.8-3.5-11.8-9.1-13.6c-4.7-1.6-9.6-1.8-14.4-0.2c-1.8,0.6-3.5,1.5-5,2.6
		c-2.5,1.9-2.9,4-1.6,6.8c1,2.2,2.3,4.2,3.7,6.7C364.9,519.8,373.6,519.8,382.7,521.1z M365.3,535.2c6.4-0.4,11.9-0.8,17.8-1.2
		c0-3.2,0-6.6,0-10.6c-8.5-0.7-16.8-1.7-25.2,2.3C360.7,529.3,363.2,532.5,365.3,535.2z M571.4,480.6c0-0.5,0.1-1,0.1-1.5
		c-2.9-0.5-5.8-0.8-8.7-1.5c-3.2-0.7-5.9,0.2-8.4,2.2c-4.7,3.7-8.3,8.3-10,14.1c-0.6,2.1-0.7,4.6-0.4,6.8c0.4,3.2,2.2,5.6,5.1,7.2
		c0.2-0.5,0.3-0.6,0.2-0.7c-0.1-0.4-0.3-0.8-0.5-1.1c-2.7-4.1-2.6-8.3-0.2-12.3c2.2-3.6,4.8-6.9,7.4-10.2c1.8-2.2,4.3-3.2,7.2-3.1
		C566,480.6,568.7,480.6,571.4,480.6z M378.7,548.8c2.3-2.9,3.1-5.6,3.5-11.6c-4.7-1.1-9.2-0.6-13.8,1.1
		C371.5,543.3,375.2,547,378.7,548.8z"/>
	<path class="st0" d="M320.8,493.6c-6.5,0.2-12.1,0.5-17.6,0.4c-21.5-0.1-42.6-3.7-63.3-9.2c-28.8-7.6-51.7-24.4-70.2-47.5
		c-11.7-14.6-19.1-31.3-24.6-49c-6.1-19.7-9.5-40-11.8-60.5c-2.8-25.7-3.3-51.4-2.3-77.2c0.7-19.3,1.6-38.7,5.7-57.7
		c12.7-58.1,48.2-95.4,104.5-113.2c8.9-2.8,18.4-3.9,27.6-5.8c1-0.2,2.1-0.1,2.8-0.2c3.9,4.8,7.6,9.3,11.2,13.9
		c5.2,6.5,10.2,13.1,15.3,19.7c1.6,2,3.2,4,5,6c5.4,5.9,12.3,7.9,20,7.1c6-0.6,10.2-4.5,11.6-10.5c1.1-4.9,0.2-9.8-0.5-14.6
		c-1-6.9-2.3-13.7-3.5-20.9c1,0,1.9-0.1,2.8,0c22.9,2.7,44.5,9.3,64.1,21.7c21.1,13.3,36.3,31.8,47.4,54
		c10.7,21.5,17.7,44.2,23,67.5c3.3,14.4,5.1,29,6.7,43.6c2,19,4.3,37.9,6.1,56.9c1.9,19.9,3.5,39.9,5,59.9
		c0.7,8.6,0.1,17.1-1.2,25.7c-2.2,13.9-8,26.1-18.1,35.8c-6.2,5.9-13.1,11.1-19.7,16.5c-1,0.8-2.2,1.3-3.7,1.5
		c2-1.7,4.1-3.4,6.1-5.1c8.7-7.2,15.8-15.7,21.1-25.8c6.2-11.7,7.7-23.9,4.4-36.8c-2.1-8.2-6.2-15-12.4-20.7
		c-8.6-7.9-18.8-12.2-30.3-14.1c-11.1-1.8-22.2-1.9-33.4-1.2c-1.1,0.1-2.2,0.1-3.3,0.2c-4.4,0.4-8.2,0.2-10.5-4.7
		c-1-2.2-3.3-4.2-5.5-5.4c-16.3-9.4-31.6-12.4-47.3,3.9c-2,2.1-3.8,4.3-5.6,6.5c-1.8,2.3-3.9,3.6-6.8,4.1c-3.9,0.6-7.8,1.5-11.6,2.2
		c-15.4,2.7-29.6,8.5-42.6,17c-16.2,10.6-24.7,26.1-28.1,44.7c-1.3,7.4-1.5,14.9,0.5,22.3c3.2,11.8,10.4,20.8,20,28.1
		c10.5,7.9,22.5,12.7,35.3,15.6C301.9,490.5,310.9,491.8,320.8,493.6z M370,282.4c0.7,8.8,1.2,17.6,2.3,26.4
		c0.7,5.5,1.8,11,3.3,16.4c1.8,6.7,6.6,10.5,13.6,11.1c3.1,0.3,6.3,0.4,9.4,0.2c5.4-0.2,10.9-0.5,16.3-1c8.8-0.9,17.6-2,26.4-3.1
		c4.9-0.6,8.3-3.5,9.6-8.3c0.9-3.1,1.6-6.4,1.5-9.6c-0.3-7.9-0.8-15.8-1.8-23.6c-1.5-11-4.7-21.5-9.8-31.4
		c-3.5-6.9-8.9-11.3-16.3-13.2c-14.3-3.8-28.1-2.4-41.4,3.7c-6.7,3.1-10.6,8.5-11.6,15.7C370.6,271.1,370.5,276.7,370,282.4z
		 M307.5,198.1c0.1-1.9-0.3-2.4-3.3-3.2c-1-0.3-2.1-0.6-3.1-1c-13.8-5.4-28.1-7.5-42.9-6.4c-16,1.2-28.4,9.5-39,20.9
		c-1,1.1-1.8,2.5-2.3,3.8c-0.9,2.2,0.3,3.5,2.6,3.1c0.9-0.2,1.8-0.6,2.7-0.9c3.7-1.5,7.3-2.9,11-4.4c16.4-6.6,33.3-8.1,50.5-3.6
		c5.9,1.6,11.6,3.8,17.4,5.7c2.5,0.8,4,0.3,4.4-1.9C306.3,206.6,306.8,202.8,307.5,198.1z M221.8,304c0.6,6.5,1.3,16.6,2.5,26.6
		c0.5,4.3,1.8,8.5,3.3,12.6c1.8,4.6,5.7,6.9,10.6,7.1c3.5,0.1,7.1,0,10.6-0.3c9.5-0.9,19-1.8,28.4-2.9c8.4-1,16.8-2,25.1-3.3
		c9-1.5,13.5-6.1,14.2-15.3c0.5-5.8,0.4-11.7-0.1-17.5c-1.2-16-4.8-31.4-10.9-46.3c-4.7-11.5-13.5-17.9-25.2-20.6
		c-13.8-3.2-26.7-0.4-39.2,5.7c-8.7,4.3-14.1,11.2-16.4,20.7C222.5,280.3,222,290.3,221.8,304z M437,215.5c0,0.1,0,0.2,0.1,0.3
		c1.4,0,2.7,0.2,4.1,0c2.5-0.4,3.5-2.3,2.3-4.5c-0.9-1.6-2.3-3.1-3.8-4.1c-5.2-3.7-11.2-5.8-17.6-5.6c-5.6,0.1-11.1,0.7-16.7,1.1
		c-9.4,0.7-18.9,3.4-28.3-0.1c-0.4-0.1-0.8-0.1-1.2-0.1c-2.1,0.1-3.9,1.4-3.7,3.5c0.4,3.9,1.1,7.8,2.1,11.6c0.5,2,2.5,3.1,4.5,3.8
		c4.7,1.6,9.6,2.3,14.5,1.6c7.8-1.1,15.6-2.5,23.3-3.8C423.3,217.9,430.1,216.7,437,215.5z"/>
	<path class="st0" d="M359.5,340.3c-15.2,4.1-15.2,4.1-17.4,8.5c1.9-0.3,3.5-0.4,4.9-0.9c8.3-2.9,16.8-2.8,25.4-2.7
		c0.9,0,1.8,0.6,2.6,1c3.3,2,6.1,4.6,7.9,8.1c1.5,2.9,3.9,4.1,7,4c3.3,0,6.5-0.1,9.8-0.3c13.1-1,26.2-0.6,39,2.9
		c28.1,7.7,38.5,32.7,31.1,55.7c-3.9,12.2-11.5,22.2-21,30.7c-14,12.5-30.2,21.4-47.6,28c-19.9,7.6-40.3,12.6-61.6,13.5
		c-23.6,1-46.5-2.3-68-12.6c-4.4-2.1-8.6-4.8-12.4-7.8c-15.6-12.1-21.5-27.9-17.4-47.3c4.1-19.4,14.4-34.2,32-43.6
		c12.1-6.5,24.7-11.4,38.4-13.3c0.4-0.1,0.8-0.1,1.2-0.2c11.7-1.9,11.7-1.9,19.4-10.9c5-5.8,10.7-10.6,18.4-12.1
		C353.9,340.6,356.7,340.6,359.5,340.3z M334.6,357.3c-0.4-0.1-0.9-0.3-1.3-0.4c-3.3,3.6-5.2,7.9-5.6,12.9
		c-0.3,4.6,1.4,8.4,5.3,10.8c2.6,1.6,5.5,3.1,8.5,3.9c11.4,3.1,22.7,2.2,33.7-1.8c2.5-0.9,4.8-2.5,6.8-4.3c3.7-3.3,5.2-8.4,4.3-12.6
		c-0.2,0.1-0.6,0.2-0.7,0.3c-3.4,7.7-9.8,10.9-17.6,12.1c-6.7,1-13.3,0.8-19.9-0.3c-2.8-0.5-5.6-1.4-8.1-2.7
		c-5.6-2.9-7.5-7.5-6.2-13.6C334.1,360.2,334.4,358.8,334.6,357.3z M428.1,397.1c-2.4-0.7-3.5,0.4-4.5,1.4c-1.9,1.8-3.7,3.7-5.4,5.6
		c-11.4,12.8-25.6,20.8-42.2,24.8c-11.4,2.8-23,4.2-34.7,4.7c-8.4,0.4-16.6-0.3-24.4-3.6c-0.6-0.2-1.3,0-2.7,0
		c2.6,2.4,5.2,3.2,7.8,3.8c5.7,1.2,11.5,2.4,17.2,3.2c11.9,1.8,23.6,0.4,35.3-2.2c13.7-3,25.8-9.1,35.6-19.5
		c5.3-5.7,11.1-10.8,16.7-16.2C427,398.6,427.4,398.1,428.1,397.1z"/>
	<path class="st0" d="M219,760.9c-7.6,11.3-15,22.6-22.7,33.8c-7.7,11.3-15,22.8-20.3,35.4c-1.1,2.6-2.7,3.7-5.4,4.1
		c-46.1,8-89.4,1.2-129.8-23.1c-11.1-6.7-21.6-14.2-30.8-23.5c-2.4-2.4-4.8-4.8-6-8.1c1.4-1.7,3.3-1.5,5-1.6
		c6.2-0.2,12.2,1.2,18.1,3c7.4,2.3,14.8,4.8,22,7.6c12.3,4.8,24.8,9,38,11c14.3,2.2,28.5,1.8,42.8,0.2c20.9-2.3,39.7-10.4,57.7-20.5
		c9.7-5.4,19.1-11.6,28.6-17.4c0.8-0.5,1.6-0.9,2.5-1.4C218.8,760.7,218.9,760.8,219,760.9z"/>
	<path class="st0" d="M274.7,45.2c0.2-6.1,0.5-14.4,0.9-22.7c0.2-4.4,1.7-8.6,4.3-12.2c5.3-7.1,14.1-8.2,20.7-2.4
		c2.3,2,4.4,4.6,5.9,7.3c2.8,5.1,5.3,10.4,7.4,15.9c6.7,17.1,10.6,34.9,13.9,52.9c1.2,6.4,2.1,12.9,2.8,19.4c1,10-4.1,14.5-14,12.9
		c-3.7-0.6-7.1-2.1-9.7-4.8c-1.7-1.8-3.3-3.6-4.8-5.5c-7.8-9.8-15.5-19.7-23.4-29.5c-1.5-1.9-2.6-3.7-2.7-6.2
		C275.7,62.6,275.2,55,274.7,45.2z"/>
	<path class="st0" d="M496.9,782.3c3.2-0.5,5.8,0.5,8.4,2.8c-1.8,0.4-3.3,0.8-5.7,1.4c2.9,0.6,5.1,0.6,6.9,1.4
		c5.2,2.4,8.6,6.5,10.8,11.7c0.6,1.4,1.5,2.7,2.3,4.2c-0.2,0.1-0.6,0.5-1.8,1.4c2.7-0.3,3.4,1.1,4.3,2.6c2.6,4.4,3.1,9.3,3.6,14.1
		c0.3,3.5,0.9,7,0.8,10.5c-0.1,7.6-0.3,15.4-3.4,22.5c-2.7,6.1-8,9.9-14.6,11.5c-3.5,0.8-5.5-0.5-7.3-3.9c0.6,0,1.2-0.1,1.6,0.1
		c4.7,1.8,8.5,0.3,11.9-2.9c6.7-6.2,8.8-14.1,8.6-23.5c-1.2,1-2,1.7-2.7,2.4c-4.4,4.2-9.6,7.2-15.5,8.8c-6.6,1.8-13.2-1.7-13.3-10.9
		c1.1,1.1,2,1.9,2.8,2.7c2.2,2.2,4.6,2.7,7.4,1.3c4.5-2.1,8.6-4.7,12-8.3c3.7-3.9,4.6-12.8,1.9-17.3c-1.2-2-2.4-2.2-4.4-0.8
		c-5.4,3.9-11,7.5-16.2,11.7c-3.5,2.8-14.1-0.1-13.9-6.8c0.8,0.8,1.5,1.3,2,1.9c4,4.2,8.1,4.5,12.6,0.9c1.9-1.5,4-2.9,6-4.3
		c6-4.4,7.3-8.8,4.5-15.6c-0.6-1.5-1.4-3-2.3-4.3c-4.8-6.5-10.4-6.9-16.8-1.6c-1,0.8-1.9,1.8-2.9,2.8c-1.3-2,0-3.1,0.9-3.9
		c3.1-2.8,6.3-5.6,9.6-8.2C497.3,784.8,497.4,784.9,496.9,782.3z"/>
	<path class="st0" d="M271.6,69.2c-9.4,1.7-18.3,3.3-27.7,5c0-8.1,0-16,4-23.1c4-7.2,14.7-9.4,21.5-4.6c0.7,0.5,1.4,1.4,1.4,2.2
		C271.1,55.4,271.3,62.2,271.6,69.2z"/>
	<path class="st0" d="M520.7,503.6c-2.2-3.2-4.4-6.2-6.4-9.2c-2.1-3.1-2-6.2,0.2-9.1c1.6-2,3.4-3.9,5.5-5.4c2.4-1.7,5.1-2.1,7.9,0
		c2.4,1.9,5.4,2.8,6.5,6.2c1.3,3.9,1,7.4-2.2,10c-2.3,1.8-5,3.3-7.7,4.2C522.6,501.1,521.4,501.7,520.7,503.6z M531.9,485.5
		c-6,2-8.7,5.9-7.9,11C530.4,494,532.7,491,531.9,485.5z"/>
	<path class="st0" d="M209.5,518.8c0.7-3.9,2.9-5.4,5.2-6.9c2.1-1.3,3.7-2.7,4.2-5.5c0.2-1.6,1.9-3.2,3.3-4.4
		c1.3-1.1,3.1-1.7,4.7-2.3c2.4-1,4.4-2.1,6.3-4.1c3.1-3.3,7.7-4.5,11.9-4.5c4.6,0,9.3,1.3,13.9,2.1c0,0.3,0,0.6,0,0.8
		c-2.7,0.7-5.4,1.3-8,2c-4.9,1.2-9.6,3-13.9,5.7c-8.2,5.1-16.4,10.2-24.5,15.4C211.7,517.5,210.9,517.9,209.5,518.8z"/>
	<path class="st0" d="M393.9,486c4.6-3,9.2-2.7,13.8-2.3c2.6,0.2,4.3,1.3,4.9,4c0.1,0.7,0.4,1.3,0.7,2.1c2.4,1,5.6,0.7,7.9,3.9
		C411.8,491.1,403.1,488.6,393.9,486z"/>
	<path class="st0" d="M533,480.4c0.5-1.8,0.4-3.5,1.2-4.4c3-3.5,6.9-5.8,11.5-8.3C541.3,472.1,537.4,476,533,480.4z"/>
	<path class="st0" d="M555.9,465.7c-1.9,0-3.7,0-6.1,0C553,464.4,553,464.4,555.9,465.7z"/>
	<path class="st0" d="M463,596.7c-0.8-0.7-1.6-1.4-2.3-2.1c0.1-0.1,0.3-0.3,0.4-0.4c0.8,0.7,1.7,1.3,2.5,2
		C463.4,596.3,463.2,596.5,463,596.7z"/>
	<path class="st0" d="M254.3,824.3c2.8,8.5-2,15-11.8,17.3c1.5,5.4-1.3,9.2-5.2,12.2c-4,3.1-8.8,3.3-13.2,1.7
		c-10.2-3.7-19.5-9.1-27.3-16.8c-2-1.9-4.2-4.2-7-3.1c-2.7,1.1-2.5,4.2-2.7,6.8c-0.9,13,6.6,23.8,19.2,27.5
		c4.9,1.5,9.7,1.4,14.2-1.3c0.5-0.3,1-0.5,1.5-0.7c0.1,0,0.2,0.1,0.6,0.3c-1.4,3.1-3.6,5.2-6.7,6.4c-4.1,1.6-8.3,1.8-12.5,0.7
		c-10.1-2.7-17.4-9-21.3-18.6c-3.3-8-0.2-15.3,4.2-21.9c1-1.5,3.3-2,5.4-3.2c-0.5-3.3,0.1-6.9,2-10.4c2-3.5,4.9-5.8,9-6
		c2.8-8,9.2-12.1,15.9-15.8c0.7-0.4,1.6-0.6,2.3-0.6c5.5-0.1,10.2,1.8,14.7,4.6c-0.1,0.4-0.2,0.7-0.3,1.1c-1-0.3-2.1-0.5-3.1-0.9
		c-10.8-4.2-15.7,0-21.3,5.4c-3.4,3.2-3.1,6.9,0.7,9.8c8.4,6.5,17.3,12.4,26.9,17c7.1,3.4,13.3,0.3,15.2-7.4
		C253.8,826.9,254.1,825.6,254.3,824.3z M227.6,852.3c4.8-0.1,8-0.9,10.6-3.3c2.8-2.6,2.9-4.2,0.4-6.9c-1.6-1.7-3.3-3.3-5.1-4.6
		c-6.4-4.6-12.9-9.1-19.4-13.5c-2.8-1.9-5.9-3.4-9-4.8c-6-2.7-11.4,0.9-11.4,7.5c0,4.3,1.6,8,4.8,10.8c6.1,5.4,12.8,9.7,20.4,12.5
		C222.1,851.1,225.5,851.7,227.6,852.3z"/>
	<path class="st0" d="M375.5,300.1c1.6,1.8,2.6,2.9,3.6,3.9c9.2,9.7,22.9,11.5,32.9,3.9c8.4-6.4,11.5-15.3,10.7-25.6
		c-0.6-7.9-3.8-14.7-9.5-20.3c-10.4-10-25.6-9.9-34.8-0.2c-0.4,0.4-0.9,0.8-1.9,1.6c1.1-4.3,3.5-6.8,6.6-8.7
		c4.7-2.9,10-4.3,15.4-5.3c7.7-1.4,15.4-1.4,23.1,0.4c7.2,1.7,12.5,5.5,15.9,12.3c4.7,9.5,7.7,19.5,9.1,30c1,7.5,1.4,15.2,1.8,22.8
		c0.1,2.4-0.4,4.9-1,7.3c-0.9,3.6-3.2,5.9-7.1,6.4c-14.7,1.8-29.5,3.9-44.3,4.1c-1.9,0-3.8,0-5.7-0.2c-5.9-0.6-9.3-3.1-10.8-9
		c-1.4-5.4-2.2-10.9-3.1-16.4C375.9,305,375.8,303,375.5,300.1z"/>
	<path class="st0" d="M419,284.5c0.1,4.9-1.2,9.4-3.9,13.5c-6.3,9.6-18.3,12.1-27.9,5.9c-11.4-7.4-15.1-23.8-8.2-35.4
		c6-10,18.1-13,27.9-6.7C415.2,267,418.8,274.9,419,284.5z M400,269.2c-0.6-0.2-1.2-0.5-1.8-0.6c-9.2-1.2-16.5,5.8-16.2,15.5
		c0.3,10.5,10.4,18,19.8,14.6c8.7-3.1,11.8-14.2,7.7-21C402.6,280.3,398.2,277.3,400,269.2z"/>
	<path class="st0" d="M313,318.1c-0.2,3.3-0.2,6.5-0.6,9.8c-0.7,7.2-3.7,10.5-10.9,11.7c-8.5,1.3-17,2.4-25.5,3.3
		c-9.5,1.1-18.9,2-28.4,2.9c-2.6,0.3-5.2,0.4-7.7,0.4c-5.2-0.1-7.7-1.8-9.4-6.8c-0.9-2.7-1.6-5.5-2-8.3c-2.4-17-3.6-34.1-1.2-51.3
		c0.6-4.4,1.9-8.8,3.1-13.1c1.2-4,3.6-7.4,7.1-9.7c13.5-9.1,28.2-12.7,44.2-8.3c9.3,2.5,16,8.2,19.8,17.4c6,14.6,9.5,29.8,10.8,45.5
		c0.2,2.2,0.3,4.3,0.4,6.5C312.9,318.1,313,318.1,313,318.1z M268.2,324.4c15.9,0,28.6-12.8,28.7-29c0.1-16.6-13.1-30.1-29.2-30
		c-15.8,0.1-28.6,13.2-28.6,29.3C239.1,311.1,252.1,324.4,268.2,324.4z"/>
	<path class="st0" d="M291.3,295.1c0,13.2-10.2,23.6-23,23.7c-13.1,0-23.7-10.8-23.7-24.1c0.1-13,10.6-23.6,23.3-23.5
		C280.8,271.2,291.3,281.9,291.3,295.1z M270.1,280.1c-8.6-0.9-15.4,3.4-17.7,11c-2.1,7.2,1.4,15,8.4,18.4c7,3.4,15.6,1.4,20.2-4.7
		c4.4-5.9,4.1-13.9-0.9-19.1c-2.1,1.9-4.4,3.2-7.3,1.6C270.1,285.8,269.7,283.2,270.1,280.1z"/>
</g>
</svg>
