<?xml version="1.0" encoding="utf-8"?>
<!-- Generator: Adobe Illustrator 26.0.0, SVG Export Plug-In . SVG Version: 6.00 Build 0)  -->
<svg version="1.1" id="Capa_1" xmlns="http://www.w3.org/2000/svg" xmlns:xlink="http://www.w3.org/1999/xlink" x="0px" y="0px"
	 viewBox="0 0 595.3 970" style="enable-background:new 0 0 595.3 970;" xml:space="preserve">
<style type="text/css">
	.st0{fill:#FFFFFF;}
</style>
<g>
	<path d="M594.8,909.3c-0.1-0.9-0.6-1.8-1.3-2.4c-3.3-3.4-1.1-8.4-1.4-12.6c0.9-75.8-59.9-137.7-116.7-180.5
		c-11.2-9.7-15.7-24.9-21.8-38c-0.1-0.2,0.1-0.5,0.3-1.1c8.5,8.1,14.5,18.7,24.2,25.4c18.6,7.4,3.9-39.7-0.2-46.5
		c-17.2-36.7-44.2-67.2-65.4-101.5c-4.3-5.6-5.6-12.5-8.7-18.7c-3.5-12.2-5-25-5.3-37.6c-0.1-9.6-6.9-8.9-7.5-14.1
		c-0.2-10.1-3.2-32.3,2.3-40.1c3.7,3.2,7.3,6.1,10.8,9.1c12.1,10,29.6,3.2,42.1-2.6c12.4-8.2,37.9-3.9,45.8-13.8
		c6.1-8.5,11-18,11-28.8c0.3-12.7-6.9-41-23.6-38c-5.4,0.8-11.3,6.6-16.4,2.1c0.1-6.4,0.2-12.5,0.3-18.6c1.8-0.8,3.1-1.3,4.6-1.9
		c3.7,6.7,9.2,3.7,12.5-1.6c4.4-6.4,8.3-12.9,12.9-19.2c4.9,3.1,13.5,13.1,17.2,4c2.1-12.9,2.8-25.6,4.9-38.6
		c2.5,1.9,4.4,3.9,6.8,4.9c6.3,2.4,8.7,8.8,13.7,12.9c2.8,3.2,8.6,0.6,8-3.7c-0.7-8.3-1.9-16.7-2.3-25c-0.9-17.4,7.3-33.4,7.8-50.7
		c0.9-20.4-6.5-39.7-10.6-59.5c-4.7-30.1-18.2-57.8-35.4-82.8c-8.7-12.1-19.9-22.1-29.7-33.3c-39.5-41.9-101.6-31.6-153.3-30
		c-0.3-1-0.7-1.6-0.7-2.3c0.2-9.3-17.8-35.6-24.6-18.5c-2.3,5.3-5.2,10.6-8.9,15c-3.8,4.9-11.8,9.8-14.5,1.2
		c-9.5-33.1-17.6,5.5-45.1,12.7c-30.3,9.7-63.4,10-91.7,26.1c-72.1,39.9-78,138.2-79.1,212c0.6,9.6-4.9,24.7-12.2,31
		c-1.5,1.2-2,3.1-1.1,5.1c4.4,9.2,21.4-7.4,27.2-10.3c3.5,18.8,3.7,39.3,15.9,55c8.3,9.5,13.5,21,20.3,31.4
		c9.3,7.3,10.8-8.3,12.6-14.6c9.1,8.6,18.5,16.4,20.5,29.3c0.8,5.4,4.1,18.1,11,10.1c3.6-7,3.8-13.9,6-21.7
		c3.6,5.6,5.9,10.6,9.3,16.1c2.7,4.4,6.2,5,10.4,2.2c3.6-2.8,7.6-5.2,11.4-7.7c5.2,3.9,10.2,6.9,15.9,9.9c3.4,1.7,6.9,2.1,9.8-1.4
		c0.3-0.4,1.4,0,2.9,0c-7.3,7.6-2.9,15.9,0,23.9c-24.4,6.8-48.2,13.4-73,18.2c-5.4,1-10.6,3.3-16.2,5.1
		c-6.3-5.2-12.9-10.8-20.3-14.7c-8.4-4.2-15.2-10.6-22.4-16.5c-3.7-2.8-7.3-2.8-10.6-0.2c-5.4,3.9-3.4,10.2-0.4,15.4
		c-6.2-1.4-13.5-6.3-18.5,0c-2.4,2.9-1.6,6-0.1,9c3.3,7,9.9,9.9,16.4,13.5c-3.6,2.9-6.5,5.8-10.6,7.2c-7.3,1.9-7.3,12.3-0.6,15
		c2.1,1,4.6,1.9,6.8,1.6c5.5-0.7,12-2,16.9-4.1c5.8,3.9,11,7.6,16.4,10.9c2.1,1.3,3.7,2.3,4.4,5c1.6,7.4,9.2,6.2,14.7,3.7
		c10.5,10.3,23.4,1.6,35-1.9c30.8-9,61.9-16.5,93-24.2c8.8-2.5,13.1,1.1,20,6.1c8.4,5.6-1.8,12.3-1.6,19.5c-0.3,5.3-2,10.4-2.8,15.6
		c-0.8,6-3.5,27.1-11.5,26.5c-10.4-0.5-20.9,1.3-29.8,7.1c-29.3,17.2-55.1,40.5-72.3,70.1c-2.9,4.8-6.3,6.6-11.5,7.5
		c-35.1,5.9-69.1,18.7-97.7,40.3c-7.5-4.1-13.9-1.1-20,3.2c-3.6,3-9.5,5.2-6.9,10.9c1.9,6.1,2.3,12.6-2.3,18
		c-5.8,7.6-15.4,17.6-7,26.9c6.3,7.7,10.5,18.1,21.3,20.4c6,1.6,11.9,1.6,17.8,0.1c17.5-4.4,35.3-4.8,53.1-4.4
		c14.8,0.9,50.4,1.8,62,9.8c27.2,21.8,64.4,40.7,99.6,28.6c3.3-1.2,6-0.9,9.1,0.3c33.7,13.8,67.5,27.5,100.2,43.5
		c1.8,0.8,3,1.9,3.8,3.8c3.7,8.7,9.2,16.2,16,22.7c21.6,22.4,49.4,28.8,78.6,33.4c26.2,18.3,47,43,64.5,69.5c2.6,4,5.7,7.7,9.1,11.1
		c8.9,9.4,22.7,4.2,33.9,3.3c13-2.2,11.4-21,14.1-30.9C588,923.5,597.5,925.5,594.8,909.3z M451,368.2c1.4,0.9,2.3,1.5,3.6,2.3
		c-1.5,1-2.6,1.7-4.4,2.9C450.5,371.3,450.7,370,451,368.2z M431,374.6c6.2,3.6,7.4,20.1,16.7,12.4c4,2.2,6.9,4.9,7.3,9.4
		c-5.7,4.7-20.3,11.4-28.7,13.1c-3.8-6-7.7-12-11.6-18C420.1,386,425.5,380.4,431,374.6z"/>
	<path class="st0" d="M163.2,198.4c-0.8,18.2-7.7,33.3-19.7,46.6c-1.9-3.2-0.6-5.9-0.5-8.5c0.1-2.8,0-5.6-0.6-8.5
		c-3.1,32.5,1.6,65.5,9,97.2c5.7,34.8,27.5,63.3,58,80c-7.1,1.2-16.3-7.8-22.3-11.5c-4.3,2.9-8.6,5.8-12.8,8.8
		c-3.3,2.3-4.3,2.2-6.2-1.3c-4.7-8.5-9.4-17-14-25.6c-1.3-3-0.6-6.6-0.6-9.8c1.5-58-54-95.1-68.1-147.9c-2.1-7.4-4-14.9-6.2-22.3
		c2.6,18.5,6.7,37,15.1,53.8c29.4,47.1,75.2,100.4,52,159.3c-2.5-3.6-2.9-6.6-3.8-10.6c-2.5-15.6-15.1-24.1-25.6-35
		c-1.2,3.7-2.3,6.9-3.4,10.1c-1.1,3.2-0.7,6.9-3.3,9.5c-2.6-0.6-3.2-2.7-4.1-4.4c-3.7-7.4-7.4-14.9-12.9-21.1
		c-17.3-18.9-16.7-44.9-21.2-68.3c-4.4,5.1-19.2,19-25.9,18.2c2-3.6,5.1-6.4,6.9-10c2.2-4.4,4-9,5.4-13.7
		c3.9-78.3,3.4-186,86.8-223.5c33.7-17.5,78.1-9,106.4-36.8c3.7-3.9,7-7.3,11-11.1c3,3.6,3.9,7.4,5.3,11.7
		c4.1,11.4,16.1,6.5,21.4-1.1c3.8-5.4,7.3-11.1,10.1-17.1c3.3-7.1,16.7,13.6,16,17.7c0.7,5.3,1.5,7.6,7.2,7.2
		c74.3-4.3,121.6-11.4,171.5,54c11.3,13.6,19.1,29.8,27.6,45.2c3.6,6.6,5.8,13.7,7.8,20.9c1.8,4.8-0.5,8.9-2.4,13.3
		c-2.7,0-5.2,0-8.2,0c2.2,2.2,5.1,2,7.3,3.7c-0.2,2.5-0.3,5.1-0.5,7.8c0.1,0.1,0.3,0.1,0.4,0.2c1.1-2.5,2.3-5,3.5-7.6
		c1.3,0.1,2.4,0.1,3.8,0.2c3.5,13.3,6.4,26.6,9.7,40c6.2,21.8-1.3,43.1-5,64.5c-1.9,12,0.7,23.8,1.8,35.8c-2.1,0.3-3-1.1-3.8-2.2
		c-4.6-6.7-8.8-12.4-13.1-19.5c0,3,0,5,0,7.5c-4.1-2.2-6-6-9.2-9.1c-1.4,1.9-1.7,4-2,5.9c-1.1,8.4-2.1,16.9-3.2,25.3
		c-1,5.4-0.5,10.8-2.7,16c-5.1-2.9-9.1-6.8-13.9-10.1c-6.6,9.3-11,18.9-18.8,27.5c-2.4-6-4.5-11.3-6.7-16.5c-0.3,0.1-0.6,0.1-1,0.2
		c-0.3,4.2-0.5,8.4-0.8,13c-1.5-0.6-2.7-1-4.4-1.7c-1.6,7.6-0.7,14.9-1.5,22.5c-4.4-0.5-6.8-4-10.9-4.9c-1.5,6.4-2.3,12.9-3.3,19.4
		c-0.2,1.1-0.5,2.2-1.3,3.4c-4.1-5.8-7.4-12-12.7-16.8c-7.4,7.9-13.6,17.3-23.5,22.4c-4,2.7-5.7,0.6-8.5-2.7
		c15.4-12.7,31.3-25.4,40.1-43.8c0.9-1.7,1.8-2.7,3.8-3c19.4-2.9,26.9-27.3,34.5-42.8c3.8-9.9,3.5-20.7,4.2-31.1
		c0.2-7.6-0.9-10.4-5.7-16.5c12-33,37.1-65.5,28.3-102.2c2.8,0.1,2.8,0.1,3.1,5.4c1.2-1.8,1.6-2.6,2.5-4.4c1.8,0,3.7,0,5.5,0
		c0.1-0.2,0.1-0.4,0.2-0.6c-1.6-0.7-3.1-1.4-4.9-2.2c-0.1-1.4-0.2-3-0.4-5.3c-1,1.9-1.6,3.2-2.4,4.6c-1.3,0-2.7,0-4.3,0
		c-1.8-4.5-3.5-8.9-5.4-13.6c0.7-0.4,1.3-0.7,2.2-1.2c-2.6-0.9-4.7-1.9-4.6-5.3c-11.5-16.7-21-36.7-34.1-52
		c3.4,7.2,8,13.8,12.1,20.6c2.7,4.2-1.2,8.2-2.1,12.5c-3,0-6,0-9,0c-0.1,0.1-0.1,0.3-0.2,0.4c2.6,1.2,5.2,2.3,8.1,3.6
		c-0.3,3.3-0.5,6.6-0.8,9.9c0.2,0.1,0.3,0.1,0.5,0.2c1.3-3,2.6-6,4-9.3c3,0.7,8.5-0.5,10.5,2c2.6,4.8,5.1,9.6,7.8,14.8
		c-1.6,0.2-2.5,0.3-4.3,0.5c2,0.9,3.3,1.4,4.7,2c0,1.6,0,3.2,0,4.7c0.1,0.1,0.3,0.2,0.4,0.4c0.3-0.7,0.7-1.4,1.2-2.7
		c9.5,19.1,9.8,39.9,1.7,59.1c-8.3,20.1-17,39.8-25.3,59.8c-16-25-16.2-58.1-38.6-79.4c-1.1-1.2-2.2-2.7-4.5-2.4
		c-2.5,6.4,9.5,27.4,13.2,33.7c13.8,20.3,12.7,45.7,15,69.2c-9.4-9.9-15.6-23.2-29.4-27.7c-27.9-9.7-55-22.2-60.8-54.3
		c2.2,0.7,4.2,1.4,6.3,2c0,2.8,0,5.4,0,8c0.2,0.1,0.4,0.1,0.7,0.2c1-2.4,2-4.7,3-7.2c3.2,0,6.3,0,9.5,0c0.1-0.2,0.1-0.4,0.2-0.6
		c-2.8-1-5.6-2.1-8.4-3.1c0-2.7,0-5.2,0-7.7c-0.2-0.1-0.4-0.2-0.6-0.2c-1.1,2.4-2.1,4.8-3.3,7.5c-2.6-0.1-5-0.2-8.1-0.4
		c-13.3-44,35.3-118.4,0.9-146.6c8.2,8.9,10.7,19.6,10.3,31.8c-2.4-0.8-4.4-1.4-6.5-2.1c0-2,0-3.7,0-5.4c-0.2-0.1-0.4-0.1-0.6-0.2
		c-0.7,1.6-1.5,3.1-2.3,4.9c-1.7,0-3.5,0-5.4,0c-0.1,0.2-0.1,0.4-0.2,0.7c1.6,0.7,3.1,1.4,4.8,2.2c0,1.8,0,3.6,0,5.4
		c0.1,0.1,0.3,0.2,0.4,0.3c0.8-1.6,1.5-3.3,2.4-5.1c2.2,0,4.4,0,7,0c-0.9,27-13.3,52.2-16.1,79.1c-7.7,50.5,21.9,80,57.1,110
		c-30.4-8.8-62.3-19.3-85.6-41.5c-29.8-28-36.4-73.3-28.6-111.9c0.6-2.6,0.6-2.6,2.5-4.1c-0.8-1.5-0.8-1.8-0.2-6.9
		c-1,2.1-1.7,3.6-2.4,5.2c-5-0.4-2.2-4.4-3.6-7c-0.9,2-1.7,3.7-2.6,5.7c-2.2,0-4.3,0-6.5,0c0,0.2-0.1,0.4-0.1,0.6
		c1.9,0.7,3.9,1.5,5.9,2.2c0,2.2,0,4.2,0,6.4c2.5-1.5,0.9-6.8,6.3-5.6c-16.5,52.4,7.8,101.4,37,144c-74.8-12.5-170.7-63-159.6-151.7
		c-15.1,58.8,33.5,98.6,66.4,139.5c1.1,1.4,2.4,2.9,1.6,5.6c-17.7-5.4-34.5-14.2-51.8-21.1C181.9,219.2,172.2,209.6,163.2,198.4z
		 M431.7,91.6c-0.3,3.1-0.5,6.2-0.7,9.2c0.2,0,0.3,0.1,0.5,0.1c1.3-2.8,2.7-5.7,3.9-8.3c3.4,0,6.3,0,9.3,0c0-0.2,0.1-0.3,0.1-0.5
		c-2.7-1.1-5.5-2.3-8.3-3.5c0.2-3.3,0.3-6.3,0.5-9.4c-0.3,0-0.5-0.1-0.8-0.1c-1.2,2.9-2.3,5.8-3.5,8.7c-3,0.4-5.8-0.5-9.3,0.3
		C426.6,89.6,429,90.6,431.7,91.6z M256.7,107.6c0-0.2,0-0.4,0-0.6c-3-1.1-5.9-2.2-9-3.3c0-2.7,0-5.2,0-7.6c-0.2,0-0.4-0.1-0.5-0.1
		c-1,2.4-2,4.7-3.1,7.4c-2.9,0-5.9,0-8.8,0c0,0.2,0,0.4-0.1,0.6c2.7,1,5.4,2,8.1,3c-0.1,3.1-0.3,5.8-0.4,8.6
		c0.2,0.1,0.4,0.1,0.6,0.2c1.2-2.7,2.4-5.4,3.5-8C250.4,107.6,253.5,107.6,256.7,107.6z M226.1,153c-0.2,3.2-0.4,6-0.6,8.8
		c0.2,0.1,0.4,0.1,0.6,0.2c1.2-2.8,2.3-5.5,3.5-8.3c3.4,0,6.8,0,10.1,0c0-0.1,0.1-0.3,0.1-0.4c-3-1.1-6.1-2.2-9.2-3.4
		c0-2.9,0-5.5,0-8c-0.2-0.1-0.4-0.1-0.6-0.2c-1.1,2.6-2.2,5.2-3.3,7.8c-3,0-5.7,0-8.5,0c-0.1,0.2-0.1,0.4-0.2,0.6
		C220.7,150.9,223.2,151.9,226.1,153z M257.3,151.6c0,2.6,0,4.9,0,7.2c0.2,0.1,0.3,0.1,0.5,0.2c1-2.2,2-4.4,3-6.7c3,0,5.7,0,8.5,0
		c0-0.1,0-0.3,0.1-0.4c-2.6-0.9-5.1-1.9-7.8-2.9c0-2.5,0-4.8,0-7.2c-0.2-0.1-0.3-0.1-0.5-0.2c-1,2.2-1.9,4.5-3,7.1c-2.3,0-4.7,0-7,0
		c0,0.2,0,0.4,0,0.6C253,150,255,150.7,257.3,151.6z M124.6,261.5c-0.2,2.5-0.4,4.9-0.5,7.3c0.2,0,0.4,0.1,0.5,0.1
		c1-2.2,2.1-4.5,3.1-6.7c2.9,0,5.7,0,8.4,0c0.1-0.1,0.1-0.3,0.2-0.4c-2.5-1-5-2-7.7-3.1c0-2.2,0-4.2,0-6.3c-0.2,0-0.4-0.1-0.5-0.1
		c-0.9,2-1.9,3.9-2.8,6c-2.6,0-5,0-7.3,0c0,0.1,0,0.3,0,0.4C120.1,259.6,122.2,260.5,124.6,261.5z M412.5,207.6
		c0-0.2,0.1-0.4,0.1-0.5c-2.3-0.9-4.6-1.7-7-2.6c0-2.4,0-4.6,0-6.8c-0.2,0-0.4-0.1-0.5-0.1c-0.9,2.1-1.9,4.2-2.8,6.4
		c-2.7,0-5.2,0-7.8,0c0,0.1-0.1,0.3-0.1,0.4c2.4,0.9,4.8,1.9,7.3,2.9c-0.2,2.6-0.3,4.9-0.4,7.3c0.2,0.1,0.3,0.1,0.5,0.2
		c1-2.3,2.1-4.7,3.1-7.1C407.6,207.6,410.1,207.6,412.5,207.6z M463.6,199.7c-2.3,0-4.7,0-7.1,0c0,0.2,0,0.4-0.1,0.6
		c2.2,0.8,4.3,1.6,6.5,2.5c-0.1,2.5-0.2,4.7-0.3,6.9c0.2,0,0.4,0.1,0.6,0.1c0.9-2.1,1.9-4.3,2.9-6.5c2.7,0,5.2,0,7.7,0
		c0-0.1,0.1-0.3,0.1-0.4c-2.4-0.9-4.8-1.9-7.1-2.8c0-2.4,0-4.4,0-6.5c-0.2-0.1-0.3-0.1-0.5-0.2C465.5,195.4,464.6,197.4,463.6,199.7
		z M414,181.5c0.1,0.1,0.3,0.1,0.4,0.2c0.9-2.1,1.9-4.3,2.9-6.6c3.1-0.2,5.2,0.6,8.5-0.3c-3-1.1-5.3-2-7.8-2.9c0-2.4,0-4.6,0-6.8
		c-0.2,0-0.3-0.1-0.5-0.1c-0.9,2.1-1.8,4.3-2.9,6.7c-2.1,0-4.3,0-6.4,0c0,0.2,0,0.4-0.1,0.6c1.9,0.7,3.8,1.5,5.7,2.2
		C414,177,414,179.3,414,181.5z M408.7,60.1c2.6,0.1,5.1,0.2,7.6,0.3c0.1-0.2,0.1-0.3,0.2-0.5c-2.4-1-4.8-1.9-7-2.8
		c0-2.3,0-4.3,0-7.1c-1.3,2.8-2.2,4.8-3.2,6.8c-2.3,0-4.3,0-6.4,0c0,0.2-0.1,0.3-0.1,0.5c2,0.8,4,1.7,6.1,2.6c0,2,0,3.7,0,5.5
		c0.2,0,0.3,0.1,0.5,0.1C407,63.9,407.7,62.3,408.7,60.1z M332.2,118.6c-0.2,0-0.4-0.1-0.6-0.1c-2.6,6.7-2.3,5.5-9.1,5.5
		c0,0.2-0.1,0.3-0.1,0.5c2,0.8,4,1.6,6.2,2.5c0,2.2,0,4.1,0,6.1c0.1,0,0.3,0,0.4,0.1c0.8-1.9,1.7-3.8,2.6-5.8c2.6,0,5,0,7.4,0
		c0-0.1,0.1-0.3,0.1-0.4c-2.2-0.8-4.4-1.7-6.8-2.6C332.2,122.4,332.2,120.5,332.2,118.6z M385.4,157.9c0-0.2,0-0.5,0.1-0.7
		c-2.1-0.8-4.1-1.6-6.2-2.4c0-2.1,0-3.9,0-5.7c-0.2-0.1-0.3-0.1-0.5-0.2c-0.8,1.7-1.6,3.5-2.5,5.5c-2.1,0-4.2,0-6.4,0
		c0,0.2,0,0.3-0.1,0.5c1.9,0.8,3.8,1.6,5.8,2.4c0,2.1,0,4.1,0,6c0.1,0,0.3,0.1,0.4,0.1c0.8-1.9,1.7-3.7,2.6-5.8
		C380.9,157.7,383.1,157.8,385.4,157.9z M222.7,192.8c0,0.1-0.1,0.3-0.1,0.4c2,0.8,4.1,1.7,6.1,2.5c0,2.1,0,4,0,6.8
		c2.3-6.4,2.9-6.5,9.2-6.2c0.2,0,0.3-0.2,0.7-0.6c-2.2-0.9-4.2-1.7-6.3-2.6c0-2,0-3.8,0-5.6c-0.2,0-0.3-0.1-0.5-0.1
		c-0.8,1.8-1.5,3.5-2.4,5.4C227.1,192.8,224.9,192.8,222.7,192.8z M323.6,54.1c0-0.2,0.1-0.4,0.1-0.6c-2.2-0.9-4.3-1.7-6.4-2.6
		c-0.1-1.9-0.2-3.5-0.3-5.1c-0.2,0-0.4,0-0.5,0c-0.7,1.5-1.4,3.1-2.2,4.8c-2.1,0-4.2,0-6.3,0.1c0,0.2,0,0.3,0,0.5
		c1.8,0.7,3.7,1.4,5.6,2.2c0,2.1,0,4.1,0,6.1c0.1,0,0.3,0,0.4,0.1c0.8-1.9,1.7-3.8,2.6-5.8C319.2,53.9,321.4,54,323.6,54.1z
		 M232.8,80.7c0-0.2,0.1-0.3,0.1-0.5c-1.8-0.7-3.6-1.4-5.5-2.2c0-1.9,0-3.7,0-5.5c-0.2-0.1-0.4-0.1-0.5-0.2
		c-0.8,1.7-1.6,3.4-2.5,5.3c-2,0-3.9,0-5.9,0.2c0,0.2,0,0.3,0,0.5c1.7,0.7,3.4,1.3,5.3,2.1c0,1.9,0,3.7,0,5.6c0.2,0,0.3,0,0.5,0
		c0.8-1.8,1.6-3.5,2.5-5.4C229,80.7,230.9,80.7,232.8,80.7z M314.1,92c0,2,0,3.6,0,5.3c0.1,0,0.3,0,0.4,0c0.8-1.6,1.5-3.3,2.3-5
		c2.4,0,4.6,0,6.7,0c0-0.1,0.1-0.3,0.1-0.4c-2-0.8-4.1-1.6-6.2-2.5c0-2,0-3.9,0-6.7c-1.3,2.7-2.2,4.6-3.1,6.6c-2,0-3.8,0-5.7,0
		c0,0.2,0,0.3,0,0.5C310.3,90.5,312,91.2,314.1,92z M281.5,188.7c0.1,0.1,0.3,0.2,0.4,0.3c0.9-1.9,1.8-3.7,2.7-5.6
		c2.3,0,4.4,0,6.5,0c0.1-0.1,0.1-0.3,0.2-0.4c-2-0.8-4-1.7-6.1-2.6c0-1.8,0-3.4,0-5.1c-0.2,0-0.3-0.1-0.5-0.1
		c-0.7,1.6-1.5,3.3-2.3,5.1c-2,0-4,0-5.9,0c0,0.1,0,0.3,0,0.4c1.8,0.7,3.6,1.4,5.5,2.2C281.7,185,281.6,186.9,281.5,188.7z
		 M432.8,51.8c-1.9,0.1-3.7,0.2-5.4,0.3c0,0.1-0.1,0.3-0.1,0.4c1.6,0.7,3.2,1.4,4.9,2.2c0,2,0,3.8,0,6.5c1.2-2.6,2-4.3,2.9-6.2
		c2.2,0,4.2,0,6.2,0c0-0.2,0.1-0.3,0.1-0.5c-1.9-0.8-3.8-1.6-5.9-2.4c0-1.8,0-3.6,0-5.3c-0.2,0-0.3,0-0.5-0.1
		C434.3,48.4,433.6,50.1,432.8,51.8z M435.1,124.4c2.1,0,4.1,0,6,0c0-0.1,0-0.3,0-0.4c-1.8-0.8-3.5-1.5-5.4-2.3c0-1.9,0-3.6,0-6.2
		c-1.2,2.5-1.9,4.1-2.7,5.8c-1.9,0.1-3.7,0.2-6.3,0.3c2.4,1.1,4,1.9,5.6,2.6c0,2,0,3.7,0,6.3C433.5,128.1,434.2,126.5,435.1,124.4z
		 M391.6,121.3c0.1,0,0.3,0.1,0.4,0.1c0.9-1.7,1.8-3.4,2.7-5c2.3,0,4.4,0,7.2,0c-2.6-1.2-4.5-2-6.6-2.9c0-1.6,0-3.1,0-4.6
		c-0.2,0-0.3-0.1-0.5-0.1c-0.8,1.4-1.6,2.9-2.3,4.2c-2.1,0-3.9,0-6.6,0c2.5,1.2,4.2,2,6,2.9C391.9,117.7,391.7,119.5,391.6,121.3z
		 M113.3,126.6c0.1,1.6,0.3,3.3,0.5,5.7c1-2.3,1.7-3.8,2.5-5.6c2,0,4,0,5.9,0c0-0.2,0-0.3,0-0.5c-1.8-0.6-3.7-1.3-5.5-1.9
		c-0.2-1.7-0.4-3.3-0.5-4.8c-0.2,0-0.4,0-0.5,0c-0.6,1.4-1.1,2.9-1.7,4.4c-1.9,0.1-3.7,0.3-5.4,0.4c0,0.2-0.1,0.3-0.1,0.5
		C110,125.3,111.5,125.9,113.3,126.6z M319.3,189.5c0.2,0.1,0.4,0.2,0.5,0.3c0.7-1.7,1.5-3.3,2.3-5.2c2,0,3.9,0,5.8-0.2
		c0-0.2,0-0.3,0-0.5c-1.7-0.7-3.4-1.3-5.1-2c-0.1-1.8-0.2-3.4-0.4-6c-1.1,2.4-1.8,3.9-2.6,5.7c-1.9,0-3.7,0-5.5,0c0,0.2,0,0.3,0,0.5
		c1.7,0.7,3.3,1.4,5,2.1C319.3,186.1,319.3,187.8,319.3,189.5z M255.3,67.5c0,1.8,0,3.7,0,6.6c1.2-2.5,2-4.2,3-6.2
		c1.9,0,3.8,0,5.7,0c0-0.2,0.1-0.3,0.1-0.5c-1.8-0.7-3.5-1.5-5.2-2.2c-0.1-1.8-0.2-3.3-0.3-4.9c-0.2,0-0.3,0-0.5,0
		c-0.7,1.5-1.4,3-2.2,4.7c-1.9,0-3.6,0-5.3,0c0,0.2-0.1,0.3-0.1,0.5C251.9,66.1,253.5,66.8,255.3,67.5z M452.7,144.8
		c-2.1,0-3.9,0-6.7,0c2.6,1.2,4.3,2,6.1,2.8c0,1.8,0,3.3,0,4.8c0.2,0,0.3,0.1,0.5,0.1c0.7-1.5,1.5-3,2.2-4.5c2.2,0,4.2,0,6.3,0
		c0-0.1,0.1-0.3,0.1-0.4c-2-0.9-4-1.7-5.9-2.5c0-1.9,0-3.5,0-5c-0.1,0-0.3-0.1-0.4-0.1C454.3,141.5,453.5,143,452.7,144.8z
		 M198.9,130.2c0,0.2-0.1,0.4-0.1,0.6c1.4,0.6,2.8,1.2,4.4,1.9c0,1.8,0,3.6,0,6.3c1.2-2.5,2-4.1,2.8-5.9c2.1,0,4.2,0,6.2,0
		c0-0.1,0.1-0.3,0.1-0.4c-1.9-0.8-3.8-1.6-5.8-2.5c0-1.8,0-3.4,0-5c-0.2,0-0.3,0-0.5,0c-0.8,1.6-1.5,3.3-2.2,4.8
		C201.9,130,200.4,130.1,198.9,130.2z M475.5,147.5c-1.2,2.4-2.1,4.1-3,5.9c-1.8,0-3.4,0-5.1,0c0,0.2-0.1,0.3-0.1,0.5
		c1.5,0.7,3,1.4,4.7,2.1c0,1.7,0,3.4,0,5c0.2,0,0.3,0.1,0.5,0.1c0.7-1.5,1.4-3,2.2-4.7c2,0,3.9,0,5.8,0c0-0.2,0.1-0.4,0.1-0.5
		c-1.7-0.8-3.5-1.5-5.2-2.3C475.5,151.8,475.5,150.1,475.5,147.5z M409.1,82.2c0-1.9,0-3.4,0-5.7c-1.1,2.2-1.9,3.7-2.6,5.2
		c-1.9,0-3.5,0-5.2,0c0,0.1-0.1,0.3-0.1,0.4c1.5,0.7,3,1.4,4.7,2.3c0,1.5,0,3.1,0,5.6c1.1-2.2,1.9-3.6,2.7-5.2
		c2.1,0.1,4.2,0.3,6.2,0.4c0-0.1,0.1-0.3,0.1-0.4C413.1,84,411.2,83.1,409.1,82.2z M339.5,156.5c-1.9,0.1-3.5,0.2-6,0.3
		c2.3,1,3.8,1.7,5.5,2.5c0,1.7,0,3.3,0,5.6c1.1-2.3,1.8-3.8,2.7-5.4c1.9,0,3.6,0,5.3,0c0-0.2,0.1-0.3,0.1-0.5
		c-1.6-0.7-3.3-1.4-4.9-2.1c-0.2-1.5-0.3-2.8-0.6-5C340.7,153.8,340.2,155,339.5,156.5z M353.4,52.3c0-1.6,0-3.1,0-4.5
		c-0.1,0-0.3,0-0.4,0c-0.6,1.4-1.3,2.8-1.9,4.3c-1.9,0-3.6,0-5.2,0c0,0.2-0.1,0.3-0.1,0.5c1.6,0.7,3.2,1.5,4.9,2.2
		c0,1.7,0,3.2,0,5.6c1.1-2.2,1.8-3.7,2.5-5.3c1.9,0,3.6,0,5.2,0c0-0.2,0.1-0.3,0.1-0.5C356.9,53.9,355.4,53.2,353.4,52.3z
		 M191.8,140c-0.1,0.2-0.1,0.4-0.2,0.6c1.4,0.6,2.8,1.3,4.2,1.9c0,1.5,0,2.8,0,5c1-2,1.7-3.2,2.4-4.6c1.7-0.1,3.3-0.1,5.6-0.3
		c-2.1-1-3.6-1.7-5.2-2.5c0-1.4,0-2.6,0-4.8c-1,2-1.7,3.3-2.3,4.6C194.7,140,193.2,140,191.8,140z M110.1,214.2c1.8,0,3.5,0,6.2,0
		c-2.5-1.1-4.1-1.8-5.6-2.5c0-1.7,0-3.1,0-5.2c-1.1,2.1-1.9,3.6-2.6,5c-1.8,0-3.4,0-5.8,0c2.3,1,3.8,1.7,5.4,2.5
		c-0.1,1.7-0.2,3.2-0.3,4.8c0.1,0,0.3,0.1,0.4,0.1C108.5,217.3,109.2,215.9,110.1,214.2z M79.1,238.4c-1.9,0-3.5,0-5.9,0
		c2.2,1.1,3.7,1.8,5.3,2.6c0,1.6,0,3.1,0,5.3c1.1-2.1,1.7-3.5,2.4-4.9c1.7-0.1,3.3-0.2,5.8-0.3c-2.2-1-3.6-1.7-5.1-2.3
		c-0.1-1.4-0.2-2.6-0.3-4.9C80.4,235.9,79.9,237,79.1,238.4z M175.8,177.2c-0.2,0-0.4,0-0.7,0c-0.5,1-1.1,2.1-1.6,3.1
		c-1.6,0.1-3.1,0.2-4.6,0.3c0,0.2,0,0.3-0.1,0.5c1.3,0.5,2.6,1.1,3.9,1.7c0,1.7,0,3.3,0,5.5c1.1-2,1.9-3.5,2.7-4.9
		c1.9,0,3.7,0,6.3,0c-2.4-1.1-4.1-1.8-5.8-2.6C175.9,179.5,175.9,178.3,175.8,177.2z M494.9,180.6c0.1-0.2,0.1-0.4,0.2-0.6
		c-1.3-0.6-2.6-1.2-3.8-1.8c-0.1-1.7-0.2-3.2-0.2-4.7c-0.2,0-0.3-0.1-0.5-0.1c-0.7,1.5-1.4,3-2.1,4.4c-1.5,0.2-2.8,0.3-4.9,0.6
		c2,0.9,3.2,1.4,4.5,2c0,1.6,0,3.1,0,5.5c1.2-2.2,2-3.7,2.8-5.2C492.3,180.6,493.6,180.6,494.9,180.6z M143,88.1
		c-0.3-1.4-0.6-2.7-1-4.7c-0.8,2-1.3,3.1-1.8,4.4c-1.7,0.1-3.2,0.2-5.7,0.4c2.3,1,3.8,1.7,5.2,2.3c0.1,1.6,0.2,3,0.3,5.3
		c1.1-2.3,1.8-3.8,2.4-5.2c1.8-0.2,3.4-0.3,5-0.4c0-0.2,0-0.3,0-0.5C145.9,89.1,144.4,88.6,143,88.1z M263.8,58.5
		c0,0.1-0.1,0.3-0.1,0.4c1.2,0.6,2.5,1.2,3.7,1.8c0.1,1.3,0.2,2.6,0.3,4.3c1-1.7,1.7-2.9,2.4-4.2c1.5,0,2.9,0,5.3,0
		c-2.3-1-3.6-1.6-5.2-2.3c0-1.3,0-2.6,0-4.6c-1.1,2-1.7,3.2-2.4,4.5C266.4,58.5,265.1,58.5,263.8,58.5z M202.5,96.1
		c1.4-0.2,2.4-0.3,4.1-0.5c-1.6-0.8-2.7-1.3-3.6-1.8c-0.1-1.2-0.2-2.2-0.4-3.9c-0.8,1.5-1.4,2.5-1.9,3.6c-1.3,0.1-2.5,0.2-4.5,0.4
		c1.9,0.9,3,1.4,4,1.8c0.1,1.1,0.3,2.1,0.4,3.7C201.4,98,201.9,97.1,202.5,96.1z M196.7,54.6c0.9,1.3,2,2.8,2.7,3.8
		c1.4-0.9,3-2,4.5-2.9c-0.9-1.1-2.2-2.5-3.3-3.7C199.4,52.6,198,53.7,196.7,54.6z M261.8,29.1c-0.8-1-1.9-2.2-2.8-3.3
		c-1,0.7-2.3,1.7-3.3,2.4c0.8,1.2,1.6,2.5,2.2,3.5C259.1,30.9,260.5,29.9,261.8,29.1z"/>
	<path class="st0" d="M543.9,963.1c26.7-48,18.6-95.6-13.7-138.5c-1.8-2.5-2.8-4.9-3-8c-0.4-6.7-3.1-12.6-6.7-18.1
		c-9.6-14.7-25.1-22.9-41.3-28.4c-34.3-25.9-71.6-47-110-66.5c-40.7-20.3-85.3-32-130.1-39.2c-4.9-0.5-9.5-1.7-14.1-4
		c-11.1-5.5-23-8.4-35.4-8.5c-12.1-0.1-23.5,2.5-33.6,9.5c-20.6,4.5-42.1,6-61.7,15c-17.2,7.7-34.9,16.6-46.7,31.7
		c-7.4,8.9-13.4,18.8-19.2,28.9c-4.7,9.4-11.8-0.4-15.4-5.4c-3.6-6.4-13-12.2-6.9-19.8c123.4-188,528.3-42.1,579.5,151.5
		c6.6,29.9-1.1,60.2-6.5,89.6c-0.9,4.7-2.8,10.4-8.3,10.8C562.8,963.9,550.4,968.4,543.9,963.1z"/>
	<path class="st0" d="M154,318.4c29.8,1.3,61.6,9,89.1-5.5c3.2-1.9,5.6-5.3,8.2-7.9c6.3-5,13.3-8.8,21.1-11
		c5.4-1.5,10.9-0.7,16.2,0.1c8.5,1.6,17.6,2.6,25.4,6.5c11.4,6.8,23.6,8.4,36.5,6.8c32.2-3.5,64.5-6.6,95.5-16.8
		c3.1,40.6-20.1,73.9-52.6,96.2c-18.3,12.8-41.6,15.5-63.2,18.8C249,420.1,171.9,414.1,154,318.4z M259.6,328.4c1.7,2.6,2,3,4.7,3.7
		c13.5,3.5,27.6,3.4,40.8-1.4c10.8-3.2,8.8-15.4,9.6-24.3c0.6-3.8-2.6-4-5-1.9c-2.1,2.1-2.9,5.4-3.7,8.2
		C301.6,329.8,273.9,331.5,259.6,328.4z M343.7,344.5c-7-1.1-14-1.3-21-0.7c-22.3,2.8-42.7,5.8-59.7,22c12-5.2,22.7-12.9,36.4-14.2
		c12.9-2.7,25.7-6.3,39-5C340.1,346.6,342.1,347,343.7,344.5z M315.3,364.6c-7.5-1.1-16,7.5-25,7.7c-2.2,0.3-4.2,1.5-5.6,3.3
		C291.6,375.4,316.8,374.1,315.3,364.6z"/>
	<path class="st0" d="M219.2,751.8c-26.1-2.5-47.2-13.8-59.8-38.5c-12.8-24.7,6.1-49.7,32.9-48.4c31.2,0.4,64.1,22.8,65.3,55.8
		C257.5,741,238.1,751.8,219.2,751.8z"/>
	<path class="st0" d="M466.1,853.2c-18.1-0.3-33.1-4.5-46.1-14.7c-24.3-18.1-18.2-49.4,10.6-58c34.3-15.1,106.2,17.6,72.5,58.9
		C493.9,849.1,478.5,852.7,466.1,853.2z"/>
	<path class="st0" d="M347.2,566.9c14.4-3.6,28.2-9.2,41.8-15.4c6.2-2.6,9.7-7.2,13.1-12.8c2.1,5.7,3.6,10.9,7.4,15.7
		c21.9,35.4,50.2,66.7,66.9,105.1c3.1,5.6,10.3,33.6,5.5,37.2c-1.9,0.8-3.4-1-4.7-2.2c-12.6-13.6-23.7-28.5-39.7-38.3
		c-2.1-1.4-3.4-3.2-4.5-5.4c-10.8-20.8-21.9-41.3-32.6-62.1c-7.1-10.4-40.8-17.4-53.2-21.2C347.1,567.3,347.2,567.1,347.2,566.9z"/>
	<path class="st0" d="M269.3,476.6c-6.2-4.1-12.5-9.6-20.4-7.3c-32.1,6.8-63.8,15.3-95.4,24.4c-9.2,1.8-22,12-30.3,4.3
		c0.8-1.8,2.3-2.2,3.9-2.1c18.5-0.2,17.6-29.9,3.5-38c4.9-3.3,10.5-3.6,16-5.4c30.9-7.3,61.2-14.5,91.8-23.7
		c13.8,13.6,24.4,29.1,31.4,47.1C269.7,476.2,269.5,476.4,269.3,476.6z"/>
	<path class="st0" d="M270.3,497.7c12.8,38,113.4,37.8,123.6-3.3c1.6,10.4,1.1,21.7,4.1,32.1c2.4,8-1.9,16.4-9.2,20
		c-22.5,9.9-47.7,23.3-72.7,14.1c-9.9-3.8-20.1-6.9-30.6-8.9c-7.5-1.7-21.7-7.8-22-16.5c0.6-12.7,5.4-24.9,5.9-37.5
		C269.8,497.8,270.1,497.7,270.3,497.7z M368.2,527.4c-18.7,11.2-38.3,9.7-58.8,4C331.2,544.9,354.7,542,368.2,527.4z"/>
	<path class="st0" d="M298.7,573.5c4.7,0.6,8.9,1,13.1,1.7c15.6,3,19.6-9.3,28.9-5.4c17.9,5.4,36.4,9.3,53.1,18
		c1.2,0.5,2.3,1.9,2.9,3.1c9.4,19.2,21.2,37.3,29.4,57c-4.6-2.7-9-6-13.6-8.6c-5.5-3.1-9.9-0.9-10.7,5.3c-1,8.4-1.8,16.3-2.6,24.9
		c-4.5-2.3-9.3-2.9-11.9-8c-11.6-22.2-29.5-39.8-47-57.2c7.2-4.4,13.3-9.9,18.4-16.5c-5.8,3-11,7.1-16.6,10.5
		c-2.5,1.6-4.8,2.7-8,0.9c-2.3-1.2-5.5-1-8.2-0.7c-1.6,0.1-2.6,0-3.4-1.1C315.7,587.9,304.6,583.8,298.7,573.5z M349.6,601
		c6.4,0.5,18.2-6.4,23.4-13.7C363.8,590.1,356.7,595,349.6,601z"/>
	<path class="st0" d="M395.7,390.9c7.5,6.1,7.5,6.1,15,2.8c5.6,7,10.2,14.7,14.2,23.3c2-3.3,5.1-3.6,7.9-4.8
		c7.7-3.3,15.3-6.7,22.7-10.7c5.2,6.9,1.2,16.6,12.6,17.9c3.9,0.1,4.7,3.9,7.1,6.2c3.6,4.8,8.5,5.4,14.2,4.8c-1.2,2.3-3.1,3.5-5,4
		c-5.9,1.4-11.8,3.1-17.9,3.6c-17.5,0.4-31,14.2-48.8,13.4c-6.5,0.3-11.2-4.4-15.9-8.1c-4.6-3.9-7.5-9-8.8-14.8
		C391.3,422.3,388.3,392.4,395.7,390.9z"/>
	<path class="st0" d="M320,601.4c-11,5.1-22.4,3.9-33.8,3.4c-2.9-6.5-5.3-18.9-14.3-11.4c-2.2-1.3-3.7-3-6.4-3.4
		c10.5,9.8,2,11.8-8,11.8c-12.8,0-23.2-7.9-34-13.6c-5.3-3.3-1.5-12.1,1.4-16c18.6-24,48.5-9.6,70.9-0.2c1.4,0.5,2.2,1.3,2.6,2.7
		c1.9,5.7,5.4,10.3,9.9,14.2C312.6,592.6,316.7,596.4,320,601.4z"/>
	<path class="st0" d="M94.3,455.9c-4.3-5.7-8.2-11.7-14-16.2c-3.5-2.9-9.3-9.7-4.6-13.6c2.9-3,6.9,1.3,9.4,3.4
		c5.9,5.9,13,10,20,14.4c9.4,5.6,17.6,12.8,26,19.8c4.7,3.6,7.6,15,4.6,21.8c-1.8,4-4.1,5.7-8.1,5.6c2-2.4,3.9-4.8,5.9-7.1
		c-0.2-0.2-0.5-0.5-0.7-0.7c-4.8,3.7-11,5.6-14.5,11.2c-1.5,2.4-6.4,4.1-8.1,3c-4.1-3.5,0.2-9.7,0.3-13.8c-4.2-3.1-5.6-4.6-8.8-8.9
		c-1.1,6.5,6,9.5,2.5,14.1c-6.5-3-12-7.6-17.5-12.1c-1.5-1.3-2.7-1.7-4.6-0.7c-4.3,2.2-8.8,3.8-13.6,4.3c-5.2,1.6-14.9-4.9-7-8.6
		c7-1.5,12.6-12.9,19.6-7.6c0.6,0.4,1.4,0.6,2.7,1.2c-4-7.8-12.1-8.6-18.7-12.7c-6.6-2.9-13.4-16.7-0.6-12.8
		c16.6,5,16.2,5.3,29,16.7C93.7,456.5,94,456.2,94.3,455.9z"/>
	<path class="st0" d="M381.8,661.8c-26.3-10.8-53.2-20.1-80.7-27c-2.7-0.7-4.3-1.9-5.3-4.6c-2.4-7.2-5.8-13.6-7.8-20.9
		c12.7,0,25.7,1.1,37.1-5.5c4.1-2.1,6.9-1.5,10.3,1.6c17.9,16.5,34.5,34.9,47.1,55.8C382.2,661.5,382,661.7,381.8,661.8z"/>
	<path class="st0" d="M327,568.2c-23.5,11.8-48.3-13.2-72.5-13.3c-23.2-2.5-39.3,15.1-55.1,29c-7.4,7.2-14.1,15.2-21.2,22.7
		c-3.8,4.1-7.7,8.1-11.3,12.4c-2.1,2.5-4.3,4-7.7,4c-2.8,0-5.5,0.6-8.8,0.9c12.5-21.9,28.9-41.4,49.6-56.2
		c15.4-10.4,30.7-24.5,50.6-22.1c5.4,0.5,6.7-1.7,9.2-5.7c5.7,8.5,13.9,13.3,23.4,15.5C298.3,558.6,312,564.3,327,568.2z"/>
	<path class="st0" d="M201.6,247c-6.1,10.8-4.3,24.7,5,32.8c20.2,15.4,35-12.4,25-29.8c11.3-1.6,8,20,9.6,27.2c0.6,7-7.9,7.3-12.9,8
		c-13.2,0.8-26.2,3.2-38.1,9.1c-5.5,3.3-7.9-2-9.6-6.5c-4.6-11.6-9.9-23.3-8.8-36.1c0.4-6.4,2.5-8.4,9-8.5
		C187.9,243.4,194.1,245.6,201.6,247z"/>
	<path class="st0" d="M473.8,416.4c0.9-2.7,2.2-3.8,4.6-3.6c2.6,0.2,5-1.6,7.8-0.4c1.9-0.5,4.4-4.5,0.1-4.4
		c-3.8,0-15.1,0.6-15.6,5.3c0.8,0,1.5-0.1,2.2-0.1c-0.1,0.4,0,0.8-0.1,0.9c-4.6,3.9-12.1-1.2-8.5-6.5c3.6-6.6,10.6-7.7,16.7-11.4
		c-5.5-1.3-14.6,2.1-19.1,6.8c-2.3-2.6-2.2-3.1-1.1-5.8c2.7-8.6,11.7-10.1,18.1-15c-4.1-0.2-7.6,1.4-11.4,2.4
		c-4.1,1.1-6.6,4.2-9.6,7.8c-0.3-2.3-0.5-3.7-0.7-5.4c-4.5-1.1-7.4-2.6-5.3-7.6c1.5-4.4,6.2-6.5,11.3-4.8c-2.5,2.7-5.1,5.4-4.4,10
		c5-7,12.5-9.4,19.5-12.5c14.6-4.4,18.6,18.6,20.8,28.9c0.8,6-0.7,11.9-2.4,17.7c-1.4,4.5-7.2,8.3-11.9,7.8
		C479.4,425.7,476.4,420.5,473.8,416.4z"/>
	<path class="st0" d="M369.4,462.7c1.6,41.3-49.9,58.6-56,12.2C310.3,433.1,364.2,414.4,369.4,462.7z M327.6,464.6
		c-1.9,22,20.1,38.5,34.2,19.8c6.8-11.8,7.5-24.3,0.7-36.5c-3.1-5.6-8-9.2-14.3-10.6C334.6,434.3,327.9,455.5,327.6,464.6z"/>
	<path class="st0" d="M442.4,337.1c5.6-14.1,7.8-28,8.1-42.4c12.6-6.4,13.5-24.8,18.2-36.8c1.9-0.7,3.7-1.4,5.8-2.2
		c7.5,8.4,1.3,40.8-4.7,50.2C462.4,317.5,458.2,334.9,442.4,337.1z"/>
	<path class="st0" d="M215.5,248c3.2,0.7,6.5,1.1,9.7,2.1c12.4,7.9,8.6,30.7-6.8,31.7C198,283.2,194,248.9,215.5,248z M220.5,251.9
		c-17.4-9.3-18.3,23.1-2.5,21.7c4.5-0.7,7.8-5.1,7.9-10.6C226.5,255.9,219.5,261,220.5,251.9z"/>
	<path class="st0" d="M366.6,250.9c9.6,3.7,18.6,7.3,27.9,10.9c-1.7,4.8-1.3,12.4-8,12.3c-8.6-1-16.6-4-25.5-5.9
		C364.9,263.4,367,257.8,366.6,250.9z"/>
	<path class="st0" d="M330.7,254.5c2.6-0.1,4.1,0.5,5.2,2.9c7,15.8,27.2,2.3,20.1-10.1c-5.5,1.1-7.4-0.3-6.2-4.8
		c3.6,1.3,6.7,3.8,10.2,5.1c6.9,2.5,3.2,10.4,1.6,15.2c-1.8,3.9-4.5,6.6-9.5,6.2c-4.1-0.3-8.2,0.5-12.3,0.6
		C333,269.1,330.4,260.5,330.7,254.5z"/>
	<path class="st0" d="M318,251.2c2.9,0.7,5.6,1.3,8.5,2c0.4,6.4,2.5,12,7.5,17c-4.9,0.6-8.9,3-12.7-0.3
		C318.3,266.8,316.3,256,318,251.2z"/>
	<path class="st0" d="M35.8,669.5c-6,6.3-11.5,12.1-17.2,18.2c-0.8-3.5-1.6-6.6-2.4-10.2C21.8,673.6,26.8,667.8,35.8,669.5z"/>
	<path class="st0" d="M211,619.8c2.6-1.5,5.2-2.9,8.1-4.6c1.5,2,2.9,3.7,4.9,6.3c-4.9-0.3-8.9-0.5-12.8-0.7
		C211.1,620.5,211.1,620.2,211,619.8z"/>
	<path class="st0" d="M475.3,108.1c0.3-3.5,0-5.1,1.6-8.6c1.7,4,4.1,7.2,6.4,11.5C480.1,110.5,477.8,109.3,475.3,108.1z"/>
	<path class="st0" d="M396.7,243.1c-2.7-2.8-5-5.2-7.5-7.9C393.8,234.9,396.3,237.4,396.7,243.1z"/>
	<path class="st0" d="M531.6,158.7c0.5,2.4,0.9,4.2,1.3,6.2C530,164,529.9,163.5,531.6,158.7z"/>
</g>
</svg>
