<?xml version="1.0" encoding="utf-8"?>
<!-- Generator: Adobe Illustrator 26.0.0, SVG Export Plug-In . SVG Version: 6.00 Build 0)  -->
<svg version="1.1" id="Capa_1" xmlns="http://www.w3.org/2000/svg" xmlns:xlink="http://www.w3.org/1999/xlink" x="0px" y="0px"
	 viewBox="0 0 595.3 1065.7" style="enable-background:new 0 0 595.3 1065.7;" xml:space="preserve">
<style type="text/css">
	.st0{fill:#FFFFFF;}
</style>
<g>
	<path d="M260.7,577.8c-23.7-11.7-46.1-26.6-57.5-51.2c-2-3.8-4.6-6-8.7-7.5c-6.4-1.4-17.8-9.8-23-8.3c-1.6,0.5-3.9,0.1-5.5-0.6
		c-11.4-5.5-23.8-9.7-34.5-16.4c-1.5-1.6-3.4-2.1-5.3-1.9c-19.1,1.8-37.7-6.7-56.7-2.2c-8.5,1.9-17.8,1.1-24.1-5.5
		c-10.8-10.6,3.9-28,15.6-27.5c8.3-0.4,16.8-0.5,23.9-5.5c-2.4-5.8-5.6-9.5-12.7-8.7c-9.9,0.9-19.9,0.6-29.9,0.6
		c-8.4,0-13.4-3.7-15.3-10.9c-1.2-4.7,0-8.9,3.4-12.2c4.7-3.1,10.4-2.5,16.3-3.9c-6.3-5.5-14.2-8.8-19.2-15.6
		c-8.4-9.7,0.5-27.8,14.2-22.7c22.3-19.2,17.2,1.5,41,19.6c5,4.2,10.1,8.8,16.7,10.7c18.2,9,36.3,18.5,53.2,29.9
		c1.9,1.3,3.7,2.2,6.1,2c5.4,0.8,10.1,3,15.8,4.5c-2-42-12.4-83-15.2-125c-2.1-26.5-2.4-53.1-4.9-79.6c-0.2-4.1,1.1-7.4,5.3-8.7
		c36.7-118.8,156.5-196.8,273-227.1c22.6-5.9,64-10.3,65.2,22.5c0.4,11,1.3,21.9,4,32.7c3,12,8.2,22.7,16.8,31.9
		c23.5,26.2,42,56.8,57.2,88.4c16.2,37,14.3,78.8,17.6,118.3c6.8,78.4-10.7,159.3-64,219.3c-24.6,30.7-61.3,45.7-95.9,62.4
		c-2.2,1-3.4,2.3-3.5,4.6c1.9,42.1,0.4,57.3-18,96.2c-12.9,24.3-11.5,52.3-20.2,77.8c-6.9,18.1-15.1,35.5-26.1,51.6
		c-3.6,8.2-8.1,16.1-13.1,23.6c-2.7,4.4-4.6,9.5-11.8,10.3c16,11.4,33.4,19.4,49.2,31.1c28,21.1,61.6,31.8,96.1,36
		c19.7,2.6,40,5.6,59.8,4.7c22.7-7.2,45,13.5,47.9,35.4c4,25.4-2.1,50.7-8.2,75.2c-10.7,42.7-50.1,44.7-86.2,34
		c-5.6-4.7-12.8-3.4-19.2-5.5c-5.8-2.2-9.1-6.9-8.7-13.1c0.6-6.5,3-12.7,4.2-19.1c0.9-6.4,5.7-9.3,11.5-10.9c0.1,0,0.2-0.2,0.5-0.9
		c-92-12.5-135-39.8-202.4-100.5c-6.2-5.2-13.1-9.1-20.7-12.2c-11.7-3.9-21.7-10.8-32.4-16.8c-17.6-6.9-42.1-20.1-61-17.3
		c-14.5,3.5-28.7,8.3-42.7,13.2c3.7,25,10.6,50,24.4,71.7c0.3,0.5,0.7,1.1,1.1,1.3c3.4,1.4,4.5,4.5,5.5,7.7c3.5,8.1,5.9,17-0.4,24.4
		c-15.6,17.7-38,26.7-57,39.9c-19.4,12-43.6,13.7-65.9,13.4c-10.2-0.7-22.4-2.5-29.5-10.3c-6.1-8.5-10.8-20.9-1.6-29.2
		c1.7-1.6,2.9-3.2,3.8-5.3c3.5-9.1,12.2-13,20.7-16.2c10.4-4.7,16.6-15.4,14.2-26.6c-4.5-20.9-8.8-41.9-14.9-62.4
		c-8-22.9-12.4-49.6,8-67.6c26.9-23.5,73.6-26.4,107.4-37.9c14.7-5,32.4-4.8,43-17.7c-2.3-4.1-1.1-7.9,0.9-11.8
		c4.3-7.8,7-16.1,12.3-23.4c-13.1-4.8-26.2-9.1-39.3-13.9c-6.5-2.4-12.5-5-17.8-10.3c-14-13.4-20.3-32.4-18.4-51.4
		c1.5-11.9,1-24.8,7.7-35.3c5.8-15.7,2.8-34,11.8-48.8c1.9-3.9,5.1-6.9,9.3-8.6c6.6-5.1,5.4-14.6,16.3-20.9
		c3.8-2.4,7.8-3.4,12.3-1.5c7.9,1.2,12.3-0.6,18.4,6.7c2.2,2.6,2.6,5.5,1.5,8.8c-2.7,7.6-5.1,15.2-7.7,22.8c-3.4,10-4.8,20.5-6.2,31
		c0.4,15.3,10.5,29.6,7.7,45.3c-0.1,1.6-0.5,2.7,0.3,4.4c4.4-0.6,8.9-1.1,13.3-2c8-1.5,11.1,3.3,20.7,1.2
		C242.9,630.4,251.1,603.8,260.7,577.8z"/>
	<path class="st0" d="M414.7,581.6c-3.1-38.5,6.2-75.9,13.8-113.3c0.7-3.6,0.6-3.7-3.4-4.9c5.4-6,14.1-6,17.3-14.7
		c0.7-1.6,2.3-3.3,3.9-4.1c7.3-3.9,10.8-10.3,10.9-18.2c0.2-10.4-0.2-20.8-0.6-31.2c-0.1-2-0.6-4.3-1.6-6c-3.4-5.7-5.1-12-7.3-18.1
		c-5.5-13.3-15.2,0.4-25.7-28.6c4.6,0.4,12.9,3,10.3-4.4c-0.5-2.7-2.3-5.2-1.9-7.9c12.9-1.5,25.7,2,38.1,5c4.8,1.2,7.6,0.1,9.9-4.3
		c3.6-8.9,6.9-18,12.1-26.2c10.1-16.5-37.2-16.7-46.2-16.1c-6.4,0.4-12.7,1.3-19.1,2c-3.9-11.8-10.9-21.6-19.4-30.4
		c-30.7-34.9-74.8-61.8-122.6-59.2c-23,1.8-45.4,7.9-66.9,16.3c-9.5,3.3-16,9.8-21.6,17.9c-7.9-6.2-17-7.6-27.2-5.8
		C189.1,119.3,366.4,2.1,475,6.3c11.9,2.4,18,9.8,18.1,21.9c0.1,11.8,1.6,23.4,4.6,34.8c3.2,11.8,8.6,22.2,17.1,31.3
		c14.2,15.3,25.7,32.7,36.7,50.4c8.8,14.2,16.7,28.8,23.1,44.2c12.5,35.6,11.4,74.6,14.1,111.9c6.7,80.3-13,163.1-70.7,221.8
		C489.6,550.9,451.7,567.5,414.7,581.6z M458.9,270.9c-1-4.6-4.5-11.5-9.1-5.7C444.4,274.7,455.7,286.4,458.9,270.9z M316.8,179.1
		c0.1-7.3-10.8-7.2-10.9-0.1C305.8,186.2,316.8,186.4,316.8,179.1z M537.2,385.8c0-7.5-7.8-6.3-9.1-0.4
		C526.8,394,537,394.8,537.2,385.8z M297.2,108.8c2-1.4,4.1-2.3,5.5-3.8c1.6-1.8,0.4-4.5-2.1-4.4
		C295.3,100.8,289.6,105.5,297.2,108.8z M448.8,41.1c-2.6,1.4-4.4,2.6-1.7,5.1c2.2,1.3,5.8,3,7.6,0.1
		C455.1,43.1,451.2,42.4,448.8,41.1z M409.6,61.3c5.7-0.1,6.1-5.7,0-5.9C402.6,55.1,403,61.3,409.6,61.3z M435.8,91.2
		c-5.9,0.1-5.2,6.2,0.5,6C442.3,97.1,441.4,91,435.8,91.2z M519.1,164.2c0.8-4.8-6.6-9.3-7.4-3.8
		C511.4,163.7,517.5,167.6,519.1,164.2z M567,239c-0.4,5,4.8,6.6,5.4,1.1C573.1,234,567,233,567,239z M572.3,387.6
		c3-3.8,3.4-8.1,1.3-11.2C571.4,379.9,571.1,382.4,572.3,387.6z M553.1,441.2c3.4-3.3,3.8-4.7,2.1-7.7
		C552.9,435.5,552.1,437.7,553.1,441.2z M335.9,54.9c-3.2-0.3-5.1,0.2-6.2,3C332.3,58.3,334.1,57.6,335.9,54.9z"/>
	<path class="st0" d="M198.2,279.8c16.3,14.7,30,32.1,46.5,46.5c4.7,3.2,9.5,6.1,14.3,9.1c3.8,2.3,7.7,2,11.4-0.3
		c8.2-5.1-0.7-9,2-23.7c0.7-8.6-1-11.6-9-15.2c-11.4-4.6-20.7-12.8-28.9-21.9c-10.1-10.5-20.4-20.8-30.4-31.5
		c16-13.8,43.8-22.4,64.8-25.2c16-2.5,32.2-4.5,47.4,2c19.1,6.9,37.3,15.6,52.4,29.7c17,11.5,32.6,25.9,40.2,45.4
		c-13.8,6.4-28,12.4-41.2,20.3c-13.6,8.5-29.5,9.7-45.2,8.7c-6.3-0.1-9.4,2.2-9.8,8.7c-0.4,7.3-0.5,14.6-0.5,21.8
		c0,5.3,2.5,7.8,7.8,8.4c35.2,4.6,61.8-21.5,94.1-30.2c1.4,13.8,8.3,31.2,22.1,36.3c5.6,1.8,5.6,1.9,7.5,8.6
		c-10.8-1.6-21.5-2.2-32.3-3.3c-18-1.1-36.3-5.1-54.1-0.5c-7,1.6-11.4,6.4-12.1,13.3c-1,14.3-2.9,29.3,1.1,43.3
		c2.7,11.2,14.5,11.5,24,10.2c23.2-2.4,46.3-3.4,69.3,1.5c-2.3,5.8-5.3,10-10.8,12.3C404.5,459.4,405,561.3,403,585
		c-36.3,11.9-30.4-5.9-39.8-32.1c-4.2-9.5-11.4-13.3-21.8-12.8c-13.4,0.9-27.2-0.9-40.3,2.7c-17.4,3.5-21.2,21.4-30.4,34
		c-12.7-6.7-26.7-11.2-34.9-23.7c-17.8-21.9-18.5-40.1-19.8-66.8c-0.7-7.9,0-15.7,2-23.4c2-6.8,3.4-13.8,0.2-20.4
		c-2.1-4.8-4.3-9.1-6.2-14c18.8-2.2,45.4,14.1,62.3,8c2.1,10.3-2.3,20.6-12.3,28.4c26-9.5,15.6-53.4,14.1-74.7
		c-2.4-23.4-7.7-48.8-30.7-60.3c-13.9-7.1-29.8-13.5-45.5-8.3c5.3-7.4,8.1-11.9,4.4-20.9c-2.4-6.7-4.9-13.4-6.6-20.2
		C197.7,280.2,197.9,280,198.2,279.8z M307.7,507.2c-1.9-5.3-23.3-7.4-28.9-6.8c-8.5,1.1-5,6.9,1.3,7.9
		C289.4,509.5,298.7,510.1,307.7,507.2z"/>
	<path class="st0" d="M505.1,1023.5c3.2-3.2,9.9,1.7,13.6,2.8c11.1,5,23.4,5.8,35.3,4.4c-13.3-3-26.6-5.9-38.5-12.8
		c-3.1-1.6-7-1.9-8.1-6.6c-4.6,4.2-8.4-0.1-13.4-0.4c-1.1-3.2-0.6-4.8-4.6-5.2c-34.1-5.3-70.1-10.7-100.4-27.8
		c-4.5-4.3-4.4-0.8-8.3-2.3c-11.1-5.1-21.5-11.5-31.3-18.7c-0.7-0.5-1.2-1.5-1.5-2.4c-1-3.1-2-3.7-5.2-3.7c-1.1,0-2.4-0.8-3.3-1.6
		c-9.7-8.4-19.8-16.5-29-25.5c0.7-0.1,1.3-0.3,2.2-0.4c-1.3-2.3-2.6-4.3-5.7-4.4c1.2,1.7,2.4,3.4,3.6,5
		c-14.7-9.6-26.6-23.8-43.5-29.9c-6.6-2.8-13.7-5.4-19.8-9.2c-18-12.7-39.4-17.7-59.6-25.6c-7.9-3.6-15.9-4.7-24.3-3.1
		c-26.7,4.9-53.4,10.1-80.1,15c-7.2,1.2-15.2,6-12,14.4c10.6,22.4,15.2,46.7,21.9,70.5c0.4,1.4,1.1,2.9,2.1,3.8
		c9,8.1,7.3,28.5,10.1,40.7c-18.5,12.8-39.7,20.3-62.3,17.4c-8.1-0.7-16.3-2.1-23.8-5.4c-3.3-1.6-3.5-2-2.6-5.5
		c2.7-10.5,9.5-17.2,19.5-21c1.3,0.4,1.3,2.9,3.4,2c2.2-1,3.7-2.4,3.8-5.6c-1.3,0.2-2.6,0-3.3,0.5c-1.9,1.6-4.1,1.8-6.3,1.9
		c-9.1,0.3-15.8,5.1-20.8,12.4c2-22.6,42.1-11.2,35.6-52.7c-1.7-7.5-3.5-15-5.3-22.5c-1.3-4.6,2.4-4.5-2.2-10.9
		c-4.8-22.3-17.1-44.7-12.7-68c4.9-23.3,28.7-33.3,49.2-39.4c28.4-7,57.1-15.6,85.7-22.6c0.2,0.7,0.4,1.5,0.6,2.3
		c3.6,0.1,3.6,0.1,4.3-3.9c8.8-1.4,16.4-5.5,22.7-12.3c8.1,8.2,16.9,14.7,25.5,22.1c1.2,1,2.4,1.8,2.6,3.8c0.3,3.5,1.2,3.7,4.6,1.7
		c24.1,14.9,48,30.1,74.1,41.7c-0.5,1.5-1,3-1.6,4.7c3.6,1.1,4.2-1.5,5.6-3.4c11.4,3.7,22.9,7.3,35.1,7.5
		c1.7,6.9,5.8,12.2,10.2,17.2c17.4,19.8,34.8,39.5,51.1,60.1c8.6,8.9,16.8,18,24.9,27.4c2.9,3.4,7.2,5.7,11.2,7.9
		c24.1,13.2,51.5,18.3,78.5,22.1c22.8,5.7,45.2,7.1,68.5,11.2c-2.5,24.8-10.7,58-41.5,56.8c-10.8,0.1-21.4-1.5-31.8-3.9
		c-9-2.1-8-3.4-6.1-10.9c0.9-3.3,2.4-6.4,3.6-9.5C505.2,1023.3,505.1,1023.5,505.1,1023.5z M68.5,992.7c-0.3-5-6.9-3.7-6.8,0.8
		C62,998.7,68.7,997.6,68.5,992.7z M252.4,861.4c4.9-0.1,3.9-6.9-0.6-6.8C247.1,854.5,248.4,861.4,252.4,861.4z M560,1021.1
		c-0.6,5.6,4.8,6.6,5.3,1.6C565,1016.6,562.9,1016,560,1021.1z M54.9,869.5c-4.1-0.1-4.5,7-0.1,6.9C59,876.5,59.1,869.3,54.9,869.5z
		 M210.8,846.2c-1.7-4.4-3.9-5.9-8.1-5.9C203.1,844.2,205.9,846.3,210.8,846.2z M68.9,937c-2.8,2.4-0.1,5.9,3.2,5.7
		C76.9,941.3,73.4,936.8,68.9,937z M362,930.1c0.2-3.6-6.1-5-6.1-0.8C355.8,933,361.8,934.4,362,930.1z M180.5,847.5
		c4,4.1,10,6.5,13.9,5.8C190.4,850.4,186.1,848.6,180.5,847.5z M278.7,873.6c-2.7,1.8-0.5,6,2.4,6
		C285,878.5,282.1,873.8,278.7,873.6z M60.9,964.5c-3.5,0-6.2,3.6-4.2,6.3C60,971.4,61.9,968.4,60.9,964.5z M241.5,831
		c0.1-3.5-6-4.3-5.5-0.4C236,833.8,241.4,834.4,241.5,831z M88.2,841.5c0.4-0.4,1.7-1,2.2-2c0.5-1.1-1.7-2.7-3.5-2.4
		C83,838.2,82.5,841.6,88.2,841.5z M148.8,845.2c-0.3-3.8-4.3-4.3-6.2-2.1c-0.7,1.2,1.3,3.1,3.4,3.1
		C147,846.2,148,845.6,148.8,845.2z M412.2,976.3c-1.6-1.3-2.5-2.3-3.5-2.6C403.8,973.5,405.7,983,412.2,976.3z M122,828.2
		c-6.9,4.9,3.6,6.8,3.1,3.3C124.8,830.4,123.3,829.6,122,828.2z M228.1,861.1c1.3,4.3,2.2,5.1,5.9,5.4
		C233.4,862.9,232.4,862,228.1,861.1z M163.2,811.5c1,3.7,2.7,4.4,6,2.4C167.4,810.6,166.9,810.4,163.2,811.5z M189.1,782.9
		c-1.8-2.3-5.4,0.1-5.1,2.4C185.4,788.3,189.5,785.8,189.1,782.9z M316.3,866.8c-1.6-2.4-4.9-0.7-4.7,1.9
		C312.6,872,316.3,869.9,316.3,866.8z M199.1,803.5c-1,1.1-1.8,1.6-1.9,2.3c-0.3,1.3,1.6,3.1,3.1,3c0.7-0.1,2-1.5,1.9-1.6
		C201.3,806,200.3,804.9,199.1,803.5z M492.1,986c-2.4-3.3-3.2-3.5-6.3-1.7C487.8,987.1,487.9,987.2,492.1,986z M242.8,875.5
		c1.1,2.9,3.2,4.6,6.1,5.3C247.9,877.8,245.9,876.1,242.8,875.5z M366.3,901.3c-0.1-3.5-3.6-5.3-4-1.8c0.6,1.2,1.6,2.1,2.5,3.1
		C365.4,902.2,365.9,901.7,366.3,901.3z M320.6,900.3c1.4,1.3,2.3,2.3,3.4,3.1C328.6,904,325.1,896.9,320.6,900.3z M463.3,975.5
		c-5.3-5-8.2-0.5-3.7,1.7C460.4,977.4,461.4,976.5,463.3,975.5z M123.2,857.1c3.1,2.4,3.6,2.5,6.6,0.7
		C127.3,855.9,127.3,855.9,123.2,857.1z M118.4,801.3c-3.4,1.7-3.1,3.9,0.4,3.9c1.1,0,2.7-0.3,2.4-1.9
		C120.9,802.6,119.5,802.1,118.4,801.3z M349.5,919.1c-0.4,3,3.3,5.5,4.3,2.3C353.4,919.3,352,918.5,349.5,919.1z M340.3,858.4
		c-1.6,2.1,1.1,5.8,2.9,3.3C343.4,859.7,342.9,858.2,340.3,858.4z M400.7,972.1c1.9-2.8,2.1-3.1-0.5-4.8
		C397.8,969.4,398.4,969.6,400.7,972.1z M412.2,939.2c-1.8,2-2.9,3.2-0.7,4.5C414.4,942.9,413.9,941.9,412.2,939.2z M181.2,818
		c2.6,2.8,2.6,2.8,4.8,1.1C184.8,817.5,183.5,816.7,181.2,818z"/>
	<path class="st0" d="M212.8,718.6c2.8-16.4,5.6-32.3,8.4-48.6c5.2,0.2,10.4,1.8,15.4,3.1c5.5,1.6,10.9,1.7,16.3,0
		c8.2-2.9,16.6-5.9,23.8-10.9c32.7-21.7,72.5-31.3,103.3-55.7c4-3.7,8.8-6.2,13.9-7.9c11.8-3.4,20.4-10.7,31.7-15.7
		c1.3,29.2,1.4,56.7-12.1,82.9c-4.7,11.2-9.4,22.5-13.4,34c-5.7,14.3-4.9,29.8-9.3,44.4c0.1-23.3-8.6-47-23.6-64.9
		c-1.7-1.7,0.7-3.5-1.4-5.1c-32.9,13.4-64.7,29.4-95.9,46.2c-7.4,4-15.2,6-23.5,5.5c-3.9-0.2-7.7-2.2-11.6-2.6
		C226.9,723.6,219.9,720.2,212.8,718.6z M382.9,638.8c-4.1-0.4-11.5,8.3-4,8.7C383.1,647.8,390.6,639.4,382.9,638.8z M257.6,686.3
		c5.3,0.4,6.6-8.2,0.9-8.2C253.3,677.9,251.6,686.2,257.6,686.3z M421.9,609.4c-2.4,3.7-2.3,4.8,0.5,7.6
		C424,614.4,424.2,612.1,421.9,609.4z M375.7,682.4c-1.7-2.9-3.7-3.6-6.7-4.3C370.8,680.9,372.7,681.7,375.7,682.4z"/>
	<path class="st0" d="M362.5,678.8c29.5,41.4,33.6,72.8,6.7,117.1c-3.1,5.6-7,10.7-10.3,16.1c-1.5,2.5-3.6,3.6-6.3,3.2
		c-11.3-0.9-21-6.8-31.1-11.4c-8.2-3.9-16.3-7.9-24.3-12.1c-28.1-16.7-58.2-29.9-85-48.9c0.2-2.3,3.2-4.4,0.1-7.2
		c-0.9,1.7-1.7,3.1-2.8,5.1c-7.3-4.7-6.9-5.8-3.2-13.5c1.2-2.1,3.1-2.1,5.4-1.5c8.2,2.2,16.3,4.4,24.6,6.1c13.4,2.6,26,0.4,38.2-6.4
		C303.7,709.6,332.9,693.8,362.5,678.8z M364.6,695.3c-0.4,5.2,1.9,8.8,6.4,10.5C370.4,701.3,368.4,698.3,364.6,695.3z M349.4,740.6
		c0.4-0.6,1.4-1.5,1.6-2.6c0.4-2-1.8-4.7-3.4-4.3C343.8,735.1,345.3,740.3,349.4,740.6z M305.8,732.4c0.1-4.8-5.4-5.3-5.1-1.1
		C301.1,734.9,304.1,734.8,305.8,732.4z M344.3,780.1c-1.5-2.1-4.6-3.3-4.7,0.7C339.4,784.8,344.8,785.4,344.3,780.1z M339.8,742.2
		c-2.3,2.4-4.3,5.2-0.4,6.2c1.5,0.3,3.2-1.1,2.8-2.6C341.9,744.8,340.9,743.9,339.8,742.2z M312.2,778.2c1.9-1.9,0.5-5.8-2.1-5.7
		C306.2,772.8,309,778.8,312.2,778.2z M268.3,742.5c0.6-3.4-4.7-5.9-5.3-2.1C263.1,743.5,266.5,745,268.3,742.5z M374.2,735.4
		c-2.1,3.4-1.8,4.4,1.4,5.8C377.1,738,377.1,738,374.2,735.4z M333.3,695.1c-0.4,0-0.7,0-1.1,0C327.8,701.5,338.5,703,333.3,695.1z
		 M359,781.6c1.5-2.9,1.8-3.4-0.6-5.1C356.4,778.7,356.8,779,359,781.6z M358.6,684.6c0.3,4.4,0.3,4.4,3.6,5.7
		C361,688.4,360,686.9,358.6,684.6z"/>
	<path class="st0" d="M347.4,854.7c57.2,32,69.3,52.8,140,61.4c4.2,1.3,9.3-0.1,12.3,3.8c0.8,1.3,2.9,1.9,4.6,2.3
		c2.5,0.6,3.2-0.1,4-3.4c49.9,4.6,79.2-4.2,73.2,60.7c-17.7-1.4-35.5,0.4-53-4.8c-12.5-3.8-25.6-5.1-38.2-8.4
		c-23.1-5.6-47.7-10.7-66.1-27c-24.2-29.3-49.9-57.4-77.4-83.8C347,855.2,347.2,854.9,347.4,854.7z M579.2,949.3
		c-0.3-3.2-2.7-4.3-4.9-6C567.4,944.6,577.1,956.7,579.2,949.3z M540.5,965.1c0-3.7-7.5-4.6-7.4-0.4
		C533,968.4,540.6,969.3,540.5,965.1z M442.3,914.3c-1.7-4.2-2.9-5-6.6-4.9C436.7,913.1,438,914.1,442.3,914.3z M478.4,951.9
		c1.5-2.7,3.7-4.4,0.3-5.6C476.1,948.5,475.6,948.8,478.4,951.9z M410.2,918c1.3-3.9,1.2-4.1-1.8-5.3
		C407.3,915.8,407.3,915.8,410.2,918z"/>
	<path class="st0" d="M144.8,697.3c-18.1-17.7-16.3-45.1-11.8-68.1c0.7-3.7,2.7-7.2,4.6-10.5c4.5-10.4,3.1-22.5,5.9-33.5
		c2.3-8.6,7.8-29,19.5-17.9c1.7,1.4,2.2,3,1.8,5.1c-3,14.5-4.2,28.8-2.2,43.6c2-1.7,1.8-4.1,1.7-5.9c-0.4-8.1,1.8-15.9,3.2-23.8
		c0.9-4.7,1.6-9.4,2.3-14c1.3-6.3-4.5-8.7-9-11.8c2.3-7.9,12-25.9,22-17.4c2.8,2.8,4.3,5.7,2.7,9.9c-1.9,5.1-3.1,10.5-4.6,15.8
		c-4,12.8-3.3,26-3.8,39.2c2.1-1.6,2.5-4.1,2.7-6.5c1-13.1,3.8-25.8,8-38.3c1.3-6.9,6.3-14.1,0.4-20.6c5.6-0.3,11.1,3.7,8.8,8.9
		c-6.1,16.4-11.1,33.3-13.3,50.7c-2.1,17.8,11.7,34.4,6.8,52.3c-0.2,1-1.2,2.2-2,2.5c-7.9,2.5-13.3,8.2-18.8,13.9
		C161.1,679.7,153.1,687.9,144.8,697.3z"/>
	<path class="st0" d="M152.7,444.2c-8.2,14.3-18.3,26.6-23.2,42.5c-15.6,2.3-31.4-3.7-47-3.3c-4.9,0.3-9.8,0.8-14.6,1.5
		c-8.6,2.4-25.8-2.4-19.8-14c2.7-5.3,6.7-8.6,12.8-9.1c9.9-0.3,19.7-1.2,28.1-6.9c2.4-1.4,2.8-2.8,1-5.6c-2.7-4.4-5.8-8.6-8.8-13.1
		c-5.8,2.1-11.6,1.6-17.3,1.6c-7.4,0.1-14.9,0.2-22.3,0.1c-7.2,0.4-12-6.7-8.8-12.6c1.8-4,18.9-3.8,23.7-4.6
		c8.1,1.5,14.9,9.4,22.5,14c-0.1-1.5-0.1-2.2-0.2-3.4c2,0.9,3.8,1.7,5.5,2.5c0.1-0.1,0.3-0.2,0.4-0.3
		c-12.9-11.6-23.2-25.7-33.4-39.7c-3.1-4.3-3-9.1-2-14.1c0.4-2,1.5-3.1,3.2-3.9c3-1.5,3.6-1.5,5.5,1.3c9.8,14.3,23,25.6,35.6,37.2
		c1.5,1.4,3.1,2.9,5.5,2.1c-1.2-1.2-2.5-2.4-3.7-3.6c0.2-0.3,0.3-0.5,0.5-0.8c6.5,2.4,12.4,6.2,18.5,9.3c1.4,0.8,3.1,1.1,3,3.7
		c-0.1,1.5,3,2.8,4.2,1.8C124.6,424.4,147.9,441.2,152.7,444.2z M113.2,453.6c-3.9-2-7.2-0.5-7.8,3.3
		C109.7,458.1,111.7,457.2,113.2,453.6z"/>
	<path class="st0" d="M162.2,271.9c7.7-2,15-3.9,22.3-1.4c3,0.9,4.3,2.9,4.6,6.2c0.7,6.8,2,13.5,3.2,20.2c1,5.9,1.1,5.9,6.8,6.9
		c4.9,9-5.8,11.2-5.7,22.4c-3.4,19.9-6.7,40-3.9,60.2c1.8,11.6,2.8,23.8,7.1,34.8c1.9,5,6.6,4.5,9.2,7.7c2.8,5.7,5.3,11.6,8.1,17.8
		c-1.5,0-2.6,0-3.3,0c-7.7,32.7-5.7,68.1,10.4,97.8c-25.9-34.1-40.8-76.3-42.6-119C171.3,374.4,162.5,323.6,162.2,271.9z"/>
	<path class="st0" d="M487.2,300.1c-5.5,8.7-8.6,17.7-12.7,27c-1.6,3.8-2,4.1-5.9,2.9c-73.2-21.6-90,30.5-147.9,27.6
		c-2.7,0-3.3-0.8-3.3-3.7c0-7,0-14,0.2-20.9c0.1-3.7,1.4-4.7,5.1-4.2c30.1,5,54.2-14.8,80.4-25.8
		C429.6,292.5,460.5,288.7,487.2,300.1z"/>
	<path class="st0" d="M123.6,879.7c5,22.9,8.7,45.6,21.4,65.6c2.8,4.5,4.6,9.6,6.8,14.4c4.9,9.8-29.5,30.6-37.9,35.9
		c-3.2-9.9-4.5-19.9-6.9-30c-4.7-12.3-8.2-24.7-10.4-37.7c-2.9-16.4-11.4-30.8-16.6-46.4c-0.3-1.9,1.6-4.4,3.2-4
		c2.5,0.7,5.4,1,6.7,3.7c0.8,1.9,1.9,1.9,3.6,1.3c1.1-0.4,2.3-1,3.3-0.8C106,883.1,114.5,881.1,123.6,879.7z M122,917.1
		c-0.2-4.5-6.6-4-6.4,0.4C115.6,922,122.3,921.4,122,917.1z M138.2,944.4c0.1-5-5.2-4.3-5.3,0.3
		C132.8,949.8,138.2,949.1,138.2,944.4z M117.4,881.8c-1.5,2.1-1.9,3,0.6,3.7C119.9,884.4,118.9,883.3,117.4,881.8z"/>
	<path class="st0" d="M236.8,331.1c-28.7,10.6-27.4,50.1-6.7,68.1c10.2,9.8,27.4,11.8,37.8,1.4c1.4-1,1.9-2.6,3.7-3
		c1.4,9.5,1.7,19,2.3,28.6c0.2,4.5-1.5,6.4-6,6.5c-18.7-0.6-36.3-9.2-55.1-9.9c-5.7-0.4-11.8-0.3-13.1-7.2
		c-6.7-26.4-9-54.5-2.3-81.1C202.9,317,224.6,326.8,236.8,331.1z"/>
	<path class="st0" d="M268.4,329.8c-3,2.5-4.2,2.7-7.2,1c-9.9-5.6-19-12.1-26.6-20.7c-11.5-12.8-23.2-25.6-36.2-36.8
		c-10.3-10.2-22.9-9.9-36.1-7.2c-2.4-8.1-1.6-17.3-2.6-25.7c-0.2-3.8,0.1-4,3.6-4.9c9.7-2.5,20.4-3.2,28.4,3.8
		c23.2,17.6,38.6,44.4,64.2,58.8C275.7,306.5,263.2,306,268.4,329.8z"/>
	<path class="st0" d="M370.8,376.5c-19.4,64.6,82.7,76.1,72.1,6.1c5.9,3.1,9,9.5,9.1,15.9c-0.1,11.1,1.5,22.4-0.9,33.3
		c-1.3,7.1-9.4,5.3-14.7,4.4c-12-2.9-24.1-3.3-36.3-2.8c-10.7,0.4-21.3,1.3-32,1.9c-6.6,0.6-15.4,1.1-17-7c-3.5-12.4-2-25.4-1.4-38
		C349.9,378.3,360.2,377.6,370.8,376.5z"/>
	<path class="st0" d="M313.1,610.2c4.2-2.5,10.9-10,15.4-9.9c14.2,0.7,28.8-0.1,42.8,1.3c-33,19-67.8,36.1-101.3,54.7
		c-14.8,11-30,12.5-47.1,6.1c6.7-0.7,13.4-0.6,20.1-0.5c6.7,0.5,10.7-2.6,13.7-8.4c4.5,0.8,5.4,0.4,7.2-3.9c-1-0.4-2-0.9-3.2-1.3
		c14-16.7,34.2-27.1,52.6-38.2c-0.3,0.8-0.5,1.5-0.9,2.6c2.6-0.3,4.6-0.2,5.9-3.1C316.2,609.8,314.6,610,313.1,610.2z M314.9,617.8
		c-3.8-1.6-5.9-0.8-7.8,2.6C310.7,621.7,312.1,621.3,314.9,617.8z"/>
	<path class="st0" d="M319.3,600.8c-25.8,16.4-54.3,28.3-72.7,54.1c-2.4,0-5.8,0-9.8,0c10-24.7,18.8-48,27.6-73.3
		c9.2,17.1,37.6,16.5,54.6,18.3C319.2,600.1,319.2,600.5,319.3,600.8z M263.4,603.2c3.4-2.5,4.3-6.1,2.4-9.5
		C262.5,596.8,261.7,599.8,263.4,603.2z M275,594.9c-3.5,3.2-4.3,6.1-2.7,9.7C275.5,602.3,276.3,599.6,275,594.9z M270.5,629
		c2.7-3.5,2.7-4,0.2-6.6C268,625.2,268,625.7,270.5,629z"/>
	<path class="st0" d="M383.7,376.8c-19.5,27.7,19.5,52.4,41.5,31.7c5.8-5.4,10.1-16.1,5.8-24.7c-6,1.5-7.1,1.1-8.8-3.5
		c4.8-0.6,9.4,0.5,14,1.2c0.9,0.1,2,1.7,2.5,2.8c11.1,26.7-20,53.8-45.8,40.6c-17.2-7.3-27.7-28.4-18.7-45.7
		C376,374.9,379.7,376.8,383.7,376.8z"/>
	<path class="st0" d="M264.8,359.9c-7,3.5-12.6-2.4-6.1-8.2c-18.8-18.1-43.3,7.5-30.7,28c6.4,15.8,31.3,20.2,38.9,3
		c0.6-1.3,1.2-2.7,2.4-4c0.4,5.3,3.4,11.2,0.2,16c-15.5,23.1-48.1,3.1-49.9-20.2c-2.8-15.2,3.1-34.9,20.3-37.8c4.2-0.8,7.8,0,11.1,3
		C257.1,345.3,261.8,351.8,264.8,359.9z"/>
	<path class="st0" d="M62.9,417.2c-11.2-5-22.9-9.9-31-19.4c-8.9-9.2,6.9-23.3,11.7-10.9C45.5,399.4,56,407.5,62.9,417.2z"/>
	<path class="st0" d="M505.1,1023.5c0,0,0.1-0.2,0.2-0.2c-4.6,3.9-6.9,9.2-8.6,14.8c-5.7,1-16.5-0.3-16.6-7.6
		c0.8-4.6-0.4-11.7,6-12.2c6.5-1,12.6,0.8,18.7,3.1C506,1021.8,505.4,1022.6,505.1,1023.5z"/>
	<path class="st0" d="M159.6,861.6c-14.5,5.1-29.1,10-44.2,13c-9.5,1.6-18.9,5.1-28.5,1.9C89.5,875,155.2,861.2,159.6,861.6z"/>
	<path class="st0" d="M195.4,514.2c-4.3-1.8-8.5-3.7-12.9-5.5c0.9-1.9,2.3-3.5,0.1-4.9c-1.4-0.9-2.3-0.4-4.2,2.8
		c-0.3-0.6-0.9-1.2-0.8-1.5c2.3-5.6,4.6-11.2,7.2-17.4c3.9,9.1,7.4,17.4,11,25.7C195.7,513.7,195.5,513.9,195.4,514.2z"/>
	<path class="st0" d="M68.3,421.7c2.3,2.2,4.6,4.3,6.9,6.5c-0.2,0.2-0.4,0.5-0.6,0.7c-2.3-2.1-4.5-4.2-6.8-6.4
		C67.9,422.3,68.1,422,68.3,421.7z"/>
</g>
</svg>
