<?xml version="1.0" encoding="utf-8"?>
<!-- Generator: Adobe Illustrator 26.0.0, SVG Export Plug-In . SVG Version: 6.00 Build 0)  -->
<svg version="1.1" id="Capa_1" xmlns="http://www.w3.org/2000/svg" xmlns:xlink="http://www.w3.org/1999/xlink" x="0px" y="0px"
	 viewBox="0 0 595.3 1109.2" style="enable-background:new 0 0 595.3 1109.2;" xml:space="preserve">
<style type="text/css">
	.st0{fill:#FFFFFF;}
</style>
<g>
	<path d="M240.7,740.9c-14.1,2.1-28,0.5-41.9-0.9c-12.3-1.3-22.3-7.2-30.8-16.2c-6.8-7.2-14-14.1-21.6-20.5
		c-8.8-7.4-10.7-16.3-7.9-27c1.4-5.3,3.4-10.3,6.8-14.8c3.5-4.6,6.8-9.3,10.1-14.1c2.6-3.9,6.2-5.5,10.7-4.9
		c4.2,0.5,8.4,1.5,12.4,2.3c1.6-1.5,3-3.5,5-4.7c4.9-3,10-3.1,14.7,0.3c5.5,3.8,9.1,8.8,9.3,15.9c0.1,5.5,0.5,11,0.8,16.7
		c-0.2,0,0.1,0.1,0.3,0c5.2-1.2,10.4-2.2,15.5-3.7c1.9-0.6,4-1.9,5.2-3.4c2.7-3.3,5.9-4.4,9.8-3.2c2.2,0.7,4.4,1.8,6.4,3.1
		c1.3,0.8,2.1,0.8,3.2-0.2c6.6-6.2,13.2-12.4,20-18.5c4.5-4.1,7.7-9.1,11.3-14c0.9-1.2,1.8-2.5,2.8-3.6c1.8-2,3.1-3.9,2.9-7
		c-0.2-3.6,2.2-6.6,4.6-9.3c0.6-0.7,1.3-1.4,2.2-2.4c-4.3-0.5-8.4-0.9-12.4-1.4c-15.3-1.8-30.1-5.6-44.8-9.8
		c-12.1-3.4-24.3-6.8-36.4-10.3c-1.8-0.5-3.2-0.4-4.8,0.7c-6,4.4-12.7,3.4-19.3,2c-13.1-2.7-24.3-8.7-33-18.9
		c-6-6.9-12.2-13.6-18-20.7c-3.5-4.2-5.9-9.2-7-14.7c-1.2-6.2,0-11.7,3.9-16.8c0.5-0.7,0.7-1.7,0.7-2.7c0.3-2.8-0.4-5.2-2.1-7.7
		c-1.8-2.7-1.2-5.8,0-8.7c0.5-1.3,1.2-2.5,1.9-4c-2.3-1.4-4.6-2.8-6.9-4.2c-15.8-9.6-31.2-19.7-45.2-32c-4.7-4.2-9-8.9-13.3-13.5
		c-1.3-1.4-2.3-3.1-3-4.9c-1.5-3.5-0.4-6.1,3.1-7.8c0.9-0.4,1.8-0.8,3.1-1.3c-0.7-0.8-1.2-1.3-1.8-1.9
		c-14.8-15.9-28.7-32.4-39.4-51.3C9.9,367.1,3.6,352.2,0.4,336c-1.5-7.6,0.9-10.4,8.6-9.4c6.6,0.9,13.2,2.1,20.1,3.2
		c-0.3-0.7-0.5-1.4-0.9-2c-13.2-25.2-18.1-52.1-16.6-80.4c1.2-22,4.6-43.6,11.8-64.5c1.5-4.4,3.4-8.6,5.3-12.8
		c0.7-1.5,1.6-2.9,3.6-2.8c2,0.1,2.9,1.6,3.2,3.1c1.4,6.3,2.9,12.6,4,18.9c3.2,18.5,9,36.1,18.9,52.2c0.2,0.3,0.5,0.5,1,1.1
		c-1-4.9-2-9.3-2.8-13.7c-4.3-23.2-3.7-46.4,0.7-69.5c5.6-29,16.5-56,30.1-82c7.9-15.2,16.2-30.1,26.6-43.7c1.9-2.5,4-4.9,6.5-6.8
		c5.3-3.8,9.7-2.6,12.2,3.4c1.7,4.2,2.9,8.6,4.2,12.9c8,27.4,15.5,54.9,24.1,82.1c3.6,11.6,9.4,22.5,14.2,33.8
		c0.6,1.5,1.5,1.5,2.9,1c0-0.9,0-1.9,0-2.9c-0.6-13.4-1.2-26.7-1.9-40.1c-0.3-5.8-1-11.5-0.9-17.3c0.2-13.6,3.1-26.9,7.2-39.8
		c5.7-17.9,12-35.5,18.1-53.3c0.1-0.4,0.3-0.9,0.5-1.3c2.7-5.9,7.3-7.2,12.1-2.8c4,3.8,7.6,8.1,11.1,12.3
		C234.5,27,244.8,39,254.6,51.4c14.2,17.8,25.9,37.2,36.8,57.2c0.4,0.7,0.8,1.5,1.2,2.2c0.1,0.1,0.2,0.2,0.5,0.3
		c0.6-3.4,1.1-6.7,1.9-9.9c3.5-14.9,10.1-28.2,20-39.8c3-3.5,6.4-6.5,11.3-5.2c2.7,0.7,5.6,2.2,7.5,4.2c4.3,4.7,8.3,9.7,11.8,15.1
		c12.8,19.7,23.9,40.4,34.5,61.3c4.7,9.2,9.2,18.4,13.8,27.6c0.2,0.5,0.6,0.9,0.7,1.1c3.3-4.8,6.6-9.6,10-14.3
		c1-1.4,2.4-2.6,3.8-3.7c4.1-3.3,8.2-3,11.5,1.2c4.3,5.4,8.1,11,9.9,17.8c2.6,9.9,4.9,19.9,7.8,29.7c2.9,10.3,6.3,20.4,9.5,30.6
		c0.1,0.3,0.2,0.6,0.3,0.9c0.6,3.4,1.5,5.9,5.7,7.1c4.5,1.2,6.9,5.3,7.1,10.1c0.2,4.6-1.9,8.2-5.8,10.5c-1.1,0.7-1.6,1.3-1.5,2.7
		c0.9,12.4,1.6,24.7,2.4,37.1c0,0.3,0.1,0.6,0.2,0.8c4-0.7,7.9-1.5,11.8-1.9c2.3-0.3,4.8-0.1,7.1,0.1c4,0.4,6.3,2.3,6.3,6.3
		c0,5.5-0.3,11.1-1.6,16.4c-2.6,11.1-5.9,22.1-8.9,33.2c-3.4,12.4-7,24.7-10.4,37.1c-0.3,0.9,0.1,2.2,0.5,3.1
		c1.9,5.5,3.6,11.1,6.3,16.3c0.4,0.7,0.4,1.8,0.2,2.5c-0.9,2.5,0.5,3.3,2.4,4.4c5.5,3.2,7.5,8.7,8.2,14.5
		c2.1,16.1,2.1,32.2-0.8,48.3c-1.6,8.8-4.7,16.9-11.5,23.1c-2.1,1.9-3.9,4.2-5.8,6.2c-1.8,1.8-3.8,3.1-6.4,3.2
		c-0.7,0-1.5,0.9-1.9,1.6c-3,5.8-5.9,11.7-8.7,17.6c-9.5,19.6-23,36-39.9,49.6c-0.5,0.4-0.9,0.8-1.1,0.9c0.7,3,1.3,5.8,2,8.7
		c0.2-0.1,0.6-0.1,0.7-0.3c8.4-7.8,18.7-12.4,28.7-17.5c5.9-3,12.1-5.2,18.2-7.9c0.5-0.2,1-1,1.2-1.7c0.9-3.7,1.7-7.5,2.6-11.2
		c1.9-7.1,6.3-11.5,13.7-12.9c6-1.2,11.8-2.8,17.7-4.2c4-0.9,6.6-3.5,8.4-7c1.4-2.6,2.7-5.2,3.5-8c2.9-9.1,8.1-16.7,14.6-23.5
		c2.7-2.9,4.1-5.4,2.7-9.6c-1.5-4.4-2.5-5.9-7.3-6.6c-6.1-0.9-9.9-4-10.7-8.9c-0.5-3.4,0.5-6.3,3.2-8.4c3.8-2.8,8.1-4.4,12.7-5.2
		c3.1-0.5,5.9,0.6,8.6,2.1c3,1.7,6.1,3.3,8.9,5.3c2.6,1.9,4.8,4.4,7.3,6.6c0-0.2,0.1-0.6,0-1c-0.6-2.7-1.2-5.4-2-8
		c-0.3-1.1-1-2.2-1.8-3.1c-4-4.9-4.6-10.7-1.6-15.6c3.9-6.3,12.5-6.9,17.2-1.3c0.6,0.7,1.6,1.1,2.5,1.5c5.6,2,9.2,5.7,10.1,11.7
		c0.1,0.8,0.4,1.6,0.7,2.4c1.1,3.4,2.6,6.8,3.3,10.3c0.7,3.4,0.7,6.9,1.1,10.9c0.6-0.9,1.5-1.7,1.7-2.5c0.6-3.6,1.8-7.2,0.8-11.1
		c-1-3.8,0.4-7.5,2.6-10.7c3.7-5.5,12.6-5.6,16.4-0.2c0.8,1.1,1.6,2,2.5,3c3.3,3.8,4.6,8.3,3.9,13.3c-0.7,4.7-1.5,9.4-2.5,14.1
		c-1.2,5.9-2.5,8.1-6.9,13c1.5,1.7,3.1,3.3,4.4,5.2c1.4,2,2,4.5,0.9,6.8c-2.5,5.4-5.1,10.8-8,16.1c-2,3.6-5.4,6-9.3,7.6
		c-6,2.3-12,4.8-18,7.2c-3.6,1.4-6.3,3.8-8.1,7.2c-4.4,8.1-8.7,16.3-13.1,24.4c-6.7,12.6-15.4,23.5-25.7,33.3
		c-2.7,2.6-5.8,5-9.1,6.9c-2.2,1.3-4.9,1.7-7.5,2.1c-1.8,0.2-3.3,0.7-4.8,1.8c-13.4,10.6-26.8,21.2-40.2,31.7
		c-5,3.9-10.1,7.5-15.3,11.1c-1.8,1.2-3.1,2.6-3.7,4.7c-0.8,2.6-2.9,5.3-2.6,7.8c0.2,2.2,3,4.1,4.3,6.4c3.1,5.4,7.5,9.5,12.6,12.9
		c10.2,6.9,14.3,16.9,13.7,28.8c-0.5,10.8-4.3,20.9-8.7,30.7c-1.1,2.4-2.7,4.3-5.3,5.2c-0.7,0.2-1.2,1.1-1.5,1.8
		c-4.2,8.1-8.6,16-14.5,23c-2.7,3.1-5.8,5.9-9,8.6c-1.2,1-1.4,1.7-0.9,3c3.7,11,7.8,21.9,11,33.1c5.4,19.3,10.2,38.8,15.3,58.2
		c4.1,15.5,8.2,31.1,12.3,46.6c0.7,2.6,1.7,5.1,2.6,7.7c2.4,7.5,0.1,14.7-6.3,19.2c-3,2.1-6.3,3.8-9.5,5.7c0.8,2.4,1.7,4.8,2.3,7.3
		c1.6,6.9-0.1,11.3-6,15.2c-1.6,1.1-1.8,2-1.3,3.7c2.3,9.1,4.1,18.3,6.7,27.3c1.7,5.9,4.4,11.6,6.8,17.4c1.7,4.1,3.9,8,5.7,12.1
		c4,9.5,8,18.9,11.8,28.5c0.9,2.2,1,4.6,1.4,7c0.1,0.7,0.1,1.4,0.4,2c3.8,8.1,0.8,19.7-9.9,24.4c-9.5,4.2-19.6,5-29.8,4.4
		c-7-0.5-13.9-1.5-20.3-4.9c-6.8-3.6-12.5-8.3-15.9-15.2c-1.5-3-2.4-6.5-2.6-9.9c-0.5-6.5-2.1-12.1-7-16.7c-6-5.6-7.7-12.9-7-20.9
		c0.4-4.5,1.6-8.6,4.3-12.4c2.8-4,4.8-8.6,7.1-12.9c0.2-0.5,0.2-1.2,0-1.7c-1.7-4.9-3.5-9.7-5.4-14.5c-0.3-0.7-1.2-1.3-1.9-1.5
		c-1.8-0.6-3.8-0.7-5.6-1.3c-5.4-1.7-9-5.1-10.7-10.6c-0.7-2.4-1.5-4.9-2.1-7.3c-0.3-1.2-0.8-1.6-2.1-1.6c-4.3,0.1-8.6,0.1-12.9,0.3
		c-0.8,0-1.6,0.4-2.3,0.8c-0.7,0.3-1.2,1.1-1.9,1.3c-3.9,1.2-4.2,4-4.2,7.6c-0.1,12.5,1.4,24.7,3.8,36.9c0.6,2.8,1.2,5.4,2.7,7.9
		c2.2,3.5,1.6,7.4,1.1,11.3c-1.7,12-8.1,17.9-20.8,19.4c-8,1-15.8,0.8-23.4-2.2c-3.3-1.3-6.7-1.1-10.2,0c-5.8,2-11.6,4.5-17.6,5.4
		c-13.2,2-26.4,1.2-39.3-2.8c-3-0.9-6-2.4-8.7-4.2c-4.5-3-6.7-7.4-5.4-12.9c1-4.1,1-8.2,1.4-12.3c1.3-12.5,12.4-22.8,25.1-23.2
		c4.8-0.2,9.5,0.1,14.3,0c1.1,0,2.1-0.6,3.1-1c0.8-0.3,1.5-0.8,2.3-1.1c7.7-2.6,12.8-7.5,13.6-16c0.3-3.1,0.5-6.1,0.5-9.2
		c0-0.7-0.6-1.7-1.3-2.1c-4.7-2.4-8.3-5.7-10.1-10.8c-0.2-0.6-1.3-1.2-2.1-1.4c-6.5-2.2-13-4.4-19.4-6.6c-1.4-0.5-2.8-1.3-4.2-1.9
		c-6.1-2.7-9.1-6.8-9.3-14c-0.4-21.8-1.7-43.7-2.5-65.5c-0.6-17.2-1.2-34.5-1.3-51.7c-0.1-22.4,2.2-44.6,5.7-66.6
		c1.1-6.8,2.2-13.5,3.2-20.3C240.8,742,240.7,741.5,240.7,740.9z"/>
	<path class="st0" d="M319.6,943.8c-4.9,0-9.6,0.2-14.1,0c-11.6-0.5-23.2-1.5-34.6-4c-10.4-2.4-20.4-5.9-29.2-12.2
		c-0.4-0.3-0.9-0.4-1.3-0.6c-0.1,0.2-0.3,0.4-0.4,0.6c2.4,1.8,4.7,3.7,7.3,5.4c10.2,6.6,21.6,10,33.4,12.2
		c12.4,2.4,24.9,3.2,37.4,3.5c1,0,2.1,0.4,3.2,0.7c0.6-0.2,1.5-0.6,2.4-0.6c18-0.2,36-0.9,53.9-3.6c20.4-3.1,40.3-8.1,58.2-18.9
		c3.3-2,6.2-4.5,9.3-6.8c0.6-0.5,1.1-1.1,1.6-1.7c-0.1-0.2-0.3-0.3-0.4-0.5c-0.8,0.6-1.6,1.2-2.4,1.8c-10.3,7.3-22,11.7-34,15.1
		c-17.2,4.9-34.8,7.4-52.5,8.4c-11.3,0.7-22.6,0.9-33.9,1.5c-1.8,0.1-2.5-0.4-2.6-2.3c-2.6-34.1-5-68.3-8-102.4
		c-2.1-23.7-4.9-47.3-7.7-70.9c-1-8.5-2.8-16.8-4.1-25.3c-1.8-11.7-1.6-23.5-0.4-35.2c1.4-13.3,3.9-26.3,7.5-39.2
		c0.2-0.8,0.5-1.6,0.7-2.3c3.3-0.7,5.5,0.4,7.6,2.9c12.4,14.7,25.1,29.2,37.7,43.7c2.3,2.6,4.9,4.9,7.5,7.2c9.4,8,19.8,9.2,31,4
		c0.8-0.4,1.7-0.8,2.6-1.2c0.2,0.3,0.4,0.6,0.4,0.8c0.7,18.3,5.6,35.6,11.5,52.8c7.2,21.1,14.2,42.3,20.2,63.8
		c6.8,24.1,12.5,48.6,18.8,72.8c1.9,7.4,4.3,14.8,6.6,22.1c2.2,7,0.6,12-5.6,15.9c-7.3,4.6-15.5,7.2-23.5,10
		c-27.7,9.7-56.3,12.7-85.5,11.8c-16.4-0.5-32.8-1.2-49-4.1c-14.8-2.6-29.4-6-42.9-12.9c-0.5-0.2-0.9-0.5-1.4-0.8
		c-2.9-1.4-4.1-3.5-4.2-6.9c-0.7-21.9-1.9-43.8-2.6-65.8c-0.6-20.8-1.2-41.7-1.1-62.6c0-20.5,2.9-40.8,6.1-61.1
		c0.9-5.8,1.9-11.7,2.8-17.7c3.6,0.8,7.1,1.6,10.6,2.5c2,0.5,3.4,0,4.1-1.9c1.7-4.7,1.7-9.7,1.2-14.6c-0.1-0.8-1.8-1.8-2.8-2.1
		c-3.1-0.6-6.2-0.9-9.7-1.4c1.2-5.7,2.3-11.2,3.5-16.8c2.4,0,4.7,0,7,0c2.5,0,4-1.5,4.7-3.7c0.9-2.9,1.7-5.9,2.4-8.9
		c0.6-2.5-1.2-4.7-3.9-4.8c-1.7-0.1-3.4,0-5.5,0c0.5-1.4,0.8-2.4,1.2-3.4c0.7-1.9,1.6-3.7,2.3-5.6c0.5-1.5,1.1-2.2,3-2
		c1.8,0.2,3.7-0.2,5.4-0.7c0.8-0.2,1.6-1.2,2.1-2c1.7-2.9,3.2-6,4.7-9c0.5-1,0.8-2.2,0.8-3.3c-0.1-1.7-1.1-2.8-3.1-2.6
		c-1.3,0.1-2.6,0-4.3,0c4.7-9.9,10.2-19.1,16.4-27.1c0,2.7-0.3,5.7,0.1,8.7c0.2,2,1.1,4.1,2.2,5.8c1,1.7,2.5,3.1,2.5,5.4
		c0.1,2.7,2.8,4.9,5.8,5.4c0.7,0.1,1.6,0.5,1.9,1.1c2.3,4.2,3.5,4.9,8.2,4.6c0.4,0,0.9,0.1,1.6,0.3c-0.3,0.9-0.5,1.7-0.8,2.4
		c-7.5,21.3-12.1,43.2-11.1,65.8c0.4,10,2.5,20,3.6,30c1.7,14.8,3.3,29.7,5,44.5c1.5,13.8,2.9,27.7,4.4,41.5
		c1.8,17.3,3.5,34.6,5.4,51.9c1.5,13.3,3.2,26.6,4.9,39.9C319.4,942.1,319.4,942.8,319.6,943.8z"/>
	<path class="st0" d="M449.7,502.3c-2.4,4.5-5,8.9-7.3,13.5c-4.3,8.2-8,16.7-12.9,24.4c-13.6,21.4-32.3,37.3-54.4,49.4
		c-21.9,11.9-45.5,16.7-70.2,16.6c-22.4,0-44.2-4.5-65.6-10.6c-12.9-3.7-25.9-7.2-38.9-10.9c-3.2-0.9-6-0.6-8.7,1.4
		c-3.5,2.6-7.6,2.6-11.7,2c-13.4-2.1-25.2-7.5-34.2-17.9c-6.3-7.3-12.7-14.6-18.8-22.1c-1.7-2.1-2.9-4.8-3.9-7.3
		c-4.2-10.6,1.3-20.8,12.4-23.4c5.4-1.3,10.7-0.8,16.1-0.2c1.3,0.1,2.6,0.3,3.9,0.4c2.9,0.2,3.4-0.3,3.9-3.2
		c0.1-0.8,0.2-1.7,0.2-2.5c0-0.7,0-1.5,0-2.2c0.4-0.1,0.5-0.2,0.6-0.1c9.5,4.4,19.7,3.6,29.8,4.3c1.1,0.1,2.4,0.2,3.3,0.7
		c17.5,11.6,36.4,14.1,56.3,8.5c14.6-4.1,28.5-9.9,40.8-18.9c4.1-3,7.5-6.9,11.4-10.5c0.1,0.2,0.3,0.6,0.5,1
		c1.7,3.4,4.2,5.9,7.7,7.2c11.8,4.5,22.7,2.6,32.7-4.9c5.4-4,7.5-9.6,6.4-16.3c-0.1-0.5-0.1-1-0.2-1.8c2.8,0.6,5.5,1.2,8.2,1.7
		c13.2,2.1,26.1,0.2,38.8-3.4c8-2.3,15.7-4.9,22.3-10.2c8.3-6.6,13.6-15.1,16.6-25.2c0.3-1,1.1-2.3,2-2.7
		c8.8-4.1,15.7-10.4,21.4-18.2c1.4-1.9,3.8-2.9,5.9-4.3c0.3-0.2,1,0.2,1.5,0.4c3.3,1.4,5.4,4,6.1,7.4c0.9,4.4,1.7,8.9,2,13.4
		c0.8,13.2,0.7,26.3-2,39.3c-1.4,7-4,13.4-9.4,18.4c-1.9,1.8-3.5,3.9-5.3,5.8C453.7,504.2,453.6,504.2,449.7,502.3z M277,531.1
		c-4.2,2.8-5.2,6-3.1,9.9c1.1,2,2.4,4,4,5.6c15.6,15.9,34,24.9,56.7,23.5c11.5-0.7,22.2-3.9,30-12.8c5.7-6.5,10.2-14,14.8-21.4
		c2.7-4.2,3.8-9.1,3.3-14.2c-0.6-6-4.4-9.8-10.4-9.8c-3.2,0-6.5,0.1-9.6,0.8c-6.6,1.6-13,3.9-19.5,5.6c-15.5,4.1-31.5,5.7-47.4,7.1
		c-4.3,0.4-8.5,1.3-12.8,2c0,0.3,0.1,0.5,0.1,0.8c2.2-0.2,4.4-0.5,6.7-0.7c0.6,3.9,1.2,7.4,3.9,10.6c-0.8-3.7-1.5-6.9-2.3-10.7
		c3.6-0.1,6.8-0.3,10-0.3c0.4,0,1,0.9,1.2,1.5c0.7,2,1.2,4,1.9,6.1c0.1,0,0.3-0.1,0.4-0.1c-0.3-2.4-0.6-4.9-1-7.6c4,0,7.5,0.1,11,0
		c3.4-0.1,3.4-0.1,4.3,3.3c0.1,0.2,0.1,0.5,0.2,0.7c0.9,1.8,0.1,3.1-1.5,3.6c-3.4,1.1-6.9,2-10.3,3.1c-0.8,0.2-1.6,0.7-2.1,1.3
		c-2.7,3.9-7.3,4.3-10.6,0.9c-0.4-0.4-1-0.9-1.5-0.8c-4.8,0.9-9.3-0.3-13.9-1.1C276.3,537.5,274.9,534.4,277,531.1z M181,578.3
		c0.4,0,0.7,0,1.1,0c0.5-1.4,1.4-2.8,1.3-4.2c-0.1-2.9-0.2-6.1-1.3-8.8c-4.9-12-13.6-20.7-25.3-26.4c-5.6-2.7-11.5-3.2-17.5-1.2
		c-1.1,0.4-2,1.3-3,1.9c2.1-0.1,3.9-0.9,5.7-1.2c5.5-0.8,10.8,0,15.7,2.5c13,6.7,20.4,17.4,22.1,31.9
		C180.2,574.8,180.6,576.6,181,578.3z M458.7,444.1c2.1-2.7,4.3-4.4,7.8-2.5c2.9,1.6,4.1,4.3,5.5,7.1c0.3-4.1,0.6-8.1,0.2-12.1
		c-0.3-3.4-2.6-4.2-5.4-2.3C463.2,436.7,460.8,440.2,458.7,444.1z M280.5,536.1c0.2-0.1,0.3-0.1,0.5-0.2c-0.2-2.2-0.4-4.4-0.6-6.8
		c-0.8,0.4-1.3,0.7-1.8,0.9C279.2,532.3,279.8,534.2,280.5,536.1z"/>
	<path class="st0" d="M153.2,460.4c-0.2-2-0.3-3.9-0.5-5.9c-1.1-10.3-1.8-20.7-3.3-31c-1.1-7.3-3.7-14.3-5-21.6
		c-1.3-6.8-2-13.7-2.6-20.6c-0.7-7.6-1.3-15.2-1.5-22.8c-0.1-4.3,0.2-8.6,0.9-12.8c0.7-4.7,3.3-8.6,7.3-11.3c11-7.7,22.2-15,35.2-19
		c4.4-1.4,9-2.1,13.4-3.5c4.1-1.4,8.1-3.3,12.2-4.9c0.8-0.3,1.8-0.8,2.6-0.6c18.4,4.6,34.9,0.3,49.8-10.9c3.6-2.7,7.2-5.6,11.2-7.7
		c4.2-2.2,8.9-3.4,13.2-5.4c11.7-5.4,24.2-7.7,36.9-8.8c7.1-0.6,14.3-1,21.4-0.5c15.6,1.2,27.9,8.6,36,22
		c13.7,22.6,27.1,45.3,38.5,69.2c0.4,0.7,0.6,1.5,1.1,2.6c-5.3-0.9-10.2-0.2-14.9,1.1c-0.6,0.2-1.6-0.4-2.2-0.9
		c-9.4-6.5-19.7-10.8-31.2-11.9c-34.7-3.3-63.8,18.3-67.5,53.5c-0.5,4.6-0.1,9.3-0.5,14.1c-1.1-1.6-2.1-3.2-3.2-4.7
		c-10.4-14.5-24-24.5-41.8-27.1c-23.4-3.4-44,2.6-61,19.7c-7.5,7.5-13.7,16-18.1,25.7c-0.3,0.6-0.9,1.4-1.5,1.6
		c-10.3,3.8-16.9,11.7-22.7,20.5c-0.4,0.7-0.9,1.3-1.3,2C153.5,460.5,153.4,460.4,153.2,460.4z M167,390.1c0.3,2.3,0.3,4.6,0.9,6.8
		c0.8,3.1,3.9,3.8,6,1.3c1.1-1.3,2-2.9,2.8-4.5c1.8-3.6,3.3-7.3,5.2-10.8c4.3-7.8,10.1-13.7,19.1-15.8c6.9-1.6,13.6-0.2,20.1,2.1
		c6.9,2.5,13.6,5.2,20.6,7.5c5.7,1.8,11.5,2.9,17.5,1c4.4-1.4,7.3-4.7,7.2-8c0-3.2-2.7-6.1-7.1-7.6c-2.1-0.7-4.3-1-6.5-1.5
		c-10.3-2.6-20.5-5.3-30.9-7.8c-3.6-0.9-7.3-1.2-11-1.6c-12.2-1.3-22,3.1-30.8,11.6C172.4,370.5,166.6,378.6,167,390.1z M300,344.8
		c0.4,4.5,3.3,7.2,7.8,6.2c5.6-1.2,10.9-3.6,14.1-8.5c3-4.6,5.1-9.8,7.5-14.8c2.1-4.4,3.7-9,6-13.3c3.3-6.2,9.6-8.4,16.1-5.8
		c7.6,3.1,15.1,6.6,21,12.7c0.9,0.9,2,1.7,3.1,2.4c1.6,1.1,3.5,1.6,5.2,0.3c1.7-1.3,2-3.3,1.1-5c-1.7-3.2-3.2-6.6-5.7-9.1
		c-9.4-9.7-21-15.1-34.6-16.1c-6.8-0.5-12.3,1.5-16.6,7c-3.7,4.7-6.7,9.7-8.8,15.3c-2.9,7.5-5.7,15.2-12.2,20.6
		c-0.9,0.8-1.7,1.9-2.2,3C301.1,341.5,300.6,343.2,300,344.8z"/>
	<path class="st0" d="M493,533.5c-1.1,10.1-6.8,17.5-16.3,22.7c0.8,0,1.2,0.1,1.6,0c8.1-2.5,14.3-7.2,17.3-15.3
		c2.5-6.5,4.6-13.1,6.8-19.6c0.4-1.3,1-2.7,1-4c0.2-6.4,3.8-11.1,7.4-15.8c2.4-3.1,5-6.1,7.6-9c2-2.2,2.9-4.3,1.6-7.3
		c-1-2.4-1-5.1-1.6-7.7c-0.1-0.6-0.4-1.6-0.8-1.7c-3.4-1-5.9-4.1-9.9-3.8c-1.5,0.1-3.3-0.9-4.5-1.9c-2.6-2-2.5-6.1,0.4-7.6
		c3.2-1.7,6.7-3.1,10.2-4c1.5-0.4,3.6,0.5,5.2,1.3c3.2,1.6,6.2,3.4,9.2,5.3c3.4,2.1,5.7,5,6.2,9.2c0.8,7.8,5.7,13.3,11.5,18.2
		c-1.2-2.5-2.1-5.1-3.5-7.4c-3.4-5.3-2.5-10.5-0.2-15.8c0.4-0.9,0.2-2.1,0-3.1c-0.6-2.8-1.3-5.7-2.1-8.5c-0.4-1.2-0.9-2.6-1.8-3.5
		c-3.6-3.9-4.5-7.8-2.2-11.5c2.5-4.1,7.2-4.3,10.3-0.7c1,1.1,2.6,1.9,4.1,2.4c4.3,1.5,6.7,4.2,7.6,8.7c0.7,3.4,2.1,6.6,3.3,9.8
		c1.8,4.9,1.6,9.8-0.3,14.6c-1.7,4.4-2.1,8.9,0,13.2c0.9,1.8,2.1,3.5,3.2,5.2c0.2-0.1,0.4-0.2,0.6-0.3c-0.1-0.5-0.2-1-0.4-1.6
		c-0.4-1.5-0.8-3-1.1-4.5c-0.6-3.5-0.2-6.5,3.5-8.3c4.7-2.4,7.3-6,7.4-11.6c0-2.4,1-4.7,0-7.3c-1.1-3,0-6.1,1.9-8.7
		c2-2.8,7.1-2.7,9.2,0.1c0.2,0.2,0.3,0.5,0.5,0.7c5,4.6,6,10.3,4.3,16.7c-0.7,2.7-1.1,5.4-1.5,8.2c-1,6.3-3.9,11.4-9.4,14.7
		c-6.7,4-9.6,10.1-11.1,17.3c-0.2,0.9-0.4,1.8-0.2,2.9c0.9-1.5,1.9-3,2.7-4.5c2.1-3.5,4-3.9,7.5-1.5c0.5,0.4,1,0.7,1.5,1.2
		c0-2.3-0.1-2.4-5.2-5.4c1.7-2.9,4.3-4.5,7.4-5.5c1.9-0.6,4.8,2.1,5,4.6c0.1,1,0,2.1-0.4,2.9c-1.9,4.1-3.8,8.3-5.9,12.3
		c-2.1,3.9-5.3,6.6-9.6,8.2c-6.2,2.3-12.3,4.9-18.4,7.5c-3.6,1.5-6.4,4-8.3,7.4c-4.4,8-8.9,15.9-12.9,24
		c-6.1,12.1-14.5,22.5-23.8,32.2c-6,6.2-13.5,6.8-21.1,2.1c-13.3-8.3-21.1-20-21.2-36.1c0-4.8-0.2-9.6,0.5-14.3
		c0.9-6.6,6.1-10.4,11.4-11.4C482.6,537.3,487.8,535.1,493,533.5z"/>
	<path class="st0" d="M335.3,267.6c2.3-7.7,4.8-15.1,6.8-22.6c2.5-9.7,4.7-19.4,6.9-29.2c0.6-2.6,0.4-5.4,0.3-8
		c-0.1-2.9-1.3-5.4-3.2-7.7c-1.1-1.3-1.9-3-2.4-4.6c-1.1-3.4-1.7-7.1-3.1-10.4c-3.1-7.4-10.1-9-16.3-3.8c-3.9,3.3-6.5,7.6-8.6,12.2
		c-4.1,9.2-7.6,18.7-12,27.7c-7.9,16.3-12.8,33.6-17.3,51.1c-1.2,4.5-3.5,6.8-7.7,7.9c-2.7,0.7-5.2,1.7-8.2,2.6
		c0.1-0.9,0.2-1.7,0.4-2.6c3.2-17.3,7.6-34.2,13.8-50.7c6.9-18.3,12.6-37,18.8-55.5c1.8-5.2,3.8-10.4,5-15.8
		c1.8-7.4,0.1-14.8-1.2-22.2c-1.3-7.9-2.5-15.8-3.4-23.7c-0.8-7.8,0.2-15.5,3-22.9c3.2-8.6,6.2-17.2,11.2-25c3.8-6,6.8-6.2,10.5-0.1
		c2.8,4.6,4.7,9.6,6.8,14.6c7.9,18.5,15.7,37,23.4,55.5c2.9,7,5.7,14.1,8.3,21.3c4.6,12.9,3.9,25.9,0.6,38.9
		c-6.1,24.2-13.1,48.1-22.1,71.4c-0.7,1.9-1.7,2.4-3.6,2.2C340,267.7,337.7,267.7,335.3,267.6z"/>
	<path class="st0" d="M195.1,509.6c3.7-0.6,7-1.1,10.3-1.8c3.2-0.8,6.4-1.7,9.4-3c3.7-1.5,4.3-4.9,1.1-7.4
		c-3.5-2.8-7.2-4.9-12.2-2.5c-5.3,2.6-11.1,2.9-16.9,3c-1.5,0-2.2-0.6-2.8-1.8c-4.5-9.4-5.8-19.4-5.6-29.7c0-3.1,0.2-6.2,0.6-9.2
		c0.1-1,1-2.5,1.8-2.7c2.6-0.8,5.3-1.5,8-1.3c2.3,0.1,3.9-0.4,4.6-2.5c1.1-3.2,2.2-6.4,2.9-9.7c0.6-2.9-0.8-4-3.8-3.4
		c-3.1,0.6-6.1,1.4-9.6,2.3c1.2-2.4,2.1-4.6,3.2-6.6c6.3-11.6,14.9-21.1,25.8-28.5c27.8-19,65.9-11.2,85,17.1c1,1.5,2,3.1,3.2,5
		c-1.9,0.5-3.5,0.9-5.6,1.5c5.5,6.1,5.9,13.9,8.2,21.1c1.7-0.5,3.3-1,5.2-1.6c0.7,5.4,0.5,10.5-0.2,15.6c-0.6,4.4-1.6,8.8-4.1,12.6
		c-0.9,1.5-1.7,3.2-2.1,4.9c-2.2,8.5-7.8,14.3-14.5,19.3c-8.7,6.5-18.7,10.6-28.7,14.5c-10,4-20.3,6.3-31.1,5.8
		c-10.9-0.5-21-3.7-30.2-9.6C196.4,510.8,195.9,510.3,195.1,509.6z M295.3,450.1c-0.1-1.5-0.2-3.3-0.4-5
		c-1.2-10.3-5.2-19.3-13.3-26.1c-18.1-15.4-45.1-15.1-62.8,0.7c-12.1,10.8-17.7,24.3-15.1,40.3c3.1,18.8,14.8,31.1,32.7,36.3
		c17.9,5.1,34.1,0.3,47.3-12.9C292.7,474.4,295.5,462.8,295.3,450.1z M242.9,507.9c2,4,5.9,6.3,9.4,5.7c2.7-0.5,4.8-2.9,5.1-5.7
		C252.6,507.9,247.8,507.9,242.9,507.9z"/>
	<path class="st0" d="M167.8,683.5c-2.2-2.1-4.2-3.9-6.3-5.9c-0.2,2.7-1.6,4.5-4,5.5c-2.2,0.9-4.4,1.6-6.5,2.6
		c3.5,0.2,6.8-0.2,9.9-1.9c1.9-1,2.7-0.5,2.7,1.8c0,0.6-0.1,1.2,0,1.8c0.4,2.6,1.7,4.8,4.1,5.7c2.2,0.9,4.3-0.4,5.8-2.1
		c3.3-3.6,6.7-7.3,6.6-12.7c0-0.6,0.5-1.2,0.8-1.8c0.8-1.7,1.9-3.4,2.4-5.2c0.5-2.2,1.3-4,3.1-5.6c1.4-1.3,2.7-1.7,4.3-1.2
		c3,0.9,5.9,2,8.9,2.9c1.2,0.4,2.5,0.3,4,0.5c0.3,2.9-0.7,5.8-2.2,8.5c-1.4,2.5-3.3,4.6-5.1,6.9c-1.3,1.7-3,2-4.9,0.9
		c-3.3-1.9-6.7-3.7-10.4-5.3c0.7,0.9,1.3,1.9,2.1,2.7c2.1,2,4.1,4.1,6.4,5.9c3.3,2.6,6.5,2.5,9.6-0.4c1.8-1.7,3.1-3.8,4.7-5.6
		c1-1.1,2.2-2.3,3.5-2.7c5.7-1.7,11.4-3.1,17.3-4.6c0.4,2.6,0.5,4.8,1.2,6.9c1.7,5.7,3.4,11.3,5.6,16.8c1.8,4.6,3,9.1,3.1,14
		c0.3,7.7,3,14.6,6.9,21c1.2,1.9,1,2.5-1.3,2.9c-3.9,0.5-7.8,1.2-11.7,1.1c-8.6-0.2-17.2-0.7-25.8-1.3c-11.7-0.9-21.7-5.6-29.9-14.2
		c-7.2-7.4-14.6-14.8-22.5-21.5c-7.3-6.2-9.3-13.3-6.7-22.2c0.3-1,0.5-1.9,0.8-2.9c0.9-3.3,2-6.3,5.7-7.7c4.1-1.6,8.2-3,12.4-0.8
		c3.1,1.6,6.3,3.3,9,5.5c3.6,2.9,5.8,7.6,1.6,12.8c-1,1.2-1.8,2.5-2.8,3.6c-0.3,0.3-0.7,0.5-1.2,0.8
		C166.5,687.4,167.1,685.3,167.8,683.5z"/>
	<path class="st0" d="M401.8,372.8c0,0.8-0.1,1.5,0,2.1c0,0.2,0.4,0.4,0.6,0.7c2.7,2.6,5.3,5.1,8.1,7.8c1.7-1.4,2.9-0.2,4.1,1.2
		c5.5,6.4,9.5,13.7,12.2,21.5c1.7,4.8,2.9,9.9,4.4,14.8c0.5,1.6,0.1,2.9-1.7,3.1c-4.8,0.6-6.5,3.4-7.2,7.9c-0.5,3.3-2.5,6.4-4,9.9
		c3.8-1.5,7.6-2.9,11.9-4.5c-0.2,1-0.3,1.8-0.5,2.6c-4.2,14.9-13.5,25.1-28.3,30.2c-12.2,4.1-24.6,7.1-37.6,6.3
		c-21.3-1.3-37-11.6-47.9-29.7c-0.3-0.4-0.4-0.9-0.9-2.1c4.8-0.7,9.3-1.3,14.3-2c-4.5-6.8-7.6-14.1-8.9-22.6
		c-4.1,1.3-7.9,2.6-11.7,3.8c-3.4-17.8,3.7-41.5,22-54C351.8,355.6,380.1,355.8,401.8,372.8z M371.3,370.2
		c-10.8,0.5-20.1,2.6-28,8.8c-10.6,8.2-15.6,19.5-16,32.7c-0.6,22.4,13.9,40.9,36.1,46.3c11.2,2.7,22,2.2,31.7-4.4
		c18.2-12.2,27.1-33.8,16-58C403.4,378.3,388.4,371.6,371.3,370.2z M347.4,463.5c1.6,3.6,3.4,7.1,7.6,8.3c3.3,1,5.9-0.7,6.3-3.7
		C356.7,466.6,352.1,465.1,347.4,463.5z M326.3,383.6c-3.9-0.1-6.7,1.2-7.9,3.4c-1.3,2.4-1.1,7.8,0.5,10.2
		C321.3,392.6,323.7,388.2,326.3,383.6z M394.1,465.5c3,1.8,6.2,1.8,8.3,0.1c1.7-1.4,2.1-3.5,1.1-6.3
		C400.3,461.4,397.2,463.4,394.1,465.5z"/>
	<path class="st0" d="M406.3,636.3c7,8.5,16,12.7,27.3,12.8c-0.9,0.7-1.2,1.1-1.7,1.3c-8.8,5.2-15.2,12.7-19.7,21.7
		c-3.8,7.6-8,15.1-11,23.1c-2.6,7.1-3.9,14.8-5.5,22.3c-0.3,1.5-0.8,2.3-2.1,2.9c-11.4,5.6-21.3,4.5-30.3-4.4
		c-6.8-6.7-13-14-19.2-21.2c-9.2-10.6-18.1-21.4-27.2-32c-1-1.2-2.2-2.3-3.2-3.4c3.1-3.2,6-6.3,9-9.3c1.3-1.3,2.3-0.3,3.3,0.8
		c6,7,11.7,14.3,18.2,20.9c9.2,9.5,19,18.4,28.5,27.6c1.2,1.1,2.8,1.9,4.5,2.9c-8.3-8.5-16.2-16.7-24.5-25.2
		C371,663.5,387.1,648,406.3,636.3z"/>
	<path class="st0" d="M451.4,566.2c0.7,10.1,4.5,18.6,10.2,26.2c5.7,7.6,12.1,14.4,21.3,18c-0.3,0.4-0.5,0.6-0.7,0.8
		c-8.2,6.3-16.6,12.5-24.7,19c-6.8,5.3-13.4,10.9-20,16.4c-1.9,1.6-3.7,1.8-6.1,1.2c-16.1-4.6-24.8-15.9-29.3-31.3
		c-2.1-7.4-3-14.9-2.1-22.1c2.3-1.3,4.6-2,6.2-3.5c5.6-5.3,12.3-9,19.1-12.5c7.3-3.8,14.7-7.3,22.1-10.9
		C448.6,567,449.9,566.7,451.4,566.2z"/>
	<path class="st0" d="M414.5,782.4c-7.2-19-13.3-38-14-58.2c-0.2-4.3,0.1-8.5,1.5-12.7c2-6,2.9-12.3,5.3-18.1
		c3.1-7.7,7.2-14.9,10.9-22.4c3.4,1.5,5.8,3.8,7.5,6.7c3.5,6,8.4,10.6,14.1,14.4c9.4,6.3,12.4,15.5,11.5,26.3
		c-0.7,8.4-3.6,16.2-6.7,23.9c-0.5,1.2-1.8,2.1-2.8,3.1c-0.3-0.1-0.5-0.2-0.8-0.3c0-1.4,0.1-2.8,0-4.2c-0.4-9-0.9-17.9-1.4-26.9
		c-0.2-4.1-2.6-7-6-9.1c-5.6-3.5-11.8-5.1-18.3-6c-0.2,0-0.5,0.1-0.9,0.7c0.7,0.2,1.3,0.4,2,0.7c4.4,1.9,8.9,3.7,13.2,5.9
		c3.8,2,6.2,5,6.2,9.7c0,8.4,0.1,16.8,0.4,25.1c0.1,2.7,0.7,5.4,1,8.1c0.1,0.5,0.1,1.1-0.1,1.5c-5.2,10.3-10.6,20.3-18.9,28.6
		C417.2,780.3,415.9,781.2,414.5,782.4z"/>
	<path class="st0" d="M352,676c-7-8.5-13.7-16.7-20.4-24.9c-0.4-0.5-0.3-1.4-0.3-2c0-1.1,0.4-2.3,0-3.1c-1.5-2.7-0.9-5.5-1.4-8.3
		c-0.8-4.9,1.6-7.7,4.9-10.5c11.4-9.5,23.5-17.9,37.1-23.9c2.5-1.1,5.1-1.8,7.5-2.9c1.2-0.5,2.2-1.5,3.4-2.1
		c4.9-2.5,10.2-3.5,16-4.7c-2.5,7.5-3,14.7-1.6,22.1c1.4,7.3,4.1,14,8.2,19.8c-4.4,1.9-8.9,3.4-12.9,5.6
		c-15,8.2-27.5,19.6-38.6,32.5C353.5,674.3,352.9,675,352,676z M396.4,624.4c-18.6,1.1-36.5,5.2-53.7,12.4
		C361.3,635.7,379.2,631.6,396.4,624.4z"/>
	<path class="st0" d="M315.4,986.6c6.5-0.8,12.7-1.6,18.9-2.4c0.1,0.3,0.2,0.8,0.2,1.2c-0.5,13.8,1.2,27.5,4,41
		c0.4,2.1,0.5,4.3,0.8,6.4c0.4,2.9-0.8,5-3,6.8c-4.7,3.8-10.3,5.6-16.2,5.8c-5.1,0.2-10.3-0.1-15.4-0.3c-6-0.1-12,0.3-17.3,3.3
		c-5.7,3.1-11.8,4.3-18.1,4.6c-10.2,0.4-20.3,0.1-30-3.5c-1.2-0.4-2.3-0.9-3.4-1.5c-7.8-3.9-10.1-9.7-6.9-18
		c3.4-8.8,11.3-14.5,20.8-14.6c4.4-0.1,8.8,0.2,13.2,0.3c1.4,0,1.8,0.6,2.2,1.8c2.4,6.6,4.9,13.3,7.5,19.9c1.2,3.1,4,4.1,7.1,3.3
		c10.8-2.7,21.6-5.4,32.5-7.9c1.7-0.4,2.4-0.9,2.4-2.8c0.2-13.3,0.6-26.6,0.9-39.9C315.4,988.9,315.4,987.7,315.4,986.6z"/>
	<path class="st0" d="M399.3,1058.6c0.7,0.3,2,0.9,3.2,1.4c12.6-7.6,26-11,40.7-8c3.5,0.7,6.9,1.5,10.3,2.5c0.8,0.2,1.9,0.9,2.2,1.7
		c2.7,5.9,5.9,11.8,7.8,18c2.5,8.4-0.1,14.1-7.8,16.9c-16,5.7-31.8,5-46.8-3.3c-8-4.4-12.1-11.6-12.3-20.9
		c-0.1-5.1-1.5-9.5-4.4-13.6c-1.7-2.4-3.3-5-4.9-7.5c-3.1-5-3.5-10.3-1-15.6c1.8-3.7,3.8-7.3,5.7-10.9c0.2,0.1,0.4,0.1,0.7,0.2
		c0,0.9,0.2,2-0.2,2.8c-1,2.3-2,4.7-3.5,6.7c-1.5,2-2.1,3.9-1.3,6.2c0.8,2.2,1.7,4.3,2.8,6.3
		C393.3,1047.1,396.3,1052.7,399.3,1058.6z"/>
	<path class="st0" d="M367.2,977.3c24.4-1.1,47.2-7.7,69.8-15.7c1.8,3.3,3,6.7,2.7,10.6c-0.2,3.1-2.3,4.9-4.7,6.4
		c-10.7,6.5-22.2,11.3-34.5,13.8c-7,1.4-14,2-21.1,0.7c-5.5-1-9.2-4-10.5-9.6C368.4,981.5,367.8,979.6,367.2,977.3z"/>
	<path class="st0" d="M319.9,501.9c-3-0.8-6.2-1.2-9-2.4c-3.8-1.5-5.3-4.7-5.1-8.7c0.6-9.8,9.7-20.8,19.2-23.2
		c1.4-0.4,2.5-0.1,3.8,0.7c4.8,2.9,9.7,5.6,14.5,8.4c0.9,0.5,1.8,1.3,2.2,2.1c2.2,5.2,1.4,10-2.6,14c-4.6,4.7-10.6,6.6-16.9,7.8
		c-2,0.4-4,0.5-5.9,0.7C320,501.6,320,501.8,319.9,501.9z"/>
	<path class="st0" d="M225.9,1046.9c8.7,8.1,19.2,10.3,30,10.8c7.3,0.4,14.7-0.2,22.1-0.8c2.5-0.2,5.2-1,7.4-2.3
		c7.7-4.3,15.8-5.1,24.4-4.3c6.2,0.6,12.3,0.4,18.3-1.2c5.4-1.5,10.2-4,13.8-8.3c0.2-0.2,0.4-0.4,0.7-0.6c0,10.6-3.3,15.7-15.6,18.1
		c-7.8,1.5-15.4,1.2-22.9-1.6c-4.2-1.6-8.4-1.6-12.6-0.1c-2.5,0.9-5,1.6-7.4,2.5c-6,2.4-12.2,3.6-18.7,3.6
		c-9.8,0.1-19.6-0.4-28.9-3.6c-3-1.1-5.9-2.9-8.5-4.8C225.7,1052.7,225.2,1050.1,225.9,1046.9z"/>
	<path class="st0" d="M445.9,377.1c-1.8-1.1-3.1-1.7-4.1-2.6c-0.5-0.5-0.9-1.5-0.9-2.3c0.3-8.2,0.6-16.3,1-24.4
		c0.7-17.4,1-34.9,2.4-52.3c1-12.2,0.8-24.4,1.3-36.7c0-0.6,0.6-1.2,0.9-1.8c0.4,0.6,1,1.2,1,1.8c-0.1,9.4-0.2,18.8-0.4,28.2
		c-0.4,25.7-0.8,51.4-1.2,77C445.8,368.3,445.9,372.5,445.9,377.1z"/>
	<path class="st0" d="M264.4,658.7c-6.6,15.6-13.7,30.9-16.8,47.6c-0.4-4.9-1.5-9.4-3.9-13.6c-1.6-2.7-3.2-5.4-4.6-8.2
		c-1.9-3.6-1.5-4.3,1.7-6.8c7.7-6,15.2-12.2,22.9-18.3C263.8,659.2,264.1,659,264.4,658.7z"/>
	<path class="st0" d="M453.4,418.7c0.8-3.2,0.2-6.1-2-8.6c-2.7-3.1-5.9-2.9-8.2,0.5c-0.9,1.2-1.6,2.5-2.4,3.8
		c-0.2-0.1-0.4-0.2-0.6-0.3c1.6-4.5,3.2-9,4.9-13.6c-6.6-1.2-9.4-6.6-12.8-11.6c3.4,1.3,5.2-0.5,6.9-2.8c1.7-2.3,1.8-4.8,0.4-7.3
		c0.2-0.1,0.3-0.2,0.5-0.3c0.9,0.7,1.8,1.4,2.6,2.3c2.2,2.5,4.2,5.1,6.5,7.5c3.7,3.8,3.9,5.2,1,9.6c-0.3,0.4-0.6,0.9-0.9,1.4
		c1.8,0.7,3.6,1.2,5.3,2.1c2.4,1.2,3.1,2.9,2.5,5.5c-0.7,3.2-1.4,6.5-2.2,9.7c-0.2,0.8-0.5,1.6-0.8,2.3
		C453.7,418.8,453.6,418.8,453.4,418.7z"/>
	<path class="st0" d="M395.5,1081.8c2.4,2.6,4.3,5.2,6.6,7.2c6.3,5.3,13.9,7.9,21.8,9.4c10.5,2.1,20.8,1.4,31-1.8
		c4.2-1.3,8.1-3.4,11.1-6.8c0.4,2.5-0.7,5.1-3,7.3c-3,3-6.7,4.6-10.7,5.6c-11.5,3-23.1,3-34.4-0.1c-9.9-2.7-17.4-8.6-21.6-18.3
		C396,1083.6,395.8,1082.8,395.5,1081.8z"/>
	<path class="st0" d="M313,649.3c0.4-0.3,0.8-0.5,1.1-0.8c1.6-1.5,3.3-3,4.9-4.4c0-0.3,0.1-0.5,0-0.6c-2.6-3-3.5-6.1-2.1-10.2
		c1.1-3.2-0.8-5.5-4.6-7.5c2.4-3.3,3.5-3.5,6.6-1.1c2.4,1.8,4.6,3.8,7.1,5.8c-1.8,1.6-1.2,3.3-0.9,5.3c0.4,2.9,0.1,5.9,0.1,9.1
		c-3.2-0.3-5.5,1.7-7.7,3.9c-2.2,2.2-4.6,4.3-6.9,6.5c-0.6,0.6-1.4,1.3-1.4,2c0,3-2.3,2.6-4,3c-1.6,0.3-2.6-0.9-2.2-2.1
		c0.5-2-0.6-2.4-1.9-3.1c-0.9-0.5-1.7-1-2.5-1.5c2.5-4.4,7.6-5,11.3-8.3C310.8,646.6,311.8,647.9,313,649.3z"/>
	<path class="st0" d="M330.2,624.8c-2.3-1.8-4.4-3.4-6.8-5.3c3-2.5,5.8-4.8,8.5-7.2c3.2-2.8,6.7-4.5,10.9-5.4
		c13.2-2.8,25.6-7.8,37.2-14.6c2.8-1.6,5.6-1.9,8.7-1.5c-1.2,0.4-2.5,0.8-3.6,1.3c-19.1,8-37.4,17.2-53,31.1
		C331.6,623.7,331,624.1,330.2,624.8z"/>
	<path class="st0" d="M293.8,642.1c0.4-1.3,0.6-2.7,1.2-3.9c2.6-5.3,6.6-9.2,12.4-10.9c5-1.4,8.3,1.6,6.7,6.6
		c-2.1,6.8-6.8,11.3-13.6,13.1C296.5,648.2,293.8,646,293.8,642.1z"/>
	<path class="st0" d="M179.7,675.4c-8-12.3-16.6-15.9-29.6-12.2c2.7-3.7,5.1-7.1,7.6-10.4c0.3-0.4,1.4-0.5,2.1-0.5
		c7.3,0.1,13.3,3.2,18.6,7.9c0.4,0.4,0.9,1,1,1.5C180.3,666.3,181,670.6,179.7,675.4z"/>
	<path class="st0" d="M276.7,971.3c19.5,4.5,39.3,5.9,59.2,6.4c0,0.2,0.1,0.4,0.1,0.6c-2.5,0.6-4.9,1.4-7.4,1.8
		c-13,2-26.1,2.2-39-0.7c-3.3-0.8-6.5-2.4-9.5-3.9c-1.5-0.8-2.6-2.3-3.8-3.5C276.4,971.8,276.5,971.5,276.7,971.3z"/>
	<path class="st0" d="M154.6,466.6c2.6,5.1,8.3,7.3,12.7,4.9c0.1,0.1,0.3,0.3,0.2,0.3c-2,5-2.9,10.4-6.5,14.6
		c-3.2,3.7-7.6,3.6-10.6-0.2c-0.8-1-1.5-2.5-1.4-3.7C149.4,476.7,153.1,472.1,154.6,466.6z"/>
	<path class="st0" d="M201.5,662.5c-2.3-0.6-4.2-1.1-6-1.5c2-1.4,4.1-2.8,6.5-4.4c-0.6-0.3-0.7-0.4-0.8-0.4
		c-6.5,3.5-11.6,0.9-16.3-3.7c-2.4-2.3-2.3-5.3,0.2-7.6c2.7-2.3,6.9-2.7,9.9-0.9c5.8,3.5,8.3,8.7,8,15.3
		C202.8,660.5,201.9,661.6,201.5,662.5z"/>
	<path class="st0" d="M302.1,431.3c5-1.9,10-3.8,14.9-5.6c1.7,4.6,3.2,8.8,4.7,12.9c-5.2,1.7-10.5,3.4-16,5.2
		C304.5,439.5,303.3,435.5,302.1,431.3z"/>
	<path class="st0" d="M169.1,508.1c-1.3-0.4-2.7-0.7-3.9-1.2c-3-1.3-6-2.8-9-4.2c-3.2-1.5-4.8-4.8-3.7-8c1.2-3.8,4.8-6.2,8.4-5
		c3.5,1.2,6.8,3.1,10.1,4.8c-4,0.5-5.6,3.2-6.4,6.5c-1.1,4,2,5.3,5,6.5C169.3,507.6,169.2,507.9,169.1,508.1z"/>
	<path class="st0" d="M308.8,611.4c-1.7,1.4-3.3,2.4-4.5,3.8c-0.8,0.9-1.5,2.5-1.3,3.6c0.2,1.4-0.1,2.1-1,3
		c-3.7,3.4-7.4,6.8-11.1,10.2c-2.8-4-2.8-8.9,0.6-13c1-1.2,2.1-2.4,3.3-3.5C299.4,611.3,302.1,610.5,308.8,611.4z"/>
	<path class="st0" d="M447.9,238.2c4,0,7.4,3.3,7.3,7.1c0,3.9-3.6,7.1-7.7,7c-4.2-0.1-7.6-3.4-7.5-7.2
		C440.2,241.1,443.7,238.1,447.9,238.2z"/>
	<path class="st0" d="M176.7,492.9c-3.3-1.9-6.8-3.9-10.2-5.8c2.2-5.7,4.3-11.4,6.4-17.1C174.2,477.6,175.4,485.1,176.7,492.9z"/>
	<path class="st0" d="M423.1,387.1c2.5,1.1,4.8,2.2,5.7,5c0.4,1.3,1.4,2.5,2.3,3.4c3.2,3,4.6,7,6.2,10.9c0.2,0.6,0.4,1.4,0.2,2
		c-0.6,2.1-1.4,4.1-2.3,6.6C431.9,405.1,428.7,395.6,423.1,387.1z"/>
	<path class="st0" d="M323.3,464.2c-3.9,1.7-7.7,3.3-11.6,5c0.4-2.7,0.9-5.6,1.1-8.5c0.2-2.9,0-5.8,0-9.3
		C316.6,456,320,460.1,323.3,464.2z"/>
	<path class="st0" d="M304.5,617.4c2.8-1.4,5.3-2.5,7.8-3.9c0.8-0.5,1.4-1.4,2.2-2c0.4-0.3,0.9-0.6,1.3-0.7
		c3.6-0.3,7.1-0.6,10.8-0.9C321.9,616.2,313,619.6,304.5,617.4z"/>
	<path class="st0" d="M161.9,647.7c1.1-0.1,2.2-0.5,3.3-0.4c3.4,0.5,6.8,1.1,10.1,2c1.1,0.3,2.3,1.5,3,2.6c2,3.5,5.1,5.5,8.4,7.4
		c0.7,0.4,1.5,0.7,2.8,1.4c-2.6,0.5-4.6,1.2-5,3.9c-0.9-3-0.8-5.9-3.3-8.1c-4.6-3.9-9.3-7.4-15.6-7.8c-1.2-0.1-2.4-0.2-3.6-0.3
		C162,648.2,161.9,648,161.9,647.7z"/>
	<path class="st0" d="M391.4,1063.4c-8.5-8.8-10.4-12.2-9.6-17.2C384.5,1052.2,389.9,1056.7,391.4,1063.4z"/>
	<path class="st0" d="M294.8,632.3c0.4,0.4,0.9,1,1.4,1.6c-2.7,4.2-4.7,8.5-2.3,13.6c-0.3,0.1-0.5,0.2-0.8,0.3
		c-0.9-1.7-2.5-3.3-2.5-5C290.5,639,289.6,634.6,294.8,632.3z"/>
	<path class="st0" d="M310.1,623.8c-2.5,1.5-5,3.1-7.6,4.3c-0.5,0.3-1.6-0.6-2.5-1c2.3-4.2,4.2-5,9.7-4.1
		C309.9,623.3,310,623.5,310.1,623.8z"/>
	<path class="st0" d="M391.4,585.4c1.1-0.7,1.6-1.2,2.3-1.6c1-0.6,2.1-1,3.1-1.5c0.3,1.2,0.6,2.4,1,3.9
		C395.6,585.9,393.8,585.7,391.4,585.4z"/>
	<path class="st0" d="M368.5,513.9c1.3,1.6,0.9,2.7-0.3,3.8c-3,2.8-6.4,4.2-10.1,3.4c-0.8,1.4-1.3,2.8-2.2,3.8
		c-3.9,4.2-8.4,6.9-14.5,5.7c-0.6-0.1-1.6,0.5-2.2,0.9c-3.6,2.7-7.4,4.7-12.1,4.5c-1.2,0-2.5-0.3-3.6-0.6c-2.2-0.7-3.8-1.8-3.3-4.6
		c0.2-1.2-0.1-2.4-0.3-3.9c6-1.2,12-2.4,18.3-3.6c0.6,1.7,1.2,3.4,1.8,5.1c0.1,0,0.3-0.1,0.4-0.1c-0.3-1.8-0.5-3.5-0.8-5.4
		c5.4-1.6,10.6-3.2,16-4.9c0.4,0.6,0.8,1.2,1.4,2.2c0-1,0-1.7,0-2.7C360.9,516.3,364.7,515.1,368.5,513.9z"/>
	<path class="st0" d="M350.5,560.2c-1.2-2.8-2.2-5.3-3.2-7.8c-0.2,0.1-0.5,0.2-0.7,0.2c0.7,2.7,1.4,5.4,2.2,8.2
		c-5.7,2.2-11.6,3.1-17.6,2.8c-0.7,0-1.6-1.3-2-2.1c-1.6-3.8-1.6-4,2.1-6c4.4-2.4,9-3.8,14.1-3.9c0.8,0,1.6-0.4,2.3-0.8
		c4-2.2,8.2-3.9,12.8-4.3c1.9-0.1,3.7-0.2,4.1,2.4c0.1,0.6,0.6,1.1,1,1.8C361.1,554.8,356.2,557.9,350.5,560.2z"/>
	<path class="st0" d="M328.2,563.7c-13.4-0.8-26.2-2.6-37.7-9.4c0-0.2,0.1-0.4,0.1-0.6c1.1,0.2,2.2,0.3,3.2,0.6
		c1.8,0.6,3.5,1.2,5.2,1.9c2.7,1,5.1,2.6,8.3,2.3c1.4-0.1,2.9,1.1,4.2,1.6c2.5-1,5.1-2,7.6-2.9c0.6-0.2,1.4-0.3,2-0.3
		c1.7,0.2,3.4,0.3,5,0.7c2.2,0.6,0.8,2.8,1.6,4.1C327.9,562.1,327.9,562.7,328.2,563.7z"/>
	<path class="st0" d="M375,518.6c-2.2,0-4.8-1.9-4.7-3.4c0-1.9,1-2.5,3.7-2.5c2.4,0,4.6,1.3,4.5,2.6
		C378.5,516.9,376.6,518.7,375,518.6z"/>
	<path class="st0" d="M373.9,541.3c-2.3,2.8-4.6,5.5-7,8.3c-3.2-2.9-3.3-4.1-0.1-6.1c2-1.3,4.3-2.1,6.5-3.1
		C373.5,540.7,373.7,541,373.9,541.3z"/>
	<path class="st0" d="M286.4,471.3c-1.8-9.7-4-18.7-7.9-27.1c-4.1-8.7-11.2-13.5-20.4-14.1c-11.9-0.8-23.5,1.3-34,7.5
		c-5.2,3-9.3,7.1-10.2,13.3c-0.5,3.6-0.4,7.4,0,11c0.5,4.3,1.5,8.6,2.3,12.9c0.1,0.7,0.3,1.4,0.2,2.2c-4.3-5.1-7-10.8-7.9-17.3
		c-2.5-17.1,5.6-32,21.3-42c15-9.6,42.3-4.6,53,9.4c4.2,5.6,6.6,11.8,7.3,18.6c0.8,7.8,0.3,15.5-2.5,22.9
		C287.2,469.3,286.9,470,286.4,471.3z"/>
	<path class="st0" d="M275.1,448.6c-13.5-8.4-25.8-2.7-31.4,4.6c-8.1,10.7-6.7,23.2,4.5,35.5c-3,1.1-5.9,2.3-8.8,3.3
		c-0.6,0.2-1.4,0-2-0.2c-3.7-1.7-7.3-3.5-11-5.2c-2.2-1-3.2-2.9-3.7-5.2c-2-8.5-4.4-17-4.5-25.9c-0.1-5.4,2.1-9.5,6.5-12.5
		c5.8-4,12.3-6.4,19.3-7.2c5.2-0.6,10.7-1.1,15.8-0.4C267.2,436.4,272.4,440.9,275.1,448.6z"/>
	<path class="st0" d="M271.2,457.3c-1.2,2.2-2.7,3.4-5,2.6c-2.1-0.8-2.7-2.4-2-5.9c-7.1-2-14.8,3.3-16.6,11.5
		c-1.9,8.8,4,17,13.5,18.7c-2.7,0.9-5.4,1.9-8.1,2.7c-0.5,0.1-1.2-0.2-1.7-0.5c-7.7-4.7-11.3-15.1-8.5-24.4
		c2.7-8.9,10.8-14.7,20-14.3c7.9,0.3,14.6,5.7,16.4,13.3c0.7,3.1,1.5,6.1,1.9,9.2c0.7,5.3-1,7.9-5.5,9.1c-1.5,0.4-3,1-4.7,1.4
		c3.2-3.2,5.2-7.1,5.3-11.6C276.3,464.6,274.7,460.7,271.2,457.3z"/>
	<path class="st0" d="M274.1,485.1c-4.6,4.3-16.3,8.3-22.7,7.6C258.8,490.2,266.2,487.7,274.1,485.1z"/>
	<path class="st0" d="M402.6,440.5c-1-9.7-3.5-18.4-7.3-26.7c-2.8-6.3-7.6-11.2-13.5-14.8c-3.8-2.4-8.1-2.7-12.3-1.4
		c-9.4,3-18.5,6.8-25.4,14.4c-1.8,1.9-3.9,3.6-5.5,5.6c-1.8,2.1-3.2,4.6-4.8,7c0.1,0.4,0,0.1-0.1-0.2c-4.6-15.9,0.2-34.2,14.8-43.2
		c12.6-7.7,26.1-8.1,39.6-1.9c13.8,6.3,20.5,17.4,22.6,32C412.4,422.1,409.1,431.4,402.6,440.5z"/>
	<path class="st0" d="M358.7,450.9c-7-2.3-12.7-6.2-17.1-11.8c-0.8-1.1-1.1-2.7-1.3-4.1c-1.9-12.1-1.4-10.3,5.7-18
		c6.3-6.9,14.2-10.9,22.7-14.1c5.3-2,10-1.1,14.3,2.8c4.3,4,7.9,8.4,9.6,14.1c1.7,5.8,3.3,11.5,4.8,17.3c0.6,2.3-0.3,4.2-2.2,5.2
		c0-3.5,0.3-7.1-0.1-10.7c-0.7-6.9-3.8-12.7-9.2-17c-8.8-7.1-20.9-5.4-27.7,3.8c-6.6,8.9-6.8,21.7-0.4,31.2
		C358.1,450,358.4,450.4,358.7,450.9z"/>
	<path class="st0" d="M382,447.5c6.5-7.8,7.1-15.9,2.2-22.4c-4.5,1.4-6,0.3-6.1-4.8c-4-1.4-7.8-1-11.2,1.7
		c-8.8,6.9-7.2,22.1,2.9,26.7c1.2,0.5,2.4,0.8,4.3,1.4c-2.8,0.7-5.1,1.3-7.3,1.8c-0.6,0.1-1.3-0.3-1.9-0.6
		c-10.5-7.3-10.6-26.1-0.2-33.7c7.8-5.6,18-3.5,23.4,5c4,6.3,4.6,13.1,2.4,20.1c-0.5,1.6-1.4,2.6-3.1,3
		C385.7,446.2,384.1,446.8,382,447.5z"/>
	<path class="st0" d="M377.8,454.1c4.8-1.6,9.6-3.2,14.4-4.9C387.9,452.5,383.1,454,377.8,454.1z"/>
</g>
</svg>
