<?xml version="1.0" encoding="utf-8"?>
<!-- Generator: Adobe Illustrator 26.0.0, SVG Export Plug-In . SVG Version: 6.00 Build 0)  -->
<svg version="1.1" id="Capa_1" xmlns="http://www.w3.org/2000/svg" xmlns:xlink="http://www.w3.org/1999/xlink" x="0px" y="0px"
	 viewBox="0 0 595.28 841.89" style="enable-background:new 0 0 595.28 841.89;" xml:space="preserve">
<style type="text/css">
	.st0{fill:#FFFFFF;}
</style>
<g>
	<path class="st0" d="M0,615.93C0,427.91,0,188.02,0,0c198.43,0,396.85,0,595.28,0c0,178.1,0,408.07,0,586.16
		c-3.19,0.13-6.42,0.61-9.57,0.32c-6.69-0.62-13.33-1.74-20.02-2.47c-6.34-0.69-12.71-1.11-19.06-1.71
		c-9.52-0.89-19.02-2.07-28.56-2.67c-6.49-0.41-7.38-1.13-6.14-7.61c0.09-0.48,0.56-0.95,0.5-1.37c-0.31-2.35-0.34-4.84-1.19-7
		c-2.53-6.43-8.64-8.35-14.39-10.28c-4.73-1.58-9.69-2.56-14.62-3.39c-5.31-0.89-10.7-1.78-16.05-1.76
		c-7.09,0.03-14.16,0.99-21.25,1.45c-9.32,0.61-17.74,3.04-23.53,11.91c-0.65-6.51-1.16-12.34-1.84-18.16
		c-0.35-2.95,1.17-3.89,3.71-4.38c2.97-0.57,5.93-1.28,8.8-2.23c5.48-1.82,6.51-1.49,10.45,2.78c0.94,1.02,3.2,1.99,4.19,1.54
		c1.5-0.69,2.45-2.61,3.54-4.09c0.24-0.32,0.02-0.97,0.04-1.46c0.14-3.55,1.4-4.34,4.73-2.97c1.94,0.8,3.85,1.65,5.81,2.39
		c2.9,1.1,3.72-1.29,5.11-2.98c1.29-1.58,1.14-2.6-0.12-4.15c-3.18-3.89-7.22-6.11-12.04-7.27c-2.3-0.55-4.47-1.6-6.7-2.43
		c0-0.37,0.01-0.75,0.01-1.12c3.3-1.47,6.56-3.01,9.9-4.4c3.07-1.28,4.07-3.84,2.87-7.2c-1.16-3.23-2.98-3.73-5.99-2.26
		c-3.16,1.54-6.52,2.67-8.93,3.64c-3.17-3.98-5.81-8.26-9.37-11.53c-3.9-3.59-9.16-5.29-14.44-4.27
		c-10.67,2.06-17.63,8.32-19.33,19.26c-10.03,0.2-19.83-0.59-30.07,0.49c-0.88-1.75-1.93-4.37-3.43-6.71
		c-5.51-8.6-11.16-17.11-16.8-25.62c-1.18-1.77-1.26-2.98,0.31-4.82c3.88-4.56,7.45-9.4,10.98-14.24
		c7.95-10.9,10.59-23.49,11.02-36.62c0.23-6.98-0.87-13.88-2.93-20.6c-0.85-2.78-1.33-5.71-2.46-8.36
		c-2.62-6.14-5.53-12.16-8.47-18.56c2.34-1.04,4.72-1.99,7-3.13c13.66-6.79,25.7-15.77,36.29-26.75c7.4-7.67,14.88-15.2,20.16-24.65
		c4.78-8.54,5.21-17.56,3.93-26.88c-0.23-1.66-1.02-3.24-1.55-4.86c1.65-0.47,3.31-0.95,4.97-1.41c6.46-1.8,12.91-3.66,19.41-5.35
		c1.71-0.45,3.55-0.39,5.41-0.57c0.78,7.68,4.62,12.77,10.52,16.68c4.93,3.27,10.35,4.54,16.09,5.6c9.12,1.68,17.74,0.21,25.66-3.83
		c11.42-5.83,20.32-14.71,26.81-25.83c1.15-1.98,1.87-4.21,2.82-6.39c6.51,4.73,12.58,9.78,19.27,13.79
		c4.28,2.56,9.42,4.76,14.3,5.05c9,0.54,18.98-10.33,19.16-19.49c0.14-6.97-3.53-12.69-6.43-18.59c-3.22-6.54-5.43-12.83-3.04-20.42
		c1.28-4.06,1.45-9.11,0.24-13.16c-2.08-6.99-8.15-10.75-15.01-12.14c-9.53-1.94-19.1-1.38-28.37,1.94
		c-2.82,1.01-5.61,2.11-8.72,3.29c-0.5-6.01-3.61-10.75-7.98-13.77c-7.66-5.29-16.97-6.79-25.97-6.35
		c-6.4,0.31-12.95,2.69-18.91,5.32c-5.53,2.44-10.37,6.45-15.79,9.95c-6.51-7.02-14.28-12.2-24.1-13.35
		c-5.71-0.67-11.36-2.88-17.21-1.22c-5.4,1.53-11.37,2.26-15.97,5.14c-12.37,7.72-15.25,19.48-13.5,33.45
		c0.75,6,3.3,11.29,8.77,15.6c-5.4,2.93-10.17,5.55-14.99,8.08c-0.44,0.23-1.19-0.17-1.8-0.25c-1.82-0.25-3.69-0.89-5.44-0.65
		c-6.62,0.91-13.2,2.1-19.79,3.21c-4.57,0.77-9.12,1.65-13.7,2.33c-9.69,1.45-19.48,2.34-29.06,4.31
		c-9.66,1.99-19.13,4.93-28.64,7.61c-6.8,1.92-13.52,4.1-19.77,6.01c-0.92-5.81-2.05-11.42-2.65-17.09
		c-0.54-5.03-2.67-9.17-5.26-13.41c-6.19-10.11-14.65-15.49-26.76-14.79c-6.86,0.4-15.55,8.02-16.19,14.87
		c-0.74,7.96,0.34,15.8,3.7,23.01c3.69,7.92,8.15,15.49,12.49,23.63c-4.69,2.9-9.99,6.18-15.37,9.5
		c-5.71-14.52-14.72-24.73-21.63-29.88c-7.02-5.23-14.97-6.61-23.06-4.62c-10.81,2.67-17.06,16.37-13.11,27.22
		c3.37,9.25,8.78,17.27,15.55,24.31c3.71,3.86,8.04,7.14,12.21,10.78c-1.32,1.78-2.6,3.57-3.93,5.32c-1.6,2.11-3.04,3.92-6.22,4.39
		c-3.28,0.48-6.65,2.09-9.43,4c-7.16,4.92-13.98,10.32-21.01,15.43c-3.74,2.73-7.09,2.85-10.89,0.08
		c-4.45-3.25-8.79-6.68-12.91-10.34c-6.65-5.89-14.5-9.21-23.13-9.52c-10.98-0.39-19.72,5.48-27.16,12.88
		c-2.83,2.81-4.42,6.97-6.21,10.69c-1.74,3.62-4.53,5.2-7.78,4.09c-7.12-2.43-14.03-4.64-22.03-3.53
		c-11.25,1.56-19.52,7.23-22.03,18.31c-1.29,5.69-0.61,11.6,4.63,15.6c2.21,1.69,5.1,2.49,7.28,4.21c3.04,2.38,6.65,4.76,8.3,8.01
		c2.23,4.38,3.06,9.54,4.07,14.45c1.36,6.61,4.48,11.97,9.81,16.09c6.11,4.72,13.17,6.66,20.63,8.35
		c9.25,2.09,18.11,1.21,26.86-1.27c5.08-1.44,9.76-4.28,15.02-6.68c3.21,5.6,8.44,9.39,14.95,11.02c5.9,1.48,11.99,3.34,17.94,3.18
		c6.72-0.18,13.4-2.36,20.06-3.84c2.47-0.55,4.05-0.11,4.88,2.44c0.8,2.45,1.35,5.13,2.74,7.22c5.17,7.78,9.36,16.32,16.79,22.41
		c1.78,1.46,1.76,2.79,0.38,4.73c-3.46,4.9-7.21,9.74-9.79,15.11c-4.46,9.28-8.35,18.85-12.06,28.46
		c-2.93,7.61-5.61,15.35-7.7,23.23c-2.89,10.92-5.11,22.01-7.65,33.16c-2.26,0.17-4.55,0.34-6.6,0.49
		c-0.81-2.65-1.08-5.35-2.38-7.41c-2.33-3.7-6.02-6.11-10.25-7.1c-2.21-0.52-5.2-0.7-6.96,0.38c-5.51,3.4-9.77,7.95-9.32,15.23
		c0.06,0.93-0.59,2.7-1.01,2.73c-2.69,0.19-6.1,1.02-7.98-0.27c-3.85-2.64-6.3-1.58-8.98,1.23c-0.4,0.43-1,0.83-1.56,0.92
		c-5.52,0.92-11.07,1.69-16.59,2.68c-5.62,1.01-11.23,2.09-16.79,3.37c-4.86,1.12-9.63,2.63-14.47,3.81
		c-6.29,1.54-12.74,2.55-18.91,4.47c-5.49,1.71-10.66,4.41-16.02,6.53C7.72,613.31,3.84,614.57,0,615.93z M166.5,141.41
		c0-2.48,0.17-4.97-0.03-7.43c-0.54-6.45-1.79-12.84-5.31-18.33c-5.93-9.24-13.37-17.03-23.78-21.31
		c-8.07-3.31-16.29-6.19-25.23-5.89c-6,0.2-11.9,0.06-17.91,1.66c-5.37,1.43-10.54,3-15.32,5.73c-5.99,3.41-11,7.89-13.56,14.49
		c-2.11,5.41-5.06,10.8-5.7,16.42c-1.52,13.22,0.72,26.12,6.11,38.42c2.57,5.88,5.96,11.14,9.75,16.33
		c6.8,9.3,15.41,16.23,26.31,19.09c17.32,4.55,32.23-1.71,45-13.27c4.2-3.8,7.72-8.53,10.86-13.29
		C164.17,164.21,166.91,153.2,166.5,141.41z M157.26,93.68c0.34-0.29,1.41-0.96,2.2-1.87c3.91-4.53,7.62-9.25,11.68-13.64
		c1.73-1.87,1.52-3.53-0.07-4.64c-1.22-0.86-4.01-1.5-4.67-0.83c-4.72,4.81-9.32,9.78-13.45,15.1
		C150.66,90.74,152.61,93.73,157.26,93.68z M95.34,53.38c-2.56-0.25-4.17,0.99-3.72,3.6c1.09,6.34,2.41,12.65,3.79,18.93
		c0.52,2.37,2.16,4.11,4.73,3.42c2.37-0.63,3.22-2.38,2.6-5.12c-0.99-4.38-1.62-8.86-2.11-13.32
		C100.1,55.96,98.47,53.37,95.34,53.38z M196.79,133.91c-3.05,0.82-6.12,1.56-9.14,2.49c-2.71,0.83-5.6,1.49-7.94,2.97
		c-1.19,0.75-2.03,3.24-1.8,4.76c0.3,1.93,2.02,2.67,4.35,1.95c5.13-1.57,10.38-2.78,15.58-4.15c2.27-0.6,4.2-1.38,3.81-4.44
		C201.25,134.41,199.39,133.98,196.79,133.91z M161.46,203.95c1.14,1.48,1.88,2.66,2.83,3.65c1.26,1.31,2.71,2.44,4.04,3.7
		c2.58,2.44,5.09,4.96,7.71,7.36c1.72,1.57,3.96,1.57,5.26-0.11c0.79-1.02,0.98-3.69,0.22-4.53c-4.03-4.49-8.34-8.74-12.82-12.79
		c-0.88-0.79-3.02-0.69-4.37-0.29C163.32,201.22,162.64,202.64,161.46,203.95z M95.88,216.11c0.67-3.81,0.43-6.57-2.94-6.96
		c-2.3-0.27-4.18,1.36-4.36,3.86c-0.43,5.98-0.73,11.98-0.87,17.98c-0.02,0.83,1.02,2.08,1.87,2.47c2.86,1.29,5.25-0.4,5.58-4.1
		C95.58,224.62,95.69,219.84,95.88,216.11z M33.1,177.25c7-1.83,13.33-3.65,18.21-8.46c0.56-0.55,0.83-2.3,0.42-2.73
		c-1.07-1.12-2.97-2.85-3.86-2.52c-5.47,2.02-10.83,4.37-16.01,7.05c-0.98,0.5-1.37,2.98-1.23,4.47
		C30.69,175.92,32.36,176.64,33.1,177.25z M52.38,107.06c-0.2-0.24-0.79-1.39-1.73-1.96c-1.66-1-3.48-1.77-5.32-2.41
		c-2.88-1-5.81-1.87-8.75-2.67c-2.65-0.72-4.31,0.9-4.19,3.13c0.08,1.51,1.57,3.65,2.97,4.25c3.97,1.73,8.23,2.79,12.35,4.16
		C50.67,112.56,52.42,111.31,52.38,107.06z"/>
	<path class="st0" d="M595.28,596.58c0,64.47,0,180.81,0,245.31c-198.43,0-396.85,0-595.28,0c0-55.32,0-162.49,0-217.78
		c3.54-1.4,7.12-2.73,10.63-4.21c4.22-1.77,8.35-3.75,12.58-5.47c3.6-1.47,7.22-2.97,10.96-4.01c5.72-1.58,11.58-2.68,17.33-4.15
		c5.9-1.51,11.67-3.57,17.63-4.79c7.16-1.46,14.43-2.39,21.68-3.35c3.48-0.46,6.66-0.62,9.51,2.85c5.74,6.98,13.53,9.07,22.21,6.65
		c6.24-1.74,12.42-3.2,18.99-2.85c2.67,0.15,4.44,0.36,3.97,3.55c-0.28,1.92-0.69,3.82-0.95,5.74c-1.1,8.14-2.07,16.29-3.28,24.41
		c-0.6,4.03,2.11,7.82,6.14,7.91c12.61,0.28,25.21,0.61,37.82,0.79c8.43,0.12,16.86,0.03,25.3,0.06c0.74,0,1.48,0.25,2.62,0.46
		c-0.85,0.92-1.38,1.43-1.83,2.01c-2.6,3.33-2.21,6.95-0.76,10.51c1.43,3.52,4.21,4.87,8.03,4.57c3.02-0.24,6.08-0.05,9.44-0.05
		c-0.16,15.55,1.74,30.53,0.28,45.54c-1.23-1.33-2.33-2.61-2.68-4.07c-2.84-11.83-9.42-21.4-18.13-29.53
		c-8.01-7.47-17.46-12.45-28.32-14.5c-6.76-1.28-13.53-2.65-20.42-0.83c-5.88,1.55-11.95,2.58-17.6,4.74
		c-8.17,3.12-15.02,8.3-21.41,14.46c-7.2,6.93-11.64,15.46-14.35,24.45c-2.72,9-3.87,18.62-2.15,28.37
		c1.38,7.8,3.84,15.2,7.43,22.03c4.16,7.93,10.2,14.67,17.72,19.81c6.19,4.24,12.58,8.38,20.11,9.57c7.1,1.12,14.35,1.22,21.5,2.09
		c6.92,0.85,13.35-1.47,19.42-3.73c5.99-2.23,11.39-6.32,16.7-10.09c9.73-6.91,15.48-16.87,19.14-27.9
		c1.7-5.12,1.92-10.76,2.57-16.19c0.26-2.14,0.68-3.58,3.16-3.63c0.95-0.02,1.89-0.5,2.85-0.58c5.07-0.41,10.14-0.76,14.18-1.05
		c-0.05,2.92-1.08,6.19,0.11,7.63c1.51,1.84,4.82,2.2,6.3,2.79c-0.22,2.75-0.99,5.25-0.45,7.43c0.64,2.56,3.34,2.39,5.64,2.35
		c4.59-0.08,9.17,0.01,13.76-0.04c5.12-0.05,7.13-2.6,5.72-7.98c5.79,0,11.46,0.31,17.08-0.11c3.96-0.29,8.19-0.92,11.65-2.67
		c2.03-1.03,4.05-4.67,3.86-6.94c-0.35-4.09-5.58-6.73-9.66-6.76c-6.46-0.05-12.93-0.01-19.39-0.01c3.14-1.31,6.33-2.03,9.49-2.86
		c5.73-1.51,11.51-2.86,17.13-4.7c4.16-1.36,8.17-3.23,12.13-5.12c4.64-2.21,9.35-4.39,13.7-7.11
		c11.37-7.12,22.62-14.45,33.81-21.85c9.35-6.19,19.16-11.51,29.75-15.16c7.3-2.52,14.82-4.4,22.56-6.65c0,2.39,0,4.18,0,5.97
		c-0.22-0.32-0.43-0.64-0.65-0.96c-7.89,3.19-16.32,5.46-23.51,9.8c-8.13,4.9-15.08,11.67-20.11,20.09
		c-5.31,8.89-7.74,18.66-9.13,28.71c-0.97,7,0.8,13.88,2.24,20.72c1.83,8.69,5.54,16.64,11.36,23.2c4.78,5.4,10.09,10.8,16.22,14.4
		c6.19,3.63,13.64,5.19,20.63,7.37c9.17,2.86,18.34,2.36,27.7,0.27c12.95-2.88,23.59-9.27,32.27-19.11
		c10.31-11.69,15.63-25.34,16-40.96c0.24-10.17-2.5-19.53-6.71-28.69c-4.33-9.43-10.47-17.51-18.54-23.7
		c-9.15-7.01-19.7-11.24-31.49-11.78c-1.25-0.06-3.33-1.07-3.49-1.93c-0.41-2.18-0.81-5.16,0.32-6.69
		c2.62-3.54,2.81-7.85-0.51-10.71c-0.91-0.79-1.62-1.82-2.41-2.75c3.12-0.12,5.67,0.7,8.28,1.11c9.75,1.52,19.49,3.6,29.3,4.14
		c9.81,0.54,19.71-0.44,29.55-0.95c1.2-0.06,2.98-1.15,3.37-2.18c1.26-3.41,2.19-6.98,2.91-10.56c1.22-6.1,2.28-12.23,3.24-18.38
		c0.84-5.31,1.48-10.64,2.15-15.97c0.44-3.48,0.77-6.97,1.15-10.5c1.52,0.18,2.72,0.44,3.92,0.45c12.19,0.08,24.28,0.84,36.38,2.68
		c11.63,1.77,23.45,2.26,35.11,3.82C589.65,593.25,593.67,592.58,595.28,596.58z"/>
	<path d="M595.28,596.58c-1.61-4-5.63-3.33-8.54-3.72c-11.67-1.56-23.48-2.05-35.11-3.82c-12.09-1.84-24.19-2.6-36.38-2.68
		c-1.2-0.01-2.4-0.27-3.92-0.45c-0.38,3.53-0.72,7.02-1.15,10.5c-0.67,5.33-1.32,10.67-2.15,15.97c-0.97,6.14-2.02,12.28-3.24,18.38
		c-0.72,3.58-1.65,7.14-2.91,10.56c-0.38,1.03-2.17,2.11-3.37,2.18c-9.85,0.52-19.75,1.5-29.55,0.95
		c-9.81-0.54-19.55-2.62-29.3-4.14c-2.62-0.41-5.17-1.23-8.28-1.11c0.8,0.92,1.5,1.96,2.41,2.75c3.32,2.86,3.14,7.18,0.51,10.71
		c-1.13,1.52-0.73,4.5-0.32,6.69c0.16,0.86,2.24,1.87,3.49,1.93c11.79,0.54,22.35,4.77,31.49,11.78
		c8.08,6.19,14.21,14.27,18.54,23.7c4.21,9.16,6.95,18.52,6.71,28.69c-0.37,15.62-5.69,29.27-16,40.96
		c-8.68,9.84-19.33,16.23-32.27,19.11c-9.36,2.08-18.53,2.59-27.7-0.27c-6.99-2.18-14.44-3.74-20.63-7.37
		c-6.13-3.59-11.44-9-16.22-14.4c-5.81-6.56-9.53-14.51-11.36-23.2c-1.44-6.84-3.2-13.72-2.24-20.72
		c1.39-10.05,3.82-19.83,9.13-28.71c5.03-8.42,11.99-15.19,20.11-20.09c7.19-4.34,15.63-6.62,23.51-9.8
		c0.22,0.32,0.43,0.64,0.65,0.96c0-1.79,0-3.58,0-5.97c-7.74,2.26-15.26,4.14-22.56,6.65c-10.59,3.65-20.39,8.97-29.75,15.16
		c-11.19,7.41-22.44,14.73-33.81,21.85c-4.35,2.72-9.05,4.89-13.7,7.11c-3.96,1.89-7.97,3.77-12.13,5.12
		c-5.62,1.83-11.41,3.19-17.13,4.7c-3.16,0.83-6.35,1.55-9.49,2.86c6.46,0,12.93-0.04,19.39,0.01c4.08,0.03,9.31,2.66,9.66,6.76
		c0.19,2.28-1.83,5.91-3.86,6.94c-3.46,1.75-7.69,2.38-11.65,2.67c-5.62,0.42-11.29,0.11-17.08,0.11c1.41,5.38-0.6,7.93-5.72,7.98
		c-4.59,0.04-9.17-0.04-13.76,0.04c-2.3,0.04-5,0.21-5.64-2.35c-0.54-2.17,0.23-4.68,0.45-7.43c-1.48-0.58-4.79-0.95-6.3-2.79
		c-1.19-1.44-0.16-4.71-0.11-7.63c-4.04,0.29-9.12,0.64-14.18,1.05c-0.96,0.08-1.9,0.56-2.85,0.58c-2.48,0.05-2.9,1.49-3.16,3.63
		c-0.65,5.43-0.87,11.07-2.57,16.19c-3.67,11.03-9.41,20.99-19.14,27.9c-5.31,3.77-10.7,7.86-16.7,10.09
		c-6.07,2.26-12.5,4.58-19.42,3.73c-7.15-0.87-14.4-0.98-21.5-2.09c-7.53-1.18-13.92-5.33-20.11-9.57
		c-7.51-5.14-13.55-11.88-17.72-19.81c-3.58-6.83-6.05-14.23-7.43-22.03c-1.72-9.75-0.57-19.36,2.15-28.37
		c2.71-8.98,7.15-17.51,14.35-24.45c6.39-6.16,13.24-11.33,21.41-14.46c5.65-2.16,11.72-3.19,17.6-4.74
		c6.89-1.81,13.66-0.44,20.42,0.83c10.85,2.05,20.31,7.03,28.32,14.5c8.71,8.13,15.29,17.7,18.13,29.53
		c0.35,1.46,1.44,2.73,2.68,4.07c1.45-15.01-0.45-29.99-0.28-45.54c-3.36,0-6.42-0.19-9.44,0.05c-3.82,0.3-6.59-1.05-8.03-4.57
		c-1.45-3.56-1.84-7.19,0.76-10.51c0.45-0.57,0.98-1.08,1.83-2.01c-1.13-0.21-1.87-0.46-2.62-0.46c-8.43-0.04-16.87,0.06-25.3-0.06
		c-12.61-0.18-25.22-0.51-37.82-0.79c-4.02-0.09-6.74-3.88-6.14-7.91c1.22-8.12,2.19-16.27,3.28-24.41
		c0.26-1.92,0.66-3.83,0.95-5.74c0.47-3.19-1.29-3.41-3.97-3.55c-6.57-0.36-12.75,1.11-18.99,2.85c-8.68,2.42-16.48,0.34-22.21-6.65
		c-2.85-3.47-6.03-3.31-9.51-2.85c-7.25,0.96-14.52,1.89-21.68,3.35c-5.95,1.22-11.73,3.27-17.63,4.79
		c-5.75,1.48-11.61,2.57-17.33,4.15c-3.74,1.03-7.36,2.54-10.96,4.01c-4.23,1.73-8.36,3.7-12.58,5.47
		c-3.51,1.48-7.08,2.81-10.63,4.21c0-2.73,0-5.46,0-8.19c3.84-1.36,7.72-2.61,11.5-4.11c5.37-2.12,10.54-4.83,16.02-6.53
		c6.17-1.92,12.62-2.94,18.91-4.47c4.85-1.18,9.61-2.7,14.47-3.81c5.56-1.28,11.17-2.36,16.79-3.37c5.51-0.99,11.06-1.75,16.59-2.68
		c0.56-0.09,1.16-0.49,1.56-0.92c2.68-2.82,5.12-3.88,8.98-1.23c1.87,1.28,5.28,0.46,7.98,0.27c0.42-0.03,1.06-1.8,1.01-2.73
		c-0.45-7.28,3.81-11.83,9.32-15.23c1.76-1.09,4.75-0.9,6.96-0.38c4.23,0.99,7.93,3.39,10.25,7.1c1.3,2.06,1.57,4.76,2.38,7.41
		c2.05-0.15,4.34-0.32,6.6-0.49c2.54-11.15,4.76-22.24,7.65-33.16c2.08-7.87,4.77-15.62,7.7-23.23c3.7-9.61,7.6-19.18,12.06-28.46
		c2.58-5.37,6.32-10.2,9.79-15.11c1.37-1.95,1.39-3.27-0.38-4.73c-7.43-6.09-11.63-14.63-16.79-22.41
		c-1.39-2.09-1.94-4.77-2.74-7.22c-0.83-2.55-2.41-2.99-4.88-2.44c-6.66,1.47-13.34,3.65-20.06,3.84
		c-5.96,0.16-12.04-1.7-17.94-3.18c-6.52-1.63-11.75-5.42-14.95-11.02c-5.26,2.39-9.94,5.24-15.02,6.68
		c-8.75,2.48-17.61,3.36-26.86,1.27c-7.46-1.68-14.52-3.62-20.63-8.35c-5.33-4.12-8.45-9.49-9.81-16.09
		c-1.01-4.91-1.84-10.07-4.07-14.45c-1.65-3.25-5.26-5.63-8.3-8.01c-2.18-1.71-5.07-2.52-7.28-4.21c-5.23-4-5.92-9.9-4.63-15.6
		c2.51-11.08,10.78-16.74,22.03-18.31c8-1.11,14.91,1.1,22.03,3.53c3.25,1.11,6.03-0.47,7.78-4.09c1.79-3.72,3.38-7.88,6.21-10.69
		c7.44-7.4,16.18-13.27,27.16-12.88c8.62,0.31,16.48,3.63,23.13,9.52c4.12,3.65,8.46,7.09,12.91,10.34
		c3.81,2.77,7.15,2.65,10.89-0.08c7.03-5.12,13.85-10.52,21.01-15.43c2.78-1.91,6.15-3.52,9.43-4c3.18-0.47,4.62-2.28,6.22-4.39
		c1.33-1.75,2.62-3.54,3.93-5.32c-4.17-3.64-8.49-6.92-12.21-10.78c-6.76-7.04-12.18-15.06-15.55-24.31
		c-3.95-10.85,2.29-24.55,13.11-27.22c8.09-2,16.04-0.61,23.06,4.62c6.92,5.15,15.92,15.36,21.63,29.88
		c5.38-3.33,10.68-6.6,15.37-9.5c-4.35-8.14-8.8-15.71-12.49-23.63c-3.36-7.2-4.44-15.05-3.7-23.01
		c0.64-6.85,9.33-14.47,16.19-14.87c12.11-0.7,20.57,4.68,26.76,14.79c2.59,4.23,4.73,8.38,5.26,13.41
		c0.61,5.67,1.73,11.28,2.65,17.09c6.25-1.91,12.97-4.09,19.77-6.01c9.51-2.68,18.98-5.62,28.64-7.61
		c9.58-1.97,19.37-2.87,29.06-4.31c4.58-0.68,9.13-1.56,13.7-2.33c6.59-1.11,13.17-2.3,19.79-3.21c1.75-0.24,3.63,0.4,5.44,0.65
		c0.61,0.08,1.37,0.48,1.8,0.25c4.82-2.53,9.59-5.15,14.99-8.08c-5.46-4.31-8.02-9.59-8.77-15.6c-1.75-13.97,1.14-25.73,13.5-33.45
		c4.6-2.87,10.57-3.61,15.97-5.14c5.84-1.66,11.5,0.55,17.21,1.22c9.82,1.15,17.58,6.33,24.1,13.35c5.42-3.5,10.26-7.5,15.79-9.95
		c5.96-2.63,12.51-5.02,18.91-5.32c9-0.43,18.31,1.07,25.97,6.35c4.37,3.02,7.48,7.76,7.98,13.77c3.11-1.18,5.9-2.27,8.72-3.29
		c9.27-3.32,18.84-3.88,28.37-1.94c6.86,1.4,12.93,5.15,15.01,12.14c1.2,4.05,1.04,9.1-0.24,13.16c-2.39,7.59-0.17,13.88,3.04,20.42
		c2.9,5.9,6.57,11.62,6.43,18.59c-0.18,9.17-10.17,20.03-19.16,19.49c-4.88-0.29-10.01-2.49-14.3-5.05
		c-6.7-4.01-12.77-9.06-19.27-13.79c-0.95,2.18-1.67,4.41-2.82,6.39c-6.49,11.13-15.39,20-26.81,25.83
		c-7.92,4.04-16.55,5.51-25.66,3.83c-5.73-1.05-11.16-2.33-16.09-5.6c-5.9-3.91-9.74-9-10.52-16.68c-1.86,0.18-3.7,0.12-5.41,0.57
		c-6.49,1.69-12.94,3.55-19.41,5.35c-1.66,0.46-3.31,0.94-4.97,1.41c0.53,1.62,1.32,3.2,1.55,4.86c1.29,9.32,0.85,18.34-3.93,26.88
		c-5.28,9.45-12.77,16.98-20.16,24.65c-10.59,10.98-22.63,19.96-36.29,26.75c-2.29,1.14-4.66,2.09-7,3.13
		c2.95,6.41,5.86,12.42,8.47,18.56c1.13,2.65,1.61,5.58,2.46,8.36c2.06,6.72,3.16,13.62,2.93,20.6
		c-0.43,13.13-3.07,25.72-11.02,36.62c-3.53,4.84-7.1,9.69-10.98,14.24c-1.57,1.84-1.49,3.05-0.31,4.82
		c5.65,8.51,11.29,17.03,16.8,25.62c1.5,2.34,2.55,4.97,3.43,6.71c10.24-1.08,20.04-0.29,30.07-0.49
		c1.7-10.94,8.67-17.2,19.33-19.26c5.28-1.02,10.55,0.68,14.44,4.27c3.56,3.27,6.21,7.55,9.37,11.53c2.41-0.97,5.77-2.1,8.93-3.64
		c3.01-1.47,4.83-0.97,5.99,2.26c1.2,3.36,0.21,5.92-2.87,7.2c-3.33,1.38-6.6,2.93-9.9,4.4c0,0.37-0.01,0.75-0.01,1.12
		c2.23,0.82,4.41,1.87,6.7,2.43c4.82,1.16,8.86,3.37,12.04,7.27c1.26,1.55,1.42,2.57,0.12,4.15c-1.38,1.69-2.2,4.07-5.11,2.98
		c-1.96-0.74-3.88-1.59-5.81-2.39c-3.32-1.37-4.59-0.58-4.73,2.97c-0.02,0.5,0.19,1.14-0.04,1.46c-1.08,1.48-2.04,3.4-3.54,4.09
		c-0.99,0.45-3.25-0.51-4.19-1.54c-3.94-4.28-4.97-4.6-10.45-2.78c-2.87,0.95-5.83,1.66-8.8,2.23c-2.54,0.49-4.06,1.43-3.71,4.38
		c0.68,5.82,1.19,11.66,1.84,18.16c5.79-8.88,14.2-11.31,23.53-11.91c7.09-0.46,14.17-1.42,21.25-1.45
		c5.35-0.02,10.74,0.87,16.05,1.76c4.93,0.82,9.89,1.8,14.62,3.39c5.75,1.93,11.87,3.85,14.39,10.28c0.85,2.16,0.88,4.65,1.19,7
		c0.06,0.43-0.41,0.9-0.5,1.37c-1.25,6.48-0.35,7.19,6.14,7.61c9.54,0.6,19.04,1.78,28.56,2.67c6.35,0.6,12.72,1.02,19.06,1.71
		c6.68,0.73,13.33,1.85,20.02,2.47c3.15,0.29,6.38-0.19,9.57-0.32C595.28,589.63,595.28,593.11,595.28,596.58z M353.01,261.4
		c-10.05,1.4-19.04,2.24-27.86,3.98c-10.64,2.1-21.21,4.65-31.65,7.59c-9.85,2.77-19.51,6.23-29.18,9.6
		c-1.2,0.42-2.36,2.03-2.8,3.34c-1.27,3.8-3.53,4.72-6.82,2.69c-0.92-0.57-2.46-0.65-3.54-0.33c-1.84,0.54-3.67,1.38-5.25,2.46
		c-1.49,1.02-2.94,2.33-3.87,3.84c-1.13,1.85-2.18,2.73-4.45,2.08c-1.17-0.34-2.8-0.32-3.8,0.26c-4.8,2.8-9.52,5.76-14.11,8.9
		c-0.89,0.61-1.46,2.23-1.53,3.42c-0.2,3.78-2.32,5.41-6.01,4.51c-0.9-0.22-2.22-0.09-2.9,0.44c-3.28,2.57-6.66,5.1-9.5,8.13
		c-1.52,1.62-6.35,3.31-1.34,6.45c-3.36,4.48-3.36,4.48-6.89,2.57c-1.61,1.97-3.51,3.78-4.81,5.96
		c-4.07,6.85-8.21,13.69-11.73,20.82c-2.72,5.53-5.59,11.33-6.55,17.3c-1.71,10.7-3.02,21.42-2.26,32.53
		c0.8,11.71,3.01,22.85,6.66,33.83c0.81,2.44,2.48,4.6,3.28,7.04c3.47,10.61,10.84,18.62,18.39,26.16
		c7.2,7.19,15.87,12.46,25.51,16.5c10.91,4.57,22.07,7.41,33.67,8.13c8.69,0.54,17.49-0.34,26.22-0.81c2.89-0.16,5.84-0.7,8.59-1.6
		c9.07-2.95,18.23-5.74,27.03-9.39c6.42-2.66,12.75-5.99,18.33-10.11c7.76-5.73,14.73-12.44,20.34-20.53
		c6.91-9.96,10.26-20.92,10.91-32.86c0.65-12.1-1.9-23.62-6.64-34.68c-1.77-4.13-3.92-8.1-5.81-11.97c-2.08,0.34-3.79,0.26-5.17,0.9
		c-3.71,1.72-5.18,0.1-5.92-3.36c0.75-0.64,1.35-1.31,2.08-1.73c0.84-0.48,1.93-0.58,2.68-1.16c0.88-0.68,1.9-1.59,2.15-2.58
		c0.88-3.59,2.42-4.43,6.04-3.22c1.09,0.36,2.67,0.51,3.58-0.01c13.35-7.69,25.78-16.66,37.07-27.17c1.18-1.1,2.46-2.09,4.46-3.78
		c-3.75,0.21-6.42,0.76-8.96,0.41c-3.24-0.44-6.49-1.34-9.55-2.52c-6.25-2.41-12.09-5.72-15.96-11.34
		c-3.81-5.53-7.47-11.25-10.4-17.27c-3.53-7.27-5.91-15-6.24-23.25C348.23,274.76,348.73,268.14,353.01,261.4z M366.11,523.45
		c-1.41-3.05-2.54-5.34-3.55-7.69c-4.72-11.02-10.01-21.69-17.84-30.92c-1.63-1.93-2.98-2.12-5-0.76c-4.97,3.35-9.83,6.96-15.1,9.76
		c-5.92,3.15-12.09,6.03-18.45,8.12c-6.9,2.26-14.11,3.6-21.24,5.11c-4.53,0.96-9.14,1.98-13.74,2.12
		c-13.89,0.44-27.78,0.18-41.14-4.44c-6.81-2.36-13.69-4.57-20.28-7.44c-4.34-1.89-8.27-4.77-12.29-7.36
		c-1.78-1.15-2.88-0.88-3.9,0.9c-3.18,5.59-6.63,11.03-9.57,16.74c-3.13,6.07-6.04,12.29-8.59,18.62
		c-2.26,5.61-4.07,11.41-5.77,17.22c-2.12,7.25-4.12,14.55-5.83,21.9c-1.85,7.96-3.39,16-4.92,24.03c-1.14,5.98-2.14,11.99-3.07,18
		c-0.76,4.93-1.37,9.89-1.98,14.84c-0.63,5.07-1.2,10.14-1.79,15.2c2.21,0.47,3.87,1.1,5.55,1.14c15.4,0.35,30.8,0.54,46.2,0.89
		c23.07,0.52,46.13,1.47,69.2,1.61c21.77,0.14,43.54-0.5,65.31-0.86c8.26-0.14,16.53-0.44,24.79-0.73
		c7.99-0.29,15.98-0.56,23.95-1.06c3.62-0.23,4.06-1.58,3.35-5.68c-1.2-6.87-2.14-13.78-3.15-20.68c-0.19-1.33-0.07-2.72-0.33-4.03
		c-1.31-6.59-2.78-13.14-4.03-19.73c-1.46-7.69-2.64-15.43-4.17-23.1c-0.94-4.75-2.3-9.42-3.58-14.58c-1.28,0-2.98-0.39-4.4,0.07
		c-4.21,1.36-6.81-0.22-8.81-3.84c-0.46-0.84-1.81-1.19-2.75-1.76c-0.2,0.29-0.4,0.58-0.6,0.87c0.53,0.62,1.03,1.27,1.6,1.85
		c2.42,2.46,4.92,4.86,7.3,7.37c2.53,2.67,0.42,4.72-1.07,6.81c-1.49,2.09-2.96,1.67-5.03,0.48c-6.26-3.62-10.53-8.78-13.22-15.41
		c-0.77-1.91-1.57-3.45-4.34-3.73c-5.21-0.52-10.39-1.67-15.49-2.95c-9.59-2.4-19.17-4.88-28.63-7.74
		c-4.05-1.23-7.88-3.36-11.61-5.42c-1.01-0.56-2.07-2.63-1.76-3.55c0.41-1.19,2.04-2.32,3.37-2.74c1.46-0.47,3.23-0.35,4.78-0.05
		c6.33,1.21,12.62,2.62,18.93,3.91c5.38,1.1,10.78,2.14,16.17,3.19c5.16,1,10.46,1.53,15.43,3.1c3.96,1.26,6.68,0.53,9.8-1.95
		C357.98,526.57,360.52,522.61,366.11,523.45z M391.68,253.06c1.35,0.84,2.28,1.43,3.23,1.99c0.42,0.25,0.86,0.48,1.31,0.66
		c11.16,4.3,19.24,12.18,24.82,22.47c2.03,3.74,4.62,4.02,7.89,3.6c1.79-0.23,3.49-1.11,5.27-1.56c7.91-1.99,15.53-5.38,24.01-4.72
		c2.68,0.21,3.84,1.02,3.62,3.79c-0.37,4.68,0.69,8.96,4.89,11.64c3.11,1.99,6.35,4.09,9.83,5.13c5.7,1.7,11.67,3.73,17.65,1.95
		c7.47-2.22,14.88-4.61,20.86-10.25c7.21-6.8,14.3-13.37,16.43-23.77c1.2-5.87,4.21-6.32,8.99-2.49
		c6.62,5.31,13.24,10.66,20.24,15.43c3.71,2.53,8.22,4.99,12.97,2.94c8.63-3.73,11.83-11.19,8.56-20.01
		c-1.97-5.31-4.83-10.29-7.05-15.52c-0.89-2.1-1.65-4.48-1.57-6.7c0.18-4.87,0.69-9.77,1.53-14.58c1.06-6.02-3.46-12.37-9.73-13.51
		c-4.79-0.87-9.51-1.32-14.41-0.82c-8.57,0.86-16.63,2.9-23.79,7.91c-0.89,0.63-2.87,1.07-3.39,0.58c-0.96-0.91-1.9-2.71-1.65-3.89
		c1.34-6.39-1.24-12.44-8.1-15.04c-3.69-1.4-7.53-2.53-11.4-3.29c-6.92-1.35-14.03-0.48-20.32,1.98
		c-7.12,2.79-13.59,7.25-18.91,13.14c-3.93,4.35-5.47,3.91-7.93-1.49c-0.2-0.44-0.56-0.81-0.79-1.24
		c-3.87-7.01-11.13-8.81-17.84-10.9c-6.29-1.96-12.84-2.43-19.63-1.08c-8.84,1.76-16.19,5.15-19.81,13.83
		c-3.67,8.8-3.66,17.66,1.65,25.88c1.62,2.51,4.3,4.33,6.36,6.59c2.16,2.36,0.42,4.34-1.37,5.37
		C400.23,249.3,396.07,250.99,391.68,253.06z M172.43,343.8c-1.38,0.56-2.95,0.86-4.11,1.72c-6.42,4.74-12.76,9.58-19.07,14.44
		c-6.15,4.74-12.7,5.19-19.19,0.62c-5.6-3.95-10.72-8.56-16.28-12.57c-4.68-3.37-9.69-5.68-15.83-5.99
		c-6.62-0.33-12.07,2.11-17.11,5.46c-3.52,2.34-6.39,5.86-9.06,9.24c-1.94,2.45-3.13,5.5-4.59,8.32c-2.13,4.1-5.94,5.85-10.37,4.66
		c-3.07-0.82-6.34-1.24-9.15-2.61c-6.61-3.24-12.93-1.41-19.15,0.7c-2.51,0.85-4.63,2.93-6.82,4.59c-3.46,2.61-3.28,6.52-3.92,10.33
		c-0.6,3.57,0.37,5.91,3.17,7.73c3.69,2.4,7.8,4.27,11.1,7.11c6.54,5.62,7.89,13.77,9.75,21.7c0.89,3.83,2.25,8.17,4.86,10.83
		c4.64,4.73,10.42,8.14,17.25,9.6c10.45,2.22,20.81,2.31,30.82-1.3c4.23-1.53,7.96-4.63,11.65-7.38c2.98-2.22,4.77-2.02,6.21,1.39
		c0.61,1.44,1.15,3.02,2.16,4.15c7.3,8.14,17.21,9.64,27.22,9.45c6.71-0.13,13.38-2.09,21.09-3.4
		C152.88,408.09,155.61,375.46,172.43,343.8z M281.55,684.09c-0.56,3.44-1.33,5.95-5.14,6.17c-1.4,0.08-3.78,1.19-3.9,2.08
		c-0.32,2.41-0.6,5.84,0.77,7.25c3.65,3.75,8.27,6.05,13.85,3.35c1.42-0.69,3.06-0.96,4.62-1.3c13.32-2.9,25.78-8.1,37.44-14.96
		c9.2-5.41,17.85-11.76,26.82-17.56c8.15-5.27,15.95-11.45,24.75-15.27c12.05-5.24,24.9-8.63,38.39-13.13
		c-0.51-3.92-1.6-8.58-1.6-13.25c0-4.87-1.77-7.81-6.39-9.13c-0.14-0.04-0.19-0.42-0.51-1.23c1.24-0.71,2.67-1.32,3.84-2.26
		c0.68-0.55,1.44-1.67,1.34-2.43c-0.85-6.31-1.9-12.59-2.91-19.04c-0.8-0.17-2.31-0.08-3.05-0.79c-0.69-0.67-0.81-3.19-0.77-3.2
		c4.44-1.08,2.67-4.13,2.36-6.86c-6.13,0-12.12,0-18.72,0c1.21,7.49,2.31,14.55,3.5,21.61c0.71,4.2,1.63,8.37,2.3,12.57
		c0.84,5.19,1.61,10.4,2.23,15.62c0.35,2.91,0.58,5.88,0.4,8.79c-0.21,3.41-2.26,5.17-5.82,5.27c-5.92,0.17-11.82,0.59-17.74,0.77
		c-11.73,0.37-23.45,0.82-35.18,0.92c-17.98,0.15-35.95,0.03-53.93,0.03c-1.32,0-2.64,0-4.72,0c0.72,2.52,1.24,4.36,1.77,6.19
		c0.81,2.8-0.76,6.31-3.29,6.89c-2.02,0.46-4.15,0.98-6.17,0.79c-5.41-0.5-7.43,3.75-11.41,6.96c3.97-0.38,6.84-0.74,9.72-0.93
		c8.9-0.58,17.78-1.71,26.62,1.03c3.35,1.04,5.24,2.88,5.34,6.11c0.1,3.33-1.18,6.26-4.88,7.14c-3.08,0.73-6.19,1.46-9.33,1.73
		C288.71,684.32,285.24,684.09,281.55,684.09z M427.3,579.21c0.49,2.47,0.82,3.76,0.99,5.06c0.65,5.08,1.19,10.17,1.88,15.24
		c0.39,2.89,1.12,5.74,1.48,8.63c0.76,6.07,1.69,12.14,1.97,18.24c0.31,6.87,0.33,7.25,7.21,8.75c0.35,0.08,0.67,0.38,1.02,0.43
		c8.55,1.3,17.07,3.1,25.67,3.69c7.17,0.49,14.44-0.71,21.66-0.65c7.9,0.06,7.89,0.32,9.79-7.35c0.06-0.24,0.19-0.46,0.24-0.7
		c1.28-7.42,2.56-14.84,3.81-22.27c0.91-5.39,1.97-10.76,2.57-16.18c0.57-5.12,0.63-10.3,0.91-15.36
		c-11.65,8.65-25,10.43-38.67,10.65C454.09,587.61,440.1,588.69,427.3,579.21z M435.04,670.57c0.5,13.23,0.96,25.5,1.43,37.77
		c-0.37,0.05-0.74,0.1-1.12,0.16c-0.26-0.86-0.72-1.71-0.76-2.59c-0.32-6.91-0.55-13.81-0.81-20.72c-0.03-0.87,0.05-1.74-0.04-2.6
		c-0.88-8.73-1.89-17.46-2.58-26.21c-0.13-1.61,0.65-3.54,1.6-4.93c2-2.93,1.75-5.31-0.8-8.02c-1.25-1.33-2.33-3.2-2.64-4.98
		c-0.95-5.41-1.5-10.89-2.2-16.33c-2.72,0-5.43,0-8.24,0c0.97,7.33,1.87,14.2,2.73,20.73c-9.39,2.62-18.14,4.84-26.74,7.52
		c-11.11,3.46-21.03,9.39-30.74,15.65c-11.94,7.7-23.6,15.87-35.82,23.08c-7.03,4.15-14.78,7.28-22.51,10.02
		c-7.29,2.58-14.98,4.01-22.48,6.01c-1.22,0.32-2.35,0.96-2.66,1.09c0.26,3.84,0.47,6.9,0.7,10.27c1.36-0.26,2.88-0.46,4.35-0.84
		c8.51-2.22,17.29-3.79,25.45-6.93c8.72-3.36,17.13-7.78,25.21-12.52c10.49-6.15,20.67-12.84,30.7-19.72
		c10.5-7.2,21.84-12.64,33.76-16.84c6.07-2.14,12.52-3.19,18.72-4.99c2.36-0.68,3.4,0.1,3.6,2.2c0.63,6.48,1.18,12.96,1.65,19.45
		c0.39,5.28,0.71,10.56,0.92,15.85c0.38,9.58,0.61,19.17,1.01,28.75c0.09,2.11,0.64,4.21,0.97,6.31c1.26,0,1.87,0,2.48,0
		c4.96-0.01,5.28-0.33,5.29-5.23c0-3.9,0-7.79,0-12.69c2.81,2.04,5.01,3.23,6.67,4.95c1.62,1.68,2.87,1.44,4.47,0.31
		c2.22-1.57,4.38-3.26,6.73-4.59c7.48-4.23,15.03-8.32,22.78-12.58C466.26,682.21,452.76,673.44,435.04,670.57z M396.52,327.63
		c4.31-0.1,9.33-2.37,13.61-6.1c6.3-5.49,10.19-12.44,9.38-20.93c-0.77-8.03-3.74-15.52-8.8-21.92c-3.84-4.86-8.42-8.87-13.82-12.18
		c-7.64-4.68-16.2-5.6-24.6-6.42c-3.26-0.32-7.66-0.76-10.91,2.77c-6.38,6.91-6.7,15.09-4.9,23.26
		c2.35,10.69,7.03,20.56,14.26,28.98C377.1,322.51,384.92,327.26,396.52,327.63z M210.48,697.69
		c-14.4-25.42-47.22-34.52-68.52-20.24c0.84,1.33,1.81,2.59,2.49,4c4.24,8.69,8.42,17.41,12.59,26.13c1.05,2.19,2.24,2.84,4.59,1.4
		c1.31-0.8,3.45-1.31,4.78-0.8c3.15,1.21,6.27,2.79,8.95,4.82c2.53,1.92,4.51,2.35,7.3,0.61c5.03-3.13,10.27-5.92,15.42-8.85
		C202.23,702.41,206.36,700.05,210.48,697.69z M455.34,582.15c3.05,0.35,6.11,1.08,9.14,0.96c9.04-0.35,18.05-0.95,26.72-4.13
		c4.95-1.82,9.61-3.81,13.08-7.94c3.84-4.57,2.36-7.92-1.47-9.83c-6.07-3.02-12.33-4.99-19.13-5.5
		c-12.07-0.91-24.05-3.84-36.25-1.68c-4.33,0.77-8.74,1.33-12.92,2.6c-4.02,1.22-7.27,3.85-7.88,8.41
		c-0.63,4.69,1.08,8.54,5.2,11.02C439.04,580.42,447.08,581.76,455.34,582.15z M468.17,761.31c12.07-12.26,23.72-35.18,9.54-60.52
		c-9.45,5.45-18.94,10.83-28.3,16.42c-1.4,0.84-3.35,2.99-3.08,3.99c0.96,3.51-0.53,6.23-2.35,8.52c-1.5,1.88-1.69,2.99-0.17,4.67
		C451.94,743.35,460.05,752.33,468.17,761.31z M465.37,764.01c-2.92-3.22-5.83-6.48-8.8-9.7c-5.43-5.88-10.83-11.79-16.39-17.53
		c-0.76-0.78-2.45-1.08-3.63-0.93c-2.97,0.37-5.93,1-8.83,1.79c-1.24,0.34-2.95,1.06-3.36,2.06c-4.44,10.9-8.66,21.88-12.95,32.86
		C431.18,781.08,451.24,777.1,465.37,764.01z M146.52,772.61c1.65,0.77,3.8,2.55,6.03,2.68c8.57,0.47,17.22,1.05,25.75,0.37
		c7.58-0.6,13.97-5,20.02-9.52c1.7-1.27,1.52-2.68,0.21-4.09c-7.58-8.21-15.26-16.33-22.69-24.67c-1.79-2.01-3.31-1.92-5.51-1.25
		c-2.41,0.73-4.96,1.43-7.44,1.39c-2.46-0.04-3.53,0.79-4.34,2.97C154.67,751.1,150.64,761.66,146.52,772.61z M256.32,720.92
		c-0.45-1.19-0.66-1.99-1.05-2.71c-0.46-0.86-1.23-1.58-1.58-2.47c-2.06-5.23-2.03-5.25-7.26-4.42c-1.08,0.17-2.13,0.46-3.19,0.72
		c-2.33,0.56-3.65,0.3-3.68-2.74c-0.15-13.08-0.57-26.16-0.82-39.24c-0.11-5.66-0.02-5.68-5.82-5.32c-0.69,0.04-1.37,0.31-1.89,0.43
		c0,16.01,0,31.76,0,47.77c-2.61,0-5.19-0.18-7.73,0.03c-9.76,0.82-19.5,1.95-29.27,2.6c-8.61,0.57-17.26,0.54-25.88,1.04
		c-1.93,0.11-4.33,0.86-5.54,2.19c-1.13,1.24-1.36,3.68-1.24,5.54c0.06,1.03,1.6,2.77,2.55,2.81c4.94,0.25,9.91,0.28,14.85-0.02
		c11.15-0.69,22.28-1.65,33.43-2.45c2.34-0.17,4.72,0.08,7.04-0.19c6.42-0.75,12.81-1.84,19.25-2.48
		C244.2,721.43,249.97,721.29,256.32,720.92z M141.67,770.79c0.12-0.21,0.32-0.51,0.47-0.84c2.88-6.18,5.85-12.32,8.6-18.56
		c1.37-3.1,2.04-6.52,3.55-9.54c2.15-4.29,1.12-11.37-2.68-14.16c-0.77-0.57-2.08-0.42-3.15-0.56c-4.86-0.64-9.76-1.06-14.58-1.93
		c-6.81-1.22-13.55-2.76-20.33-4.17C110.66,737.43,120.59,760.49,141.67,770.79z M378.73,721.33c-2.58,19,9.28,40.55,28.82,49.58
		c3.12-7.14,6.3-14.24,9.33-21.4c1.51-3.57,2.66-7.3,4.14-10.88c0.98-2.38-3.13-11.12-5.63-11.59c-0.12-0.02-0.25,0-0.37-0.01
		c-2.91-0.28-5.85-0.4-8.72-0.88C397.18,724.63,388.07,722.97,378.73,721.33z M188.76,321.36c5.95-5.26,11.02-9.61,15.89-14.17
		c1.05-0.98,2.2-3.04,1.84-4.12c-1.05-3.19-2.85-6.13-4.31-9.19c-3.99-8.33-9.98-14.76-17.92-19.49c-7.6-4.52-17.36-0.76-18.45,7.54
		c-0.92,7.01,0.48,13.86,5.02,19.39C176.5,308.22,182.73,314.67,188.76,321.36z M138.41,678.66c-3.55,2.77-6.63,4.84-9.31,7.34
		c-7.43,6.93-12.38,15.19-14.72,25.31c-1.04,4.47-0.32,6.08,4.84,7.14c5.49,1.13,11.03,2,16.55,3.01c3.97,0.73,7.91,1.64,11.9,2.18
		c1.25,0.17,3.47-0.25,3.82-1.04c1.43-3.22,2.37-6.66,3.34-10.06c0.15-0.53-0.45-1.3-0.74-1.94c-2-4.29-3.93-8.61-6.03-12.85
		C144.95,691.45,141.73,685.21,138.41,678.66z M379.16,713.79c-0.82,2.51,0.41,3.52,2.61,3.9c2.04,0.35,4.08,0.68,6.11,1.09
		c8.16,1.63,16.31,3.33,24.48,4.9c2.9,0.55,5.17,0.04,4.89-3.83c-0.07-0.99,0.35-2.29,1.01-3.03c2.88-3.25,1.61-6.25-0.28-9.28
		c-0.26-0.41-0.59-0.79-0.81-1.22c-4.17-8.4-8.28-16.82-12.6-25.15c-0.3-0.57-2.38-0.86-3.16-0.43c-5.1,2.86-9.34,6.71-12.84,11.44
		C383.76,698.71,380.21,705.73,379.16,713.79z M233.69,236.94c-5.37-0.03-9.31,2.31-9.99,6.1c-0.94,5.24-0.77,10.42,0.65,15.68
		c2.48,9.23,7.13,17.36,12.13,25.33c0.42,0.66,2.19,1.01,3.08,0.73c2.43-0.77,4.64-2.34,7.09-2.92c7.56-1.8,8.68-7.77,8.56-13.83
		c-0.19-9.1-2.38-17.88-8.74-24.81C243.1,239.53,239.07,236.21,233.69,236.94z M416.96,539.13c2.83-0.93,5.1-1.87,7.46-2.42
		c9.37-2.21,18.77-4.32,28.17-6.42c2.28-0.51,3.85-1.81,2.98-4.08c-0.58-1.52-2.43-3.79-3.5-3.68c-4.8,0.48-9.52,1.69-14.26,2.69
		c-0.43,0.09-0.83,0.52-1.15,0.87c-3.06,3.37-6.97,4.44-11.34,4.26c-2.8-0.11-5.71-0.83-8.37-0.29c-9.82,1.98-19.59,4.23-29.3,6.7
		c-2.21,0.56-4.61,1.29-5.56,4.51c-0.51,1.74-3.48,3.41-5.61,3.87c-3.96,0.85-8.11,0.8-12.18,1.12c1.46,1.5,3.46,3.18,5.13,2.89
		c9.11-1.55,18.15-3.57,27.21-5.47c4.01-0.84,8-1.78,12.49-2.78c0.58,7.1,0.99,13.68,1.68,20.22c0.75,7.16,1.83,14.28,2.62,21.43
		c0.25,2.24-0.3,4.37,3.32,4.29c3.4-0.08,4.9-1.33,4.62-4.57c-0.55-6.59-1.18-13.17-1.86-19.74
		C418.7,554.71,417.81,546.93,416.96,539.13z M203.27,761.28c9.02-9.89,14.72-21.03,15.22-34.81c-1.3-0.11-2.14-0.29-2.97-0.24
		c-9.56,0.56-19.12,1.1-28.67,1.76c-2.53,0.17-5.2,0.34-7.46,1.31c-0.98,0.42-1.9,3.23-1.41,4.31c0.93,2.04,2.84,3.66,4.43,5.37
		C189.22,746.3,196.07,753.59,203.27,761.28z M265.48,648.9c0.35,0.28,0.17,0.02-0.01,0.01c-15.5-0.27-31.01-0.57-46.51-0.75
		c-4.59-0.05-7.55,2.56-7.64,6.33c-0.13,5.58,2.17,8.37,7.45,8.43c3.8,0.04,7.59-0.59,11.4-0.66c7.04-0.14,14.08-0.06,21.12-0.15
		c0.91-0.01,2.1-0.2,2.67-0.79C257.88,657.23,261.68,653.02,265.48,648.9z M410.28,576.09c-0.94-10.46-1.78-20.35-2.8-30.22
		c-0.08-0.81-1.46-2.25-1.98-2.14c-6.75,1.42-13.45,3.07-20.38,4.71c0.4,1.22,0.77,2.11,0.98,3.03c1.51,6.92,2.91,13.86,4.53,20.76
		c0.37,1.59,0.27,3.9,3.04,3.87C399.09,576.05,404.51,576.09,410.28,576.09z M422.93,493.26c-4.48-0.66-8.45,1.74-12.18,4.31
		c-6.84,4.72-8.63,15.91-3.41,22.49c3.7,4.68,8.28,7.34,14.2,8.32c10.47,1.73,18.31-4.67,19.93-13.72
		C443.64,502.57,435.9,493.55,422.93,493.26z M413.27,529.07c-1.63-3.22-6.94-6.44-10.16-6.79c-8.26-0.89-16.49-2.02-24.73-3.03
		c-0.8-0.1-1.62-0.01-2.76-0.01c1.76,5.11,3.3,9.98,5.21,14.7c0.36,0.9,2.26,1.78,3.35,1.68c2.63-0.26,5.21-1.11,7.81-1.7
		C399.06,532.3,406.15,530.69,413.27,529.07z M422.23,671.45c-5.43,1.83-10.1,3.41-15.06,5.09c5.55,11.08,10.91,21.78,16.27,32.47
		c0.36-0.04,0.71-0.09,1.07-0.13C423.75,696.62,423.01,684.35,422.23,671.45z M275.78,712.74c0.78,4.79-2.41,8.81-6.74,9.13
		c-5.43,0.4-10.28-3.13-12.04-8.74c-1.54-4.93-0.14-7.73,4.68-9.8c1.24-0.53,2.28-1.52,3.41-2.3c-8.51-0.04-10.99,5.44-10.56,9.57
		c0.86,8.19,6.9,14.35,16.19,13.21c4.57-0.56,8.5-5.98,8.45-12.46c-0.04-5.09-3.28-9.08-8.15-9.35c1.59,3.27,6.54,4.75,4.72,9.78
		c-1.39-2.07-2.55-3.79-4.16-6.18c-0.4,2.53-0.31,4.35-1.02,5.77c-0.66,1.31-2.17,2.18-3.31,3.24c-1.01-1.34-2.49-2.54-2.92-4.05
		c-0.51-1.78-0.12-3.81-0.12-6.36c-3.47,1.64-5.62,3.22-5.42,6.79c0.22,4.06,3.6,8.29,7.43,9.1
		C269.43,720.75,272.75,718.31,275.78,712.74z M241.47,676.89c0.39,10.91-1.51,21.84,0.8,32.59c7.02,0.61,7.83-0.08,7.84-6.36
		c0.01-4.21-0.14-8.43,0.04-12.63c0.12-2.87,0.67-5.72,1.04-8.71C247.19,680.95,242.39,682.69,241.47,676.89z M425.25,713.13
		c-0.32-0.24-0.64-0.47-0.97-0.71c-0.97,0.8-2.44,1.42-2.81,2.43c-1.15,3.15-2.18,6.41-2.7,9.72c-0.59,3.79,1.64,6.64,4.44,8.8
		c6.29,4.85,14.34,2.24,19.65-6.01c3.33-5.18,0.63-12.08-6.09-14.1c0.57,1.43,0.76,2.58,1.39,3.37c5.36,6.56,4.04,8.25-1.86,13.31
		c-4.26,3.66-11.22,3.1-13.29-1c-1.98-3.93-1.78-8.2,0.54-12.19C424.23,715.6,424.7,714.34,425.25,713.13z M175.3,728.87
		c-1.87,0.76-3.69,1.82-5.63,2.21c-2.68,0.54-5.56,1.13-8.18,0.7c-4.21-0.7-5.09-4.78-5.12-8.03c-0.04-3.66,0.72-7.86,4.84-9.6
		c1.64-0.69,3.76-0.54,5.63-0.35c2.3,0.23,4.56,0.91,7.56,1.55c-2.55-3.8-9.08-5.87-12.72-4.73c-4.32,1.35-8.35,7.7-8.36,13.15
		c0,4.18,3.68,10.12,6.98,11.24C166.04,736.98,171.74,734.98,175.3,728.87z M417.95,613.35c2.02,0.47,3.46,0.73,4.85,1.16
		c2.46,0.76,3.25-0.41,3.03-2.59c-0.18-1.82-1.06-3.68-0.82-5.4c0.64-4.57-1.61-8.12-3.89-11.5c-0.72-1.07-3.16-0.97-4.81-1.41
		c-0.22,1.17-0.59,2.33-0.63,3.5c-0.04,1.2,0.23,2.42,0.4,3.63C416.71,605.04,417.36,609.34,417.95,613.35z M212.76,700.96
		c-7.16,3.98-14.06,7.83-20.97,11.67c0.11,0.29,0.21,0.57,0.32,0.86c8.13-0.54,16.25-1.07,25.1-1.66
		C215.55,707.78,214.2,704.48,212.76,700.96z M266.33,735.23c-0.04,0.21-0.08,0.42-0.12,0.63c-2.46,0-5.02-0.41-7.35,0.15
		c-1.39,0.33-3.19,2.05-3.41,3.38c-0.3,1.75,1.28,2.77,3.44,2.61c5.57-0.41,11.16-0.54,16.73-0.92c0.85-0.06,1.66-0.82,2.48-1.26
		c-0.53-0.86-0.9-2.3-1.61-2.49C273.15,736.45,269.72,735.9,266.33,735.23z M268.28,689.88c-0.63,1.3-1.5,2.31-1.58,3.39
		c-0.43,5.52-0.71,11.05-0.89,16.59c-0.02,0.72,0.83,1.47,1.28,2.21c0.48-0.68,1.27-1.32,1.4-2.06c0.68-4.09,1.48-8.2,1.66-12.32
		C270.25,695.25,271.51,692.27,268.28,689.88z M268.05,687.6c0,0.01,0,0.02,0,0.03c3.08,0,6.16,0.08,9.23-0.07
		c0.61-0.03,1.18-0.93,1.77-1.43c-0.54-0.4-1.05-1.11-1.61-1.14c-6.12-0.35-12.24-0.65-18.37-0.78c-0.72-0.01-1.46,1.12-2.19,1.73
		c0.77,0.55,1.51,1.53,2.32,1.58C262.14,687.72,265.1,687.6,268.05,687.6z M251.95,665.13c-0.28-0.35-0.57-0.71-0.85-1.06
		c-8.84-1.04-11.7,1.71-9.09,9.5C245.43,670.66,248.69,667.9,251.95,665.13z M139,594.32c0.17,0.48,0.35,0.96,0.52,1.45
		c2.16-0.14,4.36-0.09,6.47-0.49c2.6-0.48,2.48-2.18,1.23-4.77C144.36,591.84,141.68,593.08,139,594.32z M124.32,586.34
		c0.21,0.42,0.42,0.85,0.64,1.27c2.41-0.45,4.83-0.9,7.24-1.35c0.14-0.31,0.28-0.62,0.42-0.94c-1.52-1.03-3.16-3-4.53-2.82
		C126.69,582.69,125.57,584.98,124.32,586.34z M268.32,730.69c-0.8-1.87-1.34-3.16-1.89-4.44c-0.81,1.85-1.82,3.64-2.3,5.57
		c-0.16,0.62,1.08,1.59,1.68,2.4C266.62,733.07,267.44,731.93,268.32,730.69z M277.57,658.6c0.28,0.49,0.57,0.98,0.85,1.47
		c1.57-0.85,3.33-1.49,4.62-2.64c0.67-0.6,0.52-2.12,0.74-3.22c-0.28-0.06-0.55-0.12-0.83-0.18
		C281.16,655.55,279.36,657.07,277.57,658.6z M362.37,535.4c3.12-0.34,5.43-0.6,7.81-0.86c-0.4-1.53-0.75-2.87-1.14-4.35
		C366.81,531.94,364.87,533.45,362.37,535.4z M262.65,689.93c0,3.11,0,5.65,0,8.41C265.84,696.68,265.93,692.09,262.65,689.93z
		 M117.69,598.11c0.12-0.66,0.25-1.32,0.37-1.98c-2.39-0.39-4.77-0.78-7.16-1.17c-0.07,0.39-0.14,0.79-0.21,1.18
		C113.03,596.79,115.36,597.45,117.69,598.11z"/>
	<path d="M166.5,141.41c0.41,11.78-2.33,22.8-8.82,32.64c-3.14,4.76-6.66,9.49-10.86,13.29c-12.77,11.56-27.68,17.81-45,13.27
		c-10.89-2.86-19.51-9.79-26.31-19.09c-3.79-5.19-7.18-10.45-9.75-16.33c-5.38-12.31-7.62-25.2-6.11-38.42
		c0.65-5.62,3.6-11.01,5.7-16.42c2.57-6.6,7.57-11.08,13.56-14.49c4.78-2.73,9.95-4.3,15.32-5.73c6.01-1.6,11.91-1.45,17.91-1.66
		c8.94-0.3,17.16,2.57,25.23,5.89c10.41,4.27,17.85,12.07,23.78,21.31c3.52,5.49,4.78,11.87,5.31,18.33
		C166.67,136.44,166.5,138.94,166.5,141.41z M113.35,193.55c1.67-0.54,4.19-1.27,6.64-2.18c4.61-1.72,9.48-3.02,13.7-5.45
		c10.2-5.88,16.93-15.15,21.11-25.82c3.9-9.98,3.57-20.69,1.65-31.19c-0.54-2.95-1.52-5.98-3-8.57
		c-3.44-6.02-8.11-10.95-14.05-14.74c-9.14-5.83-19.33-7.89-29.84-8.27c-4.95-0.18-10.16,0.41-14.87,1.88
		c-5.27,1.64-10.66,3.96-15.01,7.27c-8.56,6.5-10.72,16.48-11.49,26.52c-0.64,8.46,1.09,16.72,4.26,24.68
		c3.46,8.68,7.83,16.73,14.23,23.66C93.62,188.84,102.41,192.14,113.35,193.55z"/>
	<path d="M157.26,93.68c-4.66,0.05-6.6-2.94-4.31-5.89c4.13-5.32,8.73-10.29,13.45-15.1c0.66-0.67,3.45-0.03,4.67,0.83
		c1.59,1.12,1.8,2.77,0.07,4.64c-4.06,4.4-7.77,9.11-11.68,13.64C158.67,92.72,157.61,93.39,157.26,93.68z"/>
	<path d="M95.34,53.38c3.13-0.01,4.76,2.59,5.3,7.52c0.48,4.47,1.12,8.95,2.11,13.32c0.62,2.74-0.23,4.48-2.6,5.12
		c-2.58,0.69-4.21-1.06-4.73-3.42c-1.38-6.29-2.7-12.59-3.79-18.93C91.17,54.37,92.77,53.13,95.34,53.38z"/>
	<path d="M196.79,133.91c2.61,0.07,4.47,0.51,4.86,3.56c0.39,3.06-1.53,3.84-3.81,4.44c-5.2,1.37-10.44,2.58-15.58,4.15
		c-2.33,0.71-4.05-0.02-4.35-1.95c-0.23-1.52,0.61-4.01,1.8-4.76c2.34-1.48,5.23-2.13,7.94-2.97
		C190.67,135.47,193.74,134.73,196.79,133.91z"/>
	<path d="M161.46,203.95c1.18-1.31,1.86-2.74,2.87-3.03c1.35-0.39,3.49-0.5,4.37,0.29c4.47,4.05,8.78,8.31,12.82,12.79
		c0.76,0.84,0.57,3.52-0.22,4.53c-1.31,1.68-3.54,1.68-5.26,0.11c-2.63-2.39-5.13-4.91-7.71-7.36c-1.33-1.25-2.77-2.39-4.04-3.7
		C163.34,206.62,162.59,205.44,161.46,203.95z"/>
	<path d="M95.88,216.11c-0.19,3.74-0.3,8.51-0.72,13.25c-0.33,3.69-2.73,5.39-5.58,4.1c-0.85-0.39-1.89-1.64-1.87-2.47
		c0.14-6,0.44-11.99,0.87-17.98c0.18-2.51,2.07-4.13,4.36-3.86C96.3,209.54,96.55,212.3,95.88,216.11z"/>
	<path d="M33.1,177.25c-0.73-0.61-2.4-1.33-2.48-2.2c-0.14-1.49,0.26-3.96,1.23-4.47c5.18-2.67,10.55-5.03,16.01-7.05
		c0.9-0.33,2.79,1.4,3.86,2.52c0.41,0.43,0.13,2.18-0.42,2.73C46.42,173.61,40.09,175.42,33.1,177.25z"/>
	<path d="M52.38,107.06c0.03,4.25-1.71,5.49-4.67,4.51c-4.13-1.37-8.38-2.44-12.35-4.16c-1.4-0.61-2.89-2.74-2.97-4.25
		c-0.12-2.23,1.54-3.85,4.19-3.13c2.94,0.8,5.87,1.67,8.75,2.67c1.84,0.64,3.66,1.41,5.32,2.41
		C51.6,105.67,52.18,106.82,52.38,107.06z"/>
	<path class="st0" d="M353.01,261.4c-4.28,6.74-4.77,13.36-4.5,20.18c0.33,8.24,2.71,15.98,6.24,23.25
		c2.93,6.02,6.59,11.75,10.4,17.27c3.87,5.62,9.71,8.93,15.96,11.34c3.06,1.18,6.31,2.07,9.55,2.52c2.54,0.35,5.21-0.2,8.96-0.41
		c-2,1.69-3.28,2.68-4.46,3.78c-11.29,10.51-23.72,19.48-37.07,27.17c-0.91,0.52-2.49,0.38-3.58,0.01
		c-3.62-1.21-5.16-0.37-6.04,3.22c-0.24,0.99-1.27,1.9-2.15,2.58c-0.74,0.58-1.84,0.68-2.68,1.16c-0.73,0.42-1.33,1.09-2.08,1.73
		c0.74,3.45,2.21,5.07,5.92,3.36c1.38-0.64,3.09-0.56,5.17-0.9c1.89,3.87,4.04,7.84,5.81,11.97c4.74,11.06,7.29,22.58,6.64,34.68
		c-0.64,11.93-3.99,22.9-10.91,32.86c-5.61,8.09-12.58,14.8-20.34,20.53c-5.57,4.12-11.91,7.44-18.33,10.11
		c-8.79,3.65-17.96,6.43-27.03,9.39c-2.75,0.9-5.7,1.44-8.59,1.6c-8.74,0.47-17.53,1.35-26.22,0.81
		c-11.6-0.72-22.77-3.56-33.67-8.13c-9.64-4.04-18.31-9.32-25.51-16.5c-7.56-7.54-14.92-15.55-18.39-26.16
		c-0.8-2.44-2.46-4.6-3.28-7.04c-3.66-10.98-5.86-22.12-6.66-33.83c-0.76-11.11,0.55-21.83,2.26-32.53
		c0.96-5.98,3.82-11.78,6.55-17.3c3.52-7.14,7.67-13.97,11.73-20.82c1.29-2.18,3.19-3.99,4.81-5.96c3.53,1.92,3.53,1.92,6.89-2.57
		c-5.02-3.14-0.18-4.83,1.34-6.45c2.83-3.02,6.21-5.56,9.5-8.13c0.68-0.54,2.01-0.66,2.9-0.44c3.7,0.9,5.81-0.73,6.01-4.51
		c0.06-1.19,0.63-2.81,1.53-3.42c4.59-3.14,9.31-6.1,14.11-8.9c1-0.58,2.64-0.6,3.8-0.26c2.27,0.65,3.32-0.23,4.45-2.08
		c0.93-1.51,2.39-2.83,3.87-3.84c1.58-1.08,3.41-1.92,5.25-2.46c1.07-0.32,2.62-0.24,3.54,0.33c3.29,2.03,5.55,1.11,6.82-2.69
		c0.44-1.31,1.6-2.92,2.8-3.34c9.67-3.37,19.33-6.82,29.18-9.6c10.44-2.94,21.02-5.49,31.65-7.59
		C333.96,263.64,342.95,262.8,353.01,261.4z M305.96,277.4c-11.58-0.71-22.96,11.06-22.44,21.71c0.68,13.94,7.41,22.77,20.74,22.84
		c10.52,0.06,23.62-9.98,23.42-23.1C327.49,285.59,318.21,278.11,305.96,277.4z M342.27,410.31c0-1.61,0.42-3.39-0.12-4.78
		c-0.52-1.33-1.91-2.96-3.17-3.21c-2.1-0.42-2.82,1.31-2.8,3.36c0.04,4.94-0.84,9.57-3.01,14.21c-3.33,7.1-8.3,12.31-14.88,16.28
		c-8.14,4.9-17.03,5.82-26.29,5.59c-7.54-0.19-14.14-2.56-19.84-7.38c-3.38-2.86-6.65-5.89-9.74-9.07
		c-1.77-1.83-3.29-1.42-4.83-0.14c-1.48,1.24-2.74,2.48-1.55,4.92c3.02,6.18,7.03,11.43,13.3,14.46c4.02,1.94,8.25,3.59,12.54,4.81
		c6.14,1.74,12.49,1.45,18.79,0.88c2.43-0.22,5.05-0.27,7.19-1.26c6.42-2.96,13-5.82,18.88-9.69
		C336.96,432.56,341.62,422.4,342.27,410.31z M278.07,322.45c-0.73-6.26-2.51-14.47-10.41-20.03c-4.72-3.32-10.18-4.5-14.99-2.33
		c-8.09,3.65-14.63,9.43-17.17,18.65c-3.43,12.46,1.68,24.02,12.65,27.65C262.59,351.18,278.21,341.95,278.07,322.45z
		 M241.32,401.35c-0.14-9.08-4.16-17.41-12.55-23.7c-7.54-5.65-16.08-7.29-25.26-7.23c-6.87,0.05-12.3,3.03-16.61,7.91
		c-5.62,6.37-6.79,14.22-6.2,22.44c0.86,11.85,6.58,20.84,16.19,27.51c11.14,7.72,25.19,8.17,34.51-0.71
		C238.31,421,241.15,412.23,241.32,401.35z"/>
	<path class="st0" d="M366.11,523.45c-5.6-0.84-8.13,3.13-11.29,5.64c-3.12,2.48-5.84,3.21-9.8,1.95c-4.97-1.58-10.27-2.1-15.43-3.1
		c-5.39-1.05-10.79-2.09-16.17-3.19c-6.31-1.29-12.61-2.69-18.93-3.91c-1.55-0.3-3.32-0.41-4.78,0.05
		c-1.34,0.43-2.97,1.55-3.37,2.74c-0.31,0.92,0.75,2.99,1.76,3.55c3.74,2.07,7.56,4.2,11.61,5.42c9.46,2.87,19.04,5.34,28.63,7.74
		c5.1,1.28,10.28,2.42,15.49,2.95c2.78,0.28,3.57,1.81,4.34,3.73c2.68,6.63,6.95,11.79,13.22,15.41c2.07,1.19,3.54,1.61,5.03-0.48
		c1.49-2.09,3.6-4.14,1.07-6.81c-2.38-2.51-4.87-4.9-7.3-7.37c-0.57-0.58-1.07-1.23-1.6-1.85c0.2-0.29,0.4-0.58,0.6-0.87
		c0.94,0.57,2.29,0.92,2.75,1.76c2,3.62,4.6,5.2,8.81,3.84c1.42-0.46,3.12-0.07,4.4-0.07c1.28,5.16,2.64,9.83,3.58,14.58
		c1.52,7.67,2.71,15.41,4.17,23.1c1.25,6.6,2.72,13.15,4.03,19.73c0.26,1.31,0.13,2.7,0.33,4.03c1.01,6.9,1.94,13.81,3.15,20.68
		c0.72,4.1,0.27,5.46-3.35,5.68c-7.98,0.5-15.97,0.77-23.95,1.06c-8.26,0.3-16.52,0.59-24.79,0.73c-21.77,0.37-43.54,1-65.31,0.86
		c-23.07-0.14-46.13-1.09-69.2-1.61c-15.4-0.35-30.8-0.54-46.2-0.89c-1.68-0.04-3.34-0.67-5.55-1.14c0.59-5.05,1.15-10.13,1.79-15.2
		c0.62-4.95,1.22-9.91,1.98-14.84c0.93-6.02,1.93-12.03,3.07-18c1.54-8.03,3.07-16.07,4.92-24.03c1.71-7.36,3.71-14.65,5.83-21.9
		c1.7-5.81,3.51-11.61,5.77-17.22c2.55-6.33,5.46-12.55,8.59-18.62c2.94-5.71,6.39-11.16,9.57-16.74c1.01-1.78,2.11-2.05,3.9-0.9
		c4.02,2.58,7.95,5.46,12.29,7.36c6.59,2.87,13.47,5.08,20.28,7.44c13.36,4.63,27.25,4.88,41.14,4.44c4.6-0.14,9.21-1.16,13.74-2.12
		c7.13-1.51,14.34-2.85,21.24-5.11c6.36-2.09,12.53-4.97,18.45-8.12c5.27-2.8,10.13-6.41,15.1-9.76c2.02-1.36,3.37-1.17,5,0.76
		c7.83,9.24,13.12,19.91,17.84,30.92C363.58,518.1,364.7,520.4,366.11,523.45z"/>
	<path class="st0" d="M391.68,253.06c4.39-2.07,8.55-3.77,12.41-5.98c1.79-1.03,3.53-3,1.37-5.37c-2.06-2.25-4.74-4.07-6.36-6.59
		c-5.31-8.23-5.33-17.08-1.65-25.88c3.62-8.68,10.97-12.07,19.81-13.83c6.79-1.35,13.34-0.88,19.63,1.08
		c6.71,2.09,13.98,3.89,17.84,10.9c0.24,0.43,0.59,0.8,0.79,1.24c2.46,5.39,4,5.83,7.93,1.49c5.32-5.88,11.79-10.35,18.91-13.14
		c6.29-2.46,13.4-3.34,20.32-1.98c3.87,0.76,7.71,1.9,11.4,3.29c6.86,2.59,9.44,8.65,8.1,15.04c-0.25,1.18,0.69,2.98,1.65,3.89
		c0.52,0.49,2.49,0.05,3.39-0.58c7.16-5.02,15.22-7.05,23.79-7.91c4.9-0.49,9.62-0.05,14.41,0.82c6.27,1.14,10.79,7.48,9.73,13.51
		c-0.84,4.81-1.35,9.7-1.53,14.58c-0.08,2.22,0.68,4.61,1.57,6.7c2.22,5.23,5.08,10.2,7.05,15.52c3.26,8.82,0.06,16.28-8.56,20.01
		c-4.74,2.05-9.25-0.41-12.97-2.94c-7-4.77-13.62-10.13-20.24-15.43c-4.78-3.83-7.79-3.38-8.99,2.49
		c-2.13,10.4-9.22,16.97-16.43,23.77c-5.98,5.64-13.39,8.03-20.86,10.25c-5.98,1.78-11.95-0.25-17.65-1.95
		c-3.48-1.04-6.71-3.14-9.83-5.13c-4.19-2.68-5.25-6.96-4.89-11.64c0.22-2.77-0.94-3.58-3.62-3.79c-8.48-0.66-16.09,2.73-24.01,4.72
		c-1.78,0.45-3.47,1.33-5.27,1.56c-3.26,0.42-5.86,0.14-7.89-3.6c-5.58-10.28-13.66-18.17-24.82-22.47
		c-0.46-0.18-0.89-0.41-1.31-0.66C393.97,254.49,393.04,253.9,391.68,253.06z"/>
	<path class="st0" d="M172.43,343.8c-16.82,31.66-19.55,64.29-9.37,98.77c-7.71,1.32-14.39,3.28-21.09,3.4
		c-10.01,0.19-19.92-1.31-27.22-9.45c-1.01-1.13-1.55-2.71-2.16-4.15c-1.44-3.4-3.22-3.61-6.21-1.39
		c-3.69,2.75-7.42,5.85-11.65,7.38c-10.01,3.61-20.38,3.53-30.82,1.3c-6.83-1.45-12.61-4.87-17.25-9.6
		c-2.62-2.66-3.97-7.01-4.86-10.83c-1.86-7.94-3.2-16.09-9.75-21.7c-3.3-2.83-7.41-4.71-11.1-7.11c-2.8-1.82-3.77-4.16-3.17-7.73
		c0.64-3.81,0.46-7.72,3.92-10.33c2.2-1.66,4.32-3.73,6.82-4.59c6.22-2.11,12.54-3.95,19.15-0.7c2.8,1.37,6.08,1.79,9.15,2.61
		c4.43,1.19,8.24-0.56,10.37-4.66c1.46-2.82,2.65-5.87,4.59-8.32c2.68-3.38,5.54-6.9,9.06-9.24c5.03-3.35,10.48-5.79,17.11-5.46
		c6.14,0.31,11.16,2.61,15.83,5.99c5.56,4.01,10.68,8.62,16.28,12.57c6.49,4.57,13.04,4.12,19.19-0.62
		c6.32-4.87,12.66-9.71,19.07-14.44C169.48,344.66,171.05,344.36,172.43,343.8z"/>
	<path class="st0" d="M281.55,684.09c3.68,0,7.16,0.23,10.59-0.07c3.14-0.27,6.25-1,9.33-1.73c3.7-0.87,4.98-3.8,4.88-7.14
		c-0.09-3.23-1.98-5.07-5.34-6.11c-8.84-2.74-17.72-1.61-26.62-1.03c-2.88,0.19-5.75,0.54-9.72,0.93c3.98-3.2,6-7.46,11.41-6.96
		c2.02,0.19,4.15-0.33,6.17-0.79c2.52-0.57,4.1-4.08,3.29-6.89c-0.53-1.83-1.05-3.66-1.77-6.19c2.09,0,3.4,0,4.72,0
		c17.98,0,35.95,0.12,53.93-0.03c11.73-0.1,23.46-0.55,35.18-0.92c5.92-0.18,11.82-0.61,17.74-0.77c3.56-0.1,5.61-1.86,5.82-5.27
		c0.18-2.91-0.05-5.88-0.4-8.79c-0.62-5.22-1.4-10.43-2.23-15.62c-0.68-4.21-1.6-8.37-2.3-12.57c-1.19-7.05-2.29-14.12-3.5-21.61
		c6.61,0,12.59,0,18.72,0c0.31,2.73,2.08,5.78-2.36,6.86c-0.04,0.01,0.07,2.53,0.77,3.2c0.74,0.71,2.26,0.62,3.05,0.79
		c1.01,6.45,2.06,12.73,2.91,19.04c0.1,0.75-0.65,1.88-1.34,2.43c-1.17,0.94-2.59,1.55-3.84,2.26c0.32,0.8,0.37,1.19,0.51,1.23
		c4.62,1.32,6.39,4.26,6.39,9.13c0,4.67,1.09,9.33,1.6,13.25c-13.48,4.51-26.34,7.9-38.39,13.13c-8.8,3.82-16.59,10-24.75,15.27
		c-8.98,5.8-17.62,12.14-26.82,17.56c-11.67,6.87-24.13,12.06-37.44,14.96c-1.56,0.34-3.2,0.62-4.62,1.3
		c-5.57,2.7-10.19,0.4-13.85-3.35c-1.37-1.41-1.09-4.84-0.77-7.25c0.12-0.88,2.5-1.99,3.9-2.08
		C280.23,690.04,280.99,687.53,281.55,684.09z"/>
	<path class="st0" d="M427.3,579.21c12.81,9.48,26.8,8.4,40.54,8.18c13.67-0.22,27.02-2,38.67-10.65
		c-0.28,5.06-0.34,10.24-0.91,15.36c-0.6,5.42-1.67,10.79-2.57,16.18c-1.25,7.43-2.54,14.85-3.81,22.27
		c-0.04,0.24-0.18,0.46-0.24,0.7c-1.9,7.67-1.9,7.41-9.79,7.35c-7.22-0.06-14.49,1.15-21.66,0.65c-8.6-0.59-17.12-2.39-25.67-3.69
		c-0.35-0.05-0.66-0.35-1.02-0.43c-6.88-1.5-6.9-1.87-7.21-8.75c-0.28-6.1-1.21-12.17-1.97-18.24c-0.36-2.89-1.09-5.74-1.48-8.63
		c-0.69-5.07-1.23-10.16-1.88-15.24C428.11,582.96,427.78,581.68,427.3,579.21z"/>
	<path class="st0" d="M435.04,670.57c17.72,2.87,31.23,11.64,41.1,26.83c-7.75,4.26-15.3,8.35-22.78,12.58
		c-2.36,1.33-4.51,3.03-6.73,4.59c-1.6,1.13-2.85,1.36-4.47-0.31c-1.66-1.72-3.86-2.91-6.67-4.95c0,4.9,0,8.8,0,12.69
		c-0.01,4.91-0.33,5.22-5.29,5.23c-0.61,0-1.23,0-2.48,0c-0.33-2.1-0.88-4.19-0.97-6.31c-0.4-9.58-0.63-19.17-1.01-28.75
		c-0.21-5.29-0.53-10.57-0.92-15.85c-0.48-6.49-1.02-12.97-1.65-19.45c-0.2-2.1-1.24-2.88-3.6-2.2c-6.21,1.79-12.65,2.84-18.72,4.99
		c-11.92,4.2-23.26,9.63-33.76,16.84c-10.03,6.88-20.22,13.57-30.7,19.72c-8.08,4.74-16.49,9.16-25.21,12.52
		c-8.16,3.14-16.94,4.71-25.45,6.93c-1.47,0.38-2.98,0.58-4.35,0.84c-0.23-3.37-0.44-6.43-0.7-10.27c0.31-0.13,1.45-0.77,2.66-1.09
		c7.5-2,15.19-3.43,22.48-6.01c7.73-2.73,15.47-5.87,22.51-10.02c12.22-7.22,23.88-15.39,35.82-23.08
		c9.71-6.26,19.63-12.19,30.74-15.65c8.6-2.68,17.34-4.9,26.74-7.52c-0.86-6.53-1.77-13.4-2.73-20.73c2.82,0,5.53,0,8.24,0
		c0.7,5.44,1.24,10.92,2.2,16.33c0.31,1.78,1.39,3.65,2.64,4.98c2.55,2.7,2.8,5.09,0.8,8.02c-0.95,1.38-1.73,3.32-1.6,4.93
		c0.69,8.75,1.7,17.47,2.58,26.21c0.09,0.86,0.01,1.73,0.04,2.6c0.25,6.91,0.49,13.82,0.81,20.72c0.04,0.87,0.5,1.72,0.76,2.59
		c0.37-0.05,0.74-0.1,1.12-0.16C436,696.07,435.54,683.79,435.04,670.57z"/>
	<path class="st0" d="M396.52,327.63c-11.59-0.38-19.41-5.12-25.79-12.55c-7.23-8.42-11.91-18.28-14.26-28.98
		c-1.79-8.17-1.47-16.35,4.9-23.26c3.25-3.52,7.65-3.08,10.91-2.77c8.4,0.81,16.96,1.74,24.6,6.42c5.4,3.31,9.98,7.32,13.82,12.18
		c5.06,6.4,8.03,13.89,8.8,21.92c0.81,8.49-3.08,15.44-9.38,20.93C405.85,325.27,400.83,327.53,396.52,327.63z M404.7,289.81
		c0.01-5.14-2.08-7.92-5.99-7.95c-4.41-0.03-7.14,3.08-7.16,8.16c-0.02,3.98,2.74,6.51,7.14,6.56
		C402.87,296.62,404.69,294.58,404.7,289.81z M376.63,287.83c-4.85,0-6.08,1.57-6.11,7.78c-0.02,4.46,2.43,7.13,6.58,7.18
		c2.98,0.04,6.69-4.38,6.35-7.96C383.07,290.78,380.38,286.93,376.63,287.83z"/>
	<path class="st0" d="M210.48,697.69c-4.12,2.36-8.25,4.72-12.38,7.07c-5.15,2.94-10.39,5.73-15.42,8.85
		c-2.79,1.74-4.77,1.3-7.3-0.61c-2.68-2.03-5.8-3.61-8.95-4.82c-1.33-0.51-3.47,0-4.78,0.8c-2.35,1.44-3.54,0.79-4.59-1.4
		c-4.17-8.72-8.36-17.44-12.59-26.13c-0.68-1.41-1.66-2.67-2.49-4C163.27,663.17,196.08,672.27,210.48,697.69z"/>
	<path class="st0" d="M455.34,582.15c-8.26-0.39-16.3-1.73-23.51-6.08c-4.12-2.49-5.82-6.33-5.2-11.02
		c0.61-4.56,3.85-7.19,7.88-8.41c4.19-1.27,8.59-1.84,12.92-2.6c12.21-2.16,24.18,0.76,36.25,1.68c6.8,0.51,13.05,2.48,19.13,5.5
		c3.83,1.91,5.31,5.27,1.47,9.83c-3.47,4.13-8.13,6.12-13.08,7.94c-8.67,3.18-17.68,3.78-26.72,4.13
		C461.45,583.23,458.39,582.5,455.34,582.15z"/>
	<path class="st0" d="M468.17,761.31c-8.12-8.98-16.23-17.96-24.36-26.92c-1.52-1.68-1.33-2.79,0.17-4.67
		c1.83-2.29,3.32-5.01,2.35-8.52c-0.27-1,1.68-3.15,3.08-3.99c9.36-5.59,18.85-10.97,28.3-16.42
		C491.89,726.13,480.24,749.05,468.17,761.31z"/>
	<path class="st0" d="M465.37,764.01c-14.13,13.09-34.19,17.07-53.95,8.54c4.29-10.98,8.51-21.96,12.95-32.86
		c0.4-0.99,2.11-1.72,3.36-2.06c2.89-0.79,5.85-1.42,8.83-1.79c1.18-0.15,2.87,0.15,3.63,0.93c5.57,5.75,10.97,11.65,16.39,17.53
		C459.54,757.53,462.45,760.79,465.37,764.01z"/>
	<path class="st0" d="M146.52,772.61c4.12-10.95,8.14-21.51,12.05-32.11c0.8-2.18,1.88-3.01,4.34-2.97
		c2.48,0.04,5.03-0.66,7.44-1.39c2.2-0.67,3.72-0.76,5.51,1.25c7.43,8.34,15.11,16.46,22.69,24.67c1.3,1.41,1.49,2.82-0.21,4.09
		c-6.05,4.52-12.44,8.92-20.02,9.52c-8.53,0.67-17.18,0.1-25.75-0.37C150.32,775.16,148.18,773.38,146.52,772.61z"/>
	<path class="st0" d="M256.32,720.92c-6.34,0.36-12.12,0.51-17.86,1.08c-6.43,0.64-12.82,1.73-19.25,2.48
		c-2.32,0.27-4.7,0.03-7.04,0.19c-11.14,0.8-22.28,1.76-33.43,2.45c-4.94,0.31-9.91,0.27-14.85,0.02c-0.94-0.05-2.48-1.78-2.55-2.81
		c-0.11-1.87,0.11-4.3,1.24-5.54c1.22-1.33,3.61-2.08,5.54-2.19c8.62-0.5,17.27-0.47,25.88-1.04c9.77-0.65,19.51-1.78,29.27-2.6
		c2.54-0.21,5.12-0.03,7.73-0.03c0-16.01,0-31.76,0-47.77c0.52-0.12,1.2-0.39,1.89-0.43c5.8-0.36,5.71-0.34,5.82,5.32
		c0.24,13.08,0.67,26.16,0.82,39.24c0.03,3.04,1.35,3.3,3.68,2.74c1.06-0.26,2.12-0.55,3.19-0.72c5.23-0.83,5.2-0.8,7.26,4.42
		c0.35,0.89,1.12,1.61,1.58,2.47C255.65,718.93,255.87,719.74,256.32,720.92z"/>
	<path class="st0" d="M141.67,770.79c-21.08-10.31-31.01-33.37-28.12-49.75c6.78,1.4,13.52,2.94,20.33,4.17
		c4.82,0.86,9.72,1.29,14.58,1.93c1.07,0.14,2.38,0,3.15,0.56c3.8,2.79,4.83,9.87,2.68,14.16c-1.51,3.01-2.18,6.44-3.55,9.54
		c-2.75,6.24-5.72,12.38-8.6,18.56C141.99,770.28,141.79,770.59,141.67,770.79z"/>
	<path class="st0" d="M378.73,721.33c9.33,1.64,18.45,3.3,27.58,4.82c2.88,0.48,5.81,0.6,8.72,0.88c0.12,0.01,0.25-0.01,0.37,0.01
		c2.49,0.47,6.61,9.22,5.63,11.59c-1.48,3.58-2.63,7.31-4.14,10.88c-3.03,7.16-6.21,14.26-9.33,21.4
		C388.01,761.87,376.15,740.33,378.73,721.33z"/>
	<path class="st0" d="M188.76,321.36c-6.03-6.69-12.26-13.14-17.92-20.04c-4.54-5.54-5.95-12.38-5.02-19.39
		c1.09-8.3,10.85-12.06,18.45-7.54c7.94,4.72,13.93,11.16,17.92,19.49c1.46,3.06,3.27,6,4.31,9.19c0.36,1.08-0.79,3.14-1.84,4.12
		C199.78,311.75,194.71,316.1,188.76,321.36z"/>
	<path class="st0" d="M138.41,678.66c3.31,6.54,6.53,12.78,9.64,19.08c2.09,4.24,4.03,8.56,6.03,12.85c0.3,0.64,0.9,1.41,0.74,1.94
		c-0.97,3.4-1.91,6.85-3.34,10.06c-0.35,0.79-2.56,1.21-3.82,1.04c-3.99-0.54-7.94-1.45-11.9-2.18c-5.51-1.01-11.06-1.88-16.55-3.01
		c-5.16-1.06-5.87-2.67-4.84-7.14c2.35-10.12,7.29-18.38,14.72-25.31C131.78,683.51,134.87,681.44,138.41,678.66z"/>
	<path class="st0" d="M379.16,713.79c1.05-8.06,4.6-15.09,9.42-21.61c3.49-4.73,7.74-8.58,12.84-11.44
		c0.77-0.43,2.86-0.14,3.16,0.43c4.32,8.32,8.43,16.75,12.6,25.15c0.22,0.43,0.55,0.81,0.81,1.22c1.89,3.03,3.16,6.03,0.28,9.28
		c-0.66,0.74-1.08,2.03-1.01,3.03c0.28,3.86-1.99,4.38-4.89,3.83c-8.17-1.56-16.32-3.27-24.48-4.9c-2.03-0.4-4.07-0.74-6.11-1.09
		C379.57,717.31,378.34,716.31,379.16,713.79z"/>
	<path class="st0" d="M233.69,236.94c5.38-0.74,9.4,2.58,12.79,6.27c6.35,6.93,8.54,15.72,8.74,24.81c0.13,6.06-1,12.03-8.56,13.83
		c-2.45,0.59-4.66,2.15-7.09,2.92c-0.89,0.28-2.67-0.07-3.08-0.73c-5-7.97-9.65-16.1-12.13-25.33c-1.41-5.26-1.58-10.44-0.65-15.68
		C224.38,239.26,228.32,236.92,233.69,236.94z"/>
	<path class="st0" d="M416.96,539.13c0.85,7.79,1.74,15.58,2.54,23.37c0.68,6.58,1.31,13.16,1.86,19.74
		c0.27,3.25-1.23,4.5-4.62,4.57c-3.62,0.08-3.08-2.05-3.32-4.29c-0.78-7.15-1.86-14.28-2.62-21.43c-0.69-6.55-1.1-13.13-1.68-20.22
		c-4.49,1-8.48,1.94-12.49,2.78c-9.05,1.9-18.09,3.92-27.21,5.47c-1.67,0.28-3.67-1.39-5.13-2.89c4.07-0.32,8.22-0.27,12.18-1.12
		c2.13-0.46,5.09-2.13,5.61-3.87c0.95-3.22,3.35-3.94,5.56-4.51c9.71-2.47,19.48-4.72,29.3-6.7c2.66-0.54,5.57,0.18,8.37,0.29
		c4.38,0.18,8.29-0.89,11.34-4.26c0.32-0.35,0.72-0.78,1.15-0.87c4.74-1,9.46-2.2,14.26-2.69c1.07-0.11,2.92,2.16,3.5,3.68
		c0.87,2.28-0.7,3.57-2.98,4.08c-9.4,2.1-18.8,4.21-28.17,6.42C422.06,537.27,419.79,538.2,416.96,539.13z"/>
	<path class="st0" d="M203.27,761.28c-7.2-7.69-14.05-14.99-20.87-22.31c-1.59-1.71-3.5-3.33-4.43-5.37
		c-0.49-1.07,0.44-3.89,1.41-4.31c2.27-0.97,4.94-1.13,7.46-1.31c9.55-0.66,19.11-1.2,28.67-1.76c0.83-0.05,1.67,0.13,2.97,0.24
		C218,740.25,212.3,751.39,203.27,761.28z"/>
	<path class="st0" d="M265.48,648.9c-3.8,4.12-7.59,8.33-11.52,12.41c-0.57,0.59-1.76,0.78-2.67,0.79
		c-7.04,0.09-14.08,0.01-21.12,0.15c-3.8,0.07-7.6,0.7-11.4,0.66c-5.27-0.05-7.58-2.85-7.45-8.43c0.09-3.77,3.04-6.38,7.64-6.33
		c15.5,0.18,31.01,0.48,46.51,0.75C265.65,648.92,265.82,649.19,265.48,648.9z"/>
	<path class="st0" d="M410.28,576.09c-5.77,0-11.19-0.04-16.61,0.02c-2.77,0.03-2.66-2.29-3.04-3.87
		c-1.62-6.89-3.02-13.84-4.53-20.76c-0.2-0.93-0.58-1.81-0.98-3.03c6.93-1.64,13.63-3.29,20.38-4.71c0.51-0.11,1.89,1.33,1.98,2.14
		C408.5,555.74,409.34,565.63,410.28,576.09z"/>
	<path class="st0" d="M422.93,493.26c12.97,0.29,20.71,9.32,18.54,21.4c-1.63,9.05-9.47,15.45-19.93,13.72
		c-5.91-0.98-10.49-3.64-14.2-8.32c-5.21-6.58-3.43-17.77,3.41-22.49C414.48,495,418.46,492.6,422.93,493.26z M422.74,498.84
		c-6.34-0.13-12.59,5.74-12.71,11.95c-0.11,5.85,7.26,12.43,13.96,12.46c6.08,0.03,12.61-5.41,12.34-10.95
		C435.97,504.96,431.71,499.23,422.74,498.84z"/>
	<path class="st0" d="M413.27,529.07c-7.12,1.62-14.21,3.23-21.29,4.85c-2.6,0.59-5.18,1.45-7.81,1.7
		c-1.09,0.11-2.98-0.78-3.35-1.68c-1.91-4.72-3.44-9.59-5.21-14.7c1.14,0,1.96-0.08,2.76,0.01c8.25,1.01,16.48,2.13,24.73,3.03
		C406.33,522.63,411.63,525.85,413.27,529.07z"/>
	<path class="st0" d="M422.23,671.45c0.78,12.9,1.53,25.16,2.27,37.43c-0.36,0.04-0.71,0.09-1.07,0.13
		c-5.36-10.69-10.71-21.39-16.27-32.47C412.13,674.86,416.8,673.29,422.23,671.45z"/>
	<path class="st0" d="M275.78,712.74c-3.03,5.57-6.35,8.01-9.57,7.34c-3.83-0.8-7.21-5.03-7.43-9.1c-0.2-3.58,1.95-5.16,5.42-6.79
		c0,2.55-0.39,4.59,0.12,6.36c0.43,1.5,1.91,2.71,2.92,4.05c1.14-1.06,2.66-1.94,3.31-3.24c0.71-1.42,0.62-3.23,1.02-5.77
		c1.61,2.39,2.77,4.11,4.16,6.18c1.82-5.02-3.12-6.51-4.72-9.78c4.87,0.27,8.11,4.26,8.15,9.35c0.05,6.48-3.88,11.9-8.45,12.46
		c-9.29,1.14-15.32-5.02-16.19-13.21c-0.44-4.13,2.05-9.61,10.56-9.57c-1.13,0.78-2.17,1.77-3.41,2.3c-4.82,2.07-6.21,4.87-4.68,9.8
		c1.75,5.61,6.61,9.14,12.04,8.74C273.37,721.54,276.56,717.52,275.78,712.74z"/>
	<path class="st0" d="M241.47,676.89c0.92,5.8,5.72,4.06,9.72,4.89c-0.37,2.99-0.92,5.84-1.04,8.71c-0.17,4.2-0.03,8.42-0.04,12.63
		c-0.01,6.28-0.82,6.97-7.84,6.36C239.96,698.73,241.86,687.8,241.47,676.89z"/>
	<path class="st0" d="M425.25,713.13c-0.56,1.21-1.02,2.48-1.69,3.63c-2.32,3.99-2.52,8.26-0.54,12.19c2.07,4.1,9.03,4.66,13.29,1
		c5.9-5.06,7.21-6.76,1.86-13.31c-0.64-0.78-0.82-1.94-1.39-3.37c6.72,2.02,9.42,8.93,6.09,14.1c-5.31,8.25-13.36,10.86-19.65,6.01
		c-2.8-2.16-5.03-5.02-4.44-8.8c0.52-3.31,1.55-6.56,2.7-9.72c0.37-1.02,1.84-1.63,2.81-2.43
		C424.61,712.65,424.93,712.89,425.25,713.13z"/>
	<path class="st0" d="M175.3,728.87c-3.56,6.11-9.25,8.11-15.01,6.15c-3.3-1.13-6.98-7.06-6.98-11.24c0-5.45,4.04-11.81,8.36-13.15
		c3.65-1.14,10.17,0.93,12.72,4.73c-3-0.64-5.26-1.31-7.56-1.55c-1.86-0.19-3.98-0.34-5.63,0.35c-4.12,1.74-4.87,5.93-4.84,9.6
		c0.03,3.25,0.91,7.32,5.12,8.03c2.62,0.44,5.5-0.16,8.18-0.7C171.61,730.69,173.43,729.63,175.3,728.87z"/>
	<path class="st0" d="M417.95,613.35c-0.6-4.01-1.24-8.31-1.87-12.62c-0.18-1.2-0.44-2.42-0.4-3.63c0.04-1.17,0.41-2.33,0.63-3.5
		c1.65,0.44,4.09,0.34,4.81,1.41c2.28,3.39,4.53,6.93,3.89,11.5c-0.24,1.73,0.64,3.59,0.82,5.4c0.22,2.18-0.58,3.35-3.03,2.59
		C421.42,614.08,419.97,613.82,417.95,613.35z"/>
	<path class="st0" d="M212.76,700.96c1.44,3.51,2.79,6.81,4.45,10.87c-8.84,0.58-16.97,1.12-25.1,1.66
		c-0.11-0.29-0.21-0.57-0.32-0.86C198.7,708.79,205.61,704.95,212.76,700.96z"/>
	<path class="st0" d="M266.33,735.23c3.39,0.67,6.82,1.22,10.15,2.11c0.71,0.19,1.08,1.62,1.61,2.49c-0.83,0.44-1.63,1.2-2.48,1.26
		c-5.57,0.38-11.16,0.51-16.73,0.92c-2.16,0.16-3.73-0.86-3.44-2.61c0.23-1.33,2.02-3.04,3.41-3.38c2.33-0.56,4.89-0.15,7.35-0.15
		C266.25,735.65,266.29,735.44,266.33,735.23z"/>
	<path class="st0" d="M268.28,689.88c3.23,2.39,1.98,5.37,1.87,7.8c-0.18,4.13-0.98,8.23-1.66,12.32c-0.12,0.74-0.91,1.38-1.4,2.06
		c-0.45-0.74-1.3-1.49-1.28-2.21c0.18-5.53,0.46-11.07,0.89-16.59C266.78,692.2,267.65,691.18,268.28,689.88z"/>
	<path class="st0" d="M268.05,687.6c-2.95,0-5.92,0.12-8.86-0.08c-0.8-0.05-1.55-1.03-2.32-1.58c0.73-0.6,1.47-1.74,2.19-1.73
		c6.13,0.12,12.25,0.43,18.37,0.78c0.56,0.03,1.08,0.75,1.61,1.14c-0.59,0.5-1.16,1.4-1.77,1.43c-3.07,0.15-6.15,0.07-9.23,0.07
		C268.05,687.62,268.05,687.61,268.05,687.6z"/>
	<path class="st0" d="M251.95,665.13c-3.26,2.77-6.52,5.53-9.95,8.45c-2.6-7.79,0.25-10.54,9.09-9.5
		C251.38,664.43,251.66,664.78,251.95,665.13z"/>
	<path class="st0" d="M139,594.32c2.68-1.24,5.35-2.48,8.23-3.81c1.25,2.59,1.37,4.29-1.23,4.77c-2.12,0.39-4.31,0.34-6.47,0.49
		C139.35,595.28,139.18,594.8,139,594.32z"/>
	<path class="st0" d="M124.32,586.34c1.25-1.36,2.37-3.65,3.77-3.83c1.36-0.18,3.01,1.79,4.53,2.82c-0.14,0.31-0.28,0.62-0.42,0.94
		c-2.41,0.45-4.83,0.9-7.24,1.35C124.75,587.19,124.53,586.77,124.32,586.34z"/>
	<path class="st0" d="M268.32,730.69c-0.88,1.24-1.7,2.38-2.52,3.53c-0.6-0.81-1.84-1.78-1.68-2.4c0.48-1.93,1.5-3.72,2.3-5.57
		C266.98,727.54,267.53,728.82,268.32,730.69z"/>
	<path class="st0" d="M277.57,658.6c1.8-1.53,3.59-3.05,5.39-4.58c0.28,0.06,0.55,0.12,0.83,0.18c-0.22,1.1-0.07,2.62-0.74,3.22
		c-1.3,1.16-3.05,1.79-4.62,2.64C278.13,659.58,277.85,659.09,277.57,658.6z"/>
	<path class="st0" d="M362.37,535.4c2.5-1.95,4.44-3.46,6.68-5.21c0.39,1.48,0.74,2.82,1.14,4.35
		C367.8,534.81,365.49,535.06,362.37,535.4z"/>
	<path class="st0" d="M262.65,689.93c3.28,2.17,3.19,6.75,0,8.41C262.65,695.58,262.65,693.03,262.65,689.93z"/>
	<path class="st0" d="M117.69,598.11c-2.33-0.66-4.67-1.31-7-1.97c0.07-0.39,0.14-0.79,0.21-1.18c2.39,0.39,4.77,0.78,7.16,1.17
		C117.94,596.79,117.82,597.45,117.69,598.11z"/>
	<path class="st0" d="M113.35,193.55c-10.94-1.4-19.73-4.71-26.68-12.23c-6.4-6.92-10.77-14.98-14.23-23.66
		c-3.17-7.95-4.91-16.21-4.26-24.68c0.76-10.04,2.92-20.02,11.49-26.52c4.36-3.31,9.74-5.62,15.01-7.27
		c4.71-1.47,9.92-2.06,14.87-1.88c10.52,0.38,20.7,2.44,29.84,8.27c5.94,3.79,10.61,8.72,14.05,14.74c1.48,2.59,2.46,5.62,3,8.57
		c1.92,10.5,2.25,21.21-1.65,31.19c-4.17,10.67-10.9,19.94-21.11,25.82c-4.21,2.43-9.09,3.73-13.7,5.45
		C117.54,192.28,115.02,193,113.35,193.55z"/>
	<path d="M305.96,277.4c12.25,0.71,21.53,8.2,21.73,21.45c0.19,13.13-12.9,23.16-23.42,23.1c-13.33-0.08-20.06-8.91-20.74-22.84
		C283,288.45,294.38,276.69,305.96,277.4z M291.11,299.3c-0.54,7.85,5.18,14.62,12.43,14.25c6.35-0.33,16.05-7.31,16-13.82
		c-0.07-7.82-7.24-13.91-16.35-13.6C297.15,286.33,290.47,291.28,291.11,299.3z"/>
	<path d="M342.27,410.31c-0.65,12.09-5.31,22.25-15.53,28.99c-5.88,3.87-12.45,6.73-18.88,9.69c-2.14,0.99-4.76,1.04-7.19,1.26
		c-6.3,0.57-12.65,0.86-18.79-0.88c-4.29-1.22-8.52-2.86-12.54-4.81c-6.26-3.03-10.27-8.28-13.3-14.46
		c-1.2-2.44,0.06-3.68,1.55-4.92c1.54-1.29,3.06-1.69,4.83,0.14c3.08,3.18,6.35,6.2,9.74,9.07c5.7,4.82,12.29,7.19,19.84,7.38
		c9.26,0.23,18.15-0.69,26.29-5.59c6.59-3.97,11.56-9.18,14.88-16.28c2.17-4.63,3.05-9.26,3.01-14.21c-0.02-2.05,0.7-3.79,2.8-3.36
		c1.26,0.25,2.65,1.88,3.17,3.21C342.69,406.92,342.27,408.7,342.27,410.31z"/>
	<path d="M278.07,322.45c0.13,19.5-15.49,28.73-29.92,23.95c-10.97-3.63-16.07-15.19-12.65-27.65c2.53-9.21,9.07-15,17.17-18.65
		c4.82-2.17,10.27-0.99,14.99,2.33C275.57,307.98,277.34,316.19,278.07,322.45z M254.77,339.74c10.31,1,19.08-9.33,15.5-19.61
		c-0.63-1.82-1.87-3.42-2.67-5.19c-3.77-8.29-14.41-9.61-20.04-3.17c-1.62,1.85-2.93,3.97-4.31,6.01c-2.96,4.41-2.99,9.4-0.68,13.67
		C245.06,336.06,248.56,340.46,254.77,339.74z"/>
	<path d="M241.32,401.35c-0.17,10.88-3.01,19.66-9.91,26.23c-9.32,8.88-23.38,8.44-34.51,0.71c-9.61-6.67-15.33-15.66-16.19-27.51
		c-0.6-8.23,0.58-16.07,6.2-22.44c4.31-4.89,9.74-7.86,16.61-7.91c9.18-0.07,17.71,1.58,25.26,7.23
		C237.17,383.93,241.18,392.27,241.32,401.35z M181.71,398.06c0.73,3.2,1.21,6.49,2.22,9.6c3.69,11.39,11,19.87,22.54,23.13
		c14.38,4.05,25.05-0.97,30.61-16.18c1.82-4.98,2.17-9.96,1.75-15.37c-0.69-9.07-5.25-15.35-12-20.51
		c-5.28-4.03-11.61-5.76-18.06-6.44c-6.32-0.67-12.83,0.35-17.79,4.35C184.44,381.92,182,389.52,181.71,398.06z"/>
	<path d="M404.7,289.81c-0.01,4.76-1.83,6.81-6.01,6.77c-4.4-0.05-7.16-2.58-7.14-6.56c0.02-5.09,2.75-8.2,7.16-8.16
		C402.61,281.89,404.71,284.67,404.7,289.81z"/>
	<path d="M376.63,287.83c3.75-0.9,6.44,2.95,6.82,7.01c0.34,3.57-3.37,8-6.35,7.96c-4.15-0.05-6.6-2.73-6.58-7.18
		C370.55,289.4,371.78,287.83,376.63,287.83z"/>
	<path d="M422.74,498.84c8.97,0.39,13.23,6.12,13.59,13.46c0.27,5.54-6.26,10.97-12.34,10.95c-6.7-0.03-14.07-6.61-13.96-12.46
		C410.15,504.58,416.4,498.71,422.74,498.84z M423.29,501.38c-7.25-0.44-11.01,3.89-11.14,10.19c-0.09,4.11,6.63,9.65,11.54,9.72
		c5.4,0.08,10.1-4.51,10.1-9.87C433.78,504.9,430.08,501.36,423.29,501.38z"/>
	<path class="st0" d="M291.11,299.3c-0.64-8.02,6.04-12.97,12.07-13.17c9.11-0.3,16.29,5.78,16.35,13.6
		c0.05,6.5-9.65,13.49-16,13.82C296.3,313.92,290.57,307.15,291.11,299.3z M316.67,297.84c-0.01-4.23-2.56-7.21-6.13-7.18
		c-4.02,0.04-7.81,3.1-7.78,6.27c0.03,2.91,5.07,7.46,8.34,7.53C313.74,304.53,316.68,301.04,316.67,297.84z"/>
	<path class="st0" d="M254.77,339.74c-6.21,0.72-9.71-3.68-12.21-8.29c-2.31-4.27-2.28-9.26,0.68-13.67
		c1.38-2.05,2.69-4.17,4.31-6.01c5.63-6.43,16.27-5.11,20.04,3.17c0.8,1.77,2.04,3.37,2.67,5.19
		C273.86,330.4,265.09,340.74,254.77,339.74z M261.71,328.37c4.06-0.02,6.78-2.3,6.78-5.67c0-4.07-3.79-7.58-7.99-7.38
		c-3.14,0.15-6.03,3.13-6.08,6.26C254.37,325.14,257.86,328.39,261.71,328.37z"/>
	<path class="st0" d="M181.71,398.06c0.29-8.54,2.73-16.15,9.29-21.43c4.96-4,11.46-5.02,17.79-4.35c6.45,0.68,12.77,2.4,18.06,6.44
		c6.75,5.15,11.31,11.44,12,20.51c0.41,5.41,0.07,10.39-1.75,15.37c-5.56,15.21-16.24,20.23-30.61,16.18
		c-11.54-3.25-18.85-11.74-22.54-23.13C182.92,404.55,182.43,401.27,181.71,398.06z"/>
	<path class="st0" d="M423.29,501.38c6.79-0.02,10.49,3.52,10.5,10.04c0.01,5.35-4.7,9.95-10.1,9.87
		c-4.91-0.08-11.63-5.61-11.54-9.72C412.29,505.26,416.05,500.94,423.29,501.38z"/>
	<path d="M316.67,297.84c0.01,3.2-2.93,6.69-5.57,6.63c-3.28-0.08-8.31-4.63-8.34-7.53c-0.03-3.17,3.77-6.23,7.78-6.27
		C314.12,290.62,316.67,293.61,316.67,297.84z"/>
	<path d="M261.71,328.37c-3.85,0.02-7.35-3.23-7.29-6.79c0.05-3.13,2.94-6.11,6.08-6.26c4.19-0.2,7.99,3.31,7.99,7.38
		C268.49,326.07,265.78,328.35,261.71,328.37z"/>
</g>
</svg>
