<?xml version="1.0" encoding="utf-8"?>
<!-- Generator: Adobe Illustrator 26.0.0, SVG Export Plug-In . SVG Version: 6.00 Build 0)  -->
<svg version="1.1" id="Capa_1" xmlns="http://www.w3.org/2000/svg" xmlns:xlink="http://www.w3.org/1999/xlink" x="0px" y="0px"
	 viewBox="0 0 595.28 845.86" style="enable-background:new 0 0 595.28 845.86;" xml:space="preserve">
<style type="text/css">
	.st0{fill:#FFFFFF;}
</style>
<g>
	<path d="M362.98,375.57c13.35,16.22,23.63,34.38,32.08,53.43c7.71-2.55,15.38-2.02,22.97-2.07c5.19-0.03,10.38,0.4,15.57,0.6
		c1.2,0.05,2.41,0.01,3.91,0.01c0.69-9.66,4.56-17.61,12.2-23.44c5.52-4.21,11.92-6.23,18.79-6.05c14.7,0.37,25.06,9.34,28.48,24.56
		c1.03-0.5,1.97-0.98,2.92-1.42c3.99-1.87,7.88-4.05,12.02-5.51c4.21-1.48,7.19,0.28,8.75,4.34c1.66,4.33,0.4,8.73-3.32,10.55
		c-3.64,1.78-7.47,3.17-11.16,4.85c-1.76,0.8-3.4,1.87-5.75,3.19c2.91,1.02,5.16,1.59,7.22,2.57c6.28,2.99,12.57,5.98,18.69,9.28
		c2.81,1.51,3.77,4.35,3.27,7.57c-0.48,3.11-2.3,5.19-5.24,6.07c-1.17,0.35-2.63,0.32-3.81-0.03c-1.97-0.6-3.83-1.58-5.73-2.43
		c-4.01-1.8-4.01-1.81-8.51-0.02c0.27,1.73,0.72,3.45,0.77,5.19c0.1,3.25-2.28,6.43-5.23,7.33c-2.76,0.85-4.95-0.15-7.16-3.19
		c-1.37-1.88-2.46-4.6-4.31-5.32c-1.71-0.67-4.26,0.81-6.43,1.38c-6.57,1.73-13.15,3.42-19.68,5.28c-0.8,0.23-1.96,1.42-1.91,2.08
		c0.77,9.97,1.71,19.94,2.63,29.9c0.01,0.15,0.22,0.28,0.42,0.53c0.25-0.28,0.6-0.49,0.7-0.79c2.39-7.14,7.77-11.09,14.46-13.73
		c9.55-3.76,19.63-4.57,29.69-5.47c14.12-1.26,28.09,0.49,42.03,2.48c9.93,1.42,19.61,3.85,28.71,8.24
		c6.05,2.92,10.84,7.17,13.74,13.32c0.38,0.81,0.55,1.82,0.5,2.71c-0.67,11.79-1.25,23.58-2.15,35.35
		c-1.46,19.03-4.17,37.9-7.89,56.61c-1.45,7.31-3.22,14.55-4.8,21.83c-0.39,1.81-1.34,2.77-3.24,2.94
		c-7.61,0.65-15.21,1.7-22.84,1.99c-14.64,0.56-29.3,0.49-43.77-2.17c-9.43-1.74-18.74-4.14-28.1-6.25c-0.8-0.18-1.6-0.39-2.46-0.6
		c-0.92,2.29,0.43,3.34,1.83,4.34c3.74,2.69,5.25,6.5,4.69,10.87c-0.26,2-1.35,4.21-2.75,5.64c-1.53,1.56-2.03,2.9-1.63,4.95
		c0.47,2.38-0.13,5.63,1.24,6.99c1.36,1.36,4.58,0.86,7,1.14c19.54,2.26,35.97,10.84,49.65,24.78
		c15.69,15.99,24.58,35.36,27.72,57.4c2.01,14.09,1.11,28.02-2.66,41.82c-4.6,16.85-13.4,31.14-25.87,43.17
		c-10.11,9.74-22.08,16.4-35.69,19.97c-25.97,6.82-50.28,3.07-72.96-11.38c-23.17-14.76-35.45-36.43-40.18-62.92
		c-3.17-17.75-2.24-35.4,4.02-52.23c10.38-27.92,30.18-46.73,58.29-56.64c3.98-1.4,8.15-2.25,12.46-3.41
		c-0.26-2.41-0.52-4.9-0.83-7.8c-4.71,1.24-9.15,2.35-13.57,3.57c-22.33,6.18-42.8,16.11-61.58,29.77
		c-15.19,11.04-30.61,21.81-46.39,32c-17.36,11.21-36.04,19.82-56.25,24.71c-7.06,1.71-14.18,3.16-21.27,4.75
		c-0.93,0.21-1.83,0.58-2.57,1.5c6.06-0.64,12.1-1.46,18.17-1.88c7.76-0.54,15.52-0.5,22.59,3.51c6.21,3.52,7.71,11.98,2.56,16.87
		c-2.28,2.17-5.58,3.91-8.67,4.44c-6.56,1.13-13.27,1.61-19.93,1.83c-5.05,0.17-10.12-0.46-15.58-0.75
		c0.31,0.98,0.41,1.59,0.68,2.11c2.09,3.94-0.38,9.27-4.85,9.7c-4.31,0.41-8.68,0.1-13.01,0.3c-3.19,0.14-6.41,0.4-9.55,0.96
		c-4.25,0.75-6.99-0.29-8.79-3.79c-2.04-4-1.39-7.62,1.88-10.41c0.2-0.17,0.34-0.41,0.87-1.07c-1.7-0.28-3.1-0.67-4.51-0.72
		c-3.77-0.13-6.54-1.52-7.71-5.38c-1.08-3.54-0.9-6.7,2.3-9.13c0.26-0.2,0.41-0.54,0.95-1.28c-2.39,0.26-4.29,0.45-6.18,0.66
		c-6.94,0.8-13.87,1.67-20.82,2.37c-1.89,0.19-2.65,0.54-2.75,2.78c-1.21,27.34-10.73,51.08-31.65,69.3
		c-15.05,13.11-32.76,20.55-52.87,21.16c-27.22,0.83-50.91-7.92-69.78-27.86c-13.55-14.32-21.2-31.69-24.24-51.16
		c-2.47-15.85-1.5-31.53,2.9-46.86c3.91-13.62,11.24-25.47,20.95-35.85c10.75-11.48,23.55-19.96,38.46-24.63
		c29.2-9.13,56.39-5.14,80.48,14.47c17.18,13.99,27.34,32.43,32.73,53.69c0.77,3.03,0.7,3.05,3.59,2.98
		c-0.34-22.9-0.67-45.79-1.01-69.04c-4.22,0-8.16-0.06-12.1,0.01c-7.42,0.14-11.32-2-13.74-7.65c-2.74-6.37-1.59-13.01,3.07-17.79
		c0.18-0.18,0.26-0.45,0.55-0.97c-0.85-0.15-1.53-0.36-2.22-0.37c-28.05-0.36-56.1-0.68-84.15-1.06c-3-0.04-6.02-0.21-8.99-0.62
		c-4.45-0.61-7.37-4.96-6.77-10.19c0.71-6.28,1.64-12.54,2.5-18.81c1.38-10.1,2.79-20.19,4.16-30.3c0.12-0.92,0.02-1.87,0.02-2.83
		c-0.28-0.13-0.55-0.39-0.76-0.35c-6.48,1.13-12.94,1.24-19.43-0.08c-1.01-0.2-2.31,0.57-3.36,1.12
		c-12.85,6.67-25.25,6.08-37.07-2.38c-5.13-3.67-8.54-8.79-10.99-14.51c-1.46-3.4-0.45-7.49,1.99-9.66
		c4.49-3.97,10.6-2.48,12.89,3.34c2.84,7.2,8.22,10.48,15.7,10.83c0.15,0.01,0.31-0.19,0.48-0.3c-1.36-2.85-2.92-5.62-4.03-8.55
		c-3.36-8.81,0.15-21.99,7.3-28.09c7.62-6.49,18.87-5.14,25.89,2.64c7.6,8.43,7.91,17.7,4.16,27.7c-0.52,1.39-1.16,2.74-2.17,5.13
		c4.28-0.88,7.81-1.52,11.26-2.43c0.55-0.15,0.97-1.5,1.13-2.35c1.93-10.58,3.39-21.26,5.79-31.73
		c4.13-18.02,8.45-36.01,13.38-53.82c6.08-21.99,14.73-43.04,25.65-63.09c3.29-6.04,7.09-11.81,10.7-17.67
		c0.69-1.12,1.18-1.82-0.08-3.09c-10.08-10.25-18.17-21.93-24.42-34.87c-12.92-26.72-17.93-55.07-17.76-84.57
		c0.13-22.73,4.13-44.72,12.19-65.92c6.41-16.85,14.97-32.57,25.85-46.99c0.34-0.45,0.65-0.91,1.1-1.55
		c-3.2-2.68-6.41-5.26-9.49-7.97c-11.86-10.44-21.45-22.58-27.31-37.39c-3.1-7.83-4.7-15.95-3.36-24.41
		c3.4-21.46,22.65-31.83,42.57-23.12c11.6,5.07,20.38,13.33,26.78,23.97c4.7,7.82,8.49,16.18,12.68,24.31
		c0.42,0.82,0.79,1.68,1.22,2.6c7.54-4.95,14.92-9.78,22.55-14.78c-2.05-3.18-4.19-6.45-6.27-9.77
		c-7.6-12.07-13.49-24.9-16.65-38.85c-2.38-10.53-2.8-21.02,2.71-30.87c4.57-8.17,11.58-12.76,20.99-13.38
		c15.77-1.04,26.49,7.32,34.83,19.41c9.34,13.54,11.92,28.96,11.28,45.09c-0.06,1.41-0.15,2.83-0.2,4.24
		c-0.01,0.17,0.11,0.35,0.3,0.95c1.79-0.64,3.6-1.23,5.37-1.92c17.95-7.03,36.33-12.79,55.17-16.82
		c18.25-3.91,36.63-7.23,54.99-10.59c6.57-1.2,13.27-1.75,19.9-2.66c1.39-0.19,2.79-0.51,4.11-1c9.46-3.49,19.17-4.03,29-2.33
		c19.8,3.42,35.72,13.64,48.1,29.1c11.28,14.09,17.3,30.36,17.61,48.62c0.18,10.66-2.7,20.2-7.56,29.75
		c-5.46,10.75-13.37,19.39-21.01,28.26c-12.67,14.69-26.67,28.11-43.1,38.63c-6.97,4.46-14.38,8.24-21.72,12.09
		c-3.79,1.99-3.87,1.73-1.94,5.52c8.22,16.18,14.32,33.07,16.83,51.13c2.4,17.27,1.46,34.31-4.03,50.92
		c-5.81,17.59-15.36,32.95-28.37,46.15C363.44,374.83,363.32,375.08,362.98,375.57z M143.26,148.18c0.78,0.93,1.15,1.34,1.48,1.78
		c1.71,2.33,1.61,4.99-0.19,6.99c-1.92,2.13-3.91,1.45-5.78,0.07c-1.58-1.17-2.42-0.33-3.2,0.87c-5.73,8.75-11.9,17.25-17.06,26.33
		c-9.88,17.4-14.78,36.5-17.24,56.21c-1.97,15.81-1.63,31.65,0.58,47.44c3.52,25.2,11.13,48.92,25.72,70.03
		c9.52,13.77,21.39,25.15,35.77,33.78c14.47,8.68,30.06,14.35,46.69,17.32c20.32,3.64,40.62,3.36,60.8-0.6
		c19.86-3.89,38.59-10.96,56.01-21.45c15.38-9.26,28.95-20.46,39.59-35.02c11.28-15.43,17.46-32.79,18.77-51.75
		c1.79-25.93-5.56-49.84-17.32-72.6c-0.35-0.67-1.76-1.24-2.58-1.13c-2.98,0.41-5.9,1.18-8.86,1.71c-2.34,0.42-3.85-0.85-4.57-2.91
		c-0.77-2.21-0.14-4.15,1.99-5.32c1.48-0.82,3.05-1.52,4.65-2.07c1.94-0.67,2.94-1.57,2.47-3.91c-0.45-2.24,0.72-4.07,2.75-5.13
		c2.1-1.1,4.19-0.7,5.69,0.99c1.5,1.68,2.7,1.33,4.39,0.38c21.81-12.14,40.66-28.03,58.18-45.61c0.38-0.38,0.54-0.99,0.71-1.31
		c-3.47,0-6.77,0.21-10.04-0.06c-3.27-0.27-6.59-0.74-9.74-1.64c-13.51-3.86-23.54-12.56-31.46-23.77
		c-9.97-14.1-15.75-30.02-19.01-46.87c-2.31-11.94-2.69-23.83,2.4-35.3c0.69-1.56,1.56-3.05,2.63-5.12
		c-3.96,0.61-7.28,1.23-10.62,1.62c-21.42,2.45-42.46,6.86-63.3,12.28c-17.46,4.54-34.49,10.34-51.18,17.19
		c-3.24,1.33-5.14,2.96-6.24,6.39c-1.79,5.57-5.37,6.33-9.99,2.84c-0.68-0.51-2.07-0.71-2.82-0.37c-3.78,1.71-7.4,3.76-11.19,5.45
		c-2.03,0.9-3.03,1.93-3.15,4.34c-0.2,3.91-3.84,5.37-7.12,3.35c-0.75-0.46-2.34-0.38-3.11,0.12c-7.35,4.78-14.55,9.8-21.94,14.52
		c-2.19,1.4-3.02,2.82-2.38,5.29c0.63,2.44,0.04,4.9-2.29,5.8c-2,0.78-4.57,0.93-6.64,0.4c-1.46-0.37-2.26-0.61-3.38,0.47
		C155.95,136.16,149.71,142.05,143.26,148.18z M142.74,394.16c-0.47,0.58-0.67,0.78-0.82,1.01c-10.81,15.84-19.1,32.98-25.97,50.82
		c-9.49,24.66-16.07,50.14-20.86,76.07c-3.08,16.69-5.6,33.49-8.1,50.28c-2.27,15.28-4.15,30.62-6.27,45.93
		c-0.27,1.92,0.31,2.53,2.19,2.52c5-0.01,10.01,0.06,15.01,0.2c26.52,0.74,53.04,1.59,79.56,2.25c19.82,0.5,39.64,0.85,59.47,1.14
		c15.96,0.23,31.92,0.28,47.88,0.38c40.8,0.24,81.59-0.26,122.35-2.36c4.95-0.26,9.89-0.58,15.07-0.89
		c-5.76-45.06-11.44-89.65-22.85-133.28c-2.6,0.5-4.7,1-6.84,1.3c-4.74,0.66-9.69-1.98-11.22-5.88c-1.38-3.52-2.76-4.13-6.85-2.74
		c1.52,1.71,2.86,3.39,4.38,4.89c2.89,2.85,5.96,5.52,8.81,8.41c2.95,3,2.75,7.15-0.32,10.74c-2.7,3.16-5.35,3.44-9.19,0.73
		c-9.29-6.57-14.74-16.02-19.2-26.13c-0.68-1.55-1.46-2.17-3.01-2.41c-5.87-0.92-11.81-1.59-17.56-3c-12.36-3.02-24.75-6-36.87-9.83
		c-8.69-2.75-16.99-6.76-25.39-10.39c-3.16-1.36-4.57-5.14-3.47-8.07c1.2-3.22,3.33-4.26,7.3-3.51c4.26,0.8,8.56,1.48,12.77,2.48
		c6.97,1.66,13.84,3.76,20.83,5.28c15.48,3.37,31.03,6.42,46.52,9.78c2.62,0.57,4.6,0.08,6.54-1.49c2.93-2.38,5.82-4.83,8.83-7.1
		c3.15-2.38,5.86-5.79,10.94-4.69c-9.08-22.09-18.16-43.57-33.45-61.88c-0.79,0.57-1.33,0.92-1.83,1.32
		c-10.34,8.29-21.37,15.45-33.37,21.19c-20.77,9.92-42.6,15.95-65.47,17.76c-24.74,1.97-48.97-0.64-72.33-9.74
		c-11.24-4.38-21.89-9.69-31.6-16.86C146.54,397.02,144.75,395.66,142.74,394.16z M242.37,666.57c1.24,0.08,1.86,0.19,2.47,0.14
		c10.44-0.82,20.86-1.88,31.31-2.41c6.6-0.34,13.26,0.03,19.31,3.33c3.78,2.06,5.91,5.18,5.97,9.57c0.06,4.37-1.78,7.63-5.68,9.68
		c-6.03,3.16-12.6,3.73-19.24,3.85c-3.71,0.07-7.43,0.01-11.24,0.01c0.94,10.06-6.76,8.77-12.77,9.49
		c-0.3,3.79-0.68,7.26-0.78,10.74c-0.02,0.75,0.77,1.73,1.45,2.26c2,1.56,4.68,2.55,6.09,4.49c2.12,2.94,4.22,2.89,7.38,2.21
		c21.24-4.61,41.76-11.14,60.67-22.08c19.16-11.09,36.69-24.56,54.5-37.6c14.52-10.63,29.95-19.43,47.05-25.02
		c9.85-3.22,19.94-5.69,29.95-8.37c2.39-0.64,3.64-1.3,3.2-4.29c-1.22-8.4-2.15-16.84-2.88-25.29c-0.22-2.58-1.08-3.82-3.57-4.05
		c-0.65-0.06-1.31-0.21-1.95-0.37c-2.33-0.59-3.25-2.1-2.85-4.44c0.39-2.32,1.75-3.45,4.14-3.26c0.79,0.06,1.59,0.09,2.68,0.15
		c-1.49-11.2-2.93-22.07-4.36-32.89c-4.98,0.06-6.54-0.75-6.88-3.64c-0.49-4.12,3.15-3.33,5.45-4.2
		c-2.43-22.4-4.86-44.68-7.29-67.09c-9.61,2.36-19.31,4.7-28.96,7.2c-0.53,0.14-1.13,1.73-0.98,2.5c0.68,3.52,1.74,6.96,2.42,10.47
		c3.67,18.89,7.74,37.72,10.75,56.71c3.42,21.52,5.87,43.2,8.74,64.81c1.45,10.92-0.37,13.47-11.35,13.89
		c-28.68,1.1-57.37,2.19-86.06,2.76c-21.81,0.43-43.64,0.06-65.46,0.06c-4.56,0-5.28,1.22-3.31,5.4c0.36,0.77,0.73,1.54,0.98,2.34
		c2.13,7.04-1.12,11.96-8.41,12.81c-3.19,0.37-6.37,0.79-9.55,1.24c-0.73,0.1-1.6,0.24-2.11,0.7
		C248.36,660.92,245.59,663.56,242.37,666.57z M474.07,532.5c0.27,2.05,0.42,3.26,0.58,4.46c1.92,14.4,3.91,28.79,5.72,43.21
		c1.31,10.39,2.4,20.81,3.52,31.22c0.21,1.91,0.88,3.06,2.94,3.5c9.03,1.91,17.95,4.49,27.06,5.82c18.86,2.75,37.83,2.22,56.78,0.65
		c2.2-0.18,3.36-0.94,3.8-3.25c1.54-8.15,3.34-16.25,4.9-24.39c3.73-19.48,5.88-39.17,7.44-58.92c0.19-2.36,0.03-4.75,0.03-7.37
		c-2.29,1.58-4.29,3.11-6.44,4.41c-8.1,4.92-17.04,7.5-26.26,9.3c-19.84,3.88-39.68,4.76-59.56,0.23
		C487.46,539.73,480.75,537.12,474.07,532.5z M394.18,48.69c-1.23,0-2.47,0.13-3.68-0.02c-7.37-0.96-11.82,2.99-15.23,8.85
		c-3.93,6.75-4.47,14.11-3.92,21.64c0.8,10.95,4.17,21.24,8.39,31.28c6.04,14.4,14.48,26.95,28.35,34.97
		c10.08,5.83,20.88,7.83,31.68,2.68c13.73-6.55,21.74-17.59,22.45-33.12c0.64-13.8-3.83-26.2-11.44-37.51
		c-6.87-10.21-15.56-18.53-27.06-23.33C414.32,50.2,404.45,48.24,394.18,48.69z M466.9,643.66c0.19,1.16,0.34,1.78,0.39,2.39
		c0.49,6.4,1.02,12.8,1.44,19.2c1.08,16.48,2.26,32.95,3.12,49.44c0.62,11.87,0.76,23.77,1.18,35.66c0.13,3.61,2.81,6.05,6.21,5.9
		c3.34-0.15,5.56-2.51,5.48-6.23c-0.31-13.77-0.4-27.56-1.17-41.31c-1.15-20.54-2.76-41.06-4.26-61.58
		c-0.21-2.88-1.2-5.56,2.57-7.29c1.23-0.56,2-3.43,1.93-5.2c-0.13-3.11-1.75-5.69-4.64-7.33c-0.8-0.46-1.84-1.26-1.97-2.03
		c-0.93-5.76-1.68-11.55-2.43-17.34c-0.49-3.81-0.9-7.63-1.37-11.71c-3.82,0-7.45,0-11.51,0c1.19,10.68,2.38,21.32,3.56,31.94
		c-6.35,1.63-12.36,3.16-18.36,4.71c-20.36,5.25-39.59,13.09-56.85,25.26c-14.42,10.17-28.74,20.5-43.06,30.81
		c-21.67,15.59-45.57,26.17-71.56,32.11c-3.9,0.89-7.79,1.85-11.02,2.61c0,5.64,0,10.79,0,16.05c1.22-0.23,2.51-0.44,3.78-0.72
		c1.29-0.28,2.56-0.67,3.85-0.92c17.32-3.39,33.92-8.88,49.77-16.69c22.91-11.29,43.09-26.79,63.75-41.5
		c16.17-11.51,33.05-21.51,52.03-27.6C447.25,649.24,456.89,646.61,466.9,643.66z M521.02,492.51c0,0.24-0.01,0.47-0.01,0.71
		c-6.32,0-12.66-0.31-18.95,0.08c-7.55,0.47-15.02,1.79-21.78,5.53c-8.49,4.69-10.58,15.05-4.65,22.74
		c4.17,5.41,10.06,8.17,16.3,10.19c14.52,4.7,29.42,6.37,44.66,5.23c11.68-0.87,22.97-3.18,33.64-8.13
		c5.55-2.58,10.59-5.87,14.21-10.91c4.09-5.69,3.11-10.58-2.85-14.03c-2.68-1.55-5.51-2.97-8.44-3.93
		C556.23,494.42,538.73,492.67,521.02,492.51z M66.03,679.54c10.91,15.28,16.62,32.56,24.01,49.03c2.43-0.6,4.57-1.37,6.77-1.63
		c7.42-0.85,13.37,2.24,18.56,7.25c2.41,2.33,5.88,2.5,8.64,0.77c8.95-5.59,17.93-11.13,26.94-16.63c4.49-2.73,9.07-5.32,13.87-8.13
		c-11.23-18.26-26.13-31.55-46.58-37.7C100.06,667.03,82.89,670.63,66.03,679.54z M532.5,806.4c15.52-16.87,23.04-38.54,22.08-58.49
		c-0.55-11.39-3.04-22.41-8.8-32.55c-2.78,1.66-5.15,3.03-7.46,4.47c-12.07,7.52-24.11,15.08-36.21,22.56
		c-1.55,0.96-1.84,2.03-1.58,3.75c0.72,4.58-0.5,8.79-3.02,12.63c-0.92,1.4-1.92,2.74-2.9,4.14
		C507.28,777.44,519.84,791.86,532.5,806.4z M72.66,823.94c27.71,13.57,58.25,5.79,76.9-12.58c-2.47-3.07-4.84-6.25-7.44-9.22
		c-9.62-11.02-19.34-21.96-28.95-33c-1.2-1.38-1.96-1.73-3.7-0.7c-4.24,2.52-8.97,3.68-13.85,2.7c-2.44-0.49-3.38,0.12-4.11,2.34
		c-2.91,8.77-5.78,17.56-9.02,26.21C79.47,807.79,76.02,815.72,72.66,823.94z M450.22,823.38c14.01,6.46,28.42,8.71,43.41,5.66
		c13.1-2.67,24.46-8.85,34.36-17.92c-0.44-0.57-0.65-0.88-0.89-1.16c-11.65-13.51-23.36-26.97-34.91-40.57
		c-1.77-2.08-2.94-2.28-5.25-0.87c-4.17,2.54-8.87,3.24-13.66,2.22c-1.97-0.42-2.82,0.35-3.39,1.98c-1.55,4.45-3.05,8.93-4.67,13.35
		c-3.67,10-7.34,20-11.15,29.94C453.1,818.53,451.57,820.83,450.22,823.38z M193.93,733.68c-7.45,0.61-14.75,1.27-22.06,1.78
		c-23.73,1.64-47.46,3.24-71.19,4.8c-4.83,0.32-7.79,3.62-7.55,8.7c0.22,4.7,3.14,7.15,8.1,6.88c12.34-0.67,24.68-1.22,37.01-1.98
		c12.71-0.78,25.44-1.54,38.12-2.7c14.37-1.32,28.7-3.05,43.04-4.65c3.33-0.37,6.64-0.96,9.56-1.39c-1.9-4.99-3.71-9.76-5.62-14.79
		c-5.38,0.58-11.24,1.21-17.39,1.87c-0.38-23.9-0.75-47.44-1.12-70.82c-4.28,0-8.01,0-11.97,0
		C193.21,685.57,193.56,709.4,193.93,733.68z M66.43,821.12c2.45-4.81,5.27-9.32,7.11-14.2c4.69-12.44,8.97-25.04,13.31-37.61
		c0.27-0.79-0.02-1.98-0.45-2.76c-1.63-2.94-3.37-5.82-5.2-8.64c-0.47-0.72-1.37-1.55-2.15-1.62c-17.15-1.62-33.9-5.33-50.57-9.47
		c-2.8-0.7-3.09-0.53-3.14,2.34c-0.21,11.66,1.78,22.92,6.13,33.75C38.28,799.8,50.04,812.16,66.43,821.12z M444.97,820.65
		c2.83-5.94,5.98-11.55,8.23-17.5c4.26-11.29,8.02-22.76,11.89-34.2c0.26-0.77-0.13-1.93-0.56-2.73c-1.54-2.87-3.19-5.69-4.87-8.48
		c-0.37-0.62-0.98-1.36-1.61-1.51c-2.01-0.46-4.1-0.6-6.13-0.98c-13.06-2.42-26.11-4.87-39.16-7.32c-2.93-0.55-5.85-1.14-8.8-1.72
		C401.6,776.72,417.03,806.6,444.97,820.65z M134.35,141.51c0.48-0.39,0.79-0.6,1.05-0.86c7.53-7.4,15.01-14.85,22.62-22.17
		c1.2-1.16,1.63-2.02,1.05-3.59c-3.81-10.38-7.71-20.71-14.47-29.64c-5.57-7.35-12.2-13.32-21.04-16.58
		c-13.06-4.82-24.38,2.99-24.42,16.89c-0.02,5.85,1.24,11.44,3.52,16.78C109.48,118.3,120.93,130.54,134.35,141.51z M202.64,88.05
		c1.15-0.58,1.98-0.99,2.79-1.42c4.43-2.31,8.68-5.15,13.35-6.8c5.5-1.94,7.76-5.04,8.3-10.94c1.09-11.79,0.47-23.24-4.12-34.2
		c-4.01-9.58-10.46-17.25-20.57-20.58c-10.07-3.31-18.96,0.36-20.59,11.77c-0.53,3.69-0.77,7.56-0.31,11.25
		C183.84,55.88,193.13,71.79,202.64,88.05z M80.18,750.27c0.24-6.31,1.33-11.69,4.65-16.42c0.32-0.46,0.19-1.47-0.08-2.08
		c-5-11.59-9.87-23.24-15.16-34.7c-2.3-4.98-5.48-9.55-8.15-14.13c-0.92,0.24-1.13,0.25-1.28,0.35
		c-19.37,13.34-31.06,31.45-34.02,54.93c-0.08,0.61,0.91,1.83,1.59,1.99c10.28,2.36,20.55,4.76,30.9,6.78
		C65.64,748.36,72.75,749.16,80.18,750.27z M439.25,681.93c-4.73,4.1-9.14,7.49-13.05,11.37c-12.25,12.18-19.61,26.84-21.76,44.06
		c-0.23,1.85,0.42,2.53,2.11,2.86c15.27,2.94,30.52,5.95,45.79,8.86c1.98,0.38,4.05,0.34,5.89,0.48c0.49-3.01,0.66-5.68,1.42-8.18
		c0.76-2.49,2.22-4.75,3.15-7.2c0.36-0.95,0.48-2.28,0.1-3.18c-4.87-11.35-9.67-22.73-14.87-33.92
		C445.66,692.03,442.43,687.37,439.25,681.93z M542.77,709.65c-11.25-21.57-38.75-39.67-58.36-39.37c-0.03,0.43-0.11,0.88-0.09,1.33
		c0.98,18.66,1.97,37.31,2.99,55.97c0.03,0.61,0.22,1.41,0.64,1.76c3.27,2.78,6.62,5.47,9.53,7.85
		C512.5,728.06,527.55,718.91,542.77,709.65z M447.33,473.34c0.15,0.88,0.25,1.33,0.29,1.78c2.19,20.73,4.32,41.47,6.63,62.2
		c0.21,1.91-1.02,4.83,1.82,5.61c2.01,0.55,4.31,0.07,6.48,0.06c0.09,0,0.22,0.03,0.28-0.02c0.36-0.27,0.93-0.51,1-0.85
		c0.55-2.52,1.59-5.11,1.37-7.58c-1.14-12.85-2.7-25.67-3.94-38.51c-0.72-7.51-0.93-15.06-1.75-22.56c-0.24-2.18-0.18-3.3,2.06-3.89
		c6.2-1.63,12.35-3.41,18.55-5.02c9.77-2.53,19.57-4.91,29.33-7.47c3.64-0.95,5.18-3.55,4.38-6.71c-1.04-4.14-3.51-6.06-7.29-5.28
		c-4.43,0.92-8.82,2.03-13.18,3.24c-1.75,0.49-3.69,1.09-4.99,2.25c-7.13,6.39-15.31,8.51-24.68,6.95
		c-2.23-0.37-4.69-0.26-6.88,0.29c-14.72,3.72-29.38,7.66-44.1,11.39c-1.92,0.49-2.81,1.02-3.03,3.17c-0.47,4.48-3,7.21-7.15,8.06
		c-2.86,0.59-5.77,1.06-8.68,1.24c-3.39,0.21-6.8,0.05-10.17,0.05c1.18,3.43,4.85,5.63,8.62,4.8c9.75-2.14,19.5-4.33,29.21-6.66
		C430.05,477.84,438.51,475.59,447.33,473.34z M154.35,806.96c13.2-15.3,20.96-32.36,21.71-52.71c-1.34,0.09-2.35,0.16-3.36,0.23
		c-15.99,1.13-31.98,2.37-47.98,3.31c-3.31,0.19-5.73,0.93-7.42,3.92c-0.73,1.29-0.84,1.98,0.19,3.15
		c10.59,12.04,21.11,24.14,31.65,36.22C150.79,802.97,152.47,804.84,154.35,806.96z M244,638.58c-0.2-0.29-0.4-0.58-0.61-0.88
		c-0.64-0.04-1.28-0.1-1.92-0.1c-13.79-0.13-27.57-0.2-41.36-0.4c-8.4-0.12-16.8-0.6-25.19-0.55c-2.14,0.01-4.7,0.95-6.33,2.33
		c-3.57,3.03-4.11,9.15-1.83,13.93c1.92,4.02,5.71,5.92,10.84,5.45c0.75-0.07,1.51-0.14,2.26-0.16c14.24-0.37,28.49-0.7,42.73-1.18
		c1.34-0.05,2.93-0.75,3.92-1.67c4.01-3.73,7.8-7.68,11.72-11.51C240.1,642.03,242.08,640.33,244,638.58z M494.72,428.01
		c-0.48-16.51-11.72-27.4-27.92-26.79c-16.8,0.63-26.49,13.52-26.4,26.68c0.12,15.59,14.07,27.68,30.6,27.18
		C484.4,454.67,495.14,442.42,494.72,428.01z M400.33,441.13c-0.03,0.17-0.19,0.48-0.11,0.7c2.64,7.66,5.33,15.3,7.93,22.97
		c0.57,1.68,1.44,1.79,3.01,1.38c12.77-3.32,25.57-6.55,38.36-9.8c1.64-0.42,3.29-0.82,5.47-1.36c-2.92-2.24-5.23-4.16-7.69-5.83
		c-1.63-1.11-3.43-2.44-5.28-2.7C428.21,444.58,414.38,442.91,400.33,441.13z M207.72,661.12c0.33,22.54,0.66,44.88,1,67.5
		c3.33-0.33,6.13-0.75,8.93-0.85c2.34-0.08,2.87-1.07,2.92-3.32c0.2-10.18,0.64-20.35,0.96-30.53c0.08-2.41,0.01-4.82,0.01-7.15
		c-2.7-0.47-5.03-0.78-7.32-1.31c-3.14-0.74-5.67-4.24-5.66-7.59c0.01-3.78,1.82-6.14,5.38-7.22c0.72-0.22,1.43-0.78,1.94-1.37
		c1.78-2.04,3.47-4.17,5.21-6.25c0.67-0.79,1.39-1.54,2.58-2.87C217.92,660.51,213.05,660.8,207.72,661.12z M468.25,728.36
		c0.45-0.05,0.91-0.1,1.36-0.15c-1-18.94-1.99-37.87-3.04-57.82c-7.84,2.92-14.9,5.54-21.76,8.1c4.51,8.71,8.9,16.6,12.73,24.75
		C461.4,711.48,464.7,719.98,468.25,728.36z M488.52,732.85c-1.99,3.48-0.69,5.49,1.36,7.47c4.45,4.31,4.88,9.7,1.47,14.85
		c-2.94,4.43-7.05,6.97-12.24,7.9c-5.76,1.04-10.66-1.67-12.46-7.21c-1.97-6.05-1.17-11.88,1.8-17.52c0.87-1.66,1.04-3.7,1.52-5.57
		c-0.44-0.22-0.88-0.44-1.32-0.67c-1.57,1.99-3.5,3.79-4.64,6c-2.55,4.91-3.11,10.28-2.22,15.72c1.64,10.05,8.36,14.56,15.64,14.05
		c8.64-0.6,14.83-5.56,18.86-13.16c2.48-4.67,2.31-9.39-0.66-13.68C493.59,738.07,490.92,735.56,488.52,732.85z M472.06,584.79
		c-0.88-7.08-1.4-14.05-2.75-20.85c-0.59-2.98-2.93-5.6-4.41-8.42c-0.82-1.57-7.09-2.7-8.22-1.36c-0.29,0.34-0.28,1.04-0.21,1.56
		c1.18,8.96,2.35,17.92,3.68,26.85c0.12,0.82,1.25,2.07,1.98,2.13C465.3,584.92,468.49,584.79,472.06,584.79z M136.03,734.29
		c0.12,0.28,0.24,0.55,0.36,0.83c12.37-0.95,24.73-1.91,37.72-2.91c-2.14-5.7-4.15-11.08-6.24-16.64
		C156.87,722.05,146.45,728.17,136.03,734.29z M112.4,736.79c-0.25-0.94-0.24-1.26-0.4-1.44c-4.46-5.12-14.22-6.81-20.09-3.49
		c-6.42,3.63-8.35,9.81-8.69,16.49c-0.32,6.36,0.82,12.55,6.31,16.78c6.2,4.78,14.82,4.09,21.35-1.52c1.8-1.55,3.43-3.28,5.15-4.93
		c-0.22-0.35-0.44-0.7-0.66-1.05c-2.44,0.95-4.9,1.85-7.31,2.88c-1.55,0.66-2.97,1.67-4.55,2.25c-6.32,2.33-12.77-0.17-14.89-5.88
		c-1.96-5.26-1.73-10.59,0.45-15.73c2.44-5.73,6.48-7.68,12.51-6.3c1.1,0.25,2.15,0.75,3.26,0.93
		C107.25,736.18,109.67,736.44,112.4,736.79z M240.54,721.2c-3.17,0.17-5.92,2.43-6.99,5.51c-2.48,7.17,3.88,16.65,11.88,17.74
		c3.45,0.47,6.24-0.83,8.09-3.56c3.12-4.63,3.68-9.64,0.92-14.68c-0.66-1.21-1.81-2.16-2.74-3.23c-0.28,0.12-0.55,0.24-0.82,0.36
		c-0.15,2.57-0.18,5.16-0.49,7.71c-0.45,3.69-2.28,5.07-5.93,4.8c-2.92-0.22-4.35-1.95-4.3-5.49
		C240.19,727.37,240.4,724.39,240.54,721.2z M250.9,716.77c0.47,0.95,0.69,2.23,1.45,2.78c5.95,4.38,7.88,10.29,6.3,17.24
		c-1.57,6.88-6.42,12.51-14.93,10.68c-4.98-1.07-8.63-4.31-11.14-8.58c-4.82-8.19-2.81-18.96,7.3-21.47c0.59-0.15,0.92-1.31,1.37-2
		c-0.7-0.26-1.43-0.81-2.09-0.74c-4.97,0.57-10.01,5.29-11.44,10.56c-2.06,7.65,2.13,17.7,9.33,22.35
		c9.65,6.25,18.74,3.53,23.28-7.03c0.78-1.81,1.34-3.74,1.72-5.67C263.59,727.03,258.63,718.23,250.9,716.77z M248.05,776.56
		c0.02,0.16,0.04,0.33,0.05,0.49c2.74,0,5.47,0.02,8.21-0.01c2.31-0.02,3.68-0.99,3.88-3.5c0.21-2.67-1.23-4.14-3.52-4.18
		c-8.18-0.17-16.38-0.17-24.56,0.02c-3.07,0.07-4.31,1.9-3.92,4.61c0.43,2.94,2.77,4.68,5.6,4.3
		C238.54,777.67,243.29,777.13,248.05,776.56z M247.63,697.2c3.66-0.22,7.15-0.34,10.62-0.7c1.14-0.12,2.4-0.62,3.28-1.35
		c0.58-0.48,0.84-1.72,0.71-2.54c-0.07-0.44-1.24-0.95-1.95-1.01c-8.55-0.76-17.1-1.41-25.65-2.15c-2.18-0.19-4.06-0.08-4.28,2.71
		c-0.18,2.17,1.33,4.07,3.63,4.24C238.59,696.75,243.2,696.95,247.63,697.2z M245.13,700.22c-0.59,8.57-1.17,16.92-1.73,25.27
		c-0.11,1.69-0.41,3.41-0.19,5.06c0.11,0.86,1.17,2.25,1.79,2.24c0.86-0.01,1.86-0.98,2.49-1.79c0.39-0.5,0.19-1.45,0.24-2.2
		c0.28-4.51,0.56-9.02,0.83-13.53c0.3-4.95,0.58-9.9,0.89-15.06C247.85,700.22,246.68,700.22,245.13,700.22z M47.76,552.16
		c1.32-1.94,2.79-3.69,3.8-5.66c1.81-3.51,0.41-8.16-2.67-10.03c-1.56-0.95-2.8-0.82-3.97,0.56
		C41.37,541.22,39.25,548.03,47.76,552.16z M241.66,753.76c-0.19,4.07-0.36,7.76-0.54,11.58c1.9,0.04,4.09,1.31,4.4-1.28
		c0.39-3.22,0.09-6.52,0.09-10.05C244.53,753.94,243.35,753.87,241.66,753.76z M267.86,644.44c-2.79,3.26-5.46,6.38-7.79,9.11
		C267.24,653.6,270.75,650.17,267.86,644.44z M390.11,457.38c-2.85,2.58-5.46,4.94-8.69,7.86c4.16-0.37,7.39-0.66,10.98-0.98
		C391.55,461.7,390.88,459.69,390.11,457.38z M238.6,712.19c1.32-1.12,2.69-1.7,2.81-2.47c0.45-3.1,0.51-6.26,0.72-9.53
		c-1.84-0.1-3.45-0.69-3.51,1.58C238.54,704.93,238.6,708.09,238.6,712.19z M487.2,755.2c4.15-3.23,4.58-8.91,0.71-11.87
		C487.67,747.32,487.44,751.26,487.2,755.2z M469.44,745.67c-1.84,4-0.95,9.54,1.89,12.27c1.62,1.55,3.48,2.56,5.44,2.12
		c-2.05-1.97-4.63-3.54-5.78-5.82C469.78,751.83,469.94,748.74,469.44,745.67z M91.64,754.89c0.2,2.83,1.85,4.46,4.16,5.06
		c1.71,0.44,3.62,0.09,5.44,0.09c0.03-0.33,0.06-0.65,0.09-0.98C97.39,759.34,94.14,758.04,91.64,754.89z"/>
	<path class="st0" d="M143.26,148.18c6.45-6.13,12.69-12.02,18.87-17.97c1.12-1.08,1.92-0.85,3.38-0.47
		c2.07,0.53,4.64,0.37,6.64-0.4c2.33-0.9,2.92-3.36,2.29-5.8c-0.64-2.48,0.19-3.9,2.38-5.29c7.39-4.71,14.59-9.74,21.94-14.52
		c0.77-0.5,2.35-0.58,3.11-0.12c3.28,2.02,6.93,0.55,7.12-3.35c0.12-2.42,1.12-3.44,3.15-4.34c3.79-1.69,7.41-3.74,11.19-5.45
		c0.75-0.34,2.15-0.14,2.82,0.37c4.62,3.49,8.2,2.73,9.99-2.84c1.1-3.43,3-5.06,6.24-6.39c16.69-6.86,33.73-12.65,51.18-17.19
		c20.84-5.42,41.88-9.82,63.3-12.28c3.34-0.38,6.66-1.01,10.62-1.62c-1.07,2.07-1.94,3.56-2.63,5.12
		c-5.09,11.47-4.71,23.35-2.4,35.3c3.26,16.85,9.04,32.77,19.01,46.87c7.92,11.21,17.95,19.91,31.46,23.77
		c3.15,0.9,6.46,1.36,9.74,1.64c3.26,0.27,6.57,0.06,10.04,0.06c-0.17,0.32-0.33,0.93-0.71,1.31
		c-17.52,17.59-36.38,33.48-58.18,45.61c-1.69,0.94-2.89,1.3-4.39-0.38c-1.5-1.69-3.6-2.09-5.69-0.99c-2.03,1.06-3.2,2.89-2.75,5.13
		c0.47,2.34-0.52,3.24-2.47,3.91c-1.6,0.55-3.16,1.26-4.65,2.07c-2.12,1.17-2.76,3.11-1.99,5.32c0.72,2.06,2.23,3.32,4.57,2.91
		c2.96-0.53,5.89-1.3,8.86-1.71c0.82-0.11,2.23,0.46,2.58,1.13c11.75,22.76,19.1,46.67,17.32,72.6
		c-1.31,18.96-7.48,36.32-18.77,51.75c-10.65,14.56-24.21,25.77-39.59,35.02c-17.43,10.48-36.15,17.55-56.01,21.45
		c-20.17,3.96-40.47,4.24-60.8,0.6c-16.62-2.98-32.22-8.65-46.69-17.32c-14.39-8.63-26.25-20.01-35.77-33.78
		c-14.59-21.11-22.2-44.83-25.72-70.03c-2.2-15.79-2.55-31.64-0.58-47.44c2.46-19.71,7.36-38.81,17.24-56.21
		c5.15-9.08,11.33-17.58,17.06-26.33c0.79-1.2,1.62-2.04,3.2-0.87c1.87,1.38,3.86,2.06,5.78-0.07c1.8-2,1.91-4.67,0.19-6.99
		C144.41,149.52,144.04,149.12,143.26,148.18z M299.61,74.07c-8.39,0.14-16.33,3.71-22.42,10.79
		c-10.21,11.89-11.31,25.51-5.73,39.55c5.15,12.94,15.4,18.34,26.63,17.76c15.13-0.78,27.73-11.21,32.16-25.76
		C336.42,96.16,321.47,74.81,299.61,74.07z M284.71,337.46c2.72-0.38,7.91-0.83,12.96-1.88c19.11-3.97,34.72-13.5,45.67-29.9
		c7.64-11.44,10.26-24.21,8.87-37.82c-0.38-3.69-2.86-5.32-6.11-4.16c-2.52,0.89-2.75,2.98-2.78,5.3
		c-0.14,12.98-4.06,24.62-12.26,34.81c-7.66,9.52-17.66,15.15-29.29,18.19c-9.94,2.6-19.95,3.11-29.97,0.49
		c-13.62-3.57-24.15-11.67-32.64-22.66c-2.53-3.28-5.73-3.55-8.61-0.56c-2.16,2.24-2.76,4.74-1.08,7.49
		c2.63,4.33,5.18,8.84,8.54,12.57C249.8,332.36,265.11,337.25,284.71,337.46z M260.76,146.8c-0.14-12.66-4.03-23.56-12.74-32.37
		c-6.55-6.63-14.54-8.99-23.6-5.91c-7.43,2.53-12.84,7.77-17.35,13.98c-7.98,10.99-11.86,22.97-7.75,36.48
		c7.39,24.32,34.97,29.22,51.35,13.38C257.99,165.26,260.52,156.32,260.76,146.8z M157.68,215.23c-17.96-0.16-30.97,10-34.7,27.55
		c-3.41,16.05-1.58,31.65,7.48,45.43c9.68,14.73,23.09,24.36,41.65,24.14c9.5-0.11,17.17-4.49,23.29-11.66
		c7.88-9.25,11.84-20.18,12.76-32.09c1.17-15.05-3.1-28.47-14.24-39.05C183.84,219.98,171.51,215.58,157.68,215.23z"/>
	<path class="st0" d="M142.74,394.16c2.01,1.51,3.8,2.86,5.6,4.19c9.71,7.17,20.36,12.48,31.6,16.86
		c23.36,9.11,47.59,11.71,72.33,9.74c22.87-1.82,44.7-7.84,65.47-17.76c12.01-5.74,23.03-12.89,33.37-21.19
		c0.5-0.4,1.04-0.75,1.83-1.32c15.29,18.31,24.37,39.79,33.45,61.88c-5.07-1.1-7.78,2.31-10.94,4.69c-3.01,2.28-5.89,4.72-8.83,7.1
		c-1.94,1.57-3.93,2.06-6.54,1.49c-15.48-3.36-31.03-6.41-46.52-9.78c-7-1.52-13.87-3.62-20.83-5.28c-4.22-1-8.51-1.68-12.77-2.48
		c-3.97-0.75-6.1,0.29-7.3,3.51c-1.09,2.93,0.32,6.7,3.47,8.07c8.4,3.63,16.7,7.64,25.39,10.39c12.12,3.83,24.51,6.81,36.87,9.83
		c5.76,1.41,11.69,2.07,17.56,3c1.55,0.24,2.32,0.86,3.01,2.41c4.46,10.11,9.91,19.57,19.2,26.13c3.84,2.71,6.49,2.44,9.19-0.73
		c3.06-3.59,3.27-7.74,0.32-10.74c-2.85-2.89-5.92-5.56-8.81-8.41c-1.52-1.5-2.86-3.18-4.38-4.89c4.09-1.39,5.47-0.78,6.85,2.74
		c1.52,3.89,6.48,6.54,11.22,5.88c2.14-0.3,4.25-0.8,6.84-1.3c11.42,43.63,17.09,88.22,22.85,133.28
		c-5.17,0.31-10.12,0.63-15.07,0.89c-40.76,2.1-81.54,2.6-122.35,2.36c-15.96-0.09-31.92-0.15-47.88-0.38
		c-19.82-0.29-39.65-0.64-59.47-1.14c-26.52-0.67-53.04-1.51-79.56-2.25c-5-0.14-10.01-0.21-15.01-0.2c-1.88,0-2.46-0.6-2.19-2.52
		c2.12-15.3,4-30.64,6.27-45.93c2.5-16.79,5.02-33.59,8.1-50.28c4.79-25.93,11.37-51.41,20.86-76.07
		c6.87-17.85,15.16-34.98,25.97-50.82C142.07,394.94,142.27,394.73,142.74,394.16z"/>
	<path class="st0" d="M474.07,532.5c6.68,4.63,13.38,7.23,20.52,8.86c19.88,4.53,39.71,3.65,59.56-0.23
		c9.22-1.8,18.16-4.38,26.26-9.3c2.14-1.3,4.15-2.83,6.44-4.41c0,2.62,0.16,5.01-0.03,7.37c-1.55,19.76-3.7,39.44-7.44,58.92
		c-1.56,8.15-3.37,16.24-4.9,24.39c-0.44,2.31-1.6,3.07-3.8,3.25c-18.95,1.58-37.92,2.1-56.78-0.65
		c-9.11-1.33-18.03-3.91-27.06-5.82c-2.05-0.43-2.73-1.58-2.94-3.5c-1.13-10.41-2.22-20.83-3.52-31.22
		c-1.81-14.41-3.81-28.81-5.72-43.21C474.49,535.76,474.34,534.55,474.07,532.5z"/>
	<path class="st0" d="M394.18,48.69c10.26-0.45,20.14,1.52,29.54,5.45c11.5,4.8,20.18,13.12,27.06,23.33
		c7.61,11.31,12.08,23.71,11.44,37.51c-0.72,15.53-8.72,26.57-22.45,33.12c-10.8,5.15-21.6,3.15-31.68-2.68
		c-13.86-8.02-22.3-20.57-28.35-34.97c-4.21-10.04-7.59-20.33-8.39-31.28c-0.55-7.53,0-14.89,3.92-21.64
		c3.41-5.86,7.86-9.81,15.23-8.85C391.71,48.82,392.96,48.69,394.18,48.69z M402.28,112.74c3.29,0.19,6.1-1.39,7.66-4.87
		c1.78-3.97,1.94-8.08,0.3-12.11c-2.8-6.91-10.83-8.36-15.54-2.76c-2.83,3.36-3.56,7.37-2.67,11.71
		C393.1,109.84,396.54,112.74,402.28,112.74z M442.24,92.31c-0.49-1.63-0.94-3.85-1.82-5.88c-2.37-5.45-8.7-6.96-13.41-3.33
		c-3.73,2.88-5.47,8.82-4.04,13.85c1.31,4.62,5.05,7.49,9.73,7.46c4.5-0.03,7.6-2.64,8.85-7.57
		C441.86,95.57,441.95,94.25,442.24,92.31z"/>
	<path class="st0" d="M466.9,643.66c-10.02,2.95-19.65,5.57-29.15,8.62c-18.97,6.09-35.85,16.08-52.03,27.6
		c-20.66,14.71-40.84,30.21-63.75,41.5c-15.85,7.81-32.45,13.3-49.77,16.69c-1.29,0.25-2.56,0.64-3.85,0.92
		c-1.27,0.27-2.55,0.49-3.78,0.72c0-5.26,0-10.41,0-16.05c3.23-0.77,7.12-1.72,11.02-2.61c25.99-5.94,49.89-16.52,71.56-32.11
		c14.33-10.31,28.64-20.64,43.06-30.81c17.26-12.18,36.49-20.01,56.85-25.26c6.01-1.55,12.02-3.08,18.36-4.71
		c-1.18-10.62-2.37-21.26-3.56-31.94c4.06,0,7.68,0,11.51,0c0.47,4.08,0.88,7.9,1.37,11.71c0.75,5.79,1.5,11.58,2.43,17.34
		c0.12,0.77,1.16,1.57,1.97,2.03c2.89,1.64,4.51,4.22,4.64,7.33c0.07,1.77-0.71,4.63-1.93,5.2c-3.77,1.73-2.78,4.41-2.57,7.29
		c1.5,20.52,3.12,41.04,4.26,61.58c0.77,13.75,0.86,27.54,1.17,41.31c0.08,3.72-2.14,6.09-5.48,6.23c-3.4,0.15-6.08-2.29-6.21-5.9
		c-0.42-11.89-0.57-23.78-1.18-35.66c-0.86-16.49-2.03-32.96-3.12-49.44c-0.42-6.4-0.94-12.8-1.44-19.2
		C467.24,645.44,467.09,644.83,466.9,643.66z"/>
	<path class="st0" d="M521.02,492.51c17.71,0.15,35.21,1.91,52.14,7.47c2.93,0.96,5.76,2.38,8.44,3.93
		c5.96,3.45,6.94,8.34,2.85,14.03c-3.62,5.04-8.67,8.33-14.21,10.91c-10.67,4.95-21.96,7.26-33.64,8.13
		c-15.24,1.13-30.13-0.54-44.66-5.23c-6.24-2.02-12.14-4.78-16.3-10.19c-5.93-7.69-3.84-18.05,4.65-22.74
		c6.76-3.73,14.23-5.06,21.78-5.53c6.29-0.39,12.63-0.08,18.95-0.08C521.01,492.99,521.02,492.75,521.02,492.51z"/>
	<path class="st0" d="M66.03,679.54c16.86-8.91,34.04-12.5,52.21-7.03c20.45,6.15,35.35,19.44,46.58,37.7
		c-4.81,2.81-9.39,5.39-13.87,8.13c-9.01,5.49-17.99,11.04-26.94,16.63c-2.76,1.73-6.23,1.56-8.64-0.77
		c-5.19-5.01-11.14-8.1-18.56-7.25c-2.2,0.25-4.35,1.03-6.77,1.63C82.65,712.1,76.94,694.82,66.03,679.54z"/>
	<path class="st0" d="M532.5,806.4c-12.67-14.54-25.23-28.96-37.89-43.49c0.98-1.39,1.99-2.74,2.9-4.14
		c2.52-3.84,3.73-8.05,3.02-12.63c-0.27-1.72,0.02-2.79,1.58-3.75c12.09-7.48,24.14-15.04,36.21-22.56c2.31-1.44,4.68-2.8,7.46-4.47
		c5.77,10.14,8.25,21.16,8.8,32.55C555.55,767.85,548.03,789.53,532.5,806.4z"/>
	<path class="st0" d="M72.66,823.94c3.36-8.23,6.82-16.15,9.84-24.24c3.23-8.65,6.11-17.44,9.02-26.21
		c0.74-2.22,1.67-2.83,4.11-2.34c4.88,0.98,9.61-0.19,13.85-2.7c1.74-1.03,2.5-0.68,3.7,0.7c9.61,11.04,19.33,21.97,28.95,33
		c2.6,2.98,4.97,6.15,7.44,9.22C130.9,829.73,100.37,837.52,72.66,823.94z"/>
	<path class="st0" d="M450.22,823.38c1.35-2.55,2.88-4.85,3.85-7.37c3.82-9.94,7.48-19.94,11.15-29.94
		c1.62-4.43,3.12-8.9,4.67-13.35c0.57-1.64,1.42-2.4,3.39-1.98c4.8,1.02,9.5,0.32,13.66-2.22c2.31-1.41,3.48-1.21,5.25,0.87
		c11.55,13.6,23.26,27.06,34.91,40.57c0.24,0.28,0.46,0.59,0.89,1.16c-9.9,9.06-21.26,15.25-34.36,17.92
		C478.64,832.09,464.23,829.84,450.22,823.38z"/>
	<path class="st0" d="M193.93,733.68c-0.36-24.28-0.72-48.11-1.07-72.3c3.96,0,7.69,0,11.97,0c0.37,23.38,0.74,46.92,1.12,70.82
		c6.16-0.66,12.01-1.29,17.39-1.87c1.91,5.04,3.73,9.8,5.62,14.79c-2.92,0.43-6.23,1.02-9.56,1.39c-14.34,1.6-28.67,3.33-43.04,4.65
		c-12.68,1.16-25.41,1.92-38.12,2.7c-12.33,0.76-24.68,1.32-37.01,1.98c-4.97,0.27-7.88-2.18-8.1-6.88
		c-0.24-5.08,2.72-8.38,7.55-8.7c23.73-1.57,47.46-3.16,71.19-4.8C179.18,734.96,186.48,734.29,193.93,733.68z"/>
	<path class="st0" d="M66.43,821.12c-16.39-8.96-28.16-21.32-34.94-38.21c-4.35-10.83-6.34-22.09-6.13-33.75
		c0.05-2.87,0.33-3.04,3.14-2.34c16.67,4.15,33.42,7.86,50.57,9.47c0.77,0.07,1.68,0.9,2.15,1.62c1.83,2.82,3.57,5.7,5.2,8.64
		c0.43,0.78,0.72,1.98,0.45,2.76c-4.35,12.57-8.62,25.17-13.31,37.61C71.7,811.8,68.88,816.3,66.43,821.12z"/>
	<path class="st0" d="M444.97,820.65c-27.94-14.04-43.37-43.93-41.01-74.43c2.95,0.58,5.87,1.17,8.8,1.72
		c13.05,2.45,26.1,4.9,39.16,7.32c2.03,0.38,4.12,0.52,6.13,0.98c0.62,0.14,1.23,0.89,1.61,1.51c1.68,2.79,3.33,5.6,4.87,8.48
		c0.43,0.8,0.82,1.96,0.56,2.73c-3.87,11.43-7.63,22.91-11.89,34.2C450.96,809.09,447.8,814.7,444.97,820.65z"/>
	<path class="st0" d="M134.35,141.51c-13.41-10.97-24.87-23.2-31.68-39.17c-2.27-5.34-3.53-10.92-3.52-16.78
		c0.04-13.91,11.36-21.71,24.42-16.89c8.83,3.26,15.47,9.22,21.04,16.58c6.76,8.93,10.66,19.26,14.47,29.64
		c0.58,1.57,0.15,2.44-1.05,3.59c-7.61,7.31-15.09,14.77-22.62,22.17C135.14,140.91,134.83,141.12,134.35,141.51z"/>
	<path class="st0" d="M202.64,88.05c-9.51-16.26-18.8-32.17-21.14-50.92c-0.46-3.68-0.22-7.55,0.31-11.25
		c1.63-11.41,10.52-15.08,20.59-11.77c10.11,3.32,16.56,10.99,20.57,20.58c4.58,10.96,5.21,22.41,4.12,34.2
		c-0.55,5.91-2.81,9-8.3,10.94c-4.67,1.65-8.91,4.49-13.35,6.8C204.62,87.05,203.79,87.46,202.64,88.05z"/>
	<path class="st0" d="M80.18,750.27c-7.43-1.11-14.54-1.91-21.55-3.28c-10.35-2.02-20.62-4.42-30.9-6.78
		c-0.67-0.15-1.66-1.38-1.59-1.99c2.96-23.48,14.65-41.6,34.02-54.93c0.15-0.1,0.36-0.1,1.28-0.35c2.67,4.58,5.85,9.15,8.15,14.13
		c5.29,11.46,10.16,23.11,15.16,34.7c0.26,0.61,0.4,1.62,0.08,2.08C81.51,738.58,80.42,743.96,80.18,750.27z"/>
	<path class="st0" d="M439.25,681.93c3.18,5.44,6.41,10.1,8.77,15.17c5.21,11.19,10.01,22.57,14.87,33.92
		c0.38,0.89,0.26,2.23-0.1,3.18c-0.93,2.45-2.39,4.71-3.15,7.2c-0.76,2.5-0.93,5.17-1.42,8.18c-1.84-0.14-3.91-0.11-5.89-0.48
		c-15.27-2.91-30.52-5.92-45.79-8.86c-1.69-0.33-2.34-1.01-2.11-2.86c2.14-17.22,9.51-31.89,21.76-44.06
		C430.11,689.41,434.52,686.02,439.25,681.93z"/>
	<path class="st0" d="M542.77,709.65c-15.23,9.26-30.27,18.41-45.29,27.54c-2.91-2.38-6.26-5.07-9.53-7.85
		c-0.42-0.35-0.6-1.15-0.64-1.76c-1.02-18.65-2.01-37.31-2.99-55.97c-0.02-0.45,0.06-0.9,0.09-1.33
		C504.02,669.98,531.52,688.08,542.77,709.65z"/>
	<path class="st0" d="M447.33,473.34c-8.82,2.25-17.28,4.5-25.79,6.54c-9.71,2.33-19.46,4.51-29.21,6.66
		c-3.76,0.83-7.43-1.38-8.62-4.8c3.37,0,6.78,0.16,10.17-0.05c2.91-0.18,5.82-0.66,8.68-1.24c4.15-0.85,6.68-3.58,7.15-8.06
		c0.22-2.15,1.11-2.68,3.03-3.17c14.72-3.72,29.38-7.67,44.1-11.39c2.19-0.55,4.66-0.66,6.88-0.29c9.37,1.56,17.54-0.56,24.68-6.95
		c1.3-1.16,3.24-1.77,4.99-2.25c4.36-1.21,8.75-2.32,13.18-3.24c3.78-0.78,6.25,1.14,7.29,5.28c0.8,3.16-0.75,5.75-4.38,6.71
		c-9.76,2.56-19.57,4.94-29.33,7.47c-6.2,1.61-12.36,3.4-18.55,5.02c-2.25,0.59-2.3,1.71-2.06,3.89c0.82,7.49,1.03,15.05,1.75,22.56
		c1.24,12.85,2.8,25.66,3.94,38.51c0.22,2.47-0.82,5.07-1.37,7.58c-0.07,0.34-0.65,0.58-1,0.85c-0.06,0.05-0.18,0.02-0.28,0.02
		c-2.17,0.02-4.47,0.5-6.48-0.06c-2.84-0.78-1.61-3.7-1.82-5.61c-2.31-20.72-4.44-41.46-6.63-62.2
		C447.58,474.67,447.48,474.22,447.33,473.34z"/>
	<path class="st0" d="M154.35,806.96c-1.88-2.12-3.56-3.99-5.21-5.88c-10.54-12.08-21.06-24.18-31.65-36.22
		c-1.02-1.16-0.92-1.86-0.19-3.15c1.69-2.99,4.11-3.73,7.42-3.92c16-0.94,31.99-2.18,47.98-3.31c1.01-0.07,2.02-0.14,3.36-0.23
		C175.31,774.6,167.55,791.66,154.35,806.96z"/>
	<path class="st0" d="M244,638.58c-1.93,1.75-3.9,3.45-5.77,5.27c-3.92,3.82-7.72,7.78-11.72,11.51c-0.99,0.92-2.58,1.63-3.92,1.67
		c-14.24,0.48-28.49,0.8-42.73,1.18c-0.75,0.02-1.51,0.09-2.26,0.16c-5.13,0.47-8.92-1.44-10.84-5.45
		c-2.28-4.78-1.74-10.9,1.83-13.93c1.63-1.38,4.19-2.31,6.33-2.33c8.4-0.05,16.79,0.43,25.19,0.55c13.78,0.2,27.57,0.27,41.36,0.4
		c0.64,0.01,1.28,0.07,1.92,0.1C243.6,637.99,243.8,638.28,244,638.58z"/>
	<path class="st0" d="M494.72,428.01c0.42,14.41-10.31,26.66-23.72,27.07c-16.53,0.5-30.48-11.58-30.6-27.18
		c-0.1-13.16,9.6-26.05,26.4-26.68C482.99,400.61,494.23,411.5,494.72,428.01z M467.93,409.75c-10.26,0.04-19.24,8.48-19.24,18.07
		c0.01,9.3,10.26,18.32,20.52,18.54c9.18,0.2,17.2-7.89,17.25-17.4C486.52,418.19,478.17,409.71,467.93,409.75z"/>
	<path class="st0" d="M468.25,728.36c-3.55-8.38-6.85-16.88-10.71-25.12c-3.83-8.16-8.22-16.04-12.73-24.75
		c6.87-2.56,13.92-5.18,21.76-8.1c1.05,19.95,2.05,38.89,3.04,57.82C469.16,728.26,468.7,728.31,468.25,728.36z"/>
	<path class="st0" d="M488.52,732.85c2.39,2.71,5.07,5.23,7.11,8.18c2.96,4.29,3.13,9,0.66,13.68
		c-4.03,7.61-10.22,12.56-18.86,13.16c-7.28,0.51-14-4-15.64-14.05c-0.89-5.45-0.33-10.81,2.22-15.72c1.14-2.21,3.07-4.01,4.64-6
		c0.44,0.22,0.88,0.44,1.32,0.67c-0.49,1.87-0.65,3.9-1.52,5.57c-2.97,5.65-3.76,11.47-1.8,17.52c1.8,5.54,6.69,8.25,12.46,7.21
		c5.18-0.93,9.3-3.47,12.24-7.9c3.41-5.15,2.98-10.54-1.47-14.85C487.83,738.33,486.53,736.33,488.52,732.85z"/>
	<path class="st0" d="M472.06,584.79c-3.58,0-6.77,0.14-9.93-0.1c-0.73-0.05-1.86-1.31-1.98-2.13c-1.33-8.94-2.49-17.89-3.68-26.85
		c-0.07-0.51-0.08-1.21,0.21-1.56c1.13-1.34,7.4-0.2,8.22,1.36c1.48,2.82,3.82,5.44,4.41,8.42
		C470.67,570.74,471.18,577.7,472.06,584.79z"/>
	<path class="st0" d="M136.03,734.29c10.42-6.12,20.84-12.25,31.84-18.72c2.08,5.55,4.1,10.93,6.24,16.64
		c-12.98,1-25.35,1.96-37.72,2.91C136.27,734.85,136.15,734.57,136.03,734.29z"/>
	<path class="st0" d="M112.4,736.79c-2.73-0.35-5.16-0.6-7.56-0.99c-1.11-0.18-2.16-0.68-3.26-0.93c-6.04-1.38-10.08,0.57-12.51,6.3
		c-2.18,5.14-2.4,10.47-0.45,15.73c2.12,5.7,8.58,8.21,14.89,5.88c1.58-0.58,2.99-1.59,4.55-2.25c2.41-1.03,4.87-1.93,7.31-2.88
		c0.22,0.35,0.44,0.7,0.66,1.05c-1.71,1.65-3.35,3.38-5.15,4.93c-6.52,5.61-15.15,6.3-21.35,1.52c-5.49-4.23-6.63-10.43-6.31-16.78
		c0.34-6.68,2.27-12.86,8.69-16.49c5.87-3.32,15.63-1.64,20.09,3.49C112.16,735.52,112.15,735.85,112.4,736.79z"/>
	<path class="st0" d="M240.54,721.2c-0.14,3.19-0.35,6.17-0.38,9.16c-0.05,3.54,1.38,5.27,4.3,5.49c3.65,0.28,5.48-1.11,5.93-4.8
		c0.31-2.55,0.34-5.14,0.49-7.71c0.27-0.12,0.55-0.24,0.82-0.36c0.93,1.07,2.08,2.02,2.74,3.23c2.76,5.05,2.2,10.05-0.92,14.68
		c-1.85,2.74-4.64,4.03-8.09,3.56c-8-1.1-14.36-10.57-11.88-17.74C234.62,723.63,237.37,721.37,240.54,721.2z"/>
	<path class="st0" d="M250.9,716.77c7.73,1.46,12.69,10.26,11.14,18.13c-0.38,1.93-0.94,3.87-1.72,5.67
		c-4.53,10.56-13.62,13.27-23.28,7.03c-7.2-4.66-11.39-14.7-9.33-22.35c1.42-5.28,6.46-10,11.44-10.56
		c0.66-0.08,1.39,0.48,2.09,0.74c-0.45,0.69-0.78,1.85-1.37,2c-10.11,2.51-12.12,13.29-7.3,21.47c2.51,4.27,6.16,7.51,11.14,8.58
		c8.52,1.82,13.37-3.8,14.93-10.68c1.58-6.94-0.35-12.86-6.3-17.24C251.59,719,251.37,717.71,250.9,716.77z"/>
	<path class="st0" d="M248.05,776.56c-4.75,0.57-9.51,1.11-14.26,1.74c-2.83,0.37-5.17-1.37-5.6-4.3c-0.4-2.71,0.85-4.53,3.92-4.61
		c8.18-0.2,16.38-0.19,24.56-0.02c2.29,0.05,3.73,1.51,3.52,4.18c-0.2,2.51-1.57,3.48-3.88,3.5c-2.73,0.02-5.47,0.01-8.21,0.01
		C248.08,776.89,248.07,776.72,248.05,776.56z"/>
	<path class="st0" d="M247.63,697.2c-4.43-0.25-9.05-0.45-13.65-0.79c-2.29-0.17-3.81-2.07-3.63-4.24c0.23-2.79,2.11-2.9,4.28-2.71
		c8.55,0.73,17.1,1.39,25.65,2.15c0.71,0.06,1.88,0.57,1.95,1.01c0.13,0.82-0.13,2.06-0.71,2.54c-0.87,0.73-2.13,1.23-3.28,1.35
		C254.79,696.85,251.3,696.97,247.63,697.2z"/>
	<path class="st0" d="M245.13,700.22c1.55,0,2.72,0,4.3,0c-0.3,5.16-0.59,10.11-0.89,15.06c-0.27,4.51-0.55,9.02-0.83,13.53
		c-0.05,0.75,0.15,1.7-0.24,2.2c-0.63,0.81-1.63,1.78-2.49,1.79c-0.61,0.01-1.67-1.38-1.79-2.24c-0.22-1.65,0.08-3.37,0.19-5.06
		C243.97,717.14,244.54,708.79,245.13,700.22z"/>
	<path class="st0" d="M241.66,753.76c1.69,0.11,2.86,0.18,3.96,0.25c0,3.53,0.3,6.83-0.09,10.05c-0.31,2.59-2.5,1.33-4.4,1.28
		C241.3,761.52,241.47,757.83,241.66,753.76z"/>
	<path class="st0" d="M267.86,644.44c2.89,5.73-0.62,9.16-7.79,9.11C262.41,650.82,265.08,647.7,267.86,644.44z"/>
	<path class="st0" d="M390.11,457.38c0.77,2.31,1.44,4.32,2.29,6.88c-3.59,0.32-6.82,0.61-10.98,0.98
		C384.65,462.32,387.26,459.95,390.11,457.38z"/>
	<path class="st0" d="M487.2,755.2c0.24-3.94,0.47-7.88,0.71-11.87C491.78,746.29,491.35,751.97,487.2,755.2z"/>
	<path class="st0" d="M469.44,745.67c0.49,3.07,0.34,6.16,1.55,8.56c1.15,2.28,3.73,3.84,5.78,5.82c-1.96,0.45-3.82-0.57-5.44-2.12
		C468.5,755.21,467.6,749.66,469.44,745.67z"/>
	<path class="st0" d="M91.64,754.89c2.5,3.16,5.75,4.45,9.69,4.16c-0.03,0.33-0.06,0.65-0.09,0.98c-1.82,0-3.73,0.35-5.44-0.09
		C93.48,759.35,91.84,757.71,91.64,754.89z"/>
	<path d="M299.61,74.07c21.86,0.74,36.81,22.09,30.64,42.34c-4.43,14.55-17.03,24.98-32.16,25.76
		c-11.23,0.58-21.48-4.82-26.63-17.76c-5.59-14.04-4.48-27.66,5.73-39.55C283.28,77.78,291.22,74.21,299.61,74.07z M296.17,129.35
		c5.1,0.18,9.88-2.2,14.36-5.3c9.73-6.73,11.52-19.77,3.9-28.8c-4.82-5.71-11.45-7.23-18.53-7.45c-5.98-0.18-10.3,2.62-13.18,7.68
		c-5.13,9.02-4.64,18.08,0.48,26.85C285.87,126.92,290.07,129.5,296.17,129.35z"/>
	<path d="M284.71,337.46c-19.6-0.21-34.9-5.1-46.68-18.13c-3.37-3.73-5.92-8.24-8.54-12.57c-1.67-2.76-1.07-5.25,1.08-7.49
		c2.88-2.99,6.08-2.73,8.61,0.56c8.48,10.99,19.02,19.09,32.64,22.66c10.01,2.62,20.03,2.11,29.97-0.49
		c11.62-3.04,21.63-8.67,29.29-18.19c8.19-10.19,12.12-21.83,12.26-34.81c0.02-2.32,0.26-4.4,2.78-5.3
		c3.25-1.15,5.73,0.47,6.11,4.16c1.4,13.62-1.22,26.39-8.87,37.82c-10.95,16.39-26.56,25.92-45.67,29.9
		C292.61,336.63,287.43,337.07,284.71,337.46z"/>
	<path d="M260.76,146.8c-0.24,9.53-2.77,18.47-10.1,25.56c-16.37,15.84-43.96,10.94-51.35-13.38c-4.11-13.51-0.22-25.49,7.75-36.48
		c4.51-6.21,9.92-11.45,17.35-13.98c9.05-3.08,17.05-0.72,23.6,5.91C256.73,123.24,260.62,134.14,260.76,146.8z M250.25,146.71
		c-0.01-6.79-2.63-12.6-6.55-18c-7.46-10.28-17.88-9.22-26.11-2.51c-8.41,6.85-11.65,20.14-7.85,30.26
		c2.78,7.39,8.06,12.1,15.96,13.12C238.71,171.25,250.21,160.39,250.25,146.71z"/>
	<path d="M157.68,215.24c13.83,0.35,26.16,4.75,36.24,14.32c11.14,10.58,15.41,24,14.24,39.05c-0.92,11.91-4.88,22.84-12.76,32.09
		c-6.11,7.17-13.79,11.55-23.29,11.66c-18.57,0.21-31.97-9.42-41.65-24.14c-9.05-13.78-10.89-29.38-7.48-45.43
		C126.71,225.23,139.72,215.08,157.68,215.24z M123.86,253.41c0.7,5.78,0.98,10.04,1.77,14.2c3.84,20.24,15.61,33.88,35.17,40.16
		c12.78,4.1,24.07,0.85,32.89-9.6c6.4-7.58,9.7-16.59,11.18-26.23c1.94-12.58-0.4-24.42-8.19-34.6
		c-10.12-13.24-24.15-19.08-40.52-18.85c-13.08,0.19-23.24,6.01-28.2,18.56C125.74,242.65,124.97,248.83,123.86,253.41z"/>
	<path d="M402.28,112.74c-5.74,0-9.18-2.9-10.24-8.03c-0.9-4.34-0.16-8.35,2.67-11.71c4.71-5.6,12.74-4.15,15.54,2.76
		c1.63,4.03,1.47,8.15-0.3,12.11C408.39,111.35,405.58,112.93,402.28,112.74z"/>
	<path d="M442.24,92.31c-0.29,1.94-0.38,3.27-0.7,4.53c-1.25,4.93-4.34,7.54-8.85,7.57c-4.68,0.03-8.42-2.84-9.73-7.46
		c-1.42-5.03,0.31-10.97,4.04-13.85c4.71-3.63,11.04-2.13,13.41,3.33C441.3,88.46,441.74,90.68,442.24,92.31z"/>
	<path d="M467.93,409.75c10.24-0.04,18.59,8.44,18.54,19.21c-0.05,9.51-8.07,17.6-17.25,17.4c-10.26-0.22-20.52-9.24-20.52-18.54
		C448.69,418.23,457.67,409.79,467.93,409.75z M483.55,428.76c0.12-6-4.4-12.78-9.96-14.91c-5.89-2.26-13.24-0.55-17.44,4.04
		c-6.68,7.31-5.98,15.09,1.97,21.12c1.42,1.08,2.94,2.09,4.55,2.84C472.58,446.46,483.33,439.69,483.55,428.76z"/>
	<path class="st0" d="M296.17,129.35c-6.11,0.14-10.3-2.43-12.97-7.02c-5.12-8.77-5.61-17.84-0.48-26.85
		c2.88-5.06,7.21-7.86,13.18-7.68c7.08,0.22,13.71,1.74,18.53,7.45c7.62,9.03,5.83,22.07-3.9,28.8
		C306.06,127.15,301.27,129.53,296.17,129.35z M305.89,94.65c-5.76,0.04-9.98,3.88-9.88,9.01c0.11,5.7,5.93,12.06,10.9,11.91
		c5.29-0.16,9.47-4.45,9.47-9.71C316.37,99.3,311.98,94.61,305.89,94.65z"/>
	<path class="st0" d="M250.25,146.71c-0.04,13.68-11.55,24.54-24.55,22.86c-7.9-1.02-13.19-5.73-15.96-13.12
		c-3.8-10.12-0.56-23.41,7.85-30.26c8.23-6.71,18.65-7.76,26.11,2.51C247.62,134.12,250.24,139.92,250.25,146.71z M246.82,143.23
		c-0.07-6.17-5.13-11.59-10.68-11.42c-5.36,0.16-9.7,4.31-9.63,9.2c0.09,6.25,5.39,12.06,10.94,12
		C242.51,152.96,246.88,148.4,246.82,143.23z"/>
	<path class="st0" d="M123.86,253.41c1.1-4.58,1.88-10.76,4.09-16.37c4.96-12.55,15.13-18.37,28.2-18.56
		c16.37-0.24,30.4,5.61,40.52,18.85c7.78,10.18,10.13,22.02,8.19,34.6c-1.49,9.65-4.79,18.65-11.18,26.23
		c-8.81,10.44-20.11,13.7-32.89,9.6c-19.56-6.27-31.32-19.91-35.17-40.16C124.84,263.45,124.57,259.19,123.86,253.41z"/>
	<path class="st0" d="M483.55,428.76c-0.22,10.93-10.97,17.7-20.88,13.08c-1.61-0.75-3.13-1.76-4.55-2.84
		c-7.95-6.03-8.66-13.81-1.97-21.12c4.2-4.6,11.55-6.3,17.44-4.04C479.15,415.98,483.67,422.76,483.55,428.76z"/>
	<path d="M305.89,94.65c6.1-0.05,10.49,4.65,10.49,11.21c0,5.26-4.18,9.55-9.47,9.71c-4.97,0.15-10.8-6.21-10.9-11.91
		C295.91,98.54,300.12,94.7,305.89,94.65z"/>
	<path d="M246.82,143.23c0.06,5.17-4.31,9.73-9.37,9.79c-5.55,0.06-10.85-5.75-10.94-12c-0.07-4.89,4.27-9.04,9.63-9.2
		C241.69,131.64,246.76,137.05,246.82,143.23z"/>
</g>
</svg>
