<?xml version="1.0" encoding="utf-8"?>
<!-- Generator: Adobe Illustrator 26.0.0, SVG Export Plug-In . SVG Version: 6.00 Build 0)  -->
<svg version="1.1" id="Capa_1" xmlns="http://www.w3.org/2000/svg" xmlns:xlink="http://www.w3.org/1999/xlink" x="0px" y="0px"
	 viewBox="0 0 595.3 790" style="enable-background:new 0 0 595.3 790;" xml:space="preserve">
<style type="text/css">
	.st0{fill:#FFFFFF;}
</style>
<g>
	<path d="M362.3,0c4.3,1.5,8.9,2.4,12.8,4.6c12.6,7.3,18,18.7,17.2,33c-0.9,16.1-7.5,30.5-14.7,44.5c-2.9,5.6-6.1,11.1-9.2,16.7
		c-1.6,2.9-1.1,5.2,1.9,6.9c5,2.7,9.9,5.5,14.9,8.2c3,1.6,5.3,0.6,7-2.1c2.3-3.8,4.7-7.7,6.9-11.5c6.8-11.6,15.3-21.7,25.9-29.8
		c7.2-5.6,15.3-9.2,24.5-10.3c13-1.6,28.6,6.7,34.5,18.5c2.8,5.6,2.1,11.5,2,17.4c-0.2,19.9-10.1,35.2-23.5,48.6
		c-5.7,5.7-11.8,11.1-17.8,16.5c-2,1.8-2.5,3-0.9,5.4c11.5,17.5,22.1,35.5,29,55.4c5.5,16.1,10.8,32.3,12.2,49.3
		c2.2,26.1,0.5,52-7.3,77.3c-7.4,24.1-18.1,46.1-34.5,65.4c-6.9,8.1-6.6,5.8-1.2,15.2c4.7,8.3,10,16.2,15.1,24.2
		c2.3,3.6,5.4,6,9.8,7.2c27.7,7.3,54.1,18.2,79.9,30.4c2.2,1,3.9,1.1,6.1,0c8.8-4.4,17.7-8.6,27.7-9.9c2.2-0.3,4.6-0.3,6.8,0.1
		c4.7,0.7,7.2,3.1,7.5,6.5c0.5,5.7-1.2,9-6.2,10.5c-4.3,1.3-8.7,1.9-13.1,2.8c-1,0.2-2.1,0.5-3.9,0.9c1.9,2,3.4,3.5,4.9,5
		c5.1,5.1,10.5,10,15.4,15.3c3.9,4.2,3.9,7.7,0.7,11c-3.2,3.5-8,3.9-12.1,0.9c-3.2-2.3-6.3-4.8-9.4-7.1c-1.1-0.8-2.4-1.5-4.1-2.5
		c-0.2,1.6-0.2,2.6-0.4,3.6c-0.5,2.4-0.7,5-1.8,7.2c-2.4,5.2-8,5.7-11.2,0.9c-1.9-2.9-3.8-6-4.7-9.3c-2.8-10.9-9.8-17.3-20.1-21.4
		c-16.6-6.6-32.8-14-49.1-21.1c-1.6-0.7-3.2-1.3-4.9-1.8c-1.1-0.3-2.3-0.3-3.4-0.4c0,1.1-0.2,2.3,0.1,3.4c2.9,9.8,5.9,19.7,9,29.5
		c8,25.8,14.1,52.2,19.7,78.6c0.6,2.8,1.3,5.5,2.2,8.2c0.5,1.5,1.3,3.2,2.5,4.1c1.4,1.1,3.5,1.4,5.2,2.1c0.5-1.5,1.5-2.9,1.5-4.4
		c0-4-0.1-8.1-0.6-12.1c-0.9-6.4,1.5-11.4,5.4-16.2c6.7-8.3,15.6-9.7,24.9-7.4c8.9,2.2,13.5,9.4,15.4,18c1.6,7,1.7,13.9-2.3,20.3
		c-0.8,1.3-1.2,2.8-1.9,4.1c0.2,0.3,0.3,0.6,0.5,0.9c2.5-0.9,5.5-1.4,7.5-2.9c3.6-2.8,7-6,9.8-9.6c3.2-4.2,7-4.8,11.6-3.8
		c3.5,0.8,5.9,3.7,5.7,7.4c-0.1,2.2-0.5,4.4-1.3,6.4c-4,10.5-16.8,19.5-28,19.1c-14.8-0.6-29.5-1.8-44.2-2.7c-2.9-0.2-5.8,0-9.2,0
		c1.3,8.1,2.7,15.5,3.5,23c1.3,11.1,2.2,22.2,3.1,33.3c0.4,4.8-1.7,7.7-6.4,9c-4.4,1.1-9,1.8-13.6,2c-18.9,0.5-37.9,0.6-56.8,0.8
		c-7.1,0.1-14.2,0-21.5,0c0,6.8-0.3,13,0.1,19.2c1,16.3,2.2,32.5,3.6,48.8c0.3,4.2,1.4,8.4,2.2,12.6c1,5.6-0.9,9.4-6.5,10.6
		c-6.7,1.5-13.6,2.8-20.4,3.1c-19.1,0.8-38.3,1.4-57.4,1.5c-5.4,0-11-1.7-16.2-3.3c-5.4-1.6-7.1-6.2-7.2-11.4c0-5.1,2.2-9.4,7-11.3
		c3.9-1.5,8.2-2.5,12.4-2.8c16.8-0.9,33.5,0.8,50.1,2.8c4.3,0.5,8.6,1,13.5,1.5c-1.2-23.6-2.3-46.7-3.5-70.3c-5.5,0-10.8-0.1-16.1,0
		c-21.4,0.3-42.7,0.7-64.1,1.1c-24.1,0.5-48.2,1.1-72.3,1.6c-4.7,0.1-4.8,0.2-4.5,5c1.1,18.9,2.1,37.8,3.5,56.7
		c0.3,4.8,1.8,9.6,3.1,14.4c1.2,4.3,0.7,7.2-3.5,9c-4.5,1.9-9.3,3.4-14.1,4c-23.8,3.4-47.7,5.1-71.7,2.2c-4-0.5-7.9-1.5-11.8-2.7
		c-3.6-1.1-5.5-3.7-5.4-7.7c0.1-1.6,0-3.3,0-4.9c0-6,3.8-11.1,9.9-11.5c9.8-0.7,19.7-1.2,29.5-0.6c12.6,0.7,25.2,2.4,37.9,3.7
		c0.5,0,1.1,0,1.9,0c0.1-1.3,0.4-2.6,0.4-3.9c-0.6-19.7-1.3-39.4-2-59.1c-0.1-3-1.1-4.7-4.6-4.8c-15.3-0.7-30.6-1.7-45.9-2.5
		c-22.1-1.1-44.2-2.2-66.3-3.3c-1.1,0-2.2-0.3-3.2-0.4c-7.7-1.1-8.7-1.7-8.1-9.3c1.2-15.3,2.3-30.6,4.7-45.7
		c4.5-27.6,9-55.3,15.1-82.6c4.8-21.5,11.9-42.5,17.9-63.8c0.6-2.1,1.1-4.1,1.9-6.9c-2,0.5-3.5,0.6-4.9,1.2
		c-20,9-40.1,18.1-60.1,27.1c-4.8,2.2-7.7,6-9.6,10.7c-1.9,4.7-3.6,9.4-5.8,13.9c-2.6,5.3-8,5.8-11.3,0.8c-1.5-2.3-1.8-5.5-2.5-8.3
		c-0.3-1.1,0-2.3,0-4.2c-2,1.2-3.5,2.1-5.1,3c-4.6,2.8-9,5.8-13.7,8.4c-2.3,1.3-5,1.9-7.3-0.3c-2.4-2.2-2.2-5.1-1-7.6
		c1.9-3.7,3.9-7.7,6.9-10.6c4.3-4.3,9.5-7.7,14.3-11.4c0.7-0.6,1.5-1.2,3-2.4c-2.3-0.7-3.7-1.3-5.2-1.6c-4.8-0.9-9.8-1.4-14.5-2.7
		c-2.4-0.7-4.4-2.9-6.5-4.4c0-2,0-3.9,0-5.9c0.3-0.6,0.6-1.1,0.9-1.7c2.1-4.8,3.8-5.9,9.1-5.6c1.3,0.1,2.7,0,3.9,0.4
		c9.7,3.2,19.5,6.3,29.2,9.7c2.1,0.8,3.7,0.8,5.8-0.2c8.8-4.1,17.5-8.5,26.6-11.9c17.8-6.6,35.8-12.7,53.8-18.9
		c3.3-1.1,5.7-3,7.6-5.8c4.3-6.6,8.6-13.2,13-19.7c5.4-7.9,10.9-15.6,16.4-23.5c-1.4-1.8-2.8-3.3-4.1-5
		c-5.8-7.8-12.2-15.3-17.2-23.6c-15-24.9-20.9-51.7-15-80.7c3.2-16,9-31.3,14.6-46.6c4-10.7,6.1-9.1-5.6-15.6
		c-18.7-10.3-36-22.5-51.7-36.9c-14.8-13.6-28.8-27.9-39.2-45.3c-6.5-10.8-11-22.1-9.7-35.4c3.6-35.5,21.7-60.6,53.8-75.5
		c14.5-6.7,29.7-9.6,45.7-6.9c12.1,2,24.3,3.5,36.4,5.4c31.5,4.9,62.7,11.2,93.4,19.7c12.1,3.3,24.2,6.8,36.3,10.2
		c2.9,0.8,4.5,0.3,4.9-3.1c0.9-7.4,2-14.7,3.1-22.1c2.8-17.7,10.3-32.6,26.4-41.8c5.7-3.3,12.2-5.1,18.3-7.6
		C358.8,0,360.6,0,362.3,0z M90.9,180.4c1.5,1.8,2.2,3,3.2,3.9c15.8,15.2,32.9,28.6,52,39.3c4.6,2.6,10.1,4,15.3,5.3
		c9.1,2.3,14.4,8.7,18.5,16.4c1.3,2.5-0.1,4.2-3,4.4c-2.2,0.2-4.4,0.3-6.5-0.1c-4.7-0.8-7.7,1-9.8,5.2
		c-9.2,18.2-15.6,37.2-16.9,57.8c-2,31.9,8.6,58.7,30.4,81.4c22.2,23.1,49.5,37.7,80,46.5c23.3,6.7,47.4,6.9,71.4,6.5
		c7.9-0.1,15.9-0.1,23.6-1.6c68.4-13.6,110-62.5,119.5-127.7c2.1-14.1,0.8-28.6,1-43c0.2-21.4-4.3-41.7-14-60.8
		c-5.8-11.4-11.2-23.1-19.6-33c-3-3.6-6.5-6.7-11.3-7.2c-3.7-0.4-4.8-2.4-5.4-5.7c-0.7-3.3-1.6-7-3.6-9.6
		c-5.1-6.5-11.8-11.5-19.5-14.6c-4-1.6-7.3-3.8-10.2-6.9c-1.7-1.8-3.6-3.6-5.3-5.4c-8.7-8.9-18.3-16-31.6-15.9c-0.8,0-2.1-1.1-2.5-2
		c-2.6-6.2-7.5-9.3-13.8-10.5c-4.9-0.9-10-1.2-15-2c-0.9-0.1-2.2-0.7-2.6-1.4c-2.5-5.5-7.4-7.9-12.6-9.9
		c-40-15.5-81.7-24.2-124-30.8c-4.1-0.6-8.4-0.9-12.8-1.4c0.4,1.9,0.7,3.2,0.9,4.4c1,8.5,2.6,16.9,2.6,25.4
		c0,17.5-5.6,33.8-13.5,49.2c-11.5,22.4-28.9,37.4-54.1,42.2C98.4,179.8,95,179.9,90.9,180.4z M423.2,433.6c-1,0.5-2,1-3,1.5
		c-8,4.1-15.8,8.4-23.9,12.4c-17.4,8.5-35.6,15-55.1,15.8c-15.7,0.7-31.5,0.2-47.3,0.4c-14.8,0.1-29.2-2.7-43.3-6.9
		c-24.1-7.2-46.8-17.2-67.1-32.3c-2.3-1.7-4-2-5.9,0.6c-4.1,5.7-9.1,10.8-12.5,16.8c-21.8,38.4-36.6,79.6-45.8,122.5
		c-6.7,31.3-10.8,63.2-15.8,94.8c-1,6.1-1.2,12.3-1.8,18.7c2.9,0.3,5.2,0.7,7.5,0.8c24.8,0.6,49.7,1.3,74.5,1.6
		c24.4,0.3,48.9,0.1,73.3,0c28.3,0,56.5-0.1,84.8-0.2c11.8,0,23.7-0.2,35.5-0.4c28.8-0.6,57.6-1.2,86.4-2c9.1-0.2,18.1-1,27.2-1.4
		c2.3-0.1,3-1.2,2.8-3.4c-0.5-4.5-0.6-9-1.3-13.4c-5.3-30.8-10.4-61.7-16.3-92.4c-7.4-38.5-20-75.2-38-110.1
		C433.8,448.8,429.7,440.6,423.2,433.6z M128.2,55.4c-35.5-0.2-64.9,25.7-72.5,56.9c-2.6,10.6-2.6,21.4,3.2,31.2
		c13.2,22.1,43,27.7,62.9,11.1c21.9-18.2,33.4-42,34.3-70.6c0.2-7.3-0.8-14.4-4.9-20.7c-2.4-3.7-5.4-6.2-10-6.6
		C136.9,56.3,132.5,55.8,128.2,55.4z M471.3,97.3c-0.1-2.5-0.1-5-0.4-7.5c-0.6-5.6-5.6-12.1-10.6-13.1c-6.8-1.3-13.6-1.4-19.7,2.5
		c-4.1,2.6-8.3,5.4-11.9,8.7c-10.8,10-16.8,23-22.3,36.3c-0.6,1.3,0,4,1.1,5c7.4,7.2,15,14.3,22.7,21.2c2.4,2.2,5,1.6,7.6-0.6
		c11.1-9.6,20.6-20.5,28-33.2C469.4,110.7,471.3,104.3,471.3,97.3z M325.7,83.7c7.4,3.4,14.2,6.6,21,9.8c5,2.4,5.5,2.6,8.3-2.1
		c5.6-9.5,11.2-19,16-28.9c5.5-11.6,5.9-24.1,3.7-36.6c-0.4-2.3-1.7-5.4-3.5-6.3c-6.2-3.1-13.4-4.6-19.6-1.3
		c-11.9,6.4-20.9,16.2-23.3,29.7C326.2,59.7,326.5,71.9,325.7,83.7z M532.4,599.8c3.6-0.1,6.6-2.7,6.5-4.8c-0.1-2.6-4.4-7.9-6.3-7.7
		c-0.3,0-0.6,0.2-0.8,0.4c-1.8,1.3-3.5,6.7-2.5,8.7C530.2,597.8,531.7,599,532.4,599.8z"/>
	<path class="st0" d="M90.9,180.4c4.2-0.5,7.6-0.6,10.8-1.2c25.2-4.8,42.6-19.8,54.1-42.2c7.9-15.5,13.5-31.7,13.5-49.2
		c0-8.5-1.7-16.9-2.6-25.4c-0.1-1.3-0.5-2.6-0.9-4.4c4.5,0.5,8.7,0.7,12.8,1.4c42.2,6.7,84,15.3,124,30.8c5.2,2,10,4.4,12.6,9.9
		c0.3,0.7,1.6,1.3,2.6,1.4c5,0.7,10,1,15,2c6.2,1.2,11.2,4.3,13.8,10.5c0.4,0.9,1.6,2,2.5,2c13.3-0.1,22.9,7,31.6,15.9
		c1.8,1.8,3.6,3.5,5.3,5.4c2.9,3.1,6.2,5.3,10.2,6.9c7.7,3.1,14.4,8.1,19.5,14.6c2,2.6,3,6.3,3.6,9.6c0.7,3.3,1.7,5.3,5.4,5.7
		c4.9,0.5,8.3,3.6,11.3,7.2c8.3,9.9,13.8,21.5,19.6,33c9.6,19.1,14.2,39.4,14,60.8c-0.2,14.3,1.1,28.9-1,43
		C459.1,383,417.5,432,349.1,445.5c-7.7,1.5-15.7,1.4-23.6,1.6c-24,0.5-48.1,0.2-71.4-6.5c-30.5-8.8-57.8-23.4-80-46.5
		c-21.8-22.7-32.5-49.5-30.4-81.4c1.3-20.7,7.6-39.6,16.9-57.8c2.1-4.2,5.1-6,9.8-5.2c2.1,0.4,4.4,0.3,6.5,0.1
		c2.9-0.2,4.3-1.9,3-4.4c-4-7.8-9.4-14.1-18.5-16.4c-5.2-1.3-10.7-2.7-15.3-5.3c-19.1-10.7-36.3-24.1-52-39.3
		C93.1,183.4,92.3,182.2,90.9,180.4z M278.2,116.2c-0.1-6.2-4.1-14.3-10.7-21.1c-8-8.3-17.8-13.4-29.4-13.2
		c-13.4,0.3-28.4,13-32,26.1c-6.6,24,13.6,49.5,38.5,48.6C261.6,155.9,278.2,137.8,278.2,116.2z M262.1,368.2
		c14,0.5,27.4-2.3,39.7-9.8c9.5-5.8,16.6-13.8,20.6-24.4c0.9-2.5,1.4-5.2-0.9-7.3c-1.9-1.7-6-1.6-8.6,0.3c-2.2,1.6-4.1,3.6-6.3,5.2
		c-6.8,5-13.3,10.8-20.7,14.8c-13.3,7.1-27.8,7-42.3,4.6c-17.1-2.8-31.3-10.7-41.5-25.1c-5.8-8.2-8.5-17.7-11.1-27.1
		c-0.7-2.5-1.5-5.1-2.8-7.3c-0.7-1.2-2.5-2.7-3.7-2.6c-1.2,0-3,1.7-3.4,2.9c-0.9,3.6-2.2,7.6-1.6,11.2c3.5,22.4,14.7,40.1,34.4,51.7
		C228.5,363.9,244.5,368.9,262.1,368.2z M286.5,162c-0.3,7.4,1.5,15,6.4,21.6c7.3,9.9,17.6,13.9,29.5,14.6
		c20.5,1.2,39-17.9,36.9-38.3c-1.8-17.6-16.4-35.1-33.6-40.1c-8.5-2.5-16.3-1.1-22.9,5C292.3,134.5,286.2,146.5,286.5,162z
		 M392.4,341.9c4.8-0.7,9.9-0.7,14.5-2.2c23.3-7.5,40-30.2,40.8-54.7c0.4-11.7-0.9-22.9-7.4-33.1c-5.2-8.1-12.2-13.4-21.7-15
		c-3.8-0.6-7.6-0.8-11.4-1.1c-17.8-1.5-33,4.7-45.7,16.8c-16.3,15.5-20.1,39.4-9.8,61.9C359.4,331.9,372.2,342.4,392.4,341.9z"/>
	<path class="st0" d="M423.2,433.6c6.5,6.9,10.7,15.1,14.9,23.3c18,34.9,30.6,71.6,38,110.1c5.9,30.7,11,61.6,16.3,92.4
		c0.8,4.4,0.9,8.9,1.3,13.4c0.2,2.1-0.5,3.3-2.8,3.4c-9.1,0.4-18.1,1.2-27.2,1.4c-28.8,0.8-57.6,1.4-86.4,2
		c-11.8,0.2-23.7,0.4-35.5,0.4c-28.3,0.1-56.5,0.2-84.8,0.2c-24.4,0-48.9,0.2-73.3,0c-24.8-0.3-49.7-1-74.5-1.6
		c-2.3,0-4.5-0.5-7.5-0.8c0.6-6.4,0.8-12.6,1.8-18.7c5.1-31.6,9.1-63.5,15.8-94.8c9.2-42.9,24-84.1,45.8-122.5
		c3.4-6,8.4-11.2,12.5-16.8c1.9-2.6,3.6-2.3,5.9-0.6c20.3,15.1,43,25.2,67.1,32.3c14.1,4.2,28.5,7,43.3,6.9
		c15.8-0.1,31.5,0.3,47.3-0.4c19.5-0.8,37.7-7.3,55.1-15.8c8.1-3.9,15.9-8.2,23.9-12.4C421.1,434.7,422.1,434.2,423.2,433.6z"/>
	<path class="st0" d="M128.2,55.4c4.3,0.4,8.7,0.9,13,1.2c4.6,0.4,7.6,2.9,10,6.6c4.1,6.3,5.2,13.4,4.9,20.7
		c-1,28.6-12.4,52.4-34.3,70.6c-20,16.6-49.7,11.1-62.9-11.1c-5.9-9.8-5.8-20.6-3.2-31.2C63.3,81.1,92.7,55.2,128.2,55.4z
		 M98.1,102.4c0-0.7,0-1.3,0-2c-0.3-5.2-4-9.3-9.6-10.6c-4.1-0.9-7,0.8-9.6,6c-1,1.9-1.9,4-2.2,6.1c-0.7,5,1.6,8.9,5.4,12
		c3.1,2.5,6.6,2.5,10.1,0.7C97.2,112.1,97.9,107.4,98.1,102.4z M113.2,112c-0.1,0-0.1,0-0.1,0c0.2,1.8,0.3,3.7,0.6,5.5
		c0.8,4.6,4.2,7.1,8.9,6.8c6.9-0.5,12.5-7.2,11.6-14.1c-0.7-6.2-6.5-11.3-12.3-10.9c-5.6,0.4-8.5,4.2-8.7,11.4
		C113.2,111.1,113.2,111.5,113.2,112z"/>
	<path class="st0" d="M471.3,97.3c0,7-1.9,13.4-5.4,19.4c-7.4,12.7-16.9,23.6-28,33.2c-2.6,2.2-5.2,2.8-7.6,0.6
		c-7.7-6.9-15.3-14-22.7-21.2c-1-1-1.6-3.7-1.1-5c5.5-13.3,11.5-26.3,22.3-36.3c3.6-3.3,7.7-6.1,11.9-8.7c6.1-3.9,12.9-3.8,19.7-2.5
		c5,0.9,10,7.4,10.6,13.1C471.1,92.3,471.1,94.8,471.3,97.3z"/>
	<path class="st0" d="M325.7,83.7c0.7-11.8,0.5-24,2.6-35.7c2.4-13.5,11.4-23.4,23.3-29.7c6.2-3.3,13.4-1.8,19.6,1.3
		c1.8,0.9,3.1,4,3.5,6.3c2.2,12.5,1.8,25-3.7,36.6c-4.7,9.9-10.3,19.5-16,28.9c-2.8,4.8-3.3,4.5-8.3,2.1
		C339.9,90.3,333.1,87.1,325.7,83.7z"/>
	<path d="M278.2,116.2c0,21.6-16.5,39.7-33.6,40.3c-24.9,0.9-45.1-24.6-38.5-48.6c3.6-13,18.6-25.8,32-26.1
		c11.6-0.2,21.4,4.9,29.4,13.2C274,101.9,278,110,278.2,116.2z M262.8,120.2c-0.1-2-0.1-3.9-0.3-5.9c-0.9-9.5-9.5-16.9-18.9-16.3
		c-7.3,0.4-13.6,3.3-18.8,8.4c-4.3,4.1-6.2,9.6-4.6,15.3c3.6,13.7,15.5,22.5,31.9,17.8c2.5-0.7,4.9-2.8,6.6-4.8
		C262.1,130.6,263.2,125.6,262.8,120.2z"/>
	<path d="M262.1,368.2c-17.6,0.7-33.6-4.3-48.4-12.9c-19.7-11.5-30.9-29.2-34.4-51.7c-0.5-3.6,0.7-7.5,1.6-11.2
		c0.3-1.2,2.2-2.9,3.4-2.9c1.2,0,3,1.4,3.7,2.6c1.3,2.3,2,4.8,2.8,7.3c2.7,9.5,5.3,18.9,11.1,27.1c10.2,14.4,24.4,22.3,41.5,25.1
		c14.5,2.4,29,2.5,42.3-4.6c7.4-4,13.9-9.8,20.7-14.8c2.2-1.6,4.1-3.6,6.3-5.2c2.6-1.9,6.7-2,8.6-0.3c2.3,2.1,1.9,4.8,0.9,7.3
		c-4,10.5-11,18.5-20.6,24.4C289.5,365.9,276.1,368.7,262.1,368.2z"/>
	<path d="M286.5,162c-0.3-15.5,5.8-27.4,16.4-37.2c6.6-6.1,14.4-7.5,22.9-5c17.1,5,31.8,22.4,33.6,40.1
		c2.1,20.4-16.5,39.6-36.9,38.3c-12-0.7-22.2-4.7-29.5-14.6C288,177,286.2,169.4,286.5,162z M323.6,185.1c2.9-0.4,6-0.3,8.6-1.4
		c9.9-4.2,16.9-19.7,13-29.8c-5.1-13.3-14.4-19.5-27.7-18.4c-2.6,0.2-5.5,1.6-7.5,3.4c-5.6,5.1-8.8,11.7-10.3,19
		c-0.5,2.5-0.6,5.3,0,7.8C302.2,177,311.4,184.2,323.6,185.1z"/>
	<path d="M392.4,341.9c-20.2,0.5-32.9-9.9-40.8-27.3c-10.3-22.6-6.5-46.4,9.8-61.9c12.7-12.1,27.9-18.3,45.7-16.8
		c3.8,0.3,7.7,0.5,11.4,1.1c9.6,1.6,16.6,6.9,21.7,15c6.5,10.1,7.9,21.3,7.4,33.1c-0.9,24.5-17.5,47.2-40.8,54.7
		C402.3,341.2,397.2,341.2,392.4,341.9z M441.2,281.3c0-3.1,0.2-6.1,0-9.2c-1.1-15.1-11.8-27.5-26.2-29.7c-14.9-2.3-29.2-0.4-42,8.7
		c-9.2,6.5-16.4,14.7-19.3,25.7c-5.7,21.9,3.4,44.1,23.6,56.4c1.8,1.1,4,2,6.1,2.2c12,1.4,23.3-0.4,33.6-7.3
		C433.7,317,441.8,301.3,441.2,281.3z"/>
	<path d="M98.1,102.4c-0.2,5-0.8,9.7-5.9,12.2c-3.5,1.8-7,1.8-10.1-0.7c-3.8-3-6.1-7-5.4-12c0.3-2.1,1.2-4.2,2.2-6.1
		c2.7-5.2,5.6-6.9,9.6-6c5.6,1.3,9.3,5.3,9.6,10.6C98.1,101.1,98.1,101.8,98.1,102.4z"/>
	<path d="M113.2,112c0-0.4,0-0.9,0-1.3c0.1-7.2,3-11,8.7-11.4c5.9-0.4,11.6,4.7,12.3,10.9c0.8,6.9-4.7,13.6-11.6,14.1
		c-4.7,0.4-8.1-2.2-8.9-6.8c-0.3-1.8-0.4-3.7-0.6-5.5C113.1,112,113.1,112,113.2,112z"/>
	<path class="st0" d="M262.8,120.2c0.4,5.3-0.7,10.4-4.1,14.5c-1.7,2.1-4.1,4.1-6.6,4.8c-16.4,4.6-28.3-4.1-31.9-17.8
		c-1.5-5.8,0.4-11.2,4.6-15.3c5.2-5,11.5-7.9,18.8-8.4c9.4-0.5,17.9,6.9,18.9,16.3C262.6,116.3,262.7,118.3,262.8,120.2z
		 M244.1,114.5c0-4.9-2.1-8.5-5.8-9.7c-4.9-1.4-9.3-0.6-12.9,3.3c-3.5,3.9-5,8.4-2.8,13.3c0.8,1.8,2.6,3.6,4.4,4.4
		C235.3,129.4,244,123.4,244.1,114.5z"/>
	<path class="st0" d="M323.6,185.1c-12.2-0.9-21.4-8.1-23.8-19.5c-0.5-2.5-0.5-5.3,0-7.8c1.5-7.3,4.7-14,10.3-19
		c1.9-1.8,4.9-3.2,7.5-3.4c13.3-1.1,22.7,5.1,27.7,18.4c3.8,10.1-3.1,25.6-13,29.8C329.6,184.7,326.5,184.6,323.6,185.1z
		 M313.3,146.6c-0.1-0.3-0.2-0.5-0.3-0.8c-2.5,1-5.7,1.4-7.3,3.3c-3.6,4-3.2,11.3,0.2,15.6c1.9,2.4,4.5,3.6,7.5,3
		c4.4-0.8,8.1-2.9,10.6-6.6c4-5.8,0.5-13.3-6.4-14.2C316.2,146.7,314.7,146.6,313.3,146.6z"/>
	<path class="st0" d="M441.2,281.3c0.6,20-7.5,35.7-24.2,46.9c-10.2,6.8-21.6,8.6-33.6,7.3c-2.1-0.2-4.3-1.1-6.1-2.2
		c-20.2-12.3-29.3-34.5-23.6-56.4c2.9-11,10.1-19.2,19.3-25.7c12.7-9.1,27-11,42-8.7c14.4,2.2,25,14.6,26.2,29.7
		C441.4,275.1,441.2,278.2,441.2,281.3z"/>
	<path d="M244.1,114.5c0,8.9-8.7,14.9-17,11.3c-1.8-0.8-3.6-2.6-4.4-4.4c-2.2-4.9-0.8-9.4,2.8-13.3c3.6-3.9,8-4.8,12.9-3.3
		C242,105.9,244.1,109.6,244.1,114.5z"/>
	<path d="M313.3,146.6c1.4,0.1,2.8,0.1,4.3,0.3c6.9,0.8,10.4,8.4,6.4,14.2c-2.5,3.7-6.2,5.8-10.6,6.6c-3.1,0.5-5.6-0.6-7.5-3
		c-3.4-4.3-3.8-11.6-0.2-15.6c1.6-1.8,4.8-2.2,7.3-3.3C313.1,146,313.2,146.3,313.3,146.6z"/>
</g>
</svg>
