<?xml version="1.0" encoding="utf-8"?>
<!-- Generator: Adobe Illustrator 26.0.0, SVG Export Plug-In . SVG Version: 6.00 Build 0)  -->
<svg version="1.1" id="Capa_1" xmlns="http://www.w3.org/2000/svg" xmlns:xlink="http://www.w3.org/1999/xlink" x="0px" y="0px"
	 viewBox="0 0 595.3 825.5" style="enable-background:new 0 0 595.3 825.5;" xml:space="preserve">
<style type="text/css">
	.st0{fill:#FFFFFF;}
</style>
<g>
	<path d="M209.5,501.1c12.5,72.4,20.6,145.2,27.8,218.3c2.5,27.8,8.9,60.1-15.8,80C186.2,832.6,85.4,838.7,79,775.9
		C67.8,689,64.3,601.6,64.3,514.1c-0.1-19.3,0.9-38.7,5.2-57.7c6.5-22.7,13.6-45.4,10-69.2c-1.6-6.9,1-16.1-3.5-21.8
		c-10-5.2-15.9-13.8-19.5-24c-6.3-17.9-4.8-35.6,2.3-52.9c1.8-5.5,6.6-11.1,5.2-17C44.6,215.8-33.3,74.3,16,26.3
		c25.7-22,63.5-34.8,95.6-19.8c8.3,4.9,12.5,12.3,12.1,21.8c-0.7,18-1.9,35.9-2.5,53.9c-0.8,22.1-1.2,44.1,2.7,66.1
		c11.4-31.7,4.6-62.6,30.3-90.5c19.4-23.7,62.6-43.2,86.9-16.1c30.4,1,62.1-2.1,92,9.3c38.1-23.8,75.6-24.2,115.6-2.7
		c70.7,27,78.3,239-13.9,228.1c22.7,48.9,74.7,74.6,107.1,116.5c15.3,17,29.7,34.7,44.3,52.3c5.8,7.8,13.7,18.7,5.1,27.3
		c-11.2,13.9-83.3,80.3-97.9,60.7c-28-37.3-51.2-77.7-76.3-116.9c-3.1,10-14.4,18.2-8,28.8c18.9,42.1,38,84.1,55.7,126.7
		c20.9,51.9,34.7,106.5,49.9,160.3c22,67.5-41.7,96.9-99.3,93.4c-35.9,1.5-59-31.6-65.8-63.6C335.7,703.8,320.7,646,305,588.5
		c-7.5-21.8-19.3-72.2-38.8-83.3C247,507,228.3,504.7,209.5,501.1z"/>
	<path class="st0" d="M135.1,205.6c21,24.8,47.1,43.9,79.2,51.4c2.5,0.6,3.6,1.5,3.7,4.2c2.1,9.5-1.9,26.3,11.1,28.1
		c13.1,1.8,26.4,1.3,39.5,0.6c14.8,0.5,12.7-15.1,14.5-25.5c0.2-2.6,1.3-3,3.6-3.2c34.9-1.3,68.5-11.6,97.4-31.4
		c6.4,13.2,20,19.7,28.3,30.5c6.6,49.8-2.1,100.8-10.9,150c-0.8,7.1-5.8,14.3-4.6,21.5c37.9,80.7,74.9,162.3,98.1,248.6
		c10.2,44.4,40.6,98.4-12.7,126.6c-23,12.4-49.9,13.9-75.4,11.8c-31.1-3.9-46.2-35.4-52.1-62.9C330.4,671.7,319.4,581.7,277,504
		c19.4-3.5,36.4-12.9,52.5-24.2c-27.3,16.2-57.9,22.1-89.4,19.6c-38.8,0.1-69.9-22.8-96.8-48.5c-0.2,0.2-0.5,0.5-0.7,0.7
		c65,73.6,56,2.7,70.7,110c8.6,66.3,15.9,132.7,20.9,199.4c0.1,27.5-27.1,47-51.7,52.3c-37.7,9.9-97.9,6.2-98.3-44.7
		C74.5,688.8,70,608.7,70,528.5c-0.8-32.9,2-65.9,12.7-97.2c6.8-22.2,1.8-45.2,1-67.7c4.5-6.5,3-13.8,1.9-20.5
		c-2.7-16.8-6.3-33.5-9.4-50.2C91.2,262.4,116.3,234.7,135.1,205.6z M366.1,626.7c-0.4,0.3-0.7,0.6-1.1,1
		c7.1,12.8,20.1,26.7,36.2,25.2c16.2-1.5,30-16,30.9-32.3c2.5-31.1-36.4-45.5-57.2-25.6c-10.2,9.4-5.9,25.5,3.4,33.9
		c16.3,16.5,40.3-13.5,19.1-23.8c-7-0.9,6.8,10.9-1.9,15.5c-16.8,7.8-20.9-20.1-5-23.5c14.4-4.5,34.7,6.8,32.7,23.3
		c-1.5,10.6-7.3,18.4-16.9,22.8C389.7,651.1,378.5,634.5,366.1,626.7z M108.5,636.2c-0.7,40.9,52,47.6,61.1,8
		c3.5-14.5-3.5-25.2-18.1-28c-27.6-6.8-24.9,41-1.1,28.7c-4.9-3.3-13.2-6-9.3-13.2c7.3-13.6,23.6,1.4,18.8,12.4
		c-4.5,15.3-27.5,23.7-37.6,9.1c-11.2-15.3-5-41.2,16.1-42.5c5.6-1.2,12,0.3,17-2.9C134.3,596.6,107.2,610.9,108.5,636.2z"/>
	<path class="st0" d="M136.1,123.6c-0.7-38,24.2-74.6,58.4-86c15.2-5.6,37.1-4.4,44.5,12.8c27.1-5.3,55.8-3.2,82.6,3.3
		c13.3,3.5,24.9,9.8,34.5,19.7c1.5,1.2,1.2,2.2,3.8,1.8c-7.1-6.8-13.6-12.9-20.4-19.3C376.7,26,434.1,37.2,466.3,69
		c37.9,48.2,44.7,143.5,2.8,191.1c-10.7,13-31.2,14.8-44.4,4.3c-13.4-11.6-27.9-21.8-37.6-37c22.6-19.1,42.3-50,25.8-79.1
		c24,73.3-71.1,106.9-128.6,108.3c0.6-24.3,21.9-50.1,2.4-71.9c5.8,13.2,8,28.2,2.2,41.6c-7.2,18-6.8,37.4-10.8,56.1
		c-18.6-1-37.7-6.6-55.8-0.7c-1.7-33.7-16.2-68.3-1.7-100.8c-15.8,20.3-7.9,47.3-4.3,70.5c-39.6-8.3-89.4-36-90-81.7
		c5.4-56,49-100.9,101.2-118C188.5,62.3,156.3,88.6,136.1,123.6z M209.8,142.1c0.4-0.1,0.9-0.1,1.3-0.2c4.3-17.4,29-24.7,37.3-6.2
		C257.3,100.6,197.4,112.3,209.8,142.1z M318.7,143.6c0.3,0,0.7,0.1,1,0.1c10.7-32.3-51.1-41.8-40.6-3.8
		C286.1,115.4,312,123.7,318.7,143.6z"/>
	<path class="st0" d="M68.8,265.3c-19.1-51.5-98.6-198-44.1-238.6C43.9,8.6,118-11,117.8,30.8c-1.2,40.4-7,81.1,0.8,121.2
		c4.5,11.8,5,24.1,8.5,36.2c0.7,2.3,0.4,3.6-1.3,5.2C103.2,214.4,83.4,237.8,68.8,265.3z"/>
	<path class="st0" d="M432.9,286c9.5,20.8,26.5,35.5,43.2,50.3c19.4,18.7,39.2,37,57.7,56.6c8.4,11.6,63.7,64.7,53.9,74.5
		c-22.2,26.3-50.7,47.7-81.4,62.9c-5.1,2-6,1.8-9.3-2.5c-4.2-5.4-8.4-10.8-12.1-16.5C382.4,351.9,435.2,453.9,432.9,286z"/>
	<path class="st0" d="M416.5,261.3c3.6,3,10.5,4.3,11.7,9.4c3,18.6,2.5,37.4,1.7,56.2c-2.2,37.5-6.8,77.8-29.2,109.1
		c-1.5-2.7-2.3-5-1.3-8C414.3,374.3,420.5,316.8,416.5,261.3z"/>
	<path class="st0" d="M129,193.7c2,3.4,3.6,6.2,5,8.6c-19.9,27.9-39.7,55.6-59.7,83.7C60.6,258.6,111.6,213.5,129,193.7z"/>
	<path class="st0" d="M68.4,280c7.4,25,14.6,50.8,16.5,76.8c-0.5,4.5-2.8,5.5-6.4,2.7c-25.8-18.2-22.9-53.7-11.5-79.4
		C67.5,280,68,280,68.4,280z"/>
	<path class="st0" d="M372.2,634.3c10.2,9.3,23.6,18.1,37.1,9.8c10.6-6.2,16.9-15.5,15.9-28.4c-1.1-16.6-26.4-28.5-41-18.2
		c-6,4.3-8.1,13.7-4.7,20.3c5.8,11.9,26.5,5.6,20-8.1c14.6,14.5-16.9,37.5-27.4,4.5c-6.5-32.8,49.3-34.5,56.2-5.7
		c9.8,36.5-34.8,57.4-56.6,26.4C371.9,634.8,372,634.6,372.2,634.3z"/>
	<path class="st0" d="M145.2,644.7c-18-0.4-13.6-31.4,4.7-26.6c24.1,2.6,21.6,31.1,6.7,43.6c-47.8,34-68.3-64.6-10.1-54.4
		c-29.2-1-42,27.9-24.1,49.6c12.9,14.9,43.8,0,40-20.5C156.8,611.2,122.9,630.5,145.2,644.7z"/>
</g>
</svg>
