<?xml version="1.0" encoding="utf-8"?>
<!-- Generator: Adobe Illustrator 26.0.0, SVG Export Plug-In . SVG Version: 6.00 Build 0)  -->
<svg version="1.1" id="Capa_1" xmlns="http://www.w3.org/2000/svg" xmlns:xlink="http://www.w3.org/1999/xlink" x="0px" y="0px"
	 viewBox="0 0 595.3 777.7" style="enable-background:new 0 0 595.3 777.7;" xml:space="preserve">
<style type="text/css">
	.st0{fill:#FFFFFF;}
</style>
<g>
	<path d="M120.9,146.7c-34.2-34.8-25.5-61.1,16-83.3c1-0.4,2.3-1.9,2.3-2.8c-0.5-19.9,10.9-32.6,26.1-42.9
		C209-14.7,314.2-4.4,309.9,65c-0.2,1.9,0.5,2.7,2,3.4c13.8,6.7,25.3,17.3,32.6,30.8c11.2,20.1-1.5,44.5-20.1,54.6
		c-1.9,1-2.3,2.2-2.2,4.1c0.6,4.7-0.2,9.7,1,14.2c21.3,44.6,19,101.2-9.3,142.3c-2.6,4.9-3.1,9.3,3.6,10.1
		c93,22.1,67.5,81.9-1.3,116.7c-2.5,1.3-3.3,2.7-3.1,5.6c1.8,21.2,3.2,42.4,4.9,63.6c1.1,13.7,9.1,22.4,21,28.1
		c33.4,13,61,36.7,75.6,69.6c5,12.3,9.8,35.9-11,33.8c0,12.9,0,25.8,0,38.9c30.3-2,61.4-4,92.9-6.1c-25.5-52.9-53.4-141.8-7.5-190.1
		c14.2-13.6,41.3-13.5,50.7,5.4c26.2,71.7,30.6,150.5,48,224.9c2.4,12.5,4.8,25.1,7,37.6c2.2,12-6.2,25.3-24.7,22.6
		c-22.4-2.9-33.7-23.1-43.6-41c-1.7-2.8-4.1-3.9-7.6-3.8c-44.6,0.8-89.2,1.6-133.8,2c-20.4-0.2-26.6,26.1-67,32.5
		c-40.4,8.7-80.5,1.8-114.7-21.7c-3.6-3.7-7.8-4.2-12.7-4c-33.2,1.2-66.4,2-99.6,3.1c-30.3,0.2-23.4,29.6-46.3,33.9
		c-18.4,4.2-51.5,2.1-43.8-24.6c1.9-8.5,4.8-16.7,6.5-25.3c4-19.4,7.3-39,11.3-58.4c12.1-43.1,22-139.4,50.4-168.4
		c12.2-11,26.4-12.2,40.3-3.4c54.1,39.2,19.5,145.5-7.3,193.8c20.8-0.7,41.1-1.4,60.7-2c-10.1-59.3,9.9-60.7,23.1-108.9
		c0.9-15.2-5.1-29-9.2-43.3c-7.7-26.6-14.9-53.4-22.1-80.1c-0.7-2.5-1.8-3.8-4.3-4.7c-26-9.6-49.6-23.3-69.2-43.1
		c-16.6-15.7-26.6-46-6.6-63.1c14.4-12.3,32.6-17.7,50.6-22.1c1.8-0.4,2.7-1.1,2.4-3c0.9-6.5-0.6-11.8-4.8-17.2
		c-9.6-12.8-14.1-27.9-17.1-43.3C97.9,220.8,102.3,181,120.9,146.7z"/>
	<path class="st0" d="M383.2,601.9c16.2,24.1,19,54.7,12.1,82.4c-0.4,2.3-2,3.6-4,4.8c-14,8.8-25.7,23.8-23.2,41.1
		c-41.4,44.2-118.9,41-164.6,4.4c4.7-0.1,9.5-0.9,14.2-0.9c4.3,0.4,5.6-2,6.3-5.6c2.4-12.9-3.1-22.4-12.8-30
		c-10.4-9.8-24.4-7.2-37.5-7.6c-11.8-9.6-7.9-51.7-0.4-65.2c7-18.7,22.1-35.5,18.3-56.4c-7.4-40.4-23.2-79.2-31.9-119.5
		c50.1,17.2,98.7,11.6,147-8.2c2.7,22.4,3.8,44.6,5.2,67.1c1,17.2,10.1,28.6,25.3,35.7c35.3,14.3,71.9,44.3,75.8,84.4
		c0.6,10.7-10.9,8.7-13.4,1.5c-2.9-10.8-9.1-19.7-16-28.3C383.5,601.6,383.4,601.8,383.2,601.9z M316.5,531.9
		c-27.7,29.8-68.9,44.7-109.2,41.2C259.1,584.5,296.8,562.6,316.5,531.9z"/>
	<path class="st0" d="M220.1,455.9C171,458.5,75,425.8,69.6,369.2c0.6-66.6,253.1-57.7,288.9-20.7c26,17.4,10.2,47.5-9.2,63
		C314,443.3,266.7,455.6,220.1,455.9z"/>
	<path class="st0" d="M92.4,695.8c36.1,0.6,72.8-4.7,108.5-1.3c12.7,5.6,25.7,18.4,20.8,33.4c-0.9,5.9-30.1,3.8-36.6,5.3
		c-31.5,1.2-62.9,2-94.4,3c-34,0.9-27,29.2-47.6,34.1c-11.9,1.8-37.4,4.9-36.7-12.8c11.9-51.4,20.8-103.7,33-155.1
		c9.1-30.5,11.1-64.7,28-92.1c23.4-33.8,60.8-0.3,62.4,30.7C137.5,595.3,118.4,648.9,92.4,695.8z"/>
	<path class="st0" d="M505.6,680c-20.2-41.9-36.8-85.9-34.2-133.2c0.8-24.7,8.4-57.9,35.7-65.3c27.4-7.1,34.6,24.8,38.8,44.9
		c12.6,77.7,32.5,154.8,42.8,232.5c-1.6,8.2-9.6,11.9-19.4,9.8c-16.8-3.1-25.7-17.8-33.8-31.4c-3.7-6.8-7.6-13.8-16.7-13.2
		c-47.7,1-95.5,1.6-143.2,2.3c-8.5,0.9-3.7-9.3-2.2-13.7c5.5-11.6,14.8-24.9,28.8-26C436.6,684.7,471.4,682.2,505.6,680z"/>
	<path class="st0" d="M223.8,200.4c-1.2,27.5-3.5,51.6-11.9,74.6c-12.3,41.7-70.4,58.1-89.5,12.3c-20.9-45.8-21.9-108.1,12.7-147.4
		c22.4-20.4,61-18.8,77.4,8.2C222.2,162.3,221.9,185.6,223.8,200.4z M211.3,230.4c-6.8-79.3-47.1-20.9-36.5,24.1
		C187,307.8,213.5,259,211.3,230.4z"/>
	<path class="st0" d="M230,228.7c0.6-27.3,9.7-67.6,42.5-72.9c24.1-3.6,42.2,7.4,49.7,28.5c17,37.8,12.2,149.9-50.7,131
		C235.9,302.9,231.8,261.8,230,228.7z M272.1,249.4c-2.1-11.7-4.9-49.1-23.9-36.7c-13,17.8-11,44.2-1.9,63.4
		C261.7,300.9,272.8,263.3,272.1,249.4z"/>
	<path class="st0" d="M269,319.4c-45.3-3.9-90.2-1.4-135.3,5.8c0-5.4,0-9.7,0-15c43.1,29.5,82.3-13.5,87.2-56.6
		c13.7-59,5.8-164.1-81-123.2c19.9-44.8,79.7-43.9,121.1-36.3c34.3,5.6,55.4,38.8,55.6,72.1c-34.5-36.5-84.6-7.2-87.5,43.1
		C225.6,247.6,227.6,302.8,269,319.4z"/>
	<path class="st0" d="M127.1,143.1c-73.4-65.9,59.3-94,108.2-89.5c38.4,2.6,96.6,16.1,107.1,58.8c0.6,16.7-10,31.7-25.5,38.2
		c-12.4-66.9-87.7-72.8-141.5-56C146.9,105.1,145,123.2,127.1,143.1z"/>
	<path class="st0" d="M303.8,65c-50.3-21.4-107.1-19.5-158.6-3.5C146.7-12.3,311.2-13.9,303.8,65z"/>
	<path class="st0" d="M306.5,317c-0.1,2.8-0.3,5.8-0.5,9.3c-5.3-1.1-10.4-2.1-15.5-3.2C295.9,321,301,319.1,306.5,317z"/>
</g>
</svg>
