<?xml version="1.0" encoding="utf-8"?>
<!-- Generator: Adobe Illustrator 26.0.0, SVG Export Plug-In . SVG Version: 6.00 Build 0)  -->
<svg version="1.1" id="Capa_1" xmlns="http://www.w3.org/2000/svg" xmlns:xlink="http://www.w3.org/1999/xlink" x="0px" y="0px"
	 viewBox="0 0 595.3 755.9" style="enable-background:new 0 0 595.3 755.9;" xml:space="preserve">
<style type="text/css">
	.st0{fill:#FFFFFF;}
</style>
<g>
	<path d="M215.7,243.2c0.6-4.7,1.3-9,1.7-13.2c0.1-1.1-0.3-2.2-0.8-3.3c-4.7-10.6-7.4-21.7-8.2-33.2c-0.7-11.5,0.5-22.9,3.6-34
		c3.7-13.5,9.1-26.2,17-37.7c5.1-7.4,11.2-13.9,18.4-19.3c1-0.8,1.9-1.9,2.5-3.1c1.3-2.4,2.4-4.9,3.9-8.1c-0.8-0.6-1.9-1.1-2.7-1.9
		c-4.1-4.2-7.4-8.9-9.6-14.3c-3.2-8.1-2.1-15.6,3-22.6c5.1-7,12.1-11.2,20.2-13.8c3.5-1.1,7.1-1.9,10.7-2.8c0.2-2.4,0.4-4.9,0.8-7.4
		c0.9-7.2,4.1-13,10.3-17.2c8.7-5.9,18.3-9.4,28.7-10.5C331.8-1,347.9,0.4,363.3,6c11.3,4.1,21,10.6,28.7,19.9
		c5.7,6.9,8.7,14.8,8.1,23.8c-0.3,4.7-1.6,9.1-3.9,13.2c-0.5,1-1.1,2-1.9,3.3c0.9,0.7,1.7,1.4,2.6,2.1c5.3,4,10.2,8.4,14.2,13.8
		c3.1,4.2,5.3,8.9,6,14.1c1.3,9.4-1.9,17.2-8.7,23.5c-3.1,2.9-6.8,5.2-10.4,7.8c0.1,0.1,0.3,0.4,0.6,0.7c11.7,9,18.3,21.1,21.7,35.2
		c2.4,9.9,2.3,19.7,0.6,29.7c-2.4,14.5-6,28.6-12.1,41.9c-5.3,11.5-12.2,21.8-21.4,30.5c-8.7,8.1-18.8,13.7-30.1,17.1
		c-0.9,0.3-1.8,0.5-3.3,1c1.5,0.9,2.6,1.6,3.8,2.2c12.6,7,24.8,14.7,36.2,23.5c5.3,4.1,10.4,8.6,14.7,13.8
		c4.6,5.6,8.1,11.7,8.9,19.1c1,9.1-1.4,17.1-7.7,23.7c-4.3,4.6-9.4,8-15,10.8c-14.3,7.1-29.4,11.9-45.4,13.2
		c-1.3,0.1-2.5,0.2-3.7,0.5c-0.5,0.1-0.9,0.7-1.1,1.2c-0.1,0.3,0.4,0.8,0.8,1.1c0.4,0.3,1,0.3,1.5,0.5c12.6,4.1,21.9,12.2,28.5,23.5
		c5.6,9.5,8.6,19.8,10.3,30.6c0.4,2.6,0.8,5.2,0.9,7.8c0.1,1.8,0.9,2.8,2.5,3.6c7.4,3.7,14.2,8.1,20.5,13.4
		c7.7,6.5,13.9,14.3,19.1,22.9c3.3,5.4,5.1,11.3,4.3,17.7c-0.1,1-0.3,2.1-0.6,3.1c-2.6,7.6-6.2,14.7-11.8,20.6
		c-4.4,4.7-9.9,7.3-16.4,7.9c-0.4,0-0.8,0.1-1.2,0.2c-0.1,0-0.2,0.1-0.6,0.3c0,0.9-0.1,1.9-0.1,2.9c-0.1,8.1-2.1,15.8-5.9,22.9
		c-4,7.5-8.8,14.3-14.7,20.4c-1.4,1.4-2.2,3-2.8,4.8c-6.6,17.8-13.3,35.6-20,53.4c-1.5,3.9-3.1,7.8-4.5,11.8
		c-0.5,1.3-0.7,2.8-1.1,4.2c2.3,0.8,4.3,0.5,6.2,0c23-5.6,46.4-6.2,69.8-5.2c16.5,0.7,32.8,3.5,48.2,9.9c3.3,1.4,6.5,3,9.6,4.7
		c8,4.6,13.9,11.1,17.7,19.5c2.1,4.8,4.3,9.6,5.2,14.8c2.1,12-3,21.4-14.3,26c-5.6,2.3-11.6,3.1-17.5,3.6c-12.5,1.1-25,0.4-37.5-0.3
		c-13.7-0.8-27.5-1.3-41.2-2.2c-10.9-0.7-21.8-1.6-32.6-2.8c-11.1-1.3-22-3.1-33.1-4.7c-2-0.3-3.7,0.1-5.5,0.8
		c-21.7,8.4-43.7,15.4-66.4,20.8c-18.6,4.4-37.4,6.6-56.6,5.4c-8.6-0.5-17.1-1.9-25.4-4.5c-6.9-2.2-11.4-6.9-13.9-13.6
		c-2.7-7.1-2.5-14.4-1.2-21.7c2.2-11.8,7.9-21.4,18.6-27.5c3.8-2.2,7.7-4.3,11.7-6.1c11.7-5.2,24-8.4,36.5-10.7
		c14.7-2.7,29.6-3.9,44.5-3.3c1.6,0.1,3.1,0.2,4.7,0.3c2.2,0.2,3.1-0.3,3.7-2.5c0.4-1.4,0.6-2.9,0.7-4.3c0.4-6-0.9-11.9-2-17.8
		c-2.6-14-5.4-28-8-42.1c-0.3-1.6-0.9-2.7-2.1-3.7c-7-6-12.6-13.2-16.8-21.4c-0.6-1.2-1.7-2.4-2.8-3.3c-8.9-7.4-15.6-16.4-19.7-27.3
		c-3-7.8-2.3-15.3,1.9-22.4c1.1-1.9,2.3-3.8,3.7-5.5c1.2-1.4,1.2-2.6,0.6-4.3c-2.3-6.1-3.9-12.4-4.7-18.9
		c-1.1-9.5,0.4-18.6,2.9-27.7c0.9-3.1,2-6.2,2.9-9.3c0.3-1.1,0.4-2.3,0.2-3.3c-7.1-30.5-14.1-60.9-23-91c-0.9-3.2-1.5-6.7-3.3-9.5
		c-1.7-2.6-4.6-4.5-7.1-6.6c-12.8-11.1-23.8-23.7-32.5-38.3c-6-10-8.9-20.8-8.3-32.5c0.5-11.1,4.4-20.3,14.5-25.9
		c3-1.7,6.2-3,9.5-4.1c6.5-2.2,13.3-3,20.1-3.3C213,243.4,214.4,243.3,215.7,243.2z"/>
	<path d="M68,126.6c0.3-2.7,0.5-4.8,0.8-7c2-14,10.8-25.8,28.8-29.9c17.7-4,32.6,1.3,44.9,14.2c9.7,10,15.1,22.3,18.5,35.7
		c3.9,15.6,2.2,30.9-2.8,45.9c-5.6,17-14.2,32.5-24.7,46.9c-2.9,3.9-5.5,7.9-7.2,12.5c-0.4,1.1-1,1.7-2.1,2c-2.3,0.7-4.5,0.9-7,0.3
		c-7.6-1.7-15.2-3-22.9-4.4c-10.9-2.1-21.8-4.2-32.8-6.3c-31.6-10.3-52.6-31-60.1-63.7c-4.4-19.4,1.2-36.2,17.3-48.8
		c4.8-3.7,10.2-6.2,16.2-7.3c6.6-1.3,13-0.3,19.1,2.3c4,1.7,7.8,4.1,11.7,6.2C66.4,125.6,67,126,68,126.6z"/>
	<path d="M536.5,345.5c0.2-0.4,0.3-0.9,0.5-1.2c6.1-8.1,14.5-11.1,24.3-10.9c7.2,0.2,13.9,2.1,19.8,6.3c7.5,5.3,11.5,12.9,13.2,21.8
		c1.9,10.2,0.6,20.1-2.2,29.9c-4.5,15.6-14.2,27.2-28,35.5c-12,7.2-25,11.9-38.7,14.6c-4.6,0.9-9.3,1.9-13.9,3
		c-2.1,0.5-4.2,1.2-6.3,1.9c-4.5,1.5-6.9,0.5-9.6-3.4c-3.5-5.1-7.2-10.1-11-15c-5.7-7.3-11.4-14.6-15.5-22.9
		c-5.6-11.4-9.2-23.3-9.5-36c-0.4-14.8,3.8-28.2,13.1-39.9c6.7-8.4,15.8-12.7,26.4-13.6c4.5-0.4,9.1-0.4,13.5,0.2
		c6.9,0.9,12.3,4.6,16.3,10.3c3.3,4.7,5.2,10,6,15.7c0.2,1.1,0.4,2.2,0.6,3.2C536,345.2,536.2,345.3,536.5,345.5z"/>
	<path class="st0" d="M334.6,386.1c-26.9-0.5-52.9-5.3-77.6-15.8c-31.9-13.5-57.3-34.8-75.3-64.5c-5.3-8.7-8-18.3-7.3-28.6
		c0.2-3.1,0.7-6.3,1.5-9.3c1.2-4.5,4.2-7.7,7.9-10.3c5.4-3.7,11.5-5.5,17.9-6.5c11.4-1.9,22.8-1.6,34.2-0.3
		c20.1,2.4,39.4,8.2,58.7,14.1c21.7,6.8,42.8,15.1,62.8,26c13.4,7.3,26.5,15,38.5,24.6c5.1,4.1,9.9,8.5,13.6,13.9
		c2.4,3.5,4.3,7.2,5.2,11.4c1.8,8.6-0.5,16-6.5,22.3c-4.2,4.5-9.4,7.8-14.9,10.4c-15.3,7.1-31.3,11.4-48.3,12
		C341.5,385.7,338,385.9,334.6,386.1z"/>
	<path class="st0" d="M362.5,528.6c-12.9,22.4-40.9,30.2-61.1,28.5c0.2-2,0.5-4.1,0.7-6.1c0.6-5.8,0.2-11.5-1.6-17.1
		c-0.5-1.7-1.3-3.4-2.2-4.9c-2.6-4.3-6.5-6.4-11.4-5.4c-6.8,1.4-13.5,3-20.2,4.8c-4.2,1.1-8.2,2.5-12.3,3.8
		c-0.6,0.2-1.2,0.3-1.7,0.4c-0.3-0.2-0.5-0.3-0.6-0.5c-7.2-13.3-12.1-27.2-12-42.6c0.1-8.2,2.1-16,4.7-23.7
		c6-17.8,15.2-33.6,29.1-46.5c12.8-11.9,27.8-18.9,45.1-21.3c8.2-1.1,16.3-1.2,24.4,1c13.5,3.7,22.8,12.6,29.2,24.7
		c5,9.4,7.7,19.5,9.4,29.9c1.8,11.6,1.9,23.2,0.7,34.9c-0.3,2.4-1.1,4.1-3.2,5.4c-6.2,3.8-12.2,7.9-18.5,11.5
		c-7.9,4.5-8.7,10.8-3.4,17.8C359,525,360.7,526.6,362.5,528.6z"/>
	<path class="st0" d="M212.9,189.8c0.2-17.6,5-34,12.3-49.8c4.8-10.3,11-19.6,19.2-27.5c8.2-7.9,17.7-13.4,29-15.6
		c22.4-4.4,49.9,7.1,59.4,32.1c1,2.6,1.2,4.9,0.5,7.6c-5.3,19.4-10.3,39-15.7,58.4c-3.3,12-7.3,23.9-13.2,35
		c-5.3,9.9-12.9,17.5-23.1,22.5c-2,1-3.8,1.2-6,0.5c-10.9-3.2-21.9-6.1-33.1-7.8c-3.6-0.6-7.3-1-10.9-1.3c-1.5-0.1-2.5-0.8-3.2-2.1
		c-7.4-12-12-24.9-13.9-38.9C213.5,198.6,213.3,194.2,212.9,189.8z M313.2,152.9c-0.3-0.1-0.6-0.1-0.9-0.2c-0.8,1.1-1.9,2.2-2.5,3.5
		c-1.9,3.9-3.7,7.8-5.4,11.7c-3.4,7.8-7.5,15-13.4,21.2c-6.3,6.6-13.9,8.6-22.7,6.9c-4.5-0.9-8.3-2.8-11.5-6.1
		c-1.7-1.8-3.5-3.7-4.8-5.8c-3.1-5-6-10.1-9-15.1c-0.6-1.1-1.1-2.3-2-3.2c-0.6-0.7-1.7-1.3-2.6-1.3c-0.6,0-1.2,1.3-1.5,2.2
		c-0.7,2.7-0.4,5.4,0.3,8.1c3,11,8.3,20.8,16,29.3c1.3,1.4,2.7,2.6,4.2,3.8c4.8,3.9,10.3,4.9,16.3,3.9c8.4-1.4,15.4-5.3,21.6-11
		c13.1-12.3,17.7-28.1,18.3-45.4C313.7,154.4,313.3,153.7,313.2,152.9z"/>
	<path class="st0" d="M375.9,597.3c-2.5,6.4-4.6,12.3-7,18.2c-5.7,14.2-11.4,28.5-17.1,42.7c-0.7,1.7-1.4,3.6-1.7,5.4
		c-0.6,3.3,1,5.4,4.4,5.5c2.5,0.1,5-0.2,7.5-0.8c20.6-4.5,41.4-5.2,62.4-4.3c10.6,0.4,21.2,1.6,31.5,4c9,2.1,17.8,5,26,9.3
		c9,4.8,15.5,11.7,19.2,21.3c1.6,4.2,3.5,8.3,3.8,12.9c0.7,8.9-3,15-11.3,18.2c-6,2.3-12.2,2.9-18.5,3.2c-11.4,0.5-22.7-0.1-34-0.8
		c-11.5-0.8-23.1-1.4-34.6-2.2c-11.4-0.9-22.8-1.7-34.2-3c-11.9-1.3-23.7-3-35.6-4.6c-2.5-0.3-2.5-0.4-2.7-2.6
		c-0.8-10.2-3.2-20.1-5.3-30c-2.1-9.4-4-18.9-5.9-28.4c-0.3-1.5,0-3.4,0.5-4.9c3.4-8.9,6.9-17.8,10.5-26.7c1.8-4.5,3.8-8.9,5.6-13.4
		c0.6-1.4,1.4-2.2,2.8-2.5c11.8-2.6,22.3-7.9,31.7-15.5c0.2-0.2,0.5-0.4,0.8-0.6C374.9,597.7,375.1,597.6,375.9,597.3z"/>
	<path class="st0" d="M327.4,722.8c-8.2,3-16.2,6-24.2,8.7c-17.9,6.1-36,11.5-54.6,15c-17.5,3.3-35.2,4.8-52.9,2.3
		c-3.9-0.6-7.8-1.6-11.7-2.4c-8-1.6-12.4-6.8-14-14.4c-2.2-10.8,0-20.9,5.6-30.2c2.3-3.8,5.8-6.6,9.5-9.1c8.6-5.8,18.2-9.6,28-12.6
		c20.7-6.3,42-9.4,63.7-8.9c6.1,0.1,12.1,0.9,18,2.7c1.3,0.4,2.6,0.5,4.3,0.8c-1.1-3-3.4-3.4-5.5-4c-2.1-0.6-4.2-1.1-6.5-1.7
		c3-7.6,2-15.2,1-22.8c-1.7-13.1-3.5-26.2-5.3-39.3c-0.1-0.4,0-0.8,0-1.4c4.6,2,9,4.2,13.5,5.8c4.5,1.6,9.3,2.6,14.4,4
		c0.5,3.3,1.1,6.9,1.7,10.5c4,24.8,7.3,49.6,12.3,74.2c1.3,6.5,1.8,13.1,2.6,19.7C327.5,720.4,327.4,721.4,327.4,722.8z"/>
	<path class="st0" d="M416.7,179.4c-0.1,7.8-1.6,15.6-3.3,23.4c-2.8,13.7-7.1,27-13.9,39.3c-7.3,13.2-17,24.2-30.1,32
		c-5.3,3.1-10.9,5.4-16.7,7.3c-1.4,0.4-2.5,0.3-3.9-0.3c-9.3-4.3-18.7-8.5-28.1-12.7c-1.9-0.8-3.1-2-4.2-3.6
		c-3.9-5.8-5.6-12.4-7.2-19c-1.4-6.1-0.9-11.3,2.5-17c6.5-10.9,9.9-23.1,13.2-35.3c4.9-18.4,8.6-37,10.9-55.9
		c0.4-3.2,1.7-5.4,4.1-7.3c7.5-5.9,15.9-8.9,25.4-8.5c19.9,0.7,34.6,9.7,43.9,27.4C414.2,158.5,416.5,168.6,416.7,179.4z
		 M347.1,170.1c-0.3-0.1-0.6-0.1-0.9-0.2c-0.7,1-1.7,1.8-2.2,2.9c-1.5,3-2.9,6.1-4.1,9.2c-3.1,8.1-5.4,16.3-5.2,25.1
		c0.4,17.4,15.8,30.3,32.9,27.2c16.7-3,28.2-13.6,37.5-27c0.5-0.8,0.8-1.7,1-2.6c0.3-1.4-0.4-2.1-1.7-1.6c-1.3,0.5-2.5,1.1-3.6,2
		c-2.3,1.9-4.6,4-6.8,6.1c-6.4,6.1-13.7,9.9-22.6,10.7c-12.3,1.1-23.4-6.5-24.4-20.2c-0.4-6.6-0.1-13.2,0.5-19.8
		c0.3-2.8,0.3-5.7,0.2-8.5C347.8,172.3,347.3,171.2,347.1,170.1z"/>
	<path class="st0" d="M261.6,578.6c16.5,4.2,30.7-2.4,38.9-17.8c4.3,0,8.7,0.2,13.1,0c15.7-0.8,30.2-5.2,42.5-15.3
		c3.6-3,6.6-6.7,9.9-10.1c0.7-0.7,1.3-1.6,2.1-2.6c9.7,6,19.9,10.4,31.4,12c-0.1,1.3-0.1,2.4-0.3,3.5c-0.9,8.1-3.9,15.4-8.3,22.2
		c-8.9,13.5-20.1,24.5-34.8,31.6c-12,5.8-24.7,7.9-37.9,7.1c-12.6-0.8-24.4-3.9-35.3-10.4c-7.6-4.5-14-10.4-19.4-17.3
		C263,580.6,262.5,579.8,261.6,578.6z"/>
	<path class="st0" d="M255.1,89.6c-5.2-6.1-9.4-12.2-10.6-19.8c-0.9-5.4,0.9-10.1,4.3-14.3c4.6-5.7,10.7-9.1,17.5-11.2
		c9-2.7,18.4-3.4,27.7-2.9c30.6,1.7,59.4,10.2,86.7,24c6.8,3.4,13.1,7.5,18.9,12.5c3.8,3.2,7.2,6.8,9.7,11.1
		c5.3,9.1,4.6,18.5-2.1,26.7c-3,3.7-6.7,6.7-10.8,9.1c-2.1,1.2-3.6,0.5-4-1.9c-0.8-5.3-1.8-10.5-3.7-15.6c-3.5-9.6-8.8-17.9-17.1-24
		c-2.6-1.9-5.4-3.7-8.3-5c-12-5.2-24.4-9.7-37.2-12.7c-15.5-3.6-30.8-2.9-46.1,1.4c-5.3,1.5-9.9,4.3-13.6,8.3
		c-3.3,3.5-6.1,7.4-9.2,11.2C256.6,87.2,256.1,88.2,255.1,89.6z"/>
	<path class="st0" d="M389.4,122.6c-9.3-3.8-18.6-5.6-28.3-4.4c-9.7,1.2-18,5.3-25.1,12.8c-5.2-17.2-15.9-29.1-32.3-35.7
		c-16.3-6.5-32.4-5.6-48.7,2.6c0.6-1.2,0.8-1.8,1.1-2.4c3.9-6,8.2-11.7,13.7-16.4c4.3-3.7,9.1-6.2,14.8-7.2c6-1,12-2.1,18.1-2.2
		c11-0.2,21.7,1.9,32.2,5.2c8.3,2.6,16.5,5.5,24.7,8.5c11.8,4.4,19.4,13.3,24.8,24.3C386.5,112.2,388.3,117,389.4,122.6z"/>
	<path class="st0" d="M278.9,35.3c1-7.9,2.7-15.1,10.2-19.6c8.6-5.1,17.8-8,27.7-8.8c15.1-1.2,29.8,0.4,44.1,5.3
		c9.9,3.4,18.6,8.8,25.8,16.4c6.3,6.5,9.7,14.1,9.1,23.3c-0.3,4.4-1.5,8.6-3.8,12.4C357,44.4,319.9,33.2,278.9,35.3z"/>
	<path class="st0" d="M389.1,476.8c-0.2,8.6-0.2,8.6-3.7,11.8c0.5-4.8,1.1-9.1,1.3-13.5c0.2-4.5,0-9,0-13.9c1,0.4,1.6,0.5,2.2,0.9
		c13.1,8.4,24.1,18.9,32.2,32.3c2.1,3.5,4.1,7.1,5,11.2c0.8,3.6,0.8,7.2-0.9,10.5c-2,4.1-4.2,8.3-6.7,12.1
		c-5.4,8.3-13.3,11-22.7,9.2c-10.5-2.1-20.3-6.3-28.9-12.7c-2.3-1.7-4.5-3.9-6.2-6.2c-2.7-3.6-2.2-5.9,1.4-8.5
		c4.7-3.4,9.5-6.6,14.1-10.1c3.2-2.4,6.1-5.2,9.1-7.8c0.4-0.3,0.7-0.8,1.1-1.1C390.9,486.9,391.1,482,389.1,476.8z"/>
	<path class="st0" d="M246.4,445.2c-8.4-29.2-16.2-58.6-25.8-87.6c30,21.1,63.8,30.3,99.7,33.2C285.5,395.1,262.3,415,246.4,445.2z"
		/>
	<path class="st0" d="M242.1,519.2c2.6,4.8,4.9,9.2,7.2,13.5c-5.6,1.7-8,0.7-9.1-3.8c-0.7,3.7,0.3,5.3,3.9,6c5.1,1,10,0.1,15-0.9
		c8.4-1.7,16.8-3.5,25.3-5c6.6-1.2,9,0.5,10.6,7.1c1.8,7.5,1.3,15-0.9,22.4c-0.5,1.6-1.4,3.1-2.5,4.3c-4.7,5.7-10.8,9.3-18.1,10.5
		c-4.2,0.7-8.2-0.1-11.8-2.5c-10.3-6.7-17.9-15.8-22.9-27c-2.6-5.8-2.6-11.6-0.1-17.4C239.6,524.1,240.8,521.9,242.1,519.2z"/>
	<path class="st0" d="M320.7,650.9c-2.2-11.7-4.5-23.4-6.7-35.3c6.4,0,12.4,0,18.7,0c-3.9,11.9-7.7,23.6-11.5,35.3
		C321,650.9,320.9,650.9,320.7,650.9z"/>
	<path class="st0" d="M302.5,242.6c2.1,8,4.6,15.1,9.2,22.1c-9.6-3.2-18.5-6.2-28.1-9.5C290.9,252.2,297,248.4,302.5,242.6z"/>
	<path class="st0" d="M226.1,243.5c-2.8-0.1-5-0.2-7.6-0.4c0.7-2.9,1.3-5.4,2-8.5C222.6,237.8,224.2,240.4,226.1,243.5z"/>
	<path class="st0" d="M338.9,390.6c0.6,0.1,1.2,0.2,1.8,0.3c-0.1,0.2-0.1,0.4-0.2,0.6c-0.6-0.2-1.1-0.4-1.7-0.6
		C338.9,390.9,338.9,390.8,338.9,390.6z"/>
	<path class="st0" d="M72.7,133.6c0.4-0.5,0.7-1,1.1-1.6c-0.2-0.4-0.3-0.8-0.5-0.9c-2.4-1.5-2.7-3.5-2.4-6.2
		c0.6-4.8,1.6-9.5,3.7-13.9c4.7-9.7,12.7-14.8,22.9-17c16.6-3.6,30.5,1.4,41.7,13.9c8.2,9,12.8,19.9,15.7,31.5
		c3.9,15.2,2.1,30-3,44.6c-5.4,15.6-13.4,29.8-22.9,43.3c-3.1,4.3-5.9,8.9-8.9,13.3c-9.3-1.6-18.8-3.3-28.3-5
		c-8.6-1.5-17.3-2.5-25.7-4.8c-30.4-8.2-50.6-27.3-59.2-57.8c-4.1-14.6-1.5-28.1,8.5-39.9c5.7-6.7,12.8-11.4,21.7-13
		c5.4-1,10.7,0.1,15.8,1.8c6.1,2.1,11.6,5.4,16.7,9.3C70.6,132,71.4,132.7,72.7,133.6z"/>
	<path class="st0" d="M502.4,440c-6.7-8.6-13.3-16.8-19.6-25.4c-8.3-11.2-13.8-23.7-16.2-37.5c-2.5-14.8,0-28.6,8-41.4
		c6.3-9.9,15.5-14.8,26.9-15.9c3.2-0.3,6.5-0.3,9.7-0.1c5.8,0.3,10.4,2.9,14.1,7.3c3.9,4.6,6,10,7.2,15.9c0.3,1.5,0.6,3.1,1.2,4.6
		c0.6,1.6,1.5,1.9,2.9,0.8c0.7-0.6,1.4-1.3,2-2c5.4-6.8,12.7-9.5,21.1-9.4c6.7,0.2,13.1,2.1,18.6,6.1c6.7,5,10.4,11.9,11.1,20.1
		c2.1,24.7-6.5,44.5-28,57.8c-11.1,6.8-23.3,11.1-36,13.7c-5.7,1.2-11.3,2.3-16.9,3.6C506.4,438.8,504.4,439.4,502.4,440z"/>
</g>
</svg>
