<?xml version="1.0" encoding="utf-8"?>
<!-- Generator: Adobe Illustrator 26.0.0, SVG Export Plug-In . SVG Version: 6.00 Build 0)  -->
<svg version="1.1" id="Capa_1" xmlns="http://www.w3.org/2000/svg" xmlns:xlink="http://www.w3.org/1999/xlink" x="0px" y="0px"
	 viewBox="0 0 595.3 630.4" style="enable-background:new 0 0 595.3 630.4;" xml:space="preserve">
<style type="text/css">
	.st0{fill:#FFFFFF;}
</style>
<g>
	<path d="M262.4,374.8c-0.3-0.3-0.4-0.5-0.7-0.6c-5.6-2.6-10.9-5.7-15.5-9.8c-4.9-4.3-9.9-8.5-14.3-13.2c-8-8.5-12.5-18.9-15.2-30.2
		c-0.9-3.7-1.5-7.4-2.2-11.2c-0.1-0.6-0.3-1.2-0.5-2c-9.9,0.4-17.3-3-20.4-13.4c-1.2,0.8-2.3,1.5-3.5,2.2
		c-12,7.2-24.9,11.4-38.9,12.3c-2.9,0.2-6-0.1-8.9-0.7c-4.7-1-9.3-3.9-8.8-11.4c0.1-2,0.4-4,0.9-5.9c1.3-4.8,3.7-9,6.6-13
		c7-9.6,16-17,26.3-22.6c4.8-2.6,10-4.5,15-6.8c0.6-0.3,1.3-0.5,2.1-0.8c-1.3-10.8-2.5-21.4-3.9-32.1c-1.6-12.6-3.7-25.1-4.9-37.6
		c-2.3-25.4-1-50.6,6.8-75.1c3.8-12.1,9.3-23.3,16.7-33.6c3.1-4.4,6.8-8.2,10.9-11.7c14.4-12.5,29.9-23.4,47.5-31
		c7.7-3.3,15.7-6,23.5-9c0.8-0.3,1.5-0.6,2.5-0.9c-0.3-0.4-0.5-0.8-0.8-1.1c-1.8-2.2-1.9-4.3,0-6.3c1.4-1.4,3.1-2.5,4.8-3.4
		c4.6-2.3,9.7-3.6,14.7-4.5c6.6-1.2,13.3-1.6,20-1.2c2.2,0.1,4.5,0.7,6.5,1.5c3.5,1.4,4.4,3.8,3.4,7.6c4,0.2,7.9,0.4,11.9,0.7
		c19.2,1.2,38.1,3.5,56.4,10c29.2,10.4,50.6,29.8,65.2,56.9c7.3,13.6,12.3,28.1,16.3,43c3.9,14.5,6.7,29.2,8.1,44.2
		c0.3,3.7,0.6,7.4,0.6,11.1c0.1,8.3,1.4,16.4,2.4,24.5c0.5,4.3,0.8,8.6,1.1,13c0.1,1.1,0,2.1,0,3.2c3.4,1.5,6.5,2.8,9.6,4.2
		c6.7,3.1,13.2,6.7,19,11.4c3.4,2.7,6.6,5.7,8.8,9.5c1.4,2.5,2.4,5,1.6,8c-0.8,2.9-2.6,5-5.2,6.3c-2.6,1.2-5.3,2.2-8.1,2.9
		c-4.2,1-8.5,1.9-12.9,1c-1.6-0.3-3.2-0.8-4.7-1.4c-6.6-2.6-13.3-5.2-19.9-7.9c-0.6-0.2-1.2-0.4-2.2-0.7c2.5,13.9,4.9,27.6,7.3,41.4
		c0.6-0.2,1.2-0.3,1.7-0.5c5.5-2.4,11.1-4.8,16.6-7.3c3.5-1.6,7-2.9,10.8-3.5c1.2-0.2,1.9-0.7,2.5-1.7c1.7-2.4,3.5-4.8,5.4-7.1
		c1.2-1.4,2.7-2.7,4.3-3.7c3.3-2.2,5.6-5,7.5-8.4c1.4-2.6,3-5.2,5-7.4c7.2-7.8,17.1-4,20.3,2.5c0.2,0.3,0.4,0.6,0.7,1.1
		c1.2-1,2.3-2,3.5-3c6.3-5.4,13-4.4,17.3,2.7c1.9,3.2,2.5,6.5,1.2,10.2c0.6,0.3,1.1,0.6,1.7,0.8c4.8,2.2,7.8,5.9,8.9,10.9
		c0.9,3.7-0.2,7-3.3,9.4c-5.2,4.1-10.4,8.1-15.7,12.1c-1,0.8-1.9,1.6-3.1,2.7c0.8,0.5,1.4,0.9,2,1.2c3.3,1.6,6.5,3.6,9,6.4
		c6,6.8,2.8,18.3-5.9,20.9c-3.2,1-6.4,0.6-9.4-1c-1.3-0.7-2.5-1.4-3.8-2c-2.4-1.3-5.1-1.9-7.8-1.8c-2.3,0-4.7,0-7.2,0
		c-0.2,0.7-0.4,1.4-0.6,2.1c-2.1,6.8-6.4,10.7-13.5,12.1c-9.3,1.8-18.4,4.7-27.4,7.6c-16.1,5.3-32.3,10.6-48.4,15.7
		c-4.6,1.5-9.3,2.7-13.9,5.1c0.4,0.7,0.7,1.3,1.1,1.9c2.8,4.4,5.8,8.8,8.5,13.3c5.6,9.3,12.1,18,18.5,26.8c3.4,4.6,6.8,9.2,10,13.9
		c2.5,3.7,4.5,7.6,5.7,12c0.7,2.5,0.9,5,0.3,7.5c-0.1,0.4-0.2,0.9-0.2,1.3c1,7-2.3,12.2-6.9,16.8c-3.9,4-7.9,7.9-12.8,11
		c0.3,1.9,0.8,3.6,1,5.4c0.4,4.2,0.4,8.5-0.8,12.6c-0.4,1.4-0.2,2.5,0.8,3.7c7.3,9.1,14.6,18.2,21.9,27.3c2.7,3.4,5.9,6.4,9.4,8.9
		c3.6,2.5,6.1,5.9,8,9.8c4.2,8.6,7.3,17.7,9.8,27c3.2,12.3,3.1,24.7-0.6,36.9c-2.2,7.4-6.4,13.5-12.3,18.4c-1.4,1.2-2.8,2.3-4.2,3.4
		c-7.8,6.1-16.4,7.4-25.5,3.5c-11.9-5-20.7-13.5-26.2-25.1c-4.2-8.9-6.2-18.3-6.5-28.1c-0.1-2-0.5-3.6-1.6-5.3
		c-5.4-7.9-10.6-15.9-15.9-23.9c-0.3-0.4-0.6-0.9-1.1-1.5c-0.3,0.3-0.6,0.4-0.8,0.7c-13.8,15.7-28.4,30.6-42.9,45.7
		c-4.4,4.6-8.5,9.4-12.9,13.9c-1.8,1.9-3.9,3.5-6.1,4.9c-4.7,3.1-9.8,3.7-15,1.8c-3.3-1.2-6.5-2.8-9.4-4.7
		c-6.1-3.9-12.1-8-17.9-12.3c-8.6-6.3-14.7-14.8-19.7-24.2c-3.8-7.1-6.4-14.7-9-22.4c-3.7-11-2.4-21.3,5.8-30
		c2.1-2.3,4.7-4.3,7.4-5.9c7-4.2,14.6-7.2,22.8-7.9c1.5-0.1,3-0.2,4.9-0.3c-0.5-0.7-0.9-1.3-1.3-1.8c-3.7-4.9-6-10.5-7.8-16.3
		c-2.8-8.6-4.2-17.4-4.8-26.3c0-0.5-0.1-1.1-0.1-1.8c-0.9,0.1-1.7,0.1-2.5,0.2c-1.7,0.1-3.4,0.4-5.1,0.4c-3.8-0.1-6.8-1.7-8.5-5.2
		c-0.4-0.9-0.9-1.8-1.3-2.6c-16.1,0.3-30.8-4.8-44.8-12c-9.9-5.1-14.9-13.7-15.9-24.6c-0.8-8.4,0.8-16.4,3.8-24.1
		c2.1-5.4,5.7-9.3,10.9-11.9C257.8,376.7,260,375.9,262.4,374.8z"/>
	<path d="M0,403c0.4-19,8.4-39.2,23.9-56.4c15.7-14.5,33.3-25.8,54.7-29.8c17.1-3.3,33.6-0.7,49.4,6.5c14.7,6.7,27.2,16.4,37.8,28.5
		c0.4,0.5,0.8,1,1.2,1.5c8.6,13.2,15.1,27.4,18,43c4.6,24.8-0.4,47.7-14.5,68.4c-13.9,20.5-33,34-57.1,39.8
		c-18.4,4.4-36.3,2.3-53.5-5.3c-12.7-5.6-24.1-13.2-34-23c-2.2-2.2-4.6-4.1-6.7-6.3c-3.1-3.2-5.4-7-7.1-11.1c-1.6-4-3.3-8-4.9-12
		C2.2,434.1,0.1,420.8,0,403z"/>
	<path class="st0" d="M154.8,399.8c-0.4,0.7-0.9,1.8-1.5,2.8c-7.2,11.5-13.2,23.6-18.1,36.3c-0.7,1.7-1.5,2.5-3.5,2.6
		c-7.8,0.4-15.5,1.1-23.2,1.6c-0.6,0-1.3,0-1.9,0c-2.2,0.1-3.3-0.8-4.3-2.8c-6-13-13.1-25.3-21.4-37c-0.4-0.5-0.7-1-1-1.6
		c4.9-9.1,9.9-18.2,14.9-27.4c14.6,1.1,29.2-0.4,43.7-1.4C143.9,381.9,149.2,390.7,154.8,399.8z"/>
	<path class="st0" d="M28,439.5c0.8,0.7,1.1-0.1,1.4-0.6c1.4-2.5,2.9-5,4.2-7.6c3.9-7.9,7.8-15.9,11.7-23.8c0.7-1.5,1.5-2.9,2.3-4.6
		c10.4-0.3,20.8,0.4,31.1,1c2.8,5.4,5.2,10.8,8.2,15.8c4.3,7.5,9,14.8,13.6,22.2c0.7,1.1,1.3,2,0.6,3.4c-2.8,5.8-5.5,11.6-8.3,17.3
		c-0.5,1.1-1.2,2-1.8,3c-1.5,2.4-3.4,3.7-6.6,3.5c-9.4-0.4-18.8-0.4-28.2-0.7c-2.7-0.1-5.4-0.3-8.1-0.6c-0.7-0.1-1.4-0.6-1.9-1.2
		c-1.1-1.3-2-2.8-3.2-4c-6.1-6-10.9-13-14.4-20.8C28.3,441.1,28.2,440.2,28,439.5C28,439.4,28,439.5,28,439.5z"/>
	<path class="st0" d="M146.6,353.1c-3,6-7.2,11.1-8.7,17.7c-0.8,0-1.6,0.1-2.4,0c-9.2-1.2-18.4-0.8-27.6-0.1
		c-3.9,0.3-7.7,0.8-11.6,1.3c-1.4,0.2-2.3-0.2-3.4-1.2c-5.5-5-11-10-16.5-14.9c-1.5-1.3-3.1-2.5-4.7-3.7c1.9-3.8,3.9-7.5,5.7-11.3
		c1.8-4,3.5-8.1,5.1-12.3c0.7-1.8,1.5-2.8,3.6-3c5.5-0.6,10.9-1.6,16.4-2.1c6.5-0.6,12.6,1.1,18,4.7c3.5,2.4,6.9,5,10.1,7.8
		C136.4,341.1,141.4,347,146.6,353.1z"/>
	<path class="st0" d="M174.1,398.4c0.2,0.4,0.4,0.8,0.5,1.2c2.5,9.3,5,18.7,5.8,28.4c0.1,1.8,0.1,3.6-0.3,5.3
		c-2.4,10.1-6.6,19.5-12.3,28.2c-0.6,0.9-1.6,1.7-2.5,2.3c-3.9,2.5-8.3,3.7-12.8,4.1c-3.7,0.3-7.4,0.1-11.3,0.1
		c-0.5-2.6-1.1-5.2-1.6-7.9c-1.1-5.5-2.1-11-3.2-16.5c-0.2-1.2-0.1-2.1,0.5-3.1c7.3-12,13.6-24.5,18.5-37.7c0.5-1.3,1.1-2.4,2.7-2.6
		c5-0.6,10-1.2,15-1.8C173.5,398.3,173.7,398.4,174.1,398.4z"/>
	<path class="st0" d="M28,439.4c-0.8,0.1-1.6,0.5-2.3,0.3c-4.2-0.8-8.5-1.8-12.7-2.7c-0.2,0-0.3-0.1-0.5-0.2
		c-3.8-1.4-4.3-1.9-4.8-5.9c-1.3-9.9-2.6-19.9-3.8-29.8c-0.3-2.4-0.7-4.8-0.9-7.3c-0.1-1,0.1-2.2,0.6-3c3.4-6.2,6.9-12.3,10.5-18.3
		c1.2-2,2.6-3.8,4-5.8c7.2,2.6,14.5,4.1,22,4.7c0.3,4,0.4,7.9,0.8,11.7c0.5,5,1,10.1,1.6,15.1c0.2,2,0.7,3.9,2.5,5.2
		c-7.2,9.2-12,19.5-15.9,30.2c-0.5,1.4-0.9,2.7-1.3,4.1C27.6,438.3,27.9,438.9,28,439.4C28,439.5,28,439.4,28,439.4z"/>
	<path class="st0" d="M110.9,485.9c-2.9,5.1-5.7,9.9-8.3,14.8c-1,1.8-2.2,2.8-4.4,2.9c-8.8,0.5-17.3-0.5-25.7-2.8
		c-1.5-0.4-3-1.3-4.4-2.1c-8.2-4.8-16.3-9.7-24.5-14.5c-1.7-1-3.4-2-5.4-3.1c2.4-4,4.8-7.8,7.1-11.7c0.5,0.1,0.8,0,1.1,0.2
		c5.5,2.2,11.2,2.8,17,3.1c7.9,0.4,15.7,0.1,23.5-1.4c0.9-0.2,1.6-0.1,2.5,0.5c3.4,2.6,6.7,5.2,10.3,7.5
		C103.3,481.7,107.2,483.7,110.9,485.9z"/>
	<path class="st0" d="M82.1,324.9c-3.4,4.3-5.9,8.6-7.8,13.1c-1.9,4.6-3.5,9.3-5.4,14.1c-7,2.8-13.5,7.1-20,11.3
		c-2.4,1.5-4.7,3.1-7,4.7c-0.9,0.6-1.7,0.8-2.8,0.4c-6.3-2.5-12.8-3.7-19.5-4.3c-0.2,0-0.3-0.1-0.6-0.3c0.5-6,2.8-11.3,6-16.2
		c0.4-0.6,1-1.1,1.5-1.5c9.7-8.4,20.1-15.7,31.8-20.9c2.7-1.2,5.5-2.2,8.3-3.2c2.8,1.3,5.9,0.3,8.7,1
		C77.6,323.6,79.7,324.3,82.1,324.9z"/>
	<path class="st0" d="M161.3,470.1c-14.7,17.6-33.2,28.7-56.4,32.8c1.5-1.9,2.6-3.3,3.6-4.7c2.1-3.2,3.6-6.7,4.4-10.4
		c0.2-1.2,0.8-1.9,1.8-2.5c8.2-4.8,16.3-9.6,24.5-14.4c0.6-0.4,1.6-0.7,2.2-0.5C148.1,472.6,154.7,472.5,161.3,470.1z"/>
	<path class="st0" d="M115.3,321.7c1.3,0.4,2.3,0.7,3.3,1.1c15,5.5,27.8,14.4,39,25.7c1.1,1.2,2.2,2.4,3.4,3.5
		c2.6,2.5,4.1,5.4,3.8,9.3c-0.5-0.3-1-0.6-1.5-0.9c-3.6-2.8-7.2-5.7-10.9-8.5c-1.5-1.2-3.2-2.1-5.2-0.9c-2.7-5.1-5.9-9.7-9.7-13.9
		c-3.4-3.7-7.1-6.9-11.4-9.5c-3-1.8-6.3-3.2-9.8-3.8C115.4,323.4,115.4,323.4,115.3,321.7z"/>
	<path class="st0" d="M171.4,368.8c6.6,13.5,10.8,27.6,10.7,42.9c-1-2.6-1.8-5.2-2.9-7.7c-1-2.3-2.7-4.4-3.3-6.8
		c-0.6-2.3,0-4.9-0.2-7.3c-0.6-6.1-2.1-12.1-4-17.9c-0.3-1-0.6-2-0.9-3C171,368.9,171.2,368.9,171.4,368.8z"/>
	<path class="st0" d="M7.6,443.3c-1.1-3.7-2.2-7.5-3.3-11.2C7.7,437.5,8.1,438.7,7.6,443.3z"/>
	<path class="st0" d="M478.6,234.6c-0.1-1.6-0.2-3-0.3-4.6c0.7,0,1.3,0,2.1,0c-2.7-2.9-5.6-5-8.7-6.9c-6.7-4.1-14-6.8-21.4-9.1
		c-12.2-3.8-24.7-6.4-37.4-7.5c-9.9-0.9-19.9-1.1-29.8-1.4c-4.6-0.2-9.2-0.1-13.8,0c-11.4,0.2-22.5,2.2-33.5,4.8
		c-17.8,4.2-35,10.2-51.7,17.6c-23.1,10.1-45,22.2-65.9,36.3c-2.8,1.9-5.6,4-8.4,6c-3.2,2.3-6.6,2.5-9.8,0.2
		c-1.6-1.1-3.1-2.6-4.2-4.1c-6.2-8.3-9.6-17.6-10-28.1c-0.3-7.3-1.3-14.6-2.2-21.8c-1.4-12.6-3.4-25.1-4.4-37.7
		c-1.9-23.1-0.7-46.1,5.7-68.5c4-14,10.1-27.1,18.8-38.8c3.6-4.9,8.2-8.7,12.8-12.5c13-10.8,26.8-20.4,42.4-26.9
		c15-6.3,30.2-12.1,46.1-15.7c2.4-0.5,4.8-0.8,7.2-1c19-1,38,0.1,56.8,2.8c14.5,2.1,28.5,5.7,41.7,12.1
		c19.9,9.6,35.2,24.1,46.9,42.7c8.2,13.1,13.8,27.2,18.2,41.9c4.7,15.3,8.2,30.9,10.1,46.8c0.7,5.6,0.8,11.4,1.3,17
		c0.5,5.6,1.1,11.1,1.9,16.7c0.9,6.3,2.2,12.5,2.2,18.8c0,4.4-0.1,8.7-1.5,12.9c-0.7,2-1.7,4-3,5.7C485,234.7,482,235.4,478.6,234.6
		z M266.8,203.2c0.1,0.2,0.2,0.3,0.3,0.5c0.7-0.3,1.5-0.6,2.2-0.9c11.5-5.1,23.2-9.6,35.1-13.5c20.2-6.6,40.8-10.7,62.1-11.1
		c15.3-0.3,30.5,0,45.8,1.5c12.4,1.1,24.7,2.8,37,5.1c1,0.2,1.9,0.4,2.9,0.5c0-0.2,0.1-0.4,0.1-0.5c-3.1-0.9-6.2-1.9-9.3-2.7
		c-25.8-6.9-52-9.5-78.6-8.8c-9.9,0.3-19.7,1.2-29.3,3.1c-22,4.5-42.7,12.7-62.3,23.5C270.7,200.9,268.7,202.1,266.8,203.2z"/>
	<path class="st0" d="M476.3,228.6c0.2,4.9,0.2,9.3,0.7,13.7c1,8.9,2.4,17.7,3.7,26.6c1.4,9.7,3.2,19.2,3.3,29.1
		c0,5.2-0.7,10.2-2.4,15.2c-4.7,13.9-13,24.9-25.3,33.2c-11.4,7.6-24,12.1-37.1,15.3c-9.6,2.4-19.3,4.5-29.1,6.3
		c-6.7,1.3-13.6,2.1-20.4,2.9c-7.1,0.9-14.2,1.7-21.3,2.4c-5,0.5-10.1,1-15.1,1.4c-8.6,0.7-17.3,1.4-25.9,2
		c-15.7,0.9-31.1-0.5-45.5-7.4c-3.1-1.5-6.1-3.2-8.9-5.1c-6.8-4.6-13-10-18.7-16c-7-7.4-11.3-16.3-14-26c-3-11.2-5.7-22.4-6.7-34
		c-0.4-5-1-10.1-1.6-15.1c-0.2-1.8,0.4-2.8,1.9-3.7c15.4-10.2,31.6-19,48.2-27.1c4.4-2.1,8.7-4.4,13.2-6.3
		c16.7-7,33.5-13.8,51.2-18.4c10.2-2.6,20.4-4.9,30.8-6.1c6.9-0.8,13.9-0.7,20.8-0.9c11.5-0.3,23,0.3,34.4,1.4
		c18,1.6,35.7,5.2,52.6,12.1C468.9,225.5,472.6,227.1,476.3,228.6z M307.1,259c1.3-0.8,1.1-1.8,0.9-2.8c-0.8-3.9-1.8-7.8-3.8-11.2
		c-1.3-2.2-2.9-4.4-4.7-6.2c-2.9-2.8-6.6-4-10.5-2.9c-7.9,2.3-13.6,7.2-15.5,15.5c-2,8.8-0.5,17.3,4.1,25c2.5,4.2,6.2,7,10.8,8.6
		c3.7,1.3,6.6,0.2,8.3-3.3c0.9-2,1.5-4.3,1.7-6.5c0.4-6.2-0.9-12.2-3-18c-1.8-5.1-5.3-8.8-10.7-10.3c-0.1,0-0.2-0.3-0.3-0.5
		c0.3-0.4,0.5-0.9,0.9-1.2c3.3-2.7,9.1-2.6,12.3,0.2c1,0.9,2,1.9,2.7,3c1.3,2.2,2.5,4.6,3.7,6.9C304.8,256.7,305.2,258.4,307.1,259z
		 M409.4,230.2c1-0.6,1.8-1.4,2.8-1.7c5.4-1.4,8.6-1,12,3.9c2,2.8,3.1,5.9,4,9.1c0.3,1.1,0.8,2.2,1.5,3.1c0.7,1,1.9,0.6,2.2-0.6
		c0.1-0.4,0.1-0.9,0.1-1.3c-0.4-4.8-1.2-9.5-3.4-13.9c-1.3-2.7-3.1-5.1-5.7-6.8c-2-1.3-4.3-2.3-6.6-1.9c-8.9,1.3-15.5,5.9-18.3,14.7
		c-2.5,7.8-2,15.7,1.1,23.3c2,4.8,5.4,8.5,10.2,10.8c3.4,1.6,6.4,1,8.5-2.2c1.1-1.6,1.9-3.5,2.3-5.4c1.3-6.1,0.8-12.2-0.4-18.3
		c-1.1-5.6-3.9-9.9-9.2-12.2C410.2,230.8,410,230.6,409.4,230.2z M368.6,361.5c0.6-0.1,1.4-0.1,2.2-0.3c4.8-0.9,8.4-3.7,11.4-7.3
		c6.5-7.7,10.3-16.7,12.9-26.3c0.5-1.7,0.9-3.5,1.1-5.3c0.6-6-2.4-8.6-8.3-7.2c-13,3.2-26.1,6.4-39.1,9.5c-5.8,1.4-8.4,5-6.8,10.8
		c2.7,10.4,8.7,18.5,18.1,23.9C362.6,360.9,365.4,361.4,368.6,361.5z M364.4,277c-3.9,0-7.7,0.9-10.9,3.6c-2,1.7-3.3,3.8-3.5,6.5
		c-0.3,4.3,2,7,5.5,8.8c4,2.1,8.3,2.2,12.6,1.2c3-0.7,5.6-1.9,7.6-4.4c3.2-3.9,2.6-9.1-1.3-12.3C371.6,278.1,368.3,276.8,364.4,277z
		"/>
	<path class="st0" d="M348.1,508.9c-3.4-1.4-6.4-2.7-9.4-3.8c-1.2-0.4-1.9-1-2.3-2c-1.6-3.5-3.6-7-4.7-10.6
		c-3.1-10.3-5.8-20.7-8.7-31c-0.4-1.4-0.7-2.8-1.2-4.5c0.4,0.4,0.7,0.5,0.7,0.6c3,5.5,9.1,8.5,16.8,6.6c4.8-1.2,9.2-3.4,12.9-6.7
		c4.6-4.1,6-8.2,5.2-14.1c1.6-1.5,3.1-2.9,4.5-4.3c1,1.3,2,3,3.3,4.5c4.7,5.3,12.6,6,18.1,1.6c3.3-2.6,4.7-6.1,5.2-10.1
		c0.5-4,0.4-8-1-11.8c-1.2-3.5-2.5-7-4-10.4c-1.5-3.3-3.5-6.3-6.6-8.5c-0.5-0.3-0.9-0.9-1.1-1.4c-1.1-2.5-2.2-5.1-3.3-7.7
		c-0.1-0.4,0-0.9,0.1-1.3c2-5.3,2.5-10.9,2.9-16.5c0.1-0.7,0.2-1.4,0.3-2.2c5.1-0.8,10.1-1.4,15-2.3c16.3-3.2,32.6-6.4,48.2-12.4
		c12.2-4.7,23.2-11.3,32.1-21.1c8.3-9,13.4-19.7,15.7-31.7c0.7-3.5,0.4-7.2,0.6-10.8c0.1-1.3,0-2.7,0-4.1c3.3-1.3,6.5-2.6,9.8-3.9
		c3.3-1.3,6.5-2.6,9.7-4.1c4.6-2.1,9.4-3.2,14.4-3.3c2.3,0,4.5,0.5,6.5,1.6c3.8,2.2,6.8,5.1,9.3,8.6c6.1,9,9.3,18.9,8.8,29.9
		c-0.2,4.1-1.6,7.9-5.1,10.3c-1.5,1.1-3.3,1.9-5.1,2.3c-9.8,1.8-19.3,4.6-28.7,7.6c-16.1,5.1-32.1,10.3-48.3,15.1
		c-6.8,2-13.4,4.3-19.6,7.7c-0.3,0.2-0.6,0.4-1.1,0.7c0.4,0.6,0.8,1.2,1.2,1.7c4.2,5.2,7.9,10.8,11.2,16.6
		c5.5,9.9,12.4,18.9,19.3,27.9c3.2,4.2,6.6,8.2,9.6,12.5c2.2,3.1,4.1,6.4,5.7,9.8c1.2,2.5,2.5,5.3,1.1,8.3c-0.1,0.3,0,0.7,0.1,1.1
		c1.1,5.2-1,9.4-4.3,13.1c-8,9.1-17.6,15.7-29,19.8c-10.8,3.9-21.9,6.2-33.4,6.3c-4.9,0.1-9.7-1.1-14.4-2.2
		c-6.5-1.5-13.1-1.3-19.6,0.1c-1.9,0.4-3.5,1.2-5,2.4c-10.3,8.3-20.6,16.6-30.9,24.8C349.1,508.2,348.5,508.6,348.1,508.9z
		 M441.9,455.4c-0.6-0.1-0.8-0.2-0.9-0.2c-11.6,2.3-23.2,4.6-34.8,6.9c-5.9,1.2-11.9,2.4-17.5,4.7c-8.9,3.7-16.6,9.1-22.5,16.8
		c-0.6,0.8-1.1,1.7-1.7,2.5c0.6,0,0.9-0.2,1.2-0.4c6.6-5.9,14.2-10.2,22.4-13.5c6.5-2.6,13.3-3.8,20.1-5.4
		c10.3-2.5,20.4-5.4,30.1-9.7C439.4,456.7,440.5,456.1,441.9,455.4z"/>
	<path class="st0" d="M367,539.8c-1-5.8-3.3-11-6.2-16.1c-2.9-5.1-6.5-9.5-11.2-13.3c0.7-0.6,1.2-1.1,1.7-1.5
		c9.7-7.4,19.6-14.6,29.1-22.2c3.4-2.7,7.1-3.8,11.2-4.1c5.3-0.4,10.6,0,15.8,1.4c5.7,1.6,11.6,1.7,17.5,1.3
		c13.1-0.9,25.6-4.1,37.5-9.9c1.5-0.7,2.9-1.4,4.4-2.1c0.1,0,0.2,0.1,0.5,0.2c0,12-3.6,22.5-12.2,31.4c-0.2-0.4-0.3-0.6-0.4-0.9
		c-0.1-0.2-0.1-0.3-0.2-0.5c-0.1,0.1-0.3,0.1-0.4,0.3c-5.4,7.9-11.9,15.1-18.2,22.2c-16,17.9-33.1,34.7-50.3,51.3
		c-6.6,6.4-12.9,13.2-19.4,19.8c-1.9,1.9-4,3.7-6.1,5.3c-3.2,2.4-6.8,2.9-10.4,1.1c-2.3-1.1-4.6-2.2-6.7-3.6
		c-5.8-3.9-11.5-7.8-17.2-11.8c-5.6-4.1-10.1-9.3-13.9-15.1c-4.5-6.8-8.1-14.1-10.8-21.8c-0.6-1.6-1.2-3.2-1.9-4.8
		c-4.8-11.3-2-21.8,7.9-29.1c6-4.4,12.6-7.4,19.9-8.8c9.7-1.8,18,1.5,25,8.2c6,5.7,10.2,12.7,13.6,20.1
		C366.2,538,366.6,538.9,367,539.8z"/>
	<path class="st0" d="M427.4,542.7c4.2-5,8.4-9.8,12.3-14.8c4-5.2,7.8-10.7,11.7-16c0.4-0.6,0.9-1.3,1.5-1.5
		c7.4-3.3,12.4-8.9,15.9-16.4c0.6,0.7,1.1,1.3,1.5,1.9c5.7,8.3,11.4,16.5,17.1,24.8c3.3,4.8,7,9.2,11.6,12.8c2.7,2.1,4.7,4.8,5.9,8
		c2.4,6.8,4.7,13.6,7,20.5c3,8.9,3.5,18,2.8,27.3c-1.1,13.4-7.2,23.6-18.6,30.8c-4.6,2.9-9.5,3.5-14.5,1.7
		c-9.7-3.4-17.3-9.6-22.9-18.2c-5.3-8.1-8.3-17.1-9.6-26.6c-0.6-4.3-1.9-7.8-4.6-11.2c-5.3-6.8-10.2-13.8-15.3-20.7
		C428.5,544.3,428,543.6,427.4,542.7z"/>
	<path class="st0" d="M350.2,378.3c3.1,6.8,6,13.3,10.7,18.1c-0.1,3.4-0.3,6.3-0.4,9.4c-1.2,2-2.6,4.3-4,6.6c-1.6-1.1-3.2-2.6-5-3.7
		c-6.2-3.6-12.8-6.4-19.9-7.5c-1.5-0.2-2.3-0.8-3.2-2.1c-3.5-5-8.2-8.6-14.3-10c-12.8-3-25.8-5.5-38.9-7c-4.6-0.5-9.3-1-14-1.5
		c-0.1,0.2-0.1,0.4-0.2,0.5c0.8,0.3,1.5,0.7,2.3,0.9c10.2,3.4,20.6,6,31.1,8.1c6.6,1.4,13.3,2.4,19.9,3.8c4.1,0.8,7.6,3,11.2,5.9
		c-1.7,0.5-2.9,0.4-4-0.6c-7-5.9-14.8-6.3-22.4-1.9c-11.6,6.8-17.8,17.2-18.3,30.7c-0.2,5.9,2.5,10.6,7.2,14.2
		c2.8,2.2,6.1,3.6,9.5,4.4c0.9,0.2,1.9,0.5,2.8,0.7c0,0.2-0.1,0.4-0.1,0.5c-2.2-0.3-4.4-0.4-6.5-0.9c-12.5-2.6-24.2-7.3-35.3-13.5
		c-8.4-4.7-12.1-12.4-12.8-21.7c-0.6-7.7,0.8-15.1,3.5-22.3c1.1-3.1,3-5.5,5.6-7.5c3.1-2.4,6.5-4.2,10.2-5.5
		c0.8-0.3,1.9-0.2,2.8,0.1c5.3,1.7,10.8,3,16.3,3.9c6.9,1,13.9,1.3,20.8,1c9.7-0.5,19.5-1.3,29.2-2
		C339.6,379.2,344.8,378.8,350.2,378.3z"/>
	<path class="st0" d="M347.6,444.4c-0.6-3.6-1-7.1-1.9-10.5c-0.9-3.4-2.3-6.6-3.6-10.2c-1,1.1-0.8,2.4-0.7,3.7
		c0.3,3.5,0.7,7,0.9,10.5c0.1,2.2,0,4.3-0.3,6.5c-0.1,1-0.8,2.2-1.5,2.7c-2.7,1.7-5.6,3.3-8.5,4.8c-1.7,0.9-3.5,1.4-5.5,0.9
		c2-7.5,1.4-13.2-2.2-19.1c0,1.6,0,2.6,0,3.6c-0.1,3-0.1,6-0.5,8.9c-0.5,3.6-2.5,5.9-6.4,6.3c-0.7,0.1-1.4,0.3-2.1,0.4
		c-5.9,0.6-7.3,1.1-11.1-6.4c0.4-0.7,1.1-1.4,1.2-2.1c0.1-1.5-0.2-3-1.7-4.5c0,1.3,0,2.2,0,3.1c-0.9,0.8-1.7,1.4-2.6,2.2
		c-3.4-1.1-6.5-2.7-9.2-4.9c-4.9-3.9-6.7-9.1-5.6-15.2c1.7-8.8,6-16.2,13-21.9c1.4-1.2,2.8-1.7,4.7-1c4,1.4,8.2,1.2,12.3,1.7
		c5.6,0.8,11.3,1.5,16.8,2.6c5.4,1,10.2,3.5,15,6.1c8.6,4.6,11,12.5,10.8,21.5c0,1.2-0.7,2.6-1.5,3.7
		C354.8,441.1,351.3,443,347.6,444.4z"/>
	<path class="st0" d="M549.9,322.1c0.3-7.7-1.4-14.6-4-21.3c-2.1-5.4-5-10.4-9.2-14.6c-4-4.1-8.5-7.3-15.1-7.7c3.2-3,5.9-6,9.4-7.8
		c4.6-2.4,7.9-5.9,10.2-10.5c1-2,2.3-3.9,3.7-5.6c3.9-4.5,9.6-4.5,13.7-0.2c0.6,0.6,1,1.3,1.5,1.9c-1.8,2.9-7,7.8-10.2,9.6
		c2,0.6,3.8,0.3,5.4-0.8c4.5-3.1,9.1-6.3,13.6-9.4c0.8-0.6,1.6-1.2,2.5-1.6c1.3-0.7,2.8-0.7,4.2-0.1c3.8,1.6,6.5,6.5,5.9,10.8
		c-4.9,1.8-8.6,5.7-12.8,8.8c-2.2,1.6-2.2,1.7-5.1,2.1c1.7,1.5,3.4,1.4,5,0.5c1.7-0.9,3.3-1.9,4.9-2.9c1.8-1.2,3.6-2.4,5.4-3.6
		c2.7-1.7,5.2-1.6,7.4,0.7c1.5,1.6,2.8,3.5,3.8,5.5c1.2,2.7,0.5,4.9-1.9,6.7c-5.1,3.9-10.3,7.7-15.4,11.5c-2,1.5-3.7,3.2-4.8,5.4
		c-1.5,3-0.7,5,2.4,6.2c3.4,1.3,6.6,2.9,9.3,5.4c2.2,2,3.4,4.5,2.6,7.5c-0.9,3.4-2.6,6.1-6.3,7.1c-2,0.5-3.8,0.2-5.5-0.6
		c-1.1-0.5-2.1-1-3.2-1.5c-3.9-1.8-7.9-2.4-12.1-1.7C553.5,322,551.9,322,549.9,322.1z"/>
	<path class="st0" d="M184.9,249.9c0.3,0.7,0.6,1.4,0.8,2.1c2,5.7,4.9,10.8,8.7,15.5c1.3,1.7,3,3.2,4.8,4.4c2.5,1.7,5.3,2.2,8.3,1.4
		c-2,6-5.4,10.8-10.6,14.5c-11.5,8.1-24.2,13.1-38,15.4c-4.6,0.8-9.3,1.5-14,0.5c-0.7-0.1-1.4-0.3-2.1-0.5c-3.4-1.1-4.6-2.9-4.2-6.6
		c0.3-3.3,1.3-6.4,2.7-9.3c2.7-5.7,6.5-10.6,10.9-15.1c9.1-9.4,19.8-16.5,31.7-21.8C184.1,250.1,184.5,250.1,184.9,249.9z"/>
	<path class="st0" d="M494,218.6c0.4,0.1,0.6,0,0.8,0.1c9.2,5,18.3,10.3,26.1,17.4c2.2,2,4.2,4.3,5.8,6.7c2.7,4,1.9,6.7-2.6,8.5
		c-3,1.3-6.4,1.9-9.6,2.7c-4.1,1-8,0.4-12-0.9c-6.9-2.2-13.8-4.1-20.8-6.1c-0.6-0.2-1.2-0.4-2-0.7c-0.4-3.1-0.7-6.2-1.1-9.5
		c1-0.1,1.6-0.1,2.3-0.1c4.3,0,7.4-2,9.6-5.6c2-3.4,2.7-7.2,3.3-11.1C493.9,219.6,493.9,219.2,494,218.6z"/>
	<path class="st0" d="M376.4,407.5c0.7,1.1,1.3,2,1.8,2.9c2.7,5.6,4.4,11.6,5.4,17.8c0.5,3.2,0.2,6.3-1,9.3c-2,5.1-7.9,7.3-12.7,4.7
		c-2.9-1.6-4.8-4-6.4-6.8c-0.3-0.6-0.3-1.4-0.3-2.1c0.1-4.3-0.2-8.5-1.6-12.5c-0.1-0.4-0.3-0.9-0.3-1.3c0.3-2.7,0.7-5.3,1.6-8.1
		c0.6,1,1.2,2,1.8,3c1.7,2.9,3.3,3.7,5.9,3c2.4-0.6,4.8-3.4,5-5.8c0.1-1.1,0.2-2.2,0.3-3.2C375.9,408.3,376,408.1,376.4,407.5z
		 M374.2,426.4c-4.1,0.3-7.5,2.7-8.4,6.1c-0.6,2.2,0,3.7,2,4.7c1.4,0.7,3,1.2,4.5,1.7c4.1,1.2,7.2,0,9.4-3.7
		c1.6-2.6,1.1-5.2-1.6-6.7C378.3,427.5,376.2,427.1,374.2,426.4z"/>
	<path class="st0" d="M210.1,274.7c0.9,9.9,1.8,19.8,2.7,29.9c-7-1.9-12.8-5.3-16.5-12c0.6-0.5,1.1-1,1.6-1.5
		c1.8-1.6,3.7-3.2,5.4-4.9c2.1-2,3.5-4.5,4.4-7.3c0.5-1.5,1.2-2.9,1.8-4.4C209.7,274.6,209.9,274.6,210.1,274.7z"/>
	<path class="st0" d="M285.1,12.9c1-1.8,2.6-2.3,4-2.9c5.2-2,10.6-3.1,16-3.9c4.8-0.6,9.7-1,14.6-1.4c2-0.1,4,0.1,5.9,0.3
		c1.3,0.1,2.6,0.5,3.4,1.9c-1.2,1.7-2.6,2.5-4.6,2.5c-2.3-0.1-4.7,0.1-7,0c-8.3-0.3-16.3,1.7-24.2,4.1c-0.8,0.2-1.6,0.5-2.3,0.7
		C288.8,15,287,14.4,285.1,12.9z"/>
	<path class="st0" d="M354.6,444.7c0,2.5-1,4.5-2.5,6.1c-4.8,5.1-10.8,8-17.8,8.9c-3.4,0.4-6.1-0.9-8.6-3.6c2.4,0,4.7,0.3,6.9-0.1
		c4.2-0.6,7.7-2.9,11.3-5.1c0.9-0.5,1.6-1.5,2.1-2.4c0.6-1.1,1.3-1.6,2.4-1.9C350.4,446.2,352.5,445.5,354.6,444.7z"/>
	<path class="st0" d="M367.9,398.1c0.3,0.3,0.6,0.6,0.8,1c2.1,4,2.9,8.2,2.7,12.7c-0.1,1.4-1,2.5-2.3,3.1c-1.1,0.5-1.9,0.2-2.3-1
		c-1-3.8-2-7.7-1.8-11.7C365.2,399.6,365.6,399.1,367.9,398.1z"/>
	<path class="st0" d="M365.2,393.2c-1.1,0.9-2.2,1.7-3.4,2.7c-3.8-5.5-5.2-11.8-6.7-18c2.5-0.9,2.5-0.9,3.3,0.8
		C360.7,383.6,362.9,388.4,365.2,393.2z"/>
	<path class="st0" d="M368.7,376.4c0.8-0.1,1.5-0.2,2.1-0.4c1.4,1.4,1.9,14.8,0.8,17.9c-1.4-0.4-2.9-0.8-4.7-1.3
		C367.3,387.3,368.2,381.9,368.7,376.4z"/>
	<path class="st0" d="M362.9,376.8c0.4,0.3,1.1,0.5,1.2,0.8c0.5,3.5,0.9,6.9,0.8,10.5c-0.8-3.6-1.6-7.2-2.4-10.9
		C362.6,377,362.8,376.9,362.9,376.8z"/>
	<path d="M266.8,203.2c1.9-1.1,3.9-2.3,5.8-3.4c19.6-10.9,40.3-19,62.3-23.5c9.7-2,19.5-2.9,29.3-3.1c26.6-0.7,52.9,1.9,78.6,8.8
		c3.1,0.8,6.2,1.8,9.3,2.7c0,0.2-0.1,0.4-0.1,0.5c-1-0.2-1.9-0.4-2.9-0.5c-12.3-2.3-24.6-3.9-37-5.1c-15.2-1.4-30.5-1.7-45.8-1.5
		c-21.3,0.4-41.9,4.5-62.1,11.1c-11.9,3.9-23.6,8.4-35.1,13.5c-0.7,0.3-1.5,0.6-2.2,0.9C267,203.5,266.9,203.4,266.8,203.2z"/>
	<path d="M374.2,426.4c2,0.7,4.2,1.2,6,2.2c2.7,1.5,3.2,4.1,1.6,6.7c-2.2,3.6-5.3,4.9-9.4,3.7c-1.5-0.5-3.1-1-4.5-1.7
		c-2.1-1-2.6-2.5-2-4.7C366.6,429.1,370.1,426.7,374.2,426.4z M379,433.2c-5.4-2.1-8.5-1.6-10.1,1.5c1.2,1.7,3,2.1,4.8,2.7
		c1.6,0.6,2.9,0,3.8-1.2C378.1,435.3,378.5,434.3,379,433.2z"/>
	<path class="st0" d="M393.6,321.5c-0.2,1.2-0.4,2.3-0.6,3.5c-2,8.6-5.2,16.7-10.3,24c-1.7,2.4-3.7,4.7-6,6.6
		c-4.5,3.9-9.6,4.3-14.9,1.8c-2.8-1.3-5.3-3.2-7.4-5.4c-3.6-3.7-6.5-8-8.6-12.7c-0.7-1.5-1.1-3.1-1.5-4.6c-0.8-3.9,0.8-6.3,4.6-7.2
		c8.8-2.2,17.7-4.3,26.6-6.5c4.1-1,8.2-2,12.4-3c0.4-0.1,0.7-0.2,1.1-0.3C392.4,316.9,393.7,317.9,393.6,321.5z"/>
	<path class="st0" d="M363,293.2c-2.5,0.2-4.8-0.7-6.6-2.6c-2.1-2.2-2.3-5-0.4-7.4c2.7-3.6,6.4-4.1,10.5-3.4
		c1.2,0.2,2.4,0.7,3.5,1.3c3.8,2.2,4.2,6.6,0.8,9.5C368.6,292.6,366,293.2,363,293.2z"/>
	<path class="st0" d="M379,433.2c-0.5,1.1-0.9,2.2-1.5,3c-0.9,1.3-2.2,1.8-3.8,1.2c-1.8-0.6-3.6-1.1-4.8-2.7
		C370.5,431.6,373.6,431,379,433.2z"/>
</g>
</svg>
