<?xml version="1.0" encoding="utf-8"?>
<!-- Generator: Adobe Illustrator 26.0.0, SVG Export Plug-In . SVG Version: 6.00 Build 0)  -->
<svg version="1.1" id="Capa_1" xmlns="http://www.w3.org/2000/svg" xmlns:xlink="http://www.w3.org/1999/xlink" x="0px" y="0px"
	 viewBox="0 0 595.3 704" style="enable-background:new 0 0 595.3 704;" xml:space="preserve">
<style type="text/css">
	.st0{fill:#FFFFFF;}
</style>
<g>
	<path d="M142.7,551.5c5.2-13.3,10.1-25.7,14.9-38.2c0.9-2.3,1.8-4.7,2.7-7c3.1-8.4,6.7-16.5,7.4-25.7c0.8-9.6,5.1-18.3,9.9-26.6
		c0.9-1.6,1.8-3.1,2.5-4.3c-10.3-6.4-20.5-12.8-30.7-19.1c-0.1,0.3-0.3,1.1-0.5,2c-1.7,8.6-7.2,12.8-16,12.2
		c-22.2-1.5-36.6-13.4-44.9-33.4c-6.6-15.9-8.1-32.6-7.6-49.5c0.3-8.7,1.3-17.4,2.2-26.1c0.9-9.1,3.7-17.6,9.8-25
		c-8.7-9-7.5-19.6-5-30.4c0.6-2.5,1.3-5.1,1.4-7.7c0.2-3.2,0.4-6.6-0.2-9.8c-9-45.3-8.2-90.2,5.5-134.5
		c18.4-58.9,57-98.4,116.2-116.5c46.9-14.3,94.4-16.3,141.9-3c55.1,15.4,92.2,50.8,111.7,104.3c11.8,32.3,17.7,66,20,100.3
		c0.2,2.9,0.7,6,1.9,8.6c7.5,16.2,8.8,33,5.9,50.3c-0.9,5.4-1.8,10.8-2.9,16.1c-1,4.6-0.5,8.8,1.5,13.2
		c5.4,11.6,10.9,23.3,15.5,35.2c4.7,12.1,6.7,24.7,5.4,37.8c-1.8,17.5-12.6,28-30.2,28.4c-5.6,0.2-11.3-0.9-16.9-1.5
		c-2-0.2-3.6-0.5-5,1.6c-13.4,20-32.7,31.4-55.5,37.5c-4.7,1.3-9.4,2.6-14.1,3.9c0,0.4-0.1,0.8,0,1c11.9,16.8,18.4,35.9,23.8,55.5
		c4,14.3,7,28.9,10.3,43.4c0.4,1.9,1,2.7,3.2,3c16.8,2.2,33.5,4.7,50.3,7.1c1.3,0.2,2.7,0.4,4.5,0.6c-0.1-1.5-0.1-2.7-0.2-3.8
		c-0.9-15.2,2-29.4,12.6-40.9c11.8-12.8,26.5-18.8,43.9-14.9c13.4,3.1,22,12.6,27.3,24.8c13.8,31.7,23.3,64.7,29,98.8
		c1.9,11.5,1.6,23-4.3,33.5c-6.4,11.4-16.1,17.5-29.3,18.2c-24.1,1.2-47.5-3.2-70.7-9.3c-3.7-1-7.4-2-11.4-3.1c0,1,0.1,1.9,0,2.7
		c-0.1,1.2,0.1,3.1-0.5,3.6c-3.6,2.3-3.5,6.5-5.6,9.5c-3.6,5.1-13,6.6-20.1,3.5c-0.9-0.4-1.8-0.9-2.8-1.4c-7,11.8-18,9.6-28.5,7.7
		c-7.4-1.3-14.5-4.5-21.7-6.7c-4.3-1.3-8.7-2.2-13.2-3.1c-0.8-0.1-1.9,0.7-2.6,1.3c-2.3,1.9-4.2,4.8-6.8,5.8
		c-6.8,2.7-14.2,3.4-21.5,2.2c-9.9-1.7-13.4-7.8-10.4-18.1c0.7-2.4,2-5.2,3.9-6.6c4.2-3.2,4.8-7.6,5.4-12.5c-2.1,0-4.3,0.1-6.4,0
		c-0.9,0-2-0.2-2.6-0.8c-3.4-3.7-7.4-2-11.3-1.4c-17.3,2.6-34.6,3.6-52,2.7c-0.8,0-1.7,0-2.5,0c-0.1,0.4-0.2,0.8-0.2,1.1
		c2.7,0.8,5.4,1.8,8.2,2.3c4.4,0.7,8.9,0.6,13.2,1.5c11.7,2.4,16.7,14.7,10.1,24.6c-2.7,4.2-7.1,5.5-11.8,5.9
		c-7.3,0.6-14.3-0.6-21.1-2.9c-1.5-0.5-3.2-0.7-5.2-1.2c0.1,1.9,0.1,3.1,0.2,4.3c0.5,7.9-3.5,13.2-11.4,14.3
		c-9,1.3-17.5,0.4-23.9-7.5c-4.6,9.2-12.7,10.9-21.7,10.6c-7.6-0.3-13.3-3.5-15.7-11.5c-7.9,7.6-17.1,8.5-26.9,6.2
		c-7.2-1.7-10.2-7.1-8.2-14.3c1.6-5.9,5.1-10.5,9.9-14.4c1.2-1,1.8-2.9,2.7-4.3c-0.3-0.2-0.6-0.4-0.8-0.5c-9,4.5-18,9.2-27.1,13.5
		c-22.6,10.6-45.6,20.6-70,26.4c-5.2,1.2-10.5,1.8-15.8,2.5c-26.1,3.7-58.2-19.3-62.8-51.7c-2.5-17.6,1.1-34.1,7.3-50.3
		c7.7-20.4,17.5-39.7,29.7-57.8c11.2-16.7,26.4-27.7,46.5-31.4c24.7-4.5,46.7,8.1,55.8,31.6C140.8,546.3,141.6,548.5,142.7,551.5z"
		/>
	<path class="st0" d="M466,393c2.4-8.1,5.2-15.9,6.9-24c4.6-22.2,2.1-44.1-4.3-65.7c-1.8-5.9-1.5-11.6-0.6-17.5
		c1.4-9.6,1.1-18.8-4.9-27.1c-4.3-5.8-10.3-9.6-16.4-13.1c-29.1-16.7-60.4-27.3-93.6-32.1c-61.4-8.9-118.8,3.4-173,32.8
		c-13.8,7.5-27.3,15.5-39.3,25.7c-8.1,6.9-15.9,14.2-21.3,23.7c-4,7-5.1,14.3-2.9,22c2.6,9.2,2.6,18.1,0.8,27.6
		c-5.4,27.2,1.7,51.4,20.1,72c4.4,4.9,3.9,10.1,2.3,15.6c-0.8,2.7-3.3,3.2-5.8,3c-15-0.8-26.4-7.5-34-20.5
		c-6.4-11.1-9-23.3-10.2-35.8c-1.6-16.2-0.4-32.2,2.6-48.2c1.2-6.5,4.1-12.2,8.8-17c3.5-3.6,3.4-5.8-0.6-8.7
		c-5.2-3.9-6.6-9.3-5.8-15.4c0.3-2.4,0.6-4.8,1.3-7c2.7-9.5,2.1-18.8,0.4-28.6c-7.9-44.9-5.9-89.3,9.5-132.5
		C123.9,71,159.5,37.2,211.2,20.9C254,7.3,297.7,4.9,341.7,15c28.9,6.6,54.6,19.7,75.9,40.6c19.1,18.8,32.2,41.4,40.3,66.8
		c9.5,29.9,15.4,60.5,17.3,91.9c0.3,4.1,1.3,8.4,2.9,12.1c6.6,14.8,7.6,30,4.8,45.7c-1.1,6.4-2.6,12.7-3.1,19.2
		c-0.3,3.8,0.2,8,1.6,11.5c4.4,10.6,9.7,20.8,14.1,31.4c4.8,11.3,7.6,23.1,7.3,35.4c-0.1,2.5-0.3,5-0.8,7.5
		c-1.8,9.2-7.1,15.1-16.4,16.8C479,395.2,472.3,394.7,466,393z M103.7,255.6c0.7-0.6,1.5-1.2,2.2-1.8c23.7-21.7,49.8-39.9,78.4-54.6
		c52.1-26.8,107.4-36.7,165.6-29.7c31.1,3.7,60.9,12.6,89.2,26.3c0.8,0.4,1.6,0.6,2.4,0.9C337.4,136.2,187.1,158.6,103.7,255.6z"/>
	<path class="st0" d="M320.4,213.6c42.4,0.6,87.1,12.3,128.3,36.8c8.2,4.9,15.1,11,16.4,21c0.7,5.5,0.1,11.3-0.5,16.9
		c-0.6,5.6-0.3,11,1.3,16.5c6.4,22.1,8.8,44.6,3.4,67.3c-8.1,33.8-29.7,54.9-62.6,64.6c-31.6,9.3-63.7,16.7-96.4,21
		c-30.7,4-61.4,5.3-92-0.4c-28.8-5.3-54.7-16.6-75.3-38.1c-20.9-21.8-28.9-47.3-22.1-77c1.7-7.6,1.4-15.2-1-22.6
		c-3.6-11.3-0.3-20.7,6.9-29.4c10.7-12.8,23.7-22.8,37.8-31.5c28.8-17.8,59.5-31.1,92.6-38.7C275,216.1,296,213.6,320.4,213.6z
		 M230.3,279.3c-0.2-1.8-0.3-5.5-0.9-9.1c-1.3-7.6-3.4-14.9-8.9-20.6c-4.9-5.2-11.4-5.6-16.1-0.2c-2.9,3.3-5.4,7.4-6.9,11.5
		c-4.7,13.3-4.8,26.8-0.2,40.1c1.6,4.8,4.7,9.3,8.1,13.1c3.6,4,9.4,3.7,13.5,0.2c1.9-1.6,3.5-3.6,4.8-5.7
		C228.8,300.1,230.2,290.7,230.3,279.3z M392.3,274.6c-0.2-9.7-1.4-18.7-5.9-26.8c-2.7-4.8-6-9.2-12.1-9.2c-6.1,0-9.8,4.2-12.1,9.1
		c-8.2,17.6-8.3,35.3,0,52.9c2.3,4.9,6,9.2,12.1,9.1c6-0.1,9.4-4.5,12.1-9.3C390.9,292.2,392,283.2,392.3,274.6z M305.9,423.4
		c1.1-0.3,3-0.5,4.8-1.3c4.7-2,7.8-5.8,10.4-9.9c6.2-9.6,10-20.3,13.2-31.2c2.3-7.8,4.1-15.8,6-23.8c1.1-4.8,0.2-5.7-4.8-5.1
		c-0.3,0-0.7,0.1-1,0.1c-10.8,2-21.6,4-32.4,6.1c-9.4,1.8-18.7,3.5-28.1,5.4c-5.2,1-5.8,2.2-4,7.2c2.1,5.9,4.2,11.8,6.6,17.5
		c3.9,9.3,8,18.6,14.6,26.4C294.8,419.3,299,422.9,305.9,423.4z M316.6,317.9c-4.5,5.3-9.6,8.9-16.5,8.8c-6.9-0.1-11.9-4.2-16.7-9.4
		c1.9,8.2,9.4,13.4,17.8,13C308.7,329.9,315.7,324.4,316.6,317.9z"/>
	<path class="st0" d="M416.8,554.8c25.3,3.6,50.1,7.1,75.6,10.7c-3-15.3-4.5-30.5,4.7-45c0.6,5.9,0.9,11.3,1.8,16.6
		c3.8,23.1,13.9,43.2,29,61.1c8.6,10.1,16.7,20.6,24.6,31.3c3.8,5.2,6.3,11.3,10,16.6c3,4.3,7,7.9,10.7,12.1c-3,2.1-6.7,3.6-11,3.9
		c-18.3,1.4-36.3-1.2-54.1-5.1c-22.7-4.9-44.7-12-66.3-20.4c-2.8-1.1-5.3-3.1-7.5-5.2c-4.2-4.1-9.2-5.6-14.7-4.6
		c-8.8,1.6-17.5,3.9-26.3,5.5c-8,1.5-16.1,2.7-24.2,3.7c-6.6,0.9-13.3,1.4-20.8,2.1c1-6.3,1.8-12,2.7-17.6
		c4.3-26.3,8.3-52.6,8.5-79.2c0.1-7-0.8-14-1.4-21.1c-0.1-1.6-0.8-3.2-1.9-4.7c0,13.4,1,26.8-0.2,40.1c-2,22.2-5.4,44.2-8.2,66.3
		c-0.4,3-1.3,6-1.6,9.1c-0.2,2-1.2,2.7-3,3c-23.4,4.1-46.9,6.1-70.6,3.5c-1.5-0.2-3-0.4-4.3-1c-0.9-0.4-2-1.6-2-2.5
		c-1.5-20.2-6.5-39.6-11.6-59.1c-3.2-12.3-6.8-24.5-10.7-36.6c7.3,32.1,16.3,63.8,19.3,96.5c-11-0.4-21.7-1.1-32.3-0.9
		c-10.5,0.2-21,1.3-31.9,2c-1.4-6.3-2.6-13-4.6-19.5c-6.8-22.9-12-46.2-15.5-69.8c-2.2-15.1-4.4-30.4-4.8-45.7
		c-0.4-16.3,3.3-32,12.8-45.9c0.9-1.3,1.4-2.7,3.6-1.8c25.5,9.2,52,11.6,78.9,11c5.6-0.1,11.1,0,17.2,0c0.4,1.7,0.6,4.3,1.4,6.5
		c2.6,7.1,5.4,14.1,8.3,21.2c0.7,1.7,0.5,7.9-0.9,8.9c-7.5,5.5-9.6,13.7-10,22.2c-0.3,5,0.3,10.3,1.5,15.1c2,7.8,7.6,12.1,14.8,12.5
		c8.9,0.5,16.9-3.5,19.6-10.8c4-10.7,3.9-21.6-0.5-32.2c-0.7-1.6-1.7-3.4-3.1-4.4c-2.5-1.9-3.5-4.4-4.5-7.2c-1-2.7-0.7-4.8,0.4-7.3
		c3.6-7.9,5.8-16.2,6.4-24.9c0.1-1.4,0.3-2.7,0.4-4.1c8.9-1.7,17.7-3.2,26.5-5.1c9.6-2,19.1-4,28.6-6.5c3.4-0.9,5.1,0.3,6.8,2.6
		c6.9,9.5,11.5,20.1,15.4,31c8.4,23.5,14.3,47.6,18.6,72.2C416.6,554.3,416.8,554.7,416.8,554.8z"/>
	<path class="st0" d="M8.3,638.8c0.1-10.6,3.4-21.6,7.4-32.4c8.1-21.8,18.3-42.6,32.1-61.4c10.4-14.2,24.6-22.9,42.4-24.5
		c13.9-1.2,26,3.4,34.6,14.6c5.2,6.9,6.8,15.5,7.8,24.1c2.2,18.5-3,35.4-12,51.2c-10.4,18.5-21.2,36.8-32.1,55
		c-5.1,8.6-12.2,15.6-20.9,20.6c-13.2,7.7-27.5,8-40.8-3.8C14,670.9,8.6,656.5,8.3,638.8z"/>
	<path class="st0" d="M586.4,628c-0.1,10.1-1.7,17.7-6.8,24.6c-2.1,2.9-4.4,3-6.4,0.7c-4.2-4.7-8.9-9.3-11.8-14.8
		c-8.2-15.6-19.3-28.9-30.7-42c-18.2-20.9-28.6-45-30.3-72.8c-0.5-7.3,2.6-11.5,8.5-14.6c7.2-3.8,14.7-6.9,23.1-5.9
		c10.6,1.2,18,7.5,22.9,16.4c3.8,6.9,6.7,14.4,9.5,21.8c9.3,25.1,16.4,50.8,20.9,77.2C585.9,622.3,586.2,626,586.4,628z"/>
	<path class="st0" d="M53.1,695.1c16.2-3.3,27.7-12.9,36.4-25.9c14.1-21,26.7-43,37.9-65.8c2.7-5.6,4.7-11.6,6.2-17.6
		c1.5-6,2-12.3,2.9-18.3c0.9,0.3,2.1,0.8,3.3,1.1c13.7,3.3,26.8,7.9,37.4,17.7c5.4,5,9.8,10.5,11.5,18c2.4,10.8,5.4,21.5,8.2,32.5
		c-1.9,0.8-3.4,1.3-4.8,1.9c-5,2.1-9.5,4.8-12.4,9.7c-0.5,0.8-1.4,1.5-2.2,2c-29,16-58.8,30.2-90.6,39.6c-9.1,2.7-18.7,3.5-28.1,5.1
		C56.9,695.3,55,695.1,53.1,695.1z"/>
	<path class="st0" d="M235.3,672.7c0,3,0,5.9,0,8.9c0.1,8.2-3.5,13.4-11.6,14.7c-4.4,0.7-9.1,0.5-13.4-0.4c-4.9-1.1-7.5-5-7.6-10.1
		c0-3.6,0.5-7.3,0.6-10.9c0-0.9-0.9-1.9-1.3-2.8c-0.5,0.8-1.1,1.6-1.5,2.5c-0.3,0.7-0.2,1.6-0.3,2.4c-0.8,9.4-4.4,13.7-13.8,15.2
		c-4.2,0.7-8.7,0.4-12.8-0.4c-5.7-1.2-7.6-5.3-5.9-10.9c1.7-5.4,5-9.6,9.5-12.9c1.1-0.8,1.8-2.4,2.3-3.7c0.9-2.9,1.3-6,2.2-8.9
		c2.4-7.4,7.1-11.8,15.1-13.4c19.5-4,39-4.1,58.7-2.1c2.4,0.2,4.8,0.3,7.1,1c2.7,0.9,5.4,2.2,7.8,3.7c2.3,1.4,4.1,3.8,6.5,5
		c3.4,1.6,7.1,2.8,10.7,3.6c3.8,0.8,7.7,0.7,11.5,1.4c8.2,1.5,12.5,7.9,10.9,15.5c-1.1,4.9-4,8-9,9c-7.6,1.5-14.9-0.3-22.1-2.2
		c-3.1-0.8-6.5-0.9-10-1.3c0.4,3.5,0.9,5.9,0.9,8.4c0,5.3-2.6,9.1-7.7,9.7c-5,0.5-10.2,0.4-15.1-0.7c-5.8-1.3-8.6-5.9-8.6-11.9
		c0-2.3,0.1-4.6-0.1-6.8c-0.1-0.8-1.1-1.5-1.7-2.3C236.1,672.1,235.7,672.4,235.3,672.7z"/>
	<path class="st0" d="M474.5,664c-5.3-10.5-15.6-12.3-25.5-15.4c-1.4,2.3-0.5,2.9,1.4,3.6c5.3,2,10.6,3.9,15.7,6.4
		c3,1.4,5,4,5.2,7.8c0.2,5.1-1.2,8.2-6.1,9c-3.8,0.7-8,0-12-0.7c-2.1-0.4-3.5-2.1-3.4-4.8c0.2-3.3-2-5.8-4.7-6.9
		c-5.6-2.3-11.5-4-17.4-5.7c-0.6-0.2-1.6,0.8-2.5,1.3c0.1,0.4,0.2,0.7,0.3,1.1c2.2,0.5,4.4,0.9,6.5,1.5c2.9,0.8,5.9,1.6,8.7,2.9
		c2.8,1.3,6.1,2.5,6.1,6.5c0,5.5-2.3,8.9-7,10.6c-5.7,2.1-11.6,1.6-17.2,0.2c-7.6-1.8-14.9-4.7-22.4-6.8c-5.4-1.5-11-2.5-16.5-3.6
		c-1.6-0.3-2.7,0.2-2.9,2.3c-0.4,3.1-2.8,4.7-5.5,5.5c-6.4,2.1-13.1,3.1-19.8,1.8c-8.2-1.5-10.7-6.4-7.8-14.6c1.1-3,4-5.3,6-8.1
		c0.9-1.2,1.9-2.5,2.1-3.9c1.3-10.4,5.4-15,16-15.3c12.1-0.4,23.4-4.4,34.9-7.1c4.8-1.1,9.8-1.7,14.8-2.2c3.7-0.4,7.1,0.6,10,3.4
		c3.1,2.9,6.2,5.7,9.5,8.2c1.9,1.4,4.3,2.7,6.6,3.1c6.9,1.4,14,2.6,19.8,6.9c2.9,2.1,5.3,5.2,7.4,8.2c0.8,1.2,0.4,3.2,0.6,4.9
		C475.2,664.1,474.9,664,474.5,664z"/>
	<path class="st0" d="M170.6,504c2.2,28.5,8,56.3,13.3,84.4c-10.3-11.1-23.2-17.5-37.9-21.3C154.3,545.8,162.5,524.9,170.6,504z"/>
	<path class="st0" d="M321.5,524.6c-0.3,2.5-0.4,5.8-1,9c-1.6,9-7.6,13.8-17,13.9c-7.6,0.1-13-4.7-14.5-13.5
		c-1.3-7.8-1.1-15.8,2.4-23c1.5-3,4.3-5.3,6.5-8.1c0.7-0.9,1.2-1.9,1.6-3c0.4-1.3,0.3-2.7,0.7-4c0.7-2.4,2.3-3.9,4.9-4
		c2.7-0.2,4.7,1.4,5.1,3.6c0.8,4.6,3.6,7.5,6.5,10.8C321.1,511.2,321.3,517.7,321.5,524.6z M307.1,528.6c-3.7,1.3-6.9,2-9.7,3.4
		c-3.1,1.5-3,3.9-0.3,6.1c2.8,2.3,8.5,2.7,11.9,0.6c2.4-1.5,5.5-3.4,4.5-6.3C312.8,530.6,309.3,529.9,307.1,528.6z"/>
	<path class="st0" d="M310.1,490.1c-1.4-0.5-2.4-0.8-2.8-1c0.7-8.9,1.4-17.4,2.2-25.9c0.1-0.7,1-1.7,1.8-1.9c1.9-0.6,4-0.8,6.4-1.3
		C317.4,470.7,314.6,480.4,310.1,490.1z"/>
	<path class="st0" d="M290.4,462.9c2.2,0,4.2,0,6.6,0c0.9,4.8,1.8,9.6,2.7,14.5c0.6,3.2,1.5,6.4,2,9.6c0.2,1.2-0.5,2.6-0.9,4.5
		C295.9,486.2,290.1,469.9,290.4,462.9z"/>
	<path class="st0" d="M299.9,462.2c2.3-0.3,4.2-0.6,6.9-0.9c-0.6,7.6-1.2,14.8-1.8,22c-0.4,0-0.8,0-1.1,0
		C302.5,476.4,301.2,469.4,299.9,462.2z"/>
	<path d="M103.7,255.6c83.4-97.1,233.7-119.5,337.7-59c-0.8-0.3-1.6-0.5-2.4-0.9c-28.3-13.7-58-22.6-89.2-26.3
		c-58.1-6.9-113.4,2.9-165.6,29.7c-28.6,14.7-54.6,33-78.4,54.6C105.2,254.4,104.4,255,103.7,255.6z"/>
	<path d="M307.1,528.6c2.2,1.2,5.7,2,6.3,3.8c1,2.9-2.1,4.8-4.5,6.3c-3.3,2.1-9,1.7-11.9-0.6c-2.7-2.2-2.8-4.6,0.3-6.1
		C300.2,530.6,303.4,529.9,307.1,528.6z M298.1,535c5.2,3.4,9.2,2.7,12.3-2C306,531.7,302.2,532.3,298.1,535z"/>
	<path class="st0" d="M272.6,367.2c21.4-4,42.9-8,65.2-12.2c-2.6,9.7-4.5,18.7-7.4,27.3c-3,8.9-6.8,17.5-10.9,26
		c-1.7,3.5-4.6,6.5-7.5,9.1c-4.1,3.8-8.4,3.7-13,0.4c-5.5-3.9-9.4-9.4-12.1-15.4c-5.1-11.1-9.6-22.5-14.3-33.8
		C272.5,368.4,272.6,368,272.6,367.2z"/>
	<path class="st0" d="M298.1,535c4.1-2.7,7.9-3.3,12.3-2C307.3,537.7,303.4,538.4,298.1,535z"/>
</g>
</svg>
