<?xml version="1.0" encoding="utf-8"?>
<!-- Generator: Adobe Illustrator 26.0.0, SVG Export Plug-In . SVG Version: 6.00 Build 0)  -->
<svg version="1.1" id="Capa_1" xmlns="http://www.w3.org/2000/svg" xmlns:xlink="http://www.w3.org/1999/xlink" x="0px" y="0px"
	 viewBox="0 0 595.3 472.4" style="enable-background:new 0 0 595.3 472.4;" xml:space="preserve">
<style type="text/css">
	.st0{fill:#FFFFFF;}
</style>
<g>
	<g>
		<path d="M201.8,236.6c-2.4,1.9-4.7,3.7-7.3,5.7c0.8,0.5,1.6,1,2.3,1.4c4.2,2.7,8.6,5.2,12.6,8.2c2.6,1.9,5,4.3,7.1,6.8
			c2.7,3.2,3.6,7,2.9,11.2c-1,6.5-3.3,12.7-5.9,18.7c-2.8,6.3-5.9,12.5-9.8,18.2c-1.8,2.6-3.6,5.4-7,6.1c-0.2,0.1-0.4,0.3-0.7,0.4
			c-2,1.3-4,2.7-6.3,4.2c0.4,3.6-0.8,6.9-4,9.4c-3,2.3-6.4,3.1-10.4,2.5c0,0.7,0,1.3,0.1,1.9c1.1,6.3,1.9,12.6,1.9,19
			c0,4.9-1.5,6.9-6.4,8c-2.3,0.5-4.6,0.8-7.1,1.3c0.1,23.1,0.1,46.1-1.5,69.2c0.4,0.3,0.7,0.5,1.1,0.7c9.6,5.1,14.3,13.7,16.3,24
			c1,5.2-1.2,9.6-5.9,12.2c-2.5,1.3-5.2,2.3-8,2.8c-10.5,2-21.1,2.7-31.7,1.6c-6.6-0.7-12.9-2.1-18.7-5.8c-3,4-7.3,5.4-11.9,6.4
			c-5.5,1.3-11.1,1.7-16.7,1.7c-6.9,0-13.8,0-20.7-0.3c-2.5-0.1-5.1-0.8-7.5-1.7c-6.2-2.3-8.7-7.1-7.5-13.6c1.2-6,4.1-11.2,8.2-15.6
			c1.5-1.6,2-3.2,2-5.3c0.3-16.8,0.6-33.7,1.1-50.5c0.2-6.7,0.8-13.4,1.3-20.2c0-0.8,0-1.5,0-2.4c-2.8-0.4-5.5-0.7-8.2-1.1
			c-1.4-0.2-2.9-0.6-4.3-0.9c-2.5-0.6-4-2.2-4.4-4.6c-0.4-2.3-0.6-4.7-0.4-6.9c0.4-5.5,1.1-11,1.7-16.5c0.1-1.3,0.2-2.5,0.3-3.7
			c-9-2.9-10.9-5.3-10.2-12.6c-2.2-1.4-4.2-2.7-6.4-4c-0.5-0.3-1.3-0.5-1.9-0.4c-5.2,0.5-8.9-1.7-11.5-6.3c-0.9-1.7-2.4-3.2-3.7-4.6
			C7.9,294,3.3,285.6,0.9,276.1c-0.8-3.2-1.1-6.5-0.7-9.8c0.4-4.1,2-7.7,4.9-10.6c1.8-1.8,3.8-3.6,6-5c13.2-8.5,27-15.7,41.8-21
			c1-0.4,2.1-0.7,3.7-1.2c-5.6-3.3-10.6-6.5-14.8-10.9c-4.2-4.3-7.5-9.2-10.2-14.7c-1,0.5-1.8,1-2.7,1.4c-5.6,2.7-11.1,1.1-14.4-4.1
			c-2.2-3.4-3-7.3-3.4-11.3c-0.9-9.6,1-18.9,4-28c2-6.1,4.6-12.1,7-18.1c0.6-1.4,0.8-2.4,0.2-3.9c-1.9-5-1.3-10.2-0.1-15.3
			c0.3-1.5,0.8-3,1.5-4.4c3.1-6,4.2-12.5,5.6-19.1c3.2-15.9,7.5-31.4,14.5-46.1c4.8-10.1,10.7-19.3,19.1-26.8
			C77.1,14.6,93.6,6.8,113,5.5c8.6-0.6,17.1,0,25.8,1c1.4-3.1,4.3-3.7,7.2-3.9c7.6-0.4,14.8,1.1,21.5,4.5c2.4,1.2,4.4,2.8,4.6,5.9
			c2.7,0.8,5.4,1.6,8.1,2.4c9.8,3,19.2,6.8,27.7,12.5c12.7,8.6,21.4,20.4,27.8,34.1c6.9,14.8,8.9,30.5,8.4,46.7
			c-0.3,10.8-2.2,21.5-4.9,31.9c-2.1,8.3-3.3,16.8-4.1,25.3c-0.2,2-0.5,3.9-0.9,5.9c-1.2,5.5-2.4,7.5-6.4,11.3
			c0.3,5.9,0.7,11.8,0.8,17.8c0.2,7.7,0.1,15.4-1.8,22.9c-1.3,5.2-3.6,9.7-7.9,13c-5.4,4.3-10.7,4.4-16.4,0.4
			C202.5,237.1,202.2,236.9,201.8,236.6z"/>
		<path d="M471.4,332.6c1.2,0.4,1.3-0.5,1.5-1.3c0.9-3.5,1.1-6.9,0.6-10.5c-0.7-4.7-1.3-9.4-1.6-14.1c-0.4-7.5,0.8-14.6,4.9-21.1
			c2.2-3.5,4.3-7.1,6.5-10.6c1.8-2.9,3.3-5.9,4.1-9.2c1.1-4.6,2.4-9.2,3.6-13.8c0.2-1,0.4-2,0.6-3.4c-1.1,0.3-2,0.5-2.9,0.7
			c-7,1.9-13.9,4.1-21,5.6c-8.8,2-17.7,1.9-26.3-1.1c-11.7-4.1-18.3-12.4-20.2-24.6c-0.7-4.7-0.5-9.3,0.3-13.9
			c0.2-1.3,0.2-2.3-0.6-3.4c-0.6-0.7-0.8-1.7-1.3-2.8c-1,1.2-1.9,2.2-2.8,3.1c-0.8,0.8-1.6,1.9-3.1,0.9c-0.4-0.2-1.2,0.3-1.9,0.5
			c-3,1-6,2.2-9,3.1c-1.6,0.4-3.4,0.4-5.1,0.3c-2.3-0.3-3.4-2.2-2.6-4.4c0.6-2,2-3.4,3.6-4.6c3.5-2.8,7.3-4.8,11.4-6.6
			c3.4-1.4,4.2-0.7,2.7-5.6c-2.4-8-3.2-16.2-2.4-24.6c0.3-3.1,1.3-6.1,2.8-8.8c0.3-0.6,0.7-1.2,1.1-1.8c3.4-4.6,7.7-4.2,10.3,0.8
			c2.2,4.2,2.8,8.9,3.3,13.5c0,0.4,0.1,0.9,0.1,1.3c0,0.1,0.1,0.1,0.3,0.3c0.4-0.8,0.8-1.5,1.2-2.2c2.5-4.7,4.9-9.5,7.5-14.2
			c0.5-0.9,0.9-2.1,2.5-2.1c0.7,1,0.3,2.1,0,3.1c-2.2,6.3-4.3,12.6-6.5,18.8c-0.7,1.9-1.4,3.6-1.2,5.7c0.1,1.1-0.4,2.3-0.7,3.6
			c1.7,0.3,3.5,0.3,5,0.9c1.5,0.6,2.8,1.9,4.6,3c-0.3,0-0.1,0.1,0.1,0c4.6-2.2,9.4-2.1,14.1-0.7c3.1,0.9,6,2.2,9,3.3
			c1,0.4,1.9,0.9,2.9,1.2c2.1,0.8,4,0.5,5.8-1c2.6-2.4,5.3-4.7,8-7c3.2-2.7,6.7-4.5,10.9-5c3.3-0.3,6.5,0.2,9.7,1.1
			c1.4,0.4,2.8,0.9,4.4,1.4c0.2-1,0.4-1.9,0.5-2.8c0.6-5.1,1.3-10.3,1.9-15.4c0.3-2.2-0.6-4.1-1.9-5.8c-1.7-2.3-3.8-4-6.3-5.2
			c-1.8-0.9-3.6-1.7-5.3-2.7c-2.6-1.6-2.7-3.5-0.4-5.6c1.5-1.4,3.3-2.2,5.4-2c6.4,0.7,12.3,2.7,17.4,6.7c3.1,2.5,4.6,6,5,9.9
			c0.2,2.1,0.1,4.1,0.1,6.2c0,2.2,0,4.4,0,6.8c0.3-0.2,0.5-0.4,0.6-0.5c1.9-3.7,6.7-6,11.9-4.2c10.3,3.5,18.1,13,16.4,25.7
			c-1,7.6-8.4,18.8-19.8,21c-0.8,0.1-1.5,0.3-2.4,0.5c-0.1,1.3-0.1,2.6-0.3,3.9c-0.5,3.8-2.1,7.3-4.1,10.5c-1.3,2.1-2.7,4.2-4.2,6.2
			c-0.9,1.3-1.5,2.7-1.3,4.3c0.6,7.7,1.3,15.3,1.8,23c0.2,3.5,1.6,6.4,3.3,9.4c2.9,4.8,5.5,9.8,8.3,14.8c0.4-0.8,0.9-1.6,1.3-2.5
			c1.2-2.6,3.1-4.4,5.7-5.7c10.3-5,21-8.2,32.4-9.1c4.6-0.4,7.9,1.2,10.6,5c4.2,6.1,8.7,12.1,12.1,18.7c1.9,3.6,1.3,4.9-2.7,5.1
			c-5.9,0.2-11.7,0.2-17.6,0.3c-12.8,0.2-25.5,0.4-38.5,0.7c0,0.5-0.1,1.2-0.1,1.8c0.3,6.7-0.2,13.5-0.8,20.2
			c-0.2,2.4-0.6,4.8,0.5,7.3c0.6-0.3,1.2-0.5,1.7-0.8c2.7-1.5,5.6-2.1,8.5-1.5c3.1,0.6,6.2,1.4,9.2,2.6c4.2,1.7,5.2,3.8,4.1,8.2
			c-0.7,2.7-1.7,5.3-2.5,7.9c-0.2,0.7-0.6,1.4-1,2.4c0.7,0.5,1.4,1.1,2.1,1.7c6.3,5.1,9,11.7,8,19.7c-0.7,5.6-3.8,8.2-9.5,8
			c-4.8-0.1-9.7-0.3-14.5-0.5c-1.2-0.1-2.1,0-3,0.9c-1.4,1.4-3.3,1.7-5.2,2c-6.1,0.8-12.2,0.2-18.3-0.3c-2.7-0.2-5.3-0.8-7.9-1.2
			c-2.8-0.4-4.5-1.9-5.3-4.6c-0.1-0.6-0.4-1.1-0.7-1.6c-0.2,0.1-0.3,0.1-0.3,0.2c-1.2,3.5-4.1,4.3-7.2,4.9
			c-6.8,1.2-13.7,1.6-20.6,1.8c-2.8,0.1-5.6-0.8-8.4-1.4c-0.8-0.2-1.8-0.5-2.3-1.1c-1.4-1.6-3.1-1.5-4.9-1.5c-4,0.1-7.9,0.1-11.9,0
			c-5.3-0.2-7.4-2-8.5-7.2c-2.1-9.8,1.8-17.6,11-22.1c0.9-0.4,1.7-0.8,2.7-1.2c-0.1-0.7-0.2-1.4-0.4-2c-0.8-3-1.7-6-2.4-9
			c-0.3-1.2-0.4-2.4-0.5-3.6c-0.1-2.3,1-4,3.1-5c1.3-0.6,2.8-1,4.2-1.3c4.1-0.8,8.1-0.3,12,1"/>
		<path d="M344.1,161.1c-4.3-0.5-8.1-0.9-11.9-1.5c-12.9-2.2-25-6.4-36-13.7c-6.6-4.3-11.9-10-17-15.9
			c-14.9-16.9-23.9-36.6-27.3-58.8c-0.9-5.5-1.6-11.1-1.8-16.7c-0.5-13.3,2.4-25.8,10.8-36.5c7.9-10.2,18.5-15.8,31.2-17.6
			c12.4-1.8,23.5,2,34,8.2c8.8,5.2,16,12.3,22.2,20.4c5.2,6.7,9.6,13.9,13.8,21.3c0.9,1.6,2,3.3,3.2,4.7c2.5,3,5.8,4.1,9.7,3.8
			c4-0.4,7.7-1.7,11.4-3.2c6.6-2.7,13.1-5.8,19.8-8.2c13.5-5,27.5-8.1,41.8-9.4c7.7-0.7,15.3-0.3,22.8,1.8c9.3,2.7,16.8,8,22.3,15.9
			c6.6,9.5,9.7,20,8.4,31.6c-0.8,7.1-3.2,13.8-6.9,19.9c-7.5,12.7-18.3,21.6-31.7,27.6c-14.6,6.5-29.8,11.3-45.2,15.5
			c-11.5,3.1-23.1,5.9-34.9,7.5c-1.6,0.2-2.9,0.8-4,2c-4.2,5.1-8.6,9.9-12.6,15.1c-7.6,10-14.8,20.2-20.8,31.3
			c-0.6,1.1-1.3,2.2-2.1,3.2c-1.1,1.5-1.3,3-0.6,4.6c1,2.4,2.1,4.7,3.3,7c4.6,9.2,9.3,18.3,13.8,27.5c2.3,4.8,4.5,9.7,6.3,14.7
			c1.5,4.3,2.5,8.8,3.6,13.2c0.5,1.9-0.3,3-2.2,3.4c-1.2,0.3-2.6,0.4-3.8,0.4c-13.6-0.1-27.1-0.2-40.7-0.3c-3,0-6,0-9.1-0.1
			c-3.9-0.1-5.4-1.6-5.6-5.5c-0.8-14.2-0.8-28.3,0.6-42.4c1-10.4,3.5-20.4,7.8-29.9c5.7-12.5,12.2-24.4,21.4-34.7
			C340,165.2,342,163.3,344.1,161.1z"/>
		<path d="M367.4,354c0.1,15.6-12,32.2-29.7,35.4c-14.7,2.6-26.7-2.3-35.7-14.2c-12-15.7-9.2-39.1,5.9-51.6
			c16.9-14,41.3-10.3,53.3,8C365.4,338,367.4,345,367.4,354z"/>
	</g>
	<path class="st0" d="M218.5,181.7c0.4-2.1,0.5-4.2,2.1-5.8c-1.4-4.6-3.8-8.6-6.9-12.3c-6.7-8.1-14.7-14.6-23.6-20
		c-16.1-9.8-33.4-16.4-51.7-20.5c-8.2-1.8-16.6-2.2-25-2.1c-16.7,0.3-33.2,2.2-49.6,5.4c-7.5,1.4-14.7,3.8-21.3,7.8
		c-3.2,2-6,4.4-8.1,7.5c1.2,0.7,1.2,1.6,0.5,2.6c-5.1-0.1-9-3.5-9.4-8.8c-0.4-5.7-0.5-11.5,1.3-17c2.6-8.1,4-16.4,5.9-24.6
		c3.6-14.9,8.5-29.3,16-42.8c11.4-20.6,28.7-33.9,51.1-40.7c8.2-2.5,16.8-3.3,25.3-3c22,0.7,43.3,5.1,63.8,13.2
		c23.8,9.4,38.7,27.2,47.5,50.8c3.8,10.4,5.5,21.2,5.8,32.2c0.4,12-1.2,23.7-3.9,35.4c-2.3,9.9-4.3,19.9-6.4,29.8
		c-0.5,2.1-1.1,4.2-1.9,6.2C227.7,180.7,224.7,182.4,218.5,181.7z M75.6,104.6c0.6-0.1,1.2-0.1,1.8-0.2c7.3-0.9,14.5-2.1,21.8-2.7
		c16.9-1.5,33.6-0.2,50.1,3.8c11.4,2.8,22.4,6.7,33.2,11.4c1,0.4,2,0.9,3.1,1.3C150.9,98,114.2,93.4,75.6,104.6z"/>
	<path class="st0" d="M158.2,248.3c-4.4-0.4-12.5-0.9-20.6-1.8c-9.9-1.1-19.9-2.4-29.8-4c-18.5-2.9-36.4-8.1-52.7-17.6
		c-14-8.1-22.4-20.1-25.8-35.8c-1.3-5.9-0.3-11.5,1-17.1c2.1-8.9,4.2-17.8,6.2-26.7c0-0.1,0.1-0.2,0.1-0.3c-0.1-4,2.3-6,5.6-7.8
		c8.4-4.6,17.5-7.4,26.9-8.7c10.2-1.4,20.3-2.8,30.5-3.9c10.8-1.1,21.7-1.4,32.5,0.2c10,1.5,19.6,4.6,29,8.3
		c13.7,5.4,26.7,12.2,38.3,21.3c7,5.5,12.8,12.1,18.3,19c0.7,0.9,0.8,1.6,0.4,2.6c-2.4,6.9-3.3,14.1-3.8,21.4
		c-0.5,7.7-1.7,15.2-4.6,22.5c-5.1,12.8-14,21.3-27.2,25.3C174.5,247.7,170.8,248.3,158.2,248.3z M165.2,168.9
		c0,3.7,0.4,7.4,2.5,10.7c2,3.2,5.2,3.9,8.2,1.6c1.7-1.3,3.1-3,4.2-4.8c3.6-6,4.8-12.7,4.3-19.6c-0.2-2.2-0.8-4.4-1.7-6.5
		c-2.1-4.7-6.3-5.5-10-1.9c-1.5,1.4-2.7,3.2-3.7,4.9C166.4,158.1,165.3,163.4,165.2,168.9z M80.8,150.9c-0.1,2.8,0.3,6.2,2,9.3
		c2.2,4.1,6,4.8,9.4,1.7c1.5-1.4,2.9-3.2,3.9-5.1c3.2-5.9,4.4-12.3,3.7-19c-0.2-2.3-0.9-4.6-1.9-6.7c-2.1-4.3-6-5-9.5-1.7
		c-1.5,1.4-2.9,3.2-3.9,5.1C82,139.4,80.8,144.7,80.8,150.9z M146.5,203.9c-0.3-1.9-1.5-1.3-2.4-1.2c-4,0.9-8.1,1.7-12.1,2.8
		c-6.1,1.6-11.7,1-17-2.7c-2.4-1.7-5-3-7.6-4.4c-1.4-0.8-1.4-0.7-2.4,1.1c3.2,3.3,6.8,6.2,10.8,8.7c3.8,2.4,7.7,3.1,12.1,2.3
		c5.5-1,10.6-2.9,15.7-5.2C144.6,205,145.6,204.4,146.5,203.9z M128.3,169.2c-0.4,0.1-1.2,0.1-2,0.3c-2.9,0.5-4.9,2.4-5.4,5.2
		c-0.5,3.1-0.4,6.1,2.6,8.1c3.2,2,6.6,2.4,10.1,0.8c5-2.4,5.7-8.9,1.3-12.4C133.1,169.7,130.9,169.3,128.3,169.2z"/>
	<path class="st0" d="M72.4,245c-4.2,5.8-7.8,12-10.8,18.5c-0.7,1.6-1.6,3-3.3,3.7c-1.3,0.6-2.5,1.4-3.9,2.2
		c-5.5-3.9-11.6-6.5-18-8.4c-6.3-1.9-12.7-3-19.4-3.1c0.8,0.2,1.5,0.5,2.3,0.7c7.8,2.1,15.7,4.2,23.2,7.4c4.7,2,9.1,4.5,13.1,7.7
		c0.7,0.6,1.4,1.3,2.1,1.9c1.2,1.1,1.5,2.5,0.8,4c-0.5,1.2-1,2.3-1.6,3.7c-1.7-1-3.9-0.5-5.1-2.3c-0.2-0.3-1-0.2-1.5-0.1
		c-11,1.3-22.2,8.4-25,22.1c-0.2,1-0.1,1.6,0.9,2.4c1.4,1.2,2.1,3.1,3.4,4.9c-2.6,0.4-4.7-0.4-6.5-1.9c-0.6-0.5-1.2-1.1-1.5-1.8
		c-1.6-3.3-4.2-5.9-6.5-8.7c-6.2-7.6-10.5-16.2-12-26c-1-6.3,0.9-11.6,5.7-15.9c1.6-1.4,3.3-2.7,5.2-3.9
		c12.3-7.8,25.1-14.8,38.7-20.3c0.2-0.1,0.3-0.1,0.5-0.2c3.6-1.8,6.9-1.7,10.7,0.1c10.6,5,21.9,7.9,33.3,10.1
		c4.5,0.9,9,1.5,13.5,2.2c0.3,0.1,0.6,0.2,1.2,0.3c-0.5,0.8-0.9,1.4-1.3,1.9c-4.8,6.8-5.3,14-2,21.6c1.7,3.9,4.8,5.8,9.1,5.5
		c1.9-0.1,4-0.5,5.8-1.2c3.7-1.5,5.7-4.4,5.9-8.4c0.3-5.4-1.1-10.4-3.5-15.2c-0.3-0.7-0.7-1.4-1-2.1c0-0.1,0-0.2,0-0.4
		c0.5,0,1-0.1,1.4,0c7.3,0.9,14.5,2,21.8,2.7c7.3,0.8,14.6,1.7,22,1c7.4-0.7,14.4-2.6,21.1-5.8c0.5-0.3,1.1-0.5,1.8-0.8
		c6.4,4.9,13.4,9,19.2,14.8c4.2,4.2,5.3,9,3.9,14.7c-2.3,9.2-5.9,17.8-10.2,26.2c-1.4,2.7-3,5.3-4.5,7.9c-0.5,0.8-1.1,1.4-2,2.6
		c0.4-2,0.8-3.3,0.9-4.6c0.4-4.8-1.3-8.9-4.6-12.2c-5.3-5.2-11.9-8.3-19-10c-2.1-0.5-4.4-0.1-6.7-0.1c-0.5-2.3-1-4.4-1.5-6.4
		c8.7-6.7,18.2-11.4,28.6-14.4c-3.5-0.2-8.4,0.9-13.6,2.8c-4.5,1.7-8.5,4.1-12.4,7c-1.5-0.8-3-1.5-4.3-2.5c-0.7-0.5-1.2-1.4-1.6-2.2
		c-1.6-3.2-3.1-6.5-4.8-9.8c-0.5-1.1-1.3-2-2.4-2.8c0.2,0.7,0.4,1.4,0.6,2.1c2.4,6.7,4.9,13.3,7.2,20c1.8,5.1,2.5,10.4,2.5,15.8
		c-0.1,12.4,1.4,24.6,4.6,36.6c0.7,2.7,1,5.4,1.3,8.2c0.4,4.3,0.7,8.6,0.8,12.9c0.1,4-0.8,5-4.6,6.1c-2,0.6-4,1.1-6.3,1.7
		c-0.1-1.7-0.2-3.3-0.3-5.3c2.2,0.4,4,0.8,6.1,1.2c-1-1.3-2.3-1.9-3.6-2.1c-3.7-0.8-7.4-1.7-11.2-2c-19.8-1.6-39.7-1.5-59.5-0.5
		c-9.1,0.5-18.2,1.7-27.1,4.1c-3.6,1-7.1,2.5-10.7,3.9c-0.8,0.3-1.4,0.8-2,1.6c2.9-0.7,5.8-1.4,9-2.1c-0.2,1.7-0.3,3-0.4,4.7
		c-2.5-0.4-4.8-0.6-7-1c-1.6-0.3-3.2-0.8-4.8-1.1c-2.2-0.4-3.3-1.8-3.5-3.9c-0.2-1.5-0.4-3.1-0.3-4.6c0.5-6.8,1-13.6,1.6-20.4
		c0-0.2,0.1-0.5,0.3-0.8c0.5-0.1,1-0.1,1.5-0.2c2.4-0.3,4.3-1.5,5.2-3.8c1-2.4,1.9-4.9,2.3-7.4c1.1-6.5,2.7-13,2.5-19.7
		c-0.1-4.9-0.9-9.6-3.3-14.1c0.6-1.1,1.2-2.3,1.8-3.6c0.9-1.7,1-3.5-0.1-5.2c-0.6-0.9-0.6-1.7-0.2-2.7c2.2-5.1,4.3-10.2,6.5-15.2
		C68.4,253.2,70.4,249.1,72.4,245z"/>
	<path class="st0" d="M161.9,352.4c0.1,25.2-0.1,50.4-1.2,75.8c-9.9-2.6-18.9-0.9-27.4,4c3.1-0.7,6.1-1.6,9.2-2.2
		c4.3-0.9,8.5-1.1,12.9-0.4c5.7,0.9,10.5,3.4,14.1,7.9c3.6,4.4,6.2,9.3,7.4,14.9c1.2,5.6-0.9,9.6-6.1,12c-3.4,1.6-7.1,2.1-10.8,2.6
		c-7.9,1.2-15.8,1.5-23.8,1.1c-5-0.2-10-1-14.7-2.7c-1.9-0.7-3.6-1.6-5.5-2.5c0.2-1.5,0.6-2.7,0.5-4c-0.1-4.4,0-8.9-0.7-13.2
		c-1.3-7.6-1.4-15.3-1.3-23c0.3-13,0.4-25.9,0.6-38.9c0.1-5.5,0.2-11.1,0.2-16.6c0-1.3,0.4-2.2,1.5-3c2.3-1.8,4.4-3.8,6.4-6
		c-3.3,0.6-5.7,2.6-8.3,4.8c-1.7-2.6-3.8-4.7-6.9-5.7c0.8,1,1.4,2.2,2.3,3.1c2.9,2.8,3.6,6,3.4,10c-0.7,17.9-1,35.9-1.5,53.9
		c0,0.9,0,1.9-0.1,2.8c-0.7,7.1,0.7,14.1,1.6,21.1c0.4,3.6,0.4,7.2,0.3,10.8c-0.1,3.2-1.8,5.5-4.7,6.9c-3.5,1.7-7.2,2.5-11,2.9
		c-11,1.2-22,1.7-33.1,0.6c-2.4-0.2-4.9-1-7.2-2c-3.6-1.5-5.3-4.5-4.8-8.3c0.3-2.6,0.9-5.3,2-7.7c6.5-14.7,22.3-23.3,38.3-21.1
		c0.7,0.1,1.4,0.1,2.2,0.2c-3.5-2.1-11.3-2.5-17.1-1.3c-5.8,1.3-10.8,3.9-15.4,7.7c-0.8-2.6,2.1-76.5,3.2-81.2
		c3.1-0.6,6.4-1.4,9.7-1.9c15.9-2.5,31.9-3.3,48-3.1c8.3,0.1,16.6,0.2,24.9,0.5c3.6,0.1,7.2,0.4,10.9,0.6
		C160.5,352,161,352.2,161.9,352.4z"/>
	<path class="st0" d="M40.3,316.5c1.1-0.2,2.1-0.5,3.1-0.7c0-0.1,0-0.3,0-0.4c-0.3-0.1-0.5-0.2-0.8-0.2c-2.8-0.1-5.2-1.3-7.3-2.9
		c-3.3-2.4-5.7-5.7-8.2-8.9c-0.8-1.1-0.4-1.9,0-2.9c3.1-6.6,7.8-11.5,14.2-15c0.4-0.2,0.8-0.4,1.1-0.6c4.4-3.1,8.9-2.2,13.5-0.5
		c1.5,0.6,2.4,1.6,2.8,3.1c1.4,4.3,2.1,8.7,1.7,13.3c-0.6,6.3-1.8,12.5-3.8,18.5c-0.5,1.6-1.3,3.2-2.2,4.7c-0.7,1.3-2,1.9-3.5,1.7
		c-1.4-0.2-2.8-0.3-4.1-0.7C42.4,323.9,40.6,321.5,40.3,316.5z"/>
	<path class="st0" d="M185.9,317.5c0.6,0.1,1.1,0.2,1.7,0.2c0,5.9-6.3,10.2-13.2,9.2c-4.2-12.9-4.7-26.2-4.2-39.9
		c1.8-0.6,3.6-1.4,5.5-1.8c1.2-0.2,2.7-0.2,3.8,0.3c4,1.9,7.9,3.8,11.6,6.2c3.9,2.5,6.5,6.1,7.2,10.9c0.2,1.6,0.1,3-0.8,4.5
		c-2.3,4.1-5.5,7-9.6,9.1c-0.7,0.3-1.4,0.6-2.1,1C185.9,317.2,185.9,317.4,185.9,317.5z"/>
	<path class="st0" d="M34.6,146.6c-1.3,5-2.5,9.7-3.7,14.3c-1.1,4.2-2,8.4-3.2,12.5c-2.1,7.3-1.6,14.5,0.7,21.6c0.6,2,1.3,3.9,2,5.8
		c-4.2,3.1-10.2,2.2-13.2-2.1c-2.1-3-2.8-6.4-3.2-10c-0.9-7.8,0.3-15.5,2.3-23.1c1.9-7.1,4.4-14,6.7-20.9c0.2-0.7,0.6-1.4,1.1-2.4
		C26.9,145.7,30.4,146.5,34.6,146.6z"/>
	<path class="st0" d="M217.9,184c3,0,5.5,0,8.2,0c0.1,0.6,0.2,1.2,0.2,1.8c-0.1,8.5-0.1,17.1-0.3,25.6c-0.1,4.9-0.9,9.8-2.6,14.5
		c-1.3,3.8-3.6,6.8-6.8,9.2c-3.8,2.8-8.8,3.4-13.3-0.1c0.3-0.4,0.5-0.8,0.8-1.2c6.8-8.3,10.2-17.9,11.6-28.4
		c0.7-5.6,1-11.2,1.6-16.8C217.3,187.1,217.6,185.5,217.9,184z"/>
	<path class="st0" d="M108.8,257.7c0.1-4.2,1.4-8.2,4.1-11.6c0.8-1,1.6-1.6,3.1-1.3c1.5,0.4,3.1,0.5,4.6,0.7c1,0.1,1.6,0.5,2,1.4
		c2.7,5.1,4.2,10.6,3.9,16.4c-0.2,3.9-2,6-5.8,6.9c-1.7,0.4-3.6,0.4-5.4,0.3c-1.7-0.1-2.8-1.2-3.7-2.5
		C109.6,264.9,108.9,261.5,108.8,257.7z M117.2,266c2.6,0.1,4.8-0.5,6.5-2.2c2.1-2.1,1.9-5.1-0.7-6.5c-3.4-1.9-7-1.9-10.4-0.1
		c-2.8,1.5-3,4.8-0.5,6.9C113.5,265.4,115.4,265.9,117.2,266z"/>
	<path class="st0" d="M140.7,6.6c0.8-1.5,2-1.8,3.1-2c4.7-1,9.5-0.4,14,0.8c3.3,0.9,6.5,2.3,9.6,3.6c1.4,0.6,2.6,1.6,3,3.5
		C160.5,10.5,150.7,8.6,140.7,6.6z"/>
	<path class="st0" d="M58.2,272.6c-0.9-0.7-1.6-1.2-2.6-2c1.2-0.7,2.2-1.3,3.7-2.2C58.9,270,58.6,271.1,58.2,272.6z"/>
	<path class="st0" d="M167.6,274.4c-0.4-1.3-0.7-2-1.2-3.3c1.1,0.5,1.8,0.9,2.8,1.3C168.7,273,168.4,273.5,167.6,274.4z"/>
	<path class="st0" d="M172.4,284.4c-0.7,0.3-1.4,0.6-2.2,1C170.3,284,170.3,284,172.4,284.4z"/>
	<path class="st0" d="M506.3,243.9c-4.3,0.8-8.6,1.6-12.9,2.5c-8.4,1.8-16.8,4-25.2,5.6c-8,1.6-16.1,1.6-24.1-0.8
		c-11.4-3.4-18-11-20.3-22.6c-0.9-4.6-1-9.3-0.5-13.9c0.1-0.6,0.2-1.3,0.5-1.7c2.1-2.5,4.2-5.1,6.5-7.3c3.6-3.4,7.8-6.3,10.9-10.3
		c0.3-0.5,1.2-0.7,1.8-0.7c3-0.4,6.1-0.1,9,0.8c3.3,1.1,6.6,2.1,9.7,3.5c3.8,1.7,7.5,3.2,11.6,1c5.9-0.2,10-3.9,14.2-7.3
		c0.8-0.6,1.4-1.5,2-2.3c0.6-0.9,0.4-1.6-1.1-2.1c3.6-1.4,6.9-1.3,10.1-0.6c5.6,1.2,10.9,3.3,15.9,6.2c3.5,2.1,6.4,4.8,8.6,8.3
		c-2.8,0.8-5.6,1.5-8.2,2.5c-3.7,1.4-5.5,5.6-4.1,9.4c0.5,1.3,1.4,2.1,2.6,2.7c3.2,1.5,6.6,2.4,10.2,2.4c0.9,0,1.9,0,3.2,0
		c-0.2,1.3-0.2,2.4-0.5,3.4c-1,3.8-2.9,7.2-5,10.4c-1.3,2-2.6,4.1-4,6.1c-0.9,1.4-1.2,2.8-0.9,4.4c1.2,9,2.3,18,3.6,27
		c0.2,1.3,0.8,2.6,1.5,3.8c2.3,4.5,4.8,9,7.1,13.5c4,8,5.6,16.4,5.1,25.3c-0.2,4.1-0.5,8.1-0.7,12.2c-0.2,3.1-0.3,6.2,0.9,9.3
		c0.7-0.3,1.4-0.5,2.1-0.8c6.7-3.1,13-1.3,19.1,1.8c1.6,0.8,2.1,2.1,1.9,3.9c-0.3,2.5-1.9,8.1-3.6,11.3c-4.1-1.5-8.3-1.4-12.3,0.8
		c1.3-0.2,2.5-0.4,3.8-0.7c2.5-0.5,5-0.2,7.4,0.9c6.8,3.1,13.5,11.6,10.9,22.3c-0.8,3.3-2.7,5-6,5c-5.7,0-11.4-0.2-17.3-0.3
		c-0.1-1.4-0.3-2.7-0.3-3.9c-0.2-9.4-4.6-16.2-12.6-20.9c-0.1-0.1-0.2-0.2-0.6-0.6c4.6-15.4,4.8-31.5,4.8-47.5
		c-0.2,0.3-0.5,0.6-0.5,1c-0.6,3.1-1.2,6.3-1.6,9.4c-1,8.6-1.9,17.2-2.9,25.7c-0.4,3.6-0.9,7.2-1.4,11c-4.4-0.8-8.6-0.9-12.8,0.6
		c0.8,0,1.7,0,2.5,0c0.9,0,1.7,0.1,2.6,0c10.8-0.6,19.7,10,20.3,18.5c0.1,1.6,0.3,3.3,0.4,4.9c0.1,2.4-0.4,3.3-2.7,4
		c-1.9,0.5-3.9,0.8-5.9,0.9c-7.4,0.5-14.8,0-22.2-1.3c-2.4-0.4-4-1.6-4.4-4c-0.6-3.2-1.2-6.5-1.4-9.7c-0.4-6.7,0.2-13.5,1.1-20.2
		c1-7.5,2.2-15,3.4-22.5c0.4-2.4,1.3-4.8,2-7.3c-3.6,4.6-3.6,10.4-5.5,16c-1.1-3.1-1.9-5.8-3-8.4c-1-2.5-1.2-5.3-3.4-7.3
		c1.7,6.2,3.4,12.4,5.1,18.7c0.3,1.3,0.5,2.4,0.2,3.8c-1.5,8.2-2.2,16.4-1.6,24.7c0.1,2.1,0.3,4.1,0.6,6.2c0.5,2.9-1.3,4.9-2.6,7.1
		c-0.3,0.5-1.2,0.7-1.8,0.9c-3,0.6-6.1,1.2-9.2,1.6c-3,0.4-6,0.5-9,0.8c-3.6,0.3-7.2,0.4-10.8-0.6c-5.1-1.4-7.3-4.1-6.9-9.4
		c0.4-6.2,2.9-11.5,7.7-15.6c4.9-4.1,10.5-4.8,16.6-3.5c1.1,0.2,2.2,0.5,3.3,0.6c-2.8-1.6-5.9-2.1-9.2-2.5c-0.1-1.2-0.3-2.4-0.3-3.6
		c-0.4-11.1-1.6-22.2-3.1-33.3c-0.8-6-0.9-12.1,0.6-18c0.5-2.1,1.3-4.1,2.3-6c2.5-4.5,5.1-9,7.8-13.4c1.8-3.1,3.3-6.2,4.1-9.7
		c1.2-5.4,2.6-10.7,3.8-16.1c0.3-1.4,0.8-2.2,2.3-2.6c3.8-0.9,7.5-2.1,11.2-3.1C506.4,244.3,506.4,244.1,506.3,243.9z"/>
	<path class="st0" d="M535,301.8c-0.6-2.4-1.3-4.4-1.7-6.5c-0.2-0.7-0.2-1.6,0.1-2.2c1.7-3.7,3.8-6.9,8-8.6c9.6-4,19.5-6.7,29.8-8.2
		c0.3-0.1,0.7,0,1-0.1c3.7-0.6,6.2,0.8,8.2,4c2.8,4.5,5.8,9,8.8,13.4c1.1,1.7,2.4,3.4,3.5,5.1c0.4,0.6,0.8,1.3,1.1,2
		c-1.1,1.2-2.4,1.1-3.7,1.1c-7.8,0-15.5,0-23.3,0c-10.2,0-20.3,0.1-30.5,0.1C535.9,301.9,535.5,301.8,535,301.8z M545.2,287.4
		c0,0.1,0,0.2-0.1,0.3c0.4,0.1,0.8,0.4,1.2,0.4c5.5,0.4,11,0.4,16.5-0.5c3.7-0.6,7.2-1.6,10.5-3.5c1.7-1,3.3-2.3,4.2-4.2
		c-3.2,2.3-6.8,3.6-10.6,4.4c-3.4,0.7-6.9,1.3-10.4,1.8C552.7,286.6,548.9,286.9,545.2,287.4z"/>
	<path class="st0" d="M471.4,332.6c0.6,0.6,1.1,1.2,1.9,2c0.4-1.3,0.7-2.3,1-3.2c0.2,0,0.3,0,0.5,0.1c0.5,6.2,1,12.3,1.4,18.4
		c-2.9,1.2-5.8,2.1-8.4,3.5c-2.7,1.4-4.7,3.8-6.3,6.4c-1.6,2.6-2.7,5.4-3.4,8.4c-0.7,3-0.2,6,0.5,9.2c-1.4,0-2.6,0-3.8,0
		c-3.6-0.1-7.2-0.2-10.9-0.5c-3.3-0.2-4.8-1.4-5.4-4.6c-0.5-2.7-0.7-5.5-0.6-8.2c0.1-2.6,1.3-5,3-7c3-3.6,6.8-6.1,11.2-7.6
		c1.5-0.5,3.2-0.5,4.9-0.7c-1.5-1.3-3.4-0.5-5.3-1c-1-4.2-2.1-8.5-2.9-12.8c-0.5-2.8,0.5-4.2,3.3-5c6.4-1.7,12.6-1.9,18.3,2.3
		C470.7,332.4,471.1,332.5,471.4,332.6C471.5,332.7,471.4,332.6,471.4,332.6z"/>
	<path class="st0" d="M534,203.9c0.4,1.1,0.7,2,1,3.1c0.6-2.7-0.4-4.8-1.9-6.7c-1.1-1.5-2.6-2.8-3.8-4.2c-4.1-4.4-6.5-9.4-6.6-15.6
		c0-4.9,4.3-7.8,8.4-7.2c0.7,0.1,1.4,0.2,2,0.4c8.7,2.8,15.5,12,15.6,20.9c0.2,12.5-10.5,23.2-22.9,23.2c-3.9,0-7.5-0.9-11-2.5
		c-1.6-0.7-2.5-1.7-2.5-3.5c0-2,0.3-4,2.3-4.8c2.5-1,5-1.9,7.6-2.3C526.2,204.2,530.1,204.2,534,203.9z"/>
	<path class="st0" d="M397.3,214.3c-0.2-1.7,0.9-2.8,1.9-3.8c3.3-3.4,7.2-5.8,11.5-7.8c4.7-2.2,4.8-2.2,3.3-7.2
		c-1.7-5.8-1.8-11.7-1.7-17.7c0.1-3.7,0.3-7.4,1.7-10.9c0.7-1.7,1.5-3.5,2.6-5c2.1-2.8,4.1-2.6,5.7,0.4c1.5,2.7,2.6,5.7,3,8.8
		c0.6,4.4,1.1,8.9,1.6,13.4c0.1,0.9-0.1,2-0.6,2.6c-3.7,5.3-6.3,11.1-8.9,16.9c-0.8,1.9-1.7,3.8-2.7,5.6c-0.4,0.8-1.2,1.6-1.9,1.9
		c-3.8,1.3-7.7,2.4-11.6,3.5C399.9,215.2,398.5,215.4,397.3,214.3z"/>
	<path class="st0" d="M518.1,193.2c-3.7-2.1-7.1-4-10.7-6c0.1-0.4,0.1-1.1,0.3-1.7c0.8-4.5,1.7-9,2.5-13.5
		c1.3-7.5-1.2-11.9-7.9-15.8c-1.6-0.9-3.5-1.5-5.2-2.3c-1-0.5-1.9-1.1-2.9-1.6c0.7-2.4,2.4-3.3,4.5-3.5c0.8-0.1,1.6,0,2.3,0.2
		c4.1,0.8,7.9,2.5,11.5,4.6c5.2,3,7.3,7.7,7.2,13.4c0,5.3-0.4,10.7-0.7,16C518.7,186.4,518.4,189.7,518.1,193.2z"/>
	<path class="st0" d="M439.8,195.3c-2.6,2.4-5,4.6-7.4,6.8c-3.2,2.8-6.5,5.4-8.8,9c-0.2,0.3-0.5,0.4-1,0.8c-1.6-3.5-2.7-6.9-1-10.5
		c1.7-3.9,4.6-6.8,7.9-9.4c2.2-1.7,6.1-1.1,8.3,1C438.4,193.6,438.9,194.3,439.8,195.3z"/>
	<path class="st0" d="M521.4,180.8c0.5,2.7,0.9,5.3,1.6,7.8c1,3.5,3,6.5,5.8,9c1.5,1.3,2.8,2.7,4.3,4.2c-1.4,0.6-6.8,1-7.6,0.6
		c-0.4-0.2-0.6-0.6-0.9-0.9c-1.5-1.9-2.9-3.8-4.3-5.8c-0.4-0.5-0.5-1.2-0.6-1.8c-0.1-0.5,0.1-1,0.1-1.5
		C520.3,188.5,520.8,184.7,521.4,180.8z"/>
	<path class="st0" d="M436.3,165.6c-0.1,0.5-0.1,1-0.3,1.4c-1.8,4.9-3.5,9.9-5.3,14.8c-0.3,0.8-0.9,1.5-1.4,2.2
		c-0.2-0.1-0.5-0.1-0.7-0.2c0-1.1-0.3-2.4,0.1-3.4C430.7,175.3,433.2,170.4,436.3,165.6z"/>
	<path class="st0" d="M429.8,185.9c0.1,1.9-0.4,3.6-1.6,5c-1.4,1.6-3,2.9-4.8,4.3C425.2,191.8,427.2,188.6,429.8,185.9z"/>
	<path class="st0" d="M415,211.7c1.3-2.7,2.5-5.4,3.8-8.1C419.7,206.8,418.7,209.2,415,211.7z"/>
	<path class="st0" d="M497.7,82.2c0,9-2.6,16.9-7.1,24.3c-7,11.5-16.9,19.7-29.1,25.2c-15.9,7.2-32.4,12.9-49.2,17.5
		c-9.1,2.5-18.3,4.4-27.4,6.6c-1.6,0.4-2.9,0.2-4.4-0.6c-3.5-1.7-7.3-1.8-11.2-1.6c-7.6,0.4-14.8,2.3-21.8,5.1
		c-0.8,0.3-1.7,0.5-2.5,0.5c-18-1.6-34.8-6.8-49.6-17.7c-5.3-3.9-9.5-8.8-13.8-13.7c-14.7-16.6-23.4-36.1-27.2-57.8
		c-1.1-6.6-2.1-13.1-1.9-19.8c0.2-11.7,3.3-22.5,10.8-31.7c11.2-13.8,30.3-19.4,47.2-14c12.4,4,22.2,11.6,30.5,21.4
		c6.6,7.8,11.8,16.6,16.6,25.6c1,1.8,2,3.7,3.2,5.3c3.7,5.2,8.8,7.2,15.1,6.5c4.1-0.4,7.9-1.7,11.7-3.2c6.2-2.5,12.4-5.3,18.6-7.7
		c13.5-5.2,27.5-8.5,41.9-9.9c7.5-0.7,15-0.4,22.3,1.8c6.3,2,11.8,5.3,16.2,10.3C493.7,62.6,497.5,71.8,497.7,82.2z"/>
	<path class="st0" d="M378.9,157.1c-2.1,2.2-4.3,4.2-6.3,6.5c-11.1,12.4-21.1,25.6-29.4,40c-0.8,1.3-1.6,2.7-2.6,3.9
		c-1.7,2.3-2.2,4.7-1.1,7.3c1,2.4,2,4.8,3.2,7.1c5.4,10.6,11,21.1,16.2,31.8c2.9,5.8,5.6,11.7,7.1,18c0.4,1.8,0.8,3.5,1.2,5.6
		c-1,0.2-1.9,0.4-2.8,0.4c-2.9,0.1-5.9,0.1-8.8,0.1c-13.4,0-26.8,0-40.1,0c-4.6,0-5-0.4-5.3-4.9c-0.6-12.1-0.6-24.2,0.1-36.3
		c0.9-16,5.6-30.8,13.7-44.6c5.4-9.2,11.5-17.8,19.1-25.3c3.8-3.7,8-6.1,13.1-7.3c6.5-1.6,13-2.8,19.7-3c0.9,0,1.8,0,2.8,0
		C378.8,156.7,378.8,156.9,378.9,157.1z"/>
	<path class="st0" d="M316.9,323c-1.3,5.7,0.9,10.1,4.9,13.7c1.4,1.3,2.9,2.5,4.5,3.4c7.6,4.3,15.9,6.6,24.7,6.6
		c0.8,0,1.6,0,2.3-0.2c4.5-0.7,7.5-3.2,8.7-8.3c0.6,1.3,1,2.1,1.3,3c2.3,6.3,2.7,12.8,1.5,19.4c-0.3,1.7-1,3.2-2.3,4.5
		c-5.9,5.6-13,8-21,7.9c-12-0.3-22.6-4.4-31.9-11.8c-4.7-3.8-8.1-8.5-9.3-14.5c-0.5-2.2-0.4-4.2,0.5-6.3c3-7.2,7.8-12.7,14.4-16.8
		c0.4-0.2,0.8-0.4,1.2-0.6C316.4,322.9,316.5,322.9,316.9,323z"/>
	<path class="st0" d="M349.8,343.6c-8.1-0.3-15.6-2.2-22.6-6.3c-2.6-1.5-5-3.4-6.6-6.1c-0.8-1.5-1.5-3.1-1.8-4.8
		c-0.5-3.2,1.1-5.6,4.2-6.3c12.7-3.2,23.6,0,32.9,9.2c0.7,0.7,1.3,1.6,2,2.3c2.2,2.3,2.2,4.9,1.2,7.7c-1.1,2.8-3.4,3.9-6.2,4.3
		C351.9,343.7,350.8,343.6,349.8,343.6z"/>
	<path class="st0" d="M298.8,349.1c4.5,12.6,14.3,18.6,25.5,23.1c4.5,1.8,9.2,2.9,14.1,3.2c8.7,0.6,16.7-1.1,23.7-6.8
		c-0.5,1.1-1.1,2.1-1.6,3.2c-1.6,3.3-4.3,5.2-7.8,6.3c-6.4,2-12.8,2-19.2,0.8c-7.8-1.4-15.1-4.2-21.9-8.3c-4.6-2.8-8.3-6.4-11.2-11
		C298.5,356.4,297.7,353.1,298.8,349.1z"/>
	<path class="st0" d="M350.8,381.8c-18.6,13.8-44.7,3.5-50.7-17.6c2.8,2.6,5.2,5.4,8.2,7.6c2.9,2.2,6.3,4,9.6,5.6
		c3.4,1.6,7,2.9,10.7,3.9c3.6,0.9,7.3,1.4,11,1.8C343.3,383.3,347,382.7,350.8,381.8z"/>
	<path d="M545.2,287.4c3.8-0.4,7.5-0.7,11.2-1.3c3.5-0.5,7-1,10.4-1.8c3.8-0.8,7.4-2.1,10.6-4.4c-0.9,1.9-2.5,3.1-4.2,4.2
		c-3.2,1.9-6.8,2.9-10.5,3.5c-5.5,0.9-11,0.9-16.5,0.5c-0.4,0-0.8-0.3-1.2-0.4C545.1,287.6,545.2,287.5,545.2,287.4z"/>
	<path class="st0" d="M122.3,176.9c0-3.8,1.7-5.8,5.4-6.2c2.3-0.2,4.5,0.1,6.3,1.6c3.6,2.8,3,8.1-1.2,9.9c-2.9,1.3-5.7,0.8-8.4-0.8
		C122.7,180.4,122.2,178.7,122.3,176.9z"/>
	<path class="st0" d="M117.6,263.1c-1.4-0.5-2.9-0.8-4.1-1.4c-1.1-0.6-1.1-1.6-0.3-2.6c1.9-2.2,7.1-2.2,8.9,0c0.8,1,0.8,2-0.3,2.6
		C120.5,262.4,119.1,262.7,117.6,263.1z"/>
</g>
</svg>
