<?xml version="1.0" encoding="utf-8"?>
<!-- Generator: Adobe Illustrator 26.0.0, SVG Export Plug-In . SVG Version: 6.00 Build 0)  -->
<svg version="1.1" id="Capa_1" xmlns="http://www.w3.org/2000/svg" xmlns:xlink="http://www.w3.org/1999/xlink" x="0px" y="0px"
	 viewBox="0 0 595.3 577" style="enable-background:new 0 0 595.3 577;" xml:space="preserve">
<style type="text/css">
	.st0{fill:#FFFFFF;}
</style>
<g>
	<path d="M592.7,103.9c-2.7-14.9-8.2-28.8-15.9-41.8c-3.8-6.4-7.8-12.7-13.6-17.6c-4.2-3.6-8.6-7.1-13.2-10.1
		c-14.6-9.5-30.6-15.5-47.2-20c-2.8-0.8-5.5-1.4-8.3-2.1c-0.8-4.3-3.6-6.9-7.2-8.8c-1.7-0.8-3.5-1.5-5.3-2.1
		c-5.2-1.6-10.5-1.9-15.9-1.5c-6.1,0.4-11.7,1.8-14.8,7.7c-18.1,0.6-25.4,1.9-34,3.7c-22.9,4.9-42.4,15.9-57.9,33.5
		C339.1,68,328.9,95.4,326.8,126c-0.7,8.9-0.8,17.9-1,26.8c-0.1,3.6-1,6.8-3,9.8c-1.6,2.4-2.8,5.2-2.8,8.2c0,5.9,1.1,11.6,4.2,16.7
		c0.8,1.2,1,2.2,0.5,3.6c-3.4,10.1-6.1,20.4-7.6,31c-1.5,11.3-1.1,22.5,2,33.5c1.1,4,3.3,7.4,6.7,9.9c3.6,2.7,7.7,4,12.2,2.8
		c1-0.3,2-0.7,2.9-1c11.8,13.7,10.4,12.1,24.2,21.7c-0.8,0.6-1.4,1.1-2.1,1.6c-4.8,3.7-9.7,7.3-14.4,11.1
		c-9.8,7.9-19.5,15.9-29.1,24c-2.4,2-4.5,4.4-6.6,6.7c-1.3,1.5-1.9,3.2-1.4,5.3c0.5,1.8,0.9,3.6,1.3,5.6c-6.1,1.8-11.2,5.1-15.9,9.2
		c-0.6,0.6-1.7,0.7-2.6,0.8c-2,0.2-4.1,0.2-6.2,0.4c-4.2,0.4-7.1,2.6-8.6,6.5c-0.5,1.3-0.9,2.6-1.1,4c-0.7,4.6,1,8.1,4.8,10.7
		c0.6,0.4,1.3,0.7,1.9,1.1c-0.2,0.3-0.2,0.5-0.3,0.6c-5.4,4.7-8.8,10.7-11.5,17.1c-4.5,10.7-6.2,22-6.6,33.5
		c-0.4,11.7-0.3,23.4,0.4,35.1c0.1,1.4,0,2.8,0,4.2c-2.1-0.3-4-0.7-6-0.8c-2.1-0.2-2.4,0.2-2,2.3c0.1,0.4,0.2,0.9,0.2,1.3
		c0.4,5.8,0.8,11.7,1.2,17.6c0,0.6,0,1.2,0,2.2c-1.1-0.6-2-1.1-2.8-1.5c-18.4-10.2-36.8-20.3-55.3-30.4c-1.8-1-2.7-2.2-3.2-4.2
		c-2.1-9.3-6.4-17.5-13.1-24.4c-3.9-4-8.5-6.6-14-7.5c-2-0.3-4.1-0.2-6.2-0.4c-3.9-0.4-7.1,1-9.2,4.2c-1.9,2.9-3.7,5.9-4.7,9.2
		c-2.9,9.3-3,19.1-2.6,28.8c0.3,6.3,1.5,12.5,2.9,18.7c1.6,6.9,3.6,13.6,7.4,19.6c1.6,2.5,3.6,4.9,5.7,7c1,1,2.7,1.9,4.1,1.9
		c5.9,0.2,11.3-1.4,16-5.1c5.1-4,8.9-9,11.3-15c0.3-0.9,0.7-1.7,1.1-2.7c1,0.3,1.8,0.6,2.6,0.9c19.7,7.4,39.3,14.8,59,22.3
		c3.2,1.3,2.8,0.5,3,4.2c0.4,10.3,1,20.5,1.2,30.7c0.1,3.8,1.9,6.3,5,7.8c3.1,1.6,6.3,3,9.6,3.9c10.3,2.9,20.8,3.8,31.4,3.8
		c8.3,0,16.6-0.3,24.6-3.2c0.1,0,0.3,0.1,0.5,0.1c1.6,1.4,3.4,2.8,5.3,3.6c11.9,5.1,24.4,7.7,37.4,6.9c12.2-0.7,23.7-4.1,34.8-9
		c3-1.4,5.8-3.2,8.5-5c3.1-2.1,4.6-5.2,4.5-9.1c-0.2-6.8-0.5-13.7-0.7-20.5c-0.1-0.8-0.2-1.6-0.2-2.3c0.1,0,0.2,0,0.3,0
		c0,0.7-0.1,1.5-0.1,2.3c0.1,0.1,0.2,0.2,0.3,0.3c1.1,8.3,3.2,16.4,2.2,24.8c-0.1,0.9-0.1,1.7-0.1,2.6c0,2.1,0.7,3.9,2.2,5.4
		c4.3,4.5,9.1,8.3,14.4,11.5c3.5,2.1,7.2,3.7,11.3,4.4c5,0.8,9.9,1.6,14.9,2.2c7.8,0.9,15.7,1.2,23.6,0.2c4.2-0.6,8.4-1.5,12.4-2.7
		c5-1.5,7.8-5.2,8.5-10.4c0.2-2,0.2-4-0.1-6c-1.1-7.1-4-13.4-8.3-19.1c-3.6-4.8-8.1-8.5-13.7-10.8c-2-0.8-3-2.1-3.6-4
		c-0.3-0.9-0.6-1.9-0.7-2.8c-0.6-4.5-1.1-8.9-1.7-13.4c-1.8-14.1-4-28.1-7.1-42c-0.7-2.9-1.3-5.8-2-8.9c5.7-0.1,11.2-0.4,12.6-7.5
		c4.7,7.4,12.6,7.6,19.3,3.3c3,2.1,6.2,2.1,9.6,0.9c3.7-1.3,4.7-4.6,5.3-8c4.8-1.8,7.6-5,6.8-10.3c2-1,3.8-1.8,5.6-2.7
		c5.5-2.9,6.3-4.2,4.8-10.3c-1.7-6.7-3.6-13.5-5.7-20.2c-4.9-15.9-10.1-31.6-15.1-47.5c-2.7-8.8-5.2-17.6-9-26
		c-2.9-6.4-6.5-12.3-11.6-17.1c-0.2-0.2-0.3-0.5-0.6-1.1c17-1.4,32.5-6.3,45.3-17.4c6.5,3.1,12.3,1.9,17.7-1.8
		c2.9-1.9,5.1-4.4,7.1-7.2c5.2-7.3,8.1-15.6,9.7-24.4c1.4-7.9,1.7-15.8,1.2-23.8c-0.3-5.1-0.6-10.2-0.9-15.3c0.5-0.4,0.9-0.7,1.3-1
		c3-2.1,5-5,5.8-8.6c0.4-1.8,0.8-3.7,1-5.6c0.8-6.8,1.2-13.7,2.3-20.4c2.4-14.9,4.6-29.9,5.3-45.1
		C595.4,127.1,594.8,115.5,592.7,103.9z M329.1,484c0,0.3-0.1,0.5-0.2,1c-13.1-5.3-26.5-9.5-40.4-12.7c-0.3-3.2-0.6-6.4-0.8-9.5
		c-0.8-10.7-1.5-21.4-1.1-32.2c0.4-9,1.8-17.7,4.9-26.2c0.5-1.3,1.1-2.6,1.6-3.8c0.2-0.4,0.5-0.6,0.9-1.2c3.5,4.7,7.8,6.7,13.5,4.5
		c3,5.9,7.7,8.8,14.6,7.4c0.4,0.9,0.9,1.8,1.3,2.8c4.4,10.8,6.6,22,7.3,33.6C331.5,459.9,330.4,471.9,329.1,484z M338.5,399.1
		c-0.3-0.2-0.5-0.3-0.8-0.3c-0.9-6.3,1.4-11.5,6.3-15.8C342.2,388.4,340.3,393.7,338.5,399.1z M352.7,518.1c0.5-3.3,1-6.3,1.5-9.4
		c0.6-3.6,1.2-7.2,1.8-10.8c0.3-2,0.2-2.3-1.7-3.3c-2.2-1.1-4.5-2.1-6.8-3.2c0.6-10.1,1.3-20.2,1.7-30.3c0.4-10.1,0.2-20.2-1.1-30.7
		c3.3,0.7,6.3,1.4,9.5,2.1c0.2,28.1,2.3,55.9,4,83.7C358.5,516.9,355.7,517.5,352.7,518.1z"/>
	<path d="M53.5,498c-5.9-2.1-11.5-3.9-17-6c-7.6-2.9-15.1-3.2-22.9-1.2c-2.5,0.7-5.1,1.2-7.6,1.4c-3.5,0.3-5.5-1.4-5.8-4.9
		c-0.5-5.5,0.8-10.5,4.5-14.7c3.1-3.5,7.3-4.6,11.8-4.2c11.4,1.1,21.7,4.9,30.9,11.9c0.6,0.5,1.2,1,1.8,1.5c0.5,0.4,1,0.9,1.9,1.6
		c0-0.8,0-1.3,0-1.7c-0.9-9.9-2-19.8-1.6-29.8c0.6-16.2,2.1-32.3,6.8-48c0.1-0.3,0.2-0.6,0.4-1.5c-1.3,0.8-2.2,1.3-3,1.8
		c-10.8,5.8-23.1,5.5-32.4-5.3c-1.2-1.4-2.3-2.9-3.2-4.4c-3.1-5.1-5-10.7-5.5-16.6c-0.6-6.7,2.2-11.9,7.7-15.4
		c2.7-1.7,5.7-2.9,8.6-4.5c-0.3-0.2-0.6-0.4-1-0.6c-2.4-1.2-4.9-2.2-7.2-3.6C12.8,348.6,9.2,341,10,331.6c0.9-11,5.5-20.2,14.3-26.9
		c9-6.9,19.3-8.6,30.3-6.1c4.3,1,8.2,2.8,11.9,5.1c0.5,0.3,1,0.6,1.7,1c0.1-2.3,0-4.4,0.3-6.4c1.3-8.2,6.3-13.3,13.9-16
		c6.4-2.3,13.1-2.4,19.7-1.1c9.1,1.7,17.1,5.5,24.3,11.2c9.8,7.8,12.2,20.8,7.6,32c-1,2.5-2.8,4.7-4.3,7.1c-0.2,0.4-0.5,0.7-0.9,1.3
		c1.1,0.2,1.9,0.3,2.8,0.4c6.9,0.8,12.3,4.1,15.7,10.2c4.7,8.5,7.2,17.6,6.7,27.4c-0.5,10.1-6.2,17.1-16.3,20.1
		c-7,2.1-14.1,2.3-21.3,0.7c-1.1-0.2-2.2-0.4-3.6-0.7c0.4,1.1,0.7,1.8,1,2.6c1.3,3.7,2.4,7.4,2.3,11.4c-0.2,4.1-1.8,7.3-5.4,9.5
		c-3.8,2.3-7.8,4.2-12.2,5.1c-8.6,1.7-15.9-0.8-22.2-6.6c-1.3-1.2-2.8-2.3-4.1-3.4c-1.2,2.8-2.1,6.1-2.9,9.5
		c-4.2,19.4-5.2,38.9-4.1,58.7c0.5,8.8,2.4,17.3,4.3,25.9c1.5,7.1,3.2,14.2,4.1,21.4c0.9,7,1.1,14.2,1.4,21.2c0.1,1.8-0.4,3.8-1,5.6
		c-1.4,3.9-4.9,5.9-9.5,5.7c-3.8-0.2-6.7-2.3-7.6-6.3c-0.7-3-0.8-6.2-0.8-9.3c0-4.2,0.4-8.3,0.8-12.5c0.7-6.7-0.2-13.3-1.3-19.9
		C54.8,505.5,54.1,501.6,53.5,498z"/>
	<path class="st0" d="M122.9,333.4c0,0.3-0.1,0.5,0,0.6c0.1,0.4,0.3,0.8,0.5,1.2c2.1,0.1,4.2,0.1,6.2,0.3c6.7,0.8,11.8,4,14.7,10.1
		c3.4,7.1,5.4,14.6,5.3,22.6c0,2.3-0.4,4.7-1.1,6.9c-1.5,4.9-4.8,8.3-9.5,10.4c-7.2,3.1-14.7,3.8-22.4,3c-2.6-0.3-5.3-0.7-8.2-1.1
		c0.4,0.8,0.6,1.2,0.8,1.7c2.1,4.1,3.5,8.5,3.9,13.1c0.4,4.4-0.9,8-5.1,10.1c-3.5,1.8-7,3.4-10.9,4.1c-6.2,1.2-11.7-0.3-16.7-4
		c-6.9-5.2-11.1-12.3-13.9-20.3c-0.2-0.5-0.3-1-0.5-1.5c-0.1-0.2-0.2-0.3-0.4-0.7c-0.6,0.6-1.2,1.2-1.8,1.8
		c-3.5,3.7-7.1,7.1-11.6,9.5c-5.2,2.6-10.6,3.7-16.3,2.6c-2.8-0.5-5.3-1.7-7.5-3.4c-7.8-6.3-11.8-14.6-12.4-24.5
		c-0.2-3.8,1.3-6.9,4.1-9.5c3.3-3.1,7.3-4.9,11.5-6.4c2.2-0.8,4.4-1.5,6.7-2.6c-0.8-0.2-1.7-0.3-2.5-0.5c-6.8-1.4-12.8-4.3-17.4-9.6
		c-3.3-3.7-4.9-8.2-4.7-13.1c0.4-9,3.5-16.9,10-23.3c6.9-6.8,15.3-9.6,24.8-9.3c6.6,0.2,12.7,2.2,18.5,5.5c1.4,0.8,2.9,1.6,4.9,2.7
		c-1.3-3.6-1.2-6.8-0.7-9.9c0.9-5.5,3.8-9.6,8.8-12.1c5.1-2.7,10.6-3.2,16.2-2.6c10.3,1.1,19.3,5.2,27.3,11.8
		c4.1,3.4,6.5,7.9,7.4,13.1c1,5.8,0.3,11.4-2.2,16.7C127.2,329.5,125.3,331.7,122.9,333.4z M104.3,356.3c-0.4-12.4-8.5-24.5-20-29.2
		c-7.1-2.9-14.3-1.2-19.4,4.5c-3.2,3.6-5,7.9-6,12.5c-1.4,6.6-1.2,13.2,2.3,19.2c4.3,7.3,10.5,12.2,18.7,14.3
		c10.3,2.7,19.2-2.3,22.5-12.4C103.4,362.3,103.7,359.3,104.3,356.3z"/>
	<path class="st0" d="M64.6,394.9c1.8,3.5,3.6,7,5.5,10.4c0.6,1,0.2,1.8-0.1,2.7c-1.2,4.7-2.6,9.4-3.5,14.1
		c-1.1,5.9-1.9,11.8-2.5,17.7c-1,11.1-1.4,22.3-1,33.5c0.3,10.7,2.4,21.2,4.5,31.6c2.2,10.5,3.4,21,3.3,31.7c0,3.4-0.1,6.7-0.2,10.1
		c0,0.8-0.2,1.5-0.4,2.3c-1,3.2-3.8,4.6-6.9,3.7c-1.4-0.4-2.2-1.4-2.6-2.7c-0.5-1.9-0.9-3.9-1-5.9c-0.2-3.3-0.2-6.6,0-9.9
		c0.4-9.1-0.8-18.1-2.3-27.1c-2.6-15.1-4.4-30.3-4.3-45.7c0.1-10.5,0.9-20.9,2.3-31.3c1.2-8.5,2.6-16.9,3.8-25.4
		C59.7,400.6,61.2,397.2,64.6,394.9z"/>
	<path class="st0" d="M52.7,495c-2.1-0.8-4.1-1.4-6-2.1c-2.6-1-5.1-2.1-7.7-3.2c-8.8-4.1-18-4.8-27.4-2.4c-1.8,0.5-3.6,0.8-5.4,1
		s-2.2-0.2-2.3-1.9c-0.2-3.4,0.6-6.5,2.4-9.4c2.1-3.3,5.3-4.6,9.1-4.5c2.5,0.1,5,0.5,7.5,1c9.1,2,17.5,5.4,25,11
		C51.5,487.1,52.9,490.4,52.7,495z"/>
	<path class="st0" d="M61.8,349.2c0.4-5.5,1.5-10.7,5-15.2c4.7-6.1,11.6-7.8,18.2-4.1c7.7,4.4,13.2,10.7,15.1,19.6
		c1,4.9,0.7,9.8-1.2,14.6c-1,2.5-2.4,4.8-4.5,6.5c-3.2,2.7-6.9,3.8-10.9,3c-9.6-1.9-16.6-7.2-20.1-16.5
		C62.4,354.6,62.3,351.8,61.8,349.2z"/>
	<path class="st0" d="M335.4,186.5c0.9-2,0.9-3.9,2.6-5.4c0.1,5.2-0.4,9.9-1.1,14.8c-0.8-0.5-1.4-0.7-1.9-1.1
		c-5.8-4.2-8.6-10-9.5-16.9c-0.7-5-0.3-10,1-14.9c1-3.8,1.7-7.6,2-11.5c0.9-16.5,4.2-32.6,8.5-48.5c3.8-13.9,9-27.1,16.6-39.4
		c9.9-15.9,22.6-28.9,39-38.1c11.2-6.3,23.3-10.3,36-12.2c39.1-5.9,76.2,0.9,111.2,19.1c8.8,4.6,16.8,10.4,23.7,17.6
		c4.1,4.2,7.1,9.2,10,14.2c7.5,13,12.6,26.9,15,41.8c1.5,9.8,1.9,19.6,1.6,29.5c-0.5,16.2-3.1,32.2-5.6,48.2
		c-0.9,5.6-1.3,11.4-1.9,17c-0.3,2.6-0.6,5.2-1.1,7.7c-0.6,3.2-2.2,5.9-5,7.6c-3.1,1.9-6.3,3.6-9.8,5.5c-0.1-2.9,0.5-5.2,1-7.6
		c0.4-2.3,1-4.6,1.8-6.9c0.3,1,0.6,1.9,1,3.4c0.2-0.9,0.3-1.3,0.3-1.7c-0.3-5.7-2.6-10.7-6.2-15.1c-4.5-5.6-9.9-10.2-15.4-14.6
		c-20.6-16.5-44-27.4-69.4-34.2c-9.5-2.6-19.3-4.3-29.1-5.1c-5.8-0.5-11.6-0.2-17.4,0.6c-26.7,3.6-51.9,11.8-76.1,23.5
		c-6.2,3-11.9,6.8-16.6,11.9c-1.5,1.6-2.8,3.3-3.9,5.1C335.5,182.4,335,184.1,335.4,186.5z M394.6,129.3c0,0.1,0.1,0.2,0.1,0.3
		c2.6-0.6,5.2-1.2,7.8-1.8c8-1.9,16.1-3.6,24.3-4.3c13.5-1.3,26.8-0.1,40.1,2.3c21.8,3.9,42.8,10.7,63,19.8c0.5,0.2,1,0.4,1.5,0.6
		c-0.5-0.9-1.1-1.4-1.9-1.9c-4.3-2.6-8.5-5.4-12.9-7.7c-22-11.4-45.3-17.9-70.1-18.6c-6.3-0.2-12.6,0.2-18.9,1.1
		c-11,1.6-21.3,5.3-31.5,9.5C395.5,128.7,395,129,394.6,129.3z"/>
	<path class="st0" d="M481.7,306.4c-10.3-0.3-20.6-1.2-30.9-2.3c-20.8-2.3-41.4-6-61.8-11c-9.3-2.3-18.3-5.3-26.4-10.6
		c-13.5-8.8-22.8-20.9-27.8-36.1c-1.7-5.2-2.1-10.5-1.3-15.9c0.9-6.5,2-13,3.1-19.5c1.6-9.5,2.7-19.1,2.4-28.7
		c-0.1-2.1,0.6-3.5,2.1-5c4.9-4.4,10.3-7.9,16.3-10.6c13.5-6,27.4-10.7,41.6-14.6c10.4-2.9,20.8-5.1,31.5-6.6
		c10.3-1.4,20.6-1.2,30.8,0.5c25.5,4.2,49.3,12.9,71.6,26c9.4,5.5,18.2,11.8,26.2,19.1c3.3,3,6.2,6.3,8.3,10.2
		c1,1.9,1.3,3.8,0.6,5.9c-3.4,11.3-4.9,23-5.5,34.8c-0.4,8.1-1.2,16.2-3.5,24.1c-2.5,8.6-7.1,15.6-14.1,21.3
		c-12.6,10.5-27,16.3-43.3,17.6C495,305.5,488.3,305.9,481.7,306.4z M495.1,201.5c0.3,3,0.5,6,1,9c0.5,3.2,1.4,6.3,3.3,8.9
		c2,2.8,4.5,3.5,7.5,1.9c1.7-0.9,3.3-2.2,4.6-3.7c2.4-2.6,3.8-5.8,4.8-9.1c1.8-6.1,1.9-12.3,1.3-18.5c-0.3-3.4-1.1-6.7-2.8-9.6
		c-2.8-4.8-7.3-5.7-11.4-1.8c-1.8,1.7-3.4,4-4.6,6.2C496,190,495.2,195.7,495.1,201.5z M389.1,189.6c0.1,0.8,0.1,2,0.2,3.2
		c0.2,3.6,0.8,7.1,2.4,10.3c2.9,5.8,8.7,6.7,13,1.8c1.5-1.7,2.7-3.6,3.6-5.6c3.8-8.5,4.5-17.4,2.1-26.4c-0.6-2.3-1.7-4.6-3-6.5
		c-2.7-3.9-6.8-4.3-10.2-1c-1.7,1.6-3.1,3.5-4.2,5.5C389.8,176.5,388.9,182.8,389.1,189.6z M475.3,249.8c-1.8-1.5-3.2-0.8-4.5-0.3
		c-4.1,1.5-8.2,3.2-12.3,4.8c-5.8,2.3-11.7,2.4-17.5,0.4c-3.8-1.4-7.5-3.1-11.2-4.7c-2.3-1-4.5-2.1-6.7-3.2c-1,0.7-0.9,1.6-0.4,2.4
		c0.6,0.9,1.3,1.8,2.2,2.5c5,3.6,10.4,6.5,16.3,8.4c3.9,1.3,7.9,1.7,12,0.6c7.2-1.9,13.9-5.2,20.3-9
		C474.1,251.3,474.6,250.5,475.3,249.8z M440.4,220.6c-0.1,4.4,1.8,7.1,5.6,8.2c2.7,0.8,5.4,0.9,8.2,0.2c3.5-0.9,5.6-3.3,5.9-6.7
		c0.4-4.3-1-7.3-4.3-8.9c-2.5-1.2-5.1-1.5-7.8-1.3C442.9,212.7,440.4,215.5,440.4,220.6z"/>
	<path class="st0" d="M490.8,442c0-1,0-2,0-2.9c0.5-17.4,0.1-34.8-0.9-52.2c-0.6-9.9-1.4-19.9-2.2-29.8c-0.3-2.9-0.9-5.8-1.7-8.6
		c-2-7.3-3.7-14.6-4.2-22.2c-0.1-1.3,0-2.6-0.5-3.9c-0.1,0.5-0.3,1-0.3,1.5c-0.4,6.2,0.6,12.3,1.8,18.3c0.2,1.1,0.4,2.2,0.8,3.3
		c2.8,8.7,3.1,17.7,3.6,26.7c1.1,16.5,1.7,33.1,1.7,49.6c0,8.7,0.2,17.3-1.1,26c-0.6,4.1-2.4,6-6.5,5.9c-3.8,0-7.6-0.5-11.3-1.3
		c-15.7-3.3-31.3-6.8-46.9-10.2c-21.1-4.5-42.2-8.9-63.2-13.5c-6.5-1.4-13-3.1-19.4-4.6c-0.9-0.2-1.8-0.6-2.8-0.9
		c-0.6-1.9-0.3-3.7,0.2-5.4c1.9-7.2,3.7-14.4,5.9-21.5c6.5-20.2,13.1-40.3,21.8-59.7c5.2-11.7,10.5-23.4,17.2-34.4
		c1-1.7,2.1-3.4,3.3-5.2c7.9,1.8,15.7,3.6,23.6,5.5c-0.1,1.5-0.2,2.8-0.4,4.4c-2.3,0.7-3.4,2.7-4.4,4.8c-0.5,1-1,1.6-2,2.2
		c-1.5,0.8-2.9,1.9-4,3.2c-3.9,4.6-6.8,9.8-8.7,15.6c-0.6,2-0.9,4.4-0.4,6.4c1.5,6.4,4.5,8.1,9.8,8.6c6,0.6,10.2-2,12.7-7.4
		c2.6-5.5,4.1-11.4,5.2-17.4c0.2-1.2,0.3-2.6-0.2-3.6c-1-2.3-0.7-4.5-0.8-6.8c0-1,0.3-1.6,1-2.2c1.7-1.3,3.3-2.7,4.9-4.2
		c0.8-0.7,1.4-1,2.5-0.8c8.4,1.3,16.8,2.6,25.2,3.6c14.9,1.8,29.9,2.6,44.9,1.4c2-0.2,3.4,0.4,4.7,1.9c5.7,6.2,9.4,13.5,11.9,21.4
		c2.9,9.1,5.4,18.4,8.2,27.6c4.8,15.8,9.7,31.6,14.5,47.4c1.3,4.5,2.4,9,3.6,13.5c0.1,0.3,0.1,0.5,0.2,0.8c0.7,3.7,0.6,4-2.7,5.8
		c-5.3,2.9-10.9,4.9-16.6,6.7c-8.3,2.7-16.8,4.7-25.4,6.4C492.6,441.9,491.8,441.9,490.8,442z"/>
	<path class="st0" d="M390.1,526.8c-3.2-3.7-19.5-10.1-27.4-10.6c0.7-9.2,0.8-18.4,0.3-27.6c-0.6-9.3-1.1-18.5-1.8-27.7
		c-0.7-9.2-1.6-18.4-2.5-27.9c3.8,0.8,7.3,1.6,10.9,2.2c3.9,0.7,7.6,2,11.3,3.7c9.7,4.5,19.7,8.1,29.9,11.1c1.6,0.5,2.4,1.2,2.7,2.9
		c1.8,11.5,3.8,23.1,5.6,34.6c0.6,3.7,1.2,7.4,1.6,11c0.3,2.6,0.6,5.2,0.7,7.7c0.5,12.1,0.7,24.2,1.4,36.4c0.3,5.5-2.1,9-6.7,11.5
		c-6.4,3.4-13.2,5.7-20.1,7.5c-7.3,1.9-14.7,3.5-22.3,3.4c-10.3-0.2-20.3-2.2-29.9-6c-0.2-0.1-0.5-0.2-0.7-0.3
		c-6.1-2.6-8.2-6.2-7.7-12.8c1.2-13.5,11.5-24.5,24.8-26.7c3.2-0.5,6.3-0.5,9.5,0.4c6.6,1.8,13.1,3.8,19.2,6.9
		c0.3,0.2,0.6,0.3,1,0.4C390,526.9,390.1,526.8,390.1,526.8z"/>
	<path class="st0" d="M444.4,541.2c2.9-1.6,5.7-3.2,8.6-4.8c8.1-4.5,16.4-8.2,25.4-10.5c1.3-0.3,2.8-0.4,4-0.1
		c13.4,3.1,21.9,11.7,26.5,24.3c0.9,2.4,1.5,5,1.9,7.5c0.3,1.6,0.3,3.3,0.1,4.9c-0.5,3.9-2.6,6.4-6.4,7.7c-5,1.7-10.2,2.6-15.5,3
		c-11.2,0.9-22.3,0.4-33.4-1.4c-4.3-0.7-8.1-2.3-11.8-4.5c-4.6-2.7-8.8-6.1-12.7-9.9c-1.6-1.6-2.5-3.3-2.2-5.6c0-0.1,0-0.2,0-0.3
		c1.3-8.7-0.7-17.3-1.7-25.8c-1.6-13.7-3.6-27.3-5-41c-1-10.1-1.5-20.2-2.2-30.3c-0.1-0.9,0-1.9,0-3c1.5-0.2,2.8-0.4,4.1-0.6
		c3.9-0.7,7.8-1.5,11.8-2.1c1.3-0.2,2.6-0.2,3.8,0.1c9.9,2,19.8,4.1,29.7,6.2c2.1,0.4,4.2,0.7,6.6,1.1c0.8,11.7,2.4,23.4,4.6,34.9
		c2.2,11.4,3,23.2,7.2,34.4c-1.5,0.2-3-0.4-4.5-0.8c-0.9-0.2-1.8-0.7-2.6-0.6c-5.8,0.3-11.3,1.6-16.6,3.9c-6.7,3-12.8,6.8-18.4,11.5
		c-0.5,0.4-1,0.9-1.5,1.4C444.3,541,444.3,541.1,444.4,541.2z"/>
	<path class="st0" d="M263.4,512.3c1.7,0.6,3.3,1.1,4.9,1.8c2.5,1.1,4.2,0.4,5.3-2.3c1.7-4.1,1.6-8.3-0.7-12.3
		c-1.8-3.1-4.2-5.5-7.3-7.3c-1.3-0.8-2.7-1.5-4.1-2.3c-0.5-6.9-1-13.8-1.5-21c0.7,0.2,1.1,0.3,1.6,0.5c21.4,9.9,43.6,17.6,66.6,22.9
		c8.3,1.9,16.6,3.6,24.8,5.4c0.1,0,0.1,0.1,0.4,0.4c-0.2,2.2-0.3,4.6-0.5,7c-0.3,3.9-0.7,7.8-1,11.6c-0.1,1.5-0.7,2.3-2,2.9
		c-10.7,5.4-16.4,14.2-18.1,25.9c-0.4,2.7,0,5.4,0.8,8c0.2,0.7,0.4,1.4,0.8,2.5c-1.6,0.2-3,0.4-4.4,0.6c-16.3,2.6-32.5,2.1-48.5-1.4
		c-3.5-0.8-6.9-2.2-10.2-3.6c-2.8-1.2-4.3-3.3-4.5-6.6c-0.7-10.5-1.7-21.1-2.5-31.6C263.2,513.1,263.3,512.8,263.4,512.3z"/>
	<path class="st0" d="M345.4,429.9c3.1,20.8,2.1,41.4,1.1,62c-0.6,0.1-0.8,0.3-1,0.2c-4.5-1-8.8-2.4-12.8-4.8
		c-1.3-0.8-1.6-1.8-1.3-3.2c2-12,3.1-24.1,2.3-36.2c-0.8-12.5-3.6-24.5-9.7-35.5c-0.2-0.4-0.5-0.9-0.7-1.3c5.4-4.8,7-9.3,5-13.5
		c-1.9-4-6.4-5.6-13.2-4.8c-0.1-0.5-0.3-0.9-0.4-1.4c-1.1-3.9-3.8-5.9-7.6-6.6c-2.5-0.4-4.6,0.5-6.1,2.7c-0.6,0.9-1.1,2-1.6,3
		c-1.1,2-2.1,3.8-3.9,5.4c-1.6,1.5-2.7,3.6-3.7,5.6c-3.1,6.5-4.8,13.5-5.8,20.7c-1.6,11.3-1.2,22.7-0.8,34c0.2,6.1,0.7,12.1,1,18.5
		c-6.3-0.4-12-2.6-17.8-4.7c-0.2-4.9-0.4-9.8-0.5-14.6c-0.2-10.9,0-21.8,1-32.7c1-11.2,3.5-22,8.8-32.1c2.3-4.4,5.2-8.4,9.1-11.6
		c1.4-1.2,2.8-1.6,4.7-1.3c4.2,0.7,8.4,0.5,12.6-1c1.2-0.4,2.7-0.3,4-0.1c11,2.2,19.3,8.2,25.3,17.6c0.3,0.4,0.6,0.9,0.8,1.3
		c1.1,2.1,2.7,4.1,3,6.3c0.3,2.1-0.9,4.5-1.4,6.7c-0.9,4.1-1.8,8.1-2.6,12.2c-0.2,0.8-0.1,1.6-0.1,2.3c0,2.2,1,3.8,3.3,4.4
		c2.2,0.6,4.5,1.3,6.7,1.9C343.8,429.4,344.4,429.6,345.4,429.9z"/>
	<path class="st0" d="M366.2,289.9c6.4,2.4,12.5,4.7,18.6,7c-1,1.5-2.1,3-3.1,4.5c-7.2,10.9-13.1,22.4-18.6,34.1
		c-5.1,10.7-9.9,21.6-13.7,32.8c-0.6,1.9-1.8,2.8-3.6,2.7c-1.9-0.2-3.9-0.5-5.8-1.2c-3.1-1.2-5.7-3.2-8-5.7
		c-5-5.4-9.7-11.1-13.1-17.7c-1.4-2.7-2.3-5.8-3.4-8.7c-0.5-1.3-0.1-2.4,0.8-3.3c2.2-2.3,4.3-4.7,6.7-6.9
		c11.2-9.9,22.5-19.7,33.8-29.6C360,295.2,363.2,292.5,366.2,289.9z"/>
	<path class="st0" d="M198.7,484.4c2.2-9,2.6-17.9,1.4-27.2c1,0.5,1.7,0.9,2.4,1.3c20.4,11.8,40.8,23.5,61.2,35.3
		c1.4,0.8,2.8,1.8,4,2.9c4.4,3.9,5.5,8.8,4.2,14.4c-0.1,0.3-0.2,0.7-0.3,1c-0.7,1.7-1.2,2-3,1.2c-3.8-1.6-7.7-3.2-11.5-4.8
		c-18.8-7.7-37.6-15.5-56.4-23.2C200,485.1,199.5,484.8,198.7,484.4z"/>
	<path class="st0" d="M151.8,456.8c0.2-6.9,0.6-13.7,2.5-20.4c0.8-2.7,1.8-5.4,3.3-7.8c2.9-4.7,7.3-5.3,11.7-2
		c2.3,1.8,4,4.1,5.3,6.6c3.2,5.8,4.9,12.2,6.1,18.7c1.6,8.8,2.4,17.7,1.6,26.6c-0.6,6.2-1.6,12.2-4.2,17.9c-1,2.2-2.6,4.3-4,6.3
		c-0.5,0.7-1.3,1.2-2,1.7c-2.9,1.9-4.8,1.9-7.1-0.8c-1.9-2.3-3.7-4.8-5.1-7.5c-3.7-7-5.7-14.7-6.7-22.5
		C152.6,468.1,152.3,462.5,151.8,456.8z M170.3,439.9c-0.3-2.6-0.8-4.9-2.1-7.1c-0.8-1.3-1.8-2.4-3.5-2.3c-1.8,0.1-2.8,1.3-3.3,2.9
		c-1.4,4-1.2,8,0.9,11.7c0.2,0.3,0.4,0.6,0.6,0.8c1.9,2.1,4.2,2,5.5-0.5C169.3,443.8,169.7,441.8,170.3,439.9z M160.5,454.2
		c-0.4-1.4-0.6-3-1.2-4.3c-0.8-1.8-2.3-1.7-3.3-0.1c-1.3,2-1.1,6.8,0.2,8.7c1,1.4,2.5,1.4,3.2-0.2
		C159.9,457.1,160.1,455.7,160.5,454.2z M168.2,488.4c0.6,1.6,1,3.5,1.9,5.1c0.8,1.5,2.4,1.4,3.4,0.1c1.6-2.2,1.3-7.8-0.6-9.8
		c-1.2-1.3-2.5-1.2-3.3,0.4C168.9,485.4,168.7,486.8,168.2,488.4z M165.9,463c-0.1,0-0.2,0.1-0.4,0.1c0.6,1.7,1.2,3.4,2,4.9
		c0.5,1,1.5,1.7,2.8,1.4c1.2-0.3,1.6-1.2,1.8-2.3c0.4-2,0-3.9-0.9-5.7c-0.9-1.6-2-2.4-3.2-2.2c-1.1,0.2-1.9,1.4-2.1,3.2
		C165.9,462.6,165.9,462.8,165.9,463z M179,454.6c-0.1-2.1-0.4-4-1.7-5.7c-1-1.3-2.1-1.2-2.9,0.1c-1.3,2.1-0.7,7.3,1.1,9.1
		c1,1,2.1,1,2.7-0.3C178.6,456.8,178.7,455.7,179,454.6z M157.7,476.2c0.4,1.2,0.6,2.5,1.2,3.6c0.2,0.5,1.1,0.9,1.6,0.9
		c0.4,0,1.1-0.7,1.2-1.1c0.2-1.3,0.3-2.7,0.1-4.1c-0.3-1.9-1.2-2.9-2.2-2.9C158.6,472.7,158,474,157.7,476.2z M174.6,475.4
		c0,1.4,0.9,2.3,2,2.3s1.8-1,1.8-2.4s-0.8-2.3-1.9-2.3C175.3,473,174.6,474,174.6,475.4z"/>
	<path class="st0" d="M313.6,344.4c3.2,7.1,7.6,13.2,12.5,19c1.5,1.7,3,3.4,4.7,4.8c4.2,3.6,7.9,4.9,14.5,5.5
		c-0.3,1-0.4,2.1-0.9,2.9c-1,1.8-1.9,3.7-3.2,5.3c-4.3,5.3-3.8,5-5.1,11.6c-0.6-1-1-1.7-1.4-2.4c-4.7-7.9-11.1-13.4-20.2-15.6
		c-2.1-0.5-4.3-0.7-6.6-1.1c0.9-1.1,1.9-2.1,2.7-3.3c0.7-1.1,1.3-2.3,1.9-3.5c-0.2-0.1-0.3-0.2-0.5-0.3c-0.5,0.6-1.1,1.3-1.6,1.9
		c-2.9,3.8-6.9,5.6-11.7,5.9c-3.5,0.2-6.9-0.3-10.2-1.4c-1.4-0.4-2.7-1.1-3.9-1.9c-2-1.3-3-3.3-3-5.8s0.8-4.7,2.2-6.8
		c0.9-1.4,2.4-2,3.9-2.3c1.7-0.3,3.4-0.5,5.1-0.6c2.8-0.1,5.1-0.7,7.2-2.9C303.9,349.7,308.3,346.6,313.6,344.4z"/>
	<path class="st0" d="M153.3,481.9c-0.7-3.3-1.5-6.5-2-9.8c-1.5-10.7-1.6-21.4,0.4-32.1c0.6-3,1.5-5.8,2.5-8.7
		c0.4-1.2,1-2.4,1.7-3.5c4-6.8,9.6-7.4,15.6-2.6c2.8,2.2,4.6,5.2,6.2,8.3c3,5.8,4.9,12,6.1,18.4c1.4,7.2,2.3,14.5,2.2,21.9
		c-0.1,9.3-1.4,18.3-5.2,26.8c-0.1,0.1,0,0.3,0,0.7c2.3-3.8,3.7-7.7,4.6-11.7c2.3-9.7,2.6-19.5,1.3-29.4c-0.9-7.2-2.4-14.4-4.9-21.2
		c-0.7-1.9-1.5-3.9-2.4-5.7c-1.9-4-4.5-7.6-8.6-10.7c1.2,0.2,1.7,0.2,2.2,0.3c3.7,1.1,7,3,9.8,5.7c6.9,6.6,11.1,14.8,13.4,24
		c2.9,12,2.3,23.9-1.4,35.6c-2.1,6.5-5.9,12-11.3,16.2c-1.6,1.2-3.2,2.4-5.1,3.1c-2.6,0.9-5.4,1.4-8.1,1.9c-0.8,0.1-1.9-0.3-2.6-0.8
		c-1.1-0.7-2.1-1.7-2.9-3c0.3,0.1,0.7,0.1,0.9,0.3c1.9,1.5,3.9,1.2,5.9,0.3c2.2-1,3.8-2.7,5.1-4.7c3.1-4.5,4.6-9.7,5.6-15
		c2-10.7,1.5-21.4-0.2-32.1c-1.1-6.5-2.5-12.9-5.5-18.9c-1.3-2.6-3-5.1-4.7-7.4c-0.9-1.2-2.3-2.2-3.6-2.9c-4-2.3-7.9-1.4-10.8,2.3
		c-1.8,2.3-2.8,4.9-3.7,7.7c-1.7,5.5-2.3,11.2-2.6,16.9c-0.4,9.6,0.3,19.2,2.4,28.7c0.1,0.4,0.1,0.8,0.1,1.2
		C153.6,481.9,153.5,481.9,153.3,481.9z"/>
	<path class="st0" d="M566.1,223.3c4.2-0.9,8-1.7,12.1-2.6c0,2.5,0,5.1,0,7.6c-0.1,9.4-0.3,18.7-2.1,27.9c-1.5,7.9-4,15.4-8.2,22.3
		c-2.2,3.5-4.8,6.6-8,9.1c-2.9,2.2-6,3.8-9.7,3.9c-1.1,0.1-2.2-0.1-3.8-0.2c0.7-0.7,1-1.1,1.3-1.4c8-6.4,12.5-14.9,14.8-24.7
		c1.3-5.5,1.9-11.1,2.2-16.7c0.3-7.4,0.7-14.7,1-22.1C565.7,225.4,566,224.3,566.1,223.3z"/>
	<path class="st0" d="M340.3,266.1c-2.7,0.7-5,0.4-7.3-0.5c-4.9-2.1-8.1-5.8-9.7-10.9c-2.9-9.6-3.6-19.4-2.8-29.3
		c0.9-11.3,3.1-22.5,5.6-33.5c0.1-0.2,0.2-0.4,0.5-1c2.9,3.1,6.3,5.2,10.4,6.5c-1,5.3-2,10.4-2.9,15.5c-1.2,6.4-2.4,12.8-3.4,19.2
		c-1.1,7,0.2,13.8,2.9,20.3c1.7,4,3.7,7.8,5.6,11.7C339.5,264.6,339.8,265.2,340.3,266.1z"/>
	<path class="st0" d="M402.2,315.7c0.7,3.3,2.1,4.3,5.5,3.8c1.4-0.2,2.8-0.9,4.1-1.5c0.9-0.4,1.7-0.8,2.6-1.3
		c1.1,0.8,1.5,1.8,1.6,2.9c0.1,1.2,0.2,2.5,0,3.6c-1.1,5.5-2.3,11-4.8,16.1c-0.8,1.5-1.7,3.1-2.9,4.3c-3.2,3.3-10.4,3.8-14,1
		c-2.9-2.3-4-5.6-3.5-9.3c0.5-4,2.6-7.5,4.6-10.9c1.6-2.8,3.8-5.3,5.8-7.9C401.3,316.1,401.8,315.9,402.2,315.7z M398.7,339.7
		c3.5,0,5.9-1,7.5-3.6s0.7-5.6-2.2-6.6c-3.4-1.2-6.8-1-9.8,1.3c-1.6,1.2-2.1,2.9-1.7,4.8s1.7,3,3.4,3.5
		C396.9,339.5,398.1,339.6,398.7,339.7z"/>
	<path class="st0" d="M289,477.9c0-1.4,0-2.6,0-4c0.9,0.2,1.8,0.2,2.6,0.4c11.4,2.6,22.6,5.9,33.5,9.9c1.7,0.7,3.4,1.3,4.6,3
		c0.8,1.2,2.5,2.2,4,2.7c3.5,1.2,7.1,2,10.7,3c0.6,0.1,1.2,0.2,1.8,0c1.2-0.4,2.2,0.1,3,0.9C344,494.8,306.3,484.8,289,477.9z"/>
	<path class="st0" d="M308.1,403.6c3.6-2.4,5.8-5.2,6.6-8.9c3.4-1.1,8,0.3,10.1,3c1.3,1.6,1.4,3.5,0.9,5.4
		c-1.4,5.6-7.5,7.9-12.7,4.8C311.4,406.8,310,405.2,308.1,403.6z"/>
	<path class="st0" d="M302.4,402.8c-3.1,0-5.4-1.6-7.4-3.8c-0.7-0.7-0.4-1.9,0.5-2c1.5-0.1,2-1.2,2.7-2.1c1.3-1.6,2.4-3.4,3.6-5.1
		c1.8-2.6,3.4-3.3,5.9-2.4c2.9,1,4.8,3.6,4.5,6.3C311.9,398.4,307.1,402.8,302.4,402.8z"/>
	<path class="st0" d="M509.8,440.8c-0.3,2.7-0.5,5-0.8,7.2c-0.2,1.6-1.2,2.6-2.7,3.2c-2.7,1.2-5.4,1.7-8.3,1
		c-4.7-1.1-6.8-3.8-6.8-9.1c3-0.3,6.1-0.5,9.1-0.9C503.3,441.8,506.3,441.3,509.8,440.8z"/>
	<path class="st0" d="M509.9,451.2c1.7-3.5,0.9-6.9,0.4-10.5c4.1-1,8.1-2,12.4-3.1c-0.1,3.8,0,7.5-1.7,10.9c-1.2,2.4-5.4,4-8.7,3.4
		C511.6,451.8,510.9,451.5,509.9,451.2z"/>
	<path class="st0" d="M491.9,11.9c-6.3-0.9-12.5-2-18.7-2.6c-6.3-0.7-12.6-1-19.2-1.5c0.6-0.5,0.9-0.9,1.4-1.1
		c2.5-1.3,5.3-1.6,8.1-1.6c7.3,0,14.5,1,21.5,3C488.7,9.1,490.3,10,491.9,11.9z"/>
	<path class="st0" d="M429.9,447.5c-3.3,0.3-6.7,0.6-10,0.8c-1.2,0.1-2.5,0-3.6-0.3c-8.2-2.5-16.5-5.1-24.7-7.7
		c0.1-0.2,0.1-0.4,0.2-0.6c12.7,2.4,25.5,4.9,38.2,7.3C429.9,447.2,429.9,447.3,429.9,447.5z"/>
	<path class="st0" d="M415,314.2c-1.7,0.9-3.2,1.7-4.7,2.4c-1.8,0.8-3.6,1.7-5.9,0.5c0.2-3,1.6-5.6,3.4-8c0.3-0.4,1.1-0.6,1.6-0.6
		C413.1,308.2,415.2,310.5,415,314.2z"/>
	<path class="st0" d="M524,437.2c1.9-0.7,3.7-1.3,5.6-1.9c0.3,3.8-1.4,6.3-5.3,8C524.2,441.2,524.1,439.3,524,437.2z"/>
	<path class="st0" d="M413.9,303.2c1.3,0.3,2.4,0.5,3.8,0.8c-1.2,1.4-2.2,2.6-3.2,3.6c-0.3,0.3-0.9,0.3-1.3,0.2
		c-0.2-0.1-0.4-0.8-0.3-1.1C413.1,305.7,413.4,304.6,413.9,303.2z"/>
	<path class="st0" d="M421,305.3c-1.3,1.8-3,3.1-5.1,4.4c-0.3-2.2,1.5-2.8,2.2-4C418.8,304.6,419.8,304.7,421,305.3z"/>
	<path class="st0" d="M267.2,469.7c-1.2-0.5-2.4-1-3.6-1.5c1.5-0.4,3-0.5,3.9,0.8C267.4,469.2,267.3,469.5,267.2,469.7z"/>
	<path class="st0" d="M410.5,306.4c0.1-1,0.2-2,0.3-3.1c0.6,0.1,1,0.2,1.5,0.2c-0.2,1.2-0.2,2.3-1.1,3
		C410.9,306.5,410.7,306.5,410.5,306.4z"/>
	<path class="st0" d="M424.6,524.7c-0.1-0.8-0.1-1.6-0.2-2.3c0.1,0,0.2,0,0.3,0C424.7,523.2,424.6,524,424.6,524.7
		C424.5,524.8,424.6,524.7,424.6,524.7z"/>
	<path class="st0" d="M450.6,227.7c-0.5,0-0.9-0.1-1.2-0.1c-6.1-0.4-8.7-3.8-7.5-9.8c0.5-2.6,3.4-4.7,6.6-4.9
		c2.3-0.2,4.5,0.3,6.5,1.3c3,1.5,4.2,4.3,3.4,8.2c-0.5,2.9-2.5,4.7-5.8,5.1C452,227.6,451.2,227.6,450.6,227.7z"/>
	<path class="st0" d="M169.4,439.7c-0.5,1.7-0.7,3.5-1.5,5.1c-1,2.1-3.1,2.2-4.6,0.5c-2.5-2.7-2.9-9.5-0.9-12.5
		c1.2-1.8,3.1-2,4.5-0.3C168.7,434.6,169.1,437,169.4,439.7z"/>
	<path class="st0" d="M155.7,453.9c0.2-1,0.4-2.1,0.7-3c0.1-0.4,0.8-0.8,1.2-0.8s0.9,0.5,1.1,0.8c0.8,2.1,0.8,4.2,0.1,6.4
		c-0.1,0.5-0.8,1-1.3,1c-0.4,0-1-0.7-1.1-1.1C156.1,456.1,156,455,155.7,453.9z"/>
	<path class="st0" d="M171.5,493.8c-2.7-2.8-3-7.2-0.7-9.9c2.3,0.2,2.5,2.1,2.8,3.8C174.1,491,173.6,492.5,171.5,493.8z"/>
	<path class="st0" d="M166.4,463.2c0.5-1.3,0.2-2.8,1.7-3.1c1.4-0.3,2.3,1,2.6,2.1c0.5,1.5,0.7,3.2,0.7,4.8c0,0.6-0.7,1.5-1.3,1.7
		c-0.5,0.1-1.6-0.4-1.9-1C167.5,466.3,167,464.7,166.4,463.2z"/>
	<path class="st0" d="M174.3,452.7c0.1-0.8,0.2-1.2,0.2-1.6c0.2-0.8,0.1-2,1.3-1.8c0.6,0.1,1.3,0.8,1.5,1.4c0.8,1.9,1.2,4,0.5,6
		c-0.2,0.5-0.7,1.1-1.2,1.1c-0.4,0-1.1-0.5-1.3-0.9C174.9,455.4,174.6,453.9,174.3,452.7z"/>
	<path class="st0" d="M159.3,473.8c2.2,1.6,2.4,3.7,0.9,6C158.5,478,158.7,476.1,159.3,473.8z"/>
	<path class="st0" d="M176.4,477.1c-0.4-0.6-0.8-0.8-0.9-1.2c-0.3-0.8-0.3-1.6,0.5-2c0.3-0.2,1,0,1.1,0.1c0.3,0.6,0.4,1.4,0.4,2.1
		C177.5,476.4,176.9,476.7,176.4,477.1z"/>
	<path class="st0" d="M405.2,333.1c-5.8-0.6-7.4-0.1-10.1,3.1c-1.2-1.5-1.2-2.4,0-3.7c1.7-2,6.5-2.6,8.7-1.1
		C404.4,331.8,404.8,332.5,405.2,333.1z"/>
	<path class="st0" d="M396.8,337.9c-0.4-1.6,0.3-2.4,1.4-2.9c2.1-1.1,4.3-1,6.4,0.2C403.5,338,401,338.9,396.8,337.9z"/>
</g>
</svg>
