<?xml version="1.0" encoding="utf-8"?>
<!-- Generator: Adobe Illustrator 26.0.0, SVG Export Plug-In . SVG Version: 6.00 Build 0)  -->
<svg version="1.1" id="Capa_1" xmlns="http://www.w3.org/2000/svg" xmlns:xlink="http://www.w3.org/1999/xlink" x="0px" y="0px"
	 viewBox="0 0 595.3 578.8" style="enable-background:new 0 0 595.3 578.8;" xml:space="preserve">
<style type="text/css">
	.st0{fill:#FFFFFF;}
</style>
<g>
	<path d="M100.9,321.4c-5.2-4.1-10.2-7.9-15.2-11.8c-0.6,0.8-1.1,1.5-1.8,2.1c-2,2-4,4.2-6.2,5.9c-8.4,6.2-18.2,5.5-26.1-1.7
		c-6.1-5.6-7.6-12.4-5.5-20.1c1.3-4.7,3.6-8.8,6.4-12.7c4-5.6,8.8-10.5,14-14.9c0.7-0.6,1.3-1.2,2.2-1.9c-0.4-0.4-0.7-0.7-1-0.9
		c-12-7.7-19-18.9-22.4-32.5c-2-8.4-3-16.9-1.6-25.4c1.2-7.4,3.7-14.5,6.7-21.3c4.7-10.6,10.7-20.2,19.1-28.2
		c10.8-10.2,23.7-16.1,38.5-17.5c3.5-0.3,7-0.2,10.5-0.3c0.4,0,0.8-0.1,1.1-0.1c0.6-6.2,1-12.2,1.7-18.1
		c1.9-15.6,4.8-30.9,11.1-45.4c9-20.8,24.9-33.7,46.3-40.2c5.6-1.7,11.5-2.1,17.3-2.7c4-0.4,8-1,12.1-1.5c-1.1-3.2-0.5-4.2,2.5-5
		c3.7-1,7.5-0.8,11.3-0.4c3.5,0.4,7,1.3,10.5,2.2c1,0.2,2,0.8,2.9,1.4c1.9,1.2,2.1,2,1.1,4.4c7.5,3,14.9,6,22.7,9.1
		c0.9-1,1.9-2.2,2.9-3.3c8.9-10.2,18.5-19.7,29.5-27.6c3.7-2.7,7.7-5,11.6-7.3c9.8-5.6,20.1-6.6,31-4c18.3,4.3,32.3,14.4,42.3,30.2
		c6.2,9.9,10.1,20.8,12.7,32.2c0.7,3.3,1.4,6.7,2.1,10.1c24.8,5.8,47.1,16.6,66.9,33.3c0.6-0.8,1.2-1.6,1.9-2.3
		c11.9-12.6,25.5-22.9,41.5-30.1c11.4-5.1,23.3-7.9,35.8-7.7c7.1,0.1,14.2,1,21,3.3c13.3,4.5,22.7,13.2,28.4,25.9
		c3.1,6.9,4.9,14.1,5.9,21.5c2.1,15.4,3.2,30.8,2.7,46.3c-0.5,16.7-2.3,33.3-8.2,49c-3.9,10.5-8.5,20.8-13.2,31
		c-3.1,6.7-6.6,13.2-10.4,19.5c-5.6,9.3-12.7,17.2-21.8,23.2c-6.4,4.2-13.3,7.2-20.7,8.9c-7.4,1.7-14.7,0.8-21.8-1.2
		c-7.2-2.1-13.9-5.3-20.3-9.2c-0.8-0.5-1.7-1-2.8-1.7c-1,1.1-2,2.1-3.1,3.3c2.7,3.4,5.4,6.5,7.9,9.8c4.9,6.6,10,13.2,14.5,20.2
		c5.7,9.1,8.8,19.2,11.1,29.7c1.4,6.4,1.9,12.8,1.7,19.3c-0.4,9.9-3.6,18.6-10,26.2c-4.2,5-9,9.3-14.3,13.1c-1,0.7-1.8,1.4-2,2.7
		c-0.7,5-2.8,9.5-6,13.4c-0.2,0.2-0.2,0.5-0.4,0.8c0.5,0.5,1.1,0.9,1.6,1.3C491.9,434.8,501,450,503,469c2,18.4-0.9,36.3-8.4,53.2
		c-7,15.9-19.4,26-35.5,31.8c-8.3,3-16.9,5-25.6,6.4c-18.2,3-36.4,6-54.6,8.7c-19.1,2.8-38.3,5.4-57.4,7.9
		c-6.1,0.8-12.2,1.4-18.2,1.7c-2.3,0.1-4.8-0.5-7.1-1.4c-3.7-1.4-5.2-4.3-5.1-8.3c0.1-2.8-0.2-5.6-0.2-8.3c0-2.9,0-5.8,0.1-8.6
		c0-0.5-0.1-1-0.1-2c-0.7,0.8-1.1,1.2-1.5,1.6c-4.5,4.7-8.9,9.4-13.4,14c-4.2,4.3-9.2,7.1-15.3,8c-3.3,0.5-6.4-0.1-9.6-0.6
		c-13-1.7-26-3.3-39-5.2c-28.9-4.1-57.8-8.5-86.2-15.7c-5.4-1.4-10.7-3.1-16-4.9c-7-2.4-12.3-7-16.3-13.1
		c-4.9-7.4-7.7-15.6-9.4-24.2c-2.8-14-3.2-28-1.8-42.2c0.8-7.6,2-15.2,4-22.6c2.6-9.6,7.2-18,14.9-24.5c7-6,15.2-9.4,24.4-10.4
		c10.4-1.2,20.7-2.5,31.1-3.6c8.4-1,16.8-1.8,25.2-2.8c0.3,0,0.5-0.1,0.9-0.2c-0.1-0.4-0.1-0.7-0.3-1c-6.7-13.9-11.1-28.6-14.7-43.6
		c-0.4-1.7-0.8-3.5-1.2-5.3c-0.7-3.3-1.4-6.5-3.9-9.2c-2.4-2.6-3.3-6.2-3.6-9.7c-0.3-3.3-0.1-6.6-0.1-10c0-0.6,0-1.2,0-2
		c-1.6-0.9-3.2-1.7-4.8-2.6c-0.5,0.7-0.8,1.2-1.1,1.7c-7.5,12.9-14.9,25.9-22.4,38.8c-3.6,6.2-5.5,12.8-5,20.1c0.3,4.1,0,8.1-1.3,12
		c-2.2,6.6-6.4,11.1-13.4,12.6c-5.8,1.3-10.7-0.3-14.6-4.7c-2.7-3-4.4-6.5-5.8-10.3c-2.7-7.4-4.1-15.1-4.7-22.9
		c-0.5-6.3-0.5-12.6-0.6-18.9c-0.1-5.8,1.6-10.7,5.9-14.8C95,330.5,97.9,325.8,100.9,321.4z"/>
	<path d="M39.5,38.8c0.4-2.3,0.5-4.4,1.1-6.4c2.4-8.7,8.5-13.3,17-15c9.5-1.9,17.6,0.8,24.5,7.4c6.8,6.6,10.4,15,12.2,24.2
		c1.6,8.1,0.5,15.9-1.9,23.7c-3.2,10.1-8.4,19.3-14.5,27.9c-1.5,2-2.7,4.2-3.9,6.4c-1,1.8-2.5,2.9-4.4,2.5
		c-10.6-2-21.4-3.4-31.7-6.1C18.1,98.2,5.3,85.6,0.8,65.6c-2.4-10.6,0.5-20,9-27.2c7.2-6,15.1-7.1,23.6-3
		C35.5,36.4,37.4,37.6,39.5,38.8z"/>
	<path d="M483.7,14.5c0.9-0.5,1.6-1,2.4-1.4c4.1-2.3,8.2-2.3,12.3,0c6.1,3.5,9.3,9.9,8.1,16.9c-1.5,8.8-6,15.7-13.9,20.2
		c-6.3,3.6-13.2,5.1-20.3,6c-2,0.3-4.1,0.5-6.1,1c-1.5,0.3-2.4-0.2-3.1-1.4c-3.1-5.2-6.3-10.3-9.1-15.6c-5.6-10.8-5.2-21.5,1.6-31.7
		c3-4.5,7.3-7.2,12.8-7.6c6-0.4,12.7,2.1,14.6,10.4C483.2,12.2,483.4,13.3,483.7,14.5z"/>
	<path class="st0" d="M69.8,105.3c-4-0.7-8-1.4-12.1-2.1c-6.8-1.2-13.8-1.9-20.4-3.9C20,94.3,8.5,83,4,65.2
		c-2.7-10.5,0.5-19.4,9.1-26.1c5.4-4.2,11.5-5.2,18.1-2.7c3.5,1.3,6.6,3.2,9.6,5.4c0.6,0.4,1.1,1.4,2.2,0.2c-2.5-1.9-1.7-4.5-1.2-7
		c2-9.9,8.9-14.9,19.3-15.6c7.9-0.6,14.4,2.6,19.7,8.3c5.4,5.9,8.3,13,9.9,20.7c2,9.2,0.2,17.9-3,26.4c-3,7.8-7,15-11.8,21.8
		C73.8,99.4,71.9,102.2,69.8,105.3z"/>
	<path class="st0" d="M465.4,54.5c-3.1-5.2-6.3-10.1-9.1-15.2c-5.4-9.9-5.2-19.8,0.7-29.4c2.3-3.8,5.6-6.3,10-7.2
		c8.3-1.6,14.4,3.1,15.5,11.6c0.1,0.9,0.2,1.8,0.3,3c2.1-3.1,5-4.3,8.1-4.7c3.4-0.4,6.3,1.1,8.8,3.3c4.8,4.2,6,9.5,4.5,15.4
		c-1.8,7.3-6,13-12.6,16.7c-5.4,3-11.3,4.5-17.4,5.4C471.4,53.9,468.4,54.1,465.4,54.5z"/>
	<path class="st0" d="M458.5,295.6c-1.7-2.7-3.2-5.2-4.8-7.6c-7-10.7-15.4-19.9-26.4-26.6c-11.2-6.8-23.3-9.2-36.2-7.7
		c-19.4,2.3-34.6,12-46.7,26.9c-3.8,4.7-6.2,10-7,16.1c-0.1,1.2-0.7,2.4-1.4,3.4c-3.5,4.8-6.8,9.7-9.4,15.1c-2.6,5.4-4,11.1-4,17.2
		c0,2.1-0.2,4.1-0.5,6.2c-0.9,5-3.8,8.4-8.5,10.4c-6.1,2.6-12.4,2.9-18.8,1.3c-11.4-2.8-20.7-9.1-28.6-17.5
		c-3.2-3.4-4.5-7.7-5.3-12.2c-0.9-5.5-0.9-11.1-0.3-16.7c1.9-18.9,6.6-37.1,13.3-54.9c1.7-4.5,3.8-8.9,6.9-12.8
		c0.7-0.8,1-1.5-0.4-2.3c-5.4,5.2-8.1,12.1-11.3,18.9c-5.8-2.8-11.7-4.3-17.7-6c-1.9-0.5-3.1-2-4.9-3.6c3.4-0.5,6.3-0.9,9.1-1.4
		c14.3-2.5,23.8-10.9,28.6-24.4c0.9-2.5,1.2-5.3,1.4-7.9c0.5-6.8,0.5-13.7,1.2-20.5c0.5-4.8,1.7-9.5,2.5-14.1
		c0.5-0.2,0.7-0.4,0.8-0.4c3.9,0.6,6-0.4,7.5-4c0.7-1.7,1.3-3.6,1.6-5.4c1.4-8.9,2.8-17.8,4.1-26.7c1.2-8.8,1.2-17.6,0.6-26.4
		c-0.5-6.3-1.4-12.5-2.1-19c0.3-0.2,0.8-0.6,1.4-1c13.1-8,27.4-13,42.5-15.5c25.6-4.1,49.9,0.6,73.2,11.5
		c11.9,5.5,23,12.2,33.1,20.6c16.8,14,28.4,31.5,35.2,52.3c3.7,11.2,6.5,22.4,7.9,34.1c2.1,17.2,2.4,34.3-2.5,51.1
		c-4.7,16.2-12.9,30.4-25.1,42.2c-2,1.9-4.2,3.6-6.4,5.4C460.4,294.4,459.5,294.9,458.5,295.6z M375.7,219.8
		c0.2,0.1,0.4,0.2,0.6,0.3c0.7-0.4,1.6-0.8,2.1-1.4c2.1-2.4,4.3-4.7,6-7.3c2.9-4.4,3.7-9.3,3-14.5c-0.7-5.3-3-9.6-7.9-12.1
		c-5.7-2.9-11.6-3.5-17.5-1c-8.3,3.4-13.9,9.7-17.3,18c-0.4,1-0.9,2.2,0.1,3.6c0.9-0.5,1.7-0.9,2.5-1.5c2-1.7,3.9-3.5,5.8-5.3
		c3.4-3.2,7.4-5.4,12.1-6.1c6.6-0.9,12.2,3.5,12.8,10.2c0.1,1.3,0.3,2.7,0.1,4c-0.5,3.4-1.2,6.7-1.8,10.1
		C375.9,217.8,375.8,218.8,375.7,219.8z M331.1,199.1c1-1.1,1.8-1.7,2.3-2.6c2-3.6,4.1-7.2,5.8-10.9c1.8-4.1,2.3-8.5,1.7-13
		c-0.8-6-3.8-10.4-9.4-12.9c-5.1-2.3-10.2-2.1-15,0.6c-7.9,4.4-12.4,11.2-14.2,20c-0.2,0.9,0.1,1.9,0.2,3.4c1.3-0.9,2.3-1.4,3-2.1
		c2-2.1,3.9-4.2,5.8-6.4c3.2-3.6,7.2-5.3,11.9-5.5c4.1-0.2,6.7,1.5,8.1,5.4c0.8,2.3,1.2,4.7,1.5,7.1c0.6,4.3-0.8,8.4-1.8,12.4
		C330.8,195.8,330.2,197.1,331.1,199.1z"/>
	<path class="st0" d="M499.9,478.1c-0.6-1.8-1.2-3.6-2-5.2c-3-6.5-8-7.5-13.3-2.7c-5.9,5.3-7.4,12.1-6.7,19.6
		c0.2,1.9,0.8,3.9,1.6,5.7c1.7,3.7,4.9,5.4,8.8,5.6c3.4,0.2,5.8-1.6,6.3-5c0.5-2.8,0.4-5.5-0.6-8.9c-0.4,1.3-0.6,2-0.8,2.8
		c-0.2,0.8-0.3,1.6-0.6,2.3c-0.5,1.2-0.6,3-2.3,3c-1.4,0-1.7-1.7-2.1-2.8c-1.3-3.5-1.8-7.2-1.8-10.9c0-3.2,1.6-5.2,4.5-5.9
		c2.8-0.7,5.2,0.4,6.7,3.3c1.6,2.9,2.3,6.2,1.8,9.4c-0.7,5.4-1.7,10.8-2.9,16.2c-1.3,5.8-6.7,9.4-12.5,8.8
		c-12.8-1.3-22.5-14-20.4-26.7c0.3-1.6,0.7-3.1,1.1-5.3c-4.1,2.2-6.8,5-8.2,8.9c-1.3,3.7-1.2,7.6,0.6,11
		c5.2,9.7,13.4,15.6,24.2,17.5c3.9,0.7,7.6-0.2,11.3-2.3c-0.3,0.8-0.6,1.6-0.9,2.4c-6.3,14.4-16.9,24.1-31.4,29.8
		c-8.4,3.3-17.1,5.4-26,6.9c-18.5,3-37.1,6-55.7,8.7c-16.8,2.5-33.7,4.6-50.5,6.9c-6.9,0.9-13.9,1.9-20.9,2.5c-2.6,0.3-5.4,0-8-0.4
		c-2.8-0.5-3.3-1.8-3.3-4.6c0.1-2.1-0.3-4.1-0.3-6.2c0.2-9.4,0.4-18.9,0.8-28.3c0.4-9.3,1.1-18.7,1.8-28c0.8-10.2,1.6-20.4,2.5-30.7
		c0.6-7,1.2-14,1.8-21c0.7-7.3,1.3-14.7,2.1-22c0.5-4.8,3.2-6.9,7.9-7.1c5.1-0.1,10.2-0.4,15.4-0.7c10.3-0.6,20.6-1.4,31-2.1
		c11.4-0.8,22.8-1.6,34.2-2.4c8.3-0.6,16.7-1.2,25-1.8c2-0.1,3.9,0.1,5.8,0.9c7.4,3,15.1,3.2,22.8,1.5c4.5-1,8.9-2.3,13.3-3.6
		c1.2-0.4,2.2-0.4,3.3,0.2c18.4,9.4,30.6,23.8,35.3,44.2C499.9,467,500.4,472.5,499.9,478.1z"/>
	<path class="st0" d="M287.7,425.3c-0.3,0.4-0.4,0.6-0.5,0.7c-6.2,2.3-10.5,6.8-14.1,12.1c-5.1,7.7-8.3,16.1-10.8,24.9
		c-3.6,12.2-5.7,24.7-7.2,37.3c-1.5,13-2.3,26-2,39.1c0.1,5.7,0.5,11.3,2.1,16.8c0.3,0.9,0.5,1.7,0.9,2.6c1.9,4.8,4.7,8.7,10.1,10.1
		c-1.8,1.3-3.8,2.1-6.7,2.1c-2.3,0-4.7-0.3-7-0.7c-14-2.1-28.1-4.1-42.1-6.4c-28-4.6-56.1-9.1-83.6-16.2c-5.1-1.3-10.2-3-15.2-4.8
		c-5.8-2-10.3-5.8-13.7-10.9c-3.9-5.7-6.3-12-8-18.9c1.8-0.2,3.3-0.3,4.9-0.6c7.4-1.2,12.3-6.5,13-14.1c0.5-5-0.8-9.6-3-14.1
		c-3.3-6.7-7.9-12.5-12.9-17.9c-0.4-0.4-0.7-0.9-1.1-1.2c-2.7-2-3.3-4.4-2.6-7.7c1.4-6.3,2.4-12.7,5-18.7
		c5.6-12.6,14.9-20.8,28.4-23.9c4.1-1,8.3-1.3,12.5-1.9c12.6-1.8,25.1-3.5,37.7-5.2c2.8-0.4,5.5-0.9,8.3-1.1
		c1.4-0.1,2.9-0.1,4.3,0.3c5.2,1.3,8.8,4.9,12,9.1c-22.8-0.2-45.6-0.8-68.3-1.4c-0.7,1.3-0.2,1.7,0.8,1.8c2.4,0.3,4.8,0.6,7.2,0.8
		c10.8,0.9,21.7,1.9,32.5,2.6c9.5,0.6,19,1,28.6,1.3c22.9,0.8,45.8,1.5,68.8,2.2c3.9,0.1,7.9-0.2,11.9-0.1
		C281.2,423.4,284.4,424.1,287.7,425.3z"/>
	<path class="st0" d="M216.8,276.5c13.8,5,27.4,10,41,15c-0.6,4.8-1.3,9.3-1.7,13.9c-0.6,6.9-0.6,13.8,1.3,20.6
		c1.2,4.1,3.1,7.8,6.1,10.9c8.7,8.9,18.7,15.4,31,18.1c6.7,1.5,13.3,1.1,19.6-1.4c7.7-3,11.9-8.7,12.4-17c0.1-1.2,0.1-2.3,0.1-3.5
		c-0.5-6.7,1.1-13,4-19c1.1-2.3,2.3-4.4,3.5-6.8c1.5,0.5,2.9,1,4.2,1.5c0.2,0.5,0.3,0.8,0.4,1.2c1.6,8.5,5.6,16.1,9.9,23.5
		c8.2,13.7,17.5,26.6,27.4,39.1c6.7,8.5,13.5,16.8,20.4,25.1c5.9,7.1,12.4,13.6,20.3,18.4c0.1,0.1,0.2,0.3,0.4,0.6
		c-0.8,0.1-1.4,0.3-2,0.3c-12.7,0.6-25.3,1.1-38,1.8c-15.3,0.8-30.5,1.6-45.8,2.4c-6.2,0.3-12.4,0.6-18.6,0.7
		c-6.3,0.1-10,2.8-11.7,9.1c-0.1,0.2-0.2,0.4-0.4,0.7c-0.3-0.2-0.5-0.3-0.7-0.5c-4.4-6.5-10.8-9.6-18.3-10.8
		c-4-0.7-8.2-0.6-12.3-0.8c-3.2-0.2-6.5-0.3-9.7-0.4c-18.5-0.8-37-1.5-55.5-2.3c-0.2,0-0.4,0-0.5,0c-2.9,0.2-4.9-0.7-6.7-3.3
		c-2.6-3.8-6.2-6.8-10.6-8.4c-1.2-0.4-1.6-1.3-2.1-2.3c-3.5-7.6-6.3-15.5-8.7-23.5c-3.6-12.1-6.1-24.4-8.2-36.8
		c-0.4-2.5-0.2-4.9,1-7.1c1.3-2.5,2.8-5,4.2-7.4c2.3,0.1,4.2,0.3,6.2,0.3c6.9,0.2,12.3-2.6,16.3-8.3c7.1-10.4,13.3-21.4,18.1-33.1
		c1.2-2.9,2.1-5.9,3.2-8.9C216.4,277.6,216.5,277.1,216.8,276.5z"/>
	<path class="st0" d="M459.1,108.4c5-5.1,9.9-9.5,15.2-13.6c12.3-9.5,25.6-17,40.7-21c13.2-3.5,26.5-3.8,39.7,0.1
		c13.7,4.1,23,12.9,28.3,26.1c3,7.3,4.4,15,5.3,22.8c1.4,12.2,2.3,24.4,2.1,36.6c-0.2,16.8-1.6,33.5-7,49.5
		c-3.3,9.8-7.4,19.3-11.6,28.7c-3.4,7.6-7,15.2-11.1,22.5c-5.1,9.3-11.9,17.3-20.7,23.5c-6.1,4.2-12.8,7.2-20,9.1
		c-6,1.6-12.1,1.2-18.2-0.2c-8.2-1.8-15.9-5.2-23.1-9.5c-0.4-0.3-0.8-0.6-1.4-1c0.5-0.7,0.9-1.3,1.3-1.8
		c10.4-13.1,17.5-27.8,20.3-44.4c1.6-9.4,2.1-19,1.7-28.5c-0.5-13.1-2.2-26-5.9-38.6c-4-13.8-8.9-27.2-17.1-39.1
		c-4.6-6.7-9.7-12.9-15.6-18.5C461.2,110.3,460.2,109.4,459.1,108.4z"/>
	<path class="st0" d="M459.6,297.4c4.1-3.1,7.9-6.1,11.8-9c0.1,0.1,0.3,0.2,0.4,0.3c7.2,9.1,14.4,18.2,20.4,28.2
		c5.6,9.4,8.7,19.7,10.8,30.3c1.3,6.6,1.9,13.3,1.2,20.1c-0.7,7-2.8,13.5-7.1,19.2c-6.2,8.3-14.2,14.5-23.1,19.5
		c-9.2,5.2-18.9,8.7-29.3,10.5c-8.8,1.6-17,0.1-24.7-4.3c-5.4-3.1-10-7.1-14.2-11.5c-0.9-1-1.9-1.9-2.7-3
		c-16.3-19.4-32.3-39.1-46.1-60.5c-3.8-5.9-7.1-12.1-10.3-18.3c-2.6-5.2-3.7-10.9-4.4-16.6c-0.6-5.5,0.7-10.7,3.5-15.5
		c3.5-5.9,8.3-10.6,13.6-14.9c10-8.3,21.4-13.1,34.3-14.4c10.6-1.1,20.7,0.8,30.2,6.1c9.6,5.4,17.4,12.7,23.9,21.5
		c4.8,6.5,9,13.4,12.8,20.6c8.3,15.7,16.5,31.4,24.8,47c1.4,2.6,2.9,5.1,4.4,7.7c1.6-0.2,1.6-0.8,1-1.8c-3.9-7.7-7.8-15.4-11.7-23.1
		c-6.2-12.4-12.5-24.7-18.7-37.1C459.9,298.2,459.8,297.8,459.6,297.4z"/>
	<path class="st0" d="M290.3,172.8c0.3-2.7-1-4.7-2.6-6.4c-2.2-2.3-4.6-4.7-7.2-6.5c-15-10.5-31.5-17.7-49.5-20.8
		c-6.8-1.2-13.8-1.1-20.7-0.6c-17,1.2-33.6,4.8-50,9.3c-8.8,2.4-17.1,6.1-24.8,10.9c-1.2,0.8-2.2,0.8-3.5,0.2
		c-4-1.8-6.9-4.5-7.5-9.1c-0.1-0.9-0.3-1.8-0.6-2.6c-1.8-5.7-1.8-11.5-1-17.3c1.7-12.2,3.6-24.4,7-36.2c2.5-8.7,5.4-17.4,10.6-25
		c11.9-17.5,28.2-27.8,49.3-30.4c7.6-0.9,15.2-1.8,22.8-2.7c6.4-0.8,12.6,0.1,18.6,1.9c11.9,3.6,23.4,8.3,34.4,14
		c13.1,6.8,22.4,17.3,28.4,30.7c3.8,8.5,5.8,17.5,6.5,26.9c0.4,4.8,0.7,9.5,0.9,14.3c0.3,8.8-0.8,17.4-2.2,26
		c-0.9,5.4-1.2,10.9-2,16.3c-0.3,1.9-0.9,3.9-1.8,5.6C294.4,173.3,292.9,173.6,290.3,172.8z M273.7,138.7
		c-10-7.1-29.9-15.4-52.2-16.5c-14.2-0.7-28,1.2-41.3,6.6C212.6,120.2,243.6,124.5,273.7,138.7z"/>
	<path class="st0" d="M132.2,160.7c1.6,0.8,2.9,0.3,4.4-0.4c10.3-5.3,21.3-8.6,32.7-10.7c10.1-1.8,20.2-3.7,30.3-5.1
		c10.9-1.5,21.9-2.1,32.8-0.3c9.8,1.6,19.1,5,28.3,8.8c6.6,2.7,13,5.8,18.9,9.8c2.6,1.8,4.9,3.9,7.3,6c1.5,1.4,1.8,3,1.3,5.1
		c-1.5,5.3-2.9,10.6-3.8,16c-0.9,5.1-1.1,10.4-1.5,15.6c-0.4,5.8-1.3,11.4-4.5,16.5c-5.9,9.4-14.3,14.6-25.3,15.9
		c-12.2,1.4-24.4,1.3-36.6,0.1c-6.8-0.7-13.6-1-20.4-1.8c-11.2-1.3-22.2-3.4-32.6-8.1c-16.1-7.3-26.3-19.8-30.8-36.7
		c-1-3.8-1.1-7.8-1.4-11.8c-0.3-4.8-0.4-9.7-0.6-14.6C130.5,163.3,130.9,162,132.2,160.7z M176.9,177.3c0.6-0.8,1.3-1.5,1.8-2.3
		c0.7-1.2,1.1-2.7,1.9-3.8c1.2-1.7,2.4-3.6,4.1-4.9c4.3-3.4,9.6-2.1,11.9,2.8c0.9,1.9,1.1,4.1,1.6,6.2c0.2,1,0.2,2.2,0.5,3.2
		c0.2,0.5,0.8,1.2,1.2,1.2c0.4,0,1-0.6,1.4-1c0.2-0.2,0.3-0.6,0.4-1c1.4-4.6,1.2-9.1-0.8-13.4c-0.9-2-2.4-3.6-4.3-4.7
		c-6.2-3.6-14.7-1.4-18.5,4.7c-1.7,2.7-2.5,5.8-2.8,8.9C175.3,174.6,175.4,176,176.9,177.3z M218.1,207.8c0-0.1,0-0.2,0-0.3
		c-2.6,0-5.2,0-7.8,0c-3.4,0.1-5.6,2.1-5.7,5.5c0,1.2,0.2,2.5,0.4,3.7c0.8,4.2,1.7,8.5,4.3,12.1c2.5,3.5,5.8,4.6,9.7,2.8
		c6.8-3.1,12.2-7.9,15.8-14.5c0.8-1.5,1.2-3.4,1.3-5.1c0.2-2.7-0.6-3.4-3.2-3.5C228,208.3,223.1,208,218.1,207.8z M266.2,189
		c0.3,0,0.6,0,0.9-0.1c1.9-6,2.7-12-0.8-17.8c-0.6-1.1-1.9-2-3-2.6c-3.7-1.8-10.8-1.6-14.4,3.4c-2.5,3.5-3.6,7.4-3.5,11.7
		c0,1.1,0.1,2.2,1.6,2.9c0.5-0.9,1.2-1.7,1.6-2.6c0.7-1.5,1.3-3.2,2-4.7c0.9-1.8,2.3-3.2,4.1-4.2c4-2.1,7.3-1,8.9,3.3
		c0.9,2.4,1.3,5,1.9,7.6C265.7,186.9,266,187.9,266.2,189z M222.4,184.5c-1.3,0.4-2.6,0.6-3.8,1.2c-4,2.2-4.2,7.4-0.3,9.9
		c3,1.9,7.7,1.3,10.1-1.3c1.9-2.1,1.9-5,0-7.1C226.9,185.5,224.9,184.7,222.4,184.5z"/>
	<path class="st0" d="M99.4,270.1c-5.3-0.1-13-1.4-20.3-4.3c-12.3-4.9-21.2-13.4-26.2-25.7c-4.1-10-5.8-20.4-4.5-31.2
		c0.7-5.6,2.2-11,4.4-16.1c1.9-4.3,5-7.9,8.6-11c6.4-5.7,14-9,22.3-10.8c0.8-0.2,1.8,0,2.6,0.3c5.1,1.9,10.4,2.9,15.8,3
		c3.9,0.1,7.9-0.5,11.7-1.3c5.5-1.2,9.8,1,13.8,4.2c0.6,0.5,0.8,1.7,0.9,2.6c0.3,3.7,0,7.4,0.7,11c2.5,13.5,9.2,24.6,19.8,33.4
		c1.7,1.4,2.2,2.7,1.6,4.8c-4.4,17.7-14.1,30.9-31.3,37.9C113.8,269.3,108,270.1,99.4,270.1z"/>
	<path class="st0" d="M267.2,257.3c-2.9,10-5.7,19.5-8.6,29.2c-1-0.3-2.1-0.6-3.2-0.9c-19.7-6.7-39.3-13.4-58.9-20
		c-4.6-1.6-9.3-2.9-14.2-3.1c-1.7-0.1-3.4,0.1-5.3,0.2c0.2,0.9,0.4,1.4,0.5,2.1c7-0.4,13.4,1.7,19.7,4.2c5.8,2.3,11.5,4.5,17.6,6.9
		c-0.5,1.4-1,2.6-1.5,3.8c-4.3,9.9-9.8,19.2-15.7,28.3c-2,3.1-4.2,6-6.3,9.1c-3.9,5.9-9.4,7.4-16,6.4c-5.6-0.8-10.8-2.8-15.7-5.4
		c-12-6.4-23.4-13.8-34.1-22.2c-0.8-0.7-1.6-1.4-2.6-2.3c9.6-10.5,19.1-20.8,28.6-31.3c-0.6,0.3-1.2,0.6-1.6,1c-4,3.7-8,7.5-12,11.3
		c-5.3,5.1-10.6,10.2-15.9,15.4c-0.4,0.4-0.8,0.7-1.2,1c-4.8-2.5-11.3-12-11.7-16.7c25.4-5.2,38.8-21.7,43.9-46.4
		c0.4,0.2,0.8,0.3,1.1,0.5c9.2,5.8,19.4,8.9,30,10.9c9.4,1.8,18.9,2.7,28.4,3.3c6.7,0.4,13.4,1.2,19.9,3.1
		c9.5,2.7,19.1,5.1,28.3,8.8C263.1,255.2,265.1,256.3,267.2,257.3z"/>
	<path class="st0" d="M385.8,73c-15.1-2.4-29.8-2.1-44.3,1.1c-14.4,3.2-27.9,8.7-40.5,17.2c-6-21.8-19-37.4-39.8-46.5
		c0.4-0.6,0.6-1,0.9-1.3c9.6-10.9,20-21,32-29.2c3.5-2.4,7.3-4.6,11.1-6.6c8.4-4.5,17.3-5.4,26.7-3.2c17.3,4,30.7,13.3,40.1,28.3
		C379.6,45,383.5,58.4,385.8,73z"/>
	<path class="st0" d="M255.7,535.6c0.5-13.2,1.5-26.4,3.3-39.5c2-15.2,4.8-30.2,10.2-44.6c2.2-6,5.1-11.7,9.1-16.8
		c2.6-3.2,5.6-5.8,9.4-7.5c2-0.9,3.8-0.9,5.5,0.5c1.2,1,2.6,2,3.7,3.1c2.4,2.5,3.7,5.1,3.2,8.9c-1.5,11.6-2.6,23.2-3.7,34.9
		c-0.9,9.2-1.6,18.4-2.3,27.7c-0.7,8.8-1.4,17.6-2,26.4c-0.3,5.1-0.6,10.2-0.7,15.4c-0.1,1.7-0.5,3.1-1.7,4.3
		c-5.3,5.2-10.6,10.5-15.9,15.8c-0.5,0.5-1.1,0.9-1.6,1.4c-2.9,2.3-4.6,2.4-7.8,0.7c-2.6-1.4-4.2-3.7-5.3-6.2
		c-1.5-3.4-2.3-7-2.6-10.7C255.9,544.8,255.9,540.2,255.7,535.6z"/>
	<path class="st0" d="M102.8,322.1c0.8,0.3,1.6,0.6,2.3,0.9c8.3,3.5,16.4,3.1,24.4-1.2c3.7-2,7.2-4.5,10.3-7.3
		c0.6-0.5,1.2-1.1,1.9-1.7c3.5,2.3,7,4.5,10.6,6.8c-0.5,0.9-0.9,1.6-1.4,2.4c-7.9,12.3-15.9,24.6-23.8,36.9
		c-4.5,6.9-6.5,14.5-6,22.8c0.2,3.9-0.3,7.7-1.8,11.4c-2.1,5.1-6,7.7-11.4,8.2c-2.8,0.3-5.3-0.7-7-2.7c-1.7-1.9-3.2-4.1-4.4-6.4
		c-2.9-5.6-4.2-11.6-5.3-17.8c-1.5-8.9-2.3-17.8-2.3-26.8c0-4,1.3-7.4,3.9-10.6c3.1-3.9,5.8-8.2,8.6-12.4
		C101.8,323.7,102.2,323,102.8,322.1z"/>
	<path class="st0" d="M111.6,285.8c7.3,9.8,16,17.3,25.8,23.9c-3.1,3.5-6.7,6.1-10.4,8.4c-6.8,4.1-14,4.5-21.2,1.4
		c-3.6-1.5-7-3.7-10.3-5.8c-3.5-2.3-6.7-4.9-10-7.3c-0.9-0.7-2-1.2-3.1-1.9c-0.4,0.7-0.6,1.2-0.9,1.8c0.8,0.6,1.5,1.2,2.3,1.8
		c-0.5,0.6-0.9,1.2-1.4,1.6c-3.7,3.4-7.6,6.3-12.6,7.4c-2.3,0.5-4.7,0.6-6.9-0.2c-6.2-2.1-10.9-5.8-12.6-12.5
		c-0.7-2.6-0.2-5.2,0.5-7.7c0.6-2.1,1.4-4.1,2.3-6c3.3-6.9,11.8-18,17.9-23.4c11.2,5.6,23.1,7.7,35.6,6.8c0.9,2.5,1.7,4.7,2.4,7
		c0.2,0.5,0.1,1,0,1.5c-1.5,8.5-1.2,17-1.1,25.6C109.3,301,109.7,293.5,111.6,285.8z"/>
	<path class="st0" d="M121.2,145.1c0.4,1.6,0.9,3.1,1.2,4.7c0.8,4.5,3.1,7.8,7.2,9.8c0.3,0.2,0.6,0.4,1.1,0.7
		c-1.4,2-2.6,3.9-4.1,5.7c-0.7,0.8-1.8,1.5-2.9,1.8c-11,3.6-22.1,4.8-33.3,1.2c-2.2-0.7-4.4-1.6-6.4-2.8c-2.4-1.4-2.8-3.3-1.7-5.8
		c0.5-1,1.1-2.1,1.9-2.9c1.1-1.2,2.3-2.3,3.7-3.1c6.8-4.3,14-7.7,21.9-9.5C114,144,116.9,144,121.2,145.1z"/>
	<path class="st0" d="M87,472.6c5.4,6.2,9.3,13.1,9.8,21.4c0.2,2.6-0.2,5.2-1.3,7.6c-1.4,3-3.6,4.6-7,5c-1-3.6-1.2-7.4-1.6-11.1
		c0-0.4,0.1-1,0.3-1.2c2.5-2.8,2.3-6.1,1.8-9.4c-0.1-0.4-0.2-0.9-0.3-1.8c-0.7,1.5-1.2,2.6-1.7,3.7C86.2,482,86.3,477.3,87,472.6z"
		/>
	<path class="st0" d="M101.8,144.5c-2.6,1.1-5.3,2.1-7.9,3.2c-4,1.7-7.8,3.7-11.1,6.6c-2.1,1.8-3.6,3.9-4.2,6.7c-0.6,2.7,0,5,2,6.9
		c0.3,0.3,0.6,0.6,0.9,1c0,0.1,0,0.2,0,0.2c-3.8,1.2-7.7,2-11.4,3.6c-3.7,1.6-7.1,3.8-10.4,5.7c0.4-3.6,9.8-15.8,17.1-21.7
		C84.1,150.6,92.4,146.3,101.8,144.5z"/>
	<path class="st0" d="M476.7,409.7c-0.3,4.2-1.6,7.5-3.8,10.7c-2.8-1.6-5.4-3-8.4-4.6C468.6,413.7,472.4,411.9,476.7,409.7z"/>
	<path class="st0" d="M163.7,325.2c2,0.7,3.6,1.2,5.5,1.9c-2.5,4.1-4.8,8-5.5,12.7C162.3,335,162.6,330.3,163.7,325.2z"/>
	<path class="st0" d="M234,33.2c-0.7,0.1-1.4,0.4-2,0.2c-6.2-1.9-12.5-2.6-18.9-2c-1,0.1-1.9-0.2-2.7-1.6c8.3-0.4,16.1,0.1,23.7,2.6
		C234,32.6,234,32.9,234,33.2z"/>
	<path class="st0" d="M128.4,175.4c-2.2-1.5-4.3-2.9-6.6-4.4c1.3-0.6,2.4-1,3.4-1.4C128.9,172.7,128.8,171.8,128.4,175.4z"/>
	<path class="st0" d="M239.6,244c1.9,0.1,4.3-2.1,5.9,1.3C243.2,244.8,241.4,244.4,239.6,244z"/>
	<path class="st0" d="M337.4,303c0.1,0.8,0.2,1.7,0.4,2.7c-0.8,0-1.5,0-2.6,0c0.7-1.1,1.2-2,1.7-2.8
		C337,302.9,337.2,302.9,337.4,303z"/>
	<path class="st0" d="M114.4,142.4c2-0.3,4.1-0.8,6.4,0.2c-1.3,0.9-2.3,0.2-3.2,0.1C116.5,142.6,115.4,142.5,114.4,142.4z"/>
	<path class="st0" d="M128.5,169.6c-0.6-0.3-1-0.5-1.6-0.8c0.5-0.6,0.9-1.1,1.6-1.9C128.5,168,128.5,168.7,128.5,169.6z"/>
	<path class="st0" d="M234.8,210.4c-0.2,1.2-0.2,2.4-0.6,3.5c-0.4,1.2-1,2.3-1.8,3.3c-3.6,4.7-8.1,8.4-13.4,11
		c-3.7,1.8-5.8,1.1-7.7-2.5c-2-3.8-2.9-7.9-3.5-12.1c-0.3-1.9,0.6-3,2.5-3.1c7.8-0.2,15.6-0.4,23.4-0.5
		C234,210,234.2,210.2,234.8,210.4z"/>
	<path class="st0" d="M223.5,194.7c-0.9-0.4-2.3-0.8-3.4-1.6c-1.8-1.3-1.7-3.4,0.1-4.8c1.7-1.4,3.7-1.8,5.8-0.9
		c1.5,0.6,2.6,1.6,2.7,3.4c0.1,1.5-1.1,3-2.8,3.5C225.3,194.4,224.7,194.5,223.5,194.7z"/>
</g>
</svg>
