<?xml version="1.0" encoding="utf-8"?>
<!-- Generator: Adobe Illustrator 26.0.0, SVG Export Plug-In . SVG Version: 6.00 Build 0)  -->
<svg version="1.1" id="Capa_1" xmlns="http://www.w3.org/2000/svg" xmlns:xlink="http://www.w3.org/1999/xlink" x="0px" y="0px"
	 viewBox="0 0 595.3 624.7" style="enable-background:new 0 0 595.3 624.7;" xml:space="preserve">
<style type="text/css">
	.st0{fill:#FFFFFF;}
</style>
<g>
	<path d="M590.8,272.6c-6.2-9.4-14.2-16.2-26.1-16.9c-0.6,0-1.3-0.3-2.2-0.5c1.1-0.7,1.9-1.2,2.6-1.7c2.5-1.9,5-3.7,7.3-5.8
		c3-2.7,5-6.1,6.2-9.9c2-6.1,0.1-11.4-5.3-14.8c-4.4-2.8-9.3-4.3-14.5-3.6c-3.3,0.4-6.6,1.4-9.9,2.2c-0.8,0.2-1.6,0.5-2.6,0.8
		c-0.4-4.7-3.2-7.1-6.8-9c-6.7-3.5-13.7-4.1-21-2.2c-6,1.6-11.4,4.6-16.5,8c-0.7,0.5-1.4,0.9-2.5,1.6c0.2-1,0.2-1.5,0.3-1.9
		c2.3-11.7,3.3-23.5,3.3-35.4c0-21.3-2.6-42.3-8-63c-2.8-10.7-6.1-21.2-11.4-31c-12-22-28.7-39.6-48.9-54
		c-12.5-8.9-26.1-15.7-40.2-21.5c-1.9-0.8-3.6-1.7-4.9-3.4c-1.1-1.3-2.6-2.4-4.1-3.4c-4.2-2.7-8.9-4.5-13.8-5.5
		c-4.2-0.9-8.5-1-12.7,0.1c-1.7,0.4-3.3,0.3-5,0.1c-5.8-0.7-11.7-1.5-17.5-1.8c-10.2-0.5-20.5,0.1-30.7,0.9
		c-11.5,1-23.1,2.1-34.5,4.3c-13.6,2.7-26.7,7.1-38.7,14.3c-18,10.8-32.4,25.4-43.4,43.2c-16,25.9-25.5,54.2-30.3,84.2
		c-1.3,8-1.8,16.1-5.3,23.6c-0.3,0.7-0.5,1.5-0.7,2.3c-1.4,5.8-2.9,11.6-4.1,17.4c-1,4.9-1.5,9.9-0.7,14.9c0.7,4.3,1.7,8.4,6,11.1
		c-0.3,2.2-0.5,4.2-0.8,6.3c-0.7,5.8-2.5,11.1-6,15.8c-2.3,3.1-4.4,6.3-6.6,9.4c-4.8,6.8-8.7,14.1-11.3,22c-2.4,7.5-3.6,15.1-2,22.9
		c3.5,16.8,11.4,31.1,24.6,42.1c4.1,3.4,8.6,6.3,13.2,9.1c11.3,6.7,23.4,11.2,35.9,15.1c18.2,5.7,36.9,8.8,55.6,11.7
		c2.7,0.4,5.3,0.8,8,1.3c0.1,0.2,0.2,0.5,0.4,0.7c-0.3,0.1-0.7,0.2-1,0.4c-11.8,8.7-23.7,17.5-35.5,26.2c-1,0.7-2,1-3.2,0.9
		c-2.8-0.3-5.7-0.5-8.5-0.7c-6.5-0.7-13-0.4-19.4,0.6c-2.1,0.3-3.2-0.2-4.5-1.8c-5.6-6.9-11.3-13.8-17-20.7
		c-14-16.8-28.1-33.5-42.1-50.2c-1.9-2.2-3.4-4.5-3-7.7c0.1-0.5,0-1.1-0.1-1.6c-0.7-5-3.1-9-7.7-11.2c-6.4-3-13-3-19.4,0
		c-6,2.8-6.5,7.3-1.6,11.7c1.9,1.7,4,3.3,6.1,4.8c2.1,1.4,2.8,3.4,2.6,5.8c-0.2,2.3-0.4,4.6-1.1,6.9c-2.1,7.5-4.3,15.1-6.7,22.5
		c-5.6,16.9-8.3,34.3-9.1,52c-0.5,11.9,0.1,23.7,2.8,35.4c0.9,3.9,2.1,7.7,3.2,11.8c-3,2.6-4.1,6.2-4.1,10.2c0,3.4,0.7,6.7,1.7,10
		c0.3,1.2,0.6,2.4,1,3.6c-17.9,9.7-35.7,19.3-53.7,29.1c0-1.6,0-2.8,0-4.1c-0.1-4.6-2.1-8.2-6-10.7c-6.9-4.2-14-4.5-21.1-0.8
		c-4.9,2.6-8.4,6.6-11,11.4c-5.2,9.6-6.4,20.1-6.8,30.8c-0.1,1.9,1,3.2,2.6,4c4.4,2.2,8.8,4.3,13.2,6.6c7.2,3.7,15,4.6,22.9,3.7
		c8.8-1,15.4-5.5,18.5-14.1c2.9-7.7-0.1-15.4-7.2-19.3c-0.2-0.1-0.4-0.3-0.8-0.6c12.4-7,24.7-13.9,37.4-21
		c-1.1,5.1,0.1,9.2,2.8,12.9c2.9,3.8,6.9,4.9,11.6,4.7c0,1.9-0.1,3.5,0,5.1c0.6,6.1,3.4,10.6,9.6,12.4c0.9,0.2,1.7,0.5,2.6,0.7
		c1.3,0.3,2.1,0.9,2.7,2.2c1.6,3.6,3.9,6.6,7,9c2.7,2.1,5.7,3.2,9.2,3c4.7-0.3,9.2-1.4,13.4-3.4c2.6-1.2,5.2-2.7,7.7-4.1
		c3.4,2.2,6.7,4.6,10.3,6.7c8.2,4.7,17.1,7.9,26.1,10.7c7.8,2.4,15.8,4.7,24,4.8c8.5,0.1,17.1-0.5,25.6-0.8c6-0.2,11.9-0.6,17.9-0.9
		c1.6-0.1,3.2,0.2,4.8,0.5c2.3,0.3,3.6,1.8,4.2,3.9c0.5,1.7,0.7,3.5,1.3,5.2c0.8,2.5,1.5,5.1,2.7,7.5c1.3,2.7,3.5,3.5,6.5,3
		c4-0.7,6.5-3.3,7.9-6.9c2.4-6.2,3.3-12.6,2.6-19.2c-0.5-4.4-2.6-7.7-6.8-9.5c-1.9-0.8-3.8-1.5-5.1-2c-3.1-3.5-4.3-7.4-5.5-11.3
		c-0.1-0.2-0.1-0.3-0.2-0.5c-7.6-16.8-15.2-33.6-22.8-50.4c-0.4-0.8-0.7-1.7-1.2-2.9c1.1,0.3,1.9,0.4,2.7,0.6
		c21.7,6.1,43.7,11.1,66.1,13.6c8.5,0.9,17.1,1.3,25.6,0.3c3-0.3,6-1,9.1-1.5c0.5,0.7,1,1.5,1.5,2.3c7.3,11.3,15.2,22.2,24.9,31.7
		c3.9,3.8,8,7.5,13.1,9.5c2.9,1.1,4.7,2.9,6.2,5.7c4.9,9.3,12.7,15.7,22.1,20.2c10.2,4.8,20.7,8.6,31.5,11.7
		c2.7,0.8,2.8,0.8,2.7,3.7c-0.1,2-0.5,4.1-0.6,6.1c-0.6,9.8,1.5,19,6.3,27.5c5,8.8,12.3,14.2,22.4,15.5c11.4,1.4,21.4-1.5,29.4-10
		c5.3-5.6,8.4-12.3,10.2-19.7c0.2-0.7,0.4-1.3,0.6-2c0.6-0.1,1.1-0.1,1.5-0.1c13.5-0.7,23.9-7,31.3-18.2c4.7-7.1,6.3-15.1,6.8-23.3
		c0.7-13.8-0.7-27.4-3.8-40.9c-2-8.7-4.6-17.2-9-25.1c-5.7-10.1-14.5-15.9-26-17.7c-1.8-0.3-3.6-0.5-5.7-0.7c0.3-0.6,0.5-1,0.7-1.3
		c1.6-3,3.2-6,4.8-8.9c0.3-0.6,0.7-1.2,1.2-1.8c2.1-2.6,3.4-5.6,4.2-8.9c1.6-6.9,1-13.8-0.2-20.7c-1.4-8-4.4-15.1-11.6-19.6
		c-1.2-0.7-2.1-1.8-3.3-2.8c5.1-3.6,8.8-8.1,12.1-12.8c6-8.5,6.6-17.4,2.8-26.9c-0.3-0.7-0.5-1.4-0.8-2.2c1.1,0.4,1.9,1,2.8,1.7
		c3.2,2.5,6.6,4.6,10.6,5.4c9.3,1.8,18.3,0.6,26.8-3.6c9.4-4.7,13.1-16.6,11.5-25.1c-1.1-6.2-4.5-11.2-8.9-15.5
		c-3.5-3.5-7.5-6.3-11.7-8.8c-0.6-0.4-1.2-0.8-1.8-1.2c1-0.3,1.8-0.2,2.6-0.1c3.8,0.3,7.6,0.8,11.5,0.7c11.2-0.1,19.7-4.8,24.8-15.1
		c1.8-3.6,2.9-7.3,3-11.3C595.4,282.2,593.8,277.1,590.8,272.6z M165.2,432.1c-1.5,5.1-3.1,10.2-4.8,15.3c-0.3,0.9-0.8,1.9-1.6,2.3
		c-6.6,3.6-13.2,7-20,10.7c-0.6-1.1-1.2-2.1-1.7-3c-1.5-2.6-3.1-5.2-4.4-7.9c-1.5-3-3.8-4.4-7.1-4.2c-0.4,0-0.9-0.1-1.5-0.1
		c-0.8-4.2-1.8-8.4-2.5-12.6c-2.3-13.7-3.3-27.4-2.8-41.3c0.5-11.8,2.7-23.3,5.4-34.8c1.5-6.1,2.7-12.3,4.1-18.5
		c0.1-0.5,0.3-1,0.5-1.8c19.6,22.9,39,45.4,58.5,68.2c-4.8,4.4-4.9,9.8-3.9,15.6c-0.6,0.4-1.2,0.9-1.9,1.3
		c-4.6,2.6-9.1,5.2-13.7,7.7C166.4,429.6,165.6,430.6,165.2,432.1z M262.5,538.7c-0.7,0.9-1.3,1.7-1.8,2.3
		c-6.6,0.2-13.1,0.5-19.6,0.6c-8.8,0.2-17.3-1.5-26-2.9c-12.7-2.1-24.2-7.2-35.1-13.8c-0.7-0.4-1.4-0.9-2-1.3
		c-0.2-0.1-0.4-0.4-0.6-0.6c0.2-0.2,0.3-0.5,0.5-0.5c4-1.2,7.4-3.3,10.8-5.7c15.4-11.1,30.9-22.1,46.3-33.1c0.8-0.6,1.6-1.1,2.6-1.8
		C246.1,501.1,254.3,519.9,262.5,538.7z"/>
	<path class="st0" d="M154.2,209.6c-2-3.1-2.7-6.6-2.7-10.1c0-3.8,0.2-7.7,0.9-11.4c1.1-6.2,2.6-12.4,4.2-18.5
		c0.9-3.7,2.6-7.2,4.8-10.4c0.5-0.8,0.8-1.6,1.2-2.5c-0.2-0.1-0.4-0.3-0.5-0.4c-0.9,0.7-1.7,1.3-3,2.3c0.5-2.8,0.9-5.1,1.3-7.5
		c3.2-19.6,8.8-38.5,16.6-56.8c6.2-14.7,13.7-28.6,23.8-41c11.9-14.6,25.9-26.5,43.1-34.4c10.5-4.8,21.6-7.8,33-9.6
		c16.7-2.6,33.5-3.9,50.3-4.3c15.6-0.4,30.7,2.1,45.5,6.7c18.8,5.8,36.8,13.6,53.4,24.2c21.6,13.9,39.4,31.6,52.4,54
		c5.8,10,9.5,20.9,12.5,32c3.9,14.6,6.4,29.4,7.7,44.4c1.1,13.3,1.1,26.5-0.2,39.8c-0.7,7.1-1.8,14.1-3.6,21.1
		c-2.8,11.2-5.1,22.6-7.1,34c-0.7,3.9-1.8,7.6-3.9,11.4c-1.4-1.6-2.7-3-3.9-4.5c-6.2-8-14.6-12.1-24.4-14.1
		c-6.4-1.3-12.7-1.5-19.1-0.8c-2.8,0.3-5.7,0.7-8.5,1c-5.8,0.7-11.7,1.4-17.5,2.1c-0.4,0.1-0.9,0-1.3,0.2c-2.8,1.1-5.3,0.3-7.9-0.8
		c-8-3.5-15.5-7.7-22.6-12.6c-21.8-15-43.9-29.6-66.6-43.2c-14.1-8.4-28.2-16.8-43.1-23.6c-11.6-5.3-23.5-9.8-36.1-12.3
		c-12.3-2.4-24.7-3.1-36.7,0.9c-13,4.3-24.7,11-34.1,21.2c-4,4.4-6.4,9.6-6.6,15.7c-0.1,2.5-0.3,5.1-0.4,7.6
		C154.6,209.6,154.4,209.6,154.2,209.6z M175.2,143.5c0.3-0.2,0.7-0.5,1-0.8c4.6-3.8,9.7-6.5,15.3-8.5c11.2-4,22.7-4.5,34.3-2.9
		c12.6,1.7,24.7,5.2,36.6,9.6c13.3,4.8,25.7,11.5,37.8,18.7c4.4,2.6,9,5,13.5,7.5c0.7,0.4,1.6,0.7,2.4,1
		c-6.8-4.9-13.7-9.5-20.6-14.1c-20.3-13.4-42.4-22.1-66.5-25.7c-10.1-1.5-20.3-1.3-30.2,1.3C189.7,132.1,181.6,136.3,175.2,143.5z"
		/>
	<path class="st0" d="M406,259.6c0,1.2,0,2.4,0,3.5c-0.1,3.9,0.6,7.6,2.2,11.2c3.6,8,7.2,16.1,10.9,24.1c0.7,1.5,0.8,2.7,0.2,4.3
		c-0.9,2.8-1.7,5.6-2.4,8.5c-0.6,2.5-0.3,5,0.8,7.3c1.1,2.4,3,3.8,5.7,3.7c2.2,0,4.4-0.2,6.7-0.3c0.8,0,1.6-0.2,2.1,0.6
		c0.6,0.9,0.1,1.5-0.4,2.2c-3.1,4.3-6.1,8.8-9.5,12.9c-2.3,2.7-4.9,5.3-7.8,7.2c-11,7.3-22.5,13.8-35.5,16.9
		c-8.2,2-16.5,3.5-24.9,4.7c-16.9,2.4-33.9,3.3-50.9,3.9c-8.9,0.3-17.6-0.6-26.4-1.8c-14.3-2.1-28.5-4.3-42.7-6.8
		c-20.3-3.6-40.1-9.1-58.8-18.1c-9.4-4.5-18.4-9.7-25.5-17.3c-9.1-9.8-15.4-21.2-18.1-34.3c-1.5-7.1-0.6-14.2,1.6-21.1
		c2.1-6.9,5.1-13.3,9.1-19.3c2.5-3.7,4.8-7.5,7.4-11.2c3.9-5.5,5.8-11.6,6.3-18.2c0.5-6.3,1-12.6,1-18.9c0-4.9,1.5-9.1,4.5-12.8
		c2-2.5,4.3-4.8,6.8-6.8c9.1-7,19.1-12.4,30.3-15.4c7.9-2.1,15.9-2.1,23.9-1.2c17.1,2.1,32.9,8.3,48.3,15.8
		c15.3,7.4,30,16,44.5,24.9c18,10.9,35.8,22.1,53.6,33.3C384.1,250.8,389.1,253.4,406,259.6z M258.6,237.6c8-0.3,15.2-2.6,21.2-8.1
		c2.2-2,4-4.4,4.8-7.2c0.2-0.7,0.2-2-0.3-2.4c-0.5-0.5-1.7-0.5-2.4-0.2c-1.5,0.6-2.9,1.3-4.3,2.2c-5,3.5-10.7,4.6-16.7,4.8
		c-5.4,0.2-10.4-1-14.9-4.2c-2.7-2-5.5-4-7.5-6.8c-0.5-0.8-1.2-1.4-2.2-1.1c-1.1,0.3-1.1,1.3-1.2,2.2c-0.1,0.6,0,1.2,0,1.9
		c0.3,3.5,1.6,6.5,3.6,9.4C243.6,235,250.6,237.4,258.6,237.6z M162.6,211.7c-0.2,0-0.4,0-0.7,0c-0.3,0.5-0.7,1-0.8,1.6
		c-0.7,3.8-1,7.6-0.2,11.4c0.8,3.6,3.5,5.6,7.2,5.2c1.1-0.1,2.1-0.3,3.1-0.6c7.6-2.7,12.7-7.9,16-15.1c0.4-1,0.8-2-0.1-3.3
		c-1,0.8-2,1.5-2.8,2.4c-3.3,3-7,5.5-11.4,6.6c-4.8,1.2-8-0.7-9.5-5.3C163.2,213.5,162.9,212.6,162.6,211.7z M197.2,235
		c-5.7,0-10.4,3.8-11.2,9c-0.9,5.4,2.1,10.4,7.4,12c4.6,1.4,8.8,0.5,12.3-2.9c4.2-4.1,4.2-10.7-0.1-14.8
		C203.3,236.1,200.5,235,197.2,235z M188.2,297.6c0-2.4-0.7-4.6-1.8-6.1c-2.3-3-6.1-2.6-7.7,0.8c-1.3,2.8-0.6,6.7,1.7,8.9
		c1.3,1.2,2.8,1.9,4.6,1.4c1.9-0.5,2.6-2,3-3.7C188.2,298.4,188.2,297.8,188.2,297.6z"/>
	<path class="st0" d="M343.1,423.2c-0.5-2.1-2.2-1.1-3.4-1.2c-1.3-0.2-2.7,0-4.4,0c0.5-1,0.7-1.8,1.1-2.4
		c3.7-6.9,7.9-13.3,12.8-19.4c8.5-10.6,16.9-21.2,25.4-31.8c1-1.2,2.1-2,3.7-2.4c6.8-1.8,13.4-4.2,19.6-7.8c5.2-3,10.4-5.9,15.5-8.9
		c0.6-0.4,1.3-0.7,1.7-1.2c2.4-3,5.7-2.7,8.9-2.5c0.6,0,1.2,0.3,1.7,0.7c4,2.8,8,5.6,12.1,8.4c1,0.7,1.7,1.5,1.5,2.9
		c-0.2,1,0.3,1.7,1.1,2.3c2.4,1.6,4.6,3.5,7.2,4.6c9.2,3.9,17.4,9.3,25.7,14.8c5.8,3.8,11.2,8.2,16.5,12.8c4.2,3.6,8.5,7,12.8,10.5
		c1.6,1.3,3.4,2.4,5.6,1c3.1,2.9,6.1,5.7,9.1,8.5c0.6,0.6,1,1.5,1.4,2.3c4,9.7,5.1,19.8,3,30.1c-0.3,1.3-0.8,2.5-1.3,3.8
		c-0.4,0.9-0.9,1.7-1.6,2.8c-0.9-0.7-1.7-1.2-2.4-1.8c-15.1-12.4-30.1-24.8-45.2-37.3c-4-3.3-8.1-6.5-12.8-8.6
		c-1.1-0.5-2.3-0.9-3.5-1.1c7.6,3.4,13.3,9.2,19.2,14.6c13.2,12.2,26.5,24.4,39.7,36.6c0.7,0.6,1.3,1.2,2.1,1.9
		c-0.9,1.7-1.6,3.3-2.6,4.8c-2.2,3.1-4.2,6.4-6.8,9.2c-10.8,11.7-21.6,23.5-33.8,33.9c-14.1,12-29.6,21.6-47.1,28
		c-6.2,2.3-12.5,3-18.9,2.6c-3.5-0.2-7.1-0.7-10.5-1.5c-6.1-1.4-11.3-4.6-16-8.7c-8.7-7.6-16-16.5-23-25.6c-2-2.6-3.9-5.3-5.9-8
		c0.5-0.3,0.7-0.6,1-0.7c11-3.8,20.3-10.3,28.7-18.1c14.2-13.3,25.5-28.7,34.3-46.1c4.2-8.3,8.9-16.4,13.4-24.7
		c0.4-0.8,0.9-1.5,1.3-2.4c-0.4-0.3-0.8-0.6-1.3-0.9c-0.5,0.6-1,1.1-1.3,1.7c-5.3,8.9-10.6,17.7-15.7,26.7
		c-10.6,18.6-23.6,35.2-40.8,48.3c-7.7,5.8-16,10.3-25.5,12.4c-7.3,1.6-14.7,1.7-22.1,1.1c-26.2-1.9-51.5-8-76.7-15
		c-2.2-0.6-3.3-2-3.8-4c-0.9-3.3-1.1-6.7-0.9-10.1c0.8-13,2.3-25.9,5.3-38.6c0.8-3.3,1.9-6.5,3-9.7c0.3-1,0.9-1.9,1.4-2.9
		c0.9-1.6,2.1-2.5,4.2-2c5.9,1.3,11.9,2.3,17.8,3.6c3.3,0.7,6.6,1.7,9.9,2.3c5.5,0.9,11.1,1.5,16.7,2.2c5.3,0.6,10.3,1.9,15,4.5
		c4.7,2.6,9.6,4.8,14.9,5.9c4.2,0.9,8.5,0.5,12.8,0.2C342.8,423.6,342.9,423.4,343.1,423.2z"/>
	<path class="st0" d="M490.5,281.3c3.5-6.1,7.5-11.7,11.9-17c10.9-13.1,23.4-24.4,38-33.4c5.4-3.3,11.1-5.9,17.5-6.9
		c4.6-0.7,8.9,0.4,12.8,2.8c3.8,2.3,5,5.6,3.5,9.9c-1.2,3.5-3.3,6.5-6.1,9c-4.8,4.2-10.3,7.2-16.1,9.9c-0.9,0.4-1.7,0.8-2.8,1.3
		c0.4,1.2,0.7,2.4,1.1,3.8c2.3-0.3,4.4-0.5,6.6-0.7c4.8-0.5,9.6-0.1,14.3,1.3c3.8,1.1,7.2,3.1,9.9,6.1c2.1,2.4,4.5,4.7,6.2,7.3
		c5.4,8.3,5.3,16.7,0,25.1c-4,6.4-9.7,9.7-17.1,10.4c-8.2,0.8-16.2-0.5-24-2.6c-0.9-0.2-1.9-0.5-2.8-0.7c-0.1,0-0.2,0-0.3,0.1
		c-1.3,2.1-1.4,2.8,0.3,4.3c1.4,1.3,3,2.5,4.7,3.5c2.7,1.7,5.5,3.3,8.2,5c4.1,2.6,7.8,5.6,10.9,9.4c2.8,3.4,4.8,7.2,5.4,11.7
		c1.2,8.3-3.3,17.3-10.8,20.9c-7,3.4-14.5,4.3-22.1,3.3c-4-0.5-7.6-2.5-10.8-5.1c-1.3-1-2.5-2-3.8-2.9c-0.7-0.5-1.6-0.9-2.4-1.2
		c-1-0.5-2.1-0.3-2.6,0.6c-0.4,0.7-0.5,1.8-0.4,2.7c0.1,0.6,0.7,1.2,1,1.9c3.2,5.9,4.6,12.1,3.1,18.8c-0.2,0.8-0.4,1.6-0.7,2.3
		c-3.3,7.1-8,13.3-14.4,17.9c-2.4,1.7-2.7,1.7-4.9-0.1c-5.2-4.2-10.3-8.5-15.5-12.7c-12-9.8-24.8-18.2-39-24.6
		c-2-0.9-3.9-2.2-5.8-3.3c-1.4-0.8-1.9-1.9-1.7-3.6c0.7-5.3,2.7-10.1,5.9-14.7c0.8,0.6,1.5,1.1,2.2,1.6c9.8,7.8,20.6,13.9,32.4,18.4
		c7.3,2.8,13.3,1,18.5-4.2c5.1-5,7.4-11.4,8.5-18.4c1.8-11.7-0.4-22.9-5.1-33.6c-3.3-7.5-7.4-14.4-12-21.1
		C491.6,282.9,491.1,282.2,490.5,281.3z"/>
	<path class="st0" d="M499,549.7c-1.1,0.3-2.2,0.5-3.3,0.9c-6.4,2.2-13,3.8-19.9,3.7c-16.4-0.1-31.4-4-43.2-16.3
		c-0.9-0.9-1.7-1.8-2.8-3.1c13.9-5.4,26.6-12.5,38.2-21.4c11.6-8.8,21.8-19.1,32-30.3c-0.3,4.9-1,9-2.2,12.9
		c-1.6,5.3-3.4,10.5-5.6,15.6c-3.1,7.4-6.6,14.6-10,22c0.3-0.2,0.5-0.3,0.6-0.4c5.2-9.5,10.6-19,15.4-28.7
		c3.9-7.9,6.1-16.3,6.9-25.1c0.1-1.5,0.7-2.6,1.7-3.8c1.6-1.7,3.2-3.6,4.6-5.5c0.8-1,1.6-1.5,2.9-1.3c11.4,1.2,20.9,5.9,27,16
		c3.7,6.2,5.9,13,7.6,19.9c3.5,13.7,5.2,27.7,4.9,41.8c-0.1,5.3-0.6,10.5-2,15.6c-3.9,14.4-16.6,25-31.6,25.9
		c-6.9,0.4-13.3-1.6-18.8-5.6c-8.4-6-13.6-14.2-15.7-24.3c-0.1-0.7-0.2-1.4-0.3-2.1c0-0.3,0.1-0.7,0.1-1.1c3.7-1.3,7.4-2.6,11-4
		C497.6,550.6,498.2,550.1,499,549.7c0.7-0.2,1.3-0.4,2-0.5c-0.1-0.2-0.1-0.3-0.2-0.5C500.2,549,499.6,549.3,499,549.7z"/>
	<path class="st0" d="M408.1,258.8c2-0.2,3.8-0.6,5.6-0.7c9.2-0.7,18.5-1.4,27.7-1.9c3.7-0.2,7.5-0.1,11.1,1.2
		c1.8,0.6,3.9,0.7,5.7,1.3c7.3,2.1,13.3,6.1,18.1,12.1c6.6,8.1,12.8,16.5,17.9,25.6c4.1,7.3,7.6,15,9.3,23.3
		c1.7,8.4,1.7,16.8-1.3,25.1c-1.4,3.9-3.4,7.2-6.7,9.8c-3.4,2.7-7,3.6-11.2,2.1c-14.5-5.4-27.7-13-38.9-23.9
		c-4.1-3.9-7.3-8.5-10.4-13.2c-9.6-15.1-17.6-31-25.2-47.1C408.1,268.1,407.9,263.6,408.1,258.8z"/>
	<path class="st0" d="M514,592.2c-1.4,7.3-4.1,13.7-9.1,19c-6.7,7.2-15,9.9-24.7,8.9c-9.3-0.9-15.9-5.8-20.4-13.8
		c-4.8-8.7-7-18-5.6-28c0.2-1.7,0.2-3.4,0.1-5c-0.2-2.6-1.6-4.1-4.2-4.7c-8.6-2.1-17-4.8-25.1-8.2c-4.2-1.7-8.3-3.6-12.3-5.8
		c-6.6-3.6-11.8-8.9-15.7-15.3c-0.4-0.6-0.6-1.3-1.2-2.2c2.4,0.4,4.5,0.8,6.7,1c7,0.9,13.9,0.8,20.7-1c1.5-0.4,2.1,0.2,2.9,1.1
		c5.1,5.5,11,9.8,17.8,13c6.6,3.1,13.5,4.3,20.7,4.9c6.2,0.6,12.5,0.4,18.8-0.8C485.6,574.1,495.1,586.9,514,592.2z"/>
	<path class="st0" d="M199.3,459c0.3,1,0.6,2.1,0.9,3.1c2.4,6.9,6.9,11.3,14.3,12.4c3.8,0.6,7.5-0.4,10.8-2.1
		c1.5-0.8,2.9-1.2,4.5-0.5c0.2,0.1,0.5,0.1,0.8,0.2c3.6,0.8,3.6,0.8,4.8,4.8c-0.5,0.4-1.1,1-1.7,1.5c-16.6,12.8-33.1,25.6-49.7,38.4
		c-2.5,1.9-5.4,3.1-8.4,3.9c-2.1,0.6-2.7,0-2.7-2.2c0-2.9-0.8-5.5-2.2-7.9c-2.5-4.5-5-9.1-8.1-13.2c-4.5-6.1-9.3-11.9-14.4-17.6
		c-2.5-2.8-3.1-5.7-2.7-9.3c0.4-3.6,1.8-5.9,5.3-7.4c4.1-1.8,8-4.3,12.1-6.5c4.2,2.3,8.4,4.6,12.5,7c1.6,1,3,1.1,4.7,0.2
		c3.9-2,7.9-3.8,11.8-5.8c1.3-0.7,2.4-0.8,3.8-0.2C196.8,458.3,198,458.6,199.3,459z"/>
	<path class="st0" d="M245.8,408c-6.2,19.4-8.9,39.2-8.9,59.7c-2.8,0.9-5.8,0.4-8.8-0.1c-3.8-0.7-7.6-1.7-11.4-2.6
		c-0.4-0.1-0.9-0.2-1.3-0.2c-0.1,0.2-0.2,0.3-0.4,0.5c0.6,0.5,1.2,1,2,1.6c-0.2,0.5-0.4,1.1-0.6,1.8c0.3,0,0.5,0.1,0.7,0
		c1.1-0.4,2.2-1.4,3.5,0.2c-3.7,1.5-7.2,1.3-10.6-0.5c-5.4-2.9-8.8-10.4-7.6-16.4c0.4-1.7,0.6-3.5,0.7-5.3c0.1-1-0.3-2.1-0.5-3.6
		c-1.2,3.7-2.3,7-3.3,10.1c-6.2,0.1-11-4.8-10.6-10.7c0.2-3,1-5.8,2.7-8.3c2.2-3.2,4.4-6.3,6.6-9.4c1.1-1.5,2.1-3.1,1.8-5.4
		c-2.2,2.4-4.2,4.6-6.1,6.8c-5-3-7.6-10.4-5.6-15.5c0.8-2.1,2.4-3.5,4.3-4.5c2.8-1.5,5.9-2.1,9-2.5c7.3-0.9,14.6-0.7,21.9-0.3
		c7.1,0.4,14,1.5,20.6,4C244.5,407.5,245.1,407.8,245.8,408z"/>
	<path class="st0" d="M102.9,313.3c1.6-2.4,3.7-3.2,5.8-3.9c3.3-1,6.7-1,10.1-0.4c5.9,1,9.3,5.5,10,10.7c0.1,1,0.2,1.9,0.3,3.1
		c-3.2,0.8-4.8,3.1-5.6,6.1c-0.9,3.5-0.4,4.9,2.9,7.3c-1,3.1-2.2,6.3-3.1,9.6c-2.5,8.8-5.3,17.6-7.4,26.5
		c-2.2,9.6-2.7,19.4-2.3,29.2c0.5,14.7,3.1,29,8,42.9c0.1,0.3,0.2,0.7,0.3,1.2c-7.2,2.4-13.3,6.7-20.1,10.7c-0.7-3-1.4-5.7-1.8-8.3
		c-2-11.4-2.4-22.8-1.7-34.4c0.9-15.1,3-30,7.1-44.5c2.5-9.1,5.6-18,8.1-27.1c1.1-3.7,1.7-7.7,2.1-11.5c0.6-4.6-0.9-8.4-5.1-10.9
		c-1.7-1.1-3.4-2.3-5-3.6C104.6,315.3,103.9,314.3,102.9,313.3z"/>
	<path class="st0" d="M149.9,533.8c0.9-1.2,1.4-2.5,2.4-3.4c3.6-3.2,7.3-6.2,11-9.3c1-0.8,2.1-1.3,3.3-1.8c2-0.8,2.5-0.6,3.9,1.2
		c0.6,0.8,1.4,1.6,2.2,2.3c11.8,10.9,25.4,18.1,41.4,20.9c8.5,1.5,17.1,2.8,25.7,2.1c4.8-0.4,9.5-1.2,14.3-1.8
		c1.1-0.1,2.3-0.2,3.5-0.4c1.8-0.2,3.4-0.4,4.8,1.2c1.1,1.2,3,1.1,4.6,0.8c1.6-0.3,3.2-0.6,4.7-1.1c1.3-0.5,2.4-0.4,3.6,0.1
		c1.3,0.6,2.6,1.2,3.9,1.8c3.4,1.6,4.8,4.6,5,8.2c0.2,5.4-0.9,10.6-2.8,15.7c-0.5,1.2-1.2,2.4-2,3.4c-0.6,0.7-1.5,1.3-2.4,1.6
		c-1.7,0.6-2.4,0.2-3.1-1.5c-0.6-1.6-1.1-3.2-1.5-4.8c-0.5-1.8-0.8-3.6-1.2-5.5c-1-5-4.2-7.7-9.1-8.5c-2.3-0.3-4.6-0.5-6.9-0.4
		c-10.2,0.5-20.5,1-30.7,1.8c-10.7,0.8-21.1-0.7-31.4-3.4c-9-2.4-18-5-26.4-9.2c-5.2-2.6-10.1-5.9-15.2-9
		C150.9,534.7,150.6,534.4,149.9,533.8z"/>
	<path class="st0" d="M306.6,375.1c0.5,6.5,0.7,12.7,1.5,18.9c0.8,6.1,2.3,12.2,3.5,18.3c-0.2,0-0.4,0.1-0.6,0
		c-5.8-2-11.8-2.7-17.8-3.4c-3.3-0.4-6.7-1.1-10-1.9c-8.2-1.9-16.5-3.8-24.7-5.8c-0.6-0.1-1.2-0.2-1.8-0.3c-4.1-1.1-6.9,0.5-9,3.9
		c-0.1,0.2-0.3,0.4-0.5,0.6c-0.1,0.1-0.1,0.1-0.2,0.1c-5.1-1.6-10.3-3.2-15.6-4.8c0.6-0.5,1-0.9,1.5-1.2c12-7.9,24.1-15.9,36.2-23.8
		c0.3-0.2,0.6-0.3,0.9-0.6c2.1-1.7,4.4-1.9,7-1.6c9.2,1.3,18.4,1.9,27.7,1.5C305.4,375.1,306,375.1,306.6,375.1z"/>
	<path class="st0" d="M5.3,537.1c-0.1-4.5,0.4-8.7,1.1-12.9c0.8-4.9,2-9.8,4.2-14.3c1.6-3.3,3.7-6.3,6.5-8.8c6-5.3,14.5-6,21-1.7
		c3.6,2.4,5.8,8.3,4.4,12.3c-0.2,0.7-0.9,1.3-1.4,1.9c-0.9,1.2-2,2.3-2.8,3.6c-1,1.7-0.3,3,1.7,3.1c1.2,0.1,2.5,0,3.7-0.3
		c4.3-0.9,8,0.9,9.8,4.8c2,4.3,2,8.7-0.3,12.9c-2.8,5.2-7.2,8.4-13,9.2c-6.9,1-13.7,0.5-20.1-2.5C15.1,542.1,10.2,539.6,5.3,537.1z"
		/>
	<path class="st0" d="M487,276.6c-0.7-0.9-1.2-1.5-1.8-2.3c3-5.1,4.4-10.8,5.7-16.5c2-8.9,4-17.7,6-26.6c0.5-2.1,1.3-3.6,3.3-4.8
		c2.9-1.7,5.5-4,8.3-5.9c4.1-2.8,8.6-5.1,13.5-6.3c6.1-1.5,11.8-0.5,17.3,2.2c1.6,0.8,3,1.9,3.9,3.5c1,2,0.6,3.5-1.2,4.4
		c-11.7,6.1-21.8,14.4-31.3,23.5c-8.5,8.1-16.1,17.1-22.5,27.1C487.8,275.6,487.5,276,487,276.6z"/>
	<path class="st0" d="M171.2,517.3c-3.6-1.6-6.5-0.8-9.4,0.7c-4.8,2.6-8.7,6.2-12,10.4c-2,2.6-2.1,4.2-1,7.8
		c-2.3,1.2-4.5,0.7-6.9-0.1c0.4-0.8,0.7-1.4,1-2c2.2-3.6,2-7.3,0-10.9c-2.1-4-5.1-7.2-9-10c0-3.9-0.9-7.6-3.8-10.6
		c-3-3.1-6.9-2.8-10.7-2.1c-1.6-9.3-3.3-12.5-8.9-16c1-0.6,1.9-1.1,2.8-1.6c0.9-0.4,1.7-0.8,2.5-1.2c0.3,0.2,0.5,0.4,0.5,0.5
		c0.3,4.2,2.8,7,6.3,9c3.1,1.7,6.3,2.8,9.9,2.9c3.2,0,5.9-1,8.4-2.9c1.6-1.2,3.2-2.5,5-3.8c0.6,0.8,1.1,1.4,1.6,2
		c5.8,7.5,12,14.6,19.3,20.6C169,511.7,169.9,514.3,171.2,517.3z"/>
	<path class="st0" d="M332.8,421.2c-1.2-1.9-2.3-3.4-3.1-5.2c-0.4-0.9-0.4-2.1-0.2-3.1c0.7-3.4,0.7-6.8,0.2-10.1
		c-1-6.8-0.7-13.7-0.7-20.6c0-0.3,0.1-0.7,0.2-1.1c2.2-0.3,4.4-0.6,6.6-0.9c8.2-1.4,15.5-5.2,22.6-9.3c2.5-1.4,5.8-2.2,9.4-2.2
		c-0.6,0.8-1,1.5-1.5,2.2c-6.6,9-13.1,18-19.7,27c-4.8,6.6-9,13.5-12.5,20.8C333.7,419.6,333.3,420.2,332.8,421.2z"/>
	<path class="st0" d="M133.3,461.1c-3.6,1.6-6.4,3.7-8.8,6.5c-0.4,0.5-0.9,0.8-1.5,1.1c-6.9,3.7-13.8,7.4-20.7,11.1
		c-0.4,0.2-0.8,0.3-1.5,0.6c-1.6-5.2-2.9-10.2-1.6-15.5c0.6-2.3,2-4,3.9-5.2c5.8-3.6,11.6-6.9,18-9.2c0.3-0.1,0.5-0.2,0.8-0.3
		c4.6-1.4,5.2-1.1,7.4,3.3C130.7,455.9,131.9,458.4,133.3,461.1z"/>
	<path class="st0" d="M185.3,437.2c0.2,0.5,0.2,0.6,0.2,0.7c-1,5.1-1,5.1-5.6,7.4c-23.6,11.8-46.8,24.3-69.7,37.4
		c-2.1,1.2-4.3,2-6.6,2.9c-3,1.2-6.1,2.1-9,3.3c-2.7,1.1-4.9,2.8-6.7,5.2c-0.5,0.8-1.4,1.4-2.2,1.8c-13,7-26.1,13.9-39.1,20.9
		c-1.8,1-3.7,1.6-6.1,1.3c1.3-2.2,2.9-3.7,5-4.8c14.5-7.8,29.1-15.5,43.5-23.4c31.2-17,62.3-34.1,93.5-51.2
		C183.5,438.1,184.4,437.7,185.3,437.2z"/>
	<path class="st0" d="M130.9,328.2c20.9,24.3,41.7,48.4,62.6,72.7c-1.8,0.9-3.5,1.7-5.4,2.6c-0.6-0.7-1.2-1.3-1.7-2
		c-18.3-22.1-36.6-44.2-55-66.3c-0.1-0.1-0.2-0.3-0.3-0.4C128.8,332,128.7,331.7,130.9,328.2z"/>
	<path class="st0" d="M137.1,540.4c1.5-1.2,2.5-2,3.4-2.8c2.6,0.6,5,1.2,7.7,1.8c-0.6,0.3-1.2,0.6-1.8,0.9
		c-4.3,1.7-8.9,2.6-13.5,2.9c-2.8,0.2-5.3-0.8-7.4-2.5c-2.4-2-4.2-4.6-5.5-7.5c-0.9-1.9-0.8-3.8,0.5-5.6c2.4-3.2,5.1-6.2,8.4-8.5
		c0.6-0.4,1.2-0.7,1.8-1.1c1.2-0.7,2.4-0.6,3.4,0.4c1.7,1.7,3.5,3.3,4.9,5.2c3.3,4.3,3.4,7.7-0.4,12.9c-0.5,0.6-1.1,1.2-1.5,1.9
		C136.9,538.7,137.1,539.3,137.1,540.4z"/>
	<path class="st0" d="M117,501.2c-3.7,2-7.2,4-10.7,5.8c-1.6,0.9-3.1,1.8-3.9,3.5c-0.5,1-1.3,1.4-2.4,1.3c-2.9-0.2-5.5-1.1-7.1-3.6
		c-1-1.6-2-3.4-2.4-5.3c-0.9-3.5,0.2-6.6,3.3-8.6c1.9-1.2,3.9-2.1,6-3c2.1-0.9,4.4-1.5,6.5-2.4c2.3-1,4.2-0.5,5.8,1.3
		C114.8,493.3,116.7,496.8,117,501.2z"/>
	<path class="st0" d="M131.8,513c-9.2,4-15.7,10.7-17,17.3c-5-0.5-8.7-4-9.4-8.9c-0.3-2-0.2-4.1-0.1-6.1c0.1-1.7,0.9-3,2.4-3.9
		c3-1.6,5.9-3.3,8.8-5c2.2-1.2,4.5-2.2,7-2.4c1.9-0.2,3.5,0.3,4.8,1.7C130.4,507.8,131.5,510.2,131.8,513z"/>
	<path class="st0" d="M145.6,481.3c-2.9,2.6-5.5,4.9-8.2,7.1c-0.8,0.7-1.8,1.1-2.8,1.4c-4.2,1.3-11.5-0.8-14.2-4.2
		c-0.7-0.9-1.2-2.2-1.5-3.3c-0.4-1.4,0.1-2.3,1.5-3c7.5-3.9,15-7.9,22.4-11.8c0.4-0.2,0.8-0.3,1.5-0.5
		C142.8,472,141.1,476.9,145.6,481.3z"/>
	<path class="st0" d="M268.6,536.8c-1.5,0.2-2.6,0.4-3.6,0.6c-9.9-21.5-19.7-42.9-29.6-64.5c1.3-0.1,2.3-0.2,2.9-0.2
		c1.9,1.6,3.6,2.7,5,4.1c0.7,0.7,1.2,1.7,1.6,2.6c7,16.5,14,32.9,20.9,49.4c0.6,1.5,1.3,2.9,1.9,4.4
		C268,534.2,268.2,535.3,268.6,536.8z"/>
	<path class="st0" d="M185.2,424.8c1.7,2,3.1,3.7,4.6,5.5c-1.6,2.8-3.4,5.3-6.6,6.8c-5.9,2.8-11.5,5.9-17.3,8.9
		c-0.8,0.4-1.6,0.8-2.8,1.4c0.5-1.4,0.8-2.4,1.2-3.3c1.3-3.3,2.6-6.6,4-9.9c0.3-0.8,0.9-1.7,1.6-2
		C174.9,429.6,180,427.2,185.2,424.8z"/>
	<path class="st0" d="M310.6,375.9c2.9,1.3,3.9,3.2,4.2,6c0.3,4,1.2,7.9,1.9,11.8c0.8,3.9,1.8,7.8,2.7,11.9
		c-1.8,1.7-3.7,3.6-5.8,5.6C310.9,399.7,309.5,388.1,310.6,375.9z"/>
	<path class="st0" d="M165.5,455.1c6.4-3.6,12.3-7.1,18.7-10.7c0.3,4,1.7,7,4.7,9.7c-3.7,2.2-7.1,4.2-10.5,6.2
		c-0.4,0.2-1.1,0.2-1.5,0C173.2,458.7,169.6,457,165.5,455.1z"/>
	<path class="st0" d="M430.1,346.3c-0.2-2.7,0.6-4.6,2.6-6.1c2.5-2,4.9-4.3,7.3-6.6c1.9,2.1,3.7,3.9,5.4,5.8
		c-1.8,3.9-3.7,8-5.7,12.2C436.6,349.9,433.4,348.1,430.1,346.3z"/>
	<path class="st0" d="M328,410.6c-1.8-2.8-2.6-6.8-7.4-6c-2.3-8.3-2.9-16.7-3.8-25.3c0.5-0.2,1.1-0.5,1.7-0.8
		c0.1,0.4,0.3,0.6,0.3,0.8c0.5,5,1,9.9,1.6,14.9c0.2,1.3,0.6,2.6,1.1,3.8c0.2,0.5,1,1.1,1.6,1.1c1,0.1,1.3-0.9,1.3-1.7
		c-0.2-3.4-0.3-6.8-0.6-10.1c-0.2-2.6-0.6-5.1-0.9-8c1.3,0.5,2.3,0.9,3.4,1.4c0.1,1.2,0.2,2.4,0.3,3.6c0.2,6.7,0.5,13.4,1.7,20
		c0.4,2,0.2,4.1,0.3,6.1C328.4,410.5,328.2,410.5,328,410.6z"/>
	<path class="st0" d="M321.4,374.4c9.8-1,19-1.9,28.8-2.9c-1,0.7-1.5,1.1-2.1,1.4c-5.6,3-11.5,5.2-17.9,5.8c-2.6,0.3-5-0.2-7-1.8
		C322.5,376.3,322.1,375.5,321.4,374.4z"/>
	<path class="st0" d="M434,325.5c1.2,1.7,2.4,3.3,3.7,5c-0.3,0.4-0.5,0.9-0.8,1.3c-2.5,2.7-5.1,5.4-7.7,8.1
		c-1.5,1.6-3.2,2.8-5.3,3.4c-0.9,0.2-1.8,0.2-2.8,0.4C425.4,337.5,429.7,331.6,434,325.5z"/>
	<path class="st0" d="M421.5,303.4c2.6,4.9,5.3,9.8,8.1,15c-2.2,0.2-4.1,0.5-6,0.7c-1.9,0.2-3-0.8-3.7-2.4c-0.9-1.9-0.9-3.8-0.6-5.7
		c0.4-2.5,1-5,1.5-7.5C421.1,303.4,421.3,303.4,421.5,303.4z"/>
	<path class="st0" d="M322.2,406.1c2.9,2,4.3,4.4,5.5,8.8c-2,0.8-4,1.7-6.5,2.8c-1.4-0.7-3.4-1.8-5.6-2.9
		C316.7,410.8,319.8,408.8,322.2,406.1z"/>
	<path class="st0" d="M385.3,10.2C378,8,370.7,5.9,363.3,3.6C368.1,2.8,380.3,6.3,385.3,10.2z"/>
	<path class="st0" d="M272.6,540.7c-0.6,0.7-0.9,1.4-1.3,1.5c-2.1,0.4-4.3,0.9-6.5,1c-1.8,0.1-2.2-0.8-1.7-2.5
		C266.1,540.7,269,540.7,272.6,540.7z"/>
	<path class="st0" d="M147.3,486.7c0.5-0.4,0.8-0.7,1.5-1.3c3,3.8,5.9,7.4,8.8,11c-0.1,0.1-0.2,0.2-0.4,0.3
		C154,493.5,150.7,490.1,147.3,486.7z"/>
	<path class="st0" d="M324.4,419c2.8-2.2,4.2-1.7,6.4,2.2C328.5,420.9,326.5,420.1,324.4,419z"/>
	<path class="st0" d="M127,333.5c-1.5-1.1-1.3-2.2-1-3.3c0.5-1.8,1-3.5,3.6-4.4C127.8,328.2,126.3,330.3,127,333.5z"/>
	<path class="st0" d="M321,382.7c-0.3-1.7-0.5-3.4-0.8-5.4C321.7,378.5,321.8,379,321,382.7z"/>
	<path class="st0" d="M313.5,374.7c1.6,0,2.7,0,3.9,0C316.3,376.6,316.1,376.6,313.5,374.7z"/>
	<path d="M175.2,143.5c6.4-7.3,14.5-11.5,23.6-13.9c10-2.6,20.1-2.9,30.2-1.3c24,3.7,46.2,12.3,66.5,25.7
		c6.9,4.6,13.8,9.1,20.6,14.1c-0.8-0.3-1.6-0.6-2.4-1c-4.5-2.5-9.1-4.9-13.5-7.5c-12.1-7.2-24.5-13.9-37.8-18.7
		c-11.9-4.3-24-7.9-36.6-9.6c-11.6-1.5-23.1-1.1-34.3,2.9c-5.6,2-10.7,4.7-15.3,8.5C175.9,143.1,175.5,143.3,175.2,143.5z"/>
	<path d="M258.6,237.6c-8.1-0.2-15.1-2.6-19.8-9.6c-1.9-2.8-3.3-5.9-3.6-9.4c0-0.6-0.1-1.2,0-1.9c0.1-0.9,0.1-1.9,1.2-2.2
		c1-0.3,1.7,0.4,2.2,1.1c2,2.8,4.8,4.8,7.5,6.8c4.4,3.2,9.5,4.4,14.9,4.2c5.9-0.2,11.6-1.4,16.7-4.8c1.3-0.9,2.8-1.7,4.3-2.2
		c0.7-0.3,2-0.2,2.4,0.2c0.5,0.4,0.5,1.7,0.3,2.4c-0.8,2.9-2.6,5.2-4.8,7.2C273.9,235,266.6,237.3,258.6,237.6z"/>
	<path d="M162.6,211.7c0.3,0.9,0.7,1.8,0.9,2.7c1.5,4.7,4.7,6.5,9.5,5.3c4.4-1.1,8.1-3.5,11.4-6.6c0.9-0.8,1.8-1.5,2.8-2.4
		c0.9,1.4,0.6,2.4,0.1,3.3c-3.3,7.2-8.5,12.4-16,15.1c-1,0.4-2.1,0.5-3.1,0.6c-3.7,0.3-6.4-1.6-7.2-5.2c-0.8-3.8-0.6-7.6,0.2-11.4
		c0.1-0.6,0.5-1,0.8-1.6C162.1,211.7,162.3,211.7,162.6,211.7z"/>
	<path d="M197.2,235c3.3,0,6.1,1.1,8.4,3.4c4.2,4.1,4.3,10.7,0.1,14.8c-3.5,3.4-7.7,4.3-12.3,2.9c-5.3-1.6-8.3-6.6-7.4-12
		C186.8,238.8,191.5,235,197.2,235z M198.8,253.2c4.4-0.1,7.8-2.9,8.2-6.4c0.5-4-2.1-7.4-6.3-8.2c-4.3-0.8-8.5,1.7-9.6,5.7
		c-0.9,3.6,1.4,7.3,5.5,8.5C197.5,253.1,198.4,253.2,198.8,253.2z"/>
	<path d="M188.2,297.6c0,0.2,0,0.8-0.1,1.3c-0.4,1.7-1.2,3.2-3,3.7c-1.8,0.5-3.3-0.2-4.6-1.4c-2.3-2.1-3-6.1-1.7-8.9
		c1.6-3.5,5.4-3.9,7.7-0.8C187.5,293,188.2,295.2,188.2,297.6z M181.7,294.8c-0.1,0-0.2,0.1-0.3,0.1c0.5,1.4,0.9,2.9,1.6,4.1
		c1,1.6,2.4,1.4,3.3-0.2c1-1.8,0.4-5-1.3-6.3c-1.4-1.2-2.7-0.7-3.2,1C181.7,293.9,181.7,294.4,181.7,294.8z"/>
	<path d="M499,549.7c0.6-0.3,1.2-0.7,1.9-1c0.1,0.2,0.1,0.3,0.2,0.5C500.3,549.3,499.7,549.5,499,549.7
		C499,549.6,499,549.7,499,549.7z"/>
	<path class="st0" d="M198.8,253.2c-0.4-0.1-1.3-0.2-2.1-0.4c-4.1-1.2-6.4-5-5.5-8.5c1-4,5.3-6.5,9.6-5.7c4.2,0.8,6.8,4.2,6.3,8.2
		C206.6,250.4,203.1,253.2,198.8,253.2z"/>
	<path class="st0" d="M181.7,294.8c0-0.4,0-0.9,0.1-1.3c0.5-1.8,1.8-2.2,3.2-1c1.6,1.3,2.3,4.5,1.3,6.3c-0.9,1.6-2.3,1.8-3.3,0.2
		c-0.8-1.2-1.1-2.7-1.6-4.1C181.5,294.9,181.6,294.8,181.7,294.8z"/>
</g>
</svg>
