<?xml version="1.0" encoding="utf-8"?>
<!-- Generator: Adobe Illustrator 26.0.0, SVG Export Plug-In . SVG Version: 6.00 Build 0)  -->
<svg version="1.1" id="Capa_1" xmlns="http://www.w3.org/2000/svg" xmlns:xlink="http://www.w3.org/1999/xlink" x="0px" y="0px"
	 viewBox="0 0 595.3 860.5" style="enable-background:new 0 0 595.3 860.5;" xml:space="preserve">
<style type="text/css">
	.st0{fill:#FFFFFF;}
</style>
<g>
	<path d="M139.1,297.2c-5.2-7.5-5.5-15.7-4.6-24c0.9-7.9,2.9-15.5,5.4-23c1-3.1,1.3-6.5,1.7-9.8c1.3-11.5,2.6-22.9,3.7-34.4
		c1.1-11.3,2.9-22.5,5-33.6c0.2-1.2,0.4-2.4,0.2-3.9c-0.7,0.8-1.5,1.6-2.2,2.5c-1.9,2.2-3.9,4.3-5.7,6.6c-1.5,1.9-2.9,3.8-4.1,5.8
		c-2.2,3.7-2.8,4-7,3c-0.8-0.2-1.6-0.4-2.6-0.7c-0.5-4.3,0.7-8,2.9-11.5c1-1.7,2.3-3.2,3.6-4.7c7.1-8.5,14.2-16.9,21.2-25.4
		c1.1-1.3,2.1-2.9,2.7-4.5c6-15.7,12.9-30.9,22-45c0.6-1,1.1-2,1.7-3c4.9-9.3,11-17.6,18.2-25.2c4.8-5,9.2-10.5,14.2-15.3
		c6.3-6.2,12.8-12.2,19.6-17.9c12.4-10.5,27-17,42.1-22.7c22.4-8.5,45.6-11.6,69.5-9.8c11.8,0.9,23.7,1.3,35.4,2.8
		c19.7,2.5,39.4,5.2,58.5,10.6c25.4,7.3,48.7,18.8,68,37.2c12.6,12,23.7,25.4,32.2,40.7c1.9,3.5,4,6.7,6.4,10
		c11.9,16.5,19.3,35,21.3,55.2c0.7,7,0.9,14.1,2.2,21c0.4,2,0.3,4.2,0.6,6.2c0.2,1.2,0.7,2.4,1.2,3.5c7.1,15.8,14.3,31.6,21.4,47.5
		c1.3,2.9,2.1,5.9,1.3,9.1c-0.4,1.5-0.4,3.3-2.5,3.5c-2.3,0.2-4.7,0.5-6.2-1.9c-0.7-1.1-1-2.5-1.4-3.8c-0.6-1.8-0.9-3.6-1.7-5.3
		c-3-6.2-6-12.3-9.1-18.5c-0.4-0.7-0.8-1.4-1.5-2.7c-0.2,1.3-0.3,1.9-0.3,2.5c-1.3,16.3-2.4,32.6-3.8,48.8c-0.6,6.5-1.8,13-2.6,19.5
		c-0.8,6.3-1,12.6-0.6,19c0.7,11.4-1,22.6-5.7,33.2c-1.9,4.2-4.5,8-8.1,10.9c-0.4,0.3-0.7,0.7-1.2,1.2c1.6,2.7,3.1,5.5,4.7,8.1
		c8.9,14.1,13.8,29.7,17.3,45.9c2,9.3,3.2,18.7,2.4,28.2c-0.3,4-1,8.1-2.1,11.9c-3.2,11.1-11.4,17.4-23.8,19
		c-7.3,0.9-14.4-0.7-20.8-4.2c-4.2-2.3-7.9-5.3-11.9-8c-0.9-0.6-1.7-1.5-2.8-2.4c-9.3,13.3-22.3,22.1-35.8,30.2
		c-13.6,8.2-28.6,12.1-44.3,13.6c-0.1,0.2-0.1,0.4-0.2,0.7c0.9,0.5,1.8,1,2.7,1.5c10.4,6.2,20.9,12.4,31.3,18.7
		c2.3,1.4,4.4,3.1,6.6,4.7c11.7,8.3,18,20,20.9,33.7c3.8,18,0.6,35.1-9,50.6c-8.7,14.1-21.8,21.2-38.3,21.2c-13.1,0-26.2-0.6-39.3-1
		c-3.1-0.1-6.2-0.3-9.3-0.4c-0.5,0-1,0.1-1.9,0.2c1.6,2.6,2.8,5,4.5,7.1c3.6,4.4,3.8,8.8,0.6,13.4c-0.3,0.4-0.5,0.9-0.6,1.4
		c-0.7,3.1-2.3,5.8-4.4,8.2c-1.3,1.5-1.5,2.9-0.6,4.5c1.2,2,2.6,4,3.8,6c1.6,2.6,3.2,5.1,4.5,7.8c0.7,1.4,1.4,2.4,2.6,3.3
		c4.4,3.3,8.8,6.6,13,10.2c7.4,6.5,11.4,14.9,13,24.6c2.2,13.4,0.5,26.3-3.4,39.1c-1.9,6.2-4.1,12.2-6.5,18.2
		c-1.3,3.2-3.3,6.2-5.1,9.6c0.6,0.5,1.3,1.1,2.1,1.8c7.2,5.9,13.3,12.6,17.7,20.8c5.7,10.4,7.7,21.5,5.4,33.2
		c-1.7,8.5-6.6,14.7-14,19c-6.3,3.7-13.2,5.7-20.3,6.7c-8.6,1.2-17.3,2.1-26.1,2.6c-15.2,0.8-28.9-3.8-41.3-12.4
		c-10.5-7.3-19-16.4-26-27.1c-3.3-5-5.1-10.5-4.2-16.6c0.2-1.4,0.5-2.9,1-4.2c2.4-6.3,3.3-12.9,4-19.5c1.5-13.1,3.4-26.2,7.6-38.8
		c0.2-0.5,0.2-1,0.4-1.5c-0.4-0.4-0.8-0.8-1.2-1.1c-8.2-6.7-16.5-13.3-24.7-20c-1.1-0.9-2-1.5-3.6-1c-12.6,3.4-25.2,2.6-37.7-0.1
		c-9.4-2-18.9-4.1-27.9-8.2c-0.6,0.5-1.2,1-1.8,1.6c-16,16.4-33,31.7-50.6,46.3c-3.5,2.9-6.4,6.3-8.3,10.4c-2.1,4.4-3.9,9-6.2,13.3
		c-1.5,2.9-3.4,5.7-5.4,8.3c-2.2,2.7-5.2,4.4-8.4,5.7c-16,6.4-32.6,10.7-49.4,14c-9.6,1.9-19.2,3.6-28.9,4.7
		c-13.2,1.5-26.4,1.1-39.3-2.6c-7.2-2.1-13.7-5.4-19.8-9.7c-8.8-6.3-11.9-15-10.7-25.3c1-8.6,4.1-16.5,8.4-24
		c5.5-9.5,13.8-15.6,23.8-19.8c7.8-3.3,16-5.3,24.3-6.7c10.5-1.7,19.5-6.4,27.4-13.3c1.2-1,2.4-2,3.5-3.1
		c11.4-11.9,24.5-21.9,37.3-32.2c3.7-3,7.4-6,11-9.5c-0.8,0.2-1.6,0.3-2.4,0.5c-26,7-52,14-77.9,21c-5.4,1.5-8.5,0-10.6-5.2
		c-0.8-2.1-1.3-4.4-1.4-6.6c-0.1-4.7,2.4-7.9,7-9c15.9-4,31.8-8.1,47.8-12c16.6-4,33.2-7.9,49.7-11.8c0.8-0.2,1.5-0.4,2.6-0.8
		c-0.9-1.5-1.7-2.7-2.4-3.9c-1.1-2-2.3-4-3.4-6c-3.4-6.1-3.7-12.5-1.4-19c0.7-2,0.3-3.5-0.7-5.2c-7.8-13.2-15.2-26.5-20.6-40.9
		c-3.6-9.7-6.2-19.6-7.2-29.9c-0.9-9.5,0.6-18.4,5.4-26.7c4.4-7.5,10-14.1,16.5-19.8c6.4-5.5,12.9-10.8,19.7-15.7
		c6.6-4.8,14.3-7.6,22-10.1c7.8-2.5,15.7-4.6,23.6-6.9c0.6-0.2,1.1-0.4,2.3-0.8c-1.6-0.8-2.6-1.3-3.7-1.8
		c-12.8-6.1-24.2-14.2-33.7-24.8c-9-10.2-15.4-21.9-19.4-34.9c-0.3-1.1-0.7-2.1-1.1-3.5c-1,0.5-1.8,0.8-2.6,1.2
		c-6.8,3.6-13.8,6.3-21.4,7.4c-9.8,1.4-19.1,0.3-27.2-6c-7.8-6-10.5-13.9-9.1-23.4c1.2-8.9,4.6-17,8.7-24.9
		c6.5-12.4,14.6-23.7,24-34.1c5.1-5.7,11.1-10.4,17.2-14.8C137.2,298.6,138,298,139.1,297.2z"/>
	<path class="st0" d="M387.1,489.2c-7.1-0.4-18.8-1-30.5-1.9c-7.5-0.6-14.9-1.8-22.3-2.6c-1.8-0.2-2.9-0.9-3.8-2.6
		c-0.9-1.6-2.2-3-3.7-4.2c-2.2-1.8-4.5-3.2-6.9-4.8c-11.7-7.8-30.4-11.8-46.3-0.4c-3,2.2-5.7,2.4-9.2,1.5c-21-5.7-41.4-13-61-22.7
		c-16.3-8.1-29.9-19.6-39.6-35.2c-7.3-11.7-11.6-24.4-13.4-37.9c-0.8-5.7-0.3-11.6,0.2-17.4c1.2-14.1,4.8-27.8,7.2-41.8
		c1.6-8.9,2.5-17.9,3.5-26.9c0.5-4.3,0.4-8.7,0.7-13.1c0.1-1.1,0.6-2.4,1.3-3.3c5.2-6.6,11.4-12,19-15.9
		c12.6-6.4,25.8-11.1,39.2-15.3c21.5-6.6,43.4-11.4,65.7-14.3c16.6-2.2,33.3-3.2,50.1-2.6c21.1,0.8,41.7,4.7,61.8,10.9
		c27.9,8.6,53.9,21.2,78.8,36.3c11.3,6.8,22.5,13.9,32.6,22.4c5.1,4.3,9.8,9,13.8,14.4c3.2,4.3,5.7,8.9,7.4,14
		c0.5,1.7,0.6,3.2,0.1,4.9c-2.6,9.5-4.9,19.1-6.1,29c-0.5,4.2-0.8,8.5-0.8,12.7c0.1,18.3-1.6,36.4-7.7,53.8
		c-5.1,14.4-13.3,26.5-25.8,35.5c-9.5,6.9-19.1,13.7-30.1,18.1c-8.6,3.5-17.6,5.5-26.8,6.7C420.4,488.4,406.1,488.7,387.1,489.2z
		 M460.1,295.2c0.1-3.9-0.7-9.9-2.7-15.8c-1.2-3.6-2.9-6.9-5.6-9.6c-4.4-4.7-10.3-5.6-15.8-2.3c-2.1,1.3-4.1,2.9-5.7,4.7
		c-2.2,2.6-4.2,5.5-5.7,8.5c-6.7,13.6-8.6,27.9-5.6,42.7c1,5.2,3,10.2,6.6,14.3c4.8,5.3,11.1,6.2,17.1,2.4c1.3-0.8,2.7-1.8,3.6-2.9
		c2.4-3,4.9-6,6.7-9.3C458,318.3,460,308.1,460.1,295.2z M280.5,274.4c-0.3-3.5-0.6-7-1.1-10.5c-0.6-4.1-1.8-8.1-3.8-11.8
		c-1-1.8-2.2-3.6-3.5-5.1c-4.6-5.1-10.7-5.9-16.6-2.3c-4.6,2.9-7.9,7.1-10.3,11.9c-7.2,14-9.2,28.8-6.1,44.2c1,5.1,3,10,6.5,14
		c4.5,5.1,10.7,6.2,16.6,2.6c1.8-1.1,3.6-2.5,5-4.1c2.2-2.6,4.3-5.4,5.8-8.4C278.2,295.3,280.2,285.1,280.5,274.4z M334.2,383.1
		c-7.6-0.3-18.3-0.6-29-1c-1,0-2.1,0-3.1,0.1c-4.3,0.6-7.2,3.5-7.6,7.8c-0.2,2.5,0,5,0.4,7.4c1.8,10.4,5.1,20.4,9.8,29.8
		c2.3,4.5,5.1,8.8,8,13c1.5,2.2,3.6,4.1,5.7,5.7c6.2,5,13,5.6,20.1,2.1c4.9-2.4,9-5.9,12.7-9.9c7.3-7.8,13.1-16.7,17.9-26.2
		c2-4.1,3.9-8.3,5.4-12.6c1-3.1,1.4-6.5,1.6-9.8c0.2-3.7-1.6-5.3-5.2-5.5c-0.6,0-1.2-0.1-1.9-0.1C358.5,383.7,348,383.4,334.2,383.1
		z M340.9,322.7c-3.5,0-6.8,0.7-9.9,2.5c-9,5.3-10,16.7-2,23.4c7,5.9,18.6,6.1,25.8,0.5c6.7-5.2,7.3-13.8,1.4-19.9
		C352.1,324.7,346.9,322.8,340.9,322.7z"/>
	<path class="st0" d="M562.2,193.5c2.5,5.2,4.8,10.2,7.1,15.2c0.3,0.7,0.4,1.6,0.4,2.4c-0.8,10.2-1.6,20.3-2.6,30.5
		c-0.8,8.2-1.8,16.3-2.9,24.5c-1,7-2.2,14-3.3,20.9c-0.9,5.7-1.3,11.4-1,17.1c0.5,9.3-0.8,18.3-3.8,27c-1.4,4.1-3.3,7.9-6.1,11.1
		c-4.7,5.3-11.1,6.8-18.1,3.8c0.6-3.4,1.2-6.8,1.7-10.3c0-0.1,0-0.3,0.1-0.3c2.1-1,1.9-2.9,1.8-4.6c-0.1-1.8-0.3-3.5-0.7-5.2
		c-1.2-4.9-3.4-9.4-6.1-13.6c-4.3-6.8-9.8-12.6-15.8-18c-11.3-10.1-23.9-18.3-36.7-26.3c-25.1-15.6-51.5-28.4-79.9-36.8
		c-24.4-7.2-49.3-10.7-74.8-9.6c-20.7,0.9-41.2,3.9-61.4,8.7c-23.3,5.5-46.1,12.7-67.9,22.6c-8.1,3.6-15.9,7.7-22.5,13.8
		c-5.1,4.7-9.5,9.9-12.5,16.2c-0.5,1.2-0.9,2.5-1.3,3.7c0.2,0.1,0.4,0.2,0.6,0.3c0.8-1,1.5-2.1,2.3-3.1c0.2,5-0.6,9.8-1.5,14.9
		c-5.8-0.1-10.4-2.1-13.6-7c-1.9-2.9-2.7-6.3-3.2-9.7c-0.8-5.5-0.3-11,0.3-16.5c1.1-9.9,3.4-19.4,7-28.7c0.1-0.4,0.1-0.8-0.1-1.3
		c-0.9,1.3-1.8,2.6-2.7,3.9c-0.1,0-0.3-0.1-0.4-0.1c0.6-4.4,1.1-8.8,1.7-13.1c0.8-6.2,1.3-12.4,2.2-18.6c1.5-10.4,3.1-20.8,4.9-31.1
		c0.8-4.4,1.9-8.7,3.1-13c0.4-1.4,1.2-2.9,2.2-4c3.9-4.8,8-9.5,12.4-14.7c0.4,1.2,0.6,2,0.8,2.8c1.5,5,2.6,10.1,4.7,14.8
		c6.5,15,18.1,24.3,33.5,29.1c8.9,2.8,18.1,3.9,27.4,4c14.2,0.2,28.3-0.7,42.1-4.3c24.3-6.3,44.4-19.4,60.6-38.6
		c4.6-5.4,8.5-11.3,11.8-17.6c6.3-12.5,12.3-25.2,17.4-38.3c1.1-2.9,2.9-3.7,6.5-3.1c2.5,0.5,3.3,1.6,3.5,4.7
		c0.9,15.9,3.1,31.7,7.7,47c9.2,30.7,28.3,53,56.8,67.4c16.8,8.5,34.6,14.1,53.3,16.7c12.4,1.7,24.7,0.6,36.3-4.7
		c12.5-5.7,21.6-14.9,27.2-27.6c0.4-0.9,0.8-1.7,1.2-2.5C561.5,193.9,561.7,193.8,562.2,193.5z"/>
	<path class="st0" d="M330.9,798c3.2-1.7,6.3-3.5,9.5-5.2c4.6-2.4,9.2-5,14.4-5.7c4.5-0.6,9.1-1,13.7-1.1c7.4-0.1,14.8,0.2,22.2,0.1
		c3.5,0,7.1-0.3,10.5-0.9c5.4-0.9,10.3-3.3,14.3-6.9c0.4,0.1,0.7,0,0.8,0.1c9.6,8.4,17.3,18.3,20.9,30.8c2,6.9,2.3,14,0.7,21
		c-1.6,7.3-5.9,12.5-12.5,15.9c-5.2,2.7-10.8,4.3-16.6,5c-8.9,1.1-17.8,2-26.7,2.5c-11.7,0.6-22.6-2.7-32.7-8.6
		c-11.9-7.1-21.5-16.7-29.2-28.2c-3.4-5.1-4.3-10.4-2.3-16.3c2.3-6.9,2.8-14.1,3.3-21.2c0.8-11.3,1.7-22.6,4.4-33.7
		c0.3-1.1,0.5-2.2,0.9-3.8c7.1,5,14.5,8.5,23.2,8.5c-1.4-0.4-2.8-0.7-4.2-1.1c-5.5-1.6-10.6-4-14.7-7.9
		c-8.9-8.3-17.6-16.8-26.3-25.3c-0.2-0.2-0.3-0.5-0.5-0.9c0.4-0.3,0.6-0.6,1-0.7c13.5-6.1,26-14,38.5-21.8
		c7.7-4.8,15.3-9.7,23.1-14.2c6.4-3.7,13.3-6.3,20.7-7.4c5.2-0.8,10.1-0.3,14.3,3.5c4.5,4.1,9.1,7.9,13.5,12
		c8.7,8.1,12,18.4,12.5,30c0.4,9.9-1.3,19.5-4.2,28.9c-1.9,6.3-4.2,12.4-6.4,18.6c-3.6,10-11,15.2-21.3,16.1
		c-8.5,0.7-17,0.8-25.5,1.3c-4,0.3-8.1,0.7-12.1,1.4c-4.8,0.8-9.3,2.4-13.3,5.1c-4.8,3.1-9.5,6.3-14.3,9.5
		C330.6,797.6,330.8,797.8,330.9,798z"/>
	<path class="st0" d="M226.9,708.9c-1.2,0.9-2.3,1.4-3.1,2.2c-16.2,14.9-33,29.3-50.4,42.8c-4.1,3.2-7.4,7.1-9.7,11.6
		c-2.2,4.1-4.2,8.4-6.1,12.6c-2.7,6-6.9,10.1-13.3,12.3c-14.7,5.2-29.8,9.1-45.1,12.1c-9.6,1.8-19.2,3.5-28.9,4.7
		c-12.4,1.5-24.7,1.2-36.8-2.1c-6.4-1.7-12.2-4.6-17.7-8.3c-7.6-5-10.1-12.1-8.9-20.8c1-7.4,3.7-14.3,7.5-20.7
		c4.5-7.7,11.3-12.9,19.3-16.7c7.7-3.6,15.9-5.7,24.1-7.2c12.7-2.3,23.3-8.3,32-17.5c16.3-17.1,34.7-31.7,52.3-47.3
		c1-0.9,2.4-1.6,3.8-2c4.8-1.5,9.6-2.7,14.3-4.2c2-0.7,3.4-0.4,4.9,1.2c12.3,11.8,25.2,23,39.2,32.8c6.5,4.5,13.3,8.5,20,12.7
		C225,707.6,225.6,708,226.9,708.9z M135.4,783.9c-2.1-1.2-4.2-2.4-6.3-3.7c-2.2-1.3-4.5-2.6-6.7-4c-2.1-1.3-4.2-2.6-6.3-4
		c-2.2-1.4-4.3-2.9-6.4-4.4c-2-1.4-4-2.9-6-4.4c-2.1-1.6-4.1-3.2-6.1-4.9c-1.9-1.6-3.8-3.3-5.6-4.9c-1.8-1.7-3.6-3.4-5.4-5.1
		c-0.1,0.2-0.3,0.3-0.4,0.5C99.2,765.4,116.1,776.4,135.4,783.9z"/>
	<path class="st0" d="M266.4,477.5c-0.5,0.7-0.8,1.1-1.1,1.4c-8.9,8.3-12.4,18.7-12,30.6c0.1,2.7-0.6,4.7-2.4,6.6
		c-4.6,5-8.4,10.6-11.3,16.8c-3.4,7.2-3.3,14.5-0.5,21.8c3.2,8.5,10,11.6,19.4,10.1c7-1.1,12.1-5.3,15.7-11.3c1.2-2,2.2-4.2,3.2-6.3
		c1.9-0.4,2.6,1,3.4,2.2c3.5,5,7,10.1,10.5,15.1c4.2,6.1,8.4,12.2,12.7,18.2c1.3,1.8,2.1,3.5,1.8,5.7c-0.2,1.2,0,2.5,0,3.7
		c-2.2,1.1-4.3,2.6-6.6,3.1c-10.7,2.3-21.4,4.3-32.1,6.4c-0.3,0.1-0.6,0.1-0.9,0.1c-0.2-0.1-0.5-0.2-0.6-0.4
		c-2.9-5.1-7.1-8.9-11.9-12.1c-5.2-3.6-10.4-7.3-15.7-11.1c0.4-0.6,0.6-1.1,1-1.6c2.9-3.9,3.2-8.1,0.9-12.3
		c-1.5-2.8-3.5-5.4-5.6-7.8c-7.1-8.4-15.9-14.7-25-20.5c-0.8-0.5-1.6-1-2.3-1.6c-0.1-0.1-0.2-0.4-0.3-0.7c0.7-0.6,1.5-1.3,2.3-1.9
		c3.5-3.1,7.2-6,10.6-9.2c6.2-5.8,11.3-12.4,14.8-20.2c2.6-5.9,5.9-11.4,9-17.1c0.2-0.3,0.3-0.6,0.1-1.2c-0.7,0.9-1.4,1.7-2,2.6
		c-3.6,5.5-7.2,10.9-10.6,16.6c-3.6,6.1-8.5,11.1-14,15.3c-4.8,3.7-9.9,6.9-14.8,10.4c-1.6,1.1-2.9,1.2-4.5,0.1
		c-13-8.4-27.7-11.4-42.6-14.2c-0.4-0.1-0.8,0-1.3,0.3c4,1.1,7.9,2.2,11.9,3.2c11.5,2.9,22.2,7.5,31.9,14.4
		c6.3,4.5,12.6,8.9,18.7,13.5c5.9,4.4,10.8,9.8,15.1,15.7c1.3,1.7,2.4,3.7,3.2,5.6c1,2.5,0,5.1-2.4,6.4c-0.6,0.3-1.4,0.4-2,0.2
		c-10.9-2.9-21.5-1.8-31.6,2.8c-12.6,5.7-22.6,14.4-30,25.9c-4.5,7-7,14.6-6.8,23c0,0.5,0,1-0.1,1.9c-0.8-0.4-1.5-0.6-1.9-1
		c-2.2-2.5-4.7-4.8-6.3-7.7c-4.3-7.2-8.3-14.6-12.2-22.1c-6.2-12.1-11.8-24.6-15.5-37.7c-2.2-7.8-3.7-15.8-4.1-23.9
		c-0.4-7.4,1.5-14.2,5.3-20.5c3.9-6.5,8.7-12.3,14.2-17.3c6.2-5.6,12.6-10.9,19.1-16.1c4.8-3.8,10.5-6.4,16.2-8.6
		c10.3-3.9,20.7-7.6,31-11.4c1.7-0.6,3-0.2,4.5,0.4c13.7,5.3,27.6,9.9,41.9,13.2c3.6,0.8,7.3,1.5,11,2.2
		C265.2,477.2,265.7,477.3,266.4,477.5z"/>
	<path class="st0" d="M460,526.2c-0.6-0.3-1.1-0.9-1.7-1c-8.2-1.3-16.4-2.7-24.7-3.6c-15.3-1.8-30.6-3.3-45.9-4.9
		c-4.4-0.5-8.9-1.1-13.3-1.4c-1.8-0.1-2.6-0.8-3-2.5c-1.1-3.8-2.2-7.6-3.3-11.4c-0.2-0.8-0.5-1.5-1.3-2.2
		c-0.3,5.1-0.5,10.1-0.8,15.4c-1.6,0.2-3,0.2-4.4,0.5c-2.9,0.5-5.7,0.9-8.5,1.6c-1.3,0.3-2.4,0.4-3.6-0.3c-3.7-2-7.3-4-11-5.9
		c-1-0.5-1.6-1.1-1.6-2.4c0.4-7.2-0.7-14.1-4-21.1c3.9,0.7,7.2,1.4,10.5,2c13.5,2.5,27.1,4.1,40.8,4.8c13.2,0.7,26.4,0.5,39.6-0.1
		c2.2-0.1,4,0.4,5.8,1.7c11.3,7.6,22.6,15.2,33.9,22.8c2.1,1.5,4.1,3.2,6.2,4.7c11.3,8.6,16.7,20.5,18.8,34.1
		c2.1,13.8-0.6,27-7,39.3c-6,11.7-15.4,19.2-28.5,21.6c-2.3,0.4-4.7,0.7-7.1,0.7c-16.1,0.5-32.2,0.9-48.3,1.5
		c-2.3,0.1-3.7-0.6-4.8-2.6c-0.9-1.6-2-3.1-3.1-4.8c0.5-0.5,0.9-1,1.4-1.3c10.8-9,15.9-20.5,15.2-34.6c-0.4-6.9-2-13.3-4.9-19.5
		c-7.3-15.7-19.1-26.8-34.6-34c-1.1-0.5-2.2-1.1-4-1.9c1.5-0.3,2.2-0.6,2.9-0.6c4.2-0.1,8.3-0.3,12.5-0.1c14.3,0.7,28.7,1.5,43,2.3
		c8.3,0.5,16.6,0.8,24.9,1.4C450.8,524.9,455.4,525.7,460,526.2c1,0,1.9,0,2.9,0c-0.5-0.2-0.9-0.3-1.4-0.3
		C461,526,460.5,526.1,460,526.2z"/>
	<path class="st0" d="M184.6,673.4c3,0.7,5.5,1.4,8.1,1.8c4.8,0.7,9.3-0.2,13.5-2.5c1.6-0.9,3-1,4.7-0.4c3.8,1.1,7.8,1.2,11.7,0.3
		c5.5-1.2,9.4-4.3,11.4-9.6c0.3-0.7,0.5-1.3,0.9-2.3c4.1,0.5,8-0.5,11.8-1.9c6.2-2.4,9.4-6.8,9.8-13.5c0.1-2.3-0.4-4.9,1.7-6.7
		c0.1-0.1,0.3-0.2,0.7-0.4c0.7,0.8,1.4,1.7,2.2,2.5c3.4,3.7,7.2,5.2,12.3,3.5c11.2-3.7,22.6-7.1,33.9-10.6c1.1-0.4,2.4-0.4,3.6-0.3
		c2.4,0.3,4.5-0.2,6.5-1.5c0.6-0.4,1.3-0.7,1.8-1.2c4.2-4.2,9.5-4,14.7-3.4c1.5,2.1,2.8,4.2,4.4,6.1c3.1,3.5,6.8,6.1,11.3,7.6
		c1.6,0.5,2.6,1.5,3.5,2.8c3.3,4.7,6.6,9.3,9.9,14c1.5,2.2,3.5,3.7,6.1,3.8c4.2,0.2,8.5,0.9,12.7-0.2c2.4-0.6,4.7-1.6,7.1-2.4
		c0.9-0.3,1.7-0.7,2.2-0.9c3.4,4,6.5,7.8,9.7,11.6c-0.3,0.1-0.5,0.3-0.6,0.3c-6.6-3.2-13.5-2.8-20.4-1.2c-6.7,1.6-13.1,4-19.1,7.4
		c-12.4,7.2-24.8,14.4-37.3,21.5c-6.2,3.5-12.6,6.8-19.1,9.9c-12.7,6.1-26.2,7.3-39.9,4.9c-7.6-1.3-15-3.1-22.5-4.9
		c-6.4-1.5-12.3-4.3-18.1-7.5c-13.5-7.4-25.9-16.3-38.1-25.5C185.4,674.3,185.1,674,184.6,673.4z"/>
	<path class="st0" d="M355.1,593.9c-1,1.1-2.1,2.2-3.3,3.5c-0.5-0.6-1-1.1-1.7-1.9c2.8-2.3,5.6-4.4,8.3-6.6c0-0.1-0.1-0.3-0.1-0.4
		c-0.6,0.2-1.2,0.2-1.7,0.5c-6.8,3.3-13.6,6.7-19.5,11.6c-3.8,3.2-8.6,4.1-13.5,3.2c-1.7-0.3-3.5-1-4.8-2.1
		c-4.2-3.8-6.3-8.7-6.2-14.4c0-1.4,0.9-3,1.9-4.1c2-2.4,4.2-4.6,6.6-6.6c8.1-7.2,16.5-14,25.4-20.2c2.1-1.4,4.1-3.1,6.1-4.7
		c-0.1-0.2-0.2-0.4-0.4-0.6c-3.7,1.7-7.4,3.5-11.2,5.2c-1.6,0.7-3.3,1.2-5,1.7c-3.5,1-7,1.9-10.5,3c-3.9,1.1-7.9,1.9-12,0.8
		c-3.6-1-6.4-3-8-6.4c-2.5-5.1-3.2-10.3-1.1-15.7c1.3-3.3,3.5-5.9,6.9-7.3c5.7-2.4,11.2-5,17-6.9c6.3-2,12.9-2,19.5-2
		c0.6,0,1.3,0.1,1.9,0.2c5.6,1.4,11.1,2.9,16.3,5.9c13.5,7.8,23.9,18.2,30.2,32.6c4.1,9.3,5.6,18.9,3.3,28.9
		c-1.3,5.7-4.1,10.7-7.7,15.2c-0.5,0.6-1.5,1-2.2,1.5c-0.7,0.5-1.6,1-2.2,1.7c-3,3.3-6,6.7-8.8,10.1c-5.5,6.6-12.4,11.4-20,15.1
		c-2,1-3.9,1-6,0.3c-8.3-2.8-13.8-9.9-14.3-18.6c-0.2-3.1,0.7-5.7,3.4-7.6c1.9-1.3,3.8-2.6,5.7-3.8
		C351.4,602.1,353.8,598.4,355.1,593.9z"/>
	<path class="st0" d="M259.3,602.9c-5,3.9-6.7,8.8-6.9,14.2c-3.8,1.8-4.4,1.7-7.2-0.8c-2.2-1.9-4.4-3.7-7.1-5.2
		c0.8,2,1.7,3.9,2.4,5.9c0.4,1.2,0.4,2.6,0.5,3.9c0.2,2.8,0.1,5.6,0.7,8.3c1,4.5,3.5,7.9,8.6,9.2c0.2,2.6,0.5,5.3,0.5,8
		c0,3.4-1.6,6-4.6,7.6c-0.4,0.2-0.7,0.4-1.1,0.6c-8.3,4.5-13.1,3.9-20-2.6c-2.2-2.1-4.4-4.3-6.6-6.4c-0.2,0.2-0.4,0.3-0.5,0.5
		c3.3,3.8,6.7,7.7,10.2,11.8c0.1,5-2.1,8.2-7.2,9.9c-4.3,1.4-8.6,1.3-12.9,0c-5.1-1.5-9.4-4.2-13.2-8c-1.3-1.3-2.8-2.4-4.3-3.4
		c4.2,5.3,8.5,10.6,15.3,13.8c-4.4,2.1-8.4,2.2-12.4,1.4c-2.4-0.4-4.9-1.3-7-2.5c-10.7-6.4-18.3-15.3-20.9-27.8
		c-2.5-11.6-1-22.6,5.9-32.5c10-14.3,22.8-24.9,39.6-30.4c4.7-1.5,9.5-2.3,14.4-2.2c1.5,0,3.1,0.5,4.4,1.1c1.9,0.9,3.6,2,5.2,3.4
		c6.3,5.1,12.5,10.3,18.6,15.7C255.8,598.3,257.3,600.6,259.3,602.9z"/>
	<path class="st0" d="M224.3,47.4c0.6-0.4,1.2-0.8,1.7-1.3c12.5-11.1,26.3-20,41.9-26.1c13.1-5.1,26.4-9.4,40.4-11.6
		c12.4-1.9,24.9-2,37.3-1.3c9.4,0.5,18.9,1.2,28.3,2.2c8.2,0.8,16.3,1.9,24.4,3.2c12,2,24,4,35.9,6.4c12.9,2.6,24.9,7.9,36.8,13.4
		c24.9,11.4,44,29.6,60.4,51c0.4,0.5,0.7,1,1,1.6c0,0.1-0.1,0.2-0.2,0.5c-0.6-0.5-1.1-0.8-1.7-1.3c-19.9-17-42.6-28.5-68-34.6
		c-16.2-3.9-32.6-6.8-49.1-8.8c-14.4-1.8-28.9-3.4-43.4-5c-12.7-1.4-25.4-2.9-38.1-4.1c-16.1-1.5-32.1-2.6-48.3-1.4
		c-19.8,1.5-38.6,6.7-56.1,16.4c-0.7,0.4-1.5,0.8-2.2,1.2c-0.2,0.1-0.4,0.1-0.6,0.2C224.7,47.7,224.5,47.6,224.3,47.4z"/>
	<path class="st0" d="M237.2,48c0.8-0.5,1.5-1,2.4-1.4c13-5.5,26.6-8.7,40.7-9.9c13.2-1.1,26.4-0.6,39.6,0.6
		c13.5,1.2,26.9,2.5,40.3,4c18.5,2,37,4,55.4,6.3c18.8,2.4,37.5,5.1,55.7,10.5c24.7,7.4,46.9,19.3,65.3,37.6
		c9.2,9.2,16.8,19.7,21.5,31.9c8.2,21.2,9.3,42.5-1.1,63.5c-3.2,6.5-6.6,12.7-11.9,17.8c-8.3,7.9-18.2,12.2-29.5,13.6
		c-10.2,1.3-20.1-0.1-30-2.4c-14-3.4-27.6-7.9-40.4-14.4c-26.5-13.5-44.5-34.3-53.9-62.6c-4.4-13.3-7.2-26.9-8.9-40.8
		c-0.2-1.8-0.4-3.5-0.6-5.3c-0.4-3.7-2.2-5.8-5.8-6.2c-1.6-0.2-3.3-0.2-5-0.1c-2.4,0.1-3.6,1.8-4.5,3.8c-2,4.3-4,8.7-6.2,12.9
		c-3.7,7.1-7.5,14.2-11.1,21.3c-9,17.4-22.4,30.6-38.6,41.2c-14.6,9.5-30.7,15-48,17.1c-10.8,1.3-21.5,1.9-32.4,1.2
		c-7.3-0.5-14.4-1.7-21.4-4.1c-15.1-5.2-24.9-15.5-30.4-30.5c-5.5-14.9-4.7-29.8-0.2-44.7c3.2-10.6,9.1-19.8,15.8-28.5
		c11-14.4,25.3-24.5,41.7-31.9C236.1,48.1,236.7,48.1,237.2,48c-0.5,0.4-1.1,1-1.8,1.3c-11.6,5.4-21.8,12.8-31.1,21.6
		c-8.1,7.7-15.1,16.3-20.1,26.4c-7.5,15.2-9.8,31.2-6.8,47.9c3.2,17.5,12.9,29.4,29.9,35.1c6.5,2.2,13.3,3.4,20.2,3.8
		c14.2,0.8,28.3-0.2,42.2-3c32-6.4,56.7-23.4,73.9-51.2c10-16.1,16.1-33.7,20-52.1c2.1-9.7,0.2-18.7-5.3-27.1
		c-2.6-3.9-5.8-6.3-10.2-7.6c-6.4-1.9-13-2.9-19.6-3.5c-18.5-1.7-36.9-2.3-55.4-0.2c-11.5,1.3-22.7,3.7-33.5,8.1
		C238.8,47.8,238,47.8,237.2,48z M389.3,87.3c0.3,4.3,0.5,8.5,0.8,12.8c0.9,12.8,2.8,25.4,6.3,37.8c7.7,27.2,23.7,47.8,48.4,61.5
		c13.1,7.3,26.9,13.1,41.4,17c10.4,2.8,21,4.3,31.8,2.8c10.1-1.4,18.9-5.4,26.3-12.5c5.9-5.7,10.1-12.6,13.2-20.2
		c4-9.6,6.3-19.6,5.7-30.1c-0.5-9.5-3.1-18.4-7.1-27c-4.9-10.4-11.4-19.8-18.4-28.9c-5-6.4-10.8-11.9-17.3-16.6
		c-10.3-7.5-21.7-13.1-33.6-17.7c-18.4-7-37.5-11.5-57-14.3c-5.2-0.8-10.5-1.3-15.8-1.4c-6.7,0-12.3,2.9-16.4,8.2
		c-2,2.6-3.7,5.6-5,8.6C390,73.8,388.9,80.4,389.3,87.3z"/>
	<path class="st0" d="M145.6,390.9c-5.9,2.7-12.1,4.7-18.7,5.9c-5.7,1-11.3,1.3-17-0.1c-4.9-1.2-9-3.6-12.5-7.2
		c-4.4-4.4-5.4-9.8-4.2-15.6c0.9-4.9,2.2-9.8,4.1-14.3c9.7-22.1,22.8-42,41.1-58.1c0.6-0.5,1.3-1.1,1.9-1.6c0.2-0.1,0.4-0.2,1-0.4
		c3.9,3.6,8.9,5.4,14.9,5.8c-1,4.8-1.9,9.2-2.9,13.6c-2.5,10.9-5.1,21.8-7.4,32.8c-1.5,7.2-2.5,14.6-2.1,22
		C144,379.4,144.9,384.9,145.6,390.9z"/>
	<path class="st0" d="M530.9,353.3c5.9,1.3,11.3,1.3,16.5-1c0.3,0.4,0.5,0.6,0.7,0.9c7.8,15.3,13.6,31.2,16.8,48.1
		c1.8,9.5,3.5,19.1,3.1,28.8c-0.1,3.7-0.5,7.5-1.3,11.1c-2.2,10.2-8.8,16-20.8,17.4c-4.9,0.5-9.7-0.4-14.4-2.2
		c-6-2.2-11.4-5.4-16.5-9.4c0.4-0.8,0.7-1.5,1-2.1c6.9-12,10.5-25,12.5-38.6c1.6-10.9,1.7-21.8,1.4-32.7c-0.1-5.8,0.3-11.6,0.5-17.4
		C530.5,355.2,530.7,354.4,530.9,353.3z"/>
	<path class="st0" d="M255.6,511.8c0.2-11.4,2.8-20.6,10-27.8c6.7-6.6,14.4-11.9,23.8-13.4c11.2-1.8,21.4,1.2,30.4,8.2
		c2,1.6,2.2,2.4,1.1,4.6c-1,1.9-2,3.9-3.5,5.4c-13.5,13.5-28.4,25-46.5,31.8c-3.3,1.2-6.7,2.3-10.3,2.3c-2.9-0.1-3.8-0.6-4.2-3.5
		C256,516.5,255.8,513.4,255.6,511.8z"/>
	<path class="st0" d="M298.9,597.6c-3.7,10-2.9,20.3,7.7,33.8c-0.7,0.3-1.4,0.5-2,0.7c-11,2.7-22,5.4-32.9,8.3
		c-2.6,0.7-4.5,0.1-6.3-1.6c-0.5-0.4-0.9-0.9-1.3-1.4c-4.3-6.3-7.2-13.1-7.1-20.9c0-1.8,0.6-3.7,1.1-5.4c0.8-2.4,2.5-3.8,5.1-4.4
		c11.1-2.7,22.1-5.7,33.2-8.6C297.1,597.9,297.8,597.8,298.9,597.6z"/>
	<path class="st0" d="M161.5,644.4c1.6,4.1,3,7.6,4.4,11.3c0-0.1,0,0,0,0.1c0,0.1-0.1,0.2-0.2,0.2c-37.5,8.9-75,17.8-112.4,26.8
		c-0.4,0.1-0.8,0-1.3,0c-0.3-0.6-0.7-1.2-1-1.9c-1.6-4-0.9-5.3,3.3-6.4c34.3-9.1,68.6-18.5,102.6-28.7
		C158.4,645.2,160,644.8,161.5,644.4z"/>
	<path class="st0" d="M330.7,492.9c2.1,4.1,2.8,8,3.1,12.1c0.2,2.4,0.2,4.8,0.1,7.2c-0.1,3.2-1.7,5.8-3.6,8.1
		c-0.5,0.6-1.6,1-2.4,1.2c-7.1,1.5-13.6,4.6-20,7.7c-4.5,2.1-7.1,6.1-8.2,10.8c-0.6,2.5-1.9,3.5-4.2,4.2c-9.5,3-20.2,1.1-28.7-9.5
		c13.3-1.8,25.1-6.9,35.6-14.7C312.8,512.3,323.3,504.5,330.7,492.9z"/>
	<path class="st0" d="M388.1,614c0.4,0.7,0.8,1.3,1.2,2c3.3,6.1,6.5,12.3,9.9,18.4c1,1.8,1,3.4,0,4.9c-1,1.5-2,3-3.2,4.2
		c-5.6,5.6-12.1,9.7-19.3,12.9c-1.4,0.6-3,1-4.5,1.2c-2.6,0.3-4.8-0.4-6.5-2.6c-2.8-3.6-5.8-7-8.7-10.6c-0.5-0.6-1-1.3-1.4-1.9
		c12-4.2,20.9-11.7,27.1-22.6c0.5-0.9,1.1-1.8,1.5-2.7C384.9,615.5,386.1,614.4,388.1,614z"/>
	<path class="st0" d="M275.4,546.6c-3.7,6.6-8,12.2-15.8,13.9c-2.3,0.5-4.8,0.5-7.1,0.3c-3.6-0.3-6.5-2.2-8.2-5.5
		c-2.6-5.4-3.9-11-2.3-16.9c2.2-8,6.6-14.9,11.5-22.2c0.7,1.6,1.1,2.5,0.8,3.8c-1.1,5,0.8,8.9,4.3,12.3c0.2,0.2,0.5,0.4,0.7,0.6
		c2.4,2.6,4.6,5.4,7.3,7.6C269.2,542.7,272.2,544.4,275.4,546.6z M254.2,536.3c-0.9,0.4-2.7,0.9-4.3,1.8c-1.5,0.8-2.3,2.3-2.3,4.1
		c-0.1,4.5,4.8,9.6,9.2,9.6c2.4,0,4.3-1.3,6.2-2.6c3.3-2.3,3.7-5.8,0.9-8.8C261.6,537.8,258.6,536.6,254.2,536.3z"/>
	<path class="st0" d="M256.6,523.8c5.2,1.8,10.3,0.7,15.2-0.8c11.6-3.5,21.9-9.4,31.6-16.5c4.3-3.1,8.4-6.5,12.4-10
		c6.9-6,7.7-7.3,10.8-15.5c2,2,2.9,4.4,2.1,7c-0.5,1.8-1.3,3.5-2.4,5c-1.5,2.1-3.2,4.1-5.1,5.9c-7.6,7.1-15.7,13.7-24.4,19.4
		c-8.4,5.6-17.5,10-27.5,12.1c-1.5,0.3-3.1,0.5-4.6,0.5C260.3,531,257.6,528.6,256.6,523.8z"/>
	<path class="st0" d="M308.8,578.6c-8-9.7-16.1-19.7-24.3-29.7c4.9-1,9.4-2,14.2-3c0.7,6.7,2.3,13.2,8.6,17.2c6.2,4,12.9,3,19.6,1.1
		C320.9,568.9,314.9,573.6,308.8,578.6z"/>
	<path class="st0" d="M566.5,180.8c0.5,0.9,0.8,1.5,1.1,2.2c7.1,16.3,14.3,32.6,21.4,48.8c0.7,1.6,1.5,3.2,2.3,4.8
		c0.8,1.7,1.5,3.5,0.9,5.4c-0.2,0.7-1.1,1.5-1.9,1.7c-1,0.3-1.5-0.7-1.5-1.5c-0.4-3.8-2.6-6.8-4.2-10c-6.9-13.2-13.8-26.3-20.8-39.4
		c-0.7-1.3-0.9-2.4-0.3-3.8C564.4,186.3,565.4,183.7,566.5,180.8z"/>
	<path class="st0" d="M132.3,182.6c0.2-2.8,1-5.4,2.8-7.6c3.8-4.6,7.6-9.1,11.3-13.7c7.1-8.9,14.2-17.9,21.3-26.8
		c0.6-0.8,1.3-1.6,2.3-2.8c0.2,1.1,0.3,1.7,0.4,2.3c0,0.9-0.2,1.9,0,2.8c1,3.9-0.9,6.5-3.5,9.2c-9.1,9.4-18,19-26.8,28.7
		c-1.9,2.1-3.4,4.7-5.1,7C134.3,182.4,133.8,183.4,132.3,182.6z"/>
	<path class="st0" d="M161.3,630.9c0,3.7,0,7.1,0,10.8c-2.3,0.5-4.6,1-7.2,1.6c-2.9-5.5-5.8-10.8-6.6-17c-0.3-2.2,0.1-4.5,1.3-7.1
		C152.6,623.9,156.1,628.3,161.3,630.9z"/>
	<path class="st0" d="M332.9,623.3c-4.9-0.4-9.9-0.7-14.8-1.3c-2-0.2-3.5-1.7-4.8-3.6c3-2.8,5.9-5.5,9.1-8.5
		c3.7,4.3,7.4,8.5,11,12.7C333.2,622.8,333,623.1,332.9,623.3z"/>
	<path class="st0" d="M305.6,622c-2.8-5.3-4.8-10.1-4.4-15.8c5.2,5.2,8.2,4,11.4-0.8c1.7,1.1,3.4,2.3,5.3,3.6
		c-0.4,0.4-0.7,0.9-1.1,1.2c-1.7,1.3-3.6,2.5-5.3,3.9C309,615.9,306.8,618.2,305.6,622z"/>
	<path class="st0" d="M245.2,623.2c2.5-1,4.8-1.9,7.1-2.8c1.3,4.3,2.5,8.3,3.8,12.6c-1.8,0.3-3.6,0.6-5.4,0.9
		c-1.4,0.2-2.1-0.6-2.8-1.6C246,629.7,245.4,626.7,245.2,623.2z"/>
	<path class="st0" d="M173.7,112.9c-0.9,4.5-1.8,9.1-2.7,13.6c-0.1,0.6-0.3,1.2-0.7,1.7c-1.7,1.9-3.4,3.8-5.4,5.6
		C167.1,126.5,170.1,119.6,173.7,112.9z"/>
	<path class="st0" d="M308.4,599c0.7,1.2,1.3,2.3,2,3.3c0.7,1.2,0.5,2.3-0.4,3.1c-0.6,0.6-1.9,1.2-2.4,0.9c-0.9-0.5-1.7-1.5-2-2.5
		C305.1,601.6,305.9,600.3,308.4,599z"/>
	<path class="st0" d="M311.2,620.7c2,3.1,4.2,5.6,8.2,5.8c-3,2.6-4.1,2.8-6,1.5C311.2,626.5,310.2,623.7,311.2,620.7z"/>
	<path class="st0" d="M334.2,608.3c-0.7,2.7-1.3,5.1-2.1,8.1c-1.5-2.1-2.8-4-4.3-6.2C330.1,609.5,332.1,608.9,334.2,608.3z"/>
	<path class="st0" d="M340.5,520.2c-2.6,0-4.6,0-7,0c1-1.9,2-3.7,3.1-5.9C338,516.4,339.1,518.1,340.5,520.2z"/>
	<path class="st0" d="M341.8,602.4c2-1.8,4.1-3.6,6.3-5.6c0.7,0.8,1.2,1.4,2.1,2.5c-2.9,1.4-5.4,2.6-7.9,3.9
		C342.2,602.9,342,602.7,341.8,602.4z"/>
	<path class="st0" d="M346.7,520c-4.6,0.8-5.5,0.9-6.6-4.6C342.4,517,344.5,518.4,346.7,520z"/>
	<path class="st0" d="M169.9,662.1c-1.1-0.9-2.2-1.8-3.4-2.7C168.3,658.2,168.5,658.3,169.9,662.1z"/>
	<path class="st0" d="M303.6,596.4c0.6-0.3,1.1-0.6,1.7-0.9c0.1,0.2,0.2,0.4,0.3,0.6c-0.6,0.3-1.2,0.6-1.7,0.9
		C303.8,596.7,303.7,596.5,303.6,596.4z"/>
	<path d="M460,526.2c0.5-0.1,1-0.2,1.5-0.3c0.5,0,0.9,0.1,1.4,0.3C462,526.2,461,526.2,460,526.2C460.1,526.2,460,526.2,460,526.2z"
		/>
	<path class="st0" d="M313.5,383.8c14.4,0.9,28.8,1.8,43.2,2.7c4.3,0.3,8.5,0.5,12.8,0.8c3.1,0.2,3.5,0.6,3.2,3.6
		c-0.3,2.6-0.8,5.2-1.8,7.5c-6,14.7-14.1,28-25.4,39.3c-2.6,2.6-5.7,4.8-9,6.7c-5.4,3.1-10.9,2.7-15.7-1.2c-2.6-2-5.1-4.4-7.1-7
		c-9.3-12.6-15-26.7-17.6-42.1c-0.1-0.4-0.1-0.8-0.2-1.2c-0.4-5.7,2.8-9.2,8.4-9.2c3,0,6,0.3,9,0.4
		C313.5,383.9,313.5,383.8,313.5,383.8z"/>
	<path class="st0" d="M343.5,327.5c4.2,0.1,7.6,1,10.6,3.4c5.7,4.7,5.2,12.3-1.2,16.1c-6.4,3.7-16.1,1.8-20.5-4.1
		c-2.9-3.9-2.4-8.5,1.3-11.7C336.1,329,340.1,327.5,343.5,327.5z"/>
	<path class="st0" d="M303.8,40.5c11.8,0.6,23.5,0.7,35.2,2.6c3.8,0.6,7.5,1.6,11.2,2.6c2.6,0.7,4.4,2.5,5.9,4.7
		c6.1,8.9,7.4,18.5,4.7,28.9c-4.4,17.3-10.5,34-20.2,49.1c-17.7,27.4-42.7,43.7-74.8,49.1c-11,1.9-22.1,2.7-33.2,2.4
		c-8.9-0.2-17.6-1.4-26-4.6c-13.7-5.3-21.7-15.3-24.5-29.5c-4.4-21.8,0.6-41.6,13.8-59.2c12.6-16.7,28.6-29.2,48.2-36.9
		c9.6-3.8,19.6-6.2,29.9-7.2C283.9,41.6,293.9,41.2,303.8,40.5z"/>
	<path class="st0" d="M391,90c-0.7-7.2,0.2-14.1,2.7-20.9c0.8-2.2,1.9-4.4,3.1-6.4c4.5-7.2,11.1-10.9,19.6-10.4
		c5.5,0.4,11,1.1,16.4,2c18.1,3,35.8,7.5,52.8,14.4c13.2,5.3,25.7,11.9,36.6,21.1c4.6,3.8,8.6,8.1,12.3,12.8
		c6.8,8.9,13,18.1,17.7,28.2c4.7,10.3,7.5,21,6.6,32.3c-1.2,14-5.9,26.8-15,37.6c-8.2,9.7-19.1,14.1-31.6,14.7
		c-9,0.5-17.8-0.9-26.5-3.2c-14.1-3.9-27.6-9.2-40.4-16.2c-24.5-13.4-40.1-33.8-47.6-60.6c-3.1-11-5-22.3-5.8-33.7
		C391.5,97.9,391.2,93.9,391,90z"/>
	<path class="st0" d="M255.5,549.4c-2.5,0.2-2.7-1.7-3.3-3c-0.7-1.5-1.6-3.1-0.3-4.6c0.5-0.6,1.5-0.9,2.2-0.9
		c2.6-0.1,4.9,0.9,6.7,2.8c0.4,0.4,0.6,1.6,0.4,1.9C259.6,547.4,257.9,549.3,255.5,549.4z"/>
</g>
</svg>
