<?xml version="1.0" encoding="utf-8"?>
<!-- Generator: Adobe Illustrator 26.0.0, SVG Export Plug-In . SVG Version: 6.00 Build 0)  -->
<svg version="1.1" id="Capa_1" xmlns="http://www.w3.org/2000/svg" xmlns:xlink="http://www.w3.org/1999/xlink" x="0px" y="0px"
	 viewBox="0 0 595.3 499.3" style="enable-background:new 0 0 595.3 499.3;" xml:space="preserve">
<style type="text/css">
	.st0{fill:#FFFFFF;}
</style>
<g>
	<path d="M336.3,179.6c-7-1-20.6,2.2-24.3-4.8c-5-12-5.3-25.7-4.1-38.6c1.7-26.2,18.9-22.1,39-20.1c-12.5-8.4-23.4-10-15.3-27.6
		c3.8-10.9,10-20.9,18.8-28.6c5-4.8,10.8-1.7,16.2,0.8c-4.1-9.6-7.8-15.4,1.9-23.1c10.4-8.5,46.8-35.3,55.2-15.4
		c0.7-6.7,0.1-14.8,7.5-17.7C446.8-2,464-0.5,480,3.1c13.4,3.1,8.1,20.2,8.1,30.4c4.4-5.2,7.3-15,15.5-13.5
		c14.5,1.9,26.5,9.9,37,19.7c4.9,4,5.8,9,2.9,14.7c8.3-5.4,19.8-11,26.9-0.9c7.5,10,14.5,20.3,19.7,31.7
		c8.3,21.1,8.1,22.8-11.4,33.9c5,0.3,11.5,0.8,13,6.6c4.5,14.6,5.1,30.4,0.2,45c-3.9,10.4-19.1,5.2-28.2,6.2
		c21.2,10.3,22.8,13.2,12.9,35.4c-10.3,16.3-15.2,32.2-36,17.2c4.1,7.7,13.7,18.4,5.6,26.6c-11.1,9.6-24.1,17.1-37.6,22.8
		c-15.3,6.7-19.6-14.7-25.4-24.4c-1.1,14.2,6.5,28.9-12.9,31.7c-0.8,2.4-1.7,62.2-1,66.9c11.7-8.1,62-17.4,65.5,1.8
		c1.8,6.8,3.1,20.4-7.8,18.2c-19.2-4-38.1-11.2-57.9-11.2c-0.2,42.3,0.9,84.6-0.7,126.9c-0.2,4.2-0.1,4.4-4.3,5.2
		c-18.8,4.3-13.4-10.2-14.8-22.7c-0.5-53.7-0.2-107.5-0.5-161.2c-20.1,4.2-41.1-0.4-61.3,4.1c-7.6,1.5-6.2-12.5-5.6-17.2
		c10.6-23.7,51.9-5.7,67,5.5c0-5.4,0-10.5,0-15.7c-26.6-2.6-21.9-8.9-22.1-31.8c-5,7-7.6,21.7-18.8,18.4
		c-13.4-3.7-26.3-10.3-34.4-21.9c-3.6-5,0.6-10.3,2.4-15.3c-14.4,8.8-19.1,12.3-30.3-3.1c-9.1-11.7-16.9-24.6-19.6-39.4
		c-1.6-6.7,6.1-10.3,10.5-13.7C336.4,179.9,336.4,179.8,336.3,179.6z"/>
	<path d="M167.6,171.5c7.6-6.9,16.5-8.9,26.4-6.9c11.8-21.2,52.1-45.3,67-15.4c10.8,23.8,15.3,59.5-2.1,81.1
		c43.4,37.6,60.7,136.5,42.6,190.4c11.9,9.5,12.5,26.9,7.8,40.3c-5.6,16.5-27.2,17.3-37.9,5.9c-29.3,17-60.3,20.8-93.1,12.7
		c-8.4,35.4-52.3,18.3-48.8-13.9c-18.2-4.2-35.8-10.5-53.5-17c-2.1,12.4-10.4,23.6-24.3,21.5c-18.9-1.2-27.2-20.7-24.5-37.9
		c-68.7-39.1,8.5-86.2,53.2-96.4c24.1-6.3,49.4-7,73.8-2c-0.1-25.7,1.3-51,6.4-75.9c-34.1,0.6-69.8-51.7-75-82.3
		C83.2,132.5,149.6,152.9,167.6,171.5z"/>
	<path class="st0" d="M27.3,430.9c-60-38.4,7.8-76.9,47.7-89.1c25.7-8.1,52.9-10.7,79.5-6.4c0.4,10.1,1,20.2,3.2,30.1
		c-3.5-35.9-0.6-72.8,8.2-107.8c0.4-1.3,1.1-2.3,2.4-3.1c9.4-5.9,13.9-17,17.1-27.2c11-15,40-15.6,55.2-6.4
		c9.9,5.9,36.4,25.9,33.1,38.1c-16-21.9-24.6-12.2-20.9,10.8c-9-16.5-28.6-36-38.2-8.2c-16.1-10.1-19.4,2.1-0.8,2.7
		c-0.3,2.7-0.5,5.4-0.8,8.2c-4-0.8-8-2.9-12-0.4c1.3,2.7,2.2,3,11.9,3.3c1.4,25.6,13.3,49.8,29.3,69.4c5.7,7.1,16.5,11,24.5,5.4
		c8.1-8.1,3.4-21.4,3.5-31.6c9.5,29.2,27.3,49.1,28.9,3.4c19.2,93.2-11.6,174.9-120.7,156.4c8.9-39.6-45.5-61-48.8-14.2
		c-17.4-7.1-35.1-13-53.5-17.1C83,412.5,34.9,390.3,27.3,430.9z M232.5,363.5c5.7,22.6,6.2,50.7,21.1,69.3
		c20.8,15.6,43.7-50.6,46.8-65.5C277.5,368.8,255.2,364.8,232.5,363.5z"/>
	<path class="st0" d="M185.2,212.9c-6.5,45.5-32.8,53.7-63.5,19.3c-14.6-18.4-33.6-40.3-31.3-65.2c8.1-23.6,49.7-9.5,65.8-1.7
		C170.7,173.5,184.6,196.2,185.2,212.9z"/>
	<path class="st0" d="M257.8,281.8c1-1.5,0.3-2.3-0.1-3.1c-3.1-7.8-5.3-16.2-3.8-24.6c9.5-27.4,45.1,55.2,42.7,65.1
		c1,9.1,0.8,18.9-4.2,26.9c-9.9,8.2-21.1-30.6-24.3-37.4c-0.2,0-0.3,0-0.5,0.1c-0.9,12.3,9.5,44-12.2,41
		c-19.3-8.5-29.2-36-36.2-54.7c-4.5-13-7.8-49.9,14.5-44.4C245.7,257.4,251.1,270.5,257.8,281.8z M259.9,286
		c-23.4-26.8,5.2,52.2,5.8,15.2c14.8,24.2,8.9-8.3,3.7-16.7C264.5,276.1,258.1,272.5,259.9,286z"/>
	<path class="st0" d="M257.9,229.5c-12-10.4-26.4-18.3-42.8-17c10.3-17.1-0.6-42.2-19.5-47.9c12.9-17,49.9-40.1,62.3-11.6
		C267.4,176,272.8,207.8,257.9,229.5z"/>
	<path class="st0" d="M130.5,466.5c-1-37.1,42.7-34.2,45.4-0.9c1,13.6-3.8,32.5-20.9,30.8C138.8,496.5,130.8,481.4,130.5,466.5z"/>
	<path class="st0" d="M73.2,441.1c-1.3,47.8-57.5,27.2-43.4-15.8c4.3-14.1,16-16.1,25.7-12.7C68,416.7,72.7,429,73.2,441.1z"/>
	<path class="st0" d="M186.9,222.8c4-19.2-7-35.9-18.4-50.2c11.6-7.3,27.9-6.4,37.9,3.1c7.8,9.5,14.2,24.2,7,35.8
		c-0.6,0.9-1.3,1.4-2.4,1.6C202.1,214.1,194.2,217.7,186.9,222.8z"/>
	<path class="st0" d="M272.5,465.9c14.2-11.6,22.4-26.8,28.5-43.7c10.2,9.4,9.4,25.5,5.3,37.7C301.5,474.1,282.5,474.9,272.5,465.9z
		"/>
	<path class="st0" d="M283.6,270c2.5,6.5,4.9,12.6,7.3,18.8c-0.2,0.1-0.3,0.1-0.5,0.2c-2.9-5.8-5.8-11.6-8.8-17.6
		C282.2,271,282.7,270.6,283.6,270z"/>
	<path class="st0" d="M275.6,261.9c0.6-1.1,1.2-2.1,1.9-3.3c1.6,2.9,3,5.6,4.5,8.4c-0.6,0.7-1.1,1.3-1.8,2.1
		C278.6,266.5,277.1,264.3,275.6,261.9z"/>
	<path class="st0" d="M270.7,372.5c-0.3,3.3-0.6,6.6-0.9,10.1c-9.5-1.5-18.6-3.3-28-4.9c-0.9-2.9-1.8-5.9-2.8-9
		C249.7,370,260,371.2,270.7,372.5z"/>
	<path class="st0" d="M278,372.3c6.1-0.3,12.1-0.7,18.4-1c-0.9,3.9-2.2,7.5-3.3,11.4c-5.3-0.3-10.6-0.6-16.1-0.9
		C277.4,378.4,277.7,375.5,278,372.3z"/>
	<path class="st0" d="M458.6,78.2c29.5-1,54.8,21.3,65,47.8c16.9,41.2-16,88.1-58.7,93.2C362.8,229.1,358.5,80.4,458.6,78.2z
		 M438.4,115.9c9,0,23.2-12.1,6-15.1c-7.7-1.9-16-0.9-20.8,6.1C418.1,113.1,433,115.8,438.4,115.9z M480,118.1
		c-5.6,0.1-10.3,3-13.5,7.4c-3.4,6.6,15.2,10.5,19.8,7.7C503.4,127,492.5,118.6,480,118.1z M470,184.6c5.6,0.5,11.3-1.4,15.3-5.2
		c5.1-8.5-12.7-11.8-18.4-10.1C452.8,174.1,455.4,185.1,470,184.6z M419.9,163.2c-5.4,0-9.5,2.2-11.8,7.3c-3.5,7.4,12.6,9.7,17.4,8
		c3.2-1,6.3-2.4,9.2-4c2.6-1.5,3.2-5.4,1.3-7.5C432.1,162.2,425.4,163.5,419.9,163.2z M469.4,107.1c10.1-0.9,15.4-8.4,3-12.2
		c-4.6-2.8-18.5-0.1-14.8,6.9C460.1,106,465.3,105.9,469.4,107.1z M412.7,132.2c-8.8,0.1-16.5,8.2-3.9,12c5.7,2,10.7,0.7,14.8-3.8
		C428,135.7,415.7,132.4,412.7,132.2z M497.7,164.9c9.6,0.2,16.6-10.3,3-11.1C486.7,150.9,479.9,164.4,497.7,164.9z M459.3,152
		c0.3-4.7-6.5-5.1-9.7-6.9c-4-1.5-11,1.7-10.6,6.3c4.1,5.5,9,8.8,15.8,5.9C457.8,156.5,459.4,155.4,459.3,152z M439.5,184.6
		c-3.5-0.1-12.2,6.4-6.6,9.5c5.8,3.1,12.2,2.9,17.4-1.2C456.3,186.2,444.5,184.8,439.5,184.6z"/>
	<path class="st0" d="M503.1,94.2c13.2-17.4,31.6-30.7,50.5-41.4c5.6-2.6,10.4-1.6,14.1,3.4c7.1,9.8,14,19.8,19,30.9
		c2.1,7,9.5,17.5,0.9,22.6c-18.2,11.4-39.2,20.2-60.7,21.8C522.5,116.9,514.3,104.7,503.1,94.2z"/>
	<path class="st0" d="M387.2,127.7c-3.8,13.8-4.8,27.2-1.5,41.2c-16.2,3.4-32.6,4-48.1,9.5c-17.3-2.9-23.9,4-26-17.6
		c-1.2-15.5-4.9-46.6,19-43C349.4,119.4,370.1,118.5,387.2,127.7z"/>
	<path class="st0" d="M442.5,77.4c-15,3-28,9.4-38.7,20.3C388,91.5,379.3,74.6,370.5,61c-2.1-5.2-8.1-12.1-3.1-17.3
		c10.5-10.8,24-18.1,37.8-23.6c4.5-1.1,11-4,14,1.1C429.4,38.7,441,56.8,442.5,77.4z"/>
	<path class="st0" d="M473.9,78c-10.1-2.2-20-2.2-29.9-0.9c-1.5-12.9-5.3-25-11-36.7c-2.1-6.3-7.8-11.9-7.8-18.6
		c1.1-5.5,0.8-12.8,7.4-14.8c14.9-5.5,31-4,46.3-1.1c10.3,1.8,7.3,14.6,8.2,22.3C485.7,45.4,478.2,61.4,473.9,78z"/>
	<path class="st0" d="M473.2,220.1c15-3.9,27.7-11.7,38.2-23.3c7.8,9.9,48.6,51,29.8,60c-8.3,5.1-35.8,27.3-43.9,18.3
		C485.2,259.1,478.8,239.2,473.2,220.1z"/>
	<path class="st0" d="M385.9,170c3.8,13.9,11.6,25,22.6,34.4c-10.5,14.3-26.2,24.1-41.1,33.4c-5.4,3.5-10.5,4.3-14.7-1.4
		c-10.3-12.1-19.4-25.7-23.3-41.4C326.6,177.3,373.3,172.9,385.9,170z"/>
	<path class="st0" d="M450.1,287c6.5,0.6,12.7,0.6,19.1-0.7c-1.9,61.2-2.4,122.4-3.6,183.6c-0.1,6.3-0.6,12.6-0.9,18.9
		c-0.7,3.9-7.1,4-10.3,3.7c-5.8-0.2-2.8-12.8-3.6-17C450.6,412.7,453,349.8,450.1,287z"/>
	<path class="st0" d="M435.1,219.1c12.3,3.7,24.5,3.9,37,1.3c2.7,11.3,7.5,21.9,9.8,33.1c-0.2,7.2-0.7,14.3-1,21.4
		c-0.8,10.2-20,9.2-27.6,9.1c-6.8-2-19.8,0.3-23.1-7C427.4,257.9,429.8,237.7,435.1,219.1z"/>
	<path class="st0" d="M527.3,167.6c3.1-11.7,3-23.2,0-34.7c15.9-1.5,31.1-5.3,45.7-11.7c5.3-1.7,15.3-0.6,16.5,6
		c2.1,8.9,7.1,47-6.7,46.8C563.9,175.8,545.2,173.9,527.3,167.6z"/>
	<path class="st0" d="M402.9,98.8c-7.5,8-12,17.5-15.3,27.6c-11.9-6.7-25.5-7.3-38.4-10.4c-5.3-5.5-19.9-9.5-17.5-18.6
		c3.8-13.2,10.3-25.6,20.2-35.4c4.3-5,10.7-1.6,15.6,0.6c5.9,6.1,10.1,13.9,15.6,20.3C388.4,89.8,394.9,95.4,402.9,98.8z"/>
	<path class="st0" d="M512.1,196c6.9-8.1,11.7-17.1,14.8-27.2c10.4,3.1,20.4,6.4,31.2,7.4c6.3,1.5,11.4,6.5,17.1,9.4
		c9.5,6.3,1.1,19.5-2.5,27.3c-5.7,6.9-9.4,21.6-20.2,20.6C533.7,228.4,525.6,208.6,512.1,196z"/>
	<path class="st0" d="M502.1,93.3c-8.1-6.9-16.7-12.4-27-15.1c5.1-11.6,14.5-56.5,29.3-54.4c14.5,2.9,27.3,11.5,37.6,22
		c6.1,11.3-18.4,22.5-24.9,30.3C511.2,81.1,507.3,87.6,502.1,93.3z"/>
	<path class="st0" d="M409.3,205.1c7.4,6,15.5,10.6,24.6,13.7c-4.5,17-4.7,34.6-16.8,48.5c-4.7,11.3-32.2-7.5-37.8-13.1
		c-2.1-2.4-5.4-4.9-4.8-8.4c1.1-4.6,2.4-10.1,6.2-13.2C391.2,224.5,401.9,216.2,409.3,205.1z"/>
	<path class="st0" d="M469.1,360.7c-0.9-5.3-1-5.2,3.5-7.5c11-7.3,57.8-15.9,60.3,2.7c0.3,5.4,2.7,16.9-6.4,14.6
		C507.5,366.5,488.6,361.8,469.1,360.7z"/>
	<path class="st0" d="M448.4,308.8c-12.9-0.2-25.7-0.5-38.6,0.4c-4.7-1-25.5,5.8-25.4,1.8c-5.6-28.3,31-23.3,47.4-15.8
		C437.1,298.7,451.1,300.3,448.4,308.8z"/>
	<path class="st0" d="M423.5,109.7c5-9.3,15.9-9.4,24.8-6.1C458.3,108.8,435.6,120.3,423.5,109.7z"/>
	<path class="st0" d="M467.3,127.1c5.7-12.2,31.6-6.3,24.8,1.1C485.4,134.5,473.2,133.9,467.3,127.1z"/>
	<path class="st0" d="M458.5,178.6c4.7-10,16.5-9.9,24.6-4.5C491.5,181.2,463.4,187.5,458.5,178.6z"/>
	<path class="st0" d="M420,165c5.5-0.9,21.9,0.9,12.9,8.8c-6.9,4.4-15.6,5-22.7,0.6c-1.5-0.8-1.5-1.6-0.8-3.2
		C411.5,166.6,415.1,164.6,420,165z"/>
	<path class="st0" d="M469.7,105c-3.3-0.7-14.6-2.1-10.1-7.2C467.6,90.8,490.4,102.2,469.7,105z"/>
	<path class="st0" d="M423,138.3c-3.9,7.2-16.7,7.1-19.6-0.4C409.6,132.5,417.6,132.8,423,138.3z"/>
	<path class="st0" d="M495.8,155.3c3.6-0.6,15.2,0.2,9.3,5.7c-3,2.7-18.8,3.4-16-2.8C490.5,155.4,493.2,155.4,495.8,155.3z"/>
	<path class="st0" d="M447.7,146.2c9.1,1.9,16.3,8.4,2.5,10.6c-3-0.8-6.2-1.2-8.1-4C437.1,150.2,444.9,146,447.7,146.2z"/>
	<path class="st0" d="M432.7,191.8c2.3-7.4,10.9-5.9,16.5-3.8c4,3.1-3.1,5.2-5.4,6.3C440.4,195.6,435.4,194.4,432.7,191.8z"/>
</g>
</svg>
