<?xml version="1.0" encoding="utf-8"?>
<!-- Generator: Adobe Illustrator 26.0.0, SVG Export Plug-In . SVG Version: 6.00 Build 0)  -->
<svg version="1.1" id="Capa_1" xmlns="http://www.w3.org/2000/svg" xmlns:xlink="http://www.w3.org/1999/xlink" x="0px" y="0px"
	 viewBox="0 0 595.3 880.7" style="enable-background:new 0 0 595.3 880.7;" xml:space="preserve">
<style type="text/css">
	.st0{fill:#FFFFFF;}
</style>
<g>
	<path d="M590.6,768.8c-23-76.3-63.9-145.7-102.9-214.6c-5.7-10.2-13.6-18.3-23.4-24.8c35.4-12,67.3-39.4,77.7-76.1
		c1.6-6.2,6-25.3-4.9-23.8c1.8-11.3,4.4-35.9-12.4-35.9c-4.1-10.1-13.1-15.7-22.4-7.7c-14.7,14.9-10.7,43.6-17.4,63.3
		c-7,30.8-25.9,61.8-59.3,67.4c-5.2,1-9.3-3.8-14.1-5c-29.1-9-14.6,8.4-56.5-11.8c-1.5-0.7-2.6-1.7-3.3-3.2c-1.9-3.9-4.6-7-8-9.7
		c-6.8-5.5-13.2-11.9-19.5-17.9c-1.4,0.2-2.6,0.4-4.1,0.7c-1.1-2.3-2.2-4.5-3.4-7c3.9-1.5,4.3-4.7,4.3-8c0.1-4.3,0.2-8.7,0-13
		c-0.2-3.6-0.8-7.2-1.1-10.9c-0.1-3.9-4-3.6-6.8-4.6c1.1-7.3,3.4-20,9-24.7c23.2-12.5,43.8-33.6,45.6-61.1
		c0.9-11.5-1.5-22.4-7.4-32.5c-2.5-4.9-1.9-10.7-2.5-16c-0.9-27.3-5.7-59.2,7-84.3c51.9-61.3,18.4-150.7-26.6-206
		c-4.6-4.7-9.1,0.9-11.7,4.9c-16.2,23.6-26.9,49.7-32.7,77.7c-38.7-23.5-84.8-35-129.9-36c-41.8,1-79.5,35.7-102.1,68.5
		c-8.7-9-17.4-17.7-27.4-25.3C30.2,88.5,4.5,68.6,4.9,80c10.4,39.2,20.3,78.6,29.7,118.2c6.1,24.8,16.8,50.4,38.6,65.2
		c1.6,1.1,1.7,2.6,2.1,4.1c1.7,5.8,3.1,11.7,5.2,17.3c2,5.4,4.6,10.6,6.9,16c7.7,16,4.9,33.4,4.2,50.4
		c-0.7,35.1,30.2,57.6,58.5,71.8c-1.7,7.8-4,15.3-5.2,23.1c-0.7,4.3-2.6,9.5,3.3,12.5c-11.4,24.3-20.3,49.4-28.5,74.9
		c-9,0-12.1,8.8-12.6,16.3c-1.2,8.9,2,17.3,3,25.9C99.8,638.8,84.7,701.3,63,761.5c-47.6-22.6-72.1,29.8-59.8,69.8
		c2.9,9.7,11.6,15.3,21.5,14c1.4-0.2,3,0.1,4.2,0.7c16.2,7.1,34.5,6.3,51.8,5.4c14-1.4,61.5-4.7,64.4-20.8
		c14.7-56.4,28.4-113.2,35.5-171.2c7.6-0.6,7.6-0.6,11.1-6.1c16.8,10,34.4,18.7,53.8,22.7c2,0.4,2.5,1.6,2.8,3.3
		c7.1,36.3,14.1,73,18.9,109.7c-3.6,2.2-7,3.8-9.9,6.1c-11.8,10.3-11.6,28-11.7,42.4c0,22.5,8.9,43.8,35.3,38.1
		c4.3-1.9,6,4.8,17.8,5.1c9,0.6,17.7-0.5,26-4.3c1.7-0.8,3-0.8,4.7,0.3c16.7,9.6,37.5-0.5,49.9-13c11.3-11.6,3.1-39.5,1.5-54.4
		c14.3-2.1,41.7,3.1,48-13.7c8.1-35.2,5.1-72,4-107.9c-0.7-12.8-1.6-25.7-2.6-38.5c-0.2-2.8-0.1-5.2,2.5-6.8
		c2.6-2.6,4.4-5.3,8.5-5.7c23.1,35.8,45.8,72.6,59.9,113c-10.7,1.9-17.4,8-20.1,18.5c-4.2,13.9-9.3,50,9.6,54.4
		c8.4,3.1,14.8-2.6,20.7,2c8.7,4.5,20.2,2,28.9-0.5c16.2,11.1,36.8,0.9,49.2-11.3C600.2,801.1,593.5,782.6,590.6,768.8z
		 M357.3,687.5c-0.6,6.3-1.4,12.6-2.2,18.9c-0.3,0-0.7-0.1-1-0.1c-3.3-11.2-6.5-22.4-9.9-34.1c4.7-1.4,9.2-2.7,14.2-4.2
		C358.6,674.8,357.9,681.1,357.3,687.5z"/>
	<path class="st0" d="M315.3,216.6c5.9,12.3,13.9,23.3,16.7,36.6c-3.1,1.2-4.8-1.2-7.4-1.4c3.6,11.2,5.8,22.3,4.8,34.4
		c32.4,13,43,54.5,23.4,82.7c-13.2,21.5-37.6,31.1-57.7,44.8c-16.6,11-33.4,21.7-51.2,30.6c-16.2,8.1-35.2,5.9-52.7,4.9
		c-5.4-0.5-9.8-2.6-13.3-6.8c-2.2-2.6-4.6-5.1-6.7-7.7c-15.7-17.5-40.8-22.1-56.3-40.3c-32.1-32.1-9.9-62.9-25.9-99.1
		c-8-18.4-13.9-38.7-8.4-58.6c0.8-3.3,1.9-6.6,2.8-9.8c0.4-1.6,1.4-2.4,3-2.9c17.9-6.2,35.9-12.5,53.8-18.9
		c12-3.6,27.4,16,30.5,26.2c1.8,4.8-2.2,3.1-5.5,2.6c4.6,7,8.4,13.6,12.6,20.7c0.8,1.4,1.8,3,0.7,5.1c-1.8-0.6-3.6-1.2-6.1-2
		c4.9,8.4,11.1,15.6,11,25.5c-2.9,0.8-4.3-1.4-6.8-2.4c0.5,4.9,5.5,30.7-0.2,31.8c-2.7,1.5-6.2,2.2-8,4.9c0.9-0.2,1.9-0.5,3.6-0.9
		c-4.4,4.5-8.8,8-13.5,12.1c-4,2.9-8.2,5.8-11.4,9.6c-13.6,19.7,20.4,40.2,37.5,40.9c22.1,1.8,49.7-37.4,32.6-55.6
		c0.8-3.5,1.7-7.4,2.8-11.8c3.4,0.6,6.6,1.1,9.8,1.6c0.1-0.1,0.1-0.3,0.2-0.4c-2-1.3-4.3-2.2-6.6-2.7c-12.7-3.1-16.3-25.3-16.6-36.5
		c-2.5,1.3-3.2,4.5-6.3,5.1c-1.8-9,1.3-16.4,2.6-25.6c-2.2,2.2-3.9,3.8-5.6,5.6c-5.2-4.9,2.1-26.4,3.7-33.1c-1.7,0-2.5,1.3-3.5,2
		c-6.5,4.2-5.1-8.9-4.3-12.1c1.3-5.8,6.4-24.3,13-24.9c18.6-1.8,37.4-1.1,55.8-4.5c6.9-1.4,13.4-3.6,19.3-7.4
		c1.9-1.2,3.3-1.2,5.3-0.3c13.2,6.6,24,17.1,32.8,28.8C324.2,214.6,327.3,220.4,315.3,216.6z M134.5,251.7
		c-31.3,2.4-39.2,40.8-25,64.2c4,7.3,4.8,7.9,13.2,7.9c14,0.1,27.7-3.4,39.7-10.5c1.5-0.8,2.4-2.1,2.7-3.7
		c6.4-23.2-7.2-55.6-32.9-59.5C133.3,250.8,133.9,251.3,134.5,251.7z M289.9,338.8c-9.8,19.9-21.1,52.6-44.4,58.6
		c-21,6.2-42.4,10.5-64.3,12.1c-17.3,1.7-32-10.8-38.8-26c-2.3-5.5-9.7-3.1-9.8,2.7c7.5-5.6,6.8-3.8,10.5,3.3
		c5.4,9.8,12.9,17.3,23.4,21.5c4.5,2,7.3,6.4,10.8,9.8c7,7.5,6.9,7,15.7,6.3c14.9-1.1,29.6-3.2,44.3-6.1c23.2-3.9,40.6-49,49.2-68.7
		c1.6-3.8,3.2-7.5,4.8-11.3c1.1-2.7,1.6-2.9,4.4-2.3c4.4,1.1,4.5,5.3,5.3,9.2c4.6-10.3-6.6-14.9-14-9.8
		C288.1,338.4,288.9,338.6,289.9,338.8z M294.5,291.6c19-31.3-0.9-70.5-39.3-65.9c-38.8,7-41.5,50.2-18,74.8
		C256.1,295.8,275.3,292.6,294.5,291.6z M275.7,203.2c-2.7-7.9-22.4-9.3-29.7-9.6c-1.9,0-3.8,0.4-5.7,0.9c-3.8,0.9-4.2,6.1-0.7,7.8
		c2.1,1.5,4.5,1.2,6.9,1.2C256.4,203.4,265.9,203.8,275.7,203.2z M92.5,238.8c8.1-3.1,15.4-6.1,24.2-5.8c1.5,0,3.2-0.6,4.4-1.4
		C131.9,220.6,99.2,216.6,92.5,238.8z M193.3,380.6c0.3,5.7,5.9,19.1,8.9,21.6C200,394.7,197.5,387.6,193.3,380.6z M253.1,335.6
		c-1.2-1.2-4.1-1.4-4.1,1C249.7,339.1,253,338.6,253.1,335.6z M241,342.6c-3.5,2-1.4,5.6,0.9,3.8C243,345.3,242.8,344.3,241,342.6z
		 M238.8,332.7c-0.8-0.9-1.3-1.7-2-2c-0.8-0.4-1.8,1.1-1.6,2.4c0.1,0.7,1,1.3,1.5,1.9C237.3,334.3,237.9,333.6,238.8,332.7z
		 M143.4,367.5c-0.7-0.6-1.1-1-1.6-1.4c-0.9,0.9-1.7,1.8-0.2,2.5C142.1,368.5,142.6,368,143.4,367.5z M135.1,358.4
		c-0.5,0.8-0.9,1.1-1,1.5c0,0.8-0.1,2.4,1.1,1.9C135.9,360.5,136.5,359.9,135.1,358.4z M138.7,352.2c-1.4-0.1-1.7,0.8-1.5,1.9
		C138.5,355.7,139.8,353.4,138.7,352.2z"/>
	<path class="st0" d="M244.5,663.5c0.6,2.7,1.2,5.1,1.8,8c-1.3-0.1-2.3,0.1-3.2-0.2c-6.4-1.6-13-2.8-18.1-7.3
		c-38.4-26.1-56-73.6-49.3-118.8c0.6-5.3,1.5-10.6,2.3-15.9c0.2-1.2,0.7-1.9,2-2.4c23.4-7.5,41.1-28.5,44.6-52.8
		c0.7-3.5-1.4-4.5-3.5-6.8c26.8-0.4,52.2-1.3,78.8-2.8c1,2.5,1.8,5.5,2.9,8.1c4.7,8.2,6.2,17.5,8.9,26.4c1.3,4.1,2.9,7.7,6.2,10.6
		c8.6,6.9,16,15.4,25.1,21.5c8.4,4.3,11.7-6.6,12.9-13c21.3,9.1,43.7,16.4,67,17.4c2.8,0.1,4.3,1.3,5.5,3.7
		c14.1,31.2,12.7,71.8-7.5,100.1c-2.5,3.1-5.6,5.1-9.3,6.6c-22.1,9-45,17.2-68.3,21.8c-6.5-20.6-12.1-41.6-18.1-62.5
		c-0.5-1.6-0.3-3,0.3-4.6c32.2-76-54.9-88.4-91.1-33.4c-16.7,23.3-23.8,55.5-10.3,81.9C228.2,656.9,234.9,663.9,244.5,663.5z
		 M428.6,583.2c-0.1,0-0.3,0-0.4-0.1c0.6-6.9-2.8-13.9-12.3-13.5c-9.6,0.7-19.4-0.6-29,0.5c-4.1,0.9-6.6,3.4-7.3,7.6
		c-2.1,13.6-3.8,27.3-5.9,40.9c-1,6.5-0.8,7.2,4.7,11c2.9,2.2,6.2,3.4,9.9,2.7c8.7-1.3,17.4-2.2,26-3.7c4.1-0.7,6.9-2.8,7.8-7.1
		C425,608.9,426.7,596,428.6,583.2z"/>
	<path class="st0" d="M278.6,790.1c-2.1-0.4-4.1-0.8-6.4-1.2c-2.2-13.5-4.4-27.1-6.7-40.6c0.2-0.1,0.4-0.2,0.5-0.3
		c1.4,1.6,2.8,3.2,4.8,5.5c0.1-7.7-0.6-14.1,1.8-21.2c3.6-9.8,9-6,14.4,0.1c3.5-38.5,14.4-32.1,29.7-3.2c2-4.1,3.8-14.3,10-10.5
		c9.3,5.8,13.9,15.9,19,25.2c2.1-3.7,4.7-9,9.1-4.9c3,2.5,5.5,5.4,6.5,9.3c1.8,7.2,3.9,14.3,5.5,21.5c5.5,27.2,14.7,54.4,12.7,82.4
		c-2.7,14.1-25.6,24.2-38.9,23.3c-20.5-0.7-16.4-29.8-17.1-44.5c1.2-14.1,0.4-36.9,19.1-38.3c1.5-0.2,2.9-0.3,4.4-0.9
		c-17.3-6.1-26.9,10.9-27.6,25.5c-1.7,18.7-2.8,38.3,5.1,55.9c-9.8,3.8-20.2,4.8-30.5,2.5c-17-3.7-13.5-30.5-13.8-43.9
		c1.9-22.9,0.5-38.4,28.6-40.8c-13.5-4.6-28,4.6-30.5,18.5c-4.2,20.7-5.5,42.7,2.1,62.8c-34.1,8.2-32.6-38.1-28.1-60
		c1.9-13,13.2-21.6,26-21.1C278.5,790.7,278.5,790.4,278.6,790.1z"/>
	<path class="st0" d="M292.3,137.2c-71.4,2.1-144.8,8.7-209.9,40.2c-10.3-12.7-27.3-29.7-22.3-47.4c14.4-32,48.8-59.2,80.7-72.5
		c17.1-5.9,35.8-4.4,53.4-2.1c33.1,4.9,66.6,13.3,95.7,30.3c2.4,1.3,3.1,3,2.8,5.8C290.8,106.7,290.5,121.8,292.3,137.2z
		 M120.7,94.6c1.5,23.5,19,45.2,41.3,52.7c1.9,0.6,3.3,0.6,5.1-0.6c21.1-13,25.8-41.2,18.6-63.5c-7.2,0.8-10.2-3.3-11.2-9.8
		c-15.8-2.8-32.5,1.2-46.3,9.2c-1.2,0.7-1.6,1.6-1.6,3C127.1,91,126,92.5,120.7,94.6z"/>
	<path class="st0" d="M60.4,777.3c-4.8-10.9-19.7-11.2-28.7-5.6c-20.4,11.9-22.1,52.3-8.5,69.9C-1,841.9,3.7,800.3,9.3,785.1
		c9-26.6,33.5-30.1,57.1-20.6c9-24.7,16.1-50,23.2-76.1c6.7,9.7,4.8,23.5,4,34.7c4.3-2.8,7.4-6.3,12-8.5c10.2-4.8,12.6,11,13.8,17.9
		c1.4,0.2,1.8-1.2,2.7-1.8c2.3-1.6,4.4-3.6,6.9-4.8c10.7-5,12.6,13.9,14.6,20.8c3-3.2,6.7-7,10.4-2.9c3.8,4,6.3,8.4,4.7,14.4
		c-5.8,22.1-11.5,44.3-17.2,66.4c-1.4,5-1.8,9-7.3,11c-6.8,2.9-14,4.8-21.2,6.3c-25.3,4.6-52,8.1-77.2,1.4c-7-1.5-11.7-7.4-13.6-14
		c-5.5-20.5-4-54.5,22.3-58.2c5.9-0.9,11.7,1.6,15.2,6.4C60,777.6,60.2,777.5,60.4,777.3z"/>
	<path class="st0" d="M345.7,737.7c-5.7-9.1-19.8-34.8-29.6-15.8c-13.6-24.7-27.7-27.7-31.2,4c-13.6-8.7-16.9,9.3-17,19.3
		c-2.4-0.7-3.4-1.9-3.8-4.1c-6.9-37.2-13.5-74.7-26.2-110.5c-1.5-4.4-1.4-8.3-0.4-12.6c6.7-28.5,29.2-63.2,62.3-59.5
		c4.1,1,11.4,3.2,12.3,7.7c13.3,57.7,31.4,114.1,46.3,171.4C351.4,733.9,351.4,733.9,345.7,737.7z"/>
	<path class="st0" d="M432.3,523.8c19.7,0.6,39.2,9.9,49.3,27.2c13.4,21.8,25.7,44.2,37.9,66.7c11.8,22.2,23,44.8,33.9,67.4
		c1.2,2.1,1.2,3.9,0.2,6.3c-2.3,6.4-0.4,12.9,0.1,19.7c-13-2.8-16.1,9.8-18.1,20c-10.5-8.2-20.2-10.7-27.4,2.9
		c-3-2.3-6.4-4.2-9.8-5.8c-1.4-0.6-2.2-1.3-2.8-2.6c-14.4-31.5-33.1-60.5-51.5-89.7c1.9,0.2,3.3,0.3,4.7,0.5c-1.4-2.3-2-2.5-8.8-2.8
		C459.1,599.6,457.1,553.7,432.3,523.8z"/>
	<path class="st0" d="M355.4,301.2c-6.5-7.6-14.8-12.2-24.3-15.5c0.6-9.9-0.2-19.5-2.3-28.8c0.5-0.2,0.6-0.4,0.8-0.4
		c3.9,0.2,5.5-1.2,4.5-5c-2.7-10.9-8.5-20.4-13.4-30.4c8.8-1.9,5.3-7,2.1-12.6c-9.3-14-22.4-23.8-36.8-32.3
		c4.9-4.2,8.8-9.4,11.7-16.1c1.5,3.6,2.7,6.3,3.9,9.1c0.2-0.1,0.3-0.1,0.5-0.2c-16.2-56.3-2.2-118.6,30.8-166.2
		c2.1-2.4,4.6,1,5.8,2.7C355,30.6,370,56.8,378.6,85.7c13.6,42,10.9,91.6-19,126c-1.2,1.4-1.9,2.7-2,4.7
		c-8.3,27.3-4.5,56.4-1.6,84.4C355.8,300.9,355.6,301.1,355.4,301.2z M332.6,13.1c-27.9,58.7-24.5,135.6,17.2,187.4
		c33.8-24.5,33.3-76.2,15.2-109.9c2,1,3.9,1.8,5.9,2.7c-1.7-27.5-18.3-52.5-36.9-72C330.7,18.4,332,16.9,332.6,13.1z"/>
	<path class="st0" d="M160.7,747.9c-7.2-9.3-8.3-9.8-15.5-6.9c-3.9-14.3-8.1-25.1-23.8-13.7c-4.5-15.3-9.5-21.5-24.3-10.7
		c-0.6-10.6,1.7-22.9-6.8-31.2c8.8-34.2,16.4-68.7,21.8-104.4c14.8,32,34,59.4,64.8,77.1C176.6,671.9,164.5,737.5,160.7,747.9z"/>
	<path class="st0" d="M558.8,750.2c-4.2-3.5-11.1-3.4-16-0.3c-18.6,12.8-10.3,52.7-4.3,71c-7.1,3.2-15.2,3.2-22.7,1.4
		c-13.9-4.1-11.7-22.1-12.1-33.6c1.4-24.8,2.8-37.2,30.8-39.2c-6.6-2.2-13.7-1.2-19.9,1.8c-1.6,0.8-2.8,0.5-4.5,0.2
		c-3.9-0.9-5.8-3.2-6.9-6.9c-1.3-4.4-3.3-8.6-5.1-13.1c3.8,0.3,6.1,2.2,10.6,8.8c5.8-18.7,17.3-15.9,28.5-3.1
		c1.9-10.9,4-31.1,19.7-20.9c-0.6-8.2-2.9-16-1.3-24c0.2-0.1,0.5-0.1,0.7-0.2c9.8,21.4,44.1,96.2,31,115.5
		c-7.3,10-35.4,25-44.4,11.8c-6.5-14.5-7-31-6.6-46.6C537,759.4,543.8,747.5,558.8,750.2z"/>
	<path class="st0" d="M289.1,150.8c-10.8,28.1-55.6,19.7-79.9,24.2c-43.8,3.1-84.8,19.6-125.3,35.5c37.4-10.3,73.3-27.2,112.3-31.2
		c13.6-1.6,27.2-2.8,40.8-4.2c19.5-1.7,46.1-2,53.4-24.5c1.5-0.1,3-0.3,4.4-0.4c2,3.8,1.5,7.1-0.2,10.6c-9.9,20.7-34.4,24-54.9,24.6
		c-32.6,0.5-65.1,4.5-96.2,14.4c-20.3,6-39.8,14.3-59.7,21.5c-16.6,4.2-10.7-23.2-2.2-28.3C147.4,165,218.2,154.8,289.1,150.8z"/>
	<path class="st0" d="M527.1,414.2c0.1-1.4,0.3-2.9,0.5-4.7c1.9,1.3,2.4,3,2.5,4.8c1.9,11.8-6,21.6-8.4,32.5
		c1.8-1.7,3.6-3.3,5.7-5.2c3.3,6.8-1.8,16.9-4.2,23.4c-11.5,26.8-33,50-61,59.5c-3.2,1.1-6.2,1.1-9.5-0.1c-7.3-2.7-15-3.6-22.8-3.9
		c-2.5-0.1-2.5-0.1-4.4-1.9c54.5-7.7,65.2-68.2,70.7-113.6c1.2-10.1,11.5-28,22.9-16.2c6.1,7,6.9,16.4,7.6,25.3
		C526.8,414.1,527,414.1,527.1,414.2z"/>
	<path class="st0" d="M426.9,647.3c1.8,20,2.7,39.5,3,59.5c-0.1,0.6-0.5,1.4-1,1.6c-5.4,2.5-7.2,7.6-9.6,12.7
		c-11.3-9.2-15.4,4.2-18.9,13c-9-10.7-17.3-8.2-26,1.3c-3.4-5.7-7-11-13.4-13.4c-3.1-1.3-3.9-2.7-3.5-5.9c2.3-15.2,3.4-30.5,4-45.9
		c0.2-3.1,0.2-3.1,2.9-4.1c8.9-3.2,17.8-6.3,26.7-9.5C405.1,656.8,415.1,655.8,426.9,647.3z"/>
	<path class="st0" d="M195.1,651.9c-36.7-21-60.5-59.2-74.2-98.4c-1.1-2.9-1.1-5.6-0.1-8.6c8.7-28.9,18.2-57.6,30.2-85.2
		c0.8,0.2,1.6,0.4,2.4,0.5c-0.5,1.4-1.6,0.4-1.9,3c-3.5,18.8-2.6,41.6,13.3,54.7c1.6,1.3,1.8,2.5,1.4,4.4
		c-10.5,44.7-2.3,94.5,29.6,128.8C195.5,651.4,195.3,651.7,195.1,651.9z"/>
	<path class="st0" d="M420.5,726.5c1.8-6.1,3.5-11.9,9.2-15.6c1.5,26.6,0.7,53.7-3.8,80.1c-1.5,16.3-31.4,13-43.4,13.9
		c-2.7,0.1-2.8-0.1-3.3-2.4c-5.8-26.2-12.9-51.9-19.5-77.9c7.9,3.2,11.2,9.3,13.7,16.7c10.6-13.4,18-17.5,27.7-0.4
		c2-6.2,3.6-11.3,6.7-16.8C411.3,717,416.7,722.2,420.5,726.5z"/>
	<path class="st0" d="M79.8,178.8c-5.6,3.8-10.3,10.2-2.1,14.2c-6.9,9.5-13,28.1,2.5,32.3c-0.9,3.2-1.7,5.1-3.1,8.5
		c-27-46.3-23.3-105.7-61.7-146.6c-0.2,0.2-0.4,0.3-0.6,0.5c2.9,4.8,6.1,9.5,9.2,14.2c1.3,2,1.8,4,1.8,6.4
		c0.2,25.2,5.5,50.1,12.6,74.2c1.4-3.8,2.5-6.9,3.8-10.3c2.7,20.5,9.3,41.3,21.8,58.4c11.9,15.6,11.7,8,9.8,28.9
		c-20.6-16.5-29.8-42.1-36-66.9C27.9,154.7,19,116.5,7.5,79c20.2,7.5,37.8,26.1,51.6,42.2C47.1,143.4,66.3,162.6,79.8,178.8z"/>
	<path class="st0" d="M323.1,598.3c-2.4-9.6-4.8-19.1-7.3-28.9c0.9,0,1.4,0,2.3,0c-6.6-13-22.6-16.9-35.7-12.6
		c-31.4,10.5-50.7,46.1-48.1,78.2c0.3-0.5,0.7-0.9,1.3-1.8c3,9.3,5.7,18.4,8,27.8c-8.9,1.2-14.7-8.2-17.8-15.2
		c-12.8-31.4,0.9-68.4,25-90.6c40.5-37,97.3-14.9,73.1,43.2C323.7,598.3,323.4,598.3,323.1,598.3z"/>
	<path class="st0" d="M200.7,192.6c-5.1,6.3-18.7,38.1-4.3,39.3c-0.9,6.4-9.1,30.6,2.1,30c-0.8,5.3-1.7,10.8-1.2,16.1
		c0.5,5.2,3,4,7.2,3c0.9,10,4.9,18.8,11,27.5c-12.2-2.1-23.4-1.4-34.5,2.4c-0.2-8.2-0.4-16.1-0.5-24.2c4-0.5,6.4-1.4,5.4-6
		c-1.3-6.1-4-12.1-7.1-17.4c2.8-2.1,3.4-4.6,2-7.7c-3.1-6.1-6.3-11.8-10-17.7c3.8-2.5,3.1-5.9,1.5-9.1C167,217,158.4,209,147,203.1
		c17.9-5.2,35.3-9.4,53.3-11.3C200.5,192.1,200.6,192.3,200.7,192.6z"/>
	<path class="st0" d="M217,462.1c0.3-1.7,0.5-2.9,0.8-4.4c-0.5-0.6-1.1-1.3-2.1-2.4c21.3,0,39.4-11.2,56.5-22.8
		c1.6-1.1,3.3-1.9,5.3-1.9c12.3-0.1,24.6-0.5,36.9-0.6c5.2-1.4,3.4,24.8,2.8,28.8c-28,3.7-56.3,3.3-84.4,4.1
		C227.4,462.8,222.6,462.9,217,462.1z"/>
	<path class="st0" d="M292.7,139.3c0.6,3.1,1.2,5.8,1.8,8.9c-72,3.5-144.5,11.4-211.3,40.3c-2.3,1.2-8.5,0.9-5.5-2.8
		C133.4,150,227.3,142,292.7,139.3z"/>
	<path class="st0" d="M118.7,536.3c-0.8,4.2-2.9,7.8-1.8,12c9.7,40.7,32.8,80.3,69.7,101.7c1.3,0.7,2.8,1.2,2.4,3.2
		c-0.4,1.9-1.7,3.4-3.8,3.3c-2.4-0.2-5-0.7-7.2-1.6c-31.7-17.3-70.8-71.9-67.1-109.1C111.9,541.6,113,536,118.7,536.3z"/>
	<path class="st0" d="M509.4,754c-9.5,11.2-9.4,26.6-10,40.7c-0.6,8.8,1.8,17,4.8,25.1c-5.8,1.3-11.3,0.6-16.5-2.2
		c-6.9-4.8-6.3-17.6-6.4-25.2C481.5,775.6,486.4,747.3,509.4,754z"/>
	<path class="st0" d="M390.2,511.6c31.1-3.6,54.3,27.6,57,56c4.8,32.9-4.1,78.7-42.3,86.1c-2.1,0.1-3.9,1.2-6,0
		c5.7-3,11.8-5.4,17.6-8.3c13.6-9.1,19-26.5,22.3-41.7c5.9-30.5,1.2-70.5-29-86.6c-6.4-2.3-13.3-2.8-19.8-4.9
		C390.2,512.1,390.2,511.9,390.2,511.6z"/>
	<path class="st0" d="M75,240.8c-18.2-20.5-26.6-47.7-31.6-74.2c-1.7,2.4-3,4.2-4.6,6.6c-4.5-21.2-9-41.7-10.9-62.7
		c0.2-0.1,0.5-0.2,0.7-0.2c21.8,38.8,21.9,86.5,46.5,123.9C76.7,236.7,76.7,237.3,75,240.8z"/>
	<path class="st0" d="M459.9,527.2c32-10.2,56.3-35.9,67.7-67.1c1.6-4.7,2.6-9.6,3.4-14.6c0.6-3.7-0.3-5-3.1-7
		c2.3-8.4,10.4-27-0.2-32.2c-0.5-3-1-5.8-1.4-8.7c1.7-1.1,3-0.4,4.2,0.7c8.2,9.7,5.9,25,3.7,36.7c4.3-4.9,7.4-5.2,7.5,2.1
		c-2.6,40.7-37.3,72.7-72.8,88.4C465.7,526.5,463.5,528.4,459.9,527.2z"/>
	<path class="st0" d="M354.5,502.9c11.4,4.7,22.9,7.9,34.7,11.2c5.6,1.5,11.3,2.3,17,3.5c8,2.6,13.1,8.7,18.4,15.6
		c-22.8-0.5-45.1-7.6-65.9-16.7c-2-0.9-3-1.9-3.1-4.2C355.6,509.3,355,506.4,354.5,502.9z"/>
	<path class="st0" d="M154.2,464.8c5.2-1.7,8.6-4.1,11.4-8.7c0.9-1.3,1.7-2.2,3.4-2.4c3.7-0.4,7.4-1,11.2-1.5c0.8-0.1,1.6-0.2,2.4,0
		c8.3,2.8,17,2.3,25.5,3.3c-0.3,12.9,7.9,8.8,6.7,14.8c-1.4,7.4-4.1,14.2-7.9,20.6c-7.4,13.3-19.5,22.8-34.1,27.1
		c-1.6,0.6-2.8,0.3-4.1-0.7C152.2,505.7,151.1,483,154.2,464.8z M159.4,466.3c-6,16.1,1.8,41,13.3,48.2c22.2-5.2,36.8-31.4,37-45.5
		c-5-1.4-6.5-5.1-5.5-9.8c-8-4.2-28.6-6.3-35.8-0.8C166.7,462.6,163.7,465.2,159.4,466.3z"/>
	<path class="st0" d="M216.8,662.9c-4.1-2.2-8.7-3.4-12.2-6.9c-35.7-33.6-46.8-86.8-33.9-133.2c2,1.3,4.2,2,3.5,4.8
		c-10.6,49.2,1.5,103.2,43.1,134.5C217.1,662.3,217,662.6,216.8,662.9z"/>
	<path class="st0" d="M153.2,424.5c11.3,4.6,16.7,16,24.6,24.7c-4.7,0.8-9,1.6-13.1,2.3c-1.5,2.2-1.7,6.4-5,5.8
		c-2.8-0.7-5.6-1.2-8.3-2c-2.9-0.9-3.1-1.2-3-4.1C148.9,442.1,150.5,433.1,153.2,424.5z"/>
	<path class="st0" d="M165.8,325.5c2.9-3,6.2-5.5,9.3-8.3c10.1-8.2,30.8-7.8,43.1-5.3c-1.1,3.6-2.1,7-3.3,10.8
		C198.1,317.6,182,321.1,165.8,325.5z"/>
	<path class="st0" d="M155.7,343c-0.7-0.4-1.9-0.6-2.1-1.2c-0.3-0.9-0.4-2.5,0.2-3.1c4.7-5.4,13.9-6.7,20.4-9.4
		c9.2-2.5,20.7-6.3,30-3.1c9.4,6.5-18.8,7.8-22,9.4C173.2,337.7,164.6,340.5,155.7,343z"/>
	<path class="st0" d="M174.4,521c24.8-8.4,37.7-26.8,43.7-51.1c3.4,1.2,4,2,3.4,5.4c-2.5,14.1-9.1,25.8-19.5,35.5
		c-5.8,5.4-12.4,9.6-19.8,12.4C178.2,524.7,177.5,524.5,174.4,521z"/>
	<path class="st0" d="M280.9,427.5c4-3.9,25.9-17.6,32.6-20.5c-1.3,6.4-2.7,12.8-4.1,19.5C300.3,426.9,290.9,427.2,280.9,427.5z"/>
	<path class="st0" d="M329.3,478.6c-4.4,1.7-8.4,3.3-12.7,5c2.1,8.4,4.2,16.8,6.3,25.3c-2.7-1.1-6-4.3-6.7-6.6
		c-2.5-8.4-4.9-16.8-7.5-25.4c3.7-1.8,7.8-2.4,11.7-3.7C324.5,471.7,326.1,476.2,329.3,478.6z"/>
	<path class="st0" d="M319.3,484.7c3.5-1.3,7-2.7,10.5-3.9c3-0.5,4.3,2.5,6.7,4.4c-3.9,1.8-7.4,3.5-11.2,5.3
		c2.2,9,4.3,17.7,6.5,26.5c-0.2,0.1-0.4,0.3-0.6,0.4c-2.1-1.7-4.6-3-5.4-5.8C323.6,502.6,320.4,493.7,319.3,484.7z"/>
	<path class="st0" d="M333.7,497.5c2,8.8,3.9,17.5,6,26.8c-2.5-1.3-4.6-2.4-5.2-4.7c-2.3-9.1-4.4-18.3-6.7-27.7
		c3.1-2,6.4-3.4,9.8-4.7c2.3-0.2,5,3.5,7.5,5.1C341.1,494.1,337.7,495.7,333.7,497.5z"/>
	<path class="st0" d="M340.9,502.4c1.2,0.2,2.3,0.5,3.6,0.8c0.7-0.8,1.4-1.6,2.4-2.6c1.5,3.3,1.2,6.7,4,9.5c0.5,0.6,0.8,2,0.4,2.4
		c-1.8,2.3-1.7,5.1-2.1,8.1c-2.3-1.2-3.7-4.1-7.1-2.9c0.6-5.3,1.7-10.3-1.9-14.7C340.5,502.8,340.7,502.6,340.9,502.4z"/>
	<path class="st0" d="M306.5,473.8c-1.2-3.3-2.2-6.2-3.4-9.6c3.3-0.4,6.1-0.7,9-1c1.3,2.6,2.6,5,4.1,7.9
		C313,471.9,310.1,472.8,306.5,473.8z"/>
	<path class="st0" d="M337.5,499.6c2.6,7.3,5.5,8.6,2.6,16.5c-1.3-5.7-2.7-11.4-4.1-17.5c3.3-1.4,6.4-2.9,9.7-4.1c1-0.4,2,0.9,1.5,2
		C344.6,502.3,343.4,501.4,337.5,499.6z"/>
	<path class="st0" d="M341,519.9c5.1-2.7,6.8,2.7,9.6,5.8c-1.9,3.7-6.6,4.6-8.3,0.3C341.7,524.1,341.4,522,341,519.9z"/>
	<path class="st0" d="M214.1,463.5c-2.7-1.6-3-3.8-2.7-6.3C214.6,458,214.6,458,214.1,463.5z"/>
	<path class="st0" d="M349.3,500c1.5,2.2,2.5,4.5,2,7.2C349.5,505.1,349.3,502.5,349.3,500z"/>
	<path class="st0" d="M352.2,515.3c0.3,2.4,0.5,4.7-1.2,7.6C351.2,519.9,350.5,517.4,352.2,515.3z"/>
	<path class="st0" d="M140.8,318.2c-8.1,2.5-16.3,3.9-25,4.6c-8.4-12.4-12.4-27.5-7.6-42.1c4-15.9,21.2-27.8,37.3-21.1
		c2.4,0.9,4.5,3.3,6.3,7.1C118.7,263.6,109.4,307.6,140.8,318.2z"/>
	<path class="st0" d="M157.9,278.9c-5.3-2.9-10.6-4-16.6-1c5.2,5.9,0.8,14.5-7.9,11c-4.9,16.8,20.2,27.3,29.3,10.5
		c1.3,2,0.6,3.7,0.5,5.3c-0.5,7.4,0.3,6.5-6.7,9.1c-4.7,1.7-9.3,2.8-14.3,1.6c-29.4-7.3-20-51.1,9.7-45.7c4.3,0.6,4.7,5.5,6.5,8.7
		C158.2,278.6,158,278.8,157.9,278.9z"/>
	<path class="st0" d="M258.6,399.6c-5.7,6.7-11.2,15.9-20.5,17.4c-16.2,3.3-32.5,5.7-48.9,7.3c-4.2,0.1-4.6-0.3-4.8-4.9
		c2.2,1.1,3.9,0.7,5.6-1c12.6-2.3,26-3.4,38.5-7.1c4.4-1.7,6.8,3.5,11.3,0c3.9-2.7,7.4-5.9,9.6-10c1.5-2.7,4.1-3.2,6.4-4.1
		C257.2,396.5,257.9,398.2,258.6,399.6z"/>
	<path class="st0" d="M246.9,400.9c-2.2,3.9-8.6,12.8-13.5,9.3c-1.6-1.2-3.1-1-4.8-0.7c-11.9,2.1-23.8,4.2-35.6,6.2
		c-2.2,0.4-4.3,0.7-5.7,2.8c-2.3-1-3.2-2.9-4.2-5.4C204.9,411,226.2,407.6,246.9,400.9z"/>
	<path class="st0" d="M182.4,421.1c-2.8-2.7-5.4-5.3-8.2-8.2C181.2,412.1,183.4,413.7,182.4,421.1z"/>
	<path class="st0" d="M264.9,391c-1.6,1.5-4.3,9-6.5,4.7c2-1.7,4-3.4,6-5.1C264.6,390.7,264.7,390.9,264.9,391z"/>
	<path class="st0" d="M281.2,289.6c12.9-17.7,6.5-42.7-16.8-45.2c-27.8-2.2-37.5,36.4-13.7,49.7c-4.6,1.7-8.5,3.2-12.9,4.8
		c-21-23.1-13.1-66.3,22.5-67.2c20.7-0.5,39.4,15.6,38.7,36.8c0.1,6.9-1.7,13.3-4.6,19.5c-0.8,1.8-1.9,2.5-4,2.3
		C287.5,289.7,284.3,289.7,281.2,289.6z"/>
	<path class="st0" d="M285.5,269.5c-0.3,9-3.5,17.7-11.6,20.5c-5.5,1-11,1.7-16.5,2.7c-2,0.4-3.6-0.2-5.2-1.1
		c-19.8-10-14.6-41.6,7.2-44.6C273.4,245,285.3,257,285.5,269.5z M246.5,267.1c-4.7,15.5,18.6,27.2,27.9,11.6
		c9.1-13.1-7.8-31.3-19.7-22.2C261.6,263.1,255.2,272.4,246.5,267.1z"/>
	<path class="st0" d="M401.8,627.4c7.4-9.8,7-14.6-1.5-23c6.6-0.3,13-0.1,19.3-1.5c0-0.2,0-0.5,0-0.7c-5.9,0-11.9,0-17.8,0
		c-0.1-0.2-0.3-0.5-0.4-0.7c9.4-3.9,11-17.8,1-22.4c6-1.5,12.2-0.4,18.3-0.8c4,0,4.8,0.9,4.5,4.9c-0.9,12.1-3.1,23.9-5.3,35.8
		c-0.7,3.8-2.6,6.4-6.9,6.8C409.5,626.1,406,626.8,401.8,627.4z"/>
	<path class="st0" d="M382.6,575c3.4,1.6,6.1,2.9,9.2,4.4c0,7.4-0.2,14.8-1.4,22.7c-3.7-0.7-5.5-1.2-9.3-2.4c2.7,2.9,6,3.2,9,4.7
		c-0.8,8.5-2.4,16.8-5.6,25c-3.2-0.9-5.9-2.4-8.4-4c-1.4-0.9-1.3-2.5-1-4C378.1,605.9,378.9,590.2,382.6,575z"/>
	<path class="st0" d="M393.2,604.4c9.7,1.9,15.1,12,8,19.8c-3.8,4.1-9.1,4.7-14.5,5.2C389,621,391,613,393.2,604.4z M400.3,617.3
		c-0.2-5.2-5.7-4-5.6,0.6C395,622.9,400.4,622.1,400.3,617.3z"/>
	<path class="st0" d="M393.2,601.8c0-7.3,0-14.7,0-22.2C412.4,578.1,411.4,600.1,393.2,601.8z M403.4,589.1c0-5.1-5.4-4.8-5.7,0.2
		C397.6,594.2,403.2,593.7,403.4,589.1z"/>
	<path class="st0" d="M423.7,576.2c-6.6,0.3-12.7,0.5-18.8,0.8c-7.1,0.2-14.8,2.3-20.7-2.8c1.8-2.1,3.9-2.1,5.9-2.1
		c6,0,12.1,0.1,18.1,0.2C413.3,573.1,420.7,570.6,423.7,576.2z"/>
	<path class="st0" d="M129.6,84.7c13.2-7.3,27.2-10.5,42.6-9.2c1.3,6.2,4.7,10.2,11.6,10.7c5.9,20.2,1.5,45.3-17,57.5
		c-5.7,3.6-17.5-5.8-22-9.4c-9-7.9-15.7-17.4-19.3-28.9c-0.6-3.7-3.7-8.1,0.9-10.6C129.7,92.9,129.7,88.4,129.6,84.7z M128.8,98.6
		c3.6,19.3,13.5,33.6,32.1,41.1c8,2.9,15.7-12.9,17.6-19.1c2.5-6.2,5.5-33.1-3.2-34.5c-2-0.3-3.6-1.8-4.1-3.7
		c-2.8-8-32.1,0.7-37.3,5C134,94.1,133.6,95,128.8,98.6z"/>
	<path class="st0" d="M350.2,198C314.4,146.5,312.5,79.7,331,21.5c16.1,19.2,30.3,41.5,35.7,66.2c-2-0.3-3.8-0.6-5.9-0.9
		C377.4,120.8,379.8,170.4,350.2,198z"/>
	<path class="st0" d="M162.1,473.7c18-3.5,12.8,0.8,24.6-13.4c4.7,14.8,1.3,12.6,16.8,15.7c-5.7,5.7-13.5,8.4-12.7,17.4
		c-0.1,1.8,0,3.7-1.1,5.3c-2.3-1.3-4.8-2.4-6.9-4c-2.3-1.7-4.5-1.7-7-1c-3.2,0.9-6.6,1.6-10.6,2.5
		C169.9,482.3,170.5,485.9,162.1,473.7z M189.1,479.8c-0.4-9.8-15.3-7.3-14.9,1.7C175.2,490.7,189.3,488.4,189.1,479.8z"/>
	<path class="st0" d="M190.4,501.8c-4.9,4.8-10.2,7.9-16.2,9.8c-4.1,0.5-8.9-8.9-10.1-12.8c5-1.1,9.8-2.3,14.7-3.3
		c0.6-0.1,1.4,0.1,1.9,0.4C183.8,497.8,186.9,499.7,190.4,501.8z"/>
	<path class="st0" d="M188.4,457.8c4.7,0,8.8,0.7,12.8,2.7c0,10.4,8.7,8.3,5.3,13.6C190.6,471,192.8,473.9,188.4,457.8z"/>
	<path class="st0" d="M160.6,471.3c-1.1-4.6,5.8-2.8,9.3-10.7c1.8-3.6,11.4-3,15.8-3.2c-3,3.6-7.1,10.7-11.2,12
		C170,470,165.2,471.6,160.6,471.3z"/>
	<path class="st0" d="M205.4,478.8c-2.6,7.6-6.6,14.4-12.8,20.8c1.4-16.5,0.2-10.8,12.1-21.5C205,478.4,205.2,478.6,205.4,478.8z"/>
	<path class="st0" d="M162.3,495.1c-2.1-6.2-2.9-12.6-2.7-19.9c2.4,1.7,3.2,3.9,4.7,5.5c4.5,4.2-0.2,9.6-1.1,14.4
		C162.9,495.1,162.6,495.1,162.3,495.1z"/>
	<path class="st0" d="M397.1,620.1c-2.1-2.3-2.1-2.8,0.1-4.9C399.3,617,399.3,617.4,397.1,620.1z"/>
	<path class="st0" d="M398.1,589c1.7-2.2,3.8-3.5,3.8,0c-0.1,1.1-0.4,2.5-1.8,2.3C399.4,591.2,398.9,590,398.1,589z"/>
	<path class="st0" d="M131.2,99.4c7.2-4.4,2.8-10.2,6.6-11.9c5.6-3.1,27.8-10,31.7-3.6c0.8,2.2,2.6,3.8,4.9,4.3
		c5.6,1,4.3,16.3,4.2,20.8c-0.5,10.7-5,20.8-13.2,27.9c-1.1,1.1-2.3,1.2-3.7,0.7C145.1,132,133.9,116.9,131.2,99.4z M160.3,105.4
		c-14.7,1.4-14,28.6-0.6,23.3c3.7-2.4,7.5-4.7,12-5.3c1.7-0.5,2.8-1.6,2.9-3.4C175.7,112.5,167.4,105.9,160.3,105.4z M159.9,95.9
		c-0.1,0-0.2-0.1-0.3-0.1c0.2-9.5-13-11.8-14.7-1.7C144.7,103.9,158.4,108.4,159.9,95.9z M175.8,96.1c-2.9-15.9-19.8-3.1-12.5,7.2
		C168.1,109.7,176.4,103.2,175.8,96.1z M148.6,109c-0.9-10.1-15.8-11.9-12.9,0.2C137.7,115.2,148.2,117.1,148.6,109z"/>
	<path class="st0" d="M181.3,485.1c-2.8,0.1-4.7-1.7-4.7-4.2c-0.1-5.3,9.9-7.6,10.4-1.4C187.1,482.4,184.3,485.1,181.3,485.1z"/>
	<path class="st0" d="M151.6,118.7c0.5-13.2,14.1-14,20-3.6c1,2,1.8,6.3-1.4,6.4C160.8,122.1,154,135.9,151.6,118.7z"/>
	<path class="st0" d="M157.4,95.2c0.1,8.6-8.7,6.9-10.2,0.7C146.4,87.7,156.4,88,157.4,95.2z"/>
	<path class="st0" d="M173.4,96.4c0.7,5.5-6.2,10.4-9,4.4C160.7,93.1,172.4,85.4,173.4,96.4z"/>
	<path class="st0" d="M143.1,112.1c-5.8,0.5-8.4-10.2-1.4-9C145.6,103.9,148.9,111.9,143.1,112.1z"/>
</g>
</svg>
