<?xml version="1.0" encoding="utf-8"?>
<!-- Generator: Adobe Illustrator 26.0.0, SVG Export Plug-In . SVG Version: 6.00 Build 0)  -->
<svg version="1.1" id="Capa_1" xmlns="http://www.w3.org/2000/svg" xmlns:xlink="http://www.w3.org/1999/xlink" x="0px" y="0px"
	 viewBox="0 0 595.3 669.2" style="enable-background:new 0 0 595.3 669.2;" xml:space="preserve">
<style type="text/css">
	.st0{fill:#FFFFFF;}
</style>
<g>
	<path d="M342.2,545.1c-5.6-8.9-10.1-17.9-13.6-27.7c-9.4,7.5-19.8,12.7-31.9,13.6c-1.4,0.1-2.6,0.2-2.9,2
		c-5.2,22.1-30.4,54.1-55.8,42.7c-9.7,9.4-24.3,12.1-35.8,4.6c-1-0.5-2-1.1-3-1.1c-11.8-0.3-20.2-6.2-26.6-15.8
		c-11.3,30.3-18.2,62.8-35.8,90.4c-8.6,15.7-61,15.4-78.2,15.4c-9.8-0.6-20.3-0.8-28.9-6c-0.7-0.5-1.7-0.7-2.6-0.7
		c-39.8-2.8-29.4-63.3-8.8-83.5c8.9-10.9,24.2-13.6,37.3-9.8c3.9,0.9,7.9,1.7,12,1.7c17.3,0,28.5-34.1,34.7-47.7
		c7.8-19.3,14.5-39.1,23.3-58c0.6-1.4,0.5-2.4-0.1-3.7c-2.8-6.5-5.9-13.1-5.6-20.4c0-4.1,1.3-7.8,4.3-10.6c0.8-0.7,1-1.5,1.1-2.5
		c0.5-14.6,3.9-28.6,9.8-42c0.9-2.1,0.4-4.3,0.3-6.4c-0.2-5.4,0.4-10.7,1.2-16c0.2-1.3,1.3-1,2-1.7c-2-2.4-2.2-5.3-2-8.2
		c0.6-4.4-3.8-5.9-6.6-8.3c-6.8-5-1.4-11.8-0.6-18.1c-28.2-13-19.7-20.7-34.9-35.1c-11-10.1-24.9-17.4-33.3-30.1
		c-3.6-6-6.9-12.3-9.7-18.7c-3.9-9.6-10.7-16.9-19-22.9c-5.4-6.6,9.3-4.8,12.6-4c-3.5-6-7-11.5-8.4-18.3c-1.3-5.1,0-7.8,5.7-7.6
		c0-3.1,2.3-3.9,4.7-4.6c11.5-2.7,23.9-7.3,27.9-19.6c1.4-3.4,1.9-6.2-1.7-8.4c-12.7-13.2-14.7-31.8-5-47.1c0.9-1.3,0.9-2.5,0.6-4
		c-2.2-12-0.5-25.6,7.8-35.1c4.9-6.1,10.5-4.7,11.5-8.3c3.4-10.7,12.8-19.2,24.2-19.8c1.4,0,2.2-0.6,2.9-1.8
		C125.8,24.8,140.9,9.7,159.9,2c6.3-2.7,19.8-4.3,19.4,5.7c0.1,8.2-0.1,16-0.1,24.3c35.7-6,66.8-4.3,99.8,11.9
		c2.1,1,3.6,0.8,5.4-0.5c6.1-4.4,12.5-8.3,19.3-11.5c19.1-9,41.5-12.8,61.8-5.9c4.8,1.6,7.1,3.3,7,8.7c1.2,32.1,2.8,65.9-15.6,93.9
		c-0.6,1.1-1,2.1-0.8,3.4c0.9,6.2,0.9,12.5,0.3,18.8c2.4,14.2,5.4,20.9-0.4,35.7c9.6,8.2,6.2,21.5-0.4,30.5
		c2.9,0.6,11.9-0.6,10.9,3.7c-1.6,6.2-5.6,11-9.6,15.8c23.5,4.2,46.8,8.3,70.4,12.6c3-16.8-6.8-31.8-10.9-47.4
		c-1.8-9.5,11.5-8.6,17.6-7.5c4.7,1.1,9,2.5,13.7,4.1c-1.9-6.2,1.7-6.6,6.7-5.5c9.8,2.4,17,9.2,24.1,16c1.2-2.1,2.3-3.7,4.9-2.6
		c1.8,0.7,3.6,1.5,5.2,2.6c17.3,13.1,24.4,34.7,27.4,55.3c6.4-8.9,8.2-0.9,9,5.7c1.4,20.4-2.9,41.1-10.4,60
		c-9.9,25.2-29.5,43.9-54.5,54.1c30.4,56.6,79.1,99.8,114.4,153c12,17.3,21.4,37.5,21,59c0,6.5-1.5,12.8-7.2,16.5
		c-9.2,7.2-22.7,9.2-31.9,1c-7.4,4.8-17.1,6.3-25.3,2.6c-1.5-0.7-2.8-0.6-4.3,0c-29.4,11.9-37-22.9-29.5-44.4c1.2-4,3.6-4.9,1.9-9.5
		c-5.9-18.6-16.7-36.5-31.8-48.9c-17.5-8-29.7-22.9-42.7-36.5c-6.1,6.3-11.9,12.8-19.7,17.1c-3.4,2-1.4,8.2-0.2,11.1
		c6.8,11.9,11.6,24.5,13.1,38.1c1.7,18,4.2,37.3-2.3,54.6c-1.9,4.3-4.7,7.1-9.4,8.4c-16.9,4.2-34.5,10.2-52,7.2
		c-3-0.4-5.3-3.5-8.4-3.2c-7.4,2.3-11.6-0.7-18.1-3.4c-9.3-2-10.6-14.2-12.3-21.9C312.6,562.7,318,548,342.2,545.1z"/>
	<path class="st0" d="M94.6,285.3c0.7,1.6,1.3,3.2,2.2,5.4c-12.2-10.6-26.5-19.6-35-33.6c-9.1-17.5-10.4-26.6-27.6-38.8
		c4.5-0.8,7.9,0.3,12.1,1c3.9,1.6,6.3,5.8,10.1,7.7c0.2-0.2,0.3-0.3,0.5-0.5c-8-9.5-15.3-19.6-17.4-32.2c7.1-0.7,14.9,3.2,20.6-2.8
		c-4.3,0.6-10.9,1.8-14.2-1.2c29.7-8.8,29.9-14.4,36.8-43c1.1,0.3,2,0.5,2.9,0.8c-1.1,11.5-1.8,13.9,2.1,28.1
		c-1.1,0.3-2.3,0.5-3.4,0.8c0,0.1,0,0.3,0,0.4c3.6,0.6,6.4,1.4,10,2.8c-1.5,1.4-2.8,1.8-4,3.1c-2.5,3.3-6.1,5.5-9.1,8.4
		c-5.1,5.1-9.8,11.6-9.4,19.1c2.8-7.6,7.1-13.9,13.7-18.8c3.6,40,36.1,48.5,59.1,15.8c7.3-10.9,1.3-18.2-8.2-24.4
		c8.4-0.2,33.6,9.9,44.1,16.9c-0.5-1.5-1.3-2-2.1-2.6c-15.1-11.6-33.5-18-52.2-20.5c6.7-18.6,11-42.1-1-59.3
		c1.3,3.9,2.3,7.3,3.4,10.6c-0.2,0.1-0.3,0.2-0.5,0.3c-7.1-6.1-16.7-9.9-27.3-3.7c-3.1,1.8-6.4,2.7-10,1.8c-1.7-0.5-4.3-1.5-4.2-3.7
		c1.2-6,2.6-12.5,7.3-16.8c-0.1,1.5-0.3,2.6-0.4,4.2c3-2.1,4.6-4.9,8.3-5.9c1.4-0.4,2.8-1.1,4-2c3.8-2.9,8-2.1,12.5-1.9
		c-0.1-1.3-0.2-2.4-0.4-3.6c7,1.9,14,1.8,20.7-1.1c2.6-1.5,4.4-0.4,7,0.1c1.7,0,2.4,1.1,3.1,2.4c2,4.4,3.8,8.5,5.9,12.8
		c5.3-5.6,10.1-10.4,15.8-15.7c8.2,5.2,18.6,6.5,26.8,0.6c3,4,7.2,6,11.8,7.6c-0.8,1.7-1,2.5-1,4.4c21.1-1.2,21.5-2.5,39.2,10.4
		c0.1-0.6,0.2-1.1,0.3-1.8c14.5,1,17.7,18.6,27.8,26.2c1.9,1.4,2.6,2.8,2.6,5.1c0.1,31.8,16.2,60,46.9,70.9
		c-8.8,3.5-17.9,1.2-27,1.3c6,6.1,14.7,7.6,22.3,10.5c-7.6,3.2-15.4,3.4-23.5,2.7c7.2,12.4,21.6,18,34.6,22.3
		c-9.1,11.2-39.3,27.6-57.5,29.4c6.2,4.2,13.2,5.7,20.7,6.2c-0.6,1.3-1.7,1.7-2.7,2.1c-5.7,2.5-11.3,5.2-17.1,7.2
		c-22.2,6.4-44.1,13.8-66,20.9c-17.1,5.2-34.6,11.8-52.8,8.6c-19.6-2.9-40.6-10.2-50.5-28.7c-3.2-5.7-6.2-11.6-10.2-16.8
		C95,285.1,94.8,285.2,94.6,285.3z M113.6,274.4c-3.2,15,9,28.3,23.8,29.1c40.7,4.9,71.6-31.2,81.1-67.4c0.8-2.7,2.3-4.1,4.4-5.5
		c3-1.9,6.9,2.7,10.4,3c-3.4-6.6-13.3-9.1-17.4-4.6c1.3,0.1,2.5,0.3,4.1,0.4c-27.4,20.6-57.5,40.2-93,36.4
		c-13-1.7-17.1-22.4-16.6-33.3c-0.2,0-0.4,0-0.6,0c-2.4,11.3,1.4,23.7,9.7,31.9c-18.9-2.9-39.8-11.7-46.6-31.1
		c1.3,15.3,16.2,24.9,29.2,30c2.2,0.9,3.6,1.9,4.1,4.4C106.8,272,110,273.3,113.6,274.4z M255.9,141.7c-8.6,7.6-13.7,1.3-20.8-3.9
		c-14.6-9.1-36-10.1-48.2,3.5c-17.2,17.6-11.3,52.5,11.5,62.1c10.2,2.9,20.4-1.5,30.3-3.9c8.1-2.4,16.3-3.3,24.7-3.3
		c0-0.2,0-0.4,0-0.6c-2.4-0.4-4.9-0.8-7.6-1.3c4.6-8,6.7-16.5,6.9-25.5c5.6-1,8.4-3.3,8.6-6.8c-5,0.8-6.7,0.6-8.8-1.2
		c6.3-2.3,8.7-5.1,8.3-9.6c-6.5,3.1-8.4,3.3-11.2,1.3C254.8,149.6,257,146.1,255.9,141.7z M164.2,229.6c0.2-3.4-3.9-2.7-3.9,0.2
		C160.3,233.2,164.2,232.7,164.2,229.6z M160.9,210.6c-0.1,3,3.5,2.5,3.6-0.1C164.8,207.6,160.9,207.8,160.9,210.6z M179.1,221.9
		c2.4,0.2,2.8-4.6,0.3-4.4C177.5,217.6,176.8,221.8,179.1,221.9z M79.6,208.1c2.1,0.2,2.4-4.5,0.3-4.4
		C77.5,203.8,77.4,208,79.6,208.1z"/>
	<path class="st0" d="M206.8,42.5c-2.1,2.5-3.7,3.3-5,5.9c1.7-0.3,2.7-1.3,3.9-2c16.7-10.8,41-4.1,47.2,15.2
		c0.7-2.8,1.2-3.2,4.4-3.4c13,0.1,20.4,13.7,24.7,24.3c0.2-0.1,0.4-0.1,0.6-0.2c-0.4-2.2-0.8-4.3-1.3-6.9
		c17.7,3.2,27.9,14.3,34.1,30.8c0.2-1.5,0.3-1.6,0.2-2.7c19.1,2.4,32.6,26.3,20.3,43c2.8-0.5,4.1-4.7,5.7-7.2
		c15.4,11,21.2,39.9,6.7,53.7c2.5,0,3.5-2,5.2-3.1c8.6,5.7,4.8,18.5-0.1,25.5c-2.3,3.7-14.9-3-18.1-4.6c-3.7-3-3.9-8.5-3.4-13.1
		c4.4-0.5,8.9-0.8,11.6-5.2c-8.9,6-23.4,1.4-22.8-10.6c6.5,0.8,15.8,1,17.9-6.8c-10.9,10.6-28.5,1.4-29.3-13.3
		c-7.3-2.4-13.1-6.8-17-13.9c2.5-1,5.2-1.3,6.7-3.7c-9,3-19.5,0.3-25.1-7.5c-4.9-6.7-8.3-13.9-15.9-18.5c1.2-0.6,2.1-1.1,3.6-1.8
		c-12.4-1.3-23.2-4.6-29.4-16.3c-10.7,4.2-26.8,2.6-33.9-7.3c-10.7,6.7-20.4,4.9-29.8-2.9c-6.9,3.4-14.3,4.9-22.4,2.9
		c2.4-2.7,5.3-4.8,5.2-8.8c-10.7,12.1-26.7,13.6-38.8,7.8c-5.8,8.4-14,12.7-24.6,12.7c0.4,0.5,1,1.2,1.1,1.3
		c-3.5,8.5-5.7,16.2-7.1,25.2c-0.6-0.4-1-0.6-2-1.2c0,3.8,2.3,6.2,0.8,9.9c-0.5-0.2-1.1-0.4-1.8-0.6c-0.7,2.6,1.2,4.7,1,7.2
		c-0.9,3.9-1.1,8.1-2.7,11.7c-12-10.1-15.6-28.9-6.7-43.2c0.8,1.6,1.6,3,2.4,4.4c0.1,0,0.3-0.1,0.4-0.1c-4.6-15.5-5-41.1,12.4-48.7
		c0,2.7,0,5.2,0,7.6c0.2,0,0.3,0,0.5,0.1c1.6-6.6,3.1-13.2,7-18.9c5.6-8.7,17.4-14.9,27.1-9.4c-1.2,2.3-2.4,4.4-3.5,6.6
		c0.2,0.1,0.3,0.2,0.5,0.3c6.1-7.6,13.1-14.5,22-18.7c4.8-2.3,13.5-5,15.8,1.5c-1.4,1-2.9,2.1-4.4,3.1c0.1,0.1,0.2,0.3,0.2,0.4
		C168.4,35,190.1,30.4,206.8,42.5z M251.3,71.6c0.6,5.6-2.9,8.8-7,11.6c7.6,6.3-0.4,10.8-5.8,14.5c2.9,0.1,5.2-1.1,7.3-2.6
		c4.4-2.9,4.8-7.6,2.7-11.8C252.7,78.1,253.5,75.3,251.3,71.6z M306.8,141.4c6.7,1,12.3-6.8,6.2-11.2c4.5-5.2,5.8-9.6,3.5-14.2
		c-0.4,6.4-2.5,11.4-8.3,14.1C316.5,133.8,313,138.3,306.8,141.4z M200.2,75.8c-2.8-2.6-4.9-5.6-3.2-9.3c1.3-2.8,3-5.6,5.1-7.8
		c-7.4,1.6-10.7,12-5.2,17.2c-2.1,5.4-2.1,7.7,0.1,9.7C196.5,81.7,197.6,78.5,200.2,75.8z M266.1,113.1c0.1,0.2,0.3,0.4,0.4,0.6
		c7.3-0.3,17.5-12.8,12.9-19.5C278,102.9,273.5,109,266.1,113.1z M84.7,101.6c-3.9-4.7-3.8-10.6-2-16.1
		C77.4,89.2,78.4,100.4,84.7,101.6z"/>
	<path class="st0" d="M220.5,492.9c-26.3,7.7,0.3,69.2,14,80.9c-8.5,7.2-23.6,11-31.7,1.6c-11-16-31.4-58.1-20.5-76.1
		c-16.4,15.8,5.9,61.3,16.1,77.6c-16.8,0.2-24.9-16-29.4-29.9c-4.3-12.2-7.4-25-7-38c0.5-14.4,37.2-38,49-46.6
		c33.6-27.4,78.5-28.7,111.9-0.2c-2.6,4.3-7.1,6.8-9.7,11.2c4.6,1.2,8.5-1.2,12.9-1.6c9.5-1.1-6.7,15.7-6.9,19.5
		c2.8,0.5,4.7-0.9,6.7-1.7c2-0.7,4-1.6,6.4-2.5c-3.8,15.9-16.4,28.1-28,39c-2.6,2.1-6.1,2.3-9.2,2.8c-0.7-2.8,0.6-14.6,2.8-27.2
		c-1.3,1.6-1.8,3-2.1,4.5c-3.5,19.1-4,34.6-17.6,49.9c-9.5,12.9-31.1,27-44.3,11.3c-10.5-12.8-16-28.8-20.5-44.4
		C210.7,512.1,209.9,499.4,220.5,492.9z"/>
	<path class="st0" d="M167.6,417c14.2-7.8,21.3-20.7,25.7-35.9c5.4,7.8,8.4,4.5,11.6,9.1c7.9,12.5,27.7,14.4,31.1-2.6
		c12.8,3.6,18.9-4.7,21.6-16.2c2-5.6,1.6-14.9,9.7-14.2c7.1,0.5,12.3,1.4,15.2-6.4c11.3-0.9,14.5-3.6,15.6-15.1
		c1.8-8.3,11.5-2.5,14.7-18.6c8.1,5,16.1,9.5,25.5,11.2c1.1,0.2,2.2,0.6,3.1,1.3c4.1,3,8.7,4.7,13.6,5.9c10.2,2.3,20.4,4.1,30.8,5.1
		c3.5,0.3,5.7,1.9,7.5,5.2c-11.5-3.3-23.2-5.8-35-2.9c-2.8,0.6-6-1.7-8.2,0.9c-1.9,2.1-1.1,5.1,0.1,7.4c8,12.6,9.2,27.4,12,41.7
		c0.6,3.1,2,5.8,4.1,8.2c7.7,9.3,34.9,24.5,46.7,20.4c0.1,30-15.7,58.1-40.3,75c-11.5,4.8-23.6,8-35.6,11.5
		c8.3-13.2,8.6-29.1,6.3-44.1c-0.2-1-0.1-2.3,0.3-3.2c3.2-6.7,4.7-13.9,5.1-21.3c2.6-32.7-15.9-78.2-54.8-74.1
		c-36.6,3-50.7,42.5-52.3,74.3c-0.1,1.2-0.4,2.1-1.7,2.6c-20.1,7.3-36.3,21.4-53.7,33.3C175.5,457.6,170.8,437.5,167.6,417z"/>
	<path class="st0" d="M54.1,585.8c-8.8-3.3-16.5,4-20.8,10.7c-11.7,18.4-14.9,42.3-7.1,62.9c-44.4-4.8-17.5-97.4,22.8-87.4
		c3.7,0.6,7.4,1.5,11,2.2c17.4,4.3,26.7-9.4,33.6-23.1c0.9-2,5.2-6.2,6.3-2.6c1.1,6.5,0.3,13.1,0.5,19.7c4.8-6.8,6.6-16.1,13.4-21.2
		c1.6,1.1,1.7,2.5,1.8,3.9c0.8,10.1,0,19.8,1,29.9c4.3-7.4,4.8-16.4,10.6-22.9c3.4,2.3,1.8,22.7,3,27.8c4.6-6.9,8.9-13.2,13.5-19.9
		c1.2-1.6,2.4-3.3,4.6-4c3.5,1.8-3.9,27.4-4.1,32.4c2.8-2.2,12.8-17.8,15.7-13c1,2.1,2,4.2,1.1,6.7c-5.7,15.7-11.2,31.5-18.3,46.7
		c-5.2,9.6-9.3,22.3-21.5,24.6c-19.6,4.5-39.7,6.2-59.8,6c-7.1-0.1-14.3-0.5-21.3-2c-8.7-1.9-11-3.9-13-12.6
		C21.3,631.8,29.2,585.4,54.1,585.8z"/>
	<path class="st0" d="M501.5,541.8c-3-1.6-6.1-3.3-9.1-4.9c-0.5-0.3-0.8-0.8-1.1-1.2c-4.1-7-9.7-12.8-14.8-18.9
		c10.1,1.4,24,1.8,28.8-9.2c-28.6,21.6-58.9-14.6-79.3-32.4c28.2-37.6,28.1-92.5,0.3-130.3c13.3,8.8,21,24.1,28.9,37.5
		c23.1,44.6,57.1,81.5,88.4,120.3c-4,0.3-4.8,1.1-3.5,4.7c1.9,6.3,5.6,12,7,18.5c-3.4-2.5-12.3-11.1-11-1.1
		c-4.4-1.9-25.4-20.6-19.9-5c1.5,4.9,4.3,9.3,5.1,14.4c-18.3-13.1-35-27.2-19.4,7.2C501.7,541.6,501.6,541.7,501.5,541.8z"/>
	<path class="st0" d="M502.2,563c-1.3-8-4.2-15.2-7.8-22.1c0.2-0.1,0.3-0.3,0.5-0.4c4,2.5,8,5.1,12.1,7.7c0.4-1.2-0.4-1.9-0.7-2.7
		c-2.5-5.8-5-11.5-7.4-17.4c-0.7-1.8-1.3-3.7-0.9-5.7c1.3-0.7,2.3,0.1,3.2,0.6c9.4,5.1,17,13,26.3,18.1c-3.3-8.4-7.7-16.2-10.1-24.9
		c1.5-0.3,2.4,0.5,3.3,1c7.2,4,13.1,8.8,19.4,14.1c-0.7-3.3-1.3-6-1.9-8.6c5.6,2.8,9.7,7.2,14.4,10.8c0.2-0.1,0.3-0.2,0.5-0.3
		c-3.2-9.7-9.4-18.3-11.3-28.5c3,1.3,5.5,2.6,7.2,4.8c20.4,27,46.2,56.4,42.3,92.5c-0.1,2.1-1,4-2.5,5.5c-8.4,9.4-25,12.6-33.4,1.5
		c-5.9-10-4.3-27.8,1.1-37.9c-7.8,4.8-8.8,32.6-3.1,39.6c-8.1,6.9-25,6-28.9-5.4c-2.9-11.1-3-22.5,0.8-33.6
		c-5.9,6.6-8,31.2-0.1,40.9c-26.2,12.1-31.9-22.1-24.8-40.5c4.6-11.3,17.7-16,28.8-18.1c10.7-2.3,21.2,0.1,31.8,0.9
		C541.5,548,518.5,549.2,502.2,563z"/>
	<path class="st0" d="M429.7,249.9c0-3.4,0-6.4,0-9.5c0.4-8.2-3.2-15.7-4.7-23.6c0.5-12.3,14.8-7.7,21.7-3.6
		c13.4,7,22.3,19.3,32.2,30.2c-3.6-6.1-4.4-13.1-8-19.7c8.8-0.6,17,17.7,21.6,24.1c0-3,0-5.3,0-8.1c11.2,10.1,10.4,36.3,12.7,50.3
		c1.1-1.3,2.2-2.6,3.2-3.7c1.7,0.5,1.8,1.8,1.9,2.8c1.6,33.6-18.6,80.3-51.5,92.9c-7.7-13.3-16-26.5-27.9-36.6
		c-0.3-0.3-0.6-0.6-0.8-1.4c6.8,0.7,13.7,1.6,20.5,1.4c11.4-0.5,19.6-10.7,19.3-21.7c0.2-12.8,0.2-25.5,0.3-38.3
		c0.2-1.7-0.7-3.8,0.9-5c4-3.6,4-8.6,1.3-13.1c-2.6-4.4-6.6-6.8-11.3-8.3C450.8,255.7,440.2,252.9,429.7,249.9z"/>
	<path class="st0" d="M343,552c-7.5-4.3-14.2,3.5-16.4,10.2c-4.8,14.3-5.1,26.5-0.1,41.4c-3.5-0.7-4.3-5.8-5.6-8.5
		c-15.7-58.8,31.6-50.2,70.8-38.9c-11.6-9.6-31.8-11.2-46.5-11.6c-3.9-4.3-1.9-8.2-1.4-13.4c0.5-3.4,2.1-7.5,6-4.8
		c8.6,5,14.3,13.5,22.1,19.6c-1-5.8-3-11.5-3.3-17.5c5.9,4.4,9.3,10.8,14.2,16.9c0.6-3.8-2.4-34.6,4.7-29.5
		c8.6,5.4,11.9,15.5,17.3,23.7c0.6-4.2-0.2-8.6,1.1-13.4c6.2,7.1,7.9,9.2,8.9,19.9c0.7,13.5,7.1,53.1-9.9,57.2
		c-11.6,2.2-52.2,15.5-56.9,0.6c-4.7-12.6-7.4-57,15.7-49.1c-1.4-1.9-3-2.3-4.6-2.3c-10.1-0.7-13.9,8.2-15.7,16.6
		c-2.8,12.4-2.3,25.4,1.6,37.5c-21.2,6.9-19.9-26.6-16.8-39.4c1.9-5.5,3.1-13.2,9.5-15.1C339.2,551.9,341,552.1,343,552z"/>
	<path class="st0" d="M234.4,384.1c-5.3,21.8-28.5,10.9-31.9-5.9c-0.4,2.1-0.6,3.6-0.9,5.2c-5.6-1.8-6.9-6.5-8.1-11.7
		c-0.2,0.5-0.5,1-0.7,1.4c-5.6-3.4-5.6-12.7-0.1-16c4.1-1.3,6.9-3.9,8.6-7.9c3.5-7.7,12.8,0.1,15.9-10c2.7-9.3,8.5,0.4,12.4-7.4
		c1.7-3.2,2.3-8.3,7-7.4c5.2,0.4,8.9-1.8,11.2-6.4c4.1-8.3,3.5-6.6,10.7-8.5c17.9-4.8,36-9.2,53.4-15.6c3.1,4.2,2.7,8.1-1.4,11.2
		c-2.1-1.9-3.5-4.9-7.4-5.2c7.8,7.2,8.2,21.1,0.1,26.9c-3.5,2.2-7.7,3.3-8.4,8c-0.4,1.8-0.8,3.7-1.2,5.5c-1.8,7.7-11.5,7.7-17.8,6.3
		c-0.1,0.2-0.2,0.4-0.3,0.5c1.1,0.9,2.3,1.8,3.5,2.7c-0.6,2.2-2,3.5-4.3,3.7c-8.5-0.2-16-0.3-18.4,9.5
		C253.1,374.6,250.1,390.1,234.4,384.1z M291.8,304.3c3.2,5.2-1.9,7.2-3.7,11.3c-1.1,2.4-0.8,4.7,1.2,6.7c3.9,3.3,3.2,5.5-0.7,8.3
		c2.4,0.2,4-0.7,5-2.7c1.4-2.7-0.5-5-2.4-6.8c-2.2-2.3-2.3-3.6-0.4-6.1C293.9,311.7,297.3,307.3,291.8,304.3z M222.9,378.9
		c3.5-2.5,2.7-6.2,0.2-8.7c-1.8-1.6-1.9-3.5-1.1-5.6c1.5-3.5,0.9-8.1-4.3-6.9c3.6,1.8,3.1,4.5,1.8,7.4
		C217.4,370.8,225.5,372.9,222.9,378.9z M237.9,352.9c4.1-1.5,3.9-7.7,0.3-9.5c-1.5-0.9-3.2-1.3-4.9-0.1
		C238.9,346.3,238.9,346.3,237.9,352.9z M273.7,332.1c4.3-2.4,5.2-11.6,1.7-14.4C275.8,322.6,275.1,327.3,273.7,332.1z M241.8,375.6
		c4.4-3.9,0.1-13.2-5.4-11.5C240.5,366.8,242,370.7,241.8,375.6z"/>
	<path class="st0" d="M127.5,466c8.6,14,18.8,25.9,33,34c-6.1,19.7,2.3,40.1,9.6,58.2c0.8,1.8,0.8,3.3,0.1,5
		c-2.5,6.2-4.5,12.2-7,18.4c-1.7-2.5-3.5-5.1-6.6-3.2c-3.3,2.1-5.5,4.1-8.2,7.1c0.5-7.6,3.3-14.5,3.1-22.1c0.1-3.9-3.3-5.3-6-2.5
		c-5.5,5.1-8.7,11.4-13.2,17.6c-0.9-7-0.1-13.7-2-20.4c-5-8.1-9.6,7.7-11.3,11.2c-0.2,0-0.4,0-0.6-0.1c0-6.1-0.2-12.3-0.5-18.4
		c-0.1-1.3-0.4-2.6-0.9-3.8c-4.7-7.8-11.6,8-14,11.6c-1.1-5.3,2.1-14-5.9-14C109.2,519.2,116.1,491.7,127.5,466z"/>
	<path class="st0" d="M308.9,524.6c10.5-9.6,20.4-20.6,24.9-34.3c1.4-3.8,0-6.9-4.2-4.2c-2.1,1-4.2,2-6.7,3.2
		c0.8-4.2,4.6-6.9,6.6-10.6c2.2-3,3.2-9.1-2.1-9c-3.2,0.1-6,1.4-9.3,1.5c2.4-2.8,4.8-5.5,7.4-8.5c-19.2-17-40.9-25.9-66.5-24.5
		c-0.1-15.4,4.2-32.5,15.5-43.6c26.5-22.1,52.9-4,55.5,27.5c-0.7-1.1-0.7-2.2-1.8-3.2c1.1,17.1,10.8,32.2,12.1,49.3
		c4,24.7-7,48-31,56.9C309.1,524.9,309,524.7,308.9,524.6z"/>
	<path class="st0" d="M346,137.6c-1.8-1.5-3.4-1.8-3.2-4.3c0-4.2,1.4-8,3-11.9c9.8-23.8,16.7-51.3,6.5-76.1c0.9-0.4,2-0.8,3.4-1.4
		c-15.8-4.2-41.9,16.5-44.4,31.9c2.5-1.7,4.2-7.2,7.1-6.8c4.1,0.7,8.1,1.5,12.1,2.2c0.4,0.1,0.8,0.5,1.6,1c-3.7,2.1-7.4,3-10.6,5.9
		c-2.1,1.2-4,0.7-6.8,1c1.9,1.4,3.6,1.3,5.1,1.7c3.7,1,6.5,2,10.1,3.7c-5.5,3.8-10.3,7.4-10.4,14.7c0,0.2-0.2,0.3-0.4,0.7
		c-1.3-0.3-2.8-0.6-4.2-1.1c-2.9-3.3-4.3-8.1-7-11.6c-6.3-8.6-14.9-13.6-25.3-15.4c-4.9-0.4-5.5-5.7-8.6-8.7
		c-1.8-1.9-4.9-9.9-1.1-10.5c5.9-1.4,10.8-4.6,15.7-8c21.3-14.9,48.6-24,74.5-16.9c3.6,1,7.4,2.1,6.9,6.6c0,5.2,0,10.3,0.1,15.5
		C371.8,80.9,366.8,113.3,346,137.6z"/>
	<path class="st0" d="M301.8,237.1c8.5-1.2,16.5-1.2,23.5-7.1c-7-1.7-13.3-1.9-19.1-6.5c8.1-0.4,17.3,0.9,23.9-5
		c-32.8-8.8-50.1-38.9-49.2-71.6c2.3,0.4,4.5,0.6,6.7,1.1c4.7,6.6,9.3,12.7,17.5,15.4c0.6,0.2,1.3,0.9,1.4,1.5
		c0.9,6.9,4.7,11.7,10.6,15.4c-0.8,8.4,3.3,13.6,10.8,16.8c0.2,2.9,0.5,5.7,0.7,8.7c-0.5-0.1-0.9-0.1-1.3-0.2c0.6,3,5.1,6.1,7.6,7.8
		c8.4,5.8,17.7,7.4,27.8,8c-6.9,14.9-20.2,24.4-35.6,28.3c2.1,0.7,4.2,0.4,6.2-0.1c1.7-0.5,3.2-0.2,4.8,0.6c4.4,2.3,9,4.1,13.4,6.5
		c-6,11.4-28.2,16.8-40.1,19.9c0,0.2,0.1,0.5,0.1,0.7c5.3-0.1,10.6-0.8,15.7-2c2.7-0.6,5.3,0.1,8.2,0.3c-0.3,1.6-1.3,2.3-2.1,2.8
		c-12.1,8.6-26.1,14.6-40.5,17.7c2.5-2.1,5.4-3.3,7-6.5c-6.6,0.5-12.7-0.1-18.6-2.9c20.9-5.1,38.3-16.1,53.8-30.8
		c-0.9-1.1-2-1.1-2.9-1.3C320.8,251.3,309.6,246.2,301.8,237.1z"/>
	<path class="st0" d="M412.9,365.7c0.3-0.3,0.3-0.4,0.4-0.5c7.8-1.6,0.9-11-3.4-12.8c-3.1-1.5-6.3-2.9-9.5-4.1
		c-1.9-0.7-3.5-1.6-4.7-3.3c-0.7-1.1-1.6-2-2.7-3.3c8.6-0.1,16.9,1.1,25.5,1.3c2.1,0.1,3.5,0.8,4.8,2.4
		c40,48.1,20.9,152.8-50.8,154.5c29.6-19,45-50.4,44.3-85.4c0.1-1.7,0.5-3.1,1.8-4.2c5.4-4.6,6.4-10.3,4.5-17
		C420.2,383.8,416.8,374.7,412.9,365.7z"/>
	<path class="st0" d="M394.5,274.8c-0.3,5.5,1,17.6-2.2,21.6c-1.1,1.4-1.5,3.7-1.5,5.6c0,3.8-0.7,7.7,0.4,11.5
		c0.1,0.4,0.1,0.9,0,1.4c-1.7,6.2-2.6,14.1-8.7,17.6c-4.6,2.5-9.3,4.2-14.7,2.6c-7.8-1.9-15.9-2.5-23.2-6.4
		c-6.9-1.2-5.2-47.4-4.9-54.8c0.1-2.2,0.9-3.5,2.9-4.6c3.1-1.7,6-3.8,8.8-6c8.6-8.1,2.7-9.4-5.1-13.1c11.3-2.7,19.2,19.3,34.6,21.4
		C385.3,272.5,389.8,273.7,394.5,274.8z M359,268.6c-0.2,0-0.3-0.1-0.5-0.1c-1.4,14.8-2.4,29.7-1.1,44.6c0.2,3.6,1.9,6.4,4.9,8.4
		c5.5,3.2,11.6,6,18,6c-8.4-4.1-21.7-5.6-21.1-17.6C359.2,296.1,358.9,282.4,359,268.6z"/>
	<path class="st0" d="M450.9,201.6c-0.9-2.4-1.6-4.5-2.3-6.5c3.3-2.2,8.4,1.1,11.7,2.3c7.9,3.6,13.5,10.4,19.2,16.2
		c-0.2-9.5,3.8-6.4,9.2-2.5c16.5,14.6,24,36.7,25.1,58.2c2.5-2.6,3.6-5.8,6.6-7.5c3.4,2.6,1.9,15.6,1.9,20
		c-2.9,28.9-11.5,61.7-34.9,80.4c14.7-19.8,24.6-43.5,24.5-68.5c-0.3-3.5-0.1-11.5-5.7-7.6c-1.3-14.8-1.3-30.7-9.1-43.9
		c-2-2.7-5.5-8-6.6-1.4c-4.6-6.2-9.1-15.9-16.3-18.8c-1.3-0.5-2.8-0.9-4,0.2c-2.6,2.9,3.2,8,2.7,11.5c-9.8-11.4-21.4-23.4-36.7-26.5
		c-6.5-1.1-10.8,0.5-12.7,7.4c-2-4.8-4.1-8.9-4.9-13.6c-1.7-7.1,13.3-5.5,17.3-4.5C441.2,198,445.9,199.6,450.9,201.6z"/>
	<path class="st0" d="M345.9,247.5c1.9-1.7,3.8-2.8,6.1-2.9c37.6-2.1,74.4,7.4,110.4,17.2c9,1.9,14.3,17.6,2.2,18.6
		c-24.1-0.9-48-5-71.6-9.2c-8.1-2-17.2-2.6-23.5-8.6c-4.1-3.7-7.9-7.7-12.2-11.2c-3-2.4-6.4-3.9-10.4-3.5
		C346.7,247.9,346.5,247.7,345.9,247.5z"/>
	<path class="st0" d="M342.5,457.8c-3.1-6.5-4.9-13.5-7.7-20.1c-0.9-2.3-1.3-4.6-1.3-7.1c-0.1-10.2-1.8-20.2-6.3-29.5
		c-5.8-14.1-21.2-22.3-36.1-18.5c-25.8,4.6-34.4,32.4-34.6,55.5c-4.2,0.8-8.4,1.6-13,2.5c2.3-22.7,8.1-47.8,26.7-62.7
		c32.5-24.2,66.2-0.7,73.4,35C347.1,427.5,348.1,443.4,342.5,457.8z"/>
	<path class="st0" d="M157.5,417.3c0.9,23.7,6.6,45.5,20.1,65.1c-2.8,2.5-5.5,5-8.5,7.7c-16.7-11.4-30-26.6-39.7-44.3
		c-6.9-13.2,1.5-40.7,6.9-54.1C139.3,402.8,145.1,415,157.5,417.3z"/>
	<path class="st0" d="M444.7,282.2c-0.4,5.9-0.8,11.4-1.4,17.2c-0.7,3.3-2,6.7-2.1,10.1c-0.5,39.6-14.6,30.4-45.3,28.7
		c3.5-6.6,7-13.3,8.6-20.9c0.3-1.1,0.6-2,1.5-2.9c3.7-4,3.8-9.8,3.2-14.9c0-0.4-0.1-0.8-0.3-1.1c-1.6-2.4-1.1-5-1-7.6
		c0.4-4.5,0-9,0.6-13.6C420.5,279,432.4,280.6,444.7,282.2z"/>
	<path class="st0" d="M368,539c-6.3-5.7-11.1-11.9-18.7-15.4c-7.7-2.7-7.6,8.1-8.2,13.3c-3.8-6.4-5.8-13.1-9.1-19.7
		c-1.1-2.5-0.5-3.8,2.4-4.7c8.7-2.8,17.5-5.5,26.2-8.5c3.5-1.2,6.9-1.9,10.6-1.7c9.9,0.7,19.2-1.7,28.4-5.3c0.1,0.6,0.3,1,0.3,1.4
		c-0.2,3.7,1.1,7,2.7,10.2c2.7,6.6,7.1,12.6,8,19.7c-6.3-8.3-8-3.5-8.1,4.6c-3.2-5.2-5.2-10.6-9.5-14.9c-2.8-2.9-8.8-8-11.2-2
		c-0.5,1.2-1,2.5-1.1,3.8c-0.4,6.2-0.9,11.8-0.8,18.1c-3.9-3.5-5.8-8.5-10.2-11.4C362.9,522.4,367.3,535.8,368,539z"/>
	<path class="st0" d="M356.1,350.1c3.5-4.2,11.3-3.6,14.7-0.1c2.5,2.5,5.5,3.9,8.7,4.9c5.2,1.8,10.3,3.3,15.6,5.2
		c-2.2,3.2-1,6.2,0.1,9c0.4,0.9,2,1.4,2.9,2c-0.2,1.1-0.9,2.3-0.7,3.4c1.1,5.1,1.8,10.4,3.5,15.3c0.6,1,2.1,1.3,1.8,2.9
		c-0.3,8.4-7,10-13,14c-0.9,0.6-1.9,0.7-2.9,0c-7.3-4.5-16.2-8.5-17.8-17.9C366.6,375.4,363,362.2,356.1,350.1z M393.3,394.3
		c-15.6-8.5-17.7-27.2-24.8-41.9c1.1,9.6,5.7,19.4,9.6,28.4C381.2,387.1,386.3,392.5,393.3,394.3z"/>
	<path class="st0" d="M325.5,79.6c3.5-2.1,5.9-3.3,9.1-5.2c4.4-2.6-1.2-5.7-3.9-6.4c-3.6-0.8-7.1-1.5-10.8-1.9
		c3.5-6.6,20.6-18.2,29.7-20.1c10.2,24,2.2,51.8-7.6,74.7c-3.6-7.2-8.3-13.2-15.3-17.2c-6.3-3.2-2.3-10.9,2-13.9
		C337.2,84.4,332,82.3,325.5,79.6z"/>
	<path class="st0" d="M175.4,31.9c-5.8,1.9-11.2,3.6-16.7,5.4c-9-13.9-27.7,0.8-35.6,9c-1.6-0.7-3-1.4-4.6-2.1
		c7.8-16,35-42.9,53.9-41.4c3,0.5,4.1,1.6,4.1,4.7C176.5,15.7,175.8,23.8,175.4,31.9z"/>
	<path class="st0" d="M246.2,313.4c-5.5,14.7-11.8,2.1-17.6,12.7c-0.6,1.3-1,2.6-1.6,3.9c-2.4,6-8.7-2.8-12.1,7.5
		c-3,10-12.1,0.2-16.5,10c-0.9,2.1-2.4,3-4.4,3.2c-6.7,0.6-13.4,1.7-20.1,2c-2.6-0.2-4.5-1.1-5.2-4.1c-1.1-4.2-2.1-8.3-2.2-12.9
		C194.6,334.8,219.2,319.4,246.2,313.4z"/>
	<path class="st0" d="M456.6,283.2c3.8,0,7.4,0,11.2,0c0.2,13.8-1,27.6-1.1,41.3c-0.3,13.1-11.4,19-22.3,17.7
		c8.3-4.9,6-15.3,10.5-22.5c3-4.7,2.4-10.9,1.1-16.1c-0.1-0.7-0.4-1.5-0.4-2.2C455.9,295.4,455.6,289.3,456.6,283.2z"/>
	<path class="st0" d="M324.7,288.2c0.2,10.4,0.7,20.3,4,29.9c-1-9.7-1.9-19.5-1.6-29.3c0-1.5,0.4-2.4,1.7-3.2
		c2.4-1.5,4.6-3.2,7.2-5.1c0.8,15.2-0.4,30.4,3.4,45.3c-8.5-1.5-16.5-5.7-24-10c-3.3-1.6-2.6-5-3.6-8.1c6-3.8,6.6-9.1,4.1-15.4
		C318.8,291.1,321.6,289.7,324.7,288.2z"/>
	<path class="st0" d="M129.7,143.8C106.8,129.1,88,157.9,98,178.6c-2.7-0.7-5.1-1.3-7.5-2.1c-3.2-3.7-3-11.1-2.8-15.9
		c0.4-4.1,1-8.2,2-12.2C95,127.6,122.5,119.2,129.7,143.8z"/>
	<path class="st0" d="M276.6,47.1c-2.4,1.7-5.2,1.2-6.7,3.4c-1.4,2-1.7,4.3-1.7,6.8c-5.5-2.4-9.8-3.1-15.9-2.6
		c-6.2-15.9-27.3-21.3-42-13.9c-3.6-3.4-7.9-5.6-12.5-7.4C225.4,29.9,251.2,35.5,276.6,47.1z"/>
	<path class="st0" d="M128.9,154c-3.2-2.7-6-5.3-10.3-5c2.1,7.9-6.2,13.5-12.4,8c-3.5,4.5-3.2,11,0.8,20.2c-2.1,0.4-4.2,0.7-6.4,1.1
		c-11.8-17.1,7.6-46.8,27.2-33.1C131,147.2,128.9,150.6,128.9,154z"/>
	<path class="st0" d="M174.7,356.3c0.3,6.3,1.8,11.5,9.1,12.9c-2,17.4-10.2,35.6-26.3,44c-1.3,0.7-2.4,0.7-3.7,0
		c-15.5-9.2-17.5-30.9-14.5-47.3c7.2-0.9,7.8-4.1,11.4-10.1C158.3,354.1,166.5,353.9,174.7,356.3z M141.5,367.8
		c-2.3,14.8-1.1,33.6,12.7,42.4c1.2,0.7,2.3,0.9,3.4,0c13.1-8.8,21.4-23.9,22.9-39.5c-7.4-0.7-7.7-6.2-9.2-12.3
		c-6.6-1.3-13.4-1.3-20.3,0.3C149.8,363.8,147.3,367.3,141.5,367.8z"/>
	<path class="st0" d="M159.7,417.7c2.1,0.1,4,0.3,6,0.4c2.3,20.6,6.9,40.6,19,58.4c-1.7,1.4-3.5,2.8-5.4,4.4
		C167.2,462.4,160.8,439.9,159.7,417.7z"/>
	<path class="st0" d="M124.8,433.3c1.2,25,21.7,46.6,42.5,58.7c-1.8,2.1-3.5,4.1-5.4,6.3c-15.5-9.8-47.6-46-37.7-65.1
		C124.4,433.2,124.6,433.2,124.8,433.3z"/>
	<path class="st0" d="M408.4,373.2c2.3-1.5,2.6-2,1.5-4.5c-0.8-1.8-1.9-3.4-2.8-5c2.9,0.1,3.1,0.1,4,2.8
		c3.4,10.9,8.1,21.5,10.1,32.7c0.6,6.3-7.2,11.6-11.1,15.8c-2.5,1.8-9.4-1.7-12.5-2.9c6.4-4.5,16.7-7.4,15.1-17.1
		c-0.1-1.1-0.2-2.1,0.8-3.1c1.3-2.3-1.4-10.6-1.8-13.7C411.3,376.2,408,375.5,408.4,373.2z"/>
	<path class="st0" d="M137.6,197.7c-15.6-8.5-24.3-11.5-42.2-7.4c-3,0.9-4.1-2.5-1.6-4C112,171.6,154.1,193.4,137.6,197.7z"/>
	<path class="st0" d="M133,328.9c2.5,1.1,6.1,1,7.3,3.8c3.3,6.5,5.4,13.9,11.5,18.5c0.2,0.1,0.3,0.4,0.5,0.9
		c-2.1,0.9-5.4,0.3-5.6,3.2c0.1,3.3-4.4,9.3-7,4.5c-2.2-4.8,1.5-9.9-3.8-13.7C126.8,340,130.2,337.7,133,328.9z M136.9,332.3
		c-4.8,3.8-0.6,13.6,5,12.1C137.8,341.5,135.9,337.8,136.9,332.3z"/>
	<path class="st0" d="M354.5,345c-1,3.3,0.3,6.2,1.8,9.1c6,11.3,8.3,23.7,10.9,36c1.2,4.9,3.8,9.1,7.9,12
		c6.4,4.4,31.3,19.8,37.7,13.7c0.5,12.1-34.3-7.8-38.3-11.6c-5-4-9.4-8.8-10.3-15.5c-2.4-12.6-4-25.7-10.9-36.8
		C351.8,349.5,349.1,344,354.5,345z"/>
	<path class="st0" d="M379.2,336.1c4.2-1.8,8.5-3.7,9.9-8.3c1.5-4,2.9-8.2,4.1-12.4c3.1,0.2,6,0.4,9,0.6c-0.7,7-3.9,14-7.7,19.9
		c-1.1,1.5-2.4,2.2-4.3,2c-3.7-0.5-7.4-0.9-11-1.3C379.3,336.5,379.3,336.3,379.2,336.1z"/>
	<path class="st0" d="M161.4,414.3c15-9.2,22.6-25.5,25.3-42.6c1.7,1.9,4.8,2.8,4.2,5.4c-3.2,15.1-10.9,30.3-25.3,37.4
		C164.3,415.3,163,415.6,161.4,414.3z"/>
	<path class="st0" d="M405.8,294.8c-3.6-0.2-6.6-0.4-9.8-0.6c0-6.2,0-12.4,0-19c3.7,0.3,7.1,1.2,10.9,1.8
		C406.5,282.9,406.2,288.7,405.8,294.8z"/>
	<path class="st0" d="M442.5,321.6c2.9,0.4,5.5,0.7,8.3,1.1c-0.5,4-1.8,7.9-2.9,11.9c-2,7.3-10.6,7.9-17.1,6.1c4-2.2,7.6-4,8.8-8.6
		C440.7,328.7,441.7,325.1,442.5,321.6z"/>
	<path class="st0" d="M390.1,408.5c12.7-6.9,15.5-7.2,14.6-22.5c2.2,0.3,3.8,1,4.5,2.8c1.7,4.3,2.8,10.4-0.8,14
		c-3.7,2.8-7.7,5.4-11.6,7.9C394.4,411.8,392.6,409.4,390.1,408.5z"/>
	<path class="st0" d="M374.5,344.5c7.4,1.1,36.1,6.8,38.1,14c-10.5-0.7-30.1-6.7-38.3-13.2C374.4,345,374.5,344.8,374.5,344.5z"/>
	<path class="st0" d="M454.9,283c-0.4,6.4-0.9,12.5-1.3,18.7c-2.9-0.2-5.5-0.3-8.4-0.5c0.3-6.2,0.7-12.3,1.1-18.8
		C449.1,282.6,451.7,282.7,454.9,283z"/>
	<path class="st0" d="M154.9,108c-1.4-3.3-2.9-6.9-4.5-10.8c5.5-0.2,10.6-0.7,15.4-3.4c1.3-0.7,2.3-0.7,2.9,0.7
		C164.1,98.9,159.6,103.4,154.9,108z"/>
	<path class="st0" d="M392.4,305.7c0.6-3.3-0.9-9.7,4.1-9.5c2.6,0,5.2,0.2,7.8,0.4c1.9,0.1,2.9,1.3,3.1,3c0.5,3.8,0.4,7.7-1,11.3
		c-1.4,4.4-6.8,3.2-10.3,3C391.3,313.8,392.5,309.1,392.4,305.7z M395.7,305c-0.3,2.7-2.9,6.6,0.7,7.8c5.7,2.1,8.6-1.2,8.4-6.8
		C401.9,305.7,399.1,305.4,395.7,305z M404.8,305c2.2-5.2-0.3-7.3-5-7.6c-4.8-0.9-5.2,2.9-4.2,6.6
		C398.8,304.3,401.8,304.7,404.8,305z"/>
	<path class="st0" d="M160.5,351.2c-2.3-5.1-3.6-10.3-3.7-16.3c2.1,0.2,4,0.3,5.7,0.4c1.4,5.4,2.7,10.6,4,15.8
		C164.8,351.2,162.8,351.2,160.5,351.2z"/>
	<path class="st0" d="M156.7,350c-7.4-2.6-9.5-11.1-13.4-17.1c0.1-0.2,0.3-0.3,0.4-0.5c3.1,0.7,6.3,1.3,9,1.9
		C154.1,339.6,155.3,344.7,156.7,350z"/>
	<path class="st0" d="M414,360.2c0.1,0.5,0.3,1.2,0.7,2.4c-12-1.7-23.2-6.6-34.9-9.6c-10-3.3-11.1-12.3-24.2-5.6
		c-0.1-1.6,0.7-2.2,1.9-2.6c5.2-1.7,10.7-1.4,15.3,1.8c5.2,5.1,12.1,7,18.8,9.1C399.2,357.9,405.9,360.4,414,360.2z"/>
	<path class="st0" d="M455.4,310.6c-0.8,3.4-0.4,10.3-5.7,10.1c-5.4,0.2-7.6-1-6.8-6.2c0.7-3.4-1.6-11.6,3.6-11.4
		C453.6,303.3,455.1,302.4,455.4,310.6z M445.5,311.9c-0.8,1.1-0.9,2.2-1.2,3.5c-0.5,3,0.1,3.9,3.2,4.2c4.5,0.9,5.8-3.1,5.4-6.9
		C450.5,312.4,448.1,311.8,445.5,311.9z M453.5,311.8c0.2-3,1-6.7-2.8-7.2c-5.3-1.4-6.9,1.2-5.3,6.2
		C447.8,311.1,450.4,311.4,453.5,311.8z"/>
	<path class="st0" d="M399.8,373.5c0.4,1.3,0.8,2.6,1.2,4.1c2.3,0.4,4.6,1,7,1.3c0.5,0.1,1.1-0.5,1.9-0.9c1.3,3.8,2.1,7.8,2.5,12.2
		c-1.3-2-2.4-3.8-3.6-5.6c3.6-3.5-3.9-6.4-6.2-4.8c-0.1,1,0,2.9,1.1,3.2c-0.5,2-0.9,3.8-1.4,5.5c-1.4-1.8-3.5-11-3.2-14.7
		C399.4,373.6,399.6,373.5,399.8,373.5z"/>
	<path class="st0" d="M395.9,364c1,2.1,1.4,4,3.9,4.5c1.3,0.3,2.6,0.6,3.9,0.7c2.2,0.3,2.2,0.2,3.9-2.1c0.5,1.2,1,2.2,1.6,3.5
		c-4.5,1.1-1.3,4.1-1.9,6.5c-5.4-0.8-4.7-0.9-6.4-5.8C398.5,367.9,395.2,370,395.9,364z"/>
	<path class="st0" d="M404.6,366.8c-6.1,0.5-6.5-1.2-7.4-5.9c2.2,0,4.2,0.7,6.2,1.4C404.4,362.7,404.8,364.4,404.6,366.8z"/>
	<path class="st0" d="M178.5,357.6c1.4,0.4,2.8,0.8,4.3,1.2c0.4,2.3,0.7,4.4,1,6.5C180.4,365.7,177.9,362.2,178.5,357.6z"/>
	<path class="st0" d="M352.4,135.5c1,3.3,1.2,7.3,0.3,10c-1.4-1.8-2.6-3.5-4-5.3C349.9,138.7,351.1,137.2,352.4,135.5z"/>
	<path class="st0" d="M365.9,241.5c-4.7,0-9.4,0-14.4,0c1.4-1.6,2.7-2.7,5-2.3c3.2,0.6,6.4,1,9.5,1.5
		C365.9,240.9,365.9,241.2,365.9,241.5z"/>
	<path class="st0" d="M91,134c-2.3,0.5-4,0.6-5.9-0.5c0.1-1,0.3-2.1,0.4-3.3C87.4,131.5,89,132.6,91,134z"/>
	<path class="st0" d="M84.1,139.1c1.4,0.6,2.6,1,4,1.6c-1.4,1.3-2.6,1.6-4.3,1C83.9,140.9,84,140.2,84.1,139.1z"/>
	<path class="st0" d="M186.1,359c-0.3-1.3-0.5-2.2-0.8-3.3c1-0.1,2-0.3,3.6-0.5C187.8,356.7,187.1,357.7,186.1,359z"/>
	<path class="st0" d="M404.7,380.6c1.1,0.4,2.1,0.7,3.2,1.1c-0.1,0.2-0.1,0.4-0.2,0.7c-1.1-0.3-2.2-0.7-3.3-1
		C404.4,381.1,404.5,380.9,404.7,380.6z"/>
	<path class="st0" d="M340.6,247.7c0.4-0.2,0.8-0.5,1.1-0.7c0.1,0.2,0.2,0.3,0.3,0.5c-0.4,0.2-0.8,0.5-1.2,0.7
		C340.8,248,340.7,247.9,340.6,247.7z"/>
	<path class="st0" d="M205.2,259.9c-2.6,6.7-7.4,13.5-13.9,17.6c-16.8,9.7-36.1,20.6-56.1,16.1c0.8-3.8,8.8-12.3,14.8-15.7
		c12.4,7,10.4-3.2,17.7-5.3c8.8-2.5,17-6.5,24.6-11.4C196.5,260.2,200.9,259.7,205.2,259.9z"/>
	<path class="st0" d="M163.7,270.9c-1.6,6.6-8,10.1-13,4.3c-1.2-1.7-2.6-1.8-4.4-1.6c-11.4,1.5-22.9,0.8-34.1-1.7
		c-3.3-0.6-4.5-2.9-5.1-6.2c35.8,10.7,67.3,1.8,96-20.4c0.1,0.2,0.3,0.4,0.4,0.5C195.3,260,178.9,266.6,163.7,270.9z"/>
	<path class="st0" d="M187.5,282.9c-15.3,15.3-46.9,25.9-65.5,11.2c0-5.9,13.7-16.5,18.9-13.1c-2.9,3.9-5.7,7.7-8.7,11.7
		c-1-0.6-2.1-1.2-3.7-2c2.1,4.4,6.6,4.4,10.6,5.5c17.2,2.9,33.7-4.9,48.1-13.6C187.3,282.6,187.4,282.8,187.5,282.9z"/>
	<path class="st0" d="M146.3,276.6c-1.1,1.2-2.3,2-3.6,3.2c-8.1-5-19.6,4.3-22.3,11.9c-3.9-2.7-6.2-10.9-4.6-16.8
		C125.7,276.7,135.9,277.3,146.3,276.6z"/>
	<path class="st0" d="M206.7,258.1c-3.4,0-6.7,0-10.3,0c4-4.4,7.8-8.4,10-14c0.3-0.7,0.7-1.4,1.2-1.8c2.8-2.2,5.7-4.3,8.6-6.5
		C216.4,238.9,210.6,252.3,206.7,258.1z"/>
	<path class="st0" d="M239.7,194.5c16.1-28.5-21.5-55.8-43.5-31.7c-9.7,10.8-8.8,27.7,2,37.7c-1.5,0.1-2.3-0.3-3.1-0.9
		c-16-12.8-17.8-30.9-10.9-44.1c11-23.4,45.5-19.9,58.4,0.1c8.1,11.1,7.7,24.6,1.8,36.6C243.3,194.7,243.2,194.7,239.7,194.5z"/>
	<path class="st0" d="M191.5,180.6c2.6-41.2,63.6-26.7,47.3,11.4c-1.1,2.1-2.4,3.1-4.8,3.6c-7.4,0.9-28.1,9.3-33.2,4.4
		C194.9,195.3,191.6,188.2,191.5,180.6z M201.7,171c-10.6,15.5,9.4,34.8,24.8,23.9c14.8-9.2,6.2-34.5-10.9-31.8
		C221.3,174.1,208.3,181.4,201.7,171z"/>
	<path class="st0" d="M178,372.4c0,13.2-13.4,33-22.1,36.2c-11.1-5.8-10.8-25.3-10-36.2c10-2.8,6.9-9.2,11.3-9.8
		c4.2-0.5,8.4-0.7,12.8,0.1C170.8,367.4,173.1,371.1,178,372.4z M161.8,362.4c-3.7,5.9-7.1,11.3-10.6,16.7c0.8,0.2,1.4,0.4,2.3,0.7
		c-2.3,2.7-4.4,5.2-6.7,7.9c1.5,0.4,2.5,0.6,3.6,0.9c-0.2,0.4-0.3,0.7-0.5,0.9c-2.4,2.1-2.3,4.4-1,7c1.6,3.1,2.8,6.4,5.4,8.8
		c3.3,4.4,10.1-5.3,12-7.9c2.3-3.3,2.3-3.3,0.7-6.8c0.8-0.3,1.6-0.5,2.8-0.9c-1.9-2.9-4.1-5.4-5.1-8.8c1,0,1.8,0,3,0
		C164.7,374.7,163.1,369.3,161.8,362.4z"/>
	<path class="st0" d="M169.2,360.6c-4.6-0.1-9.1,0-13.6,0.6c-4.7,1.3-0.9,8.1-11,9.5c-1.7,6.3-0.7,13.2-0.4,19.7
		c-1.6-4.7-2-14.9-0.8-20.5c10.1-2.9,6.6-9.5,11.7-9.9c4.7,0.2,9.7-0.8,14.2,0.4C169.2,360.5,169.2,360.5,169.2,360.6z"/>
	<path class="st0" d="M397,306.9c2.2,0.2,4,0.4,5.8,0.6c-0.2,4.2-1.8,5-6.5,3.2C396.4,309.5,396.7,308.4,397,306.9z"/>
	<path class="st0" d="M397.6,299c1.3,0.1,2.6,0.1,3.8,0.3c2.3,0.4,2.5,0.7,2.2,3.5c-2,0.4-4-0.2-6-0.3
		C396.5,301.4,397,300.3,397.6,299z"/>
	<path class="st0" d="M446.6,313.6c1.6,0.2,2.9,0.3,4.3,0.5c1.2,3.6-2.3,5-5.1,3.1C446.1,316.1,446.3,315,446.6,313.6z"/>
	<path class="st0" d="M451.9,309.8c-1.9-0.2-3.5-0.4-5.4-0.6c0.1-1.2,0.2-2.2,0.3-3.1C451.3,305.9,451.8,306.3,451.9,309.8z"/>
	<path class="st0" d="M164.3,389.6c0.9,1.5,1.7,2.8,2.7,4.2c-1.4,2.3-8.7,13.7-11.7,10.1c-1.9-2.2-3.4-4.7-4.6-7.4
		c-1.8-4.1-1.8-4.1,1.7-7.5c0.6,0.9,1.3,1.7,2.1,2.8c1.3-0.9,2.5-1.8,3.7-2.7c1.2,1.2,2.3,2.4,3.7,3.9
		C162.7,391.8,163.4,390.9,164.3,389.6z M154.4,396.8c0.2,2.1,0.9,3.9,2.7,5.1c2.6-2,3.2-2.8,3.4-4.7c-1.1,0.9-2.1,1.8-3.3,2.9
		C156.1,398.9,155.3,397.8,154.4,396.8z"/>
	<path class="st0" d="M158.6,386.8c-1.2,1-2.3,1.9-3.7,3c-0.6-1.2-1.2-2.2-1.8-3.3c-0.9,0.1-1.8,0.1-3.3,0.2
		c2.2-2.7,4.1-5.1,6.2-7.6c0.7,1.2,1.3,2.2,2.1,3.3c1.4-1,2.7-1.8,4.1-2.8c1.4,2.8,2.7,5.4,4.2,8.3c-0.9-0.2-1.6-0.3-2.5-0.4
		c-0.6,1-1.3,1.9-2.2,3.3C160.6,389.3,159.7,388.1,158.6,386.8z"/>
	<path class="st0" d="M161,366.7c1.2,4.1,2.4,7.8,3.6,11.7c-0.9-0.4-1.5-0.7-2.2-1c-1.2,0.9-2.3,1.8-3.6,2.8c-0.6-1.1-1.1-2-1.7-3
		c-0.8,0-1.7,0-2.9,0C156.5,373.6,158.7,370.3,161,366.7z"/>
</g>
</svg>
