<?xml version="1.0" encoding="utf-8"?>
<!-- Generator: Adobe Illustrator 26.0.0, SVG Export Plug-In . SVG Version: 6.00 Build 0)  -->
<svg version="1.1" id="Capa_1" xmlns="http://www.w3.org/2000/svg" xmlns:xlink="http://www.w3.org/1999/xlink" x="0px" y="0px"
	 viewBox="0 0 595.3 860.3" style="enable-background:new 0 0 595.3 860.3;" xml:space="preserve">
<style type="text/css">
	.st0{fill:#FFFFFF;}
</style>
<g>
	<path d="M86.6,362.6c-4.6-8.3-8.8-16.7-13.7-24.6c-6.8-11.1-11-22.7-8.8-36c0.1-0.7,0-1.5-0.3-2.1c-3.6-7.9-3.8-16.1-2.4-24.4
		c0.6-3.3-0.2-5.3-3.1-6.9c-11-6.3-21.6-13.1-30.8-21.8c-13.1-12.4-23.4-26.5-26.7-44.8c-3.2-17.8,2.6-32.7,14.6-45.6
		c11.3-12.1,25.5-20.4,39.1-29.5c20.1-13.3,39.5-27.5,56.1-45.2c5.7-6.1,11.1-12.5,13.2-20.8c1.8-7.3,1-14.3-1.9-21.2
		c-0.4-0.9-0.2-2-0.3-3.1c1.1,0,2.4-0.2,3.3,0.2c11,4.7,19.3,18.4,18.4,30.3c-0.1,1-0.4,2.1-0.7,3.8c2.3-1.6,4.2-2.9,6-4.3
		c12.4-9.3,22.8-20,27.2-35.4c2.3-8.1,2.8-16.4,2-24.7c-0.1-0.8-0.4-1.7-0.2-2.5c0.2-1.3,0.4-3.3,1.3-3.8c0.9-0.5,2.8,0.1,3.9,0.8
		c11.1,8,17.2,20.5,12.5,35.1c-0.4,1.2-0.8,2.7-0.3,3.7c5.4,12.3,1.8,23.3-4.9,33.8c-0.6,1-1.4,1.9-2.2,3
		c5.2-2.4,12.7-12.2,15.6-20.3c3-8.6,3-17.2,0.5-26c5.8,7.7,7.2,16.7,7.6,26c0.3,0.1,0.6,0.1,1,0.2c1.2-5.5,2.5-11,3.8-16.7
		c0.3,0.2,0.7,0.4,0.9,0.8c9.2,17.9,10,31.9-4.7,46.4c-5.9,5.8-12.6,10.8-18.9,16.1c-1.4,1.1-2.7,2.2-4,3.7c10.1-3,19.8-2.6,28.9,3
		c-26.9,5.2-42.9,25.2-49.7,42c11-8,23.8-9.9,35.6-14.5c10.6-4.1,19.9-9.7,24.9-20.8c3.6,10.4-2.5,20.4-19.4,31.3
		c26.4-2,51.4-0.1,76,8.6c1.5-5.9,2.9-11.8,4.7-17.7c4.5-15.1,11.7-28.5,24.2-38.5c10.6-8.5,23.1-12,36.4-11.8
		c15.2,0.2,30.3,1.2,45.5,1.9c26.2,1.2,51.7-2.8,76.1-12.4c6.2-2.4,11.7-6.6,17.6-9.8c1.2-0.7,2.8-0.8,4.1-1.1
		c-0.3,1.4-0.4,3.1-1.1,4.2c-2.7,4.4-5.6,8.6-8.8,13.4c18.9-10.3,38.9-17.6,54-33c7.2-7.3,13.4-15.4,18.3-24.5
		c0.9-1.7,2.8-2.8,4.3-4.2c0.7,1.9,1.9,3.8,1.9,5.8c0.4,7.4-1.4,14.6-4,21.5c-0.4,1-0.7,2-0.6,3.2c1.3-1.6,2.4-3.3,3.8-4.7
		c0.8-0.8,2.5-1.7,3.3-1.4c0.9,0.4,1.7,2.2,1.6,3.2c-1.3,7.3-2,14.9-4.4,21.8c-4.7,13.3-14.1,22.8-26.7,29.1c-1,0.5-1.9,1-2.9,1.5
		c-0.1,0-0.2,0.2-0.2,0.2c3.7,0.7,12.7-1.3,18.5-3.9c9.7-4.3,16.3-12.1,23.4-19.5c5.1-5.3,10.7-10,16.2-14.8
		c0.9-0.8,2.7-0.7,4.1-0.9c-0.4,1.4-0.4,3-1.2,4.2c-1.5,2.4-3.4,4.7-4.7,6.5c1.3,1.8,3,3.1,3.1,4.4c0.7,11.4,0.2,22.6-4.2,33.4
		c-4,9.6-10.9,16.6-19.5,22.1c-0.6,0.4-1.2,0.7-1.8,1.1c-0.2,0.1-0.2,0.4-0.1,0.2c6.1,1.9,12.3,3.5,18.3,5.8
		c3.1,1.2,5.9,3.3,8.4,5.5c3.1,2.6,2.5,5-1.4,6.2c-3.6,1.1-7.3,1.8-10.9,2.8c-1.7,0.5-3.2,1.4-4.8,2.1c-8.5,3.5-12.5,10.8-16.5,18.5
		c-10.1,19-23.6,35.1-41.8,47c-15,9.7-31.8,14.8-49.3,17.7c-19.5,3.3-39.1,4-58.4-1c-13.1-3.4-25.6-8.4-37.6-14.7
		c-3.2-1.7-4.4-1.8-7.9-0.4c2.7,9,6.2,17.7,8.1,26.9c5.8,27.6,5.7,55.2-1.5,82.7c-0.3,1.2-0.4,2.6-0.2,3.9c0.9,6.8,0.9,13.5-1,20
		c-3.3,11.7-11.9,17.6-23.1,20.6c-2.3,0.6-4.7,1-7.3,1.6c-0.2,13.8-9.6,22.5-18,31.7c-2.5,2.7-5.2,5.2-7.8,7.8
		c0.2,0.3,0.3,0.6,0.5,0.9c3.4-1,6.8-1.9,10.1-2.9c16.3-4.8,32.7-9.1,49.7-10.8c35.4-3.6,60.9,12,79.2,41.1
		c9.2,14.6,14.8,30.8,17,48c0.1,0.7,0.3,1.4,0.6,2.1c9.5,21.5,8.3,43,0.2,64.6c-0.6,1.6-1.2,3.1-1.6,4.8c-1.2,5.7-6,8.3-10.7,6.5
		c-4.4,3.9-8.6,7.6-13.1,11.7c4.8,8.2,9.9,16.7,14.7,25.5c5.5,10,10.8,20.1,15.9,30.3c1.5,3,2.4,6.4,2.5,9.7c0.2,4.6,2.4,8,5.1,11.5
		c22.6,29.2,38.8,61.4,45.1,98.1c3.9,23.1,3.5,46.1-1.7,68.9c-0.4,1.9-2.1,3.5-3.1,5.2c-0.8-1.8-2.2-3.6-2.4-5.5
		c-1.3-14.7-4.7-29-9.8-42.9c-2.8,2.9-3.8,2.8-5.2-0.8c-3.3-8-5.6-16.5-9.5-24.2c-5.1-10.3-11.3-20.1-17.1-30
		c-0.3-0.6-0.9-1-1.8-1.9c-2.2,9.6-4.2,18.7-6.3,27.8c-3,13.1-5.9,26.3-9.1,39.4c-0.8,3.3-2.5,6.5-4.2,9.5c-1.4,2.5-3.7,3.9-6.6,1.8
		c-5.7,6.6-7.1,6.9-10.7,2.2c-6.2,7-13.9,11-23.7,9.9c0.4,3.3,1,6.2,1.1,9.2c0.4,10.5-2.2,19.9-11.3,26.3c-3.5,2.4-7.3,3.4-11.6,1.9
		c-0.8-0.3-2,0.2-2.9,0.6c-7.6,4-15.5,0.4-17.7-7.9c-0.2-0.6-0.5-1.3-1-1.6c-8.5-6-11.3-12.9-8.6-23c1.1-4,2.7-8.1,5-11.5
		c5.2-7.8,9-16.1,11.4-25.2c2-7.6,6.2-13.5,13.5-17.5c2.2-1.2,4.4-6.7,3.4-8.8c-3-7-7.5-13.3-11.5-19.9c-0.3-0.4-0.9-0.7-2-1.5
		c-0.6,4.2-1.1,7.8-1.7,11.5c-1.4,8.2-2.3,16.5-4.4,24.5c-2.1,7.9-7.3,13.7-14.7,17.4c-3.6,1.8-7.2,2.4-11.1,0.9
		c-1.6-0.6-3.7-0.2-5.5,0.1c-4.8,0.8-8.4-1-11.5-4.5c-0.7-0.8-1.4-1.7-2.3-2c-7.7-2.2-10.8-6.7-9.9-14.6c0.7-5.7,3.3-10.5,7.1-14.7
		c0.7-0.8,1.4-1.5,2.7-3c-14.7,1-28.1-0.4-39.8-7.3c-2,1.2-3.5,2-4.9,2.9c-0.9-1.6-2.4-3.1-2.7-4.8c-1-5.6-2.1-11.3-2.2-17
		c-0.1-4.1,1.3-8.2,2.1-12.5c-3.6-2.1-4.2-4.6-1.2-8.5c5.3-6.8,12.6-11.1,19.7-15.6c10.6-6.7,21.2-13.3,31.8-19.9
		c0.5-0.3,0.9-0.7,1.9-1.6c-6.7-2.8-12.9-5.7-19.3-8c-19.4-7.2-38.9-14.2-58.4-21.1c-0.9-0.3-2.7,0.5-3.4,1.3
		c-3.2,3.4-6.3,7-9.3,10.6c-3.3,3.9-7.6,5.7-12.7,5.7c-13.5,0-26.9,0-40.6,0c-0.4,1.4-0.7,2.5-1,3.6c-0.7,3.1-2.7,5.2-5.8,5.8
		c-6.5,1.2-13,2.3-19.6,3.2c-4.5,0.7-7.2-1.8-8.8-6.1c-4.1,2.2-7.8,3.9-10.5,7.8c-6.5,9.5-15,16.6-26.6,19.1
		c-5.1,1.1-10.1,0.9-14.6-2.3c-0.7-0.5-1.8-0.7-2.6-0.5c-7.1,2-12.6-0.9-18-5.1c-1.1-0.9-2.8-1.1-4.2-1.5c-1.4-0.4-2.9-0.4-4.2-1
		c-10.3-4.5-14-17.2-7-26c6.1-7.7,13-14.9,19.6-22.2c3.5-3.8,7.3-7.3,10.9-11c7-7.2,15.6-11.1,25.5-12.2c1.8-0.2,3.1-0.6,4.3-2.5
		c0.9-1.6,3-2.9,4.8-3.4c10.2-3,20.6-4.7,31.3-4.1c1,0.1,2.1-0.3,2.9-0.8c4.1-2.4,8.2-4.9,12.3-7.5c0.7-0.5,1.7-1.1,1.9-1.8
		c1-3,1.8-6.2,2.7-9.3c-0.6,0-1.3-0.1-2,0c-6.3,0.7-6.6,0.8-9.1-4.8c-1.7-3.9-3.4-8.3-3.2-12.3c0.4-8.7,1.7-17.5,3.3-26.1
		c0.8-4.6,3.2-8.3,9.1-8.6c4.5-0.2,6.9-4,6.9-8.5c0-2.9,0.2-5.8,1.1-8.5c0.7-2.3,0.7-3.9-1-5.5c-5.1-4.4-9.8-9.3-15.3-13
		c-5-3.3-7.4-6.7-6.2-12.8c0.9-4.8,1.4-9.6,1.6-14.5c0.1-1.9-0.8-4.2-2-5.7c-12-14.2-27.1-24.5-43.9-32.2
		c-4.8-2.2-10.5-2.4-15.6-4.1c-15.3-5.1-28.4-13.4-36.7-27.6c-3.5-6-6.1-12.7-8.4-19.4c-2.1-6.2,0-10.1,6.1-12.8
		C77.8,365.7,82,364.3,86.6,362.6z"/>
	<path class="st0" d="M486.8,75.3c-20.2,29.8-48.9,38.4-83.2,32.7c12.3,2.7,24.5,4.1,36.9,1.7c13.4-2.6,24.9-8.6,35.9-16.9
		c7.4-5.6,16.3-9.2,24.9-13c19.1-8.5,36.1-19.8,48.6-36.9c3.1-4.1,5.7-8.6,9.2-12.9c-0.5,3.4-0.7,6.9-1.6,10.2
		c-2.3,9.2-6,17.8-12.7,24.8c-0.7,0.7-0.6,2.2-0.8,3.4c1.2-0.2,2.7-0.1,3.5-0.7c5-4.3,9.8-8.7,15-13.4c-0.4,2.4-0.6,4.8-1.2,7.2
		c-3.8,16.6-13.4,28.7-27.7,37.6c-5.7,3.5-11.6,5.9-18.3,7.1c-12.9,2.2-24.4,8.1-35.6,14.6c-13.2,7.8-26.4,15.4-41.7,18.6
		c-4.7,1-9.3,1.9-15,3c19.2,0.3,35.6-5,51.2-14c9.3-5.4,18.9-10.7,28.9-14.6c8.1-3.2,16.9-5.3,25.5-6c19.1-1.6,34-10.1,46-24.8
		c3.8-4.6,8.4-8.6,13.1-12.6c-2.8,5.5-5.9,10.8-5.8,17c0.4,0.2,0.9,0.4,1.3,0.6c1.6-2.8,3.3-5.5,4.9-8.3c0.2,0,0.5,0.1,0.7,0.1
		c0,3.1,0.1,6.3,0,9.4c-0.5,11.3-2.4,22.3-9.9,31.5c-7.8,9.5-18.1,14.8-29.9,17.7c-9.9,2.4-19.9,4.8-29.4,8.4
		c-10.1,3.8-18,11-23.9,20.2c-0.3,0.5-0.6,1.1-0.8,1.6c0,0.1,0,0.2,0.1,0.7c2.1-1.9,4.1-3.7,6-5.5c11.2-10.6,24.6-16.6,39.6-19.6
		c4.8-1,9.5-2.7,14.4-3.6c13.3-2.5,25,1.5,35.9,9.4c-5.9,0.8-10.9,3.9-17.1,3.9c-12.7,0.1-25.3,2.3-36.6,8.4
		c-9.8,5.3-19,11.7-28.1,18.2c19-12,38-24,62.5-23.6c-1.7,1.1-2.9,2-4.2,2.7c-13.7,7.8-25.3,18.5-36.3,29.5
		c-9.4,9.4-20.2,15.8-32.8,19.4c-1.5,0.4-2.9,1-4.2,1.8c10.7,0.3,20.6-2.7,29.5-8.3c8.8-5.5,17.2-11.7,25.4-17.3
		c-6,8-13,15.9-20.9,23c-17.6,15.8-38.5,23.7-61.4,27.4c-15.8,2.5-31.6,3.7-47.5,1.2c-19.1-3-36.4-10.7-53.1-20
		c-4.4-2.4-8.9-4.6-13.3-6.9c-0.3,0.5-0.6,0.9-0.9,1.4c4,3.4,8,6.9,12.4,10.7c-20.2,1.6-28.3,15.6-33.2,33.4
		c-4.3-2.6-8.2-4.7-11.9-7c-11.2-7.1-21.6-15.3-30.9-24.8c-3.7-3.8-6-7.2-4.9-13.5c2-11.5,2-23.2,3.2-34.9
		c1.8-17.7,5.3-35,14.3-50.7c11.2-19.7,28.1-30,50.8-29.8c15.6,0.1,31.3,1.1,46.9,1.6c16.2,0.6,32.2-1.2,48-5
		C460.7,87.6,474.6,83.5,486.8,75.3z M303.1,217.7c1.4-11.6,2.2-24.5,4.6-37.1c2.5-13.4,11.1-23.4,21.6-31.8
		C306.9,156,292.6,195.6,303.1,217.7z M476.1,190.8c-23.1,6.8-46.4,11.6-70.6,5C429.9,205.9,453.1,200.4,476.1,190.8z"/>
	<path class="st0" d="M61.7,269.1c-20.4-13.4-39.9-26.8-51.5-48.4c-9.4-17.3-11.1-35,0.2-52.4c6.8-10.5,16.6-17.9,26.8-24.9
		c16.1-11,32.5-21.5,48.3-32.9c12.9-9.3,24.8-19.9,34.4-32.7c8.7-11.4,11.2-23.8,5.2-37.3c3.9,1.3,9.3,6.7,11.8,12.3
		c1.5,3.4,2.7,7,3.3,10.6c0.9,5.2,0.3,9.7-5.3,12.8c-4.9,2.7-9,6.7-13.5,10.1c0.2,0.3,0.4,0.6,0.6,1c3.3-1.8,6.7-3.4,9.9-5.4
		c12.4-7.5,24.6-15.2,34.4-26.1c12.1-13.5,16.5-29.3,15-47.1c-0.1-1.2-0.3-2.4-0.4-3.6c0-0.2,0.1-0.5,0.2-1.1
		c6.8,5,11.4,11.4,11.3,19.6c-0.1,7.5-2,15.1-3.1,21.9c0.6-0.7,1.7-2.3,3.3-4.3c1.5,11-0.2,20.7-5.8,29.6c-4.6,7.3-11,12.6-18.7,16
		c-9.7,4.3-19.6,7.8-29.5,11.6c-12.5,4.8-24.4,10.5-33.2,20.9c-3.6,4.3-6.2,9.1-6.9,14.8c0.3,0,0.6,0,0.7-0.1
		c7.4-15.3,20.4-24.1,35.6-29.9c11.7-4.5,23.7-8,35.4-12.6c11.9-4.7,22.6-11.5,30.1-22.2c2.7-3.9,4.7-8.3,7.6-12.4
		c-0.9,6.1-1.8,12.1-2.6,17.9c3.1-3.1,10.1-19.2,11.4-26.6c5.7,10.3,4.3,23.8-4.5,33c-6.7,7-14.4,13.1-22,19.2
		c-12.4,10-22.1,22-27.8,37.1c2.5-3.4,5-6.8,7.4-10.2c9.5-13.7,22.5-20.2,39.2-18.8c0.5,0,0.9,0.2,1.4,0.3
		c-24.3,6.7-40,21.6-45.3,46.5c9.3-6.1,20-8.5,30.3-11.8c9.7-3.1,19.2-6.4,26.8-13.6c1.1-1,2-2.3,3.2-3.2
		c-1.9,7.3-6.7,12.1-12.9,15.6c-6.9,4-14.1,7-22,8.7c-30.4,6.6-57.6,19.5-80.4,40.9c-0.5,0.5-1.1,1-1.6,1.4
		c-0.2,0.1-0.4,0.1-0.7,0.2c-6.3-14.5-5.2-28.3,4.1-41.3c4.1-5.7,8.6-11.2,13.3-17.3c-22.1,15.4-32.7,39.3-19.2,61
		C85.6,216.6,68.3,239.3,61.7,269.1z M50.5,240.6c-9.8-12.3-16.8-25.8-17.4-41.9c-0.6-16.5,7.1-29.6,17.7-41.4
		C22,174.6,21.8,220.9,50.5,240.6z"/>
	<path class="st0" d="M294.7,407.8c-3.5,7.6-5.2,17.6-12.4,25.7c-1-2.1-1.8-3.5-2.6-5.2c-6.5,10.1-11.6,21.2-20.6,30.5
		c0-1.8,0-2.8,0-3.9c-0.4,0.1-0.6,0-0.7,0.1c-2.8,4.3-5.9,8.5-8.1,13c-1.1,2.3-2.2,3.6-4.7,4.1c-7.1,1.2-7.5,2-9.2,9
		c-0.9,3.6,0.8,8.2-3.6,10.6c-8.3,4.5-16.7,7.6-26,2.5c-8.1-4.5-14.2-11.1-20.1-17.9c-10.4-12-20.3-24.5-33.7-33.5
		c-6-4-12.3-7.5-18.4-11.9c3,0.7,6.5,0.7,9,2.3c5.1,3,10.3,5.1,16.3,5c1.2,0,2.8,0.9,3.6,1.8c4.8,5.5,9.4,11.2,14.1,16.9
		c1.2,1.5,2.3,3.1,3.6,4.5c10.6,12.5,22.2,14.6,36.6,6.6c14.1-7.8,24.5-19.3,32.1-33.4c9.1-16.7,16.9-34.1,21.3-52.7
		c0.7-2.9,1.9-5.6,3.1-8.8c2.6,1.4,4.6,2.5,6.7,3.7c-0.9-6.4-14.6-9.3-19.7-4.5c0.8,0.2,1.5,0.4,3.2,0.8
		c-6.3,5.1-11.7,10.2-17.7,14.5c-21.8,15.6-44.9,29-70.7,36.9c-20.8,6.4-41.9,7.8-63,1.1c-15.8-5-28.5-14.4-37.3-28.6
		c-0.4-0.6-0.6-1.2-1.3-2.6c3.1,2.3,5.4,4.1,7.9,5.8c2.6,1.7,5.3,3.3,8.1,4.7c10.2,5.1,16.1,4.6,24.2-3.4
		c5.4-5.3,10.3-11.1,14.5-17.4c2.4-3.6,3.2-8.4,4.1-12.8c0.4-2.3,1.6-2.5,3.2-2.9c14.7-3.8,29.3-0.9,43.9,0.9
		c2.3,0.3,4.6,0.6,6.8,0.6c1.2,0,2.4-0.6,3.6-1c-0.6-1.1-1.1-2.1-1.7-3.2c-0.2-0.4-0.6-0.7-1.3-1.4c8.2,0,15.8,0.4,23.4-0.1
		c12.1-0.8,23.5-4.8,34.9-8.7c14.4-5,29.1-6.4,44.2-4.4c1.2,0.2,2.8,1.4,3.3,2.5c3,6.5,7.3,11.8,12.7,16.5c1.1,1,2,3,2,4.4
		c-0.5,9.7-2.6,19.1-6.2,28.1c-0.7,1.8-1.7,3.5-3,4.9C298.3,407.9,296.7,407.6,294.7,407.8z M149.2,395.1c-1.4-1-2.4-2.2-3.1-2.1
		c-0.9,0.2-1.6,1.4-2.4,2.2c0.8,0.7,1.5,2,2.3,2.1C146.8,397.4,147.7,396.2,149.2,395.1z M162.5,383.2c-1.4-0.8-2.2-1.7-3-1.7
		c-0.6,0-1.3,1.1-1.9,1.7c0.8,0.7,1.5,1.7,2.5,2C160.5,385.3,161.3,384.2,162.5,383.2z"/>
	<path class="st0" d="M477.1,670.8c2.4,8.4,3.6,17.1,2.5,25.7c-1.4,12-3.3,24.1-5.8,36c-4.3,21-9,41.9-13.8,62.8
		c-0.8,3.7-2.7,7.2-4.3,10.6c-0.3,0.7-1.7,1-2.6,1.4c-0.2-1-0.5-1.9-0.4-2.9c0.2-2,0.7-3.9,0.3-6.1c-1.1,2.6-2.2,5.2-3.4,7.8
		c-0.7,1.5-1.6,3.1-2.8,4.2c-0.7,0.7-2.2,0.7-3.3,1c-0.1-1.2-0.3-2.5-0.3-3.7c0-0.5,0.5-1,0.2-1.9c-3,2.3-5.9,4.7-8.9,7
		c-8.2,6.4-17.1,6.4-26.2,2.3c-8.8-4-12.2-11.5-12.6-20.7c-0.4-8.5,1.8-16.5,4.3-24.4c1.8-5.8,3.6-11.7,4.5-17.8
		c-1.2,2.7-2.5,5.4-4,8.7c-7.3-20.2-21.2-31.2-42.1-33.2c4.5,1.6,9,3.2,14.5,5.2c-6,3.4-11.1,6.2-16.2,9.1c0,0.2,0,0.3,0.1,0.5
		c2.2-0.5,4.4-1,7.2-1.6c-5.1,5.2-11.3,6.2-17.2,7.4c2.1,1.6,4.1,3.2,6.2,4.7c-0.3,0.5-0.4,0.9-0.5,0.9c-12.9,0-25.7,0.4-38.5-0.4
		c-5.7-0.4-11.2-3.2-16.8-5.2c-2.7-0.9-5.3-2.3-8.1,0.9c-0.2-2.7-0.3-5.4-0.6-8.1c-0.3-2.7,0.5-5.2-1.3-8.1c-1.4-2.2,0-6.6,1.1-9.7
		c1.4-4.2,3.6-8,5-12.3c-1.1,1.3-2,2.8-3.3,3.9c-0.7,0.6-1.9,0.8-2.9,1.1c0-1.1-0.4-2.5,0.2-3.2c1.8-2.2,3.7-4.6,6.1-6.1
		c10.2-6.5,20.8-12.6,30.9-19.2c5.8-3.8,11.2-8.2,17.4-12.8c0.6,0.7,1.9,1.9,2.5,3.3c11.9,26.3,32.2,44.5,63.2,44.8
		c13.4,0.2,26.5-1.3,38.3-8.3c15.5-9.3,24.7-23.5,30.4-40.3C476.5,672.9,476.8,671.8,477.1,670.8z"/>
	<path class="st0" d="M204,229.4c0.7-9.1,2.9-17.3,6.5-25.1c11-24.2,29.5-39.6,54.8-47.2c0.9-0.3,1.9-0.5,2.8-0.4
		c5.5,0.8,10.9,1.7,16.6,2.5c-0.8,7.2-1.8,14.5-2.5,21.9c-0.6,6.4-0.8,12.7-1.3,19.1c-0.2,3.1,0.1,6.2-1.7,9.3c-1,1.9,0,6,1.5,8
		c4.1,5.4,8.6,10.7,13.7,15.3c11.3,10.3,23.9,19.1,37.8,25.7c2.5,1.2,5.2,2.1,7.9,2.5c4.1,0.6,6.4-2.2,4.6-6
		c-1.6-3.4-4.1-6.4-6.3-9.9c4.7-9.3,11.2-17,22.5-19.6c2.9,15.6,6.7,31,8.4,46.5c2.1,19.2,1.7,38.5-2.3,57.6
		c-2.7,12.7-9,22.9-22,27.3c-13.1,4.4-32.5,0.2-36-20.3c-1.2-6.7-1.2-13.7-1.1-20.5c0.1-12.7-0.7-25.3-3.9-37.6
		c-5.8-22.1-20.5-35.6-41.3-43.4c-17.6-6.6-35.9-7.5-54.5-6.1C206.9,229.2,205.7,229.2,204,229.4z M326.2,330.4
		c0,6.3,5,11.4,11.1,11.4c5.8,0,10.5-5,10.6-11c0-6.1-5.2-11.6-11-11.7C331,319,326.2,324.1,326.2,330.4z"/>
	<path class="st0" d="M291.3,349.5c-0.8-0.1-2,0-3.1-0.2c-13.4-2.6-26.3-0.7-39.2,3.1c-11.6,3.4-23.3,7.2-35.2,9.3
		c-8.4,1.5-17.2,0.5-25.9,0.6c-1.5,0-3,0-4.4,0c-0.1,0.3-0.2,0.7-0.4,1c1.4,1.3,2.8,2.6,5.1,4.7c-6.3-0.7-11.5-1.2-16.8-1.9
		c-12.2-1.6-24.4-2.4-36.6,0.6c-0.8,0.2-2.1-0.2-2.8-0.7c-2.9-2.3-5.7-4.9-8.5-7.3c18.6-4.1,38-5.4,57.6-4.7c0-0.4,0-0.8,0-1.2
		c-12.4,0-24.8,0-37.5,0c0.2-3.9,0.2-7.4,0.5-10.8c1.5-15.7-3.6-29.4-12.6-41.9c-3.3-4.6-6.3-9.4-9.4-14.1c-4-6-9.6-9.3-17.2-9.5
		c2.3-1.4,4.6-2.8,6.9-4.2c25.4-14.9,53.2-22.1,82.2-25.4c16.4-1.9,32.9-3,49.3-0.2c22.8,3.9,37,17.3,41.9,39.7
		c2.2,10.2,2.9,20.7,3.9,31.1C289.9,328,290.5,338.5,291.3,349.5z M276.9,325.2L276.9,325.2c3.6,1.7,5.3-1.1,5.4-3.5
		c0.3-6.1,0.5-12.3-0.8-18.2c-1.5-6.8-4.6-13.2-7-19.7c3.6-0.6,4.8-2.6,2.8-6.4c-0.8-1.6-1.9-3.1-3.1-4.4
		c-6.8-6.8-14.8-11.6-24.2-13.9c-0.9-0.2-1.9-0.5-2.5-1.1c-13.8-13-36.1-9.9-49.5-1.4c-7.6,4.8-10.5,13.6-13.9,21.5
		c-0.6,1.4,0.5,3.6,0.9,5.5c-2.2,3.9-4.8,8.1-6.9,12.5c-1.4,2.9-1.4,5.9,2.6,7c-2.6,9.6-2.3,11.3,2,13c0.2,3.5,0.2,6.8,0.6,10.1
		c1.8,14.9,12.2,26.3,26.3,28.1c26.8,3.4,47.7-7.2,64.2-27.8C274.4,325.8,275.8,325.7,276.9,325.2z"/>
	<path class="st0" d="M411.8,706.1c-3.2-11.5-8.6-20.8-15.8-29c-9.4-10.8-21.3-17.9-34.6-22.8c-13.1-4.9-26.4-9.1-39.4-14.2
		c-23.5-9.2-42.7-24.3-58.5-44.1c4-2.7,7.8-5.3,12.4-8.4c1.4,1.3,3.4,2.9,5,4.8c5.4,6.5,11.7,11,20.6,10.7c0.8,0,1.7,0.1,2.3,0.6
		c6.7,5,13.8,5.8,21.4,2.5c9.9,12.2,23.5,17.5,37.7,21.7c6.3,1.9,12.9,3.1,19.4,3.9c9,1.2,14.1-1.6,17.7-9.8
		c3.5-8.2,6.3-16.8,9.4-25.4c0.2,0.3,0.8,0.9,1.3,1.6c1.7,2.6,3.6,5.2,4.9,8c2.3,4.9,7.4,8.4,7.2,14.6c-0.1,5.7,0.1,11.3,0.1,17
		c0.1,9.4,0.1,18.8,0.2,28.2c0,0.6,0.2,1.4-0.1,1.8c-4.6,5.6-2.8,12.2-2.7,18.4c0,4.1,1.8,5.3,5.9,4.8c1-0.1,1.9-0.3,2.8-0.6
		c6.7-1.6,8-3.8,5.8-10.3c-1.1-3.3-2.5-6.5-3.7-9.8c-0.2-0.7-0.5-1.4-0.5-2.1c0.6-11.3,1.3-22.6,2-34.8c2.8,5.1,5.2,9.5,7.6,13.9
		c4.8,9,9.6,18.1,14.3,27.2c0.5,0.9,0.2,2.5-0.3,3.5c-6,11-15.7,17.7-26.7,22.8C422.4,703.1,417.1,704.3,411.8,706.1z"/>
	<path class="st0" d="M246.9,566.4c-1.6-4.6-3.3-8.9-4.7-13.4c-0.2-0.8,0.5-1.9,0.9-2.9c1.3-2.8,2.6-5.7,3.9-8.5
		c1.1-2.4,0.8-4.5-0.8-6.7c-2.2-3-1.2-5.3,2.2-7c22.8-11.4,42.6-26.3,55.7-48.8c6.8-11.7,9.5-24.6,10.8-37.9
		c0.1-1.3,0.2-2.6,0.4-4.8c1.6,2,2.6,3.7,4,5c9,8.3,17.5,17.4,27.2,24.7c35.9,26.9,62.5,61.4,83.9,100.3
		c10.6,19.2,21.3,38.3,32.5,57.1c3.3,5.6,2.7,10.8,1.7,16.7c-0.7-1.5-1.3-2.9-2.1-4.4c-13.5-27.2-27.9-53.9-46.8-77.8
		c-4.9-6.2-8.5-12.8-11.9-19.8c-9.8-19.8-24.4-34.6-46.3-40.5c-11-2.9-21.5-0.7-31.1,5.5c-1,0.6-2.2,1.3-2.8,2.3
		c-3.1,5.6-9,7.8-13.7,11.5c-4.8,3.8-9.5,7.7-14.3,11.6c-0.3,0.3-0.8,0.5-1.7,1c0-3.4,0-6.3,0-9.2c0-3.3-1.7-4.8-4.8-5.1
		c-4.3-0.4-6.9,0.7-7.3,4c-0.6,5.5-0.8,11-0.7,16.5c0,2.1-0.3,3.2-2,4.5c-6.2,4.6-12.1,9.6-15.5,16.8c-0.3,0.7-1.1,1.2-1.8,1.6
		C257,561.2,252.2,563.7,246.9,566.4z"/>
	<path class="st0" d="M343.5,585.9c3.1-7.9,5.9-15.2,8.8-22.5c-0.3-0.2-0.6-0.3-0.9-0.5c-1.9,3.6-4,7.1-5.7,10.8
		c-3.6,7.8-6.8,15.7-12.9,22c-1.1,1.1-2.2,2.3-3.4,3.2c-5.8,4.5-12.2,7.1-19.5,3.8c-7.4-3.3-10.9-9.6-11.7-17.4
		c-0.8-7.6,1.7-14.2,6.1-20.3c1.5-2.1,3.2-4.1,5-6.4c-13.6,5.3-18,23.6-9.8,41.1c-10.3-2.2-16.7-8.7-20.5-17.8
		c-4.8-11.4-2.5-18.6,9.5-31.9C277.1,553.9,272,566,275,582c-8-4.1-12.5-18.3-7.2-25.9c3.7-5.4,8.8-10.1,14-14.3
		c9.7-8,20-15.4,29.8-23.3c4.2-3.4,8.7-4.8,13.7-3c11,3.9,21.3,9.3,29.6,17.5c2.9,2.9,4.8,7.4,5.6,11.4c2.1,10.6,0.1,20.9-4.3,30.6
		C353.8,580.3,349.8,584,343.5,585.9z"/>
	<path class="st0" d="M90.4,361.6c-0.4,0.1-1.5,0.4-2.4,0.7c-6.3-12-13.1-23.4-18.5-35.6c-6.8-15.2-4.2-29.6,6.9-42.3
		c12.3-14.1,27.9-23.2,44.6-31.2c36-17.2,74.1-22.8,113.5-21.3c15.8,0.6,30.5,5.4,43.7,14.4c13.5,9.1,20.1,22.6,23.7,37.9
		c2.8,11.8,3.1,23.8,2.9,35.9c-0.1,6.2,0.1,12.6,1.4,18.7c3.1,15.3,16.5,24.3,32,22.8c11.9-1.2,20.8-7,27.3-16.7
		c0.3-0.5,0.7-1,1-1.5c0.1-0.1,0.2-0.1,0.3-0.1c2.3,14.2-7.3,27.7-21.5,31.8c-20.5,6-49.3-9.3-51.7-33.7
		c-1.2-12.2-1.8-24.5-2.8-36.7c-1-11.7-2.9-23.2-8.3-33.8c-8.9-17.2-23.8-25.8-42.4-27.3c-46.4-3.8-90.8,3.2-131.5,27.2
		c-8.3,4.9-16.4,10.7-23.6,17.1c-13.2,11.9-15.9,27-9.7,43.2C79.4,341.5,85.2,351.3,90.4,361.6z"/>
	<path class="st0" d="M121.1,652.7c-13.3,3.4-20.7,20.9-16,36.8c-11.1,2.9-22.9-8.8-20.7-20.5c1.1-6,4.4-10.9,8.2-15.5
		c0.5-0.6,1-1.2,1.8-2.1c-11.6,4.9-16.1,18.8-10.5,31.2c-9-0.7-15.1-12.7-10.1-20.5c2.8-4.4,6.5-8.4,10.1-12.2
		c8.2-8.6,16.3-17.4,25.1-25.4c8.3-7.6,18.8-9.3,29.8-7.5c6.4,1.1,10.6,6,14.8,10.4c7.6,8.1,14,16.9,15,28.5
		c0.1,0.6,0.2,1.2,0.1,1.8c-0.1,1.4-0.3,2.9-0.4,3.9c-4.4,1.6-8.5,3.1-12.7,4.7c0.6-1.7,1.3-3.7,2-5.7c-0.2-0.2-0.5-0.3-0.7-0.5
		c-1.3,1.7-2.6,3.3-3.8,5.1c-4.7,7.2-9.1,14.5-16,19.9c-4.9,3.8-10.2,6.7-16.6,7.4c-9.3,1-14.7-4.1-14.1-13.5
		c0.7-10.1,5.3-18.1,12.9-24.5C119.7,654.1,120.2,653.5,121.1,652.7z"/>
	<path class="st0" d="M380.3,544.9c4.9,4.1,9.1,7.7,13.2,11.2c-0.9-4.2-6.7-9.9-11.9-11.7c-1.6-0.6-3-1.6-4.3-2.8
		c-6.3-5.5-12.3-11.6-19-16.6c-2.7-2-6.9-1.9-10.5-2.7c-0.9-0.2-1.9-0.2-2.7-0.6c-2.8-1.6-5.6-3.3-8.4-4.9c5.7-4,16.4-4.9,24.5-2
		c11.3,4,20,11.4,27,20.9c12.1,16.4,20.1,34.3,18.3,55.3c-0.9,11.3-4.7,21.8-9.7,31.9c-3.1,6.2-8.5,7.4-14.6,6.8
		c-12.1-1.2-23.5-4.8-34.5-9.9c-7.6-3.5-14.3-8.4-20.4-14.4c2-1.7,3.8-3.3,5.7-4.7c0.5-0.4,1.5-0.6,2.2-0.4
		c11.3,3.2,22.1,2.9,31.1-4.5c8,7.1,15.7,14,23.5,21c2.1,1.9,3.7,1.5,5.4-0.8c3.4-4.6,3.5-6.7-0.6-10.7c-5.6-5.6-11.5-11-17.1-16.6
		c-0.9-0.9-1.6-2.9-1.2-3.9C381.4,572.2,382.8,559.2,380.3,544.9z"/>
	<path class="st0" d="M295.8,440c-7.8,10-16.8,17.9-27.8,23.4c12.1-16.3,28.6-27.9,43.8-41.7c0,4.8,0.2,9,0,13.2
		c-1.1,16.4-4.2,32.2-12.8,46.5c-8.3,13.8-20.1,24.1-33.1,33.3c-6.5,4.6-13.3,8.6-19.6,12.6c-4.2-2.9-7.9-5.3-11.6-8
		c-0.6-0.5-1.1-1.8-0.9-2.7c2-12.3,4.2-24.7,6.3-37c0.6-3.6,3.1-4.6,6.4-5.1c21.2-3.1,36.9-14.8,48.8-32.2c0.3-0.4,0.5-0.8,0.6-1.3
		C295.9,441,295.8,440.7,295.8,440z M246.8,492.6c-0.1,3.9,3.1,7.2,6.9,7.3c3.9,0.1,7.1-3.1,7.1-7.1c0-3.8-3.3-7.1-7.2-7.1
		C250.1,485.6,246.9,488.9,246.8,492.6z M257.6,509.4c0-4-3.3-7.4-7.3-7.3c-3.6,0.1-6.8,3.2-6.9,7c-0.1,3.8,3.4,7.3,7.4,7.3
		C254.3,516.3,257.6,513,257.6,509.4z"/>
	<path class="st0" d="M523.9,826.2c-2.8-17.8-6.8-35.1-14.7-51.3c-0.6,0.1-1.2,0.2-1.7,0.3c0.2,2.2,0.4,4.3,0.6,6.5
		c-0.2,0-0.3,0.1-0.5,0.1c-2.5-6.6-4.8-13.3-7.5-19.8c-5.2-12.2-11.1-24.1-20.2-34c-0.8-0.8-0.8-2.6-0.7-3.9
		c1.3-11.5,3-22.9,3.8-34.4c0.6-8.6-0.9-17.2-4.9-25.7c11,7.8,34.8,50.7,42.2,76C528.5,768.4,529.7,797.2,523.9,826.2z"/>
	<path class="st0" d="M195.2,659.1c-0.7-20.8-12.1-41.3-22.8-54.6c7.2-3.4,14.4-6.8,21.5-10.1c-0.1-0.3-0.1-0.6-0.2-0.8
		c-1.3-0.1-2.6-0.2-3.9-0.3c0.6-3.1,1-6.1,1.7-9.1c0.2-0.7,1.4-1.4,2.2-1.7c1.3-0.6,2.7-0.8,4.7-1.4c1.9,6.4,3.9,12.7,5.5,19.1
		c1.1,4.6,2.2,5.9,7,6.9c0.8,0.2,1.8,0.7,2.3,1.3c11.4,14.7,26.3,24.9,42.8,33c0.3,0.2,0.6,0.4,1,0.6c-4.5,4.6-8.7,9.6-13.6,13.7
		c-2,1.7-5.6,2.2-8.4,2.4C221.8,658.5,208.6,658.7,195.2,659.1z M219.6,639.3c-1.1-13.1-15.3-26.6-28.1-26.8
		C204,618.2,213.5,627,219.6,639.3z"/>
	<path class="st0" d="M173.8,233.1c-21.5,3.3-41.1,11.8-60.6,20.9c-0.7-10.3,3.7-35.3,7.1-42.4c1.5,5,2.9,10.7,5,16.2
		c1.8,4.7,4.9,6.2,9.9,5c17.8-4.2,31.7-13.6,39.3-30.9c0.9-2,1.8-4,2.4-6c0.4-1.3,0.4-2.9,0-4.2c-0.8-3-1.6-6.1-3-8.8
		c-0.9-1.7-2.6-3.8-4.3-4.3c-11.8-3.2-23.1-0.7-33.9,4.5c-1.2,0.6-2.2,1.8-3.9,2.4c2-2.6,3.4-6.2,6-7.8
		c30.9-18.9,64.5-27.2,100.7-25.1c0.2,0,0.4,0.2,1,0.6c-18.1,5.9-34.2,14.6-46.6,28.8C179.9,196.2,174.3,213.5,173.8,233.1z"/>
	<path class="st0" d="M214.7,606.8c9.9-1.1,19-2.1,29-3.2c9.6,12,22.2,22.3,37.2,29.5c12.4,5.9,25.3,10.7,37.8,16.1
		c14.5,6.3,29.2,12.4,43.4,19.6c12.2,6.2,18.2,17.7,22,30.3c-0.2,0.3-0.4,0.6-0.7,0.9c-4.3-2.9-9.1-5.2-12.8-8.8
		c-19.6-19.2-44.3-28.5-69.5-37.1c-13.7-4.7-27.2-9.7-40.6-15.1c-15-6.1-27.7-15.9-39.6-26.8C219.1,610.4,217.1,608.8,214.7,606.8z"
		/>
	<path class="st0" d="M446.6,452.1c4.6,13.5,9.3,27,13.9,40.5c-0.3,0.2-0.7,0.4-1,0.6c-26.5-25.8-53-51.5-79.7-77.5
		c2.8-2.7,6.4-3.7,10.2-4c12.3-1,22.9,3.6,32.8,10.2c17.6,11.7,28.9,28.4,36.5,47.7c3.5,8.8,6.4,17.8,9.6,26.9
		c-4.2-0.2-5.4-2.4-6.6-5.8c-4.3-12.3-9.3-24.5-14-36.7c-0.3-0.8-0.8-1.4-1.2-2.1C447,451.9,446.8,452,446.6,452.1z"/>
	<path class="st0" d="M467.9,634c7.4,12.4,9.5,25.3,4.8,39.1c-6.1,17.8-15.8,32.8-33.5,41c-13.5,6.2-27.8,5.9-42.2,4.1
		c-18-2.3-30.6-12.6-40.9-26.5c-3.2-4.3-6-8.8-9-13.2c0.3-0.3,0.6-0.5,0.9-0.8c3.6,2.5,7.2,5,10.7,7.5c8,5.7,15.6,12.3,24.2,16.8
		c20.4,10.5,39.7,6.7,58.1-6.1c12.4-8.6,18.9-20.8,22.9-34.8C466.5,652.2,468.2,643.3,467.9,634z"/>
	<path class="st0" d="M463.5,537.5c-0.8-0.8-1.5-1.4-2.2-2.1c-20-19.9-40-39.8-60.1-59.6C389,463.8,376.4,452,364,440
		c-0.7-0.7-1.6-2.1-1.3-2.6c2.7-5.2,5.6-10.2,8.6-15.3c0.3-0.4,1-0.6,1.7-1c5.4,5.1,10.8,10.3,16.2,15.3
		c22.3,20.9,44.5,41.9,66.9,62.8c4.2,3.9,7.7,7.8,7.5,14.1C463.3,521.2,463.5,529.1,463.5,537.5z M425,484.8c-1.1-0.1-2-0.5-2.7-0.2
		c-1.7,0.7-3.9,1.3-4.6,2.6c-0.5,1.1,0.4,3.6,1.5,4.6c4.8,4.7,10,9,14.9,13.5c5.1,4.7,9.9,9.6,15.1,14.3c1.1,1,2.9,1,4.4,1.5
		c0.1-1.5,0.2-2.9,0.3-4.5c0,0,0.4,0,0.9,0.1c2.5,0.8,5.1,1.1,6.9-1.3c1.8-2.4,1.3-5.1-0.2-7.5c-3.3-5.5-7.4-10-14-11.6
		c-0.8-0.2-1.7-1.4-2.1-2.3c-2.9-6.4-7.8-10.6-14.2-13C427.8,480,425.8,481.3,425,484.8z"/>
	<path class="st0" d="M394.3,776.6c-0.4,6.6-1.5,13.1-1.2,19.7c0.6,12,7.3,19.9,18.8,23.2c2.1,0.6,2.8,1.4,3.1,3.6
		c0.9,9.4,0.2,18.3-5.7,26.1c-3.3,4.3-7.8,6.5-12.1,6.5c1.7-5.4,3.4-11,5.1-16.6c-0.4-0.1-0.8-0.3-1.2-0.4c-0.9,2.3-1.8,4.7-2.9,6.9
		c-1.3,2.7-2.6,5.5-4.5,7.7c-5.1,6.1-13.1,4.3-15.8-3.5c8.7-2.5,10.3-9.4,10.2-17.3c-0.4,0.7-0.9,1.5-1.2,2.2
		c-0.7,1.6-1.3,3.4-2.2,5c-1.8,3.4-4,6.8-8.4,6.2c-4.6-0.6-6.4-4.4-7.5-8.3c-1.3-4.9-0.6-9.8,1.5-14.4c1.1-2.3,2.2-4.6,3.7-6.6
		c5.4-7.4,9.1-15.5,11.3-24.4C386.7,785.9,389.9,780.7,394.3,776.6z"/>
	<path class="st0" d="M352.1,775.8c-2.8,5.7-3.9,11.5-1.6,17.6c-9.1,1.8-14.7-3.3-13.3-12.1c0.6-3.4,1.8-6.6,2.9-10.7
		c-4.1,5.5-6.2,10.8-5.7,17.1c-4-1.2-6.3-4-6.5-8.2c-0.5-8.7,4.2-15.3,8.9-21.9c0.5-0.7,2.2-0.9,3.3-0.9c4.1-0.1,8.2,0.1,12.3-0.1
		c1.5-0.1,3-0.9,4.5-1.4c-0.9-1.4-1.7-2.9-2.6-4.3c-0.4-0.6-1.2-1-1.6-1.3c3.4-1.2,7-1.9,10-3.7c2-1.2,3.2-3.8,4.8-5.8
		c0.4-0.5,0.7-1.1,1.2-1.5c0.6-0.4,1.3-0.6,1.9-1c1.7-1.1,3.7-3.5,4.8-3.1c2.8,0.9,5.3,3,7,4.1c-1.8,11-3.4,21.2-5.2,31.3
		c-1.5,8.1-4.6,15.5-11.6,20.4c-2,1.4-4.4,2.6-6.8,3.2c-4.3,1.1-6.9-0.7-7.3-5.1c-0.3-3.6,0.2-7.2,0.3-10.8
		C352,777.1,352,776.4,352.1,775.8z"/>
	<path class="st0" d="M137,611.8c1.5-0.6,3.4-1.6,5.3-1.9c7.8-1.2,15.7-2.3,23.6-3c1.9-0.2,4.6,1.1,5.8,2.6
		c10.7,13.6,17.9,28.7,19.9,46.1c0.1,0.5,0.1,1,0.1,1.4c0.3,9.1-0.7,10.4-9.6,11.7c-4,0.6-8.1,1.1-12.2,1.6
		c-2.9,0.4-5.5-0.2-7.4-3.3c1.4-0.6,2.8-1.3,4.2-1.8c4.8-1.9,5.5-2.9,5.6-8.2c0.1-9.4-3.7-17.4-9.3-24.5c-4.1-5.1-8.7-10-13.7-14.2
		C145.8,615.4,141.2,613.9,137,611.8z"/>
	<path class="st0" d="M357.6,460.2c6.4,5.5,12.4,10.2,17.8,15.5c18.9,18.2,37.7,36.6,56.4,54.9c9.7,9.5,19.4,19.1,29.1,28.7
		c1.5,1.5,2.8,3.3,3.9,5.2c1.7,3,0.8,5.9-2.1,7.7c-2.7,1.6-4.3,0.7-6.8-2.2c-5.8-6.9-11.8-13.7-18.1-20.1
		c-17.7-17.9-35.5-35.7-53.4-53.4c-8.5-8.4-17.4-16.2-26-24.5c-1.1-1-1.7-3-1.8-4.5C356.5,465.4,357.1,463.4,357.6,460.2z"/>
	<path class="st0" d="M182.9,460.5c-5.9-7.4-11.8-14.8-17.4-21.7c7.2-1.6,15-2.9,22.6-5.1c12.2-3.5,23.6-9,34.1-16.3
		c3.6-2.5,7.2-4,11.8-3.1c4.2,0.8,7.2-0.9,8.3-5.1c1.9-7.3,7-11.8,12.7-16c5.1-3.8,9.9-8,15.4-12c-3.8,10.5-7.5,20.9-11.5,31.3
		c-0.4,1-2.1,1.8-3.3,2.1c-17.2,3.2-32.4,10.4-45.7,21.8c-0.5,0.4-0.9,0.8-1.3,1.3c-3.2,3.7-6.4,7-11.8,8c-4.8,0.9-7.8,4.8-9.8,9.4
		C186.2,457,184.4,458.5,182.9,460.5z"/>
	<path class="st0" d="M251.7,469.5c1.6-3.2,3.2-6.4,4.9-9.7c3.3,2.6,5.4,0,6.9-2c3.8-5.1,7.3-10.4,10.6-15.8c2-3.3,3.4-6.9,5-10.3
		c3.3,4.3,5.1,4.3,8.2-0.8c2-3.2,3.7-6.7,5.1-10.3c1.4-3.4,2.2-7.1,3.4-10.9c4.4,1,6.6-1.9,8.2-5.5c3.9-8.3,6-17,5.9-26.1
		c0-1.5,0-3.1,0-4.8c4.2,1.8,8.1,4,12.2,5.3c4.2,1.3,8.7,1.8,13.6,2.8c-0.3,1.2-0.4,2.8-0.9,4.3c-4,10.7-11.4,18.9-19.4,26.6
		c-11.3,10.9-23.2,21.3-34.8,32c-6.9,6.4-13.3,13.1-18.5,21.1c-1.8,2.7-6.5,3.5-9.8,5.2C252.3,470.2,252,469.9,251.7,469.5z"/>
	<path class="st0" d="M144.5,432.1c9.1-1.5,17.2-2.5,25.1-4.3c22.5-5.3,43-15.4,62.3-27.9c9.9-6.4,19-13.9,28.4-21
		c0.9-0.7,1.7-1.7,2.4-2.7c3.7-4.6,4.3-4.8,11.2-2.8c-4.2,4.2-8.1,8.3-12.2,12.1c-3.2,2.9-6.7,5.5-10.2,8
		c-5.1,3.7-9.1,8.2-10.6,14.5c-0.8,3.7-3.3,5.4-6.9,4.7c-5.4-1.1-9.5,1.2-13.7,4c-15,10-31.5,16.7-49.4,19.2
		c-5.6,0.8-11.5,0.4-17.2-0.1C150.8,435.4,148.1,433.5,144.5,432.1z"/>
	<path class="st0" d="M459.7,665.2c-8.3-14.5-16.2-28.9-24.7-43c-7.6-12.5-16.3-24.4-24-36.9c-1.6-2.6-1.4-6.6-1.4-10
		c0-3.7,0.8-7.4,1.3-11.7c1.7,2.4,3.3,4.3,4.6,6.5c13,22.4,25.9,44.7,38.9,67.1c2.6,4.5,5.2,9,7.6,13.5c0.6,1.2,1,3,0.7,4.3
		C461.8,658.5,460.6,661.9,459.7,665.2z"/>
	<path class="st0" d="M196.7,460.6c3.2-10.8,9.7-19.2,18.4-25.7c12.6-9.4,26.8-15.4,42.8-19.8c-2.2,4.3-3.3,8.5-6,11.4
		c-9.3,10.3-19,20.1-31,27.4c-7,4.2-14.5,7.1-22.8,7C197.8,460.8,197.3,460.7,196.7,460.6z"/>
	<path class="st0" d="M246.1,153.6c-34.9,14.1-52.6,40.8-57.5,77.4c-4.1,0.5-8.4,1.1-12.7,1.7C171.3,201.1,208.4,159.3,246.1,153.6z
		"/>
	<path class="st0" d="M261.9,155.7c-38.8,16.2-56.9,38.9-59.2,73.7c-3.8,0.4-7.7,0.8-11.9,1.2c1.6-13.2,5.7-25.1,11.6-36.5
		c8.3-15.9,21.1-27.3,36.9-35.4c1.5-0.8,3.2-1.3,4.5-2.3C249.4,152.3,255.2,154.5,261.9,155.7z"/>
	<path class="st0" d="M95.8,215.3c-4.5,11-7.2,22.4-7.6,34.3c-0.2,5.4,0.4,10.8,0.5,16.2c0,1.2-0.2,2.8-1,3.4
		c-8.5,7-16.3,14.5-22,24.1C63.9,262.7,76.8,237.8,95.8,215.3z"/>
	<path class="st0" d="M359.5,447.7c7,6.7,13.5,12.9,19.9,19.1c26.3,25.5,52.6,50.9,78.9,76.4c0.2,0.2,0.3,0.3,0.5,0.5
		c5.2,4.6,5.2,4.6,4.9,12.1c-0.7-0.4-1.3-0.6-1.7-1c-25.2-24.5-50.2-49.2-75.6-73.5c-8.4-8-17.8-15.1-26.7-22.6
		c-0.8-0.6-1.4-2-1.3-2.9C358.4,453.2,358.9,450.9,359.5,447.7z"/>
	<path class="st0" d="M138,316.5c-1.6-1.9-3-4-4.8-5.8c-7.9-8.1-17.7-8.6-25.7-0.6c-3.8,3.8-7.3,6.5-13.1,3.8c0,0.3,0,0.6-0.1,0.9
		c0.8,1,1.7,2.1,2.5,3.1c-3.8,2-4.5,1.7-5.3-2.1c-1.7-8-1.2-15.8,2.2-23.3c3.8-8.2,10.2-10.9,18.4-7c4.3,2.1,8.4,5.2,11.9,8.5
		C130.5,300.3,134.9,308,138,316.5z"/>
	<path class="st0" d="M407.5,563.9c-4.7-8.6-9.1-17.9-14.5-26.5c-7.4-11.6-17.5-20.5-30.6-25.4c-6.6-2.5-13.3-3.1-20.2-1.2
		c-0.7,0.2-1.6,0.3-2,0.7c-5.4,5.6-10.8,1.8-17.1,0c2.1-1.9,3.7-3.8,5.7-5.1c13.5-8.9,27.4-8.7,40.9-0.6
		c21.3,12.8,34.6,31.3,37.7,56.4c0.1,0.6,0.1,1.2,0.1,1.8C407.5,564.3,407.3,564.5,407.5,563.9z"/>
	<path class="st0" d="M83.3,293.9c2.2,7.8,4.4,15.7,6.5,23.7c0.2,0.8-0.7,1.8-1.1,2.8c1.1,1,2.6,2.4,4.5,4c-1.8,1.1-2.7,1.7-4.2,2.7
		c2,0.7,3.4,1.1,5.1,1.7c-0.6,0.7-1.1,1.3-1.1,1.3c1.3,1.9,2.9,3.4,3.4,5.2c2,7.8,3.6,15.7,5.3,23.3c-0.6,0.5-0.8,0.8-1,0.8
		c-6.8,1.5-6.8,1.5-10.5-4.4c-6-9.5-11.5-19.2-13.8-30.4c-2.2-11.1-0.4-21.3,6.6-30.4C83.2,294,83.5,293.7,83.3,293.9z"/>
	<path class="st0" d="M211.8,499c1,6.7,1.9,12.9,2.9,19.3c-3.5,0.8-7.3,1.7-10.7,2.5c-3-4.9-5.4-10.2-9.1-14.3
		c-4.8-5.1-10.5-9.4-16.1-13.7c-2.4-1.9-3.8-3.7-3.5-6.9c0.5-5.5,0.8-11,1.1-17C187.5,480.5,196.3,494.2,211.8,499z"/>
	<path class="st0" d="M352.7,525.7c2.6,1.5,4.8,2.5,6.6,4c5.1,4.2,10.2,8.4,14.9,13.1c1.9,1.9,3.6,4.8,3.9,7.4
		c1.4,9.6-0.1,19.1-2.4,28.4c-1.2-1.9-2-4.4-3.6-5.4c-1.7-1-4.4-1.3-6.3-0.7c-4.5,1.4-6.4,6.3-4.5,10.2c2.1,4.3,6.3,5,12.4,2.1
		c-1.7,2.2-3.2,4.7-5.3,6.5c-3.9,3.4-9.9,1.6-10.7-3.5c-0.6-3.7,0-8,1.5-11.4c4.4-10.3,6-20.8,4.7-31.8c-0.8-6.6-3.9-12.1-9-16.3
		c-0.6-0.5-1.1-0.9-1.6-1.4C353,526.8,353,526.6,352.7,525.7z"/>
	<path class="st0" d="M361.4,441.3c5,4.5,10.5,9,15.6,13.9c21.8,21.3,43.4,42.8,65.1,64.1c6.5,6.4,13,12.9,19.7,19.1
		c2,1.9,2.6,3.8,1.7,6.4c-8.4-7.9-16.8-15.7-25-23.5c-25.2-24.1-50.4-48.3-75.6-72.4C359.6,445.6,359.5,444.5,361.4,441.3z"/>
	<path class="st0" d="M177.6,574.9c-1.6-7.6-0.8-15,0.2-22.3c0.7-4.7,2.1-9.3,3.4-14c0.6-2.2,2.2-3.6,4.7-3.7
		c3.9-0.3,6.6-2.5,8.9-5.5c1.2-1.6,3-3.2,4.9-3.9c8.7-3.3,17.9-4.5,27.3-4.7c3.6-0.1,5.3,1.4,5,4.9c-0.3,3.1,0.7,5.5,2.9,7.3
		c2.5,2.1,2.3,4.1,0.8,6.6c-7.9,12.8-19,21.9-32.4,28.4C195.3,571.7,186.9,574.4,177.6,574.9z M179.8,560.8c0.1,0,0.2,0.1,0.3,0.1
		c0,1.4,0,2.9,0,4.3c0.1,4.5,1.3,5.5,5.8,4.9c0.7-0.1,1.4-0.3,2.1-0.4c19.3-4.7,32.7-17.2,43.4-33.1c0.6-0.9-0.1-2.7-0.5-4
		c-0.6-2-1.9-3.8-2.3-5.8c-0.4-2.2-1.3-3-3.3-2.7c-7.3,1-14.6,1.7-21.8,3.1c-2.3,0.5-4.3,2.7-6.5,4.2c-3,2.1-5.8,4.7-9.1,6.1
		c-2.8,1.1-4.6,2.5-5.1,5.4C181.8,548.7,180.8,554.7,179.8,560.8z"/>
	<path class="st0" d="M315.4,432.4c-0.1-1.4-0.3-2.4-0.4-4c19.8-3.9,39.5-7.8,59.2-11.4c1.6-0.3,4.1,0.6,5.4,1.8
		c23.8,22.7,47.4,45.5,71.1,68.3c3.1,3,6.2,5.9,9.1,9.1c1.1,1.3,1.6,3.1,2.4,4.7c-0.3,0.3-0.7,0.5-1,0.8c-1.5-1.1-3.1-2-4.4-3.2
		c-27-25.8-53.9-51.7-80.9-77.4c-1-0.9-3-1.6-4.3-1.4c-17.6,3.9-35.2,7.9-52.8,12C317.7,431.9,316.7,432.1,315.4,432.4z"/>
	<path class="st0" d="M115.4,194.3c-3.3,8.1-6.9,15.9-9.6,24.1c-4.2,12.7-6,25.8-4.8,39.2c0.2,2-0.4,3-2.1,4c-2.6,1.4-5,3.2-8.1,5.1
		C91,239.4,91.8,213,115.4,194.3z"/>
	<path class="st0" d="M407.6,523c14,14.4,28.5,29.5,43.1,44.5c0.3,0.3,0.6,0.8,0.9,1.1c3.7,4.6,3.7,5.5-1,9.3
		c-2.2,1.8-4.4,3.7-6.3,5.3C431.9,562.9,419.6,542.6,407.6,523z"/>
	<path class="st0" d="M132,181.9c-9.3,13.7-15.4,28.8-18.3,45.1c-1.4,7.8-2.1,15.7-2.5,23.6c-0.2,3.3-0.8,5.4-4,6.4
		c-1.2,0.4-2.4,1.1-3.8,1.8c0-17.6,2.2-34.5,8.7-50.6c2.3-5.7,4.5-11.6,7.9-16.5c2.9-4.2,7.4-7.2,11.2-10.8
		C131.4,181.2,131.7,181.5,132,181.9z"/>
	<path class="st0" d="M179.6,577.7c19.3-2.4,35.5-10.7,48.8-24.4c3.9-4,7.1-8.8,10.1-13.5c2.4-3.7,1.5-5.6-1.3-9
		c-1.8-2.2-2.4-5.3-3.9-8.7c6.6,2.1,8.8,4.9,8.9,10.4c0,0.8,0.1,1.8,0.6,2.4c4.4,4.7,1.4,8.9-1.3,12.5c-9.2,12.4-21,21.8-35.3,27.7
		c-6.8,2.8-14,4.4-20.9,6.6C181.9,582.8,180.3,581.3,179.6,577.7z"/>
	<path class="st0" d="M140,324.7c-3.9-2.8-8.3-4-13-3.3c-3.6,0.5-4.2,1.8-2.9,5c1.7,4.3-1,9-5.9,9.3c-3.6,0.2-3.6,1.8-2.9,4.4
		c1.3,5.1,3.7,9.5,8.5,12c6.3,3.3,11.8,1.8,18.4-5c0.1,2,0.2,3.7,0.3,5.3c-7.6,1.7-14.9,4-22.4,4.6c-3.9,0.3-7.4-3.4-8.9-7.3
		c-3.7-9.7-3.2-19.2,3.3-27.7c5.2-6.9,15-8.4,21.6-3.6c1.9,1.4,3.1,3.8,4.7,5.7C140.5,324.3,140.2,324.5,140,324.7z"/>
	<path class="st0" d="M240.6,553.9c2.5,7.2,4.6,14.7,7.6,21.9c7.4,17.6,19.6,31.6,34,43.9c15.1,12.8,32.4,21.4,51.1,27.8
		c12.2,4.2,24.4,8.3,36.2,13.4c16.6,7.3,28.5,19.8,36.4,36.2c1.2,2.6,2.6,5.2,3.3,8.6c-0.8-0.5-2.1-0.9-2.4-1.6
		c-9.6-25.8-29.8-39.6-54.4-48.5c-15.3-5.6-30.6-11-45.3-17.8c-26.5-12.3-45.8-32.7-60.2-57.9c-3.6-6.2-6.2-13-9.2-19.6
		C236.4,557.8,236.5,557.8,240.6,553.9z"/>
	<path class="st0" d="M368.3,421.8c-3.2,5.4-5.8,9.7-8.5,13.8c-0.4,0.6-1.7,0.6-2.6,0.8c-9.9,1.8-19.9,3.4-29.8,5.3
		c-2.6,0.5-4.5,0.5-6.4-1.6c-1.7-1.9-3.8-3.6-5.9-5.5C332.8,430.3,350.1,426.2,368.3,421.8z"/>
	<path class="st0" d="M249,433.5c-9.1,15.5-20.2,29.1-37.8,35.8c-8.5,3.2-16.5,2.4-23.7-3.7c-2-1.7-3.2-3.6-1.8-6.2
		c0.2,0,0.5-0.2,0.6-0.1c13.9,7,26.5,2.4,38-5.2c8-5.3,14.8-12.5,22.1-18.9c0.7-0.6,1.3-1.4,1.9-2.1
		C248.5,433.1,248.7,433.3,249,433.5z"/>
	<path class="st0" d="M159.8,178.6c1.1,0,2.2,0,3.3,0c2.5,0,4,0.9,4.5,3.6c0.3,1.8,1.1,3.8,2.3,5.2c2,2.6,1.9,5,0.6,7.7
		c-7.3,14.9-18,26.3-33.9,32.3c-6.7,2.5-9.8,1.2-11.7-5.6c-2.4-8.3-3.5-16.8,1.1-24.9c0.7-1.3,1.8-2.5,2.8-3.6
		c0.8-0.9,2.1-1.5,2.6-2.5c4.9-9.1,14-10,22.7-11.7c1.9-0.4,3.8-0.4,5.7-0.5C159.8,178.6,159.8,178.6,159.8,178.6z M126,207.1
		c0.1,1.2,0.2,3.3,0.5,5.5c0.3,2.3,0.7,4.5,1.3,6.7c1.6,6.4,3.4,7,9.5,4.7c14.5-5.5,22.9-17,30.2-29.7c0.8-1.4-2-10.5-3.4-11.3
		c-0.5-0.3-1.2-0.5-1.7-0.5c-7.4,0.6-14.8,1.1-22.1,2.2c-1.8,0.3-3.3,2.7-4.8,4.3c-2.1,2.3-3.8,5.2-6.3,7.1c-1.9,1.5-3.1,2.8-3,5.2
		C126,203,126,204.6,126,207.1z"/>
	<path class="st0" d="M410.4,553c6,8.8,12.5,17.4,17.9,26.6c11.6,20,22.4,40.4,33.7,60.5c1.8,3.2,3.6,6,1.5,9.9
		c-0.4-0.6-0.8-1.2-1.2-1.8c-14.5-28.8-29.6-57.4-48.2-83.9c-2.3-3.3-5.2-6.3-4.7-10.8C409.7,553.3,410.1,553.1,410.4,553z"/>
	<path class="st0" d="M117.3,358c-3.9,0.5-6.4-1.1-7.8-4.6c-1.2-3-2.6-6-3.9-9.1c-5.5-12.7-3.8-26.8,7.6-33.7
		c7.7-4.7,16.9-2.7,21.7,4.9c-8.3-3.6-15.6-1.9-21.3,4.3c-6.8,7.5-8.1,16.6-5.2,26C110.4,352.1,108.1,349.9,117.3,358z"/>
	<path class="st0" d="M214.4,499.3c7.5,0.7,13.7-1.9,19.8-6.4c-1.3,8.5-2.5,16.4-3.7,24.3c-4.2,0.2-8.8,0.4-13.2,0.6
		C216.4,511.7,215.4,505.7,214.4,499.3z"/>
	<path class="st0" d="M468.5,563.1c-2.2-2.7-3.1-4.8-2.6-8.2c2.5-17.6,2.2-35.3-0.7-52.8c-0.2-1.2-0.4-2.3-0.7-4.3
		c3.2,1.8,4.7,4.2,5.3,6.9c1.4,6.6,2.8,13.2,3.5,19.9C474.5,537.5,472.7,550.2,468.5,563.1z"/>
	<path class="st0" d="M119,366.2c-1.4,0.4-2.9,1.2-4.3,1.3c-9.9,0.7-19.5,3.1-28.7,6.9c-1.2,0.5-2.6,1.1-3.8,1
		c-1.4-0.1-3.5-0.5-3.9-1.4c-0.4-1,0.4-3,1.2-4.1c0.8-1.1,2.2-1.8,3.5-2.4c10.3-4.3,21-6.2,32.1-4.3c1.4,0.2,2.7,1.2,4,1.8
		C119.1,365.4,119.1,365.8,119,366.2z"/>
	<path class="st0" d="M314.9,426.1c0-0.1-0.2-1-0.3-1.9c22.3-6.3,44.2-13.4,67.8-14.5c-3,3.9-7.3,4.7-11.3,5.5
		C352.5,419,333.9,422.5,314.9,426.1z"/>
	<path class="st0" d="M214.2,585.6c5.2-1,10.5-1.9,16.2-3c1.8,3.5,3.8,7.4,6,11.7c-6,1.2-11.7,2.4-17.5,3.6
		C217.4,593.6,215.8,589.6,214.2,585.6z"/>
	<path class="st0" d="M362.3,595.9c-8.9,3.8-17.2,4.2-25.8,1.6c1.7-2.6,3.2-5,4.8-7.4c0.4-0.5,1.1-0.9,1.7-1.2
		c3.5-1.4,7.1-2.6,10.8-4C354.1,589.8,356.3,593.9,362.3,595.9z"/>
	<path class="st0" d="M229.3,565.3c10.9,40.6,40.8,61.8,77.8,75.6c-0.2,0.3-0.3,0.6-0.5,0.8c-4.2-1.7-8.5-3.4-12.7-5.1
		c-19.2-7.9-36.2-18.9-49.4-35.4c-8-10-12.8-21.4-16.9-33.3c-0.3-0.7,0.4-1.8,0.7-2.7C228.7,565.3,229,565.3,229.3,565.3z"/>
	<path class="st0" d="M325.4,444.2c11.3-2.2,22.2-4.3,33.5-6.4c-0.7,2.2-1.3,4.5-2.2,6.8c-0.2,0.6-1.5,0.9-2.3,1.1
		c-7.1,1.2-14.2,2.4-21.3,3.5c-1.1,0.2-2.5-0.4-3.4-1C328.2,447,326.9,445.6,325.4,444.2z"/>
	<path class="st0" d="M456.5,672.4c-7.9-14.4-15.8-28.6-23.5-42.9c-0.9-1.7-0.7-4-1.1-6c0.4-0.1,0.7-0.2,1.1-0.3
		c4.4,7.6,8.9,15.3,13.3,22.9c3.6,6.3,6.8,12.7,10.5,18.9C458.4,667.8,458.5,670.1,456.5,672.4z"/>
	<path class="st0" d="M267.8,581.8c-3.2,1.9-6.5,3.8-10.3,6c-2.3-4.1-4.7-8.4-7.2-12.9c4.1-2,7.9-3.8,11.7-5.7
		C264,573.4,265.9,577.6,267.8,581.8z"/>
	<path class="st0" d="M174.8,191.7c0,1.4,0.3,2.9-0.1,4.1c-6.1,19.2-20.1,29.8-38.9,35c-1.2,0.3-2.6,0.2-3.9,0.1
		c20.4-6.2,33.7-19.9,41.8-39.1C174.1,191.8,174.5,191.8,174.8,191.7z"/>
	<path class="st0" d="M356.3,446.9c-0.6,3.3-1.1,6.2-1.6,8.9c-4.5,0.4-8.9,1.5-13,0.9c-3-0.4-5.7-3.1-8.5-4.8
		c0.2-0.3,0.3-0.5,0.5-0.8C341,449.7,348.4,448.3,356.3,446.9z"/>
	<path class="st0" d="M206.4,587.2c5.7-0.7,6-0.6,7.8,4.9c0.8,2.4,1.3,4.8,1.9,7.3c0.6,2.8-0.2,4.7-3.3,5.3c-3.5,0.6-6-0.6-6.3-3.6
		C206.2,596.5,206.4,591.9,206.4,587.2z M207.9,600.4c0,0.5,0.1,0.9,0.1,1.4c1.5,1.6,3.3,1.7,5.1,0.2c0.4-0.3,0.1-1.4,0.1-2.2
		C211.5,600.1,209.7,600.2,207.9,600.4z M207.4,590.1c1.2,1,1.9,2.1,2.6,2.1c0.7,0,1.9-1.2,1.9-1.9c0-0.7-1-1.9-1.7-2
		C209.5,588.2,208.7,589.2,207.4,590.1z"/>
	<path class="st0" d="M111,358.2c-2.9,0.3-5.4,0.6-7.1,0.8c-2.2-8.9-4.3-17.3-6.2-25.8c-0.2-0.9,0.8-2.1,1.5-4.1
		c2,6.1,3.3,11,5.2,15.7C106.2,349.3,108.7,353.6,111,358.2z"/>
	<path class="st0" d="M422.9,688.2c0-5.6-0.1-10.6,0.1-15.5c0-0.8,1.3-2.1,2.2-2.3c0.9-0.2,2.7,0.4,3,1.2c1.7,3.8,3.2,7.7,4.5,11.7
		c0.2,0.6-0.8,2-1.5,2.3C428.8,686.5,426.2,687.1,422.9,688.2z M428.1,680.9c-1.3,1.2-2.3,2.1-3.3,3c0.7,0.6,1.6,1.8,2.1,1.6
		c1.2-0.4,2.2-1.4,3.3-2.1C429.6,682.8,429,682.1,428.1,680.9z"/>
	<path class="st0" d="M426.3,618.3c-5-7.3-9.6-14.3-14.5-21c-2.1-2.8-3.4-5.4-1.7-9.5c6.6,10,12.9,19.8,19.5,29.9
		C428,618,426.9,618.2,426.3,618.3z"/>
	<path class="st0" d="M405.4,705.2c-4.2,0.1-8.2-3.4-8.1-7.1c0.1-3-0.8-5-3.6-6.4c-0.9-0.4-1.1-2-1.6-3.1c-0.8-1.6-1.2-4.1-2.5-4.7
		c-3.2-1.6-3.8-4.2-4.7-7.7C394.5,684.4,399.7,694.7,405.4,705.2z"/>
	<path class="st0" d="M371.1,593.3c1.8,1.1,3.9,1.6,4.9,3c2.5,3.3,6.6,5.4,8.4,8.5c1.8,3.2,2.8,5.1,6.6,4.4c1.1-0.2,3.2,0.7,3.3,1.3
		c0.2,1.7-0.3,3.5-0.8,6.4c-9.4-6.9-15.5-15.5-23-22.7C370.4,594.2,371.1,593.2,371.1,593.3z"/>
	<path class="st0" d="M201.1,445.6c-2.1,5-4,9.7-6.2,15c-2.2-0.8-4.5-1.7-7-2.6C190,451.2,194.7,447.8,201.1,445.6z"/>
	<path class="st0" d="M283.6,537.1c0-4.3,0-8,0-11.8c5.2,1.9,3.2,5.3,1.8,8.8c5.4-3.4,5.6-5.6,1.3-10c0.9-1.1,1.9-2.1,2.7-3.2
		c0.6-0.9,0.9-2.1,1.4-3.1c0.4,0.1,0.8,0.1,1.2,0.2c0,4.1,0.1,8.2-0.1,12.3c0,0.7-0.8,1.5-1.4,1.9
		C288.3,533.8,286,535.3,283.6,537.1z"/>
	<path class="st0" d="M218.5,604.5c0.2-1.9,0.3-3.2,0.4-4.4c6.5-0.9,12.8-1.8,19.7-2.7c0.1,0.1,0.7,0.9,1.7,2.3
		C233,601.2,226,602.8,218.5,604.5z"/>
	<path class="st0" d="M376.2,677.3c-12.1-13.9-29.3-19.1-45.7-26.5c12.6,1.8,34.5,13.1,42.8,22c1.2,1.3,2.1,2.9,3.2,4.3L376.2,677.3
		z"/>
	<path class="st0" d="M229,579.6c-5.9,1.3-11.9,2.7-18,4c-0.7-1.4-1.3-2.7-1.8-3.8c6.1-1,11.9-1.9,17.7-2.7c0.8-0.1,1.8,0.8,2.7,1.3
		C229.4,578.9,229.2,579.3,229,579.6z"/>
	<path class="st0" d="M392.2,606.8c-1.5,0.2-3,0.4-4.8,0.6c-0.3-1.1-0.4-2.2-0.7-3.2c-0.3-0.9-0.7-2.5-1-2.5c-5.3,0.1-4.4-7.1-9-7.6
		c-3.8-0.5-3-2.7-2.2-5.5C380.5,594.8,386.3,600.6,392.2,606.8z"/>
	<path class="st0" d="M342,258.6c-3-0.8-5.9-1.5-9.4-2.4c1.6-3.2,2.9-5.8,4.7-9.3c2.2,4,3.9,7.2,5.7,10.5
		C342.7,257.7,342.4,258.1,342,258.6z"/>
	<path class="st0" d="M430,632.8c0,9.4,0,18.5,0,27.6c-0.3,0.1-0.5,0.3-0.8,0.4c-1-1.2-1.9-2.4-3.1-3.8c3.5-2.7,4.1-5.6,0.8-8.8
		c-0.4-0.4,0.3-2.5,1-3.5c1.2-1.6,2.4-3.2,0.7-4.7C425.1,636.7,426.9,634.8,430,632.8z"/>
	<path class="st0" d="M211.6,576.3c4.9-2.9,9.8-5.8,14.9-8.9c0.4,2.1,0.7,4.1,1.1,6.3c-5.5,1-10.7,2-15.9,2.9
		C211.6,576.6,211.6,576.5,211.6,576.3z"/>
	<path class="st0" d="M562.1,168.1c-9,7.5-18,15-26.9,22.6c-0.3-0.4-0.6-0.8-1-1.2c8.9-7.6,17.9-15.2,26.8-22.8
		C561.4,167.2,561.7,167.7,562.1,168.1z"/>
	<path class="st0" d="M262,594.1c-1.1-1.4-2-2.7-2.9-3.9c3.5-2.2,6.9-4.3,10.7-6.7c0.8,0.7,1.8,1.6,3,2.7
		C269.3,588.9,265.8,591.4,262,594.1z"/>
	<path class="st0" d="M354.3,459.5c-0.1,2.9-0.3,5.5-0.4,8.8c-3.7-2.9-7-5.5-11.1-8.8C347,459.5,350.5,459.5,354.3,459.5z"/>
	<path class="st0" d="M87.8,304.5c-0.5-4.2-1.6-8.5-1.4-12.6c0.1-2,2.5-3.8,3.9-5.8c0.3,0.2,0.5,0.3,0.8,0.5
		c-0.7,5.9-1.5,11.9-2.2,17.8C88.6,304.5,88.2,304.5,87.8,304.5z"/>
	<path class="st0" d="M376.5,677c2.8,4.4,5.9,8.7,8.5,13.3c2.2,3.8,4,7.8,6.2,12.2c-3.5-0.5-4.6-2-5.7-5.1
		c-2.5-6.9-6.1-13.5-9.2-20.2L376.5,677z"/>
	<path class="st0" d="M247.9,568.9c5.1-2.1,9.5-3.9,13.9-5.7c0.2,0.3,0.4,0.5,0.6,0.8c-2.8,4.5-8.5,5.3-12.5,9.1
		C249,571.3,248.5,570,247.9,568.9z"/>
	<path class="st0" d="M372.6,578.9c-0.1,2.8-2.8,5.7-5.5,5.7c-2.6,0-4.7-2.3-4.6-5c0.1-2.9,2.8-5.8,5.4-5.8
		C370.5,573.9,372.7,576.2,372.6,578.9z M372.8,579.4c-2.2-1.7-3.3-3.3-4.5-3.4c-2.4-0.3-4.4,1.3-4,3.9c0.2,1.2,2.1,3.1,3,3
		C369,582.6,370.4,581,372.8,579.4z"/>
	<path class="st0" d="M397.4,704.5c-2.5-0.3-5.1-0.3-4.1-4.3c0.2-0.8-1.2-1.9-1.7-3c-0.5-1.1-0.8-2.4-1.4-4.1c3.3,1,5,2.1,4.7,5.6
		C394.7,700.5,396.5,702.5,397.4,704.5z"/>
	<path class="st0" d="M197,514.4c1.3,2.3,2.7,4.7,4.2,7.3c-1.8,0.7-3.4,1.4-5.1,2.1c0-3.3,0-6.2,0-9.2
		C196.4,514.5,196.7,514.4,197,514.4z"/>
	<path class="st0" d="M376.3,672.3c6.7,2,6.8,2.1,7.5,9.2C381.2,678.3,379.1,675.7,376.3,672.3z"/>
	<path class="st0" d="M430.3,623.5c0,2.2,0,4,0,6.6c-1.7-1.2-3.1-2.1-4.9-3.4C427.4,625.5,428.8,624.5,430.3,623.5z"/>
	<path class="st0" d="M235.3,572.7c-0.9-2.6-1.7-5.2-2.6-7.8c0.4-0.2,0.9-0.3,1.3-0.5c1,2.6,2,5.1,2.9,7.7
		C236.5,572.3,235.9,572.5,235.3,572.7z"/>
	<path class="st0" d="M246.6,594.7c-1.2-2.5-2.4-5-4-8.2c4.7,1.7,4.7,4.8,4.9,7.9C247.2,594.5,246.9,594.6,246.6,594.7z"/>
	<path class="st0" d="M389.2,691.5c-1.6-2.7-2.7-4.6-4-6.8C390,685.9,390.2,686.2,389.2,691.5z"/>
	<path class="st0" d="M250.7,597.1c1.7,1.9,3.3,3.9,5,5.8c-0.4,0.3-0.7,0.7-1.1,1c-1.8-1.9-3.5-3.7-5.3-5.6
		C249.8,597.9,250.3,597.5,250.7,597.1z"/>
	<path class="st0" d="M238.8,576.3c1,2.6,1.9,5.2,2.9,7.8c-0.4,0.2-0.8,0.3-1.2,0.5c-1.1-2.5-2.1-5.1-3.2-7.6
		C237.7,576.7,238.2,576.5,238.8,576.3z"/>
	<path class="st0" d="M206.3,577.8c0.8,2.6,1.4,4.4,2,6.2c-0.3,0.3-0.5,0.5-0.8,0.8c-1.1-1.5-2.3-2.8-3.1-4.4
		C204.2,579.9,205.5,578.8,206.3,577.8z"/>
	<path class="st0" d="M424.4,628.4c1.2,0.9,2.1,1.7,3.4,2.8c-1.1,1.3-2.1,2.4-3.4,4C424.4,632.7,424.4,630.7,424.4,628.4z"/>
	<path class="st0" d="M171.9,187.6c-1.1-2.3-2.3-4.6-3.4-6.9c0.5-0.2,1-0.5,1.4-0.7c1.1,2.3,2.2,4.7,3.3,7
		C172.7,187.2,172.3,187.4,171.9,187.6z"/>
	<path class="st0" d="M423.6,624.2c0.6-1.4,1.1-2.9,1.9-4.2c0.1-0.2,1.5,0.4,2.3,0.7c-0.9,1.4-1.9,2.8-2.8,4.3
		C424.5,624.7,424,624.5,423.6,624.2z"/>
	<path d="M303.1,217.7c-10.5-22,3.8-61.7,26.2-68.9c-10.5,8.4-19.1,18.4-21.6,31.8C305.2,193.1,304.4,206.1,303.1,217.7z"/>
	<path d="M476.1,190.8c-22.9,9.6-46.2,15.1-70.6,5C429.7,202.4,452.9,197.6,476.1,190.8z"/>
	<path d="M50.5,240.6c-28.7-19.7-28.5-66,0.3-83.3c-10.6,11.8-18.3,24.9-17.7,41.4C33.7,214.8,40.7,228.3,50.5,240.6z"/>
	<path d="M246.8,492.6c0.1-3.7,3.3-7,6.9-6.9c3.8,0,7.2,3.4,7.2,7.1c0,4-3.2,7.1-7.1,7.1C249.9,499.8,246.7,496.5,246.8,492.6z
		 M253.6,498.4c3,0.1,5.8-2.6,5.8-5.7c0-3.2-2.3-5.5-5.4-5.6c-2.9,0-5.7,2.5-5.8,5.4C248.2,495.4,250.8,498.3,253.6,498.4z"/>
	<path d="M257.6,509.4c0,3.7-3.3,7-6.8,7c-4,0-7.5-3.5-7.4-7.3c0.1-3.7,3.3-6.9,6.9-7C254.3,502,257.6,505.3,257.6,509.4z
		 M250.2,514.9c3.1,0,5.8-2.6,5.9-5.7c0.1-3-2.5-5.5-5.5-5.5c-3.2,0-5.8,2.5-5.9,5.6C244.6,512.2,247.3,514.9,250.2,514.9z"/>
	<path d="M219.6,639.3c-6.1-12.4-15.6-21.1-28.1-26.8C204.4,612.7,218.6,626.2,219.6,639.3z"/>
	<path d="M425,484.8c0.9-3.5,2.8-4.8,6.1-3.6c6.4,2.4,11.3,6.6,14.2,13c0.4,0.9,1.2,2.1,2.1,2.3c6.6,1.6,10.7,6.2,14,11.6
		c1.4,2.3,2,5,0.2,7.5c-1.8,2.4-4.4,2.1-6.9,1.3c-0.4-0.1-0.9-0.1-0.9-0.1c-0.1,1.6-0.2,3-0.3,4.5c-1.5-0.5-3.3-0.5-4.4-1.5
		c-5.1-4.6-10-9.6-15.1-14.3c-4.9-4.6-10.1-8.9-14.9-13.5c-1.1-1.1-2-3.6-1.5-4.6c0.7-1.3,2.9-2,4.6-2.6
		C422.9,484.3,423.9,484.7,425,484.8z M443.9,498.7c-0.1,0.4-0.2,0.8-0.4,1.2c1.3,0.6,2.5,1.6,3.8,1.7c4.4,0.4,7.3,3,9.4,6.5
		c0.6,1,0.4,2.6,0.5,4c-1.4-0.1-3.1,0.3-4.2-0.3c-2.9-1.7-5.4-4-8.2-5.8c-2.6-1.7-5.3-2.6-8.8,0c5.1,4.6,10,9.1,14.4,13.1
		c-2.3-2.7-5-5.7-7.6-8.8c-0.5-0.6-0.5-1.6-0.7-2.5c0.9,0.1,1.8,0,2.5,0.3c1,0.4,1.7,1.3,2.6,1.9c2.7,1.7,5.4,3.6,8.3,5
		c1,0.5,3.1,0.1,3.8-0.7c0.7-0.8,1-2.9,0.5-3.9c-2.6-5.3-6.3-9.7-12.3-11.3C446.4,498.6,445.1,498.8,443.9,498.7z M429.4,490.5
		c0.1-0.4,0.2-0.7,0.4-1.1c-2.7-0.9-5.4-2-8.2-2.6c-1.4-0.3-3.3,1-1.8,2.6c4.3,4.6,9,8.9,13.5,13.3c0.2-0.2,0.5-0.5,0.7-0.7
		c-0.6-0.7-1.2-1.4-1.8-2c-2.2-2.1-4.4-4-6.5-6.2c-0.6-0.7-1-2.1-0.7-2.8c0.3-0.6,1.8-0.8,2.7-1C428.3,490,428.9,490.3,429.4,490.5z
		 M432.7,493.6c1.8,1.4,3.5,3.1,5.4,3.9c1.1,0.4,3-0.3,4.1-1.2c0.5-0.4,0.2-2.5-0.5-3.4c-1.4-2-3.2-3.6-4.6-5.2
		c0.5,2.2,1.1,4.4,1.6,6.5C437,494,435.2,493.8,432.7,493.6z M454.8,510.4c-1.6-4.7-4-6.4-7.8-5.9
		C449.8,506.6,452.3,508.5,454.8,510.4z M442.1,502c0.1-0.3,0.2-0.7,0.3-1c-2.3-0.5-4.6-1-7-1.5C436.3,504.2,439.8,501.5,442.1,502z
		"/>
	<path d="M179.8,560.8c1-6,2-12.1,3.1-18.1c0.5-2.8,2.3-4.2,5.1-5.4c3.3-1.4,6.1-4,9.1-6.1c2.1-1.5,4.1-3.7,6.5-4.2
		c7.2-1.4,14.5-2.1,21.8-3.1c2-0.3,3,0.5,3.3,2.7c0.3,2,1.6,3.8,2.3,5.8c0.4,1.3,1.1,3.2,0.5,4c-10.7,15.9-24.1,28.4-43.4,33.1
		c-0.7,0.2-1.4,0.3-2.1,0.4c-4.5,0.6-5.7-0.4-5.8-4.9c0-1.4,0-2.9,0-4.3C180,560.8,179.9,560.8,179.8,560.8z M187.9,549.4
		c-1.2,1.6-2.6,3-3.7,4.7c-1.3,2.2-3,4.6-0.4,7.1c-0.6,2.1-1.2,4.2-1.8,6.6c11.5-0.4,25.5-8.4,32.6-14.6c2.7-2.4,2.1-7-1.2-7.5
		c-2.5-0.4-3.8-1.9-5.3-3.5c-2.5-2.6-6.2-2.6-8.7,0c-1.8,1.9-3.6,3.8-5.4,5.7c-0.5-2.1-1.6-2.8-3.6-1.6c-1.3,0-2.9-0.5-3.8,0
		c-2.5,1.5-3.4,3.9-2.9,7.7C185.4,552.1,186.6,550.8,187.9,549.4z M218.1,550.4c4.4-5.5,8.4-10.4,11.8-14.7
		c-1.6-3.6-2.9-6.4-4.6-10.1c-6.1,1-12.9,2.1-19.8,3.2c-3.3,0.5-5.8,2-7.7,4.7c-2.5,3.4-5.6,5.8-9.9,6.7c-1.2,0.2-2,2-3.1,3.2
		c3.8,0.3,6.9,0.5,10.7,0.7c1.2-1.3,3.2-3.1,4.9-5c1.8-2.1,3.4-4.3,5.2-6.4c1.9-2.3,5.3-3,7.4-1.5c2.5,1.8,1.7,4,0.6,6.1
		c-0.9,1.8-1.8,3.5-3.1,5.9C215,543.4,217.6,545.4,218.1,550.4z M206.4,535.2c1.8,0.6,3.4,1.1,6.1,2c-0.3-1.9-0.2-4.2-0.9-4.6
		C209.1,531.4,207.3,532.7,206.4,535.2z"/>
	<path d="M126,207.1c0-2.6,0-4.1,0-5.7c-0.1-2.4,1.1-3.7,3-5.2c2.5-1.9,4.2-4.7,6.3-7.1c1.5-1.6,3-4,4.8-4.3
		c7.3-1.1,14.8-1.6,22.1-2.2c0.6,0,1.2,0.2,1.7,0.5c1.4,0.8,4.3,9.8,3.4,11.3c-7.3,12.7-15.7,24.2-30.2,29.7
		c-6.1,2.3-7.9,1.6-9.5-4.7c-0.5-2.2-0.9-4.5-1.3-6.7C126.2,210.5,126.1,208.3,126,207.1z M147.2,216.3c0.2-0.2,0.4-0.4,0.6-0.6
		c0.8-0.5,1.9-0.8,2.4-1.5c5.3-6.8,10.9-13.4,15.3-20.7c1.1-1.9-1.5-6.1-2.5-9.2c-0.1-0.2-0.9-0.4-1.3-0.3c-7.2,1-14.4,1.9-21.6,3.1
		c-1,0.2-2,1.5-2.7,2.5c-1.3,1.9-2.3,3.9-3.5,5.8c-0.2,0.2-0.3,0.3-0.5,0.5c-1.6,0.7-3.2,1.3-5.4,2.2c0.7,7.4,1.3,14.8,2.1,22.2
		c0.2,1.7,0.9,4.2,3.3,3.1C138.1,221.4,142.6,218.8,147.2,216.3z"/>
	<path d="M207.9,600.4c1.8-0.2,3.6-0.4,5.4-0.6c0,0.7,0.2,1.9-0.1,2.2c-1.8,1.4-3.6,1.3-5.1-0.2C208,601.3,207.9,600.9,207.9,600.4z
		"/>
	<path d="M207.4,590.1c1.3-0.9,2.1-1.9,2.8-1.8c0.7,0.1,1.8,1.3,1.7,2c0,0.7-1.2,1.8-1.9,1.9C209.3,592.2,208.6,591.1,207.4,590.1z"
		/>
	<path d="M428.1,680.9c0.9,1.1,1.5,1.8,2.1,2.5c-1.1,0.7-2.1,1.7-3.3,2.1c-0.5,0.2-1.4-1-2.1-1.6
		C425.8,683.1,426.8,682.2,428.1,680.9z"/>
	<path d="M372.8,579.4c-2.4,1.6-3.8,3.2-5.4,3.4c-0.9,0.1-2.9-1.8-3-3c-0.4-2.6,1.5-4.1,4-3.9C369.5,576.1,370.6,577.7,372.8,579.4z
		"/>
	<path class="st0" d="M337.5,339.6c-5.2,0.1-9.2-3.9-9.3-9.4c-0.1-5,3.7-9.1,8.6-9.2c5.1-0.1,9.1,3.8,9.3,9
		C346.2,335.5,342.6,339.6,337.5,339.6z M342.6,330.3c0-3.1-2.5-5.8-5.5-6c-3.2-0.1-5.8,2.4-5.8,5.9c0,3.3,2.3,5.7,5.6,5.8
		C339.9,336,342.5,333.4,342.6,330.3z"/>
	<path class="st0" d="M276.9,325.2c-0.3-1.6-0.6-3.1-1-4.7c-2.4,3.1-4.7,6.8-7.7,9.8c-13.8,13.5-29.3,23.2-49.5,23.6
		c-25,0.5-34.3-17.6-34.9-34.4c-0.1-2.3,0-4.5,0-6.8c-0.5,0.3-1.3,0.7-2.4,1.3c-1.7-6.3,1.6-11.2,2.7-16.7c-0.7,1-1.2,2.2-2,3.1
		c-0.5,0.5-1.5,1.1-1.9,0.9c-0.6-0.2-1.3-1.3-1.2-1.8c0.3-1.9,0.6-3.9,1.6-5.4c2.8-4.2,5.9-8.2,8.8-12.3c0.5-0.6,1-1.3,1.1-2.3
		c-1.3,0.9-2.6,1.8-4.7,3.2c-0.3-1.6-0.8-2.8-0.6-3.8c1.4-7,9.6-16.9,16.8-20.2c-0.9,2.1-1.8,4.1-2.6,6.1c0.2,0.2,0.4,0.3,0.6,0.5
		c5-3.7,9.9-7.3,14.9-11c0.1,0.2,0.3,0.4,0.4,0.7c-2.1,2.5-4.2,5-6.3,7.6c6.2-4.7,11.8-10,20.3-9.8c8.2,0.2,14.6,4.2,20.7,10.1
		c-0.1-1-0.1-1.5-0.1-2.3c9.8,2.6,17.9,7.6,24.5,15.2c0.5,0.6,1.2,1.4,1.3,2.1c0.1,1.5-0.1,3.1-0.2,4.6c-1.4-0.4-2.9-0.8-4.2-1.4
		c-0.5-0.3-0.8-1.1-1.5-1.4c2.6,5.6,5.5,11.1,7.6,16.8c2.7,7.2,4.4,14.8,3.8,22.6c-0.2,3-1.2,5.4-4.6,5.9
		C276.8,325.1,276.9,325.2,276.9,325.2z M266.8,285.5c-1.6,0.4-2.1,0.5-2.5,0.7c-7.2,3.9-13.9,2.9-20.8-1.2
		c-10.7-6.5-21.6-8.2-33-1.1c-20.1,12.5-22.6,36.4-16.2,53.9c1.2,3.2,3,7.1,5.7,8.7c3.8,2.3,8.6,3.7,13,3.7
		c14.6-0.2,27.2-6.1,38.2-15.6c6.7-5.8,10.3-13.2,11.3-21.9c0.3-2.2,0-4.5,0-6.9c4.4-0.3,8.7-0.7,12.1-4.1c-3.3-0.3-6.2-0.7-9.2-1
		c3.4-2.1,7.2-3.1,8.6-7.3c-2.6,0.7-5,1.3-7.9,2c1.8-2.3,3.2-4,4.6-5.7c-0.2-0.2-0.4-0.4-0.6-0.6c-2.3,0.7-4.5,1.3-7.5,2.1
		C264.2,289.2,265.2,287.8,266.8,285.5z"/>
	<path class="st0" d="M253.6,498.4c-2.8-0.1-5.4-3-5.3-5.8c0.1-2.9,2.8-5.4,5.8-5.4c3.1,0,5.4,2.4,5.4,5.6
		C259.4,495.9,256.6,498.5,253.6,498.4z M257.5,492.7c-1.7-1.5-2.6-2.9-3.8-3.1c-0.6-0.1-2.5,1.8-2.3,2.6c0.2,1.2,1.4,2.6,2.6,3.1
		C254.4,495.6,255.8,494,257.5,492.7z"/>
	<path class="st0" d="M250.2,514.9c-2.9,0-5.6-2.7-5.5-5.6c0.1-3.2,2.7-5.6,5.9-5.6c3,0,5.5,2.6,5.5,5.5
		C256,512.3,253.3,514.9,250.2,514.9z M253.8,510.5c-0.3-0.5-0.5-1.1-0.8-1.6c-0.9-0.8-1.8-1.6-2.7-2.4c-0.7,0.8-2.1,1.8-1.9,2.3
		c0.3,1.1,1.3,2.5,2.3,2.9C251.4,512.1,252.7,511,253.8,510.5z"/>
	<path class="st0" d="M443.9,498.7c1.2,0.1,2.5-0.1,3.6,0.2c6,1.6,9.7,6,12.3,11.3c0.5,1,0.3,3.1-0.5,3.9c-0.7,0.8-2.8,1.1-3.8,0.7
		c-2.9-1.4-5.6-3.2-8.3-5c-0.9-0.6-1.7-1.4-2.6-1.9c-0.7-0.3-1.7-0.2-2.5-0.3c0.2,0.8,0.2,1.8,0.7,2.5c2.6,3.1,5.3,6.2,7.6,8.8
		c-4.4-4-9.3-8.4-14.4-13.1c3.4-2.6,6.2-1.7,8.8,0c2.8,1.9,5.3,4.1,8.2,5.8c1.1,0.6,2.8,0.2,4.2,0.3c-0.1-1.3,0.1-2.9-0.5-4
		c-2.1-3.5-5-6.1-9.4-6.5c-1.3-0.1-2.6-1.1-3.8-1.7C443.7,499.5,443.8,499.1,443.9,498.7z"/>
	<path class="st0" d="M429.4,490.5c-0.5-0.1-1.1-0.5-1.6-0.4c-1,0.2-2.4,0.3-2.7,1c-0.3,0.7,0.1,2.2,0.7,2.8c2,2.2,4.3,4.1,6.5,6.2
		c0.7,0.6,1.2,1.3,1.8,2c-0.2,0.2-0.5,0.5-0.7,0.7c-4.5-4.4-9.2-8.7-13.5-13.3c-1.5-1.6,0.3-2.9,1.8-2.6c2.8,0.5,5.4,1.7,8.2,2.6
		C429.6,489.8,429.5,490.1,429.4,490.5z"/>
	<path class="st0" d="M432.7,493.6c2.5,0.3,4.3,0.5,6.1,0.7c-0.5-2.2-1.1-4.4-1.6-6.5c1.4,1.6,3.2,3.2,4.6,5.2
		c0.6,0.9,0.9,3,0.5,3.4c-1.1,0.8-3,1.6-4.1,1.2C436.2,496.7,434.6,495,432.7,493.6z"/>
	<path class="st0" d="M454.8,510.4c-2.5-1.9-5-3.8-7.8-5.9C450.8,504,453.3,505.6,454.8,510.4z"/>
	<path class="st0" d="M442.1,502c-2.3-0.5-5.7,2.2-6.8-2.5c2.4,0.5,4.7,1,7,1.5C442.3,501.3,442.2,501.6,442.1,502z"/>
	<path class="st0" d="M194,547.8c1.8-1.9,3.6-3.8,5.4-5.7c2.5-2.6,6.2-2.6,8.7,0c1.5,1.6,2.8,3.1,5.3,3.5c3.2,0.5,3.9,5.2,1.2,7.5
		c-7.1,6.2-21.1,14.2-32.6,14.6c0.7-2.4,1.2-4.5,1.8-6.6C187.2,556.7,190.6,552.3,194,547.8z M191.8,558c0.2,0.2,0.5,0.4,0.7,0.6
		c3.5-4.7,7-9.4,10.4-14.1c-0.2-0.2-0.5-0.3-0.7-0.5C198.8,548.7,195.3,553.4,191.8,558z"/>
	<path class="st0" d="M218.1,550.4c-0.5-5-3.2-7-7.6-7.2c1.2-2.4,2.2-4.1,3.1-5.9c1-2.1,1.8-4.3-0.6-6.1c-2.1-1.5-5.5-0.7-7.4,1.5
		c-1.7,2.1-3.3,4.4-5.2,6.4c-1.7,2-3.7,3.8-4.9,5c-3.8-0.3-6.9-0.5-10.7-0.7c1.1-1.2,2-3,3.1-3.2c4.3-0.9,7.4-3.3,9.9-6.7
		c2-2.7,4.5-4.2,7.7-4.7c6.8-1.1,13.7-2.2,19.8-3.2c1.7,3.7,3,6.5,4.6,10.1C226.5,540,222.5,544.9,218.1,550.4z"/>
	<path class="st0" d="M194,547.8c-3.4,4.4-6.8,8.9-10.2,13.3c-2.6-2.5-0.9-4.9,0.4-7.1c1-1.7,2.4-3.2,3.6-4.7c0.8-1,1.7-2.1,2.5-3.1
		C192.4,545,193.5,545.7,194,547.8z"/>
	<path class="st0" d="M190.4,546.3c-0.8,1-1.7,2.1-2.5,3.1c-1.3,1.4-2.5,2.8-4.2,4.6c-0.5-3.7,0.4-6.2,2.9-7.7
		C187.6,545.8,189.1,546.3,190.4,546.3z"/>
	<path class="st0" d="M206.4,535.2c1-2.5,2.8-3.8,5.2-2.6c0.8,0.4,0.6,2.7,0.9,4.6C209.8,536.3,208.1,535.8,206.4,535.2z"/>
	<path class="st0" d="M133.9,195.5c1.1-2,2.2-4,3.5-5.8c0.7-1,1.7-2.4,2.7-2.5c7.2-1.2,14.4-2.1,21.6-3.1c0.4-0.1,1.3,0.1,1.3,0.3
		c1,3.1,3.6,7.3,2.5,9.2c-4.4,7.3-10.1,13.9-15.3,20.7c-0.5,0.7-1.6,1-2.4,1.5c0.9-1.1,1.9-2.1,2.6-3.4c1.9-3.3,1.3-7.4-1.2-9.6
		c-2.4-2.1-5.2-1.9-8.8,0.8c-0.7,0.5-1.3,1-1.9,1.5C141.4,197.9,140.2,195.3,133.9,195.5z M151.7,192.7c-1.8-4.2-3.2-5.1-6.2-3.9
		c-3.7,1.5-6.3,5.9-4.8,8.5c2.4,4.1,5.4,1.6,8.2,0.3c1.6,4.1,3.2,5,6.1,3.8c3-1.2,5.1-4.9,4.3-7.5
		C158.5,191.3,156.6,191,151.7,192.7z"/>
	<path class="st0" d="M147.2,216.3c-4.6,2.4-9.1,5.1-13.8,7.2c-2.4,1.1-3.1-1.4-3.3-3.1c-0.8-7.4-1.4-14.7-2.1-22.2
		c2.2-0.9,3.8-1.6,5.4-2.2c-0.3,0.5-0.7,1-1,1.5c-1.6,2.3-2.5,4.8-0.7,7.4c1.8,2.5,4.1,1.1,6.2,0.6c-1.5,2.8-3.1,5.6-4.2,8.6
		c-0.4,1,0.4,3,1.3,3.7c0.9,0.6,2.6,0.2,3.9-0.1c0.8-0.2,1.5-1.1,2.2-1.7c0.1,0.3,0.1,0.7,0.2,1
		C143.2,216.7,145.2,216.5,147.2,216.3z"/>
	<path d="M147.2,216.3c-2,0.2-4,0.4-5.9,0.6c-0.1-0.3-0.1-0.7-0.2-1c-0.7,0.6-1.4,1.5-2.2,1.7c-1.3,0.3-3,0.7-3.9,0.1
		c-0.9-0.6-1.6-2.7-1.3-3.7c1.1-3,2.8-5.7,4.2-8.6c0.2-0.1,0.4-0.2,0.6-0.4c0.6-0.5,1.3-1,1.9-1.5c3.6-2.7,6.4-2.9,8.8-0.8
		c2.5,2.2,3,6.3,1.2,9.6c-0.7,1.2-1.7,2.3-2.6,3.4C147.6,215.9,147.4,216.1,147.2,216.3z M136.3,216.6c2.1-0.6,4.2-1.5,6.3-1.5
		c4.4,0,8.3-4.9,6.3-8.8c-0.6-1.3-2.8-2.7-4.1-2.5C140.5,204.1,135.6,211.8,136.3,216.6z"/>
	<path d="M138.5,205.1c-0.2,0.1-0.4,0.3-0.6,0.4c-2.1,0.5-4.4,1.9-6.2-0.6c-1.8-2.6-0.9-5,0.7-7.4c0.3-0.5,0.7-1,1-1.5
		c0.2-0.2,0.3-0.3,0.5-0.5C140.2,195.3,141.4,197.9,138.5,205.1z M135.7,196.5c-1.3,2.4-2.4,3.8-2.7,5.3c-0.2,0.7,1.2,1.6,1.8,2.5
		c1.1-1.4,2.3-2.7,3-4.2C138,199.6,136.8,198.4,135.7,196.5z"/>
	<path d="M257.5,492.7c-1.7,1.3-3,2.8-3.6,2.6c-1.1-0.6-2.4-1.9-2.6-3.1c-0.1-0.8,1.7-2.7,2.3-2.6
		C254.9,489.9,255.8,491.2,257.5,492.7z"/>
	<path d="M253.8,510.5c-1.1,0.5-2.4,1.6-3.1,1.3c-1-0.4-2-1.8-2.3-2.9c-0.2-0.6,1.2-1.6,1.9-2.3c0.9,0.8,1.8,1.6,2.7,2.4
		C253.2,509.4,253.5,510,253.8,510.5z"/>
	<path d="M191.8,558c3.5-4.7,7-9.3,10.5-14c0.2,0.2,0.5,0.3,0.7,0.5c-3.5,4.7-7,9.4-10.4,14.1C192.3,558.5,192.1,558.2,191.8,558z"
		/>
	<path d="M151.7,192.7c4.9-1.7,6.8-1.3,7.7,1.3c0.8,2.6-1.3,6.3-4.3,7.5c-2.9,1.2-4.4,0.2-6.1-3.8c-2.8,1.3-5.9,3.7-8.2-0.3
		c-1.6-2.7,1.1-7.1,4.8-8.5C148.5,187.6,149.9,188.4,151.7,192.7z M147.6,190.3c-0.4-0.1-0.8-0.2-1.3-0.3c-1.2,1.7-2.5,3.4-3.5,5.2
		c-0.2,0.3,1,1.4,1.6,2.1c1.4-1.5,3-3,4.2-4.7C148.9,192.3,148,191.1,147.6,190.3z M153.2,200.9c1.6-2.2,2.8-3.6,3.7-5.1
		c0.2-0.3-0.8-1.2-1.3-1.9c-1.3,1.2-2.7,2.3-3.7,3.7C151.6,197.9,152.4,199.1,153.2,200.9z"/>
	<path class="st0" d="M136.3,216.6c-0.8-4.8,4.2-12.5,8.5-12.9c1.3-0.1,3.4,1.3,4.1,2.5c2,4-1.9,8.8-6.3,8.8
		C140.5,215,138.4,216,136.3,216.6z"/>
	<path class="st0" d="M135.7,196.5c1.2,1.9,2.4,3.1,2.1,3.6c-0.7,1.5-2,2.8-3,4.2c-0.6-0.8-2-1.8-1.8-2.5
		C133.3,200.3,134.4,198.9,135.7,196.5z"/>
	<path class="st0" d="M333.2,330.5c-0.3-2.2,2.1-4,2.9-3.7c1.8,0,4.4,0.3,4.4,3.6c-0.2,2.9-2.6,3.6-3.9,3.5
		C335.4,333.8,332.9,332.9,333.2,330.5z"/>
	<path class="st0" d="M258,320.4c-2.4-14.8-11.8-24.3-25.7-26.1c-10.8-1.4-21.9,5.2-26.4,15.6c-5.8,13.5-1.7,25.1,14.3,38.5
		c-6-0.4-11.2-0.2-16-1.4c-2.6-0.7-5.2-3.6-6.6-6.1c-7.8-14.6-4.8-41.8,15.1-52.9c7.6-4.2,15.2-5.1,23.1-1.6
		c11.4,5,19.4,13.3,23.3,25.1c0.9,2.7,0.1,5.9,0.1,8.9C258.8,320.4,258.4,320.4,258,320.4z"/>
	<path class="st0" d="M204.9,324.9c0-15.8,7.9-25.8,19.7-28.5c11.6-2.6,24.5,3.7,29.5,15.1c5.2,11.7,4.8,13.1-4.1,21.8
		c-7,6.8-15.6,11.3-25.1,13.6c-2,0.5-4.7,0.1-6.4-0.9C211.4,339.2,205,332.1,204.9,324.9z M211.4,320.1c-0.3,7.9,5,15,12.9,17.3
		c8.1,2.4,16.7-0.7,20.9-7.5c4.3-7.1,3.3-15.9-2.4-22c-5.4-5.7-14.9-7.3-21.6-3.6c-1.9,1.1-2,2.3-1.6,4.2
		C221.5,316.5,219.6,319.1,211.4,320.1z"/>
	<path class="st0" d="M147.6,190.3c0.4,0.8,1.3,2,1.1,2.3c-1.2,1.7-2.8,3.2-4.2,4.7c-0.6-0.7-1.8-1.8-1.6-2.1c1-1.8,2.3-3.5,3.5-5.2
		C146.7,190.1,147.2,190.2,147.6,190.3z"/>
	<path class="st0" d="M153.2,200.9c-0.8-1.8-1.6-3-1.3-3.3c1.1-1.4,2.5-2.5,3.7-3.7c0.5,0.6,1.5,1.6,1.3,1.9
		C156,197.3,154.8,198.6,153.2,200.9z"/>
</g>
</svg>
