<?xml version="1.0" encoding="utf-8"?>
<!-- Generator: Adobe Illustrator 26.0.0, SVG Export Plug-In . SVG Version: 6.00 Build 0)  -->
<svg version="1.1" id="Capa_1" xmlns="http://www.w3.org/2000/svg" xmlns:xlink="http://www.w3.org/1999/xlink" x="0px" y="0px"
	 viewBox="0 0 595.3 860.3" style="enable-background:new 0 0 595.3 860.3;" xml:space="preserve">
<style type="text/css">
	.st0{fill:#FFFFFF;}
</style>
<g>
	<path d="M86.6,362.6c-9.2-19.8-26.5-37.3-22.5-60.6c-2.7-8.8-4.8-17.3-2.7-26.5c0.6-3.3-0.2-5.3-3.1-6.9
		C32.3,253.9,6.6,233,0.8,202C-10,145.3,79.7,122.3,110.6,81.7c14.1-13.8,16.9-26.5,11-45.1c14.3,1.4,24.4,21,21,34.3
		c23.3-14.1,39.7-38.9,35-66.9c0.1-3.7,1.9-5.1,5.2-3c13.7,9.5,16,22.6,12.2,38.8c5.9,13.4,1,26-7.1,36.8
		c13.3-7.4,22-30.5,16.1-46.3c5.8,7.7,7.2,16.7,7.6,26c0.3,0.1,0.6,0.1,1,0.2c1.2-5.5,2.5-11,3.8-16.7c20.7,31.7-4.1,48-26.7,67
		c10.1-3,19.8-2.6,28.9,3c-26.9,5.2-42.9,25.2-49.7,42c19.7-14.2,49.2-10.7,60.5-35.3c3.6,10.4-2.5,20.4-19.4,31.3
		c26.4-2,51.4-0.1,76,8.6C313.2,33.7,394.4,127.8,494.6,67c-1.1,6.9-6.3,11.3-9.9,17.6c41.2-20.4,50-24.1,76.6-61.7
		c5.2,9.9-0.8,20.6-2.7,30.5c14.2-19.2,6.5,12.2,4.3,18.9c-4.9,14.6-16.2,24.2-29.8,30.8c15.4,1.6,32.3-11.6,41.9-23.4
		c5.8-4.8,12.9-15,20.3-15.7c-0.3,4.2-3.8,7.8-5.9,10.7c1.3,1.8,3,3.1,3.1,4.4c2.6,22.1-5.4,46.2-25.6,56.8
		c9.1,3.1,19.5,4.4,26.7,11.3c10.3,10.7-23.1,1.2-33.6,29.6c-26,54.6-92.9,76.9-149.5,63.7c-13.1-3.4-25.6-8.4-37.6-14.7
		c-3.2-1.7-4.4-1.8-7.9-0.4c14.4,36.6,15,75.5,6.4,113.5c4.1,22.9-8.3,39.7-31.4,42.2c-0.6,17.5-15,27.9-25.8,39.5
		c0.2,0.3,0.3,0.6,0.5,0.9c19.7-5.7,39.3-11.7,59.8-13.7c53.2-7.1,90.2,40.7,96.2,89.1c9.5,22.2,9.5,44.3,0.8,66.7
		c-1.6,6.2-4.8,14.4-12.3,11.3c-4.4,3.9-8.6,7.6-13.1,11.7c4.8,8.2,9.9,16.7,14.7,25.5c6.1,13.2,16.3,25.5,18.4,40
		c0.2,4.6,2.4,8,5.1,11.5c22.6,29.2,38.8,61.4,45.1,98.1c3,24.3,6,51.6-4.8,74.1c-0.8-1.8-2.2-3.6-2.4-5.5
		c-1.3-14.7-4.7-29-9.8-42.9c-2.8,2.9-3.8,2.8-5.2-0.8c-3.3-8-5.6-16.5-9.5-24.2c-5.9-10.8-11.4-22.1-18.9-31.9
		c-5.2,22.8-10,44.6-15.4,67.2c-1.8,4.3-4.1,15.4-10.8,11.3c-5.7,6.6-7.1,6.9-10.7,2.2c-6.2,7-13.9,11-23.7,9.9
		c4,15-1.9,41.1-21.8,37.4c-0.8-0.3-2,0.2-2.9,0.6c-7.6,4-15.5,0.4-17.7-7.9c-13.3-11.4-13.2-21.1-4.6-36.1
		c11.1-13.1,8.5-34,24.9-42.7c2.2-1.2,4.4-6.7,3.4-8.8c-3.9-7.4-7.4-15.5-13.5-21.4c-4.2,18.6-0.8,43.7-20.8,53.4
		c-5.4,3.7-10.8-0.2-16.6,1c-6.2,1.4-9.7-3-13.8-6.5c-16.7-4.1-9.6-24-0.1-32.3c-14.7,1-28.1-0.4-39.8-7.3c-2,1.2-3.5,2-4.9,2.9
		c-6.1-10.1-5.6-23-2.8-34.3c-16.4-10.1,45.5-38.2,52.2-45.6c-25.6-11.2-51.6-19.6-77.7-29.1c-5.6,0.8-8.6,8.2-12.7,11.9
		c-7.4,10.4-39.7,4.1-53.3,5.7c-1,4.2-2,8.6-6.8,9.4c-9,0.1-24.1,9.1-28.4-2.9c-4.1,2.2-7.8,3.9-10.5,7.8
		c-8.4,12.4-26.1,25.6-41.2,16.8c-0.7-0.5-1.8-0.7-2.6-0.5c-10.5,3.4-16.6-6.7-26.4-7.6c-25.3-13.9,1-35,12.6-48.2
		c10.1-10.8,20.7-22.3,36.4-23.2c1.8-0.2,3.1-0.6,4.3-2.5c8-7.5,25.4-7.4,36.1-7.5c5.6-1.1,10.1-5.6,15.2-8.3
		c3.5-2.4,3-7.4,4.6-11.1c-6.3,0-8.8,2-11.1-4.8c-6.2-12.2-1.6-25.7,0.1-38.4c1.2-12.7,16-4.1,16-17.1c-1-4.7,3.6-10.2,0.1-14
		c-5.1-4.4-9.8-9.3-15.3-13c-11-5.7-4.2-17.7-4.6-27.3c-6.3-17.6-29.9-29.6-45.9-37.9c-20.4-4.8-41.5-12.1-52.3-31.7
		C65.8,378.6,58.5,370.9,86.6,362.6z"/>
	<path class="st0" d="M486.8,75.3c-20.2,29.8-48.9,38.4-83.2,32.7c25.5,6.8,52.2,1.5,72.8-15.2c35.7-20.5,59-24.1,82.7-62.8
		c-1.2,12.8-5.3,25.5-14.3,35c-0.7,0.7-0.6,2.2-0.8,3.4c7.4-1.2,12.1-9.6,18.5-14.1c-2,19.2-12.5,34.9-28.9,44.8
		c-5.7,3.5-11.6,5.9-18.3,7.1c-12.9,2.2-24.4,8.1-35.6,14.6c-17.6,11.2-35.6,18.7-56.7,21.6c31.2,1.8,53.4-17.5,80.1-28.6
		c8.1-3.2,16.9-5.3,25.5-6c26.7-0.6,41.2-20.8,59.1-37.4c-2.8,5.5-5.9,10.8-5.8,17c0.4,0.2,0.9,0.4,1.3,0.6c1.6-2.8,3.3-5.5,4.9-8.3
		c0.2,0,0.5,0.1,0.7,0.1c3.5,80.8-70.1,42.1-93.8,89.5c12.7-12.9,27.7-21.9,45.6-25.1c17.2-6,35.4-6.3,50.3,5.8
		c-5.9,0.8-10.9,3.9-17.1,3.9c-24.7-1.1-45.6,12.5-64.7,26.6c19-12,38-24,62.5-23.6c-15.2,8.8-28.4,19.7-40.5,32.2
		c-10.3,11-23.3,16.3-37,21.2c21.6,1.2,38.3-14.6,54.9-25.6c-28.2,41.8-81.3,58.1-129.8,51.6c-24.2-3.5-45.1-15.8-66.4-26.9
		c-0.3,0.5-0.6,0.9-0.9,1.4c4,3.4,8,6.9,12.4,10.7c-20.2,1.6-28.3,15.6-33.2,33.4c-12.3-7.6-51.1-29.3-47.7-45.3
		c3.9-28.9,2-59.5,17.5-85.6c18.8-38.1,62.6-29.3,97.7-28.2C428.8,96.1,460.6,91.3,486.8,75.3z M303.1,217.7
		c2.4-24.5,2.6-53.5,26.2-68.9C306.9,156,292.6,195.6,303.1,217.7z M476.1,190.8c-23.1,6.8-46.4,11.6-70.6,5
		C429.9,205.9,453.1,200.4,476.1,190.8z"/>
	<path class="st0" d="M61.7,269.1C28.3,248.9-15.5,210,10.4,168.3C35,129.7,146.5,96.7,125.1,40.5c7.5,2.5,14,14.3,15.1,22.9
		c3.3,11.9-12.1,15.7-18.8,22.9c0.2,0.3,0.4,0.6,0.6,1c33.2-16.5,65.8-42.1,59.1-83.3c15.4,9.3,11.2,27.3,8.2,41.5
		c0.6-0.7,1.7-2.3,3.3-4.3c9.2,63.4-82.3,43-94.1,92.9c24.3-44.9,88-27.9,109.4-77.2c-0.9,6.1-1.8,12.1-2.6,17.9
		c3.1-3.1,10.1-19.2,11.4-26.6c18.7,37.6-44.1,50.5-54.3,89.3c10.9-17.3,25.9-32.7,48-28.7c-24.3,6.7-40,21.6-45.3,46.5
		c19.1-12.2,44.7-10.8,60.3-28.6c-8.4,30.7-72,20.1-117.6,66.8c-11.2-22.4,2.9-41.7,17.4-58.6c-22.1,15.4-32.7,39.3-19.2,61
		C85.6,216.6,68.3,239.3,61.7,269.1z M50.5,240.6c-21.5-24.1-23.9-60.1,0.3-83.3C22,174.6,21.8,220.9,50.5,240.6z"/>
	<path class="st0" d="M294.7,407.8c-3.5,7.6-5.2,17.6-12.4,25.7c-1-2.1-1.8-3.5-2.6-5.2c-6.5,10.1-11.6,21.2-20.6,30.5
		c0-1.8,0-2.8,0-3.9c-3.7,3.1-6.2,8.9-8.8,13.1c-4.2,8.3-12.4,0.4-13.9,13.1c-0.9,3.6,0.8,8.2-3.6,10.6c-8.3,4.5-16.7,7.6-26,2.5
		c-21.6-13.3-32.3-37.8-53.8-51.4c-6-4-12.3-7.5-18.4-11.9c9.3,0.6,15.9,7.9,25.3,7.3c7.3,2.8,12,13.1,17.7,18.7
		c21,34.5,59.6,3.5,72.3-22.3c11.4-19.3,17.7-40.2,24.4-61.5c2.6,1.4,4.6,2.5,6.7,3.7c-0.9-6.4-14.6-9.3-19.7-4.5
		c0.8,0.2,1.5,0.4,3.2,0.8c-47.9,43.2-145,92-190,21.3c27.1,21.8,36,16.2,54.7-10.3c3.8-3.7,2-15.1,7.3-15.7
		c18.1-5.8,36.5,3.1,54.3,0.5c-1.1-1.8-1.3-3.1-3-4.6c8.2,0,15.8,0.4,23.4-0.1c26.8-2.7,51.4-18.7,79.1-13.1
		c1.2,0.2,2.8,1.4,3.3,2.5c3,6.5,7.3,11.8,12.7,16.5c1.1,1,2,3,2,4.4C307.5,382.1,305.1,409.9,294.7,407.8z M149.2,395.1
		c-2.9-2.6-3.4-2.7-5.5,0.1C145.9,398,146.3,397.7,149.2,395.1z M162.5,383.2c-2.5-1.7-3.2-2.5-4.9,0
		C159.6,385.2,160.1,386,162.5,383.2z"/>
	<path class="st0" d="M477.1,670.8c6.3,20.4,0.2,41.4-3.3,61.7c-4.6,14.4-10.8,69.4-20.7,74.8c-1-3.1,0.5-5.8-0.1-9
		c-2.6,4.5-3.2,12.5-9.5,13c-0.4-2.1-0.2-3.5-0.1-5.6c-3,2.3-5.9,4.7-8.9,7c-14.8,12.3-39.7,1.1-38.8-18.4
		c-0.8-14.8,6.7-27.8,8.8-42.2c-1.2,2.7-2.5,5.4-4,8.7c-7.3-20.2-21.2-31.2-42.1-33.2c4.5,1.6,9,3.2,14.5,5.2
		c-6,3.4-11.1,6.2-16.2,9.1c0,0.2,0,0.3,0.1,0.5c2.2-0.5,4.4-1,7.2-1.6c-5.1,5.2-11.3,6.2-17.2,7.4c2.1,1.6,4.1,3.2,6.2,4.7
		c-0.3,0.5-0.4,0.9-0.5,0.9c-12.9,0-25.7,0.4-38.5-0.4c-7.3,0.7-19.5-10.2-24.9-4.3c-0.8-23.5-6.3-14.3,4.2-38.2
		c-1.7,2.2-3.1,4.6-6.2,5c-1.2-9.5,29.6-21.8,37.2-28.5c5.8-3.8,11.2-8.2,17.4-12.8C367.6,738.7,458,741.3,477.1,670.8z"/>
	<path class="st0" d="M204,229.4c3.4-38.6,39.8-80.1,80.7-70.2c-3.1,16.5-1.7,34.2-5.5,50.3c-1,1.9,0,6,1.5,8
		c13.3,17.7,31.6,31.3,51.5,41c17,7.4,14.9-2.8,6.2-13.4c4.7-9.3,11.2-17,22.5-19.6c7.4,34.4,13.9,69.2,6.1,104.1
		c-2.6,29.7-49.6,43.6-58,7c-2.6-19.3,0.6-39.2-5-58.1C293.2,234.9,242.9,224.7,204,229.4z M326.2,330.4c0,14.5,21.4,15.2,21.7,0.4
		C347.6,316.2,326.4,315,326.2,330.4z"/>
	<path class="st0" d="M291.3,349.5c-26.9-5.7-51.6,7.5-77.5,12.2c-9.8,1.7-20.2,0.3-30.3,0.6c-0.1,0.3-0.2,0.7-0.4,1
		c1.4,1.3,2.8,2.6,5.1,4.7c-18.5-1.7-35.2-5.8-53.4-1.3c-4.6-0.3-7.6-5.6-11.3-8c18.6-4.1,38-5.4,57.6-4.7c0-0.4,0-0.8,0-1.2
		c-12.4,0-24.8,0-37.5,0c2.1-19.2,0-37.3-12.1-52.7c-7.3-9.7-12.1-23.9-26.6-23.6c40.7-25.4,90.9-35.1,138.4-29.8
		C293.7,253.6,287.7,311,291.3,349.5z M276.9,325.2L276.9,325.2c9,3.8,5.1-17.3,4.6-21.7c-1.5-6.8-4.6-13.2-7-19.7
		c14.6-4.9-17.7-24.9-24.5-24.7c-15-12.6-37.2-12.4-52-2.5c-7.6,4.8-10.5,13.6-13.9,21.5c-0.6,1.4,0.5,3.6,0.9,5.5
		c-1.6,5-13.3,16.2-4.3,19.5c-2.6,9.6-2.3,11.3,2,13c-2.3,55.8,68.9,44.4,91.1,10.4C274.4,325.8,275.8,325.7,276.9,325.2z"/>
	<path class="st0" d="M411.8,706.1c-21.3-70.9-103.5-45.9-148.3-110.1c4-2.7,7.8-5.3,12.4-8.4c7.4,6.9,13.9,16.4,25.6,15.5
		c8.3,3.7,14.4,7.6,23.7,3.1c14.4,17,36.2,22.5,57.1,25.6c20,3.4,20.7-21.9,27.1-35.2c2.3,2.8,4.6,6.3,6.2,9.6
		c2.3,4.9,7.4,8.4,7.2,14.6c-0.1,5.7,0.1,11.3,0.1,17c0,10,0.3,20.1,0.1,30c-4.6,5.6-2.8,12.2-2.7,18.4c-0.4,5.5,4.6,5.5,8.7,4.2
		c6.7-1.6,8-3.8,5.8-10.3c-7.4-14.7-2.2-30.2-2.2-46.7c7.8,14.1,14.6,27,21.9,41.1c0.5,0.9,0.2,2.5-0.3,3.5
		C445.5,694,428.5,701.5,411.8,706.1z"/>
	<path class="st0" d="M246.9,566.4c-4.5-12.7-6.6-12.4,0.1-24.8c3-5.1-6.5-10.4,1.4-13.7c36.2-16.9,66.7-49.6,66.9-91.5
		c9.2,11.1,20.2,20.6,31.2,29.7c35.9,26.9,62.5,61.4,83.9,100.3c10.6,19.2,21.3,38.3,32.5,57.1c3.3,5.6,2.7,10.8,1.7,16.7
		c-13.9-28.8-29.1-57-48.9-82.2c-15.7-24.3-26.5-53.4-58.2-60.3c-11.8-3.1-24.6-0.3-33.9,7.8c-3.1,5.6-9,7.8-13.7,11.5
		c-5.5,4.1-10.2,8.8-16,12.6c-0.6-5.3,2.5-13.7-4.8-14.3c-4.3-0.4-6.9,0.7-7.3,4c-0.6,5.5-0.8,11-0.7,16.5
		c0.6,5.6-14.1,11.3-17.5,21.3C259,561.2,252.7,563,246.9,566.4z"/>
	<path class="st0" d="M343.5,585.9c3.1-7.9,5.9-15.2,8.8-22.5c-0.3-0.2-0.6-0.3-0.9-0.5c-7.3,12-10.7,26.8-22,36
		c-26.3,18.8-43.4-18.2-20.1-40.3c-13.6,5.3-18,23.6-9.8,41.1c-10.3-2.2-16.7-8.7-20.5-17.8c-4.8-11.4-2.5-18.6,9.5-31.9
		c-11.4,3.9-16.5,16-13.5,32c-17.8-13.5-8-29.4,6.8-40.2c9.7-8,20-15.4,29.8-23.3c4.2-3.4,8.7-4.8,13.7-3
		c13.9,5.6,31.7,12.7,35.2,28.9C362.7,559.4,360.1,580.4,343.5,585.9z"/>
	<path class="st0" d="M90.4,361.6c-0.4,0.1-1.5,0.4-2.4,0.7c-6.3-12-13.1-23.4-18.5-35.6c-26-67.9,117.5-101,165-94.8
		c30.9,0.7,62.2,20.3,67.4,52.3c4.9,17.9,1.1,36.5,4.3,54.6c6.1,30.5,47.4,28.6,60.6,4.5c4,46.6-69.7,40.3-73.2-1.9
		c-2.9-23.6-0.4-48.6-11.1-70.5c-8.9-17.2-23.8-25.8-42.4-27.3c-55.2-4.8-112.2,7.3-155.1,44.3C59.9,309,77.8,338.7,90.4,361.6z"/>
	<path class="st0" d="M121.1,652.7c-13.3,3.4-20.7,20.9-16,36.8c-11.1,2.9-22.9-8.8-20.7-20.5c1.3-7,5.4-12.3,10-17.6
		c-11.6,4.9-16.1,18.8-10.5,31.2c-9-0.7-15.1-12.7-10.1-20.5c10.2-13.8,23-25.7,35.2-37.6c12.5-11.4,34.4-11.6,44.6,2.9
		c8.7,9.1,16.7,20.9,14.7,34.2c-4.4,1.6-8.5,3.1-12.7,4.7c0.6-1.7,1.3-3.7,2-5.7c-0.2-0.2-0.5-0.3-0.7-0.5
		c-9.6,13.1-18.3,30.3-36.4,32.4C95.6,693.8,108.4,660.9,121.1,652.7z"/>
	<path class="st0" d="M380.3,544.9c4.9,4.1,9.1,7.7,13.2,11.2c-1.2-6.8-10.7-10.7-16.2-14.5c-6.3-5.5-12.3-11.6-19-16.6
		c-8.3-3.7-12.2-1.2-21.6-8.2c17.3-10.8,41.1,3.5,51.5,18.9c20.1,24.6,24.6,59.1,8.6,87.2c-9,18.8-60-5.5-69.5-17.5
		c2.7-1.8,4.6-5.3,7.9-5.1c11.3,3.2,22.1,2.9,31.1-4.5c8,7.1,15.7,14,23.5,21c2.1,1.9,3.7,1.5,5.4-0.8c3.4-4.6,3.5-6.7-0.6-10.7
		c-5.6-5.6-11.5-11-17.1-16.6c-0.9-0.9-1.6-2.9-1.2-3.9C381.4,572.2,382.8,559.2,380.3,544.9z"/>
	<path class="st0" d="M295.8,440c-7.8,10-16.8,17.9-27.8,23.4c12.1-16.3,28.6-27.9,43.8-41.7c3.5,50.8-23.1,82.3-65.5,105.6
		c-3.8-3.6-12.1-5.8-12.5-10.7c2-12.3,4.2-24.7,6.3-37c0.6-3.6,3.1-4.6,6.4-5.1c21.4-3.2,38.2-15.3,49.4-33.5
		C295.9,441,295.8,440.7,295.8,440z M246.8,492.6c-0.3,9.2,14.1,9.6,14,0.2C260.8,484,247,483.3,246.8,492.6z M257.6,509.4
		c0.1-9.2-13.9-9.6-14.2-0.3C243.4,518.1,257.2,518.8,257.6,509.4z"/>
	<path class="st0" d="M523.9,826.2c-2.8-17.8-6.8-35.1-14.7-51.3c-0.6,0.1-1.2,0.2-1.7,0.3c0.2,2.2,0.4,4.3,0.6,6.5
		c-0.2,0-0.3,0.1-0.5,0.1c-7-19-13.8-38.6-27.7-53.8c-0.8-0.8-0.8-2.6-0.7-3.9c1.6-20.3,8.4-40.6-1.1-60.1
		C511,695.4,538.3,775.1,523.9,826.2z"/>
	<path class="st0" d="M195.2,659.1c-0.7-20.8-12.1-41.3-22.8-54.6c7.2-3.4,14.4-6.8,21.5-10.1c-0.1-0.3-0.1-0.6-0.2-0.8
		c-1.3-0.1-2.6-0.2-3.9-0.3c1.5-7-0.1-11,8.6-12.2c1.9,6.4,3.9,12.7,5.5,19.1c1.1,4.6,2.2,5.9,7,6.9c13.6,13.9,27.9,26.8,46.1,34.9
		c-4.5,4.6-8.7,9.6-13.6,13.7c-2,1.7-5.6,2.2-8.4,2.4C221.8,658.5,208.6,658.7,195.2,659.1z M219.6,639.3
		c-1.1-13.1-15.3-26.6-28.1-26.8C204,618.2,213.5,627,219.6,639.3z"/>
	<path class="st0" d="M173.8,233.1c-21.5,3.3-41.1,11.8-60.6,20.9c-0.7-10.3,3.7-35.3,7.1-42.4c3.1,7,2.9,24.4,14.9,21.2
		c17.8-4.2,31.7-13.6,39.3-30.9c3.9-6.1,2.5-12.9-0.6-19c-7.8-11.7-32.4-3.8-42.1,2.6c22.9-26.8,73.7-35.5,107.7-32.3
		C203.2,163.8,173.2,193.5,173.8,233.1z"/>
	<path class="st0" d="M214.7,606.8c9.9-1.1,19-2.1,29-3.2c28.6,36,79.6,43.4,118.4,65.2c12.2,6.2,18.2,17.7,22,30.3
		c-0.2,0.3-0.4,0.6-0.7,0.9c-4.3-2.9-9.1-5.2-12.8-8.8c-19.6-19.2-44.3-28.5-69.5-37.1C269.1,644,238.4,631.4,214.7,606.8z"/>
	<path class="st0" d="M446.6,452.1c4.6,13.5,9.3,27,13.9,40.5c-0.3,0.2-0.7,0.4-1,0.6c-26.5-25.8-53-51.5-79.7-77.5
		c13.1-9.5,31-1.6,43,6.2c26.4,16.9,36.9,46.2,46.1,74.6c-4.2-0.2-5.4-2.4-6.6-5.8c-4.8-12.9-9.4-26.3-15.2-38.8
		C447,451.9,446.8,452,446.6,452.1z"/>
	<path class="st0" d="M467.9,634c7.4,12.4,9.5,25.3,4.8,39.1c-9.3,33.9-41.7,52.2-75.7,45.1c-23.8-2.7-38.1-20.9-49.9-39.7
		c0.3-0.3,0.6-0.5,0.9-0.8c11.9,7.7,22.6,17.5,34.9,24.3C428.9,724.8,470.3,679.4,467.9,634z"/>
	<path class="st0" d="M463.5,537.5C430.4,504.8,397.8,472,364,440c-0.7-0.7-1.6-2.1-1.3-2.6c3.5-5.3,5.3-12.4,10.3-16.3
		c27.7,26.1,55.3,52.1,83.1,78.1C468.1,508.3,462.1,524.2,463.5,537.5z M425,484.8c-19.2,0.1,4.7,15.6,9.1,20.5
		c6.6,5,11.2,13.7,19.5,15.8c0.1-1.5,0.2-2.9,0.3-4.5c18.6,3.7,3.6-19.5-6.4-20.3c-0.8-0.2-1.7-1.4-2.1-2.3
		C443.2,487.8,428.5,473.8,425,484.8z"/>
	<path class="st0" d="M394.3,776.6c-2.6,16.9-2.9,38.2,17.6,42.9c2.1,0.6,2.8,1.4,3.1,3.6c1.9,12.6-2.8,32-17.8,32.6
		c1.7-5.4,3.4-11,5.1-16.6c-0.4-0.1-0.8-0.3-1.2-0.4c-3,10.8-14.6,28.6-23.2,11.1c8.7-2.5,10.3-9.4,10.2-17.3
		c-8.3,25.6-26,9.8-17.8-9.3c5.5-10.2,12.7-19.3,15-31C386.7,785.9,389.9,780.7,394.3,776.6z"/>
	<path class="st0" d="M352.1,775.8c-2.8,5.7-3.9,11.5-1.6,17.6c-16.1,2.9-14.7-12.1-10.4-22.8c-4.1,5.5-6.2,10.8-5.7,17.1
		c-13.4-5.2-3.5-22.5,2.4-30.1c6.1-2.7,13.9,0.9,20.1-2.4c-1.3-1.8-2.1-4.5-4.2-5.6c7.6-1.8,11.9-4.2,16-11c8.3-5.4,5.7-5.2,13.7,0
		c-4.6,18.1-1.2,39.4-16.8,51.7C350.8,800.2,350.2,787.6,352.1,775.8z"/>
	<path class="st0" d="M137,611.8c8.9-3.7,19.4-3.6,28.9-4.9c1.9-0.2,4.6,1.1,5.8,2.6c10.7,13.6,17.9,28.7,19.9,46.1
		c0.6,9.1,0,12.1-9.5,13.1c-6.4-0.1-15,5-19.6-1.7c5.2-2.5,10.5-2.9,9.8-10C171.6,636.7,154.9,619.4,137,611.8z"/>
	<path class="st0" d="M357.6,460.2c26.5,22.1,49.4,46.7,74.2,70.4c9.7,9.5,19.4,19.1,29.1,28.7c3.4,3.3,7.6,9.6,1.8,12.9
		c-2.7,1.6-4.3,0.7-6.8-2.2c-22.2-26-47.5-49.1-71.5-73.5c-8.5-8.4-17.4-16.2-26-24.5C355.4,468.5,356.9,465.1,357.6,460.2z"/>
	<path class="st0" d="M182.9,460.5c-5.9-7.4-11.8-14.8-17.4-21.7c19.7-3.5,40.1-9.3,56.7-21.4c3.6-2.5,7.2-4,11.8-3.1
		c4.2,0.8,7.2-0.9,8.3-5.1c4.3-13.6,18-18.9,28.1-28c-3.4,6.3-9.1,32.7-14.8,33.4c-17.2,3.2-32.4,10.4-45.7,21.8
		c-3.9,3.9-6.9,8.3-13.1,9.3C189.1,447,188,455.5,182.9,460.5z"/>
	<path class="st0" d="M251.7,469.5c1.6-3.2,3.2-6.4,4.9-9.7c6,6.8,20.4-23.5,22.5-28.1c7.8,11.7,14.8-16.4,16.7-22
		c12.2,1.7,14.5-27.8,14.1-36.4c8.6,4.4,16.1,6.8,25.8,8.1c-7.5,27.6-36.3,43.1-55.1,62.9c-6.9,6.4-13.3,13.1-18.5,21.1
		c-1.8,2.7-6.5,3.5-9.8,5.2C252.3,470.2,252,469.9,251.7,469.5z"/>
	<path class="st0" d="M144.5,432.1c44.1-4.2,82.3-25.5,115.8-53.2c4.6-4.8,5.3-8.8,13.6-5.5c-7.3,7.4-13.9,14.4-22.4,20.1
		c-5.1,3.7-9.1,8.2-10.6,14.5c-0.8,3.7-3.3,5.4-6.9,4.7c-5.4-1.1-9.5,1.2-13.7,4C198.5,430.1,169.7,443.5,144.5,432.1z"/>
	<path class="st0" d="M459.7,665.2c-8.3-14.5-16.2-28.9-24.7-43c-7.6-12.5-16.3-24.4-24-36.9c-2.9-6.6-0.9-14.3-0.1-21.7
		c15.9,23.8,28.7,49.1,43.5,73.6C461,649.1,465.5,651.4,459.7,665.2z"/>
	<path class="st0" d="M196.7,460.6c8.5-26.9,35.8-37.9,61.2-45.5C249.8,434.6,218.9,462.7,196.7,460.6z"/>
	<path class="st0" d="M246.1,153.6c-34.9,14.1-52.6,40.8-57.5,77.4c-4.1,0.5-8.4,1.1-12.7,1.7C171.3,201.1,208.4,159.3,246.1,153.6z
		"/>
	<path class="st0" d="M261.9,155.7c-38.8,16.2-56.9,38.9-59.2,73.7c-3.8,0.4-7.7,0.8-11.9,1.2c3.7-30.4,20.5-58.5,48.5-71.9
		C247.2,153.7,252.5,153.1,261.9,155.7z"/>
	<path class="st0" d="M95.8,215.3c-4.5,11-7.2,22.4-7.6,34.3c-0.9,6.3,2.1,13.9-0.5,19.6c-8.5,7-16.3,14.5-22,24.1
		C63.9,262.7,76.8,237.8,95.8,215.3z"/>
	<path class="st0" d="M359.5,447.7c33.5,32.1,66,63.8,99.3,96c5.2,4.6,5.2,4.6,4.9,12.1c-35.2-31.5-66.6-67.8-104-97.1
		C356.9,455.6,359.1,451.9,359.5,447.7z"/>
	<path class="st0" d="M138,316.5c-23.4-30-29.7,4.5-43.6-2.6c0,0.3,0,0.6-0.1,0.9c0.8,1,1.7,2.1,2.5,3.1c-11.3,9-8.5-45,15.3-32.4
		C124.6,291.7,133.4,303.5,138,316.5z"/>
	<path class="st0" d="M407.5,563.9c-12-25.6-33.6-62.2-67.3-52.4c-5.4,5.6-10.8,1.8-17.1,0C358,476.8,406.8,527.6,407.5,563.9z"/>
	<path class="st0" d="M83.3,293.9c0.9,6.5,8.2,21.4,5.4,26.5c1.1,1,2.6,2.4,4.5,4c-1.8,1.1-2.7,1.7-4.2,2.7c2,0.7,3.4,1.1,5.1,1.7
		c-0.6,0.7-1.1,1.3-1.1,1.3c6.4,8.1,5.8,19.2,8.7,28.5c-0.6,0.5-0.8,0.8-1,0.8c-6.8,1.5-6.8,1.5-10.5-4.4
		C78.4,337.5,67.9,312.1,83.3,293.9z"/>
	<path class="st0" d="M211.8,499c1,6.7,1.9,12.9,2.9,19.3c-3.5,0.8-7.3,1.7-10.7,2.5c-8.6-20.9-29.6-26.2-28.7-34.9
		c0.5-5.5,0.8-11,1.1-17C187.5,480.5,196.3,494.2,211.8,499z"/>
	<path class="st0" d="M352.7,525.7c25.6,16.1,30.3,23,23,52.9c-1.8-4.5-5-7.6-9.9-6.1c-10.7,4.3-3.3,19.4,7.9,12.3
		c-9,15.8-21,6.4-14.5-8.4c6-15.2,9.7-36.4-4.3-48.1C353.8,527.3,353.2,527.4,352.7,525.7z"/>
	<path class="st0" d="M361.4,441.3c34.8,30.7,66.5,65.3,100.4,97.1c2,1.9,2.6,3.8,1.7,6.4c-33.9-31.7-67-63.9-100.6-95.9
		C359.6,445.6,359.5,444.5,361.4,441.3z"/>
	<path class="st0" d="M177.6,574.9c-1.8-7.3-0.7-39.3,8.3-40c3.9-0.3,6.6-2.5,8.9-5.5c8-8.2,21.4-7.7,32.2-8.6
		c8.2-0.7,2.6,9.2,7.9,12.2c2.5,2.1,2.3,4.1,0.8,6.6C223,559.6,201.4,573,177.6,574.9z M179.8,560.8c0.1,0,0.2,0.1,0.3,0.1
		c-0.3,6.6-0.2,11.2,7.9,8.8c19.3-4.7,32.7-17.2,43.4-33.1c0.9-3-2.2-6.8-2.8-9.8c-0.4-2.2-1.3-3-3.3-2.7c-7.3,1-14.6,1.7-21.8,3.1
		c-5.4,2.1-10.1,8-15.6,10.3C179.5,540.7,182.3,553.3,179.8,560.8z"/>
	<path class="st0" d="M315.4,432.4c-0.1-1.4-0.3-2.4-0.4-4c19.8-3.9,39.5-7.8,59.2-11.4c1.6-0.3,4.1,0.6,5.4,1.8
		c26.8,27.8,58.8,52,82.6,82.1c-0.3,0.3-0.7,0.5-1,0.8c-31.5-24.9-57.2-59.6-89.6-82C352.8,423.8,334.2,428.2,315.4,432.4z"/>
	<path class="st0" d="M115.4,194.3c-8.9,20.1-16.8,41-14.4,63.3c0,5.2-6.5,5.7-10.2,9.1C91,239.4,91.8,213,115.4,194.3z"/>
	<path class="st0" d="M407.6,523c14.2,14.8,29.4,30.1,44,45.6c7.3,6.5-3.3,10.2-7.3,14.6C431.9,562.9,419.6,542.6,407.6,523z"/>
	<path class="st0" d="M132,181.9c-14,20.1-20,44.4-20.8,68.7c0.3,5.5-3.7,6.2-7.8,8.2c0.7-27.7,4.8-59.9,27.8-77.9
		C131.4,181.2,131.7,181.5,132,181.9z"/>
	<path class="st0" d="M179.6,577.7c24.7-3,46.2-16.7,58.9-37.9c4.3-5.9-4-10.4-5.2-17.7c8.3,2.2,8.3,6.6,9.5,12.8
		c4.4,4.7,1.4,8.9-1.3,12.5c-9.2,12.4-21,21.8-35.3,27.7c-6.8,2.8-14,4.4-20.9,6.6C181.9,582.8,180.3,581.3,179.6,577.7z"/>
	<path class="st0" d="M140,324.7c-3.4-3.3-19.3-6.8-15.9,1.7c1.7,4.3-1,9-5.9,9.3c-10.5,0.2,7.1,31.3,24,11.4c0.1,2,0.2,3.7,0.3,5.3
		c-10.4,1.2-25.9,11-31.3-2.7c-10.1-20.1,13.3-49.1,29.6-25.6C140.5,324.3,140.2,324.5,140,324.7z"/>
	<path class="st0" d="M240.6,553.9C275,673.3,384,626.8,409.2,705.7c-22.2-46.4-59.5-48.7-102.1-67.9c-32.9-15.2-56-44.2-69.4-77.5
		C236.4,557.8,236.5,557.8,240.6,553.9z"/>
	<path class="st0" d="M368.3,421.8c-3.8,4.9-6.2,13.9-11.1,14.6c-9.9,1.8-19.9,3.4-29.8,5.3c-5.6,1.7-8.2-4.2-12.3-7.1
		C332.8,430.3,350.1,426.2,368.3,421.8z"/>
	<path class="st0" d="M249,433.5c-11.2,19.4-37.4,49.8-61.5,32.1c-2-1.7-3.2-3.6-1.8-6.2c25.3,11.5,45.9-10,62.6-26.3
		C248.5,433.1,248.7,433.3,249,433.5z"/>
	<path class="st0" d="M159.8,178.6c3.2,0,7.2-0.7,7.8,3.6c0.7,4.6,6,8.1,2.9,12.9c-2.5,11.3-40.1,48.5-45.6,26.7
		c-2.4-8.3-3.5-16.8,1.1-24.9C136.8,182.2,141.8,180.1,159.8,178.6z M126,207.1c1,6.5,0.3,22.8,11.3,16.9
		c14.5-5.5,22.9-17,30.2-29.7c0.8-1.4-2-10.5-3.4-11.3c-7.7-1-16,1-23.8,1.7c-1.8,0.3-3.3,2.7-4.8,4.3
		C130.2,196.5,124.8,196.5,126,207.1z"/>
	<path class="st0" d="M410.4,553c20.2,27.2,35,57.8,51.6,87.1c1.8,3.2,3.6,6,1.5,9.9c-15.4-29.1-30.2-58.7-49.4-85.7
		c-2.3-3.3-5.2-6.3-4.7-10.8C409.7,553.3,410.1,553.1,410.4,553z"/>
	<path class="st0" d="M117.3,358c-8.1,1.2-8.7-8.4-11.7-13.7c-11.7-21.1,11.6-50.5,29.3-28.8C110.1,305,96,343.8,117.3,358z"/>
	<path class="st0" d="M214.4,499.3c7.5,0.7,13.7-1.9,19.8-6.4c-1.3,8.5-2.5,16.4-3.7,24.3c-4.2,0.2-8.8,0.4-13.2,0.6
		C216.4,511.7,215.4,505.7,214.4,499.3z"/>
	<path class="st0" d="M468.5,563.1c-2.2-2.7-3.1-4.8-2.6-8.2c2.8-19.2,2-38.1-1.4-57.1c8.6,5.9,6.5,17.8,8.8,26.8
		C474.5,537.5,472.7,550.2,468.5,563.1z"/>
	<path class="st0" d="M119,366.2c-1.4,0.4-2.9,1.2-4.3,1.3c-11.3,0.3-21.9,4.8-32.5,7.9c-4.2,0-5-2.3-2.7-5.5
		c10.4-7,27.8-10.2,39.6-4.9C119.1,365.4,119.1,365.8,119,366.2z"/>
	<path class="st0" d="M314.9,426.1c0-0.1-0.2-1-0.3-1.9c22.3-6.3,44.2-13.4,67.8-14.5c-3,3.9-7.3,4.7-11.3,5.5
		C352.5,419,333.9,422.5,314.9,426.1z"/>
	<path class="st0" d="M214.2,585.6c5.2-1,10.5-1.9,16.2-3c1.8,3.5,3.8,7.4,6,11.7c-6,1.2-11.7,2.4-17.5,3.6
		C217.4,593.6,215.8,589.6,214.2,585.6z"/>
	<path class="st0" d="M362.3,595.9c-8.9,3.8-17.2,4.2-25.8,1.6c4.3-8.8,8.6-9.7,17.3-12.6C354.1,589.8,356.3,593.9,362.3,595.9z"/>
	<path class="st0" d="M229.3,565.3c10.9,40.6,40.8,61.8,77.8,75.6c-0.2,0.3-0.3,0.6-0.5,0.8c-34.7-11.9-73.5-37.8-78.3-76.5
		C228.7,565.3,229,565.3,229.3,565.3z"/>
	<path class="st0" d="M325.4,444.2c11.3-2.2,22.2-4.3,33.5-6.4c-1.3,2.6-0.7,7.4-4.5,7.9c-7.1,1.2-14.2,2.4-21.3,3.5
		C329.7,449.4,327.8,446.2,325.4,444.2z"/>
	<path class="st0" d="M456.5,672.4c-7.7-16.6-20.4-31.4-24.6-48.9c0.4-0.1,0.7-0.2,1.1-0.3c8.2,13.8,16,27.8,23.8,41.8
		C458.4,667.8,458.5,670.1,456.5,672.4z"/>
	<path class="st0" d="M267.8,581.8c-3.2,1.9-6.5,3.8-10.3,6c-2.3-4.1-4.7-8.4-7.2-12.9c4.1-2,7.9-3.8,11.7-5.7
		C264,573.4,265.9,577.6,267.8,581.8z"/>
	<path class="st0" d="M174.8,191.7c-2.1,21.5-22.4,37-42.9,39.2c20.4-6.2,33.7-19.9,41.8-39.1C174.1,191.8,174.5,191.8,174.8,191.7z
		"/>
	<path class="st0" d="M356.3,446.9c-0.6,3.3-1.1,6.2-1.6,8.9c-8.2,1.4-15.1,2.2-21.5-3.9c0.2-0.3,0.3-0.5,0.5-0.8
		C341,449.7,348.4,448.3,356.3,446.9z"/>
	<path class="st0" d="M206.4,587.2c8.4-2.5,7.8,6.5,9.7,12.2c2.3,6.3-9.5,7.5-9.6,1.7C206.2,596.5,206.4,591.9,206.4,587.2z
		 M207.9,600.4c0,0.5,0.1,0.9,0.1,1.4c1.7,2.2,6.2,1.4,5.2-2C211.5,600.1,209.7,600.2,207.9,600.4z M207.4,590.1
		c2,2.2,3.5,3,4.5,0.2C211.1,587.6,209.5,588.1,207.4,590.1z"/>
	<path class="st0" d="M111,358.2c-2.9,0.3-5.4,0.6-7.1,0.8c-1.1-8.3-8.3-23.7-4.7-29.9C102.5,340.5,105.5,348.3,111,358.2z"/>
	<path class="st0" d="M422.9,688.2c0-5.6-0.1-10.6,0.1-15.5c5-8.2,8.1,7,9.7,10.6C431.8,687.2,426.7,686.4,422.9,688.2z
		 M428.1,680.9c-1.3,1.2-2.3,2.1-3.3,3c2,2.8,3.4,0.9,5.4-0.5C429.6,682.8,429,682.1,428.1,680.9z"/>
	<path class="st0" d="M426.3,618.3c-3.9-7.9-20.3-23.6-16.2-30.5c6.6,10,12.9,19.8,19.5,29.9C428,618,426.9,618.2,426.3,618.3z"/>
	<path class="st0" d="M405.4,705.2c-11.6-0.8-4.9-10.2-11.7-13.5c-1.9-1.5-2-6.6-4.1-7.8c-3.2-1.6-3.8-4.2-4.7-7.7
		C394.5,684.4,399.7,694.7,405.4,705.2z"/>
	<path class="st0" d="M371.1,593.3c5.3,2.6,9.8,7.5,13.3,11.5c1.8,3.2,2.8,5.1,6.6,4.4c5.1,0,3.1,3.6,2.5,7.7
		c-9.4-6.9-15.5-15.5-23-22.7C370.4,594.2,371.1,593.2,371.1,593.3z"/>
	<path class="st0" d="M201.1,445.6c-2.1,5-4,9.7-6.2,15c-2.2-0.8-4.5-1.7-7-2.6C190,451.2,194.7,447.8,201.1,445.6z"/>
	<path class="st0" d="M283.6,537.1c0-4.3,0-8,0-11.8c5.2,1.9,3.2,5.3,1.8,8.8c5.4-3.4,5.6-5.6,1.3-10c1.8-1.9,3.3-3.8,4.1-6.3
		c0.4,0.1,0.8,0.1,1.2,0.2C291.7,529.8,294.6,530.4,283.6,537.1z"/>
	<path class="st0" d="M218.5,604.5c0.2-1.9,0.3-3.2,0.4-4.4c6.5-0.9,12.8-1.8,19.7-2.7c0.1,0.1,0.7,0.9,1.7,2.3
		C233,601.2,226,602.8,218.5,604.5z"/>
	<path class="st0" d="M376.2,677.3c-12.1-13.9-29.3-19.1-45.7-26.5c14.7,2.7,37.9,13.9,46,26.3L376.2,677.3z"/>
	<path class="st0" d="M229,579.6c-5.9,1.3-11.9,2.7-18,4c-0.7-1.4-1.3-2.7-1.8-3.8c6.4-0.2,15.1-4.4,20.4-1.4
		C229.4,578.9,229.2,579.3,229,579.6z"/>
	<path class="st0" d="M392.2,606.8c-1.5,0.2-3,0.4-4.8,0.6c-0.4-1.6-0.8-4.8-1.7-5.7c-5.3,0.1-4.4-7.1-9-7.6c-3.8-0.5-3-2.7-2.2-5.5
		C380.5,594.8,386.3,600.6,392.2,606.8z"/>
	<path class="st0" d="M342,258.6c-3-0.8-5.9-1.5-9.4-2.4c1.6-3.2,2.9-5.8,4.7-9.3c2.2,4,3.9,7.2,5.7,10.5
		C342.7,257.7,342.4,258.1,342,258.6z"/>
	<path class="st0" d="M430,632.8c0,9.4,0,18.5,0,27.6c-0.3,0.1-0.5,0.3-0.8,0.4c-1-1.2-1.9-2.4-3.1-3.8c7.6-6-1.9-7,1.8-12.3
		C433.1,639.2,421.2,638.1,430,632.8z"/>
	<path class="st0" d="M211.6,576.3c4.9-2.9,9.8-5.8,14.9-8.9c0.4,2.1,0.7,4.1,1.1,6.3C222.2,574.4,216.2,576.4,211.6,576.3z"/>
	<path class="st0" d="M562.1,168.1c-9,7.5-18,15-26.9,22.6c-0.3-0.4-0.6-0.8-1-1.2c8.9-7.6,17.9-15.2,26.8-22.8
		C561.4,167.2,561.7,167.7,562.1,168.1z"/>
	<path class="st0" d="M262,594.1c-1.1-1.4-2-2.7-2.9-3.9c3.5-2.2,6.9-4.3,10.7-6.7c0.8,0.7,1.8,1.6,3,2.7
		C269.3,588.9,265.8,591.4,262,594.1z"/>
	<path class="st0" d="M354.3,459.5c-0.1,2.9-0.3,5.5-0.4,8.8c-3.7-2.9-7-5.5-11.1-8.8C347,459.5,350.5,459.5,354.3,459.5z"/>
	<path class="st0" d="M87.8,304.5c-0.8-6.8-3.7-13.3,2.5-18.4c0.3,0.2,0.5,0.3,0.8,0.5c-0.7,5.9-1.5,11.9-2.2,17.8
		C88.6,304.5,88.2,304.5,87.8,304.5z"/>
	<path class="st0" d="M376.5,677c5.6,8.3,10.4,16.1,14.7,25.5c-3.5-0.5-4.6-2-5.7-5.1c-2.5-6.9-6.1-13.5-9.2-20.2L376.5,677z"/>
	<path class="st0" d="M247.9,568.9c5.1-2.1,9.5-3.9,13.9-5.7c0.2,0.3,0.4,0.5,0.6,0.8c-2.8,4.5-8.5,5.3-12.5,9.1
		C249,571.3,248.5,570,247.9,568.9z"/>
	<path class="st0" d="M372.6,578.9c-0.1,6.4-10.1,8-10.1,0.7C362.7,572.9,372.5,571.7,372.6,578.9z M372.8,579.4
		c-2.2-1.7-3.3-3.3-4.5-3.4c-2.4-0.3-4.4,1.3-4,3.9C366.3,585,369.2,582.2,372.8,579.4z"/>
	<path class="st0" d="M397.4,704.5c-2.5-0.3-5.1-0.3-4.1-4.3c-0.8-2.1-2.6-4.1-3.1-7.1C397.2,694.8,393.2,699.4,397.4,704.5z"/>
	<path class="st0" d="M197,514.4c1.3,2.3,2.7,4.7,4.2,7.3c-1.8,0.7-3.4,1.4-5.1,2.1c0-3.3,0-6.2,0-9.2
		C196.4,514.5,196.7,514.4,197,514.4z"/>
	<path class="st0" d="M376.3,672.3c6.7,2,6.8,2.1,7.5,9.2C381.2,678.3,379.1,675.7,376.3,672.3z"/>
	<path class="st0" d="M430.3,623.5c0,2.2,0,4,0,6.6c-1.7-1.2-3.1-2.1-4.9-3.4C427.4,625.5,428.8,624.5,430.3,623.5z"/>
	<path class="st0" d="M235.3,572.7c-0.9-2.6-1.7-5.2-2.6-7.8c0.4-0.2,0.9-0.3,1.3-0.5c1,2.6,2,5.1,2.9,7.7
		C236.5,572.3,235.9,572.5,235.3,572.7z"/>
	<path class="st0" d="M246.6,594.7c-1.2-2.5-2.4-5-4-8.2c4.7,1.7,4.7,4.8,4.9,7.9C247.2,594.5,246.9,594.6,246.6,594.7z"/>
	<path class="st0" d="M389.2,691.5c-1.6-2.7-2.7-4.6-4-6.8C390,685.9,390.2,686.2,389.2,691.5z"/>
	<path class="st0" d="M250.7,597.1c1.7,1.9,3.3,3.9,5,5.8c-0.4,0.3-0.7,0.7-1.1,1c-1.8-1.9-3.5-3.7-5.3-5.6
		C249.8,597.9,250.3,597.5,250.7,597.1z"/>
	<path class="st0" d="M238.8,576.3c1,2.6,1.9,5.2,2.9,7.8c-0.4,0.2-0.8,0.3-1.2,0.5c-1.1-2.5-2.1-5.1-3.2-7.6
		C237.7,576.7,238.2,576.5,238.8,576.3z"/>
	<path class="st0" d="M206.3,577.8c0.8,2.6,1.4,4.4,2,6.2c-0.3,0.3-0.5,0.5-0.8,0.8C205.8,582.2,202.7,580.6,206.3,577.8z"/>
	<path class="st0" d="M424.4,628.4c1.2,0.9,2.1,1.7,3.4,2.8c-1.1,1.3-2.1,2.4-3.4,4C424.4,632.7,424.4,630.7,424.4,628.4z"/>
	<path class="st0" d="M171.9,187.6c-1.1-2.3-2.3-4.6-3.4-6.9c0.5-0.2,1-0.5,1.4-0.7c1.1,2.3,2.2,4.7,3.3,7
		C172.7,187.2,172.3,187.4,171.9,187.6z"/>
	<path class="st0" d="M423.6,624.2c1.2-2,1-5.5,4.2-3.5c-0.9,1.4-1.9,2.8-2.8,4.3C424.5,624.7,424,624.5,423.6,624.2z"/>
	<path d="M303.1,217.7c-10.5-22,3.8-61.7,26.2-68.9C306,163.9,305.2,193.4,303.1,217.7z"/>
	<path d="M476.1,190.8c-22.9,9.6-46.2,15.1-70.6,5C429.7,202.4,452.9,197.6,476.1,190.8z"/>
	<path d="M50.5,240.6c-28.7-19.7-28.5-66,0.3-83.3C26.6,180.5,29,216.5,50.5,240.6z"/>
	<path d="M246.8,492.6c0.2-9.3,14-8.6,14.1,0.2C261,502.2,246.5,501.8,246.8,492.6z M253.6,498.4c7.1,0.2,7.8-11.3,0.4-11.3
		C246.7,487.1,246.6,497.9,253.6,498.4z"/>
	<path d="M257.6,509.4c-0.1,9.5-14.4,8.6-14.2-0.3C243.7,499.9,257.7,500.1,257.6,509.4z M250.2,514.9c7.2,0.1,7.9-11.2,0.4-11.2
		C243.2,503.5,242.9,514.7,250.2,514.9z"/>
	<path d="M219.6,639.3c-6.1-12.4-15.6-21.1-28.1-26.8C204.4,612.7,218.6,626.2,219.6,639.3z"/>
	<path d="M425,484.8c3.2-10.9,18.3,3.4,20.3,9.4c0.4,0.9,1.2,2.1,2.1,2.3c10,0.8,25,24,6.4,20.3c-0.1,1.6-0.2,3-0.3,4.5
		c-8.3-2-12.9-10.8-19.5-15.8C429.5,500.3,405.7,485.4,425,484.8z M443.9,498.7c-0.1,0.4-0.2,0.8-0.4,1.2
		c5.9,2.7,14.3,3.7,13.7,12.2c-8.4,1.5-12.5-12.3-21.2-6.1c5.1,4.6,10,9.1,14.4,13.1c-2.3-3.5-7.4-6.6-8.3-11.3
		c5.1,0.4,8.5,5.5,13.4,7.2C468.1,515.9,451.7,496.5,443.9,498.7z M429.4,490.5c0.1-0.4,0.2-0.7,0.4-1.1c-22.2-8.4-2.3,7.4,3.5,13.3
		c0.2-0.2,0.5-0.5,0.7-0.7C431.8,499.1,417.8,488.6,429.4,490.5z M432.7,493.6c2.9,2.3,5.9,5.9,9.5,2.7c1.3-3.1-3.5-6.5-5.1-8.6
		c0.5,2.2,1.1,4.4,1.6,6.5C437,494,435.2,493.8,432.7,493.6z M454.8,510.4c-1.6-4.7-4-6.4-7.8-5.9
		C449.8,506.6,452.3,508.5,454.8,510.4z M442.1,502c0.1-0.3,0.2-0.7,0.3-1c-2.3-0.5-4.6-1-7-1.5C436.3,504.2,439.8,501.5,442.1,502z
		"/>
	<path d="M179.8,560.8c4.5-22.3-1.7-17,17.3-29.6c7.6-7.2,18.7-5.2,28.3-7.3c2-0.3,3,0.5,3.3,2.7c0.4,2.9,3.8,6.8,2.8,9.8
		c-10.7,15.9-24.1,28.4-43.4,33.1c-8,2.4-8.3-2.2-7.9-8.8C180,560.8,179.9,560.8,179.8,560.8z M187.9,549.4c-2.2,3.4-8,7.5-4.1,11.8
		c-0.6,2.1-1.2,4.2-1.8,6.6c7.8,0.8,44.5-14.6,31.4-22.1c-2.5-0.4-3.8-1.9-5.3-3.5c-5.4-5.6-10.4,1.9-14.1,5.7
		c-0.5-2.1-1.6-2.8-3.6-1.6c-5-1.2-7.5,2.4-6.7,7.7C185.4,552.1,186.6,550.8,187.9,549.4z M218.1,550.4c4.4-5.5,8.4-10.4,11.8-14.7
		c-1.6-3.6-2.9-6.4-4.6-10.1c-8.2,2.5-21.3,0.3-27.5,7.9c-3.8,6.4-9.5,4.6-13,9.9c3.8,0.3,6.9,0.5,10.7,0.7c3.3-3,7.2-7.7,10.1-11.4
		c1.9-2.3,5.3-3,7.4-1.5c4.2,3.8-0.9,7.7-2.5,12C215,543.4,217.6,545.4,218.1,550.4z M206.4,535.2c1.8,0.6,3.4,1.1,6.1,2
		c-0.3-1.9-0.2-4.2-0.9-4.6C209.1,531.4,207.3,532.7,206.4,535.2z"/>
	<path d="M126,207.1c-1.3-11,3.9-10.1,9.3-18c1.5-1.6,3-4,4.8-4.3c7.8-0.7,16.2-2.7,23.8-1.7c1.4,0.8,4.3,9.8,3.4,11.3
		c-7.3,12.7-15.7,24.2-30.2,29.7C126,230,126.8,213.6,126,207.1z M147.2,216.3c7.6-5.9,12.9-14.9,18.3-22.8c1.1-1.9-1.5-6.1-2.5-9.2
		c-7.4-0.3-15.4,2-22.9,2.8c-5.5,3.6-3.8,9.3-12.1,11C132,222.5,123.6,230.4,147.2,216.3z"/>
	<path d="M207.9,600.4c1.8-0.2,3.6-0.4,5.4-0.6c0.9,3.4-3.4,4.1-5.2,2C208,601.3,207.9,600.9,207.9,600.4z"/>
	<path d="M207.4,590.1c2.1-2,3.8-2.6,4.5,0.2C210.9,593,209.4,592.4,207.4,590.1z"/>
	<path d="M428.1,680.9c0.9,1.1,1.5,1.8,2.1,2.5c-2,1.4-3.4,3.3-5.4,0.5C425.8,683.1,426.8,682.2,428.1,680.9z"/>
	<path d="M372.8,579.4c-3.6,2.8-6.5,5.4-8.4,0.4c-0.4-2.6,1.5-4.1,4-3.9C369.5,576.1,370.6,577.7,372.8,579.4z"/>
	<path class="st0" d="M337.5,339.6c-11.5,0.7-12.5-18.5-0.7-18.6C348.5,320.3,349.1,339.9,337.5,339.6z M342.6,330.3
		c0.1-7.5-11.4-8-11.3-0.1C331.1,337.7,342.5,337.7,342.6,330.3z"/>
	<path class="st0" d="M276.9,325.2c-0.3-1.6-0.6-3.1-1-4.7c-23.3,38.7-96,52.1-92.1-7.8c-0.5,0.3-1.3,0.7-2.4,1.3
		c-1.7-6.3,1.6-11.2,2.7-16.7c-0.9,2-4.1,6.5-5.1,2.2c0.8-8.1,8.7-12.8,11.5-20c-1.3,0.9-2.6,1.8-4.7,3.2c-2.5-9.1,8.4-19.7,16.2-24
		c-0.9,2.1-1.8,4.1-2.6,6.1c0.2,0.2,0.4,0.3,0.6,0.5c5-3.7,9.9-7.3,14.9-11c0.1,0.2,0.3,0.4,0.4,0.7c-2.1,2.5-4.2,5-6.3,7.6
		c12.8-12.4,28.2-13.2,41,0.3c-0.1-1-0.1-1.5-0.1-2.3c8.6,2.4,27.9,11.3,25.6,21.9c-2.2-0.6-4.1-1.1-5.7-2.8
		c4.2,8.6,19.8,40.4,6.8,45.3C276.8,325.1,276.9,325.2,276.9,325.2z M266.8,285.5c-8.4,3.6-15.3,4.7-23.3-0.5
		c-33.8-22.2-62.9,25-49.2,52.8c11.1,30.6,75-0.2,68.2-32c4.4-0.3,8.7-0.7,12.1-4.1c-3.3-0.3-6.2-0.7-9.2-1c3.4-2.1,7.2-3.1,8.6-7.3
		c-2.6,0.7-5,1.3-7.9,2c1.8-2.3,3.2-4,4.6-5.7c-0.2-0.2-0.4-0.4-0.6-0.6c-2.3,0.7-4.5,1.3-7.5,2.1
		C264.2,289.2,265.2,287.8,266.8,285.5z"/>
	<path class="st0" d="M253.6,498.4c-7-0.5-6.7-11.3,0.5-11.2C261.5,487.1,260.7,498.7,253.6,498.4z M257.5,492.7
		c-2.7-2.9-4.7-4.7-6.1-0.5c0.2,1.2,1.4,2.6,2.6,3.1C254.4,495.6,255.8,494,257.5,492.7z"/>
	<path class="st0" d="M250.2,514.9c-7.4-0.2-7-11.4,0.4-11.2C258.1,503.8,257.4,515,250.2,514.9z M253.8,510.5
		c-0.6-1.8-2.2-2.8-3.5-4c-0.7,0.8-2.1,1.8-1.9,2.3C249.4,511.7,251.1,512.6,253.8,510.5z"/>
	<path class="st0" d="M443.9,498.7c7.4-2.7,24.4,16.7,11.6,16.1c-4.8-1.7-8.3-6.8-13.4-7.2c0.9,4.6,6,8,8.3,11.3
		c-4.4-4-9.3-8.4-14.4-13.1c8.7-6.2,12.8,7.7,21.2,6.1c0.6-8.5-7.8-9.4-13.7-12.2C443.7,499.5,443.8,499.1,443.9,498.7z"/>
	<path class="st0" d="M429.4,490.5c-11.5-1.6,2.6,8.7,4.7,11.6c-0.2,0.2-0.5,0.5-0.7,0.7c-5.8-5.9-25.7-21.8-3.5-13.3
		C429.6,489.8,429.5,490.1,429.4,490.5z"/>
	<path class="st0" d="M432.7,493.6c2.5,0.3,4.3,0.5,6.1,0.7c-0.5-2.2-1.1-4.4-1.6-6.5c1.7,2.1,6.3,5.4,5.1,8.6
		C438.5,499.6,435.7,495.9,432.7,493.6z"/>
	<path class="st0" d="M454.8,510.4c-2.5-1.9-5-3.8-7.8-5.9C450.8,504,453.3,505.6,454.8,510.4z"/>
	<path class="st0" d="M442.1,502c-2.3-0.5-5.7,2.2-6.8-2.5c2.4,0.5,4.7,1,7,1.5C442.3,501.3,442.2,501.6,442.1,502z"/>
	<path class="st0" d="M194,547.8c3.7-3.8,8.7-11.3,14.1-5.7c1.5,1.6,2.8,3.1,5.3,3.5c13.2,7.3-23.7,23-31.4,22.1
		C183.2,559.4,189.4,554.4,194,547.8z M191.8,558c0.2,0.2,0.5,0.4,0.7,0.6c3.5-4.7,7-9.4,10.4-14.1c-0.2-0.2-0.5-0.3-0.7-0.5
		C198.8,548.7,195.3,553.4,191.8,558z"/>
	<path class="st0" d="M218.1,550.4c-0.5-5-3.2-7-7.6-7.2c1.5-4.3,6.6-8.2,2.5-12c-2.1-1.5-5.5-0.7-7.4,1.5
		c-2.8,3.7-6.9,8.6-10.1,11.4c-3.8-0.3-6.9-0.5-10.7-0.7c3.5-5.2,9.4-3.7,13-9.9c6.4-7.6,19.2-5.4,27.5-7.9c1.7,3.7,3,6.5,4.6,10.1
		C226.5,540,222.5,544.9,218.1,550.4z"/>
	<path class="st0" d="M194,547.8c-3.4,4.4-6.8,8.9-10.2,13.3c-3.8-4.2,1.8-8.5,4-11.8C189.2,547,193,543.2,194,547.8z"/>
	<path class="st0" d="M190.4,546.3c-2.2,2.8-4,4.8-6.7,7.7C182.9,548.8,185.5,545.1,190.4,546.3z"/>
	<path class="st0" d="M206.4,535.2c1-2.5,2.8-3.8,5.2-2.6c0.8,0.4,0.6,2.7,0.9,4.6C209.8,536.3,208.1,535.8,206.4,535.2z"/>
	<path class="st0" d="M133.9,195.5c1.8-2.7,3.2-7,6.2-8.3c7.2-1.2,14.4-2.1,21.6-3.1c0.4-0.1,1.3,0.1,1.3,0.3c1,3.1,3.6,7.3,2.5,9.2
		c-5.3,7.5-10.4,16.5-17.7,22.2c8.8-7.7,0.2-20.6-9.3-10.7C141.4,197.9,140.2,195.3,133.9,195.5z M151.7,192.7
		c-2.6-9.8-13.6-0.4-11,4.6c2.4,4.1,5.4,1.6,8.2,0.3C154.1,211.8,168.1,186.3,151.7,192.7z"/>
	<path class="st0" d="M147.2,216.3c-23.5,13.8-15.2,7-19.2-18.1c2.2-0.9,3.8-1.6,5.4-2.2c-4.5,4.7-3.1,12.9,4.5,9.5
		c-1.4,3.7-6.5,8.5-2.9,12.3c1.8,0.9,4.7-0.1,6.1-1.8c0.1,0.3,0.1,0.7,0.2,1C143.2,216.7,145.2,216.5,147.2,216.3z"/>
	<path d="M147.2,216.3c-2,0.2-4,0.4-5.9,0.6c-0.1-0.3-0.1-0.7-0.2-1c-1.4,1.7-4.3,2.7-6.1,1.8c-3.6-3.8,1.6-8.5,2.9-12.3
		C148.4,194.8,156.8,207.9,147.2,216.3z M136.3,216.6c5.6-1.8,15.4-1.8,12.6-10.3C143.8,198.7,135.4,210.5,136.3,216.6z"/>
	<path d="M138.5,205.1c-8,4.6-10-4.8-4.6-9.6C140.2,195.3,141.4,197.9,138.5,205.1z M135.7,196.5c-1.9,3.7-4.2,5-0.9,7.8
		C137.2,201.2,139.1,200.6,135.7,196.5z"/>
	<path d="M257.5,492.7c-3.5,3.4-4.5,3.2-6.2-0.5C252.7,488,254.9,489.9,257.5,492.7z"/>
	<path d="M253.8,510.5c-1.1,0.5-2.4,1.6-3.1,1.3c-2.3-1.4-3.2-3.4-0.4-5.2C251.6,507.8,253.1,508.7,253.8,510.5z"/>
	<path d="M191.8,558c3.5-4.7,7-9.3,10.5-14c0.2,0.2,0.5,0.3,0.7,0.5c-3.5,4.7-7,9.4-10.4,14.1C192.3,558.5,192.1,558.2,191.8,558z"
		/>
	<path d="M151.7,192.7c16.4-6.3,2.8,19.1-2.7,5c-2.8,1.3-5.9,3.7-8.2-0.3C138.1,192.4,149.2,182.9,151.7,192.7z M147.6,190.3
		c-0.4-0.1-0.8-0.2-1.3-0.3c-1.2,2.6-5.4,4.8-1.9,7.3C145.9,195,150.2,193.4,147.6,190.3z M153.2,200.9c1.7-3.1,5.3-4.3,2.4-7
		C153.2,196.4,150.4,196.7,153.2,200.9z"/>
	<path class="st0" d="M136.3,216.6c-0.9-6.1,7.4-17.8,12.6-10.4C151.8,214.8,141.8,214.7,136.3,216.6z"/>
	<path class="st0" d="M135.7,196.5c3.6,4,1.3,4.6-0.9,7.8C131.4,201.6,133.8,200.2,135.7,196.5z"/>
	<path class="st0" d="M333.2,330.5c-0.1-5.1,7.2-5,7.3-0.1C340,335.3,333.3,335,333.2,330.5z"/>
	<path class="st0" d="M258,320.4c-12.9-56.1-87.5-10.6-37.8,28c-6-0.4-11.2-0.2-16-1.4c-18-11.6-12.9-46.8,8.5-59
		c20.5-12.4,49.3,10,46.5,32.4C258.8,320.4,258.4,320.4,258,320.4z"/>
	<path class="st0" d="M204.9,324.9c-1.8-31.4,37.2-39.2,49.2-13.4c5.2,11.7,4.8,13.1-4.1,21.8c-7,6.8-15.6,11.3-25.1,13.6
		C215.3,348.8,204.7,330.7,204.9,324.9z M211.4,320.1c-1.2,17.6,25.3,24.8,33.8,9.8c9.9-15-8.7-34.2-24-25.6
		C215.4,308.9,227.6,318.2,211.4,320.1z"/>
	<path class="st0" d="M147.6,190.3c2.7,3.1-1.5,4.7-3.1,7c-3.5-2.5,0.7-4.7,1.9-7.3C146.7,190.1,147.2,190.2,147.6,190.3z"/>
	<path class="st0" d="M153.2,200.9c-2.8-4.2,0.2-4.5,2.4-7C158.6,196.5,154.8,197.7,153.2,200.9z"/>
</g>
</svg>
