<?xml version="1.0" encoding="utf-8"?>
<!-- Generator: Adobe Illustrator 26.0.0, SVG Export Plug-In . SVG Version: 6.00 Build 0)  -->
<svg version="1.1" id="Capa_1" xmlns="http://www.w3.org/2000/svg" xmlns:xlink="http://www.w3.org/1999/xlink" x="0px" y="0px"
	 viewBox="0 0 595.3 833.5" style="enable-background:new 0 0 595.3 833.5;" xml:space="preserve">
<style type="text/css">
	.st0{fill:#FFFFFF;}
</style>
<g>
	<path d="M178.8,454.1c-12.9,6.4-24.1,2.6-35.9-3.1c-18.6-9.1-34.6-21.4-49.2-35.8c-5.3-5.2-8.4-11.5-10.7-18.5
		c-2.2-6.7-5.3-13-8.4-19.3c-17.3-34.9-23.6-71.9-21.1-110.6c0.9-13.4,2.8-26.5,8.9-38.6c0.5-0.9,0.2-3-0.5-3.7
		c-14.9-15.1-20.6-34.5-25.5-54.3c-7.4-29.7-8-59.5-0.5-89.2C39.9,65,50.5,54.5,65.7,48.6c1.4-0.6,2.7-1.9,3.7-3.2
		c17.1-22,40.1-34.3,67.3-37.3C158.5,5.6,180,9,199.5,20.5c3.4,2,6.8,2.4,10.9,2.3c12.2-0.5,24.4-0.9,36.5,0.1
		c23.1,1.8,43.8-3.8,62.1-18c2.4-1.9,5.1-3.8,8-4.6c5.6-1.5,9.4,2.1,12.3,6.3c4.9,7.2,5.5,15.6,5.9,24c0.1,1.4,0.1,2.8,0.2,4.2
		c0,0.1,0.2,0.1,1,0.6c4.7-9.3,9.5-18.6,14.2-27.9c0.5,0,1,0.1,1.6,0.1c0.9,1.9,1.9,3.8,2.6,5.8c8.4,24.9,2.9,47.6-10.3,69.4
		c-9,14.9-19.1,28.8-31.3,41.1c-0.4,0.4-0.6,0.9-1.2,1.9c5.1,1,9.7,2.1,14.4,2.9c15.1,2.5,29.4,7.2,42.3,15.7
		c4.3,2.8,6.9,6.2,7.2,11.2c0.2,3.6,1.9,6,4.4,8.3c8.8,7.7,16.5,16.3,20.6,27.6c0.6,1.7,1.8,3.3,3,4.5c5.8,5.5,11.8,10.8,18,16.4
		c30.7-13.9,65-5.7,85.4,24.5c7.8,11.6,14.3,24.1,21.9,35.9c4.7,7.3,10.7,13.5,18.5,17.8c7.1,3.9,14.2,4.5,21.4,0.2
		c0.8-0.5,1.7-0.8,2.7-1.2c1,8.5-3.9,15.7-19.5,28.5c0.8,0.5,1.6,1.2,2.4,1.5c11.1,3.2,22.1,5.7,32.7-1.6c0.9-0.6,2.5-0.2,3.8-0.3
		c-0.2,1.3,0.1,2.8-0.5,3.9c-4.7,8.7-12.7,13.4-21.5,17.1c-0.7,0.3-1.5,0.6-2.2,1.6c0.8,0.1,1.7,0.4,2.5,0.3
		c6.6-0.6,13.2-1.3,19.9-1.9c2-0.2,4.1,0.1,6.1,0.2c-0.6,1.8-1,3.8-1.9,5.5c-7.2,13.2-18,22.2-31.9,27.9c-13,5.3-26.1,9.3-40.2,9.9
		c-0.3,0.4-0.5,0.8-0.8,1.1c2.2,1.4,4.4,2.8,6.6,4.3c-0.3,0.7-0.5,1.4-0.8,2c-4,0.6-8.1,1.7-12.1,1.8c-23.8,0.7-46.7-4.1-69.5-10.3
		c-8.7-2.4-17.5-4.4-26.7-4.2c1,6.3,2.9,12,7.9,15.7c13.1,9.6,11.7,22.2,6.5,34.8c-9.3,22.4-23.8,40.9-44.4,53.9
		c-5.8,3.7-12.9,6-19.7,7.4c-4.3,0.9-9.2-1.3-13.9-2.1c-1.3-0.2-2.7-0.8-3.8-0.5c-6.7,1.5-13.4,3.1-20.2,4.7c-0.5,0.1-1,0.4-2.2,0.8
		c1.6,4.6,3.3,9.1,4.8,13.6c2.4,7.4,4.7,14.8,7.1,22.2c0.4,1.3,0.8,2.7,1.6,3.8c13.8,19.4,20.5,40.7,18.1,64.8
		c-0.4,4.3,1.5,8.8,2.2,13.2c2.6,18-1.7,34.3-12.2,49c-0.9,1.3-1.5,3-1.9,4.6c-1.7,6.7-4.7,12.7-9.2,18c-1.2,1.4-2,3.7-2.1,5.7
		c-0.2,7.4-2.1,14.2-5.8,20.6c-1,1.8-1.1,4.2-1.4,6.3c-0.5,3.6,0,7.5-1.3,10.8c-1.7,4.6-2.1,8.9-0.9,13.6c0.5,1.9,0.5,3.9,0.5,5.9
		c0.1,5.5,3,8.7,8.4,9.2c1.8,0.2,3.7,0.4,5.5,0.6c14.1,2.1,20,8.3,21.1,23.6c0.4,6.1-0.2,12.4-0.9,18.6c-0.8,7.7-5.3,12.2-13.1,13.4
		c-9.6,1.4-19,4.6-28.8,3.3c-12.6-1.7-25.2-3.6-37.7-5.8c-1.8-0.3-3.8-2.4-4.8-4.2c-5.9-11.3-9.6-23.3-9.9-36.1
		c0-0.4,0.1-0.9-0.1-1.3c-8.1-18.3-10.6-38.1-14.4-57.5c0-0.2-0.3-0.4-0.3-0.3c-4.4,6.7-8.9,13.3-13.3,20c-0.3,0.5-0.7,1-0.7,1.5
		c-0.1,7.8-2.8,15.6-0.1,23.6c1.5,4.2,3,8,6.5,11.1c2.9,2.6,5.3,6,6.8,9.5c5.1,12.1,7.3,24.8,5,37.8c-2.3,12.9-7,18.1-21.3,18.2
		c-3.5,0-6.4,0.5-9.4,1.9c-8.6,4-17.1,2.1-25.7-0.4c-1.4-0.4-3.3-0.4-4.6,0.2c-8.1,3.5-16.1,3.7-24.3,0.5c-6.1-2.4-9.8-7-10.7-13.2
		c-1.1-7.9-1.6-16-2-24c-0.1-2.8-0.3-4.7-3.7-4.7c-1.2,0-2.5-0.6-3.7-0.9c-7.4-2.1-8.7-3.9-9.2-11.6c-1.3-20.3,3.2-39.5,12.3-57.5
		c3.4-6.6,3.1-12.3,0.2-18.4c-0.6-1.3-1.2-2.5-1.9-4c-3,5.1-5.5,10.2-8.8,14.7c-10.7,14.7-25.1,24.7-41.7,31.8c-2.3,1-4.7,2-6.9,3.3
		c-5.1,3.2-5.7,6.4-3.2,11.9c2.6,5.8,5.4,11.6,6.8,17.7c1.8,7.6,1.2,15.4-4.8,21.4c-1.7,1.7-4.4,2.9-6.9,3.3
		c-3.2,0.6-6.5-0.1-9.7,0.2c-4,0.3-8.1,1-12.1,1.7c-3.5,0.6-6.9,1.3-10.4,1.9c-5.7,1-11.5,1.6-17.1,2.8c-8.3,1.8-13.8,0.4-16.7-5.3
		c-1.2-2.3-1.7-5.1-1.7-7.7c-0.1-17.5,4-34.2,8.7-50.9c4.3-15.3,11.5-29.2,19.2-42.9c1.9-3.5,3.2-7.3,5.4-10.6
		c4.5-6.6,8.5-14,14.4-19.2c9.8-8.7,15.3-19.4,19.2-31.4c0.8-2.4,1.8-4.7,2.9-7.5c-11.8-2.7-19.1-11.4-26.7-19.5
		c-8-8.6-17.5-13.5-29.4-14.2c-6.5-0.3-12.9-1.6-19.5-3c13.6-6.5,26.2-15.5,42.2-15.7c0-0.4,0.1-0.8,0.1-1.3
		c-3.3-0.6-6.6-1.3-9.9-1.9c-9.7-1.8-19.6-2.9-29-5.8c-5.2-1.6-9.8-5.9-14.2-9.6c-1.7-1.4-1.9-4.5-3.2-7.7
		c6.8,2.5,12.1,4.4,17.5,6.4c0.3-0.3,0.5-0.7,0.8-1c-1.7-1.5-3.6-2.8-4.9-4.6c-2.2-3.2-4.1-6.6-5.9-10.1c-0.4-0.8-0.1-2-0.1-3.1
		c1,0.3,2.2,0.3,3,0.9c6.4,4.6,13.4,7.6,21.3,7.6c5.5,0,11-1.1,16.5-1.8c-0.1-0.3-0.1-0.7-0.2-1c-4.2-2.9-8.4-5.8-13.5-9.3
		c2.2-0.6,3-0.8,3.9-1.1c7.4-2,14.9-3.5,22-6c35.7-12.5,61.8,19.2,55.1,49.7c-1,4.6-1.3,9.3-1.4,14.3c6.6-4.3,15.5-4.3,19.7-11.9
		c-3-3.3-6.4-6.4-8.9-10c-4.2-5.8-5.7-11.7-1.8-18.9c2.5-4.6,2.6-10.6,3.8-15.7c-0.5-0.5-0.6-0.9-0.8-0.9
		c-12.9-0.7-16.4-11.4-21.5-20.3c-1.2-2.1-2.2-4.3-3.3-6.4c-3.2-6.8-6.9-12.8-14.3-16.5C80,490,75.7,483.1,72,476.1
		c-2.4-4.5-4.7-9-6.6-13.8c-0.7-1.6-0.4-4.3,0.6-5.7c0.8-1.1,3.4-1.6,5-1.3c30.4,6.7,60.8,13.7,91.2,20.6c2.4,0.5,4.1,0.5,6.4-1.4
		c2.4-2.1,6.1-2.7,9.4-3.7c3-0.9,3.9-2.8,3.2-5.4c-0.3-1-1.8-2.2-2.8-2.3c-3.3-0.2-4.1-1.1-2.6-4
		C176.6,457.4,177.7,455.7,178.8,454.1z"/>
	<path class="st0" d="M64.8,57.8c-4.4,10-7.1,20-7.9,30.7c9.2-29.7,26.1-52.8,55.2-65.3c29-12.5,57.5-10.6,85.4,4.1
		c-13.7,3.1-26.1,8.7-36.2,18.7c3.6-1.7,7.4-3.3,10.9-5.2c14.7-7.8,30.3-10.3,46.8-9.7c17.1,0.6,34.2,0.8,51.3,0.4
		c16.5-0.4,30.4-7.2,41.4-19.6c6.4-7.3,11-6.5,14.1,2.8c3.8,11.3,3.9,23.1-0.5,34.1c-1.6,3.9-6.8,6.3-10.5,9.2
		c-1.1,0.9-2.5,1.4-3.5,2.6c23-4.1,31.5-22.9,41.1-42.1c0.8,10.8,0,20.1-2.4,29.4c-4.6,17.6-14.1,32.6-24.3,47.4
		c-3,4.3-5.8,8.8-8.9,12.9c-18.5,24.6-42.5,41.1-72.4,49.1c-16.4,4.4-33.1,4.1-49.8,3.2c-8.5-0.5-16.9-1.2-25.4-1
		c-6.9,0.1-12.7,3.7-17.4,8.7c-7,7.4-6.8,16.9,0.3,24.3c4.7,4.8,4.7,5.4,1.3,11.3c-7.2,12.6-14.5,25.3-21.6,38
		c-3.6,6.4-3.7,6.7-10.3,4.1c-13.9-5.6-27.8-11.2-41.3-17.5c-15.6-7.2-24.6-20.5-30.3-36.2c-10.8-29.9-15.7-60.6-10.9-92.3
		c2.5-16.3,8.8-30.8,23-40.6C62.9,58.8,63.9,58.3,64.8,57.8z"/>
	<path class="st0" d="M320.9,366.1c-3.6,2.2-7.5,4-10.7,6.7c-5.9,5-7.7,14.9-4.4,21.8c0.7,1.4,1.5,3.1,2.7,3.7
		c5.6,2.7,8.8,7.5,12.7,11.9c5,5.7,14,6,20.7,2c0.9-0.6,2-1,3.1-1.1c5.7-0.1,8.9-3.3,10.7-8.2c3-8.2,1.4-16.1-1.8-23.1
		c6.4,2.3,13.2,5.2,20.2,7.3c9.5,2.9,18.5,1.8,26.4-4.9c0.2-0.2,0.5-0.3,0.7-0.5c7.9-5.5,9.8-5,13.3,4.2c4.9,13,3.4,25.9-1.3,38.6
		c-10.4,27.7-31.8,43.4-58.2,54c-23.7,9.5-47.6,8.9-71.7,2.7c-13.4-3.4-27.1-6-39.3-13.1c-17.7-10.3-30.2-24.6-34.3-45.2
		c-0.1-0.5-0.4-1.1-0.6-1.6c0-0.1-0.2,0-0.9-0.1c0.2,7.5,1.3,14.8,5.2,21.4c9.8,16.7,24.2,28.1,42.3,34.4
		c18.7,6.5,37.9,10.5,57.6,12.3c0.1,0,0.3,0,0.4,0c2.8,0.2,7.2-0.7,8,0.7c1.9,3,1.9,7.1,2.7,10.5c-42-5.7-83.4-6.4-125.1,1.4
		c-1.3-4.8-2.3-9.9-4-14.8c-1.8-5.5-2.5-11.6-7.7-15.6c-0.7-0.5-0.2-2.4-0.4-3.6c-0.6-3.9-1.4-7.9-1.9-11.8
		c-0.2-1.4-0.1-2.8-0.2-4.2c-0.2-3.9,0.3-7.9-0.6-11.7c-4.5-18.2-2.7-36.6-1.7-55c0.5-10.5,1.6-20.9,2.7-31.3
		c0.4-4.2-0.9-7.3-3.6-10.4c-4.8-5.5-9.4-11.3-14-16.9c0.2-0.5,0.4-0.9,0.6-1.4c4.6,1.7,9.4,3.1,13.7,5.3c9.7,5,18.9,10.8,28.7,15.6
		c19.8,9.6,40.9,13.3,62.7,12.4c16.2-0.6,31.5,3.3,46.8,7.2C320.7,365.8,321,366.1,320.9,366.1z M221.2,381.4c7.1,1.6,9.9,7.5,13,13
		c0.9,1.6,1.6,3.3,2.4,5c7.9,16.9,18.5,31.5,35.7,40.2c14.3,7.1,29.3,12.1,45,15c4.2,0.8,8.8,0.5,13.1-0.4
		c17.2-3.4,26.4-15.9,33.5-30.7c-1.4,0.7-2.8,1.6-3.7,2.8c-2.5,3.1-4.9,6.2-7.2,9.5c-8.7,12.4-23.7,18.6-38.3,15
		c-10.5-2.6-21-5.9-31.2-9.7c-16.2-6-29.2-16-37.6-31.5c-4.8-8.9-9.7-17.8-14.5-26.6c0.7-0.7,1.5-1.7,2.9-3.1
		C229.2,380.4,225.2,380.9,221.2,381.4z"/>
	<path class="st0" d="M589.7,342.3c-4.4,8.9-11.4,14.5-18.9,19.2c-14.9,9.3-31.3,13.6-48.7,14.9c-5.7,0.4-10.5-0.9-14.9-4.8
		c-3.6-3.2-7.5-6.1-11.6-8.5c-2.7-1.6-6.1-2-9.5-2.4c11.2,7.3,21.7,15.1,30.8,25.5c-10.4,2.3-20.3,2-29.9-0.2
		c-10.9-2.5-21.6-5.9-32.4-8.6c-11.4-2.9-22.8-5.4-34.3-8c-1.8-0.4-3.6-0.7-5.8-1c1.8-7.2,3.7-14.1,5.4-21.1
		c1.1-4.4,2.5-8.8,2.7-13.3c0.6-13.6,7.8-23.7,16.2-33.5c4.1-4.7,7.6-9.9,11.3-14.9c3.2-4.4,4.3-8.8,1.3-14.1
		c-9.8-17.5-19.4-35.1-29.5-53.7c3.2-1.5,7.1-4,11.3-5.1c22.6-5.4,42.5-1,59.1,16.3c9.5,9.9,16.8,21.3,23.7,33.1
		c6,10.3,12.1,20.5,21.4,28.3c8.4,7.1,17.7,11.1,29,7.8c-1.4,4.3-4.7,8.2-11.7,14.4c-5.6,4.9-12,2.8-18.4,2.8
		c6.3,5.6,13.6,8.9,21.6,11c8.4,2.2,16.5,0.8,24.7-1.3c-5.9,5.5-12.2,9.9-20.6,10.4c-12.6,0.7-24.5-2.2-36.2-6.3
		c-0.6-0.2-1.3-0.5-2.6,0c1.2,1.1,2.2,2.5,3.5,3.2c15.7,9,32.6,12.5,50.6,11.1C581.1,343.3,585,342.8,589.7,342.3z"/>
	<path class="st0" d="M69.2,230.6c11.6,5.6,22.4,10.6,33.1,15.9c1.8,0.9,3.3,2.6,4.9,3.9c3.9,3.2,7.5,7.1,11.8,9.3
		c6.1,3.1,10.1,1.5,13.5-4.4c3.9-6.9,7.6-13.9,11.2-21c5.7-11.1,11.5-22.1,17-33.3c1.4-2.8,2.2-5.8,2.8-8.9c1.2-6.6-1.5-9.2-8.2-8.1
		c-1.8-5,0-9.1,3.4-12.6c3.7-3.7,8.4-5.3,13.5-5.3c6.4,0.1,12.7,0.8,19.1,0.9c14.8,0.1,29.7,0,45.7,0c6.3,22.9,16.8,44.5,36.7,60.6
		c-0.4,0.3-0.7,0.5-1.1,0.8c-10.3-3.3-20.7-6.6-31-9.7c-8.7-2.6-17.4-5.1-26.2-7.4c-2-0.5-4.3-0.6-6.2,0
		c-15,4.8-29.1,11.2-40.7,22.2c-4.2,4-7.4,8.6-8.4,14.4c-3.6,21.9-7.1,43.9-10.6,65.8c-0.3,2.1-0.7,4.1-1.2,7.1
		c-3.5-2.3-6.5-3.9-9.2-6.1c-10.1-8.2-20-16.6-30.1-25c-2.1-1.7-4.1-3.5-6.3-5c-5.3-3.6-9.9-2.9-12.4,3.1
		c-2.7,6.5-4.9,13.4-5.6,20.3c-2.2,21.1-5,42.2-3.7,63.5c0,0.4-0.2,0.8-0.5,2.3c-10.6-23.2-19.2-45.8-18.7-70.9
		C62.3,278.7,61.9,254.3,69.2,230.6z"/>
	<path class="st0" d="M71.4,728.7c-2.2-2-4.4-3.9-6.6-5.9c-1-0.9-2-2-2.5-3.2c-3.6-9.6-5.4-19.5-2.5-29.5c1.3-4.6,4-9.1,7.1-12.7
		c4-4.7,9.1-8.4,13.5-12.3c0,4.3,0,9.7,0,15c0.3,0,0.5,0,0.8,0c1.3-6.9,2.4-13.9,4.1-20.7c4.1-16,9.4-31.5,18.5-45.4
		c5.6-8.7,12.8-15.8,22.6-19.9c0.6-0.2,1.2-0.4,1.7-0.5c-1.3,7.5-3.6,14.8-3.7,22.1c-0.4,17.6,1.4,35,12.2,49.8
		c3.1,4.3,7.4,7.6,11.5,11.1c1.7,1.5,2.6,2.5,2.8,5.1c1,13.8-6.7,23.5-15.1,32.8c-11.2,12.4-24.3,21.9-40,28
		c-7,2.7-17.5-2.1-18.5-9.3c-0.6-4.9-3.4-3.6-6.4-2.9C71,729.6,71.2,729.2,71.4,728.7z"/>
	<path class="st0" d="M22.4,594.7c12-7.3,24.2-13.5,38.6-12.6c0.4,0,0.9,0.1,1.3,0c1.3-0.6,2.5-1.4,3.7-2.1
		c-0.9-0.9-1.7-2.4-2.8-2.7c-4.9-1.4-9.8-2.7-14.8-3.4c-9.9-1.5-20.2-1.4-29.4-6.1c-4-2-7.5-4.8-11.3-7.2c0.2-0.3,0.3-0.7,0.5-1
		c6.8,1.7,13.6,3.4,21.2,5.3c-6.3-5.8-12-10.9-17.7-16.1c0.3-0.5,0.6-1.1,0.9-1.6c6.7,4,13.9,6.4,21.6,5.6
		c7.5-0.7,15.1-1.2,22.1-6.7c-4.5-2.1-8.2-3.9-13.3-6.4c7.6-2.7,14.1-5.3,20.8-7.3c29.1-9,53.1,14.7,49.1,43.9
		c-0.9,6.7-1,13.4-1.6,20.1c-0.1,0.9-0.8,1.7-1.3,2.5c-5.3,8-10.8,15.8-15.9,23.9c-2.8,4.5-3.9,5.7-8.7,3.3
		c-5.2-2.7-10.1-6.1-14.6-9.8c-4.6-3.7-8.6-8.2-13-12.2c-6.5-5.9-14.3-8.4-22.9-8.8C30.8,595.1,26.6,594.9,22.4,594.7z"/>
	<path class="st0" d="M288.4,328.1c-1.3-0.7-2.2-1.2-3.2-1.8c-0.3,0.4-0.8,0.7-0.8,1c0,2.7,0.2,5.4,0,8.1c-0.3,4.1-0.5,8.3-1.7,12.1
		c-1.6,5-5.1,8-11,8.2c-26.8,0.7-51.5-6.1-74.4-19.9c-9.2-5.5-18.2-11.5-29.6-13.2c5.1-17.6,6.7-36.1,16.1-52.1
		c4.8-8.1,10.6-15.6,16.3-23.1c7.4-9.6,17.8-12.3,28.9-9c8.8,2.6,17.1,7.1,25.7,10.7c4.4,1.9,8.7,4.4,13.2,5.5
		c3.4,0.8,7.2-0.1,12.1-0.3c11,15.8,13.8,34.9,10.9,55.6c-1.7-1.1-3.2-2.1-4.7-3.1c-0.4,0.2-0.8,0.3-1.2,0.5
		C286.1,314,287.2,320.8,288.4,328.1z M268.2,343.9c5.6-9.3,7.7-19.4,8.7-30c1.3-14-2.6-25.9-13-35.1c-10.3-9.1-22.9-12-36.4-10.5
		c-5.9,0.6-11.2-0.5-16.2-3.7c-2.4-1.6-4.9-3.1-7.3-4.7c-0.4,0.3-0.8,0.6-1.2,1c2.8,4,5.5,7.9,8.3,12c-8.5,0.4-15.2-4.6-23.1-9.5
		c2.2,7.5,6.5,12,11.4,16c-2.1,3.3-4.3,4.4-7.2,1.5c-2.1-2.1-4.3-4.1-6.5-6.2c-0.4,0.2-0.8,0.4-1.2,0.6c2.1,4.2,4.3,8.3,6.2,12.6
		c0.7,1.6,1.4,3.7,1,5.3c-2.9,11.3-2,22.4,1.4,33.5c1.1,3.4,3.1,4.7,6.6,5.3c10.2,1.8,20.3,3.8,30.3,6.2c10,2.4,19.8,5.6,29.9,8.1
		c3.6,0.9,7.6,0.5,11.4,0.7c0-0.4,0.1-0.9,0.1-1.3C270.4,345,269.4,344.5,268.2,343.9z"/>
	<path class="st0" d="M343.9,362.2c-12.4-23.1-9-48.3-9.7-72.9c-0.5-0.1-0.9-0.3-1.4-0.4c-1.4,2.6-2.9,5.1-4.1,7.8
		c-5.2,12.5-10.6,24.7-19.6,35.1c-7,8-15.3,14.5-24,19.8c1-6.3,1.9-12.5,2.9-18.8c2.6,0.8,3.4-1.4,3.1-4.1
		c-0.7-5.2-1.6-10.3-2.5-15.7c0.9,0.7,1.8,1.4,3.9,2.9c2.8-12.4,2.9-23.9,1-35.6c-1.9-11.9-7.2-22.2-13.4-32.9
		c4.7,1.5,9.8,2.5,14.2,4.7c11.3,5.6,23.2,8.8,35.4,11.6c20.7,4.8,41.3,9.8,62.4,14.9c-0.6,0.8-0.8,1.4-1.2,1.6
		c-15.2,6.4-24.7,18.3-32.2,32.5c-7.8,14.7-12.4,30.3-14.3,46.8C344.4,360.4,344.1,361.3,343.9,362.2z"/>
	<path class="st0" d="M232,782.8c-0.4,12-1.1,23.9-1.2,35.9c0,4.9-2.2,7.5-6.2,8.8c-7.2,2.3-14.5,2.4-21.6-0.6
		c-2.1-0.9-2.4-2.2-2.6-4.5c-0.9-14-2.2-27.9-3.4-41.8c-0.2-1.7-1.2-3.2-1.9-4.9c1,11.5,2,22.7,2.8,33.9c0.3,4.2,0.4,8.5,0.1,12.7
		c-0.1,1.6-1.5,3.9-2.9,4.6c-8.3,4.1-16.8,4-24.7-0.8c-2.3-1.4-4.5-4.8-4.8-7.5c-1.3-12.9-2-25.9-2.7-38.9c-0.1-1.1,1.4-2.8,2.6-3.2
		c6.2-2.2,12.5-4.6,18.9-6.1c16.9-4,34.1-5,51.5-3.6c6.1,0.5,10.3,3.4,12.4,8.8c4.2,10.9,6.6,22.3,5.3,34.1
		c-1,8.8-6.3,14.5-14.2,15.9c-4.7,0.8-6.2-0.5-6.2-5.2c0.1-10.8,0.2-21.5,0.3-32.3c0-1.7-0.4-3.3-0.6-5
		C232.5,782.8,232.2,782.8,232,782.8z"/>
	<path class="st0" d="M74.6,732c0.4,10.1,7.9,11.7,15.4,13.4c-1.7,2.9-3.4,5.7-5.2,8.7c-7.7-4.1-16.1-6.9-25.2-7.2
		c-0.2,0.5-0.3,1-0.5,1.5c1,0.3,2,0.7,3,1c5.3,1.4,10.9,2.2,16,4.2c13.2,5.1,20.9,21.5,17.1,35.2c-1.2,4.4-4,7.3-8.5,7.9
		c-3.8,0.4-7.8,0.1-12.2,0.1c3.3-9,3.1-17.6-0.1-26.1c0,3.4,0.1,6.8,0,10.2c-0.3,15.8-0.9,16.4-15.9,19.6c-3.1,0.7-6.4,0.6-10.1,1
		c3.8-10.3,4.3-20.1,1.4-30.2c0,2.4,0.1,4.7,0,7.1c-0.1,2.4-0.3,4.8-0.5,7.2c-0.2,2.4-0.2,4.9-1,7.1c-1.1,3.1-2,7.2-4.3,8.7
		c-5,3.1-11.1,3.9-16.7,1.6c-1.7-0.7-3.3-3.7-3.4-5.8c-0.4-5.5-0.6-11.1,0.3-16.5c3.2-19.4,7.4-38.7,15.8-56.7
		c4.8-10.2,10.3-20,15.7-30.5c0.4,5.8,0.3,11.2,1.4,16.3c1.1,5,3.5,9.7,5.4,14.5C68.6,723.9,67.1,734.6,74.6,732z"/>
	<path class="st0" d="M178.5,559.3c7.6-7.1,12.1-15.4,14.5-24.9c0.3-1.2,2.4-2.9,3.7-2.9c18.5-0.8,37.1-1.3,55.6-2
		c2.2-0.1,3.7,0.1,4.3,2.8c5.4,23.7,9.3,47.6,6.9,72c-1.4,14-4.8,27.8-7.3,41.7c-0.1,0.8-0.6,1.5-1.3,3c-2.7-7.6-5.3-14.4-7.7-21.3
		c-8.1-23-22-41.8-42.2-55.5c-6.9-4.7-15.1-7.6-22.8-11.3C181.2,560.3,180,559.9,178.5,559.3z M212.3,539.6
		c-6.6-0.6-8.8,1.3-9.3,7.7c-0.3,3.9,2.1,7,7.4,8.5c7.5,2.2,15,4,22.5,6c5.8,1.5,10.1-0.5,12.2-5.5c2.1-5.3,0.2-10.8-5.2-13.2
		c-8.8-3.8-18.2-4.4-27.7-3.4L212.3,539.6z"/>
	<path class="st0" d="M282,149.9c1.8-0.8,3.9-2.3,6.1-2.4c15.4-0.8,30.5,1.3,45.3,5.7c0.4,0.1,0.8,0.5,1.4,0.7
		c-6.4-0.8-12.7-1.8-19.1-2.1c-3-0.2-7.2-1.3-7.7,4c0,0.4-1.6,0.9-2.5,1.1c-4.7,0.9-6.8,3.4-5.4,8.1c1.8,5.8,4.1,11.5,7.1,16.7
		c9.6,16.5,22.2,30.7,36,43.8c6.9,6.6,17.6,4.4,24.9-4.1c6.6-7.7,10.5-16.2,10.1-26.6c7.9,20,15.2,39.9,13.7,62.9
		c-5.5-0.7-10.6-0.6-15.4-2c-17-4.8-33.9-10.1-50.8-15.3c-4.2-1.3-8.3-2.9-12.4-4.2c-2.5-0.8-3.4-2.2-3.8-4.8
		c-3.3-19.4-6.8-38.8-14.8-57C291.1,166.3,286.6,158.6,282,149.9z"/>
	<path class="st0" d="M270.8,766.7c12.5,0,24.3,0.4,36.1-0.1c9-0.4,17.7-2.4,24.2-9.7c0.5-0.5,1.5-0.9,2.2-0.8
		c5.2,0.8,10.4,1.4,15.5,2.7c1.9,0.5,3.7,2.1,5,3.7c6.7,8,8,29.1,2,39.1c1.3-14.4,2.3-28-6.5-40c4.7,10.4,5,21.4,4.7,32.5
		c0,1.6-0.2,3.1-0.5,4.6c-1.3,6.9-5.9,9.3-12.9,6.7c2.4-13.5,4.8-27-1.2-41.1c0.3,9,1.1,17.2,0.8,25.3c-0.1,5.2-1.4,10.4-2.7,15.4
		c-0.4,1.4-2.5,3.5-3.9,3.4c-16.7-0.2-33.4-0.4-49.7-5.1c-1.4-0.4-3.1-1.3-3.7-2.4C274.6,790.2,271.2,778.7,270.8,766.7z"/>
	<path class="st0" d="M90.1,326.8c4.4,3.6,8.7,7.3,13.2,10.6c10.8,8,21.6,16,32.5,23.7c2.2,1.6,5.1,2.4,7.9,3
		c3.9,0.9,6.5-1.5,6.7-5.5c0.2-4.7-2.2-8.3-5.5-11c-11.1-9.2-22.5-18.1-33.8-27.1c-5.8-4.6-11.7-8.9-17.5-13.5
		c-0.8-0.6-1.7-1.9-1.6-2.6c0.8-4.1,2-8.2,3.3-13.5c14.2,12.5,27.6,24.2,41,36c7.4,6.5,14.9,13,22.3,19.6c0.9,0.8,1.9,2.7,1.6,3.6
		c-7.8,21.2-7,43.2-5.2,65.1c1,11.6,3.1,23.1,4.7,34.6c-15.8-0.5-65.6-37.6-68.8-52.5c6.3,5,12,9.8,17.9,14.2
		c7.3,5.4,14.8,10.4,22.3,15.5c1.3,0.9,2.8,1.3,4.3,1.7c3.4,1,6.9,1.5,9.3-1.8c2.4-3.3,1.7-7.1-0.4-10c-2.9-3.9-6.4-7.6-10.2-10.7
		c-12.2-9.7-24.6-19-37-28.5c-1.8-1.4-3.3-3.3-5.2-4.3c-5.3-2.9-5.1-7.4-4.3-13.3c7.4,6.8,14.1,13.2,21.2,19.2
		c7.3,6.2,14.8,12.3,22.6,17.9c2.7,1.9,6.5,2.8,9.9,3.1c4.6,0.4,7.8-3.1,8.4-7.8c1.1-8.4-2.7-14.6-9.1-19.3
		c-11.3-8.3-22.8-16.4-34.2-24.5c-3.7-2.6-7.3-5.5-11.2-7.7C89.9,337.8,87.2,333.8,90.1,326.8z"/>
	<path class="st0" d="M346.1,619.4c-0.8,3.3-0.8,6.8-2.4,9.4c-6.4,10.3-12.5,20.9-20.1,30.3c-9.6,11.9-22.8,17.9-38.4,17.6
		c-8-0.1-16.1,0-24.5,0c3.5-7.8,7-15,10-22.3c4.3-10.3,8.2-20.8,12.4-31.2c0.5-1.1,1.9-2.6,3-2.6c19.5-0.6,39-1.1,58.5-1.5
		C344.6,619,344.8,619.1,346.1,619.4z"/>
	<path class="st0" d="M241.4,165.5c3.4-0.9,6.7-2,10-2.5c0.9-0.1,2.5,1.3,3.1,2.4c2.6,5.3,5.3,10.7,7.3,16.3
		c6.3,17.2,19.7,29.1,31.3,42.4c7.8,9,17.1,15.4,28.8,18.6c18.8,5.2,37.4,11.1,56.2,16.6c3.1,0.9,6.4,1,9.7,1.3
		c6.1,0.4,11.8-0.6,16.8-5.1c-1.1,12.3-8.9,19.2-20.1,17c-16.1-3.2-32.1-7.2-48.1-10.8c-6.9-1.6-13.8-3.3-20.7-4.9
		c-9.7-2.2-17.6-7.2-24.1-14.8c-10.6-12.3-21.8-24.2-32.5-36.5c-2.5-2.8-4.7-6.1-6.1-9.6C248.9,186,245.3,175.9,241.4,165.5z"/>
	<path class="st0" d="M267.2,529.3c4.3,0,8.5,0,14,0c-1.6,1.8-2.5,3.5-4,4.3c-3.2,1.8-3.9,3.9-3.2,7.6c3.3,19.7,12.5,35.9,28.4,48.2
		c6.9,5.3,9.9,5.2,17.1,0.2c9.9-7,16.5-16.1,18.2-28.6c6.2,17.9,8.3,36.2,7.6,55.5c-7.4,0.5-14.6,1.3-21.8,1.5
		c-11.7,0.2-23.4,0-35.1,0c-2.7,0-4.4-0.5-4.8-3.9c-3-28.2-8.3-56-16.3-83.2C267.1,530.8,267.2,530.5,267.2,529.3z"/>
	<path class="st0" d="M403.4,281.8c6,1.1,12,2,17.8,3.5c1.1,0.3,2.3,2.6,2.5,4.1c2,14-1.1,27.6-3.9,41.2c-2.8,14-6.3,27.9-9.7,41.7
		c-0.2,1-1.5,2-2.6,2.6c-1.9,1.2-4.4,1.6-5.9,3.1c-11.5,10.7-24.1,8.6-36.8,3.2c-4.4-1.9-8.4-4.7-12.3-7.6
		c10.2,3.6,20.7,3.6,31.1,3.5c2.2,0,5.1-1.3,6.5-2.9c8.8-9.9,12.6-21.8,14.1-34.8c0.3-2.1,2.6-4,4.1-6.2c-1.3-0.1-3-0.3-4.8-0.5
		c3.2-2.1,8.1-1.2,9.6-6.4c-4.3-0.2-8.7,2.7-13.1-1.3c5.2-1.1,10.7-0.7,13.6-6.3c-4.1,0.2-8,0.7-11.8,0.5c-2.4-0.1-5.2-0.7-7.1-2.1
		c-10.4-7.6-21.2-7.7-32.4-2.2c-0.3,0.2-0.7,0.2-1.6,0.3c4.3-8.9,9.4-16.7,16.6-23c1.1-0.9,2.7-1.4,4.2-1.7
		c12.5-2.2,24.2,0.1,35,6.8c1.1,0.7,2.5,0.7,3.7,1.1c-0.3-1.4-0.3-2.9-1-4C415.5,288.5,409.8,285,403.4,281.8z"/>
	<path class="st0" d="M159.8,629c1.7,0.9,2.7,1.5,3.8,2c9.3,4.9,18.4,2.9,25-5.3c9-11.3,10.2-28.1,3.2-39c-2.7-4.1-5.8-6.3-10.9-5.4
		c-1.3,0.2-2.7,0-5.2,0c4-2.4,7.2-4.3,10.6-6.3c6.6,6.4,15,8.3,24,8.9c7.5,0.5,8,0.7,7.5,8.4c-0.7,11.3-1.2,22.7-3.3,33.7
		c-2.5,13.6-10.2,24.7-21.2,33.3c-5.7,4.5-12.2,5.5-18.9,3.7c-2.5-0.7-5.1-3.2-6.5-5.6C162.8,648.9,161,639.3,159.8,629z"/>
	<path class="st0" d="M288.7,246.4c-15.4-4.1-29.9-7.8-44.3-11.7c-11.9-3.2-23.7-6.6-35.6-9.8c-1.3-0.4-3.1,0-4.4,0.5
		c-9.2,4-17.8,9.2-24,17.1c-3.1,4-5.6,9.1-6.6,14c-2.8,14.6-4.7,29.3-6.9,44c-0.9,6-1.7,12.1-2.7,18.1c-0.7,4.5-2.1,5.4-6.2,4.7
		c-6.1-1-6.4-1.3-5.6-6.3c3.3-21.1,6.8-42.2,9.7-63.4c1.5-10.8,7.6-18,15.9-23.9c9.7-6.8,20.4-11.6,31.7-15.1c1.5-0.5,3.4-0.6,5-0.1
		c20.6,6.3,41.1,12.7,61.6,19c0.8,0.2,1.7,0.6,2.2,1.2C281.7,238.3,284.9,242,288.7,246.4z"/>
	<path class="st0" d="M163.6,350.5c6.3,0.5,12,0.9,18.4,1.3c-0.6,6.1-1.2,12.7-1.7,19.2c-1.8,23.6-3.6,47.1-0.1,70.7
		c0.4,3-4.8,6.5-11.3,8.4c-3.8,1.1-5.1-0.9-5.6-3.7c-1.8-10-3.8-20-4.8-30.1c-1.7-18.8-2.5-37.6,2.2-56.2
		C161.5,356.8,162.7,353.4,163.6,350.5z"/>
	<path class="st0" d="M196.5,525.8c0.3-5.3,0.7-10.1,0.9-14.8c0.1-2.9,1.2-4.2,4.2-4.6c23.1-3.7,46.2-6,69.7-5.3
		c8.3,0.2,8.5,0,9.5,8.4c0.5,4,0.2,8.2,0.2,12.3c0,2.4-1.2,3.4-3.7,3.4c-13.9,0.1-27.7,0.5-41.6,0.6
		C222.8,525.9,210,525.8,196.5,525.8z"/>
	<path class="st0" d="M176.9,694.7c0.5-8.4,0.9-16.4,1.5-24.4c0-0.6,1.2-1.5,2-1.8c20.9-6.1,40.9-3.4,59.8,7.1
		c6.4,3.6,6.6,4.8,3.7,11.5c-1.7,4-3.8,7.8-5.7,11.9C218,692.4,197.9,691.9,176.9,694.7z"/>
	<path class="st0" d="M250.7,676.6c2.9-9.2,3.3-18.6,6.8-27.6c7.4-19.4,9.2-39.9,9.1-60.6c0-19.8-3.4-39.2-7.9-58.5
		c3.8-1.3,5.8-0.4,6.9,3.6c7.6,27.7,13,55.7,15.9,84.2c0.1,1.3-0.1,2.9-0.6,4.1c-6.9,16.7-14,33.4-20.9,50.2
		C258.3,675.9,255.6,677.7,250.7,676.6z"/>
	<path class="st0" d="M284.5,756.3c-4.8,0-9.6,0.2-14.3-0.2c-1.2-0.1-2.8-2.2-3.1-3.6c-2.9-13.2-5.7-26.5-8.4-39.8
		c-1.5-7.8-2.7-15.6-4-23.4c-0.6-4,0.3-6.2,5.3-6.2c6.7,0.1,13.4-0.8,19.7-1.3c0,12.7-0.6,25,0.2,37.2
		C280.7,731.1,282.8,743.1,284.5,756.3z"/>
	<path class="st0" d="M304,230.9c-6.5-7-12.6-14.4-19.5-21.1c-13.8-13.3-20.2-30.7-27.8-48c6.6-2.7,13.1-5.4,20.4-8.4
		c14.6,23.6,22.5,49.8,28.2,76.8C304.8,230.4,304.4,230.6,304,230.9z"/>
	<path class="st0" d="M330.7,298.6c0.7,13.5,0.9,25.8,2.1,38c1.2,12.4,4,24.3,13.4,34.2c-10.5-3.2-20.2-6.5-30.2-9
		c-10.1-2.6-20.4-4.4-31.1-6.7C307.1,342.5,322.1,323.7,330.7,298.6z"/>
	<path class="st0" d="M247,677.2c-16.1-11.3-33.4-14.7-52.3-14.4c1.3-1.1,2.3-2.1,3.4-3.1c7.8-6.8,14-14.8,17.3-24.7
		c0.9-2.6,2-3,4.7-2.2c10.2,3,20.4,5.9,28.2,13.9c2.2,2.2,3.1,4.5,2.6,7.6C249.5,661.7,248.3,669.2,247,677.2z"/>
	<path class="st0" d="M190.1,534.2c-0.6,6.1-3,9.9-8.7,12.2c-8.9,3.7-17.9,7.1-27.5,8.2c-11.5,1.3-19.1-2.9-21.5-12.4
		c-0.5-2.1-0.4-4.5,0.2-6.6c0.9-3.4,2.4-6.6,3.6-9.9c1.2-3.3,2.4-6.6,3.8-10.5c9.3,16.2,25.6,15.4,40.6,17.8
		C183.6,533.5,186.7,533.7,190.1,534.2z"/>
	<path class="st0" d="M233,744.2c-18.2-5.5-36.1-8.9-54.9-1.1c-0.4-7.6-0.8-14.4-0.9-21.1c0-0.7,1.5-1.9,2.5-2.1
		c14.7-3.3,29.5-2.9,44.2,0.2c1.9,0.4,3.7,1.3,5.5,2.2c4.1,2,6.2,5.2,5.4,9.9C234.2,736.1,233.6,740,233,744.2z"/>
	<path class="st0" d="M88.4,340.1c6.1,4.3,11.7,8.2,17.3,12.2c11.2,8,22.3,15.9,33.4,24.1c5,3.7,8.2,8.6,7.4,15.3
		c-0.5,4.7-3.2,7-7.6,5.2c-5.1-2.1-10.3-4.9-14.5-8.4c-12-10.1-23.6-20.7-35.3-31.2c-0.8-0.8-1.6-2.1-1.6-3.2
		C87.6,349.5,88,345.1,88.4,340.1z"/>
	<path class="st0" d="M407,264.8c1.2-3.3,2.5-6.2,3.3-9.3c3-10.8,0.3-21.4-1.6-31.9c-1-5.6-2.6-11.1-3.5-16.9
		c19.2,18.2,29.9,41.9,42.6,64.3c-0.2,0.4-0.4,0.7-0.6,1.1C433.9,269.6,420.5,267.2,407,264.8z"/>
	<path class="st0" d="M177,716.8c0-5.6-0.1-11.8,0.1-17.9c0-0.7,1.6-2,2.5-2.1c17.4-1.9,34.8-2.1,51.8,2.9c1.4,0.4,3.1,1.8,3.6,3.1
		c2.3,6.6,2,13.2-0.1,20.3c-8.5-6.9-18.5-7.3-28.2-7.5C196.9,715.2,187.2,716.3,177,716.8z"/>
	<path class="st0" d="M304.8,160.2c1.9-1.9,3.8-3.8,5.8-5.6c0.8-0.6,2-1,3.1-1c16.9,0.3,32.8,4.2,46.8,14.2c1.3,0.9,2.1,2.6,3.2,3.8
		c2.7,3.2,5.6,6.2,8.1,9.5c1.5,1.9,3.4,4.1,3.5,6.2c0.6,9,1.3,18.1-3.8,26.4c-4,6.5-10,9.4-17.1,10.5c-1.1,0.2-2.6-0.8-3.7-1.6
		c-13-8.8-22.6-21-32.2-33.1c-5.8-7.4-11.2-15-13.8-24.2c-0.5-1.9-0.8-3.8-1.2-5.7C303.9,160,304.3,160.1,304.8,160.2z M371.6,188.9
		c0.5-3.8-0.4-6.9-4.2-9.2c-2.4-1.4-4.8-3.5-5.9-5.9c-2.4-5.2-7-7.4-11.6-9.2c-7.5-2.9-15.3-5.1-23-7.3c-4.3-1.2-8.9-2.2-12.3,2.3
		c-0.5,0.6-1.4,1-2.2,1.2c-3.4,0.7-3.8,2.3-1.9,5c8.2,12.1,15.9,24.4,24.6,36.1c3.8,5.1,9.6,8.7,14.4,13.1c2.1,1.9,4.2,1.8,6.6,0.6
		C366.9,210,371.7,201,371.6,188.9z"/>
	<path class="st0" d="M141.3,508.9c1.1-2.4,1.6-5.3,3.3-7.1c7.4-7.8,15-15.3,22.6-22.9c2.2-2.2,3.9-1.6,5,1.3
		c6.4,15.9,12.7,31.7,19.2,47.6c0.9,2.2,0.5,4-2.1,3.7c-12.4-1.9-25.3-1.4-36.9-7.1C146.3,521.2,142,516.6,141.3,508.9z
		 M168.4,486.8c-5.4,2.9-16.5,16.4-17.7,21c-0.8,3-0.7,5.9,2,8.1c7.3,6.1,16,8,25.3,7.7c3.5-0.1,4.3-2.2,3-5.6
		c-2.1-5.3-4.2-10.5-6.3-15.7C172.6,497.2,170.6,492.1,168.4,486.8z"/>
	<path class="st0" d="M285.6,693.1c0.4-3.4,0.3-7,1.4-10.3c0.4-1.3,3.1-2.6,4.8-2.8c8-0.7,15.7-1.8,22.6-6.5
		c0.6-0.4,1.3-0.7,1.7-1.2c6.9-8.9,17.8-8.6,27.2-12.3C342.6,680.8,307.9,700.6,285.6,693.1z"/>
	<path class="st0" d="M377.6,374.4c15.7-21.4,7.8-48.6-16.3-53.7c9.2-9.1,26.2-6.5,32.9,5.3c5.6,9.9,5.9,20.6,2.6,31.2
		c-1.3,4.2-3.7,8.2-5.7,12.2C388.1,375.2,383.2,375.4,377.6,374.4z"/>
	<path class="st0" d="M397.1,256c0.3-21.1-5.3-40.8-12.9-60.1c-2.7-6.8-5.5-13.7-12.9-17.2c-1.4-0.7-2.9-2.1-3.5-3.6
		c-2.9-6.1-7.5-10.5-13.2-14.1c3.5,1.6,7,3.2,10.6,4.8c12,5.3,21.3,13.2,26.8,25.7c7.5,16.9,12.7,34.1,13.3,52.7
		C405.5,250.7,403.8,253.1,397.1,256z"/>
	<path class="st0" d="M88.5,375.1C97.2,382,106,389,114.9,396c7.7,6,15.4,11.9,23,18.1c1.8,1.5,3.3,3.6,4.2,5.7
		c0.6,1.5,0.6,3.8-0.3,5.1c-0.6,0.9-3.3,1.3-4.5,0.8c-5.3-2.5-10.9-4.9-15.6-8.3c-10.3-7.5-20.2-15.5-30.1-23.5
		c-1.5-1.3-2.8-3.7-3-5.7C88.2,383.9,88.5,379.5,88.5,375.1z"/>
	<path class="st0" d="M332.7,684.9c-0.3,8.2-3,14.9-6.4,21.2c-0.8,1.6-2.9,2.9-4.6,3.5c-11.1,4.1-22.4,6.9-35.1,5.9
		c-0.4-6.1-0.8-12.2-1.2-19C302.5,697.9,318.2,694.8,332.7,684.9z"/>
	<path class="st0" d="M159.9,717.5c0.4,15.6,0.8,31.3,1.1,46.9c0,1.2-0.9,2.3-1.1,3.6c-0.6,3.2-1.2,6.4-1.4,9.7
		c-0.2,3,0.3,6.1,0.6,10.4c-4.7-1.6-8.4-2.7-11.9-4.3c-1-0.5-2-2.2-2.1-3.4c-2.1-22.3,3-43.1,13-63
		C158.6,717.4,159.3,717.5,159.9,717.5z"/>
	<path class="st0" d="M429.8,409.1c-1.9,13.4-5.6,25.8-13.4,36.8c-8.3,11.7-18.7,21.2-30.6,29.1c-6.5,4.3-18.2,6.9-26,5.6
		c1.5-0.8,2.3-1.4,3.1-1.8c17.7-8,33.4-18.5,44.2-35.1c6.1-9.3,10.6-19.3,12.6-30.4c1-5.6,1-5.6,6.6-4.9
		C427.4,408.6,428.5,408.9,429.8,409.1z"/>
	<path class="st0" d="M91.1,309.4c7.5,5.7,14.2,10.8,20.8,16c9.7,7.6,19.4,15.1,28.8,23c2.5,2.1,4.3,5.2,6,8
		c0.6,0.9,0.3,3.1-0.5,3.8c-0.7,0.7-2.8,0.7-3.8,0.2c-7.1-4-14.5-7.7-21-12.5c-10-7.4-19.4-15.5-28.9-23.5c-1.3-1.1-2.2-3.5-2.3-5.3
		C90.1,316.2,90.7,313.3,91.1,309.4z"/>
	<path class="st0" d="M130.1,545.1c8.6,12.1,15.8,14.7,30.8,10.7c4.1-1.1,8.1-2.5,12.1-3.9c4-1.5,7.8-3.3,12.4-4.4
		c-2.3,2.8-4.4,5.7-6.9,8.4c-7.8,8.6-16.9,15.5-28.3,18.7c-3,0.8-6.9,0.5-9.7-0.8c-9.5-4.2-13.5-12.8-11.7-23.1
		c0.3-1.8,0.6-3.6,0.9-5.4C129.8,545.2,130,545.2,130.1,545.1z"/>
	<path class="st0" d="M152.2,675.1c-9.4-4.1-15.1-10.7-18.4-18.8c-7.8-19.4-10.4-39.4-3.3-59.7c1.5-4.3,4.5-8.1,7.2-11.8
		c0.8-1.2,2.9-1.5,4.3-2.2c-2.1,7-4.3,13.4-5.9,19.9c-4.5,17.7,0.4,34.2,6.9,50.4c2.1,5.3,6,9.9,8.6,15
		C152.6,670,152.1,672.7,152.2,675.1z"/>
	<path class="st0" d="M130.7,528.5c-0.6-0.4-1.1-1-1.7-1.1c-7.9-1.6-11.9-6.9-14.9-14c-3.1-7.4-7-14.4-11-22.5
		c13.3,4,25.7,7.7,38.4,11.6c-2.7,7.9-5.3,15.5-8,23c-0.4,1.1-1.9,1.9-2.9,2.9C130.6,528.4,130.7,528.5,130.7,528.5z"/>
	<path class="st0" d="M286.7,718.3c13.5,0.7,25.9-2.4,38-7.1c1.5,9.4,0.3,18.3-9.7,22.5c-7.1,3-14.2,5.7-22,5.5
		c-1.2,0-3.1-1.1-3.3-2C288.5,731.1,287.7,725,286.7,718.3z"/>
	<path class="st0" d="M143.2,499.1c-3.9-1.4-7.8-3.1-11.8-4.2c-15.6-4.5-31.3-8.8-46.8-13.3c-1.9-0.6-3.9-2.1-5.2-3.7
		c-2.7-3.5-5-7.3-8.1-11.9c13.2,3.4,25.1,6.4,36.9,9.5c1.4,0.3,2.7,0.9,4.1,1c7,0.5,11.2,4,13.2,10.8c0.5,1.7,2.8,3.4,4.6,4.1
		c5.1,2,10.4,3.5,16.4,5.4c-1.5,1-2.5,1.6-3.5,2.2L143.2,499.1z"/>
	<path class="st0" d="M99.5,286c8.3,7,16.2,14.1,24.4,20.7c8.6,6.9,16.4,15,27.3,18.3c2.4,0.7,5.1,2,7.4,1.6
		c4.4-0.8,6.4,1.8,8.6,4.6c4.3,5.4,8.6,10.7,13.5,16.7c-7.1,0.9-13.7,1-19.1-3.3c-8.6-6.9-16.7-14.4-25-21.6
		c-12-10.3-24-20.6-36.1-30.9C98.7,290.4,96.9,289.1,99.5,286z"/>
	<path class="st0" d="M427.1,309.5c1.4-4.5-1.7-9.8,2.6-13.6c3.5-3.1,7.1-6,10.6-9c-0.3-0.7-0.7-1.5-1-2.2
		c-13.6-2.4-27.2-4.7-41.3-7.2c2.5-3.2,4.3-5.7,6.3-8c0.6-0.7,1.9-1.3,2.8-1.2c13.9,2.4,27.8,5,41.7,7.6c0.4,0.1,0.7,0.5,1.5,1
		C445.7,289.8,434.9,298.5,427.1,309.5z"/>
	<path class="st0" d="M335.6,551.6c-0.4,3.9-0.5,9-1.5,14c-1.9,10-8.1,17.3-16.3,22.8c-1.2,0.8-3.6,0.9-5,0.3
		c-11-4-17.9-12.4-23.7-22.1c-5.2-8.7-8.7-18.1-9.6-28.3c-0.2-2.4-0.1-4.1,2.9-5.1c1.9-0.7,3-3.5,4.4-5.4c1-1.3,1.7-3.2,3-3.8
		c11.6-5.3,23.3-2.9,34.8,0.6c0.9,0.3,1.3,2.1,2.1,3.1c1.6,2.2,3.4,4.2,5,6.4c1,1.3,2.6,2.5,2.8,4
		C335.2,542.1,335.2,546.2,335.6,551.6z M332.8,548.7c-0.1-2.1-0.4-4.3-0.3-6.3c0.3-3.6-1-6-4.3-7.8c-1.8-1-3.6-3-4.3-5
		c-0.9-2.8-2.8-3.6-5.2-4.2c-8.1-2.1-16.3-1.3-24.4,0.1c-2.7,0.5-4,1.6-4.5,4.6c-0.4,2.2-2.6,4.1-3.9,6.2c-0.7,1.2-2,2.6-1.8,3.7
		c2.7,17.9,9.9,33.2,26,43.1c4.8,2.9,6.4,2.9,10.3-1.3C329,572.5,334.2,561.9,332.8,548.7z"/>
	<path class="st0" d="M347.5,617.3c0-5.1,0.1-10.3,0-15.4c-0.4-16.3-3.9-31.9-8.9-47.4c-2-6.4-1.3-13.7-1.8-20.9
		C354.6,551,361.3,600,347.5,617.3z"/>
	<path class="st0" d="M235.2,756.8c-19-5.1-37.3-3.8-56.2-0.8c-0.1-3-0.5-6-0.3-9.1c0-0.8,1.5-1.9,2.5-2.2
		c16.9-6.5,33.5-3.3,49.9,1.7C236,747.7,234.3,752.5,235.2,756.8z"/>
	<path class="st0" d="M175.8,562.6c-1.6,5.3-3.1,10.7-4.8,16.1c-0.3,1.1-1.3,2.1-2.3,2.8c-7.5,5.2-13.3,11.4-15,20.8
		c-0.1,0.8-0.9,2-1.6,2.1c-4.5,1-9,1.8-14.3,2.8c1.8-10.3,4-19.4,10.2-26.9c1.2-1.5,3.1-2.4,4.8-3.5c7.3-4.5,14.6-9,21.9-13.6
		C175.2,562.8,175.8,562.6,175.8,562.6z"/>
	<path class="st0" d="M217.5,231.5c-24.3,11.9-36.4,33-44.3,57.3c-0.4,1.3-0.8,2.6-1.6,3.7c1.6-14.2,1.6-28.8,7.6-41.9
		c2.5-5.5,8-9.6,12.3-14.1c1.3-1.4,3.3-2.1,4.9-3.4C203.1,227.9,210.1,227.3,217.5,231.5z"/>
	<path class="st0" d="M367.2,161.7c-22.7-13.4-47.3-17.9-73.7-18.8c6.3-5.3,10.9-10.1,19.7-8.4c17.1,3.4,33.4,8.6,48.6,16.9
		C367.6,154.5,367.8,155.5,367.2,161.7z"/>
	<path class="st0" d="M155.6,605.4c0.3-6.5,2.4-12.7,8.5-16.7c5.9-3.9,11.1-2.2,13.3,4.5c2,6.2,1.6,12.3-1.6,18.1
		c-3.1,5.5-8.7,8.4-13.3,7C158.5,617.1,155.6,611.9,155.6,605.4z"/>
	<path class="st0" d="M221.7,605.9c6.3,4,12.1,7.7,17.9,11.5c0.8,0.5,1.5,1.4,1.8,2.3c3.2,8.2,6.3,16.5,9.1,25.1
		c-8.6-8.5-19.7-11.3-30.6-14.7c-0.9-0.3-2.1-2-1.9-2.8C219,620.3,220.3,613.5,221.7,605.9z"/>
	<path class="st0" d="M162.7,478.8c-2.5,4.2-5.1,5.8-9.9,4.6c-26.3-6.9-52.7-13.4-79-20c-1.1-0.3-2.3-0.4-3.2-1
		c-1.2-0.9-2-2.2-3-3.3c1.3-0.2,2.8-0.9,4-0.7c28,6.2,56.1,12.6,84.1,18.9C157.9,477.8,160.1,478.3,162.7,478.8z"/>
	<path class="st0" d="M175.3,584.4c10.6-1.8,13-0.1,15.7,9.5c2.7,9.6,1.5,18.7-4.5,26.6c-7.6,9.9-19.5,7.3-27,1.9
		c-1.4-1-2-3.2-2.7-5.1c4.8,4.3,9.9,5.9,15.5,2.4c7.2-4.4,9.9-11.4,9.6-19.6C181.8,594.2,180,588.8,175.3,584.4z"/>
	<path class="st0" d="M358.1,606.8c0,1.9,0.1,3.8,0,5.6c-0.6,14.3-3.1,28.1-10.2,40.7c-1.5,2.6-3.2,4.4-6.3,5.1
		c-4.7,1.1-9.4,2.7-15.1,4.5c13.1-18,24.2-35.7,30.3-56.1C357.3,606.6,357.7,606.7,358.1,606.8z"/>
	<path class="st0" d="M354.3,330.2c2.6-6.9,4.6-7.8,11.7-5.2c11.3,4.2,18.4,15.7,17.2,28.3c-0.6,6.4-2.3,12.5-6.5,17.7
		c-1.9,2.4-3.8,3.9-7.1,3.2c-2.9-0.6-5.8-0.7-9.8-1.1c2.9-1.7,4.9-2.8,6.9-4c4.7-2.8,7.4-7.1,8.3-12.3c0.7-4.3,1.2-8.6,1-12.9
		c-0.1-2.2-1.7-5.2-3.5-6.2C366.6,334.8,360.5,332.7,354.3,330.2z"/>
	<path class="st0" d="M190.6,517.5c-5.4-13.2-11.1-26.8-17-41.1c4.4-0.7,8.4-1.6,12.6-1.9c0.9-0.1,2.4,1.5,2.8,2.5
		c2.5,7.8,4.8,15.7,7.1,23.5c0.2,0.8,0.3,1.7,0,2.4C194.2,507.9,192.3,512.8,190.6,517.5z"/>
	<path class="st0" d="M166.8,661c2.3,1.7,4.7,3.5,7.1,5.2c-4,29.6-5,59.4-4.6,89.3c0,2.3,0.1,4.3-3.1,4.4
		c-0.4-8.5-0.7-16.9-1.2-25.3c-0.4-5.9-0.8-11.9-2-17.7c-1.2-5.8-0.3-11.1,2-16.4c4.7-10.7,4.6-21.7,2-32.9
		c-0.5-2.1-0.8-4.3-1.3-6.4C166.1,661.2,166.5,661.1,166.8,661z"/>
	<path class="st0" d="M322.7,732c0.4,5.1,0.8,9.4,0.9,13.7c0,1.1-1.3,2.9-2.4,3.1c-8.5,2.1-17.1,3.8-25.6,5.8
		c-2.6,0.6-3.6-0.3-3.8-2.9c-0.3-3.1-0.9-6.1-1.4-9.8C302,742.2,312.3,738.4,322.7,732z"/>
	<path class="st0" d="M137.4,625.6c6.9,0,12.8,0,19.1,0c1.2,6.7,2.6,13.8,4,21.2c-5.4,1.4-10.6,1.2-15.9-0.3c-0.8-0.2-1.9-1-2.1-1.8
		C140.7,638.5,139.1,632.3,137.4,625.6z"/>
	<path class="st0" d="M143,499c0.1,3.3-1.8,2.3-3.6,1.8c-12-3.7-24-7.3-36-10.9c-0.4-0.1-0.8-0.1-2.1-0.2c2,4,3.7,7.6,5.4,11.1
		c2.8,5.8,6,11.5,8.4,17.5c2.9,7.3,9.1,8.7,15.6,10.1c0,0-0.1-0.1-0.1-0.1c0.2,1.1,0.4,2.3,0.6,3.4c-1.1-0.1-2.3-0.1-3.4-0.3
		c-10.1-1.7-16-8.1-19.5-17.3c-1-2.6-2.6-5-3.8-7.6c-3.2-6.6-6.3-13.2-13.9-16.4c-2.9-1.2-5-4.3-7.5-6.6c0.2-0.4,0.4-0.7,0.6-1.1
		c2.1,0.6,4.1,1.1,6.2,1.7c16.2,4.6,32.4,9.2,48.5,13.8c1.5,0.4,3,0.6,4.6,1C143.2,499.1,143,499,143,499z"/>
	<path class="st0" d="M237,762.9c-26.4-3.1-51.8,0.4-76.1,11.5c-0.3-0.4-0.7-0.7-1-1.1c1.5-2,2.5-4.8,4.5-5.7
		c5.7-2.6,11.7-5.1,17.8-6.4c16.1-3.6,32.5-4.6,48.9-1.6c2.2,0.4,4.3,1.3,6.5,2C237.2,761.9,237.1,762.4,237,762.9z"/>
	<path class="st0" d="M268.7,759c5.7-0.3,11.5-0.2,17.2-1.1c12.2-2,24.4-4.5,36.6-6.8c0.4-0.1,0.8-0.4,1.2-0.3
		c1.6,0.3,3.2,0.7,4.7,1.1c-1,1.4-1.7,3.4-3,3.9c-4.1,1.8-8.4,3.4-12.8,4.3c-13.2,2.5-26.6,2.9-40,1.5c-1.4-0.2-2.8-0.8-4.1-1.3
		C268.5,759.8,268.6,759.4,268.7,759z"/>
	<path class="st0" d="M333.6,528.2c-1.9-1.4-3.7-2.9-5.7-4.2c-0.9-0.6-2-1.3-3-1.4c-3.8-0.4-5-2.4-5.1-6.1c0-3.9-0.9-7.8-1.4-11.7
		c8.4-0.4,11.3,1.4,13.5,8.7c1.2,3.9,1.9,7.9,2.8,11.9c0.1,0.5,0,1.1,0,1.6C334.4,527.4,334,527.8,333.6,528.2z"/>
	<path class="st0" d="M162.1,666.2c4.4,10,3.5,26.2-1.9,35.5C153.9,694.8,154.7,676.9,162.1,666.2z"/>
	<path class="st0" d="M125.3,479.8c10.1,2.4,19.7,4.6,30.2,7.1c-2.5,2.6-4.4,4.9-6.6,6.7c-0.6,0.5-2.1,0.4-3.1,0.2
		c-3.5-1-7-2.5-10.6-3.1C129.2,489.7,126.3,486.1,125.3,479.8z"/>
	<path class="st0" d="M153.5,667.3c-3.5-6.2-6.7-12-10.1-18.1c6.4,0.3,11.9,0.6,18,1c2.4,2.5,2,5.1-1.1,8
		C157.9,660.4,156.3,663.5,153.5,667.3z"/>
	<path class="st0" d="M171.2,757.9c0.7-23,1.3-45.5,2-68.1c0.4,0,0.8,0,1.2,0c0.1,1.2,0.3,2.4,0.3,3.6c0.6,19.9,1.2,39.8,1.7,59.7
		C176.5,757.1,176.5,757.1,171.2,757.9z"/>
	<path class="st0" d="M249.7,683.8c4.4,14.5,0,26.6-9,37.2C240.2,707.8,246.4,696.2,249.7,683.8z"/>
	<path class="st0" d="M210.6,580.9c-2.2-1.3-4.6-2.2-6.4-3.9c-6.2-5.8-15.2-6.8-22.4-2.1c-1.2,0.8-2.4,1.5-3.7,2.1
		c-0.3,0.2-0.8,0.1-1.6,0.3c0.3-1.4,0.5-2.6,0.8-3.8c3.2-9.5,5.4-10.7,14.1-6.3c6.9,3.5,13.5,7.7,20.2,11.7
		C211.3,579.6,211,580.3,210.6,580.9z"/>
	<path class="st0" d="M284.3,682.1c0,12.2-0.7,24.5,0.2,36.7c0.9,12.1,3.4,24.1,5.3,37C283.2,750.6,279.1,692.8,284.3,682.1z"/>
	<path class="st0" d="M308.2,511.7c-0.6-0.8-1.1-1.6-1.7-2.3c-2.1-2.6-4.4-5.1-8.2-3.6c-3.7,1.4-5.4,4.5-5.6,8.3
		c-0.1,1.5,0.7,3,0.7,4.6c0,0.9-0.7,1.9-1.1,2.8c-0.5-0.1-0.9-0.2-1.4-0.3c-0.5-6.3-1-12.5-1.6-19.2c5.6,0,10.9-0.1,16.2,0.1
		c0.8,0,1.8,1.6,2.1,2.6c0.6,2.2,0.8,4.4,1.1,6.7C308.6,511.4,308.4,511.6,308.2,511.7z"/>
	<path class="st0" d="M333.8,369.3c4.4,2.7,8.8,5.2,13,8.1c0.9,0.6,1.4,3.4,0.8,4c-0.9,0.9-3.2,1.6-4.3,1.1c-4.3-2-8.4-4.3-12.5-6.8
		c-0.9-0.6-1.9-2.7-1.5-3.5C329.9,371.1,331.6,370.6,333.8,369.3z"/>
	<path class="st0" d="M223.8,591.3c4.9,6.8,9.7,13.7,14.6,20.5c-0.2,0.2-0.5,0.5-0.7,0.7c-5.1-2.9-10.3-5.8-15.4-8.7
		c-0.5-0.3-0.9-1.2-0.8-1.8c0.3-3.4,0.8-6.9,1.2-10.3C223,591.6,223.4,591.5,223.8,591.3z"/>
	<path class="st0" d="M283.6,500.3c2.7-0.5,3.9,0.6,4,3.6c0.2,5.1,0.6,10.2,1.1,15.2c0.3,2.8-0.7,4.3-3.3,4.5
		C284.8,515.8,284.2,508.2,283.6,500.3z"/>
	<path class="st0" d="M124.7,561.2c6.5,10.9,11.6,14.2,20.6,17.3c-2.7,2.4-5.4,3.3-8.1,0.4c-3.8-4.2-7.6-8.6-11.1-13.1
		C125.2,564.6,125.2,562.7,124.7,561.2z"/>
	<path class="st0" d="M366,340c0.6-0.5,1.8-2.4,3.2-2.6c2.7-0.3,6.3,3.9,5.7,6.7c-0.3,1.5-2,3.6-3.3,3.9
		C368.8,348.6,365.9,344.8,366,340z"/>
	<path class="st0" d="M149,608.1c5.3,5.3,5.3,5.3,0.2,12.5C143.2,615.2,143.2,613.8,149,608.1z"/>
	<path class="st0" d="M314.7,502.9c0.5,5.6,1,11.3,1.5,16.9c-0.6,0.1-1.2,0.2-1.9,0.3c-2-4.9-1.6-10.4-2.6-15.5
		c-0.1-0.7,1.2-1.6,1.8-2.4C313.9,502.5,314.3,502.7,314.7,502.9z"/>
	<path class="st0" d="M138.8,620.6c1.6-1.3,3.2-2.6,5.2-4.2c1.1,1.6,2.7,3.7,5.2,7.1c-4.1-0.2-6.9-0.2-9.6-0.6
		c-0.3,0-0.4-1.6-0.5-2.5C139,620.5,138.8,620.6,138.8,620.6z"/>
	<path class="st0" d="M296.9,519.4c-3.4-3.7-3-7.5,2.5-10.7c-0.3,3.6-0.6,7.2-0.9,10.7C298,519.5,297.4,519.5,296.9,519.4z"/>
	<path class="st0" d="M421.2,395c2.9,3.4,5.4,6.2,7.9,9.1C421.1,405.5,420.8,405.1,421.2,395z"/>
	<path class="st0" d="M203.6,581.2c-5-2-9.2-3.7-13.3-5.4c0.1-0.4,0.3-0.7,0.4-1.1C195.5,575,200.6,574.5,203.6,581.2z"/>
	<path class="st0" d="M139,620.5c-0.7-0.4-2-0.8-2-1.2c-0.2-3-0.1-6-0.1-10.1c2.5,2.4,3.9,3.9,5.3,5.2c-1.2,2.3-2.2,4.3-3.3,6.3
		C138.8,620.6,139,620.5,139,620.5z"/>
	<path class="st0" d="M426.7,286c2.5,0.3,4.4,0.4,7.1,0.7c-2.3,2.2-4.1,3.9-6.2,5.8C427.3,290.4,427,288.5,426.7,286z"/>
	<path class="st0" d="M301.3,518.7c0-3.5,0-7,0-12c1.4,2.2,2.7,3.5,2.9,4.9C304.7,515.4,303.6,517.7,301.3,518.7z"/>
	<path class="st0" d="M149.5,623.6c1.6-3,2.6-4.8,4.1-7.7c0.9,2.6,1.5,4.3,2.2,6.3C153.9,622.7,152.4,623,149.5,623.6z"/>
	<path class="st0" d="M142.8,613.6c-1-1.6-1.8-2.8-2.7-4.3c1.8-0.3,3.9-0.6,6.7-1.1C145.3,610.2,144.2,611.6,142.8,613.6z"/>
	<path d="M221.2,381.4c4-0.5,8-1,13-1.7c-1.4,1.5-2.3,2.4-2.9,3.1c4.8,8.8,9.7,17.7,14.5,26.6c8.4,15.5,21.4,25.5,37.6,31.5
		c10.2,3.8,20.6,7,31.2,9.7c14.6,3.7,29.6-2.6,38.3-15c2.3-3.2,4.7-6.4,7.2-9.5c1-1.2,2.3-2.1,3.7-2.8
		c-7.1,14.8-16.3,27.3-33.5,30.7c-4.2,0.8-8.9,1.2-13.1,0.4c-15.7-2.9-30.7-7.8-45-15c-17.2-8.6-27.8-23.2-35.7-40.2
		c-0.8-1.7-1.5-3.4-2.4-5C231.1,388.9,228.3,383,221.2,381.4z"/>
	<path d="M268.2,343.9c1.1,0.6,2.2,1.1,3.3,1.6c0,0.4-0.1,0.9-0.1,1.3c-3.8-0.2-7.7,0.2-11.4-0.7c-10-2.4-19.8-5.6-29.9-8.1
		c-10-2.4-20.2-4.4-30.3-6.2c-3.5-0.6-5.6-1.9-6.6-5.3c-3.4-11.1-4.2-22.1-1.4-33.5c0.4-1.6-0.2-3.7-1-5.3
		c-1.9-4.3-4.1-8.4-6.2-12.6c0.4-0.2,0.8-0.4,1.2-0.6c2.2,2.1,4.4,4.1,6.5,6.2c3,2.9,5.2,1.8,7.2-1.5c-4.9-4-9.2-8.5-11.4-16
		c7.9,4.9,14.6,9.9,23.1,9.5c-2.8-4-5.6-8-8.3-12c0.4-0.3,0.8-0.6,1.2-1c2.4,1.6,4.9,3.1,7.3,4.7c4.9,3.2,10.3,4.3,16.2,3.7
		c13.5-1.4,26.1,1.4,36.4,10.5c10.4,9.2,14.3,21.1,13,35.1C275.9,324.5,273.8,334.5,268.2,343.9z M254.6,342.3
		c2.5,0.5,3.9,0.6,5.1,1c3.7,1.3,5.8,0,7.6-3.6c3.8-7.8,5.9-15.9,6.6-24.4c2.3-30.3-28.1-51.5-56.1-38.9
		c-18.4,8.2-27.1,29.1-20.7,48.7c1.3,3.8,3.4,4.5,6.9,3.9c-4.9-17.3,0.6-32.3,14.7-40c12.8-7,28.8-4.2,38.3,6.8
		c5.2,6.1,8.3,13.2,8.5,21.3C265.6,326.6,263.9,335.6,254.6,342.3z M219,332.4c-8.3-13.6-7.2-24.7,2.9-31.9c7.9-5.6,23.5-4,29.4,3.4
		c4.7,5.9,2.8,13,1.5,19.5c-1.5,7.1-7.2,10.9-14.4,14.1c3,1,4.9,1.6,6.8,2.1c6.4,1.9,8.1,1.6,12.1-3.9c6.3-8.6,6.4-18.3,3.2-27.9
		c-5.5-16.5-21.2-23.6-38-17.5c-14.1,5.2-21.6,22.9-15.8,37.3c0.4,1.1,1.4,2.4,2.4,2.6C212.3,331.2,215.5,331.7,219,332.4z
		 M252.9,310.8c0-4.1-3.7-8.6-6.6-8.5c-3.4,0-4,2.6-4.1,5.3c-0.1,3.7,2.8,6.5,6.3,6.5C251.1,313.9,252.8,312.8,252.9,310.8z"/>
	<path d="M212.2,539.7c9.5-1,18.9-0.4,27.7,3.4c5.4,2.4,7.3,7.9,5.2,13.2c-2,5-6.4,7-12.2,5.5c-7.5-1.9-15.1-3.8-22.5-6
		c-5.2-1.5-7.7-4.6-7.4-8.5c0.5-6.4,2.7-8.3,9.3-7.7c-0.2,0.2-0.5,0.4-0.7,0.4c-3.3,0.1-5.9,1.1-6.2,4.8c-0.4,3.8,2.9,4.6,5.4,5.4
		c7.5,2.5,15.1,4.7,22.7,6.7c4,1.1,7.6-1.8,8.2-5.8c0.7-4.4-1.3-7.7-6.2-8.6C227.8,541.3,220,540.7,212.2,539.7z"/>
	<path d="M371.6,188.9c0.2,12.1-4.7,21.2-15.6,26.6c-2.4,1.2-4.6,1.3-6.6-0.6c-4.8-4.3-10.6-8-14.4-13.1
		c-8.7-11.7-16.4-24.1-24.6-36.1c-1.8-2.7-1.5-4.3,1.9-5c0.8-0.2,1.8-0.6,2.2-1.2c3.4-4.5,8-3.5,12.3-2.3c7.7,2.2,15.5,4.4,23,7.3
		c4.6,1.8,9.2,4,11.6,9.2c1.1,2.4,3.6,4.5,5.9,5.9C371.1,182,372,185.1,371.6,188.9z M311.9,164.8c7,13.5,15.4,26.1,25.5,37.4
		c3.6,4.1,8.3,7.2,12.4,10.8c2.3,2,4.3,1.4,6.5-0.2c9.5-6.8,12.3-16.5,12-27.5c0-0.8-0.2-1.8-0.7-2.4c-3.7-4-7-8.8-11.5-11.5
		c-10.6-6.6-22.1-11.4-34.9-12.3c-1.1-0.1-2.4,0.4-3.4,1.1C315.9,161.5,314.1,163.1,311.9,164.8z"/>
	<path d="M168.4,486.8c2.1,5.4,4.2,10.4,6.2,15.5c2.1,5.2,4.2,10.5,6.3,15.7c1.4,3.4,0.5,5.5-3,5.6c-9.2,0.3-18-1.6-25.3-7.7
		c-2.6-2.2-2.8-5.1-2-8.1C151.9,503.1,163.1,489.7,168.4,486.8z M167.5,490.8c-0.4-0.1-0.8-0.2-1.2-0.2c-0.3,1.2-1.2,2.6-0.8,3.5
		c3.1,8.5,6.3,17,9.7,25.3c0.4,0.9,2.3,1.1,3.4,1.7c0.1-0.4,0.3-0.8,0.4-1.2C175.2,510.2,171.3,500.5,167.5,490.8z M163,495.5
		c-0.4-0.1-0.7-0.1-1.1-0.2c-0.3,1.4-1.1,2.9-0.8,4.1c2,7.8,9,20.7,11.7,21.2C169.5,512.2,166.3,503.8,163,495.5z M158.6,500.2
		c-2.6,3-2.7,3,3.9,16.7c0.6,1.3,2.3,2.2,3.5,3.2c0.3-0.3,0.6-0.7,0.9-1C164.2,513,161.5,506.8,158.6,500.2z M154.8,505.9
		c-0.5,0-0.9,0.1-1.4,0.1c0,2.3-0.7,5,0.2,6.9c0.9,2,3.5,3.1,5.3,4.7c0.2-0.3,0.4-0.6,0.7-0.9C158,513,156.4,509.4,154.8,505.9z"/>
	<path d="M332.8,548.7c1.3,13.1-3.9,23.8-12.5,33.1c-3.9,4.2-5.5,4.2-10.3,1.3c-16-9.9-23.2-25.2-26-43.1c-0.2-1.1,1.1-2.5,1.8-3.7
		c1.3-2.1,3.4-4,3.9-6.2c0.6-2.9,1.8-4.1,4.5-4.6c8.1-1.4,16.2-2.2,24.4-0.1c2.4,0.6,4.3,1.4,5.2,4.2c0.7,2,2.5,4,4.3,5
		c3.4,1.8,4.6,4.2,4.3,7.8C332.4,544.5,332.7,546.6,332.8,548.7z M285.8,543.6c3.3,15.5,10,28.8,23.7,37.7c5.1,3.3,6.2,3,10.3-1.4
		c9.8-10.6,12.5-23.1,10.8-37c-0.3-2.7-1.4-4.6-4-5.9c-1.8-0.9-4-2.5-4.5-4.2c-1.1-4.4-4.3-4.7-7.7-5c-2.8-0.2-5.7-0.7-8.5-0.4
		c-6.4,0.8-13.9-0.6-16.2,8.3c-0.3,1-1.3,1.9-2.2,2.5c-2.2,1.4-2.4,3.3-1.6,5.5L285.8,543.6z"/>
	<path class="st0" d="M254.6,342.3c9.3-6.8,11-15.8,10.8-25.4c-0.2-8.1-3.2-15.2-8.5-21.3c-9.4-11-25.5-13.7-38.3-6.8
		c-14.1,7.7-19.6,22.7-14.7,40c-3.5,0.7-5.6,0-6.9-3.9c-6.4-19.5,2.3-40.4,20.7-48.7c27.9-12.5,58.4,8.6,56.1,38.9
		c-0.7,8.6-2.8,16.7-6.6,24.4c-1.7,3.6-3.8,4.9-7.6,3.6C258.5,342.9,257.1,342.8,254.6,342.3z"/>
	<path class="st0" d="M219,332.4c-3.5-0.7-6.7-1.2-9.8-2.1c-1-0.3-1.9-1.6-2.4-2.6c-5.8-14.5,1.7-32.1,15.8-37.3
		c16.8-6.2,32.5,0.9,38,17.5c3.2,9.7,3.1,19.3-3.2,27.9c-4,5.5-5.7,5.8-12.1,3.9c-1.9-0.6-3.8-1.2-6.8-2.1
		c7.1-3.1,12.9-6.9,14.4-14.1c1.4-6.5,3.2-13.6-1.5-19.5c-5.9-7.5-21.5-9-29.4-3.4C211.9,307.6,210.7,318.7,219,332.4z"/>
	<path class="st0" d="M252.9,310.8c-0.1,2-1.8,3.1-4.4,3.2c-3.5,0.1-6.4-2.8-6.3-6.5c0-2.7,0.7-5.2,4.1-5.3
		C249.2,302.2,252.9,306.7,252.9,310.8z"/>
	<path class="st0" d="M212.2,539.7c7.8,0.9,15.7,1.6,23.4,2.9c4.8,0.8,6.8,4.2,6.2,8.6c-0.6,4.1-4.2,6.9-8.2,5.8
		c-7.6-2-15.2-4.3-22.7-6.7c-2.5-0.8-5.8-1.6-5.4-5.4c0.3-3.7,3-4.7,6.2-4.8c0.2,0,0.5-0.3,0.7-0.4
		C212.3,539.6,212.2,539.7,212.2,539.7z M230.6,554.5c2.5-0.2,4.6-1.6,5.1-4.8c0.4-2.7-3.1-7-5.5-6.3c-2.1,0.6-4.4,2.9-5.2,5
		C224,550.9,227.3,554.3,230.6,554.5z M213.7,540.4c-1.8,2.4-4,4.2-3.7,5.2c0.6,1.7,2.5,3.5,4.3,4.1c0.8,0.3,3.7-2.4,3.5-3.4
		C217.4,544.5,215.6,543,213.7,540.4z"/>
	<path class="st0" d="M311.9,164.8c2.2-1.7,3.9-3.3,5.9-4.6c1-0.6,2.3-1.1,3.4-1.1c12.7,0.9,24.2,5.8,34.9,12.3
		c4.5,2.8,7.8,7.6,11.5,11.5c0.5,0.5,0.7,1.6,0.7,2.4c0.2,11-2.6,20.7-12,27.5c-2.2,1.6-4.2,2.1-6.5,0.2c-4.2-3.6-8.8-6.8-12.4-10.8
		C327.3,190.9,318.9,178.3,311.9,164.8z M360,199c-0.1-0.4,0-0.9-0.2-1.3c-3-6.7-7.1-12.7-13.5-16.5c-4.5-2.7-11.5,0.3-13.6,5.3
		c-2,4.7,0.2,9.3,5.7,11.4c4.8,1.9,9.7,3.8,14.6,5.4C356.9,204.7,360,202.6,360,199z M334.3,178.9c0.5-0.3,2.4-0.7,2.9-1.8
		c0.5-1.1,0.1-3.1-0.6-4.2c-2.7-3.9-6.6-6.1-11.4-6.1c-3.7,0-5.3,2.9-3.4,6C324.5,177,328.6,178.4,334.3,178.9z M347.7,179.4
		c2.3-0.1,4.1-1.3,3.9-4.3c-0.3-4.5-6.3-9.2-10.6-8c-1.3,0.4-3.1,2.3-3.1,3.5C337.8,174.1,343.4,179,347.7,179.4z M366.9,188.7
		c-0.1-4.5-4.6-9.5-7.1-8.6c-1.7,0.6-3.8,2.7-4.1,4.4c-0.6,3.2,4.3,8.1,7.2,7.3C364.7,191.3,366,189.4,366.9,188.7z"/>
	<path class="st0" d="M167.5,490.8c3.8,9.7,7.7,19.4,11.5,29.1c-0.1,0.4-0.3,0.8-0.4,1.2c-1.2-0.5-3.1-0.8-3.4-1.7
		c-3.4-8.4-6.6-16.8-9.7-25.3c-0.3-0.9,0.5-2.3,0.8-3.5C166.7,490.7,167.1,490.7,167.5,490.8z"/>
	<path class="st0" d="M163,495.5c3.2,8.3,6.5,16.6,9.8,25.1c-2.7-0.5-9.8-13.4-11.7-21.2c-0.3-1.2,0.5-2.7,0.8-4.1
		C162.3,495.4,162.6,495.5,163,495.5z"/>
	<path class="st0" d="M158.6,500.2c2.9,6.6,5.6,12.8,8.3,19c-0.3,0.3-0.6,0.7-0.9,1c-1.2-1.1-2.9-1.9-3.5-3.2
		C156,503.2,156,503.2,158.6,500.2z"/>
	<path class="st0" d="M154.8,505.9c1.6,3.6,3.2,7.1,4.8,10.7c-0.2,0.3-0.4,0.6-0.7,0.9c-1.8-1.5-4.4-2.7-5.3-4.7
		c-0.9-1.9-0.2-4.6-0.2-6.9C153.9,505.9,154.4,505.9,154.8,505.9z"/>
	<path class="st0" d="M285.8,543.7c-0.8-2.2-0.7-4,1.6-5.5c0.9-0.6,2-1.5,2.2-2.5c2.3-8.9,9.9-7.6,16.2-8.3c2.8-0.3,5.6,0.1,8.5,0.4
		c3.4,0.3,6.6,0.6,7.7,5c0.4,1.7,2.7,3.4,4.5,4.2c2.6,1.3,3.7,3.2,4,5.9c1.7,13.9-1,26.5-10.8,37c-4.1,4.5-5.2,4.8-10.3,1.4
		c-13.6-8.9-20.4-22.2-23.7-37.7c2.5,4,5.1,8,7.5,12.1c0.8,1.4,1.6,3.1,1.7,4.8c0.4,3.7,3.3,6.5,7,6.4c1.5,0,3,0.1,4.4,0.6
		c3.8,1.5,7.4,1.1,11-0.8c1.3-0.7,2.9-0.6,4.2-1.1c1.8-0.6,4.4-0.9,5.1-2.2c0.8-1.4,0.8-4.6-0.3-5.6c-2.9-2.8-1.5-4.7,0-7.3
		c1.2-2.1,1.8-4.6,2.6-6.9c-2.3-0.4-4.5-1.2-6.8-1.1c-4.3,0.1-7.1-1.4-9.1-5.4c-0.8-1.6-3.2-3.5-4.6-3.4c-1.7,0.2-3.8,2.2-4.7,3.9
		c-1.7,3.2-3.7,4.9-7.5,5C292.9,542.5,289.4,543.2,285.8,543.7z"/>
	<path d="M285.8,543.7c3.6-0.4,7.1-1.2,10.7-1.2c3.7-0.1,5.8-1.7,7.5-5c0.9-1.7,3-3.7,4.7-3.9c1.5-0.2,3.9,1.8,4.6,3.4
		c1.9,4,4.8,5.5,9.1,5.4c2.2-0.1,4.5,0.7,6.8,1.1c-0.8,2.3-1.4,4.8-2.6,6.9c-1.5,2.6-2.9,4.5,0,7.3c1,1,1.1,4.2,0.3,5.6
		c-0.8,1.3-3.3,1.6-5.1,2.2c-1.4,0.5-3,0.4-4.2,1.1c-3.6,1.9-7.1,2.3-11,0.8c-1.3-0.5-2.9-0.6-4.4-0.6c-3.7,0.1-6.6-2.7-7-6.4
		c-0.2-1.6-0.9-3.3-1.7-4.8c-2.4-4.1-5-8-7.5-12.1C285.8,543.6,285.8,543.7,285.8,543.7z M305.7,551.1c0.7,3.9,3.3,6.8,5.9,6.6
		c2.9-0.2,4.4-2.1,4.2-4.8c-0.2-2.9-1.7-5.6-4.9-5.2C309.1,548,307.5,549.9,305.7,551.1z M304.2,554.2c-1.8,1.4-4.3,2.4-5,4.2
		c-0.7,1.7,0.4,4.2,0.7,6.3c1.6-0.4,3.6-0.5,4.9-1.4c1.4-1,2.2-2.8,3.3-4.3C306.8,557.4,305.7,556.1,304.2,554.2z M315,557.3
		c2.8,3.8,4.9,7,9.3,6.2c0.9-0.2,2.2-2.8,2-3.1c-2-2.2-4.1-4.5-6.6-5.9C318.9,554.1,316.6,556.3,315,557.3z M313.4,545.6
		c-0.4-2.6-0.6-5.4-1.4-8c-0.4-1.1-2.2-2.6-3.2-2.4c-1.2,0.2-2.6,1.7-3,3C304.4,542.4,308.3,546.5,313.4,545.6z M299.4,555.4
		c1.6-4.8,3.1-9.2,4.9-14.4C298.4,544.5,296.9,549.8,299.4,555.4z M317.3,564.9c-0.1-0.7-0.1-1.4-0.2-2.1c-3.6,0.2-7.1,0.5-10.7,0.7
		c0,0.7,0.1,1.4,0.1,2C310.2,565.4,313.8,565.1,317.3,564.9z M288.2,544c2.1,3.6,5.1,2.7,7.7,2.6c0.8,0,1.6-1.4,2.9-2.6
		C294.7,544,291.7,544,288.2,544z M301.5,552.9c0.7,0.2,1.4,0.4,2.2,0.6c0.9-2.7,1.7-5.4,2.6-8.1c-0.6-0.2-1.3-0.4-1.9-0.6
		C303.4,547.6,302.4,550.2,301.5,552.9z M321.4,552.8c-0.2-5.1-2.6-8.9-6.7-10.8C317,545.5,319.1,549.1,321.4,552.8z"/>
	<path d="M230.6,554.5c-3.3-0.2-6.7-3.6-5.7-6.1c0.8-2.1,3.1-4.4,5.2-5c2.5-0.7,5.9,3.6,5.5,6.3
		C235.3,552.9,233.2,554.3,230.6,554.5z M235,549.6c-2.1-1.9-3.3-3.7-4.9-4.2c-0.7-0.2-3.3,2.5-3.1,3.4c0.4,1.5,2.1,3.2,3.6,3.7
		C231.4,552.8,233,551,235,549.6z"/>
	<path d="M213.7,540.4c1.9,2.6,3.8,4.1,4.1,5.9c0.2,1-2.8,3.7-3.5,3.4c-1.8-0.6-3.7-2.4-4.3-4.1
		C209.6,544.6,211.9,542.8,213.7,540.4z"/>
	<path d="M360,199c0.1,3.5-3.1,5.6-7,4.3c-4.9-1.7-9.8-3.5-14.6-5.4c-5.5-2.1-7.7-6.7-5.7-11.4c2.1-4.9,9.1-8,13.6-5.3
		c6.4,3.8,10.5,9.8,13.5,16.5C360,198.2,359.9,198.6,360,199z M332.5,190.1c2.3,2.3,3.6,4.6,5.6,5.6c5,2.3,10.2,4,15.4,5.7
		c1.1,0.4,2.9,0.1,3.8-0.7c0.6-0.5,0.7-2.7,0.1-3.4c-3.5-4.7-6.9-9.7-11.2-13.6c-1.5-1.4-5.8-1-8.2,0
		C335.9,184.5,334.7,187.4,332.5,190.1z"/>
	<path d="M334.3,178.9c-5.7-0.5-9.9-1.9-12.5-6.1c-2-3.1-0.3-6,3.4-6c4.8,0,8.7,2.2,11.4,6.1c0.7,1.1,1.1,3.1,0.6,4.2
		C336.7,178.2,334.8,178.6,334.3,178.9z M336.4,176.7c-2.3-5.1-5.5-7.5-10.2-7.7c-1-0.1-2.1,0.4-3.1,0.6c0.3,1.1,0.3,2.6,1,3.4
		C327.3,176.3,331.3,177,336.4,176.7z"/>
	<path d="M347.7,179.4c-4.3-0.4-9.8-5.2-9.8-8.8c0-1.2,1.8-3.2,3.1-3.5c4.3-1.2,10.3,3.5,10.6,8
		C351.7,178.1,349.9,179.3,347.7,179.4z M338.1,170.2c3.2,2.7,5.5,5,8.1,6.8c0.6,0.4,2.2,0,2.9-0.6c0.5-0.4,0.4-1.9,0.1-2.7
		C347.8,169.7,344.2,168.1,338.1,170.2z"/>
	<path d="M366.9,188.7c-0.9,0.7-2.3,2.6-4,3.1c-2.9,0.8-7.8-4.1-7.2-7.3c0.3-1.7,2.4-3.8,4.1-4.4
		C362.3,179.2,366.8,184.1,366.9,188.7z M360.1,180.3c-1.3,2.4-2.7,4-2.4,4.4c1.5,1.9,3.4,3.6,5.2,5.3c0.7-0.9,2.2-2.2,2-2.6
		C363.7,185.2,362.2,183.3,360.1,180.3z"/>
	<path class="st0" d="M305.7,551.1c1.7-1.2,3.4-3.2,5.2-3.4c3.2-0.4,4.7,2.3,4.9,5.2c0.2,2.7-1.3,4.6-4.2,4.8
		C309,557.9,306.4,555,305.7,551.1z"/>
	<path class="st0" d="M304.2,554.2c1.5,1.9,2.6,3.3,3.9,4.8c-1.1,1.5-1.9,3.3-3.3,4.3c-1.3,0.9-3.2,1-4.9,1.4
		c-0.3-2.1-1.4-4.6-0.7-6.3C299.9,556.6,302.4,555.6,304.2,554.2z"/>
	<path class="st0" d="M315,557.3c1.7-1.1,3.9-3.2,4.7-2.8c2.5,1.4,4.6,3.7,6.6,5.9c0.2,0.3-1.1,2.9-2,3.1
		C319.9,564.4,317.7,561.2,315,557.3z"/>
	<path class="st0" d="M313.4,545.6c-5.1,0.9-9-3.2-7.6-7.4c0.4-1.3,1.8-2.8,3-3c1-0.1,2.9,1.3,3.2,2.4
		C312.8,540.1,313,542.9,313.4,545.6z"/>
	<path class="st0" d="M299.4,555.4c-2.6-5.6-1-10.8,4.9-14.4C302.5,546.1,301,550.6,299.4,555.4z"/>
	<path class="st0" d="M317.3,564.9c-3.6,0.2-7.1,0.5-10.7,0.7c0-0.7-0.1-1.4-0.1-2c3.6-0.2,7.1-0.5,10.7-0.7
		C317.2,563.5,317.3,564.2,317.3,564.9z"/>
	<path class="st0" d="M288.2,544c3.5,0,6.5,0,10.5,0c-1.3,1.2-2,2.5-2.9,2.6C293.3,546.7,290.3,547.6,288.2,544z"/>
	<path class="st0" d="M301.5,552.9c0.9-2.7,1.9-5.3,2.8-8c0.6,0.2,1.3,0.4,1.9,0.6c-0.9,2.7-1.7,5.4-2.6,8.1
		C302.9,553.3,302.2,553.1,301.5,552.9z"/>
	<path class="st0" d="M321.4,552.8c-2.3-3.8-4.5-7.3-6.7-10.8C318.9,544,321.2,547.7,321.4,552.8z"/>
	<path class="st0" d="M235,549.6c-2,1.4-3.6,3.2-4.4,2.9c-1.5-0.6-3.3-2.2-3.6-3.7c-0.2-0.9,2.4-3.6,3.1-3.4
		C231.7,545.9,232.9,547.7,235,549.6z"/>
	<path class="st0" d="M332.5,190.1c2.2-2.7,3.4-5.6,5.5-6.4c2.4-1,6.7-1.4,8.2,0c4.3,3.9,7.7,8.9,11.2,13.6c0.6,0.8,0.5,2.9-0.1,3.4
		c-0.9,0.7-2.7,1-3.8,0.7c-5.2-1.7-10.5-3.4-15.4-5.7C336.1,194.8,334.8,192.4,332.5,190.1z"/>
	<path class="st0" d="M336.4,176.7c-5.2,0.3-9.2-0.4-12.3-3.7c-0.7-0.8-0.7-2.2-1-3.4c1-0.2,2.1-0.7,3.1-0.6
		C330.9,169.2,334.1,171.6,336.4,176.7z"/>
	<path class="st0" d="M338.1,170.2c6.1-2.1,9.7-0.6,11.1,3.6c0.3,0.8,0.4,2.3-0.1,2.7c-0.7,0.6-2.4,1-2.9,0.6
		C343.7,175.2,341.3,173,338.1,170.2z"/>
	<path class="st0" d="M360.1,180.3c2.1,3,3.7,4.9,4.8,7.1c0.2,0.4-1.3,1.7-2,2.6c-1.8-1.7-3.7-3.3-5.2-5.3
		C357.4,184.3,358.7,182.6,360.1,180.3z"/>
</g>
</svg>
