<?xml version="1.0" encoding="utf-8"?>
<!-- Generator: Adobe Illustrator 26.0.0, SVG Export Plug-In . SVG Version: 6.00 Build 0)  -->
<svg version="1.1" id="Capa_1" xmlns="http://www.w3.org/2000/svg" xmlns:xlink="http://www.w3.org/1999/xlink" x="0px" y="0px"
	 viewBox="0 0 595.3 726.1" style="enable-background:new 0 0 595.3 726.1;" xml:space="preserve">
<style type="text/css">
	.st0{fill:#FFFFFF;}
</style>
<g>
	<path d="M582.1,503.2c-0.6,13.3-12.5,21.7-25.3,17.5c-1.2-0.5-2-0.2-2.9,0.7c-10.5,9.4-26.4,1.5-32.1-9.8
		c-29,7.8-44.6-24-61.1-41.8c-3.2,8.9-7.3,16.9-14.8,22.8c-1.4,1.1-1.5,2.3-1.4,3.9c2.5,17.8-11.4,45.9-32.4,33.6
		c-6.5,4-12.9,4-18.8-1.2c-2.6,0.4-3.3,2-3.5,4.4c-5.1,58.1-21.6,115.4-49.5,166.7c-14.3,26.3-49.2,32.5-74.7,19.6
		c-18.2-9.4-26.1-30-38.1-45.6c-7.7-12.3-19.4-27.8-16.6-43c4.7-23.7,20.4-60.2,50.4-50.9c11.7-10.9,25.2-11.8,39.7-4.5
		c2.6-2.2,10-17.6,11.6-24.1c-8.6-3.1-18.3-2.3-26.2-7.5c-4.6-2.6-9.2-5.3-13.8-7.9c-8.4-3.3-16.4-7-23.8-12.4
		c-48.5,24.8-88.3,62.2-131.1,95.1c-9.7,6.5-20.3,13.1-32.3,13.7c-33.6-2-57.9-41.7-77.5-65.6c-2.5-3.4-4.4-7.4-6.1-11.3
		c-7.1-16.6,10.9-35.7,22.6-45.9c15.6-12.4,38.4-15.7,56.3-6.3c13.8,7,21.4,20.9,27.5,34.5c38.7-17.1,72.8-42.9,105.7-69.1
		c1.5-1.2,2-2.4,1.9-4.3c-0.1-3-0.1-6,0.5-8.9c0.9-5,3.7-9.1,7.7-12.1c2.5-1.8,2.8-4.5,3.8-6.9c-1.9-6-4.1-12-3.3-18.6
		c-17-4.5-24.1-13.6-36.2-24.8c-15-11.3-30.6-21.7-46.3-31.9c-14.7-8.8-29.9-25.1-22.7-43.5c1.7-5,3.8-9.5,5.3-14.6
		c-21.1-0.9-40.9-11.6-52.8-29.1c-12.3-17.5-1.1-38,13.9-49.6c-11.3-1.1-22.4-1.1-33.7-2.2c-15.6-1.3-37.6-3.5-36.5-23.8
		c0.4-4.1,2.4-6.9,6.3-8.6c20.8-9.1,42-16.7,63.6-23.8c-0.4-3.3-1.2-6-0.3-9.3c0.4-1.9-0.2-4.1-0.4-6.2c-0.3-3.1-0.7-6.1-0.8-9.2
		c-0.2-5.1-0.1-5.1-2.5-9.2c2.8-1.6,2.7-4.5,3-7.2c0.8-8,2.5-15.7,5-23.3c1.8-4.5-1.9-8.1-3.6-12c-0.9-1.5-0.9-2.9-0.5-4.6
		c6-21.1,20.4-39.3,39.9-49.3c-3-7.7-6.1-15.4-9.2-23.4c8.6-4.6,17.6-8.2,26.4-12.4c0.7-0.3,1.5-0.5,2.2-0.4
		c32.8,5,65.3,12.4,96,25.1c35.2,7.4,67.9,24.6,92.2,51.3c0.9,1,1.9,1.7,3.3,1.9c4.2,0.3,7.1,3.9,11.1,4.6
		c12.1,1.1,24.1,2.8,22,19.5c19.9,6.8,40.3,20.7,43.8,43c0.2,1.5,0.9,2.5,2.1,3.4c14.1,9.5,26.7,21.4,41.8,29.4
		c3.4,1.6,7,2.7,10.6,4.1c1.8,0.7,3.2,0.2,4.5-1.2c12.4-11.3,25.3-28,43.6-27.7c11.9,4.5-14.3,39.3-21.1,43.3
		c-10.5,8.9-22.4,9.5-34.9,5.4c-3-1-5.8-0.9-8.8-0.6c-24.4,2-45.3,14.9-67.9,23c-6.6,2.5-13.3,2.7-20.4,2.5
		c-0.6,3.2-1.4,6.3-1.7,9.4c-0.7,12.2-3.7,24.7-2.8,36.8c4.5,10.4,2.9,21.4,0.5,32.1c22.2,1.7,44.7-1.2,66.8,2.5
		c19.3,4.3,47.6,0.2,46.8,27.8c1.9,1.4,3.3,1.1,4.8-0.5c1.7-1.7,3.5-3.2,5.4-4.8c4.6-3.9,7.7-8.8,9.5-14.6c1.4-2.8,1.6-8.6,5.4-9
		c3.8,0.3,4.2,6.1,4.9,9c1.1,11.8-3,22.2-11,30.9c18.6,20.7,5.8,57.4-23.6,58.2c12.1,10.4,21.3,22.7,31.8,33.8
		c27.1-28,68.4,1.5,88.4,24.7C597.6,475.1,599.8,497.8,582.1,503.2z"/>
	<path class="st0" d="M112.2,195.9c54-38.4,133-54.3,198-41.2c-0.4,1.4-0.8,2.5-1.3,4.1c22.2-29.8,67-27.5,96.8-10.8
		c24.2,12,48.6,45,78.2,35c-3.6,0.1-7.2,0.7-11.4-0.1c1.4-1.2,2.5-2.1,3.4-2.9c7.4,2.5,14.3-2.1,15.2-10.3c6.8-2.5,3.8-4.2,6.7-7.6
		c3.7-1.2,14.3-8.2,17.1-5.2c2.7,4.4-8.5,21.1-11.7,25c-9.2,12.6-22.6,22.7-38.8,17.8c-27.3-7.3-44-34.4-71.5-41.7
		c-23.2-7.6-51.5,0.6-62.2,23.6c1.8-2.2,3.7-4.4,5.9-7.2c5.5,40.4,37.6,47.3,74,27.8c7.3-2.4,27.6-12,33.7-7.2c1.8,1.4,4,2.5,6.6,4
		c-22.4,0.2-42.2,9.8-61.9,19.2c-10.3,4.8-21.4,7.4-32.8,6.3c-0.7,0-1.5,0-2.3,0.4c1.4,0.5,2.9,1,4.3,1.5
		c-1.4,13.3-2.9,26.5-4.3,39.9c-0.8-0.5-1.6-1-2.5-1.6c21.5,42.9-21.8,80.3-53.2,103.5c-7.6,6.1-13.9,13.4-18.6,22
		c-2.4,4.3-5.1,8.3-8.7,11.7c-11.3,11-27.1,13.7-42.2,12.7c-18.9-1.5-32.6-17-42.6-31.8c0.1,1.5,0.3,3,0.5,4.8
		c-15.5-11-31.2-22.1-47.1-32.7c-9.5-6.9-19.4-16.1-18.2-29c2.3-16.3,11.5-24.4,6.6-42.7c-4.2-18.3-12.6-35.2-19.2-52.7
		c-1.1-4.1-3.8-8.4-2.3-12.6c5-15.6,20.7-15.5,17.6-20.7C120.8,190.4,117,193,112.2,195.9L112.2,195.9z M143.5,213.4
		c1,1.2,2,2.4,3.1,3.9c-10.7,0.7-18.4,4.9-19.9,10.9c5.5-7,22.9-14.2,26.2-1.9c-21.8-5.2-33.5,16.6-28.6,35.5
		c1.8,11.8,8.3,21.6,13.3,31.9c-0.8,3.3-0.6,6.7-2,9.9c-1.5,3.6-1.9,7.6-1.1,11.6c1.2-3.6,1.4-7.5,3.4-10.8
		c6.6,12.2,21.7,34.7,36.7,20.2c9.4-8.7,15.9-19.4,19.8-31.6c1.4-4.4,1.4-8.8-1.3-12.9c-0.1-0.1,0.1-0.4,0.1-0.9
		c13.6-0.1,27.1,2.1,40.7,2.8c-15.5-5.9-32.2-5.7-48.5-7c-4.4-0.5-8.4-1.5-12.9-1.4C172.4,250.5,162.3,227.4,143.5,213.4z
		 M227.4,273.3c0,0.2,0.1,0.3,0.1,0.5c11.2-0.9,21.3-6.8,31.8-10.5c11.3-4.7,23.2-6.4,35.4-6.7c0-0.1,0-0.3,0-0.4
		c-1.2-0.4-2.3-0.8-3.4-1.2c9.5-30.6-11.4-72.1-47.5-62.2c-38,9.3-37.5,56.9-10.1,78.3C231.4,271.9,229.4,272.6,227.4,273.3z
		 M188.1,359.9c13.1,8.4,2,24,14.5,27.8c15.3,4.3,31.3,1.9,46.1-3.2c15.2-4.9,25.8-16.9,33.3-30.5c13-19.7,9.4-42.7,4.2-64.3
		c3.4-0.9,6.4-1.7,9.6-2.6c-5.8-3.2-21.3,0.8-22.5,8.4c3.8-2.1,6.7-4.1,10.4-4.9c-1.2,28.1-20.5,52.9-48.8,57.3
		c-15,3.1-30.6,0.1-45.5,3.1c-4.5,1.1-9,2.5-13.5,3.8c-2.3,0.7-4.5,0.8-6.8,0.3c-14.3-2.9-23.8-14.5-30.9-26.5
		c0.2,6.5,6.2,14.5,10.6,19.1c6.4,6.4,13.8,10.7,23.1,11.4c1.1,0.1,1.8,0.6,2.5,1.3C179.5,366,184.2,367.8,188.1,359.9z
		 M322.5,271.5c-3.1-4.8-10.1-6.5-15.2-4.1c-9.7,4.9,0.6,16.2,8.4,15.3c0.8,0,1.7,0.1,2.7,0.1c-2.1,15.8,19.8,22.1,13,2.1
		c4-2.5,4.2-6.2,3.3-10.2C332.9,267.9,327.5,267.4,322.5,271.5z M271.3,172.4c1.2-15.6-26.5-22.7-38.5-18.9
		c-5.8,1.3-6.8,2.3-5.3,9.3c0.7,3.2,1.4,3.4,4.7,3C246.4,163.1,258.5,166,271.3,172.4z M283.8,199.6c0.2-0.2,0.5-0.4,0.7-0.7
		c-5.9-9.2-15.3-15-26.1-16.8c-6.8-1-15.1-1.1-20.4,4.1C254.2,179.9,272.9,186.5,283.8,199.6z M167.6,331.9c-0.6,6,6.9,17,11.8,17.4
		C174.3,344.2,170.5,338.4,167.6,331.9z M235.3,302c-0.1-3.1-4.8-2.8-4.6,0.3C230.9,305.2,235.5,304.9,235.3,302z M236.3,322.1
		c0.1-2.7-3.9-2.8-4-0.1C232.2,324.7,236.3,324.8,236.3,322.1z M219.7,319.3c-1.7-1.7-3.8-3.3-4.6-0.3c-0.2,1.1,0.8,2.4,1.9,2.1
		C217.8,320.9,218.5,320.2,219.7,319.3z"/>
	<path class="st0" d="M258.7,582.8c-7.8,11-11.8,22.8-12.7,35.7c6.8-29.2,27.4-58.8,57.8-35.6c-10.1,11.8-13.6,25.5-14,40.3
		c0.2,0.1,0.4,0.1,0.6,0.2c2.7-12.6,5.7-26,14.7-35.9c11.9-13.4,30.4-2.9,34.5,11.5c7.3,20.1,1.8,41.6,3.2,62.4
		c3.7-16.9,5.6-34.3,3.6-51.6c-0.1-1.2-0.1-2.2,0.6-3.4c1.4-2.5,1-5.7-1.3-7.3c-2.9-2.1-3.2-4.9-4.7-8c4.1,0.3,7.8,0.4,9.1-4.3
		c4.4,1.6,6.2,1.2,7.4-1.3c1.3-2.7,0.2-4.9-3.9-7.4c7.8-5.9-0.6-14.4-8-12.5c-3.3,1-3.7,4.1-4.6,7.1c-1.9-0.2-4-1.4-5.8,0
		c-3.6,3.2-3.3,6.9,2.3,9.9c-0.2,0.7-0.4,1.5-0.7,2.5c-8.9-7.7-18.3-10.9-29.4-4.9c-0.7-0.6-1.4-1.2-2.2-1.9
		c13-24,20.7-50.2,26.3-76.8c0.9-3.1,0.1-6.8,1.7-9.5c8.8-10,18.9-18.3,31.9-22.3c7.7-2.6,16.5-2.7,22.8,3.1c1.4,1.2,2,2.5,2,4.4
		c-1.2,71.7-15.1,143.4-47.3,207.9c-12.8,32.2-43.4,44.9-74.9,30c-6.2-2.9-11.2-7.7-15.2-13.2c-9.7-14.1-19.4-28.3-28.9-42.5
		c-5.2-9-11-18.9-8.4-29.7C219.5,610,232.7,574.4,258.7,582.8z M363.9,557.3c9.3,5.8,9-7.8,7.2-13.6c4.6-0.8,6.7-4,7.5-8
		c1.1-6,2-15.3-5.9-16.8c0.1-4.5,1-8.8-0.9-12.8c-5.1-8.1-11.2-1.2-13.8,4.9c-1.7-2.2-3-4.4-6.1-3.8c-2.7,0.5-4.3,2.2-4.7,4.8
		c-0.7,4.1-0.2,8.1,0.8,12.1c-3.5,0.8-6.7,2.2-8.2,5.6c-4.3,8.3-1.8,22.2,9.6,21.6c0,2.1-0.2,4,0.1,5.9c0.5,3.4,3.6,5.9,7.1,6.3
		C360.4,564,362.5,561.2,363.9,557.3z M245.9,632.2c9.3-16.7,34.9-10,44.9,2.7c8.7-5.5,18.9-6.7,27.3-0.1
		c15.6,13.6,14.2,39.8,12.6,58.7c0.2,0,0.4,0.1,0.6,0.1c9.3-27-1.8-83.6-40.4-60.7c-9.3-15-37-20.5-46.1-2.9
		c-5.9-4.6-13-6.5-20.3-4.6c-3.9,1-8.7,4.2-8.2,8.8C224.9,624.5,235.9,627.8,245.9,632.2z M303.1,714.9c10.2,0.7,21.7-7.5,12.7-17.4
		c-4.1-3.6-9.1-6.4-13.2-10.1c-6.8-5.7-12.4-13.4-21.3-15.9c-9.7-2.9-17.4,2.6-18.3,12.5c0.1,2.3-0.8,4.2-2.1,6
		c-6.6,9.4,1.1,19.2,10.4,21C281.7,712.8,292.6,713,303.1,714.9z M284.2,654.3c-1.2-8.4-4.7-16.5-12.6-20.6
		c-7.5-4-14.6-0.2-15.3,8.2C253.6,659.3,280.6,679.6,284.2,654.3z M320.2,663.4c-0.1-6-1.9-10.6-5.4-14.6c-4.8-6-15.1-7-18.8,0.6
		C286.2,668.1,316.3,690.5,320.2,663.4z M224.3,647.5c0.5,10,9.9,22,20.5,21.7c3.3-0.2,5.6-2,6.6-5.2
		C256.6,648.5,226.4,625.1,224.3,647.5z"/>
	<path class="st0" d="M48.7,505.9c-16,0.2-36.9,24.2-40,39.2c-1.2-0.2-2.4-0.5-3.9-0.8c7.3-22.1,27.8-41.7,51.9-41.9
		c43.5-1.6,52.4,48.1,60.1,81c0.2-14.9-3.8-28.5-7.4-43c4.8-2.1,10.1-4,15-6.1c1.2-0.5,2.3-0.8,3.7-0.5c2.8,0.6,5.3-0.6,6.5-3.1
		c1.5-3,7.2-5.8,10.6-5.1c1.2,0.3,2.7-0.6,4-0.9c4.8,6.3,14.4,1.1,12.7-6.3c3.4-1.9,7.1-3.9,5.6-9.1c1-0.7,2-1.4,2.9-2
		c0.3,0.3,0.5,0.3,0.6,0.5c2.5,8,9.6,2.8,13.9-0.7c7.1,7.3,17.8-2.4,13.6-11.1c7.7-0.1,13.7-10.8,8-16.8c3.1-2.8,6.1-5.6,9.4-8.7
		c4.6,20.9,14.7,38,30.5,51.7c-38.4,20.1-73.6,45.6-106.4,73.8c-18.3,13.8-44.7,41.5-69.3,28.7c0.6-0.1,0.8-0.2,1-0.2
		c7.1,0.9,5.3-6.3,2.3-9.9c-8-7.6-16.6-14.6-23.9-22.9c-3.7-3.1-9-9.3-14.1-8.7c-2.5,0.2-3.7,1.7-3,4.1c1.2,3.7,3.9,6.6,5,10.5
		c-4.9-5-9-10.7-13.5-16c-0.5-0.6-1-1.3-1.1-2.1c-0.6-5.7-3.4-10.4-6.6-14.9c-2.8-3.9-5.8-7.6-10.4-9.7c-2.1-1.6-2.5-5.1-2.2-7.6
		c1.9-1.1,3.3,0.3,4.9,1c2.8-4.5,6.7-8.5,12.2-5.5c4.9,2.5,9,6.3,12.2,10.8C47,545.2,57.8,561,61.6,572
		c4.7,15.2,13.6,28.4,19.7,42.9c0.7,1.9,0.9,4,1.4,6.2c3-7.1-6.2-21-8.8-28.1c-8.1-15.2-14.1-51.3-38.2-42.2
		c4-15.5,27.1-34.7,43.3-35.3c-16.3-5.6-43.3,18.9-45.4,34.8c-5.6-5.8-11.8-14.5-20.8-9C20.3,525.9,33.3,513.4,48.7,505.9z
		 M16.3,552.3c0.7,7,3.6,13.3,7.6,19c2.2,2.5,6,8.7,9.8,6.9c2.1-1.1,2-3.3,1.6-5.3c-1.9-9.4-6.2-19.5-14.7-24.7
		C17.8,546.7,16.3,549.9,16.3,552.3z M56,584.8c-1.2-8.7-4.5-16.4-11.2-22.4c-2-1.8-5.5-2.2-6.2,1c-1.2,6.8,2.2,13.4,5.8,18.9
		c1.4,2,3.1,3.9,4.8,5.6C52.4,591.2,56.4,589.4,56,584.8z"/>
	<path class="st0" d="M96.9,215.2c1.1-1.9,2.2-3.7,3.3-5.6c0.1,0,0.3,0.1,0.4,0.1c0,1.8,0,3.6,0,5.6c-3.4,2-6.8,4-10.2,6
		c-0.6,0.3-1.3,0.4-2,0.4c-18.5-0.5-37-1.6-55.3-5.4c-8.2-1.2-14.7-8.3-14.2-16.8c0.2-2.7,1.2-4.5,3.9-5.7
		c79.8-31.5,162.6-54.9,245.1-78c40-10.4,87.2-25,123.8,2.4c8.7,6.7,15.5,15.5,17.6,26.6c-28.6-15.9-70.2-20.1-95,4.9
		c-1.1,1.2-2.1,1.5-3.6,1.1c-59.9-12.4-122.5,0.2-176.6,27.2c-11.5,6.2-23.8,12-31.9,22.7C99.5,204.3,95.4,210.8,96.9,215.2z
		 M26.9,212c-0.6-2.9-0.5-3.1,2.2-4.4c37.4-14.8,76.3-25.7,114.4-38.4c63-15.7,196-80.3,249.9-39.9c-42.9-48.5-189,20-245.4,34.1
		c-41.1,13.9-83.3,25.4-122.6,43.7C23.3,208.5,24.2,212.1,26.9,212z"/>
	<path class="st0" d="M317.7,538.1c-1.2,3.3-2.4,6.3-3.5,9.4c-17.8,1.1-35.6-24.8-40.5-40.1c-0.5-1.2-0.2-2.2,0.7-3.3
		c9.7-11.9,12.9-25.8,12.1-40.9c-0.1-2.2-0.4-3.9-3-4.8c-3.8-1.3-3.4-6.2-3.4-9.6c33.1-1.2,75.4-22.4,71.7-60.9
		c10.5,4.2,20.4,9.4,31.3,12.6c1.1,0.4,2.3,0.4,3.6,0.1c-1.2-0.6-2.4-1.1-3.6-1.7c0-0.1,0-0.3,0-0.4c16.8-1.2,17.3,7.5,34.9,7.2
		c4.9-0.2,8.4-0.2,12.1,3.6c7,6.5,11.7,14.3,14.5,23.3c5.1,16.2,6.6,42.2-6,55.2c-15.6,13.1-30.7,26-47.8,37.3
		c0.5-3.7-0.6-8,1.9-10.2c7.8-8.9,12-19.4,13.5-31.1C411.3,389.1,262.6,491.5,317.7,538.1z M443.5,466.4c3.4-1.5,3.4-4.3,2.3-7.3
		c-1.4-3.6-2.9-7.2-4.7-10.6c-2.2-4.2-5.8-6-10.5-4.8c-6.2,1.7-12.5,0.6-18.7,1.5c-4.2,0.2-4.7,2.5-5,6.3
		c-0.8,8.3-0.1,16.5,0.8,24.7c0.3,3.1,1.8,5.5,4.2,7.3c10.4,8.8,30.4,4.5,31.5-10.4C443.7,470.9,443.5,468.7,443.5,466.4z"/>
	<path class="st0" d="M462.8,459.1c1.6-19.9-2-37.8-15.8-53.2c4.9-0.6,9.1-0.5,13.9-0.8c1.4-0.1,2.5,0.5,3.4,1.5
		c9.2,9.3,17.7,19.2,26.3,29c0.5,0.6,0.9,1.2,1,2.2c-2.4-1-4.3-3-6.2-1.5c-2.3,1.4-1.7,3.5-1.4,5.6c-4.1,1.3-6,3.1-5,7.2
		c0.9,4.4,5.7,6,9.7,4.5c1.3,6.7,5.9,10.3,12.5,9.9c5.6-0.2,7.3-3.5,7-8.7c4.8-1,8.1,2.7,12.4,3.3c-7.1-5.4-13.8-11.1-20.1-17.9
		c13.3-14.6,34.9-10.2,50.1-1.2c16.7,10.3,37.3,22.9,41,43.7c2.1,14.8-11.7,23.6-24,14.7c1.7,4.2,7.9,5.2,12.4,6.3
		c-2.9,17-23.5,19.1-34,7.5c0.7,3.7,3.7,5.7,6.4,8.2c-10.2,6.6-21.6-0.1-28.3-8.6c14.7-7.2,22.8-22.9,23.1-38.8
		c-5.5,22.6-24.7,47.8-49.6,32.1c-13.8-10.2-24.4-24.3-35.9-36.8c3.2-5.1,6.4-10.2,9.6-15.3C467.6,453,465.9,456.6,462.8,459.1z
		 M531.3,470c-0.1-7.7-9.7-5.6-10,0.3c-3.6-0.7-5.2-0.2-5.7,1.8c-0.5,2,0.8,3,4.8,3.9c3.1,5.5,7.7,4.5,12.2,1.5
		C537.2,476.3,535.2,470.8,531.3,470z M536.9,464c2.2,0,3.1-1.4,2.1-3.3c-1-2.5-6.6-4.3-6.2-0.2C533,462.5,534.7,464,536.9,464z"/>
	<path class="st0" d="M202.9,75.9c-1.2-0.1-2.3-0.1-3.6-0.2c-0.9-10.2-1.4-21.1-7.1-29.9c2.7,10.8,4.3,21.6,3.6,32.9
		c5.8,1.1,11.6,1.3,17.5,1.6c4.5,0.2,11,2.4,11,7.6c-0.1,12.3-3.7,24-7.8,35.4c-0.9,2.9-3,3.7-6.1,3.9c6-12.1,8.6-24.7,8.8-38
		c-2.6,12.7-4.8,25.5-11.2,36.9c-0.8,1.8-2.2,2.8-4.2,3.4c-30.4,9.2-60.9,18.1-91.2,27.9c-4.9,2.3-23.6-19.7-26.4-24.2
		c5.3-5.2,10.6-10.4,16.2-15.8c-4.4-9.5-8.8-18.9-13.2-28.4c-0.6-1.2-0.8-2.3-0.4-3.7c8-25.6,29.1-46.9,56.2-50.6
		c16.6-3,32.8-1.1,48.2,5.8c6.5,2.9,5.2,1.8,6.7,8.4C201.9,56.9,203.1,69.8,202.9,75.9z M100.2,83.7c5.9,27.8,25.2,57.8,57.1,55.3
		c13-3,21.3-29.1,21.8-41.1c1.1-12.7-1.4-25-4.8-37.1c-0.5-3.1-7.2-3-10.4-4.2c-0.5-0.9-1.3-3.7-2.7-4.3c-18.5-6.7-40,2.2-53.2,15.8
		C103.1,73.9,112.5,77.7,100.2,83.7z"/>
	<path class="st0" d="M279.1,69.6c-16.9,3.3-23.7,14.1-23.2,30.4c-9.7,1.3-19.4,2.5-29.2,3.8c-0.7-0.9,0-2.1,0.1-3.2
		c0.5-5.2,0.9-10.3,1.4-15.5c0.1-1.5-0.5-2.4-1.6-3.2c-6.7-6.2-11.2-5.1-20.1-5.8c-1.1-7-0.9-34.1-6.5-36.7
		c-5.2-2.6-10.9-4.2-15.7-7.5C226.2,22.7,257.7,29.9,279.1,69.6z"/>
	<path class="st0" d="M438.3,191.3c-17.6,3.2-33.2,10.5-49.8,16.5c-26.5,9.2-46.3-10.8-49.3-29.6c-1.1-6.7-0.9-5.8,3.7-9.2
		C376.2,143.2,411.9,168.1,438.3,191.3z"/>
	<path class="st0" d="M424.4,402.6c26.4-13.2,27.8-52.8,2.9-68.8c14.2,1,28.1,3.4,42.3,5.1c28.2,2.9,36.2,42.5,13,57.7
		c-3.7,2.8-7.6,4.7-12.5,4.8C454.9,401.5,439.6,402.5,424.4,402.6z"/>
	<path class="st0" d="M258.7,418.4c28-2.6,71.6-13.7,73.7-47.6c-0.6,1.1-1,1.7-1.3,2.3c-0.2,0-0.4,0-0.5,0c-0.3-2.6-0.5-5.2-0.8-8.2
		c8.6,3,20.6,23.1,18.3,32.1c-5.9,32.5-41.4,47.1-71.1,49c-4.5-0.2-8.7-2.8-13.1-3.6c-2-0.5-3-1.3-3.3-3.2
		C259.6,432.1,257.4,425.4,258.7,418.4z"/>
	<path class="st0" d="M101.1,219.9c1.3,4.5,2.6,8.9,3.9,13.4c-6.9,3.8-14.2,7.6-19.2,13.8c-7.3,8.9-1.2,21.8,7.4,27.5
		c-15.3-19.6-6.3-28.4,13.3-37.5c7.4,18.6,22.3,43.2,18.6,63.3c-20.9,0.4-39.2-11.3-50.8-28.1C59.9,251.2,82.2,228.1,101.1,219.9z"
		/>
	<path class="st0" d="M383.7,377.5c2-0.6,3.4-0.1,4.9,1c11,8.4,24,0.2,25.8-10.3c2.8-18.1-13.1-28.5-28.1-17.4
		c19.7-39.2,66.4-9.1,54.3,28.6c-4.4,14.1-17.2,24.3-32.3,22.2C396.6,398.2,386.2,389.8,383.7,377.5z"/>
	<path class="st0" d="M391.6,512c0.2-11,0.4-21.8,0.7-32.5c0.2,0,0.3-0.1,0.5-0.1c0.7,1.2,1.3,2.3,2.1,3.7
		c-1-13.6-16.4-21-28.7-16.9c-17.4,4.3-38.2,21.5-42.5,39c2-3,3.9-5.9,6.2-9.3c0.5,1.5,0.2,2.6-0.1,3.5
		c-3.7,12.5-6.9,24.4-11.3,36.7c-31.7-30.4,20.3-79.4,51.2-86.1C408.7,440.6,410.2,490.9,391.6,512z"/>
	<path class="st0" d="M357,308.9c13.2-0.1,26.3,0.3,39.6,0.1c20.1-0.5,39.8,3.9,59.5,7.1c8.8,1.5,12.8,10.9,12.3,19.1
		c-14.8-1.8-29.4-3.6-44-5.4c-1.7-5.6-2.1-11.9-7-15.7c1.3,5,3.1,9.8,3.3,15.3c-9.1-0.5-17.8,0-25.5,5.4c-1.4,0.9-2.8,1.3-4.5,1.3
		c-4.8-0.1-9.5-0.1-14.5-0.2c-0.1-0.8-0.4-1.4-0.3-1.9c0.8-4.9-4.9-7.7-7.1-11.5c-1.1-1.4-2.4-1.9-4.1-2c-4.2-0.1-8.3-0.4-13-0.7
		C353.7,315.9,355.3,312.5,357,308.9z"/>
	<path class="st0" d="M326.4,350.7c0,8.6,1.3,16.1,3,24.4c0.3,1.7,0.3,3-0.4,4.6c-12,22.4-38.6,30.5-62.1,34.2
		c-1.6,0.3-2.7-0.1-3.4-1.8c11.4-6.4,17.2-17.8,23.9-28.4c3.5-5.3,7.8-9.7,13-13.5C309.3,364,317.5,357,326.4,350.7z"/>
	<path class="st0" d="M120.2,14.3c7.3-3.1,14.4-6.1,21.6-9.2c1.6,7,2,13.8,4.7,20.2c0.8-6.9-0.6-13.7-0.9-20.8
		c27.4,4.3,54,10.3,80,18.9c0,0.2,0,0.4-0.1,0.6c-17.3-0.4-34.3,1-51,5.4c-2.3,0.6-4.6,0.3-6.8,0c-13.9-1.6-27.1,0.7-40.2,5.4
		C124.9,28.3,122.7,21.5,120.2,14.3z"/>
	<path class="st0" d="M372.3,350.2c-1.7,0.5-2.6,0-3.5-1c-6.5-8-17.4-5.7-21.3,3.3c-4.9,9.9-1.1,27.8,12.2,27.6
		c4.3-0.2,7.4-3.8,12-2.5c-0.2,5.2-0.3,10.2-0.5,15.6c-6.9-3.1-13.4-6.3-20.3-9.3c-7.6-6.6-9.9-19.1-21.2-21.5
		c0.2-8.2-2.1-14.4,5-19.9c5.1-5.1,9.6-10.7,13.3-16.9c1.2-1.9,2.3-2.8,4.7-2.5c3.6,0.5,7.3,0.5,11,0.6c2.9-0.1,4,2.8,5.8,4.6
		c3.4,3.9,3.4,3.9,3.2,9C372.7,341.6,372.5,345.9,372.3,350.2z M343.7,351.9c4.6-6.6,7.2-14.1,10.3-21.3c3.6-0.6,7.1,0.6,10.5-0.6
		c0-0.2,0-0.4,0-0.7c-4.1-0.7-8.1-1.3-12.4-2C348.7,335.5,345.3,343.3,343.7,351.9z"/>
	<path class="st0" d="M378.2,374.7c-5.1,0-10.2-0.1-15.2,0c-2.4,0.1-4.1-0.8-5.3-2.7c-4.5-6.2-3.5-20.7,6.6-19.6
		c9.6,1.3,19.2,1.6,28.9,0.9c5.5-0.4,10.2,4,10.6,9.6c0.5,14.5-15.9,11.3-25.5,11.7C378.2,374.6,378.2,374.7,378.2,374.7z"/>
	<path class="st0" d="M247.4,31.7c17.6,4.3,36,10.3,50.1,22c7,7.2,12.7,15.6,15.7,25.2c-9.3-7.2-14.8-7.8-26.3-8.6
		c-2.3-0.1-3.5-1.1-4.6-3c-8.1-14.6-20-27.3-35-35C247.4,32.2,247.4,32,247.4,31.7z"/>
	<path class="st0" d="M430.6,405.9c3.7,0,7.3,0,11,0c1.3,0,2,0.7,2.7,1.5c21.2,23.5,22.5,76.3-11.3,89c7.2-7.5,13.8-13,16.1-23.8
		c6-23.3,0.9-50.6-18.8-65.9C430.5,406.3,430.6,406.1,430.6,405.9z"/>
	<path class="st0" d="M295,96.4c-0.6,4.2-1,9.1-6.3,9.7c-4,0.6-7.9,1.8-11.9,2.9c-9.9,1.2-12.8-16.5-7.3-22.7
		C278.1,74.2,295.3,82.7,295,96.4z"/>
	<path class="st0" d="M442.3,495.4c-1.9,47-39.4,36.3-30.9,19.9c6.3-5,11.8-11.6,18.7-15.5C434.1,499.2,437.9,497.8,442.3,495.4z"/>
	<path class="st0" d="M250.9,513.8c-16.6-13.1-20.9-35.3-21.2-55.2c3.8-2.2,6.7-4.1,6.9-8.8c0.1-1.5,0.6-2.4,2-3
		c10.1-4.3,19.6-3.3,28.5,3.2c3.9,2.9-0.4,7.4,6.7,11.1c1,0.5,1.8,1,1.9,2.4C277.8,484.2,269.7,503.7,250.9,513.8z M232,460
		c-0.8,17.2,4.1,36,16.8,48.2c1.8,1.6,1.9,1.6,3.9,0.5c14.9-8.9,20-27.6,19.8-44c0-1.4-0.5-2.3-2-2.9c-3.2-1.3-5.2-3.7-5.6-7.2
		c-1.6-6.5-19.4-6.5-24.6-4.2C235.6,451.9,240,458.6,232,460z"/>
	<path class="st0" d="M72.5,622.6c-13.1-2-22.2-12.4-31-21.5c-0.5-0.5-1-1.2-1-1.7c0-3-1.7-5.3-3-7.7c-1.1-1.9-4.6-7.6,0.1-6.7
		c5.4,1.8,9.2,6.6,13.2,10.4c5.6,6.1,11.4,12,18,17C71.2,613.8,79,622.4,72.5,622.6z"/>
	<path class="st0" d="M256.7,104.2c1.5,2.9,2.9,5.6,4.4,8.6c-13.8,4-27.5,7.9-41.6,12c1.7-4.8,3.5-9,4.9-13.9c0.6-1.9,1.5-2.7,3.4-3
		C237.4,106.1,247,104.5,256.7,104.2z"/>
	<path class="st0" d="M269.9,110.1c-9.6,8.1-17.9-25.5,1.6-34.4c15.5-8.4,34.2,7.5,31,24.3c0,3.7-2.7,3.2-5.6,3.8
		c2.9-12.5-2.7-25.9-16.6-26.3C264.1,77.4,258.3,99.9,269.9,110.1z"/>
	<path class="st0" d="M224.5,446.7c-2.6,18.2,3.7,36.1,11.1,52.5c4.9,11.2,15.3,18,23.4,26.8c-0.1,0.2-0.3,0.4-0.4,0.5
		c-20.1-10.6-53-59.5-34.7-80C224.1,446.6,224.3,446.7,224.5,446.7z"/>
	<path class="st0" d="M245.2,418.2c-1.9,8-1.1,15.6,0,23.6c-4.2,0.1-7.4-2.5-11.2-3.9c-5.6-2.8-7.8-13.2-8.1-19
		C232.8,419.1,238.3,418.9,245.2,418.2z"/>
	<path class="st0" d="M299.4,546.1c-12.5-0.4-31.2-18.5-34.6-33.2c1.8-1.4,3.3-2.6,5.3-4.2C275.3,524.8,286.7,535.8,299.4,546.1z"/>
	<path class="st0" d="M338.6,98.2c-1.8,0-3,0-4.4,0c-0.1-7.6-3.6-13.9-10.8-17.3c4.3-0.9,8.2,0.2,12.4,0.5c6.1,0.9,14,7.7,13,17
		c-2.7,0-5.4,0-8.2,0c-0.8-3.4-1.1-6.7-4-9.6C337.3,92.1,337.9,94.9,338.6,98.2z"/>
	<path class="st0" d="M316.4,100.1c-3.3,0.6-6.6,1.2-10.4,1.8c1.4-10.5-1.5-19.3-9.4-26.4C307.2,75,318.6,87.2,316.4,100.1z"/>
	<path class="st0" d="M262.8,414.1c-10.6,1.5-6,19.9-5.4,26.9c-2.8,0-5.6,0-8.8,0c-0.9-4.8-3.9-21.8,1.7-23.9
		c3.4-1.1,6.8-2.3,10.1-3.6C261.3,413.2,262.1,412.8,262.8,414.1z"/>
	<path class="st0" d="M392.3,377.3c19.1-1.2,18.2-26.4,0.7-26.8c4-3.4,9.9-2,13.7,1C419.8,361.1,407.7,386.4,392.3,377.3z"/>
	<path class="st0" d="M278.6,462.1c1.6,0,3,0,4.3,0c4.5,14.8-6.8,43.8-24.4,50.7C274.4,500.1,280,481.9,278.6,462.1z"/>
	<path class="st0" d="M367,101.7c-5.4-1-10.3-1.9-15.5-2.9c0.1-4.2-0.8-8.1-2.8-11.8C360.3,85.2,367.6,91.4,367,101.7z"/>
	<path class="st0" d="M489,344.2c-3.6-2.4-6.7-4.6-10.3-7c2.3-1.8,4.6-3.5,7.1-5.4c1.6,2.1,3.6,3.2,6.1,1.8c3.4-1.9,2.3-5.1,1.9-8
		c3.4-2.9,0.9-3.8,0.5-7.1c0.8-2.6,1.2-8.1,3-9.8C501.2,321.3,496.4,333.9,489,344.2z"/>
	<path class="st0" d="M374.9,377.5c1.9,0,3.2,0,4.9,0c1.8,6.9,5.5,13,10.6,18.4c-5.3,0-10.5-0.3-15.6-1.3
		C374.9,388.9,374.9,383.4,374.9,377.5z"/>
	<path class="st0" d="M315.9,82.9c7.5-0.8,15.9,5.9,15.6,15.5c-3.7,0.4-7.5,0.8-11.4,1.1C319.8,93.4,318.6,88.4,315.9,82.9z"/>
	<path class="st0" d="M364.9,349.5c-15-0.6-16,20.6-5.3,28c-10.7-0.4-13.2-14.3-10.2-22.5C351.1,348.6,359.8,343.8,364.9,349.5z"/>
	<path class="st0" d="M98.7,152.8c2.7,2.2,5.3,4.2,8.2,6.5c-6.6,2.2-12.7,4.2-19.1,6.3c-0.1-2.5-1.5-5.2,0.5-6.9
		C91.7,156.6,95.2,154.7,98.7,152.8z"/>
	<path class="st0" d="M327.9,77c-3.9,0.3-7.2,0.6-10.4,0.9c-3.4-6.2-6.9-12.4-10.6-19.1C314.5,64.4,321.4,70.2,327.9,77z"/>
	<path class="st0" d="M87.6,125.5c0.7-7.1,2.4-14,4.7-21.4c3,4.4,4.2,7.7,6.6,12.3c-3.6,3.1-7.1,6.3-10.7,9.4
		C88.1,125.7,87.8,125.6,87.6,125.5z"/>
	<path class="st0" d="M375.9,350.9c0-4.1,0-7.7,0-11.6c4.5,0,8.7,0,13,0c-2.4,3.9-4.6,7.6-7,11.6
		C380.2,350.9,378.2,350.9,375.9,350.9z"/>
	<path class="st0" d="M226.6,456.9c-0.2-5.8,0.5-11.7,2.4-17.6c2.8,1.6,5.5,3.1,8.3,4.6c-2.1,1.9-3.9,1.8-3.6,5.4
		C234.2,453.8,229.6,454.9,226.6,456.9z"/>
	<path class="st0" d="M409.4,528.1c-3.9,2.1-9.2,1.8-13.5-1.1c3.8-2.8,7.4-5.5,11.1-8.2C407.8,522.1,408.6,525.1,409.4,528.1z"/>
	<path class="st0" d="M255.2,517.1c2.4-0.7,4.3-1.2,6.3-1.8c2.9,5.1,5.8,10.3,9,16C264.9,526.8,259.9,522.4,255.2,517.1z"/>
	<path class="st0" d="M87.7,155.2c-0.4-5-0.7-9.2-1.1-13.6c3.2,3.1,6.1,5.9,9.3,9C93.3,152,90.9,153.4,87.7,155.2z"/>
	<path class="st0" d="M21.4,576.9c-5.4-6-10.6-12.2-13.9-19.7C14.2,562.4,18.5,569.1,21.4,576.9z"/>
	<path class="st0" d="M276.7,452c0.9,2.8,1.7,5.2,2.4,7.6c-4.7,0.7-8-2.7-7.4-7.5C273.7,451.4,273.7,451.4,276.7,452z"/>
	<path class="st0" d="M274.2,449.1c-3.4,0.7-5.5-0.7-7.2-2.9C269.4,446.7,271.7,447.4,274.2,449.1z"/>
	<path class="st0" d="M112.1,195.8c-1.1,1.2-2.2,2.4-3.3,3.6C109.3,197.6,110.4,196.3,112.1,195.8
		C112.2,195.9,112.1,195.8,112.1,195.8z"/>
	<path class="st0" d="M162.7,242.9c-21.5,0.7-27.4,25.3-16.1,39.5c-2.5,2.7-5,5.3-7.7,8.1c-7.4-13.4-14.2-30-9.6-45.4
		c3.5-12.3,20.7-19.1,30-9.3C160.5,237.9,161.4,240.2,162.7,242.9z"/>
	<path class="st0" d="M165.8,251.8c-4.1-0.5-7.5-0.4-10.7,2.1c2.3,1.8,4.3,3.7,4.3,6.6c0,5.4-3,8.9-9.5,6.9
		c-0.3,3.4,0.5,5.3,4.5,10.9c-1.9,1-3.8,2-5.8,3.1c-11.1-12-5.2-35.4,12.3-36.3c2.5-0.1,2.6-0.1,3.4,2.3
		C164.8,248.7,165.2,250,165.8,251.8z"/>
	<path class="st0" d="M188,281.8c-1.7,2.1-3.5,2.1-5.9,2.2c-12.5,0.9-25.4,3.6-35.7,11.3c-2.2,1.7-3.5,2-4.2,1
		c-2.2-2.4,4.5-8.4,6.3-9.9C157.8,279.4,178.5,273.1,188,281.8z"/>
	<path class="st0" d="M286.4,254.7c5.4-17.6-5.4-37.7-24.2-40c-28.2-4.1-41.2,35.8-19.1,52c-2.2,1.5-4.4,2.4-6.6,3.1
		c-0.6,0.2-1.8-0.6-2.5-1.2c-13.9-12.1-20.6-33.6-11.4-50.3c26.7-42.1,78.4-9,66.9,34.9C289.1,255,288.9,255,286.4,254.7z"/>
	<path class="st0" d="M274.3,255.8c11-15.7-5.9-37.9-22.7-29.1c12.7,7.2,1.7,24.6-9.6,14c-1.3,9.5,3.7,17.3,12.5,21.1
		c-3.4,1.5-6.2,2.8-9.1,4c-12.4-8.9-15.6-27.6-6-39.6c17.7-23.4,53.5-1,45.4,25.6c-0.8,3.1-0.8,3.1-3.9,3.3
		C278.8,255.4,276.7,255.6,274.3,255.8z"/>
	<path class="st0" d="M287.2,308.7c3.2,18.4-8.4,36.3-20.6,49.2c-11.5,11-25.1,16-41,13.7c-6.4-0.9-6.2-0.8-5.8-7.5
		c0.2-3.6,1.8-6.9,3.7-10c1.7-2.6,7.8-1.3,10.7-2.2c3.6-0.8,5.4,4.4,8.7,5.7c4.1,2.3,7.7,1.1,9.7-3.1c2-3.2,1.1-8.5,4.4-10.6
		c12.8-7.6,21.3-18.7,25.8-32.8C283.7,308.3,283.9,308.2,287.2,308.7z"/>
	<path class="st0" d="M286.2,335c-5.7,24-24.5,45-49.3,49.3c-5.7,0.7-14.6,3.5-19.9,1.6c-13.1-4.5-16.7-21.6-12.4-32.9
		c5.2,0,10.4,0,16.3,0c-2.6,5-4.1,9.9-3.5,15.4c-2.5-0.7-3.4-2.9-5.2-4.3c0.2,6.1,6.9,9.1,12,10c27.6,5.7,52.1-14.5,61.4-39.4
		C285.8,334.9,286,335,286.2,335z"/>
	<path class="st0" d="M208.6,386.3c-2.2-0.6-4.4-1.2-6.5-1.9c-7.5-3,0.8-17.3-11.1-26.5c-6.3-5,6.9-5,10-5c-3,12.5-1.9,23.8,8,33
		C208.9,386,208.7,386.1,208.6,386.3z"/>
	<path class="st0" d="M239.2,351.4c4.8-1.7,8.8-3.1,13.2-4.6c-0.3,4.3-3.2,11.2-8.3,8.3C242.5,354.1,241.1,352.9,239.2,351.4z"/>
	<path class="st0" d="M187.1,355.3c-0.6,2.6-1.8,4.5-3.3,6.3c-2.5,2.8-5.3-1-7.7-2.2C178,357.9,182.9,356.1,187.1,355.3z"/>
	<path class="st0" d="M286.8,305.7c-1,0.1-1.5,0.1-2.5,0.1c0.3-1.8,0.6-3.4,0.9-5.1c0.2,0,0.4-0.1,0.6-0.1
		C286.1,302.2,286.4,303.7,286.8,305.7z"/>
	<path class="st0" d="M302.4,712c-7.5-1.1-15-1.9-22.5-2.4c-3.6-0.2-7.2-0.3-10.6-1.6c-6.7-2-11.8-10.1-7.6-16.5
		c1.7-2.7,2.5-5.5,3.1-8.6c1.4-7.7,7.4-11.5,15-9.4c8,2.3,13.5,9.1,19.4,14.4c4.1,4.8,9.9,7.2,14.5,11.4
		C321.3,707.6,309.8,712.8,302.4,712z"/>
	<path class="st0" d="M281.9,654.9c-2,22.5-26.2,0.1-22.7-13.3c0.9-5.7,5.2-8.2,10.5-5.7C277.2,639.5,281.1,647,281.9,654.9z"/>
	<path class="st0" d="M296.7,656.2c3.6-20.2,23.9-4.3,21.1,9.6c-0.5,7.9-8.7,11.3-14.5,5.7C299,667.8,297.1,662.9,296.7,656.2z"/>
	<path class="st0" d="M250.1,661.3c-1.6,17.5-27.6-4.8-22.6-17.2c0.7-2,2.2-3,4.3-3.1C241,641,249.9,652.7,250.1,661.3z"/>
	<path class="st0" d="M19.1,549.8c6.1,1,18.5,22.8,14.2,27.5C27.7,579.3,14.9,554.1,19.1,549.8z"/>
	<path class="st0" d="M41.5,562.6c7.5,4.5,11.3,13.1,13.1,21.3c0.3,1.5,0.8,3.5-0.9,4.4C48.3,590.6,36.1,566,41.5,562.6z"/>
	<path class="st0" d="M438.5,466c-0.9-3.3-2.6-6.3-6.3-5.7c-4.8,0.4-3.3,5.5-3.1,8.9c-20.7,8.6-4.5-15.6-15.7-18.9
		c8.5,6-7.4,27.3,14.7,22.3c-0.2,1.2-0.4,2.1-0.5,3c-0.2,5,9.3,3.2,10-1.8c0.8-2.8,0.1-5.7,3.9-5.9c4,17.7-24.5,24.2-30.4,8.6
		c-1-8.4-1.8-16.9-1.1-25.3c0.4-3,0.4-3,3.5-3.3c2.2-0.2,4.4-0.5,6.6-0.5c3.7,0,7.3-0.6,10.9-1.5c5.2-1.3,6.5-0.8,8.8,3.9
		c1.6,3.4,2.8,7,3.9,10.6C445.3,464,441,464.5,438.5,466z"/>
	<path class="st0" d="M430,475.7c0.7-3.3,2.1-6.3,1-9.8c-0.7-2.6,0-3.6,1.9-3.8c6.3-0.2,2.9,8.1,2.3,11.7
		C434.6,476,433.1,476.4,430,475.7z"/>
	<path class="st0" d="M104.5,85.7c3.8-2.8,6.8-6.3,5.8-11.1c-1.4-9.7,21.9-18.7,29.8-20c3.2-0.6,6.5-0.8,9.8-1.2
		c6.4-0.3,1,8.8,14.7,8.4c7.3,24,6.9,52.1-11,71.5c-1.4,1.6-2.9,2.1-5,1.8C123.7,131.9,110,108.2,104.5,85.7z M109.6,87.3
		c7.7,22.1,13.7,35.5,37.9,41.2c1.5,0.5,2.5,0,3.3-1.2c16-19.6,15.9-37,9.4-60.7c-5.3,0.9-8.5-1.6-9.7-6.4
		c-13.2-1.6-25.2,3.9-34.8,12.6c-1.2,1.1-1.7,2.1-1.4,3.8C115.5,81.2,113.3,84.6,109.6,87.3z"/>
	<path class="st0" d="M157.2,135.1c17.9-20.8,17.8-48.3,11.5-73.3c1.5-0.3,2.2,0.5,2.5,1.8c4.8,16.9,6.8,33.8,0.8,50.8
		C171.1,118.2,161.5,137,157.2,135.1z"/>
	<path class="st0" d="M159.1,57.7c-0.6-0.6-1.2-1.1-1.9-1.7c1.9-0.9,2.2,0,2.6,0.9C159.6,57.2,159.4,57.5,159.1,57.7z"/>
	<path class="st0" d="M234.2,461.8c7.3-2.7,3.9-8.8,8.2-9.9c4.5-1.4,19.1-1.8,20.5,3.8c0.5,3.4,2.6,5.8,5.5,7.4
		c1.5,0.8,1.9,1.7,1.9,3.3c-0.1,15.3-5.1,32.6-19.2,40.5C238.7,496.7,233.8,477.5,234.2,461.8z M254.4,468.3c-2.4-4,3-9.4-0.7-12
		c-8.6,9.1-8.3,8.2-6.1,20.7c0.2,1,0.2,2-1,2.5c-2.6-2.5-1.3-6-2.3-9c-10.1,8.9-3.6,25.3,6.5,31c1,0.6,1.8,0.6,2.8,0
		c7.5-4.9,12.2-11.4,11.9-20.7c-0.1-4-1.2-7.5-5.4-9.1c-0.3-3.4-0.5-6.7-4.8-8C255.5,465.4,256.4,466.9,254.4,468.3z"/>
	<path class="st0" d="M158.7,69.8c2.5,14.2,6,30.2-1.7,43.4c-2.1,3.8-4.7,7.4-7.1,11.1c-0.7,1.1-1.5,1.7-3,1.3
		c-18.1-3.1-27.9-19-33.3-35.3c-0.4-1.2-0.6-2.2,0.5-3.2c2.7-2.5,3.6-5.8,3.1-9.3c-0.2-7.7,20.7-15.5,27.5-15.2
		C152.4,62.1,147.3,68.6,158.7,69.8z M128.9,87.5c12.2,9.5,17.6-11.7,7.7-17.3c-5.2-3.3-10.4,1.4-10.7,6.8
		c-0.6,3.9,1.3,7.3,3.1,10.6c-11-7.9-16.6,8.5-6.4,13.2C131.4,103.4,133.1,93.2,128.9,87.5z M129.4,107.1c-1,6,5.3,15.2,11.4,9.4
		c3.2-3.3,6.8-5.5,11.4-6.5c5.3-1.1,7.1-5.2,5.1-10.3C149.1,82.2,128.7,87.8,129.4,107.1z M143.2,81.4c0.4,14.8,18,6.1,14.5-6
		c-0.7-5.8-8.3-7.2-11.6-2.6C144.1,75.3,143.1,78.2,143.2,81.4z"/>
	<path class="st0" d="M243.4,473.5c0.6,2.6,0.6,4.5,2,6.5c2.2,2.8,3.8-1.1,3.3-3.2c-1.3-7.6-3.3-13.6,5.3-17.6c-1,2.7-1.1,5.6-1,8.5
		c0.1,0.7,1,1.3,1.5,2c1.7-1.2,2.2-1.5,2.9-4c3.1,5.3-1,10,1.8,14.9c2.5-1.3,2.3-3.6,2.9-5.5c1.2,0.6,1.3,1.7,1.5,2.7
		c1.8,9-3.5,18.2-11.3,22.4C242.2,496.2,237.2,481.7,243.4,473.5z M242.8,478.5c-2.9,6.7,1.4,15.5,7.4,19.2
		c6.2,3.6,14-12.2,11.9-17.4c-1.4,1.5-2.2,3.6-4.5,2.9c-1.2-0.5-1.2-1.7-1.4-2.8c-0.2-4.8-1.6-9.9-7.1-10.9
		c0.7,3.8,1.8,7.2,0.5,10.7C247.7,484.6,244.3,481.4,242.8,478.5z"/>
	<path class="st0" d="M259.8,473.5c1.1,2.6,1.1,2.9-0.6,4.8C259.4,476.7,259.6,475.1,259.8,473.5z"/>
	<path class="st0" d="M141.9,91.2c9-0.5,21.4,14.9,7.7,17.2c-7.6,0.1-11.2,12.1-16.3,5.6C128.5,106.6,132.5,92,141.9,91.2z"/>
	<path class="st0" d="M127.8,77.9c-0.3-2.9,1.4-6,4-6.5c5.5-0.9,8.5,6.3,7.5,10.8c-0.7,3.7-4.6,7.5-8,4
		C128.9,84,127.9,81.2,127.8,77.9z"/>
	<path class="st0" d="M155.7,77.8c0.1,4-1.3,6.7-4.4,8.4c-7.8,3.7-7.6-9.1-3.3-12.4C151.4,69.9,155.8,73.5,155.7,77.8z"/>
	<path class="st0" d="M119.3,92.3c-0.4-4.3,4.5-6.4,7.3-3.1c4.1,3.1,2.2,11.7-3.5,9.3C120.5,97.3,119.3,95.2,119.3,92.3z"/>
	<path class="st0" d="M250.8,471.6c7.5,3.1,0.3,15.9,10.4,12.5c-0.4,3.7-6.5,15-10.7,12.1c-5-3.2-7.3-7.9-7.5-14.2
		C251.1,487.8,251.9,477.4,250.8,471.6z"/>
</g>
</svg>
