<?xml version="1.0" encoding="utf-8"?>
<!-- Generator: Adobe Illustrator 26.0.0, SVG Export Plug-In . SVG Version: 6.00 Build 0)  -->
<svg version="1.1" id="Capa_1" xmlns="http://www.w3.org/2000/svg" xmlns:xlink="http://www.w3.org/1999/xlink" x="0px" y="0px"
	 viewBox="0 0 595.3 730.2" style="enable-background:new 0 0 595.3 730.2;" xml:space="preserve">
<style type="text/css">
	.st0{fill:#FFFFFF;}
</style>
<g>
	<rect width="595.3" height="730.2"/>
	<path class="st0" d="M0,365.1C0,244.4,0,123.7,0,3c0-3,0-3,3-3c196.4,0,392.8,0,589.2,0c3,0,3,0,3,3c0,241.4,0,482.8,0,724.2
		c0,3,0,3-3,3c-196.4,0-392.8,0-589.2,0c-3,0-3,0-3-3C0,606.5,0,485.8,0,365.1z M261.9,544.6c-0.4-17,0.2-33.9,1.5-50.9
		c0.4-4.7,1-9.4,1.8-14c0.9-5.2,1.1-5.2,6.3-5c6.5,0.3,6.6,0.3,8.5,6.7c3.3,10.7,4.1,21.8,4.6,32.9c0.6,13.5,0,26.9-1.1,40.4
		c-0.1,1.3-0.5,2-1.7,2.6c-7,3.4-10.4,9.6-11.7,16.8c-2.4,13.3-0.8,26.4,4,39c1.7,4.3,4.3,7.1,9,8c5.4,1,10.7,2.6,16.2,0.7
		c0.9-0.3,2.2,0,3.2,0.2c3.9,0.9,7.8,2.1,11.8,2.7c5.1,0.8,10.1,0.3,14.8-1.9c2.5-1.2,4.7-1.8,7.6-0.8c2.4,0.8,5.1,0.8,7.7,0.8
		c8.7-0.1,14.2-5,15-13.6c0.4-4.2,0.6-8.5,0.9-12.8c0.2-3.2,3.4-5,6.2-3.3c3.2,2,6.7,2.8,10.2,1.1c1.5-0.8,2.5-0.6,3.9,0.2
		c4.3,2.5,9,3.5,13.9,2.4c5.3-1.1,10.5-2.3,15.7-3.7c9.5-2.5,18.6-6,27.5-9.9c2.6-1.1,2.6-1.4,2.2-4.4c-1-7.3-2-14.7-2.9-22
		c-1.2-9.5-2.5-18.9-3.7-28.4c-1.9-14.3-3.9-28.7-5.7-43.1c-1-8.1-1.7-16.3-2.6-24.4c-0.6-5.6-1.3-11.1-1.9-16.7
		c-0.1-0.7,0.1-1.4,0.2-2.1c0.5,0.4,1,0.8,1.5,1.3c1.8,1.8,3.5,3.8,5.5,5.4c5.9,5,13.1,7,20.6,8.3c4.2,0.7,8.3,0.6,12.3-0.7
		c3.1-1,3.6-3.3,1.2-5.5c-1.1-1-2.5-1.9-4-2.5c-13.2-5.6-22.1-15.4-28.6-27.8c-1.2-2.4-2.3-4.9-3.6-7.2c-3.4-6.5-7.7-12.4-13-17.5
		c-0.4-0.4-0.6-0.9-0.8-1.3c0.5-0.1,1.1-0.2,1.6-0.1c1.9,0.1,3.8,0.6,5.7,0.5c2.3-0.2,4.7-0.6,6.8-1.6c4.2-1.9,7.5-4.9,9.7-9
		c1.4-2.7,2.4-5.5,3.6-8.3c2-4.9,1.9-9.9-0.1-14.8c-2-5-4.9-9.4-10.1-11.6c-4.1-1.7-4.1-1.6-3.9-6c0-0.2,0-0.5,0-0.7
		c0.5-2.4-0.4-4.3-2.4-5.4c-3.8-2.3-7.6-4.8-11.7-6.6c-10.9-4.7-22.4-7.9-34.1-10.2c-3.6-0.7-7.3-1.8-10.9-1.9
		c-3.1,0-5.7-0.6-7.9-2.8c-1.5-1.5-3.1-1.6-5-1.3c-7.2,1.1-14.4,2.3-21.6,3.4c-2.4,0.3-4.2,1.3-5.1,3.6c-0.7,1.9-2.3,2.6-4.1,2.9
		c-3.4,0.6-6.8,1.4-10.2,1.9c-1.8,0.3-3.6,0.2-5.4,0.1c-0.4,0-1.2-0.9-1.1-1.2c0.3-2.5,0.7-5.1,1.3-7.6c0.2-0.7,1.1-1.3,1.8-1.9
		c4-3.3,8.3-6.2,12-9.8c5.4-5.4,10.6-11,13.7-18.2c0.1-0.4,0.6-0.8,0.9-0.8s0.7,0.5,0.9,0.8c1.4,2.5,2.5,5.3,4.2,7.6
		c3.7,5.1,8.9,5.9,14.1,2.3c13.6-9.4,26.4-19.9,37.8-31.9c4.6-4.8,8.8-9.8,12.1-15.7c3.3-5.9,3.5-11.7,0.1-17.5
		c-0.4-0.7-0.8-1.4-1.2-2c-4.4-7.1-10.1-13.1-16.3-18.7c-2.7-2.5-2.7-2.6,0.7-3.7c0.4-0.1,0.9-0.2,1.3-0.3c4.1-1.6,8.1-3.3,11.1-6.8
		c3.8-4.4,5.4-11.2-0.3-16.5c-3.9-3.7-8.4-6.3-13.3-8.4c-7.4-3-15.1-5.1-22.9-6.6c-1.8-0.4-2.5-0.7-2-2.7c0.8-2.9-0.3-5-2.9-6.8
		c-7.5-4.9-14.9-10.1-22.2-15.2c-4.5-3.1-9.2-6-12.6-10.5c-14.1-18.4-32.9-29.5-55.5-34.1c-2.4-0.5-4.2-1.3-5.8-2.9
		c-9.3-9-20.3-15.1-32.2-19.8c-9.2-3.6-18.5-5.1-28.3-2.3c-2.8,0.8-3.3,1.3-3.4,4.4c-0.2,6.3-0.5,12.6-0.7,18.9
		c-0.1,2.4-0.3,2.6-2.7,2.9c-3.1,0.4-6.2,0.8-9.4,1c-2.2,0.2-3.6,1.2-4.8,3c-3.3,4.8-6.7,9.5-10.3,14.2c-1.2,1.6-1.4,3.1-1,5
		c1.3,5.6,2.5,11.1,3.7,16.7c0.3,1.4,0.1,2.5-1.2,3.5c-4.4,3.2-8.8,6.6-13.2,9.9c-3.1,2.3-3.2,2.4-1.4,6c2.4,4.6,4.7,9.2,7.1,13.8
		c1,1.9,0.9,2-1.1,2.4c-3.5,0.7-7.1,1.3-10.6,2.1c-11,2.4-21.9,4.9-32,10c-2.6,1.3-5.1,2.8-7.4,4.7c-6,4.9-5.7,14.2,0.6,18.6
		c2.4,1.7,5.3,3,8.1,3.8c11.1,3.1,22.4,2.8,33.8,2.6c2.4-0.1,2.4-0.1,1.7,1.9c-0.6,1.6-1.1,3.2-1.6,4.7c-4.1,12.3-6.1,25-5.9,38
		c0.2,11.6,2.5,22.7,6.7,33.5c0.8,1.9,1.8,3.9,3.2,5.5c3.9,4.5,8.5,4.8,12.9,0.7c1.9-1.7,3.5-3.8,4.9-5.9c0.9-1.3,1.3-1.5,2.4-0.3
		c2.5,2.9,5.2,5.6,7.7,8.4c5.2,6,10.3,12.2,15.7,18.1c6.8,7.5,14.7,13.5,25.1,15.1c0.9,0.1,1.9,0.3,1.8,1.5c-0.2,1.3,0.6,3-1.4,3.7
		c-3.7,1.3-5.2,4.4-6,7.9c-1.3,5.6-0.5,11.2,1.3,16.5c0.5,1.6,0.6,2.8-0.7,4.2c-5.4,6.2-9.5,13.3-12.3,21.1
		c-5.9,16.3-4.3,32,4.4,46.9c1.4,2.4,1.9,4.6,1.8,7.3c-0.4,9.4-0.9,18.8-1.2,28.3c-0.5,14.7-0.8,29.4-2.8,44
		c-0.8,5.8-1.7,11.5-3.7,17c-0.6,1.6-1.2,2.1-2.9,1.8c-5.3-0.9-10.5-0.2-15.6,1.4c-4.4,1.3-8.8,2.6-13.1,4c-0.9,0.3-1.8,0.9-2.6,1.5
		c-5.6,4.1-8.2,10-9.2,16.6c-0.7,4.9-0.6,9.8-0.8,14.8c-0.1,3.7,1,7.1,2.6,10.3c1.1,2.3,2.8,4.1,5.3,4.9c1.4,0.4,2.2,1.2,3,2.4
		c2.9,4.5,6.6,5.8,11.8,3.9c1.4-0.5,2.3-0.3,3.3,0.6c4.5,3.8,9.9,4.8,15.5,4.2c8.3-0.9,16.5-2.1,24.7-3.7c8.9-1.8,17.6-4.7,25.7-8.9
		c1.7-0.9,2.5-2.1,2.4-4s-0.3-3.8-0.3-5.7C262.4,569.1,262.2,556.9,261.9,544.6z M563.4,372.5c0.1,0,0.1,0,0.2,0c0-33,0-66.1,0-99.1
		c0-58.9,0-117.8,0-176.6c0-6.4,0-6.3-6.1-4.3c-1.6,0.5-2.3,1.2-2.3,3.1c0.1,6.4,0,12.8,0,19.2c0,18.7,0.1,37.5,0.1,56.2
		c0,16.4-0.1,32.8-0.1,49.2c0,16.7,0.1,33.5,0.1,50.2c0,13.5-0.1,27-0.1,40.4c0,19.1,0,38.2,0,57.3c0,15.5-0.1,31-0.1,46.5
		c0,26.7,0.1,53.4,0.1,80.2c0,25.3,0,50.5,0,75.8c0,25.7,0,51.4,0,77.2c0,3.4,0,3.4,3.2,4.6c0.9,0.4,1.9,0.8,2.7,1.3
		c1.6,0.9,2,0.2,2-1.3c0-2.9,0-5.8,0-8.8c0-27.2,0.1-54.4,0.1-81.6C563.4,498.8,563.4,435.7,563.4,372.5z M28.6,374.6
		c-0.1,0-0.1,0-0.2,0c0,7.9,0,15.7,0,23.6c0,32,0,64,0,96.1c0,51.7,0,103.4,0,155c0,2,0,4,0,6.1c0,1.3,0.6,1.5,1.7,1.1
		c1.3-0.5,2.7-1.3,4.1-1.5c2.1-0.2,2.4-1.2,2.4-3.1c0-24.4,0-48.7,0-73.1c0-42.2,0-84.5,0-126.7c0-33.4,0-66.7,0-100.1
		c0-26.6-0.1-53.2-0.1-79.9c0-27.1,0.1-54.1,0.1-81.2c0-30.1,0-60.2-0.1-90.3c0-5.7,0-5.7-5.4-7.7c-0.2-0.1-0.4-0.2-0.6-0.3
		c-1.6-0.6-2,0-1.9,1.5c0.1,2.2,0.1,4.5,0.1,6.7c-0.1,44.3-0.2,88.5-0.2,132.8C28.5,280.7,28.6,327.6,28.6,374.6z M297.6,717.7
		c47.2,0,94.5,0,141.7,0c4.1,0,8.3,0,12.5-0.1c2.6,0,2.7-0.1,2.7-2.9c0-2.2-0.1-4.5,0-6.7c0.1-5.4-1.2-4.9,5.1-4.9
		c16.1-0.1,32.2,0,48.2,0c2.5,0,4.9,0.1,7.4,0.1c1.7,0,2-0.5,1.5-2.1c-0.3-1-0.8-1.9-1.1-2.8c-1.1-3.7-1-3.7-5-3.7c-18,0-36,0-54,0
		c-1.8,0-2.2-0.7-2.4-2.3c-0.2-1.7,0.5-1.9,1.9-1.8c1.4,0.1,2.3-0.8,2.3-1.9c0.1-1.3-0.8-2.5-2.3-2.4c-1.8,0.2-2-0.7-2-2.2
		c0.1-16.2,0.1-32.3,0.2-48.5c0-1.5-0.5-2.2-1.8-2.2c-1.8-0.1-3.6-0.1-5.4-0.1c-97.3,0-194.5,0-291.8,0c-4.2,0-8.3,0-12.5,0
		c-2.7,0-2.7,0.1-2.8,2.9c0,0.7,0,1.3,0,2c0,15.1,0,30.1,0,45.2c0,0.9-0.2,2.1-0.8,2.7c-2.2,2.5-2.2,2.4-0.1,4.7
		c0.6,0.7,0.8,2,0.7,3c0,0.3-1.4,0.7-2.1,0.9c-0.5,0.1-1.1,0-1.7,0c-16.3,0-32.6,0-48.9,0c-2,0-4.5-0.5-5.8,0.5
		c-1.4,1-1.7,3.5-2.4,5.4c-0.8,2.1-0.8,2.1,1.6,2.2c0.3,0,0.7,0,1,0c18.6,0,37.1,0,55.7,0c2.9,0,2.9,0,2.9,3s0,6.1,0,9.1
		c0,2.7,0,2.8,2.8,2.8c2,0,4,0,6.1,0C198.7,717.7,248.1,717.7,297.6,717.7z M298.3,45.1c0-0.1,0-0.1,0-0.2c-44.3,0-88.6,0-132.9,0
		c-27.8,0-55.5-0.2-83.3-0.2c-3.5,0-3.6,0.1-2.6,3.5c0.2,0.7,0.3,1.5,0.6,2.3c0.8,2.7,0.8,2.7,3.7,2.7c5.1,0,10.1-0.1,15.2-0.1
		c57,0,114,0,171,0c66.8,0,133.6,0,200.4,0c13.8,0,27.7-0.1,41.5,0c2,0,3-0.4,3.2-2.4c0-0.4,0.3-0.8,0.4-1.3c0.4-1.3,0.8-2.6,1.3-4
		c-1.5-0.1-3.1-0.4-4.6-0.4C440.9,45.1,369.6,45.1,298.3,45.1z M76.2,64.9c-0.1-1.5-0.3-3.9-0.6-6.4c-1-7.1-3.5-13.7-7.1-19.8
		c-1.3-2.2-2-2.4-4-1.4c-4.2,2.1-8.2,1.8-12-1.1c-1.5-1.1-2.9-2.4-4.2-3.8c-2.7-2.9-3-3-6.6-1C33.2,36,25.8,42,18.6,48.2
		c-2.5,2.2-2.6,2.2-0.8,4.9c4,6.1,3.9,12.2,0.5,18.4c-1.4,2.6-1.5,3.2,0.6,5.2c3.1,3,6.3,6.1,9.9,8.6C39.9,93,52,95.8,65.2,91.7
		c2.2-0.7,4.4-1.5,5.6-3.8C74.3,81,76.1,73.7,76.2,64.9z M54.4,656.8c-3.1,0.3-6.1,0.5-9.1,1.1c-9.9,2-18.6,6.4-26,13.3
		c-2.5,2.3-2.6,2.6-0.5,5.2c2.6,3.2,2.9,6.8,1.5,10.4c-0.9,2.5-2.2,4.9-3.9,7c-1.3,1.6-1.3,2.6-0.1,4c6.8,8.2,15.1,14.6,23.7,20.9
		c1.4,1,2.5,0.9,3.7-0.5c5.2-6,11.8-6.9,19-4.7c1.7,0.5,2.7,0.3,3.7-1.1c4-5.8,7.1-11.9,8.9-18.8c2.8-10.8,1.4-21.1-4-30.9
		c-1.4-2.6-3.6-4.3-6.6-4.6C61.3,657.7,57.8,657.2,54.4,656.8z M519.4,679.9c-0.2,11.3,2.5,20.3,7.3,28.8c1.7,3,1.7,3,4.9,1.6
		c3.9-1.7,7.7-1.5,11.2,1c2,1.4,3.8,3.2,5.3,5c1.2,1.4,2.2,1.7,3.8,1c0.5-0.2,1-0.5,1.5-0.7c8.9-4.8,16.8-11.2,24.5-17.8
		c1.4-1.2,1.3-2.3,0.3-3.8c-4.5-6.1-4.2-12.5-0.8-19c1.4-2.7,1.5-2.9-0.7-5.2c-4.5-4.8-9.5-9-15.3-12c-10.2-5.3-20.9-6-32-2.6
		c-2.4,0.8-3.9,2.3-5,4.6C521.2,667.5,519.2,674.2,519.4,679.9z M539.7,89.8c15.1-0.4,26.7-5.5,36.6-14.5c2.5-2.3,2.5-2.4,0.5-5.2
		c-2.8-3.8-3.3-7.8-1.1-12c1-1.9,2.2-3.7,3.4-5.4c1.4-2.1,1.4-2.4-0.2-4.3c-6.8-8-15-14.5-23.5-20.6c-1.9-1.3-2-1.2-3.9,0.7
		c-5,5.3-11,7-18.1,4.8c-2.5-0.8-3.5-0.6-4.9,1.5c-5.1,8-9.3,16.4-9.7,26.2c-0.3,8.5,1.3,16.5,6,23.7c1.2,1.8,2.7,3,4.8,3.4
		C533.5,88.8,537.4,89.4,539.7,89.8z M42.2,315.5c-1.3,0-2.4,0.9-2.4,2.2c0.1,1.4,0.9,2.3,2.3,2.4c1.6,0.1,2.1-1.1,2.3-2.3
		C44.7,316.6,43.6,315.6,42.2,315.5z M45.3,513c-1.4-0.9-2.1-1.7-3.1-1.9c-1.3-0.3-2.4,0.9-2.4,2.1c0,1.3,1.5,2.9,2.6,2.4
		C43.4,515.3,44.1,514.2,45.3,513z M42.3,447.8c1.4,0,2.4-1.1,2.3-2.3c-0.1-1.5-1.2-2.1-2.5-2.3c-1-0.1-2.3,1.4-2.3,2.4
		C39.8,446.8,41,447.8,42.3,447.8z M470.7,55.3c-0.4,0.5-1.3,1.2-1.5,2c-0.3,1.2,1.3,2.6,2.5,2.6c1.2-0.1,2.3-1.3,2.2-2.5
		C473.7,56.3,472.5,55.2,470.7,55.3z M260.5,54.6c-1.1,1.1-2.1,1.7-2.5,2.6c-0.4,1.1,1.3,3.1,2.3,2.7c1-0.4,2.3-1.4,2.4-2.3
		C262.9,56.8,261.5,55.8,260.5,54.6z M327.5,55.1c-0.5,0.7-1.4,1.4-1.5,2.3c-0.2,1.4,0.8,2.3,2.2,2.5c1.3,0.1,2.6-1.3,2.5-2.6
		C330.5,55.8,329.3,55.5,327.5,55.1z M403.9,60.8c0.9-1.5,1.8-2.4,2-3.4c0.2-1.1-1.3-2.2-2.5-2.1c-1.2,0.1-2.5,1.4-2.1,2.4
		C401.7,58.7,402.7,59.4,403.9,60.8z M419.4,59.9c0.4-0.6,1.3-1.5,1.6-2.5c0.3-1-1.2-2.2-2.5-2.1c-1.3,0.1-2,0.9-2,2.2
		C416.4,58.7,417.6,60,419.4,59.9z M105.2,57.3c-1.3-0.9-2-1.8-2.9-1.9c-1.2-0.2-2.4,0.4-2.4,2c-0.1,1.4,1.1,2.8,2.4,2.4
		C103.2,59.6,104,58.5,105.2,57.3z M455.5,55.3c-0.3,0.5-1.1,1.3-1.2,2.2c-0.2,1.3,1.1,2.5,2.2,2.4c1.5-0.2,2-1.2,2.2-2.5
		C458.7,56.3,457.4,55.2,455.5,55.3z M511.5,56.6c-0.7-0.3-1.7-1.1-2.8-1.2c-1.2-0.1-1.9,0.9-1.9,2.2c0,1.2,1.2,2.4,2.3,2.3
		C510.3,59.9,511.7,58.3,511.5,56.6z M44.6,196.9c-0.7-0.5-1.6-1.4-2.5-1.6c-1.1-0.2-2.1,0.6-2.3,1.9c-0.1,1.2,1.2,2.7,2.4,2.6
		C43.6,199.7,44.4,198.9,44.6,196.9z M553.3,235.3c-1.4-1.1-2.2-2.3-3.1-2.4c-1.1-0.1-2.5,0.4-2.3,2.2c0.1,1.4,1,2.5,2.3,2.2
		C551.1,237,551.9,236.3,553.3,235.3z M139.3,55.2c-0.4,0.4-1.3,1.1-1.5,2c-0.4,1.5,0.8,2.7,2.2,2.6c1.4,0,2-0.9,2.1-2.1
		C142.2,56.4,141.3,55.3,139.3,55.2z M45.4,265c-1.6-0.9-2.5-1.8-3.5-1.9c-1.2-0.2-2,0.7-2.1,2c0,1.3,1.4,2.9,2.5,2.5
		C43.3,267.2,44,266.2,45.4,265z M44.5,415.4c0-1.2-1.3-2.2-2.6-2.1s-2,0.9-2.1,2.2c-0.1,1.1,1.3,2.4,2.4,2.4
		C43.4,417.9,44.5,416.7,44.5,415.4z M44.5,506.4c0-1.7-1.2-2.9-2.4-2.8s-2.1,0.7-2.3,2c-0.1,1.3,1.2,2.7,2.5,2.4
		C43.3,507.8,44,506.8,44.5,506.4z M552.4,513.3c0-1.3-1-2.3-2.3-2.2c-1.2,0.1-2.1,0.5-2.1,2s1,2.8,2.2,2.7
		C551.7,515.6,552.2,514.6,552.4,513.3z M44.5,587.9c-0.6-0.4-1.4-1.3-2.4-1.7c-1.1-0.3-2.4,1.2-2.3,2.4c0.1,1.3,0.9,2,2.2,2.1
		C43.4,590.9,44.5,589.8,44.5,587.9z M188.5,57.4c-1.5-0.9-2.4-1.8-3.4-2c-1.3-0.3-2.3,0.9-2.1,2.3c0.1,1.2,1.4,2.6,2.4,2.2
		C186.2,59.5,187,58.5,188.5,57.4z M112.1,688.4c0.1-1.6-1.1-2-2.3-2.3c-1.1-0.2-2.4,1.2-2.4,2.3c0,1.2,1.1,2.2,2.4,2.1
		C111.2,690.5,112.1,690,112.1,688.4z M473.8,687.7c-0.6-0.4-1.4-1.3-2.4-1.7c-1-0.3-2.3,1.2-2.3,2.3c0,1.2,1.1,2.3,2.4,2.3
		S473.8,689.7,473.8,687.7z M241.1,57.4c-1.6-0.9-2.5-1.9-3.5-2c-1.2-0.2-2,0.8-2,2.1c0,1.2,1.3,2.7,2.3,2.4
		C238.8,59.5,239.6,58.5,241.1,57.4z M322.9,57.2c-0.2-1.2-1-1.9-2.4-1.9c-1.3,0-2,0.6-2,2c0,1.5,1,2.6,2.4,2.6
		C322,60,323,58.8,322.9,57.2z M338.9,57.3c-1.3-0.9-2.1-1.9-3-1.9c-1.1-0.1-2.4,0.5-2.5,2c-0.1,1.1,1.5,2.8,2.6,2.4
		C336.9,59.5,337.6,58.4,338.9,57.3z M41.4,628.3c1.8,0.1,3-1,3.1-2.2c0-1.2-1.1-2.3-2.4-2.4c-1.1-0.1-2.5,1.2-2.2,2.4
		C40.2,627.1,41.1,627.8,41.4,628.3z M552.6,121.6c-0.6-0.4-1.4-1.4-2.3-1.5c-1.1-0.2-2.3,0.2-2.3,1.8c0,1.5,1,2.8,2.3,2.8
		C551.9,124.6,552.2,123.4,552.6,121.6z M109.8,55.3c-1.2-0.1-2.5,1-2.5,2.1c0,1.2,1.2,2.5,2.2,2.5c1.3-0.1,2.3-0.8,2.4-2.2
		C112.2,56.4,111.2,55.4,109.8,55.3z M116.6,59.9c1.7,0.1,2.9-1.1,2.9-2.3c0-1.3-0.8-2-2-2.3c-1.1-0.2-2.9,1.2-2.6,2.1
		C115.3,58.4,116.2,59.3,116.6,59.9z M44.5,536c0-1.2-1.2-2.5-2.3-2.5s-2.5,1.3-2.4,2.4c0.1,1.2,0.7,2.1,2.1,2.2
		C43.2,538.2,44.5,537.2,44.5,536z M132,54.4c-0.9,1.4-1.6,2.2-1.8,3.1c-0.2,1.2,1.4,2.8,2.2,2.3c0.9-0.5,2.1-1.6,2.1-2.6
		C134.7,56.6,133.2,55.7,132,54.4z M150.7,57.5c-1.5-1-2.4-2-3.4-2.1c-1.1-0.1-2.4,0.7-2.1,2c0.3,1,1.4,2.3,2.2,2.4
		C148.2,59.9,149.2,58.6,150.7,57.5z M154.9,54.5c-1,1.2-2.1,2-2.2,2.9c-0.2,1.3,0.8,2.2,2.2,2.5c1,0.2,2.7-1.6,2.4-2.6
		C156.9,56.4,156,55.8,154.9,54.5z M45.4,250.5c-1.4-1.2-2.1-2.2-3.1-2.6c-1-0.5-2.3,0.9-2.4,2.1c-0.1,1.2,1.1,2.5,2.3,2.3
		C43.1,252.1,43.9,251.4,45.4,250.5z M172.3,56.9c-0.6-0.4-1.3-1.3-2.2-1.5c-1.2-0.3-2.5,1-2.4,2.1c0.1,1.3,1.1,2.5,2.3,2.4
		C171.4,59.8,172.1,58.8,172.3,56.9z M42.3,646.6c-1.5,0-2.5,0.9-2.4,2.3c0,1.4,1,1.8,2.2,2c1.4,0.1,2.4-0.7,2.4-2
		C44.5,647.2,43.4,646.7,42.3,646.6z M232.5,57c-0.5-0.4-1.1-1.3-2-1.6c-1.2-0.4-2.4,0.6-2.4,1.9c0,1.4,0.7,2.3,2.1,2.6
		C231.3,60.1,232.4,58.9,232.5,57z M245.4,59.9c1.2-0.1,2.6-1.5,2.1-2.5c-0.4-0.8-1.4-1.8-2.2-2c-1.3-0.3-2.4,1-2.2,2.2
		C243.3,59,244.1,59.8,245.4,59.9z M44.5,640.4c-0.6-0.5-1.6-1.7-2.4-1.6c-0.8,0.1-1.8,1.4-2.2,2.4c-0.4,0.9,1.1,2.1,2.4,2.2
		C43.5,643.4,44.6,642.3,44.5,640.4z M42.3,157.7c-1.3-0.1-2.8,1.2-2.4,2.2c0.3,0.9,1.1,1.9,2,2.3c1.1,0.5,2.7-0.9,2.7-2.2
		C44.6,158.4,43.4,158,42.3,157.7z M42.3,300.6c-1.3-0.1-2.4,0.9-2.5,2.1c0,1.2,1.1,2.3,2.3,2.3c1.3-0.1,2.1-0.7,2.3-2
		C44.7,301.8,43.6,300.7,42.3,300.6z M41.7,239.6c-0.8,1.4-1.8,2.2-1.8,3.1c0,1.2,0.9,2.2,2.4,2.2c1.2,0,2.5-1.4,2.1-2.4
		C44,241.5,42.9,240.8,41.7,239.6z M290.5,55.3c-1.2,0.1-2.3,1.3-2.2,2.5c0.2,1.3,1.1,1.9,2.3,2c1.1,0.1,2.4-1.2,2.3-2.4
		C292.9,56.3,291.7,55.2,290.5,55.3z M550.7,327.6c0.4-0.4,1.5-1,1.7-1.9c0.2-1.2-0.4-2.4-2-2.6c-1.3-0.2-2.4,0.7-2.5,2
		C547.9,326.5,548.7,327.5,550.7,327.6z M369.2,57.6c-1.5-1-2.4-2-3.4-2.2c-1.2-0.2-2.1,0.7-2.1,2c-0.1,1.1,1.3,2.8,2.2,2.5
		C366.9,59.5,367.8,58.6,369.2,57.6z M548,475.8c0.1,1.2,1.2,2.3,2.4,2.3s2.2-1.2,2.1-2.5c-0.1-1.3-1-2-2.2-2
		C548.9,473.5,547.9,474.6,548,475.8z M41.6,593.8c-0.4,0.5-1.4,1.1-1.7,2c-0.4,1,0.8,2.3,2.1,2.4c1.3,0.1,2.5-0.8,2.6-2
		C44.6,595.1,43.4,593.9,41.6,593.8z M42.2,548.6c-1.2,0-2.5,1.1-2.4,2.3s0.8,2,2.1,2.2c1.3,0.1,2.4-0.9,2.5-2.1
		C44.6,549.8,43.5,548.7,42.2,548.6z M376.6,57.6c-1.3-1-2-2-2.9-2.3c-1-0.3-2.3,0.1-2.5,1.6c-0.2,1.3,1,3.2,2.1,2.9
		C374.3,59.6,375.2,58.6,376.6,57.6z M411.1,54.5c-1,1.3-1.9,2-2.1,2.8c-0.3,1.5,1,2.8,2.3,2.6c1.5-0.2,2.2-1.4,2-2.6
		C413.1,56.4,412.1,55.7,411.1,54.5z M552.6,483.9c-0.1-1.8-1.3-3-2.4-2.9c-1.4,0-2.3,1-2.2,2.4s1.2,2.5,2.4,2.1
		C551.3,485.1,552,484.3,552.6,483.9z M432.8,55.4c-0.3,0.5-1.1,1.3-1.2,2.2c-0.2,1.3,1.1,2.5,2.2,2.3c1.3-0.2,2.2-0.9,2.2-2.5
		C435.9,56.1,434.8,55.2,432.8,55.4z M44.5,438c-0.1-1.1-1.4-2.5-2.5-2.1c-0.9,0.3-1.8,1.3-2.1,2.1c-0.4,0.9,1.2,2.3,2.3,2.3
		C43.4,440.4,44.6,439.2,44.5,438z M42.1,545.6c1.4-0.1,2.3-0.8,2.4-2.2c0.1-1.2-1.2-2.5-2.4-2.1c-0.9,0.3-1.8,1.2-2.2,2
		C39.5,544.2,41,545.6,42.1,545.6z M552.5,574.3c0-2-1.1-3.2-2.5-3.1c-1.2,0-2,1.1-2,2.6c0,1.6,1.3,1.9,2.3,1.8
		C551.1,575.5,551.9,574.6,552.5,574.3z M552.3,625.9c-0.1-1.4-1.1-2.4-2.4-2.2c-1.5,0.2-2,1.2-2,2.6c0,1.5,1.1,1.8,2.2,2
		C551.5,628.4,552.4,627.3,552.3,625.9z M549.7,443.3c-0.4,0.5-1.4,1.1-1.6,2c-0.4,1.5,0.6,2.5,2.2,2.6c1.4,0.1,2-0.8,2.2-2
		C552.6,444.6,551.5,443.4,549.7,443.3z M550.3,367.4c-1,1.2-2,1.8-2.2,2.6c-0.4,1.3,1,2.8,2.2,2.8c1.6-0.1,2.2-1.4,2.1-2.5
		C552.3,369.4,551.3,368.7,550.3,367.4z M550.7,275c0.5-0.5,1.7-1.3,1.8-2.2c0.2-1.2-0.8-2.3-2.3-2.3c-1.3,0-2.1,0.6-2.2,2
		C547.9,273.8,548.8,274.9,550.7,275z M44.5,497.5c-0.7-0.4-1.6-1.5-2.6-1.5c-0.7,0-1.7,1.3-2,2.2c-0.4,1,1.1,2.3,2.3,2.3
		S44.6,499.2,44.5,497.5z M441,54.5c-0.9,1.4-1.9,2.3-2.1,3.3s1.5,2.3,2.5,2.1c1.1-0.1,2.4-1.7,2-2.7
		C443.1,56.4,442.1,55.7,441,54.5z M488.7,57.5c0-1.5-0.8-2.2-2.1-2.2c-1.5,0-2.3,0.8-2.2,2.2c0.1,1.4,0.7,2.4,2.2,2.3
		C488.1,59.8,488.8,58.8,488.7,57.5z M504.7,57.1c-1.4-0.8-2.2-1.5-3.2-1.7c-1.4-0.2-2.3,0.9-2.2,2.3c0.1,1.2,1.5,2.7,2.4,2.2
		C502.7,59.4,503.4,58.3,504.7,57.1z M550.4,380.2c1.2-0.1,2.1-1.3,1.9-2.6c-0.2-1.3-0.9-2-2.2-1.9c-1.5,0.1-2.2,1-2.1,2.4
		C548,379.2,549.3,380.3,550.4,380.2z M42.2,383.1c-1.2,0-2.5,1.2-2.3,2.4c0.2,1.1,0.7,2.1,2.1,2.3c1.2,0.1,2.5-1,2.5-2.2
		C44.6,384.5,43.3,383.1,42.2,383.1z M45.5,460.6c-1.6-0.9-2.5-1.8-3.5-2c-1.2-0.2-2,0.8-2.1,2.1c0,1,1.5,2.7,2.3,2.4
		C43.2,462.7,44,461.8,45.5,460.6z M41.7,255.4c-0.4,0.5-1.4,1.1-1.8,2c-0.5,1,1.2,2.9,2.3,2.6c0.9-0.2,1.8-1.2,2.2-2
		C44.9,257,43.5,255.5,41.7,255.4z M87.7,59.9c0.4-0.5,1.2-1.3,1.4-2.1c0.4-1.5-0.5-2.5-1.9-2.4c-1.1,0.1-2.3,0.4-2.5,1.8
		C84.6,58.4,85.9,59.8,87.7,59.9z M97.8,57.6c-1.3-1-2-1.9-2.9-2.2c-1.1-0.4-2.5,0.9-2.5,2c0,1.5,0.9,2.5,2.2,2.4
		C95.6,59.7,96.4,58.6,97.8,57.6z M497.1,57.5c-1.3-1-2-1.9-2.9-2.2c-1.1-0.3-2.8,1.1-2.5,2c0.4,1,1.4,2.2,2.2,2.4
		C494.7,59.9,495.7,58.6,497.1,57.5z M164.7,57.7c0-1.5-1.1-2.6-2.4-2.5c-1.2,0.1-2.1,0.7-2.2,2c-0.1,1.4,1.2,2.7,2.4,2.6
		C164,59.7,164.7,58.8,164.7,57.7z M179.8,56.9c-0.5-0.4-1.1-1.2-2-1.5c-1.4-0.4-2.2,0.5-2.4,2c-0.1,1.5,0.7,2.3,2.1,2.5
		C178.6,60.1,179.6,58.9,179.8,56.9z M195.8,57.3c-1.4-0.9-2.2-1.8-3.1-1.9c-1.3-0.2-2.5,1.1-2.3,2.2c0.2,1.4,1.2,2.4,2.4,2.2
		C193.7,59.7,194.5,58.4,195.8,57.3z M200.1,59.9c1.2-0.1,2.3-1.3,2.4-2.4c0-1.3-1.1-2.3-2.4-2.2c-1.2,0.1-2.1,0.7-2.1,2.1
		C197.9,58.8,199,60,200.1,59.9z M464.3,55.1c-1.6,0.5-2.9,0.8-2.7,2.5c0.2,1.4,1.3,2.6,2.6,2.4c1.5-0.3,2-1.6,1.8-2.7
		C465.9,56.4,464.8,55.7,464.3,55.1z M426.3,54.5c-1,1.3-2,2-2.3,2.9c-0.4,1.1,1.3,2.6,2.5,2.4c1.5-0.1,2.1-1.5,2-2.6
		C428.4,56.5,427.3,55.8,426.3,54.5z M388.6,54.5c-1.1,1.2-2.4,2.1-2.3,2.9c0.1,0.9,1.2,2,2.1,2.5c1,0.5,2.7-1.4,2.4-2.5
		C390.4,56.5,389.5,55.8,388.6,54.5z M381.2,59.8c1.2-0.1,2.2-1.3,2.1-2.6c-0.1-1.1-1.6-2.4-2.7-1.9c-0.8,0.4-1.7,1.4-1.9,2.3
		C378.4,58.7,380.1,59.9,381.2,59.8z M44.6,339.9c-0.6-0.5-1.5-1.6-2.4-1.7c-0.7,0-1.8,1.1-2.2,2c-0.5,1,0.8,2.4,2.1,2.5
		C43.2,342.7,44.5,341.7,44.6,339.9z M509.8,690.6c0.4-0.5,1.4-1.3,1.6-2.3c0.3-1.1-1.1-2.2-2.5-2.1c-1.3,0.1-2.1,0.8-2.2,2.1
		C506.7,689.5,507.9,690.7,509.8,690.6z M552.4,348c-0.1-1.4-1-2.4-2.4-2.2c-1.3,0.1-2.2,1.1-2,2.5c0.2,1.6,1.3,1.9,2.6,1.8
		C551.6,349.9,552.6,349.6,552.4,348z M354,57.3c-1.4-0.9-2.2-1.8-3.1-2c-1.1-0.3-2.8,1.3-2.4,2.1c0.5,1,1.5,2.2,2.4,2.3
		C351.7,59.8,352.6,58.5,354,57.3z M44.5,295.1c-0.1-1.2-1.3-2.1-2.6-1.9s-2,0.9-2,2.2c0,1.2,1.2,2.2,2.4,2.1
		C43.8,297.3,44.4,296.4,44.5,295.1z M548,287.4c-0.1,1.5,0.5,2.4,2,2.6c1.3,0.2,2.5-0.8,2.6-2s-1-2.3-2.3-2.3
		C549.1,285.7,547.9,285.8,548,287.4z M41.2,353.3c-0.3,0.5-1.3,1.3-1.3,2.1c0,1.2,0.9,2.3,2.3,2.4c1.1,0.1,2.3-1.3,2.3-2.4
		C44.4,354.2,43.2,353.2,41.2,353.3z M45.4,288.2c-1.4-1.2-2.1-2.3-3.1-2.7c-1-0.4-2.7,1.1-2.4,2.1c0.3,0.9,1.2,2.1,1.9,2.2
		C42.7,289.9,43.8,289,45.4,288.2z M345.6,57c-0.5-0.4-1.1-1.3-2-1.7c-1-0.4-2.9,1.1-2.6,2c0.4,1,1.3,2,2.3,2.6
		C344.2,60.4,345.5,59,345.6,57z M41.6,365.3c1.8-0.3,2.8-0.9,2.9-2.4c0.1-1.1-1.2-2.2-2.5-2.2c-1.2,0-2.4,1.2-2.1,2.4
		C40.3,364,41.1,364.7,41.6,365.3z M286.2,57.4c-1.3-0.9-2.1-1.8-3-2c-1.1-0.3-2.4,1-2.4,2.1c0,1.3,1.4,2.8,2.5,2.4
		C284.2,59.5,284.9,58.5,286.2,57.4z M552.2,363.7c0-1.9-0.3-2.9-1.8-3c-1.4,0-2.4,0.4-2.5,2c-0.1,1.4,1,2.8,2.4,2.5
		C551.2,365,551.9,364,552.2,363.7z M278,56.7c-0.7-0.4-1.6-1.2-2.6-1.3c-1.2-0.2-2.1,0.6-2.1,2c0,1.3,0.6,2.4,2.1,2.5
		C276.5,60,278,58.5,278,56.7z M45.4,370.2c-1.6-0.9-2.6-1.9-3.5-1.9c-0.7,0-1.7,1.3-2,2.2c-0.3,1,1.4,2.6,2.3,2.3
		C43.2,372.3,44,371.4,45.4,370.2z M42.4,269.6c-1.1,1.4-2.1,2.1-2.5,3.1s1,2.4,2.1,2.4c1.4-0.1,2.5-0.9,2.4-2.2
		C44.4,271.9,43.3,271,42.4,269.6z M550.2,267.7c1.1,0,2.5-1.3,2.2-2.4c-0.2-0.9-1.2-2-2-2.2c-0.9-0.2-2.2,0.3-2.4,1.7
		C547.9,266.1,549,267.6,550.2,267.7z M548,257.5c0,1.5,1.1,2.6,2.4,2.6c1.2,0,2.1-1.4,2.1-2.9c-0.1-1.4-1-1.6-2.1-1.6
		C548.9,255.5,548.1,256.2,548,257.5z M42,380.2c1.2,0.1,2.4-1,2.5-2.1c0.1-1.2-1.2-2.5-2.5-2.5c-1.4,0-1.9,1.1-2.1,2.2
		C39.7,378.9,40.8,380.2,42,380.2z M268.8,55.3c-2,0-2.9,0.9-2.9,2.3c0,1.3,1.1,2.4,2.3,2.3c1.4-0.1,2-1.2,1.8-2.4
		C269.9,56.6,269.1,55.8,268.8,55.3z M41.5,395.2c2.1,0.1,2.8-0.9,3-2.2c0.2-1-1.1-2.2-2.4-2.2c-1.1,0-2.5,1.3-2.2,2.4
		C40.2,394.1,41.1,394.8,41.5,395.2z M252.1,55.3c-0.4,0.5-1.2,1.2-1.4,2.1c-0.3,1.3,1.2,2.7,2.4,2.5c1.4-0.3,2.1-1.2,2.1-2.6
		C255.1,56.2,253.9,55.2,252.1,55.3z M226,57c-1.5-0.8-2.5-1.6-3.6-1.7c-1.2-0.1-2,1-1.9,2.3s1.5,2.7,2.4,2.2
		C223.9,59.3,224.7,58.3,226,57z M41.6,398.4c-1.3,0.1-1.7,1-1.7,2.3c0,1.4,0.8,2,2.2,2s2.5-0.9,2.4-2.2
		C44.3,398.9,43.2,398.5,41.6,398.4z M42.3,410.4c1.2-0.1,2.4-1.3,2.2-2.5c-0.1-1.1-1.5-2.2-2.6-2.1c-1.4,0.1-1.9,1.2-2,2.3
		C39.7,409.2,41.2,410.5,42.3,410.4z M550.1,405.9c-1.4,0-2.2,1-2.1,2.4c0.1,1.4,1,1.9,2.2,2.1c1.1,0.2,2.4-1.1,2.4-2.3
		C552.6,407,551.3,405.8,550.1,405.9z M552.5,415.7c0-1.1-1.2-2.4-2.3-2.3c-1.5,0-2.2,0.8-2.3,2.3c-0.1,1.4,0.9,1.9,2,2.2
		C551,418,552.5,416.7,552.5,415.7z M44.5,226.9c-0.6-0.4-1.6-1.5-2.5-1.4c-0.7,0-1.7,1.2-2.1,2.1c-0.4,1,1.1,2.4,2.2,2.4
		C43.3,229.9,44.5,228.7,44.5,226.9z M42.1,426.3c1.1-1.4,2-2.2,2.4-3.2c0.4-0.9-1.4-2.6-2.3-2.3c-0.9,0.4-2.2,1.4-2.2,2.1
		C40,423.9,41.1,424.8,42.1,426.3z M45.4,430.5c-1.5-1-2.4-2.2-3.3-2.1c-0.8,0.1-1.8,1.4-2.2,2.3c-0.3,0.9,1.4,2.5,2.4,2.2
		C43.2,432.5,44,431.5,45.4,430.5z M550.1,436.1c-1.2-0.1-2.1,0.2-2.1,1.7c0,1.4,0.4,2.3,2,2.5s2.2-0.7,2.4-2.1
		C552.6,436.6,551.5,436.2,550.1,436.1z M45.5,219.9c-1.6-0.9-2.5-1.8-3.5-2s-2.5,1.5-2,2.5c0.4,0.9,1.6,2,2.3,1.9
		C43.2,222.2,44,221,45.5,219.9z M550.9,210.3c-1.7,0-3,1.2-3,2.2c0,1.4,0.9,2.2,2.2,2.4c1,0.2,2.5-1.3,2.2-2.4
		C552.1,211.6,551.3,210.9,550.9,210.3z M42.1,209.6c-1,1.3-1.8,2-2.2,2.9c-0.3,0.9,1.3,2.5,2.3,2.5c1.1,0,2.7-1.5,2.3-2.4
		C44.1,211.6,43.1,210.9,42.1,209.6z M552.4,460.1c-0.5-0.4-1.2-1.3-2-1.6c-1-0.3-2.4,1-2.4,2.1c0,1.5,0.9,2.2,2.2,2.5
		C551.2,463.3,552.4,461.9,552.4,460.1z M45.5,475.6c-1.6-1-2.5-2-3.4-2c-0.7,0-1.7,1.2-2,2.1c-0.4,1.1,1.2,2.7,2.2,2.3
		C43.2,477.6,44,476.7,45.5,475.6z M42,192.3c1.3,0,2.4-1,2.5-2.2c0-1.2-1.2-2.6-2.3-2.2c-0.9,0.3-1.9,1.2-2.3,2
		C39.5,190.8,40.9,192.3,42,192.3z M44.5,482.5c-0.6-0.4-1.5-1.3-2.5-1.6c-0.9-0.3-2.5,1.6-2,2.5c0.4,0.8,1.4,1.7,2.2,2
		C43.3,485.8,44.6,484.3,44.5,482.5z M552.5,181.7c-0.5-0.4-1.2-1.2-2.1-1.5c-1-0.3-2.3,1-2.4,2.2c-0.1,1.2,1,2.3,2.2,2.3
		C551.4,184.8,552.4,183.6,552.5,181.7z M44.5,490.6c-0.1-1.5-1.3-1.9-2.5-2c-1.4-0.1-1.9,0.9-2.1,2.1c-0.1,1.1,1.2,2.3,2.3,2.3
		C43.4,493,44.5,491.8,44.5,490.6z M550.3,320.8c1-1.4,1.8-2.1,2-3c0.3-1.2-1-2.4-2.2-2.3c-1.3,0.1-2.4,1.3-2,2.5
		C548.3,318.9,549.3,319.6,550.3,320.8z M42.1,179.3c-1,1.3-1.8,2-2.2,3c-0.3,1,1.1,2.4,2.2,2.5c1.1,0,2.7-1.3,2.4-2.3
		C44.1,181.4,43.1,180.7,42.1,179.3z M552.4,175.7c0-1.9-1.1-3.2-2.2-3c-1,0.2-2.2,0.6-2.2,2c0,1.3,1.3,2.8,2.4,2.5
		C551.3,177,552,176.1,552.4,175.7z M44.5,521.2c0.2-1.1-0.9-2.5-2-2.7c-1-0.2-2.5,1-2.6,2.1c-0.1,1.4,0.7,2.1,1.9,2.4
		C42.8,523.4,44.3,522.3,44.5,521.2z M549.9,518.6c-1.1,0.1-2,0.6-2,2c0,1.3,1.1,2.8,2.1,2.5c0.9-0.3,2-1,2.4-1.8
		C553,520.1,551.4,518.6,549.9,518.6z M45.4,174.9c-1.5-1-2.4-2.2-3.3-2.2c-0.7,0-1.8,1.2-2.2,2.1c-0.4,0.9,1.2,2.7,2.2,2.4
		C43.1,176.9,43.9,176,45.4,174.9z M43,470.5c0.4-0.6,1.2-1.5,1.4-2.6c0.2-1-1.6-2.4-2.6-1.9c-0.8,0.4-1.6,1.4-1.9,2.3
		C39.6,469.4,41.2,470.7,43,470.5z M550.2,538.1c1.5-0.1,2.5-1.2,2.3-2.4c-0.2-1.5-1.2-2-2.6-1.9c-1.3,0.1-2,0.7-1.8,2.1
		C548.1,537.4,548.9,538,550.2,538.1z M44.5,167.4c0-1.2-1.2-2.5-2.4-2.2c-0.9,0.3-1.9,1.2-2.2,2c-0.4,1,1,2.4,2.2,2.4
		C43.3,169.7,44.5,168.6,44.5,167.4z M550.1,157.7c-1.3,0-2.2,1-2.1,2.4c0.1,1.4,1,1.9,2.2,2.1c1.1,0.1,2.4-1.1,2.4-2.3
		C552.6,158.9,551.3,157.7,550.1,157.7z M41.5,556.2c-0.4,0.5-1.3,1.1-1.6,2c-0.4,1,1,2.4,2.1,2.4c1.2,0.1,2.4-1,2.5-2.2
		C44.6,557.4,43.5,556.3,41.5,556.2z M44.5,565.2c-0.6-0.4-1.5-1.3-2.5-1.5c-1.3-0.3-1.9,0.9-2.1,2.1c-0.2,1.1,1.1,2.4,2.3,2.5
		C43.3,568.3,44.5,567.1,44.5,565.2z M552.5,565.8c0-1.2-1.2-2.2-2.4-2.1c-1.2,0.1-2.1,0.7-2,2.1c0,1.3,1,2.4,2.2,2.3
		C551.4,568.1,552.5,567,552.5,565.8z M41.8,570.2c-0.9,1.5-1.8,2.5-1.9,3.4c-0.1,1.3,1,2.1,2.4,2.1c1.2,0,2.5-1.4,2-2.5
		C44,572.3,43,571.6,41.8,570.2z M547.9,580.5c0,1.8,1.1,2.9,2.4,2.8c1.1,0,2.7-1.8,2.2-2.7c-0.4-0.8-1.7-1.5-2.5-1.5
		C549.2,579,548.4,580.1,547.9,580.5z M45.5,325.6c-1.5-1.2-2.3-2.1-3.3-2.5c-0.9-0.4-2.2,1-2.3,2.4s1,2.2,2.1,2.1
		C42.9,327.5,43.9,326.5,45.5,325.6z M550.2,593.7c-1.3,0-2.3,1-2.3,2.3c0,1.6,1,2.1,2.4,2.1c1,0,2-0.2,2.1-1.6
		C552.5,595.1,551.5,593.7,550.2,593.7z M42.2,615.5c-1.1,1.3-2,2-2.3,2.8c-0.4,1,1,2.5,2.1,2.6s2.7-1.2,2.4-2.2
		C44.2,617.7,43.2,616.9,42.2,615.5z M550.3,615.5c-1,1.2-2,1.8-2.2,2.7c-0.3,1.4,1,2.8,2.2,2.7c1.6-0.1,2.2-1.4,2-2.6
		C552.3,617.5,551.2,616.8,550.3,615.5z M42.1,630.5c-1,1.3-1.8,2-2.1,3s1.1,2.4,2.2,2.4c1.1,0,2.7-1.3,2.3-2.3
		C44.1,632.6,43.1,631.8,42.1,630.5z M552.2,633.7c0.4-1.5-0.6-2.1-1.7-2.3c-1.3-0.2-2.5,1-2.4,2.2c0.1,1.4,0.9,2.2,2.3,2.3
		C551.9,635.9,552.2,635,552.2,633.7z M552.5,640.6c-0.6-0.5-1.4-1.6-2.3-1.6c-0.7,0-1.8,1.1-2.1,2c-0.4,1.2,0.8,2.4,2,2.5
		C551.4,643.5,552.5,642.5,552.5,640.6z M44.5,152.2c0-1.1-1.3-2-2.7-1.9s-2,1-1.9,2.3s0.9,2,2.3,1.9
		C43.5,154.5,44.6,153.5,44.5,152.2z M39.9,129.9c0,1.2,1.1,2.3,2.3,2.3s2.5-1.2,2.4-2.3c-0.1-1.4-1.1-2.1-2.4-2.3
		C41.1,127.3,39.9,128.6,39.9,129.9z M44.5,121.5c-0.7-0.4-1.7-1.4-2.6-1.3c-0.7,0.1-1.7,1.3-2,2.2c-0.3,1.1,1.2,2.3,2.4,2.3
		C43.4,124.7,44.6,123.3,44.5,121.5z M552.4,115.4c0-2.1-0.9-2.9-2.4-2.8c-1.4,0.1-2,0.8-2,2.1c0,1.4,1.2,2.7,2.5,2.3
		C551.3,116.8,552,115.8,552.4,115.4z M44.4,114c-0.6-0.4-1.6-1.2-2.6-1.3c-1.3-0.2-1.9,1-1.9,2.2c-0.1,1.3,1.1,2.3,2.4,2.2
		C43.5,116.9,44.6,115.7,44.4,114z M208.3,55.3c-1.8,0-3.1,1.2-3,2.3s1.4,2.4,2.5,2.3c1.1-0.1,2.5-1.4,2.1-2.5
		C209.6,56.5,208.7,55.8,208.3,55.3z M313.7,59.9c0.5-0.6,1.4-1.4,1.8-2.4c0.4-0.8-1.3-2.2-2.4-2.2c-1.3,0.1-2,0.8-2.1,2.1
		C310.9,58.8,311.8,59.8,313.7,59.9z M42.2,96.9c-1.1,1.2-2,1.8-2.4,2.6c-0.4,1.1,0.8,2.3,2.1,2.4s2.8-0.9,2.5-2
		C44.2,99,43.2,98.2,42.2,96.9z M124.8,60c1.1,0.1,2.1-1.1,2.2-2.4c0.1-1.3-0.6-2.2-1.9-2.2c-1.1,0-2.2,0.3-2.4,1.7
		C122.5,58.3,123.6,59.9,124.8,60z M42.2,329.8c-1.1,1.3-1.9,2-2.3,2.8c-0.4,1,0.9,2.4,2.1,2.5c1.1,0.1,2.7-1.1,2.4-2.1
		C44.1,332,43.2,331.2,42.2,329.8z M549.9,330.2c-0.8,1.1-1.7,1.8-1.9,2.7c-0.3,1.2,1,2.3,2.2,2.3s2.8-1.6,2.3-2.7
		C552.2,331.6,551.1,331.1,549.9,330.2z M552.3,490c-0.5-0.4-1.2-1.3-2-1.4c-1.3-0.3-2.3,0.8-2.2,2.1c0,1.5,1,2.3,2.6,2.2
		C552.2,492.9,552.2,491.7,552.3,490z M550.8,202.8c-1.9,0.1-2.8,1.1-2.8,2.4c0,1.2,1.1,2.1,2.4,2.1c1.2,0,2.3-1.3,1.9-2.5
		C552.1,203.9,551.1,203.3,550.8,202.8z M550.7,338c-1.7,0.1-2.8,1.3-2.7,2.6c0,1.3,1.2,2.5,2.4,2c0.9-0.3,2-1.5,2-2.1
		C552.3,339.5,551.2,338.6,550.7,338z M42.3,345.7c-1.3-0.1-2.6,0.9-2.5,2.1s0.6,2.1,2,2.2s2.4-0.5,2.7-1.9
		C44.8,347.1,43.5,345.8,42.3,345.7z M120.4,688.3c-1.4-1-2.4-2.3-3.1-2.2c-0.9,0.2-1.9,1.4-2.2,2.4c-0.3,0.9,1.6,2.3,2.5,2
		C118.4,690.2,119.1,689.4,120.4,688.3z M134.7,689c0-1.8-1.2-2.9-2.4-2.8c-1.2,0.2-2,0.8-2.1,2.2c0,1.3,1.2,2.5,2.4,2.2
		C133.5,690.3,134.2,689.4,134.7,689z M45.5,279.8c-1.7-0.8-2.7-1.5-3.7-1.6c-1.2-0.1-2.1,0.9-1.8,2.2c0.2,1.3,1,2.5,2.4,2
		C43.3,282.1,44.1,281.1,45.5,279.8z M552.2,385.8c0.1-1.6-0.7-2.7-2-2.5c-1.2,0.1-2.1,0.7-2.2,2.1c-0.1,1.3,0.8,2.3,2.3,2.4
		C551.7,387.8,552.3,387.1,552.2,385.8z M42.1,104.3c-1,1.2-2.1,1.9-2.2,2.8c-0.1,1.3,0.8,2.3,2.1,2.6c1.1,0.2,2.7-1.2,2.4-2.2
		C44.1,106.4,43.2,105.6,42.1,104.3z M41.6,308.1c-0.4,0.5-1.3,1.1-1.7,2s1.1,2.4,2.2,2.5c1.2,0.1,2.4-1,2.5-2.2
		C44.6,309.2,43.5,308.2,41.6,308.1z M496.5,687.9c-0.6-0.5-1.4-1.4-2.4-1.7c-1.1-0.4-2.2,1-2.1,2.4c0.1,1.3,0.7,2,2,2.1
		C495.1,690.7,496.4,689.5,496.5,687.9z M104.5,687.9c-0.6-0.4-1.3-1.3-2.1-1.5c-1.6-0.3-2.5,0.7-2.5,2.2s1,1.8,2.2,1.9
		C103.6,690.7,104.2,689.7,104.5,687.9z M44.5,136.7c-0.6-0.4-1.5-1.3-2.5-1.6s-2.3,1.4-2,2.5c0.2,1.2,1,2,2.3,2
		C43.4,139.7,44.6,138.4,44.5,136.7z M466.1,687.8c-0.5-0.5-1.3-1.4-2.3-1.8c-1.1-0.3-2.2,1.1-2.2,2.3c0,1.3,0.6,2.1,2,2.2
		C464.9,690.7,466.1,689.7,466.1,687.8z M361.5,57.3c-1.3-0.9-2.1-1.8-3-2c-1.1-0.2-2.1,0.4-2.2,1.8c-0.1,1.4,1.2,3.1,2.2,2.7
		C359.4,59.5,360.2,58.5,361.5,57.3z M552.3,310.4c0.2-1.4-0.3-2.3-1.9-2.3c-1.6,0-2.4,0.6-2.4,2c0,1.5,0.9,2.2,2.3,2.2
		C551.4,312.4,552.6,312.1,552.3,310.4z M308.7,57.1c-1.4-0.8-2.2-1.6-3.1-1.7c-1.3-0.2-2.3,0.9-2.2,2.3c0.1,1.2,1.5,2.6,2.4,2.2
		C306.7,59.4,307.4,58.4,308.7,57.1z M552.4,559.1c-0.1-2.1-1-2.9-2.4-2.9s-2.1,0.7-2.1,2.1c0,1.3,1.2,2.5,2.4,2.2
		C551.2,560.4,551.9,559.5,552.4,559.1z M548,197.6c0,1.4,0.9,2.3,2.3,2.2c1.6-0.1,2.1-1.1,2.2-2.4c0-1.4-1-1.9-2.2-1.9
		C548.8,195.3,548,196.1,548,197.6z M552.4,588.6c0-1.1-1.2-2.6-2.3-2.4c-1.3,0.2-2.2,1-2.2,2.5c0,1.4,0.9,1.9,2.1,2.1
		C551.3,590.9,552.4,589.8,552.4,588.6z M548,505.5c0,1.6,1,2.5,2.3,2.4s2.4-1.4,2.2-2.8s-1.4-1.4-2.5-1.5
		C548.6,503.7,548,504.5,548,505.5z M44.5,528.5c0-1.2-1.1-2.2-2.5-2.2c-1.2,0-1.9,0.6-2.1,1.8c-0.2,1.1,0.9,2.5,2.1,2.6
		C43.2,530.8,44.4,529.7,44.5,528.5z M298.2,60.8c1-1.6,2-2.5,2-3.5c0-0.7-1.3-1.7-2.2-2c-1.1-0.3-2.7,1.3-2.3,2.2
		C296.2,58.6,297.1,59.4,298.2,60.8z M45.5,603.7c-1.6-1.1-2.4-2.1-3.4-2.3s-2.5,0.5-2.2,1.8c0.2,1,1.3,2.3,2.2,2.5
		C42.8,605.9,43.9,604.7,45.5,603.7z M44.5,234.5c-0.6-0.5-1.4-1.3-2.5-1.7c-0.9-0.4-2.5,1.4-2.1,2.4c0.3,0.9,1.3,1.8,2.2,2.1
		C43.1,237.7,44.5,236.3,44.5,234.5z M550.2,432.9c1.2,0,2-1,2.1-2.4c0-1.4-0.8-2-2-2.1c-1.1-0.2-2.3,1.1-2.3,2.2
		S549,432.9,550.2,432.9z M44.5,610.4c-0.6-0.4-1.5-1.2-2.5-1.5c-1.3-0.3-1.9,0.9-2.1,2c-0.2,1.2,1,2.4,2.2,2.3
		C43.4,613.3,44.5,612.2,44.5,610.4z M44.6,581.5c-0.4-2-1.4-2.7-2.7-2.7s-2.2,0.8-2,2.1c0.1,1.3,0.9,2.6,2.3,2.4
		C43.2,583.1,44,582,44.6,581.5z M552.2,611.5c0.1-1.3,0.1-2.5-1.7-2.6c-1.4-0.1-2.4,0.3-2.5,2c-0.2,1.6,0.7,2.3,2.1,2.5
		C551.4,613.5,552.1,612.9,552.2,611.5z M41.4,455.3c2,0,3-0.5,3.1-2c0.1-1.2-1-2.2-2.3-2.3c-1.2,0-2.5,1-2.3,2.2
		C40.2,454.1,41,454.8,41.4,455.3z M482.2,57.5c-1.5-1-2.4-2-3.4-2.1c-1.1-0.2-2.3,0.7-2.2,2c0.1,1.2,0.8,2.7,2.2,2.5
		C479.9,59.7,480.7,58.6,482.2,57.5z M552.4,400.9c0.1-1.5-0.7-2.5-2.1-2.5c-1.4,0-2.4,0.9-2.4,2.2c0,1.4,0.9,2,2.1,2.1
		C551.3,402.7,552.4,402.3,552.4,400.9z M42.2,147.1c1.1,0,2.7-1.4,2.2-2.3c-0.4-0.9-1.6-1.9-2.5-2c-0.6-0.1-1.7,1.2-2,2.1
		C39.5,145.9,41,147.1,42.2,147.1z M44.5,205.7c-0.1-1.9-1.2-2.8-2.6-2.8c-1.5,0-1.9,1-2,2.2c-0.1,1.3,1.1,2.4,2.4,2
		C43.2,206.9,44,206.1,44.5,205.7z M553.1,227.5c-1.2-1-1.9-1.9-2.8-2.1c-1.2-0.3-2.3,0.9-2.3,2.1c0,1.4,1.3,2.7,2.5,2.3
		C551.4,229.6,552,228.6,553.1,227.5z M552.5,168.2c0-1.8-1.1-3-2.3-3c-1.4,0.1-2.2,0.8-2.2,2.3c0,1.4,1,2.2,2,2.1
		C551,169.5,551.9,168.6,552.5,168.2z M398.3,57c-0.5-0.4-1.1-1.3-2-1.6c-1.3-0.4-2.3,0.6-2.4,2c0,1.4,0.5,2.5,2,2.5
		C397.3,59.9,398.1,58.9,398.3,57z M550.8,500.5c0.4-0.5,1.3-1.2,1.5-2.1c0.3-1.1-1.1-2.5-2.2-2.4c-1.2,0.1-2.1,0.7-2.2,2.1
		C547.9,499.3,548.9,500.4,550.8,500.5z M552.6,302.4c-0.5-0.5-1.2-1.4-2.1-1.9c-1-0.5-2.5,0.8-2.5,2c-0.1,1.3,0.6,2.1,1.9,2.3
		C551,305.1,552.4,304,552.6,302.4z M552.2,295.6c0.3-1.3,0-2.2-1.5-2.5c-1.5-0.2-2.6,0.5-2.8,1.7c-0.2,1.4,0.6,2.4,2,2.5
		C551.3,297.5,552.3,297.2,552.2,295.6z M450.9,56.9c-0.5-0.4-1.2-1.3-2-1.5c-1.2-0.3-2.2,0.4-2.2,1.8c-0.1,1.4,0.6,2.4,2,2.7
		C449.7,60.2,450.9,58.9,450.9,56.9z M552.3,543.6c0.4-1.5-0.3-2.1-1.7-2.2c-1.3-0.1-2.5,0.2-2.7,1.8c-0.2,1.4,0.6,2.3,2,2.4
		C551.4,545.7,552.4,545.1,552.3,543.6z M97,687.6c-0.7-0.4-1.6-1.3-2.6-1.5c-1.3-0.2-2.2,1.1-2,2.5c0.2,1.3,1,1.9,2.3,1.9
		C95.9,690.5,97.2,689.2,97,687.6z M550.8,247.9c-1.9,0-2.8,1.1-2.8,2.5c0,1.5,1,1.9,2.2,1.9c1.3,0.1,2.4-0.8,2.2-1.9
		C552.3,249.3,551.2,248.5,550.8,247.9z M552.2,468.4c0-1.7-0.7-2.5-2-2.5c-1.3,0.1-2.3,1.1-2.2,2.5s1.1,2.1,2.2,2
		C551.2,470.4,552.5,469.9,552.2,468.4z M547.9,99.8c0.1,1.5,0.9,2.3,2.4,2.1c1.1-0.1,2.3,0,2.1-1.8c-0.2-1.2-0.2-2.5-2-2.4
		C549,97.8,548,98.2,547.9,99.8z M550.3,650.9c1.3,0,2.2-1.1,2.1-2.5c-0.1-1.2-0.7-1.9-1.9-1.9c-1.4,0-2.5,0.8-2.5,2.1
		C547.9,650,548.9,650.9,550.3,650.9z M550.7,150.3c-1.8-0.1-2.8,0.7-2.8,2.1c0,1.3,0.7,2.2,2,2.1c1.1,0,2.4-0.1,2.4-1.7
		C552.3,151.6,552.1,150.3,550.7,150.3z M481.3,688c-0.6-0.5-1.5-1.9-2.2-1.8c-0.9,0-2,1.3-2.3,2.2c-0.2,0.4,1.1,1.7,2,2.1
		C479.9,691,481.1,689.8,481.3,688z M550.8,127.6c-2,0-2.9,0.9-2.9,2.3c0,1.6,1,2.2,2.3,2.2c1.6,0,2.2-1.2,1.9-2.5
		C552,128.8,551.2,128.1,550.8,127.6z M552.2,190.4c0.2-1.8-0.3-2.5-1.9-2.5c-1.2,0-2.2,0.2-2.4,1.7s0.7,2.6,2.2,2.7
		C551.5,192.4,552.2,191.7,552.2,190.4z M550.9,526.5c-2,0-2.9,0.4-2.9,1.8c0,1.3,1,2.3,2.3,2.3c1.6,0,2.2-1.3,2.1-2.5
		C552.3,527.5,551.2,526.8,550.9,526.5z M552.4,242.1c-0.5-0.4-1.1-1.4-2-1.7c-1.2-0.4-2.4,0.9-2.4,2.1c0,1.4,0.9,2.3,2.3,2.3
		C551.6,244.8,552.3,244.1,552.4,242.1z M215.9,55.3c-2.1,0-2.9,0.9-2.9,2.3c0.1,1.3,1.1,2.4,2.3,2.2c1.5-0.2,2.2-1.3,2-2.6
		C217.2,56.4,216.3,55.7,215.9,55.3z M550.3,282.5c1.3-0.1,2.1-1,2.1-2.5c0-1.6-1.2-1.6-2.3-1.7c-1.3-0.1-2.2,0.5-2.1,2
		C548,281.6,549.1,282.6,550.3,282.5z M552.2,137.6c0.2-1.1,0-2.1-1.5-2.2c-1.3-0.1-2.4,0.2-2.6,1.8c-0.2,1.3,0.7,2.3,2.1,2.4
		C551.4,139.7,552.2,139.2,552.2,137.6z M552.5,106.6c-0.6-0.4-1.4-1.2-2.3-1.4c-1.2-0.2-2.3,1.1-2.2,2.3c0.1,1.4,1,1.9,2.2,2
		C551.4,109.5,552.5,108.3,552.5,106.6z M552.5,603c-0.5-0.4-1.3-1.3-2.2-1.5c-1.1-0.3-2.2,0.3-2.3,1.7c-0.2,1.4,0.6,2.4,2,2.5
		C551.2,605.8,552.4,604.8,552.5,603z M553.4,550.6c-1.6-0.8-2.5-1.7-3.5-1.8c-1.2-0.1-2,0.8-1.9,2.2c0.1,1.3,1.3,2.4,2.5,1.9
		C551.4,552.7,552.1,551.7,553.4,550.6z M552.5,144.4c-0.5-0.4-1.3-1.4-2.2-1.6c-1.1-0.3-2.2,0.4-2.4,1.8c-0.2,1.4,0.7,2.5,2,2.5
		C551.3,147.2,552.4,146.2,552.5,144.4z M553.1,423.2c-1.2-1-1.8-2-2.7-2.3c-1-0.3-2.4,1.2-2.4,2.3c0,1.2,1.3,2.6,2.4,2.2
		C551.2,425.1,551.9,424.2,553.1,423.2z M552.2,220.2c0.1-1.3-0.2-2.4-1.8-2.4c-1.4,0-2.3,0.8-2.3,2.2c-0.1,1.2,1.1,2.5,2.3,2.3
		C551.3,222.2,552.5,221.8,552.2,220.2z M485.8,686.2c-0.4,0.5-1.2,1.2-1.5,2c-0.4,1.3,0.7,2.3,2.1,2.3c1.3,0,2.1-0.6,2.2-2
		C488.8,687.2,488,686.3,485.8,686.2z M552.5,354.9c-0.5-0.4-1.2-1.3-2.1-1.6c-1-0.4-2.4,1-2.4,2.1c0,1.3,0.6,2.1,1.9,2.1
		C551.3,357.6,552.3,356.7,552.5,354.9z M550.3,390.2c-1,1.2-2,1.8-2.2,2.7c-0.4,1.3,0.7,2.4,2,2.4s2.6-1,2.3-2.2
		C552.2,392.1,551.2,391.4,550.3,390.2z M550.4,455.4c1.2,0.1,1.8-0.7,1.8-2c0-1.2-0.4-2.2-1.8-2.3c-1.4-0.1-2.4,0.7-2.5,2
		C547.9,454.6,548.8,455.2,550.4,455.4z M89.4,688.9c-0.1-1.8-1.3-2.8-2.6-2.7c-1.3,0.2-1.9,1-1.9,2.3c0,1.4,1,2.4,2.4,2
		C88.2,690.2,88.9,689.3,89.4,688.9z M501.6,690.6c1.3,0,2.4-1.2,2.2-2.4c-0.2-1.2-1-2-2.3-1.9c-1.3,0-2.1,1-2.1,2.5
		C499.5,690.1,500.3,690.6,501.6,690.6z M127,688.3c-0.1-1.3-1.2-2.4-2.4-2.2c-1.2,0.2-1.9,1-1.9,2.3s0.7,2,2.1,2.1
		C126.2,690.6,127,689.7,127,688.3z"/>
	<path class="st0" d="M253.2,351.4c-5.9-0.3-10.5-0.5-15.1-0.6c-1.6,0-2.2-0.6-2.1-2.2c0.2-2.8,0.2-5.6,0.2-8.4
		c0-1.1,0.5-1.7,1.6-1.6c0.3,0,0.7,0,1,0c10.5,1,20.3-1.8,29.8-5.5c4.9-1.9,9.6-4.3,14.3-6.6c0.7-0.4,2.4-0.5,1.4-2
		c-0.6-1-1.5-0.2-2.3,0.1c-5.5,2.5-10.9,5.2-16.5,7.4c-9.4,3.8-19.2,5.3-29.4,4.4c-8.3-0.7-15.8-3.5-21.8-9.4
		c-5.7-5.6-10.8-11.7-16.2-17.6c-4.4-4.9-8.8-9.9-13.3-14.8c-3.9-4.2-7.4-8.7-10.2-13.7c-3.2-5.8-4.1-11.7-1.9-18.1
		c3.3-9.6,4.7-19.3,3.4-29.5c-0.7-5.8-1-11.6-1.4-17.4c-0.4-5.7,0.2-11.4,1.8-17c0.5-1.8,1.4-2.6,3.1-3c8.9-1.6,17.8-3.6,26.8-4.9
		c11.8-1.6,23.6-2.7,35.5-3.9c5-0.5,10.1-0.5,15.1-0.8c7.3-0.3,14.6-0.7,21.9-0.9c10.3-0.2,20.7-0.2,31-0.5c2-0.1,3.4,0.6,4.6,2.1
		c4.3,4.9,6.7,10.9,8.9,16.8c4.8,12.6,7.1,25.9,8.8,39.2c1.2,9.6,2.2,19.2,3.4,28.7c0.1,1,0.3,2,0.6,2.9c1.4,3.7,0.8,7.2-1,10.7
		c-2.5,4.6-5,9.2-9.2,12.6c-6.3,5.2-12.4,10.8-18.5,16.3c-0.8,0.7-1.4,1.7-1.6,2.7c-0.6,4.3-1.1,8.7-1.5,13
		c-0.3,2.9-0.5,5.8-0.5,8.7c0,1.9-0.8,2.8-2.4,3.5c-9.9,4.2-20.2,6.7-30.9,7.7C264.8,350.6,258.4,351,253.2,351.4z M223.6,247.7
		c0,0.1,0,0.1,0,0.2c-2.5,0-4.9-0.1-7.4,0c-1.5,0.1-1.8-0.5-1.4-1.8c1.7-6.2,1.3-12.5,0.4-18.7c-0.9-5.9-3.5-11.1-8.4-14.9
		c-6.3-4.9-15.2-4.4-20.8,1.2c-2.5,2.5-3.9,5.7-5.1,9c-1.7,4.8-1.6,9.7-1.3,14.7c0.3,6.5,1.9,12.6,6.9,17.3c0.9,0.8,1,1.2,0,2.3
		c-1.9,2.3-5.2,4.2-3.2,8.1c0.1,0.2-0.1,0.6-0.2,0.9c-2.3,6.2-1.6,12.3,1.3,17.9c4.4,8.6,11,14.6,21.2,15.4c2.5,0.2,2.6,0.3,1.9,2.9
		c-0.9,3.4-0.1,6.4,2.4,8.9c4.3,4.4,9.8,5.9,15.6,6c6.2,0.1,12.3-1.1,18.1-3.4c14.3-5.9,25.6-15.6,35-27.7c1.6-2.1,3.1-4.4,4.5-6.7
		c0.3-0.5,0.5-1.6,0.3-1.8c-0.5-0.4-1.4-0.4-2.1-0.5c-0.2,0-0.4,0.1-0.6,0.2c-6.4,1.8-12.5,4.4-18,8.1c-9.2,6.2-19.3,9.8-30.3,11.2
		c-4.9,0.6-9.9,0.5-14.8,1.1c-2.1,0.2-3.7-0.2-4.8-1.6c-2.8-3.8-5.3-7.7-8-11.6c-0.7-1-0.4-1.6,0.5-2.2c2-1.3,3.9-2.6,5.8-4.1
		c4.6-3.7,8.4-8.1,10.6-13.6c2-5.1,0.3-8.8-5-10.4c-2.4-0.7-5-1-7.6-1.3c-1.8-0.2-3.6,0-5.4-0.1c-0.3,0-0.5-0.2-0.8-0.3
		c0.2-0.2,0.3-0.6,0.6-0.7c0.9-0.3,1.7-0.5,2.6-0.7c8.9-1.4,17.9-1.2,26.9-0.5c2.4,0.2,4.9,0.5,7.4,0.6c0.4,0,0.8-0.4,1.2-0.6
		c-0.3-0.3-0.4-0.8-0.8-0.9c-0.9-0.4-1.9-0.7-2.9-0.8C233,248.4,228.3,248.1,223.6,247.7z M302.4,267.6c0.4,3.2,0.4,6.6,4.1,8.2
		c2.8,1.2,5.5,0.5,7.9-1.3c2.2-1.7,2.5-4.1,1.9-6.7c-0.7-2.8-0.6-2.8,2.3-3.9c1-0.4,2.1-0.8,3-1.5c3.6-2.9,3.8-6.4,2-10.3
		c-1.5-3.4-5.2-4.5-8.9-3.3c-2.4,0.8-8.4,1-10.7,0.3c-3.6-1.1-5.6-0.1-7.2,3.4c-1,2.3-0.9,4.5-0.4,6.9c0.5,2.2,2.2,2.9,3.7,4
		C301.5,264.4,303.4,265.1,302.4,267.6z M299.2,227.3c0.3-12.6-10.2-26-25.1-26.6c-14.7-0.6-27.2,11.1-27.8,25.2
		c-0.7,16.1,13,26.9,24.7,27.6C285.6,254.6,299.4,242.2,299.2,227.3z M262.8,188.7c-1.8,0.2-3.7,0.2-5.5,0.7
		c-1.7,0.5-3.4,1.2-4.8,2.2c-2.7,2.1-2.1,5.7,1.1,6.8c1.2,0.4,2.6,0.4,4,0.3c6.5-0.4,13-0.9,19.4-1.4c0.8-0.1,1.5-0.5,2.3-0.8
		c-0.3-0.8-0.5-1.7-1.1-2.2C274.1,190.3,268.8,188.9,262.8,188.7z M199,205.1c0.4,0,1.4,0,2.4,0c2.4-0.1,3.6-1.9,2.8-4.1
		c-0.8-2.3-2.4-3.6-4.8-4.1c-7-1.4-15.9,2.4-19.4,8.6c-0.7,1.2-0.9,2.8-1.3,4.2c1.4-0.3,2.8-0.3,4.1-0.8
		C187.8,206.7,192.9,204.8,199,205.1z"/>
	<path class="st0" d="M298,591.4c-0.2-5.7-0.1-11.4,1.5-17c0.8-2.6,1.8-5,3.9-6.9c0.4-0.3,0.4-1.1,0.6-1.6c-0.6,0-1.5-0.2-1.8,0.1
		c-1.2,1.3-2.4,2.7-3.2,4.2c-2.5,4.7-2.9,9.9-3.2,15c-0.5,8,0.9,15.9,2.2,23.8c0.4,2.8,1.2,5.5,1.7,8.2c0.4,2.1,0.1,2.4-1.9,2.5
		c-5.9,0.5-11.6-0.6-17.1-2.7c-1-0.4-2-1.5-2.4-2.5c-1.3-3.3-2.7-6.7-3.5-10.1c-1.7-6.9-2.8-13.9-2.5-21c0.3-6.2,1.4-12.2,4.9-17.6
		c1.7-2.6,3.9-4.8,6.9-5.6c2.2-0.6,2.6-1.8,2.7-3.6c0.3-4.5,0.8-9,0.9-13.4c0.2-10.2,0.4-20.4,0.1-30.7c-0.3-10.7-1.5-21.3-4.7-31.5
		c-1.1-3.6-2.7-7.1-4.5-10.4c-2.6-4.8-2.6-13.1,1.9-18.4c2.2-2.6,4.7-5.2,7.5-7.1c6.4-4.6,13.5-8.1,21.5-9.1
		c2.9-0.3,5.9-0.5,8.7-0.1c5.6,0.6,9.7,4.4,10.6,10.2c0.7,4.4,0.7,8.9,1,13.4c1.2,19.8,2.3,39.7,5.1,59.4
		c1.7,12.1,3.2,24.2,6.1,36.1c0.4,1.6,1.1,2.6,2.5,3.3c0.4,0.2,0.8,0.4,1.2,0.6c5.8,2.7,9.2,7.1,10.5,13.4c1.8,9,3.1,18.1,2.7,27.3
		c-0.1,3.6-0.7,7.1-1.1,10.7c-0.8,6.6-4.6,9.1-10.8,9.8c-3,0.3-6-0.3-9-0.5c-1.1-0.1-1.1-0.6-1-1.6c2-10.5,2.3-21.2,2-31.8
		c-0.1-4.9-0.9-9.8-1.6-14.7c-0.4-2.4-1.4-4.8-3.5-6.3c-0.4-0.3-1-0.2-1.5-0.2c0.1,0.5,0,1.2,0.2,1.5c2.9,2.7,3.3,6.3,3.7,9.8
		c0.5,4,1,8.1,0.8,12.1c-0.3,8.7-1.1,17.5-1.6,26.2c-0.1,2.2-1.2,3.4-3,4.5c-5,3.3-10.6,3.7-16.2,3.2c-3.6-0.4-7.2-1.5-10.8-2.3
		c-1.6-0.3-2.3-1.3-2.6-3C299.9,608.5,298.3,600,298,591.4z M297.7,505c-0.4,5.9,3.1,8,7.2,7.5c1.2-0.2,2.4-1,3.5-1.8
		c0.8-0.6,1.2-0.6,1.9,0.1c1.2,1.1,2.4,2.3,3.8,3.1c2.9,1.6,6,0.7,8-2.1c2-2.7,1.8-5.5-0.8-7.7c-1.6-1.4-0.9-2,0.3-2.6
		c1.9-1,3.4-2.4,4.6-4.3c3-5,0.7-10.5-5.1-10.9c-3-0.2-4.1-1.4-4.4-3.9c-0.1-0.4-0.2-0.9-0.4-1.3c-1.1-3.3-3.1-5.9-6.7-6.4
		c-4-0.5-7.5,0.6-10,4.2c-1.7,2.4-2.5,5-2.6,7.9c0,2.2-0.4,3.4-3,4.2c-3.8,1.2-4.4,3.7-3.9,7.9c0.3,2.7,2.3,4.2,5.6,4.2
		C297.5,503,298.4,503.2,297.7,505z M326.7,538c-0.4-0.5-0.9-2-2-2.7c-1.4-0.9-1.8-1.3-0.8-2.9c1.8-2.7,1.1-5.9-1.3-8.2
		c-2.2-2.1-4.9-2.3-7.6-0.2c-1.3,1-2,0.9-2.9-0.2c-0.3-0.3-0.7-0.6-1-0.8c-2.6-1.6-6.2-1.1-8.7,1.2c-2.1,2-2.4,4.6-0.7,7.7
		c0.3,0.6,0.6,1.3,1.1,1.7c1.8,1.2,1.3,2.6,0.7,4.3c-0.4,1.3-0.3,2.8,0,4.2c1,4.4,8.5,7.1,12.6,2.3c1.3-1.5,2.1-2.1,4.2-1.2
		C323.6,544.5,326.8,542.2,326.7,538z M335.7,555.4c-0.9-0.7-1.3-1.2-1.9-1.4c-1.2-0.3-2.4-0.5-3.6-0.7c-10.7-2.1-21.2-1.6-31.6,1.5
		c-1.2,0.3-2.3,0.8-3.5,1.3c-0.8,0.3-2,0.4-1.5,1.7c0.1,0.3,1.3,0.2,2,0.2c0.4,0,0.9-0.2,1.3-0.4c9.7-3.3,19.7-4.1,29.9-2.6
		c2.3,0.3,4.6,0.9,6.9,1.2C334.3,556.2,334.8,555.8,335.7,555.4z"/>
	<path class="st0" d="M378.9,534.1c6.4-0.8,12.7,0.2,18.7,2.8c0.3,0.1,0.6,0.4,0.9,0.4c0.6,0,1.3-0.1,1.9-0.2
		c-0.3-0.5-0.6-1.3-1.1-1.5c-2.6-1-5.2-2-7.9-2.7c-5.1-1.3-5.1-1.2-5.4-6.2c-0.9-17.6-1.6-35.2-2.9-52.8c-0.5-6.9-2-13.7-3.2-20.6
		c-0.2-1.4-0.8-2.8-1.6-4c-0.6-1.1-0.7-1.8,0.3-2.6c9.7-7.2,12.9-17.7,14.6-28.9c1.1-7.1,1.1-14.1-1.3-20.9
		c-0.6-1.8-1.6-3.4-2.4-5.2c-0.2-0.5-0.4-1-0.6-1.5c0.6-0.1,1.3-0.3,1.9-0.2c3.4,0.5,6.9,1.1,10.3,1.7c0.2,0,0.4,0.2,0.6,0.2
		c5.4-0.2,8,3.1,9.3,7.6c2.1,7.2,4.1,14.4,5.7,21.7c1.3,6.1,1.9,12.4,2.9,18.6c0.3,1.7-0.2,1.4-1.3,0.8c-1.5-0.8-3-1.7-4.5-2.1
		c-4-0.9-8.6,2.1-9.8,6.1c-0.2,0.8-0.5,1.5-0.5,2.3c-0.1,1-0.3,1.8-1.5,1.8c-0.1,0-0.2,0.1-0.3,0.1c-9,3.8-8.5,10.2-4.3,16.2
		c2.6,3.7,7.2,4.6,10.9,2.2c1.6-1,2.3-1.1,3.8,0.4c2.4,2.5,5.5,2.4,8.9,0.2c1.6-1.1,1.7-1,2,0.8c1.7,14.6,3.5,29.2,5.2,43.8
		c1.4,11.5,2.8,22.9,4.3,34.4c1.3,10.3,2.7,20.7,4,31c0.3,2.7,0.4,2.8-2.2,3.8c-6.5,2.5-13,5-19.6,7.1c-6.4,2-12.9,3.6-19.5,5.2
		c-3.8,0.9-7.6,0.6-11.2-1c-2.3-1-4.2-2.4-4.8-4.8c-2.6-10.4-4.2-20.9-2.1-31.6c0.9-4.7,2.6-9.1,6.6-12.1c0.4-0.3,0.5-1.1,0.7-1.7
		c-0.6,0-1.4-0.2-1.8,0.2c-1.4,1.3-2.9,2.5-3.9,4.1c-4.3,6.8-5.1,14.5-4.7,22.3c0.4,6.9,1.5,13.8,3.5,20.5c0.3,1.1,0.1,1.6-1,2
		c-3.6,1.2-6.9,0.7-9.9-1.4c-0.5-0.3-0.9-1-1-1.6c-1.7-9.8-3.6-19.7-2-29.7c0.9-5.8,2.1-11.5,6.5-15.9c0.3-0.3,0.2-1.1,0.3-1.6
		c-0.6,0.1-1.5,0-1.7,0.3c-1.7,2.4-3.6,4.7-4.7,7.3c-2.8,6.7-3.5,13.9-2.9,21.1c0.5,6.2,1.7,12.4,2.6,18.6c0.2,1.3-1.3,2.6-3.3,2.8
		c-1.7,0.1-1.4-1.2-1.4-2.1c0.1-6.6-1.6-12.9-3-19.2c-0.8-3.5-2.3-6.6-5.2-8.8c-0.9-0.7-1.4-1.5-1.1-2.9c0.5-2,0.2-4.3,0.8-6.3
		c3-10.8,12.1-17.7,23.3-17.9C375.7,534,377.3,534.1,378.9,534.1z M395.4,505.7c-0.1,2.5,1.1,4,3.3,5c2.7,1.2,5.4,0.7,7.2-1.8
		c1.1-1.6,1.9-1.6,3.5-0.7c2.1,1.2,4.3,1.1,6.4-0.3c2.4-1.7,2.7-4.2,3.1-6.8c0.4-2.5-0.7-4.4-3-5.5c-0.8-0.4-1.7-0.6-2.6-0.7
		c-1.3-0.1-1.6-0.5-1-1.6c0.5-1,1-2,1.2-3.1c0.6-3.1-0.8-5.5-3.7-6.7c-2.5-1-4.6-0.2-6.4,2.6c-0.2,0.4-0.5,0.7-0.7,1.2
		c-0.5,1.6-1.3,1.6-2.7,1c-2-0.8-3.9-0.6-5.6,0.9c-2.9,2.8-3,8.7,0.3,11.1c1.7,1.2,2.3,2,1,3.8C395.3,504.4,395.4,505.2,395.4,505.7
		z M402.9,530.2c-0.1,3.1,2.9,6.7,5.4,5.8c2.5-1,4.9-0.5,7.4-0.8c1.5-0.2,3.1-0.8,4.3-1.6c3.5-2.3,3.5-5.4,0-7.6
		c-1.1-0.7-2.2-1.2-2.1-3s-1.4-2.8-2.9-3.2c-1.6-0.4-3.2-0.1-4.2,1.4c-0.6,0.8-1.1,1.7-1.4,2.6c-0.3,1-0.9,1.3-1.9,1.4
		C403.9,525.7,403,526.7,402.9,530.2z"/>
	<path class="st0" d="M383,414.4c0.2,10.8-3.5,20.2-10.5,28.4c-6.6,7.7-15.2,12.4-24.4,16.3c-4.4,1.9-9,3.5-13.5,5.1
		c-0.8,0.3-2.3,0.4-2.4,0.1c-0.5-1.2-1.1-2.5,0.1-3.7c3.3-3.2,4.8-7.6,6.2-11.8c2.7-7.8-2-17.9-9.2-22c-6.2-3.5-12.8-4.5-19.8-4.2
		c-8.6,0.3-16.1,3.6-23.1,8.2c-5.9,3.9-11.1,8.8-15.3,14.6c-3.6,5-5.7,10.4-5.2,16.6c0.1,1.3,0.5,2.6,1,3.8c0.5,1.4-0.3,1.7-1.3,1.5
		c-1.4-0.4-2.8-0.9-4-1.7c-8.4-6.2-15.4-13.4-18.5-23.7c-1.2-4.2-2.8-8.3-3.7-12.5c-0.7-3.2-0.6-6.7-0.8-10
		c-0.1-1.2,0.3-1.8,1.8-1.1c1.4,0.6,3,0.7,4.5,0.8c1,0.1,2-0.2,3-0.1c5.3,0.6,9.3-1.7,12.9-5.3c7.2-7.1,10.9-15.7,11.4-25.8
		c0.1-1.9,0-3.5-2.2-4.6c-2.1-1.1-3.8-3.1-4.2-5.8c-0.2-1.5,0.3-2.1,1.6-2.2c2.8-0.3,5.6-0.5,8.4-0.8c10.4-1.2,20.5-3.9,29.8-8.8
		c2.3-1.2,4.4-2.6,6.6-4c0.9-0.6,1.6-0.7,2.7,0c8.5,6.2,18.2,9.9,28.5,12.2c1.3,0.3,2.8,1,3.7,2c4.8,5.5,10.9,8.5,18,9.7
		c2,0.3,4,0.9,6,0.9c3.2,0.1,5.2,1.6,6.7,4.3c2.2,4,3.4,8.3,4.1,12.7C382.4,407,382.6,410.7,383,414.4z M378.1,417.6
		c0-2.9-1.1-7-3.3-10.7c-0.9-1.6-2-2.5-4-2.3c-8.6,0.7-17.2,1.3-25.8,2c-2.7,0.2-3.1,1-2.2,3.7c0.3,1,0.5,2,0.9,2.9
		c3.1,8,4.3,16.2,2.6,24.7c-0.4,2,0.1,2.5,2.1,2.2c6.6-0.9,13-2.3,19.1-5.1C374.4,431.9,377.9,426.7,378.1,417.6z"/>
	<path class="st0" d="M222.8,458.4c0-3.6,0-7.2,0-10.8c0-0.4,0.1-0.8,0.2-1.3c0.4,0.3,0.9,0.5,1.3,0.9c3.8,4.1,7.4,8.4,11.5,12.2
		c7.1,6.5,15.9,10.4,25.1,13.1c1.7,0.5,2.2,0.9,1.8,2.6c-2,7.3-2.7,14.8-2.9,22.3c-0.4,15.4-1,30.8-1,46.1c0,12.6,0.6,25.1,0.9,37.7
		c0,1.5,0,2.9,0.2,4.4c0.3,1.9-0.6,2.8-2.3,3.5c-7.5,3.5-15.3,5.7-23.3,7.4c-7.3,1.5-14.8,2.7-22.2,3.7c-3.2,0.4-6.6,0.5-9.7-0.2
		c-7.1-1.5-10.7-6.8-11.7-13.6c-1.1-7-1.7-14.1-0.3-21.1c0.4-2.2,1.1-4.3,1.9-6.4c1.2-3,3.2-5.4,6.2-6.8c0.5-0.2,1.1-0.4,1.5-0.8
		c0.4-0.4,0.7-1.1,1-1.6c-0.6-0.1-1.3-0.4-1.8-0.2c-3.1,1-5.5,3-7.3,5.7c-2.6,4.1-3.7,8.6-4.1,13.4c-0.5,6.4-0.4,12.8,1.2,19.1
		c0.6,2.4,1.6,4.6,2.5,6.9c0.4,1.2,0.4,1.8-1.1,2.1c-4.4,1-7.1-0.3-8.9-4.4c-0.5-1.1-1-2.3-1.2-3.5c-1.6-10.8-1.8-21.6,0.9-32.4
		c2.2-8.7,8-13,16.6-14.4c8-1.3,15.8-0.9,23.6,1.3c1.1,0.3,2.2,0.6,3.3,0.8c0.5,0.1,1.1-0.3,1.7-0.5c-0.4-0.5-0.7-1.3-1.2-1.4
		c-2.9-0.8-5.8-1.6-8.8-2.1c-1.6-0.3-1.7-0.8-1.2-2.2c0.9-2.3,1.4-4.7,2.2-7c0.3-0.8,0.8-1.6,1.4-2.2c1.4-1.4,1.7-1.2,2.6,0.7
		c1.5,3.1,3.7,4.4,6.6,3.9c3.1-0.6,4.5-2.9,3.5-5.9c-0.8-2.4-0.8-2.4,1.4-3.5c2.7-1.2,3.7-3.9,2.5-6.8c-1.3-3.3-4.7-5.3-7.5-3.8
		c-2.3,1.3-2.7,0.1-3.5-1.4c-0.5-1-1.3-1.9-2.1-2.5c-1.6-1-1.8-2.2-1.5-4c0.4-2.3,0.3-4.7,0.4-7c0-0.4,0.3-0.8,0.4-1.2
		c0.4,0.2,0.8,0.4,1.1,0.7c1.1,0.9,2.1,2,3.3,2.8c4.6,3.1,11.4,0.8,12.9-4.4c0.3-0.9,0.4-2,0.1-2.9c-0.4-1.2-0.4-1.8,1.1-1.9
		c3.1-0.3,4.9-1.9,5.2-4.3c0.4-3.1-1.2-6.4-4.2-7.2c-1.9-0.5-2-0.9-1.1-2.6c2.2-4.1,0.6-8.4-3.7-10.3c-2.1-0.9-4.2-0.8-5.9,0.9
		c-0.9,1-1.8,2-2.5,3.2c-0.6,0.9-1,1.5-2,0.5c-0.1-0.1-0.2-0.2-0.3-0.2c-1.1-0.4-2.7-0.4-3.1-1.1c-0.6-0.9-0.1-2.4-0.1-3.6
		C222.8,464,222.8,461.2,222.8,458.4L222.8,458.4z"/>
	<path class="st0" d="M304,168.3c13,0.6,26.1,0.7,39,1.8c14.3,1.2,28.5,3.5,42.1,8.6c4.4,1.6,8.6,3.9,12.6,6.3
		c2.6,1.5,4.8,3.7,5.3,7c0.4,2.7-0.3,5.1-2,7.2c-2.7,3.4-6.5,5.2-10.3,6.8c-6.4,2.7-6.4,2.6-11.8-1.6c-5.8-4.5-11.7-9-17.6-13.5
		c-0.3-0.3-0.6-0.6-0.9-0.9c0.5-0.1,1-0.2,1.5-0.2c0.9,0,2.2,1.1,2.6-0.2c0.5-1.7-1.5-1.6-2.3-1.7c-7.3-1.3-14.5-2.7-21.9-3.5
		c-6.5-0.7-13-1.2-19.5-1.2c-12.9-0.1-25.8,0.1-38.8,0.3c-5.7,0.1-11.4,0.6-17.2,0.8c-13.9,0.3-27.8,1.2-41.7,2.7
		c-18,1.9-35.8,5-53.3,9.5c-2.7,0.7-5.4,1.6-8,2.5c-0.6,0.2-1,0.8-1.5,1.3c0.6,0.2,1.4,0.6,1.9,0.5c2.1-0.5,4.1-1.1,6.1-1.7
		c0.6-0.2,1.3-0.4,1.9-0.5c0.5-0.1,1-0.1,1.6-0.1c-0.1,0.5-0.1,1.1-0.4,1.5c-1.1,2-2.4,3.8-3.3,5.8c-1.4,3.3-3.8,6.2-4.7,9.8
		c-0.1,0.5-1.1,1-1.8,1c-10.9,0.9-21.8,0.8-32.5-1.4c-3.1-0.6-6.2-1.8-9.1-3.3c-6.6-3.3-7.4-12.1-1.3-16.3c3.9-2.7,8.4-4.8,12.8-6.5
		c11.1-4.3,22.7-6.9,34.5-8.8c11.6-1.8,23.3-3.5,35-4.8c12.6-1.5,25.2-2.9,37.9-3.7c16.4-1.1,32.8-1.7,49.2-2.4
		c5.3-0.2,10.6,0,15.8,0C304,168.9,304,168.6,304,168.3z M303.8,176.3c-13.2,0.5-24,0.7-34.8,1.3c-10.1,0.6-20.2,1.5-30.2,2.3
		c-10.3,0.9-20.6,1.6-30.8,3c-13.2,1.8-26.4,4-39.5,6.7c-11.7,2.4-23.3,5.6-34.9,8.7c-2.3,0.6-4.5,1.9-6.6,3.2
		c-2.7,1.7-2.5,3.6,0.1,5.9c0.7,0.6,2,0.4,3,0.6c-0.5-0.7-1-1.4-1.5-1.9c-1.7-1.7-1.8-2.3,0.2-3.6c1.4-0.9,3-1.5,4.6-2.1
		c2.1-0.7,4.3-1.4,6.4-1.9c13.2-3,26.4-6.5,39.7-8.9c12.9-2.4,25.9-4,39-5.5c13.9-1.6,27.9-3,42-3.8c14.8-0.9,29.6-1.2,44.5-1.4
		c16.2-0.3,32.3,0.8,48.4,3.1c13.5,2,26.6,5.1,39,10.9c0.7,0.3,1.5,0.5,2.2,0.7c0.3,0.1,0.9-0.1,0.9-0.2c0-0.4,0-0.9-0.3-1.2
		c-0.4-0.4-0.9-0.7-1.4-0.9c-4.1-1.7-8.2-3.7-12.4-5.1c-13.6-4.4-27.6-6.9-41.9-8C326.8,177.2,314.1,176.8,303.8,176.3z"/>
	<path class="st0" d="M325.7,185.1c7,0.6,14.1,1.1,21.1,1.8c0.7,0.1,1.3,0.6,2,0.9c-0.3,0.6-0.6,1.1-1,1.7c-1.3,2.2-2.9,4.3-3.8,6.6
		c-1.6,4.1,0,7.5,3.1,10.2c1.8,1.5,3.9,2.5,6,3.7c1.1,0.6,1.8,1.1,1.8,2.5c0,8.1,5.1,11.6,12.1,13.5c3.1,0.9,6.2,0.8,9.1-1
		c3.5-2.2,3.5-2.2,7.7-1.9c2.9,0.2,5.3-1.1,7.4-2.7c1.1-0.8,1.6-0.8,2.5,0.1c4.2,4.3,8.2,9,11.1,14.3s2.1,10.3-0.9,15.3
		c-3.1,5.2-7.1,9.8-11.4,14.1c-9.4,9.3-19.5,18-30.2,25.8c-2.5,1.8-4.8,3.7-7.3,5.4c-3.6,2.4-6.4,1.9-9.1-1.5
		c-3-3.8-4.4-8.3-5.6-12.8c-2.2-8.6-3.5-17.3-4.3-26.2c-1.7-17.9-4-35.6-10.6-52.6c-2.1-5.5-4.4-11-8.2-15.7c-0.8-1-0.4-1.4,0.7-1.4
		c2.6,0,5.2,0,7.8,0C325.7,185.2,325.7,185.2,325.7,185.1z M376,241.2c0.2,1.1,0.3,2.3,0.7,3.5c0.8,2.4,3.1,4.4,4.9,3.8
		c2.2-0.7,2.3,0.3,2.7,1.9c0.7,3.3,2.4,4.4,5.2,3.7c3.3-0.9,6.2-2.7,7.1-6c0.7-2.3,1.9-3.1,3.9-3.9c3.3-1.3,4-4.1,2.1-7
		c-1.2-1.9-2.9-3.1-5.2-3.2c-1.6,0-2.6-0.4-3.4-2c-0.7-1.6-2.3-2.4-4.2-2c-1.7,0.4-2.4,1.7-2.4,3.2c0,2.2-1.1,1.9-2.6,1.4
		c-1-0.3-2.2-0.5-3.3-0.5c-2.9,0-4.5,1.4-5,4.3C376.3,239.3,376.2,240.1,376,241.2z"/>
	<path class="st0" d="M225,100.7c0.5,0.3,1.6,0.8,2.3,1.5c4.1,4.5,8.1,9.1,12.1,13.5c1.1,1.2,1.7,2.6,1.8,4.2
		c0.1,2.9,0.2,5.8,0.4,8.7c0.2,2.7,0.5,5.4,0.6,8c0.1,1.5,1,2.1,2.2,2.7c4.1,1.9,8.1,3.8,12.2,5.6c1.4,0.6,2,1.2,1.5,3
		c-1.9,6-3.5,12-5.1,18.1c-0.5,1.7-1.2,2.5-3.2,2.6c-8.6,0.5-17.3,1.1-25.9,1.9c-7.3,0.6-14.5,1.5-21.8,2.4
		c-7.7,0.9-15.4,1.9-23,2.9c-2,0.3-4,0.5-6,1c-1.4,0.3-2.2,0.1-2.9-1.4c-2.1-4.8-4.5-9.5-6.7-14.3c-1.3-2.9-1.2-3.1,1.3-5
		c4.1-3.1,8.2-6.3,12.3-9.4c1.7-1.3,2.4-2.7,1.9-4.9c-1.1-4.9-2-9.9-3.1-14.8c-0.7-2.9-0.6-5.3,1.5-7.8c2.9-3.6,5.5-7.4,8-11.2
		c1-1.5,2.1-2.3,4-2.6c9.1-1.2,18.2-2.5,27.4-3.8C219.3,101.5,221.8,101.2,225,100.7z M216.1,111.4c0-0.1,0-0.1,0-0.2
		c-2.1,0.2-4.3,0.3-6.4,0.6c-5.4,0.9-10.8,1.9-16.2,2.8c-1.6,0.3-2.1,1.2-2,2.8c0.1,1.4,0,2.9-0.2,4.3c-0.8,4.6-4,7.6-7.5,10.2
		c-1.3,1-1.8,1.7-1.1,3.3s1,3.4,1.6,5.1c4.3,11.3,11.4,19.7,23.4,23.6c4.6,1.5,8.1,0.7,11.6-2.5c10-8.9,14.6-20.1,14.8-33.3
		c0-2.8-0.3-3.3-3.3-3.4c-2.2-0.1-3.9-1-5.4-2.4c-2.4-2.2-3.6-5.1-4-8.3c-0.3-2-1.2-2.7-3-2.8C217.7,111.4,216.9,111.4,216.1,111.4z
		"/>
	<path class="st0" d="M383.5,521.6c0.2,2.3,0.4,5.2,0.7,8.1c0.2,1.6-0.4,2.2-2,2.2c-3,0-6.1,0-9.1,0.1c-8.1,0.4-14.6,4.1-19.6,10.2
		c-3.3,4.1-5.4,8.7-5.3,14.2c0,1.8-0.2,1.8-1.9,1.1c-2.4-1-3.6-2.6-4.1-5.2c-1.2-7.3-2.5-14.6-4-21.8c-0.4-2,0.2-3.2,2.1-3.3
		c3.1-0.2,6.3-0.6,9.3-0.3c2.9,0.3,5.7,1.3,8.5,2c0.3,0.1,0.6,0.4,0.9,0.4c0.7-0.1,1.4-0.3,2-0.4c-0.4-0.5-0.8-1.1-1.3-1.3
		c-0.8-0.4-1.7-0.6-2.5-0.8c-0.9-0.3-1.7-0.5-2.6-0.7c-3-0.9-2.9-0.9-2.6-4c0.6-6.4,1.1-12.7,1.6-19.1c0.6-7.9,1.1-15.9,1.5-23.9
		c0.3-6.2,0.5-12.3-1.2-18.4c-0.4-1.3,0.1-2,1.3-2.7c3.8-2.1,7.4-4.6,11.3-6.5c2.6-1.2,5.5-1.8,8.3-2.2c0.6-0.1,1.9,1.2,2.2,2.1
		c0.9,2.5,1.6,5.1,2.1,7.7c1.9,10.8,2.4,21.8,2.8,32.8C382.3,501.5,383,511.2,383.5,521.6z"/>
	<path class="st0" d="M440.3,370.6c-1.2,7.5-3.8,15.6-12.2,20.6c-2.5,1.5-4.9,2-8,1.5c-10.9-2.1-21.9-3.8-32.8-5.6
		c-3.6-0.6-7.3-1.3-10.9-2c-0.5-0.1-1-0.3-1.5-0.5c0.5-0.4,0.8-1,1.4-1.3c5.7-2.9,9.5-7.6,11.6-13.4c3.7-9.9,3.5-19.6-3.4-28.3
		c-1-1.2-2.2-2.3-3.2-3.4c-0.2-0.2-0.3-0.5-0.4-0.8c0.3,0,0.7-0.2,1-0.1c1.4,0.4,2.8,0.8,4.2,1.2c14.6,4.4,29.2,8.7,43.8,13.1
		c2.4,0.7,4.2,2,5.6,4C438.3,359.6,440.3,364,440.3,370.6z"/>
	<path class="st0" d="M289.9,159.8c-2.1-0.1-4.2-0.2-6.3-0.3c-0.1-2-0.1-3.9-0.3-5.9c-0.6-10-1.5-19.9-5.3-29.3
		c-1.8-4.5-4.1-8.7-7.8-12c-0.4-0.4-0.8-0.9-1.3-1c-0.9-0.3-1.8-0.3-2.7-0.5c0.5,0.6,0.8,1.5,1.4,1.9c5.2,4.1,7.8,9.7,9.8,15.7
		c3.2,9.4,3.6,19.1,3.8,28.9c0.1,2.2-0.2,2.4-2.6,2.4c-4.5,0.2-9,0.3-13.5,0.5c-2.1,0.1-2.3-0.2-1.5-2.3c1.5-4.1,3.1-8.2,4.6-12.2
		c1.2-3.1,1.1-3.4-1.9-4.8c-4.6-2.2-9.2-4.6-13.9-6.7c-1.9-0.9-2.7-1.9-2.7-4c0.1-4.7-0.1-9.4,0.1-14.1c0-1.6-0.5-2.7-1.6-3.8
		c-2.8-2.8-5.5-5.6-8.2-8.4c-0.4-0.4-0.6-0.9-0.9-1.3c0.5-0.2,0.9-0.5,1.4-0.6c10.2-1,20.4-0.6,30.5,1.5c7.7,1.6,13.4,6,17.3,12.8
		c4.1,7,6.5,14.5,7.3,22.5c0.6,6,1,12.1,1.3,18.1c0.1,3,0,3-2.9,3C292.6,159.8,291.3,159.7,289.9,159.8L289.9,159.8z"/>
	<path class="st0" d="M388.1,359.3c-0.4,5.2-1.9,11.7-6.4,17.3c-2.1,2.6-4.5,4.9-8.2,5.4c-2,0.3-3.8,1.5-5.8,1.5
		c-5.4,0-10.4-1.7-14.7-4.9c-4-2.9-7-6.6-8.4-11.4c-0.6-2.2-0.4-2.6,1.9-2.3c1.2,0.1,2.4,0.5,3.5,1c1.8,0.7,3.2,0.2,4.6-1
		c4.8-3.9,5.5-9,3.5-14.5c-0.3-0.7-0.7-1.8-1.2-1.9c-2.7-0.6-4.9-2.7-7.9-2.3c-0.4,0.1-0.9,0.1-1.3,0c-1.4-0.2-1.7-0.8-0.8-2
		c3.7-5.3,8.8-8.5,15.1-9.8c0.3-0.1,0.7,0,1-0.1c7.1-1.9,12.6,0.7,17.5,5.8C385.1,344.9,388.3,351.1,388.1,359.3z"/>
	<path class="st0" d="M213.8,412.8c0-12.4,4.3-23.4,11-33.7c1.3-2,2.8-3.8,4.2-5.7c0.7-0.9,1.5-1.2,2.6-0.7c0.9,0.4,1.2,0.7,0.7,1.7
		c-1.5,3.1-3.6,5.7-6.4,7.7c-2.2,1.5-2.7,3.3-2.4,5.7c0.6,5.1,1.4,10.2,3.5,15c1.8,4.3,4.3,8.1,7.8,11.2c1.1,1,1.8,2,1.7,3.8
		c-0.5,8.1,1,16,4,23.6c3.3,8.5,8.2,15.9,15.1,21.9c2.8,2.4,5.9,4.4,8.9,6.6c0.4,0.3,0.7,0.8,1,1.2c-0.5,0-1.1,0.2-1.6,0.1
		c-7.8-1.7-15.1-4.8-21.8-9.3c-10.1-7-17.8-16.1-23.2-27C215.6,428,213.8,420.6,213.8,412.8z"/>
	<path class="st0" d="M252.3,361.2c0.1-1.2,0.1-2.5,0.2-3.7c0.4-3.4,1.1-4.1,4.6-4.3c12.8-0.7,25.5-1.7,37.8-5.9
		c3.9-1.3,7.6-3.2,11.4-4.9c1.1-0.5,2.1-1,0.6-2.4c-0.4-0.4-0.4-2,0.1-2.4c0.4-0.4,1.8-0.4,2.4,0c1,0.6,2,1.5,2.6,2.4
		c3,4.8,3.1,10.2,3,15.6c0,0.9-1.2,2-2.1,2.8c-5.2,4.2-11.2,7-17.5,9.2c-8.9,3.2-18.2,4.8-27.6,5.2c-1.3,0-2.5,0.2-2.1-1.9
		c0.1-0.5-0.9-1.4-1.6-1.7c-2.9-1-5.8-1.8-8.7-2.5c-2.8-0.7-2.9-0.5-2.9-3.3c0-0.8,0-1.6,0-2.4C252.3,361.2,252.3,361.2,252.3,361.2
		z"/>
	<path class="st0" d="M174,199.9c0,0.3,0.1,0.7,0.1,1c-2,8.9-0.9,17.8-0.2,26.8c0.6,7.1,1.7,14.3,0.2,21.5
		c-0.9,4.3-1.6,8.6-3.1,12.7c-2.9,8.4-0.9,15.9,3.6,23c1.5,2.4,3.2,4.6,5,6.8c0.9,1.1,1.2,2.2,0.3,3.3c-1.8,2.2-3.4,4.5-5.4,6.4
		c-2.8,2.7-6.9,3.9-9.8-1.1c-2-3.4-3.5-7.2-4.6-11.1c-3-10.2-4.2-20.6-3.8-31.2c0.1-1.5,0.3-2.6,1.9-3.1c4.1-1.3,6.3-4,6.2-8.5
		c0-1.1,0.6-1.2,1.5-1.2c4.5,0.1,5.7-1.7,3.8-5.8c-0.9-1.8-2.6-3.5-2.6-5.3c0-1.5,2.3-2.8,3.1-4.5c2.2-4.5,1.8-9.1-1.5-12.9
		c-1.9-2.2-1.9-3.9-0.6-6.2c2-3.5,3.7-7.1,5.5-10.6C173.7,199.8,173.8,199.9,174,199.9z"/>
	<path class="st0" d="M351.9,488.7c-0.3,6.3-0.6,12.6-1,18.8c-0.3,5-0.9,10-1.3,15.1c-0.1,1.4-0.4,2-2,1.9c-2.7-0.1-5.3-0.1-8,0.1
		c-1.4,0.1-1.4-0.6-1.6-1.6c-0.6-4.3-1.3-8.6-1.7-13c-1.2-12.7-2.4-25.5-3.4-38.2c-0.4-4.6-0.2-4.5,4.4-5.9
		c3.8-1.2,7.6-2.5,11.4-3.9c2.5-0.9,2.7-1,2.9,1.5c0.4,4.7,0.5,9.4,0.7,14.1c0.1,3.7,0,7.4,0,11.1
		C352.2,488.7,352.1,488.7,351.9,488.7z"/>
	<path class="st0" d="M311,424.3c7.2,0.4,13.4,1.2,18.7,5c5.3,3.8,7.4,9.1,7,15.5c-0.1,1.5-1.2,2.9-1.8,4.3
		c-0.8,1.8-1.5,3.5-2.3,5.2c-0.2,0.3-0.6,0.6-0.9,0.8c-0.1-0.4-0.2-0.8-0.3-1.2c-0.2-2.1-0.4-4.2-0.5-6.4c-0.8-8.8-6-13.5-15-14
		s-17,2.5-24.6,6.8c-4.5,2.5-8.8,5.4-12,9.6c-4.9,6.4-6.2,13.3-3,20.8c0.8,1.9,0.7,1.9-1.3,1.9c-1.8,0-2.7-1.1-3.5-2.2
		c-3.6-5.1-4.3-10.7-2.4-16.6c2-6.3,6.2-11.1,10.9-15.5c6.9-6.4,14.8-11.2,24.2-13.1C306.7,424.7,309.3,424.5,311,424.3z"/>
	<path class="st0" d="M327.8,361.1c3.9,0.6,7.7,1.2,11.6,1.8c1,0.2,1.9,0.5,2.2,1.7c0.5,1.9,1.2,3.8,1.9,5.7c0.3,0.9,0,1.3-0.9,1.1
		c-1.6-0.4-3.2-0.8-4.8-1.3c-7.1-2.2-13.9-4.9-20.1-9.1c-1.4-0.9-2.4-1.5-1.1-3.6c0.9-1.4,0.6-3.7,0.5-5.5
		c-0.3-3.9-0.9-7.8-2.5-11.4c-1.3-2.8-3.3-4.8-6.5-5.2c-1.3-0.2-1.8-0.7-1.6-1.9c0.1-0.8,0.1-1.6,0.2-2.3c0.1-1.5,0.9-2.1,2.5-2
		c5.3,0.4,10.5,0.7,15.8,1c5.5,0.3,11,0.8,16.5,1c2.1,0.1,3.4,0.7,4.3,2.5c0.1,0.3,0.4,0.5,0.5,0.9c0.8,1.4,2.2,2.7,2.1,4.1
		c0,1.3-1.9,2.4-2.4,3.8c-1.5,3.8-4.2,3.7-7.6,3.3c-3.8-0.4-7.6-0.3-11.4-0.2c-4.3,0.1-8.5,5-7.5,9.2c0.5,2.1,1.8,4,3,5.8
		S325.9,361.2,327.8,361.1z"/>
	<path class="st0" d="M369.9,328.9c0.1-1.1,0.3-2.2,0.4-3.3c0.5-4.3,0.5-4.2,4.5-3.2c11.8,2.9,23.7,5.8,35.1,10.1
		c4.3,1.6,8.4,3.7,12.5,5.7c2.7,1.3,3.8,3.3,3.1,6.5c-0.7,3.2-0.4,3.3-3.8,2.3c-16.4-4.9-32.8-9.8-49.2-14.7
		C370.7,331.7,369.4,331.1,369.9,328.9z"/>
	<path class="st0" d="M412.7,396.9c6.2,5.2,10.6,11.7,14.3,18.8c0.4,0.8,0.8,1.6,1.2,2.4c1.1,2.2,1.7,4-0.3,6.4
		c-2.5,2.9-1.8,5.5,1.5,7.5c1.1,0.7,1.8,1.1,1.4,2.8c-1,4.5,2.8,9.5,7.5,10.1c2.2,0.3,4.5,0.4,6.4-1.3c1-1,1.9-0.8,2.9,0.1
		c3.7,3.2,8.1,5.2,12.5,7.1c1.3,0.6,2.2,1.9,3.3,2.9c-1.3,0.4-2.6,1.2-4,1.3c-14.9,0.6-27.1-4.3-35.8-17c-2.2-3.1-2.7-6.5-3.3-10
		C418.4,417.6,416.6,407,412.7,396.9z"/>
	<path class="st0" d="M260.5,99.2c-3.9,0-7.8-0.1-11.7,0c-2.1,0-4.2,0.4-6.4,0.4c-2.8,0.1-5.4,1.1-8.4-0.4c-2.3-1.1-5.3-0.6-8-0.7
		c-1.2-0.1-1.7-0.4-2-1.6c-1.6-5.9-3.3-11.8-5-17.7c-0.5-1.8-0.2-2.2,1.7-1.8c8.4,1.6,16.4,4.7,23.7,9c6,3.5,11.6,7.5,17.4,11.4
		c0.6,0.4,1,1.1,1.5,1.7c-0.7,0.1-1.4,0.2-2.1,0.2c-0.2,0-0.5,0-0.7,0C260.5,99.6,260.5,99.4,260.5,99.2z"/>
	<path class="st0" d="M332.3,346.8c7.1,0.9,14.2,1.7,21.2,2.6c1.9,0.2,3.1,1.4,3.5,3.4c0.7,3.9,0,7.3-3.1,10.1c-1.1,1-2,1.2-3.6,0.8
		c-5.5-1.5-11-2.8-16.6-3.9c-2.3-0.5-4.7-0.4-7-0.5c-3.7-0.1-5.9-2.6-5.4-6.2c0.4-3.5,3-5.8,6.5-5.9c1.5,0,2.9,0,4.4,0
		C332.3,347.1,332.3,347,332.3,346.8z"/>
	<path class="st0" d="M299,152.9c-0.5-10.1-1.3-20.8-5.4-30.9c-2-4.9-4.8-9.3-8.3-13.3c-0.3-0.3-0.4-0.8-0.5-1.3
		c0.4,0.1,0.9,0,1.3,0.2c10.4,3.1,15.7,11,19,20.6c1.6,4.6,2.2,9.4,2.2,14.2c0,1.2-0.3,2.5-0.8,3.5c-1.9,3.6-2.4,7.4-1.5,11.4
		c0.4,1.7,0,2.2-1.7,2.2c-4,0.2-4,0.2-4-3.9C299,155,299,154.3,299,152.9z"/>
	<path class="st0" d="M244.6,367.9c2.9,0.3,5.8,0.6,8.7,0.8c1.6,0.1,2,1,2,2.4c0.1,2.5-0.6,5.2,1,7.5c1.7,2.5,3.2,5.1,5.1,7.4
		c0.7,0.9,1.1,1.5,0.9,2.6c-1.9,11.7-7.5,20.9-17.9,27c-1.8,1.1-3.2,1-4.8-0.2c-5.2-3.7-8.8-8.4-11-14.4c-1.5-4.1-2.3-8.4-2.9-12.7
		c-0.3-2.2,0.2-3.8,2-5.2c2.8-2.1,5.1-4.7,6.5-8c0.6-1.5,1.2-3.2,1.4-4.8c0.2-1.7,0.9-2.3,2.6-2.3
		C240.3,368.1,242.4,368,244.6,367.9C244.6,368,244.6,368,244.6,367.9z M244,371c-5.6,0.2-5.6,0.2-7.2,4.5c-1.4,3.8-3.5,7-7.2,8.9
		c-1.4,0.7-1.6,1.8-1.4,3.1c0.8,3.7,1.4,7.5,2.6,11.1c1.7,5.4,4.7,9.9,9.7,12.9c2.5,1.6,3.1,1.6,5.4-0.2
		c7.5-5.7,11.9-13.3,13.3-22.6c0.2-1.1-0.1-1.8-1.1-2.5c-1.5-1.2-2.9-2.5-4-4c-1.8-2.4-2-5.4-2.2-8.3c-0.1-1.2-0.1-2.2-1.7-2.3
		C247.8,371.4,245.4,371.2,244,371z"/>
	<path class="st0" d="M391.5,410.3c-0.2,10.6-2,20.7-8.4,29.5c-2.6,3.6-6.1,5.9-10.1,7.5c-0.5,0.2-1.1,0.1-1.6,0.1
		c0.3-0.4,0.6-0.9,0.9-1.3c4.5-4.9,8-10.5,10.3-16.8c2.6-6.9,2.5-14.1,1.9-21.3c-0.6-6.6-1.9-13.1-5.3-18.9c-0.6-1-0.3-1.5,0.8-1.3
		c3.2,0.4,6,1.1,7.8,4.4c2.1,3.8,3.5,7.7,3.7,12.1C391.6,406.3,391.5,408.3,391.5,410.3z"/>
	<path class="st0" d="M203.4,98.3c0.2-5.8,0.5-11.6,0.7-17.4c0-1.6,0.5-2.4,2.2-2.6c2.7-0.3,5.3-0.9,7.9-1.3
		c1.1-0.2,1.9,0.1,2.3,1.4c1.8,6.4,3.6,12.9,5.4,19.3c0.4,1.3-0.5,1.4-1.5,1.6c-5.2,0.7-10.4,1.5-15.6,2.2c-1.2,0.2-1.6-0.3-1.6-1.5
		c0-0.6,0-1.1,0-1.7C203.3,98.3,203.4,98.3,203.4,98.3z"/>
	<path class="st0" d="M231.4,100.9c2.2-0.2,3.4,1,4.7,2.7c2.9,3.6,6.2,7.1,9.5,10.4c1.5,1.5,2.1,2.9,2.1,5c-0.1,4,0.1,8.1,0.1,12.1
		c0,2.2,0.9,3.5,2.9,4.4c4.7,2.1,9.3,4.4,13.9,6.7c2.2,1.1,2.3,1.3,1.4,3.6c-2.3,6.3-4.7,12.6-7,18.9c-0.4,1-0.8,2.2-1.5,3
		c-0.5,0.5-1.6,0.4-2.4,0.5c0-0.6-0.2-1.2,0-1.8c1.7-6.1,3.5-12.3,5.3-18.4c0.7-2.6,0.5-3.1-1.8-4.2c-3.9-1.9-7.9-3.8-11.9-5.5
		c-1.7-0.7-2.3-1.7-2.4-3.5c-0.3-5-0.8-10.1-1.1-15.1c-0.1-2-0.8-3.6-2.1-5.1c-3.5-3.8-6.9-7.7-10.3-11.5c-0.5-0.5-0.8-1.2-1.1-1.9
		C230.2,101.1,230.8,101,231.4,100.9z"/>
	<path class="st0" d="M361.7,166.6c0,0.6,0,1.1,0,1.7c0,1.3-0.6,1.8-1.9,1.7c-2-0.2-4-0.5-6-0.8c-6.7-0.7-13.4-1.4-20.1-2
		c-0.5-0.1-0.9-0.4-1.4-0.6c0.2-0.4,0.3-0.8,0.6-1.1c4.6-4.9,6.1-10.5,4-17c-0.1-0.4,0-0.9,0-1.3c0.5,0.1,1,0.2,1.4,0.4
		c7.4,5.2,14.8,10.5,22.2,15.8c0.8,0.6,1.1,1.9,1.6,2.9C362,166.5,361.9,166.6,361.7,166.6z"/>
	<path class="st0" d="M321,166.6c-1.6,0-3.1-0.1-4.7,0c-2.5,0.2-4.3-0.9-5.9-2.6c-4-4.2-5.3-10.8-2.9-15.9c3-6.4,7.6-9.1,14.1-9
		c6.5,0.2,11.2,4.1,13.4,10c2.5,6.6-1.1,13.6-5.2,16.4c-0.9,0.6-2,1-3.1,1.1C324.8,166.8,322.9,166.7,321,166.6
		C321,166.7,321,166.7,321,166.6z M330.7,154.2c0.2-5.7-4.9-10.8-10.8-10.8c-6-0.1-10.9,5.8-10.8,10.6c0.1,5.9,4.9,10.9,10.9,10.9
		C325.8,164.9,330.7,160,330.7,154.2z"/>
	<path class="st0" d="M368.4,324.9c-0.2,1.7-0.5,3.3-0.4,5c0,1.5-0.7,1.8-2,2c-5,0.6-9.9,1.6-14.1,4.7c-0.9,0.7-1.6,0.5-2.2-0.5
		c-0.9-1.5-1.8-3.1-2.8-4.6c-1-1.6-2.4-2.4-4.4-2.5c-5-0.1-10.1-0.5-15.1-0.7c-0.4,0-0.8-0.2-1.2-0.3c0.4-0.3,0.8-0.7,1.3-0.8
		c6.3-1,12.6-1.9,18.9-2.8c6.2-0.9,12.4-1.7,18.6-2.6C368.3,321.3,368.4,321.3,368.4,324.9z"/>
	<path class="st0" d="M270.2,387.6c-1,11.8-5.5,20.8-14.5,27.4c-0.9,0.6-1.9,1.3-3,1.5c-1.5,0.3-3.1,0.1-4.7,0.1c1-1,1.9-2.1,3-3
		c7.9-6.8,12.3-15.5,13.5-25.8c0.1-1.2-0.3-2.7-0.9-3.8c-1.5-2.6-3.1-5.1-4.7-7.7c-0.3-0.5-0.9-0.9-0.9-1.4c-0.1-1.6,0-3.2,0-4.9
		c1.5,0.3,3.1,0.5,4.5,1.1c0.5,0.2,0.8,1.3,0.8,2c0,5,1.6,9.1,5.9,12.1C270,385.7,270.1,387.2,270.2,387.6z"/>
	<path class="st0" d="M291.1,166.8c-9.5,0.4-19.1,0.8-28.6,1.1c-2.5,0.1-2.5,0-1.7-2.3c1.1-3.1,1.1-3.1,4.5-3.2
		c12.7-0.4,25.4-0.7,38.1-1.1c0.9,0,2.2,0,2.8,0.6c1.2,1.1,2.1,2.6,3.1,3.9c-0.4,0.2-0.8,0.6-1.2,0.6c-5.6,0-11.2,0-16.9,0
		C291.1,166.6,291.1,166.7,291.1,166.8z"/>
	<path class="st0" d="M324.6,137.4c-5.4-1.1-10,0.1-14.1,3.4c-1.4,1.1-1.3,0.2-1.4-0.9c-0.5-6.9-2.1-13.4-5.4-19.5
		c-0.4-0.7-0.8-1.3-1.2-2c-0.6-1.1-1.1-2.3-1.7-3.4c1,0.6,2.1,1.1,3.1,1.7c8,5.3,14.8,11.9,20.9,19.3c0.3,0.3,0.4,0.8,0.6,1.2
		C325.2,137.3,324.8,137.4,324.6,137.4z"/>
	<path class="st0" d="M183.6,545.8c-0.2,1-0.1,1.4-0.3,1.6c-4.6,6.1-5.6,13.3-6.2,20.5c-0.6,6.7-0.4,13.4,0.9,20.1
		c0.1,0.4,0.1,0.9,0.1,1.3c0.1,1.5-0.7,1.4-1.6,0.8c-2.2-1.4-3.4-3.6-4.1-5.9c-0.6-1.9-0.9-4-0.9-5.9c0.1-5.2,0.1-10.5,0.8-15.7
		c0.6-5.1,2.8-9.7,6.4-13.4C179.9,547.9,181.6,547.1,183.6,545.8z"/>
	<path class="st0" d="M228,356.9c0.6-2.3,1.3-5.1,2.1-7.8c0.2-0.6,0.6-1.3,1.1-1.6c0.6-0.5,1.5-0.8,2.2-1.1c0.2,0.5,0.5,1,0.6,1.5
		c0.1,1,0.2,2.1-1.1,2.5c-0.7,0.2-1.9,0.1-1.3,1.3c0.2,0.5,1.2,1,1.8,1c1.8,0.2,3.6,0.2,5.4,0.2c0.9,0,1.2,0.2,1.1,1.4
		c-0.3,2.9-0.4,5.8-0.3,8.6c0.1,3.1,0.2,3.2-2.9,3.3c-1.7,0-2.8,0.3-2.9,2.3c0,1,0.2,2.4-1.6,2.4c-1.5,0-2.3-1-2.5-2.3
		C229.1,364.8,228.6,361.2,228,356.9z"/>
	<path class="st0" d="M241.4,359.5c0.1-0.9,0.1-2.3,0.2-3.6c0.1-1.7,1-2.7,2.7-2.7c1.8,0,3.6,0,5.4,0.1c0.9,0,1.4,0.2,1.3,1.3
		c-0.3,3.1-0.6,6.2-0.7,9.3c-0.1,1.5-0.3,2.3-2,2.2C240.3,366,242,366.8,241.4,359.5z"/>
	<path class="st0" d="M332.2,324.3c-0.3,0-0.8-0.1-1.3-0.3c0.2-0.6,0.2-1.4,0.7-1.8c0.9-0.8,1.9-1.7,2.9-1.9
		c7.1-1.1,14.2-2,21.3-3.2c2.2-0.4,3.7,0.2,5.2,1.5c0.3,0.3,0.4,0.7,0.7,1c-0.4,0.2-0.7,0.4-1.1,0.5c-4.1,0.6-8.2,1.3-12.3,1.9
		C342.9,322.9,337.7,323.6,332.2,324.3z"/>
	<path class="st0" d="M297.3,713.9c-50,0-100.1,0-150.1,0c-2.9,0-2.9,0-2.9-2.9c0-23.2,0-46.5,0-69.8c0-0.1,0-0.2,0-0.3
		c0-3.7,0-3.7,3.7-3.7c99.7,0,199.5,0,299.2,0c0.6,0,1.1,0,1.7,0c1.5-0.1,1.9,0.7,1.9,2c0,4,0,8.1,0,12.1c0,19.9,0,39.8,0,59.6
		c0,2.8,0,2.9-3,2.9c-30.8,0-61.6,0-92.4,0C336,713.9,316.7,713.9,297.3,713.9L297.3,713.9z M202.3,669.9c0.2,0,0.4,0.1,0.6,0.1
		c0,3.8,0,7.6,0,11.3c0,0.5-0.6,1.5-0.9,1.5c-3-0.1-1.9,2-2.1,3.5c-0.2,1.8,0.7,2.1,2.2,2.1c2.7,0,5.4,0,8.1,0
		c0.9,0,2.1,0.4,2.4-1.1c0.4-2.2,0.1-3.9-1.3-4.2c-1.6-0.3-1.5-1.3-1.5-2.4c0.1-3.8,0.1-7.6,0.1-11.4c0-1.2-0.1-2.1,1.5-2.4
		c1.2-0.2,1.7-2.5,1.3-4.3c-0.3-1.4-1.4-1.2-2.4-1.2c-2.7,0-5.4,0.2-8.1,0c-2-0.1-2.8,0.8-3.4,2.5c-0.8,2.2-1.5,4.4-2.3,6.6
		c-0.1,0.4-0.5,0.7-0.8,1c-0.2-0.3-0.6-0.6-0.7-1c-1-2.5-2-5-2.9-7.5c-0.4-1-0.8-1.7-2.1-1.7c-3.2,0.1-6.5,0.1-9.8,0.1
		c-0.4,0-1,0.1-1.2,0.3c-1,1-0.4,4.6,1,5.1c1,0.4,1.5,0.8,1.5,1.9c0,4.3,0,8.5,0,12.8c0,0.5-0.4,1.5-0.9,1.5c-1.1,0.2-2,0.4-2,1.7
		c0,1,0.1,2,0.4,3c0.1,0.4,0.8,0.8,1.2,0.8c3.4,0,6.7,0,10.1-0.1c0.3,0,0.8-0.6,1-1c0.2-0.7,0.1-1.6,0.2-2.3c0.3-1.3-0.1-2-1.4-2
		c-1.5,0-1.6-0.8-1.6-1.9c0-3.1,0-6.3,0-9.4c0-0.5,0.3-0.9,0.4-1.4c0.3,0.3,0.6,0.7,0.8,1c1.2,3.2,2.4,6.5,3.6,9.7
		c0.4,1.2,1.2,1.8,2.5,1.9c1.2,0.1,1.8-0.6,2.2-1.7c0.6-1.5,1.2-2.9,1.7-4.4C200.4,674.6,201.3,672.3,202.3,669.9z M310,688.5
		L310,688.5c1.1,0,2.2,0,3.4,0c3.1-0.1,3.1-0.1,3-3.2c0-1.3-0.3-2.1-1.8-2.3c-0.5-0.1-1.1-0.7-1.3-1.3c-0.9-3.2,0.2-4.5,3.5-4.5
		c0.5,0,0.9,0,1.3,0c3.2,0,3.3,0,3.1,3.4c0,0.8-0.4,2.3-0.6,2.3c-3.1,0.2-2,2.3-2.1,4c-0.1,1.3,0.6,1.7,1.8,1.7c2.9-0.1,5.8,0,8.8,0
		c1,0,2.3,0.2,2.1-1.3c-0.1-1.4,1.2-3.4-1.1-4c-1.3-0.3-1.6-1-1.6-2.1c0-4.2,0-8.3,0.1-12.5c0-0.5,0.4-1.5,0.8-1.5
		c2.7-0.4,1.8-2.4,1.9-3.9c0.1-1.2-0.4-1.9-1.7-1.9c-3,0-6.1,0-9.1,0c-1.1,0-2.1,0.3-2,1.7s-1.1,3.4,1.3,3.8c1.3,0.2,1.6,0.8,1.5,2
		c-0.1,2.8-0.1,2.8-2.8,2.8c-0.9,0-1.8-0.1-2.7,0c-1.4,0.1-2.4-0.2-2.4-1.9c0-1.3-0.7-2.6,1.5-2.9c2.3-0.4,1.3-2.5,1.4-3.9
		c0.1-1.6-1.1-1.7-2.3-1.7c-2.6,0-5.2-0.1-7.7-0.1c-1,0-2.3-0.3-2.7,1.3c-0.5,2.1,0.1,3.6,1.5,4.5c0.5,0.3,1.1,1,1.2,1.6
		c0.1,4.4,0.1,8.8,0,13.1c0,0.4-0.4,1.2-0.7,1.3c-3.1,0.2-1.7,2.5-1.9,4c-0.2,1.1,0.5,1.6,1.6,1.6
		C306.9,688.5,308.5,688.5,310,688.5z M297.3,646.7L297.3,646.7c42.3,0,84.5,0,126.8,0c1.7,0,3.4,0.1,5.1-0.1c0.5,0,0.9-0.6,1.4-1
		c-0.5-0.3-1-0.9-1.5-1c-0.9-0.2-1.8-0.1-2.7-0.1c-12.9,0-25.9,0-38.8,0c-73.4,0-146.8,0-220.3,0c-1.1,0-3.1-0.6-3.1,0.9
		c0,2,2.1,1.1,3.2,1.1C210.7,646.7,254,646.7,297.3,646.7z M297.7,704L297.7,704c-43.4,0-86.8,0-130.2,0c-0.8,0-1.6-0.1-2.3,0.1
		c-0.4,0.1-0.7,0.7-1.1,1c0.3,0.3,0.6,0.7,0.9,0.8c0.8,0.2,1.6,0.1,2.3,0.1c8.3,0,16.6,0,25,0c78,0,156,0,234.1,0
		c0.9,0,1.8,0.1,2.7,0c0.5-0.1,1-0.6,1.5-0.9c-0.5-0.4-0.9-1-1.4-1c-1.2-0.2-2.5-0.1-3.7-0.1C382.9,704,340.3,704,297.7,704z
		 M256.8,661.3L256.8,661.3c-2.6,0-5.2,0-7.7,0.1c-0.6,0-1.6,0.3-1.7,0.6c-0.3,1.2-0.4,2.5-0.2,3.6c0.1,0.5,1.1,0.8,1.6,1.3
		c0.5,0.6,1,1.4,1,2.1c0.1,3.4,0.1,6.7,0,10.1c-0.1,1.6,1.1,4.1-2.2,4.1c-0.2,0-0.4,0.7-0.5,1.1c-0.1,0.7,0.1,1.4,0,2
		c-0.2,1.6,0.3,2.2,2,2.2c2.6-0.1,5.2,0.1,7.7,0c0.8,0,2.2-0.5,2.2-0.8c0.1-1.5-0.1-3-0.3-4.6c-3.4-1-1-3.5-1.5-5.3
		c0-0.2,0.3-0.6,0.6-0.7c1.5-0.8,4.2,0.2,4.8,1.9c0.3,1,0.3,2,0.4,3c0.2,2.1,0.4,4.2,0.6,6.2c2.2,0.1,4.5,0.2,6.7,0.2
		c0.8,0,2.2-0.5,2.2-0.8c0-1.5-0.3-3-0.5-4.5c-2.7-0.2-2-2.2-2-3.7c0-1.8,0-3.6-2-4.6c-1.1-0.6-0.3-0.8,0.2-1.3
		c2.9-2.4,3.6-4.4,2.5-7.6c-1-3.1-3-4.5-6.6-4.7C261.8,661.2,259.3,661.3,256.8,661.3z M230.1,661.2L230.1,661.2c-2.5,0-4.9,0-7.4,0
		c-0.8,0-1.6,0.1-2.2,0.5c-1.1,0.7-0.5,4.6,0.9,5.1c1.3,0.4,1.2,1,0.8,2c-1.3,4-2.4,8.1-3.7,12.2c-0.2,0.7-0.7,1.8-1.2,1.8
		c-2.5,0.2-1.8,2.1-2,3.5c-0.2,1.5,0.4,2.3,2.1,2.2c2.6-0.1,5.2,0.1,7.7,0c0.8,0,1.8-0.4,2.2-0.9c0.7-1.1,0.1-4.1-0.8-4.4
		c-1.3-0.4-1.3-1.3-0.9-2c0.3-0.7,1.1-1.4,1.8-1.5c1.3-0.2,2.7,0,4-0.1s2,0.5,2.6,1.6c0.6,1.4-0.3,1.5-1.1,2.2
		c-1.5,1.2-0.8,2.9-0.5,4.4c0.1,0.4,1.6,0.8,2.5,0.8c2.5,0.1,4.9,0.1,7.4,0c0.5,0,1.2-0.1,1.5-0.4c1-1,0.3-4.7-1-5
		c-1.2-0.2-1.4-0.9-1.6-1.8c-1.2-4.1-2.5-8.1-3.8-12.2c-0.4-1.2-0.8-1.9,1-2.4c2-0.6,1-2.7,1-4.1c0-1.5-1.4-1.4-2.6-1.3
		C234.6,661.3,232.4,661.2,230.1,661.2z M349,661.1L349,661.1c-2.5,0.1-4.9,0.1-7.4,0.1c-1.1,0-2.5-0.2-2.6,1.4
		c0,1.4-0.9,3.4,1.1,4.1c1.4,0.5,1.4,1.1,1.1,2.2c-1.3,4-2.5,8.1-3.8,12.1c-0.2,0.6-0.5,1.6-0.9,1.7c-2.6,0.4-1.9,2.2-2,3.8
		c-0.1,1.5,0.4,2,1.9,2c2.6-0.1,5.2,0,7.7-0.1c0.8,0,2.2-0.8,2.1-0.8c-0.4-1.5,1.5-3.5-0.7-4.5c-0.8-0.4-1.5-0.5-1.1-1.6
		c0.3-0.9,0.6-2,1.9-2c1.5,0,2.9,0,4.4-0.1c1.4-0.1,1.9,0.6,2.5,1.7c0.7,1.6-0.5,1.5-1.3,2c-1.6,1-0.6,2.7-0.7,4
		c0,0.4,0.8,1.1,1.3,1.1c3.1,0.1,6.3,0.1,9.4,0c0.4,0,1.1-0.5,1.1-0.9c0.1-1.2,0.2-2.5,0-3.7c-0.1-0.4-1.2-0.6-1.8-1
		c-0.3-0.2-0.6-0.6-0.7-1c-1.4-4.5-2.8-9-4.1-13.5c-0.1-0.4,0.1-1.4,0.2-1.4c2.8-0.3,1.6-2.5,1.8-3.9c0.2-1.4-0.5-2-2-2
		C354,661.2,351.5,661.1,349,661.1z M276.6,683.9L276.6,683.9c0,1.1-0.1,2.2,0,3.4c0,0.4,0.3,1.1,0.5,1.1c1.6,0.1,3.1,0,4.7,0
		c1-3,2.3-0.7,3.6-0.3c1.6,0.5,3.2,1.1,4.9,1.1c4.9,0,8.2-2.5,9.2-6.7c1.1-4.6-1-8.4-5.6-10.1c-0.8-0.3-1.7-0.5-2.6-0.7
		c-1.6-0.4-3.3-0.6-4.9-1c-1.2-0.3-2.4-1-2.1-2.5c0.3-1.7,1.7-2.2,3.1-1.8c1.2,0.3,2.3,1.2,3.3,1.9c0.9,0.6,1.7,1.7,2.6,1.8
		c4.5,0.6,4.9,0.1,4.9-4.5c0-0.9,0.2-1.8-0.1-2.7c-0.2-0.6-0.9-1.4-1.4-1.4c-2-0.2-4-0.3-5.7,1.1c-1.8-1.3-3.8-1.8-6-1.7
		c-0.3,0-0.7,0-1,0.1c-3.8,0.5-7,3.6-7.4,7.1c-0.6,4.5,1,7.2,5.2,8.9c1.1,0.5,2.4,0.7,3.5,1c1.4,0.3,2.9,0.5,4.3,0.9
		c1.3,0.4,2.7,1,2.1,2.8c-0.5,1.6-1.8,2.2-3.2,1.7c-1.5-0.5-3.3-1.2-4.2-2.4c-2-2.4-4.6-1.8-6.8-1.4c-1.8,0.3-0.5,2.7-0.9,4.2
		C276.6,683.6,276.6,683.8,276.6,683.9z M377.4,688.5L377.4,688.5c3.2,0,6.5,0,9.8,0.1c1.4,0,2.1-0.5,2.1-1.9c0-2,0-4,0-6
		c0-2.6-1.3-3.8-3.7-2.8c-0.8,0.3-1.4,1.6-1.8,2.5c-1.1,2.7-1,2.7-3.8,2.7c-0.8,0-1.6,0-2.4,0c-1.2,0-1.6-0.5-1.6-1.6
		c0-4.4,0-8.7,0.1-13.1c0-0.4,0.5-1.2,0.8-1.2c2.3-0.1,1.9-1.7,2-3.2c0-2.5,0-2.6-2.6-2.6c-2.2,0-4.5,0-6.7,0c-3.5,0-4,0.5-3.4,3.9
		c0.1,0.6,0.7,1.5,1.2,1.6c1.4,0.2,1.5,1.1,1.5,2.2c0,4,0,8.1,0,12.1c0,1.1-0.1,1.8-1.5,2.1c-2.2,0.5-1.1,2.5-1.3,3.9
		c-0.1,1.5,1,1.5,2.1,1.5C371.1,688.5,374.3,688.5,377.4,688.5z M404.2,688.5L404.2,688.5c3.1,0,6.3,0,9.4,0c1.5,0,2.3-0.4,2.2-2.1
		c-0.1-2.1,0-4.3,0-6.4c0-2.4-0.3-2.4-2.8-2.4c-2,0-2.4,1.3-2.6,2.8c-0.3,2.1-1.4,2.9-3.4,2.6c-0.7-0.1-1.4,0-2,0
		c-2.3-0.1-2.4-0.2-2.4-2.5c0-3.8,0.1-7.6,0.1-11.4c0-1.3,0.1-1.9,1.6-2.3c2-0.6,1.2-2.6,1.2-4.1c0-1.3-1.2-1.4-2.3-1.3
		c-2.8,0-5.6,0-8.4,0.1c-0.6,0-1.6,0.4-1.7,0.7c-0.2,1.2-0.3,2.5-0.1,3.7c0.1,0.5,1.1,0.8,1.6,1.3c0.4,0.4,0.9,1,0.9,1.5
		c0.1,4.4,0.1,8.8,0.1,13.1c0,0.5-0.4,1.3-0.6,1.3c-2.9-0.1-1.8,2.1-2.1,3.6c-0.3,1.8,0.6,2.1,2.1,2.1
		C397.9,688.5,401.1,688.5,404.2,688.5z M155.8,674.5c-0.1,0-0.2,0-0.3,0c0-6.2,0-12.3,0-18.5c0-0.7,0.5-1.8-0.8-1.7
		c-0.4,0-1,1.1-1.1,1.7c-0.1,1.5,0.1,3.1,0.1,4.7c0,10.5,0,21.1,0,31.6c0,1-0.6,2.7,0.9,2.7c1.4,0,1-1.7,1.1-2.7
		C155.8,686.4,155.8,680.5,155.8,674.5z M440.1,675c0-5.7,0-11.5,0-17.2c0-0.8,0.1-1.6-0.1-2.3c0-0.3-0.6-0.9-0.7-0.9
		c-0.5,0.1-1.1,0.4-1.2,0.8c-0.2,0.6-0.1,1.3-0.1,2c0,11.8,0,23.6,0,35.4c0,0.7,0.1,1.3,0.2,2c0.1,0.2,0.5,0.5,0.8,0.5
		c0.4-0.1,0.9-0.4,1-0.7c0.1-0.8,0.1-1.6,0.1-2.3C440.1,686.4,440.1,680.7,440.1,675z M439.3,652c3.4,0,5.8-2.6,5.7-6.1
		c-0.1-3-2.7-5.2-5.9-5.1c-3,0.1-5.4,2.6-5.4,5.7C433.7,649.3,436.5,652.1,439.3,652z M155.6,640.8c-3.5,0-5.8,2-5.8,5.4
		c-0.1,3.4,2.2,5.9,5.5,5.8c3,0,5.5-2.5,5.6-5.5C160.9,643.4,158.5,640.8,155.6,640.8z M439.1,710.1c3.3,0.1,5.8-2.3,5.8-5.5
		s-2.3-5.7-5.3-5.7c-3.3,0-6,2.5-6,5.5C433.5,707.2,436.3,710,439.1,710.1z M149.7,704.7c0.1,3.1,2.4,5.4,5.5,5.4s5.8-2.7,5.6-5.8
		c-0.1-2.9-2.7-5.4-5.7-5.4C152.5,698.9,149.4,701,149.7,704.7z"/>
	<path class="st0" d="M73.2,64.3c-0.1,8.6-1.6,14.9-4.4,21c-0.9,1.9-2.2,3-4.1,3.6c-8.2,2.5-16.4,2.1-24.5-0.7
		c-6.9-2.4-12.7-6.6-17.8-11.8c-2.1-2.1-2.1-2.1-0.8-4.8c2.9-6.3,3.2-12.6-0.5-18.6c-1-1.6-0.6-2.5,0.7-3.6
		c6.4-5.7,13.4-10.5,20.7-15c2-1.2,2.3-1,4.2,0.8c1.7,1.6,3.5,3.2,5.4,4.4c3.6,2.4,7.5,2.9,11.6,1.1c1.7-0.7,2.4-0.5,3.3,1.2
		C71,49.5,73.1,57.6,73.2,64.3z M69.1,67.4c0.1-7.7-1.4-14.9-4.8-21.6c-1.1-2.2-1.2-2.2-3.6-1.4c-1.5,0.5-3.1,0.8-4.6,0.7
		c-3.1-0.3-5.7-2.1-7.7-4.5c-2-2.5-2.3-2.6-5.6-0.8c-6.2,3.4-11.6,8-17.1,12.5c-2.1,1.7-2.3,1.8-0.7,4.3c2.7,4.3,2.4,8.7,0.6,13.2
		c-1.5,3.5-1.5,3.5,1.3,6c0.5,0.4,1,0.9,1.5,1.3c5.7,5,12.1,8.6,19.5,10c4.7,0.9,9.4,1,14-0.5c1.9-0.6,3.2-1.7,4.1-3.7
		C68.2,78,69.1,72.7,69.1,67.4z"/>
	<path class="st0" d="M54.9,659.7c3.3,0.5,6.6,1,10,1.4c1.5,0.2,2.6,1.1,3.4,2.4c3.1,4.7,4.7,9.9,5.2,15.4
		c0.9,9.6-1.6,18.4-6.2,26.8c-0.2,0.3-0.4,0.6-0.5,0.8c-2.3,3.8-2.3,3.7-6.7,3.2c-6.4-0.7-12.3,0.5-17.1,5.1
		c-0.8,0.8-1.4,1.6-2.8,0.5c-6.8-5.3-13.6-10.7-19.5-17.1c-2.5-2.7-2.3-2-0.3-4.9s3.4-6.1,3.6-9.6c0.2-2.6-0.5-5.1-1.8-7.4
		c-1.5-2.6-1.6-2.6,0.7-4.6c4.4-3.7,9.3-6.6,14.7-8.7C43.2,661,48.9,659.8,54.9,659.7z M55.1,663.4c-2,0.2-4.4,0.4-6.8,0.8
		c-8.2,1.6-15.5,5.2-22,10.4c-1.4,1.1-1.4,2-0.3,3.2c1.8,2,2.1,4.4,1.8,6.9c-0.3,2.5-1.4,4.7-3,6.6c-1.6,2-1.6,2.2,0.1,4.2
		c4.9,5.8,11,10.2,16.9,14.9c1.6,1.2,2.4,1.2,3.8-0.2c3.7-3.9,8.3-5,13.6-3.7c0.7,0.2,1.6,0.5,2.3,0.4c0.7-0.2,1.6-0.7,2-1.4
		c3.5-6.4,6.5-13,7.1-20.4c0.5-6.1-0.6-11.8-3.2-17.3c-1.2-2.4-2.9-3.8-5.7-3.9C59.6,664,57.6,663.6,55.1,663.4z"/>
	<path class="st0" d="M522.3,679.8c-0.2-4.7,1.7-10.9,4.4-17c0.8-1.9,2-3.1,4-3.7c10.9-3.1,21.4-2.1,31.1,3.8
		c4.4,2.7,8.1,6.3,12.1,9.5c1.1,0.9,1.3,1.6,0.5,3.1c-3.6,6.7-3.8,13.5,0.4,20.1c0.7,1.1,0.6,1.8-0.5,2.7
		c-6.8,5.8-13.9,11-21.5,15.6c-1.7,1-2.5,0.7-3.6-0.6c-1-1.2-2.2-2.2-3.4-3.2c-4.2-3.5-8.8-4.8-14.1-2.8c-1.4,0.5-2.4,0.6-3.3-1.1
		C524.7,698.4,522.3,690.4,522.3,679.8z M526.2,678c0.2,10.3,1.9,17.7,5.4,24.8c0.7,1.3,1.3,1.6,2.5,1c3.2-1.5,6.4-1.3,9.3,0.5
		c1.7,1,3.2,2.5,4.4,4c1,1.2,1.9,1.4,3.2,0.7c0.5-0.3,1-0.5,1.5-0.8c6.7-3.6,12.3-8.6,18.1-13.3c1.1-0.9,0.9-1.7,0.2-2.8
		c-3.3-4.8-3.3-9.9-0.5-14.9c1-1.8,0.7-2.8-0.6-4c-4.8-4.6-10.1-8.7-16.4-10.9c-6.4-2.2-13-3.2-19.8-1.1c-2,0.6-3.3,1.7-4.1,3.6
		C527.4,669.8,526.1,675,526.2,678z"/>
	<path class="st0" d="M521.7,63.3c0-9.7,3.7-18.1,8.7-26.1c0.7-1.1,1.4-1.4,2.8-1c7.3,2.1,13.8,0.7,19.3-4.6c1.3-1.3,2-1.2,3.3-0.1
		c6.7,5.4,13.6,10.6,19.4,17.1c1.3,1.4,1.6,2.3,0.3,3.9c-1.3,1.6-2.2,3.7-2.9,5.6c-1.7,4.6-1.6,9,1.5,13.1c0.8,1,0.7,1.7-0.2,2.5
		c-10.7,9.1-22.9,14.1-37.2,12.6c-1.2-0.1-2.4-0.6-3.6-0.6c-3.7,0-5.7-2.2-7.2-5.2C523.3,75.8,521.7,69.1,521.7,63.3z M540.6,83.2
		c2.2-0.2,4.9-0.3,7.5-0.9c7.7-1.7,14.6-5.1,20.8-9.8c1.9-1.5,2-1.5,0.5-3.7c-1.6-2.4-2.3-4.9-1.4-7.7c0.7-1.9,1.5-3.7,2.6-5.4
		c1.8-2.8,1.8-2.7-0.4-5.3c-5-5.7-11.1-10.2-17.1-14.7c-1.2-0.9-1.9-0.7-2.8,0.3c-1.2,1.2-2.5,2.3-3.9,3.1
		c-3.2,1.8-6.6,1.7-10.1,0.8c-2.8-0.7-3-0.6-4.6,1.9c-2.9,4.8-5.2,10-6.1,15.6c-1.2,7.3-0.9,14.5,2.7,21.3c1.2,2.2,2.7,3.5,5.2,3.8
		C535.6,82.7,537.8,82.9,540.6,83.2z"/>
	<path class="st0" d="M227.6,315.1c-0.3,0-0.7,0-1,0c-5.5,0.1-6-0.4-3.9-5.6c2.5-6.1,6.5-10.6,13.7-11.4c2.9-0.3,5.7-1.1,8.5-2
		c2.1-0.7,3.7-0.7,5.5,0.8c2.4,1.9,5.3,2.9,8.5,2.3c1.9-0.4,3.4-1.2,4.3-2.9c1-2.1,2.4-4.2,2.6-6.5c0.3-3.4,1.8-5.3,4.9-6.3
		c2.6-0.9,5.1-2.2,7.7-3.3c0.4-0.1,0.9,0,1.3,0c-0.1,0.5-0.1,1-0.3,1.4c-5.2,7.9-11.7,14.5-19.1,20.3c-6.5,5.1-13.6,9.1-21.5,11.5
		c-3.6,1.1-7.4,1.5-11.1,2.3C227.6,315.4,227.6,315.2,227.6,315.1z"/>
	<path class="st0" d="M196.6,211.1c5.7,0.2,9.7,2.8,12.7,7c0.2,0.3,0.3,0.8,0.5,1.2c-0.5,0.1-1,0.3-1.5,0.2
		c-2.8-0.8-5.6-0.3-8.3,0.6c-6.9,2.4-11.6,9.4-10.9,16.8c0.5,4.9,1.4,9.8,5,13.6c0.9,1,0.8,1.7-0.6,2.1c-0.2,0.1-0.4,0.1-0.6,0.2
		c-4,1.8-5.4,1.7-7.5-2.2c-1.7-3.1-3.1-6.5-3.6-10c-0.9-6-1-12.1,1.1-18c1.9-5.2,4.6-9.8,10.6-11.1
		C194.7,211.3,195.8,211.2,196.6,211.1z"/>
	<path class="st0" d="M204.6,297.4c-2,0.4-4.4-0.8-6.8-2.2c-5.8-3.4-10.6-7.7-12.5-14.3c-0.9-3.1-1-6.4-1.5-9.5
		c-0.1-0.4,0.3-0.8,0.5-1.2c0.3,0.2,0.8,0.3,1,0.6c3.1,2.7,6.2,5.4,9.4,8.1c0.8,0.6,1.7,1.2,2.6,1.5c2.7,1.1,5.1,2.9,5.9,5.7
		c0.8,3.3,2.7,5.8,4.6,8.4c0.3,0.5,0.7,0.9,1,1.4c0.6,0.9,0.6,1.4-0.7,1.4C207.2,297.4,206.3,297.4,204.6,297.4z"/>
	<path class="st0" d="M223.9,299.3c0.4,0,1.4,0.2,2.5,0.3c-0.6,0.9-1.1,1.8-1.8,2.7c-2.5,3-4.2,6.3-4.6,10.2c-0.1,1.5-0.7,2-2.2,1.4
		c-2.6-0.9-4.9-2.1-6.7-4.2c-1.3-1.5-2-3.2-1.9-5.2c0.2-3.4,1.2-4.3,4.7-4.4C216.9,299.9,220.1,299.6,223.9,299.3z"/>
	<path class="st0" d="M191.3,236.2c-0.1-9.8,7.5-17,18.9-14.2c0.9,0.2,2.4,2.5,2.3,3.4c0,0.2-0.4,0.6-0.6,0.6
		c-0.7-0.1-1.4-0.1-2-0.4c-3.6-1.8-6.8-0.2-9.8,1.5s-4.8,4.7-5.4,8.2c-0.7,4.6,0.9,8.6,3.4,12.3c0.3,0.4,0.9,0.6,1.4,0.9
		c0.6,0.4,1.1,0.9,1.7,1.3c-0.7,0.3-1.4,1-2.1,0.9c-1,0-2.2-0.3-3-0.9c-2.7-2.1-3.6-5.3-4.4-8.5
		C191.4,239.3,191.4,237.4,191.3,236.2z"/>
	<path class="st0" d="M256.9,297.7c-1.9-0.9-3.8-1.8-5.6-2.8c-0.9-0.5-0.4-1,0.2-1.4c3.8-1.9,7.6-3.8,11.3-5.7
		c0.3-0.1,0.6-0.2,0.9-0.3c0.1,0.4,0.3,0.8,0.2,1.2c-0.8,2.2-1.6,4.4-2.6,6.5C260.5,296.7,258.9,297.3,256.9,297.7z"/>
	<path class="st0" d="M216.1,262.2c-1.5,1.6-2.9,3.1-4.2,4.5c0,0-0.6-0.4-0.8-0.7c-1.1-1.6-2.2-3.3-3.2-4.9c-0.1-0.2,0.1-1,0.2-1
		c2.1,0.1,4.2,0.2,6.3,0.5C214.8,260.6,215.3,261.4,216.1,262.2z"/>
	<path class="st0" d="M206.9,236.6c-1.8,0-3.1-1.1-3-2.4c0.1-1.1,1.9-2.8,3-2.7c1.3,0,2.5,1.3,2.6,2.6
		C209.6,236,208.9,236.7,206.9,236.6z"/>
	<path class="st0" d="M272.8,202.9c13.7-0.6,24.3,11.3,24.4,24.2c0,13.7-11.6,24.4-24.2,24.5c-11.8,0.1-24.5-10-24.6-24.2
		C248.3,213.7,259.5,202.3,272.8,202.9z M274.3,246.9c9.6,0.4,17.1-7.4,17.2-16.5c0.1-10.7-9.4-16.4-15.9-16.8
		c-10.8-0.6-17.9,8.9-17.8,16.6C257.7,238.5,264.7,247.3,274.3,246.9z"/>
	<path class="st0" d="M367.6,406.7c0.2,0,0.5,0,0.7,0c4.5-0.2,4.5-0.1,6.1,3.5c1.5,3.5,1.2,5.9-1.2,8.3c-2.2,2.2-5.1,3.2-8.1,3.6
		c-6,0.8-11.4-1.3-16.8-3.6c-0.5-0.2-1-0.9-1.2-1.5c-0.8-2.1-1.4-4.2-2.1-6.3c-0.4-1.3,0-1.9,1.6-2.1c7-0.6,14-1.4,21-2.1
		C367.6,406.6,367.6,406.6,367.6,406.7z M362.1,410.2c-1.8,0.8-3.9,1.5-5.7,2.7c-1.5,0.9-1.3,1.8,0,2.9c3.2,2.5,8.5,2.5,11.8-0.1
		c1.7-1.4,1.6-3-0.5-3.8C366,411.2,364.3,410.9,362.1,410.2z"/>
	<path class="st0" d="M376,420.5c-0.6,5.8-3.4,9.8-8.4,12.3c-5.6,2.8-11.5,4.3-17.6,5.2c-1.2,0.2-1.8-0.2-1.5-1.4
		c0.9-4.4,0.5-8.7-0.1-13c-0.4-2.8-0.1-3,2.4-1.9c3.8,1.6,7.6,2.7,11.7,2.6c4.5-0.1,8.7-1.1,12-4.4c0.3-0.3,0.7-0.5,1.1-0.7
		C375.8,419.7,375.9,420.2,376,420.5z"/>
	<path class="st0" d="M213.2,113.8c0.2,0,0.4,0,0.7,0c1.6,0,3.5-0.5,4.6,0.2s1.3,2.7,1.9,4.1c2,4.7,4.7,8.4,10.3,9
		c1.8,0.2,1.6,1.5,1.6,2.8c-0.7,11.3-4.3,21.3-12.8,29.4c-4.1,4-8,4.3-13,2.2c-11.5-4.8-17.9-13.8-21.2-25.3
		c-0.4-1.4-0.2-2.5,1.3-3.4c5.3-3.1,7.2-8,7.3-13.8c0-1.7,0.6-2.4,2.2-2.7c5.7-0.9,11.5-1.9,17.2-2.8
		C213.1,113.5,213.1,113.6,213.2,113.8z M213.8,117.4c0-0.1-0.1-0.3-0.1-0.4c-5.8,1-11.7,2-17.5,3.1c-1.1,0.2-1.6,0.6-1.4,2.1
		c0.6,4.9-1.4,8.8-5.6,11.3c-1.6,1-1.9,1.9-1.1,3.5c1.7,3.6,3,7.5,5,10.9c3.8,6.2,9.3,10.5,16.5,12.5c2.1,0.6,3.9,0.3,5.6-1.2
		c8.8-7.4,12.8-17,13.6-28.2c0.1-1.7-0.2-2.7-2.3-2.8c-2.5-0.1-4.5-1.4-5.7-3.6c-0.8-1.4-1.7-3-1.9-4.6c-0.3-2.3-1.5-2.7-3.5-2.5
		C214.9,117.4,214.3,117.4,213.8,117.4z"/>
	<path class="st0" d="M243.4,373c0.4,0,0.9,0,1.3,0c4.6,0.2,4.7,0.2,5.5,4.8c0.6,3.5,2,6.5,4.9,8.5c1.7,1.3,1.9,2.6,1.5,4.6
		c-1.5,7.6-5.6,13.5-11.4,18.5c-1.5,1.3-2.7,1.1-4.2,0c-3.1-2.2-5.6-5-7-8.5c-1.6-4.1-2.5-8.6-3.7-12.9c-0.3-1.1,0.2-1.9,1.1-2.5
		c3.8-2.5,6.2-6.1,7.4-10.4C239.6,372.9,239.7,372.9,243.4,373z M233.5,392.2c0,5.4,2.5,9.9,6.9,12.2c1.2,0.6,2.8,0.9,4.1,0.7
		c4.1-0.8,8.9-6.6,9.3-10.6c0.1-1.3-0.1-2.4-1.8-2c-1.6,0.4-1.1-0.5-1.1-1.4c-0.2-2-0.6-3.9-1.1-5.9c-0.3-1.3-1.1-1.3-1.8-0.3
		c-0.3,0.4-0.5,0.7-0.8,1.1s-0.7,0.8-1,1.3c-0.2-0.5-0.4-0.9-0.6-1.3c-0.7-1.7-1.2-3.4-2-5c-0.8-1.7-1.7-1.8-3.1-0.6
		c-2.3,2.1-3.3,4.7-3.2,7.8c0.1,1.4-0.2,1.7-1.7,1c-2-0.9-2.1-0.7-2.2,1.6C233.5,391.3,233.5,391.8,233.5,392.2z"/>
	<path class="st0" d="M320,145.5c5.3,0,8.6,3.4,8.6,8.6c0,5-3.6,8.5-8.8,8.6c-4.7,0.1-8.7-3.8-8.7-8.4
		C311.2,149.1,314.9,145.5,320,145.5z"/>
	<path class="st0" d="M259.3,666.8c3.1,0.1,4,0.6,4.2,2.3c0.1,1.5-0.3,2.7-2,3c-0.4,0.1-0.9,0.2-1.3,0.1c-1-0.1-2.6-0.1-2.7-0.5
		c-0.4-1.3-0.4-2.9-0.1-4.2C257.5,667,259.1,666.9,259.3,666.8z"/>
	<path class="st0" d="M229.8,674.3c-2.4,0-2.4,0-1.9-2.1c0.4-1.4,0.8-2.8,1.2-4.1c0.1-0.3,0.4-0.5,0.7-0.7c0.2,0.3,0.5,0.5,0.6,0.8
		c0.6,1.7,1.3,3.3,1.5,5.1C232.2,675.4,230.3,673.7,229.8,674.3z"/>
	<path class="st0" d="M348.6,674.4c-2.2,0-2.3-0.1-1.6-2.1c0.5-1.7,1.5-3.3,2.2-5c0.5,1.6,1,3.1,1.5,4.7
		C351.3,674.4,351.3,674.4,348.6,674.4z"/>
	<path class="st0" d="M439.4,647.6c-1.1-0.2-2.3-0.4-3.4-0.7c-0.3-0.1-0.6-0.6-0.5-1c0.1-1.7,1.8-3.2,3.6-3.3c2-0.1,4,1.2,4.2,3
		c0.1,0.4-0.4,1.2-0.9,1.4C441.5,647.3,440.5,647.4,439.4,647.6z"/>
	<path class="st0" d="M439.1,650.5c-0.4-0.3-0.7-0.5-1.1-0.8c0.4,0,0.8,0,1.1-0.2c0.7-0.2,1.4-0.6,2-0.8c0.3-0.1,0.7-0.2,1.1-0.2
		c-0.2,0.3-0.4,0.8-0.7,1C440.7,649.9,439.9,650.1,439.1,650.5z"/>
	<path class="st0" d="M155.3,642.6c2.2,0.1,3.8,1.7,3.8,3.9c0,1.8-2.2,3.9-3.9,3.9c-0.2,0-0.4-0.2-0.5-0.3c0.1-0.1,0.2-0.4,0.4-0.4
		c0.4-0.1,1,0,1.3-0.3c0.6-0.6,1.1-1.3,1.7-2c-0.7,0-1.4,0.2-2,0.1c-1.4-0.1-2.7-0.2-4-0.5c-0.2,0-0.4-0.7-0.4-1.1
		C151.6,643.8,153.1,642.5,155.3,642.6z"/>
	<path class="st0" d="M439.7,705.8c-1.3-0.3-2.5-0.5-3.7-0.8c-0.3-0.1-0.6-0.8-0.5-1c0.7-1.1,1.3-2.5,2.3-3s2.8-0.3,3.7,0.3
		c0.9,0.6,1.2,2.2,1.7,3.3C442,705.1,440.8,705.4,439.7,705.8z"/>
	<path class="st0" d="M439.1,707.3c0.7,0.2,1.2,0.3,1.7,0.5c-0.6,0.2-1.1,0.6-1.7,0.7c-0.4,0-0.9-0.3-1.4-0.5
		C438.2,707.7,438.7,707.5,439.1,707.3z"/>
	<path class="st0" d="M155.8,705.8c-1.5-0.2-2.7-0.4-3.8-0.6c-0.2-0.1-0.5-0.7-0.5-1c0-1.5,1.3-3.1,2.7-3.4c1.8-0.4,3.5,0.2,4.3,1.7
		s1,3-0.3,4.3c-1,1-2,2.2-3.7,1.7c-0.3-0.1-0.5-0.4-0.7-0.6c0.2-0.1,0.5-0.2,0.7-0.3c1-0.4,2-0.8,2.9-1.3c0.2-0.1,0.3-0.5,0.4-0.8
		c-0.4,0-0.8-0.2-1.1-0.1C156.3,705.4,156,705.7,155.8,705.8z"/>
	<path class="st0" d="M67.5,67.4c-0.9,4.4-1.7,8.8-2.8,13.1c-0.7,2.7-2.3,4.3-5.4,4.8c-7.3,1.1-14.2,0-20.5-3.5
		c-3.9-2.2-7.3-5.1-11-7.7c-1.2-0.9-1.2-1.7-0.5-3.1c2.2-4.8,2.6-9.7-0.2-14.5c-0.8-1.4-1-2.3,0.5-3.4c5-3.6,9.9-7.3,15-10.9
		c2.6-1.8,2.6-1.5,5,0.4c2,1.6,4.2,2.9,6.4,4.1c2,1,4.2,0.9,6.2,0c1.8-0.9,2.3-0.1,2.9,1.4C65.7,54.2,67.2,60.6,67.5,67.4z
		 M41.9,70.6c-0.1,2.9,1.6,6.8,3.6,8.7c2.7,2.5,5.8,3,8.6,1.5c3.6-1.9,4.3-3.6,3.6-8c-0.4-2.1,0-2.5,2.8-2.9c3.7-0.6,5-2.5,4.1-6.1
		c-0.5-2.2-1.6-4-3.8-4.8c-1.8-0.6-3.7-0.9-5.5-1.1c-1.1-0.1-2.4,0.2-0.9-1.4c0.2-0.2,0.3-0.3,0.4-0.5c1.6-2.8,1-5.9-1.3-7.1
		c-2.3-1.2-7.1,0.5-8.1,2.9s0.3,5.2,3.4,6.3c1.8,0.6,1,0.9,0.1,1.5c-0.6,0.4-1.1,0.8-1.6,1.2C44.5,63.4,41.7,66.2,41.9,70.6z
		 M45,58.8c0-3.4-1.8-5.6-4.8-5.6c-2.8-0.1-6.2,3.5-6.2,6.4c0,2.6,2.6,5.1,5.2,5.2C42.4,64.9,45,62.2,45,58.8z M40.2,70.9
		c0.3-2.3-2.2-5.2-4.6-5.4c-2.3-0.2-5.6,2.9-5.9,5.6c-0.3,2.1,2.2,4.8,4.5,5.1C36.9,76.5,39.9,73.8,40.2,70.9z"/>
	<path class="st0" d="M55.3,665.4c1.8,0.2,3.6,0.6,5.3,0.6c3.2,0,4.8,1.8,5.8,4.6c2,5.1,2.7,10.3,1.9,15.8c-0.9,5.9-3,11.5-5.8,16.7
		c-0.7,1.3-1.2,2-3,1.6c-5.6-1.3-10.7-0.2-14.9,3.8c-0.9,0.8-1.5,0.8-2.3,0.1c-4.9-4.4-9.9-8.7-14.9-13.1c-1.4-1.2-1.6-2.3-0.4-4
		c3.2-4.4,4.2-9.1,1-14c-0.9-1.5,0.1-2.1,1-2.7c3.1-1.9,6.2-4,9.6-5.5C43.9,666.9,49.5,665.6,55.3,665.4z M53.7,690.9
		c4.3-0.1,7.4-2.4,9.7-5.8c2.5-3.8,2.1-6.8-1.2-9.9c-2.2-2-4.5-2.2-7.1-0.9c-2.4,1.2-3.1,0.9-4.1-1.5c-0.2-0.4-0.2-0.9-0.3-1.3
		c-0.7-1.7-2.6-3-4.3-2.5c-2.6,0.7-5.2,1.8-5.9,4.9c-0.4,1.8-0.4,3.8-0.2,5.6c0.1,1.4,0.6,2.7-1.6,1.6c-0.4-0.2-0.9-0.2-1.3-0.2
		c-2.5-0.1-4.2,0.7-5,2.7c-1,2.4,0.2,4.4,1.7,6.1c1.4,1.7,3,2,5.2,1.1c1.7-0.7,2.6-1.9,2.8-3.8c0.2-1.9,0.3-1.9,1.8-0.6
		c0.3,0.3,0.6,0.6,1,0.9C47.5,689,50.2,690.7,53.7,690.9z M45.3,689.8c-3.3-0.1-6,2.1-6.2,4.9c-0.2,3,2.8,5.7,6.5,5.9
		c2.6,0.1,5.4-2.4,5.4-4.9C51.1,692.7,48.4,690,45.3,689.8z M62.9,697c0-2.5-2.8-5.1-5.6-5.1c-2.6,0-5.2,2.8-5,5.7
		c0.1,2,3.6,4.5,6.1,4.3C61,701.8,62.9,699.6,62.9,697z"/>
	<path class="st0" d="M528.4,683c0-7.1,0.9-11.9,2.7-16.5c0.8-2.2,2.2-3.2,4.4-3.7c5.8-1.2,11.4-0.7,16.9,1.4
		c5.7,2.1,10.8,5.5,15.3,9.7c1.1,1,1.5,2,0.7,3.5c-2.6,4.8-2.3,9.7,0.3,14.5c0.8,1.4,0.7,2.2-0.6,3.1c-4.9,3.6-9.7,7.2-14.6,10.8
		c-0.5,0.3-1,0.6-1.4,0.9c-1.3,0.7-2.4,0.9-3.4-0.6c-0.7-1.1-1.9-1.9-3-2.7c-3-2.4-6.5-3.2-10.1-2c-1.9,0.7-2.5,0-3.2-1.6
		C529.9,694.1,528.4,687.2,528.4,683z M553.6,677.3c0.2-3.3-1.2-6.3-3.7-8.8c-1.8-1.8-4-2.8-6.7-2.1c-2.3,0.5-3.7,2-5.1,3.6
		c-1.2,1.4-0.7,2.9-0.4,4.4c0.6,2.7,0.2,3.1-2.4,3.5c-0.3,0-0.7,0.1-1,0.2c-2.9,0.5-4,2.1-3.6,5c0.6,4.3,3.1,6.4,8.1,6.9
		c0.9,0.1,1.8,0.1,2.6,0.2c-0.4,0.8-0.7,1.5-1.1,2.3c-0.9,2.1-0.5,4.6,0.9,5.9c1.4,1.3,4.3,1.3,6.7,0c2-1.1,2.7-2.5,2.2-4.8
		c-0.5-2-1.8-3.3-3.7-4c-0.4-0.1-0.7-0.3-1.1-0.4c0.3-0.3,0.6-0.6,1-0.8C550.2,685.8,553.6,682.9,553.6,677.3z M556.1,683.1
		c-2.9,0-5.5,2.7-5.5,6c0,3.1,2.1,5.8,4.8,5.9c2.5,0.1,6.1-3.7,6.2-6.6C561.6,685.7,559,683.2,556.1,683.1z M565.6,676.4
		c-0.1-2.5-2.3-4.6-4.8-4.6s-5.9,3.3-5.7,5.6s3.1,5,5.2,4.9C562.8,682.2,565.7,679,565.6,676.4z"/>
	<path class="st0" d="M540,81.1c-2.3-0.3-4.7-0.6-7-0.9c-1.6-0.2-2.5-1.2-3.2-2.6c-3.2-6.8-3.5-13.8-2-21c1-4.6,3-8.9,5.2-13.1
		c0.7-1.4,1.5-2,3.2-1.6c5.5,1.4,10.5,0.3,14.6-3.7c0.9-0.9,1.6-0.9,2.6-0.1c5,4.4,10,8.7,15,13c1.2,1,1.6,1.9,0.5,3.4
		c-3.6,4.8-4.6,9.9-1.1,15.3c0.2,0.3-0.2,1.3-0.5,1.5C560.5,76,551.2,81.3,540,81.1z M563.6,61.3c-0.1-2.6-2.5-5.6-4.7-5.9
		c-2.2-0.2-4.4,1.2-5.2,3.5c-0.2,0.7-0.4,1.4-0.6,2.2c-0.7-0.5-1.5-0.9-2.2-1.5c-0.6-0.5-1.2-1-1.9-1.4c-7-4.2-13.5-2.8-17.6,4.6
		c-1.4,2.5-1.1,4.9,0.6,7.3c2.2,3,4.7,3.7,8.5,2.3c2.9-1.1,3-1.1,3.9,1.6c1.5,4,4.3,4.9,7.9,2.5c2-1.3,3.2-3.2,3.2-5.6
		c0-1.6-0.2-3.1-0.3-4.7c-0.1-0.9,0-1.3,1-0.9c0.8,0.3,1.7,0.5,2.6,0.6C561.6,65.9,563.7,63.9,563.6,61.3z M550.7,56.8
		c2.9-0.1,5.9-2.6,5.9-5c0-3-3.7-6-7-5.9c-2.7,0.1-5.1,2.7-5,5.4C544.7,54.3,547.6,56.9,550.7,56.8z M538.1,54.7
		c2.6,0,5.2-2.4,5.3-5.1c0.1-2.2-3.1-4.9-5.9-5c-2.5-0.1-4.9,2.4-4.9,5.3C532.5,52.1,535.5,54.6,538.1,54.7z"/>
	<path class="st0" d="M274.3,244.8c-8.2,0.5-14.6-6.8-14.5-15.1c0.1-6.6,6.4-14.1,14.6-14.2c8.2,0,15,6.4,15.1,14.7
		C289.5,238.2,282.5,245.5,274.3,244.8z M287,231.5c0-6.7-5.4-12.1-12.2-12.1c-6,0-11.4,5.6-11.6,11.7c-0.2,6.6,5.6,12.2,11.7,12.3
		C281.4,243.5,286.9,238,287,231.5z"/>
	<path class="st0" d="M362.8,415.9c-0.9-0.1-1.2-0.1-1.4-0.1c-1-0.5-2-1.1-3-1.6c1-0.4,2-0.8,3-1.2c0.2-0.1,0.5-0.1,0.7-0.1
		c1.4,0.4,2.9,0.7,4.3,1.1C365,414.7,363.7,415.4,362.8,415.9z"/>
	<path class="st0" d="M213.1,119.1c3.2,0.2,3.1,0.3,4.4,3.3c1.4,3.4,3.3,6.5,7.3,7.3c2.1,0.4,2.1,1.7,1.9,3.2
		c-0.8,5-2.1,9.9-4.5,14.3c-2,3.7-4.5,6.9-7.7,9.7c-1.7,1.4-3.2,1.6-5.2,1c-6.9-2.3-11.8-6.8-15.3-13c-1.4-2.5-2.4-5.3-3.6-7.9
		c-0.5-1.1-0.4-1.9,0.6-2.6c3.9-2.6,6-6.3,6.1-11c0-1.5,1-1.9,2.2-2.1C203.8,120.7,208.5,119.9,213.1,119.1z M205.8,135.5
		L205.8,135.5c-0.5,0.5-0.9,1.1-1.4,1.6c-3.6,2.9-4.8,7.4-3.1,11.7c1.5,3.7,5.3,5.3,8.8,3.7c1.7-0.8,2.4-2.2,2.9-3.9
		c0.5-1.5,1.4-2.3,3-1.4c3.8,2.2,6.6-1.8,6.2-5.1c-0.3-2.4-1.7-4.1-3.5-5.5c-1.1-0.8-2.3-1.5-0.1-2.7c0.8-0.4,1.4-1.8,1.6-2.8
		c0.4-2-0.4-3.1-2.2-4c-2.3-1.1-4.6-0.9-6.1,0.9c-1,1.3-1.4,1.9-2.4,0c-1.1-2.2-2.7-2.6-5.1-1.9c-2.7,0.7-4.3,2.3-4.3,4.5
		c0,1,0.4,2.2,1.1,3C202.2,135.1,203.8,135.9,205.8,135.5z M201.2,137.7c0.4-3-1.9-4.6-3.7-4.6c-2.5,0-5.7,2.7-5.6,4.8
		c0,1.8,2.6,4.3,4.5,4.3C198.8,142.3,201.1,140.1,201.2,137.7z"/>
	<path class="st0" d="M235.5,393.5c-0.1-1.4,0.2-2,1.7-1.1c0.5,0.3,1,0.6,1.5,0.7c1.3,0.4,1.8-0.1,1.3-1.5c-0.8-2.4-1.1-4.8,0.2-7.1
		c0.3-0.6,1-1.1,1.5-1.6c0.4,0.5,1,1,1.2,1.5c0.5,1.9,0.9,3.9,1.4,5.8c0.1,0.5,0.3,1,0.4,1.5c0.6-0.3,1.1-0.5,1.7-0.8
		c0.1,0,0.1-0.2,0.2-0.3c0.7-0.6,1.4-1.3,2.1-1.9c0,1.1,0.1,2.1,0,3.2c-0.2,0.9-0.8,1.6-1.1,2.4c-0.2,0.6-0.2,1.2-0.3,1.9
		c0.6,0,1.2,0.1,1.8,0.1c0.4,0,0.8-0.4,1.2-0.5c0.3-0.1,0.6-0.2,0.9-0.2c0,0.4,0.1,0.8-0.1,1.1c-1.3,2.5-3.1,4.6-5.6,6
		c-1.8,1-3.3,0.9-5-0.4C237.5,400,235.8,397.1,235.5,393.5z"/>
	<path class="st0" d="M56.3,59.6c3.6,0,6.3,2.3,6.5,5.5c0.1,2-0.4,2.6-2.4,2.9c-0.2,0-0.4,0-0.7,0c-3.6,0.4-4.6,1.7-4,5.3
		c0.7,4-2.1,6.9-5.9,6.2c-0.7-0.1-1.5-0.5-2.1-0.9c-3.1-2.1-4.6-7.2-3.3-10.8C46.5,62.6,50.8,59.6,56.3,59.6z"/>
	<path class="st0" d="M50.1,56.1c-2-0.1-3-1.1-2.9-2.9c0.1-1.7,1.8-2.9,3.9-2.7c1.5,0.1,2.7,1.2,2.6,2.5
		C53.8,54.7,52.1,56.2,50.1,56.1z"/>
	<path class="st0" d="M43.1,58.8c0,2-1.9,4-3.7,4.1c-1.5,0.1-3.3-1.6-3.3-3.2c0-2.1,2.3-4.4,4.3-4.4C42.1,55.3,43.2,56.7,43.1,58.8z
		"/>
	<path class="st0" d="M34.7,74.1c-1.5-0.1-2.8-1.4-2.7-2.8c0.1-1.6,2.5-3.8,3.8-3.7c1.1,0.1,2.1,1.6,2.1,3
		C38,72.5,36.4,74.2,34.7,74.1z"/>
	<path class="st0" d="M54.2,688.7c-6.6-0.1-12.2-5.3-12.3-11.1c-0.1-2.6,0.7-4.8,3.3-6.1c2.1-1,3.1-0.6,3.9,1.5
		c0.1,0.3,0.2,0.7,0.3,1c1.1,2.9,2.9,3.7,5.8,2.5c3.4-1.4,4.9-1.1,6.7,1.3c1.4,1.9,1.1,4.8-0.8,7.1
		C59.2,687.2,56.9,688.9,54.2,688.7z"/>
	<path class="st0" d="M39.9,686.1c0.1,2-0.9,3.1-2.7,3c-1.7,0-3-1.5-3.1-3.7c-0.1-1.7,0.6-2.5,2.3-2.6
		C38.5,682.8,39.9,684.1,39.9,686.1z"/>
	<path class="st0" d="M45.6,698.5c-2.2,0-4.5-1.9-4.5-3.6c0-1.6,1.7-3,3.8-2.9c2.3,0.1,4.1,1.7,4.1,3.5
		C48.8,697.2,47.4,698.5,45.6,698.5z"/>
	<path class="st0" d="M57.7,694.1c1.9,0,3.3,1.3,3.3,3.1c0,1.7-1.1,2.7-2.7,2.7c-1.8,0-3.8-1.6-3.9-3.1
		C54.2,695.5,56.1,694,57.7,694.1z"/>
	<path class="st0" d="M539.5,688.2c-2.4-0.2-5-0.6-6.4-3.5c-1.3-2.7-0.6-4.2,2.4-4.7c4.1-0.6,5.2-1.9,4.1-5.9
		c-0.7-2.5,0.3-3.9,2-5.1c1.8-1.3,3.8-1.2,5.7-0.1c2.7,1.6,5,7.2,4.1,10C550,684.1,545.1,688.3,539.5,688.2z"/>
	<path class="st0" d="M548.2,694.6c0,1.7-1.4,2.9-3.6,3.1c-1.5,0.1-2.6-1.1-2.7-2.7c0-2,1.3-3.2,3.4-3.2
		C547.4,691.8,548.2,692.6,548.2,694.6z"/>
	<path class="st0" d="M552.5,690.1c0-3.2,1.7-5.1,3.7-5c2.7,0.2,4,2.8,2.6,5.1c-0.3,0.5-0.8,1.1-1.3,1.5c-1,0.7-1.9,2-3.2,1
		C553.3,691.9,552.8,690.6,552.5,690.1z"/>
	<path class="st0" d="M559.8,680.4c-1,0-2.4-1.9-2.4-3.3c0-1.5,1.8-3.3,3.2-3.4c1.7-0.1,2.9,1.2,2.9,2.9
		C563.5,678.2,561.3,680.4,559.8,680.4z"/>
	<path class="st0" d="M553.6,69.9c0.2,1.7-0.4,3.6-2.3,4.8c-2.1,1.5-4.1,0.9-5-1.5c0-0.1-0.1-0.2-0.1-0.3c-1.3-3.7-2.7-4.2-6.3-2.7
		c-2.7,1.2-3.7,1-5.6-0.8c-1.7-1.6-2-3.3-1.1-5.5c1.5-3.8,5-6.1,9.1-6C548.3,58.2,553.7,63.6,553.6,69.9z"/>
	<path class="st0" d="M561.6,61.3c0,1.3-1.2,2.5-2.5,2.6c-1.8,0.1-3.5-1.6-3.6-3.6c0-1.5,1.2-2.9,2.6-2.8
		C559.7,57.5,561.6,59.6,561.6,61.3z"/>
	<path class="st0" d="M550.8,54.8c-2.2,0.1-4.1-1.5-4.2-3.4c0-1.8,1.3-3.2,3.1-3.2c2,0,4.6,1.8,4.8,3.5
		C554.8,52.8,552.5,54.7,550.8,54.8z"/>
	<path class="st0" d="M538,52.5c-1.7,0.1-3.5-1.4-3.5-2.9s1.2-2.7,2.7-2.8c1.7-0.1,3.8,1.5,4,2.9C541.3,51.1,539.7,52.5,538,52.5z"
		/>
	<path class="st0" d="M279.8,228.8c0,1.3-1.5,2.6-2.9,2.5c-1.6-0.1-2.9-1.4-2.8-3c0.1-1.4,1.4-2.4,3.1-2.3
		C278.7,226,279.8,227.2,279.8,228.8z"/>
	<path class="st0" d="M212.2,136.2c2.5,0.3,4.3,1.2,6,2.6c1.4,1.2,2,2.6,1.8,4.5c-0.3,2.2-1,2.7-3.1,2.1c-4-1.1-4.7-0.9-6.1,2.8
		c-0.7,1.9-1.8,2.8-3.7,2.8s-3.1-1.1-3.9-2.7c-1.6-3.2-0.5-7.7,2.6-9.5C207.7,137.6,210,137,212.2,136.2z"/>
	<path class="st0" d="M204.6,133.4c-1.3,0.1-2.6-1.1-2.7-2.5c-0.1-1.5,1.4-2.8,3.4-3c1.4-0.1,2.4,0.3,2.6,1.9
		C208,131.6,206.5,133.4,204.6,133.4z"/>
	<path class="st0" d="M218,130.8c0,1.6-1.1,2.1-2.5,2.1c-1.5,0-2.8-1-2.8-2.3c0-1.2,1.1-2.1,2.5-2.1C217,128.5,218,129.4,218,130.8z
		"/>
	<path class="st0" d="M205.8,135.5c1.2-1.1,2.5-2.1,3.7-3.2c0.4-0.3,0.6-0.8,0.8-1.2c0.5,0.8,1.1,1.6,1.6,2.5c0.1,0.2-0.5,0.9-0.9,1
		C209.2,134.9,207.4,135.1,205.8,135.5L205.8,135.5z"/>
	<path class="st0" d="M197.3,135.2c1.2,0.1,1.8,0.8,1.8,2.2s-1.4,2.8-2.7,2.7c-1.2-0.1-2.1-0.7-2.2-2
		C194.1,136.6,195.6,135.2,197.3,135.2z"/>
</g>
</svg>
