<?xml version="1.0" encoding="utf-8"?>
<!-- Generator: Adobe Illustrator 26.0.0, SVG Export Plug-In . SVG Version: 6.00 Build 0)  -->
<svg version="1.1" id="Capa_1" xmlns="http://www.w3.org/2000/svg" xmlns:xlink="http://www.w3.org/1999/xlink" x="0px" y="0px"
	 viewBox="0 0 595.3 938.8" style="enable-background:new 0 0 595.3 938.8;" xml:space="preserve">
<style type="text/css">
	.st0{fill:#FFFFFF;}
</style>
<g>
	<path d="M340.8,449.7c20.5-10.4,43.8-8.3,66-10.6c9.3-0.7,18.6-1,27.8-1.6c10.6-1,17.4,6,22.9,14.1c4.3-2.9,7.9-5.8,13.1-6.5
		c8.2-1,22-4,26.3,5.5c20.7,44.9,39.8,90.5,57.7,136.5c7.6,19.5,14.9,39.2,22.6,58.7c1.9,4.9,1.1,8.8-1.9,12.8
		c-4.3,5.1-19.2,23-25.9,16.1c-15.7,10.4-31.3,20.7-46.9,31.3c-2.6,1.7-5,2.6-8,1.6c-2-0.6-4.2-0.5-6.2-1.1
		c-6.7-1.8-13.6-0.4-19.7,2.1c23.8,10.3,31.7,33.6,31.3,57.9c1.2,19.1-0.3,38.1-0.3,57.3c19.8-14,32.5-34.3,40-57.1
		c4.1,8,5.7,15.8,6.7,24c1.8-0.4,2.3-1.8,3.1-2.9c10.1-13.2,15.2-28.9,21.3-43.8c20,19.3,19.3,50.8,8.7,74.7
		c4.5-1.3,10.6-12.6,14.5-18.1c11,49.5-42.7,85.4-87.2,84.2c4.2,42.3-12.7,53.2-52.6,48.1c-12.6,7.5-27.7,4.6-41.6,4.2
		c-4.5-0.3-8.8-1.7-12.6-4.1c-1.4-0.9-2.8-1.1-4.4-0.9c-19.7,3.7-40.8-3.3-43.7-25.4c-7.9,1.4-15.7,2.8-23.9,4.3
		c-6.2,28.3-50.2,27.5-73.2,27.7c-8.5,0.6-11-5.7-16.2-4.1c-12.6,2.5-38,8.6-47.5-2.2c-1-1.2-2.1-1.2-3.5-1.1
		c-11.6,0.5-24.9,1.5-32.2-9.7c-26.1,10.5-54.5,12.7-81.6,5.4c-11.1-0.1-23.8,3.8-32.8-4.7c-6.5-4.5-11.3,1.5-19.5-9.8
		c-12.1-19.9-9-45.4-6.1-67.5c2.2-10.2,8.1-21,19.5-22.6c1.3-0.3,2.8-0.7,3.8-1.6c11.2-10.5,26.5-8.3,39.6-3.5
		c1.6,0.5,3.1,0.9,4.9,0.5c7.6-1.9,14.5,1.2,21.6,3.9c8.3-51.6,10.2-104,10.6-156.3c0.1-2.5-0.5-4.5-2.1-6.5
		c-8.3-11.5-17.1-26.7-12.4-41.3c1.6-4,5.3-7.2,6.6-11.3c1.6-12.7,5.9-24.7,10.6-36.5c1-2.5,1.5-4.9,1.4-7.6
		c0.4-6.8-1.1-33.1,5.4-35.3c4.7-2.3,7.4-6.6,8.9-11.5c1.2-4.8,6.6-5.3,10.6-6.9c2.1-0.5,3-1.7,3.6-3.6c3.7-11.3,6.1-16.6,18.8-18.7
		c1.3-7.7,1.1-15-0.3-22.8c-24.9,5.3-56.6,0.2-61.4-29.2c-1.4-6.6-4.4-11.5-9.1-16c-4.8-4.2-8.3-9.9-13.4-13.7
		c-11.3-6.4-17.3-19.2-21.4-31c-6.9-22-11.5-45.1-6.9-68c0.1-12.5,13.6-17.5,23.6-21c1.1-25.7-2.2-50.8-6.7-75.9
		c-18.4-1.3-37.1,0.5-55.3-3.2c-3.4-0.6-3.6-1.2-3.4-4.6c0.9-11.2,9.5-18.9,16-27.4c-42-13.5-32.9-60.6-1.4-80.5
		C49.6,77.4,78.1,74,104.8,76.2c9.5-21.1,19.9-45.2,41.2-56.6c40.8-20,88.9-25,132.8-13.5c42,11,87,25.7,113.4,62.4
		c24.3-34,60.1-56.1,100.3-65.7c15.7,31.3,20.1,67.1,19.6,101.7c-0.1,2.4-0.7,4.1-2.6,5.7c-11.7,10.7-27.2,22.3,0.4,22.9
		c-4.6,45.3-31.4,85.4-64.5,115.3c-7.8,8.3-6.2,25.4-6.1,36.2c0.3,5.2,2.4,8.9,6,12.6c10.4,10.9,17.5,25,15.9,40.4
		c-2-0.6-3.6-1.1-5.2-1.6c-0.2,0.2-0.4,0.4-0.6,0.6c12.7,16.9,16.1,39.2,10.8,59.6c-7.8-5.3-15-11.1-23.3-15.5
		c2.8,7.8,5.8,15.5,5.7,24.2c-3.9-0.6-5.9-4-9.7-5.4c1.6,8.6,2,16.9-0.4,25.7c-12.5-11.3-25.1-23.2-42.7-24.7
		c-2-0.3-3.2,0.7-4.5,1.8c-9.2,7.6-19.2,14.2-29.8,19.7c-5,2.6-10.1,4.9-15.3,7.2c-1.4,0.6-2.7,1.2-3,2.8c-1,5.5-2,11.1-2.9,16.6
		C340.2,448.9,340.4,449.2,340.8,449.7z"/>
	<path class="st0" d="M137.5,287.6c17.2,1,32.2,4.2,47.8,10.9c5.6,2.1,11.2,4.7,17.2,5c-24.8-13.6-51.3-20.4-79.7-21.7
		c12.2-25.5,4.7-59.2-7.1-83.6c3.5,13.7,7,27.4,7.5,41.8c-4.8-12.2-19.9-22.6-31-11.3c-13.2,14.3-10.3,36.2-7.8,54
		c-1.2,0.3-2.2,0.6-3.5,0.9c-1-9.6,0.2-19.2-0.1-28.9c0.2-21.6-5.8-42.6-5.3-64.2c0.9-8,8-14,14.7-17.8c1.3-0.7,3-1.8,3.2-3
		c0.6-6.2,0.9-9.8-7.1-7.6c26.2-29.8,69.5-38.9,107.1-28.9c12.5,3.1,24.9,3.4,36.8,9.1c-53.4,25.3-61.7,104.2-28.6,149
		c1.2,1.6,2.6,2.7,4.7,3.2c33.4,8.1,69,5.9,101.4-5.6c2.8-1,5-2.6,6.9-4.9c27.7-37.3,22-89.6-10.7-121.9c22.2,2.5,43.7,2.8,65.5,0
		c-1.8-11.2-4.7-22.1-7-33.2c-0.4-1.6-0.2-3,0.6-4.5C391.1,68.9,429,22.5,491.1,5c12.2,29.8,16.1,62.3,16.1,94.4
		c1.3,11.8-7.2,11.9-13.1,20.1c-9.1,11.6-1,15.6,10.2,18.7c-6.4,48.1-38.8,87.9-73.2,120c0.2,0.2,0.3,0.4,0.5,0.6
		c1.3-0.6,2.6-1.3,4.1-2c-1,11-0.9,20.5,0.4,31.5c-3.1-1.7-6.1-3.4-9-5c-0.2,0.2-0.4,0.5-0.6,0.7c4.3,4.5,8.5,9,12.8,13.5
		c-4.9-1.1-9.1-3.6-14.7-4.1c3.7,8.1,8,15.1,12.3,23.3c-4.6-1.1-8.4-2.1-13-3.2c1.3,3.2,2.2,5.7,3.4,8.5c-3.2,0.2-6,0.3-8.9,0.5
		c0,0.2-0.1,0.5-0.1,0.7c6.6,3.2,13.9,4.9,20.9,7.2c5.8,1.4,9.4,5.7,12.2,10.8c-7.1-3.3-13.8-7.3-22.3-8.6
		c4.2,9.7,9.6,18.1,14.3,27.6c-5.3-1.4-9.8-2.5-14.7-3.8c0.5,4.3,3,7.5,4,11.8c-7.9-1.6-15.7-4.3-23.7-1.9c0,0.4,0,0.7,0,1.1
		c5.4,0.6,10.9,0.8,15.8,3.4c-8.4,1-16.9,1.2-24.9,5.6c4.6,7.2,8.8,14.4,11.9,22.9c-9.3-2.1-19-4.2-27-0.2c1,1.4-0.1,2.1-1,2.8
		c-20.9,16.6-45.4,26.9-69.6,37.6c7.9-1.1,15.4-3.9,23.5-6.5c-1.9,12-3.2,23.5-1.7,35.3c-45.3,9.2-91.1,17.1-137.1,21.7
		c-1.9,0.2-3.3-0.1-4.8-1.6c-1.2-1.3-3.4-2.2-5.2-2.2c-5.9,0-12.2-0.7-17.8,1.6c0.3-8.4,0.7-16.8,1-25.6c10.5-3,21.1-6.8,30.4-13.6
		c-29.4,13.4-85.9,26.7-93.2-18.1c-2.3-10.5-11.8-15.9-17.9-24c22.1-0.5,44.3-0.3,66.3,2.4c20.5,2.4,42.2,0.9,60.1-10.2
		c22.9-13,43.6-29.6,64.1-45.6c3.4,3.4,3.7,8.4,5.7,12.7c7-13.3-11.8-31.1-25-19.5c5.6,1.8,11.8,0.5,17,4.6
		c-24.2,17.5-48,36.1-75.4,48.6c-18,8-38.3,4.9-57.4,3.9c-10.6-0.6-21.2-0.4-31.8-0.4c-1.9,0-3.2-0.3-4.3-2
		c-7.9-11.7-14-24.3-16.9-38.2c-0.5-2.5-0.2-4,2.1-5.5c16.4-11.3,29.4-27.2,39.9-43.9C139.4,305,146,295.9,137.5,287.6z
		 M470.9,180.2c0.2,0.1,0.3,0.2,0.5,0.2c24.9-46.6,21.4-103.4,7.2-152.8c-27.3,10.6-49.5,30.7-67.7,53.2
		c-21.2,22.9-59.2,107.1,6.6,70.5c-2.8,10.3-4.8,19.8-4.3,30.4c0.3,10.9,5,29.5,19.5,21.3c-4.3,10.7-1.7,21.9,11,13
		c14.7-12,22.2-29.6,27-47.5c0.3,0,0.5,0.1,0.8,0.1C471.2,172.6,471.1,176.4,470.9,180.2z M171.7,344c-0.1-3.7-5.8-3-5.3,0.4
		C166.6,347.8,171.9,347.4,171.7,344z M195.6,362.1c-0.2-3.3-5.5-3.2-5.3,0.2C190.3,366,195.9,365.7,195.6,362.1z M220.9,355.1
		c-0.1-3.4-5.4-3.2-5.3,0.1C215.6,358.9,221.1,358.8,220.9,355.1z M199.7,333.7c0.4-3.5-5.4-3.7-5.3-0.2
		C194.3,336.8,199.6,337,199.7,333.7z M166.9,324c0-3.3-5.4-3.2-5.3,0.1C161.5,327.6,167.3,327.6,166.9,324z"/>
	<path class="st0" d="M334.7,790.2c0-3.9,0-7.6,0-11.2c12.7-5.7,25.3-11.3,38.3-17.1c1.7,1.1,3.9,2.5,6,3.9c0.2-0.2,0.5-0.4,0.7-0.6
		c-4.2-6.9-9.4-13.2-13.1-20.4c-3.9-7.8-6.6-14.6-10.4-22.9c-1.5,3.9-0.1,6.9,0,10.3c-7.1,5-14.7,9.5-22.7,13.9
		c-2.5-14.1-2.2-28.6-3.8-42.8c-0.2-1.9,0.2-3.4,1.6-4.9c8.5-8.9,12.7-19.8,13.5-31.9c4.1-46.3-32.4-84.8-79.1-66.1
		c-42.5,12.3-90.3,73.7-48.4,111.1c3.2,2.5,4.3,5,3.8,9c-0.7,5.3-0.8,10.6-1.2,16.8c-42.4-30.3-53.6-86.2-61.8-134.6
		c-0.2-1.5-0.1-2.7,1.2-3.8c20-18.3,29.4-45.7,34.4-71.7c-2.1-0.8-3.8-1.5-5.6-2.2c0-0.3,0.1-0.6,0.1-0.9
		c53.8-0.1,107.1-7.4,159-22.1c5.6,10.9,11.5,21.5,20,30.5c25.1,27.5,43,60,62,91.7c2.6,3.9,2,7.5,0.4,11.8
		c-3.4-1.9-6.2-4.7-9.8-5.6c-0.2,0.3-0.5,0.6-0.7,0.9c14.1,11.7,42.2,42.8,32.1,62c-6.3,11.7-1.4,11.1-15.8,12
		c-5.8-9.7-18-30.1-29.6-32.3c1.6,2.1,3.2,4.2,5.1,6.6c-5.3,8.4-11.6,16-19,23.3c-1.6-3.2-3-6-4.4-8.7c-0.3,0-0.5,0-0.8,0.1
		c-0.5,12.2,8.6,28.3,16.5,37.7c-5,11.1-9.4,22.4-11.6,34.4c-0.3,1.7-0.9,2.8-2.6,3.6C371.6,777.8,353.5,785.9,334.7,790.2z"/>
	<path class="st0" d="M329.1,815.7c-3.3-4.4-6-7.9-9.1-12.1c-2.4,9.4-2.8,16.3-9.3,23.8c-2.1-11.8-5-22.5-10.7-32.8
		c-6.9,6.2-11.6,13.6-16.4,21.8c-1.9-5.4-3.6-10.1-5.2-14.9c-0.3,0-0.6-0.1-1-0.1c-1.5,3.1-3.1,6.2-4.8,9.6
		c-2.1-4.8-4.2-9.3-6.3-13.9c-0.3,0-0.6,0-0.9,0c-1.2,3.3-2.4,6.6-3.6,9.9c-0.3,0-0.5,0-0.8,0.1c-3.5-9.2-7.3-18.4-12.8-27.2
		c-8.8,6.1-15.4,14.1-22.2,22.5c-2.6-5-3.6-9.9-5.7-15c-0.9-2.3-1.1-4.5-0.7-6.9c3.3-19.7,5-39.5,5.8-59.4
		c1.4-17.5-1.4-35.2,0.2-52.5c11.2-28,38.9-50.6,70.2-47.8c9.8,0.6,22.3,5.3,23.9,16.5C326.8,696.4,330.1,756.1,329.1,815.7z"/>
	<path class="st0" d="M348,135.8c-44.5-19.2-91.8-26.7-138.7-37c-14.8-3-29.9-3.9-44.1-9.5c25.9-13.6,43.2-34.9,57.1-60.2
		c-6.2-1.9-10.8-1.2-8.2-9.5c-14.5-9.9-33.8-6.8-49.1-0.4c-6.3,2.9-3.7,10.6-14.5,11c-1.9,0-3.1,1-4.1,2.5c-10,14.6-14,33-5.6,49.3
		c-11.2-2-21.9-3.9-33.1-5.9c9.8-20.8,20.9-44.1,42.9-54.1c46.6-20.2,121-27.6,162.1,7.4c4.3,4,7.5,8.8,9.4,14.4
		C332.6,74.3,339.9,103.9,348,135.8z"/>
	<path class="st0" d="M494.7,841.7c-9.3-16.3-23.7-21-41.6-18.7c-2.2-5.1-4.3-10.3-6.8-16.2c-2.6,4.2-4.9,7.8-7.4,11.8
		c-10.4-6.7-21.1-6.2-32.5-1.6c-0.9-5.4-1.8-10.5-2.8-16.5c-2.4,3-4.4,5.4-6.3,7.8c-0.3-0.1-0.5-0.2-0.8-0.3
		c-0.1-5.2-1.7-10.3,0-15.7c5.2-18.7,11.4-38,12-57.3c-8.6,28.5-15.5,57.7-27.2,85.2c-0.9,2.2-2.1,3.3-4.4,3.8
		c-11.7,2-15.2,13.2-19.2,23c-7.6-2-15.4-4-23.2-6c0-15.7,0-31.1,0-46.8c17.9-5.3,35.8-10.2,52.8-18.1c1.2-0.5,2.5-1.4,3.9,0.1
		c4.2-16,9.4-31.1,17.1-45.7c13.7-27.7,53.8-27.2,73.4-6.2c21.5,20.6,11.9,86.3,13.6,116.7C495.2,841.3,494.9,841.5,494.7,841.7z"/>
	<path class="st0" d="M235,295.7c-5.6-0.6-16.7-1.9-27.7-3.1c-10.4-5.1-19.4-32.8-20.7-44.3c-5.1-38.8,7.6-87.7,47.8-102.4
		c2-0.9,3.9-0.7,6,0c15.9,5.7,32,11.1,48.7,13.8c5,0.8,8.7,3,12.1,6.4c32.4,30.1,36.1,80.4,11.3,116.5c-0.9,1.6-2.2,2.4-3.9,3
		C286.5,292.5,263.8,296.2,235,295.7z M241.7,291.2c11-0.1,49.6-4,51.8-14.4c6.8-31.3-19.3-61.6-51.1-60.2
		c-31.6,0-49.2,32.6-39,60.8C206,289,232.8,290.6,241.7,291.2z M280.6,184.4c0.3-0.2,0.5-0.4,0.8-0.6c-6.6-17.7-32.7-24.7-49.9-25.1
		c-3.8-0.2-5.1,1.6-5.1,5.4c0.3,2.8-0.3,7.9,4,7.3C248.2,169.3,265.3,175.7,280.6,184.4z"/>
	<path class="st0" d="M137,776.9c3.4,14,6.7,27.1,18.4,36.8c-0.2-5.1-0.7-9.3,1-13.9c1.4,2.7,2.5,5,4,8c1.5-3.9,2.8-7.1,4.4-11.3
		c3,8.1,6.6,14.8,12.4,20.5c9.3-5.7,16.9-13,23.3-22.4c3.3,4.5,5.8,9,7.7,13.6c0.9,2.2-1.1,6.4-3.1,7.8c-2,1.4-4.1,2.9-5.9,4.6
		c-1.4,1.3-2.6,1.7-4.5,1.1c-4.8-1.5-9.7-2-14.7-1.3c-34.1,5-34.2,73.8-26.7,99.1c-22.1,8.1-47,10.3-70.1,4.7
		c-10.9-2.3-15.8-13.4-18-23.2c-3-22.7-8.6-51.2,6-71c11.4-14.8,30.5-7.9,43.2,1.5c5.7,2.9,15.1,13.6,21.6,9.4
		c-10.5-1.3-17.6-10.9-26.1-16.6c1.6-12.8,3.3-25.8,4.9-38.7c0.3-0.1,0.5-0.1,0.8-0.2c3.1,6.8,6.2,13.6,9.3,20.4
		C127.3,795.7,130.3,786.1,137,776.9z"/>
	<path class="st0" d="M304.9,845.7c-15.5-6.5-26.8-21.5-43.7-24.2c-4.2-0.8-9.2,1.8-13,0.4c-10.7-7.1-22.6-8.7-35.1-9.2
		c1.6-7.1,3.1-14.3,4.7-21.4c3.2,5.4,4.7,11.3,6.8,17.6c6.9-9,13.5-17.7,22.6-24.9c5.9,10.2,10,20.7,13.9,31.7
		c1.6-3.8,3.2-7.5,5.1-12.2c2.1,5.6,3.9,10.3,5.9,15.6c1.7-4,3.2-7.4,5-11.6c2.7,6.1,3.5,11.7,4.9,17.9c5.4-9.7,9.1-17.9,17-25.9
		c5.5,10.8,8.1,22,9.3,34c8.1-5.4,9.9-13.9,13.3-22.1c4,3.2,7.6,10.2,7.4,15.1c-1.1,25.1-1.7,50.3-4.8,75.3
		c-1.2,10.5-5.3,20.9-16,24.5c-16.4,6.8-34.4,8.8-52,7.7c-25.8-1.1-19.9-46.6-19-64.4c2.3-22,4.4-57.7,35.9-41.1
		C283.4,834.6,293.2,842.8,304.9,845.7z"/>
	<path class="st0" d="M482.3,454.3c-4.6,4.4-9.5,8.5-14.3,12.7c-2.6,2.2-3.4,4.6-2.5,8c8.5,32.5,17.8,64.7,29,96.3
		c12.6,35.7,33,67.7,52.6,99.9c-16,10.3-31.7,20.6-47.9,31c-26.4-66.6-52.5-132.7-78.9-199.4c20.4-16.4,40.8-32.9,61.2-49.4
		C481.8,453.7,482,454,482.3,454.3z"/>
	<path class="st0" d="M405.5,498.8c18.1-14.9,36.8-29.1,55-43.9c7.4-6.7,17.1-6.4,26.3-6.3c3.1,0,5.2,1.4,6.5,4.6
		c8.4,19.2,17.2,38.3,25.4,57.5c19.1,44.5,36.6,89.5,53.7,134.8c2.6,6.8,2.5,7-2.2,12.6c-4.8,5.5-9.9,10.8-16.6,14.1
		C513.1,613.8,489,547.1,471,478.8c-2-7.1-3.1-6.1,3.6-12.5c3.3-3.2,6.7-6.3,9.9-9.6c1.3-1.3,3.1-2.9,2-4.7
		c-3.4-3.4-17.5-2.2-19.9,2.1c2.9-0.4,5.7-0.8,8.6-1.1c0.1,0.2,0.2,0.5,0.3,0.7c-18.4,15.1-37.4,29.4-56,44.3
		c-3.8,3.1-9,1.3-13.5,1.8C405.7,499.4,405.6,499.1,405.5,498.8z M498.3,561.7c4.9,11.7,9.6,23,14.5,34.7c3.5-2.6,6.4-4.8,9.4-7.1
		c-4.9-11.7-9.6-23-14.5-34.7C504.4,557.1,501.5,559.3,498.3,561.7z"/>
	<path class="st0" d="M209.8,803.7c-3.3-5.2-6.2-9.6-9.5-14.7c-5.6,10.3-13.1,17.9-22.1,24c-5-3.5-8.8-11.1-11.8-23.2
		c-3.4,2.3-4.1,6.2-6.6,10.1c-0.9-3.6-1.6-6.4-2.3-9.2c-2.7,2.3-3.5,4.6-5.4,15.4c-8.9-10.1-10.8-23.2-13.3-36.2
		c-7.2,8.1-11.7,16.8-14.4,27.5c-3.2-5.5-5-10.6-7.8-16.1c-1-2-1.3-3.9-1.1-6c3.3-36,3.8-72.1,2.8-108.3c1.8,0.5,2.5,1.8,3.3,2.8
		c13,16.5,29.7,29.3,47.9,39.5c12.6,9.8,23,22.1,36.1,31.4c2.1,1.6,3.1,3.2,3.2,5.8C208.9,765.7,210.6,784.6,209.8,803.7z"/>
	<path class="st0" d="M391.8,891.8c1.5-21.9,2.4-44.6,11-65.1c3.6-9.1,14.3-10.2,22.9-9.7c32,5.1,34.2,71.5,32.4,97
		c-1.5,23.3-28.5,19.9-45.3,18.2C392.2,930.5,390.3,908.3,391.8,891.8z"/>
	<path class="st0" d="M6.4,150.3c-8.7-25.9,12.5-50.5,35.3-60c77-30.8,154.1,20.4,225.9,43.8c26,8.9,53.5,10.4,80.7,10.3
		c5.7,0,8.7,10.9,9.8,15.9c-82.1,6.5-137.5-31.7-212.2-53.5C104.6,94.4,12.5,92.9,7.2,150.2C6.9,150.2,6.7,150.2,6.4,150.3z"/>
	<path class="st0" d="M193.2,129.1C151,117.6,98.4,128.3,76.2,169c-0.8,1.7-1.6,3.1-3.9,3.3c-123.4,12.5-53.8-120.1,121.2-43.9
		C193.4,128.6,193.3,128.8,193.2,129.1z"/>
	<path class="st0" d="M247,824.6c-17.1,14.4-20.3,87.5-8.8,106.2c-8.9,3.3-43,8-45.5-4.5c-10-32.4-8.6-69.9,8-99.9
		C211.5,811.1,232.7,816.8,247,824.6z"/>
	<path class="st0" d="M541.2,843.1c21.6-1.5,41.2-13.5,51.2-33.4c-0.4,37.1-37.1,64.9-71.3,69.9c18.4-8.9,4.1-14.5-7.4-18.6
		c4.9-3.5,22-20.7,10.4-24.2c-6.7-1.2-12.6,0-19.5,0.9c3.3-5.3,3.1-11.5,6.4-16.5c14.1-12.4,21.4-28.8,28.8-45.2
		c4.3,21.8,2.2,22.2-11.5,38.4c0.2,0.2,0.4,0.4,0.5,0.7c23.2-15.2,36-39.4,43.5-65.3c17.5,22.7,11,62.1-8.3,81.7
		c-7.6,3.7-15.2,7.5-23.1,10.7C540.9,842.4,541.1,842.8,541.2,843.1z"/>
	<path class="st0" d="M339.8,466.2c4.5,0.4,9.3,1.2,10.2,6.2c1.6,7.7,2.2,15.5,2.7,23.6c-53.3,15.6-109.7,23-165.2,22.2
		c-0.2-4.8-4.8-4.8-7.8-7.5c0.5-4.3,2.7-17.2,8.8-16.6c9.6-0.5,19.1-0.8,28.7-1.6c40.6-3.6,81.3-10.5,120.3-22.6
		C339.1,469.4,340.6,468.7,339.8,466.2z"/>
	<path class="st0" d="M457.8,929.9c9.1-12,6-26.6,6.1-40.4c-1.4-21.5-5.6-43.3-16.3-62.3c31.6-9,46.9,15.4,51.5,43.1
		c2.9,14.1,4.6,28.7,1.1,42.8C495.5,930.8,472.9,932.2,457.8,929.9z"/>
	<path class="st0" d="M221.3,711.6c-45-39.4,11.9-101.5,56.4-109.4c50.4-13.6,82.2,56.9,52,93.8c-2.9-15.2-3.9-30.5-6.1-45.8
		c1.1-11.5-0.1-22.2-10.8-28.6c-41.7-22.6-94.5,22.1-90.9,60c0.6,2.3,0.3,5,0.2,7.4C221.7,696.6,222.4,704.1,221.3,711.6z"/>
	<path class="st0" d="M389.1,71.2c-9.6,15.3-19,30.2-28.7,45.7c-0.2-2.8-0.4-5-0.5-7.2c-0.2,0-0.5-0.1-0.7-0.1
		c-4,16.7,2.4,33.5,4.3,50c-0.3,0.1-0.5,0.2-0.8,0.3c-0.5-0.6-1.2-1.2-1.4-1.8c-1.6-7-4.8-13.2-9.6-18.7c-0.9-1.1-1.3-2.8-1.6-4.3
		c-6.6-31.5-13-63.2-23.7-93.6c-2.5-7.1-6.5-13.4-12.3-18.7C333.9,26.8,376,49,389.1,71.2z"/>
	<path class="st0" d="M478.5,701.7c-4.5,1-8.6,1.8-12.7,2.7c-1.9-4-8.8-11.6-7.8-15.3c3.1-8.9-2.1-14-1.7-21.9
		c0.6-4.2,0-8.4-1.3-12.4c-5.6-14.3-13.3-43.1-29.8-47.2c-1.9-0.4-2.4-1.8-3.1-3.2c-9.4-18-19.7-35.6-31.7-52
		c-3.6-4.3-5.9-9.2-7.7-14.4c-3-9.1-6.6-17.5-9.6-26.7c8.3-0.9,16.1-2.9,23.8-6.6C424.2,570.4,451.2,635.7,478.5,701.7z"/>
	<path class="st0" d="M394,929.1c-14,3.1-33.2-2.9-36.6-18.7c-4-19.4,2.4-39.1,4.5-58.4c4-21.9,15.1-27.9,36.5-26.7
		c-4,13.3-7.9,27-9,41.1C388.1,887.2,381.2,910.4,394,929.1z"/>
	<path class="st0" d="M76.4,819.7c-17.7,10.5-20.3,32.2-19.6,51c1.5,18.9,0.1,38.8,14.2,53.3c-23.1,3.4-33.9-5.4-38.2-28
		C26.3,863.8,27.1,802.2,76.4,819.7z"/>
	<path class="st0" d="M195,825.4c-15.6,31.6-18.2,69.4-7.1,103.1c-11.7,0.8-26.2-0.4-30.6-13.1C150.1,890.4,153.1,810.6,195,825.4z"
		/>
	<path class="st0" d="M119.9,574.9c3.1,11.1,6.6,23.4,18.5,27.7c2.6,0.8,3.7,2.2,4.1,4.9c7.1,45.9,24.2,91.6,58.5,124.1
		c-27.5-22.7-49.7-51.7-71.7-79.7C107.6,621.1,107.6,609.8,119.9,574.9z"/>
	<path class="st0" d="M401.7,504.2c5.1,0,9.7,0,14.4,0c26.1,66,52.2,131.9,78.5,198.4c-4.2-0.6-11.4,0.3-12.5-3.9
		C455.2,633.9,428.3,569.2,401.7,504.2z"/>
	<path class="st0" d="M376.7,534.5c-10.1-10-19.3-20.7-25.5-33.8c2.5-1.3,5.4-2.5,4.8-5.8c-1-7.7-1.8-15.4-3.2-23
		c-0.8-6.6-7-7.8-12.7-8.1c-1.3-2.6-0.4-5.2-0.3-7.7c0-0.7,1-1.5,1.7-1.8c9.3-4.4,18.7-8,29.2-8.4c15.9-0.1,32-2.8,47.7-2.1
		c-7.9,4.7-16,9.2-23.8,14.1c-14.7,9.8-22.3,27.5-26.5,44.2c-0.8,3.8-0.6,7.5,0.8,11.2C371.8,520.2,374.4,527.3,376.7,534.5z"/>
	<path class="st0" d="M108.1,402.6c-7.3,0-13.8,0.1-20.3,0c-3.7-0.1-6.3-2.4-8.6-5c-14.2-16-17.9-38.3-21.1-58.7
		c-0.1-3.4-1.9-12.4,0-14.7c5.3,11.9,12.6,23.3,23.2,31c5.4,2.4,7.3,6.8,8.5,12.4C92.6,380.8,99.6,392,108.1,402.6z"/>
	<path class="st0" d="M199.4,101.9c43.8,8.3,87.2,18.8,130.3,30.5c6.8,2,13,4.3,18.2,9.5C295.1,144,246.1,123.9,199.4,101.9z"/>
	<path class="st0" d="M372.2,505.1c3.2-15.8,10.1-31.8,22.8-42.1c11.1-8.2,23.2-14.8,36.1-19.6c7.4-2.8,14.4,0,19.1,7.6
		c-4.2,0.4-7.9-0.7-11.2,2.3C416.6,470.7,394.8,488.1,372.2,505.1z"/>
	<path class="st0" d="M334.2,846.1c2.1,0,3.7,0.5,4.7,2.6c4.2,8.5,8.5,16.8,12.6,25.3c0.6,1.2,1,2.8,0.9,4.1
		c-0.5,7.6-1.3,15.1-2,23.2c-6.4,3.3-13.8,4.4-21.2,5.6C330.9,886.5,332.6,866.3,334.2,846.1z"/>
	<path class="st0" d="M369.3,757.9c-11.2,6.8-22.6,12.1-35,17.1c-0.4-8.6-0.7-16.6-1.1-24.6c8.2-4.4,16.2-8.8,24.6-13.3
		C360.5,744.6,363.7,751.7,369.3,757.9z"/>
	<path class="st0" d="M15.4,202.2c0.3-10.8,11.1-18.2,17.1-26.3c2.7-2,8,0.4,12,0.6c-5.2,5.9-8.5,9.8-13.5,16.1
		c13.4,1.5,26,1,38.9,2c0,2.9,0,5.4,0,8C62.4,204.9,21.1,204.7,15.4,202.2z"/>
	<path class="st0" d="M405.9,377.6c8-2.4,16.2-2.8,24.4-2.3c6.8,0.1,11.6,14.9,13.9,21.3c-6.3-4.6-11.2-9.9-18.9-10.8
		c0.3,2.4,1.9,3.3,3.1,4.3c6.6,6.1,8.6,19.6,8.1,28.3c-4.8-5.7-9.7-10.5-15.9-14.5c-1.1-0.8-2.3-1.8-3-2.9
		C413.8,393.2,409.3,385.7,405.9,377.6z"/>
	<path class="st0" d="M82.7,302.7c-5-1.1-18.4,0-19.1-4.7c-0.4-2.4,2.2-3,3.8-3.9c7.2-4.4,15.3-6,23.5-6.8
		c4.2-0.8,44.1-3.1,36.1,6.3C115.5,301.7,95.8,300.3,82.7,302.7z"/>
	<path class="st0" d="M464.3,391.6c-7.6-8.1-15.9-15.6-26-20.5c-3.7-1.7-3.1-5.8-4.5-9.4c5.6,0.6,10.1,3.8,16,3.5
		c-2.8-9.5-7.7-16.3-12.2-25.3c1.2,0.2,1.9,0.1,2.5,0.4c5.2,2.7,10.5,5.3,15.6,8.2c9.7,11.4,9.4,28.3,9.4,42.6
		C464.8,391.4,464.5,391.5,464.3,391.6z"/>
	<path class="st0" d="M173.8,512.1c-0.4,5.7,0.1,11,6.3,13.6c-5.8,26.7-15.8,57-40.2,72.2c-1.9,1.4-3.6,0.9-5.3-0.5
		c-9.6-8.1-12.4-21.6-12.5-33.6c0.2-9.7,0.9-19.4,1.4-29c0.1-2.8,1.2-4.7,3.8-6.3c4.3-2.6,7-6.7,8.6-11.4c0.7-2.2,2-3.4,4.1-4.3
		C151,508.1,162.6,507.4,173.8,512.1z M175.7,530.4c-4.5-3.8-4.8-4.7-5.3-13.6c-7.1-4.6-30.5-4.6-34.3,3.8
		c-1.6,4.8-4.2,8.7-9.2,10.6c-3.9,2.1-2.8,27.6-2.8,33c0.3,10.3,3.4,20.8,11.3,27.9c2.4,2.3,3.2,2.2,5.9,0.4
		c2.5-1.7,4.9-3.5,7.1-5.6C163.7,571.8,171.5,551.1,175.7,530.4z"/>
	<path class="st0" d="M498.9,842.1c4.3-0.9,30.5-8.6,25.7,2c-3.7,8.1-10.4,13.1-17.7,17.8c7.3,2.8,15,3.7,20.6,9.1
		c-2.8,4.4-13.5,9-21.2,9.4c-1.6-10.1-4.8-19.9-7.4-29.8C498.1,848,497.9,846.7,498.9,842.1z"/>
	<path class="st0" d="M404.8,727.6c-3.4-6.6-6.8-13.1-9.9-19.3c6.7-8.1,13.1-15.9,19.8-24c5.3,6.5,10.4,13.4,15.8,20.7
		c-1.3,1.1-2.3,2.4-3.6,3C416.4,711.8,411,719.1,404.8,727.6z"/>
	<path class="st0" d="M151.8,84.8c-4.4,0.1-7.2-1.7-9.1-5.9c-7.1-14.6-2.9-30.8,5.6-43.9c3.4-4.7,9.9,0.3,15.3-10.6
		c0.5-1.1,1.6-2.2,2.7-2.6c13.9-6.2,29.2-8.1,43.6-1.9c-1.4,5.7,0.9,9,6.1,10.6c-11.4,22.8-29.6,42.3-52.2,54.4
		c-4.1,2.6-8.1,2.3-12.1-0.3c26.8-3.5,45.2-28.7,57.7-50.5c-4.9-3.6-5.4-5.5-5.4-11.4c-9.3-5-34.9-4-41,5.1
		c-1.7,3.3-4.4,5.5-8.3,5.8c-1.3,0.1-2.1,0.6-2.8,1.7C141.9,50.5,136.9,71.1,151.8,84.8z"/>
	<path class="st0" d="M183.3,526.6c2.6,0.8,4.8,1.4,7.4,2.1c-5.1,24-13.6,49.2-31.7,66.5c-4.9,3.7-10.6,10.4-16.8,5.1
		C166.8,583.9,176.1,554.1,183.3,526.6z"/>
	<path class="st0" d="M33.7,826c-13.2,29.2-12,63.6,2.2,92C14.9,914.4,18,877.1,18.3,861C18.9,849.4,20.6,830.3,33.7,826z"/>
	<path class="st0" d="M147.6,606.1c1.8-0.8,3.4-1.6,5.5-2.6c8.5,48.8,20.5,104.7,64.1,134.3c1.1,0.7,2.7,1.1,2.2,3.7
		C174.8,711.8,155.4,656.9,147.6,606.1z"/>
	<path class="st0" d="M160.9,700.4c-19-15.6-69.9-60.1-54.7-87c6.2,34.7,34,59.9,55.5,86.2C161.4,699.8,161.1,700.1,160.9,700.4z"/>
	<path class="st0" d="M98.7,281.4c-3.7,0.4-6.8,0.7-10.3,1c-2.2-16.1-1.6-36.1,11.4-47.7c5.3-4,11.2-3.1,15.6,2.6
		C98,244,91.5,264.5,98.7,281.4z"/>
	<path class="st0" d="M452.3,455.7c-17.6,14.9-35.9,28.5-53.9,42.8c-5.4,4.2-11.9,5.7-18.6,6.7c19.6-16,40.1-31,59.8-46.9
		C443.5,455.2,447.3,455.5,452.3,455.7z"/>
	<path class="st0" d="M121.5,247.2c-1.4,0.6-2.5,1-3.8,1.6c4.7,7.1-2.4,16.4-9.6,9.5c-3.5,8.1-2.2,15.4,2.6,23
		c-3.4-0.4-6.9,1.2-9.1-1.4c-8.3-16.6,1.5-36.5,16.3-40C119,242.2,120.2,244.6,121.5,247.2z"/>
	<path class="st0" d="M34.9,191c5.2-4.7,8.9-8.2,14-12.6c0.9-0.8,2.2-1.6,3.4-1.7c6.8-0.2,13.7-1.1,20.5-0.5
		c-1,4.4-1.9,8.8-2.9,13.1C58.5,189.9,47.2,190.4,34.9,191z"/>
	<path class="st0" d="M442.5,321.1c-2.8-7.8-7-14.2-10.5-21.6c4.9,1.2,8.3,3.7,12.7,5.8c0.8,0.4,1.5,1,2.1,1.8
		c4.9,7.4,10,15.8,10.6,24.7c-7.8-3.4-15.5-6.7-23.8-8.3c-3.8-0.8-3.8-0.8-4.4-5.4C433.5,318.6,437.3,321.4,442.5,321.1z"/>
	<path class="st0" d="M451.2,660.7c-5.1-7.1-9.7-13.9-16.2-19.8c-1.5-1.4-1.9-2.7-1.7-4.8c0.6-5,1.2-10.2-0.9-15.1
		c-0.7-0.1-1.8,0.1-2-0.2c-1.6-3-2.9-6-4.6-9.6C435.5,610.6,451.1,652,451.2,660.7z"/>
	<path class="st0" d="M401.9,808c4.1,18-0.3,14.9-15.3,14c1.1-5.8,4.1-11.2,6.7-16.9c0.4,3.4,0.8,6.9,1.3,10.8
		C397.6,813.8,398.8,810.4,401.9,808z"/>
	<path class="st0" d="M153.1,505.8c2-11.5,5.9-15.6,12.8-15.5c0.6,2.8-1.9,1.7-3.2,2.6c1.3,0.6,2.4,1,3.7,1.6
		c-1.2,3.7-2.3,7.4-3.5,11.3C159.5,505.8,156.3,505.8,153.1,505.8z"/>
	<path class="st0" d="M343.5,847.7c5,1,9.1,1.9,13.6,2.8c-1,5.3-2,10.3-3.1,16.2C350.3,860.1,347.1,854.3,343.5,847.7z"/>
	<path class="st0" d="M214.4,775.6c-0.5-9.5-1.1-19-1.7-29.4c2.6,2.1,5.8,2.6,5.8,5.8c-1,7.9-2.1,15.7-3.1,23.6
		C215.1,775.6,214.7,775.6,214.4,775.6z"/>
	<path class="st0" d="M170.8,507.7c-1.7-0.3-3.1-0.6-4.4-0.9c0.3-6.6,4.1-20,12.6-17.5C174.2,494.7,172.3,501,170.8,507.7z"/>
	<path class="st0" d="M190.9,490.1c-0.2,0.2-0.3,0.5-0.5,0.5c-9.9,0.4-10.7,11.7-14.1,18.9c-1.3,0-2.8-0.2-2.4-2.3
		c1.1-5.7,2.8-11.2,7-15.5C183,489.3,188.7,487.1,190.9,490.1z"/>
	<path class="st0" d="M450.3,823.8c-1.7,0.6-2.9,1.1-4.3,1.6c-1.6-1.5-3-3-4.8-4.7c1.4-2.4,2.8-4.7,4.6-7.7
		C447.4,817,448.8,820.2,450.3,823.8z"/>
	<path class="st0" d="M455.3,695.5c2.6,3.5,3.5,6.2,5.8,10.4c-3.9-0.6-7.1-1.1-10.9-1.7C452,701.2,453.6,698.6,455.3,695.5z"/>
	<path class="st0" d="M184,523.4c-5.9-0.9-8-3.7-7-9.5C183,514.5,184.4,516.3,184,523.4z"/>
	<path class="st0" d="M506.4,826.4c-1.4,5-3.9,9.3-7.4,13.3c-0.1-9.3-1.2-8.7,6.8-13.9C506,826,506.2,826.2,506.4,826.4z"/>
	<path class="st0" d="M202.7,732.8c5.2,3.4,10.4,6.9,15.6,10.3c1.2,0.8,1.4,1.8,0.7,3C216,745,205.7,736.8,202.7,732.8z"/>
	<path class="st0" d="M475,164.5c-1.1-3.9-2.1-7.4-3.1-10.8c-0.3,0-0.5,0-0.8,0c-7.2,19.9-13.1,42.1-28.7,57.3
		c-13.9,11.9-4.9-9.3-2.9-15.8c-5.8,2.3-14.2,10-18,1.8c-6.6-16.6-2.4-34.1,0.8-51.2c-8.1,4.4-15.3,9-24.5,10.4
		c-4.6,0.7-11.5,1.6-12.2-4.7c-1.6-10.4,2.2-20.6,6.5-29.9c17.9-38.1,47.9-70.8,85-90.9C484.6,74.7,489.8,121.5,475,164.5z"/>
	<path class="st0" d="M281.9,280.2c8.7-15.4,4.8-34.4-9.8-43.9c-32-20.2-66.2,20.4-41.1,49.1c-7.3-0.4-13.2-2.3-20.2-3.4
		c-2.6-0.5-3.8-2-3.9-4.6c-0.2-6.4-0.9-12.8-0.6-19.2c8.6-54.9,89.3-35.8,84,16.9C290.6,279.8,285.7,278.6,281.9,280.2z"/>
	<path class="st0" d="M251.1,285.6c-5.1-0.4-12.9,2-16.9-1.6c-27.1-26.5,11.9-67.9,40.1-42.5c10.4,9.8,12.5,24.7,5.3,36.6
		c-1.3,2.2-2.8,3.6-5.4,4c-3.3,0.5-6.6,1.2-10,1.5c22.2-11.9,10.6-47.4-16.2-38.8c5,8.2-3.2,16.7-11.2,9.7
		c-6.6,12.2,1,27.4,14.3,30.1C251.1,285,251.1,285.3,251.1,285.6z"/>
	<path class="st0" d="M518.7,588.3c-1.6,1.2-2.9,2.2-4.7,3.6c-4.1-9.8-8.1-19.3-12.2-29.1c1.4-1.1,2.8-2.2,4.7-3.7
		C510.6,568.9,514.6,578.4,518.7,588.3z"/>
	<path class="st0" d="M167.1,519.7c1.6,11.2,7,8.7,3.9,18.7c-5.3,19.7-14.4,39.8-31.4,52.1c-7.4-5.5-8.8-14.8-9.7-23.1
		c-0.2-9.4,0.4-18.8,0.7-28.3c0.1-1.7,0.7-2.8,2.3-3.7c8.5-4.1,6.6-12.2,12.2-14C152.5,518.9,159.7,517.6,167.1,519.7z M150.7,574.6
		c9.1-3,15.4-20.7,11.2-31.3c-7.7,7.6-9.7,4.7-8.2,16.4c-0.2,0-0.5,0.1-0.7,0.1c-0.3-1.2-0.6-2.5-1-4.4c-2.4,3.9-4.4,7.2-6.4,10.5
		c-0.2-0.1-0.4-0.2-0.6-0.2c0.1-1.7,0.3-3.5,0.4-5.3c-1.8-0.1-3.4-0.2-5-0.3c0.5-3.1,2.6-0.1,3.5-1.7c-0.2-4.2,0.9-8.5-0.2-13
		c-3.4,0.6-6.6,1.1-10.1,1.7c0.7,1.6,1.3,2.7,1.8,3.8c-4,7.8-4.5,10.7-3.7,19.4c0,6.6,7,4.7,11.5,4.9c0.4-1.9,0.9-3.6,1.4-5.8
		c2.4,3.1,2.9,6.7,5.4,10C150.1,577.2,150.4,576,150.7,574.6z M138.6,536.9c2.4,2.9,4.6,5.5,6.8,8.1c1.1-1.3,1.9-2.3,2.7-3.3
		c3.7,0.8,7.3,1.5,11,2.3c2.1-5.6,4.2-10.9,6.5-16.9c-2,0.9-3.1,1.4-4.5,2c-3.1-5.2-5.8-7.5-11.7-4.7C144,526.8,142,532,138.6,536.9
		z"/>
	<path class="st0" d="M149.9,517.4c-16.7,4.3-5.5,10.5-20.9,17.5c-0.6,8.1-1.3,16.6-1.9,24.7c-0.1-4.1-0.8-25.1,3-26.6
		c8.6-4.1,6.9-12.7,12.6-14.1c2.4-0.6,4.7-1.3,7.1-2C149.7,517.1,149.8,517.2,149.9,517.4z"/>
	<path class="st0" d="M161.2,54.6c-1.3,4.5-3.8,8.5-3.8,13.2c0.3,3.8,3.2,5.9,6.8,5c4.6-1.4,8-4.8,13.4-3.5
		c-3,3.8-22.9,16.1-26.2,10.7c-11.1-12.2-5.6-29.1,2-41.6c2.5-3.9,7.7-1,11.6-8.4c5.3-7.8,28.2-9.4,36.1-4.9c0,3.7,0.6,7.6,4.6,10
		c-6.4,10.8-13.8,20.5-22.7,29.2c4.2-12.3-4.5-24.5-16.9-15.1c0.7-5-1.9-9.7-7.3-9C147.1,42.4,146.8,58.5,161.2,54.6z M182.5,32.3
		c0.3-5.8-5.1-8.1-9.3-5.3c-6.8,3.5-7.8,21.7,2.8,16.5C180.1,40.8,182.3,36.9,182.5,32.3z M181,41.5c0.1,11.7,15.5,2,15.9-4.7
		c0.7-4.3-1.8-6.8-6.1-6.2C185.7,31.4,181.3,36.3,181,41.5z"/>
	<path class="st0" d="M181.4,57.9c0,4.9-2.9,8.1-7.3,8.4c-4.6-0.4-9.8,5.7-12.8,3.3c-1.8-1.5-1-3.7-0.5-5.5
		C162.5,53.1,179.6,39.3,181.4,57.9z"/>
	<path class="st0" d="M156.9,52.4c-3,0.1-4.4-1.6-3.4-4.5c0.8-3.6,6.9-7.2,9.2-3.3C164.4,48.5,160.8,52.4,156.9,52.4z"/>
	<path class="st0" d="M159.2,561.6c-1.8,3-3.6,6-5.5,8.9c-1.1,1.6-3.9,2.1-5.2,1.2c-2.5-1.7-0.7-6,0.8-7.9c3.3-1,6.2-1.9,9.1-2.8
		C158.7,561.2,159,561.4,159.2,561.6z"/>
	<path class="st0" d="M137.3,548.5c1.5-0.2,2.8-0.4,4.5-0.6c-0.1,2.3,0.5,4.7-0.2,6.6c-4.8,2.6-4.3,8.1-7.8,11.7
		C131.7,555.4,138.2,554.9,137.3,548.5z"/>
	<path class="st0" d="M143,562.3c-0.6,4-1.1,7.1-1.5,10.5c-2.4,0-4.4,0-6.8,0c0-4,2.1-7,4.1-9.9C139.2,562.1,141.1,562.5,143,562.3z
		"/>
	<path class="st0" d="M160.6,547.7c1.5,6.8,1.1,9.9-4.5,11.2C154.5,551.9,154.3,552.2,160.6,547.7z"/>
	<path class="st0" d="M141.4,537.1c3.8-8.2,8.1-12.6,13.5-11.1c-3.2,5-6.4,10-9.9,15.4C143.8,539.8,142.7,538.5,141.4,537.1z"/>
	<path class="st0" d="M157.5,527.6c1.3,2.1,2.2,3.7,3.4,5.7c-1,2.5-2.1,5.3-3.2,8.2c-1.5-0.3-2.8-0.5-3.6-0.7
		c-0.7-2.2-1.3-4.1-2-6.3C153.3,532.2,154.7,529.6,157.5,527.6z"/>
	<path class="st0" d="M148.6,540.2c0.9-1.8,0.6-1.7,2.1-2.8C151.2,539,150.4,539.5,148.6,540.2z"/>
	<path class="st0" d="M179.6,32.7c0.3,2.9-5.7,12.8-8.4,7.1C168.5,33.6,178.5,22.7,179.6,32.7z"/>
	<path class="st0" d="M184.2,43.8c-1.9-8.9,11.7-14.5,9.7-6.7C192.7,40.9,188.6,43.8,184.2,43.8z"/>
</g>
</svg>
