<?xml version="1.0" encoding="utf-8"?>
<!-- Generator: Adobe Illustrator 26.0.0, SVG Export Plug-In . SVG Version: 6.00 Build 0)  -->
<svg version="1.1" id="Capa_1" xmlns="http://www.w3.org/2000/svg" xmlns:xlink="http://www.w3.org/1999/xlink" x="0px" y="0px"
	 viewBox="0 0 595.3 736.6" style="enable-background:new 0 0 595.3 736.6;" xml:space="preserve">
<style type="text/css">
	.st0{fill:#FFFFFF;}
</style>
<rect width="595.3" height="736.6"/>
<path class="st0" d="M595.3,736.6c-198.4,0-396.9,0-595.3,0C0,455.8,0,280.8,0,0c198.4,0,396.9,0,595.3,0
	C595.3,280.8,595.3,455.8,595.3,736.6z M434.5,437.7c1-0.3,1.8-0.7,2.6-0.8c3.5-0.8,6.3-2.5,8.9-5c5.6-5.4,10.1-11.8,13.9-18.5
	c6-10.4,10.5-21.4,12.4-33.4c0.3-1.7,0-2.7-1.3-3.7c-2-1.6-4-3.3-6-4.8c-1.1-0.8-1.3-1.5-0.9-2.9c1.3-4.1,1.5-8.4,0.5-12.6
	c-1-4.6-3.2-8.8-5.9-12.8c-5-7.4-11.2-13.6-19.2-17.6c-8.7-4.3-17.7-7.9-26.6-11.9c-8.8-4-15.6-9.8-18.4-19.5c-0.3-1-1.2-2-2.1-2.4
	c-2.1-0.9-4.3-1.6-6.5-2c-6.2-1.3-12.5-2.6-18.8-3.8c-1.3-0.2-1.6-0.9-1.7-2c-0.2-9.8-0.6-19.6-0.6-29.3c0-7.6,0.9-15.1,4-22.1
	c0.3-0.7,0.6-1.6,1.1-1.9c1.2-0.5,2.6-0.6,4-0.9c0.1,0.9,0.3,1.8,0.3,2.7c-0.2,2.6-0.6,5.2-0.8,7.8c-0.9,14.9,3.2,27.9,14.9,37.8
	c3.8,3.2,8.2,4.8,13.1,4c7.9-1.4,13.4-6.4,16.9-13.2c5.2-10.1,4.9-20.8,2-31.6c-1.9-7.3-5.4-13.8-9.7-19.9c-2.3-3.2-4.4-6.7-8.3-8.4
	c-6-2.6-12.2-4-18.7-3.9c-3.5,0-7.1,0.3-11,0.5c0.1-1,0.2-2.2,0.5-3.3c2.6-9.9,2.8-19.8,0.1-29.6c-2.6-9.8-7.8-18-16.2-24.2
	c-9.5-7-19.1-13.6-29.5-19.1c-3.1-1.7-5.3-3.7-7.2-6.6c-7.2-11-17.8-17.8-29.4-23.4c-6.7-3.3-13.9-5.1-21.2-6.6
	c-8.5-1.8-17.2-2.6-25.9-2.7c-12.6-0.2-24.9,1.8-36.7,6.3c-5.9,2.2-11.6,4.7-15.2,10.4c-3.2,5.2-5.3,10.9-6.8,16.8
	c-0.4,1.4-0.9,1.9-2.4,2c-2.6,0.3-5.4,0.5-7.8,1.6c-10,4.5-14.9,12.8-15.9,23.5c-0.2,1.8-0.7,2.4-2.5,2.5
	c-5.1,0.4-10.2,0.6-15.2,1.7c-7.9,1.8-13.8,6.2-15.4,14.8c-1.8,9.2,1.8,18.1,9.7,23.1c2.7,1.7,5.6,3.1,8.4,4.7
	c0,0.1-0.1,0.3-0.2,0.5c-0.1,0.2-0.4,0.4-0.6,0.6c-8.2,7.8-10.4,17.1-7.3,27.9c1.1,3.8,2.8,7.3,6.3,9.3c1.9,1.1,2.2,2.3,1.8,4.1
	c-1.6,7.4-3.2,14.9-4.8,22.3c-0.3,1.5-1.2,2.3-2.8,2.7c-7,1.8-13.2,5.4-17.8,10.9c-6.9,8.1-8.2,17.7-5.7,27.8
	c0.6,2.5,1.4,5.1,2.2,7.5c2.3,6.8,4,14,8.3,19.9c2.4,3.4,3.5,7,4.4,10.9c0.3,1.2,0.8,2.4,1.2,3.6c6.4,15.6,18,26,33,33.2
	c0.8,0.4,1.5,1.5,1.6,2.4c0.1,2.4-0.1,4.7-0.2,7.1c0,2,0.1,4,0.2,6c0,0.9,0.3,1.9-0.1,2.6c-6.9,12.5-11.2,25.8-12.2,40.1
	c-0.6,8.1,0.1,16,2.2,23.9c1.7,6.6,4.6,12.6,7.9,18.5c5.9,10.6,13.2,20,22.4,28c2.1,1.8,3.6,3.6,3.6,6.8s1.1,6.4,1.5,9.6
	c1,7.8,2.7,15.5,2.5,23.5c0,1.8-0.5,2.7-2.4,3.3c-6.8,2-12.3,6.1-15.2,12.7c-1.7,3.9-2.9,8.2-3.5,12.4c-0.9,6.5-0.6,13.1,2.4,19.2
	c2.7,5.5,8.7,8.1,14.5,6.4c0.6-0.2,1.6,0.1,2.1,0.5c5.6,4.2,11.7,4.9,18.2,2.4c1.9-0.7,3.5-1.6,5.4-0.2c0.4,0.3,1.2,0.2,1.8,0.2
	c9.7-0.2,19.2-1.7,28.3-5.2c2.3-0.9,5-1.5,6.2-4.2c0.9-2.1,1.8-4.2,2.6-6.4c3.8-10.5,5.4-21.5,6.6-32.6c0.7-6.2,1.2-12.5,1.9-18.7
	c0.1-1.1,0.5-1.7,1.8-1.7c5.7,0.2,11.3,0.3,17,0.6c0.8,0,1.9,0.7,2.3,1.4c3.7,6.7,7.2,13.5,10.8,20.4c0.9,1.7,0.5,2.1-1.4,2.1
	c-8.1,0.2-14.9,3.3-20.5,9.1c-7.2,7.5-10.1,16.7-9.8,26.8c0.3,7.9,3.9,14.2,11.3,17.8c0.9,0.4,1.7,1.1,2.4,1.8
	c4.8,4.5,10.2,5.8,16.6,4.2c0.9-0.2,1.9,0,2.9,0.2c2,0.4,3.9,1.3,5.8,1.4c17.2,1,34.4,0.4,51.5-1.7c3.4-0.4,6.8-1.2,10-2.3
	c4.7-1.6,7.2-5.4,8.5-9.9c1.2-4,1.8-8.1,2.5-12.2c0.3-1.9,1-2.8,2.9-3.2c7-1.3,13.4-4.4,19.3-8.5c0.9-0.6,1.6-2.1,1.6-3.2
	c0-2.8-0.4-5.5-0.7-8.2c-1-10.4-2-20.8-3.1-31.2c-0.6-6-1.6-11.9-2.4-17.8c-0.1-0.8,0.3-1.7,0.5-2.5c0.6,0.2,1.3,0.3,1.7,0.7
	c8.6,8.8,17.2,17.7,25.9,26.5c1.6,1.6,1.6,1.8-0.4,2.8c-6,3-9.6,8-11.2,14.4c-2.1,8.3-1.2,16.6,1.1,24.8c1.7,5.9,5.8,10,12.6,9.2
	c0.6-0.1,1.4,0.3,2,0.8c5.1,3.9,10.6,4.3,16.4,1.9c1.4-0.6,2.6-0.5,4,0c2.2,0.7,4.6,1.3,6.9,1.1c4.5-0.4,9-1.2,13.4-2.2
	c6.8-1.5,13.6-3.2,20.4-4.9c3.2-0.8,6.8-1.5,8.1-5.3c0.8-2.3,1.4-4.8,1.5-7.2c0.4-12.5-2.6-24.5-6.7-36.2
	c-3.8-10.5-8-20.9-12.2-31.3c-3.8-9.2-7.7-18.4-11.8-27.5c-3.9-8.7-7.9-17.3-12.2-25.8c-3.4-6.6-7.2-13-11-19.3
	C437.9,441.2,436.2,439.6,434.5,437.7z M574.9,366.6c0.1,0,0.2,0,0.2,0c0-32.2,0-64.5,0-96.8c0-48.1,0-96.2,0-144.3
	c0-17.1,0-34.1,0.1-51.2c0-1.7-0.7-2-2.1-1.4c-1.3,0.5-2.6,1.2-4,1.4c-2,0.3-2.5,1.3-2.5,3.2c0,15.4,0,30.9,0,46.3
	c0,28.9,0.1,57.8,0.1,86.6c0,22.1-0.1,44.3-0.1,66.4c0,25.4,0,50.7,0,76.1c0,21.5,0,43,0,64.6c0,20.9,0,41.8,0,62.8
	c0,27.7,0,55.3,0,83c0,30,0,60,0,90.1c0,5.7-0.5,4.4,4.3,6.1c3.9,1.4,3.9,1.4,3.9-2.7c0-29.2,0.1-58.4,0.1-87.7
	C574.9,501.6,574.9,434.1,574.9,366.6z M17.4,368.7h-0.1c0,7.8,0,15.6,0,23.5c-0.1,64.3-0.1,128.6-0.2,192.9c0,25.5,0,51-0.1,76.5
	c0,1.6,0.8,1.9,2.1,1.5c1.4-0.4,2.6-1.1,4-1.3c2-0.3,2.6-1.4,2.6-3.3c-0.1-10.2-0.1-20.4-0.1-30.6c0-22.1,0-44.3,0-66.4
	c0-29.1,0-58.3,0-87.4c0-22.3,0-44.5,0-66.8c0-30.2,0-60.5-0.1-90.7c0-29.8,0-59.5,0-89.3c0-31,0-61.9,0-92.9
	c0-18.6,0.1-37.2,0-55.9c0-0.7-0.7-1.8-1.3-2.2c-1.5-0.8-3.2-1.4-4.9-2c-1.2-0.4-2-0.2-1.9,1.3c0,1.3,0,2.7,0,4.1
	c0,48.7-0.1,97.4-0.1,146.2C17.4,273.5,17.4,321.1,17.4,368.7z M297.6,727.2c42.2,0,84.5,0,126.7,0c11.4,0,22.8,0,34.2,0
	c2.7,0,2.8-0.1,2.8-2.6c0.1-3.4,0.2-6.7,0.1-10.1c0-1.9,0.6-2.7,2.5-2.7c6.4,0.1,12.8,0,19.2,0c13.8,0,27.7,0,41.5,0
	c1.9,0,2.1-0.5,1.5-2.2c-0.5-1.5-1.1-2.9-1.4-4.4c-0.3-1.5-1-2-2.5-2c-3.9,0.1-7.8,0.1-11.7,0.1c-11.9,0-23.9,0-35.8,0
	c-3.8,0-7.7-0.1-11.5,0c-1.8,0-1.9-1.1-1.9-2.4c0-1.2,0-2.3,1.8-2c1.6,0.2,2.3-1,2.6-2.3c0.2-1.1-1.4-2.5-2.8-2.3s-1.6-0.3-1.6-1.5
	c0-4.3,0-8.6,0-13c0-12.7,0-25.4,0-38.1c0-2.3-0.4-2.7-2.8-2.6c-3.8,0-7.7,0.1-11.5,0.1c-90.4,0-180.7,0-271.1,0
	c-12.9,0-25.8-0.1-38.7-0.1c-3.6,0-3.6,0.1-3.6,3.6c0,16.5,0,33.1,0,49.6c0,0.6-0.5,1.5-1,1.8c-2.5,1.5-2.6,3.1-0.1,4.5
	c1.6,0.9,1.4,2.3,1,3.5c-0.2,0.5-1.4,1-2.2,1c-9.7,0.1-19.4,0.1-29.1,0.1c-9.4,0-18.7,0-28.1-0.1c-1.5,0-2.2,0.6-2.7,1.9
	c-0.5,1.5-1.1,2.9-1.6,4.3c-0.7,1.7-0.4,2.2,1.5,2.1c4.2,0,8.4,0,12.6,0c15.7,0,31.3,0.1,47,0.1c2.9,0,2.9,0,2.9,3
	c0,3.4,0,6.8,0,10.1c0,1.7,0.7,2.4,2.4,2.4c3.4-0.1,6.9,0,10.3,0C196.9,727.2,247.3,727.2,297.6,727.2z M297.9,24.6
	c0-0.1,0-0.1,0-0.2c-32.6,0-65.2,0-97.8,0c-34.1,0-68.3,0.1-102.4,0.1c-8.8,0-17.7,0-26.5-0.1c-1.7,0-2.1,0.5-1.5,2
	c0.6,1.6,1.2,3.1,1.6,4.8c0.3,1.3,1,1.7,2.3,1.7c7.9,0,15.9,0,23.9,0c11.7,0,23.3,0.1,35,0.1c7.1,0,14.1-0.2,21.2-0.2
	c6.4,0,12.8,0.2,19.2,0.2c9.4,0,18.8-0.1,28.1-0.1c11.8,0,23.6,0.1,35.4,0.1c8.6,0,17.3-0.1,25.9-0.1c10.2,0,20.5,0.1,30.7,0.1
	c8.4,0,16.9-0.1,25.3-0.1c11.4,0,22.8,0.1,34.2,0.1c14.4,0,28.9-0.2,43.3-0.2c17.5,0,35,0.1,52.6,0.1c14.7,0,29.4-0.1,44.1-0.1
	c9.8,0,19.5,0,29.3,0.1c1.6,0,2.5-0.5,2.9-2.1c0.4-1.5,1-2.9,1.6-4.3c0.6-1.5,0.1-2-1.4-1.9c-0.5,0-0.9,0.1-1.4,0.1
	c-20.2,0-40.5,0.1-60.7,0.1c-27.7,0-55.5-0.2-83.2-0.2C352.3,24.6,325.1,24.6,297.9,24.6z M552.8,661.3c-4.9-0.1-9.7,0.5-14.2,2.5
	c-1.3,0.5-2.6,1.5-3.3,2.7c-3.5,6.6-5.7,13.7-5.9,21.2c-0.3,11.1,2.4,21.3,8,30.9c1.1,1.8,2.1,2.1,4,1.2c4.3-2.2,8.5-2,12.4,0.8
	c2,1.4,3.7,3.3,5.4,5.1c1.6,1.7,2.5,2.1,4.5,1c1.8-1,3.8-1.9,5.4-3.1c7.1-5.2,14.1-10.6,21.1-15.9c1.5-1.1,1.3-2.4,0.2-3.8
	c-4.2-5.7-4.8-12.2-1.6-18.1c2.2-4,1.4-6.1-1.5-8.9C577.7,667.4,566.8,661,552.8,661.3z M551.2,71.4c3.6-0.4,6.7-0.5,9.7-1.1
	c10.6-2,19.9-6.7,27.7-14.1c2.2-2.1,2.3-2.5,0.5-4.8c-2.3-3-3.7-6.4-2.3-10.2c0.9-2.5,2.2-4.9,3.7-7.1c2.4-3.7,2.6-3.6-0.4-7
	c-7-7.9-15.3-14.2-23.7-20.5c-1.4-1.1-2.5-0.8-3.6,0.6c-5.1,6-11.9,7.9-19.3,5.4c-2.8-0.9-3.3-0.8-4.9,1.8
	c-3.8,5.8-6.9,11.9-8.6,18.6c-2.9,11.4-1.3,22.2,4.3,32.5c1.2,2.3,3,3.9,5.7,4.3C544,70.2,547.8,70.9,551.2,71.4z M67.4,690.9
	c0.1-4.8-1.1-11-3.5-17.1c-2.3-5.6-5.7-9.4-12.2-9.3c-0.1,0-0.1,0-0.2,0c-17.2-2.3-31.9,3.2-44.5,14.8c-1.8,1.7-1.8,2.3-0.2,4.2
	c2,2.4,3.1,5,2.9,8.2c-0.3,3.9-2.2,7.2-4.6,10.2c-1.9,2.5-1.8,3.2,0.3,5.6c6.8,7.8,15,14.2,23.2,20.4c2.3,1.8,3.1,1.6,5.1-0.6
	c2.3-2.6,5.1-4.4,8.5-5.1c3.7-0.8,7.4-0.7,11,0.6c1.3,0.5,2.5,0.7,3.5-0.8C62.7,713.1,66.9,703.5,67.4,690.9z M43.6,75.2
	c4.8,0.3,10-0.8,14.9-3c0.9-0.4,1.7-1.3,2.2-2.1c3.3-5.8,4.9-12,5.8-18.6c0.7-5.5,0.2-10.9-0.9-16.3c-1.2-6-3.3-11.6-6.6-16.9
	c-1.4-2.2-2.1-2.5-4.5-1.4c-3.3,1.5-6.5,1.8-10,0.2c-3.2-1.5-5.4-3.9-7.7-6.4c-1.3-1.4-2.5-1.9-4.2-0.9c-3.8,2.4-7.8,4.5-11.5,7.1
	C15.9,20.7,11,24.8,6,28.8C4.5,30,4.4,31,5.6,32.7c1.3,1.9,2.5,4,3.1,6.3c1.4,5,0.2,9.7-2.4,13.9c-1.1,1.8-0.9,3,0.4,4.5
	C16.5,68.1,28,75,43.6,75.2z M321.9,41.1c1.1-1.5,2.2-2.4,2.4-3.4c0.2-1.3-0.9-2.3-2.3-2.3c-1.5,0-2.6,1-2.4,2.4
	C319.8,38.7,320.8,39.6,321.9,41.1z M401.1,40.2c0.5-0.7,1.6-1.5,1.9-2.5c0.3-1.4-1-2.4-2.2-2.2c-0.9,0.2-2.2,1.2-2.5,2
	C397.8,38.9,399,39.8,401.1,40.2z M230.4,38.1c0-0.3,0-0.6,0-0.9c-0.9-0.6-1.8-1.5-2.7-1.7c-1.6-0.3-2.5,1-2.2,2.3
	c0.2,0.9,1.5,2.2,2.2,2.2C228.6,40,229.5,38.8,230.4,38.1z M478.8,40.6c0.3,0,0.6,0,0.9,0c0.6-1,1.8-1.9,1.8-2.9
	c0-0.8-1.3-2-2.2-2.2c-1.5-0.3-2.5,1-2.3,2.3C477,38.7,478.1,39.6,478.8,40.6z M195.8,35.4c-1.1,0.1-2.1,1-1.8,2.4
	c0.2,0.9,1.5,2.1,2.3,2.1s2.1-1.3,2.3-2.2C198.9,36.4,197.8,35.4,195.8,35.4z M293.2,38.4c-0.4-2-1.2-3.2-2.6-2.9
	c-0.9,0.2-1.7,1.4-2.5,2.1c0.8,0.8,1.5,2.2,2.3,2.2C291.3,39.9,292.3,38.9,293.2,38.4z M106.6,37.9c1.5,1.1,2.5,2.4,3.2,2.2
	c1-0.3,2.1-1.5,2.3-2.5c0.3-1.4-1.1-2.3-2.3-2.1C108.8,35.7,108,36.7,106.6,37.9z M407.9,40.2c2-0.4,3-1.1,2.9-2.7
	c-0.1-1.7-1.3-2.2-2.7-2.1c-1.5,0.1-2.2,1.2-1.9,2.5C406.5,38.9,407.4,39.6,407.9,40.2z M429.5,38.2c0.6,0.6,1.5,2,2.2,1.9
	c1-0.1,2.3-1.2,2.6-2.2c0.2-0.6-1.1-2.1-2-2.4C430.8,34.9,430.1,36.2,429.5,38.2z M167.3,38.4c-0.4-2-1.2-2.9-2.7-2.9
	s-2.3,1.2-2.1,2.4c0.2,0.9,1.4,2.2,2.2,2.2C165.6,40.1,166.6,38.9,167.3,38.4z M32,448.5c-1.9,0.3-2.8,0.9-3,2.4
	c-0.1,1.4,1.1,2.6,2.5,2.6c1.7-0.1,2.3-1.3,2.1-2.6C33.5,450,32.6,449.2,32,448.5z M510,694.1c-0.5,0.7-1.5,1.5-1.7,2.5
	c-0.2,1.4,1,2.5,2.4,2.3c0.9-0.2,2-1.3,2.2-2.2C513.3,695.2,512,694.5,510,694.1z M558.8,647.7c0.8,0.7,1.6,1.8,2.5,1.9
	c1.4,0.2,2.4-0.9,2.4-2.4s-0.8-2.4-2.4-2.4C559.8,644.8,559.3,645.9,558.8,647.7z M486.3,699c2.2-0.1,3.3-1,3-2.4
	c-0.2-0.9-1.4-2.1-2.3-2.3c-1.5-0.3-2.4,1.1-2.2,2.4C484.9,697.7,485.9,698.4,486.3,699z M206.6,38.4c-0.2-2.1-1.1-3-2.6-3
	c-1.4,0-2.4,1.1-2.1,2.4c0.2,0.9,1.4,2.2,2.2,2.3C205,40.1,205.9,38.9,206.6,38.4z M112.2,696c-0.5-0.4-1.3-1.5-2.2-1.7
	c-1.4-0.3-2.2,0.8-2.4,2.1c-0.2,1.5,0.8,2.3,2.1,2.5C111.1,699.1,112,698.3,112.2,696z M33.8,513.1c-0.6-0.5-1.5-1.7-2.3-1.6
	c-0.9,0.1-2.1,1.3-2.3,2.2c-0.4,1.4,0.6,2.4,2.2,2.5C33,516.2,33.5,515.1,33.8,513.1z M267.6,35.3c-2.2,0.3-3.2,1.3-2.9,2.6
	c0.2,0.8,1.6,2,2.4,2c0.8-0.1,2-1.4,2.1-2.3C269.3,36.8,268.1,35.9,267.6,35.3z M482.5,696.4c-1.5-1-2.3-1.8-3.3-2.1
	s-2.5,1.4-2.4,2.5c0.2,1.5,1.3,2.4,2.7,2.1C480.4,698.7,481.1,697.5,482.5,696.4z M509.9,35.2c-0.5,0.7-1.6,1.7-1.5,2.5
	c0.1,0.9,1.3,2.1,2.2,2.2c1.3,0.2,2.4-0.8,2.4-2.3C513,36.1,511.8,35.6,509.9,35.2z M99.5,38.4c0.7,0.5,1.6,1.7,2.6,1.7
	c0.8,0,1.9-1.4,2.1-2.4c0.2-1.3-0.7-2.3-2.2-2.3C100.4,35.4,99.6,36.2,99.5,38.4z M159.4,37.1c-0.6-0.5-1.5-1.5-2.4-1.7
	c-1.4-0.2-2.6,1-2.3,2.3c0.1,0.8,1.3,2,2.1,2.2C158.1,40.3,159.1,39.2,159.4,37.1z M191.1,38.2c0-0.3,0-0.6,0-0.9
	c-0.9-0.6-1.7-1.5-2.7-1.8c-1.3-0.3-2.8,1.1-2.3,2.3c0.3,0.9,1.5,2.1,2.3,2.2C189.2,40.1,190.2,38.9,191.1,38.2z M34.6,552.9
	c-1.4-1-2.2-1.9-3-2.1c-1.5-0.3-2.4,0.8-2.6,2.2c-0.2,1.1,1.4,2.7,2.5,2.3C32.5,555,33.2,554,34.6,552.9z M219.8,40
	c1.5-0.1,2.4-0.9,2.4-2.4s-1.1-2.1-2.4-2.2c-1.5-0.1-2.1,0.8-2.2,2.3C217.5,39.3,218.4,39.8,219.8,40z M258.6,40.4
	c0.3,0,0.6,0,0.9,0c0.7-0.8,1.7-1.6,1.9-2.6c0.3-1.5-0.9-2.3-2.3-2.4c-1.4,0-2.4,1-2.2,2.3C257,38.6,258,39.5,258.6,40.4z
	 M30.5,574.3c-0.3,0.5-1.2,1.4-1.4,2.3c-0.2,1.6,1,2.2,2.4,2.2c1.5,0,2.1-0.9,2.1-2.3C33.6,575,32.8,574.3,30.5,574.3z M495.6,694.1
	c-2,0.4-3.1,1.1-3,2.6c0.1,1.4,1,2.2,2.4,2.2c1.6-0.1,2.4-1.2,2.2-2.6C497.1,695.4,496.1,694.7,495.6,694.1z M133.8,35.1
	c-1.8,0.3-3.2,1.5-2.9,2.7c0.4,1,1.5,1.7,2.2,2.5c0.8-0.9,2-1.7,2.4-2.8C135.8,36.9,134.5,35.9,133.8,35.1z M300.8,38.4
	c0-2.2-0.9-2.9-2.3-2.9c-1.6,0-2.4,0.9-2.4,2.4s1.1,2.3,2.4,2.1C299.4,39.8,300.2,38.8,300.8,38.4z M33.8,239.7
	c-0.2-2.1-0.8-3.4-2.3-3.1c-0.9,0.2-1.9,1.3-2.3,2.3c-0.4,1.1,1.1,2.6,2.4,2.3C32.4,240.9,33.2,240.1,33.8,239.7z M384.8,34.5
	c-1.1,1.4-2.3,2.3-2.2,3.2c0,0.8,1.3,2.1,2.2,2.2c1.3,0.2,2.6-0.9,2.5-2.3C387.1,36.7,385.9,35.9,384.8,34.5z M489.8,38.2
	c0-0.3,0-0.6,0-1c-0.9-0.6-1.7-1.5-2.7-1.7c-1.5-0.3-2.6,0.9-2.3,2.3c0.2,0.9,1.5,2,2.3,2.1C488,40,488.9,38.8,489.8,38.2z
	 M563.7,161.1c-0.2-2.2-0.9-3.1-2.5-3c-1.5,0.1-2.1,1-2.1,2.4s0.8,2.5,2.2,2.2C562.3,162.5,563.1,161.5,563.7,161.1z M563.7,175.3
	c-0.6-0.4-1.5-1.5-2.5-1.6c-0.6,0-1.7,1.3-1.9,2.2c-0.3,1.4,0.5,2.5,2.1,2.5C562.8,178.4,563.6,177.5,563.7,175.3z M34,176.5
	c-0.5-1.8-1-2.8-2.5-2.8s-2.4,0.9-2.4,2.4s1.1,2.5,2.4,2.3C32.4,178.3,33.2,177.2,34,176.5z M33.7,443.3c0-1.5-1-2.6-2.3-2.6
	c-1.2,0-2.5,1.4-2.3,2.5c0.2,1.3,1,2.2,2.4,2.2C32.8,445.3,33.8,444.7,33.7,443.3z M127.8,38.5c-0.1-2.2-1-3.3-2.4-3
	c-0.9,0.2-1.6,1.5-2.3,2.3c0.8,0.8,1.5,2,2.4,2.2C126.3,40.1,127.3,38.9,127.8,38.5z M33.7,105.6c0.1-1.6-0.8-2.4-2.1-2.4
	c-1.5-0.1-2.4,0.7-2.5,2.3c-0.1,1.4,0.7,2.2,2.1,2.3C32.8,107.8,33.5,106.9,33.7,105.6z M561.4,621.3c-1.4,0.1-2.2,0.8-2.3,2.3
	s0.7,2.3,2.1,2.4c1.5,0.1,2.2-0.9,2.3-2.2C563.7,622.3,562.9,621.5,561.4,621.3z M149,41c1.1-1.4,2.1-2.2,2.4-3.2
	c0.4-1.2-1-2.5-2.4-2.4s-2.4,1-2.2,2.3C146.9,38.7,147.9,39.6,149,41z M374.3,37.2c0,0.3,0,0.7,0,1c1,0.6,1.9,1.8,2.8,1.7
	c0.8,0,2.1-1.5,2-2.3c0-0.8-1.4-2-2.3-2.1C376.1,35.5,375.2,36.6,374.3,37.2z M353.3,35.4c-1.4,0.1-2.3,1.1-2.1,2.3
	c0.2,0.9,1.4,1.7,2.1,2.5c0.8-0.8,2.1-1.4,2.4-2.3C356.1,36.4,354.9,35.6,353.3,35.4z M505.4,38.2c0-0.3,0-0.6,0-0.9
	c-0.9-0.6-1.6-1.6-2.6-1.8c-1.4-0.3-2.4,0.6-2.4,2.2c0,1.6,1.1,2.5,2.4,2.3C503.8,40,504.6,38.9,505.4,38.2z M77.8,35.1
	C77.2,36,76,36.9,76,37.6c0.1,0.9,1.2,2.3,2.1,2.4c1.2,0.2,2.5-0.7,2.5-2.3C80.6,36.4,79.9,35.5,77.8,35.1z M34,396.6
	c0-0.3,0-0.6,0-1c-0.8-0.7-1.7-1.9-2.5-1.8c-0.9,0.1-2,1.2-2.4,2.1c-0.5,1.1,1,2.7,2.2,2.4C32.3,398.1,33.2,397.2,34,396.6z
	 M561.7,500.4c1-0.1,1.9-1,1.9-2.4c0-1.3-0.7-2.2-2.1-2.2c-1.4-0.1-2.4,0.5-2.4,2C559.1,499.2,559.5,500.4,561.7,500.4z
	 M473.7,696.1c-0.6-0.5-1.3-1.5-2.2-1.8c-1.3-0.3-2.3,0.7-2.5,2c-0.2,1.4,0.5,2.4,1.9,2.6C472.4,699.1,473.3,698.3,473.7,696.1z
	 M117.7,693.2c-1.1,1.5-2.2,2.4-2.2,3.2c0.1,0.9,1.1,2,2,2.5c1.1,0.5,2.7-1.1,2.5-2.4C119.8,695.5,118.8,694.7,117.7,693.2z
	 M240.9,38.3c0.6,0.5,1.7,1.8,2.5,1.7c0.9-0.1,2.1-1.5,2.2-2.5c0.2-1.3-0.9-2.1-2.4-2.1C241.9,35.5,241.1,36.2,240.9,38.3z
	 M316.5,38.5c-0.2-2.1-1-3-2.5-3s-2.4,1.2-2.1,2.4c0.2,1,1.4,2.2,2.2,2.3C315,40.2,315.9,38.9,316.5,38.5z M33.8,293.8
	c0-1.3-0.9-2.1-2.2-2.2c-1.4-0.1-2.3,0.7-2.4,2.1c-0.1,1.5,0.9,2.4,2.3,2.5C33,296.4,33.5,295.2,33.8,293.8z M86,35.4
	c-1.3,0.2-2.2,1-2.2,2.5c0,1.6,1.2,2,2.4,2.1c1.5,0.1,2.1-1,2.2-2.3C88.5,36.2,87.6,35.4,86,35.4z M34,616.4c0-0.3,0-0.6,0-0.9
	c-0.9-0.7-1.9-2-2.8-1.9c-0.8,0-2.1,1.5-2.1,2.3s1.4,2.1,2.3,2.2C32.2,618.2,33.1,617,34,616.4z M31.4,100.8
	c1.1-1.4,2.1-2.2,2.3-3.2c0.2-1.2-0.7-2.6-2.1-2.3c-1,0.2-2.2,1.4-2.5,2.3C29,98.3,30.3,99.3,31.4,100.8z M86.1,698.9
	c1.6,0.2,2.2-0.9,2.3-2.2c0.1-1.4-0.7-2.6-2.1-2.4c-0.9,0.1-2.2,1.2-2.4,2.1C83.5,697.8,84.6,698.7,86.1,698.9z M33.7,592.6
	c-0.1-1.5-0.6-2.5-2.3-2.5c-1.5,0-2.3,0.9-2.2,2.2c0,1.3,0.7,2.3,2.2,2.3C32.7,594.7,33.6,594,33.7,592.6z M425,35.5
	c-2.3-0.1-3.1,0.9-3.2,2.3c-0.1,1.4,0.8,2.3,2.2,2.3c1.3,0,2.4-0.7,2.4-2.2C426.4,36.6,425.9,35.5,425,35.5z M33.8,585.2
	c-0.2-2.1-0.8-3.2-2.4-3.1c-1.5,0-2.1,1.1-2.2,2.4c-0.1,1.2,1.3,2.6,2.5,2.3C32.5,586.5,33.2,585.6,33.8,585.2z M143.7,38.5
	c-0.2-2-0.9-3-2.5-3c-1.5,0-2.5,1-2.2,2.2c0.2,1,1.4,2.2,2.3,2.4C142,40.2,143,38.9,143.7,38.5z M33.7,365.2c-0.2-2.2-1.1-3.3-2.5-3
	c-0.9,0.2-1.5,1.6-2.3,2.4c0.9,0.8,1.7,1.9,2.7,2.1C32.3,367,33.2,365.7,33.7,365.2z M34.6,537.3c-1.5-1.1-2.4-2.3-3.1-2.2
	c-0.9,0.1-1.7,1.3-2.5,2.1c0.8,0.9,1.5,2.2,2.4,2.4C32.1,539.8,33.1,538.5,34.6,537.3z M280.1,37.2c0,0.3,0,0.7,0,1
	c0.9,0.6,1.7,1.6,2.6,1.8c1.4,0.3,2.2-0.8,2.2-2.2c0-1.5-0.8-2.5-2.2-2.2C281.8,35.7,281,36.6,280.1,37.2z M564,576.2
	c-0.9-0.6-1.7-1.7-2.6-1.8c-1.3-0.2-2.2,0.8-2.2,2.3c0,1.4,0.7,2.3,2.2,2.3S563.4,578,564,576.2z M563.6,584.2
	c-0.2-1.4-1.2-2.2-2.6-2.1c-1.3,0-2.2,1.2-1.8,2.3c0.3,1,1.3,2.3,2.1,2.4C562.7,587.1,563.6,585.9,563.6,584.2z M492.6,38.3
	c0.6,0.5,1.3,1.5,2.3,1.8c1,0.4,2.5-1.3,2.4-2.4c-0.1-1.4-0.9-2.2-2.3-2.3C493.5,35.4,492.8,36.3,492.6,38.3z M33.8,112.7
	c-0.7-0.5-1.6-1.7-2.4-1.6c-0.8,0.1-2,1.3-2.2,2.3c-0.3,1.4,0.8,2.3,2.3,2.3C33.1,115.7,33.5,114.6,33.8,112.7z M117.6,35.4
	c-1.2,0.1-2.4,0.8-2.1,2.2c0.2,0.9,1.4,2.2,2.1,2.3c0.8,0,2.2-1.2,2.4-2C120.3,36.5,119.2,35.6,117.6,35.4z M80.8,697.3
	c-0.3-2.1-1.1-3.2-2.5-3c-0.9,0.2-2,1.4-2.1,2.3c-0.3,1.3,0.9,2.4,2.2,2.2C79.3,698.7,80.1,697.7,80.8,697.3z M559.1,340.5
	c0.1,2.2,1,2.9,2.4,2.9c1.6,0,2.1-1.2,2-2.5s-0.9-2.5-2.3-2.1C560.3,339,559.6,340,559.1,340.5z M521.1,696.9c0-0.3,0-0.6,0-0.9
	c-0.9-0.6-1.8-1.5-2.8-1.7c-1.4-0.2-2.2,1-2.2,2.3c0,1.4,1,2.5,2.3,2.2C519.5,698.7,520.3,697.6,521.1,696.9z M452.9,38.1
	c0.9,0.6,1.6,1.7,2.6,1.8c1.4,0.2,2.5-0.8,2.5-2.2s-0.9-2.2-2.3-2.2C454.1,35.4,453.5,36.3,452.9,38.1z M33.7,301.6
	c-0.1-1.3-0.8-2.2-2.2-2.2c-1.6,0-2.5,1.2-2.3,2.4c0.1,0.9,1.4,1.9,2.4,2.1C32.8,304.2,33.6,303.1,33.7,301.6z M345.2,35.1
	c-0.7,0.8-1.8,1.6-1.9,2.5c-0.2,1.1,0.5,2.4,2,2.5c1.5,0,2.5-0.7,2.5-2.2C347.9,36.3,347.1,35.5,345.2,35.1z M415.8,40.3
	c0.3,0,0.6,0,0.9,0c0.7-0.8,1.9-1.8,1.8-2.5c-0.1-0.9-1.4-2.3-2.2-2.3c-0.8,0-2.1,1.2-2.3,2.1C414,38.4,415.2,39.4,415.8,40.3z
	 M237.8,38.5c0-2.3-0.9-3-2.4-3c-1.4,0-2.2,0.8-2.2,2.1c0,1.5,0.8,2.6,2.3,2.4C236.5,39.9,237.3,38.9,237.8,38.5z M31.6,400.7
	c-1.2,1.4-2.4,2.1-2.5,3c-0.2,1.3,0.7,2.5,2.3,2.5c1.6,0,2.5-1,2.3-2.4C33.5,402.9,32.6,402.1,31.6,400.7z M34,247.4
	c-0.4-1.9-1-2.8-2.5-2.9c-1.3-0.1-2.6,1.1-2.5,2.4c0.1,1.4,0.9,2.5,2.3,2.3C32.3,249,33.1,248,34,247.4z M558.8,442.8
	c0.3,2,1.2,2.6,2.7,2.6s2.2-1,2.2-2.4c0-1.5-1.1-2.5-2.5-2.3C560.2,440.9,559.5,442.1,558.8,442.8z M33.6,498.5
	c0.1-2-0.8-2.6-2.1-2.7c-1.3-0.1-2.4,0.6-2.5,2.1c0,1.4,0.7,2.5,2.2,2.5C32.9,500.5,33.5,499.4,33.6,498.5z M369.2,34.5
	c-1.2,1.4-2.6,2.4-2.4,3c0.3,1,1.4,2.1,2.4,2.4c0.6,0.1,2-1.3,2.1-2.2C371.5,36.9,370.2,36,369.2,34.5z M558.8,513.4
	c0.5,1.8,1,2.8,2.6,2.7c1.5-0.1,2.2-1,2.3-2.4c0.1-1.2-1.4-2.7-2.5-2.3C560.2,511.7,559.5,512.7,558.8,513.4z M561.8,314.8
	c-0.3,0-0.6,0-0.9,0c-0.6,0.9-1.5,1.7-1.7,2.7c-0.3,1.4,0.6,2.3,2.1,2.4c1.5,0,2.5-1,2.4-2.4C563.5,316.5,562.4,315.7,561.8,314.8z
	 M34.6,600.1c-1.4-1.1-2.3-2.3-3.1-2.2c-0.9,0.1-2,1.2-2.4,2.2c-0.4,1.1,1.4,2.8,2.6,2.4C32.6,602.2,33.3,601.2,34.6,600.1z
	 M561.2,641.7c1.5-0.1,2.5-0.7,2.5-2.3c-0.1-1.4-0.9-2.2-2.4-2.2c-1.3,0-2.1,0.7-2.1,2.1C559.2,640.7,559.6,641.7,561.2,641.7z
	 M558.7,301.4c0,0.3,0,0.6,0,1c0.9,0.6,1.8,1.6,2.7,1.7c1.4,0.1,2.3-1,2.2-2.5c-0.1-1.4-1.1-2.3-2.5-2
	C560.3,299.7,559.6,300.7,558.7,301.4z M34,647.8c0-0.3,0-0.6,0-0.9c-0.9-0.6-1.8-1.8-2.6-1.8c-0.9,0.1-2.2,1.2-2.4,2.1
	c-0.3,1.3,0.9,2.6,2.3,2.5C32.3,649.5,33.2,648.4,34,647.8z M96.5,37.2c-0.6-0.5-1.4-1.5-2.3-1.7c-1.4-0.3-2.2,0.7-2.3,2.2
	c-0.1,1.5,0.8,2.3,2.2,2.4C95.4,40.1,96.2,39.2,96.5,37.2z M28.9,192.4c0.6,0.5,1.3,1.6,2.1,1.7c1.2,0.1,2.5-0.4,2.6-2.1
	c0-1.4-0.7-2.4-2-2.5C30.1,189.3,29.4,190.4,28.9,192.4z M215.2,37.8c-1.4-1.1-2.2-2.2-3.2-2.3c-1.4-0.2-2.4,0.8-2.5,2.3
	c-0.1,1.1,1.5,2.6,2.6,2.2C213.1,39.7,213.8,38.8,215.2,37.8z M33.7,607.9c-0.1-1.6-1.1-2.1-2.4-2.1c-1.3,0-2.1,0.8-2.2,2.2
	c0,1.6,0.9,2.3,2.4,2.3C33.1,610.3,33.6,609.3,33.7,607.9z M562.1,194.1c0.4-0.5,1.5-1.5,1.4-2.3c-0.1-0.9-1.3-2.1-2.2-2.3
	c-1.3-0.3-2.1,0.9-2.2,2.3C559.1,193.3,559.8,194,562.1,194.1z M309.5,37.8c-1.4-1.1-2.2-2.2-3.1-2.4c-1.4-0.2-2.6,0.9-2.4,2.3
	c0.1,0.9,1.4,2.1,2.2,2.2C307.1,40,308,38.8,309.5,37.8z M33.8,654.4c-0.6-0.4-1.3-1.3-2.1-1.4c-1.2-0.1-2.8,0.5-2.5,2.1
	c0.2,1,1.4,2.2,2.4,2.4C33.1,657.8,33.5,656.3,33.8,654.4z M447.5,40.5c0.3,0,0.6,0,0.9-0.1c0.6-0.9,1.6-1.8,1.7-2.8
	c0.2-1.4-1.1-2.4-2.3-2.1c-0.9,0.2-2.2,1.5-2.2,2.2C445.6,38.6,446.8,39.5,447.5,40.5z M563.7,184.6c0-2.3-1-2.9-2.3-2.9
	c-1.5,0-2.2,0.9-2.2,2.3c0,1.6,1,2.5,2.4,2.2C562.5,186,563.2,184.9,563.7,184.6z M34,215c-0.8-0.6-1.6-1.8-2.3-1.7
	c-0.9,0.1-2.3,1.1-2.5,1.9c-0.3,1.3,0.7,2.4,2.2,2.4C32.9,217.7,33.5,216.8,34,215z M33.7,151.8c-0.5-0.3-1.4-1.6-2.2-1.5
	c-0.9,0.1-2.1,1.2-2.3,2.2c-0.4,1.3,0.8,2.3,2.1,2.4C32.8,154.9,33.7,154.2,33.7,151.8z M559.1,474c0.2,2.1,1,3,2.4,2.9
	c1.4,0,2.2-1.1,2.2-2.5c0-1.5-1-2.4-2.3-2.2C560.4,472.4,559.6,473.5,559.1,474z M30.6,134.5c-0.4,0.5-1.3,1.3-1.6,2.3
	c-0.3,1.2,1.1,2.3,2.5,2.2c1.3-0.1,2-1,2-2.3C33.6,135.3,32.9,134.5,30.6,134.5z M33.8,324.6c-0.7-0.4-1.5-1.5-2.5-1.5
	c-1.4-0.1-2.2,1.1-2.2,2.5s1.1,1.9,2.4,1.9C33,327.6,33.6,326.6,33.8,324.6z M562,107.7c0.4-0.5,1.4-1.3,1.5-2.2
	c0.3-1.5-0.9-2.3-2.3-2.4c-1.5-0.1-2.1,0.9-2.1,2.3C559.1,106.9,559.9,107.6,562,107.7z M34.5,333.2c-1.4-1.1-2.4-2.5-3-2.4
	c-1,0.2-2.2,1.5-2.3,2.4c-0.1,0.7,1.4,2.1,2.2,2.2C32.2,335.6,33.1,334.3,34.5,333.2z M564.5,333.1c-1.4-1.1-2.2-2.2-3.1-2.3
	c-1.1-0.1-2.3,0.7-2.3,2.2c0,1.6,1,2.5,2.3,2.4C562.3,335.4,563.1,334.2,564.5,333.1z M33.6,341c-0.1-1.1-0.5-2.3-2.1-2.2
	c-1.5,0-2.3,0.9-2.4,2.5c0,1.6,1,2.1,2.4,2.1C33,343.4,33.6,342.5,33.6,341z M34,349.5c0-0.3,0-0.6,0-1c-0.8-0.6-1.6-1.7-2.5-1.9
	c-1.4-0.2-2.4,0.8-2.4,2.3c0,1.4,1,2.4,2.3,2.2C32.3,351.1,33.2,350.1,34,349.5z M33.8,255.2c-0.2-2.1-1.1-3.1-2.4-2.8
	c-0.9,0.2-1.6,1.5-2.4,2.3c0.8,0.8,1.6,2,2.5,2.1C32.2,256.9,33.2,255.7,33.8,255.2z M563.7,255.3c-0.2-2-0.9-3.2-2.3-2.8
	c-0.9,0.2-2.2,1.5-2.2,2.2c0,0.8,1.3,2.1,2.2,2.2C562.2,256.9,563.1,255.7,563.7,255.3z M500.1,696.1c0,0.3,0,0.6,0,0.9
	c0.9,0.7,1.6,1.7,2.6,1.9c1.5,0.3,2.5-1,2.4-2.3c-0.1-0.9-1.4-2.2-2.2-2.2C502,694.2,501,695.4,500.1,696.1z M563.6,364.7
	c0-1.5-0.5-2.5-2.1-2.5c-1.5,0-2.2,0.8-2.3,2.2c-0.1,1.5,0.7,2.3,2.1,2.4C562.7,366.8,563.6,366.1,563.6,364.7z M33.7,230.3
	c-0.5-0.4-1.3-1.4-2.3-1.6c-1.3-0.2-2.3,0.9-2.3,2.3c0,1.4,0.8,2.3,2.3,2.2C32.8,233.2,33.7,232.5,33.7,230.3z M559.2,395.6
	c-0.1,1.8,0.5,2.7,2,2.7c1.4,0,2.3-0.9,2.4-2.2c0.1-1.4-0.8-2.3-2.2-2.4C559.9,393.5,559.4,394.6,559.2,395.6z M558.8,521.2
	c0.4,1.9,1.2,2.8,2.6,2.8c1.4,0,2.2-0.9,2.2-2.4s-1.1-2.4-2.3-2.3C560.4,519.5,559.6,520.6,558.8,521.2z M34,380.8
	c-0.4-1.9-1.1-2.8-2.6-2.8c-1.6,0-2.3,1.1-2.3,2.5c0,1.5,1.2,2.2,2.4,2C32.5,382.3,33.2,381.4,34,380.8z M33.7,560.2
	c-0.5-0.4-1.4-1.6-2.1-1.5c-0.9,0.1-2.3,1.2-2.5,2c-0.3,1.3,0.9,2.4,2.3,2.4C32.9,563.3,33.5,562.2,33.7,560.2z M250.7,35.2
	c-0.5,0.7-1.6,1.6-1.6,2.5c0,0.8,1.1,2.1,1.9,2.2c1.3,0.3,2.5-0.5,2.6-2.1C253.7,36.3,252.6,35.6,250.7,35.2z M564,616.2
	c0-0.3,0-0.6,0-0.9c-0.9-0.6-1.9-1.8-2.7-1.7s-1.9,1.5-2,2.4c-0.3,1.3,0.9,2.4,2.2,2.2C562.4,617.9,563.2,616.9,564,616.2z
	 M31.1,147.3c0.3,0,0.6,0,0.9,0c0.6-0.9,1.5-1.8,1.6-2.8c0.2-1.4-1-2.4-2.3-2.1c-0.9,0.2-2.1,1.5-2.1,2.4
	C29.2,145.6,30.4,146.5,31.1,147.3z M558.8,568.4c0,0.3,0,0.6,0,0.9c0.8,0.6,1.6,1.5,2.5,1.7c1.3,0.2,2.3-0.7,2.3-2.2
	c0-1.4-0.8-2.7-2.3-2.3C560.3,566.7,559.6,567.7,558.8,568.4z M34,475.1c0-0.3,0-0.6,0-1c-0.9-0.7-1.9-1.9-2.8-1.9
	c-0.7,0-1.9,1.4-2,2.4c-0.3,1.5,1,2.3,2.3,2.1C32.4,476.6,33.2,475.7,34,475.1z M518,35.4c-1,0-2,1-1.7,2.3c0.2,0.9,1.1,2.1,1.9,2.3
	c1.3,0.3,2.5-0.6,2.6-2.1C520.9,36.4,520,35.5,518,35.4z M30.8,437.5c2.4,0.1,3.1-1,2.8-2.3c-0.2-0.9-1.2-1.9-2-2.2
	c-1.1-0.4-2.8,1.2-2.4,2.3C29.4,436.2,30.4,437,30.8,437.5z M34,317.8c0-0.3,0-0.6,0-1c-0.9-0.6-1.9-1.6-2.7-1.5s-1.8,1.3-2.1,2.2
	c-0.4,1.1,1.4,2.8,2.4,2.4C32.5,319.4,33.2,318.5,34,317.8z M179.7,35.5c-0.4,0.5-1.5,1.5-1.4,2.3c0.1,0.9,1.3,2.2,2.1,2.3
	c1.3,0.2,2.4-0.9,2.4-2.4C182.8,36.3,181.9,35.4,179.7,35.5z M31.9,267.8c-0.3,0-0.6,0-0.9,0c-0.6,0.9-1.7,1.7-1.8,2.6
	c-0.2,1.5,1.1,2.5,2.4,2.3c0.8-0.1,2-1.4,2-2.2C33.6,269.6,32.5,268.7,31.9,267.8z M34,420c0-0.3,0-0.6,0-1
	c-0.9-0.6-1.7-1.6-2.6-1.8c-1.4-0.2-2.2,0.9-2.3,2.2c0,1.4,0.9,2.4,2.2,2.2C32.3,421.7,33.1,420.7,34,420z M34,467
	c-0.4-1.8-1.4-3-2.6-2.7c-1,0.3-1.9,1.3-2.4,2.2c-0.4,0.9,1.3,2.6,2.4,2.3C32.4,468.6,33.2,467.7,34,467z M563.7,591.7
	c0-1.1-1-1.6-2.2-1.6c-1.5,0-2.2,0.8-2.2,2.2c0,1.5,0.8,2.2,2.2,2.2C563,594.6,563.6,593.6,563.7,591.7z M32.1,165.7
	c-0.3,0-0.6,0-0.9-0.1c-0.7,0.8-2.1,1.8-2,2.4c0.2,1,1.3,2.2,2.3,2.5c1.2,0.3,2.3-0.9,2.1-2.3C33.5,167.3,32.6,166.5,32.1,165.7z
	 M561.4,233.3c1.7,0,2.4-1.2,2.1-2.5c-0.2-0.8-1.5-1.9-2.3-1.9c-0.8,0.1-1.8,1.3-2,2.2C559,232.4,559.9,233.3,561.4,233.3z
	 M31.3,634.8c1.1-1.4,2.1-2.1,2.3-3c0.3-1.3-0.5-2.8-2-2.6c-0.9,0.1-2.2,1.3-2.4,2.3C29.1,632.2,30.3,633.3,31.3,634.8z
	 M558.8,285.5c0.4,1.9,1.2,2.8,2.6,2.8c1.4,0,2.2-0.9,2.2-2.4s-1-2.4-2.3-2.2C560.4,283.9,559.6,284.9,558.8,285.5z M33.7,286.8
	c-0.1-2.1-0.8-3.2-2.3-3.2s-2.5,1.2-2.2,2.5c0.1,0.8,1.4,2,2.2,2.1C32.2,288.3,33.1,287.2,33.7,286.8z M34,81.4
	c-0.9-0.6-1.8-1.9-2.5-1.8c-0.9,0.1-2,1.3-2.2,2.2c-0.3,1.3,0.8,2.3,2.2,2.3C32.8,84.2,33.6,83.3,34,81.4z M561.3,280.4
	c1.4-0.2,2.4-0.9,2.3-2.4c-0.1-1.4-1-2.1-2.5-2.1c-1.6,0-2,1.1-2,2.4C559.2,279.6,559.9,280.4,561.3,280.4z M34,388.6
	c0-0.3,0-0.6,0-1c-0.8-0.6-1.8-1.9-2.5-1.8c-0.9,0.1-2.1,1.2-2.4,2.1c-0.3,1.4,0.8,2.6,2.2,2.4C32.3,390.2,33.2,389.2,34,388.6z
	 M563.6,388.3c0-1.8-1-2.4-2.4-2.4s-2,0.9-2.1,2.1c0,1.4,0.5,2.4,2,2.4C562.7,390.5,563.5,389.7,563.6,388.3z M33.8,261.6
	c-0.6-0.4-1.4-1.2-2.4-1.4c-1.1-0.2-2.7,1.5-2.3,2.5c0.4,0.9,1.4,1.9,2.3,2C33,265,33.6,263.7,33.8,261.6z M559.2,654.9
	c0,1.7,0.7,2.6,2.1,2.7c1.6,0,2.2-1.1,2.3-2.5c0.1-1.3-0.9-2.1-2.2-2.1C560,652.9,559.2,653.7,559.2,654.9z M91.5,696.2
	c0,0.3,0,0.6,0,0.9c0.9,0.6,1.7,1.6,2.7,1.7c1.4,0.2,2.2-0.9,2.2-2.3c0-1.4-1-2.4-2.2-2.3C93.2,694.5,92.4,695.6,91.5,696.2z
	 M563.7,168.9c0-2.3-1.1-2.8-2.3-2.9c-1.3-0.1-2.1,0.7-2.2,2.1c-0.1,1.6,1,2.6,2.3,2.5C562.3,170.5,563.1,169.3,563.7,168.9z
	 M558.3,97.5c1.3,1.2,2.1,2.4,3,2.4c1.3,0.1,2.4-0.8,2.4-2.4c0-1.5-1-2.4-2.2-2.3C560.5,95.3,559.7,96.4,558.3,97.5z M33.8,489.5
	c-0.5-0.4-1.3-1.5-2.2-1.7c-1.4-0.2-2.3,1-2.4,2.4c0,1.5,1,2.2,2.4,2.2C32.9,492.5,33.6,491.6,33.8,489.5z M558.2,144.7
	c1.4,1.1,2.2,2.1,3.1,2.2c1.5,0.2,2.3-0.9,2.3-2.4c0-1.6-1.2-2.4-2.5-2.2C560.2,142.6,559.5,143.6,558.2,144.7z M563.9,129.5
	c0-0.3,0-0.6,0-0.9c-0.8-0.7-1.6-1.7-2.6-1.9c-1.4-0.3-2.2,0.9-2.3,2.2c-0.1,1.4,0.8,2.5,2.1,2.3C562.2,131.1,563,130.1,563.9,129.5
	z M559.1,552.9c0.1,1.3,0.6,2.4,2.1,2.4c1.6,0,2.5-1.1,2.4-2.4c-0.1-0.8-1.2-2-2.1-2.2C560.2,550.5,559.2,551.4,559.1,552.9z
	 M33.6,208.1c0-2.2-0.9-3-2.4-2.9c-1.4,0-2.1,0.9-2.1,2.2c0,1.4,0.8,2.3,2.2,2.3C32.8,209.8,33.6,209,33.6,208.1z M34,373
	c-0.4-1.9-1-2.8-2.5-2.8c-1.4,0-2.3,0.8-2.4,2.2c0,1.6,1.1,2.4,2.5,2.3C32.4,374.5,33.2,373.5,34,373z M275.4,35.1c-0.3,0-0.6,0-1,0
	c-0.6,0.9-1.9,1.8-1.8,2.6c0.1,0.9,1.4,1.6,2.1,2.4c0.8-0.8,2.1-1.5,2.3-2.3C277.2,37,276,36,275.4,35.1z M437.2,37.3
	c0,0.3,0,0.6,0,0.9c0.9,0.6,1.7,1.6,2.6,1.7c1.3,0.1,2.2-1,2.2-2.3c0-1.4-0.9-2.5-2.3-2.1C438.9,35.7,438.1,36.7,437.2,37.3z
	 M558.8,270.9c0.9,0.6,1.7,1.6,2.6,1.7c1.4,0.2,2.1-1,2.2-2.3c0-1.4-0.9-2.2-2.3-2.2C559.7,268.1,559.3,269.1,558.8,270.9z
	 M33.7,569.5c-0.2-2.1-0.8-3.2-2.4-3.2c-1.5,0-2.4,1.3-2.2,2.6c0.2,0.8,1.4,2,2.2,2C32.2,571,33.1,569.9,33.7,569.5z M559.1,309.2
	c0.1,1.8,0.7,2.8,2.2,2.7c1.5-0.1,2.4-1,2.3-2.5c0-1.4-0.9-2-2.3-2C559.9,307.4,559.1,308.1,559.1,309.2z M33.7,357.5
	c-0.1-2.1-0.8-3-2.3-3c-1.4,0-2.4,0.8-2.3,2.3c0.1,1.4,1,2.4,2.4,2.1C32.4,358.7,33.2,357.8,33.7,357.5z M558.3,356.5
	c1.3,1.2,1.9,2.3,2.8,2.5c1.5,0.3,2.4-0.7,2.6-2.2c0.2-1.5-1-2.3-2.2-2.2C560.5,354.6,559.7,355.6,558.3,356.5z M559.1,294.5
	c0.5,0.4,1.2,1.4,2.2,1.6c1.6,0.3,2.2-1,2.4-2.4c0.1-1.4-0.8-2-2.1-2.1C560,291.6,559.2,292.3,559.1,294.5z M561.3,547.5
	c1.8,0.1,2.2-1.2,2.3-2.5c0.2-1.5-1-2-2.2-2c-1.5-0.1-2.3,0.7-2.3,2.2C559.1,546.6,559.9,547.4,561.3,547.5z M559,381
	c0.5,0.4,1.3,1.5,2.2,1.5c1.3,0.1,2.6-0.9,2.3-2.4c-0.2-0.9-1.3-2.2-2.2-2.3C559.9,377.7,559.2,379,559,381z M560.6,535
	c-1,0.1-1.4,1.1-1.4,2.3c0,1.5,0.8,2.3,2.2,2.2c1.4,0,2.3-0.9,2.2-2.3C563.5,535.8,562.6,535,560.6,535z M32.1,484.6
	c0.8,0,1.5-0.8,1.6-2.2c0.1-1.3-1.1-2.4-2.5-2.3c-1.4,0.1-2.1,0.9-2.1,2.2C29.1,483.7,29.8,484.6,32.1,484.6z M558.8,560.5
	c0,0.3,0,0.6,0,1c0.9,0.6,1.7,1.6,2.7,1.7c1.3,0.1,2.2-0.9,2.1-2.3c-0.1-1.4-1-2.4-2.3-2.2C560.4,558.8,559.6,559.8,558.8,560.5z
	 M561.2,212.2c-1,1.4-1.9,2.2-2,3.1c-0.2,1.2,0.6,2.4,2.1,2.4c1.1,0,2.7-1.5,2.3-2.5C563.3,214.3,562.4,213.6,561.2,212.2z
	 M563.7,434.5c-0.5-0.4-1.3-1.3-2.2-1.5c-1.3-0.2-2.3,0.7-2.3,2.2c0,1.4,0.8,2.3,2.2,2.3C563,437.6,563.5,436.6,563.7,434.5z
	 M562.1,597.8c-2.2,0-2.9,0.9-3,2.2c-0.2,1.6,0.9,2.4,2.2,2.5c1.4,0.1,2.3-1,2.2-2.3C563.4,599.3,562.5,598.4,562.1,597.8z
	 M561.1,604.9c-0.9,1.4-1.9,2.2-2,3.1c-0.2,1.3,0.6,2.4,2.1,2.3c1.5,0,2.6-1,2.3-2.4C563.5,607,562.3,606.2,561.1,604.9z
	 M564.6,458.8c-1.5-1-2.4-2.2-3.2-2.1s-2.2,1.5-2.1,2.2c0,0.8,1.3,2.1,2.2,2.2C562.2,461.2,563.2,459.9,564.6,458.8z M31.8,456.2
	c-0.3,0-0.6,0-1,0c-0.6,0.9-1.5,1.7-1.7,2.7c-0.2,1.4,1,2.2,2.4,2.2s2.3-1.1,2-2.5C33.4,457.8,32.4,457,31.8,456.2z M563.7,630.8
	c-0.6-0.4-1.6-1.6-2.4-1.5c-0.8,0.2-1.9,1.4-2.1,2.4c-0.2,1.2,0.7,2.2,2.1,2.2C562.8,633.8,563.5,632.9,563.7,630.8z M30.8,181.3
	c-0.6,0.9-1.5,1.7-1.7,2.7c-0.2,1.3,0.9,2.2,2.3,2.2c1.5,0,2.2-0.9,2.2-2.5C33.6,182.2,32.6,181.8,30.8,181.3z M559.2,238.8
	c-0.1,1.5,0.8,2.3,2.2,2.3s2.3-0.9,2.3-2.3c0-1.4-0.8-2.3-2.3-2.3S559.2,237.4,559.2,238.8z M34,90.3c0-0.3,0-0.6,0-0.9
	c-0.9-0.7-1.7-1.7-2.6-1.8c-1.2-0.2-2.4,0.8-2.3,2.2c0,1.5,1,2.5,2.5,2.2C32.4,91.8,33.2,90.8,34,90.3z M30.4,162.7
	c2.1,0.1,3-0.5,3.2-2c0.2-1.5-0.5-2.4-1.9-2.6c-1.5-0.2-2.5,0.7-2.5,2C29.2,161,30.1,162,30.4,162.7z M558.8,152.9
	c0.8,0.6,1.6,1.7,2.5,1.9c1.3,0.2,2.3-0.8,2.3-2.2c0-1.5-0.8-2.3-2.4-2.3C559.8,150.4,559.2,151.1,558.8,152.9z M559.2,450.2
	c0,2.3,0.7,3.2,2.3,3.2s2.1-1.3,2.2-2.6c0.1-1.5-1.1-2.1-2.3-1.9C560.4,449,559.7,449.9,559.2,450.2z M563.6,207.5
	c0-1.7-1-2.3-2.3-2.3c-1.5-0.1-2.1,1-2.1,2.4c-0.1,1.5,0.9,2.3,2.2,2.4C562.8,210,563.5,208.8,563.6,207.5z M562,115.7
	c0.4-0.6,1.4-1.4,1.6-2.3c0.2-1.4-0.8-2.3-2.2-2.3c-1.4-0.1-2.2,0.9-2.3,2.3C559.1,114.7,559.9,115.5,562,115.7z M33.7,199.6
	c-0.1-1.6-1.2-2.1-2.5-2.1c-1.5,0-2.1,1-2.1,2.4s0.9,2.1,2.2,2.1C32.9,202,33.5,200.9,33.7,199.6z M560.6,417.3
	c-0.3,0.5-1.2,1.3-1.4,2.3c-0.3,1.5,0.8,2.2,2.2,2.2s2.2-0.9,2.2-2.3S562.9,417.2,560.6,417.3z M104.2,695.8
	c-0.5-0.4-1.3-1.3-2.2-1.4c-1.4-0.1-2.7,0.9-2.3,2.3c0.2,0.9,1.4,2.1,2.3,2.3C103.3,699.1,104.2,697.9,104.2,695.8z M463.4,34.4
	c-1,1.5-2.1,2.4-2.1,3.3c0,0.8,1.2,1.8,2.1,2.2c1.1,0.4,2.8-1.2,2.4-2.2S464.5,35.9,463.4,34.4z M473.6,38.5c-0.1-2.2-0.9-3-2.4-3
	c-1.4,0-2.3,1-2,2.2c0.2,0.9,1.3,2.2,2.1,2.3C472,40.1,473,38.9,473.6,38.5z M34.5,521.7c-1.4-1.1-2.4-2.5-3-2.3
	c-1,0.2-2.1,1.4-2.3,2.4c-0.2,1.2,1,2.3,2.3,2.1C32.4,523.8,33.2,522.8,34.5,521.7z M558.8,371.9c0,0.3,0,0.6,0,1
	c0.9,0.6,1.6,1.5,2.6,1.9s2.7-1.4,2.2-2.5c-0.3-0.9-1.4-2-2.2-2C560.6,370.2,559.7,371.3,558.8,371.9z M558.8,199.3c0,0.3,0,0.6,0,1
	c0.9,0.6,1.7,1.6,2.7,1.7c1.4,0.2,2.2-0.9,2.2-2.3c0-1.4-0.8-2.5-2.2-2.2C560.4,197.7,559.6,198.6,558.8,199.3z M34,639.8
	c0-0.3,0-0.7,0-1c-0.8-0.5-1.6-1.4-2.5-1.5c-1.4-0.2-2.3,0.8-2.3,2.2c0,1.5,1.1,2.4,2.4,2.2C32.4,641.5,33.2,640.4,34,639.8z
	 M33.7,428c-0.2-2.1-1-3.1-2.4-2.8c-0.9,0.2-2,1.2-2.2,2c-0.3,1.5,0.9,2.4,2.4,2.2C32.4,429.3,33.2,428.4,33.7,428z M561.7,92.1
	c1.4,0,2.1-1.2,1.9-2.4c-0.1-0.8-1.2-2-2.1-2.2c-1.2-0.3-2.4,0.5-2.4,2.1C559.2,91,559.9,91.9,561.7,92.1z M564.5,466.7
	c-1.4-1.1-2.3-2.4-3.2-2.3c-0.8,0.1-1.9,1.3-2.1,2.3c-0.3,1.3,0.8,2.5,2.1,2.2C562.3,468.8,563.1,467.8,564.5,466.7z M172.1,35.4
	c-0.4,0.5-1.3,1.3-1.6,2.2c-0.4,1.1,1.2,2.8,2.3,2.4c0.9-0.3,1.9-1.3,2.1-2.2C175.1,36.7,174.4,35.5,172.1,35.4z M560.9,409.2
	c-0.4,0.5-1.3,1.2-1.6,2.1c-0.4,1.4,0.4,2.4,1.8,2.6c1.3,0.2,2.4-0.5,2.6-1.9C563.8,410.6,563,409.6,560.9,409.2z M559.1,246.2
	c0.1,2.2,1,3,2.4,2.9c1.5-0.1,2.1-1.2,2.1-2.5c0-1.5-1.1-2.3-2.4-2.1C560.3,244.8,559.6,245.9,559.1,246.2z M358.1,37.6
	c1.4,1.1,2.2,2.4,3,2.3c0.9-0.1,2.2-1.1,2.5-2c0.3-1.3-0.7-2.6-2.2-2.4C360.4,35.6,359.6,36.6,358.1,37.6z M128.7,696.5
	c-1.3-1.1-2.2-2.3-2.9-2.2c-0.9,0.2-2,1.2-2.4,2.1c-0.5,1.1,1.1,2.8,2.2,2.5C126.5,698.6,127.3,697.6,128.7,696.5z M392.4,35.5
	c-1.5,0-2.1,1-2.1,2.4c0.1,1.4,0.9,2.2,2.4,2.2c1.4-0.1,2.2-0.9,2.1-2.4C394.9,36.1,394,35.5,392.4,35.5z M338.2,35.1
	c-0.3,0-0.6,0-0.9,0c-0.6,0.9-1.9,1.8-1.8,2.6c0.1,0.9,1.4,2.2,2.2,2.2c0.8,0,2.1-1.3,2.2-2.2C340,37,338.8,36,338.2,35.1z
	 M558.8,348.4c0.5,1.8,1,2.9,2.6,2.8c1.5-0.1,2.4-1.1,2.3-2.6c-0.1-1.5-1.2-2.3-2.5-2C560.3,346.8,559.6,347.8,558.8,348.4z
	 M30.9,531.8c2.2-0.1,2.8-1.1,2.8-2.5s-0.8-2.1-2.2-2.1c-1.5,0-2.6,0.9-2.3,2.4C29.4,530.6,30.5,531.3,30.9,531.8z M559.1,136.8
	c0,1.6,0.8,2.3,2.2,2.3c1.5,0.1,2.1-1,2.2-2.4c0.1-1.4-0.9-2.1-2.2-2.2C560,134.5,559.2,135.4,559.1,136.8z M33.7,622.9
	c-0.5-0.3-1.3-1.4-2.1-1.4c-1.3-0.1-2.6,0.9-2.4,2.3c0.1,0.8,1.3,2,2.1,2.1C32.7,626.1,33.7,625.2,33.7,622.9z M31.5,306.6
	c-1.1,1.3-2.2,2-2.3,2.9c-0.2,1.4,0.6,2.5,2.3,2.4c1.5,0,2.4-0.9,2.2-2.3C33.4,308.7,32.5,308,31.5,306.6z M34,506.3
	c0-0.3,0-0.6,0-0.9c-0.8-0.6-1.5-1.5-2.4-1.7c-1.2-0.4-2.6,1-2.5,2.3c0.1,1.4,1,2.5,2.3,2.2C32.3,508,33.2,507,34,506.3z
	 M561.3,527.2c-1.5,0.1-2.3,0.8-2.2,2.3s0.8,2.2,2.2,2.2c1.5,0,2.2-1,2.2-2.3C563.7,527.9,562.7,527.3,561.3,527.2z M561.2,264.9
	c1.6-0.1,2.4-1,2.4-2.4c0-1.5-1.1-2.1-2.4-2.1c-1.4-0.1-2,0.8-2,2.2C559.2,263.8,559.7,264.8,561.2,264.9z M31.7,220.5
	c-0.3,0-0.6,0-0.9,0c-0.6,0.9-1.7,1.8-1.6,2.6c0.2,0.9,1.3,2.1,2.1,2.3c1.3,0.3,2.3-1,2.1-2.3C33.4,222.2,32.4,221.4,31.7,220.5z
	 M562,123.5c0.4-0.6,1.4-1.5,1.5-2.4c0.2-1.3-0.9-2.2-2.3-2.1c-1.3,0.1-2.1,0.8-2.1,2.2C559.2,122.6,559.9,123.4,562,123.5z
	 M558.8,505.5c0,0.3,0,0.6,0,0.9c0.9,0.6,1.8,1.8,2.6,1.7c0.9-0.1,2-1.4,2.2-2.3c0.3-1.4-1-2.4-2.2-2.2
	C560.4,503.8,559.6,504.9,558.8,505.5z M558.8,426.9c0,0.3,0,0.6,0,0.9c0.9,0.6,1.7,1.7,2.6,1.8c1.3,0.2,2.4-1,2.2-2.3
	c-0.2-0.9-1.4-2.1-2.2-2.2C560.6,425.1,559.7,426.3,558.8,426.9z M561.5,484.6c1.6,0,2.1-1.1,2.1-2.4c0-1.4-1.2-2.3-2.5-2
	c-0.8,0.2-1.8,1.4-1.9,2.3C558.9,484,560.1,484.5,561.5,484.6z M30.7,547.5c2.4,0,3-1.1,3-2.5c0-1.6-1.3-2.2-2.5-2
	c-0.8,0.2-2,1.4-2,2.2C29.2,546.2,30.3,547,30.7,547.5z M559,82.5c0.6,0.4,1.5,1.7,2.2,1.6c0.9-0.2,1.6-1.5,2.4-2.3
	c-0.8-0.8-1.5-2-2.4-2.2C560,79.3,559.2,80.4,559,82.5z M329.6,35.5c-1.4,0-2,0.9-2.1,2.3c0,1.5,0.8,2.3,2.2,2.3
	c1.4,0,2.3-0.9,2.3-2.3C332.1,36.4,331.3,35.5,329.6,35.5z M561.5,406.2c1.4-0.1,2.2-1.1,2.2-2.5c0-1.3-1-2-2.3-2
	c-1.2,0-2.3,0.5-2.2,2C559.2,405.1,559.7,406.2,561.5,406.2z M33.7,120.6c-0.5-0.4-1.2-1.3-2.1-1.5c-1.4-0.3-2.3,0.7-2.4,2
	c-0.1,1.4,0.7,2.3,2.2,2.3C32.7,123.5,33.6,122.7,33.7,120.6z M34,129.6c0-0.3,0-0.6,0-0.9c-0.9-0.7-1.8-2.1-2.6-2
	c-0.8,0-2,1.4-2.2,2.3c-0.3,1.3,0.9,2.4,2.2,2.2C32.3,131.1,33.1,130.2,34,129.6z M564,223.5c0-0.3,0-0.6,0-0.9
	c-0.9-0.6-1.9-1.6-2.8-1.6c-0.7,0-1.8,1.3-2,2.2c-0.2,1.3,0.8,2.5,2.2,2.2C562.4,225.3,563.2,224.2,564,223.5z M33.7,412.3
	c-0.1-2.2-1.2-3-2.4-2.8c-0.9,0.2-2.2,1.5-2,2.1c0.2,0.9,1.4,2.1,2.2,2.2C32.2,413.9,33.2,412.7,33.7,412.3z M32.2,280.2
	c0.3-0.4,1.2-1.1,1.3-2c0.2-1.3-0.6-2.3-2.2-2.2c-1.4,0.1-2.4,0.8-2.4,2.2C29.1,279.6,29.9,280.5,32.2,280.2z M558.8,489.9
	c0.4,1.9,1.4,2.7,2.6,2.5c0.9-0.2,2-1.2,2.2-2c0.2-1.4-0.8-2.6-2.3-2.4C560.3,488.1,559.6,489.2,558.8,489.9z M563.7,326
	c-0.2-2.2-1.2-3.1-2.6-2.9c-0.8,0.1-2,1.5-1.8,2.1c0.2,0.9,1.2,2.2,2.1,2.3C562.1,327.6,563,326.4,563.7,326z"/>
<path class="st0" d="M359.2,275.6c0.1,1.6,0.4,2.8,0.4,4.1c-0.1,12.2,0.1,24.5-0.7,36.6c-0.8,11-3.1,21.9-9,31.6
	c-4.4,7.2-10.2,13-17.5,17.2c-9.4,5.4-19.5,8.9-30.2,10.5c-14.6,2.2-29.3,1.5-44,0.3c-3.2-0.3-6.4-0.6-9.7-0.9
	c-0.7-0.1-1.5-0.3-2.2-0.5c0-0.2-0.1-0.4-0.1-0.5c0.5-0.3,1.1-0.7,1.6-1c1.6-0.9,3.3-1.8,4.9-2.8c0.4-0.2,0.5-0.8,0.8-1.2
	c-0.5-0.3-0.9-0.6-1.5-0.8c-0.3-0.1-0.8,0.2-1.1,0.3c-12.8,5.8-26.3,9.2-40.3,10.8c-14.7,1.6-29.2,0.7-43-5
	c-10.8-4.5-20.4-10.9-27.4-20.5c-4.1-5.7-7-12.1-8.5-19c-1.9-8.9-1.9-17.9-0.6-26.7c1.2-7.9,4.4-14.9,11.6-19.3
	c1.5-0.9,3.1-1.5,4.7-2.3c1.2,2.5,2.2,4.6,3.2,6.8c2.6,5.3,7.2,7.7,12.7,9.1c9,2.4,18.1,2.2,27.1,1c7.5-1,14.8-3.2,21.6-6.4
	c5.3-2.5,10.6-5.1,15.8-7.7c0.8-0.4,1.3-1.2,1.9-1.9c-0.1-0.2-0.3-0.5-0.4-0.7c-0.7,0.1-1.5,0.1-2.1,0.5c-1.8,1.1-2.6,0.5-3.3-1.3
	c-0.6-1.4-1.4-2.6-2.2-3.8c-3.1-4.6-10.1-4.3-11.9,1.3c-1.1,3.5-2.2,7-3.5,10.5c-0.3,0.8-1,1.7-1.7,1.9c-4.9,1.3-9.8,2.6-14.8,3.4
	c-7.7,1.2-15.5,0.8-23.2-0.3c-2.9-0.4-5-1.7-6-4.6c-2-5.5-2-11.1-0.3-16.7c0.2-0.5,1-1.2,1.5-1.3c8.4-1.2,15.9-4.5,22.8-9.3
	c4.2-2.9,6.2-11.9,0.7-16.6c-2.5-2.1-2.6-4.1-2-6.9c3-12.7,4-25.7,4.1-38.7c0.1-6.7,1.9-13,4.1-19.3c0.8-2.1,2.4-2.4,4.3-2.6
	c8.6-0.9,17.1-0.4,25.6,0.2c0.4,0,0.7,0.2,1.5,0.4c-0.6,1.1-1.2,1.9-1.7,2.8c-3.1,6.3-5.1,12.9-6.5,19.7c-2,10.4-1.9,20.8-0.9,31.3
	c0.7,7.3,2.4,14.5,3.6,21.7c0.2,1.1,0.6,2.2,0.7,3.4c0.6,5.2,4.4,8.2,7.8,11.4c8.3,7.6,18.2,12.5,28.8,16.1c19.6,6.7,39.8,6.8,60,4
	c13-1.8,25.4-5.8,36.6-12.8C354,279.5,356.4,277.6,359.2,275.6z"/>
<path class="st0" d="M348.5,446.1c-1.8-2.1-1.6-5.1-4.7-6.6c0,1.1-0.2,1.9,0,2.6c3.1,9.9,6.3,19.8,9.3,29.7c1.8,6,3.4,12,4.8,18.1
	c1.3,5.2,2.3,10.5,3.3,15.8c1.1,5.8,2.3,11.7,3,17.5c1.1,9,2,18.1,2.9,27.1c0.3,2.8,0.3,5.5,0.5,8.3c0.1,1.5-0.4,2.4-1.6,3.1
	c-6.8,3.9-13.8,3.7-20.9,1.1c-8-2.9-14.8-7.6-21-13.4c-4.7-4.3-9.6-8.3-15.5-10.8c-4.7-2-9.5-2.7-14.3-0.8c-1.3,0.5-2.5,1.4-3.5,2.4
	c-1.3,1.3-1.9,1-2.6-0.4c-4.7-8.4-9.3-16.9-14.3-25.1c-3.5-6-7.5-11.7-11.3-17.5c-0.2-0.3-0.4-0.8-0.7-1c-0.5-0.3-1-0.4-1.6-0.5
	c-0.1,0.6-0.4,1.3-0.2,1.8c1.7,3.4,3.6,6.6,5.4,10c0.6,1,1.1,2.1,1.7,3.1c-0.1,0.1-0.2,0.3-0.4,0.4c-0.5-0.4-1.2-0.7-1.6-1.1
	c-6.5-5.7-11.8-12.2-14.5-20.5c-2.1-6.6-2.9-13.3-1.8-20.1c1.7-10.6,5.6-20.4,10.4-29.8c5.8-11.4,13.3-21.4,23.6-29.1
	c7.4-5.6,15.6-9.2,24.8-10.2c7.5-0.9,15-0.1,21.6,4.2c5.3,3.5,9.5,8,13,13.4c5.2,8.2,6.5,17.3,6.5,26.7
	C348.8,444.8,348.6,445.3,348.5,446.1z"/>
<path class="st0" d="M364,206.9c-3.5,1.4-7.6,1.4-10.8,3.6c0.1,0.4,0.2,0.7,0.3,1c1.5-0.1,3-0.1,4.5-0.4c9.3-1.9,18.8-1.9,28.2-1.6
	c5.4,0.2,10.7,1.6,15.4,4.4c1.4,0.8,2.4,2.5,3.4,3.9c4.3,6.1,8.1,12.4,10.3,19.6c3,10,3.3,20-1.5,29.6c-2.4,4.7-6.2,8.2-11.3,10
	c-2.5,0.9-5.2,0.7-7.7-0.5c-8.2-4.2-12.9-11.3-15.7-19.7c-3.4-10.1-2.8-20.4-0.5-30.6c0.6-2.8,1.6-5.5,2.5-8.3
	c0.1-0.3,0.3-0.6,0.2-0.8c-0.2-0.6-0.5-1.2-0.8-1.8c-0.5,0.4-1.2,0.6-1.4,1.1c-0.9,2.1-1.7,4.3-2.3,6.5c-0.5,1.6-1.1,2-3,2
	c-2.6,0-5.3,0.7-7.8,1.4c-1.5,0.4-1.5,1.8,0,2.7c0.4,0.2,0.8,0.4,1.5,0.8c-0.3,0.6-0.6,1.2-0.9,1.7c-2.9,4.4-4.5,9.4-5,14.6
	c-0.9,8-1.2,16.1-1.9,24.2c-0.1,1-0.7,2.2-1.5,2.9c-8.9,8-19.5,12.8-31,15.8c-15.3,4-30.9,5.2-46.5,3.9
	c-18.4-1.5-35.4-7.1-50.2-18.4c-2.6-2-5.1-4.2-7.2-6.8c-1.4-1.7-2.1-4-2.7-6.2c-3.9-15.3-5.8-30.8-4.5-46.5c0.9-10.1,3.1-20,8.1-29
	c1.1-1.8,2.2-2.3,4.4-2.1c12.6,1.4,24.1,6.1,35.8,10.3c11.2,4,22.4,7.8,33.6,11.8c11.7,4.1,23.4,8.3,35.1,12.4
	c2.5,0.9,5,1.5,7.6,2.1c1.9,0.4,3.2-0.1,4.5-2c2.4-3.9,5.2-7.6,8.1-11.2c1.8-2.2,4.3-3.5,7.3-3.1C362.2,204.3,363.5,205.3,364,206.9
	z M266,273.3c5.3-0.4,10.6-0.8,15.9-1.4c1.1-0.1,2.5-0.6,3.2-1.5c4.3-5,6.8-10.9,6.6-17.6c-0.1-6-1.6-11.8-4.6-17
	c-3.6-6.2-9-10.3-15.9-11.9c-6.3-1.5-12.6-0.8-18.8,0.7c-7.9,2-13.5,6.7-17,14c-3.8,8-4.6,16.4-3.2,25.1c0.4,2.1,1.4,3.3,3.2,3.9
	c2.7,0.9,5.4,1.7,8.1,2.5C250.8,272.3,258.4,273.1,266,273.3z M247.8,193.3c-1.8,0.4-3.7,0.7-5.4,1.3c-1.9,0.6-3.5,2-3.5,4
	c-0.1,2.1,1.4,3.6,3.3,4.2c2.7,0.9,5.6,1.6,8.4,2.2c6.7,1.2,13.5,2.2,19.4,6c0.6,0.4,1.3,0.7,2,0.9c0.5,0.1,1.2,0.1,1.6-0.2
	c0.3-0.2,0.3-1,0.1-1.4c-0.7-1.6-1.5-3.2-2.4-4.7C265.7,197.2,257.4,194.1,247.8,193.3z"/>
<path class="st0" d="M361.9,487c-0.6-2.3-1.2-4.6-1.9-6.9c-1.7-5.5-3.4-11.1-5.1-16.6c-0.3-0.9-0.5-1.9-0.2-2.7
	c2.5-8.6,3.6-17.5,3.9-26.4c0.3-10.6-3.3-20.1-9.9-28.4c-6.3-8-14.2-14-23.5-18.1c-6.1-2.7-12.6-2.9-19.1-2.1
	c-13,1.7-24.3,7.4-35,14.5c-7.3,4.8-14.1,10.2-19.9,16.8c-7.5,8.6-13.2,18.2-16.7,29.1c-3.3,10.5-4.7,21.3-3.5,32.3
	c0.9,8.1,2.3,16,6.4,23.2c4.2,7.5,9.8,13.5,17.2,17.8c6.2,3.6,12.8,6.4,20,7.2c1.3,0.1,3.8,3.5,3.5,4.7c-0.1,0.3-0.8,0.8-1.1,0.8
	c-6.2-0.4-12.4-0.8-18.5-1.4c-17.4-1.8-32-10-45.1-21c-12.9-10.9-21.7-24.8-27.1-40.8c-1.6-4.9-2.7-10-3.9-15
	c-0.6-2.5-0.3-2.8,2.3-2.8c3.2,0,6.5,0,9.7,0c0.8,0,1.6-0.2,2.3-0.6c8.9-5.7,14.4-13.7,17.1-23.9c1.2-4.6,1.2-9.3,1-14.1
	c-0.1-1.5-0.8-2.1-2.2-2.4c-4.9-1.2-8-4.9-8.2-9.9c0-0.4,0.9-1.2,1.4-1.3c2.8-0.4,5.6-0.6,8.4-0.9c5.5-0.7,11-1.3,16.4-2.4
	c12.3-2.5,24.1-6.3,34.7-13.3c2.4-1.6,4.6-1.8,7.4-1.7c8.6,0.4,17.3,0.5,25.9,0.2c9.6-0.4,18.8-2.9,27.5-6.8
	c4.7-2.1,9.1-4.6,13.6-7.1c1-0.5,1.6-0.8,2.6,0.1c10.5,9,20.9,18.1,31.5,27c3,2.5,4.2,5.8,5.2,9.3c3.3,12.1,2.8,24.3,1.2,36.5
	c-2,15.5-7.4,29.8-15,43.3c-0.8,1.4-1.9,2.7-2.8,4C362.3,487.1,362.1,487,361.9,487z"/>
<path class="st0" d="M343,217.4c-8.8-3.1-17.4-6-26-9c-11.6-4.1-23.3-8.2-34.9-12.2c-13.1-4.6-26.1-9.5-39.4-13.6
	c-12.5-3.9-25.2-6.9-37.9-10.2c-11.4-3-23-5-34.7-6.5c-9.6-1.2-19.2-1.3-28.9-0.2c-2.7,0.3-5.3,1.5-7.9,2.4
	c-0.7,0.2-1.4,0.6-2.6,1.1c1.4-4.1,4.1-6.4,7.3-7.9c5.4-2.5,11.3-3.3,17.2-3c9,0.4,17.9,1.8,26.7,3.9c4.6,1.1,9.4,1.9,14,3.1
	c9,2.4,18,5,27,7.5c9.7,2.7,19.5,5.4,29.2,8.2c7.9,2.3,15.7,4.8,23.5,7.2c2.3,0.7,4.6,1.5,7,2.1c0.7,0.2,1.5-0.2,2.3-0.4
	c-0.5-0.6-1-1.4-1.6-1.7c-11.3-4.1-22.7-8.2-34.1-12.2c-3.4-1.2-6.9-2.4-10.3-3.5c-1.4-0.4-1.4-1.1-0.9-2.3c3.2-7.1,6-14.3,9.5-21.2
	c4.5-8.9,9.9-17.1,17.4-23.8c5.9-5.3,13-5.8,20.2-4.5c16.5,3.1,31.9,9.5,46.2,18.3c7.1,4.3,13.7,9.3,20.6,13.9
	c3.5,2.3,6.6,4.8,9.1,8.2c5.8,7.6,9.1,16.2,9.6,25.8c0.3,5.5-0.1,11.1-0.3,16.6c0,1.1-0.7,2.7-1.5,2.9c-0.8,0.3-2.2-0.5-3-1.3
	c-3.6-3.4-6.3-4.1-10.6-1.9c-1.6,0.8-3.2,1.9-4.3,3.3c-2.4,2.9-4.5,6-6.8,9.1C343.7,216,343.3,216.9,343,217.4z"/>
<path class="st0" d="M267.9,600.3c0.7,2.5,1.4,5,2.1,7.6c-0.1,0.1-0.3,0.2-0.4,0.2c-0.4-0.3-0.9-0.5-1.1-0.9c-1.2-2.6-3-5.2-3.3-7.9
	c-1.2-12,2.9-22.2,12.5-29.7c4.3-3.4,9.5-4.6,15-4.6c5.8,0,11.4,1,16.9,2.5c0.7,0.2,1.6-0.1,2.4-0.2c-0.5-0.7-0.7-1.7-1.4-2.1
	c-3.7-2.7-8-3.8-12.3-4.8c-1.3-0.3-1.8-0.9-2.2-2.2c-1.4-4-3-7.9-4.7-11.8c-0.9-2-0.6-3.2,0.9-4.6c3.3-2.9,7.1-3,11.1-2.3
	c5.4,0.9,9.9,4,14,7.3c4.5,3.5,8.7,7.5,13.3,10.9c7.3,5.4,15.4,9,24.6,9.1c3.7,0.1,7.2-0.7,10.5-2.5c1.3-0.8,2.1-0.7,2.1,1.2
	c0.1,8.8,0.6,17.5,0.3,26.3c-0.2,4.7-1.3,9.5-2.5,14.1c-1.2,4.8-4.4,7.6-9.5,8.8c-9.1,2-18.2,2.9-27.5,3.4c-9,0.5-18.1,0.2-27.1,0.6
	c-5,0.2-8.5-2.1-11.5-5.7c-6.1-7.5-6.8-16.9-1.8-25.5c0.7-1.1,1.3-2.3,1.8-3.5c-4.8,4.7-7.2,10.5-6.6,17.1c0.5,6.5,3.6,12,8.9,16.6
	c-3.4,1.3-6.2,1-9.1,0.5c-6.9-1.3-10.1-6.4-12.7-12.2c-0.8-1.9-1.6-3.8-2.3-5.8C268.2,600.2,268,600.3,267.9,600.3z"/>
<path class="st0" d="M433.2,434.5c-2.1,0.3-3.3-1.1-4.6-2.2c-4.6-4.1-9.1-8.4-13.8-12.5c-5.2-4.4-10.5-8.7-15.8-13
	c-11.6-9.3-23.2-18.4-34.8-27.7c-0.6-0.5-1-1.7-0.9-2.5c1.6-10.6,5.5-20.5,11.1-29.5c5.1-8.2,11-15.9,19.4-21.1
	c1.3-0.8,2.1-0.2,3.1,0.5c4.4,3.3,8.7,6.6,13.1,9.9c13.8,10.4,27.6,20.7,41.5,31c5,3.7,10.1,7.2,15.2,10.7c1.1,0.8,1.9,1.5,1.4,3
	c-2.1,6.2-4,12.5-6.4,18.5c-3.8,9.5-8.9,18.3-15,26.5c-2.6,3.4-5.6,6.4-9.9,7.8C435.5,434.1,434.4,434.3,433.2,434.5z M378.9,349.9
	c-0.1,0.2-0.2,0.5-0.2,0.7c1.6,1.1,3.2,2.2,4.7,3.3c3.3,2.5,6.5,5,8.5,8.7c1.2,2.3,0.8,4.1-1.6,4.6c-2,0.5-4.5,0.6-6.2-0.3
	c-3.7-2.1-7-4.9-10.5-7.4c-0.4-0.3-0.9-0.4-1.4-0.6c-0.2,0.5-0.6,0.9-0.5,1.4c0.4,5,1,9.9,3.2,14.5c3.9,8.3,12.1,11,20.5,7
	c1.6-0.7,2.7-0.6,4.1,0.4c11,8,22.1,15.9,33.2,23.8c2.8,2,5.8,3.7,8.9,5.2c5.4,2.5,9.9,2.2,12.9-4.5c0.2-0.5,0.5-1,0.7-1.5
	c1.3-2.8,0.9-5.5-1.3-7.6c-1.4-1.3-3.1-2.4-4.7-3.5c-13.1-8.8-26.3-17.7-39.5-26.4c-2.1-1.4-3.1-2.7-3-5.3c0.1-5.1-1.4-9.9-6.1-12.5
	C393.5,346,386.1,347.2,378.9,349.9z"/>
<path class="st0" d="M415,537.9c-2.5-2.7-4.8-5.3-7.1-7.8c-3.6-4-7.3-8-11-11.9c-1.1-1.2-1.3-1.9,0.1-3.2c6.9-6.4,11.7-14.4,15.5-23
	c5-10.9,7.6-22.4,8.4-34.4c0.4-7,0.2-14,0.3-21c0-0.3,0-0.7,0-1c0-0.2,0.2-0.5,0.4-0.9c0.6,0.4,1.1,0.6,1.5,1c3,2.9,6.2,5.5,8.8,8.7
	c3.2,4.1,6,8.5,8.5,13c11,19.9,20.1,40.7,29.3,61.5c3.9,8.9,7.5,17.9,11.3,26.8c0.7,1.7,0,2.2-1.5,2.4c-5.2,0.7-10.3,0.1-15.4-1.3
	c-7.3-1.9-13.2-6.7-19.9-9.9c-5.9-2.8-11.9-4.9-18.6-4.6C421.4,532.7,417.9,534.3,415,537.9z"/>
<path class="st0" d="M255.2,550.7c-1,6.8-1.6,13.2-3.1,19.5c-1.7,7.5-4.1,14.8-6.3,22.1c-0.2,0.7-1.1,1.4-1.8,1.7
	c-3.9,1.5-7.7,3.3-11.7,4.3c-4.7,1.2-9.5,1.8-14.3,2.5c-5.4,0.9-8-0.7-9.9-5.8c-3.2-8.3-4.2-16.9-0.7-25.4c1.5-3.8,4.1-6.6,8.2-7.7
	c-4.1,0.3-7.1,2.3-9.1,5.9c-3.2,5.7-3.5,11.8-3,18.1c0.4,4.8,1.3,9.3,4,13.4c0.2,0.3,0.2,0.6,0.3,0.9c-4.4,2.5-13.4,1.1-16.8-2.6
	c-3.6-3.9-5.6-8.5-5.8-13.9c-0.1-3.2-0.3-6.5,0-9.7c0.6-5.1,2.6-9.5,7.2-12.3c0.8-0.5,1.6-0.7,2.3-1.2c0.3-0.2,0.4-0.8,0.6-1.3
	c-0.4-0.1-0.9-0.3-1.2-0.2c-4.7,1.8-8,5-10.1,9.6c-2.7,6.1-2.5,12.4-1.8,18.7c0.2,2.5,1.5,4.8,2.3,7.3c0.2,0.7,0.5,1.4,1,2.6
	c-3.4-0.6-6.2-1.5-7.8-4.3c-1-1.9-1.9-3.9-2.2-6c-1.4-8.3-0.6-16.4,3.7-23.9c2.8-4.9,7.1-7.8,12.5-9.2c5.5-1.5,11-1.1,16.6-0.3
	c4.2,0.6,8.2,1.5,12.1,3.1c0.4,0.2,1-0.2,1.5-0.3c-0.2-0.5-0.2-1.3-0.5-1.5c-1.3-0.8-2.7-1.5-4.2-2c-6.8-2.4-13.8-3.5-21-3.3
	c-1.7,0-2.2-0.2-2-2.1c0.3-3.5,0.2-7,0.1-10.5c-0.1-2.4-0.5-4.8-0.7-7.2c-0.2-1.8,0.7-2.7,2.3-3c3.1-0.6,5.9,0.1,8.5,1.6
	c6.5,3.7,11.8,8.9,17.1,14.1c7,6.7,15,11.2,25.1,10.5c2.2-0.2,4.3-1,6.5-1.5C253.8,551.2,254.4,551,255.2,550.7z"/>
<path class="st0" d="M442.8,561.1c-2.4,0-3.7,1.3-4.9,2.8c-2.2,2.5-3.3,5.4-3.8,8.6c-1.1,6.8-1.9,13.7,0.2,20.4
	c0.4,1.3,1.3,2.5,1.9,3.8c0.6,1.2,0.6,2-1,2c-2.3,0-4.8,0.2-7-0.3c-4.6-1-6.5-4.9-7.7-8.9c-1.9-6.7-1.9-13.6-1.1-20.5
	c0.5-3.8,2.6-6.6,6-8.4c0.4-0.2,0.7-0.6,1-0.9c0-0.2-0.1-0.4-0.1-0.7c-0.7,0.1-1.5,0-2.1,0.2c-4.3,2-6.5,5.7-7.4,10
	c-1.3,7-1.5,14.1,0.3,21.1c0.4,1.4,1.1,2.8,1.5,4.2c0.2,0.5,0.2,1.1,0.3,1.7c-0.6,0.1-1.5,0.5-1.9,0.2c-1.7-1.2-3.8-2.2-4.7-3.8
	c-1.4-2.7-2.5-5.8-2.7-8.8c-0.4-4.8-0.5-9.7,0-14.5c0.7-7.4,4.9-12.8,11.6-15.8c7.9-3.5,16.2-3.1,24.5-2.2c1.7,0.2,3.3,0.5,5,0.6
	c0.5,0,1-0.5,1.6-0.8c-0.4-0.5-0.6-1.3-1.1-1.4c-7.1-2.1-14.3-3.8-21.9-2.5c-1.6,0.3-3.2,0.5-4.8,0.6c-0.4,0-1-0.1-1.2-0.4
	c-2.1-2.6-4.2-5.2-6.4-8c2-2.6,4.3-4.5,7.8-4.9c7.4-0.8,13.8,1.9,20.1,5.1c4.1,2.1,8,4.7,12.2,6.7c6.9,3.4,14.1,4.7,21.8,4.1
	c1.2-0.1,2.9-0.5,3.7,0.1c0.9,0.6,1.1,2.2,1.4,3.5c1.7,7.5,3.5,14.9,4.8,22.5c0.7,3.9,0.9,8-0.7,11.8c-0.4,0.9-1.3,1.9-2.1,2.2
	c-9.2,2.5-18.5,4.9-27.8,7.2c-2.2,0.6-4.5,0.9-6.7,1.3c-9.2,1.5-15.3-3.8-15.7-12.6c-0.2-5.2,0.3-10.4,0.8-15.5
	c0.4-3.5,2.3-6.4,5.4-8.4c0.3-0.2,0.5-0.4,0.8-0.7C442.6,561.7,442.6,561.5,442.8,561.1z"/>
<path class="st0" d="M381.5,400.4c2.4,2,4.9,4,7.3,6c5.3,4.4,10.5,9,15.9,13.1c2.5,1.9,3.2,4.3,3.7,7.1c1.6,10.7,1.1,21.4-1,32
	c-1.6,8-4.2,15.7-7.4,23.3c-4.5,10.6-10.2,20.4-17.9,29c-3.3,3.7-7.2,6.9-10.8,10.3c-0.5,0.5-1.2,0.8-2.1,1.4
	c-0.5-2.5-0.9-4.6-1.3-6.7c-1.5-8-3.1-16-4.6-24c-0.1-0.8-0.1-1.9,0.3-2.4c4.1-5.1,6.7-11,9.5-16.9c6.7-13.5,9.5-27.9,10.4-42.8
	c0.4-6,0.1-12-0.3-18c-0.2-2.9-1.2-5.8-1.8-8.6c-0.2-0.8-0.3-1.6-0.4-2.5C381,400.6,381.2,400.5,381.5,400.4z"/>
<path class="st0" d="M350.9,369.6c-2.1-1.5-4.5-3.1-6.9-4.9c-0.1-0.1,0.2-1.3,0.6-1.7c6.4-5.5,11.2-12.1,14.2-19.9
	c2-5.2,3.1-10.9,4.8-16.2c0.9-2.9,2.1-5.7,3.4-8.4c3-6,6.1-12,9.3-18c0.5-0.9,1.8-1.7,2.8-2c4.2-1.2,8.4-2.3,12.7-3.4
	c0.5-0.1,1.6,0.4,1.7,0.9c3.4,10.6,11.3,16.5,21,20.8c8.3,3.7,16.7,7.2,24.6,11.7c9.7,5.4,16.5,13.8,21.4,23.6
	c2.3,4.6,2.9,9.5,2,14.6c-0.3,1.9-0.9,2.1-2.4,1.1c-9.1-6.5-18.2-13-27.4-19.4c-12.2-8.5-24.5-17-36.8-25.4c-0.9-0.6-2.2-0.9-3.4-1
	c-6.6-0.7-13.3-0.8-18.6,3.9c-2.6,2.2-4.6,5.3-6.5,8.2c-4.5,6.9-9.1,13.7-12,21.5C353.9,360.2,352.5,364.7,350.9,369.6z"/>
<path class="st0" d="M352.8,457c-1.3-2.1-2.4-4.1-1.8-6.8c2.4-10,2.3-19.9-1.7-29.4c-5.1-12-13.5-20.8-26.4-24.4
	c-5.9-1.7-12-1.5-18-0.3c-12,2.3-22.3,8-31.2,16.2c-5.7,5.3-10.5,11.4-14.6,18c-5.6,9.2-10.2,18.8-13.4,29.1
	c-4.1,13.3-4.1,26.4,2.8,38.8c5,9,11.8,16.5,22,19.9c0.5,0.2,1.2,0.5,1.5,0.9c0.9,1.5,1.7,3.2,2.8,5.1c-0.8,0.1-1.4,0.3-1.9,0.2
	c-13.6-3.2-25-9.7-32.5-21.8c-3.1-5-4.9-10.6-5.9-16.5c-1.1-6.7-2-13.3-1.4-20.1c1.5-16.4,6.7-31.2,17.2-44.1
	c9.5-11.7,21.5-20.1,34.8-26.9c8.6-4.4,17.6-7,27.4-7.1c8.5,0,15.6,3.2,22.3,8c7.9,5.6,14.2,12.5,18.3,21.4c3.8,8.4,3.9,17.1,2.8,26
	c-0.5,4-1.2,8-1.8,12c-0.1,0.6-0.3,1.2-0.5,1.9C353.2,457,353,457,352.8,457z"/>
<path class="st0" d="M237.5,528.2c-1.4-0.2-2.8-0.3-4.1-0.7c-9.5-2.9-18.9-6.1-27.6-10.9c-12.4-6.9-22.9-15.9-31.3-27.3
	c-4.9-6.6-9.2-13.6-12.6-21.2c-4.4-9.9-5.8-20.4-5-31.2c0.9-13.5,4.9-26.2,11.3-38.1c0.6-1.1,1.1-2.2,2.7-1.5
	c1.4,0.6,3.1,0.6,2.7,3.1c-0.7,4.8-3.4,8-7.5,10.1c-1.5,0.8-2.2,1.7-2.2,3.4c-0.4,9.6,1.7,18.5,7.1,26.5c2,2.9,4.8,5.3,7,8
	c0.9,1.1,1.8,2.4,2,3.7c1.7,11.6,5.6,22.4,11,32.8c9.5,17.8,23.4,31,41.3,40.1c1.8,0.9,3.6,1.7,5.4,2.5
	C237.6,527.7,237.6,527.9,237.5,528.2z"/>
<path class="st0" d="M264,96.8c-0.5,0.4-0.9,0.9-1.4,1.2c-6,3.3-10.3,8.4-13.9,14.1c-6.9,10.7-11.3,22.5-14.9,34.6
	c-1.9,6.6-3.3,13.3-4.8,20c-0.4,1.7-0.8,2.4-2.8,1.8c-10.4-3.1-20.8-6.1-31.2-9c-3.1-0.9-6.2-1.4-9.3-2.1c-1.4-0.3-1.9-1-1.7-2.4
	c1.2-8.7,2.2-17.4,3.7-26c1.2-6.9,3.4-13.5,7.3-19.3c1.6-2.4,3.9-4.7,6.3-6.1c7.6-4.2,15.8-6.6,24.4-7.5c5.3-0.6,10.6-1.3,15.9-1.3
	c7.4,0.1,14.9,0.8,22.3,1.2C263.9,96.3,263.9,96.5,264,96.8z M210.8,105.4c0,0.1,0,0.1-0.1,0.2c-1.4,0-2.7,0.1-4,0
	c-1.5-0.1-2.4,0.5-2.8,2c-1.1,4.3-4.3,6.1-8.5,6.6c-0.9,0.1-2.1,0.9-2.4,1.7c-3.2,9.4-3.7,18.8,0.9,27.9c2.5,4.9,5.9,9.2,10.8,12
	c0.9,0.5,2.1,0.9,3,0.6c8-2.1,14.8-6.1,20-12.6c5-6.4,7.7-13.7,8.6-21.7c0.2-1.6-0.2-2.7-2-3.2c-3.8-1-5.9-3.4-5.9-7.4
	c-0.1-2.4-1.2-3.4-3.3-3.8C220.4,107,215.6,106.2,210.8,105.4z"/>
<path class="st0" d="M315.6,123.6c-1.4-0.5-2.8-1-4.2-1.6c-7.6-3.3-15.5-5.7-23.6-6.7c-5-0.6-10.2-0.8-15.1,0
	c-5.6,0.8-10,4.5-13.8,8.7c-7.3,8-12.4,17.3-16.3,27.2c-2.4,6-4.4,12.1-6.6,18.2c-0.5,1.5-1.2,2-2.7,1.1c-0.5-0.3-1.3-0.3-1.7-0.6
	c-0.4-0.4-1-1.2-0.9-1.7c1.9-7.9,3.5-15.8,5.9-23.5c3.1-10.3,6.9-20.3,12.5-29.5c3.7-6.1,8-11.6,14.3-15.4c3.3-2,6.5-2.4,10.3-1.5
	c13.1,3.3,24.7,9.5,35.1,18c2,1.6,3.9,3.3,5.9,5c0.5,0.4,0.8,1.1,1.2,1.6C315.8,123.3,315.7,123.4,315.6,123.6z"/>
<path class="st0" d="M211.7,178.4c-4.1,0-8.2-0.1-12.3,0c-13.4,0.4-26.4,3-38.2,9.7c-2.2,1.2-3.5,4-5.1,6.1
	c-0.5,0.6-0.7,1.5-1.1,2.1c-0.3,0.4-1,0.9-1.4,0.8c-8.1-2.2-15.8-5.2-20.9-12.4c-2.3-3.3-3-7-2.6-10.9c0.1-0.9,1-1.9,1.8-2.4
	c4.3-2.9,9.2-3.1,14.2-3.5c9.1-0.6,18.1,0.1,27.2,1.5c12.2,1.8,24.1,4.8,36.2,7.4c0.9,0.2,1.7,0.7,2.5,1
	C211.8,178,211.8,178.2,211.7,178.4z"/>
<path class="st0" d="M162,193.6c1-0.8,1.9-1.6,2.9-2.2c7.4-4,15.4-6,23.6-7.6c0.2,0,0.5,0.1,1,0.1c-0.1,0.6-0.1,1.1-0.3,1.6
	c-3.2,7.9-4.1,16.1-4.2,24.5c-0.1,10.8-1.1,21.5-3.6,32.1c-0.3,1-0.3,2.1-0.6,3.2c-0.1,0.3-0.6,0.5-1.2,1c0.4-2.8,0.6-5.2,1-7.6
	c0.8-4.7,0.2-9.1-2.4-13.2c-4.7-7.6-15.1-8.6-21.9-2.3c-2.4,2.2-4.1,4.8-5.1,7.9c-0.1,0.4-0.3,0.8-0.4,1.1c0,0.1-0.2,0.1-0.6,0.2
	c0-0.6-0.2-1.1-0.1-1.5c0.8-4.3,1.5-8.6,2.5-12.9c0.7-2.9,1.6-5.8,2.6-8.7c0.4-1.2,1.4-2.3,2.4-3c2.4-1.7,5.2-2.4,8.2-2.5
	c1.7-0.1,3.4-0.6,5-1.3c1.7-0.7,2.9-2.1,2.6-4.1c-0.3-1.8-2.5-4-4.3-4.1c-2.2-0.1-4.4,0-6.6,0C162.2,194.1,162.1,193.9,162,193.6z"
	/>
<path class="st0" d="M124.8,327.7c-0.3-0.4-0.7-0.8-0.8-1.3c-3-8.6-6.3-17.2-7.9-26.3c-1.9-10.6,2.8-21.4,11.9-27.2
	c3.1-2,6.2-3.9,9.4-5.5c1.2-0.6,2.9-0.6,4.4-0.4c2.4,0.2,4.7,0.8,7.6,1.3c-0.9,1.9-1.4,3.8-2.5,5.4c-2.1,3-3.1,6.4-3.2,10
	c0,0.6-0.5,1.6-1.1,1.9c-10.4,5.2-14.4,14.5-16,25.2c-0.7,4.8-0.6,9.7-0.9,14.5c0,0.8-0.1,1.5-0.2,2.3
	C125.3,327.6,125.1,327.7,124.8,327.7z"/>
<path class="st0" d="M370.1,527.1c-1-1.2-0.6-2.1,0.4-2.8c13.2-9.2,22-21.9,28.9-36c7.2-14.8,11.7-30.3,12-46.8
	c0.1-4.6-0.6-9.3-0.9-13.9c-0.1-0.8-0.1-1.6,0.2-2.7c0.9,0.8,1.7,1.6,2.6,2.2c4.3,2.8,5.2,6.6,4.9,11.6c-0.8,14.2-2.4,28.2-6.9,41.8
	c-4,11.9-9.5,23-18.5,31.9C386.5,518.8,379.1,524,370.1,527.1z"/>
<path class="st0" d="M193,525.1c-0.7-3.9-1.4-7.4-2.1-11.4c1,0.5,1.9,0.8,2.6,1.4c11.4,8.1,24.3,13,37.7,16.6
	c7.7,2,15.5,2.9,23.4,3.3c1.7,0.1,2.3,0.8,2.1,2.4c-0.4,3.2-0.6,6.3-1.1,9.4c-0.3,2.1-2.4,2.2-3.8,2.8c-7.8,2.8-15.1,0.8-21.8-3.4
	c-3.1-2-5.9-4.4-8.6-7c-4.8-4.5-9.4-9.1-15.1-12.4C202.1,524.5,198,523.1,193,525.1z"/>
<path class="st0" d="M262.7,380.5c-0.6,0.3-1.1,0.7-1.7,1c-11.6,4.4-23.5,7.9-35.7,10.1c-8.8,1.6-17.7,2.9-26.5,4.3
	c-1.4,0.2-2.8,0.5-4.2,0.7c-1.3,0.2-1.9-0.3-2.3-1.5c-0.8-2.6-0.6-5.2,0.3-7.8c0.2-0.6,1.2-1.2,1.9-1.2c4.5-0.4,9-0.5,13.5-0.9
	c10.4-0.8,20.3-3.5,29.9-7.5c2.4-1,4.7-1.2,7.2-0.7c4.9,0.9,9.8,1.5,14.8,2.3c1,0.1,1.9,0.4,2.9,0.6
	C262.6,380,262.7,380.2,262.7,380.5z"/>
<path class="st0" d="M169.7,246.8c6.1-0.2,10.9,1.6,14.8,5.8c3.2,3.5,2.8,9.5-1.1,12.4c-6.5,4.9-13.9,7.7-21.9,8.9
	c-0.6,0.1-1.6-0.1-2-0.5c-2.8-3-5.3-6.3-6.1-10.5c-1.1-5.6,1.5-9.6,5.7-12.9C162.3,247.4,166,246.4,169.7,246.8z M170.7,252.3
	c-0.8,0.5-1.6,0.7-1.7,1.1c-0.1,0.5,0.1,1.3,0.4,1.8c2.4,2.7,4.1,5.6,4.2,9.3c0,0.4,1.3,1.2,1.6,1c2.2-1.4,4.7-2.8,6.5-4.6
	c2.4-2.4,1.9-4.6-1.2-5.9C177.5,253.7,174,253.2,170.7,252.3z"/>
<path class="st0" d="M386.4,523.8c0.1,0.8,0.4,1.6,0.5,2.5c0.7,8.2,1.4,16.4,2.1,24.5c0.4,4.5-1.4,6.4-6.1,6.3
	c-3.7-0.1-6.8-1.5-9.6-3.8c-0.7-0.5-1-1.7-1.1-2.7c-0.3-2.9-0.5-5.8-0.7-8.7c-0.3-3.5-0.8-7-1-10.5c0-0.6,0.3-1.6,0.7-1.8
	C376.1,527.7,381.1,525.8,386.4,523.8z"/>
<path class="st0" d="M373.1,556c5.1,3.3,10.3,4.8,16.1,1.8c0.1,0.7,0.3,1.2,0.4,1.8c0.4,6.2,0.8,12.5,1,18.8c0,0.8-0.4,1.9-1.1,2.4
	c-4.6,3.4-9.8,5.6-15.2,7.2c-0.2,0.1-0.5,0-1.2,0C373.1,577.3,373.1,566.8,373.1,556z"/>
<path class="st0" d="M189,398.8c1.8,0,3.6,0,5.5,0c1.8,0,2.9,0.6,3.1,2.6c0.4,3.5,1.4,6.8,3.7,9.5c1.3,1.5,3,2.6,4.8,3.6
	c1,0.6,1.5,1.1,1.4,2.3c-0.9,11.6-5.6,21.2-14.5,28.8c-2.6,2.2-5.3,4-8.9,3.1c-1.1-0.2-2.3-0.4-3.1-1c-8.3-6.2-12.9-14.7-14.4-24.9
	c-0.4-2.5-0.4-5.1-0.6-7.7c-0.1-1.5,0.5-2.5,1.9-3.2c4.3-2.4,7.3-5.8,8-11c0.1-0.6,1.4-1.4,2.2-1.5c3.7-0.4,7.4-0.6,11.1-0.9
	C189,398.7,189,398.8,189,398.8z M186.9,401.9c-2.4,0.1-4.2,0.3-6.1,0.3c-1.5,0-2.3,0.7-2.7,2.2c-1.2,4.1-3.7,7.2-7.6,8.9
	c-1.4,0.6-2,1.6-1.9,3.2c0.2,6.4,1.8,12.5,4.8,18.2c2.5,4.7,6.1,8.5,10.8,11.3c1.3,0.8,2.4,1,3.9,0c9.4-6.7,15.6-15.2,15.7-27.2
	c0-1.4-0.4-2.4-1.7-3.2c-4.1-2.8-7.1-6.2-7.2-11.5c0-0.6-0.9-1.5-1.5-1.6C191,402.1,188.7,402,186.9,401.9z"/>
<path class="st0" d="M184.1,128.4c0,0.6,0.1,1.2,0,1.7c-1.8,7.9-2.1,15.9-2.5,23.9c-0.1,1.7-0.6,2.4-2.4,2.1
	c-5.2-0.9-10.5-1.7-15.7-2.5c-1.4-0.2-1.9-0.9-1.5-2.2c1.6-6.6,4.3-12.7,10-16.8c3.6-2.6,7.7-4.5,11.6-6.7
	C183.6,128,183.8,128.2,184.1,128.4z"/>
<path class="st0" d="M390.5,325.2c-0.5,0.5-0.9,1.1-1.4,1.5c-5.9,4.1-10.3,9.7-14.3,15.5c-6.1,8.8-10.1,18.5-12.6,28.9
	c-0.3,1.3-0.6,2.6-0.9,3.9c-0.2,1.1-0.8,1.4-1.7,0.8c-1.7-1.1-3.4-2.2-4.9-3.6c-0.5-0.4-0.5-1.6-0.3-2.4c1.2-5.7,3.9-10.9,6.8-15.9
	c4.5-7.7,9.1-15.3,13.7-22.8c2.5-4.2,6.9-5.1,11.2-6c1.3-0.2,2.7-0.3,4.1-0.4C390.4,324.9,390.5,325.1,390.5,325.2z"/>
<path class="st0" d="M153.2,199.9c-1.3,3.8-2.6,7.3-3.8,11c-2.1,6.8-3.9,13.6-4.2,20.7c0,0.6-0.5,1.3-0.7,1.9
	c-0.5-0.4-1.2-0.8-1.6-1.3c-3.7-5.3-4-11.2-3.3-17.4c0.6-4.8,3.8-8.3,6-12.2c0.2-0.4,0.5-0.7,0.7-1
	C148.6,198.1,149.1,197.9,153.2,199.9z"/>
<path class="st0" d="M149.4,255.3c0.6-3.5,1.1-6.5,1.7-9.6c0.6-3,1.2-5.9,1.9-8.8c1.3-5,3.6-9.3,8-12.2c3.2-2.2,6.7-1.6,10.1-0.8
	c0.4,0.1,0.9,0.8,0.9,0.9c-0.1,0.4-0.6,0.9-1,1c-7.8,2.1-11.1,8-12.7,15.2c-0.5,2-0.4,4.1-0.7,6.2c-0.1,0.5-0.4,1.1-0.7,1.6
	c-1.6,2.2-3.2,4.5-4.8,6.6c-0.4,0.5-1,1.2-1.3,1.1C150.1,256.3,149.7,255.6,149.4,255.3z"/>
<path class="st0" d="M193.5,448.4c2.4-2.5,4.9-4.8,7-7.5c5.5-6.9,8.6-14.9,9-23.8c0-0.5,0.1-1.1,0.2-1.6c0.1-1.3-0.2-2.4-1.6-2.6
	c-5.2-1-8.5-7.4-8.2-12.6c1.3-0.6,2.1-0.2,2.5,1.2c0.4,1.5,0.9,3,1.6,4.4c1.3,2.8,3.4,4.9,6.4,5.9c1.7,0.5,2.3,1.5,2.4,3.4
	c0.5,13.9-5.1,24.7-16.1,32.8c-0.8,0.6-1.9,0.8-2.9,1.1C193.6,448.9,193.5,448.6,193.5,448.4z"/>
<path class="st0" d="M158.9,296c-7.4-4.3-10.1-16.2-6.6-28.7c0.6,0.8,1,1.4,1.4,2c1.2,1.6,2.2,3.4,3.6,4.9c1.1,1.1,1,2.1,0.9,3.5
	c-0.4,3.7-1,7.5-0.9,11.2C157.2,291.2,158.2,293.5,158.9,296z"/>
<path class="st0" d="M178.2,395.7c-3.2-1-6.8-1.8-9.5-4.2c-0.9-0.8-0.9-2.7-1.2-4.1c-0.3-1.6-0.5-3.2-0.6-4.8
	c-0.1-0.9,0-1.9,1.4-1.5c2.7,0.8,5.3,1.8,8,2.6c1.4,0.4,1.9,1.1,1.8,2.8C177.9,389.4,178.1,392.4,178.2,395.7z"/>
<path class="st0" d="M208.5,294c1.2-4.1,1.8-8.2,4.4-11.5c1.6-2,4.4-2.2,6.1-0.2c1.3,1.6,2.3,3.4,3.3,5.3c0.2,0.4-0.1,1.6-0.5,1.8
	c-4.1,1.7-8.2,3.2-12.4,4.8C209.3,294.2,209,294.1,208.5,294z"/>
<path class="st0" d="M185.8,396.6c-3.5,0.7-5.2-0.3-5.7-4.9c-0.7-6.5,0.5-7.5,6.8-6.3c0.6,0.1,1.2,0.2,1.8,0.2
	c1.4,0.1,1.7,0.9,1.5,2.2c-0.3,2-0.5,4-0.5,6c0.1,2.6,0,2.8-2.6,2.7C186.7,396.6,186.2,396.6,185.8,396.6z"/>
<path class="st0" d="M365.6,315.5c-0.1-0.7-0.3-1.2-0.3-1.6c0.1-4.9,0.4-9.8,0.5-14.7c0-1.5,0.5-2.1,2-1.7c1.6,0.4,3.3,0.8,4.9,1.2
	c1.2,0.3,1.6,0.9,1,2c-2.4,4.7-4.8,9.5-7.2,14.2C366.3,315,366,315.1,365.6,315.5z"/>
<path class="st0" d="M386.2,294.5c-2.2,0.6-4.6,1-6.7,1.8c-4.6,1.6-8.7-0.4-12.9-1.7c-0.6-0.2-0.7-2.7-0.8-4.1
	c0-0.1,1.4-0.6,2.1-0.5c5.5,1,10.9,2.1,16.4,3.2c0.7,0.1,1.3,0.4,1.9,0.6C386.2,294,386.2,294.3,386.2,294.5z"/>
<path class="st0" d="M147.9,247.3c-0.2,2-0.3,4.1-0.6,6.1c-0.6,3.7-0.6,3.7,2.7,5.3c0.4,0.2,0.9,0.7,0.9,1.1
	c0.2,1.2,0.2,2.4,0.1,3.6c-0.1,1.4-1,2.4-2.5,2.3c-2.1-0.2-4.1-0.5-6.2-0.8c-0.4-0.1-0.9-1-0.8-1.4c1.7-5.2,3.5-10.4,5.2-15.6
	c0.1-0.2,0.3-0.4,0.4-0.6C147.4,247.2,147.7,247.2,147.9,247.3z"/>
<path class="st0" d="M160.1,246.2c-0.8-6.9,3.7-17.3,13.2-18.9c1.3-0.2,2.2,0.3,2.4,1.5c0.3,1.6-1.1,1.1-1.9,1.3
	c-3.8,1-6.7,3.2-8.4,6.7c-0.8,1.7-1.3,3.7-1.6,5.6C163.5,245.5,163.4,245.8,160.1,246.2z"/>
<path class="st0" d="M157,202.9c1.3-1.9,2.2-4.4,4-5.5s4.4-1,6.6-1.2c0.8-0.1,1.7,0.5,2.3,1c1.7,1.4,1.4,3.1-0.7,3.7
	c-1,0.3-2.1,0.4-3.2,0.6c-2.2,0.5-4.4,0.9-6.7,1.4c-0.6,0.1-1.2,0.3-1.9,0.4C157.3,203.2,157.1,203,157,202.9z"/>
<path class="st0" d="M177.8,240.8c0,0.3,0.1,0.7,0,1c-0.3,1.1-0.7,2.1-1.1,3.1c-0.5-0.2-1.4-0.3-1.6-0.7c-0.6-1.1-0.9-2.4-1.3-3.6
	c0-0.1,0.1-0.3,0.2-0.4c1-0.8,2-1.6,3-2.5c0.4,0.9,0.8,1.9,1.1,2.9C178,240.7,177.9,240.8,177.8,240.8z"/>
<path class="st0" d="M146.8,280.8c0.2,0.8,0.4,1.6,0.5,2.5c0,0.3-0.4,0.7-0.6,1c-0.3-0.3-0.8-0.6-0.8-0.9c0-0.9,0.2-1.8,0.3-2.6
	C146.3,280.7,146.6,280.7,146.8,280.8z"/>
<path class="st0" d="M297.6,723.3c-49.6,0-99.2,0-148.8,0c-3,0-5.9,0-8.9,0c-1.5,0-2.1-0.5-2.1-2.1c0-25.1,0-50.2,0-75.3
	c0-2.6,0.2-2.7,2.7-2.7c101.7,0,203.4,0,305.1,0c3.2,0,6.5,0,9.7,0c1.6,0,2.3,0.5,2.3,2.2c-0.1,24.5,0,49-0.1,73.5
	c0,4.5-0.1,4.5-4.4,4.5C401.3,723.2,349.5,723.2,297.6,723.3C297.6,723.2,297.6,723.3,297.6,723.3z M297.6,712.8L297.6,712.8
	c-39.9,0-79.8,0-119.7,0c-5.8,0-11.6,0-17.4,0c-0.7,0-1.4,0.6-2.1,1c0.7,0.4,1.4,0.8,2.1,1.2c0.2,0.1,0.4,0,0.6,0
	c91,0,181.9,0,272.9,0c0.3,0,0.8,0.1,1,0c0.5-0.3,1-0.8,1.5-1.3c-0.5-0.3-1-0.9-1.5-0.9c-1.7-0.1-3.5-0.1-5.2-0.1
	C385.8,712.8,341.7,712.8,297.6,712.8z M297.6,653.2c28.8,0,57.6,0,86.4,0c16.9,0,33.9,0,50.8,0c0.5,0,1.1-0.7,1.6-1
	c-0.6-0.4-1.1-1-1.7-1.1c-1.1-0.2-2.3,0-3.4,0c-90.2,0-180.5,0-270.7,0c-0.4,0-0.9-0.1-1.2,0.1c-0.4,0.2-0.7,0.7-1.1,1
	c0.4,0.3,0.7,0.8,1.1,0.9c0.9,0.2,1.7,0.1,2.6,0.1C207.4,653.2,252.5,653.2,297.6,653.2z M232.2,682.2c1.3-1.5,2.6-2.5,3.2-3.8
	c1.8-3.8,0-10.1-6.6-10.2c-5.3-0.1-10.5,0-15.8,0c-1.2,0-2.1,0.4-1.9,1.7c0.2,1.3-1,3.4,1.3,3.8c1.4,0.3,1.6,0.9,1.5,2.1
	c-0.1,4.4,0,8.8,0,13.1c0,1.2-0.3,1.9-1.6,2c-0.4,0-1.1,0.8-1.2,1.2c-0.2,0.9-0.1,1.9-0.1,2.8c0,1.3,0.7,1.8,1.9,1.8
	c2.9,0,5.8,0,8.7,0c0.5,0,1.5-0.3,1.5-0.6c0.3-1.3,0.4-2.7,0.3-4c0-0.5-0.9-0.9-1.4-1.4c-0.3-0.3-0.7-0.7-0.7-1.1
	c-0.1-1.3-0.1-2.7,0-4c0-0.4,0.6-0.9,1-1c2.6-0.8,4.8,0.7,5,3.4c0.1,2.2,0.1,4.5,0.1,6.7c0,1.3,0.5,2,1.9,2c2.1,0,4.2,0,6.3,0
	c1.3,0,1.9-0.5,1.9-1.8c0-0.9,0.1-1.9-0.1-2.8c-0.1-0.5-0.7-1.2-1-1.2c-1.7,0-1.7-1.1-1.8-2.3C234.7,686.2,235.3,683.5,232.2,682.2z
	 M320.2,681.7c0.5-0.4,0.9-0.8,1.3-1.1c2.5-1.6,3.1-3.7,2.6-6.6c-0.6-3.3-4-5.6-7.9-5.7c-4.4-0.1-8.8,0-13.1-0.1
	c-1.3,0-2.2,0.5-2.1,1.8c0.2,1.4-1.2,3.4,1.4,4c0.6,0.1,1.4,0.9,1.4,1.4c0.1,4.7,0.1,9.4,0,14.1c0,0.5-0.8,1.3-1.2,1.3
	c-1.4,0-1.7,0.7-1.8,1.9c0,4-0.1,4.2,3.7,4c0.2,0,0.4,0,0.6,0c4.9-0.2,9.8-0.1,14.7-0.6c3.3-0.4,5.1-3,5.4-6.6
	c0.3-3.3-1.1-5.6-4.1-7.1C321,682.3,320.7,682,320.2,681.7z M281.9,696.8L281.9,696.8c3.1-0.1,6.2-0.1,9.3-0.5
	c3.6-0.5,5.5-2.7,6.1-6.6c0.5-2.8-0.9-5.6-3.8-7.2c-1.4-0.8-1.2-1.3-0.1-2.1c3.3-2.2,3.8-6.4,1.2-9.4c-1.9-2.2-4.4-2.8-7.1-2.8
	c-4.2-0.1-8.4-0.1-12.5,0c-0.7,0-2,0.9-2,1.2c0.1,1.5-1.1,3.6,1.1,4.2c1.5,0.5,1.7,1.1,1.7,2.4c-0.1,4.3-0.1,8.6,0,13
	c0,1.1-0.2,1.8-1.5,1.8c-1.2,0-1.5,0.7-1.4,1.8c0.1,0.7,0.1,1.3,0.1,2c0,1.6,0.7,2.2,2.2,2.1C277.4,696.8,279.6,696.8,281.9,696.8z
	 M259.7,680.9h-0.1c0,2,0.1,3.9,0,5.9c-0.1,1.6-0.8,2.8-2.4,3.4c-3.6,1.4-6.5-0.5-6.6-4.5c-0.1-3.2,0-6.5,0-9.7c0-1.2,0.3-2,1.8-2.1
	c0.5,0,1.1-0.9,1.3-1.5c0.2-0.7,0-1.6,0-2.4c0-1.2-0.6-1.7-1.8-1.7c-3.2,0-6.5,0-9.7,0c-1.2,0-2.1,0.5-1.8,1.8
	c0.2,1.3-1.1,3.4,1.4,3.8c1.4,0.2,1.6,0.8,1.6,2c-0.1,3.8-0.2,7.7,0,11.5c0.1,1.8,0.7,3.8,1.7,5.3c3.2,4.8,8.2,5.3,13.3,4.4
	c5.8-1,8.6-4.7,8.6-10.5c0-3.5,0-7,0-10.5c0-1.1,0.1-1.9,1.5-2.2c2.3-0.5,1.2-2.5,1.4-3.9c0.2-1.3-0.8-1.7-2-1.8c-3.2,0-6.5,0-9.7,0
	c-1.2,0-1.7,0.6-1.7,1.8c0,0.7,0,1.5,0,2.2c-0.1,1.1,0.4,1.7,1.5,1.7c1.6,0,1.7,0.9,1.7,2.1C259.6,677.6,259.7,679.2,259.7,680.9z
	 M369.8,668.2L369.8,668.2c-3.6,0-7.1,0.1-10.7,0c-1.4,0-2,0.5-2,1.8c0,0.8-0.1,1.7,0.1,2.4c0.2,0.6,0.8,1.4,1.2,1.4
	c1.5,0,1.8,0.9,1.7,2.1c0,4.5,0,8.9,0,13.3c0,1-0.2,1.7-1.5,1.7c-1.2,0-1.6,0.7-1.6,1.8c0,0.8,0.1,1.6,0,2.4c0,1.2,0.6,1.7,1.8,1.7
	c7.3,0,14.6,0,21.8-0.1c0.6,0,1.8-1,1.8-1.5c0.2-2.8,0-5.5,0-8.3c0-0.5-0.4-1.1-0.7-1.3c-1.8-0.9-4.1,0.1-4.7,1.9
	c-1.2,3.5-1.2,3.5-5,3.4c-0.3,0-0.7,0-1,0c-3.7-0.1-3.7-0.1-3.6-3.8c0-1.9,0.9-2.5,2.6-2.4c2.8,0.1,3-0.1,3-2.9c0-3.3,0-3.3-3.2-3.4
	c-0.3,0-0.5,0-0.8,0c-1.8-0.2-1.5-1.5-1.5-2.7s0.4-1.9,1.7-1.9c1.6,0,3.2,0.1,4.9,0c1.5-0.1,2.2,0.6,2.7,1.9
	c1.1,2.7,1.5,2.9,4.2,2.8c1.2-0.1,1.7-0.6,1.7-1.8c0-2.1,0-4.2,0-6.3c0-1.6-0.6-2.3-2.3-2.3C376.8,668.3,373.3,668.2,369.8,668.2z
	 M341.5,696.9L341.5,696.9c3.3,0,6.6,0,9.9,0c1.4,0,2.2-0.4,2.2-1.9c0-2.6,0-5.1,0-7.7c0-0.5-0.3-1.3-0.7-1.5c-1.8-1-4-0.1-4.7,1.8
	c-1.3,3.5-1.3,3.5-5,3.5c-0.5,0-1.1,0-1.6,0c-1.4,0.1-1.9-0.5-1.9-1.9c0.1-4.5,0-8.9,0-13.3c0-1.1,0.2-1.7,1.5-1.9
	c0.5,0,1.1-1,1.3-1.6c0.2-0.7,0-1.6,0-2.4c0-1.2-0.5-1.7-1.7-1.7c-3.1,0-6.2,0-9.3,0c-1.1,0-2.3,0.3-2,1.6c0.2,1.4-1.2,3.5,1.5,4.1
	c0.5,0.1,1.3,1,1.3,1.5c0.1,4.7,0.1,9.3,0,14c0,0.5-0.8,1.4-1.3,1.5c-1.3,0.1-1.5,0.8-1.5,1.9c0,0.6,0,1.2,0,1.8
	c-0.1,1.6,0.5,2.3,2.2,2.3C334.9,696.8,338.2,696.9,341.5,696.9z M446.5,682.7L446.5,682.7c0-6.2,0-12.4-0.1-18.6
	c0-1,0.7-2.6-1.1-2.6c-0.3,0-0.9,1.7-0.9,2.6c-0.1,12.3-0.1,24.7-0.1,37c0,0.6,0,1.2,0.2,1.8c0.2,0.4,0.7,0.7,1,1.1
	c0.3-0.3,0.8-0.7,1-1.1c0.2-0.3,0.1-0.8,0.1-1.2C446.5,695.4,446.5,689,446.5,682.7z M147.8,682.5c0,6.6,0,13.2,0,19.8
	c0,0.5,0.6,1.1,0.9,1.7c0.4-0.5,1-1.1,1.1-1.7c0.2-0.9,0-1.9,0-2.8c0-12,0.1-24,0-36c0-0.8-0.7-1.7-1.1-2.5
	c-0.3,0.8-0.9,1.6-0.9,2.5C147.7,669.8,147.8,676.2,147.8,682.5z M445.6,719.3c3.9,0.3,6.1-3.3,6.1-5.9c0-3.3-2.7-5.9-6-5.9
	s-6,2.8-6,6.1C439.8,716.4,442.8,719.3,445.6,719.3z M149.2,658.6c3.7-0.1,6.1-2.6,6-6.1c-0.1-3.2-2.8-5.7-6.2-5.6
	c-3.2,0.1-5.8,2.8-5.6,6.1C143.6,656,146.3,658.7,149.2,658.6z M445.7,658.7c3.3,0,5.9-2.6,5.9-5.9c0-3.4-2.4-5.9-5.9-5.9
	c-3.3,0-6.1,2.8-6,6C439.8,655.8,442.8,658.7,445.7,658.7z M149.3,719.3c3.3,0.4,6.2-3.2,6-6c-0.2-3.2-3-5.9-6.3-5.8
	c-3,0.1-5.6,3-5.5,6.2C143.6,716.6,146.3,719.3,149.3,719.3z"/>
<path class="st0" d="M553.4,663.7c10.7,0.3,19.5,4.7,27.5,11.3c2,1.6,3.8,3.5,5.7,5.2c1,0.8,1.1,1.7,0.5,2.8c-4,7-4,14,0.1,20.9
	c0.6,1,0.8,2-0.3,2.8c-7.3,6.2-15,11.9-23.3,16.7c-1.2,0.7-1.8,0.4-2.8-0.5c-2.5-2.2-4.8-4.5-7.6-6.2c-3.5-2.1-7.5-1.8-11.4-0.5
	c-1.4,0.5-2.2,0.3-2.9-1.1c-5.1-9.9-7.7-20.2-6.3-31.4c0.7-5.2,2.4-10.1,4.6-14.8c0.9-1.9,2.4-2.9,4.3-3.3
	C545.4,665,549.4,664.4,553.4,663.7z M552.3,667c-2.1,0.2-4.3,0.4-6.4,0.7c-2.9,0.5-5,1.9-6.2,4.8c-5.5,13.5-3.7,26.5,2.5,39.3
	c0.7,1.5,1.8,1.3,3,0.8c3.8-1.7,7.4-1.2,10.6,1.5c1.3,1.1,2.5,2.4,3.7,3.7c0.7,0.8,1.3,1.3,2.6,0.7c7.7-4.1,14.4-9.5,20.9-15.1
	c1-0.9,1-1.7,0.3-2.6c-4-5.5-3.5-11.1-0.2-16.7c0.7-1.2,0.5-2-0.5-2.8c-2.1-1.8-4.1-3.7-6.3-5.4C569.2,670.5,561.3,667.2,552.3,667z
	"/>
<path class="st0" d="M531.6,45.2c-0.2-11.3,3.6-20.2,9.1-28.7c0.8-1.2,1.8-1.3,3-1c3.2,1,6.5,1.1,9.8,0.5c4-0.7,7.4-2.5,10.2-5.4
	c0.9-0.9,1.7-1.3,3-0.4c7.5,5.7,14.7,11.6,21.1,18.5c1.2,1.3,1.2,2.2,0.2,3.6c-3.9,5.3-5.7,11.1-3,17.6c0.1,0.2,0.2,0.5,0.4,0.7
	c1.7,3,1.8,3.1-1,5.3c-11.5,9.4-24.5,13.7-39.5,11.7c-4.5-0.6-7.5-2.4-9.4-6.7C533.1,55.7,531.5,50.2,531.6,45.2z M534.9,44.6
	c-0.2,4.5,0.7,8.9,2.4,13c1,2.3,1.7,5.3,4.6,5.7c4.4,0.6,8.8,1,13.2,0.8c5.7-0.2,11.1-2.2,16.2-4.9c3.5-1.9,6.9-4.3,10.2-6.4
	c1-0.6,1.3-1.3,0.5-2.5c-3.5-4.8-3.5-8.6-0.1-13.8c2.5-3.9,2.5-3.9-0.8-7.4c-0.4-0.4-0.8-0.8-1.2-1.1c-5-4.2-10-8.4-15-12.7
	c-1.5-1.3-2.5-1.4-3.9,0.1c-4.4,4.7-9.7,5.4-15.6,3.6c-1.2-0.4-2.1-0.2-2.7,0.9C538.2,27.5,535.2,35.6,534.9,44.6z"/>
<path class="st0" d="M45.9,666.8c1.9,0.2,5.1,0.6,8.3,1c2.1,0.2,3.6,1.2,4.7,3c5.8,9.2,6.7,19.1,4.6,29.6c-1.3,6.2-4.1,11.7-7.3,17
	c-1,1.6-1.9,2.4-4.2,2c-7.5-1.5-14.5-0.4-20.1,5.4c-0.9,1-1.7,0.5-2.5-0.1c-5.1-4.2-10.3-8.3-15.3-12.5c-2.1-1.8-3.9-3.9-5.8-5.9
	c-1.1-1.1-1.2-2.1-0.1-3.5c2.7-3.6,4.7-7.6,4.3-12.1c-0.2-2.5-1.3-5-2.4-7.4c-0.6-1.4-0.7-2.2,0.5-3.2
	C20.3,671.5,31.5,666.8,45.9,666.8z M46.1,670.6c-5-0.2-9.8,0.8-14.5,2.4c-6.2,2.1-11.8,5.3-16.9,9.3c-0.7,0.6-1.7,1.1-0.7,2.4
	c3.6,4.9,3.6,8.5,0.4,13.6c-0.9,1.3-2.4,2.8-2.2,4c0.2,1.4,1.9,2.6,3,3.9c0.2,0.3,0.5,0.5,0.7,0.7c5.3,4.4,10.5,8.8,15.8,13.2
	c1.2,1,1.9,0.8,3-0.3c4.1-4.2,9.1-5.6,14.8-4.2c3,0.8,3.2,0.9,4.8-2c2.6-4.8,4.9-9.6,6-14.9c1.8-8.4,1.4-16.5-2.8-24.1
	c-1-1.8-2.3-3.1-4.5-3.3C50.6,671.2,48.3,670.9,46.1,670.6z"/>
<path class="st0" d="M42.6,72.8c-10.7-0.7-19.8-4.9-27.9-11.6c-1.9-1.6-3.5-3.4-5.3-5c-0.9-0.8-0.9-1.5-0.3-2.5
	c2.3-4.1,3.4-8.6,2.6-13.2c-0.5-2.8-1.7-5.5-2.8-8.1c-0.5-1.1-0.6-1.9,0.4-2.6c7.4-6.2,15-12.1,23.5-16.8c1.2-0.6,1.8-0.2,2.5,0.7
	c2.4,2.8,5.2,5.1,8.7,6.5s7,1.5,10.4-0.1c1.3-0.6,2-0.2,2.6,0.9c5.2,9.3,7.5,19.3,6.6,30c-0.5,5.5-2.1,10.7-4.3,15.7
	c-1,2.4-2.9,3.8-5.3,4.3C50.3,71.6,46.4,72.2,42.6,72.8z M59.8,47.4c-0.4-2.9-0.5-5.9-1.1-8.8c-0.9-4.8-2-9.6-4.6-13.9
	c-0.8-1.3-1.6-1.5-2.8-0.9c-5.6,2.8-11-0.6-13.9-4.5c-1.2-1.6-2.2-1.9-3.9-1c-7.4,4-13.8,9.4-20.2,14.8c-0.9,0.8-1.1,1.6-0.4,2.6
	c3.9,5.3,3.7,10.8,0.4,16.3c-0.8,1.4-0.7,2.4,0.5,3.3c3.2,2.5,6.2,5.3,9.5,7.5c8.1,5.2,16.9,7.6,26.6,6c3-0.5,5.4-1.9,6.5-5
	C58.4,58.5,59.7,53.1,59.8,47.4z"/>
<path class="st0" d="M277.7,269.5c5.3-5.6,7.2-12.1,6-19.4c-0.7-4.3-3.2-7.7-6.2-10.9c-5.5-5.8-15.4-7.9-22.4-4.1
	c-14.5,7.7-16.6,19.1-8.2,33.4c-2.8-0.8-5.1-1.4-7.3-2.1c-5-1.6-5-1.6-5-6.9c-0.1-7.6,1.6-14.6,5.9-20.9c3.9-5.7,9.3-9.2,16.3-9.6
	c4-0.2,8-0.4,11.9,0.1c5.8,0.8,10.4,3.9,13.4,9.1c3.7,6.3,5.4,13.1,4.5,20.3c-0.4,2.9-1.3,5.8-2.3,8.6
	C283.3,269.8,281.6,270.3,277.7,269.5z"/>
<path class="st0" d="M258.6,269.2c-3.3,1.1-7.6,0-9.6-2.1c-8.9-10-5.4-25.5,7.1-30.3c10.6-4.1,21,1.6,24.4,11.4
	c2.7,8,0.7,15-5.6,20.7c-2.3,2.1-5,1.2-7.5,1.4c-0.1-0.2-0.1-0.5-0.2-0.7c0.6-0.4,1.1-0.8,1.7-1c9.3-3.3,12.9-14.5,7.9-22.7
	c-3.5-5.8-8.9-8.3-15.6-7.4c-5.9,0.8-10,4.1-12.2,9.6c-3.2,7.8,0.5,17.1,7.8,20.1C257.4,268.4,257.9,268.8,258.6,269.2z"/>
<path class="st0" d="M271,250c0,1.9-1.8,3.7-3.7,3.7c-2,0-3.6-1.6-3.6-3.7c0-2.1,1.5-3.5,3.8-3.5C269,246.5,271,248.4,271,250z"/>
<path class="st0" d="M270,208.1c-0.9-0.2-1.3-0.2-1.5-0.4c-5.4-3.2-11.5-3.6-17.4-4.8c-2.6-0.5-5.1-1.1-7.6-2
	c-0.9-0.4-1.5-1.6-2.3-2.5c0.9-0.7,1.8-1.7,2.9-1.9c8.7-1.7,18.6,1.5,24.6,9C269.1,206.2,269.4,206.9,270,208.1z"/>
<path class="st0" d="M373.9,362.5c2.3,1.6,4.4,3.4,6.6,4.7c3,1.8,6.3,3.1,10,2c3.1-1,4.5-3.2,3.2-6.2c-0.8-1.9-2.1-3.8-3.6-5.3
	c-2.4-2.4-5.1-4.5-7.8-6.8c0.4-0.3,0.8-0.7,1.3-0.8c4.5-0.7,9-1.3,13.4,0.2c5.9,2,8.8,7,8.3,13.5c-0.2,2.1,0.5,3.3,2.2,4.4
	c14.8,9.8,29.5,19.7,44.2,29.6c2.7,1.8,3.4,4.1,2.1,7c-1.2,2.7-2.4,5.6-6,5.9c-1.2,0.1-2.7,0.2-3.7-0.4c-4.3-2.3-8.6-4.5-12.6-7.2
	c-10.4-7.2-20.6-14.6-30.8-22c-2-1.4-3.6-1.8-5.9-0.7c-4,1.8-8.4,2.6-12.5,0.2c-2-1.2-3.9-3.1-5.2-5.2c-2.4-3.6-3.2-7.8-3.6-12.1
	C373.6,363.1,373.7,362.9,373.9,362.5z"/>
<path class="st0" d="M210.7,107.6c4.6,0.7,9.2,1.5,13.8,2.2c1.1,0.2,1.8,0.6,1.8,1.9c0.3,4.3,2.5,7.3,6.4,9.1
	c0.6,0.3,1.3,1.2,1.2,1.7c-1.4,13.1-7.5,23.1-19.5,29.2c-0.6,0.3-1.2,0.6-1.8,0.8c-5.8,2.3-7.7,1.9-11.9-2.8
	c-6.6-7.4-9-16.1-7.4-25.9c0.1-0.5,0.2-0.9,0.2-1.4c0.3-3.7,1.4-6.4,5.7-7.1c3.4-0.5,5.3-3.2,6.6-6.2c0.3-0.6,1.2-1.1,1.9-1.3
	c0.9-0.2,1.9-0.1,2.8-0.1C210.6,107.7,210.6,107.7,210.7,107.6z M194.3,129.6c0.3,8.4,3.6,15.1,10.2,20.2c1,0.8,2.6,1.5,3.6,1.2
	c2.6-0.6,5.4-1.4,7.7-2.9c8.5-5.4,12.2-13.9,14.4-23.2c0.3-1.1-0.1-1.9-1.2-2.4c-3.1-1.6-4.5-4.2-4.8-7.7c-0.1-0.8-0.7-1.8-1.3-2.1
	c-4.9-2.1-10.1-2.2-15.3-2.3c-0.6,0-1.6,0.8-1.8,1.5c-1.1,3.4-3.5,5.1-6.8,5.6c-1.7,0.2-2.4,0.9-2.7,2.4
	C195.6,123,195,126.3,194.3,129.6z"/>
<path class="st0" d="M173.3,255c2.2,0.6,4.4,1.1,6.6,1.9c1.1,0.4,1.6,1.5,0.4,2.5c-1.2,1.1-2.5,2.1-3.9,3.2c-1.2-2.6-2.2-4.8-3.2-7
	C173.2,255.5,173.2,255.3,173.3,255z"/>
<path class="st0" d="M191.3,441.1c-0.1-1.6-0.2-2.6-0.3-3.6c-0.1-2.6-0.3-5.2-0.2-7.9c0-0.9,0.4-2.1,1-2.6c5.6-4.6,4.3-9.1,0.8-13.5
	c-0.7-0.8-1.5-1.6-2.3-2.2c-0.4-0.3-1.2-0.7-1.5-0.5c-0.4,0.2-0.7,0.9-0.8,1.5c-0.2,1.7-0.1,3.5-0.5,5.2c-0.2,1-1.1,1.9-1.7,2.9
	c-0.8-0.9-2-1.8-2.2-2.8c-0.4-1.7-0.2-3.5-0.2-5.2c0-0.7,0-1.4,0-2.6c-3.9,2.1-6.5,4.8-7.6,8.6c-1,3.4,0.5,6.1,3.2,8.1
	c1.4,1.1,2,2.2,1.8,4.1c-0.2,3.3-0.1,6.5-0.1,9.8c-0.3,0.1-0.6,0.3-0.9,0.4c-0.6-0.7-1.2-1.5-1.8-2.2c-4.9-6.3-7.3-13.4-7.7-21.3
	c-0.1-1.3,0.3-2.1,1.5-2.8c3.6-1.8,6.1-4.7,7.4-8.5c0.6-1.7,1.6-2.2,3.3-2.2c3,0.1,6.1,0.1,9.1,0.1c1.2,0,1.7,0.5,1.8,1.6
	c0.4,4.7,3.1,8.1,6.8,10.7c1.7,1.2,2.1,2.5,1.9,4.5c-0.7,7.3-3.8,13.4-8.8,18.6C192.8,439.9,192.3,440.3,191.3,441.1z"/>
<path class="st0" d="M189.8,413.3c5.3,4.8,5.4,9.1,0.8,12.6c-0.8,0.6-1.4,2-1.4,3c-0.1,4.2,0.2,8.4,0.3,12.5c0.1,2.2-2.8,4-4.8,3
	c-2.3-1.1-2.7-2.1-2.6-4.6c0.2-3.7,0.2-7.4,0.4-11.1c0.1-1.6-0.8-2.6-2.1-3.4c-4.9-3-3.7-8.7,0.8-11.9c0.2,1.5,0.3,3,0.7,4.3
	c0.3,1.1,0.9,2.3,1.6,3.1c1.5,1.7,3.6,1.5,4.6-0.5c0.7-1.4,0.9-3.1,1.3-4.6C189.7,415.1,189.7,414.4,189.8,413.3z"/>
<path class="st0" d="M224.2,674c2.9,0,4,0.9,4,3c0,1.9-1.8,3.1-4.6,3c-2.1,0-2.2-0.3-2.2-3.7C221.4,674,221.5,674,224.2,674z"/>
<path class="st0" d="M311.2,687.9c0.2-1.5-0.8-3.7,2.1-3.6s4.3,1.1,4.3,3.3s-1.5,3.2-4.5,3.3C310.3,691.2,311.5,689.1,311.2,687.9z"
	/>
<path class="st0" d="M311.3,676.3c-0.3-1.5,0.3-2.5,2.4-2.4s3.5,1.3,3.4,3c-0.1,1.6-1.4,2.6-3.4,2.6
	C311.2,679.5,311.2,679.5,311.3,676.3z"/>
<path class="st0" d="M285.1,691.1c-1.7,0.3-2.1-0.8-2.1-2.5c0-3.7,0.2-4.1,2.5-4.1c2.6,0,3.9,1.1,4,3.3
	C289.5,690,288.2,691,285.1,691.1z"/>
<path class="st0" d="M283,677c0-2.8,0.2-3.1,2.5-3c2,0,3.4,1.2,3.4,2.9s-1.4,2.6-3.7,2.7C282.9,679.6,282.9,678.3,283,677z"/>
<path class="st0" d="M445.9,709.5c2.1,0,4,1.8,4,3.8c0,2.3-2,4.2-4.2,4.2c-2.3,0-3.9-1.7-3.9-4C441.8,711.1,443.4,709.5,445.9,709.5
	z M443.4,714.5c-0.1,0.1-0.3,0.2-0.4,0.4c0.9,0.6,1.7,1.7,2.5,1.7c0.9,0,1.9-1,2.8-1.5c-0.1-0.2-0.2-0.4-0.3-0.5
	C446.5,714.5,444.9,714.5,443.4,714.5z"/>
<path class="st0" d="M149.3,656.7c-2.3,0-3.9-1.7-3.9-4.2c0-2,1.7-3.6,3.8-3.7c2.3-0.1,4.1,1.5,4.2,3.6
	C153.5,654.8,151.7,656.7,149.3,656.7z M146.9,653.7c0.2,1.4,1,2.4,2.6,2.2c1.1-0.2,2.5-0.5,2.3-2.2
	C150.1,653.7,148.6,653.7,146.9,653.7z"/>
<path class="st0" d="M441.8,652.6c0-2.2,1.5-3.7,3.8-3.8c2.3,0,4.4,1.8,4.3,3.8c0,2.3-1.9,4-4.4,4.1
	C443.1,656.8,441.8,655.4,441.8,652.6z M442.6,653.7c0.9,1.4,1.9,2.6,3.5,2.2c0.9-0.2,1.7-1.2,2.5-1.9c-0.1-0.1-0.3-0.2-0.4-0.4
	C446.5,653.7,444.7,653.7,442.6,653.7z"/>
<path class="st0" d="M149.6,709.5c2.2,0,3.9,1.8,3.8,4.1c-0.1,2.2-1.9,3.8-4.1,3.9c-2.1,0-3.9-2-3.9-4.1
	C145.4,711,147.1,709.5,149.6,709.5z M146.9,714.4c-0.2,1.2,0.9,2.1,2,2.2c1.3,0.1,2.5-0.5,2.8-2.2
	C150.2,714.4,148.6,714.4,146.9,714.4z"/>
<path class="st0" d="M552.2,669.1c8.5-0.1,15.6,3.3,22.2,8.1c2,1.4,3.8,3,5.6,4.6c0.5,0.5,0.7,1.8,0.4,2.4
	c-2.7,5.5-3.1,10.9,0.3,16.3c0.3,0.5,0.1,1.7-0.4,2.1c-5.6,5.1-11.6,9.6-18.3,13.3c-1.3,0.7-1.7-0.1-2.3-0.8c-2.4-2.6-5-5.1-8.7-5.4
	c-1.9-0.2-4-0.1-5.8,0.4c-1.5,0.5-2,0-2.4-1.1c-1.3-4.2-3-8.4-3.8-12.7c-1.5-7.8-0.8-15.5,2.3-23c0.8-1.8,1.9-2.9,3.7-3.2
	C547.5,669.7,549.9,669.5,552.2,669.1z M556,697.9c1.7-1.4,3.4-2.5,4.8-3.9c5.4-5.2,5.7-12,0.8-17.5c-2.6-3-6.2-3.8-9.5-2.2
	c-3.4,1.7-4.5,4.2-3.6,8.5c0.4,2,0,2.6-2.2,2.9c-0.4,0-0.8,0.1-1.2,0.1c-2.9,0.3-4.4,2.2-4.1,5.1c0.5,4.8,3.5,7.3,8.7,7.5
	c0.8,0,1.6,0.1,2.5,0.2c-2.4,5.4-2,8.1,1.1,9.2c3,1.1,7.2-0.5,7.9-3.1C562.2,701.4,560.4,698.9,556,697.9z M567.8,691.2
	c-3,0-6.1,3.1-6.1,6.3c0,3.1,2.4,5.9,5.2,6s6.3-3.7,6.3-6.8C573.2,693.8,570.6,691.2,567.8,691.2z M571.6,690.1
	c2.7,0.3,5.6-2.9,6-6.1c0.2-2.1-2.7-4.6-5.2-4.7c-2.7-0.1-5.6,2.8-5.6,5.6C566.7,687.6,569,690.1,571.6,690.1z"/>
<path class="st0" d="M550.7,62.5c-2.5-0.3-5-0.5-7.3-1.1c-1.2-0.3-2.4-1.5-3.1-2.6c-3-4.8-3.3-10.3-3.1-15.8c0.3-7.4,3-14,6.5-20.4
	c0.7-1.3,1.5-1.5,2.9-1.1c5.6,1.2,10.9,0.5,15.2-3.7c0.9-0.9,1.7-1.2,2.8-0.2c5.1,4.4,10.2,8.8,15.3,13.2c2.2,2,2.2,2.1,0.6,4.5
	c-1.6,2.4-2.9,5-2.8,7.9c0.1,2.1,0.7,4.4,1.6,6.3c0.6,1.4,0.7,2.1-0.5,3C570.2,58.3,561.2,62.3,550.7,62.5z M566.6,45.4
	c5.8,2.2,7.9,0,8.7-2.4c0.8-2.3-1.4-6.5-3.7-7.1c-1.1-0.3-2.5-0.2-3.5,0.2c-2.5,1-3.4,3.2-3.3,5.7c-2.6-1.7-5-3.5-7.6-4.7
	c-6.1-2.8-13.6,0.7-15.6,7.1c-0.7,2.3-0.7,4.5,0.9,6.5c2.7,3.6,5.2,4.2,9.4,2.3c1.6-0.7,2.7-0.4,3.3,1.3c0.2,0.7,0.5,1.4,0.8,2.1
	c0.8,1.7,2,2.6,4,2.4c4-0.3,6.9-3.2,7-7.3C567,49.5,566.7,47.5,566.6,45.4z M555.8,31c0,3.4,2.6,5.9,6.1,5.9c3.1,0,6.2-2.6,6.2-5.2
	c0-3.1-3.3-5.9-7.2-5.9C557.8,25.8,555.7,28,555.8,31z M554,29.5c0-2.9-2.8-5.2-6.4-5.2c-2.4,0-4.6,2.5-4.5,5.5c0,2.6,2.9,5.1,5.8,5
	C551.5,34.7,554,32.1,554,29.5z"/>
<path class="st0" d="M45.4,672.8c1.8,0.1,3.5,0.3,5.2,0.3c3.2,0,4.9,1.8,6,4.5c2,4.7,2.6,9.6,2.3,14.6c-0.4,7.4-3.2,14-6.5,20.4
	c-0.6,1.2-1.4,1.5-2.7,1.1c-6-1.7-11.3-0.3-15.9,3.8c-0.4,0.4-1.5,0.6-1.8,0.4c-5.6-4.8-11.1-9.6-16.6-14.5c-1.1-1-1-2-0.1-3.2
	c2-2.6,3.3-5.5,3.2-8.8c0-2-0.8-4-1.7-5.9c-0.6-1.3-0.8-2.1,0.5-3C25.8,676.6,34.9,672.8,45.4,672.8z M31.8,693.5
	c1.8,1.2,3.5,2.6,5.4,3.7C45,702,52,697.3,54.7,691c1.2-2.9,0.3-5.8-2.4-8.1c-2.2-1.9-4.6-2.4-7.3-1c-2.9,1.4-3.2,1.2-4.3-1.8
	c-0.9-2.8-3-4.2-5.2-3.7c-4.1,1-6.7,4.5-6.3,8.7c0.1,1.5,0.4,3,0.6,4.6c-5.3-1.3-8.1-0.6-8.9,2.3c-0.6,2.5,1.6,6.7,3.9,7.3
	C28.1,700.3,30.1,698.6,31.8,693.5z M35.5,709.5c2.7,0,5.1-2.7,5-5.8c-0.1-3-3-5.6-6.3-5.6c-3.1,0.1-6.1,2.6-6.1,5.3
	C28.1,706.5,31.8,709.5,35.5,709.5z M47.6,700.5c-3,0-5.6,2.4-5.7,5.2c0,2.3,3.6,5.1,6.6,5.2c2.4,0.1,4.6-2.6,4.5-5.5
	C53,702.8,50.5,700.5,47.6,700.5z"/>
<path class="st0" d="M57.6,47.4c0.1,5.6-1.1,11-3.2,16.2c-0.8,2.1-2.7,2.7-4.7,3C42,68,34.7,66.9,28,63c-4.1-2.4-7.8-5.4-11.7-8.2
	c-1.1-0.8-1.3-1.6-0.6-2.9c2.7-5.4,2.9-10.8-0.4-16.2c-0.3-0.5-0.1-1.8,0.4-2.1c5.6-4.2,11.2-8.3,16.9-12.5c1.4-1,2.4-1,3.9,0.5
	c3.8,4,8.3,6.7,14.2,4.5c1.4-0.5,2,0.1,2.5,1.2C55.9,33.8,57.5,40.5,57.6,47.4z M39.4,38.8c-1.9,1.9-4,3.8-5.8,5.9
	C28.5,50.8,31.9,58.8,37,62c2.4,1.5,5.8,1.2,8.5-0.9c2.4-1.8,3-3.8,2.2-7c-0.6-2.4,0.1-3.3,2.7-3.4c3.4-0.1,5.4-2.7,4.7-6
	c-0.9-4-3.4-6.3-7.5-6.7c-1.2-0.1-2.5-0.2-3.8-0.2c2.3-4.9,2.2-7.9-0.5-9.2c-2.4-1.2-6.8,0.2-8.2,2.6C33.5,33.6,35.2,36.3,39.4,38.8
	z M34.5,39c0-3.2-2.2-5.7-5.2-5.8c-3,0-6.3,3.4-6.3,6.8c0,2.8,2.7,5.3,5.6,5.3C31.7,45.2,34.4,42.3,34.5,39z M29.4,51.5
	c0-2.9-2.4-5.4-5.1-5.4c-2.5,0-5.5,3.4-5.5,6.3c0,2.1,2.6,4.7,5,4.8C26.5,57.3,29.4,54.4,29.4,51.5z"/>
<path class="st0" d="M197.4,121.9c0.2-1.8,0.8-2.8,2.6-3.1c3.3-0.6,5.8-2.4,7.1-5.7c0.2-0.5,1.3-1,1.9-1c3.8,0.3,7.6,0.7,11.4,1.2
	c1.4,0.2,2.2,1.1,2.4,2.6c0.3,3,1.8,5.4,4.3,7c1.1,0.8,1.7,1.7,1.3,3.1c-1.8,7.3-4.9,13.8-10.7,18.8c-2.5,2.2-5.4,3.7-8.6,4.3
	c-1.1,0.2-2.5,0-3.4-0.6c-6.3-4.4-9.4-10.6-9.4-18.3c0-1.4,0.1-2.8,0.2-4.7c1,0.8,1.6,1.3,2.1,1.8c1.8,1.5,4,1.3,5.8-0.6
	c1.5-1.6,1.6-3.9-0.2-5.2c-0.9-0.7-2.5-0.7-3.8-0.7C199.5,120.9,198.5,121.5,197.4,121.9z M218.6,129.6c3.8-0.5,5.8-2,5.5-4.2
	c-0.4-2.2-3.1-4.4-5.1-3.9c-0.9,0.2-2,0.9-2.3,1.7c-0.6,1.3-0.6,2.9-0.9,4.3c-1.4-0.2-3.3-0.6-5.1-0.7c-5.6-0.2-9.3,3.3-9.6,8.9
	c-0.1,2.4,1.3,4.6,3.6,5.6c1.9,0.8,4.4,0.3,5.9-1.4c1.3-1.5,2.2-1.7,3.8-0.2c2.4,2.3,4.6,1.8,6.2-1c1-1.7,1.2-3.4,0.4-5.2
	C220.3,132.2,219.4,130.9,218.6,129.6z M210.6,125.6c2.7,0,5-2.1,5-4.7c0-2-2.1-3.6-4.6-3.6c-2.6,0.1-4.8,1.9-4.8,4
	C206.4,123.9,208.1,125.7,210.6,125.6z"/>
<path class="st0" d="M201.8,122.1c0.7,0.7,1.4,1.4,2.1,2.2c-0.9,0.8-1.8,2-2.9,2.4c-0.4,0.2-2-1.3-2.1-2.1
	C198.7,123,200,122.5,201.8,122.1z"/>
<path class="st0" d="M552,696.5c-5.5,0-8.1-1.8-8.8-5.1c-0.5-2.4,0.3-3.4,2.8-3.5c4.1-0.2,5.4-1.9,4.4-6c-0.6-2.7-0.2-3.9,2.2-5.4
	c1.8-1.2,4.5-1.2,6.1,0.1c3.4,2.9,6.6,8.4,2.4,13.9C558.4,694,555.3,696.5,552,696.5z"/>
<path class="st0" d="M552.7,703.6c0-2,1.2-3.3,3.2-3.3c2.2,0,3.3,0.9,3.4,2.8c0,1.7-1.7,3.2-3.8,3.1
	C553.7,706.1,552.7,705.3,552.7,703.6z"/>
<path class="st0" d="M567.8,693.2c1.8,0,3.3,1.7,3.2,3.5c-0.1,2.1-2.7,4.7-4.7,4.5c-1.3-0.1-2.7-2.1-2.6-3.8
	C563.7,695.2,565.7,693.2,567.8,693.2z"/>
<path class="st0" d="M571.5,688.1c-1.4,0-2.6-1.4-2.6-3.1c0-1.9,1.8-3.7,3.6-3.6c1.5,0,2.8,1.5,2.8,2.9
	C575.2,686.1,573.2,688.1,571.5,688.1z"/>
<path class="st0" d="M565,51.3c0.1,1.1-0.7,2.9-2.4,4.3c-2.3,1.9-4.4,1.3-5.3-1.5c-0.1-0.3-0.2-0.7-0.3-1c-1-2.7-3.3-3.5-5.9-2.2
	c-3.2,1.6-4.7,1.4-6.9-1.1c-1.6-1.8-1.6-4.6,0-6.9c3.1-4.6,8.5-6,13.5-3.4C562.1,41.7,564.9,45,565,51.3z"/>
<path class="st0" d="M569.8,37.7c1.7,0,3.6,2.2,3.4,4.3c-0.1,1.7-1.4,2.2-2.8,2.2c-2,0.1-3.5-1.6-3.6-3.8
	C566.8,39.1,568.3,37.7,569.8,37.7z"/>
<path class="st0" d="M562,34.8c-2.5,0-4.3-1.7-4.3-3.8c0-1.9,1.4-3.1,3.5-3c2.3,0.1,4.7,2.1,4.6,3.9C565.7,33.4,563.8,34.9,562,34.8
	z"/>
<path class="st0" d="M548,26.6c2,0,4,1.6,4,3.2c0,1.3-1.6,2.7-3.2,2.7c-1.9,0-3.5-1.3-3.5-3C545.1,27.6,546.1,26.6,548,26.6z"/>
<path class="st0" d="M43.5,697.2c-5.2-0.4-12.2-4.6-12.4-11.9c-0.1-2.8,1.2-5.3,3.5-6.3c2.1-0.9,3.4-0.4,4.1,1.9
	c1,3.1,2.4,4.3,4.8,3.8c0.7-0.1,1.4-0.5,2-0.8c1.8-1,3.6-1,5.3,0.4c1.8,1.5,2.7,3.4,2.1,5.7C52,693.6,47.2,697.2,43.5,697.2z"/>
<path class="st0" d="M25.8,690.8c1.9,0,3.5,1.7,3.5,3.7c0,1.6-1.2,2.9-2.8,2.9c-1.8,0.1-3.5-2.1-3.5-4.2
	C23,691.7,23.9,690.9,25.8,690.8z"/>
<path class="st0" d="M38.4,703.8c0,1.9-1.6,3.6-3.4,3.5c-2-0.1-4.7-2.4-4.7-4.1c0-1.7,1.8-2.9,4.2-2.9
	C36.8,700.4,38.5,701.9,38.4,703.8z"/>
<path class="st0" d="M47.9,702.5c1.6,0.1,3.2,1.9,3.1,3.3c-0.2,1.7-1.6,2.9-3.1,2.8c-1.9-0.2-3.9-1.8-3.9-3.2
	C44.2,703.9,46.2,702.4,47.9,702.5z"/>
<path class="st0" d="M46.5,40.1c2,0.1,4.8,0.7,6.2,3.7c1.3,2.9,0.3,4.7-2.9,4.8c-3.3,0.2-4.9,2.4-4,5.7c0.8,2.7,0.4,3.8-1.7,5.4
	c-2,1.5-4.5,1.6-6.4,0.3c-4.7-3.2-5.8-9.2-2.5-13.9C37.6,42.5,40.8,39.9,46.5,40.1z"/>
<path class="st0" d="M40.9,30.4c1.5-0.1,2.5,0.6,2.5,2.4c0,2-1.5,3.6-3.5,3.7c-1.6,0.1-3.2-1.4-3.2-3C36.7,31.7,38.4,30.4,40.9,30.4
	z"/>
<path class="st0" d="M28.4,43.1c-1.6,0-3.1-1.4-3.2-3c-0.1-2.2,2.2-4.7,4.4-4.8c1.5-0.1,2.9,1.8,2.9,3.7
	C32.5,41.2,30.6,43.1,28.4,43.1z"/>
<path class="st0" d="M20.9,52.4c0-2,2.1-4.1,3.9-4c1.3,0.1,2.5,1.7,2.4,3.2c0,1.6-1.8,3.5-3.3,3.5C22.5,55.2,20.9,53.6,20.9,52.4z"
	/>
<path class="st0" d="M209.8,128.4c4.4,0.1,7.7,1.3,9.3,5c0.5,1.1,0.6,2.7,0.3,3.9c-0.6,2.4-2.4,2.7-4.1,1c-2.2-2.1-3.5-2.1-5.5,0.2
	c-1.3,1.5-2.8,1.8-4.5,1.1s-2.6-2-2.4-4C203,131,205.7,128.5,209.8,128.4z"/>
<path class="st0" d="M220.1,128.5c-1.2-1.2-2.3-2-2.7-3c-0.5-1.3,0.9-2.4,1.9-2.2c1.1,0.2,2.2,1.3,2.9,2.3
	C222.4,125.9,221.1,127.2,220.1,128.5z"/>
<path class="st0" d="M210.8,124c-1.6,0-2.8-1.1-2.7-2.6c0.1-1.7,1.2-2.4,2.7-2.3c1.4,0,3,0.1,3.1,2.1C214,122.6,212.4,124,210.8,124
	z"/>
</svg>
