<?xml version="1.0" encoding="utf-8"?>
<!-- Generator: Adobe Illustrator 26.0.0, SVG Export Plug-In . SVG Version: 6.00 Build 0)  -->
<svg version="1.1" id="Capa_1" xmlns="http://www.w3.org/2000/svg" xmlns:xlink="http://www.w3.org/1999/xlink" x="0px" y="0px"
	 viewBox="0 0 595.3 793.9" style="enable-background:new 0 0 595.3 793.9;" xml:space="preserve">
<style type="text/css">
	.st0{fill:#FFFFFF;}
</style>
<g>
	<path d="M165.3,445.6c4.2-1.2,8.3-2.3,12.7-3.6c0-4.8-0.3-9.7-0.5-14.5c-0.2-3.4,1.1-6.3,3.7-8.5c5-4.3,9.9-8.4,15.1-12.5
		c-36.1-56-10.9-93.1-14.7-151.9c0-6.2-0.9-10-5.2-14.5c-5.4-6.4-8.1,5.7-9.8,9.4c-2.6,7.2-5.2,14.4-7.7,21.6
		c-8,25.1-49.8,26.7-56.4-0.5c-4-14.9,0-30.9,4-45.4c9-32.1,37.5-54.2,67.8-30.4c0.7-28.4-1.5-57,4.1-85.2
		c4.2-27.6,40.9-41.4,62.7-53.8c1.7-0.8,2.3-1.9,2.4-3.7c0.3-6.7,1.4-13.3,3.2-19.8c4.3-15.4,36.2-24.2,50.5-28.1
		c22.4-4.9,46.2-6.5,68.4,0.1c14.6,4.1,14.2,24.3,18.1,36.5c18.4-0.5,36.6,1.7,53.9,7.9c12.2,4.3,15.4,7.5,19.8,19.6
		c5.9,16.5,8.8,33.4,11.7,50.8c18.1-11,38.4-5.6,48.4,13.1c6.7,12.1,15.9,22.2,25.1,32.4c22.8,30.4-20.2,63.1-49.6,25.1
		c-0.2,0.1-0.4,0.2-0.6,0.3c10.2,32.1,34.2,56.9,46.6,87.8c15.3,45.1,0.8,102.5-43.3,125.6c-4.3,1.4-5.1,5-5.4,8.8
		c0.2,4.3-1.4,9.5,1.1,13.3c5.8,7.5,11.1,15.4,15.2,23.9c3,6.3,5.5,12.9,8.1,19.4c0.6,1.5,1.3,2.7,2.8,3.6c2.9,1.6,4.8,4.1,6.4,6.9
		c5,8.7,5.5,18.7,6.1,28.4c20.5,40.7,39.1,82.1,48.3,127.2c5.2,22.3,8.3,44.9,10.1,67.7c0.2,2.7,0.6,5.2,2.4,7.4
		c6.3,10.6,4.4,35.3,2.3,47.3c-0.5,2.9-2.3,4.8-4.9,5.8c-9.3,3.6-18.5,3.3-27.3-1.6c-12.7,7.2-28.4,6.9-38.2-0.7
		c-3.5,0.9-6.8,1.8-10,2.6c-7.2,1.1-17.3-0.9-19.2-9c-3.3-11.5-3.6-23.5-2.2-35.3c-7.8-29.1-23.5-56-36.9-83
		c-1.2-2.1-1.2-1.9-3.5-1.4c-6.7,1.8-13.4,3.4-20.3,1.9c-24.7,7.9-49.2,17.8-75.7,19.6c-9.3,1-18.6,1.3-28,2c-1,0.1-2.2,0.3-2.8,0.9
		c-4.5,4.9-10.2,7.1-16.4,8.9c1.3,15.1-0.6,8.3,18.5,13.2c7.2,2,14.7,6.1,16,14.1c1.4,6.8,1.4,13.7,0.3,20.6
		c-0.2,1.3-0.3,2.4,0.7,3.5c6.5,6.9,9.2,15.4,10.5,24.5c2.8,15.1-4,47-24.6,42.1c-1-0.3-2-0.6-3,0.2c-21.6,13-64.4,6.8-88.4,1.5
		c-30.2-6.1-39-21.9-48.8-49.1c-13.6-39.5-19.7-81.8-17.7-123.5c0.1-1.1,0.1-2.1-0.9-2.9c-5.6-4-9.1-9.7-13.9-14.4
		c-11.6,20.1-63.2,76.2-59.5,94.5c1.6,19.6,11.7,54-13.7,61.7c-6.7,1.7-13.4,2.2-19.8-1.3c-1.1-0.6-2-0.2-3,0.2
		c-9.8,4.3-20.9,3.7-30.3-1.1c-11.3,5.1-27.3,5-29.7-12.3c-1-15.6-0.8-33.1,8.1-46.6c2.3-3.8,6.9-5.9,8-10.4
		C41,612,71.3,508.6,131.6,462c1.7-1.2,2.2-2.3,2-4.4c-1.3-14.4,0-29.7,8.9-41.7c3.1-4.6,10.4-7.2,12.7-0.4
		C158,425.7,159.5,436.4,165.3,445.6z"/>
	<path class="st0" d="M514.9,243.3c35.5,45.8,33.2,122.4-20.1,153.5c2.5-14.6,4.2-28.8-0.4-42.9c1.3,58-29.1,106.7-87.8,119.5
		c-43.6,11-84.6-5.3-118.1-33.1c1.3,3.2,3.7,5.7,6,8.6c-12.7-1.9-25.1-5.4-37.6-8.2c-57.1-12.7-83.3-76.3-73-129.9
		c51.9,7.8,88.8-13.7,134.9-32c-1.4,2-2.4,3.4-3.4,4.8c10.9-8.9,21.1-18.5,33.7-25.7c-3.3,17.3,16.1,27.9,31.2,26.1
		c15.3-1,29.5-14.2,25.5-30.2c5.7,2.6,10.7,6.4,16.1,9.7c-0.6-0.9-1.2-1.8-1.9-2.8C450.7,248,492.7,276.4,514.9,243.3z M301.5,307.2
		c4.8,81.4,136.2,92.2,143,6.7c0.8-9.8-0.4-19.5-2.7-29.1c-0.2-1-0.9-1.9,0-3.1c2.3,0.9,4.6,1.8,7.1,2.8
		c-1.5-9.1-14.6-10.5-15.1-1.3c0.9-0.2,1.9-0.5,3.3-0.8c-21.4,49.3-92.6,53.5-131,22.1c1.8-1.1,3.4-2.1,5.1-3.2
		c-6.4-3.8-19,4.5-16.5,11.8C296.9,311.2,299.1,309.3,301.5,307.2z M289.6,352.6c-2.4,16.8-4.7,33.2-7.1,49.9
		C287.8,395.9,292.9,361.6,289.6,352.6z M390.1,315.1c0.8-9.2,0.4-17.3-3.8-25.6C385.4,293.9,388,311.7,390.1,315.1z M324.7,291.6
		c-0.6-0.9-1-2-1.5-2.1c-0.5-0.1-1.7,0.6-1.9,1.1c-0.4,1.1-0.3,2.4-0.2,3.6c0,0.1,1.2,0.5,1.3,0.3
		C323.1,293.8,323.8,292.8,324.7,291.6z M328.1,298.2c2.5-0.9,3.3-3.5,1.2-4.5C327.4,294,326.9,296.6,328.1,298.2z M330.1,281.6
		c-2.1,1.5-2.2,1.8-1.3,4.5C331,284.9,331.3,283.9,330.1,281.6z"/>
	<path class="st0" d="M297.1,659.6c0.4-12,2.6-24.1,1.4-36.3c-3.6,12.3-3.9,24.2-5.9,37c-3.5-3.4-6.2-6.8-10-9.8
		c-17.7-12-29.4,15.3-38.1,26.7c-13.6,22.9-30.4,37.3-58.2,28.7c-21.3-66.1-7.5-141.2,11.8-207.2c1.6-5.1,3.4-12.2,10.2-10.6
		c48.3,14,96.4,87.1,105,135.2c1.3,6.3,2.1,12.6,1.6,19C314.2,650.7,305.7,660,297.1,659.6z"/>
	<path class="st0" d="M327.5,655.3c24.7-55.7-28.2-134.7-72.7-167.2c-18.7-13.8-47-28.4-67.8-10.9c4.8-19.8,17.2-34.2,30.4-48.1
		c11.5,8.3,23.9,14.5,37.8,17.1c2.6,0.5,4.3,1.7,5.8,3.8c35.4,49.2,106.2,59.1,161.2,42.1c1,1.3,0.9,2.1-0.7,2.9
		c-5.8,2.7-11.4,5.4-17.1,8.2c0.1,5.6-1.5,10.8-6.8,13.3c-2.6,1.3-2.7,3-2.5,5.4c1.8,25.5,15,47.6,37.2,60.4
		c-5.5,24.3-18.3,48.6-39.9,61.8C371.4,650.5,349.6,654.4,327.5,655.3z"/>
	<path class="st0" d="M330.4,782.8c16.8-19.4,11.5-60.7-19.2-59.8c0,0.2-0.1,0.5-0.1,0.7c23.1,8,29.8,30.8,18.3,51.4
		c-12.4,23.1-76.6,11.8-98.1,5.3c-8.8-3-18-6.5-23.3-14.6c-11.6-17.5-18-37.9-22.6-58.2c30.2,10.2,47.9-4.4,62.5-29.7
		c5.7-8.6,10.7-18.1,18.7-24.8c8.9-8.3,19.1,1.4,24.7,8.8c1.3,1.6,0.7,3.5,0.6,5.2c-1.1,11.8-2.5,23.7-1.2,35.6
		c-0.3,16.1,20.1,12.3,31.7,12.7c16.6-0.1,25.8,16.3,26.8,31.1C351.1,757.7,346,786.1,330.4,782.8z"/>
	<path class="st0" d="M165.7,450.2c-41.3,36.4-38.2,100.8-10.9,144.7c-16,21.2-31.9,42.5-47.8,63.8c-1,1.3-1.9,2-3.6,2.2
		c-24,2.5-50.7-1.6-68-19.7c26.9-65.9,55.7-167.2,129.9-191.5C165.4,449.8,165.6,450,165.7,450.2z"/>
	<path class="st0" d="M184.1,308.1c3.8-33.9,2-67.8-1.9-101.5c22.5-7.4,42-21.5,63.1-32c23.8-12.1,49.1-20.7,75.4-25.7
		c11.7,31.4,18.8,93.2,1.8,123c-2,2.9-4.6,4.8-7.9,6.1C273,294.4,230,316.2,184.1,308.1z M234.1,292.3c26-5.2,60.8-0.2,79.7-21.9
		c3.3-17-2.2-33.8-14.8-45.4c-43.5-37.7-95,22.8-60.9,64.9C237,290.5,235.8,291.3,234.1,292.3z M233.5,201.8c1.8-0.2,2.5-1.8,3.4-3
		c6.7-9.6,17.4-13.3,28.4-15.2c9.9-1.8,8.9-13.7-1.7-11.8c-11.8,2.6-21.4,10.8-28,20.7C234.7,194.8,230.9,199.8,233.5,201.8z
		 M277.2,208.5c-23.1-11-49.9,8.2-51.4,32.8C234.5,217.1,250.4,204.4,277.2,208.5z"/>
	<path class="st0" d="M177.8,191.6c0.2-19.6,0.4-85.7,13.8-97.6c17.2-16.3,38.7-27,59.8-37.4c9.1-7.3,34,56.2,35,64.4
		c-33.1,13.5-59,38-87.1,59.2C192.5,184.7,185.6,188.7,177.8,191.6z"/>
	<path class="st0" d="M575.1,641.8c-16.8-23.4-38.1-24.3-50.9,2.8c-8.1,21.6-16,36.1-37.8,46.7c-9.1-20-18.7-39.4-29.7-58.3
		c44.5-25.5,69.5-63.4,73.5-114.8C544.1,534.7,573.2,618.5,575.1,641.8z"/>
	<path class="st0" d="M371.8,141.6c33.2-2.9,67.2-3.5,99.2,6.7c2,0.4,3,1.5,3.6,3.5c9.4,31.6,22.6,61.4,39.3,89.8
		c-24.7,32.2-61.8,1.9-95.3,17.6c-4.8-3.8-9.5-7.8-15.2-10.3c-1.8-0.8-2.8-2-3.6-3.8C384.7,212.4,376.4,177.3,371.8,141.6z
		 M446.6,180.1c-23.3-6.5-46.5,15.3-44.9,38.7c1.1,15.2,4.3,29.5,18.4,37.7c17-7.6,51.8-1.9,62.4-16.6c-1.8,0.8-3.1,1.3-4.7,2
		c15.3-50.8-54.4-81.5-72.9-27.6C406.2,193.4,426.7,179.5,446.6,180.1z M451.9,158.9c-1.5-11.4-21.5-18.7-31.7-16.9
		c-9,1.5-9.4,13.4,1.2,11.9C434,152.6,440.6,152.2,451.9,158.9z"/>
	<path class="st0" d="M78.2,690.1c-1.2-2.4-3.2-3.4-5.2-4.2c-16.4-7-34.6-6.7-51.7-3.1c4.1-13.2,8.6-26,13.3-39
		c17.5,18.6,44.8,23.2,69.3,18.9c-2.5,5-5.4,9.1-8.1,13.9c-7.4,13.8-0.1,30-0.1,44.8c0.5,9.8-0.7,23.5-11.3,27.5
		c-5,1.9-10.1,2.5-15.3,1.3c-3.8-0.8-4.2-1.4-4.2-5.2c-0.2-14.1,1.6-28.6,0.3-42.5c-3.6,14.9-4.2,30.1-4.8,45.4
		c-6.3,4.4-27.7,6.6-29.2-3.7c-2.2-15-0.6-30.3,3.2-44.8c0.1-0.5,0.2-1-0.2-1.8c-8.3,15.6-8.9,31.6-6.5,50c-4.5,3.1-9.4,4-14.6,2.1
		c-13.8-3.9-7.6-32.4-5.5-43.1C14.8,676.2,55.5,682.2,78.2,690.1z"/>
	<path class="st0" d="M420.7,633.2c14.2-15.1,26.8-32.5,31.3-53.1c24.3-21.5,29.1-47.4,22.8-78.7c-6.9-0.4-11.7-4.5-12-11.7
		c-7.3-1.2-14.5-0.6-21.9,0.1c0-1.7,0-3.3,0-4.9c14.1-7.7,35.8-17.1,42.6-32.4c3-7.8,4.8-15.7,6.3-24
		c58.4,75.1,13.8,172.3-68.7,205.2C421,633.6,420.8,633.4,420.7,633.2z"/>
	<path class="st0" d="M397,245c-13.8-5.7-28.9-5.4-40.9,4.1c-9.5,5.4-18.7,11-26.5,18.6c-0.9,0.8-1.8,1.6-3.1,2.1
		c14.7-38.8,8.5-82.6-2.5-121.6c14.7-2.9,29.2-5,44.3-6.3C373.6,177.5,382.1,212,397,245z"/>
	<path class="st0" d="M523.9,708.6c11-7.5,23.9-11.8,35.9-4.3c1.8,1,3.2,1.1,5.2,0.2c9.6-4.6,22.1,2.1,24.1,12.8
		c1.8,12.4,1.8,25.1,0.3,37.5c-0.8,8.3-17.9,8-23.7,5.7c-3.1-1.1-3.1-1.4-3.1-4.6c-0.8-13.4,0.7-27.9-1.5-40.8
		c-1.4,14-1.5,28.3-2,42.4c0,1.4-0.6,2.1-1.9,2.5c-6,2.6-32.5,3.8-33.6-4.3c-1.1-13.2-0.6-26.4,0.5-39.6c-0.2,0-0.5-0.1-0.7-0.1
		c-3.2,12.8-3.9,26-3.4,39.1c0.2,3.2,0.1,3.3-3.1,4c-4.4,1-8.7,0.6-12.9-0.6c-3.1-0.9-5.3-2.8-5.9-6c-2.9-12.2-3-24.9-1.1-37.3
		C497.7,701.2,516.5,697.3,523.9,708.6z"/>
	<path class="st0" d="M201.7,440.3c-7.5,10.1-13.3,20.8-20.3,31.2c-15.2,26.2-15.6,60.4-5.1,88.5c1.2,2.2,1.1,4.4,0.7,6.7
		c-2.9,13.4-3.9,26.9-5.8,40.4c-41.8-41.2-46.9-122.6,2.9-159.8c0.8-0.6,1.8-1.2,2.8-1.5C185.1,444.2,193.4,441,201.7,440.3z"/>
	<path class="st0" d="M583.5,702.4c-7.1-3.5-14-4.1-20.7,0.1c-13-10.3-25.7-8.8-38.2,0.9c-11.7-10.2-24.6-6.1-31.3,4.4
		c-2.2-5.1-4.2-9.9-6.4-14.8c40.7-17.9,28.3-38.8,50.8-61.3c10-9.6,23.3-2.4,31.1,6.3c5.1,5.1,8.3,10.8,9.3,18.2
		C580.3,671.6,583.1,686.8,583.5,702.4z"/>
	<path class="st0" d="M183,538.9c-5.4-14-5.4-29.6-1.3-44c14.9-43.5,65.5-9.9,86.4,10.8c34,32.7,60.5,76.6,62.2,124.7
		c0,21.6-11,36.5-33.8,36.2c0.1-1.6,0.1-2.7,0.2-3.9c27.9-3,23.8-34.1,17.9-53.9C304.6,566,252.7,491.7,207,485.4
		c-4.6-0.1-8.3,1.9-9.8,6.6C192.2,507.6,187.2,523.1,183,538.9z"/>
	<path class="st0" d="M256.5,23.8c33.2-16.7,73-23.5,109.1-13.5c13,3.6,20.7,76.2,20.5,90.5c-8.6,0.6-17,1.1-25.7,1.7
		c16.2-19.8,17.1-46.8,7.8-70c-6.1-0.5-11.7-2.2-14.2-8.3c-2.4-3.9-17.2-3.1-21.7-3.2c-7.2-0.2-40.7,5.4-41.6,12.9
		c0.4,6.9-4.2,11-9.8,14.1c3.4,24.8,14.5,50.1,37.7,62.2c-8.7,2.8-16.8,5.4-25.2,8.1C286.3,90.1,277.6,44.2,256.5,23.8z"/>
	<path class="st0" d="M389,100.8c0.5-18.5-1.5-36.3-4.3-54.3c19.9-0.9,40,1.6,58.3,9.5c12.3,3.2,20.3,50.4,22.5,63.1
		C444.3,101.4,415.4,101.3,389,100.8z"/>
	<path class="st0" d="M477.1,145.4c-31.5-49.5-143.9-29.3-189.7-8.9c-28.3,14.1-52.1,35.6-78.2,53.2c-9.5,6.7-19.6,12.2-31.2,14.7
		c0-3.7,0-6.8,0-9.9c27.2-9.5,47.7-30.6,71.1-46.7c34.7-24.6,76.7-36.6,118.7-40.7C403.1,104.6,467.5,100.8,477.1,145.4z"/>
	<path class="st0" d="M178.7,229.6c-13-17.9-35.1-37.6-48.3-8c-5.7,13.5-9.9,33.2-6.1,47.5c2.9,8.1,11.2,10.1,17.7,4.5
		c6.4-5.4,7.5-14.2,10.8-21.4c3.9-7.9,6.5-17,13.1-23c3.4-3.1,6.1-2.7,8.8,0.9c2.1,2.9,4.5,5.5,5.6,9c-0.2,0.1-0.4,0.3-0.6,0.4
		c-18.9-20.8-15.6,42.7-42.9,45.6c-2.6,0.7-5.5,0.9-8.2,0.8c-40.1-2.4-19.7-70.9-1.2-88.5c12-12.9,33.8-11.4,46.1,0.2
		c0.8,0.7,1.3,2,1.4,3c1.5,9.6,3,19.2,4.2,28.9C179.1,229.6,178.9,229.6,178.7,229.6z"/>
	<path class="st0" d="M473.1,145.9c-59.9-19.1-125.9-10.9-185.4,5.7c-12.7,4-24.9,9-37,14.6c-0.1,0.1-0.4-0.1-1.2-0.4
		c21-13.5,41.5-28.2,66.2-33.9c41-11.1,130-26.8,157.8,13.5C473.3,145.6,473.2,145.8,473.1,145.9z"/>
	<path class="st0" d="M263.1,448c10.5,1.7,20.6,3.5,31,5.4c4.4,0.8,8.3,2.6,12,5.4c31.3,24,73.7,29.7,111.2,18.5
		c2.3,2.9,3.1,6.2,4.3,9.7C369,504.1,297.7,494.6,263.1,448z"/>
	<path class="st0" d="M362,57.1c-0.1,19.4-6,33.8-20.6,44.2c-7.9,3.3-19.2-4-25.4-8.7c-10.6-8.5-17.3-19.7-21.5-32.5
		c-1.1-3.1-2.1-5.7,1.2-8.1c7-5.3,3.8-13.4,8.7-14.6c7.6-2.7,39-10.2,43.9-3.4c4.2,8.3,12.1,5.8,12.2,10.4
		C361,49.5,361.7,54.5,362,57.1z M342,58.5c-5.3-1.1-10.5-2.3-14.6,1.6c-5.9,5.8-10.7,15.5-6.5,23.4c3,3.8,8.2,5.4,12.6,3.3
		c4.9-2.4,10-3.9,15.4-4.9c5.1-1,7.5-5,6.7-10.2c-1-6.4-6.2-9.3-11.4-12.2c13.8,0.1,14.9-20.2,0.9-18.6
		C337.3,43.2,335.5,52.2,342,58.5z M334.5,49.2c0.9-10.2-18.3-18.3-19.6-5.2C313.9,54.7,333.1,63,334.5,49.2z M309.1,52.4
		c-6.9-0.5-11.1,6.7-5.8,12.2c6,7.9,22.3,3.7,15.3-7.3C316.4,54.1,313,52.7,309.1,52.4z"/>
	<path class="st0" d="M475.6,131.5c-1.8-2.3-3.4-4.4-5-6.5c-1.5-2.1-1.2-2.9,1.2-4.2c13.7-7.2,28.8-3.9,38.1,8.4
		c8.3,14.8,18.7,27.7,30.4,39.9c12.5,13.9-3.2,38.6-20.7,33.7c9-3.2,8.1-12.5,1.7-17.8c-7.8-6.3-11.9-14.8-14.9-24
		C501.5,145.7,497,122.9,475.6,131.5z"/>
	<path class="st0" d="M170,224.2c-19,5.5-20.5,38.6-32.5,47c-14.5,6.2-8.9-24.9-7.4-31.9c1.8-8.9,4.8-17.9,10.9-24.8
		C149.4,204.6,163,218.1,170,224.2z"/>
	<path class="st0" d="M284.4,49.4c6.2-3.4,9.4-8.6,9.4-15.6c17-8.4,36.5-11.6,55.3-8.6c1.2,0.1,1.9,0.7,2.5,1.7
		c5.3,9.6,13.2,6.4,14.9,10.1c7.5,21.6,6.5,47.7-10.5,64.8c-3.7,3.1-8.6,2.2-13.7,3.4c21.5-14.7,26.8-41.5,20.5-65.4
		c-5.9-2.5-11.6-3.7-13.1-10.7c-16.5-2.1-32.9,0.7-48.5,6.1c-1.4,0.5-2.4,1.1-2.5,2.8c-0.4,6.5-3.5,11.5-9.3,15.1
		c5,24.9,22.2,47.7,47.7,53.1c-4.3,0.9-8.5,1.9-12.8,2.7C300,99.9,287.4,73.7,284.4,49.4z"/>
	<path class="st0" d="M477.4,134c18.3-6.1,20,18.9,24.8,30.6c2.6,7.6,6.2,14.7,12.2,20.2c3.7,3,12.6,10.6,5,14
		c-5.4,1.9-11.4,0.8-15.8-2.9c-6.3-5.5-12.5-11.6-16-19.2C482.3,162.9,480.5,148.5,477.4,134z"/>
	<path class="st0" d="M306.8,683.7c15.4,4.2,21.1,10.4,21.6,26.6c-5.7,0-11,0-16.5,0c-0.6-5-0.4-9.8-2.8-14.4
		c-1.9-3.5-5.1-7.3-9.6-7c9,4.5,9.5,12.5,9.2,20.9c-4.3,1.1-10.9,0.5-12.3-3.9c-2.7-12-1.5-24.8,0-37c2.6,0,5.2,0,8.3,0
		c1.3,4.5-0.9,12.5,5.9,12.8c23.9,3.1,31.8,7.1,27.9,32.9c-2.4-1.1-4.7-2.1-7.2-3.2c-0.2-16.1-7.8-26.8-24.4-28.3
		C306.9,683.3,306.8,683.5,306.8,683.7z"/>
	<path class="st0" d="M517.1,475.3c7,5.3,8.1,14.1,9,22.1c4.3,52.8-23.8,105-69.8,131c-6.8,3.6-14.7,7.5-22.7,5.9
		C492.3,606.6,535.8,541.1,517.1,475.3z"/>
	<path class="st0" d="M417,501.1c12.4-6.9,26.5-9.3,40.5-8.6c1.2,0.1,2.2,0.2,2.7,1.7c1.7,5.9,5.8,9.2,12.1,10.4
		c4.2,23.9,2,51.9-18,68.4c-1.9,1.6-3.7,2-6.1,1.5c-22.5-5.8-34.1-29.5-38.6-50.5C408.3,516.3,419.6,521.1,417,501.1z M413.2,522.4
		c3.5,20.1,14.7,40.1,35,46.9c1.7,0.6,2.9,0.4,4.3-0.8c17.1-14.6,20.4-38.9,17.1-60c-6.8-1.3-10.6-5.4-12.6-11.5
		c-10.8-2.1-28.4,1.3-34.6,6.2C423.2,511.4,420.3,517.7,413.2,522.4z"/>
	<path class="st0" d="M487.7,418.9c-0.7,11.7-3.7,22.9-8.4,33.6c-8.7,13.5-24.9,20.2-38.7,27.2c-1.3-3.5-2.5-6.7-3.7-9.9
		C436.9,469.8,487.4,419.2,487.7,418.9z"/>
	<path class="st0" d="M161,446.6c-7.9,3.6-15.5,7.1-23.3,10.7c-2.1-13.4-1.4-29,7.4-40c1.4-1.6,2.9-3.6,5.2-3
		c2.4,0.6,2.6,3.1,3.1,5.2C155.7,428.5,157.4,437.8,161,446.6z"/>
	<path class="st0" d="M246.4,52.9c0-7,4.3-21.5,7.4-25.3c19.2,17.5,29.4,63.9,36.7,89.2c0.3,1.1,0.8,2.3-1.2,2.9
		c-7-23.5-14.2-48.8-30.9-67.4C254.5,48.6,250.6,51.1,246.4,52.9z"/>
	<path class="st0" d="M182.5,440.4c-0.9-5.8-3.9-13.4,0.6-18.4c4.5-4.7,10.1-8,15.4-11.6c5.1,5.4,10,10.6,15.1,16
		c-2.6,2.5-7,9.6-10.2,10.4C196.4,437.8,189.5,440,182.5,440.4z"/>
	<path class="st0" d="M442.2,577c-3.5,0.4-7.3,2.6-10.7,0.7c-19.7-11.5-31.9-34-32.8-56.6c2.4,0.2,4.5,0.4,7,0.7
		c3.9,22,15,45.3,36.5,54.6C442.1,576.5,442.1,576.7,442.2,577z"/>
	<path class="st0" d="M389.9,259.7c-6,0.9-11.9,1.8-17.9,2.7c-3.4,0.7-7.1,1-10.2-1c-9.3-7.2,4.6-13.4,11.2-14.3
		c19-5.6,40.5,13.6,16.9,13C389.9,260,389.9,259.8,389.9,259.7z"/>
	<path class="st0" d="M449.4,579c-7,24.7-23.4,46.9-44.4,61.4c-0.2-0.2-0.3-0.4-0.5-0.5c15.6-15.9,27.1-34,32-56
		c0.4-1.8,1.1-2.8,3-3.1C442.6,580.4,445.6,579.8,449.4,579z"/>
	<path class="st0" d="M185,470.8c-1.1,4.6-1.6,9.4-3.2,13.8c-9.3,17.8-7.5,39.5-0.7,57.9c1.3,3.6-1.6,10-2.7,14
		c-10-27.4-8.9-60.5,6.2-85.9C184.8,470.7,184.9,470.7,185,470.8z"/>
	<path class="st0" d="M423.5,475.3c2.5-1,5-2,7.4-3c3.9,4,5.8,10.8,5.1,18.3c-2.7,0.7-5.6,1.4-8.5,2.1
		C426.2,486.9,424.9,481.3,423.5,475.3z"/>
	<path class="st0" d="M402.5,517.7c9.1-9.5,0.2-11.3,11.1-14.8c0.7,4.7,0.7,9-2.8,12.4C408.6,517.5,406.1,519.3,402.5,517.7z"/>
	<path class="st0" d="M334,348.4c-2.2-8.3-11.9-26.7-19-11.4c-4.8-4.6-10.8-21.5-10.9-30.4c10.6,3.9,5.3,13.3,15.4,18.1
		c3.9,2.1,7.8,4.4,11.7,6.4c3.3,1.4,3.9,5.6,6.8,7.7c3.1,2.6,7,2.3,9.7-0.7c1.1-1.2,2.1-1.5,3.6-1.4c17.9,2.1,35.1-0.5,51.8-7.2
		c1.2-0.5,2.1-0.7,3.2,0.2c3.2,2.4,7.3,1.2,9.6-2.3c2.3-4,0.8-4.9,5.6-8c8.7-5.9,14.7-13.7,19.7-22.9c1.4,10.6,0.4,20.3-2.3,30.3
		c-9.6-7.7-16.8,0.7-16.7,10.8c0.1,4.1,0.5,8.3,0.9,12.4c0.8,5.9-17.1,13.7-22.2,15.4C387.4,342.5,357,338.6,334,348.4z"/>
	<path class="st0" d="M334.6,350.7c22-6.1,49.1-4.4,63.8,15.2c-20.5,6.3-41.1,3.5-59.9-6.5C334.7,357.7,335.5,354.5,334.6,350.7z"/>
	<path class="st0" d="M439.3,283.8c5.1,12.4-10.5,25.9-19.5,32.5c-0.8,0.6-1.6,1.2-2.5-0.3c-2.5,7.5-5.2,16.1-13.4,7.8
		c-4,5.8-52.9,14.3-54,6.6c-7.4,12.4-11.9,4.6-16.6-4.4c-0.4,0.5-0.6,0.9-1,1.4c-4.5-1.5-8.6-4.4-13-6.4c-2.8-1.4-4.5-3.5-4.9-6.9
		C354.7,340.5,420,332.3,439.3,283.8z"/>
	<path class="st0" d="M426.6,347.8c-2-6-3.6-21.8,5.8-21.4c1.9,0.4,4.3,3,4.5,4.9C436.5,335.2,430.2,346.2,426.6,347.8z"/>
	<path class="st0" d="M331.6,354.8c-4.9-3.1-8-7-12-10.9c-2.1-2.2-2.1-6.3-0.3-8.8C325.5,328.3,331.8,349.9,331.6,354.8z"/>
	<path class="st0" d="M302.8,276c12-36.7-29.4-56.7-51.7-33.9c-11.6,12.1-11.4,31.9,0.8,43.8c-4.2,1.1-8,2.1-11.8,3
		c-24.4-29.4,5.1-79.3,42.8-67.1c19.3,6,32.1,27.8,28.5,47.6C310.6,273.8,306.2,273.8,302.8,276z"/>
	<path class="st0" d="M286.6,280.6c9-6.7,11.2-21.5,3.1-29.5c-3.7,12.8-21.9,6.6-15.1-6.9c-22.1-2.1-29,31.2-7.1,39.3
		c-0.1,0.2-0.1,0.4-0.2,0.6c-3.7,0.5-7.4,1-11.2,1.3c-17.5-11.4-13.1-39.9,5.9-48c22.9-11.4,49.4,14.7,38.2,37.8
		c-0.8,1.8-1.9,2.9-3.8,3.4c-3.2,0.8-6.3,1.8-9.4,2.7C286.8,281.1,286.7,280.9,286.6,280.6z"/>
	<path class="st0" d="M456,246.2c13.1-28.2-15.7-53.5-42.5-38.9c24-36.8,69.4-4.3,63.5,30.5c-0.6,4.9-1.2,5.7-6.1,6.7
		C466,245.1,461,246.3,456,246.2z"/>
	<path class="st0" d="M427.5,213.9c-9.9,0.3-16,5.3-20.1,13.7c-0.4-7.5,1.9-15.1,9.1-18.5c22-13.8,49.8,12.4,37.4,35.2
		c-0.8,1.7-1.8,2.7-3.8,2.8c-2.4,0-4.2,0.5-6.7,0.4c5.5-9.1,5.5-17.8-0.8-26.4C435.8,232.4,422.8,226.1,427.5,213.9z"/>
	<path class="st0" d="M335.1,60.1c7.4,0.7,16.1,4.7,17.3,12.7c0.4,3-1.2,5.1-4.2,5.8c-5.2,0.9-10.5,1.9-15.1,4.7
		c-2.7,1.6-5.5,1.3-8.1-0.4C317.4,78.6,326.7,58.6,335.1,60.1z"/>
	<path class="st0" d="M341.1,49.9c0.2-7.8,10.9-9.3,11-0.8C351.7,56.9,341.3,58.6,341.1,49.9z"/>
	<path class="st0" d="M321.8,39.4c6.6-0.6,14.4,12.4,5.1,13.9C319.9,54.2,311.7,40.4,321.8,39.4z"/>
	<path class="st0" d="M311.3,65.6c-2.6-0.1-5.2-1.4-6.9-4c-2-2.9-0.8-5.8,2.7-6.5C313.8,53.2,323.1,65.3,311.3,65.6z"/>
	<path class="st0" d="M425.5,504.4c6.5-3.2,23.9-8,29.9-4c2.5,5.1,6.4,8.6,11.9,10.5c2.8,19.3-0.6,40.7-15.4,54.6
		c-6,5.4-25.2-13.5-27.6-19.5c-3.7-6.3-6-13.1-7.7-20.2C415.3,520.9,425,521,425.5,504.4z M433.2,505.2c-14,9.7-16.6,34.9,1.4,41
		c1.5,0.5,2,1.4,2.2,2.7c1,4.3-0.4,10.1,4.5,12c6,3.5,9.4,4.1,13.9-1.8c3.1-3.4,0.4-9.5,0.4-13.8c-0.2-1.4,0.2-2.3,1.2-3.4
		c12.3-10.8,5.7-34.4-9.8-38.4c0.1,1.9,0.2,3.4,0.3,5.4c-2.6-1.2-4.7-2.2-6.9-3.2c-2,1.6-3.9,3.1-6.1,4.9
		C433.9,508.8,433.6,507.3,433.2,505.2z"/>
	<path class="st0" d="M434.2,533.9c6.3-0.7,12.2-1.4,18.4-2.1c-0.3-8-2-15.7-2.5-23.5c11.2,4.9,15.3,25.8,2.6,33.6
		c0.4,3.5,0.7,7.2,1.1,10.8c0.8,4.8-3.9,10.2-8.6,7.2c-7.5-2.4-4.8-8.8-6.5-15.1c-16.2-2.4-18.5-24.4-7.3-34.1
		C432.3,518.6,433.3,526,434.2,533.9z"/>
	<path class="st0" d="M442.5,523.9c-5-2.4-7.9-2.6-7.9-8.6c-0.3-3.2,3.2-3.9,4.7-5.8c1.5-1.8,3.3,0.2,4.9,0.6c3.8,0.9,4,3.9,4.1,6.9
		C448,519.9,444.4,521.6,442.5,523.9z"/>
	<path class="st0" d="M449.6,529.6c-4.5,0.5-8.6,1-13.1,1.5c-0.3-2.7-0.6-5-0.9-7.9c2.7,1.3,4.9,2.3,7.4,3.4
		c1.7-1.6,3.5-3.2,5.5-5.1C449.6,524.1,449.7,526.6,449.6,529.6z"/>
</g>
</svg>
