<?xml version="1.0" encoding="utf-8"?>
<!-- Generator: Adobe Illustrator 26.0.0, SVG Export Plug-In . SVG Version: 6.00 Build 0)  -->
<svg version="1.1" id="Capa_1" xmlns="http://www.w3.org/2000/svg" xmlns:xlink="http://www.w3.org/1999/xlink" x="0px" y="0px"
	 viewBox="0 0 595.3 1098.7" style="enable-background:new 0 0 595.3 1098.7;" xml:space="preserve">
<style type="text/css">
	.st0{fill:#FFFFFF;}
</style>
<g>
	<path d="M268.5,48.5c4.2,3.5,2.8,8.7,5.2,13.2c2.9-5.4,5.5-10.2,7.9-15c3.7-7.1,3.6-7.1,8-0.6c0.7,1,1.5,2,2.7,3.6
		c6.6-10.9,12.1-21.8,15.4-35c4,3.7,7.4,6.8,11.3,10.4c0-9-2.3-16.9-4.6-25.1c27.7,4,48.6,18.2,64.6,42c0-3.7,0-6.2,0-9.6
		c7.9,4.7,12.4,11.6,18,17.9c-0.2-3.6-0.4-7.2-0.6-11.7c1.8,0.8,3.4,1.2,4.8,2.1c14.9,9.7,25.7,23.3,34.6,38.2
		c6.1,10.1,10.3,21.4,15.3,32.2c0.5,1,0.9,2.1,1.6,3.5c2.5-2.1,4.7-4.2,7.1-6c3.1-2.2,4.3-1.5,5,2.2c2.1,11.6,4.2,23.2,6.4,34.8
		c5.7,29.9,5,59.7-1.9,89.3c-5,21.5-11.7,42.2-23,61.3c-0.4,0.6-0.6,1.4-1,2.3c7.1,4.2,7.8,11.3,8.1,18.4
		c0.5,10.6-0.9,20.8-8.1,29.3c-4.1,4.8-9.3,7.6-15.7,7.9c-2.2,0.1-3.7,0.7-4.3,3c-6,21.9-21,36.2-40.2,46.7c-4.8,2.6-10,4.6-15,6.9
		c-1.7,0.8-3.4,1.6-5.3,2.6c0.8,1.3,1.1,2.4,1.9,2.9c6.1,3.8,12.4,9,19.8,7.8c11.7-1.8,23.7,8.4,26.6,18.8c1.6,5.6,2.4,5.9,8.2,6.9
		c13.9,2.3,27.8,4.8,41.6,7.7c2.8,0.6,5.6,3.1,7.6,5.4c7.6,8.7,12,19.4,16.3,29.9c5.4,13.2,9.6,26.9,11.1,41c1.2,11.4,0.8,23,1,34.5
		c0,1-0.6,2.7-1.3,3c-5.6,2-4.7,7-5.4,11.2c-1.3,7.6-2.6,15.1-3.8,22.7c-1.4,8.5-6.5,14.3-13.7,18.4c-5.5,3.2-11,6.5-16.7,9.3
		c-3.3,1.6-6.6,0.4-9.4-1.5c-6.5-4.2-10.7-10.3-13.2-17.5c-1-2.7-2.1-3.8-5.3-3.2c-10.8,1.8-20.1-9.6-15.9-19.9
		c1.2-2.9,4.4-5.3,7.3-7c3.3-2,5.8-4,6-8.1c0.1-2,1.1-3.9,1.8-5.9c5.5-16.9,4.2-34.2,1.9-51.4c-0.6-4.6-2-9-3.1-13.5
		c-0.6-2.5-1.8-3.5-4.7-3.2c-4.7,0.6-9.4,0.8-14.2,1.1c-0.8,0.1-1.9-0.2-2.2,0.2c-3.4,4-8.7,6.4-10.1,12.1
		c-5.2,20.3-3.4,40.8-1.6,61.2c0.4,4.1,1.6,8.1,1.9,12.1c0.2,2.9,0.5,6.3-0.8,8.7c-2.2,4.1-0.6,6.9,0.8,10.6
		c5.6,15,8.5,30.3,0.7,45.7c-1.2,2.3-1,5.5-0.9,8.3c0.1,5-1.6,8.9-5.3,12.3c-0.8,0.7-1.3,2.7-1,3.8c2.1,5.9,4.5,11.7,6.7,17.6
		c1.1,2.9,2.8,4.6,6,5.2c4,0.8,8.1,1.6,11.9,3c2,0.7,3.9,2.3,5.1,4.1c3.1,4.6,6,9.5,8.7,14.4c0.9,1.6,1.9,3.7,1.6,5.3
		c-0.7,3.2,0.7,5.4,2.2,7.8c7.5,12.1,14.8,24.3,22.3,36.3c4.5,7.2,3.6,13.6-1.9,20c-5.7,6.6-5.6,6.9-1.2,14.3
		c19.4,32.8,38.8,65.5,58.3,98.2c0.9,1.5,2.1,2.9,3.2,4.4c0.8-0.4,1.5-0.5,1.9-1c7.8-8.5,17.7-8.6,27.8-6.5
		c20,4.2,35.4,15.5,45.5,33.2c6.3,11,7.1,23.5,5.8,35.9c-2.3,23.1-10.8,44.2-22.5,64c-11,18.7-23.8,35.9-40.6,49.8
		c-12.6,10.4-27.2,15.5-43.4,14.6c-6.3-0.4-12.9-2.4-18.7-5.1c-9.6-4.6-12.8-13.5-13-23.6c-0.1-3.2-1.3-5.1-4.1-6.7
		c-9.3-5.3-13.1-14.5-16-24.1c-4.3-14.3-4.7-29-3.9-43.9c0.2-4.1-0.2-8.5-1.5-12.4c-10.4-29.1-20.3-58.3-31.7-87
		c-16.5-41.4-33-82.9-55.1-121.8c-3.5-6.1-7.7-11.8-11.8-17.5c-0.7-1-2.2-1.8-3.4-2.1c-9.7-2.3-19.5-4.5-29.2-6.8
		c-3.1-0.7-4.8,0.3-6.5,3.1c-5,8.5-10.3,16.9-15.7,25.1c-2.2,3.3-1.6,6.1-1,9.6c1.7,10.4,3.1,20.8,4,31.3
		c1.4,15.2,1.9,30.5,3.3,45.7c0.9,9.6,3.1,19,3.8,28.6c1.2,14.6-1.5,28.4-10.6,40.4c-5.2,6.9-12.5,9.9-20.9,10.4
		c-10.6,0.7-21,0.3-31-3.8c-13.7-5.6-22.3-15.6-26.6-29.5c-1.8-6-2.7-12.3-4.3-18.3c-0.4-1.5-1.7-3.1-3.1-3.8
		c-8.6-4.7-15.9-10.4-19.3-20c-0.9-2.5-2.1-5.2-2.1-7.7c-0.1-7.9-4.1-14.5-6.4-21.6c-2.2-6.8-4.2-13.7-5.8-20.7
		c-1.4-6-0.2-11.8,3.1-17c3.5-5.6,7.3-11.2,11.2-16.5c1.8-2.5,2.6-4.8,1.5-7.8c-0.9-2.6-1.6-5.4-2.3-8.1c-2-8.3,1.5-14.9,7.3-20.3
		c8.2-7.7,16.8-15,25.3-22.4c2.1-1.8,3.7-3.6,3.7-6.7c0-4.4,2.5-7.1,6.6-9c4-1.9,7.9-4.3,11.4-7c3.8-3,7.5-4.2,12.1-2.6
		c2.2,0.8,4.3,1,6.3-1.1c2-2.1,1.5-4.1,1.3-6.6c-0.6-6-3.8-10.2-7.5-14.6c-8.7-10.4-13.2-22.7-15.6-35.9c-1.7-9.3-2.4-18.5-1.4-27.9
		c0.2-2.1-1-4.5-2-6.4c-10.9-20.3-18.2-41.8-22.1-64.4c-2.8-16.2-4.5-32.5-6.8-48.7c-0.2-1.3-1.3-2.8-2.4-3.4
		c-11.4-6.4-16.8-16-16.9-29c0-1.9-2.5-4.1-4.3-5.7c-12.6-11.5-26-22.2-37.9-34.3c-35.1-35.6-62.3-76.7-83.7-121.8
		c-3.2-6.7-6.2-13.3-2.5-20.9c0.6-1.2-0.3-3.5-1.1-5c-6.2-11.9-12.4-23.9-19-35.7c-1.1-2-3.6-3.3-5.5-4.9c-0.6-0.5-1.3-0.8-2.1-1
		c-9.1-2.1-11.8-9-12.6-17.1c-0.7-7.3-1.5-14.5-1.8-21.8c-0.1-2.1,0.9-4.5,2-6.4c5.7-9.3,13.7-15.9,24.1-19.3c2.5-0.8,3.7-2,3.3-4.7
		c-1.1-7,2.8-11.3,7.9-15c6.2-4.4,13.1-6.9,20.4-8.4c0.7-0.2,1.5-0.4,2.6-0.7c-1.3-3.5-2.6-6.8-3.6-10.1c-2.9-9.7-4.3-19.5-2-29.6
		c2.1-9.3,7.5-15.9,16.2-19.1c7.1-2.6,13.6,0,19.1,5c6.9,6.3,10.2,14.7,13.5,23c7.6,19,15.2,38,22.5,57.2
		c6.8,17.8,13.1,35.8,19.8,53.7c0.9,2.5,2.7,5,4.8,6.5c5.2,3.9,6.7,9.4,8.2,15.2c3.6,13.7,6.8,27.6,11.1,41.1
		c6,18.6,12.6,37.1,19.5,55.4c6.5,17.2,15.3,33.3,25.8,48.4c0.7,0.9,1.4,1.9,1.9,2.9c1.4,2.7,3.2,3.3,6.5,2.8c6.7-1,13.7-2.1,20.2,2
		c1,0.6,3.1-0.5,4.7-0.9c-0.5-1.3-0.7-2.9-1.6-3.7c-9.7-8-18-17.2-25-27.6c-6-9-9.9-18.8-10-29.8c0-1-0.2-2-0.3-3.1
		c-0.1-0.6-0.3-1.2-0.4-1.9c-3.8-0.4-7.7-0.5-11.4-1.2c-11.8-2.3-18.4-10.4-21.6-21.2c-3-10-2.7-20.3,1.6-30.1
		c2-4.7,5.2-8.3,10-10.1c2.6-1,2.8-2.2,2-4.6c-2.8-8.2-5.8-16.4-8-24.8c-4.2-16.5-4.3-33.2-2.2-50.1c3.9-31.2,19.1-56.7,39.6-79.6
		c10.5-11.6,21.2-23,31.6-34.7c3-3.3,5-7.4,7.7-11C263,54.7,265.7,51.8,268.5,48.5z"/>
	<path class="st0" d="M351.5,719.6c-5.3,3.2-10,8.2-13.6,14.1c-2.5,4.1-4.1,8.7-5.7,13.3c-0.9,2.7-2,3.7-5,2.9
		c-7.6-2-15.1-4.5-22.8-5.3c-6.8-0.6-10.9-3.1-13.3-9.4c-0.9-2.3-3.3-4.1-5.5-5.7c2.3,3.7,4.6,7.4,6.9,11.1c1.3,2.1,1,3.7-0.4,5.9
		c-13.2,20.6-26.1,41.4-39.1,62.2c-1.6,2.5-2.4,5.5-3.5,8.3c0.4,0.2,0.8,0.4,1.1,0.6c2.2-3.7,4.4-7.5,6.6-11.2
		c1.9,10.8-1.8,21.1-2.8,31.5c0.3,0.1,0.6,0.2,1,0.3c1.3-4.6,3.2-9.1,3.9-13.7c0.9-5.9,1.7-12.1,0.9-18c-0.8-6.1,3-9.3,5.4-13.5
		c0.4,0,0.9-0.1,1.3-0.1c1,3.7,2,7.3,2.9,11c0.2,0,0.5-0.1,0.7-0.1c-0.5-3.1-0.5-6.5-1.7-9.4c-2.1-5.1,0.4-8.2,4-12.2
		c0.8,4.4,1.8,8.1,2.1,11.8c1,11.4,1.9,22.8,2.4,34.2c0.8,19.1,2.5,38.1,5.4,57c2.3,14.6,0.5,28.6-8,41.3
		c-4.7,7-11.5,10.3-19.7,10.8c-9,0.5-17.9,0-26.6-3c-15.8-5.4-24.2-17-27.9-32.6c-1-4.3-1.9-8.7-3-14c4.2,1.4,7.4,2.3,10.4,3.6
		c1,0.5,1.6,2.2,1.9,3.4c2.3,7.9,4.6,15.7,6.7,23.7c1.7,6.7,7.1,9.1,12.6,11.4c9.2,3.8,17.6,2.3,22.4-4.3c1.7-2.3,2.9-5.7,2.6-8.4
		c-0.8-7.7-2.6-15.4-3.8-23.1c-0.2-1.3,0.1-3.6,1-4.1c8.4-5.3,11.3-14,13.8-22.8c1.7-5.7,1.8-12.1,6.5-16.8
		c-0.9,0.6-1.7,1.1-3.4,2.2c0.9-17.9,1.3-35.2-4.5-51.9c0.6,5.8,1.1,11.7,1.7,17.5c1.7,16.9,0.4,33.6-4.3,49.9
		c-1.3,4.4-3.3,8.6-5.4,12.7c-2.4,4.6-6.7,7.3-11.7,8c-21.2,3-41.5,0.9-59.6-11.6c-7.7-5.3-11-13-12-22.7c1.2,0.5,1.7,0.7,2.2,1
		c0-0.2,0.1-0.5,0.1-0.6c-2.5-6-5.6-11.8-7.6-18c-2.2-6.9-3.8-14.1-5.2-21.2c-1.4-7.3,1.1-13.7,5.6-19.4
		c19.1-24.1,38.2-48.3,57.4-72.3c7.6-9.5,15.5-18.7,23.4-28.2c23.4,9.3,47.7,9.5,72.1,7.6c24.8-1.9,46.8-11.6,66.7-26.4
		c3.2,8.7,6.1,17.3,9.5,25.8c12,30,25.5,59.3,41,87.7c21.8,40,45,79.1,70.1,117.1c4.7,7.1,3.1,10.7-5.2,13.5
		c-14.5,4.9-26.9,13-36.3,25.3c-0.3,0.4-0.6,0.8-0.8,1.3c-0.1,0.2,0,0.4,0,0.9c11.2-10.9,23.4-20.2,39.4-25.7
		c-1.2,2.7-1.9,4.3-2.5,5.9c-2.1,5.1-4.1,10.2-6.4,15.2c-1,2.1-2.2,4.6-4,5.8c-15.5,9.7-25,24.1-32,40.4c-3.4,8-5.7,16.5-8.1,24.8
		c-3,10.2,0,20.1,1.8,30c1,5.3,1.8,10.7,2.9,16.8c-7.2-3.1-10.9-8.2-13.3-14.3c-6-14.7-7.2-30.1-6.4-45.7
		c0.7-12.8,2.3-25.5,3.4-38.3c0.3-3.4,0.4-6.9-0.3-10.4c-1.5,10-3.1,20.1-4.7,30.6c-0.5-1-1-1.8-1.3-2.6
		c-10.5-35.4-23.6-69.9-37.4-104.1c-11.6-28.6-23.9-56.9-37-84.8c-6-12.8-13.9-24.9-22.3-36.3c-3.8-5.2-4.5-8.7-1.2-13.5
		C341.3,734.6,346.6,726.9,351.5,719.6z"/>
	<path class="st0" d="M215.1,279.3c0.5,1,0.9,2,1.4,3c0.4,0.1,0.8,0.1,1.2,0.2c0.5-1.5,1.3-3,1.4-4.5c0.5-8.2,0.9-16.4,1.2-24.6
		c0.3-7.9,3.1-14.8,8.8-20.3c7.4-7.1,11.6-15.6,12.1-25.8c0.4-9.1,4.2-16.1,11.3-21.7c3.1-2.4,5.6-5.6,8.6-8.2
		c1.1-1,2.9-1.6,4.3-1.6c26.4,0.1,52.9,0.4,79.3,0.5c4.7,0,9.5-0.9,14.2-0.5c3.7,0.2,7.5,1.4,11.1,2.6c14.9,5.3,29.6,10.7,44.5,16.1
		c4.9,1.8,10,3.3,14.8,5.3c1.3,0.5,2.9,2.5,2.9,3.8c-0.1,25.3,0.4,50.6-0.8,75.8c-0.9,19.7-3.5,39.3-6.2,58.9
		c-2.2,16.2-7.4,31.4-19.1,43.7c-8.8,9.2-19.2,16.2-30.7,21.4c-10.9,4.9-22.2,8.4-34.1,10.4c-25.1,4.3-47.6-2.5-69.1-14.9
		c-18.5-10.6-34.6-23.8-46.9-41.4c-7.7-10.9-9.5-23.3-10.9-36c-0.1-1-0.2-2-0.3-3.1c0-0.2-0.2-0.4-0.5-0.8c-0.9,1.4-1.6,3.3-2.8,3.8
		c-1.3,0.6-3.3,0-4.9-0.1c-11.9-0.6-19.2-7.4-22.8-18.1c-3.1-9.2-3.1-18.7,0.7-27.9c2.1-5.1,5-9.3,11.1-10
		c6.8-0.7,11.4,2.9,15.4,7.8c1.7,2.1,3.3,4.2,4.9,6.3L215.1,279.3z M390.5,309.6c5.3,0.7,8.7-0.9,13.6-4.5
		c12.7-9.3,14.5-39.5,8.2-50.9c-5.2-9.4-12.5-14.6-23.4-14.5c-11.2,0.1-19.8,4.4-25.1,14.6c-5.2,10-6.5,20.7-5.4,31.8
		c0.8,7.9,4.5,14.5,10.8,19.3c4.9,3.7,10.4,6,16,4.9c-4.8-2.2-10.4-4-15.2-7.2c-5-3.3-8.2-8.5-8.6-15c0.6,0.1,0.8,0.1,0.8,0.1
		c0.5,0.9,1,1.8,1.5,2.7c4.7,8.9,12.1,13,22.1,12.3c9.5-0.7,15-6.6,18.1-15c3.8-10.1-1.7-22.8-11.4-26.9c-11.3-4.9-23.3-0.6-28.5,10
		c-1.1,2.3-2.2,4.7-3.2,7c-0.1-8.3,1.6-15.9,5.9-22.8c9.3-14.8,33.3-16.3,42.4,1.1c3.8,7.4,5,15.1,4,23.1
		c-1.2,10.1-4,19.8-13.3,25.8C396.9,307.2,393.6,308.2,390.5,309.6z M314,267.8c0.5-10-3.5-18.8-8.5-26.7
		c-9.2-14.5-33.2-14.4-44.1-3.1c-13.2,13.7-16.9,42.8,1.7,58.4c10.1,8.5,26.7,9.4,37.1,1.4C310,290.2,313.6,279.7,314,267.8z
		 M369.9,347.1c0.1-0.1,0.1-0.3,0.2-0.4c-1.4-0.3-2.8-0.8-4.2-0.9c-10.4-0.7-20.7-1.7-31.1-1.9c-13.6-0.2-27.2-1.1-40.7,1.7
		c-7.7,1.6-9,4.3-3.5,10c4.7,4.8,9.9,9.5,15.6,12.9c15.7,9.3,31.9,10.9,47.8,0.1c6.2-4.2,10.7-9.9,12.8-17.3c-0.9,0.9-1.6,1.9-2.3,3
		c-4.8,7.2-11.1,12.7-19.2,16.1c-2.6,1.1-4.5,1.1-6-1.8c-0.8-1.6-2.4-3-3.9-4.1c-9.6-6.8-20.2-4.6-30.7-3.1
		c-1.3,0.2-3.1,0.7-3.8,0.1c-4.2-3.5-8.1-7.3-12.1-11c0.2-0.5,0.3-1,0.5-1.6c2.2-0.6,4.5-1.7,6.7-1.8c16-0.1,32.1-0.1,48.1-0.1
		C352.7,347.1,361.3,347.1,369.9,347.1z M286.7,183.1c-0.1,0.4-0.2,0.7-0.3,1.1c-5.9-0.8-11,1.3-15.4,4.6c-2.7,2-5.1,4.7-7,7.5
		c-0.7,1.1,0.2,3.3,0.3,4.9c1.3-0.3,3-0.1,3.7-0.8c7.5-7.3,16.4-9.4,26.5-7.7c1.1,0.2,3.1-1.2,3.7-2.4c0.4-0.8-0.3-3.3-1.2-3.6
		C293.8,185.3,290.2,184.3,286.7,183.1z M393.5,203.3c-2,0.2-4.9,0.4-5.3,3.6c-0.5,3.1,2.3,4.4,4.6,4.6c7.9,0.7,14,4.2,19.4,9.7
		c1.2,1.2,3.8,1.1,5.7,1.7c-0.2-2,0.2-4.5-0.8-6C411.8,208.5,403.9,204.4,393.5,203.3z M347.7,280.3c1.9-19.1,6.2-37.5,14.9-54.8
		C353.1,234.2,344.8,264.8,347.7,280.3z M326.1,323.5c4.7,0.7,8.6,1.9,12.4,1.6c3.7-0.3,7.2-2.2,10.8-3.4c-3.6,0.1-7,1.2-10.3,0.9
		c-4.9-0.4-9.8-1.9-14.7-2.6c-1.3-0.2-2.7,0.7-4,1.1c0.5,1.2,0.7,2.8,1.6,3.5c6.5,4.9,13.9,6.5,21.8,4.4c2.2-0.6,4.2-2.1,6.3-3.2
		C337.1,330.2,331,328.2,326.1,323.5z M211.5,299.9c-0.2-8.4-9.4-18.2-18.8-19.6C201.6,285.1,206.9,292.2,211.5,299.9z M321.9,383.7
		c4,4.1,14.8,4.1,18.6,0C334.3,383.7,328.1,383.7,321.9,383.7z M328.9,310.9c5.9,0.3,11.8,0.5,17.5,0.8
		C344.2,307.9,336.6,307.2,328.9,310.9z"/>
	<path class="st0" d="M310.4,19.5c5,7,10,14,15,20.9c-1.2-12.1-1.4-24.6-7.1-37.3c26.1,7.2,45.2,21.9,58.7,43.8
		c13.4,21.7,19.2,45.3,16.1,71c0.4,0,0.7,0,1.1,0c0.4-2.5,0.6-5.1,1.1-7.6c1.5-7.1,3.1-14.2,4.6-21.3c3.2-14.7,3-29.5,0.9-44.9
		c1.2,0.7,2.1,1.1,2.7,1.8c23.5,22.4,40.1,48.8,47.3,80.7c4.8,21.7,2.4,42.6-8.2,62.3c-0.2,0.4-0.4,0.9-0.4,1.4
		c6.8-7.8,10.2-17.2,12.5-27.1c2.9-12.4,1.6-24.7-0.3-37.1c-0.9-6,1.3-10.5,7.5-13.7c0.6,4.3,1,8.5,1.7,12.6
		c3.3,19.4,6.2,38.7,6.1,58.5c-0.1,39.3-8.9,76.5-26.7,111.5c-2.2,4.3-2.6,4.5-8.9,4.8c0-2.6-0.1-5.3,0-7.9
		c1.7-27.7,1.3-55.4-0.2-83.1c0-0.5-0.2-1.1-0.1-1.5c1.3-6.1-2-8.6-7.2-10.6c-18.3-6.9-36.7-13.8-54.6-21.7
		c-5.3-2.3-9.8-1.1-14.7-1.2c-10.3,0-20.5-0.6-30.8-0.8c-18.3-0.5-36.7-1.1-55-1.4c-9.2-0.2-9.4,0.1-10.6-9
		c-3.2-23.5-1.1-46.4,10.4-67.7c8.9-16.6,18.7-32.7,27.5-49.4c3.8-7.3,6.2-15.4,9.2-23.1c0.3-0.8,0.7-1.6,1.1-2.4
		C309.4,19.9,309.9,19.7,310.4,19.5z"/>
	<path class="st0" d="M45.5,289.9c2.8,1.1,4.7,2.2,6.7,2.7c16.5,4.1,33,5.1,49.8,0.8c10.2-2.6,19.7-6.3,28.7-11.7
		c12-7.3,21.1-17,26.4-31.2c0.8,2.1,1.4,3.3,1.8,4.7c6.1,20.1,11.7,40.3,18.3,60.3c6.3,19.1,13.6,37.9,24,55.3
		c7.5,12.5,15.5,24.8,23.8,36.8c9.1,13.2,6.9,35.8-2.1,47.6c-7.3,9.5-21.6,12.6-33.5,7.4c-12.2-5.3-22.2-13.7-32.2-22.1
		c-34.2-28.8-62.4-62.7-85.4-100.9c-9-15-16.8-30.8-25.2-46.3C46,292.6,46,291.6,45.5,289.9z"/>
	<path class="st0" d="M194.4,491.1c9.3,2.4,17.9,1.8,26.8-1.3c1.4,3.9,3,7.6,4.1,11.5c4.8,16.6,16.8,25.7,32.2,31.5
		c21.4,8.2,43.8,11.6,66.6,12.7c3,0.1,4.3,1.1,4.9,4c1.5,6.9,3.3,13.7,4.9,20.6c0.3,1.2,0.3,3.1-0.4,3.8c-4.6,4.6-2.8,10.2-0.8,14.3
		c2.2,4.7,1.9,8.9,1.2,13.4c-0.4,2.6-0.1,3.6,2.6,4.2c1.4,0.3,3,1.8,3.5,3.2c1.9,5.1,2.4,10.3,1.4,15.9c-0.5,2.6,0.5,5.6,1.4,8.2
		c4.8,13.1,6.4,26.6,5.8,40.5c-0.1,2.9-1.1,4.4-4,5.1c-22.9,5.3-46.1,9.1-69.7,7.2c-8.7-0.7-17.3-3.1-25.9-5.3
		c-2.5-0.6-4.8-2.9-6.7-4.9c-9.2-9.9-14.3-21.8-16.4-35c-1.1-7.2-1.5-14.5-2.1-21.8c-0.1-1.4,0.4-2.8,0.8-5c1.4,1.6,2.2,2.5,3.1,3.4
		C207.4,577.9,198.6,535.5,194.4,491.1z M244.8,656.9c1.3,6.2,2.3,11.6,3.6,16.9c0.8,3.3,3,4.4,6.5,3.3
		c15.1-4.9,28.5-12.9,40.2-23.5c5.6-5.1,5.4-5.2-1.1-8.8c-7.7-4.2-14.7-8.1-23.6-1.1c-6.1,4.7-14.3,6.7-21.4,10.1
		C247.5,654.6,246.2,655.8,244.8,656.9z"/>
	<path class="st0" d="M24.9,234.2c2.6,0.9,4.1,1.5,5.6,1.9c5.7,1.8,11.4,3.9,17.3,5.1c2.3,0.5,5.1-0.7,7.6-1.2
		c1.5-0.3,3-0.8,4.5-0.7c6.3,0.3,12.6,0.6,18.8,1.2c1.6,0.2,3.2,1.4,4.4,2.6c2.8,2.8,5.2,6.1,8,8.8c10.2,9.6,30,10.6,41.3,1.9
		c-8.4,3.6-17.1,2.8-25.8,2.3c-9.8-0.6-14.9-8.1-22-15c6.3-0.4,11.6-0.7,16.8-1c0-0.4,0.1-0.8,0.1-1.2c-2-0.4-3.9-1-5.9-1.1
		c-10.6-0.9-21.2-1.7-31.8-2.6c-2.4-0.2-4.8-0.7-7.2-1.3c-8.5-2.2-11.2-12.5-4.9-18.7c12.9-12.9,28.4-20.4,46.5-22.5
		c1.3-0.2,3.1-1.6,3.7-2.9c2-4.4,3.7-9,5.2-13.6c0.7-2,0.8-4.2,0.3-6.6c-0.8,1.9-1.5,3.9-2.3,5.8c-1.6,3.4-3.2,6.7-4.8,10.1
		c-2.7,5.4-5.8,6.9-11.8,5.8c-0.7-0.1-1.7-0.5-1.9-1c-2.7-5.7-5.9-11.4-3.1-18.9c2.7,3.4,5.2,6.4,7.7,9.5c0.4-0.3,0.8-0.6,1.2-0.8
		c-3.6-5.1-7.2-10.2-10.8-15.4c4.5-1.1,9.1-2.3,13.6-3.4c-0.1-0.4-0.2-0.8-0.3-1.1c-3.9,0.8-7.8,1.8-11.8,2.1
		c-1.7,0.1-4.2-0.9-5-2.2c-9.5-14.2-17-29.3-19.4-46.4c-1.3-9.4-0.1-18.3,6.7-25.5c6.8-7.2,15.9-7.6,22.1,0.2
		c4.9,6.1,8.7,13.3,11.6,20.6c12.1,29.9,23.7,60,35.4,90.1c6.3,16.1,12.6,32.2,18.6,48.4c0.7,1.9-0.1,4.8-1.1,6.8
		c-5.1,10.6-13.3,18.3-23.3,24.4c-12.4,7.5-25.8,12.1-40.1,13.3c-9.5,0.8-19.2-0.1-28.8-0.3c-3.4-0.1-4.8-2.6-6.1-5.1
		c-8-14.6-15.9-29.2-23.9-43.9C28.2,240.1,26.8,237.7,24.9,234.2z"/>
	<path class="st0" d="M476.2,1029.4c-1.4-1.2-2.6-3.1-4.2-3.6c-1.9-0.5-4.9-0.7-6.2,0.5c-3.6,3.1-6.6,7-10.8,11.6
		c-0.6-4.8-1.9-8.9-1.3-12.8c2.6-19.8,9.6-37.9,21.1-54.3c4.1-5.8,8.1-11.6,14-15.7c0.7-0.5,1.4-1.1,2.1-1.6
		c0.3-0.2,0.7-0.2,2.4-0.5c-1.5,1.9-2.1,3.3-3.1,3.9c-7.3,4-9.9,10.7-10.9,18.3c-1,8-2.2,16-2.7,24c-0.4,5.5,3.2,10,9,11.6
		c-0.9-1.2-1.6-2.6-2.7-3.5c-2.8-2.2-3.7-5-3.6-8.5c0.2-10.9,2.1-21.4,5-31.8c0.7-2.5,2-4.6,5.2-4.9c1-0.1,2.4-1.5,2.8-2.6
		c2.3-5.8,4.4-11.8,6.7-17.6c4.1-10.4,8.4-20.6,15.8-29.3c6.7-7.9,15-10.1,24.8-8.7c16.3,2.4,29.5,10.8,39.6,23.2
		c4.7,5.7,10.1,12,10.4,20.4c0.3,7.8,1.9,15.7,0.8,23.3c-5.9,41.1-26,75.1-54.6,104.4c-9.1,9.3-20.1,16-33,18.7
		c-11.1,2.4-22.4,2.3-32.4-4c-3.7-2.3-6.3-6.5-9.2-10c-0.5-0.6-0.7-1.7-0.8-2.5c-1.3-10.6-2.5-21.2-4-31.8c-0.5-3.3,0.1-6,2.5-8.4
		c2.4-2.4,4.7-5.1,6.8-7.8c2.1-2.6,4.2-3.1,6.7-0.5c0.7,0.7,1.8,1.1,2.7,1.7C475.5,1030.2,475.8,1029.8,476.2,1029.4z M499,1019.2
		c2.8-0.5,5-0.8,7.2-1.3c12.3-2.8,23.8-7.1,33-16.3c6.5-6.5,9.6-14.2,8.1-23.4c-0.8-5.4-4-8.9-9.3-10.6c-7.1-2.3-14-0.8-20.9,0.7
		c-0.8,0.2-1.8,2-1.8,3.2c-0.9,16.5-5.5,31.7-15.4,45.2C499.4,1017.2,499.4,1018.1,499,1019.2z M515.7,1037.1
		c-9.9,1-18.1,1.8-26.2,2.8c-1.8,0.2-4.2,1-5.1,2.3c-5.5,8.5-10.5,17.4-10.6,28c-0.1,7.8,3.3,13.1,10.9,15.3
		c16.5,4.7,31.3,0.4,43.7-10.9c5.9-5.3,10.7-12,15.5-18.5c6.9-9.4,5.7-13-6-15.7C530.1,1038.6,522,1038,515.7,1037.1z M578.7,929.9
		c-0.5-0.4-1-0.7-1.5-1.1c-13.5-8.2-35.6-8.7-50.4,8.8c-13.1,15.5-22,33.4-28.7,52.3c-6,16.9-11.9,33.8-22.6,48.6
		c-5.7,7.9-10.1,16.5-12.2,24.2c6.6-10.7,14.2-22.7,21.4-35c3.7-6.4,6.8-13.2,9.6-20c4.1-9.9,7.6-20.2,11.7-30.1
		c5.5-13.2,12.2-25.7,21.4-36.8c8.2-9.8,17.7-16.4,31.4-15.6C565.7,925.7,572.2,927.3,578.7,929.9z M496.4,1031.7
		c-0.3-0.5-0.5-0.9-0.8-1.4c2.8-1.5,5.4-3.4,8.3-4.6c8.8-3.4,17.9-6.3,26.6-9.9c19.6-8.2,28.3-23.9,24.8-43.8
		c-2.3-13.4-15.3-21.7-28.3-17.3c2.3-0.2,3.7-0.3,5.1-0.4c8.9-0.5,17.7,5,20.3,12.8c2.6,7.9,2.3,16-0.1,23.8
		c-3.5,11.5-12.4,17.9-22.9,22.3c-8.5,3.6-17.3,6.4-25.9,9.7c-5.8,2.2-10.8,5.5-13.9,12.3c2.9-0.4,4.9-0.6,6.9-1
		c17.1-3.1,34.2-3,51.3-0.4c6.3,1,9.6-0.1,13.4-5.9c-5.2,7.8-12.1,4.1-18.6,3.2C527.2,1029.3,511.8,1028.5,496.4,1031.7z
		 M532.8,1021.8c0.1,0.2,0.2,0.4,0.3,0.6c1.1-0.3,2.1-0.6,3.2-1c25.2-9,33.2-39.5,27.2-57.7c-3.7-11.3-13.8-20.8-23.7-22.2
		c11.5,6,18.3,13.4,21.4,22.9c4.7,14.4-1.1,40.1-16.4,50C540.8,1016.9,536.8,1019.3,532.8,1021.8z M555.1,938.5
		c13.5,9.9,20.5,22.8,19.2,39.9c-1.2,16.6-9.1,29.5-20.8,40.6c15.8-10.6,23.2-25.8,23.3-44.4C577,958.3,569.8,946,555.1,938.5z
		 M561.4,1019.3c0.4,0.4,0.7,0.7,1.1,1.1c3.2-2.9,6.6-5.5,9.4-8.7c8.9-10.3,13.1-22.6,13.8-35.9c0.4-7.3-0.2-14.8-1.4-22.1
		c-1-6.2-5.8-11.5-9.6-12.9c11.1,11.8,10.4,26.3,8.1,41C580.5,996.9,573.3,1009.4,561.4,1019.3z"/>
	<path class="st0" d="M215.2,279.4c-2.6-8.4-7.1-15-16.2-17.4c-1.3-0.3-2.6-2-3.1-3.3c-5.1-12.4-8.3-25.2-9.7-38.6
		c-1.9-18.1-0.7-35.9,3.9-53.4c4.8-18.5,14.1-34.9,26-49.7c9.5-11.8,19.5-23.1,29.3-34.7c1.7-2,3.5-4.1,5.6-6
		c-5.2,13.7-11.2,27.2-13.3,41.9c10-21.3,16.8-44.1,30.3-64.2c0.9,6.4,1.3,12.9,2.8,19.1c2,8.8-0.3,16.4-4.3,24.1
		c-10.9,21-12,43.4-8.9,66.4c0.1,0.9,0.1,1.9,0.5,2.6c3.2,5.8,0.6,9.8-3.7,13.5c-4,3.4-7.7,7.1-11.9,10.9c-5.1-8-6.7-17.1-9.1-25.9
		c-0.5,7.5,0.4,14.9,3.7,21.7c2.5,5.1,3.6,9.9,1.5,15.4c-1,2.7-1,5.8-1.4,8.7c-0.9,6.5-3.1,12.3-8,17c-8.1,7.9-13.3,17.2-12.7,29
		c0.2,5.5,0.6,11,0.6,16.5c0,2.1,1.6,5-1.8,6.1C215.1,279.3,215.2,279.4,215.2,279.4z"/>
	<path class="st0" d="M430.3,500.2c13.1,0.7,20.6-7.1,25.3-18.6c-1.6,1.8-3.2,3.7-4.9,5.4c-1.8,1.8-3.6,3.6-5.7,5.2
		c-1.7,1.3-3.7,2.8-5.7,3.1c-10.1,1.4-20.3,2.5-31.4,3.8c8.5-15.3,9.7-31,7.2-47.7c4.9,1,9,1.8,13.1,2.7c10.6,2.1,21.1,4.3,31.7,6.3
		c4.3,0.8,7,3.3,9.3,6.7c7.8,11.7,13.4,24.5,17.7,37.8c5.9,18.5,8.9,37.4,8.2,56.8c-0.3,6.9-0.3,7.4-7.3,8.1
		c-15.7,1.5-31.3,1.3-45.8-6.3c-4-2.1-6-4.9-5.6-9.8c1.4-17.7-0.2-35.1-6.1-51.9C430.1,501.6,430.2,501.3,430.3,500.2z"/>
	<path class="st0" d="M261.2,410.9c4,3.9,8.1,7.7,12,11.7c11.1,11.6,21.5,23.9,33.4,34.5c6.1,5.5,9.1,11,10.2,18.9
		c2.4,18.2,5.6,36.2,8.5,54.3c0.1,0.6-0.1,1.2-0.2,2.7c-10.2-2-20.2-3.6-30-6.1c-15.4-3.9-30.7-8.3-44.4-16.9
		c-9.5-6-14.5-15.3-18.4-25.4c-0.3-0.9,1.2-2.9,2.3-3.9c9.3-8.3,16.1-18.2,19.9-30.1c3.3-10.3,4.6-20.7,2.4-31.5
		c-0.5-2.3-0.7-4.7-1-7c0.4-0.1,0.9-0.3,1.3-0.4c3.9,10.3,7.8,20.7,11.8,31c-0.1-11.3-4.7-21.3-8.8-31.4
		C260.6,411.3,260.9,411.1,261.2,410.9z"/>
	<path class="st0" d="M397.8,639c0.5,6.9-2.5,11.7-6.9,15.7c-9.7,8.8-21,15.1-33.3,19.6c-2.1,0.8-4.3,1.5-7.1,2.5
		c0.1-2,0.1-3.5,0.3-4.9c1.5-12.5-0.1-24.5-4.2-36.3c-1.6-4.6-2.4-9.2-1.7-14.3c0.5-3.8-0.8-7.8-1.6-11.7c-0.5-2.4-0.3-3.9,2.4-4.7
		c3-0.9,4-3.2,3-6.1c-1.1-3.1-2.4-6.2-3.8-9.2c-1.9-4-3.9-7.8-3-12.4c0.7-4-3.5-1.3-4.7-3.4c1.7-5.4,3.6-11.1,5.3-16.8
		c0.9-2.9,1.2-6.1,2.3-8.9c0.6-1.5,2.2-3.4,3.6-3.6c13.6-2.1,26.3-6.5,38.4-13c0.8-0.4,1.6-0.6,2.7-1.1c0.2,1,0.5,1.7,0.4,2.4
		c-2,15.4-0.6,30.9,2.1,46c2.2,12.1,0.1,21.8-9.2,29.8c-0.6,0.5-1,1.1-1.5,1.6c0.2,0.3,0.4,0.5,0.6,0.8c3.3-2.1,6.6-4.3,10.6-6.9
		c1.6,4.3,3.1,8.5,5,13.7c-3.9-0.6-7.1-0.7-10-1.6c-4.3-1.3-6.4,0.2-8.1,4.2c-1.8,4.4-4.1,8.5-6.6,12.6c-1.5,2.5-0.7,3.3,1.6,4.1
		C381.8,639.8,389.5,640.4,397.8,639z"/>
	<path class="st0" d="M490.3,573.6c-2.5,12-4.6,23.6-7.5,35c-0.8,3.1-3.6,6.2-6.3,8.2c-5.7,4.3-11.9,8-17.9,11.8
		c-2.7,1.7-5.4,1.2-7.9-0.5c-6.4-4.2-10.6-10-12.6-17.3c-0.3-0.9,0.7-2.9,1.6-3.4c2.4-1.3,5.2-2.1,7.7-3.2c1.9-0.9,3.3-0.9,4.7,0.9
		c2.7,3.2,5.6,6.2,8.4,9.2c0.3-0.3,0.7-0.5,1-0.8c-1.7-2.5-3.4-5.1-5.4-8c4.4-0.5,8.2-0.9,11.9-1.3c0-0.5,0-0.9,0-1.4
		c-2.8-0.2-5.7-0.1-8.4-0.8c-8.1-2.1-15.1,2.4-22.6,3.6c-3.3,0.5-6.6,0.9-9.9,1.3c-3.7,0.5-6.3-1.3-7.7-4.5
		c-3.1-7.2-3.1-11.9,3.8-14.7c5.5-2.3,7.8-6.3,8.6-11.9c0.6-4.2,2.1-8.3,3.4-13C451.8,575.1,470.4,574.7,490.3,573.6z"/>
	<path class="st0" d="M173.2,458.8c1.8,1,3.3,1.7,4.6,2.6c8.4,6,18,8.1,28,7.4c12.4-0.8,20.1-8.3,24.8-19.1
		c4.8-10.9,6-22.5,2.2-33.8c-2.1-6.4-6.3-12.2-9.6-18.2c-0.7-1.3-1.4-2.6-2.2-4c11.9-4.8,22.5-1.7,28.1,10.4
		c9.5,20.5,6.9,40.5-4.6,59.5c-5.6,9.2-12.8,17.1-22.8,21.8c-13.5,6.3-26.8,5.7-38.7-3.6C176,476.3,173.5,468.2,173.2,458.8z"/>
	<path class="st0" d="M368.4,421.8c18.1,4,27.7,14.6,30.1,32.1c2.2,15.6-0.2,30.9-2.9,46.2c-0.7,4.3-1.6,8.6-2.6,12.8
		c-0.3,1.3-1.3,3-2.4,3.6c-13.1,7.4-27.1,12.6-42.3,16c0.2-2.2,0.1-4.3,0.5-6.2c3.6-20.6,4-41.3,3.5-62.1c-0.1-2.5,0.3-4.2,2.8-5.6
		c15.5-9.1,17.8-14.4,14.2-32.3C368.9,424.9,368.7,423.5,368.4,421.8z M391.5,480c0-7.1,0-7.1-4-11c-0.3-0.3-0.6-0.6-0.6-0.9
		c-0.2-3.5-3-3.6-5.3-3.5c-2.9,0.1-5.8,0.6-8.6,1.4c-5.9,1.6-13.1,11.1-12.9,17c0.1,3.3,0.3,6.7,0.8,10c1.1,6.4,2.1,12.9,6.8,18.1
		c6.2,6.7,11,6.5,16-1.1c0.1-0.2,0.3-0.4,0.4-0.7C390.1,499.9,391.1,489.5,391.5,480z"/>
	<path class="st0" d="M76.3,172.9c2.7,6.8,5.1,12.8,7.6,19c-5,1.9-9.7,3.4-14.2,5.4c-3.7,1.7-7.1,4.1-10.7,6
		c-1.2,0.6-2.8,0.8-4.1,0.4c-3.4-1-7-2-10.1-3.6c-2.1-1.1-4.5-3-5.2-5.1c-3.8-11.6-5.7-23.7-5.4-35.9c0-1.8,1.1-4,2.4-5.3
		c6.6-6.7,14.8-10.4,24.1-11.7c1.1-0.2,2.9,0.8,3.6,1.7c4.9,7.3,9.7,14.8,14.3,22.3c0.9,1.4,1.2,3.3,1.3,5
		C80.2,173.3,79,174.3,76.3,172.9z"/>
	<path class="st0" d="M30.2,169.4c1.4,7.3,2.7,14.3,4,21.4c0,0.3,0.1,0.5,0.2,0.8c1.4,7.2,5.1,12.1,12.7,13.4c2,0.3,3.8,1.3,6.1,2.1
		c-3.6,4.9-9.9,7.4-9.3,14.5c0.5,6,1.1,11.7,6.7,15.7c-0.2,0.4-0.4,0.7-0.6,1.1c-4.7-1.3-9.4-2.4-14-4c-7.6-2.7-14.9-6.1-22.5-8.7
		c-4.5-1.6-5.5-5.2-6.2-8.8c-1.2-6.3-1.8-12.6-2.7-19c-0.8-5.5,1.2-9.9,4.6-14.1C14.5,176.8,23,170.9,30.2,169.4z"/>
	<path class="st0" d="M332.6,559.2c-5.3-34-10.5-67.9-15.9-102.6c8.6,3.7,17.2,4.2,26.3,1.2c1.5,34.6-1,68.2-8.3,101.4
		C334,559.2,333.3,559.2,332.6,559.2z"/>
	<path class="st0" d="M247,683.8c4.1,1.2,8.2,2.9,12.4,3.6c21.2,3.8,42.4,3,63.5-0.8c8.2-1.5,16.3-3.3,24.6-4.9
		c0.9,3.2,2,6.3,2.6,9.5c0.1,0.8-1.3,2.5-2.3,2.8c-9.8,2.8-19.6,5.9-30.1,5.8c-7.2,0-14.3,0.6-21.5,0.9c-15.2,0.7-29.8-2.3-44.3-6.3
		C248.6,693.6,246.6,689.2,247,683.8z"/>
	<path class="st0" d="M327.2,542.8c-8.8-0.8-17.4-1.3-25.9-2.5c-16.5-2.3-32.6-6.3-48.2-12.5c-14.8-5.9-22.5-17-27.2-31.2
		c-0.2-0.7-0.4-1.5-0.7-2.2c-2.2-6.1-2.1-6.4,4.7-9c0.8,1.7,1.6,3.4,2.3,5.1c5.3,13.3,14.5,22.6,27.8,28.2
		c19.7,8.3,40.1,14,61.3,16.6C326.5,535.9,326.7,536.1,327.2,542.8z"/>
	<path class="st0" d="M437.1,780.5c4.6-0.3,8.1-0.5,11.5-0.8c0-0.4,0-0.8,0.1-1.2c-3.3-0.2-6.6-0.3-9.9-0.8c-1.5-0.2-3.7-1-4.2-2.2
		c-10.1-20.3-20-40.6-29.9-61c-0.2-0.4-0.2-0.9-0.3-1.6c5.1-0.7,8.5,1.9,11.2,5.5c5.3,7.1,10.8,14,15.5,21.5
		c7.8,12.4,15,25.3,22.6,37.9c1.4,2.4,1.4,4.5-0.2,6.7c-2.5,3.4-5,6.8-8.1,11.1C442.4,790.6,440,786,437.1,780.5z"/>
	<path class="st0" d="M312.9,460.2c-1.5-1.3-3.1-2.5-4.5-4c-11.3-12.1-22.2-24.5-33.8-36.2c-6.8-6.8-14.7-12.6-22.3-18.6
		c-4.3-3.4-4.8-5-0.8-8.6c0.7-0.6,2.5-1,3.2-0.6c11,6.5,22.1,12.8,32.8,19.9c11.8,7.8,17.5,20.1,22,32.9c1.7,4.8,3.1,9.6,4.6,14.5
		C313.6,459.7,313.3,459.9,312.9,460.2z"/>
	<path class="st0" d="M339.9,430.5c5.5,8.2,3.9,13.4-4.7,16.2c-7.6,2.5-14.6,0.2-21.5-2.8c-0.9-0.4-1.8-1.5-2.2-2.5
		c-3.7-10.3-8.9-19.6-17.5-26.6c-0.2-0.2-0.3-0.7-0.4-1c7.9,1.7,15.6,4.1,23.5,4.9c7.9,0.9,16,0.2,23.4,0.2
		c-1.6,5.5-3.5,11.9-5.4,18.4c0.5,0.2,1.1,0.4,1.6,0.6C337.8,435.6,338.7,433.3,339.9,430.5z"/>
	<path class="st0" d="M189.7,760.8c-1.3-0.9-2.6-1.9-4-2.8c-1.4-0.8-2.9-1.5-4.3-2.3c-0.4,0.4-0.8,0.9-1.2,1.3
		c1.9,1.5,3.8,3.2,5.9,4.5c1.8,1.1,1.8,2.3,0.6,3.7c-2.7,3.4-5.4,6.7-8.3,10.3c-2.8-5.3-4-10.9-3-16.3c0.6-3.3,3.1-6.8,5.7-9.2
		c10.3-9.4,20.7-18.7,31.5-27.6c5.4-4.5,11.5-8.1,17.3-12c1.1-0.7,2.5-1.1,4.7-2.1C219.2,726.4,204.5,743.5,189.7,760.8z"/>
	<path class="st0" d="M397.6,507.4c1.2-7.3,2.6-14,3.2-20.7c1.2-12.9,2.3-25.8-0.8-38.7c-1.9-8-5.4-14.9-12.7-19.4
		c-0.4-0.3-1-0.4-1.5-0.6c0.2-0.5,0.5-1.1,0.7-1.6c2.7,0.5,5.6,0.6,8.1,1.6c8.6,3.5,13.7,10.5,15.6,19.3c4.4,20,3.2,39.3-9.2,56.6
		c-0.6,0.8-1.3,1.6-2,2.4C399,506.6,398.6,506.8,397.6,507.4z"/>
	<path class="st0" d="M440.6,311.7c-2.5,2-5.1,4-8.6,6.8c0.5-5.3,0.6-9.6,1.5-13.7c0.7-3.1,8.1-4.2,10.8-1.7c1.4,1.4,3.1,3.1,3.4,5
		c2.4,11.8,2.3,23.5-4.6,34.1c-3.6,5.5-8.9,8.3-16.1,8.3c0.1-1.6,0.2-2.9,0.4-4.2c1.1-6.6,2.5-13.1,3.4-19.6
		c0.7-4.8,4.5-7.3,7.1-10.6c1-1.3,2.3-2.2,3.5-3.3C441.2,312.3,440.9,312,440.6,311.7z"/>
	<path class="st0" d="M394.6,656.9c0.2,6.6-1.3,11.7-6.9,15.9c-9.9,7.5-20.3,13.8-31.9,18.3c-1.2,0.5-2.4,0.8-3.9,1.3
		c-0.6-3.2-1.5-6.2-1.7-9.1c-0.1-1.2,1.2-3.3,2.3-3.6c15.2-4.5,28.8-11.9,40.8-22.3C393.5,657.1,393.8,657.1,394.6,656.9z"/>
	<path class="st0" d="M314.3,447.4c3.9,1.1,7.4,2.9,11,3c4.6,0.2,9.6-0.1,13.8-1.6c7.1-2.6,8.5-9.4,4.6-17.5
		c-2.8-5.9-2.7-6.8,2.5-12c0.8,0.8,1.6,1.5,2.2,2.4c3.5,5.2,4.5,11.1,4.9,17.2c0.1,1.4-0.6,3-1.5,4.2c-2.7,3.8-5.6,7.6-8.6,11.2
		c-0.7,0.9-2.2,1.3-3.4,1.6c-7.1,1.5-14.1,0.8-20.8-1.6C316.1,453.2,313.8,451.4,314.3,447.4z"/>
	<path class="st0" d="M363.4,414.6c0.9,2.7,2.2,5.3,2.6,8.1c0.7,4.5,1.2,9.1,1.3,13.7c0.2,9.1-5.5,16.8-14.1,19.7
		c-2,0.7-3.8,2.1-6,3.3c-1.1-2.9-0.9-5,1.3-7.6c5.8-6.7,10.9-14,12.6-22.9c0.9-4.6,0.8-9.4,1.1-14.1
		C362.6,414.8,363,414.7,363.4,414.6z"/>
	<path class="st0" d="M346.4,541.6c-0.6-4,0.8-5.8,4.4-6.7c13-3.2,25.4-8,36.9-14.8c1.1-0.6,2.3-1,3.7-1.6
		c-0.2,5.3-0.4,9.4-6.1,11.8c-12,5-24,9.5-36.9,11.3C347.8,541.6,347.2,541.6,346.4,541.6z"/>
	<path class="st0" d="M374.2,635.2c3.2-5.4,5.5-9.8,8.3-13.9c0.7-1.1,2.7-1.9,4.1-1.9c2.9,0,5.8,0.5,8.7,1.1
		c0.9,0.2,2.1,1.2,2.2,1.9c0.5,4.5,0.8,9.1,1.2,14.5C390.3,636.3,382.6,635.8,374.2,635.2z"/>
	<path class="st0" d="M396.7,90.4c-3.1-10.5-6.2-20.7-9.1-31c-1.6-5.7-3.1-11.5-4.6-17.2c0.5-0.2,1-0.5,1.5-0.7
		c1.6,1.8,3.2,3.6,4.7,5.5c10.3,13.5,10.3,13.5,8.9,30.4C397.7,81.8,397.2,86.2,396.7,90.4z"/>
	<path class="st0" d="M220.5,909.9c3.4,0.5,5.8,1,8.1,1.1c6.1,0.1,12.2,0.2,18.3-0.2c2.9-0.2,4.5-0.1,4.6,3.4c0.2,6.7,0,7.3-6.8,7.3
		c-6.1,0-12.2-0.5-18.3-0.9c-1-0.1-2.5-0.7-2.8-1.5C222.4,916.4,221.7,913.5,220.5,909.9z"/>
	<path class="st0" d="M342.4,533.1c0.4-3.2,0.7-6.5,1.2-9.7c3-18.8,3.1-37.7,2.9-56.7c0-2.6,0-5,3.5-5.1
		C352.6,469.7,346.9,529.2,342.4,533.1z"/>
	<path class="st0" d="M217.3,893.4c2.7,0,5.3,0.1,8,0c6.5-0.3,13-0.8,19.5-0.9c1,0,2.9,1.3,3,2.1c0.1,1.3-0.9,3.7-1.6,3.8
		c-8.8,0.6-17.6,1-26.4,0.9c-1.2,0-2.4-3.1-3.6-4.8C216.6,894.1,217,893.7,217.3,893.4z"/>
	<path class="st0" d="M285.9,46.5c4.7,6.2,4.6,8.8,1.6,13c-3.7,5.2-6.8,10.9-10.1,16.3c-0.7,1.2-1.6,2.3-3.4,3.2
		c0-2.7-0.8-5.7,0.1-7.9C277.7,62.9,281.8,55,285.9,46.5z"/>
	<path class="st0" d="M249.6,907.9c-9.2,0-18.3,0.2-27.3-0.2c-1.3-0.1-2.5-2.6-3.8-4c0.3-0.4,0.6-0.8,0.8-1.2c2.1,0,4.2,0.1,6.3,0
		c6.2-0.2,12.5-0.2,18.6-0.8C249.7,901,250.3,901.3,249.6,907.9z"/>
	<path class="st0" d="M336.8,602.8c0-5.9-0.2-11.3,0.1-16.6c0.1-1.1,1.6-2.2,2.5-3.3c0.7,0.9,1.8,1.7,2.2,2.7c1.4,4,2.5,8.1,4,12.1
		c1.1,3,0.7,4.7-2.9,4.8C341,602.5,339.2,602.7,336.8,602.8z"/>
	<path class="st0" d="M349.6,416c3.1-0.7,6.6-1.5,10.4-2.4c0.2,7.6-0.1,14.9-3.6,21.5C354.2,428.8,352,422.6,349.6,416z"/>
	<path class="st0" d="M400.4,703.7c5,1.4,9.5,2.5,14,3.9c1,0.3,2,1.2,2.6,2.1c3.3,5.7,6.5,11.4,10.3,18.1c-1.6-1.7-2.7-2.6-3.6-3.8
		c-2.2-2.8-4-6.2-6.7-8.3c-3.2-2.5-7.1-4.3-11-5.6C402.8,709.2,400.8,707.8,400.4,703.7z"/>
	<path class="st0" d="M212.1,718.8c-0.7-3.7,1.5-5,3.7-6.4c4.3-2.6,8.7-5.2,13-8c3.3-2.2,6.8-2.4,11,0.4c-1.7,0.7-2.9,1.4-4.1,1.7
		c-3,0.9-6.2,1.3-8.9,2.7c-3.8,2-7.2,4.8-10.8,7.2C214.7,717.3,213.6,717.9,212.1,718.8z"/>
	<path class="st0" d="M249.3,924c-5.4,6.5-16.2,6.2-21.6,0C234.8,924,241.6,924,249.3,924z"/>
	<path class="st0" d="M337.5,565.2c-1.8-3.7,0.8-16.9,4.1-20.7C342,552.1,338,558,337.5,565.2z"/>
	<path class="st0" d="M153.8,242.9c-1.7-4.6-3.5-9.2-5.2-13.9c0.4-0.2,0.8-0.3,1.2-0.5c3.9,3.7,5.9,8.2,5.4,13.8
		C154.7,242.6,154.2,242.8,153.8,242.9z"/>
	<path class="st0" d="M333.1,585c0-1.5-0.1-3,0-4.5c0.2-2.6,2.5-4,5-3c1.8,0.7,2.1,1.8,0.7,3.1c-0.8,0.8-2,1.2-2.8,2
		c-0.8,0.8-1.3,1.8-2,2.7C333.7,585.2,333.4,585.1,333.1,585z"/>
	<path class="st0" d="M213.7,893.1c1.2,5.1,2.4,10.2,3.6,15.4c-0.4,0.1-0.8,0.2-1.2,0.3c-1.3-5.1-2.7-10.1-4-15.2
		C212.7,893.4,213.2,893.2,213.7,893.1z"/>
	<path class="st0" d="M46,280.1c1.6,3.1,2.8,5.5,4.1,8.2C44.1,287.5,43,285.5,46,280.1z"/>
	<path d="M244.8,656.9c1.4-1,2.6-2.3,4.2-3c7.2-3.4,15.4-5.4,21.4-10.1c9-7,15.9-3.1,23.6,1.1c6.5,3.6,6.7,3.7,1.1,8.8
		c-11.7,10.6-25.1,18.6-40.2,23.5c-3.5,1.1-5.7,0-6.5-3.3C247.1,668.5,246.1,663.1,244.8,656.9z M298.4,649.4
		c-6.4-2.8-11.5-5.1-16.6-7.1c-0.8-0.3-2.3,0.2-3.2,0.8c-8.9,5.8-18.4,10-28.8,12.4c-2.4,0.5-2.9,1.9-2.4,3.9
		c0.7,3.3,1.4,6.5,2.2,9.7c1.4,5.8,2.6,6.5,8,4c6.4-2.9,12.8-5.9,18.9-9.4C283.6,659.5,290.4,654.6,298.4,649.4z"/>
	<path d="M499,1019.2c0.4-1.2,0.4-2.1,0.8-2.7c9.9-13.4,14.6-28.6,15.4-45.2c0.1-1.1,1-3,1.8-3.2c6.9-1.5,13.8-2.9,20.9-0.7
		c5.3,1.7,8.5,5.2,9.3,10.6c1.4,9.2-1.7,16.9-8.1,23.4c-9.1,9.2-20.7,13.5-33,16.3C504.1,1018.4,501.8,1018.8,499,1019.2z
		 M512.1,1008.1c4.5-2.1,9-4.1,13.4-6.4c7.2-3.7,11.5-9.2,11.2-17.7c-0.2-4.3-1.6-6.1-6-6.3c-3.3-0.1-6.6,0.6-9.9,0.5
		c-2.6,0-3.3,1.1-4,3.5c-2.1,7.6-4.3,15.2-6.9,22.7c-0.9,2.7-0.2,3.4,2.3,3.6c-4.4,0.1-6.2,3-7.7,7c1.4-0.1,2.4,0,3.3-0.2
		c10.1-2.1,19.4-5.9,27.3-12.6c6.6-5.7,10.8-12.7,10.1-21.8c-0.4-6.2-4.3-10.3-10.4-10.8c-3.8-0.3-7.7-0.2-11.5,0.1
		c-6,0.5-6.2,1.1-5.4,7.8c2-0.5,3.9-1.3,5.8-1.5c3.1-0.3,6.4-0.6,9.5-0.2c3.1,0.4,5,2.4,5.7,5.8c1.2,5.9-0.2,10.9-3.9,15.4
		C529.1,1004.4,521.1,1007.3,512.1,1008.1z"/>
	<path d="M515.7,1037.1c6.3,0.9,14.4,1.4,22.2,3.2c11.7,2.7,13,6.3,6,15.7c-4.8,6.5-9.6,13.2-15.5,18.5
		c-12.4,11.3-27.2,15.6-43.7,10.9c-7.6-2.2-11-7.4-10.9-15.3c0.1-10.6,5.1-19.4,10.6-28c0.9-1.3,3.3-2.1,5.1-2.3
		C497.6,1038.9,505.7,1038.2,515.7,1037.1z M522.3,1039.9c-11.3,1.1-22.6,2-34,3.3c-1.3,0.1-2.9,1.5-3.4,2.7
		c-3,7.3-6.3,14.6-8.3,22.2c-1.9,7.6,2.1,12.7,9.6,15c12.3,3.8,23.7,0.8,34.2-5.5c11.2-6.6,17.7-17.6,24.5-28.2
		c0.5-0.7-0.2-2.7-1-3.4c-1.1-1.1-2.8-2-4.3-2.4C534.1,1042.3,528.3,1041.2,522.3,1039.9z"/>
	<path d="M578.7,929.9c-6.5-2.6-13-4.2-20.1-4.6c-13.7-0.8-23.2,5.8-31.4,15.6c-9.2,11-15.9,23.6-21.4,36.8
		c-4.1,9.9-7.6,20.2-11.7,30.1c-2.8,6.8-5.9,13.6-9.6,20c-7.1,12.3-14.8,24.2-21.4,35c2.2-7.8,6.5-16.3,12.2-24.2
		c10.7-14.7,16.5-31.6,22.6-48.6c6.7-18.9,15.6-36.8,28.7-52.3c14.8-17.5,37-17,50.4-8.8C577.7,929.1,578.2,929.5,578.7,929.9z"/>
	<path d="M496.4,1031.7c15.4-3.2,30.9-2.3,46.3-0.4c6.6,0.8,13.4,4.6,18.6-3.2c-3.8,5.8-7.1,6.9-13.4,5.9
		c-17.1-2.6-34.2-2.7-51.3,0.4c-2,0.4-4,0.6-6.9,1c3.2-6.8,8.2-10,13.9-12.3c8.6-3.3,17.4-6.2,25.9-9.7
		c10.4-4.4,19.3-10.8,22.9-22.3c2.4-7.9,2.7-15.9,0.1-23.8c-2.6-7.8-11.3-13.4-20.3-12.8c-1.4,0.1-2.8,0.2-5.1,0.4
		c13.1-4.4,26,3.9,28.3,17.3c3.5,19.9-5.2,35.6-24.8,43.8c-8.7,3.7-17.8,6.5-26.6,9.9c-2.9,1.1-5.6,3-8.3,4.6
		C495.9,1030.8,496.1,1031.2,496.4,1031.7z"/>
	<path d="M532.8,1021.8c4-2.5,8-4.8,12-7.4c15.2-9.9,21.1-35.6,16.4-50c-3.1-9.5-10-16.9-21.4-22.9c9.9,1.4,20,10.9,23.7,22.2
		c6,18.2-2,48.7-27.2,57.7c-1.1,0.4-2.1,0.7-3.2,1C533,1022.1,532.9,1022,532.8,1021.8z"/>
	<path d="M555.1,938.5c14.7,7.6,21.9,19.8,21.8,36.1c-0.2,18.6-7.6,33.8-23.3,44.4c11.7-11.1,19.6-24,20.8-40.6
		C575.5,961.2,568.5,948.4,555.1,938.5z"/>
	<path d="M561.4,1019.3c12-9.8,19.1-22.4,21.4-37.6c2.2-14.7,3-29.2-8.1-41c3.7,1.4,8.6,6.7,9.6,12.9c1.2,7.3,1.8,14.8,1.4,22.1
		c-0.7,13.3-4.8,25.7-13.8,35.9c-2.8,3.2-6.2,5.8-9.4,8.7C562.1,1020,561.7,1019.6,561.4,1019.3z"/>
	<path class="st0" d="M383.9,300.5c-11.4-0.1-19.8-8.2-19.8-19.1c0-11.2,7.9-19.4,18.5-19.4c11.2,0,20.1,8.7,19.9,19.5
		C402.4,292.1,394,300.6,383.9,300.5z M390.7,271.2c-4.6-3.7-11.3-3.9-15.7-0.5c-5,3.9-6.9,10.9-4.4,16.6c2.4,5.5,8.8,8.9,14.8,7.9
		c5.9-1,10.4-6.5,10.9-14c-3.9,1.5-7.9,2.2-10-2.2C384.5,275,388,273.1,390.7,271.2z"/>
	<path class="st0" d="M281.8,234.6c13.4,0,22.7,7.2,27.1,21.1c3.9,12.4,2.1,24.2-5.3,35.2c-9.7,14.4-29.2,12.8-39,4.1
		c-16-14.3-15.4-41.9,1.4-55.1C270.9,236,276.3,234.1,281.8,234.6z M283.5,250.8c-14.3-1.3-23.1,12.4-23,21.7c0.1,13,10,23,23.2,23
		c11.6,0.1,21.8-9.8,21.9-21.3C305.8,260.2,297,250.9,283.5,250.8z"/>
	<path class="st0" d="M305.5,363.9c9.6-3.2,29.4-1.4,33,7.7C330.8,374.9,311.8,370.6,305.5,363.9z"/>
	<path class="st0" d="M298.4,649.4c-7.9,5.2-14.8,10.1-22,14.3c-6.1,3.5-12.5,6.5-18.9,9.4c-5.4,2.5-6.5,1.8-8-4
		c-0.8-3.2-1.5-6.5-2.2-9.7c-0.4-2,0.1-3.3,2.4-3.9c10.3-2.4,19.9-6.6,28.8-12.4c0.9-0.6,2.3-1.1,3.2-0.8
		C286.9,644.3,292,646.6,298.4,649.4z"/>
	<path class="st0" d="M512.1,1008.1c9-0.8,17-3.7,22.9-11.1c3.7-4.6,5.1-9.6,3.9-15.4c-0.7-3.4-2.6-5.4-5.7-5.8
		c-3.1-0.4-6.3-0.1-9.5,0.2c-2,0.2-3.9,1-5.8,1.5c-0.8-6.7-0.5-7.2,5.4-7.8c3.8-0.3,7.7-0.4,11.5-0.1c6.2,0.4,10,4.6,10.4,10.8
		c0.6,9.1-3.6,16.1-10.1,21.8c-7.8,6.8-17.2,10.5-27.3,12.6c-1,0.2-2,0.1-3.3,0.2c1.5-4,3.3-6.9,7.7-7L512.1,1008.1z"/>
	<path class="st0" d="M512.2,1008c-2.4-0.2-3.2-0.9-2.3-3.6c2.6-7.5,4.8-15.1,6.9-22.7c0.6-2.4,1.4-3.5,4-3.5c3.3,0,6.6-0.7,9.9-0.5
		c4.4,0.2,5.8,2,6,6.3c0.3,8.5-4,14-11.2,17.7c-4.4,2.3-9,4.3-13.5,6.4C512.1,1008.1,512.2,1008,512.2,1008z M527.8,995.3
		c1.9-2.5,2.1-5.4-0.4-7.2c-1.4-1-4.3-1.2-5.9-0.5c-2.9,1.3-4,4.3-3.3,7.5c0.9,4,3.6,4.3,8.5,1.2C527.1,996,527.5,995.6,527.8,995.3
		z"/>
	<path class="st0" d="M522.3,1039.9c6,1.3,11.8,2.4,17.5,3.7c1.6,0.4,3.2,1.3,4.3,2.4c0.8,0.7,1.4,2.7,1,3.4
		c-6.8,10.5-13.3,21.5-24.5,28.2c-10.6,6.3-21.9,9.3-34.2,5.5c-7.5-2.3-11.6-7.5-9.6-15c1.9-7.6,5.3-14.9,8.3-22.2
		c0.5-1.2,2.2-2.5,3.4-2.7C499.7,1042,511,1041,522.3,1039.9z M514.5,1045c-5.6,0.5-11.4,1.1-17.3,1.5c-4,0.3-7.3,1.7-9.1,5.4
		c-2.1,4.4-4.2,8.8-5.6,13.4c-1.7,5.3,0.7,10.1,5.5,13c5.7,3.4,11.7,2.9,17.9,1.5c13.3-3,21.7-12.1,28.5-22.9c3-4.7,2.5-6.4-2.3-9.3
		c-1.6-1-3.5-1.7-5.4-1.9C522.8,1045.3,518.8,1045.2,514.5,1045z"/>
	<path class="st0" d="M389.4,481.9c-0.9,10.3-2,20.8-9.5,29.4c-2.5,2.9-4.3,2.9-7.3,0.7c-5.5-4.1-7.6-9.8-8.7-16.1
		c-0.6-3.3-1.1-6.6-1.4-9.9c-0.1-1.4,0.3-3,0.7-4.4c0.7-2.4,1.9-4.7,2.6-7.1c1.1-3.8,14.1-9.6,17.6-7.9c2.9,1.5,6.3,7.8,6.1,11.1
		C389.3,479.1,389.4,480.4,389.4,481.9z M387.8,481.1c-0.2,0-0.4-0.1-0.6-0.1c0-0.8,0-1.5,0-2.3c-0.3-7.8-7.2-11.7-13.6-7.5
		c-6.4,4.3-9.5,10.4-8.5,18.3c1,7.8,2,15.6,9.5,20.4c0.8,0.5,2.8,0.6,3.2,0.1c2.4-3.1,5.4-6.2,6.5-9.8
		C386.1,494,386.7,487.5,387.8,481.1z"/>
	<path d="M390.7,271.2c-2.7,2-6.1,3.9-4.3,7.8c2,4.4,6.1,3.7,10,2.2c-0.6,7.5-5.1,13-10.9,14c-5.9,1-12.4-2.5-14.8-7.9
		c-2.5-5.6-0.6-12.7,4.4-16.6C379.4,267.3,386.1,267.4,390.7,271.2z"/>
	<path d="M283.5,250.8c13.5,0,22.3,9.4,22.1,23.5c-0.1,11.5-10.3,21.3-21.9,21.3c-13.2-0.1-23-10-23.2-23
		C260.4,263.2,269.2,249.6,283.5,250.8z M283.3,292.7c9.7,1.3,20.4-8.9,19.9-20.3c-0.5-10.3-9-19.2-19.2-19.2
		c-12.1,0-20.6,8.5-20.7,20.1C263.1,282.9,272.3,293.7,283.3,292.7z"/>
	<path class="st0" d="M527.8,995.3c-0.4,0.4-0.7,0.7-1.1,1.1c-2.5,0.6-5.4,2.6-7-0.7c-0.7-1.5,0.1-4.4,1.2-5.8
		c0.9-1.1,3.7-1.7,5-1.1c1.2,0.5,1.4,3,2,4.7C528.1,993.9,527.9,994.6,527.8,995.3z"/>
	<path d="M527.8,995.3c0-0.6,0.3-1.3,0.1-1.9c-0.5-1.7-0.8-4.1-2-4.7c-1.3-0.6-4.1,0-5,1.1c-1.1,1.4-1.9,4.3-1.2,5.8
		c1.5,3.4,4.5,1.4,7,0.7c-4.8,3.1-7.5,2.7-8.5-1.2c-0.7-3.2,0.4-6.2,3.3-7.5c1.6-0.7,4.5-0.6,5.9,0.5
		C529.9,989.9,529.7,992.8,527.8,995.3z"/>
	<path d="M514.5,1045c4.3,0.2,8.3,0.2,12.2,0.7c1.8,0.2,3.8,0.9,5.4,1.9c4.8,2.9,5.3,4.5,2.3,9.3c-6.9,10.9-15.3,19.9-28.5,22.9
		c-6.2,1.4-12.2,1.9-17.9-1.5c-4.8-2.8-7.1-7.7-5.5-13c1.4-4.6,3.5-9,5.6-13.4c1.8-3.7,5.2-5.1,9.1-5.4
		C503.1,1046.1,508.9,1045.5,514.5,1045z M514.1,1047c-2.3,0-4.6-0.1-6.9,0c-15.3,1.1-19.1,4.3-23.3,18.8c-1.2,4.2-0.1,8,3.7,10.2
		c2.6,1.5,5.6,2.6,8.5,2.9c6.7,0.7,13-1.1,18.8-4.2c8.5-4.6,13.9-12.3,18.7-20.4c0.5-0.9-0.2-3.3-1.1-4
		C527,1046.3,520.5,1046.8,514.1,1047z"/>
	<path class="st0" d="M283.3,292.7c-11,1-20.2-9.8-20-19.4c0.2-11.6,8.6-20,20.7-20.1c10.2,0,18.7,8.9,19.2,19.2
		C303.7,283.8,293,294,283.3,292.7z M290.1,261c-4.1-2.7-11.5-2.2-15.7,1.8c-4.9,4.6-6.2,11.5-3.1,16.7c3.6,6.1,10.5,8.6,17.4,6.4
		c5.9-1.9,9.6-7.5,9.2-12.2c-3.4-1.4-7.2-1.9-8.7-4C287.9,268,289.6,264.3,290.1,261z"/>
	<path class="st0" d="M514.1,1047c6.4-0.2,12.9-0.7,18.4,3.3c0.9,0.7,1.6,3.1,1.1,4c-4.7,8.1-10.1,15.8-18.7,20.4
		c-5.8,3.1-12.2,4.9-18.8,4.2c-2.9-0.3-6-1.4-8.5-2.9c-3.8-2.2-4.9-6.1-3.7-10.2c4.2-14.5,8-17.6,23.3-18.8
		C509.5,1046.8,511.8,1047,514.1,1047z M510.7,1063.5c-2.5,3.4-5.2,4.6-7.7,3.1c-1.1-0.7-1.5-2.3-2.1-3.3c-1.2,1.6-1.2,2.5,0.6,3.8
		c2.3,1.6,7,1.3,8.8-0.9c0.7-0.8,1.2-2.4,0.9-3.3c-0.3-0.9-1.8-1.4-2.7-2c-0.1,0.2-0.3,0.5-0.4,0.7
		C509,1062.2,509.8,1062.9,510.7,1063.5z"/>
	<path class="st0" d="M373.1,501.9c1.2-4.7,2.1-8.9,3.3-12.9c0.7-2.2,2.5-2.2,4.3-1.1c3.4,2.1,3.7,6.6,0.5,9.2
		c-1.9,1.5-3.7,3.1-5.6,4.6C375.5,501.9,375,501.8,373.1,501.9z"/>
	<path class="st0" d="M383.5,475.1c-1.5,1.9-3,1.8-4.8,0.3c-2.3-1.8-6.5-0.6-6.1,1.8c0.9,5.5-3.2,7.4-5.9,10.4
		c-1-4.8,4.4-14.6,8.9-16.1C379.4,470.1,381.4,471.1,383.5,475.1z"/>
	<path class="st0" d="M367.1,492.3c3.9,1.6,5.5,4,5.2,8.1c-0.3,3.6,1.7,4.4,4.8,2.4c1.7-1.1,3.4-2.4,5.1-3.6
		c0.2,0.3,0.5,0.5,0.7,0.8c-2.2,3-4.4,6-6.7,9.2C369.9,505.1,367.7,499.3,367.1,492.3z"/>
	<path class="st0" d="M379.3,479.4c-1.1,1.8-2,3.2-2.9,4.6c-0.8-1.4-2.3-2.7-2.2-4.1c0-1.3,1.5-2.7,2.3-4
		C377.3,476.9,378.1,478,379.3,479.4z"/>
	<path class="st0" d="M374.8,488.7c-1.5,1.2-2.5,2-3.4,2.8c-0.8-1.1-2.4-2.3-2.3-3.2c0.2-1.1,1.9-1.9,2.9-2.8
		C372.8,486.4,373.6,487.3,374.8,488.7z"/>
	<path class="st0" d="M385.1,477.6c-0.7,2.6-1.3,4.5-1.8,6.4c-0.8-0.4-2.1-0.7-2.3-1.3C380.4,480.4,380.8,478.4,385.1,477.6z"/>
	<path d="M290.1,261c-0.5,3.3-2.1,7-1,8.7c1.5,2.1,5.3,2.6,8.7,4c0.5,4.7-3.3,10.2-9.2,12.2c-6.8,2.3-13.8-0.3-17.4-6.4
		c-3.1-5.2-1.8-12.1,3.1-16.7C278.6,258.8,286,258.3,290.1,261z"/>
	<path d="M510.7,1063.5c-0.9-0.6-1.8-1.3-2.7-1.9c0.1-0.2,0.3-0.5,0.4-0.7c1,0.7,2.4,1.1,2.7,2c0.3,0.9-0.2,2.5-0.9,3.3
		c-1.8,2.2-6.5,2.5-8.8,0.9c-1.8-1.3-1.8-2.2-0.6-3.8c0.6,1,1.1,2.7,2.1,3.3C505.6,1068.1,508.2,1066.9,510.7,1063.5z"/>
</g>
</svg>
