<?xml version="1.0" encoding="utf-8"?>
<!-- Generator: Adobe Illustrator 26.0.0, SVG Export Plug-In . SVG Version: 6.00 Build 0)  -->
<svg version="1.1" id="Capa_1" xmlns="http://www.w3.org/2000/svg" xmlns:xlink="http://www.w3.org/1999/xlink" x="0px" y="0px"
	 viewBox="0 0 595.3 1097.7" style="enable-background:new 0 0 595.3 1097.7;" xml:space="preserve">
<style type="text/css">
	.st0{fill:#FFFFFF;}
</style>
<g>
	<path d="M589.8,935.3c-10.6-20.2-27.8-32.4-50.5-35.9c-7.7-1.2-15.4-0.7-21.7,5c-4.1,3.7-4.2,3.7-6.9-0.9
		c-19.4-32.7-38.9-65.5-58.3-98.2c-4.4-7.3-4.5-7.6,1.2-14.3c5.5-6.4,6.4-12.7,1.9-19.9c-7.5-12.1-14.9-24.2-22.2-36.3
		c-1.1-1.8-2.8-4.1-2.4-5.8c0.8-3.8-0.7-6.3-2.8-9c-1.5-1.9-3.4-3.8-4-6c-2.7-9.3-9.6-12.3-18.3-13.3c-4.5-0.5-7.7-2.5-9-7.5
		c-1.5-5.4-4.1-10.5-6-15.8c-0.3-1,0.1-2.8,0.8-3.5c3.7-3.2,5.6-7.1,5.5-12.1c-0.1-2.9-0.3-6.3,1-8.6c3.5-6.1,4.4-12.5,4.2-19.2
		c-0.3-10.4-0.9-20.7-6.7-29.9c-0.7-1.3-0.3-3.4,0-5.1c0.5-3,1.8-6,1.7-8.9c-0.2-4.7-1.6-9.3-2-14c-1.6-16.7-2.7-33.5-0.7-50.2
		c0.9-7.4,1.9-15,9-19.8c0.3-0.2,0.5-0.6,0.8-0.8c1.6-0.9,3.2-2.1,4.9-2.3c4-0.6,8.2-0.2,12.2-1c3.9-0.8,5.6,0.4,6.5,4.1
		c4.9,21.1,6.9,42.1,0.8,63.3c-1.8,6.3-3.3,12.2-10.3,15.7c-7.1,3.6-6.7,9.8-3.1,18.6c2.2,5.4,7.9,8.3,14.3,6.9c3.3-0.8,4,0.7,5.3,3
		c2.9,5.1,5.8,10.5,9.8,14.8c5.6,6,11.2,6.2,18.3,2c4.4-2.7,8.6-6,13.1-8.6c6.5-3.8,10.4-9.3,11.7-16.6c1.7-9.5,3.2-19.1,5-28.6
		c0.3-1.7,2-3.1,3.1-4.7c0.9-1.4,2.6-2.8,2.6-4.2c0.1-10,0.4-20-0.4-29.9c-1.3-16.1-6-31.6-12-46.5c-4.1-10.1-8.5-20.2-15.6-28.8
		c-2.7-3.3-5.8-5.6-10.1-6.3c-13.8-2.4-27.6-4.9-41.5-7.3c-3.1-0.5-4.5-2.2-5.6-5c-1.5-3.9-3.1-7.9-5.7-11.1
		c-5.4-6.6-12.2-10.8-21.4-9.1c-1.6,0.3-3.4,0.2-4.9-0.4c-3.8-1.5-7.5-3.2-11.1-5.1c-2-1-3.6-2.8-5.9-4.7c2.2-1.1,3.6-1.8,4.9-2.5
		c8-4,16.4-7.4,23.9-12.1c15.6-9.8,27.1-23.2,32.1-41.4c0.5-2.2,1.8-2.9,4.1-3.1c7-0.5,12.4-3.8,16.8-9.4c5.2-6.6,6.9-14.3,7.2-22.2
		c0.4-8.9,0.5-18.1-8.1-24.5c0.5-1.1,1.1-2.2,1.6-3.3c3.5-7.2,7.3-14.3,10.4-21.7c7.1-17.2,11.5-35.1,14.7-53.4
		c3.6-20.6,3.9-41.1,0.9-61.6c-2.3-15.9-5.6-31.7-8.4-47.5c-0.7-3.9-2.1-4.6-5.3-2.2c-2.3,1.7-4.4,3.7-6.9,5.8
		c-0.5-1.3-1-2.2-1.3-3.2c-4.4-13.9-11-26.6-19.4-38.5c-8.6-12.3-18-23.9-30.9-32.1c-1.3-0.8-3-1-4.7-1.6c0.3,4.2,0.4,7.6,0.7,12
		c-5.7-7-9.9-14.2-18-18.5c0,3.4,0,5.9,0,8.7c-0.7-0.5-1-0.7-1.2-1c-10.4-16-24.6-27.6-42.2-34.8c-5.7-2.3-11.8-3.9-17.9-5.3
		c-3.3-0.7-4,0.5-2.9,3.6c1,2.8,2,5.5,2.6,8.4c0.8,4.2,1.3,8.3,2,12.5c-3.5-2.4-6.2-4.9-8.9-7.4c-1.5-1.3-2.7-1.8-3.7,0.8
		c-3.7,9.1-7.6,18.1-11.5,27.1c-0.6,1.5-1.7,2.9-2.8,4.6c-2.4-3.4-4.5-6.2-7.1-9.7c-4,7.6-7.6,14.3-11.1,21c-1.5-3.1-2-6-2.8-8.9
		c-1-3.2-2.4-3.5-4.7-1.1c-1.7,1.8-3.5,3.5-4.9,5.4c-2.9,3.9-5.1,8.3-8.3,11.9c-10.3,11.6-20.8,23-31.2,34.4
		c-18.3,20-32.5,42.2-38.6,69.1c-3.3,14.7-3.8,29.5-2.6,44.3c1.1,14.4,4.5,28.5,10.6,41.7c1,2.3,0.7,3.3-1.7,4.7
		c-3.2,1.9-6.5,4.3-8.4,7.4c-5,8-6.2,16.9-4.8,26.2c0.2,1.2,0.4,2.3,0.6,3.5c-1-0.6-1.5-1.3-1.7-2.1c-2.8-9-5.8-17.9-8.3-27
		c-3-10.5-5.6-21.2-8.2-31.8c-1.5-6.2-3.7-11.8-9.6-15.4c-1.5-0.9-2.5-3.2-3.2-5c-5.2-14-10.1-28-15.4-42
		c-7.3-19.4-14.6-38.9-22.4-58.1c-4.1-10-8.7-19.8-13.9-29.3c-2.9-5.3-8-9-14.2-10.2c-8.7-1.7-18.6,3.9-22.8,12.6
		c-4.4,9.1-4.6,18.5-2.6,28.1c1.3,6.2,3.5,12.2,5,17.5c-7.6,3.4-15,6.4-22,10.4c-5.4,3-9.3,7.6-8.2,14.7c0.4,2.5-0.6,3.9-3.2,4.8
		c-9.6,3.3-17.2,9.3-23.1,17.6c-2.2,3.1-3.8,6.4-3.4,10.3c0.7,6.9,1.4,13.8,2.2,20.6c0.9,7.8,3.7,14.3,12.3,16.4
		c1.1,0.3,2.2,0.7,3.1,1.4c1.6,1.2,3.5,2.4,4.4,4c6.5,12,12.9,24,19.1,36.2c0.9,1.8,1,4.5,0.4,6.5c-1.4,5-1.4,9.6,1.1,14.4
		c6.6,12.5,12.7,25.3,19.5,37.7c17.9,32.7,40,62.4,66.3,88.8c12.3,12.4,25.8,23.3,38.7,35c1.4,1.3,3.3,3.3,3.3,5
		c0,13,5.8,22.4,16.9,28.9c1.2,0.7,2.3,2.2,2.5,3.4c2.2,15.6,3.7,31.2,6.3,46.7c3.6,21.5,10.3,42.1,20.1,61.6
		c1.8,3.6,4.4,7.6,4.2,11.2c-0.5,9.1,0,18.1,1.5,27.1c2.4,13.5,7.1,25.9,15.8,36.5c3.7,4.4,6.9,8.6,7.4,14.6
		c0.2,2.4,0.9,4.3-1.1,6.3s-4,2-6.3,1.1c-4.4-1.7-8-0.4-11.7,2.4c-3.9,2.9-8.4,5.2-12.7,7.6c-3.3,1.9-5.8,4.4-5.6,8.4
		c0.1,3.3-1.7,5.1-3.9,7c-8.7,7.5-17.4,15-25.8,22.9c-6.1,5.7-8.9,12.7-6.5,21.2c0.6,2.4,1.8,4.6,1.9,7c0.1,2.4-0.1,5.1-1.3,7.1
		c-2.9,4.9-6.4,9.5-9.7,14.2c-4.2,6.2-6.1,13-4.6,20.4c1.3,6.2,3.2,12.3,5.1,18.4c2.2,7.4,6.3,14.1,6.8,22.2
		c0.4,4.6,2.7,9.3,4.8,13.6c3.6,7.4,10.4,11.3,17.2,15.3c1.2,0.7,2.5,2.2,2.8,3.6c1.6,6.1,2.3,12.4,4.2,18.3
		c4.5,14.1,13.4,24.4,27.5,29.9c10.1,3.9,20.5,4.2,31,3.4c7.3-0.6,13.9-2.9,18.7-8.5c11-12.6,13.6-27.8,12.3-43.8
		c-0.7-7.7-2.7-15.4-3.4-23.1c-1.5-18.3-2.4-36.6-4-54.8c-0.8-9-2.1-18-3.9-26.9c-0.8-3.4-0.7-5.9,1.2-8.8
		c5.4-8.2,10.7-16.5,15.7-25c1.7-2.8,3.5-3.4,6.3-2.7c7.2,1.7,14.4,3.8,21.7,4.8c6.9,1,11.7,4,15.4,9.8c12.5,19.4,22.6,40,31.7,61.1
		c13.1,30.4,25.8,61,37.9,91.8c8.9,22.8,16.6,46.1,24.7,69.2c0.8,2.4,1.3,5,1.1,7.5c-1,15.8-1.1,31.5,3.6,46.8
		c3.1,10,7.6,19.3,17.3,24.9c1.4,0.7,2.2,2.9,2.6,4.6c0.9,4,0.8,8.5,2.3,12.3c4.9,12.1,15.6,16.1,27.3,17.3
		c18.4,1.8,34.7-4,48.2-16.5c31.8-29.6,53.4-65.2,60.5-108.6C596.5,959.7,595.8,946.8,589.8,935.3z M243.7,391.8
		c-6.6-4.2-13.8-2.7-20.8-1.9c-2.4,0.3-3.6-0.1-5-2.1c-10.8-15.7-20.1-32.2-27.3-49.9c-3.8-9.7-7.5-19.4-11.3-29.2
		c7.3,11.7,17.4,17.6,32.2,16c-0.4,29.3,18.2,47.4,37.6,65.1C247.7,392.2,246,393.3,243.7,391.8z"/>
	<path class="st0" d="M462.6,950.7c11.3-12.4,24.4-21.9,40.4-28c0.1,0.9,0.2,1.3,0.1,1.6c-3,7.3-6,14.6-9.2,21.9
		c-0.4,1-1.4,1.8-2.4,2.4c-14,8.5-22.9,21.4-29.9,35.7c-5.8,11.7-10.8,24-11.1,37.2c-0.2,7.7,1.7,15.4,2.8,23.1
		c0.7,4.9,1.7,9.8,2.7,15.5c-6.8-2.9-10.2-8-12.7-13.7c-4.3-10-5.7-20.7-6.4-31.4c-1-14.8,0.9-29.4,2.6-44
		c0.8-6.9,1.2-13.9,1.8-20.9c-0.6-0.1-1.2-0.2-1.8-0.2c-1.6,10.4-3.1,20.8-4.8,31.9c-1.7-5.2-3.2-10-4.8-14.7
		c-6.6-18.8-12.8-37.7-19.9-56.2c-9.3-24.5-18.9-49-29.1-73.2c-11.2-26.7-22.7-53.3-39.2-77.4c-2.2-3.2-4.5-6.2-7.2-9
		c-1.5-1.5-1.3-2.5-0.6-4.3c3.9-10.1,10.1-18.6,17.7-26.2c0.6-0.6,1.1-1.3,1.2-2.7c-1.4,0.8-3,1.5-4.2,2.5c-8,7-14.8,14.9-16.9,25.8
		c-0.5,2.7-2.2,3.2-4.5,2.6c-7.1-1.7-14-4.2-21.2-5s-12.3-2.8-14.8-10.2c-0.8-2.3-3.8-3.9-6.3-5.3c2.4,3.9,4.7,7.8,7.2,11.5
		c1.4,2.2,1.1,3.7-0.3,5.8c-11.6,17.7-23.3,35.4-34.4,53.5c-3.9,6.2-6.2,13.4-9.2,20.2c-0.3,0.6-0.2,1.4,0.4,2.4
		c2.9-5.2,5.8-10.4,8.6-15.6c0.3,0.1,0.6,0.2,0.9,0.2c0.4,11.3-3.3,22.1-4,33.6c0.8-1.6,1.8-3.1,2.4-4.7c3.8-10.4,5.6-21,4.2-32
		c-0.2-1.7,0.4-3.4,0.7-5.1c0.5,0,1,0,1.5,0c0.7,4.2,1.5,8.4,1.9,12.6c2.2,19,1.8,37.8-3.7,56.3c-1.3,4.4-3.3,8.6-5.4,12.6
		c-2.3,4.3-6.3,6.9-11,7.6c-21.4,3.2-41.9,1-60.2-11.6c-7.3-5-10.3-12.6-11.6-22c2,1.5,3.3,2.5,5.3,4c-8.7-11.9-11.9-25-15.1-38
		c-2.2-8.9-0.7-17.2,5.1-24.6c17.5-22,34.8-44.2,52.4-66.2c9-11.3,18.5-22.2,27.4-33c49.2,13.1,96.1,11.9,138.9-19.2
		c3,8.3,5.7,16.5,9.1,24.4c7.3,17.3,14.7,34.6,22.6,51.6c15.4,33.1,33.8,64.7,52.5,96.1c12.2,20.5,25.5,40.4,38.3,60.5
		c2.2,3.4,0,7.4-5.1,9.6c-5.9,2.5-11.9,4.7-17.4,7.9C476.9,932.8,467.8,939.8,462.6,950.7z"/>
	<path class="st0" d="M213.3,315.6c-0.1,7.3-4.7,5.6-8.4,5.3c-11.4-0.9-18.2-7.7-21.5-18c-3-9.3-2.7-18.8,1-28.1
		c4.8-11.7,16.7-11.9,24.6-2.9c2.5,2.8,4.1,6.4,6.2,9.7c0.4,0.7,1.1,1.6,1.7,1.6c0.7-0.1,1.8-0.8,1.9-1.5c0.5-2.1,0.9-4.3,1-6.4
		c0.5-8.6,0.7-17.1,1.3-25.7c0.5-6.4,4.1-11.3,8.1-16.2c3.7-4.6,7.5-9.5,9.9-14.8c2-4.3,2.4-9.4,2.8-14.2c0.6-7.1,4-12.5,9.2-17
		c3.5-3,6.6-6.5,10-9.5c1-0.9,2.6-1.6,4-1.5c25.7,0.1,51.5,0.4,77.2,0.6c3.6,0,7.2,0.1,10.7-0.4c8.2-1.2,15.7,1.7,23.1,4.3
		c15.2,5.4,30.2,11.2,45.2,16.8c0.4,0.1,0.7,0.3,1.1,0.4c9,3.3,8.9,3.3,8.9,13.1c0,20.7,0.5,41.5-0.1,62.2
		c-0.8,26.3-2.9,52.6-9.4,78.3c-3.5,14-10.8,25.8-21.8,35.3c-13.7,11.8-29.8,18.7-47,23.7c-10.8,3.1-21.8,3.4-32.7,3.7
		c-9.9,0.3-19.7-2.8-28.9-6.7c-20.3-8.7-38.9-19.9-54.1-36.1c-7.8-8.2-15-17.1-18.5-27.9c-2.4-7.5-2.7-15.5-4-23.3
		c-0.2-1.3-0.4-2.6-0.6-3.9C213.9,316.1,213.6,315.9,213.3,315.6z M416.6,272.7c-0.3-7.3-1.5-14.1-5.4-20.3
		c-5.4-8.7-13.1-13.1-23.3-12.8c-10,0.4-18.2,4.2-23.6,13.2c-5.5,9.1-7.2,19.1-6.7,29.5c0.2,4.6,1.2,9.6,3.3,13.6
		c5.6,10.6,14.2,16,26.9,14.7c14.3-1.5,22-7,25.9-21C415.3,284.1,415.7,278.3,416.6,272.7z M283.3,230.2c-8.8-0.1-11.6,0.6-17.4,4.3
		c-16.4,10.4-23.9,43.9-3.3,61.8c13.7,11.9,34.8,9.9,44.7-5.2c11.9-18.3,8.1-34.4-1.6-50C300.6,233.1,292.3,229.4,283.3,230.2z
		 M371.9,347.4c-1.5-0.5-3.2-1.6-5.1-1.8c-10.5-0.8-20.9-1.8-31.4-2c-13.9-0.3-27.9-1.2-41.7,1.8c-7.5,1.7-8.5,4.3-3.5,10.2
		c5.4,6.5,12.1,11.4,19.6,15.2c21.5,10.8,46.7,5.1,57.7-18.1C368.3,350.9,370.1,349.5,371.9,347.4z M287,183.2
		c-10,0.7-17.5,4.8-22.8,12.8c-0.9,1.3,0.1,3.9,0.2,5.8c1.5-0.5,3.4-0.6,4.5-1.6c4.8-4.1,10-7.1,16.5-7c2.9,0,5.9,0.4,8.7,0.1
		c1.6-0.2,3.6-1.3,4.4-2.6c0.5-0.8-0.7-3.6-1.7-4.1C293.7,185.1,290.3,184.3,287,183.2z M393.7,203.2c-2.5,0.3-5.5,0.7-6,3.9
		c-0.4,3,2.3,3.9,4.7,4.7c1,0.3,2,0.3,3,0.6c2.3,0.6,4.9,0.9,6.9,2.1c3.5,2.2,6.6,5.1,10.1,7.4c1.5,1,3.6,1,5.5,1.4
		c0-1.9,0.6-4.3-0.3-5.7C412.2,208.9,404,204.5,393.7,203.2z M353.6,320.4c-2.7,0.3-5.3,0.7-8,0.9c-4.3,0.3-8.6,0.7-12.8,0.5
		c-2.6-0.1-5.2-1.5-7.8-1.8c-1.6-0.2-3.3,0.7-5,1.1c0.8,1.4,1.2,3.3,2.5,4.2c2.2,1.6,4.8,2.9,7.4,3.7
		C339.8,332.3,349.2,329.3,353.6,320.4z M364.2,223.4c-11.3,9.7-21.9,47.6-16,59.1C349.9,261.2,354.2,241.5,364.2,223.4z
		 M192.8,280.2c8.7,4.9,14.4,12.5,19.2,21.1C213.1,292.8,203.1,281.9,192.8,280.2z M347.4,312.3c-3-4.8-15.7-5.5-19.1-0.9
		C334.7,311.6,340.9,311.9,347.4,312.3z M341.5,383.3c-7,0-13.7,0-20.4,0C324.7,388.2,336.3,388.3,341.5,383.3z"/>
	<path class="st0" d="M434.6,299.6c0-6.5,0-12.7,0-19c-0.1-23.8-0.3-47.6-0.4-71.4c0-0.5-0.2-1.1-0.1-1.5c2-6.9-2.5-9.2-7.8-11.3
		c-18.1-6.9-36.5-13.4-54.1-21.4c-5-2.2-9-1.4-13.5-1.5c-12.2-0.2-24.3-0.6-36.5-0.9c-18.6-0.3-37.1-0.7-55.7-0.8
		c-2.5,0-3.7-1.1-4-3.1c-0.9-7-1.8-13.9-2.4-20.9c-2-22.5,5.7-42.6,16.1-61.8c8-14.8,17-29.2,24.9-44c3.2-6,4.9-12.8,7.3-19.3
		c0.2-0.6,0.6-1.1,1-2.1c7,6.5,12.4,13.7,15.9,22.5C324.5,30,324.2,17,318.8,4c26.1,7.2,45.3,22.2,58.6,44.4
		c13.1,22,18.9,45.9,14.7,71.8c0.4,0,0.9,0.1,1.3,0.1c0.5-1.2,1.4-2.3,1.5-3.5c1-11.5,4.5-22.5,6.4-33.8c2-12.1,1.8-24.5,0-36.7
		c0-0.2,0-0.5,0.1-1.5c2.4,2.2,4.6,4,6.6,6c19.4,19.8,33.7,42.8,41,69.5c6.5,23.9,5.2,47.4-7.4,69.5c-0.5,0.9-0.8,1.8-1.2,2.7
		c0.3,0.2,0.7,0.4,1,0.6c2.6-4.1,5.6-8,7.7-12.3c7.8-16.4,9.4-33.5,6-51.3c-1.7-8.8-0.3-12,6.1-16.3c0.3,1,0.8,1.8,0.9,2.8
		c2,13.4,4.6,26.8,5.6,40.2c1.1,14.8,1.2,29.7,1,44.5c-0.2,15.7-3.5,31-7.4,46.1c-4.5,17.2-10.8,33.8-19.2,49.5
		C440.4,299.2,439.9,299.3,434.6,299.6z"/>
	<path class="st0" d="M46.3,291c21.4,7.1,42.4,7.7,63.5,0.7c21-7,38.5-18.2,47.8-40.7c1.2,5,1.9,9.1,3.2,13.1
		c7.4,22.8,14.7,45.6,22.4,68.2c8.6,25,22.2,47.3,37.4,68.7c6.6,9.2,11,19,10,30.6c-0.9,9.8-3.1,19.4-10.8,26.3
		c-8.9,8.1-19.6,8.1-30.2,4.1c-11.9-4.5-21.3-13-31-20.9c-20-16.2-37.3-35-53.6-54.8c-16.9-20.6-31.3-43-44.1-66.3
		c-4.7-8.6-9.1-17.4-13.6-26.2C46.9,293.1,46.7,292.2,46.3,291z"/>
	<path class="st0" d="M224.5,613.9c2.2,2.7,3.7,4.6,5.2,6.5c0.3-0.2,0.6-0.3,0.9-0.5c-22.4-39.7-31.3-83.2-35.7-128.1
		c4.4,0.2,8.9,0.8,13.2,0.6c4.3-0.2,8.5-1.3,13-2c1.8,4.9,3.8,9.9,5.6,14.9c5.4,15.2,17.8,22.4,31.8,27.8
		c17.6,6.8,35.9,10.1,54.5,11.6c4.1,0.3,8.2,0.4,12.2,0.9c1,0.1,2.5,1.3,2.8,2.3c2,7.4,3.8,14.9,5.6,22.3c0.2,1,0.1,2.6-0.6,3.2
		c-4.8,4.6-2.9,10.4-0.9,14.6c2.1,4.4,2,8.4,1.4,12.5c-0.5,3.2-0.4,4.8,3.3,5.1c1,0.1,2.3,1.3,2.6,2.3c1.8,5.1,2.6,10.3,1.7,15.8
		c-0.5,2.7,0.2,5.9,1.2,8.6c4.8,13.1,6.5,26.5,6,40.4c-0.1,2.5-0.6,4.3-3.6,5c-22.3,5.1-44.7,8.6-67.7,7.6
		c-9.6-0.4-19.1-2.1-28.1-5.5c-5.7-2.2-8.9-7.1-12.1-12c-5.8-9-9.7-18.8-10.9-29.5c-0.7-6.5-1.4-13-2-19.4
		C223.9,617.6,224.3,616.2,224.5,613.9z M300.6,648c-0.7-0.6-1.4-1.4-2.2-1.8c-4-2-8.2-3.6-12-5.8c-4.1-2.4-7.2-2.2-11.5,0.2
		c-8.2,4.7-17.1,8.3-25.8,12.4c-1.9,0.9-4.4,1.4-3.9,4.3c0.9,5.4,1.7,10.8,3.1,16.1c1.1,4,3.1,5,7,3.4c6.1-2.5,12.2-5.1,18.1-8.1
		C283.6,663.4,292.9,657,300.6,648z"/>
	<path class="st0" d="M135.7,252.4c-30.1,9.5-39.3,2.3-49.6-11c7.6,0,14.5,0,21.5,0c0.1-0.5,0.1-1.1,0.2-1.6
		c-3.6-0.7-7.2-1.6-10.8-1.9c-11.7-1.1-23.4-2-35.2-3c-0.4,0-0.8,0-1.1-0.1c-8.6-1.1-12.2-5.5-11.4-14.2c0.1-1.3,1-2.6,1.9-3.6
		c10.2-10.8,22.2-18.3,36.8-21.5c4-0.9,8-1.4,12-2.2c0.9-0.2,2.1-0.8,2.4-1.5c2.1-5.6,4.2-11.2,6-17c0.6-1.8,0.3-3.9-0.3-5.9
		c-2.9,6.2-5.9,12.4-8.6,18.8c-1,2.3-2.2,3.6-4.8,3.3c-2.5-0.3-6.2,0.6-7.3-0.7c-2.2-2.8-3.3-6.6-4.2-10.1c-0.6-2.3-0.1-5-0.1-7.5
		c0.3-0.1,0.7-0.2,1-0.3c2.6,3.3,5.2,6.5,7.8,9.8c0.4-0.3,0.8-0.5,1.3-0.8c-1.6-2.7-3-5.6-4.7-8.2c-1.9-2.7-4.1-5.2-6.7-8.3
		c5.5-1.1,11.1-0.5,15.4-5.6c-5.1,1.1-9.3,2.2-13.6,2.8c-1.5,0.2-4-0.6-4.8-1.8C68.7,145,60.5,129,59,110.3
		c-0.6-7.8,0.9-15.1,6.3-21c7.9-8.6,18-8.1,24.5,1.9c4.7,7.2,8.3,15.2,11.6,23.2c7.7,18.7,15,37.6,22.2,56.5
		c8.1,21.2,16.1,42.4,24.2,63.6c1.5,4.1,3.5,8,4.8,12.1c0.6,1.8,0.8,4.3,0.1,6c-4.9,11.1-13.2,19.3-23.5,25.5
		c-13.2,8-27.6,12.7-43,13.6c-8.5,0.5-17.1-0.1-25.7-0.7c-1.9-0.1-4.4-1.8-5.4-3.5c-9.7-17.2-19.1-34.6-29-52.7
		c4.3,1.4,7.9,2.6,11.5,3.8c3.2,1,6.3,2.5,9.5,2.8c3,0.3,6.1-0.7,9.2-1.1c1.5-0.2,3-0.7,4.5-0.6c6.1,0.3,12.3,0.7,18.4,1.3
		c1.4,0.2,3,1.2,4.1,2.2c3.3,3.2,6.2,6.8,9.4,10.1C102.2,263.2,128.2,262.2,135.7,252.4z"/>
	<path class="st0" d="M267.4,54.2c0.8,4.5,1.6,8,2.1,11.4c0.8,6.2,1.5,12.5,1.9,18.7c0.1,1.8-0.8,3.7-1.6,5.4
		c-5.3,10.9-10.7,21.9-12.5,34c-2.3,15.8-2.6,31.6,1.7,47.2c0.5,2,0.4,3.2-1,4.7c-4.9,5-9.7,10.1-15,15.7
		c-5.5-9.5-7.4-18.9-8.9-28.4c-0.3,0-0.7,0-1,0c-0.2,2.1-0.6,4.2-0.5,6.2c0.5,7.5,2.7,14.5,5.7,21.4c1.1,2.4,1,5.6,0.7,8.4
		c-0.5,4.8-1.5,9.6-2.3,14.4c-1.2,7.5-5.9,12.9-10.9,18.1c-7.7,8.1-9.9,17.9-9.5,28.6c0.2,6.1,0,12.1,0,19.1c-1.2-2.4-2.1-4.2-3-5.9
		c-2.8-5.5-7-9.4-13.2-10.9c-2.6-0.6-3.5-2.4-4.4-4.7c-7.1-17.7-10.2-36.1-10-55.1c0.2-33.2,11.7-62.5,32.8-88
		c9.5-11.4,19.4-22.5,29-33.7c0.5-0.6,0.8-1.3,1.7-1.6c-4.9,14.3-10.8,28.1-12.7,43.1C247,100.1,253.9,76.3,267.4,54.2z"/>
	<path class="st0" d="M590.5,959.3c-0.7,16.9-4,31.5-9.8,45.5c-7.5,18.1-17.1,35.1-29,50.6c-8.7,11.3-18.3,21.8-30.6,29.2
		c-14.2,8.5-29.3,11.9-45.5,6.4c-3.1-1-6.3-2.6-8.6-4.7c-7.5-6.9-8-10.4-4.5-20.1c5.2-14.6,14.7-26.9,22.5-40.1
		c3.8-6.4,6.9-13.4,9.5-20.4c6.5-17.9,13.2-35.8,23.1-52.2c6-9.8,12.5-19.3,23.1-25.1c12.2-6.6,33-4.3,42.7,5.6
		c2.3,2.4,3.8,6,4.6,9.4C589.4,949.2,589.9,955.1,590.5,959.3z M498.1,1017.6c0.9,0.4,1.2,0.7,1.4,0.6c11-1.6,21.6-4.5,30.9-10.6
		c10.2-6.8,18.2-15.1,17.1-28.8c-0.5-6.1-4.1-10.9-9.9-12.7c-7.2-2.2-14.2-0.8-21.2,0.8c-0.8,0.2-1.8,2.1-1.8,3.2
		c-0.5,14.1-4.4,27.2-11.4,39.4C501.7,1012.2,499.9,1014.8,498.1,1017.6z M498.1,1086.2c6.4,0.2,13.6-1.9,20.3-5.5
		c13.3-7.1,21.3-19.2,29-31.5c1.8-2.8,0.9-4.6-1.5-6.4c-5.4-4-11.7-5.1-18-6c-13.2-1.7-26.3,0-39.4,1.7c-1.8,0.2-4.2,1.4-5.2,2.9
		c-4.9,7.8-9.4,15.9-10.3,25.3c-0.5,5.5,0.5,10.5,4.9,14.3C483.4,1085.6,489.9,1086.7,498.1,1086.2z M526.3,953.9
		c2.9,0,5.8-0.2,8.7,0c7.2,0.6,13,4,15.8,10.5c5.7,13.2,2.5,33-11,41.2c-7.1,4.3-15,7.5-22.6,11c-7.2,3.3-14.6,6-21.6,9.5
		c-2.9,1.4-5.4,4-5.8,7.7c0.7,0.3,0.9,0.5,1.1,0.5c0.5,0,1-0.1,1.5-0.2c19.3-4,38.6-3.6,58-0.4c1.4,0.2,3.3,0.1,4.3-0.6
		c4.2-3.2,8.1-6.6,12.1-10c-0.2-0.3-0.5-0.6-0.7-0.9c-3.3,2.6-6.4,5.4-9.9,7.7c-1.6,1-4,1.5-6,1.3c-9.8-0.8-19.5-2.4-29.3-2.9
		c-8.1-0.4-16.3,0.5-24.5,0.9c2.5-1.9,5.3-3.5,8.3-4.7c8.5-3.3,17.1-6.1,25.5-9.5c20-8.3,29.3-25,25.2-45
		C552.5,956.4,540.1,949.1,526.3,953.9z M538.3,938.8c-0.2,0.5-0.4,1-0.6,1.5c1.7,0.9,3.3,1.7,5,2.6c7.5,3.8,12.7,9.7,16.3,17.2
		c7.2,15.5,1.2,46.7-21.3,56.9c-4.1,1.9-8.2,3.7-12.3,5.6c7.4,0.1,13.7-2.8,19.5-6.7c11.8-7.8,17.5-19.4,19.6-33
		c2.5-15.7-1.9-29-15-38.5C546.3,941.9,542.1,940.7,538.3,938.8z M547.5,1020.8c0.3,0.3,0.6,0.6,1,0.9c2.9-2,6-3.7,8.7-5.9
		c13.1-10.9,19.4-25.1,19.6-42c0.2-15.5-6.4-27.6-19.7-35.9c-1.4-0.9-3.1-1.4-4.7-2.1c-0.3,0.2-0.5,0.5-0.8,0.7
		c16.2,9.8,23.7,23.9,21.7,42.5C571.5,997.1,561.9,1010.4,547.5,1020.8z M557.2,1020.8c0.2,0.3,0.4,0.6,0.6,0.9
		c0.3-0.1,0.7-0.2,1-0.3c26.2-14.5,31.1-50.7,24.9-70.5c-2.1-6.6-6.8-11.4-12.9-13.1c7.4,5.2,10.5,12.1,11.4,19.8
		c0.7,5.3,0.8,10.7,0.5,16c-1.2,17.5-7.8,32.4-21.5,43.9C560,1018.5,558.6,1019.7,557.2,1020.8z"/>
	<path class="st0" d="M430,500.1c14.3,1,21-7.9,26.5-18.5c-0.4-0.4-0.8-0.9-1.2-1.3c-3.6,3.9-6.9,7.9-10.8,11.5
		c-1.9,1.7-4.6,3.1-7.1,3.4c-9.5,1.3-19,2.2-29.2,3.3c8.1-14.8,9.8-30.4,6.8-46.9c9,1.8,17.3,3.4,25.5,5.1
		c6.6,1.3,13.3,2.4,19.8,4.3c2.8,0.8,5.9,2.8,7.6,5.1c8.5,12.1,14.7,25.4,18.5,39.6c3.1,11.7,5.5,23.6,7.3,35.6
		c1.1,7.8,0.5,15.8,0.6,23.8c0,3.6-3.1,3.9-5.5,4.1c-6.5,0.4-13,0.8-19.5,0.6c-9.8-0.4-19.3-1.9-28-6.9c-3.4-1.9-5.2-4.4-4.9-8.6
		C437.7,536.1,436.1,518.4,430,500.1z"/>
	<path class="st0" d="M258.3,414.5c3.7,10.1,7.4,20.1,11.1,30.2c0.4-0.1,0.8-0.2,1.2-0.4c-0.6-11.3-5.2-21.6-9.4-32
		c0.3-0.2,0.5-0.4,0.8-0.6c3.6,3.4,7.3,6.8,10.7,10.4c9.9,10.5,19.7,21.2,29.7,31.6c2.8,2.9,6.3,5.2,9.2,8.1c1.6,1.6,3.2,3.8,3.6,6
		c3.4,21.1,6.5,42.2,9.8,64.1c-4.2-0.6-8.4-1-12.6-1.7c-18.2-3.3-35.8-8.2-52.8-15.6c-12.9-5.6-21-15.5-26.2-28.2
		c-1-2.4-0.4-3.7,1.3-5.2c13-11.4,21.1-25.6,23.2-42.8c0.7-5.5,0.2-11.2,0.1-16.8c-0.1-2.1-0.6-4.3-1-6.4
		C257.4,414.8,257.9,414.7,258.3,414.5z"/>
	<path class="st0" d="M337.6,572.3c0.5-1.4,1.5-3.8,2.2-6.3c1.7-6,3.1-12.1,5-18.1c0.4-1.3,1.8-3.1,3-3.3
		c14.2-2.2,27.5-6.7,40.1-13.6c0.3-0.2,0.7-0.1,1.5-0.3c-0.3,3.3-0.9,6.4-0.7,9.5c1,14.8,1.9,29.6,3.6,44.3c1,8.9-2,15.7-8.1,21.6
		c-1.3,1.3-2.6,2.7-3.8,4c0.3,0.3,0.5,0.6,0.8,1c3.4-2.2,6.8-4.4,11-7.1c1.5,4,2.9,8.2,4.6,12.9c-4.8-0.6-8.7-1.3-12.6-1.6
		c-1.1-0.1-2.9,0.6-3.4,1.5c-3.1,5.3-5.8,10.8-8.8,16.1c-1.3,2.3-0.1,3.5,1.9,3.9c5.6,1,11.3,1.9,16.9,2.6c2.1,0.3,4.3,0,6.6,0
		c0.5,5-1.4,9.2-4.7,12.5c-11.6,11.7-25.9,18.8-42,23.9c0.1-1.9,0.2-3.4,0.4-4.8c1.2-11.6,0.1-23-3.6-34.1c-1.7-5.2-3.4-10.2-2.3-16
		c0.6-3.7-0.7-7.8-1.5-11.6c-0.5-2.4-0.4-3.8,2.3-4.6c2.8-0.8,3.9-3,3.1-5.7c-0.7-2.6-1.6-5.1-2.7-7.5c-2.3-4.7-4.9-9.2-4.3-14.9
		C342.1,575.4,339.6,574.1,337.6,572.3z"/>
	<path class="st0" d="M459.7,1066.1c-0.4-2.1-0.9-4.1-1.2-6.2c-0.8-5.8-1.7-11.6-2.2-17.5c-0.1-1.6,0.6-3.6,1.6-4.9
		c2.4-3.2,5.3-5.9,7.8-9c2.2-2.7,4.2-3,6.6-0.4c0.7,0.7,1.7,1.1,3.1,2c0.1-1.3,0.5-2.4,0.1-3c-2.4-4.1-8.1-4.7-11.4-1.4
		c-1.5,1.5-3,3.2-4.4,4.8c-1.4,1.6-2.7,3.3-4.3,5.2c-2.6-6.6-2.1-13.1-0.7-19.4c4.6-20.8,12.9-39.7,27.9-56.6
		c-4.3,13.1-6.8,25.4-6.8,38.1c0,6.2,3.6,10,8.4,13c0.4-0.2,0.8-0.4,1.2-0.6c-0.7-1.2-1.1-2.8-2.1-3.5c-3.6-2.7-4.6-6.4-4-10.6
		c1.4-9.6,3-19.2,4.6-28.7c0.2-1.2,0.8-2.5,1.4-3.6c1.2-2.1,1.8-2.1,4.9-0.3c2.1-5,4.1-9.9,6.1-14.8c3.9-9.2,7.2-18.6,11.9-27.4
		c9.1-17.1,18.4-21.1,37.3-16.6c14.3,3.4,25.2,12.3,34.3,23.9c-1-0.5-2.1-0.9-3.1-1.5c-15.1-9.1-37.2-6.7-50.6,9.4
		c-9.7,11.7-17.3,24.7-23.1,38.7c-4.6,11.2-8.3,22.8-13,34c-2.8,6.8-6.5,13.3-10.2,19.6C472.6,1041,464.3,1052.4,459.7,1066.1z"/>
	<path class="st0" d="M274.5,848.6c-1.8,0.4-3.5,0.8-5.8,1.4c0.1-1.4,0.3-3.1,0.4-4.8c0.6-16,0.4-32-4.9-47.4
		c-0.8-2.4,0.1-3.8,2.9-5.6c0.9,6.2,1.8,11.8,2.6,17.4c0.5,4,0.7,8.1,1.5,12.1c0.2,1.2,1.8,2.2,2.6,3.2c-1-7.5-1.9-14.7-2.9-22
		c-0.4-3-0.5-6.2-1.6-9c-1.8-4.6-0.2-7.8,3.7-11.7c0.8,5.2,1.9,9.8,2.2,14.3c1.4,20.5,2.4,41.1,4.1,61.6c0.9,10.8,3.1,21.5,4.1,32.3
		c1.1,12.8-1.3,25-8.9,35.7c-4.5,6.4-10.8,9.6-18.5,9.9c-9.2,0.4-18.3,0.1-27.3-2.9c-16.1-5.6-24.2-17.5-27.8-33.3
		c-0.9-3.8-1.7-7.7-2.7-12.5c4,1.3,7.1,2.2,10,3.5c0.9,0.4,1.4,2,1.7,3.1c2.1,7.3,4.3,14.5,5.9,21.8c1.8,8.2,7.9,11.6,14.9,14
		c9.6,3.3,16.8,1.6,21.5-5c1.5-2,2.7-5,2.4-7.3c-0.9-8.1-2.5-16.1-3.7-24.2c-0.2-1.3,0-3.4,0.8-3.9c8.6-5.3,11.5-14,14.1-22.9
		c0.5-1.8,1-3.7,1.4-5.6c0.9-4.9,2.8-9.2,8-11.3C274.8,849.2,274.6,848.9,274.5,848.6z"/>
	<path class="st0" d="M489.1,573.5c-1.2,7.8-2.3,15.4-3.7,23.1c-0.6,3.6-1.8,7.2-2.6,10.8c-1,4.4-3.7,7.4-7.5,9.7
		c-5.8,3.5-11.4,7.3-17.1,10.9c-2.7,1.7-5.3,1.2-7.9-0.6c-6.1-4.2-10.2-9.9-12.4-17c-0.6-2-0.1-2.8,1.9-3.3c1.7-0.4,3.5-0.9,5.1-1.6
		c5.6-2.6,5.7-2.6,9.6,2.5c1.8,2.3,4,4.4,6,6.6c0.5-0.4,0.9-0.7,1.4-1.1c-1.8-2.6-3.6-5.2-5.6-8c4.4-0.6,8.3-1.1,12.2-1.5
		c0-0.5,0-1,0-1.5c-1.7-0.2-3.3-0.5-5-0.7c-3.6-0.4-7.1-0.8-10.7-1c-1.3-0.1-2.7,0.4-4,0.6c-7.6,1.6-15.1,3.6-22.8,4.8
		c-1.8,0.3-4.9-1.5-5.8-3.1c-4.3-7.8-4.1-12.4,3.2-15.5c5.4-2.3,7.5-6.2,8.4-11.5c0.7-4.2,2.1-8.3,3.4-13
		C451.6,575,470.1,574.5,489.1,573.5z"/>
	<path class="st0" d="M173.8,459c1.7,1,2.9,1.7,4,2.4c9.5,6.6,20.1,8.8,31.3,7.1c10.3-1.6,17.2-8.5,21.3-17.6
		c6.1-13.8,7-28,0.2-41.9c-1.9-3.9-4.6-7.4-6.9-11c-0.8-1.3-1.5-2.6-2.3-3.9c8.1-4.9,20-1.9,25.4,6.4c7.6,11.7,9,24.7,6.8,38
		c-3.3,20.5-13.5,36.8-32.1,46.5c-14.6,7.6-33.2,4.2-42.2-7.8C175.6,472,174,466.1,173.8,459z"/>
	<path class="st0" d="M368.6,422c18.1,4,27.2,14.8,29.6,33.2c1.6,12.6-0.1,25-1.8,37.4c-0.9,6.6-2.3,13.1-3.7,19.6
		c-0.3,1.4-1.4,3.2-2.6,3.9c-13,7.2-26.8,12.5-41.8,15.8c0.1-1.6,0.2-3.1,0.4-4.6c3.6-20.9,4.4-41.9,3.6-63.1
		c-0.1-2.7,0.2-4.7,3-5.8c1.8-0.7,3.3-2,4.9-3c9.5-5.8,11.9-14.4,10-24.8C369.8,427.8,369.2,425,368.6,422z M391.4,479
		c0-2,0.5-4.3-0.2-6.1c-0.7-1.7-2.6-3-3.9-4.5c-0.2-0.3-0.5-0.7-0.5-1c0-2.9-2.3-3.3-4.3-3.3c-3,0.1-6,0.7-8.9,1.3
		c-8.9,1.9-13.1,11.1-13.7,18.8c-0.2,2.8,0.2,5.6,0.6,8.4c1,6.3,1.9,12.9,6.7,17.6c8.6,8.4,10.6,7.3,16.6-0.9
		c0.1-0.1,0.1-0.2,0.2-0.3C390,499.9,391.1,489.6,391.4,479z"/>
	<path class="st0" d="M81,173.2c-2.5,0-3.5,0-4.7,0c2.6,6.4,5.2,12.6,7.7,18.8c-5.1,2-9.8,3.7-14.4,5.7c-2.3,1-4.8,2-6.7,3.6
		c-3.6,3.2-7.2,3.4-11.4,1.3c-2-1-4.5-1.2-6.4-2.4s-4.3-3-4.7-4.9c-2.2-10.5-3.7-21.1-5.6-31.6c-1-5.9,2-9.7,6.4-12.9
		c5.7-4.1,12-6.6,18.9-8c2.5-0.5,3.8,0.1,5.2,2.4c4.1,6.9,8.7,13.5,12.9,20.3C79.3,167.5,79.8,170.1,81,173.2z"/>
	<path class="st0" d="M30.4,169.8c1.4,7.3,2.9,14.3,4,21.3c1.4,8.1,5.8,13,13.9,14.5c1.6,0.3,3.1,1.1,5,1.7
		c-3.8,4.6-9.6,7.4-9.1,14.3c0.4,5.8,0.9,11.5,6.1,15.5c-0.2,0.3-0.5,0.7-0.7,1c-6.4-2.1-12.8-3.9-19-6.2c-5.6-2-11-4.7-16.6-6.6
		c-4.3-1.5-5.3-5.2-5.9-8.6c-1.3-7-1.8-14.1-2.7-21.2c-0.4-3.3,0.6-6.2,2.5-8.9C13.6,178.5,20.8,172.6,30.4,169.8z"/>
	<path class="st0" d="M316.8,456.7c8.8,3.8,17.1,4,25.9,1.5c1.5,33.8-0.9,66.7-8.9,99.3C326.6,524.3,323,490.7,316.8,456.7z"/>
	<path class="st0" d="M247.1,683.7c26.1,8.4,52.3,6.9,78.6,2.2c7-1.3,14-2.8,21.4-4.2c0.9,3.1,2,6.2,2.6,9.4
		c0.1,0.7-1.4,2.1-2.3,2.4c-9.7,2.8-19.4,5.6-29.6,5.8c-7,0.1-14.1,0.6-21.1,0.8c-13.9,0.4-27.5-1.6-40.9-5.5
		C248.5,692.4,248.1,691.9,247.1,683.7z"/>
	<path class="st0" d="M326.8,542.1c-8.9-0.8-17.4-1.2-25.7-2.5c-13.7-2-27.3-4.3-40.2-9.6c-5.5-2.3-11-4.7-16.4-7.4
		c-8.1-4.1-12-11.6-15.4-19.4c-1.7-4-3.3-8-4.7-12.2c-1.5-4.6,3.2-3.7,5.1-5.9c1.6,3.5,2.9,6.5,4.3,9.5
		c5.8,12.2,15.6,19.8,27.9,24.9c19.7,8.1,40.1,13.6,61.3,16.1C326.9,535.9,326.5,538.7,326.8,542.1z"/>
	<path class="st0" d="M404.4,712.7c6.5-0.5,9.7,3.7,12.7,7.8c6.4,8.7,13,17.4,18.8,26.6c6.3,9.9,11.8,20.3,17.3,30.6
		c0.8,1.5,0.5,4.3-0.4,5.9c-2.1,3.7-4.9,7-7.9,11.1c-2.7-5.2-5-9.6-7.5-14.5c4.6-0.4,8.3-0.6,11.9-0.9c0-0.5,0.1-0.9,0.1-1.4
		c-3.3-0.3-6.7-1-10-0.9c-2.8,0.1-4.4-0.7-5.6-3.3c-9.4-19.4-18.9-38.8-28.3-58.2C405.1,714.7,404.8,713.8,404.4,712.7z"/>
	<path class="st0" d="M312.8,459.6c-1.4-1.2-2.9-2.3-4.2-3.7c-11-11.8-22-23.5-32.8-35.4c-6.9-7.7-14.8-14.1-23.5-19.5
		c-4.1-2.6-4.3-4.9-0.6-8c0.7-0.6,2.5-0.9,3.2-0.4c10,5.8,20.1,11.5,29.9,17.7c12.8,8,19.5,20.5,24.3,34.3c1.7,4.8,3.1,9.6,4.6,14.5
		C313.4,459.2,313.1,459.4,312.8,459.6z"/>
	<path class="st0" d="M341.4,417.6c-5.2,10.7-6.6,16.8-4.8,21.6c1.2-3,2.2-5.5,3.3-8.2c5.4,8.6,2.6,14.5-7.2,16
		c-6.2,1-11.9-0.7-17.6-2.8c-1.4-0.5-2.9-2-3.4-3.4c-3.4-9.5-8.2-18.1-15.8-25c-0.2-0.2-0.2-0.7-0.6-1.9
		C310.5,419.4,325.6,420.2,341.4,417.6z"/>
	<path class="st0" d="M178.8,774.4c-4.4-9.8-4.8-17.7,2.8-25.2c15.3-15,31.5-28.8,50-39.7c0.5-0.3,1.1-0.5,2.2-0.2
		c-0.9,1.1-1.9,2.1-2.8,3.2c-12.7,14.7-25.4,29.4-37.9,44.3c-2.3,2.8-3.9,3.4-6.7,0.9c-1.5-1.4-3.6-2.1-5.5-3.2
		c-0.2,0.3-0.4,0.6-0.7,0.8c2.5,2.3,4.9,4.6,7.8,7.3C185,766.5,182,770.3,178.8,774.4z"/>
	<path class="st0" d="M387.3,427.3c8.3-0.5,14.6,3.5,18.4,10.3c3,5.4,5,11.8,5.8,18c2.1,15.2,0.4,30.1-7.6,43.7
		c-1.5,2.6-3.5,4.8-5.9,6.8c0.8-4.9,1.8-9.7,2.4-14.6c2-14.7,3.4-29.5-0.2-44.2C398.2,440,397.8,436.3,387.3,427.3z"/>
	<path class="st0" d="M432.1,317.7c0.4-4.4,0.5-8.3,1.2-12.1c0.6-3.2,7.7-4.7,10.5-2.3c1.4,1.2,3,2.9,3.3,4.5
		c2.3,11.9,2.5,23.7-4.5,34.4c-3.6,5.5-9.6,8.3-15.5,7.5c1-5.7,2.6-11.4,2.9-17.2c0.4-7.9,4.4-13.4,9.9-18.2
		c0.6-0.6,1.1-1.3,1.7-1.9c-0.2-0.3-0.5-0.6-0.7-0.9C438.1,313.4,435.4,315.3,432.1,317.7z"/>
	<path class="st0" d="M394.3,656.4c-0.4,6.3-1.2,11.4-6.6,15.4c-9.9,7.3-20.1,13.8-31.7,18.3c-0.9,0.4-1.9,0.7-2.9,1
		c-0.3,0.1-0.7,0.1-1,0.1c-0.2-0.3-0.5-0.5-0.5-0.7c-0.4-3.1-2-6.9-0.8-9.3c1.1-2.1,5.1-2.8,8-3.9c12.1-4.7,23.4-10.7,33.2-19.4
		C392.6,657.4,393.3,657.1,394.3,656.4z"/>
	<path class="st0" d="M314.6,447.7c3.7,1.1,7,2.8,10.4,2.9c4.7,0.1,9.8-0.1,14.1-1.8c7.3-2.8,9.3-9.8,4.5-17.6
		c-3.2-5.2-1.1-8.1,2.3-11.9c0.8,0.8,1.6,1.5,2.2,2.4c3.4,5.2,4.3,11.1,4.7,17.1c0.1,1.2-0.4,2.6-1.1,3.5c-2.8,3.9-5.7,7.8-8.9,11.4
		c-0.8,0.9-2.4,1.3-3.8,1.5c-6.8,1.5-13.5,0.5-20-1.6C316.6,453,314.2,451.5,314.6,447.7z"/>
	<path class="st0" d="M351,453.7c-0.8,1.7-1.7,3.5-2.6,5.4c-0.6-0.2-1.3-0.5-1.9-0.7c0.7-2,1.1-4.3,2.3-6
		c5.4-7.4,11.1-14.7,12.8-24.1c0.7-4.1,0.7-8.3,1.9-12.8c1,4.1,2.4,8.2,3,12.4c0.6,3.9,0.5,7.9,0.3,11.9
		c-0.2,5.9-7.3,14.3-13.1,15.4C352.8,455.4,351.7,454.1,351,453.7z"/>
	<path class="st0" d="M398.3,636.2c-8.2-0.6-15.7-1.2-23.7-1.8c2.9-5.1,5.3-9.4,8-13.6c0.6-0.9,2.3-1.6,3.5-1.5
		c3.1,0.1,6.1,0.5,9.1,1c0.8,0.2,1.9,1.4,2,2.2C397.8,626.8,398,631.1,398.3,636.2z"/>
	<path class="st0" d="M346.5,540.9c-0.3-3.4,0.8-5.2,3.9-5.9c13.4-3.2,26.2-8,37.9-15.2c0.7-0.5,1.6-0.7,2.5-1.1
		c0.5,6.1-0.4,8.1-5.4,10.5c-11.6,5.6-23.7,9.6-36.4,11.5C348.3,540.9,347.5,540.9,346.5,540.9z"/>
	<path class="st0" d="M221.8,910.2c9.6,0,19,0,29.5,0c0,2.6,0.2,5.4-0.1,8c-0.1,0.7-1.6,1.6-2.5,1.7c-3.7,0.2-7.4,0.2-11.1,0.2
		c-2.3,0-4.6-0.4-6.9-0.6C223.2,919,221.9,917.6,221.8,910.2z"/>
	<path class="st0" d="M385.4,42.9c4.2,6,8.9,11.7,12.4,18.1c1.4,2.6,0.3,6.7,0.1,10.2c-0.3,5.4-0.7,10.8-1.1,16.2
		c-0.4,0-0.8,0.1-1.3,0.1c-0.3-1.4-0.6-2.7-1-4.1c-2.6-8.5-5.4-16.9-7.9-25.5c-1.3-4.7-2.1-9.5-3.2-14.3
		C384.2,43.4,384.8,43.2,385.4,42.9z"/>
	<path class="st0" d="M286,47.4c4.3,5.6,4.3,7.7,0.9,13c-3.2,4.9-6.2,10-9.3,15c-0.7,1.2-1.5,2.3-3.2,3.3c0-2.4-0.7-5.1,0.1-7.1
		C278,63.5,282,55.7,286,47.4z"/>
	<path class="st0" d="M217.7,892.5c1.8,0,3.3,0,4.8,0c7.4-0.2,14.7-0.4,22.1-0.8c1.9-0.1,2.9,0.2,3.1,2.2c0.2,1.9,0,3.4-2.3,3.5
		c-8.1,0.3-16.3,0.7-24.4,0.9C217.5,898.3,217.6,895.6,217.7,892.5z"/>
	<path class="st0" d="M220,901.4c9.4,0,18.7,0,28.1,0c0.2-0.4,0.5-0.8,0.7-1.1c0.4,2,0.8,4,1.3,6.3c-9.6,0-18.6,0.1-27.7-0.2
		c-1.2,0-2.3-2.2-3.4-3.4C219.4,902.5,219.7,901.9,220,901.4z"/>
	<path class="st0" d="M350.2,461.9c-0.3,23.7-2.3,47.1-6.1,70.3c-0.3,0-0.7,0-1-0.1c0.3-2.6,0.4-5.2,0.9-7.8
		c3.4-19.5,3.2-39.2,2.9-58.8C346.8,463.2,347.5,461.8,350.2,461.9z"/>
	<path class="st0" d="M346.3,601.3c-3.5,0.4-6.1,0.6-9.1,1c0-5.7-0.1-11.2,0.1-16.6c0-0.9,1.2-1.7,1.8-2.6c0.7,0.7,1.8,1.3,2.1,2.1
		C343,590.4,344.5,595.6,346.3,601.3z"/>
	<path class="st0" d="M356.6,433.9c-2.3-6-4.4-11.7-6.7-17.8c2.7-0.6,6-1.3,9.7-2.1C360.3,421.2,359,427.8,356.6,433.9z"/>
	<path class="st0" d="M420.6,717.9c-4.3-5.6-10.2-8.1-16.8-9.5c-1.4-0.3-2.3-2.4-3.5-3.7c0.3-0.4,0.5-0.8,0.8-1.2
		c4.7,1.4,9.6,2.3,14,4.3c1.8,0.8,2.5,3.9,3.7,6C419.4,715.1,420,716.6,420.6,717.9z"/>
	<path class="st0" d="M212.5,717.8c-0.7-3.5,1.6-4.6,3.6-5.8c4.3-2.6,8.7-5.2,12.9-7.9c3.1-2,6.2-2.4,9.7,0.4
		c-1.1,0.3-2.2,0.7-3.4,1c-2.6,0.7-5.5,1-7.8,2.3C222.5,710.8,217.7,714.4,212.5,717.8z"/>
	<path class="st0" d="M228.5,923.3c6.8,0,13.3,0,19.9,0C244.6,929,234.2,929,228.5,923.3z"/>
	<path class="st0" d="M149.5,230c4,3,6.1,6.8,5.7,11.5c-0.4,0.1-0.7,0.3-1.1,0.4C152.5,237.9,151,234,149.5,230z"/>
	<path class="st0" d="M334,583.2c-0.9-4.5,0-6.4,2.9-6c0.8,0.1,1.5,0.8,2.2,1.2c-0.4,0.7-0.7,1.5-1.3,2
		C336.7,581.4,335.5,582.2,334,583.2z"/>
	<path class="st0" d="M50.3,288.2c-5.7-1.4-6.3-2.4-3.9-7.4C47.7,283.4,48.9,285.5,50.3,288.2z"/>
	<path d="M192.8,280.2c10.4,1.7,20.3,12.6,19.2,21.1C207.2,292.7,201.5,285,192.8,280.2z"/>
	<path class="st0" d="M362.7,291.4c12.4,13.8,26.4,16.1,36,5.9c9.4-10,8.6-25.4-2-33.7c-6-4.7-13.1-5.5-20.4-3.5
		c-7.4,2-11.4,7.8-14.3,14.4c-0.3-0.1-0.7-0.2-1-0.3c0.5-2.6,0.7-5.3,1.5-7.9c2.5-8.8,6.6-16.7,15.8-19.9c16.7-5.7,27.9,0.9,32.9,16
		c3.8,11.4,2,22.8-3.2,33.5c-4.4,9-12.6,13.3-22.2,12.9c-11.1-0.5-20.1-7.3-23.1-16.7C362.4,291.9,362.6,291.7,362.7,291.4z"/>
	<path class="st0" d="M383.4,300.3c-11.2-0.1-19.1-8.1-19-19.2c0.1-10.9,7.8-18.7,18.2-18.6c11.1,0.1,19.6,8.6,19.4,19.4
		C401.9,292.3,393.7,300.4,383.4,300.3z M396.5,280.7c-4,2.1-7.8,2.7-10-1.4c-2.2-4.2,1.9-5.9,4.3-8c-4.5-4-10.8-4.3-15.6-0.9
		c-5.5,3.9-7.5,10.8-5,17c2.4,5.7,9.1,9.4,15.3,8.3C391.1,294.5,396.2,288,396.5,280.7z"/>
	<path class="st0" d="M253.5,264.8c-0.1-8,4.3-17.2,12.5-24.3c11.2-9.6,28.9-7,37.7,5.1c9.2,12.7,8.8,32.2-0.1,45.1
		c-9.7,14-31.2,13.3-41.1,1.4C256.8,285.4,253.4,276.7,253.5,264.8z M282.6,296c11.9,0.6,22.6-9,23.4-20.7c1-14.8-10.5-24-18.9-24.4
		c-15.7-0.7-26.1,7.4-26.9,21.2C259.6,284.6,269.7,295.3,282.6,296z"/>
	<path class="st0" d="M367.3,347.4c-5.1,11.5-12.5,19-23.3,22.9c-1.1,0.4-3.3-0.3-4-1.3c-4.5-6.3-10.6-9.6-18.3-9.4
		c-6.3,0.2-12.8-1.1-18.9,1.9c-0.5,0.3-1.6,0-2.1-0.4c-3.9-3.4-7.7-7-11.5-10.5c0.1-0.5,0.3-1,0.4-1.4c1.7-0.6,3.3-1.6,5-1.6
		c16.1-0.2,32.2-0.2,48.4-0.3C350.9,347.4,358.7,347.4,367.3,347.4z"/>
	<path class="st0" d="M337.9,371.5c-7.7,2.7-25.5-1.1-31.5-7.2C314.3,359.4,333.9,363.8,337.9,371.5z"/>
	<path class="st0" d="M334.8,326.9c4.8-1.3,10.1-2.7,15.3-4.1C346.9,326.5,337.9,328.5,334.8,326.9z"/>
	<path class="st0" d="M247.4,657.2c9-3.9,17.8-6.7,25.4-11.2c6-3.6,10.8-4.4,16.6-0.6c2.1,1.4,4.8,2,7.3,3c0.1,0.5,0.3,1,0.4,1.4
		c-8.8,5.4-17.4,11-26.3,16.1c-4.8,2.8-10.1,4.8-15.2,7.1c-2.6,1.2-4.4,0.4-5.1-2.5C249.4,665.8,248.3,661.1,247.4,657.2z"/>
	<path class="st0" d="M517.6,975.7c-0.4-6-0.4-6.3,5.4-6.6c4.1-0.3,8.2-0.3,12.2,0c5.3,0.5,8.6,4.3,9.1,9.7c0.6,6.3-1.4,11.8-5,16.9
		c-6.3,8.7-23.7,17.7-34.7,17.8c1.2-3.2,2.8-5.2,6.6-5.7c8.9-1.1,17.2-3.8,23.2-11.2c3.2-3.9,5.1-8.2,4.6-13.4
		c-0.6-6.5-3.4-9.5-10.1-9.4C525.3,973.8,521.6,975,517.6,975.7z"/>
	<path class="st0" d="M509.3,1005.7c1.5-4.1,3-7.8,4.2-11.6c1.3-4.4,2.4-8.9,3.3-13.3c0.5-2.2,1.3-3.3,3.7-3.2
		c3.3,0.1,6.6-0.6,9.9-0.4c4.2,0.2,5.3,1.6,5.5,5.7c0.4,6.5-2,12.1-7.5,15.4c-5.3,3.1-11.3,5.2-17,7.6
		C511,1006,510.3,1005.8,509.3,1005.7z M522,997.7c3.9-0.1,7.1-3.2,7.1-7c0-3.5-2-5.5-5.5-5.5c-3.2,0-6.6,3.7-6.6,7.2
		C517.1,995.3,519.4,997.8,522,997.7z"/>
	<path class="st0" d="M519.5,1039.2c5.5,1,12.8,2.2,20,3.7c1.5,0.3,3.1,1.3,4.3,2.3c0.6,0.5,1.1,2.2,0.7,2.8
		c-6.9,10.6-13.4,21.7-24.7,28.3c-10.6,6.1-21.9,9-34.2,5.1c-6.9-2.2-10-7-9.1-14.2c1-8,4.3-15.2,8.3-22.1c0.8-1.4,2.9-2.6,4.5-2.8
		C498.7,1041.1,508.1,1040.3,519.5,1039.2z M515.2,1042.9c-4.5,0.4-9,1.3-13.4,1.2c-11.5-0.3-16.1,7.1-19.3,16.3
		c-0.4,1.1-0.7,2.2-0.9,3.3c-1.3,5.8,0.6,10.8,5.9,13.6c2.7,1.4,6,2.4,9.1,2.5c18.3,0.8,31.4-12.3,38.9-26.5
		c0.7-1.3-0.1-4.1-1.3-5.3c-1.6-1.7-3.9-3.1-6.2-3.5C523.9,1043.6,519.5,1043.4,515.2,1042.9z"/>
	<path class="st0" d="M389.1,480.5c-0.5,9.3-1.3,18.6-6.6,26.7c-5,7.7-10.1,7.8-14.2-0.5c-2.7-5.4-3.4-11.9-5.3-17.8
		c-1.9-6,2.3-10.5,3.8-15.5c0.8-2.6,5.8-4.3,9.1-5.7c7.1-2.9,13.4,1.9,13.2,9.7C389.1,478.4,389.1,479.5,389.1,480.5z M388.1,481.2
		c-0.2,0-0.4-0.1-0.6-0.1c0-1.1,0.1-2.3,0-3.4c-0.6-4.5-6.2-10-9.4-8.8c-4.8,1.7-9,4-11.3,9.3c-2.2,4.8-2.5,9.6-1.5,14.5
		c1.4,6.7,2.5,13.7,9.5,17.4c0.9,0.5,2.8,0.5,3.2,0c2.4-3.2,5.3-6.4,6.5-10.1C386.2,493.8,386.9,487.4,388.1,481.2z"/>
	<path d="M522,997.7c-2.6,0-4.9-2.4-4.9-5.3c0-3.5,3.3-7.2,6.6-7.2c3.4,0,5.4,2,5.5,5.5C529.1,994.5,525.9,997.7,522,997.7z
		 M519.2,993.7c0.6,0.4,1.7,1.8,2.9,2c2.8,0.4,5.6-2.2,5.1-4.7c-0.2-1.3-1.8-3-3.1-3.3C521.5,987.1,519.3,989.6,519.2,993.7z"/>
	<path class="st0" d="M283.1,292.5c-9.9,1-19.6-8.7-19.4-19.3c0.2-11.4,8.3-19.3,20.2-19.4c10.5-0.1,18.7,8.6,19,19.4
		C303.2,283.4,293.4,293.8,283.1,292.5z M290.4,261c-5.8-3.4-12.3-2.3-17.9,3.7c-3.5,3.7-3.9,11-0.9,15.6c3.9,5.9,10.8,8.3,17.4,5.9
		c5.8-2.1,9.8-8.2,9-14c-3.1-0.1-7.3,1.9-8.6-2.3C288.5,267.6,289.9,264.5,290.4,261z"/>
	<path class="st0" d="M519.2,993.7c0.1-4.1,2.3-6.7,4.9-6.1c1.2,0.3,2.8,2,3.1,3.3c0.5,2.5-2.4,5.1-5.1,4.7
		C520.9,995.5,519.8,994.2,519.2,993.7z"/>
	<path class="st0" d="M514.5,1045.5c6.1,0.4,12.2,0.2,17.4,3.9c0.8,0.6,1.6,2.7,1.2,3.3c-4.8,7.9-9.6,15.8-18.2,20.2
		c-5.8,2.9-11.9,4.9-18.4,4.4c-2.9-0.2-6-1.3-8.6-2.7c-3.8-2-5.2-5.8-3.7-9.8c1.8-4.6,3.8-9.2,6.3-13.5c0.9-1.6,3.2-3.1,5.1-3.5
		C501.8,1046.8,508.2,1046.2,514.5,1045.5z M505,1067.1c3.6,0,7.2-2.3,6.9-4.5c-0.5-3.5-3.5-3.8-6.2-3.7c-2.8,0.1-6.1,0.9-6.3,4.3
		C499.2,1066.8,502.6,1066.8,505,1067.1z"/>
	<path class="st0" d="M375.2,501.8c-1.6-3.7-0.4-12,2-13.9c0.6-0.5,1.9-0.6,2.7-0.3c3.6,1.4,4.3,6.6,1.4,9
		C379.3,498.3,377.3,500,375.2,501.8z"/>
	<path class="st0" d="M382.6,475.9c-1.4-0.4-3-0.5-4.3-1.2c-2.6-1.4-6.4-0.3-6,2.4c0.7,5.3-3.2,7.1-6.6,10.6
		c1.6-6.7,3.5-12.2,8.8-15.7c3.7-2.4,6.1-1.5,8.4,2.4C382.8,475,382.7,475.4,382.6,475.9z"/>
	<path class="st0" d="M382.5,499.8c-1.5,2.3-3,4.6-4.6,6.8c-1.4,2-2.9,2-4.6,0.1c-3.6-4-5.9-8.5-5.7-14c3.7,1.4,4.9,4.1,4.7,8
		c-0.2,3.5,1.6,4.3,4.6,2.3c1.8-1.2,3.5-2.6,5.3-3.8C382.2,499.4,382.4,499.6,382.5,499.8z"/>
	<path class="st0" d="M377.5,483.6c-3.1-1-4.2-5.3-2.3-7c0.4-0.3,1.3-0.5,1.7-0.3c0.6,0.4,1.2,1.1,1.2,1.7
		C378,479.8,377.7,481.5,377.5,483.6z"/>
	<path class="st0" d="M371.5,492.2c-1.2-1.9-2.4-3-2.2-3.7c0.3-1.1,1.5-1.9,2.4-2.8c0.6,0.8,1.8,1.5,1.7,2.3
		C373.4,489,372.5,490.1,371.5,492.2z"/>
	<path class="st0" d="M384.7,478.5c-0.6,1.7-1.2,3.3-1.7,5c-0.7-0.4-2-1-2-1.3c0.4-1.6,1-3,1.6-4.5C383.3,478,384,478.2,384.7,478.5
		z"/>
	<path class="st0" d="M509.9,1061.3c-2.8,5-6,5.4-9.5,1.1C503.8,1062,506.5,1061.7,509.9,1061.3z"/>
</g>
</svg>
