<?xml version="1.0" encoding="utf-8"?>
<!-- Generator: Adobe Illustrator 26.0.0, SVG Export Plug-In . SVG Version: 6.00 Build 0)  -->
<svg version="1.1" id="Capa_1" xmlns="http://www.w3.org/2000/svg" xmlns:xlink="http://www.w3.org/1999/xlink" x="0px" y="0px"
	 viewBox="0 0 595.3 1097.7" style="enable-background:new 0 0 595.3 1097.7;" xml:space="preserve">
<style type="text/css">
	.st0{fill:#FFFFFF;}
</style>
<g>
	<path d="M589.8,935.3c-11.2-23.2-47.5-47.6-72.2-30.9c-4.1,3.7-4.2,3.7-6.9-0.9c-19.4-32.7-38.9-65.5-58.3-98.2
		c-4.4-7.3-4.5-7.6,1.2-14.3c5.5-6.4,6.4-12.7,1.9-19.9c-7.5-12.1-14.9-24.2-22.2-36.3c-1.1-1.8-2.8-4.1-2.4-5.8
		c1.6-6.5-5-9.8-6.8-15c-4.9-18.5-23.5-7.3-27.3-20.8c-0.7-5.9-7.9-13.9-5.2-19.3c7.3-4.9,4.2-13.9,6.5-20.7
		c3.5-6.1,4.4-12.5,4.2-19.2c-0.3-10.4-0.9-20.7-6.7-29.9c-1.4-4.3,1.9-9.6,1.7-14c-0.2-4.7-1.6-9.3-2-14
		c-0.5-19.4-9.3-65.6,14-73.1c5.6,0.6,17.7-4.7,18.7,3.1c4.8,21.3,10.6,64.4-9.5,79c-7.1,3.6-6.7,9.8-3.1,18.6
		c2.2,5.4,7.9,8.3,14.3,6.9c9.2-2.2,11.9,32.9,33.4,19.8c30.2-17,23.3-23.1,29.8-53.8c0.7-3,5.1-5.9,5.7-8.9
		c2.1-36.8-6.2-75-28-105.2c-7.1-10-38.4-9.7-51.6-13.6c-3.1-0.5-4.5-2.2-5.6-5c-3.9-11.7-13.4-22.8-27.1-20.2
		c-8.3,0.1-15.6-4.8-21.9-10.2c26.1-11.8,53.5-25.8,60.9-56c0.5-2.2,1.8-2.9,4.1-3.1c23.4-0.7,32.9-42.6,15.9-56.1
		c22.7-42.4,34.5-92.1,27.6-140c-2.3-15.9-5.6-31.7-8.4-47.5c-1.4-8.7-8.6,1.2-12.2,3.6C442.3,86.6,424,51.7,396,39
		c0.3,4.2,0.4,7.6,0.7,12c-5.7-7-9.9-14.2-18-18.5c0,3.4,0,5.9,0,8.7C364.1,20.1,343,4.8,317.4,0.1c-3.3-0.7-4,0.5-2.9,3.6
		c2.8,6.7,3.5,13.8,4.6,20.9c-3.7-1.2-10.7-12.4-12.6-6.6c-4.8,10.6-8.1,21.7-14.3,31.7c-2.4-3.4-4.5-6.2-7.1-9.7
		c-4,7.6-7.6,14.3-11.1,21c-1.5-3.1-2-6-2.8-8.9c-3.5-9.7-14.6,13.7-17.9,16.2c-27.8,31.5-60.9,60.5-69.8,103.5
		c-5.9,28.7-4.1,59.2,8,86c1,2.3,0.7,3.3-1.7,4.7c-13.2,7-15.5,23.7-12.6,37.1c-5.3-8.4-6.6-19.6-10-29.1
		c-5.7-13.9-5.1-38.8-17.8-47.2C129,180,117.8,131.4,94.5,88.9c-7.7-14.9-30-13.1-37,2.4c-7.5,14.5-2.2,31.5,2.4,45.6
		c-11.2,6.3-31.5,8.8-30.2,25.1c0.4,2.5-0.6,3.9-3.2,4.8c-9.6,3.3-17.2,9.3-23.1,17.6c-6.8,8.8-1.3,20.8-1.2,30.9
		c0.8,10.5,5.7,14.6,15.4,17.8c1.6,1.2,3.5,2.4,4.4,4c6.5,12,12.9,24,19.1,36.2c2.3,6.9-3.2,14.1,1.5,20.9
		C71.3,357,113,412.6,167.1,455.7c1.4,1.3,3.3,3.3,3.3,5c0,13,5.8,22.4,16.9,28.9c1.2,0.7,2.3,2.2,2.5,3.4
		c4.4,37.1,8.6,74.8,26.4,108.3c7.6,11.7,2.2,25.4,5.7,38.3c2.4,13.5,7.1,25.9,15.8,36.5c4.6,5.4,10.4,13.9,6.3,20.9
		c-2,2-4,2-6.3,1.1c-9.3-3.2-16.1,7-24.4,10c-8,3.4-3.2,11.2-9.5,15.4c-11.4,12.4-37.9,24.3-32.3,44.1c8.8,18.9-19.4,28.5-13.7,48.7
		c2.3,14.1,9.7,26.4,11.9,40.6c1.6,12.8,10.5,23.5,22,28.9c1.2,0.7,2.5,2.2,2.8,3.6c3.2,20.3,10.5,40.8,31.7,48.2
		c15.7,4.9,37.2,7.6,49.7-5.1c17.2-18.9,12.7-44.1,8.9-66.9c-2.5-27.3-2.5-54.8-7.9-81.7c-2.8-8.8,13-24.5,16.9-33.8
		c3.2-7.2,20.8,2.5,28,2.1c30.4-0.7,96.7,197.3,109.7,231.9c2.9,26.4-4.6,61.8,22,79.2c4.5,3.8,2.5,11.9,4.9,16.9
		c4.9,12.1,15.6,16.1,27.3,17.3C546.6,1106,614.2,986.6,589.8,935.3z M243.7,391.8c-8.5-6.7-21.5,1.7-25.8-4
		c-17.3-24.1-28.4-51.4-38.6-79.1c7.3,11.7,17.4,17.6,32.2,16c-0.4,29.3,18.2,47.4,37.6,65.1C247.7,392.2,246,393.3,243.7,391.8z"/>
	<path class="st0" d="M462.6,950.7c11.3-12.4,24.4-21.9,40.4-28c-1.3,8.1-6.2,15.6-9.1,23.5c-0.4,1-1.4,1.8-2.4,2.4
		c-23.9,15.9-38.3,44.9-41,72.9c0.3,13.2,3.4,25.2,5.5,38.6c-31-17.9-15.8-80.2-14.7-110c-0.6-0.1-1.2-0.2-1.8-0.2
		c-1.6,10.4-3.1,20.8-4.8,31.9c-26.5-75.5-50.8-153-93-221.5c-1.7-4.3-10-8.8-7.8-13.3c3.9-10.1,10.1-18.6,17.7-26.2
		c0.6-0.6,1.1-1.3,1.2-2.7c-10.5,6.1-18.5,16.2-21.1,28.3c-0.4,7.2-20.2-3.3-25.7-2.4c-16-1.1-10.3-10.2-21.1-15.5
		c2,5.5,10.7,11.5,6.9,17.3c-11.6,17.7-23.3,35.4-34.4,53.5c-2.3,4.7-10.1,18.1-8.8,22.6c2.9-5.2,5.8-10.4,8.6-15.6
		c0.3,0.1,0.6,0.2,0.9,0.2c0.4,11.3-3.3,22.1-4,33.6c7.9-12.8,6.3-27.6,7.3-41.8c0.5,0,1,0,1.5,0c4.2,21.3,8,81.8-18.2,89.1
		c-26.6,3.8-67.7-0.5-71.8-33.6c2,1.5,3.3,2.5,5.3,4c-10.3-16.3-23.6-46.3-10-62.6c26.3-33,52.5-67.2,79.8-99.2
		c49.2,13.1,96.1,11.9,138.9-19.2c29.3,83.1,74.4,159.2,122.5,232.6C516.9,921.6,474.5,922.7,462.6,950.7z"/>
	<path class="st0" d="M213.3,315.6c-0.1,7.3-4.7,5.6-8.4,5.3c-22.2-1.5-27.7-28.7-20.5-46.1c4.8-11.7,16.7-11.9,24.6-2.9
		c3.2,3,4.4,8.7,7.9,11.3c5.3-2.6,2.7-26.7,4.2-33.6c1.2-12.4,13.5-19.9,18-31c6.1-25.3,0.7-21.5,22-40.7
		c29.6-4.5,61.6,1.1,91.9-1.3c8.2-1.2,15.7,1.7,23.1,4.3c15.2,5.4,30.2,11.2,45.2,16.8c9,3.3,10.4,3.3,10,13.5
		c0.1,47,2,94.5-9.5,140.5c-10.8,43.2-60.7,63-101.5,62.7c-38.6-2.7-86.7-34.4-101.5-70.7C215.4,334.9,217,324,213.3,315.6z
		 M416.6,272.7c-2.8-51.1-63.4-40.2-59,9.6c-0.4,33.6,48.2,39.5,56.1,7.3C415.3,284.1,415.7,278.3,416.6,272.7z M283.3,230.2
		c-31.3-2.3-45.4,43.3-20.7,66.1c13.7,11.9,34.8,9.9,44.7-5.2C323.2,269.4,311.3,228.6,283.3,230.2z M371.9,347.4
		c-6.1-3.4-103.2-11.1-81.7,8.2C316.3,384.8,352.7,383.3,371.9,347.4z M287,183.2c-9.7,0.6-25.4,7.4-22.6,18.6
		c7.6-2,12.3-9.5,21-8.6C301.9,195.1,303.4,186.6,287,183.2z M393.7,203.2c-2.5,0.3-5.5,0.7-6,3.9c0.3,6.7,10.5,4.3,14.6,7.4
		c5.2,3.1,9.1,8.6,15.6,8.8C419.1,211.1,404.2,204.7,393.7,203.2z M353.6,320.4c-6.9,0.8-13.9,1.6-20.8,1.4c-4.4-0.6-8.4-3-12.8-0.7
		C326,333.7,348.4,333.2,353.6,320.4z M364.2,223.4c-11.3,9.7-21.9,47.6-16,59.1C349.9,261.2,354.2,241.5,364.2,223.4z M192.8,280.2
		c8.7,4.9,14.4,12.5,19.2,21.1C213.1,292.8,203.1,281.9,192.8,280.2z M347.4,312.3c-3-4.8-15.7-5.5-19.1-0.9
		C334.7,311.6,340.9,311.9,347.4,312.3z M341.5,383.3c-7,0-13.7,0-20.4,0C324.7,388.2,336.3,388.3,341.5,383.3z"/>
	<path class="st0" d="M434.6,299.6c0.1-30.2-0.3-60.2-0.4-90.4c1.3-7.5-1.2-10.5-7.9-12.8c-18.1-6.9-36.5-13.4-54.1-21.4
		c-34.9-4.1-70.4-1.9-105.7-3.2c-6.7,1-4.9-19.1-6.4-24c-4.2-48.7,36-83.4,49.3-127.2c7,6.5,12.4,13.7,15.9,22.5
		C324.5,30,324.2,17,318.8,4c50.6,13.2,81.3,65.8,73.3,116.2c0.4,0,0.9,0.1,1.3,0.1c3.6-12,4.9-25,7.9-37.3
		c2.4-12.7,1.2-25.4,0.1-38.2c40,35.7,68.7,97.2,39,147.7c0.3,0.2,0.7,0.4,1,0.6c30.8-40.5,1.9-70.7,19.8-79.9
		c13.2,61,11.4,127.4-19.1,183.1C440.4,299.2,439.9,299.3,434.6,299.6z"/>
	<path class="st0" d="M46.3,291c40.5,13.6,92.7,2.4,111.3-40c14.8,52.5,29.6,106.1,63,150c6.6,9.2,11,19,10,30.6
		c-13.1,84.8-102-16.5-125.6-45.3C81.4,357.2,61.9,325,46.3,291z"/>
	<path class="st0" d="M224.5,613.9c2.2,2.7,3.7,4.6,5.2,6.5c0.3-0.2,0.6-0.3,0.9-0.5c-22.4-39.7-31.3-83.2-35.7-128.1
		c9,1,17.3,0.7,26.2-1.4c1.8,4.9,3.8,9.9,5.6,14.9c15.1,35.1,65.6,36.9,98.5,40.3c1,0.1,2.5,1.3,2.8,2.3c1,6.9,6.8,19.6,5,25.5
		c-8.2,8.8,3.9,17.8,0.5,27.1c-1.7,6.7,4,3.2,5.9,7.4c3.9,7.8,0,16.4,2.9,24.4c2.9,7.2,11.4,43.1,2.4,45.4
		c-31.1,6.6-64.9,12.9-95.8,2.1C228.1,667.1,223.6,636.4,224.5,613.9z M300.6,648c-4-3.7-9.8-4.7-14.2-7.6
		c-4.1-2.4-7.2-2.2-11.5,0.2c-8.2,4.7-17.1,8.3-25.8,12.4c-1.9,0.9-4.4,1.4-3.9,4.3c0.9,5.4,1.7,10.8,3.1,16.1
		c1.8,10.3,19.3-3.1,25.1-4.7C283.6,663.4,292.9,657,300.6,648z"/>
	<path class="st0" d="M135.7,252.4c-30.1,9.5-39.3,2.3-49.6-11c7.6,0,14.5,0,21.5,0c0.1-0.5,0.1-1.1,0.2-1.6
		c-15.5-3.3-31.3-3.3-47.1-5c-9.5-0.4-15-9.9-9.5-17.8c12.7-14.2,30.1-21.5,48.8-23.7c0.9-0.2,2.1-0.8,2.4-1.5
		c2-7.5,7.7-14.9,5.7-22.9c-3.3,4.5-7.7,23.4-13.4,22.1c-2.5-0.3-6.2,0.6-7.3-0.7c-3.6-5-5-11.4-4.3-17.6c0.3-0.1,0.7-0.2,1-0.3
		c2.6,3.3,5.2,6.5,7.8,9.8c0.4-0.3,0.8-0.5,1.3-0.8c-3.3-6.3-6.4-11-11.4-16.5c5.5-1.1,11.1-0.5,15.4-5.6c-6.6,0.6-13.2,5.3-18.4,1
		c-12.1-19.8-29.7-49.1-13.5-71c17.9-18.9,30.5,10.5,36.1,25.1c7.7,18.7,15,37.6,22.2,56.5c9.7,25.2,19.1,50.6,29,75.7
		c0.6,1.8,0.8,4.3,0.1,6c-16.1,33.5-58.1,42.5-92.2,38.4c-1.9-0.1-4.4-1.8-5.4-3.5c-9.7-17.2-19.1-34.6-29-52.7
		c7.6,2.2,13.7,5.2,21,6.6c10.6-1.5,21.3-2,32.1-0.4c5.9,1.8,9.1,8.3,13.5,12.3C102.2,263.2,128.2,262.2,135.7,252.4z"/>
	<path class="st0" d="M267.4,54.2c10,43.3-2.9,33.3-10.1,69.5c-2.3,15.8-2.6,31.6,1.7,47.2c1.8,5.5-12.1,14.8-16,20.4
		c-5.5-9.5-7.4-18.9-8.9-28.4c-0.3,0-0.7,0-1,0c-1.6,9.6,1.5,18.8,5.2,27.6c2.4,7.2-0.7,15.4-1.6,22.8c-1.2,7.5-5.9,12.9-10.9,18.1
		c-13,13.3-8.7,30.6-9.5,47.7c-8.4-20.7-16.1-11.9-20.6-21.5c-27.8-71.1,3.2-128.5,53.5-178.4c-4.9,14.3-10.8,28.1-12.7,43.1
		C247,100.1,253.9,76.3,267.4,54.2z"/>
	<path class="st0" d="M590.5,959.3c-1.4,36.8-17.8,67.5-38.8,96.1c-17.3,23.4-45.4,46.2-76.1,35.6c-11.2-4-19-12.7-13.1-24.8
		c5.2-14.6,14.7-26.9,22.5-40.1c12.9-23.2,18.1-50,32.6-72.6c6-9.8,12.5-19.3,23.1-25.1c12.2-6.6,33-4.3,42.7,5.6
		C589.2,940.2,589.4,952.5,590.5,959.3z M498.1,1017.6c11.1,0.7,22.7-4.4,32.3-10c14.3-6.9,27-33.3,7.2-41.5c-4.8-1.6-22.5-2.3-23,4
		C514.1,987.4,508,1003.4,498.1,1017.6z M498.1,1086.2c6.4,0.2,13.6-1.9,20.3-5.5c13.3-7.1,21.3-19.2,29-31.5
		c4.4-8.8-13.9-11.5-19.5-12.4c-10.1-0.9-37.3-1.7-44.6,4.6C469.6,1060.7,465.6,1088.5,498.1,1086.2z M526.3,953.9
		c31.4-6.1,35.5,37.8,13.5,51.7c-7.1,4.3-15,7.5-22.6,11c-8.6,5.4-24.7,6.1-27.4,17.2c19.9-2.1,40.3-4.3,60.6-0.1
		c6.9,0.4,11.1-7.2,16.4-10.6c-0.2-0.3-0.5-0.6-0.7-0.9c-5,3.4-9.2,9.5-15.9,9c-18-2.1-35.7-4-53.8-2c10-7.1,22.7-9.2,33.8-14.2
		C563.5,1006.3,567.6,943.8,526.3,953.9z M538.3,938.8c-0.2,0.5-0.4,1-0.6,1.5c38.8,15,28.1,71.6-12.3,82.3
		C568,1021,581.8,951.4,538.3,938.8z M547.5,1020.8c0.3,0.3,0.6,0.6,1,0.9c32.3-15.8,41.2-70.8,3.9-85.9c-0.3,0.2-0.5,0.5-0.8,0.7
		C585.6,954.8,576.6,1002.6,547.5,1020.8z M557.2,1020.8c0.2,0.3,0.4,0.6,0.6,0.9c29.2-13.3,40.8-72.8,13-83.9
		c12.5,8.6,12.3,22.7,11.9,35.8C581.6,992.9,572.9,1009.2,557.2,1020.8z"/>
	<path class="st0" d="M430,500.1c14.3,1,21-7.9,26.5-18.5c-0.4-0.4-0.8-0.9-1.2-1.3c-5.5,5.3-9.8,13.5-17.9,14.9
		c-9.5,1.3-19,2.2-29.2,3.3c8.1-14.8,9.8-30.4,6.8-46.9c13.8,4.2,44.7,5.2,52.9,14.5c19.7,28.7,27,64.6,26.4,99
		c0.3,7-19.9,3.9-25,4.7c-9.9-0.9-32.7-2.2-32.9-15.5C437.7,536.1,436.1,518.4,430,500.1z"/>
	<path class="st0" d="M258.3,414.5c3.7,10.1,7.4,20.1,11.1,30.2c0.4-0.1,0.8-0.2,1.2-0.4c-0.6-11.3-5.2-21.6-9.4-32
		c0.3-0.2,0.5-0.4,0.8-0.6c17.5,15.8,31.6,35,49.6,50.1c1.6,1.6,3.2,3.8,3.6,6c3.4,21.1,6.5,42.2,9.8,64.1
		c-32.8-5.9-77.7-10.1-91.6-45.5c-1-2.4-0.4-3.7,1.3-5.2c19.3-16.1,27.2-41.6,22.3-66C257.4,414.8,257.9,414.7,258.3,414.5z"/>
	<path class="st0" d="M337.6,572.3c13.6-45,0.3-16.1,51.8-41.6c-1.7,18,1.5,35.9,2.9,53.8c1.6,11.1-4.6,18.6-11.9,25.6
		c0.3,0.3,0.5,0.6,0.8,1c3.4-2.2,6.8-4.4,11-7.1c1.5,4,2.9,8.2,4.6,12.9c-21.2-4-14.6,0.2-24.8,16c-5.1,5.8,22.3,6.6,25.4,6.5
		c-0.4,19.5-30.6,30.5-46.7,36.4c1.5-13.3,1.2-26.2-3.2-38.9c-4.2-8.8-0.8-18.3-3.8-27.6c-2.1-6,7.7-3.7,5.4-10.3
		c-1.7-7.9-7.8-13.9-7-22.4C342.1,575.4,339.6,574.1,337.6,572.3z"/>
	<path class="st0" d="M459.7,1066.1c-0.8-8.5-5.7-20.8-1.8-28.6c3.8-3.1,9-15.3,14.4-9.4c0.7,0.7,1.7,1.1,3.1,2
		c0.1-1.3,0.5-2.4,0.1-3c-7.2-9.7-15.3,2.8-20.1,8.6c-5.9-26.7,10.2-55,27.2-76c-3.7,15-14.6,42.3,1.6,51.1c0.4-0.2,0.8-0.4,1.2-0.6
		c-2.5-5-7.7-7.8-6.1-14.1c1.4-9.6,3-19.2,4.6-28.7c1-3.1,1.8-7.3,6.3-3.9c6.1-14.1,11-28.5,18-42.2c14.3-33.2,55.6-15.3,71.6,7.3
		c-51.4-30-76.2,43.1-89.8,80.6C481.8,1029.3,466.9,1045.4,459.7,1066.1z"/>
	<path class="st0" d="M274.5,848.6c-1.8,0.4-3.5,0.8-5.8,1.4c1.3-17.5,1.2-35.3-4.5-52.2c-0.8-2.4,0.1-3.8,2.9-5.6
		c0.9,6.2,1.8,11.8,2.6,17.4c1.1,5.1-0.5,11.7,4.1,15.3c-1.7-10.5-2-20.9-4.5-31c-1.8-4.6-0.2-7.8,3.7-11.7
		c4.4,25.3,3.7,50.4,6.3,75.9c2.1,22.8,10.4,47.8-4.8,68c-10.2,14.4-30.8,10.7-45.8,7c-21.2-6.9-27.1-25.8-30.5-45.8
		c4.8,2.2,10.4,1.4,11.7,6.6c5,13.6,3.8,32,20.8,35.8c9.6,3.3,16.8,1.6,21.5-5c5.7-9.5-1-21.2-1.3-31.5c-0.2-1.3,0-3.4,0.8-3.9
		c8.6-5.3,11.5-14,14.1-22.9c1.9-6.4,1.9-14.1,9.4-16.9C274.8,849.2,274.6,848.9,274.5,848.6z"/>
	<path class="st0" d="M489.1,573.5c-3.4,13.3-1.4,35.6-13.8,43.6c-7.5,2.9-17.2,15.8-25,10.3c-6.1-4.2-10.2-9.9-12.4-17
		c-1.5-4.2,4.7-3.3,7-4.9c5.6-2.6,5.7-2.6,9.6,2.5c1.8,2.3,4,4.4,6,6.6c0.5-0.4,0.9-0.7,1.4-1.1c-1.8-2.6-3.6-5.2-5.6-8
		c4.4-0.6,8.3-1.1,12.2-1.5c0-0.5,0-1,0-1.5c-14.5-3.8-28.3,1.1-42.5,3.7c-1.8,0.3-4.9-1.5-5.8-3.1c-4.3-7.8-4.1-12.4,3.2-15.5
		c10.2-4.4,8-15.5,11.8-24.5C451.6,575,470.1,574.5,489.1,573.5z"/>
	<path class="st0" d="M173.8,459c50.4,34.5,80.3-25.5,47.6-64.9c25.6-12.1,37.2,24.9,32.2,44.4c-1.9,34.1-47.7,69.8-74.3,38.7
		C175.6,472,174,466.1,173.8,459z"/>
	<path class="st0" d="M368.6,422c41.8,8.3,30.2,59.8,24.1,90.2c-5.5,9.9-32.7,16.5-44.4,19.7c3.2-22.5,5.2-44.9,4-67.7
		c-0.1-2.7,0.2-4.7,3-5.8C371.5,451.3,373,437.4,368.6,422z M391.4,479c1.1-6.7-1.2-6.9-4.6-11.6c-0.9-6.2-9.2-2.2-13.2-2
		c-18.6,5.6-16.1,32.6-6.4,44.8c8.6,8.4,10.6,7.3,16.6-0.9C390,500.2,391.1,489.7,391.4,479z"/>
	<path class="st0" d="M81,173.2c-2.5,0-3.5,0-4.7,0c2.6,6.4,5.2,12.6,7.7,18.8c-7.4,3.2-14.7,4.9-21.1,9.3
		c-3.6,3.2-7.2,3.4-11.4,1.3c-3.9-1.4-9.7-3-11.1-7.3c-2.2-10.5-3.7-21.1-5.6-31.6c-1.4-13.3,15-18.2,25.3-20.9
		c2.5-0.5,3.8,0.1,5.2,2.4C70.7,154.9,77.9,162.1,81,173.2z"/>
	<path class="st0" d="M30.4,169.8c5,18.8-0.2,32.9,22.9,37.5c-3.8,4.6-9.6,7.4-9.1,14.3c0.4,5.8,0.9,11.5,6.1,15.5
		c-0.2,0.3-0.5,0.7-0.7,1c-12.2-3.5-23.9-8.1-35.6-12.8c-9.4-4.4-6.3-21-8.6-29.8C5.7,182.7,19.2,173.6,30.4,169.8z"/>
	<path class="st0" d="M316.8,456.7c8.8,3.8,17.1,4,25.9,1.5c1.5,33.8-0.9,66.7-8.9,99.3C326.6,524.3,323,490.7,316.8,456.7z"/>
	<path class="st0" d="M247.1,683.7c33.3,10.9,66.7,5,100-2c0.4,3.7,5.2,9.6,0.3,11.8c-9.7,2.8-19.4,5.6-29.6,5.8
		c-20.9,1.1-41.8,1.8-62-4.7C248.5,692.4,248.1,691.9,247.1,683.7z"/>
	<path class="st0" d="M326.8,542.1c-28.7-1.9-56.8-5.8-82.3-19.5c-12-6.4-15.6-19.8-20.1-31.6c-1.5-4.6,3.2-3.7,5.1-5.9
		c12.7,38.6,58.7,44.4,93.5,50.5C326.9,535.9,326.5,538.7,326.8,542.1z"/>
	<path class="st0" d="M404.4,712.7c10.5-2.3,25,26.3,31.5,34.4c6.3,9.9,11.8,20.3,17.3,30.6c2,6.7-4.8,11.2-8.3,17
		c-2.7-5.2-5-9.6-7.5-14.5c4.6-0.4,8.3-0.6,11.9-0.9c0-0.5,0.1-0.9,0.1-1.4c-5.1-1.7-12.9,1.4-15.6-4.2
		C424.1,753.3,413.7,733.3,404.4,712.7z"/>
	<path class="st0" d="M312.8,459.6c-21-18.6-36.3-43.8-60.5-58.6c-4.1-2.6-4.3-4.9-0.6-8c3.5-2.9,27.5,14.7,33.1,17.3
		c17.4,10.7,23.4,30.3,28.9,48.8C313.4,459.2,313.1,459.4,312.8,459.6z"/>
	<path class="st0" d="M341.4,417.6c-5.2,10.7-6.6,16.8-4.8,21.6c1.2-3,2.2-5.5,3.3-8.2c11.1,17.2-14.3,18.9-24.8,13.2
		c-1.4-0.5-2.9-2-3.4-3.4c-3.4-9.5-8.2-18.1-15.8-25c-0.2-0.2-0.2-0.7-0.6-1.9C310.5,419.4,325.6,420.2,341.4,417.6z"/>
	<path class="st0" d="M178.8,774.4c-4.4-9.8-4.8-17.7,2.8-25.2c16-14.6,32.3-31.6,52.2-39.9c-13.7,15.7-27.3,31.5-40.7,47.5
		c-3.8,5.8-7.7-0.9-12.2-2.3c-0.2,0.3-0.4,0.6-0.7,0.8c2.5,2.3,4.9,4.6,7.8,7.3C185,766.5,182,770.3,178.8,774.4z"/>
	<path class="st0" d="M387.3,427.3c32.9-0.1,30.3,63,10.7,78.8C401.3,480.9,410.7,446.5,387.3,427.3z"/>
	<path class="st0" d="M432.1,317.7c0.7-8.4-0.5-19.4,11.7-14.4c10.7,12.5,4.1,48.8-16.7,46.4c3.5-15,1.2-26.8,14.5-37.3
		c-0.2-0.3-0.5-0.6-0.7-0.9C438.1,313.4,435.4,315.3,432.1,317.7z"/>
	<path class="st0" d="M394.3,656.4c-0.4,6.3-1.2,11.4-6.6,15.4c-11,7.8-22.4,15.8-35.6,19.4c-3.1-8.6-2.9-11.6,6.7-13.9
		C372,672.5,383.4,665.2,394.3,656.4z"/>
	<path class="st0" d="M314.6,447.7c12.3,6.4,40.2,2.9,29-16.5c-3.2-5.2-1.1-8.1,2.3-11.9c5.4,5.6,8.5,15.8,5.8,23
		c-4,4.3-6.4,11.7-12.7,12.9C333,456.4,313.9,456.7,314.6,447.7z"/>
	<path class="st0" d="M351,453.7c-0.8,1.7-1.7,3.5-2.6,5.4c-0.6-0.2-1.3-0.5-1.9-0.7c0.7-2,1.1-4.3,2.3-6
		c9.4-10.8,13.4-22.6,14.7-36.9c4.5,13.3,7.3,34.5-9.8,39.7C352.8,455.4,351.7,454.1,351,453.7z"/>
	<path class="st0" d="M398.3,636.2c-8.2-0.6-15.7-1.2-23.7-1.8c3.8-5,5.6-14.4,11.5-15.1C401.2,619.2,396.8,623.9,398.3,636.2z"/>
	<path class="st0" d="M346.5,540.9c-0.3-3.4,0.8-5.2,3.9-5.9c14.5-3.1,27.6-9.3,40.4-16.3c0.5,6.1-0.4,8.1-5.4,10.5
		C373,535,360.1,539.6,346.5,540.9z"/>
	<path class="st0" d="M221.8,910.2c9.6,0,19,0,29.5,0c1.6,13.1-3.8,9.3-13.7,9.9C229.9,919.3,220.6,920.8,221.8,910.2z"/>
	<path class="st0" d="M385.4,42.9c16.3,20.8,13.2,19.1,11.4,44.5c-0.4,0-0.8,0.1-1.3,0.1c-3.8-14.7-9.6-28.8-12.1-43.9
		C384.2,43.4,384.8,43.2,385.4,42.9z"/>
	<path class="st0" d="M286,47.4c4.3,5.6,4.3,7.7,0.9,13c-4.5,5.9-6.7,13.4-12.5,18.3C273.2,67.1,282,58.1,286,47.4z"/>
	<path class="st0" d="M217.7,892.5c9.1,0,17.8-0.4,26.9-0.8c1.9-0.1,2.9,0.2,3.1,2.2c0.2,1.9,0,3.4-2.3,3.5
		c-8.1,0.3-16.3,0.7-24.4,0.9C217.5,898.3,217.6,895.6,217.7,892.5z"/>
	<path class="st0" d="M220,901.4c9.4,0,18.7,0,28.1,0c0.2-0.4,0.5-0.8,0.7-1.1c0.4,2,0.8,4,1.3,6.3c-9.6,0-18.6,0.1-27.7-0.2
		c-1.2,0-2.3-2.2-3.4-3.4C219.4,902.5,219.7,901.9,220,901.4z"/>
	<path class="st0" d="M350.2,461.9c-0.3,23.7-2.3,47.1-6.1,70.3c-0.3,0-0.7,0-1-0.1c3.4-22.1,4.6-44.4,3.8-66.6
		C346.8,463.2,347.5,461.8,350.2,461.9z"/>
	<path class="st0" d="M346.3,601.3c-3.5,0.4-6.1,0.6-9.1,1c0.8-6.4-2.1-14.2,1.9-19.2C343.8,587.7,343.6,595,346.3,601.3z"/>
	<path class="st0" d="M356.6,433.9c-2.3-6-4.4-11.7-6.7-17.8c2.7-0.6,6-1.3,9.7-2.1C360.3,421.2,359,427.8,356.6,433.9z"/>
	<path class="st0" d="M420.6,717.9c-6.7-9.7-15.9-6.2-20.3-13.2c0.3-0.4,0.5-0.8,0.8-1.2C412.3,706.7,416.6,705.5,420.6,717.9z"/>
	<path class="st0" d="M212.5,717.8c-1.4-6.1,12.5-9.9,16.5-13.7c3.1-2,6.2-2.4,9.7,0.4C228.4,706.1,221,711.9,212.5,717.8z"/>
	<path class="st0" d="M228.5,923.3c6.8,0,13.3,0,19.9,0C244.6,929,234.2,929,228.5,923.3z"/>
	<path class="st0" d="M149.5,230c4,3,6.1,6.8,5.7,11.5c-0.4,0.1-0.7,0.3-1.1,0.4C152.5,237.9,151,234,149.5,230z"/>
	<path class="st0" d="M334,583.2c-1.5-5.9,1.7-7.5,5.1-4.8C338.1,580.8,336.2,581.7,334,583.2z"/>
	<path class="st0" d="M50.3,288.2c-5.7-1.4-6.3-2.4-3.9-7.4C47.7,283.4,48.9,285.5,50.3,288.2z"/>
	<path d="M192.8,280.2c10.4,1.7,20.3,12.6,19.2,21.1C207.2,292.7,201.5,285,192.8,280.2z"/>
	<path class="st0" d="M362.7,291.4c24.6,31,58.9-5.4,34-27.8c-11.8-9.5-30.2-3.4-34.7,10.9c-0.3-0.1-0.7-0.2-1-0.3
		c1-31,39.7-43.1,50.2-11.8c6.2,18.2-2.4,48-25.4,46.4c-11.1-0.5-20.1-7.3-23.1-16.7C362.4,291.9,362.6,291.7,362.7,291.4z"/>
	<path class="st0" d="M383.4,300.3c-24.7,0.7-25.1-38.2-0.8-37.8C407.6,262.3,408.3,300.3,383.4,300.3z M396.5,280.7
		c-9.2,5.4-15.1-4.6-5.7-9.4c-10.5-9.7-26.2,4-20.6,16.1C376.7,301.4,396,296.8,396.5,280.7z"/>
	<path class="st0" d="M253.5,264.8c-0.1-8,4.3-17.2,12.5-24.3c32.1-22.9,57.3,24.1,37.6,50.2C283.7,315.1,251,293.8,253.5,264.8z
		 M282.6,296c30.1,0.3,29.9-42.6,4.5-45.1C253.6,247.6,251.3,293.7,282.6,296z"/>
	<path class="st0" d="M367.3,347.4c-5.1,11.5-12.5,19-23.3,22.9c-6.3,0.5-7.6-11.5-22.3-10.7c-24.4-2.1-13.6,9.4-32.5-9
		c0.1-0.5,0.3-1,0.4-1.4c1.7-0.6,3.3-1.6,5-1.6C319,347.3,342.6,347.3,367.3,347.4z"/>
	<path class="st0" d="M337.9,371.5c-7.7,2.7-25.5-1.1-31.5-7.2C314.3,359.4,333.9,363.8,337.9,371.5z"/>
	<path class="st0" d="M334.8,326.9c4.8-1.3,10.1-2.7,15.3-4.1C346.9,326.5,337.9,328.5,334.8,326.9z"/>
	<path class="st0" d="M247.4,657.2c9-3.9,17.8-6.7,25.4-11.2c8.7-6.5,15.4-0.7,23.9,2.4c0.1,0.5,0.3,1,0.4,1.4
		c-13.6,8.3-26.6,17.4-41.5,23.2C248.4,676.3,249.3,660.7,247.4,657.2z"/>
	<path class="st0" d="M517.6,975.7c-0.4-6-0.4-6.3,5.4-6.6c21.3-3.4,27.1,9.5,16.3,26.6c-6.3,8.7-23.7,17.7-34.7,17.8
		c2.8-9.8,20.1-3.3,29.8-16.9c6.6-6.8,7.3-23.7-5.5-22.8C525.3,973.8,521.6,975,517.6,975.7z"/>
	<path class="st0" d="M509.3,1005.7c3.3-8.4,5.8-16.3,7.5-24.9c0.5-2.2,1.3-3.3,3.7-3.2c5.4,0.4,15.7-3.4,15.4,5.3
		c0.4,6.5-2,12.1-7.5,15.4C522.4,1001.1,516,1005.4,509.3,1005.7z M522,997.7c7.6,0.4,10.3-12.6,1.6-12.5
		C516.9,985,514.1,997.3,522,997.7z"/>
	<path class="st0" d="M519.5,1039.2c3.9,1.8,25.9,1.5,25,8.8c-11.4,21-33,41.6-58.9,33.4c-16.8-5.3-6.7-25.9-0.8-36.3
		C489.5,1039.6,509.7,1041.1,519.5,1039.2z M515.2,1042.9c-4.5,0.4-9,1.3-13.4,1.2c-15.5-1.9-28.8,25.3-14.3,33.2
		c19.8,9.2,40-7.6,48-24C536.7,1043,522.2,1043.9,515.2,1042.9z"/>
	<path class="st0" d="M389.1,480.5c-0.5,9.3-1.3,18.6-6.6,26.7c-11.6,17.1-17.4-8.9-19.5-18.3c-1.9-6,2.3-10.5,3.8-15.5
		C374.6,464,391,463.8,389.1,480.5z M388.1,481.2c-0.2,0-0.4-0.1-0.6-0.1c1.3-5.4-4.9-13.5-9.4-12.2c-10.1,2.4-15.3,14.1-12.8,23.8
		c1.2,6.5,3.9,18.6,12.7,17.4C385.9,502.3,386.2,491.4,388.1,481.2z"/>
	<path d="M522,997.7c-7.9-0.5-5-12.7,1.7-12.5C532.4,985.1,529.6,998.2,522,997.7z M519.2,993.7c2.5,3.7,8.6,1.6,8-2.7
		C525.5,985.6,519,987,519.2,993.7z"/>
	<path class="st0" d="M283.1,292.5c-25.2,0.5-26-39.2,0.8-38.7C309.2,254,308.5,293.6,283.1,292.5z M290.4,261
		c-10.6-7.4-26.8,7.3-18.8,19.3c7.1,12.5,28.2,6.1,26.4-8.1C288.2,274,288.2,269.9,290.4,261z"/>
	<path class="st0" d="M519.2,993.7c-0.1-6.7,6.1-8.3,8-2.8C527.9,995.1,521.5,997.3,519.2,993.7z"/>
	<path class="st0" d="M514.5,1045.5c5.7,0.7,17.9-0.3,18.6,7.2c-7,13.7-20.2,25.7-36.6,24.6c-6.4-0.5-15.5-4.7-12.3-12.5
		C491,1044.4,495.5,1047.8,514.5,1045.5z M505,1067.1c9,0,8.7-9.2,0.7-8.2C498.2,1058.5,496.7,1067.4,505,1067.1z"/>
	<path class="st0" d="M375.2,501.8c-1.5-4.2-1-15.6,4.7-14.2C387.7,492,379.7,498.5,375.2,501.8z"/>
	<path class="st0" d="M382.6,475.9c-3.1-0.6-10.3-4.1-10.3,1.2c0.7,5.3-3.2,7.1-6.6,10.6c1-8,10-24.1,17.2-13.3
		C382.8,475,382.7,475.4,382.6,475.9z"/>
	<path class="st0" d="M382.5,499.8c-2.4,2.5-4.9,11.5-9.2,6.9c-3.6-4-5.9-8.5-5.7-14c9.8,3.7-1.2,19.1,14.6,6.5
		C382.2,499.4,382.4,499.6,382.5,499.8z"/>
	<path class="st0" d="M377.5,483.6c-3.7-1-4.7-7.8-0.6-7.3C379.3,478.1,377.4,480.9,377.5,483.6z"/>
	<path class="st0" d="M371.5,492.2c-2.8-3.5-2.7-4.1,0.2-6.5C374.5,488,373.2,488.8,371.5,492.2z"/>
	<path class="st0" d="M384.7,478.5c-0.6,1.7-1.2,3.3-1.7,5c-3.5-1.1-1-3.5-0.4-5.8C383.3,478,384,478.2,384.7,478.5z"/>
	<path class="st0" d="M509.9,1061.3c-2.8,5-6,5.4-9.5,1.1C503.8,1062,506.5,1061.7,509.9,1061.3z"/>
</g>
</svg>
