<?xml version="1.0" encoding="utf-8"?>
<!-- Generator: Adobe Illustrator 26.0.0, SVG Export Plug-In . SVG Version: 6.00 Build 0)  -->
<svg version="1.1" id="Capa_1" xmlns="http://www.w3.org/2000/svg" xmlns:xlink="http://www.w3.org/1999/xlink" x="0px" y="0px"
	 viewBox="0 0 595.3 842.8" style="enable-background:new 0 0 595.3 842.8;" xml:space="preserve">
<style type="text/css">
	.st0{fill:#FFFFFF;}
</style>
<g>
	<path d="M416.4,808.7c-2.7,25.3-31.9,39.6-54.6,28.7c-12.4,7.2-28,7.2-40.4,0c-0.9-0.5-2.2-0.7-3.3-0.4c-9.4,1.9-17.7-0.7-25.3-6.1
		c-8.7-6.8-9.6-18-12.9-27.9c-6.5,0.4-13.3,1.5-19.7-0.8c-0.8-0.3-1.9-0.3-2.6,0.1c-6.2,3.1-12.6,2.6-18.9,0.7
		c-19.2,0.1-25.6,0.3-36.1-18c-53.3,9.1-99.9-44.8-71.2-93.8c2.6-2.9,5.8-2.5,7.8,0.9c3.4,10.4,10.5,15.2,19.8,13.3
		c1.2-0.2,2.6-0.8,3.4-1.6c9.2-10.4,21.1-13.9,34.6-14.5c-3-23.7,11.4-46.8,35.2-51.9c-7.2-12.2-9.3-29.1,1.3-40
		c1.2-1.2,1.6-2.4,1.6-4c-0.4-10.1-0.8-20.2-1-30.4c-0.3-16,1.2-32,2.3-47.9c0.2-2.6,1.1-4.3,3.8-5.1c8.7-2.4,16.8-5.2,25.6-7.5
		c-5.6-8.2-11.6-15.7-17-23.8c-13,4.8-23-10.3-11.9-19.2c11.4-7.4,23.1,7.1,14.2,17.3c6.5,7.7,12.5,15.7,16.9,24.9
		c12.5-2.2,25-4.3,37.6-6.5c-0.9-2.4-2.1-3.9-5-4.2c-7.8-0.7-11.6-8.9-6.8-15.2c3.9-4.7,8.4-8.6,13.5-12.3c-2.4-4.2-4.7-8.3-7-12.4
		c-0.7-1.3-2-1.4-3.3-1.5c-25-2.2-50-4.7-73.6-14c5.9,41.1-22.6,101.4-71.6,87.3c-2.4-0.8-3.8-0.3-5.6,1.3
		c-25.8,23.7-65.5,13-82-16.2c-56.1,19.1-79.5-50.5-53.3-91c-12.8-14.3-14.6-40.1-0.8-54.9c7.5-7.8,16.7-13.8,25.6-19.9
		c6.5-4.6,11-10.7,13.2-18.3c9-36.9,18.5-76.8,57.8-92.2c3.5-1.6,3.6-1.5,2.8-5.1c-6.4-30.3-11.4-61-11.8-92
		c0.8-20.5,15.3-37.7,28.4-52.3c56.3-57.4,166.2-102,244.8-73C389.2,18,401,35.9,412.8,52c1.9,2.7,3.8,5.4,5.5,8.2
		c1.3,2.2,2.9,3,5.4,3.1c11.2,0.3,22.2,2.2,32.9,5.7c27.1,7.8,43.4,27.3,41,56.2c-1.6,12.9-13.9,20.1-23.3,27.5
		c41,8.4,63.1,49.8,71,87.7c1.4,6.1,3.9,11.6,7.6,16.6c25.1,32.2,55.6,67.6,35.9,110.7c-3.9,8.4-10.3,15.6-19.3,18.5
		c-3.5,0.4-4.2,2.6-5.1,5.6c-9.1,39-53.6,72.5-92.5,51.9c-1.7,0.6-1.9,2-1.6,3.4c1.3,5.9,2.6,11.7,4,17.5c0.3,1.5,1.4,2.3,2.8,2.9
		c15.4,6.5,26.9,17.6,35.6,31.5c7.5,3.2,10.8,21.1,10.4,28.6c0.2,4.5-1.1,9.7,1.3,13.7c5.9,8,6.4,16.8,2,25.6
		c-2.6,5.1-3.7,10.6-4.6,16.2c-3,19.9-7.1,39-9.1,59.1c-3.9,1.6-8.1,3.4-12.4,4.9c-1.9,0.7-2.9,1.8-3.4,3.6
		c-6.7,25.3-14.8,50.7-17.5,76.7c10-0.8,13.7,6.4,13.4,15.6c15.3-1.5,30.6,3.2,33.7,19.9c4.5,19.2,0.7,46.8-24,47.4
		c-3.3,0.3-6.6,0.2-9.9,0.1c-8,0.4-16,2.4-24.1,2.4C451.2,812.7,433.8,811.1,416.4,808.7z"/>
	<path class="st0" d="M431.4,433c4.7-3.8,9.5-7.6,14.6-11.7c0.5,3,0.9,5.4,1.3,8.1c-4.3,2.2-9.5,4-9.9,9.8c-0.4,5-1.3,10-2,15.5
		c-10.4,0-20.7,1.3-30.4,6.4c-4.8-5.8-9.8-11.2-14.6-17c-1.3-1.5-2.7-2-4.6-2.1c-27.3-1.6-52.8,5.3-76.2,19.4c-2.2-3.3-3-7.1-4.8-11
		c1.6-0.1,3-0.2,4.3-0.3c0-0.2,0.1-0.4,0.1-0.6c-60.8-10.8-133.8-18.7-130.1-98.4c1.5-10.1,1.5-19.9-1.2-29.8
		c-3.9-14.3-7-29.5-14.5-42.3c3.9,16.2,8.4,32.2,10.8,48.7c0.8,5.4,0.9,10.7,0,16.1c-6.5,34.6,9.2,71.7,41.3,87.7
		c2.6,1.4,3.7,2.9,3.7,5.9c0.1,29.6-9.5,64.1-37.9,78.2c-21.2,10-44.7,1-55.8-19.4c0.6,7.3,6.5,14.8,18.7,23.9
		c-26.7,23.9-67.8,7.3-80.7-23.3c-4.1-8.7-7.7-17-11-26.2c-1.6,9.6,5.4,24.9,9.5,33.8c-48.9,15.4-68.8-49.8-49.1-85.3
		c14.2,11.2,28.3,10.4,42.4,0.3c-35,18.7-63.2-21.4-42.7-51.1c16.3-18.6,39.3-21.1,44.6-49.5c4-16.7,7.3-33.8,15.3-49.1
		c14.9-30.6,57.6-53.3,87.3-29.4c-1.4-3.6-4.2-6.1-7.3-8.4c2.2-1.7,3.7-4,6-5c4.7-0.2,9.3-0.5,14.1-0.7c-3.5,10.7-4.2,21.8-2.2,32.8
		c3.6,21.6,7.6,43.6,17.5,63.4c9.3,20.9,33,15.5,50.7,10.6c22.6-7.2,47.2-10.4,67.5-23.3c13.4-8.3,11.9-25.1,11.7-38.8
		c-1.8-40-23.2-87.5-65.6-96.6c1.6-2.5,3.8-4.3,6.4-5.7c36.6-20.8,77.7-32.7,119.6-36.3c-28.3,17.9-28.6,53.2-19.8,82.1
		c6.2,22.7,15.6,46.8,36.4,59.8c-20.5-5-35.4-18.2-48.8-33.8c2.8,25.1-0.9,57.5-27.3,68.4c-19.4,8.8-41.9,12.7-58.1,27.3
		c-35.7,35.4,12.2,79.8,49.2,86.2c30.1,6.6,61.4,13.5,92.3,8.7c23-3.6,33.6-18.9,47.6-35.1c24-23.4,39-58.3,27.3-91.4
		c-4.4-15.6-17.7-25.1-33.4-27.7c15.4-8,32.7-13,47.1-24.2c52.1,39.6,19,108.1-21,143.2c-12.9,12.2-27.1,23.1-38.9,36.4
		C431,432.5,431.2,432.7,431.4,433z M82,388.6c-4.8,6.4-6.2,14.8-6.1,22.7c3.2,44.6,66.2,29,77.2-3.6c-8.6,8.4-16.2,17.6-27.7,22.2
		c-15.4,7.5-40.8,5.5-44.8-14.4C78.2,406.5,80.4,397.7,82,388.6z"/>
	<path class="st0" d="M318.6,313.2c-1.7,2.8-3.8,5-5.2,7.8c10.1-7.9,20-15.9,31-22.3c0.4,21.7,23,36.2,43.8,34.4
		c5.3-0.3,9.2-2.5,12.2-6.7c7.6-10.5,15.7-33.3,7.5-45c10-0.1,18.5,2,25.5,8.7c-0.4-2.5-0.4-2.5-7.1-8.9c8.3-0.1,16.3-0.1,24.2,1.9
		c21.8,6.6,27.2,33.5,25.2,53.5c-2,20-11.2,38.2-24.9,52.8c0.3-1.7,0.7-3.4,1-5.1c-0.1,0-0.3-0.1-0.4-0.1
		c-26.5,61-83.2,46-135.6,35.4c-22.9-5-46.4-16.3-58.1-37.7c-8-13.9-6.6-32.3,6-42.9C278.9,324.9,300.2,321.7,318.6,313.2z
		 M448.6,314.6c-1,4-1.9,7.9-2.9,11.9c-2,7.9-6.7,13.4-14.2,16.9c-14.6,6.9-29.5,13.1-44.8,18.1c-38.6,12.2-71.2,14.2-99.9-18.5
		c1.6-1.1,3.1-2,4.7-3c-7.3-2.1-21.2,9.2-21.7,17.4c4.8-4.4,9-9.4,14.6-12.7c27.7,28.6,45.7,34.3,84.9,26.3
		c24.4-5.2,47.1-15.8,68.7-28C447,337,448.5,324.6,448.6,314.6z M394.8,350.5c1.5-4.3,0.6-10.8-2-13.6
		C391.9,341.8,392.8,347.8,394.8,350.5z M338.8,324.2c-2.9-0.3-4.1,4.3-1.2,4.9C340.2,328.9,340.2,325.9,338.8,324.2z M333.5,348.1
		c-1.6-2-3.8-1.7-3.9,1.5C329.9,353,334,351.6,333.5,348.1z M320,338.1c3.1,0,3.6-3.7,1.1-4.8c-0.9-0.4-2.3,1.2-2.1,2.5
		C319.1,336.6,319.7,337.5,320,338.1z M430.9,317.9c-2.6,0-3.7,4.5-0.9,4.8C432.4,322.7,432.6,319.3,430.9,317.9z M430.5,304.4
		c-1.7-2.6-3.8-3.2-4.3,0.4C426.4,308.5,429,306.6,430.5,304.4z"/>
	<path class="st0" d="M473.7,441.1c5.5-17.3-11.5-14.9-22.7-12.8c-0.2-3.2-0.5-6.1-0.7-9c-0.1-1.7,1.2-2.4,2.2-3.3
		c42.3-32,90.1-87.7,63.2-143.3c-6.8-12.1-17.5-21.2-27.5-30.7c-15.8-15.5-19.4-57.9-29.7-79.7c3.8-2.2,7.5-4.5,11.3-6.4
		c10.6-0.2,21.2,5.3,29.4,12c23,18.5,34,45.8,39.9,74c1.7,7.3,4.7,13.8,9.1,19.8c19.4,26.5,46.9,53,41.3,88.8
		c-1.5,13.9-8.4,29.8-22.9,34c0.1-7.2,0-13.5-1-20.4c-0.3-2.3-0.3-4.4,0.3-6.6c3.8-13.6,4.1-27.7,0.6-41.4c-0.3,0-0.5,0-0.8,0.1
		c1.5,29.2-6.4,60.4-28.8,80.4c-13.6,11.8-27.5,10.3-41.9,1c24.5,29,58.2-2.2,67.6-29C566.7,411.6,517,460.5,473.7,441.1z"/>
	<path class="st0" d="M415,62.8c-15.7,0.4-30.9,2.9-46.1,7c-10.3-19.3-19.7-39.1-31.8-57.3c-1.4-2.2-3.2-3-5.9-3
		c-47.7,1.6-97.4,14-135.8,43.4c5.9,32.6,14.3,64.6,24.7,96.4c-25.7,19.1-55.6,40.7-63.8,73.4c-0.6,5.1-9,10.4-11.3,4.2
		c-12.4-39.9-18.8-81.2-24-122.5c-0.9-7-0.9-7,3.8-12.3c55.9-59.6,157.6-102.6,238.7-80.4C385.9,19.1,402.7,43.8,415,62.8z"/>
	<path class="st0" d="M318.4,511.3c-3.7-8.3-7.3-16.3-14.3-22.5c17-20.7,46.8-27.4,72.4-29.8c4-0.6,6.8,0.8,9.3,4.1
		c15.4,21.2,31.6,42,46.9,63.3c-1,2.6-2,4.8-2.9,7.1c-0.5,1.3-1.5,1.3-2.5,1.6c-7.1,1.6-14.3,3.1-21.3,5c-14,3.8-27.9,7.8-41.8,11.6
		c-2.6,0.7-4.4,2.1-5.7,4.4c-4.6,8.3-9.5,16.1-13.7,24.6c-8.5-3.7-17.1-6.4-26.7-6.4c0.9-21.3,5.7-42.5,14.4-62
		c1.1-2.8,3-4.1,5.9-4.8c17.6-4.2,35-8,52.6-12.6C379.2,493.1,336.1,503.2,318.4,511.3z"/>
	<path class="st0" d="M269.2,158.4c30.3-34.3,68.9-63.2,114.7-72c33.5-5.5,75.3-6.2,100.5,20c5,6.8,13.2,16.6,7.3,24.9
		c-8.7,12.2-21.4,21.4-34.8,28c-4.1-7.7-9.1-14.8-14.9-21.6c1.4,0.6,2.8,1.1,4.5,1.8c-4.9-10.7-36.2-14-47.2-13.3
		C354.3,127.3,309,136.8,269.2,158.4z"/>
	<path class="st0" d="M200.3,217.5c-0.9,6.5,2.9,7.4,5.8,1.8c6.7-10.3,19.1-16,31-17.5c7.3-0.4,4.4-9.9-0.3-12.1
		c3.5-3.6,6.8-7.1,10.4-10.5c6.4-1.9,14.4,1.3,19.9,4.7c32.1,20.8,46.9,59.4,48.1,96.4c0,9.6-0.8,20.5-9.7,26.3
		c-23,14.6-51.3,18.1-77.2,25c-12.4,2.6-27.7,4.3-34.8-8.8c-12-22.3-15.8-48.1-19.5-72.9c-0.6-6.6-1.3-23.7,6.7-25.8
		C187.4,222.2,193.7,219.7,200.3,217.5z M217,329.1c10.8-6.4,22-10.1,34.2-12.1c18.1-4.5,46.4-4.4,51.3-26.9
		c7.3-33.7-20-66.1-55-60.7c-16.2,1.5-31.9,10.4-39.4,25.2c-2.8,6.2-13.6,1.5-17.8-1.2c-0.2,7.9,3.8,13.1,9.8,17.3
		c-4,3.8-8.6,4.2-13.6,3.9c2.1,7,7.3,9.6,13.8,11c-2.9,3.9-6.7,3.8-10.4,4c1.5,5.3,5.2,7.8,14.3,9.5c3.1,9.8,8.5,18.5,15.6,26.1
		C218.8,326.6,217.9,327.7,217,329.1z"/>
	<path class="st0" d="M465,201.1c-2.4,1.4-4,3.9-7.3,4c2.1-6.2,3.2-12.4,0.2-19c-2.9,4.4-4.4,8.9-10.2,10.2c1.4-6.7,2.1-13-2.1-19.3
		c-1.6,3.9-2.1,7.7-5,10.9c-2,2.3-2.2,2.4-5.1,1.2c-18-7.7-39.3-2.4-52.2,12.3c-0.5-6.3,1.1-11.9,1.1-17.6
		c-11.9,26.2-4.3,104.5,38.8,86.9c4.1-1.9,8-4,11.9-6.2c9.5-5.9,20.4-8.5,30.6-11.7c-1.7-0.1-3.3-0.2-5-0.3
		c3-11.3,3.7-22.4,0.3-33.6c-0.3-0.9-0.4-2.3,0.1-2.9c2.8-3.4,3.8-7.5,4.6-11.8c5.3,16.3,7.7,35.8,23.3,45.8
		c-6.5,4.8-13.1,7.5-20.1,11.2c-17.9,8-35.7,19.4-56.1,15.6c-39.5-6.2-50.5-53.7-54.8-87.4c-5.7-33,22.2-67.9,57.1-56.4
		C450.8,143.2,457.5,168.5,465,201.1z M404.4,146.9c-5.3-0.2-23.9,3.9-21.6,11.7c3.1,11.2,12.6-4.3,29.5-1.4
		c3.4,0.4,6.8,0.8,10.2,1.2c9.2,1.4,6-3.6,0.6-6.7C417.5,148.5,411.2,147.3,404.4,146.9z"/>
	<path class="st0" d="M346.3,580.9c4.2-8.3,9.6-15.6,14.6-23.5c1.1-1.7,2.5-2.6,4.5-3.1c21.4-5,42.6-11.3,64.3-15.3
		c1.1,2.9,2,6.1,4.4,8c3.3,2.1,3.5,5,3.4,8.5c-0.1,5.9-0.2,12,1,17.9c1.5,0.4,2.7,0.8,4.1,1.1c1,15,0.3,29.9-2.4,45
		c-14.3,2.9-28.7,5.1-43,7.9c-2.4,0.5-3.6-0.3-4.8-2.2C380.4,607.2,365.2,591.5,346.3,580.9z"/>
	<path class="st0" d="M230.2,132.8c-8-23.7-15.3-47.1-20.5-71.5c-3.8-7.8,32.1-21.8,38.5-24.6c25.1-9.6,51.5-15.7,78.4-16.1
		c2.3-0.2,3.7,0.7,4.8,2.7c9.1,16.5,18.8,32.5,26.5,49.7c-16.4,5.9-32.2,12.8-47.2,21.8C284.9,109.4,257,120,230.2,132.8z
		 M329.4,45.3c1.6-3.7,6.2-12.3-1.3-10.7c-8.5,1-24.4,7.6-31.4,4.2c-2.9-0.6-4.8-0.2-6.3-3.4c-2.8-5.3-8.7-7-13.9-4.1
		c-3.8,2.1-6,6.5-5.6,11c0.1,0.9,0.3,2.2-0.1,2.6c-2.9,2.6-4.9,6.1-9.2,7.3c-8.8,2.5-17.5,5.6-26.2,8.5c-7.7,2.7,1.2,8.1,4.6,10.8
		c0.8,7.3,5.7,5.5,8.6,9.4c3,5.8,9.4,4.6,14.6,3.1c3.1,2,1.3,4.4,0.9,7.2c-1.5,8.9,9.3,15.3,16,9c1.8-1.6,3.5-1.8,5.7-1.6
		c20,2.1,23-12.1,29.7-10.8c13.7,2.8,17-14.7,5.7-20.3c5.6-3.1,10.4-4.5,7.1-11.8C331.4,52.3,331.9,48.7,329.4,45.3z"/>
	<path class="st0" d="M224,739.2c-1.5,1.7-3.1,3.7-5.4,4c-19.4,1.3-26,20.7-18.6,36.9c-46.4,8.8-88-38.6-68.4-82.9
		c0.6-1.7,1.5-3.4,3.4-4.4c1.8,1,2.1,2.9,2.8,4.4c3.4,8.4,11.3,12.3,20.2,11.3c-1.4,3.4-2.6,6.3-3.8,9.3c0.2,0.2,0.5,0.3,0.7,0.5
		c8.4-15.7,24.7-25.9,42.9-24.4C202,711.4,213.7,724.6,224,739.2z"/>
	<path class="st0" d="M403.9,686.3c-25.2-18-62.2-20.4-91.4-12.6c-2.6-23.1-0.1-46.5-1.9-69.6c-1.9,5.5-1.6,11.3-2.7,17.7
		c-3.2-5.8-3.8-11.9-2.4-18.3c3.3-15.1,21.3-11.9,31.5-6.4c33.1,18.6,55.4,53.4,67.7,88.6C404.4,686,404.1,686.2,403.9,686.3z"/>
	<path class="st0" d="M293.7,722.2c-12.9,3-24.4-3-36.5-6c-14.8-4.7-33.4-16.1-46.9-2.8c-35.7-51.2,32.6-106.3,63.9-43.4
		C281.8,687,287.7,704.6,293.7,722.2z"/>
	<path class="st0" d="M493,114.9c-12.9-26.2-43.3-33.9-70.2-35.4c-49.8-3-92.1,14.8-128.8,47.3c-16.2,14.4-31.1,30.2-46.6,45.4
		c-25.7,26.7-49.1,52-89,52.7c0.7-3.4,1.8-11.9,6-11.6c42.8-3.3,70.1-40.5,96.4-70.2C303,95.3,368,64.1,432.2,68.9
		c26.9,2.7,59.3,14.7,61.2,45.8C493.3,114.8,493.2,114.9,493,114.9z"/>
	<path class="st0" d="M280.1,799.9c-7.7,1.3-16.5,2-22.3-3.4c-24.8-32.4-5.2-69.7,34.6-47.4c-6.7-8.7-19-10.6-29.3-8.7
		c-2.6,0.5-4.4,0.3-6.7-1.3c-9.1-6.4-19.8-6.5-29.8-1.7c-3.7-3.4-13.3-17.1-15.7-22.3c9.1-10.3,24.2-3.9,34.8,0.4
		c15.4,5.9,32,12,48.7,8.2c4.2,12,8.3,24,12.6,36.4C286.6,763.4,279.2,780.9,280.1,799.9z"/>
	<path class="st0" d="M421.8,760.9c13.9-2.8,27.7-5.6,41.5-8.4c0.1,0.2,0.2,0.5,0.3,0.7c-5.9,2.8-12,5.4-17.2,9.5
		c30.1-11.8,81.2-36.6,77.4,18.5c-8,0.9-15.8,2-23.7,1.5c-0.6-3.6-0.9-6.9-1.7-10.2c-1.9-8-8.4-14.2-16.8-14.2
		c9.7,3.4,14.8,10,14.6,20.8c-23.9,2-45.7-0.9-48.9,28.8c-10.1-0.4-20-1.3-30-3c0.4-9.2,0.6-18.2-1.4-27.3c-0.4-1.8-0.1-3.1,1.1-4.5
		C420.1,769.9,421.5,765.8,421.8,760.9z"/>
	<path class="st0" d="M459.1,543.1c2.8-4.4,2.9-4.8,2.6-11c1.7-0.4,3.4-0.9,5.1-1.4c7.4,11.7,17.1,19.9,30,24.9
		c3.6,1.5,7.3,1.9,11,1.3c3.2-0.3,9.5-9.8,11.9-12.8c-0.6,23.1-9.5,43.8-21.5,62.9c-0.9,1.4-2,2.2-3.6,2.5
		c-11.8,1.9-23.5,5.3-35.4,6.3c1.8-13.9,2.4-27.8,1-42.1c4-1.6,8.1-2.7,11.3-5.9C468.3,559.1,464.4,550.8,459.1,543.1z"/>
	<path class="st0" d="M494.2,649.9c-4.4,14.7-8.7,28.8-13,43.1c-30,0.7-47.7,35.6-69.3,35.3c-1.4-1.6-0.5-3.3,0.1-4.9
		c8.9-24.1,26.2-44.4,44.8-61.7c3.4-2.1,7.7-2.7,11.7-3.9C477.1,655.2,485.4,652.3,494.2,649.9z"/>
	<path class="st0" d="M117.4,101.7c2,43.3,9.8,85,25.4,125.8c-10-1.6-18.9-1.3-28.8,0.8c-6.2-29.8-10.5-60-11-90.5
		C102.2,124.2,109.9,112.3,117.4,101.7z"/>
	<path class="st0" d="M322,692.8c-56.3-41.1-42.6-128.2-5-177.8c2.1-3.3,10.3-4,14.2-5.4c-11.9,19.9-15.7,41.7-15.4,64.4
		c-31.1,3.7-29.9,43.4-12.3,61.7c2.6,3,3.4,6,3.4,9.8c-0.1,8.2,0.5,16.5,0.4,24.7c0,5,2.3,7.9,6.6,9.7c9.8,3.7,5.9,1.4,8.6,12.4
		C322.4,692.5,322.2,692.7,322,692.8z"/>
	<path class="st0" d="M330.9,712.4c-3.2-13.1-6.3-25.6-9.5-38.4c26.5-1.5,54.7,0.4,78.8,12.3c2.3,1.2,3.4,2.7,3.5,5.5
		c0.5,9.4,1.7,18.3,2.3,27.8c-13.6,1.9-23.8-7.9-33.9-15.2C358.2,694.1,339.1,695.9,330.9,712.4z"/>
	<path class="st0" d="M163.1,211c25.2-41.5,70.5-66.7,111.4-89.7c-34,32.8-59.5,84.1-110.9,90.5C163.4,211.5,163.2,211.2,163.1,211z
		"/>
	<path class="st0" d="M466.4,444.6c1.3,7.1,3,13.6,5.3,20.3c0.6,2.1,1.9,3.3,3.9,4.1c12.5,5.5,22.9,13.8,30.6,25.2
		c-4.4-1.2-7.7-2.7-12.2-1.8c-8.7,1.2-17.1,3.6-24.3,8.9c4,13.1-4.9,9.7-5,16.5c0.2,3,0.5,6,0.8,9.5c-1.7,0.3-3.5,0.6-4.9,0.9
		c-2.9-2.9-7.3-4.2-7.8-8.3c-1.7-22.5-3.1-45.1-1.4-67.7c0.2-2.7,1-4.3,3.8-5C458.7,446.3,462.4,445,466.4,444.6z M453.1,482.5
		c7.6-0.9,14-3,19.7-7.2C467.9,475.4,456.1,479.8,453.1,482.5z"/>
	<path class="st0" d="M406.4,721.9c0.6,6.1,1.3,12.3,2,18.8c-24.6-7.5-49-7.9-74-2c-1.5-6.7-1.8-13.8-3-20.6c-0.2-1.6,0-2.9,0.8-4.3
		c6.2-12,20.4-16.4,32.3-9.9C381.7,713.4,385,722.1,406.4,721.9z"/>
	<path class="st0" d="M359.8,795.7c19.1-4.9,37-3.6,53.5,7.2c-1.4,25.5-22.1,37.2-44.4,33c-2.9-0.8-4.9-2.4-6-5.4
		C358.8,819.4,358.2,807.8,359.8,795.7z"/>
	<path class="st0" d="M306.8,635.9c-23.4-25.5-13.3-69.2,27.2-54.9c32.6,11.5,54.4,41.6,69.8,71.2c4,8.7,10.5,25.2,2.9,33.3
		c-12.7-38.9-36.2-80.4-76.5-95.2c-9.7-3.2-23.1-1.8-26.6,9.4C297.4,615.9,310.1,621.1,306.8,635.9z"/>
	<path class="st0" d="M442.5,256.6c8-33.4-34-57.2-58.4-32.9c-1.5-2.3-0.8-4.7-1.3-6.9c-1-3.9,0.4-6.9,3.4-9.7
		c19.4-18.9,53.9-15.7,65.5,9.2c5.6,10.8,8,23.2,5.8,35.2c-0.2,0.7-0.8,1.6-1.4,1.7C451.6,254.4,447.2,255.5,442.5,256.6z"/>
	<path class="st0" d="M314,795.4c-1-15.6,5.5-37.6,22.5-41.7c11.9-2.4,26.6-0.6,32.9,11.5c-9.1,7.4-11.1,18.3-13.4,29.4
		C341.8,791.3,327.9,790.8,314,795.4z"/>
	<path class="st0" d="M355.6,797.6c-1.1,12.3-0.6,24.2,4,36c-10.3,7.2-23.2,6.4-34.3,1.5c-9.8-5.3-10.7-26.2-11.7-36.3
		C327.6,793.9,341.4,794.6,355.6,797.6z"/>
	<path class="st0" d="M440.7,522.1c-2.1,1.1-3.9,1.9-6,3c-14.5-22.3-29.5-44.2-45.9-65.1c-4.2-5.4-4.3-5.5-11.2-5.3
		c-26.6,1.5-60.7,11-76.5,33.9c-13.9-3.7-3.3-14.5,3.7-19.1c22.8-16.2,50.5-23.7,78.3-23c2.2,0,4.1,0.5,5.6,2.3
		C408.6,471.2,425.7,496,440.7,522.1z"/>
	<path class="st0" d="M364.9,70.8c-1.3,0.4-2.3,0.8-3.7,1.2c-8.5-16.6-16.7-33.3-26.5-49.2c-3.3-5.5-1.8-5.5-9.7-5.4
		c-41.9,2.1-85.3,13.7-119.3,39c5.2,27.4,13.6,53.9,22.7,80.6c12.3-5.7,24.2-11.3,36.2-16.9c0.1,0.2,0.2,0.3,0.3,0.5
		c-13.7,8.6-27.4,17.3-41.4,26.1c-10.1-29-17.3-58.9-23.4-89c-0.6-2.4,0-3.8,2-5.3c37.2-25.9,82.8-37.2,127.6-39.1
		c2.4-0.2,4,0.7,5.2,2.7C345.8,33.9,356.3,51.9,364.9,70.8z"/>
	<path class="st0" d="M413.8,799.9c-16.9-10.6-34.5-12.4-53-8c-0.4-6.2,2.4-12.7,5.2-18.3c6.5-12.1,21.4-10.9,32.8-9.6
		c-5.2-3.9-20.1-3.6-27,0c-2.9-3.3-5.7-6.4-8.9-10c15.3,1.5,47.2,4.6,49.9,23.6C413.1,785.2,414.6,792.1,413.8,799.9z"/>
	<path class="st0" d="M480.8,694.7c-2.3,11.5-4.5,22.3-6.8,33.6c-20.1,4.1-40.2,9.5-59.8,16.5c-1.2-2-2.3-8.6-2.3-14.1
		c11.5-0.9,19.7-6.2,28.5-13.3C453.1,708.4,464.9,697,480.8,694.7z"/>
	<path class="st0" d="M255.1,799.3c-8.2,1.9-16.4,1.7-22.1-5.4c-9-10.8-14.5-24.1-13.4-38.3c0.4-18.3,24.5-24.2,36.8-13.5
		C235.1,755.1,242.8,782.4,255.1,799.3z"/>
	<path class="st0" d="M237.8,593.1c-0.2-25.5,0.9-50.1,2.6-75.4c0.1-2.6,1.3-3.9,3.7-4.8c20.4-7.1,41.6-12.2,63-15.7
		c1.2,2.2,2.3,4.3,3.5,6.6c-7.6,2.5-15.3,3.7-23,5.9c-1.5,0.4-2.7,0.2-4.1-0.2c-4.6-1.6-9.2-1.5-13.9,0c-19,9.8-26.3,32.4-16.3,47.5
		c0.7,1.1,0.7,2.1,0.2,3.3c-3.5,9.7-7,19.5-10.5,29.2C242.3,591.7,240.1,591.7,237.8,593.1z"/>
	<path class="st0" d="M412.5,678.8c0.6-18.5-8.2-34.2-17.3-49.6c14.8-1.9,29.2-3.7,44.1-5.7c-3.1,17.6-8.8,34.3-16.5,50.4
		C421,678.3,416.3,677.5,412.5,678.8z"/>
	<path class="st0" d="M413,770.7c-12-20.7-38.4-19.4-59.1-19.5c-5.6-1.1-11.2-1.6-16.8-0.6c-14.6,2.4-14.4,13-20.2,9.5
		c1-28.6,69-23.3,87.5-15.9C415,747.3,422.3,762.7,413,770.7z"/>
	<path class="st0" d="M519.4,583.6c-3.6,17.7-7.5,35.4-9.7,53.4c-0.3,2.1-1.2,3.1-3,3.7c-13,4.7-26.3,8.9-39.6,12.8
		c-1,0.3-2,0.5-3.3,0.2c21.1-21.3,39.4-45,55.1-70.5C519.1,583.4,519.2,583.5,519.4,583.6z"/>
	<path class="st0" d="M408.5,226.5c-9.6,0.4-16.2,5.1-21.4,13.2c-0.9-3.6-1.9-7.2-2.5-10.9c6.6-12.4,25.1-15.2,37.4-9.3
		c13.5,6.4,20.9,21.3,17.7,35.8c-0.5,2.1-1.3,3.6-3.5,4.4c-2.8,1.1-5.5,2.6-8.7,3.8c5.3-9.1,5.9-18.1-0.1-27.5
		C420.8,248.8,403.1,242.6,408.5,226.5z"/>
	<path class="st0" d="M496.1,781.6c0.5,10.4-2.3,26.2-15.1,26.8c-10.6,0.6-20.3,0.5-31.2-0.2C452.4,781.8,475.4,783.9,496.1,781.6z"
		/>
	<path class="st0" d="M263.9,514.5c7.8-4.4,16.8-4.1,23.6,1.9c4.3,3.9,14.5,15.2,11.3,21.2c-5.9,9.8-10.5,20.2-13.8,31.2
		c-0.8,2.7-0.9,2.7-3.7,2.7c-4.7,0-9-1.6-13.1-4.4c12.9-8.5,15.7-26.5,9.1-39.8C274.1,521.4,269.8,518.3,263.9,514.5z"/>
	<path class="st0" d="M421.9,757.8c-1.4-3.2-2.7-6.1-4-9.3c20.7-7.3,41.8-14,63.5-17.7c7.3-0.7,10.4,6,9.4,13
		c-6.9,0.9-13.2,4.6-20.6,4.8C453.6,748.7,437.6,752.5,421.9,757.8z"/>
	<path class="st0" d="M458.2,620.2c12.4-3,24.3-5.9,36.6-8.9c-5.2,9.3-12.9,16.7-20.1,24.5c-11.3,11.4-21.7,24-33.6,34.7
		C449.4,654.5,454.9,637.8,458.2,620.2z"/>
	<path class="st0" d="M318.5,763.4c-6.2,10.3-8.4,21.4-8.7,33.3c-9.3-1.4-17.8-0.3-25.4,5.2c-1.7-7.2-0.3-13.5,1.4-20.2
		C289.5,767.4,304.5,760.1,318.5,763.4z"/>
	<path class="st0" d="M300.1,709.7c-3.6-3.3-8.1-5.2-9.3-10c-4.6-12.6-8.5-24.9-14.6-37c2.8-3.8,5.7-7.8,9-12.4
		c6.2,16.7,15.3,30.3,29.8,40.7C310.1,697.3,305.2,703.3,300.1,709.7z M282.8,663.4c-0.2,0.2-0.4,0.3-0.6,0.5
		c5.1,9.7,11.4,18.7,18.7,26.8c3.8,3.3,1.3,6.2-0.7,9.8c4.5-2.1,5.7-7.6,1.8-11.7C295.4,680.6,289.2,671.9,282.8,663.4z"/>
	<path class="st0" d="M448.5,446c-3.7,25.4-2.5,50.3,1.6,75.3c-2.3,0.4-3.4,0.2-5.8,0.2c-4.6-26.9-6.2-54.4-2.4-81.5
		c0.2-2.2,1.4-3.4,3.1-4.3c4.8-2.9,28.8-9.7,25.6,1.8c-0.8,3.6-2,4.5-5.7,4.9C459.1,442.9,454,444.2,448.5,446z"/>
	<path class="st0" d="M407.3,463.7c9.2-3,18.4-4.7,28.3-5.7c-0.5,19.6,1.5,38.7,4.5,57.9C429.7,497.8,419.2,481.1,407.3,463.7z"/>
	<path class="st0" d="M316.8,833.1c-10.9,1.8-23.7-3-27.9-14c-1.5-3.8-2.7-7.8-4-11.6c-1.9-4.3,6.9-5.8,9.7-7.1
		c4.8-1.4,9.7-1.5,15.1-1.1C310.7,811,312.7,822.2,316.8,833.1z"/>
	<path class="st0" d="M231.3,798.8c-7.7,0.2-14.9-0.9-19.9-7.5c-13.5-16-17.7-41.5,6.8-45.7C212.1,766,218.7,783,231.3,798.8z"/>
	<path class="st0" d="M294.5,709.6c11.1,7,19.9,15.1,31.4,21c4.1,1.7,2.6,6.7,3.4,10.1c-12.8,9.3-13,9.5-14.5,18.8
		c-3.6,1-3.9,0.9-4.9-2.2C304.9,741.4,299.2,725.8,294.5,709.6z"/>
	<path class="st0" d="M467.9,566.1c-4.9,3.7-15,5.4-21.7,3.7c-0.2-8.3,0.1-16.3,0.8-24.6c-1.7-1-3.5-1.9-5.1-3
		c-6.2-4-5.7-14.5,1.6-16.7c10.5-3.6,21.3,6.8,13.6,17.5C461.8,550,465.3,557.9,467.9,566.1z M449,529.5c-9.4,1.2-4.3,11.3,2.8,7.5
		C455.9,533.7,452.3,530.7,449,529.5z"/>
	<path class="st0" d="M349.7,248.5c8.8,11,18.9,20.3,32.5,26.8c-11.1,3-21.4,6.4-30.5,13.6c-3.4,2.6-7.3,4.5-11.2,6.5
		C348.7,280.8,350.3,265,349.7,248.5z"/>
	<path class="st0" d="M253.6,549.2c7.8-2.4,7.9-16.4-0.3-18.5c1.7-5.8,5-10.5,9.8-14.4c17.3,6.6,19.9,36.1,4.6,46
		C262.3,564.6,254.9,553.7,253.6,549.2z M260.2,550.9c-2.9,1.9,2.2,6.5,4.4,7C272.1,558.3,264.2,549.5,260.2,550.9L260.2,550.9z
		 M260.5,531.1c3.5,0.6,11-7.4,4.7-7.8C262.6,523.8,257.7,528.7,260.5,531.1z M262.2,540.9c2.5,2.8,8.7,4.3,10,0.3
		C271.1,537.2,265.1,538.2,262.2,540.9z"/>
	<path class="st0" d="M250.7,638.7c-18.2-3.1-15.3,2.1-21-12.7c7.8-1.1,7.8-15,1-17.1c0.9-4.5,10.3-16.9,14.8-12.1
		C255.7,608.2,257,625,250.7,638.7z M237.4,631.9c1.3,1.1,2.6,2.4,4,3.2c2,0.8,3.5-1,2.6-2.9c-1.3-2.6-4.6-5.2-7.6-3.8
		C236.9,629.6,237.3,630.7,237.4,631.9z M238.1,608c2.4,2.5,8.9-3.2,7.2-5.9C241.8,599.8,237.6,604.3,238.1,608z M240,617.9
		c1.8,2.6,5.9,3.9,8.5,2.7C253.6,617,243.7,614,240,617.9z"/>
	<path class="st0" d="M474.8,516.9c4.6-3,6.7-7.3,5.4-13.1c7.7-4,15.8-6,24-8c1.6,2.6,2.9,5.5,6.4,5.3c2.1,0,3.2,1,4,2.8
		c7.2,16.1,6.9,34.9-4.6,49c-1.7,2.3-1.9,2.3-4.7,0.8C490.9,546,477.6,533.4,474.8,516.9z M481.1,519.5
		c2.5,13.8,15.5,27.6,26.5,28.6c10.7-12.7,10.4-27.6,4-42c-0.3-0.7-1.3-1.4-2.1-1.5c-2.3-0.3-4.3-1.1-5.9-2.8
		c-2.5-2.1-15.3,3-18.7,4.4C486.3,511.4,486,516.1,481.1,519.5z"/>
	<path class="st0" d="M445.8,574.9c1.6-0.4,2-0.3,3.7-0.1c4.5,39.6-6.6,79.8-27.5,113.4c-2,3.2-4.4,4.2-8.2,4.2
		C437.9,656.8,447.2,617.4,445.8,574.9z"/>
	<path class="st0" d="M452.8,574.7c1.4-0.2,2.6-0.3,4.1-0.5c3.8,39.5-4.6,83.1-30.3,114c-0.9,1.2-1.8,2.1-4,2
		C445.8,655.1,456.1,616.9,452.8,574.7z"/>
	<path class="st0" d="M258.3,612.5c7.6,2.5,12.9,3.6,20.7,3.9c-0.1,1.2,0.1,2.5-0.4,3.6c-5,9.2-8.9,19.4-14.6,28.1
		c-2.9-2.1-5.9-4.3-9.1-6.6C259,632.1,260.1,622.5,258.3,612.5z"/>
	<path class="st0" d="M492.9,807.4c5.3-6.8,6-14.4,7-22.5c7.8,1.6,15.4,0.5,23.2-0.6C524.4,801.7,507.9,809.2,492.9,807.4z"/>
	<path class="st0" d="M316.8,692.5c5.8,2.5,6.9,3.3,7.7,9.7c1.1,8.3,2.9,16.4,3.4,24.7c-8.9-4.2-16.7-9.6-25.1-14.6
		C307.5,705.6,312.1,699.1,316.8,692.5z"/>
	<path class="st0" d="M249.9,583.5c5.8,11.6,16.3,18.1,29,17.8c0,4.3,0,8.3,0,12.7c-9.1,0-19.9-2.8-24.2-11.6c-1-4-8.6-9.3-7.1-12.3
		C248.4,588.2,249,586.3,249.9,583.5z"/>
	<path class="st0" d="M254.1,572c8.9,12.1,12.3,14.2,26.4,16.3c-0.4,3.7-0.8,7.5-1.2,11.4c-9.3-1.1-16.8-4.9-23-11.3
		C250.2,582.3,249.7,579.6,254.1,572z"/>
	<path class="st0" d="M356.9,304.1c-0.6-1.6,0.2-2.7,1-3.6c8.2-9.7,20.5-15,33-16.1c3.3-0.2,9.5,0.1,9.4,4.3c0,1.7-1,3-3.3,3.6
		c-12.2,2.5-24.9,3.3-35.6,10.3C360,303.3,358.8,304.5,356.9,304.1z"/>
	<path class="st0" d="M312.8,508.2c1,2,1.9,3.7,2.7,5.5c-4.7,6.3-9.3,12.5-14,18.8c-2.8-7.9-6.6-14.3-12.3-20.7
		C296.9,510.6,304.6,509.4,312.8,508.2z"/>
	<path class="st0" d="M283.3,574.2c-0.9,4.2-1.7,8-2.6,12.3c-10.4-1.3-18.7-7.6-24.9-15.8c-2.3-3,0.4-5.6,1.2-9.1
		c3.4,3.5,7.8,4.7,10.9,8.2C271.8,574.6,277.5,575,283.3,574.2z"/>
	<path class="st0" d="M474,502.6c7.9-5.5,22.5-9.5,28.5-7.5c-8.9,2-17.4,3.2-25,7.8c1.2,4.7,1.4,9.4-2.9,12.5
		c-4,4.5,2.1,16.1,5.1,20.4c5.6,7.8,13.1,13.5,21.7,17.6c0.9,0.4,1.8,0.9,2.5,2c-16.8-5-33.3-18.9-36.9-36.7
		C465.6,513,476.4,514.8,474,502.6z"/>
	<path class="st0" d="M268.2,652.2c3.9-8.6,7.6-17,11.6-26c3.6,25.5,9,14.4-5.6,33.6C272.1,657.2,270,654.5,268.2,652.2z"/>
	<path class="st0" d="M248.6,473.6c-1.3-0.9-2.7-1.9-4-2.9c-0.1,0.1-0.3,0.3-0.4,0.4c0.6,1.3,1.2,2.7,1.9,4
		c-8.9,4.9-16.4-8.8-8.2-14.4C246,454.5,256.7,466.3,248.6,473.6z"/>
	<path class="st0" d="M422,694c-4,7.2-7.9,14.1-11.7,20.9c-1.1-1.9-3-14.6-2.8-18.8C412.2,695.4,417,694.7,422,694z"/>
	<path class="st0" d="M523.7,545c8,11.4-1.3,24.4-7.1,34.7C519.9,568.4,522.5,556.9,523.7,545z"/>
	<path class="st0" d="M441.5,547c-8.3-4.5-10.6-11.8-4.7-17.7c-2.6,8.3,0.6,13.6,7.5,17.2c0,7.7,0,15.4,0,23.3
		c-1.8,0.5-2.7-0.2-2.7-2C441.5,560.9,441.5,554,441.5,547z"/>
	<path class="st0" d="M407.1,693.4c-1.2-2.3-1-3.6,0.4-5.3c1.9-2.2,3.2-5.1,5.1-8.2c1.7,0,4.1,0,6.9,0c-2.4,4.5-4.7,8.6-7.9,12.2
		C410.8,693.1,408.7,693,407.1,693.4z"/>
	<path class="st0" d="M254.3,545.4c-2.8-3-2.8-7.4-0.2-11.1C257.4,536.8,257.5,542.6,254.3,545.4z"/>
	<path class="st0" d="M230.9,611.8c2.8,3.5,2.8,7.4,0.1,10.4C228.3,619.5,228.2,615.5,230.9,611.8z"/>
	<path class="st0" d="M437,140.3c-3.6-2.4-7.1-4.7-11.1-7.4c6-0.3,8.5,3.7,11.6,6.8C437.3,139.9,437.1,140.1,437,140.3z"/>
	<path class="st0" d="M319,674.1c0.3,1.2,0.4,2.1,0.8,3.8c-1.9-0.9-3.2-1.4-4.5-2c0-0.3,0-0.5,0-0.8
		C316.4,674.8,317.5,674.5,319,674.1z"/>
	<path class="st0" d="M507.7,497.9c-0.4-0.7-0.8-1.3-1.2-2c0.1-0.1,0.3-0.2,0.4-0.3c0.5,0.6,0.9,1.2,1.4,1.8
		C508.1,497.6,507.9,497.8,507.7,497.9z"/>
	<path class="st0" d="M237.2,630.5c-0.1-1-0.2-1,0.7-1.9c0.8,1,1.6,1.9,2.3,2.9c-0.1,0.2-0.3,0.5-0.4,0.7c-0.8-0.1-1.6-0.2-2.4-0.3
		C237.3,631.4,237.3,631,237.2,630.5z"/>
	<path class="st0" d="M238.1,606.8c0.9-0.9,1.9-1.8,3.1-3c0.3,2.9,0,3.2-3.1,4.1C238.1,607.6,238.1,607.2,238.1,606.8z"/>
	<path class="st0" d="M231.4,318.4c-3.4,1.9-6.2,3.4-9.3,5.1c-21.8-25.2-18.1-73.6,18.6-82.1c34.1-10.5,62.6,15.1,59,49.9
		c-0.2,3.7-2.4,5.8-5.7,8.1c4.1-18.9-6.3-38-24.5-44.1C231.6,242.2,202.4,290.6,231.4,318.4z"/>
	<path class="st0" d="M277.9,277.6c-8.9,14.3-26.7,5.4-20.7-10c-24.8-1.7-34.1,33.6-12.2,46.2c-3.5,1.1-6.4,2.2-9.5,2.9
		c-0.7,0.2-1.9-0.7-2.6-1.4c-24.9-22.6-1.2-66.4,31.4-58.5c18.9,3.4,32.4,24.9,26.2,43.7c-1.1,3.7-8.3,4.6-12.1,6.6
		c1.4-3.9,2.7-6.9,3.6-10.1C283.6,290.4,282,283.1,277.9,277.6z"/>
	<path class="st0" d="M290.1,55.8c-2.4,1.1-4.3,1.9-6.5,2.9c-4.5-6.1-13-13.3-9.3-21.6c1.4-3,3.9-4.7,7.2-4.8
		C292.7,32.8,290.4,48,290.1,55.8z"/>
	<path class="st0" d="M300.9,76.4c1.3-2.8,2-4.4,2.7-7.5c26.7-5,27.4,17.1,13.7,16.9C310.9,84.8,306,80.2,300.9,76.4z"/>
	<path class="st0" d="M281.1,76.2c2.3,1.7,4.3,3.2,6.6,4.8c-2.4,6.2-4.1,14.1-10.1,18.1c-5,3.1-10.8-0.1-11.2-6
		C266,84.5,275.2,80.7,281.1,76.2z"/>
	<path class="st0" d="M281.6,68.7c0.5-13.2,19.1-13.6,19.5-0.3C300.5,81.6,282,82.2,281.6,68.7z"/>
	<path class="st0" d="M275.7,52.6c-7.3,8.1-8,17-3.6,26.7c-1.7,1.6-3.4,3.2-5.1,4.8c-7.2-7.4-7.4-27.1,5.3-36.7
		C273.5,49.2,274.6,50.7,275.7,52.6z"/>
	<path class="st0" d="M316.7,66.3c-1.8-0.1-3.3-0.1-5-0.2c-1.6-10.8-8-17-18.8-19c0-2.1,0-4.2,0-6.2
		C303.2,40.4,317.2,52.1,316.7,66.3z"/>
	<path class="st0" d="M262.9,54.3c-0.9,6-3.9,8.9-9.2,9.9c-6.3,0.7-14.7,8.2-18.4-0.8C244.4,60.4,253.4,57.5,262.9,54.3z"/>
	<path class="st0" d="M305.8,83c1.6,1,3,1.9,4.3,2.8c-4,7.5-17.3,12.7-25.9,9.8c0.9-2,1.8-3.9,2.8-5.9
		C294.3,90.4,300.4,88.2,305.8,83z"/>
	<path class="st0" d="M277.5,54.9c1.6,2,3,3.8,4.6,5.8c-2.9,4.1-3.5,8.5-1.8,13.3c-2,1.3-3.8,2.5-5.6,3.7
		C269.7,71.6,271.1,60.6,277.5,54.9z"/>
	<path class="st0" d="M305.5,42c8.3-1.8,16.1-3.5,23.9-5.2c0,4.5-1.4,6.5-4.9,7.3c-3.8,0.9-7.6,1.7-11.4,2.5
		C309.7,47.2,308.4,44,305.5,42z"/>
	<path class="st0" d="M259.6,64.8c0,3.2,0,5.5,0,8.2c-3.4,1.6-7.2,2.7-11,3.5c-2.3,0.5-5-1.7-5.7-3.9c-0.3-1.1-0.4-2.2,0.9-2.6
		C249,68.3,254.1,66.7,259.6,64.8z"/>
	<path class="st0" d="M292.8,55.8c0-1.9,0-3.9,0-5.8c8.4,0.1,16.1,7.8,15.9,16c-1.7,0-3.4,0-5.1,0C299.8,58.6,299.8,58.6,292.8,55.8
		z"/>
	<path class="st0" d="M317.3,56.1c-1.3-2.3-2.5-4.5-3.9-6.9c4.2-0.9,8.1-1.8,11.9-2.7c4.4-0.5,4,6.9,0.3,7.6
		C322.9,55,320.1,55.5,317.3,56.1z"/>
	<path class="st0" d="M288.1,87c2.2-8.6,2.8-4.7,11.4-8.6c1,0.7,2.4,1.8,3.9,2.9C299.7,85.9,294.3,87.9,288.1,87z"/>
	<path class="st0" d="M250.8,78.7c3.1-1,6.2-1.9,9.4-3c0.7,2,1.2,3.6,1.8,5.2C256.9,84.1,252.9,83.4,250.8,78.7z"/>
	<path class="st0" d="M319.5,64.7c-0.5-2.1-0.9-3.9-1.3-6.1c2.3-0.2,7.1-3.2,8.4-0.6C328.6,62.5,322.9,64,319.5,64.7z"/>
	<path class="st0" d="M260.1,551c1,0.7,2.6,0.8,2.4,2.6C260,553.8,260.5,553.2,260.1,551z"/>
	<path class="st0" d="M263.5,528.2c-0.8,0.7-1.6,1.5-2.8,2.6c-0.5-2.7,0.7-3.1,1.9-3.5C262.9,527.6,263.2,527.9,263.5,528.2z"/>
	<path class="st0" d="M268.7,541.5c-2,0.1-3.5,0.2-5.3,0.3C265.4,539.4,266.1,539.4,268.7,541.5z"/>
	<path class="st0" d="M240.6,617.9c1.8-0.7,2.9-0.8,3.9,0.7C243,619.9,242,619.4,240.6,617.9z"/>
	<path class="st0" d="M487.5,506.8c4.8-1.3,9.4-3.2,14.2-4.2c2.5,1.5,5.2,2.6,8.2,2.9c6,13.4,5.1,29.3-2.6,42.2
		c-12.3-5.9-20.1-15.2-24.9-27.6C486.6,516.8,488.1,512.4,487.5,506.8z M500.7,522.6c-6.1,2.5-4.8,20.1,3.6,13.4
		c0.8-0.7,1.6-1.3,2.6-1.7c8.7-2.4-0.2-17-6.3-11.6L500.7,522.6z M496.2,507.3c-5.3,0.2-4.9,8-1.1,10.2
		C503.4,521.6,503.3,507.1,496.2,507.3z M492.8,528.8c5.3-1.7,3.8-9.7-1.1-11.1C483.8,516.4,485.3,529.1,492.8,528.8z M510.5,513.4
		c0.2-6.1-8.3-7.3-8.4-0.7C502.3,518.4,510.5,520,510.5,513.4z"/>
	<path class="st0" d="M500.6,522.8c4.5-0.4,7.3,1.4,8.4,5.1c1.7,4.5-3.2,5-5.8,7.3c-2,1.6-3.4,1.5-4.4-0.9
		C497.1,530.2,498.3,525.6,500.6,522.8z"/>
	<path class="st0" d="M500.7,513.5c-0.2,3.4-4.1,5.5-5.9,2.2c-2.2-3.1-1.4-9.6,3.4-6.2C499.4,510.6,499.9,512.2,500.7,513.5z"/>
	<path class="st0" d="M495.3,523.7c0.3,3.5-4,5.1-6.1,2.1c-2.7-2.6-1.5-8,2.5-7.1C493.7,519.3,495.2,521.3,495.3,523.7z"/>
	<path class="st0" d="M506.4,509.1c3.4,0.3,4.5,7.1,0.4,7.3C503.1,516.4,502.1,509.2,506.4,509.1z"/>
</g>
</svg>
