<?xml version="1.0" encoding="utf-8"?>
<!-- Generator: Adobe Illustrator 26.0.0, SVG Export Plug-In . SVG Version: 6.00 Build 0)  -->
<svg version="1.1" id="Capa_1" xmlns="http://www.w3.org/2000/svg" xmlns:xlink="http://www.w3.org/1999/xlink" x="0px" y="0px"
	 viewBox="0 0 595.3 325.1" style="enable-background:new 0 0 595.3 325.1;" xml:space="preserve">
<style type="text/css">
	.st0{fill:#FFFFFF;}
</style>
<g>
	<path d="M473.1,302.8c-0.4-6.1-2.4-11.4-7.5-15.2c-1.8-1.4-3.8-2.3-6.2-2.2c-1.2,0-2.4-0.1-3.3-0.2c-0.6-3.1-1.1-5.9-1.8-8.6
		c-0.7-2.8-2-5.4-2.5-8.2c-1.4-8.8-2.5-17.5-3.7-26.3c-0.2-1.5,0.1-2.8,1-4.1c1.8-2.7,3-5.6,1.8-8.8c-2-5.3-4.1-10.5-7.7-15
		c-3-3.7-4.8-8-6.1-12.5c-0.1-0.4,0-0.8,0-1.2c0.1-1,0.3-2,0.5-3c0.1-0.6,0.3-1.3,0.8-1.6c2.5-1.7,4.3-3.8,5.6-6.5
		c0.4-0.8,1-1.7,1.7-1.9c3.3-1.2,5.7-3.4,8-6c0.3-0.3,0.8-0.5,1.2-0.5c2.2,0.3,3,0,3.7-1.9c2.2-5.5,4.2-11.1,3.5-17.2
		c-0.1-0.4,0.1-1.1,0.3-1.2c1.9-1.2,1.6-3,1.5-4.8c-0.7-9.1-1.5-18.2-2.1-27.3c-0.3-5.1-0.7-10.1-2.9-14.9c-0.6-1.4,0.5-4.2,1.9-4.9
		c1.4-0.7,2.4-1.8,2.8-3.2c0.7-2.5,1.4-4.9,1.8-7.5c0.8-4.9,1.2-9.9,0.7-14.9c-0.1-1.1-0.3-2.5-1.6-2.7c-0.9-0.1-1.9,0.6-2.9,1
		c-0.1,0-0.2,0.2-0.3,0.3c-4.7,4.8-9.4,9.4-14,14.3c-1.3,1.4-2.8,1.8-4.5,2.1c-1.3,0.2-2.5,0.7-3.7,1c-0.7,0.2-1.5,0.4-2.2,0.2
		c-4.4-1.1-8.8-2.2-13.1-3.4c-0.4-0.1-0.8-0.2-1.4-0.4c0.4-1,0.9-1.8,1.2-2.7c0.7-2.4,1.5-4.8,1.8-7.3s-1.4-4.9-4.1-5.1
		c-0.4,0-0.8-0.4-1.1-0.8c-2.4-3.2-6.4-3.6-9.3-0.8c-1.9,1.8-2.5,4.1-2.7,6.6c-0.1,1.4,0,2.8,0,4.2c-3.1-0.9-5.4,0.1-7.2,2.6
		c-1,1.3-0.6,2.4,0.8,3.2c0.4,0.2,0.7,0.4,1.2,0.7c-2.1,0.5-4,1-5.9,1.5c-0.6,0.2-1.3,0.5-1.9,0.4c-2.6-0.3-5.2-0.5-7.7-1
		c-3.3-0.7-5.5,0.3-7.2,3.3c-0.9,1.5-2.3,2.6-3.6,3.9c-0.5-0.6-0.8-0.9-1.1-1.3c-5.3-6.6-12.4-9.5-20.6-9.4
		c-8,0.1-13.5,5.9-13.4,13.9c0,1.2,0.1,2.4,0.3,3.6c1.2,7,3.3,13.6,7.2,19.6c0.2,0.3,0.2,1.1-0.1,1.3c-4,3.8-5.3,8.6-5.9,13.9
		c-0.2,2.3-0.6,4.5-1.2,6.7c-0.3,1-1.1,1.9-1.8,2.7c-0.2,0.2-0.9,0.3-1.2,0.2c-3.4-1.2-6.8-0.8-9.9,0.8c-1.8,0.9-3.7,1.5-5.6,2
		c-1.2,0.3-2.5,0.6-3.7,1c-3.5,1-7,1.8-10.8,1.6c-2.5-0.1-5,0-7.5,0c-0.5,0-1.1-0.2-1.3-0.5c-1-1.2-1.9-2.4-2.9-3.6
		c-1.4-1.6-2.7-3.2-4.2-4.6c-2.1-1.9-4.8-2.8-7.3-3.2c-0.1-2.1-0.2-4-0.4-5.8c-0.2-1.6,0.1-2.5,1.5-3.4c1.1-0.7,2.2-1.3,3.2-2.1
		c6.6-5.2,11-12,14-19.7c2.1-5.5,2.8-11.3,3.9-17c0.1-0.8,0.1-1.6,0-2.4c-0.1-1.3-0.8-2.1-2.1-2.2c-0.8,0-1-0.4-1.1-1.1
		c-0.2-1.9-0.4-3.8-0.9-5.7c-1.4-5-1.7-10.2-1.6-15.4c0.1-4.1,0-8.2-0.5-12.3c-0.7-6.2-3.2-11.7-8.2-15.8c-0.5-0.4-0.7-1.3-0.8-1.9
		c-0.6-8.2-1.1-16.5-1.7-24.7c-0.2-3.1-0.6-6.2-1-9.3c-0.1-1-0.3-2.4-1.6-2.5c-0.8,0-1.9,0.7-2.5,1.4c-1.2,1.5-2.4,3-3.2,4.8
		c-1.9,4-3.6,8.2-5.4,12.3c-0.3,0.6-0.4,1.1-1.3,1.2c-3,0.1-5.5,1.4-8.1,2.9c-2.1,1.3-4.3,2.5-6.5,3.5c-1.1,0.5-2.4,0.8-3.5,0.7
		c-4.7-0.4-9.4-0.3-14.1,0.3c-0.9,0.1-1.4-0.1-1.8-0.9c-0.5-1.1-1.2-2.1-1.9-3.1c-4.4-6.3-10.7-8.2-17.8-5.1c-2.9,1.3-5.5,3-8.6,4.7
		c-0.8-1.9-1.6-3.8-2.4-5.9c-1.7-4.1-3.4-8.2-6.6-11.5c-3.7-3.8-7.5-7.4-11.3-11.1c-0.7-0.6-1.5-1.1-2.3-1.6c-1.7-0.9-3.1-0.6-4,1.1
		c-0.7,1.2-1.2,2.5-1.6,3.9c-1.9,5.8-2.5,11.7-3.4,17.7c-1.6,10.9-2.2,21.8-0.2,32.7c1.5,8.4,3.9,16.3,9.7,22.9c0.5,0.5,0.8,1.3,1,2
		c2.9,8.7,5.8,17.5,8.6,26.2c1.3,4.1,2.6,8.3,4.1,12.4c1.1,3.2,2.8,6.2,5.1,8.8c2.4,2.8,4.6,5.8,7.1,8.4c1.5,1.6,2.9,3.2,4.2,5
		c4.1,6.2,6.3,13.1,6.8,20.5c0,0.4-0.2,0.9-0.4,1.2c-2.7,3-4.5,6.5-6.4,10c-1.5,3-3.3,5.9-5,8.9c-3.1-1.7-5.5-0.4-7.6,1.9
		c-2.5,2.7-4.2,6-4.4,9.6c-0.2,3.8-0.1,7.6,0.4,11.4c0.6,5.4,1.8,10.8,2.5,16.2c1.1,7.4,2,14.9,3,22.3c0.5,3.8,1.6,7.5,4.2,10.5
		c0.2,0.3,0.4,0.7,0.4,1c-0.1,2.5-0.3,4.9-0.5,7.1c-2.1-0.7-4.4-1.6-6.7-2c-5.3-0.9-10.4-0.1-15.4,1.8c-5,1.8-8.1,5.4-9.5,10.6
		c-1.3,4.8-1,9.5,0.7,14.2c0.4,1.1,0.4,1.7-0.8,2.3c-3.4,1.7-5.6,4.5-6.3,8.3c-1,5.6-1.6,11.2-0.3,16.8c0.4,1.8,1.3,3.2,3,4
		c2.8,1.3,5.6,1.6,8.5,0.2c0.4-0.2,1.1-0.1,1.6,0c3.8,1.5,7.5,1.8,11.5,0.6c0.5-0.2,1.1,0,1.6,0.1c1.1,0.2,2.2,0.8,3.3,0.7
		c3.5-0.3,6.9-1,10.4-1.4c4.3-0.5,7.2-2.5,8.1-6.9c0.2-1,0.7-1.1,1.6-0.8c2.6,0.7,5.3,1.3,7.9,1.8c10.9,2.4,21.4,1.7,31.2-3.9
		c3.4-1.9,6.7-4.1,10.6-5.1c1-0.2,1.9-0.9,2.8-1.4c0.2,2.2,0.4,4.3,0.7,6.4c0.5,3.8,2.7,6.2,6.3,7.3c2.1,0.6,4.2,1.2,6.4,1.5
		c2,0.3,4.1,0.1,6.1,0.3c5.5,0.3,11,0,16.4-0.6c1.2-0.1,2.4-0.1,3.6-0.3c1.7-0.4,3.3-0.2,5,0.2c2.4,0.6,4.4-0.2,5.8-2.4
		c0.1-0.2,0.3-0.4,0.5-0.7c2.1,1.9,4.5,2.7,7.2,2.7c9.5,0.1,19,0.1,28.5,0.1c2,0,3.2-0.8,3.8-2.7c0.3-0.9,0.5-1.8,0.5-2.7
		c0-1.4,0.6-1.7,1.8-1.5c1.6,0.4,3.2,0.8,4.7,1.2c1.3,0.3,1.9,1.1,2.4,2.4c0.4,1.1,1.4,2.2,2.4,3c1,0.7,2.2,1.2,3.5,1.4
		c3.7,0.5,7.4,0.8,11.1,1c2.4,0.1,4.9-0.2,7.3,0c6.2,0.4,12.4,1,18.6-0.7c1.3-0.4,1.9-0.9,2-2.2c0.2-1.7,0.5-3.4,0.8-5.4
		c0.3,0.7,0.4,1,0.5,1.4c0.8,3.8,3.3,5.4,7,5.6c0.4,0,0.8,0.1,1.3,0.1c11.8,0.9,23.5,0.3,35.3-0.1c0.6,0,1.3-0.4,1.7-0.8
		c1.7-2.1,3-4.4,3.3-7.2C473.2,307,473.2,304.9,473.1,302.8z M384.9,202c-1.1,2.7-1,2.6-3.8,2.6c-3.8-0.1-7.6,0.2-11.4,0.3
		c-1.1,0-1.9,0.6-2.2,1.6c-0.5,1.8-1.1,3.5-1.3,5.3c-0.4,4.1-0.6,8.2-0.9,12.3c0,0.5-0.1,1-0.4,1.5c-2.2,3.7-1.6,7.5-0.3,11.3
		c0.4,1.2,0.8,2.5,0.9,3.8c0.4,6.2,0.9,12.4,4,18c0.1,0.2,0.3,0.5,0.2,0.8c-0.4,2.9-0.8,5.8-1.2,8.6c-0.2,0-0.3,0-0.5,0
		c-0.3-1.5-0.5-3-1.1-4.3c-0.7-1.9-1.5-3.9-2.6-5.7c-0.8-1.2-2.1-2.1-3.7-1.7c-1.5,0.3-2.2,1.6-2.6,3c-0.5,2.2-0.8,4.4-1.2,6.7
		c0,0,0,0.1-0.1,0.1c-4.5-0.2-8.2,1.7-11.6,4.4c-3.3,2.6-6.7,5.2-10,7.8c-3.5,2.7-4.1,5.8-1.9,9.6c0.1,0.1,0.2,0.3,0.3,0.5
		c-1.2,1-2.5,2-3.7,3c0.1,0.2,0.2,0.3,0.3,0.5c-0.2-0.2-0.4-0.4-0.6-0.7c-1.5-1.9-3.3-3.4-5.6-4c-3.2-0.8-6.5-1.4-9.7-2
		c-0.4-0.1-0.8-0.1-1.4-0.2c0.9-6.3-0.3-12.1-4.1-17.3c-3.8-5.3-9.1-7.8-15.8-7.8c0.9-2.5,1.7-4.9,2.5-7.3
		c3.5-10.6,6.5-21.3,7.9-32.4c0.5-3.7,0.3-7.4,0.6-11.2c0-0.9,0.3-1.8,0.6-2.6c0.8-1.7,1.9-3.3,2.5-5c1-2.6,2.8-3.8,5.6-4
		c5.6-0.5,11.1-1.2,16.7-2c3.5-0.5,6.9-1.2,10.3-1.8c1.7-0.3,3.4-0.4,5.1-0.5c2.5,0,5-0.5,7.1-1.9c4.6-2.9,9.6-3.9,14.9-4.3
		c3.5-0.3,7.1-0.6,10.4-2.1c0.5-0.2,1.1-0.2,1.6,0c2,0.6,4,1.4,6,2c1.4,0.4,2.1,1.3,2.2,2.8C387.4,194,386.4,198.1,384.9,202z"/>
	<path d="M120.2,313.1c-6,5.5-13.3,6.2-20.7,6.6c-3.3,0.2-6.6,0-9.9,0.1c-0.7,0-1.5,0.4-2,0.9c-2.3,2.2-4.9,3.7-8.3,3.7
		c-7.8,0.1-15.7,0.5-23.5,0.7c-4.2,0.1-8-1.4-11.2-4c-1.6-1.3-5.6-1.2-7,0.4c-0.8,0.9-1.6,0.9-2.6,0.9c-7.3,0.1-14.6,0.3-21.8,0.5
		c-3,0.1-6,0.2-8.9,0.3c-0.9,0-1.6-0.2-1.8-1.2c-1.4-5.1-2.8-10.1-2.1-15.5c0.7-5.8,4.3-8.8,9.5-10.6c0.6-0.2,1.1-0.6,1.7-1.2
		c-2.1,0.3-2.4-1.2-2.9-2.4c-1.4-3.4-1.9-6.9-1.7-10.5c0.1-1.4,0.5-2.6,1.7-3.3c1.4-0.8,1.9-1.9,2.1-3.5c0.1-1.6,0.6-3.3,1.1-4.9
		c1.8-5.6,5.8-8.8,11.5-10c0.7-0.1,1.3-0.2,1.3-1.2c-0.1-7.6,1.7-14.8,3.6-22c0.4-1.5,0.3-2.5-0.8-3.7c-2.8-3-2.9-5.8-0.4-9
		c1.6-2.1,3.5-3.9,5.1-5.9c0.5-0.6,1-1.4,1.2-2.1c2-6.2,5.6-11.3,10.2-15.9c1.8-1.8,4-2.6,6.5-1.9c0.1,0,0.3,0,0.4,0
		c0.1,0,0.2-0.1,0.2-0.1c0-1.8-0.5-3-2.5-3.8c-6-2.5-10.3-6.7-12.4-13c-1.2-3.4-2.7-6.7-2.5-10.4c0-0.4-0.5-1-0.9-1.1
		c-0.9-0.3-1.8-0.5-2.7-0.6c-1.3-0.1-1.8-0.8-1.8-2c0-4-0.2-8-0.1-12c0.1-5.1,0.3-10.2,0.6-15.2c0.1-1.9,0.7-3.7,1-5.7
		c-1.1,0.1-2.3,0.3-3.4,0.4c-6.9,0.5-11.7-3.7-11.5-10.6c0.3-9.3,4.3-17.1,11.3-23.2c4.1-3.6,8.7-3,13.3-0.8c0.7,0.3,1.3,0.7,1.9,1
		c3-2.5,6-4.8,8.9-7.4c0.7-0.6,1.2-1.6,1.3-2.4c1.1-7.4,0.1-5.4,6.2-8.6c4.7-2.5,9.6-4.8,14.3-7.4c1.2-0.7,2-0.4,2.9,0.5
		c1,1.1,2.2,2.1,3.5,3.4c0.3-1.9,0.7-3.5,0.9-5.1c0.5-3.8,2.8-6.1,6.4-7.1c1.9-0.5,3.9-0.9,5.9-1.2c0.9-0.1,1.3-0.5,1.5-1.3
		c1-4,2.8-5.5,6.9-5.6c2.4,0,4.9,0.2,7.3,0.8c4.5,0.9,7.8,3.7,9.9,7.8c0.6,1.2,1.4,1.8,2.6,2.2c5.3,1.7,8.9,5.1,10.4,10.6
		c7.2-3,13.1-0.2,18.5,4.1c3.5,2.8,6.6,6.2,9.7,9.5c2.6,2.7,3,6.3,3.4,9.9c0,0.3,0,0.7,0.1,1c0,0.1,0.1,0.2,0.2,0.3
		c2.2-0.8,3.8,0.5,5.2,2c4.9,5.1,7.4,11.3,7.9,18.4c0.2,2.7,0.2,5.5,0.1,8.2c0,1.1,0.3,1.4,1.3,1.4c3.7,0,3.4-0.3,4.6,3.8
		c1.5,4.9,1.6,10,1.2,15.1c-0.2,2.6-1.4,4.7-4.1,5.5c-0.8,0.2-1.1,0.7-1.1,1.6c0.3,3.5,0.5,7,0.8,10.5c0.1,1.2-0.2,2-1.4,2.4
		c-2.4,0.7-3.8,2.1-4.1,4.9c-0.3,3.1-1.7,5.9-3.5,8.5s-3.4,5.5-5.5,7.9c-3.4,3.6-7.5,6.4-12.4,7.9c-0.4,0.1-0.7,1.1-0.8,1.6
		c-0.1,0.2,0.4,0.8,0.8,0.9c7.2,2.2,12.4,7.1,16.4,13.2c0.5,0.8,1.2,1.4,2,1.9c3.8,2.2,6,5.6,7.5,9.4c0.2,0.6,0.1,1.4-0.1,2
		c-0.9,1.9-1.9,3.6-2.8,5.5c-0.3,0.7-0.5,1.5-0.4,2.2c1.2,7.8,1.4,15.6,0.4,23.5c-0.7,5.8-1.6,11.6-2.4,17.5
		c-0.1,0.9-0.1,1.5,0.7,2.3c0.7,0.6,1,1.9,1,2.9c0.2,3.9-0.9,7.6-2.5,11.1c-0.4,0.8-0.3,1.2,0.2,1.8c0.6,0.8,1.1,1.8,1.2,2.8
		c0.6,5.3,0.5,10.6-2,15.6c-0.8,1.7-2.2,2.9-4,2.8c-3.2-0.1-5.5,1.8-8.1,2.9c-0.8,0.3-1.6,0.7-2.5,0.7c-8,0.1-16,0.2-23.9,0.3
		c-5,0.1-10.7-4.3-11.3-9C120.5,314.3,120.3,313.8,120.2,313.1z"/>
	<path d="M492.1,149.5c-2.9-1.3-4.2-3.6-5.3-6.2c-0.4-0.9-0.9-1.5-2-1.6c-1.6-0.2-2.7-1.3-3-2.8c-0.3-1.7-0.4-3.5-0.4-5.2
		c0-1.3,1.2-1.5,2.2-1.8c5.8-1.6,11.7-2.5,17.7-2c9.9,0.8,19.6,2.4,28.9,6.3c2.3,1,4.5,1.3,7,1c8.5-0.8,16.5,0.6,23.6,5.5
		c0.6,0.4,1.2,0.9,1.8,1.3c0,0,0.1,0,0.2,0.1c1-1.8,2.4-3.5,1.1-5.9c-0.6-1.1-0.2-1.9,1.1-2.4c2.5-0.8,5-1.8,7.6-2.5
		s3.4,0.1,3.6,2.6c0.5,4.8-0.4,9.5-0.7,14.2c-0.2,2.8-0.1,5,2.8,6.8c2.3,1.4,4.2,3.8,5.6,6.1c4.2,6.7,7.9,13.8,10.4,21.3
		c0.5,1.4,0.7,3,0.9,4.5c0.2,1.6-0.5,3-1.5,4.3c-0.7,0.9-1.2,2-1.5,3.1c-1.3,5.9-2.9,11.6-6.2,16.7c-2.1,3.4-4.7,6.2-8.3,8.1
		c-3.3,1.7-6.7,2.2-10.3,1.2c-0.6-0.2-1.5-0.1-2.1,0.1c-2.3,0.9-4.6,1.8-6.8,2.8c-2.8,1.2-5.6,2.5-8.4,3.8c-0.4,0.2-0.7,0.5-1.2,0.9
		c1.4,1.8,1.2,3.8,0.8,5.7c-0.3,1.7-0.1,3.3,0.5,4.9c1.1,2.8,2.2,5.6,3.4,8.3c0.5,1,1.2,2,1.9,2.9c2.3,2.8,3.7,6,4.2,9.6
		c0.1,0.7,0.5,1.4,0.9,1.9c0.9,1.1,1.1,2.3,0.8,3.5c-0.3,1-0.6,2.2-1.4,2.9c-2,1.9-2.4,4.3-2.7,6.7c-0.5,3.1-0.7,6.3-1,9.5
		c0,0.7,0.3,1.5,0.7,2c1.2,1.6,1.9,3.4,1.9,5.5c0,2.3-0.2,4.5-0.2,7c1.2,0.3,2.8,0.6,4.3,1c3.7,1,4.8,2.4,5.1,6.2
		c0.1,0.9,0,1.8,0,2.7c-0.2,3.8-1.9,5.5-5.6,5.8c-1.8,0.1-3.7,0.1-5.6,0c-4.3-0.1-8.7-0.3-13-0.5c-2.6-0.1-4.9-0.7-5.2-4
		c-1.5,0.6-3,0.8-3.3,2.7c-0.3,1.4-1.4,2.1-2.9,2.1c-4,0.1-7.9,0.2-11.9,0.2c-2.6,0-5.2-0.1-6.8-2.6c-0.1-0.2-0.7-0.3-1-0.3
		c-0.8,0-1.7,0-2.5,0.2c-0.4,0.1-1,0.2-1.2,0.6c-1,1.6-2.6,2.2-4.2,2.1c-4.3-0.2-8.6-0.6-12.9-1c-0.4,0-1.1-0.8-1.1-1.2
		c-0.3-2.3-0.4-4.7-0.6-7.1c0-0.6-0.2-1.2-0.5-1.7c-0.5-1.2-1.5-2.4-1.6-3.6c-0.5-5.5-0.7-11,1.2-16.3c0.7-2,1.9-3.7,3.5-5.1
		c0.5-0.4,0.9-1.1,1-1.7c0.6-3.2,0.9-6.5,1.7-9.6c0.7-3.2-0.6-5.3-3-7.1c-1-0.8-2.3-1.3-3.4-1.9c-1.9-1.1-1.9-2.2,0-3.4
		c0.9-0.5,1.8-1.1,2.7-1.7c2.3-1.6,4.6-2.6,7.3-0.9c0.2-0.4,0.4-0.8,0.5-1.1c1.7-2.7,3.3-5.6,5.2-8.1c3.4-4.3,5.2-9.3,6.8-14.5
		c0.3-0.9,0-1.6-0.8-2.1c-2.7-1.8-5.4-3.5-8-5.4c-5.2-3.8-9.6-8.3-11.9-14.5c0-0.1-0.1-0.1-0.3-0.2c-1.4,0.7-2.5,1.4-2.6,3.4
		c-0.4,7.5-6.1,11.9-13.5,10.5c-7.7-1.5-12.5-6.3-15-13.5c-0.9-2.7-1.2-5.6-1.8-8.4c-0.1-0.6-0.3-1.4-0.8-1.9
		c-3.6-3.6-3.7-7.8-1.6-12c2.1-4.3,4.5-8.4,6.9-12.5s4.9-8.3,7.5-12.3c2.1-3.3,4.8-6.1,7.9-8.4c3.9-2.9,8.3-4.1,13.2-3.5
		C491.6,149.5,491.8,149.5,492.1,149.5z"/>
	<path class="st0" d="M269.7,292c0.4,3.2,0.8,6,0.2,8.9c-0.5,2.5-2.2,4-4.3,5.2c-8.3,4.6-17.2,6.7-26.7,5.1
		c-4.1-0.7-8.2-1.7-12.4-2.5c-1.1-0.2-1.2-0.7-1.1-1.7c0.4-3.8,0.9-7.7,1.1-11.5c0.2-4.4-0.8-8.7-2.6-12.8c-0.6-1.3-1-2.7-1.2-4.1
		c-0.1-0.9,0.2-1.9,0.6-2.7c5.3-9.5,10.1-19.1,12.9-29.7c1.2-4.6,1.1-9.3,0.8-14.1c-0.4-5.7-0.9-11.4-1.3-17c0-0.3,0-0.6,0-1.1
		c0.5,0.1,0.9,0.2,1.4,0.3c2.7,0.6,5.4,1.2,8.1,1.7c4.8,0.9,9.3-0.2,13.4-2.9c1.4-0.9,2.8-1.5,4.5-1.8c3.5-0.5,6.5-2,8.4-5.1
		c0.3-0.5,1-0.8,1.6-0.9c6.2-0.8,10.6-4,13.4-9.5c0.3-0.5,0.8-1,1.3-1.4c1.9-1.5,3.9-2.9,5.8-4.3c0.5-0.4,0.9-0.7,1.6-1.1
		c0.1,0.6,0.2,0.9,0.2,1.3c-0.1,6.1,2.3,11.3,5.8,16.2c0.5,0.7,0.9,1.8,0.9,2.7c0.4,8.5-1.3,16.8-3.3,25c-2.6,10.6-5.9,20.9-10,31
		c-3.5,8.8-9.1,15.9-16.3,21.8c-2.3,1.9-4.2,4-6.3,6.1c-0.3,0.3-0.6,0.6-0.7,1c-0.1,0.5,0.1,1,0.2,1.5c0.5-0.1,1-0.1,1.3-0.4
		C267.8,294.3,268.6,293.3,269.7,292z"/>
	<path class="st0" d="M277.1,89.9c-1.1,4,0.5,6.8,2.5,9.5c1,1.3,2.1,2.5,3.3,3.6c4.6,4.3,9.9,4.5,15.3,2.2c1.5-0.6,2.6-2.1,4-3.2
		c-0.2,1.7,0.9,3.2,2,4.8c0.3,0.4,0.3,1.2,0.2,1.7c-1.6,8.6-5,16.4-10.7,23.1c-2.3,2.7-5.5,3.8-8.6,5.1c-6.1,2.4-12.5,2.5-18.9,2.2
		c-12.7-0.6-24.6-3.9-35.7-9.9c-4.3-2.3-7.2-5.9-8.7-10.5c-2.4-7-0.1-12.4,6.7-15.3c4.9-2.2,9.9-3.7,15.3-4
		c3.4-0.2,6.9-0.6,10.3-1.3c3-0.6,5.9-1.8,8.8-2.8C267.5,93.4,272.1,91.7,277.1,89.9z M243.8,111.9c-0.1,0.2-0.2,0.4-0.4,0.6
		c1.5,1.4,2.9,2.9,4.6,4.2c5.2,3.9,11.2,5.8,17.6,6.6c9.4,1.2,18.8,0.8,28.2,0.7c0.2,0,0.5,0,0.7-0.1c1.1-0.1,1.4-0.7,1.2-1.7
		c-0.1-0.7-0.1-1.5,0.1-2.1c0.4-1.3,0.1-2.1-1.2-2.5c-4.3-1.2-8.6-2.2-13.2-1.2c-5.1,1.2-10.3,1.5-15.6,1.2
		c-7.1-0.3-13.7-2.5-20.2-5.2C245,112.2,244.4,112.1,243.8,111.9z M271.9,99.8c-0.7-0.5-1.3-1-1.4-0.9c-0.6,0.3-1,0.9-1.5,1.3
		c0.3,0.3,0.8,0.9,0.9,0.9C270.5,100.9,271,100.4,271.9,99.8z M272.6,95.6c-0.7-0.4-1.1-0.9-1.4-0.9c-0.4,0.1-0.9,0.6-1,1
		c-0.1,0.2,0.6,0.9,0.9,0.9C271.5,96.6,271.9,96.1,272.6,95.6z M277.7,97c-0.7-0.4-1.1-0.8-1.5-0.7c-0.4,0.1-0.6,0.6-0.9,1
		c0.4,0.3,0.7,0.8,1,0.8C276.8,98,277.1,97.5,277.7,97z"/>
	<path class="st0" d="M426.2,149.1c-1.2,3.2-0.1,5.8,1.8,8.2c2.8,3.5,6.1,6.6,9.9,9c4.1,2.6,7.1,2.1,10.2-1.6c2.5-2.9,4.5-6.1,6-9.8
		c0.9,4,0.4,7.9-0.2,11.8c-0.6,4-2.4,7.5-4.6,10.8c6.7-5.7,7.4-13.5,7.3-21.7c1.2-0.3,1.9-0.1,2.2,1.2c2,7.5,0.5,14.3-4.2,20.4
		c-1.4,1.8-2.9,3.5-4.5,5c-1.2,1.1-2.7,2.1-4.3,2.8c-1.6,0.7-2.8,1.6-3.5,3.2c-1.9,4.3-5.4,6.6-9.6,7.8c-4.1,1.2-8.3,1.4-12.6,0.6
		c-6.3-1.3-12.7-2.2-19-3.4c-3.7-0.7-7.2-1.9-10.5-3.7c-0.9-0.4-1.5-0.9-1.8-2c-0.4-1.7-1.8-2.4-3.3-2.9c-1.7-0.5-3.3-1.1-5.3-1.7
		c4.5-4.3,4.1-10,5.3-15.2c0.9-4.1,1.6-8.2,2.3-12.4c0.2-1,0.8-1,1.5-1c4.3,0.2,8.7,0.3,13,0.6c4.9,0.3,9.5-0.6,13.8-3.2
		c2.8-1.8,6-2.4,9.3-3C425.6,149,425.8,149.1,426.2,149.1z M400.7,169.3c1.1,1,2.3,1.9,3.3,3c4.7,5.1,10.3,8.5,17.4,8.8
		c7,0.2,14.1,0.1,21.1,0.1c0.8,0,1.7-0.1,2.5-0.3c0.4-0.1,0.8-0.6,1.1-1c-0.4-0.3-0.8-0.6-1.3-0.8c-0.4-0.1-0.8,0-1.2,0
		c-6.7,0-13.4,0.2-20.1,0.1c-5-0.1-9.8-1.4-13.9-4.4c-1.8-1.4-3.5-2.9-5.3-4.4C403.2,169.5,402,168.8,400.7,169.3z M424.7,196.2
		c-3.2-0.8-5.4-2.9-7.8-4.8c-4.7-3.7-10.2-5-16.2-4.6c0.2,0.1,0.4,0.2,0.6,0.2c6.5,1.3,12.9,3,17.9,7.9c0.3,0.3,0.7,0.5,1,0.7
		C421.6,196.2,423.1,196.7,424.7,196.2z M415.4,161.1c-0.6-0.6-1-1-1.5-1.4c-0.3,0.4-0.9,0.8-0.8,1.2c0.1,0.5,0.6,1,0.9,1.5
		C414.4,162,414.8,161.6,415.4,161.1z M412.5,167.3c-0.7-0.7-1.1-1.2-1.6-1.6c-0.1-0.1-1,0.7-0.9,0.9c0.3,0.6,0.8,1.1,1.2,1.6
		C411.2,168.2,411.9,167.7,412.5,167.3z M422.4,159c-0.5-0.6-0.9-1-1.2-1.3c-0.4,0.4-1,0.8-1.1,1.3c-0.1,0.3,0.6,1.1,0.9,1.1
		C421.4,160,421.8,159.5,422.4,159z M417.9,169.4c-0.7-0.6-1.1-1-1.6-1.2c-0.1-0.1-0.9,0.8-0.8,0.9c0.3,0.5,0.7,0.9,1.2,1.2
		C416.8,170.4,417.3,169.9,417.9,169.4z M420.4,162.3c-0.5,0.7-1,1.3-0.9,1.5c0.3,0.5,0.8,0.9,1.2,1.3c0.3-0.3,0.8-0.7,0.8-0.9
		C421.3,163.6,420.9,163.1,420.4,162.3z"/>
	<path class="st0" d="M254.1,151.5c-1.2-0.6-2.4-1.4-3.7-1.8c-1.3-0.5-1-1.1-0.4-1.9c2.2-3,5.2-4.1,8.8-4.3c3.2-0.2,5.7,1.4,8,3.4
		c0.1,0.1,0.3,0.2,0.5,0.4c0.5-2.4,2.6-2.7,4.4-3.5c-1.8-0.6-3.5,0.2-5.3,0.8c0.8-1.5,2.8-2.2,4.7-1.8c2.5,0.5,4.6,1.9,6.6,3.5
		c2.9,2.4,4.4,5.5,5.3,9c2.4,9.5,3.8,19.2,3.7,29.1c0,3.7-0.5,7.3-2.2,10.6c-2.3,4.5-5.8,7.4-10.9,8.1c-4.9,0.7-9.9,0.8-14.8,0.1
		c-4.5-0.6-7.9-2.9-9.8-7c-1.6-3.3-3.1-6.7-4.5-10.1c-2.1-5.2-4.5-10.4-7.5-15.1c-0.4-0.7-0.8-1.5-1.2-2.2c-1.8-3.4-1.3-6.7,0.5-9.9
		c1.4-2.6,3.5-4.6,6-6.1c3.3-2,6.8-1.6,10.3-1.1c0.4,0.1,0.9,0.2,1.3,0.2C254,151.7,254,151.6,254.1,151.5z M248.9,153.2
		c-4.7,1.4-6.6,3.9-6.7,8.4c-0.1,3.5,1,6.8,2.4,10c3.1,7,6.4,13.9,9.6,20.9c2,4.4,5.4,7.2,9.9,8.6c0.8,0.2,1.6,0.4,2.4,0.6
		c-0.5-0.6-1.2-0.9-1.8-1.2c-4.7-2-7.7-5.4-9.6-10.2c-1.9-4.9-4.2-9.6-6.3-14.5c-1.4-3.4-3.1-6.7-4.1-10.2c-1.2-4-1.1-8.1,2.6-11.1
		C247.8,154.1,248.3,153.8,248.9,153.2z M252.8,149.4c1-0.9,2-1.9,3.1-2.7c1.1-0.8,2.3-1.4,3.5-2.2
		C257,143.5,252.9,146.5,252.8,149.4z"/>
	<path class="st0" d="M370.1,130c6.6-0.7,9.4,3.1,10.9,8.6c0.1-0.6,0.2-1.1,0.4-1.9c2.1,1.4,3.4,3.2,4.1,5.4
		c1.1,3.6,1.1,7.2,0.6,10.8c-0.9,5.6-2,11.1-2.9,16.7c-0.3,1.9-0.7,3.9-1,5.8c-0.8,4.6-3.5,7.5-8,8.5c-3.2,0.7-6.4,1-9.7,1.4
		c-4.5,0.5-8.8,1.5-12.7,4c-0.8,0.5-1.4,0.2-2.2-0.1c-7-3.6-11-9.5-13.4-16.6c-1.1-3.3-2.1-6.6-1.6-10.1c0.3-2.4,1.2-3.4,3.5-3.8
		c3.4-0.6,5.4-2.6,6-6c0.5-2.6,0.9-5.2,1.2-7.9c0.4-2.7,1-5.3,2.5-7.7c3.5-5.6,9-7.6,15.4-6.8c1.3,0.1,2.6,0.5,3.8,0.8
		c2.9,0.8,5.4,2.1,6.6,5.2C374,134.3,373.5,133.4,370.1,130z M372,180.1c0.2-0.1,0.3-0.1,0.5-0.2c-0.2-0.7-0.4-1.4-0.7-2.1
		c-1.6-4.8-3.2-9.6-3.6-14.8c-0.5-6.4,0.2-12.7,1-19c0.2-1.8,0.4-3.6,0.5-5.4c-0.3,0.3-0.4,0.6-0.5,0.9c-2.2,6.6-2.8,13.3-2.6,20.2
		c0.1,4.8,0.8,9.4,2.4,13.9C369.8,175.8,371,177.9,372,180.1z M347.1,184.6c7.5-0.8,14.6-1.6,21.5-2.3
		C361.6,181.1,354.4,181.1,347.1,184.6z"/>
	<path class="st0" d="M295.8,280.8c3.2,1.8,6.1,3.4,9.3,5.2c-1.1,0.6-2,1.2-2.8,1.7c0,0.1,0,0.1,0.1,0.2c2-0.2,4.1-0.5,6.1-0.6
		c5.4-0.5,10.7,0.5,15.8,2.3c2.2,0.8,3.5,2.5,4.7,4.4c0.2,0.3,0.2,0.7,0.1,1.1c-0.3,4.6-0.5,9.2-0.9,13.8c-0.1,1.2-0.3,2.4-0.7,3.5
		c-0.6,1.9-2.1,2.7-4,2.5c-1-0.1-1.2-0.4-1-1.4c1.1-6.3,1.2-12.6-1.7-18.6c-0.1-0.3-0.3-0.6-0.5-0.9c0.4,2.4,0.9,4.7,1,7
		c0,3.6-0.2,7.3-0.5,10.9c-0.1,2-0.7,2.5-2.6,2.7c-2.8,0.3-5.6,0.6-8.4,0.6c-7-0.1-14.1-0.4-21.1-0.7c-1,0-2-0.4-3-0.7
		c-2.6-0.9-4.2-2.6-4.5-5.3c-0.7-5.9-1.3-11.8-2-18.1c-0.3,3-0.6,5.6-0.7,8.3c0,1.3-0.4,2-1.6,2.4c-1.7,0.6-3.5,1.3-5.4,2
		c1-4.2,0.6-8,0-11.8c-0.1-0.4,0.2-0.9,0.5-1.2c3.5-3.4,7-6.7,10.5-10c0.6-0.6,1-0.3,1.6,0.1c1.8,1.3,3.7,2.6,5.5,3.8
		c0.7,0.5,1.6,0.9,2.4,1.1c1.9,0.5,3.2-0.4,3.5-2.4C295.6,282,295.6,281.7,295.8,280.8z"/>
	<path class="st0" d="M215.6,291.3c-1.5-2.7-2.1-3-7.6-5.1c2.8-1.8,5.5-3.5,8.3-5.3c0.4,0.6,0.9,1.8,2.1,0.9c0.8-0.6,1.4-1.3,2-1.9
		c5.5,10.3,4.5,20.9,1.8,31.5c-0.7,2.6-2.3,4.2-5,4.5c-3.8,0.4-7.6,0.8-11.4,1.2c-0.4,0-0.8,0-1.2-0.1c-2.1-0.2-2.7-0.8-2.7-2.8
		c0-3.7,0.1-7.4,0.2-11c0-3,0-5.9,0-8.9c-0.1,0-0.2,0-0.4-0.1c-0.5,2.8-1.3,5.5-1.5,8.3c-0.3,4.4-0.2,8.8-0.2,13.1
		c0,1-0.3,1.6-1.2,1.6c-2.4-0.1-4.8-0.1-7.1-0.5c-1.6-0.2-2-1.1-2.1-3.1c-0.4-6.5-1.1-12.9-0.1-19.4c-1.5,2.6-2,5.4-2.1,8.3
		c-0.1,4,0.1,8,0.2,12c0.1,1-0.3,1.5-1.2,1.9c-4,1.6-7.8-0.3-8.4-4.5c-0.8-5.2-0.6-10.5,0.9-15.7c1.2-4.3,4.8-6.1,8.7-7.4
		c5.8-1.9,11.8-1.7,17.7-0.9C209,288.6,212.4,289.2,215.6,291.3z"/>
	<path class="st0" d="M457.7,153.6c-1.2,0.4-1.8,0.1-2.2-1.1c-0.4-1.1-1-2.1-1.7-3c-0.5-0.7-0.5-1.1-0.1-1.8c3.3-5.4,2-13.8-2.7-18
		c-0.7-0.6-1.6-1.2-2.4-1.6c-4-2-8-0.8-10,3.3c-2.2,4.5-3.3,9.1-0.8,14c0.1,0.1,0,0.3,0.1,0.5c-1.3,0.1-2.6,0.2-3.9,0.3
		c-3.6,0.4-7.3,0.6-10.8,1.4c-2.6,0.5-5.3,1.3-7.6,2.6c-4.6,2.8-9.5,3.5-14.6,3.1c-4.1-0.3-8.2-0.5-12.5-0.7c0-0.5,0-1.1,0-1.6
		c0.1-3.1,0-6.2-0.9-9.3c-0.9-2.9-2.7-5.2-5.2-6.9c-0.9-0.6-1-1.1-0.7-2.1c1.6-6.2,4.3-11.9,9.6-15.8c2.6-1.9,5.6-3.3,8.5-4.8
		c0.6-0.3,1.7-0.2,2.3,0.2c7,4.2,14,8.6,21,12.9c0.8,0.5,1.7,0.9,2.5,1c3.9,0.2,7.7,0.3,11.6,0.3c0.7,0,1.6-0.5,2.2-1
		c4.2-4.2,8.4-8.4,12.5-12.6c0.9-0.9,1.2-0.9,2,0c2.4,2.8,3.4,6,3.4,9.6c-0.1,6.6-0.4,13.2-0.6,19.9c-0.1,3.5-0.1,7,1,10.4
		C457.7,152.9,457.7,153.2,457.7,153.6z M404.4,151.3c2.9-0.3,5.6-0.8,8.1-2.2c3.6-2.1,5.4-5.6,4.8-9.8c-0.4-2.6-1.4-4.8-3-6.8
		c-4.6-5.4-13.9-9-21.3-0.4c-2.3,2.7-3.2,6-3.4,9.5c-0.3,3.7,1.9,7,5.5,8C398.2,150.3,401.3,150.7,404.4,151.3z M403.6,120.9
		c1.1,0,1.8,0,2.5,0c1.4-0.1,2.3-0.8,2.2-1.8c-0.2-1.2-1.1-1.7-2.2-1.7c-4.2,0.1-8.1,1.1-11.7,3.3c-0.5,0.3-0.6,1.1-1,1.6
		c0.6,0.2,1.3,0.4,2,0.6c0.3,0,0.6-0.2,0.9-0.3C398.8,121.4,401.3,120.8,403.6,120.9z M397.3,126.3c2.2-0.4,4.4-0.8,6.6-1.3
		c4.3-0.9,7.9,0,10.8,3.5c0.2,0.3,0.4,0.6,0.6,1c0.1-0.1,0.2-0.2,0.3-0.3c-0.7-2.9-3.6-5.5-6.8-5.9
		C404.6,122.8,400.8,123.8,397.3,126.3z M450,117.2c-1.2,0.1-1.6,0.8-1.7,1.7c-0.2,1.1,0.4,1.7,1.4,1.9c1.6,0.4,3.2,1,4.8,1.3
		c0.4,0.1,1.1-0.1,1.3-0.4c0.2-0.3,0.2-1,0-1.4C454.3,118.4,452.2,117.6,450,117.2z M452.7,124.2c-4.6-4.3-6.8-3-10.3,2.2
		c1.3-0.9,2.5-1.6,3.6-2.4c1.2-1,2.5-1.1,3.9-0.6C450.8,123.8,451.7,123.9,452.7,124.2z"/>
	<path class="st0" d="M406.6,279.6c-2.8-0.1-5.5-0.4-8.3-0.4c-3.4,0-6.7,0.1-10.1,0.3c-1.1,0.1-1.7-0.1-2.2-1.2
		c-1-2.3-2.2-4.6-3.4-6.9c-0.5-0.9-1.3-1.7-1.9-2.6c-0.3-0.4-0.6-0.9-0.6-1.3c0.2-8,0-16.1,1.6-24c0.5-2.4,1.3-4.8,2.2-7.1
		c0.5-1.1,1.4-2.2,2.4-3c1.1-1.1,2.7-1.3,4-0.6c1.8,1,3.7,2,5.2,3.4c4,3.4,7,7.8,9.9,12.1c0.3,0.5,0.5,1.2,0.5,1.8
		c0.1,5.7,0.1,11.4,0.2,17.1c0.1,3.8,0.3,7.5,0.4,11.3C406.6,278.9,406.6,279.2,406.6,279.6z M383.9,242.1
		c-2.7,3.5-2.4,7.9,0.8,10.9c1,0.9,1.3,1.8,1.3,3c-0.1,5.3-0.1,10.6-0.1,15.9c0,1.6-0.1,3.3,0.1,4.9c0,0.4,0.7,0.8,1,1.2
		c0.3-0.4,0.7-0.8,0.9-1.2c0.1-0.3,0-0.7,0-1.1c0-7,0-14,0.1-21c0-1.2-0.4-2-1.4-2.7c-2.5-1.7-3.5-4-3.1-7
		C383.6,244.2,383.7,243.2,383.9,242.1z"/>
	<path class="st0" d="M210.2,47.4c-0.1,5.4-1,10.7-2.4,15.9c-0.4,1.5-1.6,2.9-2.4,4.2c-0.2,0.3-0.7,0.4-1.1,0.5
		c-1.4,0.2-2.8,0.3-4.1,0.6c-1.6,0.3-3,0-4.1-1.2c-3.2-3.2-5.1-7-5.7-11.4c-0.2-1.1,0.1-2.2,0.4-3.3c0.3-1.3,0.1-2.4-0.9-3.4
		c-0.5-0.5-0.9-1.4-0.9-2.2c-0.3-3.5-0.5-7.1-0.8-10.6c-0.2-2.9-0.2-5.8,0.9-8.6c0.4-1.1,0.1-2.1-0.6-3.1c-0.4-0.6-0.7-1.7-0.5-2.4
		c0.7-2.8,1.6-5.6,2.5-8.4c0.1-0.4,0.4-0.9,0.6-1.3c1.1-1.6,2.6-1.8,3.8-0.4c1.9,2.2,3.5,4.6,5.3,6.9c3.8,5,7.3,10.3,8.7,16.6
		c0.8,3.8,1.3,7.7,1.9,11.6C210.5,47.3,210.4,47.4,210.2,47.4z"/>
	<path class="st0" d="M432.6,289.9c-2.1,1.9-3.3,4.2-3.8,7.4c0.8-1.1,1.5-1.8,2-2.6c4-5.4,9.3-7.7,16-6.6c0.7,0.1,1.5-0.1,2.3-0.2
		c0.5-0.1,0.9-0.3,1.3-0.4c6-1.3,8.7,0.1,11,5.9c1.4,3.6,2,7.3,1.8,11.1c-0.2,3.2-0.6,6.3-1,9.5c-0.1,1.1-0.6,1.5-1.7,1.5
		c-2.6-0.1-5.2,0-7.9,0c0.2-2.5,0.5-5,0.4-7.4c-0.1-4.4-0.2-8.9-0.5-13.2c-0.2-2.7-1-3.8-2.4-4.9c0,0.1-0.1,0.1-0.1,0.2
		c2.3,7.2,1,14.5,0.7,21.8c0,1.2,0.1,2.8-0.6,3.4c-0.6,0.6-2.2,0.3-3.4,0.2c-5.2-0.1-10.4-0.2-15.6-0.5c-3.1-0.2-3.9-1-4.7-4
		c-1.6-5.7-2.4-11.6-2.8-17.5c-0.1-1.3,0.3-2,1.6-2.3c2.4-0.5,4.7-1.1,7-1.6C432.4,289.6,432.5,289.7,432.6,289.9z"/>
	<path class="st0" d="M301.9,162.9c8,0.9,15.9-0.1,23.4-2.8c-1.4,13.5,3.5,23.8,14.6,31.4c-0.4,0.1-0.6,0.3-0.9,0.3
		c-8.7,1.4-17.4,3.4-26.3,3.7c-2.2,0.1-4.4,0.6-5.9,2.6c-2.8-3.2-4.8-6.6-5.8-10.6c-0.5-1.8-0.4-3.2,0.7-4.8
		c2.5-3.8,2.4-8.1,1.9-12.4C303.4,167.8,302.6,165.6,301.9,162.9z M331,190c-7.9,1.2-15.8,2.4-23.7,3.6
		C315.6,194.4,323.4,192.7,331,190z M323.1,162.8c0-0.1,0-0.2-0.1-0.2c-0.8,0-1.7-0.1-2.5,0c-2.7,0.6-5.5,1.2-8.2,1.8
		c-0.7,0.2-1.5,0.7-2-0.5c-0.1-0.1-0.5-0.3-0.7-0.2s-0.4,0.4-0.4,0.6c-0.3,1.3,0.9,2.2,2.5,1.8c2.8-0.7,5.6-1.4,8.4-2.2
		C321.1,163.7,322.1,163.2,323.1,162.8z"/>
	<path class="st0" d="M416.4,235.6c0.8,0.9,1.4,1.9,2.2,2.7c2,2,4,3.9,6,5.9c0.9,0.9,1.9,0.8,2.9,0c1.9-1.7,3.9-3.3,6.1-5.2
		c0.1,2.8,0.6,5.1-1.5,7.1c-2,1.9-3.6,4.2-5.2,6.5c-1.2,1.8-1.5,3.9-1.1,6.1c0.6,2.8,0,5.5-1,8.1c-0.5,1.3-1,2.5-1.7,3.7
		c-1.7,3.4-2.3,7-2,10.7c0.1,1-0.6,2-0.8,3c-0.2,1.1-0.3,2.3-0.4,3.5c-0.2,1.6-0.9,1.9-2.4,1.3c-2.2-0.8-4.5-1.4-6.8-2
		c-1-0.2-1.2-0.4-1.2-1.5c0.1-1.3-0.3-2.5-0.5-3.8c-0.1-0.5-0.3-1-0.3-1.5c-0.2-6.6-0.5-13.1-0.6-19.7c0-0.9,0.5-1.8,0.9-2.6
		c0.4-0.8,1.1-1.5,1.7-2.2c2.6-3.5,2.9-7.3,0.9-11.2c-0.5-0.9-0.4-1.5,0.3-2.4C413.3,240,414.8,237.8,416.4,235.6z"/>
	<path class="st0" d="M423.3,282.3c-0.3-3.6-0.3-6.9,1.2-10.1c1.5-3.1,3.2-6.3,3.4-9.8c0.1-2.2,1-3.7,2.5-5.2
		c5.1-5,10.2-10.1,15.6-15.4c0.2,1.5,0.3,2.6,0.5,3.8c1,7.2,2.1,14.3,3,21.5c0.5,3.7,0.6,7.4,0.8,11.1c0.1,0.8-0.3,1.2-1.2,1.3
		c-6,0.6-12,1.3-18.1,1.9C428.6,281.8,426,282,423.3,282.3z"/>
	<path class="st0" d="M377.5,308.9c-1.6-0.4-3.1-0.9-4.6-1.2c-1.1-0.2-2.5,0-3.1-0.7c-0.6-0.6-0.3-2-0.5-3.1c-0.9-4-1.8-8-2.7-12
		c2.1-0.7,3.3-2,3.4-3.9c0-2.3-1.4-4.5-3.8-5.1c-2.5-0.6-5-0.9-7.6-1c-5.6-0.3-11.3-0.5-16.9-0.7c-0.2,0-0.4-0.1-0.8-0.1
		c0.3-1.8,0.6-3.5,1-5.2c0-0.2,0.2-0.4,0.4-0.5c2.8-2,5.4-4.2,8.4-5.8c5.8-3.1,13.5-0.5,16.6,5.3c0.2,0.4,0.4,0.8,0.7,1
		c0.2,0.2,0.7,0.5,0.9,0.4c0.3-0.1,0.6-0.6,0.6-0.9c0.6-3.8,1.1-7.6,1.6-11.3c0.7-4.8,1.5-9.7,2.3-14.5c0.1-0.6,0.3-1.3,0.4-1.7
		c1.5,0.6,2.9,1.2,4.2,1.9c0.3,0.2,0.7,0.7,0.6,1.1c-0.1,5.5-0.4,11-0.5,16.5c0,1-0.2,1.8-1,2.4c-2.1,1.8-2.8,4.2-3.3,6.8
		c-0.1,0.7-0.3,1.4-0.3,2.1c0.1,2.4-0.4,4.4-2.6,5.8c-0.8,0.5-0.8,1.4-0.4,2.3c1.2,2.5,2.7,4.8,5,6.5c0.3,0.2,0.6,0.6,0.6,1
		c0.5,4.7,0.9,9.4,1.4,14.1C377.5,308.4,377.5,308.6,377.5,308.9z M363.2,273c0.9,2.5,1.8,5,2.6,7.4
		C366.9,277.3,366.1,274.8,363.2,273z"/>
	<path class="st0" d="M399.1,99.6c1.5-0.4,3.1-0.7,4.6-1.1c9-2.1,17.8-1.3,26.5,1.2c3.3,1,6.6,2,9.8,3.3c2.9,1.2,3.4,2.3,2.3,5.2
		c-1.5,3.7-3.4,7.3-5.3,10.8c-0.4,0.8-1.7,1.5-2.6,1.6c-2.7,0.2-5.4,0.2-8.1,0c-0.9-0.1-1.8-0.9-2.5-1.6c-4.2-3.7-8.2-7.7-12.6-11.2
		C407.4,104.8,403.2,102.4,399.1,99.6z"/>
	<path class="st0" d="M379.9,131.6c-4-4.7-9.1-4-14.5-3.3c4.5-8.2,7-17.2,14.1-23.9c0.2,0.7,0.3,1.1,0.5,1.5
		c0.8,1.8,1.5,3.7,2.5,5.4c1,1.8,3,1.5,3.8-0.4c0.4-1,1-1.4,1.9-1.9c1.9-1,3.7-2.3,5.7-3.5c0.3,0.2,0.6,0.5,1,0.8
		c1.2,0.9,3,0.6,3.9-0.6c0.5-0.8,0.1-1.3-0.5-1.8c-1.4-1.1-2.9-2.2-4.2-3.7c1.4,0.5,2.9,0.8,4.1,1.5c6.8,3.5,12.9,7.9,18.4,13.1
		c2.2,2,4.4,4.1,6.5,6.2c1.2,1.1,2.5,1.7,4.1,1.7c2.1,0,4.3,0,6.4,0c2.5,0,4.3-1,5.5-3.2c1.6-3,3-6.1,4.7-9.1c0.7-1.2,1.9-2.2,3-3.2
		c0.2-0.2,0.7-0.2,0.9-0.1c1.2,0.9,2.3,1.9,3.4,2.9c0.1,0.1,0,0.7-0.3,0.9c-4.2,4.3-8.4,8.5-12.6,12.7c-0.4,0.4-1.2,0.7-1.8,0.7
		c-3.5,0-6.9,0-10.3-0.2c-0.8,0-1.7-0.6-2.4-1c-6.8-4.2-13.7-8.4-20.5-12.7c-1.5-1-2.9-1-4.6-0.3
		C388.8,114.2,382.5,121.1,379.9,131.6z"/>
	<path class="st0" d="M203.3,70c-2.2,3.4-4.6,6.4-8.8,7.1c-1.1,0.2-1.7-0.1-2.4-0.9c-4.7-5.7-6.7-12.4-8.1-19.5
		c-1.9-10.2-1.9-20.4-0.2-30.6c0.9-5.2,1.5-10.4,2.4-15.6c0.4-2.4,1.4-4.7,2.2-7.1c0.5-1.4,1.1-1.5,2.4-0.7c0.1,0,0.2,0.1,0.2,0.2
		c7.4,6.7,15.2,13.1,18.6,23.1c1.6,4.5,3.9,8.8,5.9,13.1c1,2.1,1.4,2.4,4.5,4c-2.8,4.7-5.5,9.3-8.3,14c-0.1-0.1-0.3-0.1-0.4-0.2
		c0.2-1.9,0.5-3.8,0.6-5.8c0.9-11.6-2-22.1-9.1-31.4c-1.8-2.3-3.5-4.7-5.2-7.1c-0.4-0.6-0.9-1.2-1.4-1.7c-2.5-2.5-5.8-1.9-7.3,1.3
		c-0.6,1.2-0.8,2.6-1.2,3.9c-0.6,1.8-1.2,3.5-1.7,5.3c-0.5,1.6-0.7,3.2,0.6,4.6c0.3,0.3,0.4,1,0.3,1.4c-1.5,4.3-0.9,8.7-0.5,13
		c0.2,2.1,0.3,4.3,0.4,6.4c0.1,1.5,0.3,3,1.6,4c0.3,0.2,0.5,0.8,0.4,1.2c-1.4,5.6,1,10.1,3.9,14.5c0.5,0.8,1.2,1.4,1.8,2.1
		c1.9,1.9,4.1,2.4,6.7,1.8C201.9,70.2,202.6,70.1,203.3,70z"/>
	<path class="st0" d="M261.3,93.3c-2.3,0.8-4.5,2-6.9,2.4c-4.8,0.8-9.7,1.1-14.6,1.9c-2.4,0.4-4.8,1-7.1,1.9
		c-1.7,0.6-3.2,0.8-4.9,0.4c-1.1-0.3-2.1-0.7-3.2-0.8c-2.9-0.4-5-2-6.8-4c-0.4-0.4-0.6-1.1-0.6-1.6c0-8.4,0.1-16.9,0.1-25.3
		c0-0.6,0.1-1.1,0.3-1.6c2.8-6.5,6.4-12.3,11.7-17c4.1-3.5,9.1-4.8,14.3-5.4c8.2-1,16.2-0.2,23.8,3.4c1.9,0.9,4,1.5,6.1,2.1
		c2.3,0.7,4.4,0.2,6.4-1c1.3-0.8,2.6-1.7,4-2.4c2.7-1.5,5-1.1,6.8,1.2c-1,0.2-2,0.3-3,0.7c-3.2,1.1-6,2.9-8.5,5.2
		c-0.9,0.9-1.5,1.9-1.5,3.2c0.2,5.7,0.3,11.5,0.5,17.2c0.2,4.5,0.9,8.9,3.2,12.9c0.1,0.1,0.1,0.3,0.1,0.4c-2.2,0.6-4.4,1.1-6.5,1.8
		c-4.2,1.4-8.4,2.9-12.6,4.3C261.9,93.2,261.6,93.2,261.3,93.3c2.9-1.9,5.9-3.9,8.9-5.9c1.1-0.7,1.5-1.8,1.7-3.1
		c0.3-2.3,0.8-4.5,0.9-6.8c0.5-7.1,0.9-14.2,1.2-21.4c0-0.6-0.3-1.4-0.7-1.7c-3.2-2.1-6.3-4.5-9.7-6.1c-10.7-5.2-21.3-4.8-31.4,1.8
		c-6.1,4-9.8,10-12.9,16.4c-0.2,0.4-0.2,0.9-0.3,1.4c-0.1,7.4-0.2,14.8-0.2,22.2c0,4.5,0.1,4.6,4.5,6.1c2.7,1,5.5,1.8,8.3,0.9
		c4.1-1.4,8.4-1.6,12.7-1.7c3.2-0.1,6.4-0.2,9.5-0.5C256.3,94.7,258.8,93.9,261.3,93.3z"/>
	<path class="st0" d="M301.7,91.7c-0.9-1.1-1.7-1.9-2.3-2.9c-0.3-0.5-0.4-1.2-0.4-1.9c-0.1-4.3-1.4-8.2-4.6-11.2
		c-0.3-0.3-0.6-0.6-0.9-0.8c-2.1-1.6-4.4-2.6-7-1.4c-2.7,1.2-3.7,3.5-3.9,6.3c-0.1,1.3,0,2.7,0,4c-0.2,0-0.3,0.1-0.5,0.1
		c-0.4-1.3-1-2.5-1.2-3.8c-0.5-3.6-0.8-7.1-1-10.7c-0.2-4.2-0.2-8.4-0.2-12.6c0-0.6,0.2-1.4,0.6-1.8c2.7-2.6,5.8-4.6,9.5-5.3
		c3.2-0.6,4.8,0.2,6,2.9c-0.8-0.3-1.5-0.7-2.2-0.9c-0.9-0.3-1.9-0.2-2.2,0.8c-0.2,0.7,0,1.7,0.4,2.2c0.6,0.7,1.6,1.3,2.5,1.6
		c3.5,1,5.3,3.2,5.4,6.9c0,3.6,0.4,7.2,0.3,10.8c-0.1,5.5,0.1,11,1.7,16.4c0.1,0.4,0.1,0.7,0.2,1.1
		C301.9,91.4,301.8,91.5,301.7,91.7z M297.4,69.8c-1.7-2.7-4.7-4.1-7.7-3.6c-2.7,0.4-4.3,2-4.9,4.8
		C288.5,66.8,291.7,66.4,297.4,69.8z"/>
	<path class="st0" d="M222.7,272.5c-1.2-1.9-2.2-3.8-3.4-5.5c-2.3-3.4-2.6-7.1-2.1-11.1c0.8-5.8,1.5-11.6,2-17.5
		c0.4-3.9,0.5-7.9,0.7-11.9c0-0.5,0.1-1,0.2-1.9c0.8,1.3,1.2,2.3,1.9,3.2c2.4,3.5,4.7,7,7.3,10.4c1.1,1.5,2.7,2.7,4.3,3.8
		c1,0.7,1.3,1.4,0.9,2.6c-1.8,5.1-3.4,10.4-5.5,15.4c-1.7,4.2-4,8.1-6,12.2C223,272.3,222.8,272.4,222.7,272.5z"/>
	<path class="st0" d="M215.3,265.6c-1.4,2-2.7,3.8-3.9,5.7c-4.3,7.2-10.8,11-18.8,12.6c-2.7,0.6-5.5,0.6-7.4-2
		c-0.4-0.6-0.8-1.4-0.8-2c0.1-2.4,0.2-4.9,0.7-7.2c0.9-3.9,3.2-6.9,7-8.5c5.4-2.3,11.1-3.2,17-2
		C211.6,262.7,213.7,263.9,215.3,265.6z M190.7,266.9c-1.9,5.2-0.8,11.7,2.1,14.4C192.1,276.6,191.4,271.9,190.7,266.9z"/>
	<path class="st0" d="M408.4,220.2c-1.8-1.1-3.7-2.3-5.7-3.3c-1.5-0.8-3-0.4-4.2,0.5c-2.6,1.8-5.5,1.6-8.3,0.9
		c-1.3-0.3-2.1-1.1-2.5-2.5c-0.7-3-1-3.2-4.3-3.2c1.8-5.1,3.6-10.2,5.4-15.3c0.4,0.1,0.7,0.1,1,0.3c6.3,3.1,13,4.3,19.9,4.8
		c1.3,0.1,1.8,0.5,1.7,1.7c-0.2,2.1-0.4,4.2-0.7,6.3c-0.1,0.4-0.7,0.8-1.2,1c-2.1,1-2.4,1.3-2,3.7
		C407.7,216.8,408.1,218.6,408.4,220.2z"/>
	<path class="st0" d="M399.8,303.4c-0.4,3.5-0.9,7.7-1.4,11.8c-0.1,0.7-0.3,1.3-1.2,1.2c-3.8-0.2-7.5-0.5-11.3-0.7
		c-1.1-0.1-1.6-0.7-1.8-1.8c-1.4-6-1-12,0.7-17.8c0.9-3.2,3.2-5.2,6.5-5.8c0.8-0.1,1.7-0.3,2.5-0.5c2.1-0.4,3.5,0.1,4.3,2.1
		c0.5,1.3,0.9,2.7,1.1,4C399.5,298.2,399.6,300.4,399.8,303.4z"/>
	<path class="st0" d="M360.9,127.8c-2.1,0.3-3.9,0.6-5.9,0.9c-0.1-0.4-0.2-0.8-0.3-1.2c-0.6-2.5-1.5-4.7-3.4-6.5s-2.9-4.1-3.3-6.6
		c-0.4-2.2-0.8-4.4-1.4-6.6c-0.3-1.1,0.1-1.7,1.1-2.2c1.4-0.7,2.8-1.6,4-2.6c3.4-2.8,7.2-2.6,10.9-1.2c1.2,0.4,2.3,1.8,2.9,3.1
		c1.3,2.8,2.2,5.8,3.4,8.7c0.6,1.4,0.3,2.5-0.4,3.7c-0.4,0.7-0.8,1-1.5,0.7c-0.8-0.4-1.7-0.8-2.5-1.2c-0.7-0.4-1.3-0.9-2-1.3
		c-1.8-0.8-3.6,0.2-3.7,2.2c0,1.3,0.3,2.7,0.6,4C359.9,123.5,360.4,125.6,360.9,127.8z"/>
	<path class="st0" d="M226.5,101.7c-0.4,0.3-0.5,0.5-0.7,0.6c-6.6,4.2-8.4,9.5-5.9,16.9c1.9,5.8,5.8,9.8,11.2,12.5
		c10.3,5.1,21.2,8.5,32.8,9.1c1,0.1,2,0.1,3.3,0.2c-1.5,1.2-2.5,1.6-4.2,1.2c-2.5-0.5-5.1-0.2-7.7-0.2c-0.4,0-1,0.2-1.4,0
		c-3-1.4-6.2-1.2-9.4-0.9c-6.7,0.8-12.9-0.7-18.9-3.8c-7.3-3.8-10.7-9.7-10.7-17.8c0-6.7,1.9-12.8,6.5-17.8c0.7-0.8,1.4-1.2,2.4-0.8
		C224.6,101.2,225.4,101.3,226.5,101.7z"/>
	<path class="st0" d="M234.3,170.3c1,1.7,1.9,3.2,2.9,4.7c0.4,0.7,0.3,1.2-0.4,1.6c-1.5,1.1-3,2.2-4.5,3.3c-0.6,0.5-1.3,0.9-1.8,1.5
		c-1.6,1.5-1.6,3.1-0.1,4.6c0.7,0.8,1.7,1.4,2.3,2.2c0.7,0.9,1.6,1.9,1.6,2.9c0.5,6.9,4.5,11.4,9.8,15.1c2.4,1.7,5.1,2.9,7.6,4.4
		c0.1-0.1,0,0.1-0.1,0.1c-5.6,1-11.1,1.3-16.3-1.4s-8.3-7-9.5-12.6c-1.4-6.5-0.9-12.9,1.8-19c1.3-2.9,3.4-5.2,6-7.1
		C233.8,170.4,234,170.4,234.3,170.3z"/>
	<path class="st0" d="M400.3,316.6c1.1-9.6,3-18.8-1.6-27.9c2.7-0.8,5.6-1.6,8.6-0.6c1.7,0.6,2.8,1.8,3.4,3.5
		c1.8,5,2.4,10.2,2.1,15.4c-0.2,2.8-0.8,5.5-1.2,8.3c-0.1,1-0.7,1.4-1.7,1.3C406.7,316.5,403.6,316.6,400.3,316.6z"/>
	<path class="st0" d="M352.4,314.3c-3.5,0-7.1,0-10.6,0c-0.3,0-0.8-0.6-0.8-0.9c-0.3-5.7-0.5-11.5-0.6-17.2c0-1.7,0.4-3.4,0.7-5.1
		c0-0.3,0.2-0.6,0.3-0.9c1-2.4,3.2-2.6,5.4-2.9c2-0.2,4,0,5.2,1.9c0.3,0.4,0.4,1,0.4,1.5c0.1,7.7,0.2,15.5,0.3,23.2
		C352.5,313.9,352.5,313.9,352.4,314.3z"/>
	<path class="st0" d="M283.7,151.1c1,0.1,1.8,0.2,2.6,0.4c5.3,1.4,8.6,4.9,10.6,9.7c2,4.6,2.3,9.5,1.3,14.4c-0.8,3.7-3.2,6-6.3,7.8
		c-1.4,0.8-3.2-0.4-3.3-2.1c-0.4-9.2-1.7-18.3-4-27.2c-0.1-0.5-0.3-1-0.5-1.5C284.1,152.2,284,151.8,283.7,151.1z"/>
	<path class="st0" d="M354.4,289.7c4.9-1.5,9.2,0.5,10.8,5.3c1.6,4.8,2.5,9.8,2.4,14.8c0,0.6-0.1,1.1-0.2,1.7
		c-0.4,2.6-0.7,2.9-3.3,2.8c-2.7-0.1-5.4-0.2-8.1-0.1c-1.1,0-1.5-0.3-1.5-1.4c0-5.7-0.1-11.4-0.1-17.1
		C354.4,293.7,354.4,291.7,354.4,289.7z"/>
	<path class="st0" d="M217.1,57.4c-1.1,3.6-2.3,7.3-3.5,10.9c-1.8,5.3-3.6,10.6-5.4,15.9c-0.3,1-0.2,1.7,0.3,2.6
		c3.1,4.7,6.6,9,11,12.4c0.8,0.7,0.5,1.1,0,1.7c-6.4,7.7-7.8,16.5-5.4,26.1c0.4,1.8,1.4,3.4,2.2,5.4c-0.6-0.7-1.1-1.1-1.5-1.6
		c-4.1-5.1-5.8-10.9-5.3-17.4c0.2-2.8,0.9-5.6,1.3-8.4c0.1-0.8,0-1.7-0.3-2.4c-2.3-3.9-4.6-7.7-7-11.5c-0.4-0.7-0.7-1.3-0.3-2.2
		c4.6-8.4,7.8-17.3,11.1-26.3c0.7-1.9,1.5-3.7,2.3-5.5C216.8,57.3,216.9,57.4,217.1,57.4z"/>
	<path class="st0" d="M405.6,236.6c-0.4-0.2-0.8-0.4-1.1-0.7c-4.5-3.7-9-7.4-13.5-11.1c-1.9-1.6-4-1.8-6.3-1
		c-5.6,2.1-8.4,6.5-8.2,12.8c0.1,3,0.8,5.8,2.1,8.5c0.3,0.7,0.3,1.5,0.4,2.2c-0.7-0.1-1.5-0.2-2.2-0.5c-1.5-0.6-2-1.8-1.9-3.4
		c0.5-6.9,1.5-13.6,4.5-19.9c0.7-1.5,1-3.3,1.3-5c0.4-2,1.3-3.4,3.2-4c0.9-0.3,1.5-0.1,1.6,0.9c0.4,3.3,2.6,4.5,5.5,5
		s5.7,0.4,8.2-1.3c1.2-0.8,2.4-0.9,3.7-0.1c0.9,0.6,1.9,1.1,2.8,1.6c0.7,0.4,0.8,1,0.3,1.6c0,0,0,0.1-0.1,0.1
		c-3.3,3.7-3.1,7.7-0.6,11.7c0.4,0.6,0.5,1.4,0.7,2.1C405.8,236.5,405.7,236.5,405.6,236.6z"/>
	<path class="st0" d="M206.8,202.2c0.7,0.2,1.1,0.4,1.5,0.5c1.8,0.4,3.6-0.2,4.7-1.9c2-3.2,2.2-6.5,0.5-9.9
		c-0.7-1.5-1.8-2.1-4.7-3.3c1.1-1.7,2.3-3.3,4.2-4.1s3,0.3,2.8,2.3c-0.5,6.2-1,12.5-1.1,18.7c-0.3,14-0.4,28.1-0.6,42.1
		c0,0.5-0.1,1-0.1,1.5c-0.2,0-0.3,0-0.5,0c-0.5-2.9-1.1-5.8-1.6-8.8c-1.6-11.2-3.2-22.3-4.8-33.5C207,204.7,206.9,203.5,206.8,202.2
		z"/>
	<path class="st0" d="M284.3,43.5c-1.9,1.1-3.4,2-4.9,3c-2.3,1.6-4.7,1.6-7.2,0.9c-1.4-0.4-2.7-1-4-1.6c-8.3-3.9-17-4.8-25.9-3.5
		c-0.4,0.1-0.8,0.1-1.4-0.2c0.6-0.3,1.1-0.6,1.7-0.9c1.9-0.9,2-1.1,1.3-3.1c-0.1-0.3-0.2-0.6-0.4-1.1
		C257.8,35.1,271.1,38.2,284.3,43.5z"/>
	<path class="st0" d="M334.7,157.6c-1.9,2-2.5,4.3-2.2,6.7c1.1,9.8,4.5,18.3,12.8,24.4c0.9,0.7,1.9,1.3,2.8,2.1
		c-1.9,0.3-3.8,0.8-5.6-0.2c-9.6-5.5-14.7-13.9-15.4-24.9c-0.1-1,0.1-2.1,0.2-3.1C327.8,158.8,330.6,156.9,334.7,157.6z"/>
	<path class="st0" d="M350.9,130.6c-1.3-2.6-2.7-5-3.9-7.6c-1.8-4.2-3-8.6-3.5-13.1c-1-8.5,4.4-14.4,12.9-13.9
		c7.2,0.4,13.4,3.2,17.8,9.2c0.5,0.7,0.6,1.1,0.1,1.9c-1.3,1.7-2.4,3.6-3.6,5.5c-0.5-1.4-0.8-2.8-1.4-4.1c-0.9-2.1-1.8-4.1-2.9-6
		s-3-3-5.3-3.3c-4.3-0.7-8.3-0.4-11.6,2.9c-0.8,0.8-2,1.3-3.1,1.9c-1.6,0.8-2.1,1.6-1.8,3.4c0.6,3.2,1.1,6.5,2,9.6
		c0.6,1.9,1.8,3.7,3.1,5.2c1.4,1.7,2.5,3.4,3,5.5C353.2,129.5,353.2,129.5,350.9,130.6z"/>
	<path class="st0" d="M287.6,272.5c1.2-2.7,2.4-5.3,3.5-8c1.1-2.6,1.1-2.7,4-2.5c7.5,0.6,12.1,5.1,14.7,11.8c0.7,1.8,1,3.7,1.5,5.6
		c-0.1,0.1-0.2,0.1-0.4,0.2c-0.4-0.2-0.8-0.4-1.2-0.6c-4.4-2.6-8.8-5.1-13.1-7.7c-0.6-0.3-1.1-0.7-1.7-1c-1.7-0.9-3.2-0.7-4.7,0.5
		c-0.8,0.6-1.6,1.2-2.4,1.8C287.8,272.7,287.7,272.6,287.6,272.5z"/>
	<path class="st0" d="M339.2,289.7c-1.8,7.7-1,15.3-0.3,23c0.1,1.2-0.3,1.6-1.4,1.6c-0.9,0-1.8,0-2.6-0.2c-3.5-0.7-4.6-1.9-4.5-5.5
		c0.1-3.7,0.2-7.5,0.5-11.2c0.1-2.2,0.9-4.3,2.5-5.9C334.9,289.8,336.8,289.2,339.2,289.7z"/>
	<path class="st0" d="M413.5,316.5c2.2-9.3,2-18.4-1.5-27.4c3,0.4,5.6,1.4,7.3,4.1c1.9,3.1,2.7,6.5,2.7,10c0,3.7-0.4,7.4-0.6,11
		c-0.1,1-0.6,1.5-1.6,1.5C417.7,316,415.7,316.3,413.5,316.5z"/>
	<path class="st0" d="M376,276.5c0.3-2,1-3.7,2.3-5.1c1-1.1,1.6-1.1,2.3,0.3c1.4,2.6,2.7,5.3,4,8c0.7,1.5,1.7,1.9,3.4,1.8
		c4.8-0.2,9.6-0.2,14.4-0.2c0.7,0,1.5,0.1,2.2,0.2c3,0.4,3.6,1.3,2.9,4.1c-6.3,0.2-12.6,0.4-18.8,0.7c-1.4,0.1-2.8,0.4-4.2,0.6
		c-0.8,0.1-1.3,0-1.7-0.8c-1-1.9-2-3.8-3-5.7C378.8,278.8,377.8,277.3,376,276.5z"/>
	<path class="st0" d="M375.5,223c0.7-2.9,1.4-5.9,2.1-8.8c0.6-2.4,1-2.6,3.6-1.8c-0.2,0.7-0.3,1.5-0.8,2c-1.2,1.4-1.4,3.2-1.8,4.9
		c-0.6,2.4-1.5,4.6-2.3,6.9c-1.3-1.3-2.4-2.4-3.5-3.5c-1.2-1.2-2.6-1.3-4.1-0.4c-0.3,0.2-0.7,0.4-1.4,0.7c0.1-1.1,0.2-2.1,0.3-3
		c0.2-3,0.4-6.1,0.6-9.1c0-0.6,0.2-1.3,0.3-1.9c0.3-1.6,1.2-2.2,2.9-2.4c3.8-0.5,7.6-0.4,11.6,0.3c-0.3,1-0.6,1.9-1,2.8
		c-0.1,0.2-0.6,0.4-0.9,0.4c-2.1,0.1-4.2,0-6-1.3c-0.6-0.4-1.4-0.7-2.2-1c-0.1,0.1-0.2,0.3-0.3,0.5c0.9,0.8,1.7,1.7,2.7,2.5
		c0.7,0.6,1,1.2,0.9,2.2c-0.4,3.4-0.7,6.7-1,10.1C375.3,223,375.4,223,375.5,223z"/>
	<path class="st0" d="M379.9,242.5c-3.7-6.2-0.6-14.8,5.9-16.8c1.5-0.5,2.7-0.3,3.9,0.7c4.4,3.6,8.9,7.1,13.2,10.8
		c2.9,2.4,5.5,5,7.1,8.5c1.6,3.6,1.1,6.6-1.8,9.7c0-1.9,0-3.6,0-5.4c0-0.7-0.1-1.6-0.5-2.1c-3.1-4.6-6.2-9.1-10.4-12.8
		c-1.7-1.5-3.7-2.9-5.8-3.9c-3-1.4-5.8-0.8-7.7,1.9c-1.4,2-2.2,4.4-3.2,6.6C380.3,240.5,380.1,241.4,379.9,242.5z"/>
	<path class="st0" d="M278.9,27.8c2.4-6.2,4.6-12.2,8.9-17.3c1.5,11.2,1.9,22.4,2.8,33.8c-1.4-0.3-2-1-2.2-2.3
		c-0.2-1.8-0.5-3.6-0.9-5.4C286.4,32.1,283.8,29,278.9,27.8z"/>
	<path class="st0" d="M247.7,147.2c-0.1,1.3-0.5,1.9-1.8,2.1c-5.1,0.9-8.7,4.1-11.2,8.5c-1,1.7-2.2,2.6-3.9,3.2
		c-0.7-3.2-1.2-6.6-2.2-9.7s-2.5-6.2-3.9-9.4C231.8,146.1,239.6,146.9,247.7,147.2z"/>
	<path class="st0" d="M427.4,256.7c0.6-1.3,0.9-2.9,1.8-4c2.7-3.2,5.5-6.4,8.5-9.2c3.5-3.4,6.8-6.9,8.9-11.4
		c0.1-0.2,0.1-0.4,0.3-0.9c-1.8,1.8-3.4,3.3-5,4.9c0.2-0.9,0.4-1.6,0.5-2.4c0.8-3.1,0.5-6-0.9-8.8c-1.6-3.1-1-4.6,2.5-6.1
		c0.6,1,1.2,2,1.7,3.1c1.2,2.7,2.3,5.4,3.4,8.1c0.7,1.7,0.4,3.5-0.5,5c-1.5,2.3-3,4.7-5,6.7c-5,5.1-10.2,10.1-15.4,15.1
		c-0.1,0.1-0.2,0.1-0.3,0.2C427.7,256.8,427.5,256.8,427.4,256.7z"/>
	<path class="st0" d="M221.7,217c3.1,2.2,8.1,0.9,11.9-3.3c0.6,7.9,1.1,15.6,1.7,23.3C232.7,235.9,221.4,219.2,221.7,217z"/>
	<path class="st0" d="M308.7,285.3c-0.7-0.2-1.5-0.4-2.1-0.8c-2.7-1.5-5.4-3.1-8.1-4.7c-0.4-0.2-0.8-0.4-1.3-0.6
		c-2.5-1-3.3-0.5-3.5,2.2c-0.1,1.4-0.6,1.8-1.8,1c-2.3-1.4-4.5-2.9-6.8-4.5c-0.2-0.2-0.3-1-0.1-1.2c0.7-0.7,1.5-1.3,2.3-1.8
		c1.2-0.8,2.6-1.2,3.7-2.1c1.3-1,2.3-1.1,3.7-0.3c3.6,2.2,7.2,4.4,10.9,6.6c1.4,0.8,2.8,1.6,4.4,2.2c1.4,0.6,1.2,1.5,1.1,2.6
		c-0.1,1.2-1.1,0.9-1.8,1c-0.1,0-0.3,0-0.4,0C308.8,285.2,308.7,285.3,308.7,285.3z"/>
	<path class="st0" d="M426.5,209.4c3.1-0.4,5.8,1.6,7.6,4.3c0.9,1.2,1.8,2.2,2.8,3.3c0.4,0.5,0.7,1.2,0.7,1.8
		c-0.1,2.3-0.3,4.6-1.7,6.7c-2.1,3.3-5.1,4.8-8.9,4c-4.2-0.9-7.8-3.1-9.5-7.2C415,216.5,419.8,209.4,426.5,209.4z M434.5,220.7
		c-0.1-4.7-2.6-8.2-6.8-9.2c-3.4-0.9-6.5,0.9-7.5,4.3c-1.2,4.3,1.9,9.6,6.5,10.9C430.8,227.9,434.6,225,434.5,220.7z"/>
	<path class="st0" d="M464.1,315.1c1.6-9.6,2.4-19-3.7-27.8c3.1,0.9,5.2,2.6,7,4.9c2.8,3.6,3.6,7.9,3.8,12.4
		c0.2,2.9-0.3,5.6-1.6,8.3c-0.8,1.6-1.9,2.5-3.7,2.3C465.4,315,464.8,315.1,464.1,315.1z"/>
	<path class="st0" d="M452.5,278.2c1.1,1.8,1.3,3.8,1.2,5.9c0,0.3-0.6,0.8-1,0.9c-3.2,0.6-6.5,1.3-9.8,0.9c-1.2-0.1-2.5,0.1-3.8,0.3
		c-3.9,0.6-7.7,1.3-11.5,2.1c-1.4,0.3-2.7,0.8-4,1.2c-0.9,0.3-1.5,0.2-1.5-0.9v-0.1c-0.4-3.9-0.3-3.9,3.6-4.4
		c5.4-0.6,10.7-1.4,16.1-2c2.7-0.3,5.5-0.5,8.2-0.6c2.1-0.1,2.2-0.2,2.4-2.4C452.4,278.9,452.4,278.5,452.5,278.2z"/>
	<path class="st0" d="M218.9,278.5c-0.7-1.9-1.6-2.2-2.6-0.9c-2.1,2.7-5.1,4-7.7,5.9c-2.6,1.8-5.1,2.7-8.3,2c-1.2-0.3-2.5,0-3.7,0
		c0-0.1,0-0.2-0.1-0.4c0.2-0.1,0.4-0.3,0.7-0.3c7.6-2.4,13.2-7.2,17.1-14.1c0.5-0.9,1.1-1.7,1.8-2.5c0.6-0.7,1.2-0.8,1.8,0.2
		c0.7,1.3,1.7,2.5,2.3,3.8C221.3,274.6,220.9,276.7,218.9,278.5z"/>
	<path class="st0" d="M339.1,277.5c0.1,2.5,0,4.6-2.1,6.2c0.1,0.1,0.2,0.2,0.4,0.3c0.4,0,0.8-0.1,1.3-0.1c1.8-0.2,3.5-0.5,5.2-0.5
		c5.3,0.1,10.6,0.3,15.9,0.6c1.8,0.1,3.5,0.3,5.2,0.7c0.8,0.2,1.5,0.7,2.1,1.3c0.9,0.9,0.9,2.4,0.2,3.2c-0.7,0.9-2.3,1.1-3.3,0.4
		c-2.8-2.1-5.9-2.4-9.2-2.1c-1,0.1-1.8-0.1-2.6-0.8c-2.7-2.2-8.2-2.1-11.1,0.2c-0.8,0.6-1.4,0.9-2.4,0.6c-0.6-0.1-1.2-0.2-1.8,0
		c-1.5,0.4-2-0.4-2.5-1.5c-0.6-1.4-0.6-2.7,0.1-4C335.7,280.1,337.1,278.6,339.1,277.5z"/>
	<path class="st0" d="M215.3,33.8c3-1.3,5.7-2.6,8.4-3.7c2.5-1,4.7-0.2,6.6,1.5c2.4,2.3,3.6,5.1,4.3,8.6c-0.6-0.2-1-0.3-1.4-0.5
		c-3.6-1.6-7.2-1.8-10.9-0.5c-0.4,0.2-0.9,0.3-1.2,0.6c-1.2,0.9-2,0.9-2.9-0.5C217.2,37.7,216.4,35.9,215.3,33.8z M226.8,37
		c-2.9-1-7.3,0.3-7.5,2.3C221.8,38.6,224.3,37.8,226.8,37z"/>
	<path class="st0" d="M232.5,162.6c0.2,1.7,0.5,3.4,0.7,5c0,0.4-0.2,0.9-0.5,1.1c-5.9,4-8.5,9.9-9.3,16.7c-0.6,5.5-0.6,11,2,16.1
		c1.2,2.3,2.8,4.5,4,6.3c-4.6-2.2-8.9-14.2-8.4-24.6C221.4,175.8,227.9,164.2,232.5,162.6z"/>
	<path class="st0" d="M206.9,118.9c-0.3-2-0.7-4.1-0.8-6.1c-0.1-1.5,0-3.1,0.4-4.6s0.1-2.7-0.5-4c-2.3-4.8-4.5-9.6-6.6-14.4
		c-0.3-0.7-0.4-1.7-0.1-2.4c4.5-9.3,9-18.6,13.5-27.8c0.4-0.8,0.9-1.6,1.5-2.3c-1.6,4.2-3.1,8.4-4.8,12.5
		c-2.7,6.3-5.6,12.6-8.4,18.9c-0.4,1-0.5,1.8,0.1,2.7c2.4,3.7,4.7,7.5,7,11.3c0.4,0.6,0.6,1.5,0.5,2.1c-1,4.6-1.5,9.3-1.1,14
		C207.4,118.9,207.1,118.9,206.9,118.9z"/>
	<path class="st0" d="M219.7,47.9c1-2.1,2-4.3,3.1-6.4c0.2-0.3,0.6-0.5,1-0.6c2.2-0.6,4.4-0.7,6.6,0.1c1.9,0.7,3.8,1.5,6,2.4
		c-8.3,2.5-13.1,8.5-17.6,15.1c0.2-0.7,0.4-1.4,0.6-2.1c0.6-1.9,1.1-3.7,1.7-5.6C221.7,48.9,221.4,48.5,219.7,47.9z"/>
	<path class="st0" d="M412.3,95.2c-2.2-3.3-2.8-6.8-2.1-10.6c0.3-1.7,1-3.2,2.4-4.3c1.3-1,2.8-1.2,4.4-0.5c1.4,0.7,2,2,1.8,3.5
		c-0.3,2.1-0.8,4.1-1.3,6.1c-0.3,1.1-0.7,2.1-1.1,3.2C415.3,95.5,415.3,95.5,412.3,95.2z"/>
	<path class="st0" d="M389.2,191.5c1.1,0.5,2,0.9,2.9,1.4c4.6,2.1,9.6,2.9,14.6,3.9c2.6,0.6,5.3,1.1,8,1.6c0.9,0.2,1.3,0.5,1.4,1.4
		c0.1,1.2,0.2,2.3,0.5,3.5c0.2,1.1-0.1,1.8-1.3,2c-0.5,0.1-1,0.4-1.8,0.7c-0.1-1.2-0.2-2.2-0.2-3.3c-0.1-1.8-0.3-2-2.2-2.1
		c-6.7-0.5-13.3-1.4-19.4-4.3C388.7,194.8,388.7,194.8,389.2,191.5z"/>
	<path class="st0" d="M236.9,181.4c1-0.7,1.7-1.2,2.5-1.9c0.2,0.4,0.5,0.7,0.6,1.1c2,4.7,4.1,9.4,6,14.2c3,7.4,8.5,10.6,16.2,10.8
		c1.5,0,2.9,0,4.4,0c0,0.2,0,0.4,0.1,0.6c-1.9,0.3-3.9,0.9-5.8,0.8c-8.4-0.3-14.9-4-18.9-11.4c-0.9-1.7-1.4-3.8-1.4-5.8
		C240.6,186.4,240.9,183.1,236.9,181.4z"/>
	<path class="st0" d="M379.3,284.1c0.8,1.4,1.5,2.6,2.1,3.8c0.5,1,1.3,1.4,2.4,1.2c2.2-0.4,4.5-0.7,6.8-0.7
		c-0.4,0.2-0.8,0.3-1.2,0.5c-3.6,1.2-5.8,3.8-6.7,7.3c-1.5,5.6-2.1,11.4-0.8,17.1c0.1,0.3,0.1,0.5,0.1,0.8c0,0.1,0,0.2-0.3,0.8
		c-0.7-1.1-1.5-2-1.6-2.9c-1-7.7-2.3-15.3-1.7-23.1c0.1-1.3,0.4-2.7,0.6-4C379,284.6,379.1,284.5,379.3,284.1z"/>
	<path class="st0" d="M234.1,181.1c1,0.9,1.7,1.7,2.6,2.3c1.3,0.9,2.1,2.1,2,3.8c-0.8,8.5,3.7,14.1,10.4,18.4
		c3.7,2.3,7.8,3.5,12.2,3.4c0.5,0,1,0,1.5,0.2c-3.1,0.5-6.3,0.5-9.3-0.4c-5.8-1.8-10.5-5.1-14.3-9.9c-1.4-1.8-2.4-3.9-2.5-6.3
		c-0.2-2.8-1.2-5-3.5-6.7c-0.1-0.1-0.3-0.2-0.4-0.4c-1.8-1.6-1.8-2,0.2-3.5C233.3,181.7,233.8,181.3,234.1,181.1z"/>
	<path class="st0" d="M454.1,99.8c-1.7-0.6-3.5-1.2-5.4-1.8c0.8-2,13.5-14.6,15.2-15c0,0.3,0.1,0.5,0.1,0.8c0.3,6.5,0,13-1.7,19.3
		c-0.4,1.4-0.8,2.9-2.2,4c-0.2-1.2-0.9-2.2,0.2-3.1c0.2-0.2,0.3-0.5,0.4-0.7c0.8-4.7,1.6-9.4,2.4-14.1c0.2-1,0.4-2.3-0.9-2.8
		c-1.3-0.4-2,0.7-2.5,1.6c-1.4,2.1-2.8,4.2-3.8,6.5C455,96,454.7,97.9,454.1,99.8z"/>
	<path class="st0" d="M264,35.2c2.2-1.4,4.5-2.6,6.7-4.1c3-2,7.6,0.3,8.4,3.1c0.5,1.7,0.9,3.4,1.3,5.3
		C274.8,38.1,269.4,36.6,264,35.2z"/>
	<path class="st0" d="M221.4,28.6c4.1-3.1,10.5-2.9,14.3,0.4c2.9,2.5,4.5,5.9,6,9.3c0.1,0.3-0.2,1-0.4,1.2c-1.1,0.6-2.2,1-3.3,1.4
		c-0.8,0.3-1.2,0-1.4-0.9c-0.7-3.2-1.7-6.3-4-8.8c-2.6-3-5.9-4.2-9.8-2.9C222.5,28.4,222.1,28.5,221.4,28.6z"/>
	<path class="st0" d="M221.4,200.1c1.2,2,2.3,3.9,3.4,5.8c0.2,0.3,0,0.9-0.2,1.2c-5.1,6.6-6.4,14.4-6.9,22.5
		c-0.2,3.7-0.4,7.4-0.5,11.1c0-5.1-0.2-10.3,0.1-15.4c0.3-5.7,0.9-11.4,1.5-17.1C219,205.4,219.9,202.7,221.4,200.1z"/>
	<path class="st0" d="M303,205.4c-3.4-4.6-5.6-9.3-5.7-14.8c0-0.8-0.1-1.5,0-2.2c0.2-0.7,0.6-1.4,1-2.1c0.1,0,0.3,0.1,0.5,0.1
		c0.2,0.9,0.5,1.8,0.7,2.6c1,3.7,2.9,6.9,5.4,9.7c0.7,0.8,0.8,1.5,0.3,2.4C304.5,202.5,303.8,203.9,303,205.4z"/>
	<path class="st0" d="M214.9,71.1c0,7,0,13.8,0,20.5c-0.1,0.1-0.3,0.1-0.5,0.2c-1.4-2-2.9-4.1-4.2-6.1c-0.2-0.3-0.1-0.9,0-1.3
		c1.4-4.2,2.9-8.4,4.3-12.6C214.6,71.6,214.8,71.5,214.9,71.1z"/>
	<path class="st0" d="M366.6,226.4c1.4-1.3,2.6-2.8,4.3-2.3c1.9,0.5,2.9,2.2,3.5,4.2c-0.7,0.1-1.2,0.1-1.6,0.3
		c-0.5,0.3-0.8,0.8-1.2,1.2c0.5,0.3,0.9,0.6,1.5,0.8c0.4,0.1,0.9-0.1,1.5-0.2c-0.3,1.9-0.6,3.7-1,5.4c-0.1,0.3-0.8,0.4-1.2,0.6
		c-0.4,0.2-0.8,0.5-1.2,0.7c0.2,0.4,0.4,0.8,0.7,1.1c1.5,0.9,1.5,0.9,0.6,2.8c-1.3-0.8-2.5-1.6-3.9-2.5c3-2.8,2.4-6.2,1.8-9.5
		C370.1,227.2,368.6,226.6,366.6,226.4z"/>
	<path class="st0" d="M445,129.2c3,0.2,5.2,1.8,6.7,4.2c2.4,4,2.5,8.2,0.8,12.5c-0.4,1-1,1.8-2.3,1c-0.5-0.3-1.2-0.4-2-0.7
		c2.4-2.7,3-5.8,2.3-9.1C449.7,133.6,447.9,131,445,129.2z"/>
	<path class="st0" d="M384,110.1c-1.3-2.2-2.5-4.4-2.3-7.1c0.3-2.8,2.5-4.4,5.2-3.5c1.9,0.7,3.7,1.7,5.5,2.7c-3.4,0.3-5.4,3-8.2,4
		c-0.8,0.3-1,0.9-0.6,1.7c0.3,0.7,0.5,1.3,0.8,2C384.2,110,384.1,110.1,384,110.1z"/>
	<path class="st0" d="M366.5,270c-2.5-1.3-4.7-2.5-7.2-3.8c-0.1-2.1,0-4.5,0.9-6.8c0.5-1.4,1.3-1.5,2.3-0.5c0.7,0.7,1.4,1.5,1.6,2.4
		C365,264.2,365.7,267.1,366.5,270z"/>
	<path class="st0" d="M435.2,202.4c1.4,5.3,3.8,10.1,7.4,14.4c-1,0.8-1.9,1.5-2.9,2.2c-0.2-0.9-0.2-1.9-0.6-2.6
		c-0.4-0.7-1.4-1.1-1.9-1.8c-0.5-0.5-1-1.2-1-1.9c-0.2-1.6-1-2.9-2-4.1c-0.4-0.5-0.5-1.2-0.6-1.8c-0.1-0.8-0.1-1.6-0.3-2.4
		C433.1,202.6,433.1,202.6,435.2,202.4z"/>
	<path class="st0" d="M461.4,158.6c-0.2-0.4-0.4-0.9-0.6-1.3c-2.1-6.6-2.7-13.3-2-20.2c0.4-3.9,0.4-7.9,0.6-11.4
		c0.8,10.6,1.6,21.7,2.5,32.8C461.7,158.6,461.5,158.6,461.4,158.6z"/>
	<path class="st0" d="M288.9,184.7c2,2,3.6,0.9,5.3-0.2c4.6-2.9,6.6-7.2,6.6-12.5c0-1.8,0-3.5,0.1-5.4c0.2,1.2,0.7,2.4,0.7,3.6
		c0.1,2.4,0.2,5-0.1,7.4c-0.8,5.1-4.5,7.9-8.6,10.2C291.7,188.5,288.9,186.5,288.9,184.7z"/>
	<path class="st0" d="M426.7,204.3c-2.6,0-5,0-7.4,0c-0.3,0-0.7-0.5-0.8-0.8c-0.3-1.5-0.4-3-0.6-4.8c1.1,0.1,2.1,0.2,3,0.3
		c1.4,0.2,2.8,0.4,4.2,0.5c0.9,0.1,1.4,0.4,1.4,1.3C426.5,202,426.6,203.1,426.7,204.3z"/>
	<path class="st0" d="M410,241.3c-0.4-0.2-0.5-0.2-0.5-0.3c-0.8-0.9-2.1-1.8-2.1-2.8c-0.1-0.9,1.2-2,1.8-3c1.1-1.8,2.2-3.7,3.3-5.6
		c0.8,1.2,1.5,2.3,2.2,3.4c0.2,0.3,0.1,0.9,0,1.2C413.1,236.6,411.5,239,410,241.3z"/>
	<path class="st0" d="M194.3,79.6c1.8-0.8,3.5-1.3,4.9-2.2c1.4-0.9,2.6-2.1,4.1-3.1c-2.1,4.3-4.1,8.6-6.4,13.3
		C195.9,84.6,195.1,82,194.3,79.6z"/>
	<path class="st0" d="M408.6,221.6c0.8,1.9,1.5,3.5,2.1,5.2c0.1,0.3,0.2,0.8,0,1.1c-1,2-2,4-3.3,6c-1-2.1-2.8-3.9-2-6.2
		C406.2,225.6,407.5,223.7,408.6,221.6z"/>
	<path class="st0" d="M278.8,30c4.1,0.2,7.6,5.5,7.5,12.2c-1.3-0.6-2.5-1-3.7-1.7c-0.3-0.1-0.3-0.7-0.4-1.1c-0.3-1.7-0.4-3.5-1-5
		C280.6,32.8,279.6,31.3,278.8,30z"/>
	<path class="st0" d="M436,234.1c-1.2,1.1-2.3,2.2-3.4,3.2c-1.8,1.6-3.8,3-5.6,4.6c-0.7,0.6-1.2,0.6-1.9,0
		c-3.4-2.9-6.4-6.3-8.8-10.3c1.7,1,2.9,2,4.1,3.5c1.3,1.7,3.2,3,4.9,4.4c0.8,0.7,1.7,0.6,2.5-0.1c1.8-1.7,3.7-3.3,5.4-5
		C434,233.7,434.6,233.3,436,234.1z"/>
	<path class="st0" d="M223.6,138.7c2.9,1.1,5.7,2.4,8.7,3.3c3.8,1.2,7.6,1.6,11.6,1.1c1.8-0.2,3.6-0.2,5.4-0.3
		c0.7,0,1.4,0.2,2.3,0.4c-1.2,1.3-2.2,1.9-3.8,1.9c-6.6-0.2-13.1-0.7-19.2-3.5c-1.8-0.8-3.4-1.8-5.1-2.8
		C223.5,138.8,223.6,138.8,223.6,138.7z"/>
	<path class="st0" d="M206.3,196.5c0.3-1.7,0.5-3.5,0.9-5.2c0.3-1.4,1.2-1.8,2.5-1.1c0.9,0.5,1.8,1.3,2.2,2.2
		c1.1,2.4,0.9,4.9-0.5,7.2c-0.7,1.1-1.7,1.6-2.9,1.1c-1.2-0.4-2.2-1.1-2.1-2.6C206.4,197.6,206.4,197.1,206.3,196.5
		C206.4,196.5,206.3,196.5,206.3,196.5z M209,197.1c-0.6,0.1-0.8,0.2-1,0.3c-0.4,0.2-0.7,0.5-1.1,0.7c0.3,0.3,0.6,0.9,0.9,0.9
		c0.8,0,1.8,0,2.4-0.5c0.9-0.6,0.8-1.7,0.3-2.7c-0.4-0.6-0.9-1.2-1.1-1.5c0.4-0.7,0.7-1.2,0.9-1.8c-0.7-0.1-1.4-0.5-2-0.4
		c-1.4,0.4-1.7,2-0.8,3.2C208,195.9,208.4,196.4,209,197.1z"/>
	<path class="st0" d="M421.3,83c1.1,0.1,2,0.7,1.9,2.1c-0.1,1.8-0.5,3.7-0.9,5.5c-0.2,1.1-0.8,2.1-1.2,3.1c-0.9,2.1-1,2.1-3.3,1.6
		C418.9,91.2,420.1,87.1,421.3,83z"/>
	<path class="st0" d="M216.7,206.3c0.6-7.8-0.3-15.7,2.2-23.4C218.6,190.7,220,198.7,216.7,206.3z"/>
	<path class="st0" d="M362.9,127.9c-0.7-3.2-1.4-6.5-2-9.7c-0.1-0.3,0.1-0.6,0.2-1.3c2,1.1,3.9,2.2,6,3.3c-1.2,2.5-2.5,5.2-3.7,7.8
		C363.2,128,363,127.9,362.9,127.9z"/>
	<path class="st0" d="M367.4,240.2c1.8,1.1,3.2,1.9,4.5,2.7c0.2,0.1,0.5,0.5,0.4,0.8c-0.3,2.3-0.7,4.6-1.1,6.9
		c-1.9-0.3-2.9-1.2-3.1-2.8C367.9,245.3,367.7,242.9,367.4,240.2z"/>
	<path class="st0" d="M223.9,216c0-0.4-0.1-0.6,0-0.7c1-2.2,2-4.5,3-6.7c1.5,1.1,3,2.1,4.4,3.3c0.2,0.2,0.3,0.9,0.1,1.1
		c-0.6,0.7-1.3,1.5-2.1,1.9C227.6,215.7,225.8,216.1,223.9,216z"/>
	<path class="st0" d="M440,144.5c2.2,0.4,4.2,0.2,5.8-1.5c1-1.1,1.5-2.4,1.5-3.9c0-4.2-2.1-6.4-6.9-7.1c0.5-0.3,0.9-0.9,1.4-0.9
		c0.8-0.1,1.7,0,2.4,0.3c4.4,2,5.9,9.6,2.5,13.2c-0.8,0.9-1.7,1.4-3,1.2c-0.9-0.1-1.8,0.1-2.6-0.1c-0.5-0.1-0.9-0.5-1.3-0.7
		C439.9,144.8,439.9,144.6,440,144.5z"/>
	<path class="st0" d="M460.9,90c0,0.3,0,0.6,0,0.9c-0.7,3.8-1.4,7.7-2,11.6c-2.2-1.1-2.5-1.5-2.3-3.7C456.9,95.3,459,92.7,460.9,90z
		"/>
	<path class="st0" d="M435.5,197.8c0.2,1.7-0.2,2.3-1.8,2.8c-2.8,0.8-2.8,0.8-2.4,3.7c0.1,0.5,0.1,1.1,0.2,1.7
		c-2.3-0.4-2.6-0.8-2.8-3c-0.1-0.9-0.3-1.9-0.3-2.8c0-0.4,0.4-1,0.7-1.1C431.2,198.6,433.3,198.3,435.5,197.8z"/>
	<path class="st0" d="M285.6,76.7c1.1-1.8,3.2-2.3,5.2-1.3c2.8,1.5,4.6,3.9,5.5,6.9c0.5,1.5,0.6,3.2,0.9,4.7
		c-0.2,0.1-0.4,0.1-0.6,0.2c-0.2-0.4-0.5-0.9-0.6-1.3c-0.6-2.4-1.3-4.8-2.9-6.8c-1.2-1.5-2.8-2.7-4.8-2.8
		C287.4,76.3,286.5,76.6,285.6,76.7z"/>
	<path class="st0" d="M412.8,210.6c-0.4-1.2-0.1-2.1,1.1-2.8c2.3-1.2,4.7-1.7,7.3-1.6c2.2,0.1,4.4,0.3,6.5,0.5
		c0.5,0.1,1,0.4,1.5,0.9c-0.6-0.1-1.3-0.2-1.9-0.2c-2.4-0.2-4.7,0.1-6.9,1.2c-0.4,0.2-1.1,0.2-1.5-0.1c-1.6-1.1-2.3-1.1-3.9,0.1
		C414.2,209.2,413.5,209.9,412.8,210.6z"/>
	<path class="st0" d="M369.1,232.7c-0.3,1.1-0.4,2.3-0.9,3.3c-0.6,1.1-1.4,0.9-1.7-0.2c-0.5-1.8-0.8-3.6-0.8-5.5
		c0-0.6,1-1.4,1.7-1.7c1-0.3,1.3,0.7,1.4,1.5S368.9,231.8,369.1,232.7C369,232.7,369,232.7,369.1,232.7z"/>
	<path class="st0" d="M221.2,221.4c4.7,6.2,7.6,13.8,14,18.7C231.9,239.6,221.8,225.9,221.2,221.4z"/>
	<path class="st0" d="M402.4,94.2c1.2-1.9,2.7-2.6,4.5-2.3c1.5,0.3,2.7,1.7,3,3.5C407.1,96.4,405,94.3,402.4,94.2z"/>
	<path class="st0" d="M446.8,99.5c2.8,0.9,5.6,1.9,8.5,2.8c-1.4,1-2.5,1.7-3.9,2.7c-1.5-1.6-3.1-3.3-4.7-5.1
		C446.7,99.8,446.7,99.6,446.8,99.5z"/>
	<path class="st0" d="M448.1,104.9c-0.9,0.2-2,0.5-3.4,0.8c0-2.6-2-3.6-4.1-4.7c1.3-0.9,2.7-1,3.8,0
		C445.8,102.2,447,103.7,448.1,104.9z"/>
	<path class="st0" d="M282.6,148.7c-1.4-1.5-2.7-3-4.1-4.6c1.4-0.3,2.6-0.7,3.8-0.9c0.2-0.1,0.6,0.1,0.7,0.2
		C284,144.4,283.8,147.5,282.6,148.7z"/>
	<path class="st0" d="M375.6,278.5c1.8,1.4,2.5,2.7,1.8,4.8c-0.5,1.6-0.7,3.3-1.2,5C375.4,285.1,375.4,282,375.6,278.5z"/>
	<path class="st0" d="M203.9,109c-1.3-4-2.6-8.1-4-12.1c0.1,0,0.2-0.1,0.2-0.1c0.1,0.2,0.3,0.3,0.4,0.5c1.3,2.7,2.6,5.4,3.7,8.2
		c0.4,1,0.2,2.3,0.2,3.4C204.4,109,204.1,109,203.9,109z"/>
	<path class="st0" d="M427.3,237.6c-0.6-0.1-1.3,0.1-1.7-0.2c-1.5-1.4-2.9-2.8-4.3-4.3c-0.2-0.2-0.1-0.9,0.1-1.2
		c0.5-0.6,1.1-1,1.7-1.4c0.2,0.3,0.6,0.6,0.6,0.9c0.2,0.8,0.2,1.7,0.3,2.5c0.4,2.7,0.6,2.9,3.2,3.2
		C427.3,237.3,427.3,237.4,427.3,237.6z"/>
	<path class="st0" d="M283.6,140.1c-0.5,0.3-1,0.9-1.6,0.9c-2.8,0.3-5.6,2.8-8.5,0.1c3.3-0.5,6.6-1,9.9-1.5
		C283.4,139.8,283.5,140,283.6,140.1z"/>
	<path class="st0" d="M435.9,242c-0.2-2.4-1.1-5,1.7-6.6C438.5,238.5,437.9,240.9,435.9,242z"/>
	<path class="st0" d="M439.5,225.6c1.7,3.2,1.4,6.1,0.5,9.1c-0.1,0-0.3,0-0.5,0C439.5,231.8,439.5,228.9,439.5,225.6z"/>
	<path class="st0" d="M425.8,231.5c1.4,0.2,2.4,0.3,3.7,0.4c-0.2,1-0.2,2-0.7,2.6c-0.4,0.4-2,0.5-2.1,0.2
		C426.1,233.8,426,232.7,425.8,231.5z"/>
	<path class="st0" d="M414.7,217.9c0.1,1.3,0.2,2.5,0.2,3.6c0,0.2-0.5,0.7-0.8,0.7c-0.9,0.1-1.9-0.1-1.9-1.1
		c-0.1-0.8,0.4-1.7,0.8-2.4C413.2,218.3,414,218.2,414.7,217.9z"/>
	<path class="st0" d="M421,229.4c-0.8,0.8-1.2,2.2-2.6,1.2c-1.6-1.1-1.8-2.6-0.6-3.8C418.7,227.6,419.8,228.4,421,229.4z"/>
	<path class="st0" d="M254.8,212.4c-3.3,2-6.8,2-10.6,1.3C247.9,213.3,251.3,212.8,254.8,212.4z"/>
	<path class="st0" d="M410,218.4c-0.3-1.5-0.6-2.9-0.8-4.4c0-0.2,0.3-0.5,0.6-0.7c0.8-0.4,1.6-0.7,2.4-1.1c0.1,0.1,0.2,0.3,0.4,0.4
		c-0.3,0.3-0.5,0.8-0.8,1c-1.6,0.7-1.6,0.7-1.1,2.5c0.2,0.7,0.1,1.5,0.2,2.3C410.5,218.3,410.3,218.4,410,218.4z"/>
	<path class="st0" d="M455.9,109.1c-0.7-0.7-1.4-1.3-2.1-2c-0.8-0.8,0-1.3,0.5-1.7c0.3-0.2,1.3-0.1,1.3,0.1c0.4,1.1,0.5,2.3,0.8,3.5
		C456.2,109,456.1,109.1,455.9,109.1z"/>
	<path class="st0" d="M437.1,227.7c0.4,1.8,0,3.5-1.1,3.8c-0.6,0.1-1.4-0.4-1.8-0.5C435.2,229.7,436.2,228.7,437.1,227.7z"/>
	<path class="st0" d="M445.2,136.7c-1,0.7-1.5,1.4-2.2,1.4c-0.3,0.1-1.1-1.1-1.1-1.5c0.1-0.6,0.8-1.3,1.4-1.5
		C443.8,135.1,444.4,136,445.2,136.7z"/>
	<path class="st0" d="M290.4,82.8c-0.2,1,0.8,2.3-0.6,3c-0.6,0.3-1.6,0.2-1.7-1C288,83.6,288.7,82.9,290.4,82.8z"/>
	<path class="st0" d="M411.5,223.9c2.3,0.6,3.4,2.5,3.1,5.4C413.6,227.6,412.7,225.9,411.5,223.9z"/>
	<path class="st0" d="M305,104.5c-1.2-2.1-0.8-4.8,0.6-5.7C306,100.7,305.5,102.4,305,104.5z"/>
	<path class="st0" d="M416.2,213.5c-0.5-0.6-1.4-1.3-1.3-1.6c0.3-0.7,0.9-1.3,1.6-1.8c0.2-0.2,0.8,0.1,1.3,0.2c-0.1,0.3,0,0.7-0.2,1
		C417.2,211.9,416.7,212.6,416.2,213.5z"/>
	<path class="st0" d="M288,191.6c0.1-0.8,0.2-1.5,0.4-2.3c0-0.2,0.1-0.4,0.3-0.8c0.8,0.4,1.5,0.8,2.5,1.2c-1,0.8-1.9,1.5-2.8,2.1
		C288.2,191.8,288.1,191.7,288,191.6z"/>
	<path class="st0" d="M292.7,81.6c-0.4-0.2-0.9-0.3-1.2-0.6c-1.5-1.5-3.2-2.4-5.6-1.6c1.7-1.5,3.5-1.3,5.1,0.3
		C291.5,80.3,292.1,81,292.7,81.6L292.7,81.6z"/>
	<path class="st0" d="M185.8,285.2c1.1,0.4,2.2,0.7,3.3,1.1C186.6,287.4,185.7,287.9,185.8,285.2z"/>
	<path class="st0" d="M415.2,216.1c-0.8,0-1.6,0-2.5,0c-0.1-0.1-0.1-0.2-0.2-0.3c0.6-0.4,1.2-1,1.9-1.2c0.2-0.1,0.7,0.7,1.1,1
		C415.4,215.8,415.3,216,415.2,216.1z"/>
	<path class="st0" d="M370,255.4c-0.3-1-0.6-2-1-3C371,252.6,371.1,252.9,370,255.4z"/>
	<path class="st0" d="M373.5,287.9c-0.4-0.9-1.7-1.7,0-3.2c0.2,1.3,0.3,2.2,0.4,3.1C373.8,287.9,373.6,287.9,373.5,287.9z"/>
	<path class="st0" d="M292.7,81.6c0.3,0.9,0.5,1.7,0.8,2.6c0.2,0.7,0.4,1.5,0.6,2.2c-0.1,0-0.2,0.1-0.3,0.1
		c-0.1-0.2-0.3-0.3-0.4-0.5c-0.3-1.2-0.6-2.3-0.8-3.5C292.4,82.2,292.6,81.9,292.7,81.6L292.7,81.6z"/>
	<path class="st0" d="M431.1,233.2c0.2-0.6,0.3-1.2,0.5-1.8c0.3,0.1,0.8,0.3,0.8,0.4c-0.1,0.6-0.4,1.1-0.6,1.6
		C431.5,233.3,431.3,233.2,431.1,233.2z"/>
	<path class="st0" d="M390.7,105.2c-1,0.7-2.1,1.3-3.1,2c-0.1-0.1-0.1-0.2-0.2-0.3c1-0.7,2-1.3,3.1-2
		C390.5,105,390.6,105.1,390.7,105.2z"/>
	<path class="st0" d="M112.4,139.2c-0.4,3.3,1.1,5.7,3.4,7.6c2.7,2.2,5.8,3.5,9.4,3.4c3.8-0.1,6.6-2.1,7.9-5.6
		c0.1-0.4,0.3-0.7,0.5-1.4c4.1,6.4,10.3,9.4,16.8,12.2c6.4,2.8,13,4.9,20.2,4c0.1,0.3,0.2,0.5,0.2,0.6c0.7,6.2,1,12.4-0.3,18.5
		c-1,4.8-3.6,8.7-7.5,11.6c-7.1,5.2-14.8,9.4-22.8,13c-4.1,1.8-8.4,3-12.9,3.4c-14.3,1.2-28.3-0.2-41.9-5c-7.5-2.6-15-5-22.6-7.5
		c-6.4-2.1-11.8-5.5-15.6-11.2c-4.9-7.4-4.8-15.4-2.4-23.5c0.5-1.6,1.2-3.1,1.8-4.6c0.2-0.6,0.5-0.9,1.3-0.6
		c6.6,2.4,13.4,2.5,20.3,2.4c13-0.3,24.6-4.7,35.2-12c2.4-1.7,5-3.2,7.6-4.8C111.3,139.7,111.8,139.5,112.4,139.2z M124.7,165.9
		c1.9-0.2,4.2-0.4,6.5-0.6c4.6-0.5,8.6-2.3,12.1-5.3c0.5-0.4,1.1-1.2,1-1.7c-0.3-2-1-3.9-2.7-5.2c-1.1-0.9-2.3-0.6-2.9,0.6
		c-0.4,0.8-0.6,1.7-0.8,2.5c-1.4,5.8-2.2,6.5-8.1,7.2c-0.2,0-0.4,0-0.6,0.1c-8.1,0.7-16-0.6-23.8-2.4c-1.4-0.3-1.6-1-1.8-2.3
		c-0.2-1.9-0.4-3.9-1.3-5.5c-1.8-3.2-5.6-2.8-7.2,0.4c-0.3,0.5-0.4,1.2-0.8,1.6c-0.7,0.9-0.5,1.6,0.3,2.2c2,1.4,3.8,3.1,6,4
		C108.3,164.5,116.3,165.3,124.7,165.9z M87.3,163.4c-0.1-0.1-0.2-0.1-0.2-0.1c-1.2,1.9-2.5,3.7-3.6,5.6c-3.5,6.2-6,12.7-6.6,19.9
		c-0.1,1.7,0.1,3.5,0.2,5.2c0.2,0,0.3,0,0.5,0c0.6-5.4,1.1-10.8,3.3-15.8C82.9,173.2,85.1,168.3,87.3,163.4z M148,162.5
		c2,5,3.9,9.8,5.7,14.4C153.1,171.9,151.8,166.8,148,162.5z"/>
	<path class="st0" d="M120.3,217.3c2.1-0.1,4.2-0.3,6.4-0.5c0.6,0,1.2,0,1.7-0.2c2.8-0.9,5.1,0.1,7.5,1.6
		c6.3,3.8,11.2,8.9,15.3,14.9c0.6,0.9,0.6,1.5-0.1,2.4c-6,7.8-12,15.7-18.1,23.5c-1.6,2.1-1.7,2,0.4,3.8c0.1,0.1,0.2,0.2,0.3,0.4
		c-0.3,0.2-0.5,0.5-0.8,0.7c-3.4,2.2-6.8,4.4-10.2,6.7c-0.6,0.4-0.9,1-1.4,1.5c0.6,0.4,1.2,1,1.9,1.1c1.1,0.1,1.4,0.6,1.4,1.7
		c0.1,7-2.8,12.9-7.4,18c-7,7.6-15.3,13-25.7,14.9c-1.1,0.2-1.6,0.1-2-1.1c-1.8-5.6-6.1-8.4-12.1-8c-0.7,0-1.4-0.1-1.9-0.2
		c1.3-4.4,2-8.7,0.5-13.1c-0.2-0.5-0.3-1.2-0.2-1.8c0.5-3.2,1.1-6.3,1.6-9.5c0.1-0.9,0.5-1.3,1.3-1.5c5.5-1.7,4.1-1.8,3.3-5.9
		c-0.1-0.5-0.2-0.9-0.3-1.4c-0.2-0.7-0.1-1.2,0.6-1.6c2.7-1.6,3.5-4,2.8-6.8c-0.4-1.8-1.2-3.5-2.1-5.2c-3.4-6.3-7.6-12.1-12.1-17.6
		c-0.8-0.9-0.7-1.4,0-2.3c5.9-7.1,12.7-13.1,20.6-17.9c1.2-0.7,2.2-0.9,3.6-0.6c4.6,1.2,9.2,2.2,14.1,3.4c-1.4,0.2-2.6,0.3-3.8,0.5
		c-2,0.4-3.9,0.8-5.9,1.3c-0.9,0.2-1.4,0.7-1.4,1.8c0,2.1-0.4,2.7-2.5,3.1c-1.6,0.3-2,1.1-2.1,2.7c-0.2,6.4,0.4,12.7,3.2,18.6
		c3.1,6.5,8.2,11,14.2,14.6c0.7,0.4,2,0.4,2.9,0.1c12.1-3.9,21.2-15.9,20.7-30.1c0-0.6-0.1-1.3,0-2c0.1-1.1-0.5-1.7-1.5-2.1
		c-0.8-0.3-1.5-0.7-2.3-1.1c-0.8-0.4-1.4-0.9-1.4-2c0-0.5-0.7-1.2-1.3-1.5c-1.2-0.7-2.6-1.4-3.9-1.9s-2.7-0.9-4.1-1.3
		C120.3,217.5,120.3,217.4,120.3,217.3z M88.2,262.6c5.3,4.7,14.8,7.2,22.1,5.9c2.9-0.5,5.7-1.2,8.6-2c2-0.5,4-1.3,5.9-2
		c0-0.1-0.1-0.3-0.1-0.4c-2.9,0.6-5.7,1.2-8.6,1.9c-7.7,2-15.3,2-22.7-1.5C91.9,263.7,90.1,263.2,88.2,262.6z M117.5,275
		c-0.1-0.1-0.2-0.3-0.2-0.4c-2.9,1.4-5.8,2.8-8.7,4.2c0.1,0.1,0.1,0.2,0.2,0.4C112.1,278.6,115,277.4,117.5,275z"/>
	<path class="st0" d="M32.4,280.5c4.8-1.3,7.2,0.4,7.7,3c-0.8,0.5-1.4,0.3-2-0.4c-1.9-2.1-3.8-1.9-5.4,0.4c-0.3,0.4-0.9,1-1.3,0.9
		s-0.9-0.8-1-1.2c-1.1-5-2.3-10-3-15c-0.6-4.5-0.9-9-0.7-13.5c0.4-7,2.1-13.7,4.3-20.3c0.3-0.9,0.8-1.2,1.6-0.6
		c12.5,7.9,25.3,15.4,35.3,26.6c2.6,3,5.1,6,7.6,9.1c0.4,0.5,0.7,1.3,0.6,1.9c-0.6,4-1.3,7.9-1.9,11.8c-5.8-1.4-11.5-0.6-17.2-0.4
		c-4.5,0.1-9,0.5-13.5,0.9c-0.8,0.1-1.1-0.2-1.5-0.9C39.9,277.9,36.3,277.2,32.4,280.5z M29.6,267.5c0,0.1,0,0.3,0,0.4
		c2,0.5,4,1.2,6,1.5c6.2,0.7,12.1-0.2,17.6-3.1c1-0.5,1.9-0.6,2.9-0.1c2.1,1,4.3,1.9,6.4,2.9c2.3,1.1,4.6,2.3,7.2,3.6
		c-4-3.8-8.5-6.1-13.4-7.9c2-1.3,3.7-2.4,5.4-3.6C51.4,265.6,41.3,270.2,29.6,267.5z"/>
	<path class="st0" d="M97.1,143.9c1.1-1.9,2.2-3.4,2.8-5c2.5-7-1.7-14.3-8.1-16.1c-7.4-2-14.5-0.8-20.2,4.8
		c-2.4,2.3-3.8,5.2-4.2,8.5c-0.5,4.6,1.6,7.6,6.2,8.4c6.1,1.2,12.2,0.9,18.2,0.1c1.1-0.1,2.3-0.3,3.4-0.4c0,0.1,0.1,0.2,0.1,0.3
		c-0.6,0.3-1.2,0.6-1.8,0.8c-12,4.8-24.3,6.2-37.1,4.2c-1.9-0.3-3.8-1-5.7-1.5c-1-0.2-1.3-0.9-1.3-1.8c-0.3-5.1,0.6-10,2.3-14.8
		c2.7-7.4,6.4-14.2,11.4-20.3c3.3-4.1,7.7-6.7,12.5-8.6c0.3-0.1,0.6-0.2,1-0.2c9.2-0.6,18.2,0.2,26.6,4.4c2.2,1.1,4.2,2.6,6.3,3.9
		c0.3,0.2,0.7,0.6,0.7,1c0.4,7.1,0.6,14.1-2.2,20.8c-0.8,1.9-1.7,3.8-2.7,5.5c-0.5,0.9-1.4,1.7-2.3,2.3
		C101.2,141.7,99.3,142.7,97.1,143.9z M74.2,111.2c0.2,0.3,0.4,0.5,0.6,0.8c0.5-0.1,1,0,1.4-0.2c4.2-1.5,8.5-1.4,12.8-0.4
		c0.6,0.1,1.3,0.3,1.9,0.2c1.2-0.2,1.7-1.1,1.7-2.2c0.1-1.1-0.7-1.5-1.6-1.6c-1.4-0.2-2.8-0.4-4.2-0.5c-4.1-0.3-7.9,0.7-11.2,3.2
		C75.3,110.7,74.7,110.9,74.2,111.2z"/>
	<path class="st0" d="M40.5,216.1c2.2-3,4.4-5.9,6.5-8.9c0.5-0.6,0.9-1.3,1.1-2.1c0.7-2.2,2-3.9,3.8-5.3c0.2-0.2,0.7-0.4,1-0.3
		c2.9,0.5,5.8,1,8.7,1.6c0.6,0.1,1.1,0.3,1.7,0.5c-1.5,1.2-2.8,2.4-4.2,3.6c-1.1,0.9-1.4,2.1-1,3.5c0.1,0.5,0.1,1,0.3,1.5
		c1,2.6,0.3,4.8-1.5,6.9c-1.4,1.6-2.6,3.6-3.8,5.3c-0.2,0.3-0.3,0.6-0.3,1.1c0.3-0.3,0.7-0.6,0.9-0.9c2.2-2.4,4.4-4.8,6.7-7.2
		c0.7-0.8,0.9-1.5,0.6-2.5c-0.4-1.5-0.7-3-0.9-4.5c-0.1-0.6,0.3-1.4,0.6-2c0.3-0.5,0.9-0.9,1.4-1.4c2.4-2,4.7-2.8,7.9-1.2
		c5.8,2.8,11.8,5,17.8,7.5c0.8,0.4,1.8,0.6,2.8,0.9c-0.3,0.3-0.5,0.5-0.7,0.6c-8.2,5-15.1,11.5-21.2,18.9c-0.9,1.1-0.7,1.8,0.1,2.8
		c5.1,6.1,9.7,12.6,13.4,19.6c0.6,1.2,1.1,2.6,1.4,3.9c0.3,2-0.5,3.3-2.5,4.2c-0.4-0.9-0.7-1.9-1.1-2.8c-2.6-6.3-6.3-11.8-10.7-17
		c-7.2-8.5-14.8-16.6-23.8-23.2c-0.8-0.6-1.6-1.1-2.4-1.7C42.4,217.1,41.5,216.7,40.5,216.1z"/>
	<path class="st0" d="M171.7,240.8c0.1,0.7,0.3,1.3,0.4,2c0.9,6.8,0.9,13.7,0.1,20.5c-0.7,5.7-1.6,11.5-2.4,17.2
		c-0.1,1.1-0.5,1.6-1.8,1.7c-11.1,0.8-22.1,1.6-33.2,2.5c-1.1,0.1-2.2,0.3-3.3,0.5c-0.9,0.2-1.4,0-1.5-1c-0.4-3.2-0.8-6.4-1.1-9.6
		c0-0.3,0.3-1,0.6-1c4.1-1.1,7.3-3.8,10.6-6.4c6.9-5.5,13.9-10.8,20.7-16.4c3.7-3,7.1-6.4,10.6-9.6
		C171.3,241,171.5,240.9,171.7,240.8z M158.5,263.3c-0.3,0.2-0.4,0.3-0.6,0.4c-4.3,2.3-8.7,4.5-12.9,7s-8.1,5.3-12.7,7
		c-0.3,0.1-0.6,0.3-0.9,0.5c0.9,0.1,1.7,0.1,2.4-0.2c3.1-1.4,6.2-2.8,9.2-4.4c5.4-2.9,10.8-5.9,16.2-8.8c0.8-0.4,1.4-0.3,2.2,0.1
		c2.3,1,4.6,1.8,6.9,2.8c0-0.1,0.1-0.2,0.1-0.3c-5.1-3.1-10.3-6.1-15.4-9.2c-0.1,0.1-0.1,0.1-0.2,0.2
		C154.7,260,156.6,261.6,158.5,263.3z"/>
	<path class="st0" d="M145.6,148.2c1.6,0,3.1,0,4.7,0c1.5-0.1,3-0.1,4.5-0.3c1.4-0.2,2.5-1,2.9-2.3c1.5-5.9,1-11.6-3-16.3
		c-3.9-4.6-9.1-6.3-15-4.9c-5,1.1-7.9,4.6-8.8,9.6c-0.1,0.4-0.1,0.8-0.5,1.2c-0.2-1.1-0.5-2.3-0.7-3.4c-1.4-6.2-1.2-12.4-0.3-18.6
		c0.1-0.8,0.7-1.7,1.4-2.2c4.8-3.4,10.1-5.6,16.1-5.6c0.6,0,1.2,0,1.8,0.1c3.3,0.1,5.6,1.3,7.3,4.6c3.7,7.1,5.5,14.7,6.7,22.5
		c0.8,5,1.8,9.9,2.7,14.9c0.4,2.3,1.4,4.2,3.1,5.8c0.2,0.2,0.3,0.4,0.6,0.9c-0.6,0.2-1.1,0.5-1.6,0.5c-1.9-0.1-3.9,0-5.7-0.4
		C156.1,152.9,150.9,150.5,145.6,148.2z M153.3,116c-0.2-0.6-0.2-0.7-0.3-0.9c-1.6-2.7-7.2-5.2-10.2-4.7c-1.1,0.2-1.9,1.4-1.7,2.7
		c0.1,1.3,1.1,1.2,2,1.1c2.9-0.2,5.7,0.3,8.5,1.4C152,115.8,152.5,115.8,153.3,116z"/>
	<path class="st0" d="M39.6,118c1.2-2.8,2.3-5.4,3.5-8.1c0.8-1.8,1.7-3.6,2.8-5.3c0.7-1.2,1-2.3,0.6-3.6c-0.3-1,0-1.8,0.8-2.5
		c1.4-1.1,2.7-2.3,4-3.5c0.7-0.6,1.2-0.7,1.9-0.1c2.3,1.8,4.6,3.7,7,5.4c0.5,0.4,1.5,0.8,1.9,0.6c0.5-0.2,0.7-1.2,0.9-1.8
		c0.3-1.1,0.4-2.3,0.7-3.4c0.7-2.4,2.1-4,4.7-4.7c4.8-1.3,9.6-2.7,14.4-4c0.5-0.1,1.4,0.1,1.8,0.5c2.6,2.2,5.1,4.6,7.6,6.8
		c0.4,0.4,0.9,0.7,1.4,1.1c0.1-0.1,0.2-0.2,0.4-0.3c-0.3-0.4-0.5-0.9-0.9-1.3c-4.1-4.1-8.2-8.1-12.4-12.2c-0.4-0.3-0.9-0.6-1.3-0.9
		c3.8-3.1,10.3-3.3,13.6-0.4c2,1.8,3.9,3.8,5.2,6.1c3,5.1,5.7,10.5,8.3,16c-0.4-0.2-0.9-0.3-1.3-0.5c-12.1-4.9-24.6-6.4-37.1-2.3
		c-10,3.3-18.1,9.4-23.1,19c-0.2,0.3-0.8,0.7-1.1,0.6C42.6,119.1,41.2,118.6,39.6,118z"/>
	<path class="st0" d="M14.2,300.2c-3.2,2.1-4.6,5.1-4.9,8.6c-0.3,3.5,0.3,7,1.1,10.4c0.1,0.5,0.2,1,0.3,1.8c-2.1,0-4.1,0-6,0
		c-0.3,0-0.8-0.5-0.9-0.9c-0.6-3.5-1.5-7-1.7-10.5c-0.4-6.6,2.7-10.5,9.1-12.1c5.5-1.4,11-1.8,16.6-1.1c1.3,0.2,2,0.6,2.4,1.9
		c0.3,1.4,0.8,2.7,1.2,4c0.4,1.1,1.1,1.8,2.3,2c0.4,0.1,0.9,0.5,1.1,1c1.1,2.6,2.2,5.2,3.2,7.9c0.3,0.7,0.3,1.7,0.1,2.4
		c-0.5,1.4-1.2,2.7-2,4c-0.3,0.4-1,0.7-1.5,0.8c-3.1,0.1-6.2,0.1-9.4,0.2c-0.8,0-1.1-0.3-1.2-1c-0.5-3.4-1.1-6.7-1.5-10.1
		c-0.3-3.4,0.9-6.2,3.5-8.5c0.2-0.1,0.3-0.3,0.5-0.5c0,0,0-0.1,0-0.2c-2.3,0.6-3.9,2-4.6,4.1c-0.6,2-0.9,4.2-0.9,6.3
		c0.1,2.7,0.6,5.5,0.9,8.2c0.1,0.5,0.1,1,0.1,1.7c-3,0.1-6,0.2-8.9,0.2c-0.3,0-0.7-0.3-0.8-0.6c-1.5-4.7-2.7-9.5-1.2-14.4
		C12.1,303.9,13.2,302.2,14.2,300.2z"/>
	<path class="st0" d="M70.8,299.2c-8.2,0.5-16.1,1.9-23.7,4.9c0,0.1,0,0.2,0.1,0.3c2.6-0.5,5.3-1.2,7.9-1.6c4.1-0.6,8.1-1,12.2-1.5
		c1.5-0.2,2.5,0.5,3.2,1.8c2.3,4.6,2.5,9.4,1.5,14.3c-0.3,1.3-0.7,2.6-1,3.9c-0.2,0.9-0.6,1.2-1.5,1.2c-4.3,0.1-8.6,0.2-12.9,0.4
		c-5.5,0.3-9.8-2-13.3-6.2c-3-3.6-4.9-7.9-6.4-12.4c-0.3-0.9,0.1-1.2,0.8-1.6c4-1.9,8.2-3.1,12.6-3.4c6.1-0.4,12.2-0.7,18.3-1
		c0.7,0,1.4,0.1,2.2,0.2C70.7,299,70.8,299.1,70.8,299.2z"/>
	<path class="st0" d="M75.1,290.5c-0.1,1.3-0.2,2.8-0.4,4.3c-0.2,2-0.4,2.2-2.4,2.1c-7-0.6-14,0.1-21,0.5c-5.3,0.3-10.3,1.6-15.1,4
		c-0.5,0.2-1,0.6-1.5,0.6s-1.2-0.3-1.4-0.7c-1.3-3.6-2.6-7.3-3.7-11c-0.7-2.2,0.6-4,2.9-4.1c11.2-0.7,22.4-1.4,33.7-2
		c1.6-0.1,3.2-0.1,4.8,0.1c2.8,0.3,3.8,1.4,4.1,4.2C75.1,289.2,75.1,289.8,75.1,290.5z"/>
	<path class="st0" d="M80.5,77.8c-0.5-4.9,1.4-8.1,6.1-9.2c3.4-0.8,7-1.1,10.5-1.5c2-0.2,3.7,0.8,5.2,2.1c4,3.4,6.9,7.8,8.7,12.7
		c2.3,6.3,4.1,12.9,6.1,19.3c0.9,3,1.9,6,2.8,8.9c0.1,0.4,0.2,0.9,0.5,1.7c-1-0.5-1.7-0.8-2.3-1.2c-2.6-1.9-5.1-3.8-7.6-5.8
		c-0.7-0.6-1.1-1.5-1.6-2.3c-2.9-5.4-5.6-10.9-8.6-16.3c-1.2-2.1-2.8-4-4.4-5.8c-3.6-4-8-5.1-13.1-3.4
		C82.1,77.3,81.3,77.5,80.5,77.8z"/>
	<path class="st0" d="M135.5,215.6c2.5-1.1,5.1-2,7.4-3.4c2-1.2,3.6-2.9,5.4-4.4c0.7-0.6,1.1-0.9,2.1-0.6
		c6.9,2.1,11.8,6.7,15.6,12.6c1,1.5,0.5,3.1-0.4,4.5c-1.9,3.1-3.9,6.2-5.9,9.1c-5.3,7.6-10.7,15.1-17.1,21.8c-1.9,2-3.9,3.9-5.9,5.8
		c-0.5,0.5-1.1,0.9-1.8,0.3c-0.8-0.7,0.1-1.1,0.4-1.6c6.1-7.9,12.1-15.9,18.2-23.8c0.8-1.1,0.8-2,0-3.1c-4.4-6.6-9.7-12.4-16.7-16.4
		C136.2,216.1,135.8,215.8,135.5,215.6z M162.8,222.6c-0.7-1.1-1.2-2.2-2-3c-1.7-1.6-2.9-3.5-3.5-5.7c-0.1-0.3-0.3-0.6-0.5-1.2
		c-0.1,1.4-0.4,2.6-0.2,3.6c0.2,0.9,0.6,2,1.3,2.6C159.3,220.2,161,221.3,162.8,222.6z"/>
	<path class="st0" d="M127.3,277.4c0.1,3.4,0.4,6.9,0.4,10.3c0,3-0.2,6-0.4,8.9c0,0.5-0.4,1.2-0.8,1.4c-4.2,2.2-6,5.9-6.4,10.3
		c-0.1,1.6-0.7,2.7-1.9,3.7c-3.3,2.8-7.1,4.5-11.3,4.9c-5.5,0.5-11.1,0.6-16.6,0.9c-0.2,0-0.4,0-0.7-0.1c0.3-1.7,0.7-3.4,0.8-5.1
		c0.2-2.4,0.1-2.4,2.5-2.9c13.3-3.1,23.8-10.4,30.6-22.3c1.4-2.4,1.9-5.4,2.8-8.2c0.2-0.6,0.2-1.2,0.4-1.8
		C127,277.5,127.2,277.4,127.3,277.4z"/>
	<path class="st0" d="M129.4,297.5c0-1.1,0-2.1,0-3.1c0-1.1,0.1-2.2,0.2-3.4c0.3-3.9,0.3-4,4.3-4.3c7.7-0.6,15.4-1.1,23.1-1.7
		c4.2-0.3,8.4-0.7,12.7-1c1.7-0.1,2,0.2,1.9,1.9c0,3.5-1,6.7-2.3,9.9c-0.5,1.1-1.4,1.5-2.6,1.4c-3.2-0.2-6.4-0.5-9.6-0.6
		c-6-0.2-12-0.4-18-0.3c-2.5,0-5.1,0.6-7.6,0.9C130.8,297.4,130.2,297.4,129.4,297.5z"/>
	<path class="st0" d="M148.4,203.3c-0.3,0.7-0.4,1.5-0.8,2.1c-2.2,3.5-5.6,5.4-9.3,6.9c-5.1,1.9-10.4,2.5-15.8,2.8
		c-9.7,0.6-19-1.7-28.3-4c-8.3-2.1-15.9-5.9-23.7-9.2c-1.4-0.6-2.9-1.1-4.3-1.7c0.3-0.8,0.6-1.6,1.1-2.5c1.8,0.6,3.6,1.1,5.4,1.7
		c6.8,2.2,13.5,4.9,20.5,6.7c12.2,3.2,24.8,3.9,37.3,2.2c5-0.7,9.6-2.6,14.2-4.7c1-0.5,2.3-0.5,3.4-0.8
		C148.2,203,148.3,203.2,148.4,203.3z"/>
	<path class="st0" d="M40.3,106.6c-2-0.8-3.8-1.7-5.6-2.2c-2.6-0.7-4.8,0.7-6.1,3.3c-1.6,3.2-2.3,12.6-1,16.5
		c-0.2-4.7,0.8-8.9,1.8-13c0.2-0.8,0.5-1.7,1-2.5c1.4-2.8,4.5-3.2,7-1c-5,7-6.9,15.3-8.8,23.5c-0.1,0.4-0.4,0.9-0.7,1.1
		c-3,1.2-7.3,0.1-9.5-2.4c-1.4-1.7-2-3.6-1.9-5.7c0.4-8.9,4.1-16.2,10.8-21.9c2.5-2.1,5.4-2.5,8.4-1.4c1.7,0.6,3.4,1.5,5.1,2.3
		c0.3,0.2,0.6,0.9,0.5,1.3C40.9,105.3,40.5,106.1,40.3,106.6z"/>
	<path class="st0" d="M168.7,222.3c1.9,1.1,3.2,2.7,4.5,4.4c2.1,2.6,2.1,5,0.3,7.9c-2.3,3.6-5,6.8-8.2,9.5c-3.6,3-7.3,5.9-10.9,8.8
		c-5.2,4.2-10.4,8.4-15.7,12.4c-2.6,2-5.4,3.9-8.2,5.5c-1.4,0.8-3.2,0.8-4.8,1.2c-0.1-0.1-0.1-0.3-0.2-0.4c0.1-0.1,0.2-0.3,0.3-0.3
		c9.2-5.2,16.8-12.2,23.2-20.5c5.9-7.7,11.4-15.7,17-23.6C167.1,225.7,167.8,224,168.7,222.3z"/>
	<path class="st0" d="M79.5,270.7c-0.4-0.2-1.1-0.4-1.3-0.7c-2.8-5.5-7.2-9.7-11.5-14c-8-8-17-14.5-26.7-20.2
		c-4.2-2.5-8-5.8-11.9-8.8c-0.2-0.2-0.3-1-0.1-1.3c1.6-2,3.2-3.9,4.8-5.8c0.5-0.6,1.1-0.7,1.8-0.1c10,8.9,20.2,17.4,29.1,27.5
		c6,6.8,11.1,14.4,15.7,22.3c0.1,0.2,0.2,0.4,0.3,0.6C79.7,270.4,79.6,270.5,79.5,270.7z"/>
	<path class="st0" d="M112.4,113c4.8,4.2,9.6,4.2,14.5,0.2c-0.1,3.9-0.5,7.5-0.3,11.1s0.9,7.2,1.3,10.9c-6.9-2.1-13.4-0.1-20.3,2.8
		C112.3,130,112.8,121.7,112.4,113z"/>
	<path class="st0" d="M94.7,65c0.4-2.6,1.5-3.9,3.8-4.2c6.2-0.8,14.1,0.8,17.4,9.2c3,7.6,4.5,15.5,5.3,23.5
		c0.4,3.9,0.2,7.8,0.2,11.7c0,0.6-0.1,1.2-0.5,1.8c-0.5-1.7-1.1-3.5-1.6-5.2c-1.8-6.1-3.4-12.2-5.4-18.2c-1.7-5.1-4.3-9.7-8-13.7
		c-1-1.1-2.1-2.1-3.3-3c-1.7-1.4-3.7-2.1-6-2C96.1,65,95.4,65,94.7,65z"/>
	<path class="st0" d="M10.3,292c-0.5-1.9-1.1-3.7-1.4-5.5c-0.2-1.5-0.2-3.2-0.1-4.7c0.1-0.6,0.5-1.4,1-1.8c3.9-3.5,8.5-4.6,13.6-4.1
		c3,0.3,3,0.3,3.7,3.2c0.4,1.8,1.1,3.5,1.5,5.2c0.1,0.7-0.1,1.5-0.3,2.2c0,0.2-0.3,0.4-0.4,0.6c-0.3,2.1-1.8,1.9-3.3,2.1
		c-3.7,0.4-7.5,0.9-11.2,1.5C12.5,290.9,11.6,291.5,10.3,292z"/>
	<path class="st0" d="M100.7,224c2.4,0,4.6,0.1,6.8,0c0.8,0,1.6-0.4,2.3-0.7c1-0.3,2.1-0.7,3.1-0.9c1-0.1,2.1,0.1,3.1,0
		c2.1-0.2,3.8,0.2,5.2,2c0.3,0.4,1.1,0.6,1.7,0.7c1.2,0.1,2.5,0.1,3.8,0.2c0.8,0,1.2,0.4,1.2,1.2c-0.1,1.8-0.2,3.5-0.2,5.3
		c0,0.9-0.4,1.1-1.2,1c-0.6-0.1-1.1,0-1.7-0.1c-1.8-0.3-3.3,0-4.6,1.4c-0.3,0.4-1.2,0.5-1.7,0.5c-1.8-0.1-3.5-0.4-5.2-0.4
		c-0.9,0-1.6-0.1-2.1-1c-0.7-1.4-1.8-1.9-3.4-1.8c-2.1,0.1-4.3,0-6.5,0C101,229,100.9,226.5,100.7,224z M120.1,232.1
		c-0.5-0.5-1-1.1-1.1-1c-0.4,0.2-0.9,0.6-1.1,1c-0.1,0.2,0.5,1,0.8,0.9C119.2,232.9,119.5,232.5,120.1,232.1z M112.8,232.9
		c0.4-0.7,0.9-1.1,0.8-1.3c-0.2-0.4-0.7-0.6-1-0.9c-0.3,0.3-0.7,0.6-0.7,0.9C111.9,231.9,112.3,232.2,112.8,232.9z M119.5,224.4
		c-0.6-0.5-1-0.9-1.2-0.9c-0.3,0.1-0.8,0.5-0.8,0.8s0.4,0.9,0.7,0.9C118.5,225.3,118.8,224.9,119.5,224.4z M113.8,223.9
		c-0.6-0.4-0.9-0.9-1.2-0.9c-0.3,0-0.7,0.5-0.8,0.8c-0.1,0.2,0.4,0.7,0.7,0.7C112.8,224.6,113.2,224.2,113.8,223.9z"/>
	<path class="st0" d="M122.8,111.3c2.2-13.7-0.1-26.7-3.9-39.6c0.1-0.1,0.2-0.2,0.3-0.4c1.4,0.8,2.9,1.5,4.2,2.4
		c2.3,1.7,3.7,4.1,4.5,6.8c2.5,8.2,2.9,16.6,1.1,25c-0.1,0.4-0.1,0.8-0.4,1.1C127.1,108.5,125.3,110,122.8,111.3z"/>
	<path class="st0" d="M35.8,218.1c2.1-0.5,3.8-0.3,5.5,0.7c5.9,3.9,11.3,8.4,16.2,13.5c6.2,6.4,12.4,12.9,16.9,20.6
		c2.1,3.6,3.5,7.5,5.2,11.3c0.2,0.5,0.3,1.1,0.2,1.8c-0.2-0.2-0.5-0.5-0.6-0.8c-8.6-15-20.5-27.1-33.4-38.3c-3-2.6-6-5.3-9-8
		C36.5,218.8,36.3,218.5,35.8,218.1z"/>
	<path class="st0" d="M145.3,301.4c-3,6.4-4.2,12.7-1.4,19.6c-2.4,0-4.7,0-7,0c-2.8,0-2.8,0-3.5-2.7c-0.5-2-1-4.1-1.4-6.1
		c-0.7-3.9,0.5-7.3,3-10.2c0.6-0.7,1.8-1.1,2.8-1.4C140.4,299.9,142.9,300,145.3,301.4z"/>
	<path class="st0" d="M169.2,151.3c-0.6-1.3-1.4-2.4-1.6-3.5c-1.1-5.5-2.2-11.1-3.1-16.6c-1.2-7.6-2.9-15.1-6.8-21.9
		c-0.1-0.3-0.2-0.6-0.5-1.1c0.5,0.2,0.9,0.3,1.1,0.5c4.1,2.4,7.6,5.5,10.3,9.5c1.7,2.5,2.2,5.3,1.8,8.3c-1.2,7.5-0.8,15-0.8,22.5
		c0,0.6,0,1.3,0,1.9C169.7,150.9,169.6,150.9,169.2,151.3z"/>
	<path class="st0" d="M155.3,321c-2.8,0-5.7,0-8.6,0c-0.3,0-0.8-0.6-1-1c-2.3-5.2-1.6-10.3,0.4-15.4c1.2-3,1.6-3.2,4.7-2.1
		c3.6,1.2,5.3,3.9,5.9,7.5c0.5,2.7,0.1,5.4-0.6,8C155.9,318.9,155.6,319.8,155.3,321z"/>
	<path class="st0" d="M29.8,154.4c1.1,1.1,2.1,2.3,3.9,2.1c0.2,0,0.6,0.7,0.6,1.1c0.1,2.8,0,5.6,0.2,8.4c0.3-1.6,0.7-3.2,1-4.8
		c0.2-0.9,0.3-1.8,0.5-2.8c0.4-2,0.4-2,2.5-1.9c3,0.1,2.6-0.3,2.6,2.7c0,3.1-0.1,6.2-0.2,9.2c0,9.2,3.6,16.6,10.8,22.3
		c3.4,2.7,7.3,4.4,11.5,5.7c0.6,0.2,1.2,0.5,1.8,0.7c-0.1,0.2-0.1,0.3-0.2,0.5c-2.2-0.7-4.5-1.4-6.7-2.2C52,193,46.6,189.7,42.9,184
		c-2-3.1-3.1-6.6-3.8-10.1c-0.6-3.1-2.5-4.9-5.4-5.9c-0.8-0.3-1.6-0.5-2.4-0.6c-0.9-0.1-1.4-0.4-1.4-1.5
		C29.8,162.2,29.8,158.3,29.8,154.4z"/>
	<path class="st0" d="M66,105.3c-11,11.5-18.3,24.6-18.9,40.7c-1.6-0.5-2-1.3-1.9-3.1c0.1-1.1-0.2-2.3-0.3-3.4
		c-1.5-8.9-1.5-9.2,2.6-17.1c3.8-7.5,9.7-12.9,17.2-16.6C65.1,105.6,65.5,105.5,66,105.3z"/>
	<path class="st0" d="M81.9,85.2c-3.5,1-6.7,1.9-9.9,2.8c-1,0.3-2.1,0.6-3.1,0.9c-2.3,0.7-4.6,1.3-5.9,3.7c-2.8-2.2-5.4-4.3-8.1-6.5
		c1.6-0.8,3-1.6,4.5-2.3c4.1-2.1,8.2-4.2,12.3-6.3c0.9-0.5,1.6-0.4,2.3,0.3c2.3,2.2,4.7,4.3,7,6.4C81.2,84.4,81.4,84.7,81.9,85.2z
		 M76.6,83.6c-5.2,0.3-10.6,0.5-15.2,3.7C66.4,86.1,71.5,84.9,76.6,83.6z"/>
	<path class="st0" d="M71.7,301.2c5.1-1.5,8.7,0.5,10.2,5.7c1.4,4.6,0.5,8.9-1.2,13.2c-0.6,1.6-1.4,2.5-3.3,2.4
		c-1.5-0.2-3.1,0-4.7,0C75,315.3,75.3,308.2,71.7,301.2z"/>
	<path class="st0" d="M165.9,306.6c1.7,6.1-2.5,13-8.3,13.9c0.3-1.1,0.6-2.1,0.7-3.1c0.2-2.4,0.6-4.8,0.4-7.2
		c-0.5-5.7-4.1-9.3-9.8-10.2c-1.8-0.3-3.4-0.8-5.2-1.2c0-0.2,0.1-0.4,0.1-0.6c7.2,0.3,14.4,0.7,21.7,1c-0.1,6.1-2.3,11.5-4.4,16.9
		c0.6-0.9,1.2-1.8,1.8-2.8s1.2-2.1,1.6-3.2C165.1,309,165.4,307.9,165.9,306.6z"/>
	<path class="st0" d="M140.5,97c0.3-2.2,0.8-4.1,0.9-6c0.2-4.8-1.4-7-5.9-8.6c-0.8-0.3-1.6-0.6-2.5-1.2c0.6-0.1,1.1-0.3,1.6-0.3
		c3.4-0.2,6.6,0.9,9.4,2.8c2.3,1.5,2.8,4.8,1.1,7.1c-1.1,1.5-2.1,2.9-3.2,4.4c-0.3,0.4-0.5,0.8-0.7,1.3c0.1,0.1,0.2,0.2,0.3,0.2
		c1.1-1.1,2.2-2.2,3.2-3.3c2.4-2.6,2.4-2.6,5.6-1c1.7,0.9,3.3,1.9,5,2.8c0.4,0.2,0.8,0.4,1.3,0.4c-0.2-0.4-0.5-0.7-0.7-1.1
		c2.6,2.2,3,5.2,3.5,8.7C153.6,99.2,147.2,97.6,140.5,97z"/>
	<path class="st0" d="M133.1,301.3c-5.1,6.4-2.7,13-1,19.5c-4.8,0.6-8.5-1.8-9.5-6.3c-0.7-3.1-0.7-6.2,0.3-9.2
		c1.1-3.1,3.6-6.2,8.2-4.5C131.6,301,132.2,301.1,133.1,301.3z"/>
	<path class="st0" d="M98.9,225c-0.3,0.6-0.5,1.2-0.8,1.8c-0.2,0.4-0.5,0.9-0.5,1.4c-0.1,7.9,1.7,15.3,6.9,21.5
		c2.1,2.5,4.5,4.5,7.6,5.5c0.9,0.3,2.2,0.3,3-0.1c7.6-3.6,12.5-9.6,14.7-17.7c0.7-2.6,0.1-5.6,0.1-8.4c0-0.9-0.1-1.8-0.2-2.7
		c2.8,0.5,3.1,1,3.1,3.6c-0.1,13-7.2,23.4-19,27.6c-0.9,0.3-1.6,0.3-2.5-0.3c-5.4-3.4-10-7.7-12.8-13.6c-2.5-5.4-3-11.1-2.8-16.9
		c0-0.5,0.5-1,1-1.3s1.1-0.4,1.7-0.6C98.6,224.9,98.8,224.9,98.9,225z"/>
	<path class="st0" d="M131.3,104.6c1.3-7.3,1-14.4-0.6-21.8c2.1,0.8,3.8,1.4,5.6,2.1c2.1,0.8,3.2,2.5,3.1,4.7
		c-0.1,2.3-0.4,4.6-0.9,6.9c-0.4,2-0.2,2.4,1.9,2.6c2.5,0.2,5,0.6,7.5,1.1C140.8,100.6,139.7,100.1,131.3,104.6z"/>
	<path class="st0" d="M24.5,261.8c0.5,4,1,8.1,1.5,12.3c-4.7-0.4-9.2-0.8-13.5,1.5C12,269.1,17.3,262.8,24.5,261.8z"/>
	<path class="st0" d="M82.8,124.7c-3.4,1.8-5.5,4.6-6.5,8.2c-0.9,3.8,0,7.1,2.7,10.3c-2.9-0.3-5.5-0.2-7.7-1.5c-1.8-1.1-2.2-3-2-4.9
		c0.2-2.2,1-4.3,2.3-6.1c2.5-3.5,6-5.4,10.1-6.2c0.2-0.1,0.5-0.1,0.7,0C82.5,124.4,82.5,124.5,82.8,124.7z"/>
	<path class="st0" d="M91.7,142.6c4.6-3.7,5.7-6.1,4.1-9.7c-1.7-3.8-4.3-5.3-8.7-5.2c-3.2,0-5.6,2.2-6.4,5.3c-1,3.9,0.7,7.6,4.7,10
		c-1.7,0.7-3.2,0.4-4.5-0.8c-4.3-4.1-3.2-9.9-0.5-13.2c3.3-3.9,9.1-4.7,13.4-1.6c4.6,3.3,5.9,6.5,3.9,11.6
		C96.7,141.7,94.7,142.8,91.7,142.6z"/>
	<path class="st0" d="M94.7,147.2c-3.7,2.5-7.7,4.1-11.8,5.2c-9.8,2.6-19.7,3-29.7,1.3c-2.5-0.4-5-1.5-7.3-2.6
		c-2.2-1-2.3-1.7-1.2-4.2c0.7,0.5,1.4,1,2.1,1.5c4.1,2.7,8.7,3.4,13.4,3.8c11.5,1,22.7-0.4,33.5-4.8C94,147.4,94.4,147.3,94.7,147.2
		z"/>
	<path class="st0" d="M109.3,251.5c-5.3-4.3-8.2-10-9.3-16.7c0.2,0,0.3-0.1,0.3-0.1c1.9,2,4.4,1.6,6.8,1.7c2.2,0.1,2.8,0.7,2.8,2.9
		c-0.1,3.4-0.1,6.8-0.1,10.2c0,0.6,0,1.2,0,1.8C109.7,251.4,109.5,251.5,109.3,251.5z"/>
	<path class="st0" d="M30.6,131.9c1.6-8.1,3.3-16.1,8.5-22.8c-0.2,0.5-0.3,1-0.5,1.4c-1.2,2.7-2.4,5.4-3.7,8.2
		c-0.7,1.6-0.5,2.1,1.2,2.6c2.1,0.6,4.2,1.3,6.4,2c-0.8,1.9-1.4,3.7-2.2,5.4c-0.1,0.3-0.7,0.5-1.1,0.5c-1,0-2-0.2-2.9-0.1
		C34,129.2,32,130,30.6,131.9z"/>
	<path class="st0" d="M118.4,250.5c0.1-1.6,0.1-3.2,0.2-4.8c0.1-2.2,0.3-4.5,0.4-6.7c0.1-1.2,0.5-1.9,1.9-1.8c2.3,0.1,4.5,0,7,0
		c-1.7,5.5-4.8,9.9-9.1,13.4C118.7,250.6,118.6,250.5,118.4,250.5z"/>
	<path class="st0" d="M82.1,322c3.1-7.2,4.1-14.3-1.1-21c3.8,0,7.5,5.1,7.6,10.5C88.7,316.3,85.3,321.9,82.1,322z"/>
	<path class="st0" d="M150.3,146.1c2.5-3.6,3.1-7.5,2-11.5c-1.2-4.1-3.7-7-8-8.4c0.2,0,0.4,0,0.6,0c0.3,0,0.6,0,0.8,0.1
		c5,1.2,8.6,4.1,9.8,9.3c0.6,2.6,0.5,5.4,0.5,8c0,1.8-0.7,2.2-2.5,2.4c-0.8,0.1-1.7,0.1-2.5,0.2
		C150.9,146.2,150.7,146.1,150.3,146.1z"/>
	<path class="st0" d="M173,125.7c0,3.6,0,7.2,0,10.9c-0.1,5.8-0.2,11.6-0.3,17.5c0,2.8-0.3,3.3-3.2,3.7c-3.9,0.5-7.7-0.2-11.4-1.3
		c-4.8-1.5-9.3-3.5-13.6-6.1c0.4,0.1,0.9,0.3,1.3,0.5c5.2,1.8,10.3,3.8,15.6,5.4c2.1,0.6,4.5,0.5,6.8,0.3c2.5-0.1,3.5-1.4,3.5-4
		c0-6-0.1-11.9,0-17.9c0.1-3,0.5-5.9,0.8-8.9C172.7,125.6,172.8,125.6,173,125.7z"/>
	<path class="st0" d="M48.4,200c-1.9,5.1-5.3,9.2-8.4,13.4c-1.6,2.1-1.6,2.2-4.7,2.6c0.4-1.1,0.8-2.1,1.2-3c2-4.3,4.8-8.1,8.2-11.4
		C45.8,200.6,47,199.9,48.4,200z"/>
	<path class="st0" d="M143.3,145.8c4.8-2.8,6.6-6.5,5.2-10.8c-1.2-3.6-5-6.1-8.4-5.5c-2.2,0.4-3.9,1.8-5.1,3.6
		c-1.2,1.8-1.8,3.8-0.9,6c-0.2,0-0.4,0.1-0.6,0.1c-0.2-0.5-0.5-0.9-0.6-1.4c-0.2-4.8,3.2-8.9,7.7-9.6c4.7-0.7,8.5,2,9.8,6.9
		c0.9,3.3,0.4,6.4-1.5,9.4c-0.7,1.1-1.5,1.7-2.9,1.5C145.1,145.9,144.2,145.9,143.3,145.8z"/>
	<path class="st0" d="M120.6,114.2c-1.2,0.4-2.6,0-3.9-0.8c-2.7-1.8-5.3-3.6-8-5.4c-6.9-4.7-14.7-6.8-23-7.3
		c-5.6-0.3-11.3-0.3-16.8,1.4c0-0.1-0.1-0.2-0.1-0.3c0.7-0.2,1.5-0.5,2.2-0.7c0.8-0.2,1.6-0.4,2.4-0.6c11.3-1.7,22.4-0.7,32.7,4.4
		c3.3,1.6,6.1,4,9.2,6.1C117.2,112.1,119,113.1,120.6,114.2z"/>
	<path class="st0" d="M32.5,137.1c-0.7,0.7-1.3,1.4-2.2,2.3c0.4-2.6,1-4.8,2.8-7.1c0.5,1.3,1.3,2.3,1.3,3.2c0,4.1-0.2,8.3-0.6,12.4
		c-0.2,1.8-1.1,3.4-2.7,4.8c-1.7-2.8-1-5.7-1-8.5c0.4,0.8,0.8,1.7,1.3,2.6C31.8,143.6,32.1,140.4,32.5,137.1z"/>
	<path class="st0" d="M174.5,158c0-2.8,0-5.4,0-7.9c0-1.8,0-1.8,1.8-1.9c1,0,2.1,0,3.1-0.1c0.8-0.1,1.1,0.3,1.1,1.1
		c-0.1,1.5-0.1,3-0.2,4.4c-0.3,2.6-1.3,3.6-3.9,4.2C175.7,157.8,175,157.9,174.5,158z"/>
	<path class="st0" d="M174.5,146c0.2-2.9,0.3-5.7,0.5-8.6c0-0.2,0.2-0.5,0.3-0.6c0.9-0.6,3.2,0.1,3.4,1.1c0.5,2.2,1,4.4,1.4,6.6
		c0.2,1-0.1,1.5-1.2,1.4C177.6,146,176.2,146,174.5,146z"/>
	<path class="st0" d="M43.1,143.3c-0.7,3.6-1.3,7.1-2,10.5c-0.1,0.3-0.6,0.7-1,0.8c-1,0.1-2,0-3.2,0c0.1-0.5,0.1-0.8,0.2-1.2
		c0.7-2.9,1.4-5.9,2-8.9c0.2-0.9,0.5-1.3,1.5-1.2C41.3,143.3,42.1,143.3,43.1,143.3z"/>
	<path class="st0" d="M165.6,317.8c2.9-4,3.1-8.3,2.4-12.7c-0.2-1.6-0.1-3.2-0.1-4.9c0-0.3,0.2-0.9,0.4-0.9c0.3-0.1,0.9,0.1,1.1,0.4
		c0.4,0.5,0.9,1.2,1,1.8c0.4,4.8,0.6,9.6-1.5,14.1C168.3,316.9,167.4,317.8,165.6,317.8z"/>
	<path class="st0" d="M53.7,87.8c2.7,2.2,5.2,4.2,7.7,6.2c0.2,0.2,0.4,0.7,0.3,1.1c-0.2,1.1-0.5,2.1-0.8,3.2
		c-0.3-0.1-0.6-0.1-0.8-0.3c-2.2-1.7-4.4-3.4-6.5-5.1c-0.3-0.3-0.7-0.8-0.6-1.3C53.2,90.4,53.5,89.3,53.7,87.8z"/>
	<path class="st0" d="M13.3,294.5c-0.3-1.4-0.3-1.8,1.4-2c4.1-0.5,8.2-0.9,12.3-1.3c0.2,0,0.7,0.2,0.8,0.4c0.4,0.9,0.6,1.8,0.9,2.5
		C23.5,294.2,18.5,294.3,13.3,294.5z"/>
	<path class="st0" d="M43,141.1c-1.2,0-2.3,0-3.4,0c-0.4-3.2-0.8-6.5-1.2-9.9c1,0.1,1.8,0.1,2.6,0.2c0.3,0.1,0.7,0.4,0.7,0.7
		C42.2,135,42.6,138,43,141.1z"/>
	<path class="st0" d="M34.7,170.8c1.6,0.8,2.1,2.3,2.5,3.8c0.6,2.2,1.2,4.5,2,6.7c1.3,3.5,3.6,6.5,6.5,9.2
		C40.8,189.1,33.8,176.3,34.7,170.8z"/>
	<path class="st0" d="M162,108.3c-4.9-3-10.1-5.2-16-4.9c-5.9,0.2-11,2.4-16.1,5.6C135.3,100.8,156,100.4,162,108.3z"/>
	<path class="st0" d="M173.5,172.7c-0.2-4.2-0.4-8.3-0.5-12.5c1.9-0.6,2-0.5,2.2,1.4c0.2,2.6,0.4,5.3,0.6,7.9
		C176,172,176,172,173.5,172.7z"/>
	<path class="st0" d="M110,219.1c0.2,1.6-0.6,2.7-2.4,2.8s-3.7,0-5.7,0C103.4,219.7,106.7,218.6,110,219.1z"/>
	<path class="st0" d="M112,248.6c-0.5-1.8-0.1-2.8,1.1-3.7c1.3-0.9,2.3-2.1,3.6-3.3c0.2,1.5,0.3,2.7-1,3.7
		C114.5,246.2,113.4,247.3,112,248.6z"/>
	<path class="st0" d="M164.2,107.2c3.7,3,6,6.9,7.6,11.3c-0.1,0.1-0.2,0.2-0.4,0.2C169,114.8,166.6,111,164.2,107.2z"/>
	<path class="st0" d="M127.6,223.1c-3.8,0.2-6.9-0.1-6.8-3C122.4,219.9,126.6,221.7,127.6,223.1z"/>
	<path class="st0" d="M36.4,146.8c-0.3-5.2,1.7-10.5-1.5-15.4c0.8-0.4,1.5-0.5,1.6,0.5c0.6,4.9,1.8,9.8,0.1,14.7
		C36.5,146.7,36.5,146.7,36.4,146.8z"/>
	<path class="st0" d="M90.9,134.8c-1,0-1.8-0.9-1.7-2c0-0.9,1.5-2.4,2.2-2s1.5,1.2,1.7,1.9C93.4,133.6,91.8,134.9,90.9,134.8z"/>
	<path class="st0" d="M112,242.6c0-1.1,0-2.5,0-3.9c1.4,0,2.8,0,4.2,0C114.7,240.1,113.3,241.4,112,242.6z"/>
	<path class="st0" d="M153.3,91.6c-1.6-0.7-3.1-1.3-4.7-2c-0.3-0.1-0.5-0.6-0.6-1c-0.1-0.7-0.1-1.3,0.1-2.2c1.6,1.8,3.2,3.7,4.9,5.5
		C153.1,91.8,153.2,91.7,153.3,91.6z"/>
	<path class="st0" d="M115.3,220.3c-0.8,0-1.6,0.1-2.4,0c-0.3,0-0.5-0.5-0.8-0.7c0.3-0.2,0.6-0.6,0.8-0.6c1.6,0,3.2,0.1,4.7,0.2
		c0.3,0,0.6,0.5,0.9,0.8c-0.3,0.1-0.7,0.4-1,0.4C116.8,220.5,116,220.4,115.3,220.3C115.3,220.4,115.3,220.4,115.3,220.3z"/>
	<path class="st0" d="M116.5,247.6c-0.7,2.5-2.3,4.2-4.5,5c-0.5-1.6-0.4-1.7,0.9-2.5C114.1,249.4,115.2,248.5,116.5,247.6z"/>
	<path class="st0" d="M160.4,194.8c-2.8,2.6-5.8,4.8-9.6,5.6C153.9,198.6,157.1,196.7,160.4,194.8z"/>
	<path class="st0" d="M143.7,133.9c0.8,0,1.6-0.1,1.5,1.1c-0.1,0.8,0.1,1.8-1.1,1.9c-1,0.1-2-0.7-2-1.6
		C142.1,134.2,142.7,133.8,143.7,133.9z"/>
	<path class="st0" d="M102.6,233.6c2.3,0,4.6-0.6,6.7,0.8C107.1,234.3,104.7,234.9,102.6,233.6z"/>
	<path class="st0" d="M42.9,157.6c0.2-1.8,0.3-3.5,0.5-5.2c1.8,0.4,1.9,0.6,1.3,1.9c-0.5,1.1-0.9,2.1-1.3,3.2
		C43.2,157.5,43.2,157.5,42.9,157.6z"/>
	<path class="st0" d="M33,154.2c0.8-1.3,1.6-2.5,2.5-3.8c0.1,0,0.1,0,0.2,0c-0.3,1.2-0.4,2.4-0.8,3.5c-0.2,0.4-1,0.5-1.6,0.8
		C33.1,154.5,33,154.4,33,154.2z"/>
	<path class="st0" d="M29.2,232.5c-0.7-1.1-1.4-2.1-2-3.1C30,230.6,30.5,231.3,29.2,232.5z"/>
	<path class="st0" d="M57.1,197.9c-2.2,0.6-3.9-0.1-4.7-1.6C54.1,196.9,55.6,197.4,57.1,197.9z"/>
	<path class="st0" d="M44.7,101c-0.2,1-0.4,2.1-0.6,3.1c-0.2,0-0.4-0.1-0.6-0.1c0.4-1-0.6-2.2,0.6-3.1C44.3,100.9,44.5,101,44.7,101
		z"/>
	<path class="st0" d="M113.4,236.2c1.1,0,2.3,0,3.4,0c0,0.1,0,0.2,0,0.3c-1.1,0-2.3,0-3.4,0C113.4,236.4,113.4,236.3,113.4,236.2z"
		/>
	<path class="st0" d="M41.6,318.2c-0.9,0-1.4,0-2.2,0c0.3-0.6,0.5-1,0.8-1.7C40.7,317,41,317.5,41.6,318.2z"/>
	<path class="st0" d="M486.4,210.7c0.9,4.5-2.9,9.2-7.7,9.5c-6.4,0.3-11.3-2.5-14.6-7.9c-3.1-4.9-4.4-10.4-3.6-16.2
		c0.2-1.8,0.4-3.6,0.4-5.5c-0.8,1.8-1.6,3.6-2.5,5.4c-2-2.1-2.3-4.6-1.4-7.1c1.1-2.9,2.6-5.7,4.1-8.4c3.5-6.1,7-12.2,10.9-18.1
		c1.8-2.8,4.3-5.3,6.9-7.5c4.1-3.5,9-4.6,14.3-3.1c2.3,0.7,3.8,2.3,5.2,4.1c0.4,0.4,0.2,1.6-0.1,2.2c-2.9,4.7-4,10-5.6,15.2
		c-1.3,4.5-0.8,9.2-0.5,13.8c0.2,3.9,0.6,7.8,0.7,11.7c0.1,5-2.5,8.3-7.2,9.7c-1.9,0.6-3.6-0.1-5.1-1.3c-1.6-1.3-3-2.8-4.5-4.2
		c-0.3-0.3-0.7-0.6-1.1-1C476,207.7,480.5,211,486.4,210.7z"/>
	<path class="st0" d="M565.8,204.3c0.5,3.5-0.5,6.5-1.5,9.6c2.3-2.4,3.4-5.3,3.5-8.7c2,0.4,4,0.7,6.4,1.1c-0.7,2-1.3,4.1-2.3,6.1
		c-2.7,5.4-7.1,9.1-13,10.6c-5.5,1.4-10.2,4-14.2,8c-0.5,0.5-1.4,0.8-2.1,0.9c-1.7,0.1-3.5,0-5.2-0.1c-3.2-0.1-6-1.2-8.7-3
		c-2.6-1.7-5.5-2.9-8.3-4.2c-2.5-1.2-5.2-2.1-7.7-3.4c-4.3-2.3-7.3-5.8-8.6-10.6c-0.7-2.8-0.6-5.5,0.7-8.2c0.4-0.7,0.6-0.9,1.5-0.6
		c2,0.8,4.1,1.6,6.2,2c8.5,1.5,16.7,0.6,24.4-3.6c4.3-2.4,8.8-4.4,13.8-5.2c0.9-0.1,1.8-0.2,3.2-0.3c-2.2,1.9-3.1,4-2.7,6.5
		c0.4,2.1,1.4,3.8,3.1,5.1C558,209.3,561.5,208.7,565.8,204.3z M530.3,210c0,0.1-0.1,0.2-0.1,0.3c1.5,1.4,2.9,3,4.6,4.3
		c1.7,1.4,3.5,2.9,5.6,3.6c5.5,1.9,11.2,2.5,16.9,1.5c0.8-0.1,2,0,1.9-1.2c0-0.2-1.4-0.6-2.1-0.5c-8.4,0.5-16.4,0-23.2-5.9
		C532.9,211.1,531.5,210.7,530.3,210z"/>
	<path class="st0" d="M566.4,157c2.4-1.8,3.7-4.2,5-6.7c0.2-0.4,0.9-0.8,1.1-0.7c0.4,0.2,0.9,0.8,0.9,1.2c0.1,1.3-0.1,2.6,0,3.9
		c0.1,0.6,0.4,1.6,0.9,1.8c5,2.6,7.9,7,10.4,11.8c1.8,3.5,3.4,7.1,5,10.8c0.3,0.8,0.7,1.6,0.8,2.4c1,12.2-0.7,23.8-8.6,33.6
		c-2.9,3.6-6.7,5.9-11.7,5.6c-0.6,0-1.1-0.2-1.5-0.3c2.1-3,4.1-6,6.3-9.2c3.5,1.4,7,1.5,8.9-3.2c-0.5,0.4-1,0.9-1.5,1.2
		c-2.1,1.7-4.3,1.8-6.3,0.4c-0.2-0.2-0.7-0.5-0.6-0.6c0.3-1.5,0.3-3.3,1.2-4.4c1.2-1.6,2.2-3.2,2.1-5.2c-0.1-3.1-0.4-6.1-0.6-9.2
		c-0.2-3.4-0.5-6.9-0.5-10.3c0.1-5.4-0.5-10.8-1.7-16.1c-1.1-4.9-3.7-7-8.8-6.9C566.9,157,566.7,157,566.4,157z"/>
	<path class="st0" d="M541.6,179.5c0,0.7-0.2,1.5-0.2,2.2c0,3.5-0.8,6.6-3.1,9.3c-2.6,3.1-5.6,5.5-9.4,6.8
		c-4.8,1.6-9.7,1.4-14.5,0.7c-2.4-0.4-4.3-1.7-5.6-3.8c-3-4.9-4.8-10.1-4-15.9c0.2-1.2,0.6-2.5,1.3-3.5c3.9-5.9,9.1-10.2,16.5-10.7
		c3.4-0.2,6.9-0.2,10.3,0.1c4.6,0.4,7.4,3.1,8.2,7.6c0.4,2.4,0.5,4.8,0.7,7.2C541.7,179.5,541.6,179.5,541.6,179.5z M513,180
		c0.2,1.5,0.5,2.9,0.5,4.2c0,1.8-0.2,3.6-0.2,5.4c-0.1,1.6,0.2,2.1,1.9,2.4c3.4,0.6,6.8,1.3,10.2,1.7c2.1,0.2,4.2,0.3,6.3,0.1
		c4-0.5,6.3-2.9,6.6-6.9c0.3-3.9-0.5-7.5-2.7-10.8c-0.6-0.9-1.3-1.7-2.2-2.3c-4.5-3.2-9.1-2.9-13.7-0.3c-1.5,0.9-2.9,1.6-4.5,0.4
		c-0.1-0.1-0.2,0.1-0.6,0.1c0.4,0.9,0.7,1.7,1.1,2.7c-0.9-0.1-1.7-0.2-2.7-0.4c0.2,0.6,0.3,1,0.5,1.3
		C514.4,179.3,514.4,179.4,513,180z M525.8,164.6c0-0.1-0.1-0.2-0.1-0.3c-1.8,0.5-3.6,0.9-5.3,1.4c-0.3,0.1-0.4,0.5-0.6,0.8
		c0.3,0.1,0.5,0.4,0.8,0.4c2.5,0,4.9-0.1,7.4-0.2c0.3,0,1-0.6,0.9-0.8c-0.1-0.4-0.5-0.9-0.8-1C527.3,164.6,526.5,164.6,525.8,164.6z
		 M533.5,170.9c-2.6-3.1-8.9-3-14-0.6c2.6-0.2,5-0.5,7.3-0.4S531.4,170.6,533.5,170.9z"/>
	<path class="st0" d="M511.4,269.1c1.8,0.6,3.4,0.9,4.7,1.7c3.8,2.2,7.4,4.6,11.1,7c0.5,0.3,0.9,0.8,1.3,1.2
		c1.1,1.2,1.8,2.4,1.1,4.1c-0.5,1.2-0.4,2.6-0.6,3.9c-0.4,2.8-0.8,5.5-1.3,8.2c-0.2,1.2-0.9,1.7-2.1,1.7c-1.5,0-3.1,0.2-4.6,0.2
		c-0.6,0-1.4-0.3-1.8-0.7c-0.7-0.6-1.3-1.4-1.9-2.2c-1.5-2-3.4-3.3-5.9-3.7c-0.9-0.1-1.4-0.6-1.5-1.5c-0.7-4.7-1.4-9.5-2.1-14.2
		c0-0.3-0.1-0.6-0.1-1c0-1-0.4-2.3,0.1-2.8C508.7,270.1,510.2,269.7,511.4,269.1z"/>
	<path class="st0" d="M544.7,157c-2.5-2.3-5.2-4.5-7.6-6.9c-1.9-1.8-3.6-3.8-5.2-5.8c-1.2-1.6-2.7-2.4-4.6-2.8
		c-8-1.9-16.1-3.4-24.4-3c-4.5,0.2-9,0.8-13.5,1.2c-1,0.1-2,0.2-2.9,0.2c-1.9,0-2.6-0.7-3-2.5c-0.1-0.3-0.1-0.6-0.1-1
		c-0.2-2.2-0.1-2.3,2-2.9c6.9-1.9,13.9-2.2,20.9-1.2c8.3,1.1,16.5,2.8,24.2,6.1c3.2,1.4,5.7,3.4,7.6,6.5c1.8,2.9,4.1,5.5,6.4,8.1
		C545.5,154.2,546.5,155.2,544.7,157z"/>
	<path class="st0" d="M495.1,192.1c0.6,0.4,1.2,0.9,1.7,1.4c2.1,2.2,4.2,4.4,6.2,6.6c0.2,0.2,0.3,0.8,0.2,1.1
		c-2.1,4-2.1,8.1-0.5,12.2c1.9,4.6,5.1,7.9,9.5,10.1c3,1.5,6.1,2.5,9.2,3.9c2.2,1,4.5,2.1,6.5,3.5c2.6,1.8,5.4,2.9,8.6,3.1
		c2.1,0.1,4.2,0.2,6.3,0.2c0.8,0,1.6-0.2,2.6-0.4c-1.8,3.4-1.2,7.2-1.5,10.7c-2.8,0-5.5,0-8.3,0c0-0.1-0.2-0.5-0.2-0.9
		c-0.5-7.3-5-11.3-11.5-13.6c-2.7-0.9-5.5-1.3-8.3-0.9c-0.4,0.1-1,0-1.1-0.2c-2-2.6-5-3.9-7.6-5.7c-3.4-2.4-6.9-4.8-9.3-8.2
		c-1.7-2.3-2.9-4.9-4.3-7.3c-0.2-0.4,0-1.2,0.1-1.8c0.5-1.7,1.3-3.4,1.5-5.1c0.2-2.3,0-4.6,0-6.9c0-0.5,0-0.9,0-1.4
		C494.9,192.2,495,192.1,495.1,192.1z"/>
	<path class="st0" d="M535.5,294.8c2.2-0.3,4-0.1,5.5,1.4c2.1,2.3,4.1,4.5,7.7,4.5c-0.8,1.2-1.5,2.1-2.2,3.1c2.2-1.5,4.7-2.2,7.2-2
		c3.8,0.2,7.5,0.5,11,2.3c0.7,0.3,1.4,1.3,1.5,2c0.2,1.8,0.1,3.6-0.1,5.4c-0.2,1.5-1.5,2-3.1,2.4c0.4-2.9,0-5.6-1.3-8.4
		c-0.1,2.2-0.2,4.1-0.4,6c-0.3,2.8-0.4,2.8-3.3,2.4c0.3-3.1,0.7-6.3-1.5-9.5c0,0.9,0,1.3,0,1.8c0,1.5,0,3-0.2,4.5
		c-0.3,3.1-0.4,3.2-3.6,3.1c-3.3-0.1-6.5-0.3-9.8-0.4c-1.2-0.1-1.7-0.8-2.1-1.9c-0.7-2.3-1.6-4.6-2.4-7c-0.8-2.4-1.8-4.7-2.6-7.1
		C535.7,296.6,535.7,295.7,535.5,294.8z M538,299.6c1.5,0.8,3,0.7,4.4,0.2c0.2-0.1,0.5-0.4,0.5-0.7c0-0.1-0.3-0.4-0.5-0.5
		C541.1,298,539.2,298.4,538,299.6z"/>
	<path class="st0" d="M526.8,268.3c-0.3-0.1-0.6-0.2-0.8-0.3c-2.7-1.3-5.4-2.7-8.1-4.1c-0.5-0.2-0.8-0.8-1.1-1.2
		c-1.4-2.3-2.6-4.8-4.1-6.9c-1.2-1.6-3-1.7-4.9-0.6c-2.5,1.4-4.2,3.6-5.9,6.3c1.7-1.3,3-2.4,4.4-3.4c3.6-2.5,4.5-2.3,6.6,1.6
		c0.4,0.8,0.9,1.6,1.5,2.7c-0.9-0.2-1.5-0.2-2-0.4c-2.4-0.8-4.6-0.5-6.6,1c-0.9,0.6-1.8,1.2-2.7,1.8c-2.4,1.5-4.2,3.4-4.9,6.2
		c-0.1,0.3-0.2,0.5-0.3,0.8c0,0.1-0.1,0.1-0.4,0.5c0.3-1.9,0.6-3.5,0.8-5c0.9-5.2,1.8-10.4,4.5-15c1.7-2.9,3.5-5.8,6.2-8.1
		c1.4-1.2,2.8-1.6,4.3-0.4c1.4,1.1,2.8,2.3,3.7,3.8c3.6,6.7,7,13.6,10.4,20.4C527.1,268.1,526.9,268.2,526.8,268.3z M518.6,259
		c0.1-0.1,0.3-0.1,0.4-0.2c-1.1-2.6-2.1-5.4-3.3-7.9c-0.9-1.8-2.3-3.2-4.6-3c-2,0.2-5.1,2.4-5.8,4.1c0.4-0.3,0.7-0.5,1.1-0.7
		c4.2-2.6,6.6-2,9.1,2.2c0.2,0.4,0.4,0.7,0.6,1.1C516.9,256,517.7,257.5,518.6,259z"/>
	<path class="st0" d="M558,171.6c-1.7,6.5-1.3,12.9-0.9,19.6c-4.1-2.3-8.1-2.1-12.4-0.4c0.3-1.1,0.8-2,0.9-2.9
		c0.8-5.6,1.3-11.1,0.1-16.7c-1.2-5.3-3.9-9.4-9.3-11.1c-1.4-0.4-2.8-0.7-4.2-0.8c-5.4-0.1-10.8,0.5-16,2c-3.5,1-6.7,2.8-9.4,5.3
		c-0.5,0.4-0.9,0.8-1.4,1.2c0,0-0.2,0-0.4,0c1.8-3.4,4.5-5.7,7.9-7c2.5-0.9,5.1-1.6,7.7-2c5.6-0.8,11.2-1.4,16.8-0.3
		c2.2,0.4,4.4,1.2,6.6,1.9c0.5,0.2,0.9,1,1,1.5c0.6,3.4,2.1,6.3,4.5,8.7C552.6,173.7,554.2,173.8,558,171.6z"/>
	<path class="st0" d="M525.6,260.3c-0.8-1.8-1.5-3.4-2.3-5c-1.7-3.2-3.3-6.4-5.1-9.4c-0.7-1.2-1.8-2.4-3-3.2c-1.4-0.9-3-1.5-4.6-2.2
		c0.8-2,1.7-4.3,2.6-6.6c0.1-0.3,0.6-0.6,1-0.6c4.6,0,8.9,0.6,12.4,4c2.5,2.4,3.7,5.4,3.8,8.9c0.1,2.8-0.7,5.3-2,7.7
		C527.3,255.7,526.6,257.9,525.6,260.3z"/>
	<path class="st0" d="M555.7,274.3c-0.3,3.6-0.7,7.1-1,10.7c-0.2,3.2-0.3,6.4-0.4,9.6c0,0.9-0.3,1.2-1.2,1.3
		c-2.6,0.3-4.8-0.2-6.5-2.3c-0.7-0.8-1.5-1.6-2.2-2.3c-2.2-2.2-4.8-3.3-8-2.9c-0.3,0-0.7,0-1.3,0c0-1.2,0-2.4,0-3.6
		c0-0.3,0.4-0.6,0.7-0.7c7-2.2,13.4-5.8,19.5-9.8C555.5,274.3,555.5,274.3,555.7,274.3z"/>
	<path class="st0" d="M549.3,243.5c1.9,4.8,4.9,9.3,4.3,14.8c-0.3,2.7-0.8,5.4-1.3,8c-0.5,2.5-2,4.5-4.1,5.9
		c-3.5,2.4-7,4.6-10.6,6.7c-1,0.6-2.2,0.8-3.7,1.3c1.1-4.3-0.8-7-3.7-9.4c-0.4-0.3-0.6-1-0.8-1.5c-0.4-1-0.5-2-1.1-2.9
		c-2.3-3.7-0.1-6.8,1-10.5c0.3,0.7,0.5,1,0.6,1.3c1.2,5.1,4.4,9,8.3,12.3c2.8,2.3,6.3,2.2,8.6-0.6c4.4-5.5,6.6-11.5,3.6-18.4
		c-0.2-0.4-0.3-0.8-0.6-1.1C548.2,247.6,549,245.5,549.3,243.5z"/>
	<path class="st0" d="M537,156.3c-1.6-0.1-3.2-0.4-4.8-0.4c-6.5,0.1-12.9,0.3-19,2.5c-4,1.4-7.1,4-9.5,7.5c-1.8,2.7-3.6,5.4-5.6,8
		c-1,1.3-2.4,2.2-3.6,3.4c-0.2-0.1-0.3-0.2-0.5-0.3c0.3-1.5,0.6-3.1,1-4.5c1.4-4.6,2.5-9.4,5.2-13.5c0.1-0.1,0.2-0.3,0.2-0.4
		c0-2.1,1.5-2.7,3.1-3c5.5-1.2,11.1-2.5,16.7-3.6c0.6-0.1,1.3,0.3,1.9,0.5c0.2,0.1,0.3,0.2,0.4,0.4c1.6,1.7,3.2,2.6,5.8,1.8
		c3-0.8,6,0,8.8,1.2C537.1,156,537,156.2,537,156.3z"/>
	<path class="st0" d="M500.3,297.7c-0.3,0-0.6,0-1,0c-3.4,0.2-3.9-0.1-5.1-3.4c-0.8-2.2-1.7-4.4-2.4-6.6c-0.2-0.8-0.2-1.8,0.1-2.5
		c1.8-4,4.9-5.4,9-4.1c1.8,0.6,3.4,1.5,5,2.4c0.4,0.2,0.9,0.8,0.9,1.3c0.4,2.4,0.9,4.8,1,7.2c0.2,4-1.1,5.3-5.1,5.5
		C502,297.7,501.1,297.7,500.3,297.7L500.3,297.7z"/>
	<path class="st0" d="M512,296.9c0.5,0.5,1,1,1.5,1.6c0.6,0.7,1.1,1.4,1.6,2.1c1.2,1.6,2.8,2.2,4.8,2c2.6-0.3,5.2-0.5,7.8-0.6
		c2.9-0.1,5.9,2.3,6.3,5.2c0.2,1.5,0.2,3.2,0.2,4.7c-0.1,2.2-0.5,2.4-2.7,2.3c-0.4,0-0.7,0-1,0c-0.3-2.7-0.6-5.3-0.8-7.9
		c-0.1,0-0.3,0-0.4,0c-0.2,2.1-0.5,4.2-0.7,6.4c-0.1,1.1-0.5,1.7-1.7,1.6c-0.8-0.1-1.7,0-2.4,0c-0.4-2.6-0.7-5.1-1.1-7.7
		c-0.2,0-0.3,0-0.5,0c-0.1,1.9-0.2,3.8-0.3,5.7c-0.2,2.2-0.2,2.2-2.4,2.1c-3.6-0.2-4.3-0.8-5-4.3c-0.4-2-0.9-3.9-1.3-5.9
		c-0.1-0.4,0.3-0.8,0.4-1.2c0-0.5,0-1.4-0.2-1.4c-2.7-0.7-1.5-3-2.2-4.5C511.8,297,511.9,297,512,296.9z"/>
	<path class="st0" d="M537.7,153.9c-2.5-0.9-5-1-6.8-2.9c-1.4-1.4-2.9-2.6-4.3-3.9c-1.9-1.7-4.1-2.6-6.7-2.4
		c-5.4,0.4-10.8,1-16.1,1.5c-3.5,0.4-7,0.8-10.4,1.3c-0.9,0.1-1.5-0.1-2-0.8c-1.1-1.4-2.2-2.8-2.8-4.6c7.9-1.2,15.7-2.1,23.6-1.1
		c5.3,0.7,10.5,1.9,15.7,2.9c0.6,0.1,1.3,0.5,1.8,1c2.6,2.8,5.2,5.6,7.7,8.5C537.4,153.3,537.4,153.5,537.7,153.9z"/>
	<path class="st0" d="M506.1,194.6c0,0,0.1,0,0.1,0.1c2.3,4.5,6.3,6,11.1,6.3c7.1,0.4,13.8-0.3,19.2-5.3c2.3-2.1,4.2-4.7,5.8-7.5
		c0.9-1.6,0.8-3.9,1-5.9c0.4-4,0.5-8-0.7-11.9c-1.4-4.2-4.1-7.1-8.6-7.6c-6-0.8-12.2-1.1-17.9,1.4c-6.3,2.6-11.2,6.9-13.1,13.8
		c-0.6,2.3-0.3,4.8-0.4,7.4c-0.5-2.1-0.9-4-0.7-6.1c0.4-4,2.4-7.2,5.1-10c4.1-4.3,9.2-6.4,15-7.2c3-0.4,6-0.7,9-0.7
		c7.2-0.1,11.8,3.7,13,10.9c0.9,5.2,0.6,10.4-0.4,15.6c-0.3,1.5-1.4,2.8-2.2,4.1c-0.5,0.8-1.7,1.3-1,2.3c0.8,1,1.8,0.1,2.6-0.3
		c3-1.6,6.1-2.6,9.5-2.1c1,0.1,2,0.5,3,0.8c0,0.1-0.1,0.2-0.1,0.4c-1.7,0.1-3.4,0.1-5.1,0.4c-4.9,0.7-9.4,2.6-13.6,5
		c-7.5,4.2-15.5,5.2-23.8,3.9c-4.7-0.8-8.7-3-11.8-6.7c-0.8-0.9-1.5-1.9-2.4-2.8c-0.9-0.9-1.9-1.8-3-2.2c-1.4-0.5-1.6-1.3-1.3-2.6
		c1.5,0.1,2.5,0.8,3.5,1.8c1.8,1.7,3.5,3.5,5.3,5.2C504.6,196.1,504.9,196,506.1,194.6z"/>
	<path class="st0" d="M543.4,146.7c0.5,0.2,1,0.4,1.5,0.5c2.4,0.6,3.3,2.6,4.2,4.6c0.1,0.2-0.3,0.9-0.6,1c-0.5,0.1-1.3,0.1-1.5-0.1
		c-2.2-2.6-4.5-5.1-6.5-7.8c-1.3-1.7-2.4-3.6-3.7-5.5c0.1,0,0.2-0.1,0.4-0.2c7.4-0.7,14.4,0.4,20.9,4.1c1.2,0.7,2.3,1.6,3.4,2.5
		c0.3,0.3,0.5,1,0.3,1.4c-0.6,1.4-1.4,2.9-2.2,4.2c-0.7,1.1-2,1.2-2.9,0.2c-0.8-0.9-0.5-2.6,0.6-3.1c1.6-0.7,1.9-1.7,0.8-4
		c-0.1,1.8-1.1,2.3-2.5,2.5c-1,0.2-1.5,1.1-1.5,2.1c0,0.7,0.1,1.4,0.2,2.1c-0.8,0.1-1.7,0.4-2.5,0.3c-0.4,0-0.9-0.4-1.1-0.7
		c-0.9-1.2-1.7-2.5-2.6-3.6C546.7,145.7,545.3,145.6,543.4,146.7z"/>
	<path class="st0" d="M572.2,166.8c-0.9-0.3-1.7-0.6-2.6-0.7c-0.4-0.1-0.8,0.4-1.2,0.7c0.3,0.4,0.5,0.9,0.8,1.1
		c1.3,0.6,2.6,0.9,4.2,1.6c0.1,1.2,0.3,2.8,0.4,4.3c0,5.2,0,10.4,0,15.7c0,2.2,0.5,4.4,0.6,6.5c0.2,4.5-2,6-6,3.9
		c-2.2-1.2-4.2-2.9-6.3-4.4c0.1-0.1,0.1-0.2,0.2-0.3c1.1,0.1,2.2,0.2,3.3,0.2c3.5,0,5.7-1.6,6.6-5.1c0.7-2.5,0.8-4.9,0.3-7.5
		c-0.1-0.5,0.1-1,0.1-1.8c-0.3-0.2-0.7-0.5-1.2-0.9c0.7-0.5,1.1-0.8,1.8-1.4c-1.2-0.5-2.3-1-3.4-1.5c0.9-0.4,1.6-0.8,2.4-1.2
		c0-0.1,0-0.2,0-0.3c-3.2-0.8-6.3-1.6-9.8-2.5c1.1-2.5,1.5-5.3,3.6-7.3C567.8,164.2,570.7,164.7,572.2,166.8z"/>
	<path class="st0" d="M503.1,314.5c-0.2-3.1-0.5-5.9-0.7-8.7c-0.1,0-0.3,0-0.4,0c-0.3,2.4-0.6,4.9-1,7.3c-0.1,0.7-0.2,1.4-1.1,1.1
		c-0.9-0.2-2.3,0.5-2.4-1.2c-0.2-2.1-0.3-4.3-0.5-6.4c0-0.2,0-0.3-0.1-0.8c-1.3,2.6-1.4,5.1-1.4,7.6c-2.1,0.5-2.7,0.1-2.9-1.9
		c-0.1-1.2-0.3-2.3-0.3-3.5c0-2.4,1-3.8,3.3-4.5c1.2-0.4,2.5-0.6,3.8-0.6c2.4-0.1,4.9-0.1,7.3-0.2c0.8,0,1.2,0.2,1.3,1
		c0.6,2.9,0.6,5.9-0.3,8.7c-0.2,0.6-0.9,1.3-1.4,1.5C505.3,314.4,504.1,314.4,503.1,314.5z"/>
	<path class="st0" d="M529.2,152.1c-2.4,1.3-4.2,0.7-5.7-1.1c-1-1.2-2.2-1.4-3.9-1.1c-6.2,1.1-12.5,2.2-18.5,4.3
		c-0.5,0.2-1.2,0.1-1.5-0.1c-1.1-0.9-2.2-1.9-3.2-2.9c-0.4-0.4-0.6-1.1-0.5-1.6c0-0.2,0.9-0.5,1.4-0.6c5-0.6,10.1-1.3,15.1-1.9
		c2.8-0.3,5.6-0.4,8.4-0.4c1,0,2.1,0.3,2.9,0.8C525.6,148.9,527.3,150.5,529.2,152.1z"/>
	<path class="st0" d="M543.2,264c0.9-2.8,3.1-5.1,3.1-8.7c-1.4,1.9-2.7,3.5-3.8,5.1c-1-1.4-1.9-2.8-2.9-4.2
		c-0.1,0.1-0.2,0.1-0.4,0.2c0.3,1.3,0.7,2.5,1,3.8c-0.1,0.1-0.2,0.1-0.3,0.2c-1-2.9-3.3-4.3-5.7-5.7c-2.4-1.4-2.7-3.8-0.9-5.9
		c3.3-3.9,11-3.8,13.8,0.5c1,1.5,1.2,3.7,1.2,5.6C548.3,258.8,546.2,261.6,543.2,264z M539.2,254.1c1.7-0.4,3.5-0.6,5.1-1.2
		c0.7-0.2,1.6-1.1,1.7-1.8c0.1-0.7-0.5-1.7-1.1-2.2c-2.1-1.6-4.5-1.6-6.9-0.6c-1.7,0.7-2.5,2.3-2.2,3.8
		C536,253.4,537.1,254,539.2,254.1z M536.2,248.3c-2.2,0.1-3.8,1.9-3.5,3.6c0.2,1.1,1.1,1.6,2.4,1.4
		C533.8,251.3,535,249.9,536.2,248.3z"/>
	<path class="st0" d="M506.3,269.4c-0.8-3.7,1.6-6.3,5-5.5c6.8,1.8,13,4.7,18.4,9.2c1,0.8,1.8,2,2.3,3.2c0.4,0.9,0.1,2-0.1,3.1
		c-3.2-4-7.7-6.2-11.8-8.9c-1-0.7-2.1-1.2-3.2-1.7C513.2,267.2,509.7,266.5,506.3,269.4z"/>
	<path class="st0" d="M574.4,135.5c0,2.2,0,4.1,0,6c0,0.4-0.5,0.9-0.9,1c-3.5,1-5.5,3.6-7,6.6c-1.1,2.2-2.1,4.4-3.2,6.6
		c-0.3,0.5-0.7,0.9-1.1,1.5c-0.6-1.2-1.1-2.1-1.5-3.1c-0.1-0.2,0.1-0.6,0.2-0.9c1.3-2.7,2.8-5.4,3.9-8.2
		C566.5,140.5,569.9,137.8,574.4,135.5z"/>
	<path class="st0" d="M496.9,278.8c1.2-2.9,2.2-5.8,3.6-8.6c0.7-1.4,2.1-2.5,3.1-3.8c0.1,0.1,0.2,0.2,0.4,0.2c0,0.5-0.1,1.1,0,1.5
		c0.3,1.1,0.7,2.1,1,3.2c0.1,0.3,0.3,0.5,0.3,0.8c0.3,2.8,0.6,5.6,1,8.5c0,0.1-0.1,0.3-0.1,0.5C503.2,279.7,500.2,278.4,496.9,278.8
		z"/>
	<path class="st0" d="M556.8,290.6c0.8,2.5,0.6,5,0.2,7.6c-0.1,1-0.8,1.5-1.7,1.3c-3.1-0.4-6.2-0.8-9.2-1.5
		c-0.9-0.2-1.8-1.1-2.4-1.8c-1.9-2.4-4.3-3.7-7.5-3.6c-0.4,0-0.8-0.5-1.1-0.8c0.3-0.4,0.6-1.1,1-1.2c2.3-0.6,4.4,0,6.2,1.6
		c1.1,1,2.1,2,3,3.1c2.7,2.9,6,3,9.5,2.4c1-0.2,1.3-1,1.3-1.9c0-1.8,0-3.5,0-5.2C556.5,290.6,556.6,290.6,556.8,290.6z"/>
	<path class="st0" d="M536.3,310.2c-0.1-0.8-0.2-1.4-0.2-2c-0.2-2.8-1.3-5-3.7-6.6c-0.3-0.2-0.7-0.9-0.6-1.2c1-3.8,0.7-7.5-0.3-11.2
		c-0.6-2.3-0.4-4.5,0.8-6.8c0.2,0.8,0.6,1.5,0.7,2.3c0.2,1.8,0.2,3.6,0.2,5.4c-0.1,5.4,1.2,10.4,3.5,15.2c0.3,0.7,0.6,1.4,0.9,2
		C538.5,309.4,538.5,309.4,536.3,310.2z"/>
	<path class="st0" d="M560.1,265.9c-0.6,1-1,2.4-1.9,3.1c-2.5,2.2-4.9,4.5-7.8,6.1c-4.4,2.5-9.2,4.5-13.8,6.8
		c-0.5,0.2-1,0.3-1.9,0.5c9.6-4.2,17.5-10.1,25-16.7C559.8,265.7,560,265.8,560.1,265.9z"/>
	<path class="st0" d="M510,292.7c2.2-0.3,3.8,0.5,5.1,1.9c1.1,1.2,2.1,2.5,3.2,3.6c0.5,0.5,1.3,0.8,2,0.8c1.7,0,3.4-0.2,5.2-0.2
		c2.8-0.1,3.5-0.6,4.3-3.3c0.1-0.3,0.2-0.7,0.7-1c-0.1,1.4-0.1,2.9-0.3,4.3c0,0.4-0.8,0.8-1.2,0.9c-1.5,0.2-3.1,0.2-4.6,0.3
		c-0.8,0-1.6-0.1-2.4,0.2c-3.1,1-5.2-0.2-6.9-2.9c-0.8-1.3-2.3-2.1-3.5-3.2C511.1,293.8,510.5,293.2,510,292.7z"/>
	<path class="st0" d="M509.3,296.3c0,0.5,0,0.7,0,0.8c-1.1,3.7-1.1,3.6-5,3.7c-3,0.1-6,0.2-9.1,0.3c-1.2,0.1-2.1-0.5-2.5-1.6
		c-0.9-2.6-1.6-5.3-2.4-7.9c0.2-0.1,0.4-0.1,0.6-0.2c0.2,0.4,0.4,0.8,0.5,1.2c0.6,1.4,1.1,2.8,1.7,4.1c0.9,2,2.4,3.1,4.7,3
		c1.8-0.1,3.5-0.1,5.3-0.2C505.5,299.5,507.8,298.9,509.3,296.3z"/>
	<path class="st0" d="M532.4,246.6c0-4.5-1.6-8.3-5-11.3c-3.3-2.9-7.4-4-11.7-4.3c1.7,0,3.4-0.4,5,0.1c2.5,0.7,5,1.6,7.2,2.9
		c4.2,2.4,5.4,6.6,5.6,11.2c0,0.5-0.4,1-0.6,1.5C532.7,246.6,532.5,246.6,532.4,246.6z"/>
	<path class="st0" d="M496.9,262.5c-1.9-1.5-3.8-2.9-6-4.5c1.7-0.9,3.4-2,5.1-2.8c0.6-0.2,1.6,0.1,2.2,0.4c0.3,0.2,0.1,1.2,0,1.7
		C497.8,259.2,497.3,260.9,496.9,262.5z"/>
	<path class="st0" d="M556,255.6c1.3,2.4,2,4.9,2.1,7.6c0,0.5-0.2,1-0.5,1.4c-1,1.1-2.1,2.1-3.3,3.3
		C554.9,263.6,555.5,259.6,556,255.6z"/>
	<path class="st0" d="M547.3,162.8c1,0.6,1.9,1.1,2.8,1.6c0,0.1,0.1,0.1,0.1,0.2c-0.2,3.1,0,3.6,3.1,3.7c1.6,0.1,3.3-0.4,5-0.6
		c-0.8,1.3-1.7,2.6-3.2,3.2c-0.5,0.2-1.4,0.2-2-0.1C550,169.1,548.2,166.3,547.3,162.8z"/>
	<path class="st0" d="M499.6,179.9c-3.4-0.8-3.8,2.4-5.2,4.4c-1.2-2.3-0.7-4,1.1-5.4c1.8-1.4,3.5-3,5.3-4.5
		C500.4,176.1,500,177.8,499.6,179.9z"/>
	<path class="st0" d="M499.7,181.9c0.7,2.8,1.4,5.4,2.1,8.2c-1.9-1.6-3.8-3.1-5.7-4.6C497.5,184.8,496.7,181.5,499.7,181.9z"/>
	<path class="st0" d="M513.1,311.4c-1,0-1.9,0.1-2.6,0.1c-0.2-3.6-0.3-7-0.5-10.4C511.9,304.3,512.6,307.7,513.1,311.4z"/>
	<path class="st0" d="M567.6,201.7c0.4,0.2,0.9,0.3,1.3,0.5c4.4,1.7,7.8-0.8,7.6-5.5c-0.1-2.4-0.4-4.7-0.3-7.1
		c0.3,2.9,0.6,5.9,0.8,8.8c0.1,0.9-0.2,1.9-0.4,2.8c-0.5,1.8-1.9,3-3.8,2.9c-1.4-0.1-2.8-0.5-4.2-0.9c-0.5-0.1-0.8-0.7-1.2-1.1
		C567.4,201.8,567.5,201.7,567.6,201.7z"/>
	<path class="st0" d="M561.4,176c0.5-0.2,0.9-0.6,1.3-0.5c1,0.2,2.2,0.4,3,0.9c3.3,2.2,5.2,5.3,5,9.4c-0.1,1.7-0.5,3.5-1,5.2
		c-0.4,1.4-1.5,2.1-3.3,2.2c3.7-2.8,4.9-6.4,3.3-10.4c-1.4-3.7-3.8-6.5-8.3-6.4C561.4,176.2,561.4,176.1,561.4,176z"/>
	<path class="st0" d="M573.5,162.4c-4-2.3-7.6-3.1-11.2,0c-0.5-1.6-0.4-1.9,1-2.6c2.5-1.1,5.1-1.2,7.7-0.3
		C572.2,160.1,573.1,160.9,573.5,162.4z"/>
	<path class="st0" d="M559.8,189.5c4.9,1.5,8.7,0.1,7.5-7.3c1.7,2.2,1.4,6.5-0.8,8.2c-0.7,0.6-1.9,0.8-2.8,0.7
		C562.3,191.1,561,190.8,559.8,189.5z"/>
	<path class="st0" d="M548.1,233.2c-0.5,4.4-0.9,8.5-1.3,12.6C545,244.9,545.8,236.3,548.1,233.2z"/>
	<path class="st0" d="M553.9,166.8c-0.8-0.6-1.7-0.9-1.8-1.4c-0.3-1.2,1.4-2.9,2.7-2.9c0.9,0,2.3,1.6,1.9,2.6
		C556.3,165.9,555,166.2,553.9,166.8z"/>
	<path class="st0" d="M566.9,153.1c1.4-3.5,2.7-7.1,7-8.6c-0.1,1.1-0.1,2.1-0.1,2.9c-1,0.1-2.2,0-2.9,0.5c-0.8,0.5-1.2,1.6-1.7,2.5
		c-0.6,1-1.2,2-1.8,3.1C567.2,153.3,567,153.2,566.9,153.1z"/>
	<path class="st0" d="M568.4,162.7c-3.5,0.5-5.2,2.8-6.4,5.8c-0.8,2.1-1.7,4.2-2.6,6.3c0.6-3.8,1.7-7.4,4-10.5
		C564.7,162.6,566.4,162.2,568.4,162.7z"/>
	<path class="st0" d="M533.8,256.9c3.2,1.4,4.7,3.5,4,6.4c-1.5-2-2.9-4.1-4.3-6.1C533.6,257,533.7,257,533.8,256.9z"/>
	<path class="st0" d="M538.8,267.1c3.1,1.8,5.7,1.1,8-1.6c-0.8,1.8-1.9,3.1-3.8,3.5C541.2,269.4,539.9,268.5,538.8,267.1z"/>
	<path class="st0" d="M553,155c1.6,0.8,1.9,3.2,0.7,5.1C552.2,158.7,552,156.8,553,155z"/>
	<path class="st0" d="M550.2,157.7c-1-0.2-1.9-0.4-3-0.6c0.7-1.6,2-2.5,3.7-3.1C550.6,155.3,550.4,156.5,550.2,157.7z"/>
	<path class="st0" d="M548.2,159.2c1.2,0.6,2.2,0.9,3.1,1.5c0.3,0.2,0.2,0.8,0.3,1.2c-0.4,0.1-0.9,0.4-1.3,0.3
		C549.2,161.8,548.5,160.9,548.2,159.2z"/>
	<path class="st0" d="M564,185c-0.6-0.8-1.4-1.3-1.3-1.8c0-0.6,0.7-1.1,1.1-1.7c0.5,0.6,1.1,1.2,1.5,2
		C565.3,183.7,564.7,184.2,564,185z"/>
	<path class="st0" d="M555.2,153.2c1.2,0.6,2.5,1.3,3.7,1.9c0,0.1-0.1,0.3-0.2,0.4c-0.8,0.2-1.5,0.4-2.4,0.7c-0.5-0.8-1-1.6-1.4-2.5
		C555,153.6,555.1,153.4,555.2,153.2z"/>
	<path class="st0" d="M492.5,302.8c-1,1.1-1.4,1.1-1.9-0.2c-0.4-1-0.5-2.1-0.4-3.3C491,300.5,491.8,301.6,492.5,302.8z"/>
	<path class="st0" d="M560,161.5c-0.2,1.4-0.4,2.9-0.7,4.3c-0.1,0-0.2,0-0.3,0c-0.3-0.9-0.8-1.9-0.8-2.9c0-0.6,0.8-1.1,1.2-1.6
		C559.6,161.3,559.8,161.4,560,161.5z"/>
	<path class="st0" d="M556.1,160.2c0.6-1.4,1.2-2.5,2.9-2.4C558.7,159.8,558,160.4,556.1,160.2z"/>
	<path class="st0" d="M560.8,179.1c1.5-1.1,3-0.9,4.3,0.4C563.7,179.4,562.3,179.2,560.8,179.1z"/>
	<path class="st0" d="M289.7,118.5c-0.3,0.7-0.8,1.2-0.8,1.8c-0.2,1.8-1.3,1.9-2.7,1.8c-7.4-0.1-14.8,0.2-22-1.1
		c-2.8-0.5-5.6-1.5-8.3-2.3c-0.4-0.1-0.7-0.3-1-0.8c1.4,0.3,2.9,0.6,4.3,0.9c7.6,1.4,15.2,1,22.8-0.3c2.3-0.4,4.6-0.2,6.9-0.3
		C289.1,118.2,289.3,118.4,289.7,118.5z"/>
	<path class="st0" d="M402,148.9c4.2-2.9,6.2-6.6,5.7-11.2c-0.4-4.2-3.2-6.9-7.6-8.2c0.8-0.2,1.3-0.4,1.8-0.5
		c6.5-0.9,13.5,5.2,13.5,11.8c0,2.8-1.2,4.8-3.5,6.3C408.9,149,405.7,149.1,402,148.9z"/>
	<path class="st0" d="M397.7,147.4c-0.5-0.1-1.4-0.1-2.2-0.3c-2.4-0.5-3.7-1.9-3.7-4.3c0-3.2,0.3-6.2,2.8-8.6c2.4-2.3,4.8-3,7-1.9
		c2.8,1.3,4.6,4.2,4.3,7.2c-0.2,2.4-1.2,4.6-3,6.3C401.5,147.1,399.9,147.4,397.7,147.4z M398.2,145.3c3.8,0,6.8-2.7,6.8-6.1
		c0-3.3-2.6-6-5.8-6c-3.4,0-6.8,3.1-6.7,6.2C392.6,142.9,394.9,145.3,398.2,145.3z"/>
	<path class="st0" d="M261.8,90.5c2.1-3.8,1.1-10.2-2.3-13.9c-6.2-6.8-16.5-6.3-22.4,1.2c-2.4,3.1-3.8,6.5-3.1,10.5
		c0.1,0.8,0.7,1.6,1.3,2.1c1.3,1.1,2.7,2,4.2,3c-0.3,0.1-0.5,0.2-0.8,0.2c-2.3,0.5-4.7,0.8-7,1.4c-3.8,1.1-7.1-0.2-10.4-1.7
		c-0.4-0.2-0.6-0.9-0.6-1.4c-0.1-5.8-0.1-11.7-0.1-17.5c0-1.2,0.2-2.3,0.1-3.5c-0.2-2.7,0.7-4.9,2-7.1c3.2-5.3,6.9-10.3,12.5-13.3
		c9.9-5.2,19.7-4.7,29.4,0.7c2.1,1.2,4,2.7,6.1,4c0.8,0.5,1.1,1.2,1.1,2.1c0.1,8.9-0.7,17.7-2.2,26.5c-0.1,0.8-0.7,1.8-1.3,2.3
		c-2,1.7-4.2,3.1-6.4,4.7C262,90.7,261.9,90.6,261.8,90.5z M250.2,49.7c-4.7,0.2-7.8,2.3-10.6,4.8c-0.3,0.3-0.2,1.1-0.2,1.6
		c0.6,0.1,1.3,0.3,1.8,0.2c3.1-1.3,6.2-2,9.5-2c0.6,0,1.2,0,1.8-0.2c1.4-0.5,1.9-1.8,0.7-2.8C252.1,50.4,250.8,50,250.2,49.7z
		 M236.1,69.1c6.9-5.1,14.1-6.8,22-2.4C255.2,61.2,242,60.9,236.1,69.1z"/>
	<path class="st0" d="M259.7,89.1c0-1.8,0.2-3.6,0-5.4c-0.6-6-7.5-10.1-13.1-7.9c-3.6,1.5-5,4.6-5.2,8.3c-0.1,2.7,0.7,5.2,2.3,7.3
		c0.2,0.3,0.4,0.6,0.6,0.9c-0.1,0.1-0.1,0.3-0.2,0.4c-1.5-0.6-3-1.2-4.5-1.8c-0.3-0.1-0.6-0.4-0.9-0.6c-2.7-1.8-3.3-3.3-2.4-6.5
		c1.7-6.5,8.1-10.7,14.7-9.9c6.5,0.8,11.2,7.6,9.7,13.9c-0.1,0.4-0.4,0.8-0.5,1.2C260,89.1,259.9,89.1,259.7,89.1z"/>
	<path class="st0" d="M255.9,80.2c-2.1-1.6-4.3-2.6-7-1.8c-1.6,0.4-2.5,1.7-3.3,3.1c-1.8,3.5-0.6,8.1,2.5,9.8
		c2.7,1.5,7.9,0.2,9.6-3.7c0.3,2.6-1,4.5-3.6,4.9c-1.7,0.3-3.4,0.4-5.1,0.5c-0.5,0-1-0.2-1.4-0.4c-3.2-2.2-4.9-6.8-3.7-10.5
		c0.7-2.4,2.1-4.2,4.7-4.6C251.5,76.9,254,77.8,255.9,80.2z"/>
	<path class="st0" d="M255.5,83.2c-0.3,1.4-1.1,2.4-1.9,2.4c-1.2-0.1-1.4-1-1.4-2c0-1.1,0.9-2.4,1.6-2.1
		C254.4,81.8,254.9,82.6,255.5,83.2z"/>
	<path class="st0" d="M422,217.7c0-2,0.9-3.5,2.4-4.1c2-0.8,4.8-0.1,6.2,1.5c1.4,1.6,2.1,3.6,2,5.7c0,3-2.7,4.7-5.6,3.8
		S422,220.7,422,217.7z M423.1,218.5c0,2.5,1.9,4.7,4.1,4.7s3.9-1.8,3.9-4.1s-2.3-4.9-4.4-4.9C425.2,214.3,423.1,216.7,423.1,218.5z
		"/>
	<path class="st0" d="M101.4,159.8c-1.5-1-3.1-1.8-4.4-3c-1.1-0.9-0.1-2,0.5-2.8c0.6-0.9,1.6-1.2,2.4-0.5c0.7,0.6,1.3,1.4,1.5,2.2
		c0.3,1.2,0.2,2.5,0.3,3.8C101.6,159.6,101.5,159.7,101.4,159.8z"/>
	<path class="st0" d="M140.4,154.7c2.6,2.4,2.1,4.3-1.4,5.7C139.4,158.5,139.9,156.7,140.4,154.7z"/>
	<path class="st0" d="M524,191.4c-2.6-0.4-5.2-0.8-7.8-1.3c-0.3-0.1-0.7-0.7-0.7-1c0-2.3,0.1-4.6,0.2-7c0-2.1,0.8-3.8,2.5-5.1
		c2.1-1.7,4.5-3,7.2-3.4c0.4-0.1,0.7-0.1,1.1-0.1c0.1,0,0.2,0.1,0.7,0.3c-4.2,1.1-5.9,4.1-6.3,7.8
		C520.3,185.3,521.2,188.6,524,191.4z"/>
	<path class="st0" d="M523.3,186c2.4,3.2,5,4.2,8.2,3c2.4-0.9,3.5-3.2,3.2-6.6c-0.3-2.6-1.9-4.4-4.3-4.8c-2.6-0.5-5.8,0.4-7.4,4.5
		c-0.2-3.4,1.9-5.9,5.2-6.3c3.8-0.5,6,0.8,7.2,4.3c0.5,1.4,0.8,2.8,0.9,4.2c0.3,3.4-1.7,6.1-4.9,6.6c-3.8,0.6-7.2-1.3-8.1-4.6
		C523.2,186.3,523.3,186.2,523.3,186z"/>
	<path class="st0" d="M530.6,180.1c1.4,0.2,2.1,1,2,2.1c0,1-0.8,1-1.5,1c-1.2,0.1-1.8-0.7-1.6-1.7
		C529.6,181,530.2,180.6,530.6,180.1z"/>
	<path class="st0" d="M543.9,250.8c-1.8,0.9-3.7,1-5.5,1.1c-0.2,0-0.5-0.3-0.5-0.5c0-0.3,0.2-0.6,0.4-0.8
		C539.2,249.5,542.5,249.6,543.9,250.8z"/>
	<path class="st0" d="M400.6,139.4c-0.9-0.1-1.5-0.6-1.5-1.7c0-0.9,0.9-1.9,1.9-1.9c0.7,0,1.5,1.1,1.6,2
		C402.6,139,401.8,139.3,400.6,139.4z"/>
	<path class="st0" d="M425.1,218.7c0-1.1,0.9-2.1,1.8-2.1c1,0,2.2,1.3,2.2,2.5s-0.9,2.2-1.9,2.2
		C426.2,221.2,425.1,219.9,425.1,218.7z"/>
</g>
</svg>
