<?xml version="1.0" encoding="utf-8"?>
<!-- Generator: Adobe Illustrator 26.0.0, SVG Export Plug-In . SVG Version: 6.00 Build 0)  -->
<svg version="1.1" id="Capa_1" xmlns="http://www.w3.org/2000/svg" xmlns:xlink="http://www.w3.org/1999/xlink" x="0px" y="0px"
	 viewBox="0 0 595.3 1046.5" style="enable-background:new 0 0 595.3 1046.5;" xml:space="preserve">
<style type="text/css">
	.st0{fill:#FFFFFF;}
</style>
<g>
	<path d="M449.6,989.9c0.5,10.7-0.9,21.4-3.3,31.7c-3.8,15.5-15.8,13.4-28.4,12.8c-13.2,6.9-27.9,9.9-42.2,3.6
		c-13.8,13.1-35.1,8.6-51,2.5c-30.8-12.4-26.3-61.7-31.6-90c-18.2,3.8-35.3,5.6-53.9,5.8c0,3.7-0.4,7.5,0.1,11.2
		c1.5,26.3-17.2,50-39.4,62.6c-18.5,10.1-43.3,18.5-62.2,4.8c-1.6-1.2-3.1-1.4-4.9-1.3c-6.2,0.3-12.3-0.1-18.3-2
		c-13.5-3.6-10.3-9.3-15.9-11.2c-26.7-5.2-14.5-54.1-5.9-70.8c8.4-18.6,24.7-22.3,43.7-22.9c20.6-49.6,13.1-105.3,11.6-157.6
		c-0.3-5.1-1-10.1-3-15c-9-23.2-14.9-58.4,9.9-73.9c5.4-4.1,6.9-12.6,10.3-18.8c-11.6-11.5-1.7-27.6-4.8-41.7
		c-2.1-9.2,4.1-13.3,11.4-17.2c-1.7-0.3-2.4-0.6-3.2-0.6c-9.8,1.6-20.1,1.3-29.5,4.3c-20.1,8.6-42.7,2.9-62.7-3.4
		c-23.5-7-34.1-23.7-36-47.7c-0.8-9.2,0.1-18.4,2.6-27.4c1.2-8.4-0.5-17.6-2.1-25.8c-45.7-11.9-53.8-91.5-21.4-120
		c13-7.9,27.9-10.3,43-10.5c2.6,0.1,4-1,5.2-3.1c10.6-17.7,15.5-37.5,19.2-57.6c3.3-16.4,10.6-30.8,19.7-44.8
		c-25.5-13.1-48.9-29.1-68.1-50.6c-7.3-9.5-24.1-26.3-14.3-38.4c5.8-6.9,12.2-16.4,22.6-13c12.4,3.4,23.2,8.6,34.8,14.2
		C64.1,131.9,59.4,81.5,67.4,32.7c0.9-5.9,2.5-8.2,8.4-8.9c72.3-2.2,144.4,44.8,175.3,109.5c18.4-11.7,38-4,53.7,8.2
		c10.8,7.9,23.8,7.1,36.3,4.1c17.8-3.2,29.2-6.6,44.9,5.2c22.9-44.5,43-91,47.9-141.2c2.2-7,7.6-10.4,14.9-9.2
		C590.6,32,642,233.4,546.7,337.4c18.7,28.1,29,70.2,3.7,97.4c-35.7,36.4-102.8,51.1-150.4,32.7c0.8,36.4,4.5,63.5-22.2,92.7
		c11.6,5.5,21.1,13.3,30.1,22.3c24.5,21.9,32.3,55.9,41.3,86.3c6,16,14.5,31.1,16.6,48.4c0.5,5.6-3,10.1-4.9,15.4
		c1.9,1.3,3.7,2.5,5.7,4c-0.2,5.5-1.2,11.3-1.7,16.8c-0.3,3.5-0.3,7-4.2,10c43.6-1.7,47.1,40.9,42,74.4c17.8-4,29.9-18.4,41.2-31.7
		c1.8-2.1,3.4-5.7,6.7-4.6c2.5,0.9,2.7,3.7,2.7,6c0.3,28-20.9,52-46.3,61.4c-4.5,2.3-11.2,2.1-14.6,6c-2.6,5.7-5,11.5-7.5,17.3
		c-0.1,0.2,0,0.6,0.1,1.2c13.5,3.5,28.5,11.7,31.4,26.5c3.2,16.6,4.2,33.5,1.6,50.2c-1.8,15.4-13.6,15-26,15c-3.7,0.7-7,3-10.6,3.9
		c-6,1.4-12,1.1-17.6-1.5c-1.6-0.7-2.9-0.8-4.6-0.2C456.4,988.3,453.4,988.9,449.6,989.9z"/>
	<path class="st0" d="M178.7,601.3c4.9-0.8,10-1.7,15.4-2.6c-2.5-1.6-2.6-1.6-10.5-1.6c-7.7,0-14.5,0-22.5,0
		c5.3-4.5,11-6.8,16.4-10.8c-0.1-0.3-0.2-0.6-0.3-0.8c-22.9,7.7-44.7,23.2-69.9,18.1c-10.8-2-21.4-4.7-31.9-8.2
		c-32-10.5-34.6-50.4-26.1-77.9c-3.1-5.1-2.1-10-2.9-15.6c1.3-1.4,2.4-1.6,3.9,0c2.1,2.2,4.4,4.3,6.9,6.7
		c-29.7,65.7,34.8,86.1,85.1,61.4c21.6-11.5,39.5-28.5,55.5-46.8c4.5-5.4,10.4-8.9,15.9-13.6c2.7,3,5.2,5.8,8.1,9.1
		c0.5-10-8.9-17.8-16.5-14.1c1.8,1,3.4,1.8,5.6,3c-46.6,30.7-122.2,22-164.1-13c-0.2,0.9-0.4,1.8-0.6,2.8
		c-10.1,2.4-18.6-6.4-24.5-13.4c-15-20.3-20.2-49.8-11-73.5c5.1,16.6,12.9,43.4,34.1,43.3c16.7-0.4,32.6-7.5,44.9-18.7
		c7.9-7.2,14.6-19.2,5.5-28.2c-13.2-13.8-31.3-21.4-49.4-26.6c27.9-9.7,90.3,7.3,117.9,30.1c-8.6-10.2-19.7-15.9-30.8-23.2
		c24.5-27.1,33.6-67,25.7-102.5c0.5,0.1,79.1,12.8,79.4,12.9c-34.7,18.1-53.2,53.4-59.3,91c-3.4,27.4,21.5,55.1,41.7,71
		C278,501.8,288.6,586.3,381,544c-23.3,40.6-75.5,39-115.4,48.7c3.1,0,6.2,0,9.3,0c1,7.7,2,15,3,22.6c-5.4,4.5-35.6,13.4-47.2,13.5
		c-4.2-14-25-13.1-28.8,0.9c-7-0.8-13.2-2.9-18.9-6.3c-1.3-0.8-2.2-1.7-2.3-3.4C180.2,613.8,179.4,607.8,178.7,601.3z M37.5,484.7
		c-0.9-9.1-1.8-18.4-2.6-27.5C30.2,463.2,31.7,479.2,37.5,484.7z M136.5,453.7c-0.6-5.4-7.3-1.5-6.8,2.7
		C130.2,461.8,136.8,458,136.5,453.7z M131.3,431.4c-2.3-3.8-6-0.9-6.2,3C125.7,439.4,131.8,436.1,131.3,431.4z M152.6,440
		c-2.5-3.6-6.1-0.7-6.1,3.3C147.2,448.3,153.2,444.5,152.6,440z"/>
	<path class="st0" d="M333,313.8c21.5,4.7,41.8,12.6,61.6,22.3c0.2-0.3,0.3-0.6,0.5-0.9c-105.6-64.8-252-22.8-343.6-116.1
		c-8.1-7.7-15.3-16.2-20.8-26c-4.3-7.6-4.1-9.2,1.5-16.1c6.8-8.3,8.7-9,18.8-5.9c12.1,4.6,25.9,8.5,35.9,16.7
		c4.8,8.9,11.2,17.3,15,26.6c-2-1.1-3.8-2.2-5.6-3.2c14,16,34.5,23.4,55.5,25.7c-1.6,4.1-4.7,6.6-7,10.2c-1.2,1.8-2.6,2-4.5,1.3
		c-34.1-12.9-67.7-29.5-92.3-57.2c0.8,4.1,2.5,6.7,4.6,8.8c57,56.1,140.9,72.8,217.8,80.9c26.6,2.1,53.3,3,79.9,1.5
		c34.4-2.7,69.1-6,102.5,4.6c32.8,9,65.4,24.8,86.6,52.2c17.8,24.3,29,61.3,9.4,87.5c-29.4,36.9-106.8,55.8-149.1,34.5
		c0.1-18.7,3-37,9.1-54.7c0.3,0,0.7-0.1,1-0.1c1.7,5.4,3.4,10.7,5.1,16.1c0.2,0,0.4,0,0.7,0C413.3,373.6,374.8,334.3,333,313.8z"/>
	<path class="st0" d="M492.7,217.7c-7,23.4-18.5,44.3-33.2,63.7c-22.5-6-45-10.3-68.8-8.7c10-59.5,29.2-117,47.5-174.3
		c8.8-25.5,13.5-52,13.9-79.1c118.3,35.2,148.3,206.4,73.2,295.4c-17.8-14.6-38.1-24.1-60-31.5C478.8,262.8,490,241.9,492.7,217.7z"
		/>
	<path class="st0" d="M262.8,300.1c-5.1,18,9.6-1.9,46.8,39.7c1.9-1.7,1-3.4,0.5-5c-3.2-13.1-12-22.4-22.3-30.5
		c42.4,5.1,96,45.6,113.6,84.5c-4,0-7.8,0-11.7,0c-0.1,0.3-0.1,0.5-0.2,0.8c3.3,1.8,7.1,2,10.7,2.7c5,0.8,5.6,1.6,4,6.3
		c-7.1,20.9-9.6,42.5-9.9,64.5c-1.4,23.7,5.9,58.7-12.2,76.9c-15.1,9.6-33.9,12.2-51.6,11.1c-25.7-1.7-42.6-21.7-57.5-40.5
		c-8.2-10.1-16.1-20.5-24.3-30.7c-6.5-8.1-14.1-14.9-22.7-20.7c-17-11.7-29.9-27.1-40.1-44.8c-12.9-22.3,1.5-49.6,10.8-70.9
		c11.5-20.3,28.7-38,50.9-45.3C252.6,298.7,257.5,299.4,262.8,300.1z M304.7,440.5c26.7-44.8-9.2-118.4-65.7-99
		c-27,9.8-59.7,56.2-32.1,80.2c7.3,5.9,15.2,10.9,22.7,16.5c-1.3,1-2.3,1.8-3.3,2.7c28.1-5,55.7-1.1,83.3,3.2c0-0.3,0.1-0.6,0.1-0.9
		C308.2,442.4,306.6,441.5,304.7,440.5z M303.9,358.2c-5.9-19.7-31.5-37-52.2-28.7C275.5,329.3,289.7,339.8,303.9,358.2z"/>
	<path class="st0" d="M364.4,952.6c6,9.8,9.9,20.6,9.9,32.2c0.4,15-1.3,29.8-3.5,44.6c-0.8,5.3-3.7,7.7-8.3,8.9
		c-19.7,4.4-47.4-0.1-53.2-22.6c-1.9-6.7-3.5-13.7-4.3-20.6c-4.7-44.4-9.8-88.6-17.3-132.6c25.7-7.7,27.2-41.2,57.7-42.2
		c7-1.1,26,4.2,26,12.6c3.2,31.4,9.5,62.2,16.1,93c-6.3,0-12.4,0-18.5,0c-0.1,0.4-0.1,0.7-0.2,1.1c20,2.9,39.9,7.3,56.9,18.8
		c17.2,10.1,18.2,32.2,17.4,50c-0.6,8.4-0.9,17-2.8,25.2c-1.8,9.4-12.2,9.1-19.5,9.4c1.1-20.9,2.3-42.7-0.9-64
		c-0.6-7.3-3.4-13.6-8.4-19.1c-0.2,0.9-0.4,1.2-0.3,1.4c3.7,7.4,4.4,15.4,4.3,23.6c-0.2,17.4,0.6,34.9-1.8,52.2
		c-1.6,11.8-28.4,13.2-36.7,8.1c3.6-26.5,9.5-60.2-12-80.6C364.9,952.3,364.6,952.4,364.4,952.6z"/>
	<path class="st0" d="M99.7,1013.2c-18.8-1.6-8.2-49.1-2.5-60.3c11.1-26.3,37.3-22.4,60.3-23.3c-4.4-0.9-8.7-1.8-13.3-2.7
		c11.1-28.1,11.7-58.2,12.3-88c0.1-4.1,0-4.2,4-5.7c10.4-4.1,19.8-2,28.5,4.6c15.7,12.4,18.1,36.2,38.4,43.7
		c2.3,29.5,4.3,59,5.2,88.5c0.4,7.5-1.4,14.6-4.8,21.2c-13.3,29.6-47.1,52-79.6,42c-19.6-6.2-15.1-43.9-9.8-59.4
		c5-14.3,17.9-25.6,33.5-24.4c-11.1-6.3-24.2,1.5-31.5,10.1c-14.9,18.3-15.6,44.6-9.7,66.5c-3.7,2.8-23.8-1.4-23.4-8.3
		c-4.4-32.1-4.5-78.8,39.3-77.6C101.5,931,97.3,981,99.7,1013.2z"/>
	<path class="st0" d="M84.5,36.8c63.7,8.1,120.2,53.7,137.4,116.2c0.7,2.3,0.7,4-1.2,5.9c-14.9,14.1-28.1,29.5-41.6,44.9
		c-19.8-25.9-35.7-53.1-45.3-84.5c0.9,31.6,23.6,63.9,40.8,89.7c-22.3,26.1-15.5,32.3-41.6,6.8C89.7,168.7,75.3,99.1,84.5,36.8z"/>
	<path class="st0" d="M149.8,251.9c20.9-27.5,42-53.6,65.7-77.8c-10.8,18.3-21.1,41.9-10.8,62.6c3.1,6,7.3,9.5,14.9,8.9
		c31.8-2.1,58.9-24.5,73.8-51.6c-9.8-8.2-9.9-8.8-4.3-25c-10.2-8.7-23.4-13.1-36.3-15.9c-8.6-1.9-10.7,17.7-28.1,11.1
		c62-66.4,59.9-8.4,105.7-11.2c18.8-1.8,36.9-10.5,52.9,4.2c-3.7,8.7-7.3,17.2-10.8,25.6c-0.2,0-0.4-0.1-0.6-0.1
		c0.3-10.9-12.3-16.6-16.3-4.7c-2.3,10.6,6.2,18.2,15.1,9.5c-10.6,29.2-18.8,58.1-23.1,88.4C280.6,278,214.9,272.6,149.8,251.9z
		 M353.3,167.3c-10,8.1-11.6,42.5,1.4,49C347.9,199.6,351.2,184.4,353.3,167.3z"/>
	<path class="st0" d="M383.2,273.4c-10.1,0.8-20,1.5-30.5,2.4c7.8-48.6,26.7-94.5,47.8-138.8c16.7-36.2,34-73.7,35.4-114.2
		c0.7-8.1,0.8-21.8,12.5-19c135.2,34.6,184.1,226.1,94.9,328.5c-4.4-4.6-8.3-8.7-12.4-12.9c76.5-91.6,47.8-264.9-73.7-301.6
		c-3.2-0.9-6.2-1.8-6.7-6.7c-3.1,30.4-7.4,60.4-18.9,89.3C410.8,156.6,394.3,214.4,383.2,273.4z"/>
	<path class="st0" d="M371.6,780.2c-0.7-6.4-1.3-12.3-1.9-18.3c-2.9,20.5-0.7,40.9,0.7,61.9c-17.4-11.5-39.9-10.2-53.8,6
		c-9.2,10.4-15.1,25.7-29.6,29.7c-3.9-16.5-10-32.2-14.7-48.3c0-32.7,9.1-72.9,40.9-88.7c24.5-11.2,56.6,2.2,61.4,29.7
		C376.4,759.9,377.2,774.4,371.6,780.2z"/>
	<path class="st0" d="M450.4,983.9c-0.8-27.1-11.8-42.5-37.3-51.7c-4.4-1.8-4.6-1.7-4.4-6.6c0.2-20.4,2-40.8,5.6-60.9
		c14,6.7,28.8-13.9,41.3-20c11.1-7.8,28.4-10.2,36.9,2.5c5.1,8.4-9.6,35.9-14,44.8c-4,0.2-8.1,0.4-12.1,0.6c0,0.2,0,0.5,0,0.7
		c19.5,2.3,43.7,9.9,46.3,32.6c2.2,15.6,2.1,31.3,0.1,46.8c-0.9,6.6-11,9.3-16.5,8.6c4.4-24.7,15.2-89.1-27.5-79.4
		c17.2,0.2,25.5,9.7,26.2,26.4c0.7,14.4-0.1,28.7-2.7,42.9c-1.6,9-4.7,11.8-13.9,13c-5.6,0.7-8.9,0.3-12.5-1.7
		c4.9-20.5,15.4-91.3-24.3-73.8c18-2.8,23.2,7.5,23.6,23.8c0.5,14.8-0.4,29.6-3.8,44.1C459.7,982.3,456.9,984.2,450.4,983.9z"/>
	<path class="st0" d="M211.4,751.4c29.2-3.3,43.5-43.9,41.3-69.7c-4.5-1.3-9.3-2.1-11.7-7.3c30.9-4.7,64.2-13.9,83.7-40.1
		c20,18.3,36.7,38.6,46.4,65.2c-86.7-58-160.6,99.5-94.5,147.5c1.1,0.7,2.3,2.1,2.5,3.3c1.7,8.6,3.2,17.3,4.8,25.9
		c0,0.2-0.2,0.5-0.5,1.2C246,845.2,217.8,801.1,211.4,751.4z"/>
	<path class="st0" d="M457.1,728.4c-5,13.5-10.3,26.8-15.8,40c-0.6,1.4-1.4,3-2.5,4c-6.3,5-10.2,11.6-12.9,19.1
		c-0.7,1.3-0.8,3.1-2.1,3.9c-9.6-10.8-18.2-22.5-27.6-33.5c-1.6-1.9-1.9-3.8-1.8-6.1c0.3-16.7-3.5-34.3-14.3-47.4
		c-1-1.2-2-2.6-2.3-4.1c-6.6-29.6-25.6-53.3-47-73.8c-1.8-1.8-2.8-3.3-1.9-6c1.6-4.8,1-9.5-1.5-14c-3.8-6.9-7.5-13.9-11.4-21.3
		c19-4,38.2-9.1,53.8-21.5c1.6-1.3,3.1-1.8,5.2-1c15.2,5.9,27.8,15,36.4,29.1c0.7,1.2,0.9,3.3,3.3,2.5c2.7,2.5,5,6.8,6.9,10
		c7.6,16.6,16.7,33.4,20.5,51.2c-5.2-6.1-10.2-12.4-15.4-18.5c-3.2-3.1-1.6-8.1-3.2-11.9c-2.5-7.4-4.7-14.9-7.9-21.9
		c-7.2-16.5-29.8-29.6-46.3-18.6c-12,9.7-22.1,23.7-21.9,39.6c6.3-16.5,19.9-44.4,41.5-37.5c19.4,4.8,24.8,24.3,30.7,40.9
		c3,7.5-2.9,11-8.1,15.7c3.7-18.2-4.6-32-18.9-42.4c5.6-1.7,9.7,0.4,13.9,2c-9.8-11.3-29-4.1-33.8,8.4c-10.1,22-4.2,65.1,26.1,65.5
		c-1.7,6.2-6.4,8.9-17.2,10.1c5.6,2.5,10.9,0.9,16.4-2.1c20.3,17.2,34.2,38.9,44.1,64.1c3-4.4,4.1-9.2,6.6-13.1
		C451,735.8,454.3,732.2,457.1,728.4L457.1,728.4z M385.5,708.1c14.3,18.3,26.4,38.2,39.6,57.3c0.3,0.5,0.8,1.1,1.3,0.4
		C422.5,749.9,398.1,714.7,385.5,708.1z M329.9,609c2-8.6,4.1-14.4,8.1-21.9C330.5,589.7,326.3,600.7,329.9,609z"/>
	<path class="st0" d="M495,845c-16.9-19.9-40.5-6.8-56.4,7.1c-6.9,5.5-14,15-23.9,10.4c3.1-26.4,7.8-53.8,19.7-77.8
		c11.6-19.4,42.8-21.6,56.4-4.2C502.4,797.4,500.5,826.2,495,845z"/>
	<path class="st0" d="M245,137.3c-5.4,4.5-10.8,9-16.5,13.8C209.8,88.5,155.8,41.3,90.4,34.6c-4.2-0.4-8.4-0.8-13.2,1.1
		c1.5,0.7,2.5,1.1,3.5,1.6c-10.8,67.5,5.1,144.2,56.7,192c-14.3-1.9-19.9-5.2-28.1-16.7C71.9,161,62.9,94.4,70.4,32.5
		c0.3-3.3,2.1-5.3,5.2-5.6C143.6,26,218.9,74,245,137.3z"/>
	<path class="st0" d="M168.9,664.4c4.2,2.2,8.1,4.2,12.1,6.4c-2.6,4.5-7,4.7-11.1,5.5c-2.5,16,0.5,32.2,6.8,46.9
		c2.7,5.9,6.2,11.3,10.6,16.1c1,1.1,2.1,2.6,2.2,4.1c9.1,59.3,45.3,114.2,94.3,148.4c4.8,3,3.2,8.4,4.2,13.3
		C221.5,867.2,126,742.6,168.9,664.4z"/>
	<path class="st0" d="M277.3,842.9c-42.9-29.4-13.4-122.1,28.1-142.2c27.4-17.3,74.8-2,81.5,34.4c5.4,21.3,3.4,45.9-13,62.1
		c-1.4-4.2-1.9-7.6,0.2-11.5c17.6-29-1.4-70.8-36.2-72.7c-51.7-6.1-72.6,56-69.3,98.1C269,822.4,275.5,831.8,277.3,842.9z"/>
	<path class="st0" d="M307.3,596.3c-3.8-0.7-1.9-3.2-2.3-5.6c1.9-0.3,3.5-0.6,5.6-0.9c4.3,7.6,8.3,15.1,12.1,22.9
		c2.1,3.9,2.1,7.8,0.6,11.9c-13,28.2-54.7,40.8-83.7,43.2c-0.5-1.6-0.7-2.2-1-4.1c-5.6-1.3-11.2-2.5-17.1-3.9c0-7.6,0-15.2,0-23.3
		c28-2.6,56.2-10.1,77.9-28.9C302.9,604.8,305.6,601.1,307.3,596.3z"/>
	<path class="st0" d="M239.3,949.5c-2.3-26.8-4.7-53.3-7-80.2c16.6,14.6,33.6,28.5,52.9,39.6c2.5,1.5,3.7,3.2,4,6.1
		c0.7,10,2.4,20,3.1,30C284.4,948.9,252.9,951.5,239.3,949.5z"/>
	<path class="st0" d="M385.4,884.1c-4.9-26.4-7.4-53.2-11.2-79.8c-0.3-2-0.1-3.6,1.6-5c9.7-8,14.2-19,17.2-31
		c4.1,3.8,6.6,7.9,10.4,11.7c3,3.1,4.5,6.7,5,10.9c3.8,32.4-0.7,67.5-22.1,93.4C386.1,884.2,385.7,884.2,385.4,884.1z"/>
	<path class="st0" d="M177,536.5c-13.4,10.6-25.8,23.8-43.7,25.4c-10.5,1.4-52,7.4-53.9-6.5c0.4-9.3,4.8-17.3,11.8-23.1
		c3.8-3.7,7.7-4.9,13.4-3.6c17.9,4.3,36.2,5.2,54.5,3.3C166.6,530.4,171.3,529.4,177,536.5z"/>
	<path class="st0" d="M137.6,300.6c-38.3-16.4-56.8,42.9-54.8,71.8c-3.5-0.2-6.6-0.4-10-0.6c7.6-17,13.3-34.3,17-52.5
		c2.9-9.8,6.1-32.6,16.2-36.5c6.8-2.6,13.9-3.4,21.2-3.1c3.5,0.1,3.5,0.1,5.7-2.9c6.4,1.9,12.9,3.8,19.4,5.6
		c1.8,0.5,2.6,1.8,2.9,3.5c7.7,34.4-0.4,74.2-24.6,100.4c-1.5-0.7-2.7-1.4-3.9-1.9c17.6-21.8,29.5-75.6,7.1-97.1
		c0.1,0.9,0.1,1.8,0.2,3.1c-8.1-2.1-15.5-2.1-21.1,5.2c7.1-4.1,14.8-4.6,21.9-0.5C136.6,296.1,137.6,297.7,137.6,300.6z"/>
	<path class="st0" d="M153.5,773.6c9.2,16,19.7,31.2,33.4,43.7c14.6,12,23.9,29.1,37.1,42.6c4.3,5.2,2.2,11.6,3.2,18.2
		c-10.5-5-16-15.9-21.4-25.6c-8.9-18.9-28.9-31.6-49.3-21.9c-0.8-19.2-2-37.7-3.7-56.7C153,773.8,153.2,773.7,153.5,773.6z"/>
	<path class="st0" d="M172.7,607.9c0.3,1.7,1.3,3.7,0.7,5c-1.2,2.5,0,4.2,1.1,6.1c5.7,9.6,15.9,13.5,26.2,16.2c0,8.1,0,16.1,0,24.1
		c-6.4,1.4-12.9,0.8-18.6,4.9c-7.8-3-18.3-8.6-17.2-18.6c0.3-3.9,1-7.9,1-11.8c0.1-4.7,0.1-9.4-0.5-14
		C164.7,612.8,165.7,610.7,172.7,607.9z"/>
	<path class="st0" d="M283.8,169.4c-4.3,16.6-4.2,17,4,25.7c-12.5,20.3-31.3,37.8-54.7,44.3c-5.2,1.4-10.7,1.6-16,2.3
		c-10,0.2-13.1-13.8-13.6-21.6c-0.2-17.9,8.1-34.8,18.5-48.9c1.2-1.5,2.2-2.9,4.6-2.6c18.3,2.6,19.3-14.2,28.2-11.7
		C265.1,159.4,275.5,162.9,283.8,169.4z M277.5,172.7c-5-4.3-14.1-8.2-22.2-10.1c-8.7-2.4-9.5,13.4-27.1,11
		c-2.3-0.3-3.6,0.5-4.6,2.4c-7.6,13.5-16.8,27.3-14.8,43.6c0.6,5,3.4,18.2,9.9,17.6c26.5-1.4,48.2-19,62.2-40.7
		C273.2,189.6,272.3,181.6,277.5,172.7z"/>
	<path class="st0" d="M138,341.1c-22.6-25.9-52.2,4.5-48.8,31.7c-2.3,0.6-2.5-0.8-2.4-1.9c0.4-17.6,5.6-34.5,14.4-49.6
		c8.5-16.7,35.3-25.1,39.7-1C139.7,327.1,140,334.4,138,341.1z"/>
	<path class="st0" d="M396.7,665.4c-4.7-20.4-24.9-18.8-23.8-28.5c0.3-5.8,1.6-28,10.9-23.8c9.5,2.9,19.6,8.8,23.2,18.4
		C408.7,642.5,406.1,658.9,396.7,665.4z"/>
	<path class="st0" d="M205.5,750.9c8,50.8,35.7,97,76.2,128.7c3.7,2.9,4.3,4.7,3.5,10.6c-46.3-35.7-79.5-86.1-90.3-144.1
		C198.9,748.2,201.8,749.6,205.5,750.9z"/>
	<path class="st0" d="M495.8,867.1c2-5.1,4.1-23.4,7.9-24.2c21.5-5.7,33.9-23.3,46.5-40.2C553.5,834.2,524.8,860.5,495.8,867.1z"/>
	<path class="st0" d="M91.1,525.6c-9.4,7.3-14.6,16.1-16.4,27.3c-0.9-1.5-1.7-3.1-3.1-5.4c1.3,27.3,39.7,21,57.7,20.4
		c-22.6,10.4-91.1,8.9-64.2-30.6C80.8,518.5,74,519.5,91.1,525.6z"/>
	<path class="st0" d="M457.2,728.5c1.8-12.9-0.5-16.5-7.9-26.7c-1.7-3.5-6.1-2.7-8.4-5.4c-6-7.7-12.2-15.4-18-23.3
		c-0.4-4.9-4.3-7.5-7-10.9c-1.8-3.1-6.2-5.1-6-9.1c11.2,11.7,21.7,24,32.3,36.1c-7.4-14.5-18.3-26.6-28.6-39.3c2.5-2.1,4.9-4,7.3-6
		c14.7,12.2,50.1,67,36.1,84.4C457.1,728.4,457.2,728.5,457.2,728.5z"/>
	<path class="st0" d="M32.4,384.5c19.2,1.3,38.9,8.8,52.4,22.9c2.4,3.5,7.9,8.8,3.9,13c-1.9,1.7-4.1,1.4-6.2,0.5
		c-16.8-14.1-35.4-23.8-57.4-26.4c-4.9,0.4-7.7-5.7-2.9-8C25.5,385.4,28.9,384.4,32.4,384.5z"/>
	<path class="st0" d="M391.5,913.4c-0.6-5.9-6.1-20.8-3.1-23.5c24-26.5,28.4-64.1,23.8-98.4c2.4,0.8,3.1,2.9,4.7,4
		c4.8,3.6,5.1,7.8,3.6,13.7c-3.7,14.9-6.4,30.1-9.2,45.2c-2.8,15.7-5.4,31.5-7.2,47.3C403.2,907.1,396.3,909.2,391.5,913.4z"/>
	<path class="st0" d="M224.6,665.5c0.2,9.9,4.8,15.9,14,18.3c2,23.9-9.6,49.6-30.9,61.4c-2.2,1.4-4.3,1.1-6.6-0.1
		c-16.8-9-25.2-28-27.5-46.2c-0.7-5.5-0.6-11.1-0.9-16.6c-0.5-5.9,10.9-1.4,13.7-14.5C188.4,660.2,217.7,663.4,224.6,665.5z
		 M176.1,682.2c-0.9,16.4,2.6,33.2,11.7,47c3.7,5.1,13.2,17.3,20.1,11.9c17.7-11.8,27.1-33.7,26.6-54.5
		c-18.8-7.2-9.6-17.4-17.2-18.6c-9.2-1.1-18.8-2.7-27.7,0.8C188.5,676.6,184.1,680.8,176.1,682.2z"/>
	<path class="st0" d="M154.2,688.9c-8.5,44.1,9.6,81.1,29.5,119C160.9,784.2,124.5,716.8,154.2,688.9z"/>
	<path class="st0" d="M134.2,357.6c-3.9-8.7-8.6-14.6-18.5-13.6c4.9,11.1-5.8,23-12.6,10.7c-3.6,3.8-4.3,7.9-3.9,20.7
		c-3-0.4-4.9-0.8-8.2-1.5c-4.1-25.1,24.1-56.6,45.2-30.9C139.3,347.1,135.2,352.1,134.2,357.6z"/>
	<path class="st0" d="M225.8,629.4c-5.4,0.4-6.7,1.4-7.2,6.9c-0.8,7.6-0.8,15.4-1.6,23c-4.4,0-8.5,0-12.6,0
		c-1.3-7.4,0.2-15.1,0-22.6c0.1-3.4,1-6.7,3-9.5C212,620.3,224.2,621.1,225.8,629.4z"/>
	<path class="st0" d="M242.9,684.6c2.9-0.2,3.8-0.4,6.6,0.2c0.4,21.5-12,58.2-35.8,62.4C234,731.3,242.7,710.2,242.9,684.6z"/>
	<path class="st0" d="M401.1,685.6c1.5-3.2,3.5-6,2.9-10c-3.9,0.3-7.6,1.4-11.6-0.3c6.5-4.6,10.7-8.9,15.2-15.7
		c2.3,3.3,10.6,10.3,10.4,13.9C417.4,680.1,407.6,694,401.1,685.6z"/>
	<path class="st0" d="M281.7,614c-1.8-7.1-2.6-13.8-1.6-21.2c5.9-0.5,11.8-0.9,18-1.4c-0.2,3.8,2.1,10.6-0.3,13
		C293,608.1,287.8,611.2,281.7,614z"/>
	<path class="st0" d="M61.7,512c4.2,2.4,7.8,4.5,11.9,6.8c-7.8,8.4-14.2,17.4-18.1,28.1C54,534.6,56.5,523.2,61.7,512z"/>
	<path class="st0" d="M373.8,646c8.8,4.5,16.5,9.9,19,19.2c0.7,3.9-2.6,7.2-6.5,6.6C378.3,666.2,375.5,656.1,373.8,646z"/>
	<path class="st0" d="M447.1,706.2c11.2,10.5,8.1,28.9-8.1,31c-1.5-2.8-2.8-5.5-4.4-8.4C444.4,724.7,450.4,717.3,447.1,706.2z"/>
	<path class="st0" d="M446.6,766.6c4.1-9.5,8.2-19,12.2-28.4c2.3,0.1,3,1.1,2.8,2.9c-0.6,4.9-1.1,9.9-1.8,14.8
		c0.2,3-9.8,9-12.3,11.7C447.2,767.2,446.9,766.9,446.6,766.6z"/>
	<path class="st0" d="M421.2,678.9c4.5,4.3,5.1,6.4,3.3,10.8c-1.9,4.5-6.4,8-10.5,7.2c-2-0.4-3.7-2.4-6.5-4.3
		C414.6,689.9,418.6,685.2,421.2,678.9z"/>
	<path class="st0" d="M416.2,701c8.1-3.5,8.2-3.5,12.9-12.3c6.6,4.5,1.3,14.9-5,16.7C419.9,707.5,418.6,704.1,416.2,701z"/>
	<path class="st0" d="M422.9,709.5c6.8-1.5,10.5-5.6,12.5-11.9c10.2,6-5.3,24.4-10.9,14.5C424,711.5,423.7,710.8,422.9,709.5z"/>
	<path class="st0" d="M403,913.2c0,5.5,0,10.3,0,15c-7.1,0.9-8.6-0.5-9.5-9.3C396.4,917.2,399.6,915.3,403,913.2z"/>
	<path class="st0" d="M357.8,181.6c0.1-9.7,11.2-9.9,11.3-0.1C369,191,358.2,191,357.8,181.6z M364.6,177.7
		c-3.9,0.4-4.8,7.1-0.8,7.8C364.1,182.8,364.4,180.4,364.6,177.7z"/>
	<path class="st0" d="M442.2,708c5.1,6.6-2.8,15.6-10.1,15.9c-1-1.6-2-3.2-2.9-4.8C435.1,716.7,438.9,713.5,442.2,708z"/>
	<path class="st0" d="M239.2,679.7c-7.4-1.5-11-6.3-10.5-14.4c2,0.3,3.9,0.7,6,1C235.3,671.3,236.7,675.1,239.2,679.7z"/>
	<path class="st0" d="M394.6,613.5c-3.6-1.4-7.2-2.8-11.1-4.3c1.2-1.6,2.3-3.1,4.4-1.7c2.5,1.7,4.8,3.6,7.1,5.4
		C394.9,613,394.7,613.2,394.6,613.5z"/>
	<path class="st0" d="M188.2,526c-1.9,1.7-3.8,3.4-5.8,5.3c-1.1-0.9-2.1-1.7-3.7-3c3.4-1.1,6.1-2.1,8.9-3
		C187.8,525.6,188,525.8,188.2,526z"/>
	<path class="st0" d="M442,745c-0.4-1.2-0.8-2.4-1.2-3.8c1.4-0.4,2.6-0.8,4.8-1.4c-1.1,2.3-1.8,3.8-2.6,5.4
		C442.7,745.1,442.3,745,442,745z"/>
	<path class="st0" d="M109.2,272.6c2.5-4.2,2.5-4.2,6.2-2.1C113.3,271.2,111.7,271.7,109.2,272.6z"/>
	<path class="st0" d="M227.2,431.1c-7.2-5.1-14.4-10-21.4-15.2c-4.7-3.4-6.2-8.2-5.7-13.9c2.7-26.4,23.7-50.4,50.1-53.7
		c45.3-3.9,70.7,54.3,50.6,90.9c-4.3-1-8.4-1.9-13.3-3c13.8-15.8,11.8-41.1-5.1-53.7c-31.8-24.4-74.4,13.4-54.1,47.8
		C228,430.6,227.6,430.8,227.2,431.1z"/>
	<path class="st0" d="M269.9,433.4c26.5-13.1,11.3-52.7-16.2-44.3c8.8,12.5-4.6,23.5-15,12c-6.3,12.5-0.1,26.6,11.7,33.1
		c-4.2,0.8-8.4,1.7-12.6,2.1c-1,0.1-2.4-1-3.2-1.9c-24.7-25.9,5.8-68.8,38.3-54.6c21.4,9,28.2,35.2,13.8,53.1
		c-1.7,2.1-3.3,2.9-6,2.4c-3.4-0.6-6.9-0.8-10.4-1.2C270.2,433.9,270.1,433.6,269.9,433.4z"/>
	<path class="st0" d="M229.4,201.3c-4.7,5.3-18.8,23.1-4.3,23.3c4.2-0.3,8-3.3,12.3-1.6c5.2,1.7,8,0.5,10.5-4.4
		c3.9-7.4,5.1-19-4.3-22.9c2.5-1.3,4.7-2.5,7.3-3.9c-6.4,19.2,17.9,10.6,19.4-1.5c0.3-12.3-11.1-5.7-17.1-2
		c1.8-6.3,2.7-15.7-6.7-15.9c3.2-2.6,4.7-6.3,8.7-6.1c6.5,1.4,12.6,3.8,18,7.5c-2.9,13.6-2.6,15.4,3.5,24.1
		c-12.3,18.7-32,33.8-54.8,36.4c-3,0.3-4.9-0.6-6.3-3.4c-8.7-17.3,0.4-36.6,10.1-51.4c3.2-3.7,10.5-2.4,14.9-3.5
		c-1.4,6.1-6.7,14.6,1,19.2c-2.6,1-4.6,1.7-7.2,2.6c1.3-3,2.1-5.2,2.1-8.3c0-7.1-8.9-9.5-12.4-3.8
		C219.6,190.6,220.3,203.1,229.4,201.3z"/>
	<path class="st0" d="M247.8,207.2c-0.4,4.6-2.5,15.7-9.1,12.7c-5-3.8-17.4,6.1-16.7-1.5C223.2,208.3,246.1,186.2,247.8,207.2z"/>
	<path class="st0" d="M240.3,188c0.4-4.7,1-8.4,4.1-10.9c9.4-6.7,8.4,10.6,2.1,13.2C243.2,192.2,241.1,191.4,240.3,188z"/>
	<path class="st0" d="M267.2,189.2c0.8,4.7-13.3,16.1-14.3,7.7C251.8,191.4,267,180.1,267.2,189.2z"/>
	<path class="st0" d="M224.3,193.5c-0.5-5.1,5.4-12,8.7-5.9C235.6,193.5,225.9,203.9,224.3,193.5z"/>
	<path class="st0" d="M231.8,689.4c-1.8,18.3-7.4,34.4-21.7,46.4c-5.4,4.5-5,5.4-11.8-0.1c-13.1-11.3-19.4-33.4-18.2-50
		c15.5-6.2,9.9-14.5,16.4-14.7c6,0,12,0,18,0.1C220.6,670.8,216.1,683.9,231.8,689.4z M227.1,702.3c1.2-19-21-33.7-35.7-19.2
		c-10,9.6-10.1,27.1-0.3,36.9C205.4,734.7,227.8,720.5,227.1,702.3z"/>
	<path class="st0" d="M224.8,701.8c0.8,17.1-20.6,29.6-32.9,15.4c-8.4-9.1-7.8-24.1,1.3-32.5C206,672.3,225.9,685.7,224.8,701.8z
		 M223.1,701.8c1.1-16.1-18.5-27.3-29.8-14.9c-16.4,16.2,5.6,47.8,24.3,29.3C221.3,712.2,223.1,707.4,223.1,701.8z"/>
	<path class="st0" d="M189.9,705.3c2.2-1.1,4.5-2.3,7.4-3.8c-3-1-5.3-1.7-7.9-2.5c1.2-7.1,4.7-12,11.6-14.9c1.3,2.6,2.5,5,4.1,8.2
		c1-3.3,1.5-5.1,2.3-8c6.4,0.4,11.1,4.9,12.9,12.3c-2.1,1.2-4.3,2.5-7.1,4.1c2.9,0.8,5.1,1.5,7.3,2.1c1,6.6-3.4,13.2-10.8,16
		c-1.3-2.6-2.7-5.2-4.5-8.8c-0.7,3.7-1.2,6.3-1.7,9C197.1,719.2,191.6,713.8,189.9,705.3z M196.4,714.1c0.3,0.2,0.5,0.4,0.8,0.6
		c15.1-11.7,11.6-8,16.7-26.1C199.9,697.2,201.7,700,196.4,714.1z"/>
	<path class="st0" d="M206.5,715.9c0.6,1.2,0.9,2.1,1.5,3.3C205,720.2,204.8,717.8,206.5,715.9z"/>
	<path class="st0" d="M205.4,687.4c-1.8-1.3-2.6-2.3-1.4-3.6c0.2-0.2,1.1,0,1.1,0.1C205.3,684.9,205.3,685.9,205.4,687.4z"/>
	<path class="st0" d="M221.6,700.1c-1.1,0.6-1.6,0.9-2.4,0C220.3,699.3,220.4,698.4,221.6,700.1z"/>
	<path class="st0" d="M191.5,702.7c-0.6,0-1.2,0-1.8,0c-0.2-1.6,0.8-1,1.9-1C191.5,702,191.5,702.3,191.5,702.7z"/>
	<path class="st0" d="M202,705c-0.2-1.9,0.5-3.4,1.8-5.4C205.2,702.8,202.7,703.5,202,705z"/>
	<path class="st0" d="M203.5,706.2c0.9-1.2,1.8-2.3,3.1-4c1,3.2-1.7,3.1-2,4.7C204.1,706.6,203.8,706.4,203.5,706.2z"/>
	<path class="st0" d="M208.1,696.4c-0.7,1-1.4,1.9-2.1,2.9c-0.9-2.1,0.4-2.7,1.4-3.5C207.5,696,207.8,696.2,208.1,696.4z"/>
</g>
</svg>
