<?xml version="1.0" encoding="utf-8"?>
<!-- Generator: Adobe Illustrator 26.0.0, SVG Export Plug-In . SVG Version: 6.00 Build 0)  -->
<svg version="1.1" id="Capa_1" xmlns="http://www.w3.org/2000/svg" xmlns:xlink="http://www.w3.org/1999/xlink" x="0px" y="0px"
	 viewBox="0 0 595.3 904.2" style="enable-background:new 0 0 595.3 904.2;" xml:space="preserve">
<style type="text/css">
	.st0{fill:#FFFFFF;}
</style>
<g>
	<path d="M11.4,739.2c9.4-1,17.7-0.1,26.1,1.6c-6.2-9.6-15.1-16.2-24.9-22.8c21.2-12.6,46.8-3,65.1,10.5
		c2.3-14.1,1.4-30.6,14.1-39.6c2-1.5,3.4-3.2,4.5-5.4c2.1-3.9,4.6-7.5,6.9-11.3c2.3-5.6,4.3-11.1,7.6-16.4c-2.5-1.9-4.3-4.4-7.6-3.8
		c-14.2,2.4-27-1.2-38.5-9.6c-2-1.4-3.5-1.8-5.8-0.8c-21.2,10-41.6-6.7-36.9-29.4c0.8-3.7,1.9-7,2.4-10.8
		C14.8,600,2.9,593.8,5,582.4c1.4-11.7-7.1-8.1-4.5-26.7c0.7-7.4,5.3-12.6,10.4-17.4c3.2-2.8,5.8-0.4,8.9-4.9
		c29.6-34.1,61.7-66.4,89.9-101.6c4.2-6.4,16.1-10.8,23.5-10.7c16.8,2.7,33.9,2,50.8,3.2c7.1,1.7,9.5-9.6,13-14.4
		c10.1,1.1,19.8,2.4,29.8,3.6c3.4-0.1,4.9,3.8,8,4.3c7.9,0.2,15.4,3.2,23,4.2c1.6-4.9,5.2-7.9,10.8-8.2c2-14.8,0.8-29.8,0-44.7
		c-0.5-7-4-12.3-7.8-17.9c-1.3,0.2-2.8,0.4-4.2,0.7c-2.9-5.7-3.7-5.8-9.9-6.3c-25.1-6.2-34.4-46-47.1-66.4c-0.3,0-0.5,0-0.8,0
		c-4.6,15.8-19,112.6-44.3,95c-26.1-25.6-34.8-69.1-42.2-103.9c-13.7-64.5,26.1-124.3,71.4-166.5c11.4-11.1,25.1-19.5,36.9-30
		C254,33.9,304.6,15.3,355,10.1c16.7-1.8,33.4-2.9,50.2-2.6c2,0,3.7-0.3,5.3-1.4c41.3-12.5,87-4.7,125.3,14.4
		c2.6,1.3,4.4,3.1,5.9,5.6c9.4,16,16.6,32.9,21.6,50.7c0.6,2,1.4,3.7,2.8,5.2c19.3,21.4,22.4,51.3,28.7,78.2
		c1.2,5.3,0.3,10.1-2.9,14.7c-5.7,8.2-9.3,17.3-10.7,27.2c-0.2,1.6-0.2,3.3,0.2,4.8c5.4,17.3,5.6,35.5,0.2,52.9
		c-2.3,10.5,0.1,21.3-2.1,31.9c-2.1,11.3-6.5,21.8-12.1,31.7c-8.2,14.2-18,27.4-25.2,42.2c-4.3,8.3-8.6,16.6-12.9,24.9
		c-1.8,3.4-4.1,6.4-7.1,8.7c-7.9,6.9-13.3,2.1-16.7,7.2c-16.2,23.4-39.7,19.9-64.2,23.1c0.8,3.6,1.7,7.2,2.5,11
		c11.4,1.4,15.2,4.7,21.2,14.3c3.7,6.5,13.4,4.3,15.6,13.2c1.5,5.1,4.5,9.5,9.6,12.2c0.9,0.5,1.5,1.9,1.8,3
		c1.6,7.4,2.7,14.9,2.3,22.5c-0.3,5.7,1,10.5,4.1,15.3c4.3,6.7,8,13.7,10.6,21.3c0.3,1,1.2,1.9,2,2.7c18.5,16.1,9.5,42.3-2.5,59.5
		c-3.3,4.8-4.9,9.9-5.7,15.7c-2.8,21.5-6.1,42.9-8.9,64.4c-2.6,29.8-11,59.9-6.1,89.8c8.2-1.5,15.7-3.2,23.9-2.2
		c22.9,3.8,30.5,59.6,28.4,78.8c-1.3,15.5-4.7,40.6-24.6,40.7c-7.2,0.1-14,0.6-20.8,3.8c-20.9,6.7-44.1,2.3-65.7,1.1
		c-10.3-1.1-20.5-2.2-30.8-3.3c-2.1-0.2-3.9,0-5.7,1.2c-3.5,2.4-7.7,3.1-11.8,3.8c-7.9,1.2-15.8,1.4-23.7,0.6
		c-1.3-0.1-2.8-0.1-4,0.4c-8.5,3.5-17.5,3.8-26.4,2.8c-6.3-0.3-12.5-3.5-18.8-3c-23,6.3-48.7,0.9-67.3-14
		c-7.1,16.4-27.1,13.6-41.8,13.3c-1.6-0.1-2.8,0.2-4.2,1.2c-11.9,7.7-27.4,4.1-40.5,1.8c-4.9-0.8-9.5-3.6-14.5-2.9
		c-14.3,3.5-29.1,2-43.4-0.6c-17-2.5-19-21.5-20.5-35.5c-2.1-37.2,0.7-14.5-24.6-41.3C27.4,793.3,51.2,770.9,11.4,739.2z"/>
	<path d="M410.5,237.1c-16.4-0.1-32-3.7-46.7-10.9c-10.4-6.7-7.3-30.1-1.9-39.4c31.8-60.1,116.4-20.6,82.4,41.7
		C439.4,235.9,418.9,236.8,410.5,237.1z M405.6,232.7c37.7-9.9,21.5-63.4-12.5-56.7c-22.9,3.5-32.8,33.4-16,49.4
		C382.5,230.5,397.9,230.6,405.6,232.7z M371.7,225.3c-22.7-36.5,21.9-71.1,50.1-43c13.9,14,11.4,37.8-4.3,49.5
		c0.8,0.2,1.1,0.5,1.4,0.4c6.4-0.8,12.7-1.6,19.1-2.5c1.5-0.2,2.5-1.1,3-2.5c7.5-17.2,6.9-36-6.6-50c-27.5-29.3-81.8,4.4-71.9,42.3
		c0.3,1.4,0.4,2.8,2,3.3C366.7,223.5,368.8,224.3,371.7,225.3z"/>
	<path d="M476.6,264.3c-1.4,1-2.2,1.9-3.1,1.9C469.8,264.8,472,260,476.6,264.3z"/>
	<path d="M446.6,273.6c-1.6-2-2.8-4.8,0.4-4.8C450.1,269.4,448.7,271.9,446.6,273.6z"/>
	<path d="M462.1,286.3c1.9,2.4,3.2,3.8,0.1,4.9C459.2,290.2,460.4,288.7,462.1,286.3z"/>
	<path d="M435.4,120c-7.1,0-13.5-0.4-19.7-2.3c-10.3-2-23.7-19-9.6-25.2c16.8-6.3,34.3-1.3,42.8,14.7
		C454.7,119.3,444.5,120,435.4,120z M404.8,103.6c4.5,12.9,22,13.1,33.6,12.6c-4.2-12.2-15.5-15-26.7-14.2
		C409.3,102.1,406.9,102.2,404.8,103.6z M404,99.1c17.8-1.5,28.4-2.2,38,15.1c1.1,3.1,5.8,1.2,5-1.7c-1-5.9-6.1-9.6-9.9-13.9
		c-3.1-3.2-7.1-4.7-11.6-4.9C419.8,93.6,406.6,93,404,99.1z"/>
	<path d="M402.3,81.4c-9.3-1.1-18.9-1.3-27.1-6.6c-20.8-15.6,15.9-19.8,26.6-18.1c7.9-0.6,35.4,16.4,19.7,22.3
		c-6.2,1.5-12.7,1.6-19.1,1.8C402.3,81.1,402.3,81.2,402.3,81.4z M395.3,60c-7.1,0-13.9,1.8-20.6,3.9c-1.4,0.4-2.6,1.7-1.9,3.6
		c0.6,1.7,1.5,2.1,3.9,1.7C413.5,60.9,414,81,422,74.8c1.7-2.4-1.6-4.2-3-5.7C412.1,63.4,404.8,58.9,395.3,60z M411.2,76.9
		c-5.7-7.3-22.2-7.5-32.5-3.9C389.2,78.4,400,77.6,411.2,76.9z"/>
	<path d="M350.5,54c-41.6-3.8,14.2-31.1,38.9-18.3c3.1,1.1,9.2,4.4,5.1,7.9c-1.7,1.4-3.7,2.7-5.9,3.3C376,50.7,363.7,52.8,350.5,54z
		 M392,41.5c-11.8-9.7-45.6-5.5-52.5,6.2c11,8.2,19.6-6,30.5-4.9C379.1,43.7,383.6,47.3,392,41.5z M373.1,47.5
		c-4.2-2.1-7.9-1.3-11.3,1.9C365.6,48.7,369.3,48.1,373.1,47.5z"/>
	<path d="M467,42.6c7.7-3.7,7.7-3.8,4.6-10.1c18.2-9.7,38.7-4.6,56.5,3.1c1.6,0.6,2.5,1.7,3,3.5c2.8,10.6,11.5,6.5,13.2,12.9
		c6.2,21.5,9.3,52.9-16.1,62.6c-6.8,3.9-22.3-15.2-27.5-19.8C486.7,79.5,473.7,62.4,467,42.6z M473.1,44.5
		c11.2,25.6,29.5,47.8,51.3,65.2c7.7,4.9,18.8-10.4,19.5-17.3c2.3-6.6,1.5-39.4-5.7-41.3c-11-3.6-7.3-11.2-14.9-13.8
		c-13.9-5.8-30.1-9.2-44.7-3.8C478.5,40.2,478.5,40.2,473.1,44.5z"/>
	<path d="M433,482c5.8-2.7,6.2-7.7,5.8-13c10.7-6.8,24.5-5.3,35.5-0.3c4.6,2.3,3,10.1,10.8,14.3c1.7,1,2,2.6,2.2,4.2
		c1.5,14.2,3.1,28.7,0.1,42.9c-1.6,8.5-5.4,16.4-12.3,21.9c-2.3,2-2.9,2.1-5.3,0.2C447.3,536.2,438.7,507.9,433,482z M473.6,501.6
		c4.8,3.1,6.5,7.8,9,11.9c-0.2-6.3,1.1-21.9-3.6-25.9c-3.3-2.6-5.7-5.8-7-9.7c-2.1-8-22.7-8.8-29.2-6.1c-0.5,3.7-1.7,7.3-3.9,10.1
		c-1.7,1.8-1.8,3.4-1.2,5.4c3,8.5,4.6,17.2,8.4,25.4c1.3-4.5,1.8-8.8,5.5-11.7c2.1,5.6,5.3,10.6,6.5,16.1c-0.2,1.9-0.2,1.9,1.8,2.9
		c-0.9-8.3-1.8-16.4-2.7-24.8c-4.7,0.4-10.6-0.1-9.9-6.1c0.5-3.8,4.6-2.3,7.5-2.6c-9.5-20.4,14.1-18.6,10.4,0.1
		c4.4,0.2,9.4,0.2,8.7,6c-0.2,4.2-4.5,2.6-7.6,2.9c1.6,7.5,3.1,14.4,4.6,21.4c0.3,0,0.6,0,0.9,0C472.3,512,473,507,473.6,501.6z
		 M470.2,526.4c-2.4-11.3-5-22.1-7-33.5c3,0,5.5,0,8,0c0.8-5.6-5.8-2.8-9.6-3.5c0.4-1.8,0.5-3.1,1-4.3c3.1-5.4-5.5-15.8-7.5-7
		c-1.1,4.9,4.4,6.8,3.7,10.9c-2.8,0.2-5.8,0.3-8.6,0.5c-0.3,5.2,6.2,2.8,9.5,3.6c1.2,11.2,2.3,21.9,3.5,33.1c-3.8-1.5-6.2-3.5-8-6.4
		c-1.1-1.7-3.3-3.4-1.2-5.8c-0.5-2.3-2-4.6-2.8-6.8c-0.3,0-0.6,0-0.9,0.1c-0.3,2.3-1.9,4.8-0.8,7.1c5.7,9,10.8,18.6,20.2,24.4
		c7.1-9,6.3-13.8,10-23.4c-0.4-2.6-1.8-5.1-3.7-7.3c-1.3,4.5-1.3,4.9,0.3,8.5C476.7,520.6,474.9,524.5,470.2,526.4z M448.3,517.9
		c5,12.4,12.1,23.1,23.1,30.8c7.4-6.3,13.6-24.1,10.6-29.7c-1.3,1.1-1.3,1.1-1.6,2.5c-1.5,7.9-5,14.8-10.6,20.7
		C460.1,535.9,454,527.1,448.3,517.9z M474.2,475.4c1.3,5,3.8,9.2,8.4,11.7C479.3,483.6,476.8,479.4,474.2,475.4z M473.7,518.8
		c-2.9-1.2-2.5,1-1.4,2.9C472.9,520.5,473.3,519.8,473.7,518.8z M471.7,471.6c-0.1,0.1-0.1,0.3-0.2,0.4c0.6,0.3,1.2,0.6,1.8,0.9
		c0.1-0.2,0.1-0.3,0.2-0.5C472.9,472.2,472.3,471.9,471.7,471.6z"/>
	<path d="M405.4,185.5c-6,8.9,2.9,16.7,10.6,9.4c12.6,18.1-12.9,40.6-30.3,27.2C366,208.4,383.1,176.1,405.4,185.5z"/>
	<path d="M478.3,48.4c5.1-2.3,5.2-6.6,4.3-11.3c8-5.1,37.8-2.8,43.3,5.1c2.5,4.2,5.8,7.7,10.2,9.8c5,3,5.8,22.9,5.7,28.9
		c-0.3,8.6-3.4,16.7-10.1,22.5c-4.8,4.2-5.6,4.3-10.4,0.1C503.2,88.4,487.9,70.1,478.3,48.4z M513.8,63.9c1.8-0.2,3.5-0.4,5.5-0.6
		c-3.7-7.7,0.5-14.2,9.1-11.8c-3.1-3.5-4.6-8-8.9-9.8c-10.6-3.8-21.7-5-32.9-2.8c0,4.4-0.7,8.3-3.9,11.2c1.7,3.2,3.3,6,5.1,9.4
		c1.3-7,6.7-5.6,11.7-4.8c-0.7-2.3-1.7-4.6-2-7c-1-6.3,5.9-8.2,10.5-5.3c6,3.8,12.9,13.5,6.7,19.8C514.3,62.7,514.1,63.4,513.8,63.9
		c-1.9-0.5-3.8-1.1-6.3-1.8c0.7,1.6,1.2,2.7,1.5,3.4C510.8,64.9,512.3,64.4,513.8,63.9z M528.3,85.8c0,0.2,0.1,0.3,0.1,0.5
		c14.4,2-4.3-17.9-9.8-18.6c-10.7-4.1-9.6,13.1-4.5,17.9C517.6,90.3,523.5,86.3,528.3,85.8z M537.1,87.1c-3.3,4.9-9.3,1.7-13.7,3.7
		c-12.4,4.4-17.2-9.3-16.7-19.3c-4.6,1.1-8.5-0.5-12.4-2.1c9,12.9,20.2,23.4,32,33.6C532.4,99.2,535.7,93.8,537.1,87.1z M537.6,84.2
		c1.2-4.1,0.6-30.7-5.4-29.4c3.9,5.3,2,13-5.2,13.5C531.7,73.1,536.4,77.5,537.6,84.2z M513.5,55.9c-0.8-4.4-3.6-8.2-8-10.7
		c-2.8-1.4-5.7,0.3-4.4,3.6C501.3,52.9,513.5,65.7,513.5,55.9z M505.4,68.2c-1-5-6.7-10.5-10.6-10.8c-2.4-0.2-3.5,1.3-2.5,3.6
		C494.7,66,499.7,68.5,505.4,68.2z M521.5,58.4c0.1,2.2,1.3,4.1,3.5,5.4c3,2.2,6.8-1.2,5.4-4.5C529.4,55.1,521.5,51.7,521.5,58.4z"
		/>
	<path d="M461.7,480.9c0,1.8-0.8,2.9-2.2,2.8c-2.9,0.2-4.6-7.1-0.8-7C460.2,476.9,461.7,478.9,461.7,480.9z M459.3,478.6
		c-0.3,0.1-0.6,0.2-0.9,0.2c-0.4,1.2-0.1,2.2,1.9,3.3C459.8,480.5,459.6,479.6,459.3,478.6z"/>
	<path class="st0" d="M353.4,325.6c0.8-3.3,1.5-6.4,2.4-10.3c58.2,49.6,96,44,166.5,48.4c-14.6,70.9-105.5,47.3-154.9,32.4
		c8.2,4.4,17.1,7.3,25.8,10.8C353.6,401,312,381,293,343.9c-3.3-4.9,1.1-3-0.7-7.1c-1-3.5-3.9-7.3-2.7-11c7.4-14,8.4-29.2,7.9-44.6
		c0.3-26.8-11.4-106.4,14.3-119.9c40.8-20.9,195.4-21.7,241.3-8.6c2.4,26.9-0.9,53.6-0.4,80.1c-1.1,0.9-1.6,0.2-2.9,0
		c1.7-15.5,3.5-31.3-1.8-46.4c-3-11.2-16.3-23.9-26.6-12.8c-3.2,3.3-5.2,7.7-7.9,11.4c1.3-12.3,6.5-23.1,13.4-33.3
		c-9.8,6.5-13.8,19-17.4,29.6c-5,15.5-3.9,31.2-1.3,46.9c-19.7,1.4-41.2,3.2-57.5,15.4c17.8-7.4,36.2-11.4,55.7-10.1
		c-1.8,0.8-3.5,1.7-5.3,2.5c-15.2,7.1-7.4,27-2,38.4c9.1,18.1,25.1,29.7,41.7,40.7c-2,9.4-18.2,46.2-29.5,43.8
		c-65.8-3.8-97.7-4.5-152.8-46.3c2.5-3.4,6.9-4.1,9.9-7C357.1,299,345.6,316.2,353.4,325.6z M410.5,237.1c8.6-0.3,28.9-1.2,33.8-8.6
		c34-62.4-50.6-101.8-82.4-41.7c-5.4,9.3-8.5,32.7,1.9,39.4C378.5,233.4,394.1,237,410.5,237.1z M476.6,264.3
		c-4.6-4.3-6.8,0.5-3.1,1.9C474.4,266.3,475.2,265.3,476.6,264.3z M446.6,273.6c2-1.7,3.5-4.1,0.4-4.8
		C443.9,268.8,445,271.6,446.6,273.6z M462.1,286.3c-1.7,2.4-2.9,4,0.1,4.9C465.3,290.1,464,288.6,462.1,286.3z"/>
	<path class="st0" d="M466.7,130.8c-35.6,2.3-172.1-0.8-180.4,39.2c-2.2,6.1-3.4,12.5-3.7,18.9c-2,28.8-1.9,57.7-0.9,86.6
		c0.2,20.2-1,43.4-16.5,58.4c-6.1,6.2-14.9,9.2-22.6,4.1c-18.1-11.7-29.2-44.8-40.8-63.7c-1-1.9-1.4-3.7-0.9-5.8
		c5.5-26.3,10.7-52.6,16.4-78.9c6.3-29,13.9-57.6,22-86.1c3-8,9.9-13.9,14.4-21.1c2.7-4.8,8.7-10.8,6.8-16.6
		c-8.5-4.2-15.5-1.8-24.5-1.1c44.3-41.4,106.2-52.4,164.9-53.6c-1.8,2.6-4.4,3.5-6.4,4.9c-4.5,3.1-8.5,5.5-13.2,8.8
		C424.8,44.6,451.1,87.1,466.7,130.8z M435.4,120c9,0,19.3-0.6,13.5-12.8c-8.4-16-26-21-42.8-14.7c-14,6.3-0.7,23.2,9.6,25.2
		C421.9,119.6,428.3,120,435.4,120z M402.3,81.4c0-0.2,0-0.3,0.1-0.5c6.4-0.3,12.9-0.3,19.1-1.8c15.7-5.9-11.8-22.9-19.7-22.3
		c-10.7-1.7-47.4,2.4-26.6,18.1C383.3,80.2,392.9,80.3,402.3,81.4z M350.5,54c13.2-1.2,25.5-3.3,38.1-7.1c2.1-0.6,4.1-1.9,5.9-3.3
		c4.1-3.4-2-6.8-5.1-7.9C364.6,23,309,50.3,350.5,54z"/>
	<path class="st0" d="M280.9,592.4c-2,6.7-3.9,13.4-5.9,20.1c-0.3,0-0.6,0-0.9-0.1c-23.7-113.7,153.1-53.2,108.9,37.7
		c-0.5-0.5-0.8-0.8-1.5-1.4c-17.7,39.9-23,84.3-22.7,127.7c-3,1.1-5.9,2.2-8.5-0.8c-13.7-13.7-34.9-4.8-48.3,4.9
		c-6.2,4.4-10.9-6.2-27.9,3.2c-10.5,5-24.3,25.7-26.8,36.9c10.3-18.2,36.7-54.6,56.2-26.3c10.9,19.6,8.7,43.5,9,65.2
		c-0.2,9.3-0.6,18.7-2.9,27.8c-0.8,4.4-3.5,6.8-7.8,7.6c-20.8,3.8-40.1,0.7-57.5-11.9c-2.3-1.7-2.8-3.3-2.2-6.1
		c2.3-11.5,1.7-23.1,1-34.7c-0.1-9.5-2.9-18.7-3.5-28c9.4-74.7,28.3-147.7,42.2-221.7C281.5,592.5,281.2,592.4,280.9,592.4z"/>
	<path class="st0" d="M254.9,457.7c53.4,7.2,106.4,14.4,159.6,21.6c4.6,25.1,12.1,50.1,27.9,70.7c3.3,56.5-29.5,132.7-74.4,168.4
		c0.3-8.6,2.8-16.8,4-25.3c0.3-1.5,0.7-2.8,2.2-3.7c53.6-35.2,46.4-130.5-13.3-155.5c-40.6-23-107.9-11.6-114.2,42
		c-2.9,25.5,3.9,51.6,16.9,73.6c1.1,1.8,1.2,3.4,0.8,5.3c-4.8,20.3-8.7,40.7-13.9,60.9c-41.1-32.1-92.2-108.9-76.3-162.6
		c2.4-6.9,5.9-13.2,11-18.3C208.6,509.2,236.9,487.7,254.9,457.7z"/>
	<path class="st0" d="M481.5,776.6c-4.3,1.8-7.9,4.3-12.4,5.1c-8.5,2.1-18,5-24.2,11.4c20.9-10.4,48.8-16.6,59.2,10.7
		c8.2,21.7,8.4,46,4.4,68.6c-2.8,16.6-21.1,21.4-35.7,21.4c-25.2,0.4-50.2-1.5-75.3-3.5c12.7-25.3,14.4-108.5-22.1-114.4
		c3.4-18.7,8.3-37.1,12.2-55.7c0.4-2.1,1.3-3.8,3.1-4.9c8.8-8.2,18.7-14.7,29.2-20.6c32.9-18.1,56.3-48.3,80-76.3
		c-5.2,32.8-10.5,65.5-15.7,98.3C481.2,736.7,478,756.2,481.5,776.6z"/>
	<path class="st0" d="M259,68.7c-3.7,7.9-9.6,13.6-15.1,19.8c0.3-1.5,0.6-3,0.9-4.5c-0.2-0.1-0.4-0.1-0.5-0.2
		c-31.4,78.7-43.2,163.4-61.9,245.6c-3.3,13.8-7.2,28.2-15.6,39.9c-5.8,8.8-13.1,0.6-17-5.4c-18.5-27.4-26.2-60.4-32.1-92.6
		c-13.7-63.8,25.6-121.9,69.5-164.2C202.9,93.5,237.4,58.2,259,68.7z"/>
	<path class="st0" d="M197.5,784c-3.5,0.8-7,3.6-10.4,2.3c-15.8-9.7-33.9-6.5-49.5,1.1c-4.4,1.8-9.4-1.8-13.9-0.8
		c-14,1.9-26.4,9.2-32.5,22.2c11.3-12.4,39.6-29.8,48.7-6.8c8,25.8,5.7,53.8,2.4,80.3c-0.9,6.6-4.3,13.9-11.9,13.9
		c-12.5,0-39.5,2.7-45.6-10.7c-3.5-7.8-4.9-16.1-5.5-24.6c-2.2-39.1,3.5-78.1,3.5-117.2c1.2-18.8-2.1-44.3,17.1-54.8
		c6.7-3.9,13.4-7.5,20.8-9.8c16.9-4.5,36.6,0.2,49.2,12.3c4.6,4.9,7.9,10.4,9.5,17C185.3,733.7,192.1,758.7,197.5,784z"/>
	<path class="st0" d="M567.9,133.1c-29.5-6.6-59-9.3-88.9-9c-12.5-41.9-32.3-79.8-59.6-114.3c38.1-8.8,76.4-2.4,111.8,13.3
		c2.5,0.9,4.2,2.5,5.5,4.8C555.3,59.9,567,96.1,567.9,133.1z M467,42.6c6.7,19.8,19.7,36.9,33.8,52.2c5.3,4.7,20.7,23.7,27.5,19.8
		c25.4-9.7,22.3-41.1,16.1-62.6c-1.6-6.4-10.4-2.4-13.2-12.9c-0.5-1.8-1.4-2.9-3-3.5c-17.9-7.6-38.4-12.8-56.5-3.1
		C474.7,38.9,474.6,38.9,467,42.6z"/>
	<path class="st0" d="M98,494.4c9.4,28.4,46.2,46,74.3,34.4c-8.2,16.5-18.7,31.8-27.7,48c-1,1.7-2.4,2.8-4.2,3.7
		c-12.7,6.7-23,18.1-25.6,32.7c-18.7,0.8-37.7-8.8-46.3-25.9c-2.2-4.5-2.4-8.9-0.5-13.9C78.3,547.2,87.6,520.6,98,494.4z"/>
	<path class="st0" d="M138,790.4c11.6-5.8,23.9-7.5,36.3-4.7c25.7,6.2,24.7,41.4,26.8,62.7c1.1,47.6-8.7,60-56.8,46.4
		C152,873.6,155.8,806,138,790.4z"/>
	<path class="st0" d="M373.4,686.4c3.1-11.6,4.1-23.9,11.1-34.1c25.6-38.6-3-91.1-44.9-102.7c-19.2-6.2-42.5-7.9-58.3,7
		c-16.6,15-16.6,40.3-9,59.9c0.8,2,0.8,3.8,0.3,5.8c-2.4,8.4-4,16.5-6.6,24.9c-14.1-26.3-22.3-60.6-8.9-88.6
		c22-39.4,78-36.4,111.6-14.3c47.6,29.5,50,109.3,5.6,142.5C373.9,686.6,373.6,686.5,373.4,686.4z"/>
	<path class="st0" d="M312.6,896.3c9.7-25.5,5.5-52.9,3.8-79.3c-0.9-12.3-5.6-23.4-13.8-32.6c46.2-31.2,56.8,7.3,58.3,47.6
		c0.7,17.2,0.8,34.7-3,51.6C352.9,903.5,327.9,898.7,312.6,896.3z"/>
	<path class="st0" d="M268.3,416.9c-0.1,0.6-1.4,2.3-1.8,2.6c1.2,2,3.2,2.9,5.2,3.5c43.8,14.2,90,18.2,135.6,23.3
		c4.1,0.8,9.3-0.5,12.6,2.3c3.5,4.1,5.7,8.8,7.5,13.9c-8.4,5-4.1,4.9-5.8,12.2c-55.1-6.5-110-14.7-165-21.9c-3.4-0.5-3.9-1-3-4.1
		c2.7-8.9,5.6-17.8,8.5-26.6C263.1,419.2,265,417.5,268.3,416.9z"/>
	<path class="st0" d="M184,496.9c-0.8,4.7-1.5,9.4-2.5,14.1c-3.2,13.5-20.1,16-31.8,14.2c-19.4-1.5-56.9-23.9-44.4-46.7
		C130.5,439.1,182.8,446.3,184,496.9z"/>
	<path class="st0" d="M358.3,895.5c6.5-10.5,6.8-21.6,7.8-32.4c2-27.8,1.1-56.5-10.7-82.3c5.4-1.2,11.2-1.3,16.6-1
		c23.7,3.9,26.8,35.2,27.8,54.8c0.2,14.1-0.4,28.2-3.2,42.1C393.5,895.3,373.8,895.4,358.3,895.5z"/>
	<path class="st0" d="M53.4,766.3c-2-20.8-16.1-38.9-34.7-47.9c0-0.3,0.1-0.5,0.1-0.8c20.1-6.1,40.8,3.2,56.4,15.8
		c1.8,1.4,2.4,3,2.3,5.2c-1.3,32.2-1.8,64.5-3.8,96.7c-48.9-33.2-12.7-59.7-54-93c7.6,0.5,14,3.7,21.3,5.4c1.8,0.5,2.9,1.8,3.7,3.5
		c2.5,5.2,5.1,10.3,7.7,15.5C52.7,766.5,53.1,766.4,53.4,766.3z"/>
	<path class="st0" d="M389.4,711.8c42.8-36.8,65-90,71.8-145.1c23.5-3.9,29.9-20.1,32.5-41.6c0.6,0.2,0.9,0.2,1,0.3
		c4.7,7.8,8.9,15.8,10.7,24.9c2.9,14.5-5.3,27.5-11.9,39.7c-21.8,36.2-52,66.3-79,98.4c-7.7,8.4-16.1,16.3-24.7,23.8
		C389.7,712,389.6,711.9,389.4,711.8z"/>
	<path class="st0" d="M435.8,429.5c1.9,5.3,3.7,10.4,5.5,15.6c-1.6,0.6-3,0.2-4-1.1c-3.4-4.9-9.3-3.1-14.3-4
		c-4.2-1-7.6,2.2-11.6,2.1c-46.9-4.9-93.4-12.2-139.6-22c2.7-16.3,3.6-32.5,2.3-49.5C314.8,414.8,376.9,433.2,435.8,429.5z"/>
	<path class="st0" d="M199.4,894.8c12.2-27.1,9.5-80.9-7.7-105.2c48.4-18.8,51.6,65.7,42.9,94.9C231.5,896,209.1,895.7,199.4,894.8z
		"/>
	<path class="st0" d="M216.3,698.1c-12.9,4.8-28.4,17.2-24.1,32.4c1.5,0.6,2.9,0.8,3.9,1.6c14,11.9,29.6,21.2,46,29.3
		c-1.2,7-2.4,14-3.6,21.5c-13.1-4.5-24.6-9.9-36.9-15.7c-2-0.9-3-2.3-3.6-4.4c-5.7-20.7-10.3-41.9-16.9-62.4
		c-1.4-3.2-3.4-6.2-5.2-9.5c5.1-6.5,11.5-12.3,16.2-19.9c-3.1-0.6-4.7,1.6-7.3,2.4c-13.5-18.6-24.8-38.3-31.4-60.7
		c2.8-1.7,5.2-3.2,7.8-4.8C171.7,641.7,191.5,672.9,216.3,698.1L216.3,698.1z"/>
	<path class="st0" d="M571.1,244c-3.2-2.3-5.8-4.2-8.6-6.3c4-21.5,4.3-44.6,16.5-63.5c14.4-31-69.8-33.3-87.9-34.5
		c-50.7-2.3-101.4,1.2-151.5,8.6c-11.3,2.1-23.6,3.9-33,11.1c-16.1,12.2-14.1,35.2-15.5,53.3c-3.6,37,9.8,77-7.3,111.7
		c-1.5,3-1.6,2.9-5.6,2.9c5.7-12.1,9.1-24.5,8.8-37.8c0.2-33.5-2.2-67.1,0.8-100.6c1-13.3,5.3-27.8,18.1-34.2
		c46.7-20.4,204.1-24.7,254.7-11c10.9,3,37.3,12.7,27.6,27.5C573.7,192.9,575.3,219.4,571.1,244z"/>
	<path class="st0" d="M278.4,346c2.8-1.3,5.3-2.4,8-3.6c25.1,51.2,83.8,68.9,137,71.4c26.4,3.5,55.1,5.3,78.7-8.9
		c-9.4,16.9-31.9,19.2-49.6,20.3C387.1,429.3,310.6,407.9,278.4,346z"/>
	<path class="st0" d="M29.3,573.3c-1.9-4.6-1.4-9.2,0.6-13.5c1.3-2.2,1.6-5,4.4-6.4c11.5-6.5,25.7-1.2,33.9,8.9
		c-5.3,15.5-10.6,31.2-16.2,46.6c-4.4,10.9,0.3,19.5,6,28.3c-17.6,8.7-34.2-2.5-33.5-21.9c0.3-4.6,1.4-9.2,2.2-13.9
		c14.5,0.8,22.8-11.9,15.5-23C39.5,573.6,34,574.3,29.3,573.3z"/>
	<path class="st0" d="M508.2,888.2c11.2-22,9.7-49.1,4.7-73.1c-3.9-17.2-12.3-31.6-30.9-34.9c11.8-3.7,29.3-9,37.6,3.2
		c16.2,27.1,20.7,65.9,8.8,95.3C525,887.1,516.3,888.4,508.2,888.2z"/>
	<path class="st0" d="M143.5,674c-12-0.6-12.4-2.2-32.3,3.6c-1.1-3.6-2.3-7-0.3-10.8c2.8-5.3,5.5-10.8,8.2-16.2
		c0.7,0.1,1.3,0.1,2,0.2c-6.5-38.6-0.6-54.3,32.9-75c-1.8,0-2.8,0-4.3,0c2.6-4.4,4.9-8.3,7.7-13c-0.1,15.5,1,28.7,3.5,43.8
		c-16,1.3-36,16.9-33.9,37c0,2.4,0,5.1,2.9,6.4C134.3,658.1,139.6,665.7,143.5,674z"/>
	<path class="st0" d="M161.8,445.1c-1.9,2.1-2.3,4.8-5.3,4.2c-25.3-4.9-48.9,12.7-58.6,35.1c-9.7,24-18.9,48-27.9,72.3
		c-10.5-8.8-20.2-11.7-33.7-8.6c27.4-32.4,55.9-64,83.6-96.1c1.2-1.4,2.4-2.5,4.4-2.5c4.6-1.2,9.1-3.8,13.6-5.4
		c0.9-0.4,2-0.6,2.9-0.6C147.8,444.2,154.8,443.8,161.8,445.1z"/>
	<path class="st0" d="M60.2,595.7c7.8,18.6,30.4,31.8,53.5,30.6c0.7,3.5,1,7.2,1.6,10.7c0.9,4.5,0.8,4.8-3,7.5
		c-5.1,3.5-10.9,4.8-16.9,4.7c-18.4,0.3-46.9-15.5-40.8-37C56.6,606.6,58.4,601.2,60.2,595.7z"/>
	<path class="st0" d="M180.8,676.8c-3.3,3.7-6.1,6.9-9,10.3c-5.6-3.3-11.1-7.1-17.3-9.6c-1.4-0.6-2.8-1.7-3.7-3
		c-7.2-10.4-13.5-21.3-18.9-32.7c-2.3-9.7,8.7-20.5,16.6-25.9C156.2,638.1,167.2,658.2,180.8,676.8z"/>
	<path class="st0" d="M391.4,23.7c7.7-4.1,14.8-7.9,22.3-12c27.8,33.7,47.2,71.9,62.4,112.9c-2,1.5-4,3-6.3,4.6
		C454.4,87.3,432.3,45.4,391.4,23.7z"/>
	<path class="st0" d="M512.1,555.1c23.6,32.6-69.1,127-98.3,140C445.2,657,505.4,604.4,512.1,555.1z"/>
	<path class="st0" d="M163,450.7c4.3-10.1,19.8-5.6,25.8,0.8c7.9,7.8,16.3,15.1,24.5,22.5c1.7,1.6,2.5,3.2,2.5,5.6
		c-0.1,4.9,0.1,9.8,0.2,14.8c0.1,1.9-0.5,3.3-1.9,4.6c-9.9,9.4-19.7,18.8-29.4,28.4c-2.2,2.2-4.9,2.2-8,3.3
		c2.2-5.2,4.7-9.6,7.3-14.5c5.7-7.8,12.5-14.8,18.8-22.2c3.3-3.6,2.9-6.9-0.5-10.1c-7.6-7-14.8-14.4-22.2-21.6
		c-0.7-0.7-1.5-1.8-2.3-1.8c-3-0.2-4.5-2.6-6.5-4.1C168.7,454.4,165.9,452.7,163,450.7z"/>
	<path class="st0" d="M60.9,492.1c3.5,6.6,3.9,7,10.8,9.8c-13.7,17-28.6,33-42.8,49.7c-3.4,3.9-4.6,4.3-7.6,3c-6-2.7-9.5-9-4.7-13.6
		C31.4,524.6,46,508.7,60.9,492.1z"/>
	<path class="st0" d="M242.3,758.4c-17.4-8.7-32.8-19.5-46.7-32.4c0.3-5.3,6.3-12.7,12.7-17.6c11,10.4,22.5,20.5,35.2,28.9
		c1.9,1.3,2.7,2.4,2.1,4.9C244.2,747.7,244,753,242.3,758.4z"/>
	<path class="st0" d="M73.3,498.5c-4.1,0.1-8.6-4-9-8c-0.6-3.8,13.2-15.8,16.1-20c10.2-11.3,20.5-22.6,30.7-33.9
		c3.2-4.8,6.9-0.5,9.4,2.6c2.4,3.5,2.3,4.3-0.5,7.5c-14.2,16.4-28.4,32.8-42.6,49.1C76.2,497.2,75.2,498.8,73.3,498.5z"/>
	<path class="st0" d="M367.3,725.5c-0.7-2.6,0.1-3.9,1.7-5c50.8-37.7,73.8-101.3,80.5-162.3c3,2.7,7.7,3.8,6.1,8.3
		C448.6,628.7,419.4,689.2,367.3,725.5z"/>
	<path class="st0" d="M519.8,359.3c11.3-11.7,19.8-24.8,25-40.2c0.9-2.7,2.3-4,4.9-5c9.8-3.7,17-11.2,22.8-19.6
		c0.1-0.1,0.2-0.1,0.7-0.2c-4.9,22.6-19.4,42.1-32,60.9C535.4,361.3,527.7,359.5,519.8,359.3z"/>
	<path class="st0" d="M191.9,449.2c4,0.1,8.6-1.1,11.4,2.6c2,2.2,4.2,2.5,7.1,1.9c12.9-2.6,25.6-5.4,38.6-7.7c0,4-2.5,8.4,2.8,10.9
		c-2.1,4.1-4.2,7.5-9.2,8.8c-7.3,1.9-14.4,4.4-21.6,6.8c-2.3,0.8-3.9,0.6-5.8-1.1c-8-6.9-15.3-15.1-24.1-21
		C191.4,450,191.6,449.6,191.9,449.2z"/>
	<path class="st0" d="M141.5,439.9c1.5-4.9,0-9.5-1.4-14.2c16.8,0.1,33.6,1.5,50.4,2.1c4.8,0.2,6.3,1.7,6.3,6.5
		c-0.1,3.7-0.8,9.2-5.9,8.6C174.5,441.6,157.9,441.8,141.5,439.9z"/>
	<path class="st0" d="M468.6,560.5c-3.6,2.3-6.7,2.2-10,0c-24.6-18-33.8-49.3-39.8-77.9c2.7-0.8,5.1-1.6,8-2.5
		C433.3,509.7,442.9,541.7,468.6,560.5z"/>
	<path class="st0" d="M430.5,479.1c4.4-2.7,7.5-6.4,6.8-11.6c-0.2-2.2,0.7-3.4,2.7-4.3c11.8-5.4,23.3-4.7,34.4,1.6
		c1.1,0.6,2,1.9,2.4,3.1c2.2,5.9,5.2,11.1,10.7,14.8c6.2,14,3.9,41.5,0,56.5c-2,6.8-5.3,12.8-10.6,17.6
		c-4.7,7.5-20.7-12.4-23.4-16.7C441,521.8,434.4,500.5,430.5,479.1z M433,482c5.7,25.9,14.3,54.2,36.9,70.2c2.4,1.8,3,1.8,5.3-0.2
		c6.8-5.5,10.6-13.5,12.2-21.9c3-14.2,1.4-28.7-0.1-42.9c-0.2-1.6-0.5-3.2-2.2-4.2c-7.9-4.2-6.2-11.9-10.8-14.3
		c-11.1-5-24.9-6.5-35.5,0.3C439.2,474.3,438.8,479.3,433,482z"/>
	<path class="st0" d="M178.5,533.6c-40.6,54.5,23.1,150.7,69.2,184.4c2.3,1.6,2.2,1.7,1,5c-47.4-40.2-91.9-98.7-85.9-164
		c0.1-7.6,5.3-13.3,8.6-19.8C172.8,536.4,174.8,534.8,178.5,533.6z"/>
	<path class="st0" d="M558.9,154.5c8.1,3,20.6,8.4,15.1,18.4c-11.8,19-11.6,41.5-15,63.1c-1.4-0.5-2.6-0.9-4-1.4
		C557,208,560.5,181.8,558.9,154.5z"/>
	<path class="st0" d="M576.3,264.7c-19.1-22.9-51.5-22.8-78.4-18.2c3.9-6.1,11.3-8.2,18-9.5C538.5,233.2,572.5,237.3,576.3,264.7z"
		/>
	<path class="st0" d="M369.3,775.5c-1.5,0-2.8,0-4.4,0c-1.3-13.5,0.4-27.1,0.7-40.6c0.4-4.2,8.9-7.1,12.1-9.7c4.1,2.7,4.2,2.7,3,7.3
		C376.9,746.9,373.5,761.2,369.3,775.5z"/>
	<path class="st0" d="M113.9,623.4c-16.5,0.9-31.9-4.8-43.2-16.9c-4.8-5.7-11.1-14.5-6-21.9c7.5,20.6,28.7,30.8,49.6,31.6
		C114.2,618.6,114,620.7,113.9,623.4z"/>
	<path class="st0" d="M525,229.1c7-10.2,8-18.6,3.2-25.5c-9.2,1.4-8-2.7-10.4-9.6c-0.3,0-0.5,0-0.8,0c1.2-2.3,2.4-4.6,3.8-7.1
		c16.6,4.8,22.5,27.5,13.2,41.2C531.8,231.5,528.3,229.4,525,229.1z"/>
	<path class="st0" d="M216.2,698.1c8.7,10.2,18.8,19.2,29.9,26.8c4.1,2.4,0.8,7,0.6,10.6c-5.5-1.9-30.1-23.1-35.4-30.3
		C213,702.9,214.7,700.4,216.2,698.1z"/>
	<path class="st0" d="M204.1,414.4c30.8,2.9,20.9-0.3,41.5,22.4c-8.2-1.4-15.5-4.2-23.5-6.3c-1.4-0.4-2.9-1.1-4-2
		C213.4,423.7,208.5,419.7,204.1,414.4z"/>
	<path class="st0" d="M8.3,546c2.7,8.6,7.6,14.2,16.6,14.9c4.3,13.4-21.2,16.4-21.5,4.6C3.6,558.4,2.7,551.8,8.3,546z"/>
	<path class="st0" d="M523.9,183.6c3.4-3.9,8.1-3.6,11.7-0.8c11.4,9.2,11.6,35.2,9.5,48.8c-2.8-0.4-5.2-0.7-7.9-1.1
		C545.7,211.2,542.8,195.2,523.9,183.6z"/>
	<path class="st0" d="M249.2,442.4c-12.6,2.4-25.3,4.8-38.1,7.3c0.6-3,5.5-12.2,8.7-16.4c9.7,2.6,19.6,5.1,29.4,8.1
		C249.2,441.7,249.2,442.1,249.2,442.4z"/>
	<path class="st0" d="M474.5,130.6c10.6-8.8,75.4,2,91,5.8c-0.4,2.1-1.4,2.8-3.5,2.3c-13.9-3.4-28-5-42.2-6
		C504.7,131.5,489.6,131.7,474.5,130.6z"/>
	<path class="st0" d="M187.4,506c1.6-13.1-0.4-25.3-6.2-37c0.2-0.1,0.5-0.2,0.7-0.3c6.8,6.6,13.5,13.3,20.6,20.3
		C197.7,495.1,192.6,500.6,187.4,506z"/>
	<path class="st0" d="M7.4,575.4c6.7,1.5,12.5,0.7,18-3.3c1.3,4.3,2.4,8.1,3.4,12c0.5,2.1-0.5,3.7-2.1,4.9
		c-4.8,3.5-13.1,3.9-16.2-1.8C9.2,583.5,8.5,579.7,7.4,575.4z"/>
	<path class="st0" d="M203.4,783.4c-0.9-3.3-1.7-6.3-2.7-10.2c12.3,5.9,24.3,10.3,37.2,13.6c-0.7,5.5-1.5,10.9-3,16.5
		C228.5,789.9,218.6,782.4,203.4,783.4z"/>
	<path class="st0" d="M30.2,577.3c11.7-4,15.2,13.7,7,18.7c-7.7,4.2-17.3,3.2-24.6-2c5.2,0.1,9.5,0.9,14-1.5
		C33.3,589.7,31.8,583.2,30.2,577.3z"/>
	<path class="st0" d="M128.2,444.3c-1.1-6.8-4.7-11.5-10.8-15c4.9-2.3,14.9-8.3,18.6-3.1c2.4,3.4,3.4,7.3,2.6,11.4
		C137.7,442.4,131.8,442.2,128.2,444.3z"/>
	<path class="st0" d="M242.8,469.8c-6.7,8.6-14.4,16.3-23.1,24c-1.3-5.9-0.2-11.4-1-17c8-2.6,15.7-5.2,23.5-7.7
		C242.4,469.3,242.6,469.6,242.8,469.8z"/>
	<path class="st0" d="M203.6,447.6c9.3-8.8,6-26.8-8.6-25.8c1.3-2.5,2.4-4.6,3.8-7.2c6,5.8,11.7,11.3,17.6,17
		c-3.3,5.9-6.5,11.7-9.8,17.8C205.6,448.8,204.8,448.3,203.6,447.6z"/>
	<path class="st0" d="M588.6,151.2c-6.6-4.9-12.9-8.2-20.8-11.2c1.6-1.5,3.2-3,4.7-4.4c6.6,0.5,7.1,0.3,10.5-4.3
		C584.7,133.5,588.5,146.8,588.6,151.2z"/>
	<path class="st0" d="M272,348c3.1-1,3.2-1,4.4,1.5c14.8,28.9,42.6,48.1,71.4,61.6C323.8,404.6,285.1,374.7,272,348z"/>
	<path class="st0" d="M578,252.9c-2.6-2.8-3.8-5.7-3-9.8c1.7-9.5,2.9-19.2,4.3-29C582.4,219.5,582.1,246.8,578,252.9z"/>
	<path class="st0" d="M311.8,395c-19-11-34.7-25.7-45.8-45c3-1.5,3-1.5,4.5,1.1C280.6,368.8,295.3,383.3,311.8,395z"/>
	<path class="st0" d="M172.3,525.9c-24,12.1-62.4-4.4-70.5-30C114.6,520.7,145.5,533.6,172.3,525.9z"/>
	<path class="st0" d="M238.4,422.3c6.2,0.4,11.8,1.7,17.7,3.7c-1.3,3.8-2.6,7.4-3.8,11.1C249.8,435.9,241,426.5,238.4,422.3z"/>
	<path class="st0" d="M459.1,455.9c-5.1,0-9.7,0-14.7,0c-1.2-2.2-2.5-4.7-4.1-7.8c3.1-0.2,5.8-0.3,8.5-0.4c0-0.2,0-0.4,0-0.6
		c-1-0.5-2-0.9-3.4-1.6C450.6,444.4,455.2,447.9,459.1,455.9z"/>
	<path class="st0" d="M540,362.7c-5.4,9.8-10.4,19.3-15.8,28.6c-1.5,3.3-10.1,9.9-13.6,7.6c5.6-2.2,10.7-4.7,13.1-10.6
		c3.2-7.3,6.7-14.4,9.9-21.7C534.7,364,536.2,362.7,540,362.7z"/>
	<path class="st0" d="M526,363.8c1.9,0,3.4,0,5.2,0c-3.1,8.1-7.2,15.6-10.8,23.5c-1.2,2.6-2.8,4.8-6,6
		C518.8,383.7,524.7,374.9,526,363.8z"/>
	<path class="st0" d="M286.2,330.2c0.9,2.3,1.8,4.6,2.8,7.2c-3,1.3-5.8,2.4-8.9,3.7c-1.9-2.9-3.1-6-4.5-9.3
		C279.1,330.6,282.5,330.5,286.2,330.2z"/>
	<path class="st0" d="M427.6,444.5c8.1-2.5,9.6,7.3,13.5,12.4c-2.1,0.7-3.7,1.3-5.7,2C432.8,453.7,430.6,449.5,427.6,444.5z"/>
	<path class="st0" d="M273.2,335.1c1.1,2.3,2.2,4.4,3.3,6.7c-4.8,3-10.9,3.7-16.2,5.8c-1.3,0.4-2.5,0.7-2.9-1.3
		C263.6,343.4,268.1,340.2,273.2,335.1z"/>
	<path class="st0" d="M577.1,132.1c-0.5-6-2.6-10.5-5.6-14.8c-1-1.4-0.8-3.5-1.2-5.5C576.2,113.3,584.6,126.7,577.1,132.1z"/>
	<path class="st0" d="M425.6,468.5c3-1,4.8-1.6,7.6-2.2c1.3,5.7-1.2,8.9-7.8,9.9C425.6,473.5,425.7,471.4,425.6,468.5z"/>
	<path class="st0" d="M199.5,445.2c3.8-6.3,3.9-12.6,0.3-19.1C207.8,428.1,207,443.2,199.5,445.2z"/>
	<path class="st0" d="M568.9,101.9c1.4-0.3,2.5-0.6,3.7-0.8c2.1,3.8,3,6,4.9,10.4C572.8,108.4,569.1,107.7,568.9,101.9z"/>
	<path class="st0" d="M13,540c-5.5,8.7,4.1,19.5,13.5,18C18.9,564.6,3.1,545,13,540z"/>
	<path class="st0" d="M431,460.2c-3-5.2-5.9-10.4-8.7-15.2C424.9,446.1,429.9,454.3,431,460.2z"/>
	<path class="st0" d="M199.4,442.2c0.4-4.1,0.7-7.3,1-10.7C201.9,435.1,201.2,438.2,199.4,442.2z"/>
	<path class="st0" d="M123.9,437.1c1.9,2.8,3.3,5.5,2,8.9C125.3,443.1,124.6,440.2,123.9,437.1z"/>
	<path class="st0" d="M572.8,131.4c-1.4-1.9-1.2-3.5-1.1-5.5C573.1,127.5,573.4,129,572.8,131.4z"/>
	<path class="st0" d="M111.9,649.1c1.3-0.7,2.3-1.3,3.6-2C114,651,113.9,651,111.9,649.1z"/>
	<path class="st0" d="M568.2,93.5c0.9,1.7,1.4,2.7,2.2,4.1C568.2,96.8,568.2,96.8,568.2,93.5z"/>
	<path class="st0" d="M119.6,432.9c-1.4-0.6-2.7-1.2-4.1-1.8C117.3,430.8,118.8,431.1,119.6,432.9L119.6,432.9z"/>
	<path class="st0" d="M385,715.3c0.8-0.7,1.6-1.3,2.4-2c0.1,0.1,0.3,0.3,0.4,0.4c-0.8,0.7-1.6,1.5-2.4,2.2
		C385.3,715.7,385.2,715.5,385,715.3z"/>
	<path class="st0" d="M119.5,433c1,0.6,1.9,1.1,2.9,1.7c-0.1,0.2-0.3,0.4-0.4,0.6C121.2,434.5,120.4,433.7,119.5,433
		C119.6,432.9,119.5,433,119.5,433z"/>
	<path class="st0" d="M383.2,717.5c-0.6,0.5-1.1,1-1.7,1.5c-0.1-0.1-0.2-0.3-0.3-0.4c0.6-0.5,1.2-1,1.7-1.4
		C383,717.2,383.1,717.4,383.2,717.5z"/>
	<path class="st0" d="M405.6,232.7c-7.7-2.2-23-2.2-28.5-7.2c-16.8-16-6.9-46,16-49.4C427.1,169.4,443.3,222.8,405.6,232.7z
		 M405.4,185.5c-22.3-9.4-39.3,22.9-19.6,36.6c17.3,13.5,42.9-9,30.3-27.2C408.3,202.3,399.3,194.4,405.4,185.5z"/>
	<path class="st0" d="M371.7,225.3c-2.9-1-5-1.8-7.1-2.5c-1.6-0.6-1.8-2-2-3.3c-10-37.8,44.4-71.6,71.9-42.3
		c13.5,14,14.1,32.9,6.6,50c-0.5,1.4-1.5,2.3-3,2.5c-6.4,0.8-12.7,1.7-19.1,2.5c-0.3,0-0.6-0.2-1.4-0.4
		c15.6-11.8,18.2-35.6,4.3-49.5C393.5,154.2,348.9,188.8,371.7,225.3z"/>
	<path class="st0" d="M404.8,103.6c2-1.4,4.5-1.5,6.8-1.6c11.3-0.8,22.5,2,26.7,14.2C426.8,116.8,409.3,116.5,404.8,103.6z"/>
	<path class="st0" d="M404,99.1c2.5-6.1,15.9-5.6,21.5-5.3c4.4,0.2,8.4,1.7,11.6,4.9c3.8,4.2,8.8,8,9.9,13.9c0.9,2.9-3.8,4.8-5,1.7
		C432.4,96.9,421.8,97.7,404,99.1z"/>
	<path class="st0" d="M395.3,60c9.5-1.1,16.8,3.4,23.7,9.1c1.4,1.6,4.6,3.3,3,5.7c-7.9,6.2-8.5-13.9-45.3-5.7
		c-2.4,0.4-3.3,0-3.9-1.7c-0.7-1.9,0.5-3.1,1.9-3.6C381.4,61.8,388.2,60,395.3,60z"/>
	<path class="st0" d="M411.2,76.9c-11.1,0.8-21.9,1.5-32.5-3.9C388.9,69.3,405.5,69.6,411.2,76.9z"/>
	<path class="st0" d="M392,41.5c-8.5,5.8-12.9,2.2-22,1.3c-10.9-1.1-19.5,13.1-30.5,4.9C346.4,36,380.2,31.8,392,41.5z"/>
	<path class="st0" d="M373.1,47.5c-3.8,0.6-7.5,1.2-11.3,1.9C365.2,46.2,368.9,45.4,373.1,47.5z"/>
	<path class="st0" d="M473.1,44.5c5.4-4.3,5.4-4.3,5.5-11.1c14.6-5.4,30.7-1.9,44.7,3.8c7.6,2.6,4,10.2,14.9,13.8
		c7.2,2,8,34.5,5.7,41.3c-0.7,7-11.8,22.2-19.5,17.3C502.6,92.3,484.3,70.1,473.1,44.5z M478.3,48.4c9.7,21.7,24.9,40,43.1,55
		c4.7,4.2,5.5,4.1,10.4-0.1c6.7-5.8,9.7-13.9,10.1-22.5c0.1-5.9-0.7-25.8-5.7-28.9c-4.5-2.1-7.8-5.6-10.2-9.8
		c-5.4-7.9-35.4-10.3-43.3-5.1C483.4,41.8,483.4,46.1,478.3,48.4z"/>
	<path class="st0" d="M473.6,501.6c-0.7,5.4-1.3,10.4-1.9,15.3c-0.3,0-0.6,0-0.9,0c-1.5-6.9-3-13.8-4.6-21.4
		c3.1-0.3,7.5,1.3,7.6-2.9c0.7-5.8-4.2-5.8-8.7-6c3.8-18.7-19.8-20.4-10.4-0.1c-2.9,0.3-7-1.2-7.5,2.6c-0.7,6,5.2,6.5,9.9,6.1
		c0.9,8.5,1.8,16.6,2.7,24.8c-2-1-2-1-1.8-2.9c-1.2-5.5-4.5-10.6-6.5-16.1c-3.6,2.9-4.2,7.2-5.5,11.7c-3.8-8.2-5.4-16.9-8.4-25.4
		c-0.6-2.1-0.5-3.6,1.2-5.4c2.2-2.8,3.4-6.5,3.9-10.1c6.5-2.7,27-1.9,29.2,6.1c1.3,3.9,3.7,7.1,7,9.7c4.7,3.9,3.5,19.6,3.6,25.9
		C480.1,509.4,478.4,504.7,473.6,501.6z"/>
	<path class="st0" d="M470.2,526.4c4.7-1.9,6.5-5.8,6.1-9.9c-1.6-3.6-1.6-4-0.3-8.5c1.9,2.2,3.3,4.7,3.7,7.3
		c-3.7,9.6-2.9,14.4-10,23.4c-9.3-5.7-14.5-15.4-20.2-24.4c-1.1-2.2,0.5-4.8,0.8-7.1c0.3,0,0.6,0,0.9-0.1c0.9,2.2,2.3,4.5,2.8,6.8
		c-2.2,2.4,0.1,4.1,1.2,5.8c1.7,2.8,4.2,4.9,8,6.4c-1.2-11.2-2.3-21.9-3.5-33.1c-3.3-0.8-9.7,1.6-9.5-3.6c2.9-0.2,5.8-0.3,8.6-0.5
		c0.7-4-4.8-5.9-3.7-10.9c2.1-8.8,10.6,1.6,7.5,7c-0.4,1.2-0.6,2.5-1,4.3c3.7,0.6,10.4-2.1,9.6,3.5c-2.5,0-4.9,0-8,0
		C465.3,504.3,467.8,515.1,470.2,526.4z M461.7,480.9c0-2.1-1.5-4.1-3.1-4.2c-3.7-0.1-2.1,7.2,0.8,7
		C460.9,483.8,461.7,482.7,461.7,480.9z"/>
	<path class="st0" d="M448.3,517.9c5.7,9.2,11.9,18,21.6,24.4c5.6-5.9,9-12.8,10.6-20.7c0.3-1.4,0.3-1.4,1.6-2.5
		c3,5.6-3.3,23.5-10.6,29.7C460.3,541,453.3,530.2,448.3,517.9z"/>
	<path class="st0" d="M474.2,475.4c2.6,4,5,8.3,8.4,11.7C478,484.6,475.6,480.4,474.2,475.4z"/>
	<path class="st0" d="M473.7,518.8c-0.4,0.9-0.8,1.7-1.4,2.9C471.2,519.8,470.8,517.6,473.7,518.8z"/>
	<path class="st0" d="M471.7,471.6c0.6,0.3,1.2,0.6,1.8,0.9c-0.1,0.2-0.1,0.3-0.2,0.5c-0.6-0.3-1.2-0.6-1.8-0.9
		C471.5,471.9,471.6,471.8,471.7,471.6z"/>
	<path class="st0" d="M513.8,63.9c0.3-0.5,0.4-1.2,0.9-1.6c6.2-6.3-0.7-16.1-6.7-19.8c-4.5-2.9-11.4-1-10.5,5.3c0.3,2.4,1.3,4.8,2,7
		c-4.9-0.8-10.4-2.2-11.7,4.8c-1.9-3.4-3.4-6.2-5.1-9.4c3.3-2.9,4-6.8,3.9-11.2c11.2-2.2,22.3-0.9,32.9,2.8c4.2,1.7,5.8,6.3,8.9,9.8
		c-8.6-2.4-12.8,4.1-9.1,11.8C517.3,63.6,515.6,63.7,513.8,63.9C513.8,63.9,513.8,63.9,513.8,63.9z"/>
	<path class="st0" d="M528.3,85.8c-4.8,0.5-10.7,4.5-14.2-0.3c-5.1-4.8-6.2-22,4.5-17.9c5.5,0.7,24.2,20.7,9.8,18.6
		C528.3,86.1,528.3,86,528.3,85.8z"/>
	<path class="st0" d="M537.1,87.1c-1.4,6.8-4.7,12.1-10.9,15.9c-11.7-10.2-23-20.7-32-33.6c4,1.6,7.8,3.2,12.4,2.1
		c-0.5,10,4.3,23.7,16.7,19.3C527.8,88.7,533.8,91.9,537.1,87.1z"/>
	<path class="st0" d="M537.6,84.2c-1.2-6.7-5.9-11-10.7-15.9c7.2-0.5,9.2-8.2,5.2-13.5C538.2,53.5,538.8,79.9,537.6,84.2z"/>
	<path class="st0" d="M513.5,55.9c0,9.8-12.2-3-12.3-7.1c-1.3-3.3,1.6-4.9,4.4-3.6C509.9,47.7,512.7,51.5,513.5,55.9z"/>
	<path class="st0" d="M505.4,68.2c-5.6,0.3-10.6-2.2-13.1-7.3c-1.1-2.2,0.1-3.8,2.5-3.6C498.6,57.7,504.4,63.2,505.4,68.2z"/>
	<path class="st0" d="M521.5,58.4c0-6.7,7.9-3.3,8.9,0.9c1.4,3.3-2.4,6.7-5.4,4.5C522.8,62.5,521.6,60.6,521.5,58.4z"/>
	<path class="st0" d="M513.8,63.9c-1.5,0.5-3,1-4.8,1.7c-0.3-0.8-0.8-1.8-1.5-3.4C510,62.8,511.9,63.4,513.8,63.9z"/>
	<path class="st0" d="M459.3,478.6c0.2,0.9,0.5,1.9,0.9,3.5c-1.9-1.1-2.3-2.1-1.9-3.3C458.7,478.8,459,478.7,459.3,478.6z"/>
</g>
</svg>
